<svg version="1.1" xmlns="http://www.w3.org/2000/svg" xmlns:xlink="http://www.w3.org/1999/xlink" fill="transparent" x="0" y="0" width="350" height="350" preserveAspectRatio="xMinYMin slice"><style type="text/css">.links{fill:transparent;stroke: #E4CF37;}.links:hover{fill:#63D272; opacity:0.4;}</style><defs><g id="allt"><path id="t1000" d="M3003,224 L2992,222 C2981,221 2995,228 2986,228 C2978,229 2990,223 2980,223 L2970,224 2970,224 L2971,233 C2972,242 2965,229 2966,238 C2967,248 2973,236 2971,246 L2970,256 2970,256 L2979,257 C2988,258 2975,251 2985,252 C2995,253 2983,259 2993,257 L3003,256 3003,256 L3003,246 C3004,236 2997,247 2995,239 C2994,232 3006,242 3004,233 L3003,224"/></g><clipPath id="c" clipRule="evenodd" fill="transparent"><use href="#t1000"/></clipPath></defs><svg viewBox="2964 220 43 40" preserveAspectRatio="xMinYMin meet"><svg width="4380" height="2430"><g><image crossorigin="anonymous" x="0" y="0" href="https://nftpuzzle.license-token.com/assets/completepuzzle.svg" width="100%" height="100%" /><g class="links"><use href="#t1000"/></g></g></svg><svg x="2992" y="245" height="9%" width="9%" viewBox="0 0 330 330"><g><a xlink:href="https://nftpuzzle.license-token.com/" class="links"><title>See the most innovative NFT based token software licensing project</title><path fill="#E4CF37" id="more" d="M165,0C74.019,0,0,74.019,0,165s74.019,165,165,165s165-74.019,165-165S255.981,0,165,0z M85,190 c-13.785,0-25-11.215-25-25s11.215-25,25-25s25,11.215,25,25S98.785,190,85,190z M165,190c-13.785,0-25-11.215-25-25 s11.215-25,25-25s25,11.215,25,25S178.785,190,165,190z M245,190c-13.785,0-25-11.215-25-25s11.215-25,25-25 c13.785,0,25,11.215,25,25S258.785,190,245,190z"></path></a></g></svg></svg></svg>