<svg version="1.1" xmlns="http://www.w3.org/2000/svg" xmlns:xlink="http://www.w3.org/1999/xlink" fill="transparent" x="0" y="0" width="350" height="350" preserveAspectRatio="xMinYMin slice"><style type="text/css">.links{fill:transparent;stroke: #E4CF37;}.links:hover{fill:#63D272; opacity:0.4;}</style><defs><g id="allt"><path id="t1018" d="M3597,224 L3586,221 C3576,219 3587,232 3578,231 C3569,230 3582,224 3573,224 L3564,224 3564,224 L3564,233 C3565,243 3560,232 3561,240 C3562,249 3564,235 3564,245 L3564,256 3564,256 L3574,256 C3584,257 3572,252 3581,253 C3590,254 3576,256 3586,256 L3597,256 3597,256 L3596,246 C3596,236 3607,248 3607,240 C3607,232 3596,243 3596,233 L3597,224"/></g><clipPath id="c" clipRule="evenodd" fill="transparent"><use href="#t1018"/></clipPath></defs><svg viewBox="3559 218 49 40" preserveAspectRatio="xMinYMin meet"><svg width="4380" height="2430"><g><image crossorigin="anonymous" x="0" y="0" href="https://nftpuzzle.license-token.com/assets/completepuzzle.svg" width="100%" height="100%" /><g class="links"><use href="#t1018"/></g></g></svg><svg x="3593" y="243" height="9%" width="9%" viewBox="0 0 330 330"><g><a xlink:href="https://nftpuzzle.license-token.com/" class="links"><title>See the most innovative NFT based token software licensing project</title><path fill="#E4CF37" id="more" d="M165,0C74.019,0,0,74.019,0,165s74.019,165,165,165s165-74.019,165-165S255.981,0,165,0z M85,190 c-13.785,0-25-11.215-25-25s11.215-25,25-25s25,11.215,25,25S98.785,190,85,190z M165,190c-13.785,0-25-11.215-25-25 s11.215-25,25-25s25,11.215,25,25S178.785,190,165,190z M245,190c-13.785,0-25-11.215-25-25s11.215-25,25-25 c13.785,0,25,11.215,25,25S258.785,190,245,190z"></path></a></g></svg></svg></svg>