<svg version="1.1" xmlns="http://www.w3.org/2000/svg" xmlns:xlink="http://www.w3.org/1999/xlink" fill="transparent" x="0" y="0" width="350" height="350" preserveAspectRatio="xMinYMin slice"><style type="text/css">.links{fill:transparent;stroke: #E4CF37;}.links:hover{fill:#63D272; opacity:0.4;}</style><defs><g id="allt"><path id="t1122" d="M2739,256 L2729,256 C2719,256 2733,248 2724,248 C2715,248 2724,256 2715,256 L2706,256 2706,256 L2708,264 C2710,273 2694,264 2694,272 C2695,280 2706,266 2706,277 L2706,288 2706,288 L2715,290 C2724,292 2714,277 2722,277 C2731,277 2717,288 2728,288 L2739,288 2739,288 L2741,277 C2744,266 2727,281 2727,272 C2728,264 2740,277 2739,266 L2739,256"/></g><clipPath id="c" clipRule="evenodd" fill="transparent"><use href="#t1122"/></clipPath></defs><svg viewBox="2693 247 52 46" preserveAspectRatio="xMinYMin meet"><svg width="4380" height="2430"><g><image crossorigin="anonymous" x="0" y="0" href="https://nftpuzzle.license-token.com/assets/completepuzzle.svg" width="100%" height="100%" /><g class="links"><use href="#t1122"/></g></g></svg><svg x="2730" y="278" height="9%" width="9%" viewBox="0 0 330 330"><g><a xlink:href="https://nftpuzzle.license-token.com/" class="links"><title>See the most innovative NFT based token software licensing project</title><path fill="#E4CF37" id="more" d="M165,0C74.019,0,0,74.019,0,165s74.019,165,165,165s165-74.019,165-165S255.981,0,165,0z M85,190 c-13.785,0-25-11.215-25-25s11.215-25,25-25s25,11.215,25,25S98.785,190,85,190z M165,190c-13.785,0-25-11.215-25-25 s11.215-25,25-25s25,11.215,25,25S178.785,190,165,190z M245,190c-13.785,0-25-11.215-25-25s11.215-25,25-25 c13.785,0,25,11.215,25,25S258.785,190,245,190z"></path></a></g></svg></svg></svg>