<svg version="1.1" xmlns="http://www.w3.org/2000/svg" xmlns:xlink="http://www.w3.org/1999/xlink" fill="transparent" x="0" y="0" width="350" height="350" preserveAspectRatio="xMinYMin slice"><style type="text/css">.links{fill:transparent;stroke: #E4CF37;}.links:hover{fill:#63D272; opacity:0.4;}</style><defs><g id="allt"><path id="t1388" d="M2937,320 L2926,320 C2916,320 2931,325 2920,328 C2910,331 2923,318 2913,319 L2904,320 2904,320 L2905,329 C2906,338 2899,329 2900,336 C2902,344 2904,334 2904,343 L2904,352 2904,352 L2913,353 C2923,354 2913,347 2921,348 C2929,350 2918,352 2927,352 L2937,352 2937,352 L2938,341 C2939,330 2932,345 2932,335 C2932,325 2939,340 2938,330 L2937,320"/></g><clipPath id="c" clipRule="evenodd" fill="transparent"><use href="#t1388"/></clipPath></defs><svg viewBox="2898 317 42 38" preserveAspectRatio="xMinYMin meet"><svg width="4380" height="2430"><g><image crossorigin="anonymous" x="0" y="0" href="https://nftpuzzle.license-token.com/assets/completepuzzle.svg" width="100%" height="100%" /><g class="links"><use href="#t1388"/></g></g></svg><svg x="2925" y="340" height="9%" width="9%" viewBox="0 0 330 330"><g><a xlink:href="https://nftpuzzle.license-token.com/" class="links"><title>See the most innovative NFT based token software licensing project</title><path fill="#E4CF37" id="more" d="M165,0C74.019,0,0,74.019,0,165s74.019,165,165,165s165-74.019,165-165S255.981,0,165,0z M85,190 c-13.785,0-25-11.215-25-25s11.215-25,25-25s25,11.215,25,25S98.785,190,85,190z M165,190c-13.785,0-25-11.215-25-25 s11.215-25,25-25s25,11.215,25,25S178.785,190,165,190z M245,190c-13.785,0-25-11.215-25-25s11.215-25,25-25 c13.785,0,25,11.215,25,25S258.785,190,245,190z"></path></a></g></svg></svg></svg>