<svg version="1.1" xmlns="http://www.w3.org/2000/svg" xmlns:xlink="http://www.w3.org/1999/xlink" fill="transparent" x="0" y="0" width="350" height="350" preserveAspectRatio="xMinYMin slice"><style type="text/css">.links{fill:transparent;stroke: #E4CF37;}.links:hover{fill:#63D272; opacity:0.4;}</style><defs><g id="allt"><path id="t1416" d="M3861,320 L3851,320 C3842,320 3851,324 3842,326 C3834,328 3846,319 3837,319 L3828,320 3828,320 L3829,329 C3830,338 3824,325 3824,333 C3825,342 3830,330 3829,341 L3828,352 3828,352 L3837,353 C3846,354 3833,348 3842,348 C3851,349 3838,354 3849,353 L3861,352 3861,352 L3860,341 C3860,330 3870,342 3870,334 C3870,326 3861,337 3861,328 L3861,320"/></g><clipPath id="c" clipRule="evenodd" fill="transparent"><use href="#t1416"/></clipPath></defs><svg viewBox="3823 318 48 37" preserveAspectRatio="xMinYMin meet"><svg width="4380" height="2430"><g><image crossorigin="anonymous" x="0" y="0" href="https://nftpuzzle.license-token.com/assets/completepuzzle.svg" width="100%" height="100%" /><g class="links"><use href="#t1416"/></g></g></svg><svg x="3856" y="340" height="9%" width="9%" viewBox="0 0 330 330"><g><a xlink:href="https://nftpuzzle.license-token.com/" class="links"><title>See the most innovative NFT based token software licensing project</title><path fill="#E4CF37" id="more" d="M165,0C74.019,0,0,74.019,0,165s74.019,165,165,165s165-74.019,165-165S255.981,0,165,0z M85,190 c-13.785,0-25-11.215-25-25s11.215-25,25-25s25,11.215,25,25S98.785,190,85,190z M165,190c-13.785,0-25-11.215-25-25 s11.215-25,25-25s25,11.215,25,25S178.785,190,165,190z M245,190c-13.785,0-25-11.215-25-25s11.215-25,25-25 c13.785,0,25,11.215,25,25S258.785,190,245,190z"></path></a></g></svg></svg></svg>