<svg version="1.1" xmlns="http://www.w3.org/2000/svg" xmlns:xlink="http://www.w3.org/1999/xlink" fill="transparent" x="0" y="0" width="350" height="350" preserveAspectRatio="xMinYMin slice"><style type="text/css">.links{fill:transparent;stroke: #E4CF37;}.links:hover{fill:#63D272; opacity:0.4;}</style><defs><g id="allt"><path id="t1426" d="M4191,320 L4180,319 C4170,319 4182,323 4172,322 C4163,322 4178,319 4168,319 L4158,320 4158,320 L4158,330 C4158,341 4149,325 4146,334 C4144,344 4160,332 4159,342 L4158,352 4158,352 L4169,352 C4180,352 4163,344 4173,341 C4183,339 4171,354 4181,353 L4191,352 4191,352 L4191,341 C4191,330 4187,347 4186,337 C4185,327 4193,339 4192,329 L4191,320"/></g><clipPath id="c" clipRule="evenodd" fill="transparent"><use href="#t1426"/></clipPath></defs><svg viewBox="4143 318 51 37" preserveAspectRatio="xMinYMin meet"><svg width="4380" height="2430"><g><image crossorigin="anonymous" x="0" y="0" href="https://nftpuzzle.license-token.com/assets/completepuzzle.svg" width="100%" height="100%" /><g class="links"><use href="#t1426"/></g></g></svg><svg x="4179" y="340" height="9%" width="9%" viewBox="0 0 330 330"><g><a xlink:href="https://nftpuzzle.license-token.com/" class="links"><title>See the most innovative NFT based token software licensing project</title><path fill="#E4CF37" id="more" d="M165,0C74.019,0,0,74.019,0,165s74.019,165,165,165s165-74.019,165-165S255.981,0,165,0z M85,190 c-13.785,0-25-11.215-25-25s11.215-25,25-25s25,11.215,25,25S98.785,190,85,190z M165,190c-13.785,0-25-11.215-25-25 s11.215-25,25-25s25,11.215,25,25S178.785,190,165,190z M245,190c-13.785,0-25-11.215-25-25s11.215-25,25-25 c13.785,0,25,11.215,25,25S258.785,190,245,190z"></path></a></g></svg></svg></svg>