<svg version="1.1" xmlns="http://www.w3.org/2000/svg" xmlns:xlink="http://www.w3.org/1999/xlink" fill="transparent" x="0" y="0" width="350" height="350" preserveAspectRatio="xMinYMin slice"><style type="text/css">.links{fill:transparent;stroke: #E4CF37;}.links:hover{fill:#63D272; opacity:0.4;}</style><defs><g id="allt"><path id="t1532" d="M3399,352 L3388,352 C3377,352 3392,347 3383,346 C3374,345 3388,352 3377,352 L3366,352 3366,352 L3366,361 C3366,371 3359,358 3360,367 C3362,376 3369,365 3367,374 L3366,384 3366,384 L3375,384 C3385,384 3372,377 3381,378 C3391,380 3379,387 3389,385 L3399,384 3399,384 L3399,374 C3399,364 3396,377 3395,367 C3395,358 3400,370 3399,361 L3399,352"/></g><clipPath id="c" clipRule="evenodd" fill="transparent"><use href="#t1532"/></clipPath></defs><svg viewBox="3358 344 43 44" preserveAspectRatio="xMinYMin meet"><svg width="4380" height="2430"><g><image crossorigin="anonymous" x="0" y="0" href="https://nftpuzzle.license-token.com/assets/completepuzzle.svg" width="100%" height="100%" /><g class="links"><use href="#t1532"/></g></g></svg><svg x="3386" y="373" height="9%" width="9%" viewBox="0 0 330 330"><g><a xlink:href="https://nftpuzzle.license-token.com/" class="links"><title>See the most innovative NFT based token software licensing project</title><path fill="#E4CF37" id="more" d="M165,0C74.019,0,0,74.019,0,165s74.019,165,165,165s165-74.019,165-165S255.981,0,165,0z M85,190 c-13.785,0-25-11.215-25-25s11.215-25,25-25s25,11.215,25,25S98.785,190,85,190z M165,190c-13.785,0-25-11.215-25-25 s11.215-25,25-25s25,11.215,25,25S178.785,190,165,190z M245,190c-13.785,0-25-11.215-25-25s11.215-25,25-25 c13.785,0,25,11.215,25,25S258.785,190,245,190z"></path></a></g></svg></svg></svg>