<svg version="1.1" xmlns="http://www.w3.org/2000/svg" xmlns:xlink="http://www.w3.org/1999/xlink" fill="transparent" x="0" y="0" width="350" height="350" preserveAspectRatio="xMinYMin slice"><style type="text/css">.links{fill:transparent;stroke: #E4CF37;}.links:hover{fill:#63D272; opacity:0.4;}</style><defs><g id="allt"><path id="t1800" d="M3663,416 L3652,416 C3641,416 3654,412 3646,413 C3638,414 3649,417 3639,416 L3630,416 3630,416 L3630,426 C3631,436 3624,422 3625,432 C3627,443 3631,428 3630,438 L3630,448 3630,448 L3640,448 C3651,449 3636,442 3647,443 C3658,445 3642,449 3652,448 L3663,448 3663,448 L3663,438 C3663,429 3661,439 3660,431 C3660,423 3664,436 3663,426 L3663,416"/></g><clipPath id="c" clipRule="evenodd" fill="transparent"><use href="#t1800"/></clipPath></defs><svg viewBox="3623 411 42 39" preserveAspectRatio="xMinYMin meet"><svg width="4380" height="2430"><g><image crossorigin="anonymous" x="0" y="0" href="https://nftpuzzle.license-token.com/assets/completepuzzle.svg" width="100%" height="100%" /><g class="links"><use href="#t1800"/></g></g></svg><svg x="3650" y="435" height="9%" width="9%" viewBox="0 0 330 330"><g><a xlink:href="https://nftpuzzle.license-token.com/" class="links"><title>See the most innovative NFT based token software licensing project</title><path fill="#E4CF37" id="more" d="M165,0C74.019,0,0,74.019,0,165s74.019,165,165,165s165-74.019,165-165S255.981,0,165,0z M85,190 c-13.785,0-25-11.215-25-25s11.215-25,25-25s25,11.215,25,25S98.785,190,85,190z M165,190c-13.785,0-25-11.215-25-25 s11.215-25,25-25s25,11.215,25,25S178.785,190,165,190z M245,190c-13.785,0-25-11.215-25-25s11.215-25,25-25 c13.785,0,25,11.215,25,25S258.785,190,245,190z"></path></a></g></svg></svg></svg>