<svg version="1.1" xmlns="http://www.w3.org/2000/svg" xmlns:xlink="http://www.w3.org/1999/xlink" fill="transparent" x="0" y="0" width="350" height="350" preserveAspectRatio="xMinYMin slice"><style type="text/css">.links{fill:transparent;stroke: #E4CF37;}.links:hover{fill:#63D272; opacity:0.4;}</style><defs><g id="allt"><path id="t1884" d="M2145,448 L2135,446 C2126,444 2136,455 2128,457 C2120,460 2133,447 2122,447 L2112,448 2112,448 L2112,457 C2112,466 2104,457 2105,463 C2106,470 2112,462 2112,471 L2112,480 2112,480 L2121,480 C2131,480 2121,472 2128,473 C2135,474 2126,480 2135,480 L2145,480 2145,480 L2143,470 C2142,460 2152,474 2154,465 C2156,456 2141,466 2143,457 L2145,448"/></g><clipPath id="c" clipRule="evenodd" fill="transparent"><use href="#t1884"/></clipPath></defs><svg viewBox="2103 443 54 38" preserveAspectRatio="xMinYMin meet"><svg width="4380" height="2430"><g><image crossorigin="anonymous" x="0" y="0" href="https://nftpuzzle.license-token.com/assets/completepuzzle.svg" width="100%" height="100%" /><g class="links"><use href="#t1884"/></g></g></svg><svg x="2142" y="466" height="9%" width="9%" viewBox="0 0 330 330"><g><a xlink:href="https://nftpuzzle.license-token.com/" class="links"><title>See the most innovative NFT based token software licensing project</title><path fill="#E4CF37" id="more" d="M165,0C74.019,0,0,74.019,0,165s74.019,165,165,165s165-74.019,165-165S255.981,0,165,0z M85,190 c-13.785,0-25-11.215-25-25s11.215-25,25-25s25,11.215,25,25S98.785,190,85,190z M165,190c-13.785,0-25-11.215-25-25 s11.215-25,25-25s25,11.215,25,25S178.785,190,165,190z M245,190c-13.785,0-25-11.215-25-25s11.215-25,25-25 c13.785,0,25,11.215,25,25S258.785,190,245,190z"></path></a></g></svg></svg></svg>