<svg version="1.1" xmlns="http://www.w3.org/2000/svg" xmlns:xlink="http://www.w3.org/1999/xlink" fill="transparent" x="0" y="0" width="350" height="350" preserveAspectRatio="xMinYMin slice"><style type="text/css">.links{fill:transparent;stroke: #E4CF37;}.links:hover{fill:#63D272; opacity:0.4;}</style><defs><g id="allt"><path id="t1996" d="M1551,480 L1541,482 C1531,484 1542,472 1533,471 C1525,470 1539,480 1528,480 L1518,480 1518,480 L1518,489 C1519,499 1513,486 1513,495 C1513,504 1518,493 1518,502 L1518,512 1518,512 L1527,512 C1537,513 1524,507 1533,507 C1543,507 1531,512 1541,512 L1551,512 1551,512 L1549,502 C1548,492 1562,503 1559,495 C1556,487 1551,498 1551,489 L1551,480"/></g><clipPath id="c" clipRule="evenodd" fill="transparent"><use href="#t1996"/></clipPath></defs><svg viewBox="1512 469 51 45" preserveAspectRatio="xMinYMin meet"><svg width="4380" height="2430"><g><image crossorigin="anonymous" x="0" y="0" href="https://nftpuzzle.license-token.com/assets/completepuzzle.svg" width="100%" height="100%" /><g class="links"><use href="#t1996"/></g></g></svg><svg x="1548" y="499" height="9%" width="9%" viewBox="0 0 330 330"><g><a xlink:href="https://nftpuzzle.license-token.com/" class="links"><title>See the most innovative NFT based token software licensing project</title><path fill="#E4CF37" id="more" d="M165,0C74.019,0,0,74.019,0,165s74.019,165,165,165s165-74.019,165-165S255.981,0,165,0z M85,190 c-13.785,0-25-11.215-25-25s11.215-25,25-25s25,11.215,25,25S98.785,190,85,190z M165,190c-13.785,0-25-11.215-25-25 s11.215-25,25-25s25,11.215,25,25S178.785,190,165,190z M245,190c-13.785,0-25-11.215-25-25s11.215-25,25-25 c13.785,0,25,11.215,25,25S258.785,190,245,190z"></path></a></g></svg></svg></svg>