<svg version="1.1" xmlns="http://www.w3.org/2000/svg" xmlns:xlink="http://www.w3.org/1999/xlink" fill="transparent" x="0" y="0" width="350" height="350" preserveAspectRatio="xMinYMin slice"><style type="text/css">.links{fill:transparent;stroke: #E4CF37;}.links:hover{fill:#63D272; opacity:0.4;}</style><defs><g id="allt"><path id="t1998" d="M1617,480 L1606,481 C1596,483 1611,472 1602,472 C1593,472 1605,480 1594,480 L1584,480 1584,480 L1586,489 C1589,498 1575,486 1576,496 C1577,507 1584,490 1584,501 L1584,512 1584,512 L1593,514 C1603,517 1590,503 1601,504 C1612,505 1594,512 1605,512 L1617,512 1617,512 L1617,502 C1617,493 1621,504 1620,494 C1619,485 1617,500 1617,490 L1617,480"/></g><clipPath id="c" clipRule="evenodd" fill="transparent"><use href="#t1998"/></clipPath></defs><svg viewBox="1574 471 48 47" preserveAspectRatio="xMinYMin meet"><svg width="4380" height="2430"><g><image crossorigin="anonymous" x="0" y="0" href="https://nftpuzzle.license-token.com/assets/completepuzzle.svg" width="100%" height="100%" /><g class="links"><use href="#t1998"/></g></g></svg><svg x="1607" y="503" height="9%" width="9%" viewBox="0 0 330 330"><g><a xlink:href="https://nftpuzzle.license-token.com/" class="links"><title>See the most innovative NFT based token software licensing project</title><path fill="#E4CF37" id="more" d="M165,0C74.019,0,0,74.019,0,165s74.019,165,165,165s165-74.019,165-165S255.981,0,165,0z M85,190 c-13.785,0-25-11.215-25-25s11.215-25,25-25s25,11.215,25,25S98.785,190,85,190z M165,190c-13.785,0-25-11.215-25-25 s11.215-25,25-25s25,11.215,25,25S178.785,190,165,190z M245,190c-13.785,0-25-11.215-25-25s11.215-25,25-25 c13.785,0,25,11.215,25,25S258.785,190,245,190z"></path></a></g></svg></svg></svg>