<svg version="1.1" xmlns="http://www.w3.org/2000/svg" xmlns:xlink="http://www.w3.org/1999/xlink" fill="transparent" x="0" y="0" width="350" height="350" preserveAspectRatio="xMinYMin slice"><style type="text/css">.links{fill:transparent;stroke: #E4CF37;}.links:hover{fill:#63D272; opacity:0.4;}</style><defs><g id="allt"><path id="t2002" d="M1749,480 L1738,479 C1728,479 1743,484 1733,486 C1724,488 1735,476 1725,478 L1716,480 1716,480 L1716,488 C1717,497 1713,487 1712,497 C1712,507 1716,492 1716,502 L1716,512 1716,512 L1725,512 C1734,513 1723,509 1733,508 C1744,508 1728,512 1738,512 L1749,512 1749,512 L1747,501 C1745,490 1756,504 1755,496 C1754,488 1746,497 1747,488 L1749,480"/></g><clipPath id="c" clipRule="evenodd" fill="transparent"><use href="#t2002"/></clipPath></defs><svg viewBox="1711 475 46 39" preserveAspectRatio="xMinYMin meet"><svg width="4380" height="2430"><g><image crossorigin="anonymous" x="0" y="0" href="https://nftpuzzle.license-token.com/assets/completepuzzle.svg" width="100%" height="100%" /><g class="links"><use href="#t2002"/></g></g></svg><svg x="1742" y="499" height="9%" width="9%" viewBox="0 0 330 330"><g><a xlink:href="https://nftpuzzle.license-token.com/" class="links"><title>See the most innovative NFT based token software licensing project</title><path fill="#E4CF37" id="more" d="M165,0C74.019,0,0,74.019,0,165s74.019,165,165,165s165-74.019,165-165S255.981,0,165,0z M85,190 c-13.785,0-25-11.215-25-25s11.215-25,25-25s25,11.215,25,25S98.785,190,85,190z M165,190c-13.785,0-25-11.215-25-25 s11.215-25,25-25s25,11.215,25,25S178.785,190,165,190z M245,190c-13.785,0-25-11.215-25-25s11.215-25,25-25 c13.785,0,25,11.215,25,25S258.785,190,245,190z"></path></a></g></svg></svg></svg>