<svg version="1.1" xmlns="http://www.w3.org/2000/svg" xmlns:xlink="http://www.w3.org/1999/xlink" fill="transparent" x="0" y="0" width="350" height="350" preserveAspectRatio="xMinYMin slice"><style type="text/css">.links{fill:transparent;stroke: #E4CF37;}.links:hover{fill:#63D272; opacity:0.4;}</style><defs><g id="allt"><path id="t2012" d="M2079,480 L2069,480 C2060,480 2070,483 2060,483 C2050,484 2067,480 2056,480 L2046,480 2046,480 L2046,488 C2046,497 2036,489 2038,497 C2041,506 2049,491 2047,501 L2046,512 2046,512 L2055,512 C2064,512 2055,503 2064,505 C2073,507 2058,515 2068,513 L2079,512 2079,512 L2078,501 C2078,490 2085,504 2085,495 C2085,486 2079,499 2079,489 L2079,480"/></g><clipPath id="c" clipRule="evenodd" fill="transparent"><use href="#t2012"/></clipPath></defs><svg viewBox="2035 479 51 37" preserveAspectRatio="xMinYMin meet"><svg width="4380" height="2430"><g><image crossorigin="anonymous" x="0" y="0" href="https://nftpuzzle.license-token.com/assets/completepuzzle.svg" width="100%" height="100%" /><g class="links"><use href="#t2012"/></g></g></svg><svg x="2071" y="501" height="9%" width="9%" viewBox="0 0 330 330"><g><a xlink:href="https://nftpuzzle.license-token.com/" class="links"><title>See the most innovative NFT based token software licensing project</title><path fill="#E4CF37" id="more" d="M165,0C74.019,0,0,74.019,0,165s74.019,165,165,165s165-74.019,165-165S255.981,0,165,0z M85,190 c-13.785,0-25-11.215-25-25s11.215-25,25-25s25,11.215,25,25S98.785,190,85,190z M165,190c-13.785,0-25-11.215-25-25 s11.215-25,25-25s25,11.215,25,25S178.785,190,165,190z M245,190c-13.785,0-25-11.215-25-25s11.215-25,25-25 c13.785,0,25,11.215,25,25S258.785,190,245,190z"></path></a></g></svg></svg></svg>