<svg version="1.1" xmlns="http://www.w3.org/2000/svg" xmlns:xlink="http://www.w3.org/1999/xlink" fill="transparent" x="0" y="0" width="350" height="350" preserveAspectRatio="xMinYMin slice"><style type="text/css">.links{fill:transparent;stroke: #E4CF37;}.links:hover{fill:#63D272; opacity:0.4;}</style><defs><g id="allt"><path id="t2178" d="M3267,512 L3257,512 C3248,512 3262,520 3250,521 C3239,522 3255,510 3244,511 L3234,512 3234,512 L3234,521 C3234,530 3228,518 3228,527 C3228,536 3234,526 3234,535 L3234,544 3234,544 L3243,544 C3252,544 3240,538 3249,538 C3259,538 3248,544 3257,544 L3267,544 3267,544 L3267,533 C3267,523 3276,539 3274,528 C3273,517 3267,531 3267,521 L3267,512"/></g><clipPath id="c" clipRule="evenodd" fill="transparent"><use href="#t2178"/></clipPath></defs><svg viewBox="3227 509 50 36" preserveAspectRatio="xMinYMin meet"><svg width="4380" height="2430"><g><image crossorigin="anonymous" x="0" y="0" href="https://nftpuzzle.license-token.com/assets/completepuzzle.svg" width="100%" height="100%" /><g class="links"><use href="#t2178"/></g></g></svg><svg x="3262" y="530" height="9%" width="9%" viewBox="0 0 330 330"><g><a xlink:href="https://nftpuzzle.license-token.com/" class="links"><title>See the most innovative NFT based token software licensing project</title><path fill="#E4CF37" id="more" d="M165,0C74.019,0,0,74.019,0,165s74.019,165,165,165s165-74.019,165-165S255.981,0,165,0z M85,190 c-13.785,0-25-11.215-25-25s11.215-25,25-25s25,11.215,25,25S98.785,190,85,190z M165,190c-13.785,0-25-11.215-25-25 s11.215-25,25-25s25,11.215,25,25S178.785,190,165,190z M245,190c-13.785,0-25-11.215-25-25s11.215-25,25-25 c13.785,0,25,11.215,25,25S258.785,190,245,190z"></path></a></g></svg></svg></svg>