<svg version="1.1" xmlns="http://www.w3.org/2000/svg" xmlns:xlink="http://www.w3.org/1999/xlink" fill="transparent" x="0" y="0" width="350" height="350" preserveAspectRatio="xMinYMin slice"><style type="text/css">.links{fill:transparent;stroke: #E4CF37;}.links:hover{fill:#63D272; opacity:0.4;}</style><defs><g id="allt"><path id="t2426" d="M2871,576 L2861,577 C2851,578 2861,567 2853,569 C2846,571 2859,580 2848,578 L2838,576 2838,576 L2838,585 C2838,595 2832,584 2831,592 C2831,601 2838,589 2838,598 L2838,608 2838,608 L2848,608 C2858,608 2846,602 2855,601 C2864,601 2852,608 2861,608 L2871,608 2871,608 L2872,597 C2874,586 2867,599 2865,590 C2864,581 2874,596 2872,586 L2871,576"/></g><clipPath id="c" clipRule="evenodd" fill="transparent"><use href="#t2426"/></clipPath></defs><svg viewBox="2830 566 45 43" preserveAspectRatio="xMinYMin meet"><svg width="4380" height="2430"><g><image crossorigin="anonymous" x="0" y="0" href="https://nftpuzzle.license-token.com/assets/completepuzzle.svg" width="100%" height="100%" /><g class="links"><use href="#t2426"/></g></g></svg><svg x="2860" y="594" height="9%" width="9%" viewBox="0 0 330 330"><g><a xlink:href="https://nftpuzzle.license-token.com/" class="links"><title>See the most innovative NFT based token software licensing project</title><path fill="#E4CF37" id="more" d="M165,0C74.019,0,0,74.019,0,165s74.019,165,165,165s165-74.019,165-165S255.981,0,165,0z M85,190 c-13.785,0-25-11.215-25-25s11.215-25,25-25s25,11.215,25,25S98.785,190,85,190z M165,190c-13.785,0-25-11.215-25-25 s11.215-25,25-25s25,11.215,25,25S178.785,190,165,190z M245,190c-13.785,0-25-11.215-25-25s11.215-25,25-25 c13.785,0,25,11.215,25,25S258.785,190,245,190z"></path></a></g></svg></svg></svg>