<svg version="1.1" xmlns="http://www.w3.org/2000/svg" xmlns:xlink="http://www.w3.org/1999/xlink" fill="transparent" x="0" y="0" width="350" height="350" preserveAspectRatio="xMinYMin slice"><style type="text/css">.links{fill:transparent;stroke: #E4CF37;}.links:hover{fill:#63D272; opacity:0.4;}</style><defs><g id="allt"><path id="t2536" d="M2211,608 L2200,608 C2189,608 2205,606 2196,606 C2187,606 2199,608 2188,608 L2178,608 2178,608 L2178,617 C2178,626 2189,616 2188,625 C2188,634 2175,621 2176,630 L2178,640 2178,640 L2187,640 C2196,640 2186,651 2195,650 C2205,650 2192,637 2201,638 L2211,640 2211,640 L2211,630 C2211,621 2222,634 2220,624 C2219,615 2211,625 2211,616 L2211,608"/></g><clipPath id="c" clipRule="evenodd" fill="transparent"><use href="#t2536"/></clipPath></defs><svg viewBox="2174 605 49 47" preserveAspectRatio="xMinYMin meet"><svg width="4380" height="2430"><g><image crossorigin="anonymous" x="0" y="0" href="https://nftpuzzle.license-token.com/assets/completepuzzle.svg" width="100%" height="100%" /><g class="links"><use href="#t2536"/></g></g></svg><svg x="2208" y="637" height="9%" width="9%" viewBox="0 0 330 330"><g><a xlink:href="https://nftpuzzle.license-token.com/" class="links"><title>See the most innovative NFT based token software licensing project</title><path fill="#E4CF37" id="more" d="M165,0C74.019,0,0,74.019,0,165s74.019,165,165,165s165-74.019,165-165S255.981,0,165,0z M85,190 c-13.785,0-25-11.215-25-25s11.215-25,25-25s25,11.215,25,25S98.785,190,85,190z M165,190c-13.785,0-25-11.215-25-25 s11.215-25,25-25s25,11.215,25,25S178.785,190,165,190z M245,190c-13.785,0-25-11.215-25-25s11.215-25,25-25 c13.785,0,25,11.215,25,25S258.785,190,245,190z"></path></a></g></svg></svg></svg>