<svg version="1.1" xmlns="http://www.w3.org/2000/svg" xmlns:xlink="http://www.w3.org/1999/xlink" fill="transparent" x="0" y="0" width="350" height="350" preserveAspectRatio="xMinYMin slice"><style type="text/css">.links{fill:transparent;stroke: #E4CF37;}.links:hover{fill:#63D272; opacity:0.4;}</style><defs><g id="allt"><path id="t2542" d="M2409,608 L2398,608 C2387,608 2399,604 2391,604 C2383,604 2396,608 2386,608 L2376,608 2376,608 L2376,616 C2377,625 2369,616 2369,623 C2370,630 2376,618 2376,629 L2376,640 2376,640 L2385,640 C2394,641 2385,633 2392,633 C2399,634 2386,640 2397,640 L2409,640 2409,640 L2409,629 C2409,619 2403,633 2403,624 C2403,615 2411,625 2410,616 L2409,608"/></g><clipPath id="c" clipRule="evenodd" fill="transparent"><use href="#t2542"/></clipPath></defs><svg viewBox="2368 603 44 39" preserveAspectRatio="xMinYMin meet"><svg width="4380" height="2430"><g><image crossorigin="anonymous" x="0" y="0" href="https://nftpuzzle.license-token.com/assets/completepuzzle.svg" width="100%" height="100%" /><g class="links"><use href="#t2542"/></g></g></svg><svg x="2397" y="627" height="9%" width="9%" viewBox="0 0 330 330"><g><a xlink:href="https://nftpuzzle.license-token.com/" class="links"><title>See the most innovative NFT based token software licensing project</title><path fill="#E4CF37" id="more" d="M165,0C74.019,0,0,74.019,0,165s74.019,165,165,165s165-74.019,165-165S255.981,0,165,0z M85,190 c-13.785,0-25-11.215-25-25s11.215-25,25-25s25,11.215,25,25S98.785,190,85,190z M165,190c-13.785,0-25-11.215-25-25 s11.215-25,25-25s25,11.215,25,25S178.785,190,165,190z M245,190c-13.785,0-25-11.215-25-25s11.215-25,25-25 c13.785,0,25,11.215,25,25S258.785,190,245,190z"></path></a></g></svg></svg></svg>