<svg version="1.1" xmlns="http://www.w3.org/2000/svg" xmlns:xlink="http://www.w3.org/1999/xlink" fill="transparent" x="0" y="0" width="350" height="350" preserveAspectRatio="xMinYMin slice"><style type="text/css">.links{fill:transparent;stroke: #E4CF37;}.links:hover{fill:#63D272; opacity:0.4;}</style><defs><g id="allt"><path id="t2552" d="M2739,608 L2729,608 C2719,608 2729,604 2722,603 C2715,602 2725,608 2715,608 L2706,608 2706,608 L2706,618 C2706,629 2712,616 2714,623 C2717,631 2706,622 2706,631 L2706,640 2706,640 L2717,640 C2728,640 2714,646 2722,648 C2730,650 2720,640 2729,640 L2739,640 2739,640 L2739,630 C2739,620 2744,631 2744,624 C2744,617 2739,626 2739,617 L2739,608"/></g><clipPath id="c" clipRule="evenodd" fill="transparent"><use href="#t2552"/></clipPath></defs><svg viewBox="2705 601 40 50" preserveAspectRatio="xMinYMin meet"><svg width="4380" height="2430"><g><image crossorigin="anonymous" x="0" y="0" href="https://nftpuzzle.license-token.com/assets/completepuzzle.svg" width="100%" height="100%" /><g class="links"><use href="#t2552"/></g></g></svg><svg x="2730" y="636" height="9%" width="9%" viewBox="0 0 330 330"><g><a xlink:href="https://nftpuzzle.license-token.com/" class="links"><title>See the most innovative NFT based token software licensing project</title><path fill="#E4CF37" id="more" d="M165,0C74.019,0,0,74.019,0,165s74.019,165,165,165s165-74.019,165-165S255.981,0,165,0z M85,190 c-13.785,0-25-11.215-25-25s11.215-25,25-25s25,11.215,25,25S98.785,190,85,190z M165,190c-13.785,0-25-11.215-25-25 s11.215-25,25-25s25,11.215,25,25S178.785,190,165,190z M245,190c-13.785,0-25-11.215-25-25s11.215-25,25-25 c13.785,0,25,11.215,25,25S258.785,190,245,190z"></path></a></g></svg></svg></svg>