<svg version="1.1" xmlns="http://www.w3.org/2000/svg" xmlns:xlink="http://www.w3.org/1999/xlink" fill="transparent" x="0" y="0" width="350" height="350" preserveAspectRatio="xMinYMin slice"><style type="text/css">.links{fill:transparent;stroke: #E4CF37;}.links:hover{fill:#63D272; opacity:0.4;}</style><defs><g id="allt"><path id="t2654" d="M1815,640 L1805,640 C1796,640 1809,628 1799,629 C1789,630 1802,640 1792,640 L1782,640 1782,640 L1783,650 C1784,661 1778,645 1778,653 C1779,662 1782,651 1782,661 L1782,672 1782,672 L1793,673 C1804,674 1787,668 1796,668 C1805,669 1793,672 1804,672 L1815,672 1815,672 L1814,662 C1814,653 1818,664 1818,655 C1819,647 1814,658 1814,649 L1815,640"/></g><clipPath id="c" clipRule="evenodd" fill="transparent"><use href="#t2654"/></clipPath></defs><svg viewBox="1777 627 43 48" preserveAspectRatio="xMinYMin meet"><svg width="4380" height="2430"><g><image crossorigin="anonymous" x="0" y="0" href="https://nftpuzzle.license-token.com/assets/completepuzzle.svg" width="100%" height="100%" /><g class="links"><use href="#t2654"/></g></g></svg><svg x="1805" y="660" height="9%" width="9%" viewBox="0 0 330 330"><g><a xlink:href="https://nftpuzzle.license-token.com/" class="links"><title>See the most innovative NFT based token software licensing project</title><path fill="#E4CF37" id="more" d="M165,0C74.019,0,0,74.019,0,165s74.019,165,165,165s165-74.019,165-165S255.981,0,165,0z M85,190 c-13.785,0-25-11.215-25-25s11.215-25,25-25s25,11.215,25,25S98.785,190,85,190z M165,190c-13.785,0-25-11.215-25-25 s11.215-25,25-25s25,11.215,25,25S178.785,190,165,190z M245,190c-13.785,0-25-11.215-25-25s11.215-25,25-25 c13.785,0,25,11.215,25,25S258.785,190,245,190z"></path></a></g></svg></svg></svg>