<svg version="1.1" xmlns="http://www.w3.org/2000/svg" xmlns:xlink="http://www.w3.org/1999/xlink" fill="transparent" x="0" y="0" width="350" height="350" preserveAspectRatio="xMinYMin slice"><style type="text/css">.links{fill:transparent;stroke: #E4CF37;}.links:hover{fill:#63D272; opacity:0.4;}</style><defs><g id="allt"><path id="t2694" d="M3135,640 L3124,640 C3114,640 3128,645 3118,644 C3109,643 3120,640 3111,640 L3102,640 3102,640 L3104,649 C3107,659 3097,647 3097,655 C3097,664 3102,653 3102,662 L3102,672 3102,672 L3112,674 C3122,677 3109,667 3118,667 C3127,667 3115,672 3125,672 L3135,672 3135,672 L3135,661 C3135,651 3132,666 3131,655 C3130,644 3136,661 3135,650 L3135,640"/></g><clipPath id="c" clipRule="evenodd" fill="transparent"><use href="#t2694"/></clipPath></defs><svg viewBox="3096 639 41 39" preserveAspectRatio="xMinYMin meet"><svg width="4380" height="2430"><g><image crossorigin="anonymous" x="0" y="0" href="https://nftpuzzle.license-token.com/assets/completepuzzle.svg" width="100%" height="100%" /><g class="links"><use href="#t2694"/></g></g></svg><svg x="3122" y="663" height="9%" width="9%" viewBox="0 0 330 330"><g><a xlink:href="https://nftpuzzle.license-token.com/" class="links"><title>See the most innovative NFT based token software licensing project</title><path fill="#E4CF37" id="more" d="M165,0C74.019,0,0,74.019,0,165s74.019,165,165,165s165-74.019,165-165S255.981,0,165,0z M85,190 c-13.785,0-25-11.215-25-25s11.215-25,25-25s25,11.215,25,25S98.785,190,85,190z M165,190c-13.785,0-25-11.215-25-25 s11.215-25,25-25s25,11.215,25,25S178.785,190,165,190z M245,190c-13.785,0-25-11.215-25-25s11.215-25,25-25 c13.785,0,25,11.215,25,25S258.785,190,245,190z"></path></a></g></svg></svg></svg>