<svg version="1.1" xmlns="http://www.w3.org/2000/svg" xmlns:xlink="http://www.w3.org/1999/xlink" fill="transparent" x="0" y="0" width="350" height="350" preserveAspectRatio="xMinYMin slice"><style type="text/css">.links{fill:transparent;stroke: #E4CF37;}.links:hover{fill:#63D272; opacity:0.4;}</style><defs><g id="allt"><path id="t2696" d="M3201,640 L3190,640 C3179,641 3195,634 3184,634 C3173,635 3189,643 3178,641 L3168,640 3168,640 L3168,650 C3168,661 3176,648 3174,656 C3173,665 3167,650 3167,661 L3168,672 3168,672 L3178,672 C3189,672 3177,680 3185,678 C3194,677 3179,671 3190,671 L3201,672 3201,672 L3201,661 C3201,651 3194,662 3192,655 C3190,648 3201,657 3201,648 L3201,640"/></g><clipPath id="c" clipRule="evenodd" fill="transparent"><use href="#t2696"/></clipPath></defs><svg viewBox="3166 633 36 48" preserveAspectRatio="xMinYMin meet"><svg width="4380" height="2430"><g><image crossorigin="anonymous" x="0" y="0" href="https://nftpuzzle.license-token.com/assets/completepuzzle.svg" width="100%" height="100%" /><g class="links"><use href="#t2696"/></g></g></svg><svg x="3187" y="666" height="9%" width="9%" viewBox="0 0 330 330"><g><a xlink:href="https://nftpuzzle.license-token.com/" class="links"><title>See the most innovative NFT based token software licensing project</title><path fill="#E4CF37" id="more" d="M165,0C74.019,0,0,74.019,0,165s74.019,165,165,165s165-74.019,165-165S255.981,0,165,0z M85,190 c-13.785,0-25-11.215-25-25s11.215-25,25-25s25,11.215,25,25S98.785,190,85,190z M165,190c-13.785,0-25-11.215-25-25 s11.215-25,25-25s25,11.215,25,25S178.785,190,165,190z M245,190c-13.785,0-25-11.215-25-25s11.215-25,25-25 c13.785,0,25,11.215,25,25S258.785,190,245,190z"></path></a></g></svg></svg></svg>