<svg version="1.1" xmlns="http://www.w3.org/2000/svg" xmlns:xlink="http://www.w3.org/1999/xlink" fill="transparent" x="0" y="0" width="350" height="350" preserveAspectRatio="xMinYMin slice"><style type="text/css">.links{fill:transparent;stroke: #E4CF37;}.links:hover{fill:#63D272; opacity:0.4;}</style><defs><g id="allt"><path id="t2840" d="M3663,672 L3653,672 C3644,673 3655,667 3645,667 C3636,667 3651,672 3640,672 L3630,672 3630,672 L3631,681 C3632,691 3627,676 3626,687 C3625,698 3630,683 3630,693 L3630,704 3630,704 L3639,705 C3649,706 3634,701 3645,700 C3657,699 3641,704 3652,704 L3663,704 3663,704 L3663,693 C3663,683 3659,697 3659,688 C3659,680 3663,692 3663,682 L3663,672"/></g><clipPath id="c" clipRule="evenodd" fill="transparent"><use href="#t2840"/></clipPath></defs><svg viewBox="3624 666 40 41" preserveAspectRatio="xMinYMin meet"><svg width="4380" height="2430"><g><image crossorigin="anonymous" x="0" y="0" href="https://nftpuzzle.license-token.com/assets/completepuzzle.svg" width="100%" height="100%" /><g class="links"><use href="#t2840"/></g></g></svg><svg x="3649" y="692" height="9%" width="9%" viewBox="0 0 330 330"><g><a xlink:href="https://nftpuzzle.license-token.com/" class="links"><title>See the most innovative NFT based token software licensing project</title><path fill="#E4CF37" id="more" d="M165,0C74.019,0,0,74.019,0,165s74.019,165,165,165s165-74.019,165-165S255.981,0,165,0z M85,190 c-13.785,0-25-11.215-25-25s11.215-25,25-25s25,11.215,25,25S98.785,190,85,190z M165,190c-13.785,0-25-11.215-25-25 s11.215-25,25-25s25,11.215,25,25S178.785,190,165,190z M245,190c-13.785,0-25-11.215-25-25s11.215-25,25-25 c13.785,0,25,11.215,25,25S258.785,190,245,190z"></path></a></g></svg></svg></svg>