<svg version="1.1" xmlns="http://www.w3.org/2000/svg" xmlns:xlink="http://www.w3.org/1999/xlink" fill="transparent" x="0" y="0" width="350" height="350" preserveAspectRatio="xMinYMin slice"><style type="text/css">.links{fill:transparent;stroke: #E4CF37;}.links:hover{fill:#63D272; opacity:0.4;}</style><defs><g id="allt"><path id="t2914" d="M1815,704 L1805,705 C1796,707 1809,697 1799,695 C1790,693 1801,704 1791,704 L1782,704 1782,704 L1783,713 C1785,722 1777,712 1776,720 C1776,729 1782,714 1782,725 L1782,736 1782,736 L1791,737 C1800,739 1790,731 1799,730 C1808,730 1793,736 1804,736 L1815,736 1815,736 L1815,726 C1815,717 1823,726 1824,717 C1825,708 1811,722 1813,713 L1815,704"/></g><clipPath id="c" clipRule="evenodd" fill="transparent"><use href="#t2914"/></clipPath></defs><svg viewBox="1775 692 51 48" preserveAspectRatio="xMinYMin meet"><svg width="4380" height="2430"><g><image crossorigin="anonymous" x="0" y="0" href="https://nftpuzzle.license-token.com/assets/completepuzzle.svg" width="100%" height="100%" /><g class="links"><use href="#t2914"/></g></g></svg><svg x="1811" y="725" height="9%" width="9%" viewBox="0 0 330 330"><g><a xlink:href="https://nftpuzzle.license-token.com/" class="links"><title>See the most innovative NFT based token software licensing project</title><path fill="#E4CF37" id="more" d="M165,0C74.019,0,0,74.019,0,165s74.019,165,165,165s165-74.019,165-165S255.981,0,165,0z M85,190 c-13.785,0-25-11.215-25-25s11.215-25,25-25s25,11.215,25,25S98.785,190,85,190z M165,190c-13.785,0-25-11.215-25-25 s11.215-25,25-25s25,11.215,25,25S178.785,190,165,190z M245,190c-13.785,0-25-11.215-25-25s11.215-25,25-25 c13.785,0,25,11.215,25,25S258.785,190,245,190z"></path></a></g></svg></svg></svg>