<svg version="1.1" xmlns="http://www.w3.org/2000/svg" xmlns:xlink="http://www.w3.org/1999/xlink" fill="transparent" x="0" y="0" width="350" height="350" preserveAspectRatio="xMinYMin slice"><style type="text/css">.links{fill:transparent;stroke: #E4CF37;}.links:hover{fill:#63D272; opacity:0.4;}</style><defs><g id="allt"><path id="t2946" d="M2871,704 L2860,704 C2849,704 2861,698 2853,698 C2845,699 2856,704 2847,704 L2838,704 2838,704 L2838,713 C2839,723 2834,711 2835,719 C2836,728 2838,716 2838,726 L2838,736 2838,736 L2848,736 C2858,737 2845,732 2853,733 C2862,734 2850,736 2860,736 L2871,736 2871,736 L2871,725 C2871,715 2877,726 2876,719 C2875,712 2871,722 2871,713 L2871,704"/></g><clipPath id="c" clipRule="evenodd" fill="transparent"><use href="#t2946"/></clipPath></defs><svg viewBox="2833 697 45 41" preserveAspectRatio="xMinYMin meet"><svg width="4380" height="2430"><g><image crossorigin="anonymous" x="0" y="0" href="https://nftpuzzle.license-token.com/assets/completepuzzle.svg" width="100%" height="100%" /><g class="links"><use href="#t2946"/></g></g></svg><svg x="2863" y="723" height="9%" width="9%" viewBox="0 0 330 330"><g><a xlink:href="https://nftpuzzle.license-token.com/" class="links"><title>See the most innovative NFT based token software licensing project</title><path fill="#E4CF37" id="more" d="M165,0C74.019,0,0,74.019,0,165s74.019,165,165,165s165-74.019,165-165S255.981,0,165,0z M85,190 c-13.785,0-25-11.215-25-25s11.215-25,25-25s25,11.215,25,25S98.785,190,85,190z M165,190c-13.785,0-25-11.215-25-25 s11.215-25,25-25s25,11.215,25,25S178.785,190,165,190z M245,190c-13.785,0-25-11.215-25-25s11.215-25,25-25 c13.785,0,25,11.215,25,25S258.785,190,245,190z"></path></a></g></svg></svg></svg>