<svg version="1.1" xmlns="http://www.w3.org/2000/svg" xmlns:xlink="http://www.w3.org/1999/xlink" fill="transparent" x="0" y="0" width="350" height="350" preserveAspectRatio="xMinYMin slice"><style type="text/css">.links{fill:transparent;stroke: #E4CF37;}.links:hover{fill:#63D272; opacity:0.4;}</style><defs><g id="allt"><path id="t3098" d="M3597,736 L3586,735 C3576,734 3588,739 3578,740 C3569,741 3583,736 3573,736 L3564,736 3564,736 L3564,745 C3564,754 3562,745 3560,753 C3559,762 3564,747 3564,757 L3564,768 3564,768 L3573,768 C3582,768 3573,766 3582,764 C3591,763 3575,768 3586,768 L3597,768 3597,768 L3598,758 C3599,748 3591,761 3592,750 C3593,740 3597,756 3597,746 L3597,736"/></g><clipPath id="c" clipRule="evenodd" fill="transparent"><use href="#t3098"/></clipPath></defs><svg viewBox="3558 733 42 36" preserveAspectRatio="xMinYMin meet"><svg width="4380" height="2430"><g><image crossorigin="anonymous" x="0" y="0" href="https://nftpuzzle.license-token.com/assets/completepuzzle.svg" width="100%" height="100%" /><g class="links"><use href="#t3098"/></g></g></svg><svg x="3585" y="754" height="9%" width="9%" viewBox="0 0 330 330"><g><a xlink:href="https://nftpuzzle.license-token.com/" class="links"><title>See the most innovative NFT based token software licensing project</title><path fill="#E4CF37" id="more" d="M165,0C74.019,0,0,74.019,0,165s74.019,165,165,165s165-74.019,165-165S255.981,0,165,0z M85,190 c-13.785,0-25-11.215-25-25s11.215-25,25-25s25,11.215,25,25S98.785,190,85,190z M165,190c-13.785,0-25-11.215-25-25 s11.215-25,25-25s25,11.215,25,25S178.785,190,165,190z M245,190c-13.785,0-25-11.215-25-25s11.215-25,25-25 c13.785,0,25,11.215,25,25S258.785,190,245,190z"></path></a></g></svg></svg></svg>