<svg version="1.1" xmlns="http://www.w3.org/2000/svg" xmlns:xlink="http://www.w3.org/1999/xlink" fill="transparent" x="0" y="0" width="350" height="350" preserveAspectRatio="xMinYMin slice"><style type="text/css">.links{fill:transparent;stroke: #E4CF37;}.links:hover{fill:#63D272; opacity:0.4;}</style><defs><g id="allt"><path id="t3220" d="M3333,768 L3323,768 C3313,768 3324,774 3316,773 C3308,773 3319,768 3309,768 L3300,768 3300,768 L3298,776 C3297,785 3306,776 3306,784 C3306,792 3300,779 3300,789 L3300,800 3300,800 L3309,798 C3318,797 3308,806 3316,806 C3325,806 3312,800 3322,800 L3333,800 3333,800 L3333,789 C3333,779 3326,795 3327,784 C3329,773 3335,786 3334,777 L3333,768"/></g><clipPath id="c" clipRule="evenodd" fill="transparent"><use href="#t3220"/></clipPath></defs><svg viewBox="3296 767 40 40" preserveAspectRatio="xMinYMin meet"><svg width="4380" height="2430"><g><image crossorigin="anonymous" x="0" y="0" href="https://nftpuzzle.license-token.com/assets/completepuzzle.svg" width="100%" height="100%" /><g class="links"><use href="#t3220"/></g></g></svg><svg x="3321" y="792" height="9%" width="9%" viewBox="0 0 330 330"><g><a xlink:href="https://nftpuzzle.license-token.com/" class="links"><title>See the most innovative NFT based token software licensing project</title><path fill="#E4CF37" id="more" d="M165,0C74.019,0,0,74.019,0,165s74.019,165,165,165s165-74.019,165-165S255.981,0,165,0z M85,190 c-13.785,0-25-11.215-25-25s11.215-25,25-25s25,11.215,25,25S98.785,190,85,190z M165,190c-13.785,0-25-11.215-25-25 s11.215-25,25-25s25,11.215,25,25S178.785,190,165,190z M245,190c-13.785,0-25-11.215-25-25s11.215-25,25-25 c13.785,0,25,11.215,25,25S258.785,190,245,190z"></path></a></g></svg></svg></svg>