<svg version="1.1" xmlns="http://www.w3.org/2000/svg" xmlns:xlink="http://www.w3.org/1999/xlink" fill="transparent" x="0" y="0" width="350" height="350" preserveAspectRatio="xMinYMin slice"><style type="text/css">.links{fill:transparent;stroke: #E4CF37;}.links:hover{fill:#63D272; opacity:0.4;}</style><defs><g id="allt"><path id="t3338" d="M2937,800 L2927,799 C2918,799 2929,806 2920,807 C2912,809 2924,800 2914,800 L2904,800 2904,800 L2904,809 C2904,819 2910,808 2910,816 C2910,825 2903,811 2903,821 L2904,832 2904,832 L2914,832 C2924,832 2912,838 2921,838 C2930,838 2915,831 2926,831 L2937,832 2937,832 L2937,822 C2938,813 2932,827 2932,817 C2932,808 2939,821 2938,810 L2937,800"/></g><clipPath id="c" clipRule="evenodd" fill="transparent"><use href="#t3338"/></clipPath></defs><svg viewBox="2902 798 38 41" preserveAspectRatio="xMinYMin meet"><svg width="4380" height="2430"><g><image crossorigin="anonymous" x="0" y="0" href="https://nftpuzzle.license-token.com/assets/completepuzzle.svg" width="100%" height="100%" /><g class="links"><use href="#t3338"/></g></g></svg><svg x="2925" y="824" height="9%" width="9%" viewBox="0 0 330 330"><g><a xlink:href="https://nftpuzzle.license-token.com/" class="links"><title>See the most innovative NFT based token software licensing project</title><path fill="#E4CF37" id="more" d="M165,0C74.019,0,0,74.019,0,165s74.019,165,165,165s165-74.019,165-165S255.981,0,165,0z M85,190 c-13.785,0-25-11.215-25-25s11.215-25,25-25s25,11.215,25,25S98.785,190,85,190z M165,190c-13.785,0-25-11.215-25-25 s11.215-25,25-25s25,11.215,25,25S178.785,190,165,190z M245,190c-13.785,0-25-11.215-25-25s11.215-25,25-25 c13.785,0,25,11.215,25,25S258.785,190,245,190z"></path></a></g></svg></svg></svg>