<svg version="1.1" xmlns="http://www.w3.org/2000/svg" xmlns:xlink="http://www.w3.org/1999/xlink" fill="transparent" x="0" y="0" width="350" height="350" preserveAspectRatio="xMinYMin slice"><style type="text/css">.links{fill:transparent;stroke: #E4CF37;}.links:hover{fill:#63D272; opacity:0.4;}</style><defs><g id="allt"><path id="t3410" d="M1023,832 L1013,832 C1004,832 1017,830 1007,829 C998,828 1012,834 1001,833 L990,832 990,832 L992,841 C995,850 979,841 978,848 C978,856 994,846 992,855 L990,864 990,864 L999,866 C1008,869 999,853 1006,852 C1014,852 1004,868 1013,866 L1023,864 1023,864 L1023,854 C1023,845 1019,855 1019,848 C1020,841 1024,849 1023,840 L1023,832"/></g><clipPath id="c" clipRule="evenodd" fill="transparent"><use href="#t3410"/></clipPath></defs><svg viewBox="977 827 48 43" preserveAspectRatio="xMinYMin meet"><svg width="4380" height="2430"><g><image crossorigin="anonymous" x="0" y="0" href="https://nftpuzzle.license-token.com/assets/completepuzzle.svg" width="100%" height="100%" /><g class="links"><use href="#t3410"/></g></g></svg><svg x="1010" y="855" height="9%" width="9%" viewBox="0 0 330 330"><g><a xlink:href="https://nftpuzzle.license-token.com/" class="links"><title>See the most innovative NFT based token software licensing project</title><path fill="#E4CF37" id="more" d="M165,0C74.019,0,0,74.019,0,165s74.019,165,165,165s165-74.019,165-165S255.981,0,165,0z M85,190 c-13.785,0-25-11.215-25-25s11.215-25,25-25s25,11.215,25,25S98.785,190,85,190z M165,190c-13.785,0-25-11.215-25-25 s11.215-25,25-25s25,11.215,25,25S178.785,190,165,190z M245,190c-13.785,0-25-11.215-25-25s11.215-25,25-25 c13.785,0,25,11.215,25,25S258.785,190,245,190z"></path></a></g></svg></svg></svg>