<svg version="1.1" xmlns="http://www.w3.org/2000/svg" xmlns:xlink="http://www.w3.org/1999/xlink" fill="transparent" x="0" y="0" width="350" height="350" preserveAspectRatio="xMinYMin slice"><style type="text/css">.links{fill:transparent;stroke: #E4CF37;}.links:hover{fill:#63D272; opacity:0.4;}</style><defs><g id="allt"><path id="t3474" d="M3135,832 L3125,832 C3115,832 3125,841 3118,841 C3111,841 3121,829 3111,830 L3102,832 3102,832 L3103,841 C3105,850 3096,840 3097,849 C3098,858 3105,843 3103,853 L3102,864 3102,864 L3111,865 C3121,867 3110,858 3119,859 C3129,860 3113,867 3124,865 L3135,864 3135,864 L3135,854 C3136,845 3130,857 3129,847 C3128,837 3138,850 3136,841 L3135,832"/></g><clipPath id="c" clipRule="evenodd" fill="transparent"><use href="#t3474"/></clipPath></defs><svg viewBox="3095 828 44 40" preserveAspectRatio="xMinYMin meet"><svg width="4380" height="2430"><g><image crossorigin="anonymous" x="0" y="0" href="https://nftpuzzle.license-token.com/assets/completepuzzle.svg" width="100%" height="100%" /><g class="links"><use href="#t3474"/></g></g></svg><svg x="3124" y="853" height="9%" width="9%" viewBox="0 0 330 330"><g><a xlink:href="https://nftpuzzle.license-token.com/" class="links"><title>See the most innovative NFT based token software licensing project</title><path fill="#E4CF37" id="more" d="M165,0C74.019,0,0,74.019,0,165s74.019,165,165,165s165-74.019,165-165S255.981,0,165,0z M85,190 c-13.785,0-25-11.215-25-25s11.215-25,25-25s25,11.215,25,25S98.785,190,85,190z M165,190c-13.785,0-25-11.215-25-25 s11.215-25,25-25s25,11.215,25,25S178.785,190,165,190z M245,190c-13.785,0-25-11.215-25-25s11.215-25,25-25 c13.785,0,25,11.215,25,25S258.785,190,245,190z"></path></a></g></svg></svg></svg>