<svg version="1.1" xmlns="http://www.w3.org/2000/svg" xmlns:xlink="http://www.w3.org/1999/xlink" fill="transparent" x="0" y="0" width="350" height="350" preserveAspectRatio="xMinYMin slice"><style type="text/css">.links{fill:transparent;stroke: #E4CF37;}.links:hover{fill:#63D272; opacity:0.4;}</style><defs><g id="allt"><path id="t3722" d="M2739,896 L2729,896 C2720,896 2732,885 2721,885 C2711,885 2724,901 2715,898 L2706,896 2706,896 L2706,905 C2706,914 2700,902 2700,910 C2700,918 2706,908 2706,918 L2706,928 2706,928 L2715,928 C2725,928 2712,922 2720,922 C2729,922 2718,928 2728,928 L2739,928 2739,928 L2740,919 C2741,910 2731,920 2730,910 C2730,901 2742,913 2740,904 L2739,896"/></g><clipPath id="c" clipRule="evenodd" fill="transparent"><use href="#t3722"/></clipPath></defs><svg viewBox="2699 884 44 45" preserveAspectRatio="xMinYMin meet"><svg width="4380" height="2430"><g><image crossorigin="anonymous" x="0" y="0" href="https://nftpuzzle.license-token.com/assets/completepuzzle.svg" width="100%" height="100%" /><g class="links"><use href="#t3722"/></g></g></svg><svg x="2728" y="914" height="9%" width="9%" viewBox="0 0 330 330"><g><a xlink:href="https://nftpuzzle.license-token.com/" class="links"><title>See the most innovative NFT based token software licensing project</title><path fill="#E4CF37" id="more" d="M165,0C74.019,0,0,74.019,0,165s74.019,165,165,165s165-74.019,165-165S255.981,0,165,0z M85,190 c-13.785,0-25-11.215-25-25s11.215-25,25-25s25,11.215,25,25S98.785,190,85,190z M165,190c-13.785,0-25-11.215-25-25 s11.215-25,25-25s25,11.215,25,25S178.785,190,165,190z M245,190c-13.785,0-25-11.215-25-25s11.215-25,25-25 c13.785,0,25,11.215,25,25S258.785,190,245,190z"></path></a></g></svg></svg></svg>