<svg version="1.1" xmlns="http://www.w3.org/2000/svg" xmlns:xlink="http://www.w3.org/1999/xlink" fill="transparent" x="0" y="0" width="350" height="350" preserveAspectRatio="xMinYMin slice"><style type="text/css">.links{fill:transparent;stroke: #E4CF37;}.links:hover{fill:#63D272; opacity:0.4;}</style><defs><g id="allt"><path id="t3988" d="M2937,960 L2926,961 C2916,962 2929,948 2919,950 C2909,953 2925,964 2914,962 L2904,960 2904,960 L2904,969 C2904,979 2914,969 2913,976 C2913,984 2901,973 2902,982 L2904,992 2904,992 L2914,992 C2924,992 2913,1002 2921,1001 C2929,1001 2917,989 2927,990 L2937,992 2937,992 L2937,981 C2937,971 2933,987 2933,977 C2933,968 2937,978 2937,969 L2937,960"/></g><clipPath id="c" clipRule="evenodd" fill="transparent"><use href="#t3988"/></clipPath></defs><svg viewBox="2900 947 38 56" preserveAspectRatio="xMinYMin meet"><svg width="4380" height="2430"><g><image crossorigin="anonymous" x="0" y="0" href="https://nftpuzzle.license-token.com/assets/completepuzzle.svg" width="100%" height="100%" /><g class="links"><use href="#t3988"/></g></g></svg><svg x="2923" y="988" height="9%" width="9%" viewBox="0 0 330 330"><g><a xlink:href="https://nftpuzzle.license-token.com/" class="links"><title>See the most innovative NFT based token software licensing project</title><path fill="#E4CF37" id="more" d="M165,0C74.019,0,0,74.019,0,165s74.019,165,165,165s165-74.019,165-165S255.981,0,165,0z M85,190 c-13.785,0-25-11.215-25-25s11.215-25,25-25s25,11.215,25,25S98.785,190,85,190z M165,190c-13.785,0-25-11.215-25-25 s11.215-25,25-25s25,11.215,25,25S178.785,190,165,190z M245,190c-13.785,0-25-11.215-25-25s11.215-25,25-25 c13.785,0,25,11.215,25,25S258.785,190,245,190z"></path></a></g></svg></svg></svg>