<svg version="1.1" xmlns="http://www.w3.org/2000/svg" xmlns:xlink="http://www.w3.org/1999/xlink" fill="transparent" x="0" y="0" width="350" height="350" preserveAspectRatio="xMinYMin slice"><style type="text/css">.links{fill:transparent;stroke: #E4CF37;}.links:hover{fill:#63D272; opacity:0.4;}</style><defs><g id="allt"><path id="t3996" d="M3201,960 L3189,959 C3178,959 3195,964 3185,964 C3176,964 3188,960 3178,960 L3168,960 3168,960 L3168,969 C3168,979 3162,966 3163,974 C3164,982 3169,972 3168,982 L3168,992 3168,992 L3178,992 C3188,992 3174,986 3182,987 C3191,988 3180,993 3190,992 L3201,992 3201,992 L3202,982 C3203,973 3197,987 3196,977 C3196,967 3201,977 3201,968 L3201,960"/></g><clipPath id="c" clipRule="evenodd" fill="transparent"><use href="#t3996"/></clipPath></defs><svg viewBox="3161 958 43 36" preserveAspectRatio="xMinYMin meet"><svg width="4380" height="2430"><g><image crossorigin="anonymous" x="0" y="0" href="https://nftpuzzle.license-token.com/assets/completepuzzle.svg" width="100%" height="100%" /><g class="links"><use href="#t3996"/></g></g></svg><svg x="3189" y="979" height="9%" width="9%" viewBox="0 0 330 330"><g><a xlink:href="https://nftpuzzle.license-token.com/" class="links"><title>See the most innovative NFT based token software licensing project</title><path fill="#E4CF37" id="more" d="M165,0C74.019,0,0,74.019,0,165s74.019,165,165,165s165-74.019,165-165S255.981,0,165,0z M85,190 c-13.785,0-25-11.215-25-25s11.215-25,25-25s25,11.215,25,25S98.785,190,85,190z M165,190c-13.785,0-25-11.215-25-25 s11.215-25,25-25s25,11.215,25,25S178.785,190,165,190z M245,190c-13.785,0-25-11.215-25-25s11.215-25,25-25 c13.785,0,25,11.215,25,25S258.785,190,245,190z"></path></a></g></svg></svg></svg>