<svg version="1.1" xmlns="http://www.w3.org/2000/svg" xmlns:xlink="http://www.w3.org/1999/xlink" fill="transparent" x="0" y="0" width="350" height="350" preserveAspectRatio="xMinYMin slice"><style type="text/css">.links{fill:transparent;stroke: #E4CF37;}.links:hover{fill:#63D272; opacity:0.4;}</style><defs><g id="allt"><path id="t4238" d="M2607,1024 L2597,1024 C2588,1025 2599,1021 2590,1021 C2582,1022 2594,1024 2584,1024 L2574,1024 2574,1024 L2575,1033 C2577,1043 2568,1031 2566,1040 C2565,1050 2574,1035 2574,1045 L2574,1056 2574,1056 L2584,1057 C2594,1059 2581,1050 2591,1048 C2601,1047 2586,1056 2596,1056 L2607,1056 2607,1056 L2607,1045 C2607,1034 2600,1048 2600,1040 C2601,1032 2610,1045 2608,1034 L2607,1024"/></g><clipPath id="c" clipRule="evenodd" fill="transparent"><use href="#t4238"/></clipPath></defs><svg viewBox="2564 1020 47 40" preserveAspectRatio="xMinYMin meet"><svg width="4380" height="2430"><g><image crossorigin="anonymous" x="0" y="0" href="https://nftpuzzle.license-token.com/assets/completepuzzle.svg" width="100%" height="100%" /><g class="links"><use href="#t4238"/></g></g></svg><svg x="2596" y="1045" height="9%" width="9%" viewBox="0 0 330 330"><g><a xlink:href="https://nftpuzzle.license-token.com/" class="links"><title>See the most innovative NFT based token software licensing project</title><path fill="#E4CF37" id="more" d="M165,0C74.019,0,0,74.019,0,165s74.019,165,165,165s165-74.019,165-165S255.981,0,165,0z M85,190 c-13.785,0-25-11.215-25-25s11.215-25,25-25s25,11.215,25,25S98.785,190,85,190z M165,190c-13.785,0-25-11.215-25-25 s11.215-25,25-25s25,11.215,25,25S178.785,190,165,190z M245,190c-13.785,0-25-11.215-25-25s11.215-25,25-25 c13.785,0,25,11.215,25,25S258.785,190,245,190z"></path></a></g></svg></svg></svg>