<svg version="1.1" xmlns="http://www.w3.org/2000/svg" xmlns:xlink="http://www.w3.org/1999/xlink" fill="transparent" x="0" y="0" width="350" height="350" preserveAspectRatio="xMinYMin slice"><style type="text/css">.links{fill:transparent;stroke: #E4CF37;}.links:hover{fill:#63D272; opacity:0.4;}</style><defs><g id="allt"><path id="t4362" d="M2409,1056 L2399,1055 C2390,1054 2401,1064 2391,1064 C2382,1064 2396,1056 2386,1056 L2376,1056 2376,1056 L2376,1065 C2376,1074 2382,1063 2382,1070 C2382,1078 2375,1070 2375,1079 L2376,1088 2376,1088 L2385,1088 C2395,1088 2383,1094 2391,1094 C2399,1094 2390,1087 2399,1087 L2409,1088 2409,1088 L2409,1077 C2409,1066 2418,1081 2417,1071 C2417,1062 2410,1076 2409,1066 L2409,1056"/></g><clipPath id="c" clipRule="evenodd" fill="transparent"><use href="#t4362"/></clipPath></defs><svg viewBox="2374 1053 45 42" preserveAspectRatio="xMinYMin meet"><svg width="4380" height="2430"><g><image crossorigin="anonymous" x="0" y="0" href="https://nftpuzzle.license-token.com/assets/completepuzzle.svg" width="100%" height="100%" /><g class="links"><use href="#t4362"/></g></g></svg><svg x="2404" y="1080" height="9%" width="9%" viewBox="0 0 330 330"><g><a xlink:href="https://nftpuzzle.license-token.com/" class="links"><title>See the most innovative NFT based token software licensing project</title><path fill="#E4CF37" id="more" d="M165,0C74.019,0,0,74.019,0,165s74.019,165,165,165s165-74.019,165-165S255.981,0,165,0z M85,190 c-13.785,0-25-11.215-25-25s11.215-25,25-25s25,11.215,25,25S98.785,190,85,190z M165,190c-13.785,0-25-11.215-25-25 s11.215-25,25-25s25,11.215,25,25S178.785,190,165,190z M245,190c-13.785,0-25-11.215-25-25s11.215-25,25-25 c13.785,0,25,11.215,25,25S258.785,190,245,190z"></path></a></g></svg></svg></svg>