<svg version="1.1" xmlns="http://www.w3.org/2000/svg" xmlns:xlink="http://www.w3.org/1999/xlink" fill="transparent" x="0" y="0" width="350" height="350" preserveAspectRatio="xMinYMin slice"><style type="text/css">.links{fill:transparent;stroke: #E4CF37;}.links:hover{fill:#63D272; opacity:0.4;}</style><defs><g id="allt"><path id="t4400" d="M3663,1056 L3652,1056 C3641,1056 3656,1061 3646,1061 C3637,1062 3650,1054 3640,1055 L3630,1056 3630,1056 L3629,1066 C3629,1077 3637,1063 3638,1072 C3640,1082 3630,1069 3630,1078 L3630,1088 3630,1088 L3640,1087 C3651,1087 3637,1095 3647,1096 C3657,1097 3643,1088 3653,1088 L3663,1088 3663,1088 L3664,1077 C3665,1067 3659,1083 3657,1071 C3655,1060 3665,1075 3664,1065 L3663,1056"/></g><clipPath id="c" clipRule="evenodd" fill="transparent"><use href="#t4400"/></clipPath></defs><svg viewBox="3628 1053 38 45" preserveAspectRatio="xMinYMin meet"><svg width="4380" height="2430"><g><image crossorigin="anonymous" x="0" y="0" href="https://nftpuzzle.license-token.com/assets/completepuzzle.svg" width="100%" height="100%" /><g class="links"><use href="#t4400"/></g></g></svg><svg x="3651" y="1083" height="9%" width="9%" viewBox="0 0 330 330"><g><a xlink:href="https://nftpuzzle.license-token.com/" class="links"><title>See the most innovative NFT based token software licensing project</title><path fill="#E4CF37" id="more" d="M165,0C74.019,0,0,74.019,0,165s74.019,165,165,165s165-74.019,165-165S255.981,0,165,0z M85,190 c-13.785,0-25-11.215-25-25s11.215-25,25-25s25,11.215,25,25S98.785,190,85,190z M165,190c-13.785,0-25-11.215-25-25 s11.215-25,25-25s25,11.215,25,25S178.785,190,165,190z M245,190c-13.785,0-25-11.215-25-25s11.215-25,25-25 c13.785,0,25,11.215,25,25S258.785,190,245,190z"></path></a></g></svg></svg></svg>