<svg version="1.1" xmlns="http://www.w3.org/2000/svg" xmlns:xlink="http://www.w3.org/1999/xlink" fill="transparent" x="0" y="0" width="350" height="350" preserveAspectRatio="xMinYMin slice"><style type="text/css">.links{fill:transparent;stroke: #E4CF37;}.links:hover{fill:#63D272; opacity:0.4;}</style><defs><g id="allt"><path id="t4572" d="M759,1120 L749,1120 C739,1120 749,1114 740,1113 C731,1113 745,1122 735,1121 L726,1120 726,1120 L726,1130 C726,1140 738,1125 736,1134 C735,1143 726,1132 726,1142 L726,1152 726,1152 L736,1152 C746,1152 731,1164 740,1162 C750,1160 738,1152 748,1152 L759,1152 759,1152 L759,1142 C759,1133 756,1146 754,1136 C752,1127 759,1139 759,1129 L759,1120"/></g><clipPath id="c" clipRule="evenodd" fill="transparent"><use href="#t4572"/></clipPath></defs><svg viewBox="725 1112 35 53" preserveAspectRatio="xMinYMin meet"><svg width="4380" height="2430"><g><image crossorigin="anonymous" x="0" y="0" href="https://nftpuzzle.license-token.com/assets/completepuzzle.svg" width="100%" height="100%" /><g class="links"><use href="#t4572"/></g></g></svg><svg x="745" y="1150" height="9%" width="9%" viewBox="0 0 330 330"><g><a xlink:href="https://nftpuzzle.license-token.com/" class="links"><title>See the most innovative NFT based token software licensing project</title><path fill="#E4CF37" id="more" d="M165,0C74.019,0,0,74.019,0,165s74.019,165,165,165s165-74.019,165-165S255.981,0,165,0z M85,190 c-13.785,0-25-11.215-25-25s11.215-25,25-25s25,11.215,25,25S98.785,190,85,190z M165,190c-13.785,0-25-11.215-25-25 s11.215-25,25-25s25,11.215,25,25S178.785,190,165,190z M245,190c-13.785,0-25-11.215-25-25s11.215-25,25-25 c13.785,0,25,11.215,25,25S258.785,190,245,190z"></path></a></g></svg></svg></svg>