<svg version="1.1" xmlns="http://www.w3.org/2000/svg" xmlns:xlink="http://www.w3.org/1999/xlink" fill="transparent" x="0" y="0" width="350" height="350" preserveAspectRatio="xMinYMin slice"><style type="text/css">.links{fill:transparent;stroke: #E4CF37;}.links:hover{fill:#63D272; opacity:0.4;}</style><defs><g id="allt"><path id="t4712" d="M1089,1152 L1078,1152 C1068,1152 1083,1162 1073,1159 C1064,1157 1077,1152 1066,1152 L1056,1152 1056,1152 L1057,1161 C1058,1171 1047,1158 1045,1168 C1044,1178 1056,1162 1056,1173 L1056,1184 1056,1184 L1066,1185 C1076,1186 1062,1175 1072,1173 C1083,1172 1066,1184 1077,1184 L1089,1184 1089,1184 L1087,1173 C1085,1163 1100,1178 1097,1168 C1095,1159 1088,1172 1088,1162 L1089,1152"/></g><clipPath id="c" clipRule="evenodd" fill="transparent"><use href="#t4712"/></clipPath></defs><svg viewBox="1043 1151 58 36" preserveAspectRatio="xMinYMin meet"><svg width="4380" height="2430"><g><image crossorigin="anonymous" x="0" y="0" href="https://nftpuzzle.license-token.com/assets/completepuzzle.svg" width="100%" height="100%" /><g class="links"><use href="#t4712"/></g></g></svg><svg x="1086" y="1172" height="9%" width="9%" viewBox="0 0 330 330"><g><a xlink:href="https://nftpuzzle.license-token.com/" class="links"><title>See the most innovative NFT based token software licensing project</title><path fill="#E4CF37" id="more" d="M165,0C74.019,0,0,74.019,0,165s74.019,165,165,165s165-74.019,165-165S255.981,0,165,0z M85,190 c-13.785,0-25-11.215-25-25s11.215-25,25-25s25,11.215,25,25S98.785,190,85,190z M165,190c-13.785,0-25-11.215-25-25 s11.215-25,25-25s25,11.215,25,25S178.785,190,165,190z M245,190c-13.785,0-25-11.215-25-25s11.215-25,25-25 c13.785,0,25,11.215,25,25S258.785,190,245,190z"></path></a></g></svg></svg></svg>