<svg version="1.1" xmlns="http://www.w3.org/2000/svg" xmlns:xlink="http://www.w3.org/1999/xlink" fill="transparent" x="0" y="0" width="350" height="350" preserveAspectRatio="xMinYMin slice"><style type="text/css">.links{fill:transparent;stroke: #E4CF37;}.links:hover{fill:#63D272; opacity:0.4;}</style><defs><g id="allt"><path id="t4800" d="M3993,1152 L3982,1152 C3972,1152 3987,1143 3977,1143 C3967,1143 3981,1152 3970,1152 L3960,1152 3960,1152 L3961,1162 C3963,1173 3951,1157 3952,1167 C3953,1177 3960,1165 3960,1174 L3960,1184 3960,1184 L3971,1185 C3982,1187 3965,1175 3975,1176 C3986,1177 3973,1184 3983,1184 L3993,1184 3993,1184 L3993,1175 C3993,1166 3997,1175 3997,1167 C3998,1160 3993,1172 3993,1162 L3993,1152"/></g><clipPath id="c" clipRule="evenodd" fill="transparent"><use href="#t4800"/></clipPath></defs><svg viewBox="3950 1142 49 46" preserveAspectRatio="xMinYMin meet"><svg width="4380" height="2430"><g><image crossorigin="anonymous" x="0" y="0" href="https://nftpuzzle.license-token.com/assets/completepuzzle.svg" width="100%" height="100%" /><g class="links"><use href="#t4800"/></g></g></svg><svg x="3984" y="1173" height="9%" width="9%" viewBox="0 0 330 330"><g><a xlink:href="https://nftpuzzle.license-token.com/" class="links"><title>See the most innovative NFT based token software licensing project</title><path fill="#E4CF37" id="more" d="M165,0C74.019,0,0,74.019,0,165s74.019,165,165,165s165-74.019,165-165S255.981,0,165,0z M85,190 c-13.785,0-25-11.215-25-25s11.215-25,25-25s25,11.215,25,25S98.785,190,85,190z M165,190c-13.785,0-25-11.215-25-25 s11.215-25,25-25s25,11.215,25,25S178.785,190,165,190z M245,190c-13.785,0-25-11.215-25-25s11.215-25,25-25 c13.785,0,25,11.215,25,25S258.785,190,245,190z"></path></a></g></svg></svg></svg>