<svg version="1.1" xmlns="http://www.w3.org/2000/svg" xmlns:xlink="http://www.w3.org/1999/xlink" fill="transparent" x="0" y="0" width="350" height="350" preserveAspectRatio="xMinYMin slice"><style type="text/css">.links{fill:transparent;stroke: #E4CF37;}.links:hover{fill:#63D272; opacity:0.4;}</style><defs><g id="allt"><path id="t4872" d="M2079,1184 L2067,1183 C2056,1182 2070,1188 2062,1188 C2055,1188 2066,1184 2056,1184 L2046,1184 2046,1184 L2048,1192 C2050,1201 2040,1193 2040,1201 C2041,1209 2048,1198 2047,1207 L2046,1216 2046,1216 L2055,1218 C2064,1220 2055,1210 2063,1210 C2072,1211 2060,1218 2069,1217 L2079,1216 2079,1216 L2079,1205 C2079,1195 2069,1210 2071,1199 C2073,1188 2084,1202 2081,1193 L2079,1184"/></g><clipPath id="c" clipRule="evenodd" fill="transparent"><use href="#t4872"/></clipPath></defs><svg viewBox="2039 1181 46 40" preserveAspectRatio="xMinYMin meet"><svg width="4380" height="2430"><g><image crossorigin="anonymous" x="0" y="0" href="https://nftpuzzle.license-token.com/assets/completepuzzle.svg" width="100%" height="100%" /><g class="links"><use href="#t4872"/></g></g></svg><svg x="2070" y="1206" height="9%" width="9%" viewBox="0 0 330 330"><g><a xlink:href="https://nftpuzzle.license-token.com/" class="links"><title>See the most innovative NFT based token software licensing project</title><path fill="#E4CF37" id="more" d="M165,0C74.019,0,0,74.019,0,165s74.019,165,165,165s165-74.019,165-165S255.981,0,165,0z M85,190 c-13.785,0-25-11.215-25-25s11.215-25,25-25s25,11.215,25,25S98.785,190,85,190z M165,190c-13.785,0-25-11.215-25-25 s11.215-25,25-25s25,11.215,25,25S178.785,190,165,190z M245,190c-13.785,0-25-11.215-25-25s11.215-25,25-25 c13.785,0,25,11.215,25,25S258.785,190,245,190z"></path></a></g></svg></svg></svg>