<svg version="1.1" xmlns="http://www.w3.org/2000/svg" xmlns:xlink="http://www.w3.org/1999/xlink" fill="transparent" x="0" y="0" width="350" height="350" preserveAspectRatio="xMinYMin slice"><style type="text/css">.links{fill:transparent;stroke: #E4CF37;}.links:hover{fill:#63D272; opacity:0.4;}</style><defs><g id="allt"><path id="t4998" d="M1947,1216 L1937,1216 C1928,1216 1942,1207 1930,1206 C1918,1205 1932,1220 1923,1218 L1914,1216 1914,1216 L1915,1225 C1917,1235 1910,1221 1909,1231 C1908,1242 1917,1230 1915,1239 L1914,1248 1914,1248 L1923,1249 C1933,1251 1919,1244 1930,1243 C1941,1242 1928,1251 1937,1249 L1947,1248 1947,1248 L1947,1239 C1947,1230 1954,1238 1954,1230 C1955,1222 1947,1234 1947,1225 L1947,1216"/></g><clipPath id="c" clipRule="evenodd" fill="transparent"><use href="#t4998"/></clipPath></defs><svg viewBox="1907 1204 49 48" preserveAspectRatio="xMinYMin meet"><svg width="4380" height="2430"><g><image crossorigin="anonymous" x="0" y="0" href="https://nftpuzzle.license-token.com/assets/completepuzzle.svg" width="100%" height="100%" /><g class="links"><use href="#t4998"/></g></g></svg><svg x="1941" y="1237" height="9%" width="9%" viewBox="0 0 330 330"><g><a xlink:href="https://nftpuzzle.license-token.com/" class="links"><title>See the most innovative NFT based token software licensing project</title><path fill="#E4CF37" id="more" d="M165,0C74.019,0,0,74.019,0,165s74.019,165,165,165s165-74.019,165-165S255.981,0,165,0z M85,190 c-13.785,0-25-11.215-25-25s11.215-25,25-25s25,11.215,25,25S98.785,190,85,190z M165,190c-13.785,0-25-11.215-25-25 s11.215-25,25-25s25,11.215,25,25S178.785,190,165,190z M245,190c-13.785,0-25-11.215-25-25s11.215-25,25-25 c13.785,0,25,11.215,25,25S258.785,190,245,190z"></path></a></g></svg></svg></svg>