<svg version="1.1" xmlns="http://www.w3.org/2000/svg" xmlns:xlink="http://www.w3.org/1999/xlink" fill="transparent" x="0" y="0" width="350" height="350" preserveAspectRatio="xMinYMin slice"><style type="text/css">.links{fill:transparent;stroke: #E4CF37;}.links:hover{fill:#63D272; opacity:0.4;}</style><defs><g id="allt"><path id="t5030" d="M3003,1216 L2993,1216 C2984,1216 2997,1220 2987,1220 C2977,1220 2991,1216 2980,1216 L2970,1216 2970,1216 L2970,1225 C2970,1235 2958,1224 2961,1231 C2964,1238 2974,1228 2972,1238 L2970,1248 2970,1248 L2980,1248 C2990,1248 2979,1236 2986,1239 C2993,1242 2982,1252 2992,1250 L3003,1248 3003,1248 L3003,1237 C3003,1227 2995,1242 2996,1233 C2998,1224 3004,1236 3003,1226 L3003,1216"/></g><clipPath id="c" clipRule="evenodd" fill="transparent"><use href="#t5030"/></clipPath></defs><svg viewBox="2957 1215 48 38" preserveAspectRatio="xMinYMin meet"><svg width="4380" height="2430"><g><image crossorigin="anonymous" x="0" y="0" href="https://nftpuzzle.license-token.com/assets/completepuzzle.svg" width="100%" height="100%" /><g class="links"><use href="#t5030"/></g></g></svg><svg x="2990" y="1238" height="9%" width="9%" viewBox="0 0 330 330"><g><a xlink:href="https://nftpuzzle.license-token.com/" class="links"><title>See the most innovative NFT based token software licensing project</title><path fill="#E4CF37" id="more" d="M165,0C74.019,0,0,74.019,0,165s74.019,165,165,165s165-74.019,165-165S255.981,0,165,0z M85,190 c-13.785,0-25-11.215-25-25s11.215-25,25-25s25,11.215,25,25S98.785,190,85,190z M165,190c-13.785,0-25-11.215-25-25 s11.215-25,25-25s25,11.215,25,25S178.785,190,165,190z M245,190c-13.785,0-25-11.215-25-25s11.215-25,25-25 c13.785,0,25,11.215,25,25S258.785,190,245,190z"></path></a></g></svg></svg></svg>