<svg version="1.1" xmlns="http://www.w3.org/2000/svg" xmlns:xlink="http://www.w3.org/1999/xlink" fill="transparent" x="0" y="0" width="350" height="350" preserveAspectRatio="xMinYMin slice"><style type="text/css">.links{fill:transparent;stroke: #E4CF37;}.links:hover{fill:#63D272; opacity:0.4;}</style><defs><g id="allt"><path id="t508" d="M3927,96 L3917,95 C3907,95 3922,103 3911,102 C3901,102 3916,95 3905,95 L3894,96 3894,96 L3895,106 C3896,116 3888,104 3889,112 C3890,121 3894,108 3894,118 L3894,128 3894,128 L3904,129 C3914,130 3902,122 3911,123 C3920,124 3907,128 3917,128 L3927,128 3927,128 L3926,118 C3926,108 3934,121 3934,112 C3934,103 3924,113 3925,104 L3927,96"/></g><clipPath id="c" clipRule="evenodd" fill="transparent"><use href="#t508"/></clipPath></defs><svg viewBox="3887 94 48 37" preserveAspectRatio="xMinYMin meet"><svg width="4380" height="2430"><g><image crossorigin="anonymous" x="0" y="0" href="https://nftpuzzle.license-token.com/assets/completepuzzle.svg" width="100%" height="100%" /><g class="links"><use href="#t508"/></g></g></svg><svg x="3920" y="116" height="9%" width="9%" viewBox="0 0 330 330"><g><a xlink:href="https://nftpuzzle.license-token.com/" class="links"><title>See the most innovative NFT based token software licensing project</title><path fill="#E4CF37" id="more" d="M165,0C74.019,0,0,74.019,0,165s74.019,165,165,165s165-74.019,165-165S255.981,0,165,0z M85,190 c-13.785,0-25-11.215-25-25s11.215-25,25-25s25,11.215,25,25S98.785,190,85,190z M165,190c-13.785,0-25-11.215-25-25 s11.215-25,25-25s25,11.215,25,25S178.785,190,165,190z M245,190c-13.785,0-25-11.215-25-25s11.215-25,25-25 c13.785,0,25,11.215,25,25S258.785,190,245,190z"></path></a></g></svg></svg></svg>