<svg version="1.1" xmlns="http://www.w3.org/2000/svg" xmlns:xlink="http://www.w3.org/1999/xlink" fill="transparent" x="0" y="0" width="350" height="350" preserveAspectRatio="xMinYMin slice"><style type="text/css">.links{fill:transparent;stroke: #E4CF37;}.links:hover{fill:#63D272; opacity:0.4;}</style><defs><g id="allt"><path id="t5182" d="M3729,1248 L3719,1247 C3710,1247 3723,1255 3712,1254 C3701,1253 3718,1247 3707,1247 L3696,1248 3696,1248 L3696,1258 C3696,1268 3692,1253 3692,1262 C3692,1271 3698,1261 3697,1270 L3696,1280 3696,1280 L3706,1280 C3717,1280 3701,1276 3710,1276 C3720,1276 3709,1282 3719,1281 L3729,1280 3729,1280 L3727,1270 C3725,1261 3737,1272 3737,1263 C3737,1255 3729,1268 3729,1258 L3729,1248"/></g><clipPath id="c" clipRule="evenodd" fill="transparent"><use href="#t5182"/></clipPath></defs><svg viewBox="3691 1246 47 37" preserveAspectRatio="xMinYMin meet"><svg width="4380" height="2430"><g><image crossorigin="anonymous" x="0" y="0" href="https://nftpuzzle.license-token.com/assets/completepuzzle.svg" width="100%" height="100%" /><g class="links"><use href="#t5182"/></g></g></svg><svg x="3723" y="1268" height="9%" width="9%" viewBox="0 0 330 330"><g><a xlink:href="https://nftpuzzle.license-token.com/" class="links"><title>See the most innovative NFT based token software licensing project</title><path fill="#E4CF37" id="more" d="M165,0C74.019,0,0,74.019,0,165s74.019,165,165,165s165-74.019,165-165S255.981,0,165,0z M85,190 c-13.785,0-25-11.215-25-25s11.215-25,25-25s25,11.215,25,25S98.785,190,85,190z M165,190c-13.785,0-25-11.215-25-25 s11.215-25,25-25s25,11.215,25,25S178.785,190,165,190z M245,190c-13.785,0-25-11.215-25-25s11.215-25,25-25 c13.785,0,25,11.215,25,25S258.785,190,245,190z"></path></a></g></svg></svg></svg>