<svg version="1.1" xmlns="http://www.w3.org/2000/svg" xmlns:xlink="http://www.w3.org/1999/xlink" fill="transparent" x="0" y="0" width="350" height="350" preserveAspectRatio="xMinYMin slice"><style type="text/css">.links{fill:transparent;stroke: #E4CF37;}.links:hover{fill:#63D272; opacity:0.4;}</style><defs><g id="allt"><path id="t5310" d="M3663,1280 L3653,1279 C3644,1278 3655,1288 3645,1288 C3636,1289 3649,1280 3639,1280 L3630,1280 3630,1280 L3631,1290 C3633,1301 3622,1287 3623,1294 C3624,1302 3630,1291 3630,1301 L3630,1312 3630,1312 L3640,1313 C3651,1315 3637,1304 3645,1305 C3653,1306 3641,1312 3652,1312 L3663,1312 3663,1312 L3661,1302 C3659,1292 3667,1303 3668,1294 C3669,1285 3660,1299 3661,1289 L3663,1280"/></g><clipPath id="c" clipRule="evenodd" fill="transparent"><use href="#t5310"/></clipPath></defs><svg viewBox="3621 1277 49 39" preserveAspectRatio="xMinYMin meet"><svg width="4380" height="2430"><g><image crossorigin="anonymous" x="0" y="0" href="https://nftpuzzle.license-token.com/assets/completepuzzle.svg" width="100%" height="100%" /><g class="links"><use href="#t5310"/></g></g></svg><svg x="3655" y="1301" height="9%" width="9%" viewBox="0 0 330 330"><g><a xlink:href="https://nftpuzzle.license-token.com/" class="links"><title>See the most innovative NFT based token software licensing project</title><path fill="#E4CF37" id="more" d="M165,0C74.019,0,0,74.019,0,165s74.019,165,165,165s165-74.019,165-165S255.981,0,165,0z M85,190 c-13.785,0-25-11.215-25-25s11.215-25,25-25s25,11.215,25,25S98.785,190,85,190z M165,190c-13.785,0-25-11.215-25-25 s11.215-25,25-25s25,11.215,25,25S178.785,190,165,190z M245,190c-13.785,0-25-11.215-25-25s11.215-25,25-25 c13.785,0,25,11.215,25,25S258.785,190,245,190z"></path></a></g></svg></svg></svg>