<svg version="1.1" xmlns="http://www.w3.org/2000/svg" xmlns:xlink="http://www.w3.org/1999/xlink" fill="transparent" x="0" y="0" width="350" height="350" preserveAspectRatio="xMinYMin slice"><style type="text/css">.links{fill:transparent;stroke: #E4CF37;}.links:hover{fill:#63D272; opacity:0.4;}</style><defs><g id="allt"><path id="t5356" d="M891,1312 L881,1311 C872,1310 881,1316 873,1315 C866,1315 876,1312 867,1312 L858,1312 858,1312 L858,1322 C858,1332 852,1317 853,1327 C854,1338 860,1325 859,1334 L858,1344 858,1344 L868,1344 C878,1344 863,1338 874,1339 C885,1340 871,1346 881,1345 L891,1344 891,1344 L891,1334 C891,1324 887,1337 885,1328 C884,1319 894,1332 892,1322 L891,1312"/></g><clipPath id="c" clipRule="evenodd" fill="transparent"><use href="#t5356"/></clipPath></defs><svg viewBox="851 1309 44 38" preserveAspectRatio="xMinYMin meet"><svg width="4380" height="2430"><g><image crossorigin="anonymous" x="0" y="0" href="https://nftpuzzle.license-token.com/assets/completepuzzle.svg" width="100%" height="100%" /><g class="links"><use href="#t5356"/></g></g></svg><svg x="880" y="1332" height="9%" width="9%" viewBox="0 0 330 330"><g><a xlink:href="https://nftpuzzle.license-token.com/" class="links"><title>See the most innovative NFT based token software licensing project</title><path fill="#E4CF37" id="more" d="M165,0C74.019,0,0,74.019,0,165s74.019,165,165,165s165-74.019,165-165S255.981,0,165,0z M85,190 c-13.785,0-25-11.215-25-25s11.215-25,25-25s25,11.215,25,25S98.785,190,85,190z M165,190c-13.785,0-25-11.215-25-25 s11.215-25,25-25s25,11.215,25,25S178.785,190,165,190z M245,190c-13.785,0-25-11.215-25-25s11.215-25,25-25 c13.785,0,25,11.215,25,25S258.785,190,245,190z"></path></a></g></svg></svg></svg>