<svg version="1.1" xmlns="http://www.w3.org/2000/svg" xmlns:xlink="http://www.w3.org/1999/xlink" fill="transparent" x="0" y="0" width="350" height="350" preserveAspectRatio="xMinYMin slice"><style type="text/css">.links{fill:transparent;stroke: #E4CF37;}.links:hover{fill:#63D272; opacity:0.4;}</style><defs><g id="allt"><path id="t5434" d="M3465,1312 L3455,1313 C3446,1314 3458,1306 3448,1304 C3439,1303 3450,1315 3441,1313 L3432,1312 3432,1312 L3432,1321 C3433,1331 3426,1321 3425,1328 C3425,1336 3434,1322 3433,1333 L3432,1344 3432,1344 L3441,1344 C3451,1345 3441,1338 3449,1337 C3457,1337 3443,1346 3454,1345 L3465,1344 3465,1344 L3465,1334 C3466,1324 3458,1338 3459,1329 C3460,1320 3465,1333 3465,1322 L3465,1312"/></g><clipPath id="c" clipRule="evenodd" fill="transparent"><use href="#t5434"/></clipPath></defs><svg viewBox="3424 1302 43 45" preserveAspectRatio="xMinYMin meet"><svg width="4380" height="2430"><g><image crossorigin="anonymous" x="0" y="0" href="https://nftpuzzle.license-token.com/assets/completepuzzle.svg" width="100%" height="100%" /><g class="links"><use href="#t5434"/></g></g></svg><svg x="3452" y="1332" height="9%" width="9%" viewBox="0 0 330 330"><g><a xlink:href="https://nftpuzzle.license-token.com/" class="links"><title>See the most innovative NFT based token software licensing project</title><path fill="#E4CF37" id="more" d="M165,0C74.019,0,0,74.019,0,165s74.019,165,165,165s165-74.019,165-165S255.981,0,165,0z M85,190 c-13.785,0-25-11.215-25-25s11.215-25,25-25s25,11.215,25,25S98.785,190,85,190z M165,190c-13.785,0-25-11.215-25-25 s11.215-25,25-25s25,11.215,25,25S178.785,190,165,190z M245,190c-13.785,0-25-11.215-25-25s11.215-25,25-25 c13.785,0,25,11.215,25,25S258.785,190,245,190z"></path></a></g></svg></svg></svg>