<svg version="1.1" xmlns="http://www.w3.org/2000/svg" xmlns:xlink="http://www.w3.org/1999/xlink" fill="transparent" x="0" y="0" width="350" height="350" preserveAspectRatio="xMinYMin slice"><style type="text/css">.links{fill:transparent;stroke: #E4CF37;}.links:hover{fill:#63D272; opacity:0.4;}</style><defs><g id="allt"><path id="t5502" d="M1419,1344 L1409,1345 C1399,1347 1410,1338 1401,1339 C1392,1340 1405,1347 1395,1345 L1386,1344 1386,1344 L1385,1353 C1385,1362 1388,1350 1388,1359 C1388,1369 1386,1355 1386,1365 L1386,1376 1386,1376 L1395,1375 C1405,1375 1392,1378 1402,1378 C1412,1378 1398,1376 1408,1376 L1419,1376 1419,1376 L1417,1366 C1415,1356 1428,1368 1429,1360 C1430,1352 1419,1364 1419,1354 L1419,1344"/></g><clipPath id="c" clipRule="evenodd" fill="transparent"><use href="#t5502"/></clipPath></defs><svg viewBox="1384 1337 47 42" preserveAspectRatio="xMinYMin meet"><svg width="4380" height="2430"><g><image crossorigin="anonymous" x="0" y="0" href="https://nftpuzzle.license-token.com/assets/completepuzzle.svg" width="100%" height="100%" /><g class="links"><use href="#t5502"/></g></g></svg><svg x="1416" y="1364" height="9%" width="9%" viewBox="0 0 330 330"><g><a xlink:href="https://nftpuzzle.license-token.com/" class="links"><title>See the most innovative NFT based token software licensing project</title><path fill="#E4CF37" id="more" d="M165,0C74.019,0,0,74.019,0,165s74.019,165,165,165s165-74.019,165-165S255.981,0,165,0z M85,190 c-13.785,0-25-11.215-25-25s11.215-25,25-25s25,11.215,25,25S98.785,190,85,190z M165,190c-13.785,0-25-11.215-25-25 s11.215-25,25-25s25,11.215,25,25S178.785,190,165,190z M245,190c-13.785,0-25-11.215-25-25s11.215-25,25-25 c13.785,0,25,11.215,25,25S258.785,190,245,190z"></path></a></g></svg></svg></svg>