<svg version="1.1" xmlns="http://www.w3.org/2000/svg" xmlns:xlink="http://www.w3.org/1999/xlink" fill="transparent" x="0" y="0" width="350" height="350" preserveAspectRatio="xMinYMin slice"><style type="text/css">.links{fill:transparent;stroke: #E4CF37;}.links:hover{fill:#63D272; opacity:0.4;}</style><defs><g id="allt"><path id="t572" d="M1749,128 L1739,128 C1729,128 1743,131 1733,130 C1723,130 1736,127 1726,127 L1716,128 1716,128 L1716,137 C1716,147 1712,133 1712,142 C1712,152 1717,138 1716,149 L1716,160 1716,160 L1725,160 C1735,160 1721,156 1731,156 C1741,156 1727,161 1738,160 L1749,160 1749,160 L1749,151 C1749,142 1746,154 1744,144 C1743,134 1750,147 1749,137 L1749,128"/></g><clipPath id="c" clipRule="evenodd" fill="transparent"><use href="#t572"/></clipPath></defs><svg viewBox="1711 126 40 36" preserveAspectRatio="xMinYMin meet"><svg width="4380" height="2430"><g><image crossorigin="anonymous" x="0" y="0" href="https://nftpuzzle.license-token.com/assets/completepuzzle.svg" width="100%" height="100%" /><g class="links"><use href="#t572"/></g></g></svg><svg x="1736" y="147" height="9%" width="9%" viewBox="0 0 330 330"><g><a xlink:href="https://nftpuzzle.license-token.com/" class="links"><title>See the most innovative NFT based token software licensing project</title><path fill="#E4CF37" id="more" d="M165,0C74.019,0,0,74.019,0,165s74.019,165,165,165s165-74.019,165-165S255.981,0,165,0z M85,190 c-13.785,0-25-11.215-25-25s11.215-25,25-25s25,11.215,25,25S98.785,190,85,190z M165,190c-13.785,0-25-11.215-25-25 s11.215-25,25-25s25,11.215,25,25S178.785,190,165,190z M245,190c-13.785,0-25-11.215-25-25s11.215-25,25-25 c13.785,0,25,11.215,25,25S258.785,190,245,190z"></path></a></g></svg></svg></svg>