<svg version="1.1" xmlns="http://www.w3.org/2000/svg" xmlns:xlink="http://www.w3.org/1999/xlink" fill="transparent" x="0" y="0" width="350" height="350" preserveAspectRatio="xMinYMin slice"><style type="text/css">.links{fill:transparent;stroke: #E4CF37;}.links:hover{fill:#63D272; opacity:0.4;}</style><defs><g id="allt"><path id="t5886" d="M1221,1440 L1211,1438 C1202,1436 1214,1449 1204,1449 C1194,1449 1208,1440 1198,1440 L1188,1440 1188,1440 L1188,1450 C1188,1460 1185,1445 1184,1455 C1184,1465 1188,1453 1188,1462 L1188,1472 1188,1472 L1198,1472 C1208,1472 1193,1469 1203,1468 C1214,1468 1202,1472 1211,1472 L1221,1472 1221,1472 L1220,1462 C1220,1452 1225,1464 1224,1455 C1223,1446 1219,1459 1220,1449 L1221,1440"/></g><clipPath id="c" clipRule="evenodd" fill="transparent"><use href="#t5886"/></clipPath></defs><svg viewBox="1183 1435 43 38" preserveAspectRatio="xMinYMin meet"><svg width="4380" height="2430"><g><image crossorigin="anonymous" x="0" y="0" href="https://nftpuzzle.license-token.com/assets/completepuzzle.svg" width="100%" height="100%" /><g class="links"><use href="#t5886"/></g></g></svg><svg x="1211" y="1458" height="9%" width="9%" viewBox="0 0 330 330"><g><a xlink:href="https://nftpuzzle.license-token.com/" class="links"><title>See the most innovative NFT based token software licensing project</title><path fill="#E4CF37" id="more" d="M165,0C74.019,0,0,74.019,0,165s74.019,165,165,165s165-74.019,165-165S255.981,0,165,0z M85,190 c-13.785,0-25-11.215-25-25s11.215-25,25-25s25,11.215,25,25S98.785,190,85,190z M165,190c-13.785,0-25-11.215-25-25 s11.215-25,25-25s25,11.215,25,25S178.785,190,165,190z M245,190c-13.785,0-25-11.215-25-25s11.215-25,25-25 c13.785,0,25,11.215,25,25S258.785,190,245,190z"></path></a></g></svg></svg></svg>