<svg version="1.1" xmlns="http://www.w3.org/2000/svg" xmlns:xlink="http://www.w3.org/1999/xlink" fill="transparent" x="0" y="0" width="350" height="350" preserveAspectRatio="xMinYMin slice"><style type="text/css">.links{fill:transparent;stroke: #E4CF37;}.links:hover{fill:#63D272; opacity:0.4;}</style><defs><g id="allt"><path id="t5934" d="M2805,1440 L2795,1440 C2786,1441 2795,1435 2786,1435 C2778,1435 2791,1440 2781,1440 L2772,1440 2772,1440 L2772,1450 C2773,1460 2769,1446 2768,1454 C2767,1462 2775,1451 2773,1461 L2772,1472 2772,1472 L2782,1472 C2792,1473 2778,1469 2786,1468 C2795,1467 2784,1475 2794,1473 L2805,1472 2805,1472 L2805,1461 C2805,1451 2796,1464 2797,1455 C2798,1447 2809,1459 2807,1449 L2805,1440"/></g><clipPath id="c" clipRule="evenodd" fill="transparent"><use href="#t5934"/></clipPath></defs><svg viewBox="2766 1434 44 42" preserveAspectRatio="xMinYMin meet"><svg width="4380" height="2430"><g><image crossorigin="anonymous" x="0" y="0" href="https://nftpuzzle.license-token.com/assets/completepuzzle.svg" width="100%" height="100%" /><g class="links"><use href="#t5934"/></g></g></svg><svg x="2795" y="1461" height="9%" width="9%" viewBox="0 0 330 330"><g><a xlink:href="https://nftpuzzle.license-token.com/" class="links"><title>See the most innovative NFT based token software licensing project</title><path fill="#E4CF37" id="more" d="M165,0C74.019,0,0,74.019,0,165s74.019,165,165,165s165-74.019,165-165S255.981,0,165,0z M85,190 c-13.785,0-25-11.215-25-25s11.215-25,25-25s25,11.215,25,25S98.785,190,85,190z M165,190c-13.785,0-25-11.215-25-25 s11.215-25,25-25s25,11.215,25,25S178.785,190,165,190z M245,190c-13.785,0-25-11.215-25-25s11.215-25,25-25 c13.785,0,25,11.215,25,25S258.785,190,245,190z"></path></a></g></svg></svg></svg>