<svg version="1.1" xmlns="http://www.w3.org/2000/svg" xmlns:xlink="http://www.w3.org/1999/xlink" fill="transparent" x="0" y="0" width="350" height="350" preserveAspectRatio="xMinYMin slice"><style type="text/css">.links{fill:transparent;stroke: #E4CF37;}.links:hover{fill:#63D272; opacity:0.4;}</style><defs><g id="allt"><path id="t6020" d="M1353,1472 L1342,1472 C1332,1473 1344,1464 1335,1463 C1327,1462 1338,1475 1329,1473 L1320,1472 1320,1472 L1321,1480 C1322,1489 1314,1478 1314,1486 C1315,1494 1320,1484 1320,1494 L1320,1504 1320,1504 L1329,1505 C1338,1506 1326,1498 1334,1498 C1343,1499 1333,1504 1343,1504 L1353,1504 1353,1504 L1353,1494 C1353,1484 1362,1497 1361,1487 C1360,1477 1353,1493 1353,1482 L1353,1472"/></g><clipPath id="c" clipRule="evenodd" fill="transparent"><use href="#t6020"/></clipPath></defs><svg viewBox="1313 1461 50 46" preserveAspectRatio="xMinYMin meet"><svg width="4380" height="2430"><g><image crossorigin="anonymous" x="0" y="0" href="https://nftpuzzle.license-token.com/assets/completepuzzle.svg" width="100%" height="100%" /><g class="links"><use href="#t6020"/></g></g></svg><svg x="1348" y="1492" height="9%" width="9%" viewBox="0 0 330 330"><g><a xlink:href="https://nftpuzzle.license-token.com/" class="links"><title>See the most innovative NFT based token software licensing project</title><path fill="#E4CF37" id="more" d="M165,0C74.019,0,0,74.019,0,165s74.019,165,165,165s165-74.019,165-165S255.981,0,165,0z M85,190 c-13.785,0-25-11.215-25-25s11.215-25,25-25s25,11.215,25,25S98.785,190,85,190z M165,190c-13.785,0-25-11.215-25-25 s11.215-25,25-25s25,11.215,25,25S178.785,190,165,190z M245,190c-13.785,0-25-11.215-25-25s11.215-25,25-25 c13.785,0,25,11.215,25,25S258.785,190,245,190z"></path></a></g></svg></svg></svg>