<svg version="1.1" xmlns="http://www.w3.org/2000/svg" xmlns:xlink="http://www.w3.org/1999/xlink" fill="transparent" x="0" y="0" width="350" height="350" preserveAspectRatio="xMinYMin slice"><style type="text/css">.links{fill:transparent;stroke: #E4CF37;}.links:hover{fill:#63D272; opacity:0.4;}</style><defs><g id="allt"><path id="t6124" d="M495,1504 L483,1503 C472,1503 489,1509 478,1510 C467,1511 481,1504 471,1504 L462,1504 462,1504 L462,1514 C463,1524 457,1508 458,1517 C459,1526 462,1514 462,1525 L462,1536 462,1536 L472,1536 C483,1537 466,1531 475,1532 C485,1533 472,1536 483,1536 L495,1536 495,1536 L496,1526 C497,1516 491,1527 490,1519 C489,1511 495,1522 495,1513 L495,1504"/></g><clipPath id="c" clipRule="evenodd" fill="transparent"><use href="#t6124"/></clipPath></defs><svg viewBox="456 1502 42 36" preserveAspectRatio="xMinYMin meet"><svg width="4380" height="2430"><g><image crossorigin="anonymous" x="0" y="0" href="https://nftpuzzle.license-token.com/assets/completepuzzle.svg" width="100%" height="100%" /><g class="links"><use href="#t6124"/></g></g></svg><svg x="483" y="1523" height="9%" width="9%" viewBox="0 0 330 330"><g><a xlink:href="https://nftpuzzle.license-token.com/" class="links"><title>See the most innovative NFT based token software licensing project</title><path fill="#E4CF37" id="more" d="M165,0C74.019,0,0,74.019,0,165s74.019,165,165,165s165-74.019,165-165S255.981,0,165,0z M85,190 c-13.785,0-25-11.215-25-25s11.215-25,25-25s25,11.215,25,25S98.785,190,85,190z M165,190c-13.785,0-25-11.215-25-25 s11.215-25,25-25s25,11.215,25,25S178.785,190,165,190z M245,190c-13.785,0-25-11.215-25-25s11.215-25,25-25 c13.785,0,25,11.215,25,25S258.785,190,245,190z"></path></a></g></svg></svg></svg>