<svg version="1.1" xmlns="http://www.w3.org/2000/svg" xmlns:xlink="http://www.w3.org/1999/xlink" fill="transparent" x="0" y="0" width="350" height="350" preserveAspectRatio="xMinYMin slice"><style type="text/css">.links{fill:transparent;stroke: #E4CF37;}.links:hover{fill:#63D272; opacity:0.4;}</style><defs><g id="allt"><path id="t6244" d="M165,1536 L154,1536 C143,1536 156,1531 147,1531 C138,1532 150,1536 141,1536 L132,1536 132,1536 L132,1544 C132,1553 125,1543 125,1552 C126,1561 134,1548 133,1558 L132,1568 132,1568 L141,1568 C150,1568 139,1561 148,1561 C158,1562 145,1570 155,1569 L165,1568 165,1568 L165,1557 C165,1547 174,1558 172,1550 C171,1543 163,1554 164,1545 L165,1536"/></g><clipPath id="c" clipRule="evenodd" fill="transparent"><use href="#t6244"/></clipPath></defs><svg viewBox="124 1530 51 41" preserveAspectRatio="xMinYMin meet"><svg width="4380" height="2430"><g><image crossorigin="anonymous" x="0" y="0" href="https://nftpuzzle.license-token.com/assets/completepuzzle.svg" width="100%" height="100%" /><g class="links"><use href="#t6244"/></g></g></svg><svg x="160" y="1556" height="9%" width="9%" viewBox="0 0 330 330"><g><a xlink:href="https://nftpuzzle.license-token.com/" class="links"><title>See the most innovative NFT based token software licensing project</title><path fill="#E4CF37" id="more" d="M165,0C74.019,0,0,74.019,0,165s74.019,165,165,165s165-74.019,165-165S255.981,0,165,0z M85,190 c-13.785,0-25-11.215-25-25s11.215-25,25-25s25,11.215,25,25S98.785,190,85,190z M165,190c-13.785,0-25-11.215-25-25 s11.215-25,25-25s25,11.215,25,25S178.785,190,165,190z M245,190c-13.785,0-25-11.215-25-25s11.215-25,25-25 c13.785,0,25,11.215,25,25S258.785,190,245,190z"></path></a></g></svg></svg></svg>