<svg version="1.1" xmlns="http://www.w3.org/2000/svg" xmlns:xlink="http://www.w3.org/1999/xlink" fill="transparent" x="0" y="0" width="350" height="350" preserveAspectRatio="xMinYMin slice"><style type="text/css">.links{fill:transparent;stroke: #E4CF37;}.links:hover{fill:#63D272; opacity:0.4;}</style><defs><g id="allt"><path id="t6254" d="M495,1536 L483,1536 C472,1536 485,1533 475,1532 C466,1531 483,1537 472,1536 L462,1536 462,1536 L460,1546 C459,1556 469,1544 468,1552 C468,1560 462,1547 462,1557 L462,1568 462,1568 L472,1566 C482,1565 470,1575 478,1574 C486,1574 473,1568 484,1568 L495,1568 495,1568 L495,1558 C495,1549 489,1558 489,1550 C490,1542 495,1553 495,1544 L495,1536"/></g><clipPath id="c" clipRule="evenodd" fill="transparent"><use href="#t6254"/></clipPath></defs><svg viewBox="458 1530 38 46" preserveAspectRatio="xMinYMin meet"><svg width="4380" height="2430"><g><image crossorigin="anonymous" x="0" y="0" href="https://nftpuzzle.license-token.com/assets/completepuzzle.svg" width="100%" height="100%" /><g class="links"><use href="#t6254"/></g></g></svg><svg x="481" y="1561" height="9%" width="9%" viewBox="0 0 330 330"><g><a xlink:href="https://nftpuzzle.license-token.com/" class="links"><title>See the most innovative NFT based token software licensing project</title><path fill="#E4CF37" id="more" d="M165,0C74.019,0,0,74.019,0,165s74.019,165,165,165s165-74.019,165-165S255.981,0,165,0z M85,190 c-13.785,0-25-11.215-25-25s11.215-25,25-25s25,11.215,25,25S98.785,190,85,190z M165,190c-13.785,0-25-11.215-25-25 s11.215-25,25-25s25,11.215,25,25S178.785,190,165,190z M245,190c-13.785,0-25-11.215-25-25s11.215-25,25-25 c13.785,0,25,11.215,25,25S258.785,190,245,190z"></path></a></g></svg></svg></svg>