<svg version="1.1" xmlns="http://www.w3.org/2000/svg" xmlns:xlink="http://www.w3.org/1999/xlink" fill="transparent" x="0" y="0" width="350" height="350" preserveAspectRatio="xMinYMin slice"><style type="text/css">.links{fill:transparent;stroke: #E4CF37;}.links:hover{fill:#63D272; opacity:0.4;}</style><defs><g id="allt"><path id="t6290" d="M1683,1536 L1672,1536 C1662,1536 1674,1544 1665,1544 C1656,1544 1669,1533 1659,1534 L1650,1536 1650,1536 L1650,1545 C1650,1555 1642,1541 1641,1551 C1640,1561 1650,1546 1650,1557 L1650,1568 1650,1568 L1660,1568 C1670,1568 1655,1560 1665,1559 C1676,1559 1660,1568 1671,1568 L1683,1568 1683,1568 L1683,1558 C1684,1549 1676,1559 1673,1550 C1671,1541 1683,1554 1683,1545 L1683,1536"/></g><clipPath id="c" clipRule="evenodd" fill="transparent"><use href="#t6290"/></clipPath></defs><svg viewBox="1639 1532 46 37" preserveAspectRatio="xMinYMin meet"><svg width="4380" height="2430"><g><image crossorigin="anonymous" x="0" y="0" href="https://nftpuzzle.license-token.com/assets/completepuzzle.svg" width="100%" height="100%" /><g class="links"><use href="#t6290"/></g></g></svg><svg x="1670" y="1554" height="9%" width="9%" viewBox="0 0 330 330"><g><a xlink:href="https://nftpuzzle.license-token.com/" class="links"><title>See the most innovative NFT based token software licensing project</title><path fill="#E4CF37" id="more" d="M165,0C74.019,0,0,74.019,0,165s74.019,165,165,165s165-74.019,165-165S255.981,0,165,0z M85,190 c-13.785,0-25-11.215-25-25s11.215-25,25-25s25,11.215,25,25S98.785,190,85,190z M165,190c-13.785,0-25-11.215-25-25 s11.215-25,25-25s25,11.215,25,25S178.785,190,165,190z M245,190c-13.785,0-25-11.215-25-25s11.215-25,25-25 c13.785,0,25,11.215,25,25S258.785,190,245,190z"></path></a></g></svg></svg></svg>