<svg version="1.1" xmlns="http://www.w3.org/2000/svg" xmlns:xlink="http://www.w3.org/1999/xlink" fill="transparent" x="0" y="0" width="350" height="350" preserveAspectRatio="xMinYMin slice"><style type="text/css">.links{fill:transparent;stroke: #E4CF37;}.links:hover{fill:#63D272; opacity:0.4;}</style><defs><g id="allt"><path id="t6376" d="M231,1568 L220,1567 C209,1567 225,1577 214,1575 C203,1574 217,1568 207,1568 L198,1568 198,1568 L198,1578 C199,1589 193,1576 192,1584 C191,1593 198,1579 198,1589 L198,1600 198,1600 L209,1600 C220,1601 206,1595 215,1594 C224,1593 209,1600 220,1600 L231,1600 231,1600 L231,1590 C231,1581 222,1591 224,1583 C227,1576 231,1588 231,1578 L231,1568"/></g><clipPath id="c" clipRule="evenodd" fill="transparent"><use href="#t6376"/></clipPath></defs><svg viewBox="190 1566 42 36" preserveAspectRatio="xMinYMin meet"><svg width="4380" height="2430"><g><image crossorigin="anonymous" x="0" y="0" href="https://nftpuzzle.license-token.com/assets/completepuzzle.svg" width="100%" height="100%" /><g class="links"><use href="#t6376"/></g></g></svg><svg x="217" y="1587" height="9%" width="9%" viewBox="0 0 330 330"><g><a xlink:href="https://nftpuzzle.license-token.com/" class="links"><title>See the most innovative NFT based token software licensing project</title><path fill="#E4CF37" id="more" d="M165,0C74.019,0,0,74.019,0,165s74.019,165,165,165s165-74.019,165-165S255.981,0,165,0z M85,190 c-13.785,0-25-11.215-25-25s11.215-25,25-25s25,11.215,25,25S98.785,190,85,190z M165,190c-13.785,0-25-11.215-25-25 s11.215-25,25-25s25,11.215,25,25S178.785,190,165,190z M245,190c-13.785,0-25-11.215-25-25s11.215-25,25-25 c13.785,0,25,11.215,25,25S258.785,190,245,190z"></path></a></g></svg></svg></svg>