<svg version="1.1" xmlns="http://www.w3.org/2000/svg" xmlns:xlink="http://www.w3.org/1999/xlink" fill="transparent" x="0" y="0" width="350" height="350" preserveAspectRatio="xMinYMin slice"><style type="text/css">.links{fill:transparent;stroke: #E4CF37;}.links:hover{fill:#63D272; opacity:0.4;}</style><defs><g id="allt"><path id="t6456" d="M2871,1568 L2860,1568 C2850,1568 2865,1561 2855,1562 C2845,1563 2859,1571 2848,1569 L2838,1568 2838,1568 L2838,1578 C2838,1588 2830,1572 2830,1582 C2831,1593 2838,1580 2838,1590 L2838,1600 2838,1600 L2848,1600 C2859,1600 2842,1592 2853,1592 C2864,1593 2850,1600 2860,1600 L2871,1600 2871,1600 L2871,1590 C2871,1581 2867,1595 2867,1585 C2867,1576 2871,1586 2871,1577 L2871,1568"/></g><clipPath id="c" clipRule="evenodd" fill="transparent"><use href="#t6456"/></clipPath></defs><svg viewBox="2829 1560 43 41" preserveAspectRatio="xMinYMin meet"><svg width="4380" height="2430"><g><image crossorigin="anonymous" x="0" y="0" href="https://nftpuzzle.license-token.com/assets/completepuzzle.svg" width="100%" height="100%" /><g class="links"><use href="#t6456"/></g></g></svg><svg x="2857" y="1586" height="9%" width="9%" viewBox="0 0 330 330"><g><a xlink:href="https://nftpuzzle.license-token.com/" class="links"><title>See the most innovative NFT based token software licensing project</title><path fill="#E4CF37" id="more" d="M165,0C74.019,0,0,74.019,0,165s74.019,165,165,165s165-74.019,165-165S255.981,0,165,0z M85,190 c-13.785,0-25-11.215-25-25s11.215-25,25-25s25,11.215,25,25S98.785,190,85,190z M165,190c-13.785,0-25-11.215-25-25 s11.215-25,25-25s25,11.215,25,25S178.785,190,165,190z M245,190c-13.785,0-25-11.215-25-25s11.215-25,25-25 c13.785,0,25,11.215,25,25S258.785,190,245,190z"></path></a></g></svg></svg></svg>