<svg version="1.1" xmlns="http://www.w3.org/2000/svg" xmlns:xlink="http://www.w3.org/1999/xlink" fill="transparent" x="0" y="0" width="350" height="350" preserveAspectRatio="xMinYMin slice"><style type="text/css">.links{fill:transparent;stroke: #E4CF37;}.links:hover{fill:#63D272; opacity:0.4;}</style><defs><g id="allt"><path id="t6486" d="M3861,1568 L3851,1568 C3841,1568 3851,1570 3842,1570 C3834,1571 3849,1567 3838,1567 L3828,1568 3828,1568 L3827,1577 C3827,1586 3834,1576 3834,1585 C3835,1595 3827,1578 3827,1589 L3828,1600 3828,1600 L3837,1599 C3847,1599 3836,1606 3846,1606 C3856,1607 3839,1599 3850,1599 L3861,1600 3861,1600 L3861,1590 C3861,1581 3864,1592 3863,1583 C3863,1574 3860,1587 3860,1577 L3861,1568"/></g><clipPath id="c" clipRule="evenodd" fill="transparent"><use href="#t6486"/></clipPath></defs><svg viewBox="3826 1566 39 42" preserveAspectRatio="xMinYMin meet"><svg width="4380" height="2430"><g><image crossorigin="anonymous" x="0" y="0" href="https://nftpuzzle.license-token.com/assets/completepuzzle.svg" width="100%" height="100%" /><g class="links"><use href="#t6486"/></g></g></svg><svg x="3850" y="1593" height="9%" width="9%" viewBox="0 0 330 330"><g><a xlink:href="https://nftpuzzle.license-token.com/" class="links"><title>See the most innovative NFT based token software licensing project</title><path fill="#E4CF37" id="more" d="M165,0C74.019,0,0,74.019,0,165s74.019,165,165,165s165-74.019,165-165S255.981,0,165,0z M85,190 c-13.785,0-25-11.215-25-25s11.215-25,25-25s25,11.215,25,25S98.785,190,85,190z M165,190c-13.785,0-25-11.215-25-25 s11.215-25,25-25s25,11.215,25,25S178.785,190,165,190z M245,190c-13.785,0-25-11.215-25-25s11.215-25,25-25 c13.785,0,25,11.215,25,25S258.785,190,245,190z"></path></a></g></svg></svg></svg>