<svg version="1.1" xmlns="http://www.w3.org/2000/svg" xmlns:xlink="http://www.w3.org/1999/xlink" fill="transparent" x="0" y="0" width="350" height="350" preserveAspectRatio="xMinYMin slice"><style type="text/css">.links{fill:transparent;stroke: #E4CF37;}.links:hover{fill:#63D272; opacity:0.4;}</style><defs><g id="allt"><path id="t6678" d="M1617,1632 L1606,1632 C1595,1632 1608,1635 1600,1636 C1593,1637 1602,1631 1593,1631 L1584,1632 1584,1632 L1584,1641 C1584,1650 1593,1641 1594,1650 C1595,1659 1584,1645 1584,1654 L1584,1664 1584,1664 L1593,1664 C1603,1664 1593,1673 1602,1674 C1612,1675 1598,1664 1607,1664 L1617,1664 1617,1664 L1617,1654 C1618,1644 1615,1658 1614,1648 C1614,1638 1617,1651 1617,1641 L1617,1632"/></g><clipPath id="c" clipRule="evenodd" fill="transparent"><use href="#t6678"/></clipPath></defs><svg viewBox="1583 1630 36 46" preserveAspectRatio="xMinYMin meet"><svg width="4380" height="2430"><g><image crossorigin="anonymous" x="0" y="0" href="https://nftpuzzle.license-token.com/assets/completepuzzle.svg" width="100%" height="100%" /><g class="links"><use href="#t6678"/></g></g></svg><svg x="1604" y="1661" height="9%" width="9%" viewBox="0 0 330 330"><g><a xlink:href="https://nftpuzzle.license-token.com/" class="links"><title>See the most innovative NFT based token software licensing project</title><path fill="#E4CF37" id="more" d="M165,0C74.019,0,0,74.019,0,165s74.019,165,165,165s165-74.019,165-165S255.981,0,165,0z M85,190 c-13.785,0-25-11.215-25-25s11.215-25,25-25s25,11.215,25,25S98.785,190,85,190z M165,190c-13.785,0-25-11.215-25-25 s11.215-25,25-25s25,11.215,25,25S178.785,190,165,190z M245,190c-13.785,0-25-11.215-25-25s11.215-25,25-25 c13.785,0,25,11.215,25,25S258.785,190,245,190z"></path></a></g></svg></svg></svg>