<svg version="1.1" xmlns="http://www.w3.org/2000/svg" xmlns:xlink="http://www.w3.org/1999/xlink" fill="transparent" x="0" y="0" width="350" height="350" preserveAspectRatio="xMinYMin slice"><style type="text/css">.links{fill:transparent;stroke: #E4CF37;}.links:hover{fill:#63D272; opacity:0.4;}</style><defs><g id="allt"><path id="t6706" d="M2541,1632 L2530,1632 C2520,1632 2532,1630 2522,1629 C2513,1628 2527,1632 2517,1632 L2508,1632 2508,1632 L2507,1640 C2507,1649 2510,1640 2511,1648 C2512,1657 2507,1643 2507,1653 L2508,1664 2508,1664 L2517,1663 C2526,1663 2516,1666 2525,1667 C2534,1668 2519,1663 2530,1663 L2541,1664 2541,1664 L2540,1654 C2540,1644 2536,1655 2533,1647 C2530,1640 2541,1651 2541,1641 L2541,1632"/></g><clipPath id="c" clipRule="evenodd" fill="transparent"><use href="#t6706"/></clipPath></defs><svg viewBox="2506 1627 36 42" preserveAspectRatio="xMinYMin meet"><svg width="4380" height="2430"><g><image crossorigin="anonymous" x="0" y="0" href="https://nftpuzzle.license-token.com/assets/completepuzzle.svg" width="100%" height="100%" /><g class="links"><use href="#t6706"/></g></g></svg><svg x="2527" y="1654" height="9%" width="9%" viewBox="0 0 330 330"><g><a xlink:href="https://nftpuzzle.license-token.com/" class="links"><title>See the most innovative NFT based token software licensing project</title><path fill="#E4CF37" id="more" d="M165,0C74.019,0,0,74.019,0,165s74.019,165,165,165s165-74.019,165-165S255.981,0,165,0z M85,190 c-13.785,0-25-11.215-25-25s11.215-25,25-25s25,11.215,25,25S98.785,190,85,190z M165,190c-13.785,0-25-11.215-25-25 s11.215-25,25-25s25,11.215,25,25S178.785,190,165,190z M245,190c-13.785,0-25-11.215-25-25s11.215-25,25-25 c13.785,0,25,11.215,25,25S258.785,190,245,190z"></path></a></g></svg></svg></svg>