<svg version="1.1" xmlns="http://www.w3.org/2000/svg" xmlns:xlink="http://www.w3.org/1999/xlink" fill="transparent" x="0" y="0" width="350" height="350" preserveAspectRatio="xMinYMin slice"><style type="text/css">.links{fill:transparent;stroke: #E4CF37;}.links:hover{fill:#63D272; opacity:0.4;}</style><defs><g id="allt"><path id="t6766" d="M231,1664 L219,1665 C208,1667 224,1655 215,1655 C207,1655 219,1667 208,1665 L198,1664 198,1664 L198,1673 C199,1682 188,1671 190,1680 C192,1690 202,1676 200,1686 L198,1696 198,1696 L207,1696 C217,1697 205,1686 215,1688 C225,1690 210,1700 220,1698 L231,1696 231,1696 L229,1686 C227,1676 238,1687 238,1678 C239,1669 231,1684 231,1674 L231,1664"/></g><clipPath id="c" clipRule="evenodd" fill="transparent"><use href="#t6766"/></clipPath></defs><svg viewBox="187 1654 53 47" preserveAspectRatio="xMinYMin meet"><svg width="4380" height="2430"><g><image crossorigin="anonymous" x="0" y="0" href="https://nftpuzzle.license-token.com/assets/completepuzzle.svg" width="100%" height="100%" /><g class="links"><use href="#t6766"/></g></g></svg><svg x="225" y="1686" height="9%" width="9%" viewBox="0 0 330 330"><g><a xlink:href="https://nftpuzzle.license-token.com/" class="links"><title>See the most innovative NFT based token software licensing project</title><path fill="#E4CF37" id="more" d="M165,0C74.019,0,0,74.019,0,165s74.019,165,165,165s165-74.019,165-165S255.981,0,165,0z M85,190 c-13.785,0-25-11.215-25-25s11.215-25,25-25s25,11.215,25,25S98.785,190,85,190z M165,190c-13.785,0-25-11.215-25-25 s11.215-25,25-25s25,11.215,25,25S178.785,190,165,190z M245,190c-13.785,0-25-11.215-25-25s11.215-25,25-25 c13.785,0,25,11.215,25,25S258.785,190,245,190z"></path></a></g></svg></svg></svg>