<svg version="1.1" xmlns="http://www.w3.org/2000/svg" xmlns:xlink="http://www.w3.org/1999/xlink" fill="transparent" x="0" y="0" width="350" height="350" preserveAspectRatio="xMinYMin slice"><style type="text/css">.links{fill:transparent;stroke: #E4CF37;}.links:hover{fill:#63D272; opacity:0.4;}</style><defs><g id="allt"><path id="t6798" d="M1287,1664 L1277,1664 C1267,1664 1277,1669 1267,1670 C1258,1671 1272,1662 1263,1663 L1254,1664 1254,1664 L1253,1674 C1253,1685 1264,1669 1264,1677 C1264,1686 1252,1677 1253,1686 L1254,1696 1254,1696 L1265,1695 C1276,1695 1259,1706 1268,1706 C1277,1706 1267,1694 1277,1695 L1287,1696 1287,1696 L1287,1685 C1287,1674 1279,1690 1280,1679 C1282,1669 1290,1683 1288,1673 L1287,1664"/></g><clipPath id="c" clipRule="evenodd" fill="transparent"><use href="#t6798"/></clipPath></defs><svg viewBox="1251 1661 40 46" preserveAspectRatio="xMinYMin meet"><svg width="4380" height="2430"><g><image crossorigin="anonymous" x="0" y="0" href="https://nftpuzzle.license-token.com/assets/completepuzzle.svg" width="100%" height="100%" /><g class="links"><use href="#t6798"/></g></g></svg><svg x="1276" y="1692" height="9%" width="9%" viewBox="0 0 330 330"><g><a xlink:href="https://nftpuzzle.license-token.com/" class="links"><title>See the most innovative NFT based token software licensing project</title><path fill="#E4CF37" id="more" d="M165,0C74.019,0,0,74.019,0,165s74.019,165,165,165s165-74.019,165-165S255.981,0,165,0z M85,190 c-13.785,0-25-11.215-25-25s11.215-25,25-25s25,11.215,25,25S98.785,190,85,190z M165,190c-13.785,0-25-11.215-25-25 s11.215-25,25-25s25,11.215,25,25S178.785,190,165,190z M245,190c-13.785,0-25-11.215-25-25s11.215-25,25-25 c13.785,0,25,11.215,25,25S258.785,190,245,190z"></path></a></g></svg></svg></svg>