<svg version="1.1" xmlns="http://www.w3.org/2000/svg" xmlns:xlink="http://www.w3.org/1999/xlink" fill="transparent" x="0" y="0" width="350" height="350" preserveAspectRatio="xMinYMin slice"><style type="text/css">.links{fill:transparent;stroke: #E4CF37;}.links:hover{fill:#63D272; opacity:0.4;}</style><defs><g id="allt"><path id="t682" d="M1089,160 L1079,160 C1070,160 1079,149 1070,151 C1062,154 1077,162 1066,161 L1056,160 1056,160 L1055,170 C1054,180 1067,166 1065,174 C1063,183 1053,173 1054,182 L1056,192 1056,192 L1066,191 C1077,190 1062,202 1071,200 C1080,199 1070,189 1079,190 L1089,192 1089,192 L1088,181 C1088,171 1098,183 1096,175 C1094,167 1086,178 1087,169 L1089,160"/></g><clipPath id="c" clipRule="evenodd" fill="transparent"><use href="#t682"/></clipPath></defs><svg viewBox="1052 148 47 55" preserveAspectRatio="xMinYMin meet"><svg width="4380" height="2430"><g><image crossorigin="anonymous" x="0" y="0" href="https://nftpuzzle.license-token.com/assets/completepuzzle.svg" width="100%" height="100%" /><g class="links"><use href="#t682"/></g></g></svg><svg x="1084" y="188" height="9%" width="9%" viewBox="0 0 330 330"><g><a xlink:href="https://nftpuzzle.license-token.com/" class="links"><title>See the most innovative NFT based token software licensing project</title><path fill="#E4CF37" id="more" d="M165,0C74.019,0,0,74.019,0,165s74.019,165,165,165s165-74.019,165-165S255.981,0,165,0z M85,190 c-13.785,0-25-11.215-25-25s11.215-25,25-25s25,11.215,25,25S98.785,190,85,190z M165,190c-13.785,0-25-11.215-25-25 s11.215-25,25-25s25,11.215,25,25S178.785,190,165,190z M245,190c-13.785,0-25-11.215-25-25s11.215-25,25-25 c13.785,0,25,11.215,25,25S258.785,190,245,190z"></path></a></g></svg></svg></svg>