<svg version="1.1" xmlns="http://www.w3.org/2000/svg" xmlns:xlink="http://www.w3.org/1999/xlink" fill="transparent" x="0" y="0" width="350" height="350" preserveAspectRatio="xMinYMin slice"><style type="text/css">.links{fill:transparent;stroke: #E4CF37;}.links:hover{fill:#63D272; opacity:0.4;}</style><defs><g id="allt"><path id="t6900" d="M363,1696 L353,1695 C343,1695 355,1699 345,1701 C336,1703 350,1696 340,1696 L330,1696 330,1696 L329,1705 C329,1715 333,1705 334,1712 C335,1720 330,1709 330,1718 L330,1728 330,1728 L340,1727 C350,1727 339,1731 347,1732 C355,1733 343,1728 353,1728 L363,1728 363,1728 L363,1718 C363,1709 361,1721 361,1711 C361,1701 363,1715 363,1705 L363,1696"/></g><clipPath id="c" clipRule="evenodd" fill="transparent"><use href="#t6900"/></clipPath></defs><svg viewBox="328 1694 36 40" preserveAspectRatio="xMinYMin meet"><svg width="4380" height="2430"><g><image crossorigin="anonymous" x="0" y="0" href="https://nftpuzzle.license-token.com/assets/completepuzzle.svg" width="100%" height="100%" /><g class="links"><use href="#t6900"/></g></g></svg><svg x="349" y="1719" height="9%" width="9%" viewBox="0 0 330 330"><g><a xlink:href="https://nftpuzzle.license-token.com/" class="links"><title>See the most innovative NFT based token software licensing project</title><path fill="#E4CF37" id="more" d="M165,0C74.019,0,0,74.019,0,165s74.019,165,165,165s165-74.019,165-165S255.981,0,165,0z M85,190 c-13.785,0-25-11.215-25-25s11.215-25,25-25s25,11.215,25,25S98.785,190,85,190z M165,190c-13.785,0-25-11.215-25-25 s11.215-25,25-25s25,11.215,25,25S178.785,190,165,190z M245,190c-13.785,0-25-11.215-25-25s11.215-25,25-25 c13.785,0,25,11.215,25,25S258.785,190,245,190z"></path></a></g></svg></svg></svg>