<svg version="1.1" xmlns="http://www.w3.org/2000/svg" xmlns:xlink="http://www.w3.org/1999/xlink" fill="transparent" x="0" y="0" width="350" height="350" preserveAspectRatio="xMinYMin slice"><style type="text/css">.links{fill:transparent;stroke: #E4CF37;}.links:hover{fill:#63D272; opacity:0.4;}</style><defs><g id="allt"><path id="t6970" d="M2673,1696 L2662,1695 C2651,1694 2666,1704 2656,1705 C2646,1706 2661,1694 2650,1695 L2640,1696 2640,1696 L2640,1705 C2640,1714 2631,1703 2632,1713 C2633,1723 2642,1708 2641,1718 L2640,1728 2640,1728 L2649,1728 C2658,1728 2647,1719 2657,1720 C2668,1721 2653,1730 2663,1729 L2673,1728 2673,1728 L2673,1718 C2673,1708 2668,1722 2665,1713 C2663,1704 2678,1713 2675,1704 L2673,1696"/></g><clipPath id="c" clipRule="evenodd" fill="transparent"><use href="#t6970"/></clipPath></defs><svg viewBox="2630 1693 49 38" preserveAspectRatio="xMinYMin meet"><svg width="4380" height="2430"><g><image crossorigin="anonymous" x="0" y="0" href="https://nftpuzzle.license-token.com/assets/completepuzzle.svg" width="100%" height="100%" /><g class="links"><use href="#t6970"/></g></g></svg><svg x="2664" y="1716" height="9%" width="9%" viewBox="0 0 330 330"><g><a xlink:href="https://nftpuzzle.license-token.com/" class="links"><title>See the most innovative NFT based token software licensing project</title><path fill="#E4CF37" id="more" d="M165,0C74.019,0,0,74.019,0,165s74.019,165,165,165s165-74.019,165-165S255.981,0,165,0z M85,190 c-13.785,0-25-11.215-25-25s11.215-25,25-25s25,11.215,25,25S98.785,190,85,190z M165,190c-13.785,0-25-11.215-25-25 s11.215-25,25-25s25,11.215,25,25S178.785,190,165,190z M245,190c-13.785,0-25-11.215-25-25s11.215-25,25-25 c13.785,0,25,11.215,25,25S258.785,190,245,190z"></path></a></g></svg></svg></svg>