<svg version="1.1" xmlns="http://www.w3.org/2000/svg" xmlns:xlink="http://www.w3.org/1999/xlink" fill="transparent" x="0" y="0" width="350" height="350" preserveAspectRatio="xMinYMin slice"><style type="text/css">.links{fill:transparent;stroke: #E4CF37;}.links:hover{fill:#63D272; opacity:0.4;}</style><defs><g id="allt"><path id="t7010" d="M3993,1696 L3982,1696 C3972,1696 3983,1694 3975,1694 C3968,1694 3978,1696 3969,1696 L3960,1696 3960,1696 L3958,1705 C3957,1715 3965,1704 3965,1712 C3966,1721 3960,1710 3960,1719 L3960,1728 3960,1728 L3970,1726 C3980,1725 3968,1733 3977,1733 C3986,1734 3974,1728 3983,1728 L3993,1728 3993,1728 L3993,1718 C3993,1709 3985,1721 3984,1713 C3984,1705 3993,1715 3993,1705 L3993,1696"/></g><clipPath id="c" clipRule="evenodd" fill="transparent"><use href="#t7010"/></clipPath></defs><svg viewBox="3956 1693 38 42" preserveAspectRatio="xMinYMin meet"><svg width="4380" height="2430"><g><image crossorigin="anonymous" x="0" y="0" href="https://nftpuzzle.license-token.com/assets/completepuzzle.svg" width="100%" height="100%" /><g class="links"><use href="#t7010"/></g></g></svg><svg x="3979" y="1720" height="9%" width="9%" viewBox="0 0 330 330"><g><a xlink:href="https://nftpuzzle.license-token.com/" class="links"><title>See the most innovative NFT based token software licensing project</title><path fill="#E4CF37" id="more" d="M165,0C74.019,0,0,74.019,0,165s74.019,165,165,165s165-74.019,165-165S255.981,0,165,0z M85,190 c-13.785,0-25-11.215-25-25s11.215-25,25-25s25,11.215,25,25S98.785,190,85,190z M165,190c-13.785,0-25-11.215-25-25 s11.215-25,25-25s25,11.215,25,25S178.785,190,165,190z M245,190c-13.785,0-25-11.215-25-25s11.215-25,25-25 c13.785,0,25,11.215,25,25S258.785,190,245,190z"></path></a></g></svg></svg></svg>