<svg version="1.1" xmlns="http://www.w3.org/2000/svg" xmlns:xlink="http://www.w3.org/1999/xlink" fill="transparent" x="0" y="0" width="350" height="350" preserveAspectRatio="xMinYMin slice"><style type="text/css">.links{fill:transparent;stroke: #E4CF37;}.links:hover{fill:#63D272; opacity:0.4;}</style><defs><g id="allt"><path id="t7080" d="M2013,1728 L2001,1728 C1990,1729 2003,1725 1995,1724 C1988,1723 1999,1728 1989,1728 L1980,1728 1980,1728 L1979,1738 C1979,1748 1989,1737 1989,1745 C1989,1754 1980,1738 1980,1749 L1980,1760 1980,1760 L1990,1759 C2000,1759 1989,1769 1998,1769 C2007,1769 1991,1760 2002,1760 L2013,1760 2013,1760 L2014,1750 C2015,1740 2004,1754 2004,1744 C2004,1734 2018,1748 2015,1738 L2013,1728"/></g><clipPath id="c" clipRule="evenodd" fill="transparent"><use href="#t7080"/></clipPath></defs><svg viewBox="1978 1722 41 48" preserveAspectRatio="xMinYMin meet"><svg width="4380" height="2430"><g><image crossorigin="anonymous" x="0" y="0" href="https://nftpuzzle.license-token.com/assets/completepuzzle.svg" width="100%" height="100%" /><g class="links"><use href="#t7080"/></g></g></svg><svg x="2004" y="1755" height="9%" width="9%" viewBox="0 0 330 330"><g><a xlink:href="https://nftpuzzle.license-token.com/" class="links"><title>See the most innovative NFT based token software licensing project</title><path fill="#E4CF37" id="more" d="M165,0C74.019,0,0,74.019,0,165s74.019,165,165,165s165-74.019,165-165S255.981,0,165,0z M85,190 c-13.785,0-25-11.215-25-25s11.215-25,25-25s25,11.215,25,25S98.785,190,85,190z M165,190c-13.785,0-25-11.215-25-25 s11.215-25,25-25s25,11.215,25,25S178.785,190,165,190z M245,190c-13.785,0-25-11.215-25-25s11.215-25,25-25 c13.785,0,25,11.215,25,25S258.785,190,245,190z"></path></a></g></svg></svg></svg>