<svg version="1.1" xmlns="http://www.w3.org/2000/svg" xmlns:xlink="http://www.w3.org/1999/xlink" fill="transparent" x="0" y="0" width="350" height="350" preserveAspectRatio="xMinYMin slice"><style type="text/css">.links{fill:transparent;stroke: #E4CF37;}.links:hover{fill:#63D272; opacity:0.4;}</style><defs><g id="allt"><path id="t7206" d="M1881,1760 L1871,1761 C1861,1762 1875,1754 1866,1754 C1857,1755 1868,1762 1858,1761 L1848,1760 1848,1760 L1849,1770 C1850,1780 1839,1765 1841,1774 C1843,1783 1852,1771 1850,1781 L1848,1792 1848,1792 L1858,1793 C1868,1794 1853,1783 1862,1785 C1872,1787 1859,1796 1870,1794 L1881,1792 1881,1792 L1880,1782 C1880,1772 1883,1786 1883,1775 C1884,1765 1881,1781 1881,1770 L1881,1760"/></g><clipPath id="c" clipRule="evenodd" fill="transparent"><use href="#t7206"/></clipPath></defs><svg viewBox="1838 1753 47 44" preserveAspectRatio="xMinYMin meet"><svg width="4380" height="2430"><g><image crossorigin="anonymous" x="0" y="0" href="https://nftpuzzle.license-token.com/assets/completepuzzle.svg" width="100%" height="100%" /><g class="links"><use href="#t7206"/></g></g></svg><svg x="1870" y="1782" height="9%" width="9%" viewBox="0 0 330 330"><g><a xlink:href="https://nftpuzzle.license-token.com/" class="links"><title>See the most innovative NFT based token software licensing project</title><path fill="#E4CF37" id="more" d="M165,0C74.019,0,0,74.019,0,165s74.019,165,165,165s165-74.019,165-165S255.981,0,165,0z M85,190 c-13.785,0-25-11.215-25-25s11.215-25,25-25s25,11.215,25,25S98.785,190,85,190z M165,190c-13.785,0-25-11.215-25-25 s11.215-25,25-25s25,11.215,25,25S178.785,190,165,190z M245,190c-13.785,0-25-11.215-25-25s11.215-25,25-25 c13.785,0,25,11.215,25,25S258.785,190,245,190z"></path></a></g></svg></svg></svg>