<svg version="1.1" xmlns="http://www.w3.org/2000/svg" xmlns:xlink="http://www.w3.org/1999/xlink" fill="transparent" x="0" y="0" width="350" height="350" preserveAspectRatio="xMinYMin slice"><style type="text/css">.links{fill:transparent;stroke: #E4CF37;}.links:hover{fill:#63D272; opacity:0.4;}</style><defs><g id="allt"><path id="t7228" d="M2607,1760 L2597,1760 C2587,1761 2597,1754 2588,1753 C2579,1753 2596,1760 2585,1760 L2574,1760 2574,1760 L2574,1769 C2574,1779 2581,1765 2580,1774 C2580,1783 2571,1772 2572,1782 L2574,1792 2574,1792 L2584,1792 C2594,1792 2579,1799 2588,1798 C2598,1798 2587,1789 2597,1790 L2607,1792 2607,1792 L2608,1783 C2610,1774 2603,1785 2603,1776 C2603,1768 2607,1780 2607,1770 L2607,1760"/></g><clipPath id="c" clipRule="evenodd" fill="transparent"><use href="#t7228"/></clipPath></defs><svg viewBox="2570 1752 41 48" preserveAspectRatio="xMinYMin meet"><svg width="4380" height="2430"><g><image crossorigin="anonymous" x="0" y="0" href="https://nftpuzzle.license-token.com/assets/completepuzzle.svg" width="100%" height="100%" /><g class="links"><use href="#t7228"/></g></g></svg><svg x="2596" y="1785" height="9%" width="9%" viewBox="0 0 330 330"><g><a xlink:href="https://nftpuzzle.license-token.com/" class="links"><title>See the most innovative NFT based token software licensing project</title><path fill="#E4CF37" id="more" d="M165,0C74.019,0,0,74.019,0,165s74.019,165,165,165s165-74.019,165-165S255.981,0,165,0z M85,190 c-13.785,0-25-11.215-25-25s11.215-25,25-25s25,11.215,25,25S98.785,190,85,190z M165,190c-13.785,0-25-11.215-25-25 s11.215-25,25-25s25,11.215,25,25S178.785,190,165,190z M245,190c-13.785,0-25-11.215-25-25s11.215-25,25-25 c13.785,0,25,11.215,25,25S258.785,190,245,190z"></path></a></g></svg></svg></svg>