<svg version="1.1" xmlns="http://www.w3.org/2000/svg" xmlns:xlink="http://www.w3.org/1999/xlink" fill="transparent" x="0" y="0" width="350" height="350" preserveAspectRatio="xMinYMin slice"><style type="text/css">.links{fill:transparent;stroke: #E4CF37;}.links:hover{fill:#63D272; opacity:0.4;}</style><defs><g id="allt"><path id="t7244" d="M3135,1760 L3125,1761 C3115,1763 3126,1756 3116,1754 C3106,1752 3121,1761 3111,1760 L3102,1760 3102,1760 L3102,1769 C3102,1779 3094,1766 3093,1776 C3093,1786 3102,1771 3102,1781 L3102,1792 3102,1792 L3112,1792 C3122,1792 3108,1784 3118,1783 C3129,1783 3114,1792 3124,1792 L3135,1792 3135,1792 L3135,1781 C3136,1771 3133,1784 3131,1775 C3130,1767 3135,1781 3135,1770 L3135,1760"/></g><clipPath id="c" clipRule="evenodd" fill="transparent"><use href="#t7244"/></clipPath></defs><svg viewBox="3092 1751 45 42" preserveAspectRatio="xMinYMin meet"><svg width="4380" height="2430"><g><image crossorigin="anonymous" x="0" y="0" href="https://nftpuzzle.license-token.com/assets/completepuzzle.svg" width="100%" height="100%" /><g class="links"><use href="#t7244"/></g></g></svg><svg x="3122" y="1778" height="9%" width="9%" viewBox="0 0 330 330"><g><a xlink:href="https://nftpuzzle.license-token.com/" class="links"><title>See the most innovative NFT based token software licensing project</title><path fill="#E4CF37" id="more" d="M165,0C74.019,0,0,74.019,0,165s74.019,165,165,165s165-74.019,165-165S255.981,0,165,0z M85,190 c-13.785,0-25-11.215-25-25s11.215-25,25-25s25,11.215,25,25S98.785,190,85,190z M165,190c-13.785,0-25-11.215-25-25 s11.215-25,25-25s25,11.215,25,25S178.785,190,165,190z M245,190c-13.785,0-25-11.215-25-25s11.215-25,25-25 c13.785,0,25,11.215,25,25S258.785,190,245,190z"></path></a></g></svg></svg></svg>