<svg version="1.1" xmlns="http://www.w3.org/2000/svg" xmlns:xlink="http://www.w3.org/1999/xlink" fill="transparent" x="0" y="0" width="350" height="350" preserveAspectRatio="xMinYMin slice"><style type="text/css">.links{fill:transparent;stroke: #E4CF37;}.links:hover{fill:#63D272; opacity:0.4;}</style><defs><g id="allt"><path id="t7296" d="M561,1792 L551,1792 C541,1793 551,1784 543,1784 C535,1784 546,1792 537,1792 L528,1792 528,1792 L526,1801 C525,1811 536,1798 535,1807 C535,1816 528,1805 528,1814 L528,1824 528,1824 L538,1822 C548,1821 534,1832 543,1831 C553,1831 541,1824 551,1824 L561,1824 561,1824 L558,1815 C555,1806 570,1816 570,1808 C571,1800 557,1811 559,1801 L561,1792"/></g><clipPath id="c" clipRule="evenodd" fill="transparent"><use href="#t7296"/></clipPath></defs><svg viewBox="524 1783 48 50" preserveAspectRatio="xMinYMin meet"><svg width="4380" height="2430"><g><image crossorigin="anonymous" x="0" y="0" href="https://nftpuzzle.license-token.com/assets/completepuzzle.svg" width="100%" height="100%" /><g class="links"><use href="#t7296"/></g></g></svg><svg x="557" y="1818" height="9%" width="9%" viewBox="0 0 330 330"><g><a xlink:href="https://nftpuzzle.license-token.com/" class="links"><title>See the most innovative NFT based token software licensing project</title><path fill="#E4CF37" id="more" d="M165,0C74.019,0,0,74.019,0,165s74.019,165,165,165s165-74.019,165-165S255.981,0,165,0z M85,190 c-13.785,0-25-11.215-25-25s11.215-25,25-25s25,11.215,25,25S98.785,190,85,190z M165,190c-13.785,0-25-11.215-25-25 s11.215-25,25-25s25,11.215,25,25S178.785,190,165,190z M245,190c-13.785,0-25-11.215-25-25s11.215-25,25-25 c13.785,0,25,11.215,25,25S258.785,190,245,190z"></path></a></g></svg></svg></svg>