<svg version="1.1" xmlns="http://www.w3.org/2000/svg" xmlns:xlink="http://www.w3.org/1999/xlink" fill="transparent" x="0" y="0" width="350" height="350" preserveAspectRatio="xMinYMin slice"><style type="text/css">.links{fill:transparent;stroke: #E4CF37;}.links:hover{fill:#63D272; opacity:0.4;}</style><defs><g id="allt"><path id="t7488" d="M2607,1824 L2597,1824 C2588,1824 2600,1819 2590,1820 C2581,1822 2595,1824 2584,1824 L2574,1824 2574,1824 L2574,1834 C2574,1844 2571,1832 2571,1841 C2572,1851 2574,1836 2574,1846 L2574,1856 2574,1856 L2584,1856 C2595,1856 2582,1853 2592,1853 C2602,1854 2587,1856 2597,1856 L2607,1856 2607,1856 L2608,1845 C2610,1835 2599,1848 2598,1839 C2597,1830 2607,1844 2607,1834 L2607,1824"/></g><clipPath id="c" clipRule="evenodd" fill="transparent"><use href="#t7488"/></clipPath></defs><svg viewBox="2570 1818 41 39" preserveAspectRatio="xMinYMin meet"><svg width="4380" height="2430"><g><image crossorigin="anonymous" x="0" y="0" href="https://nftpuzzle.license-token.com/assets/completepuzzle.svg" width="100%" height="100%" /><g class="links"><use href="#t7488"/></g></g></svg><svg x="2596" y="1842" height="9%" width="9%" viewBox="0 0 330 330"><g><a xlink:href="https://nftpuzzle.license-token.com/" class="links"><title>See the most innovative NFT based token software licensing project</title><path fill="#E4CF37" id="more" d="M165,0C74.019,0,0,74.019,0,165s74.019,165,165,165s165-74.019,165-165S255.981,0,165,0z M85,190 c-13.785,0-25-11.215-25-25s11.215-25,25-25s25,11.215,25,25S98.785,190,85,190z M165,190c-13.785,0-25-11.215-25-25 s11.215-25,25-25s25,11.215,25,25S178.785,190,165,190z M245,190c-13.785,0-25-11.215-25-25s11.215-25,25-25 c13.785,0,25,11.215,25,25S258.785,190,245,190z"></path></a></g></svg></svg></svg>