<svg version="1.1" xmlns="http://www.w3.org/2000/svg" xmlns:xlink="http://www.w3.org/1999/xlink" fill="transparent" x="0" y="0" width="350" height="350" preserveAspectRatio="xMinYMin slice"><style type="text/css">.links{fill:transparent;stroke: #E4CF37;}.links:hover{fill:#63D272; opacity:0.4;}</style><defs><g id="allt"><path id="t7610" d="M2343,1856 L2332,1856 C2321,1856 2334,1859 2324,1860 C2315,1861 2329,1856 2319,1856 L2310,1856 2310,1856 L2309,1865 C2309,1874 2316,1864 2315,1872 C2314,1880 2308,1866 2309,1877 L2310,1888 2310,1888 L2319,1887 C2329,1887 2318,1894 2326,1893 C2335,1892 2320,1886 2331,1887 L2343,1888 2343,1888 L2341,1878 C2340,1868 2352,1879 2350,1869 C2348,1860 2342,1874 2342,1865 L2343,1856"/></g><clipPath id="c" clipRule="evenodd" fill="transparent"><use href="#t7610"/></clipPath></defs><svg viewBox="2307 1855 46 40" preserveAspectRatio="xMinYMin meet"><svg width="4380" height="2430"><g><image crossorigin="anonymous" x="0" y="0" href="https://nftpuzzle.license-token.com/assets/completepuzzle.svg" width="100%" height="100%" /><g class="links"><use href="#t7610"/></g></g></svg><svg x="2338" y="1880" height="9%" width="9%" viewBox="0 0 330 330"><g><a xlink:href="https://nftpuzzle.license-token.com/" class="links"><title>See the most innovative NFT based token software licensing project</title><path fill="#E4CF37" id="more" d="M165,0C74.019,0,0,74.019,0,165s74.019,165,165,165s165-74.019,165-165S255.981,0,165,0z M85,190 c-13.785,0-25-11.215-25-25s11.215-25,25-25s25,11.215,25,25S98.785,190,85,190z M165,190c-13.785,0-25-11.215-25-25 s11.215-25,25-25s25,11.215,25,25S178.785,190,165,190z M245,190c-13.785,0-25-11.215-25-25s11.215-25,25-25 c13.785,0,25,11.215,25,25S258.785,190,245,190z"></path></a></g></svg></svg></svg>