<svg version="1.1" xmlns="http://www.w3.org/2000/svg" xmlns:xlink="http://www.w3.org/1999/xlink" fill="transparent" x="0" y="0" width="350" height="350" preserveAspectRatio="xMinYMin slice"><style type="text/css">.links{fill:transparent;stroke: #E4CF37;}.links:hover{fill:#63D272; opacity:0.4;}</style><defs><g id="allt"><path id="t7632" d="M3069,1856 L3059,1856 C3050,1856 3059,1860 3052,1859 C3045,1859 3054,1854 3045,1855 L3036,1856 3036,1856 L3038,1866 C3040,1876 3028,1861 3029,1870 C3030,1880 3040,1869 3038,1878 L3036,1888 3036,1888 L3046,1890 C3056,1892 3041,1880 3050,1881 C3060,1882 3049,1892 3059,1890 L3069,1888 3069,1888 L3069,1878 C3069,1868 3062,1880 3062,1871 C3063,1863 3073,1877 3071,1866 L3069,1856"/></g><clipPath id="c" clipRule="evenodd" fill="transparent"><use href="#t7632"/></clipPath></defs><svg viewBox="3027 1853 47 40" preserveAspectRatio="xMinYMin meet"><svg width="4380" height="2430"><g><image crossorigin="anonymous" x="0" y="0" href="https://nftpuzzle.license-token.com/assets/completepuzzle.svg" width="100%" height="100%" /><g class="links"><use href="#t7632"/></g></g></svg><svg x="3059" y="1878" height="9%" width="9%" viewBox="0 0 330 330"><g><a xlink:href="https://nftpuzzle.license-token.com/" class="links"><title>See the most innovative NFT based token software licensing project</title><path fill="#E4CF37" id="more" d="M165,0C74.019,0,0,74.019,0,165s74.019,165,165,165s165-74.019,165-165S255.981,0,165,0z M85,190 c-13.785,0-25-11.215-25-25s11.215-25,25-25s25,11.215,25,25S98.785,190,85,190z M165,190c-13.785,0-25-11.215-25-25 s11.215-25,25-25s25,11.215,25,25S178.785,190,165,190z M245,190c-13.785,0-25-11.215-25-25s11.215-25,25-25 c13.785,0,25,11.215,25,25S258.785,190,245,190z"></path></a></g></svg></svg></svg>