<svg version="1.1" xmlns="http://www.w3.org/2000/svg" xmlns:xlink="http://www.w3.org/1999/xlink" fill="transparent" x="0" y="0" width="350" height="350" preserveAspectRatio="xMinYMin slice"><style type="text/css">.links{fill:transparent;stroke: #E4CF37;}.links:hover{fill:#63D272; opacity:0.4;}</style><defs><g id="allt"><path id="t7702" d="M1089,1888 L1078,1887 C1068,1887 1082,1893 1073,1893 C1064,1893 1074,1886 1065,1887 L1056,1888 1056,1888 L1056,1898 C1057,1908 1048,1896 1047,1904 C1046,1912 1060,1901 1058,1910 L1056,1920 1056,1920 L1066,1920 C1076,1921 1064,1912 1072,1911 C1081,1910 1069,1924 1079,1922 L1089,1920 1089,1920 L1090,1911 C1091,1902 1084,1911 1084,1902 C1085,1893 1092,1907 1090,1897 L1089,1888"/></g><clipPath id="c" clipRule="evenodd" fill="transparent"><use href="#t7702"/></clipPath></defs><svg viewBox="1045 1885 48 40" preserveAspectRatio="xMinYMin meet"><svg width="4380" height="2430"><g><image crossorigin="anonymous" x="0" y="0" href="https://nftpuzzle.license-token.com/assets/completepuzzle.svg" width="100%" height="100%" /><g class="links"><use href="#t7702"/></g></g></svg><svg x="1078" y="1910" height="9%" width="9%" viewBox="0 0 330 330"><g><a xlink:href="https://nftpuzzle.license-token.com/" class="links"><title>See the most innovative NFT based token software licensing project</title><path fill="#E4CF37" id="more" d="M165,0C74.019,0,0,74.019,0,165s74.019,165,165,165s165-74.019,165-165S255.981,0,165,0z M85,190 c-13.785,0-25-11.215-25-25s11.215-25,25-25s25,11.215,25,25S98.785,190,85,190z M165,190c-13.785,0-25-11.215-25-25 s11.215-25,25-25s25,11.215,25,25S178.785,190,165,190z M245,190c-13.785,0-25-11.215-25-25s11.215-25,25-25 c13.785,0,25,11.215,25,25S258.785,190,245,190z"></path></a></g></svg></svg></svg>