<svg version="1.1" xmlns="http://www.w3.org/2000/svg" xmlns:xlink="http://www.w3.org/1999/xlink" fill="transparent" x="0" y="0" width="350" height="350" preserveAspectRatio="xMinYMin slice"><style type="text/css">.links{fill:transparent;stroke: #E4CF37;}.links:hover{fill:#63D272; opacity:0.4;}</style><defs><g id="allt"><path id="t7704" d="M1155,1888 L1145,1889 C1135,1891 1149,1877 1137,1877 C1126,1877 1140,1889 1131,1888 L1122,1888 1122,1888 L1122,1898 C1122,1909 1118,1895 1118,1902 C1118,1910 1122,1900 1122,1910 L1122,1920 1122,1920 L1132,1920 C1143,1920 1129,1916 1137,1916 C1145,1916 1134,1920 1144,1920 L1155,1920 1155,1920 L1156,1909 C1157,1898 1146,1911 1148,1904 C1150,1897 1155,1905 1155,1896 L1155,1888"/></g><clipPath id="c" clipRule="evenodd" fill="transparent"><use href="#t7704"/></clipPath></defs><svg viewBox="1117 1876 41 45" preserveAspectRatio="xMinYMin meet"><svg width="4380" height="2430"><g><image crossorigin="anonymous" x="0" y="0" href="https://nftpuzzle.license-token.com/assets/completepuzzle.svg" width="100%" height="100%" /><g class="links"><use href="#t7704"/></g></g></svg><svg x="1143" y="1906" height="9%" width="9%" viewBox="0 0 330 330"><g><a xlink:href="https://nftpuzzle.license-token.com/" class="links"><title>See the most innovative NFT based token software licensing project</title><path fill="#E4CF37" id="more" d="M165,0C74.019,0,0,74.019,0,165s74.019,165,165,165s165-74.019,165-165S255.981,0,165,0z M85,190 c-13.785,0-25-11.215-25-25s11.215-25,25-25s25,11.215,25,25S98.785,190,85,190z M165,190c-13.785,0-25-11.215-25-25 s11.215-25,25-25s25,11.215,25,25S178.785,190,165,190z M245,190c-13.785,0-25-11.215-25-25s11.215-25,25-25 c13.785,0,25,11.215,25,25S258.785,190,245,190z"></path></a></g></svg></svg></svg>