<svg version="1.1" xmlns="http://www.w3.org/2000/svg" xmlns:xlink="http://www.w3.org/1999/xlink" fill="transparent" x="0" y="0" width="350" height="350" preserveAspectRatio="xMinYMin slice"><style type="text/css">.links{fill:transparent;stroke: #E4CF37;}.links:hover{fill:#63D272; opacity:0.4;}</style><defs><g id="allt"><path id="t7742" d="M2409,1888 L2398,1889 C2387,1890 2403,1883 2393,1881 C2384,1879 2394,1888 2385,1888 L2376,1888 2376,1888 L2376,1897 C2376,1907 2366,1895 2367,1903 C2369,1911 2377,1901 2376,1910 L2376,1920 2376,1920 L2386,1920 C2396,1920 2383,1910 2391,1911 C2400,1913 2390,1921 2399,1920 L2409,1920 2409,1920 L2409,1910 C2410,1900 2405,1914 2406,1904 C2407,1894 2409,1907 2409,1897 L2409,1888"/></g><clipPath id="c" clipRule="evenodd" fill="transparent"><use href="#t7742"/></clipPath></defs><svg viewBox="2365 1878 46 44" preserveAspectRatio="xMinYMin meet"><svg width="4380" height="2430"><g><image crossorigin="anonymous" x="0" y="0" href="https://nftpuzzle.license-token.com/assets/completepuzzle.svg" width="100%" height="100%" /><g class="links"><use href="#t7742"/></g></g></svg><svg x="2396" y="1907" height="9%" width="9%" viewBox="0 0 330 330"><g><a xlink:href="https://nftpuzzle.license-token.com/" class="links"><title>See the most innovative NFT based token software licensing project</title><path fill="#E4CF37" id="more" d="M165,0C74.019,0,0,74.019,0,165s74.019,165,165,165s165-74.019,165-165S255.981,0,165,0z M85,190 c-13.785,0-25-11.215-25-25s11.215-25,25-25s25,11.215,25,25S98.785,190,85,190z M165,190c-13.785,0-25-11.215-25-25 s11.215-25,25-25s25,11.215,25,25S178.785,190,165,190z M245,190c-13.785,0-25-11.215-25-25s11.215-25,25-25 c13.785,0,25,11.215,25,25S258.785,190,245,190z"></path></a></g></svg></svg></svg>