<svg version="1.1" xmlns="http://www.w3.org/2000/svg" xmlns:xlink="http://www.w3.org/1999/xlink" fill="transparent" x="0" y="0" width="350" height="350" preserveAspectRatio="xMinYMin slice"><style type="text/css">.links{fill:transparent;stroke: #E4CF37;}.links:hover{fill:#63D272; opacity:0.4;}</style><defs><g id="allt"><path id="t7782" d="M3729,1888 L3719,1888 C3709,1888 3722,1891 3712,1892 C3703,1894 3714,1888 3705,1888 L3696,1888 3696,1888 L3697,1897 C3699,1906 3691,1893 3690,1902 C3690,1911 3696,1899 3696,1909 L3696,1920 3696,1920 L3705,1921 C3714,1923 3701,1915 3710,1914 C3719,1914 3707,1920 3718,1920 L3729,1920 3729,1920 L3729,1911 C3730,1902 3719,1910 3721,1902 C3724,1894 3729,1906 3729,1897 L3729,1888"/></g><clipPath id="c" clipRule="evenodd" fill="transparent"><use href="#t7782"/></clipPath></defs><svg viewBox="3689 1887 42 37" preserveAspectRatio="xMinYMin meet"><svg width="4380" height="2430"><g><image crossorigin="anonymous" x="0" y="0" href="https://nftpuzzle.license-token.com/assets/completepuzzle.svg" width="100%" height="100%" /><g class="links"><use href="#t7782"/></g></g></svg><svg x="3716" y="1909" height="9%" width="9%" viewBox="0 0 330 330"><g><a xlink:href="https://nftpuzzle.license-token.com/" class="links"><title>See the most innovative NFT based token software licensing project</title><path fill="#E4CF37" id="more" d="M165,0C74.019,0,0,74.019,0,165s74.019,165,165,165s165-74.019,165-165S255.981,0,165,0z M85,190 c-13.785,0-25-11.215-25-25s11.215-25,25-25s25,11.215,25,25S98.785,190,85,190z M165,190c-13.785,0-25-11.215-25-25 s11.215-25,25-25s25,11.215,25,25S178.785,190,165,190z M245,190c-13.785,0-25-11.215-25-25s11.215-25,25-25 c13.785,0,25,11.215,25,25S258.785,190,245,190z"></path></a></g></svg></svg></svg>