<svg version="1.1" xmlns="http://www.w3.org/2000/svg" xmlns:xlink="http://www.w3.org/1999/xlink" fill="transparent" x="0" y="0" width="350" height="350" preserveAspectRatio="xMinYMin slice"><style type="text/css">.links{fill:transparent;stroke: #E4CF37;}.links:hover{fill:#63D272; opacity:0.4;}</style><defs><g id="allt"><path id="t7962" d="M1089,1952 L1078,1952 C1067,1953 1081,1962 1072,1961 C1064,1961 1074,1947 1065,1949 L1056,1952 1056,1952 L1056,1960 C1056,1969 1047,1957 1048,1966 C1050,1975 1056,1965 1056,1974 L1056,1984 1056,1984 L1065,1984 C1074,1984 1061,1975 1070,1976 C1080,1978 1069,1984 1079,1984 L1089,1984 1089,1984 L1090,1973 C1091,1963 1083,1978 1082,1969 C1081,1960 1089,1972 1089,1962 L1089,1952"/></g><clipPath id="c" clipRule="evenodd" fill="transparent"><use href="#t7962"/></clipPath></defs><svg viewBox="1046 1946 46 39" preserveAspectRatio="xMinYMin meet"><svg width="4380" height="2430"><g><image crossorigin="anonymous" x="0" y="0" href="https://nftpuzzle.license-token.com/assets/completepuzzle.svg" width="100%" height="100%" /><g class="links"><use href="#t7962"/></g></g></svg><svg x="1077" y="1970" height="9%" width="9%" viewBox="0 0 330 330"><g><a xlink:href="https://nftpuzzle.license-token.com/" class="links"><title>See the most innovative NFT based token software licensing project</title><path fill="#E4CF37" id="more" d="M165,0C74.019,0,0,74.019,0,165s74.019,165,165,165s165-74.019,165-165S255.981,0,165,0z M85,190 c-13.785,0-25-11.215-25-25s11.215-25,25-25s25,11.215,25,25S98.785,190,85,190z M165,190c-13.785,0-25-11.215-25-25 s11.215-25,25-25s25,11.215,25,25S178.785,190,165,190z M245,190c-13.785,0-25-11.215-25-25s11.215-25,25-25 c13.785,0,25,11.215,25,25S258.785,190,245,190z"></path></a></g></svg></svg></svg>