<svg version="1.1" xmlns="http://www.w3.org/2000/svg" xmlns:xlink="http://www.w3.org/1999/xlink" fill="transparent" x="0" y="0" width="350" height="350" preserveAspectRatio="xMinYMin slice"><style type="text/css">.links{fill:transparent;stroke: #E4CF37;}.links:hover{fill:#63D272; opacity:0.4;}</style><defs><g id="allt"><path id="t7966" d="M1221,1952 L1210,1953 C1199,1954 1215,1945 1204,1945 C1194,1945 1207,1954 1197,1953 L1188,1952 1188,1952 L1187,1962 C1187,1973 1192,1959 1192,1967 C1192,1976 1187,1965 1187,1974 L1188,1984 1188,1984 L1199,1983 C1210,1983 1195,1988 1204,1988 C1213,1988 1202,1983 1211,1983 L1221,1984 1221,1984 L1222,1973 C1224,1962 1216,1975 1215,1967 C1214,1960 1221,1972 1221,1962 L1221,1952"/></g><clipPath id="c" clipRule="evenodd" fill="transparent"><use href="#t7966"/></clipPath></defs><svg viewBox="1186 1944 39 45" preserveAspectRatio="xMinYMin meet"><svg width="4380" height="2430"><g><image crossorigin="anonymous" x="0" y="0" href="https://nftpuzzle.license-token.com/assets/completepuzzle.svg" width="100%" height="100%" /><g class="links"><use href="#t7966"/></g></g></svg><svg x="1210" y="1974" height="9%" width="9%" viewBox="0 0 330 330"><g><a xlink:href="https://nftpuzzle.license-token.com/" class="links"><title>See the most innovative NFT based token software licensing project</title><path fill="#E4CF37" id="more" d="M165,0C74.019,0,0,74.019,0,165s74.019,165,165,165s165-74.019,165-165S255.981,0,165,0z M85,190 c-13.785,0-25-11.215-25-25s11.215-25,25-25s25,11.215,25,25S98.785,190,85,190z M165,190c-13.785,0-25-11.215-25-25 s11.215-25,25-25s25,11.215,25,25S178.785,190,165,190z M245,190c-13.785,0-25-11.215-25-25s11.215-25,25-25 c13.785,0,25,11.215,25,25S258.785,190,245,190z"></path></a></g></svg></svg></svg>