<svg version="1.1" xmlns="http://www.w3.org/2000/svg" xmlns:xlink="http://www.w3.org/1999/xlink" fill="transparent" x="0" y="0" width="350" height="350" preserveAspectRatio="xMinYMin slice"><style type="text/css">.links{fill:transparent;stroke: #E4CF37;}.links:hover{fill:#63D272; opacity:0.4;}</style><defs><g id="allt"><path id="t7980" d="M1683,1952 L1673,1952 C1664,1952 1674,1944 1665,1944 C1656,1944 1671,1952 1660,1952 L1650,1952 1650,1952 L1651,1961 C1652,1971 1644,1960 1644,1967 C1645,1974 1650,1965 1650,1974 L1650,1984 1650,1984 L1660,1985 C1670,1986 1659,1978 1666,1978 C1673,1979 1664,1984 1673,1984 L1683,1984 1683,1984 L1683,1974 C1683,1964 1680,1976 1679,1968 C1679,1961 1684,1973 1683,1962 L1683,1952"/></g><clipPath id="c" clipRule="evenodd" fill="transparent"><use href="#t7980"/></clipPath></defs><svg viewBox="1643 1943 42 44" preserveAspectRatio="xMinYMin meet"><svg width="4380" height="2430"><g><image crossorigin="anonymous" x="0" y="0" href="https://nftpuzzle.license-token.com/assets/completepuzzle.svg" width="100%" height="100%" /><g class="links"><use href="#t7980"/></g></g></svg><svg x="1670" y="1972" height="9%" width="9%" viewBox="0 0 330 330"><g><a xlink:href="https://nftpuzzle.license-token.com/" class="links"><title>See the most innovative NFT based token software licensing project</title><path fill="#E4CF37" id="more" d="M165,0C74.019,0,0,74.019,0,165s74.019,165,165,165s165-74.019,165-165S255.981,0,165,0z M85,190 c-13.785,0-25-11.215-25-25s11.215-25,25-25s25,11.215,25,25S98.785,190,85,190z M165,190c-13.785,0-25-11.215-25-25 s11.215-25,25-25s25,11.215,25,25S178.785,190,165,190z M245,190c-13.785,0-25-11.215-25-25s11.215-25,25-25 c13.785,0,25,11.215,25,25S258.785,190,245,190z"></path></a></g></svg></svg></svg>