<svg version="1.1" xmlns="http://www.w3.org/2000/svg" xmlns:xlink="http://www.w3.org/1999/xlink" fill="transparent" x="0" y="0" width="350" height="350" preserveAspectRatio="xMinYMin slice"><style type="text/css">.links{fill:transparent;stroke: #E4CF37;}.links:hover{fill:#63D272; opacity:0.4;}</style><defs><g id="allt"><path id="t8024" d="M3135,1952 L3123,1953 C3112,1954 3126,1945 3118,1944 C3110,1944 3121,1955 3111,1953 L3102,1952 3102,1952 L3102,1961 C3103,1970 3099,1957 3099,1966 C3100,1975 3103,1965 3102,1974 L3102,1984 3102,1984 L3111,1984 C3120,1985 3107,1981 3116,1981 C3126,1982 3115,1985 3125,1984 L3135,1984 3135,1984 L3135,1974 C3135,1964 3142,1974 3141,1966 C3140,1959 3135,1973 3135,1962 L3135,1952"/></g><clipPath id="c" clipRule="evenodd" fill="transparent"><use href="#t8024"/></clipPath></defs><svg viewBox="3098 1943 45 43" preserveAspectRatio="xMinYMin meet"><svg width="4380" height="2430"><g><image crossorigin="anonymous" x="0" y="0" href="https://nftpuzzle.license-token.com/assets/completepuzzle.svg" width="100%" height="100%" /><g class="links"><use href="#t8024"/></g></g></svg><svg x="3128" y="1971" height="9%" width="9%" viewBox="0 0 330 330"><g><a xlink:href="https://nftpuzzle.license-token.com/" class="links"><title>See the most innovative NFT based token software licensing project</title><path fill="#E4CF37" id="more" d="M165,0C74.019,0,0,74.019,0,165s74.019,165,165,165s165-74.019,165-165S255.981,0,165,0z M85,190 c-13.785,0-25-11.215-25-25s11.215-25,25-25s25,11.215,25,25S98.785,190,85,190z M165,190c-13.785,0-25-11.215-25-25 s11.215-25,25-25s25,11.215,25,25S178.785,190,165,190z M245,190c-13.785,0-25-11.215-25-25s11.215-25,25-25 c13.785,0,25,11.215,25,25S258.785,190,245,190z"></path></a></g></svg></svg></svg>