<svg version="1.1" xmlns="http://www.w3.org/2000/svg" xmlns:xlink="http://www.w3.org/1999/xlink" fill="transparent" x="0" y="0" width="350" height="350" preserveAspectRatio="xMinYMin slice"><style type="text/css">.links{fill:transparent;stroke: #E4CF37;}.links:hover{fill:#63D272; opacity:0.4;}</style><defs><g id="allt"><path id="t8120" d="M2013,1984 L2002,1985 C1991,1986 2008,1977 1998,1978 C1988,1979 2000,1985 1990,1984 L1980,1984 1980,1984 L1980,1994 C1980,2004 1986,1992 1985,2000 C1985,2008 1979,1995 1979,2005 L1980,2016 1980,2016 L1990,2016 C2001,2016 1989,2022 1996,2021 C2004,2021 1991,2015 2002,2015 L2013,2016 2013,2016 L2013,2007 C2013,1998 2019,2008 2019,1998 C2019,1989 2009,2003 2011,1993 L2013,1984"/></g><clipPath id="c" clipRule="evenodd" fill="transparent"><use href="#t8120"/></clipPath></defs><svg viewBox="1978 1976 42 47" preserveAspectRatio="xMinYMin meet"><svg width="4380" height="2430"><g><image crossorigin="anonymous" x="0" y="0" href="https://nftpuzzle.license-token.com/assets/completepuzzle.svg" width="100%" height="100%" /><g class="links"><use href="#t8120"/></g></g></svg><svg x="2005" y="2008" height="9%" width="9%" viewBox="0 0 330 330"><g><a xlink:href="https://nftpuzzle.license-token.com/" class="links"><title>See the most innovative NFT based token software licensing project</title><path fill="#E4CF37" id="more" d="M165,0C74.019,0,0,74.019,0,165s74.019,165,165,165s165-74.019,165-165S255.981,0,165,0z M85,190 c-13.785,0-25-11.215-25-25s11.215-25,25-25s25,11.215,25,25S98.785,190,85,190z M165,190c-13.785,0-25-11.215-25-25 s11.215-25,25-25s25,11.215,25,25S178.785,190,165,190z M245,190c-13.785,0-25-11.215-25-25s11.215-25,25-25 c13.785,0,25,11.215,25,25S258.785,190,245,190z"></path></a></g></svg></svg></svg>