<svg version="1.1" xmlns="http://www.w3.org/2000/svg" xmlns:xlink="http://www.w3.org/1999/xlink" fill="transparent" x="0" y="0" width="350" height="350" preserveAspectRatio="xMinYMin slice"><style type="text/css">.links{fill:transparent;stroke: #E4CF37;}.links:hover{fill:#63D272; opacity:0.4;}</style><defs><g id="allt"><path id="t8176" d="M3861,1984 L3851,1985 C3841,1986 3856,1981 3844,1979 C3833,1977 3848,1987 3838,1985 L3828,1984 3828,1984 L3827,1994 C3827,2004 3833,1989 3833,1998 C3833,2007 3825,1997 3826,2006 L3828,2016 3828,2016 L3838,2015 C3848,2015 3833,2021 3842,2021 C3852,2021 3841,2013 3851,2014 L3861,2016 3861,2016 L3861,2005 C3861,1995 3868,2007 3867,1998 C3866,1989 3859,2003 3860,1993 L3861,1984"/></g><clipPath id="c" clipRule="evenodd" fill="transparent"><use href="#t8176"/></clipPath></defs><svg viewBox="3824 1976 45 46" preserveAspectRatio="xMinYMin meet"><svg width="4380" height="2430"><g><image crossorigin="anonymous" x="0" y="0" href="https://nftpuzzle.license-token.com/assets/completepuzzle.svg" width="100%" height="100%" /><g class="links"><use href="#t8176"/></g></g></svg><svg x="3854" y="2007" height="9%" width="9%" viewBox="0 0 330 330"><g><a xlink:href="https://nftpuzzle.license-token.com/" class="links"><title>See the most innovative NFT based token software licensing project</title><path fill="#E4CF37" id="more" d="M165,0C74.019,0,0,74.019,0,165s74.019,165,165,165s165-74.019,165-165S255.981,0,165,0z M85,190 c-13.785,0-25-11.215-25-25s11.215-25,25-25s25,11.215,25,25S98.785,190,85,190z M165,190c-13.785,0-25-11.215-25-25 s11.215-25,25-25s25,11.215,25,25S178.785,190,165,190z M245,190c-13.785,0-25-11.215-25-25s11.215-25,25-25 c13.785,0,25,11.215,25,25S258.785,190,245,190z"></path></a></g></svg></svg></svg>