<svg version="1.1" xmlns="http://www.w3.org/2000/svg" xmlns:xlink="http://www.w3.org/1999/xlink" fill="transparent" x="0" y="0" width="350" height="350" preserveAspectRatio="xMinYMin slice"><style type="text/css">.links{fill:transparent;stroke: #E4CF37;}.links:hover{fill:#63D272; opacity:0.4;}</style><defs><g id="allt"><path id="t8224" d="M1155,2016 L1144,2016 C1134,2017 1150,2014 1139,2012 C1128,2011 1140,2016 1131,2016 L1122,2016 1122,2016 L1124,2025 C1126,2034 1113,2021 1113,2030 C1113,2040 1122,2029 1122,2038 L1122,2048 1122,2048 L1131,2050 C1140,2052 1127,2040 1137,2039 C1147,2039 1135,2048 1145,2048 L1155,2048 1155,2048 L1156,2038 C1158,2028 1151,2039 1150,2031 C1149,2024 1158,2035 1156,2025 L1155,2016"/></g><clipPath id="c" clipRule="evenodd" fill="transparent"><use href="#t8224"/></clipPath></defs><svg viewBox="1112 2010 47 43" preserveAspectRatio="xMinYMin meet"><svg width="4380" height="2430"><g><image crossorigin="anonymous" x="0" y="0" href="https://nftpuzzle.license-token.com/assets/completepuzzle.svg" width="100%" height="100%" /><g class="links"><use href="#t8224"/></g></g></svg><svg x="1144" y="2038" height="9%" width="9%" viewBox="0 0 330 330"><g><a xlink:href="https://nftpuzzle.license-token.com/" class="links"><title>See the most innovative NFT based token software licensing project</title><path fill="#E4CF37" id="more" d="M165,0C74.019,0,0,74.019,0,165s74.019,165,165,165s165-74.019,165-165S255.981,0,165,0z M85,190 c-13.785,0-25-11.215-25-25s11.215-25,25-25s25,11.215,25,25S98.785,190,85,190z M165,190c-13.785,0-25-11.215-25-25 s11.215-25,25-25s25,11.215,25,25S178.785,190,165,190z M245,190c-13.785,0-25-11.215-25-25s11.215-25,25-25 c13.785,0,25,11.215,25,25S258.785,190,245,190z"></path></a></g></svg></svg></svg>