<svg version="1.1" xmlns="http://www.w3.org/2000/svg" xmlns:xlink="http://www.w3.org/1999/xlink" fill="transparent" x="0" y="0" width="350" height="350" preserveAspectRatio="xMinYMin slice"><style type="text/css">.links{fill:transparent;stroke: #E4CF37;}.links:hover{fill:#63D272; opacity:0.4;}</style><defs><g id="allt"><path id="t8240" d="M1683,2016 L1672,2018 C1661,2021 1675,2008 1666,2009 C1658,2010 1669,2016 1659,2016 L1650,2016 1650,2016 L1651,2026 C1652,2037 1646,2025 1644,2032 C1643,2040 1650,2027 1650,2037 L1650,2048 1650,2048 L1660,2049 C1671,2050 1659,2044 1667,2042 C1675,2041 1661,2048 1672,2048 L1683,2048 1683,2048 L1683,2038 C1683,2029 1691,2039 1690,2030 C1690,2021 1681,2037 1682,2026 L1683,2016"/></g><clipPath id="c" clipRule="evenodd" fill="transparent"><use href="#t8240"/></clipPath></defs><svg viewBox="1642 2007 50 44" preserveAspectRatio="xMinYMin meet"><svg width="4380" height="2430"><g><image crossorigin="anonymous" x="0" y="0" href="https://nftpuzzle.license-token.com/assets/completepuzzle.svg" width="100%" height="100%" /><g class="links"><use href="#t8240"/></g></g></svg><svg x="1677" y="2036" height="9%" width="9%" viewBox="0 0 330 330"><g><a xlink:href="https://nftpuzzle.license-token.com/" class="links"><title>See the most innovative NFT based token software licensing project</title><path fill="#E4CF37" id="more" d="M165,0C74.019,0,0,74.019,0,165s74.019,165,165,165s165-74.019,165-165S255.981,0,165,0z M85,190 c-13.785,0-25-11.215-25-25s11.215-25,25-25s25,11.215,25,25S98.785,190,85,190z M165,190c-13.785,0-25-11.215-25-25 s11.215-25,25-25s25,11.215,25,25S178.785,190,165,190z M245,190c-13.785,0-25-11.215-25-25s11.215-25,25-25 c13.785,0,25,11.215,25,25S258.785,190,245,190z"></path></a></g></svg></svg></svg>