<svg version="1.1" xmlns="http://www.w3.org/2000/svg" xmlns:xlink="http://www.w3.org/1999/xlink" fill="transparent" x="0" y="0" width="350" height="350" preserveAspectRatio="xMinYMin slice"><style type="text/css">.links{fill:transparent;stroke: #E4CF37;}.links:hover{fill:#63D272; opacity:0.4;}</style><defs><g id="allt"><path id="t8392" d="M2409,2048 L2399,2047 C2390,2047 2401,2039 2391,2039 C2381,2040 2396,2051 2386,2049 L2376,2048 2376,2048 L2374,2057 C2373,2067 2382,2056 2381,2063 C2380,2071 2373,2061 2374,2070 L2376,2080 2376,2080 L2385,2078 C2395,2077 2385,2086 2392,2085 C2400,2084 2390,2077 2399,2078 L2409,2080 2409,2080 L2409,2070 C2409,2060 2411,2071 2411,2062 C2411,2053 2409,2069 2409,2058 L2409,2048"/></g><clipPath id="c" clipRule="evenodd" fill="transparent"><use href="#t8392"/></clipPath></defs><svg viewBox="2372 2038 40 49" preserveAspectRatio="xMinYMin meet"><svg width="4380" height="2430"><g><image crossorigin="anonymous" x="0" y="0" href="https://nftpuzzle.license-token.com/assets/completepuzzle.svg" width="100%" height="100%" /><g class="links"><use href="#t8392"/></g></g></svg><svg x="2397" y="2072" height="9%" width="9%" viewBox="0 0 330 330"><g><a xlink:href="https://nftpuzzle.license-token.com/" class="links"><title>See the most innovative NFT based token software licensing project</title><path fill="#E4CF37" id="more" d="M165,0C74.019,0,0,74.019,0,165s74.019,165,165,165s165-74.019,165-165S255.981,0,165,0z M85,190 c-13.785,0-25-11.215-25-25s11.215-25,25-25s25,11.215,25,25S98.785,190,85,190z M165,190c-13.785,0-25-11.215-25-25 s11.215-25,25-25s25,11.215,25,25S178.785,190,165,190z M245,190c-13.785,0-25-11.215-25-25s11.215-25,25-25 c13.785,0,25,11.215,25,25S258.785,190,245,190z"></path></a></g></svg></svg></svg>