<svg version="1.1" xmlns="http://www.w3.org/2000/svg" xmlns:xlink="http://www.w3.org/1999/xlink" fill="transparent" x="0" y="0" width="350" height="350" preserveAspectRatio="xMinYMin slice"><style type="text/css">.links{fill:transparent;stroke: #E4CF37;}.links:hover{fill:#63D272; opacity:0.4;}</style><defs><g id="allt"><path id="t850" d="M2343,192 L2332,192 C2322,192 2334,185 2325,185 C2316,186 2330,195 2320,193 L2310,192 2310,192 L2310,202 C2311,213 2304,201 2305,209 C2306,217 2311,204 2310,214 L2310,224 2310,224 L2321,224 C2332,225 2319,218 2327,219 C2336,220 2322,225 2332,224 L2343,224 2343,224 L2341,214 C2340,204 2349,216 2349,208 C2350,200 2342,211 2342,201 L2343,192"/></g><clipPath id="c" clipRule="evenodd" fill="transparent"><use href="#t850"/></clipPath></defs><svg viewBox="2303 184 48 42" preserveAspectRatio="xMinYMin meet"><svg width="4380" height="2430"><g><image crossorigin="anonymous" x="0" y="0" href="https://nftpuzzle.license-token.com/assets/completepuzzle.svg" width="100%" height="100%" /><g class="links"><use href="#t850"/></g></g></svg><svg x="2336" y="211" height="9%" width="9%" viewBox="0 0 330 330"><g><a xlink:href="https://nftpuzzle.license-token.com/" class="links"><title>See the most innovative NFT based token software licensing project</title><path fill="#E4CF37" id="more" d="M165,0C74.019,0,0,74.019,0,165s74.019,165,165,165s165-74.019,165-165S255.981,0,165,0z M85,190 c-13.785,0-25-11.215-25-25s11.215-25,25-25s25,11.215,25,25S98.785,190,85,190z M165,190c-13.785,0-25-11.215-25-25 s11.215-25,25-25s25,11.215,25,25S178.785,190,165,190z M245,190c-13.785,0-25-11.215-25-25s11.215-25,25-25 c13.785,0,25,11.215,25,25S258.785,190,245,190z"></path></a></g></svg></svg></svg>