<svg version="1.1" xmlns="http://www.w3.org/2000/svg" xmlns:xlink="http://www.w3.org/1999/xlink" fill="transparent" x="0" y="0" width="350" height="350" preserveAspectRatio="xMinYMin slice"><style type="text/css">.links{fill:transparent;stroke: #E4CF37;}.links:hover{fill:#63D272; opacity:0.4;}</style><defs><g id="allt"><path id="t8520" d="M2343,2080 L2333,2080 C2324,2081 2336,2075 2325,2076 C2315,2078 2331,2080 2320,2080 L2310,2080 2310,2080 L2311,2089 C2313,2099 2299,2087 2299,2096 C2300,2105 2312,2093 2311,2102 L2310,2112 2310,2112 L2320,2113 C2330,2115 2317,2102 2326,2102 C2336,2102 2324,2114 2333,2113 L2343,2112 2343,2112 L2341,2102 C2339,2093 2351,2104 2349,2095 C2348,2087 2343,2099 2343,2089 L2343,2080"/></g><clipPath id="c" clipRule="evenodd" fill="transparent"><use href="#t8520"/></clipPath></defs><svg viewBox="2298 2074 54 42" preserveAspectRatio="xMinYMin meet"><svg width="4380" height="2430"><g><image crossorigin="anonymous" x="0" y="0" href="https://nftpuzzle.license-token.com/assets/completepuzzle.svg" width="100%" height="100%" /><g class="links"><use href="#t8520"/></g></g></svg><svg x="2337" y="2101" height="9%" width="9%" viewBox="0 0 330 330"><g><a xlink:href="https://nftpuzzle.license-token.com/" class="links"><title>See the most innovative NFT based token software licensing project</title><path fill="#E4CF37" id="more" d="M165,0C74.019,0,0,74.019,0,165s74.019,165,165,165s165-74.019,165-165S255.981,0,165,0z M85,190 c-13.785,0-25-11.215-25-25s11.215-25,25-25s25,11.215,25,25S98.785,190,85,190z M165,190c-13.785,0-25-11.215-25-25 s11.215-25,25-25s25,11.215,25,25S178.785,190,165,190z M245,190c-13.785,0-25-11.215-25-25s11.215-25,25-25 c13.785,0,25,11.215,25,25S258.785,190,245,190z"></path></a></g></svg></svg></svg>