<svg version="1.1" xmlns="http://www.w3.org/2000/svg" xmlns:xlink="http://www.w3.org/1999/xlink" fill="transparent" x="0" y="0" width="350" height="350" preserveAspectRatio="xMinYMin slice"><style type="text/css">.links{fill:transparent;stroke: #E4CF37;}.links:hover{fill:#63D272; opacity:0.4;}</style><defs><g id="allt"><path id="t8598" d="M627,2112 L617,2112 C608,2112 622,2107 610,2107 C598,2107 612,2112 603,2112 L594,2112 594,2112 L594,2121 C594,2131 586,2119 586,2127 C586,2136 597,2124 595,2134 L594,2144 594,2144 L603,2144 C613,2144 601,2136 609,2136 C618,2136 607,2147 617,2145 L627,2144 627,2144 L627,2134 C627,2125 623,2139 623,2128 C624,2117 628,2133 627,2122 L627,2112"/></g><clipPath id="c" clipRule="evenodd" fill="transparent"><use href="#t8598"/></clipPath></defs><svg viewBox="585 2106 44 42" preserveAspectRatio="xMinYMin meet"><svg width="4380" height="2430"><g><image crossorigin="anonymous" x="0" y="0" href="https://nftpuzzle.license-token.com/assets/completepuzzle.svg" width="100%" height="100%" /><g class="links"><use href="#t8598"/></g></g></svg><svg x="614" y="2133" height="9%" width="9%" viewBox="0 0 330 330"><g><a xlink:href="https://nftpuzzle.license-token.com/" class="links"><title>See the most innovative NFT based token software licensing project</title><path fill="#E4CF37" id="more" d="M165,0C74.019,0,0,74.019,0,165s74.019,165,165,165s165-74.019,165-165S255.981,0,165,0z M85,190 c-13.785,0-25-11.215-25-25s11.215-25,25-25s25,11.215,25,25S98.785,190,85,190z M165,190c-13.785,0-25-11.215-25-25 s11.215-25,25-25s25,11.215,25,25S178.785,190,165,190z M245,190c-13.785,0-25-11.215-25-25s11.215-25,25-25 c13.785,0,25,11.215,25,25S258.785,190,245,190z"></path></a></g></svg></svg></svg>