<svg version="1.1" xmlns="http://www.w3.org/2000/svg" xmlns:xlink="http://www.w3.org/1999/xlink" fill="transparent" x="0" y="0" width="350" height="350" preserveAspectRatio="xMinYMin slice"><style type="text/css">.links{fill:transparent;stroke: #E4CF37;}.links:hover{fill:#63D272; opacity:0.4;}</style><defs><g id="allt"><path id="t8618" d="M1287,2112 L1275,2112 C1264,2112 1279,2108 1268,2108 C1258,2108 1273,2114 1263,2113 L1254,2112 1254,2112 L1253,2122 C1252,2132 1267,2118 1266,2127 C1266,2136 1250,2122 1252,2133 L1254,2144 1254,2144 L1264,2143 C1275,2142 1260,2156 1269,2156 C1278,2156 1264,2140 1275,2142 L1287,2144 1287,2144 L1287,2134 C1288,2124 1284,2135 1284,2127 C1284,2120 1289,2130 1288,2121 L1287,2112"/></g><clipPath id="c" clipRule="evenodd" fill="transparent"><use href="#t8618"/></clipPath></defs><svg viewBox="1249 2107 41 50" preserveAspectRatio="xMinYMin meet"><svg width="4380" height="2430"><g><image crossorigin="anonymous" x="0" y="0" href="https://nftpuzzle.license-token.com/assets/completepuzzle.svg" width="100%" height="100%" /><g class="links"><use href="#t8618"/></g></g></svg><svg x="1275" y="2142" height="9%" width="9%" viewBox="0 0 330 330"><g><a xlink:href="https://nftpuzzle.license-token.com/" class="links"><title>See the most innovative NFT based token software licensing project</title><path fill="#E4CF37" id="more" d="M165,0C74.019,0,0,74.019,0,165s74.019,165,165,165s165-74.019,165-165S255.981,0,165,0z M85,190 c-13.785,0-25-11.215-25-25s11.215-25,25-25s25,11.215,25,25S98.785,190,85,190z M165,190c-13.785,0-25-11.215-25-25 s11.215-25,25-25s25,11.215,25,25S178.785,190,165,190z M245,190c-13.785,0-25-11.215-25-25s11.215-25,25-25 c13.785,0,25,11.215,25,25S258.785,190,245,190z"></path></a></g></svg></svg></svg>