<svg version="1.1" xmlns="http://www.w3.org/2000/svg" xmlns:xlink="http://www.w3.org/1999/xlink" fill="transparent" x="0" y="0" width="350" height="350" preserveAspectRatio="xMinYMin slice"><style type="text/css">.links{fill:transparent;stroke: #E4CF37;}.links:hover{fill:#63D272; opacity:0.4;}</style><defs><g id="allt"><path id="t864" d="M2805,192 L2794,191 C2784,191 2797,195 2788,196 C2780,197 2791,192 2781,192 L2772,192 2772,192 L2770,202 C2769,212 2776,201 2777,208 C2778,215 2772,203 2772,213 L2772,224 2772,224 L2782,222 C2792,221 2781,228 2788,229 C2796,230 2783,224 2794,224 L2805,224 2805,224 L2804,214 C2804,204 2814,217 2814,208 C2815,199 2806,209 2805,200 L2805,192"/></g><clipPath id="c" clipRule="evenodd" fill="transparent"><use href="#t864"/></clipPath></defs><svg viewBox="2768 190 48 41" preserveAspectRatio="xMinYMin meet"><svg width="4380" height="2430"><g><image crossorigin="anonymous" x="0" y="0" href="https://nftpuzzle.license-token.com/assets/completepuzzle.svg" width="100%" height="100%" /><g class="links"><use href="#t864"/></g></g></svg><svg x="2801" y="216" height="9%" width="9%" viewBox="0 0 330 330"><g><a xlink:href="https://nftpuzzle.license-token.com/" class="links"><title>See the most innovative NFT based token software licensing project</title><path fill="#E4CF37" id="more" d="M165,0C74.019,0,0,74.019,0,165s74.019,165,165,165s165-74.019,165-165S255.981,0,165,0z M85,190 c-13.785,0-25-11.215-25-25s11.215-25,25-25s25,11.215,25,25S98.785,190,85,190z M165,190c-13.785,0-25-11.215-25-25 s11.215-25,25-25s25,11.215,25,25S178.785,190,165,190z M245,190c-13.785,0-25-11.215-25-25s11.215-25,25-25 c13.785,0,25,11.215,25,25S258.785,190,245,190z"></path></a></g></svg></svg></svg>