<svg version="1.1" xmlns="http://www.w3.org/2000/svg" xmlns:xlink="http://www.w3.org/1999/xlink" fill="transparent" x="0" y="0" width="350" height="350" preserveAspectRatio="xMinYMin slice"><style type="text/css">.links{fill:transparent;stroke: #E4CF37;}.links:hover{fill:#63D272; opacity:0.4;}</style><defs><g id="allt"><path id="t8786" d="M2541,2144 L2530,2143 C2519,2143 2531,2148 2524,2147 C2517,2146 2527,2142 2517,2143 L2508,2144 2508,2144 L2508,2153 C2509,2162 2499,2150 2499,2158 C2500,2166 2509,2156 2508,2166 L2508,2176 2508,2176 L2517,2176 C2527,2177 2514,2167 2522,2167 C2531,2168 2520,2177 2530,2176 L2541,2176 2541,2176 L2539,2166 C2538,2157 2547,2168 2546,2158 C2546,2149 2541,2161 2541,2152 L2541,2144"/></g><clipPath id="c" clipRule="evenodd" fill="transparent"><use href="#t8786"/></clipPath></defs><svg viewBox="2498 2141 50 37" preserveAspectRatio="xMinYMin meet"><svg width="4380" height="2430"><g><image crossorigin="anonymous" x="0" y="0" href="https://nftpuzzle.license-token.com/assets/completepuzzle.svg" width="100%" height="100%" /><g class="links"><use href="#t8786"/></g></g></svg><svg x="2533" y="2163" height="9%" width="9%" viewBox="0 0 330 330"><g><a xlink:href="https://nftpuzzle.license-token.com/" class="links"><title>See the most innovative NFT based token software licensing project</title><path fill="#E4CF37" id="more" d="M165,0C74.019,0,0,74.019,0,165s74.019,165,165,165s165-74.019,165-165S255.981,0,165,0z M85,190 c-13.785,0-25-11.215-25-25s11.215-25,25-25s25,11.215,25,25S98.785,190,85,190z M165,190c-13.785,0-25-11.215-25-25 s11.215-25,25-25s25,11.215,25,25S178.785,190,165,190z M245,190c-13.785,0-25-11.215-25-25s11.215-25,25-25 c13.785,0,25,11.215,25,25S258.785,190,245,190z"></path></a></g></svg></svg></svg>