<svg version="1.1" xmlns="http://www.w3.org/2000/svg" xmlns:xlink="http://www.w3.org/1999/xlink" fill="transparent" x="0" y="0" width="350" height="350" preserveAspectRatio="xMinYMin slice"><style type="text/css">.links{fill:transparent;stroke: #E4CF37;}.links:hover{fill:#63D272; opacity:0.4;}</style><defs><g id="allt"><path id="t8950" d="M3663,2176 L3652,2175 C3642,2174 3657,2183 3648,2182 C3639,2182 3649,2176 3639,2176 L3630,2176 3630,2176 L3631,2184 C3633,2193 3620,2185 3622,2193 C3625,2202 3635,2188 3632,2198 L3630,2208 3630,2208 L3639,2209 C3648,2211 3639,2199 3648,2201 C3657,2203 3642,2213 3652,2210 L3663,2208 3663,2208 L3664,2199 C3666,2190 3658,2198 3657,2189 C3656,2181 3663,2197 3663,2186 L3663,2176"/></g><clipPath id="c" clipRule="evenodd" fill="transparent"><use href="#t8950"/></clipPath></defs><svg viewBox="3619 2173 48 41" preserveAspectRatio="xMinYMin meet"><svg width="4380" height="2430"><g><image crossorigin="anonymous" x="0" y="0" href="https://nftpuzzle.license-token.com/assets/completepuzzle.svg" width="100%" height="100%" /><g class="links"><use href="#t8950"/></g></g></svg><svg x="3652" y="2199" height="9%" width="9%" viewBox="0 0 330 330"><g><a xlink:href="https://nftpuzzle.license-token.com/" class="links"><title>See the most innovative NFT based token software licensing project</title><path fill="#E4CF37" id="more" d="M165,0C74.019,0,0,74.019,0,165s74.019,165,165,165s165-74.019,165-165S255.981,0,165,0z M85,190 c-13.785,0-25-11.215-25-25s11.215-25,25-25s25,11.215,25,25S98.785,190,85,190z M165,190c-13.785,0-25-11.215-25-25 s11.215-25,25-25s25,11.215,25,25S178.785,190,165,190z M245,190c-13.785,0-25-11.215-25-25s11.215-25,25-25 c13.785,0,25,11.215,25,25S258.785,190,245,190z"></path></a></g></svg></svg></svg>