<svg version="1.1" xmlns="http://www.w3.org/2000/svg" xmlns:xlink="http://www.w3.org/1999/xlink" fill="transparent" x="0" y="0" width="350" height="350" preserveAspectRatio="xMinYMin slice"><style type="text/css">.links{fill:transparent;stroke: #E4CF37;}.links:hover{fill:#63D272; opacity:0.4;}</style><defs><g id="allt"><path id="t8966" d="M4191,2176 L4180,2176 C4169,2176 4183,2174 4174,2173 C4166,2172 4176,2176 4167,2176 L4158,2176 4158,2176 L4158,2184 C4158,2193 4155,2180 4155,2189 C4155,2198 4158,2187 4158,2197 L4158,2208 4158,2208 L4167,2208 C4176,2208 4162,2205 4171,2205 C4181,2205 4170,2208 4180,2208 L4191,2208 4191,2208 L4191,2198 C4192,2189 4182,2202 4180,2192 C4179,2182 4194,2196 4192,2186 L4191,2176"/></g><clipPath id="c" clipRule="evenodd" fill="transparent"><use href="#t8966"/></clipPath></defs><svg viewBox="4154 2171 41 38" preserveAspectRatio="xMinYMin meet"><svg width="4380" height="2430"><g><image crossorigin="anonymous" x="0" y="0" href="https://nftpuzzle.license-token.com/assets/completepuzzle.svg" width="100%" height="100%" /><g class="links"><use href="#t8966"/></g></g></svg><svg x="4180" y="2194" height="9%" width="9%" viewBox="0 0 330 330"><g><a xlink:href="https://nftpuzzle.license-token.com/" class="links"><title>See the most innovative NFT based token software licensing project</title><path fill="#E4CF37" id="more" d="M165,0C74.019,0,0,74.019,0,165s74.019,165,165,165s165-74.019,165-165S255.981,0,165,0z M85,190 c-13.785,0-25-11.215-25-25s11.215-25,25-25s25,11.215,25,25S98.785,190,85,190z M165,190c-13.785,0-25-11.215-25-25 s11.215-25,25-25s25,11.215,25,25S178.785,190,165,190z M245,190c-13.785,0-25-11.215-25-25s11.215-25,25-25 c13.785,0,25,11.215,25,25S258.785,190,245,190z"></path></a></g></svg></svg></svg>