<svg version="1.1" xmlns="http://www.w3.org/2000/svg" xmlns:xlink="http://www.w3.org/1999/xlink" fill="transparent" x="0" y="0" width="350" height="350" preserveAspectRatio="xMinYMin slice"><style type="text/css">.links{fill:transparent;stroke: #E4CF37;}.links:hover{fill:#63D272; opacity:0.4;}</style><defs><g id="allt"><path id="t9002" d="M1089,2208 L1078,2208 C1067,2208 1082,2204 1071,2202 C1060,2200 1075,2208 1065,2208 L1056,2208 1056,2208 L1055,2217 C1055,2227 1067,2216 1065,2224 C1064,2232 1054,2218 1055,2229 L1056,2240 1056,2240 L1066,2239 C1076,2239 1064,2250 1072,2249 C1081,2248 1066,2238 1077,2239 L1089,2240 1089,2240 L1089,2229 C1089,2219 1080,2234 1082,2225 C1084,2216 1091,2227 1090,2217 L1089,2208"/></g><clipPath id="c" clipRule="evenodd" fill="transparent"><use href="#t9002"/></clipPath></defs><svg viewBox="1053 2199 39 52" preserveAspectRatio="xMinYMin meet"><svg width="4380" height="2430"><g><image crossorigin="anonymous" x="0" y="0" href="https://nftpuzzle.license-token.com/assets/completepuzzle.svg" width="100%" height="100%" /><g class="links"><use href="#t9002"/></g></g></svg><svg x="1077" y="2236" height="9%" width="9%" viewBox="0 0 330 330"><g><a xlink:href="https://nftpuzzle.license-token.com/" class="links"><title>See the most innovative NFT based token software licensing project</title><path fill="#E4CF37" id="more" d="M165,0C74.019,0,0,74.019,0,165s74.019,165,165,165s165-74.019,165-165S255.981,0,165,0z M85,190 c-13.785,0-25-11.215-25-25s11.215-25,25-25s25,11.215,25,25S98.785,190,85,190z M165,190c-13.785,0-25-11.215-25-25 s11.215-25,25-25s25,11.215,25,25S178.785,190,165,190z M245,190c-13.785,0-25-11.215-25-25s11.215-25,25-25 c13.785,0,25,11.215,25,25S258.785,190,245,190z"></path></a></g></svg></svg></svg>