<svg version="1.1" xmlns="http://www.w3.org/2000/svg" xmlns:xlink="http://www.w3.org/1999/xlink" fill="transparent" x="0" y="0" width="350" height="350" preserveAspectRatio="xMinYMin slice"><style type="text/css">.links{fill:transparent;stroke: #E4CF37;}.links:hover{fill:#63D272; opacity:0.4;}</style><defs><g id="allt"><path id="t9036" d="M2211,2208 L2201,2207 C2192,2207 2205,2215 2195,2216 C2185,2218 2199,2208 2188,2208 L2178,2208 2178,2208 L2179,2218 C2181,2229 2170,2217 2171,2225 C2172,2233 2179,2220 2178,2230 L2178,2240 2178,2240 L2188,2241 C2199,2243 2187,2232 2195,2233 C2204,2234 2191,2241 2201,2240 L2211,2240 2211,2240 L2209,2230 C2207,2221 2217,2230 2218,2221 C2220,2213 2209,2228 2210,2218 L2211,2208"/></g><clipPath id="c" clipRule="evenodd" fill="transparent"><use href="#t9036"/></clipPath></defs><svg viewBox="2169 2206 52 38" preserveAspectRatio="xMinYMin meet"><svg width="4380" height="2430"><g><image crossorigin="anonymous" x="0" y="0" href="https://nftpuzzle.license-token.com/assets/completepuzzle.svg" width="100%" height="100%" /><g class="links"><use href="#t9036"/></g></g></svg><svg x="2206" y="2229" height="9%" width="9%" viewBox="0 0 330 330"><g><a xlink:href="https://nftpuzzle.license-token.com/" class="links"><title>See the most innovative NFT based token software licensing project</title><path fill="#E4CF37" id="more" d="M165,0C74.019,0,0,74.019,0,165s74.019,165,165,165s165-74.019,165-165S255.981,0,165,0z M85,190 c-13.785,0-25-11.215-25-25s11.215-25,25-25s25,11.215,25,25S98.785,190,85,190z M165,190c-13.785,0-25-11.215-25-25 s11.215-25,25-25s25,11.215,25,25S178.785,190,165,190z M245,190c-13.785,0-25-11.215-25-25s11.215-25,25-25 c13.785,0,25,11.215,25,25S258.785,190,245,190z"></path></a></g></svg></svg></svg>