<svg version="1.1" xmlns="http://www.w3.org/2000/svg" xmlns:xlink="http://www.w3.org/1999/xlink" fill="transparent" x="0" y="0" width="350" height="350" preserveAspectRatio="xMinYMin slice"><style type="text/css">.links{fill:transparent;stroke: #E4CF37;}.links:hover{fill:#63D272; opacity:0.4;}</style><defs><g id="allt"><path id="t9116" d="M561,2240 L550,2239 C539,2239 553,2245 543,2245 C533,2246 546,2236 537,2238 L528,2240 528,2240 L526,2250 C525,2260 532,2244 533,2254 C535,2265 528,2253 528,2262 L528,2272 528,2272 L538,2270 C548,2269 532,2276 543,2277 C554,2279 541,2272 551,2272 L561,2272 561,2272 L560,2263 C559,2254 570,2265 567,2255 C565,2246 557,2259 559,2249 L561,2240"/></g><clipPath id="c" clipRule="evenodd" fill="transparent"><use href="#t9116"/></clipPath></defs><svg viewBox="524 2235 47 45" preserveAspectRatio="xMinYMin meet"><svg width="4380" height="2430"><g><image crossorigin="anonymous" x="0" y="0" href="https://nftpuzzle.license-token.com/assets/completepuzzle.svg" width="100%" height="100%" /><g class="links"><use href="#t9116"/></g></g></svg><svg x="556" y="2265" height="9%" width="9%" viewBox="0 0 330 330"><g><a xlink:href="https://nftpuzzle.license-token.com/" class="links"><title>See the most innovative NFT based token software licensing project</title><path fill="#E4CF37" id="more" d="M165,0C74.019,0,0,74.019,0,165s74.019,165,165,165s165-74.019,165-165S255.981,0,165,0z M85,190 c-13.785,0-25-11.215-25-25s11.215-25,25-25s25,11.215,25,25S98.785,190,85,190z M165,190c-13.785,0-25-11.215-25-25 s11.215-25,25-25s25,11.215,25,25S178.785,190,165,190z M245,190c-13.785,0-25-11.215-25-25s11.215-25,25-25 c13.785,0,25,11.215,25,25S258.785,190,245,190z"></path></a></g></svg></svg></svg>