<svg version="1.1" xmlns="http://www.w3.org/2000/svg" xmlns:xlink="http://www.w3.org/1999/xlink" fill="transparent" x="0" y="0" width="350" height="350" preserveAspectRatio="xMinYMin slice"><style type="text/css">.links{fill:transparent;stroke: #E4CF37;}.links:hover{fill:#63D272; opacity:0.4;}</style><defs><g id="allt"><path id="t9142" d="M1419,2240 L1408,2240 C1397,2240 1411,2236 1401,2236 C1392,2236 1407,2240 1396,2240 L1386,2240 1386,2240 L1386,2248 C1387,2257 1380,2245 1380,2255 C1380,2266 1388,2252 1387,2262 L1386,2272 1386,2272 L1395,2272 C1404,2273 1391,2266 1402,2266 C1413,2266 1398,2274 1408,2273 L1419,2272 1419,2272 L1419,2262 C1419,2253 1425,2264 1426,2255 C1427,2247 1417,2260 1418,2250 L1419,2240"/></g><clipPath id="c" clipRule="evenodd" fill="transparent"><use href="#t9142"/></clipPath></defs><svg viewBox="1379 2235 49 40" preserveAspectRatio="xMinYMin meet"><svg width="4380" height="2430"><g><image crossorigin="anonymous" x="0" y="0" href="https://nftpuzzle.license-token.com/assets/completepuzzle.svg" width="100%" height="100%" /><g class="links"><use href="#t9142"/></g></g></svg><svg x="1413" y="2260" height="9%" width="9%" viewBox="0 0 330 330"><g><a xlink:href="https://nftpuzzle.license-token.com/" class="links"><title>See the most innovative NFT based token software licensing project</title><path fill="#E4CF37" id="more" d="M165,0C74.019,0,0,74.019,0,165s74.019,165,165,165s165-74.019,165-165S255.981,0,165,0z M85,190 c-13.785,0-25-11.215-25-25s11.215-25,25-25s25,11.215,25,25S98.785,190,85,190z M165,190c-13.785,0-25-11.215-25-25 s11.215-25,25-25s25,11.215,25,25S178.785,190,165,190z M245,190c-13.785,0-25-11.215-25-25s11.215-25,25-25 c13.785,0,25,11.215,25,25S258.785,190,245,190z"></path></a></g></svg></svg></svg>