<svg version="1.1" xmlns="http://www.w3.org/2000/svg" xmlns:xlink="http://www.w3.org/1999/xlink" fill="transparent" x="0" y="0" width="350" height="350" preserveAspectRatio="xMinYMin slice"><style type="text/css">.links{fill:transparent;stroke: #E4CF37;}.links:hover{fill:#63D272; opacity:0.4;}</style><defs><g id="allt"><path id="t9172" d="M2409,2240 L2397,2239 C2386,2238 2404,2245 2392,2245 C2381,2246 2394,2238 2385,2239 L2376,2240 2376,2240 L2377,2249 C2378,2258 2371,2248 2370,2256 C2369,2264 2378,2252 2377,2262 L2376,2272 2376,2272 L2385,2273 C2395,2274 2384,2267 2392,2266 C2401,2265 2389,2274 2399,2273 L2409,2272 2409,2272 L2408,2263 C2408,2254 2421,2266 2419,2257 C2418,2248 2408,2260 2408,2250 L2409,2240"/></g><clipPath id="c" clipRule="evenodd" fill="transparent"><use href="#t9172"/></clipPath></defs><svg viewBox="2368 2237 54 38" preserveAspectRatio="xMinYMin meet"><svg width="4380" height="2430"><g><image crossorigin="anonymous" x="0" y="0" href="https://nftpuzzle.license-token.com/assets/completepuzzle.svg" width="100%" height="100%" /><g class="links"><use href="#t9172"/></g></g></svg><svg x="2407" y="2260" height="9%" width="9%" viewBox="0 0 330 330"><g><a xlink:href="https://nftpuzzle.license-token.com/" class="links"><title>See the most innovative NFT based token software licensing project</title><path fill="#E4CF37" id="more" d="M165,0C74.019,0,0,74.019,0,165s74.019,165,165,165s165-74.019,165-165S255.981,0,165,0z M85,190 c-13.785,0-25-11.215-25-25s11.215-25,25-25s25,11.215,25,25S98.785,190,85,190z M165,190c-13.785,0-25-11.215-25-25 s11.215-25,25-25s25,11.215,25,25S178.785,190,165,190z M245,190c-13.785,0-25-11.215-25-25s11.215-25,25-25 c13.785,0,25,11.215,25,25S258.785,190,245,190z"></path></a></g></svg></svg></svg>