<svg version="1.1" xmlns="http://www.w3.org/2000/svg" xmlns:xlink="http://www.w3.org/1999/xlink" fill="transparent" x="0" y="0" width="350" height="350" preserveAspectRatio="xMinYMin slice"><style type="text/css">.links{fill:transparent;stroke: #E4CF37;}.links:hover{fill:#63D272; opacity:0.4;}</style><defs><g id="allt"><path id="t9228" d="M4257,2240 L4246,2240 C4236,2240 4252,2234 4241,2234 C4231,2234 4242,2241 4233,2240 L4224,2240 4224,2240 L4223,2250 C4223,2260 4233,2248 4232,2256 C4231,2264 4224,2254 4224,2263 L4224,2272 4224,2272 L4234,2271 C4245,2271 4232,2281 4240,2280 C4249,2279 4238,2272 4247,2272 L4257,2272 4257,2272 L4257,2263 C4257,2254 4254,2263 4253,2254 C4252,2246 4257,2258 4257,2249 L4257,2240"/></g><clipPath id="c" clipRule="evenodd" fill="transparent"><use href="#t9228"/></clipPath></defs><svg viewBox="4222 2233 36 49" preserveAspectRatio="xMinYMin meet"><svg width="4380" height="2430"><g><image crossorigin="anonymous" x="0" y="0" href="https://nftpuzzle.license-token.com/assets/completepuzzle.svg" width="100%" height="100%" /><g class="links"><use href="#t9228"/></g></g></svg><svg x="4243" y="2267" height="9%" width="9%" viewBox="0 0 330 330"><g><a xlink:href="https://nftpuzzle.license-token.com/" class="links"><title>See the most innovative NFT based token software licensing project</title><path fill="#E4CF37" id="more" d="M165,0C74.019,0,0,74.019,0,165s74.019,165,165,165s165-74.019,165-165S255.981,0,165,0z M85,190 c-13.785,0-25-11.215-25-25s11.215-25,25-25s25,11.215,25,25S98.785,190,85,190z M165,190c-13.785,0-25-11.215-25-25 s11.215-25,25-25s25,11.215,25,25S178.785,190,165,190z M245,190c-13.785,0-25-11.215-25-25s11.215-25,25-25 c13.785,0,25,11.215,25,25S258.785,190,245,190z"></path></a></g></svg></svg></svg>