<svg version="1.1" xmlns="http://www.w3.org/2000/svg" xmlns:xlink="http://www.w3.org/1999/xlink" fill="transparent" x="0" y="0" width="350" height="350" preserveAspectRatio="xMinYMin slice"><style type="text/css">.links{fill:transparent;stroke: #E4CF37;}.links:hover{fill:#63D272; opacity:0.4;}</style><defs><g id="allt"><path id="t9300" d="M2343,2272 L2332,2272 C2321,2272 2333,2266 2326,2266 C2319,2267 2331,2274 2320,2273 L2310,2272 2310,2272 L2310,2281 C2310,2290 2305,2278 2305,2287 C2305,2297 2310,2284 2310,2294 L2310,2304 2310,2304 L2319,2304 C2329,2304 2316,2299 2326,2299 C2336,2299 2323,2304 2333,2304 L2343,2304 2343,2304 L2343,2294 C2343,2284 2331,2295 2334,2286 C2337,2277 2342,2290 2342,2281 L2343,2272"/></g><clipPath id="c" clipRule="evenodd" fill="transparent"><use href="#t9300"/></clipPath></defs><svg viewBox="2304 2265 40 40" preserveAspectRatio="xMinYMin meet"><svg width="4380" height="2430"><g><image crossorigin="anonymous" x="0" y="0" href="https://nftpuzzle.license-token.com/assets/completepuzzle.svg" width="100%" height="100%" /><g class="links"><use href="#t9300"/></g></g></svg><svg x="2329" y="2290" height="9%" width="9%" viewBox="0 0 330 330"><g><a xlink:href="https://nftpuzzle.license-token.com/" class="links"><title>See the most innovative NFT based token software licensing project</title><path fill="#E4CF37" id="more" d="M165,0C74.019,0,0,74.019,0,165s74.019,165,165,165s165-74.019,165-165S255.981,0,165,0z M85,190 c-13.785,0-25-11.215-25-25s11.215-25,25-25s25,11.215,25,25S98.785,190,85,190z M165,190c-13.785,0-25-11.215-25-25 s11.215-25,25-25s25,11.215,25,25S178.785,190,165,190z M245,190c-13.785,0-25-11.215-25-25s11.215-25,25-25 c13.785,0,25,11.215,25,25S258.785,190,245,190z"></path></a></g></svg></svg></svg>