<svg version="1.1" xmlns="http://www.w3.org/2000/svg" xmlns:xlink="http://www.w3.org/1999/xlink" fill="transparent" x="0" y="0" width="350" height="350" preserveAspectRatio="xMinYMin slice"><style type="text/css">.links{fill:transparent;stroke: #E4CF37;}.links:hover{fill:#63D272; opacity:0.4;}</style><defs><g id="allt"><path id="t9350" d="M3993,2272 L3983,2272 C3974,2273 3986,2270 3976,2269 C3966,2268 3978,2273 3969,2272 L3960,2272 3960,2272 L3959,2281 C3959,2291 3971,2280 3969,2287 C3968,2295 3960,2283 3960,2293 L3960,2304 3960,2304 L3970,2303 C3980,2303 3969,2314 3976,2313 C3984,2312 3972,2304 3982,2304 L3993,2304 3993,2304 L3993,2293 C3994,2282 3985,2297 3983,2287 C3981,2277 3993,2291 3993,2281 L3993,2272"/></g><clipPath id="c" clipRule="evenodd" fill="transparent"><use href="#t9350"/></clipPath></defs><svg viewBox="3958 2267 37 48" preserveAspectRatio="xMinYMin meet"><svg width="4380" height="2430"><g><image crossorigin="anonymous" x="0" y="0" href="https://nftpuzzle.license-token.com/assets/completepuzzle.svg" width="100%" height="100%" /><g class="links"><use href="#t9350"/></g></g></svg><svg x="3980" y="2300" height="9%" width="9%" viewBox="0 0 330 330"><g><a xlink:href="https://nftpuzzle.license-token.com/" class="links"><title>See the most innovative NFT based token software licensing project</title><path fill="#E4CF37" id="more" d="M165,0C74.019,0,0,74.019,0,165s74.019,165,165,165s165-74.019,165-165S255.981,0,165,0z M85,190 c-13.785,0-25-11.215-25-25s11.215-25,25-25s25,11.215,25,25S98.785,190,85,190z M165,190c-13.785,0-25-11.215-25-25 s11.215-25,25-25s25,11.215,25,25S178.785,190,165,190z M245,190c-13.785,0-25-11.215-25-25s11.215-25,25-25 c13.785,0,25,11.215,25,25S258.785,190,245,190z"></path></a></g></svg></svg></svg>