<svg version="1.1" xmlns="http://www.w3.org/2000/svg" xmlns:xlink="http://www.w3.org/1999/xlink" fill="transparent" x="0" y="0" width="350" height="350" preserveAspectRatio="xMinYMin slice"><style type="text/css">.links{fill:transparent;stroke: #E4CF37;}.links:hover{fill:#63D272; opacity:0.4;}</style><defs><g id="allt"><path id="t9388" d="M957,2304 L947,2305 C937,2306 949,2301 940,2300 C931,2300 942,2304 933,2304 L924,2304 924,2304 L924,2314 C924,2325 920,2312 920,2319 C921,2326 924,2316 924,2326 L924,2336 924,2336 L934,2336 C945,2336 932,2332 939,2332 C947,2333 936,2336 946,2336 L957,2336 957,2336 L957,2325 C957,2315 950,2330 948,2320 C947,2310 957,2321 957,2312 L957,2304"/></g><clipPath id="c" clipRule="evenodd" fill="transparent"><use href="#t9388"/></clipPath></defs><svg viewBox="919 2299 39 38" preserveAspectRatio="xMinYMin meet"><svg width="4380" height="2430"><g><image crossorigin="anonymous" x="0" y="0" href="https://nftpuzzle.license-token.com/assets/completepuzzle.svg" width="100%" height="100%" /><g class="links"><use href="#t9388"/></g></g></svg><svg x="943" y="2322" height="9%" width="9%" viewBox="0 0 330 330"><g><a xlink:href="https://nftpuzzle.license-token.com/" class="links"><title>See the most innovative NFT based token software licensing project</title><path fill="#E4CF37" id="more" d="M165,0C74.019,0,0,74.019,0,165s74.019,165,165,165s165-74.019,165-165S255.981,0,165,0z M85,190 c-13.785,0-25-11.215-25-25s11.215-25,25-25s25,11.215,25,25S98.785,190,85,190z M165,190c-13.785,0-25-11.215-25-25 s11.215-25,25-25s25,11.215,25,25S178.785,190,165,190z M245,190c-13.785,0-25-11.215-25-25s11.215-25,25-25 c13.785,0,25,11.215,25,25S258.785,190,245,190z"></path></a></g></svg></svg></svg>