<svg version="1.1" xmlns="http://www.w3.org/2000/svg" xmlns:xlink="http://www.w3.org/1999/xlink" fill="transparent" x="0" y="0" width="350" height="350" preserveAspectRatio="xMinYMin slice"><style type="text/css">.links{fill:transparent;stroke: #E4CF37;}.links:hover{fill:#63D272; opacity:0.4;}</style><defs><g id="allt"><path id="t9414" d="M1815,2304 L1804,2304 C1793,2304 1809,2294 1798,2295 C1788,2296 1803,2307 1792,2305 L1782,2304 1782,2304 L1782,2313 C1782,2323 1777,2308 1776,2317 C1775,2327 1783,2314 1782,2325 L1782,2336 1782,2336 L1792,2336 C1802,2336 1786,2331 1796,2330 C1806,2329 1792,2337 1803,2336 L1815,2336 1815,2336 L1815,2327 C1816,2318 1811,2326 1811,2318 C1812,2311 1817,2322 1816,2313 L1815,2304"/></g><clipPath id="c" clipRule="evenodd" fill="transparent"><use href="#t9414"/></clipPath></defs><svg viewBox="1774 2293 44 45" preserveAspectRatio="xMinYMin meet"><svg width="4380" height="2430"><g><image crossorigin="anonymous" x="0" y="0" href="https://nftpuzzle.license-token.com/assets/completepuzzle.svg" width="100%" height="100%" /><g class="links"><use href="#t9414"/></g></g></svg><svg x="1803" y="2323" height="9%" width="9%" viewBox="0 0 330 330"><g><a xlink:href="https://nftpuzzle.license-token.com/" class="links"><title>See the most innovative NFT based token software licensing project</title><path fill="#E4CF37" id="more" d="M165,0C74.019,0,0,74.019,0,165s74.019,165,165,165s165-74.019,165-165S255.981,0,165,0z M85,190 c-13.785,0-25-11.215-25-25s11.215-25,25-25s25,11.215,25,25S98.785,190,85,190z M165,190c-13.785,0-25-11.215-25-25 s11.215-25,25-25s25,11.215,25,25S178.785,190,165,190z M245,190c-13.785,0-25-11.215-25-25s11.215-25,25-25 c13.785,0,25,11.215,25,25S258.785,190,245,190z"></path></a></g></svg></svg></svg>