<svg version="1.1" xmlns="http://www.w3.org/2000/svg" xmlns:xlink="http://www.w3.org/1999/xlink" fill="transparent" x="0" y="0" width="350" height="350" preserveAspectRatio="xMinYMin slice"><style type="text/css">.links{fill:transparent;stroke: #E4CF37;}.links:hover{fill:#63D272; opacity:0.4;}</style><defs><g id="allt"><path id="t9446" d="M2871,2304 L2860,2304 C2849,2304 2864,2300 2855,2297 C2846,2295 2859,2304 2848,2304 L2838,2304 2838,2304 L2839,2314 C2840,2324 2831,2310 2831,2318 C2831,2327 2840,2314 2839,2325 L2838,2336 2838,2336 L2848,2337 C2859,2338 2844,2329 2853,2329 C2862,2329 2848,2338 2859,2337 L2871,2336 2871,2336 L2871,2326 C2871,2317 2867,2326 2868,2317 C2869,2309 2871,2322 2871,2313 L2871,2304"/></g><clipPath id="c" clipRule="evenodd" fill="transparent"><use href="#t9446"/></clipPath></defs><svg viewBox="2830 2294 42 45" preserveAspectRatio="xMinYMin meet"><svg width="4380" height="2430"><g><image crossorigin="anonymous" x="0" y="0" href="https://nftpuzzle.license-token.com/assets/completepuzzle.svg" width="100%" height="100%" /><g class="links"><use href="#t9446"/></g></g></svg><svg x="2857" y="2324" height="9%" width="9%" viewBox="0 0 330 330"><g><a xlink:href="https://nftpuzzle.license-token.com/" class="links"><title>See the most innovative NFT based token software licensing project</title><path fill="#E4CF37" id="more" d="M165,0C74.019,0,0,74.019,0,165s74.019,165,165,165s165-74.019,165-165S255.981,0,165,0z M85,190 c-13.785,0-25-11.215-25-25s11.215-25,25-25s25,11.215,25,25S98.785,190,85,190z M165,190c-13.785,0-25-11.215-25-25 s11.215-25,25-25s25,11.215,25,25S178.785,190,165,190z M245,190c-13.785,0-25-11.215-25-25s11.215-25,25-25 c13.785,0,25,11.215,25,25S258.785,190,245,190z"></path></a></g></svg></svg></svg>