<svg version="1.1" xmlns="http://www.w3.org/2000/svg" xmlns:xlink="http://www.w3.org/1999/xlink" fill="transparent" x="0" y="0" width="350" height="350" preserveAspectRatio="xMinYMin slice"><style type="text/css">.links{fill:transparent;stroke: #E4CF37;}.links:hover{fill:#63D272; opacity:0.4;}</style><defs><g id="allt"><path id="t9506" d="M561,2336 L551,2337 C541,2339 555,2331 545,2330 C535,2329 546,2336 537,2336 L528,2336 528,2336 L528,2345 C528,2354 523,2343 521,2352 C520,2361 528,2347 528,2357 L528,2368 528,2368 L537,2368 C547,2368 535,2363 544,2361 C554,2360 539,2368 550,2368 L561,2368 561,2368 L562,2357 C563,2347 554,2360 554,2352 C555,2345 563,2356 562,2346 L561,2336"/></g><clipPath id="c" clipRule="evenodd" fill="transparent"><use href="#t9506"/></clipPath></defs><svg viewBox="519 2328 45 41" preserveAspectRatio="xMinYMin meet"><svg width="4380" height="2430"><g><image crossorigin="anonymous" x="0" y="0" href="https://nftpuzzle.license-token.com/assets/completepuzzle.svg" width="100%" height="100%" /><g class="links"><use href="#t9506"/></g></g></svg><svg x="549" y="2354" height="9%" width="9%" viewBox="0 0 330 330"><g><a xlink:href="https://nftpuzzle.license-token.com/" class="links"><title>See the most innovative NFT based token software licensing project</title><path fill="#E4CF37" id="more" d="M165,0C74.019,0,0,74.019,0,165s74.019,165,165,165s165-74.019,165-165S255.981,0,165,0z M85,190 c-13.785,0-25-11.215-25-25s11.215-25,25-25s25,11.215,25,25S98.785,190,85,190z M165,190c-13.785,0-25-11.215-25-25 s11.215-25,25-25s25,11.215,25,25S178.785,190,165,190z M245,190c-13.785,0-25-11.215-25-25s11.215-25,25-25 c13.785,0,25,11.215,25,25S258.785,190,245,190z"></path></a></g></svg></svg></svg>