<svg version="1.1" xmlns="http://www.w3.org/2000/svg" xmlns:xlink="http://www.w3.org/1999/xlink" fill="transparent" x="0" y="0" width="350" height="350" preserveAspectRatio="xMinYMin slice"><style type="text/css">.links{fill:transparent;stroke: #E4CF37;}.links:hover{fill:#63D272; opacity:0.4;}</style><defs><g id="allt"><path id="t9516" d="M891,2336 L881,2336 C872,2336 883,2327 874,2328 C866,2329 878,2336 868,2336 L858,2336 858,2336 L858,2345 C859,2354 852,2345 851,2353 C850,2362 860,2347 859,2357 L858,2368 858,2368 L867,2368 C876,2369 867,2362 876,2361 C885,2360 870,2370 880,2369 L891,2368 891,2368 L891,2358 C891,2348 896,2361 896,2352 C897,2344 888,2354 889,2345 L891,2336"/></g><clipPath id="c" clipRule="evenodd" fill="transparent"><use href="#t9516"/></clipPath></defs><svg viewBox="849 2326 49 45" preserveAspectRatio="xMinYMin meet"><svg width="4380" height="2430"><g><image crossorigin="anonymous" x="0" y="0" href="https://nftpuzzle.license-token.com/assets/completepuzzle.svg" width="100%" height="100%" /><g class="links"><use href="#t9516"/></g></g></svg><svg x="883" y="2356" height="9%" width="9%" viewBox="0 0 330 330"><g><a xlink:href="https://nftpuzzle.license-token.com/" class="links"><title>See the most innovative NFT based token software licensing project</title><path fill="#E4CF37" id="more" d="M165,0C74.019,0,0,74.019,0,165s74.019,165,165,165s165-74.019,165-165S255.981,0,165,0z M85,190 c-13.785,0-25-11.215-25-25s11.215-25,25-25s25,11.215,25,25S98.785,190,85,190z M165,190c-13.785,0-25-11.215-25-25 s11.215-25,25-25s25,11.215,25,25S178.785,190,165,190z M245,190c-13.785,0-25-11.215-25-25s11.215-25,25-25 c13.785,0,25,11.215,25,25S258.785,190,245,190z"></path></a></g></svg></svg></svg>