<svg version="1.1" xmlns="http://www.w3.org/2000/svg" xmlns:xlink="http://www.w3.org/1999/xlink" fill="transparent" x="0" y="0" width="350" height="350" preserveAspectRatio="xMinYMin slice"><style type="text/css">.links{fill:transparent;stroke: #E4CF37;}.links:hover{fill:#63D272; opacity:0.4;}</style><defs><g id="allt"><path id="t9586" d="M3201,2336 L3189,2336 C3178,2337 3191,2347 3182,2346 C3173,2346 3186,2331 3177,2333 L3168,2336 3168,2336 L3168,2345 C3168,2355 3159,2345 3160,2353 C3162,2361 3171,2348 3169,2358 L3168,2368 3168,2368 L3177,2368 C3187,2368 3177,2360 3185,2361 C3194,2362 3180,2371 3190,2369 L3201,2368 3201,2368 L3198,2358 C3196,2348 3211,2360 3212,2350 C3214,2341 3197,2357 3199,2346 L3201,2336"/></g><clipPath id="c" clipRule="evenodd" fill="transparent"><use href="#t9586"/></clipPath></defs><svg viewBox="3158 2330 57 42" preserveAspectRatio="xMinYMin meet"><svg width="4380" height="2430"><g><image crossorigin="anonymous" x="0" y="0" href="https://nftpuzzle.license-token.com/assets/completepuzzle.svg" width="100%" height="100%" /><g class="links"><use href="#t9586"/></g></g></svg><svg x="3200" y="2357" height="9%" width="9%" viewBox="0 0 330 330"><g><a xlink:href="https://nftpuzzle.license-token.com/" class="links"><title>See the most innovative NFT based token software licensing project</title><path fill="#E4CF37" id="more" d="M165,0C74.019,0,0,74.019,0,165s74.019,165,165,165s165-74.019,165-165S255.981,0,165,0z M85,190 c-13.785,0-25-11.215-25-25s11.215-25,25-25s25,11.215,25,25S98.785,190,85,190z M165,190c-13.785,0-25-11.215-25-25 s11.215-25,25-25s25,11.215,25,25S178.785,190,165,190z M245,190c-13.785,0-25-11.215-25-25s11.215-25,25-25 c13.785,0,25,11.215,25,25S258.785,190,245,190z"></path></a></g></svg></svg></svg>