<svg version="1.1" xmlns="http://www.w3.org/2000/svg" xmlns:xlink="http://www.w3.org/1999/xlink" fill="transparent" x="0" y="0" width="350" height="350" preserveAspectRatio="xMinYMin slice"><style type="text/css">.links{fill:transparent;stroke: #E4CF37;}.links:hover{fill:#63D272; opacity:0.4;}</style><defs><g id="allt"><path id="t9602" d="M3729,2336 L3719,2336 C3709,2336 3721,2334 3711,2334 C3701,2334 3716,2337 3706,2336 L3696,2336 3696,2336 L3694,2346 C3692,2356 3704,2340 3705,2349 C3706,2359 3692,2346 3694,2357 L3696,2368 3696,2368 L3706,2366 C3716,2364 3700,2376 3710,2376 C3720,2377 3707,2364 3718,2366 L3729,2368 3729,2368 L3727,2357 C3726,2347 3737,2362 3735,2352 C3733,2342 3729,2356 3729,2346 L3729,2336"/></g><clipPath id="c" clipRule="evenodd" fill="transparent"><use href="#t9602"/></clipPath></defs><svg viewBox="3691 2333 47 45" preserveAspectRatio="xMinYMin meet"><svg width="4380" height="2430"><g><image crossorigin="anonymous" x="0" y="0" href="https://nftpuzzle.license-token.com/assets/completepuzzle.svg" width="100%" height="100%" /><g class="links"><use href="#t9602"/></g></g></svg><svg x="3723" y="2363" height="9%" width="9%" viewBox="0 0 330 330"><g><a xlink:href="https://nftpuzzle.license-token.com/" class="links"><title>See the most innovative NFT based token software licensing project</title><path fill="#E4CF37" id="more" d="M165,0C74.019,0,0,74.019,0,165s74.019,165,165,165s165-74.019,165-165S255.981,0,165,0z M85,190 c-13.785,0-25-11.215-25-25s11.215-25,25-25s25,11.215,25,25S98.785,190,85,190z M165,190c-13.785,0-25-11.215-25-25 s11.215-25,25-25s25,11.215,25,25S178.785,190,165,190z M245,190c-13.785,0-25-11.215-25-25s11.215-25,25-25 c13.785,0,25,11.215,25,25S258.785,190,245,190z"></path></a></g></svg></svg></svg>