<svg version="1.1" xmlns="http://www.w3.org/2000/svg" xmlns:xlink="http://www.w3.org/1999/xlink" fill="transparent" x="0" y="0" width="350" height="350" preserveAspectRatio="xMinYMin slice"><style type="text/css">.links{fill:transparent;stroke: #E4CF37;}.links:hover{fill:#63D272; opacity:0.4;}</style><defs><g id="allt"><path id="t9722" d="M3399,2368 L3389,2367 C3379,2367 3390,2370 3382,2370 C3374,2370 3384,2368 3375,2368 L3366,2368 3366,2368 L3366,2377 C3366,2386 3356,2373 3358,2383 C3360,2393 3369,2381 3367,2390 L3366,2400 L3366,2400 L3399,2400 3399,2400 L3399,2390 C3399,2380 3391,2393 3391,2384 C3392,2375 3403,2388 3401,2378 L3399,2368"/></g><clipPath id="c" clipRule="evenodd" fill="transparent"><use href="#t9722"/></clipPath></defs><svg viewBox="3355 2366 49 35" preserveAspectRatio="xMinYMin meet"><svg width="4380" height="2430"><g><image crossorigin="anonymous" x="0" y="0" href="https://nftpuzzle.license-token.com/assets/completepuzzle.svg" width="100%" height="100%" /><g class="links"><use href="#t9722"/></g></g></svg><svg x="3389" y="2386" height="9%" width="9%" viewBox="0 0 330 330"><g><a xlink:href="https://nftpuzzle.license-token.com/" class="links"><title>See the most innovative NFT based token software licensing project</title><path fill="#E4CF37" id="more" d="M165,0C74.019,0,0,74.019,0,165s74.019,165,165,165s165-74.019,165-165S255.981,0,165,0z M85,190 c-13.785,0-25-11.215-25-25s11.215-25,25-25s25,11.215,25,25S98.785,190,85,190z M165,190c-13.785,0-25-11.215-25-25 s11.215-25,25-25s25,11.215,25,25S178.785,190,165,190z M245,190c-13.785,0-25-11.215-25-25s11.215-25,25-25 c13.785,0,25,11.215,25,25S258.785,190,245,190z"></path></a></g></svg></svg></svg>