<svg version="1.1" xmlns="http://www.w3.org/2000/svg" xmlns:xlink="http://www.w3.org/1999/xlink" fill="transparent" x="0" y="0" width="350" height="350" preserveAspectRatio="xMinYMin slice"><style type="text/css">.links{fill:transparent;stroke: #E4CF37;}.links:hover{fill:#63D272; opacity:0.4;}</style><defs><g id="allt"><path id="t976" d="M2211,224 L2200,224 C2190,224 2202,229 2194,229 C2186,229 2199,223 2188,223 L2178,224 2178,224 L2179,234 C2180,245 2171,229 2173,239 C2175,250 2178,235 2178,245 L2178,256 2178,256 L2189,257 C2200,258 2183,249 2194,251 C2205,253 2189,256 2200,256 L2211,256 2211,256 L2213,245 C2216,235 2202,247 2201,239 C2200,232 2215,243 2213,233 L2211,224"/></g><clipPath id="c" clipRule="evenodd" fill="transparent"><use href="#t976"/></clipPath></defs><svg viewBox="2170 222 47 37" preserveAspectRatio="xMinYMin meet"><svg width="4380" height="2430"><g><image crossorigin="anonymous" x="0" y="0" href="https://nftpuzzle.license-token.com/assets/completepuzzle.svg" width="100%" height="100%" /><g class="links"><use href="#t976"/></g></g></svg><svg x="2202" y="244" height="9%" width="9%" viewBox="0 0 330 330"><g><a xlink:href="https://nftpuzzle.license-token.com/" class="links"><title>See the most innovative NFT based token software licensing project</title><path fill="#E4CF37" id="more" d="M165,0C74.019,0,0,74.019,0,165s74.019,165,165,165s165-74.019,165-165S255.981,0,165,0z M85,190 c-13.785,0-25-11.215-25-25s11.215-25,25-25s25,11.215,25,25S98.785,190,85,190z M165,190c-13.785,0-25-11.215-25-25 s11.215-25,25-25s25,11.215,25,25S178.785,190,165,190z M245,190c-13.785,0-25-11.215-25-25s11.215-25,25-25 c13.785,0,25,11.215,25,25S258.785,190,245,190z"></path></a></g></svg></svg></svg>