<svg version="1.1" xmlns="http://www.w3.org/2000/svg" xmlns:xlink="http://www.w3.org/1999/xlink" fill="transparent" x="0" y="0" width="350" height="350" preserveAspectRatio="xMinYMin slice"><style type="text/css">.links{fill:transparent;stroke: #E4CF37;}.links:hover{fill:#63D272; opacity:0.4;}</style><defs><g id="allt"><path id="t1001" d="M3036,224 L3025,224 C3014,225 3026,217 3019,218 C3012,220 3024,225 3013,224 L3003,224 3003,224 L3004,233 C3006,242 2994,232 2995,239 C2997,247 3004,236 3003,246 L3003,256 3003,256 L3012,257 C3021,259 3012,247 3019,248 C3027,250 3015,257 3025,256 L3036,256 3036,256 L3038,246 C3041,236 3027,250 3027,240 C3028,231 3036,242 3036,233 L3036,224"/></g><clipPath id="c" clipRule="evenodd" fill="transparent"><use href="#t1001"/></clipPath></defs><svg viewBox="2993 216 49 44" preserveAspectRatio="xMinYMin meet"><svg width="4380" height="2430"><g><image crossorigin="anonymous" x="0" y="0" href="https://nftpuzzle.license-token.com/assets/completepuzzle.svg" width="100%" height="100%" /><g class="links"><use href="#t1001"/></g></g></svg><svg x="3027" y="245" height="9%" width="9%" viewBox="0 0 330 330"><g><a xlink:href="https://nftpuzzle.license-token.com/" class="links"><title>See the most innovative NFT based token software licensing project</title><path fill="#E4CF37" id="more" d="M165,0C74.019,0,0,74.019,0,165s74.019,165,165,165s165-74.019,165-165S255.981,0,165,0z M85,190 c-13.785,0-25-11.215-25-25s11.215-25,25-25s25,11.215,25,25S98.785,190,85,190z M165,190c-13.785,0-25-11.215-25-25 s11.215-25,25-25s25,11.215,25,25S178.785,190,165,190z M245,190c-13.785,0-25-11.215-25-25s11.215-25,25-25 c13.785,0,25,11.215,25,25S258.785,190,245,190z"></path></a></g></svg></svg></svg>