<svg version="1.1" xmlns="http://www.w3.org/2000/svg" xmlns:xlink="http://www.w3.org/1999/xlink" fill="transparent" x="0" y="0" width="350" height="350" preserveAspectRatio="xMinYMin slice"><style type="text/css">.links{fill:transparent;stroke: #E4CF37;}.links:hover{fill:#63D272; opacity:0.4;}</style><defs><g id="allt"><path id="t1012" d="M3399,224 L3389,223 C3380,222 3393,228 3382,228 C3372,229 3385,224 3375,224 L3366,224 3366,224 L3366,232 C3366,241 3355,230 3357,240 C3360,250 3366,236 3366,246 L3366,256 3366,256 L3375,256 C3384,256 3372,245 3382,247 C3393,250 3378,256 3388,256 L3399,256 3399,256 L3399,246 C3399,236 3410,248 3407,239 C3404,230 3394,243 3396,233 L3399,224"/></g><clipPath id="c" clipRule="evenodd" fill="transparent"><use href="#t1012"/></clipPath></defs><svg viewBox="3354 221 57 36" preserveAspectRatio="xMinYMin meet"><svg width="4380" height="2430"><g><image crossorigin="anonymous" x="0" y="0" href="https://nftpuzzle.license-token.com/assets/completepuzzle.svg" width="100%" height="100%" /><g class="links"><use href="#t1012"/></g></g></svg><svg x="3396" y="242" height="9%" width="9%" viewBox="0 0 330 330"><g><a xlink:href="https://nftpuzzle.license-token.com/" class="links"><title>See the most innovative NFT based token software licensing project</title><path fill="#E4CF37" id="more" d="M165,0C74.019,0,0,74.019,0,165s74.019,165,165,165s165-74.019,165-165S255.981,0,165,0z M85,190 c-13.785,0-25-11.215-25-25s11.215-25,25-25s25,11.215,25,25S98.785,190,85,190z M165,190c-13.785,0-25-11.215-25-25 s11.215-25,25-25s25,11.215,25,25S178.785,190,165,190z M245,190c-13.785,0-25-11.215-25-25s11.215-25,25-25 c13.785,0,25,11.215,25,25S258.785,190,245,190z"></path></a></g></svg></svg></svg>