<svg version="1.1" xmlns="http://www.w3.org/2000/svg" xmlns:xlink="http://www.w3.org/1999/xlink" fill="transparent" x="0" y="0" width="350" height="350" preserveAspectRatio="xMinYMin slice"><style type="text/css">.links{fill:transparent;stroke: #E4CF37;}.links:hover{fill:#63D272; opacity:0.4;}</style><defs><g id="allt"><path id="t1028" d="M3927,224 L3916,224 C3905,224 3918,230 3908,230 C3898,230 3914,224 3904,224 L3894,224 3894,224 L3894,232 C3894,241 3902,230 3900,239 C3899,248 3893,237 3893,246 L3894,256 3894,256 L3903,256 C3912,256 3900,264 3909,262 C3918,261 3907,255 3917,255 L3927,256 3927,256 L3926,246 C3925,237 3932,249 3932,239 C3932,230 3926,244 3926,234 L3927,224"/></g><clipPath id="c" clipRule="evenodd" fill="transparent"><use href="#t1028"/></clipPath></defs><svg viewBox="3892 223 41 42" preserveAspectRatio="xMinYMin meet"><svg width="4380" height="2430"><g><image crossorigin="anonymous" x="0" y="0" href="https://nftpuzzle.license-token.com/assets/completepuzzle.svg" width="100%" height="100%" /><g class="links"><use href="#t1028"/></g></g></svg><svg x="3918" y="250" height="9%" width="9%" viewBox="0 0 330 330"><g><a xlink:href="https://nftpuzzle.license-token.com/" class="links"><title>See the most innovative NFT based token software licensing project</title><path fill="#E4CF37" id="more" d="M165,0C74.019,0,0,74.019,0,165s74.019,165,165,165s165-74.019,165-165S255.981,0,165,0z M85,190 c-13.785,0-25-11.215-25-25s11.215-25,25-25s25,11.215,25,25S98.785,190,85,190z M165,190c-13.785,0-25-11.215-25-25 s11.215-25,25-25s25,11.215,25,25S178.785,190,165,190z M245,190c-13.785,0-25-11.215-25-25s11.215-25,25-25 c13.785,0,25,11.215,25,25S258.785,190,245,190z"></path></a></g></svg></svg></svg>