<svg version="1.1" xmlns="http://www.w3.org/2000/svg" xmlns:xlink="http://www.w3.org/1999/xlink" fill="transparent" x="0" y="0" width="350" height="350" preserveAspectRatio="xMinYMin slice"><style type="text/css">.links{fill:transparent;stroke: #E4CF37;}.links:hover{fill:#63D272; opacity:0.4;}</style><defs><g id="allt"><path id="t1029" d="M3960,224 L3949,224 C3939,224 3954,227 3944,228 C3934,229 3948,224 3937,224 L3927,224 3927,224 L3926,234 C3926,244 3932,230 3932,239 C3932,249 3925,237 3926,246 L3927,256 3927,256 L3937,255 C3948,255 3933,261 3943,261 C3953,261 3940,254 3950,255 L3960,256 3960,256 L3957,246 C3955,236 3969,246 3971,239 C3973,233 3957,245 3958,234 L3960,224"/></g><clipPath id="c" clipRule="evenodd" fill="transparent"><use href="#t1029"/></clipPath></defs><svg viewBox="3924 223 50 39" preserveAspectRatio="xMinYMin meet"><svg width="4380" height="2430"><g><image crossorigin="anonymous" x="0" y="0" href="https://nftpuzzle.license-token.com/assets/completepuzzle.svg" width="100%" height="100%" /><g class="links"><use href="#t1029"/></g></g></svg><svg x="3959" y="247" height="9%" width="9%" viewBox="0 0 330 330"><g><a xlink:href="https://nftpuzzle.license-token.com/" class="links"><title>See the most innovative NFT based token software licensing project</title><path fill="#E4CF37" id="more" d="M165,0C74.019,0,0,74.019,0,165s74.019,165,165,165s165-74.019,165-165S255.981,0,165,0z M85,190 c-13.785,0-25-11.215-25-25s11.215-25,25-25s25,11.215,25,25S98.785,190,85,190z M165,190c-13.785,0-25-11.215-25-25 s11.215-25,25-25s25,11.215,25,25S178.785,190,165,190z M245,190c-13.785,0-25-11.215-25-25s11.215-25,25-25 c13.785,0,25,11.215,25,25S258.785,190,245,190z"></path></a></g></svg></svg></svg>