<svg version="1.1" xmlns="http://www.w3.org/2000/svg" xmlns:xlink="http://www.w3.org/1999/xlink" fill="transparent" x="0" y="0" width="350" height="350" preserveAspectRatio="xMinYMin slice"><style type="text/css">.links{fill:transparent;stroke: #E4CF37;}.links:hover{fill:#63D272; opacity:0.4;}</style><defs><g id="allt"><path id="t1030" d="M3993,224 L3982,224 C3971,224 3985,231 3975,232 C3965,233 3978,224 3969,224 L3960,224 3960,224 L3958,234 C3957,245 3973,233 3971,239 C3969,246 3955,236 3957,246 L3960,256 3960,256 L3970,254 C3981,253 3969,269 3976,266 C3983,264 3972,251 3982,253 L3993,256 3993,256 L3994,246 C3996,237 3986,250 3985,240 C3984,230 3994,241 3993,232 L3993,224"/></g><clipPath id="c" clipRule="evenodd" fill="transparent"><use href="#t1030"/></clipPath></defs><svg viewBox="3954 223 43 47" preserveAspectRatio="xMinYMin meet"><svg width="4380" height="2430"><g><image crossorigin="anonymous" x="0" y="0" href="https://nftpuzzle.license-token.com/assets/completepuzzle.svg" width="100%" height="100%" /><g class="links"><use href="#t1030"/></g></g></svg><svg x="3982" y="255" height="9%" width="9%" viewBox="0 0 330 330"><g><a xlink:href="https://nftpuzzle.license-token.com/" class="links"><title>See the most innovative NFT based token software licensing project</title><path fill="#E4CF37" id="more" d="M165,0C74.019,0,0,74.019,0,165s74.019,165,165,165s165-74.019,165-165S255.981,0,165,0z M85,190 c-13.785,0-25-11.215-25-25s11.215-25,25-25s25,11.215,25,25S98.785,190,85,190z M165,190c-13.785,0-25-11.215-25-25 s11.215-25,25-25s25,11.215,25,25S178.785,190,165,190z M245,190c-13.785,0-25-11.215-25-25s11.215-25,25-25 c13.785,0,25,11.215,25,25S258.785,190,245,190z"></path></a></g></svg></svg></svg>