<svg version="1.1" xmlns="http://www.w3.org/2000/svg" xmlns:xlink="http://www.w3.org/1999/xlink" fill="transparent" x="0" y="0" width="350" height="350" preserveAspectRatio="xMinYMin slice"><style type="text/css">.links{fill:transparent;stroke: #E4CF37;}.links:hover{fill:#63D272; opacity:0.4;}</style><defs><g id="allt"><path id="t1035" d="M4158,224 L4147,224 C4137,224 4151,216 4141,218 C4131,220 4146,224 4135,224 L4125,224 4125,224 L4125,233 C4125,242 4115,229 4117,238 C4120,248 4128,234 4126,245 L4125,256 4125,256 L4134,256 C4144,256 4130,246 4140,248 C4150,251 4136,259 4147,257 L4158,256 4158,256 L4158,246 C4158,237 4165,250 4166,240 C4168,231 4158,242 4158,233 L4158,224"/></g><clipPath id="c" clipRule="evenodd" fill="transparent"><use href="#t1035"/></clipPath></defs><svg viewBox="4114 215 55 45" preserveAspectRatio="xMinYMin meet"><svg width="4380" height="2430"><g><image crossorigin="anonymous" x="0" y="0" href="https://nftpuzzle.license-token.com/assets/completepuzzle.svg" width="100%" height="100%" /><g class="links"><use href="#t1035"/></g></g></svg><svg x="4154" y="245" height="9%" width="9%" viewBox="0 0 330 330"><g><a xlink:href="https://nftpuzzle.license-token.com/" class="links"><title>See the most innovative NFT based token software licensing project</title><path fill="#E4CF37" id="more" d="M165,0C74.019,0,0,74.019,0,165s74.019,165,165,165s165-74.019,165-165S255.981,0,165,0z M85,190 c-13.785,0-25-11.215-25-25s11.215-25,25-25s25,11.215,25,25S98.785,190,85,190z M165,190c-13.785,0-25-11.215-25-25 s11.215-25,25-25s25,11.215,25,25S178.785,190,165,190z M245,190c-13.785,0-25-11.215-25-25s11.215-25,25-25 c13.785,0,25,11.215,25,25S258.785,190,245,190z"></path></a></g></svg></svg></svg>