<svg version="1.1" xmlns="http://www.w3.org/2000/svg" xmlns:xlink="http://www.w3.org/1999/xlink" fill="transparent" x="0" y="0" width="350" height="350" preserveAspectRatio="xMinYMin slice"><style type="text/css">.links{fill:transparent;stroke: #E4CF37;}.links:hover{fill:#63D272; opacity:0.4;}</style><defs><g id="allt"><path id="t1037" d="M4224,224 L4213,226 C4202,229 4214,219 4206,218 C4199,218 4213,224 4202,224 L4191,224 4191,224 L4191,234 C4192,245 4187,231 4186,239 C4186,248 4191,236 4191,246 L4191,256 4191,256 L4201,256 C4212,257 4198,252 4207,251 C4216,251 4203,256 4213,256 L4224,256 4224,256 L4223,246 C4223,237 4227,248 4227,238 C4227,228 4223,245 4223,234 L4224,224"/></g><clipPath id="c" clipRule="evenodd" fill="transparent"><use href="#t1037"/></clipPath></defs><svg viewBox="4185 217 43 41" preserveAspectRatio="xMinYMin meet"><svg width="4380" height="2430"><g><image crossorigin="anonymous" x="0" y="0" href="https://nftpuzzle.license-token.com/assets/completepuzzle.svg" width="100%" height="100%" /><g class="links"><use href="#t1037"/></g></g></svg><svg x="4213" y="243" height="9%" width="9%" viewBox="0 0 330 330"><g><a xlink:href="https://nftpuzzle.license-token.com/" class="links"><title>See the most innovative NFT based token software licensing project</title><path fill="#E4CF37" id="more" d="M165,0C74.019,0,0,74.019,0,165s74.019,165,165,165s165-74.019,165-165S255.981,0,165,0z M85,190 c-13.785,0-25-11.215-25-25s11.215-25,25-25s25,11.215,25,25S98.785,190,85,190z M165,190c-13.785,0-25-11.215-25-25 s11.215-25,25-25s25,11.215,25,25S178.785,190,165,190z M245,190c-13.785,0-25-11.215-25-25s11.215-25,25-25 c13.785,0,25,11.215,25,25S258.785,190,245,190z"></path></a></g></svg></svg></svg>