<svg version="1.1" xmlns="http://www.w3.org/2000/svg" xmlns:xlink="http://www.w3.org/1999/xlink" fill="transparent" x="0" y="0" width="350" height="350" preserveAspectRatio="xMinYMin slice"><style type="text/css">.links{fill:transparent;stroke: #E4CF37;}.links:hover{fill:#63D272; opacity:0.4;}</style><defs><g id="allt"><path id="t1038" d="M4257,224 L4246,224 C4236,224 4247,234 4239,232 C4231,231 4245,222 4234,223 L4224,224 4224,224 L4223,234 C4223,245 4227,228 4227,238 C4227,248 4223,237 4223,246 L4224,256 4224,256 L4234,255 C4245,255 4228,259 4238,259 C4249,259 4238,255 4247,255 L4257,256 4257,256 L4257,245 C4257,235 4253,250 4252,240 C4252,230 4257,245 4257,234 L4257,224"/></g><clipPath id="c" clipRule="evenodd" fill="transparent"><use href="#t1038"/></clipPath></defs><svg viewBox="4222 221 36 39" preserveAspectRatio="xMinYMin meet"><svg width="4380" height="2430"><g><image crossorigin="anonymous" x="0" y="0" href="https://nftpuzzle.license-token.com/assets/completepuzzle.svg" width="100%" height="100%" /><g class="links"><use href="#t1038"/></g></g></svg><svg x="4243" y="245" height="9%" width="9%" viewBox="0 0 330 330"><g><a xlink:href="https://nftpuzzle.license-token.com/" class="links"><title>See the most innovative NFT based token software licensing project</title><path fill="#E4CF37" id="more" d="M165,0C74.019,0,0,74.019,0,165s74.019,165,165,165s165-74.019,165-165S255.981,0,165,0z M85,190 c-13.785,0-25-11.215-25-25s11.215-25,25-25s25,11.215,25,25S98.785,190,85,190z M165,190c-13.785,0-25-11.215-25-25 s11.215-25,25-25s25,11.215,25,25S178.785,190,165,190z M245,190c-13.785,0-25-11.215-25-25s11.215-25,25-25 c13.785,0,25,11.215,25,25S258.785,190,245,190z"></path></a></g></svg></svg></svg>