<svg version="1.1" xmlns="http://www.w3.org/2000/svg" xmlns:xlink="http://www.w3.org/1999/xlink" fill="transparent" x="0" y="0" width="350" height="350" preserveAspectRatio="xMinYMin slice"><style type="text/css">.links{fill:transparent;stroke: #E4CF37;}.links:hover{fill:#63D272; opacity:0.4;}</style><defs><g id="allt"><path id="t1070" d="M1023,256 L1012,257 C1002,258 1017,246 1006,248 C995,250 1008,259 999,257 L990,256 990,256 L990,266 C990,276 980,265 982,272 C985,280 994,266 992,277 L990,288 990,288 L1000,288 C1011,288 999,279 1006,281 C1014,283 1000,292 1011,290 L1023,288 1023,288 L1024,277 C1025,266 1018,282 1017,273 C1016,264 1023,273 1023,264 L1023,256"/></g><clipPath id="c" clipRule="evenodd" fill="transparent"><use href="#t1070"/></clipPath></defs><svg viewBox="979 245 47 48" preserveAspectRatio="xMinYMin meet"><svg width="4380" height="2430"><g><image crossorigin="anonymous" x="0" y="0" href="https://nftpuzzle.license-token.com/assets/completepuzzle.svg" width="100%" height="100%" /><g class="links"><use href="#t1070"/></g></g></svg><svg x="1011" y="278" height="9%" width="9%" viewBox="0 0 330 330"><g><a xlink:href="https://nftpuzzle.license-token.com/" class="links"><title>See the most innovative NFT based token software licensing project</title><path fill="#E4CF37" id="more" d="M165,0C74.019,0,0,74.019,0,165s74.019,165,165,165s165-74.019,165-165S255.981,0,165,0z M85,190 c-13.785,0-25-11.215-25-25s11.215-25,25-25s25,11.215,25,25S98.785,190,85,190z M165,190c-13.785,0-25-11.215-25-25 s11.215-25,25-25s25,11.215,25,25S178.785,190,165,190z M245,190c-13.785,0-25-11.215-25-25s11.215-25,25-25 c13.785,0,25,11.215,25,25S258.785,190,245,190z"></path></a></g></svg></svg></svg>