<svg version="1.1" xmlns="http://www.w3.org/2000/svg" xmlns:xlink="http://www.w3.org/1999/xlink" fill="transparent" x="0" y="0" width="350" height="350" preserveAspectRatio="xMinYMin slice"><style type="text/css">.links{fill:transparent;stroke: #E4CF37;}.links:hover{fill:#63D272; opacity:0.4;}</style><defs><g id="allt"><path id="t1072" d="M1089,256 L1079,256 C1070,256 1080,250 1071,250 C1062,251 1077,259 1066,257 L1056,256 1056,256 L1056,265 C1056,274 1054,264 1053,272 C1052,281 1056,267 1056,277 L1056,288 1056,288 L1065,288 C1074,288 1065,286 1073,285 C1082,284 1068,288 1078,288 L1089,288 1089,288 L1089,278 C1090,268 1084,279 1083,270 C1082,261 1090,277 1089,266 L1089,256"/></g><clipPath id="c" clipRule="evenodd" fill="transparent"><use href="#t1072"/></clipPath></defs><svg viewBox="1051 249 40 40" preserveAspectRatio="xMinYMin meet"><svg width="4380" height="2430"><g><image crossorigin="anonymous" x="0" y="0" href="https://nftpuzzle.license-token.com/assets/completepuzzle.svg" width="100%" height="100%" /><g class="links"><use href="#t1072"/></g></g></svg><svg x="1076" y="274" height="9%" width="9%" viewBox="0 0 330 330"><g><a xlink:href="https://nftpuzzle.license-token.com/" class="links"><title>See the most innovative NFT based token software licensing project</title><path fill="#E4CF37" id="more" d="M165,0C74.019,0,0,74.019,0,165s74.019,165,165,165s165-74.019,165-165S255.981,0,165,0z M85,190 c-13.785,0-25-11.215-25-25s11.215-25,25-25s25,11.215,25,25S98.785,190,85,190z M165,190c-13.785,0-25-11.215-25-25 s11.215-25,25-25s25,11.215,25,25S178.785,190,165,190z M245,190c-13.785,0-25-11.215-25-25s11.215-25,25-25 c13.785,0,25,11.215,25,25S258.785,190,245,190z"></path></a></g></svg></svg></svg>