<svg version="1.1" xmlns="http://www.w3.org/2000/svg" xmlns:xlink="http://www.w3.org/1999/xlink" fill="transparent" x="0" y="0" width="350" height="350" preserveAspectRatio="xMinYMin slice"><style type="text/css">.links{fill:transparent;stroke: #E4CF37;}.links:hover{fill:#63D272; opacity:0.4;}</style><defs><g id="allt"><path id="t1075" d="M1188,256 L1178,256 C1169,257 1182,247 1172,245 C1162,244 1175,261 1165,258 L1155,256 1155,256 L1155,266 C1155,277 1164,262 1164,270 C1165,279 1155,266 1155,277 L1155,288 1155,288 L1166,288 C1177,288 1161,297 1169,297 C1178,298 1166,288 1177,288 L1188,288 1188,288 L1187,278 C1186,269 1191,280 1191,272 C1192,264 1188,273 1188,264 L1188,256"/></g><clipPath id="c" clipRule="evenodd" fill="transparent"><use href="#t1075"/></clipPath></defs><svg viewBox="1154 243 39 56" preserveAspectRatio="xMinYMin meet"><svg width="4380" height="2430"><g><image crossorigin="anonymous" x="0" y="0" href="https://nftpuzzle.license-token.com/assets/completepuzzle.svg" width="100%" height="100%" /><g class="links"><use href="#t1075"/></g></g></svg><svg x="1178" y="284" height="9%" width="9%" viewBox="0 0 330 330"><g><a xlink:href="https://nftpuzzle.license-token.com/" class="links"><title>See the most innovative NFT based token software licensing project</title><path fill="#E4CF37" id="more" d="M165,0C74.019,0,0,74.019,0,165s74.019,165,165,165s165-74.019,165-165S255.981,0,165,0z M85,190 c-13.785,0-25-11.215-25-25s11.215-25,25-25s25,11.215,25,25S98.785,190,85,190z M165,190c-13.785,0-25-11.215-25-25 s11.215-25,25-25s25,11.215,25,25S178.785,190,165,190z M245,190c-13.785,0-25-11.215-25-25s11.215-25,25-25 c13.785,0,25,11.215,25,25S258.785,190,245,190z"></path></a></g></svg></svg></svg>