<svg version="1.1" xmlns="http://www.w3.org/2000/svg" xmlns:xlink="http://www.w3.org/1999/xlink" fill="transparent" x="0" y="0" width="350" height="350" preserveAspectRatio="xMinYMin slice"><style type="text/css">.links{fill:transparent;stroke: #E4CF37;}.links:hover{fill:#63D272; opacity:0.4;}</style><defs><g id="allt"><path id="t1076" d="M1221,256 L1210,255 C1199,255 1216,247 1206,249 C1196,251 1209,258 1198,257 L1188,256 1188,256 L1188,264 C1188,273 1192,264 1191,272 C1191,280 1186,269 1187,278 L1188,288 1188,288 L1197,288 C1206,288 1196,292 1204,291 C1213,291 1201,286 1211,287 L1221,288 1221,288 L1221,277 C1221,266 1216,279 1215,271 C1215,264 1222,276 1221,266 L1221,256"/></g><clipPath id="c" clipRule="evenodd" fill="transparent"><use href="#t1076"/></clipPath></defs><svg viewBox="1185 246 38 47" preserveAspectRatio="xMinYMin meet"><svg width="4380" height="2430"><g><image crossorigin="anonymous" x="0" y="0" href="https://nftpuzzle.license-token.com/assets/completepuzzle.svg" width="100%" height="100%" /><g class="links"><use href="#t1076"/></g></g></svg><svg x="1208" y="278" height="9%" width="9%" viewBox="0 0 330 330"><g><a xlink:href="https://nftpuzzle.license-token.com/" class="links"><title>See the most innovative NFT based token software licensing project</title><path fill="#E4CF37" id="more" d="M165,0C74.019,0,0,74.019,0,165s74.019,165,165,165s165-74.019,165-165S255.981,0,165,0z M85,190 c-13.785,0-25-11.215-25-25s11.215-25,25-25s25,11.215,25,25S98.785,190,85,190z M165,190c-13.785,0-25-11.215-25-25 s11.215-25,25-25s25,11.215,25,25S178.785,190,165,190z M245,190c-13.785,0-25-11.215-25-25s11.215-25,25-25 c13.785,0,25,11.215,25,25S258.785,190,245,190z"></path></a></g></svg></svg></svg>