<svg version="1.1" xmlns="http://www.w3.org/2000/svg" xmlns:xlink="http://www.w3.org/1999/xlink" fill="transparent" x="0" y="0" width="350" height="350" preserveAspectRatio="xMinYMin slice"><style type="text/css">.links{fill:transparent;stroke: #E4CF37;}.links:hover{fill:#63D272; opacity:0.4;}</style><defs><g id="allt"><path id="t1086" d="M1551,256 L1541,255 C1531,255 1546,266 1535,264 C1525,263 1537,252 1527,254 L1518,256 1518,256 L1519,266 C1521,277 1511,262 1510,270 C1510,279 1519,270 1518,279 L1518,288 1518,288 L1528,289 C1539,291 1524,281 1533,280 C1542,280 1532,289 1541,288 L1551,288 1551,288 L1551,277 C1551,266 1562,282 1560,272 C1559,263 1550,277 1550,266 L1551,256"/></g><clipPath id="c" clipRule="evenodd" fill="transparent"><use href="#t1086"/></clipPath></defs><svg viewBox="1509 251 54 41" preserveAspectRatio="xMinYMin meet"><svg width="4380" height="2430"><g><image crossorigin="anonymous" x="0" y="0" href="https://nftpuzzle.license-token.com/assets/completepuzzle.svg" width="100%" height="100%" /><g class="links"><use href="#t1086"/></g></g></svg><svg x="1548" y="277" height="9%" width="9%" viewBox="0 0 330 330"><g><a xlink:href="https://nftpuzzle.license-token.com/" class="links"><title>See the most innovative NFT based token software licensing project</title><path fill="#E4CF37" id="more" d="M165,0C74.019,0,0,74.019,0,165s74.019,165,165,165s165-74.019,165-165S255.981,0,165,0z M85,190 c-13.785,0-25-11.215-25-25s11.215-25,25-25s25,11.215,25,25S98.785,190,85,190z M165,190c-13.785,0-25-11.215-25-25 s11.215-25,25-25s25,11.215,25,25S178.785,190,165,190z M245,190c-13.785,0-25-11.215-25-25s11.215-25,25-25 c13.785,0,25,11.215,25,25S258.785,190,245,190z"></path></a></g></svg></svg></svg>