<svg version="1.1" xmlns="http://www.w3.org/2000/svg" xmlns:xlink="http://www.w3.org/1999/xlink" fill="transparent" x="0" y="0" width="350" height="350" preserveAspectRatio="xMinYMin slice"><style type="text/css">.links{fill:transparent;stroke: #E4CF37;}.links:hover{fill:#63D272; opacity:0.4;}</style><defs><g id="allt"><path id="t1094" d="M1815,256 L1805,254 C1795,252 1808,261 1798,263 C1789,265 1802,256 1792,256 L1782,256 1782,256 L1782,265 C1782,275 1776,265 1774,273 C1773,281 1782,269 1782,278 L1782,288 1782,288 L1792,288 C1802,288 1791,282 1799,281 C1808,280 1795,288 1805,288 L1815,288 1815,288 L1815,277 C1816,267 1812,281 1812,272 C1813,264 1817,277 1816,266 L1815,256"/></g><clipPath id="c" clipRule="evenodd" fill="transparent"><use href="#t1094"/></clipPath></defs><svg viewBox="1772 251 46 38" preserveAspectRatio="xMinYMin meet"><svg width="4380" height="2430"><g><image crossorigin="anonymous" x="0" y="0" href="https://nftpuzzle.license-token.com/assets/completepuzzle.svg" width="100%" height="100%" /><g class="links"><use href="#t1094"/></g></g></svg><svg x="1803" y="274" height="9%" width="9%" viewBox="0 0 330 330"><g><a xlink:href="https://nftpuzzle.license-token.com/" class="links"><title>See the most innovative NFT based token software licensing project</title><path fill="#E4CF37" id="more" d="M165,0C74.019,0,0,74.019,0,165s74.019,165,165,165s165-74.019,165-165S255.981,0,165,0z M85,190 c-13.785,0-25-11.215-25-25s11.215-25,25-25s25,11.215,25,25S98.785,190,85,190z M165,190c-13.785,0-25-11.215-25-25 s11.215-25,25-25s25,11.215,25,25S178.785,190,165,190z M245,190c-13.785,0-25-11.215-25-25s11.215-25,25-25 c13.785,0,25,11.215,25,25S258.785,190,245,190z"></path></a></g></svg></svg></svg>