<svg version="1.1" xmlns="http://www.w3.org/2000/svg" xmlns:xlink="http://www.w3.org/1999/xlink" fill="transparent" x="0" y="0" width="350" height="350" preserveAspectRatio="xMinYMin slice"><style type="text/css">.links{fill:transparent;stroke: #E4CF37;}.links:hover{fill:#63D272; opacity:0.4;}</style><defs><g id="allt"><path id="t1100" d="M2013,256 L2002,256 C1992,256 2007,265 1996,265 C1985,265 2000,256 1990,256 L1980,256 1980,256 L1980,266 C1980,276 1991,262 1988,271 C1985,281 1978,267 1979,277 L1980,288 1980,288 L1990,288 C2000,288 1986,299 1996,296 C2006,293 1991,286 2002,287 L2013,288 2013,288 L2013,278 C2013,268 2021,282 2021,272 C2021,262 2013,276 2013,266 L2013,256"/></g><clipPath id="c" clipRule="evenodd" fill="transparent"><use href="#t1100"/></clipPath></defs><svg viewBox="1977 255 45 45" preserveAspectRatio="xMinYMin meet"><svg width="4380" height="2430"><g><image crossorigin="anonymous" x="0" y="0" href="https://nftpuzzle.license-token.com/assets/completepuzzle.svg" width="100%" height="100%" /><g class="links"><use href="#t1100"/></g></g></svg><svg x="2007" y="285" height="9%" width="9%" viewBox="0 0 330 330"><g><a xlink:href="https://nftpuzzle.license-token.com/" class="links"><title>See the most innovative NFT based token software licensing project</title><path fill="#E4CF37" id="more" d="M165,0C74.019,0,0,74.019,0,165s74.019,165,165,165s165-74.019,165-165S255.981,0,165,0z M85,190 c-13.785,0-25-11.215-25-25s11.215-25,25-25s25,11.215,25,25S98.785,190,85,190z M165,190c-13.785,0-25-11.215-25-25 s11.215-25,25-25s25,11.215,25,25S178.785,190,165,190z M245,190c-13.785,0-25-11.215-25-25s11.215-25,25-25 c13.785,0,25,11.215,25,25S258.785,190,245,190z"></path></a></g></svg></svg></svg>