<svg version="1.1" xmlns="http://www.w3.org/2000/svg" xmlns:xlink="http://www.w3.org/1999/xlink" fill="transparent" x="0" y="0" width="350" height="350" preserveAspectRatio="xMinYMin slice"><style type="text/css">.links{fill:transparent;stroke: #E4CF37;}.links:hover{fill:#63D272; opacity:0.4;}</style><defs><g id="allt"><path id="t1102" d="M2079,256 L2068,256 C2058,256 2069,259 2061,260 C2054,261 2066,256 2056,256 L2046,256 2046,256 L2046,265 C2046,275 2042,261 2043,269 C2044,278 2046,269 2046,278 L2046,288 2046,288 L2056,288 C2066,288 2051,284 2060,285 C2069,286 2059,288 2069,288 L2079,288 2079,288 L2078,279 C2078,270 2081,280 2081,271 C2081,262 2078,275 2078,265 L2079,256"/></g><clipPath id="c" clipRule="evenodd" fill="transparent"><use href="#t1102"/></clipPath></defs><svg viewBox="2041 255 41 34" preserveAspectRatio="xMinYMin meet"><svg width="4380" height="2430"><g><image crossorigin="anonymous" x="0" y="0" href="https://nftpuzzle.license-token.com/assets/completepuzzle.svg" width="100%" height="100%" /><g class="links"><use href="#t1102"/></g></g></svg><svg x="2067" y="274" height="9%" width="9%" viewBox="0 0 330 330"><g><a xlink:href="https://nftpuzzle.license-token.com/" class="links"><title>See the most innovative NFT based token software licensing project</title><path fill="#E4CF37" id="more" d="M165,0C74.019,0,0,74.019,0,165s74.019,165,165,165s165-74.019,165-165S255.981,0,165,0z M85,190 c-13.785,0-25-11.215-25-25s11.215-25,25-25s25,11.215,25,25S98.785,190,85,190z M165,190c-13.785,0-25-11.215-25-25 s11.215-25,25-25s25,11.215,25,25S178.785,190,165,190z M245,190c-13.785,0-25-11.215-25-25s11.215-25,25-25 c13.785,0,25,11.215,25,25S258.785,190,245,190z"></path></a></g></svg></svg></svg>