<svg version="1.1" xmlns="http://www.w3.org/2000/svg" xmlns:xlink="http://www.w3.org/1999/xlink" fill="transparent" x="0" y="0" width="350" height="350" preserveAspectRatio="xMinYMin slice"><style type="text/css">.links{fill:transparent;stroke: #E4CF37;}.links:hover{fill:#63D272; opacity:0.4;}</style><defs><g id="allt"><path id="t1103" d="M2112,256 L2101,257 C2090,258 2105,252 2095,250 C2086,249 2097,256 2088,256 L2079,256 2079,256 L2078,265 C2078,275 2081,262 2081,271 C2081,280 2078,270 2078,279 L2079,288 2079,288 L2089,287 C2099,287 2085,290 2094,290 C2103,290 2093,287 2102,287 L2112,288 2112,288 L2114,278 C2116,268 2107,282 2105,272 C2104,263 2113,275 2112,265 L2112,256"/></g><clipPath id="c" clipRule="evenodd" fill="transparent"><use href="#t1103"/></clipPath></defs><svg viewBox="2077 248 40 43" preserveAspectRatio="xMinYMin meet"><svg width="4380" height="2430"><g><image crossorigin="anonymous" x="0" y="0" href="https://nftpuzzle.license-token.com/assets/completepuzzle.svg" width="100%" height="100%" /><g class="links"><use href="#t1103"/></g></g></svg><svg x="2102" y="276" height="9%" width="9%" viewBox="0 0 330 330"><g><a xlink:href="https://nftpuzzle.license-token.com/" class="links"><title>See the most innovative NFT based token software licensing project</title><path fill="#E4CF37" id="more" d="M165,0C74.019,0,0,74.019,0,165s74.019,165,165,165s165-74.019,165-165S255.981,0,165,0z M85,190 c-13.785,0-25-11.215-25-25s11.215-25,25-25s25,11.215,25,25S98.785,190,85,190z M165,190c-13.785,0-25-11.215-25-25 s11.215-25,25-25s25,11.215,25,25S178.785,190,165,190z M245,190c-13.785,0-25-11.215-25-25s11.215-25,25-25 c13.785,0,25,11.215,25,25S258.785,190,245,190z"></path></a></g></svg></svg></svg>