<svg version="1.1" xmlns="http://www.w3.org/2000/svg" xmlns:xlink="http://www.w3.org/1999/xlink" fill="transparent" x="0" y="0" width="350" height="350" preserveAspectRatio="xMinYMin slice"><style type="text/css">.links{fill:transparent;stroke: #E4CF37;}.links:hover{fill:#63D272; opacity:0.4;}</style><defs><g id="allt"><path id="t1108" d="M2277,256 L2267,257 C2258,258 2267,248 2258,248 C2250,248 2265,256 2254,256 L2244,256 2244,256 L2242,264 C2240,273 2252,260 2251,271 C2251,282 2240,269 2242,278 L2244,288 2244,288 L2253,286 C2262,284 2248,296 2259,295 C2271,295 2257,284 2267,286 L2277,288 2277,288 L2275,278 C2273,269 2286,280 2286,271 C2286,263 2274,274 2275,265 L2277,256"/></g><clipPath id="c" clipRule="evenodd" fill="transparent"><use href="#t1108"/></clipPath></defs><svg viewBox="2239 247 48 50" preserveAspectRatio="xMinYMin meet"><svg width="4380" height="2430"><g><image crossorigin="anonymous" x="0" y="0" href="https://nftpuzzle.license-token.com/assets/completepuzzle.svg" width="100%" height="100%" /><g class="links"><use href="#t1108"/></g></g></svg><svg x="2272" y="282" height="9%" width="9%" viewBox="0 0 330 330"><g><a xlink:href="https://nftpuzzle.license-token.com/" class="links"><title>See the most innovative NFT based token software licensing project</title><path fill="#E4CF37" id="more" d="M165,0C74.019,0,0,74.019,0,165s74.019,165,165,165s165-74.019,165-165S255.981,0,165,0z M85,190 c-13.785,0-25-11.215-25-25s11.215-25,25-25s25,11.215,25,25S98.785,190,85,190z M165,190c-13.785,0-25-11.215-25-25 s11.215-25,25-25s25,11.215,25,25S178.785,190,165,190z M245,190c-13.785,0-25-11.215-25-25s11.215-25,25-25 c13.785,0,25,11.215,25,25S258.785,190,245,190z"></path></a></g></svg></svg></svg>