<svg version="1.1" xmlns="http://www.w3.org/2000/svg" xmlns:xlink="http://www.w3.org/1999/xlink" fill="transparent" x="0" y="0" width="350" height="350" preserveAspectRatio="xMinYMin slice"><style type="text/css">.links{fill:transparent;stroke: #E4CF37;}.links:hover{fill:#63D272; opacity:0.4;}</style><defs><g id="allt"><path id="t1111" d="M2376,256 L2365,254 C2354,253 2366,261 2357,262 C2348,263 2362,253 2352,254 L2343,256 2343,256 L2343,266 C2343,276 2338,262 2337,271 C2337,281 2343,267 2343,277 L2343,288 2343,288 L2353,288 C2364,288 2349,283 2359,282 C2369,282 2354,288 2365,288 L2376,288 2376,288 L2376,278 C2376,269 2371,279 2371,271 C2371,263 2376,276 2376,266 L2376,256"/></g><clipPath id="c" clipRule="evenodd" fill="transparent"><use href="#t1111"/></clipPath></defs><svg viewBox="2336 252 41 37" preserveAspectRatio="xMinYMin meet"><svg width="4380" height="2430"><g><image crossorigin="anonymous" x="0" y="0" href="https://nftpuzzle.license-token.com/assets/completepuzzle.svg" width="100%" height="100%" /><g class="links"><use href="#t1111"/></g></g></svg><svg x="2362" y="274" height="9%" width="9%" viewBox="0 0 330 330"><g><a xlink:href="https://nftpuzzle.license-token.com/" class="links"><title>See the most innovative NFT based token software licensing project</title><path fill="#E4CF37" id="more" d="M165,0C74.019,0,0,74.019,0,165s74.019,165,165,165s165-74.019,165-165S255.981,0,165,0z M85,190 c-13.785,0-25-11.215-25-25s11.215-25,25-25s25,11.215,25,25S98.785,190,85,190z M165,190c-13.785,0-25-11.215-25-25 s11.215-25,25-25s25,11.215,25,25S178.785,190,165,190z M245,190c-13.785,0-25-11.215-25-25s11.215-25,25-25 c13.785,0,25,11.215,25,25S258.785,190,245,190z"></path></a></g></svg></svg></svg>