<svg version="1.1" xmlns="http://www.w3.org/2000/svg" xmlns:xlink="http://www.w3.org/1999/xlink" fill="transparent" x="0" y="0" width="350" height="350" preserveAspectRatio="xMinYMin slice"><style type="text/css">.links{fill:transparent;stroke: #E4CF37;}.links:hover{fill:#63D272; opacity:0.4;}</style><defs><g id="allt"><path id="t1112" d="M2409,256 L2398,255 C2387,255 2403,263 2394,261 C2385,259 2395,254 2385,255 L2376,256 2376,256 L2376,266 C2376,276 2371,263 2371,271 C2371,279 2376,269 2376,278 L2376,288 2376,288 L2386,288 C2396,288 2383,283 2391,283 C2400,283 2389,288 2399,288 L2409,288 2409,288 L2409,277 C2409,267 2398,280 2397,270 C2396,260 2409,274 2409,265 L2409,256"/></g><clipPath id="c" clipRule="evenodd" fill="transparent"><use href="#t1112"/></clipPath></defs><svg viewBox="2370 253 40 36" preserveAspectRatio="xMinYMin meet"><svg width="4380" height="2430"><g><image crossorigin="anonymous" x="0" y="0" href="https://nftpuzzle.license-token.com/assets/completepuzzle.svg" width="100%" height="100%" /><g class="links"><use href="#t1112"/></g></g></svg><svg x="2395" y="274" height="9%" width="9%" viewBox="0 0 330 330"><g><a xlink:href="https://nftpuzzle.license-token.com/" class="links"><title>See the most innovative NFT based token software licensing project</title><path fill="#E4CF37" id="more" d="M165,0C74.019,0,0,74.019,0,165s74.019,165,165,165s165-74.019,165-165S255.981,0,165,0z M85,190 c-13.785,0-25-11.215-25-25s11.215-25,25-25s25,11.215,25,25S98.785,190,85,190z M165,190c-13.785,0-25-11.215-25-25 s11.215-25,25-25s25,11.215,25,25S178.785,190,165,190z M245,190c-13.785,0-25-11.215-25-25s11.215-25,25-25 c13.785,0,25,11.215,25,25S258.785,190,245,190z"></path></a></g></svg></svg></svg>