<svg version="1.1" xmlns="http://www.w3.org/2000/svg" xmlns:xlink="http://www.w3.org/1999/xlink" fill="transparent" x="0" y="0" width="350" height="350" preserveAspectRatio="xMinYMin slice"><style type="text/css">.links{fill:transparent;stroke: #E4CF37;}.links:hover{fill:#63D272; opacity:0.4;}</style><defs><g id="allt"><path id="t1116" d="M2541,256 L2530,256 C2520,256 2536,252 2525,251 C2515,251 2527,257 2517,256 L2508,256 2508,256 L2505,264 C2503,273 2519,263 2519,271 C2519,279 2508,267 2508,277 L2508,288 2508,288 L2517,285 C2526,283 2515,299 2523,299 C2532,299 2520,288 2530,288 L2541,288 2541,288 L2541,277 C2541,267 2534,280 2535,272 C2536,265 2542,274 2541,265 L2541,256"/></g><clipPath id="c" clipRule="evenodd" fill="transparent"><use href="#t1116"/></clipPath></defs><svg viewBox="2502 250 41 50" preserveAspectRatio="xMinYMin meet"><svg width="4380" height="2430"><g><image crossorigin="anonymous" x="0" y="0" href="https://nftpuzzle.license-token.com/assets/completepuzzle.svg" width="100%" height="100%" /><g class="links"><use href="#t1116"/></g></g></svg><svg x="2528" y="285" height="9%" width="9%" viewBox="0 0 330 330"><g><a xlink:href="https://nftpuzzle.license-token.com/" class="links"><title>See the most innovative NFT based token software licensing project</title><path fill="#E4CF37" id="more" d="M165,0C74.019,0,0,74.019,0,165s74.019,165,165,165s165-74.019,165-165S255.981,0,165,0z M85,190 c-13.785,0-25-11.215-25-25s11.215-25,25-25s25,11.215,25,25S98.785,190,85,190z M165,190c-13.785,0-25-11.215-25-25 s11.215-25,25-25s25,11.215,25,25S178.785,190,165,190z M245,190c-13.785,0-25-11.215-25-25s11.215-25,25-25 c13.785,0,25,11.215,25,25S258.785,190,245,190z"></path></a></g></svg></svg></svg>