<svg version="1.1" xmlns="http://www.w3.org/2000/svg" xmlns:xlink="http://www.w3.org/1999/xlink" fill="transparent" x="0" y="0" width="350" height="350" preserveAspectRatio="xMinYMin slice"><style type="text/css">.links{fill:transparent;stroke: #E4CF37;}.links:hover{fill:#63D272; opacity:0.4;}</style><defs><g id="allt"><path id="t1117" d="M2574,256 L2564,256 C2555,256 2568,254 2557,253 C2546,252 2562,258 2551,257 L2541,256 2541,256 L2541,265 C2542,274 2536,265 2535,272 C2534,280 2541,267 2541,277 L2541,288 2541,288 L2550,288 C2560,289 2550,283 2558,282 C2566,281 2553,288 2563,288 L2574,288 2574,288 L2575,278 C2577,269 2561,282 2564,271 C2567,261 2575,275 2574,265 L2574,256"/></g><clipPath id="c" clipRule="evenodd" fill="transparent"><use href="#t1117"/></clipPath></defs><svg viewBox="2533 251 45 39" preserveAspectRatio="xMinYMin meet"><svg width="4380" height="2430"><g><image crossorigin="anonymous" x="0" y="0" href="https://nftpuzzle.license-token.com/assets/completepuzzle.svg" width="100%" height="100%" /><g class="links"><use href="#t1117"/></g></g></svg><svg x="2563" y="275" height="9%" width="9%" viewBox="0 0 330 330"><g><a xlink:href="https://nftpuzzle.license-token.com/" class="links"><title>See the most innovative NFT based token software licensing project</title><path fill="#E4CF37" id="more" d="M165,0C74.019,0,0,74.019,0,165s74.019,165,165,165s165-74.019,165-165S255.981,0,165,0z M85,190 c-13.785,0-25-11.215-25-25s11.215-25,25-25s25,11.215,25,25S98.785,190,85,190z M165,190c-13.785,0-25-11.215-25-25 s11.215-25,25-25s25,11.215,25,25S178.785,190,165,190z M245,190c-13.785,0-25-11.215-25-25s11.215-25,25-25 c13.785,0,25,11.215,25,25S258.785,190,245,190z"></path></a></g></svg></svg></svg>