<svg version="1.1" xmlns="http://www.w3.org/2000/svg" xmlns:xlink="http://www.w3.org/1999/xlink" fill="transparent" x="0" y="0" width="350" height="350" preserveAspectRatio="xMinYMin slice"><style type="text/css">.links{fill:transparent;stroke: #E4CF37;}.links:hover{fill:#63D272; opacity:0.4;}</style><defs><g id="allt"><path id="t1128" d="M2937,256 L2926,256 C2915,256 2932,266 2922,264 C2913,263 2926,251 2915,253 L2904,256 2904,256 L2901,265 C2899,274 2912,264 2912,271 C2913,278 2904,269 2904,278 L2904,288 2904,288 L2913,285 C2922,283 2912,296 2919,296 C2927,297 2917,288 2927,288 L2937,288 2937,288 L2938,278 C2940,269 2929,280 2930,271 C2932,262 2937,276 2937,266 L2937,256"/></g><clipPath id="c" clipRule="evenodd" fill="transparent"><use href="#t1128"/></clipPath></defs><svg viewBox="2898 250 43 48" preserveAspectRatio="xMinYMin meet"><svg width="4380" height="2430"><g><image crossorigin="anonymous" x="0" y="0" href="https://nftpuzzle.license-token.com/assets/completepuzzle.svg" width="100%" height="100%" /><g class="links"><use href="#t1128"/></g></g></svg><svg x="2926" y="283" height="9%" width="9%" viewBox="0 0 330 330"><g><a xlink:href="https://nftpuzzle.license-token.com/" class="links"><title>See the most innovative NFT based token software licensing project</title><path fill="#E4CF37" id="more" d="M165,0C74.019,0,0,74.019,0,165s74.019,165,165,165s165-74.019,165-165S255.981,0,165,0z M85,190 c-13.785,0-25-11.215-25-25s11.215-25,25-25s25,11.215,25,25S98.785,190,85,190z M165,190c-13.785,0-25-11.215-25-25 s11.215-25,25-25s25,11.215,25,25S178.785,190,165,190z M245,190c-13.785,0-25-11.215-25-25s11.215-25,25-25 c13.785,0,25,11.215,25,25S258.785,190,245,190z"></path></a></g></svg></svg></svg>