<svg version="1.1" xmlns="http://www.w3.org/2000/svg" xmlns:xlink="http://www.w3.org/1999/xlink" fill="transparent" x="0" y="0" width="350" height="350" preserveAspectRatio="xMinYMin slice"><style type="text/css">.links{fill:transparent;stroke: #E4CF37;}.links:hover{fill:#63D272; opacity:0.4;}</style><defs><g id="allt"><path id="t1131" d="M3036,256 L3025,256 C3015,257 3027,250 3019,248 C3012,247 3021,259 3012,257 L3003,256 3003,256 L3003,266 C3003,276 3007,263 3007,273 C3008,283 3003,266 3003,277 L3003,288 3003,288 L3013,288 C3024,288 3010,292 3020,292 C3031,293 3013,288 3024,288 L3036,288 3036,288 L3036,277 C3036,267 3034,282 3033,272 C3032,263 3037,274 3036,265 L3036,256"/></g><clipPath id="c" clipRule="evenodd" fill="transparent"><use href="#t1131"/></clipPath></defs><svg viewBox="3002 246 36 48" preserveAspectRatio="xMinYMin meet"><svg width="4380" height="2430"><g><image crossorigin="anonymous" x="0" y="0" href="https://nftpuzzle.license-token.com/assets/completepuzzle.svg" width="100%" height="100%" /><g class="links"><use href="#t1131"/></g></g></svg><svg x="3023" y="279" height="9%" width="9%" viewBox="0 0 330 330"><g><a xlink:href="https://nftpuzzle.license-token.com/" class="links"><title>See the most innovative NFT based token software licensing project</title><path fill="#E4CF37" id="more" d="M165,0C74.019,0,0,74.019,0,165s74.019,165,165,165s165-74.019,165-165S255.981,0,165,0z M85,190 c-13.785,0-25-11.215-25-25s11.215-25,25-25s25,11.215,25,25S98.785,190,85,190z M165,190c-13.785,0-25-11.215-25-25 s11.215-25,25-25s25,11.215,25,25S178.785,190,165,190z M245,190c-13.785,0-25-11.215-25-25s11.215-25,25-25 c13.785,0,25,11.215,25,25S258.785,190,245,190z"></path></a></g></svg></svg></svg>