<svg version="1.1" xmlns="http://www.w3.org/2000/svg" xmlns:xlink="http://www.w3.org/1999/xlink" fill="transparent" x="0" y="0" width="350" height="350" preserveAspectRatio="xMinYMin slice"><style type="text/css">.links{fill:transparent;stroke: #E4CF37;}.links:hover{fill:#63D272; opacity:0.4;}</style><defs><g id="allt"><path id="t1133" d="M3102,256 L3090,256 C3079,256 3094,263 3084,263 C3075,263 3090,256 3079,256 L3069,256 3069,256 L3069,265 C3070,275 3066,260 3065,270 C3064,280 3070,269 3069,278 L3069,288 3069,288 L3079,288 C3089,289 3073,285 3083,284 C3094,283 3083,289 3092,288 L3102,288 3102,288 L3102,278 C3103,268 3099,282 3098,273 C3097,264 3102,274 3102,265 L3102,256"/></g><clipPath id="c" clipRule="evenodd" fill="transparent"><use href="#t1133"/></clipPath></defs><svg viewBox="3063 255 41 35" preserveAspectRatio="xMinYMin meet"><svg width="4380" height="2430"><g><image crossorigin="anonymous" x="0" y="0" href="https://nftpuzzle.license-token.com/assets/completepuzzle.svg" width="100%" height="100%" /><g class="links"><use href="#t1133"/></g></g></svg><svg x="3089" y="275" height="9%" width="9%" viewBox="0 0 330 330"><g><a xlink:href="https://nftpuzzle.license-token.com/" class="links"><title>See the most innovative NFT based token software licensing project</title><path fill="#E4CF37" id="more" d="M165,0C74.019,0,0,74.019,0,165s74.019,165,165,165s165-74.019,165-165S255.981,0,165,0z M85,190 c-13.785,0-25-11.215-25-25s11.215-25,25-25s25,11.215,25,25S98.785,190,85,190z M165,190c-13.785,0-25-11.215-25-25 s11.215-25,25-25s25,11.215,25,25S178.785,190,165,190z M245,190c-13.785,0-25-11.215-25-25s11.215-25,25-25 c13.785,0,25,11.215,25,25S258.785,190,245,190z"></path></a></g></svg></svg></svg>