<svg version="1.1" xmlns="http://www.w3.org/2000/svg" xmlns:xlink="http://www.w3.org/1999/xlink" fill="transparent" x="0" y="0" width="350" height="350" preserveAspectRatio="xMinYMin slice"><style type="text/css">.links{fill:transparent;stroke: #E4CF37;}.links:hover{fill:#63D272; opacity:0.4;}</style><defs><g id="allt"><path id="t1135" d="M3168,256 L3158,256 C3149,256 3158,263 3150,262 C3142,262 3157,253 3146,254 L3135,256 3135,256 L3136,265 C3138,275 3125,262 3127,272 C3129,283 3137,266 3136,277 L3135,288 3135,288 L3144,289 C3154,291 3141,278 3152,280 C3163,282 3146,290 3157,289 L3168,288 3168,288 L3170,278 C3173,268 3156,280 3159,272 C3162,264 3168,276 3168,266 L3168,256"/></g><clipPath id="c" clipRule="evenodd" fill="transparent"><use href="#t1135"/></clipPath></defs><svg viewBox="3124 252 50 40" preserveAspectRatio="xMinYMin meet"><svg width="4380" height="2430"><g><image crossorigin="anonymous" x="0" y="0" href="https://nftpuzzle.license-token.com/assets/completepuzzle.svg" width="100%" height="100%" /><g class="links"><use href="#t1135"/></g></g></svg><svg x="3159" y="277" height="9%" width="9%" viewBox="0 0 330 330"><g><a xlink:href="https://nftpuzzle.license-token.com/" class="links"><title>See the most innovative NFT based token software licensing project</title><path fill="#E4CF37" id="more" d="M165,0C74.019,0,0,74.019,0,165s74.019,165,165,165s165-74.019,165-165S255.981,0,165,0z M85,190 c-13.785,0-25-11.215-25-25s11.215-25,25-25s25,11.215,25,25S98.785,190,85,190z M165,190c-13.785,0-25-11.215-25-25 s11.215-25,25-25s25,11.215,25,25S178.785,190,165,190z M245,190c-13.785,0-25-11.215-25-25s11.215-25,25-25 c13.785,0,25,11.215,25,25S258.785,190,245,190z"></path></a></g></svg></svg></svg>