<svg version="1.1" xmlns="http://www.w3.org/2000/svg" xmlns:xlink="http://www.w3.org/1999/xlink" fill="transparent" x="0" y="0" width="350" height="350" preserveAspectRatio="xMinYMin slice"><style type="text/css">.links{fill:transparent;stroke: #E4CF37;}.links:hover{fill:#63D272; opacity:0.4;}</style><defs><g id="allt"><path id="t1137" d="M3234,256 L3224,255 C3215,255 3228,259 3218,259 C3208,260 3220,254 3210,255 L3201,256 3201,256 L3201,266 C3201,276 3198,265 3197,273 C3197,282 3202,268 3201,278 L3201,288 3201,288 L3211,288 C3221,288 3210,285 3219,284 C3228,284 3214,289 3224,288 L3234,288 3234,288 L3234,277 C3234,267 3227,281 3224,272 C3222,264 3235,276 3234,266 L3234,256"/></g><clipPath id="c" clipRule="evenodd" fill="transparent"><use href="#t1137"/></clipPath></defs><svg viewBox="3196 253 40 37" preserveAspectRatio="xMinYMin meet"><svg width="4380" height="2430"><g><image crossorigin="anonymous" x="0" y="0" href="https://nftpuzzle.license-token.com/assets/completepuzzle.svg" width="100%" height="100%" /><g class="links"><use href="#t1137"/></g></g></svg><svg x="3221" y="275" height="9%" width="9%" viewBox="0 0 330 330"><g><a xlink:href="https://nftpuzzle.license-token.com/" class="links"><title>See the most innovative NFT based token software licensing project</title><path fill="#E4CF37" id="more" d="M165,0C74.019,0,0,74.019,0,165s74.019,165,165,165s165-74.019,165-165S255.981,0,165,0z M85,190 c-13.785,0-25-11.215-25-25s11.215-25,25-25s25,11.215,25,25S98.785,190,85,190z M165,190c-13.785,0-25-11.215-25-25 s11.215-25,25-25s25,11.215,25,25S178.785,190,165,190z M245,190c-13.785,0-25-11.215-25-25s11.215-25,25-25 c13.785,0,25,11.215,25,25S258.785,190,245,190z"></path></a></g></svg></svg></svg>