<svg version="1.1" xmlns="http://www.w3.org/2000/svg" xmlns:xlink="http://www.w3.org/1999/xlink" fill="transparent" x="0" y="0" width="350" height="350" preserveAspectRatio="xMinYMin slice"><style type="text/css">.links{fill:transparent;stroke: #E4CF37;}.links:hover{fill:#63D272; opacity:0.4;}</style><defs><g id="allt"><path id="t1138" d="M3267,256 L3256,256 C3246,256 3261,262 3252,261 C3243,261 3255,256 3244,256 L3234,256 3234,256 L3234,266 C3235,276 3222,264 3224,272 C3227,281 3234,267 3234,277 L3234,288 3234,288 L3244,288 C3255,289 3242,276 3251,278 C3260,281 3245,288 3256,288 L3267,288 3267,288 L3267,279 C3267,270 3261,280 3261,271 C3261,263 3269,274 3268,265 L3267,256"/></g><clipPath id="c" clipRule="evenodd" fill="transparent"><use href="#t1138"/></clipPath></defs><svg viewBox="3221 255 49 35" preserveAspectRatio="xMinYMin meet"><svg width="4380" height="2430"><g><image crossorigin="anonymous" x="0" y="0" href="https://nftpuzzle.license-token.com/assets/completepuzzle.svg" width="100%" height="100%" /><g class="links"><use href="#t1138"/></g></g></svg><svg x="3255" y="275" height="9%" width="9%" viewBox="0 0 330 330"><g><a xlink:href="https://nftpuzzle.license-token.com/" class="links"><title>See the most innovative NFT based token software licensing project</title><path fill="#E4CF37" id="more" d="M165,0C74.019,0,0,74.019,0,165s74.019,165,165,165s165-74.019,165-165S255.981,0,165,0z M85,190 c-13.785,0-25-11.215-25-25s11.215-25,25-25s25,11.215,25,25S98.785,190,85,190z M165,190c-13.785,0-25-11.215-25-25 s11.215-25,25-25s25,11.215,25,25S178.785,190,165,190z M245,190c-13.785,0-25-11.215-25-25s11.215-25,25-25 c13.785,0,25,11.215,25,25S258.785,190,245,190z"></path></a></g></svg></svg></svg>