<svg version="1.1" xmlns="http://www.w3.org/2000/svg" xmlns:xlink="http://www.w3.org/1999/xlink" fill="transparent" x="0" y="0" width="350" height="350" preserveAspectRatio="xMinYMin slice"><style type="text/css">.links{fill:transparent;stroke: #E4CF37;}.links:hover{fill:#63D272; opacity:0.4;}</style><defs><g id="allt"><path id="t1139" d="M3300,256 L3289,257 C3278,258 3293,253 3284,252 C3276,252 3285,256 3276,256 L3267,256 3267,256 L3268,265 C3269,274 3261,263 3261,271 C3261,280 3267,270 3267,279 L3267,288 3267,288 L3276,289 C3286,290 3274,282 3283,282 C3292,282 3281,288 3290,288 L3300,288 3300,288 L3301,278 C3302,269 3298,280 3298,271 C3298,263 3300,277 3300,266 L3300,256"/></g><clipPath id="c" clipRule="evenodd" fill="transparent"><use href="#t1139"/></clipPath></defs><svg viewBox="3260 251 43 40" preserveAspectRatio="xMinYMin meet"><svg width="4380" height="2430"><g><image crossorigin="anonymous" x="0" y="0" href="https://nftpuzzle.license-token.com/assets/completepuzzle.svg" width="100%" height="100%" /><g class="links"><use href="#t1139"/></g></g></svg><svg x="3288" y="276" height="9%" width="9%" viewBox="0 0 330 330"><g><a xlink:href="https://nftpuzzle.license-token.com/" class="links"><title>See the most innovative NFT based token software licensing project</title><path fill="#E4CF37" id="more" d="M165,0C74.019,0,0,74.019,0,165s74.019,165,165,165s165-74.019,165-165S255.981,0,165,0z M85,190 c-13.785,0-25-11.215-25-25s11.215-25,25-25s25,11.215,25,25S98.785,190,85,190z M165,190c-13.785,0-25-11.215-25-25 s11.215-25,25-25s25,11.215,25,25S178.785,190,165,190z M245,190c-13.785,0-25-11.215-25-25s11.215-25,25-25 c13.785,0,25,11.215,25,25S258.785,190,245,190z"></path></a></g></svg></svg></svg>