<svg version="1.1" xmlns="http://www.w3.org/2000/svg" xmlns:xlink="http://www.w3.org/1999/xlink" fill="transparent" x="0" y="0" width="350" height="350" preserveAspectRatio="xMinYMin slice"><style type="text/css">.links{fill:transparent;stroke: #E4CF37;}.links:hover{fill:#63D272; opacity:0.4;}</style><defs><g id="allt"><path id="t1140" d="M3333,256 L3321,255 C3310,255 3323,261 3315,260 C3307,260 3318,256 3309,256 L3300,256 3300,256 L3300,266 C3300,277 3298,263 3298,271 C3298,280 3302,269 3301,278 L3300,288 3300,288 L3311,288 C3322,288 3307,286 3316,286 C3325,286 3313,290 3323,289 L3333,288 3333,288 L3333,278 C3333,269 3344,279 3343,272 C3342,265 3333,274 3333,265 L3333,256"/></g><clipPath id="c" clipRule="evenodd" fill="transparent"><use href="#t1140"/></clipPath></defs><svg viewBox="3297 254 48 37" preserveAspectRatio="xMinYMin meet"><svg width="4380" height="2430"><g><image crossorigin="anonymous" x="0" y="0" href="https://nftpuzzle.license-token.com/assets/completepuzzle.svg" width="100%" height="100%" /><g class="links"><use href="#t1140"/></g></g></svg><svg x="3330" y="276" height="9%" width="9%" viewBox="0 0 330 330"><g><a xlink:href="https://nftpuzzle.license-token.com/" class="links"><title>See the most innovative NFT based token software licensing project</title><path fill="#E4CF37" id="more" d="M165,0C74.019,0,0,74.019,0,165s74.019,165,165,165s165-74.019,165-165S255.981,0,165,0z M85,190 c-13.785,0-25-11.215-25-25s11.215-25,25-25s25,11.215,25,25S98.785,190,85,190z M165,190c-13.785,0-25-11.215-25-25 s11.215-25,25-25s25,11.215,25,25S178.785,190,165,190z M245,190c-13.785,0-25-11.215-25-25s11.215-25,25-25 c13.785,0,25,11.215,25,25S258.785,190,245,190z"></path></a></g></svg></svg></svg>