<svg version="1.1" xmlns="http://www.w3.org/2000/svg" xmlns:xlink="http://www.w3.org/1999/xlink" fill="transparent" x="0" y="0" width="350" height="350" preserveAspectRatio="xMinYMin slice"><style type="text/css">.links{fill:transparent;stroke: #E4CF37;}.links:hover{fill:#63D272; opacity:0.4;}</style><defs><g id="allt"><path id="t1145" d="M3498,256 L3486,256 C3475,256 3491,252 3480,252 C3470,253 3487,256 3476,256 L3465,256 3465,256 L3465,265 C3465,275 3462,265 3460,272 C3459,280 3465,267 3465,277 L3465,288 3465,288 L3474,288 C3484,288 3474,285 3481,283 C3489,282 3477,288 3487,288 L3498,288 3498,288 L3498,277 C3499,267 3491,280 3489,270 C3487,261 3502,273 3500,264 L3498,256"/></g><clipPath id="c" clipRule="evenodd" fill="transparent"><use href="#t1145"/></clipPath></defs><svg viewBox="3458 251 45 38" preserveAspectRatio="xMinYMin meet"><svg width="4380" height="2430"><g><image crossorigin="anonymous" x="0" y="0" href="https://nftpuzzle.license-token.com/assets/completepuzzle.svg" width="100%" height="100%" /><g class="links"><use href="#t1145"/></g></g></svg><svg x="3488" y="274" height="9%" width="9%" viewBox="0 0 330 330"><g><a xlink:href="https://nftpuzzle.license-token.com/" class="links"><title>See the most innovative NFT based token software licensing project</title><path fill="#E4CF37" id="more" d="M165,0C74.019,0,0,74.019,0,165s74.019,165,165,165s165-74.019,165-165S255.981,0,165,0z M85,190 c-13.785,0-25-11.215-25-25s11.215-25,25-25s25,11.215,25,25S98.785,190,85,190z M165,190c-13.785,0-25-11.215-25-25 s11.215-25,25-25s25,11.215,25,25S178.785,190,165,190z M245,190c-13.785,0-25-11.215-25-25s11.215-25,25-25 c13.785,0,25,11.215,25,25S258.785,190,245,190z"></path></a></g></svg></svg></svg>