<svg version="1.1" xmlns="http://www.w3.org/2000/svg" xmlns:xlink="http://www.w3.org/1999/xlink" fill="transparent" x="0" y="0" width="350" height="350" preserveAspectRatio="xMinYMin slice"><style type="text/css">.links{fill:transparent;stroke: #E4CF37;}.links:hover{fill:#63D272; opacity:0.4;}</style><defs><g id="allt"><path id="t1147" d="M3564,256 L3554,256 C3544,256 3555,263 3547,263 C3540,264 3550,254 3540,255 L3531,256 3531,256 L3529,266 C3528,276 3534,263 3534,271 C3535,279 3531,269 3531,278 L3531,288 3531,288 L3541,286 C3552,285 3538,291 3546,291 C3555,292 3544,288 3554,288 L3564,288 3564,288 L3564,277 C3565,267 3559,278 3558,271 C3557,264 3564,275 3564,265 L3564,256"/></g><clipPath id="c" clipRule="evenodd" fill="transparent"><use href="#t1147"/></clipPath></defs><svg viewBox="3527 253 39 40" preserveAspectRatio="xMinYMin meet"><svg width="4380" height="2430"><g><image crossorigin="anonymous" x="0" y="0" href="https://nftpuzzle.license-token.com/assets/completepuzzle.svg" width="100%" height="100%" /><g class="links"><use href="#t1147"/></g></g></svg><svg x="3551" y="278" height="9%" width="9%" viewBox="0 0 330 330"><g><a xlink:href="https://nftpuzzle.license-token.com/" class="links"><title>See the most innovative NFT based token software licensing project</title><path fill="#E4CF37" id="more" d="M165,0C74.019,0,0,74.019,0,165s74.019,165,165,165s165-74.019,165-165S255.981,0,165,0z M85,190 c-13.785,0-25-11.215-25-25s11.215-25,25-25s25,11.215,25,25S98.785,190,85,190z M165,190c-13.785,0-25-11.215-25-25 s11.215-25,25-25s25,11.215,25,25S178.785,190,165,190z M245,190c-13.785,0-25-11.215-25-25s11.215-25,25-25 c13.785,0,25,11.215,25,25S258.785,190,245,190z"></path></a></g></svg></svg></svg>