<svg version="1.1" xmlns="http://www.w3.org/2000/svg" xmlns:xlink="http://www.w3.org/1999/xlink" fill="transparent" x="0" y="0" width="350" height="350" preserveAspectRatio="xMinYMin slice"><style type="text/css">.links{fill:transparent;stroke: #E4CF37;}.links:hover{fill:#63D272; opacity:0.4;}</style><defs><g id="allt"><path id="t1149" d="M3630,256 L3619,255 C3609,255 3622,265 3614,265 C3606,265 3617,255 3607,255 L3597,256 3597,256 L3597,265 C3598,274 3590,262 3588,271 C3587,280 3597,266 3597,277 L3597,288 3597,288 L3606,288 C3616,289 3603,281 3612,280 C3621,279 3608,288 3619,288 L3630,288 3630,288 L3631,278 C3632,269 3623,279 3622,269 C3622,260 3631,275 3630,265 L3630,256"/></g><clipPath id="c" clipRule="evenodd" fill="transparent"><use href="#t1149"/></clipPath></defs><svg viewBox="3586 254 47 36" preserveAspectRatio="xMinYMin meet"><svg width="4380" height="2430"><g><image crossorigin="anonymous" x="0" y="0" href="https://nftpuzzle.license-token.com/assets/completepuzzle.svg" width="100%" height="100%" /><g class="links"><use href="#t1149"/></g></g></svg><svg x="3618" y="275" height="9%" width="9%" viewBox="0 0 330 330"><g><a xlink:href="https://nftpuzzle.license-token.com/" class="links"><title>See the most innovative NFT based token software licensing project</title><path fill="#E4CF37" id="more" d="M165,0C74.019,0,0,74.019,0,165s74.019,165,165,165s165-74.019,165-165S255.981,0,165,0z M85,190 c-13.785,0-25-11.215-25-25s11.215-25,25-25s25,11.215,25,25S98.785,190,85,190z M165,190c-13.785,0-25-11.215-25-25 s11.215-25,25-25s25,11.215,25,25S178.785,190,165,190z M245,190c-13.785,0-25-11.215-25-25s11.215-25,25-25 c13.785,0,25,11.215,25,25S258.785,190,245,190z"></path></a></g></svg></svg></svg>