<svg version="1.1" xmlns="http://www.w3.org/2000/svg" xmlns:xlink="http://www.w3.org/1999/xlink" fill="transparent" x="0" y="0" width="350" height="350" preserveAspectRatio="xMinYMin slice"><style type="text/css">.links{fill:transparent;stroke: #E4CF37;}.links:hover{fill:#63D272; opacity:0.4;}</style><defs><g id="allt"><path id="t1153" d="M3762,256 L3751,256 C3740,256 3755,248 3745,248 C3736,248 3749,256 3739,256 L3729,256 3729,256 L3729,264 C3729,273 3725,262 3726,271 C3727,281 3729,269 3729,278 L3729,288 3729,288 L3738,288 C3747,288 3735,284 3745,285 C3755,286 3742,288 3752,288 L3762,288 3762,288 L3762,277 C3762,267 3768,280 3770,270 C3772,261 3762,275 3762,265 L3762,256"/></g><clipPath id="c" clipRule="evenodd" fill="transparent"><use href="#t1153"/></clipPath></defs><svg viewBox="3724 247 49 42" preserveAspectRatio="xMinYMin meet"><svg width="4380" height="2430"><g><image crossorigin="anonymous" x="0" y="0" href="https://nftpuzzle.license-token.com/assets/completepuzzle.svg" width="100%" height="100%" /><g class="links"><use href="#t1153"/></g></g></svg><svg x="3758" y="274" height="9%" width="9%" viewBox="0 0 330 330"><g><a xlink:href="https://nftpuzzle.license-token.com/" class="links"><title>See the most innovative NFT based token software licensing project</title><path fill="#E4CF37" id="more" d="M165,0C74.019,0,0,74.019,0,165s74.019,165,165,165s165-74.019,165-165S255.981,0,165,0z M85,190 c-13.785,0-25-11.215-25-25s11.215-25,25-25s25,11.215,25,25S98.785,190,85,190z M165,190c-13.785,0-25-11.215-25-25 s11.215-25,25-25s25,11.215,25,25S178.785,190,165,190z M245,190c-13.785,0-25-11.215-25-25s11.215-25,25-25 c13.785,0,25,11.215,25,25S258.785,190,245,190z"></path></a></g></svg></svg></svg>