<svg version="1.1" xmlns="http://www.w3.org/2000/svg" xmlns:xlink="http://www.w3.org/1999/xlink" fill="transparent" x="0" y="0" width="350" height="350" preserveAspectRatio="xMinYMin slice"><style type="text/css">.links{fill:transparent;stroke: #E4CF37;}.links:hover{fill:#63D272; opacity:0.4;}</style><defs><g id="allt"><path id="t1156" d="M3861,256 L3850,256 C3840,256 3853,248 3845,249 C3837,251 3848,256 3838,256 L3828,256 3828,256 L3827,265 C3826,274 3835,265 3835,273 C3835,281 3825,266 3826,277 L3828,288 3828,288 L3837,287 C3846,286 3837,295 3845,295 C3854,295 3838,285 3849,286 L3861,288 3861,288 L3861,278 C3862,268 3854,282 3852,271 C3851,260 3860,277 3860,266 L3861,256"/></g><clipPath id="c" clipRule="evenodd" fill="transparent"><use href="#t1156"/></clipPath></defs><svg viewBox="3824 247 39 49" preserveAspectRatio="xMinYMin meet"><svg width="4380" height="2430"><g><image crossorigin="anonymous" x="0" y="0" href="https://nftpuzzle.license-token.com/assets/completepuzzle.svg" width="100%" height="100%" /><g class="links"><use href="#t1156"/></g></g></svg><svg x="3848" y="281" height="9%" width="9%" viewBox="0 0 330 330"><g><a xlink:href="https://nftpuzzle.license-token.com/" class="links"><title>See the most innovative NFT based token software licensing project</title><path fill="#E4CF37" id="more" d="M165,0C74.019,0,0,74.019,0,165s74.019,165,165,165s165-74.019,165-165S255.981,0,165,0z M85,190 c-13.785,0-25-11.215-25-25s11.215-25,25-25s25,11.215,25,25S98.785,190,85,190z M165,190c-13.785,0-25-11.215-25-25 s11.215-25,25-25s25,11.215,25,25S178.785,190,165,190z M245,190c-13.785,0-25-11.215-25-25s11.215-25,25-25 c13.785,0,25,11.215,25,25S258.785,190,245,190z"></path></a></g></svg></svg></svg>