<svg version="1.1" xmlns="http://www.w3.org/2000/svg" xmlns:xlink="http://www.w3.org/1999/xlink" fill="transparent" x="0" y="0" width="350" height="350" preserveAspectRatio="xMinYMin slice"><style type="text/css">.links{fill:transparent;stroke: #E4CF37;}.links:hover{fill:#63D272; opacity:0.4;}</style><defs><g id="allt"><path id="t1166" d="M4191,256 L4181,256 C4171,256 4185,263 4175,264 C4165,266 4177,256 4167,256 L4158,256 4158,256 L4158,266 C4159,276 4156,265 4155,273 C4155,282 4159,268 4158,278 L4158,288 4158,288 L4168,288 C4179,289 4167,286 4176,285 C4185,285 4171,289 4181,288 L4191,288 4191,288 L4190,279 C4190,270 4194,280 4194,271 C4195,262 4191,276 4191,266 L4191,256"/></g><clipPath id="c" clipRule="evenodd" fill="transparent"><use href="#t1166"/></clipPath></defs><svg viewBox="4154 255 42 35" preserveAspectRatio="xMinYMin meet"><svg width="4380" height="2430"><g><image crossorigin="anonymous" x="0" y="0" href="https://nftpuzzle.license-token.com/assets/completepuzzle.svg" width="100%" height="100%" /><g class="links"><use href="#t1166"/></g></g></svg><svg x="4181" y="275" height="9%" width="9%" viewBox="0 0 330 330"><g><a xlink:href="https://nftpuzzle.license-token.com/" class="links"><title>See the most innovative NFT based token software licensing project</title><path fill="#E4CF37" id="more" d="M165,0C74.019,0,0,74.019,0,165s74.019,165,165,165s165-74.019,165-165S255.981,0,165,0z M85,190 c-13.785,0-25-11.215-25-25s11.215-25,25-25s25,11.215,25,25S98.785,190,85,190z M165,190c-13.785,0-25-11.215-25-25 s11.215-25,25-25s25,11.215,25,25S178.785,190,165,190z M245,190c-13.785,0-25-11.215-25-25s11.215-25,25-25 c13.785,0,25,11.215,25,25S258.785,190,245,190z"></path></a></g></svg></svg></svg>