<svg version="1.1" xmlns="http://www.w3.org/2000/svg" xmlns:xlink="http://www.w3.org/1999/xlink" fill="transparent" x="0" y="0" width="350" height="350" preserveAspectRatio="xMinYMin slice"><style type="text/css">.links{fill:transparent;stroke: #E4CF37;}.links:hover{fill:#63D272; opacity:0.4;}</style><defs><g id="allt"><path id="t1208" d="M1287,288 L1276,288 C1265,288 1279,283 1271,284 C1263,285 1273,289 1263,288 L1254,288 1254,288 L1256,297 C1258,307 1247,296 1246,303 C1245,311 1256,299 1255,309 L1254,320 1254,320 L1263,322 C1273,324 1262,313 1270,312 C1278,311 1265,322 1276,321 L1287,320 1287,320 L1287,310 C1287,301 1283,311 1282,303 C1282,296 1288,305 1287,296 L1287,288"/></g><clipPath id="c" clipRule="evenodd" fill="transparent"><use href="#t1208"/></clipPath></defs><svg viewBox="1244 282 45 43" preserveAspectRatio="xMinYMin meet"><svg width="4380" height="2430"><g><image crossorigin="anonymous" x="0" y="0" href="https://nftpuzzle.license-token.com/assets/completepuzzle.svg" width="100%" height="100%" /><g class="links"><use href="#t1208"/></g></g></svg><svg x="1274" y="310" height="9%" width="9%" viewBox="0 0 330 330"><g><a xlink:href="https://nftpuzzle.license-token.com/" class="links"><title>See the most innovative NFT based token software licensing project</title><path fill="#E4CF37" id="more" d="M165,0C74.019,0,0,74.019,0,165s74.019,165,165,165s165-74.019,165-165S255.981,0,165,0z M85,190 c-13.785,0-25-11.215-25-25s11.215-25,25-25s25,11.215,25,25S98.785,190,85,190z M165,190c-13.785,0-25-11.215-25-25 s11.215-25,25-25s25,11.215,25,25S178.785,190,165,190z M245,190c-13.785,0-25-11.215-25-25s11.215-25,25-25 c13.785,0,25,11.215,25,25S258.785,190,245,190z"></path></a></g></svg></svg></svg>