<svg version="1.1" xmlns="http://www.w3.org/2000/svg" xmlns:xlink="http://www.w3.org/1999/xlink" fill="transparent" x="0" y="0" width="350" height="350" preserveAspectRatio="xMinYMin slice"><style type="text/css">.links{fill:transparent;stroke: #E4CF37;}.links:hover{fill:#63D272; opacity:0.4;}</style><defs><g id="allt"><path id="t1212" d="M1419,288 L1409,285 C1400,283 1413,298 1403,297 C1393,297 1406,283 1396,285 L1386,288 1386,288 L1386,297 C1387,307 1378,293 1378,302 C1379,312 1389,302 1387,311 L1386,320 1386,320 L1395,320 C1405,321 1391,312 1401,312 C1411,313 1400,323 1409,321 L1419,320 1419,320 L1419,310 C1420,301 1408,314 1408,305 C1409,296 1418,308 1418,298 L1419,288"/></g><clipPath id="c" clipRule="evenodd" fill="transparent"><use href="#t1212"/></clipPath></defs><svg viewBox="1377 282 44 42" preserveAspectRatio="xMinYMin meet"><svg width="4380" height="2430"><g><image crossorigin="anonymous" x="0" y="0" href="https://nftpuzzle.license-token.com/assets/completepuzzle.svg" width="100%" height="100%" /><g class="links"><use href="#t1212"/></g></g></svg><svg x="1406" y="309" height="9%" width="9%" viewBox="0 0 330 330"><g><a xlink:href="https://nftpuzzle.license-token.com/" class="links"><title>See the most innovative NFT based token software licensing project</title><path fill="#E4CF37" id="more" d="M165,0C74.019,0,0,74.019,0,165s74.019,165,165,165s165-74.019,165-165S255.981,0,165,0z M85,190 c-13.785,0-25-11.215-25-25s11.215-25,25-25s25,11.215,25,25S98.785,190,85,190z M165,190c-13.785,0-25-11.215-25-25 s11.215-25,25-25s25,11.215,25,25S178.785,190,165,190z M245,190c-13.785,0-25-11.215-25-25s11.215-25,25-25 c13.785,0,25,11.215,25,25S258.785,190,245,190z"></path></a></g></svg></svg></svg>