<svg version="1.1" xmlns="http://www.w3.org/2000/svg" xmlns:xlink="http://www.w3.org/1999/xlink" fill="transparent" x="0" y="0" width="350" height="350" preserveAspectRatio="xMinYMin slice"><style type="text/css">.links{fill:transparent;stroke: #E4CF37;}.links:hover{fill:#63D272; opacity:0.4;}</style><defs><g id="allt"><path id="t1216" d="M1551,288 L1541,288 C1532,289 1542,280 1533,280 C1524,281 1539,291 1528,289 L1518,288 1518,288 L1518,296 C1518,305 1522,295 1521,303 C1520,312 1518,299 1518,309 L1518,320 1518,320 L1527,320 C1536,320 1525,324 1534,323 C1543,322 1529,320 1540,320 L1551,320 1551,320 L1551,311 C1551,302 1563,311 1562,302 C1562,293 1550,306 1550,297 L1551,288"/></g><clipPath id="c" clipRule="evenodd" fill="transparent"><use href="#t1216"/></clipPath></defs><svg viewBox="1517 279 47 46" preserveAspectRatio="xMinYMin meet"><svg width="4380" height="2430"><g><image crossorigin="anonymous" x="0" y="0" href="https://nftpuzzle.license-token.com/assets/completepuzzle.svg" width="100%" height="100%" /><g class="links"><use href="#t1216"/></g></g></svg><svg x="1549" y="310" height="9%" width="9%" viewBox="0 0 330 330"><g><a xlink:href="https://nftpuzzle.license-token.com/" class="links"><title>See the most innovative NFT based token software licensing project</title><path fill="#E4CF37" id="more" d="M165,0C74.019,0,0,74.019,0,165s74.019,165,165,165s165-74.019,165-165S255.981,0,165,0z M85,190 c-13.785,0-25-11.215-25-25s11.215-25,25-25s25,11.215,25,25S98.785,190,85,190z M165,190c-13.785,0-25-11.215-25-25 s11.215-25,25-25s25,11.215,25,25S178.785,190,165,190z M245,190c-13.785,0-25-11.215-25-25s11.215-25,25-25 c13.785,0,25,11.215,25,25S258.785,190,245,190z"></path></a></g></svg></svg></svg>