<svg version="1.1" xmlns="http://www.w3.org/2000/svg" xmlns:xlink="http://www.w3.org/1999/xlink" fill="transparent" x="0" y="0" width="350" height="350" preserveAspectRatio="xMinYMin slice"><style type="text/css">.links{fill:transparent;stroke: #E4CF37;}.links:hover{fill:#63D272; opacity:0.4;}</style><defs><g id="allt"><path id="t1219" d="M1650,288 L1639,288 C1628,288 1641,281 1633,282 C1626,284 1635,290 1626,289 L1617,288 1617,288 L1617,298 C1617,308 1623,296 1623,303 C1624,311 1617,301 1617,310 L1617,320 1617,320 L1627,320 C1638,320 1625,326 1633,326 C1641,327 1630,320 1640,320 L1650,320 1650,320 L1650,310 C1650,301 1644,312 1643,304 C1642,296 1653,309 1651,298 L1650,288"/></g><clipPath id="c" clipRule="evenodd" fill="transparent"><use href="#t1219"/></clipPath></defs><svg viewBox="1616 280 38 48" preserveAspectRatio="xMinYMin meet"><svg width="4380" height="2430"><g><image crossorigin="anonymous" x="0" y="0" href="https://nftpuzzle.license-token.com/assets/completepuzzle.svg" width="100%" height="100%" /><g class="links"><use href="#t1219"/></g></g></svg><svg x="1639" y="313" height="9%" width="9%" viewBox="0 0 330 330"><g><a xlink:href="https://nftpuzzle.license-token.com/" class="links"><title>See the most innovative NFT based token software licensing project</title><path fill="#E4CF37" id="more" d="M165,0C74.019,0,0,74.019,0,165s74.019,165,165,165s165-74.019,165-165S255.981,0,165,0z M85,190 c-13.785,0-25-11.215-25-25s11.215-25,25-25s25,11.215,25,25S98.785,190,85,190z M165,190c-13.785,0-25-11.215-25-25 s11.215-25,25-25s25,11.215,25,25S178.785,190,165,190z M245,190c-13.785,0-25-11.215-25-25s11.215-25,25-25 c13.785,0,25,11.215,25,25S258.785,190,245,190z"></path></a></g></svg></svg></svg>