<svg version="1.1" xmlns="http://www.w3.org/2000/svg" xmlns:xlink="http://www.w3.org/1999/xlink" fill="transparent" x="0" y="0" width="350" height="350" preserveAspectRatio="xMinYMin slice"><style type="text/css">.links{fill:transparent;stroke: #E4CF37;}.links:hover{fill:#63D272; opacity:0.4;}</style><defs><g id="allt"><path id="t1223" d="M1782,288 L1771,288 C1760,288 1777,284 1765,284 C1753,284 1769,288 1759,288 L1749,288 1749,288 L1751,298 C1754,308 1740,296 1741,303 C1742,311 1751,298 1750,309 L1749,320 1749,320 L1759,322 C1770,325 1757,311 1765,312 C1773,313 1759,322 1770,321 L1782,320 1782,320 L1782,309 C1783,298 1771,312 1773,302 C1776,293 1783,307 1782,297 L1782,288"/></g><clipPath id="c" clipRule="evenodd" fill="transparent"><use href="#t1223"/></clipPath></defs><svg viewBox="1739 283 45 43" preserveAspectRatio="xMinYMin meet"><svg width="4380" height="2430"><g><image crossorigin="anonymous" x="0" y="0" href="https://nftpuzzle.license-token.com/assets/completepuzzle.svg" width="100%" height="100%" /><g class="links"><use href="#t1223"/></g></g></svg><svg x="1769" y="311" height="9%" width="9%" viewBox="0 0 330 330"><g><a xlink:href="https://nftpuzzle.license-token.com/" class="links"><title>See the most innovative NFT based token software licensing project</title><path fill="#E4CF37" id="more" d="M165,0C74.019,0,0,74.019,0,165s74.019,165,165,165s165-74.019,165-165S255.981,0,165,0z M85,190 c-13.785,0-25-11.215-25-25s11.215-25,25-25s25,11.215,25,25S98.785,190,85,190z M165,190c-13.785,0-25-11.215-25-25 s11.215-25,25-25s25,11.215,25,25S178.785,190,165,190z M245,190c-13.785,0-25-11.215-25-25s11.215-25,25-25 c13.785,0,25,11.215,25,25S258.785,190,245,190z"></path></a></g></svg></svg></svg>