<svg version="1.1" xmlns="http://www.w3.org/2000/svg" xmlns:xlink="http://www.w3.org/1999/xlink" fill="transparent" x="0" y="0" width="350" height="350" preserveAspectRatio="xMinYMin slice"><style type="text/css">.links{fill:transparent;stroke: #E4CF37;}.links:hover{fill:#63D272; opacity:0.4;}</style><defs><g id="allt"><path id="t1226" d="M1881,288 L1871,287 C1862,286 1872,297 1863,295 C1855,294 1870,285 1859,286 L1848,288 1848,288 L1846,298 C1844,309 1858,294 1857,303 C1857,313 1848,300 1848,310 L1848,320 1848,320 L1859,318 C1870,316 1854,330 1864,329 C1874,328 1860,320 1870,320 L1881,320 1881,320 L1881,309 C1882,299 1872,313 1873,303 C1874,294 1883,307 1882,297 L1881,288"/></g><clipPath id="c" clipRule="evenodd" fill="transparent"><use href="#t1226"/></clipPath></defs><svg viewBox="1843 284 41 47" preserveAspectRatio="xMinYMin meet"><svg width="4380" height="2430"><g><image crossorigin="anonymous" x="0" y="0" href="https://nftpuzzle.license-token.com/assets/completepuzzle.svg" width="100%" height="100%" /><g class="links"><use href="#t1226"/></g></g></svg><svg x="1869" y="316" height="9%" width="9%" viewBox="0 0 330 330"><g><a xlink:href="https://nftpuzzle.license-token.com/" class="links"><title>See the most innovative NFT based token software licensing project</title><path fill="#E4CF37" id="more" d="M165,0C74.019,0,0,74.019,0,165s74.019,165,165,165s165-74.019,165-165S255.981,0,165,0z M85,190 c-13.785,0-25-11.215-25-25s11.215-25,25-25s25,11.215,25,25S98.785,190,85,190z M165,190c-13.785,0-25-11.215-25-25 s11.215-25,25-25s25,11.215,25,25S178.785,190,165,190z M245,190c-13.785,0-25-11.215-25-25s11.215-25,25-25 c13.785,0,25,11.215,25,25S258.785,190,245,190z"></path></a></g></svg></svg></svg>