<svg version="1.1" xmlns="http://www.w3.org/2000/svg" xmlns:xlink="http://www.w3.org/1999/xlink" fill="transparent" x="0" y="0" width="350" height="350" preserveAspectRatio="xMinYMin slice"><style type="text/css">.links{fill:transparent;stroke: #E4CF37;}.links:hover{fill:#63D272; opacity:0.4;}</style><defs><g id="allt"><path id="t1228" d="M1947,288 L1937,288 C1928,288 1937,292 1929,291 C1922,291 1932,288 1923,288 L1914,288 1914,288 L1914,297 C1914,307 1902,296 1905,303 C1908,311 1914,300 1914,310 L1914,320 1914,320 L1924,320 C1934,320 1923,308 1930,311 C1938,314 1927,320 1937,320 L1947,320 1947,320 L1947,310 C1947,300 1936,313 1938,305 C1940,297 1952,309 1949,298 L1947,288"/></g><clipPath id="c" clipRule="evenodd" fill="transparent"><use href="#t1228"/></clipPath></defs><svg viewBox="1901 287 52 34" preserveAspectRatio="xMinYMin meet"><svg width="4380" height="2430"><g><image crossorigin="anonymous" x="0" y="0" href="https://nftpuzzle.license-token.com/assets/completepuzzle.svg" width="100%" height="100%" /><g class="links"><use href="#t1228"/></g></g></svg><svg x="1938" y="306" height="9%" width="9%" viewBox="0 0 330 330"><g><a xlink:href="https://nftpuzzle.license-token.com/" class="links"><title>See the most innovative NFT based token software licensing project</title><path fill="#E4CF37" id="more" d="M165,0C74.019,0,0,74.019,0,165s74.019,165,165,165s165-74.019,165-165S255.981,0,165,0z M85,190 c-13.785,0-25-11.215-25-25s11.215-25,25-25s25,11.215,25,25S98.785,190,85,190z M165,190c-13.785,0-25-11.215-25-25 s11.215-25,25-25s25,11.215,25,25S178.785,190,165,190z M245,190c-13.785,0-25-11.215-25-25s11.215-25,25-25 c13.785,0,25,11.215,25,25S258.785,190,245,190z"></path></a></g></svg></svg></svg>