<svg version="1.1" xmlns="http://www.w3.org/2000/svg" xmlns:xlink="http://www.w3.org/1999/xlink" fill="transparent" x="0" y="0" width="350" height="350" preserveAspectRatio="xMinYMin slice"><style type="text/css">.links{fill:transparent;stroke: #E4CF37;}.links:hover{fill:#63D272; opacity:0.4;}</style><defs><g id="allt"><path id="t1243" d="M2442,288 L2431,288 C2421,288 2433,277 2423,276 C2413,276 2428,288 2418,288 L2409,288 2409,288 L2409,297 C2410,307 2404,296 2404,305 C2405,314 2409,299 2409,309 L2409,320 2409,320 L2419,320 C2429,321 2417,315 2426,315 C2436,316 2421,320 2431,320 L2442,320 2442,320 L2444,310 C2446,300 2433,314 2435,304 C2437,294 2443,306 2442,297 L2442,288"/></g><clipPath id="c" clipRule="evenodd" fill="transparent"><use href="#t1243"/></clipPath></defs><svg viewBox="2403 275 44 47" preserveAspectRatio="xMinYMin meet"><svg width="4380" height="2430"><g><image crossorigin="anonymous" x="0" y="0" href="https://nftpuzzle.license-token.com/assets/completepuzzle.svg" width="100%" height="100%" /><g class="links"><use href="#t1243"/></g></g></svg><svg x="2432" y="307" height="9%" width="9%" viewBox="0 0 330 330"><g><a xlink:href="https://nftpuzzle.license-token.com/" class="links"><title>See the most innovative NFT based token software licensing project</title><path fill="#E4CF37" id="more" d="M165,0C74.019,0,0,74.019,0,165s74.019,165,165,165s165-74.019,165-165S255.981,0,165,0z M85,190 c-13.785,0-25-11.215-25-25s11.215-25,25-25s25,11.215,25,25S98.785,190,85,190z M165,190c-13.785,0-25-11.215-25-25 s11.215-25,25-25s25,11.215,25,25S178.785,190,165,190z M245,190c-13.785,0-25-11.215-25-25s11.215-25,25-25 c13.785,0,25,11.215,25,25S258.785,190,245,190z"></path></a></g></svg></svg></svg>