<svg version="1.1" xmlns="http://www.w3.org/2000/svg" xmlns:xlink="http://www.w3.org/1999/xlink" fill="transparent" x="0" y="0" width="350" height="350" preserveAspectRatio="xMinYMin slice"><style type="text/css">.links{fill:transparent;stroke: #E4CF37;}.links:hover{fill:#63D272; opacity:0.4;}</style><defs><g id="allt"><path id="t1260" d="M3003,288 L2993,289 C2984,290 2998,278 2986,277 C2974,276 2991,290 2980,289 L2970,288 2970,288 L2969,297 C2968,306 2973,295 2975,304 C2978,314 2967,299 2968,309 L2970,320 2970,320 L2979,319 C2989,318 2977,323 2987,325 C2997,328 2981,317 2992,318 L3003,320 3003,320 L3003,309 C3003,299 2995,311 2996,302 C2997,294 3003,307 3003,297 L3003,288"/></g><clipPath id="c" clipRule="evenodd" fill="transparent"><use href="#t1260"/></clipPath></defs><svg viewBox="2966 275 38 54" preserveAspectRatio="xMinYMin meet"><svg width="4380" height="2430"><g><image crossorigin="anonymous" x="0" y="0" href="https://nftpuzzle.license-token.com/assets/completepuzzle.svg" width="100%" height="100%" /><g class="links"><use href="#t1260"/></g></g></svg><svg x="2989" y="314" height="9%" width="9%" viewBox="0 0 330 330"><g><a xlink:href="https://nftpuzzle.license-token.com/" class="links"><title>See the most innovative NFT based token software licensing project</title><path fill="#E4CF37" id="more" d="M165,0C74.019,0,0,74.019,0,165s74.019,165,165,165s165-74.019,165-165S255.981,0,165,0z M85,190 c-13.785,0-25-11.215-25-25s11.215-25,25-25s25,11.215,25,25S98.785,190,85,190z M165,190c-13.785,0-25-11.215-25-25 s11.215-25,25-25s25,11.215,25,25S178.785,190,165,190z M245,190c-13.785,0-25-11.215-25-25s11.215-25,25-25 c13.785,0,25,11.215,25,25S258.785,190,245,190z"></path></a></g></svg></svg></svg>