<svg version="1.1" xmlns="http://www.w3.org/2000/svg" xmlns:xlink="http://www.w3.org/1999/xlink" fill="transparent" x="0" y="0" width="350" height="350" preserveAspectRatio="xMinYMin slice"><style type="text/css">.links{fill:transparent;stroke: #E4CF37;}.links:hover{fill:#63D272; opacity:0.4;}</style><defs><g id="allt"><path id="t1261" d="M3036,288 L3024,288 C3013,288 3031,293 3020,292 C3010,292 3024,288 3013,288 L3003,288 3003,288 L3003,297 C3003,307 2997,294 2996,302 C2995,311 3003,299 3003,309 L3003,320 3003,320 L3013,320 C3023,320 3009,314 3018,313 C3027,312 3014,320 3025,320 L3036,320 3036,320 L3036,310 C3036,301 3041,314 3040,303 C3039,293 3035,308 3035,298 L3036,288"/></g><clipPath id="c" clipRule="evenodd" fill="transparent"><use href="#t1261"/></clipPath></defs><svg viewBox="2994 287 48 34" preserveAspectRatio="xMinYMin meet"><svg width="4380" height="2430"><g><image crossorigin="anonymous" x="0" y="0" href="https://nftpuzzle.license-token.com/assets/completepuzzle.svg" width="100%" height="100%" /><g class="links"><use href="#t1261"/></g></g></svg><svg x="3027" y="306" height="9%" width="9%" viewBox="0 0 330 330"><g><a xlink:href="https://nftpuzzle.license-token.com/" class="links"><title>See the most innovative NFT based token software licensing project</title><path fill="#E4CF37" id="more" d="M165,0C74.019,0,0,74.019,0,165s74.019,165,165,165s165-74.019,165-165S255.981,0,165,0z M85,190 c-13.785,0-25-11.215-25-25s11.215-25,25-25s25,11.215,25,25S98.785,190,85,190z M165,190c-13.785,0-25-11.215-25-25 s11.215-25,25-25s25,11.215,25,25S178.785,190,165,190z M245,190c-13.785,0-25-11.215-25-25s11.215-25,25-25 c13.785,0,25,11.215,25,25S258.785,190,245,190z"></path></a></g></svg></svg></svg>