<svg version="1.1" xmlns="http://www.w3.org/2000/svg" xmlns:xlink="http://www.w3.org/1999/xlink" fill="transparent" x="0" y="0" width="350" height="350" preserveAspectRatio="xMinYMin slice"><style type="text/css">.links{fill:transparent;stroke: #E4CF37;}.links:hover{fill:#63D272; opacity:0.4;}</style><defs><g id="allt"><path id="t1267" d="M3234,288 L3224,288 C3214,289 3228,284 3219,284 C3210,285 3221,288 3211,288 L3201,288 3201,288 L3201,296 C3201,305 3207,293 3207,302 C3208,311 3201,300 3201,310 L3201,320 3201,320 L3210,320 C3219,320 3206,326 3215,326 C3225,327 3214,320 3224,320 L3234,320 3234,320 L3235,310 C3237,301 3227,312 3228,303 C3230,294 3234,306 3234,297 L3234,288"/></g><clipPath id="c" clipRule="evenodd" fill="transparent"><use href="#t1267"/></clipPath></defs><svg viewBox="3200 283 38 45" preserveAspectRatio="xMinYMin meet"><svg width="4380" height="2430"><g><image crossorigin="anonymous" x="0" y="0" href="https://nftpuzzle.license-token.com/assets/completepuzzle.svg" width="100%" height="100%" /><g class="links"><use href="#t1267"/></g></g></svg><svg x="3223" y="313" height="9%" width="9%" viewBox="0 0 330 330"><g><a xlink:href="https://nftpuzzle.license-token.com/" class="links"><title>See the most innovative NFT based token software licensing project</title><path fill="#E4CF37" id="more" d="M165,0C74.019,0,0,74.019,0,165s74.019,165,165,165s165-74.019,165-165S255.981,0,165,0z M85,190 c-13.785,0-25-11.215-25-25s11.215-25,25-25s25,11.215,25,25S98.785,190,85,190z M165,190c-13.785,0-25-11.215-25-25 s11.215-25,25-25s25,11.215,25,25S178.785,190,165,190z M245,190c-13.785,0-25-11.215-25-25s11.215-25,25-25 c13.785,0,25,11.215,25,25S258.785,190,245,190z"></path></a></g></svg></svg></svg>