<svg version="1.1" xmlns="http://www.w3.org/2000/svg" xmlns:xlink="http://www.w3.org/1999/xlink" fill="transparent" x="0" y="0" width="350" height="350" preserveAspectRatio="xMinYMin slice"><style type="text/css">.links{fill:transparent;stroke: #E4CF37;}.links:hover{fill:#63D272; opacity:0.4;}</style><defs><g id="allt"><path id="t1273" d="M3432,288 L3421,288 C3410,288 3423,293 3413,294 C3403,295 3419,285 3409,286 L3399,288 3399,288 L3401,296 C3403,305 3390,294 3391,302 C3393,310 3398,299 3398,309 L3399,320 3399,320 L3408,322 C3417,324 3405,311 3413,312 C3422,314 3411,319 3421,319 L3432,320 3432,320 L3432,311 C3432,302 3429,311 3428,302 C3427,293 3432,306 3432,297 L3432,288"/></g><clipPath id="c" clipRule="evenodd" fill="transparent"><use href="#t1273"/></clipPath></defs><svg viewBox="3389 284 44 41" preserveAspectRatio="xMinYMin meet"><svg width="4380" height="2430"><g><image crossorigin="anonymous" x="0" y="0" href="https://nftpuzzle.license-token.com/assets/completepuzzle.svg" width="100%" height="100%" /><g class="links"><use href="#t1273"/></g></g></svg><svg x="3418" y="310" height="9%" width="9%" viewBox="0 0 330 330"><g><a xlink:href="https://nftpuzzle.license-token.com/" class="links"><title>See the most innovative NFT based token software licensing project</title><path fill="#E4CF37" id="more" d="M165,0C74.019,0,0,74.019,0,165s74.019,165,165,165s165-74.019,165-165S255.981,0,165,0z M85,190 c-13.785,0-25-11.215-25-25s11.215-25,25-25s25,11.215,25,25S98.785,190,85,190z M165,190c-13.785,0-25-11.215-25-25 s11.215-25,25-25s25,11.215,25,25S178.785,190,165,190z M245,190c-13.785,0-25-11.215-25-25s11.215-25,25-25 c13.785,0,25,11.215,25,25S258.785,190,245,190z"></path></a></g></svg></svg></svg>