<svg version="1.1" xmlns="http://www.w3.org/2000/svg" xmlns:xlink="http://www.w3.org/1999/xlink" fill="transparent" x="0" y="0" width="350" height="350" preserveAspectRatio="xMinYMin slice"><style type="text/css">.links{fill:transparent;stroke: #E4CF37;}.links:hover{fill:#63D272; opacity:0.4;}</style><defs><g id="allt"><path id="t1276" d="M3531,288 L3520,288 C3509,289 3522,281 3512,279 C3503,277 3516,292 3507,290 L3498,288 3498,288 L3500,296 C3502,305 3491,295 3490,304 C3489,313 3500,301 3499,310 L3498,320 3498,320 L3507,322 C3516,324 3505,313 3514,312 C3524,311 3512,322 3521,321 L3531,320 3531,320 L3531,309 C3531,298 3525,311 3524,302 C3524,294 3531,307 3531,297 L3531,288"/></g><clipPath id="c" clipRule="evenodd" fill="transparent"><use href="#t1276"/></clipPath></defs><svg viewBox="3488 276 44 49" preserveAspectRatio="xMinYMin meet"><svg width="4380" height="2430"><g><image crossorigin="anonymous" x="0" y="0" href="https://nftpuzzle.license-token.com/assets/completepuzzle.svg" width="100%" height="100%" /><g class="links"><use href="#t1276"/></g></g></svg><svg x="3517" y="310" height="9%" width="9%" viewBox="0 0 330 330"><g><a xlink:href="https://nftpuzzle.license-token.com/" class="links"><title>See the most innovative NFT based token software licensing project</title><path fill="#E4CF37" id="more" d="M165,0C74.019,0,0,74.019,0,165s74.019,165,165,165s165-74.019,165-165S255.981,0,165,0z M85,190 c-13.785,0-25-11.215-25-25s11.215-25,25-25s25,11.215,25,25S98.785,190,85,190z M165,190c-13.785,0-25-11.215-25-25 s11.215-25,25-25s25,11.215,25,25S178.785,190,165,190z M245,190c-13.785,0-25-11.215-25-25s11.215-25,25-25 c13.785,0,25,11.215,25,25S258.785,190,245,190z"></path></a></g></svg></svg></svg>