<svg version="1.1" xmlns="http://www.w3.org/2000/svg" xmlns:xlink="http://www.w3.org/1999/xlink" fill="transparent" x="0" y="0" width="350" height="350" preserveAspectRatio="xMinYMin slice"><style type="text/css">.links{fill:transparent;stroke: #E4CF37;}.links:hover{fill:#63D272; opacity:0.4;}</style><defs><g id="allt"><path id="t1282" d="M3729,288 L3719,288 C3710,288 3719,278 3711,279 C3704,281 3714,288 3705,288 L3696,288 3696,288 L3696,297 C3696,306 3702,296 3701,303 C3700,310 3696,299 3696,309 L3696,320 3696,320 L3705,320 C3715,320 3705,326 3712,325 C3719,324 3707,320 3718,320 L3729,320 3729,320 L3729,309 C3729,299 3735,314 3735,304 C3736,294 3726,305 3727,296 L3729,288"/></g><clipPath id="c" clipRule="evenodd" fill="transparent"><use href="#t1282"/></clipPath></defs><svg viewBox="3695 277 42 50" preserveAspectRatio="xMinYMin meet"><svg width="4380" height="2430"><g><image crossorigin="anonymous" x="0" y="0" href="https://nftpuzzle.license-token.com/assets/completepuzzle.svg" width="100%" height="100%" /><g class="links"><use href="#t1282"/></g></g></svg><svg x="3722" y="312" height="9%" width="9%" viewBox="0 0 330 330"><g><a xlink:href="https://nftpuzzle.license-token.com/" class="links"><title>See the most innovative NFT based token software licensing project</title><path fill="#E4CF37" id="more" d="M165,0C74.019,0,0,74.019,0,165s74.019,165,165,165s165-74.019,165-165S255.981,0,165,0z M85,190 c-13.785,0-25-11.215-25-25s11.215-25,25-25s25,11.215,25,25S98.785,190,85,190z M165,190c-13.785,0-25-11.215-25-25 s11.215-25,25-25s25,11.215,25,25S178.785,190,165,190z M245,190c-13.785,0-25-11.215-25-25s11.215-25,25-25 c13.785,0,25,11.215,25,25S258.785,190,245,190z"></path></a></g></svg></svg></svg>