<svg version="1.1" xmlns="http://www.w3.org/2000/svg" xmlns:xlink="http://www.w3.org/1999/xlink" fill="transparent" x="0" y="0" width="350" height="350" preserveAspectRatio="xMinYMin slice"><style type="text/css">.links{fill:transparent;stroke: #E4CF37;}.links:hover{fill:#63D272; opacity:0.4;}</style><defs><g id="allt"><path id="t1286" d="M3861,288 L3849,286 C3838,285 3854,295 3845,295 C3837,295 3846,286 3837,287 L3828,288 3828,288 L3827,296 C3827,305 3836,294 3834,302 C3832,310 3828,302 3828,311 L3828,320 3828,320 L3837,319 C3846,319 3834,328 3842,326 C3851,324 3842,320 3851,320 L3861,320 3861,320 L3863,311 C3866,302 3853,311 3850,302 C3847,293 3863,307 3862,297 L3861,288"/></g><clipPath id="c" clipRule="evenodd" fill="transparent"><use href="#t1286"/></clipPath></defs><svg viewBox="3826 284 41 45" preserveAspectRatio="xMinYMin meet"><svg width="4380" height="2430"><g><image crossorigin="anonymous" x="0" y="0" href="https://nftpuzzle.license-token.com/assets/completepuzzle.svg" width="100%" height="100%" /><g class="links"><use href="#t1286"/></g></g></svg><svg x="3852" y="314" height="9%" width="9%" viewBox="0 0 330 330"><g><a xlink:href="https://nftpuzzle.license-token.com/" class="links"><title>See the most innovative NFT based token software licensing project</title><path fill="#E4CF37" id="more" d="M165,0C74.019,0,0,74.019,0,165s74.019,165,165,165s165-74.019,165-165S255.981,0,165,0z M85,190 c-13.785,0-25-11.215-25-25s11.215-25,25-25s25,11.215,25,25S98.785,190,85,190z M165,190c-13.785,0-25-11.215-25-25 s11.215-25,25-25s25,11.215,25,25S178.785,190,165,190z M245,190c-13.785,0-25-11.215-25-25s11.215-25,25-25 c13.785,0,25,11.215,25,25S258.785,190,245,190z"></path></a></g></svg></svg></svg>