<svg version="1.1" xmlns="http://www.w3.org/2000/svg" xmlns:xlink="http://www.w3.org/1999/xlink" fill="transparent" x="0" y="0" width="350" height="350" preserveAspectRatio="xMinYMin slice"><style type="text/css">.links{fill:transparent;stroke: #E4CF37;}.links:hover{fill:#63D272; opacity:0.4;}</style><defs><g id="allt"><path id="t1289" d="M3960,288 L3950,287 C3940,286 3951,291 3941,291 C3932,292 3948,288 3937,288 L3927,288 3927,288 L3929,296 C3931,305 3922,292 3920,302 C3918,312 3927,299 3927,309 L3927,320 3927,320 L3936,322 C3945,324 3931,315 3941,313 C3952,311 3938,320 3949,320 L3960,320 3960,320 L3961,311 C3962,302 3953,312 3953,304 C3953,296 3964,308 3962,298 L3960,288"/></g><clipPath id="c" clipRule="evenodd" fill="transparent"><use href="#t1289"/></clipPath></defs><svg viewBox="3917 285 48 40" preserveAspectRatio="xMinYMin meet"><svg width="4380" height="2430"><g><image crossorigin="anonymous" x="0" y="0" href="https://nftpuzzle.license-token.com/assets/completepuzzle.svg" width="100%" height="100%" /><g class="links"><use href="#t1289"/></g></g></svg><svg x="3950" y="310" height="9%" width="9%" viewBox="0 0 330 330"><g><a xlink:href="https://nftpuzzle.license-token.com/" class="links"><title>See the most innovative NFT based token software licensing project</title><path fill="#E4CF37" id="more" d="M165,0C74.019,0,0,74.019,0,165s74.019,165,165,165s165-74.019,165-165S255.981,0,165,0z M85,190 c-13.785,0-25-11.215-25-25s11.215-25,25-25s25,11.215,25,25S98.785,190,85,190z M165,190c-13.785,0-25-11.215-25-25 s11.215-25,25-25s25,11.215,25,25S178.785,190,165,190z M245,190c-13.785,0-25-11.215-25-25s11.215-25,25-25 c13.785,0,25,11.215,25,25S258.785,190,245,190z"></path></a></g></svg></svg></svg>