<svg version="1.1" xmlns="http://www.w3.org/2000/svg" xmlns:xlink="http://www.w3.org/1999/xlink" fill="transparent" x="0" y="0" width="350" height="350" preserveAspectRatio="xMinYMin slice"><style type="text/css">.links{fill:transparent;stroke: #E4CF37;}.links:hover{fill:#63D272; opacity:0.4;}</style><defs><g id="allt"><path id="t1291" d="M4026,288 L4016,286 C4007,285 4019,294 4009,295 C3999,297 4013,286 4003,287 L3993,288 3993,288 L3993,298 C3993,309 3999,293 4000,302 C4002,312 3992,300 3992,310 L3993,320 3993,320 L4004,320 C4015,320 3998,326 4007,327 C4017,329 4005,319 4015,319 L4026,320 4026,320 L4026,310 C4026,300 4024,311 4023,303 C4023,296 4027,307 4026,297 L4026,288"/></g><clipPath id="c" clipRule="evenodd" fill="transparent"><use href="#t1291"/></clipPath></defs><svg viewBox="3991 284 37 46" preserveAspectRatio="xMinYMin meet"><svg width="4380" height="2430"><g><image crossorigin="anonymous" x="0" y="0" href="https://nftpuzzle.license-token.com/assets/completepuzzle.svg" width="100%" height="100%" /><g class="links"><use href="#t1291"/></g></g></svg><svg x="4013" y="315" height="9%" width="9%" viewBox="0 0 330 330"><g><a xlink:href="https://nftpuzzle.license-token.com/" class="links"><title>See the most innovative NFT based token software licensing project</title><path fill="#E4CF37" id="more" d="M165,0C74.019,0,0,74.019,0,165s74.019,165,165,165s165-74.019,165-165S255.981,0,165,0z M85,190 c-13.785,0-25-11.215-25-25s11.215-25,25-25s25,11.215,25,25S98.785,190,85,190z M165,190c-13.785,0-25-11.215-25-25 s11.215-25,25-25s25,11.215,25,25S178.785,190,165,190z M245,190c-13.785,0-25-11.215-25-25s11.215-25,25-25 c13.785,0,25,11.215,25,25S258.785,190,245,190z"></path></a></g></svg></svg></svg>