<svg version="1.1" xmlns="http://www.w3.org/2000/svg" xmlns:xlink="http://www.w3.org/1999/xlink" fill="transparent" x="0" y="0" width="350" height="350" preserveAspectRatio="xMinYMin slice"><style type="text/css">.links{fill:transparent;stroke: #E4CF37;}.links:hover{fill:#63D272; opacity:0.4;}</style><defs><g id="allt"><path id="t1295" d="M4158,288 L4147,288 C4137,288 4151,281 4140,281 C4130,282 4143,288 4134,288 L4125,288 4125,288 L4124,297 C4124,307 4133,296 4132,303 C4132,311 4125,298 4125,309 L4125,320 4125,320 L4135,319 C4145,319 4133,328 4141,327 C4149,327 4135,320 4146,320 L4158,320 4158,320 L4157,309 C4157,299 4161,312 4160,302 C4160,293 4157,307 4157,297 L4158,288"/></g><clipPath id="c" clipRule="evenodd" fill="transparent"><use href="#t1295"/></clipPath></defs><svg viewBox="4123 280 39 49" preserveAspectRatio="xMinYMin meet"><svg width="4380" height="2430"><g><image crossorigin="anonymous" x="0" y="0" href="https://nftpuzzle.license-token.com/assets/completepuzzle.svg" width="100%" height="100%" /><g class="links"><use href="#t1295"/></g></g></svg><svg x="4147" y="314" height="9%" width="9%" viewBox="0 0 330 330"><g><a xlink:href="https://nftpuzzle.license-token.com/" class="links"><title>See the most innovative NFT based token software licensing project</title><path fill="#E4CF37" id="more" d="M165,0C74.019,0,0,74.019,0,165s74.019,165,165,165s165-74.019,165-165S255.981,0,165,0z M85,190 c-13.785,0-25-11.215-25-25s11.215-25,25-25s25,11.215,25,25S98.785,190,85,190z M165,190c-13.785,0-25-11.215-25-25 s11.215-25,25-25s25,11.215,25,25S178.785,190,165,190z M245,190c-13.785,0-25-11.215-25-25s11.215-25,25-25 c13.785,0,25,11.215,25,25S258.785,190,245,190z"></path></a></g></svg></svg></svg>