<svg version="1.1" xmlns="http://www.w3.org/2000/svg" xmlns:xlink="http://www.w3.org/1999/xlink" fill="transparent" x="0" y="0" width="350" height="350" preserveAspectRatio="xMinYMin slice"><style type="text/css">.links{fill:transparent;stroke: #E4CF37;}.links:hover{fill:#63D272; opacity:0.4;}</style><defs><g id="allt"><path id="t1297" d="M4224,288 L4214,287 C4205,287 4216,291 4206,291 C4197,292 4212,288 4201,288 L4191,288 4191,288 L4190,298 C4189,308 4197,293 4198,301 C4199,310 4190,299 4190,309 L4191,320 4191,320 L4201,319 C4211,318 4196,326 4205,327 C4214,328 4203,319 4213,319 L4224,320 4224,320 L4225,310 C4226,300 4220,314 4220,304 C4220,295 4226,307 4225,297 L4224,288"/></g><clipPath id="c" clipRule="evenodd" fill="transparent"><use href="#t1297"/></clipPath></defs><svg viewBox="4188 286 39 43" preserveAspectRatio="xMinYMin meet"><svg width="4380" height="2430"><g><image crossorigin="anonymous" x="0" y="0" href="https://nftpuzzle.license-token.com/assets/completepuzzle.svg" width="100%" height="100%" /><g class="links"><use href="#t1297"/></g></g></svg><svg x="4212" y="314" height="9%" width="9%" viewBox="0 0 330 330"><g><a xlink:href="https://nftpuzzle.license-token.com/" class="links"><title>See the most innovative NFT based token software licensing project</title><path fill="#E4CF37" id="more" d="M165,0C74.019,0,0,74.019,0,165s74.019,165,165,165s165-74.019,165-165S255.981,0,165,0z M85,190 c-13.785,0-25-11.215-25-25s11.215-25,25-25s25,11.215,25,25S98.785,190,85,190z M165,190c-13.785,0-25-11.215-25-25 s11.215-25,25-25s25,11.215,25,25S178.785,190,165,190z M245,190c-13.785,0-25-11.215-25-25s11.215-25,25-25 c13.785,0,25,11.215,25,25S258.785,190,245,190z"></path></a></g></svg></svg></svg>