<svg version="1.1" xmlns="http://www.w3.org/2000/svg" xmlns:xlink="http://www.w3.org/1999/xlink" fill="transparent" x="0" y="0" width="350" height="350" preserveAspectRatio="xMinYMin slice"><style type="text/css">.links{fill:transparent;stroke: #E4CF37;}.links:hover{fill:#63D272; opacity:0.4;}</style><defs><g id="allt"><path id="t1334" d="M1155,320 L1144,320 C1134,320 1146,325 1137,326 C1129,328 1140,320 1131,320 L1122,320 1122,320 L1120,329 C1119,338 1129,327 1128,335 C1128,344 1119,331 1120,341 L1122,352 1122,352 L1131,350 C1140,349 1129,359 1138,358 C1147,358 1133,349 1144,350 L1155,352 1155,352 L1155,342 C1155,333 1159,343 1158,334 C1158,326 1155,339 1155,329 L1155,320"/></g><clipPath id="c" clipRule="evenodd" fill="transparent"><use href="#t1334"/></clipPath></defs><svg viewBox="1118 319 42 41" preserveAspectRatio="xMinYMin meet"><svg width="4380" height="2430"><g><image crossorigin="anonymous" x="0" y="0" href="https://nftpuzzle.license-token.com/assets/completepuzzle.svg" width="100%" height="100%" /><g class="links"><use href="#t1334"/></g></g></svg><svg x="1145" y="345" height="9%" width="9%" viewBox="0 0 330 330"><g><a xlink:href="https://nftpuzzle.license-token.com/" class="links"><title>See the most innovative NFT based token software licensing project</title><path fill="#E4CF37" id="more" d="M165,0C74.019,0,0,74.019,0,165s74.019,165,165,165s165-74.019,165-165S255.981,0,165,0z M85,190 c-13.785,0-25-11.215-25-25s11.215-25,25-25s25,11.215,25,25S98.785,190,85,190z M165,190c-13.785,0-25-11.215-25-25 s11.215-25,25-25s25,11.215,25,25S178.785,190,165,190z M245,190c-13.785,0-25-11.215-25-25s11.215-25,25-25 c13.785,0,25,11.215,25,25S258.785,190,245,190z"></path></a></g></svg></svg></svg>