<svg version="1.1" xmlns="http://www.w3.org/2000/svg" xmlns:xlink="http://www.w3.org/1999/xlink" fill="transparent" x="0" y="0" width="350" height="350" preserveAspectRatio="xMinYMin slice"><style type="text/css">.links{fill:transparent;stroke: #E4CF37;}.links:hover{fill:#63D272; opacity:0.4;}</style><defs><g id="allt"><path id="t1335" d="M1188,320 L1178,320 C1168,320 1182,312 1172,312 C1163,313 1175,324 1165,322 L1155,320 1155,320 L1155,329 C1155,339 1158,326 1158,334 C1159,343 1155,333 1155,342 L1155,352 1155,352 L1165,352 C1175,352 1161,355 1169,355 C1178,356 1169,352 1178,352 L1188,352 1188,352 L1189,342 C1190,332 1185,345 1185,335 C1185,326 1189,337 1188,328 L1188,320"/></g><clipPath id="c" clipRule="evenodd" fill="transparent"><use href="#t1335"/></clipPath></defs><svg viewBox="1154 311 37 46" preserveAspectRatio="xMinYMin meet"><svg width="4380" height="2430"><g><image crossorigin="anonymous" x="0" y="0" href="https://nftpuzzle.license-token.com/assets/completepuzzle.svg" width="100%" height="100%" /><g class="links"><use href="#t1335"/></g></g></svg><svg x="1176" y="342" height="9%" width="9%" viewBox="0 0 330 330"><g><a xlink:href="https://nftpuzzle.license-token.com/" class="links"><title>See the most innovative NFT based token software licensing project</title><path fill="#E4CF37" id="more" d="M165,0C74.019,0,0,74.019,0,165s74.019,165,165,165s165-74.019,165-165S255.981,0,165,0z M85,190 c-13.785,0-25-11.215-25-25s11.215-25,25-25s25,11.215,25,25S98.785,190,85,190z M165,190c-13.785,0-25-11.215-25-25 s11.215-25,25-25s25,11.215,25,25S178.785,190,165,190z M245,190c-13.785,0-25-11.215-25-25s11.215-25,25-25 c13.785,0,25,11.215,25,25S258.785,190,245,190z"></path></a></g></svg></svg></svg>