<svg version="1.1" xmlns="http://www.w3.org/2000/svg" xmlns:xlink="http://www.w3.org/1999/xlink" fill="transparent" x="0" y="0" width="350" height="350" preserveAspectRatio="xMinYMin slice"><style type="text/css">.links{fill:transparent;stroke: #E4CF37;}.links:hover{fill:#63D272; opacity:0.4;}</style><defs><g id="allt"><path id="t1341" d="M1386,320 L1376,317 C1366,315 1380,328 1369,329 C1359,330 1375,319 1364,319 L1353,320 1353,320 L1354,330 C1355,341 1342,325 1344,335 C1347,346 1354,333 1353,342 L1353,352 1353,352 L1363,353 C1374,354 1358,341 1369,343 C1380,346 1366,353 1376,352 L1386,352 1386,352 L1386,341 C1386,330 1382,344 1381,334 C1381,325 1386,337 1386,328 L1386,320"/></g><clipPath id="c" clipRule="evenodd" fill="transparent"><use href="#t1341"/></clipPath></defs><svg viewBox="1341 314 46 41" preserveAspectRatio="xMinYMin meet"><svg width="4380" height="2430"><g><image crossorigin="anonymous" x="0" y="0" href="https://nftpuzzle.license-token.com/assets/completepuzzle.svg" width="100%" height="100%" /><g class="links"><use href="#t1341"/></g></g></svg><svg x="1372" y="340" height="9%" width="9%" viewBox="0 0 330 330"><g><a xlink:href="https://nftpuzzle.license-token.com/" class="links"><title>See the most innovative NFT based token software licensing project</title><path fill="#E4CF37" id="more" d="M165,0C74.019,0,0,74.019,0,165s74.019,165,165,165s165-74.019,165-165S255.981,0,165,0z M85,190 c-13.785,0-25-11.215-25-25s11.215-25,25-25s25,11.215,25,25S98.785,190,85,190z M165,190c-13.785,0-25-11.215-25-25 s11.215-25,25-25s25,11.215,25,25S178.785,190,165,190z M245,190c-13.785,0-25-11.215-25-25s11.215-25,25-25 c13.785,0,25,11.215,25,25S258.785,190,245,190z"></path></a></g></svg></svg></svg>