<svg version="1.1" xmlns="http://www.w3.org/2000/svg" xmlns:xlink="http://www.w3.org/1999/xlink" fill="transparent" x="0" y="0" width="350" height="350" preserveAspectRatio="xMinYMin slice"><style type="text/css">.links{fill:transparent;stroke: #E4CF37;}.links:hover{fill:#63D272; opacity:0.4;}</style><defs><g id="allt"><path id="t1342" d="M1419,320 L1409,321 C1400,323 1411,313 1401,312 C1391,312 1405,321 1395,320 L1386,320 1386,320 L1386,328 C1386,337 1381,325 1381,334 C1382,344 1386,330 1386,341 L1386,352 1386,352 L1395,352 C1404,352 1391,347 1401,347 C1411,348 1397,352 1408,352 L1419,352 1419,352 L1419,342 C1420,333 1414,344 1414,334 C1414,324 1421,337 1420,328 L1419,320"/></g><clipPath id="c" clipRule="evenodd" fill="transparent"><use href="#t1342"/></clipPath></defs><svg viewBox="1380 311 42 42" preserveAspectRatio="xMinYMin meet"><svg width="4380" height="2430"><g><image crossorigin="anonymous" x="0" y="0" href="https://nftpuzzle.license-token.com/assets/completepuzzle.svg" width="100%" height="100%" /><g class="links"><use href="#t1342"/></g></g></svg><svg x="1407" y="338" height="9%" width="9%" viewBox="0 0 330 330"><g><a xlink:href="https://nftpuzzle.license-token.com/" class="links"><title>See the most innovative NFT based token software licensing project</title><path fill="#E4CF37" id="more" d="M165,0C74.019,0,0,74.019,0,165s74.019,165,165,165s165-74.019,165-165S255.981,0,165,0z M85,190 c-13.785,0-25-11.215-25-25s11.215-25,25-25s25,11.215,25,25S98.785,190,85,190z M165,190c-13.785,0-25-11.215-25-25 s11.215-25,25-25s25,11.215,25,25S178.785,190,165,190z M245,190c-13.785,0-25-11.215-25-25s11.215-25,25-25 c13.785,0,25,11.215,25,25S258.785,190,245,190z"></path></a></g></svg></svg></svg>