<svg version="1.1" xmlns="http://www.w3.org/2000/svg" xmlns:xlink="http://www.w3.org/1999/xlink" fill="transparent" x="0" y="0" width="350" height="350" preserveAspectRatio="xMinYMin slice"><style type="text/css">.links{fill:transparent;stroke: #E4CF37;}.links:hover{fill:#63D272; opacity:0.4;}</style><defs><g id="allt"><path id="t1349" d="M1650,320 L1640,320 C1630,320 1641,327 1633,326 C1625,326 1638,320 1627,320 L1617,320 1617,320 L1615,328 C1614,337 1621,325 1621,335 C1622,345 1616,333 1616,342 L1617,352 1617,352 L1626,350 C1635,349 1622,356 1632,356 C1643,357 1631,351 1640,351 L1650,352 1650,352 L1651,342 C1652,333 1646,343 1646,334 C1646,326 1651,337 1650,328 L1650,320"/></g><clipPath id="c" clipRule="evenodd" fill="transparent"><use href="#t1349"/></clipPath></defs><svg viewBox="1613 319 40 39" preserveAspectRatio="xMinYMin meet"><svg width="4380" height="2430"><g><image crossorigin="anonymous" x="0" y="0" href="https://nftpuzzle.license-token.com/assets/completepuzzle.svg" width="100%" height="100%" /><g class="links"><use href="#t1349"/></g></g></svg><svg x="1638" y="343" height="9%" width="9%" viewBox="0 0 330 330"><g><a xlink:href="https://nftpuzzle.license-token.com/" class="links"><title>See the most innovative NFT based token software licensing project</title><path fill="#E4CF37" id="more" d="M165,0C74.019,0,0,74.019,0,165s74.019,165,165,165s165-74.019,165-165S255.981,0,165,0z M85,190 c-13.785,0-25-11.215-25-25s11.215-25,25-25s25,11.215,25,25S98.785,190,85,190z M165,190c-13.785,0-25-11.215-25-25 s11.215-25,25-25s25,11.215,25,25S178.785,190,165,190z M245,190c-13.785,0-25-11.215-25-25s11.215-25,25-25 c13.785,0,25,11.215,25,25S258.785,190,245,190z"></path></a></g></svg></svg></svg>