<svg version="1.1" xmlns="http://www.w3.org/2000/svg" xmlns:xlink="http://www.w3.org/1999/xlink" fill="transparent" x="0" y="0" width="350" height="350" preserveAspectRatio="xMinYMin slice"><style type="text/css">.links{fill:transparent;stroke: #E4CF37;}.links:hover{fill:#63D272; opacity:0.4;}</style><defs><g id="allt"><path id="t1352" d="M1749,320 L1737,317 C1726,315 1743,333 1732,330 C1721,327 1738,317 1727,318 L1716,320 1716,320 L1717,330 C1718,340 1705,328 1705,335 C1705,343 1718,334 1717,343 L1716,352 1716,352 L1726,353 C1737,354 1724,342 1731,341 C1739,341 1730,354 1739,353 L1749,352 1749,352 L1747,342 C1745,332 1756,346 1756,336 C1757,326 1747,340 1748,330 L1749,320"/></g><clipPath id="c" clipRule="evenodd" fill="transparent"><use href="#t1352"/></clipPath></defs><svg viewBox="1704 314 54 41" preserveAspectRatio="xMinYMin meet"><svg width="4380" height="2430"><g><image crossorigin="anonymous" x="0" y="0" href="https://nftpuzzle.license-token.com/assets/completepuzzle.svg" width="100%" height="100%" /><g class="links"><use href="#t1352"/></g></g></svg><svg x="1743" y="340" height="9%" width="9%" viewBox="0 0 330 330"><g><a xlink:href="https://nftpuzzle.license-token.com/" class="links"><title>See the most innovative NFT based token software licensing project</title><path fill="#E4CF37" id="more" d="M165,0C74.019,0,0,74.019,0,165s74.019,165,165,165s165-74.019,165-165S255.981,0,165,0z M85,190 c-13.785,0-25-11.215-25-25s11.215-25,25-25s25,11.215,25,25S98.785,190,85,190z M165,190c-13.785,0-25-11.215-25-25 s11.215-25,25-25s25,11.215,25,25S178.785,190,165,190z M245,190c-13.785,0-25-11.215-25-25s11.215-25,25-25 c13.785,0,25,11.215,25,25S258.785,190,245,190z"></path></a></g></svg></svg></svg>