<svg version="1.1" xmlns="http://www.w3.org/2000/svg" xmlns:xlink="http://www.w3.org/1999/xlink" fill="transparent" x="0" y="0" width="350" height="350" preserveAspectRatio="xMinYMin slice"><style type="text/css">.links{fill:transparent;stroke: #E4CF37;}.links:hover{fill:#63D272; opacity:0.4;}</style><defs><g id="allt"><path id="t1357" d="M1914,320 L1903,320 C1893,321 1907,311 1897,312 C1887,313 1901,322 1891,321 L1881,320 1881,320 L1883,330 C1885,341 1870,329 1872,336 C1875,344 1881,331 1881,341 L1881,352 1881,352 L1891,354 C1902,356 1890,341 1898,343 C1906,346 1892,352 1903,352 L1914,352 1914,352 L1915,343 C1917,334 1907,343 1906,335 C1905,328 1914,339 1914,329 L1914,320"/></g><clipPath id="c" clipRule="evenodd" fill="transparent"><use href="#t1357"/></clipPath></defs><svg viewBox="1869 310 49 47" preserveAspectRatio="xMinYMin meet"><svg width="4380" height="2430"><g><image crossorigin="anonymous" x="0" y="0" href="https://nftpuzzle.license-token.com/assets/completepuzzle.svg" width="100%" height="100%" /><g class="links"><use href="#t1357"/></g></g></svg><svg x="1903" y="342" height="9%" width="9%" viewBox="0 0 330 330"><g><a xlink:href="https://nftpuzzle.license-token.com/" class="links"><title>See the most innovative NFT based token software licensing project</title><path fill="#E4CF37" id="more" d="M165,0C74.019,0,0,74.019,0,165s74.019,165,165,165s165-74.019,165-165S255.981,0,165,0z M85,190 c-13.785,0-25-11.215-25-25s11.215-25,25-25s25,11.215,25,25S98.785,190,85,190z M165,190c-13.785,0-25-11.215-25-25 s11.215-25,25-25s25,11.215,25,25S178.785,190,165,190z M245,190c-13.785,0-25-11.215-25-25s11.215-25,25-25 c13.785,0,25,11.215,25,25S258.785,190,245,190z"></path></a></g></svg></svg></svg>