<svg version="1.1" xmlns="http://www.w3.org/2000/svg" xmlns:xlink="http://www.w3.org/1999/xlink" fill="transparent" x="0" y="0" width="350" height="350" preserveAspectRatio="xMinYMin slice"><style type="text/css">.links{fill:transparent;stroke: #E4CF37;}.links:hover{fill:#63D272; opacity:0.4;}</style><defs><g id="allt"><path id="t1359" d="M1980,320 L1970,320 C1960,320 1973,309 1964,311 C1956,313 1969,325 1958,322 L1947,320 1947,320 L1948,329 C1949,338 1940,325 1939,336 C1939,347 1947,333 1947,342 L1947,352 1947,352 L1956,353 C1966,354 1952,345 1963,344 C1975,344 1960,352 1970,352 L1980,352 1980,352 L1980,342 C1980,333 1977,344 1977,335 C1977,326 1980,338 1980,329 L1980,320"/></g><clipPath id="c" clipRule="evenodd" fill="transparent"><use href="#t1359"/></clipPath></defs><svg viewBox="1938 308 43 47" preserveAspectRatio="xMinYMin meet"><svg width="4380" height="2430"><g><image crossorigin="anonymous" x="0" y="0" href="https://nftpuzzle.license-token.com/assets/completepuzzle.svg" width="100%" height="100%" /><g class="links"><use href="#t1359"/></g></g></svg><svg x="1966" y="340" height="9%" width="9%" viewBox="0 0 330 330"><g><a xlink:href="https://nftpuzzle.license-token.com/" class="links"><title>See the most innovative NFT based token software licensing project</title><path fill="#E4CF37" id="more" d="M165,0C74.019,0,0,74.019,0,165s74.019,165,165,165s165-74.019,165-165S255.981,0,165,0z M85,190 c-13.785,0-25-11.215-25-25s11.215-25,25-25s25,11.215,25,25S98.785,190,85,190z M165,190c-13.785,0-25-11.215-25-25 s11.215-25,25-25s25,11.215,25,25S178.785,190,165,190z M245,190c-13.785,0-25-11.215-25-25s11.215-25,25-25 c13.785,0,25,11.215,25,25S258.785,190,245,190z"></path></a></g></svg></svg></svg>