<svg version="1.1" xmlns="http://www.w3.org/2000/svg" xmlns:xlink="http://www.w3.org/1999/xlink" fill="transparent" x="0" y="0" width="350" height="350" preserveAspectRatio="xMinYMin slice"><style type="text/css">.links{fill:transparent;stroke: #E4CF37;}.links:hover{fill:#63D272; opacity:0.4;}</style><defs><g id="allt"><path id="t1360" d="M2013,320 L2003,320 C1994,320 2003,318 1994,317 C1985,317 2000,320 1990,320 L1980,320 1980,320 L1980,329 C1980,338 1977,326 1977,335 C1977,344 1980,333 1980,342 L1980,352 1980,352 L1989,352 C1999,352 1986,349 1995,349 C2004,349 1994,352 2003,352 L2013,352 2013,352 L2013,342 C2013,332 2015,345 2015,336 C2015,328 2012,340 2012,330 L2013,320"/></g><clipPath id="c" clipRule="evenodd" fill="transparent"><use href="#t1360"/></clipPath></defs><svg viewBox="1976 316 40 37" preserveAspectRatio="xMinYMin meet"><svg width="4380" height="2430"><g><image crossorigin="anonymous" x="0" y="0" href="https://nftpuzzle.license-token.com/assets/completepuzzle.svg" width="100%" height="100%" /><g class="links"><use href="#t1360"/></g></g></svg><svg x="2001" y="338" height="9%" width="9%" viewBox="0 0 330 330"><g><a xlink:href="https://nftpuzzle.license-token.com/" class="links"><title>See the most innovative NFT based token software licensing project</title><path fill="#E4CF37" id="more" d="M165,0C74.019,0,0,74.019,0,165s74.019,165,165,165s165-74.019,165-165S255.981,0,165,0z M85,190 c-13.785,0-25-11.215-25-25s11.215-25,25-25s25,11.215,25,25S98.785,190,85,190z M165,190c-13.785,0-25-11.215-25-25 s11.215-25,25-25s25,11.215,25,25S178.785,190,165,190z M245,190c-13.785,0-25-11.215-25-25s11.215-25,25-25 c13.785,0,25,11.215,25,25S258.785,190,245,190z"></path></a></g></svg></svg></svg>