<svg version="1.1" xmlns="http://www.w3.org/2000/svg" xmlns:xlink="http://www.w3.org/1999/xlink" fill="transparent" x="0" y="0" width="350" height="350" preserveAspectRatio="xMinYMin slice"><style type="text/css">.links{fill:transparent;stroke: #E4CF37;}.links:hover{fill:#63D272; opacity:0.4;}</style><defs><g id="allt"><path id="t1361" d="M2046,320 L2035,322 C2024,324 2039,312 2030,310 C2022,309 2034,324 2023,322 L2013,320 2013,320 L2012,330 C2012,340 2015,328 2015,336 C2015,345 2013,332 2013,342 L2013,352 2013,352 L2023,351 C2034,351 2021,354 2030,354 C2039,354 2025,352 2035,352 L2046,352 2046,352 L2044,341 C2043,331 2049,345 2049,335 C2050,325 2045,338 2045,329 L2046,320"/></g><clipPath id="c" clipRule="evenodd" fill="transparent"><use href="#t1361"/></clipPath></defs><svg viewBox="2011 308 40 47" preserveAspectRatio="xMinYMin meet"><svg width="4380" height="2430"><g><image crossorigin="anonymous" x="0" y="0" href="https://nftpuzzle.license-token.com/assets/completepuzzle.svg" width="100%" height="100%" /><g class="links"><use href="#t1361"/></g></g></svg><svg x="2036" y="340" height="9%" width="9%" viewBox="0 0 330 330"><g><a xlink:href="https://nftpuzzle.license-token.com/" class="links"><title>See the most innovative NFT based token software licensing project</title><path fill="#E4CF37" id="more" d="M165,0C74.019,0,0,74.019,0,165s74.019,165,165,165s165-74.019,165-165S255.981,0,165,0z M85,190 c-13.785,0-25-11.215-25-25s11.215-25,25-25s25,11.215,25,25S98.785,190,85,190z M165,190c-13.785,0-25-11.215-25-25 s11.215-25,25-25s25,11.215,25,25S178.785,190,165,190z M245,190c-13.785,0-25-11.215-25-25s11.215-25,25-25 c13.785,0,25,11.215,25,25S258.785,190,245,190z"></path></a></g></svg></svg></svg>