<svg version="1.1" xmlns="http://www.w3.org/2000/svg" xmlns:xlink="http://www.w3.org/1999/xlink" fill="transparent" x="0" y="0" width="350" height="350" preserveAspectRatio="xMinYMin slice"><style type="text/css">.links{fill:transparent;stroke: #E4CF37;}.links:hover{fill:#63D272; opacity:0.4;}</style><defs><g id="allt"><path id="t1363" d="M2112,320 L2101,320 C2090,321 2105,317 2096,317 C2087,318 2099,320 2089,320 L2079,320 2079,320 L2079,329 C2079,338 2071,329 2073,335 C2075,342 2079,331 2079,341 L2079,352 2079,352 L2088,352 C2097,352 2088,344 2095,346 C2102,348 2090,352 2101,352 L2112,352 2112,352 L2112,341 C2112,331 2120,345 2121,336 C2122,327 2109,338 2110,329 L2112,320"/></g><clipPath id="c" clipRule="evenodd" fill="transparent"><use href="#t1363"/></clipPath></defs><svg viewBox="2070 316 53 37" preserveAspectRatio="xMinYMin meet"><svg width="4380" height="2430"><g><image crossorigin="anonymous" x="0" y="0" href="https://nftpuzzle.license-token.com/assets/completepuzzle.svg" width="100%" height="100%" /><g class="links"><use href="#t1363"/></g></g></svg><svg x="2108" y="338" height="9%" width="9%" viewBox="0 0 330 330"><g><a xlink:href="https://nftpuzzle.license-token.com/" class="links"><title>See the most innovative NFT based token software licensing project</title><path fill="#E4CF37" id="more" d="M165,0C74.019,0,0,74.019,0,165s74.019,165,165,165s165-74.019,165-165S255.981,0,165,0z M85,190 c-13.785,0-25-11.215-25-25s11.215-25,25-25s25,11.215,25,25S98.785,190,85,190z M165,190c-13.785,0-25-11.215-25-25 s11.215-25,25-25s25,11.215,25,25S178.785,190,165,190z M245,190c-13.785,0-25-11.215-25-25s11.215-25,25-25 c13.785,0,25,11.215,25,25S258.785,190,245,190z"></path></a></g></svg></svg></svg>