<svg version="1.1" xmlns="http://www.w3.org/2000/svg" xmlns:xlink="http://www.w3.org/1999/xlink" fill="transparent" x="0" y="0" width="350" height="350" preserveAspectRatio="xMinYMin slice"><style type="text/css">.links{fill:transparent;stroke: #E4CF37;}.links:hover{fill:#63D272; opacity:0.4;}</style><defs><g id="allt"><path id="t1364" d="M2145,320 L2135,320 C2125,320 2137,312 2127,314 C2118,316 2131,323 2121,321 L2112,320 2112,320 L2110,329 C2109,338 2122,327 2121,336 C2120,345 2112,331 2112,341 L2112,352 2112,352 L2121,350 C2131,349 2119,362 2128,361 C2138,360 2123,352 2134,352 L2145,352 2145,352 L2145,342 C2146,333 2138,346 2136,336 C2135,327 2149,338 2147,329 L2145,320"/></g><clipPath id="c" clipRule="evenodd" fill="transparent"><use href="#t1364"/></clipPath></defs><svg viewBox="2108 311 42 52" preserveAspectRatio="xMinYMin meet"><svg width="4380" height="2430"><g><image crossorigin="anonymous" x="0" y="0" href="https://nftpuzzle.license-token.com/assets/completepuzzle.svg" width="100%" height="100%" /><g class="links"><use href="#t1364"/></g></g></svg><svg x="2135" y="348" height="9%" width="9%" viewBox="0 0 330 330"><g><a xlink:href="https://nftpuzzle.license-token.com/" class="links"><title>See the most innovative NFT based token software licensing project</title><path fill="#E4CF37" id="more" d="M165,0C74.019,0,0,74.019,0,165s74.019,165,165,165s165-74.019,165-165S255.981,0,165,0z M85,190 c-13.785,0-25-11.215-25-25s11.215-25,25-25s25,11.215,25,25S98.785,190,85,190z M165,190c-13.785,0-25-11.215-25-25 s11.215-25,25-25s25,11.215,25,25S178.785,190,165,190z M245,190c-13.785,0-25-11.215-25-25s11.215-25,25-25 c13.785,0,25,11.215,25,25S258.785,190,245,190z"></path></a></g></svg></svg></svg>