<svg version="1.1" xmlns="http://www.w3.org/2000/svg" xmlns:xlink="http://www.w3.org/1999/xlink" fill="transparent" x="0" y="0" width="350" height="350" preserveAspectRatio="xMinYMin slice"><style type="text/css">.links{fill:transparent;stroke: #E4CF37;}.links:hover{fill:#63D272; opacity:0.4;}</style><defs><g id="allt"><path id="t1369" d="M2310,320 L2299,321 C2289,322 2304,317 2295,317 C2286,318 2297,321 2287,320 L2277,320 2277,320 L2277,330 C2278,340 2273,325 2273,334 C2273,344 2277,332 2277,342 L2277,352 2277,352 L2287,352 C2298,353 2282,348 2292,348 C2302,348 2289,352 2299,352 L2310,352 2310,352 L2308,342 C2307,332 2318,345 2318,335 C2318,325 2306,340 2308,330 L2310,320"/></g><clipPath id="c" clipRule="evenodd" fill="transparent"><use href="#t1369"/></clipPath></defs><svg viewBox="2272 316 47 38" preserveAspectRatio="xMinYMin meet"><svg width="4380" height="2430"><g><image crossorigin="anonymous" x="0" y="0" href="https://nftpuzzle.license-token.com/assets/completepuzzle.svg" width="100%" height="100%" /><g class="links"><use href="#t1369"/></g></g></svg><svg x="2304" y="339" height="9%" width="9%" viewBox="0 0 330 330"><g><a xlink:href="https://nftpuzzle.license-token.com/" class="links"><title>See the most innovative NFT based token software licensing project</title><path fill="#E4CF37" id="more" d="M165,0C74.019,0,0,74.019,0,165s74.019,165,165,165s165-74.019,165-165S255.981,0,165,0z M85,190 c-13.785,0-25-11.215-25-25s11.215-25,25-25s25,11.215,25,25S98.785,190,85,190z M165,190c-13.785,0-25-11.215-25-25 s11.215-25,25-25s25,11.215,25,25S178.785,190,165,190z M245,190c-13.785,0-25-11.215-25-25s11.215-25,25-25 c13.785,0,25,11.215,25,25S258.785,190,245,190z"></path></a></g></svg></svg></svg>