<svg version="1.1" xmlns="http://www.w3.org/2000/svg" xmlns:xlink="http://www.w3.org/1999/xlink" fill="transparent" x="0" y="0" width="350" height="350" preserveAspectRatio="xMinYMin slice"><style type="text/css">.links{fill:transparent;stroke: #E4CF37;}.links:hover{fill:#63D272; opacity:0.4;}</style><defs><g id="allt"><path id="t1371" d="M2376,320 L2364,320 C2353,320 2369,329 2360,330 C2352,331 2364,320 2353,320 L2343,320 2343,320 L2343,330 C2344,341 2338,326 2338,335 C2339,344 2346,333 2344,342 L2343,352 2343,352 L2353,352 C2364,353 2349,347 2358,347 C2367,348 2356,355 2366,353 L2376,352 2376,352 L2376,341 C2376,330 2383,346 2381,336 C2380,326 2373,339 2374,329 L2376,320"/></g><clipPath id="c" clipRule="evenodd" fill="transparent"><use href="#t1371"/></clipPath></defs><svg viewBox="2337 319 47 37" preserveAspectRatio="xMinYMin meet"><svg width="4380" height="2430"><g><image crossorigin="anonymous" x="0" y="0" href="https://nftpuzzle.license-token.com/assets/completepuzzle.svg" width="100%" height="100%" /><g class="links"><use href="#t1371"/></g></g></svg><svg x="2369" y="341" height="9%" width="9%" viewBox="0 0 330 330"><g><a xlink:href="https://nftpuzzle.license-token.com/" class="links"><title>See the most innovative NFT based token software licensing project</title><path fill="#E4CF37" id="more" d="M165,0C74.019,0,0,74.019,0,165s74.019,165,165,165s165-74.019,165-165S255.981,0,165,0z M85,190 c-13.785,0-25-11.215-25-25s11.215-25,25-25s25,11.215,25,25S98.785,190,85,190z M165,190c-13.785,0-25-11.215-25-25 s11.215-25,25-25s25,11.215,25,25S178.785,190,165,190z M245,190c-13.785,0-25-11.215-25-25s11.215-25,25-25 c13.785,0,25,11.215,25,25S258.785,190,245,190z"></path></a></g></svg></svg></svg>