<svg version="1.1" xmlns="http://www.w3.org/2000/svg" xmlns:xlink="http://www.w3.org/1999/xlink" fill="transparent" x="0" y="0" width="350" height="350" preserveAspectRatio="xMinYMin slice"><style type="text/css">.links{fill:transparent;stroke: #E4CF37;}.links:hover{fill:#63D272; opacity:0.4;}</style><defs><g id="allt"><path id="t1373" d="M2442,320 L2431,320 C2421,320 2436,316 2426,315 C2417,315 2429,321 2419,320 L2409,320 2409,320 L2408,330 C2407,341 2415,329 2413,336 C2411,344 2409,333 2409,342 L2409,352 2409,352 L2420,351 C2431,350 2418,358 2426,356 C2434,354 2422,352 2432,352 L2442,352 2442,352 L2442,342 C2443,332 2437,342 2437,334 C2438,326 2442,338 2442,329 L2442,320"/></g><clipPath id="c" clipRule="evenodd" fill="transparent"><use href="#t1373"/></clipPath></defs><svg viewBox="2406 314 38 45" preserveAspectRatio="xMinYMin meet"><svg width="4380" height="2430"><g><image crossorigin="anonymous" x="0" y="0" href="https://nftpuzzle.license-token.com/assets/completepuzzle.svg" width="100%" height="100%" /><g class="links"><use href="#t1373"/></g></g></svg><svg x="2429" y="344" height="9%" width="9%" viewBox="0 0 330 330"><g><a xlink:href="https://nftpuzzle.license-token.com/" class="links"><title>See the most innovative NFT based token software licensing project</title><path fill="#E4CF37" id="more" d="M165,0C74.019,0,0,74.019,0,165s74.019,165,165,165s165-74.019,165-165S255.981,0,165,0z M85,190 c-13.785,0-25-11.215-25-25s11.215-25,25-25s25,11.215,25,25S98.785,190,85,190z M165,190c-13.785,0-25-11.215-25-25 s11.215-25,25-25s25,11.215,25,25S178.785,190,165,190z M245,190c-13.785,0-25-11.215-25-25s11.215-25,25-25 c13.785,0,25,11.215,25,25S258.785,190,245,190z"></path></a></g></svg></svg></svg>