<svg version="1.1" xmlns="http://www.w3.org/2000/svg" xmlns:xlink="http://www.w3.org/1999/xlink" fill="transparent" x="0" y="0" width="350" height="350" preserveAspectRatio="xMinYMin slice"><style type="text/css">.links{fill:transparent;stroke: #E4CF37;}.links:hover{fill:#63D272; opacity:0.4;}</style><defs><g id="allt"><path id="t1376" d="M2541,320 L2530,320 C2520,320 2532,313 2522,313 C2513,313 2526,323 2517,321 L2508,320 2508,320 L2508,330 C2508,340 2518,327 2518,335 C2519,343 2504,333 2506,342 L2508,352 2508,352 L2518,352 C2529,352 2515,361 2523,362 C2532,363 2521,348 2531,350 L2541,352 2541,352 L2541,342 C2541,332 2531,342 2532,333 C2534,325 2547,341 2544,330 L2541,320"/></g><clipPath id="c" clipRule="evenodd" fill="transparent"><use href="#t1376"/></clipPath></defs><svg viewBox="2503 312 45 52" preserveAspectRatio="xMinYMin meet"><svg width="4380" height="2430"><g><image crossorigin="anonymous" x="0" y="0" href="https://nftpuzzle.license-token.com/assets/completepuzzle.svg" width="100%" height="100%" /><g class="links"><use href="#t1376"/></g></g></svg><svg x="2533" y="349" height="9%" width="9%" viewBox="0 0 330 330"><g><a xlink:href="https://nftpuzzle.license-token.com/" class="links"><title>See the most innovative NFT based token software licensing project</title><path fill="#E4CF37" id="more" d="M165,0C74.019,0,0,74.019,0,165s74.019,165,165,165s165-74.019,165-165S255.981,0,165,0z M85,190 c-13.785,0-25-11.215-25-25s11.215-25,25-25s25,11.215,25,25S98.785,190,85,190z M165,190c-13.785,0-25-11.215-25-25 s11.215-25,25-25s25,11.215,25,25S178.785,190,165,190z M245,190c-13.785,0-25-11.215-25-25s11.215-25,25-25 c13.785,0,25,11.215,25,25S258.785,190,245,190z"></path></a></g></svg></svg></svg>