<svg version="1.1" xmlns="http://www.w3.org/2000/svg" xmlns:xlink="http://www.w3.org/1999/xlink" fill="transparent" x="0" y="0" width="350" height="350" preserveAspectRatio="xMinYMin slice"><style type="text/css">.links{fill:transparent;stroke: #E4CF37;}.links:hover{fill:#63D272; opacity:0.4;}</style><defs><g id="allt"><path id="t1387" d="M2904,320 L2894,320 C2884,320 2895,324 2885,323 C2876,323 2889,320 2880,320 L2871,320 2871,320 L2871,330 C2872,340 2867,329 2867,336 C2868,343 2871,331 2871,341 L2871,352 2871,352 L2881,352 C2891,353 2880,348 2887,348 C2895,349 2882,352 2893,352 L2904,352 2904,352 L2904,343 C2904,334 2902,344 2900,336 C2899,329 2906,338 2905,329 L2904,320"/></g><clipPath id="c" clipRule="evenodd" fill="transparent"><use href="#t1387"/></clipPath></defs><svg viewBox="2866 319 41 35" preserveAspectRatio="xMinYMin meet"><svg width="4380" height="2430"><g><image crossorigin="anonymous" x="0" y="0" href="https://nftpuzzle.license-token.com/assets/completepuzzle.svg" width="100%" height="100%" /><g class="links"><use href="#t1387"/></g></g></svg><svg x="2892" y="339" height="9%" width="9%" viewBox="0 0 330 330"><g><a xlink:href="https://nftpuzzle.license-token.com/" class="links"><title>See the most innovative NFT based token software licensing project</title><path fill="#E4CF37" id="more" d="M165,0C74.019,0,0,74.019,0,165s74.019,165,165,165s165-74.019,165-165S255.981,0,165,0z M85,190 c-13.785,0-25-11.215-25-25s11.215-25,25-25s25,11.215,25,25S98.785,190,85,190z M165,190c-13.785,0-25-11.215-25-25 s11.215-25,25-25s25,11.215,25,25S178.785,190,165,190z M245,190c-13.785,0-25-11.215-25-25s11.215-25,25-25 c13.785,0,25,11.215,25,25S258.785,190,245,190z"></path></a></g></svg></svg></svg>