<svg version="1.1" xmlns="http://www.w3.org/2000/svg" xmlns:xlink="http://www.w3.org/1999/xlink" fill="transparent" x="0" y="0" width="350" height="350" preserveAspectRatio="xMinYMin slice"><style type="text/css">.links{fill:transparent;stroke: #E4CF37;}.links:hover{fill:#63D272; opacity:0.4;}</style><defs><g id="allt"><path id="t1398" d="M3267,320 L3257,321 C3247,323 3259,313 3249,314 C3240,316 3253,320 3243,320 L3234,320 3234,320 L3234,330 C3235,340 3230,327 3230,335 C3230,344 3234,332 3234,342 L3234,352 3234,352 L3244,352 C3255,353 3241,348 3250,348 C3259,348 3246,352 3256,352 L3267,352 3267,352 L3267,342 C3267,333 3277,343 3278,335 C3280,328 3264,337 3265,328 L3267,320"/></g><clipPath id="c" clipRule="evenodd" fill="transparent"><use href="#t1398"/></clipPath></defs><svg viewBox="3229 312 52 42" preserveAspectRatio="xMinYMin meet"><svg width="4380" height="2430"><g><image crossorigin="anonymous" x="0" y="0" href="https://nftpuzzle.license-token.com/assets/completepuzzle.svg" width="100%" height="100%" /><g class="links"><use href="#t1398"/></g></g></svg><svg x="3266" y="339" height="9%" width="9%" viewBox="0 0 330 330"><g><a xlink:href="https://nftpuzzle.license-token.com/" class="links"><title>See the most innovative NFT based token software licensing project</title><path fill="#E4CF37" id="more" d="M165,0C74.019,0,0,74.019,0,165s74.019,165,165,165s165-74.019,165-165S255.981,0,165,0z M85,190 c-13.785,0-25-11.215-25-25s11.215-25,25-25s25,11.215,25,25S98.785,190,85,190z M165,190c-13.785,0-25-11.215-25-25 s11.215-25,25-25s25,11.215,25,25S178.785,190,165,190z M245,190c-13.785,0-25-11.215-25-25s11.215-25,25-25 c13.785,0,25,11.215,25,25S258.785,190,245,190z"></path></a></g></svg></svg></svg>