<svg version="1.1" xmlns="http://www.w3.org/2000/svg" xmlns:xlink="http://www.w3.org/1999/xlink" fill="transparent" x="0" y="0" width="350" height="350" preserveAspectRatio="xMinYMin slice"><style type="text/css">.links{fill:transparent;stroke: #E4CF37;}.links:hover{fill:#63D272; opacity:0.4;}</style><defs><g id="allt"><path id="t1400" d="M3333,320 L3322,320 C3311,320 3324,316 3314,315 C3305,314 3318,322 3309,321 L3300,320 3300,320 L3300,329 C3300,338 3297,328 3296,335 C3295,343 3302,331 3301,341 L3300,352 3300,352 L3309,352 C3319,352 3308,349 3316,348 C3324,347 3311,354 3322,353 L3333,352 3333,352 L3334,342 C3335,332 3324,346 3324,335 C3324,324 3333,338 3333,329 L3333,320"/></g><clipPath id="c" clipRule="evenodd" fill="transparent"><use href="#t1400"/></clipPath></defs><svg viewBox="3294 313 42 42" preserveAspectRatio="xMinYMin meet"><svg width="4380" height="2430"><g><image crossorigin="anonymous" x="0" y="0" href="https://nftpuzzle.license-token.com/assets/completepuzzle.svg" width="100%" height="100%" /><g class="links"><use href="#t1400"/></g></g></svg><svg x="3321" y="340" height="9%" width="9%" viewBox="0 0 330 330"><g><a xlink:href="https://nftpuzzle.license-token.com/" class="links"><title>See the most innovative NFT based token software licensing project</title><path fill="#E4CF37" id="more" d="M165,0C74.019,0,0,74.019,0,165s74.019,165,165,165s165-74.019,165-165S255.981,0,165,0z M85,190 c-13.785,0-25-11.215-25-25s11.215-25,25-25s25,11.215,25,25S98.785,190,85,190z M165,190c-13.785,0-25-11.215-25-25 s11.215-25,25-25s25,11.215,25,25S178.785,190,165,190z M245,190c-13.785,0-25-11.215-25-25s11.215-25,25-25 c13.785,0,25,11.215,25,25S258.785,190,245,190z"></path></a></g></svg></svg></svg>