<svg version="1.1" xmlns="http://www.w3.org/2000/svg" xmlns:xlink="http://www.w3.org/1999/xlink" fill="transparent" x="0" y="0" width="350" height="350" preserveAspectRatio="xMinYMin slice"><style type="text/css">.links{fill:transparent;stroke: #E4CF37;}.links:hover{fill:#63D272; opacity:0.4;}</style><defs><g id="allt"><path id="t1402" d="M3399,320 L3389,320 C3380,320 3390,329 3382,328 C3375,328 3384,320 3375,320 L3366,320 3366,320 L3366,330 C3366,341 3359,328 3360,336 C3361,345 3366,331 3366,341 L3366,352 3366,352 L3377,352 C3388,352 3374,345 3383,346 C3392,347 3377,352 3388,352 L3399,352 3399,352 L3399,341 C3399,330 3392,346 3393,336 C3394,327 3402,338 3400,329 L3399,320"/></g><clipPath id="c" clipRule="evenodd" fill="transparent"><use href="#t1402"/></clipPath></defs><svg viewBox="3358 319 45 34" preserveAspectRatio="xMinYMin meet"><svg width="4380" height="2430"><g><image crossorigin="anonymous" x="0" y="0" href="https://nftpuzzle.license-token.com/assets/completepuzzle.svg" width="100%" height="100%" /><g class="links"><use href="#t1402"/></g></g></svg><svg x="3388" y="338" height="9%" width="9%" viewBox="0 0 330 330"><g><a xlink:href="https://nftpuzzle.license-token.com/" class="links"><title>See the most innovative NFT based token software licensing project</title><path fill="#E4CF37" id="more" d="M165,0C74.019,0,0,74.019,0,165s74.019,165,165,165s165-74.019,165-165S255.981,0,165,0z M85,190 c-13.785,0-25-11.215-25-25s11.215-25,25-25s25,11.215,25,25S98.785,190,85,190z M165,190c-13.785,0-25-11.215-25-25 s11.215-25,25-25s25,11.215,25,25S178.785,190,165,190z M245,190c-13.785,0-25-11.215-25-25s11.215-25,25-25 c13.785,0,25,11.215,25,25S258.785,190,245,190z"></path></a></g></svg></svg></svg>