<svg version="1.1" xmlns="http://www.w3.org/2000/svg" xmlns:xlink="http://www.w3.org/1999/xlink" fill="transparent" x="0" y="0" width="350" height="350" preserveAspectRatio="xMinYMin slice"><style type="text/css">.links{fill:transparent;stroke: #E4CF37;}.links:hover{fill:#63D272; opacity:0.4;}</style><defs><g id="allt"><path id="t1404" d="M3465,320 L3455,320 C3446,320 3456,317 3446,316 C3437,315 3450,320 3441,320 L3432,320 3432,320 L3432,329 C3432,338 3438,328 3438,336 C3439,344 3432,331 3432,341 L3432,352 3432,352 L3441,352 C3451,352 3440,358 3448,358 C3457,359 3443,352 3454,352 L3465,352 3465,352 L3466,343 C3468,334 3461,345 3459,335 C3458,326 3465,338 3465,329 L3465,320"/></g><clipPath id="c" clipRule="evenodd" fill="transparent"><use href="#t1404"/></clipPath></defs><svg viewBox="3431 314 38 46" preserveAspectRatio="xMinYMin meet"><svg width="4380" height="2430"><g><image crossorigin="anonymous" x="0" y="0" href="https://nftpuzzle.license-token.com/assets/completepuzzle.svg" width="100%" height="100%" /><g class="links"><use href="#t1404"/></g></g></svg><svg x="3454" y="345" height="9%" width="9%" viewBox="0 0 330 330"><g><a xlink:href="https://nftpuzzle.license-token.com/" class="links"><title>See the most innovative NFT based token software licensing project</title><path fill="#E4CF37" id="more" d="M165,0C74.019,0,0,74.019,0,165s74.019,165,165,165s165-74.019,165-165S255.981,0,165,0z M85,190 c-13.785,0-25-11.215-25-25s11.215-25,25-25s25,11.215,25,25S98.785,190,85,190z M165,190c-13.785,0-25-11.215-25-25 s11.215-25,25-25s25,11.215,25,25S178.785,190,165,190z M245,190c-13.785,0-25-11.215-25-25s11.215-25,25-25 c13.785,0,25,11.215,25,25S258.785,190,245,190z"></path></a></g></svg></svg></svg>