<svg version="1.1" xmlns="http://www.w3.org/2000/svg" xmlns:xlink="http://www.w3.org/1999/xlink" fill="transparent" x="0" y="0" width="350" height="350" preserveAspectRatio="xMinYMin slice"><style type="text/css">.links{fill:transparent;stroke: #E4CF37;}.links:hover{fill:#63D272; opacity:0.4;}</style><defs><g id="allt"><path id="t1418" d="M3927,320 L3917,321 C3907,322 3920,317 3910,317 C3900,318 3914,321 3904,320 L3894,320 3894,320 L3895,330 C3896,340 3881,326 3882,335 C3883,344 3896,330 3895,341 L3894,352 3894,352 L3904,353 C3915,354 3900,339 3909,340 C3918,342 3905,354 3916,353 L3927,352 3927,352 L3928,341 C3930,331 3917,342 3918,334 C3919,326 3927,341 3927,330 L3927,320"/></g><clipPath id="c" clipRule="evenodd" fill="transparent"><use href="#t1418"/></clipPath></defs><svg viewBox="3880 316 51 39" preserveAspectRatio="xMinYMin meet"><svg width="4380" height="2430"><g><image crossorigin="anonymous" x="0" y="0" href="https://nftpuzzle.license-token.com/assets/completepuzzle.svg" width="100%" height="100%" /><g class="links"><use href="#t1418"/></g></g></svg><svg x="3916" y="340" height="9%" width="9%" viewBox="0 0 330 330"><g><a xlink:href="https://nftpuzzle.license-token.com/" class="links"><title>See the most innovative NFT based token software licensing project</title><path fill="#E4CF37" id="more" d="M165,0C74.019,0,0,74.019,0,165s74.019,165,165,165s165-74.019,165-165S255.981,0,165,0z M85,190 c-13.785,0-25-11.215-25-25s11.215-25,25-25s25,11.215,25,25S98.785,190,85,190z M165,190c-13.785,0-25-11.215-25-25 s11.215-25,25-25s25,11.215,25,25S178.785,190,165,190z M245,190c-13.785,0-25-11.215-25-25s11.215-25,25-25 c13.785,0,25,11.215,25,25S258.785,190,245,190z"></path></a></g></svg></svg></svg>