<svg version="1.1" xmlns="http://www.w3.org/2000/svg" xmlns:xlink="http://www.w3.org/1999/xlink" fill="transparent" x="0" y="0" width="350" height="350" preserveAspectRatio="xMinYMin slice"><style type="text/css">.links{fill:transparent;stroke: #E4CF37;}.links:hover{fill:#63D272; opacity:0.4;}</style><defs><g id="allt"><path id="t1419" d="M3960,320 L3949,320 C3938,320 3952,311 3941,313 C3931,315 3945,324 3936,322 L3927,320 3927,320 L3927,330 C3927,341 3919,326 3918,334 C3917,342 3930,331 3928,341 L3927,352 3927,352 L3937,352 C3948,352 3933,344 3941,343 C3950,342 3939,355 3949,353 L3960,352 3960,352 L3957,342 C3955,332 3970,342 3971,333 C3972,325 3960,337 3960,328 L3960,320"/></g><clipPath id="c" clipRule="evenodd" fill="transparent"><use href="#t1419"/></clipPath></defs><svg viewBox="3916 310 57 46" preserveAspectRatio="xMinYMin meet"><svg width="4380" height="2430"><g><image crossorigin="anonymous" x="0" y="0" href="https://nftpuzzle.license-token.com/assets/completepuzzle.svg" width="100%" height="100%" /><g class="links"><use href="#t1419"/></g></g></svg><svg x="3958" y="341" height="9%" width="9%" viewBox="0 0 330 330"><g><a xlink:href="https://nftpuzzle.license-token.com/" class="links"><title>See the most innovative NFT based token software licensing project</title><path fill="#E4CF37" id="more" d="M165,0C74.019,0,0,74.019,0,165s74.019,165,165,165s165-74.019,165-165S255.981,0,165,0z M85,190 c-13.785,0-25-11.215-25-25s11.215-25,25-25s25,11.215,25,25S98.785,190,85,190z M165,190c-13.785,0-25-11.215-25-25 s11.215-25,25-25s25,11.215,25,25S178.785,190,165,190z M245,190c-13.785,0-25-11.215-25-25s11.215-25,25-25 c13.785,0,25,11.215,25,25S258.785,190,245,190z"></path></a></g></svg></svg></svg>