<svg version="1.1" xmlns="http://www.w3.org/2000/svg" xmlns:xlink="http://www.w3.org/1999/xlink" fill="transparent" x="0" y="0" width="350" height="350" preserveAspectRatio="xMinYMin slice"><style type="text/css">.links{fill:transparent;stroke: #E4CF37;}.links:hover{fill:#63D272; opacity:0.4;}</style><defs><g id="allt"><path id="t1422" d="M4059,320 L4048,320 C4038,320 4050,318 4042,317 C4034,317 4045,321 4035,320 L4026,320 4026,320 L4026,329 C4026,338 4023,329 4022,337 C4021,345 4028,330 4027,341 L4026,352 4026,352 L4035,352 C4044,352 4035,349 4043,348 C4052,347 4036,354 4047,353 L4059,352 4059,352 L4059,341 C4060,331 4054,345 4050,336 C4047,328 4062,338 4060,329 L4059,320"/></g><clipPath id="c" clipRule="evenodd" fill="transparent"><use href="#t1422"/></clipPath></defs><svg viewBox="4020 316 43 39" preserveAspectRatio="xMinYMin meet"><svg width="4380" height="2430"><g><image crossorigin="anonymous" x="0" y="0" href="https://nftpuzzle.license-token.com/assets/completepuzzle.svg" width="100%" height="100%" /><g class="links"><use href="#t1422"/></g></g></svg><svg x="4048" y="340" height="9%" width="9%" viewBox="0 0 330 330"><g><a xlink:href="https://nftpuzzle.license-token.com/" class="links"><title>See the most innovative NFT based token software licensing project</title><path fill="#E4CF37" id="more" d="M165,0C74.019,0,0,74.019,0,165s74.019,165,165,165s165-74.019,165-165S255.981,0,165,0z M85,190 c-13.785,0-25-11.215-25-25s11.215-25,25-25s25,11.215,25,25S98.785,190,85,190z M165,190c-13.785,0-25-11.215-25-25 s11.215-25,25-25s25,11.215,25,25S178.785,190,165,190z M245,190c-13.785,0-25-11.215-25-25s11.215-25,25-25 c13.785,0,25,11.215,25,25S258.785,190,245,190z"></path></a></g></svg></svg></svg>