<svg version="1.1" xmlns="http://www.w3.org/2000/svg" xmlns:xlink="http://www.w3.org/1999/xlink" fill="transparent" x="0" y="0" width="350" height="350" preserveAspectRatio="xMinYMin slice"><style type="text/css">.links{fill:transparent;stroke: #E4CF37;}.links:hover{fill:#63D272; opacity:0.4;}</style><defs><g id="allt"><path id="t1460" d="M1023,352 L1013,350 C1003,349 1013,358 1003,358 C994,359 1009,352 999,352 L990,352 990,352 L989,362 C988,373 996,359 996,367 C996,376 987,363 988,373 L990,384 990,384 L1000,383 C1011,382 997,390 1005,390 C1014,390 1001,381 1012,382 L1023,384 1023,384 L1023,373 C1023,363 1026,378 1026,368 C1026,358 1023,372 1023,362 L1023,352"/></g><clipPath id="c" clipRule="evenodd" fill="transparent"><use href="#t1460"/></clipPath></defs><svg viewBox="986 348 41 43" preserveAspectRatio="xMinYMin meet"><svg width="4380" height="2430"><g><image crossorigin="anonymous" x="0" y="0" href="https://nftpuzzle.license-token.com/assets/completepuzzle.svg" width="100%" height="100%" /><g class="links"><use href="#t1460"/></g></g></svg><svg x="1012" y="376" height="9%" width="9%" viewBox="0 0 330 330"><g><a xlink:href="https://nftpuzzle.license-token.com/" class="links"><title>See the most innovative NFT based token software licensing project</title><path fill="#E4CF37" id="more" d="M165,0C74.019,0,0,74.019,0,165s74.019,165,165,165s165-74.019,165-165S255.981,0,165,0z M85,190 c-13.785,0-25-11.215-25-25s11.215-25,25-25s25,11.215,25,25S98.785,190,85,190z M165,190c-13.785,0-25-11.215-25-25 s11.215-25,25-25s25,11.215,25,25S178.785,190,165,190z M245,190c-13.785,0-25-11.215-25-25s11.215-25,25-25 c13.785,0,25,11.215,25,25S258.785,190,245,190z"></path></a></g></svg></svg></svg>