<svg version="1.1" xmlns="http://www.w3.org/2000/svg" xmlns:xlink="http://www.w3.org/1999/xlink" fill="transparent" x="0" y="0" width="350" height="350" preserveAspectRatio="xMinYMin slice"><style type="text/css">.links{fill:transparent;stroke: #E4CF37;}.links:hover{fill:#63D272; opacity:0.4;}</style><defs><g id="allt"><path id="t1464" d="M1155,352 L1144,350 C1133,349 1147,358 1138,358 C1129,359 1140,349 1131,350 L1122,352 1122,352 L1122,361 C1122,371 1111,357 1111,367 C1111,377 1122,366 1122,375 L1122,384 1122,384 L1132,384 C1142,384 1127,373 1137,373 C1148,373 1136,384 1145,384 L1155,384 1155,384 L1155,373 C1155,362 1151,374 1150,366 C1149,359 1156,369 1155,360 L1155,352"/></g><clipPath id="c" clipRule="evenodd" fill="transparent"><use href="#t1464"/></clipPath></defs><svg viewBox="1110 348 47 37" preserveAspectRatio="xMinYMin meet"><svg width="4380" height="2430"><g><image crossorigin="anonymous" x="0" y="0" href="https://nftpuzzle.license-token.com/assets/completepuzzle.svg" width="100%" height="100%" /><g class="links"><use href="#t1464"/></g></g></svg><svg x="1142" y="370" height="9%" width="9%" viewBox="0 0 330 330"><g><a xlink:href="https://nftpuzzle.license-token.com/" class="links"><title>See the most innovative NFT based token software licensing project</title><path fill="#E4CF37" id="more" d="M165,0C74.019,0,0,74.019,0,165s74.019,165,165,165s165-74.019,165-165S255.981,0,165,0z M85,190 c-13.785,0-25-11.215-25-25s11.215-25,25-25s25,11.215,25,25S98.785,190,85,190z M165,190c-13.785,0-25-11.215-25-25 s11.215-25,25-25s25,11.215,25,25S178.785,190,165,190z M245,190c-13.785,0-25-11.215-25-25s11.215-25,25-25 c13.785,0,25,11.215,25,25S258.785,190,245,190z"></path></a></g></svg></svg></svg>