<svg version="1.1" xmlns="http://www.w3.org/2000/svg" xmlns:xlink="http://www.w3.org/1999/xlink" fill="transparent" x="0" y="0" width="350" height="350" preserveAspectRatio="xMinYMin slice"><style type="text/css">.links{fill:transparent;stroke: #E4CF37;}.links:hover{fill:#63D272; opacity:0.4;}</style><defs><g id="allt"><path id="t1482" d="M1749,352 L1739,353 C1730,354 1739,341 1731,341 C1724,342 1737,354 1726,353 L1716,352 1716,352 L1713,361 C1711,371 1721,357 1721,367 C1721,377 1716,364 1716,374 L1716,384 1716,384 L1726,381 C1736,379 1721,389 1731,389 C1742,389 1728,384 1738,384 L1749,384 1749,384 L1750,374 C1751,364 1742,378 1741,369 C1740,360 1750,371 1749,361 L1749,352"/></g><clipPath id="c" clipRule="evenodd" fill="transparent"><use href="#t1482"/></clipPath></defs><svg viewBox="1710 340 42 50" preserveAspectRatio="xMinYMin meet"><svg width="4380" height="2430"><g><image crossorigin="anonymous" x="0" y="0" href="https://nftpuzzle.license-token.com/assets/completepuzzle.svg" width="100%" height="100%" /><g class="links"><use href="#t1482"/></g></g></svg><svg x="1737" y="375" height="9%" width="9%" viewBox="0 0 330 330"><g><a xlink:href="https://nftpuzzle.license-token.com/" class="links"><title>See the most innovative NFT based token software licensing project</title><path fill="#E4CF37" id="more" d="M165,0C74.019,0,0,74.019,0,165s74.019,165,165,165s165-74.019,165-165S255.981,0,165,0z M85,190 c-13.785,0-25-11.215-25-25s11.215-25,25-25s25,11.215,25,25S98.785,190,85,190z M165,190c-13.785,0-25-11.215-25-25 s11.215-25,25-25s25,11.215,25,25S178.785,190,165,190z M245,190c-13.785,0-25-11.215-25-25s11.215-25,25-25 c13.785,0,25,11.215,25,25S258.785,190,245,190z"></path></a></g></svg></svg></svg>