<svg version="1.1" xmlns="http://www.w3.org/2000/svg" xmlns:xlink="http://www.w3.org/1999/xlink" fill="transparent" x="0" y="0" width="350" height="350" preserveAspectRatio="xMinYMin slice"><style type="text/css">.links{fill:transparent;stroke: #E4CF37;}.links:hover{fill:#63D272; opacity:0.4;}</style><defs><g id="allt"><path id="t1483" d="M1782,352 L1771,350 C1761,348 1776,359 1765,359 C1755,360 1770,350 1759,351 L1749,352 1749,352 L1749,361 C1750,371 1740,360 1741,369 C1742,378 1751,364 1750,374 L1749,384 1749,384 L1758,384 C1768,385 1757,376 1766,376 C1776,377 1761,386 1771,385 L1782,384 1782,384 L1782,373 C1782,362 1785,376 1784,367 C1784,359 1782,369 1782,360 L1782,352"/></g><clipPath id="c" clipRule="evenodd" fill="transparent"><use href="#t1483"/></clipPath></defs><svg viewBox="1739 347 47 40" preserveAspectRatio="xMinYMin meet"><svg width="4380" height="2430"><g><image crossorigin="anonymous" x="0" y="0" href="https://nftpuzzle.license-token.com/assets/completepuzzle.svg" width="100%" height="100%" /><g class="links"><use href="#t1483"/></g></g></svg><svg x="1771" y="372" height="9%" width="9%" viewBox="0 0 330 330"><g><a xlink:href="https://nftpuzzle.license-token.com/" class="links"><title>See the most innovative NFT based token software licensing project</title><path fill="#E4CF37" id="more" d="M165,0C74.019,0,0,74.019,0,165s74.019,165,165,165s165-74.019,165-165S255.981,0,165,0z M85,190 c-13.785,0-25-11.215-25-25s11.215-25,25-25s25,11.215,25,25S98.785,190,85,190z M165,190c-13.785,0-25-11.215-25-25 s11.215-25,25-25s25,11.215,25,25S178.785,190,165,190z M245,190c-13.785,0-25-11.215-25-25s11.215-25,25-25 c13.785,0,25,11.215,25,25S258.785,190,245,190z"></path></a></g></svg></svg></svg>