<svg version="1.1" xmlns="http://www.w3.org/2000/svg" xmlns:xlink="http://www.w3.org/1999/xlink" fill="transparent" x="0" y="0" width="350" height="350" preserveAspectRatio="xMinYMin slice"><style type="text/css">.links{fill:transparent;stroke: #E4CF37;}.links:hover{fill:#63D272; opacity:0.4;}</style><defs><g id="allt"><path id="t1484" d="M1815,352 L1805,351 C1796,351 1809,361 1798,359 C1787,358 1802,348 1792,350 L1782,352 1782,352 L1782,360 C1782,369 1784,359 1784,367 C1785,376 1782,362 1782,373 L1782,384 1782,384 L1791,384 C1800,384 1789,386 1798,386 C1807,387 1793,384 1804,384 L1815,384 1815,384 L1815,373 C1815,363 1826,378 1826,368 C1827,358 1812,370 1813,361 L1815,352"/></g><clipPath id="c" clipRule="evenodd" fill="transparent"><use href="#t1484"/></clipPath></defs><svg viewBox="1781 347 47 41" preserveAspectRatio="xMinYMin meet"><svg width="4380" height="2430"><g><image crossorigin="anonymous" x="0" y="0" href="https://nftpuzzle.license-token.com/assets/completepuzzle.svg" width="100%" height="100%" /><g class="links"><use href="#t1484"/></g></g></svg><svg x="1813" y="373" height="9%" width="9%" viewBox="0 0 330 330"><g><a xlink:href="https://nftpuzzle.license-token.com/" class="links"><title>See the most innovative NFT based token software licensing project</title><path fill="#E4CF37" id="more" d="M165,0C74.019,0,0,74.019,0,165s74.019,165,165,165s165-74.019,165-165S255.981,0,165,0z M85,190 c-13.785,0-25-11.215-25-25s11.215-25,25-25s25,11.215,25,25S98.785,190,85,190z M165,190c-13.785,0-25-11.215-25-25 s11.215-25,25-25s25,11.215,25,25S178.785,190,165,190z M245,190c-13.785,0-25-11.215-25-25s11.215-25,25-25 c13.785,0,25,11.215,25,25S258.785,190,245,190z"></path></a></g></svg></svg></svg>