<svg version="1.1" xmlns="http://www.w3.org/2000/svg" xmlns:xlink="http://www.w3.org/1999/xlink" fill="transparent" x="0" y="0" width="350" height="350" preserveAspectRatio="xMinYMin slice"><style type="text/css">.links{fill:transparent;stroke: #E4CF37;}.links:hover{fill:#63D272; opacity:0.4;}</style><defs><g id="allt"><path id="t1488" d="M1947,352 L1937,353 C1928,355 1937,345 1930,344 C1923,343 1934,352 1924,352 L1914,352 1914,352 L1914,362 C1915,373 1911,360 1911,367 C1911,375 1915,362 1914,373 L1914,384 1914,384 L1924,384 C1935,385 1922,381 1930,381 C1938,381 1925,385 1936,384 L1947,384 1947,384 L1947,375 C1947,366 1950,376 1951,368 C1952,360 1947,371 1947,361 L1947,352"/></g><clipPath id="c" clipRule="evenodd" fill="transparent"><use href="#t1488"/></clipPath></defs><svg viewBox="1910 342 43 44" preserveAspectRatio="xMinYMin meet"><svg width="4380" height="2430"><g><image crossorigin="anonymous" x="0" y="0" href="https://nftpuzzle.license-token.com/assets/completepuzzle.svg" width="100%" height="100%" /><g class="links"><use href="#t1488"/></g></g></svg><svg x="1938" y="371" height="9%" width="9%" viewBox="0 0 330 330"><g><a xlink:href="https://nftpuzzle.license-token.com/" class="links"><title>See the most innovative NFT based token software licensing project</title><path fill="#E4CF37" id="more" d="M165,0C74.019,0,0,74.019,0,165s74.019,165,165,165s165-74.019,165-165S255.981,0,165,0z M85,190 c-13.785,0-25-11.215-25-25s11.215-25,25-25s25,11.215,25,25S98.785,190,85,190z M165,190c-13.785,0-25-11.215-25-25 s11.215-25,25-25s25,11.215,25,25S178.785,190,165,190z M245,190c-13.785,0-25-11.215-25-25s11.215-25,25-25 c13.785,0,25,11.215,25,25S258.785,190,245,190z"></path></a></g></svg></svg></svg>