<svg version="1.1" xmlns="http://www.w3.org/2000/svg" xmlns:xlink="http://www.w3.org/1999/xlink" fill="transparent" x="0" y="0" width="350" height="350" preserveAspectRatio="xMinYMin slice"><style type="text/css">.links{fill:transparent;stroke: #E4CF37;}.links:hover{fill:#63D272; opacity:0.4;}</style><defs><g id="allt"><path id="t1494" d="M2145,352 L2134,352 C2123,352 2138,360 2128,361 C2119,362 2131,349 2121,350 L2112,352 2112,352 L2112,360 C2112,369 2118,361 2116,368 C2115,375 2112,364 2112,374 L2112,384 2112,384 L2121,384 C2130,384 2121,390 2128,388 C2136,387 2124,384 2134,384 L2145,384 2145,384 L2146,374 C2147,365 2141,376 2141,367 C2141,359 2145,370 2145,361 L2145,352"/></g><clipPath id="c" clipRule="evenodd" fill="transparent"><use href="#t1494"/></clipPath></defs><svg viewBox="2111 348 37 43" preserveAspectRatio="xMinYMin meet"><svg width="4380" height="2430"><g><image crossorigin="anonymous" x="0" y="0" href="https://nftpuzzle.license-token.com/assets/completepuzzle.svg" width="100%" height="100%" /><g class="links"><use href="#t1494"/></g></g></svg><svg x="2133" y="376" height="9%" width="9%" viewBox="0 0 330 330"><g><a xlink:href="https://nftpuzzle.license-token.com/" class="links"><title>See the most innovative NFT based token software licensing project</title><path fill="#E4CF37" id="more" d="M165,0C74.019,0,0,74.019,0,165s74.019,165,165,165s165-74.019,165-165S255.981,0,165,0z M85,190 c-13.785,0-25-11.215-25-25s11.215-25,25-25s25,11.215,25,25S98.785,190,85,190z M165,190c-13.785,0-25-11.215-25-25 s11.215-25,25-25s25,11.215,25,25S178.785,190,165,190z M245,190c-13.785,0-25-11.215-25-25s11.215-25,25-25 c13.785,0,25,11.215,25,25S258.785,190,245,190z"></path></a></g></svg></svg></svg>