<svg version="1.1" xmlns="http://www.w3.org/2000/svg" xmlns:xlink="http://www.w3.org/1999/xlink" fill="transparent" x="0" y="0" width="350" height="350" preserveAspectRatio="xMinYMin slice"><style type="text/css">.links{fill:transparent;stroke: #E4CF37;}.links:hover{fill:#63D272; opacity:0.4;}</style><defs><g id="allt"><path id="t1499" d="M2310,352 L2299,352 C2289,352 2302,348 2292,348 C2282,348 2298,353 2287,352 L2277,352 2277,352 L2278,360 C2280,369 2274,359 2272,368 C2271,377 2280,365 2278,374 L2277,384 2277,384 L2286,385 C2295,387 2284,381 2293,379 C2303,378 2290,387 2300,385 L2310,384 2310,384 L2310,373 C2310,363 2306,376 2304,366 C2303,357 2310,371 2310,361 L2310,352"/></g><clipPath id="c" clipRule="evenodd" fill="transparent"><use href="#t1499"/></clipPath></defs><svg viewBox="2270 347 41 41" preserveAspectRatio="xMinYMin meet"><svg width="4380" height="2430"><g><image crossorigin="anonymous" x="0" y="0" href="https://nftpuzzle.license-token.com/assets/completepuzzle.svg" width="100%" height="100%" /><g class="links"><use href="#t1499"/></g></g></svg><svg x="2296" y="373" height="9%" width="9%" viewBox="0 0 330 330"><g><a xlink:href="https://nftpuzzle.license-token.com/" class="links"><title>See the most innovative NFT based token software licensing project</title><path fill="#E4CF37" id="more" d="M165,0C74.019,0,0,74.019,0,165s74.019,165,165,165s165-74.019,165-165S255.981,0,165,0z M85,190 c-13.785,0-25-11.215-25-25s11.215-25,25-25s25,11.215,25,25S98.785,190,85,190z M165,190c-13.785,0-25-11.215-25-25 s11.215-25,25-25s25,11.215,25,25S178.785,190,165,190z M245,190c-13.785,0-25-11.215-25-25s11.215-25,25-25 c13.785,0,25,11.215,25,25S258.785,190,245,190z"></path></a></g></svg></svg></svg>