<svg version="1.1" xmlns="http://www.w3.org/2000/svg" xmlns:xlink="http://www.w3.org/1999/xlink" fill="transparent" x="0" y="0" width="350" height="350" preserveAspectRatio="xMinYMin slice"><style type="text/css">.links{fill:transparent;stroke: #E4CF37;}.links:hover{fill:#63D272; opacity:0.4;}</style><defs><g id="allt"><path id="t1500" d="M2343,352 L2332,350 C2322,349 2336,360 2325,360 C2315,360 2331,348 2320,350 L2310,352 2310,352 L2310,361 C2310,371 2303,357 2304,366 C2306,376 2310,363 2310,373 L2310,384 2310,384 L2320,384 C2330,384 2315,377 2325,378 C2335,380 2321,384 2332,384 L2343,384 2343,384 L2343,374 C2343,364 2347,377 2346,368 C2346,359 2343,370 2343,361 L2343,352"/></g><clipPath id="c" clipRule="evenodd" fill="transparent"><use href="#t1500"/></clipPath></defs><svg viewBox="2302 347 46 38" preserveAspectRatio="xMinYMin meet"><svg width="4380" height="2430"><g><image crossorigin="anonymous" x="0" y="0" href="https://nftpuzzle.license-token.com/assets/completepuzzle.svg" width="100%" height="100%" /><g class="links"><use href="#t1500"/></g></g></svg><svg x="2333" y="370" height="9%" width="9%" viewBox="0 0 330 330"><g><a xlink:href="https://nftpuzzle.license-token.com/" class="links"><title>See the most innovative NFT based token software licensing project</title><path fill="#E4CF37" id="more" d="M165,0C74.019,0,0,74.019,0,165s74.019,165,165,165s165-74.019,165-165S255.981,0,165,0z M85,190 c-13.785,0-25-11.215-25-25s11.215-25,25-25s25,11.215,25,25S98.785,190,85,190z M165,190c-13.785,0-25-11.215-25-25 s11.215-25,25-25s25,11.215,25,25S178.785,190,165,190z M245,190c-13.785,0-25-11.215-25-25s11.215-25,25-25 c13.785,0,25,11.215,25,25S258.785,190,245,190z"></path></a></g></svg></svg></svg>