<svg version="1.1" xmlns="http://www.w3.org/2000/svg" xmlns:xlink="http://www.w3.org/1999/xlink" fill="transparent" x="0" y="0" width="350" height="350" preserveAspectRatio="xMinYMin slice"><style type="text/css">.links{fill:transparent;stroke: #E4CF37;}.links:hover{fill:#63D272; opacity:0.4;}</style><defs><g id="allt"><path id="t1511" d="M2706,352 L2695,354 C2684,356 2696,342 2688,342 C2681,343 2691,352 2682,352 L2673,352 2673,352 L2674,362 C2676,373 2669,357 2667,366 C2666,376 2675,364 2674,374 L2673,384 2673,384 L2684,385 C2695,387 2678,380 2687,378 C2697,377 2686,386 2696,385 L2706,384 2706,384 L2706,373 C2707,363 2700,375 2701,367 C2703,360 2707,370 2706,361 L2706,352"/></g><clipPath id="c" clipRule="evenodd" fill="transparent"><use href="#t1511"/></clipPath></defs><svg viewBox="2665 341 43 47" preserveAspectRatio="xMinYMin meet"><svg width="4380" height="2430"><g><image crossorigin="anonymous" x="0" y="0" href="https://nftpuzzle.license-token.com/assets/completepuzzle.svg" width="100%" height="100%" /><g class="links"><use href="#t1511"/></g></g></svg><svg x="2693" y="373" height="9%" width="9%" viewBox="0 0 330 330"><g><a xlink:href="https://nftpuzzle.license-token.com/" class="links"><title>See the most innovative NFT based token software licensing project</title><path fill="#E4CF37" id="more" d="M165,0C74.019,0,0,74.019,0,165s74.019,165,165,165s165-74.019,165-165S255.981,0,165,0z M85,190 c-13.785,0-25-11.215-25-25s11.215-25,25-25s25,11.215,25,25S98.785,190,85,190z M165,190c-13.785,0-25-11.215-25-25 s11.215-25,25-25s25,11.215,25,25S178.785,190,165,190z M245,190c-13.785,0-25-11.215-25-25s11.215-25,25-25 c13.785,0,25,11.215,25,25S258.785,190,245,190z"></path></a></g></svg></svg></svg>