<svg version="1.1" xmlns="http://www.w3.org/2000/svg" xmlns:xlink="http://www.w3.org/1999/xlink" fill="transparent" x="0" y="0" width="350" height="350" preserveAspectRatio="xMinYMin slice"><style type="text/css">.links{fill:transparent;stroke: #E4CF37;}.links:hover{fill:#63D272; opacity:0.4;}</style><defs><g id="allt"><path id="t1515" d="M2838,352 L2828,354 C2819,356 2828,346 2819,345 C2810,344 2825,356 2815,354 L2805,352 2805,352 L2805,361 C2805,370 2800,358 2797,367 C2795,376 2805,365 2805,374 L2805,384 2805,384 L2814,384 C2824,384 2811,379 2820,377 C2830,375 2818,384 2828,384 L2838,384 2838,384 L2837,375 C2837,366 2844,376 2845,368 C2846,361 2836,371 2837,361 L2838,352"/></g><clipPath id="c" clipRule="evenodd" fill="transparent"><use href="#t1515"/></clipPath></defs><svg viewBox="2794 343 53 42" preserveAspectRatio="xMinYMin meet"><svg width="4380" height="2430"><g><image crossorigin="anonymous" x="0" y="0" href="https://nftpuzzle.license-token.com/assets/completepuzzle.svg" width="100%" height="100%" /><g class="links"><use href="#t1515"/></g></g></svg><svg x="2832" y="370" height="9%" width="9%" viewBox="0 0 330 330"><g><a xlink:href="https://nftpuzzle.license-token.com/" class="links"><title>See the most innovative NFT based token software licensing project</title><path fill="#E4CF37" id="more" d="M165,0C74.019,0,0,74.019,0,165s74.019,165,165,165s165-74.019,165-165S255.981,0,165,0z M85,190 c-13.785,0-25-11.215-25-25s11.215-25,25-25s25,11.215,25,25S98.785,190,85,190z M165,190c-13.785,0-25-11.215-25-25 s11.215-25,25-25s25,11.215,25,25S178.785,190,165,190z M245,190c-13.785,0-25-11.215-25-25s11.215-25,25-25 c13.785,0,25,11.215,25,25S258.785,190,245,190z"></path></a></g></svg></svg></svg>