<svg version="1.1" xmlns="http://www.w3.org/2000/svg" xmlns:xlink="http://www.w3.org/1999/xlink" fill="transparent" x="0" y="0" width="350" height="350" preserveAspectRatio="xMinYMin slice"><style type="text/css">.links{fill:transparent;stroke: #E4CF37;}.links:hover{fill:#63D272; opacity:0.4;}</style><defs><g id="allt"><path id="t1524" d="M3135,352 L3124,352 C3114,352 3126,358 3117,357 C3109,357 3120,351 3111,351 L3102,352 3102,352 L3104,361 C3106,370 3090,359 3091,367 C3093,376 3102,365 3102,374 L3102,384 3102,384 L3111,386 C3121,388 3109,372 3118,374 C3127,376 3116,384 3125,384 L3135,384 3135,384 L3135,374 C3135,364 3140,378 3139,367 C3138,357 3135,372 3135,362 L3135,352"/></g><clipPath id="c" clipRule="evenodd" fill="transparent"><use href="#t1524"/></clipPath></defs><svg viewBox="3089 350 52 39" preserveAspectRatio="xMinYMin meet"><svg width="4380" height="2430"><g><image crossorigin="anonymous" x="0" y="0" href="https://nftpuzzle.license-token.com/assets/completepuzzle.svg" width="100%" height="100%" /><g class="links"><use href="#t1524"/></g></g></svg><svg x="3126" y="374" height="9%" width="9%" viewBox="0 0 330 330"><g><a xlink:href="https://nftpuzzle.license-token.com/" class="links"><title>See the most innovative NFT based token software licensing project</title><path fill="#E4CF37" id="more" d="M165,0C74.019,0,0,74.019,0,165s74.019,165,165,165s165-74.019,165-165S255.981,0,165,0z M85,190 c-13.785,0-25-11.215-25-25s11.215-25,25-25s25,11.215,25,25S98.785,190,85,190z M165,190c-13.785,0-25-11.215-25-25 s11.215-25,25-25s25,11.215,25,25S178.785,190,165,190z M245,190c-13.785,0-25-11.215-25-25s11.215-25,25-25 c13.785,0,25,11.215,25,25S258.785,190,245,190z"></path></a></g></svg></svg></svg>