<svg version="1.1" xmlns="http://www.w3.org/2000/svg" xmlns:xlink="http://www.w3.org/1999/xlink" fill="transparent" x="0" y="0" width="350" height="350" preserveAspectRatio="xMinYMin slice"><style type="text/css">.links{fill:transparent;stroke: #E4CF37;}.links:hover{fill:#63D272; opacity:0.4;}</style><defs><g id="allt"><path id="t1529" d="M3300,352 L3290,352 C3280,352 3291,362 3283,363 C3276,364 3285,349 3276,350 L3267,352 3267,352 L3268,361 C3270,370 3255,358 3258,366 C3262,374 3269,365 3268,374 L3267,384 3267,384 L3276,385 C3286,387 3273,373 3281,376 C3290,379 3280,386 3290,385 L3300,384 3300,384 L3298,374 C3297,364 3312,377 3309,368 C3307,360 3299,369 3299,360 L3300,352"/></g><clipPath id="c" clipRule="evenodd" fill="transparent"><use href="#t1529"/></clipPath></defs><svg viewBox="3254 348 59 40" preserveAspectRatio="xMinYMin meet"><svg width="4380" height="2430"><g><image crossorigin="anonymous" x="0" y="0" href="https://nftpuzzle.license-token.com/assets/completepuzzle.svg" width="100%" height="100%" /><g class="links"><use href="#t1529"/></g></g></svg><svg x="3298" y="373" height="9%" width="9%" viewBox="0 0 330 330"><g><a xlink:href="https://nftpuzzle.license-token.com/" class="links"><title>See the most innovative NFT based token software licensing project</title><path fill="#E4CF37" id="more" d="M165,0C74.019,0,0,74.019,0,165s74.019,165,165,165s165-74.019,165-165S255.981,0,165,0z M85,190 c-13.785,0-25-11.215-25-25s11.215-25,25-25s25,11.215,25,25S98.785,190,85,190z M165,190c-13.785,0-25-11.215-25-25 s11.215-25,25-25s25,11.215,25,25S178.785,190,165,190z M245,190c-13.785,0-25-11.215-25-25s11.215-25,25-25 c13.785,0,25,11.215,25,25S258.785,190,245,190z"></path></a></g></svg></svg></svg>