<svg version="1.1" xmlns="http://www.w3.org/2000/svg" xmlns:xlink="http://www.w3.org/1999/xlink" fill="transparent" x="0" y="0" width="350" height="350" preserveAspectRatio="xMinYMin slice"><style type="text/css">.links{fill:transparent;stroke: #E4CF37;}.links:hover{fill:#63D272; opacity:0.4;}</style><defs><g id="allt"><path id="t1530" d="M3333,352 L3322,353 C3311,354 3324,347 3316,348 C3308,349 3319,352 3309,352 L3300,352 3300,352 L3299,360 C3299,369 3307,360 3309,368 C3312,377 3297,364 3298,374 L3300,384 3300,384 L3309,383 C3318,383 3308,391 3317,393 C3326,396 3312,381 3322,382 L3333,384 3333,384 L3333,374 C3333,365 3336,378 3336,367 C3337,357 3333,369 3333,360 L3333,352"/></g><clipPath id="c" clipRule="evenodd" fill="transparent"><use href="#t1530"/></clipPath></defs><svg viewBox="3296 346 42 51" preserveAspectRatio="xMinYMin meet"><svg width="4380" height="2430"><g><image crossorigin="anonymous" x="0" y="0" href="https://nftpuzzle.license-token.com/assets/completepuzzle.svg" width="100%" height="100%" /><g class="links"><use href="#t1530"/></g></g></svg><svg x="3323" y="382" height="9%" width="9%" viewBox="0 0 330 330"><g><a xlink:href="https://nftpuzzle.license-token.com/" class="links"><title>See the most innovative NFT based token software licensing project</title><path fill="#E4CF37" id="more" d="M165,0C74.019,0,0,74.019,0,165s74.019,165,165,165s165-74.019,165-165S255.981,0,165,0z M85,190 c-13.785,0-25-11.215-25-25s11.215-25,25-25s25,11.215,25,25S98.785,190,85,190z M165,190c-13.785,0-25-11.215-25-25 s11.215-25,25-25s25,11.215,25,25S178.785,190,165,190z M245,190c-13.785,0-25-11.215-25-25s11.215-25,25-25 c13.785,0,25,11.215,25,25S258.785,190,245,190z"></path></a></g></svg></svg></svg>