<svg version="1.1" xmlns="http://www.w3.org/2000/svg" xmlns:xlink="http://www.w3.org/1999/xlink" fill="transparent" x="0" y="0" width="350" height="350" preserveAspectRatio="xMinYMin slice"><style type="text/css">.links{fill:transparent;stroke: #E4CF37;}.links:hover{fill:#63D272; opacity:0.4;}</style><defs><g id="allt"><path id="t1541" d="M3696,352 L3686,351 C3676,351 3691,356 3681,355 C3671,354 3682,352 3672,352 L3663,352 3663,352 L3663,362 C3663,373 3668,356 3667,367 C3666,378 3660,364 3661,374 L3663,384 3663,384 L3674,384 C3685,384 3667,389 3678,388 C3690,387 3676,381 3686,382 L3696,384 3696,384 L3696,373 C3697,362 3691,375 3689,367 C3688,360 3698,370 3697,361 L3696,352"/></g><clipPath id="c" clipRule="evenodd" fill="transparent"><use href="#t1541"/></clipPath></defs><svg viewBox="3659 350 40 40" preserveAspectRatio="xMinYMin meet"><svg width="4380" height="2430"><g><image crossorigin="anonymous" x="0" y="0" href="https://nftpuzzle.license-token.com/assets/completepuzzle.svg" width="100%" height="100%" /><g class="links"><use href="#t1541"/></g></g></svg><svg x="3684" y="375" height="9%" width="9%" viewBox="0 0 330 330"><g><a xlink:href="https://nftpuzzle.license-token.com/" class="links"><title>See the most innovative NFT based token software licensing project</title><path fill="#E4CF37" id="more" d="M165,0C74.019,0,0,74.019,0,165s74.019,165,165,165s165-74.019,165-165S255.981,0,165,0z M85,190 c-13.785,0-25-11.215-25-25s11.215-25,25-25s25,11.215,25,25S98.785,190,85,190z M165,190c-13.785,0-25-11.215-25-25 s11.215-25,25-25s25,11.215,25,25S178.785,190,165,190z M245,190c-13.785,0-25-11.215-25-25s11.215-25,25-25 c13.785,0,25,11.215,25,25S258.785,190,245,190z"></path></a></g></svg></svg></svg>