<svg version="1.1" xmlns="http://www.w3.org/2000/svg" xmlns:xlink="http://www.w3.org/1999/xlink" fill="transparent" x="0" y="0" width="350" height="350" preserveAspectRatio="xMinYMin slice"><style type="text/css">.links{fill:transparent;stroke: #E4CF37;}.links:hover{fill:#63D272; opacity:0.4;}</style><defs><g id="allt"><path id="t1545" d="M3828,352 L3818,351 C3808,350 3821,357 3811,357 C3802,358 3816,352 3805,352 L3795,352 3795,352 L3795,361 C3795,370 3791,357 3791,366 C3792,376 3797,363 3796,373 L3795,384 3795,384 L3804,384 C3814,384 3800,380 3810,380 C3820,381 3806,386 3817,385 L3828,384 3828,384 L3828,373 C3828,362 3832,377 3833,366 C3835,356 3828,370 3828,361 L3828,352"/></g><clipPath id="c" clipRule="evenodd" fill="transparent"><use href="#t1545"/></clipPath></defs><svg viewBox="3790 349 46 38" preserveAspectRatio="xMinYMin meet"><svg width="4380" height="2430"><g><image crossorigin="anonymous" x="0" y="0" href="https://nftpuzzle.license-token.com/assets/completepuzzle.svg" width="100%" height="100%" /><g class="links"><use href="#t1545"/></g></g></svg><svg x="3821" y="372" height="9%" width="9%" viewBox="0 0 330 330"><g><a xlink:href="https://nftpuzzle.license-token.com/" class="links"><title>See the most innovative NFT based token software licensing project</title><path fill="#E4CF37" id="more" d="M165,0C74.019,0,0,74.019,0,165s74.019,165,165,165s165-74.019,165-165S255.981,0,165,0z M85,190 c-13.785,0-25-11.215-25-25s11.215-25,25-25s25,11.215,25,25S98.785,190,85,190z M165,190c-13.785,0-25-11.215-25-25 s11.215-25,25-25s25,11.215,25,25S178.785,190,165,190z M245,190c-13.785,0-25-11.215-25-25s11.215-25,25-25 c13.785,0,25,11.215,25,25S258.785,190,245,190z"></path></a></g></svg></svg></svg>