<svg version="1.1" xmlns="http://www.w3.org/2000/svg" xmlns:xlink="http://www.w3.org/1999/xlink" fill="transparent" x="0" y="0" width="350" height="350" preserveAspectRatio="xMinYMin slice"><style type="text/css">.links{fill:transparent;stroke: #E4CF37;}.links:hover{fill:#63D272; opacity:0.4;}</style><defs><g id="allt"><path id="t1547" d="M3894,352 L3882,351 C3871,351 3884,361 3875,361 C3867,361 3879,352 3870,352 L3861,352 3861,352 L3860,361 C3859,371 3868,356 3867,366 C3866,377 3861,364 3861,374 L3861,384 3861,384 L3871,383 C3881,382 3865,391 3876,390 C3887,389 3873,384 3883,384 L3894,384 3894,384 L3894,374 C3895,365 3889,377 3890,367 C3891,358 3895,371 3894,361 L3894,352"/></g><clipPath id="c" clipRule="evenodd" fill="transparent"><use href="#t1547"/></clipPath></defs><svg viewBox="3858 350 38 42" preserveAspectRatio="xMinYMin meet"><svg width="4380" height="2430"><g><image crossorigin="anonymous" x="0" y="0" href="https://nftpuzzle.license-token.com/assets/completepuzzle.svg" width="100%" height="100%" /><g class="links"><use href="#t1547"/></g></g></svg><svg x="3881" y="377" height="9%" width="9%" viewBox="0 0 330 330"><g><a xlink:href="https://nftpuzzle.license-token.com/" class="links"><title>See the most innovative NFT based token software licensing project</title><path fill="#E4CF37" id="more" d="M165,0C74.019,0,0,74.019,0,165s74.019,165,165,165s165-74.019,165-165S255.981,0,165,0z M85,190 c-13.785,0-25-11.215-25-25s11.215-25,25-25s25,11.215,25,25S98.785,190,85,190z M165,190c-13.785,0-25-11.215-25-25 s11.215-25,25-25s25,11.215,25,25S178.785,190,165,190z M245,190c-13.785,0-25-11.215-25-25s11.215-25,25-25 c13.785,0,25,11.215,25,25S258.785,190,245,190z"></path></a></g></svg></svg></svg>