<svg version="1.1" xmlns="http://www.w3.org/2000/svg" xmlns:xlink="http://www.w3.org/1999/xlink" fill="transparent" x="0" y="0" width="350" height="350" preserveAspectRatio="xMinYMin slice"><style type="text/css">.links{fill:transparent;stroke: #E4CF37;}.links:hover{fill:#63D272; opacity:0.4;}</style><defs><g id="allt"><path id="t1555" d="M4158,352 L4147,352 C4136,353 4149,349 4140,349 C4132,350 4147,352 4136,352 L4125,352 4125,352 L4122,362 C4120,372 4132,359 4133,366 C4134,374 4123,364 4124,374 L4125,384 4125,384 L4135,381 C4146,379 4132,391 4140,392 C4148,393 4137,382 4147,383 L4158,384 4158,384 L4156,373 C4154,363 4167,375 4165,367 C4164,359 4155,369 4156,360 L4158,352"/></g><clipPath id="c" clipRule="evenodd" fill="transparent"><use href="#t1555"/></clipPath></defs><svg viewBox="4119 348 49 46" preserveAspectRatio="xMinYMin meet"><svg width="4380" height="2430"><g><image crossorigin="anonymous" x="0" y="0" href="https://nftpuzzle.license-token.com/assets/completepuzzle.svg" width="100%" height="100%" /><g class="links"><use href="#t1555"/></g></g></svg><svg x="4153" y="379" height="9%" width="9%" viewBox="0 0 330 330"><g><a xlink:href="https://nftpuzzle.license-token.com/" class="links"><title>See the most innovative NFT based token software licensing project</title><path fill="#E4CF37" id="more" d="M165,0C74.019,0,0,74.019,0,165s74.019,165,165,165s165-74.019,165-165S255.981,0,165,0z M85,190 c-13.785,0-25-11.215-25-25s11.215-25,25-25s25,11.215,25,25S98.785,190,85,190z M165,190c-13.785,0-25-11.215-25-25 s11.215-25,25-25s25,11.215,25,25S178.785,190,165,190z M245,190c-13.785,0-25-11.215-25-25s11.215-25,25-25 c13.785,0,25,11.215,25,25S258.785,190,245,190z"></path></a></g></svg></svg></svg>