<svg version="1.1" xmlns="http://www.w3.org/2000/svg" xmlns:xlink="http://www.w3.org/1999/xlink" fill="transparent" x="0" y="0" width="350" height="350" preserveAspectRatio="xMinYMin slice"><style type="text/css">.links{fill:transparent;stroke: #E4CF37;}.links:hover{fill:#63D272; opacity:0.4;}</style><defs><g id="allt"><path id="t1591" d="M1056,384 L1045,384 C1034,384 1050,387 1039,387 C1029,387 1043,384 1033,384 L1023,384 1023,384 L1023,394 C1023,404 1018,390 1018,398 C1018,407 1023,397 1023,406 L1023,416 1023,416 L1033,416 C1044,416 1029,411 1037,411 C1046,411 1036,416 1046,416 L1056,416 1056,416 L1055,405 C1055,394 1047,406 1047,397 C1048,389 1056,404 1056,394 L1056,384"/></g><clipPath id="c" clipRule="evenodd" fill="transparent"><use href="#t1591"/></clipPath></defs><svg viewBox="1017 383 40 34" preserveAspectRatio="xMinYMin meet"><svg width="4380" height="2430"><g><image crossorigin="anonymous" x="0" y="0" href="https://nftpuzzle.license-token.com/assets/completepuzzle.svg" width="100%" height="100%" /><g class="links"><use href="#t1591"/></g></g></svg><svg x="1042" y="402" height="9%" width="9%" viewBox="0 0 330 330"><g><a xlink:href="https://nftpuzzle.license-token.com/" class="links"><title>See the most innovative NFT based token software licensing project</title><path fill="#E4CF37" id="more" d="M165,0C74.019,0,0,74.019,0,165s74.019,165,165,165s165-74.019,165-165S255.981,0,165,0z M85,190 c-13.785,0-25-11.215-25-25s11.215-25,25-25s25,11.215,25,25S98.785,190,85,190z M165,190c-13.785,0-25-11.215-25-25 s11.215-25,25-25s25,11.215,25,25S178.785,190,165,190z M245,190c-13.785,0-25-11.215-25-25s11.215-25,25-25 c13.785,0,25,11.215,25,25S258.785,190,245,190z"></path></a></g></svg></svg></svg>