<svg version="1.1" xmlns="http://www.w3.org/2000/svg" xmlns:xlink="http://www.w3.org/1999/xlink" fill="transparent" x="0" y="0" width="350" height="350" preserveAspectRatio="xMinYMin slice"><style type="text/css">.links{fill:transparent;stroke: #E4CF37;}.links:hover{fill:#63D272; opacity:0.4;}</style><defs><g id="allt"><path id="t1593" d="M1122,384 L1110,384 C1099,384 1113,379 1105,379 C1097,379 1109,386 1099,385 L1089,384 1089,384 L1089,393 C1089,402 1085,392 1084,399 C1083,406 1089,397 1089,406 L1089,416 1089,416 L1098,416 C1108,416 1097,412 1104,411 C1112,410 1102,416 1112,416 L1122,416 1122,416 L1123,405 C1124,395 1114,406 1112,398 C1111,390 1122,401 1122,392 L1122,384"/></g><clipPath id="c" clipRule="evenodd" fill="transparent"><use href="#t1593"/></clipPath></defs><svg viewBox="1082 378 43 39" preserveAspectRatio="xMinYMin meet"><svg width="4380" height="2430"><g><image crossorigin="anonymous" x="0" y="0" href="https://nftpuzzle.license-token.com/assets/completepuzzle.svg" width="100%" height="100%" /><g class="links"><use href="#t1593"/></g></g></svg><svg x="1110" y="402" height="9%" width="9%" viewBox="0 0 330 330"><g><a xlink:href="https://nftpuzzle.license-token.com/" class="links"><title>See the most innovative NFT based token software licensing project</title><path fill="#E4CF37" id="more" d="M165,0C74.019,0,0,74.019,0,165s74.019,165,165,165s165-74.019,165-165S255.981,0,165,0z M85,190 c-13.785,0-25-11.215-25-25s11.215-25,25-25s25,11.215,25,25S98.785,190,85,190z M165,190c-13.785,0-25-11.215-25-25 s11.215-25,25-25s25,11.215,25,25S178.785,190,165,190z M245,190c-13.785,0-25-11.215-25-25s11.215-25,25-25 c13.785,0,25,11.215,25,25S258.785,190,245,190z"></path></a></g></svg></svg></svg>