<svg version="1.1" xmlns="http://www.w3.org/2000/svg" xmlns:xlink="http://www.w3.org/1999/xlink" fill="transparent" x="0" y="0" width="350" height="350" preserveAspectRatio="xMinYMin slice"><style type="text/css">.links{fill:transparent;stroke: #E4CF37;}.links:hover{fill:#63D272; opacity:0.4;}</style><defs><g id="allt"><path id="t1599" d="M1320,384 L1310,382 C1300,380 1312,390 1302,389 C1292,389 1306,380 1296,382 L1287,384 1287,384 L1287,392 C1287,401 1278,391 1279,399 C1280,408 1288,397 1287,406 L1287,416 1287,416 L1296,416 C1305,416 1294,408 1302,408 C1311,409 1300,417 1310,416 L1320,416 1320,416 L1318,405 C1317,395 1328,410 1328,401 C1328,393 1320,401 1320,392 L1320,384"/></g><clipPath id="c" clipRule="evenodd" fill="transparent"><use href="#t1599"/></clipPath></defs><svg viewBox="1277 379 52 39" preserveAspectRatio="xMinYMin meet"><svg width="4380" height="2430"><g><image crossorigin="anonymous" x="0" y="0" href="https://nftpuzzle.license-token.com/assets/completepuzzle.svg" width="100%" height="100%" /><g class="links"><use href="#t1599"/></g></g></svg><svg x="1314" y="403" height="9%" width="9%" viewBox="0 0 330 330"><g><a xlink:href="https://nftpuzzle.license-token.com/" class="links"><title>See the most innovative NFT based token software licensing project</title><path fill="#E4CF37" id="more" d="M165,0C74.019,0,0,74.019,0,165s74.019,165,165,165s165-74.019,165-165S255.981,0,165,0z M85,190 c-13.785,0-25-11.215-25-25s11.215-25,25-25s25,11.215,25,25S98.785,190,85,190z M165,190c-13.785,0-25-11.215-25-25 s11.215-25,25-25s25,11.215,25,25S178.785,190,165,190z M245,190c-13.785,0-25-11.215-25-25s11.215-25,25-25 c13.785,0,25,11.215,25,25S258.785,190,245,190z"></path></a></g></svg></svg></svg>