<svg version="1.1" xmlns="http://www.w3.org/2000/svg" xmlns:xlink="http://www.w3.org/1999/xlink" fill="transparent" x="0" y="0" width="350" height="350" preserveAspectRatio="xMinYMin slice"><style type="text/css">.links{fill:transparent;stroke: #E4CF37;}.links:hover{fill:#63D272; opacity:0.4;}</style><defs><g id="allt"><path id="t1604" d="M1485,384 L1475,384 C1466,384 1477,379 1467,377 C1458,376 1472,386 1462,385 L1452,384 1452,384 L1449,393 C1447,403 1463,390 1461,399 C1459,408 1452,397 1452,406 L1452,416 1452,416 L1461,413 C1471,411 1458,426 1467,424 C1477,423 1466,416 1475,416 L1485,416 1485,416 L1485,405 C1485,395 1483,408 1483,400 C1483,392 1485,404 1485,394 L1485,384"/></g><clipPath id="c" clipRule="evenodd" fill="transparent"><use href="#t1604"/></clipPath></defs><svg viewBox="1446 375 40 52" preserveAspectRatio="xMinYMin meet"><svg width="4380" height="2430"><g><image crossorigin="anonymous" x="0" y="0" href="https://nftpuzzle.license-token.com/assets/completepuzzle.svg" width="100%" height="100%" /><g class="links"><use href="#t1604"/></g></g></svg><svg x="1471" y="412" height="9%" width="9%" viewBox="0 0 330 330"><g><a xlink:href="https://nftpuzzle.license-token.com/" class="links"><title>See the most innovative NFT based token software licensing project</title><path fill="#E4CF37" id="more" d="M165,0C74.019,0,0,74.019,0,165s74.019,165,165,165s165-74.019,165-165S255.981,0,165,0z M85,190 c-13.785,0-25-11.215-25-25s11.215-25,25-25s25,11.215,25,25S98.785,190,85,190z M165,190c-13.785,0-25-11.215-25-25 s11.215-25,25-25s25,11.215,25,25S178.785,190,165,190z M245,190c-13.785,0-25-11.215-25-25s11.215-25,25-25 c13.785,0,25,11.215,25,25S258.785,190,245,190z"></path></a></g></svg></svg></svg>