<svg version="1.1" xmlns="http://www.w3.org/2000/svg" xmlns:xlink="http://www.w3.org/1999/xlink" fill="transparent" x="0" y="0" width="350" height="350" preserveAspectRatio="xMinYMin slice"><style type="text/css">.links{fill:transparent;stroke: #E4CF37;}.links:hover{fill:#63D272; opacity:0.4;}</style><defs><g id="allt"><path id="t1609" d="M1650,384 L1640,384 C1631,384 1640,388 1632,389 C1624,391 1635,384 1626,384 L1617,384 1617,384 L1618,393 C1620,402 1614,391 1611,400 C1609,410 1617,398 1617,407 L1617,416 1617,416 L1626,417 C1635,419 1624,413 1634,410 C1644,408 1631,416 1640,416 L1650,416 1650,416 L1651,405 C1652,394 1648,410 1647,399 C1647,389 1650,403 1650,393 L1650,384"/></g><clipPath id="c" clipRule="evenodd" fill="transparent"><use href="#t1609"/></clipPath></defs><svg viewBox="1608 383 45 37" preserveAspectRatio="xMinYMin meet"><svg width="4380" height="2430"><g><image crossorigin="anonymous" x="0" y="0" href="https://nftpuzzle.license-token.com/assets/completepuzzle.svg" width="100%" height="100%" /><g class="links"><use href="#t1609"/></g></g></svg><svg x="1638" y="405" height="9%" width="9%" viewBox="0 0 330 330"><g><a xlink:href="https://nftpuzzle.license-token.com/" class="links"><title>See the most innovative NFT based token software licensing project</title><path fill="#E4CF37" id="more" d="M165,0C74.019,0,0,74.019,0,165s74.019,165,165,165s165-74.019,165-165S255.981,0,165,0z M85,190 c-13.785,0-25-11.215-25-25s11.215-25,25-25s25,11.215,25,25S98.785,190,85,190z M165,190c-13.785,0-25-11.215-25-25 s11.215-25,25-25s25,11.215,25,25S178.785,190,165,190z M245,190c-13.785,0-25-11.215-25-25s11.215-25,25-25 c13.785,0,25,11.215,25,25S258.785,190,245,190z"></path></a></g></svg></svg></svg>