<svg version="1.1" xmlns="http://www.w3.org/2000/svg" xmlns:xlink="http://www.w3.org/1999/xlink" fill="transparent" x="0" y="0" width="350" height="350" preserveAspectRatio="xMinYMin slice"><style type="text/css">.links{fill:transparent;stroke: #E4CF37;}.links:hover{fill:#63D272; opacity:0.4;}</style><defs><g id="allt"><path id="t1621" d="M2046,384 L2035,384 C2025,384 2037,379 2029,380 C2021,381 2034,384 2023,384 L2013,384 2013,384 L2013,393 C2013,403 2002,389 2002,400 C2002,411 2016,397 2014,406 L2013,416 2013,416 L2023,416 C2033,416 2018,405 2029,405 C2041,405 2026,419 2036,417 L2046,416 2046,416 L2047,406 C2049,396 2035,406 2037,397 C2040,388 2046,401 2046,392 L2046,384"/></g><clipPath id="c" clipRule="evenodd" fill="transparent"><use href="#t1621"/></clipPath></defs><svg viewBox="2001 378 49 42" preserveAspectRatio="xMinYMin meet"><svg width="4380" height="2430"><g><image crossorigin="anonymous" x="0" y="0" href="https://nftpuzzle.license-token.com/assets/completepuzzle.svg" width="100%" height="100%" /><g class="links"><use href="#t1621"/></g></g></svg><svg x="2035" y="405" height="9%" width="9%" viewBox="0 0 330 330"><g><a xlink:href="https://nftpuzzle.license-token.com/" class="links"><title>See the most innovative NFT based token software licensing project</title><path fill="#E4CF37" id="more" d="M165,0C74.019,0,0,74.019,0,165s74.019,165,165,165s165-74.019,165-165S255.981,0,165,0z M85,190 c-13.785,0-25-11.215-25-25s11.215-25,25-25s25,11.215,25,25S98.785,190,85,190z M165,190c-13.785,0-25-11.215-25-25 s11.215-25,25-25s25,11.215,25,25S178.785,190,165,190z M245,190c-13.785,0-25-11.215-25-25s11.215-25,25-25 c13.785,0,25,11.215,25,25S258.785,190,245,190z"></path></a></g></svg></svg></svg>