<svg version="1.1" xmlns="http://www.w3.org/2000/svg" xmlns:xlink="http://www.w3.org/1999/xlink" fill="transparent" x="0" y="0" width="350" height="350" preserveAspectRatio="xMinYMin slice"><style type="text/css">.links{fill:transparent;stroke: #E4CF37;}.links:hover{fill:#63D272; opacity:0.4;}</style><defs><g id="allt"><path id="t1625" d="M2178,384 L2168,385 C2158,386 2170,380 2161,380 C2152,380 2164,384 2154,384 L2145,384 2145,384 L2146,393 C2148,402 2137,388 2138,397 C2139,406 2147,398 2146,407 L2145,416 2145,416 L2154,417 C2163,419 2149,408 2158,409 C2168,410 2159,418 2168,417 L2178,416 2178,416 L2178,405 C2179,395 2173,406 2171,397 C2170,389 2178,404 2178,394 L2178,384"/></g><clipPath id="c" clipRule="evenodd" fill="transparent"><use href="#t1625"/></clipPath></defs><svg viewBox="2136 379 44 41" preserveAspectRatio="xMinYMin meet"><svg width="4380" height="2430"><g><image crossorigin="anonymous" x="0" y="0" href="https://nftpuzzle.license-token.com/assets/completepuzzle.svg" width="100%" height="100%" /><g class="links"><use href="#t1625"/></g></g></svg><svg x="2165" y="405" height="9%" width="9%" viewBox="0 0 330 330"><g><a xlink:href="https://nftpuzzle.license-token.com/" class="links"><title>See the most innovative NFT based token software licensing project</title><path fill="#E4CF37" id="more" d="M165,0C74.019,0,0,74.019,0,165s74.019,165,165,165s165-74.019,165-165S255.981,0,165,0z M85,190 c-13.785,0-25-11.215-25-25s11.215-25,25-25s25,11.215,25,25S98.785,190,85,190z M165,190c-13.785,0-25-11.215-25-25 s11.215-25,25-25s25,11.215,25,25S178.785,190,165,190z M245,190c-13.785,0-25-11.215-25-25s11.215-25,25-25 c13.785,0,25,11.215,25,25S258.785,190,245,190z"></path></a></g></svg></svg></svg>