<svg version="1.1" xmlns="http://www.w3.org/2000/svg" xmlns:xlink="http://www.w3.org/1999/xlink" fill="transparent" x="0" y="0" width="350" height="350" preserveAspectRatio="xMinYMin slice"><style type="text/css">.links{fill:transparent;stroke: #E4CF37;}.links:hover{fill:#63D272; opacity:0.4;}</style><defs><g id="allt"><path id="t1627" d="M2244,384 L2233,384 C2222,384 2237,387 2228,389 C2220,391 2229,382 2220,383 L2211,384 2211,384 L2211,394 C2211,405 2218,390 2218,398 C2219,406 2211,398 2211,407 L2211,416 2211,416 L2222,416 C2233,416 2217,423 2225,423 C2234,424 2225,416 2234,416 L2244,416 2244,416 L2243,405 C2243,394 2246,406 2247,397 C2248,389 2244,402 2244,393 L2244,384"/></g><clipPath id="c" clipRule="evenodd" fill="transparent"><use href="#t1627"/></clipPath></defs><svg viewBox="2210 381 39 44" preserveAspectRatio="xMinYMin meet"><svg width="4380" height="2430"><g><image crossorigin="anonymous" x="0" y="0" href="https://nftpuzzle.license-token.com/assets/completepuzzle.svg" width="100%" height="100%" /><g class="links"><use href="#t1627"/></g></g></svg><svg x="2234" y="410" height="9%" width="9%" viewBox="0 0 330 330"><g><a xlink:href="https://nftpuzzle.license-token.com/" class="links"><title>See the most innovative NFT based token software licensing project</title><path fill="#E4CF37" id="more" d="M165,0C74.019,0,0,74.019,0,165s74.019,165,165,165s165-74.019,165-165S255.981,0,165,0z M85,190 c-13.785,0-25-11.215-25-25s11.215-25,25-25s25,11.215,25,25S98.785,190,85,190z M165,190c-13.785,0-25-11.215-25-25 s11.215-25,25-25s25,11.215,25,25S178.785,190,165,190z M245,190c-13.785,0-25-11.215-25-25s11.215-25,25-25 c13.785,0,25,11.215,25,25S258.785,190,245,190z"></path></a></g></svg></svg></svg>