<svg version="1.1" xmlns="http://www.w3.org/2000/svg" xmlns:xlink="http://www.w3.org/1999/xlink" fill="transparent" x="0" y="0" width="350" height="350" preserveAspectRatio="xMinYMin slice"><style type="text/css">.links{fill:transparent;stroke: #E4CF37;}.links:hover{fill:#63D272; opacity:0.4;}</style><defs><g id="allt"><path id="t1634" d="M2475,384 L2464,383 C2454,382 2465,389 2456,389 C2447,389 2460,384 2451,384 L2442,384 2442,384 L2442,393 C2442,403 2451,392 2449,399 C2447,407 2442,397 2442,406 L2442,416 2442,416 L2452,416 C2462,416 2451,425 2458,423 C2466,421 2455,416 2465,416 L2475,416 2475,416 L2475,406 C2476,396 2470,410 2470,399 C2471,389 2475,405 2475,394 L2475,384"/></g><clipPath id="c" clipRule="evenodd" fill="transparent"><use href="#t1634"/></clipPath></defs><svg viewBox="2441 381 36 45" preserveAspectRatio="xMinYMin meet"><svg width="4380" height="2430"><g><image crossorigin="anonymous" x="0" y="0" href="https://nftpuzzle.license-token.com/assets/completepuzzle.svg" width="100%" height="100%" /><g class="links"><use href="#t1634"/></g></g></svg><svg x="2462" y="411" height="9%" width="9%" viewBox="0 0 330 330"><g><a xlink:href="https://nftpuzzle.license-token.com/" class="links"><title>See the most innovative NFT based token software licensing project</title><path fill="#E4CF37" id="more" d="M165,0C74.019,0,0,74.019,0,165s74.019,165,165,165s165-74.019,165-165S255.981,0,165,0z M85,190 c-13.785,0-25-11.215-25-25s11.215-25,25-25s25,11.215,25,25S98.785,190,85,190z M165,190c-13.785,0-25-11.215-25-25 s11.215-25,25-25s25,11.215,25,25S178.785,190,165,190z M245,190c-13.785,0-25-11.215-25-25s11.215-25,25-25 c13.785,0,25,11.215,25,25S258.785,190,245,190z"></path></a></g></svg></svg></svg>