<svg version="1.1" xmlns="http://www.w3.org/2000/svg" xmlns:xlink="http://www.w3.org/1999/xlink" fill="transparent" x="0" y="0" width="350" height="350" preserveAspectRatio="xMinYMin slice"><style type="text/css">.links{fill:transparent;stroke: #E4CF37;}.links:hover{fill:#63D272; opacity:0.4;}</style><defs><g id="allt"><path id="t1639" d="M2640,384 L2629,383 C2619,383 2631,392 2622,392 C2613,393 2625,384 2616,384 L2607,384 2607,384 L2607,394 C2607,405 2611,388 2610,397 C2610,407 2606,395 2606,405 L2607,416 2607,416 L2617,416 C2628,416 2611,420 2620,419 C2630,419 2619,415 2629,415 L2640,416 2640,416 L2640,406 C2640,397 2635,408 2635,400 C2636,393 2641,405 2640,394 L2640,384"/></g><clipPath id="c" clipRule="evenodd" fill="transparent"><use href="#t1639"/></clipPath></defs><svg viewBox="2605 382 37 39" preserveAspectRatio="xMinYMin meet"><svg width="4380" height="2430"><g><image crossorigin="anonymous" x="0" y="0" href="https://nftpuzzle.license-token.com/assets/completepuzzle.svg" width="100%" height="100%" /><g class="links"><use href="#t1639"/></g></g></svg><svg x="2627" y="406" height="9%" width="9%" viewBox="0 0 330 330"><g><a xlink:href="https://nftpuzzle.license-token.com/" class="links"><title>See the most innovative NFT based token software licensing project</title><path fill="#E4CF37" id="more" d="M165,0C74.019,0,0,74.019,0,165s74.019,165,165,165s165-74.019,165-165S255.981,0,165,0z M85,190 c-13.785,0-25-11.215-25-25s11.215-25,25-25s25,11.215,25,25S98.785,190,85,190z M165,190c-13.785,0-25-11.215-25-25 s11.215-25,25-25s25,11.215,25,25S178.785,190,165,190z M245,190c-13.785,0-25-11.215-25-25s11.215-25,25-25 c13.785,0,25,11.215,25,25S258.785,190,245,190z"></path></a></g></svg></svg></svg>