<svg version="1.1" xmlns="http://www.w3.org/2000/svg" xmlns:xlink="http://www.w3.org/1999/xlink" fill="transparent" x="0" y="0" width="350" height="350" preserveAspectRatio="xMinYMin slice"><style type="text/css">.links{fill:transparent;stroke: #E4CF37;}.links:hover{fill:#63D272; opacity:0.4;}</style><defs><g id="allt"><path id="t164" d="M1155,32 L1144,32 C1133,32 1148,28 1138,28 C1128,28 1140,32 1131,32 L1122,32 1122,32 L1122,42 C1122,52 1126,38 1125,46 C1125,54 1121,43 1121,53 L1122,64 1122,64 L1132,64 C1143,64 1128,68 1136,67 C1145,67 1134,63 1144,63 L1155,64 1155,64 L1156,54 C1157,45 1150,58 1148,48 C1147,39 1155,49 1155,40 L1155,32"/></g><clipPath id="c" clipRule="evenodd" fill="transparent"><use href="#t164"/></clipPath></defs><svg viewBox="1120 27 38 42" preserveAspectRatio="xMinYMin meet"><svg width="4380" height="2430"><g><image crossorigin="anonymous" x="0" y="0" href="https://nftpuzzle.license-token.com/assets/completepuzzle.svg" width="100%" height="100%" /><g class="links"><use href="#t164"/></g></g></svg><svg x="1143" y="54" height="9%" width="9%" viewBox="0 0 330 330"><g><a xlink:href="https://nftpuzzle.license-token.com/" class="links"><title>See the most innovative NFT based token software licensing project</title><path fill="#E4CF37" id="more" d="M165,0C74.019,0,0,74.019,0,165s74.019,165,165,165s165-74.019,165-165S255.981,0,165,0z M85,190 c-13.785,0-25-11.215-25-25s11.215-25,25-25s25,11.215,25,25S98.785,190,85,190z M165,190c-13.785,0-25-11.215-25-25 s11.215-25,25-25s25,11.215,25,25S178.785,190,165,190z M245,190c-13.785,0-25-11.215-25-25s11.215-25,25-25 c13.785,0,25,11.215,25,25S258.785,190,245,190z"></path></a></g></svg></svg></svg>