<svg version="1.1" xmlns="http://www.w3.org/2000/svg" xmlns:xlink="http://www.w3.org/1999/xlink" fill="transparent" x="0" y="0" width="350" height="350" preserveAspectRatio="xMinYMin slice"><style type="text/css">.links{fill:transparent;stroke: #E4CF37;}.links:hover{fill:#63D272; opacity:0.4;}</style><defs><g id="allt"><path id="t1646" d="M2871,384 L2861,383 C2852,383 2863,390 2855,391 C2847,392 2858,382 2848,383 L2838,384 2838,384 L2837,394 C2836,405 2843,391 2844,400 C2846,410 2838,398 2838,407 L2838,416 2838,416 L2848,415 C2859,414 2845,421 2855,422 C2865,424 2852,416 2861,416 L2871,416 2871,416 L2870,406 C2869,396 2875,410 2876,401 C2877,392 2871,403 2871,393 L2871,384"/></g><clipPath id="c" clipRule="evenodd" fill="transparent"><use href="#t1646"/></clipPath></defs><svg viewBox="2835 381 43 44" preserveAspectRatio="xMinYMin meet"><svg width="4380" height="2430"><g><image crossorigin="anonymous" x="0" y="0" href="https://nftpuzzle.license-token.com/assets/completepuzzle.svg" width="100%" height="100%" /><g class="links"><use href="#t1646"/></g></g></svg><svg x="2863" y="410" height="9%" width="9%" viewBox="0 0 330 330"><g><a xlink:href="https://nftpuzzle.license-token.com/" class="links"><title>See the most innovative NFT based token software licensing project</title><path fill="#E4CF37" id="more" d="M165,0C74.019,0,0,74.019,0,165s74.019,165,165,165s165-74.019,165-165S255.981,0,165,0z M85,190 c-13.785,0-25-11.215-25-25s11.215-25,25-25s25,11.215,25,25S98.785,190,85,190z M165,190c-13.785,0-25-11.215-25-25 s11.215-25,25-25s25,11.215,25,25S178.785,190,165,190z M245,190c-13.785,0-25-11.215-25-25s11.215-25,25-25 c13.785,0,25,11.215,25,25S258.785,190,245,190z"></path></a></g></svg></svg></svg>