<svg version="1.1" xmlns="http://www.w3.org/2000/svg" xmlns:xlink="http://www.w3.org/1999/xlink" fill="transparent" x="0" y="0" width="350" height="350" preserveAspectRatio="xMinYMin slice"><style type="text/css">.links{fill:transparent;stroke: #E4CF37;}.links:hover{fill:#63D272; opacity:0.4;}</style><defs><g id="allt"><path id="t1649" d="M2970,384 L2960,383 C2951,382 2962,388 2951,388 C2941,389 2956,383 2946,383 L2937,384 2937,384 L2938,393 C2939,403 2931,388 2932,399 C2933,410 2937,396 2937,406 L2937,416 2937,416 L2947,417 C2957,418 2941,410 2952,411 C2964,412 2949,416 2959,416 L2970,416 2970,416 L2972,406 C2974,397 2965,408 2964,399 C2964,391 2970,402 2970,393 L2970,384"/></g><clipPath id="c" clipRule="evenodd" fill="transparent"><use href="#t1649"/></clipPath></defs><svg viewBox="2930 381 45 38" preserveAspectRatio="xMinYMin meet"><svg width="4380" height="2430"><g><image crossorigin="anonymous" x="0" y="0" href="https://nftpuzzle.license-token.com/assets/completepuzzle.svg" width="100%" height="100%" /><g class="links"><use href="#t1649"/></g></g></svg><svg x="2960" y="404" height="9%" width="9%" viewBox="0 0 330 330"><g><a xlink:href="https://nftpuzzle.license-token.com/" class="links"><title>See the most innovative NFT based token software licensing project</title><path fill="#E4CF37" id="more" d="M165,0C74.019,0,0,74.019,0,165s74.019,165,165,165s165-74.019,165-165S255.981,0,165,0z M85,190 c-13.785,0-25-11.215-25-25s11.215-25,25-25s25,11.215,25,25S98.785,190,85,190z M165,190c-13.785,0-25-11.215-25-25 s11.215-25,25-25s25,11.215,25,25S178.785,190,165,190z M245,190c-13.785,0-25-11.215-25-25s11.215-25,25-25 c13.785,0,25,11.215,25,25S258.785,190,245,190z"></path></a></g></svg></svg></svg>