<svg version="1.1" xmlns="http://www.w3.org/2000/svg" xmlns:xlink="http://www.w3.org/1999/xlink" fill="transparent" x="0" y="0" width="350" height="350" preserveAspectRatio="xMinYMin slice"><style type="text/css">.links{fill:transparent;stroke: #E4CF37;}.links:hover{fill:#63D272; opacity:0.4;}</style><defs><g id="allt"><path id="t1652" d="M3069,384 L3058,384 C3047,384 3061,376 3052,375 C3044,374 3055,384 3045,384 L3036,384 3036,384 L3036,393 C3036,402 3043,389 3043,399 C3043,410 3036,394 3036,405 L3036,416 3036,416 L3045,416 C3054,416 3041,423 3052,423 C3063,423 3047,416 3058,416 L3069,416 3069,416 L3067,406 C3066,397 3075,410 3075,399 C3076,389 3069,404 3069,394 L3069,384"/></g><clipPath id="c" clipRule="evenodd" fill="transparent"><use href="#t1652"/></clipPath></defs><svg viewBox="3035 373 42 51" preserveAspectRatio="xMinYMin meet"><svg width="4380" height="2430"><g><image crossorigin="anonymous" x="0" y="0" href="https://nftpuzzle.license-token.com/assets/completepuzzle.svg" width="100%" height="100%" /><g class="links"><use href="#t1652"/></g></g></svg><svg x="3062" y="409" height="9%" width="9%" viewBox="0 0 330 330"><g><a xlink:href="https://nftpuzzle.license-token.com/" class="links"><title>See the most innovative NFT based token software licensing project</title><path fill="#E4CF37" id="more" d="M165,0C74.019,0,0,74.019,0,165s74.019,165,165,165s165-74.019,165-165S255.981,0,165,0z M85,190 c-13.785,0-25-11.215-25-25s11.215-25,25-25s25,11.215,25,25S98.785,190,85,190z M165,190c-13.785,0-25-11.215-25-25 s11.215-25,25-25s25,11.215,25,25S178.785,190,165,190z M245,190c-13.785,0-25-11.215-25-25s11.215-25,25-25 c13.785,0,25,11.215,25,25S258.785,190,245,190z"></path></a></g></svg></svg></svg>