<svg version="1.1" xmlns="http://www.w3.org/2000/svg" xmlns:xlink="http://www.w3.org/1999/xlink" fill="transparent" x="0" y="0" width="350" height="350" preserveAspectRatio="xMinYMin slice"><style type="text/css">.links{fill:transparent;stroke: #E4CF37;}.links:hover{fill:#63D272; opacity:0.4;}</style><defs><g id="allt"><path id="t1653" d="M3102,384 L3091,384 C3080,384 3092,392 3084,393 C3076,394 3087,380 3078,382 L3069,384 3069,384 L3069,394 C3069,404 3076,389 3075,399 C3075,410 3066,397 3067,406 L3069,416 3069,416 L3079,416 C3090,416 3074,423 3085,422 C3096,422 3082,413 3092,414 L3102,416 3102,416 L3101,406 C3101,396 3106,409 3105,399 C3105,389 3099,403 3100,393 L3102,384"/></g><clipPath id="c" clipRule="evenodd" fill="transparent"><use href="#t1653"/></clipPath></defs><svg viewBox="3065 379 42 45" preserveAspectRatio="xMinYMin meet"><svg width="4380" height="2430"><g><image crossorigin="anonymous" x="0" y="0" href="https://nftpuzzle.license-token.com/assets/completepuzzle.svg" width="100%" height="100%" /><g class="links"><use href="#t1653"/></g></g></svg><svg x="3092" y="409" height="9%" width="9%" viewBox="0 0 330 330"><g><a xlink:href="https://nftpuzzle.license-token.com/" class="links"><title>See the most innovative NFT based token software licensing project</title><path fill="#E4CF37" id="more" d="M165,0C74.019,0,0,74.019,0,165s74.019,165,165,165s165-74.019,165-165S255.981,0,165,0z M85,190 c-13.785,0-25-11.215-25-25s11.215-25,25-25s25,11.215,25,25S98.785,190,85,190z M165,190c-13.785,0-25-11.215-25-25 s11.215-25,25-25s25,11.215,25,25S178.785,190,165,190z M245,190c-13.785,0-25-11.215-25-25s11.215-25,25-25 c13.785,0,25,11.215,25,25S258.785,190,245,190z"></path></a></g></svg></svg></svg>