<svg version="1.1" xmlns="http://www.w3.org/2000/svg" xmlns:xlink="http://www.w3.org/1999/xlink" fill="transparent" x="0" y="0" width="350" height="350" preserveAspectRatio="xMinYMin slice"><style type="text/css">.links{fill:transparent;stroke: #E4CF37;}.links:hover{fill:#63D272; opacity:0.4;}</style><defs><g id="allt"><path id="t1660" d="M3333,384 L3322,382 C3312,381 3326,396 3317,393 C3308,391 3318,383 3309,383 L3300,384 3300,384 L3300,394 C3300,404 3297,392 3296,400 C3296,408 3300,397 3300,406 L3300,416 3300,416 L3310,416 C3321,416 3309,413 3316,412 C3324,412 3314,416 3323,416 L3333,416 3333,416 L3334,405 C3336,394 3323,409 3324,400 C3325,391 3336,405 3334,394 L3333,384"/></g><clipPath id="c" clipRule="evenodd" fill="transparent"><use href="#t1660"/></clipPath></defs><svg viewBox="3295 380 42 37" preserveAspectRatio="xMinYMin meet"><svg width="4380" height="2430"><g><image crossorigin="anonymous" x="0" y="0" href="https://nftpuzzle.license-token.com/assets/completepuzzle.svg" width="100%" height="100%" /><g class="links"><use href="#t1660"/></g></g></svg><svg x="3322" y="402" height="9%" width="9%" viewBox="0 0 330 330"><g><a xlink:href="https://nftpuzzle.license-token.com/" class="links"><title>See the most innovative NFT based token software licensing project</title><path fill="#E4CF37" id="more" d="M165,0C74.019,0,0,74.019,0,165s74.019,165,165,165s165-74.019,165-165S255.981,0,165,0z M85,190 c-13.785,0-25-11.215-25-25s11.215-25,25-25s25,11.215,25,25S98.785,190,85,190z M165,190c-13.785,0-25-11.215-25-25 s11.215-25,25-25s25,11.215,25,25S178.785,190,165,190z M245,190c-13.785,0-25-11.215-25-25s11.215-25,25-25 c13.785,0,25,11.215,25,25S258.785,190,245,190z"></path></a></g></svg></svg></svg>