<svg version="1.1" xmlns="http://www.w3.org/2000/svg" xmlns:xlink="http://www.w3.org/1999/xlink" fill="transparent" x="0" y="0" width="350" height="350" preserveAspectRatio="xMinYMin slice"><style type="text/css">.links{fill:transparent;stroke: #E4CF37;}.links:hover{fill:#63D272; opacity:0.4;}</style><defs><g id="allt"><path id="t1661" d="M3366,384 L3356,384 C3346,384 3360,387 3349,387 C3338,388 3351,384 3342,384 L3333,384 3333,384 L3334,394 C3336,405 3325,391 3324,400 C3323,409 3336,394 3334,405 L3333,416 3333,416 L3343,417 C3354,419 3340,408 3349,407 C3359,407 3343,419 3354,417 L3366,416 3366,416 L3365,406 C3365,396 3356,409 3356,398 C3356,388 3366,402 3366,393 L3366,384"/></g><clipPath id="c" clipRule="evenodd" fill="transparent"><use href="#t1661"/></clipPath></defs><svg viewBox="3322 383 45 37" preserveAspectRatio="xMinYMin meet"><svg width="4380" height="2430"><g><image crossorigin="anonymous" x="0" y="0" href="https://nftpuzzle.license-token.com/assets/completepuzzle.svg" width="100%" height="100%" /><g class="links"><use href="#t1661"/></g></g></svg><svg x="3352" y="405" height="9%" width="9%" viewBox="0 0 330 330"><g><a xlink:href="https://nftpuzzle.license-token.com/" class="links"><title>See the most innovative NFT based token software licensing project</title><path fill="#E4CF37" id="more" d="M165,0C74.019,0,0,74.019,0,165s74.019,165,165,165s165-74.019,165-165S255.981,0,165,0z M85,190 c-13.785,0-25-11.215-25-25s11.215-25,25-25s25,11.215,25,25S98.785,190,85,190z M165,190c-13.785,0-25-11.215-25-25 s11.215-25,25-25s25,11.215,25,25S178.785,190,165,190z M245,190c-13.785,0-25-11.215-25-25s11.215-25,25-25 c13.785,0,25,11.215,25,25S258.785,190,245,190z"></path></a></g></svg></svg></svg>