<svg version="1.1" xmlns="http://www.w3.org/2000/svg" xmlns:xlink="http://www.w3.org/1999/xlink" fill="transparent" x="0" y="0" width="350" height="350" preserveAspectRatio="xMinYMin slice"><style type="text/css">.links{fill:transparent;stroke: #E4CF37;}.links:hover{fill:#63D272; opacity:0.4;}</style><defs><g id="allt"><path id="t1665" d="M3498,384 L3488,384 C3478,385 3491,376 3482,376 C3473,377 3487,387 3476,385 L3465,384 3465,384 L3465,392 C3465,401 3468,393 3468,399 C3469,406 3464,395 3464,405 L3465,416 3465,416 L3474,416 C3483,416 3474,419 3481,419 C3488,420 3476,415 3487,415 L3498,416 3498,416 L3500,406 C3502,396 3489,410 3490,401 C3491,392 3498,402 3498,393 L3498,384"/></g><clipPath id="c" clipRule="evenodd" fill="transparent"><use href="#t1665"/></clipPath></defs><svg viewBox="3463 375 40 46" preserveAspectRatio="xMinYMin meet"><svg width="4380" height="2430"><g><image crossorigin="anonymous" x="0" y="0" href="https://nftpuzzle.license-token.com/assets/completepuzzle.svg" width="100%" height="100%" /><g class="links"><use href="#t1665"/></g></g></svg><svg x="3488" y="406" height="9%" width="9%" viewBox="0 0 330 330"><g><a xlink:href="https://nftpuzzle.license-token.com/" class="links"><title>See the most innovative NFT based token software licensing project</title><path fill="#E4CF37" id="more" d="M165,0C74.019,0,0,74.019,0,165s74.019,165,165,165s165-74.019,165-165S255.981,0,165,0z M85,190 c-13.785,0-25-11.215-25-25s11.215-25,25-25s25,11.215,25,25S98.785,190,85,190z M165,190c-13.785,0-25-11.215-25-25 s11.215-25,25-25s25,11.215,25,25S178.785,190,165,190z M245,190c-13.785,0-25-11.215-25-25s11.215-25,25-25 c13.785,0,25,11.215,25,25S258.785,190,245,190z"></path></a></g></svg></svg></svg>