<svg version="1.1" xmlns="http://www.w3.org/2000/svg" xmlns:xlink="http://www.w3.org/1999/xlink" fill="transparent" x="0" y="0" width="350" height="350" preserveAspectRatio="xMinYMin slice"><style type="text/css">.links{fill:transparent;stroke: #E4CF37;}.links:hover{fill:#63D272; opacity:0.4;}</style><defs><g id="allt"><path id="t1673" d="M3762,384 L3751,384 C3740,384 3756,381 3746,381 C3737,382 3747,384 3738,384 L3729,384 3729,384 L3729,393 C3730,402 3722,390 3723,398 C3725,407 3729,397 3729,406 L3729,416 3729,416 L3738,416 C3748,417 3735,409 3744,410 C3753,412 3742,416 3752,416 L3762,416 3762,416 L3763,406 C3764,396 3756,406 3757,399 C3758,392 3763,403 3762,393 L3762,384"/></g><clipPath id="c" clipRule="evenodd" fill="transparent"><use href="#t1673"/></clipPath></defs><svg viewBox="3721 380 44 38" preserveAspectRatio="xMinYMin meet"><svg width="4380" height="2430"><g><image crossorigin="anonymous" x="0" y="0" href="https://nftpuzzle.license-token.com/assets/completepuzzle.svg" width="100%" height="100%" /><g class="links"><use href="#t1673"/></g></g></svg><svg x="3750" y="403" height="9%" width="9%" viewBox="0 0 330 330"><g><a xlink:href="https://nftpuzzle.license-token.com/" class="links"><title>See the most innovative NFT based token software licensing project</title><path fill="#E4CF37" id="more" d="M165,0C74.019,0,0,74.019,0,165s74.019,165,165,165s165-74.019,165-165S255.981,0,165,0z M85,190 c-13.785,0-25-11.215-25-25s11.215-25,25-25s25,11.215,25,25S98.785,190,85,190z M165,190c-13.785,0-25-11.215-25-25 s11.215-25,25-25s25,11.215,25,25S178.785,190,165,190z M245,190c-13.785,0-25-11.215-25-25s11.215-25,25-25 c13.785,0,25,11.215,25,25S258.785,190,245,190z"></path></a></g></svg></svg></svg>