<svg version="1.1" xmlns="http://www.w3.org/2000/svg" xmlns:xlink="http://www.w3.org/1999/xlink" fill="transparent" x="0" y="0" width="350" height="350" preserveAspectRatio="xMinYMin slice"><style type="text/css">.links{fill:transparent;stroke: #E4CF37;}.links:hover{fill:#63D272; opacity:0.4;}</style><defs><g id="allt"><path id="t1680" d="M3993,384 L3983,386 C3974,388 3984,375 3976,377 C3968,379 3981,384 3970,384 L3960,384 3960,384 L3959,392 C3959,401 3965,392 3966,399 C3967,407 3960,398 3960,407 L3960,416 3960,416 L3969,415 C3978,415 3968,421 3975,422 C3983,423 3974,416 3983,416 L3993,416 3993,416 L3993,406 C3993,396 3995,408 3997,400 C3999,392 3992,404 3992,394 L3993,384"/></g><clipPath id="c" clipRule="evenodd" fill="transparent"><use href="#t1680"/></clipPath></defs><svg viewBox="3958 374 42 50" preserveAspectRatio="xMinYMin meet"><svg width="4380" height="2430"><g><image crossorigin="anonymous" x="0" y="0" href="https://nftpuzzle.license-token.com/assets/completepuzzle.svg" width="100%" height="100%" /><g class="links"><use href="#t1680"/></g></g></svg><svg x="3985" y="409" height="9%" width="9%" viewBox="0 0 330 330"><g><a xlink:href="https://nftpuzzle.license-token.com/" class="links"><title>See the most innovative NFT based token software licensing project</title><path fill="#E4CF37" id="more" d="M165,0C74.019,0,0,74.019,0,165s74.019,165,165,165s165-74.019,165-165S255.981,0,165,0z M85,190 c-13.785,0-25-11.215-25-25s11.215-25,25-25s25,11.215,25,25S98.785,190,85,190z M165,190c-13.785,0-25-11.215-25-25 s11.215-25,25-25s25,11.215,25,25S178.785,190,165,190z M245,190c-13.785,0-25-11.215-25-25s11.215-25,25-25 c13.785,0,25,11.215,25,25S258.785,190,245,190z"></path></a></g></svg></svg></svg>