<svg version="1.1" xmlns="http://www.w3.org/2000/svg" xmlns:xlink="http://www.w3.org/1999/xlink" fill="transparent" x="0" y="0" width="350" height="350" preserveAspectRatio="xMinYMin slice"><style type="text/css">.links{fill:transparent;stroke: #E4CF37;}.links:hover{fill:#63D272; opacity:0.4;}</style><defs><g id="allt"><path id="t1681" d="M4026,384 L4016,386 C4006,388 4018,380 4009,379 C4000,378 4015,384 4004,384 L3993,384 3993,384 L3992,394 C3992,404 3999,392 3997,400 C3995,408 3993,396 3993,406 L3993,416 3993,416 L4003,415 C4014,415 4001,422 4009,420 C4018,418 4005,416 4015,416 L4026,416 4026,416 L4028,407 C4030,398 4018,406 4017,397 C4017,389 4026,404 4026,394 L4026,384"/></g><clipPath id="c" clipRule="evenodd" fill="transparent"><use href="#t1681"/></clipPath></defs><svg viewBox="3991 377 40 46" preserveAspectRatio="xMinYMin meet"><svg width="4380" height="2430"><g><image crossorigin="anonymous" x="0" y="0" href="https://nftpuzzle.license-token.com/assets/completepuzzle.svg" width="100%" height="100%" /><g class="links"><use href="#t1681"/></g></g></svg><svg x="4016" y="408" height="9%" width="9%" viewBox="0 0 330 330"><g><a xlink:href="https://nftpuzzle.license-token.com/" class="links"><title>See the most innovative NFT based token software licensing project</title><path fill="#E4CF37" id="more" d="M165,0C74.019,0,0,74.019,0,165s74.019,165,165,165s165-74.019,165-165S255.981,0,165,0z M85,190 c-13.785,0-25-11.215-25-25s11.215-25,25-25s25,11.215,25,25S98.785,190,85,190z M165,190c-13.785,0-25-11.215-25-25 s11.215-25,25-25s25,11.215,25,25S178.785,190,165,190z M245,190c-13.785,0-25-11.215-25-25s11.215-25,25-25 c13.785,0,25,11.215,25,25S258.785,190,245,190z"></path></a></g></svg></svg></svg>