<svg version="1.1" xmlns="http://www.w3.org/2000/svg" xmlns:xlink="http://www.w3.org/1999/xlink" fill="transparent" x="0" y="0" width="350" height="350" preserveAspectRatio="xMinYMin slice"><style type="text/css">.links{fill:transparent;stroke: #E4CF37;}.links:hover{fill:#63D272; opacity:0.4;}</style><defs><g id="allt"><path id="t1685" d="M4158,384 L4147,383 C4137,382 4148,393 4140,392 C4132,391 4146,379 4135,381 L4125,384 4125,384 L4125,394 C4125,405 4120,388 4120,399 C4121,410 4127,394 4126,405 L4125,416 4125,416 L4136,416 C4147,416 4129,411 4140,411 C4152,412 4135,418 4146,417 L4158,416 4158,416 L4158,405 C4158,395 4165,410 4167,401 C4170,392 4156,403 4157,393 L4158,384"/></g><clipPath id="c" clipRule="evenodd" fill="transparent"><use href="#t1685"/></clipPath></defs><svg viewBox="4119 378 52 41" preserveAspectRatio="xMinYMin meet"><svg width="4380" height="2430"><g><image crossorigin="anonymous" x="0" y="0" href="https://nftpuzzle.license-token.com/assets/completepuzzle.svg" width="100%" height="100%" /><g class="links"><use href="#t1685"/></g></g></svg><svg x="4156" y="404" height="9%" width="9%" viewBox="0 0 330 330"><g><a xlink:href="https://nftpuzzle.license-token.com/" class="links"><title>See the most innovative NFT based token software licensing project</title><path fill="#E4CF37" id="more" d="M165,0C74.019,0,0,74.019,0,165s74.019,165,165,165s165-74.019,165-165S255.981,0,165,0z M85,190 c-13.785,0-25-11.215-25-25s11.215-25,25-25s25,11.215,25,25S98.785,190,85,190z M165,190c-13.785,0-25-11.215-25-25 s11.215-25,25-25s25,11.215,25,25S178.785,190,165,190z M245,190c-13.785,0-25-11.215-25-25s11.215-25,25-25 c13.785,0,25,11.215,25,25S258.785,190,245,190z"></path></a></g></svg></svg></svg>