<svg version="1.1" xmlns="http://www.w3.org/2000/svg" xmlns:xlink="http://www.w3.org/1999/xlink" fill="transparent" x="0" y="0" width="350" height="350" preserveAspectRatio="xMinYMin slice"><style type="text/css">.links{fill:transparent;stroke: #E4CF37;}.links:hover{fill:#63D272; opacity:0.4;}</style><defs><g id="allt"><path id="t1720" d="M1023,416 L1013,415 C1004,415 1013,423 1005,421 C998,420 1009,416 999,416 L990,416 990,416 L989,425 C988,435 994,423 994,432 C994,441 989,429 989,438 L990,448 990,448 L999,447 C1009,446 997,452 1006,452 C1016,452 1004,447 1013,447 L1023,448 1023,448 L1022,437 C1022,426 1025,440 1025,431 C1026,423 1023,435 1023,425 L1023,416"/></g><clipPath id="c" clipRule="evenodd" fill="transparent"><use href="#t1720"/></clipPath></defs><svg viewBox="987 414 40 39" preserveAspectRatio="xMinYMin meet"><svg width="4380" height="2430"><g><image crossorigin="anonymous" x="0" y="0" href="https://nftpuzzle.license-token.com/assets/completepuzzle.svg" width="100%" height="100%" /><g class="links"><use href="#t1720"/></g></g></svg><svg x="1012" y="438" height="9%" width="9%" viewBox="0 0 330 330"><g><a xlink:href="https://nftpuzzle.license-token.com/" class="links"><title>See the most innovative NFT based token software licensing project</title><path fill="#E4CF37" id="more" d="M165,0C74.019,0,0,74.019,0,165s74.019,165,165,165s165-74.019,165-165S255.981,0,165,0z M85,190 c-13.785,0-25-11.215-25-25s11.215-25,25-25s25,11.215,25,25S98.785,190,85,190z M165,190c-13.785,0-25-11.215-25-25 s11.215-25,25-25s25,11.215,25,25S178.785,190,165,190z M245,190c-13.785,0-25-11.215-25-25s11.215-25,25-25 c13.785,0,25,11.215,25,25S258.785,190,245,190z"></path></a></g></svg></svg></svg>