<svg version="1.1" xmlns="http://www.w3.org/2000/svg" xmlns:xlink="http://www.w3.org/1999/xlink" fill="transparent" x="0" y="0" width="350" height="350" preserveAspectRatio="xMinYMin slice"><style type="text/css">.links{fill:transparent;stroke: #E4CF37;}.links:hover{fill:#63D272; opacity:0.4;}</style><defs><g id="allt"><path id="t1724" d="M1155,416 L1144,417 C1134,418 1145,408 1136,407 C1128,406 1140,416 1131,416 L1122,416 1122,416 L1122,424 C1122,433 1114,421 1115,429 C1117,438 1122,428 1122,438 L1122,448 1122,448 L1131,448 C1140,448 1127,440 1136,441 C1145,443 1135,448 1145,448 L1155,448 1155,448 L1155,437 C1155,427 1141,440 1143,431 C1145,423 1155,436 1155,426 L1155,416"/></g><clipPath id="c" clipRule="evenodd" fill="transparent"><use href="#t1724"/></clipPath></defs><svg viewBox="1113 405 43 44" preserveAspectRatio="xMinYMin meet"><svg width="4380" height="2430"><g><image crossorigin="anonymous" x="0" y="0" href="https://nftpuzzle.license-token.com/assets/completepuzzle.svg" width="100%" height="100%" /><g class="links"><use href="#t1724"/></g></g></svg><svg x="1141" y="434" height="9%" width="9%" viewBox="0 0 330 330"><g><a xlink:href="https://nftpuzzle.license-token.com/" class="links"><title>See the most innovative NFT based token software licensing project</title><path fill="#E4CF37" id="more" d="M165,0C74.019,0,0,74.019,0,165s74.019,165,165,165s165-74.019,165-165S255.981,0,165,0z M85,190 c-13.785,0-25-11.215-25-25s11.215-25,25-25s25,11.215,25,25S98.785,190,85,190z M165,190c-13.785,0-25-11.215-25-25 s11.215-25,25-25s25,11.215,25,25S178.785,190,165,190z M245,190c-13.785,0-25-11.215-25-25s11.215-25,25-25 c13.785,0,25,11.215,25,25S258.785,190,245,190z"></path></a></g></svg></svg></svg>