<svg version="1.1" xmlns="http://www.w3.org/2000/svg" xmlns:xlink="http://www.w3.org/1999/xlink" fill="transparent" x="0" y="0" width="350" height="350" preserveAspectRatio="xMinYMin slice"><style type="text/css">.links{fill:transparent;stroke: #E4CF37;}.links:hover{fill:#63D272; opacity:0.4;}</style><defs><g id="allt"><path id="t1728" d="M1287,416 L1276,415 C1266,414 1281,421 1271,421 C1262,421 1273,412 1263,414 L1254,416 1254,416 L1254,425 C1254,434 1250,420 1250,430 C1250,441 1257,426 1255,437 L1254,448 1254,448 L1263,448 C1272,448 1258,444 1269,444 C1280,444 1265,451 1276,449 L1287,448 1287,448 L1287,438 C1288,429 1277,439 1277,431 C1278,423 1288,434 1287,425 L1287,416"/></g><clipPath id="c" clipRule="evenodd" fill="transparent"><use href="#t1728"/></clipPath></defs><svg viewBox="1249 411 40 41" preserveAspectRatio="xMinYMin meet"><svg width="4380" height="2430"><g><image crossorigin="anonymous" x="0" y="0" href="https://nftpuzzle.license-token.com/assets/completepuzzle.svg" width="100%" height="100%" /><g class="links"><use href="#t1728"/></g></g></svg><svg x="1274" y="437" height="9%" width="9%" viewBox="0 0 330 330"><g><a xlink:href="https://nftpuzzle.license-token.com/" class="links"><title>See the most innovative NFT based token software licensing project</title><path fill="#E4CF37" id="more" d="M165,0C74.019,0,0,74.019,0,165s74.019,165,165,165s165-74.019,165-165S255.981,0,165,0z M85,190 c-13.785,0-25-11.215-25-25s11.215-25,25-25s25,11.215,25,25S98.785,190,85,190z M165,190c-13.785,0-25-11.215-25-25 s11.215-25,25-25s25,11.215,25,25S178.785,190,165,190z M245,190c-13.785,0-25-11.215-25-25s11.215-25,25-25 c13.785,0,25,11.215,25,25S258.785,190,245,190z"></path></a></g></svg></svg></svg>