<svg version="1.1" xmlns="http://www.w3.org/2000/svg" xmlns:xlink="http://www.w3.org/1999/xlink" fill="transparent" x="0" y="0" width="350" height="350" preserveAspectRatio="xMinYMin slice"><style type="text/css">.links{fill:transparent;stroke: #E4CF37;}.links:hover{fill:#63D272; opacity:0.4;}</style><defs><g id="allt"><path id="t174" d="M1485,32 L1475,32 C1465,32 1478,22 1469,24 C1461,26 1471,32 1461,32 L1452,32 1452,32 L1452,40 C1452,49 1443,37 1445,47 C1447,58 1452,42 1452,53 L1452,64 1452,64 L1461,64 C1470,64 1457,55 1468,57 C1479,59 1462,64 1473,64 L1485,64 1485,64 L1485,54 C1485,44 1490,55 1492,47 C1494,40 1485,50 1485,41 L1485,32"/></g><clipPath id="c" clipRule="evenodd" fill="transparent"><use href="#t174"/></clipPath></defs><svg viewBox="1442 21 53 44" preserveAspectRatio="xMinYMin meet"><svg width="4380" height="2430"><g><image crossorigin="anonymous" x="0" y="0" href="https://nftpuzzle.license-token.com/assets/completepuzzle.svg" width="100%" height="100%" /><g class="links"><use href="#t174"/></g></g></svg><svg x="1480" y="50" height="9%" width="9%" viewBox="0 0 330 330"><g><a xlink:href="https://nftpuzzle.license-token.com/" class="links"><title>See the most innovative NFT based token software licensing project</title><path fill="#E4CF37" id="more" d="M165,0C74.019,0,0,74.019,0,165s74.019,165,165,165s165-74.019,165-165S255.981,0,165,0z M85,190 c-13.785,0-25-11.215-25-25s11.215-25,25-25s25,11.215,25,25S98.785,190,85,190z M165,190c-13.785,0-25-11.215-25-25 s11.215-25,25-25s25,11.215,25,25S178.785,190,165,190z M245,190c-13.785,0-25-11.215-25-25s11.215-25,25-25 c13.785,0,25,11.215,25,25S258.785,190,245,190z"></path></a></g></svg></svg></svg>