<svg version="1.1" xmlns="http://www.w3.org/2000/svg" xmlns:xlink="http://www.w3.org/1999/xlink" fill="transparent" x="0" y="0" width="350" height="350" preserveAspectRatio="xMinYMin slice"><style type="text/css">.links{fill:transparent;stroke: #E4CF37;}.links:hover{fill:#63D272; opacity:0.4;}</style><defs><g id="allt"><path id="t1740" d="M1683,416 L1672,417 C1661,418 1677,414 1666,413 C1655,413 1669,416 1659,416 L1650,416 1650,416 L1650,426 C1650,437 1646,421 1647,431 C1648,441 1650,428 1650,438 L1650,448 1650,448 L1661,448 C1672,448 1655,444 1665,445 C1676,446 1662,448 1672,448 L1683,448 1683,448 L1683,438 C1683,429 1681,439 1679,430 C1678,421 1685,433 1684,424 L1683,416"/></g><clipPath id="c" clipRule="evenodd" fill="transparent"><use href="#t1740"/></clipPath></defs><svg viewBox="1645 412 41 37" preserveAspectRatio="xMinYMin meet"><svg width="4380" height="2430"><g><image crossorigin="anonymous" x="0" y="0" href="https://nftpuzzle.license-token.com/assets/completepuzzle.svg" width="100%" height="100%" /><g class="links"><use href="#t1740"/></g></g></svg><svg x="1671" y="434" height="9%" width="9%" viewBox="0 0 330 330"><g><a xlink:href="https://nftpuzzle.license-token.com/" class="links"><title>See the most innovative NFT based token software licensing project</title><path fill="#E4CF37" id="more" d="M165,0C74.019,0,0,74.019,0,165s74.019,165,165,165s165-74.019,165-165S255.981,0,165,0z M85,190 c-13.785,0-25-11.215-25-25s11.215-25,25-25s25,11.215,25,25S98.785,190,85,190z M165,190c-13.785,0-25-11.215-25-25 s11.215-25,25-25s25,11.215,25,25S178.785,190,165,190z M245,190c-13.785,0-25-11.215-25-25s11.215-25,25-25 c13.785,0,25,11.215,25,25S258.785,190,245,190z"></path></a></g></svg></svg></svg>