<svg version="1.1" xmlns="http://www.w3.org/2000/svg" xmlns:xlink="http://www.w3.org/1999/xlink" fill="transparent" x="0" y="0" width="350" height="350" preserveAspectRatio="xMinYMin slice"><style type="text/css">.links{fill:transparent;stroke: #E4CF37;}.links:hover{fill:#63D272; opacity:0.4;}</style><defs><g id="allt"><path id="t1741" d="M1716,416 L1706,416 C1697,416 1707,421 1699,421 C1692,422 1703,416 1693,416 L1683,416 1683,416 L1684,424 C1685,433 1678,421 1679,430 C1681,439 1683,429 1683,438 L1683,448 1683,448 L1692,449 C1701,450 1688,443 1697,444 C1707,446 1696,448 1706,448 L1716,448 1716,448 L1716,438 C1717,429 1714,443 1713,432 C1713,422 1716,435 1716,425 L1716,416"/></g><clipPath id="c" clipRule="evenodd" fill="transparent"><use href="#t1741"/></clipPath></defs><svg viewBox="1677 415 41 36" preserveAspectRatio="xMinYMin meet"><svg width="4380" height="2430"><g><image crossorigin="anonymous" x="0" y="0" href="https://nftpuzzle.license-token.com/assets/completepuzzle.svg" width="100%" height="100%" /><g class="links"><use href="#t1741"/></g></g></svg><svg x="1703" y="436" height="9%" width="9%" viewBox="0 0 330 330"><g><a xlink:href="https://nftpuzzle.license-token.com/" class="links"><title>See the most innovative NFT based token software licensing project</title><path fill="#E4CF37" id="more" d="M165,0C74.019,0,0,74.019,0,165s74.019,165,165,165s165-74.019,165-165S255.981,0,165,0z M85,190 c-13.785,0-25-11.215-25-25s11.215-25,25-25s25,11.215,25,25S98.785,190,85,190z M165,190c-13.785,0-25-11.215-25-25 s11.215-25,25-25s25,11.215,25,25S178.785,190,165,190z M245,190c-13.785,0-25-11.215-25-25s11.215-25,25-25 c13.785,0,25,11.215,25,25S258.785,190,245,190z"></path></a></g></svg></svg></svg>