<svg version="1.1" xmlns="http://www.w3.org/2000/svg" xmlns:xlink="http://www.w3.org/1999/xlink" fill="transparent" x="0" y="0" width="350" height="350" preserveAspectRatio="xMinYMin slice"><style type="text/css">.links{fill:transparent;stroke: #E4CF37;}.links:hover{fill:#63D272; opacity:0.4;}</style><defs><g id="allt"><path id="t1742" d="M1749,416 L1738,414 C1728,412 1742,425 1733,425 C1724,425 1737,415 1726,415 L1716,416 1716,416 L1716,425 C1716,435 1713,422 1713,432 C1714,443 1717,429 1716,438 L1716,448 1716,448 L1726,448 C1736,448 1722,445 1733,445 C1744,446 1730,449 1739,448 L1749,448 1749,448 L1749,437 C1749,427 1743,442 1743,432 C1744,422 1752,433 1750,424 L1749,416"/></g><clipPath id="c" clipRule="evenodd" fill="transparent"><use href="#t1742"/></clipPath></defs><svg viewBox="1712 411 41 39" preserveAspectRatio="xMinYMin meet"><svg width="4380" height="2430"><g><image crossorigin="anonymous" x="0" y="0" href="https://nftpuzzle.license-token.com/assets/completepuzzle.svg" width="100%" height="100%" /><g class="links"><use href="#t1742"/></g></g></svg><svg x="1738" y="435" height="9%" width="9%" viewBox="0 0 330 330"><g><a xlink:href="https://nftpuzzle.license-token.com/" class="links"><title>See the most innovative NFT based token software licensing project</title><path fill="#E4CF37" id="more" d="M165,0C74.019,0,0,74.019,0,165s74.019,165,165,165s165-74.019,165-165S255.981,0,165,0z M85,190 c-13.785,0-25-11.215-25-25s11.215-25,25-25s25,11.215,25,25S98.785,190,85,190z M165,190c-13.785,0-25-11.215-25-25 s11.215-25,25-25s25,11.215,25,25S178.785,190,165,190z M245,190c-13.785,0-25-11.215-25-25s11.215-25,25-25 c13.785,0,25,11.215,25,25S258.785,190,245,190z"></path></a></g></svg></svg></svg>