<svg version="1.1" xmlns="http://www.w3.org/2000/svg" xmlns:xlink="http://www.w3.org/1999/xlink" fill="transparent" x="0" y="0" width="350" height="350" preserveAspectRatio="xMinYMin slice"><style type="text/css">.links{fill:transparent;stroke: #E4CF37;}.links:hover{fill:#63D272; opacity:0.4;}</style><defs><g id="allt"><path id="t1744" d="M1815,416 L1805,417 C1795,418 1806,409 1798,407 C1791,405 1802,416 1792,416 L1782,416 1782,416 L1783,425 C1784,435 1775,422 1773,432 C1772,442 1782,426 1782,437 L1782,448 1782,448 L1792,449 C1802,450 1788,441 1798,439 C1809,438 1793,448 1804,448 L1815,448 1815,448 L1815,438 C1815,429 1807,438 1808,430 C1810,422 1816,436 1815,426 L1815,416"/></g><clipPath id="c" clipRule="evenodd" fill="transparent"><use href="#t1744"/></clipPath></defs><svg viewBox="1771 404 46 47" preserveAspectRatio="xMinYMin meet"><svg width="4380" height="2430"><g><image crossorigin="anonymous" x="0" y="0" href="https://nftpuzzle.license-token.com/assets/completepuzzle.svg" width="100%" height="100%" /><g class="links"><use href="#t1744"/></g></g></svg><svg x="1802" y="436" height="9%" width="9%" viewBox="0 0 330 330"><g><a xlink:href="https://nftpuzzle.license-token.com/" class="links"><title>See the most innovative NFT based token software licensing project</title><path fill="#E4CF37" id="more" d="M165,0C74.019,0,0,74.019,0,165s74.019,165,165,165s165-74.019,165-165S255.981,0,165,0z M85,190 c-13.785,0-25-11.215-25-25s11.215-25,25-25s25,11.215,25,25S98.785,190,85,190z M165,190c-13.785,0-25-11.215-25-25 s11.215-25,25-25s25,11.215,25,25S178.785,190,165,190z M245,190c-13.785,0-25-11.215-25-25s11.215-25,25-25 c13.785,0,25,11.215,25,25S258.785,190,245,190z"></path></a></g></svg></svg></svg>