<svg version="1.1" xmlns="http://www.w3.org/2000/svg" xmlns:xlink="http://www.w3.org/1999/xlink" fill="transparent" x="0" y="0" width="350" height="350" preserveAspectRatio="xMinYMin slice"><style type="text/css">.links{fill:transparent;stroke: #E4CF37;}.links:hover{fill:#63D272; opacity:0.4;}</style><defs><g id="allt"><path id="t1749" d="M1980,416 L1970,417 C1960,418 1973,413 1963,411 C1954,410 1965,416 1956,416 L1947,416 1947,416 L1947,425 C1947,434 1952,424 1952,431 C1953,439 1945,428 1946,438 L1947,448 1947,448 L1956,448 C1966,448 1956,453 1963,453 C1971,454 1959,446 1969,447 L1980,448 1980,448 L1980,438 C1980,429 1977,441 1976,432 C1975,424 1981,433 1980,424 L1980,416"/></g><clipPath id="c" clipRule="evenodd" fill="transparent"><use href="#t1749"/></clipPath></defs><svg viewBox="1944 409 38 46" preserveAspectRatio="xMinYMin meet"><svg width="4380" height="2430"><g><image crossorigin="anonymous" x="0" y="0" href="https://nftpuzzle.license-token.com/assets/completepuzzle.svg" width="100%" height="100%" /><g class="links"><use href="#t1749"/></g></g></svg><svg x="1967" y="440" height="9%" width="9%" viewBox="0 0 330 330"><g><a xlink:href="https://nftpuzzle.license-token.com/" class="links"><title>See the most innovative NFT based token software licensing project</title><path fill="#E4CF37" id="more" d="M165,0C74.019,0,0,74.019,0,165s74.019,165,165,165s165-74.019,165-165S255.981,0,165,0z M85,190 c-13.785,0-25-11.215-25-25s11.215-25,25-25s25,11.215,25,25S98.785,190,85,190z M165,190c-13.785,0-25-11.215-25-25 s11.215-25,25-25s25,11.215,25,25S178.785,190,165,190z M245,190c-13.785,0-25-11.215-25-25s11.215-25,25-25 c13.785,0,25,11.215,25,25S258.785,190,245,190z"></path></a></g></svg></svg></svg>