<svg version="1.1" xmlns="http://www.w3.org/2000/svg" xmlns:xlink="http://www.w3.org/1999/xlink" fill="transparent" x="0" y="0" width="350" height="350" preserveAspectRatio="xMinYMin slice"><style type="text/css">.links{fill:transparent;stroke: #E4CF37;}.links:hover{fill:#63D272; opacity:0.4;}</style><defs><g id="allt"><path id="t1750" d="M2013,416 L2002,416 C1991,416 2004,410 1995,411 C1987,413 2002,416 1991,416 L1980,416 1980,416 L1980,424 C1981,433 1975,424 1976,432 C1977,441 1980,429 1980,438 L1980,448 1980,448 L1989,448 C1998,449 1989,443 1997,444 C2006,445 1994,448 2003,448 L2013,448 2013,448 L2013,437 C2013,427 2021,441 2022,432 C2024,423 2013,437 2013,426 L2013,416"/></g><clipPath id="c" clipRule="evenodd" fill="transparent"><use href="#t1750"/></clipPath></defs><svg viewBox="1974 409 51 41" preserveAspectRatio="xMinYMin meet"><svg width="4380" height="2430"><g><image crossorigin="anonymous" x="0" y="0" href="https://nftpuzzle.license-token.com/assets/completepuzzle.svg" width="100%" height="100%" /><g class="links"><use href="#t1750"/></g></g></svg><svg x="2010" y="435" height="9%" width="9%" viewBox="0 0 330 330"><g><a xlink:href="https://nftpuzzle.license-token.com/" class="links"><title>See the most innovative NFT based token software licensing project</title><path fill="#E4CF37" id="more" d="M165,0C74.019,0,0,74.019,0,165s74.019,165,165,165s165-74.019,165-165S255.981,0,165,0z M85,190 c-13.785,0-25-11.215-25-25s11.215-25,25-25s25,11.215,25,25S98.785,190,85,190z M165,190c-13.785,0-25-11.215-25-25 s11.215-25,25-25s25,11.215,25,25S178.785,190,165,190z M245,190c-13.785,0-25-11.215-25-25s11.215-25,25-25 c13.785,0,25,11.215,25,25S258.785,190,245,190z"></path></a></g></svg></svg></svg>