<svg version="1.1" xmlns="http://www.w3.org/2000/svg" xmlns:xlink="http://www.w3.org/1999/xlink" fill="transparent" x="0" y="0" width="350" height="350" preserveAspectRatio="xMinYMin slice"><style type="text/css">.links{fill:transparent;stroke: #E4CF37;}.links:hover{fill:#63D272; opacity:0.4;}</style><defs><g id="allt"><path id="t1752" d="M2079,416 L2068,417 C2058,419 2069,405 2059,407 C2050,410 2064,416 2055,416 L2046,416 2046,416 L2046,425 C2046,435 2044,425 2044,434 C2044,443 2046,428 2046,438 L2046,448 2046,448 L2055,448 C2065,448 2055,446 2064,446 C2074,446 2059,448 2069,448 L2079,448 2079,448 L2081,437 C2084,427 2068,438 2069,430 C2070,423 2083,436 2081,426 L2079,416"/></g><clipPath id="c" clipRule="evenodd" fill="transparent"><use href="#t1752"/></clipPath></defs><svg viewBox="2043 404 42 45" preserveAspectRatio="xMinYMin meet"><svg width="4380" height="2430"><g><image crossorigin="anonymous" x="0" y="0" href="https://nftpuzzle.license-token.com/assets/completepuzzle.svg" width="100%" height="100%" /><g class="links"><use href="#t1752"/></g></g></svg><svg x="2070" y="434" height="9%" width="9%" viewBox="0 0 330 330"><g><a xlink:href="https://nftpuzzle.license-token.com/" class="links"><title>See the most innovative NFT based token software licensing project</title><path fill="#E4CF37" id="more" d="M165,0C74.019,0,0,74.019,0,165s74.019,165,165,165s165-74.019,165-165S255.981,0,165,0z M85,190 c-13.785,0-25-11.215-25-25s11.215-25,25-25s25,11.215,25,25S98.785,190,85,190z M165,190c-13.785,0-25-11.215-25-25 s11.215-25,25-25s25,11.215,25,25S178.785,190,165,190z M245,190c-13.785,0-25-11.215-25-25s11.215-25,25-25 c13.785,0,25,11.215,25,25S258.785,190,245,190z"></path></a></g></svg></svg></svg>