<svg version="1.1" xmlns="http://www.w3.org/2000/svg" xmlns:xlink="http://www.w3.org/1999/xlink" fill="transparent" x="0" y="0" width="350" height="350" preserveAspectRatio="xMinYMin slice"><style type="text/css">.links{fill:transparent;stroke: #E4CF37;}.links:hover{fill:#63D272; opacity:0.4;}</style><defs><g id="allt"><path id="t1763" d="M2442,416 L2431,416 C2421,416 2434,407 2426,408 C2418,410 2430,420 2419,418 L2409,416 2409,416 L2409,425 C2410,434 2406,423 2404,431 C2403,439 2409,429 2409,438 L2409,448 2409,448 L2418,448 C2428,449 2416,445 2424,443 C2432,442 2422,448 2432,448 L2442,448 2442,448 L2443,437 C2444,427 2435,438 2437,429 C2439,420 2442,436 2442,426 L2442,416"/></g><clipPath id="c" clipRule="evenodd" fill="transparent"><use href="#t1763"/></clipPath></defs><svg viewBox="2402 406 43 44" preserveAspectRatio="xMinYMin meet"><svg width="4380" height="2430"><g><image crossorigin="anonymous" x="0" y="0" href="https://nftpuzzle.license-token.com/assets/completepuzzle.svg" width="100%" height="100%" /><g class="links"><use href="#t1763"/></g></g></svg><svg x="2430" y="435" height="9%" width="9%" viewBox="0 0 330 330"><g><a xlink:href="https://nftpuzzle.license-token.com/" class="links"><title>See the most innovative NFT based token software licensing project</title><path fill="#E4CF37" id="more" d="M165,0C74.019,0,0,74.019,0,165s74.019,165,165,165s165-74.019,165-165S255.981,0,165,0z M85,190 c-13.785,0-25-11.215-25-25s11.215-25,25-25s25,11.215,25,25S98.785,190,85,190z M165,190c-13.785,0-25-11.215-25-25 s11.215-25,25-25s25,11.215,25,25S178.785,190,165,190z M245,190c-13.785,0-25-11.215-25-25s11.215-25,25-25 c13.785,0,25,11.215,25,25S258.785,190,245,190z"></path></a></g></svg></svg></svg>