<svg version="1.1" xmlns="http://www.w3.org/2000/svg" xmlns:xlink="http://www.w3.org/1999/xlink" fill="transparent" x="0" y="0" width="350" height="350" preserveAspectRatio="xMinYMin slice"><style type="text/css">.links{fill:transparent;stroke: #E4CF37;}.links:hover{fill:#63D272; opacity:0.4;}</style><defs><g id="allt"><path id="t1769" d="M2640,416 L2629,415 C2619,415 2630,419 2620,419 C2611,420 2628,416 2617,416 L2607,416 2607,416 L2607,425 C2607,434 2601,423 2599,431 C2598,440 2611,429 2609,438 L2607,448 2607,448 L2616,448 C2626,448 2614,442 2622,440 C2631,439 2620,452 2630,450 L2640,448 2640,448 L2640,439 C2640,430 2637,438 2636,430 C2635,423 2641,436 2640,426 L2640,416"/></g><clipPath id="c" clipRule="evenodd" fill="transparent"><use href="#t1769"/></clipPath></defs><svg viewBox="2597 414 45 39" preserveAspectRatio="xMinYMin meet"><svg width="4380" height="2430"><g><image crossorigin="anonymous" x="0" y="0" href="https://nftpuzzle.license-token.com/assets/completepuzzle.svg" width="100%" height="100%" /><g class="links"><use href="#t1769"/></g></g></svg><svg x="2627" y="438" height="9%" width="9%" viewBox="0 0 330 330"><g><a xlink:href="https://nftpuzzle.license-token.com/" class="links"><title>See the most innovative NFT based token software licensing project</title><path fill="#E4CF37" id="more" d="M165,0C74.019,0,0,74.019,0,165s74.019,165,165,165s165-74.019,165-165S255.981,0,165,0z M85,190 c-13.785,0-25-11.215-25-25s11.215-25,25-25s25,11.215,25,25S98.785,190,85,190z M165,190c-13.785,0-25-11.215-25-25 s11.215-25,25-25s25,11.215,25,25S178.785,190,165,190z M245,190c-13.785,0-25-11.215-25-25s11.215-25,25-25 c13.785,0,25,11.215,25,25S258.785,190,245,190z"></path></a></g></svg></svg></svg>