<svg version="1.1" xmlns="http://www.w3.org/2000/svg" xmlns:xlink="http://www.w3.org/1999/xlink" fill="transparent" x="0" y="0" width="350" height="350" preserveAspectRatio="xMinYMin slice"><style type="text/css">.links{fill:transparent;stroke: #E4CF37;}.links:hover{fill:#63D272; opacity:0.4;}</style><defs><g id="allt"><path id="t177" d="M1584,32 L1573,32 C1563,32 1574,21 1565,22 C1556,24 1570,32 1560,32 L1551,32 1551,32 L1551,40 C1552,49 1545,40 1545,48 C1545,56 1552,43 1551,53 L1551,64 1551,64 L1560,64 C1569,65 1560,58 1568,58 C1576,58 1563,65 1573,64 L1584,64 1584,64 L1584,54 C1585,45 1579,56 1580,48 C1581,40 1585,49 1584,40 L1584,32"/></g><clipPath id="c" clipRule="evenodd" fill="transparent"><use href="#t177"/></clipPath></defs><svg viewBox="1544 20 42 46" preserveAspectRatio="xMinYMin meet"><svg width="4380" height="2430"><g><image crossorigin="anonymous" x="0" y="0" href="https://nftpuzzle.license-token.com/assets/completepuzzle.svg" width="100%" height="100%" /><g class="links"><use href="#t177"/></g></g></svg><svg x="1571" y="51" height="9%" width="9%" viewBox="0 0 330 330"><g><a xlink:href="https://nftpuzzle.license-token.com/" class="links"><title>See the most innovative NFT based token software licensing project</title><path fill="#E4CF37" id="more" d="M165,0C74.019,0,0,74.019,0,165s74.019,165,165,165s165-74.019,165-165S255.981,0,165,0z M85,190 c-13.785,0-25-11.215-25-25s11.215-25,25-25s25,11.215,25,25S98.785,190,85,190z M165,190c-13.785,0-25-11.215-25-25 s11.215-25,25-25s25,11.215,25,25S178.785,190,165,190z M245,190c-13.785,0-25-11.215-25-25s11.215-25,25-25 c13.785,0,25,11.215,25,25S258.785,190,245,190z"></path></a></g></svg></svg></svg>