<svg version="1.1" xmlns="http://www.w3.org/2000/svg" xmlns:xlink="http://www.w3.org/1999/xlink" fill="transparent" x="0" y="0" width="350" height="350" preserveAspectRatio="xMinYMin slice"><style type="text/css">.links{fill:transparent;stroke: #E4CF37;}.links:hover{fill:#63D272; opacity:0.4;}</style><defs><g id="allt"><path id="t1771" d="M2706,416 L2695,416 C2685,416 2699,420 2690,420 C2681,421 2691,416 2682,416 L2673,416 2673,416 L2673,425 C2674,434 2666,422 2663,430 C2661,438 2677,429 2675,438 L2673,448 2673,448 L2682,448 C2692,449 2679,441 2687,439 C2696,437 2687,452 2696,450 L2706,448 2706,448 L2708,439 C2710,430 2698,439 2697,431 C2697,424 2710,436 2708,426 L2706,416"/></g><clipPath id="c" clipRule="evenodd" fill="transparent"><use href="#t1771"/></clipPath></defs><svg viewBox="2660 415 51 38" preserveAspectRatio="xMinYMin meet"><svg width="4380" height="2430"><g><image crossorigin="anonymous" x="0" y="0" href="https://nftpuzzle.license-token.com/assets/completepuzzle.svg" width="100%" height="100%" /><g class="links"><use href="#t1771"/></g></g></svg><svg x="2696" y="438" height="9%" width="9%" viewBox="0 0 330 330"><g><a xlink:href="https://nftpuzzle.license-token.com/" class="links"><title>See the most innovative NFT based token software licensing project</title><path fill="#E4CF37" id="more" d="M165,0C74.019,0,0,74.019,0,165s74.019,165,165,165s165-74.019,165-165S255.981,0,165,0z M85,190 c-13.785,0-25-11.215-25-25s11.215-25,25-25s25,11.215,25,25S98.785,190,85,190z M165,190c-13.785,0-25-11.215-25-25 s11.215-25,25-25s25,11.215,25,25S178.785,190,165,190z M245,190c-13.785,0-25-11.215-25-25s11.215-25,25-25 c13.785,0,25,11.215,25,25S258.785,190,245,190z"></path></a></g></svg></svg></svg>