<svg version="1.1" xmlns="http://www.w3.org/2000/svg" xmlns:xlink="http://www.w3.org/1999/xlink" fill="transparent" x="0" y="0" width="350" height="350" preserveAspectRatio="xMinYMin slice"><style type="text/css">.links{fill:transparent;stroke: #E4CF37;}.links:hover{fill:#63D272; opacity:0.4;}</style><defs><g id="allt"><path id="t1774" d="M2805,416 L2793,416 C2782,416 2799,422 2789,423 C2780,424 2791,416 2781,416 L2772,416 2772,416 L2773,424 C2775,433 2767,425 2767,433 C2767,442 2774,427 2773,437 L2772,448 2772,448 L2781,449 C2790,451 2781,443 2790,443 C2799,443 2783,450 2794,449 L2805,448 2805,448 L2803,437 C2802,427 2810,442 2810,432 C2811,422 2805,437 2805,426 L2805,416"/></g><clipPath id="c" clipRule="evenodd" fill="transparent"><use href="#t1774"/></clipPath></defs><svg viewBox="2766 415 46 37" preserveAspectRatio="xMinYMin meet"><svg width="4380" height="2430"><g><image crossorigin="anonymous" x="0" y="0" href="https://nftpuzzle.license-token.com/assets/completepuzzle.svg" width="100%" height="100%" /><g class="links"><use href="#t1774"/></g></g></svg><svg x="2797" y="437" height="9%" width="9%" viewBox="0 0 330 330"><g><a xlink:href="https://nftpuzzle.license-token.com/" class="links"><title>See the most innovative NFT based token software licensing project</title><path fill="#E4CF37" id="more" d="M165,0C74.019,0,0,74.019,0,165s74.019,165,165,165s165-74.019,165-165S255.981,0,165,0z M85,190 c-13.785,0-25-11.215-25-25s11.215-25,25-25s25,11.215,25,25S98.785,190,85,190z M165,190c-13.785,0-25-11.215-25-25 s11.215-25,25-25s25,11.215,25,25S178.785,190,165,190z M245,190c-13.785,0-25-11.215-25-25s11.215-25,25-25 c13.785,0,25,11.215,25,25S258.785,190,245,190z"></path></a></g></svg></svg></svg>