<svg version="1.1" xmlns="http://www.w3.org/2000/svg" xmlns:xlink="http://www.w3.org/1999/xlink" fill="transparent" x="0" y="0" width="350" height="350" preserveAspectRatio="xMinYMin slice"><style type="text/css">.links{fill:transparent;stroke: #E4CF37;}.links:hover{fill:#63D272; opacity:0.4;}</style><defs><g id="allt"><path id="t1775" d="M2838,416 L2827,416 C2816,417 2832,413 2823,413 C2814,413 2825,418 2815,417 L2805,416 2805,416 L2805,426 C2805,437 2811,422 2810,432 C2810,442 2802,427 2803,437 L2805,448 2805,448 L2815,448 C2826,448 2811,454 2821,453 C2832,453 2817,445 2827,446 L2838,448 2838,448 L2839,439 C2840,430 2835,438 2835,430 C2836,422 2838,436 2838,426 L2838,416"/></g><clipPath id="c" clipRule="evenodd" fill="transparent"><use href="#t1775"/></clipPath></defs><svg viewBox="2801 412 40 43" preserveAspectRatio="xMinYMin meet"><svg width="4380" height="2430"><g><image crossorigin="anonymous" x="0" y="0" href="https://nftpuzzle.license-token.com/assets/completepuzzle.svg" width="100%" height="100%" /><g class="links"><use href="#t1775"/></g></g></svg><svg x="2826" y="440" height="9%" width="9%" viewBox="0 0 330 330"><g><a xlink:href="https://nftpuzzle.license-token.com/" class="links"><title>See the most innovative NFT based token software licensing project</title><path fill="#E4CF37" id="more" d="M165,0C74.019,0,0,74.019,0,165s74.019,165,165,165s165-74.019,165-165S255.981,0,165,0z M85,190 c-13.785,0-25-11.215-25-25s11.215-25,25-25s25,11.215,25,25S98.785,190,85,190z M165,190c-13.785,0-25-11.215-25-25 s11.215-25,25-25s25,11.215,25,25S178.785,190,165,190z M245,190c-13.785,0-25-11.215-25-25s11.215-25,25-25 c13.785,0,25,11.215,25,25S258.785,190,245,190z"></path></a></g></svg></svg></svg>