<svg version="1.1" xmlns="http://www.w3.org/2000/svg" xmlns:xlink="http://www.w3.org/1999/xlink" fill="transparent" x="0" y="0" width="350" height="350" preserveAspectRatio="xMinYMin slice"><style type="text/css">.links{fill:transparent;stroke: #E4CF37;}.links:hover{fill:#63D272; opacity:0.4;}</style><defs><g id="allt"><path id="t1783" d="M3102,416 L3092,414 C3082,413 3096,422 3085,422 C3074,423 3090,416 3079,416 L3069,416 3069,416 L3069,425 C3069,435 3064,422 3064,431 C3064,440 3069,430 3069,439 L3069,448 3069,448 L3078,448 C3088,448 3075,443 3084,443 C3094,443 3083,448 3092,448 L3102,448 3102,448 L3103,437 C3105,427 3097,442 3097,432 C3097,422 3102,434 3102,425 L3102,416"/></g><clipPath id="c" clipRule="evenodd" fill="transparent"><use href="#t1783"/></clipPath></defs><svg viewBox="3063 412 43 37" preserveAspectRatio="xMinYMin meet"><svg width="4380" height="2430"><g><image crossorigin="anonymous" x="0" y="0" href="https://nftpuzzle.license-token.com/assets/completepuzzle.svg" width="100%" height="100%" /><g class="links"><use href="#t1783"/></g></g></svg><svg x="3091" y="434" height="9%" width="9%" viewBox="0 0 330 330"><g><a xlink:href="https://nftpuzzle.license-token.com/" class="links"><title>See the most innovative NFT based token software licensing project</title><path fill="#E4CF37" id="more" d="M165,0C74.019,0,0,74.019,0,165s74.019,165,165,165s165-74.019,165-165S255.981,0,165,0z M85,190 c-13.785,0-25-11.215-25-25s11.215-25,25-25s25,11.215,25,25S98.785,190,85,190z M165,190c-13.785,0-25-11.215-25-25 s11.215-25,25-25s25,11.215,25,25S178.785,190,165,190z M245,190c-13.785,0-25-11.215-25-25s11.215-25,25-25 c13.785,0,25,11.215,25,25S258.785,190,245,190z"></path></a></g></svg></svg></svg>