<svg version="1.1" xmlns="http://www.w3.org/2000/svg" xmlns:xlink="http://www.w3.org/1999/xlink" fill="transparent" x="0" y="0" width="350" height="350" preserveAspectRatio="xMinYMin slice"><style type="text/css">.links{fill:transparent;stroke: #E4CF37;}.links:hover{fill:#63D272; opacity:0.4;}</style><defs><g id="allt"><path id="t1784" d="M3135,416 L3124,415 C3114,415 3128,420 3117,419 C3107,419 3121,413 3111,414 L3102,416 3102,416 L3102,425 C3102,434 3097,422 3097,432 C3097,442 3105,427 3103,437 L3102,448 3102,448 L3111,448 C3121,448 3108,443 3118,443 C3129,443 3114,451 3124,449 L3135,448 3135,448 L3135,437 C3135,426 3138,440 3139,431 C3141,422 3135,434 3135,425 L3135,416"/></g><clipPath id="c" clipRule="evenodd" fill="transparent"><use href="#t1784"/></clipPath></defs><svg viewBox="3096 412 46 40" preserveAspectRatio="xMinYMin meet"><svg width="4380" height="2430"><g><image crossorigin="anonymous" x="0" y="0" href="https://nftpuzzle.license-token.com/assets/completepuzzle.svg" width="100%" height="100%" /><g class="links"><use href="#t1784"/></g></g></svg><svg x="3127" y="437" height="9%" width="9%" viewBox="0 0 330 330"><g><a xlink:href="https://nftpuzzle.license-token.com/" class="links"><title>See the most innovative NFT based token software licensing project</title><path fill="#E4CF37" id="more" d="M165,0C74.019,0,0,74.019,0,165s74.019,165,165,165s165-74.019,165-165S255.981,0,165,0z M85,190 c-13.785,0-25-11.215-25-25s11.215-25,25-25s25,11.215,25,25S98.785,190,85,190z M165,190c-13.785,0-25-11.215-25-25 s11.215-25,25-25s25,11.215,25,25S178.785,190,165,190z M245,190c-13.785,0-25-11.215-25-25s11.215-25,25-25 c13.785,0,25,11.215,25,25S258.785,190,245,190z"></path></a></g></svg></svg></svg>