<svg version="1.1" xmlns="http://www.w3.org/2000/svg" xmlns:xlink="http://www.w3.org/1999/xlink" fill="transparent" x="0" y="0" width="350" height="350" preserveAspectRatio="xMinYMin slice"><style type="text/css">.links{fill:transparent;stroke: #E4CF37;}.links:hover{fill:#63D272; opacity:0.4;}</style><defs><g id="allt"><path id="t1791" d="M3366,416 L3354,417 C3343,419 3359,407 3349,407 C3340,408 3354,419 3343,417 L3333,416 3333,416 L3334,424 C3336,433 3327,421 3324,431 C3322,441 3336,426 3334,437 L3333,448 3333,448 L3342,449 C3351,451 3338,442 3348,440 C3359,438 3343,451 3354,449 L3366,448 3366,448 L3367,438 C3368,428 3353,442 3356,433 C3360,425 3367,433 3366,424 L3366,416"/></g><clipPath id="c" clipRule="evenodd" fill="transparent"><use href="#t1791"/></clipPath></defs><svg viewBox="3321 406 48 46" preserveAspectRatio="xMinYMin meet"><svg width="4380" height="2430"><g><image crossorigin="anonymous" x="0" y="0" href="https://nftpuzzle.license-token.com/assets/completepuzzle.svg" width="100%" height="100%" /><g class="links"><use href="#t1791"/></g></g></svg><svg x="3354" y="437" height="9%" width="9%" viewBox="0 0 330 330"><g><a xlink:href="https://nftpuzzle.license-token.com/" class="links"><title>See the most innovative NFT based token software licensing project</title><path fill="#E4CF37" id="more" d="M165,0C74.019,0,0,74.019,0,165s74.019,165,165,165s165-74.019,165-165S255.981,0,165,0z M85,190 c-13.785,0-25-11.215-25-25s11.215-25,25-25s25,11.215,25,25S98.785,190,85,190z M165,190c-13.785,0-25-11.215-25-25 s11.215-25,25-25s25,11.215,25,25S178.785,190,165,190z M245,190c-13.785,0-25-11.215-25-25s11.215-25,25-25 c13.785,0,25,11.215,25,25S258.785,190,245,190z"></path></a></g></svg></svg></svg>