<svg version="1.1" xmlns="http://www.w3.org/2000/svg" xmlns:xlink="http://www.w3.org/1999/xlink" fill="transparent" x="0" y="0" width="350" height="350" preserveAspectRatio="xMinYMin slice"><style type="text/css">.links{fill:transparent;stroke: #E4CF37;}.links:hover{fill:#63D272; opacity:0.4;}</style><defs><g id="allt"><path id="t1796" d="M3531,416 L3521,418 C3511,420 3525,407 3515,408 C3506,409 3517,416 3507,416 L3498,416 3498,416 L3498,425 C3498,435 3493,421 3493,429 C3494,438 3498,428 3498,438 L3498,448 3498,448 L3507,448 C3517,448 3503,443 3512,443 C3521,444 3510,448 3520,448 L3531,448 3531,448 L3531,437 C3531,426 3536,443 3537,432 C3538,422 3529,434 3530,425 L3531,416"/></g><clipPath id="c" clipRule="evenodd" fill="transparent"><use href="#t1796"/></clipPath></defs><svg viewBox="3492 406 47 43" preserveAspectRatio="xMinYMin meet"><svg width="4380" height="2430"><g><image crossorigin="anonymous" x="0" y="0" href="https://nftpuzzle.license-token.com/assets/completepuzzle.svg" width="100%" height="100%" /><g class="links"><use href="#t1796"/></g></g></svg><svg x="3524" y="434" height="9%" width="9%" viewBox="0 0 330 330"><g><a xlink:href="https://nftpuzzle.license-token.com/" class="links"><title>See the most innovative NFT based token software licensing project</title><path fill="#E4CF37" id="more" d="M165,0C74.019,0,0,74.019,0,165s74.019,165,165,165s165-74.019,165-165S255.981,0,165,0z M85,190 c-13.785,0-25-11.215-25-25s11.215-25,25-25s25,11.215,25,25S98.785,190,85,190z M165,190c-13.785,0-25-11.215-25-25 s11.215-25,25-25s25,11.215,25,25S178.785,190,165,190z M245,190c-13.785,0-25-11.215-25-25s11.215-25,25-25 c13.785,0,25,11.215,25,25S258.785,190,245,190z"></path></a></g></svg></svg></svg>