<svg version="1.1" xmlns="http://www.w3.org/2000/svg" xmlns:xlink="http://www.w3.org/1999/xlink" fill="transparent" x="0" y="0" width="350" height="350" preserveAspectRatio="xMinYMin slice"><style type="text/css">.links{fill:transparent;stroke: #E4CF37;}.links:hover{fill:#63D272; opacity:0.4;}</style><defs><g id="allt"><path id="t1797" d="M3564,416 L3554,415 C3545,414 3556,419 3546,419 C3537,420 3549,414 3540,415 L3531,416 3531,416 L3530,425 C3529,434 3538,422 3537,432 C3536,443 3531,426 3531,437 L3531,448 3531,448 L3540,447 C3550,446 3537,455 3548,454 C3559,453 3541,448 3552,448 L3564,448 3564,448 L3564,438 C3564,428 3556,440 3555,431 C3555,423 3564,436 3564,426 L3564,416"/></g><clipPath id="c" clipRule="evenodd" fill="transparent"><use href="#t1797"/></clipPath></defs><svg viewBox="3528 413 37 43" preserveAspectRatio="xMinYMin meet"><svg width="4380" height="2430"><g><image crossorigin="anonymous" x="0" y="0" href="https://nftpuzzle.license-token.com/assets/completepuzzle.svg" width="100%" height="100%" /><g class="links"><use href="#t1797"/></g></g></svg><svg x="3550" y="441" height="9%" width="9%" viewBox="0 0 330 330"><g><a xlink:href="https://nftpuzzle.license-token.com/" class="links"><title>See the most innovative NFT based token software licensing project</title><path fill="#E4CF37" id="more" d="M165,0C74.019,0,0,74.019,0,165s74.019,165,165,165s165-74.019,165-165S255.981,0,165,0z M85,190 c-13.785,0-25-11.215-25-25s11.215-25,25-25s25,11.215,25,25S98.785,190,85,190z M165,190c-13.785,0-25-11.215-25-25 s11.215-25,25-25s25,11.215,25,25S178.785,190,165,190z M245,190c-13.785,0-25-11.215-25-25s11.215-25,25-25 c13.785,0,25,11.215,25,25S258.785,190,245,190z"></path></a></g></svg></svg></svg>