<svg version="1.1" xmlns="http://www.w3.org/2000/svg" xmlns:xlink="http://www.w3.org/1999/xlink" fill="transparent" x="0" y="0" width="350" height="350" preserveAspectRatio="xMinYMin slice"><style type="text/css">.links{fill:transparent;stroke: #E4CF37;}.links:hover{fill:#63D272; opacity:0.4;}</style><defs><g id="allt"><path id="t1798" d="M3597,416 L3586,416 C3575,417 3587,410 3579,410 C3572,411 3585,418 3574,417 L3564,416 3564,416 L3564,426 C3564,436 3555,423 3555,431 C3556,440 3564,428 3564,438 L3564,448 3564,448 L3574,448 C3585,448 3571,440 3580,440 C3589,440 3577,448 3587,448 L3597,448 3597,448 L3597,437 C3597,427 3589,443 3590,434 C3591,425 3597,434 3597,425 L3597,416"/></g><clipPath id="c" clipRule="evenodd" fill="transparent"><use href="#t1798"/></clipPath></defs><svg viewBox="3554 409 44 40" preserveAspectRatio="xMinYMin meet"><svg width="4380" height="2430"><g><image crossorigin="anonymous" x="0" y="0" href="https://nftpuzzle.license-token.com/assets/completepuzzle.svg" width="100%" height="100%" /><g class="links"><use href="#t1798"/></g></g></svg><svg x="3583" y="434" height="9%" width="9%" viewBox="0 0 330 330"><g><a xlink:href="https://nftpuzzle.license-token.com/" class="links"><title>See the most innovative NFT based token software licensing project</title><path fill="#E4CF37" id="more" d="M165,0C74.019,0,0,74.019,0,165s74.019,165,165,165s165-74.019,165-165S255.981,0,165,0z M85,190 c-13.785,0-25-11.215-25-25s11.215-25,25-25s25,11.215,25,25S98.785,190,85,190z M165,190c-13.785,0-25-11.215-25-25 s11.215-25,25-25s25,11.215,25,25S178.785,190,165,190z M245,190c-13.785,0-25-11.215-25-25s11.215-25,25-25 c13.785,0,25,11.215,25,25S258.785,190,245,190z"></path></a></g></svg></svg></svg>