<svg version="1.1" xmlns="http://www.w3.org/2000/svg" xmlns:xlink="http://www.w3.org/1999/xlink" fill="transparent" x="0" y="0" width="350" height="350" preserveAspectRatio="xMinYMin slice"><style type="text/css">.links{fill:transparent;stroke: #E4CF37;}.links:hover{fill:#63D272; opacity:0.4;}</style><defs><g id="allt"><path id="t1803" d="M3762,416 L3752,416 C3742,416 3753,412 3744,410 C3735,409 3748,417 3738,416 L3729,416 3729,416 L3729,425 C3729,435 3725,421 3724,430 C3724,440 3729,429 3729,438 L3729,448 3729,448 L3739,448 C3749,448 3734,444 3743,443 C3753,443 3742,448 3752,448 L3762,448 3762,448 L3762,437 C3762,427 3766,440 3766,432 C3767,425 3759,434 3760,425 L3762,416"/></g><clipPath id="c" clipRule="evenodd" fill="transparent"><use href="#t1803"/></clipPath></defs><svg viewBox="3723 408 45 41" preserveAspectRatio="xMinYMin meet"><svg width="4380" height="2430"><g><image crossorigin="anonymous" x="0" y="0" href="https://nftpuzzle.license-token.com/assets/completepuzzle.svg" width="100%" height="100%" /><g class="links"><use href="#t1803"/></g></g></svg><svg x="3753" y="434" height="9%" width="9%" viewBox="0 0 330 330"><g><a xlink:href="https://nftpuzzle.license-token.com/" class="links"><title>See the most innovative NFT based token software licensing project</title><path fill="#E4CF37" id="more" d="M165,0C74.019,0,0,74.019,0,165s74.019,165,165,165s165-74.019,165-165S255.981,0,165,0z M85,190 c-13.785,0-25-11.215-25-25s11.215-25,25-25s25,11.215,25,25S98.785,190,85,190z M165,190c-13.785,0-25-11.215-25-25 s11.215-25,25-25s25,11.215,25,25S178.785,190,165,190z M245,190c-13.785,0-25-11.215-25-25s11.215-25,25-25 c13.785,0,25,11.215,25,25S258.785,190,245,190z"></path></a></g></svg></svg></svg>