<svg version="1.1" xmlns="http://www.w3.org/2000/svg" xmlns:xlink="http://www.w3.org/1999/xlink" fill="transparent" x="0" y="0" width="350" height="350" preserveAspectRatio="xMinYMin slice"><style type="text/css">.links{fill:transparent;stroke: #E4CF37;}.links:hover{fill:#63D272; opacity:0.4;}</style><defs><g id="allt"><path id="t1804" d="M3795,416 L3784,417 C3774,418 3785,410 3777,411 C3770,412 3781,417 3771,416 L3762,416 3762,416 L3760,425 C3759,434 3767,425 3766,432 C3766,440 3762,427 3762,437 L3762,448 3762,448 L3771,446 C3781,445 3771,453 3779,452 C3787,452 3773,448 3784,448 L3795,448 3795,448 L3795,437 C3795,427 3790,439 3789,431 C3789,424 3796,436 3795,426 L3795,416"/></g><clipPath id="c" clipRule="evenodd" fill="transparent"><use href="#t1804"/></clipPath></defs><svg viewBox="3758 409 39 45" preserveAspectRatio="xMinYMin meet"><svg width="4380" height="2430"><g><image crossorigin="anonymous" x="0" y="0" href="https://nftpuzzle.license-token.com/assets/completepuzzle.svg" width="100%" height="100%" /><g class="links"><use href="#t1804"/></g></g></svg><svg x="3782" y="439" height="9%" width="9%" viewBox="0 0 330 330"><g><a xlink:href="https://nftpuzzle.license-token.com/" class="links"><title>See the most innovative NFT based token software licensing project</title><path fill="#E4CF37" id="more" d="M165,0C74.019,0,0,74.019,0,165s74.019,165,165,165s165-74.019,165-165S255.981,0,165,0z M85,190 c-13.785,0-25-11.215-25-25s11.215-25,25-25s25,11.215,25,25S98.785,190,85,190z M165,190c-13.785,0-25-11.215-25-25 s11.215-25,25-25s25,11.215,25,25S178.785,190,165,190z M245,190c-13.785,0-25-11.215-25-25s11.215-25,25-25 c13.785,0,25,11.215,25,25S258.785,190,245,190z"></path></a></g></svg></svg></svg>