<svg version="1.1" xmlns="http://www.w3.org/2000/svg" xmlns:xlink="http://www.w3.org/1999/xlink" fill="transparent" x="0" y="0" width="350" height="350" preserveAspectRatio="xMinYMin slice"><style type="text/css">.links{fill:transparent;stroke: #E4CF37;}.links:hover{fill:#63D272; opacity:0.4;}</style><defs><g id="allt"><path id="t1808" d="M3927,416 L3917,416 C3907,416 3920,409 3911,409 C3903,409 3915,417 3904,416 L3894,416 3894,416 L3894,426 C3894,436 3888,425 3885,433 C3883,441 3895,430 3894,439 L3894,448 3894,448 L3904,448 C3915,448 3903,442 3911,440 C3920,438 3908,449 3917,448 L3927,448 3927,448 L3927,439 C3927,430 3918,440 3920,431 C3922,423 3927,436 3927,426 L3927,416"/></g><clipPath id="c" clipRule="evenodd" fill="transparent"><use href="#t1808"/></clipPath></defs><svg viewBox="3882 408 46 42" preserveAspectRatio="xMinYMin meet"><svg width="4380" height="2430"><g><image crossorigin="anonymous" x="0" y="0" href="https://nftpuzzle.license-token.com/assets/completepuzzle.svg" width="100%" height="100%" /><g class="links"><use href="#t1808"/></g></g></svg><svg x="3913" y="435" height="9%" width="9%" viewBox="0 0 330 330"><g><a xlink:href="https://nftpuzzle.license-token.com/" class="links"><title>See the most innovative NFT based token software licensing project</title><path fill="#E4CF37" id="more" d="M165,0C74.019,0,0,74.019,0,165s74.019,165,165,165s165-74.019,165-165S255.981,0,165,0z M85,190 c-13.785,0-25-11.215-25-25s11.215-25,25-25s25,11.215,25,25S98.785,190,85,190z M165,190c-13.785,0-25-11.215-25-25 s11.215-25,25-25s25,11.215,25,25S178.785,190,165,190z M245,190c-13.785,0-25-11.215-25-25s11.215-25,25-25 c13.785,0,25,11.215,25,25S258.785,190,245,190z"></path></a></g></svg></svg></svg>