<svg version="1.1" xmlns="http://www.w3.org/2000/svg" xmlns:xlink="http://www.w3.org/1999/xlink" fill="transparent" x="0" y="0" width="350" height="350" preserveAspectRatio="xMinYMin slice"><style type="text/css">.links{fill:transparent;stroke: #E4CF37;}.links:hover{fill:#63D272; opacity:0.4;}</style><defs><g id="allt"><path id="t181" d="M1716,32 L1706,33 C1697,34 1707,27 1699,28 C1692,29 1704,32 1693,32 L1683,32 1683,32 L1684,41 C1685,51 1674,41 1674,48 C1674,55 1687,42 1685,53 L1683,64 1683,64 L1692,65 C1702,66 1692,55 1699,55 C1707,55 1694,68 1705,66 L1716,64 1716,64 L1716,55 C1716,46 1712,58 1711,47 C1711,37 1717,51 1716,41 L1716,32"/></g><clipPath id="c" clipRule="evenodd" fill="transparent"><use href="#t181"/></clipPath></defs><svg viewBox="1673 26 45 43" preserveAspectRatio="xMinYMin meet"><svg width="4380" height="2430"><g><image crossorigin="anonymous" x="0" y="0" href="https://nftpuzzle.license-token.com/assets/completepuzzle.svg" width="100%" height="100%" /><g class="links"><use href="#t181"/></g></g></svg><svg x="1703" y="54" height="9%" width="9%" viewBox="0 0 330 330"><g><a xlink:href="https://nftpuzzle.license-token.com/" class="links"><title>See the most innovative NFT based token software licensing project</title><path fill="#E4CF37" id="more" d="M165,0C74.019,0,0,74.019,0,165s74.019,165,165,165s165-74.019,165-165S255.981,0,165,0z M85,190 c-13.785,0-25-11.215-25-25s11.215-25,25-25s25,11.215,25,25S98.785,190,85,190z M165,190c-13.785,0-25-11.215-25-25 s11.215-25,25-25s25,11.215,25,25S178.785,190,165,190z M245,190c-13.785,0-25-11.215-25-25s11.215-25,25-25 c13.785,0,25,11.215,25,25S258.785,190,245,190z"></path></a></g></svg></svg></svg>