<svg version="1.1" xmlns="http://www.w3.org/2000/svg" xmlns:xlink="http://www.w3.org/1999/xlink" fill="transparent" x="0" y="0" width="350" height="350" preserveAspectRatio="xMinYMin slice"><style type="text/css">.links{fill:transparent;stroke: #E4CF37;}.links:hover{fill:#63D272; opacity:0.4;}</style><defs><g id="allt"><path id="t1813" d="M4092,416 L4081,416 C4070,416 4087,422 4076,421 C4066,421 4078,415 4068,415 L4059,416 4059,416 L4058,424 C4058,433 4064,424 4064,431 C4064,439 4059,427 4059,437 L4059,448 4059,448 L4068,447 C4077,447 4067,453 4075,453 C4083,453 4071,448 4081,448 L4092,448 4092,448 L4092,438 C4093,429 4081,441 4082,430 C4083,420 4092,436 4092,426 L4092,416"/></g><clipPath id="c" clipRule="evenodd" fill="transparent"><use href="#t1813"/></clipPath></defs><svg viewBox="4057 414 37 40" preserveAspectRatio="xMinYMin meet"><svg width="4380" height="2430"><g><image crossorigin="anonymous" x="0" y="0" href="https://nftpuzzle.license-token.com/assets/completepuzzle.svg" width="100%" height="100%" /><g class="links"><use href="#t1813"/></g></g></svg><svg x="4079" y="439" height="9%" width="9%" viewBox="0 0 330 330"><g><a xlink:href="https://nftpuzzle.license-token.com/" class="links"><title>See the most innovative NFT based token software licensing project</title><path fill="#E4CF37" id="more" d="M165,0C74.019,0,0,74.019,0,165s74.019,165,165,165s165-74.019,165-165S255.981,0,165,0z M85,190 c-13.785,0-25-11.215-25-25s11.215-25,25-25s25,11.215,25,25S98.785,190,85,190z M165,190c-13.785,0-25-11.215-25-25 s11.215-25,25-25s25,11.215,25,25S178.785,190,165,190z M245,190c-13.785,0-25-11.215-25-25s11.215-25,25-25 c13.785,0,25,11.215,25,25S258.785,190,245,190z"></path></a></g></svg></svg></svg>