<svg version="1.1" xmlns="http://www.w3.org/2000/svg" xmlns:xlink="http://www.w3.org/1999/xlink" fill="transparent" x="0" y="0" width="350" height="350" preserveAspectRatio="xMinYMin slice"><style type="text/css">.links{fill:transparent;stroke: #E4CF37;}.links:hover{fill:#63D272; opacity:0.4;}</style><defs><g id="allt"><path id="t1815" d="M4158,416 L4146,417 C4135,418 4152,412 4140,411 C4129,411 4147,416 4136,416 L4125,416 4125,416 L4124,424 C4123,433 4129,423 4129,432 C4130,442 4125,426 4125,437 L4125,448 4125,448 L4134,447 C4143,446 4132,452 4142,452 C4152,453 4136,448 4147,448 L4158,448 4158,448 L4157,437 C4156,427 4161,441 4162,431 C4163,422 4155,434 4156,425 L4158,416"/></g><clipPath id="c" clipRule="evenodd" fill="transparent"><use href="#t1815"/></clipPath></defs><svg viewBox="4122 410 42 44" preserveAspectRatio="xMinYMin meet"><svg width="4380" height="2430"><g><image crossorigin="anonymous" x="0" y="0" href="https://nftpuzzle.license-token.com/assets/completepuzzle.svg" width="100%" height="100%" /><g class="links"><use href="#t1815"/></g></g></svg><svg x="4149" y="439" height="9%" width="9%" viewBox="0 0 330 330"><g><a xlink:href="https://nftpuzzle.license-token.com/" class="links"><title>See the most innovative NFT based token software licensing project</title><path fill="#E4CF37" id="more" d="M165,0C74.019,0,0,74.019,0,165s74.019,165,165,165s165-74.019,165-165S255.981,0,165,0z M85,190 c-13.785,0-25-11.215-25-25s11.215-25,25-25s25,11.215,25,25S98.785,190,85,190z M165,190c-13.785,0-25-11.215-25-25 s11.215-25,25-25s25,11.215,25,25S178.785,190,165,190z M245,190c-13.785,0-25-11.215-25-25s11.215-25,25-25 c13.785,0,25,11.215,25,25S258.785,190,245,190z"></path></a></g></svg></svg></svg>