<svg version="1.1" xmlns="http://www.w3.org/2000/svg" xmlns:xlink="http://www.w3.org/1999/xlink" fill="transparent" x="0" y="0" width="350" height="350" preserveAspectRatio="xMinYMin slice"><style type="text/css">.links{fill:transparent;stroke: #E4CF37;}.links:hover{fill:#63D272; opacity:0.4;}</style><defs><g id="allt"><path id="t184" d="M1815,32 L1805,32 C1796,33 1808,28 1799,27 C1790,27 1800,32 1791,32 L1782,32 1782,32 L1782,42 C1782,53 1779,39 1779,48 C1779,57 1783,44 1782,54 L1782,64 1782,64 L1793,64 C1804,64 1789,61 1798,61 C1808,61 1794,65 1804,64 L1815,64 1815,64 L1814,53 C1814,43 1821,56 1820,46 C1820,37 1815,50 1815,41 L1815,32"/></g><clipPath id="c" clipRule="evenodd" fill="transparent"><use href="#t184"/></clipPath></defs><svg viewBox="1778 26 44 40" preserveAspectRatio="xMinYMin meet"><svg width="4380" height="2430"><g><image crossorigin="anonymous" x="0" y="0" href="https://nftpuzzle.license-token.com/assets/completepuzzle.svg" width="100%" height="100%" /><g class="links"><use href="#t184"/></g></g></svg><svg x="1807" y="51" height="9%" width="9%" viewBox="0 0 330 330"><g><a xlink:href="https://nftpuzzle.license-token.com/" class="links"><title>See the most innovative NFT based token software licensing project</title><path fill="#E4CF37" id="more" d="M165,0C74.019,0,0,74.019,0,165s74.019,165,165,165s165-74.019,165-165S255.981,0,165,0z M85,190 c-13.785,0-25-11.215-25-25s11.215-25,25-25s25,11.215,25,25S98.785,190,85,190z M165,190c-13.785,0-25-11.215-25-25 s11.215-25,25-25s25,11.215,25,25S178.785,190,165,190z M245,190c-13.785,0-25-11.215-25-25s11.215-25,25-25 c13.785,0,25,11.215,25,25S258.785,190,245,190z"></path></a></g></svg></svg></svg>