<svg version="1.1" xmlns="http://www.w3.org/2000/svg" xmlns:xlink="http://www.w3.org/1999/xlink" fill="transparent" x="0" y="0" width="350" height="350" preserveAspectRatio="xMinYMin slice"><style type="text/css">.links{fill:transparent;stroke: #E4CF37;}.links:hover{fill:#63D272; opacity:0.4;}</style><defs><g id="allt"><path id="t1854" d="M1155,448 L1145,448 C1135,448 1145,443 1136,441 C1127,440 1140,448 1131,448 L1122,448 1122,448 L1122,458 C1122,468 1126,457 1125,464 C1124,472 1121,459 1121,469 L1122,480 1122,480 L1132,480 C1142,480 1131,484 1139,483 C1147,482 1134,479 1144,479 L1155,480 1155,480 L1156,469 C1157,459 1148,474 1148,463 C1148,453 1155,466 1155,457 L1155,448"/></g><clipPath id="c" clipRule="evenodd" fill="transparent"><use href="#t1854"/></clipPath></defs><svg viewBox="1120 439 38 46" preserveAspectRatio="xMinYMin meet"><svg width="4380" height="2430"><g><image crossorigin="anonymous" x="0" y="0" href="https://nftpuzzle.license-token.com/assets/completepuzzle.svg" width="100%" height="100%" /><g class="links"><use href="#t1854"/></g></g></svg><svg x="1143" y="470" height="9%" width="9%" viewBox="0 0 330 330"><g><a xlink:href="https://nftpuzzle.license-token.com/" class="links"><title>See the most innovative NFT based token software licensing project</title><path fill="#E4CF37" id="more" d="M165,0C74.019,0,0,74.019,0,165s74.019,165,165,165s165-74.019,165-165S255.981,0,165,0z M85,190 c-13.785,0-25-11.215-25-25s11.215-25,25-25s25,11.215,25,25S98.785,190,85,190z M165,190c-13.785,0-25-11.215-25-25 s11.215-25,25-25s25,11.215,25,25S178.785,190,165,190z M245,190c-13.785,0-25-11.215-25-25s11.215-25,25-25 c13.785,0,25,11.215,25,25S258.785,190,245,190z"></path></a></g></svg></svg></svg>