<svg version="1.1" xmlns="http://www.w3.org/2000/svg" xmlns:xlink="http://www.w3.org/1999/xlink" fill="transparent" x="0" y="0" width="350" height="350" preserveAspectRatio="xMinYMin slice"><style type="text/css">.links{fill:transparent;stroke: #E4CF37;}.links:hover{fill:#63D272; opacity:0.4;}</style><defs><g id="allt"><path id="t1855" d="M1188,448 L1177,448 C1166,448 1179,435 1170,437 C1162,439 1175,448 1165,448 L1155,448 1155,448 L1155,457 C1155,466 1148,453 1148,463 C1148,474 1157,459 1156,469 L1155,480 1155,480 L1164,480 C1174,480 1160,473 1171,473 C1182,473 1167,482 1177,481 L1188,480 1188,480 L1188,469 C1188,459 1192,473 1191,465 C1191,457 1188,467 1188,457 L1188,448"/></g><clipPath id="c" clipRule="evenodd" fill="transparent"><use href="#t1855"/></clipPath></defs><svg viewBox="1147 434 46 49" preserveAspectRatio="xMinYMin meet"><svg width="4380" height="2430"><g><image crossorigin="anonymous" x="0" y="0" href="https://nftpuzzle.license-token.com/assets/completepuzzle.svg" width="100%" height="100%" /><g class="links"><use href="#t1855"/></g></g></svg><svg x="1178" y="468" height="9%" width="9%" viewBox="0 0 330 330"><g><a xlink:href="https://nftpuzzle.license-token.com/" class="links"><title>See the most innovative NFT based token software licensing project</title><path fill="#E4CF37" id="more" d="M165,0C74.019,0,0,74.019,0,165s74.019,165,165,165s165-74.019,165-165S255.981,0,165,0z M85,190 c-13.785,0-25-11.215-25-25s11.215-25,25-25s25,11.215,25,25S98.785,190,85,190z M165,190c-13.785,0-25-11.215-25-25 s11.215-25,25-25s25,11.215,25,25S178.785,190,165,190z M245,190c-13.785,0-25-11.215-25-25s11.215-25,25-25 c13.785,0,25,11.215,25,25S258.785,190,245,190z"></path></a></g></svg></svg></svg>