<svg version="1.1" xmlns="http://www.w3.org/2000/svg" xmlns:xlink="http://www.w3.org/1999/xlink" fill="transparent" x="0" y="0" width="350" height="350" preserveAspectRatio="xMinYMin slice"><style type="text/css">.links{fill:transparent;stroke: #E4CF37;}.links:hover{fill:#63D272; opacity:0.4;}</style><defs><g id="allt"><path id="t1856" d="M1221,448 L1209,447 C1198,446 1215,452 1206,454 C1197,456 1206,448 1197,448 L1188,448 1188,448 L1188,457 C1188,467 1191,457 1191,465 C1192,473 1188,459 1188,469 L1188,480 1188,480 L1198,480 C1208,480 1197,483 1205,483 C1214,484 1200,480 1210,480 L1221,480 1221,480 L1222,469 C1224,458 1217,474 1215,464 C1214,455 1221,466 1221,457 L1221,448"/></g><clipPath id="c" clipRule="evenodd" fill="transparent"><use href="#t1856"/></clipPath></defs><svg viewBox="1187 445 38 40" preserveAspectRatio="xMinYMin meet"><svg width="4380" height="2430"><g><image crossorigin="anonymous" x="0" y="0" href="https://nftpuzzle.license-token.com/assets/completepuzzle.svg" width="100%" height="100%" /><g class="links"><use href="#t1856"/></g></g></svg><svg x="1210" y="470" height="9%" width="9%" viewBox="0 0 330 330"><g><a xlink:href="https://nftpuzzle.license-token.com/" class="links"><title>See the most innovative NFT based token software licensing project</title><path fill="#E4CF37" id="more" d="M165,0C74.019,0,0,74.019,0,165s74.019,165,165,165s165-74.019,165-165S255.981,0,165,0z M85,190 c-13.785,0-25-11.215-25-25s11.215-25,25-25s25,11.215,25,25S98.785,190,85,190z M165,190c-13.785,0-25-11.215-25-25 s11.215-25,25-25s25,11.215,25,25S178.785,190,165,190z M245,190c-13.785,0-25-11.215-25-25s11.215-25,25-25 c13.785,0,25,11.215,25,25S258.785,190,245,190z"></path></a></g></svg></svg></svg>