<svg version="1.1" xmlns="http://www.w3.org/2000/svg" xmlns:xlink="http://www.w3.org/1999/xlink" fill="transparent" x="0" y="0" width="350" height="350" preserveAspectRatio="xMinYMin slice"><style type="text/css">.links{fill:transparent;stroke: #E4CF37;}.links:hover{fill:#63D272; opacity:0.4;}</style><defs><g id="allt"><path id="t1857" d="M1254,448 L1243,449 C1233,450 1248,441 1237,441 C1226,441 1239,448 1230,448 L1221,448 1221,448 L1221,457 C1221,466 1214,455 1215,464 C1217,474 1224,458 1222,469 L1221,480 1221,480 L1230,480 C1239,480 1228,473 1238,474 C1248,476 1231,483 1242,481 L1254,480 1254,480 L1254,470 C1254,461 1247,474 1247,463 C1248,453 1254,467 1254,457 L1254,448"/></g><clipPath id="c" clipRule="evenodd" fill="transparent"><use href="#t1857"/></clipPath></defs><svg viewBox="1213 440 42 44" preserveAspectRatio="xMinYMin meet"><svg width="4380" height="2430"><g><image crossorigin="anonymous" x="0" y="0" href="https://nftpuzzle.license-token.com/assets/completepuzzle.svg" width="100%" height="100%" /><g class="links"><use href="#t1857"/></g></g></svg><svg x="1240" y="469" height="9%" width="9%" viewBox="0 0 330 330"><g><a xlink:href="https://nftpuzzle.license-token.com/" class="links"><title>See the most innovative NFT based token software licensing project</title><path fill="#E4CF37" id="more" d="M165,0C74.019,0,0,74.019,0,165s74.019,165,165,165s165-74.019,165-165S255.981,0,165,0z M85,190 c-13.785,0-25-11.215-25-25s11.215-25,25-25s25,11.215,25,25S98.785,190,85,190z M165,190c-13.785,0-25-11.215-25-25 s11.215-25,25-25s25,11.215,25,25S178.785,190,165,190z M245,190c-13.785,0-25-11.215-25-25s11.215-25,25-25 c13.785,0,25,11.215,25,25S258.785,190,245,190z"></path></a></g></svg></svg></svg>