<svg version="1.1" xmlns="http://www.w3.org/2000/svg" xmlns:xlink="http://www.w3.org/1999/xlink" fill="transparent" x="0" y="0" width="350" height="350" preserveAspectRatio="xMinYMin slice"><style type="text/css">.links{fill:transparent;stroke: #E4CF37;}.links:hover{fill:#63D272; opacity:0.4;}</style><defs><g id="allt"><path id="t1859" d="M1320,448 L1310,448 C1300,449 1311,439 1302,439 C1294,439 1306,449 1296,448 L1287,448 1287,448 L1287,458 C1288,469 1284,454 1283,462 C1282,471 1287,459 1287,469 L1287,480 1287,480 L1297,480 C1308,481 1293,477 1302,476 C1311,475 1298,480 1309,480 L1320,480 1320,480 L1320,470 C1321,461 1313,471 1314,463 C1315,455 1320,465 1320,456 L1320,448"/></g><clipPath id="c" clipRule="evenodd" fill="transparent"><use href="#t1859"/></clipPath></defs><svg viewBox="1281 438 41 44" preserveAspectRatio="xMinYMin meet"><svg width="4380" height="2430"><g><image crossorigin="anonymous" x="0" y="0" href="https://nftpuzzle.license-token.com/assets/completepuzzle.svg" width="100%" height="100%" /><g class="links"><use href="#t1859"/></g></g></svg><svg x="1307" y="467" height="9%" width="9%" viewBox="0 0 330 330"><g><a xlink:href="https://nftpuzzle.license-token.com/" class="links"><title>See the most innovative NFT based token software licensing project</title><path fill="#E4CF37" id="more" d="M165,0C74.019,0,0,74.019,0,165s74.019,165,165,165s165-74.019,165-165S255.981,0,165,0z M85,190 c-13.785,0-25-11.215-25-25s11.215-25,25-25s25,11.215,25,25S98.785,190,85,190z M165,190c-13.785,0-25-11.215-25-25 s11.215-25,25-25s25,11.215,25,25S178.785,190,165,190z M245,190c-13.785,0-25-11.215-25-25s11.215-25,25-25 c13.785,0,25,11.215,25,25S258.785,190,245,190z"></path></a></g></svg></svg></svg>