<svg version="1.1" xmlns="http://www.w3.org/2000/svg" xmlns:xlink="http://www.w3.org/1999/xlink" fill="transparent" x="0" y="0" width="350" height="350" preserveAspectRatio="xMinYMin slice"><style type="text/css">.links{fill:transparent;stroke: #E4CF37;}.links:hover{fill:#63D272; opacity:0.4;}</style><defs><g id="allt"><path id="t1864" d="M1485,448 L1474,448 C1463,448 1479,454 1469,453 C1459,453 1474,447 1463,447 L1452,448 1452,448 L1453,456 C1454,465 1446,453 1446,462 C1446,472 1452,461 1452,470 L1452,480 1452,480 L1461,481 C1470,482 1457,474 1467,474 C1477,474 1465,480 1475,480 L1485,480 1485,480 L1485,469 C1486,459 1497,472 1495,464 C1494,456 1484,468 1484,458 L1485,448"/></g><clipPath id="c" clipRule="evenodd" fill="transparent"><use href="#t1864"/></clipPath></defs><svg viewBox="1445 446 53 37" preserveAspectRatio="xMinYMin meet"><svg width="4380" height="2430"><g><image crossorigin="anonymous" x="0" y="0" href="https://nftpuzzle.license-token.com/assets/completepuzzle.svg" width="100%" height="100%" /><g class="links"><use href="#t1864"/></g></g></svg><svg x="1483" y="468" height="9%" width="9%" viewBox="0 0 330 330"><g><a xlink:href="https://nftpuzzle.license-token.com/" class="links"><title>See the most innovative NFT based token software licensing project</title><path fill="#E4CF37" id="more" d="M165,0C74.019,0,0,74.019,0,165s74.019,165,165,165s165-74.019,165-165S255.981,0,165,0z M85,190 c-13.785,0-25-11.215-25-25s11.215-25,25-25s25,11.215,25,25S98.785,190,85,190z M165,190c-13.785,0-25-11.215-25-25 s11.215-25,25-25s25,11.215,25,25S178.785,190,165,190z M245,190c-13.785,0-25-11.215-25-25s11.215-25,25-25 c13.785,0,25,11.215,25,25S258.785,190,245,190z"></path></a></g></svg></svg></svg>