<svg version="1.1" xmlns="http://www.w3.org/2000/svg" xmlns:xlink="http://www.w3.org/1999/xlink" fill="transparent" x="0" y="0" width="350" height="350" preserveAspectRatio="xMinYMin slice"><style type="text/css">.links{fill:transparent;stroke: #E4CF37;}.links:hover{fill:#63D272; opacity:0.4;}</style><defs><g id="allt"><path id="t1867" d="M1584,448 L1573,448 C1562,449 1576,454 1567,455 C1559,457 1573,448 1562,448 L1551,448 1551,448 L1552,458 C1554,469 1546,455 1544,463 C1542,472 1551,459 1551,469 L1551,480 1551,480 L1562,481 C1573,483 1558,475 1567,473 C1576,471 1562,480 1573,480 L1584,480 1584,480 L1585,469 C1587,459 1576,474 1576,465 C1576,457 1584,468 1584,458 L1584,448"/></g><clipPath id="c" clipRule="evenodd" fill="transparent"><use href="#t1867"/></clipPath></defs><svg viewBox="1541 447 47 37" preserveAspectRatio="xMinYMin meet"><svg width="4380" height="2430"><g><image crossorigin="anonymous" x="0" y="0" href="https://nftpuzzle.license-token.com/assets/completepuzzle.svg" width="100%" height="100%" /><g class="links"><use href="#t1867"/></g></g></svg><svg x="1573" y="469" height="9%" width="9%" viewBox="0 0 330 330"><g><a xlink:href="https://nftpuzzle.license-token.com/" class="links"><title>See the most innovative NFT based token software licensing project</title><path fill="#E4CF37" id="more" d="M165,0C74.019,0,0,74.019,0,165s74.019,165,165,165s165-74.019,165-165S255.981,0,165,0z M85,190 c-13.785,0-25-11.215-25-25s11.215-25,25-25s25,11.215,25,25S98.785,190,85,190z M165,190c-13.785,0-25-11.215-25-25 s11.215-25,25-25s25,11.215,25,25S178.785,190,165,190z M245,190c-13.785,0-25-11.215-25-25s11.215-25,25-25 c13.785,0,25,11.215,25,25S258.785,190,245,190z"></path></a></g></svg></svg></svg>