<svg version="1.1" xmlns="http://www.w3.org/2000/svg" xmlns:xlink="http://www.w3.org/1999/xlink" fill="transparent" x="0" y="0" width="350" height="350" preserveAspectRatio="xMinYMin slice"><style type="text/css">.links{fill:transparent;stroke: #E4CF37;}.links:hover{fill:#63D272; opacity:0.4;}</style><defs><g id="allt"><path id="t1868" d="M1617,448 L1606,448 C1595,449 1611,443 1599,443 C1588,443 1605,448 1594,448 L1584,448 1584,448 L1584,458 C1584,468 1576,457 1576,465 C1576,474 1587,459 1585,469 L1584,480 1584,480 L1594,480 C1605,480 1593,472 1602,472 C1611,472 1596,483 1606,481 L1617,480 1617,480 L1617,469 C1617,458 1619,470 1619,462 C1620,455 1616,466 1616,457 L1617,448"/></g><clipPath id="c" clipRule="evenodd" fill="transparent"><use href="#t1868"/></clipPath></defs><svg viewBox="1575 442 46 42" preserveAspectRatio="xMinYMin meet"><svg width="4380" height="2430"><g><image crossorigin="anonymous" x="0" y="0" href="https://nftpuzzle.license-token.com/assets/completepuzzle.svg" width="100%" height="100%" /><g class="links"><use href="#t1868"/></g></g></svg><svg x="1606" y="469" height="9%" width="9%" viewBox="0 0 330 330"><g><a xlink:href="https://nftpuzzle.license-token.com/" class="links"><title>See the most innovative NFT based token software licensing project</title><path fill="#E4CF37" id="more" d="M165,0C74.019,0,0,74.019,0,165s74.019,165,165,165s165-74.019,165-165S255.981,0,165,0z M85,190 c-13.785,0-25-11.215-25-25s11.215-25,25-25s25,11.215,25,25S98.785,190,85,190z M165,190c-13.785,0-25-11.215-25-25 s11.215-25,25-25s25,11.215,25,25S178.785,190,165,190z M245,190c-13.785,0-25-11.215-25-25s11.215-25,25-25 c13.785,0,25,11.215,25,25S258.785,190,245,190z"></path></a></g></svg></svg></svg>