<svg version="1.1" xmlns="http://www.w3.org/2000/svg" xmlns:xlink="http://www.w3.org/1999/xlink" fill="transparent" x="0" y="0" width="350" height="350" preserveAspectRatio="xMinYMin slice"><style type="text/css">.links{fill:transparent;stroke: #E4CF37;}.links:hover{fill:#63D272; opacity:0.4;}</style><defs><g id="allt"><path id="t1870" d="M1683,448 L1672,448 C1662,448 1676,446 1665,445 C1655,444 1672,448 1661,448 L1650,448 1650,448 L1651,457 C1653,467 1646,453 1646,463 C1647,473 1650,461 1650,470 L1650,480 1650,480 L1660,481 C1670,483 1655,476 1665,476 C1676,477 1663,480 1673,480 L1683,480 1683,480 L1683,469 C1684,458 1675,470 1675,463 C1675,456 1687,467 1685,457 L1683,448"/></g><clipPath id="c" clipRule="evenodd" fill="transparent"><use href="#t1870"/></clipPath></defs><svg viewBox="1645 443 43 41" preserveAspectRatio="xMinYMin meet"><svg width="4380" height="2430"><g><image crossorigin="anonymous" x="0" y="0" href="https://nftpuzzle.license-token.com/assets/completepuzzle.svg" width="100%" height="100%" /><g class="links"><use href="#t1870"/></g></g></svg><svg x="1673" y="469" height="9%" width="9%" viewBox="0 0 330 330"><g><a xlink:href="https://nftpuzzle.license-token.com/" class="links"><title>See the most innovative NFT based token software licensing project</title><path fill="#E4CF37" id="more" d="M165,0C74.019,0,0,74.019,0,165s74.019,165,165,165s165-74.019,165-165S255.981,0,165,0z M85,190 c-13.785,0-25-11.215-25-25s11.215-25,25-25s25,11.215,25,25S98.785,190,85,190z M165,190c-13.785,0-25-11.215-25-25 s11.215-25,25-25s25,11.215,25,25S178.785,190,165,190z M245,190c-13.785,0-25-11.215-25-25s11.215-25,25-25 c13.785,0,25,11.215,25,25S258.785,190,245,190z"></path></a></g></svg></svg></svg>