<svg version="1.1" xmlns="http://www.w3.org/2000/svg" xmlns:xlink="http://www.w3.org/1999/xlink" fill="transparent" x="0" y="0" width="350" height="350" preserveAspectRatio="xMinYMin slice"><style type="text/css">.links{fill:transparent;stroke: #E4CF37;}.links:hover{fill:#63D272; opacity:0.4;}</style><defs><g id="allt"><path id="t1875" d="M1848,448 L1838,448 C1828,448 1838,440 1829,441 C1821,443 1835,449 1825,448 L1815,448 1815,448 L1816,456 C1817,465 1810,453 1811,463 C1812,474 1815,458 1815,469 L1815,480 1815,480 L1824,481 C1833,482 1820,475 1831,476 C1842,477 1826,480 1837,480 L1848,480 1848,480 L1850,470 C1853,460 1838,471 1838,463 C1839,456 1850,466 1849,457 L1848,448"/></g><clipPath id="c" clipRule="evenodd" fill="transparent"><use href="#t1875"/></clipPath></defs><svg viewBox="1809 439 45 44" preserveAspectRatio="xMinYMin meet"><svg width="4380" height="2430"><g><image crossorigin="anonymous" x="0" y="0" href="https://nftpuzzle.license-token.com/assets/completepuzzle.svg" width="100%" height="100%" /><g class="links"><use href="#t1875"/></g></g></svg><svg x="1839" y="468" height="9%" width="9%" viewBox="0 0 330 330"><g><a xlink:href="https://nftpuzzle.license-token.com/" class="links"><title>See the most innovative NFT based token software licensing project</title><path fill="#E4CF37" id="more" d="M165,0C74.019,0,0,74.019,0,165s74.019,165,165,165s165-74.019,165-165S255.981,0,165,0z M85,190 c-13.785,0-25-11.215-25-25s11.215-25,25-25s25,11.215,25,25S98.785,190,85,190z M165,190c-13.785,0-25-11.215-25-25 s11.215-25,25-25s25,11.215,25,25S178.785,190,165,190z M245,190c-13.785,0-25-11.215-25-25s11.215-25,25-25 c13.785,0,25,11.215,25,25S258.785,190,245,190z"></path></a></g></svg></svg></svg>