<svg version="1.1" xmlns="http://www.w3.org/2000/svg" xmlns:xlink="http://www.w3.org/1999/xlink" fill="transparent" x="0" y="0" width="350" height="350" preserveAspectRatio="xMinYMin slice"><style type="text/css">.links{fill:transparent;stroke: #E4CF37;}.links:hover{fill:#63D272; opacity:0.4;}</style><defs><g id="allt"><path id="t1876" d="M1881,448 L1871,450 C1862,452 1871,442 1862,441 C1853,440 1867,453 1857,450 L1848,448 1848,448 L1849,457 C1850,466 1839,456 1838,463 C1838,471 1853,460 1850,470 L1848,480 1848,480 L1857,481 C1867,482 1857,471 1864,470 C1871,470 1860,485 1870,482 L1881,480 1881,480 L1880,470 C1880,460 1892,472 1892,463 C1893,454 1876,465 1878,456 L1881,448"/></g><clipPath id="c" clipRule="evenodd" fill="transparent"><use href="#t1876"/></clipPath></defs><svg viewBox="1837 439 57 47" preserveAspectRatio="xMinYMin meet"><svg width="4380" height="2430"><g><image crossorigin="anonymous" x="0" y="0" href="https://nftpuzzle.license-token.com/assets/completepuzzle.svg" width="100%" height="100%" /><g class="links"><use href="#t1876"/></g></g></svg><svg x="1879" y="471" height="9%" width="9%" viewBox="0 0 330 330"><g><a xlink:href="https://nftpuzzle.license-token.com/" class="links"><title>See the most innovative NFT based token software licensing project</title><path fill="#E4CF37" id="more" d="M165,0C74.019,0,0,74.019,0,165s74.019,165,165,165s165-74.019,165-165S255.981,0,165,0z M85,190 c-13.785,0-25-11.215-25-25s11.215-25,25-25s25,11.215,25,25S98.785,190,85,190z M165,190c-13.785,0-25-11.215-25-25 s11.215-25,25-25s25,11.215,25,25S178.785,190,165,190z M245,190c-13.785,0-25-11.215-25-25s11.215-25,25-25 c13.785,0,25,11.215,25,25S258.785,190,245,190z"></path></a></g></svg></svg></svg>