<svg version="1.1" xmlns="http://www.w3.org/2000/svg" xmlns:xlink="http://www.w3.org/1999/xlink" fill="transparent" x="0" y="0" width="350" height="350" preserveAspectRatio="xMinYMin slice"><style type="text/css">.links{fill:transparent;stroke: #E4CF37;}.links:hover{fill:#63D272; opacity:0.4;}</style><defs><g id="allt"><path id="t1879" d="M1980,448 L1969,447 C1959,446 1971,454 1963,453 C1956,453 1966,448 1956,448 L1947,448 1947,448 L1948,457 C1949,467 1938,455 1940,465 C1943,475 1947,461 1947,470 L1947,480 1947,480 L1957,481 C1967,482 1954,472 1964,474 C1975,476 1961,480 1970,480 L1980,480 1980,480 L1980,470 C1980,461 1978,471 1977,461 C1976,452 1980,467 1980,457 L1980,448"/></g><clipPath id="c" clipRule="evenodd" fill="transparent"><use href="#t1879"/></clipPath></defs><svg viewBox="1937 445 44 38" preserveAspectRatio="xMinYMin meet"><svg width="4380" height="2430"><g><image crossorigin="anonymous" x="0" y="0" href="https://nftpuzzle.license-token.com/assets/completepuzzle.svg" width="100%" height="100%" /><g class="links"><use href="#t1879"/></g></g></svg><svg x="1966" y="468" height="9%" width="9%" viewBox="0 0 330 330"><g><a xlink:href="https://nftpuzzle.license-token.com/" class="links"><title>See the most innovative NFT based token software licensing project</title><path fill="#E4CF37" id="more" d="M165,0C74.019,0,0,74.019,0,165s74.019,165,165,165s165-74.019,165-165S255.981,0,165,0z M85,190 c-13.785,0-25-11.215-25-25s11.215-25,25-25s25,11.215,25,25S98.785,190,85,190z M165,190c-13.785,0-25-11.215-25-25 s11.215-25,25-25s25,11.215,25,25S178.785,190,165,190z M245,190c-13.785,0-25-11.215-25-25s11.215-25,25-25 c13.785,0,25,11.215,25,25S258.785,190,245,190z"></path></a></g></svg></svg></svg>