<svg version="1.1" xmlns="http://www.w3.org/2000/svg" xmlns:xlink="http://www.w3.org/1999/xlink" fill="transparent" x="0" y="0" width="350" height="350" preserveAspectRatio="xMinYMin slice"><style type="text/css">.links{fill:transparent;stroke: #E4CF37;}.links:hover{fill:#63D272; opacity:0.4;}</style><defs><g id="allt"><path id="t1882" d="M2079,448 L2069,448 C2059,448 2074,446 2064,446 C2055,446 2065,448 2055,448 L2046,448 2046,448 L2046,458 C2046,469 2050,452 2049,462 C2049,472 2046,462 2046,471 L2046,480 2046,480 L2056,480 C2067,480 2050,484 2060,483 C2070,483 2060,480 2069,480 L2079,480 2079,480 L2080,470 C2082,461 2070,470 2070,463 C2071,457 2084,468 2081,458 L2079,448"/></g><clipPath id="c" clipRule="evenodd" fill="transparent"><use href="#t1882"/></clipPath></defs><svg viewBox="2045 445 40 40" preserveAspectRatio="xMinYMin meet"><svg width="4380" height="2430"><g><image crossorigin="anonymous" x="0" y="0" href="https://nftpuzzle.license-token.com/assets/completepuzzle.svg" width="100%" height="100%" /><g class="links"><use href="#t1882"/></g></g></svg><svg x="2070" y="470" height="9%" width="9%" viewBox="0 0 330 330"><g><a xlink:href="https://nftpuzzle.license-token.com/" class="links"><title>See the most innovative NFT based token software licensing project</title><path fill="#E4CF37" id="more" d="M165,0C74.019,0,0,74.019,0,165s74.019,165,165,165s165-74.019,165-165S255.981,0,165,0z M85,190 c-13.785,0-25-11.215-25-25s11.215-25,25-25s25,11.215,25,25S98.785,190,85,190z M165,190c-13.785,0-25-11.215-25-25 s11.215-25,25-25s25,11.215,25,25S178.785,190,165,190z M245,190c-13.785,0-25-11.215-25-25s11.215-25,25-25 c13.785,0,25,11.215,25,25S258.785,190,245,190z"></path></a></g></svg></svg></svg>