<svg version="1.1" xmlns="http://www.w3.org/2000/svg" xmlns:xlink="http://www.w3.org/1999/xlink" fill="transparent" x="0" y="0" width="350" height="350" preserveAspectRatio="xMinYMin slice"><style type="text/css">.links{fill:transparent;stroke: #E4CF37;}.links:hover{fill:#63D272; opacity:0.4;}</style><defs><g id="allt"><path id="t1883" d="M2112,448 L2101,450 C2090,453 2102,437 2094,438 C2086,439 2100,452 2089,450 L2079,448 2079,448 L2081,458 C2084,468 2071,457 2070,463 C2070,470 2082,461 2080,470 L2079,480 2079,480 L2089,482 C2100,485 2088,472 2095,471 C2102,471 2092,483 2102,481 L2112,480 2112,480 L2112,471 C2112,462 2106,470 2105,463 C2104,457 2112,466 2112,457 L2112,448"/></g><clipPath id="c" clipRule="evenodd" fill="transparent"><use href="#t1883"/></clipPath></defs><svg viewBox="2069 436 44 50" preserveAspectRatio="xMinYMin meet"><svg width="4380" height="2430"><g><image crossorigin="anonymous" x="0" y="0" href="https://nftpuzzle.license-token.com/assets/completepuzzle.svg" width="100%" height="100%" /><g class="links"><use href="#t1883"/></g></g></svg><svg x="2098" y="471" height="9%" width="9%" viewBox="0 0 330 330"><g><a xlink:href="https://nftpuzzle.license-token.com/" class="links"><title>See the most innovative NFT based token software licensing project</title><path fill="#E4CF37" id="more" d="M165,0C74.019,0,0,74.019,0,165s74.019,165,165,165s165-74.019,165-165S255.981,0,165,0z M85,190 c-13.785,0-25-11.215-25-25s11.215-25,25-25s25,11.215,25,25S98.785,190,85,190z M165,190c-13.785,0-25-11.215-25-25 s11.215-25,25-25s25,11.215,25,25S178.785,190,165,190z M245,190c-13.785,0-25-11.215-25-25s11.215-25,25-25 c13.785,0,25,11.215,25,25S258.785,190,245,190z"></path></a></g></svg></svg></svg>