<svg version="1.1" xmlns="http://www.w3.org/2000/svg" xmlns:xlink="http://www.w3.org/1999/xlink" fill="transparent" x="0" y="0" width="350" height="350" preserveAspectRatio="xMinYMin slice"><style type="text/css">.links{fill:transparent;stroke: #E4CF37;}.links:hover{fill:#63D272; opacity:0.4;}</style><defs><g id="allt"><path id="t1885" d="M2178,448 L2168,448 C2158,448 2170,453 2160,453 C2150,453 2166,448 2155,448 L2145,448 2145,448 L2143,457 C2141,466 2156,456 2154,465 C2152,474 2142,460 2143,470 L2145,480 2145,480 L2154,478 C2164,476 2154,491 2163,489 C2172,487 2158,477 2168,478 L2178,480 2178,480 L2179,469 C2180,458 2175,475 2174,464 C2174,453 2178,469 2178,458 L2178,448"/></g><clipPath id="c" clipRule="evenodd" fill="transparent"><use href="#t1885"/></clipPath></defs><svg viewBox="2140 447 41 45" preserveAspectRatio="xMinYMin meet"><svg width="4380" height="2430"><g><image crossorigin="anonymous" x="0" y="0" href="https://nftpuzzle.license-token.com/assets/completepuzzle.svg" width="100%" height="100%" /><g class="links"><use href="#t1885"/></g></g></svg><svg x="2166" y="477" height="9%" width="9%" viewBox="0 0 330 330"><g><a xlink:href="https://nftpuzzle.license-token.com/" class="links"><title>See the most innovative NFT based token software licensing project</title><path fill="#E4CF37" id="more" d="M165,0C74.019,0,0,74.019,0,165s74.019,165,165,165s165-74.019,165-165S255.981,0,165,0z M85,190 c-13.785,0-25-11.215-25-25s11.215-25,25-25s25,11.215,25,25S98.785,190,85,190z M165,190c-13.785,0-25-11.215-25-25 s11.215-25,25-25s25,11.215,25,25S178.785,190,165,190z M245,190c-13.785,0-25-11.215-25-25s11.215-25,25-25 c13.785,0,25,11.215,25,25S258.785,190,245,190z"></path></a></g></svg></svg></svg>