<svg version="1.1" xmlns="http://www.w3.org/2000/svg" xmlns:xlink="http://www.w3.org/1999/xlink" fill="transparent" x="0" y="0" width="350" height="350" preserveAspectRatio="xMinYMin slice"><style type="text/css">.links{fill:transparent;stroke: #E4CF37;}.links:hover{fill:#63D272; opacity:0.4;}</style><defs><g id="allt"><path id="t1890" d="M2343,448 L2333,449 C2323,450 2334,443 2324,444 C2315,446 2330,448 2320,448 L2310,448 2310,448 L2311,457 C2312,466 2306,456 2305,463 C2305,471 2311,458 2310,469 L2310,480 2310,480 L2319,481 C2329,482 2318,476 2326,475 C2334,475 2320,481 2331,480 L2343,480 2343,480 L2341,470 C2340,460 2353,470 2351,462 C2350,455 2343,467 2343,457 L2343,448"/></g><clipPath id="c" clipRule="evenodd" fill="transparent"><use href="#t1890"/></clipPath></defs><svg viewBox="2304 442 50 41" preserveAspectRatio="xMinYMin meet"><svg width="4380" height="2430"><g><image crossorigin="anonymous" x="0" y="0" href="https://nftpuzzle.license-token.com/assets/completepuzzle.svg" width="100%" height="100%" /><g class="links"><use href="#t1890"/></g></g></svg><svg x="2339" y="468" height="9%" width="9%" viewBox="0 0 330 330"><g><a xlink:href="https://nftpuzzle.license-token.com/" class="links"><title>See the most innovative NFT based token software licensing project</title><path fill="#E4CF37" id="more" d="M165,0C74.019,0,0,74.019,0,165s74.019,165,165,165s165-74.019,165-165S255.981,0,165,0z M85,190 c-13.785,0-25-11.215-25-25s11.215-25,25-25s25,11.215,25,25S98.785,190,85,190z M165,190c-13.785,0-25-11.215-25-25 s11.215-25,25-25s25,11.215,25,25S178.785,190,165,190z M245,190c-13.785,0-25-11.215-25-25s11.215-25,25-25 c13.785,0,25,11.215,25,25S258.785,190,245,190z"></path></a></g></svg></svg></svg>