<svg version="1.1" xmlns="http://www.w3.org/2000/svg" xmlns:xlink="http://www.w3.org/1999/xlink" fill="transparent" x="0" y="0" width="350" height="350" preserveAspectRatio="xMinYMin slice"><style type="text/css">.links{fill:transparent;stroke: #E4CF37;}.links:hover{fill:#63D272; opacity:0.4;}</style><defs><g id="allt"><path id="t1894" d="M2475,448 L2464,449 C2453,450 2465,441 2455,443 C2446,445 2462,448 2452,448 L2442,448 2442,448 L2440,457 C2439,466 2446,455 2446,463 C2447,471 2439,460 2440,470 L2442,480 2442,480 L2451,478 C2460,477 2449,484 2457,484 C2466,485 2455,477 2465,478 L2475,480 2475,480 L2475,469 C2475,459 2468,472 2467,463 C2467,454 2475,468 2475,458 L2475,448"/></g><clipPath id="c" clipRule="evenodd" fill="transparent"><use href="#t1894"/></clipPath></defs><svg viewBox="2438 440 38 46" preserveAspectRatio="xMinYMin meet"><svg width="4380" height="2430"><g><image crossorigin="anonymous" x="0" y="0" href="https://nftpuzzle.license-token.com/assets/completepuzzle.svg" width="100%" height="100%" /><g class="links"><use href="#t1894"/></g></g></svg><svg x="2461" y="471" height="9%" width="9%" viewBox="0 0 330 330"><g><a xlink:href="https://nftpuzzle.license-token.com/" class="links"><title>See the most innovative NFT based token software licensing project</title><path fill="#E4CF37" id="more" d="M165,0C74.019,0,0,74.019,0,165s74.019,165,165,165s165-74.019,165-165S255.981,0,165,0z M85,190 c-13.785,0-25-11.215-25-25s11.215-25,25-25s25,11.215,25,25S98.785,190,85,190z M165,190c-13.785,0-25-11.215-25-25 s11.215-25,25-25s25,11.215,25,25S178.785,190,165,190z M245,190c-13.785,0-25-11.215-25-25s11.215-25,25-25 c13.785,0,25,11.215,25,25S258.785,190,245,190z"></path></a></g></svg></svg></svg>