<svg version="1.1" xmlns="http://www.w3.org/2000/svg" xmlns:xlink="http://www.w3.org/1999/xlink" fill="transparent" x="0" y="0" width="350" height="350" preserveAspectRatio="xMinYMin slice"><style type="text/css">.links{fill:transparent;stroke: #E4CF37;}.links:hover{fill:#63D272; opacity:0.4;}</style><defs><g id="allt"><path id="t1900" d="M2673,448 L2663,448 C2654,448 2663,445 2655,444 C2647,443 2660,449 2650,448 L2640,448 2640,448 L2640,457 C2640,466 2647,452 2646,462 C2645,473 2640,461 2640,470 L2640,480 2640,480 L2649,480 C2659,480 2644,487 2655,486 C2666,485 2654,480 2663,480 L2673,480 2673,480 L2673,469 C2673,459 2669,473 2669,464 C2670,455 2673,468 2673,458 L2673,448"/></g><clipPath id="c" clipRule="evenodd" fill="transparent"><use href="#t1900"/></clipPath></defs><svg viewBox="2639 442 35 46" preserveAspectRatio="xMinYMin meet"><svg width="4380" height="2430"><g><image crossorigin="anonymous" x="0" y="0" href="https://nftpuzzle.license-token.com/assets/completepuzzle.svg" width="100%" height="100%" /><g class="links"><use href="#t1900"/></g></g></svg><svg x="2659" y="473" height="9%" width="9%" viewBox="0 0 330 330"><g><a xlink:href="https://nftpuzzle.license-token.com/" class="links"><title>See the most innovative NFT based token software licensing project</title><path fill="#E4CF37" id="more" d="M165,0C74.019,0,0,74.019,0,165s74.019,165,165,165s165-74.019,165-165S255.981,0,165,0z M85,190 c-13.785,0-25-11.215-25-25s11.215-25,25-25s25,11.215,25,25S98.785,190,85,190z M165,190c-13.785,0-25-11.215-25-25 s11.215-25,25-25s25,11.215,25,25S178.785,190,165,190z M245,190c-13.785,0-25-11.215-25-25s11.215-25,25-25 c13.785,0,25,11.215,25,25S258.785,190,245,190z"></path></a></g></svg></svg></svg>