<svg version="1.1" xmlns="http://www.w3.org/2000/svg" xmlns:xlink="http://www.w3.org/1999/xlink" fill="transparent" x="0" y="0" width="350" height="350" preserveAspectRatio="xMinYMin slice"><style type="text/css">.links{fill:transparent;stroke: #E4CF37;}.links:hover{fill:#63D272; opacity:0.4;}</style><defs><g id="allt"><path id="t1905" d="M2838,448 L2827,446 C2817,445 2832,453 2821,453 C2811,454 2826,448 2815,448 L2805,448 2805,448 L2805,458 C2805,468 2803,453 2803,462 C2803,471 2805,460 2805,470 L2805,480 2805,480 L2815,480 C2826,480 2810,478 2819,478 C2828,478 2818,480 2828,480 L2838,480 2838,480 L2839,469 C2840,459 2834,474 2834,463 C2834,453 2839,469 2838,458 L2838,448"/></g><clipPath id="c" clipRule="evenodd" fill="transparent"><use href="#t1905"/></clipPath></defs><svg viewBox="2802 444 39 37" preserveAspectRatio="xMinYMin meet"><svg width="4380" height="2430"><g><image crossorigin="anonymous" x="0" y="0" href="https://nftpuzzle.license-token.com/assets/completepuzzle.svg" width="100%" height="100%" /><g class="links"><use href="#t1905"/></g></g></svg><svg x="2826" y="466" height="9%" width="9%" viewBox="0 0 330 330"><g><a xlink:href="https://nftpuzzle.license-token.com/" class="links"><title>See the most innovative NFT based token software licensing project</title><path fill="#E4CF37" id="more" d="M165,0C74.019,0,0,74.019,0,165s74.019,165,165,165s165-74.019,165-165S255.981,0,165,0z M85,190 c-13.785,0-25-11.215-25-25s11.215-25,25-25s25,11.215,25,25S98.785,190,85,190z M165,190c-13.785,0-25-11.215-25-25 s11.215-25,25-25s25,11.215,25,25S178.785,190,165,190z M245,190c-13.785,0-25-11.215-25-25s11.215-25,25-25 c13.785,0,25,11.215,25,25S258.785,190,245,190z"></path></a></g></svg></svg></svg>