<svg version="1.1" xmlns="http://www.w3.org/2000/svg" xmlns:xlink="http://www.w3.org/1999/xlink" fill="transparent" x="0" y="0" width="350" height="350" preserveAspectRatio="xMinYMin slice"><style type="text/css">.links{fill:transparent;stroke: #E4CF37;}.links:hover{fill:#63D272; opacity:0.4;}</style><defs><g id="allt"><path id="t1909" d="M2970,448 L2959,448 C2948,449 2962,460 2954,460 C2946,460 2958,447 2947,447 L2937,448 2937,448 L2937,457 C2937,466 2940,455 2941,463 C2943,472 2937,458 2937,469 L2937,480 2937,480 L2946,480 C2956,480 2944,483 2953,484 C2962,486 2948,480 2959,480 L2970,480 2970,480 L2970,471 C2971,462 2966,472 2966,464 C2966,456 2972,468 2971,458 L2970,448"/></g><clipPath id="c" clipRule="evenodd" fill="transparent"><use href="#t1909"/></clipPath></defs><svg viewBox="2936 446 37 41" preserveAspectRatio="xMinYMin meet"><svg width="4380" height="2430"><g><image crossorigin="anonymous" x="0" y="0" href="https://nftpuzzle.license-token.com/assets/completepuzzle.svg" width="100%" height="100%" /><g class="links"><use href="#t1909"/></g></g></svg><svg x="2958" y="472" height="9%" width="9%" viewBox="0 0 330 330"><g><a xlink:href="https://nftpuzzle.license-token.com/" class="links"><title>See the most innovative NFT based token software licensing project</title><path fill="#E4CF37" id="more" d="M165,0C74.019,0,0,74.019,0,165s74.019,165,165,165s165-74.019,165-165S255.981,0,165,0z M85,190 c-13.785,0-25-11.215-25-25s11.215-25,25-25s25,11.215,25,25S98.785,190,85,190z M165,190c-13.785,0-25-11.215-25-25 s11.215-25,25-25s25,11.215,25,25S178.785,190,165,190z M245,190c-13.785,0-25-11.215-25-25s11.215-25,25-25 c13.785,0,25,11.215,25,25S258.785,190,245,190z"></path></a></g></svg></svg></svg>