<svg version="1.1" xmlns="http://www.w3.org/2000/svg" xmlns:xlink="http://www.w3.org/1999/xlink" fill="transparent" x="0" y="0" width="350" height="350" preserveAspectRatio="xMinYMin slice"><style type="text/css">.links{fill:transparent;stroke: #E4CF37;}.links:hover{fill:#63D272; opacity:0.4;}</style><defs><g id="allt"><path id="t1912" d="M3069,448 L3058,449 C3048,451 3062,436 3052,437 C3042,438 3056,448 3046,448 L3036,448 3036,448 L3038,457 C3040,467 3024,455 3027,463 C3030,472 3040,458 3038,469 L3036,480 3036,480 L3046,482 C3056,484 3043,468 3052,471 C3061,474 3047,484 3058,482 L3069,480 3069,480 L3070,469 C3072,458 3063,470 3060,463 C3058,456 3069,469 3069,458 L3069,448"/></g><clipPath id="c" clipRule="evenodd" fill="transparent"><use href="#t1912"/></clipPath></defs><svg viewBox="3023 435 50 50" preserveAspectRatio="xMinYMin meet"><svg width="4380" height="2430"><g><image crossorigin="anonymous" x="0" y="0" href="https://nftpuzzle.license-token.com/assets/completepuzzle.svg" width="100%" height="100%" /><g class="links"><use href="#t1912"/></g></g></svg><svg x="3058" y="470" height="9%" width="9%" viewBox="0 0 330 330"><g><a xlink:href="https://nftpuzzle.license-token.com/" class="links"><title>See the most innovative NFT based token software licensing project</title><path fill="#E4CF37" id="more" d="M165,0C74.019,0,0,74.019,0,165s74.019,165,165,165s165-74.019,165-165S255.981,0,165,0z M85,190 c-13.785,0-25-11.215-25-25s11.215-25,25-25s25,11.215,25,25S98.785,190,85,190z M165,190c-13.785,0-25-11.215-25-25 s11.215-25,25-25s25,11.215,25,25S178.785,190,165,190z M245,190c-13.785,0-25-11.215-25-25s11.215-25,25-25 c13.785,0,25,11.215,25,25S258.785,190,245,190z"></path></a></g></svg></svg></svg>