<svg version="1.1" xmlns="http://www.w3.org/2000/svg" xmlns:xlink="http://www.w3.org/1999/xlink" fill="transparent" x="0" y="0" width="350" height="350" preserveAspectRatio="xMinYMin slice"><style type="text/css">.links{fill:transparent;stroke: #E4CF37;}.links:hover{fill:#63D272; opacity:0.4;}</style><defs><g id="allt"><path id="t1914" d="M3135,448 L3124,449 C3114,451 3129,443 3118,443 C3108,443 3121,448 3111,448 L3102,448 3102,448 L3101,457 C3100,466 3104,455 3104,464 C3105,474 3101,458 3101,469 L3102,480 3102,480 L3111,479 C3121,478 3109,482 3119,482 C3129,483 3112,479 3123,479 L3135,480 3135,480 L3135,471 C3136,462 3133,470 3131,463 C3130,456 3135,468 3135,458 L3135,448"/></g><clipPath id="c" clipRule="evenodd" fill="transparent"><use href="#t1914"/></clipPath></defs><svg viewBox="3099 442 38 42" preserveAspectRatio="xMinYMin meet"><svg width="4380" height="2430"><g><image crossorigin="anonymous" x="0" y="0" href="https://nftpuzzle.license-token.com/assets/completepuzzle.svg" width="100%" height="100%" /><g class="links"><use href="#t1914"/></g></g></svg><svg x="3122" y="469" height="9%" width="9%" viewBox="0 0 330 330"><g><a xlink:href="https://nftpuzzle.license-token.com/" class="links"><title>See the most innovative NFT based token software licensing project</title><path fill="#E4CF37" id="more" d="M165,0C74.019,0,0,74.019,0,165s74.019,165,165,165s165-74.019,165-165S255.981,0,165,0z M85,190 c-13.785,0-25-11.215-25-25s11.215-25,25-25s25,11.215,25,25S98.785,190,85,190z M165,190c-13.785,0-25-11.215-25-25 s11.215-25,25-25s25,11.215,25,25S178.785,190,165,190z M245,190c-13.785,0-25-11.215-25-25s11.215-25,25-25 c13.785,0,25,11.215,25,25S258.785,190,245,190z"></path></a></g></svg></svg></svg>