<svg version="1.1" xmlns="http://www.w3.org/2000/svg" xmlns:xlink="http://www.w3.org/1999/xlink" fill="transparent" x="0" y="0" width="350" height="350" preserveAspectRatio="xMinYMin slice"><style type="text/css">.links{fill:transparent;stroke: #E4CF37;}.links:hover{fill:#63D272; opacity:0.4;}</style><defs><g id="allt"><path id="t1917" d="M3234,448 L3223,446 C3212,445 3225,457 3215,456 C3206,456 3220,444 3210,446 L3201,448 3201,448 L3200,458 C3200,468 3208,455 3208,464 C3208,474 3199,458 3200,469 L3201,480 3201,480 L3211,479 C3222,479 3208,487 3218,487 C3228,487 3212,478 3223,479 L3234,480 3234,480 L3233,469 C3232,459 3245,475 3242,465 C3240,456 3230,465 3232,456 L3234,448"/></g><clipPath id="c" clipRule="evenodd" fill="transparent"><use href="#t1917"/></clipPath></defs><svg viewBox="3198 443 48 45" preserveAspectRatio="xMinYMin meet"><svg width="4380" height="2430"><g><image crossorigin="anonymous" x="0" y="0" href="https://nftpuzzle.license-token.com/assets/completepuzzle.svg" width="100%" height="100%" /><g class="links"><use href="#t1917"/></g></g></svg><svg x="3231" y="473" height="9%" width="9%" viewBox="0 0 330 330"><g><a xlink:href="https://nftpuzzle.license-token.com/" class="links"><title>See the most innovative NFT based token software licensing project</title><path fill="#E4CF37" id="more" d="M165,0C74.019,0,0,74.019,0,165s74.019,165,165,165s165-74.019,165-165S255.981,0,165,0z M85,190 c-13.785,0-25-11.215-25-25s11.215-25,25-25s25,11.215,25,25S98.785,190,85,190z M165,190c-13.785,0-25-11.215-25-25 s11.215-25,25-25s25,11.215,25,25S178.785,190,165,190z M245,190c-13.785,0-25-11.215-25-25s11.215-25,25-25 c13.785,0,25,11.215,25,25S258.785,190,245,190z"></path></a></g></svg></svg></svg>