<svg version="1.1" xmlns="http://www.w3.org/2000/svg" xmlns:xlink="http://www.w3.org/1999/xlink" fill="transparent" x="0" y="0" width="350" height="350" preserveAspectRatio="xMinYMin slice"><style type="text/css">.links{fill:transparent;stroke: #E4CF37;}.links:hover{fill:#63D272; opacity:0.4;}</style><defs><g id="allt"><path id="t1928" d="M3597,448 L3587,448 C3577,448 3589,440 3580,440 C3571,440 3585,448 3574,448 L3564,448 3564,448 L3563,457 C3562,467 3573,455 3572,464 C3571,474 3563,461 3563,470 L3564,480 3564,480 L3573,479 C3583,478 3571,488 3581,487 C3591,487 3577,479 3587,479 L3597,480 3597,480 L3598,469 C3600,459 3591,474 3591,465 C3592,456 3598,465 3597,456 L3597,448"/></g><clipPath id="c" clipRule="evenodd" fill="transparent"><use href="#t1928"/></clipPath></defs><svg viewBox="3561 439 40 50" preserveAspectRatio="xMinYMin meet"><svg width="4380" height="2430"><g><image crossorigin="anonymous" x="0" y="0" href="https://nftpuzzle.license-token.com/assets/completepuzzle.svg" width="100%" height="100%" /><g class="links"><use href="#t1928"/></g></g></svg><svg x="3586" y="474" height="9%" width="9%" viewBox="0 0 330 330"><g><a xlink:href="https://nftpuzzle.license-token.com/" class="links"><title>See the most innovative NFT based token software licensing project</title><path fill="#E4CF37" id="more" d="M165,0C74.019,0,0,74.019,0,165s74.019,165,165,165s165-74.019,165-165S255.981,0,165,0z M85,190 c-13.785,0-25-11.215-25-25s11.215-25,25-25s25,11.215,25,25S98.785,190,85,190z M165,190c-13.785,0-25-11.215-25-25 s11.215-25,25-25s25,11.215,25,25S178.785,190,165,190z M245,190c-13.785,0-25-11.215-25-25s11.215-25,25-25 c13.785,0,25,11.215,25,25S258.785,190,245,190z"></path></a></g></svg></svg></svg>