<svg version="1.1" xmlns="http://www.w3.org/2000/svg" xmlns:xlink="http://www.w3.org/1999/xlink" fill="transparent" x="0" y="0" width="350" height="350" preserveAspectRatio="xMinYMin slice"><style type="text/css">.links{fill:transparent;stroke: #E4CF37;}.links:hover{fill:#63D272; opacity:0.4;}</style><defs><g id="allt"><path id="t1932" d="M3729,448 L3719,448 C3710,448 3723,454 3714,454 C3705,454 3716,448 3706,448 L3696,448 3696,448 L3695,457 C3694,466 3703,453 3702,461 C3701,470 3695,460 3695,470 L3696,480 3696,480 L3705,479 C3714,478 3701,487 3710,486 C3719,485 3708,479 3718,479 L3729,480 3729,480 L3729,470 C3729,461 3726,473 3724,464 C3723,456 3732,468 3730,458 L3729,448"/></g><clipPath id="c" clipRule="evenodd" fill="transparent"><use href="#t1932"/></clipPath></defs><svg viewBox="3693 447 40 41" preserveAspectRatio="xMinYMin meet"><svg width="4380" height="2430"><g><image crossorigin="anonymous" x="0" y="0" href="https://nftpuzzle.license-token.com/assets/completepuzzle.svg" width="100%" height="100%" /><g class="links"><use href="#t1932"/></g></g></svg><svg x="3718" y="473" height="9%" width="9%" viewBox="0 0 330 330"><g><a xlink:href="https://nftpuzzle.license-token.com/" class="links"><title>See the most innovative NFT based token software licensing project</title><path fill="#E4CF37" id="more" d="M165,0C74.019,0,0,74.019,0,165s74.019,165,165,165s165-74.019,165-165S255.981,0,165,0z M85,190 c-13.785,0-25-11.215-25-25s11.215-25,25-25s25,11.215,25,25S98.785,190,85,190z M165,190c-13.785,0-25-11.215-25-25 s11.215-25,25-25s25,11.215,25,25S178.785,190,165,190z M245,190c-13.785,0-25-11.215-25-25s11.215-25,25-25 c13.785,0,25,11.215,25,25S258.785,190,245,190z"></path></a></g></svg></svg></svg>