<svg version="1.1" xmlns="http://www.w3.org/2000/svg" xmlns:xlink="http://www.w3.org/1999/xlink" fill="transparent" x="0" y="0" width="350" height="350" preserveAspectRatio="xMinYMin slice"><style type="text/css">.links{fill:transparent;stroke: #E4CF37;}.links:hover{fill:#63D272; opacity:0.4;}</style><defs><g id="allt"><path id="t1934" d="M3795,448 L3784,448 C3773,448 3787,452 3779,452 C3771,453 3781,445 3771,446 L3762,448 3762,448 L3764,457 C3766,467 3754,454 3754,463 C3755,472 3763,459 3762,469 L3762,480 3762,480 L3772,482 C3782,484 3768,472 3777,472 C3787,473 3773,481 3784,480 L3795,480 3795,480 L3796,469 C3797,458 3785,473 3786,464 C3788,455 3797,467 3796,457 L3795,448"/></g><clipPath id="c" clipRule="evenodd" fill="transparent"><use href="#t1934"/></clipPath></defs><svg viewBox="3753 444 45 41" preserveAspectRatio="xMinYMin meet"><svg width="4380" height="2430"><g><image crossorigin="anonymous" x="0" y="0" href="https://nftpuzzle.license-token.com/assets/completepuzzle.svg" width="100%" height="100%" /><g class="links"><use href="#t1934"/></g></g></svg><svg x="3783" y="470" height="9%" width="9%" viewBox="0 0 330 330"><g><a xlink:href="https://nftpuzzle.license-token.com/" class="links"><title>See the most innovative NFT based token software licensing project</title><path fill="#E4CF37" id="more" d="M165,0C74.019,0,0,74.019,0,165s74.019,165,165,165s165-74.019,165-165S255.981,0,165,0z M85,190 c-13.785,0-25-11.215-25-25s11.215-25,25-25s25,11.215,25,25S98.785,190,85,190z M165,190c-13.785,0-25-11.215-25-25 s11.215-25,25-25s25,11.215,25,25S178.785,190,165,190z M245,190c-13.785,0-25-11.215-25-25s11.215-25,25-25 c13.785,0,25,11.215,25,25S258.785,190,245,190z"></path></a></g></svg></svg></svg>