<svg version="1.1" xmlns="http://www.w3.org/2000/svg" xmlns:xlink="http://www.w3.org/1999/xlink" fill="transparent" x="0" y="0" width="350" height="350" preserveAspectRatio="xMinYMin slice"><style type="text/css">.links{fill:transparent;stroke: #E4CF37;}.links:hover{fill:#63D272; opacity:0.4;}</style><defs><g id="allt"><path id="t1936" d="M3861,448 L3850,447 C3840,447 3853,451 3843,452 C3834,453 3846,448 3837,448 L3828,448 3828,448 L3828,457 C3828,467 3839,457 3838,464 C3837,472 3828,461 3828,470 L3828,480 3828,480 L3838,480 C3848,480 3837,490 3845,489 C3853,488 3841,480 3851,480 L3861,480 3861,480 L3861,470 C3861,460 3867,474 3866,464 C3865,454 3861,469 3861,458 L3861,448"/></g><clipPath id="c" clipRule="evenodd" fill="transparent"><use href="#t1936"/></clipPath></defs><svg viewBox="3827 446 41 45" preserveAspectRatio="xMinYMin meet"><svg width="4380" height="2430"><g><image crossorigin="anonymous" x="0" y="0" href="https://nftpuzzle.license-token.com/assets/completepuzzle.svg" width="100%" height="100%" /><g class="links"><use href="#t1936"/></g></g></svg><svg x="3853" y="476" height="9%" width="9%" viewBox="0 0 330 330"><g><a xlink:href="https://nftpuzzle.license-token.com/" class="links"><title>See the most innovative NFT based token software licensing project</title><path fill="#E4CF37" id="more" d="M165,0C74.019,0,0,74.019,0,165s74.019,165,165,165s165-74.019,165-165S255.981,0,165,0z M85,190 c-13.785,0-25-11.215-25-25s11.215-25,25-25s25,11.215,25,25S98.785,190,85,190z M165,190c-13.785,0-25-11.215-25-25 s11.215-25,25-25s25,11.215,25,25S178.785,190,165,190z M245,190c-13.785,0-25-11.215-25-25s11.215-25,25-25 c13.785,0,25,11.215,25,25S258.785,190,245,190z"></path></a></g></svg></svg></svg>