<svg version="1.1" xmlns="http://www.w3.org/2000/svg" xmlns:xlink="http://www.w3.org/1999/xlink" fill="transparent" x="0" y="0" width="350" height="350" preserveAspectRatio="xMinYMin slice"><style type="text/css">.links{fill:transparent;stroke: #E4CF37;}.links:hover{fill:#63D272; opacity:0.4;}</style><defs><g id="allt"><path id="t1939" d="M3960,448 L3950,448 C3941,448 3952,439 3943,441 C3934,443 3948,448 3937,448 L3927,448 3927,448 L3926,457 C3926,467 3932,456 3931,464 C3930,473 3927,460 3927,470 L3927,480 3927,480 L3936,479 C3946,479 3935,485 3944,484 C3953,483 3939,480 3949,480 L3960,480 3960,480 L3960,470 C3960,460 3957,473 3956,464 C3955,456 3960,465 3960,456 L3960,448"/></g><clipPath id="c" clipRule="evenodd" fill="transparent"><use href="#t1939"/></clipPath></defs><svg viewBox="3925 438 36 48" preserveAspectRatio="xMinYMin meet"><svg width="4380" height="2430"><g><image crossorigin="anonymous" x="0" y="0" href="https://nftpuzzle.license-token.com/assets/completepuzzle.svg" width="100%" height="100%" /><g class="links"><use href="#t1939"/></g></g></svg><svg x="3946" y="471" height="9%" width="9%" viewBox="0 0 330 330"><g><a xlink:href="https://nftpuzzle.license-token.com/" class="links"><title>See the most innovative NFT based token software licensing project</title><path fill="#E4CF37" id="more" d="M165,0C74.019,0,0,74.019,0,165s74.019,165,165,165s165-74.019,165-165S255.981,0,165,0z M85,190 c-13.785,0-25-11.215-25-25s11.215-25,25-25s25,11.215,25,25S98.785,190,85,190z M165,190c-13.785,0-25-11.215-25-25 s11.215-25,25-25s25,11.215,25,25S178.785,190,165,190z M245,190c-13.785,0-25-11.215-25-25s11.215-25,25-25 c13.785,0,25,11.215,25,25S258.785,190,245,190z"></path></a></g></svg></svg></svg>