<svg version="1.1" xmlns="http://www.w3.org/2000/svg" xmlns:xlink="http://www.w3.org/1999/xlink" fill="transparent" x="0" y="0" width="350" height="350" preserveAspectRatio="xMinYMin slice"><style type="text/css">.links{fill:transparent;stroke: #E4CF37;}.links:hover{fill:#63D272; opacity:0.4;}</style><defs><g id="allt"><path id="t194" d="M2145,32 L2134,33 C2124,35 2139,24 2127,25 C2116,27 2130,33 2121,32 L2112,32 2112,32 L2114,41 C2116,50 2101,37 2102,47 C2104,58 2114,46 2113,55 L2112,64 2112,64 L2121,66 C2131,68 2117,54 2128,55 C2139,56 2126,66 2135,65 L2145,64 2145,64 L2146,53 C2147,43 2142,54 2142,47 C2142,40 2145,51 2145,41 L2145,32"/></g><clipPath id="c" clipRule="evenodd" fill="transparent"><use href="#t194"/></clipPath></defs><svg viewBox="2100 23 48 46" preserveAspectRatio="xMinYMin meet"><svg width="4380" height="2430"><g><image crossorigin="anonymous" x="0" y="0" href="https://nftpuzzle.license-token.com/assets/completepuzzle.svg" width="100%" height="100%" /><g class="links"><use href="#t194"/></g></g></svg><svg x="2133" y="54" height="9%" width="9%" viewBox="0 0 330 330"><g><a xlink:href="https://nftpuzzle.license-token.com/" class="links"><title>See the most innovative NFT based token software licensing project</title><path fill="#E4CF37" id="more" d="M165,0C74.019,0,0,74.019,0,165s74.019,165,165,165s165-74.019,165-165S255.981,0,165,0z M85,190 c-13.785,0-25-11.215-25-25s11.215-25,25-25s25,11.215,25,25S98.785,190,85,190z M165,190c-13.785,0-25-11.215-25-25 s11.215-25,25-25s25,11.215,25,25S178.785,190,165,190z M245,190c-13.785,0-25-11.215-25-25s11.215-25,25-25 c13.785,0,25,11.215,25,25S258.785,190,245,190z"></path></a></g></svg></svg></svg>