<svg version="1.1" xmlns="http://www.w3.org/2000/svg" xmlns:xlink="http://www.w3.org/1999/xlink" fill="transparent" x="0" y="0" width="350" height="350" preserveAspectRatio="xMinYMin slice"><style type="text/css">.links{fill:transparent;stroke: #E4CF37;}.links:hover{fill:#63D272; opacity:0.4;}</style><defs><g id="allt"><path id="t1940" d="M3993,448 L3982,448 C3971,448 3986,436 3975,437 C3965,439 3978,448 3969,448 L3960,448 3960,448 L3960,456 C3960,465 3955,456 3956,464 C3957,473 3960,460 3960,470 L3960,480 3960,480 L3969,480 C3978,480 3968,475 3977,476 C3986,477 3972,480 3982,480 L3993,480 3993,480 L3994,469 C3995,458 3988,474 3985,463 C3983,453 3995,467 3994,457 L3993,448"/></g><clipPath id="c" clipRule="evenodd" fill="transparent"><use href="#t1940"/></clipPath></defs><svg viewBox="3954 435 42 46" preserveAspectRatio="xMinYMin meet"><svg width="4380" height="2430"><g><image crossorigin="anonymous" x="0" y="0" href="https://nftpuzzle.license-token.com/assets/completepuzzle.svg" width="100%" height="100%" /><g class="links"><use href="#t1940"/></g></g></svg><svg x="3981" y="466" height="9%" width="9%" viewBox="0 0 330 330"><g><a xlink:href="https://nftpuzzle.license-token.com/" class="links"><title>See the most innovative NFT based token software licensing project</title><path fill="#E4CF37" id="more" d="M165,0C74.019,0,0,74.019,0,165s74.019,165,165,165s165-74.019,165-165S255.981,0,165,0z M85,190 c-13.785,0-25-11.215-25-25s11.215-25,25-25s25,11.215,25,25S98.785,190,85,190z M165,190c-13.785,0-25-11.215-25-25 s11.215-25,25-25s25,11.215,25,25S178.785,190,165,190z M245,190c-13.785,0-25-11.215-25-25s11.215-25,25-25 c13.785,0,25,11.215,25,25S258.785,190,245,190z"></path></a></g></svg></svg></svg>