<svg version="1.1" xmlns="http://www.w3.org/2000/svg" xmlns:xlink="http://www.w3.org/1999/xlink" fill="transparent" x="0" y="0" width="350" height="350" preserveAspectRatio="xMinYMin slice"><style type="text/css">.links{fill:transparent;stroke: #E4CF37;}.links:hover{fill:#63D272; opacity:0.4;}</style><defs><g id="allt"><path id="t1941" d="M4026,448 L4016,449 C4007,450 4017,441 4009,441 C4001,441 4013,448 4003,448 L3993,448 3993,448 L3994,457 C3995,467 3983,453 3985,463 C3988,474 3995,458 3994,469 L3993,480 3993,480 L4002,481 C4012,482 3998,470 4009,472 C4020,475 4003,482 4014,481 L4026,480 4026,480 L4026,471 C4026,462 4023,470 4023,462 C4024,454 4026,465 4026,456 L4026,448"/></g><clipPath id="c" clipRule="evenodd" fill="transparent"><use href="#t1941"/></clipPath></defs><svg viewBox="3982 440 45 43" preserveAspectRatio="xMinYMin meet"><svg width="4380" height="2430"><g><image crossorigin="anonymous" x="0" y="0" href="https://nftpuzzle.license-token.com/assets/completepuzzle.svg" width="100%" height="100%" /><g class="links"><use href="#t1941"/></g></g></svg><svg x="4012" y="468" height="9%" width="9%" viewBox="0 0 330 330"><g><a xlink:href="https://nftpuzzle.license-token.com/" class="links"><title>See the most innovative NFT based token software licensing project</title><path fill="#E4CF37" id="more" d="M165,0C74.019,0,0,74.019,0,165s74.019,165,165,165s165-74.019,165-165S255.981,0,165,0z M85,190 c-13.785,0-25-11.215-25-25s11.215-25,25-25s25,11.215,25,25S98.785,190,85,190z M165,190c-13.785,0-25-11.215-25-25 s11.215-25,25-25s25,11.215,25,25S178.785,190,165,190z M245,190c-13.785,0-25-11.215-25-25s11.215-25,25-25 c13.785,0,25,11.215,25,25S258.785,190,245,190z"></path></a></g></svg></svg></svg>