<svg version="1.1" xmlns="http://www.w3.org/2000/svg" xmlns:xlink="http://www.w3.org/1999/xlink" fill="transparent" x="0" y="0" width="350" height="350" preserveAspectRatio="xMinYMin slice"><style type="text/css">.links{fill:transparent;stroke: #E4CF37;}.links:hover{fill:#63D272; opacity:0.4;}</style><defs><g id="allt"><path id="t1942" d="M4059,448 L4048,448 C4038,449 4049,445 4041,445 C4034,445 4047,448 4036,448 L4026,448 4026,448 L4026,456 C4026,465 4024,454 4023,462 C4023,470 4026,462 4026,471 L4026,480 4026,480 L4035,480 C4044,480 4032,478 4040,477 C4049,477 4040,480 4049,480 L4059,480 4059,480 L4060,471 C4061,462 4054,474 4055,463 C4056,453 4062,466 4060,457 L4059,448"/></g><clipPath id="c" clipRule="evenodd" fill="transparent"><use href="#t1942"/></clipPath></defs><svg viewBox="4022 444 41 37" preserveAspectRatio="xMinYMin meet"><svg width="4380" height="2430"><g><image crossorigin="anonymous" x="0" y="0" href="https://nftpuzzle.license-token.com/assets/completepuzzle.svg" width="100%" height="100%" /><g class="links"><use href="#t1942"/></g></g></svg><svg x="4048" y="466" height="9%" width="9%" viewBox="0 0 330 330"><g><a xlink:href="https://nftpuzzle.license-token.com/" class="links"><title>See the most innovative NFT based token software licensing project</title><path fill="#E4CF37" id="more" d="M165,0C74.019,0,0,74.019,0,165s74.019,165,165,165s165-74.019,165-165S255.981,0,165,0z M85,190 c-13.785,0-25-11.215-25-25s11.215-25,25-25s25,11.215,25,25S98.785,190,85,190z M165,190c-13.785,0-25-11.215-25-25 s11.215-25,25-25s25,11.215,25,25S178.785,190,165,190z M245,190c-13.785,0-25-11.215-25-25s11.215-25,25-25 c13.785,0,25,11.215,25,25S258.785,190,245,190z"></path></a></g></svg></svg></svg>