<svg version="1.1" xmlns="http://www.w3.org/2000/svg" xmlns:xlink="http://www.w3.org/1999/xlink" fill="transparent" x="0" y="0" width="350" height="350" preserveAspectRatio="xMinYMin slice"><style type="text/css">.links{fill:transparent;stroke: #E4CF37;}.links:hover{fill:#63D272; opacity:0.4;}</style><defs><g id="allt"><path id="t1983" d="M1122,480 L1111,480 C1100,480 1112,488 1103,488 C1094,489 1108,477 1098,478 L1089,480 1089,480 L1090,489 C1091,499 1084,488 1083,495 C1082,502 1090,494 1089,503 L1089,512 1089,512 L1099,513 C1109,514 1097,507 1104,506 C1112,505 1103,513 1112,512 L1122,512 1122,512 L1122,502 C1123,493 1110,506 1112,496 C1115,486 1127,498 1124,489 L1122,480"/></g><clipPath id="c" clipRule="evenodd" fill="transparent"><use href="#t1983"/></clipPath></defs><svg viewBox="1081 476 47 39" preserveAspectRatio="xMinYMin meet"><svg width="4380" height="2430"><g><image crossorigin="anonymous" x="0" y="0" href="https://nftpuzzle.license-token.com/assets/completepuzzle.svg" width="100%" height="100%" /><g class="links"><use href="#t1983"/></g></g></svg><svg x="1113" y="500" height="9%" width="9%" viewBox="0 0 330 330"><g><a xlink:href="https://nftpuzzle.license-token.com/" class="links"><title>See the most innovative NFT based token software licensing project</title><path fill="#E4CF37" id="more" d="M165,0C74.019,0,0,74.019,0,165s74.019,165,165,165s165-74.019,165-165S255.981,0,165,0z M85,190 c-13.785,0-25-11.215-25-25s11.215-25,25-25s25,11.215,25,25S98.785,190,85,190z M165,190c-13.785,0-25-11.215-25-25 s11.215-25,25-25s25,11.215,25,25S178.785,190,165,190z M245,190c-13.785,0-25-11.215-25-25s11.215-25,25-25 c13.785,0,25,11.215,25,25S258.785,190,245,190z"></path></a></g></svg></svg></svg>