<svg version="1.1" xmlns="http://www.w3.org/2000/svg" xmlns:xlink="http://www.w3.org/1999/xlink" fill="transparent" x="0" y="0" width="350" height="350" preserveAspectRatio="xMinYMin slice"><style type="text/css">.links{fill:transparent;stroke: #E4CF37;}.links:hover{fill:#63D272; opacity:0.4;}</style><defs><g id="allt"><path id="t1985" d="M1188,480 L1177,481 C1167,482 1182,473 1171,473 C1160,473 1174,480 1164,480 L1155,480 1155,480 L1156,489 C1158,498 1150,487 1149,496 C1149,506 1155,493 1155,502 L1155,512 1155,512 L1164,513 C1174,515 1162,507 1172,506 C1182,506 1168,512 1178,512 L1188,512 1188,512 L1188,501 C1188,491 1184,507 1184,495 C1184,484 1188,498 1188,489 L1188,480"/></g><clipPath id="c" clipRule="evenodd" fill="transparent"><use href="#t1985"/></clipPath></defs><svg viewBox="1148 472 41 44" preserveAspectRatio="xMinYMin meet"><svg width="4380" height="2430"><g><image crossorigin="anonymous" x="0" y="0" href="https://nftpuzzle.license-token.com/assets/completepuzzle.svg" width="100%" height="100%" /><g class="links"><use href="#t1985"/></g></g></svg><svg x="1174" y="501" height="9%" width="9%" viewBox="0 0 330 330"><g><a xlink:href="https://nftpuzzle.license-token.com/" class="links"><title>See the most innovative NFT based token software licensing project</title><path fill="#E4CF37" id="more" d="M165,0C74.019,0,0,74.019,0,165s74.019,165,165,165s165-74.019,165-165S255.981,0,165,0z M85,190 c-13.785,0-25-11.215-25-25s11.215-25,25-25s25,11.215,25,25S98.785,190,85,190z M165,190c-13.785,0-25-11.215-25-25 s11.215-25,25-25s25,11.215,25,25S178.785,190,165,190z M245,190c-13.785,0-25-11.215-25-25s11.215-25,25-25 c13.785,0,25,11.215,25,25S258.785,190,245,190z"></path></a></g></svg></svg></svg>