<svg version="1.1" xmlns="http://www.w3.org/2000/svg" xmlns:xlink="http://www.w3.org/1999/xlink" fill="transparent" x="0" y="0" width="350" height="350" preserveAspectRatio="xMinYMin slice"><style type="text/css">.links{fill:transparent;stroke: #E4CF37;}.links:hover{fill:#63D272; opacity:0.4;}</style><defs><g id="allt"><path id="t1989" d="M1320,480 L1309,480 C1298,480 1311,475 1302,476 C1293,477 1308,481 1297,480 L1287,480 1287,480 L1287,490 C1287,501 1294,485 1295,495 C1297,505 1287,490 1287,501 L1287,512 1287,512 L1298,512 C1309,512 1292,519 1302,520 C1313,522 1298,512 1309,512 L1320,512 1320,512 L1320,501 C1321,491 1328,503 1330,494 C1332,486 1318,499 1319,489 L1320,480"/></g><clipPath id="c" clipRule="evenodd" fill="transparent"><use href="#t1989"/></clipPath></defs><svg viewBox="1286 474 47 49" preserveAspectRatio="xMinYMin meet"><svg width="4380" height="2430"><g><image crossorigin="anonymous" x="0" y="0" href="https://nftpuzzle.license-token.com/assets/completepuzzle.svg" width="100%" height="100%" /><g class="links"><use href="#t1989"/></g></g></svg><svg x="1318" y="508" height="9%" width="9%" viewBox="0 0 330 330"><g><a xlink:href="https://nftpuzzle.license-token.com/" class="links"><title>See the most innovative NFT based token software licensing project</title><path fill="#E4CF37" id="more" d="M165,0C74.019,0,0,74.019,0,165s74.019,165,165,165s165-74.019,165-165S255.981,0,165,0z M85,190 c-13.785,0-25-11.215-25-25s11.215-25,25-25s25,11.215,25,25S98.785,190,85,190z M165,190c-13.785,0-25-11.215-25-25 s11.215-25,25-25s25,11.215,25,25S178.785,190,165,190z M245,190c-13.785,0-25-11.215-25-25s11.215-25,25-25 c13.785,0,25,11.215,25,25S258.785,190,245,190z"></path></a></g></svg></svg></svg>