<svg version="1.1" xmlns="http://www.w3.org/2000/svg" xmlns:xlink="http://www.w3.org/1999/xlink" fill="transparent" x="0" y="0" width="350" height="350" preserveAspectRatio="xMinYMin slice"><style type="text/css">.links{fill:transparent;stroke: #E4CF37;}.links:hover{fill:#63D272; opacity:0.4;}</style><defs><g id="allt"><path id="t1990" d="M1353,480 L1343,480 C1333,481 1343,473 1335,474 C1327,475 1338,480 1329,480 L1320,480 1320,480 L1319,489 C1318,499 1332,486 1330,494 C1328,503 1321,491 1320,501 L1320,512 1320,512 L1330,511 C1340,510 1326,524 1334,522 C1343,520 1332,513 1342,512 L1353,512 1353,512 L1354,502 C1355,493 1347,502 1347,494 C1348,486 1358,497 1355,488 L1353,480"/></g><clipPath id="c" clipRule="evenodd" fill="transparent"><use href="#t1990"/></clipPath></defs><svg viewBox="1317 472 42 53" preserveAspectRatio="xMinYMin meet"><svg width="4380" height="2430"><g><image crossorigin="anonymous" x="0" y="0" href="https://nftpuzzle.license-token.com/assets/completepuzzle.svg" width="100%" height="100%" /><g class="links"><use href="#t1990"/></g></g></svg><svg x="1344" y="510" height="9%" width="9%" viewBox="0 0 330 330"><g><a xlink:href="https://nftpuzzle.license-token.com/" class="links"><title>See the most innovative NFT based token software licensing project</title><path fill="#E4CF37" id="more" d="M165,0C74.019,0,0,74.019,0,165s74.019,165,165,165s165-74.019,165-165S255.981,0,165,0z M85,190 c-13.785,0-25-11.215-25-25s11.215-25,25-25s25,11.215,25,25S98.785,190,85,190z M165,190c-13.785,0-25-11.215-25-25 s11.215-25,25-25s25,11.215,25,25S178.785,190,165,190z M245,190c-13.785,0-25-11.215-25-25s11.215-25,25-25 c13.785,0,25,11.215,25,25S258.785,190,245,190z"></path></a></g></svg></svg></svg>