<svg version="1.1" xmlns="http://www.w3.org/2000/svg" xmlns:xlink="http://www.w3.org/1999/xlink" fill="transparent" x="0" y="0" width="350" height="350" preserveAspectRatio="xMinYMin slice"><style type="text/css">.links{fill:transparent;stroke: #E4CF37;}.links:hover{fill:#63D272; opacity:0.4;}</style><defs><g id="allt"><path id="t1992" d="M1419,480 L1409,477 C1400,475 1412,487 1402,489 C1393,492 1405,481 1395,480 L1386,480 1386,480 L1386,489 C1386,498 1392,486 1393,494 C1395,503 1386,491 1386,501 L1386,512 1386,512 L1395,512 C1405,512 1392,518 1401,519 C1410,521 1397,512 1408,512 L1419,512 1419,512 L1420,502 C1421,493 1410,504 1412,495 C1414,486 1422,500 1420,490 L1419,480"/></g><clipPath id="c" clipRule="evenodd" fill="transparent"><use href="#t1992"/></clipPath></defs><svg viewBox="1385 474 38 48" preserveAspectRatio="xMinYMin meet"><svg width="4380" height="2430"><g><image crossorigin="anonymous" x="0" y="0" href="https://nftpuzzle.license-token.com/assets/completepuzzle.svg" width="100%" height="100%" /><g class="links"><use href="#t1992"/></g></g></svg><svg x="1408" y="507" height="9%" width="9%" viewBox="0 0 330 330"><g><a xlink:href="https://nftpuzzle.license-token.com/" class="links"><title>See the most innovative NFT based token software licensing project</title><path fill="#E4CF37" id="more" d="M165,0C74.019,0,0,74.019,0,165s74.019,165,165,165s165-74.019,165-165S255.981,0,165,0z M85,190 c-13.785,0-25-11.215-25-25s11.215-25,25-25s25,11.215,25,25S98.785,190,85,190z M165,190c-13.785,0-25-11.215-25-25 s11.215-25,25-25s25,11.215,25,25S178.785,190,165,190z M245,190c-13.785,0-25-11.215-25-25s11.215-25,25-25 c13.785,0,25,11.215,25,25S258.785,190,245,190z"></path></a></g></svg></svg></svg>