<svg version="1.1" xmlns="http://www.w3.org/2000/svg" xmlns:xlink="http://www.w3.org/1999/xlink" fill="transparent" x="0" y="0" width="350" height="350" preserveAspectRatio="xMinYMin slice"><style type="text/css">.links{fill:transparent;stroke: #E4CF37;}.links:hover{fill:#63D272; opacity:0.4;}</style><defs><g id="allt"><path id="t1997" d="M1584,480 L1573,480 C1562,480 1576,471 1567,473 C1558,475 1573,483 1562,481 L1551,480 1551,480 L1551,489 C1551,498 1556,487 1559,495 C1562,503 1548,492 1549,502 L1551,512 1551,512 L1560,512 C1570,512 1558,517 1566,519 C1575,522 1563,509 1573,510 L1584,512 1584,512 L1584,501 C1584,490 1577,507 1576,496 C1575,486 1589,498 1586,489 L1584,480"/></g><clipPath id="c" clipRule="evenodd" fill="transparent"><use href="#t1997"/></clipPath></defs><svg viewBox="1547 470 43 53" preserveAspectRatio="xMinYMin meet"><svg width="4380" height="2430"><g><image crossorigin="anonymous" x="0" y="0" href="https://nftpuzzle.license-token.com/assets/completepuzzle.svg" width="100%" height="100%" /><g class="links"><use href="#t1997"/></g></g></svg><svg x="1575" y="508" height="9%" width="9%" viewBox="0 0 330 330"><g><a xlink:href="https://nftpuzzle.license-token.com/" class="links"><title>See the most innovative NFT based token software licensing project</title><path fill="#E4CF37" id="more" d="M165,0C74.019,0,0,74.019,0,165s74.019,165,165,165s165-74.019,165-165S255.981,0,165,0z M85,190 c-13.785,0-25-11.215-25-25s11.215-25,25-25s25,11.215,25,25S98.785,190,85,190z M165,190c-13.785,0-25-11.215-25-25 s11.215-25,25-25s25,11.215,25,25S178.785,190,165,190z M245,190c-13.785,0-25-11.215-25-25s11.215-25,25-25 c13.785,0,25,11.215,25,25S258.785,190,245,190z"></path></a></g></svg></svg></svg>