<svg version="1.1" xmlns="http://www.w3.org/2000/svg" xmlns:xlink="http://www.w3.org/1999/xlink" fill="transparent" x="0" y="0" width="350" height="350" preserveAspectRatio="xMinYMin slice"><style type="text/css">.links{fill:transparent;stroke: #E4CF37;}.links:hover{fill:#63D272; opacity:0.4;}</style><defs><g id="allt"><path id="t200" d="M2343,32 L2333,32 C2323,33 2336,25 2326,26 C2317,27 2329,34 2319,33 L2310,32 2310,32 L2311,41 C2312,51 2302,40 2302,47 C2302,54 2310,45 2310,54 L2310,64 2310,64 L2319,65 C2329,66 2318,56 2325,56 C2333,56 2324,64 2333,64 L2343,64 2343,64 L2343,53 C2344,42 2335,58 2335,49 C2335,40 2343,49 2343,40 L2343,32"/></g><clipPath id="c" clipRule="evenodd" fill="transparent"><use href="#t200"/></clipPath></defs><svg viewBox="2301 24 44 43" preserveAspectRatio="xMinYMin meet"><svg width="4380" height="2430"><g><image crossorigin="anonymous" x="0" y="0" href="https://nftpuzzle.license-token.com/assets/completepuzzle.svg" width="100%" height="100%" /><g class="links"><use href="#t200"/></g></g></svg><svg x="2330" y="52" height="9%" width="9%" viewBox="0 0 330 330"><g><a xlink:href="https://nftpuzzle.license-token.com/" class="links"><title>See the most innovative NFT based token software licensing project</title><path fill="#E4CF37" id="more" d="M165,0C74.019,0,0,74.019,0,165s74.019,165,165,165s165-74.019,165-165S255.981,0,165,0z M85,190 c-13.785,0-25-11.215-25-25s11.215-25,25-25s25,11.215,25,25S98.785,190,85,190z M165,190c-13.785,0-25-11.215-25-25 s11.215-25,25-25s25,11.215,25,25S178.785,190,165,190z M245,190c-13.785,0-25-11.215-25-25s11.215-25,25-25 c13.785,0,25,11.215,25,25S258.785,190,245,190z"></path></a></g></svg></svg></svg>