<svg version="1.1" xmlns="http://www.w3.org/2000/svg" xmlns:xlink="http://www.w3.org/1999/xlink" fill="transparent" x="0" y="0" width="350" height="350" preserveAspectRatio="xMinYMin slice"><style type="text/css">.links{fill:transparent;stroke: #E4CF37;}.links:hover{fill:#63D272; opacity:0.4;}</style><defs><g id="allt"><path id="t201" d="M2376,32 L2365,31 C2355,31 2368,38 2357,37 C2347,37 2363,30 2353,31 L2343,32 2343,32 L2343,40 C2343,49 2335,40 2335,49 C2335,58 2344,42 2343,53 L2343,64 2343,64 L2352,64 C2361,64 2351,56 2360,56 C2370,56 2353,65 2364,64 L2376,64 2376,64 L2375,54 C2375,45 2380,58 2379,48 C2379,38 2375,51 2375,41 L2376,32"/></g><clipPath id="c" clipRule="evenodd" fill="transparent"><use href="#t201"/></clipPath></defs><svg viewBox="2334 29 47 37" preserveAspectRatio="xMinYMin meet"><svg width="4380" height="2430"><g><image crossorigin="anonymous" x="0" y="0" href="https://nftpuzzle.license-token.com/assets/completepuzzle.svg" width="100%" height="100%" /><g class="links"><use href="#t201"/></g></g></svg><svg x="2366" y="51" height="9%" width="9%" viewBox="0 0 330 330"><g><a xlink:href="https://nftpuzzle.license-token.com/" class="links"><title>See the most innovative NFT based token software licensing project</title><path fill="#E4CF37" id="more" d="M165,0C74.019,0,0,74.019,0,165s74.019,165,165,165s165-74.019,165-165S255.981,0,165,0z M85,190 c-13.785,0-25-11.215-25-25s11.215-25,25-25s25,11.215,25,25S98.785,190,85,190z M165,190c-13.785,0-25-11.215-25-25 s11.215-25,25-25s25,11.215,25,25S178.785,190,165,190z M245,190c-13.785,0-25-11.215-25-25s11.215-25,25-25 c13.785,0,25,11.215,25,25S258.785,190,245,190z"></path></a></g></svg></svg></svg>