<svg version="1.1" xmlns="http://www.w3.org/2000/svg" xmlns:xlink="http://www.w3.org/1999/xlink" fill="transparent" x="0" y="0" width="350" height="350" preserveAspectRatio="xMinYMin slice"><style type="text/css">.links{fill:transparent;stroke: #E4CF37;}.links:hover{fill:#63D272; opacity:0.4;}</style><defs><g id="allt"><path id="t2013" d="M2112,480 L2102,481 C2092,483 2102,471 2095,471 C2088,472 2100,485 2089,482 L2079,480 2079,480 L2079,489 C2079,499 2085,486 2085,495 C2085,504 2078,490 2078,501 L2079,512 2079,512 L2088,512 C2098,512 2085,518 2094,518 C2104,518 2090,511 2101,511 L2112,512 2112,512 L2112,502 C2112,493 2120,505 2117,494 C2115,484 2112,497 2112,488 L2112,480"/></g><clipPath id="c" clipRule="evenodd" fill="transparent"><use href="#t2013"/></clipPath></defs><svg viewBox="2077 470 44 49" preserveAspectRatio="xMinYMin meet"><svg width="4380" height="2430"><g><image crossorigin="anonymous" x="0" y="0" href="https://nftpuzzle.license-token.com/assets/completepuzzle.svg" width="100%" height="100%" /><g class="links"><use href="#t2013"/></g></g></svg><svg x="2106" y="504" height="9%" width="9%" viewBox="0 0 330 330"><g><a xlink:href="https://nftpuzzle.license-token.com/" class="links"><title>See the most innovative NFT based token software licensing project</title><path fill="#E4CF37" id="more" d="M165,0C74.019,0,0,74.019,0,165s74.019,165,165,165s165-74.019,165-165S255.981,0,165,0z M85,190 c-13.785,0-25-11.215-25-25s11.215-25,25-25s25,11.215,25,25S98.785,190,85,190z M165,190c-13.785,0-25-11.215-25-25 s11.215-25,25-25s25,11.215,25,25S178.785,190,165,190z M245,190c-13.785,0-25-11.215-25-25s11.215-25,25-25 c13.785,0,25,11.215,25,25S258.785,190,245,190z"></path></a></g></svg></svg></svg>