<svg version="1.1" xmlns="http://www.w3.org/2000/svg" xmlns:xlink="http://www.w3.org/1999/xlink" fill="transparent" x="0" y="0" width="350" height="350" preserveAspectRatio="xMinYMin slice"><style type="text/css">.links{fill:transparent;stroke: #E4CF37;}.links:hover{fill:#63D272; opacity:0.4;}</style><defs><g id="allt"><path id="t2014" d="M2145,480 L2135,480 C2126,480 2135,474 2128,473 C2121,472 2131,480 2121,480 L2112,480 2112,480 L2112,488 C2112,497 2115,484 2117,494 C2120,505 2112,493 2112,502 L2112,512 2112,512 L2121,512 C2130,512 2116,515 2127,517 C2138,520 2126,512 2135,512 L2145,512 2145,512 L2145,501 C2145,491 2138,504 2139,494 C2141,485 2145,499 2145,489 L2145,480"/></g><clipPath id="c" clipRule="evenodd" fill="transparent"><use href="#t2014"/></clipPath></defs><svg viewBox="2111 471 35 50" preserveAspectRatio="xMinYMin meet"><svg width="4380" height="2430"><g><image crossorigin="anonymous" x="0" y="0" href="https://nftpuzzle.license-token.com/assets/completepuzzle.svg" width="100%" height="100%" /><g class="links"><use href="#t2014"/></g></g></svg><svg x="2131" y="506" height="9%" width="9%" viewBox="0 0 330 330"><g><a xlink:href="https://nftpuzzle.license-token.com/" class="links"><title>See the most innovative NFT based token software licensing project</title><path fill="#E4CF37" id="more" d="M165,0C74.019,0,0,74.019,0,165s74.019,165,165,165s165-74.019,165-165S255.981,0,165,0z M85,190 c-13.785,0-25-11.215-25-25s11.215-25,25-25s25,11.215,25,25S98.785,190,85,190z M165,190c-13.785,0-25-11.215-25-25 s11.215-25,25-25s25,11.215,25,25S178.785,190,165,190z M245,190c-13.785,0-25-11.215-25-25s11.215-25,25-25 c13.785,0,25,11.215,25,25S258.785,190,245,190z"></path></a></g></svg></svg></svg>