<svg version="1.1" xmlns="http://www.w3.org/2000/svg" xmlns:xlink="http://www.w3.org/1999/xlink" fill="transparent" x="0" y="0" width="350" height="350" preserveAspectRatio="xMinYMin slice"><style type="text/css">.links{fill:transparent;stroke: #E4CF37;}.links:hover{fill:#63D272; opacity:0.4;}</style><defs><g id="allt"><path id="t2027" d="M2574,480 L2563,480 C2552,480 2567,476 2556,476 C2545,477 2559,480 2550,480 L2541,480 2541,480 L2539,490 C2538,501 2548,486 2549,494 C2551,503 2539,493 2540,502 L2541,512 2541,512 L2551,510 C2562,509 2547,519 2556,520 C2565,522 2554,510 2564,511 L2574,512 2574,512 L2574,501 C2574,491 2569,507 2568,497 C2567,488 2574,498 2574,489 L2574,480"/></g><clipPath id="c" clipRule="evenodd" fill="transparent"><use href="#t2027"/></clipPath></defs><svg viewBox="2537 475 38 48" preserveAspectRatio="xMinYMin meet"><svg width="4380" height="2430"><g><image crossorigin="anonymous" x="0" y="0" href="https://nftpuzzle.license-token.com/assets/completepuzzle.svg" width="100%" height="100%" /><g class="links"><use href="#t2027"/></g></g></svg><svg x="2560" y="508" height="9%" width="9%" viewBox="0 0 330 330"><g><a xlink:href="https://nftpuzzle.license-token.com/" class="links"><title>See the most innovative NFT based token software licensing project</title><path fill="#E4CF37" id="more" d="M165,0C74.019,0,0,74.019,0,165s74.019,165,165,165s165-74.019,165-165S255.981,0,165,0z M85,190 c-13.785,0-25-11.215-25-25s11.215-25,25-25s25,11.215,25,25S98.785,190,85,190z M165,190c-13.785,0-25-11.215-25-25 s11.215-25,25-25s25,11.215,25,25S178.785,190,165,190z M245,190c-13.785,0-25-11.215-25-25s11.215-25,25-25 c13.785,0,25,11.215,25,25S258.785,190,245,190z"></path></a></g></svg></svg></svg>