<svg version="1.1" xmlns="http://www.w3.org/2000/svg" xmlns:xlink="http://www.w3.org/1999/xlink" fill="transparent" x="0" y="0" width="350" height="350" preserveAspectRatio="xMinYMin slice"><style type="text/css">.links{fill:transparent;stroke: #E4CF37;}.links:hover{fill:#63D272; opacity:0.4;}</style><defs><g id="allt"><path id="t203" d="M2442,32 L2431,32 C2420,32 2434,21 2424,22 C2415,23 2429,35 2419,33 L2409,32 2409,32 L2409,42 C2409,52 2416,39 2415,48 C2414,57 2409,42 2409,53 L2409,64 2409,64 L2419,64 C2430,64 2416,71 2425,70 C2435,69 2420,64 2431,64 L2442,64 2442,64 L2442,53 C2442,43 2439,54 2438,47 C2438,40 2442,50 2442,41 L2442,32"/></g><clipPath id="c" clipRule="evenodd" fill="transparent"><use href="#t203"/></clipPath></defs><svg viewBox="2408 20 35 52" preserveAspectRatio="xMinYMin meet"><svg width="4380" height="2430"><g><image crossorigin="anonymous" x="0" y="0" href="https://nftpuzzle.license-token.com/assets/completepuzzle.svg" width="100%" height="100%" /><g class="links"><use href="#t203"/></g></g></svg><svg x="2428" y="57" height="9%" width="9%" viewBox="0 0 330 330"><g><a xlink:href="https://nftpuzzle.license-token.com/" class="links"><title>See the most innovative NFT based token software licensing project</title><path fill="#E4CF37" id="more" d="M165,0C74.019,0,0,74.019,0,165s74.019,165,165,165s165-74.019,165-165S255.981,0,165,0z M85,190 c-13.785,0-25-11.215-25-25s11.215-25,25-25s25,11.215,25,25S98.785,190,85,190z M165,190c-13.785,0-25-11.215-25-25 s11.215-25,25-25s25,11.215,25,25S178.785,190,165,190z M245,190c-13.785,0-25-11.215-25-25s11.215-25,25-25 c13.785,0,25,11.215,25,25S258.785,190,245,190z"></path></a></g></svg></svg></svg>