<svg version="1.1" xmlns="http://www.w3.org/2000/svg" xmlns:xlink="http://www.w3.org/1999/xlink" fill="transparent" x="0" y="0" width="350" height="350" preserveAspectRatio="xMinYMin slice"><style type="text/css">.links{fill:transparent;stroke: #E4CF37;}.links:hover{fill:#63D272; opacity:0.4;}</style><defs><g id="allt"><path id="t2036" d="M2871,480 L2860,481 C2850,482 2865,476 2854,476 C2843,476 2859,481 2848,480 L2838,480 2838,480 L2839,490 C2840,500 2835,489 2833,498 C2831,507 2841,492 2839,502 L2838,512 2838,512 L2848,513 C2858,514 2847,509 2856,507 C2866,505 2851,515 2861,513 L2871,512 2871,512 L2871,503 C2871,494 2862,505 2862,495 C2862,485 2871,501 2871,490 L2871,480"/></g><clipPath id="c" clipRule="evenodd" fill="transparent"><use href="#t2036"/></clipPath></defs><svg viewBox="2830 475 42 41" preserveAspectRatio="xMinYMin meet"><svg width="4380" height="2430"><g><image crossorigin="anonymous" x="0" y="0" href="https://nftpuzzle.license-token.com/assets/completepuzzle.svg" width="100%" height="100%" /><g class="links"><use href="#t2036"/></g></g></svg><svg x="2857" y="501" height="9%" width="9%" viewBox="0 0 330 330"><g><a xlink:href="https://nftpuzzle.license-token.com/" class="links"><title>See the most innovative NFT based token software licensing project</title><path fill="#E4CF37" id="more" d="M165,0C74.019,0,0,74.019,0,165s74.019,165,165,165s165-74.019,165-165S255.981,0,165,0z M85,190 c-13.785,0-25-11.215-25-25s11.215-25,25-25s25,11.215,25,25S98.785,190,85,190z M165,190c-13.785,0-25-11.215-25-25 s11.215-25,25-25s25,11.215,25,25S178.785,190,165,190z M245,190c-13.785,0-25-11.215-25-25s11.215-25,25-25 c13.785,0,25,11.215,25,25S258.785,190,245,190z"></path></a></g></svg></svg></svg>