<svg version="1.1" xmlns="http://www.w3.org/2000/svg" xmlns:xlink="http://www.w3.org/1999/xlink" fill="transparent" x="0" y="0" width="350" height="350" preserveAspectRatio="xMinYMin slice"><style type="text/css">.links{fill:transparent;stroke: #E4CF37;}.links:hover{fill:#63D272; opacity:0.4;}</style><defs><g id="allt"><path id="t204" d="M2475,32 L2463,32 C2452,32 2469,26 2459,23 C2450,20 2460,34 2451,33 L2442,32 2442,32 L2442,41 C2442,50 2438,40 2438,47 C2439,54 2442,43 2442,53 L2442,64 2442,64 L2451,64 C2461,64 2451,60 2458,60 C2465,61 2454,64 2464,64 L2475,64 2475,64 L2474,53 C2473,43 2481,55 2480,46 C2479,38 2473,50 2474,41 L2475,32"/></g><clipPath id="c" clipRule="evenodd" fill="transparent"><use href="#t204"/></clipPath></defs><svg viewBox="2437 19 45 46" preserveAspectRatio="xMinYMin meet"><svg width="4380" height="2430"><g><image crossorigin="anonymous" x="0" y="0" href="https://nftpuzzle.license-token.com/assets/completepuzzle.svg" width="100%" height="100%" /><g class="links"><use href="#t204"/></g></g></svg><svg x="2467" y="50" height="9%" width="9%" viewBox="0 0 330 330"><g><a xlink:href="https://nftpuzzle.license-token.com/" class="links"><title>See the most innovative NFT based token software licensing project</title><path fill="#E4CF37" id="more" d="M165,0C74.019,0,0,74.019,0,165s74.019,165,165,165s165-74.019,165-165S255.981,0,165,0z M85,190 c-13.785,0-25-11.215-25-25s11.215-25,25-25s25,11.215,25,25S98.785,190,85,190z M165,190c-13.785,0-25-11.215-25-25 s11.215-25,25-25s25,11.215,25,25S178.785,190,165,190z M245,190c-13.785,0-25-11.215-25-25s11.215-25,25-25 c13.785,0,25,11.215,25,25S258.785,190,245,190z"></path></a></g></svg></svg></svg>