<svg version="1.1" xmlns="http://www.w3.org/2000/svg" xmlns:xlink="http://www.w3.org/1999/xlink" fill="transparent" x="0" y="0" width="350" height="350" preserveAspectRatio="xMinYMin slice"><style type="text/css">.links{fill:transparent;stroke: #E4CF37;}.links:hover{fill:#63D272; opacity:0.4;}</style><defs><g id="allt"><path id="t2040" d="M3003,480 L2993,480 C2984,481 2994,476 2986,476 C2978,476 2991,482 2980,481 L2970,480 2970,480 L2971,490 C2973,501 2962,488 2964,497 C2966,506 2970,491 2970,501 L2970,512 2970,512 L2981,513 C2992,515 2978,504 2987,506 C2997,508 2982,512 2992,512 L3003,512 3003,512 L3003,501 C3003,491 3006,503 3006,495 C3006,487 3002,500 3002,490 L3003,480"/></g><clipPath id="c" clipRule="evenodd" fill="transparent"><use href="#t2040"/></clipPath></defs><svg viewBox="2961 475 46 41" preserveAspectRatio="xMinYMin meet"><svg width="4380" height="2430"><g><image crossorigin="anonymous" x="0" y="0" href="https://nftpuzzle.license-token.com/assets/completepuzzle.svg" width="100%" height="100%" /><g class="links"><use href="#t2040"/></g></g></svg><svg x="2992" y="501" height="9%" width="9%" viewBox="0 0 330 330"><g><a xlink:href="https://nftpuzzle.license-token.com/" class="links"><title>See the most innovative NFT based token software licensing project</title><path fill="#E4CF37" id="more" d="M165,0C74.019,0,0,74.019,0,165s74.019,165,165,165s165-74.019,165-165S255.981,0,165,0z M85,190 c-13.785,0-25-11.215-25-25s11.215-25,25-25s25,11.215,25,25S98.785,190,85,190z M165,190c-13.785,0-25-11.215-25-25 s11.215-25,25-25s25,11.215,25,25S178.785,190,165,190z M245,190c-13.785,0-25-11.215-25-25s11.215-25,25-25 c13.785,0,25,11.215,25,25S258.785,190,245,190z"></path></a></g></svg></svg></svg>