<svg version="1.1" xmlns="http://www.w3.org/2000/svg" xmlns:xlink="http://www.w3.org/1999/xlink" fill="transparent" x="0" y="0" width="350" height="350" preserveAspectRatio="xMinYMin slice"><style type="text/css">.links{fill:transparent;stroke: #E4CF37;}.links:hover{fill:#63D272; opacity:0.4;}</style><defs><g id="allt"><path id="t2042" d="M3069,480 L3058,482 C3047,484 3061,474 3052,471 C3043,468 3056,484 3046,482 L3036,480 3036,480 L3036,489 C3036,499 3045,487 3044,496 C3043,505 3036,492 3036,502 L3036,512 3036,512 L3046,512 C3056,512 3043,520 3052,519 C3062,519 3049,512 3059,512 L3069,512 3069,512 L3070,501 C3072,491 3062,507 3061,496 C3060,486 3073,499 3071,489 L3069,480"/></g><clipPath id="c" clipRule="evenodd" fill="transparent"><use href="#t2042"/></clipPath></defs><svg viewBox="3035 467 39 54" preserveAspectRatio="xMinYMin meet"><svg width="4380" height="2430"><g><image crossorigin="anonymous" x="0" y="0" href="https://nftpuzzle.license-token.com/assets/completepuzzle.svg" width="100%" height="100%" /><g class="links"><use href="#t2042"/></g></g></svg><svg x="3059" y="506" height="9%" width="9%" viewBox="0 0 330 330"><g><a xlink:href="https://nftpuzzle.license-token.com/" class="links"><title>See the most innovative NFT based token software licensing project</title><path fill="#E4CF37" id="more" d="M165,0C74.019,0,0,74.019,0,165s74.019,165,165,165s165-74.019,165-165S255.981,0,165,0z M85,190 c-13.785,0-25-11.215-25-25s11.215-25,25-25s25,11.215,25,25S98.785,190,85,190z M165,190c-13.785,0-25-11.215-25-25 s11.215-25,25-25s25,11.215,25,25S178.785,190,165,190z M245,190c-13.785,0-25-11.215-25-25s11.215-25,25-25 c13.785,0,25,11.215,25,25S258.785,190,245,190z"></path></a></g></svg></svg></svg>