<svg version="1.1" xmlns="http://www.w3.org/2000/svg" xmlns:xlink="http://www.w3.org/1999/xlink" fill="transparent" x="0" y="0" width="350" height="350" preserveAspectRatio="xMinYMin slice"><style type="text/css">.links{fill:transparent;stroke: #E4CF37;}.links:hover{fill:#63D272; opacity:0.4;}</style><defs><g id="allt"><path id="t2043" d="M3102,480 L3091,481 C3080,483 3092,474 3084,471 C3077,469 3091,480 3080,480 L3069,480 3069,480 L3071,489 C3073,499 3060,486 3061,496 C3062,507 3072,491 3070,501 L3069,512 3069,512 L3078,514 C3088,516 3075,503 3086,504 C3097,505 3080,515 3091,513 L3102,512 3102,512 L3104,502 C3106,493 3097,504 3094,494 C3092,485 3102,501 3102,490 L3102,480"/></g><clipPath id="c" clipRule="evenodd" fill="transparent"><use href="#t2043"/></clipPath></defs><svg viewBox="3059 468 48 49" preserveAspectRatio="xMinYMin meet"><svg width="4380" height="2430"><g><image crossorigin="anonymous" x="0" y="0" href="https://nftpuzzle.license-token.com/assets/completepuzzle.svg" width="100%" height="100%" /><g class="links"><use href="#t2043"/></g></g></svg><svg x="3092" y="502" height="9%" width="9%" viewBox="0 0 330 330"><g><a xlink:href="https://nftpuzzle.license-token.com/" class="links"><title>See the most innovative NFT based token software licensing project</title><path fill="#E4CF37" id="more" d="M165,0C74.019,0,0,74.019,0,165s74.019,165,165,165s165-74.019,165-165S255.981,0,165,0z M85,190 c-13.785,0-25-11.215-25-25s11.215-25,25-25s25,11.215,25,25S98.785,190,85,190z M165,190c-13.785,0-25-11.215-25-25 s11.215-25,25-25s25,11.215,25,25S178.785,190,165,190z M245,190c-13.785,0-25-11.215-25-25s11.215-25,25-25 c13.785,0,25,11.215,25,25S258.785,190,245,190z"></path></a></g></svg></svg></svg>