<svg version="1.1" xmlns="http://www.w3.org/2000/svg" xmlns:xlink="http://www.w3.org/1999/xlink" fill="transparent" x="0" y="0" width="350" height="350" preserveAspectRatio="xMinYMin slice"><style type="text/css">.links{fill:transparent;stroke: #E4CF37;}.links:hover{fill:#63D272; opacity:0.4;}</style><defs><g id="allt"><path id="t2044" d="M3135,480 L3123,479 C3112,479 3129,483 3119,482 C3109,482 3121,478 3111,479 L3102,480 3102,480 L3102,490 C3102,501 3092,485 3094,494 C3097,504 3106,493 3104,502 L3102,512 3102,512 L3112,512 C3123,512 3107,502 3117,504 C3127,507 3115,516 3125,514 L3135,512 3135,512 L3135,503 C3135,494 3132,505 3132,496 C3133,488 3136,498 3135,489 L3135,480"/></g><clipPath id="c" clipRule="evenodd" fill="transparent"><use href="#t2044"/></clipPath></defs><svg viewBox="3091 477 46 40" preserveAspectRatio="xMinYMin meet"><svg width="4380" height="2430"><g><image crossorigin="anonymous" x="0" y="0" href="https://nftpuzzle.license-token.com/assets/completepuzzle.svg" width="100%" height="100%" /><g class="links"><use href="#t2044"/></g></g></svg><svg x="3122" y="502" height="9%" width="9%" viewBox="0 0 330 330"><g><a xlink:href="https://nftpuzzle.license-token.com/" class="links"><title>See the most innovative NFT based token software licensing project</title><path fill="#E4CF37" id="more" d="M165,0C74.019,0,0,74.019,0,165s74.019,165,165,165s165-74.019,165-165S255.981,0,165,0z M85,190 c-13.785,0-25-11.215-25-25s11.215-25,25-25s25,11.215,25,25S98.785,190,85,190z M165,190c-13.785,0-25-11.215-25-25 s11.215-25,25-25s25,11.215,25,25S178.785,190,165,190z M245,190c-13.785,0-25-11.215-25-25s11.215-25,25-25 c13.785,0,25,11.215,25,25S258.785,190,245,190z"></path></a></g></svg></svg></svg>