<svg version="1.1" xmlns="http://www.w3.org/2000/svg" xmlns:xlink="http://www.w3.org/1999/xlink" fill="transparent" x="0" y="0" width="350" height="350" preserveAspectRatio="xMinYMin slice"><style type="text/css">.links{fill:transparent;stroke: #E4CF37;}.links:hover{fill:#63D272; opacity:0.4;}</style><defs><g id="allt"><path id="t2047" d="M3234,480 L3223,479 C3212,478 3228,487 3218,487 C3208,487 3222,479 3211,479 L3201,480 3201,480 L3201,489 C3201,499 3192,485 3193,495 C3195,505 3206,491 3203,501 L3201,512 3201,512 L3211,512 C3221,512 3206,503 3216,504 C3227,506 3213,517 3223,514 L3234,512 3234,512 L3234,502 C3234,493 3242,507 3243,496 C3244,485 3232,501 3233,490 L3234,480"/></g><clipPath id="c" clipRule="evenodd" fill="transparent"><use href="#t2047"/></clipPath></defs><svg viewBox="3191 477 54 41" preserveAspectRatio="xMinYMin meet"><svg width="4380" height="2430"><g><image crossorigin="anonymous" x="0" y="0" href="https://nftpuzzle.license-token.com/assets/completepuzzle.svg" width="100%" height="100%" /><g class="links"><use href="#t2047"/></g></g></svg><svg x="3230" y="503" height="9%" width="9%" viewBox="0 0 330 330"><g><a xlink:href="https://nftpuzzle.license-token.com/" class="links"><title>See the most innovative NFT based token software licensing project</title><path fill="#E4CF37" id="more" d="M165,0C74.019,0,0,74.019,0,165s74.019,165,165,165s165-74.019,165-165S255.981,0,165,0z M85,190 c-13.785,0-25-11.215-25-25s11.215-25,25-25s25,11.215,25,25S98.785,190,85,190z M165,190c-13.785,0-25-11.215-25-25 s11.215-25,25-25s25,11.215,25,25S178.785,190,165,190z M245,190c-13.785,0-25-11.215-25-25s11.215-25,25-25 c13.785,0,25,11.215,25,25S258.785,190,245,190z"></path></a></g></svg></svg></svg>