<svg version="1.1" xmlns="http://www.w3.org/2000/svg" xmlns:xlink="http://www.w3.org/1999/xlink" fill="transparent" x="0" y="0" width="350" height="350" preserveAspectRatio="xMinYMin slice"><style type="text/css">.links{fill:transparent;stroke: #E4CF37;}.links:hover{fill:#63D272; opacity:0.4;}</style><defs><g id="allt"><path id="t2050" d="M3333,480 L3322,480 C3312,480 3327,483 3316,483 C3306,484 3320,479 3310,479 L3300,480 3300,480 L3300,490 C3300,500 3296,486 3295,496 C3295,507 3303,493 3301,502 L3300,512 3300,512 L3310,512 C3320,512 3306,508 3317,507 C3328,507 3313,515 3323,513 L3333,512 3333,512 L3333,502 C3334,492 3330,506 3329,496 C3329,487 3333,498 3333,489 L3333,480"/></g><clipPath id="c" clipRule="evenodd" fill="transparent"><use href="#t2050"/></clipPath></defs><svg viewBox="3294 478 41 38" preserveAspectRatio="xMinYMin meet"><svg width="4380" height="2430"><g><image crossorigin="anonymous" x="0" y="0" href="https://nftpuzzle.license-token.com/assets/completepuzzle.svg" width="100%" height="100%" /><g class="links"><use href="#t2050"/></g></g></svg><svg x="3320" y="501" height="9%" width="9%" viewBox="0 0 330 330"><g><a xlink:href="https://nftpuzzle.license-token.com/" class="links"><title>See the most innovative NFT based token software licensing project</title><path fill="#E4CF37" id="more" d="M165,0C74.019,0,0,74.019,0,165s74.019,165,165,165s165-74.019,165-165S255.981,0,165,0z M85,190 c-13.785,0-25-11.215-25-25s11.215-25,25-25s25,11.215,25,25S98.785,190,85,190z M165,190c-13.785,0-25-11.215-25-25 s11.215-25,25-25s25,11.215,25,25S178.785,190,165,190z M245,190c-13.785,0-25-11.215-25-25s11.215-25,25-25 c13.785,0,25,11.215,25,25S258.785,190,245,190z"></path></a></g></svg></svg></svg>