<svg version="1.1" xmlns="http://www.w3.org/2000/svg" xmlns:xlink="http://www.w3.org/1999/xlink" fill="transparent" x="0" y="0" width="350" height="350" preserveAspectRatio="xMinYMin slice"><style type="text/css">.links{fill:transparent;stroke: #E4CF37;}.links:hover{fill:#63D272; opacity:0.4;}</style><defs><g id="allt"><path id="t2051" d="M3366,480 L3355,480 C3345,480 3358,488 3350,488 C3342,489 3355,480 3344,480 L3333,480 3333,480 L3333,489 C3333,498 3329,487 3329,496 C3330,506 3334,492 3333,502 L3333,512 3333,512 L3342,512 C3351,512 3340,508 3350,508 C3360,509 3346,513 3356,512 L3366,512 3366,512 L3367,501 C3369,490 3358,507 3358,497 C3359,488 3369,498 3367,489 L3366,480"/></g><clipPath id="c" clipRule="evenodd" fill="transparent"><use href="#t2051"/></clipPath></defs><svg viewBox="3328 479 42 35" preserveAspectRatio="xMinYMin meet"><svg width="4380" height="2430"><g><image crossorigin="anonymous" x="0" y="0" href="https://nftpuzzle.license-token.com/assets/completepuzzle.svg" width="100%" height="100%" /><g class="links"><use href="#t2051"/></g></g></svg><svg x="3355" y="499" height="9%" width="9%" viewBox="0 0 330 330"><g><a xlink:href="https://nftpuzzle.license-token.com/" class="links"><title>See the most innovative NFT based token software licensing project</title><path fill="#E4CF37" id="more" d="M165,0C74.019,0,0,74.019,0,165s74.019,165,165,165s165-74.019,165-165S255.981,0,165,0z M85,190 c-13.785,0-25-11.215-25-25s11.215-25,25-25s25,11.215,25,25S98.785,190,85,190z M165,190c-13.785,0-25-11.215-25-25 s11.215-25,25-25s25,11.215,25,25S178.785,190,165,190z M245,190c-13.785,0-25-11.215-25-25s11.215-25,25-25 c13.785,0,25,11.215,25,25S258.785,190,245,190z"></path></a></g></svg></svg></svg>