<svg version="1.1" xmlns="http://www.w3.org/2000/svg" xmlns:xlink="http://www.w3.org/1999/xlink" fill="transparent" x="0" y="0" width="350" height="350" preserveAspectRatio="xMinYMin slice"><style type="text/css">.links{fill:transparent;stroke: #E4CF37;}.links:hover{fill:#63D272; opacity:0.4;}</style><defs><g id="allt"><path id="t2052" d="M3399,480 L3388,480 C3377,480 3392,471 3381,471 C3371,472 3385,482 3375,481 L3366,480 3366,480 L3367,489 C3369,498 3359,488 3358,497 C3358,507 3369,490 3367,501 L3366,512 3366,512 L3375,513 C3384,515 3374,505 3384,504 C3394,504 3376,515 3387,513 L3399,512 3399,512 L3399,502 C3399,492 3404,502 3403,493 C3402,485 3399,501 3399,490 L3399,480"/></g><clipPath id="c" clipRule="evenodd" fill="transparent"><use href="#t2052"/></clipPath></defs><svg viewBox="3357 470 48 46" preserveAspectRatio="xMinYMin meet"><svg width="4380" height="2430"><g><image crossorigin="anonymous" x="0" y="0" href="https://nftpuzzle.license-token.com/assets/completepuzzle.svg" width="100%" height="100%" /><g class="links"><use href="#t2052"/></g></g></svg><svg x="3390" y="501" height="9%" width="9%" viewBox="0 0 330 330"><g><a xlink:href="https://nftpuzzle.license-token.com/" class="links"><title>See the most innovative NFT based token software licensing project</title><path fill="#E4CF37" id="more" d="M165,0C74.019,0,0,74.019,0,165s74.019,165,165,165s165-74.019,165-165S255.981,0,165,0z M85,190 c-13.785,0-25-11.215-25-25s11.215-25,25-25s25,11.215,25,25S98.785,190,85,190z M165,190c-13.785,0-25-11.215-25-25 s11.215-25,25-25s25,11.215,25,25S178.785,190,165,190z M245,190c-13.785,0-25-11.215-25-25s11.215-25,25-25 c13.785,0,25,11.215,25,25S258.785,190,245,190z"></path></a></g></svg></svg></svg>