<svg version="1.1" xmlns="http://www.w3.org/2000/svg" xmlns:xlink="http://www.w3.org/1999/xlink" fill="transparent" x="0" y="0" width="350" height="350" preserveAspectRatio="xMinYMin slice"><style type="text/css">.links{fill:transparent;stroke: #E4CF37;}.links:hover{fill:#63D272; opacity:0.4;}</style><defs><g id="allt"><path id="t2053" d="M3432,480 L3422,480 C3412,480 3422,476 3413,475 C3405,474 3420,483 3409,481 L3399,480 3399,480 L3399,490 C3399,501 3402,485 3403,493 C3404,502 3399,492 3399,502 L3399,512 3399,512 L3409,512 C3420,512 3404,515 3413,516 C3422,517 3412,512 3422,512 L3432,512 3432,512 L3433,503 C3434,494 3428,503 3428,494 C3428,485 3432,499 3432,489 L3432,480"/></g><clipPath id="c" clipRule="evenodd" fill="transparent"><use href="#t2053"/></clipPath></defs><svg viewBox="3398 473 37 45" preserveAspectRatio="xMinYMin meet"><svg width="4380" height="2430"><g><image crossorigin="anonymous" x="0" y="0" href="https://nftpuzzle.license-token.com/assets/completepuzzle.svg" width="100%" height="100%" /><g class="links"><use href="#t2053"/></g></g></svg><svg x="3420" y="503" height="9%" width="9%" viewBox="0 0 330 330"><g><a xlink:href="https://nftpuzzle.license-token.com/" class="links"><title>See the most innovative NFT based token software licensing project</title><path fill="#E4CF37" id="more" d="M165,0C74.019,0,0,74.019,0,165s74.019,165,165,165s165-74.019,165-165S255.981,0,165,0z M85,190 c-13.785,0-25-11.215-25-25s11.215-25,25-25s25,11.215,25,25S98.785,190,85,190z M165,190c-13.785,0-25-11.215-25-25 s11.215-25,25-25s25,11.215,25,25S178.785,190,165,190z M245,190c-13.785,0-25-11.215-25-25s11.215-25,25-25 c13.785,0,25,11.215,25,25S258.785,190,245,190z"></path></a></g></svg></svg></svg>