<svg version="1.1" xmlns="http://www.w3.org/2000/svg" xmlns:xlink="http://www.w3.org/1999/xlink" fill="transparent" x="0" y="0" width="350" height="350" preserveAspectRatio="xMinYMin slice"><style type="text/css">.links{fill:transparent;stroke: #E4CF37;}.links:hover{fill:#63D272; opacity:0.4;}</style><defs><g id="allt"><path id="t2055" d="M3498,480 L3487,480 C3476,480 3489,474 3479,473 C3470,472 3484,480 3474,480 L3465,480 3465,480 L3467,490 C3470,500 3456,484 3455,495 C3455,506 3467,494 3466,503 L3465,512 3465,512 L3475,514 C3485,517 3469,503 3480,502 C3492,502 3479,514 3488,513 L3498,512 3498,512 L3498,501 C3498,491 3496,502 3495,493 C3494,484 3498,500 3498,490 L3498,480"/></g><clipPath id="c" clipRule="evenodd" fill="transparent"><use href="#t2055"/></clipPath></defs><svg viewBox="3454 471 45 47" preserveAspectRatio="xMinYMin meet"><svg width="4380" height="2430"><g><image crossorigin="anonymous" x="0" y="0" href="https://nftpuzzle.license-token.com/assets/completepuzzle.svg" width="100%" height="100%" /><g class="links"><use href="#t2055"/></g></g></svg><svg x="3484" y="503" height="9%" width="9%" viewBox="0 0 330 330"><g><a xlink:href="https://nftpuzzle.license-token.com/" class="links"><title>See the most innovative NFT based token software licensing project</title><path fill="#E4CF37" id="more" d="M165,0C74.019,0,0,74.019,0,165s74.019,165,165,165s165-74.019,165-165S255.981,0,165,0z M85,190 c-13.785,0-25-11.215-25-25s11.215-25,25-25s25,11.215,25,25S98.785,190,85,190z M165,190c-13.785,0-25-11.215-25-25 s11.215-25,25-25s25,11.215,25,25S178.785,190,165,190z M245,190c-13.785,0-25-11.215-25-25s11.215-25,25-25 c13.785,0,25,11.215,25,25S258.785,190,245,190z"></path></a></g></svg></svg></svg>