<svg version="1.1" xmlns="http://www.w3.org/2000/svg" xmlns:xlink="http://www.w3.org/1999/xlink" fill="transparent" x="0" y="0" width="350" height="350" preserveAspectRatio="xMinYMin slice"><style type="text/css">.links{fill:transparent;stroke: #E4CF37;}.links:hover{fill:#63D272; opacity:0.4;}</style><defs><g id="allt"><path id="t2069" d="M3960,480 L3949,480 C3939,480 3953,483 3944,484 C3935,485 3946,479 3936,479 L3927,480 3927,480 L3927,489 C3927,499 3920,488 3920,496 C3921,505 3927,491 3927,501 L3927,512 3927,512 L3936,512 C3946,512 3936,505 3944,505 C3953,506 3938,512 3949,512 L3960,512 3960,512 L3961,501 C3962,490 3953,506 3950,496 C3948,487 3960,499 3960,489 L3960,480"/></g><clipPath id="c" clipRule="evenodd" fill="transparent"><use href="#t2069"/></clipPath></defs><svg viewBox="3919 478 44 35" preserveAspectRatio="xMinYMin meet"><svg width="4380" height="2430"><g><image crossorigin="anonymous" x="0" y="0" href="https://nftpuzzle.license-token.com/assets/completepuzzle.svg" width="100%" height="100%" /><g class="links"><use href="#t2069"/></g></g></svg><svg x="3948" y="498" height="9%" width="9%" viewBox="0 0 330 330"><g><a xlink:href="https://nftpuzzle.license-token.com/" class="links"><title>See the most innovative NFT based token software licensing project</title><path fill="#E4CF37" id="more" d="M165,0C74.019,0,0,74.019,0,165s74.019,165,165,165s165-74.019,165-165S255.981,0,165,0z M85,190 c-13.785,0-25-11.215-25-25s11.215-25,25-25s25,11.215,25,25S98.785,190,85,190z M165,190c-13.785,0-25-11.215-25-25 s11.215-25,25-25s25,11.215,25,25S178.785,190,165,190z M245,190c-13.785,0-25-11.215-25-25s11.215-25,25-25 c13.785,0,25,11.215,25,25S258.785,190,245,190z"></path></a></g></svg></svg></svg>