<svg version="1.1" xmlns="http://www.w3.org/2000/svg" xmlns:xlink="http://www.w3.org/1999/xlink" fill="transparent" x="0" y="0" width="350" height="350" preserveAspectRatio="xMinYMin slice"><style type="text/css">.links{fill:transparent;stroke: #E4CF37;}.links:hover{fill:#63D272; opacity:0.4;}</style><defs><g id="allt"><path id="t2074" d="M4125,480 L4114,479 C4103,479 4118,490 4109,489 C4100,489 4110,479 4101,479 L4092,480 4092,480 L4092,488 C4092,497 4099,488 4099,495 C4099,503 4092,493 4092,502 L4092,512 4092,512 L4101,512 C4110,512 4100,519 4108,519 C4116,519 4105,512 4115,512 L4125,512 4125,512 L4125,501 C4125,490 4129,504 4130,494 C4132,485 4125,499 4125,489 L4125,480"/></g><clipPath id="c" clipRule="evenodd" fill="transparent"><use href="#t2074"/></clipPath></defs><svg viewBox="4091 478 42 42" preserveAspectRatio="xMinYMin meet"><svg width="4380" height="2430"><g><image crossorigin="anonymous" x="0" y="0" href="https://nftpuzzle.license-token.com/assets/completepuzzle.svg" width="100%" height="100%" /><g class="links"><use href="#t2074"/></g></g></svg><svg x="4118" y="505" height="9%" width="9%" viewBox="0 0 330 330"><g><a xlink:href="https://nftpuzzle.license-token.com/" class="links"><title>See the most innovative NFT based token software licensing project</title><path fill="#E4CF37" id="more" d="M165,0C74.019,0,0,74.019,0,165s74.019,165,165,165s165-74.019,165-165S255.981,0,165,0z M85,190 c-13.785,0-25-11.215-25-25s11.215-25,25-25s25,11.215,25,25S98.785,190,85,190z M165,190c-13.785,0-25-11.215-25-25 s11.215-25,25-25s25,11.215,25,25S178.785,190,165,190z M245,190c-13.785,0-25-11.215-25-25s11.215-25,25-25 c13.785,0,25,11.215,25,25S258.785,190,245,190z"></path></a></g></svg></svg></svg>