<svg version="1.1" xmlns="http://www.w3.org/2000/svg" xmlns:xlink="http://www.w3.org/1999/xlink" fill="transparent" x="0" y="0" width="350" height="350" preserveAspectRatio="xMinYMin slice"><style type="text/css">.links{fill:transparent;stroke: #E4CF37;}.links:hover{fill:#63D272; opacity:0.4;}</style><defs><g id="allt"><path id="t2076" d="M4191,480 L4181,481 C4171,482 4183,474 4175,476 C4167,478 4177,482 4167,481 L4158,480 4158,480 L4159,490 C4160,501 4154,488 4154,497 C4154,506 4158,493 4158,502 L4158,512 4158,512 L4168,513 C4179,514 4166,508 4175,508 C4185,508 4172,512 4181,512 L4191,512 4191,512 L4190,502 C4189,493 4195,504 4196,495 C4197,486 4187,500 4189,490 L4191,480"/></g><clipPath id="c" clipRule="evenodd" fill="transparent"><use href="#t2076"/></clipPath></defs><svg viewBox="4153 473 45 42" preserveAspectRatio="xMinYMin meet"><svg width="4380" height="2430"><g><image crossorigin="anonymous" x="0" y="0" href="https://nftpuzzle.license-token.com/assets/completepuzzle.svg" width="100%" height="100%" /><g class="links"><use href="#t2076"/></g></g></svg><svg x="4183" y="500" height="9%" width="9%" viewBox="0 0 330 330"><g><a xlink:href="https://nftpuzzle.license-token.com/" class="links"><title>See the most innovative NFT based token software licensing project</title><path fill="#E4CF37" id="more" d="M165,0C74.019,0,0,74.019,0,165s74.019,165,165,165s165-74.019,165-165S255.981,0,165,0z M85,190 c-13.785,0-25-11.215-25-25s11.215-25,25-25s25,11.215,25,25S98.785,190,85,190z M165,190c-13.785,0-25-11.215-25-25 s11.215-25,25-25s25,11.215,25,25S178.785,190,165,190z M245,190c-13.785,0-25-11.215-25-25s11.215-25,25-25 c13.785,0,25,11.215,25,25S258.785,190,245,190z"></path></a></g></svg></svg></svg>