<svg version="1.1" xmlns="http://www.w3.org/2000/svg" xmlns:xlink="http://www.w3.org/1999/xlink" fill="transparent" x="0" y="0" width="350" height="350" preserveAspectRatio="xMinYMin slice"><style type="text/css">.links{fill:transparent;stroke: #E4CF37;}.links:hover{fill:#63D272; opacity:0.4;}</style><defs><g id="allt"><path id="t2091" d="M396,512 L386,512 C376,512 390,503 379,503 C368,503 381,515 372,513 L363,512 363,512 L364,521 C366,531 360,519 360,528 C360,537 364,523 363,533 L363,544 363,544 L372,545 C382,547 370,541 379,541 C389,541 374,545 385,544 L396,544 396,544 L396,534 C396,525 388,536 388,528 C389,520 398,531 397,521 L396,512"/></g><clipPath id="c" clipRule="evenodd" fill="transparent"><use href="#t2091"/></clipPath></defs><svg viewBox="359 502 40 46" preserveAspectRatio="xMinYMin meet"><svg width="4380" height="2430"><g><image crossorigin="anonymous" x="0" y="0" href="https://nftpuzzle.license-token.com/assets/completepuzzle.svg" width="100%" height="100%" /><g class="links"><use href="#t2091"/></g></g></svg><svg x="384" y="533" height="9%" width="9%" viewBox="0 0 330 330"><g><a xlink:href="https://nftpuzzle.license-token.com/" class="links"><title>See the most innovative NFT based token software licensing project</title><path fill="#E4CF37" id="more" d="M165,0C74.019,0,0,74.019,0,165s74.019,165,165,165s165-74.019,165-165S255.981,0,165,0z M85,190 c-13.785,0-25-11.215-25-25s11.215-25,25-25s25,11.215,25,25S98.785,190,85,190z M165,190c-13.785,0-25-11.215-25-25 s11.215-25,25-25s25,11.215,25,25S178.785,190,165,190z M245,190c-13.785,0-25-11.215-25-25s11.215-25,25-25 c13.785,0,25,11.215,25,25S258.785,190,245,190z"></path></a></g></svg></svg></svg>