<svg version="1.1" xmlns="http://www.w3.org/2000/svg" xmlns:xlink="http://www.w3.org/1999/xlink" fill="transparent" x="0" y="0" width="350" height="350" preserveAspectRatio="xMinYMin slice"><style type="text/css">.links{fill:transparent;stroke: #E4CF37;}.links:hover{fill:#63D272; opacity:0.4;}</style><defs><g id="allt"><path id="t211" d="M2706,32 L2696,31 C2687,31 2700,38 2689,38 C2679,39 2691,32 2682,32 L2673,32 2673,32 L2672,41 C2671,51 2682,37 2680,46 C2679,56 2671,43 2672,53 L2673,64 2673,64 L2683,63 C2693,62 2678,73 2688,71 C2698,70 2684,62 2695,63 L2706,64 2706,64 L2706,55 C2706,46 2715,57 2714,48 C2713,39 2706,50 2706,41 L2706,32"/></g><clipPath id="c" clipRule="evenodd" fill="transparent"><use href="#t211"/></clipPath></defs><svg viewBox="2670 30 46 44" preserveAspectRatio="xMinYMin meet"><svg width="4380" height="2430"><g><image crossorigin="anonymous" x="0" y="0" href="https://nftpuzzle.license-token.com/assets/completepuzzle.svg" width="100%" height="100%" /><g class="links"><use href="#t211"/></g></g></svg><svg x="2701" y="59" height="9%" width="9%" viewBox="0 0 330 330"><g><a xlink:href="https://nftpuzzle.license-token.com/" class="links"><title>See the most innovative NFT based token software licensing project</title><path fill="#E4CF37" id="more" d="M165,0C74.019,0,0,74.019,0,165s74.019,165,165,165s165-74.019,165-165S255.981,0,165,0z M85,190 c-13.785,0-25-11.215-25-25s11.215-25,25-25s25,11.215,25,25S98.785,190,85,190z M165,190c-13.785,0-25-11.215-25-25 s11.215-25,25-25s25,11.215,25,25S178.785,190,165,190z M245,190c-13.785,0-25-11.215-25-25s11.215-25,25-25 c13.785,0,25,11.215,25,25S258.785,190,245,190z"></path></a></g></svg></svg></svg>