<svg version="1.1" xmlns="http://www.w3.org/2000/svg" xmlns:xlink="http://www.w3.org/1999/xlink" fill="transparent" x="0" y="0" width="350" height="350" preserveAspectRatio="xMinYMin slice"><style type="text/css">.links{fill:transparent;stroke: #E4CF37;}.links:hover{fill:#63D272; opacity:0.4;}</style><defs><g id="allt"><path id="t2110" d="M1023,512 L1011,512 C1000,512 1014,508 1005,507 C997,506 1008,512 999,512 L990,512 990,512 L990,522 C990,532 980,519 980,528 C981,538 995,523 992,533 L990,544 990,544 L1000,544 C1011,544 997,534 1007,534 C1017,535 1002,549 1012,546 L1023,544 1023,544 L1024,534 C1025,525 1013,536 1016,528 C1019,520 1026,533 1024,522 L1023,512"/></g><clipPath id="c" clipRule="evenodd" fill="transparent"><use href="#t2110"/></clipPath></defs><svg viewBox="979 505 48 45" preserveAspectRatio="xMinYMin meet"><svg width="4380" height="2430"><g><image crossorigin="anonymous" x="0" y="0" href="https://nftpuzzle.license-token.com/assets/completepuzzle.svg" width="100%" height="100%" /><g class="links"><use href="#t2110"/></g></g></svg><svg x="1012" y="535" height="9%" width="9%" viewBox="0 0 330 330"><g><a xlink:href="https://nftpuzzle.license-token.com/" class="links"><title>See the most innovative NFT based token software licensing project</title><path fill="#E4CF37" id="more" d="M165,0C74.019,0,0,74.019,0,165s74.019,165,165,165s165-74.019,165-165S255.981,0,165,0z M85,190 c-13.785,0-25-11.215-25-25s11.215-25,25-25s25,11.215,25,25S98.785,190,85,190z M165,190c-13.785,0-25-11.215-25-25 s11.215-25,25-25s25,11.215,25,25S178.785,190,165,190z M245,190c-13.785,0-25-11.215-25-25s11.215-25,25-25 c13.785,0,25,11.215,25,25S258.785,190,245,190z"></path></a></g></svg></svg></svg>