<svg version="1.1" xmlns="http://www.w3.org/2000/svg" xmlns:xlink="http://www.w3.org/1999/xlink" fill="transparent" x="0" y="0" width="350" height="350" preserveAspectRatio="xMinYMin slice"><style type="text/css">.links{fill:transparent;stroke: #E4CF37;}.links:hover{fill:#63D272; opacity:0.4;}</style><defs><g id="allt"><path id="t2113" d="M1122,512 L1112,512 C1103,513 1112,505 1104,506 C1097,507 1109,514 1099,513 L1089,512 1089,512 L1089,522 C1089,532 1084,519 1085,528 C1086,538 1090,525 1089,534 L1089,544 1089,544 L1099,544 C1110,544 1096,539 1106,540 C1116,541 1103,545 1112,544 L1122,544 1122,544 L1125,533 C1128,523 1110,538 1113,529 C1116,520 1125,530 1123,521 L1122,512"/></g><clipPath id="c" clipRule="evenodd" fill="transparent"><use href="#t2113"/></clipPath></defs><svg viewBox="1083 504 46 42" preserveAspectRatio="xMinYMin meet"><svg width="4380" height="2430"><g><image crossorigin="anonymous" x="0" y="0" href="https://nftpuzzle.license-token.com/assets/completepuzzle.svg" width="100%" height="100%" /><g class="links"><use href="#t2113"/></g></g></svg><svg x="1114" y="531" height="9%" width="9%" viewBox="0 0 330 330"><g><a xlink:href="https://nftpuzzle.license-token.com/" class="links"><title>See the most innovative NFT based token software licensing project</title><path fill="#E4CF37" id="more" d="M165,0C74.019,0,0,74.019,0,165s74.019,165,165,165s165-74.019,165-165S255.981,0,165,0z M85,190 c-13.785,0-25-11.215-25-25s11.215-25,25-25s25,11.215,25,25S98.785,190,85,190z M165,190c-13.785,0-25-11.215-25-25 s11.215-25,25-25s25,11.215,25,25S178.785,190,165,190z M245,190c-13.785,0-25-11.215-25-25s11.215-25,25-25 c13.785,0,25,11.215,25,25S258.785,190,245,190z"></path></a></g></svg></svg></svg>