<svg version="1.1" xmlns="http://www.w3.org/2000/svg" xmlns:xlink="http://www.w3.org/1999/xlink" fill="transparent" x="0" y="0" width="350" height="350" preserveAspectRatio="xMinYMin slice"><style type="text/css">.links{fill:transparent;stroke: #E4CF37;}.links:hover{fill:#63D272; opacity:0.4;}</style><defs><g id="allt"><path id="t2118" d="M1287,512 L1276,511 C1265,511 1281,520 1271,520 C1262,520 1274,512 1264,512 L1254,512 1254,512 L1255,522 C1257,532 1244,518 1244,526 C1244,535 1254,523 1254,533 L1254,544 1254,544 L1264,545 C1275,547 1260,534 1268,534 C1277,534 1265,544 1276,544 L1287,544 1287,544 L1285,534 C1283,524 1291,536 1292,527 C1294,519 1285,529 1286,520 L1287,512"/></g><clipPath id="c" clipRule="evenodd" fill="transparent"><use href="#t2118"/></clipPath></defs><svg viewBox="1243 510 52 38" preserveAspectRatio="xMinYMin meet"><svg width="4380" height="2430"><g><image crossorigin="anonymous" x="0" y="0" href="https://nftpuzzle.license-token.com/assets/completepuzzle.svg" width="100%" height="100%" /><g class="links"><use href="#t2118"/></g></g></svg><svg x="1280" y="533" height="9%" width="9%" viewBox="0 0 330 330"><g><a xlink:href="https://nftpuzzle.license-token.com/" class="links"><title>See the most innovative NFT based token software licensing project</title><path fill="#E4CF37" id="more" d="M165,0C74.019,0,0,74.019,0,165s74.019,165,165,165s165-74.019,165-165S255.981,0,165,0z M85,190 c-13.785,0-25-11.215-25-25s11.215-25,25-25s25,11.215,25,25S98.785,190,85,190z M165,190c-13.785,0-25-11.215-25-25 s11.215-25,25-25s25,11.215,25,25S178.785,190,165,190z M245,190c-13.785,0-25-11.215-25-25s11.215-25,25-25 c13.785,0,25,11.215,25,25S258.785,190,245,190z"></path></a></g></svg></svg></svg>