<svg version="1.1" xmlns="http://www.w3.org/2000/svg" xmlns:xlink="http://www.w3.org/1999/xlink" fill="transparent" x="0" y="0" width="350" height="350" preserveAspectRatio="xMinYMin slice"><style type="text/css">.links{fill:transparent;stroke: #E4CF37;}.links:hover{fill:#63D272; opacity:0.4;}</style><defs><g id="allt"><path id="t212" d="M2739,32 L2729,32 C2719,32 2732,39 2723,39 C2715,39 2726,31 2716,31 L2706,32 2706,32 L2706,41 C2706,50 2713,39 2714,48 C2715,57 2706,46 2706,55 L2706,64 2706,64 L2715,64 C2725,64 2713,71 2722,72 C2732,73 2720,64 2729,64 L2739,64 2739,64 L2739,54 C2739,45 2741,56 2741,48 C2742,41 2739,52 2739,42 L2739,32"/></g><clipPath id="c" clipRule="evenodd" fill="transparent"><use href="#t212"/></clipPath></defs><svg viewBox="2705 30 38 44" preserveAspectRatio="xMinYMin meet"><svg width="4380" height="2430"><g><image crossorigin="anonymous" x="0" y="0" href="https://nftpuzzle.license-token.com/assets/completepuzzle.svg" width="100%" height="100%" /><g class="links"><use href="#t212"/></g></g></svg><svg x="2728" y="59" height="9%" width="9%" viewBox="0 0 330 330"><g><a xlink:href="https://nftpuzzle.license-token.com/" class="links"><title>See the most innovative NFT based token software licensing project</title><path fill="#E4CF37" id="more" d="M165,0C74.019,0,0,74.019,0,165s74.019,165,165,165s165-74.019,165-165S255.981,0,165,0z M85,190 c-13.785,0-25-11.215-25-25s11.215-25,25-25s25,11.215,25,25S98.785,190,85,190z M165,190c-13.785,0-25-11.215-25-25 s11.215-25,25-25s25,11.215,25,25S178.785,190,165,190z M245,190c-13.785,0-25-11.215-25-25s11.215-25,25-25 c13.785,0,25,11.215,25,25S258.785,190,245,190z"></path></a></g></svg></svg></svg>