<svg version="1.1" xmlns="http://www.w3.org/2000/svg" xmlns:xlink="http://www.w3.org/1999/xlink" fill="transparent" x="0" y="0" width="350" height="350" preserveAspectRatio="xMinYMin slice"><style type="text/css">.links{fill:transparent;stroke: #E4CF37;}.links:hover{fill:#63D272; opacity:0.4;}</style><defs><g id="allt"><path id="t2122" d="M1419,512 L1408,512 C1397,512 1410,521 1401,519 C1392,518 1405,512 1395,512 L1386,512 1386,512 L1386,521 C1387,530 1384,517 1383,526 C1383,536 1386,523 1386,533 L1386,544 1386,544 L1395,544 C1405,545 1391,542 1401,541 C1411,541 1397,544 1408,544 L1419,544 1419,544 L1418,533 C1418,522 1423,538 1424,529 C1425,521 1419,533 1419,522 L1419,512"/></g><clipPath id="c" clipRule="evenodd" fill="transparent"><use href="#t2122"/></clipPath></defs><svg viewBox="1382 511 44 35" preserveAspectRatio="xMinYMin meet"><svg width="4380" height="2430"><g><image crossorigin="anonymous" x="0" y="0" href="https://nftpuzzle.license-token.com/assets/completepuzzle.svg" width="100%" height="100%" /><g class="links"><use href="#t2122"/></g></g></svg><svg x="1411" y="531" height="9%" width="9%" viewBox="0 0 330 330"><g><a xlink:href="https://nftpuzzle.license-token.com/" class="links"><title>See the most innovative NFT based token software licensing project</title><path fill="#E4CF37" id="more" d="M165,0C74.019,0,0,74.019,0,165s74.019,165,165,165s165-74.019,165-165S255.981,0,165,0z M85,190 c-13.785,0-25-11.215-25-25s11.215-25,25-25s25,11.215,25,25S98.785,190,85,190z M165,190c-13.785,0-25-11.215-25-25 s11.215-25,25-25s25,11.215,25,25S178.785,190,165,190z M245,190c-13.785,0-25-11.215-25-25s11.215-25,25-25 c13.785,0,25,11.215,25,25S258.785,190,245,190z"></path></a></g></svg></svg></svg>