<svg version="1.1" xmlns="http://www.w3.org/2000/svg" xmlns:xlink="http://www.w3.org/1999/xlink" fill="transparent" x="0" y="0" width="350" height="350" preserveAspectRatio="xMinYMin slice"><style type="text/css">.links{fill:transparent;stroke: #E4CF37;}.links:hover{fill:#63D272; opacity:0.4;}</style><defs><g id="allt"><path id="t2124" d="M1485,512 L1474,512 C1463,513 1475,508 1467,508 C1459,509 1472,514 1462,513 L1452,512 1452,512 L1452,521 C1452,530 1440,517 1443,527 C1446,537 1455,522 1453,533 L1452,544 1452,544 L1461,544 C1471,544 1457,533 1467,535 C1478,538 1462,547 1473,545 L1485,544 1485,544 L1485,533 C1485,522 1492,537 1491,528 C1490,519 1484,531 1484,521 L1485,512"/></g><clipPath id="c" clipRule="evenodd" fill="transparent"><use href="#t2124"/></clipPath></defs><svg viewBox="1439 507 54 41" preserveAspectRatio="xMinYMin meet"><svg width="4380" height="2430"><g><image crossorigin="anonymous" x="0" y="0" href="https://nftpuzzle.license-token.com/assets/completepuzzle.svg" width="100%" height="100%" /><g class="links"><use href="#t2124"/></g></g></svg><svg x="1478" y="533" height="9%" width="9%" viewBox="0 0 330 330"><g><a xlink:href="https://nftpuzzle.license-token.com/" class="links"><title>See the most innovative NFT based token software licensing project</title><path fill="#E4CF37" id="more" d="M165,0C74.019,0,0,74.019,0,165s74.019,165,165,165s165-74.019,165-165S255.981,0,165,0z M85,190 c-13.785,0-25-11.215-25-25s11.215-25,25-25s25,11.215,25,25S98.785,190,85,190z M165,190c-13.785,0-25-11.215-25-25 s11.215-25,25-25s25,11.215,25,25S178.785,190,165,190z M245,190c-13.785,0-25-11.215-25-25s11.215-25,25-25 c13.785,0,25,11.215,25,25S258.785,190,245,190z"></path></a></g></svg></svg></svg>