<svg version="1.1" xmlns="http://www.w3.org/2000/svg" xmlns:xlink="http://www.w3.org/1999/xlink" fill="transparent" x="0" y="0" width="350" height="350" preserveAspectRatio="xMinYMin slice"><style type="text/css">.links{fill:transparent;stroke: #E4CF37;}.links:hover{fill:#63D272; opacity:0.4;}</style><defs><g id="allt"><path id="t2125" d="M1518,512 L1507,514 C1496,516 1508,504 1500,502 C1492,500 1507,515 1496,513 L1485,512 1485,512 L1484,521 C1484,531 1490,519 1491,528 C1492,537 1485,522 1485,533 L1485,544 1485,544 L1495,543 C1505,543 1492,549 1501,550 C1511,551 1496,544 1507,544 L1518,544 1518,544 L1519,533 C1520,523 1513,537 1513,527 C1514,517 1518,531 1518,521 L1518,512"/></g><clipPath id="c" clipRule="evenodd" fill="transparent"><use href="#t2125"/></clipPath></defs><svg viewBox="1483 499 38 53" preserveAspectRatio="xMinYMin meet"><svg width="4380" height="2430"><g><image crossorigin="anonymous" x="0" y="0" href="https://nftpuzzle.license-token.com/assets/completepuzzle.svg" width="100%" height="100%" /><g class="links"><use href="#t2125"/></g></g></svg><svg x="1506" y="537" height="9%" width="9%" viewBox="0 0 330 330"><g><a xlink:href="https://nftpuzzle.license-token.com/" class="links"><title>See the most innovative NFT based token software licensing project</title><path fill="#E4CF37" id="more" d="M165,0C74.019,0,0,74.019,0,165s74.019,165,165,165s165-74.019,165-165S255.981,0,165,0z M85,190 c-13.785,0-25-11.215-25-25s11.215-25,25-25s25,11.215,25,25S98.785,190,85,190z M165,190c-13.785,0-25-11.215-25-25 s11.215-25,25-25s25,11.215,25,25S178.785,190,165,190z M245,190c-13.785,0-25-11.215-25-25s11.215-25,25-25 c13.785,0,25,11.215,25,25S258.785,190,245,190z"></path></a></g></svg></svg></svg>