<svg version="1.1" xmlns="http://www.w3.org/2000/svg" xmlns:xlink="http://www.w3.org/1999/xlink" fill="transparent" x="0" y="0" width="350" height="350" preserveAspectRatio="xMinYMin slice"><style type="text/css">.links{fill:transparent;stroke: #E4CF37;}.links:hover{fill:#63D272; opacity:0.4;}</style><defs><g id="allt"><path id="t2129" d="M1650,512 L1640,512 C1630,512 1642,516 1632,515 C1622,514 1638,512 1627,512 L1617,512 1617,512 L1615,522 C1613,533 1626,519 1625,527 C1624,536 1617,524 1617,534 L1617,544 1617,544 L1627,542 C1638,540 1624,553 1633,552 C1642,551 1629,544 1639,544 L1650,544 1650,544 L1651,533 C1653,522 1646,536 1644,526 C1643,517 1650,532 1650,522 L1650,512"/></g><clipPath id="c" clipRule="evenodd" fill="transparent"><use href="#t2129"/></clipPath></defs><svg viewBox="1612 511 42 43" preserveAspectRatio="xMinYMin meet"><svg width="4380" height="2430"><g><image crossorigin="anonymous" x="0" y="0" href="https://nftpuzzle.license-token.com/assets/completepuzzle.svg" width="100%" height="100%" /><g class="links"><use href="#t2129"/></g></g></svg><svg x="1639" y="539" height="9%" width="9%" viewBox="0 0 330 330"><g><a xlink:href="https://nftpuzzle.license-token.com/" class="links"><title>See the most innovative NFT based token software licensing project</title><path fill="#E4CF37" id="more" d="M165,0C74.019,0,0,74.019,0,165s74.019,165,165,165s165-74.019,165-165S255.981,0,165,0z M85,190 c-13.785,0-25-11.215-25-25s11.215-25,25-25s25,11.215,25,25S98.785,190,85,190z M165,190c-13.785,0-25-11.215-25-25 s11.215-25,25-25s25,11.215,25,25S178.785,190,165,190z M245,190c-13.785,0-25-11.215-25-25s11.215-25,25-25 c13.785,0,25,11.215,25,25S258.785,190,245,190z"></path></a></g></svg></svg></svg>