<svg version="1.1" xmlns="http://www.w3.org/2000/svg" xmlns:xlink="http://www.w3.org/1999/xlink" fill="transparent" x="0" y="0" width="350" height="350" preserveAspectRatio="xMinYMin slice"><style type="text/css">.links{fill:transparent;stroke: #E4CF37;}.links:hover{fill:#63D272; opacity:0.4;}</style><defs><g id="allt"><path id="t213" d="M2772,32 L2761,33 C2750,35 2763,26 2753,24 C2744,22 2757,37 2748,34 L2739,32 2739,32 L2739,42 C2739,52 2742,41 2741,48 C2741,56 2739,45 2739,54 L2739,64 2739,64 L2749,64 C2759,64 2748,67 2756,66 C2764,66 2753,64 2762,64 L2772,64 2772,64 L2770,53 C2769,43 2778,59 2777,48 C2777,37 2769,49 2770,40 L2772,32"/></g><clipPath id="c" clipRule="evenodd" fill="transparent"><use href="#t213"/></clipPath></defs><svg viewBox="2738 21 41 47" preserveAspectRatio="xMinYMin meet"><svg width="4380" height="2430"><g><image crossorigin="anonymous" x="0" y="0" href="https://nftpuzzle.license-token.com/assets/completepuzzle.svg" width="100%" height="100%" /><g class="links"><use href="#t213"/></g></g></svg><svg x="2764" y="53" height="9%" width="9%" viewBox="0 0 330 330"><g><a xlink:href="https://nftpuzzle.license-token.com/" class="links"><title>See the most innovative NFT based token software licensing project</title><path fill="#E4CF37" id="more" d="M165,0C74.019,0,0,74.019,0,165s74.019,165,165,165s165-74.019,165-165S255.981,0,165,0z M85,190 c-13.785,0-25-11.215-25-25s11.215-25,25-25s25,11.215,25,25S98.785,190,85,190z M165,190c-13.785,0-25-11.215-25-25 s11.215-25,25-25s25,11.215,25,25S178.785,190,165,190z M245,190c-13.785,0-25-11.215-25-25s11.215-25,25-25 c13.785,0,25,11.215,25,25S258.785,190,245,190z"></path></a></g></svg></svg></svg>