<svg version="1.1" xmlns="http://www.w3.org/2000/svg" xmlns:xlink="http://www.w3.org/1999/xlink" fill="transparent" x="0" y="0" width="350" height="350" preserveAspectRatio="xMinYMin slice"><style type="text/css">.links{fill:transparent;stroke: #E4CF37;}.links:hover{fill:#63D272; opacity:0.4;}</style><defs><g id="allt"><path id="t2131" d="M1716,512 L1704,513 C1693,515 1706,505 1697,504 C1689,504 1703,514 1693,513 L1683,512 1683,512 L1684,521 C1686,531 1676,518 1674,527 C1672,537 1688,523 1685,533 L1683,544 1683,544 L1693,545 C1703,547 1689,537 1699,535 C1709,534 1695,549 1705,546 L1716,544 1716,544 L1714,534 C1712,525 1720,534 1722,527 C1724,520 1716,532 1716,522 L1716,512"/></g><clipPath id="c" clipRule="evenodd" fill="transparent"><use href="#t2131"/></clipPath></defs><svg viewBox="1671 503 54 47" preserveAspectRatio="xMinYMin meet"><svg width="4380" height="2430"><g><image crossorigin="anonymous" x="0" y="0" href="https://nftpuzzle.license-token.com/assets/completepuzzle.svg" width="100%" height="100%" /><g class="links"><use href="#t2131"/></g></g></svg><svg x="1710" y="535" height="9%" width="9%" viewBox="0 0 330 330"><g><a xlink:href="https://nftpuzzle.license-token.com/" class="links"><title>See the most innovative NFT based token software licensing project</title><path fill="#E4CF37" id="more" d="M165,0C74.019,0,0,74.019,0,165s74.019,165,165,165s165-74.019,165-165S255.981,0,165,0z M85,190 c-13.785,0-25-11.215-25-25s11.215-25,25-25s25,11.215,25,25S98.785,190,85,190z M165,190c-13.785,0-25-11.215-25-25 s11.215-25,25-25s25,11.215,25,25S178.785,190,165,190z M245,190c-13.785,0-25-11.215-25-25s11.215-25,25-25 c13.785,0,25,11.215,25,25S258.785,190,245,190z"></path></a></g></svg></svg></svg>