<svg version="1.1" xmlns="http://www.w3.org/2000/svg" xmlns:xlink="http://www.w3.org/1999/xlink" fill="transparent" x="0" y="0" width="350" height="350" preserveAspectRatio="xMinYMin slice"><style type="text/css">.links{fill:transparent;stroke: #E4CF37;}.links:hover{fill:#63D272; opacity:0.4;}</style><defs><g id="allt"><path id="t2133" d="M1782,512 L1770,510 C1759,508 1774,519 1765,518 C1757,517 1767,509 1758,510 L1749,512 1749,512 L1750,520 C1751,529 1742,518 1743,527 C1745,537 1750,525 1749,534 L1749,544 1749,544 L1758,545 C1767,546 1755,537 1765,538 C1775,540 1762,545 1772,544 L1782,544 1782,544 L1784,534 C1786,525 1775,535 1773,527 C1772,520 1786,530 1784,521 L1782,512"/></g><clipPath id="c" clipRule="evenodd" fill="transparent"><use href="#t2133"/></clipPath></defs><svg viewBox="1741 507 46 40" preserveAspectRatio="xMinYMin meet"><svg width="4380" height="2430"><g><image crossorigin="anonymous" x="0" y="0" href="https://nftpuzzle.license-token.com/assets/completepuzzle.svg" width="100%" height="100%" /><g class="links"><use href="#t2133"/></g></g></svg><svg x="1772" y="532" height="9%" width="9%" viewBox="0 0 330 330"><g><a xlink:href="https://nftpuzzle.license-token.com/" class="links"><title>See the most innovative NFT based token software licensing project</title><path fill="#E4CF37" id="more" d="M165,0C74.019,0,0,74.019,0,165s74.019,165,165,165s165-74.019,165-165S255.981,0,165,0z M85,190 c-13.785,0-25-11.215-25-25s11.215-25,25-25s25,11.215,25,25S98.785,190,85,190z M165,190c-13.785,0-25-11.215-25-25 s11.215-25,25-25s25,11.215,25,25S178.785,190,165,190z M245,190c-13.785,0-25-11.215-25-25s11.215-25,25-25 c13.785,0,25,11.215,25,25S258.785,190,245,190z"></path></a></g></svg></svg></svg>