<svg version="1.1" xmlns="http://www.w3.org/2000/svg" xmlns:xlink="http://www.w3.org/1999/xlink" fill="transparent" x="0" y="0" width="350" height="350" preserveAspectRatio="xMinYMin slice"><style type="text/css">.links{fill:transparent;stroke: #E4CF37;}.links:hover{fill:#63D272; opacity:0.4;}</style><defs><g id="allt"><path id="t2134" d="M1815,512 L1805,514 C1796,516 1807,503 1796,503 C1786,504 1800,512 1791,512 L1782,512 1782,512 L1784,521 C1786,530 1772,520 1773,527 C1775,535 1786,525 1784,534 L1782,544 1782,544 L1791,546 C1801,548 1791,535 1798,536 C1806,537 1796,548 1805,546 L1815,544 1815,544 L1814,534 C1814,524 1818,535 1818,527 C1819,520 1814,533 1814,522 L1815,512"/></g><clipPath id="c" clipRule="evenodd" fill="transparent"><use href="#t2134"/></clipPath></defs><svg viewBox="1771 502 49 47" preserveAspectRatio="xMinYMin meet"><svg width="4380" height="2430"><g><image crossorigin="anonymous" x="0" y="0" href="https://nftpuzzle.license-token.com/assets/completepuzzle.svg" width="100%" height="100%" /><g class="links"><use href="#t2134"/></g></g></svg><svg x="1805" y="534" height="9%" width="9%" viewBox="0 0 330 330"><g><a xlink:href="https://nftpuzzle.license-token.com/" class="links"><title>See the most innovative NFT based token software licensing project</title><path fill="#E4CF37" id="more" d="M165,0C74.019,0,0,74.019,0,165s74.019,165,165,165s165-74.019,165-165S255.981,0,165,0z M85,190 c-13.785,0-25-11.215-25-25s11.215-25,25-25s25,11.215,25,25S98.785,190,85,190z M165,190c-13.785,0-25-11.215-25-25 s11.215-25,25-25s25,11.215,25,25S178.785,190,165,190z M245,190c-13.785,0-25-11.215-25-25s11.215-25,25-25 c13.785,0,25,11.215,25,25S258.785,190,245,190z"></path></a></g></svg></svg></svg>