<svg version="1.1" xmlns="http://www.w3.org/2000/svg" xmlns:xlink="http://www.w3.org/1999/xlink" fill="transparent" x="0" y="0" width="350" height="350" preserveAspectRatio="xMinYMin slice"><style type="text/css">.links{fill:transparent;stroke: #E4CF37;}.links:hover{fill:#63D272; opacity:0.4;}</style><defs><g id="allt"><path id="t2136" d="M1881,512 L1870,512 C1860,512 1871,516 1862,517 C1854,519 1867,512 1857,512 L1848,512 1848,512 L1847,521 C1846,530 1857,518 1855,527 C1854,537 1847,523 1847,533 L1848,544 1848,544 L1857,543 C1867,542 1854,552 1864,551 C1874,550 1859,543 1870,543 L1881,544 1881,544 L1880,534 C1879,524 1883,538 1884,529 C1885,521 1881,529 1881,520 L1881,512"/></g><clipPath id="c" clipRule="evenodd" fill="transparent"><use href="#t2136"/></clipPath></defs><svg viewBox="1845 511 41 42" preserveAspectRatio="xMinYMin meet"><svg width="4380" height="2430"><g><image crossorigin="anonymous" x="0" y="0" href="https://nftpuzzle.license-token.com/assets/completepuzzle.svg" width="100%" height="100%" /><g class="links"><use href="#t2136"/></g></g></svg><svg x="1871" y="538" height="9%" width="9%" viewBox="0 0 330 330"><g><a xlink:href="https://nftpuzzle.license-token.com/" class="links"><title>See the most innovative NFT based token software licensing project</title><path fill="#E4CF37" id="more" d="M165,0C74.019,0,0,74.019,0,165s74.019,165,165,165s165-74.019,165-165S255.981,0,165,0z M85,190 c-13.785,0-25-11.215-25-25s11.215-25,25-25s25,11.215,25,25S98.785,190,85,190z M165,190c-13.785,0-25-11.215-25-25 s11.215-25,25-25s25,11.215,25,25S178.785,190,165,190z M245,190c-13.785,0-25-11.215-25-25s11.215-25,25-25 c13.785,0,25,11.215,25,25S258.785,190,245,190z"></path></a></g></svg></svg></svg>