<svg version="1.1" xmlns="http://www.w3.org/2000/svg" xmlns:xlink="http://www.w3.org/1999/xlink" fill="transparent" x="0" y="0" width="350" height="350" preserveAspectRatio="xMinYMin slice"><style type="text/css">.links{fill:transparent;stroke: #E4CF37;}.links:hover{fill:#63D272; opacity:0.4;}</style><defs><g id="allt"><path id="t2141" d="M2046,512 L2035,512 C2025,512 2036,515 2028,514 C2021,514 2032,511 2022,511 L2013,512 2013,512 L2013,521 C2013,531 2019,518 2022,526 C2025,534 2011,524 2012,534 L2013,544 2013,544 L2023,544 C2033,544 2019,550 2027,553 C2036,556 2025,542 2035,543 L2046,544 2046,544 L2046,534 C2046,525 2043,535 2042,528 C2042,521 2046,533 2046,522 L2046,512"/></g><clipPath id="c" clipRule="evenodd" fill="transparent"><use href="#t2141"/></clipPath></defs><svg viewBox="2010 510 37 47" preserveAspectRatio="xMinYMin meet"><svg width="4380" height="2430"><g><image crossorigin="anonymous" x="0" y="0" href="https://nftpuzzle.license-token.com/assets/completepuzzle.svg" width="100%" height="100%" /><g class="links"><use href="#t2141"/></g></g></svg><svg x="2032" y="542" height="9%" width="9%" viewBox="0 0 330 330"><g><a xlink:href="https://nftpuzzle.license-token.com/" class="links"><title>See the most innovative NFT based token software licensing project</title><path fill="#E4CF37" id="more" d="M165,0C74.019,0,0,74.019,0,165s74.019,165,165,165s165-74.019,165-165S255.981,0,165,0z M85,190 c-13.785,0-25-11.215-25-25s11.215-25,25-25s25,11.215,25,25S98.785,190,85,190z M165,190c-13.785,0-25-11.215-25-25 s11.215-25,25-25s25,11.215,25,25S178.785,190,165,190z M245,190c-13.785,0-25-11.215-25-25s11.215-25,25-25 c13.785,0,25,11.215,25,25S258.785,190,245,190z"></path></a></g></svg></svg></svg>