<svg version="1.1" xmlns="http://www.w3.org/2000/svg" xmlns:xlink="http://www.w3.org/1999/xlink" fill="transparent" x="0" y="0" width="350" height="350" preserveAspectRatio="xMinYMin slice"><style type="text/css">.links{fill:transparent;stroke: #E4CF37;}.links:hover{fill:#63D272; opacity:0.4;}</style><defs><g id="allt"><path id="t2144" d="M2145,512 L2135,512 C2126,512 2138,520 2127,517 C2116,515 2130,512 2121,512 L2112,512 2112,512 L2112,521 C2112,530 2108,517 2108,527 C2108,538 2112,524 2112,534 L2112,544 2112,544 L2121,544 C2131,544 2117,540 2128,540 C2139,540 2124,544 2134,544 L2145,544 2145,544 L2143,534 C2142,525 2156,538 2156,528 C2156,518 2146,530 2145,521 L2145,512"/></g><clipPath id="c" clipRule="evenodd" fill="transparent"><use href="#t2144"/></clipPath></defs><svg viewBox="2107 511 50 34" preserveAspectRatio="xMinYMin meet"><svg width="4380" height="2430"><g><image crossorigin="anonymous" x="0" y="0" href="https://nftpuzzle.license-token.com/assets/completepuzzle.svg" width="100%" height="100%" /><g class="links"><use href="#t2144"/></g></g></svg><svg x="2142" y="530" height="9%" width="9%" viewBox="0 0 330 330"><g><a xlink:href="https://nftpuzzle.license-token.com/" class="links"><title>See the most innovative NFT based token software licensing project</title><path fill="#E4CF37" id="more" d="M165,0C74.019,0,0,74.019,0,165s74.019,165,165,165s165-74.019,165-165S255.981,0,165,0z M85,190 c-13.785,0-25-11.215-25-25s11.215-25,25-25s25,11.215,25,25S98.785,190,85,190z M165,190c-13.785,0-25-11.215-25-25 s11.215-25,25-25s25,11.215,25,25S178.785,190,165,190z M245,190c-13.785,0-25-11.215-25-25s11.215-25,25-25 c13.785,0,25,11.215,25,25S258.785,190,245,190z"></path></a></g></svg></svg></svg>