<svg version="1.1" xmlns="http://www.w3.org/2000/svg" xmlns:xlink="http://www.w3.org/1999/xlink" fill="transparent" x="0" y="0" width="350" height="350" preserveAspectRatio="xMinYMin slice"><style type="text/css">.links{fill:transparent;stroke: #E4CF37;}.links:hover{fill:#63D272; opacity:0.4;}</style><defs><g id="allt"><path id="t2146" d="M2211,512 L2200,512 C2189,512 2203,507 2194,507 C2185,508 2196,515 2187,513 L2178,512 2178,512 L2179,521 C2180,531 2171,517 2172,527 C2174,537 2178,524 2178,534 L2178,544 2178,544 L2188,545 C2198,546 2183,537 2193,538 C2204,540 2190,544 2200,544 L2211,544 2211,544 L2213,535 C2216,526 2199,537 2200,528 C2202,520 2214,532 2212,522 L2211,512"/></g><clipPath id="c" clipRule="evenodd" fill="transparent"><use href="#t2146"/></clipPath></defs><svg viewBox="2170 506 47 41" preserveAspectRatio="xMinYMin meet"><svg width="4380" height="2430"><g><image crossorigin="anonymous" x="0" y="0" href="https://nftpuzzle.license-token.com/assets/completepuzzle.svg" width="100%" height="100%" /><g class="links"><use href="#t2146"/></g></g></svg><svg x="2202" y="532" height="9%" width="9%" viewBox="0 0 330 330"><g><a xlink:href="https://nftpuzzle.license-token.com/" class="links"><title>See the most innovative NFT based token software licensing project</title><path fill="#E4CF37" id="more" d="M165,0C74.019,0,0,74.019,0,165s74.019,165,165,165s165-74.019,165-165S255.981,0,165,0z M85,190 c-13.785,0-25-11.215-25-25s11.215-25,25-25s25,11.215,25,25S98.785,190,85,190z M165,190c-13.785,0-25-11.215-25-25 s11.215-25,25-25s25,11.215,25,25S178.785,190,165,190z M245,190c-13.785,0-25-11.215-25-25s11.215-25,25-25 c13.785,0,25,11.215,25,25S258.785,190,245,190z"></path></a></g></svg></svg></svg>