<svg version="1.1" xmlns="http://www.w3.org/2000/svg" xmlns:xlink="http://www.w3.org/1999/xlink" fill="transparent" x="0" y="0" width="350" height="350" preserveAspectRatio="xMinYMin slice"><style type="text/css">.links{fill:transparent;stroke: #E4CF37;}.links:hover{fill:#63D272; opacity:0.4;}</style><defs><g id="allt"><path id="t2147" d="M2244,512 L2234,514 C2225,517 2238,502 2227,502 C2217,502 2230,517 2220,514 L2211,512 2211,512 L2212,522 C2214,532 2202,520 2200,528 C2199,537 2216,526 2213,535 L2211,544 2211,544 L2221,545 C2232,547 2219,536 2228,534 C2237,532 2225,549 2234,546 L2244,544 2244,544 L2244,534 C2244,524 2249,534 2248,527 C2247,521 2244,529 2244,520 L2244,512"/></g><clipPath id="c" clipRule="evenodd" fill="transparent"><use href="#t2147"/></clipPath></defs><svg viewBox="2198 501 52 49" preserveAspectRatio="xMinYMin meet"><svg width="4380" height="2430"><g><image crossorigin="anonymous" x="0" y="0" href="https://nftpuzzle.license-token.com/assets/completepuzzle.svg" width="100%" height="100%" /><g class="links"><use href="#t2147"/></g></g></svg><svg x="2235" y="535" height="9%" width="9%" viewBox="0 0 330 330"><g><a xlink:href="https://nftpuzzle.license-token.com/" class="links"><title>See the most innovative NFT based token software licensing project</title><path fill="#E4CF37" id="more" d="M165,0C74.019,0,0,74.019,0,165s74.019,165,165,165s165-74.019,165-165S255.981,0,165,0z M85,190 c-13.785,0-25-11.215-25-25s11.215-25,25-25s25,11.215,25,25S98.785,190,85,190z M165,190c-13.785,0-25-11.215-25-25 s11.215-25,25-25s25,11.215,25,25S178.785,190,165,190z M245,190c-13.785,0-25-11.215-25-25s11.215-25,25-25 c13.785,0,25,11.215,25,25S258.785,190,245,190z"></path></a></g></svg></svg></svg>