<svg version="1.1" xmlns="http://www.w3.org/2000/svg" xmlns:xlink="http://www.w3.org/1999/xlink" fill="transparent" x="0" y="0" width="350" height="350" preserveAspectRatio="xMinYMin slice"><style type="text/css">.links{fill:transparent;stroke: #E4CF37;}.links:hover{fill:#63D272; opacity:0.4;}</style><defs><g id="allt"><path id="t2153" d="M2442,512 L2432,512 C2423,512 2436,504 2426,504 C2417,505 2430,515 2419,513 L2409,512 2409,512 L2407,521 C2406,531 2415,519 2414,528 C2414,538 2405,525 2407,534 L2409,544 2409,544 L2418,542 C2428,541 2416,550 2426,549 C2436,549 2422,540 2432,542 L2442,544 2442,544 L2444,534 C2446,525 2436,534 2435,527 C2435,520 2446,531 2444,521 L2442,512"/></g><clipPath id="c" clipRule="evenodd" fill="transparent"><use href="#t2153"/></clipPath></defs><svg viewBox="2404 503 43 48" preserveAspectRatio="xMinYMin meet"><svg width="4380" height="2430"><g><image crossorigin="anonymous" x="0" y="0" href="https://nftpuzzle.license-token.com/assets/completepuzzle.svg" width="100%" height="100%" /><g class="links"><use href="#t2153"/></g></g></svg><svg x="2432" y="536" height="9%" width="9%" viewBox="0 0 330 330"><g><a xlink:href="https://nftpuzzle.license-token.com/" class="links"><title>See the most innovative NFT based token software licensing project</title><path fill="#E4CF37" id="more" d="M165,0C74.019,0,0,74.019,0,165s74.019,165,165,165s165-74.019,165-165S255.981,0,165,0z M85,190 c-13.785,0-25-11.215-25-25s11.215-25,25-25s25,11.215,25,25S98.785,190,85,190z M165,190c-13.785,0-25-11.215-25-25 s11.215-25,25-25s25,11.215,25,25S178.785,190,165,190z M245,190c-13.785,0-25-11.215-25-25s11.215-25,25-25 c13.785,0,25,11.215,25,25S258.785,190,245,190z"></path></a></g></svg></svg></svg>