<svg version="1.1" xmlns="http://www.w3.org/2000/svg" xmlns:xlink="http://www.w3.org/1999/xlink" fill="transparent" x="0" y="0" width="350" height="350" preserveAspectRatio="xMinYMin slice"><style type="text/css">.links{fill:transparent;stroke: #E4CF37;}.links:hover{fill:#63D272; opacity:0.4;}</style><defs><g id="allt"><path id="t2157" d="M2574,512 L2564,511 C2554,510 2565,522 2556,520 C2547,519 2562,509 2551,510 L2541,512 2541,512 L2543,521 C2545,531 2532,520 2534,529 C2536,538 2541,525 2541,534 L2541,544 2541,544 L2550,546 C2560,548 2549,535 2558,537 C2568,539 2554,544 2564,544 L2574,544 2574,544 L2576,534 C2578,525 2563,534 2565,525 C2567,517 2579,529 2576,520 L2574,512"/></g><clipPath id="c" clipRule="evenodd" fill="transparent"><use href="#t2157"/></clipPath></defs><svg viewBox="2531 508 49 41" preserveAspectRatio="xMinYMin meet"><svg width="4380" height="2430"><g><image crossorigin="anonymous" x="0" y="0" href="https://nftpuzzle.license-token.com/assets/completepuzzle.svg" width="100%" height="100%" /><g class="links"><use href="#t2157"/></g></g></svg><svg x="2565" y="534" height="9%" width="9%" viewBox="0 0 330 330"><g><a xlink:href="https://nftpuzzle.license-token.com/" class="links"><title>See the most innovative NFT based token software licensing project</title><path fill="#E4CF37" id="more" d="M165,0C74.019,0,0,74.019,0,165s74.019,165,165,165s165-74.019,165-165S255.981,0,165,0z M85,190 c-13.785,0-25-11.215-25-25s11.215-25,25-25s25,11.215,25,25S98.785,190,85,190z M165,190c-13.785,0-25-11.215-25-25 s11.215-25,25-25s25,11.215,25,25S178.785,190,165,190z M245,190c-13.785,0-25-11.215-25-25s11.215-25,25-25 c13.785,0,25,11.215,25,25S258.785,190,245,190z"></path></a></g></svg></svg></svg>