<svg version="1.1" xmlns="http://www.w3.org/2000/svg" xmlns:xlink="http://www.w3.org/1999/xlink" fill="transparent" x="0" y="0" width="350" height="350" preserveAspectRatio="xMinYMin slice"><style type="text/css">.links{fill:transparent;stroke: #E4CF37;}.links:hover{fill:#63D272; opacity:0.4;}</style><defs><g id="allt"><path id="t216" d="M2871,32 L2861,32 C2852,32 2862,26 2853,25 C2845,25 2860,32 2849,32 L2838,32 2838,32 L2838,41 C2838,51 2845,41 2844,48 C2843,55 2837,45 2837,54 L2838,64 2838,64 L2848,64 C2858,64 2847,71 2854,70 C2862,69 2851,63 2861,63 L2871,64 2871,64 L2871,53 C2871,43 2868,55 2867,46 C2867,37 2871,50 2871,41 L2871,32"/></g><clipPath id="c" clipRule="evenodd" fill="transparent"><use href="#t216"/></clipPath></defs><svg viewBox="2836 24 36 48" preserveAspectRatio="xMinYMin meet"><svg width="4380" height="2430"><g><image crossorigin="anonymous" x="0" y="0" href="https://nftpuzzle.license-token.com/assets/completepuzzle.svg" width="100%" height="100%" /><g class="links"><use href="#t216"/></g></g></svg><svg x="2857" y="57" height="9%" width="9%" viewBox="0 0 330 330"><g><a xlink:href="https://nftpuzzle.license-token.com/" class="links"><title>See the most innovative NFT based token software licensing project</title><path fill="#E4CF37" id="more" d="M165,0C74.019,0,0,74.019,0,165s74.019,165,165,165s165-74.019,165-165S255.981,0,165,0z M85,190 c-13.785,0-25-11.215-25-25s11.215-25,25-25s25,11.215,25,25S98.785,190,85,190z M165,190c-13.785,0-25-11.215-25-25 s11.215-25,25-25s25,11.215,25,25S178.785,190,165,190z M245,190c-13.785,0-25-11.215-25-25s11.215-25,25-25 c13.785,0,25,11.215,25,25S258.785,190,245,190z"></path></a></g></svg></svg></svg>