<svg version="1.1" xmlns="http://www.w3.org/2000/svg" xmlns:xlink="http://www.w3.org/1999/xlink" fill="transparent" x="0" y="0" width="350" height="350" preserveAspectRatio="xMinYMin slice"><style type="text/css">.links{fill:transparent;stroke: #E4CF37;}.links:hover{fill:#63D272; opacity:0.4;}</style><defs><g id="allt"><path id="t2161" d="M2706,512 L2696,514 C2687,516 2699,504 2689,502 C2679,501 2694,512 2683,512 L2673,512 2673,512 L2673,521 C2673,530 2679,519 2679,527 C2679,536 2671,522 2672,533 L2673,544 2673,544 L2682,544 C2692,544 2680,550 2689,550 C2698,550 2683,542 2694,543 L2706,544 2706,544 L2707,535 C2708,526 2702,535 2702,527 C2702,519 2706,529 2706,520 L2706,512"/></g><clipPath id="c" clipRule="evenodd" fill="transparent"><use href="#t2161"/></clipPath></defs><svg viewBox="2670 500 39 51" preserveAspectRatio="xMinYMin meet"><svg width="4380" height="2430"><g><image crossorigin="anonymous" x="0" y="0" href="https://nftpuzzle.license-token.com/assets/completepuzzle.svg" width="100%" height="100%" /><g class="links"><use href="#t2161"/></g></g></svg><svg x="2694" y="536" height="9%" width="9%" viewBox="0 0 330 330"><g><a xlink:href="https://nftpuzzle.license-token.com/" class="links"><title>See the most innovative NFT based token software licensing project</title><path fill="#E4CF37" id="more" d="M165,0C74.019,0,0,74.019,0,165s74.019,165,165,165s165-74.019,165-165S255.981,0,165,0z M85,190 c-13.785,0-25-11.215-25-25s11.215-25,25-25s25,11.215,25,25S98.785,190,85,190z M165,190c-13.785,0-25-11.215-25-25 s11.215-25,25-25s25,11.215,25,25S178.785,190,165,190z M245,190c-13.785,0-25-11.215-25-25s11.215-25,25-25 c13.785,0,25,11.215,25,25S258.785,190,245,190z"></path></a></g></svg></svg></svg>