<svg version="1.1" xmlns="http://www.w3.org/2000/svg" xmlns:xlink="http://www.w3.org/1999/xlink" fill="transparent" x="0" y="0" width="350" height="350" preserveAspectRatio="xMinYMin slice"><style type="text/css">.links{fill:transparent;stroke: #E4CF37;}.links:hover{fill:#63D272; opacity:0.4;}</style><defs><g id="allt"><path id="t2165" d="M2838,512 L2828,511 C2818,511 2830,517 2820,517 C2810,518 2825,512 2815,512 L2805,512 2805,512 L2806,521 C2807,531 2802,518 2802,526 C2802,534 2805,525 2805,534 L2805,544 2805,544 L2814,545 C2824,546 2811,541 2819,541 C2828,541 2819,544 2828,544 L2838,544 2838,544 L2838,534 C2838,524 2829,537 2829,528 C2830,519 2838,531 2838,521 L2838,512"/></g><clipPath id="c" clipRule="evenodd" fill="transparent"><use href="#t2165"/></clipPath></defs><svg viewBox="2801 510 38 37" preserveAspectRatio="xMinYMin meet"><svg width="4380" height="2430"><g><image crossorigin="anonymous" x="0" y="0" href="https://nftpuzzle.license-token.com/assets/completepuzzle.svg" width="100%" height="100%" /><g class="links"><use href="#t2165"/></g></g></svg><svg x="2824" y="532" height="9%" width="9%" viewBox="0 0 330 330"><g><a xlink:href="https://nftpuzzle.license-token.com/" class="links"><title>See the most innovative NFT based token software licensing project</title><path fill="#E4CF37" id="more" d="M165,0C74.019,0,0,74.019,0,165s74.019,165,165,165s165-74.019,165-165S255.981,0,165,0z M85,190 c-13.785,0-25-11.215-25-25s11.215-25,25-25s25,11.215,25,25S98.785,190,85,190z M165,190c-13.785,0-25-11.215-25-25 s11.215-25,25-25s25,11.215,25,25S178.785,190,165,190z M245,190c-13.785,0-25-11.215-25-25s11.215-25,25-25 c13.785,0,25,11.215,25,25S258.785,190,245,190z"></path></a></g></svg></svg></svg>