<svg version="1.1" xmlns="http://www.w3.org/2000/svg" xmlns:xlink="http://www.w3.org/1999/xlink" fill="transparent" x="0" y="0" width="350" height="350" preserveAspectRatio="xMinYMin slice"><style type="text/css">.links{fill:transparent;stroke: #E4CF37;}.links:hover{fill:#63D272; opacity:0.4;}</style><defs><g id="allt"><path id="t2166" d="M2871,512 L2861,513 C2851,515 2866,505 2856,507 C2847,509 2858,514 2848,513 L2838,512 2838,512 L2838,521 C2838,531 2830,519 2829,528 C2829,537 2838,524 2838,534 L2838,544 2838,544 L2848,544 C2858,544 2845,536 2854,535 C2864,535 2850,544 2860,544 L2871,544 2871,544 L2871,534 C2871,525 2877,536 2876,528 C2875,520 2869,529 2870,520 L2871,512"/></g><clipPath id="c" clipRule="evenodd" fill="transparent"><use href="#t2166"/></clipPath></defs><svg viewBox="2828 504 50 41" preserveAspectRatio="xMinYMin meet"><svg width="4380" height="2430"><g><image crossorigin="anonymous" x="0" y="0" href="https://nftpuzzle.license-token.com/assets/completepuzzle.svg" width="100%" height="100%" /><g class="links"><use href="#t2166"/></g></g></svg><svg x="2863" y="530" height="9%" width="9%" viewBox="0 0 330 330"><g><a xlink:href="https://nftpuzzle.license-token.com/" class="links"><title>See the most innovative NFT based token software licensing project</title><path fill="#E4CF37" id="more" d="M165,0C74.019,0,0,74.019,0,165s74.019,165,165,165s165-74.019,165-165S255.981,0,165,0z M85,190 c-13.785,0-25-11.215-25-25s11.215-25,25-25s25,11.215,25,25S98.785,190,85,190z M165,190c-13.785,0-25-11.215-25-25 s11.215-25,25-25s25,11.215,25,25S178.785,190,165,190z M245,190c-13.785,0-25-11.215-25-25s11.215-25,25-25 c13.785,0,25,11.215,25,25S258.785,190,245,190z"></path></a></g></svg></svg></svg>