<svg version="1.1" xmlns="http://www.w3.org/2000/svg" xmlns:xlink="http://www.w3.org/1999/xlink" fill="transparent" x="0" y="0" width="350" height="350" preserveAspectRatio="xMinYMin slice"><style type="text/css">.links{fill:transparent;stroke: #E4CF37;}.links:hover{fill:#63D272; opacity:0.4;}</style><defs><g id="allt"><path id="t2170" d="M3003,512 L2992,512 C2982,512 2997,508 2987,506 C2978,504 2992,515 2981,513 L2970,512 2970,512 L2970,522 C2970,532 2965,520 2964,528 C2963,536 2972,525 2971,534 L2970,544 2970,544 L2980,544 C2990,544 2978,539 2986,538 C2994,537 2983,546 2993,545 L3003,544 3003,544 L3001,533 C2999,523 3011,537 3013,528 C3015,519 3003,531 3003,521 L3003,512"/></g><clipPath id="c" clipRule="evenodd" fill="transparent"><use href="#t2170"/></clipPath></defs><svg viewBox="2962 503 54 44" preserveAspectRatio="xMinYMin meet"><svg width="4380" height="2430"><g><image crossorigin="anonymous" x="0" y="0" href="https://nftpuzzle.license-token.com/assets/completepuzzle.svg" width="100%" height="100%" /><g class="links"><use href="#t2170"/></g></g></svg><svg x="3001" y="532" height="9%" width="9%" viewBox="0 0 330 330"><g><a xlink:href="https://nftpuzzle.license-token.com/" class="links"><title>See the most innovative NFT based token software licensing project</title><path fill="#E4CF37" id="more" d="M165,0C74.019,0,0,74.019,0,165s74.019,165,165,165s165-74.019,165-165S255.981,0,165,0z M85,190 c-13.785,0-25-11.215-25-25s11.215-25,25-25s25,11.215,25,25S98.785,190,85,190z M165,190c-13.785,0-25-11.215-25-25 s11.215-25,25-25s25,11.215,25,25S178.785,190,165,190z M245,190c-13.785,0-25-11.215-25-25s11.215-25,25-25 c13.785,0,25,11.215,25,25S258.785,190,245,190z"></path></a></g></svg></svg></svg>