<svg version="1.1" xmlns="http://www.w3.org/2000/svg" xmlns:xlink="http://www.w3.org/1999/xlink" fill="transparent" x="0" y="0" width="350" height="350" preserveAspectRatio="xMinYMin slice"><style type="text/css">.links{fill:transparent;stroke: #E4CF37;}.links:hover{fill:#63D272; opacity:0.4;}</style><defs><g id="allt"><path id="t2171" d="M3036,512 L3025,512 C3015,512 3027,515 3018,515 C3010,515 3023,511 3013,511 L3003,512 3003,512 L3003,521 C3003,531 3015,519 3013,528 C3011,537 2999,523 3001,533 L3003,544 3003,544 L3013,544 C3023,544 3010,556 3019,554 C3029,552 3014,540 3025,542 L3036,544 3036,544 L3036,533 C3036,523 3031,536 3030,528 C3030,520 3037,530 3036,521 L3036,512"/></g><clipPath id="c" clipRule="evenodd" fill="transparent"><use href="#t2171"/></clipPath></defs><svg viewBox="2998 510 40 47" preserveAspectRatio="xMinYMin meet"><svg width="4380" height="2430"><g><image crossorigin="anonymous" x="0" y="0" href="https://nftpuzzle.license-token.com/assets/completepuzzle.svg" width="100%" height="100%" /><g class="links"><use href="#t2171"/></g></g></svg><svg x="3023" y="542" height="9%" width="9%" viewBox="0 0 330 330"><g><a xlink:href="https://nftpuzzle.license-token.com/" class="links"><title>See the most innovative NFT based token software licensing project</title><path fill="#E4CF37" id="more" d="M165,0C74.019,0,0,74.019,0,165s74.019,165,165,165s165-74.019,165-165S255.981,0,165,0z M85,190 c-13.785,0-25-11.215-25-25s11.215-25,25-25s25,11.215,25,25S98.785,190,85,190z M165,190c-13.785,0-25-11.215-25-25 s11.215-25,25-25s25,11.215,25,25S178.785,190,165,190z M245,190c-13.785,0-25-11.215-25-25s11.215-25,25-25 c13.785,0,25,11.215,25,25S258.785,190,245,190z"></path></a></g></svg></svg></svg>