<svg version="1.1" xmlns="http://www.w3.org/2000/svg" xmlns:xlink="http://www.w3.org/1999/xlink" fill="transparent" x="0" y="0" width="350" height="350" preserveAspectRatio="xMinYMin slice"><style type="text/css">.links{fill:transparent;stroke: #E4CF37;}.links:hover{fill:#63D272; opacity:0.4;}</style><defs><g id="allt"><path id="t2172" d="M3069,512 L3059,512 C3049,512 3062,519 3052,519 C3043,520 3056,512 3046,512 L3036,512 3036,512 L3036,521 C3037,530 3030,520 3030,528 C3031,536 3036,523 3036,533 L3036,544 3036,544 L3045,544 C3054,545 3045,538 3053,538 C3061,539 3047,544 3058,544 L3069,544 3069,544 L3069,534 C3069,525 3071,536 3072,527 C3074,519 3069,530 3069,521 L3069,512"/></g><clipPath id="c" clipRule="evenodd" fill="transparent"><use href="#t2172"/></clipPath></defs><svg viewBox="3029 511 46 35" preserveAspectRatio="xMinYMin meet"><svg width="4380" height="2430"><g><image crossorigin="anonymous" x="0" y="0" href="https://nftpuzzle.license-token.com/assets/completepuzzle.svg" width="100%" height="100%" /><g class="links"><use href="#t2172"/></g></g></svg><svg x="3060" y="531" height="9%" width="9%" viewBox="0 0 330 330"><g><a xlink:href="https://nftpuzzle.license-token.com/" class="links"><title>See the most innovative NFT based token software licensing project</title><path fill="#E4CF37" id="more" d="M165,0C74.019,0,0,74.019,0,165s74.019,165,165,165s165-74.019,165-165S255.981,0,165,0z M85,190 c-13.785,0-25-11.215-25-25s11.215-25,25-25s25,11.215,25,25S98.785,190,85,190z M165,190c-13.785,0-25-11.215-25-25 s11.215-25,25-25s25,11.215,25,25S178.785,190,165,190z M245,190c-13.785,0-25-11.215-25-25s11.215-25,25-25 c13.785,0,25,11.215,25,25S258.785,190,245,190z"></path></a></g></svg></svg></svg>