<svg version="1.1" xmlns="http://www.w3.org/2000/svg" xmlns:xlink="http://www.w3.org/1999/xlink" fill="transparent" x="0" y="0" width="350" height="350" preserveAspectRatio="xMinYMin slice"><style type="text/css">.links{fill:transparent;stroke: #E4CF37;}.links:hover{fill:#63D272; opacity:0.4;}</style><defs><g id="allt"><path id="t2176" d="M3201,512 L3190,512 C3180,513 3191,509 3183,509 C3175,510 3189,513 3178,512 L3168,512 3168,512 L3168,521 C3168,531 3171,519 3171,528 C3172,538 3168,524 3168,534 L3168,544 3168,544 L3177,544 C3187,544 3175,547 3185,547 C3195,548 3180,544 3190,544 L3201,544 3201,544 L3201,535 C3201,526 3193,538 3192,527 C3191,517 3201,529 3201,520 L3201,512"/></g><clipPath id="c" clipRule="evenodd" fill="transparent"><use href="#t2176"/></clipPath></defs><svg viewBox="3167 508 35 41" preserveAspectRatio="xMinYMin meet"><svg width="4380" height="2430"><g><image crossorigin="anonymous" x="0" y="0" href="https://nftpuzzle.license-token.com/assets/completepuzzle.svg" width="100%" height="100%" /><g class="links"><use href="#t2176"/></g></g></svg><svg x="3187" y="534" height="9%" width="9%" viewBox="0 0 330 330"><g><a xlink:href="https://nftpuzzle.license-token.com/" class="links"><title>See the most innovative NFT based token software licensing project</title><path fill="#E4CF37" id="more" d="M165,0C74.019,0,0,74.019,0,165s74.019,165,165,165s165-74.019,165-165S255.981,0,165,0z M85,190 c-13.785,0-25-11.215-25-25s11.215-25,25-25s25,11.215,25,25S98.785,190,85,190z M165,190c-13.785,0-25-11.215-25-25 s11.215-25,25-25s25,11.215,25,25S178.785,190,165,190z M245,190c-13.785,0-25-11.215-25-25s11.215-25,25-25 c13.785,0,25,11.215,25,25S258.785,190,245,190z"></path></a></g></svg></svg></svg>