<svg version="1.1" xmlns="http://www.w3.org/2000/svg" xmlns:xlink="http://www.w3.org/1999/xlink" fill="transparent" x="0" y="0" width="350" height="350" preserveAspectRatio="xMinYMin slice"><style type="text/css">.links{fill:transparent;stroke: #E4CF37;}.links:hover{fill:#63D272; opacity:0.4;}</style><defs><g id="allt"><path id="t2184" d="M3465,512 L3455,513 C3446,514 3456,508 3446,508 C3437,508 3451,512 3441,512 L3432,512 3432,512 L3432,522 C3432,533 3428,520 3429,529 C3430,538 3432,524 3432,534 L3432,544 3432,544 L3442,544 C3453,544 3440,540 3449,541 C3459,542 3444,544 3454,544 L3465,544 3465,544 L3463,533 C3462,522 3471,534 3471,527 C3471,520 3463,533 3464,522 L3465,512"/></g><clipPath id="c" clipRule="evenodd" fill="transparent"><use href="#t2184"/></clipPath></defs><svg viewBox="3427 507 45 38" preserveAspectRatio="xMinYMin meet"><svg width="4380" height="2430"><g><image crossorigin="anonymous" x="0" y="0" href="https://nftpuzzle.license-token.com/assets/completepuzzle.svg" width="100%" height="100%" /><g class="links"><use href="#t2184"/></g></g></svg><svg x="3457" y="530" height="9%" width="9%" viewBox="0 0 330 330"><g><a xlink:href="https://nftpuzzle.license-token.com/" class="links"><title>See the most innovative NFT based token software licensing project</title><path fill="#E4CF37" id="more" d="M165,0C74.019,0,0,74.019,0,165s74.019,165,165,165s165-74.019,165-165S255.981,0,165,0z M85,190 c-13.785,0-25-11.215-25-25s11.215-25,25-25s25,11.215,25,25S98.785,190,85,190z M165,190c-13.785,0-25-11.215-25-25 s11.215-25,25-25s25,11.215,25,25S178.785,190,165,190z M245,190c-13.785,0-25-11.215-25-25s11.215-25,25-25 c13.785,0,25,11.215,25,25S258.785,190,245,190z"></path></a></g></svg></svg></svg>