<svg version="1.1" xmlns="http://www.w3.org/2000/svg" xmlns:xlink="http://www.w3.org/1999/xlink" fill="transparent" x="0" y="0" width="350" height="350" preserveAspectRatio="xMinYMin slice"><style type="text/css">.links{fill:transparent;stroke: #E4CF37;}.links:hover{fill:#63D272; opacity:0.4;}</style><defs><g id="allt"><path id="t2187" d="M3564,512 L3553,512 C3542,512 3555,516 3546,516 C3538,517 3549,510 3540,511 L3531,512 3531,512 L3531,522 C3531,532 3527,517 3526,527 C3525,538 3534,523 3532,533 L3531,544 3531,544 L3541,544 C3551,544 3536,540 3547,539 C3558,538 3542,547 3553,545 L3564,544 3564,544 L3563,535 C3562,526 3567,538 3567,529 C3568,521 3562,531 3563,521 L3564,512"/></g><clipPath id="c" clipRule="evenodd" fill="transparent"><use href="#t2187"/></clipPath></defs><svg viewBox="3524 509 45 39" preserveAspectRatio="xMinYMin meet"><svg width="4380" height="2430"><g><image crossorigin="anonymous" x="0" y="0" href="https://nftpuzzle.license-token.com/assets/completepuzzle.svg" width="100%" height="100%" /><g class="links"><use href="#t2187"/></g></g></svg><svg x="3554" y="533" height="9%" width="9%" viewBox="0 0 330 330"><g><a xlink:href="https://nftpuzzle.license-token.com/" class="links"><title>See the most innovative NFT based token software licensing project</title><path fill="#E4CF37" id="more" d="M165,0C74.019,0,0,74.019,0,165s74.019,165,165,165s165-74.019,165-165S255.981,0,165,0z M85,190 c-13.785,0-25-11.215-25-25s11.215-25,25-25s25,11.215,25,25S98.785,190,85,190z M165,190c-13.785,0-25-11.215-25-25 s11.215-25,25-25s25,11.215,25,25S178.785,190,165,190z M245,190c-13.785,0-25-11.215-25-25s11.215-25,25-25 c13.785,0,25,11.215,25,25S258.785,190,245,190z"></path></a></g></svg></svg></svg>