<svg version="1.1" xmlns="http://www.w3.org/2000/svg" xmlns:xlink="http://www.w3.org/1999/xlink" fill="transparent" x="0" y="0" width="350" height="350" preserveAspectRatio="xMinYMin slice"><style type="text/css">.links{fill:transparent;stroke: #E4CF37;}.links:hover{fill:#63D272; opacity:0.4;}</style><defs><g id="allt"><path id="t219" d="M2970,32 L2959,32 C2948,32 2960,35 2952,35 C2945,36 2958,32 2947,32 L2937,32 2937,32 L2936,40 C2935,49 2943,40 2943,49 C2944,59 2934,45 2935,54 L2937,64 2937,64 L2946,63 C2955,62 2945,70 2955,70 C2965,71 2950,61 2960,62 L2970,64 2970,64 L2970,53 C2970,42 2968,56 2967,46 C2967,37 2971,50 2970,41 L2970,32"/></g><clipPath id="c" clipRule="evenodd" fill="transparent"><use href="#t219"/></clipPath></defs><svg viewBox="2933 31 39 41" preserveAspectRatio="xMinYMin meet"><svg width="4380" height="2430"><g><image crossorigin="anonymous" x="0" y="0" href="https://nftpuzzle.license-token.com/assets/completepuzzle.svg" width="100%" height="100%" /><g class="links"><use href="#t219"/></g></g></svg><svg x="2957" y="57" height="9%" width="9%" viewBox="0 0 330 330"><g><a xlink:href="https://nftpuzzle.license-token.com/" class="links"><title>See the most innovative NFT based token software licensing project</title><path fill="#E4CF37" id="more" d="M165,0C74.019,0,0,74.019,0,165s74.019,165,165,165s165-74.019,165-165S255.981,0,165,0z M85,190 c-13.785,0-25-11.215-25-25s11.215-25,25-25s25,11.215,25,25S98.785,190,85,190z M165,190c-13.785,0-25-11.215-25-25 s11.215-25,25-25s25,11.215,25,25S178.785,190,165,190z M245,190c-13.785,0-25-11.215-25-25s11.215-25,25-25 c13.785,0,25,11.215,25,25S258.785,190,245,190z"></path></a></g></svg></svg></svg>