<svg version="1.1" xmlns="http://www.w3.org/2000/svg" xmlns:xlink="http://www.w3.org/1999/xlink" fill="transparent" x="0" y="0" width="350" height="350" preserveAspectRatio="xMinYMin slice"><style type="text/css">.links{fill:transparent;stroke: #E4CF37;}.links:hover{fill:#63D272; opacity:0.4;}</style><defs><g id="allt"><path id="t2193" d="M3762,512 L3752,512 C3742,512 3754,502 3746,503 C3738,505 3748,515 3738,513 L3729,512 3729,512 L3730,520 C3731,529 3724,518 3724,527 C3725,537 3729,526 3729,535 L3729,544 3729,544 L3738,545 C3747,546 3735,539 3745,539 C3755,540 3743,544 3752,544 L3762,544 3762,544 L3762,534 C3763,525 3755,536 3756,527 C3758,518 3764,531 3763,521 L3762,512"/></g><clipPath id="c" clipRule="evenodd" fill="transparent"><use href="#t2193"/></clipPath></defs><svg viewBox="3723 501 42 46" preserveAspectRatio="xMinYMin meet"><svg width="4380" height="2430"><g><image crossorigin="anonymous" x="0" y="0" href="https://nftpuzzle.license-token.com/assets/completepuzzle.svg" width="100%" height="100%" /><g class="links"><use href="#t2193"/></g></g></svg><svg x="3750" y="532" height="9%" width="9%" viewBox="0 0 330 330"><g><a xlink:href="https://nftpuzzle.license-token.com/" class="links"><title>See the most innovative NFT based token software licensing project</title><path fill="#E4CF37" id="more" d="M165,0C74.019,0,0,74.019,0,165s74.019,165,165,165s165-74.019,165-165S255.981,0,165,0z M85,190 c-13.785,0-25-11.215-25-25s11.215-25,25-25s25,11.215,25,25S98.785,190,85,190z M165,190c-13.785,0-25-11.215-25-25 s11.215-25,25-25s25,11.215,25,25S178.785,190,165,190z M245,190c-13.785,0-25-11.215-25-25s11.215-25,25-25 c13.785,0,25,11.215,25,25S258.785,190,245,190z"></path></a></g></svg></svg></svg>