<svg version="1.1" xmlns="http://www.w3.org/2000/svg" xmlns:xlink="http://www.w3.org/1999/xlink" fill="transparent" x="0" y="0" width="350" height="350" preserveAspectRatio="xMinYMin slice"><style type="text/css">.links{fill:transparent;stroke: #E4CF37;}.links:hover{fill:#63D272; opacity:0.4;}</style><defs><g id="allt"><path id="t2194" d="M3795,512 L3785,512 C3775,513 3787,508 3778,508 C3770,509 3783,512 3772,512 L3762,512 3762,512 L3763,521 C3764,531 3758,518 3756,527 C3755,536 3763,525 3762,534 L3762,544 3762,544 L3772,545 C3782,546 3768,540 3777,538 C3787,537 3775,545 3785,544 L3795,544 3795,544 L3795,534 C3795,524 3791,534 3789,526 C3788,519 3796,529 3795,520 L3795,512"/></g><clipPath id="c" clipRule="evenodd" fill="transparent"><use href="#t2194"/></clipPath></defs><svg viewBox="3754 507 43 40" preserveAspectRatio="xMinYMin meet"><svg width="4380" height="2430"><g><image crossorigin="anonymous" x="0" y="0" href="https://nftpuzzle.license-token.com/assets/completepuzzle.svg" width="100%" height="100%" /><g class="links"><use href="#t2194"/></g></g></svg><svg x="3782" y="532" height="9%" width="9%" viewBox="0 0 330 330"><g><a xlink:href="https://nftpuzzle.license-token.com/" class="links"><title>See the most innovative NFT based token software licensing project</title><path fill="#E4CF37" id="more" d="M165,0C74.019,0,0,74.019,0,165s74.019,165,165,165s165-74.019,165-165S255.981,0,165,0z M85,190 c-13.785,0-25-11.215-25-25s11.215-25,25-25s25,11.215,25,25S98.785,190,85,190z M165,190c-13.785,0-25-11.215-25-25 s11.215-25,25-25s25,11.215,25,25S178.785,190,165,190z M245,190c-13.785,0-25-11.215-25-25s11.215-25,25-25 c13.785,0,25,11.215,25,25S258.785,190,245,190z"></path></a></g></svg></svg></svg>