<svg version="1.1" xmlns="http://www.w3.org/2000/svg" xmlns:xlink="http://www.w3.org/1999/xlink" fill="transparent" x="0" y="0" width="350" height="350" preserveAspectRatio="xMinYMin slice"><style type="text/css">.links{fill:transparent;stroke: #E4CF37;}.links:hover{fill:#63D272; opacity:0.4;}</style><defs><g id="allt"><path id="t2196" d="M3861,512 L3851,513 C3842,514 3854,508 3844,508 C3835,508 3846,512 3837,512 L3828,512 3828,512 L3829,521 C3830,530 3823,520 3824,528 C3826,536 3828,522 3828,533 L3828,544 3828,544 L3837,545 C3847,546 3837,539 3845,540 C3853,542 3838,544 3849,544 L3861,544 3861,544 L3860,534 C3860,525 3863,534 3864,527 C3865,520 3861,532 3861,522 L3861,512"/></g><clipPath id="c" clipRule="evenodd" fill="transparent"><use href="#t2196"/></clipPath></defs><svg viewBox="3822 507 44 40" preserveAspectRatio="xMinYMin meet"><svg width="4380" height="2430"><g><image crossorigin="anonymous" x="0" y="0" href="https://nftpuzzle.license-token.com/assets/completepuzzle.svg" width="100%" height="100%" /><g class="links"><use href="#t2196"/></g></g></svg><svg x="3851" y="532" height="9%" width="9%" viewBox="0 0 330 330"><g><a xlink:href="https://nftpuzzle.license-token.com/" class="links"><title>See the most innovative NFT based token software licensing project</title><path fill="#E4CF37" id="more" d="M165,0C74.019,0,0,74.019,0,165s74.019,165,165,165s165-74.019,165-165S255.981,0,165,0z M85,190 c-13.785,0-25-11.215-25-25s11.215-25,25-25s25,11.215,25,25S98.785,190,85,190z M165,190c-13.785,0-25-11.215-25-25 s11.215-25,25-25s25,11.215,25,25S178.785,190,165,190z M245,190c-13.785,0-25-11.215-25-25s11.215-25,25-25 c13.785,0,25,11.215,25,25S258.785,190,245,190z"></path></a></g></svg></svg></svg>