<svg version="1.1" xmlns="http://www.w3.org/2000/svg" xmlns:xlink="http://www.w3.org/1999/xlink" fill="transparent" x="0" y="0" width="350" height="350" preserveAspectRatio="xMinYMin slice"><style type="text/css">.links{fill:transparent;stroke: #E4CF37;}.links:hover{fill:#63D272; opacity:0.4;}</style><defs><g id="allt"><path id="t2199" d="M3960,512 L3949,512 C3938,512 3953,506 3944,505 C3936,505 3946,512 3936,512 L3927,512 3927,512 L3927,521 C3928,531 3918,519 3918,527 C3918,536 3927,523 3927,533 L3927,544 3927,544 L3937,544 C3947,545 3934,535 3943,535 C3952,536 3938,544 3949,544 L3960,544 3960,544 L3961,535 C3963,526 3951,536 3950,526 C3949,517 3960,531 3960,521 L3960,512"/></g><clipPath id="c" clipRule="evenodd" fill="transparent"><use href="#t2199"/></clipPath></defs><svg viewBox="3917 504 47 42" preserveAspectRatio="xMinYMin meet"><svg width="4380" height="2430"><g><image crossorigin="anonymous" x="0" y="0" href="https://nftpuzzle.license-token.com/assets/completepuzzle.svg" width="100%" height="100%" /><g class="links"><use href="#t2199"/></g></g></svg><svg x="3949" y="531" height="9%" width="9%" viewBox="0 0 330 330"><g><a xlink:href="https://nftpuzzle.license-token.com/" class="links"><title>See the most innovative NFT based token software licensing project</title><path fill="#E4CF37" id="more" d="M165,0C74.019,0,0,74.019,0,165s74.019,165,165,165s165-74.019,165-165S255.981,0,165,0z M85,190 c-13.785,0-25-11.215-25-25s11.215-25,25-25s25,11.215,25,25S98.785,190,85,190z M165,190c-13.785,0-25-11.215-25-25 s11.215-25,25-25s25,11.215,25,25S178.785,190,165,190z M245,190c-13.785,0-25-11.215-25-25s11.215-25,25-25 c13.785,0,25,11.215,25,25S258.785,190,245,190z"></path></a></g></svg></svg></svg>