<svg version="1.1" xmlns="http://www.w3.org/2000/svg" xmlns:xlink="http://www.w3.org/1999/xlink" fill="transparent" x="0" y="0" width="350" height="350" preserveAspectRatio="xMinYMin slice"><style type="text/css">.links{fill:transparent;stroke: #E4CF37;}.links:hover{fill:#63D272; opacity:0.4;}</style><defs><g id="allt"><path id="t2201" d="M4026,512 L4016,512 C4007,512 4019,518 4008,517 C3998,516 4012,512 4002,512 L3993,512 3993,512 L3993,521 C3994,530 3987,517 3988,527 C3989,537 3993,524 3993,534 L3993,544 3993,544 L4002,544 C4012,545 3998,538 4008,539 C4019,540 4005,544 4015,544 L4026,544 4026,544 L4026,535 C4027,526 4023,537 4022,528 C4022,520 4026,530 4026,521 L4026,512"/></g><clipPath id="c" clipRule="evenodd" fill="transparent"><use href="#t2201"/></clipPath></defs><svg viewBox="3986 511 42 35" preserveAspectRatio="xMinYMin meet"><svg width="4380" height="2430"><g><image crossorigin="anonymous" x="0" y="0" href="https://nftpuzzle.license-token.com/assets/completepuzzle.svg" width="100%" height="100%" /><g class="links"><use href="#t2201"/></g></g></svg><svg x="4013" y="531" height="9%" width="9%" viewBox="0 0 330 330"><g><a xlink:href="https://nftpuzzle.license-token.com/" class="links"><title>See the most innovative NFT based token software licensing project</title><path fill="#E4CF37" id="more" d="M165,0C74.019,0,0,74.019,0,165s74.019,165,165,165s165-74.019,165-165S255.981,0,165,0z M85,190 c-13.785,0-25-11.215-25-25s11.215-25,25-25s25,11.215,25,25S98.785,190,85,190z M165,190c-13.785,0-25-11.215-25-25 s11.215-25,25-25s25,11.215,25,25S178.785,190,165,190z M245,190c-13.785,0-25-11.215-25-25s11.215-25,25-25 c13.785,0,25,11.215,25,25S258.785,190,245,190z"></path></a></g></svg></svg></svg>