<svg version="1.1" xmlns="http://www.w3.org/2000/svg" xmlns:xlink="http://www.w3.org/1999/xlink" fill="transparent" x="0" y="0" width="350" height="350" preserveAspectRatio="xMinYMin slice"><style type="text/css">.links{fill:transparent;stroke: #E4CF37;}.links:hover{fill:#63D272; opacity:0.4;}</style><defs><g id="allt"><path id="t2204" d="M4125,512 L4115,512 C4105,512 4116,519 4108,519 C4100,519 4110,512 4101,512 L4092,512 4092,512 L4092,520 C4092,529 4087,518 4086,528 C4085,538 4095,522 4093,533 L4092,544 4092,544 L4101,544 C4110,544 4098,539 4108,538 C4119,537 4103,547 4114,545 L4125,544 4125,544 L4126,533 C4128,523 4114,535 4117,527 C4120,519 4125,529 4125,520 L4125,512"/></g><clipPath id="c" clipRule="evenodd" fill="transparent"><use href="#t2204"/></clipPath></defs><svg viewBox="4084 511 45 37" preserveAspectRatio="xMinYMin meet"><svg width="4380" height="2430"><g><image crossorigin="anonymous" x="0" y="0" href="https://nftpuzzle.license-token.com/assets/completepuzzle.svg" width="100%" height="100%" /><g class="links"><use href="#t2204"/></g></g></svg><svg x="4114" y="533" height="9%" width="9%" viewBox="0 0 330 330"><g><a xlink:href="https://nftpuzzle.license-token.com/" class="links"><title>See the most innovative NFT based token software licensing project</title><path fill="#E4CF37" id="more" d="M165,0C74.019,0,0,74.019,0,165s74.019,165,165,165s165-74.019,165-165S255.981,0,165,0z M85,190 c-13.785,0-25-11.215-25-25s11.215-25,25-25s25,11.215,25,25S98.785,190,85,190z M165,190c-13.785,0-25-11.215-25-25 s11.215-25,25-25s25,11.215,25,25S178.785,190,165,190z M245,190c-13.785,0-25-11.215-25-25s11.215-25,25-25 c13.785,0,25,11.215,25,25S258.785,190,245,190z"></path></a></g></svg></svg></svg>