<svg version="1.1" xmlns="http://www.w3.org/2000/svg" xmlns:xlink="http://www.w3.org/1999/xlink" fill="transparent" x="0" y="0" width="350" height="350" preserveAspectRatio="xMinYMin slice"><style type="text/css">.links{fill:transparent;stroke: #E4CF37;}.links:hover{fill:#63D272; opacity:0.4;}</style><defs><g id="allt"><path id="t2205" d="M4158,512 L4146,512 C4135,512 4149,516 4139,517 C4130,519 4145,512 4135,512 L4125,512 4125,512 L4125,520 C4125,529 4120,519 4117,527 C4114,535 4128,523 4126,533 L4125,544 4125,544 L4134,544 C4143,544 4132,539 4140,536 C4149,534 4137,547 4147,545 L4158,544 4158,544 L4158,534 C4158,525 4164,534 4163,527 C4162,520 4158,532 4158,522 L4158,512"/></g><clipPath id="c" clipRule="evenodd" fill="transparent"><use href="#t2205"/></clipPath></defs><svg viewBox="4113 511 52 37" preserveAspectRatio="xMinYMin meet"><svg width="4380" height="2430"><g><image crossorigin="anonymous" x="0" y="0" href="https://nftpuzzle.license-token.com/assets/completepuzzle.svg" width="100%" height="100%" /><g class="links"><use href="#t2205"/></g></g></svg><svg x="4150" y="533" height="9%" width="9%" viewBox="0 0 330 330"><g><a xlink:href="https://nftpuzzle.license-token.com/" class="links"><title>See the most innovative NFT based token software licensing project</title><path fill="#E4CF37" id="more" d="M165,0C74.019,0,0,74.019,0,165s74.019,165,165,165s165-74.019,165-165S255.981,0,165,0z M85,190 c-13.785,0-25-11.215-25-25s11.215-25,25-25s25,11.215,25,25S98.785,190,85,190z M165,190c-13.785,0-25-11.215-25-25 s11.215-25,25-25s25,11.215,25,25S178.785,190,165,190z M245,190c-13.785,0-25-11.215-25-25s11.215-25,25-25 c13.785,0,25,11.215,25,25S258.785,190,245,190z"></path></a></g></svg></svg></svg>