<svg version="1.1" xmlns="http://www.w3.org/2000/svg" xmlns:xlink="http://www.w3.org/1999/xlink" fill="transparent" x="0" y="0" width="350" height="350" preserveAspectRatio="xMinYMin slice"><style type="text/css">.links{fill:transparent;stroke: #E4CF37;}.links:hover{fill:#63D272; opacity:0.4;}</style><defs><g id="allt"><path id="t2206" d="M4191,512 L4181,512 C4172,512 4185,508 4175,508 C4166,508 4179,514 4168,513 L4158,512 4158,512 L4158,522 C4158,532 4162,520 4163,527 C4164,534 4158,525 4158,534 L4158,544 4158,544 L4168,544 C4178,544 4167,548 4174,549 C4181,550 4172,544 4181,544 L4191,544 4191,544 L4191,534 C4191,524 4188,536 4188,526 C4188,517 4192,532 4191,522 L4191,512"/></g><clipPath id="c" clipRule="evenodd" fill="transparent"><use href="#t2206"/></clipPath></defs><svg viewBox="4157 507 36 44" preserveAspectRatio="xMinYMin meet"><svg width="4380" height="2430"><g><image crossorigin="anonymous" x="0" y="0" href="https://nftpuzzle.license-token.com/assets/completepuzzle.svg" width="100%" height="100%" /><g class="links"><use href="#t2206"/></g></g></svg><svg x="4178" y="536" height="9%" width="9%" viewBox="0 0 330 330"><g><a xlink:href="https://nftpuzzle.license-token.com/" class="links"><title>See the most innovative NFT based token software licensing project</title><path fill="#E4CF37" id="more" d="M165,0C74.019,0,0,74.019,0,165s74.019,165,165,165s165-74.019,165-165S255.981,0,165,0z M85,190 c-13.785,0-25-11.215-25-25s11.215-25,25-25s25,11.215,25,25S98.785,190,85,190z M165,190c-13.785,0-25-11.215-25-25 s11.215-25,25-25s25,11.215,25,25S178.785,190,165,190z M245,190c-13.785,0-25-11.215-25-25s11.215-25,25-25 c13.785,0,25,11.215,25,25S258.785,190,245,190z"></path></a></g></svg></svg></svg>