<svg version="1.1" xmlns="http://www.w3.org/2000/svg" xmlns:xlink="http://www.w3.org/1999/xlink" fill="transparent" x="0" y="0" width="350" height="350" preserveAspectRatio="xMinYMin slice"><style type="text/css">.links{fill:transparent;stroke: #E4CF37;}.links:hover{fill:#63D272; opacity:0.4;}</style><defs><g id="allt"><path id="t2207" d="M4224,512 L4214,511 C4204,510 4216,516 4206,517 C4197,518 4212,508 4201,510 L4191,512 4191,512 L4191,522 C4192,532 4188,517 4188,526 C4188,536 4191,524 4191,534 L4191,544 4191,544 L4201,544 C4212,545 4196,541 4205,541 C4215,541 4204,544 4214,544 L4224,544 4224,544 L4224,535 C4225,526 4220,538 4219,529 C4218,520 4224,529 4224,520 L4224,512"/></g><clipPath id="c" clipRule="evenodd" fill="transparent"><use href="#t2207"/></clipPath></defs><svg viewBox="4187 507 39 39" preserveAspectRatio="xMinYMin meet"><svg width="4380" height="2430"><g><image crossorigin="anonymous" x="0" y="0" href="https://nftpuzzle.license-token.com/assets/completepuzzle.svg" width="100%" height="100%" /><g class="links"><use href="#t2207"/></g></g></svg><svg x="4211" y="531" height="9%" width="9%" viewBox="0 0 330 330"><g><a xlink:href="https://nftpuzzle.license-token.com/" class="links"><title>See the most innovative NFT based token software licensing project</title><path fill="#E4CF37" id="more" d="M165,0C74.019,0,0,74.019,0,165s74.019,165,165,165s165-74.019,165-165S255.981,0,165,0z M85,190 c-13.785,0-25-11.215-25-25s11.215-25,25-25s25,11.215,25,25S98.785,190,85,190z M165,190c-13.785,0-25-11.215-25-25 s11.215-25,25-25s25,11.215,25,25S178.785,190,165,190z M245,190c-13.785,0-25-11.215-25-25s11.215-25,25-25 c13.785,0,25,11.215,25,25S258.785,190,245,190z"></path></a></g></svg></svg></svg>