<svg version="1.1" xmlns="http://www.w3.org/2000/svg" xmlns:xlink="http://www.w3.org/1999/xlink" fill="transparent" x="0" y="0" width="350" height="350" preserveAspectRatio="xMinYMin slice"><style type="text/css">.links{fill:transparent;stroke: #E4CF37;}.links:hover{fill:#63D272; opacity:0.4;}</style><defs><g id="allt"><path id="t2236" d="M891,544 L880,542 C870,541 884,555 875,553 C866,552 878,540 868,542 L858,544 858,544 L858,554 C858,565 864,551 864,560 C865,569 857,557 857,566 L858,576 858,576 L869,576 C880,576 865,582 874,582 C884,583 871,575 881,575 L891,576 891,576 L891,566 C891,556 883,568 883,558 C884,549 891,562 891,553 L891,544"/></g><clipPath id="c" clipRule="evenodd" fill="transparent"><use href="#t2236"/></clipPath></defs><svg viewBox="856 539 36 45" preserveAspectRatio="xMinYMin meet"><svg width="4380" height="2430"><g><image crossorigin="anonymous" x="0" y="0" href="https://nftpuzzle.license-token.com/assets/completepuzzle.svg" width="100%" height="100%" /><g class="links"><use href="#t2236"/></g></g></svg><svg x="877" y="569" height="9%" width="9%" viewBox="0 0 330 330"><g><a xlink:href="https://nftpuzzle.license-token.com/" class="links"><title>See the most innovative NFT based token software licensing project</title><path fill="#E4CF37" id="more" d="M165,0C74.019,0,0,74.019,0,165s74.019,165,165,165s165-74.019,165-165S255.981,0,165,0z M85,190 c-13.785,0-25-11.215-25-25s11.215-25,25-25s25,11.215,25,25S98.785,190,85,190z M165,190c-13.785,0-25-11.215-25-25 s11.215-25,25-25s25,11.215,25,25S178.785,190,165,190z M245,190c-13.785,0-25-11.215-25-25s11.215-25,25-25 c13.785,0,25,11.215,25,25S258.785,190,245,190z"></path></a></g></svg></svg></svg>