<svg version="1.1" xmlns="http://www.w3.org/2000/svg" xmlns:xlink="http://www.w3.org/1999/xlink" fill="transparent" x="0" y="0" width="350" height="350" preserveAspectRatio="xMinYMin slice"><style type="text/css">.links{fill:transparent;stroke: #E4CF37;}.links:hover{fill:#63D272; opacity:0.4;}</style><defs><g id="allt"><path id="t224" d="M3135,32 L3124,32 C3113,32 3126,40 3116,40 C3107,40 3122,29 3112,30 L3102,32 3102,32 L3101,40 C3101,49 3106,38 3107,48 C3108,59 3102,46 3102,55 L3102,64 3102,64 L3111,63 C3120,63 3108,68 3119,69 C3130,70 3116,64 3125,64 L3135,64 3135,64 L3134,53 C3133,43 3140,54 3141,45 C3143,37 3132,52 3133,42 L3135,32"/></g><clipPath id="c" clipRule="evenodd" fill="transparent"><use href="#t224"/></clipPath></defs><svg viewBox="3100 28 44 43" preserveAspectRatio="xMinYMin meet"><svg width="4380" height="2430"><g><image crossorigin="anonymous" x="0" y="0" href="https://nftpuzzle.license-token.com/assets/completepuzzle.svg" width="100%" height="100%" /><g class="links"><use href="#t224"/></g></g></svg><svg x="3129" y="56" height="9%" width="9%" viewBox="0 0 330 330"><g><a xlink:href="https://nftpuzzle.license-token.com/" class="links"><title>See the most innovative NFT based token software licensing project</title><path fill="#E4CF37" id="more" d="M165,0C74.019,0,0,74.019,0,165s74.019,165,165,165s165-74.019,165-165S255.981,0,165,0z M85,190 c-13.785,0-25-11.215-25-25s11.215-25,25-25s25,11.215,25,25S98.785,190,85,190z M165,190c-13.785,0-25-11.215-25-25 s11.215-25,25-25s25,11.215,25,25S178.785,190,165,190z M245,190c-13.785,0-25-11.215-25-25s11.215-25,25-25 c13.785,0,25,11.215,25,25S258.785,190,245,190z"></path></a></g></svg></svg></svg>