<svg version="1.1" xmlns="http://www.w3.org/2000/svg" xmlns:xlink="http://www.w3.org/1999/xlink" fill="transparent" x="0" y="0" width="350" height="350" preserveAspectRatio="xMinYMin slice"><style type="text/css">.links{fill:transparent;stroke: #E4CF37;}.links:hover{fill:#63D272; opacity:0.4;}</style><defs><g id="allt"><path id="t2246" d="M1221,544 L1210,544 C1199,544 1212,542 1204,541 C1197,540 1206,544 1197,544 L1188,544 1188,544 L1188,552 C1188,561 1184,552 1184,559 C1185,566 1188,555 1188,565 L1188,576 1188,576 L1197,576 C1206,576 1196,572 1203,572 C1211,573 1200,576 1210,576 L1221,576 1221,576 L1221,567 C1222,558 1211,567 1210,559 C1210,551 1224,563 1222,553 L1221,544"/></g><clipPath id="c" clipRule="evenodd" fill="transparent"><use href="#t2246"/></clipPath></defs><svg viewBox="1183 539 42 38" preserveAspectRatio="xMinYMin meet"><svg width="4380" height="2430"><g><image crossorigin="anonymous" x="0" y="0" href="https://nftpuzzle.license-token.com/assets/completepuzzle.svg" width="100%" height="100%" /><g class="links"><use href="#t2246"/></g></g></svg><svg x="1210" y="562" height="9%" width="9%" viewBox="0 0 330 330"><g><a xlink:href="https://nftpuzzle.license-token.com/" class="links"><title>See the most innovative NFT based token software licensing project</title><path fill="#E4CF37" id="more" d="M165,0C74.019,0,0,74.019,0,165s74.019,165,165,165s165-74.019,165-165S255.981,0,165,0z M85,190 c-13.785,0-25-11.215-25-25s11.215-25,25-25s25,11.215,25,25S98.785,190,85,190z M165,190c-13.785,0-25-11.215-25-25 s11.215-25,25-25s25,11.215,25,25S178.785,190,165,190z M245,190c-13.785,0-25-11.215-25-25s11.215-25,25-25 c13.785,0,25,11.215,25,25S258.785,190,245,190z"></path></a></g></svg></svg></svg>