<svg version="1.1" xmlns="http://www.w3.org/2000/svg" xmlns:xlink="http://www.w3.org/1999/xlink" fill="transparent" x="0" y="0" width="350" height="350" preserveAspectRatio="xMinYMin slice"><style type="text/css">.links{fill:transparent;stroke: #E4CF37;}.links:hover{fill:#63D272; opacity:0.4;}</style><defs><g id="allt"><path id="t2247" d="M1254,544 L1243,543 C1233,542 1248,547 1237,548 C1226,550 1242,542 1231,543 L1221,544 1221,544 L1222,553 C1224,563 1210,551 1210,559 C1211,567 1222,558 1221,567 L1221,576 1221,576 L1231,577 C1241,579 1228,565 1236,565 C1245,566 1235,577 1244,576 L1254,576 1254,576 L1254,565 C1255,554 1249,568 1246,559 C1243,550 1254,561 1254,552 L1254,544"/></g><clipPath id="c" clipRule="evenodd" fill="transparent"><use href="#t2247"/></clipPath></defs><svg viewBox="1209 541 47 39" preserveAspectRatio="xMinYMin meet"><svg width="4380" height="2430"><g><image crossorigin="anonymous" x="0" y="0" href="https://nftpuzzle.license-token.com/assets/completepuzzle.svg" width="100%" height="100%" /><g class="links"><use href="#t2247"/></g></g></svg><svg x="1241" y="565" height="9%" width="9%" viewBox="0 0 330 330"><g><a xlink:href="https://nftpuzzle.license-token.com/" class="links"><title>See the most innovative NFT based token software licensing project</title><path fill="#E4CF37" id="more" d="M165,0C74.019,0,0,74.019,0,165s74.019,165,165,165s165-74.019,165-165S255.981,0,165,0z M85,190 c-13.785,0-25-11.215-25-25s11.215-25,25-25s25,11.215,25,25S98.785,190,85,190z M165,190c-13.785,0-25-11.215-25-25 s11.215-25,25-25s25,11.215,25,25S178.785,190,165,190z M245,190c-13.785,0-25-11.215-25-25s11.215-25,25-25 c13.785,0,25,11.215,25,25S258.785,190,245,190z"></path></a></g></svg></svg></svg>