<svg version="1.1" xmlns="http://www.w3.org/2000/svg" xmlns:xlink="http://www.w3.org/1999/xlink" fill="transparent" x="0" y="0" width="350" height="350" preserveAspectRatio="xMinYMin slice"><style type="text/css">.links{fill:transparent;stroke: #E4CF37;}.links:hover{fill:#63D272; opacity:0.4;}</style><defs><g id="allt"><path id="t2252" d="M1419,544 L1408,544 C1397,544 1411,541 1401,541 C1391,542 1405,545 1395,544 L1386,544 1386,544 L1386,553 C1387,563 1379,553 1380,560 C1381,567 1386,555 1386,565 L1386,576 1386,576 L1395,576 C1405,577 1395,569 1402,570 C1410,571 1398,576 1408,576 L1419,576 1419,576 L1419,565 C1419,555 1413,567 1413,559 C1414,551 1419,563 1419,553 L1419,544"/></g><clipPath id="c" clipRule="evenodd" fill="transparent"><use href="#t2252"/></clipPath></defs><svg viewBox="1378 540 42 38" preserveAspectRatio="xMinYMin meet"><svg width="4380" height="2430"><g><image crossorigin="anonymous" x="0" y="0" href="https://nftpuzzle.license-token.com/assets/completepuzzle.svg" width="100%" height="100%" /><g class="links"><use href="#t2252"/></g></g></svg><svg x="1405" y="563" height="9%" width="9%" viewBox="0 0 330 330"><g><a xlink:href="https://nftpuzzle.license-token.com/" class="links"><title>See the most innovative NFT based token software licensing project</title><path fill="#E4CF37" id="more" d="M165,0C74.019,0,0,74.019,0,165s74.019,165,165,165s165-74.019,165-165S255.981,0,165,0z M85,190 c-13.785,0-25-11.215-25-25s11.215-25,25-25s25,11.215,25,25S98.785,190,85,190z M165,190c-13.785,0-25-11.215-25-25 s11.215-25,25-25s25,11.215,25,25S178.785,190,165,190z M245,190c-13.785,0-25-11.215-25-25s11.215-25,25-25 c13.785,0,25,11.215,25,25S258.785,190,245,190z"></path></a></g></svg></svg></svg>