<svg version="1.1" xmlns="http://www.w3.org/2000/svg" xmlns:xlink="http://www.w3.org/1999/xlink" fill="transparent" x="0" y="0" width="350" height="350" preserveAspectRatio="xMinYMin slice"><style type="text/css">.links{fill:transparent;stroke: #E4CF37;}.links:hover{fill:#63D272; opacity:0.4;}</style><defs><g id="allt"><path id="t2255" d="M1518,544 L1507,544 C1496,544 1511,551 1501,550 C1492,549 1505,543 1495,543 L1485,544 1485,544 L1487,552 C1489,561 1476,550 1478,560 C1481,570 1488,556 1486,566 L1485,576 1485,576 L1494,578 C1503,580 1491,568 1501,570 C1512,572 1498,579 1508,577 L1518,576 1518,576 L1518,566 C1518,556 1509,566 1511,559 C1513,553 1518,561 1518,552 L1518,544"/></g><clipPath id="c" clipRule="evenodd" fill="transparent"><use href="#t2255"/></clipPath></defs><svg viewBox="1475 542 44 39" preserveAspectRatio="xMinYMin meet"><svg width="4380" height="2430"><g><image crossorigin="anonymous" x="0" y="0" href="https://nftpuzzle.license-token.com/assets/completepuzzle.svg" width="100%" height="100%" /><g class="links"><use href="#t2255"/></g></g></svg><svg x="1504" y="566" height="9%" width="9%" viewBox="0 0 330 330"><g><a xlink:href="https://nftpuzzle.license-token.com/" class="links"><title>See the most innovative NFT based token software licensing project</title><path fill="#E4CF37" id="more" d="M165,0C74.019,0,0,74.019,0,165s74.019,165,165,165s165-74.019,165-165S255.981,0,165,0z M85,190 c-13.785,0-25-11.215-25-25s11.215-25,25-25s25,11.215,25,25S98.785,190,85,190z M165,190c-13.785,0-25-11.215-25-25 s11.215-25,25-25s25,11.215,25,25S178.785,190,165,190z M245,190c-13.785,0-25-11.215-25-25s11.215-25,25-25 c13.785,0,25,11.215,25,25S258.785,190,245,190z"></path></a></g></svg></svg></svg>