<svg version="1.1" xmlns="http://www.w3.org/2000/svg" xmlns:xlink="http://www.w3.org/1999/xlink" fill="transparent" x="0" y="0" width="350" height="350" preserveAspectRatio="xMinYMin slice"><style type="text/css">.links{fill:transparent;stroke: #E4CF37;}.links:hover{fill:#63D272; opacity:0.4;}</style><defs><g id="allt"><path id="t2263" d="M1782,544 L1772,544 C1762,545 1775,540 1765,538 C1755,537 1767,546 1758,545 L1749,544 1749,544 L1749,554 C1749,564 1746,550 1745,560 C1745,570 1749,555 1749,565 L1749,576 1749,576 L1759,576 C1769,576 1755,573 1765,572 C1776,572 1760,576 1771,576 L1782,576 1782,576 L1784,565 C1787,555 1772,568 1771,558 C1771,549 1782,562 1782,553 L1782,544"/></g><clipPath id="c" clipRule="evenodd" fill="transparent"><use href="#t2263"/></clipPath></defs><svg viewBox="1744 536 44 41" preserveAspectRatio="xMinYMin meet"><svg width="4380" height="2430"><g><image crossorigin="anonymous" x="0" y="0" href="https://nftpuzzle.license-token.com/assets/completepuzzle.svg" width="100%" height="100%" /><g class="links"><use href="#t2263"/></g></g></svg><svg x="1773" y="562" height="9%" width="9%" viewBox="0 0 330 330"><g><a xlink:href="https://nftpuzzle.license-token.com/" class="links"><title>See the most innovative NFT based token software licensing project</title><path fill="#E4CF37" id="more" d="M165,0C74.019,0,0,74.019,0,165s74.019,165,165,165s165-74.019,165-165S255.981,0,165,0z M85,190 c-13.785,0-25-11.215-25-25s11.215-25,25-25s25,11.215,25,25S98.785,190,85,190z M165,190c-13.785,0-25-11.215-25-25 s11.215-25,25-25s25,11.215,25,25S178.785,190,165,190z M245,190c-13.785,0-25-11.215-25-25s11.215-25,25-25 c13.785,0,25,11.215,25,25S258.785,190,245,190z"></path></a></g></svg></svg></svg>