<svg version="1.1" xmlns="http://www.w3.org/2000/svg" xmlns:xlink="http://www.w3.org/1999/xlink" fill="transparent" x="0" y="0" width="350" height="350" preserveAspectRatio="xMinYMin slice"><style type="text/css">.links{fill:transparent;stroke: #E4CF37;}.links:hover{fill:#63D272; opacity:0.4;}</style><defs><g id="allt"><path id="t2264" d="M1815,544 L1805,546 C1796,548 1806,537 1798,536 C1791,535 1801,548 1791,546 L1782,544 1782,544 L1782,553 C1782,562 1771,549 1771,558 C1772,568 1787,555 1784,565 L1782,576 1782,576 L1791,576 C1801,576 1787,565 1797,566 C1807,567 1794,581 1804,578 L1815,576 1815,576 L1815,565 C1815,554 1806,567 1805,558 C1804,550 1816,563 1815,553 L1815,544"/></g><clipPath id="c" clipRule="evenodd" fill="transparent"><use href="#t2264"/></clipPath></defs><svg viewBox="1770 534 47 48" preserveAspectRatio="xMinYMin meet"><svg width="4380" height="2430"><g><image crossorigin="anonymous" x="0" y="0" href="https://nftpuzzle.license-token.com/assets/completepuzzle.svg" width="100%" height="100%" /><g class="links"><use href="#t2264"/></g></g></svg><svg x="1802" y="567" height="9%" width="9%" viewBox="0 0 330 330"><g><a xlink:href="https://nftpuzzle.license-token.com/" class="links"><title>See the most innovative NFT based token software licensing project</title><path fill="#E4CF37" id="more" d="M165,0C74.019,0,0,74.019,0,165s74.019,165,165,165s165-74.019,165-165S255.981,0,165,0z M85,190 c-13.785,0-25-11.215-25-25s11.215-25,25-25s25,11.215,25,25S98.785,190,85,190z M165,190c-13.785,0-25-11.215-25-25 s11.215-25,25-25s25,11.215,25,25S178.785,190,165,190z M245,190c-13.785,0-25-11.215-25-25s11.215-25,25-25 c13.785,0,25,11.215,25,25S258.785,190,245,190z"></path></a></g></svg></svg></svg>