<svg version="1.1" xmlns="http://www.w3.org/2000/svg" xmlns:xlink="http://www.w3.org/1999/xlink" fill="transparent" x="0" y="0" width="350" height="350" preserveAspectRatio="xMinYMin slice"><style type="text/css">.links{fill:transparent;stroke: #E4CF37;}.links:hover{fill:#63D272; opacity:0.4;}</style><defs><g id="allt"><path id="t2270" d="M2013,544 L2001,544 C1990,545 2005,533 1994,532 C1984,531 1999,547 1989,545 L1980,544 1980,544 L1980,554 C1980,564 1972,552 1972,560 C1972,569 1981,557 1980,566 L1980,576 1980,576 L1990,576 C2001,576 1989,568 1997,568 C2006,568 1994,577 2003,576 L2013,576 2013,576 L2013,566 C2013,557 2022,568 2022,558 C2022,549 2013,562 2013,553 L2013,544"/></g><clipPath id="c" clipRule="evenodd" fill="transparent"><use href="#t2270"/></clipPath></defs><svg viewBox="1971 530 52 48" preserveAspectRatio="xMinYMin meet"><svg width="4380" height="2430"><g><image crossorigin="anonymous" x="0" y="0" href="https://nftpuzzle.license-token.com/assets/completepuzzle.svg" width="100%" height="100%" /><g class="links"><use href="#t2270"/></g></g></svg><svg x="2008" y="563" height="9%" width="9%" viewBox="0 0 330 330"><g><a xlink:href="https://nftpuzzle.license-token.com/" class="links"><title>See the most innovative NFT based token software licensing project</title><path fill="#E4CF37" id="more" d="M165,0C74.019,0,0,74.019,0,165s74.019,165,165,165s165-74.019,165-165S255.981,0,165,0z M85,190 c-13.785,0-25-11.215-25-25s11.215-25,25-25s25,11.215,25,25S98.785,190,85,190z M165,190c-13.785,0-25-11.215-25-25 s11.215-25,25-25s25,11.215,25,25S178.785,190,165,190z M245,190c-13.785,0-25-11.215-25-25s11.215-25,25-25 c13.785,0,25,11.215,25,25S258.785,190,245,190z"></path></a></g></svg></svg></svg>