<svg version="1.1" xmlns="http://www.w3.org/2000/svg" xmlns:xlink="http://www.w3.org/1999/xlink" fill="transparent" x="0" y="0" width="350" height="350" preserveAspectRatio="xMinYMin slice"><style type="text/css">.links{fill:transparent;stroke: #E4CF37;}.links:hover{fill:#63D272; opacity:0.4;}</style><defs><g id="allt"><path id="t2273" d="M2112,544 L2102,543 C2093,543 2105,549 2095,548 C2086,547 2097,544 2088,544 L2079,544 2079,544 L2080,552 C2081,561 2073,553 2074,560 C2075,567 2079,558 2079,567 L2079,576 2079,576 L2088,577 C2097,578 2088,570 2095,571 C2103,572 2093,576 2102,576 L2112,576 2112,576 L2112,566 C2112,557 2119,568 2117,558 C2116,549 2110,563 2111,553 L2112,544"/></g><clipPath id="c" clipRule="evenodd" fill="transparent"><use href="#t2273"/></clipPath></defs><svg viewBox="2072 542 48 37" preserveAspectRatio="xMinYMin meet"><svg width="4380" height="2430"><g><image crossorigin="anonymous" x="0" y="0" href="https://nftpuzzle.license-token.com/assets/completepuzzle.svg" width="100%" height="100%" /><g class="links"><use href="#t2273"/></g></g></svg><svg x="2105" y="564" height="9%" width="9%" viewBox="0 0 330 330"><g><a xlink:href="https://nftpuzzle.license-token.com/" class="links"><title>See the most innovative NFT based token software licensing project</title><path fill="#E4CF37" id="more" d="M165,0C74.019,0,0,74.019,0,165s74.019,165,165,165s165-74.019,165-165S255.981,0,165,0z M85,190 c-13.785,0-25-11.215-25-25s11.215-25,25-25s25,11.215,25,25S98.785,190,85,190z M165,190c-13.785,0-25-11.215-25-25 s11.215-25,25-25s25,11.215,25,25S178.785,190,165,190z M245,190c-13.785,0-25-11.215-25-25s11.215-25,25-25 c13.785,0,25,11.215,25,25S258.785,190,245,190z"></path></a></g></svg></svg></svg>