<svg version="1.1" xmlns="http://www.w3.org/2000/svg" xmlns:xlink="http://www.w3.org/1999/xlink" fill="transparent" x="0" y="0" width="350" height="350" preserveAspectRatio="xMinYMin slice"><style type="text/css">.links{fill:transparent;stroke: #E4CF37;}.links:hover{fill:#63D272; opacity:0.4;}</style><defs><g id="allt"><path id="t2274" d="M2145,544 L2134,544 C2124,544 2139,540 2128,540 C2117,540 2131,544 2121,544 L2112,544 2112,544 L2111,553 C2110,563 2116,549 2117,558 C2119,568 2112,557 2112,566 L2112,576 2112,576 L2121,575 C2131,574 2117,580 2127,581 C2137,583 2125,576 2135,576 L2145,576 2145,576 L2144,566 C2143,556 2148,570 2149,561 C2150,552 2145,562 2145,553 L2145,544"/></g><clipPath id="c" clipRule="evenodd" fill="transparent"><use href="#t2274"/></clipPath></defs><svg viewBox="2109 539 42 45" preserveAspectRatio="xMinYMin meet"><svg width="4380" height="2430"><g><image crossorigin="anonymous" x="0" y="0" href="https://nftpuzzle.license-token.com/assets/completepuzzle.svg" width="100%" height="100%" /><g class="links"><use href="#t2274"/></g></g></svg><svg x="2136" y="569" height="9%" width="9%" viewBox="0 0 330 330"><g><a xlink:href="https://nftpuzzle.license-token.com/" class="links"><title>See the most innovative NFT based token software licensing project</title><path fill="#E4CF37" id="more" d="M165,0C74.019,0,0,74.019,0,165s74.019,165,165,165s165-74.019,165-165S255.981,0,165,0z M85,190 c-13.785,0-25-11.215-25-25s11.215-25,25-25s25,11.215,25,25S98.785,190,85,190z M165,190c-13.785,0-25-11.215-25-25 s11.215-25,25-25s25,11.215,25,25S178.785,190,165,190z M245,190c-13.785,0-25-11.215-25-25s11.215-25,25-25 c13.785,0,25,11.215,25,25S258.785,190,245,190z"></path></a></g></svg></svg></svg>