<svg version="1.1" xmlns="http://www.w3.org/2000/svg" xmlns:xlink="http://www.w3.org/1999/xlink" fill="transparent" x="0" y="0" width="350" height="350" preserveAspectRatio="xMinYMin slice"><style type="text/css">.links{fill:transparent;stroke: #E4CF37;}.links:hover{fill:#63D272; opacity:0.4;}</style><defs><g id="allt"><path id="t2275" d="M2178,544 L2168,542 C2158,541 2172,555 2161,555 C2151,555 2163,545 2154,544 L2145,544 2145,544 L2145,553 C2145,562 2150,552 2149,561 C2148,570 2143,556 2144,566 L2145,576 2145,576 L2154,576 C2163,576 2154,581 2163,580 C2172,579 2157,574 2167,575 L2178,576 2178,576 L2178,566 C2178,557 2173,569 2172,560 C2171,551 2178,562 2178,553 L2178,544"/></g><clipPath id="c" clipRule="evenodd" fill="transparent"><use href="#t2275"/></clipPath></defs><svg viewBox="2142 540 37 42" preserveAspectRatio="xMinYMin meet"><svg width="4380" height="2430"><g><image crossorigin="anonymous" x="0" y="0" href="https://nftpuzzle.license-token.com/assets/completepuzzle.svg" width="100%" height="100%" /><g class="links"><use href="#t2275"/></g></g></svg><svg x="2164" y="567" height="9%" width="9%" viewBox="0 0 330 330"><g><a xlink:href="https://nftpuzzle.license-token.com/" class="links"><title>See the most innovative NFT based token software licensing project</title><path fill="#E4CF37" id="more" d="M165,0C74.019,0,0,74.019,0,165s74.019,165,165,165s165-74.019,165-165S255.981,0,165,0z M85,190 c-13.785,0-25-11.215-25-25s11.215-25,25-25s25,11.215,25,25S98.785,190,85,190z M165,190c-13.785,0-25-11.215-25-25 s11.215-25,25-25s25,11.215,25,25S178.785,190,165,190z M245,190c-13.785,0-25-11.215-25-25s11.215-25,25-25 c13.785,0,25,11.215,25,25S258.785,190,245,190z"></path></a></g></svg></svg></svg>