<svg version="1.1" xmlns="http://www.w3.org/2000/svg" xmlns:xlink="http://www.w3.org/1999/xlink" fill="transparent" x="0" y="0" width="350" height="350" preserveAspectRatio="xMinYMin slice"><style type="text/css">.links{fill:transparent;stroke: #E4CF37;}.links:hover{fill:#63D272; opacity:0.4;}</style><defs><g id="allt"><path id="t2277" d="M2244,544 L2234,546 C2225,549 2237,532 2228,534 C2219,536 2232,547 2221,545 L2211,544 2211,544 L2211,554 C2211,565 2220,552 2219,559 C2218,567 2208,557 2209,566 L2211,576 2211,576 L2222,576 C2233,576 2219,585 2226,584 C2234,583 2224,573 2234,574 L2244,576 2244,576 L2243,567 C2243,558 2256,568 2256,559 C2256,550 2238,562 2241,553 L2244,544"/></g><clipPath id="c" clipRule="evenodd" fill="transparent"><use href="#t2277"/></clipPath></defs><svg viewBox="2207 531 50 55" preserveAspectRatio="xMinYMin meet"><svg width="4380" height="2430"><g><image crossorigin="anonymous" x="0" y="0" href="https://nftpuzzle.license-token.com/assets/completepuzzle.svg" width="100%" height="100%" /><g class="links"><use href="#t2277"/></g></g></svg><svg x="2242" y="571" height="9%" width="9%" viewBox="0 0 330 330"><g><a xlink:href="https://nftpuzzle.license-token.com/" class="links"><title>See the most innovative NFT based token software licensing project</title><path fill="#E4CF37" id="more" d="M165,0C74.019,0,0,74.019,0,165s74.019,165,165,165s165-74.019,165-165S255.981,0,165,0z M85,190 c-13.785,0-25-11.215-25-25s11.215-25,25-25s25,11.215,25,25S98.785,190,85,190z M165,190c-13.785,0-25-11.215-25-25 s11.215-25,25-25s25,11.215,25,25S178.785,190,165,190z M245,190c-13.785,0-25-11.215-25-25s11.215-25,25-25 c13.785,0,25,11.215,25,25S258.785,190,245,190z"></path></a></g></svg></svg></svg>