<svg version="1.1" xmlns="http://www.w3.org/2000/svg" xmlns:xlink="http://www.w3.org/1999/xlink" fill="transparent" x="0" y="0" width="350" height="350" preserveAspectRatio="xMinYMin slice"><style type="text/css">.links{fill:transparent;stroke: #E4CF37;}.links:hover{fill:#63D272; opacity:0.4;}</style><defs><g id="allt"><path id="t228" d="M3267,32 L3257,32 C3247,32 3261,22 3251,22 C3241,23 3255,32 3244,32 L3234,32 3234,32 L3236,41 C3238,51 3227,41 3228,49 C3229,57 3238,45 3236,54 L3234,64 3234,64 L3244,66 C3254,68 3243,57 3251,58 C3260,59 3247,68 3257,66 L3267,64 3267,64 L3267,53 C3268,43 3257,57 3256,47 C3256,38 3270,51 3268,41 L3267,32"/></g><clipPath id="c" clipRule="evenodd" fill="transparent"><use href="#t228"/></clipPath></defs><svg viewBox="3226 21 45 48" preserveAspectRatio="xMinYMin meet"><svg width="4380" height="2430"><g><image crossorigin="anonymous" x="0" y="0" href="https://nftpuzzle.license-token.com/assets/completepuzzle.svg" width="100%" height="100%" /><g class="links"><use href="#t228"/></g></g></svg><svg x="3256" y="54" height="9%" width="9%" viewBox="0 0 330 330"><g><a xlink:href="https://nftpuzzle.license-token.com/" class="links"><title>See the most innovative NFT based token software licensing project</title><path fill="#E4CF37" id="more" d="M165,0C74.019,0,0,74.019,0,165s74.019,165,165,165s165-74.019,165-165S255.981,0,165,0z M85,190 c-13.785,0-25-11.215-25-25s11.215-25,25-25s25,11.215,25,25S98.785,190,85,190z M165,190c-13.785,0-25-11.215-25-25 s11.215-25,25-25s25,11.215,25,25S178.785,190,165,190z M245,190c-13.785,0-25-11.215-25-25s11.215-25,25-25 c13.785,0,25,11.215,25,25S258.785,190,245,190z"></path></a></g></svg></svg></svg>