<svg version="1.1" xmlns="http://www.w3.org/2000/svg" xmlns:xlink="http://www.w3.org/1999/xlink" fill="transparent" x="0" y="0" width="350" height="350" preserveAspectRatio="xMinYMin slice"><style type="text/css">.links{fill:transparent;stroke: #E4CF37;}.links:hover{fill:#63D272; opacity:0.4;}</style><defs><g id="allt"><path id="t2290" d="M2673,544 L2663,544 C2654,544 2667,540 2658,537 C2649,534 2659,544 2649,544 L2640,544 2640,544 L2640,553 C2640,563 2647,553 2647,560 C2647,568 2638,555 2639,565 L2640,576 2640,576 L2649,576 C2659,576 2649,583 2657,583 C2665,583 2651,574 2662,575 L2673,576 2673,576 L2673,565 C2673,554 2669,570 2668,560 C2668,551 2673,565 2673,554 L2673,544"/></g><clipPath id="c" clipRule="evenodd" fill="transparent"><use href="#t2290"/></clipPath></defs><svg viewBox="2637 533 37 51" preserveAspectRatio="xMinYMin meet"><svg width="4380" height="2430"><g><image crossorigin="anonymous" x="0" y="0" href="https://nftpuzzle.license-token.com/assets/completepuzzle.svg" width="100%" height="100%" /><g class="links"><use href="#t2290"/></g></g></svg><svg x="2659" y="569" height="9%" width="9%" viewBox="0 0 330 330"><g><a xlink:href="https://nftpuzzle.license-token.com/" class="links"><title>See the most innovative NFT based token software licensing project</title><path fill="#E4CF37" id="more" d="M165,0C74.019,0,0,74.019,0,165s74.019,165,165,165s165-74.019,165-165S255.981,0,165,0z M85,190 c-13.785,0-25-11.215-25-25s11.215-25,25-25s25,11.215,25,25S98.785,190,85,190z M165,190c-13.785,0-25-11.215-25-25 s11.215-25,25-25s25,11.215,25,25S178.785,190,165,190z M245,190c-13.785,0-25-11.215-25-25s11.215-25,25-25 c13.785,0,25,11.215,25,25S258.785,190,245,190z"></path></a></g></svg></svg></svg>