<svg version="1.1" xmlns="http://www.w3.org/2000/svg" xmlns:xlink="http://www.w3.org/1999/xlink" fill="transparent" x="0" y="0" width="350" height="350" preserveAspectRatio="xMinYMin slice"><style type="text/css">.links{fill:transparent;stroke: #E4CF37;}.links:hover{fill:#63D272; opacity:0.4;}</style><defs><g id="allt"><path id="t2292" d="M2739,544 L2729,545 C2720,546 2730,540 2721,540 C2713,540 2724,544 2715,544 L2706,544 2706,544 L2705,554 C2704,565 2709,550 2709,558 C2710,566 2706,558 2706,567 L2706,576 2706,576 L2716,575 C2727,574 2712,579 2720,579 C2729,580 2720,576 2729,576 L2739,576 2739,576 L2741,565 C2743,555 2732,567 2729,558 C2727,549 2739,562 2739,553 L2739,544"/></g><clipPath id="c" clipRule="evenodd" fill="transparent"><use href="#t2292"/></clipPath></defs><svg viewBox="2703 539 41 42" preserveAspectRatio="xMinYMin meet"><svg width="4380" height="2430"><g><image crossorigin="anonymous" x="0" y="0" href="https://nftpuzzle.license-token.com/assets/completepuzzle.svg" width="100%" height="100%" /><g class="links"><use href="#t2292"/></g></g></svg><svg x="2729" y="566" height="9%" width="9%" viewBox="0 0 330 330"><g><a xlink:href="https://nftpuzzle.license-token.com/" class="links"><title>See the most innovative NFT based token software licensing project</title><path fill="#E4CF37" id="more" d="M165,0C74.019,0,0,74.019,0,165s74.019,165,165,165s165-74.019,165-165S255.981,0,165,0z M85,190 c-13.785,0-25-11.215-25-25s11.215-25,25-25s25,11.215,25,25S98.785,190,85,190z M165,190c-13.785,0-25-11.215-25-25 s11.215-25,25-25s25,11.215,25,25S178.785,190,165,190z M245,190c-13.785,0-25-11.215-25-25s11.215-25,25-25 c13.785,0,25,11.215,25,25S258.785,190,245,190z"></path></a></g></svg></svg></svg>