<svg version="1.1" xmlns="http://www.w3.org/2000/svg" xmlns:xlink="http://www.w3.org/1999/xlink" fill="transparent" x="0" y="0" width="350" height="350" preserveAspectRatio="xMinYMin slice"><style type="text/css">.links{fill:transparent;stroke: #E4CF37;}.links:hover{fill:#63D272; opacity:0.4;}</style><defs><g id="allt"><path id="t2297" d="M2904,544 L2894,544 C2884,544 2895,550 2887,549 C2879,548 2889,542 2880,543 L2871,544 2871,544 L2870,554 C2870,564 2880,552 2880,559 C2881,566 2871,555 2871,565 L2871,576 2871,576 L2881,575 C2892,575 2879,584 2886,585 C2894,586 2883,576 2893,576 L2904,576 2904,576 L2904,567 C2904,558 2896,568 2896,559 C2897,550 2904,561 2904,552 L2904,544"/></g><clipPath id="c" clipRule="evenodd" fill="transparent"><use href="#t2297"/></clipPath></defs><svg viewBox="2869 541 36 46" preserveAspectRatio="xMinYMin meet"><svg width="4380" height="2430"><g><image crossorigin="anonymous" x="0" y="0" href="https://nftpuzzle.license-token.com/assets/completepuzzle.svg" width="100%" height="100%" /><g class="links"><use href="#t2297"/></g></g></svg><svg x="2890" y="572" height="9%" width="9%" viewBox="0 0 330 330"><g><a xlink:href="https://nftpuzzle.license-token.com/" class="links"><title>See the most innovative NFT based token software licensing project</title><path fill="#E4CF37" id="more" d="M165,0C74.019,0,0,74.019,0,165s74.019,165,165,165s165-74.019,165-165S255.981,0,165,0z M85,190 c-13.785,0-25-11.215-25-25s11.215-25,25-25s25,11.215,25,25S98.785,190,85,190z M165,190c-13.785,0-25-11.215-25-25 s11.215-25,25-25s25,11.215,25,25S178.785,190,165,190z M245,190c-13.785,0-25-11.215-25-25s11.215-25,25-25 c13.785,0,25,11.215,25,25S258.785,190,245,190z"></path></a></g></svg></svg></svg>