<svg version="1.1" xmlns="http://www.w3.org/2000/svg" xmlns:xlink="http://www.w3.org/1999/xlink" fill="transparent" x="0" y="0" width="350" height="350" preserveAspectRatio="xMinYMin slice"><style type="text/css">.links{fill:transparent;stroke: #E4CF37;}.links:hover{fill:#63D272; opacity:0.4;}</style><defs><g id="allt"><path id="t2299" d="M2970,544 L2959,543 C2949,542 2964,551 2955,552 C2946,553 2956,544 2946,544 L2937,544 2937,544 L2940,553 C2943,562 2928,552 2927,561 C2926,570 2941,557 2939,566 L2937,576 2937,576 L2946,579 C2956,582 2945,567 2954,566 C2964,565 2950,580 2960,578 L2970,576 2970,576 L2970,565 C2970,555 2967,570 2966,560 C2965,551 2970,561 2970,552 L2970,544"/></g><clipPath id="c" clipRule="evenodd" fill="transparent"><use href="#t2299"/></clipPath></defs><svg viewBox="2925 541 46 42" preserveAspectRatio="xMinYMin meet"><svg width="4380" height="2430"><g><image crossorigin="anonymous" x="0" y="0" href="https://nftpuzzle.license-token.com/assets/completepuzzle.svg" width="100%" height="100%" /><g class="links"><use href="#t2299"/></g></g></svg><svg x="2956" y="568" height="9%" width="9%" viewBox="0 0 330 330"><g><a xlink:href="https://nftpuzzle.license-token.com/" class="links"><title>See the most innovative NFT based token software licensing project</title><path fill="#E4CF37" id="more" d="M165,0C74.019,0,0,74.019,0,165s74.019,165,165,165s165-74.019,165-165S255.981,0,165,0z M85,190 c-13.785,0-25-11.215-25-25s11.215-25,25-25s25,11.215,25,25S98.785,190,85,190z M165,190c-13.785,0-25-11.215-25-25 s11.215-25,25-25s25,11.215,25,25S178.785,190,165,190z M245,190c-13.785,0-25-11.215-25-25s11.215-25,25-25 c13.785,0,25,11.215,25,25S258.785,190,245,190z"></path></a></g></svg></svg></svg>