<svg version="1.1" xmlns="http://www.w3.org/2000/svg" xmlns:xlink="http://www.w3.org/1999/xlink" fill="transparent" x="0" y="0" width="350" height="350" preserveAspectRatio="xMinYMin slice"><style type="text/css">.links{fill:transparent;stroke: #E4CF37;}.links:hover{fill:#63D272; opacity:0.4;}</style><defs><g id="allt"><path id="t2300" d="M3003,544 L2993,545 C2983,546 2994,537 2986,538 C2978,539 2990,544 2980,544 L2970,544 2970,544 L2970,552 C2970,561 2965,551 2966,560 C2967,570 2970,555 2970,565 L2970,576 2970,576 L2979,576 C2988,576 2977,571 2987,572 C2997,573 2982,576 2992,576 L3003,576 3003,576 L3002,567 C3001,558 3009,570 3009,561 C3009,552 2998,563 3000,553 L3003,544"/></g><clipPath id="c" clipRule="evenodd" fill="transparent"><use href="#t2300"/></clipPath></defs><svg viewBox="2964 536 46 41" preserveAspectRatio="xMinYMin meet"><svg width="4380" height="2430"><g><image crossorigin="anonymous" x="0" y="0" href="https://nftpuzzle.license-token.com/assets/completepuzzle.svg" width="100%" height="100%" /><g class="links"><use href="#t2300"/></g></g></svg><svg x="2995" y="562" height="9%" width="9%" viewBox="0 0 330 330"><g><a xlink:href="https://nftpuzzle.license-token.com/" class="links"><title>See the most innovative NFT based token software licensing project</title><path fill="#E4CF37" id="more" d="M165,0C74.019,0,0,74.019,0,165s74.019,165,165,165s165-74.019,165-165S255.981,0,165,0z M85,190 c-13.785,0-25-11.215-25-25s11.215-25,25-25s25,11.215,25,25S98.785,190,85,190z M165,190c-13.785,0-25-11.215-25-25 s11.215-25,25-25s25,11.215,25,25S178.785,190,165,190z M245,190c-13.785,0-25-11.215-25-25s11.215-25,25-25 c13.785,0,25,11.215,25,25S258.785,190,245,190z"></path></a></g></svg></svg></svg>