<svg version="1.1" xmlns="http://www.w3.org/2000/svg" xmlns:xlink="http://www.w3.org/1999/xlink" fill="transparent" x="0" y="0" width="350" height="350" preserveAspectRatio="xMinYMin slice"><style type="text/css">.links{fill:transparent;stroke: #E4CF37;}.links:hover{fill:#63D272; opacity:0.4;}</style><defs><g id="allt"><path id="t2311" d="M3366,544 L3355,541 C3345,539 3359,554 3349,554 C3339,554 3352,544 3342,544 L3333,544 3333,544 L3333,553 C3333,562 3329,553 3329,560 C3330,567 3333,557 3333,566 L3333,576 3333,576 L3342,576 C3351,576 3342,572 3349,572 C3357,573 3346,576 3356,576 L3366,576 3366,576 L3366,565 C3367,554 3364,569 3363,560 C3362,551 3367,565 3366,554 L3366,544"/></g><clipPath id="c" clipRule="evenodd" fill="transparent"><use href="#t2311"/></clipPath></defs><svg viewBox="3328 538 40 39" preserveAspectRatio="xMinYMin meet"><svg width="4380" height="2430"><g><image crossorigin="anonymous" x="0" y="0" href="https://nftpuzzle.license-token.com/assets/completepuzzle.svg" width="100%" height="100%" /><g class="links"><use href="#t2311"/></g></g></svg><svg x="3353" y="562" height="9%" width="9%" viewBox="0 0 330 330"><g><a xlink:href="https://nftpuzzle.license-token.com/" class="links"><title>See the most innovative NFT based token software licensing project</title><path fill="#E4CF37" id="more" d="M165,0C74.019,0,0,74.019,0,165s74.019,165,165,165s165-74.019,165-165S255.981,0,165,0z M85,190 c-13.785,0-25-11.215-25-25s11.215-25,25-25s25,11.215,25,25S98.785,190,85,190z M165,190c-13.785,0-25-11.215-25-25 s11.215-25,25-25s25,11.215,25,25S178.785,190,165,190z M245,190c-13.785,0-25-11.215-25-25s11.215-25,25-25 c13.785,0,25,11.215,25,25S258.785,190,245,190z"></path></a></g></svg></svg></svg>