<svg version="1.1" xmlns="http://www.w3.org/2000/svg" xmlns:xlink="http://www.w3.org/1999/xlink" fill="transparent" x="0" y="0" width="350" height="350" preserveAspectRatio="xMinYMin slice"><style type="text/css">.links{fill:transparent;stroke: #E4CF37;}.links:hover{fill:#63D272; opacity:0.4;}</style><defs><g id="allt"><path id="t2316" d="M3531,544 L3519,544 C3508,544 3523,549 3513,551 C3504,553 3517,542 3507,543 L3498,544 3498,544 L3498,552 C3498,561 3509,549 3506,558 C3504,568 3498,558 3498,567 L3498,576 3498,576 L3507,576 C3516,576 3503,587 3512,584 C3522,582 3512,576 3521,576 L3531,576 3531,576 L3530,565 C3530,555 3538,569 3538,561 C3538,553 3529,563 3530,553 L3531,544"/></g><clipPath id="c" clipRule="evenodd" fill="transparent"><use href="#t2316"/></clipPath></defs><svg viewBox="3497 541 42 47" preserveAspectRatio="xMinYMin meet"><svg width="4380" height="2430"><g><image crossorigin="anonymous" x="0" y="0" href="https://nftpuzzle.license-token.com/assets/completepuzzle.svg" width="100%" height="100%" /><g class="links"><use href="#t2316"/></g></g></svg><svg x="3524" y="573" height="9%" width="9%" viewBox="0 0 330 330"><g><a xlink:href="https://nftpuzzle.license-token.com/" class="links"><title>See the most innovative NFT based token software licensing project</title><path fill="#E4CF37" id="more" d="M165,0C74.019,0,0,74.019,0,165s74.019,165,165,165s165-74.019,165-165S255.981,0,165,0z M85,190 c-13.785,0-25-11.215-25-25s11.215-25,25-25s25,11.215,25,25S98.785,190,85,190z M165,190c-13.785,0-25-11.215-25-25 s11.215-25,25-25s25,11.215,25,25S178.785,190,165,190z M245,190c-13.785,0-25-11.215-25-25s11.215-25,25-25 c13.785,0,25,11.215,25,25S258.785,190,245,190z"></path></a></g></svg></svg></svg>