<svg version="1.1" xmlns="http://www.w3.org/2000/svg" xmlns:xlink="http://www.w3.org/1999/xlink" fill="transparent" x="0" y="0" width="350" height="350" preserveAspectRatio="xMinYMin slice"><style type="text/css">.links{fill:transparent;stroke: #E4CF37;}.links:hover{fill:#63D272; opacity:0.4;}</style><defs><g id="allt"><path id="t2318" d="M3597,544 L3587,543 C3578,542 3591,547 3582,547 C3573,548 3583,542 3573,543 L3564,544 3564,544 L3564,553 C3564,562 3557,551 3555,558 C3554,566 3564,556 3564,566 L3564,576 3564,576 L3573,576 C3583,576 3571,569 3579,568 C3587,567 3576,576 3586,576 L3597,576 3597,576 L3598,566 C3599,556 3593,566 3593,559 C3594,553 3599,562 3598,553 L3597,544"/></g><clipPath id="c" clipRule="evenodd" fill="transparent"><use href="#t2318"/></clipPath></defs><svg viewBox="3553 541 47 36" preserveAspectRatio="xMinYMin meet"><svg width="4380" height="2430"><g><image crossorigin="anonymous" x="0" y="0" href="https://nftpuzzle.license-token.com/assets/completepuzzle.svg" width="100%" height="100%" /><g class="links"><use href="#t2318"/></g></g></svg><svg x="3585" y="562" height="9%" width="9%" viewBox="0 0 330 330"><g><a xlink:href="https://nftpuzzle.license-token.com/" class="links"><title>See the most innovative NFT based token software licensing project</title><path fill="#E4CF37" id="more" d="M165,0C74.019,0,0,74.019,0,165s74.019,165,165,165s165-74.019,165-165S255.981,0,165,0z M85,190 c-13.785,0-25-11.215-25-25s11.215-25,25-25s25,11.215,25,25S98.785,190,85,190z M165,190c-13.785,0-25-11.215-25-25 s11.215-25,25-25s25,11.215,25,25S178.785,190,165,190z M245,190c-13.785,0-25-11.215-25-25s11.215-25,25-25 c13.785,0,25,11.215,25,25S258.785,190,245,190z"></path></a></g></svg></svg></svg>