<svg version="1.1" xmlns="http://www.w3.org/2000/svg" xmlns:xlink="http://www.w3.org/1999/xlink" fill="transparent" x="0" y="0" width="350" height="350" preserveAspectRatio="xMinYMin slice"><style type="text/css">.links{fill:transparent;stroke: #E4CF37;}.links:hover{fill:#63D272; opacity:0.4;}</style><defs><g id="allt"><path id="t232" d="M3399,32 L3389,32 C3380,32 3393,20 3382,22 C3372,24 3387,36 3376,34 L3366,32 3366,32 L3367,41 C3369,51 3358,40 3358,47 C3358,55 3366,46 3366,55 L3366,64 3366,64 L3376,65 C3386,67 3375,56 3382,56 C3389,56 3380,64 3389,64 L3399,64 3399,64 L3398,53 C3398,43 3409,56 3410,47 C3411,39 3399,50 3399,41 L3399,32"/></g><clipPath id="c" clipRule="evenodd" fill="transparent"><use href="#t232"/></clipPath></defs><svg viewBox="3357 19 55 49" preserveAspectRatio="xMinYMin meet"><svg width="4380" height="2430"><g><image crossorigin="anonymous" x="0" y="0" href="https://nftpuzzle.license-token.com/assets/completepuzzle.svg" width="100%" height="100%" /><g class="links"><use href="#t232"/></g></g></svg><svg x="3397" y="53" height="9%" width="9%" viewBox="0 0 330 330"><g><a xlink:href="https://nftpuzzle.license-token.com/" class="links"><title>See the most innovative NFT based token software licensing project</title><path fill="#E4CF37" id="more" d="M165,0C74.019,0,0,74.019,0,165s74.019,165,165,165s165-74.019,165-165S255.981,0,165,0z M85,190 c-13.785,0-25-11.215-25-25s11.215-25,25-25s25,11.215,25,25S98.785,190,85,190z M165,190c-13.785,0-25-11.215-25-25 s11.215-25,25-25s25,11.215,25,25S178.785,190,165,190z M245,190c-13.785,0-25-11.215-25-25s11.215-25,25-25 c13.785,0,25,11.215,25,25S258.785,190,245,190z"></path></a></g></svg></svg></svg>