<svg version="1.1" xmlns="http://www.w3.org/2000/svg" xmlns:xlink="http://www.w3.org/1999/xlink" fill="transparent" x="0" y="0" width="350" height="350" preserveAspectRatio="xMinYMin slice"><style type="text/css">.links{fill:transparent;stroke: #E4CF37;}.links:hover{fill:#63D272; opacity:0.4;}</style><defs><g id="allt"><path id="t2321" d="M3696,544 L3686,544 C3676,544 3689,550 3678,553 C3668,556 3683,541 3673,542 L3663,544 3663,544 L3662,553 C3662,562 3668,553 3667,559 C3667,566 3662,557 3662,566 L3663,576 3663,576 L3672,575 C3681,575 3672,581 3679,580 C3686,580 3677,575 3686,575 L3696,576 3696,576 L3695,567 C3695,558 3707,568 3704,558 C3701,549 3693,562 3694,553 L3696,544"/></g><clipPath id="c" clipRule="evenodd" fill="transparent"><use href="#t2321"/></clipPath></defs><svg viewBox="3661 540 47 42" preserveAspectRatio="xMinYMin meet"><svg width="4380" height="2430"><g><image crossorigin="anonymous" x="0" y="0" href="https://nftpuzzle.license-token.com/assets/completepuzzle.svg" width="100%" height="100%" /><g class="links"><use href="#t2321"/></g></g></svg><svg x="3693" y="567" height="9%" width="9%" viewBox="0 0 330 330"><g><a xlink:href="https://nftpuzzle.license-token.com/" class="links"><title>See the most innovative NFT based token software licensing project</title><path fill="#E4CF37" id="more" d="M165,0C74.019,0,0,74.019,0,165s74.019,165,165,165s165-74.019,165-165S255.981,0,165,0z M85,190 c-13.785,0-25-11.215-25-25s11.215-25,25-25s25,11.215,25,25S98.785,190,85,190z M165,190c-13.785,0-25-11.215-25-25 s11.215-25,25-25s25,11.215,25,25S178.785,190,165,190z M245,190c-13.785,0-25-11.215-25-25s11.215-25,25-25 c13.785,0,25,11.215,25,25S258.785,190,245,190z"></path></a></g></svg></svg></svg>