<svg version="1.1" xmlns="http://www.w3.org/2000/svg" xmlns:xlink="http://www.w3.org/1999/xlink" fill="transparent" x="0" y="0" width="350" height="350" preserveAspectRatio="xMinYMin slice"><style type="text/css">.links{fill:transparent;stroke: #E4CF37;}.links:hover{fill:#63D272; opacity:0.4;}</style><defs><g id="allt"><path id="t2328" d="M3927,544 L3916,545 C3906,547 3917,538 3908,537 C3899,537 3913,545 3903,544 L3894,544 3894,544 L3894,553 C3894,563 3889,553 3888,559 C3887,566 3897,557 3895,566 L3894,576 3894,576 L3903,576 C3913,576 3903,571 3910,570 C3917,569 3908,579 3917,577 L3927,576 3927,576 L3927,566 C3927,557 3930,567 3931,558 C3932,549 3925,564 3926,554 L3927,544"/></g><clipPath id="c" clipRule="evenodd" fill="transparent"><use href="#t2328"/></clipPath></defs><svg viewBox="3886 536 47 44" preserveAspectRatio="xMinYMin meet"><svg width="4380" height="2430"><g><image crossorigin="anonymous" x="0" y="0" href="https://nftpuzzle.license-token.com/assets/completepuzzle.svg" width="100%" height="100%" /><g class="links"><use href="#t2328"/></g></g></svg><svg x="3918" y="565" height="9%" width="9%" viewBox="0 0 330 330"><g><a xlink:href="https://nftpuzzle.license-token.com/" class="links"><title>See the most innovative NFT based token software licensing project</title><path fill="#E4CF37" id="more" d="M165,0C74.019,0,0,74.019,0,165s74.019,165,165,165s165-74.019,165-165S255.981,0,165,0z M85,190 c-13.785,0-25-11.215-25-25s11.215-25,25-25s25,11.215,25,25S98.785,190,85,190z M165,190c-13.785,0-25-11.215-25-25 s11.215-25,25-25s25,11.215,25,25S178.785,190,165,190z M245,190c-13.785,0-25-11.215-25-25s11.215-25,25-25 c13.785,0,25,11.215,25,25S258.785,190,245,190z"></path></a></g></svg></svg></svg>