<svg version="1.1" xmlns="http://www.w3.org/2000/svg" xmlns:xlink="http://www.w3.org/1999/xlink" fill="transparent" x="0" y="0" width="350" height="350" preserveAspectRatio="xMinYMin slice"><style type="text/css">.links{fill:transparent;stroke: #E4CF37;}.links:hover{fill:#63D272; opacity:0.4;}</style><defs><g id="allt"><path id="t2329" d="M3960,544 L3949,544 C3938,544 3952,536 3943,535 C3934,535 3947,545 3937,544 L3927,544 3927,544 L3926,554 C3925,564 3932,549 3931,558 C3930,567 3927,557 3927,566 L3927,576 3927,576 L3937,575 C3948,574 3932,581 3941,580 C3951,579 3940,576 3950,576 L3960,576 3960,576 L3961,566 C3963,556 3953,571 3951,561 C3950,552 3964,563 3962,553 L3960,544"/></g><clipPath id="c" clipRule="evenodd" fill="transparent"><use href="#t2329"/></clipPath></defs><svg viewBox="3924 534 41 48" preserveAspectRatio="xMinYMin meet"><svg width="4380" height="2430"><g><image crossorigin="anonymous" x="0" y="0" href="https://nftpuzzle.license-token.com/assets/completepuzzle.svg" width="100%" height="100%" /><g class="links"><use href="#t2329"/></g></g></svg><svg x="3950" y="567" height="9%" width="9%" viewBox="0 0 330 330"><g><a xlink:href="https://nftpuzzle.license-token.com/" class="links"><title>See the most innovative NFT based token software licensing project</title><path fill="#E4CF37" id="more" d="M165,0C74.019,0,0,74.019,0,165s74.019,165,165,165s165-74.019,165-165S255.981,0,165,0z M85,190 c-13.785,0-25-11.215-25-25s11.215-25,25-25s25,11.215,25,25S98.785,190,85,190z M165,190c-13.785,0-25-11.215-25-25 s11.215-25,25-25s25,11.215,25,25S178.785,190,165,190z M245,190c-13.785,0-25-11.215-25-25s11.215-25,25-25 c13.785,0,25,11.215,25,25S258.785,190,245,190z"></path></a></g></svg></svg></svg>