<svg version="1.1" xmlns="http://www.w3.org/2000/svg" xmlns:xlink="http://www.w3.org/1999/xlink" fill="transparent" x="0" y="0" width="350" height="350" preserveAspectRatio="xMinYMin slice"><style type="text/css">.links{fill:transparent;stroke: #E4CF37;}.links:hover{fill:#63D272; opacity:0.4;}</style><defs><g id="allt"><path id="t2371" d="M1056,576 L1044,576 C1033,576 1048,586 1038,583 C1028,581 1044,576 1033,576 L1023,576 1023,576 L1023,586 C1023,596 1028,584 1027,591 C1026,599 1023,587 1023,597 L1023,608 1023,608 L1033,608 C1044,608 1032,613 1039,612 C1047,611 1034,608 1045,608 L1056,608 1056,608 L1055,599 C1055,590 1061,600 1062,591 C1064,583 1055,595 1055,585 L1056,576"/></g><clipPath id="c" clipRule="evenodd" fill="transparent"><use href="#t2371"/></clipPath></defs><svg viewBox="1022 575 43 39" preserveAspectRatio="xMinYMin meet"><svg width="4380" height="2430"><g><image crossorigin="anonymous" x="0" y="0" href="https://nftpuzzle.license-token.com/assets/completepuzzle.svg" width="100%" height="100%" /><g class="links"><use href="#t2371"/></g></g></svg><svg x="1050" y="599" height="9%" width="9%" viewBox="0 0 330 330"><g><a xlink:href="https://nftpuzzle.license-token.com/" class="links"><title>See the most innovative NFT based token software licensing project</title><path fill="#E4CF37" id="more" d="M165,0C74.019,0,0,74.019,0,165s74.019,165,165,165s165-74.019,165-165S255.981,0,165,0z M85,190 c-13.785,0-25-11.215-25-25s11.215-25,25-25s25,11.215,25,25S98.785,190,85,190z M165,190c-13.785,0-25-11.215-25-25 s11.215-25,25-25s25,11.215,25,25S178.785,190,165,190z M245,190c-13.785,0-25-11.215-25-25s11.215-25,25-25 c13.785,0,25,11.215,25,25S258.785,190,245,190z"></path></a></g></svg></svg></svg>