<svg version="1.1" xmlns="http://www.w3.org/2000/svg" xmlns:xlink="http://www.w3.org/1999/xlink" fill="transparent" x="0" y="0" width="350" height="350" preserveAspectRatio="xMinYMin slice"><style type="text/css">.links{fill:transparent;stroke: #E4CF37;}.links:hover{fill:#63D272; opacity:0.4;}</style><defs><g id="allt"><path id="t2372" d="M1089,576 L1079,576 C1069,576 1084,572 1073,572 C1063,573 1075,578 1065,577 L1056,576 1056,576 L1055,585 C1055,595 1064,583 1062,591 C1061,600 1055,590 1055,599 L1056,608 1056,608 L1065,607 C1075,607 1063,616 1072,614 C1081,613 1070,607 1079,607 L1089,608 1089,608 L1089,598 C1089,588 1096,598 1095,589 C1095,581 1088,594 1088,585 L1089,576"/></g><clipPath id="c" clipRule="evenodd" fill="transparent"><use href="#t2372"/></clipPath></defs><svg viewBox="1054 571 43 46" preserveAspectRatio="xMinYMin meet"><svg width="4380" height="2430"><g><image crossorigin="anonymous" x="0" y="0" href="https://nftpuzzle.license-token.com/assets/completepuzzle.svg" width="100%" height="100%" /><g class="links"><use href="#t2372"/></g></g></svg><svg x="1082" y="602" height="9%" width="9%" viewBox="0 0 330 330"><g><a xlink:href="https://nftpuzzle.license-token.com/" class="links"><title>See the most innovative NFT based token software licensing project</title><path fill="#E4CF37" id="more" d="M165,0C74.019,0,0,74.019,0,165s74.019,165,165,165s165-74.019,165-165S255.981,0,165,0z M85,190 c-13.785,0-25-11.215-25-25s11.215-25,25-25s25,11.215,25,25S98.785,190,85,190z M165,190c-13.785,0-25-11.215-25-25 s11.215-25,25-25s25,11.215,25,25S178.785,190,165,190z M245,190c-13.785,0-25-11.215-25-25s11.215-25,25-25 c13.785,0,25,11.215,25,25S258.785,190,245,190z"></path></a></g></svg></svg></svg>