<svg version="1.1" xmlns="http://www.w3.org/2000/svg" xmlns:xlink="http://www.w3.org/1999/xlink" fill="transparent" x="0" y="0" width="350" height="350" preserveAspectRatio="xMinYMin slice"><style type="text/css">.links{fill:transparent;stroke: #E4CF37;}.links:hover{fill:#63D272; opacity:0.4;}</style><defs><g id="allt"><path id="t2374" d="M1155,576 L1144,576 C1133,576 1147,582 1137,582 C1128,582 1143,575 1132,575 L1122,576 1122,576 L1120,585 C1118,595 1130,584 1129,593 C1128,603 1118,588 1120,598 L1122,608 1122,608 L1131,606 C1141,604 1131,616 1140,615 C1150,614 1134,604 1144,606 L1155,608 1155,608 L1155,597 C1155,587 1147,600 1147,592 C1147,585 1158,594 1156,585 L1155,576"/></g><clipPath id="c" clipRule="evenodd" fill="transparent"><use href="#t2374"/></clipPath></defs><svg viewBox="1117 574 42 43" preserveAspectRatio="xMinYMin meet"><svg width="4380" height="2430"><g><image crossorigin="anonymous" x="0" y="0" href="https://nftpuzzle.license-token.com/assets/completepuzzle.svg" width="100%" height="100%" /><g class="links"><use href="#t2374"/></g></g></svg><svg x="1144" y="602" height="9%" width="9%" viewBox="0 0 330 330"><g><a xlink:href="https://nftpuzzle.license-token.com/" class="links"><title>See the most innovative NFT based token software licensing project</title><path fill="#E4CF37" id="more" d="M165,0C74.019,0,0,74.019,0,165s74.019,165,165,165s165-74.019,165-165S255.981,0,165,0z M85,190 c-13.785,0-25-11.215-25-25s11.215-25,25-25s25,11.215,25,25S98.785,190,85,190z M165,190c-13.785,0-25-11.215-25-25 s11.215-25,25-25s25,11.215,25,25S178.785,190,165,190z M245,190c-13.785,0-25-11.215-25-25s11.215-25,25-25 c13.785,0,25,11.215,25,25S258.785,190,245,190z"></path></a></g></svg></svg></svg>