<svg version="1.1" xmlns="http://www.w3.org/2000/svg" xmlns:xlink="http://www.w3.org/1999/xlink" fill="transparent" x="0" y="0" width="350" height="350" preserveAspectRatio="xMinYMin slice"><style type="text/css">.links{fill:transparent;stroke: #E4CF37;}.links:hover{fill:#63D272; opacity:0.4;}</style><defs><g id="allt"><path id="t238" d="M3597,32 L3587,31 C3577,30 3591,40 3581,38 C3572,36 3582,30 3573,31 L3564,32 3564,32 L3563,40 C3562,49 3571,38 3570,46 C3570,55 3564,42 3564,53 L3564,64 3564,64 L3573,63 C3582,62 3570,71 3579,70 C3588,70 3575,64 3586,64 L3597,64 3597,64 L3597,53 C3597,43 3599,56 3599,48 C3600,41 3597,51 3597,41 L3597,32"/></g><clipPath id="c" clipRule="evenodd" fill="transparent"><use href="#t238"/></clipPath></defs><svg viewBox="3561 29 40 43" preserveAspectRatio="xMinYMin meet"><svg width="4380" height="2430"><g><image crossorigin="anonymous" x="0" y="0" href="https://nftpuzzle.license-token.com/assets/completepuzzle.svg" width="100%" height="100%" /><g class="links"><use href="#t238"/></g></g></svg><svg x="3586" y="57" height="9%" width="9%" viewBox="0 0 330 330"><g><a xlink:href="https://nftpuzzle.license-token.com/" class="links"><title>See the most innovative NFT based token software licensing project</title><path fill="#E4CF37" id="more" d="M165,0C74.019,0,0,74.019,0,165s74.019,165,165,165s165-74.019,165-165S255.981,0,165,0z M85,190 c-13.785,0-25-11.215-25-25s11.215-25,25-25s25,11.215,25,25S98.785,190,85,190z M165,190c-13.785,0-25-11.215-25-25 s11.215-25,25-25s25,11.215,25,25S178.785,190,165,190z M245,190c-13.785,0-25-11.215-25-25s11.215-25,25-25 c13.785,0,25,11.215,25,25S258.785,190,245,190z"></path></a></g></svg></svg></svg>