<svg version="1.1" xmlns="http://www.w3.org/2000/svg" xmlns:xlink="http://www.w3.org/1999/xlink" fill="transparent" x="0" y="0" width="350" height="350" preserveAspectRatio="xMinYMin slice"><style type="text/css">.links{fill:transparent;stroke: #E4CF37;}.links:hover{fill:#63D272; opacity:0.4;}</style><defs><g id="allt"><path id="t2381" d="M1386,576 L1376,577 C1367,578 1379,571 1368,570 C1357,570 1373,576 1363,576 L1353,576 1353,576 L1353,585 C1353,595 1360,583 1359,591 C1358,600 1353,588 1353,598 L1353,608 1353,608 L1362,608 C1372,608 1360,615 1369,614 C1378,613 1365,608 1375,608 L1386,608 1386,608 L1387,598 C1388,588 1377,599 1378,591 C1379,583 1387,595 1386,585 L1386,576"/></g><clipPath id="c" clipRule="evenodd" fill="transparent"><use href="#t2381"/></clipPath></defs><svg viewBox="1352 569 37 47" preserveAspectRatio="xMinYMin meet"><svg width="4380" height="2430"><g><image crossorigin="anonymous" x="0" y="0" href="https://nftpuzzle.license-token.com/assets/completepuzzle.svg" width="100%" height="100%" /><g class="links"><use href="#t2381"/></g></g></svg><svg x="1374" y="601" height="9%" width="9%" viewBox="0 0 330 330"><g><a xlink:href="https://nftpuzzle.license-token.com/" class="links"><title>See the most innovative NFT based token software licensing project</title><path fill="#E4CF37" id="more" d="M165,0C74.019,0,0,74.019,0,165s74.019,165,165,165s165-74.019,165-165S255.981,0,165,0z M85,190 c-13.785,0-25-11.215-25-25s11.215-25,25-25s25,11.215,25,25S98.785,190,85,190z M165,190c-13.785,0-25-11.215-25-25 s11.215-25,25-25s25,11.215,25,25S178.785,190,165,190z M245,190c-13.785,0-25-11.215-25-25s11.215-25,25-25 c13.785,0,25,11.215,25,25S258.785,190,245,190z"></path></a></g></svg></svg></svg>