<svg version="1.1" xmlns="http://www.w3.org/2000/svg" xmlns:xlink="http://www.w3.org/1999/xlink" fill="transparent" x="0" y="0" width="350" height="350" preserveAspectRatio="xMinYMin slice"><style type="text/css">.links{fill:transparent;stroke: #E4CF37;}.links:hover{fill:#63D272; opacity:0.4;}</style><defs><g id="allt"><path id="t2385" d="M1518,576 L1508,577 C1498,579 1512,572 1501,570 C1491,568 1503,580 1494,578 L1485,576 1485,576 L1485,584 C1486,593 1479,584 1479,592 C1480,601 1488,588 1486,598 L1485,608 1485,608 L1494,608 C1503,609 1493,602 1502,602 C1511,603 1497,611 1507,609 L1518,608 1518,608 L1518,598 C1518,589 1514,600 1514,591 C1514,583 1518,596 1518,586 L1518,576"/></g><clipPath id="c" clipRule="evenodd" fill="transparent"><use href="#t2385"/></clipPath></defs><svg viewBox="1478 567 41 45" preserveAspectRatio="xMinYMin meet"><svg width="4380" height="2430"><g><image crossorigin="anonymous" x="0" y="0" href="https://nftpuzzle.license-token.com/assets/completepuzzle.svg" width="100%" height="100%" /><g class="links"><use href="#t2385"/></g></g></svg><svg x="1504" y="597" height="9%" width="9%" viewBox="0 0 330 330"><g><a xlink:href="https://nftpuzzle.license-token.com/" class="links"><title>See the most innovative NFT based token software licensing project</title><path fill="#E4CF37" id="more" d="M165,0C74.019,0,0,74.019,0,165s74.019,165,165,165s165-74.019,165-165S255.981,0,165,0z M85,190 c-13.785,0-25-11.215-25-25s11.215-25,25-25s25,11.215,25,25S98.785,190,85,190z M165,190c-13.785,0-25-11.215-25-25 s11.215-25,25-25s25,11.215,25,25S178.785,190,165,190z M245,190c-13.785,0-25-11.215-25-25s11.215-25,25-25 c13.785,0,25,11.215,25,25S258.785,190,245,190z"></path></a></g></svg></svg></svg>