<svg version="1.1" xmlns="http://www.w3.org/2000/svg" xmlns:xlink="http://www.w3.org/1999/xlink" fill="transparent" x="0" y="0" width="350" height="350" preserveAspectRatio="xMinYMin slice"><style type="text/css">.links{fill:transparent;stroke: #E4CF37;}.links:hover{fill:#63D272; opacity:0.4;}</style><defs><g id="allt"><path id="t2387" d="M1584,576 L1574,574 C1565,573 1574,582 1565,582 C1557,583 1569,574 1560,575 L1551,576 1551,576 L1551,585 C1551,595 1544,584 1544,593 C1544,602 1551,587 1551,597 L1551,608 1551,608 L1561,608 C1571,608 1559,601 1568,601 C1578,601 1562,608 1573,608 L1584,608 1584,608 L1586,597 C1589,587 1576,601 1576,592 C1576,583 1588,595 1586,585 L1584,576"/></g><clipPath id="c" clipRule="evenodd" fill="transparent"><use href="#t2387"/></clipPath></defs><svg viewBox="1543 572 47 37" preserveAspectRatio="xMinYMin meet"><svg width="4380" height="2430"><g><image crossorigin="anonymous" x="0" y="0" href="https://nftpuzzle.license-token.com/assets/completepuzzle.svg" width="100%" height="100%" /><g class="links"><use href="#t2387"/></g></g></svg><svg x="1575" y="594" height="9%" width="9%" viewBox="0 0 330 330"><g><a xlink:href="https://nftpuzzle.license-token.com/" class="links"><title>See the most innovative NFT based token software licensing project</title><path fill="#E4CF37" id="more" d="M165,0C74.019,0,0,74.019,0,165s74.019,165,165,165s165-74.019,165-165S255.981,0,165,0z M85,190 c-13.785,0-25-11.215-25-25s11.215-25,25-25s25,11.215,25,25S98.785,190,85,190z M165,190c-13.785,0-25-11.215-25-25 s11.215-25,25-25s25,11.215,25,25S178.785,190,165,190z M245,190c-13.785,0-25-11.215-25-25s11.215-25,25-25 c13.785,0,25,11.215,25,25S258.785,190,245,190z"></path></a></g></svg></svg></svg>