<svg version="1.1" xmlns="http://www.w3.org/2000/svg" xmlns:xlink="http://www.w3.org/1999/xlink" fill="transparent" x="0" y="0" width="350" height="350" preserveAspectRatio="xMinYMin slice"><style type="text/css">.links{fill:transparent;stroke: #E4CF37;}.links:hover{fill:#63D272; opacity:0.4;}</style><defs><g id="allt"><path id="t2389" d="M1650,576 L1640,576 C1630,576 1644,567 1634,569 C1624,571 1638,580 1627,578 L1617,576 1617,576 L1619,586 C1621,597 1608,581 1608,590 C1608,599 1617,588 1617,598 L1617,608 1617,608 L1628,610 C1639,612 1622,599 1631,599 C1640,599 1629,608 1639,608 L1650,608 1650,608 L1650,598 C1650,589 1655,602 1656,593 C1657,584 1650,593 1650,584 L1650,576"/></g><clipPath id="c" clipRule="evenodd" fill="transparent"><use href="#t2389"/></clipPath></defs><svg viewBox="1607 566 51 47" preserveAspectRatio="xMinYMin meet"><svg width="4380" height="2430"><g><image crossorigin="anonymous" x="0" y="0" href="https://nftpuzzle.license-token.com/assets/completepuzzle.svg" width="100%" height="100%" /><g class="links"><use href="#t2389"/></g></g></svg><svg x="1643" y="598" height="9%" width="9%" viewBox="0 0 330 330"><g><a xlink:href="https://nftpuzzle.license-token.com/" class="links"><title>See the most innovative NFT based token software licensing project</title><path fill="#E4CF37" id="more" d="M165,0C74.019,0,0,74.019,0,165s74.019,165,165,165s165-74.019,165-165S255.981,0,165,0z M85,190 c-13.785,0-25-11.215-25-25s11.215-25,25-25s25,11.215,25,25S98.785,190,85,190z M165,190c-13.785,0-25-11.215-25-25 s11.215-25,25-25s25,11.215,25,25S178.785,190,165,190z M245,190c-13.785,0-25-11.215-25-25s11.215-25,25-25 c13.785,0,25,11.215,25,25S258.785,190,245,190z"></path></a></g></svg></svg></svg>