<svg version="1.1" xmlns="http://www.w3.org/2000/svg" xmlns:xlink="http://www.w3.org/1999/xlink" fill="transparent" x="0" y="0" width="350" height="350" preserveAspectRatio="xMinYMin slice"><style type="text/css">.links{fill:transparent;stroke: #E4CF37;}.links:hover{fill:#63D272; opacity:0.4;}</style><defs><g id="allt"><path id="t2391" d="M1716,576 L1704,578 C1693,581 1709,570 1700,569 C1691,568 1703,578 1693,577 L1683,576 1683,576 L1683,585 C1684,594 1678,581 1676,590 C1674,599 1684,586 1683,597 L1683,608 1683,608 L1692,608 C1701,609 1688,603 1697,601 C1706,599 1693,609 1704,608 L1716,608 1716,608 L1716,598 C1716,588 1721,599 1721,590 C1721,581 1713,596 1714,586 L1716,576"/></g><clipPath id="c" clipRule="evenodd" fill="transparent"><use href="#t2391"/></clipPath></defs><svg viewBox="1673 567 49 43" preserveAspectRatio="xMinYMin meet"><svg width="4380" height="2430"><g><image crossorigin="anonymous" x="0" y="0" href="https://nftpuzzle.license-token.com/assets/completepuzzle.svg" width="100%" height="100%" /><g class="links"><use href="#t2391"/></g></g></svg><svg x="1707" y="595" height="9%" width="9%" viewBox="0 0 330 330"><g><a xlink:href="https://nftpuzzle.license-token.com/" class="links"><title>See the most innovative NFT based token software licensing project</title><path fill="#E4CF37" id="more" d="M165,0C74.019,0,0,74.019,0,165s74.019,165,165,165s165-74.019,165-165S255.981,0,165,0z M85,190 c-13.785,0-25-11.215-25-25s11.215-25,25-25s25,11.215,25,25S98.785,190,85,190z M165,190c-13.785,0-25-11.215-25-25 s11.215-25,25-25s25,11.215,25,25S178.785,190,165,190z M245,190c-13.785,0-25-11.215-25-25s11.215-25,25-25 c13.785,0,25,11.215,25,25S258.785,190,245,190z"></path></a></g></svg></svg></svg>