<svg version="1.1" xmlns="http://www.w3.org/2000/svg" xmlns:xlink="http://www.w3.org/1999/xlink" fill="transparent" x="0" y="0" width="350" height="350" preserveAspectRatio="xMinYMin slice"><style type="text/css">.links{fill:transparent;stroke: #E4CF37;}.links:hover{fill:#63D272; opacity:0.4;}</style><defs><g id="allt"><path id="t2394" d="M1815,576 L1804,578 C1794,581 1807,567 1797,566 C1787,565 1801,576 1791,576 L1782,576 1782,576 L1780,586 C1779,597 1790,582 1789,591 C1789,601 1782,590 1782,599 L1782,608 1782,608 L1793,606 C1804,605 1788,616 1798,615 C1808,615 1796,608 1805,608 L1815,608 1815,608 L1814,599 C1813,590 1817,599 1818,590 C1820,582 1815,593 1815,584 L1815,576"/></g><clipPath id="c" clipRule="evenodd" fill="transparent"><use href="#t2394"/></clipPath></defs><svg viewBox="1778 564 43 53" preserveAspectRatio="xMinYMin meet"><svg width="4380" height="2430"><g><image crossorigin="anonymous" x="0" y="0" href="https://nftpuzzle.license-token.com/assets/completepuzzle.svg" width="100%" height="100%" /><g class="links"><use href="#t2394"/></g></g></svg><svg x="1806" y="602" height="9%" width="9%" viewBox="0 0 330 330"><g><a xlink:href="https://nftpuzzle.license-token.com/" class="links"><title>See the most innovative NFT based token software licensing project</title><path fill="#E4CF37" id="more" d="M165,0C74.019,0,0,74.019,0,165s74.019,165,165,165s165-74.019,165-165S255.981,0,165,0z M85,190 c-13.785,0-25-11.215-25-25s11.215-25,25-25s25,11.215,25,25S98.785,190,85,190z M165,190c-13.785,0-25-11.215-25-25 s11.215-25,25-25s25,11.215,25,25S178.785,190,165,190z M245,190c-13.785,0-25-11.215-25-25s11.215-25,25-25 c13.785,0,25,11.215,25,25S258.785,190,245,190z"></path></a></g></svg></svg></svg>