<svg version="1.1" xmlns="http://www.w3.org/2000/svg" xmlns:xlink="http://www.w3.org/1999/xlink" fill="transparent" x="0" y="0" width="350" height="350" preserveAspectRatio="xMinYMin slice"><style type="text/css">.links{fill:transparent;stroke: #E4CF37;}.links:hover{fill:#63D272; opacity:0.4;}</style><defs><g id="allt"><path id="t2395" d="M1848,576 L1836,576 C1825,576 1839,567 1830,566 C1821,565 1835,577 1825,576 L1815,576 1815,576 L1815,584 C1815,593 1820,582 1818,590 C1817,599 1813,590 1814,599 L1815,608 1815,608 L1824,608 C1833,608 1821,613 1829,611 C1838,610 1829,606 1838,607 L1848,608 1848,608 L1850,598 C1852,588 1837,602 1838,593 C1839,585 1848,594 1848,585 L1848,576"/></g><clipPath id="c" clipRule="evenodd" fill="transparent"><use href="#t2395"/></clipPath></defs><svg viewBox="1812 564 41 50" preserveAspectRatio="xMinYMin meet"><svg width="4380" height="2430"><g><image crossorigin="anonymous" x="0" y="0" href="https://nftpuzzle.license-token.com/assets/completepuzzle.svg" width="100%" height="100%" /><g class="links"><use href="#t2395"/></g></g></svg><svg x="1838" y="599" height="9%" width="9%" viewBox="0 0 330 330"><g><a xlink:href="https://nftpuzzle.license-token.com/" class="links"><title>See the most innovative NFT based token software licensing project</title><path fill="#E4CF37" id="more" d="M165,0C74.019,0,0,74.019,0,165s74.019,165,165,165s165-74.019,165-165S255.981,0,165,0z M85,190 c-13.785,0-25-11.215-25-25s11.215-25,25-25s25,11.215,25,25S98.785,190,85,190z M165,190c-13.785,0-25-11.215-25-25 s11.215-25,25-25s25,11.215,25,25S178.785,190,165,190z M245,190c-13.785,0-25-11.215-25-25s11.215-25,25-25 c13.785,0,25,11.215,25,25S258.785,190,245,190z"></path></a></g></svg></svg></svg>