<svg version="1.1" xmlns="http://www.w3.org/2000/svg" xmlns:xlink="http://www.w3.org/1999/xlink" fill="transparent" x="0" y="0" width="350" height="350" preserveAspectRatio="xMinYMin slice"><style type="text/css">.links{fill:transparent;stroke: #E4CF37;}.links:hover{fill:#63D272; opacity:0.4;}</style><defs><g id="allt"><path id="t2397" d="M1914,576 L1903,576 C1893,576 1904,570 1896,569 C1889,568 1900,578 1890,577 L1881,576 1881,576 L1881,584 C1881,593 1876,584 1875,592 C1874,601 1881,588 1881,598 L1881,608 1881,608 L1890,608 C1899,608 1889,603 1898,602 C1907,601 1894,608 1904,608 L1914,608 1914,608 L1915,598 C1916,588 1909,602 1909,593 C1909,585 1917,596 1915,586 L1914,576"/></g><clipPath id="c" clipRule="evenodd" fill="transparent"><use href="#t2397"/></clipPath></defs><svg viewBox="1873 567 45 42" preserveAspectRatio="xMinYMin meet"><svg width="4380" height="2430"><g><image crossorigin="anonymous" x="0" y="0" href="https://nftpuzzle.license-token.com/assets/completepuzzle.svg" width="100%" height="100%" /><g class="links"><use href="#t2397"/></g></g></svg><svg x="1903" y="594" height="9%" width="9%" viewBox="0 0 330 330"><g><a xlink:href="https://nftpuzzle.license-token.com/" class="links"><title>See the most innovative NFT based token software licensing project</title><path fill="#E4CF37" id="more" d="M165,0C74.019,0,0,74.019,0,165s74.019,165,165,165s165-74.019,165-165S255.981,0,165,0z M85,190 c-13.785,0-25-11.215-25-25s11.215-25,25-25s25,11.215,25,25S98.785,190,85,190z M165,190c-13.785,0-25-11.215-25-25 s11.215-25,25-25s25,11.215,25,25S178.785,190,165,190z M245,190c-13.785,0-25-11.215-25-25s11.215-25,25-25 c13.785,0,25,11.215,25,25S258.785,190,245,190z"></path></a></g></svg></svg></svg>