<svg version="1.1" xmlns="http://www.w3.org/2000/svg" xmlns:xlink="http://www.w3.org/1999/xlink" fill="transparent" x="0" y="0" width="350" height="350" preserveAspectRatio="xMinYMin slice"><style type="text/css">.links{fill:transparent;stroke: #E4CF37;}.links:hover{fill:#63D272; opacity:0.4;}</style><defs><g id="allt"><path id="t2400" d="M2013,576 L2003,576 C1994,577 2006,568 1997,568 C1989,568 2001,576 1990,576 L1980,576 1980,576 L1979,586 C1979,596 1984,580 1983,590 C1983,600 1978,590 1979,599 L1980,608 1980,608 L1990,607 C2001,607 1984,612 1994,611 C2005,611 1994,606 2003,607 L2013,608 2013,608 L2012,598 C2012,588 2019,598 2019,589 C2020,581 2013,594 2013,585 L2013,576"/></g><clipPath id="c" clipRule="evenodd" fill="transparent"><use href="#t2400"/></clipPath></defs><svg viewBox="1977 567 44 46" preserveAspectRatio="xMinYMin meet"><svg width="4380" height="2430"><g><image crossorigin="anonymous" x="0" y="0" href="https://nftpuzzle.license-token.com/assets/completepuzzle.svg" width="100%" height="100%" /><g class="links"><use href="#t2400"/></g></g></svg><svg x="2006" y="598" height="9%" width="9%" viewBox="0 0 330 330"><g><a xlink:href="https://nftpuzzle.license-token.com/" class="links"><title>See the most innovative NFT based token software licensing project</title><path fill="#E4CF37" id="more" d="M165,0C74.019,0,0,74.019,0,165s74.019,165,165,165s165-74.019,165-165S255.981,0,165,0z M85,190 c-13.785,0-25-11.215-25-25s11.215-25,25-25s25,11.215,25,25S98.785,190,85,190z M165,190c-13.785,0-25-11.215-25-25 s11.215-25,25-25s25,11.215,25,25S178.785,190,165,190z M245,190c-13.785,0-25-11.215-25-25s11.215-25,25-25 c13.785,0,25,11.215,25,25S258.785,190,245,190z"></path></a></g></svg></svg></svg>