<svg version="1.1" xmlns="http://www.w3.org/2000/svg" xmlns:xlink="http://www.w3.org/1999/xlink" fill="transparent" x="0" y="0" width="350" height="350" preserveAspectRatio="xMinYMin slice"><style type="text/css">.links{fill:transparent;stroke: #E4CF37;}.links:hover{fill:#63D272; opacity:0.4;}</style><defs><g id="allt"><path id="t2402" d="M2079,576 L2068,575 C2058,575 2071,586 2062,585 C2053,585 2065,573 2055,574 L2046,576 2046,576 L2046,586 C2046,597 2055,584 2056,593 C2057,602 2046,587 2046,597 L2046,608 2046,608 L2056,608 C2067,608 2054,616 2063,617 C2073,618 2057,608 2068,608 L2079,608 2079,608 L2079,598 C2079,588 2086,598 2084,589 C2083,581 2077,596 2078,586 L2079,576"/></g><clipPath id="c" clipRule="evenodd" fill="transparent"><use href="#t2402"/></clipPath></defs><svg viewBox="2045 572 42 47" preserveAspectRatio="xMinYMin meet"><svg width="4380" height="2430"><g><image crossorigin="anonymous" x="0" y="0" href="https://nftpuzzle.license-token.com/assets/completepuzzle.svg" width="100%" height="100%" /><g class="links"><use href="#t2402"/></g></g></svg><svg x="2072" y="604" height="9%" width="9%" viewBox="0 0 330 330"><g><a xlink:href="https://nftpuzzle.license-token.com/" class="links"><title>See the most innovative NFT based token software licensing project</title><path fill="#E4CF37" id="more" d="M165,0C74.019,0,0,74.019,0,165s74.019,165,165,165s165-74.019,165-165S255.981,0,165,0z M85,190 c-13.785,0-25-11.215-25-25s11.215-25,25-25s25,11.215,25,25S98.785,190,85,190z M165,190c-13.785,0-25-11.215-25-25 s11.215-25,25-25s25,11.215,25,25S178.785,190,165,190z M245,190c-13.785,0-25-11.215-25-25s11.215-25,25-25 c13.785,0,25,11.215,25,25S258.785,190,245,190z"></path></a></g></svg></svg></svg>