<svg version="1.1" xmlns="http://www.w3.org/2000/svg" xmlns:xlink="http://www.w3.org/1999/xlink" fill="transparent" x="0" y="0" width="350" height="350" preserveAspectRatio="xMinYMin slice"><style type="text/css">.links{fill:transparent;stroke: #E4CF37;}.links:hover{fill:#63D272; opacity:0.4;}</style><defs><g id="allt"><path id="t2403" d="M2112,576 L2102,576 C2093,576 2103,572 2095,571 C2088,570 2097,578 2088,577 L2079,576 2079,576 L2078,586 C2077,596 2083,581 2084,589 C2086,598 2079,588 2079,598 L2079,608 2079,608 L2089,607 C2099,606 2084,612 2093,613 C2102,615 2091,608 2101,608 L2112,608 2112,608 L2114,597 C2117,587 2102,601 2103,590 C2104,580 2115,593 2113,584 L2112,576"/></g><clipPath id="c" clipRule="evenodd" fill="transparent"><use href="#t2403"/></clipPath></defs><svg viewBox="2076 569 42 47" preserveAspectRatio="xMinYMin meet"><svg width="4380" height="2430"><g><image crossorigin="anonymous" x="0" y="0" href="https://nftpuzzle.license-token.com/assets/completepuzzle.svg" width="100%" height="100%" /><g class="links"><use href="#t2403"/></g></g></svg><svg x="2103" y="601" height="9%" width="9%" viewBox="0 0 330 330"><g><a xlink:href="https://nftpuzzle.license-token.com/" class="links"><title>See the most innovative NFT based token software licensing project</title><path fill="#E4CF37" id="more" d="M165,0C74.019,0,0,74.019,0,165s74.019,165,165,165s165-74.019,165-165S255.981,0,165,0z M85,190 c-13.785,0-25-11.215-25-25s11.215-25,25-25s25,11.215,25,25S98.785,190,85,190z M165,190c-13.785,0-25-11.215-25-25 s11.215-25,25-25s25,11.215,25,25S178.785,190,165,190z M245,190c-13.785,0-25-11.215-25-25s11.215-25,25-25 c13.785,0,25,11.215,25,25S258.785,190,245,190z"></path></a></g></svg></svg></svg>