<svg version="1.1" xmlns="http://www.w3.org/2000/svg" xmlns:xlink="http://www.w3.org/1999/xlink" fill="transparent" x="0" y="0" width="350" height="350" preserveAspectRatio="xMinYMin slice"><style type="text/css">.links{fill:transparent;stroke: #E4CF37;}.links:hover{fill:#63D272; opacity:0.4;}</style><defs><g id="allt"><path id="t2410" d="M2343,576 L2333,576 C2323,577 2336,569 2325,571 C2315,573 2329,579 2319,577 L2310,576 2310,576 L2311,586 C2312,596 2306,582 2305,590 C2305,599 2310,586 2310,597 L2310,608 2310,608 L2320,609 C2331,610 2316,604 2324,603 C2333,603 2321,608 2332,608 L2343,608 2343,608 L2343,597 C2343,587 2354,600 2353,591 C2353,583 2343,597 2343,586 L2343,576"/></g><clipPath id="c" clipRule="evenodd" fill="transparent"><use href="#t2410"/></clipPath></defs><svg viewBox="2304 568 51 43" preserveAspectRatio="xMinYMin meet"><svg width="4380" height="2430"><g><image crossorigin="anonymous" x="0" y="0" href="https://nftpuzzle.license-token.com/assets/completepuzzle.svg" width="100%" height="100%" /><g class="links"><use href="#t2410"/></g></g></svg><svg x="2340" y="596" height="9%" width="9%" viewBox="0 0 330 330"><g><a xlink:href="https://nftpuzzle.license-token.com/" class="links"><title>See the most innovative NFT based token software licensing project</title><path fill="#E4CF37" id="more" d="M165,0C74.019,0,0,74.019,0,165s74.019,165,165,165s165-74.019,165-165S255.981,0,165,0z M85,190 c-13.785,0-25-11.215-25-25s11.215-25,25-25s25,11.215,25,25S98.785,190,85,190z M165,190c-13.785,0-25-11.215-25-25 s11.215-25,25-25s25,11.215,25,25S178.785,190,165,190z M245,190c-13.785,0-25-11.215-25-25s11.215-25,25-25 c13.785,0,25,11.215,25,25S258.785,190,245,190z"></path></a></g></svg></svg></svg>