<svg version="1.1" xmlns="http://www.w3.org/2000/svg" xmlns:xlink="http://www.w3.org/1999/xlink" fill="transparent" x="0" y="0" width="350" height="350" preserveAspectRatio="xMinYMin slice"><style type="text/css">.links{fill:transparent;stroke: #E4CF37;}.links:hover{fill:#63D272; opacity:0.4;}</style><defs><g id="allt"><path id="t2418" d="M2607,576 L2597,574 C2587,573 2599,582 2590,582 C2581,582 2593,576 2583,576 L2574,576 2574,576 L2574,586 C2575,596 2571,585 2571,592 C2572,600 2575,589 2574,598 L2574,608 2574,608 L2584,608 C2595,609 2583,605 2590,605 C2598,606 2587,609 2597,608 L2607,608 2607,608 L2607,598 C2607,589 2604,601 2604,592 C2604,584 2607,596 2607,586 L2607,576"/></g><clipPath id="c" clipRule="evenodd" fill="transparent"><use href="#t2418"/></clipPath></defs><svg viewBox="2570 572 38 38" preserveAspectRatio="xMinYMin meet"><svg width="4380" height="2430"><g><image crossorigin="anonymous" x="0" y="0" href="https://nftpuzzle.license-token.com/assets/completepuzzle.svg" width="100%" height="100%" /><g class="links"><use href="#t2418"/></g></g></svg><svg x="2593" y="595" height="9%" width="9%" viewBox="0 0 330 330"><g><a xlink:href="https://nftpuzzle.license-token.com/" class="links"><title>See the most innovative NFT based token software licensing project</title><path fill="#E4CF37" id="more" d="M165,0C74.019,0,0,74.019,0,165s74.019,165,165,165s165-74.019,165-165S255.981,0,165,0z M85,190 c-13.785,0-25-11.215-25-25s11.215-25,25-25s25,11.215,25,25S98.785,190,85,190z M165,190c-13.785,0-25-11.215-25-25 s11.215-25,25-25s25,11.215,25,25S178.785,190,165,190z M245,190c-13.785,0-25-11.215-25-25s11.215-25,25-25 c13.785,0,25,11.215,25,25S258.785,190,245,190z"></path></a></g></svg></svg></svg>