<svg version="1.1" xmlns="http://www.w3.org/2000/svg" xmlns:xlink="http://www.w3.org/1999/xlink" fill="transparent" x="0" y="0" width="350" height="350" preserveAspectRatio="xMinYMin slice"><style type="text/css">.links{fill:transparent;stroke: #E4CF37;}.links:hover{fill:#63D272; opacity:0.4;}</style><defs><g id="allt"><path id="t2422" d="M2739,576 L2729,576 C2720,576 2729,580 2720,579 C2712,579 2727,574 2716,575 L2706,576 2706,576 L2706,585 C2706,595 2700,585 2701,591 C2702,598 2706,589 2706,598 L2706,608 2706,608 L2715,608 C2725,608 2715,602 2722,603 C2729,604 2719,608 2729,608 L2739,608 2739,608 L2739,597 C2739,587 2744,598 2743,590 C2742,583 2739,593 2739,584 L2739,576"/></g><clipPath id="c" clipRule="evenodd" fill="transparent"><use href="#t2422"/></clipPath></defs><svg viewBox="2699 573 46 36" preserveAspectRatio="xMinYMin meet"><svg width="4380" height="2430"><g><image crossorigin="anonymous" x="0" y="0" href="https://nftpuzzle.license-token.com/assets/completepuzzle.svg" width="100%" height="100%" /><g class="links"><use href="#t2422"/></g></g></svg><svg x="2730" y="594" height="9%" width="9%" viewBox="0 0 330 330"><g><a xlink:href="https://nftpuzzle.license-token.com/" class="links"><title>See the most innovative NFT based token software licensing project</title><path fill="#E4CF37" id="more" d="M165,0C74.019,0,0,74.019,0,165s74.019,165,165,165s165-74.019,165-165S255.981,0,165,0z M85,190 c-13.785,0-25-11.215-25-25s11.215-25,25-25s25,11.215,25,25S98.785,190,85,190z M165,190c-13.785,0-25-11.215-25-25 s11.215-25,25-25s25,11.215,25,25S178.785,190,165,190z M245,190c-13.785,0-25-11.215-25-25s11.215-25,25-25 c13.785,0,25,11.215,25,25S258.785,190,245,190z"></path></a></g></svg></svg></svg>