<svg version="1.1" xmlns="http://www.w3.org/2000/svg" xmlns:xlink="http://www.w3.org/1999/xlink" fill="transparent" x="0" y="0" width="350" height="350" preserveAspectRatio="xMinYMin slice"><style type="text/css">.links{fill:transparent;stroke: #E4CF37;}.links:hover{fill:#63D272; opacity:0.4;}</style><defs><g id="allt"><path id="t2424" d="M2805,576 L2794,576 C2783,576 2796,572 2786,570 C2777,568 2794,578 2783,577 L2772,576 2772,576 L2773,585 C2774,594 2766,585 2765,593 C2764,602 2775,588 2773,598 L2772,608 2772,608 L2781,609 C2791,610 2781,602 2790,601 C2799,600 2784,611 2794,609 L2805,608 2805,608 L2805,598 C2806,589 2799,600 2799,592 C2800,584 2805,596 2805,586 L2805,576"/></g><clipPath id="c" clipRule="evenodd" fill="transparent"><use href="#t2424"/></clipPath></defs><svg viewBox="2763 567 44 45" preserveAspectRatio="xMinYMin meet"><svg width="4380" height="2430"><g><image crossorigin="anonymous" x="0" y="0" href="https://nftpuzzle.license-token.com/assets/completepuzzle.svg" width="100%" height="100%" /><g class="links"><use href="#t2424"/></g></g></svg><svg x="2792" y="597" height="9%" width="9%" viewBox="0 0 330 330"><g><a xlink:href="https://nftpuzzle.license-token.com/" class="links"><title>See the most innovative NFT based token software licensing project</title><path fill="#E4CF37" id="more" d="M165,0C74.019,0,0,74.019,0,165s74.019,165,165,165s165-74.019,165-165S255.981,0,165,0z M85,190 c-13.785,0-25-11.215-25-25s11.215-25,25-25s25,11.215,25,25S98.785,190,85,190z M165,190c-13.785,0-25-11.215-25-25 s11.215-25,25-25s25,11.215,25,25S178.785,190,165,190z M245,190c-13.785,0-25-11.215-25-25s11.215-25,25-25 c13.785,0,25,11.215,25,25S258.785,190,245,190z"></path></a></g></svg></svg></svg>