<svg version="1.1" xmlns="http://www.w3.org/2000/svg" xmlns:xlink="http://www.w3.org/1999/xlink" fill="transparent" x="0" y="0" width="350" height="350" preserveAspectRatio="xMinYMin slice"><style type="text/css">.links{fill:transparent;stroke: #E4CF37;}.links:hover{fill:#63D272; opacity:0.4;}</style><defs><g id="allt"><path id="t2427" d="M2904,576 L2893,576 C2883,576 2894,586 2886,585 C2879,584 2892,575 2881,575 L2871,576 2871,576 L2872,586 C2874,596 2864,581 2865,590 C2867,599 2874,586 2872,597 L2871,608 2871,608 L2881,609 C2891,611 2876,601 2885,602 C2895,604 2882,611 2893,609 L2904,608 2904,608 L2903,599 C2902,590 2909,602 2909,593 C2909,584 2904,597 2904,586 L2904,576"/></g><clipPath id="c" clipRule="evenodd" fill="transparent"><use href="#t2427"/></clipPath></defs><svg viewBox="2863 574 47 38" preserveAspectRatio="xMinYMin meet"><svg width="4380" height="2430"><g><image crossorigin="anonymous" x="0" y="0" href="https://nftpuzzle.license-token.com/assets/completepuzzle.svg" width="100%" height="100%" /><g class="links"><use href="#t2427"/></g></g></svg><svg x="2895" y="597" height="9%" width="9%" viewBox="0 0 330 330"><g><a xlink:href="https://nftpuzzle.license-token.com/" class="links"><title>See the most innovative NFT based token software licensing project</title><path fill="#E4CF37" id="more" d="M165,0C74.019,0,0,74.019,0,165s74.019,165,165,165s165-74.019,165-165S255.981,0,165,0z M85,190 c-13.785,0-25-11.215-25-25s11.215-25,25-25s25,11.215,25,25S98.785,190,85,190z M165,190c-13.785,0-25-11.215-25-25 s11.215-25,25-25s25,11.215,25,25S178.785,190,165,190z M245,190c-13.785,0-25-11.215-25-25s11.215-25,25-25 c13.785,0,25,11.215,25,25S258.785,190,245,190z"></path></a></g></svg></svg></svg>