<svg version="1.1" xmlns="http://www.w3.org/2000/svg" xmlns:xlink="http://www.w3.org/1999/xlink" fill="transparent" x="0" y="0" width="350" height="350" preserveAspectRatio="xMinYMin slice"><style type="text/css">.links{fill:transparent;stroke: #E4CF37;}.links:hover{fill:#63D272; opacity:0.4;}</style><defs><g id="allt"><path id="t2428" d="M2937,576 L2927,576 C2918,576 2929,568 2919,568 C2910,569 2922,576 2913,576 L2904,576 2904,576 L2904,586 C2904,597 2909,584 2909,593 C2909,602 2902,590 2903,599 L2904,608 2904,608 L2915,608 C2926,608 2913,613 2922,613 C2931,613 2918,606 2927,607 L2937,608 2937,608 L2936,599 C2936,590 2945,598 2944,590 C2944,583 2936,594 2936,585 L2937,576"/></g><clipPath id="c" clipRule="evenodd" fill="transparent"><use href="#t2428"/></clipPath></defs><svg viewBox="2901 567 45 47" preserveAspectRatio="xMinYMin meet"><svg width="4380" height="2430"><g><image crossorigin="anonymous" x="0" y="0" href="https://nftpuzzle.license-token.com/assets/completepuzzle.svg" width="100%" height="100%" /><g class="links"><use href="#t2428"/></g></g></svg><svg x="2931" y="599" height="9%" width="9%" viewBox="0 0 330 330"><g><a xlink:href="https://nftpuzzle.license-token.com/" class="links"><title>See the most innovative NFT based token software licensing project</title><path fill="#E4CF37" id="more" d="M165,0C74.019,0,0,74.019,0,165s74.019,165,165,165s165-74.019,165-165S255.981,0,165,0z M85,190 c-13.785,0-25-11.215-25-25s11.215-25,25-25s25,11.215,25,25S98.785,190,85,190z M165,190c-13.785,0-25-11.215-25-25 s11.215-25,25-25s25,11.215,25,25S178.785,190,165,190z M245,190c-13.785,0-25-11.215-25-25s11.215-25,25-25 c13.785,0,25,11.215,25,25S258.785,190,245,190z"></path></a></g></svg></svg></svg>