<svg version="1.1" xmlns="http://www.w3.org/2000/svg" xmlns:xlink="http://www.w3.org/1999/xlink" fill="transparent" x="0" y="0" width="350" height="350" preserveAspectRatio="xMinYMin slice"><style type="text/css">.links{fill:transparent;stroke: #E4CF37;}.links:hover{fill:#63D272; opacity:0.4;}</style><defs><g id="allt"><path id="t243" d="M3762,32 L3751,31 C3741,31 3754,40 3744,38 C3735,37 3749,32 3739,32 L3729,32 3729,32 L3729,41 C3729,50 3720,39 3721,47 C3723,55 3731,46 3730,55 L3729,64 3729,64 L3738,64 C3748,64 3736,55 3744,56 C3753,58 3743,66 3752,65 L3762,64 3762,64 L3762,53 C3763,43 3759,54 3758,47 C3758,40 3762,52 3762,42 L3762,32"/></g><clipPath id="c" clipRule="evenodd" fill="transparent"><use href="#t243"/></clipPath></defs><svg viewBox="3719 30 45 37" preserveAspectRatio="xMinYMin meet"><svg width="4380" height="2430"><g><image crossorigin="anonymous" x="0" y="0" href="https://nftpuzzle.license-token.com/assets/completepuzzle.svg" width="100%" height="100%" /><g class="links"><use href="#t243"/></g></g></svg><svg x="3749" y="52" height="9%" width="9%" viewBox="0 0 330 330"><g><a xlink:href="https://nftpuzzle.license-token.com/" class="links"><title>See the most innovative NFT based token software licensing project</title><path fill="#E4CF37" id="more" d="M165,0C74.019,0,0,74.019,0,165s74.019,165,165,165s165-74.019,165-165S255.981,0,165,0z M85,190 c-13.785,0-25-11.215-25-25s11.215-25,25-25s25,11.215,25,25S98.785,190,85,190z M165,190c-13.785,0-25-11.215-25-25 s11.215-25,25-25s25,11.215,25,25S178.785,190,165,190z M245,190c-13.785,0-25-11.215-25-25s11.215-25,25-25 c13.785,0,25,11.215,25,25S258.785,190,245,190z"></path></a></g></svg></svg></svg>