<svg version="1.1" xmlns="http://www.w3.org/2000/svg" xmlns:xlink="http://www.w3.org/1999/xlink" fill="transparent" x="0" y="0" width="350" height="350" preserveAspectRatio="xMinYMin slice"><style type="text/css">.links{fill:transparent;stroke: #E4CF37;}.links:hover{fill:#63D272; opacity:0.4;}</style><defs><g id="allt"><path id="t2433" d="M3102,576 L3092,577 C3082,579 3093,568 3084,568 C3076,569 3090,576 3079,576 L3069,576 3069,576 L3068,585 C3068,594 3081,585 3080,593 C3079,602 3069,589 3069,598 L3069,608 3069,608 L3078,607 C3088,607 3078,620 3087,618 C3096,617 3082,608 3092,608 L3102,608 3102,608 L3101,599 C3100,590 3106,598 3106,591 C3107,585 3102,597 3102,586 L3102,576"/></g><clipPath id="c" clipRule="evenodd" fill="transparent"><use href="#t2433"/></clipPath></defs><svg viewBox="3067 567 41 54" preserveAspectRatio="xMinYMin meet"><svg width="4380" height="2430"><g><image crossorigin="anonymous" x="0" y="0" href="https://nftpuzzle.license-token.com/assets/completepuzzle.svg" width="100%" height="100%" /><g class="links"><use href="#t2433"/></g></g></svg><svg x="3093" y="606" height="9%" width="9%" viewBox="0 0 330 330"><g><a xlink:href="https://nftpuzzle.license-token.com/" class="links"><title>See the most innovative NFT based token software licensing project</title><path fill="#E4CF37" id="more" d="M165,0C74.019,0,0,74.019,0,165s74.019,165,165,165s165-74.019,165-165S255.981,0,165,0z M85,190 c-13.785,0-25-11.215-25-25s11.215-25,25-25s25,11.215,25,25S98.785,190,85,190z M165,190c-13.785,0-25-11.215-25-25 s11.215-25,25-25s25,11.215,25,25S178.785,190,165,190z M245,190c-13.785,0-25-11.215-25-25s11.215-25,25-25 c13.785,0,25,11.215,25,25S258.785,190,245,190z"></path></a></g></svg></svg></svg>