<svg version="1.1" xmlns="http://www.w3.org/2000/svg" xmlns:xlink="http://www.w3.org/1999/xlink" fill="transparent" x="0" y="0" width="350" height="350" preserveAspectRatio="xMinYMin slice"><style type="text/css">.links{fill:transparent;stroke: #E4CF37;}.links:hover{fill:#63D272; opacity:0.4;}</style><defs><g id="allt"><path id="t2438" d="M3267,576 L3256,576 C3245,576 3257,573 3247,571 C3238,570 3252,577 3243,576 L3234,576 3234,576 L3234,586 C3234,596 3231,580 3231,591 C3231,602 3236,586 3235,597 L3234,608 3234,608 L3244,608 C3254,608 3238,605 3249,605 C3261,605 3244,610 3255,609 L3267,608 3267,608 L3267,597 C3268,586 3263,601 3262,591 C3262,581 3267,594 3267,585 L3267,576"/></g><clipPath id="c" clipRule="evenodd" fill="transparent"><use href="#t2438"/></clipPath></defs><svg viewBox="3230 569 39 42" preserveAspectRatio="xMinYMin meet"><svg width="4380" height="2430"><g><image crossorigin="anonymous" x="0" y="0" href="https://nftpuzzle.license-token.com/assets/completepuzzle.svg" width="100%" height="100%" /><g class="links"><use href="#t2438"/></g></g></svg><svg x="3254" y="596" height="9%" width="9%" viewBox="0 0 330 330"><g><a xlink:href="https://nftpuzzle.license-token.com/" class="links"><title>See the most innovative NFT based token software licensing project</title><path fill="#E4CF37" id="more" d="M165,0C74.019,0,0,74.019,0,165s74.019,165,165,165s165-74.019,165-165S255.981,0,165,0z M85,190 c-13.785,0-25-11.215-25-25s11.215-25,25-25s25,11.215,25,25S98.785,190,85,190z M165,190c-13.785,0-25-11.215-25-25 s11.215-25,25-25s25,11.215,25,25S178.785,190,165,190z M245,190c-13.785,0-25-11.215-25-25s11.215-25,25-25 c13.785,0,25,11.215,25,25S258.785,190,245,190z"></path></a></g></svg></svg></svg>