<svg version="1.1" xmlns="http://www.w3.org/2000/svg" xmlns:xlink="http://www.w3.org/1999/xlink" fill="transparent" x="0" y="0" width="350" height="350" preserveAspectRatio="xMinYMin slice"><style type="text/css">.links{fill:transparent;stroke: #E4CF37;}.links:hover{fill:#63D272; opacity:0.4;}</style><defs><g id="allt"><path id="t2447" d="M3564,576 L3553,575 C3542,575 3557,583 3548,583 C3540,583 3551,574 3541,575 L3531,576 3531,576 L3531,585 C3531,594 3536,582 3537,592 C3539,602 3528,587 3529,597 L3531,608 3531,608 L3540,608 C3549,608 3537,613 3547,614 C3558,616 3543,605 3553,606 L3564,608 3564,608 L3564,598 C3565,589 3560,601 3561,592 C3562,583 3566,594 3565,585 L3564,576"/></g><clipPath id="c" clipRule="evenodd" fill="transparent"><use href="#t2447"/></clipPath></defs><svg viewBox="3527 573 40 44" preserveAspectRatio="xMinYMin meet"><svg width="4380" height="2430"><g><image crossorigin="anonymous" x="0" y="0" href="https://nftpuzzle.license-token.com/assets/completepuzzle.svg" width="100%" height="100%" /><g class="links"><use href="#t2447"/></g></g></svg><svg x="3552" y="602" height="9%" width="9%" viewBox="0 0 330 330"><g><a xlink:href="https://nftpuzzle.license-token.com/" class="links"><title>See the most innovative NFT based token software licensing project</title><path fill="#E4CF37" id="more" d="M165,0C74.019,0,0,74.019,0,165s74.019,165,165,165s165-74.019,165-165S255.981,0,165,0z M85,190 c-13.785,0-25-11.215-25-25s11.215-25,25-25s25,11.215,25,25S98.785,190,85,190z M165,190c-13.785,0-25-11.215-25-25 s11.215-25,25-25s25,11.215,25,25S178.785,190,165,190z M245,190c-13.785,0-25-11.215-25-25s11.215-25,25-25 c13.785,0,25,11.215,25,25S258.785,190,245,190z"></path></a></g></svg></svg></svg>