<svg version="1.1" xmlns="http://www.w3.org/2000/svg" xmlns:xlink="http://www.w3.org/1999/xlink" fill="transparent" x="0" y="0" width="350" height="350" preserveAspectRatio="xMinYMin slice"><style type="text/css">.links{fill:transparent;stroke: #E4CF37;}.links:hover{fill:#63D272; opacity:0.4;}</style><defs><g id="allt"><path id="t2453" d="M3762,576 L3752,576 C3742,576 3753,580 3744,579 C3736,579 3749,575 3739,575 L3729,576 3729,576 L3729,585 C3729,595 3722,582 3722,590 C3722,599 3730,588 3729,598 L3729,608 3729,608 L3738,608 C3748,608 3735,601 3744,601 C3753,601 3741,609 3751,608 L3762,608 3762,608 L3762,598 C3762,589 3767,600 3767,591 C3767,582 3762,593 3762,584 L3762,576"/></g><clipPath id="c" clipRule="evenodd" fill="transparent"><use href="#t2453"/></clipPath></defs><svg viewBox="3721 574 47 36" preserveAspectRatio="xMinYMin meet"><svg width="4380" height="2430"><g><image crossorigin="anonymous" x="0" y="0" href="https://nftpuzzle.license-token.com/assets/completepuzzle.svg" width="100%" height="100%" /><g class="links"><use href="#t2453"/></g></g></svg><svg x="3753" y="595" height="9%" width="9%" viewBox="0 0 330 330"><g><a xlink:href="https://nftpuzzle.license-token.com/" class="links"><title>See the most innovative NFT based token software licensing project</title><path fill="#E4CF37" id="more" d="M165,0C74.019,0,0,74.019,0,165s74.019,165,165,165s165-74.019,165-165S255.981,0,165,0z M85,190 c-13.785,0-25-11.215-25-25s11.215-25,25-25s25,11.215,25,25S98.785,190,85,190z M165,190c-13.785,0-25-11.215-25-25 s11.215-25,25-25s25,11.215,25,25S178.785,190,165,190z M245,190c-13.785,0-25-11.215-25-25s11.215-25,25-25 c13.785,0,25,11.215,25,25S258.785,190,245,190z"></path></a></g></svg></svg></svg>