<svg version="1.1" xmlns="http://www.w3.org/2000/svg" xmlns:xlink="http://www.w3.org/1999/xlink" fill="transparent" x="0" y="0" width="350" height="350" preserveAspectRatio="xMinYMin slice"><style type="text/css">.links{fill:transparent;stroke: #E4CF37;}.links:hover{fill:#63D272; opacity:0.4;}</style><defs><g id="allt"><path id="t2460" d="M3993,576 L3983,577 C3973,579 3988,569 3978,567 C3969,566 3980,580 3970,578 L3960,576 3960,576 L3961,586 C3963,596 3956,581 3954,590 C3952,599 3961,588 3960,598 L3960,608 3960,608 L3970,609 C3980,611 3965,604 3974,602 C3984,600 3973,609 3983,608 L3993,608 3993,608 L3993,598 C3993,588 4002,599 4001,590 C4001,581 3993,595 3993,585 L3993,576"/></g><clipPath id="c" clipRule="evenodd" fill="transparent"><use href="#t2460"/></clipPath></defs><svg viewBox="3951 565 52 47" preserveAspectRatio="xMinYMin meet"><svg width="4380" height="2430"><g><image crossorigin="anonymous" x="0" y="0" href="https://nftpuzzle.license-token.com/assets/completepuzzle.svg" width="100%" height="100%" /><g class="links"><use href="#t2460"/></g></g></svg><svg x="3988" y="597" height="9%" width="9%" viewBox="0 0 330 330"><g><a xlink:href="https://nftpuzzle.license-token.com/" class="links"><title>See the most innovative NFT based token software licensing project</title><path fill="#E4CF37" id="more" d="M165,0C74.019,0,0,74.019,0,165s74.019,165,165,165s165-74.019,165-165S255.981,0,165,0z M85,190 c-13.785,0-25-11.215-25-25s11.215-25,25-25s25,11.215,25,25S98.785,190,85,190z M165,190c-13.785,0-25-11.215-25-25 s11.215-25,25-25s25,11.215,25,25S178.785,190,165,190z M245,190c-13.785,0-25-11.215-25-25s11.215-25,25-25 c13.785,0,25,11.215,25,25S258.785,190,245,190z"></path></a></g></svg></svg></svg>