<svg version="1.1" xmlns="http://www.w3.org/2000/svg" xmlns:xlink="http://www.w3.org/1999/xlink" fill="transparent" x="0" y="0" width="350" height="350" preserveAspectRatio="xMinYMin slice"><style type="text/css">.links{fill:transparent;stroke: #E4CF37;}.links:hover{fill:#63D272; opacity:0.4;}</style><defs><g id="allt"><path id="t2465" d="M4158,576 L4148,576 C4139,576 4149,566 4140,567 C4131,569 4146,576 4135,576 L4125,576 4125,576 L4126,586 C4127,596 4120,582 4120,591 C4120,600 4125,589 4125,598 L4125,608 4125,608 L4135,609 C4146,610 4131,603 4140,603 C4149,603 4138,608 4148,608 L4158,608 4158,608 L4157,598 C4157,588 4167,599 4167,590 C4167,582 4158,594 4158,585 L4158,576"/></g><clipPath id="c" clipRule="evenodd" fill="transparent"><use href="#t2465"/></clipPath></defs><svg viewBox="4119 565 49 46" preserveAspectRatio="xMinYMin meet"><svg width="4380" height="2430"><g><image crossorigin="anonymous" x="0" y="0" href="https://nftpuzzle.license-token.com/assets/completepuzzle.svg" width="100%" height="100%" /><g class="links"><use href="#t2465"/></g></g></svg><svg x="4153" y="596" height="9%" width="9%" viewBox="0 0 330 330"><g><a xlink:href="https://nftpuzzle.license-token.com/" class="links"><title>See the most innovative NFT based token software licensing project</title><path fill="#E4CF37" id="more" d="M165,0C74.019,0,0,74.019,0,165s74.019,165,165,165s165-74.019,165-165S255.981,0,165,0z M85,190 c-13.785,0-25-11.215-25-25s11.215-25,25-25s25,11.215,25,25S98.785,190,85,190z M165,190c-13.785,0-25-11.215-25-25 s11.215-25,25-25s25,11.215,25,25S178.785,190,165,190z M245,190c-13.785,0-25-11.215-25-25s11.215-25,25-25 c13.785,0,25,11.215,25,25S258.785,190,245,190z"></path></a></g></svg></svg></svg>