<svg version="1.1" xmlns="http://www.w3.org/2000/svg" xmlns:xlink="http://www.w3.org/1999/xlink" fill="transparent" x="0" y="0" width="350" height="350" preserveAspectRatio="xMinYMin slice"><style type="text/css">.links{fill:transparent;stroke: #E4CF37;}.links:hover{fill:#63D272; opacity:0.4;}</style><defs><g id="allt"><path id="t2498" d="M957,608 L946,609 C935,610 947,600 939,600 C932,601 943,611 933,609 L924,608 924,608 L923,617 C922,626 928,614 928,624 C929,635 924,619 924,629 L924,640 924,640 L933,639 C942,638 930,644 941,644 C952,645 936,640 946,640 L957,640 957,640 L954,629 C952,619 970,631 967,622 C965,613 952,627 954,617 L957,608"/></g><clipPath id="c" clipRule="evenodd" fill="transparent"><use href="#t2498"/></clipPath></defs><svg viewBox="921 599 50 47" preserveAspectRatio="xMinYMin meet"><svg width="4380" height="2430"><g><image crossorigin="anonymous" x="0" y="0" href="https://nftpuzzle.license-token.com/assets/completepuzzle.svg" width="100%" height="100%" /><g class="links"><use href="#t2498"/></g></g></svg><svg x="956" y="631" height="9%" width="9%" viewBox="0 0 330 330"><g><a xlink:href="https://nftpuzzle.license-token.com/" class="links"><title>See the most innovative NFT based token software licensing project</title><path fill="#E4CF37" id="more" d="M165,0C74.019,0,0,74.019,0,165s74.019,165,165,165s165-74.019,165-165S255.981,0,165,0z M85,190 c-13.785,0-25-11.215-25-25s11.215-25,25-25s25,11.215,25,25S98.785,190,85,190z M165,190c-13.785,0-25-11.215-25-25 s11.215-25,25-25s25,11.215,25,25S178.785,190,165,190z M245,190c-13.785,0-25-11.215-25-25s11.215-25,25-25 c13.785,0,25,11.215,25,25S258.785,190,245,190z"></path></a></g></svg></svg></svg>