<svg version="1.1" xmlns="http://www.w3.org/2000/svg" xmlns:xlink="http://www.w3.org/1999/xlink" fill="transparent" x="0" y="0" width="350" height="350" preserveAspectRatio="xMinYMin slice"><style type="text/css">.links{fill:transparent;stroke: #E4CF37;}.links:hover{fill:#63D272; opacity:0.4;}</style><defs><g id="allt"><path id="t2506" d="M1221,608 L1211,608 C1202,608 1211,600 1203,601 C1195,602 1206,608 1197,608 L1188,608 1188,608 L1188,616 C1188,625 1190,617 1191,624 C1192,632 1188,622 1188,631 L1188,640 1188,640 L1197,640 C1206,640 1197,642 1205,643 C1213,644 1202,640 1211,640 L1221,640 1221,640 L1221,631 C1221,622 1225,630 1226,622 C1228,615 1220,628 1220,618 L1221,608"/></g><clipPath id="c" clipRule="evenodd" fill="transparent"><use href="#t2506"/></clipPath></defs><svg viewBox="1187 599 42 46" preserveAspectRatio="xMinYMin meet"><svg width="4380" height="2430"><g><image crossorigin="anonymous" x="0" y="0" href="https://nftpuzzle.license-token.com/assets/completepuzzle.svg" width="100%" height="100%" /><g class="links"><use href="#t2506"/></g></g></svg><svg x="1214" y="630" height="9%" width="9%" viewBox="0 0 330 330"><g><a xlink:href="https://nftpuzzle.license-token.com/" class="links"><title>See the most innovative NFT based token software licensing project</title><path fill="#E4CF37" id="more" d="M165,0C74.019,0,0,74.019,0,165s74.019,165,165,165s165-74.019,165-165S255.981,0,165,0z M85,190 c-13.785,0-25-11.215-25-25s11.215-25,25-25s25,11.215,25,25S98.785,190,85,190z M165,190c-13.785,0-25-11.215-25-25 s11.215-25,25-25s25,11.215,25,25S178.785,190,165,190z M245,190c-13.785,0-25-11.215-25-25s11.215-25,25-25 c13.785,0,25,11.215,25,25S258.785,190,245,190z"></path></a></g></svg></svg></svg>