<svg version="1.1" xmlns="http://www.w3.org/2000/svg" xmlns:xlink="http://www.w3.org/1999/xlink" fill="transparent" x="0" y="0" width="350" height="350" preserveAspectRatio="xMinYMin slice"><style type="text/css">.links{fill:transparent;stroke: #E4CF37;}.links:hover{fill:#63D272; opacity:0.4;}</style><defs><g id="allt"><path id="t251" d="M4026,32 L4015,32 C4004,33 4016,25 4009,24 C4002,24 4011,34 4002,33 L3993,32 3993,32 L3991,40 C3989,49 4001,37 4000,47 C3999,58 3993,45 3993,54 L3993,64 3993,64 L4002,62 C4011,60 3998,72 4009,71 C4020,70 4007,64 4016,64 L4026,64 4026,64 L4027,54 C4029,45 4019,57 4020,48 C4021,39 4031,50 4028,41 L4026,32"/></g><clipPath id="c" clipRule="evenodd" fill="transparent"><use href="#t251"/></clipPath></defs><svg viewBox="3988 23 44 50" preserveAspectRatio="xMinYMin meet"><svg width="4380" height="2430"><g><image crossorigin="anonymous" x="0" y="0" href="https://nftpuzzle.license-token.com/assets/completepuzzle.svg" width="100%" height="100%" /><g class="links"><use href="#t251"/></g></g></svg><svg x="4017" y="58" height="9%" width="9%" viewBox="0 0 330 330"><g><a xlink:href="https://nftpuzzle.license-token.com/" class="links"><title>See the most innovative NFT based token software licensing project</title><path fill="#E4CF37" id="more" d="M165,0C74.019,0,0,74.019,0,165s74.019,165,165,165s165-74.019,165-165S255.981,0,165,0z M85,190 c-13.785,0-25-11.215-25-25s11.215-25,25-25s25,11.215,25,25S98.785,190,85,190z M165,190c-13.785,0-25-11.215-25-25 s11.215-25,25-25s25,11.215,25,25S178.785,190,165,190z M245,190c-13.785,0-25-11.215-25-25s11.215-25,25-25 c13.785,0,25,11.215,25,25S258.785,190,245,190z"></path></a></g></svg></svg></svg>