<svg version="1.1" xmlns="http://www.w3.org/2000/svg" xmlns:xlink="http://www.w3.org/1999/xlink" fill="transparent" x="0" y="0" width="350" height="350" preserveAspectRatio="xMinYMin slice"><style type="text/css">.links{fill:transparent;stroke: #E4CF37;}.links:hover{fill:#63D272; opacity:0.4;}</style><defs><g id="allt"><path id="t2511" d="M1386,608 L1375,608 C1365,608 1378,613 1369,614 C1360,615 1372,608 1362,608 L1353,608 1353,608 L1354,616 C1355,625 1344,617 1343,624 C1343,631 1353,622 1353,631 L1353,640 1353,640 L1362,641 C1371,642 1362,631 1369,631 C1377,631 1367,640 1376,640 L1386,640 1386,640 L1385,631 C1385,622 1390,632 1390,624 C1391,616 1384,628 1385,618 L1386,608"/></g><clipPath id="c" clipRule="evenodd" fill="transparent"><use href="#t2511"/></clipPath></defs><svg viewBox="1342 607 50 36" preserveAspectRatio="xMinYMin meet"><svg width="4380" height="2430"><g><image crossorigin="anonymous" x="0" y="0" href="https://nftpuzzle.license-token.com/assets/completepuzzle.svg" width="100%" height="100%" /><g class="links"><use href="#t2511"/></g></g></svg><svg x="1377" y="628" height="9%" width="9%" viewBox="0 0 330 330"><g><a xlink:href="https://nftpuzzle.license-token.com/" class="links"><title>See the most innovative NFT based token software licensing project</title><path fill="#E4CF37" id="more" d="M165,0C74.019,0,0,74.019,0,165s74.019,165,165,165s165-74.019,165-165S255.981,0,165,0z M85,190 c-13.785,0-25-11.215-25-25s11.215-25,25-25s25,11.215,25,25S98.785,190,85,190z M165,190c-13.785,0-25-11.215-25-25 s11.215-25,25-25s25,11.215,25,25S178.785,190,165,190z M245,190c-13.785,0-25-11.215-25-25s11.215-25,25-25 c13.785,0,25,11.215,25,25S258.785,190,245,190z"></path></a></g></svg></svg></svg>