<svg version="1.1" xmlns="http://www.w3.org/2000/svg" xmlns:xlink="http://www.w3.org/1999/xlink" fill="transparent" x="0" y="0" width="350" height="350" preserveAspectRatio="xMinYMin slice"><style type="text/css">.links{fill:transparent;stroke: #E4CF37;}.links:hover{fill:#63D272; opacity:0.4;}</style><defs><g id="allt"><path id="t2512" d="M1419,608 L1409,609 C1399,610 1409,599 1401,600 C1393,601 1405,609 1395,608 L1386,608 1386,608 L1385,618 C1384,628 1391,616 1390,624 C1390,632 1385,622 1385,631 L1386,640 1386,640 L1396,639 C1407,638 1394,645 1402,644 C1411,644 1400,639 1409,639 L1419,640 1419,640 L1420,629 C1422,619 1413,635 1413,625 C1413,616 1419,627 1419,617 L1419,608"/></g><clipPath id="c" clipRule="evenodd" fill="transparent"><use href="#t2512"/></clipPath></defs><svg viewBox="1383 598 40 48" preserveAspectRatio="xMinYMin meet"><svg width="4380" height="2430"><g><image crossorigin="anonymous" x="0" y="0" href="https://nftpuzzle.license-token.com/assets/completepuzzle.svg" width="100%" height="100%" /><g class="links"><use href="#t2512"/></g></g></svg><svg x="1408" y="631" height="9%" width="9%" viewBox="0 0 330 330"><g><a xlink:href="https://nftpuzzle.license-token.com/" class="links"><title>See the most innovative NFT based token software licensing project</title><path fill="#E4CF37" id="more" d="M165,0C74.019,0,0,74.019,0,165s74.019,165,165,165s165-74.019,165-165S255.981,0,165,0z M85,190 c-13.785,0-25-11.215-25-25s11.215-25,25-25s25,11.215,25,25S98.785,190,85,190z M165,190c-13.785,0-25-11.215-25-25 s11.215-25,25-25s25,11.215,25,25S178.785,190,165,190z M245,190c-13.785,0-25-11.215-25-25s11.215-25,25-25 c13.785,0,25,11.215,25,25S258.785,190,245,190z"></path></a></g></svg></svg></svg>