<svg version="1.1" xmlns="http://www.w3.org/2000/svg" xmlns:xlink="http://www.w3.org/1999/xlink" fill="transparent" x="0" y="0" width="350" height="350" preserveAspectRatio="xMinYMin slice"><style type="text/css">.links{fill:transparent;stroke: #E4CF37;}.links:hover{fill:#63D272; opacity:0.4;}</style><defs><g id="allt"><path id="t2514" d="M1485,608 L1474,609 C1464,611 1477,600 1468,602 C1459,604 1471,609 1461,608 L1452,608 1452,608 L1452,617 C1452,627 1448,616 1448,625 C1448,634 1452,619 1452,629 L1452,640 1452,640 L1462,640 C1472,640 1461,636 1470,636 C1479,636 1463,640 1474,640 L1485,640 1485,640 L1484,629 C1484,619 1489,631 1490,622 C1491,613 1485,626 1485,617 L1485,608"/></g><clipPath id="c" clipRule="evenodd" fill="transparent"><use href="#t2514"/></clipPath></defs><svg viewBox="1447 599 45 42" preserveAspectRatio="xMinYMin meet"><svg width="4380" height="2430"><g><image crossorigin="anonymous" x="0" y="0" href="https://nftpuzzle.license-token.com/assets/completepuzzle.svg" width="100%" height="100%" /><g class="links"><use href="#t2514"/></g></g></svg><svg x="1477" y="626" height="9%" width="9%" viewBox="0 0 330 330"><g><a xlink:href="https://nftpuzzle.license-token.com/" class="links"><title>See the most innovative NFT based token software licensing project</title><path fill="#E4CF37" id="more" d="M165,0C74.019,0,0,74.019,0,165s74.019,165,165,165s165-74.019,165-165S255.981,0,165,0z M85,190 c-13.785,0-25-11.215-25-25s11.215-25,25-25s25,11.215,25,25S98.785,190,85,190z M165,190c-13.785,0-25-11.215-25-25 s11.215-25,25-25s25,11.215,25,25S178.785,190,165,190z M245,190c-13.785,0-25-11.215-25-25s11.215-25,25-25 c13.785,0,25,11.215,25,25S258.785,190,245,190z"></path></a></g></svg></svg></svg>