<svg version="1.1" xmlns="http://www.w3.org/2000/svg" xmlns:xlink="http://www.w3.org/1999/xlink" fill="transparent" x="0" y="0" width="350" height="350" preserveAspectRatio="xMinYMin slice"><style type="text/css">.links{fill:transparent;stroke: #E4CF37;}.links:hover{fill:#63D272; opacity:0.4;}</style><defs><g id="allt"><path id="t252" d="M4059,32 L4048,32 C4037,33 4050,26 4042,27 C4034,29 4047,35 4036,33 L4026,32 4026,32 L4028,41 C4031,50 4021,39 4020,48 C4019,57 4029,45 4027,54 L4026,64 4026,64 L4035,66 C4045,69 4033,59 4042,58 C4052,57 4039,67 4049,65 L4059,64 4059,64 L4058,54 C4058,45 4065,55 4068,46 C4071,38 4059,53 4059,42 L4059,32"/></g><clipPath id="c" clipRule="evenodd" fill="transparent"><use href="#t252"/></clipPath></defs><svg viewBox="4018 25 54 45" preserveAspectRatio="xMinYMin meet"><svg width="4380" height="2430"><g><image crossorigin="anonymous" x="0" y="0" href="https://nftpuzzle.license-token.com/assets/completepuzzle.svg" width="100%" height="100%" /><g class="links"><use href="#t252"/></g></g></svg><svg x="4057" y="55" height="9%" width="9%" viewBox="0 0 330 330"><g><a xlink:href="https://nftpuzzle.license-token.com/" class="links"><title>See the most innovative NFT based token software licensing project</title><path fill="#E4CF37" id="more" d="M165,0C74.019,0,0,74.019,0,165s74.019,165,165,165s165-74.019,165-165S255.981,0,165,0z M85,190 c-13.785,0-25-11.215-25-25s11.215-25,25-25s25,11.215,25,25S98.785,190,85,190z M165,190c-13.785,0-25-11.215-25-25 s11.215-25,25-25s25,11.215,25,25S178.785,190,165,190z M245,190c-13.785,0-25-11.215-25-25s11.215-25,25-25 c13.785,0,25,11.215,25,25S258.785,190,245,190z"></path></a></g></svg></svg></svg>