<svg version="1.1" xmlns="http://www.w3.org/2000/svg" xmlns:xlink="http://www.w3.org/1999/xlink" fill="transparent" x="0" y="0" width="350" height="350" preserveAspectRatio="xMinYMin slice"><style type="text/css">.links{fill:transparent;stroke: #E4CF37;}.links:hover{fill:#63D272; opacity:0.4;}</style><defs><g id="allt"><path id="t2521" d="M1716,608 L1704,608 C1693,609 1706,599 1697,601 C1688,603 1701,609 1692,608 L1683,608 1683,608 L1683,617 C1683,626 1676,616 1676,625 C1676,634 1685,619 1684,629 L1683,640 1683,640 L1692,640 C1702,640 1691,633 1700,633 C1710,633 1695,642 1705,641 L1716,640 1716,640 L1716,630 C1716,621 1718,632 1719,624 C1720,617 1716,626 1716,617 L1716,608"/></g><clipPath id="c" clipRule="evenodd" fill="transparent"><use href="#t2521"/></clipPath></defs><svg viewBox="1675 598 46 45" preserveAspectRatio="xMinYMin meet"><svg width="4380" height="2430"><g><image crossorigin="anonymous" x="0" y="0" href="https://nftpuzzle.license-token.com/assets/completepuzzle.svg" width="100%" height="100%" /><g class="links"><use href="#t2521"/></g></g></svg><svg x="1706" y="628" height="9%" width="9%" viewBox="0 0 330 330"><g><a xlink:href="https://nftpuzzle.license-token.com/" class="links"><title>See the most innovative NFT based token software licensing project</title><path fill="#E4CF37" id="more" d="M165,0C74.019,0,0,74.019,0,165s74.019,165,165,165s165-74.019,165-165S255.981,0,165,0z M85,190 c-13.785,0-25-11.215-25-25s11.215-25,25-25s25,11.215,25,25S98.785,190,85,190z M165,190c-13.785,0-25-11.215-25-25 s11.215-25,25-25s25,11.215,25,25S178.785,190,165,190z M245,190c-13.785,0-25-11.215-25-25s11.215-25,25-25 c13.785,0,25,11.215,25,25S258.785,190,245,190z"></path></a></g></svg></svg></svg>