<svg version="1.1" xmlns="http://www.w3.org/2000/svg" xmlns:xlink="http://www.w3.org/1999/xlink" fill="transparent" x="0" y="0" width="350" height="350" preserveAspectRatio="xMinYMin slice"><style type="text/css">.links{fill:transparent;stroke: #E4CF37;}.links:hover{fill:#63D272; opacity:0.4;}</style><defs><g id="allt"><path id="t2523" d="M1782,608 L1771,606 C1760,604 1773,618 1763,618 C1754,618 1768,608 1758,608 L1749,608 1749,608 L1749,618 C1749,629 1755,616 1753,623 C1752,631 1749,621 1749,630 L1749,640 1749,640 L1760,640 C1771,640 1758,646 1765,644 C1772,643 1763,640 1772,640 L1782,640 1782,640 L1782,631 C1782,622 1770,634 1770,624 C1771,615 1782,627 1782,617 L1782,608"/></g><clipPath id="c" clipRule="evenodd" fill="transparent"><use href="#t2523"/></clipPath></defs><svg viewBox="1748 603 35 44" preserveAspectRatio="xMinYMin meet"><svg width="4380" height="2430"><g><image crossorigin="anonymous" x="0" y="0" href="https://nftpuzzle.license-token.com/assets/completepuzzle.svg" width="100%" height="100%" /><g class="links"><use href="#t2523"/></g></g></svg><svg x="1768" y="632" height="9%" width="9%" viewBox="0 0 330 330"><g><a xlink:href="https://nftpuzzle.license-token.com/" class="links"><title>See the most innovative NFT based token software licensing project</title><path fill="#E4CF37" id="more" d="M165,0C74.019,0,0,74.019,0,165s74.019,165,165,165s165-74.019,165-165S255.981,0,165,0z M85,190 c-13.785,0-25-11.215-25-25s11.215-25,25-25s25,11.215,25,25S98.785,190,85,190z M165,190c-13.785,0-25-11.215-25-25 s11.215-25,25-25s25,11.215,25,25S178.785,190,165,190z M245,190c-13.785,0-25-11.215-25-25s11.215-25,25-25 c13.785,0,25,11.215,25,25S258.785,190,245,190z"></path></a></g></svg></svg></svg>