<svg version="1.1" xmlns="http://www.w3.org/2000/svg" xmlns:xlink="http://www.w3.org/1999/xlink" fill="transparent" x="0" y="0" width="350" height="350" preserveAspectRatio="xMinYMin slice"><style type="text/css">.links{fill:transparent;stroke: #E4CF37;}.links:hover{fill:#63D272; opacity:0.4;}</style><defs><g id="allt"><path id="t2526" d="M1881,608 L1870,610 C1860,612 1875,597 1866,598 C1857,599 1867,608 1857,608 L1848,608 1848,608 L1848,617 C1848,627 1850,615 1850,623 C1851,631 1848,619 1848,629 L1848,640 1848,640 L1858,640 C1868,640 1855,642 1863,642 C1872,643 1859,640 1870,640 L1881,640 1881,640 L1882,630 C1884,620 1875,630 1875,623 C1875,616 1883,625 1882,616 L1881,608"/></g><clipPath id="c" clipRule="evenodd" fill="transparent"><use href="#t2526"/></clipPath></defs><svg viewBox="1847 596 38 48" preserveAspectRatio="xMinYMin meet"><svg width="4380" height="2430"><g><image crossorigin="anonymous" x="0" y="0" href="https://nftpuzzle.license-token.com/assets/completepuzzle.svg" width="100%" height="100%" /><g class="links"><use href="#t2526"/></g></g></svg><svg x="1870" y="629" height="9%" width="9%" viewBox="0 0 330 330"><g><a xlink:href="https://nftpuzzle.license-token.com/" class="links"><title>See the most innovative NFT based token software licensing project</title><path fill="#E4CF37" id="more" d="M165,0C74.019,0,0,74.019,0,165s74.019,165,165,165s165-74.019,165-165S255.981,0,165,0z M85,190 c-13.785,0-25-11.215-25-25s11.215-25,25-25s25,11.215,25,25S98.785,190,85,190z M165,190c-13.785,0-25-11.215-25-25 s11.215-25,25-25s25,11.215,25,25S178.785,190,165,190z M245,190c-13.785,0-25-11.215-25-25s11.215-25,25-25 c13.785,0,25,11.215,25,25S258.785,190,245,190z"></path></a></g></svg></svg></svg>