<svg version="1.1" xmlns="http://www.w3.org/2000/svg" xmlns:xlink="http://www.w3.org/1999/xlink" fill="transparent" x="0" y="0" width="350" height="350" preserveAspectRatio="xMinYMin slice"><style type="text/css">.links{fill:transparent;stroke: #E4CF37;}.links:hover{fill:#63D272; opacity:0.4;}</style><defs><g id="allt"><path id="t253" d="M4092,32 L4082,32 C4072,32 4084,38 4075,36 C4066,34 4079,32 4069,32 L4059,32 4059,32 L4059,42 C4059,53 4071,38 4068,46 C4065,55 4058,45 4058,54 L4059,64 4059,64 L4070,64 C4081,64 4065,75 4073,72 C4082,70 4072,63 4082,63 L4092,64 4092,64 L4092,54 C4093,44 4083,54 4085,47 C4087,40 4094,51 4093,41 L4092,32"/></g><clipPath id="c" clipRule="evenodd" fill="transparent"><use href="#t253"/></clipPath></defs><svg viewBox="4057 31 38 45" preserveAspectRatio="xMinYMin meet"><svg width="4380" height="2430"><g><image crossorigin="anonymous" x="0" y="0" href="https://nftpuzzle.license-token.com/assets/completepuzzle.svg" width="100%" height="100%" /><g class="links"><use href="#t253"/></g></g></svg><svg x="4080" y="61" height="9%" width="9%" viewBox="0 0 330 330"><g><a xlink:href="https://nftpuzzle.license-token.com/" class="links"><title>See the most innovative NFT based token software licensing project</title><path fill="#E4CF37" id="more" d="M165,0C74.019,0,0,74.019,0,165s74.019,165,165,165s165-74.019,165-165S255.981,0,165,0z M85,190 c-13.785,0-25-11.215-25-25s11.215-25,25-25s25,11.215,25,25S98.785,190,85,190z M165,190c-13.785,0-25-11.215-25-25 s11.215-25,25-25s25,11.215,25,25S178.785,190,165,190z M245,190c-13.785,0-25-11.215-25-25s11.215-25,25-25 c13.785,0,25,11.215,25,25S258.785,190,245,190z"></path></a></g></svg></svg></svg>