<svg version="1.1" xmlns="http://www.w3.org/2000/svg" xmlns:xlink="http://www.w3.org/1999/xlink" fill="transparent" x="0" y="0" width="350" height="350" preserveAspectRatio="xMinYMin slice"><style type="text/css">.links{fill:transparent;stroke: #E4CF37;}.links:hover{fill:#63D272; opacity:0.4;}</style><defs><g id="allt"><path id="t2533" d="M2112,608 L2101,608 C2091,608 2102,615 2093,613 C2084,612 2099,606 2089,607 L2079,608 2079,608 L2079,617 C2079,626 2084,613 2083,623 C2083,634 2078,618 2078,629 L2079,640 2079,640 L2088,640 C2097,640 2084,645 2095,644 C2106,644 2090,639 2101,639 L2112,640 2112,640 L2112,630 C2113,621 2102,630 2104,621 C2106,613 2112,629 2112,618 L2112,608"/></g><clipPath id="c" clipRule="evenodd" fill="transparent"><use href="#t2533"/></clipPath></defs><svg viewBox="2077 605 37 41" preserveAspectRatio="xMinYMin meet"><svg width="4380" height="2430"><g><image crossorigin="anonymous" x="0" y="0" href="https://nftpuzzle.license-token.com/assets/completepuzzle.svg" width="100%" height="100%" /><g class="links"><use href="#t2533"/></g></g></svg><svg x="2099" y="631" height="9%" width="9%" viewBox="0 0 330 330"><g><a xlink:href="https://nftpuzzle.license-token.com/" class="links"><title>See the most innovative NFT based token software licensing project</title><path fill="#E4CF37" id="more" d="M165,0C74.019,0,0,74.019,0,165s74.019,165,165,165s165-74.019,165-165S255.981,0,165,0z M85,190 c-13.785,0-25-11.215-25-25s11.215-25,25-25s25,11.215,25,25S98.785,190,85,190z M165,190c-13.785,0-25-11.215-25-25 s11.215-25,25-25s25,11.215,25,25S178.785,190,165,190z M245,190c-13.785,0-25-11.215-25-25s11.215-25,25-25 c13.785,0,25,11.215,25,25S258.785,190,245,190z"></path></a></g></svg></svg></svg>