<svg version="1.1" xmlns="http://www.w3.org/2000/svg" xmlns:xlink="http://www.w3.org/1999/xlink" fill="transparent" x="0" y="0" width="350" height="350" preserveAspectRatio="xMinYMin slice"><style type="text/css">.links{fill:transparent;stroke: #E4CF37;}.links:hover{fill:#63D272; opacity:0.4;}</style><defs><g id="allt"><path id="t2534" d="M2145,608 L2134,610 C2123,613 2138,598 2127,599 C2116,600 2130,611 2121,609 L2112,608 2112,608 L2112,618 C2112,629 2106,613 2104,621 C2102,630 2113,621 2112,630 L2112,640 2112,640 L2123,640 C2134,640 2117,634 2126,632 C2135,630 2125,641 2135,640 L2145,640 2145,640 L2145,629 C2146,618 2136,630 2137,622 C2138,614 2147,627 2146,617 L2145,608"/></g><clipPath id="c" clipRule="evenodd" fill="transparent"><use href="#t2534"/></clipPath></defs><svg viewBox="2101 597 47 45" preserveAspectRatio="xMinYMin meet"><svg width="4380" height="2430"><g><image crossorigin="anonymous" x="0" y="0" href="https://nftpuzzle.license-token.com/assets/completepuzzle.svg" width="100%" height="100%" /><g class="links"><use href="#t2534"/></g></g></svg><svg x="2133" y="627" height="9%" width="9%" viewBox="0 0 330 330"><g><a xlink:href="https://nftpuzzle.license-token.com/" class="links"><title>See the most innovative NFT based token software licensing project</title><path fill="#E4CF37" id="more" d="M165,0C74.019,0,0,74.019,0,165s74.019,165,165,165s165-74.019,165-165S255.981,0,165,0z M85,190 c-13.785,0-25-11.215-25-25s11.215-25,25-25s25,11.215,25,25S98.785,190,85,190z M165,190c-13.785,0-25-11.215-25-25 s11.215-25,25-25s25,11.215,25,25S178.785,190,165,190z M245,190c-13.785,0-25-11.215-25-25s11.215-25,25-25 c13.785,0,25,11.215,25,25S258.785,190,245,190z"></path></a></g></svg></svg></svg>