<svg version="1.1" xmlns="http://www.w3.org/2000/svg" xmlns:xlink="http://www.w3.org/1999/xlink" fill="transparent" x="0" y="0" width="350" height="350" preserveAspectRatio="xMinYMin slice"><style type="text/css">.links{fill:transparent;stroke: #E4CF37;}.links:hover{fill:#63D272; opacity:0.4;}</style><defs><g id="allt"><path id="t254" d="M4125,32 L4114,31 C4104,30 4115,43 4107,41 C4099,40 4113,28 4102,30 L4092,32 4092,32 L4093,41 C4094,51 4087,40 4085,47 C4083,54 4093,44 4092,54 L4092,64 4092,64 L4102,65 C4112,66 4100,59 4107,57 C4115,55 4105,65 4115,64 L4125,64 4125,64 L4124,54 C4123,45 4133,58 4132,49 C4131,40 4121,51 4123,41 L4125,32"/></g><clipPath id="c" clipRule="evenodd" fill="transparent"><use href="#t254"/></clipPath></defs><svg viewBox="4082 27 52 40" preserveAspectRatio="xMinYMin meet"><svg width="4380" height="2430"><g><image crossorigin="anonymous" x="0" y="0" href="https://nftpuzzle.license-token.com/assets/completepuzzle.svg" width="100%" height="100%" /><g class="links"><use href="#t254"/></g></g></svg><svg x="4119" y="52" height="9%" width="9%" viewBox="0 0 330 330"><g><a xlink:href="https://nftpuzzle.license-token.com/" class="links"><title>See the most innovative NFT based token software licensing project</title><path fill="#E4CF37" id="more" d="M165,0C74.019,0,0,74.019,0,165s74.019,165,165,165s165-74.019,165-165S255.981,0,165,0z M85,190 c-13.785,0-25-11.215-25-25s11.215-25,25-25s25,11.215,25,25S98.785,190,85,190z M165,190c-13.785,0-25-11.215-25-25 s11.215-25,25-25s25,11.215,25,25S178.785,190,165,190z M245,190c-13.785,0-25-11.215-25-25s11.215-25,25-25 c13.785,0,25,11.215,25,25S258.785,190,245,190z"></path></a></g></svg></svg></svg>