<svg version="1.1" xmlns="http://www.w3.org/2000/svg" xmlns:xlink="http://www.w3.org/1999/xlink" fill="transparent" x="0" y="0" width="350" height="350" preserveAspectRatio="xMinYMin slice"><style type="text/css">.links{fill:transparent;stroke: #E4CF37;}.links:hover{fill:#63D272; opacity:0.4;}</style><defs><g id="allt"><path id="t2551" d="M2706,608 L2694,608 C2683,608 2697,604 2688,604 C2679,604 2694,609 2683,608 L2673,608 2673,608 L2672,617 C2672,627 2678,614 2678,623 C2679,633 2673,621 2673,630 L2673,640 2673,640 L2683,639 C2693,639 2679,645 2689,645 C2699,646 2686,640 2696,640 L2706,640 2706,640 L2706,631 C2706,622 2717,631 2714,623 C2712,616 2706,629 2706,618 L2706,608"/></g><clipPath id="c" clipRule="evenodd" fill="transparent"><use href="#t2551"/></clipPath></defs><svg viewBox="2671 603 47 44" preserveAspectRatio="xMinYMin meet"><svg width="4380" height="2430"><g><image crossorigin="anonymous" x="0" y="0" href="https://nftpuzzle.license-token.com/assets/completepuzzle.svg" width="100%" height="100%" /><g class="links"><use href="#t2551"/></g></g></svg><svg x="2703" y="632" height="9%" width="9%" viewBox="0 0 330 330"><g><a xlink:href="https://nftpuzzle.license-token.com/" class="links"><title>See the most innovative NFT based token software licensing project</title><path fill="#E4CF37" id="more" d="M165,0C74.019,0,0,74.019,0,165s74.019,165,165,165s165-74.019,165-165S255.981,0,165,0z M85,190 c-13.785,0-25-11.215-25-25s11.215-25,25-25s25,11.215,25,25S98.785,190,85,190z M165,190c-13.785,0-25-11.215-25-25 s11.215-25,25-25s25,11.215,25,25S178.785,190,165,190z M245,190c-13.785,0-25-11.215-25-25s11.215-25,25-25 c13.785,0,25,11.215,25,25S258.785,190,245,190z"></path></a></g></svg></svg></svg>