<svg version="1.1" xmlns="http://www.w3.org/2000/svg" xmlns:xlink="http://www.w3.org/1999/xlink" fill="transparent" x="0" y="0" width="350" height="350" preserveAspectRatio="xMinYMin slice"><style type="text/css">.links{fill:transparent;stroke: #E4CF37;}.links:hover{fill:#63D272; opacity:0.4;}</style><defs><g id="allt"><path id="t2553" d="M2772,608 L2761,608 C2751,608 2762,613 2754,612 C2746,611 2757,608 2748,608 L2739,608 2739,608 L2739,617 C2739,626 2744,617 2744,624 C2744,631 2739,620 2739,630 L2739,640 2739,640 L2748,640 C2758,640 2748,645 2755,645 C2763,645 2752,640 2762,640 L2772,640 2772,640 L2774,629 C2776,618 2767,632 2764,624 C2762,616 2774,627 2773,617 L2772,608"/></g><clipPath id="c" clipRule="evenodd" fill="transparent"><use href="#t2553"/></clipPath></defs><svg viewBox="2738 607 39 39" preserveAspectRatio="xMinYMin meet"><svg width="4380" height="2430"><g><image crossorigin="anonymous" x="0" y="0" href="https://nftpuzzle.license-token.com/assets/completepuzzle.svg" width="100%" height="100%" /><g class="links"><use href="#t2553"/></g></g></svg><svg x="2762" y="631" height="9%" width="9%" viewBox="0 0 330 330"><g><a xlink:href="https://nftpuzzle.license-token.com/" class="links"><title>See the most innovative NFT based token software licensing project</title><path fill="#E4CF37" id="more" d="M165,0C74.019,0,0,74.019,0,165s74.019,165,165,165s165-74.019,165-165S255.981,0,165,0z M85,190 c-13.785,0-25-11.215-25-25s11.215-25,25-25s25,11.215,25,25S98.785,190,85,190z M165,190c-13.785,0-25-11.215-25-25 s11.215-25,25-25s25,11.215,25,25S178.785,190,165,190z M245,190c-13.785,0-25-11.215-25-25s11.215-25,25-25 c13.785,0,25,11.215,25,25S258.785,190,245,190z"></path></a></g></svg></svg></svg>