<svg version="1.1" xmlns="http://www.w3.org/2000/svg" xmlns:xlink="http://www.w3.org/1999/xlink" fill="transparent" x="0" y="0" width="350" height="350" preserveAspectRatio="xMinYMin slice"><style type="text/css">.links{fill:transparent;stroke: #E4CF37;}.links:hover{fill:#63D272; opacity:0.4;}</style><defs><g id="allt"><path id="t2554" d="M2805,608 L2794,609 C2784,611 2799,600 2790,601 C2781,602 2791,610 2781,609 L2772,608 2772,608 L2773,617 C2774,627 2762,616 2764,624 C2767,632 2776,618 2774,629 L2772,640 2772,640 L2782,641 C2792,642 2780,630 2788,632 C2797,635 2782,644 2793,642 L2805,640 2805,640 L2805,629 C2805,618 2796,630 2797,621 C2798,613 2805,629 2805,618 L2805,608"/></g><clipPath id="c" clipRule="evenodd" fill="transparent"><use href="#t2554"/></clipPath></defs><svg viewBox="2761 599 45 46" preserveAspectRatio="xMinYMin meet"><svg width="4380" height="2430"><g><image crossorigin="anonymous" x="0" y="0" href="https://nftpuzzle.license-token.com/assets/completepuzzle.svg" width="100%" height="100%" /><g class="links"><use href="#t2554"/></g></g></svg><svg x="2791" y="630" height="9%" width="9%" viewBox="0 0 330 330"><g><a xlink:href="https://nftpuzzle.license-token.com/" class="links"><title>See the most innovative NFT based token software licensing project</title><path fill="#E4CF37" id="more" d="M165,0C74.019,0,0,74.019,0,165s74.019,165,165,165s165-74.019,165-165S255.981,0,165,0z M85,190 c-13.785,0-25-11.215-25-25s11.215-25,25-25s25,11.215,25,25S98.785,190,85,190z M165,190c-13.785,0-25-11.215-25-25 s11.215-25,25-25s25,11.215,25,25S178.785,190,165,190z M245,190c-13.785,0-25-11.215-25-25s11.215-25,25-25 c13.785,0,25,11.215,25,25S258.785,190,245,190z"></path></a></g></svg></svg></svg>