<svg version="1.1" xmlns="http://www.w3.org/2000/svg" xmlns:xlink="http://www.w3.org/1999/xlink" fill="transparent" x="0" y="0" width="350" height="350" preserveAspectRatio="xMinYMin slice"><style type="text/css">.links{fill:transparent;stroke: #E4CF37;}.links:hover{fill:#63D272; opacity:0.4;}</style><defs><g id="allt"><path id="t2560" d="M3003,608 L2993,608 C2983,608 2993,601 2985,600 C2977,599 2991,611 2980,609 L2970,608 2970,608 L2970,617 C2970,626 2977,613 2976,622 C2976,632 2970,622 2970,631 L2970,640 2970,640 L2979,640 C2989,640 2975,647 2985,646 C2995,646 2984,640 2993,640 L3003,640 3003,640 L3002,630 C3001,621 3010,632 3010,623 C3011,615 3002,627 3002,617 L3003,608"/></g><clipPath id="c" clipRule="evenodd" fill="transparent"><use href="#t2560"/></clipPath></defs><svg viewBox="2969 598 43 50" preserveAspectRatio="xMinYMin meet"><svg width="4380" height="2430"><g><image crossorigin="anonymous" x="0" y="0" href="https://nftpuzzle.license-token.com/assets/completepuzzle.svg" width="100%" height="100%" /><g class="links"><use href="#t2560"/></g></g></svg><svg x="2997" y="633" height="9%" width="9%" viewBox="0 0 330 330"><g><a xlink:href="https://nftpuzzle.license-token.com/" class="links"><title>See the most innovative NFT based token software licensing project</title><path fill="#E4CF37" id="more" d="M165,0C74.019,0,0,74.019,0,165s74.019,165,165,165s165-74.019,165-165S255.981,0,165,0z M85,190 c-13.785,0-25-11.215-25-25s11.215-25,25-25s25,11.215,25,25S98.785,190,85,190z M165,190c-13.785,0-25-11.215-25-25 s11.215-25,25-25s25,11.215,25,25S178.785,190,165,190z M245,190c-13.785,0-25-11.215-25-25s11.215-25,25-25 c13.785,0,25,11.215,25,25S258.785,190,245,190z"></path></a></g></svg></svg></svg>