<svg version="1.1" xmlns="http://www.w3.org/2000/svg" xmlns:xlink="http://www.w3.org/1999/xlink" fill="transparent" x="0" y="0" width="350" height="350" preserveAspectRatio="xMinYMin slice"><style type="text/css">.links{fill:transparent;stroke: #E4CF37;}.links:hover{fill:#63D272; opacity:0.4;}</style><defs><g id="allt"><path id="t2564" d="M3135,608 L3125,607 C3116,606 3125,612 3118,612 C3111,613 3124,608 3113,608 L3102,608 3102,608 L3102,617 C3102,626 3105,615 3106,624 C3107,633 3102,620 3102,630 L3102,640 3102,640 L3111,640 C3120,640 3109,643 3118,644 C3128,645 3114,640 3124,640 L3135,640 3135,640 L3134,630 C3134,621 3141,632 3139,624 C3138,616 3135,627 3135,617 L3135,608"/></g><clipPath id="c" clipRule="evenodd" fill="transparent"><use href="#t2564"/></clipPath></defs><svg viewBox="3101 605 41 41" preserveAspectRatio="xMinYMin meet"><svg width="4380" height="2430"><g><image crossorigin="anonymous" x="0" y="0" href="https://nftpuzzle.license-token.com/assets/completepuzzle.svg" width="100%" height="100%" /><g class="links"><use href="#t2564"/></g></g></svg><svg x="3127" y="631" height="9%" width="9%" viewBox="0 0 330 330"><g><a xlink:href="https://nftpuzzle.license-token.com/" class="links"><title>See the most innovative NFT based token software licensing project</title><path fill="#E4CF37" id="more" d="M165,0C74.019,0,0,74.019,0,165s74.019,165,165,165s165-74.019,165-165S255.981,0,165,0z M85,190 c-13.785,0-25-11.215-25-25s11.215-25,25-25s25,11.215,25,25S98.785,190,85,190z M165,190c-13.785,0-25-11.215-25-25 s11.215-25,25-25s25,11.215,25,25S178.785,190,165,190z M245,190c-13.785,0-25-11.215-25-25s11.215-25,25-25 c13.785,0,25,11.215,25,25S258.785,190,245,190z"></path></a></g></svg></svg></svg>