<svg version="1.1" xmlns="http://www.w3.org/2000/svg" xmlns:xlink="http://www.w3.org/1999/xlink" fill="transparent" x="0" y="0" width="350" height="350" preserveAspectRatio="xMinYMin slice"><style type="text/css">.links{fill:transparent;stroke: #E4CF37;}.links:hover{fill:#63D272; opacity:0.4;}</style><defs><g id="allt"><path id="t2568" d="M3267,608 L3255,609 C3244,610 3261,605 3249,605 C3238,605 3254,608 3244,608 L3234,608 3234,608 L3236,617 C3238,626 3228,612 3225,623 C3223,634 3237,619 3235,629 L3234,640 3234,640 L3243,642 C3252,644 3238,634 3249,631 C3261,629 3246,643 3256,641 L3267,640 3267,640 L3266,630 C3265,620 3271,631 3271,623 C3272,615 3266,628 3266,618 L3267,608"/></g><clipPath id="c" clipRule="evenodd" fill="transparent"><use href="#t2568"/></clipPath></defs><svg viewBox="3222 604 51 41" preserveAspectRatio="xMinYMin meet"><svg width="4380" height="2430"><g><image crossorigin="anonymous" x="0" y="0" href="https://nftpuzzle.license-token.com/assets/completepuzzle.svg" width="100%" height="100%" /><g class="links"><use href="#t2568"/></g></g></svg><svg x="3258" y="630" height="9%" width="9%" viewBox="0 0 330 330"><g><a xlink:href="https://nftpuzzle.license-token.com/" class="links"><title>See the most innovative NFT based token software licensing project</title><path fill="#E4CF37" id="more" d="M165,0C74.019,0,0,74.019,0,165s74.019,165,165,165s165-74.019,165-165S255.981,0,165,0z M85,190 c-13.785,0-25-11.215-25-25s11.215-25,25-25s25,11.215,25,25S98.785,190,85,190z M165,190c-13.785,0-25-11.215-25-25 s11.215-25,25-25s25,11.215,25,25S178.785,190,165,190z M245,190c-13.785,0-25-11.215-25-25s11.215-25,25-25 c13.785,0,25,11.215,25,25S258.785,190,245,190z"></path></a></g></svg></svg></svg>