<svg version="1.1" xmlns="http://www.w3.org/2000/svg" xmlns:xlink="http://www.w3.org/1999/xlink" fill="transparent" x="0" y="0" width="350" height="350" preserveAspectRatio="xMinYMin slice"><style type="text/css">.links{fill:transparent;stroke: #E4CF37;}.links:hover{fill:#63D272; opacity:0.4;}</style><defs><g id="allt"><path id="t2571" d="M3366,608 L3356,608 C3346,608 3357,605 3349,604 C3341,604 3352,610 3342,609 L3333,608 3333,608 L3331,617 C3329,627 3338,614 3340,623 C3343,632 3333,622 3333,631 L3333,640 3333,640 L3342,638 C3352,636 3339,645 3348,647 C3358,650 3347,640 3356,640 L3366,640 3366,640 L3366,629 C3366,618 3368,630 3369,621 C3371,613 3365,627 3365,617 L3366,608"/></g><clipPath id="c" clipRule="evenodd" fill="transparent"><use href="#t2571"/></clipPath></defs><svg viewBox="3328 603 44 48" preserveAspectRatio="xMinYMin meet"><svg width="4380" height="2430"><g><image crossorigin="anonymous" x="0" y="0" href="https://nftpuzzle.license-token.com/assets/completepuzzle.svg" width="100%" height="100%" /><g class="links"><use href="#t2571"/></g></g></svg><svg x="3357" y="636" height="9%" width="9%" viewBox="0 0 330 330"><g><a xlink:href="https://nftpuzzle.license-token.com/" class="links"><title>See the most innovative NFT based token software licensing project</title><path fill="#E4CF37" id="more" d="M165,0C74.019,0,0,74.019,0,165s74.019,165,165,165s165-74.019,165-165S255.981,0,165,0z M85,190 c-13.785,0-25-11.215-25-25s11.215-25,25-25s25,11.215,25,25S98.785,190,85,190z M165,190c-13.785,0-25-11.215-25-25 s11.215-25,25-25s25,11.215,25,25S178.785,190,165,190z M245,190c-13.785,0-25-11.215-25-25s11.215-25,25-25 c13.785,0,25,11.215,25,25S258.785,190,245,190z"></path></a></g></svg></svg></svg>