<svg version="1.1" xmlns="http://www.w3.org/2000/svg" xmlns:xlink="http://www.w3.org/1999/xlink" fill="transparent" x="0" y="0" width="350" height="350" preserveAspectRatio="xMinYMin slice"><style type="text/css">.links{fill:transparent;stroke: #E4CF37;}.links:hover{fill:#63D272; opacity:0.4;}</style><defs><g id="allt"><path id="t2575" d="M3498,608 L3487,609 C3476,610 3491,603 3481,602 C3471,602 3485,608 3475,608 L3465,608 3465,608 L3465,618 C3465,628 3455,614 3454,622 C3454,631 3470,622 3467,631 L3465,640 3465,640 L3475,640 C3486,640 3471,630 3479,629 C3488,629 3479,645 3488,642 L3498,640 3498,640 L3498,629 C3498,618 3490,631 3489,624 C3489,617 3499,628 3498,618 L3498,608"/></g><clipPath id="c" clipRule="evenodd" fill="transparent"><use href="#t2575"/></clipPath></defs><svg viewBox="3453 601 47 45" preserveAspectRatio="xMinYMin meet"><svg width="4380" height="2430"><g><image crossorigin="anonymous" x="0" y="0" href="https://nftpuzzle.license-token.com/assets/completepuzzle.svg" width="100%" height="100%" /><g class="links"><use href="#t2575"/></g></g></svg><svg x="3485" y="631" height="9%" width="9%" viewBox="0 0 330 330"><g><a xlink:href="https://nftpuzzle.license-token.com/" class="links"><title>See the most innovative NFT based token software licensing project</title><path fill="#E4CF37" id="more" d="M165,0C74.019,0,0,74.019,0,165s74.019,165,165,165s165-74.019,165-165S255.981,0,165,0z M85,190 c-13.785,0-25-11.215-25-25s11.215-25,25-25s25,11.215,25,25S98.785,190,85,190z M165,190c-13.785,0-25-11.215-25-25 s11.215-25,25-25s25,11.215,25,25S178.785,190,165,190z M245,190c-13.785,0-25-11.215-25-25s11.215-25,25-25 c13.785,0,25,11.215,25,25S258.785,190,245,190z"></path></a></g></svg></svg></svg>