<svg version="1.1" xmlns="http://www.w3.org/2000/svg" xmlns:xlink="http://www.w3.org/1999/xlink" fill="transparent" x="0" y="0" width="350" height="350" preserveAspectRatio="xMinYMin slice"><style type="text/css">.links{fill:transparent;stroke: #E4CF37;}.links:hover{fill:#63D272; opacity:0.4;}</style><defs><g id="allt"><path id="t2578" d="M3597,608 L3587,608 C3577,609 3590,604 3580,605 C3571,606 3583,610 3573,609 L3564,608 3564,608 L3564,617 C3565,626 3562,613 3560,621 C3559,630 3564,621 3564,630 L3564,640 3564,640 L3573,640 C3583,641 3569,638 3578,636 C3587,635 3577,640 3587,640 L3597,640 3597,640 L3597,629 C3597,619 3593,631 3593,623 C3593,615 3597,627 3597,617 L3597,608"/></g><clipPath id="c" clipRule="evenodd" fill="transparent"><use href="#t2578"/></clipPath></defs><svg viewBox="3558 603 40 39" preserveAspectRatio="xMinYMin meet"><svg width="4380" height="2430"><g><image crossorigin="anonymous" x="0" y="0" href="https://nftpuzzle.license-token.com/assets/completepuzzle.svg" width="100%" height="100%" /><g class="links"><use href="#t2578"/></g></g></svg><svg x="3583" y="627" height="9%" width="9%" viewBox="0 0 330 330"><g><a xlink:href="https://nftpuzzle.license-token.com/" class="links"><title>See the most innovative NFT based token software licensing project</title><path fill="#E4CF37" id="more" d="M165,0C74.019,0,0,74.019,0,165s74.019,165,165,165s165-74.019,165-165S255.981,0,165,0z M85,190 c-13.785,0-25-11.215-25-25s11.215-25,25-25s25,11.215,25,25S98.785,190,85,190z M165,190c-13.785,0-25-11.215-25-25 s11.215-25,25-25s25,11.215,25,25S178.785,190,165,190z M245,190c-13.785,0-25-11.215-25-25s11.215-25,25-25 c13.785,0,25,11.215,25,25S258.785,190,245,190z"></path></a></g></svg></svg></svg>