<svg version="1.1" xmlns="http://www.w3.org/2000/svg" xmlns:xlink="http://www.w3.org/1999/xlink" fill="transparent" x="0" y="0" width="350" height="350" preserveAspectRatio="xMinYMin slice"><style type="text/css">.links{fill:transparent;stroke: #E4CF37;}.links:hover{fill:#63D272; opacity:0.4;}</style><defs><g id="allt"><path id="t2579" d="M3630,608 L3620,606 C3611,605 3624,616 3614,614 C3604,613 3615,607 3606,607 L3597,608 3597,608 L3597,617 C3597,627 3593,615 3593,623 C3593,631 3597,619 3597,629 L3597,640 3597,640 L3607,640 C3617,640 3604,636 3612,636 C3620,636 3608,640 3619,640 L3630,640 3630,640 L3629,629 C3628,618 3640,632 3637,624 C3634,616 3630,626 3630,617 L3630,608"/></g><clipPath id="c" clipRule="evenodd" fill="transparent"><use href="#t2579"/></clipPath></defs><svg viewBox="3592 604 49 37" preserveAspectRatio="xMinYMin meet"><svg width="4380" height="2430"><g><image crossorigin="anonymous" x="0" y="0" href="https://nftpuzzle.license-token.com/assets/completepuzzle.svg" width="100%" height="100%" /><g class="links"><use href="#t2579"/></g></g></svg><svg x="3626" y="626" height="9%" width="9%" viewBox="0 0 330 330"><g><a xlink:href="https://nftpuzzle.license-token.com/" class="links"><title>See the most innovative NFT based token software licensing project</title><path fill="#E4CF37" id="more" d="M165,0C74.019,0,0,74.019,0,165s74.019,165,165,165s165-74.019,165-165S255.981,0,165,0z M85,190 c-13.785,0-25-11.215-25-25s11.215-25,25-25s25,11.215,25,25S98.785,190,85,190z M165,190c-13.785,0-25-11.215-25-25 s11.215-25,25-25s25,11.215,25,25S178.785,190,165,190z M245,190c-13.785,0-25-11.215-25-25s11.215-25,25-25 c13.785,0,25,11.215,25,25S258.785,190,245,190z"></path></a></g></svg></svg></svg>