<svg version="1.1" xmlns="http://www.w3.org/2000/svg" xmlns:xlink="http://www.w3.org/1999/xlink" fill="transparent" x="0" y="0" width="350" height="350" preserveAspectRatio="xMinYMin slice"><style type="text/css">.links{fill:transparent;stroke: #E4CF37;}.links:hover{fill:#63D272; opacity:0.4;}</style><defs><g id="allt"><path id="t2581" d="M3696,608 L3685,609 C3674,610 3688,602 3677,601 C3667,600 3685,608 3674,608 L3663,608 3663,608 L3663,616 C3663,625 3668,616 3668,624 C3668,633 3663,621 3663,630 L3663,640 3663,640 L3672,640 C3681,640 3672,645 3680,645 C3689,645 3676,640 3686,640 L3696,640 3696,640 L3696,631 C3696,622 3691,631 3691,623 C3691,616 3697,629 3696,618 L3696,608"/></g><clipPath id="c" clipRule="evenodd" fill="transparent"><use href="#t2581"/></clipPath></defs><svg viewBox="3662 599 36 47" preserveAspectRatio="xMinYMin meet"><svg width="4380" height="2430"><g><image crossorigin="anonymous" x="0" y="0" href="https://nftpuzzle.license-token.com/assets/completepuzzle.svg" width="100%" height="100%" /><g class="links"><use href="#t2581"/></g></g></svg><svg x="3683" y="631" height="9%" width="9%" viewBox="0 0 330 330"><g><a xlink:href="https://nftpuzzle.license-token.com/" class="links"><title>See the most innovative NFT based token software licensing project</title><path fill="#E4CF37" id="more" d="M165,0C74.019,0,0,74.019,0,165s74.019,165,165,165s165-74.019,165-165S255.981,0,165,0z M85,190 c-13.785,0-25-11.215-25-25s11.215-25,25-25s25,11.215,25,25S98.785,190,85,190z M165,190c-13.785,0-25-11.215-25-25 s11.215-25,25-25s25,11.215,25,25S178.785,190,165,190z M245,190c-13.785,0-25-11.215-25-25s11.215-25,25-25 c13.785,0,25,11.215,25,25S258.785,190,245,190z"></path></a></g></svg></svg></svg>