<svg version="1.1" xmlns="http://www.w3.org/2000/svg" xmlns:xlink="http://www.w3.org/1999/xlink" fill="transparent" x="0" y="0" width="350" height="350" preserveAspectRatio="xMinYMin slice"><style type="text/css">.links{fill:transparent;stroke: #E4CF37;}.links:hover{fill:#63D272; opacity:0.4;}</style><defs><g id="allt"><path id="t2583" d="M3762,608 L3751,608 C3741,609 3753,601 3744,601 C3735,601 3748,608 3738,608 L3729,608 3729,608 L3727,616 C3726,625 3737,617 3735,624 C3733,632 3726,620 3727,630 L3729,640 3729,640 L3738,638 C3747,637 3738,648 3745,646 C3753,644 3741,637 3751,638 L3762,640 3762,640 L3761,630 C3761,620 3768,631 3767,624 C3766,617 3762,625 3762,616 L3762,608"/></g><clipPath id="c" clipRule="evenodd" fill="transparent"><use href="#t2583"/></clipPath></defs><svg viewBox="3725 600 44 49" preserveAspectRatio="xMinYMin meet"><svg width="4380" height="2430"><g><image crossorigin="anonymous" x="0" y="0" href="https://nftpuzzle.license-token.com/assets/completepuzzle.svg" width="100%" height="100%" /><g class="links"><use href="#t2583"/></g></g></svg><svg x="3754" y="634" height="9%" width="9%" viewBox="0 0 330 330"><g><a xlink:href="https://nftpuzzle.license-token.com/" class="links"><title>See the most innovative NFT based token software licensing project</title><path fill="#E4CF37" id="more" d="M165,0C74.019,0,0,74.019,0,165s74.019,165,165,165s165-74.019,165-165S255.981,0,165,0z M85,190 c-13.785,0-25-11.215-25-25s11.215-25,25-25s25,11.215,25,25S98.785,190,85,190z M165,190c-13.785,0-25-11.215-25-25 s11.215-25,25-25s25,11.215,25,25S178.785,190,165,190z M245,190c-13.785,0-25-11.215-25-25s11.215-25,25-25 c13.785,0,25,11.215,25,25S258.785,190,245,190z"></path></a></g></svg></svg></svg>