<svg version="1.1" xmlns="http://www.w3.org/2000/svg" xmlns:xlink="http://www.w3.org/1999/xlink" fill="transparent" x="0" y="0" width="350" height="350" preserveAspectRatio="xMinYMin slice"><style type="text/css">.links{fill:transparent;stroke: #E4CF37;}.links:hover{fill:#63D272; opacity:0.4;}</style><defs><g id="allt"><path id="t2586" d="M3861,608 L3850,608 C3839,608 3853,605 3845,604 C3837,604 3846,610 3837,609 L3828,608 3828,608 L3827,618 C3826,628 3835,616 3836,625 C3837,635 3827,622 3827,631 L3828,640 3828,640 L3838,639 C3849,638 3836,647 3846,648 C3856,649 3842,639 3851,639 L3861,640 3861,640 L3861,630 C3861,621 3856,630 3855,622 C3855,614 3861,626 3861,617 L3861,608"/></g><clipPath id="c" clipRule="evenodd" fill="transparent"><use href="#t2586"/></clipPath></defs><svg viewBox="3825 603 37 47" preserveAspectRatio="xMinYMin meet"><svg width="4380" height="2430"><g><image crossorigin="anonymous" x="0" y="0" href="https://nftpuzzle.license-token.com/assets/completepuzzle.svg" width="100%" height="100%" /><g class="links"><use href="#t2586"/></g></g></svg><svg x="3847" y="635" height="9%" width="9%" viewBox="0 0 330 330"><g><a xlink:href="https://nftpuzzle.license-token.com/" class="links"><title>See the most innovative NFT based token software licensing project</title><path fill="#E4CF37" id="more" d="M165,0C74.019,0,0,74.019,0,165s74.019,165,165,165s165-74.019,165-165S255.981,0,165,0z M85,190 c-13.785,0-25-11.215-25-25s11.215-25,25-25s25,11.215,25,25S98.785,190,85,190z M165,190c-13.785,0-25-11.215-25-25 s11.215-25,25-25s25,11.215,25,25S178.785,190,165,190z M245,190c-13.785,0-25-11.215-25-25s11.215-25,25-25 c13.785,0,25,11.215,25,25S258.785,190,245,190z"></path></a></g></svg></svg></svg>