<svg version="1.1" xmlns="http://www.w3.org/2000/svg" xmlns:xlink="http://www.w3.org/1999/xlink" fill="transparent" x="0" y="0" width="350" height="350" preserveAspectRatio="xMinYMin slice"><style type="text/css">.links{fill:transparent;stroke: #E4CF37;}.links:hover{fill:#63D272; opacity:0.4;}</style><defs><g id="allt"><path id="t2588" d="M3927,608 L3917,608 C3907,609 3917,603 3908,602 C3899,601 3912,611 3903,609 L3894,608 3894,608 L3894,616 C3894,625 3884,612 3883,623 C3882,634 3898,622 3896,631 L3894,640 3894,640 L3903,640 C3912,640 3898,630 3909,629 C3921,628 3908,644 3917,642 L3927,640 3927,640 L3926,630 C3926,621 3930,631 3930,621 C3931,612 3926,626 3926,617 L3927,608"/></g><clipPath id="c" clipRule="evenodd" fill="transparent"><use href="#t2588"/></clipPath></defs><svg viewBox="3881 600 51 45" preserveAspectRatio="xMinYMin meet"><svg width="4380" height="2430"><g><image crossorigin="anonymous" x="0" y="0" href="https://nftpuzzle.license-token.com/assets/completepuzzle.svg" width="100%" height="100%" /><g class="links"><use href="#t2588"/></g></g></svg><svg x="3917" y="630" height="9%" width="9%" viewBox="0 0 330 330"><g><a xlink:href="https://nftpuzzle.license-token.com/" class="links"><title>See the most innovative NFT based token software licensing project</title><path fill="#E4CF37" id="more" d="M165,0C74.019,0,0,74.019,0,165s74.019,165,165,165s165-74.019,165-165S255.981,0,165,0z M85,190 c-13.785,0-25-11.215-25-25s11.215-25,25-25s25,11.215,25,25S98.785,190,85,190z M165,190c-13.785,0-25-11.215-25-25 s11.215-25,25-25s25,11.215,25,25S178.785,190,165,190z M245,190c-13.785,0-25-11.215-25-25s11.215-25,25-25 c13.785,0,25,11.215,25,25S258.785,190,245,190z"></path></a></g></svg></svg></svg>