<svg version="1.1" xmlns="http://www.w3.org/2000/svg" xmlns:xlink="http://www.w3.org/1999/xlink" fill="transparent" x="0" y="0" width="350" height="350" preserveAspectRatio="xMinYMin slice"><style type="text/css">.links{fill:transparent;stroke: #E4CF37;}.links:hover{fill:#63D272; opacity:0.4;}</style><defs><g id="allt"><path id="t2589" d="M3960,608 L3950,610 C3940,613 3954,598 3945,597 C3936,597 3949,610 3938,609 L3927,608 3927,608 L3926,617 C3926,626 3931,612 3930,621 C3930,631 3926,621 3926,630 L3927,640 3927,640 L3936,639 C3946,639 3931,644 3941,643 C3951,643 3941,639 3950,639 L3960,640 3960,640 L3960,630 C3961,621 3955,634 3955,624 C3956,615 3960,626 3960,617 L3960,608"/></g><clipPath id="c" clipRule="evenodd" fill="transparent"><use href="#t2589"/></clipPath></defs><svg viewBox="3925 596 37 49" preserveAspectRatio="xMinYMin meet"><svg width="4380" height="2430"><g><image crossorigin="anonymous" x="0" y="0" href="https://nftpuzzle.license-token.com/assets/completepuzzle.svg" width="100%" height="100%" /><g class="links"><use href="#t2589"/></g></g></svg><svg x="3947" y="630" height="9%" width="9%" viewBox="0 0 330 330"><g><a xlink:href="https://nftpuzzle.license-token.com/" class="links"><title>See the most innovative NFT based token software licensing project</title><path fill="#E4CF37" id="more" d="M165,0C74.019,0,0,74.019,0,165s74.019,165,165,165s165-74.019,165-165S255.981,0,165,0z M85,190 c-13.785,0-25-11.215-25-25s11.215-25,25-25s25,11.215,25,25S98.785,190,85,190z M165,190c-13.785,0-25-11.215-25-25 s11.215-25,25-25s25,11.215,25,25S178.785,190,165,190z M245,190c-13.785,0-25-11.215-25-25s11.215-25,25-25 c13.785,0,25,11.215,25,25S258.785,190,245,190z"></path></a></g></svg></svg></svg>