<svg version="1.1" xmlns="http://www.w3.org/2000/svg" xmlns:xlink="http://www.w3.org/1999/xlink" fill="transparent" x="0" y="0" width="350" height="350" preserveAspectRatio="xMinYMin slice"><style type="text/css">.links{fill:transparent;stroke: #E4CF37;}.links:hover{fill:#63D272; opacity:0.4;}</style><defs><g id="allt"><path id="t2591" d="M4026,608 L4015,608 C4005,608 4017,617 4007,616 C3998,616 4013,608 4003,608 L3993,608 3993,608 L3993,617 C3993,627 3987,616 3988,624 C3989,633 3995,622 3994,631 L3993,640 3993,640 L4002,640 C4012,640 4001,634 4010,635 C4019,636 4007,642 4016,641 L4026,640 4026,640 L4027,629 C4028,619 4023,632 4022,624 C4021,617 4027,625 4026,616 L4026,608"/></g><clipPath id="c" clipRule="evenodd" fill="transparent"><use href="#t2591"/></clipPath></defs><svg viewBox="3986 607 43 36" preserveAspectRatio="xMinYMin meet"><svg width="4380" height="2430"><g><image crossorigin="anonymous" x="0" y="0" href="https://nftpuzzle.license-token.com/assets/completepuzzle.svg" width="100%" height="100%" /><g class="links"><use href="#t2591"/></g></g></svg><svg x="4014" y="628" height="9%" width="9%" viewBox="0 0 330 330"><g><a xlink:href="https://nftpuzzle.license-token.com/" class="links"><title>See the most innovative NFT based token software licensing project</title><path fill="#E4CF37" id="more" d="M165,0C74.019,0,0,74.019,0,165s74.019,165,165,165s165-74.019,165-165S255.981,0,165,0z M85,190 c-13.785,0-25-11.215-25-25s11.215-25,25-25s25,11.215,25,25S98.785,190,85,190z M165,190c-13.785,0-25-11.215-25-25 s11.215-25,25-25s25,11.215,25,25S178.785,190,165,190z M245,190c-13.785,0-25-11.215-25-25s11.215-25,25-25 c13.785,0,25,11.215,25,25S258.785,190,245,190z"></path></a></g></svg></svg></svg>