<svg version="1.1" xmlns="http://www.w3.org/2000/svg" xmlns:xlink="http://www.w3.org/1999/xlink" fill="transparent" x="0" y="0" width="350" height="350" preserveAspectRatio="xMinYMin slice"><style type="text/css">.links{fill:transparent;stroke: #E4CF37;}.links:hover{fill:#63D272; opacity:0.4;}</style><defs><g id="allt"><path id="t2593" d="M4092,608 L4082,608 C4073,608 4082,612 4074,612 C4066,613 4079,608 4069,608 L4059,608 4059,608 L4059,616 C4059,625 4065,613 4064,624 C4064,635 4055,620 4057,630 L4059,640 4059,640 L4068,640 C4077,640 4064,646 4075,645 C4087,645 4071,636 4081,638 L4092,640 4092,640 L4092,630 C4092,621 4097,630 4096,623 C4096,617 4089,629 4090,618 L4092,608"/></g><clipPath id="c" clipRule="evenodd" fill="transparent"><use href="#t2593"/></clipPath></defs><svg viewBox="4054 607 44 40" preserveAspectRatio="xMinYMin meet"><svg width="4380" height="2430"><g><image crossorigin="anonymous" x="0" y="0" href="https://nftpuzzle.license-token.com/assets/completepuzzle.svg" width="100%" height="100%" /><g class="links"><use href="#t2593"/></g></g></svg><svg x="4083" y="632" height="9%" width="9%" viewBox="0 0 330 330"><g><a xlink:href="https://nftpuzzle.license-token.com/" class="links"><title>See the most innovative NFT based token software licensing project</title><path fill="#E4CF37" id="more" d="M165,0C74.019,0,0,74.019,0,165s74.019,165,165,165s165-74.019,165-165S255.981,0,165,0z M85,190 c-13.785,0-25-11.215-25-25s11.215-25,25-25s25,11.215,25,25S98.785,190,85,190z M165,190c-13.785,0-25-11.215-25-25 s11.215-25,25-25s25,11.215,25,25S178.785,190,165,190z M245,190c-13.785,0-25-11.215-25-25s11.215-25,25-25 c13.785,0,25,11.215,25,25S258.785,190,245,190z"></path></a></g></svg></svg></svg>