<svg version="1.1" xmlns="http://www.w3.org/2000/svg" xmlns:xlink="http://www.w3.org/1999/xlink" fill="transparent" x="0" y="0" width="350" height="350" preserveAspectRatio="xMinYMin slice"><style type="text/css">.links{fill:transparent;stroke: #E4CF37;}.links:hover{fill:#63D272; opacity:0.4;}</style><defs><g id="allt"><path id="t2594" d="M4125,608 L4114,608 C4103,609 4115,604 4106,603 C4097,603 4111,608 4101,608 L4092,608 4092,608 L4090,618 C4089,629 4096,617 4096,623 C4097,630 4092,621 4092,630 L4092,640 4092,640 L4102,638 C4113,637 4101,644 4108,644 C4115,645 4106,640 4115,640 L4125,640 4125,640 L4125,629 C4126,618 4122,631 4122,623 C4123,616 4125,626 4125,617 L4125,608"/></g><clipPath id="c" clipRule="evenodd" fill="transparent"><use href="#t2594"/></clipPath></defs><svg viewBox="4088 602 39 44" preserveAspectRatio="xMinYMin meet"><svg width="4380" height="2430"><g><image crossorigin="anonymous" x="0" y="0" href="https://nftpuzzle.license-token.com/assets/completepuzzle.svg" width="100%" height="100%" /><g class="links"><use href="#t2594"/></g></g></svg><svg x="4112" y="631" height="9%" width="9%" viewBox="0 0 330 330"><g><a xlink:href="https://nftpuzzle.license-token.com/" class="links"><title>See the most innovative NFT based token software licensing project</title><path fill="#E4CF37" id="more" d="M165,0C74.019,0,0,74.019,0,165s74.019,165,165,165s165-74.019,165-165S255.981,0,165,0z M85,190 c-13.785,0-25-11.215-25-25s11.215-25,25-25s25,11.215,25,25S98.785,190,85,190z M165,190c-13.785,0-25-11.215-25-25 s11.215-25,25-25s25,11.215,25,25S178.785,190,165,190z M245,190c-13.785,0-25-11.215-25-25s11.215-25,25-25 c13.785,0,25,11.215,25,25S258.785,190,245,190z"></path></a></g></svg></svg></svg>