<svg version="1.1" xmlns="http://www.w3.org/2000/svg" xmlns:xlink="http://www.w3.org/1999/xlink" fill="transparent" x="0" y="0" width="350" height="350" preserveAspectRatio="xMinYMin slice"><style type="text/css">.links{fill:transparent;stroke: #E4CF37;}.links:hover{fill:#63D272; opacity:0.4;}</style><defs><g id="allt"><path id="t2633" d="M1122,640 L1111,639 C1101,639 1113,650 1104,648 C1095,646 1110,641 1099,640 L1089,640 1089,640 L1090,649 C1091,658 1082,647 1081,655 C1081,663 1089,652 1089,662 L1089,672 1089,672 L1098,673 C1108,674 1096,665 1104,664 C1112,664 1101,672 1111,672 L1122,672 1122,672 L1122,662 C1122,652 1119,664 1118,655 C1117,646 1123,657 1122,648 L1122,640"/></g><clipPath id="c" clipRule="evenodd" fill="transparent"><use href="#t2633"/></clipPath></defs><svg viewBox="1080 638 44 37" preserveAspectRatio="xMinYMin meet"><svg width="4380" height="2430"><g><image crossorigin="anonymous" x="0" y="0" href="https://nftpuzzle.license-token.com/assets/completepuzzle.svg" width="100%" height="100%" /><g class="links"><use href="#t2633"/></g></g></svg><svg x="1109" y="660" height="9%" width="9%" viewBox="0 0 330 330"><g><a xlink:href="https://nftpuzzle.license-token.com/" class="links"><title>See the most innovative NFT based token software licensing project</title><path fill="#E4CF37" id="more" d="M165,0C74.019,0,0,74.019,0,165s74.019,165,165,165s165-74.019,165-165S255.981,0,165,0z M85,190 c-13.785,0-25-11.215-25-25s11.215-25,25-25s25,11.215,25,25S98.785,190,85,190z M165,190c-13.785,0-25-11.215-25-25 s11.215-25,25-25s25,11.215,25,25S178.785,190,165,190z M245,190c-13.785,0-25-11.215-25-25s11.215-25,25-25 c13.785,0,25,11.215,25,25S258.785,190,245,190z"></path></a></g></svg></svg></svg>