<svg version="1.1" xmlns="http://www.w3.org/2000/svg" xmlns:xlink="http://www.w3.org/1999/xlink" fill="transparent" x="0" y="0" width="350" height="350" preserveAspectRatio="xMinYMin slice"><style type="text/css">.links{fill:transparent;stroke: #E4CF37;}.links:hover{fill:#63D272; opacity:0.4;}</style><defs><g id="allt"><path id="t2635" d="M1188,640 L1177,638 C1167,637 1182,649 1171,647 C1160,646 1175,640 1165,640 L1155,640 1155,640 L1155,648 C1155,657 1148,647 1148,655 C1149,664 1155,651 1155,661 L1155,672 1155,672 L1164,672 C1173,672 1162,665 1170,665 C1179,666 1167,672 1177,672 L1188,672 1188,672 L1187,663 C1187,654 1192,665 1192,656 C1192,648 1188,659 1188,649 L1188,640"/></g><clipPath id="c" clipRule="evenodd" fill="transparent"><use href="#t2635"/></clipPath></defs><svg viewBox="1147 636 46 37" preserveAspectRatio="xMinYMin meet"><svg width="4380" height="2430"><g><image crossorigin="anonymous" x="0" y="0" href="https://nftpuzzle.license-token.com/assets/completepuzzle.svg" width="100%" height="100%" /><g class="links"><use href="#t2635"/></g></g></svg><svg x="1178" y="658" height="9%" width="9%" viewBox="0 0 330 330"><g><a xlink:href="https://nftpuzzle.license-token.com/" class="links"><title>See the most innovative NFT based token software licensing project</title><path fill="#E4CF37" id="more" d="M165,0C74.019,0,0,74.019,0,165s74.019,165,165,165s165-74.019,165-165S255.981,0,165,0z M85,190 c-13.785,0-25-11.215-25-25s11.215-25,25-25s25,11.215,25,25S98.785,190,85,190z M165,190c-13.785,0-25-11.215-25-25 s11.215-25,25-25s25,11.215,25,25S178.785,190,165,190z M245,190c-13.785,0-25-11.215-25-25s11.215-25,25-25 c13.785,0,25,11.215,25,25S258.785,190,245,190z"></path></a></g></svg></svg></svg>