<svg version="1.1" xmlns="http://www.w3.org/2000/svg" xmlns:xlink="http://www.w3.org/1999/xlink" fill="transparent" x="0" y="0" width="350" height="350" preserveAspectRatio="xMinYMin slice"><style type="text/css">.links{fill:transparent;stroke: #E4CF37;}.links:hover{fill:#63D272; opacity:0.4;}</style><defs><g id="allt"><path id="t2636" d="M1221,640 L1211,640 C1202,640 1213,644 1205,643 C1197,642 1206,640 1197,640 L1188,640 1188,640 L1188,649 C1188,659 1192,648 1192,656 C1192,665 1187,654 1187,663 L1188,672 1188,672 L1198,672 C1208,672 1196,676 1205,676 C1214,676 1202,671 1211,671 L1221,672 1221,672 L1222,662 C1223,652 1216,664 1217,656 C1218,648 1222,658 1221,649 L1221,640"/></g><clipPath id="c" clipRule="evenodd" fill="transparent"><use href="#t2636"/></clipPath></defs><svg viewBox="1186 639 38 38" preserveAspectRatio="xMinYMin meet"><svg width="4380" height="2430"><g><image crossorigin="anonymous" x="0" y="0" href="https://nftpuzzle.license-token.com/assets/completepuzzle.svg" width="100%" height="100%" /><g class="links"><use href="#t2636"/></g></g></svg><svg x="1209" y="662" height="9%" width="9%" viewBox="0 0 330 330"><g><a xlink:href="https://nftpuzzle.license-token.com/" class="links"><title>See the most innovative NFT based token software licensing project</title><path fill="#E4CF37" id="more" d="M165,0C74.019,0,0,74.019,0,165s74.019,165,165,165s165-74.019,165-165S255.981,0,165,0z M85,190 c-13.785,0-25-11.215-25-25s11.215-25,25-25s25,11.215,25,25S98.785,190,85,190z M165,190c-13.785,0-25-11.215-25-25 s11.215-25,25-25s25,11.215,25,25S178.785,190,165,190z M245,190c-13.785,0-25-11.215-25-25s11.215-25,25-25 c13.785,0,25,11.215,25,25S258.785,190,245,190z"></path></a></g></svg></svg></svg>