<svg version="1.1" xmlns="http://www.w3.org/2000/svg" xmlns:xlink="http://www.w3.org/1999/xlink" fill="transparent" x="0" y="0" width="350" height="350" preserveAspectRatio="xMinYMin slice"><style type="text/css">.links{fill:transparent;stroke: #E4CF37;}.links:hover{fill:#63D272; opacity:0.4;}</style><defs><g id="allt"><path id="t2644" d="M1485,640 L1474,640 C1463,640 1479,636 1470,636 C1461,636 1472,640 1462,640 L1452,640 1452,640 L1454,650 C1457,660 1439,648 1439,656 C1440,664 1455,652 1453,662 L1452,672 1452,672 L1462,674 C1473,677 1461,659 1469,659 C1477,660 1464,675 1474,673 L1485,672 1485,672 L1486,661 C1487,651 1478,662 1478,655 C1478,649 1486,657 1485,648 L1485,640"/></g><clipPath id="c" clipRule="evenodd" fill="transparent"><use href="#t2644"/></clipPath></defs><svg viewBox="1438 635 50 43" preserveAspectRatio="xMinYMin meet"><svg width="4380" height="2430"><g><image crossorigin="anonymous" x="0" y="0" href="https://nftpuzzle.license-token.com/assets/completepuzzle.svg" width="100%" height="100%" /><g class="links"><use href="#t2644"/></g></g></svg><svg x="1473" y="663" height="9%" width="9%" viewBox="0 0 330 330"><g><a xlink:href="https://nftpuzzle.license-token.com/" class="links"><title>See the most innovative NFT based token software licensing project</title><path fill="#E4CF37" id="more" d="M165,0C74.019,0,0,74.019,0,165s74.019,165,165,165s165-74.019,165-165S255.981,0,165,0z M85,190 c-13.785,0-25-11.215-25-25s11.215-25,25-25s25,11.215,25,25S98.785,190,85,190z M165,190c-13.785,0-25-11.215-25-25 s11.215-25,25-25s25,11.215,25,25S178.785,190,165,190z M245,190c-13.785,0-25-11.215-25-25s11.215-25,25-25 c13.785,0,25,11.215,25,25S258.785,190,245,190z"></path></a></g></svg></svg></svg>