<svg version="1.1" xmlns="http://www.w3.org/2000/svg" xmlns:xlink="http://www.w3.org/1999/xlink" fill="transparent" x="0" y="0" width="350" height="350" preserveAspectRatio="xMinYMin slice"><style type="text/css">.links{fill:transparent;stroke: #E4CF37;}.links:hover{fill:#63D272; opacity:0.4;}</style><defs><g id="allt"><path id="t2650" d="M1683,640 L1672,641 C1662,642 1677,631 1668,631 C1659,632 1669,640 1659,640 L1650,640 1650,640 L1648,649 C1647,659 1660,648 1658,655 C1657,662 1647,653 1648,662 L1650,672 1650,672 L1660,670 C1670,669 1658,682 1665,680 C1673,679 1664,669 1673,670 L1683,672 1683,672 L1682,661 C1682,651 1688,665 1688,656 C1688,647 1683,658 1683,649 L1683,640"/></g><clipPath id="c" clipRule="evenodd" fill="transparent"><use href="#t2650"/></clipPath></defs><svg viewBox="1646 630 43 53" preserveAspectRatio="xMinYMin meet"><svg width="4380" height="2430"><g><image crossorigin="anonymous" x="0" y="0" href="https://nftpuzzle.license-token.com/assets/completepuzzle.svg" width="100%" height="100%" /><g class="links"><use href="#t2650"/></g></g></svg><svg x="1674" y="668" height="9%" width="9%" viewBox="0 0 330 330"><g><a xlink:href="https://nftpuzzle.license-token.com/" class="links"><title>See the most innovative NFT based token software licensing project</title><path fill="#E4CF37" id="more" d="M165,0C74.019,0,0,74.019,0,165s74.019,165,165,165s165-74.019,165-165S255.981,0,165,0z M85,190 c-13.785,0-25-11.215-25-25s11.215-25,25-25s25,11.215,25,25S98.785,190,85,190z M165,190c-13.785,0-25-11.215-25-25 s11.215-25,25-25s25,11.215,25,25S178.785,190,165,190z M245,190c-13.785,0-25-11.215-25-25s11.215-25,25-25 c13.785,0,25,11.215,25,25S258.785,190,245,190z"></path></a></g></svg></svg></svg>