<svg version="1.1" xmlns="http://www.w3.org/2000/svg" xmlns:xlink="http://www.w3.org/1999/xlink" fill="transparent" x="0" y="0" width="350" height="350" preserveAspectRatio="xMinYMin slice"><style type="text/css">.links{fill:transparent;stroke: #E4CF37;}.links:hover{fill:#63D272; opacity:0.4;}</style><defs><g id="allt"><path id="t2653" d="M1782,640 L1772,640 C1763,640 1772,643 1765,644 C1758,646 1771,640 1760,640 L1749,640 1749,640 L1749,649 C1750,658 1746,646 1745,656 C1745,666 1750,651 1749,661 L1749,672 1749,672 L1758,672 C1768,673 1755,669 1765,668 C1776,668 1760,673 1771,672 L1782,672 1782,672 L1782,661 C1782,651 1779,662 1778,653 C1778,645 1784,661 1783,650 L1782,640"/></g><clipPath id="c" clipRule="evenodd" fill="transparent"><use href="#t2653"/></clipPath></defs><svg viewBox="1744 639 41 35" preserveAspectRatio="xMinYMin meet"><svg width="4380" height="2430"><g><image crossorigin="anonymous" x="0" y="0" href="https://nftpuzzle.license-token.com/assets/completepuzzle.svg" width="100%" height="100%" /><g class="links"><use href="#t2653"/></g></g></svg><svg x="1770" y="659" height="9%" width="9%" viewBox="0 0 330 330"><g><a xlink:href="https://nftpuzzle.license-token.com/" class="links"><title>See the most innovative NFT based token software licensing project</title><path fill="#E4CF37" id="more" d="M165,0C74.019,0,0,74.019,0,165s74.019,165,165,165s165-74.019,165-165S255.981,0,165,0z M85,190 c-13.785,0-25-11.215-25-25s11.215-25,25-25s25,11.215,25,25S98.785,190,85,190z M165,190c-13.785,0-25-11.215-25-25 s11.215-25,25-25s25,11.215,25,25S178.785,190,165,190z M245,190c-13.785,0-25-11.215-25-25s11.215-25,25-25 c13.785,0,25,11.215,25,25S258.785,190,245,190z"></path></a></g></svg></svg></svg>