<svg version="1.1" xmlns="http://www.w3.org/2000/svg" xmlns:xlink="http://www.w3.org/1999/xlink" fill="transparent" x="0" y="0" width="350" height="350" preserveAspectRatio="xMinYMin slice"><style type="text/css">.links{fill:transparent;stroke: #E4CF37;}.links:hover{fill:#63D272; opacity:0.4;}</style><defs><g id="allt"><path id="t2658" d="M1947,640 L1936,642 C1926,644 1937,633 1928,634 C1919,635 1933,642 1923,641 L1914,640 1914,640 L1915,649 C1917,658 1907,649 1908,656 C1910,663 1916,653 1915,662 L1914,672 1914,672 L1923,673 C1933,675 1923,665 1930,666 C1938,668 1928,674 1937,673 L1947,672 1947,672 L1948,661 C1950,651 1941,662 1940,653 C1939,645 1949,658 1948,649 L1947,640"/></g><clipPath id="c" clipRule="evenodd" fill="transparent"><use href="#t2658"/></clipPath></defs><svg viewBox="1906 632 45 44" preserveAspectRatio="xMinYMin meet"><svg width="4380" height="2430"><g><image crossorigin="anonymous" x="0" y="0" href="https://nftpuzzle.license-token.com/assets/completepuzzle.svg" width="100%" height="100%" /><g class="links"><use href="#t2658"/></g></g></svg><svg x="1936" y="661" height="9%" width="9%" viewBox="0 0 330 330"><g><a xlink:href="https://nftpuzzle.license-token.com/" class="links"><title>See the most innovative NFT based token software licensing project</title><path fill="#E4CF37" id="more" d="M165,0C74.019,0,0,74.019,0,165s74.019,165,165,165s165-74.019,165-165S255.981,0,165,0z M85,190 c-13.785,0-25-11.215-25-25s11.215-25,25-25s25,11.215,25,25S98.785,190,85,190z M165,190c-13.785,0-25-11.215-25-25 s11.215-25,25-25s25,11.215,25,25S178.785,190,165,190z M245,190c-13.785,0-25-11.215-25-25s11.215-25,25-25 c13.785,0,25,11.215,25,25S258.785,190,245,190z"></path></a></g></svg></svg></svg>