<svg version="1.1" xmlns="http://www.w3.org/2000/svg" xmlns:xlink="http://www.w3.org/1999/xlink" fill="transparent" x="0" y="0" width="350" height="350" preserveAspectRatio="xMinYMin slice"><style type="text/css">.links{fill:transparent;stroke: #E4CF37;}.links:hover{fill:#63D272; opacity:0.4;}</style><defs><g id="allt"><path id="t2661" d="M2046,640 L2036,639 C2026,638 2038,645 2028,644 C2018,643 2031,640 2022,640 L2013,640 2013,640 L2013,650 C2013,660 2010,649 2009,657 C2008,665 2014,654 2013,663 L2013,672 2013,672 L2023,672 C2034,672 2022,669 2030,668 C2039,667 2027,673 2036,672 L2046,672 2046,672 L2046,662 C2047,652 2043,663 2043,654 C2043,645 2047,658 2046,649 L2046,640"/></g><clipPath id="c" clipRule="evenodd" fill="transparent"><use href="#t2661"/></clipPath></defs><svg viewBox="2007 637 41 37" preserveAspectRatio="xMinYMin meet"><svg width="4380" height="2430"><g><image crossorigin="anonymous" x="0" y="0" href="https://nftpuzzle.license-token.com/assets/completepuzzle.svg" width="100%" height="100%" /><g class="links"><use href="#t2661"/></g></g></svg><svg x="2033" y="659" height="9%" width="9%" viewBox="0 0 330 330"><g><a xlink:href="https://nftpuzzle.license-token.com/" class="links"><title>See the most innovative NFT based token software licensing project</title><path fill="#E4CF37" id="more" d="M165,0C74.019,0,0,74.019,0,165s74.019,165,165,165s165-74.019,165-165S255.981,0,165,0z M85,190 c-13.785,0-25-11.215-25-25s11.215-25,25-25s25,11.215,25,25S98.785,190,85,190z M165,190c-13.785,0-25-11.215-25-25 s11.215-25,25-25s25,11.215,25,25S178.785,190,165,190z M245,190c-13.785,0-25-11.215-25-25s11.215-25,25-25 c13.785,0,25,11.215,25,25S258.785,190,245,190z"></path></a></g></svg></svg></svg>