<svg version="1.1" xmlns="http://www.w3.org/2000/svg" xmlns:xlink="http://www.w3.org/1999/xlink" fill="transparent" x="0" y="0" width="350" height="350" preserveAspectRatio="xMinYMin slice"><style type="text/css">.links{fill:transparent;stroke: #E4CF37;}.links:hover{fill:#63D272; opacity:0.4;}</style><defs><g id="allt"><path id="t2662" d="M2079,640 L2069,641 C2060,643 2072,636 2063,634 C2055,632 2066,642 2056,641 L2046,640 2046,640 L2046,649 C2047,658 2043,645 2043,654 C2043,663 2047,652 2046,662 L2046,672 2046,672 L2055,672 C2065,673 2051,669 2060,669 C2070,669 2059,673 2069,672 L2079,672 2079,672 L2079,662 C2079,652 2082,665 2082,656 C2082,647 2079,660 2079,650 L2079,640"/></g><clipPath id="c" clipRule="evenodd" fill="transparent"><use href="#t2662"/></clipPath></defs><svg viewBox="2042 631 41 43" preserveAspectRatio="xMinYMin meet"><svg width="4380" height="2430"><g><image crossorigin="anonymous" x="0" y="0" href="https://nftpuzzle.license-token.com/assets/completepuzzle.svg" width="100%" height="100%" /><g class="links"><use href="#t2662"/></g></g></svg><svg x="2068" y="659" height="9%" width="9%" viewBox="0 0 330 330"><g><a xlink:href="https://nftpuzzle.license-token.com/" class="links"><title>See the most innovative NFT based token software licensing project</title><path fill="#E4CF37" id="more" d="M165,0C74.019,0,0,74.019,0,165s74.019,165,165,165s165-74.019,165-165S255.981,0,165,0z M85,190 c-13.785,0-25-11.215-25-25s11.215-25,25-25s25,11.215,25,25S98.785,190,85,190z M165,190c-13.785,0-25-11.215-25-25 s11.215-25,25-25s25,11.215,25,25S178.785,190,165,190z M245,190c-13.785,0-25-11.215-25-25s11.215-25,25-25 c13.785,0,25,11.215,25,25S258.785,190,245,190z"></path></a></g></svg></svg></svg>