<svg version="1.1" xmlns="http://www.w3.org/2000/svg" xmlns:xlink="http://www.w3.org/1999/xlink" fill="transparent" x="0" y="0" width="350" height="350" preserveAspectRatio="xMinYMin slice"><style type="text/css">.links{fill:transparent;stroke: #E4CF37;}.links:hover{fill:#63D272; opacity:0.4;}</style><defs><g id="allt"><path id="t2664" d="M2145,640 L2135,640 C2125,641 2135,630 2126,632 C2117,634 2134,640 2123,640 L2112,640 2112,640 L2111,648 C2110,657 2116,646 2117,655 C2118,664 2110,650 2111,661 L2112,672 2112,672 L2121,671 C2130,670 2118,676 2127,677 C2137,678 2122,670 2133,671 L2145,672 2145,672 L2147,662 C2149,653 2133,664 2133,656 C2134,648 2145,661 2145,650 L2145,640"/></g><clipPath id="c" clipRule="evenodd" fill="transparent"><use href="#t2664"/></clipPath></defs><svg viewBox="2109 629 41 50" preserveAspectRatio="xMinYMin meet"><svg width="4380" height="2430"><g><image crossorigin="anonymous" x="0" y="0" href="https://nftpuzzle.license-token.com/assets/completepuzzle.svg" width="100%" height="100%" /><g class="links"><use href="#t2664"/></g></g></svg><svg x="2135" y="664" height="9%" width="9%" viewBox="0 0 330 330"><g><a xlink:href="https://nftpuzzle.license-token.com/" class="links"><title>See the most innovative NFT based token software licensing project</title><path fill="#E4CF37" id="more" d="M165,0C74.019,0,0,74.019,0,165s74.019,165,165,165s165-74.019,165-165S255.981,0,165,0z M85,190 c-13.785,0-25-11.215-25-25s11.215-25,25-25s25,11.215,25,25S98.785,190,85,190z M165,190c-13.785,0-25-11.215-25-25 s11.215-25,25-25s25,11.215,25,25S178.785,190,165,190z M245,190c-13.785,0-25-11.215-25-25s11.215-25,25-25 c13.785,0,25,11.215,25,25S258.785,190,245,190z"></path></a></g></svg></svg></svg>