<svg version="1.1" xmlns="http://www.w3.org/2000/svg" xmlns:xlink="http://www.w3.org/1999/xlink" fill="transparent" x="0" y="0" width="350" height="350" preserveAspectRatio="xMinYMin slice"><style type="text/css">.links{fill:transparent;stroke: #E4CF37;}.links:hover{fill:#63D272; opacity:0.4;}</style><defs><g id="allt"><path id="t2679" d="M2640,640 L2629,641 C2618,642 2631,637 2621,637 C2612,637 2625,640 2616,640 L2607,640 2607,640 L2608,649 C2610,659 2602,648 2601,657 C2601,666 2610,652 2608,662 L2607,672 2607,672 L2616,673 C2626,675 2616,667 2625,666 C2634,666 2619,675 2629,673 L2640,672 2640,672 L2640,661 C2640,651 2650,665 2650,656 C2650,647 2635,657 2637,648 L2640,640"/></g><clipPath id="c" clipRule="evenodd" fill="transparent"><use href="#t2679"/></clipPath></defs><svg viewBox="2600 636 51 40" preserveAspectRatio="xMinYMin meet"><svg width="4380" height="2430"><g><image crossorigin="anonymous" x="0" y="0" href="https://nftpuzzle.license-token.com/assets/completepuzzle.svg" width="100%" height="100%" /><g class="links"><use href="#t2679"/></g></g></svg><svg x="2636" y="661" height="9%" width="9%" viewBox="0 0 330 330"><g><a xlink:href="https://nftpuzzle.license-token.com/" class="links"><title>See the most innovative NFT based token software licensing project</title><path fill="#E4CF37" id="more" d="M165,0C74.019,0,0,74.019,0,165s74.019,165,165,165s165-74.019,165-165S255.981,0,165,0z M85,190 c-13.785,0-25-11.215-25-25s11.215-25,25-25s25,11.215,25,25S98.785,190,85,190z M165,190c-13.785,0-25-11.215-25-25 s11.215-25,25-25s25,11.215,25,25S178.785,190,165,190z M245,190c-13.785,0-25-11.215-25-25s11.215-25,25-25 c13.785,0,25,11.215,25,25S258.785,190,245,190z"></path></a></g></svg></svg></svg>