<svg version="1.1" xmlns="http://www.w3.org/2000/svg" xmlns:xlink="http://www.w3.org/1999/xlink" fill="transparent" x="0" y="0" width="350" height="350" preserveAspectRatio="xMinYMin slice"><style type="text/css">.links{fill:transparent;stroke: #E4CF37;}.links:hover{fill:#63D272; opacity:0.4;}</style><defs><g id="allt"><path id="t2686" d="M2871,640 L2860,641 C2849,643 2862,634 2854,633 C2847,632 2859,640 2848,640 L2838,640 2838,640 L2838,650 C2838,661 2831,646 2832,655 C2834,664 2842,653 2840,662 L2838,672 2838,672 L2848,672 C2859,672 2844,665 2853,666 C2863,668 2851,676 2861,674 L2871,672 2871,672 L2871,662 C2872,653 2866,664 2866,656 C2866,648 2871,661 2871,650 L2871,640"/></g><clipPath id="c" clipRule="evenodd" fill="transparent"><use href="#t2686"/></clipPath></defs><svg viewBox="2830 631 43 46" preserveAspectRatio="xMinYMin meet"><svg width="4380" height="2430"><g><image crossorigin="anonymous" x="0" y="0" href="https://nftpuzzle.license-token.com/assets/completepuzzle.svg" width="100%" height="100%" /><g class="links"><use href="#t2686"/></g></g></svg><svg x="2858" y="662" height="9%" width="9%" viewBox="0 0 330 330"><g><a xlink:href="https://nftpuzzle.license-token.com/" class="links"><title>See the most innovative NFT based token software licensing project</title><path fill="#E4CF37" id="more" d="M165,0C74.019,0,0,74.019,0,165s74.019,165,165,165s165-74.019,165-165S255.981,0,165,0z M85,190 c-13.785,0-25-11.215-25-25s11.215-25,25-25s25,11.215,25,25S98.785,190,85,190z M165,190c-13.785,0-25-11.215-25-25 s11.215-25,25-25s25,11.215,25,25S178.785,190,165,190z M245,190c-13.785,0-25-11.215-25-25s11.215-25,25-25 c13.785,0,25,11.215,25,25S258.785,190,245,190z"></path></a></g></svg></svg></svg>