<svg version="1.1" xmlns="http://www.w3.org/2000/svg" xmlns:xlink="http://www.w3.org/1999/xlink" fill="transparent" x="0" y="0" width="350" height="350" preserveAspectRatio="xMinYMin slice"><style type="text/css">.links{fill:transparent;stroke: #E4CF37;}.links:hover{fill:#63D272; opacity:0.4;}</style><defs><g id="allt"><path id="t2700" d="M3333,640 L3322,638 C3311,636 3326,650 3316,650 C3307,650 3319,634 3309,637 L3300,640 3300,640 L3299,648 C3298,657 3308,646 3307,655 C3306,664 3298,652 3299,662 L3300,672 3300,672 L3309,671 C3318,670 3306,680 3315,679 C3324,678 3312,670 3322,671 L3333,672 3333,672 L3333,661 C3333,651 3328,662 3327,654 C3327,647 3333,661 3333,650 L3333,640"/></g><clipPath id="c" clipRule="evenodd" fill="transparent"><use href="#t2700"/></clipPath></defs><svg viewBox="3297 633 37 48" preserveAspectRatio="xMinYMin meet"><svg width="4380" height="2430"><g><image crossorigin="anonymous" x="0" y="0" href="https://nftpuzzle.license-token.com/assets/completepuzzle.svg" width="100%" height="100%" /><g class="links"><use href="#t2700"/></g></g></svg><svg x="3319" y="666" height="9%" width="9%" viewBox="0 0 330 330"><g><a xlink:href="https://nftpuzzle.license-token.com/" class="links"><title>See the most innovative NFT based token software licensing project</title><path fill="#E4CF37" id="more" d="M165,0C74.019,0,0,74.019,0,165s74.019,165,165,165s165-74.019,165-165S255.981,0,165,0z M85,190 c-13.785,0-25-11.215-25-25s11.215-25,25-25s25,11.215,25,25S98.785,190,85,190z M165,190c-13.785,0-25-11.215-25-25 s11.215-25,25-25s25,11.215,25,25S178.785,190,165,190z M245,190c-13.785,0-25-11.215-25-25s11.215-25,25-25 c13.785,0,25,11.215,25,25S258.785,190,245,190z"></path></a></g></svg></svg></svg>