<svg version="1.1" xmlns="http://www.w3.org/2000/svg" xmlns:xlink="http://www.w3.org/1999/xlink" fill="transparent" x="0" y="0" width="350" height="350" preserveAspectRatio="xMinYMin slice"><style type="text/css">.links{fill:transparent;stroke: #E4CF37;}.links:hover{fill:#63D272; opacity:0.4;}</style><defs><g id="allt"><path id="t2711" d="M3696,640 L3686,640 C3676,640 3689,645 3680,645 C3672,645 3681,640 3672,640 L3663,640 3663,640 L3663,649 C3663,659 3668,649 3669,656 C3671,664 3659,652 3661,662 L3663,672 3663,672 L3673,672 C3683,672 3672,677 3680,678 C3688,680 3675,668 3685,670 L3696,672 3696,672 L3694,662 C3693,653 3707,667 3705,658 C3703,649 3695,661 3695,650 L3696,640"/></g><clipPath id="c" clipRule="evenodd" fill="transparent"><use href="#t2711"/></clipPath></defs><svg viewBox="3658 639 50 42" preserveAspectRatio="xMinYMin meet"><svg width="4380" height="2430"><g><image crossorigin="anonymous" x="0" y="0" href="https://nftpuzzle.license-token.com/assets/completepuzzle.svg" width="100%" height="100%" /><g class="links"><use href="#t2711"/></g></g></svg><svg x="3693" y="666" height="9%" width="9%" viewBox="0 0 330 330"><g><a xlink:href="https://nftpuzzle.license-token.com/" class="links"><title>See the most innovative NFT based token software licensing project</title><path fill="#E4CF37" id="more" d="M165,0C74.019,0,0,74.019,0,165s74.019,165,165,165s165-74.019,165-165S255.981,0,165,0z M85,190 c-13.785,0-25-11.215-25-25s11.215-25,25-25s25,11.215,25,25S98.785,190,85,190z M165,190c-13.785,0-25-11.215-25-25 s11.215-25,25-25s25,11.215,25,25S178.785,190,165,190z M245,190c-13.785,0-25-11.215-25-25s11.215-25,25-25 c13.785,0,25,11.215,25,25S258.785,190,245,190z"></path></a></g></svg></svg></svg>