<svg version="1.1" xmlns="http://www.w3.org/2000/svg" xmlns:xlink="http://www.w3.org/1999/xlink" fill="transparent" x="0" y="0" width="350" height="350" preserveAspectRatio="xMinYMin slice"><style type="text/css">.links{fill:transparent;stroke: #E4CF37;}.links:hover{fill:#63D272; opacity:0.4;}</style><defs><g id="allt"><path id="t2712" d="M3729,640 L3719,640 C3710,640 3720,635 3712,635 C3704,635 3718,641 3707,640 L3696,640 3696,640 L3695,650 C3695,661 3703,649 3705,658 C3707,667 3693,653 3694,662 L3696,672 3696,672 L3707,671 C3718,671 3705,679 3714,680 C3724,682 3709,669 3719,670 L3729,672 3729,672 L3727,661 C3725,651 3740,663 3740,653 C3741,644 3727,661 3728,650 L3729,640"/></g><clipPath id="c" clipRule="evenodd" fill="transparent"><use href="#t2712"/></clipPath></defs><svg viewBox="3692 634 50 49" preserveAspectRatio="xMinYMin meet"><svg width="4380" height="2430"><g><image crossorigin="anonymous" x="0" y="0" href="https://nftpuzzle.license-token.com/assets/completepuzzle.svg" width="100%" height="100%" /><g class="links"><use href="#t2712"/></g></g></svg><svg x="3727" y="668" height="9%" width="9%" viewBox="0 0 330 330"><g><a xlink:href="https://nftpuzzle.license-token.com/" class="links"><title>See the most innovative NFT based token software licensing project</title><path fill="#E4CF37" id="more" d="M165,0C74.019,0,0,74.019,0,165s74.019,165,165,165s165-74.019,165-165S255.981,0,165,0z M85,190 c-13.785,0-25-11.215-25-25s11.215-25,25-25s25,11.215,25,25S98.785,190,85,190z M165,190c-13.785,0-25-11.215-25-25 s11.215-25,25-25s25,11.215,25,25S178.785,190,165,190z M245,190c-13.785,0-25-11.215-25-25s11.215-25,25-25 c13.785,0,25,11.215,25,25S258.785,190,245,190z"></path></a></g></svg></svg></svg>