<svg version="1.1" xmlns="http://www.w3.org/2000/svg" xmlns:xlink="http://www.w3.org/1999/xlink" fill="transparent" x="0" y="0" width="350" height="350" preserveAspectRatio="xMinYMin slice"><style type="text/css">.links{fill:transparent;stroke: #E4CF37;}.links:hover{fill:#63D272; opacity:0.4;}</style><defs><g id="allt"><path id="t2714" d="M3795,640 L3784,639 C3774,639 3786,646 3778,645 C3771,644 3780,640 3771,640 L3762,640 3762,640 L3759,650 C3756,661 3772,647 3770,656 C3769,665 3762,653 3762,662 L3762,672 3762,672 L3772,669 C3783,666 3769,682 3778,680 C3788,679 3775,672 3785,672 L3795,672 3795,672 L3795,661 C3796,651 3790,662 3790,655 C3791,648 3796,660 3795,650 L3795,640"/></g><clipPath id="c" clipRule="evenodd" fill="transparent"><use href="#t2714"/></clipPath></defs><svg viewBox="3755 638 42 45" preserveAspectRatio="xMinYMin meet"><svg width="4380" height="2430"><g><image crossorigin="anonymous" x="0" y="0" href="https://nftpuzzle.license-token.com/assets/completepuzzle.svg" width="100%" height="100%" /><g class="links"><use href="#t2714"/></g></g></svg><svg x="3782" y="668" height="9%" width="9%" viewBox="0 0 330 330"><g><a xlink:href="https://nftpuzzle.license-token.com/" class="links"><title>See the most innovative NFT based token software licensing project</title><path fill="#E4CF37" id="more" d="M165,0C74.019,0,0,74.019,0,165s74.019,165,165,165s165-74.019,165-165S255.981,0,165,0z M85,190 c-13.785,0-25-11.215-25-25s11.215-25,25-25s25,11.215,25,25S98.785,190,85,190z M165,190c-13.785,0-25-11.215-25-25 s11.215-25,25-25s25,11.215,25,25S178.785,190,165,190z M245,190c-13.785,0-25-11.215-25-25s11.215-25,25-25 c13.785,0,25,11.215,25,25S258.785,190,245,190z"></path></a></g></svg></svg></svg>