<svg version="1.1" xmlns="http://www.w3.org/2000/svg" xmlns:xlink="http://www.w3.org/1999/xlink" fill="transparent" x="0" y="0" width="350" height="350" preserveAspectRatio="xMinYMin slice"><style type="text/css">.links{fill:transparent;stroke: #E4CF37;}.links:hover{fill:#63D272; opacity:0.4;}</style><defs><g id="allt"><path id="t2722" d="M4059,640 L4048,641 C4038,642 4051,637 4043,636 C4035,635 4044,641 4035,640 L4026,640 4026,640 L4026,650 C4027,660 4018,645 4018,655 C4019,666 4030,653 4028,662 L4026,672 4026,672 L4036,672 C4047,673 4031,664 4042,664 C4053,665 4039,676 4049,674 L4059,672 4059,672 L4059,662 C4059,652 4048,663 4051,654 C4054,646 4059,660 4059,650 L4059,640"/></g><clipPath id="c" clipRule="evenodd" fill="transparent"><use href="#t2722"/></clipPath></defs><svg viewBox="4017 634 43 43" preserveAspectRatio="xMinYMin meet"><svg width="4380" height="2430"><g><image crossorigin="anonymous" x="0" y="0" href="https://nftpuzzle.license-token.com/assets/completepuzzle.svg" width="100%" height="100%" /><g class="links"><use href="#t2722"/></g></g></svg><svg x="4045" y="662" height="9%" width="9%" viewBox="0 0 330 330"><g><a xlink:href="https://nftpuzzle.license-token.com/" class="links"><title>See the most innovative NFT based token software licensing project</title><path fill="#E4CF37" id="more" d="M165,0C74.019,0,0,74.019,0,165s74.019,165,165,165s165-74.019,165-165S255.981,0,165,0z M85,190 c-13.785,0-25-11.215-25-25s11.215-25,25-25s25,11.215,25,25S98.785,190,85,190z M165,190c-13.785,0-25-11.215-25-25 s11.215-25,25-25s25,11.215,25,25S178.785,190,165,190z M245,190c-13.785,0-25-11.215-25-25s11.215-25,25-25 c13.785,0,25,11.215,25,25S258.785,190,245,190z"></path></a></g></svg></svg></svg>