<svg version="1.1" xmlns="http://www.w3.org/2000/svg" xmlns:xlink="http://www.w3.org/1999/xlink" fill="transparent" x="0" y="0" width="350" height="350" preserveAspectRatio="xMinYMin slice"><style type="text/css">.links{fill:transparent;stroke: #E4CF37;}.links:hover{fill:#63D272; opacity:0.4;}</style><defs><g id="allt"><path id="t2723" d="M4092,640 L4081,638 C4071,636 4087,645 4075,645 C4064,646 4077,640 4068,640 L4059,640 4059,640 L4059,650 C4059,660 4054,646 4051,654 C4048,663 4059,652 4059,662 L4059,672 4059,672 L4069,672 C4080,672 4065,667 4074,664 C4083,662 4072,672 4082,672 L4092,672 4092,672 L4094,662 C4097,652 4087,665 4085,656 C4084,648 4097,657 4094,648 L4092,640"/></g><clipPath id="c" clipRule="evenodd" fill="transparent"><use href="#t2723"/></clipPath></defs><svg viewBox="4047 635 51 38" preserveAspectRatio="xMinYMin meet"><svg width="4380" height="2430"><g><image crossorigin="anonymous" x="0" y="0" href="https://nftpuzzle.license-token.com/assets/completepuzzle.svg" width="100%" height="100%" /><g class="links"><use href="#t2723"/></g></g></svg><svg x="4083" y="658" height="9%" width="9%" viewBox="0 0 330 330"><g><a xlink:href="https://nftpuzzle.license-token.com/" class="links"><title>See the most innovative NFT based token software licensing project</title><path fill="#E4CF37" id="more" d="M165,0C74.019,0,0,74.019,0,165s74.019,165,165,165s165-74.019,165-165S255.981,0,165,0z M85,190 c-13.785,0-25-11.215-25-25s11.215-25,25-25s25,11.215,25,25S98.785,190,85,190z M165,190c-13.785,0-25-11.215-25-25 s11.215-25,25-25s25,11.215,25,25S178.785,190,165,190z M245,190c-13.785,0-25-11.215-25-25s11.215-25,25-25 c13.785,0,25,11.215,25,25S258.785,190,245,190z"></path></a></g></svg></svg></svg>