<svg version="1.1" xmlns="http://www.w3.org/2000/svg" xmlns:xlink="http://www.w3.org/1999/xlink" fill="transparent" x="0" y="0" width="350" height="350" preserveAspectRatio="xMinYMin slice"><style type="text/css">.links{fill:transparent;stroke: #E4CF37;}.links:hover{fill:#63D272; opacity:0.4;}</style><defs><g id="allt"><path id="t2724" d="M4125,640 L4115,640 C4106,640 4115,645 4108,644 C4101,644 4113,637 4102,638 L4092,640 4092,640 L4094,648 C4097,657 4084,648 4085,656 C4087,665 4097,652 4094,662 L4092,672 4092,672 L4101,674 C4110,677 4100,664 4109,665 C4118,667 4104,677 4114,674 L4125,672 4125,672 L4125,662 C4126,653 4119,665 4119,655 C4120,645 4126,661 4125,650 L4125,640"/></g><clipPath id="c" clipRule="evenodd" fill="transparent"><use href="#t2724"/></clipPath></defs><svg viewBox="4083 636 44 42" preserveAspectRatio="xMinYMin meet"><svg width="4380" height="2430"><g><image crossorigin="anonymous" x="0" y="0" href="https://nftpuzzle.license-token.com/assets/completepuzzle.svg" width="100%" height="100%" /><g class="links"><use href="#t2724"/></g></g></svg><svg x="4112" y="663" height="9%" width="9%" viewBox="0 0 330 330"><g><a xlink:href="https://nftpuzzle.license-token.com/" class="links"><title>See the most innovative NFT based token software licensing project</title><path fill="#E4CF37" id="more" d="M165,0C74.019,0,0,74.019,0,165s74.019,165,165,165s165-74.019,165-165S255.981,0,165,0z M85,190 c-13.785,0-25-11.215-25-25s11.215-25,25-25s25,11.215,25,25S98.785,190,85,190z M165,190c-13.785,0-25-11.215-25-25 s11.215-25,25-25s25,11.215,25,25S178.785,190,165,190z M245,190c-13.785,0-25-11.215-25-25s11.215-25,25-25 c13.785,0,25,11.215,25,25S258.785,190,245,190z"></path></a></g></svg></svg></svg>