<svg version="1.1" xmlns="http://www.w3.org/2000/svg" xmlns:xlink="http://www.w3.org/1999/xlink" fill="transparent" x="0" y="0" width="350" height="350" preserveAspectRatio="xMinYMin slice"><style type="text/css">.links{fill:transparent;stroke: #E4CF37;}.links:hover{fill:#63D272; opacity:0.4;}</style><defs><g id="allt"><path id="t2725" d="M4158,640 L4146,640 C4135,641 4149,637 4141,637 C4133,638 4143,640 4134,640 L4125,640 4125,640 L4125,650 C4126,661 4120,645 4119,655 C4119,665 4126,653 4125,662 L4125,672 4125,672 L4135,672 C4146,673 4130,667 4140,666 C4151,666 4138,673 4148,672 L4158,672 4158,672 L4156,661 C4154,650 4169,662 4168,654 C4167,646 4158,660 4158,650 L4158,640"/></g><clipPath id="c" clipRule="evenodd" fill="transparent"><use href="#t2725"/></clipPath></defs><svg viewBox="4118 636 52 38" preserveAspectRatio="xMinYMin meet"><svg width="4380" height="2430"><g><image crossorigin="anonymous" x="0" y="0" href="https://nftpuzzle.license-token.com/assets/completepuzzle.svg" width="100%" height="100%" /><g class="links"><use href="#t2725"/></g></g></svg><svg x="4155" y="659" height="9%" width="9%" viewBox="0 0 330 330"><g><a xlink:href="https://nftpuzzle.license-token.com/" class="links"><title>See the most innovative NFT based token software licensing project</title><path fill="#E4CF37" id="more" d="M165,0C74.019,0,0,74.019,0,165s74.019,165,165,165s165-74.019,165-165S255.981,0,165,0z M85,190 c-13.785,0-25-11.215-25-25s11.215-25,25-25s25,11.215,25,25S98.785,190,85,190z M165,190c-13.785,0-25-11.215-25-25 s11.215-25,25-25s25,11.215,25,25S178.785,190,165,190z M245,190c-13.785,0-25-11.215-25-25s11.215-25,25-25 c13.785,0,25,11.215,25,25S258.785,190,245,190z"></path></a></g></svg></svg></svg>