<svg version="1.1" xmlns="http://www.w3.org/2000/svg" xmlns:xlink="http://www.w3.org/1999/xlink" fill="transparent" x="0" y="0" width="350" height="350" preserveAspectRatio="xMinYMin slice"><style type="text/css">.links{fill:transparent;stroke: #E4CF37;}.links:hover{fill:#63D272; opacity:0.4;}</style><defs><g id="allt"><path id="t2727" d="M4224,640 L4214,640 C4204,641 4218,634 4209,635 C4200,636 4210,643 4200,641 L4191,640 4191,640 L4192,648 C4194,657 4187,649 4184,657 C4181,665 4194,652 4192,662 L4191,672 4191,672 L4200,673 C4209,675 4200,668 4208,665 C4217,662 4203,675 4213,673 L4224,672 4224,672 L4224,662 C4224,653 4220,663 4217,654 C4215,645 4224,661 4224,650 L4224,640"/></g><clipPath id="c" clipRule="evenodd" fill="transparent"><use href="#t2727"/></clipPath></defs><svg viewBox="4180 633 45 43" preserveAspectRatio="xMinYMin meet"><svg width="4380" height="2430"><g><image crossorigin="anonymous" x="0" y="0" href="https://nftpuzzle.license-token.com/assets/completepuzzle.svg" width="100%" height="100%" /><g class="links"><use href="#t2727"/></g></g></svg><svg x="4210" y="661" height="9%" width="9%" viewBox="0 0 330 330"><g><a xlink:href="https://nftpuzzle.license-token.com/" class="links"><title>See the most innovative NFT based token software licensing project</title><path fill="#E4CF37" id="more" d="M165,0C74.019,0,0,74.019,0,165s74.019,165,165,165s165-74.019,165-165S255.981,0,165,0z M85,190 c-13.785,0-25-11.215-25-25s11.215-25,25-25s25,11.215,25,25S98.785,190,85,190z M165,190c-13.785,0-25-11.215-25-25 s11.215-25,25-25s25,11.215,25,25S178.785,190,165,190z M245,190c-13.785,0-25-11.215-25-25s11.215-25,25-25 c13.785,0,25,11.215,25,25S258.785,190,245,190z"></path></a></g></svg></svg></svg>