<svg version="1.1" xmlns="http://www.w3.org/2000/svg" xmlns:xlink="http://www.w3.org/1999/xlink" fill="transparent" x="0" y="0" width="350" height="350" preserveAspectRatio="xMinYMin slice"><style type="text/css">.links{fill:transparent;stroke: #E4CF37;}.links:hover{fill:#63D272; opacity:0.4;}</style><defs><g id="allt"><path id="t2728" d="M4257,640 L4245,639 C4234,638 4249,650 4239,649 C4230,649 4244,636 4234,638 L4224,640 4224,640 L4224,650 C4224,661 4215,645 4217,654 C4220,663 4224,653 4224,662 L4224,672 4224,672 L4234,672 C4245,672 4229,663 4238,665 C4247,668 4237,672 4247,672 L4257,672 4257,672 L4256,661 C4256,650 4264,664 4264,656 C4264,648 4256,657 4256,648 L4257,640"/></g><clipPath id="c" clipRule="evenodd" fill="transparent"><use href="#t2728"/></clipPath></defs><svg viewBox="4214 635 51 38" preserveAspectRatio="xMinYMin meet"><svg width="4380" height="2430"><g><image crossorigin="anonymous" x="0" y="0" href="https://nftpuzzle.license-token.com/assets/completepuzzle.svg" width="100%" height="100%" /><g class="links"><use href="#t2728"/></g></g></svg><svg x="4250" y="658" height="9%" width="9%" viewBox="0 0 330 330"><g><a xlink:href="https://nftpuzzle.license-token.com/" class="links"><title>See the most innovative NFT based token software licensing project</title><path fill="#E4CF37" id="more" d="M165,0C74.019,0,0,74.019,0,165s74.019,165,165,165s165-74.019,165-165S255.981,0,165,0z M85,190 c-13.785,0-25-11.215-25-25s11.215-25,25-25s25,11.215,25,25S98.785,190,85,190z M165,190c-13.785,0-25-11.215-25-25 s11.215-25,25-25s25,11.215,25,25S178.785,190,165,190z M245,190c-13.785,0-25-11.215-25-25s11.215-25,25-25 c13.785,0,25,11.215,25,25S258.785,190,245,190z"></path></a></g></svg></svg></svg>