<svg version="1.1" xmlns="http://www.w3.org/2000/svg" xmlns:xlink="http://www.w3.org/1999/xlink" fill="transparent" x="0" y="0" width="350" height="350" preserveAspectRatio="xMinYMin slice"><style type="text/css">.links{fill:transparent;stroke: #E4CF37;}.links:hover{fill:#63D272; opacity:0.4;}</style><defs><g id="allt"><path id="t2764" d="M1155,672 L1144,672 C1134,672 1147,669 1137,668 C1128,667 1140,673 1131,672 L1122,672 1122,672 L1122,681 C1123,690 1118,676 1117,687 C1117,699 1123,683 1122,693 L1122,704 1122,704 L1131,704 C1140,705 1126,700 1138,699 C1150,699 1133,705 1144,704 L1155,704 1155,704 L1155,694 C1155,685 1148,697 1149,686 C1150,676 1157,690 1156,681 L1155,672"/></g><clipPath id="c" clipRule="evenodd" fill="transparent"><use href="#t2764"/></clipPath></defs><svg viewBox="1116 666 42 40" preserveAspectRatio="xMinYMin meet"><svg width="4380" height="2430"><g><image crossorigin="anonymous" x="0" y="0" href="https://nftpuzzle.license-token.com/assets/completepuzzle.svg" width="100%" height="100%" /><g class="links"><use href="#t2764"/></g></g></svg><svg x="1143" y="691" height="9%" width="9%" viewBox="0 0 330 330"><g><a xlink:href="https://nftpuzzle.license-token.com/" class="links"><title>See the most innovative NFT based token software licensing project</title><path fill="#E4CF37" id="more" d="M165,0C74.019,0,0,74.019,0,165s74.019,165,165,165s165-74.019,165-165S255.981,0,165,0z M85,190 c-13.785,0-25-11.215-25-25s11.215-25,25-25s25,11.215,25,25S98.785,190,85,190z M165,190c-13.785,0-25-11.215-25-25 s11.215-25,25-25s25,11.215,25,25S178.785,190,165,190z M245,190c-13.785,0-25-11.215-25-25s11.215-25,25-25 c13.785,0,25,11.215,25,25S258.785,190,245,190z"></path></a></g></svg></svg></svg>