<svg version="1.1" xmlns="http://www.w3.org/2000/svg" xmlns:xlink="http://www.w3.org/1999/xlink" fill="transparent" x="0" y="0" width="350" height="350" preserveAspectRatio="xMinYMin slice"><style type="text/css">.links{fill:transparent;stroke: #E4CF37;}.links:hover{fill:#63D272; opacity:0.4;}</style><defs><g id="allt"><path id="t2768" d="M1287,672 L1276,672 C1265,672 1280,678 1270,678 C1261,678 1272,672 1263,672 L1254,672 1254,672 L1254,681 C1254,690 1247,679 1246,687 C1246,696 1254,684 1254,694 L1254,704 1254,704 L1263,704 C1273,704 1261,697 1270,696 C1279,696 1266,704 1276,704 L1287,704 1287,704 L1286,695 C1285,686 1295,695 1294,685 C1294,676 1287,690 1287,681 L1287,672"/></g><clipPath id="c" clipRule="evenodd" fill="transparent"><use href="#t2768"/></clipPath></defs><svg viewBox="1245 671 51 34" preserveAspectRatio="xMinYMin meet"><svg width="4380" height="2430"><g><image crossorigin="anonymous" x="0" y="0" href="https://nftpuzzle.license-token.com/assets/completepuzzle.svg" width="100%" height="100%" /><g class="links"><use href="#t2768"/></g></g></svg><svg x="1281" y="690" height="9%" width="9%" viewBox="0 0 330 330"><g><a xlink:href="https://nftpuzzle.license-token.com/" class="links"><title>See the most innovative NFT based token software licensing project</title><path fill="#E4CF37" id="more" d="M165,0C74.019,0,0,74.019,0,165s74.019,165,165,165s165-74.019,165-165S255.981,0,165,0z M85,190 c-13.785,0-25-11.215-25-25s11.215-25,25-25s25,11.215,25,25S98.785,190,85,190z M165,190c-13.785,0-25-11.215-25-25 s11.215-25,25-25s25,11.215,25,25S178.785,190,165,190z M245,190c-13.785,0-25-11.215-25-25s11.215-25,25-25 c13.785,0,25,11.215,25,25S258.785,190,245,190z"></path></a></g></svg></svg></svg>