<svg version="1.1" xmlns="http://www.w3.org/2000/svg" xmlns:xlink="http://www.w3.org/1999/xlink" fill="transparent" x="0" y="0" width="350" height="350" preserveAspectRatio="xMinYMin slice"><style type="text/css">.links{fill:transparent;stroke: #E4CF37;}.links:hover{fill:#63D272; opacity:0.4;}</style><defs><g id="allt"><path id="t2772" d="M1419,672 L1408,672 C1398,672 1410,677 1400,676 C1391,676 1405,671 1395,671 L1386,672 1386,672 L1386,681 C1386,691 1389,680 1389,689 C1389,699 1386,684 1386,694 L1386,704 1386,704 L1395,704 C1405,704 1394,707 1404,707 C1414,707 1398,704 1408,704 L1419,704 1419,704 L1420,694 C1421,684 1415,698 1415,688 C1416,679 1419,691 1419,681 L1419,672"/></g><clipPath id="c" clipRule="evenodd" fill="transparent"><use href="#t2772"/></clipPath></defs><svg viewBox="1385 670 37 38" preserveAspectRatio="xMinYMin meet"><svg width="4380" height="2430"><g><image crossorigin="anonymous" x="0" y="0" href="https://nftpuzzle.license-token.com/assets/completepuzzle.svg" width="100%" height="100%" /><g class="links"><use href="#t2772"/></g></g></svg><svg x="1407" y="693" height="9%" width="9%" viewBox="0 0 330 330"><g><a xlink:href="https://nftpuzzle.license-token.com/" class="links"><title>See the most innovative NFT based token software licensing project</title><path fill="#E4CF37" id="more" d="M165,0C74.019,0,0,74.019,0,165s74.019,165,165,165s165-74.019,165-165S255.981,0,165,0z M85,190 c-13.785,0-25-11.215-25-25s11.215-25,25-25s25,11.215,25,25S98.785,190,85,190z M165,190c-13.785,0-25-11.215-25-25 s11.215-25,25-25s25,11.215,25,25S178.785,190,165,190z M245,190c-13.785,0-25-11.215-25-25s11.215-25,25-25 c13.785,0,25,11.215,25,25S258.785,190,245,190z"></path></a></g></svg></svg></svg>