<svg version="1.1" xmlns="http://www.w3.org/2000/svg" xmlns:xlink="http://www.w3.org/1999/xlink" fill="transparent" x="0" y="0" width="350" height="350" preserveAspectRatio="xMinYMin slice"><style type="text/css">.links{fill:transparent;stroke: #E4CF37;}.links:hover{fill:#63D272; opacity:0.4;}</style><defs><g id="allt"><path id="t2778" d="M1617,672 L1606,669 C1595,667 1607,679 1598,679 C1590,680 1603,672 1593,672 L1584,672 1584,672 L1585,682 C1586,693 1576,681 1578,689 C1581,698 1586,684 1585,694 L1584,704 1584,704 L1595,705 C1606,706 1593,696 1602,698 C1611,701 1596,706 1606,705 L1617,704 1617,704 L1615,693 C1613,683 1624,695 1624,686 C1624,678 1617,692 1617,682 L1617,672"/></g><clipPath id="c" clipRule="evenodd" fill="transparent"><use href="#t2778"/></clipPath></defs><svg viewBox="1575 666 50 41" preserveAspectRatio="xMinYMin meet"><svg width="4380" height="2430"><g><image crossorigin="anonymous" x="0" y="0" href="https://nftpuzzle.license-token.com/assets/completepuzzle.svg" width="100%" height="100%" /><g class="links"><use href="#t2778"/></g></g></svg><svg x="1610" y="692" height="9%" width="9%" viewBox="0 0 330 330"><g><a xlink:href="https://nftpuzzle.license-token.com/" class="links"><title>See the most innovative NFT based token software licensing project</title><path fill="#E4CF37" id="more" d="M165,0C74.019,0,0,74.019,0,165s74.019,165,165,165s165-74.019,165-165S255.981,0,165,0z M85,190 c-13.785,0-25-11.215-25-25s11.215-25,25-25s25,11.215,25,25S98.785,190,85,190z M165,190c-13.785,0-25-11.215-25-25 s11.215-25,25-25s25,11.215,25,25S178.785,190,165,190z M245,190c-13.785,0-25-11.215-25-25s11.215-25,25-25 c13.785,0,25,11.215,25,25S258.785,190,245,190z"></path></a></g></svg></svg></svg>