<svg version="1.1" xmlns="http://www.w3.org/2000/svg" xmlns:xlink="http://www.w3.org/1999/xlink" fill="transparent" x="0" y="0" width="350" height="350" preserveAspectRatio="xMinYMin slice"><style type="text/css">.links{fill:transparent;stroke: #E4CF37;}.links:hover{fill:#63D272; opacity:0.4;}</style><defs><g id="allt"><path id="t2782" d="M1749,672 L1738,670 C1728,668 1739,680 1731,678 C1723,677 1736,669 1726,670 L1716,672 1716,672 L1716,681 C1716,690 1719,680 1719,688 C1720,697 1716,683 1716,693 L1716,704 1716,704 L1725,704 C1735,704 1724,707 1733,707 C1742,708 1727,704 1738,704 L1749,704 1749,704 L1749,695 C1749,686 1751,694 1751,687 C1751,680 1749,691 1749,681 L1749,672"/></g><clipPath id="c" clipRule="evenodd" fill="transparent"><use href="#t2782"/></clipPath></defs><svg viewBox="1715 667 37 42" preserveAspectRatio="xMinYMin meet"><svg width="4380" height="2430"><g><image crossorigin="anonymous" x="0" y="0" href="https://nftpuzzle.license-token.com/assets/completepuzzle.svg" width="100%" height="100%" /><g class="links"><use href="#t2782"/></g></g></svg><svg x="1737" y="694" height="9%" width="9%" viewBox="0 0 330 330"><g><a xlink:href="https://nftpuzzle.license-token.com/" class="links"><title>See the most innovative NFT based token software licensing project</title><path fill="#E4CF37" id="more" d="M165,0C74.019,0,0,74.019,0,165s74.019,165,165,165s165-74.019,165-165S255.981,0,165,0z M85,190 c-13.785,0-25-11.215-25-25s11.215-25,25-25s25,11.215,25,25S98.785,190,85,190z M165,190c-13.785,0-25-11.215-25-25 s11.215-25,25-25s25,11.215,25,25S178.785,190,165,190z M245,190c-13.785,0-25-11.215-25-25s11.215-25,25-25 c13.785,0,25,11.215,25,25S258.785,190,245,190z"></path></a></g></svg></svg></svg>