<svg version="1.1" xmlns="http://www.w3.org/2000/svg" xmlns:xlink="http://www.w3.org/1999/xlink" fill="transparent" x="0" y="0" width="350" height="350" preserveAspectRatio="xMinYMin slice"><style type="text/css">.links{fill:transparent;stroke: #E4CF37;}.links:hover{fill:#63D272; opacity:0.4;}</style><defs><g id="allt"><path id="t2785" d="M1848,672 L1838,671 C1828,671 1840,675 1831,675 C1822,676 1834,671 1824,671 L1815,672 1815,672 L1816,681 C1817,691 1811,681 1811,687 C1811,694 1816,683 1815,693 L1815,704 1815,704 L1825,705 C1835,706 1824,700 1831,700 C1838,700 1827,705 1837,704 L1848,704 1848,704 L1849,694 C1850,685 1844,697 1844,688 C1844,680 1849,692 1848,682 L1848,672"/></g><clipPath id="c" clipRule="evenodd" fill="transparent"><use href="#t2785"/></clipPath></defs><svg viewBox="1810 670 41 37" preserveAspectRatio="xMinYMin meet"><svg width="4380" height="2430"><g><image crossorigin="anonymous" x="0" y="0" href="https://nftpuzzle.license-token.com/assets/completepuzzle.svg" width="100%" height="100%" /><g class="links"><use href="#t2785"/></g></g></svg><svg x="1836" y="692" height="9%" width="9%" viewBox="0 0 330 330"><g><a xlink:href="https://nftpuzzle.license-token.com/" class="links"><title>See the most innovative NFT based token software licensing project</title><path fill="#E4CF37" id="more" d="M165,0C74.019,0,0,74.019,0,165s74.019,165,165,165s165-74.019,165-165S255.981,0,165,0z M85,190 c-13.785,0-25-11.215-25-25s11.215-25,25-25s25,11.215,25,25S98.785,190,85,190z M165,190c-13.785,0-25-11.215-25-25 s11.215-25,25-25s25,11.215,25,25S178.785,190,165,190z M245,190c-13.785,0-25-11.215-25-25s11.215-25,25-25 c13.785,0,25,11.215,25,25S258.785,190,245,190z"></path></a></g></svg></svg></svg>