<svg version="1.1" xmlns="http://www.w3.org/2000/svg" xmlns:xlink="http://www.w3.org/1999/xlink" fill="transparent" x="0" y="0" width="350" height="350" preserveAspectRatio="xMinYMin slice"><style type="text/css">.links{fill:transparent;stroke: #E4CF37;}.links:hover{fill:#63D272; opacity:0.4;}</style><defs><g id="allt"><path id="t2788" d="M1947,672 L1937,673 C1928,674 1938,668 1930,666 C1923,665 1933,675 1923,673 L1914,672 1914,672 L1914,682 C1914,692 1922,679 1920,687 C1919,696 1911,684 1912,694 L1914,704 1914,704 L1924,704 C1935,704 1921,712 1929,710 C1938,709 1927,701 1937,702 L1947,704 1947,704 L1947,693 C1947,682 1940,696 1940,688 C1940,680 1949,691 1948,681 L1947,672"/></g><clipPath id="c" clipRule="evenodd" fill="transparent"><use href="#t2788"/></clipPath></defs><svg viewBox="1910 664 40 49" preserveAspectRatio="xMinYMin meet"><svg width="4380" height="2430"><g><image crossorigin="anonymous" x="0" y="0" href="https://nftpuzzle.license-token.com/assets/completepuzzle.svg" width="100%" height="100%" /><g class="links"><use href="#t2788"/></g></g></svg><svg x="1935" y="698" height="9%" width="9%" viewBox="0 0 330 330"><g><a xlink:href="https://nftpuzzle.license-token.com/" class="links"><title>See the most innovative NFT based token software licensing project</title><path fill="#E4CF37" id="more" d="M165,0C74.019,0,0,74.019,0,165s74.019,165,165,165s165-74.019,165-165S255.981,0,165,0z M85,190 c-13.785,0-25-11.215-25-25s11.215-25,25-25s25,11.215,25,25S98.785,190,85,190z M165,190c-13.785,0-25-11.215-25-25 s11.215-25,25-25s25,11.215,25,25S178.785,190,165,190z M245,190c-13.785,0-25-11.215-25-25s11.215-25,25-25 c13.785,0,25,11.215,25,25S258.785,190,245,190z"></path></a></g></svg></svg></svg>