<svg version="1.1" xmlns="http://www.w3.org/2000/svg" xmlns:xlink="http://www.w3.org/1999/xlink" fill="transparent" x="0" y="0" width="350" height="350" preserveAspectRatio="xMinYMin slice"><style type="text/css">.links{fill:transparent;stroke: #E4CF37;}.links:hover{fill:#63D272; opacity:0.4;}</style><defs><g id="allt"><path id="t2792" d="M2079,672 L2069,672 C2059,673 2070,669 2060,669 C2051,669 2065,673 2055,672 L2046,672 2046,672 L2046,681 C2047,690 2042,680 2042,689 C2043,698 2046,684 2046,694 L2046,704 2046,704 L2055,704 C2065,705 2054,700 2063,700 C2073,701 2059,704 2069,704 L2079,704 2079,704 L2078,693 C2077,683 2089,695 2087,687 C2085,679 2077,689 2078,680 L2079,672"/></g><clipPath id="c" clipRule="evenodd" fill="transparent"><use href="#t2792"/></clipPath></defs><svg viewBox="2041 668 49 38" preserveAspectRatio="xMinYMin meet"><svg width="4380" height="2430"><g><image crossorigin="anonymous" x="0" y="0" href="https://nftpuzzle.license-token.com/assets/completepuzzle.svg" width="100%" height="100%" /><g class="links"><use href="#t2792"/></g></g></svg><svg x="2075" y="691" height="9%" width="9%" viewBox="0 0 330 330"><g><a xlink:href="https://nftpuzzle.license-token.com/" class="links"><title>See the most innovative NFT based token software licensing project</title><path fill="#E4CF37" id="more" d="M165,0C74.019,0,0,74.019,0,165s74.019,165,165,165s165-74.019,165-165S255.981,0,165,0z M85,190 c-13.785,0-25-11.215-25-25s11.215-25,25-25s25,11.215,25,25S98.785,190,85,190z M165,190c-13.785,0-25-11.215-25-25 s11.215-25,25-25s25,11.215,25,25S178.785,190,165,190z M245,190c-13.785,0-25-11.215-25-25s11.215-25,25-25 c13.785,0,25,11.215,25,25S258.785,190,245,190z"></path></a></g></svg></svg></svg>