<svg version="1.1" xmlns="http://www.w3.org/2000/svg" xmlns:xlink="http://www.w3.org/1999/xlink" fill="transparent" x="0" y="0" width="350" height="350" preserveAspectRatio="xMinYMin slice"><style type="text/css">.links{fill:transparent;stroke: #E4CF37;}.links:hover{fill:#63D272; opacity:0.4;}</style><defs><g id="allt"><path id="t2794" d="M2145,672 L2133,671 C2122,670 2137,678 2127,677 C2118,676 2130,670 2121,671 L2112,672 2112,672 L2109,682 C2107,693 2124,680 2124,689 C2124,698 2106,684 2109,694 L2112,704 2112,704 L2122,701 C2133,699 2120,716 2129,716 C2139,716 2124,698 2134,701 L2145,704 2145,704 L2147,695 C2149,686 2136,696 2137,687 C2139,678 2147,693 2146,682 L2145,672"/></g><clipPath id="c" clipRule="evenodd" fill="transparent"><use href="#t2794"/></clipPath></defs><svg viewBox="2105 669 45 48" preserveAspectRatio="xMinYMin meet"><svg width="4380" height="2430"><g><image crossorigin="anonymous" x="0" y="0" href="https://nftpuzzle.license-token.com/assets/completepuzzle.svg" width="100%" height="100%" /><g class="links"><use href="#t2794"/></g></g></svg><svg x="2135" y="702" height="9%" width="9%" viewBox="0 0 330 330"><g><a xlink:href="https://nftpuzzle.license-token.com/" class="links"><title>See the most innovative NFT based token software licensing project</title><path fill="#E4CF37" id="more" d="M165,0C74.019,0,0,74.019,0,165s74.019,165,165,165s165-74.019,165-165S255.981,0,165,0z M85,190 c-13.785,0-25-11.215-25-25s11.215-25,25-25s25,11.215,25,25S98.785,190,85,190z M165,190c-13.785,0-25-11.215-25-25 s11.215-25,25-25s25,11.215,25,25S178.785,190,165,190z M245,190c-13.785,0-25-11.215-25-25s11.215-25,25-25 c13.785,0,25,11.215,25,25S258.785,190,245,190z"></path></a></g></svg></svg></svg>