<svg version="1.1" xmlns="http://www.w3.org/2000/svg" xmlns:xlink="http://www.w3.org/1999/xlink" fill="transparent" x="0" y="0" width="350" height="350" preserveAspectRatio="xMinYMin slice"><style type="text/css">.links{fill:transparent;stroke: #E4CF37;}.links:hover{fill:#63D272; opacity:0.4;}</style><defs><g id="allt"><path id="t2795" d="M2178,672 L2168,674 C2158,676 2170,661 2161,661 C2153,661 2166,672 2155,672 L2145,672 2145,672 L2146,682 C2147,693 2139,678 2137,687 C2136,696 2149,686 2147,695 L2145,704 2145,704 L2156,705 C2167,706 2151,698 2160,696 C2169,695 2159,708 2168,706 L2178,704 2178,704 L2177,693 C2177,683 2183,697 2182,688 C2182,680 2178,689 2178,680 L2178,672"/></g><clipPath id="c" clipRule="evenodd" fill="transparent"><use href="#t2795"/></clipPath></defs><svg viewBox="2135 660 49 49" preserveAspectRatio="xMinYMin meet"><svg width="4380" height="2430"><g><image crossorigin="anonymous" x="0" y="0" href="https://nftpuzzle.license-token.com/assets/completepuzzle.svg" width="100%" height="100%" /><g class="links"><use href="#t2795"/></g></g></svg><svg x="2169" y="694" height="9%" width="9%" viewBox="0 0 330 330"><g><a xlink:href="https://nftpuzzle.license-token.com/" class="links"><title>See the most innovative NFT based token software licensing project</title><path fill="#E4CF37" id="more" d="M165,0C74.019,0,0,74.019,0,165s74.019,165,165,165s165-74.019,165-165S255.981,0,165,0z M85,190 c-13.785,0-25-11.215-25-25s11.215-25,25-25s25,11.215,25,25S98.785,190,85,190z M165,190c-13.785,0-25-11.215-25-25 s11.215-25,25-25s25,11.215,25,25S178.785,190,165,190z M245,190c-13.785,0-25-11.215-25-25s11.215-25,25-25 c13.785,0,25,11.215,25,25S258.785,190,245,190z"></path></a></g></svg></svg></svg>