<svg version="1.1" xmlns="http://www.w3.org/2000/svg" xmlns:xlink="http://www.w3.org/1999/xlink" fill="transparent" x="0" y="0" width="350" height="350" preserveAspectRatio="xMinYMin slice"><style type="text/css">.links{fill:transparent;stroke: #E4CF37;}.links:hover{fill:#63D272; opacity:0.4;}</style><defs><g id="allt"><path id="t2808" d="M2607,672 L2596,672 C2585,672 2598,666 2588,666 C2579,666 2594,673 2584,672 L2574,672 2574,672 L2574,681 C2574,690 2566,678 2568,688 C2570,698 2578,684 2576,694 L2574,704 2574,704 L2583,704 C2593,704 2580,696 2590,698 C2601,700 2586,708 2596,706 L2607,704 2607,704 L2607,695 C2607,686 2618,695 2617,687 C2617,680 2602,689 2604,680 L2607,672"/></g><clipPath id="c" clipRule="evenodd" fill="transparent"><use href="#t2808"/></clipPath></defs><svg viewBox="2565 665 54 44" preserveAspectRatio="xMinYMin meet"><svg width="4380" height="2430"><g><image crossorigin="anonymous" x="0" y="0" href="https://nftpuzzle.license-token.com/assets/completepuzzle.svg" width="100%" height="100%" /><g class="links"><use href="#t2808"/></g></g></svg><svg x="2604" y="694" height="9%" width="9%" viewBox="0 0 330 330"><g><a xlink:href="https://nftpuzzle.license-token.com/" class="links"><title>See the most innovative NFT based token software licensing project</title><path fill="#E4CF37" id="more" d="M165,0C74.019,0,0,74.019,0,165s74.019,165,165,165s165-74.019,165-165S255.981,0,165,0z M85,190 c-13.785,0-25-11.215-25-25s11.215-25,25-25s25,11.215,25,25S98.785,190,85,190z M165,190c-13.785,0-25-11.215-25-25 s11.215-25,25-25s25,11.215,25,25S178.785,190,165,190z M245,190c-13.785,0-25-11.215-25-25s11.215-25,25-25 c13.785,0,25,11.215,25,25S258.785,190,245,190z"></path></a></g></svg></svg></svg>