<svg version="1.1" xmlns="http://www.w3.org/2000/svg" xmlns:xlink="http://www.w3.org/1999/xlink" fill="transparent" x="0" y="0" width="350" height="350" preserveAspectRatio="xMinYMin slice"><style type="text/css">.links{fill:transparent;stroke: #E4CF37;}.links:hover{fill:#63D272; opacity:0.4;}</style><defs><g id="allt"><path id="t2810" d="M2673,672 L2662,672 C2651,672 2666,682 2656,682 C2647,682 2658,667 2649,669 L2640,672 2640,672 L2641,681 C2643,690 2632,678 2634,687 C2636,696 2641,685 2640,694 L2640,704 2640,704 L2649,705 C2658,707 2646,696 2655,698 C2665,700 2654,705 2663,704 L2673,704 2673,704 L2671,693 C2669,683 2684,695 2683,687 C2682,679 2673,691 2673,681 L2673,672"/></g><clipPath id="c" clipRule="evenodd" fill="transparent"><use href="#t2810"/></clipPath></defs><svg viewBox="2631 666 54 42" preserveAspectRatio="xMinYMin meet"><svg width="4380" height="2430"><g><image crossorigin="anonymous" x="0" y="0" href="https://nftpuzzle.license-token.com/assets/completepuzzle.svg" width="100%" height="100%" /><g class="links"><use href="#t2810"/></g></g></svg><svg x="2670" y="693" height="9%" width="9%" viewBox="0 0 330 330"><g><a xlink:href="https://nftpuzzle.license-token.com/" class="links"><title>See the most innovative NFT based token software licensing project</title><path fill="#E4CF37" id="more" d="M165,0C74.019,0,0,74.019,0,165s74.019,165,165,165s165-74.019,165-165S255.981,0,165,0z M85,190 c-13.785,0-25-11.215-25-25s11.215-25,25-25s25,11.215,25,25S98.785,190,85,190z M165,190c-13.785,0-25-11.215-25-25 s11.215-25,25-25s25,11.215,25,25S178.785,190,165,190z M245,190c-13.785,0-25-11.215-25-25s11.215-25,25-25 c13.785,0,25,11.215,25,25S258.785,190,245,190z"></path></a></g></svg></svg></svg>