<svg version="1.1" xmlns="http://www.w3.org/2000/svg" xmlns:xlink="http://www.w3.org/1999/xlink" fill="transparent" x="0" y="0" width="350" height="350" preserveAspectRatio="xMinYMin slice"><style type="text/css">.links{fill:transparent;stroke: #E4CF37;}.links:hover{fill:#63D272; opacity:0.4;}</style><defs><g id="allt"><path id="t2811" d="M2706,672 L2696,672 C2687,672 2696,667 2688,668 C2681,670 2693,672 2683,672 L2673,672 2673,672 L2673,681 C2673,691 2682,679 2683,687 C2684,695 2669,683 2671,693 L2673,704 2673,704 L2682,704 C2692,704 2680,713 2688,713 C2696,714 2684,700 2695,702 L2706,704 2706,704 L2706,694 C2706,684 2704,694 2703,687 C2702,681 2708,692 2707,682 L2706,672"/></g><clipPath id="c" clipRule="evenodd" fill="transparent"><use href="#t2811"/></clipPath></defs><svg viewBox="2668 666 41 49" preserveAspectRatio="xMinYMin meet"><svg width="4380" height="2430"><g><image crossorigin="anonymous" x="0" y="0" href="https://nftpuzzle.license-token.com/assets/completepuzzle.svg" width="100%" height="100%" /><g class="links"><use href="#t2811"/></g></g></svg><svg x="2694" y="700" height="9%" width="9%" viewBox="0 0 330 330"><g><a xlink:href="https://nftpuzzle.license-token.com/" class="links"><title>See the most innovative NFT based token software licensing project</title><path fill="#E4CF37" id="more" d="M165,0C74.019,0,0,74.019,0,165s74.019,165,165,165s165-74.019,165-165S255.981,0,165,0z M85,190 c-13.785,0-25-11.215-25-25s11.215-25,25-25s25,11.215,25,25S98.785,190,85,190z M165,190c-13.785,0-25-11.215-25-25 s11.215-25,25-25s25,11.215,25,25S178.785,190,165,190z M245,190c-13.785,0-25-11.215-25-25s11.215-25,25-25 c13.785,0,25,11.215,25,25S258.785,190,245,190z"></path></a></g></svg></svg></svg>