<svg version="1.1" xmlns="http://www.w3.org/2000/svg" xmlns:xlink="http://www.w3.org/1999/xlink" fill="transparent" x="0" y="0" width="350" height="350" preserveAspectRatio="xMinYMin slice"><style type="text/css">.links{fill:transparent;stroke: #E4CF37;}.links:hover{fill:#63D272; opacity:0.4;}</style><defs><g id="allt"><path id="t2816" d="M2871,672 L2861,674 C2851,676 2863,668 2853,666 C2844,665 2859,672 2848,672 L2838,672 2838,672 L2838,681 C2838,690 2833,679 2832,686 C2832,694 2838,682 2838,693 L2838,704 2838,704 L2847,704 C2856,704 2845,699 2853,698 C2861,698 2849,704 2860,704 L2871,704 2871,704 L2871,693 C2872,683 2867,696 2866,687 C2866,678 2873,691 2872,681 L2871,672"/></g><clipPath id="c" clipRule="evenodd" fill="transparent"><use href="#t2816"/></clipPath></defs><svg viewBox="2831 664 43 41" preserveAspectRatio="xMinYMin meet"><svg width="4380" height="2430"><g><image crossorigin="anonymous" x="0" y="0" href="https://nftpuzzle.license-token.com/assets/completepuzzle.svg" width="100%" height="100%" /><g class="links"><use href="#t2816"/></g></g></svg><svg x="2859" y="690" height="9%" width="9%" viewBox="0 0 330 330"><g><a xlink:href="https://nftpuzzle.license-token.com/" class="links"><title>See the most innovative NFT based token software licensing project</title><path fill="#E4CF37" id="more" d="M165,0C74.019,0,0,74.019,0,165s74.019,165,165,165s165-74.019,165-165S255.981,0,165,0z M85,190 c-13.785,0-25-11.215-25-25s11.215-25,25-25s25,11.215,25,25S98.785,190,85,190z M165,190c-13.785,0-25-11.215-25-25 s11.215-25,25-25s25,11.215,25,25S178.785,190,165,190z M245,190c-13.785,0-25-11.215-25-25s11.215-25,25-25 c13.785,0,25,11.215,25,25S258.785,190,245,190z"></path></a></g></svg></svg></svg>