<svg version="1.1" xmlns="http://www.w3.org/2000/svg" xmlns:xlink="http://www.w3.org/1999/xlink" fill="transparent" x="0" y="0" width="350" height="350" preserveAspectRatio="xMinYMin slice"><style type="text/css">.links{fill:transparent;stroke: #E4CF37;}.links:hover{fill:#63D272; opacity:0.4;}</style><defs><g id="allt"><path id="t2821" d="M3036,672 L3025,672 C3015,673 3026,668 3018,667 C3010,667 3021,672 3012,672 L3003,672 3003,672 L3005,681 C3008,690 2994,680 2993,688 C2992,696 3006,682 3004,693 L3003,704 3003,704 L3012,706 C3022,709 3011,695 3019,694 C3028,693 3014,707 3025,705 L3036,704 3036,704 L3036,695 C3036,686 3040,695 3039,688 C3039,681 3035,690 3035,681 L3036,672"/></g><clipPath id="c" clipRule="evenodd" fill="transparent"><use href="#t2821"/></clipPath></defs><svg viewBox="2991 666 50 44" preserveAspectRatio="xMinYMin meet"><svg width="4380" height="2430"><g><image crossorigin="anonymous" x="0" y="0" href="https://nftpuzzle.license-token.com/assets/completepuzzle.svg" width="100%" height="100%" /><g class="links"><use href="#t2821"/></g></g></svg><svg x="3026" y="695" height="9%" width="9%" viewBox="0 0 330 330"><g><a xlink:href="https://nftpuzzle.license-token.com/" class="links"><title>See the most innovative NFT based token software licensing project</title><path fill="#E4CF37" id="more" d="M165,0C74.019,0,0,74.019,0,165s74.019,165,165,165s165-74.019,165-165S255.981,0,165,0z M85,190 c-13.785,0-25-11.215-25-25s11.215-25,25-25s25,11.215,25,25S98.785,190,85,190z M165,190c-13.785,0-25-11.215-25-25 s11.215-25,25-25s25,11.215,25,25S178.785,190,165,190z M245,190c-13.785,0-25-11.215-25-25s11.215-25,25-25 c13.785,0,25,11.215,25,25S258.785,190,245,190z"></path></a></g></svg></svg></svg>