<svg version="1.1" xmlns="http://www.w3.org/2000/svg" xmlns:xlink="http://www.w3.org/1999/xlink" fill="transparent" x="0" y="0" width="350" height="350" preserveAspectRatio="xMinYMin slice"><style type="text/css">.links{fill:transparent;stroke: #E4CF37;}.links:hover{fill:#63D272; opacity:0.4;}</style><defs><g id="allt"><path id="t2823" d="M3102,672 L3092,673 C3082,674 3095,668 3086,667 C3077,666 3087,672 3078,672 L3069,672 3069,672 L3069,681 C3069,690 3060,680 3061,688 C3062,696 3069,685 3069,694 L3069,704 3069,704 L3078,704 C3087,704 3077,695 3085,696 C3093,697 3082,704 3092,704 L3102,704 3102,704 L3101,695 C3101,686 3106,695 3107,686 C3108,678 3100,693 3101,682 L3102,672"/></g><clipPath id="c" clipRule="evenodd" fill="transparent"><use href="#t2823"/></clipPath></defs><svg viewBox="3059 665 50 40" preserveAspectRatio="xMinYMin meet"><svg width="4380" height="2430"><g><image crossorigin="anonymous" x="0" y="0" href="https://nftpuzzle.license-token.com/assets/completepuzzle.svg" width="100%" height="100%" /><g class="links"><use href="#t2823"/></g></g></svg><svg x="3094" y="690" height="9%" width="9%" viewBox="0 0 330 330"><g><a xlink:href="https://nftpuzzle.license-token.com/" class="links"><title>See the most innovative NFT based token software licensing project</title><path fill="#E4CF37" id="more" d="M165,0C74.019,0,0,74.019,0,165s74.019,165,165,165s165-74.019,165-165S255.981,0,165,0z M85,190 c-13.785,0-25-11.215-25-25s11.215-25,25-25s25,11.215,25,25S98.785,190,85,190z M165,190c-13.785,0-25-11.215-25-25 s11.215-25,25-25s25,11.215,25,25S178.785,190,165,190z M245,190c-13.785,0-25-11.215-25-25s11.215-25,25-25 c13.785,0,25,11.215,25,25S258.785,190,245,190z"></path></a></g></svg></svg></svg>