<svg version="1.1" xmlns="http://www.w3.org/2000/svg" xmlns:xlink="http://www.w3.org/1999/xlink" fill="transparent" x="0" y="0" width="350" height="350" preserveAspectRatio="xMinYMin slice"><style type="text/css">.links{fill:transparent;stroke: #E4CF37;}.links:hover{fill:#63D272; opacity:0.4;}</style><defs><g id="allt"><path id="t2824" d="M3135,672 L3125,672 C3115,672 3127,667 3118,667 C3109,667 3122,677 3112,674 L3102,672 3102,672 L3101,682 C3100,693 3108,678 3107,686 C3106,695 3101,686 3101,695 L3102,704 3102,704 L3112,703 C3123,702 3108,710 3117,709 C3126,708 3116,703 3125,703 L3135,704 3135,704 L3135,694 C3135,685 3145,695 3142,686 C3140,677 3133,693 3134,682 L3135,672"/></g><clipPath id="c" clipRule="evenodd" fill="transparent"><use href="#t2824"/></clipPath></defs><svg viewBox="3099 666 47 45" preserveAspectRatio="xMinYMin meet"><svg width="4380" height="2430"><g><image crossorigin="anonymous" x="0" y="0" href="https://nftpuzzle.license-token.com/assets/completepuzzle.svg" width="100%" height="100%" /><g class="links"><use href="#t2824"/></g></g></svg><svg x="3131" y="696" height="9%" width="9%" viewBox="0 0 330 330"><g><a xlink:href="https://nftpuzzle.license-token.com/" class="links"><title>See the most innovative NFT based token software licensing project</title><path fill="#E4CF37" id="more" d="M165,0C74.019,0,0,74.019,0,165s74.019,165,165,165s165-74.019,165-165S255.981,0,165,0z M85,190 c-13.785,0-25-11.215-25-25s11.215-25,25-25s25,11.215,25,25S98.785,190,85,190z M165,190c-13.785,0-25-11.215-25-25 s11.215-25,25-25s25,11.215,25,25S178.785,190,165,190z M245,190c-13.785,0-25-11.215-25-25s11.215-25,25-25 c13.785,0,25,11.215,25,25S258.785,190,245,190z"></path></a></g></svg></svg></svg>