<svg version="1.1" xmlns="http://www.w3.org/2000/svg" xmlns:xlink="http://www.w3.org/1999/xlink" fill="transparent" x="0" y="0" width="350" height="350" preserveAspectRatio="xMinYMin slice"><style type="text/css">.links{fill:transparent;stroke: #E4CF37;}.links:hover{fill:#63D272; opacity:0.4;}</style><defs><g id="allt"><path id="t2825" d="M3168,672 L3157,672 C3146,672 3162,669 3150,668 C3139,667 3156,673 3145,672 L3135,672 3135,672 L3134,682 C3133,693 3140,677 3142,686 C3145,695 3135,685 3135,694 L3135,704 3135,704 L3145,703 C3156,702 3140,709 3149,711 C3158,713 3148,704 3158,704 L3168,704 3168,704 L3167,693 C3167,683 3173,695 3174,686 C3176,678 3167,690 3167,681 L3168,672"/></g><clipPath id="c" clipRule="evenodd" fill="transparent"><use href="#t2825"/></clipPath></defs><svg viewBox="3132 666 45 48" preserveAspectRatio="xMinYMin meet"><svg width="4380" height="2430"><g><image crossorigin="anonymous" x="0" y="0" href="https://nftpuzzle.license-token.com/assets/completepuzzle.svg" width="100%" height="100%" /><g class="links"><use href="#t2825"/></g></g></svg><svg x="3162" y="699" height="9%" width="9%" viewBox="0 0 330 330"><g><a xlink:href="https://nftpuzzle.license-token.com/" class="links"><title>See the most innovative NFT based token software licensing project</title><path fill="#E4CF37" id="more" d="M165,0C74.019,0,0,74.019,0,165s74.019,165,165,165s165-74.019,165-165S255.981,0,165,0z M85,190 c-13.785,0-25-11.215-25-25s11.215-25,25-25s25,11.215,25,25S98.785,190,85,190z M165,190c-13.785,0-25-11.215-25-25 s11.215-25,25-25s25,11.215,25,25S178.785,190,165,190z M245,190c-13.785,0-25-11.215-25-25s11.215-25,25-25 c13.785,0,25,11.215,25,25S258.785,190,245,190z"></path></a></g></svg></svg></svg>