<svg version="1.1" xmlns="http://www.w3.org/2000/svg" xmlns:xlink="http://www.w3.org/1999/xlink" fill="transparent" x="0" y="0" width="350" height="350" preserveAspectRatio="xMinYMin slice"><style type="text/css">.links{fill:transparent;stroke: #E4CF37;}.links:hover{fill:#63D272; opacity:0.4;}</style><defs><g id="allt"><path id="t2832" d="M3399,672 L3388,672 C3377,673 3390,668 3382,667 C3374,667 3384,675 3375,673 L3366,672 3366,672 L3366,682 C3366,692 3358,679 3359,688 C3361,697 3368,686 3367,695 L3366,704 3366,704 L3376,704 C3387,704 3373,696 3382,697 C3392,699 3380,706 3389,705 L3399,704 3399,704 L3397,695 C3396,686 3404,696 3405,688 C3406,681 3399,693 3399,682 L3399,672"/></g><clipPath id="c" clipRule="evenodd" fill="transparent"><use href="#t2832"/></clipPath></defs><svg viewBox="3357 666 50 41" preserveAspectRatio="xMinYMin meet"><svg width="4380" height="2430"><g><image crossorigin="anonymous" x="0" y="0" href="https://nftpuzzle.license-token.com/assets/completepuzzle.svg" width="100%" height="100%" /><g class="links"><use href="#t2832"/></g></g></svg><svg x="3392" y="692" height="9%" width="9%" viewBox="0 0 330 330"><g><a xlink:href="https://nftpuzzle.license-token.com/" class="links"><title>See the most innovative NFT based token software licensing project</title><path fill="#E4CF37" id="more" d="M165,0C74.019,0,0,74.019,0,165s74.019,165,165,165s165-74.019,165-165S255.981,0,165,0z M85,190 c-13.785,0-25-11.215-25-25s11.215-25,25-25s25,11.215,25,25S98.785,190,85,190z M165,190c-13.785,0-25-11.215-25-25 s11.215-25,25-25s25,11.215,25,25S178.785,190,165,190z M245,190c-13.785,0-25-11.215-25-25s11.215-25,25-25 c13.785,0,25,11.215,25,25S258.785,190,245,190z"></path></a></g></svg></svg></svg>