<svg version="1.1" xmlns="http://www.w3.org/2000/svg" xmlns:xlink="http://www.w3.org/1999/xlink" fill="transparent" x="0" y="0" width="350" height="350" preserveAspectRatio="xMinYMin slice"><style type="text/css">.links{fill:transparent;stroke: #E4CF37;}.links:hover{fill:#63D272; opacity:0.4;}</style><defs><g id="allt"><path id="t2836" d="M3531,672 L3521,672 C3512,672 3524,678 3513,678 C3502,679 3518,669 3508,670 L3498,672 3498,672 L3498,680 C3498,689 3492,681 3490,688 C3488,695 3500,685 3499,694 L3498,704 3498,704 L3507,704 C3516,704 3507,698 3514,696 C3521,694 3511,706 3521,705 L3531,704 3531,704 L3531,694 C3531,684 3537,698 3537,688 C3537,679 3528,691 3529,681 L3531,672"/></g><clipPath id="c" clipRule="evenodd" fill="transparent"><use href="#t2836"/></clipPath></defs><svg viewBox="3487 668 51 39" preserveAspectRatio="xMinYMin meet"><svg width="4380" height="2430"><g><image crossorigin="anonymous" x="0" y="0" href="https://nftpuzzle.license-token.com/assets/completepuzzle.svg" width="100%" height="100%" /><g class="links"><use href="#t2836"/></g></g></svg><svg x="3523" y="692" height="9%" width="9%" viewBox="0 0 330 330"><g><a xlink:href="https://nftpuzzle.license-token.com/" class="links"><title>See the most innovative NFT based token software licensing project</title><path fill="#E4CF37" id="more" d="M165,0C74.019,0,0,74.019,0,165s74.019,165,165,165s165-74.019,165-165S255.981,0,165,0z M85,190 c-13.785,0-25-11.215-25-25s11.215-25,25-25s25,11.215,25,25S98.785,190,85,190z M165,190c-13.785,0-25-11.215-25-25 s11.215-25,25-25s25,11.215,25,25S178.785,190,165,190z M245,190c-13.785,0-25-11.215-25-25s11.215-25,25-25 c13.785,0,25,11.215,25,25S258.785,190,245,190z"></path></a></g></svg></svg></svg>