<svg version="1.1" xmlns="http://www.w3.org/2000/svg" xmlns:xlink="http://www.w3.org/1999/xlink" fill="transparent" x="0" y="0" width="350" height="350" preserveAspectRatio="xMinYMin slice"><style type="text/css">.links{fill:transparent;stroke: #E4CF37;}.links:hover{fill:#63D272; opacity:0.4;}</style><defs><g id="allt"><path id="t2849" d="M3960,672 L3950,670 C3940,669 3950,680 3941,682 C3932,684 3947,670 3937,671 L3927,672 3927,672 L3928,680 C3930,689 3920,678 3919,686 C3919,694 3927,682 3927,693 L3927,704 3927,704 L3936,705 C3945,707 3933,697 3941,696 C3950,696 3938,704 3949,704 L3960,704 3960,704 L3961,694 C3962,684 3954,698 3954,688 C3954,678 3963,693 3961,682 L3960,672"/></g><clipPath id="c" clipRule="evenodd" fill="transparent"><use href="#t2849"/></clipPath></defs><svg viewBox="3918 668 46 40" preserveAspectRatio="xMinYMin meet"><svg width="4380" height="2430"><g><image crossorigin="anonymous" x="0" y="0" href="https://nftpuzzle.license-token.com/assets/completepuzzle.svg" width="100%" height="100%" /><g class="links"><use href="#t2849"/></g></g></svg><svg x="3949" y="693" height="9%" width="9%" viewBox="0 0 330 330"><g><a xlink:href="https://nftpuzzle.license-token.com/" class="links"><title>See the most innovative NFT based token software licensing project</title><path fill="#E4CF37" id="more" d="M165,0C74.019,0,0,74.019,0,165s74.019,165,165,165s165-74.019,165-165S255.981,0,165,0z M85,190 c-13.785,0-25-11.215-25-25s11.215-25,25-25s25,11.215,25,25S98.785,190,85,190z M165,190c-13.785,0-25-11.215-25-25 s11.215-25,25-25s25,11.215,25,25S178.785,190,165,190z M245,190c-13.785,0-25-11.215-25-25s11.215-25,25-25 c13.785,0,25,11.215,25,25S258.785,190,245,190z"></path></a></g></svg></svg></svg>