<svg version="1.1" xmlns="http://www.w3.org/2000/svg" xmlns:xlink="http://www.w3.org/1999/xlink" fill="transparent" x="0" y="0" width="350" height="350" preserveAspectRatio="xMinYMin slice"><style type="text/css">.links{fill:transparent;stroke: #E4CF37;}.links:hover{fill:#63D272; opacity:0.4;}</style><defs><g id="allt"><path id="t2858" d="M4257,672 L4247,672 C4237,672 4247,668 4238,665 C4229,663 4245,672 4234,672 L4224,672 4224,672 L4224,681 C4224,691 4218,677 4217,686 C4217,696 4226,683 4225,693 L4224,704 4224,704 L4234,704 C4244,704 4229,698 4239,697 C4249,697 4235,706 4246,705 L4257,704 4257,704 L4256,694 C4255,685 4265,698 4266,687 C4267,677 4257,693 4257,682 L4257,672"/></g><clipPath id="c" clipRule="evenodd" fill="transparent"><use href="#t2858"/></clipPath></defs><svg viewBox="4216 662 52 45" preserveAspectRatio="xMinYMin meet"><svg width="4380" height="2430"><g><image crossorigin="anonymous" x="0" y="0" href="https://nftpuzzle.license-token.com/assets/completepuzzle.svg" width="100%" height="100%" /><g class="links"><use href="#t2858"/></g></g></svg><svg x="4253" y="692" height="9%" width="9%" viewBox="0 0 330 330"><g><a xlink:href="https://nftpuzzle.license-token.com/" class="links"><title>See the most innovative NFT based token software licensing project</title><path fill="#E4CF37" id="more" d="M165,0C74.019,0,0,74.019,0,165s74.019,165,165,165s165-74.019,165-165S255.981,0,165,0z M85,190 c-13.785,0-25-11.215-25-25s11.215-25,25-25s25,11.215,25,25S98.785,190,85,190z M165,190c-13.785,0-25-11.215-25-25 s11.215-25,25-25s25,11.215,25,25S178.785,190,165,190z M245,190c-13.785,0-25-11.215-25-25s11.215-25,25-25 c13.785,0,25,11.215,25,25S258.785,190,245,190z"></path></a></g></svg></svg></svg>