<svg version="1.1" xmlns="http://www.w3.org/2000/svg" xmlns:xlink="http://www.w3.org/1999/xlink" fill="transparent" x="0" y="0" width="350" height="350" preserveAspectRatio="xMinYMin slice"><style type="text/css">.links{fill:transparent;stroke: #E4CF37;}.links:hover{fill:#63D272; opacity:0.4;}</style><defs><g id="allt"><path id="t2899" d="M1320,704 L1310,703 C1301,702 1310,712 1300,711 C1291,711 1306,704 1296,704 L1287,704 1287,704 L1287,714 C1287,724 1282,713 1279,720 C1277,727 1291,716 1289,726 L1287,736 1287,736 L1297,736 C1308,736 1296,731 1303,728 C1311,726 1299,740 1309,738 L1320,736 1320,736 L1320,726 C1320,717 1315,726 1315,717 C1315,709 1320,722 1320,713 L1320,704"/></g><clipPath id="c" clipRule="evenodd" fill="transparent"><use href="#t2899"/></clipPath></defs><svg viewBox="1276 701 45 40" preserveAspectRatio="xMinYMin meet"><svg width="4380" height="2430"><g><image crossorigin="anonymous" x="0" y="0" href="https://nftpuzzle.license-token.com/assets/completepuzzle.svg" width="100%" height="100%" /><g class="links"><use href="#t2899"/></g></g></svg><svg x="1306" y="726" height="9%" width="9%" viewBox="0 0 330 330"><g><a xlink:href="https://nftpuzzle.license-token.com/" class="links"><title>See the most innovative NFT based token software licensing project</title><path fill="#E4CF37" id="more" d="M165,0C74.019,0,0,74.019,0,165s74.019,165,165,165s165-74.019,165-165S255.981,0,165,0z M85,190 c-13.785,0-25-11.215-25-25s11.215-25,25-25s25,11.215,25,25S98.785,190,85,190z M165,190c-13.785,0-25-11.215-25-25 s11.215-25,25-25s25,11.215,25,25S178.785,190,165,190z M245,190c-13.785,0-25-11.215-25-25s11.215-25,25-25 c13.785,0,25,11.215,25,25S258.785,190,245,190z"></path></a></g></svg></svg></svg>