<svg version="1.1" xmlns="http://www.w3.org/2000/svg" xmlns:xlink="http://www.w3.org/1999/xlink" fill="transparent" x="0" y="0" width="350" height="350" preserveAspectRatio="xMinYMin slice"><style type="text/css">.links{fill:transparent;stroke: #E4CF37;}.links:hover{fill:#63D272; opacity:0.4;}</style><defs><g id="allt"><path id="t290" d="M1023,64 L1012,64 C1001,64 1014,60 1006,59 C999,59 1008,65 999,64 L990,64 990,64 L991,72 C992,81 985,69 986,79 C987,90 991,74 990,85 L990,96 990,96 L999,97 C1008,98 995,91 1006,92 C1017,93 1001,97 1012,96 L1023,96 1023,96 L1021,85 C1020,74 1035,89 1032,80 C1030,71 1020,83 1021,73 L1023,64"/></g><clipPath id="c" clipRule="evenodd" fill="transparent"><use href="#t290"/></clipPath></defs><svg viewBox="984 58 52 41" preserveAspectRatio="xMinYMin meet"><svg width="4380" height="2430"><g><image crossorigin="anonymous" x="0" y="0" href="https://nftpuzzle.license-token.com/assets/completepuzzle.svg" width="100%" height="100%" /><g class="links"><use href="#t290"/></g></g></svg><svg x="1021" y="84" height="9%" width="9%" viewBox="0 0 330 330"><g><a xlink:href="https://nftpuzzle.license-token.com/" class="links"><title>See the most innovative NFT based token software licensing project</title><path fill="#E4CF37" id="more" d="M165,0C74.019,0,0,74.019,0,165s74.019,165,165,165s165-74.019,165-165S255.981,0,165,0z M85,190 c-13.785,0-25-11.215-25-25s11.215-25,25-25s25,11.215,25,25S98.785,190,85,190z M165,190c-13.785,0-25-11.215-25-25 s11.215-25,25-25s25,11.215,25,25S178.785,190,165,190z M245,190c-13.785,0-25-11.215-25-25s11.215-25,25-25 c13.785,0,25,11.215,25,25S258.785,190,245,190z"></path></a></g></svg></svg></svg>