<svg version="1.1" xmlns="http://www.w3.org/2000/svg" xmlns:xlink="http://www.w3.org/1999/xlink" fill="transparent" x="0" y="0" width="350" height="350" preserveAspectRatio="xMinYMin slice"><style type="text/css">.links{fill:transparent;stroke: #E4CF37;}.links:hover{fill:#63D272; opacity:0.4;}</style><defs><g id="allt"><path id="t2901" d="M1386,704 L1376,703 C1366,703 1380,708 1369,707 C1358,707 1371,703 1362,703 L1353,704 1353,704 L1354,713 C1356,722 1341,710 1343,719 C1345,728 1354,715 1353,725 L1353,736 1353,736 L1362,737 C1371,739 1359,725 1368,726 C1378,728 1364,737 1375,736 L1386,736 1386,736 L1386,725 C1386,715 1380,728 1380,718 C1381,709 1386,725 1386,714 L1386,704"/></g><clipPath id="c" clipRule="evenodd" fill="transparent"><use href="#t2901"/></clipPath></defs><svg viewBox="1340 702 47 38" preserveAspectRatio="xMinYMin meet"><svg width="4380" height="2430"><g><image crossorigin="anonymous" x="0" y="0" href="https://nftpuzzle.license-token.com/assets/completepuzzle.svg" width="100%" height="100%" /><g class="links"><use href="#t2901"/></g></g></svg><svg x="1372" y="725" height="9%" width="9%" viewBox="0 0 330 330"><g><a xlink:href="https://nftpuzzle.license-token.com/" class="links"><title>See the most innovative NFT based token software licensing project</title><path fill="#E4CF37" id="more" d="M165,0C74.019,0,0,74.019,0,165s74.019,165,165,165s165-74.019,165-165S255.981,0,165,0z M85,190 c-13.785,0-25-11.215-25-25s11.215-25,25-25s25,11.215,25,25S98.785,190,85,190z M165,190c-13.785,0-25-11.215-25-25 s11.215-25,25-25s25,11.215,25,25S178.785,190,165,190z M245,190c-13.785,0-25-11.215-25-25s11.215-25,25-25 c13.785,0,25,11.215,25,25S258.785,190,245,190z"></path></a></g></svg></svg></svg>