<svg version="1.1" xmlns="http://www.w3.org/2000/svg" xmlns:xlink="http://www.w3.org/1999/xlink" fill="transparent" x="0" y="0" width="350" height="350" preserveAspectRatio="xMinYMin slice"><style type="text/css">.links{fill:transparent;stroke: #E4CF37;}.links:hover{fill:#63D272; opacity:0.4;}</style><defs><g id="allt"><path id="t2903" d="M1452,704 L1441,705 C1431,706 1446,700 1436,700 C1426,701 1438,704 1428,704 L1419,704 1419,704 L1420,713 C1422,723 1408,712 1409,721 C1410,730 1419,717 1419,726 L1419,736 1419,736 L1428,737 C1438,739 1427,725 1436,726 C1446,728 1432,736 1442,736 L1452,736 1452,736 L1451,725 C1450,715 1456,728 1456,718 C1457,709 1449,724 1450,714 L1452,704"/></g><clipPath id="c" clipRule="evenodd" fill="transparent"><use href="#t2903"/></clipPath></defs><svg viewBox="1407 699 51 41" preserveAspectRatio="xMinYMin meet"><svg width="4380" height="2430"><g><image crossorigin="anonymous" x="0" y="0" href="https://nftpuzzle.license-token.com/assets/completepuzzle.svg" width="100%" height="100%" /><g class="links"><use href="#t2903"/></g></g></svg><svg x="1443" y="725" height="9%" width="9%" viewBox="0 0 330 330"><g><a xlink:href="https://nftpuzzle.license-token.com/" class="links"><title>See the most innovative NFT based token software licensing project</title><path fill="#E4CF37" id="more" d="M165,0C74.019,0,0,74.019,0,165s74.019,165,165,165s165-74.019,165-165S255.981,0,165,0z M85,190 c-13.785,0-25-11.215-25-25s11.215-25,25-25s25,11.215,25,25S98.785,190,85,190z M165,190c-13.785,0-25-11.215-25-25 s11.215-25,25-25s25,11.215,25,25S178.785,190,165,190z M245,190c-13.785,0-25-11.215-25-25s11.215-25,25-25 c13.785,0,25,11.215,25,25S258.785,190,245,190z"></path></a></g></svg></svg></svg>