<svg version="1.1" xmlns="http://www.w3.org/2000/svg" xmlns:xlink="http://www.w3.org/1999/xlink" fill="transparent" x="0" y="0" width="350" height="350" preserveAspectRatio="xMinYMin slice"><style type="text/css">.links{fill:transparent;stroke: #E4CF37;}.links:hover{fill:#63D272; opacity:0.4;}</style><defs><g id="allt"><path id="t2904" d="M1485,704 L1474,704 C1463,705 1479,698 1469,699 C1460,700 1471,704 1461,704 L1452,704 1452,704 L1450,714 C1449,724 1457,709 1456,718 C1456,728 1450,715 1451,725 L1452,736 1452,736 L1462,734 C1473,733 1457,741 1467,740 C1477,740 1463,734 1474,735 L1485,736 1485,736 L1485,725 C1485,715 1491,729 1490,721 C1490,713 1483,724 1484,714 L1485,704"/></g><clipPath id="c" clipRule="evenodd" fill="transparent"><use href="#t2904"/></clipPath></defs><svg viewBox="1448 697 44 45" preserveAspectRatio="xMinYMin meet"><svg width="4380" height="2430"><g><image crossorigin="anonymous" x="0" y="0" href="https://nftpuzzle.license-token.com/assets/completepuzzle.svg" width="100%" height="100%" /><g class="links"><use href="#t2904"/></g></g></svg><svg x="1477" y="727" height="9%" width="9%" viewBox="0 0 330 330"><g><a xlink:href="https://nftpuzzle.license-token.com/" class="links"><title>See the most innovative NFT based token software licensing project</title><path fill="#E4CF37" id="more" d="M165,0C74.019,0,0,74.019,0,165s74.019,165,165,165s165-74.019,165-165S255.981,0,165,0z M85,190 c-13.785,0-25-11.215-25-25s11.215-25,25-25s25,11.215,25,25S98.785,190,85,190z M165,190c-13.785,0-25-11.215-25-25 s11.215-25,25-25s25,11.215,25,25S178.785,190,165,190z M245,190c-13.785,0-25-11.215-25-25s11.215-25,25-25 c13.785,0,25,11.215,25,25S258.785,190,245,190z"></path></a></g></svg></svg></svg>