<svg version="1.1" xmlns="http://www.w3.org/2000/svg" xmlns:xlink="http://www.w3.org/1999/xlink" fill="transparent" x="0" y="0" width="350" height="350" preserveAspectRatio="xMinYMin slice"><style type="text/css">.links{fill:transparent;stroke: #E4CF37;}.links:hover{fill:#63D272; opacity:0.4;}</style><defs><g id="allt"><path id="t2905" d="M1518,704 L1507,703 C1496,702 1509,710 1500,709 C1491,708 1503,704 1494,704 L1485,704 1485,704 L1484,714 C1483,724 1490,713 1490,721 C1491,729 1485,715 1485,725 L1485,736 1485,736 L1495,735 C1506,734 1494,741 1502,741 C1511,742 1496,736 1507,736 L1518,736 1518,736 L1517,727 C1517,718 1528,728 1526,718 C1525,709 1518,722 1518,713 L1518,704"/></g><clipPath id="c" clipRule="evenodd" fill="transparent"><use href="#t2905"/></clipPath></defs><svg viewBox="1482 701 47 42" preserveAspectRatio="xMinYMin meet"><svg width="4380" height="2430"><g><image crossorigin="anonymous" x="0" y="0" href="https://nftpuzzle.license-token.com/assets/completepuzzle.svg" width="100%" height="100%" /><g class="links"><use href="#t2905"/></g></g></svg><svg x="1514" y="728" height="9%" width="9%" viewBox="0 0 330 330"><g><a xlink:href="https://nftpuzzle.license-token.com/" class="links"><title>See the most innovative NFT based token software licensing project</title><path fill="#E4CF37" id="more" d="M165,0C74.019,0,0,74.019,0,165s74.019,165,165,165s165-74.019,165-165S255.981,0,165,0z M85,190 c-13.785,0-25-11.215-25-25s11.215-25,25-25s25,11.215,25,25S98.785,190,85,190z M165,190c-13.785,0-25-11.215-25-25 s11.215-25,25-25s25,11.215,25,25S178.785,190,165,190z M245,190c-13.785,0-25-11.215-25-25s11.215-25,25-25 c13.785,0,25,11.215,25,25S258.785,190,245,190z"></path></a></g></svg></svg></svg>