<svg version="1.1" xmlns="http://www.w3.org/2000/svg" xmlns:xlink="http://www.w3.org/1999/xlink" fill="transparent" x="0" y="0" width="350" height="350" preserveAspectRatio="xMinYMin slice"><style type="text/css">.links{fill:transparent;stroke: #E4CF37;}.links:hover{fill:#63D272; opacity:0.4;}</style><defs><g id="allt"><path id="t2906" d="M1551,704 L1540,702 C1529,700 1543,711 1534,711 C1525,712 1537,704 1527,704 L1518,704 1518,704 L1518,713 C1518,722 1525,709 1526,718 C1528,728 1517,718 1517,727 L1518,736 1518,736 L1527,736 C1537,736 1523,743 1532,744 C1542,746 1532,735 1541,735 L1551,736 1551,736 L1549,725 C1548,715 1561,728 1558,720 C1556,712 1547,724 1549,714 L1551,704"/></g><clipPath id="c" clipRule="evenodd" fill="transparent"><use href="#t2906"/></clipPath></defs><svg viewBox="1516 699 46 48" preserveAspectRatio="xMinYMin meet"><svg width="4380" height="2430"><g><image crossorigin="anonymous" x="0" y="0" href="https://nftpuzzle.license-token.com/assets/completepuzzle.svg" width="100%" height="100%" /><g class="links"><use href="#t2906"/></g></g></svg><svg x="1547" y="732" height="9%" width="9%" viewBox="0 0 330 330"><g><a xlink:href="https://nftpuzzle.license-token.com/" class="links"><title>See the most innovative NFT based token software licensing project</title><path fill="#E4CF37" id="more" d="M165,0C74.019,0,0,74.019,0,165s74.019,165,165,165s165-74.019,165-165S255.981,0,165,0z M85,190 c-13.785,0-25-11.215-25-25s11.215-25,25-25s25,11.215,25,25S98.785,190,85,190z M165,190c-13.785,0-25-11.215-25-25 s11.215-25,25-25s25,11.215,25,25S178.785,190,165,190z M245,190c-13.785,0-25-11.215-25-25s11.215-25,25-25 c13.785,0,25,11.215,25,25S258.785,190,245,190z"></path></a></g></svg></svg></svg>