<svg version="1.1" xmlns="http://www.w3.org/2000/svg" xmlns:xlink="http://www.w3.org/1999/xlink" fill="transparent" x="0" y="0" width="350" height="350" preserveAspectRatio="xMinYMin slice"><style type="text/css">.links{fill:transparent;stroke: #E4CF37;}.links:hover{fill:#63D272; opacity:0.4;}</style><defs><g id="allt"><path id="t2909" d="M1650,704 L1639,702 C1628,700 1641,711 1632,711 C1623,711 1638,704 1627,704 L1617,704 1617,704 L1617,713 C1617,723 1626,713 1625,720 C1624,727 1616,718 1616,727 L1617,736 1617,736 L1627,736 C1637,736 1626,744 1633,743 C1641,743 1631,735 1640,735 L1650,736 1650,736 L1650,726 C1650,717 1648,726 1648,718 C1648,711 1650,724 1650,714 L1650,704"/></g><clipPath id="c" clipRule="evenodd" fill="transparent"><use href="#t2909"/></clipPath></defs><svg viewBox="1615 699 36 46" preserveAspectRatio="xMinYMin meet"><svg width="4380" height="2430"><g><image crossorigin="anonymous" x="0" y="0" href="https://nftpuzzle.license-token.com/assets/completepuzzle.svg" width="100%" height="100%" /><g class="links"><use href="#t2909"/></g></g></svg><svg x="1636" y="730" height="9%" width="9%" viewBox="0 0 330 330"><g><a xlink:href="https://nftpuzzle.license-token.com/" class="links"><title>See the most innovative NFT based token software licensing project</title><path fill="#E4CF37" id="more" d="M165,0C74.019,0,0,74.019,0,165s74.019,165,165,165s165-74.019,165-165S255.981,0,165,0z M85,190 c-13.785,0-25-11.215-25-25s11.215-25,25-25s25,11.215,25,25S98.785,190,85,190z M165,190c-13.785,0-25-11.215-25-25 s11.215-25,25-25s25,11.215,25,25S178.785,190,165,190z M245,190c-13.785,0-25-11.215-25-25s11.215-25,25-25 c13.785,0,25,11.215,25,25S258.785,190,245,190z"></path></a></g></svg></svg></svg>