<svg version="1.1" xmlns="http://www.w3.org/2000/svg" xmlns:xlink="http://www.w3.org/1999/xlink" fill="transparent" x="0" y="0" width="350" height="350" preserveAspectRatio="xMinYMin slice"><style type="text/css">.links{fill:transparent;stroke: #E4CF37;}.links:hover{fill:#63D272; opacity:0.4;}</style><defs><g id="allt"><path id="t2910" d="M1683,704 L1672,704 C1662,704 1675,699 1665,698 C1655,698 1671,705 1660,704 L1650,704 1650,704 L1650,714 C1650,724 1648,711 1648,718 C1648,726 1650,717 1650,726 L1650,736 1650,736 L1660,736 C1671,736 1657,734 1665,734 C1673,734 1663,736 1673,736 L1683,736 1683,736 L1683,725 C1683,714 1678,728 1679,720 C1680,712 1683,723 1683,713 L1683,704"/></g><clipPath id="c" clipRule="evenodd" fill="transparent"><use href="#t2910"/></clipPath></defs><svg viewBox="1647 697 37 40" preserveAspectRatio="xMinYMin meet"><svg width="4380" height="2430"><g><image crossorigin="anonymous" x="0" y="0" href="https://nftpuzzle.license-token.com/assets/completepuzzle.svg" width="100%" height="100%" /><g class="links"><use href="#t2910"/></g></g></svg><svg x="1669" y="722" height="9%" width="9%" viewBox="0 0 330 330"><g><a xlink:href="https://nftpuzzle.license-token.com/" class="links"><title>See the most innovative NFT based token software licensing project</title><path fill="#E4CF37" id="more" d="M165,0C74.019,0,0,74.019,0,165s74.019,165,165,165s165-74.019,165-165S255.981,0,165,0z M85,190 c-13.785,0-25-11.215-25-25s11.215-25,25-25s25,11.215,25,25S98.785,190,85,190z M165,190c-13.785,0-25-11.215-25-25 s11.215-25,25-25s25,11.215,25,25S178.785,190,165,190z M245,190c-13.785,0-25-11.215-25-25s11.215-25,25-25 c13.785,0,25,11.215,25,25S258.785,190,245,190z"></path></a></g></svg></svg></svg>