<svg version="1.1" xmlns="http://www.w3.org/2000/svg" xmlns:xlink="http://www.w3.org/1999/xlink" fill="transparent" x="0" y="0" width="350" height="350" preserveAspectRatio="xMinYMin slice"><style type="text/css">.links{fill:transparent;stroke: #E4CF37;}.links:hover{fill:#63D272; opacity:0.4;}</style><defs><g id="allt"><path id="t2911" d="M1716,704 L1706,704 C1697,704 1706,707 1698,708 C1691,709 1704,704 1693,704 L1683,704 1683,704 L1683,713 C1683,723 1680,712 1679,720 C1678,728 1683,714 1683,725 L1683,736 1683,736 L1693,736 C1703,736 1691,733 1699,732 C1707,731 1694,736 1705,736 L1716,736 1716,736 L1716,727 C1716,718 1713,731 1713,721 C1713,712 1716,723 1716,713 L1716,704"/></g><clipPath id="c" clipRule="evenodd" fill="transparent"><use href="#t2911"/></clipPath></defs><svg viewBox="1677 703 40 34" preserveAspectRatio="xMinYMin meet"><svg width="4380" height="2430"><g><image crossorigin="anonymous" x="0" y="0" href="https://nftpuzzle.license-token.com/assets/completepuzzle.svg" width="100%" height="100%" /><g class="links"><use href="#t2911"/></g></g></svg><svg x="1702" y="722" height="9%" width="9%" viewBox="0 0 330 330"><g><a xlink:href="https://nftpuzzle.license-token.com/" class="links"><title>See the most innovative NFT based token software licensing project</title><path fill="#E4CF37" id="more" d="M165,0C74.019,0,0,74.019,0,165s74.019,165,165,165s165-74.019,165-165S255.981,0,165,0z M85,190 c-13.785,0-25-11.215-25-25s11.215-25,25-25s25,11.215,25,25S98.785,190,85,190z M165,190c-13.785,0-25-11.215-25-25 s11.215-25,25-25s25,11.215,25,25S178.785,190,165,190z M245,190c-13.785,0-25-11.215-25-25s11.215-25,25-25 c13.785,0,25,11.215,25,25S258.785,190,245,190z"></path></a></g></svg></svg></svg>