<svg version="1.1" xmlns="http://www.w3.org/2000/svg" xmlns:xlink="http://www.w3.org/1999/xlink" fill="transparent" x="0" y="0" width="350" height="350" preserveAspectRatio="xMinYMin slice"><style type="text/css">.links{fill:transparent;stroke: #E4CF37;}.links:hover{fill:#63D272; opacity:0.4;}</style><defs><g id="allt"><path id="t2919" d="M1980,704 L1969,704 C1958,704 1972,697 1963,697 C1955,697 1967,706 1957,705 L1947,704 1947,704 L1947,713 C1947,722 1940,713 1940,720 C1941,728 1948,715 1947,725 L1947,736 1947,736 L1956,736 C1966,736 1956,729 1964,729 C1972,730 1959,737 1969,736 L1980,736 1980,736 L1979,725 C1978,715 1985,729 1985,720 C1985,712 1978,721 1979,712 L1980,704"/></g><clipPath id="c" clipRule="evenodd" fill="transparent"><use href="#t2919"/></clipPath></defs><svg viewBox="1939 696 47 42" preserveAspectRatio="xMinYMin meet"><svg width="4380" height="2430"><g><image crossorigin="anonymous" x="0" y="0" href="https://nftpuzzle.license-token.com/assets/completepuzzle.svg" width="100%" height="100%" /><g class="links"><use href="#t2919"/></g></g></svg><svg x="1971" y="723" height="9%" width="9%" viewBox="0 0 330 330"><g><a xlink:href="https://nftpuzzle.license-token.com/" class="links"><title>See the most innovative NFT based token software licensing project</title><path fill="#E4CF37" id="more" d="M165,0C74.019,0,0,74.019,0,165s74.019,165,165,165s165-74.019,165-165S255.981,0,165,0z M85,190 c-13.785,0-25-11.215-25-25s11.215-25,25-25s25,11.215,25,25S98.785,190,85,190z M165,190c-13.785,0-25-11.215-25-25 s11.215-25,25-25s25,11.215,25,25S178.785,190,165,190z M245,190c-13.785,0-25-11.215-25-25s11.215-25,25-25 c13.785,0,25,11.215,25,25S258.785,190,245,190z"></path></a></g></svg></svg></svg>