<svg version="1.1" xmlns="http://www.w3.org/2000/svg" xmlns:xlink="http://www.w3.org/1999/xlink" fill="transparent" x="0" y="0" width="350" height="350" preserveAspectRatio="xMinYMin slice"><style type="text/css">.links{fill:transparent;stroke: #E4CF37;}.links:hover{fill:#63D272; opacity:0.4;}</style><defs><g id="allt"><path id="t2921" d="M2046,704 L2034,703 C2023,703 2040,706 2029,706 C2018,706 2032,703 2022,703 L2013,704 2013,704 L2013,712 C2014,721 2003,710 2004,720 C2005,730 2014,718 2013,727 L2013,736 2013,736 L2022,736 C2031,737 2019,727 2029,727 C2040,728 2027,737 2036,736 L2046,736 2046,736 L2047,726 C2049,716 2043,728 2043,719 C2043,711 2046,722 2046,713 L2046,704"/></g><clipPath id="c" clipRule="evenodd" fill="transparent"><use href="#t2921"/></clipPath></defs><svg viewBox="2002 702 48 36" preserveAspectRatio="xMinYMin meet"><svg width="4380" height="2430"><g><image crossorigin="anonymous" x="0" y="0" href="https://nftpuzzle.license-token.com/assets/completepuzzle.svg" width="100%" height="100%" /><g class="links"><use href="#t2921"/></g></g></svg><svg x="2035" y="723" height="9%" width="9%" viewBox="0 0 330 330"><g><a xlink:href="https://nftpuzzle.license-token.com/" class="links"><title>See the most innovative NFT based token software licensing project</title><path fill="#E4CF37" id="more" d="M165,0C74.019,0,0,74.019,0,165s74.019,165,165,165s165-74.019,165-165S255.981,0,165,0z M85,190 c-13.785,0-25-11.215-25-25s11.215-25,25-25s25,11.215,25,25S98.785,190,85,190z M165,190c-13.785,0-25-11.215-25-25 s11.215-25,25-25s25,11.215,25,25S178.785,190,165,190z M245,190c-13.785,0-25-11.215-25-25s11.215-25,25-25 c13.785,0,25,11.215,25,25S258.785,190,245,190z"></path></a></g></svg></svg></svg>