<svg version="1.1" xmlns="http://www.w3.org/2000/svg" xmlns:xlink="http://www.w3.org/1999/xlink" fill="transparent" x="0" y="0" width="350" height="350" preserveAspectRatio="xMinYMin slice"><style type="text/css">.links{fill:transparent;stroke: #E4CF37;}.links:hover{fill:#63D272; opacity:0.4;}</style><defs><g id="allt"><path id="t2924" d="M2145,704 L2134,701 C2124,698 2139,716 2129,716 C2120,716 2133,699 2122,701 L2112,704 2112,704 L2111,712 C2111,721 2119,709 2118,718 C2118,728 2111,715 2111,725 L2112,736 2112,736 L2121,735 C2130,735 2117,743 2126,742 C2136,742 2124,735 2134,735 L2145,736 2145,736 L2145,725 C2145,714 2139,729 2139,719 C2139,710 2145,723 2145,713 L2145,704"/></g><clipPath id="c" clipRule="evenodd" fill="transparent"><use href="#t2924"/></clipPath></defs><svg viewBox="2110 697 36 47" preserveAspectRatio="xMinYMin meet"><svg width="4380" height="2430"><g><image crossorigin="anonymous" x="0" y="0" href="https://nftpuzzle.license-token.com/assets/completepuzzle.svg" width="100%" height="100%" /><g class="links"><use href="#t2924"/></g></g></svg><svg x="2131" y="729" height="9%" width="9%" viewBox="0 0 330 330"><g><a xlink:href="https://nftpuzzle.license-token.com/" class="links"><title>See the most innovative NFT based token software licensing project</title><path fill="#E4CF37" id="more" d="M165,0C74.019,0,0,74.019,0,165s74.019,165,165,165s165-74.019,165-165S255.981,0,165,0z M85,190 c-13.785,0-25-11.215-25-25s11.215-25,25-25s25,11.215,25,25S98.785,190,85,190z M165,190c-13.785,0-25-11.215-25-25 s11.215-25,25-25s25,11.215,25,25S178.785,190,165,190z M245,190c-13.785,0-25-11.215-25-25s11.215-25,25-25 c13.785,0,25,11.215,25,25S258.785,190,245,190z"></path></a></g></svg></svg></svg>