<svg version="1.1" xmlns="http://www.w3.org/2000/svg" xmlns:xlink="http://www.w3.org/1999/xlink" fill="transparent" x="0" y="0" width="350" height="350" preserveAspectRatio="xMinYMin slice"><style type="text/css">.links{fill:transparent;stroke: #E4CF37;}.links:hover{fill:#63D272; opacity:0.4;}</style><defs><g id="allt"><path id="t2925" d="M2178,704 L2168,706 C2159,708 2169,695 2160,696 C2151,698 2167,706 2156,705 L2145,704 2145,704 L2145,713 C2145,723 2139,710 2139,719 C2139,729 2145,714 2145,725 L2145,736 2145,736 L2155,736 C2165,736 2151,730 2161,730 C2171,730 2155,736 2166,736 L2178,736 2178,736 L2178,726 C2178,716 2171,726 2172,718 C2174,710 2179,723 2178,713 L2178,704"/></g><clipPath id="c" clipRule="evenodd" fill="transparent"><use href="#t2925"/></clipPath></defs><svg viewBox="2138 694 42 43" preserveAspectRatio="xMinYMin meet"><svg width="4380" height="2430"><g><image crossorigin="anonymous" x="0" y="0" href="https://nftpuzzle.license-token.com/assets/completepuzzle.svg" width="100%" height="100%" /><g class="links"><use href="#t2925"/></g></g></svg><svg x="2165" y="722" height="9%" width="9%" viewBox="0 0 330 330"><g><a xlink:href="https://nftpuzzle.license-token.com/" class="links"><title>See the most innovative NFT based token software licensing project</title><path fill="#E4CF37" id="more" d="M165,0C74.019,0,0,74.019,0,165s74.019,165,165,165s165-74.019,165-165S255.981,0,165,0z M85,190 c-13.785,0-25-11.215-25-25s11.215-25,25-25s25,11.215,25,25S98.785,190,85,190z M165,190c-13.785,0-25-11.215-25-25 s11.215-25,25-25s25,11.215,25,25S178.785,190,165,190z M245,190c-13.785,0-25-11.215-25-25s11.215-25,25-25 c13.785,0,25,11.215,25,25S258.785,190,245,190z"></path></a></g></svg></svg></svg>