<svg version="1.1" xmlns="http://www.w3.org/2000/svg" xmlns:xlink="http://www.w3.org/1999/xlink" fill="transparent" x="0" y="0" width="350" height="350" preserveAspectRatio="xMinYMin slice"><style type="text/css">.links{fill:transparent;stroke: #E4CF37;}.links:hover{fill:#63D272; opacity:0.4;}</style><defs><g id="allt"><path id="t2932" d="M2409,704 L2397,704 C2386,704 2401,710 2393,709 C2385,709 2396,701 2386,702 L2376,704 2376,704 L2378,712 C2381,721 2366,711 2368,719 C2371,728 2380,716 2378,726 L2376,736 2376,736 L2385,738 C2394,741 2383,726 2392,728 C2401,731 2388,740 2398,738 L2409,736 2409,736 L2408,725 C2407,714 2418,727 2418,719 C2419,711 2406,724 2407,714 L2409,704"/></g><clipPath id="c" clipRule="evenodd" fill="transparent"><use href="#t2932"/></clipPath></defs><svg viewBox="2365 700 55 42" preserveAspectRatio="xMinYMin meet"><svg width="4380" height="2430"><g><image crossorigin="anonymous" x="0" y="0" href="https://nftpuzzle.license-token.com/assets/completepuzzle.svg" width="100%" height="100%" /><g class="links"><use href="#t2932"/></g></g></svg><svg x="2405" y="727" height="9%" width="9%" viewBox="0 0 330 330"><g><a xlink:href="https://nftpuzzle.license-token.com/" class="links"><title>See the most innovative NFT based token software licensing project</title><path fill="#E4CF37" id="more" d="M165,0C74.019,0,0,74.019,0,165s74.019,165,165,165s165-74.019,165-165S255.981,0,165,0z M85,190 c-13.785,0-25-11.215-25-25s11.215-25,25-25s25,11.215,25,25S98.785,190,85,190z M165,190c-13.785,0-25-11.215-25-25 s11.215-25,25-25s25,11.215,25,25S178.785,190,165,190z M245,190c-13.785,0-25-11.215-25-25s11.215-25,25-25 c13.785,0,25,11.215,25,25S258.785,190,245,190z"></path></a></g></svg></svg></svg>