<svg version="1.1" xmlns="http://www.w3.org/2000/svg" xmlns:xlink="http://www.w3.org/1999/xlink" fill="transparent" x="0" y="0" width="350" height="350" preserveAspectRatio="xMinYMin slice"><style type="text/css">.links{fill:transparent;stroke: #E4CF37;}.links:hover{fill:#63D272; opacity:0.4;}</style><defs><g id="allt"><path id="t2933" d="M2442,704 L2431,704 C2421,704 2434,709 2425,709 C2417,709 2427,704 2418,704 L2409,704 2409,704 L2407,714 C2406,724 2419,711 2418,719 C2418,727 2407,714 2408,725 L2409,736 2409,736 L2419,734 C2430,733 2416,746 2424,745 C2433,745 2419,734 2430,735 L2442,736 2442,736 L2442,726 C2442,717 2448,730 2448,720 C2448,710 2442,724 2442,714 L2442,704"/></g><clipPath id="c" clipRule="evenodd" fill="transparent"><use href="#t2933"/></clipPath></defs><svg viewBox="2405 703 44 44" preserveAspectRatio="xMinYMin meet"><svg width="4380" height="2430"><g><image crossorigin="anonymous" x="0" y="0" href="https://nftpuzzle.license-token.com/assets/completepuzzle.svg" width="100%" height="100%" /><g class="links"><use href="#t2933"/></g></g></svg><svg x="2434" y="732" height="9%" width="9%" viewBox="0 0 330 330"><g><a xlink:href="https://nftpuzzle.license-token.com/" class="links"><title>See the most innovative NFT based token software licensing project</title><path fill="#E4CF37" id="more" d="M165,0C74.019,0,0,74.019,0,165s74.019,165,165,165s165-74.019,165-165S255.981,0,165,0z M85,190 c-13.785,0-25-11.215-25-25s11.215-25,25-25s25,11.215,25,25S98.785,190,85,190z M165,190c-13.785,0-25-11.215-25-25 s11.215-25,25-25s25,11.215,25,25S178.785,190,165,190z M245,190c-13.785,0-25-11.215-25-25s11.215-25,25-25 c13.785,0,25,11.215,25,25S258.785,190,245,190z"></path></a></g></svg></svg></svg>