<svg version="1.1" xmlns="http://www.w3.org/2000/svg" xmlns:xlink="http://www.w3.org/1999/xlink" fill="transparent" x="0" y="0" width="350" height="350" preserveAspectRatio="xMinYMin slice"><style type="text/css">.links{fill:transparent;stroke: #E4CF37;}.links:hover{fill:#63D272; opacity:0.4;}</style><defs><g id="allt"><path id="t2936" d="M2541,704 L2531,704 C2522,704 2533,710 2525,711 C2517,712 2528,704 2518,704 L2508,704 2508,704 L2506,714 C2504,725 2513,712 2514,720 C2516,729 2503,716 2505,726 L2508,736 2508,736 L2519,734 C2530,732 2516,741 2525,742 C2534,744 2520,731 2530,733 L2541,736 2541,736 L2539,725 C2537,714 2546,731 2546,719 C2547,708 2541,725 2541,714 L2541,704"/></g><clipPath id="c" clipRule="evenodd" fill="transparent"><use href="#t2936"/></clipPath></defs><svg viewBox="2502 703 46 42" preserveAspectRatio="xMinYMin meet"><svg width="4380" height="2430"><g><image crossorigin="anonymous" x="0" y="0" href="https://nftpuzzle.license-token.com/assets/completepuzzle.svg" width="100%" height="100%" /><g class="links"><use href="#t2936"/></g></g></svg><svg x="2533" y="730" height="9%" width="9%" viewBox="0 0 330 330"><g><a xlink:href="https://nftpuzzle.license-token.com/" class="links"><title>See the most innovative NFT based token software licensing project</title><path fill="#E4CF37" id="more" d="M165,0C74.019,0,0,74.019,0,165s74.019,165,165,165s165-74.019,165-165S255.981,0,165,0z M85,190 c-13.785,0-25-11.215-25-25s11.215-25,25-25s25,11.215,25,25S98.785,190,85,190z M165,190c-13.785,0-25-11.215-25-25 s11.215-25,25-25s25,11.215,25,25S178.785,190,165,190z M245,190c-13.785,0-25-11.215-25-25s11.215-25,25-25 c13.785,0,25,11.215,25,25S258.785,190,245,190z"></path></a></g></svg></svg></svg>