<svg version="1.1" xmlns="http://www.w3.org/2000/svg" xmlns:xlink="http://www.w3.org/1999/xlink" fill="transparent" x="0" y="0" width="350" height="350" preserveAspectRatio="xMinYMin slice"><style type="text/css">.links{fill:transparent;stroke: #E4CF37;}.links:hover{fill:#63D272; opacity:0.4;}</style><defs><g id="allt"><path id="t2937" d="M2574,704 L2563,704 C2552,704 2565,702 2557,701 C2549,701 2561,704 2551,704 L2541,704 2541,704 L2541,714 C2541,725 2547,708 2546,719 C2546,731 2537,714 2539,725 L2541,736 2541,736 L2552,736 C2563,736 2545,742 2557,741 C2569,741 2551,732 2562,734 L2574,736 2574,736 L2575,726 C2576,717 2569,730 2568,721 C2568,712 2577,723 2575,713 L2574,704"/></g><clipPath id="c" clipRule="evenodd" fill="transparent"><use href="#t2937"/></clipPath></defs><svg viewBox="2536 700 42 43" preserveAspectRatio="xMinYMin meet"><svg width="4380" height="2430"><g><image crossorigin="anonymous" x="0" y="0" href="https://nftpuzzle.license-token.com/assets/completepuzzle.svg" width="100%" height="100%" /><g class="links"><use href="#t2937"/></g></g></svg><svg x="2563" y="728" height="9%" width="9%" viewBox="0 0 330 330"><g><a xlink:href="https://nftpuzzle.license-token.com/" class="links"><title>See the most innovative NFT based token software licensing project</title><path fill="#E4CF37" id="more" d="M165,0C74.019,0,0,74.019,0,165s74.019,165,165,165s165-74.019,165-165S255.981,0,165,0z M85,190 c-13.785,0-25-11.215-25-25s11.215-25,25-25s25,11.215,25,25S98.785,190,85,190z M165,190c-13.785,0-25-11.215-25-25 s11.215-25,25-25s25,11.215,25,25S178.785,190,165,190z M245,190c-13.785,0-25-11.215-25-25s11.215-25,25-25 c13.785,0,25,11.215,25,25S258.785,190,245,190z"></path></a></g></svg></svg></svg>