<svg version="1.1" xmlns="http://www.w3.org/2000/svg" xmlns:xlink="http://www.w3.org/1999/xlink" fill="transparent" x="0" y="0" width="350" height="350" preserveAspectRatio="xMinYMin slice"><style type="text/css">.links{fill:transparent;stroke: #E4CF37;}.links:hover{fill:#63D272; opacity:0.4;}</style><defs><g id="allt"><path id="t2948" d="M2937,704 L2927,704 C2917,704 2930,709 2920,708 C2911,708 2923,704 2913,704 L2904,704 2904,704 L2904,714 C2904,725 2897,712 2898,721 C2900,730 2904,716 2904,726 L2904,736 2904,736 L2915,736 C2926,736 2913,729 2922,730 C2931,732 2916,736 2926,736 L2937,736 2937,736 L2936,725 C2936,715 2948,730 2946,720 C2944,711 2934,724 2935,714 L2937,704"/></g><clipPath id="c" clipRule="evenodd" fill="transparent"><use href="#t2948"/></clipPath></defs><svg viewBox="2896 703 53 34" preserveAspectRatio="xMinYMin meet"><svg width="4380" height="2430"><g><image crossorigin="anonymous" x="0" y="0" href="https://nftpuzzle.license-token.com/assets/completepuzzle.svg" width="100%" height="100%" /><g class="links"><use href="#t2948"/></g></g></svg><svg x="2934" y="722" height="9%" width="9%" viewBox="0 0 330 330"><g><a xlink:href="https://nftpuzzle.license-token.com/" class="links"><title>See the most innovative NFT based token software licensing project</title><path fill="#E4CF37" id="more" d="M165,0C74.019,0,0,74.019,0,165s74.019,165,165,165s165-74.019,165-165S255.981,0,165,0z M85,190 c-13.785,0-25-11.215-25-25s11.215-25,25-25s25,11.215,25,25S98.785,190,85,190z M165,190c-13.785,0-25-11.215-25-25 s11.215-25,25-25s25,11.215,25,25S178.785,190,165,190z M245,190c-13.785,0-25-11.215-25-25s11.215-25,25-25 c13.785,0,25,11.215,25,25S258.785,190,245,190z"></path></a></g></svg></svg></svg>