<svg version="1.1" xmlns="http://www.w3.org/2000/svg" xmlns:xlink="http://www.w3.org/1999/xlink" fill="transparent" x="0" y="0" width="350" height="350" preserveAspectRatio="xMinYMin slice"><style type="text/css">.links{fill:transparent;stroke: #E4CF37;}.links:hover{fill:#63D272; opacity:0.4;}</style><defs><g id="allt"><path id="t2951" d="M3036,704 L3025,705 C3014,707 3028,693 3019,694 C3011,695 3022,709 3012,706 L3003,704 3003,704 L3003,712 C3003,721 2999,712 2999,720 C2999,728 3003,715 3003,725 L3003,736 3003,736 L3012,736 C3021,736 3011,732 3019,732 C3028,732 3014,736 3025,736 L3036,736 3036,736 L3036,726 C3036,716 3026,727 3027,718 C3028,710 3036,725 3036,714 L3036,704"/></g><clipPath id="c" clipRule="evenodd" fill="transparent"><use href="#t2951"/></clipPath></defs><svg viewBox="2998 692 39 45" preserveAspectRatio="xMinYMin meet"><svg width="4380" height="2430"><g><image crossorigin="anonymous" x="0" y="0" href="https://nftpuzzle.license-token.com/assets/completepuzzle.svg" width="100%" height="100%" /><g class="links"><use href="#t2951"/></g></g></svg><svg x="3022" y="722" height="9%" width="9%" viewBox="0 0 330 330"><g><a xlink:href="https://nftpuzzle.license-token.com/" class="links"><title>See the most innovative NFT based token software licensing project</title><path fill="#E4CF37" id="more" d="M165,0C74.019,0,0,74.019,0,165s74.019,165,165,165s165-74.019,165-165S255.981,0,165,0z M85,190 c-13.785,0-25-11.215-25-25s11.215-25,25-25s25,11.215,25,25S98.785,190,85,190z M165,190c-13.785,0-25-11.215-25-25 s11.215-25,25-25s25,11.215,25,25S178.785,190,165,190z M245,190c-13.785,0-25-11.215-25-25s11.215-25,25-25 c13.785,0,25,11.215,25,25S258.785,190,245,190z"></path></a></g></svg></svg></svg>