<svg version="1.1" xmlns="http://www.w3.org/2000/svg" xmlns:xlink="http://www.w3.org/1999/xlink" fill="transparent" x="0" y="0" width="350" height="350" preserveAspectRatio="xMinYMin slice"><style type="text/css">.links{fill:transparent;stroke: #E4CF37;}.links:hover{fill:#63D272; opacity:0.4;}</style><defs><g id="allt"><path id="t2954" d="M3135,704 L3125,703 C3116,703 3126,708 3117,709 C3108,710 3123,702 3112,703 L3102,704 3102,704 L3101,714 C3100,724 3105,710 3104,718 C3104,727 3101,715 3101,725 L3102,736 3102,736 L3112,735 C3122,734 3108,739 3116,738 C3125,738 3113,735 3124,735 L3135,736 3135,736 L3134,726 C3134,716 3138,728 3139,720 C3140,712 3135,724 3135,714 L3135,704"/></g><clipPath id="c" clipRule="evenodd" fill="transparent"><use href="#t2954"/></clipPath></defs><svg viewBox="3099 701 42 39" preserveAspectRatio="xMinYMin meet"><svg width="4380" height="2430"><g><image crossorigin="anonymous" x="0" y="0" href="https://nftpuzzle.license-token.com/assets/completepuzzle.svg" width="100%" height="100%" /><g class="links"><use href="#t2954"/></g></g></svg><svg x="3126" y="725" height="9%" width="9%" viewBox="0 0 330 330"><g><a xlink:href="https://nftpuzzle.license-token.com/" class="links"><title>See the most innovative NFT based token software licensing project</title><path fill="#E4CF37" id="more" d="M165,0C74.019,0,0,74.019,0,165s74.019,165,165,165s165-74.019,165-165S255.981,0,165,0z M85,190 c-13.785,0-25-11.215-25-25s11.215-25,25-25s25,11.215,25,25S98.785,190,85,190z M165,190c-13.785,0-25-11.215-25-25 s11.215-25,25-25s25,11.215,25,25S178.785,190,165,190z M245,190c-13.785,0-25-11.215-25-25s11.215-25,25-25 c13.785,0,25,11.215,25,25S258.785,190,245,190z"></path></a></g></svg></svg></svg>