<svg version="1.1" xmlns="http://www.w3.org/2000/svg" xmlns:xlink="http://www.w3.org/1999/xlink" fill="transparent" x="0" y="0" width="350" height="350" preserveAspectRatio="xMinYMin slice"><style type="text/css">.links{fill:transparent;stroke: #E4CF37;}.links:hover{fill:#63D272; opacity:0.4;}</style><defs><g id="allt"><path id="t2956" d="M3201,704 L3190,703 C3179,703 3192,709 3183,710 C3174,712 3187,703 3177,703 L3168,704 3168,704 L3168,713 C3168,723 3163,709 3160,718 C3158,727 3168,718 3168,727 L3168,736 3168,736 L3178,736 C3188,736 3173,731 3182,728 C3192,726 3182,736 3191,736 L3201,736 3201,736 L3201,726 C3201,716 3194,729 3193,721 C3192,713 3201,722 3201,713 L3201,704"/></g><clipPath id="c" clipRule="evenodd" fill="transparent"><use href="#t2956"/></clipPath></defs><svg viewBox="3157 702 45 35" preserveAspectRatio="xMinYMin meet"><svg width="4380" height="2430"><g><image crossorigin="anonymous" x="0" y="0" href="https://nftpuzzle.license-token.com/assets/completepuzzle.svg" width="100%" height="100%" /><g class="links"><use href="#t2956"/></g></g></svg><svg x="3187" y="722" height="9%" width="9%" viewBox="0 0 330 330"><g><a xlink:href="https://nftpuzzle.license-token.com/" class="links"><title>See the most innovative NFT based token software licensing project</title><path fill="#E4CF37" id="more" d="M165,0C74.019,0,0,74.019,0,165s74.019,165,165,165s165-74.019,165-165S255.981,0,165,0z M85,190 c-13.785,0-25-11.215-25-25s11.215-25,25-25s25,11.215,25,25S98.785,190,85,190z M165,190c-13.785,0-25-11.215-25-25 s11.215-25,25-25s25,11.215,25,25S178.785,190,165,190z M245,190c-13.785,0-25-11.215-25-25s11.215-25,25-25 c13.785,0,25,11.215,25,25S258.785,190,245,190z"></path></a></g></svg></svg></svg>