<svg version="1.1" xmlns="http://www.w3.org/2000/svg" xmlns:xlink="http://www.w3.org/1999/xlink" fill="transparent" x="0" y="0" width="350" height="350" preserveAspectRatio="xMinYMin slice"><style type="text/css">.links{fill:transparent;stroke: #E4CF37;}.links:hover{fill:#63D272; opacity:0.4;}</style><defs><g id="allt"><path id="t2963" d="M3432,704 L3422,702 C3413,701 3424,709 3416,710 C3408,711 3420,704 3409,704 L3399,704 3399,704 L3398,713 C3398,722 3404,709 3403,719 C3403,730 3399,718 3399,727 L3399,736 3399,736 L3408,735 C3418,735 3404,741 3415,740 C3426,740 3413,736 3422,736 L3432,736 3432,736 L3432,725 C3433,715 3428,728 3426,718 C3425,708 3432,724 3432,714 L3432,704"/></g><clipPath id="c" clipRule="evenodd" fill="transparent"><use href="#t2963"/></clipPath></defs><svg viewBox="3397 700 37 42" preserveAspectRatio="xMinYMin meet"><svg width="4380" height="2430"><g><image crossorigin="anonymous" x="0" y="0" href="https://nftpuzzle.license-token.com/assets/completepuzzle.svg" width="100%" height="100%" /><g class="links"><use href="#t2963"/></g></g></svg><svg x="3419" y="727" height="9%" width="9%" viewBox="0 0 330 330"><g><a xlink:href="https://nftpuzzle.license-token.com/" class="links"><title>See the most innovative NFT based token software licensing project</title><path fill="#E4CF37" id="more" d="M165,0C74.019,0,0,74.019,0,165s74.019,165,165,165s165-74.019,165-165S255.981,0,165,0z M85,190 c-13.785,0-25-11.215-25-25s11.215-25,25-25s25,11.215,25,25S98.785,190,85,190z M165,190c-13.785,0-25-11.215-25-25 s11.215-25,25-25s25,11.215,25,25S178.785,190,165,190z M245,190c-13.785,0-25-11.215-25-25s11.215-25,25-25 c13.785,0,25,11.215,25,25S258.785,190,245,190z"></path></a></g></svg></svg></svg>