<svg version="1.1" xmlns="http://www.w3.org/2000/svg" xmlns:xlink="http://www.w3.org/1999/xlink" fill="transparent" x="0" y="0" width="350" height="350" preserveAspectRatio="xMinYMin slice"><style type="text/css">.links{fill:transparent;stroke: #E4CF37;}.links:hover{fill:#63D272; opacity:0.4;}</style><defs><g id="allt"><path id="t2967" d="M3564,704 L3553,704 C3543,704 3558,710 3548,710 C3538,710 3550,701 3540,702 L3531,704 3531,704 L3531,712 C3531,721 3525,708 3525,718 C3526,728 3531,717 3531,726 L3531,736 3531,736 L3540,736 C3549,736 3535,730 3545,730 C3556,731 3544,736 3554,736 L3564,736 3564,736 L3563,725 C3562,715 3567,727 3568,718 C3569,709 3564,722 3564,713 L3564,704"/></g><clipPath id="c" clipRule="evenodd" fill="transparent"><use href="#t2967"/></clipPath></defs><svg viewBox="3524 700 46 37" preserveAspectRatio="xMinYMin meet"><svg width="4380" height="2430"><g><image crossorigin="anonymous" x="0" y="0" href="https://nftpuzzle.license-token.com/assets/completepuzzle.svg" width="100%" height="100%" /><g class="links"><use href="#t2967"/></g></g></svg><svg x="3555" y="722" height="9%" width="9%" viewBox="0 0 330 330"><g><a xlink:href="https://nftpuzzle.license-token.com/" class="links"><title>See the most innovative NFT based token software licensing project</title><path fill="#E4CF37" id="more" d="M165,0C74.019,0,0,74.019,0,165s74.019,165,165,165s165-74.019,165-165S255.981,0,165,0z M85,190 c-13.785,0-25-11.215-25-25s11.215-25,25-25s25,11.215,25,25S98.785,190,85,190z M165,190c-13.785,0-25-11.215-25-25 s11.215-25,25-25s25,11.215,25,25S178.785,190,165,190z M245,190c-13.785,0-25-11.215-25-25s11.215-25,25-25 c13.785,0,25,11.215,25,25S258.785,190,245,190z"></path></a></g></svg></svg></svg>