<svg version="1.1" xmlns="http://www.w3.org/2000/svg" xmlns:xlink="http://www.w3.org/1999/xlink" fill="transparent" x="0" y="0" width="350" height="350" preserveAspectRatio="xMinYMin slice"><style type="text/css">.links{fill:transparent;stroke: #E4CF37;}.links:hover{fill:#63D272; opacity:0.4;}</style><defs><g id="allt"><path id="t297" d="M1254,64 L1244,63 C1234,63 1245,68 1236,68 C1228,68 1243,60 1232,62 L1221,64 1221,64 L1221,73 C1221,82 1228,73 1229,82 C1231,91 1218,74 1219,85 L1221,96 1221,96 L1230,96 C1240,96 1230,103 1239,104 C1249,106 1232,93 1243,94 L1254,96 1254,96 L1254,87 C1254,78 1260,90 1261,79 C1263,69 1254,84 1254,74 L1254,64"/></g><clipPath id="c" clipRule="evenodd" fill="transparent"><use href="#t297"/></clipPath></defs><svg viewBox="1217 59 47 48" preserveAspectRatio="xMinYMin meet"><svg width="4380" height="2430"><g><image crossorigin="anonymous" x="0" y="0" href="https://nftpuzzle.license-token.com/assets/completepuzzle.svg" width="100%" height="100%" /><g class="links"><use href="#t297"/></g></g></svg><svg x="1249" y="92" height="9%" width="9%" viewBox="0 0 330 330"><g><a xlink:href="https://nftpuzzle.license-token.com/" class="links"><title>See the most innovative NFT based token software licensing project</title><path fill="#E4CF37" id="more" d="M165,0C74.019,0,0,74.019,0,165s74.019,165,165,165s165-74.019,165-165S255.981,0,165,0z M85,190 c-13.785,0-25-11.215-25-25s11.215-25,25-25s25,11.215,25,25S98.785,190,85,190z M165,190c-13.785,0-25-11.215-25-25 s11.215-25,25-25s25,11.215,25,25S178.785,190,165,190z M245,190c-13.785,0-25-11.215-25-25s11.215-25,25-25 c13.785,0,25,11.215,25,25S258.785,190,245,190z"></path></a></g></svg></svg></svg>