<svg version="1.1" xmlns="http://www.w3.org/2000/svg" xmlns:xlink="http://www.w3.org/1999/xlink" fill="transparent" x="0" y="0" width="350" height="350" preserveAspectRatio="xMinYMin slice"><style type="text/css">.links{fill:transparent;stroke: #E4CF37;}.links:hover{fill:#63D272; opacity:0.4;}</style><defs><g id="allt"><path id="t2970" d="M3663,704 L3652,704 C3641,704 3657,699 3645,700 C3634,701 3649,706 3639,705 L3630,704 3630,704 L3630,712 C3630,721 3622,709 3623,719 C3624,729 3630,714 3630,725 L3630,736 3630,736 L3639,736 C3648,736 3635,728 3645,729 C3656,730 3641,736 3652,736 L3663,736 3663,736 L3663,726 C3663,717 3659,728 3659,720 C3660,712 3664,721 3663,712 L3663,704"/></g><clipPath id="c" clipRule="evenodd" fill="transparent"><use href="#t2970"/></clipPath></defs><svg viewBox="3621 698 44 39" preserveAspectRatio="xMinYMin meet"><svg width="4380" height="2430"><g><image crossorigin="anonymous" x="0" y="0" href="https://nftpuzzle.license-token.com/assets/completepuzzle.svg" width="100%" height="100%" /><g class="links"><use href="#t2970"/></g></g></svg><svg x="3650" y="722" height="9%" width="9%" viewBox="0 0 330 330"><g><a xlink:href="https://nftpuzzle.license-token.com/" class="links"><title>See the most innovative NFT based token software licensing project</title><path fill="#E4CF37" id="more" d="M165,0C74.019,0,0,74.019,0,165s74.019,165,165,165s165-74.019,165-165S255.981,0,165,0z M85,190 c-13.785,0-25-11.215-25-25s11.215-25,25-25s25,11.215,25,25S98.785,190,85,190z M165,190c-13.785,0-25-11.215-25-25 s11.215-25,25-25s25,11.215,25,25S178.785,190,165,190z M245,190c-13.785,0-25-11.215-25-25s11.215-25,25-25 c13.785,0,25,11.215,25,25S258.785,190,245,190z"></path></a></g></svg></svg></svg>