<svg version="1.1" xmlns="http://www.w3.org/2000/svg" xmlns:xlink="http://www.w3.org/1999/xlink" fill="transparent" x="0" y="0" width="350" height="350" preserveAspectRatio="xMinYMin slice"><style type="text/css">.links{fill:transparent;stroke: #E4CF37;}.links:hover{fill:#63D272; opacity:0.4;}</style><defs><g id="allt"><path id="t2976" d="M3861,704 L3850,705 C3839,706 3851,698 3842,698 C3833,698 3847,705 3837,704 L3828,704 3828,704 L3829,714 C3831,724 3825,709 3824,719 C3824,729 3828,715 3828,725 L3828,736 3828,736 L3838,737 C3849,739 3833,733 3843,732 C3854,732 3840,736 3850,736 L3861,736 3861,736 L3861,726 C3861,717 3866,726 3866,717 C3866,709 3860,724 3860,714 L3861,704"/></g><clipPath id="c" clipRule="evenodd" fill="transparent"><use href="#t2976"/></clipPath></defs><svg viewBox="3823 697 44 43" preserveAspectRatio="xMinYMin meet"><svg width="4380" height="2430"><g><image crossorigin="anonymous" x="0" y="0" href="https://nftpuzzle.license-token.com/assets/completepuzzle.svg" width="100%" height="100%" /><g class="links"><use href="#t2976"/></g></g></svg><svg x="3852" y="725" height="9%" width="9%" viewBox="0 0 330 330"><g><a xlink:href="https://nftpuzzle.license-token.com/" class="links"><title>See the most innovative NFT based token software licensing project</title><path fill="#E4CF37" id="more" d="M165,0C74.019,0,0,74.019,0,165s74.019,165,165,165s165-74.019,165-165S255.981,0,165,0z M85,190 c-13.785,0-25-11.215-25-25s11.215-25,25-25s25,11.215,25,25S98.785,190,85,190z M165,190c-13.785,0-25-11.215-25-25 s11.215-25,25-25s25,11.215,25,25S178.785,190,165,190z M245,190c-13.785,0-25-11.215-25-25s11.215-25,25-25 c13.785,0,25,11.215,25,25S258.785,190,245,190z"></path></a></g></svg></svg></svg>