<svg version="1.1" xmlns="http://www.w3.org/2000/svg" xmlns:xlink="http://www.w3.org/1999/xlink" fill="transparent" x="0" y="0" width="350" height="350" preserveAspectRatio="xMinYMin slice"><style type="text/css">.links{fill:transparent;stroke: #E4CF37;}.links:hover{fill:#63D272; opacity:0.4;}</style><defs><g id="allt"><path id="t2977" d="M3894,704 L3883,704 C3872,704 3885,711 3876,711 C3867,711 3879,702 3870,703 L3861,704 3861,704 L3860,714 C3860,724 3866,709 3866,717 C3866,726 3861,717 3861,726 L3861,736 3861,736 L3871,735 C3882,735 3866,741 3875,741 C3884,741 3875,736 3884,736 L3894,736 3894,736 L3894,726 C3894,716 3900,728 3899,719 C3898,711 3893,724 3893,714 L3894,704"/></g><clipPath id="c" clipRule="evenodd" fill="transparent"><use href="#t2977"/></clipPath></defs><svg viewBox="3859 701 42 41" preserveAspectRatio="xMinYMin meet"><svg width="4380" height="2430"><g><image crossorigin="anonymous" x="0" y="0" href="https://nftpuzzle.license-token.com/assets/completepuzzle.svg" width="100%" height="100%" /><g class="links"><use href="#t2977"/></g></g></svg><svg x="3886" y="727" height="9%" width="9%" viewBox="0 0 330 330"><g><a xlink:href="https://nftpuzzle.license-token.com/" class="links"><title>See the most innovative NFT based token software licensing project</title><path fill="#E4CF37" id="more" d="M165,0C74.019,0,0,74.019,0,165s74.019,165,165,165s165-74.019,165-165S255.981,0,165,0z M85,190 c-13.785,0-25-11.215-25-25s11.215-25,25-25s25,11.215,25,25S98.785,190,85,190z M165,190c-13.785,0-25-11.215-25-25 s11.215-25,25-25s25,11.215,25,25S178.785,190,165,190z M245,190c-13.785,0-25-11.215-25-25s11.215-25,25-25 c13.785,0,25,11.215,25,25S258.785,190,245,190z"></path></a></g></svg></svg></svg>