<svg version="1.1" xmlns="http://www.w3.org/2000/svg" xmlns:xlink="http://www.w3.org/1999/xlink" fill="transparent" x="0" y="0" width="350" height="350" preserveAspectRatio="xMinYMin slice"><style type="text/css">.links{fill:transparent;stroke: #E4CF37;}.links:hover{fill:#63D272; opacity:0.4;}</style><defs><g id="allt"><path id="t2978" d="M3927,704 L3916,704 C3906,704 3921,699 3912,700 C3903,701 3913,705 3903,704 L3894,704 3894,704 L3893,714 C3893,724 3898,711 3899,719 C3900,728 3894,716 3894,726 L3894,736 3894,736 L3904,735 C3915,735 3901,740 3910,741 C3919,742 3907,736 3917,736 L3927,736 3927,736 L3927,725 C3927,715 3936,729 3934,719 C3933,709 3927,722 3927,713 L3927,704"/></g><clipPath id="c" clipRule="evenodd" fill="transparent"><use href="#t2978"/></clipPath></defs><svg viewBox="3892 698 45 45" preserveAspectRatio="xMinYMin meet"><svg width="4380" height="2430"><g><image crossorigin="anonymous" x="0" y="0" href="https://nftpuzzle.license-token.com/assets/completepuzzle.svg" width="100%" height="100%" /><g class="links"><use href="#t2978"/></g></g></svg><svg x="3922" y="728" height="9%" width="9%" viewBox="0 0 330 330"><g><a xlink:href="https://nftpuzzle.license-token.com/" class="links"><title>See the most innovative NFT based token software licensing project</title><path fill="#E4CF37" id="more" d="M165,0C74.019,0,0,74.019,0,165s74.019,165,165,165s165-74.019,165-165S255.981,0,165,0z M85,190 c-13.785,0-25-11.215-25-25s11.215-25,25-25s25,11.215,25,25S98.785,190,85,190z M165,190c-13.785,0-25-11.215-25-25 s11.215-25,25-25s25,11.215,25,25S178.785,190,165,190z M245,190c-13.785,0-25-11.215-25-25s11.215-25,25-25 c13.785,0,25,11.215,25,25S258.785,190,245,190z"></path></a></g></svg></svg></svg>