<svg version="1.1" xmlns="http://www.w3.org/2000/svg" xmlns:xlink="http://www.w3.org/1999/xlink" fill="transparent" x="0" y="0" width="350" height="350" preserveAspectRatio="xMinYMin slice"><style type="text/css">.links{fill:transparent;stroke: #E4CF37;}.links:hover{fill:#63D272; opacity:0.4;}</style><defs><g id="allt"><path id="t298" d="M1287,64 L1275,64 C1264,64 1279,58 1271,58 C1263,58 1274,66 1264,65 L1254,64 1254,64 L1254,74 C1254,84 1263,69 1261,79 C1260,90 1254,78 1254,87 L1254,96 1254,96 L1264,96 C1275,96 1259,105 1270,103 C1281,102 1268,96 1277,96 L1287,96 1287,96 L1286,86 C1285,77 1294,86 1294,78 C1294,71 1285,83 1286,73 L1287,64"/></g><clipPath id="c" clipRule="evenodd" fill="transparent"><use href="#t298"/></clipPath></defs><svg viewBox="1253 57 42 49" preserveAspectRatio="xMinYMin meet"><svg width="4380" height="2430"><g><image crossorigin="anonymous" x="0" y="0" href="https://nftpuzzle.license-token.com/assets/completepuzzle.svg" width="100%" height="100%" /><g class="links"><use href="#t298"/></g></g></svg><svg x="1280" y="91" height="9%" width="9%" viewBox="0 0 330 330"><g><a xlink:href="https://nftpuzzle.license-token.com/" class="links"><title>See the most innovative NFT based token software licensing project</title><path fill="#E4CF37" id="more" d="M165,0C74.019,0,0,74.019,0,165s74.019,165,165,165s165-74.019,165-165S255.981,0,165,0z M85,190 c-13.785,0-25-11.215-25-25s11.215-25,25-25s25,11.215,25,25S98.785,190,85,190z M165,190c-13.785,0-25-11.215-25-25 s11.215-25,25-25s25,11.215,25,25S178.785,190,165,190z M245,190c-13.785,0-25-11.215-25-25s11.215-25,25-25 c13.785,0,25,11.215,25,25S258.785,190,245,190z"></path></a></g></svg></svg></svg>