<svg version="1.1" xmlns="http://www.w3.org/2000/svg" xmlns:xlink="http://www.w3.org/1999/xlink" fill="transparent" x="0" y="0" width="350" height="350" preserveAspectRatio="xMinYMin slice"><style type="text/css">.links{fill:transparent;stroke: #E4CF37;}.links:hover{fill:#63D272; opacity:0.4;}</style><defs><g id="allt"><path id="t2981" d="M4026,704 L4016,704 C4006,705 4018,697 4008,697 C3998,697 4013,704 4003,704 L3993,704 3993,704 L3993,713 C3994,723 3989,709 3989,719 C3990,729 3995,717 3994,726 L3993,736 3993,736 L4002,736 C4012,737 3998,732 4008,732 C4019,733 4006,738 4016,737 L4026,736 4026,736 L4025,726 C4025,716 4035,729 4035,719 C4035,709 4022,722 4024,713 L4026,704"/></g><clipPath id="c" clipRule="evenodd" fill="transparent"><use href="#t2981"/></clipPath></defs><svg viewBox="3988 696 48 43" preserveAspectRatio="xMinYMin meet"><svg width="4380" height="2430"><g><image crossorigin="anonymous" x="0" y="0" href="https://nftpuzzle.license-token.com/assets/completepuzzle.svg" width="100%" height="100%" /><g class="links"><use href="#t2981"/></g></g></svg><svg x="4021" y="724" height="9%" width="9%" viewBox="0 0 330 330"><g><a xlink:href="https://nftpuzzle.license-token.com/" class="links"><title>See the most innovative NFT based token software licensing project</title><path fill="#E4CF37" id="more" d="M165,0C74.019,0,0,74.019,0,165s74.019,165,165,165s165-74.019,165-165S255.981,0,165,0z M85,190 c-13.785,0-25-11.215-25-25s11.215-25,25-25s25,11.215,25,25S98.785,190,85,190z M165,190c-13.785,0-25-11.215-25-25 s11.215-25,25-25s25,11.215,25,25S178.785,190,165,190z M245,190c-13.785,0-25-11.215-25-25s11.215-25,25-25 c13.785,0,25,11.215,25,25S258.785,190,245,190z"></path></a></g></svg></svg></svg>