<svg version="1.1" xmlns="http://www.w3.org/2000/svg" xmlns:xlink="http://www.w3.org/1999/xlink" fill="transparent" x="0" y="0" width="350" height="350" preserveAspectRatio="xMinYMin slice"><style type="text/css">.links{fill:transparent;stroke: #E4CF37;}.links:hover{fill:#63D272; opacity:0.4;}</style><defs><g id="allt"><path id="t2986" d="M4191,704 L4180,704 C4169,705 4185,699 4176,700 C4167,702 4178,704 4168,704 L4158,704 4158,704 L4158,712 C4159,721 4152,709 4152,717 C4152,726 4160,716 4159,726 L4158,736 4158,736 L4167,736 C4176,737 4163,730 4172,730 C4181,730 4170,738 4180,737 L4191,736 4191,736 L4191,725 C4192,714 4189,730 4189,721 C4189,712 4191,722 4191,713 L4191,704"/></g><clipPath id="c" clipRule="evenodd" fill="transparent"><use href="#t2986"/></clipPath></defs><svg viewBox="4151 698 42 41" preserveAspectRatio="xMinYMin meet"><svg width="4380" height="2430"><g><image crossorigin="anonymous" x="0" y="0" href="https://nftpuzzle.license-token.com/assets/completepuzzle.svg" width="100%" height="100%" /><g class="links"><use href="#t2986"/></g></g></svg><svg x="4178" y="724" height="9%" width="9%" viewBox="0 0 330 330"><g><a xlink:href="https://nftpuzzle.license-token.com/" class="links"><title>See the most innovative NFT based token software licensing project</title><path fill="#E4CF37" id="more" d="M165,0C74.019,0,0,74.019,0,165s74.019,165,165,165s165-74.019,165-165S255.981,0,165,0z M85,190 c-13.785,0-25-11.215-25-25s11.215-25,25-25s25,11.215,25,25S98.785,190,85,190z M165,190c-13.785,0-25-11.215-25-25 s11.215-25,25-25s25,11.215,25,25S178.785,190,165,190z M245,190c-13.785,0-25-11.215-25-25s11.215-25,25-25 c13.785,0,25,11.215,25,25S258.785,190,245,190z"></path></a></g></svg></svg></svg>