<svg version="1.1" xmlns="http://www.w3.org/2000/svg" xmlns:xlink="http://www.w3.org/1999/xlink" fill="transparent" x="0" y="0" width="350" height="350" preserveAspectRatio="xMinYMin slice"><style type="text/css">.links{fill:transparent;stroke: #E4CF37;}.links:hover{fill:#63D272; opacity:0.4;}</style><defs><g id="allt"><path id="t302" d="M1419,64 L1408,64 C1398,64 1412,61 1402,61 C1392,61 1405,64 1395,64 L1386,64 1386,64 L1386,74 C1386,84 1391,70 1391,79 C1391,88 1386,77 1386,86 L1386,96 1386,96 L1396,96 C1406,96 1392,101 1401,101 C1411,101 1399,96 1409,96 L1419,96 1419,96 L1420,85 C1422,75 1409,88 1410,78 C1411,69 1419,82 1419,73 L1419,64"/></g><clipPath id="c" clipRule="evenodd" fill="transparent"><use href="#t302"/></clipPath></defs><svg viewBox="1385 60 38 42" preserveAspectRatio="xMinYMin meet"><svg width="4380" height="2430"><g><image crossorigin="anonymous" x="0" y="0" href="https://nftpuzzle.license-token.com/assets/completepuzzle.svg" width="100%" height="100%" /><g class="links"><use href="#t302"/></g></g></svg><svg x="1408" y="87" height="9%" width="9%" viewBox="0 0 330 330"><g><a xlink:href="https://nftpuzzle.license-token.com/" class="links"><title>See the most innovative NFT based token software licensing project</title><path fill="#E4CF37" id="more" d="M165,0C74.019,0,0,74.019,0,165s74.019,165,165,165s165-74.019,165-165S255.981,0,165,0z M85,190 c-13.785,0-25-11.215-25-25s11.215-25,25-25s25,11.215,25,25S98.785,190,85,190z M165,190c-13.785,0-25-11.215-25-25 s11.215-25,25-25s25,11.215,25,25S178.785,190,165,190z M245,190c-13.785,0-25-11.215-25-25s11.215-25,25-25 c13.785,0,25,11.215,25,25S258.785,190,245,190z"></path></a></g></svg></svg></svg>