<svg version="1.1" xmlns="http://www.w3.org/2000/svg" xmlns:xlink="http://www.w3.org/1999/xlink" fill="transparent" x="0" y="0" width="350" height="350" preserveAspectRatio="xMinYMin slice"><style type="text/css">.links{fill:transparent;stroke: #E4CF37;}.links:hover{fill:#63D272; opacity:0.4;}</style><defs><g id="allt"><path id="t3031" d="M1386,736 L1375,736 C1364,737 1378,728 1368,726 C1359,725 1371,739 1362,737 L1353,736 1353,736 L1354,745 C1355,755 1346,742 1347,750 C1348,759 1354,750 1353,759 L1353,768 1353,768 L1362,769 C1372,770 1359,761 1368,762 C1377,763 1367,769 1376,768 L1386,768 1386,768 L1388,757 C1391,746 1380,759 1377,750 C1375,741 1386,757 1386,746 L1386,736"/></g><clipPath id="c" clipRule="evenodd" fill="transparent"><use href="#t3031"/></clipPath></defs><svg viewBox="1345 724 47 47" preserveAspectRatio="xMinYMin meet"><svg width="4380" height="2430"><g><image crossorigin="anonymous" x="0" y="0" href="https://nftpuzzle.license-token.com/assets/completepuzzle.svg" width="100%" height="100%" /><g class="links"><use href="#t3031"/></g></g></svg><svg x="1377" y="756" height="9%" width="9%" viewBox="0 0 330 330"><g><a xlink:href="https://nftpuzzle.license-token.com/" class="links"><title>See the most innovative NFT based token software licensing project</title><path fill="#E4CF37" id="more" d="M165,0C74.019,0,0,74.019,0,165s74.019,165,165,165s165-74.019,165-165S255.981,0,165,0z M85,190 c-13.785,0-25-11.215-25-25s11.215-25,25-25s25,11.215,25,25S98.785,190,85,190z M165,190c-13.785,0-25-11.215-25-25 s11.215-25,25-25s25,11.215,25,25S178.785,190,165,190z M245,190c-13.785,0-25-11.215-25-25s11.215-25,25-25 c13.785,0,25,11.215,25,25S258.785,190,245,190z"></path></a></g></svg></svg></svg>