<svg version="1.1" xmlns="http://www.w3.org/2000/svg" xmlns:xlink="http://www.w3.org/1999/xlink" fill="transparent" x="0" y="0" width="350" height="350" preserveAspectRatio="xMinYMin slice"><style type="text/css">.links{fill:transparent;stroke: #E4CF37;}.links:hover{fill:#63D272; opacity:0.4;}</style><defs><g id="allt"><path id="t304" d="M1485,64 L1473,64 C1462,64 1479,59 1468,57 C1457,55 1470,64 1461,64 L1452,64 1452,64 L1452,73 C1453,83 1447,70 1447,79 C1448,89 1452,75 1452,85 L1452,96 1452,96 L1462,96 C1472,97 1458,91 1468,91 C1478,92 1464,96 1474,96 L1485,96 1485,96 L1485,86 C1485,76 1478,90 1475,79 C1473,68 1486,82 1485,73 L1485,64"/></g><clipPath id="c" clipRule="evenodd" fill="transparent"><use href="#t304"/></clipPath></defs><svg viewBox="1446 54 41 44" preserveAspectRatio="xMinYMin meet"><svg width="4380" height="2430"><g><image crossorigin="anonymous" x="0" y="0" href="https://nftpuzzle.license-token.com/assets/completepuzzle.svg" width="100%" height="100%" /><g class="links"><use href="#t304"/></g></g></svg><svg x="1472" y="83" height="9%" width="9%" viewBox="0 0 330 330"><g><a xlink:href="https://nftpuzzle.license-token.com/" class="links"><title>See the most innovative NFT based token software licensing project</title><path fill="#E4CF37" id="more" d="M165,0C74.019,0,0,74.019,0,165s74.019,165,165,165s165-74.019,165-165S255.981,0,165,0z M85,190 c-13.785,0-25-11.215-25-25s11.215-25,25-25s25,11.215,25,25S98.785,190,85,190z M165,190c-13.785,0-25-11.215-25-25 s11.215-25,25-25s25,11.215,25,25S178.785,190,165,190z M245,190c-13.785,0-25-11.215-25-25s11.215-25,25-25 c13.785,0,25,11.215,25,25S258.785,190,245,190z"></path></a></g></svg></svg></svg>