<svg version="1.1" xmlns="http://www.w3.org/2000/svg" xmlns:xlink="http://www.w3.org/1999/xlink" fill="transparent" x="0" y="0" width="350" height="350" preserveAspectRatio="xMinYMin slice"><style type="text/css">.links{fill:transparent;stroke: #E4CF37;}.links:hover{fill:#63D272; opacity:0.4;}</style><defs><g id="allt"><path id="t3056" d="M2211,736 L2200,736 C2190,736 2201,729 2192,730 C2184,732 2198,737 2188,736 L2178,736 2178,736 L2179,746 C2180,757 2174,744 2173,753 C2172,762 2179,749 2178,758 L2178,768 2178,768 L2188,769 C2199,770 2186,764 2195,763 C2205,762 2191,769 2201,768 L2211,768 2211,768 L2210,758 C2210,749 2213,761 2214,751 C2215,741 2210,757 2210,746 L2211,736"/></g><clipPath id="c" clipRule="evenodd" fill="transparent"><use href="#t3056"/></clipPath></defs><svg viewBox="2171 728 45 43" preserveAspectRatio="xMinYMin meet"><svg width="4380" height="2430"><g><image crossorigin="anonymous" x="0" y="0" href="https://nftpuzzle.license-token.com/assets/completepuzzle.svg" width="100%" height="100%" /><g class="links"><use href="#t3056"/></g></g></svg><svg x="2201" y="756" height="9%" width="9%" viewBox="0 0 330 330"><g><a xlink:href="https://nftpuzzle.license-token.com/" class="links"><title>See the most innovative NFT based token software licensing project</title><path fill="#E4CF37" id="more" d="M165,0C74.019,0,0,74.019,0,165s74.019,165,165,165s165-74.019,165-165S255.981,0,165,0z M85,190 c-13.785,0-25-11.215-25-25s11.215-25,25-25s25,11.215,25,25S98.785,190,85,190z M165,190c-13.785,0-25-11.215-25-25 s11.215-25,25-25s25,11.215,25,25S178.785,190,165,190z M245,190c-13.785,0-25-11.215-25-25s11.215-25,25-25 c13.785,0,25,11.215,25,25S258.785,190,245,190z"></path></a></g></svg></svg></svg>