<svg version="1.1" xmlns="http://www.w3.org/2000/svg" xmlns:xlink="http://www.w3.org/1999/xlink" fill="transparent" x="0" y="0" width="350" height="350" preserveAspectRatio="xMinYMin slice"><style type="text/css">.links{fill:transparent;stroke: #E4CF37;}.links:hover{fill:#63D272; opacity:0.4;}</style><defs><g id="allt"><path id="t3057" d="M2244,736 L2234,736 C2224,736 2238,741 2226,741 C2215,742 2232,736 2221,736 L2211,736 2211,736 L2210,746 C2210,757 2215,741 2214,751 C2213,761 2210,749 2210,758 L2211,768 2211,768 L2222,767 C2233,767 2216,772 2226,771 C2237,770 2224,767 2234,767 L2244,768 2244,768 L2244,759 C2244,750 2246,760 2247,750 C2248,741 2243,755 2243,745 L2244,736"/></g><clipPath id="c" clipRule="evenodd" fill="transparent"><use href="#t3057"/></clipPath></defs><svg viewBox="2209 735 40 38" preserveAspectRatio="xMinYMin meet"><svg width="4380" height="2430"><g><image crossorigin="anonymous" x="0" y="0" href="https://nftpuzzle.license-token.com/assets/completepuzzle.svg" width="100%" height="100%" /><g class="links"><use href="#t3057"/></g></g></svg><svg x="2234" y="758" height="9%" width="9%" viewBox="0 0 330 330"><g><a xlink:href="https://nftpuzzle.license-token.com/" class="links"><title>See the most innovative NFT based token software licensing project</title><path fill="#E4CF37" id="more" d="M165,0C74.019,0,0,74.019,0,165s74.019,165,165,165s165-74.019,165-165S255.981,0,165,0z M85,190 c-13.785,0-25-11.215-25-25s11.215-25,25-25s25,11.215,25,25S98.785,190,85,190z M165,190c-13.785,0-25-11.215-25-25 s11.215-25,25-25s25,11.215,25,25S178.785,190,165,190z M245,190c-13.785,0-25-11.215-25-25s11.215-25,25-25 c13.785,0,25,11.215,25,25S258.785,190,245,190z"></path></a></g></svg></svg></svg>