<svg version="1.1" xmlns="http://www.w3.org/2000/svg" xmlns:xlink="http://www.w3.org/1999/xlink" fill="transparent" x="0" y="0" width="350" height="350" preserveAspectRatio="xMinYMin slice"><style type="text/css">.links{fill:transparent;stroke: #E4CF37;}.links:hover{fill:#63D272; opacity:0.4;}</style><defs><g id="allt"><path id="t3060" d="M2343,736 L2332,736 C2322,736 2336,741 2326,741 C2317,741 2329,736 2319,736 L2310,736 2310,736 L2310,746 C2310,756 2306,742 2306,751 C2306,761 2313,748 2311,758 L2310,768 2310,768 L2320,768 C2331,768 2316,764 2326,764 C2336,764 2323,771 2333,769 L2343,768 2343,768 L2341,758 C2340,748 2353,758 2353,749 C2353,741 2343,754 2343,745 L2343,736"/></g><clipPath id="c" clipRule="evenodd" fill="transparent"><use href="#t3060"/></clipPath></defs><svg viewBox="2305 735 49 37" preserveAspectRatio="xMinYMin meet"><svg width="4380" height="2430"><g><image crossorigin="anonymous" x="0" y="0" href="https://nftpuzzle.license-token.com/assets/completepuzzle.svg" width="100%" height="100%" /><g class="links"><use href="#t3060"/></g></g></svg><svg x="2339" y="757" height="9%" width="9%" viewBox="0 0 330 330"><g><a xlink:href="https://nftpuzzle.license-token.com/" class="links"><title>See the most innovative NFT based token software licensing project</title><path fill="#E4CF37" id="more" d="M165,0C74.019,0,0,74.019,0,165s74.019,165,165,165s165-74.019,165-165S255.981,0,165,0z M85,190 c-13.785,0-25-11.215-25-25s11.215-25,25-25s25,11.215,25,25S98.785,190,85,190z M165,190c-13.785,0-25-11.215-25-25 s11.215-25,25-25s25,11.215,25,25S178.785,190,165,190z M245,190c-13.785,0-25-11.215-25-25s11.215-25,25-25 c13.785,0,25,11.215,25,25S258.785,190,245,190z"></path></a></g></svg></svg></svg>