<svg version="1.1" xmlns="http://www.w3.org/2000/svg" xmlns:xlink="http://www.w3.org/1999/xlink" fill="transparent" x="0" y="0" width="350" height="350" preserveAspectRatio="xMinYMin slice"><style type="text/css">.links{fill:transparent;stroke: #E4CF37;}.links:hover{fill:#63D272; opacity:0.4;}</style><defs><g id="allt"><path id="t3066" d="M2541,736 L2530,733 C2520,731 2534,744 2525,742 C2516,741 2530,732 2519,734 L2508,736 2508,736 L2509,745 C2510,755 2501,745 2500,753 C2500,761 2508,748 2508,758 L2508,768 2508,768 L2518,769 C2528,770 2517,761 2525,760 C2534,760 2521,768 2531,768 L2541,768 2541,768 L2541,758 C2542,748 2532,758 2533,750 C2535,742 2541,757 2541,746 L2541,736"/></g><clipPath id="c" clipRule="evenodd" fill="transparent"><use href="#t3066"/></clipPath></defs><svg viewBox="2499 730 44 41" preserveAspectRatio="xMinYMin meet"><svg width="4380" height="2430"><g><image crossorigin="anonymous" x="0" y="0" href="https://nftpuzzle.license-token.com/assets/completepuzzle.svg" width="100%" height="100%" /><g class="links"><use href="#t3066"/></g></g></svg><svg x="2528" y="756" height="9%" width="9%" viewBox="0 0 330 330"><g><a xlink:href="https://nftpuzzle.license-token.com/" class="links"><title>See the most innovative NFT based token software licensing project</title><path fill="#E4CF37" id="more" d="M165,0C74.019,0,0,74.019,0,165s74.019,165,165,165s165-74.019,165-165S255.981,0,165,0z M85,190 c-13.785,0-25-11.215-25-25s11.215-25,25-25s25,11.215,25,25S98.785,190,85,190z M165,190c-13.785,0-25-11.215-25-25 s11.215-25,25-25s25,11.215,25,25S178.785,190,165,190z M245,190c-13.785,0-25-11.215-25-25s11.215-25,25-25 c13.785,0,25,11.215,25,25S258.785,190,245,190z"></path></a></g></svg></svg></svg>