<svg version="1.1" xmlns="http://www.w3.org/2000/svg" xmlns:xlink="http://www.w3.org/1999/xlink" fill="transparent" x="0" y="0" width="350" height="350" preserveAspectRatio="xMinYMin slice"><style type="text/css">.links{fill:transparent;stroke: #E4CF37;}.links:hover{fill:#63D272; opacity:0.4;}</style><defs><g id="allt"><path id="t3067" d="M2574,736 L2562,734 C2551,732 2569,741 2557,741 C2545,742 2563,736 2552,736 L2541,736 2541,736 L2541,746 C2541,757 2535,742 2533,750 C2532,758 2542,748 2541,758 L2541,768 2541,768 L2552,768 C2563,768 2547,762 2555,761 C2564,760 2553,769 2563,768 L2574,768 2574,768 L2574,757 C2574,747 2568,760 2568,751 C2569,742 2576,756 2575,746 L2574,736"/></g><clipPath id="c" clipRule="evenodd" fill="transparent"><use href="#t3067"/></clipPath></defs><svg viewBox="2531 731 46 39" preserveAspectRatio="xMinYMin meet"><svg width="4380" height="2430"><g><image crossorigin="anonymous" x="0" y="0" href="https://nftpuzzle.license-token.com/assets/completepuzzle.svg" width="100%" height="100%" /><g class="links"><use href="#t3067"/></g></g></svg><svg x="2562" y="755" height="9%" width="9%" viewBox="0 0 330 330"><g><a xlink:href="https://nftpuzzle.license-token.com/" class="links"><title>See the most innovative NFT based token software licensing project</title><path fill="#E4CF37" id="more" d="M165,0C74.019,0,0,74.019,0,165s74.019,165,165,165s165-74.019,165-165S255.981,0,165,0z M85,190 c-13.785,0-25-11.215-25-25s11.215-25,25-25s25,11.215,25,25S98.785,190,85,190z M165,190c-13.785,0-25-11.215-25-25 s11.215-25,25-25s25,11.215,25,25S178.785,190,165,190z M245,190c-13.785,0-25-11.215-25-25s11.215-25,25-25 c13.785,0,25,11.215,25,25S258.785,190,245,190z"></path></a></g></svg></svg></svg>