<svg version="1.1" xmlns="http://www.w3.org/2000/svg" xmlns:xlink="http://www.w3.org/1999/xlink" fill="transparent" x="0" y="0" width="350" height="350" preserveAspectRatio="xMinYMin slice"><style type="text/css">.links{fill:transparent;stroke: #E4CF37;}.links:hover{fill:#63D272; opacity:0.4;}</style><defs><g id="allt"><path id="t307" d="M1584,64 L1573,64 C1563,65 1576,58 1568,58 C1560,58 1569,65 1560,64 L1551,64 1551,64 L1551,74 C1552,84 1548,73 1547,80 C1547,88 1551,77 1551,86 L1551,96 1551,96 L1561,96 C1572,97 1560,93 1568,92 C1576,92 1564,96 1574,96 L1584,96 1584,96 L1585,86 C1586,77 1581,90 1579,80 C1578,70 1585,82 1584,73 L1584,64"/></g><clipPath id="c" clipRule="evenodd" fill="transparent"><use href="#t307"/></clipPath></defs><svg viewBox="1546 57 41 41" preserveAspectRatio="xMinYMin meet"><svg width="4380" height="2430"><g><image crossorigin="anonymous" x="0" y="0" href="https://nftpuzzle.license-token.com/assets/completepuzzle.svg" width="100%" height="100%" /><g class="links"><use href="#t307"/></g></g></svg><svg x="1572" y="83" height="9%" width="9%" viewBox="0 0 330 330"><g><a xlink:href="https://nftpuzzle.license-token.com/" class="links"><title>See the most innovative NFT based token software licensing project</title><path fill="#E4CF37" id="more" d="M165,0C74.019,0,0,74.019,0,165s74.019,165,165,165s165-74.019,165-165S255.981,0,165,0z M85,190 c-13.785,0-25-11.215-25-25s11.215-25,25-25s25,11.215,25,25S98.785,190,85,190z M165,190c-13.785,0-25-11.215-25-25 s11.215-25,25-25s25,11.215,25,25S178.785,190,165,190z M245,190c-13.785,0-25-11.215-25-25s11.215-25,25-25 c13.785,0,25,11.215,25,25S258.785,190,245,190z"></path></a></g></svg></svg></svg>