<svg version="1.1" xmlns="http://www.w3.org/2000/svg" xmlns:xlink="http://www.w3.org/1999/xlink" fill="transparent" x="0" y="0" width="350" height="350" preserveAspectRatio="xMinYMin slice"><style type="text/css">.links{fill:transparent;stroke: #E4CF37;}.links:hover{fill:#63D272; opacity:0.4;}</style><defs><g id="allt"><path id="t3070" d="M2673,736 L2663,735 C2653,735 2666,743 2655,744 C2645,746 2661,734 2650,735 L2640,736 2640,736 L2640,745 C2640,754 2635,744 2636,752 C2638,761 2642,748 2641,758 L2640,768 2640,768 L2649,768 C2659,768 2649,763 2657,764 C2666,766 2652,770 2662,769 L2673,768 2673,768 L2673,758 C2674,749 2664,761 2665,752 C2666,744 2676,753 2674,744 L2673,736"/></g><clipPath id="c" clipRule="evenodd" fill="transparent"><use href="#t3070"/></clipPath></defs><svg viewBox="2634 733 43 38" preserveAspectRatio="xMinYMin meet"><svg width="4380" height="2430"><g><image crossorigin="anonymous" x="0" y="0" href="https://nftpuzzle.license-token.com/assets/completepuzzle.svg" width="100%" height="100%" /><g class="links"><use href="#t3070"/></g></g></svg><svg x="2662" y="756" height="9%" width="9%" viewBox="0 0 330 330"><g><a xlink:href="https://nftpuzzle.license-token.com/" class="links"><title>See the most innovative NFT based token software licensing project</title><path fill="#E4CF37" id="more" d="M165,0C74.019,0,0,74.019,0,165s74.019,165,165,165s165-74.019,165-165S255.981,0,165,0z M85,190 c-13.785,0-25-11.215-25-25s11.215-25,25-25s25,11.215,25,25S98.785,190,85,190z M165,190c-13.785,0-25-11.215-25-25 s11.215-25,25-25s25,11.215,25,25S178.785,190,165,190z M245,190c-13.785,0-25-11.215-25-25s11.215-25,25-25 c13.785,0,25,11.215,25,25S258.785,190,245,190z"></path></a></g></svg></svg></svg>