<svg version="1.1" xmlns="http://www.w3.org/2000/svg" xmlns:xlink="http://www.w3.org/1999/xlink" fill="transparent" x="0" y="0" width="350" height="350" preserveAspectRatio="xMinYMin slice"><style type="text/css">.links{fill:transparent;stroke: #E4CF37;}.links:hover{fill:#63D272; opacity:0.4;}</style><defs><g id="allt"><path id="t3073" d="M2772,736 L2761,737 C2751,738 2762,733 2754,731 C2747,729 2757,736 2748,736 L2739,736 2739,736 L2739,745 C2739,755 2742,741 2742,751 C2742,762 2737,748 2738,758 L2739,768 2739,768 L2748,768 C2758,768 2744,771 2755,771 C2766,771 2751,766 2761,767 L2772,768 2772,768 L2772,758 C2772,748 2769,762 2767,753 C2765,745 2772,755 2772,745 L2772,736"/></g><clipPath id="c" clipRule="evenodd" fill="transparent"><use href="#t3073"/></clipPath></defs><svg viewBox="2736 728 37 44" preserveAspectRatio="xMinYMin meet"><svg width="4380" height="2430"><g><image crossorigin="anonymous" x="0" y="0" href="https://nftpuzzle.license-token.com/assets/completepuzzle.svg" width="100%" height="100%" /><g class="links"><use href="#t3073"/></g></g></svg><svg x="2758" y="757" height="9%" width="9%" viewBox="0 0 330 330"><g><a xlink:href="https://nftpuzzle.license-token.com/" class="links"><title>See the most innovative NFT based token software licensing project</title><path fill="#E4CF37" id="more" d="M165,0C74.019,0,0,74.019,0,165s74.019,165,165,165s165-74.019,165-165S255.981,0,165,0z M85,190 c-13.785,0-25-11.215-25-25s11.215-25,25-25s25,11.215,25,25S98.785,190,85,190z M165,190c-13.785,0-25-11.215-25-25 s11.215-25,25-25s25,11.215,25,25S178.785,190,165,190z M245,190c-13.785,0-25-11.215-25-25s11.215-25,25-25 c13.785,0,25,11.215,25,25S258.785,190,245,190z"></path></a></g></svg></svg></svg>