<svg version="1.1" xmlns="http://www.w3.org/2000/svg" xmlns:xlink="http://www.w3.org/1999/xlink" fill="transparent" x="0" y="0" width="350" height="350" preserveAspectRatio="xMinYMin slice"><style type="text/css">.links{fill:transparent;stroke: #E4CF37;}.links:hover{fill:#63D272; opacity:0.4;}</style><defs><g id="allt"><path id="t3074" d="M2805,736 L2794,738 C2784,741 2800,727 2790,729 C2781,731 2791,737 2781,736 L2772,736 2772,736 L2772,745 C2772,755 2765,745 2767,753 C2769,762 2772,748 2772,758 L2772,768 2772,768 L2781,768 C2791,768 2781,761 2790,763 C2799,765 2785,768 2795,768 L2805,768 2805,768 L2805,757 C2805,746 2801,761 2800,751 C2799,742 2805,757 2805,746 L2805,736"/></g><clipPath id="c" clipRule="evenodd" fill="transparent"><use href="#t3074"/></clipPath></defs><svg viewBox="2764 726 42 43" preserveAspectRatio="xMinYMin meet"><svg width="4380" height="2430"><g><image crossorigin="anonymous" x="0" y="0" href="https://nftpuzzle.license-token.com/assets/completepuzzle.svg" width="100%" height="100%" /><g class="links"><use href="#t3074"/></g></g></svg><svg x="2791" y="754" height="9%" width="9%" viewBox="0 0 330 330"><g><a xlink:href="https://nftpuzzle.license-token.com/" class="links"><title>See the most innovative NFT based token software licensing project</title><path fill="#E4CF37" id="more" d="M165,0C74.019,0,0,74.019,0,165s74.019,165,165,165s165-74.019,165-165S255.981,0,165,0z M85,190 c-13.785,0-25-11.215-25-25s11.215-25,25-25s25,11.215,25,25S98.785,190,85,190z M165,190c-13.785,0-25-11.215-25-25 s11.215-25,25-25s25,11.215,25,25S178.785,190,165,190z M245,190c-13.785,0-25-11.215-25-25s11.215-25,25-25 c13.785,0,25,11.215,25,25S258.785,190,245,190z"></path></a></g></svg></svg></svg>