<svg version="1.1" xmlns="http://www.w3.org/2000/svg" xmlns:xlink="http://www.w3.org/1999/xlink" fill="transparent" x="0" y="0" width="350" height="350" preserveAspectRatio="xMinYMin slice"><style type="text/css">.links{fill:transparent;stroke: #E4CF37;}.links:hover{fill:#63D272; opacity:0.4;}</style><defs><g id="allt"><path id="t3086" d="M3201,736 L3191,736 C3182,736 3192,726 3182,728 C3173,731 3188,736 3178,736 L3168,736 3168,736 L3168,745 C3168,754 3164,744 3165,753 C3166,762 3168,747 3168,757 L3168,768 3168,768 L3177,768 C3186,768 3176,764 3185,765 C3195,766 3179,768 3190,768 L3201,768 3201,768 L3200,757 C3200,747 3206,760 3206,752 C3207,744 3200,756 3200,746 L3201,736"/></g><clipPath id="c" clipRule="evenodd" fill="transparent"><use href="#t3086"/></clipPath></defs><svg viewBox="3163 725 45 44" preserveAspectRatio="xMinYMin meet"><svg width="4380" height="2430"><g><image crossorigin="anonymous" x="0" y="0" href="https://nftpuzzle.license-token.com/assets/completepuzzle.svg" width="100%" height="100%" /><g class="links"><use href="#t3086"/></g></g></svg><svg x="3193" y="754" height="9%" width="9%" viewBox="0 0 330 330"><g><a xlink:href="https://nftpuzzle.license-token.com/" class="links"><title>See the most innovative NFT based token software licensing project</title><path fill="#E4CF37" id="more" d="M165,0C74.019,0,0,74.019,0,165s74.019,165,165,165s165-74.019,165-165S255.981,0,165,0z M85,190 c-13.785,0-25-11.215-25-25s11.215-25,25-25s25,11.215,25,25S98.785,190,85,190z M165,190c-13.785,0-25-11.215-25-25 s11.215-25,25-25s25,11.215,25,25S178.785,190,165,190z M245,190c-13.785,0-25-11.215-25-25s11.215-25,25-25 c13.785,0,25,11.215,25,25S258.785,190,245,190z"></path></a></g></svg></svg></svg>