<svg version="1.1" xmlns="http://www.w3.org/2000/svg" xmlns:xlink="http://www.w3.org/1999/xlink" fill="transparent" x="0" y="0" width="350" height="350" preserveAspectRatio="xMinYMin slice"><style type="text/css">.links{fill:transparent;stroke: #E4CF37;}.links:hover{fill:#63D272; opacity:0.4;}</style><defs><g id="allt"><path id="t3087" d="M3234,736 L3224,736 C3214,736 3227,729 3218,728 C3210,727 3219,736 3210,736 L3201,736 3201,736 L3200,746 C3200,756 3207,744 3206,752 C3206,760 3200,747 3200,757 L3201,768 3201,768 L3211,767 C3222,767 3209,774 3217,773 C3225,773 3212,767 3223,767 L3234,768 3234,768 L3234,757 C3234,747 3228,759 3228,749 C3228,740 3236,754 3235,745 L3234,736"/></g><clipPath id="c" clipRule="evenodd" fill="transparent"><use href="#t3087"/></clipPath></defs><svg viewBox="3199 726 38 49" preserveAspectRatio="xMinYMin meet"><svg width="4380" height="2430"><g><image crossorigin="anonymous" x="0" y="0" href="https://nftpuzzle.license-token.com/assets/completepuzzle.svg" width="100%" height="100%" /><g class="links"><use href="#t3087"/></g></g></svg><svg x="3222" y="760" height="9%" width="9%" viewBox="0 0 330 330"><g><a xlink:href="https://nftpuzzle.license-token.com/" class="links"><title>See the most innovative NFT based token software licensing project</title><path fill="#E4CF37" id="more" d="M165,0C74.019,0,0,74.019,0,165s74.019,165,165,165s165-74.019,165-165S255.981,0,165,0z M85,190 c-13.785,0-25-11.215-25-25s11.215-25,25-25s25,11.215,25,25S98.785,190,85,190z M165,190c-13.785,0-25-11.215-25-25 s11.215-25,25-25s25,11.215,25,25S178.785,190,165,190z M245,190c-13.785,0-25-11.215-25-25s11.215-25,25-25 c13.785,0,25,11.215,25,25S258.785,190,245,190z"></path></a></g></svg></svg></svg>