<svg version="1.1" xmlns="http://www.w3.org/2000/svg" xmlns:xlink="http://www.w3.org/1999/xlink" fill="transparent" x="0" y="0" width="350" height="350" preserveAspectRatio="xMinYMin slice"><style type="text/css">.links{fill:transparent;stroke: #E4CF37;}.links:hover{fill:#63D272; opacity:0.4;}</style><defs><g id="allt"><path id="t3088" d="M3267,736 L3257,736 C3248,737 3259,731 3251,730 C3243,729 3255,738 3244,737 L3234,736 3234,736 L3235,745 C3236,754 3228,740 3228,749 C3228,759 3234,747 3234,757 L3234,768 3234,768 L3243,769 C3252,770 3238,762 3248,762 C3258,762 3246,768 3256,768 L3267,768 3267,768 L3267,757 C3267,747 3258,760 3259,752 C3260,745 3271,757 3269,746 L3267,736"/></g><clipPath id="c" clipRule="evenodd" fill="transparent"><use href="#t3088"/></clipPath></defs><svg viewBox="3227 728 45 43" preserveAspectRatio="xMinYMin meet"><svg width="4380" height="2430"><g><image crossorigin="anonymous" x="0" y="0" href="https://nftpuzzle.license-token.com/assets/completepuzzle.svg" width="100%" height="100%" /><g class="links"><use href="#t3088"/></g></g></svg><svg x="3257" y="756" height="9%" width="9%" viewBox="0 0 330 330"><g><a xlink:href="https://nftpuzzle.license-token.com/" class="links"><title>See the most innovative NFT based token software licensing project</title><path fill="#E4CF37" id="more" d="M165,0C74.019,0,0,74.019,0,165s74.019,165,165,165s165-74.019,165-165S255.981,0,165,0z M85,190 c-13.785,0-25-11.215-25-25s11.215-25,25-25s25,11.215,25,25S98.785,190,85,190z M165,190c-13.785,0-25-11.215-25-25 s11.215-25,25-25s25,11.215,25,25S178.785,190,165,190z M245,190c-13.785,0-25-11.215-25-25s11.215-25,25-25 c13.785,0,25,11.215,25,25S258.785,190,245,190z"></path></a></g></svg></svg></svg>