<svg version="1.1" xmlns="http://www.w3.org/2000/svg" xmlns:xlink="http://www.w3.org/1999/xlink" fill="transparent" x="0" y="0" width="350" height="350" preserveAspectRatio="xMinYMin slice"><style type="text/css">.links{fill:transparent;stroke: #E4CF37;}.links:hover{fill:#63D272; opacity:0.4;}</style><defs><g id="allt"><path id="t3100" d="M3663,736 L3652,736 C3641,736 3656,730 3645,729 C3635,728 3648,736 3639,736 L3630,736 3630,736 L3629,744 C3629,753 3634,744 3635,752 C3637,761 3630,749 3630,758 L3630,768 3630,768 L3639,767 C3648,767 3638,772 3647,773 C3656,775 3643,768 3653,768 L3663,768 3663,768 L3662,757 C3662,747 3666,758 3666,750 C3666,742 3663,753 3663,744 L3663,736"/></g><clipPath id="c" clipRule="evenodd" fill="transparent"><use href="#t3100"/></clipPath></defs><svg viewBox="3628 727 39 49" preserveAspectRatio="xMinYMin meet"><svg width="4380" height="2430"><g><image crossorigin="anonymous" x="0" y="0" href="https://nftpuzzle.license-token.com/assets/completepuzzle.svg" width="100%" height="100%" /><g class="links"><use href="#t3100"/></g></g></svg><svg x="3652" y="761" height="9%" width="9%" viewBox="0 0 330 330"><g><a xlink:href="https://nftpuzzle.license-token.com/" class="links"><title>See the most innovative NFT based token software licensing project</title><path fill="#E4CF37" id="more" d="M165,0C74.019,0,0,74.019,0,165s74.019,165,165,165s165-74.019,165-165S255.981,0,165,0z M85,190 c-13.785,0-25-11.215-25-25s11.215-25,25-25s25,11.215,25,25S98.785,190,85,190z M165,190c-13.785,0-25-11.215-25-25 s11.215-25,25-25s25,11.215,25,25S178.785,190,165,190z M245,190c-13.785,0-25-11.215-25-25s11.215-25,25-25 c13.785,0,25,11.215,25,25S258.785,190,245,190z"></path></a></g></svg></svg></svg>