<svg version="1.1" xmlns="http://www.w3.org/2000/svg" xmlns:xlink="http://www.w3.org/1999/xlink" fill="transparent" x="0" y="0" width="350" height="350" preserveAspectRatio="xMinYMin slice"><style type="text/css">.links{fill:transparent;stroke: #E4CF37;}.links:hover{fill:#63D272; opacity:0.4;}</style><defs><g id="allt"><path id="t3102" d="M3729,736 L3718,736 C3708,736 3720,730 3711,730 C3703,731 3714,737 3705,736 L3696,736 3696,736 L3697,746 C3698,756 3689,744 3690,751 C3692,759 3698,748 3697,758 L3696,768 3696,768 L3706,769 C3717,770 3704,761 3711,762 C3719,764 3709,770 3719,769 L3729,768 3729,768 L3729,757 C3730,746 3723,760 3722,751 C3722,742 3729,757 3729,746 L3729,736"/></g><clipPath id="c" clipRule="evenodd" fill="transparent"><use href="#t3102"/></clipPath></defs><svg viewBox="3688 729 43 42" preserveAspectRatio="xMinYMin meet"><svg width="4380" height="2430"><g><image crossorigin="anonymous" x="0" y="0" href="https://nftpuzzle.license-token.com/assets/completepuzzle.svg" width="100%" height="100%" /><g class="links"><use href="#t3102"/></g></g></svg><svg x="3716" y="756" height="9%" width="9%" viewBox="0 0 330 330"><g><a xlink:href="https://nftpuzzle.license-token.com/" class="links"><title>See the most innovative NFT based token software licensing project</title><path fill="#E4CF37" id="more" d="M165,0C74.019,0,0,74.019,0,165s74.019,165,165,165s165-74.019,165-165S255.981,0,165,0z M85,190 c-13.785,0-25-11.215-25-25s11.215-25,25-25s25,11.215,25,25S98.785,190,85,190z M165,190c-13.785,0-25-11.215-25-25 s11.215-25,25-25s25,11.215,25,25S178.785,190,165,190z M245,190c-13.785,0-25-11.215-25-25s11.215-25,25-25 c13.785,0,25,11.215,25,25S258.785,190,245,190z"></path></a></g></svg></svg></svg>