<svg version="1.1" xmlns="http://www.w3.org/2000/svg" xmlns:xlink="http://www.w3.org/1999/xlink" fill="transparent" x="0" y="0" width="350" height="350" preserveAspectRatio="xMinYMin slice"><style type="text/css">.links{fill:transparent;stroke: #E4CF37;}.links:hover{fill:#63D272; opacity:0.4;}</style><defs><g id="allt"><path id="t3103" d="M3762,736 L3750,735 C3739,734 3754,742 3746,742 C3738,742 3749,735 3739,735 L3729,736 3729,736 L3729,746 C3729,757 3722,742 3722,751 C3723,760 3730,746 3729,757 L3729,768 3729,768 L3740,768 C3751,768 3735,761 3744,761 C3754,762 3739,769 3750,768 L3762,768 3762,768 L3762,757 C3762,746 3764,760 3765,752 C3767,745 3762,756 3762,746 L3762,736"/></g><clipPath id="c" clipRule="evenodd" fill="transparent"><use href="#t3103"/></clipPath></defs><svg viewBox="3721 733 47 37" preserveAspectRatio="xMinYMin meet"><svg width="4380" height="2430"><g><image crossorigin="anonymous" x="0" y="0" href="https://nftpuzzle.license-token.com/assets/completepuzzle.svg" width="100%" height="100%" /><g class="links"><use href="#t3103"/></g></g></svg><svg x="3753" y="755" height="9%" width="9%" viewBox="0 0 330 330"><g><a xlink:href="https://nftpuzzle.license-token.com/" class="links"><title>See the most innovative NFT based token software licensing project</title><path fill="#E4CF37" id="more" d="M165,0C74.019,0,0,74.019,0,165s74.019,165,165,165s165-74.019,165-165S255.981,0,165,0z M85,190 c-13.785,0-25-11.215-25-25s11.215-25,25-25s25,11.215,25,25S98.785,190,85,190z M165,190c-13.785,0-25-11.215-25-25 s11.215-25,25-25s25,11.215,25,25S178.785,190,165,190z M245,190c-13.785,0-25-11.215-25-25s11.215-25,25-25 c13.785,0,25,11.215,25,25S258.785,190,245,190z"></path></a></g></svg></svg></svg>