<svg version="1.1" xmlns="http://www.w3.org/2000/svg" xmlns:xlink="http://www.w3.org/1999/xlink" fill="transparent" x="0" y="0" width="350" height="350" preserveAspectRatio="xMinYMin slice"><style type="text/css">.links{fill:transparent;stroke: #E4CF37;}.links:hover{fill:#63D272; opacity:0.4;}</style><defs><g id="allt"><path id="t3105" d="M3828,736 L3817,736 C3807,736 3818,725 3811,726 C3804,728 3814,740 3804,738 L3795,736 3795,736 L3794,746 C3794,756 3797,742 3797,752 C3798,762 3795,747 3795,757 L3795,768 3795,768 L3805,767 C3815,767 3801,770 3811,770 C3822,771 3806,768 3817,768 L3828,768 3828,768 L3827,758 C3826,748 3832,762 3834,751 C3836,741 3828,757 3828,746 L3828,736"/></g><clipPath id="c" clipRule="evenodd" fill="transparent"><use href="#t3105"/></clipPath></defs><svg viewBox="3793 724 44 48" preserveAspectRatio="xMinYMin meet"><svg width="4380" height="2430"><g><image crossorigin="anonymous" x="0" y="0" href="https://nftpuzzle.license-token.com/assets/completepuzzle.svg" width="100%" height="100%" /><g class="links"><use href="#t3105"/></g></g></svg><svg x="3822" y="757" height="9%" width="9%" viewBox="0 0 330 330"><g><a xlink:href="https://nftpuzzle.license-token.com/" class="links"><title>See the most innovative NFT based token software licensing project</title><path fill="#E4CF37" id="more" d="M165,0C74.019,0,0,74.019,0,165s74.019,165,165,165s165-74.019,165-165S255.981,0,165,0z M85,190 c-13.785,0-25-11.215-25-25s11.215-25,25-25s25,11.215,25,25S98.785,190,85,190z M165,190c-13.785,0-25-11.215-25-25 s11.215-25,25-25s25,11.215,25,25S178.785,190,165,190z M245,190c-13.785,0-25-11.215-25-25s11.215-25,25-25 c13.785,0,25,11.215,25,25S258.785,190,245,190z"></path></a></g></svg></svg></svg>