<svg version="1.1" xmlns="http://www.w3.org/2000/svg" xmlns:xlink="http://www.w3.org/1999/xlink" fill="transparent" x="0" y="0" width="350" height="350" preserveAspectRatio="xMinYMin slice"><style type="text/css">.links{fill:transparent;stroke: #E4CF37;}.links:hover{fill:#63D272; opacity:0.4;}</style><defs><g id="allt"><path id="t3108" d="M3927,736 L3917,736 C3907,736 3919,742 3910,741 C3901,740 3915,735 3904,735 L3894,736 3894,736 L3895,746 C3896,757 3891,743 3891,751 C3891,759 3896,750 3895,759 L3894,768 3894,768 L3905,769 C3916,770 3901,765 3909,765 C3917,765 3908,770 3917,769 L3927,768 3927,768 L3927,757 C3927,746 3932,762 3932,753 C3933,744 3925,755 3926,745 L3927,736"/></g><clipPath id="c" clipRule="evenodd" fill="transparent"><use href="#t3108"/></clipPath></defs><svg viewBox="3890 734 44 37" preserveAspectRatio="xMinYMin meet"><svg width="4380" height="2430"><g><image crossorigin="anonymous" x="0" y="0" href="https://nftpuzzle.license-token.com/assets/completepuzzle.svg" width="100%" height="100%" /><g class="links"><use href="#t3108"/></g></g></svg><svg x="3919" y="756" height="9%" width="9%" viewBox="0 0 330 330"><g><a xlink:href="https://nftpuzzle.license-token.com/" class="links"><title>See the most innovative NFT based token software licensing project</title><path fill="#E4CF37" id="more" d="M165,0C74.019,0,0,74.019,0,165s74.019,165,165,165s165-74.019,165-165S255.981,0,165,0z M85,190 c-13.785,0-25-11.215-25-25s11.215-25,25-25s25,11.215,25,25S98.785,190,85,190z M165,190c-13.785,0-25-11.215-25-25 s11.215-25,25-25s25,11.215,25,25S178.785,190,165,190z M245,190c-13.785,0-25-11.215-25-25s11.215-25,25-25 c13.785,0,25,11.215,25,25S258.785,190,245,190z"></path></a></g></svg></svg></svg>