<svg version="1.1" xmlns="http://www.w3.org/2000/svg" xmlns:xlink="http://www.w3.org/1999/xlink" fill="transparent" x="0" y="0" width="350" height="350" preserveAspectRatio="xMinYMin slice"><style type="text/css">.links{fill:transparent;stroke: #E4CF37;}.links:hover{fill:#63D272; opacity:0.4;}</style><defs><g id="allt"><path id="t3109" d="M3960,736 L3949,736 C3938,736 3953,745 3942,743 C3932,742 3946,736 3936,736 L3927,736 3927,736 L3926,745 C3925,755 3933,744 3932,753 C3932,762 3927,746 3927,757 L3927,768 3927,768 L3936,767 C3946,766 3935,774 3944,773 C3954,773 3938,768 3949,768 L3960,768 3960,768 L3961,758 C3962,749 3957,758 3956,750 C3956,743 3960,754 3960,745 L3960,736"/></g><clipPath id="c" clipRule="evenodd" fill="transparent"><use href="#t3109"/></clipPath></defs><svg viewBox="3924 735 39 40" preserveAspectRatio="xMinYMin meet"><svg width="4380" height="2430"><g><image crossorigin="anonymous" x="0" y="0" href="https://nftpuzzle.license-token.com/assets/completepuzzle.svg" width="100%" height="100%" /><g class="links"><use href="#t3109"/></g></g></svg><svg x="3948" y="760" height="9%" width="9%" viewBox="0 0 330 330"><g><a xlink:href="https://nftpuzzle.license-token.com/" class="links"><title>See the most innovative NFT based token software licensing project</title><path fill="#E4CF37" id="more" d="M165,0C74.019,0,0,74.019,0,165s74.019,165,165,165s165-74.019,165-165S255.981,0,165,0z M85,190 c-13.785,0-25-11.215-25-25s11.215-25,25-25s25,11.215,25,25S98.785,190,85,190z M165,190c-13.785,0-25-11.215-25-25 s11.215-25,25-25s25,11.215,25,25S178.785,190,165,190z M245,190c-13.785,0-25-11.215-25-25s11.215-25,25-25 c13.785,0,25,11.215,25,25S258.785,190,245,190z"></path></a></g></svg></svg></svg>