<svg version="1.1" xmlns="http://www.w3.org/2000/svg" xmlns:xlink="http://www.w3.org/1999/xlink" fill="transparent" x="0" y="0" width="350" height="350" preserveAspectRatio="xMinYMin slice"><style type="text/css">.links{fill:transparent;stroke: #E4CF37;}.links:hover{fill:#63D272; opacity:0.4;}</style><defs><g id="allt"><path id="t311" d="M1716,64 L1705,66 C1694,68 1707,55 1699,55 C1692,55 1702,66 1692,65 L1683,64 1683,64 L1683,74 C1683,84 1680,72 1680,80 C1681,88 1684,76 1683,86 L1683,96 1683,96 L1693,96 C1703,96 1691,93 1699,93 C1708,94 1695,97 1705,96 L1716,96 1716,96 L1716,85 C1716,75 1708,87 1708,80 C1708,73 1717,82 1716,73 L1716,64"/></g><clipPath id="c" clipRule="evenodd" fill="transparent"><use href="#t311"/></clipPath></defs><svg viewBox="1679 54 39 44" preserveAspectRatio="xMinYMin meet"><svg width="4380" height="2430"><g><image crossorigin="anonymous" x="0" y="0" href="https://nftpuzzle.license-token.com/assets/completepuzzle.svg" width="100%" height="100%" /><g class="links"><use href="#t311"/></g></g></svg><svg x="1703" y="83" height="9%" width="9%" viewBox="0 0 330 330"><g><a xlink:href="https://nftpuzzle.license-token.com/" class="links"><title>See the most innovative NFT based token software licensing project</title><path fill="#E4CF37" id="more" d="M165,0C74.019,0,0,74.019,0,165s74.019,165,165,165s165-74.019,165-165S255.981,0,165,0z M85,190 c-13.785,0-25-11.215-25-25s11.215-25,25-25s25,11.215,25,25S98.785,190,85,190z M165,190c-13.785,0-25-11.215-25-25 s11.215-25,25-25s25,11.215,25,25S178.785,190,165,190z M245,190c-13.785,0-25-11.215-25-25s11.215-25,25-25 c13.785,0,25,11.215,25,25S258.785,190,245,190z"></path></a></g></svg></svg></svg>