<svg version="1.1" xmlns="http://www.w3.org/2000/svg" xmlns:xlink="http://www.w3.org/1999/xlink" fill="transparent" x="0" y="0" width="350" height="350" preserveAspectRatio="xMinYMin slice"><style type="text/css">.links{fill:transparent;stroke: #E4CF37;}.links:hover{fill:#63D272; opacity:0.4;}</style><defs><g id="allt"><path id="t3112" d="M4059,736 L4048,735 C4038,735 4052,745 4041,745 C4031,745 4045,732 4035,734 L4026,736 4026,736 L4026,745 C4026,755 4019,742 4019,750 C4019,759 4026,749 4026,758 L4026,768 4026,768 L4036,768 C4046,768 4032,761 4041,761 C4050,761 4039,768 4049,768 L4059,768 4059,768 L4059,758 C4060,748 4052,761 4053,751 C4054,742 4061,754 4060,745 L4059,736"/></g><clipPath id="c" clipRule="evenodd" fill="transparent"><use href="#t3112"/></clipPath></defs><svg viewBox="4018 731 44 38" preserveAspectRatio="xMinYMin meet"><svg width="4380" height="2430"><g><image crossorigin="anonymous" x="0" y="0" href="https://nftpuzzle.license-token.com/assets/completepuzzle.svg" width="100%" height="100%" /><g class="links"><use href="#t3112"/></g></g></svg><svg x="4047" y="754" height="9%" width="9%" viewBox="0 0 330 330"><g><a xlink:href="https://nftpuzzle.license-token.com/" class="links"><title>See the most innovative NFT based token software licensing project</title><path fill="#E4CF37" id="more" d="M165,0C74.019,0,0,74.019,0,165s74.019,165,165,165s165-74.019,165-165S255.981,0,165,0z M85,190 c-13.785,0-25-11.215-25-25s11.215-25,25-25s25,11.215,25,25S98.785,190,85,190z M165,190c-13.785,0-25-11.215-25-25 s11.215-25,25-25s25,11.215,25,25S178.785,190,165,190z M245,190c-13.785,0-25-11.215-25-25s11.215-25,25-25 c13.785,0,25,11.215,25,25S258.785,190,245,190z"></path></a></g></svg></svg></svg>