<svg version="1.1" xmlns="http://www.w3.org/2000/svg" xmlns:xlink="http://www.w3.org/1999/xlink" fill="transparent" x="0" y="0" width="350" height="350" preserveAspectRatio="xMinYMin slice"><style type="text/css">.links{fill:transparent;stroke: #E4CF37;}.links:hover{fill:#63D272; opacity:0.4;}</style><defs><g id="allt"><path id="t3114" d="M4125,736 L4115,736 C4105,736 4115,729 4105,728 C4096,727 4111,737 4101,736 L4092,736 4092,736 L4092,744 C4092,753 4085,742 4084,750 C4083,758 4092,747 4092,757 L4092,768 4092,768 L4101,768 C4110,768 4098,761 4106,760 C4115,759 4104,768 4114,768 L4125,768 4125,768 L4127,758 C4129,749 4120,758 4118,750 C4117,742 4126,757 4125,746 L4125,736"/></g><clipPath id="c" clipRule="evenodd" fill="transparent"><use href="#t3114"/></clipPath></defs><svg viewBox="4082 726 48 43" preserveAspectRatio="xMinYMin meet"><svg width="4380" height="2430"><g><image crossorigin="anonymous" x="0" y="0" href="https://nftpuzzle.license-token.com/assets/completepuzzle.svg" width="100%" height="100%" /><g class="links"><use href="#t3114"/></g></g></svg><svg x="4115" y="754" height="9%" width="9%" viewBox="0 0 330 330"><g><a xlink:href="https://nftpuzzle.license-token.com/" class="links"><title>See the most innovative NFT based token software licensing project</title><path fill="#E4CF37" id="more" d="M165,0C74.019,0,0,74.019,0,165s74.019,165,165,165s165-74.019,165-165S255.981,0,165,0z M85,190 c-13.785,0-25-11.215-25-25s11.215-25,25-25s25,11.215,25,25S98.785,190,85,190z M165,190c-13.785,0-25-11.215-25-25 s11.215-25,25-25s25,11.215,25,25S178.785,190,165,190z M245,190c-13.785,0-25-11.215-25-25s11.215-25,25-25 c13.785,0,25,11.215,25,25S258.785,190,245,190z"></path></a></g></svg></svg></svg>