<svg version="1.1" xmlns="http://www.w3.org/2000/svg" xmlns:xlink="http://www.w3.org/1999/xlink" fill="transparent" x="0" y="0" width="350" height="350" preserveAspectRatio="xMinYMin slice"><style type="text/css">.links{fill:transparent;stroke: #E4CF37;}.links:hover{fill:#63D272; opacity:0.4;}</style><defs><g id="allt"><path id="t3115" d="M4158,736 L4147,738 C4136,740 4150,727 4140,728 C4131,730 4144,736 4134,736 L4125,736 4125,736 L4125,746 C4126,757 4117,742 4118,750 C4120,758 4129,749 4127,758 L4125,768 4125,768 L4135,768 C4146,769 4131,760 4139,761 C4148,763 4138,772 4148,770 L4158,768 4158,768 L4158,759 C4158,750 4155,759 4155,752 C4156,745 4160,756 4159,746 L4158,736"/></g><clipPath id="c" clipRule="evenodd" fill="transparent"><use href="#t3115"/></clipPath></defs><svg viewBox="4116 726 45 47" preserveAspectRatio="xMinYMin meet"><svg width="4380" height="2430"><g><image crossorigin="anonymous" x="0" y="0" href="https://nftpuzzle.license-token.com/assets/completepuzzle.svg" width="100%" height="100%" /><g class="links"><use href="#t3115"/></g></g></svg><svg x="4146" y="758" height="9%" width="9%" viewBox="0 0 330 330"><g><a xlink:href="https://nftpuzzle.license-token.com/" class="links"><title>See the most innovative NFT based token software licensing project</title><path fill="#E4CF37" id="more" d="M165,0C74.019,0,0,74.019,0,165s74.019,165,165,165s165-74.019,165-165S255.981,0,165,0z M85,190 c-13.785,0-25-11.215-25-25s11.215-25,25-25s25,11.215,25,25S98.785,190,85,190z M165,190c-13.785,0-25-11.215-25-25 s11.215-25,25-25s25,11.215,25,25S178.785,190,165,190z M245,190c-13.785,0-25-11.215-25-25s11.215-25,25-25 c13.785,0,25,11.215,25,25S258.785,190,245,190z"></path></a></g></svg></svg></svg>