<svg version="1.1" xmlns="http://www.w3.org/2000/svg" xmlns:xlink="http://www.w3.org/1999/xlink" fill="transparent" x="0" y="0" width="350" height="350" preserveAspectRatio="xMinYMin slice"><style type="text/css">.links{fill:transparent;stroke: #E4CF37;}.links:hover{fill:#63D272; opacity:0.4;}</style><defs><g id="allt"><path id="t3116" d="M4191,736 L4180,737 C4170,738 4181,730 4172,730 C4163,730 4176,737 4167,736 L4158,736 4158,736 L4159,746 C4160,756 4156,745 4155,752 C4155,759 4158,750 4158,759 L4158,768 4158,768 L4168,769 C4178,770 4167,766 4174,765 C4181,765 4172,768 4181,768 L4191,768 4191,768 L4191,758 C4192,748 4188,762 4188,752 C4188,743 4191,756 4191,746 L4191,736"/></g><clipPath id="c" clipRule="evenodd" fill="transparent"><use href="#t3116"/></clipPath></defs><svg viewBox="4154 729 39 42" preserveAspectRatio="xMinYMin meet"><svg width="4380" height="2430"><g><image crossorigin="anonymous" x="0" y="0" href="https://nftpuzzle.license-token.com/assets/completepuzzle.svg" width="100%" height="100%" /><g class="links"><use href="#t3116"/></g></g></svg><svg x="4178" y="756" height="9%" width="9%" viewBox="0 0 330 330"><g><a xlink:href="https://nftpuzzle.license-token.com/" class="links"><title>See the most innovative NFT based token software licensing project</title><path fill="#E4CF37" id="more" d="M165,0C74.019,0,0,74.019,0,165s74.019,165,165,165s165-74.019,165-165S255.981,0,165,0z M85,190 c-13.785,0-25-11.215-25-25s11.215-25,25-25s25,11.215,25,25S98.785,190,85,190z M165,190c-13.785,0-25-11.215-25-25 s11.215-25,25-25s25,11.215,25,25S178.785,190,165,190z M245,190c-13.785,0-25-11.215-25-25s11.215-25,25-25 c13.785,0,25,11.215,25,25S258.785,190,245,190z"></path></a></g></svg></svg></svg>