<svg version="1.1" xmlns="http://www.w3.org/2000/svg" xmlns:xlink="http://www.w3.org/1999/xlink" fill="transparent" x="0" y="0" width="350" height="350" preserveAspectRatio="xMinYMin slice"><style type="text/css">.links{fill:transparent;stroke: #E4CF37;}.links:hover{fill:#63D272; opacity:0.4;}</style><defs><g id="allt"><path id="t3118" d="M4257,736 L4246,737 C4235,738 4251,728 4241,728 C4231,728 4242,740 4233,738 L4224,736 4224,736 L4222,745 C4221,755 4231,745 4232,753 C4233,762 4224,750 4224,759 L4224,768 4224,768 L4234,766 C4244,765 4233,775 4242,776 C4251,777 4238,768 4247,768 L4257,768 4257,768 L4255,758 C4254,749 4262,758 4265,749 C4268,741 4253,754 4255,745 L4257,736"/></g><clipPath id="c" clipRule="evenodd" fill="transparent"><use href="#t3118"/></clipPath></defs><svg viewBox="4220 727 49 51" preserveAspectRatio="xMinYMin meet"><svg width="4380" height="2430"><g><image crossorigin="anonymous" x="0" y="0" href="https://nftpuzzle.license-token.com/assets/completepuzzle.svg" width="100%" height="100%" /><g class="links"><use href="#t3118"/></g></g></svg><svg x="4254" y="763" height="9%" width="9%" viewBox="0 0 330 330"><g><a xlink:href="https://nftpuzzle.license-token.com/" class="links"><title>See the most innovative NFT based token software licensing project</title><path fill="#E4CF37" id="more" d="M165,0C74.019,0,0,74.019,0,165s74.019,165,165,165s165-74.019,165-165S255.981,0,165,0z M85,190 c-13.785,0-25-11.215-25-25s11.215-25,25-25s25,11.215,25,25S98.785,190,85,190z M165,190c-13.785,0-25-11.215-25-25 s11.215-25,25-25s25,11.215,25,25S178.785,190,165,190z M245,190c-13.785,0-25-11.215-25-25s11.215-25,25-25 c13.785,0,25,11.215,25,25S258.785,190,245,190z"></path></a></g></svg></svg></svg>