<svg version="1.1" xmlns="http://www.w3.org/2000/svg" xmlns:xlink="http://www.w3.org/1999/xlink" fill="transparent" x="0" y="0" width="350" height="350" preserveAspectRatio="xMinYMin slice"><style type="text/css">.links{fill:transparent;stroke: #E4CF37;}.links:hover{fill:#63D272; opacity:0.4;}</style><defs><g id="allt"><path id="t315" d="M1848,64 L1837,63 C1826,63 1839,70 1829,69 C1820,69 1834,64 1824,64 L1815,64 1815,64 L1816,73 C1817,83 1811,72 1811,80 C1811,88 1815,74 1815,85 L1815,96 1815,96 L1824,97 C1834,98 1823,92 1831,92 C1840,92 1826,96 1837,96 L1848,96 1848,96 L1848,85 C1848,75 1855,89 1853,80 C1851,71 1848,84 1848,74 L1848,64"/></g><clipPath id="c" clipRule="evenodd" fill="transparent"><use href="#t315"/></clipPath></defs><svg viewBox="1810 62 46 37" preserveAspectRatio="xMinYMin meet"><svg width="4380" height="2430"><g><image crossorigin="anonymous" x="0" y="0" href="https://nftpuzzle.license-token.com/assets/completepuzzle.svg" width="100%" height="100%" /><g class="links"><use href="#t315"/></g></g></svg><svg x="1841" y="84" height="9%" width="9%" viewBox="0 0 330 330"><g><a xlink:href="https://nftpuzzle.license-token.com/" class="links"><title>See the most innovative NFT based token software licensing project</title><path fill="#E4CF37" id="more" d="M165,0C74.019,0,0,74.019,0,165s74.019,165,165,165s165-74.019,165-165S255.981,0,165,0z M85,190 c-13.785,0-25-11.215-25-25s11.215-25,25-25s25,11.215,25,25S98.785,190,85,190z M165,190c-13.785,0-25-11.215-25-25 s11.215-25,25-25s25,11.215,25,25S178.785,190,165,190z M245,190c-13.785,0-25-11.215-25-25s11.215-25,25-25 c13.785,0,25,11.215,25,25S258.785,190,245,190z"></path></a></g></svg></svg></svg>