<svg version="1.1" xmlns="http://www.w3.org/2000/svg" xmlns:xlink="http://www.w3.org/1999/xlink" fill="transparent" x="0" y="0" width="350" height="350" preserveAspectRatio="xMinYMin slice"><style type="text/css">.links{fill:transparent;stroke: #E4CF37;}.links:hover{fill:#63D272; opacity:0.4;}</style><defs><g id="allt"><path id="t3153" d="M1122,768 L1111,768 C1100,769 1112,762 1104,762 C1096,762 1108,768 1098,768 L1089,768 1089,768 L1089,776 C1089,785 1078,775 1079,783 C1080,791 1094,778 1091,789 L1089,800 1089,800 L1098,800 C1107,800 1096,790 1104,791 C1113,792 1099,805 1110,802 L1122,800 1122,800 L1122,790 C1122,780 1110,790 1111,782 C1113,775 1126,787 1124,777 L1122,768"/></g><clipPath id="c" clipRule="evenodd" fill="transparent"><use href="#t3153"/></clipPath></defs><svg viewBox="1077 761 50 45" preserveAspectRatio="xMinYMin meet"><svg width="4380" height="2430"><g><image crossorigin="anonymous" x="0" y="0" href="https://nftpuzzle.license-token.com/assets/completepuzzle.svg" width="100%" height="100%" /><g class="links"><use href="#t3153"/></g></g></svg><svg x="1112" y="791" height="9%" width="9%" viewBox="0 0 330 330"><g><a xlink:href="https://nftpuzzle.license-token.com/" class="links"><title>See the most innovative NFT based token software licensing project</title><path fill="#E4CF37" id="more" d="M165,0C74.019,0,0,74.019,0,165s74.019,165,165,165s165-74.019,165-165S255.981,0,165,0z M85,190 c-13.785,0-25-11.215-25-25s11.215-25,25-25s25,11.215,25,25S98.785,190,85,190z M165,190c-13.785,0-25-11.215-25-25 s11.215-25,25-25s25,11.215,25,25S178.785,190,165,190z M245,190c-13.785,0-25-11.215-25-25s11.215-25,25-25 c13.785,0,25,11.215,25,25S258.785,190,245,190z"></path></a></g></svg></svg></svg>