<svg version="1.1" xmlns="http://www.w3.org/2000/svg" xmlns:xlink="http://www.w3.org/1999/xlink" fill="transparent" x="0" y="0" width="350" height="350" preserveAspectRatio="xMinYMin slice"><style type="text/css">.links{fill:transparent;stroke: #E4CF37;}.links:hover{fill:#63D272; opacity:0.4;}</style><defs><g id="allt"><path id="t3154" d="M1155,768 L1144,767 C1133,766 1149,771 1139,771 C1130,771 1140,768 1131,768 L1122,768 1122,768 L1124,777 C1126,787 1113,775 1111,782 C1110,790 1122,780 1122,790 L1122,800 1122,800 L1131,802 C1141,804 1129,792 1137,790 C1145,788 1135,800 1145,800 L1155,800 1155,800 L1154,790 C1154,780 1162,791 1161,784 C1161,777 1152,787 1153,777 L1155,768"/></g><clipPath id="c" clipRule="evenodd" fill="transparent"><use href="#t3154"/></clipPath></defs><svg viewBox="1109 765 54 40" preserveAspectRatio="xMinYMin meet"><svg width="4380" height="2430"><g><image crossorigin="anonymous" x="0" y="0" href="https://nftpuzzle.license-token.com/assets/completepuzzle.svg" width="100%" height="100%" /><g class="links"><use href="#t3154"/></g></g></svg><svg x="1148" y="790" height="9%" width="9%" viewBox="0 0 330 330"><g><a xlink:href="https://nftpuzzle.license-token.com/" class="links"><title>See the most innovative NFT based token software licensing project</title><path fill="#E4CF37" id="more" d="M165,0C74.019,0,0,74.019,0,165s74.019,165,165,165s165-74.019,165-165S255.981,0,165,0z M85,190 c-13.785,0-25-11.215-25-25s11.215-25,25-25s25,11.215,25,25S98.785,190,85,190z M165,190c-13.785,0-25-11.215-25-25 s11.215-25,25-25s25,11.215,25,25S178.785,190,165,190z M245,190c-13.785,0-25-11.215-25-25s11.215-25,25-25 c13.785,0,25,11.215,25,25S258.785,190,245,190z"></path></a></g></svg></svg></svg>