<svg version="1.1" xmlns="http://www.w3.org/2000/svg" xmlns:xlink="http://www.w3.org/1999/xlink" fill="transparent" x="0" y="0" width="350" height="350" preserveAspectRatio="xMinYMin slice"><style type="text/css">.links{fill:transparent;stroke: #E4CF37;}.links:hover{fill:#63D272; opacity:0.4;}</style><defs><g id="allt"><path id="t3157" d="M1254,768 L1243,766 C1232,765 1247,774 1236,775 C1226,776 1240,768 1230,768 L1221,768 1221,768 L1221,777 C1221,787 1231,776 1228,783 C1225,791 1220,781 1220,790 L1221,800 1221,800 L1231,800 C1241,800 1229,809 1237,806 C1245,804 1235,799 1244,799 L1254,800 1254,800 L1254,789 C1254,778 1260,792 1259,784 C1259,776 1254,787 1254,777 L1254,768"/></g><clipPath id="c" clipRule="evenodd" fill="transparent"><use href="#t3157"/></clipPath></defs><svg viewBox="1219 764 42 46" preserveAspectRatio="xMinYMin meet"><svg width="4380" height="2430"><g><image crossorigin="anonymous" x="0" y="0" href="https://nftpuzzle.license-token.com/assets/completepuzzle.svg" width="100%" height="100%" /><g class="links"><use href="#t3157"/></g></g></svg><svg x="1246" y="795" height="9%" width="9%" viewBox="0 0 330 330"><g><a xlink:href="https://nftpuzzle.license-token.com/" class="links"><title>See the most innovative NFT based token software licensing project</title><path fill="#E4CF37" id="more" d="M165,0C74.019,0,0,74.019,0,165s74.019,165,165,165s165-74.019,165-165S255.981,0,165,0z M85,190 c-13.785,0-25-11.215-25-25s11.215-25,25-25s25,11.215,25,25S98.785,190,85,190z M165,190c-13.785,0-25-11.215-25-25 s11.215-25,25-25s25,11.215,25,25S178.785,190,165,190z M245,190c-13.785,0-25-11.215-25-25s11.215-25,25-25 c13.785,0,25,11.215,25,25S258.785,190,245,190z"></path></a></g></svg></svg></svg>