<svg version="1.1" xmlns="http://www.w3.org/2000/svg" xmlns:xlink="http://www.w3.org/1999/xlink" fill="transparent" x="0" y="0" width="350" height="350" preserveAspectRatio="xMinYMin slice"><style type="text/css">.links{fill:transparent;stroke: #E4CF37;}.links:hover{fill:#63D272; opacity:0.4;}</style><defs><g id="allt"><path id="t3160" d="M1353,768 L1343,769 C1334,771 1347,764 1338,762 C1329,760 1342,769 1331,768 L1320,768 1320,768 L1321,778 C1322,788 1313,773 1313,783 C1314,793 1320,780 1320,790 L1320,800 1320,800 L1330,801 C1340,802 1325,793 1335,793 C1346,794 1332,800 1342,800 L1353,800 1353,800 L1354,789 C1355,779 1347,793 1347,784 C1348,775 1355,786 1354,777 L1353,768"/></g><clipPath id="c" clipRule="evenodd" fill="transparent"><use href="#t3160"/></clipPath></defs><svg viewBox="1312 759 44 44" preserveAspectRatio="xMinYMin meet"><svg width="4380" height="2430"><g><image crossorigin="anonymous" x="0" y="0" href="https://nftpuzzle.license-token.com/assets/completepuzzle.svg" width="100%" height="100%" /><g class="links"><use href="#t3160"/></g></g></svg><svg x="1341" y="788" height="9%" width="9%" viewBox="0 0 330 330"><g><a xlink:href="https://nftpuzzle.license-token.com/" class="links"><title>See the most innovative NFT based token software licensing project</title><path fill="#E4CF37" id="more" d="M165,0C74.019,0,0,74.019,0,165s74.019,165,165,165s165-74.019,165-165S255.981,0,165,0z M85,190 c-13.785,0-25-11.215-25-25s11.215-25,25-25s25,11.215,25,25S98.785,190,85,190z M165,190c-13.785,0-25-11.215-25-25 s11.215-25,25-25s25,11.215,25,25S178.785,190,165,190z M245,190c-13.785,0-25-11.215-25-25s11.215-25,25-25 c13.785,0,25,11.215,25,25S258.785,190,245,190z"></path></a></g></svg></svg></svg>