<svg version="1.1" xmlns="http://www.w3.org/2000/svg" xmlns:xlink="http://www.w3.org/1999/xlink" fill="transparent" x="0" y="0" width="350" height="350" preserveAspectRatio="xMinYMin slice"><style type="text/css">.links{fill:transparent;stroke: #E4CF37;}.links:hover{fill:#63D272; opacity:0.4;}</style><defs><g id="allt"><path id="t3164" d="M1485,768 L1474,768 C1464,769 1476,762 1467,762 C1459,763 1472,768 1462,768 L1452,768 1452,768 L1453,778 C1454,788 1446,772 1447,783 C1449,795 1452,781 1452,790 L1452,800 1452,800 L1462,801 C1473,802 1456,794 1468,795 C1480,797 1465,800 1475,800 L1485,800 1485,800 L1485,789 C1485,779 1489,792 1489,783 C1489,775 1485,786 1485,777 L1485,768"/></g><clipPath id="c" clipRule="evenodd" fill="transparent"><use href="#t3164"/></clipPath></defs><svg viewBox="1445 761 45 42" preserveAspectRatio="xMinYMin meet"><svg width="4380" height="2430"><g><image crossorigin="anonymous" x="0" y="0" href="https://nftpuzzle.license-token.com/assets/completepuzzle.svg" width="100%" height="100%" /><g class="links"><use href="#t3164"/></g></g></svg><svg x="1475" y="788" height="9%" width="9%" viewBox="0 0 330 330"><g><a xlink:href="https://nftpuzzle.license-token.com/" class="links"><title>See the most innovative NFT based token software licensing project</title><path fill="#E4CF37" id="more" d="M165,0C74.019,0,0,74.019,0,165s74.019,165,165,165s165-74.019,165-165S255.981,0,165,0z M85,190 c-13.785,0-25-11.215-25-25s11.215-25,25-25s25,11.215,25,25S98.785,190,85,190z M165,190c-13.785,0-25-11.215-25-25 s11.215-25,25-25s25,11.215,25,25S178.785,190,165,190z M245,190c-13.785,0-25-11.215-25-25s11.215-25,25-25 c13.785,0,25,11.215,25,25S258.785,190,245,190z"></path></a></g></svg></svg></svg>