<svg version="1.1" xmlns="http://www.w3.org/2000/svg" xmlns:xlink="http://www.w3.org/1999/xlink" fill="transparent" x="0" y="0" width="350" height="350" preserveAspectRatio="xMinYMin slice"><style type="text/css">.links{fill:transparent;stroke: #E4CF37;}.links:hover{fill:#63D272; opacity:0.4;}</style><defs><g id="allt"><path id="t3165" d="M1518,768 L1508,767 C1499,767 1508,771 1500,771 C1493,771 1506,768 1495,768 L1485,768 1485,768 L1485,777 C1485,786 1489,775 1489,783 C1489,792 1485,779 1485,789 L1485,800 1485,800 L1494,800 C1504,800 1492,804 1501,804 C1510,804 1496,800 1507,800 L1518,800 1518,800 L1519,789 C1520,778 1515,792 1514,782 C1513,773 1520,786 1519,777 L1518,768"/></g><clipPath id="c" clipRule="evenodd" fill="transparent"><use href="#t3165"/></clipPath></defs><svg viewBox="1484 766 37 39" preserveAspectRatio="xMinYMin meet"><svg width="4380" height="2430"><g><image crossorigin="anonymous" x="0" y="0" href="https://nftpuzzle.license-token.com/assets/completepuzzle.svg" width="100%" height="100%" /><g class="links"><use href="#t3165"/></g></g></svg><svg x="1506" y="790" height="9%" width="9%" viewBox="0 0 330 330"><g><a xlink:href="https://nftpuzzle.license-token.com/" class="links"><title>See the most innovative NFT based token software licensing project</title><path fill="#E4CF37" id="more" d="M165,0C74.019,0,0,74.019,0,165s74.019,165,165,165s165-74.019,165-165S255.981,0,165,0z M85,190 c-13.785,0-25-11.215-25-25s11.215-25,25-25s25,11.215,25,25S98.785,190,85,190z M165,190c-13.785,0-25-11.215-25-25 s11.215-25,25-25s25,11.215,25,25S178.785,190,165,190z M245,190c-13.785,0-25-11.215-25-25s11.215-25,25-25 c13.785,0,25,11.215,25,25S258.785,190,245,190z"></path></a></g></svg></svg></svg>