<svg version="1.1" xmlns="http://www.w3.org/2000/svg" xmlns:xlink="http://www.w3.org/1999/xlink" fill="transparent" x="0" y="0" width="350" height="350" preserveAspectRatio="xMinYMin slice"><style type="text/css">.links{fill:transparent;stroke: #E4CF37;}.links:hover{fill:#63D272; opacity:0.4;}</style><defs><g id="allt"><path id="t3176" d="M1881,768 L1871,769 C1862,771 1874,761 1863,762 C1852,763 1869,768 1858,768 L1848,768 1848,768 L1849,777 C1850,786 1844,774 1842,782 C1841,790 1848,782 1848,791 L1848,800 1848,800 L1857,801 C1867,802 1854,796 1862,794 C1871,793 1862,800 1871,800 L1881,800 1881,800 L1881,789 C1882,779 1877,791 1876,782 C1876,774 1882,786 1881,777 L1881,768"/></g><clipPath id="c" clipRule="evenodd" fill="transparent"><use href="#t3176"/></clipPath></defs><svg viewBox="1840 760 43 43" preserveAspectRatio="xMinYMin meet"><svg width="4380" height="2430"><g><image crossorigin="anonymous" x="0" y="0" href="https://nftpuzzle.license-token.com/assets/completepuzzle.svg" width="100%" height="100%" /><g class="links"><use href="#t3176"/></g></g></svg><svg x="1868" y="788" height="9%" width="9%" viewBox="0 0 330 330"><g><a xlink:href="https://nftpuzzle.license-token.com/" class="links"><title>See the most innovative NFT based token software licensing project</title><path fill="#E4CF37" id="more" d="M165,0C74.019,0,0,74.019,0,165s74.019,165,165,165s165-74.019,165-165S255.981,0,165,0z M85,190 c-13.785,0-25-11.215-25-25s11.215-25,25-25s25,11.215,25,25S98.785,190,85,190z M165,190c-13.785,0-25-11.215-25-25 s11.215-25,25-25s25,11.215,25,25S178.785,190,165,190z M245,190c-13.785,0-25-11.215-25-25s11.215-25,25-25 c13.785,0,25,11.215,25,25S258.785,190,245,190z"></path></a></g></svg></svg></svg>