<svg version="1.1" xmlns="http://www.w3.org/2000/svg" xmlns:xlink="http://www.w3.org/1999/xlink" fill="transparent" x="0" y="0" width="350" height="350" preserveAspectRatio="xMinYMin slice"><style type="text/css">.links{fill:transparent;stroke: #E4CF37;}.links:hover{fill:#63D272; opacity:0.4;}</style><defs><g id="allt"><path id="t3177" d="M1914,768 L1903,768 C1892,768 1907,771 1897,770 C1888,770 1899,766 1890,767 L1881,768 1881,768 L1881,777 C1882,786 1876,774 1876,782 C1877,791 1882,779 1881,789 L1881,800 1881,800 L1890,800 C1900,801 1887,795 1896,795 C1905,796 1892,801 1903,800 L1914,800 1914,800 L1914,790 C1914,780 1907,791 1907,783 C1907,775 1917,789 1915,778 L1914,768"/></g><clipPath id="c" clipRule="evenodd" fill="transparent"><use href="#t3177"/></clipPath></defs><svg viewBox="1875 765 43 37" preserveAspectRatio="xMinYMin meet"><svg width="4380" height="2430"><g><image crossorigin="anonymous" x="0" y="0" href="https://nftpuzzle.license-token.com/assets/completepuzzle.svg" width="100%" height="100%" /><g class="links"><use href="#t3177"/></g></g></svg><svg x="1903" y="787" height="9%" width="9%" viewBox="0 0 330 330"><g><a xlink:href="https://nftpuzzle.license-token.com/" class="links"><title>See the most innovative NFT based token software licensing project</title><path fill="#E4CF37" id="more" d="M165,0C74.019,0,0,74.019,0,165s74.019,165,165,165s165-74.019,165-165S255.981,0,165,0z M85,190 c-13.785,0-25-11.215-25-25s11.215-25,25-25s25,11.215,25,25S98.785,190,85,190z M165,190c-13.785,0-25-11.215-25-25 s11.215-25,25-25s25,11.215,25,25S178.785,190,165,190z M245,190c-13.785,0-25-11.215-25-25s11.215-25,25-25 c13.785,0,25,11.215,25,25S258.785,190,245,190z"></path></a></g></svg></svg></svg>