<svg version="1.1" xmlns="http://www.w3.org/2000/svg" xmlns:xlink="http://www.w3.org/1999/xlink" fill="transparent" x="0" y="0" width="350" height="350" preserveAspectRatio="xMinYMin slice"><style type="text/css">.links{fill:transparent;stroke: #E4CF37;}.links:hover{fill:#63D272; opacity:0.4;}</style><defs><g id="allt"><path id="t3185" d="M2178,768 L2168,767 C2159,766 2170,770 2160,770 C2151,771 2166,766 2155,767 L2145,768 2145,768 L2144,778 C2143,789 2149,773 2149,782 C2149,792 2145,781 2145,790 L2145,800 2145,800 L2156,799 C2167,798 2150,804 2160,804 C2170,804 2159,800 2168,800 L2178,800 2178,800 L2177,790 C2177,780 2180,790 2181,781 C2183,773 2178,788 2178,778 L2178,768"/></g><clipPath id="c" clipRule="evenodd" fill="transparent"><use href="#t3185"/></clipPath></defs><svg viewBox="2142 765 42 40" preserveAspectRatio="xMinYMin meet"><svg width="4380" height="2430"><g><image crossorigin="anonymous" x="0" y="0" href="https://nftpuzzle.license-token.com/assets/completepuzzle.svg" width="100%" height="100%" /><g class="links"><use href="#t3185"/></g></g></svg><svg x="2169" y="790" height="9%" width="9%" viewBox="0 0 330 330"><g><a xlink:href="https://nftpuzzle.license-token.com/" class="links"><title>See the most innovative NFT based token software licensing project</title><path fill="#E4CF37" id="more" d="M165,0C74.019,0,0,74.019,0,165s74.019,165,165,165s165-74.019,165-165S255.981,0,165,0z M85,190 c-13.785,0-25-11.215-25-25s11.215-25,25-25s25,11.215,25,25S98.785,190,85,190z M165,190c-13.785,0-25-11.215-25-25 s11.215-25,25-25s25,11.215,25,25S178.785,190,165,190z M245,190c-13.785,0-25-11.215-25-25s11.215-25,25-25 c13.785,0,25,11.215,25,25S258.785,190,245,190z"></path></a></g></svg></svg></svg>