<svg version="1.1" xmlns="http://www.w3.org/2000/svg" xmlns:xlink="http://www.w3.org/1999/xlink" fill="transparent" x="0" y="0" width="350" height="350" preserveAspectRatio="xMinYMin slice"><style type="text/css">.links{fill:transparent;stroke: #E4CF37;}.links:hover{fill:#63D272; opacity:0.4;}</style><defs><g id="allt"><path id="t3189" d="M2310,768 L2300,770 C2291,773 2301,760 2293,761 C2285,762 2298,770 2287,769 L2277,768 2277,768 L2276,778 C2276,788 2284,777 2286,783 C2289,790 2276,779 2276,789 L2277,800 2277,800 L2287,799 C2298,799 2286,807 2293,809 C2300,811 2288,799 2299,799 L2310,800 2310,800 L2311,789 C2313,779 2298,792 2298,783 C2298,774 2311,788 2310,778 L2310,768"/></g><clipPath id="c" clipRule="evenodd" fill="transparent"><use href="#t3189"/></clipPath></defs><svg viewBox="2275 759 39 53" preserveAspectRatio="xMinYMin meet"><svg width="4380" height="2430"><g><image crossorigin="anonymous" x="0" y="0" href="https://nftpuzzle.license-token.com/assets/completepuzzle.svg" width="100%" height="100%" /><g class="links"><use href="#t3189"/></g></g></svg><svg x="2299" y="797" height="9%" width="9%" viewBox="0 0 330 330"><g><a xlink:href="https://nftpuzzle.license-token.com/" class="links"><title>See the most innovative NFT based token software licensing project</title><path fill="#E4CF37" id="more" d="M165,0C74.019,0,0,74.019,0,165s74.019,165,165,165s165-74.019,165-165S255.981,0,165,0z M85,190 c-13.785,0-25-11.215-25-25s11.215-25,25-25s25,11.215,25,25S98.785,190,85,190z M165,190c-13.785,0-25-11.215-25-25 s11.215-25,25-25s25,11.215,25,25S178.785,190,165,190z M245,190c-13.785,0-25-11.215-25-25s11.215-25,25-25 c13.785,0,25,11.215,25,25S258.785,190,245,190z"></path></a></g></svg></svg></svg>