<svg version="1.1" xmlns="http://www.w3.org/2000/svg" xmlns:xlink="http://www.w3.org/1999/xlink" fill="transparent" x="0" y="0" width="350" height="350" preserveAspectRatio="xMinYMin slice"><style type="text/css">.links{fill:transparent;stroke: #E4CF37;}.links:hover{fill:#63D272; opacity:0.4;}</style><defs><g id="allt"><path id="t319" d="M1980,64 L1968,64 C1957,64 1974,71 1963,69 C1952,68 1967,63 1957,63 L1947,64 1947,64 L1946,74 C1946,85 1957,69 1957,78 C1957,88 1944,77 1945,86 L1947,96 1947,96 L1958,95 C1969,95 1952,106 1962,106 C1972,106 1961,93 1970,94 L1980,96 1980,96 L1981,86 C1983,77 1976,88 1976,78 C1976,69 1982,82 1981,73 L1980,64"/></g><clipPath id="c" clipRule="evenodd" fill="transparent"><use href="#t319"/></clipPath></defs><svg viewBox="1943 62 41 45" preserveAspectRatio="xMinYMin meet"><svg width="4380" height="2430"><g><image crossorigin="anonymous" x="0" y="0" href="https://nftpuzzle.license-token.com/assets/completepuzzle.svg" width="100%" height="100%" /><g class="links"><use href="#t319"/></g></g></svg><svg x="1969" y="92" height="9%" width="9%" viewBox="0 0 330 330"><g><a xlink:href="https://nftpuzzle.license-token.com/" class="links"><title>See the most innovative NFT based token software licensing project</title><path fill="#E4CF37" id="more" d="M165,0C74.019,0,0,74.019,0,165s74.019,165,165,165s165-74.019,165-165S255.981,0,165,0z M85,190 c-13.785,0-25-11.215-25-25s11.215-25,25-25s25,11.215,25,25S98.785,190,85,190z M165,190c-13.785,0-25-11.215-25-25 s11.215-25,25-25s25,11.215,25,25S178.785,190,165,190z M245,190c-13.785,0-25-11.215-25-25s11.215-25,25-25 c13.785,0,25,11.215,25,25S258.785,190,245,190z"></path></a></g></svg></svg></svg>