<svg version="1.1" xmlns="http://www.w3.org/2000/svg" xmlns:xlink="http://www.w3.org/1999/xlink" fill="transparent" x="0" y="0" width="350" height="350" preserveAspectRatio="xMinYMin slice"><style type="text/css">.links{fill:transparent;stroke: #E4CF37;}.links:hover{fill:#63D272; opacity:0.4;}</style><defs><g id="allt"><path id="t3191" d="M2376,768 L2365,766 C2355,765 2366,778 2357,778 C2348,778 2362,768 2352,768 L2343,768 2343,768 L2342,777 C2341,787 2351,775 2349,783 C2347,792 2339,779 2341,789 L2343,800 2343,800 L2353,799 C2363,798 2350,808 2359,806 C2368,804 2355,796 2365,798 L2376,800 2376,800 L2376,789 C2377,779 2364,794 2367,785 C2370,776 2376,786 2376,777 L2376,768"/></g><clipPath id="c" clipRule="evenodd" fill="transparent"><use href="#t3191"/></clipPath></defs><svg viewBox="2338 764 40 45" preserveAspectRatio="xMinYMin meet"><svg width="4380" height="2430"><g><image crossorigin="anonymous" x="0" y="0" href="https://nftpuzzle.license-token.com/assets/completepuzzle.svg" width="100%" height="100%" /><g class="links"><use href="#t3191"/></g></g></svg><svg x="2363" y="794" height="9%" width="9%" viewBox="0 0 330 330"><g><a xlink:href="https://nftpuzzle.license-token.com/" class="links"><title>See the most innovative NFT based token software licensing project</title><path fill="#E4CF37" id="more" d="M165,0C74.019,0,0,74.019,0,165s74.019,165,165,165s165-74.019,165-165S255.981,0,165,0z M85,190 c-13.785,0-25-11.215-25-25s11.215-25,25-25s25,11.215,25,25S98.785,190,85,190z M165,190c-13.785,0-25-11.215-25-25 s11.215-25,25-25s25,11.215,25,25S178.785,190,165,190z M245,190c-13.785,0-25-11.215-25-25s11.215-25,25-25 c13.785,0,25,11.215,25,25S258.785,190,245,190z"></path></a></g></svg></svg></svg>