<svg version="1.1" xmlns="http://www.w3.org/2000/svg" xmlns:xlink="http://www.w3.org/1999/xlink" fill="transparent" x="0" y="0" width="350" height="350" preserveAspectRatio="xMinYMin slice"><style type="text/css">.links{fill:transparent;stroke: #E4CF37;}.links:hover{fill:#63D272; opacity:0.4;}</style><defs><g id="allt"><path id="t3195" d="M2508,768 L2496,768 C2485,768 2500,764 2490,765 C2480,766 2495,768 2485,768 L2475,768 2475,768 L2474,777 C2474,786 2481,776 2481,785 C2482,794 2473,781 2474,790 L2475,800 2475,800 L2484,799 C2493,799 2483,806 2492,806 C2502,807 2489,798 2498,799 L2508,800 2508,800 L2507,789 C2506,779 2513,790 2513,782 C2513,774 2505,789 2506,778 L2508,768"/></g><clipPath id="c" clipRule="evenodd" fill="transparent"><use href="#t3195"/></clipPath></defs><svg viewBox="2472 763 42 45" preserveAspectRatio="xMinYMin meet"><svg width="4380" height="2430"><g><image crossorigin="anonymous" x="0" y="0" href="https://nftpuzzle.license-token.com/assets/completepuzzle.svg" width="100%" height="100%" /><g class="links"><use href="#t3195"/></g></g></svg><svg x="2499" y="793" height="9%" width="9%" viewBox="0 0 330 330"><g><a xlink:href="https://nftpuzzle.license-token.com/" class="links"><title>See the most innovative NFT based token software licensing project</title><path fill="#E4CF37" id="more" d="M165,0C74.019,0,0,74.019,0,165s74.019,165,165,165s165-74.019,165-165S255.981,0,165,0z M85,190 c-13.785,0-25-11.215-25-25s11.215-25,25-25s25,11.215,25,25S98.785,190,85,190z M165,190c-13.785,0-25-11.215-25-25 s11.215-25,25-25s25,11.215,25,25S178.785,190,165,190z M245,190c-13.785,0-25-11.215-25-25s11.215-25,25-25 c13.785,0,25,11.215,25,25S258.785,190,245,190z"></path></a></g></svg></svg></svg>