<svg version="1.1" xmlns="http://www.w3.org/2000/svg" xmlns:xlink="http://www.w3.org/1999/xlink" fill="transparent" x="0" y="0" width="350" height="350" preserveAspectRatio="xMinYMin slice"><style type="text/css">.links{fill:transparent;stroke: #E4CF37;}.links:hover{fill:#63D272; opacity:0.4;}</style><defs><g id="allt"><path id="t3196" d="M2541,768 L2531,768 C2521,768 2534,760 2525,760 C2517,761 2528,770 2518,769 L2508,768 2508,768 L2506,778 C2505,789 2513,774 2513,782 C2513,790 2506,779 2507,789 L2508,800 2508,800 L2519,798 C2530,797 2514,805 2522,805 C2531,805 2519,798 2530,799 L2541,800 2541,800 L2541,791 C2541,782 2548,791 2546,784 C2545,777 2541,786 2541,777 L2541,768"/></g><clipPath id="c" clipRule="evenodd" fill="transparent"><use href="#t3196"/></clipPath></defs><svg viewBox="2504 759 45 47" preserveAspectRatio="xMinYMin meet"><svg width="4380" height="2430"><g><image crossorigin="anonymous" x="0" y="0" href="https://nftpuzzle.license-token.com/assets/completepuzzle.svg" width="100%" height="100%" /><g class="links"><use href="#t3196"/></g></g></svg><svg x="2534" y="791" height="9%" width="9%" viewBox="0 0 330 330"><g><a xlink:href="https://nftpuzzle.license-token.com/" class="links"><title>See the most innovative NFT based token software licensing project</title><path fill="#E4CF37" id="more" d="M165,0C74.019,0,0,74.019,0,165s74.019,165,165,165s165-74.019,165-165S255.981,0,165,0z M85,190 c-13.785,0-25-11.215-25-25s11.215-25,25-25s25,11.215,25,25S98.785,190,85,190z M165,190c-13.785,0-25-11.215-25-25 s11.215-25,25-25s25,11.215,25,25S178.785,190,165,190z M245,190c-13.785,0-25-11.215-25-25s11.215-25,25-25 c13.785,0,25,11.215,25,25S258.785,190,245,190z"></path></a></g></svg></svg></svg>