<svg version="1.1" xmlns="http://www.w3.org/2000/svg" xmlns:xlink="http://www.w3.org/1999/xlink" fill="transparent" x="0" y="0" width="350" height="350" preserveAspectRatio="xMinYMin slice"><style type="text/css">.links{fill:transparent;stroke: #E4CF37;}.links:hover{fill:#63D272; opacity:0.4;}</style><defs><g id="allt"><path id="t3203" d="M2772,768 L2761,767 C2751,766 2766,771 2755,771 C2744,771 2758,768 2748,768 L2739,768 2739,768 L2740,777 C2741,787 2732,772 2730,782 C2729,792 2743,781 2741,790 L2739,800 2739,800 L2748,801 C2758,802 2743,793 2753,791 C2764,790 2752,804 2762,802 L2772,800 2772,800 L2772,789 C2773,778 2767,794 2766,783 C2766,773 2772,788 2772,778 L2772,768"/></g><clipPath id="c" clipRule="evenodd" fill="transparent"><use href="#t3203"/></clipPath></defs><svg viewBox="2728 765 46 40" preserveAspectRatio="xMinYMin meet"><svg width="4380" height="2430"><g><image crossorigin="anonymous" x="0" y="0" href="https://nftpuzzle.license-token.com/assets/completepuzzle.svg" width="100%" height="100%" /><g class="links"><use href="#t3203"/></g></g></svg><svg x="2759" y="790" height="9%" width="9%" viewBox="0 0 330 330"><g><a xlink:href="https://nftpuzzle.license-token.com/" class="links"><title>See the most innovative NFT based token software licensing project</title><path fill="#E4CF37" id="more" d="M165,0C74.019,0,0,74.019,0,165s74.019,165,165,165s165-74.019,165-165S255.981,0,165,0z M85,190 c-13.785,0-25-11.215-25-25s11.215-25,25-25s25,11.215,25,25S98.785,190,85,190z M165,190c-13.785,0-25-11.215-25-25 s11.215-25,25-25s25,11.215,25,25S178.785,190,165,190z M245,190c-13.785,0-25-11.215-25-25s11.215-25,25-25 c13.785,0,25,11.215,25,25S258.785,190,245,190z"></path></a></g></svg></svg></svg>