<svg version="1.1" xmlns="http://www.w3.org/2000/svg" xmlns:xlink="http://www.w3.org/1999/xlink" fill="transparent" x="0" y="0" width="350" height="350" preserveAspectRatio="xMinYMin slice"><style type="text/css">.links{fill:transparent;stroke: #E4CF37;}.links:hover{fill:#63D272; opacity:0.4;}</style><defs><g id="allt"><path id="t3206" d="M2871,768 L2861,768 C2851,768 2861,762 2853,762 C2845,763 2858,768 2848,768 L2838,768 2838,768 L2837,778 C2836,788 2843,772 2843,781 C2844,791 2836,781 2837,790 L2838,800 2838,800 L2848,799 C2859,798 2842,805 2852,805 C2862,806 2852,798 2861,799 L2871,800 2871,800 L2870,790 C2870,781 2878,793 2877,783 C2877,774 2869,786 2870,777 L2871,768"/></g><clipPath id="c" clipRule="evenodd" fill="transparent"><use href="#t3206"/></clipPath></defs><svg viewBox="2835 761 44 46" preserveAspectRatio="xMinYMin meet"><svg width="4380" height="2430"><g><image crossorigin="anonymous" x="0" y="0" href="https://nftpuzzle.license-token.com/assets/completepuzzle.svg" width="100%" height="100%" /><g class="links"><use href="#t3206"/></g></g></svg><svg x="2864" y="792" height="9%" width="9%" viewBox="0 0 330 330"><g><a xlink:href="https://nftpuzzle.license-token.com/" class="links"><title>See the most innovative NFT based token software licensing project</title><path fill="#E4CF37" id="more" d="M165,0C74.019,0,0,74.019,0,165s74.019,165,165,165s165-74.019,165-165S255.981,0,165,0z M85,190 c-13.785,0-25-11.215-25-25s11.215-25,25-25s25,11.215,25,25S98.785,190,85,190z M165,190c-13.785,0-25-11.215-25-25 s11.215-25,25-25s25,11.215,25,25S178.785,190,165,190z M245,190c-13.785,0-25-11.215-25-25s11.215-25,25-25 c13.785,0,25,11.215,25,25S258.785,190,245,190z"></path></a></g></svg></svg></svg>