<svg version="1.1" xmlns="http://www.w3.org/2000/svg" xmlns:xlink="http://www.w3.org/1999/xlink" fill="transparent" x="0" y="0" width="350" height="350" preserveAspectRatio="xMinYMin slice"><style type="text/css">.links{fill:transparent;stroke: #E4CF37;}.links:hover{fill:#63D272; opacity:0.4;}</style><defs><g id="allt"><path id="t3207" d="M2904,768 L2893,766 C2882,765 2896,772 2886,773 C2876,774 2892,766 2881,767 L2871,768 2871,768 L2870,777 C2869,786 2877,774 2877,783 C2878,793 2870,781 2870,790 L2871,800 2871,800 L2880,799 C2889,798 2877,806 2887,806 C2897,807 2884,799 2894,799 L2904,800 2904,800 L2903,791 C2903,782 2910,792 2911,784 C2913,776 2904,787 2904,777 L2904,768"/></g><clipPath id="c" clipRule="evenodd" fill="transparent"><use href="#t3207"/></clipPath></defs><svg viewBox="2868 764 46 44" preserveAspectRatio="xMinYMin meet"><svg width="4380" height="2430"><g><image crossorigin="anonymous" x="0" y="0" href="https://nftpuzzle.license-token.com/assets/completepuzzle.svg" width="100%" height="100%" /><g class="links"><use href="#t3207"/></g></g></svg><svg x="2899" y="793" height="9%" width="9%" viewBox="0 0 330 330"><g><a xlink:href="https://nftpuzzle.license-token.com/" class="links"><title>See the most innovative NFT based token software licensing project</title><path fill="#E4CF37" id="more" d="M165,0C74.019,0,0,74.019,0,165s74.019,165,165,165s165-74.019,165-165S255.981,0,165,0z M85,190 c-13.785,0-25-11.215-25-25s11.215-25,25-25s25,11.215,25,25S98.785,190,85,190z M165,190c-13.785,0-25-11.215-25-25 s11.215-25,25-25s25,11.215,25,25S178.785,190,165,190z M245,190c-13.785,0-25-11.215-25-25s11.215-25,25-25 c13.785,0,25,11.215,25,25S258.785,190,245,190z"></path></a></g></svg></svg></svg>