<svg version="1.1" xmlns="http://www.w3.org/2000/svg" xmlns:xlink="http://www.w3.org/1999/xlink" fill="transparent" x="0" y="0" width="350" height="350" preserveAspectRatio="xMinYMin slice"><style type="text/css">.links{fill:transparent;stroke: #E4CF37;}.links:hover{fill:#63D272; opacity:0.4;}</style><defs><g id="allt"><path id="t3208" d="M2937,768 L2927,769 C2917,771 2927,762 2917,760 C2908,758 2922,768 2913,768 L2904,768 2904,768 L2904,777 C2904,787 2913,776 2911,784 C2910,792 2903,782 2903,791 L2904,800 2904,800 L2914,800 C2924,800 2912,809 2920,807 C2929,806 2918,799 2927,799 L2937,800 2937,800 L2937,790 C2937,781 2930,792 2928,783 C2927,774 2938,786 2937,777 L2937,768"/></g><clipPath id="c" clipRule="evenodd" fill="transparent"><use href="#t3208"/></clipPath></defs><svg viewBox="2902 757 37 53" preserveAspectRatio="xMinYMin meet"><svg width="4380" height="2430"><g><image crossorigin="anonymous" x="0" y="0" href="https://nftpuzzle.license-token.com/assets/completepuzzle.svg" width="100%" height="100%" /><g class="links"><use href="#t3208"/></g></g></svg><svg x="2924" y="795" height="9%" width="9%" viewBox="0 0 330 330"><g><a xlink:href="https://nftpuzzle.license-token.com/" class="links"><title>See the most innovative NFT based token software licensing project</title><path fill="#E4CF37" id="more" d="M165,0C74.019,0,0,74.019,0,165s74.019,165,165,165s165-74.019,165-165S255.981,0,165,0z M85,190 c-13.785,0-25-11.215-25-25s11.215-25,25-25s25,11.215,25,25S98.785,190,85,190z M165,190c-13.785,0-25-11.215-25-25 s11.215-25,25-25s25,11.215,25,25S178.785,190,165,190z M245,190c-13.785,0-25-11.215-25-25s11.215-25,25-25 c13.785,0,25,11.215,25,25S258.785,190,245,190z"></path></a></g></svg></svg></svg>