<svg version="1.1" xmlns="http://www.w3.org/2000/svg" xmlns:xlink="http://www.w3.org/1999/xlink" fill="transparent" x="0" y="0" width="350" height="350" preserveAspectRatio="xMinYMin slice"><style type="text/css">.links{fill:transparent;stroke: #E4CF37;}.links:hover{fill:#63D272; opacity:0.4;}</style><defs><g id="allt"><path id="t3215" d="M3168,768 L3157,768 C3146,768 3160,773 3152,773 C3144,773 3154,765 3144,766 L3135,768 3135,768 L3135,778 C3136,788 3128,773 3128,782 C3128,791 3135,780 3135,790 L3135,800 3135,800 L3145,800 C3156,801 3140,793 3149,793 C3158,793 3148,800 3158,800 L3168,800 3168,800 L3167,790 C3167,781 3175,793 3173,782 C3172,772 3166,786 3167,777 L3168,768"/></g><clipPath id="c" clipRule="evenodd" fill="transparent"><use href="#t3215"/></clipPath></defs><svg viewBox="3127 764 49 38" preserveAspectRatio="xMinYMin meet"><svg width="4380" height="2430"><g><image crossorigin="anonymous" x="0" y="0" href="https://nftpuzzle.license-token.com/assets/completepuzzle.svg" width="100%" height="100%" /><g class="links"><use href="#t3215"/></g></g></svg><svg x="3161" y="787" height="9%" width="9%" viewBox="0 0 330 330"><g><a xlink:href="https://nftpuzzle.license-token.com/" class="links"><title>See the most innovative NFT based token software licensing project</title><path fill="#E4CF37" id="more" d="M165,0C74.019,0,0,74.019,0,165s74.019,165,165,165s165-74.019,165-165S255.981,0,165,0z M85,190 c-13.785,0-25-11.215-25-25s11.215-25,25-25s25,11.215,25,25S98.785,190,85,190z M165,190c-13.785,0-25-11.215-25-25 s11.215-25,25-25s25,11.215,25,25S178.785,190,165,190z M245,190c-13.785,0-25-11.215-25-25s11.215-25,25-25 c13.785,0,25,11.215,25,25S258.785,190,245,190z"></path></a></g></svg></svg></svg>