<svg version="1.1" xmlns="http://www.w3.org/2000/svg" xmlns:xlink="http://www.w3.org/1999/xlink" fill="transparent" x="0" y="0" width="350" height="350" preserveAspectRatio="xMinYMin slice"><style type="text/css">.links{fill:transparent;stroke: #E4CF37;}.links:hover{fill:#63D272; opacity:0.4;}</style><defs><g id="allt"><path id="t3221" d="M3366,768 L3355,766 C3345,765 3358,779 3349,777 C3341,776 3353,764 3343,766 L3333,768 3333,768 L3334,777 C3335,786 3329,773 3327,784 C3326,795 3333,779 3333,789 L3333,800 3333,800 L3342,801 C3352,802 3338,796 3349,794 C3361,793 3344,800 3355,800 L3366,800 3366,800 L3366,790 C3366,781 3359,794 3360,784 C3361,774 3368,787 3367,777 L3366,768"/></g><clipPath id="c" clipRule="evenodd" fill="transparent"><use href="#t3221"/></clipPath></defs><svg viewBox="3325 763 44 40" preserveAspectRatio="xMinYMin meet"><svg width="4380" height="2430"><g><image crossorigin="anonymous" x="0" y="0" href="https://nftpuzzle.license-token.com/assets/completepuzzle.svg" width="100%" height="100%" /><g class="links"><use href="#t3221"/></g></g></svg><svg x="3354" y="788" height="9%" width="9%" viewBox="0 0 330 330"><g><a xlink:href="https://nftpuzzle.license-token.com/" class="links"><title>See the most innovative NFT based token software licensing project</title><path fill="#E4CF37" id="more" d="M165,0C74.019,0,0,74.019,0,165s74.019,165,165,165s165-74.019,165-165S255.981,0,165,0z M85,190 c-13.785,0-25-11.215-25-25s11.215-25,25-25s25,11.215,25,25S98.785,190,85,190z M165,190c-13.785,0-25-11.215-25-25 s11.215-25,25-25s25,11.215,25,25S178.785,190,165,190z M245,190c-13.785,0-25-11.215-25-25s11.215-25,25-25 c13.785,0,25,11.215,25,25S258.785,190,245,190z"></path></a></g></svg></svg></svg>