<svg version="1.1" xmlns="http://www.w3.org/2000/svg" xmlns:xlink="http://www.w3.org/1999/xlink" fill="transparent" x="0" y="0" width="350" height="350" preserveAspectRatio="xMinYMin slice"><style type="text/css">.links{fill:transparent;stroke: #E4CF37;}.links:hover{fill:#63D272; opacity:0.4;}</style><defs><g id="allt"><path id="t3224" d="M3465,768 L3454,767 C3443,766 3460,774 3450,774 C3441,774 3451,768 3441,768 L3432,768 3432,768 L3432,778 C3432,788 3436,775 3435,783 C3434,792 3432,780 3432,790 L3432,800 3432,800 L3442,800 C3453,800 3439,804 3448,803 C3457,802 3444,800 3454,800 L3465,800 3465,800 L3465,789 C3466,779 3461,792 3461,782 C3462,773 3465,789 3465,778 L3465,768"/></g><clipPath id="c" clipRule="evenodd" fill="transparent"><use href="#t3224"/></clipPath></defs><svg viewBox="3431 765 36 40" preserveAspectRatio="xMinYMin meet"><svg width="4380" height="2430"><g><image crossorigin="anonymous" x="0" y="0" href="https://nftpuzzle.license-token.com/assets/completepuzzle.svg" width="100%" height="100%" /><g class="links"><use href="#t3224"/></g></g></svg><svg x="3452" y="790" height="9%" width="9%" viewBox="0 0 330 330"><g><a xlink:href="https://nftpuzzle.license-token.com/" class="links"><title>See the most innovative NFT based token software licensing project</title><path fill="#E4CF37" id="more" d="M165,0C74.019,0,0,74.019,0,165s74.019,165,165,165s165-74.019,165-165S255.981,0,165,0z M85,190 c-13.785,0-25-11.215-25-25s11.215-25,25-25s25,11.215,25,25S98.785,190,85,190z M165,190c-13.785,0-25-11.215-25-25 s11.215-25,25-25s25,11.215,25,25S178.785,190,165,190z M245,190c-13.785,0-25-11.215-25-25s11.215-25,25-25 c13.785,0,25,11.215,25,25S258.785,190,245,190z"></path></a></g></svg></svg></svg>