<svg version="1.1" xmlns="http://www.w3.org/2000/svg" xmlns:xlink="http://www.w3.org/1999/xlink" fill="transparent" x="0" y="0" width="350" height="350" preserveAspectRatio="xMinYMin slice"><style type="text/css">.links{fill:transparent;stroke: #E4CF37;}.links:hover{fill:#63D272; opacity:0.4;}</style><defs><g id="allt"><path id="t3239" d="M3960,768 L3949,768 C3938,768 3954,773 3944,773 C3935,774 3946,766 3936,767 L3927,768 3927,768 L3927,777 C3927,787 3921,776 3922,785 C3923,795 3929,779 3928,789 L3927,800 3927,800 L3936,800 C3946,800 3935,794 3945,795 C3955,796 3938,802 3949,801 L3960,800 3960,800 L3960,790 C3960,781 3966,794 3965,785 C3965,776 3960,788 3960,778 L3960,768"/></g><clipPath id="c" clipRule="evenodd" fill="transparent"><use href="#t3239"/></clipPath></defs><svg viewBox="3920 765 47 38" preserveAspectRatio="xMinYMin meet"><svg width="4380" height="2430"><g><image crossorigin="anonymous" x="0" y="0" href="https://nftpuzzle.license-token.com/assets/completepuzzle.svg" width="100%" height="100%" /><g class="links"><use href="#t3239"/></g></g></svg><svg x="3952" y="788" height="9%" width="9%" viewBox="0 0 330 330"><g><a xlink:href="https://nftpuzzle.license-token.com/" class="links"><title>See the most innovative NFT based token software licensing project</title><path fill="#E4CF37" id="more" d="M165,0C74.019,0,0,74.019,0,165s74.019,165,165,165s165-74.019,165-165S255.981,0,165,0z M85,190 c-13.785,0-25-11.215-25-25s11.215-25,25-25s25,11.215,25,25S98.785,190,85,190z M165,190c-13.785,0-25-11.215-25-25 s11.215-25,25-25s25,11.215,25,25S178.785,190,165,190z M245,190c-13.785,0-25-11.215-25-25s11.215-25,25-25 c13.785,0,25,11.215,25,25S258.785,190,245,190z"></path></a></g></svg></svg></svg>