<svg version="1.1" xmlns="http://www.w3.org/2000/svg" xmlns:xlink="http://www.w3.org/1999/xlink" fill="transparent" x="0" y="0" width="350" height="350" preserveAspectRatio="xMinYMin slice"><style type="text/css">.links{fill:transparent;stroke: #E4CF37;}.links:hover{fill:#63D272; opacity:0.4;}</style><defs><g id="allt"><path id="t324" d="M2145,64 L2135,65 C2126,66 2139,56 2128,55 C2117,54 2131,68 2121,66 L2112,64 2112,64 L2112,73 C2112,82 2110,73 2109,80 C2108,88 2114,74 2113,85 L2112,96 2112,96 L2121,96 C2131,96 2121,94 2129,93 C2137,92 2123,98 2134,97 L2145,96 2145,96 L2145,87 C2145,78 2135,87 2137,78 C2139,69 2148,83 2146,73 L2145,64"/></g><clipPath id="c" clipRule="evenodd" fill="transparent"><use href="#t324"/></clipPath></defs><svg viewBox="2107 53 42 46" preserveAspectRatio="xMinYMin meet"><svg width="4380" height="2430"><g><image crossorigin="anonymous" x="0" y="0" href="https://nftpuzzle.license-token.com/assets/completepuzzle.svg" width="100%" height="100%" /><g class="links"><use href="#t324"/></g></g></svg><svg x="2134" y="84" height="9%" width="9%" viewBox="0 0 330 330"><g><a xlink:href="https://nftpuzzle.license-token.com/" class="links"><title>See the most innovative NFT based token software licensing project</title><path fill="#E4CF37" id="more" d="M165,0C74.019,0,0,74.019,0,165s74.019,165,165,165s165-74.019,165-165S255.981,0,165,0z M85,190 c-13.785,0-25-11.215-25-25s11.215-25,25-25s25,11.215,25,25S98.785,190,85,190z M165,190c-13.785,0-25-11.215-25-25 s11.215-25,25-25s25,11.215,25,25S178.785,190,165,190z M245,190c-13.785,0-25-11.215-25-25s11.215-25,25-25 c13.785,0,25,11.215,25,25S258.785,190,245,190z"></path></a></g></svg></svg></svg>