<svg version="1.1" xmlns="http://www.w3.org/2000/svg" xmlns:xlink="http://www.w3.org/1999/xlink" fill="transparent" x="0" y="0" width="350" height="350" preserveAspectRatio="xMinYMin slice"><style type="text/css">.links{fill:transparent;stroke: #E4CF37;}.links:hover{fill:#63D272; opacity:0.4;}</style><defs><g id="allt"><path id="t3240" d="M3993,768 L3983,769 C3973,770 3983,765 3975,764 C3967,764 3979,768 3969,768 L3960,768 3960,768 L3960,778 C3960,788 3965,776 3965,785 C3966,794 3960,781 3960,790 L3960,800 3960,800 L3970,800 C3980,800 3968,805 3977,805 C3987,806 3974,800 3983,800 L3993,800 3993,800 L3993,791 C3993,782 3991,793 3991,783 C3991,774 3995,786 3994,777 L3993,768"/></g><clipPath id="c" clipRule="evenodd" fill="transparent"><use href="#t3240"/></clipPath></defs><svg viewBox="3959 763 37 44" preserveAspectRatio="xMinYMin meet"><svg width="4380" height="2430"><g><image crossorigin="anonymous" x="0" y="0" href="https://nftpuzzle.license-token.com/assets/completepuzzle.svg" width="100%" height="100%" /><g class="links"><use href="#t3240"/></g></g></svg><svg x="3981" y="792" height="9%" width="9%" viewBox="0 0 330 330"><g><a xlink:href="https://nftpuzzle.license-token.com/" class="links"><title>See the most innovative NFT based token software licensing project</title><path fill="#E4CF37" id="more" d="M165,0C74.019,0,0,74.019,0,165s74.019,165,165,165s165-74.019,165-165S255.981,0,165,0z M85,190 c-13.785,0-25-11.215-25-25s11.215-25,25-25s25,11.215,25,25S98.785,190,85,190z M165,190c-13.785,0-25-11.215-25-25 s11.215-25,25-25s25,11.215,25,25S178.785,190,165,190z M245,190c-13.785,0-25-11.215-25-25s11.215-25,25-25 c13.785,0,25,11.215,25,25S258.785,190,245,190z"></path></a></g></svg></svg></svg>