<svg version="1.1" xmlns="http://www.w3.org/2000/svg" xmlns:xlink="http://www.w3.org/1999/xlink" fill="transparent" x="0" y="0" width="350" height="350" preserveAspectRatio="xMinYMin slice"><style type="text/css">.links{fill:transparent;stroke: #E4CF37;}.links:hover{fill:#63D272; opacity:0.4;}</style><defs><g id="allt"><path id="t3241" d="M4026,768 L4016,769 C4006,770 4018,764 4009,763 C4001,763 4012,770 4002,769 L3993,768 3993,768 L3994,777 C3995,786 3991,774 3991,783 C3991,793 3993,782 3993,791 L3993,800 3993,800 L4002,801 C4011,802 3999,798 4009,798 C4019,798 4007,800 4016,800 L4026,800 4026,800 L4025,790 C4024,781 4032,792 4030,783 C4028,774 4025,786 4025,777 L4026,768"/></g><clipPath id="c" clipRule="evenodd" fill="transparent"><use href="#t3241"/></clipPath></defs><svg viewBox="3990 762 43 41" preserveAspectRatio="xMinYMin meet"><svg width="4380" height="2430"><g><image crossorigin="anonymous" x="0" y="0" href="https://nftpuzzle.license-token.com/assets/completepuzzle.svg" width="100%" height="100%" /><g class="links"><use href="#t3241"/></g></g></svg><svg x="4018" y="788" height="9%" width="9%" viewBox="0 0 330 330"><g><a xlink:href="https://nftpuzzle.license-token.com/" class="links"><title>See the most innovative NFT based token software licensing project</title><path fill="#E4CF37" id="more" d="M165,0C74.019,0,0,74.019,0,165s74.019,165,165,165s165-74.019,165-165S255.981,0,165,0z M85,190 c-13.785,0-25-11.215-25-25s11.215-25,25-25s25,11.215,25,25S98.785,190,85,190z M165,190c-13.785,0-25-11.215-25-25 s11.215-25,25-25s25,11.215,25,25S178.785,190,165,190z M245,190c-13.785,0-25-11.215-25-25s11.215-25,25-25 c13.785,0,25,11.215,25,25S258.785,190,245,190z"></path></a></g></svg></svg></svg>