<svg version="1.1" xmlns="http://www.w3.org/2000/svg" xmlns:xlink="http://www.w3.org/1999/xlink" fill="transparent" x="0" y="0" width="350" height="350" preserveAspectRatio="xMinYMin slice"><style type="text/css">.links{fill:transparent;stroke: #E4CF37;}.links:hover{fill:#63D272; opacity:0.4;}</style><defs><g id="allt"><path id="t3246" d="M4191,768 L4181,768 C4172,768 4181,765 4174,765 C4167,766 4178,770 4168,769 L4158,768 4158,768 L4157,778 C4156,789 4162,776 4162,784 C4163,793 4157,778 4157,789 L4158,800 4158,800 L4168,799 C4179,798 4166,804 4175,804 C4184,805 4168,799 4179,799 L4191,800 4191,800 L4191,790 C4191,781 4197,792 4198,783 C4200,775 4187,788 4189,778 L4191,768"/></g><clipPath id="c" clipRule="evenodd" fill="transparent"><use href="#t3246"/></clipPath></defs><svg viewBox="4155 764 46 42" preserveAspectRatio="xMinYMin meet"><svg width="4380" height="2430"><g><image crossorigin="anonymous" x="0" y="0" href="https://nftpuzzle.license-token.com/assets/completepuzzle.svg" width="100%" height="100%" /><g class="links"><use href="#t3246"/></g></g></svg><svg x="4186" y="791" height="9%" width="9%" viewBox="0 0 330 330"><g><a xlink:href="https://nftpuzzle.license-token.com/" class="links"><title>See the most innovative NFT based token software licensing project</title><path fill="#E4CF37" id="more" d="M165,0C74.019,0,0,74.019,0,165s74.019,165,165,165s165-74.019,165-165S255.981,0,165,0z M85,190 c-13.785,0-25-11.215-25-25s11.215-25,25-25s25,11.215,25,25S98.785,190,85,190z M165,190c-13.785,0-25-11.215-25-25 s11.215-25,25-25s25,11.215,25,25S178.785,190,165,190z M245,190c-13.785,0-25-11.215-25-25s11.215-25,25-25 c13.785,0,25,11.215,25,25S258.785,190,245,190z"></path></a></g></svg></svg></svg>