<svg version="1.1" xmlns="http://www.w3.org/2000/svg" xmlns:xlink="http://www.w3.org/1999/xlink" fill="transparent" x="0" y="0" width="350" height="350" preserveAspectRatio="xMinYMin slice"><style type="text/css">.links{fill:transparent;stroke: #E4CF37;}.links:hover{fill:#63D272; opacity:0.4;}</style><defs><g id="allt"><path id="t327" d="M2244,64 L2232,64 C2221,65 2234,59 2225,57 C2216,55 2232,65 2221,64 L2211,64 2211,64 L2209,72 C2208,81 2219,69 2220,78 C2221,87 2211,76 2211,86 L2211,96 2211,96 L2220,94 C2229,93 2216,104 2225,105 C2234,106 2223,96 2233,96 L2244,96 2244,96 L2244,85 C2244,75 2237,89 2237,80 C2238,71 2244,84 2244,74 L2244,64"/></g><clipPath id="c" clipRule="evenodd" fill="transparent"><use href="#t327"/></clipPath></defs><svg viewBox="2207 54 38 53" preserveAspectRatio="xMinYMin meet"><svg width="4380" height="2430"><g><image crossorigin="anonymous" x="0" y="0" href="https://nftpuzzle.license-token.com/assets/completepuzzle.svg" width="100%" height="100%" /><g class="links"><use href="#t327"/></g></g></svg><svg x="2230" y="92" height="9%" width="9%" viewBox="0 0 330 330"><g><a xlink:href="https://nftpuzzle.license-token.com/" class="links"><title>See the most innovative NFT based token software licensing project</title><path fill="#E4CF37" id="more" d="M165,0C74.019,0,0,74.019,0,165s74.019,165,165,165s165-74.019,165-165S255.981,0,165,0z M85,190 c-13.785,0-25-11.215-25-25s11.215-25,25-25s25,11.215,25,25S98.785,190,85,190z M165,190c-13.785,0-25-11.215-25-25 s11.215-25,25-25s25,11.215,25,25S178.785,190,165,190z M245,190c-13.785,0-25-11.215-25-25s11.215-25,25-25 c13.785,0,25,11.215,25,25S258.785,190,245,190z"></path></a></g></svg></svg></svg>