<svg version="1.1" xmlns="http://www.w3.org/2000/svg" xmlns:xlink="http://www.w3.org/1999/xlink" fill="transparent" x="0" y="0" width="350" height="350" preserveAspectRatio="xMinYMin slice"><style type="text/css">.links{fill:transparent;stroke: #E4CF37;}.links:hover{fill:#63D272; opacity:0.4;}</style><defs><g id="allt"><path id="t3281" d="M1056,800 L1045,801 C1035,802 1048,796 1038,795 C1028,794 1045,801 1034,800 L1023,800 1023,800 L1023,810 C1023,820 1028,806 1029,815 C1031,825 1020,810 1021,821 L1023,832 1023,832 L1033,832 C1043,832 1029,837 1039,838 C1049,840 1034,829 1045,830 L1056,832 1056,832 L1056,822 C1056,812 1052,826 1051,817 C1051,809 1056,821 1056,810 L1056,800"/></g><clipPath id="c" clipRule="evenodd" fill="transparent"><use href="#t3281"/></clipPath></defs><svg viewBox="1019 793 38 48" preserveAspectRatio="xMinYMin meet"><svg width="4380" height="2430"><g><image crossorigin="anonymous" x="0" y="0" href="https://nftpuzzle.license-token.com/assets/completepuzzle.svg" width="100%" height="100%" /><g class="links"><use href="#t3281"/></g></g></svg><svg x="1042" y="826" height="9%" width="9%" viewBox="0 0 330 330"><g><a xlink:href="https://nftpuzzle.license-token.com/" class="links"><title>See the most innovative NFT based token software licensing project</title><path fill="#E4CF37" id="more" d="M165,0C74.019,0,0,74.019,0,165s74.019,165,165,165s165-74.019,165-165S255.981,0,165,0z M85,190 c-13.785,0-25-11.215-25-25s11.215-25,25-25s25,11.215,25,25S98.785,190,85,190z M165,190c-13.785,0-25-11.215-25-25 s11.215-25,25-25s25,11.215,25,25S178.785,190,165,190z M245,190c-13.785,0-25-11.215-25-25s11.215-25,25-25 c13.785,0,25,11.215,25,25S258.785,190,245,190z"></path></a></g></svg></svg></svg>