<svg version="1.1" xmlns="http://www.w3.org/2000/svg" xmlns:xlink="http://www.w3.org/1999/xlink" fill="transparent" x="0" y="0" width="350" height="350" preserveAspectRatio="xMinYMin slice"><style type="text/css">.links{fill:transparent;stroke: #E4CF37;}.links:hover{fill:#63D272; opacity:0.4;}</style><defs><g id="allt"><path id="t3283" d="M1122,800 L1110,802 C1099,805 1113,792 1104,791 C1096,790 1107,800 1098,800 L1089,800 1089,800 L1089,810 C1089,820 1094,808 1095,817 C1097,827 1089,810 1089,821 L1089,832 1089,832 L1099,832 C1110,832 1097,837 1107,838 C1117,840 1100,832 1111,832 L1122,832 1122,832 L1122,823 C1122,814 1117,826 1117,815 C1117,804 1123,820 1122,810 L1122,800"/></g><clipPath id="c" clipRule="evenodd" fill="transparent"><use href="#t3283"/></clipPath></defs><svg viewBox="1088 789 36 52" preserveAspectRatio="xMinYMin meet"><svg width="4380" height="2430"><g><image crossorigin="anonymous" x="0" y="0" href="https://nftpuzzle.license-token.com/assets/completepuzzle.svg" width="100%" height="100%" /><g class="links"><use href="#t3283"/></g></g></svg><svg x="1109" y="826" height="9%" width="9%" viewBox="0 0 330 330"><g><a xlink:href="https://nftpuzzle.license-token.com/" class="links"><title>See the most innovative NFT based token software licensing project</title><path fill="#E4CF37" id="more" d="M165,0C74.019,0,0,74.019,0,165s74.019,165,165,165s165-74.019,165-165S255.981,0,165,0z M85,190 c-13.785,0-25-11.215-25-25s11.215-25,25-25s25,11.215,25,25S98.785,190,85,190z M165,190c-13.785,0-25-11.215-25-25 s11.215-25,25-25s25,11.215,25,25S178.785,190,165,190z M245,190c-13.785,0-25-11.215-25-25s11.215-25,25-25 c13.785,0,25,11.215,25,25S258.785,190,245,190z"></path></a></g></svg></svg></svg>