<svg version="1.1" xmlns="http://www.w3.org/2000/svg" xmlns:xlink="http://www.w3.org/1999/xlink" fill="transparent" x="0" y="0" width="350" height="350" preserveAspectRatio="xMinYMin slice"><style type="text/css">.links{fill:transparent;stroke: #E4CF37;}.links:hover{fill:#63D272; opacity:0.4;}</style><defs><g id="allt"><path id="t3289" d="M1320,800 L1310,800 C1300,800 1311,792 1302,793 C1294,794 1307,800 1297,800 L1287,800 1287,800 L1287,808 C1287,817 1291,807 1291,815 C1291,824 1285,812 1286,822 L1287,832 1287,832 L1296,832 C1305,832 1294,836 1303,836 C1312,836 1299,830 1309,831 L1320,832 1320,832 L1320,823 C1320,814 1314,827 1314,816 C1315,806 1324,817 1322,808 L1320,800"/></g><clipPath id="c" clipRule="evenodd" fill="transparent"><use href="#t3289"/></clipPath></defs><svg viewBox="1284 791 41 46" preserveAspectRatio="xMinYMin meet"><svg width="4380" height="2430"><g><image crossorigin="anonymous" x="0" y="0" href="https://nftpuzzle.license-token.com/assets/completepuzzle.svg" width="100%" height="100%" /><g class="links"><use href="#t3289"/></g></g></svg><svg x="1310" y="822" height="9%" width="9%" viewBox="0 0 330 330"><g><a xlink:href="https://nftpuzzle.license-token.com/" class="links"><title>See the most innovative NFT based token software licensing project</title><path fill="#E4CF37" id="more" d="M165,0C74.019,0,0,74.019,0,165s74.019,165,165,165s165-74.019,165-165S255.981,0,165,0z M85,190 c-13.785,0-25-11.215-25-25s11.215-25,25-25s25,11.215,25,25S98.785,190,85,190z M165,190c-13.785,0-25-11.215-25-25 s11.215-25,25-25s25,11.215,25,25S178.785,190,165,190z M245,190c-13.785,0-25-11.215-25-25s11.215-25,25-25 c13.785,0,25,11.215,25,25S258.785,190,245,190z"></path></a></g></svg></svg></svg>