<svg version="1.1" xmlns="http://www.w3.org/2000/svg" xmlns:xlink="http://www.w3.org/1999/xlink" fill="transparent" x="0" y="0" width="350" height="350" preserveAspectRatio="xMinYMin slice"><style type="text/css">.links{fill:transparent;stroke: #E4CF37;}.links:hover{fill:#63D272; opacity:0.4;}</style><defs><g id="allt"><path id="t3297" d="M1584,800 L1574,800 C1565,800 1577,794 1568,794 C1559,794 1572,801 1561,800 L1551,800 1551,800 L1550,809 C1550,818 1557,809 1555,817 C1554,825 1551,812 1551,822 L1551,832 1551,832 L1560,831 C1570,831 1560,838 1568,836 C1577,835 1563,832 1573,832 L1584,832 1584,832 L1586,821 C1588,810 1574,825 1574,816 C1575,808 1587,818 1585,809 L1584,800"/></g><clipPath id="c" clipRule="evenodd" fill="transparent"><use href="#t3297"/></clipPath></defs><svg viewBox="1549 793 40 46" preserveAspectRatio="xMinYMin meet"><svg width="4380" height="2430"><g><image crossorigin="anonymous" x="0" y="0" href="https://nftpuzzle.license-token.com/assets/completepuzzle.svg" width="100%" height="100%" /><g class="links"><use href="#t3297"/></g></g></svg><svg x="1574" y="824" height="9%" width="9%" viewBox="0 0 330 330"><g><a xlink:href="https://nftpuzzle.license-token.com/" class="links"><title>See the most innovative NFT based token software licensing project</title><path fill="#E4CF37" id="more" d="M165,0C74.019,0,0,74.019,0,165s74.019,165,165,165s165-74.019,165-165S255.981,0,165,0z M85,190 c-13.785,0-25-11.215-25-25s11.215-25,25-25s25,11.215,25,25S98.785,190,85,190z M165,190c-13.785,0-25-11.215-25-25 s11.215-25,25-25s25,11.215,25,25S178.785,190,165,190z M245,190c-13.785,0-25-11.215-25-25s11.215-25,25-25 c13.785,0,25,11.215,25,25S258.785,190,245,190z"></path></a></g></svg></svg></svg>