<svg version="1.1" xmlns="http://www.w3.org/2000/svg" xmlns:xlink="http://www.w3.org/1999/xlink" fill="transparent" x="0" y="0" width="350" height="350" preserveAspectRatio="xMinYMin slice"><style type="text/css">.links{fill:transparent;stroke: #E4CF37;}.links:hover{fill:#63D272; opacity:0.4;}</style><defs><g id="allt"><path id="t330" d="M2343,64 L2333,64 C2324,64 2333,56 2325,56 C2318,56 2329,66 2319,65 L2310,64 2310,64 L2310,74 C2310,85 2318,72 2318,81 C2318,90 2308,76 2309,86 L2310,96 2310,96 L2320,96 C2331,96 2319,104 2328,104 C2337,104 2322,94 2332,95 L2343,96 2343,96 L2343,86 C2343,77 2338,87 2338,80 C2338,73 2343,81 2343,72 L2343,64"/></g><clipPath id="c" clipRule="evenodd" fill="transparent"><use href="#t330"/></clipPath></defs><svg viewBox="2307 55 37 50" preserveAspectRatio="xMinYMin meet"><svg width="4380" height="2430"><g><image crossorigin="anonymous" x="0" y="0" href="https://nftpuzzle.license-token.com/assets/completepuzzle.svg" width="100%" height="100%" /><g class="links"><use href="#t330"/></g></g></svg><svg x="2329" y="90" height="9%" width="9%" viewBox="0 0 330 330"><g><a xlink:href="https://nftpuzzle.license-token.com/" class="links"><title>See the most innovative NFT based token software licensing project</title><path fill="#E4CF37" id="more" d="M165,0C74.019,0,0,74.019,0,165s74.019,165,165,165s165-74.019,165-165S255.981,0,165,0z M85,190 c-13.785,0-25-11.215-25-25s11.215-25,25-25s25,11.215,25,25S98.785,190,85,190z M165,190c-13.785,0-25-11.215-25-25 s11.215-25,25-25s25,11.215,25,25S178.785,190,165,190z M245,190c-13.785,0-25-11.215-25-25s11.215-25,25-25 c13.785,0,25,11.215,25,25S258.785,190,245,190z"></path></a></g></svg></svg></svg>