<svg version="1.1" xmlns="http://www.w3.org/2000/svg" xmlns:xlink="http://www.w3.org/1999/xlink" fill="transparent" x="0" y="0" width="350" height="350" preserveAspectRatio="xMinYMin slice"><style type="text/css">.links{fill:transparent;stroke: #E4CF37;}.links:hover{fill:#63D272; opacity:0.4;}</style><defs><g id="allt"><path id="t3307" d="M1914,800 L1903,800 C1892,801 1905,796 1896,795 C1887,795 1900,801 1890,800 L1881,800 1881,800 L1879,810 C1877,821 1889,805 1888,813 C1887,822 1880,810 1880,821 L1881,832 1881,832 L1892,830 C1903,828 1886,840 1895,839 C1904,838 1891,831 1902,831 L1914,832 1914,832 L1913,822 C1912,812 1922,825 1923,816 C1924,808 1911,820 1912,810 L1914,800"/></g><clipPath id="c" clipRule="evenodd" fill="transparent"><use href="#t3307"/></clipPath></defs><svg viewBox="1876 794 49 47" preserveAspectRatio="xMinYMin meet"><svg width="4380" height="2430"><g><image crossorigin="anonymous" x="0" y="0" href="https://nftpuzzle.license-token.com/assets/completepuzzle.svg" width="100%" height="100%" /><g class="links"><use href="#t3307"/></g></g></svg><svg x="1910" y="826" height="9%" width="9%" viewBox="0 0 330 330"><g><a xlink:href="https://nftpuzzle.license-token.com/" class="links"><title>See the most innovative NFT based token software licensing project</title><path fill="#E4CF37" id="more" d="M165,0C74.019,0,0,74.019,0,165s74.019,165,165,165s165-74.019,165-165S255.981,0,165,0z M85,190 c-13.785,0-25-11.215-25-25s11.215-25,25-25s25,11.215,25,25S98.785,190,85,190z M165,190c-13.785,0-25-11.215-25-25 s11.215-25,25-25s25,11.215,25,25S178.785,190,165,190z M245,190c-13.785,0-25-11.215-25-25s11.215-25,25-25 c13.785,0,25,11.215,25,25S258.785,190,245,190z"></path></a></g></svg></svg></svg>