<svg version="1.1" xmlns="http://www.w3.org/2000/svg" xmlns:xlink="http://www.w3.org/1999/xlink" fill="transparent" x="0" y="0" width="350" height="350" preserveAspectRatio="xMinYMin slice"><style type="text/css">.links{fill:transparent;stroke: #E4CF37;}.links:hover{fill:#63D272; opacity:0.4;}</style><defs><g id="allt"><path id="t331" d="M2376,64 L2364,64 C2353,65 2370,56 2360,56 C2351,56 2361,64 2352,64 L2343,64 2343,64 L2343,72 C2343,81 2338,73 2338,80 C2338,87 2343,77 2343,86 L2343,96 2343,96 L2352,96 C2361,96 2352,91 2359,91 C2366,91 2357,96 2366,96 L2376,96 2376,96 L2376,85 C2376,74 2382,90 2381,80 C2380,70 2373,82 2374,73 L2376,64"/></g><clipPath id="c" clipRule="evenodd" fill="transparent"><use href="#t331"/></clipPath></defs><svg viewBox="2337 55 46 42" preserveAspectRatio="xMinYMin meet"><svg width="4380" height="2430"><g><image crossorigin="anonymous" x="0" y="0" href="https://nftpuzzle.license-token.com/assets/completepuzzle.svg" width="100%" height="100%" /><g class="links"><use href="#t331"/></g></g></svg><svg x="2368" y="82" height="9%" width="9%" viewBox="0 0 330 330"><g><a xlink:href="https://nftpuzzle.license-token.com/" class="links"><title>See the most innovative NFT based token software licensing project</title><path fill="#E4CF37" id="more" d="M165,0C74.019,0,0,74.019,0,165s74.019,165,165,165s165-74.019,165-165S255.981,0,165,0z M85,190 c-13.785,0-25-11.215-25-25s11.215-25,25-25s25,11.215,25,25S98.785,190,85,190z M165,190c-13.785,0-25-11.215-25-25 s11.215-25,25-25s25,11.215,25,25S178.785,190,165,190z M245,190c-13.785,0-25-11.215-25-25s11.215-25,25-25 c13.785,0,25,11.215,25,25S258.785,190,245,190z"></path></a></g></svg></svg></svg>