<svg version="1.1" xmlns="http://www.w3.org/2000/svg" xmlns:xlink="http://www.w3.org/1999/xlink" fill="transparent" x="0" y="0" width="350" height="350" preserveAspectRatio="xMinYMin slice"><style type="text/css">.links{fill:transparent;stroke: #E4CF37;}.links:hover{fill:#63D272; opacity:0.4;}</style><defs><g id="allt"><path id="t3312" d="M2079,800 L2068,799 C2058,798 2071,808 2061,809 C2051,811 2064,799 2055,799 L2046,800 2046,800 L2046,810 C2046,821 2050,806 2049,816 C2048,827 2046,812 2046,822 L2046,832 2046,832 L2056,832 C2067,832 2052,836 2063,835 C2074,834 2059,832 2069,832 L2079,832 2079,832 L2079,822 C2079,812 2089,826 2086,815 C2084,804 2079,820 2079,810 L2079,800"/></g><clipPath id="c" clipRule="evenodd" fill="transparent"><use href="#t3312"/></clipPath></defs><svg viewBox="2045 797 45 40" preserveAspectRatio="xMinYMin meet"><svg width="4380" height="2430"><g><image crossorigin="anonymous" x="0" y="0" href="https://nftpuzzle.license-token.com/assets/completepuzzle.svg" width="100%" height="100%" /><g class="links"><use href="#t3312"/></g></g></svg><svg x="2075" y="822" height="9%" width="9%" viewBox="0 0 330 330"><g><a xlink:href="https://nftpuzzle.license-token.com/" class="links"><title>See the most innovative NFT based token software licensing project</title><path fill="#E4CF37" id="more" d="M165,0C74.019,0,0,74.019,0,165s74.019,165,165,165s165-74.019,165-165S255.981,0,165,0z M85,190 c-13.785,0-25-11.215-25-25s11.215-25,25-25s25,11.215,25,25S98.785,190,85,190z M165,190c-13.785,0-25-11.215-25-25 s11.215-25,25-25s25,11.215,25,25S178.785,190,165,190z M245,190c-13.785,0-25-11.215-25-25s11.215-25,25-25 c13.785,0,25,11.215,25,25S258.785,190,245,190z"></path></a></g></svg></svg></svg>