<svg version="1.1" xmlns="http://www.w3.org/2000/svg" xmlns:xlink="http://www.w3.org/1999/xlink" fill="transparent" x="0" y="0" width="350" height="350" preserveAspectRatio="xMinYMin slice"><style type="text/css">.links{fill:transparent;stroke: #E4CF37;}.links:hover{fill:#63D272; opacity:0.4;}</style><defs><g id="allt"><path id="t3314" d="M2145,800 L2134,799 C2123,798 2138,809 2128,809 C2118,809 2131,800 2121,800 L2112,800 2112,800 L2112,809 C2112,819 2118,808 2117,817 C2116,826 2112,812 2112,822 L2112,832 2112,832 L2121,832 C2131,832 2121,838 2130,837 C2139,836 2124,832 2134,832 L2145,832 2145,832 L2145,822 C2145,812 2143,824 2143,814 C2143,804 2145,820 2145,810 L2145,800"/></g><clipPath id="c" clipRule="evenodd" fill="transparent"><use href="#t3314"/></clipPath></defs><svg viewBox="2111 797 35 42" preserveAspectRatio="xMinYMin meet"><svg width="4380" height="2430"><g><image crossorigin="anonymous" x="0" y="0" href="https://nftpuzzle.license-token.com/assets/completepuzzle.svg" width="100%" height="100%" /><g class="links"><use href="#t3314"/></g></g></svg><svg x="2131" y="824" height="9%" width="9%" viewBox="0 0 330 330"><g><a xlink:href="https://nftpuzzle.license-token.com/" class="links"><title>See the most innovative NFT based token software licensing project</title><path fill="#E4CF37" id="more" d="M165,0C74.019,0,0,74.019,0,165s74.019,165,165,165s165-74.019,165-165S255.981,0,165,0z M85,190 c-13.785,0-25-11.215-25-25s11.215-25,25-25s25,11.215,25,25S98.785,190,85,190z M165,190c-13.785,0-25-11.215-25-25 s11.215-25,25-25s25,11.215,25,25S178.785,190,165,190z M245,190c-13.785,0-25-11.215-25-25s11.215-25,25-25 c13.785,0,25,11.215,25,25S258.785,190,245,190z"></path></a></g></svg></svg></svg>