<svg version="1.1" xmlns="http://www.w3.org/2000/svg" xmlns:xlink="http://www.w3.org/1999/xlink" fill="transparent" x="0" y="0" width="350" height="350" preserveAspectRatio="xMinYMin slice"><style type="text/css">.links{fill:transparent;stroke: #E4CF37;}.links:hover{fill:#63D272; opacity:0.4;}</style><defs><g id="allt"><path id="t3319" d="M2310,800 L2299,799 C2288,799 2300,811 2293,809 C2286,807 2298,799 2287,799 L2277,800 2277,800 L2277,810 C2277,821 2273,806 2272,816 C2272,826 2279,812 2278,822 L2277,832 2277,832 L2287,832 C2298,832 2283,828 2293,827 C2304,827 2289,834 2299,833 L2310,832 2310,832 L2310,823 C2310,814 2301,823 2302,814 C2303,805 2314,821 2312,810 L2310,800"/></g><clipPath id="c" clipRule="evenodd" fill="transparent"><use href="#t3319"/></clipPath></defs><svg viewBox="2271 798 44 37" preserveAspectRatio="xMinYMin meet"><svg width="4380" height="2430"><g><image crossorigin="anonymous" x="0" y="0" href="https://nftpuzzle.license-token.com/assets/completepuzzle.svg" width="100%" height="100%" /><g class="links"><use href="#t3319"/></g></g></svg><svg x="2300" y="820" height="9%" width="9%" viewBox="0 0 330 330"><g><a xlink:href="https://nftpuzzle.license-token.com/" class="links"><title>See the most innovative NFT based token software licensing project</title><path fill="#E4CF37" id="more" d="M165,0C74.019,0,0,74.019,0,165s74.019,165,165,165s165-74.019,165-165S255.981,0,165,0z M85,190 c-13.785,0-25-11.215-25-25s11.215-25,25-25s25,11.215,25,25S98.785,190,85,190z M165,190c-13.785,0-25-11.215-25-25 s11.215-25,25-25s25,11.215,25,25S178.785,190,165,190z M245,190c-13.785,0-25-11.215-25-25s11.215-25,25-25 c13.785,0,25,11.215,25,25S258.785,190,245,190z"></path></a></g></svg></svg></svg>