<svg version="1.1" xmlns="http://www.w3.org/2000/svg" xmlns:xlink="http://www.w3.org/1999/xlink" fill="transparent" x="0" y="0" width="350" height="350" preserveAspectRatio="xMinYMin slice"><style type="text/css">.links{fill:transparent;stroke: #E4CF37;}.links:hover{fill:#63D272; opacity:0.4;}</style><defs><g id="allt"><path id="t3320" d="M2343,800 L2332,801 C2321,803 2335,788 2325,788 C2316,788 2330,801 2320,800 L2310,800 2310,800 L2312,810 C2314,821 2303,805 2302,814 C2301,823 2310,814 2310,823 L2310,832 2310,832 L2321,834 C2332,836 2315,825 2324,824 C2334,824 2324,832 2333,832 L2343,832 2343,832 L2343,823 C2343,814 2348,824 2348,816 C2348,808 2343,818 2343,809 L2343,800"/></g><clipPath id="c" clipRule="evenodd" fill="transparent"><use href="#t3320"/></clipPath></defs><svg viewBox="2300 787 49 50" preserveAspectRatio="xMinYMin meet"><svg width="4380" height="2430"><g><image crossorigin="anonymous" x="0" y="0" href="https://nftpuzzle.license-token.com/assets/completepuzzle.svg" width="100%" height="100%" /><g class="links"><use href="#t3320"/></g></g></svg><svg x="2334" y="822" height="9%" width="9%" viewBox="0 0 330 330"><g><a xlink:href="https://nftpuzzle.license-token.com/" class="links"><title>See the most innovative NFT based token software licensing project</title><path fill="#E4CF37" id="more" d="M165,0C74.019,0,0,74.019,0,165s74.019,165,165,165s165-74.019,165-165S255.981,0,165,0z M85,190 c-13.785,0-25-11.215-25-25s11.215-25,25-25s25,11.215,25,25S98.785,190,85,190z M165,190c-13.785,0-25-11.215-25-25 s11.215-25,25-25s25,11.215,25,25S178.785,190,165,190z M245,190c-13.785,0-25-11.215-25-25s11.215-25,25-25 c13.785,0,25,11.215,25,25S258.785,190,245,190z"></path></a></g></svg></svg></svg>