<svg version="1.1" xmlns="http://www.w3.org/2000/svg" xmlns:xlink="http://www.w3.org/1999/xlink" fill="transparent" x="0" y="0" width="350" height="350" preserveAspectRatio="xMinYMin slice"><style type="text/css">.links{fill:transparent;stroke: #E4CF37;}.links:hover{fill:#63D272; opacity:0.4;}</style><defs><g id="allt"><path id="t3326" d="M2541,800 L2530,799 C2519,798 2531,805 2522,805 C2514,805 2530,797 2519,798 L2508,800 2508,800 L2508,809 C2509,818 2503,804 2503,813 C2504,823 2510,811 2509,821 L2508,832 2508,832 L2517,832 C2527,833 2512,827 2521,827 C2531,828 2520,834 2530,833 L2541,832 2541,832 L2541,821 C2541,811 2532,824 2532,816 C2533,808 2541,820 2541,810 L2541,800"/></g><clipPath id="c" clipRule="evenodd" fill="transparent"><use href="#t3326"/></clipPath></defs><svg viewBox="2502 796 40 39" preserveAspectRatio="xMinYMin meet"><svg width="4380" height="2430"><g><image crossorigin="anonymous" x="0" y="0" href="https://nftpuzzle.license-token.com/assets/completepuzzle.svg" width="100%" height="100%" /><g class="links"><use href="#t3326"/></g></g></svg><svg x="2527" y="820" height="9%" width="9%" viewBox="0 0 330 330"><g><a xlink:href="https://nftpuzzle.license-token.com/" class="links"><title>See the most innovative NFT based token software licensing project</title><path fill="#E4CF37" id="more" d="M165,0C74.019,0,0,74.019,0,165s74.019,165,165,165s165-74.019,165-165S255.981,0,165,0z M85,190 c-13.785,0-25-11.215-25-25s11.215-25,25-25s25,11.215,25,25S98.785,190,85,190z M165,190c-13.785,0-25-11.215-25-25 s11.215-25,25-25s25,11.215,25,25S178.785,190,165,190z M245,190c-13.785,0-25-11.215-25-25s11.215-25,25-25 c13.785,0,25,11.215,25,25S258.785,190,245,190z"></path></a></g></svg></svg></svg>