<svg version="1.1" xmlns="http://www.w3.org/2000/svg" xmlns:xlink="http://www.w3.org/1999/xlink" fill="transparent" x="0" y="0" width="350" height="350" preserveAspectRatio="xMinYMin slice"><style type="text/css">.links{fill:transparent;stroke: #E4CF37;}.links:hover{fill:#63D272; opacity:0.4;}</style><defs><g id="allt"><path id="t3330" d="M2673,800 L2662,801 C2651,803 2665,796 2655,794 C2645,793 2659,800 2649,800 L2640,800 2640,800 L2640,810 C2640,820 2635,807 2636,815 C2637,823 2640,810 2640,821 L2640,832 2640,832 L2650,832 C2661,832 2647,827 2655,828 C2663,829 2651,832 2662,832 L2673,832 2673,832 L2674,821 C2675,811 2670,822 2668,813 C2667,805 2673,819 2673,809 L2673,800"/></g><clipPath id="c" clipRule="evenodd" fill="transparent"><use href="#t3330"/></clipPath></defs><svg viewBox="2634 792 42 41" preserveAspectRatio="xMinYMin meet"><svg width="4380" height="2430"><g><image crossorigin="anonymous" x="0" y="0" href="https://nftpuzzle.license-token.com/assets/completepuzzle.svg" width="100%" height="100%" /><g class="links"><use href="#t3330"/></g></g></svg><svg x="2661" y="818" height="9%" width="9%" viewBox="0 0 330 330"><g><a xlink:href="https://nftpuzzle.license-token.com/" class="links"><title>See the most innovative NFT based token software licensing project</title><path fill="#E4CF37" id="more" d="M165,0C74.019,0,0,74.019,0,165s74.019,165,165,165s165-74.019,165-165S255.981,0,165,0z M85,190 c-13.785,0-25-11.215-25-25s11.215-25,25-25s25,11.215,25,25S98.785,190,85,190z M165,190c-13.785,0-25-11.215-25-25 s11.215-25,25-25s25,11.215,25,25S178.785,190,165,190z M245,190c-13.785,0-25-11.215-25-25s11.215-25,25-25 c13.785,0,25,11.215,25,25S258.785,190,245,190z"></path></a></g></svg></svg></svg>