<svg version="1.1" xmlns="http://www.w3.org/2000/svg" xmlns:xlink="http://www.w3.org/1999/xlink" fill="transparent" x="0" y="0" width="350" height="350" preserveAspectRatio="xMinYMin slice"><style type="text/css">.links{fill:transparent;stroke: #E4CF37;}.links:hover{fill:#63D272; opacity:0.4;}</style><defs><g id="allt"><path id="t3341" d="M3036,800 L3026,800 C3017,800 3026,806 3018,806 C3011,806 3022,799 3012,799 L3003,800 3003,800 L3003,808 C3003,817 3007,805 3007,815 C3008,825 3000,810 3001,821 L3003,832 3003,832 L3012,832 C3021,832 3008,836 3018,836 C3029,837 3014,829 3025,830 L3036,832 3036,832 L3035,821 C3035,811 3041,825 3039,815 C3038,806 3036,820 3036,810 L3036,800"/></g><clipPath id="c" clipRule="evenodd" fill="transparent"><use href="#t3341"/></clipPath></defs><svg viewBox="2999 798 43 40" preserveAspectRatio="xMinYMin meet"><svg width="4380" height="2430"><g><image crossorigin="anonymous" x="0" y="0" href="https://nftpuzzle.license-token.com/assets/completepuzzle.svg" width="100%" height="100%" /><g class="links"><use href="#t3341"/></g></g></svg><svg x="3027" y="823" height="9%" width="9%" viewBox="0 0 330 330"><g><a xlink:href="https://nftpuzzle.license-token.com/" class="links"><title>See the most innovative NFT based token software licensing project</title><path fill="#E4CF37" id="more" d="M165,0C74.019,0,0,74.019,0,165s74.019,165,165,165s165-74.019,165-165S255.981,0,165,0z M85,190 c-13.785,0-25-11.215-25-25s11.215-25,25-25s25,11.215,25,25S98.785,190,85,190z M165,190c-13.785,0-25-11.215-25-25 s11.215-25,25-25s25,11.215,25,25S178.785,190,165,190z M245,190c-13.785,0-25-11.215-25-25s11.215-25,25-25 c13.785,0,25,11.215,25,25S258.785,190,245,190z"></path></a></g></svg></svg></svg>