<svg version="1.1" xmlns="http://www.w3.org/2000/svg" xmlns:xlink="http://www.w3.org/1999/xlink" fill="transparent" x="0" y="0" width="350" height="350" preserveAspectRatio="xMinYMin slice"><style type="text/css">.links{fill:transparent;stroke: #E4CF37;}.links:hover{fill:#63D272; opacity:0.4;}</style><defs><g id="allt"><path id="t3343" d="M3102,800 L3092,798 C3083,797 3095,808 3085,808 C3075,808 3090,798 3079,799 L3069,800 3069,800 L3070,809 C3071,818 3062,807 3059,815 C3057,823 3074,810 3071,821 L3069,832 3069,832 L3078,833 C3088,834 3076,825 3084,822 C3092,820 3079,837 3090,834 L3102,832 3102,832 L3102,822 C3102,812 3111,822 3111,815 C3111,809 3099,818 3100,809 L3102,800"/></g><clipPath id="c" clipRule="evenodd" fill="transparent"><use href="#t3343"/></clipPath></defs><svg viewBox="3056 796 56 42" preserveAspectRatio="xMinYMin meet"><svg width="4380" height="2430"><g><image crossorigin="anonymous" x="0" y="0" href="https://nftpuzzle.license-token.com/assets/completepuzzle.svg" width="100%" height="100%" /><g class="links"><use href="#t3343"/></g></g></svg><svg x="3097" y="823" height="9%" width="9%" viewBox="0 0 330 330"><g><a xlink:href="https://nftpuzzle.license-token.com/" class="links"><title>See the most innovative NFT based token software licensing project</title><path fill="#E4CF37" id="more" d="M165,0C74.019,0,0,74.019,0,165s74.019,165,165,165s165-74.019,165-165S255.981,0,165,0z M85,190 c-13.785,0-25-11.215-25-25s11.215-25,25-25s25,11.215,25,25S98.785,190,85,190z M165,190c-13.785,0-25-11.215-25-25 s11.215-25,25-25s25,11.215,25,25S178.785,190,165,190z M245,190c-13.785,0-25-11.215-25-25s11.215-25,25-25 c13.785,0,25,11.215,25,25S258.785,190,245,190z"></path></a></g></svg></svg></svg>