<svg version="1.1" xmlns="http://www.w3.org/2000/svg" xmlns:xlink="http://www.w3.org/1999/xlink" fill="transparent" x="0" y="0" width="350" height="350" preserveAspectRatio="xMinYMin slice"><style type="text/css">.links{fill:transparent;stroke: #E4CF37;}.links:hover{fill:#63D272; opacity:0.4;}</style><defs><g id="allt"><path id="t3344" d="M3135,800 L3123,800 C3112,800 3125,807 3117,806 C3109,806 3122,796 3112,798 L3102,800 3102,800 L3100,809 C3099,818 3111,809 3111,815 C3111,822 3102,812 3102,822 L3102,832 3102,832 L3111,830 C3121,829 3111,841 3118,841 C3125,841 3115,832 3125,832 L3135,832 3135,832 L3135,823 C3135,814 3127,825 3128,815 C3130,805 3135,819 3135,809 L3135,800"/></g><clipPath id="c" clipRule="evenodd" fill="transparent"><use href="#t3344"/></clipPath></defs><svg viewBox="3098 795 38 47" preserveAspectRatio="xMinYMin meet"><svg width="4380" height="2430"><g><image crossorigin="anonymous" x="0" y="0" href="https://nftpuzzle.license-token.com/assets/completepuzzle.svg" width="100%" height="100%" /><g class="links"><use href="#t3344"/></g></g></svg><svg x="3121" y="827" height="9%" width="9%" viewBox="0 0 330 330"><g><a xlink:href="https://nftpuzzle.license-token.com/" class="links"><title>See the most innovative NFT based token software licensing project</title><path fill="#E4CF37" id="more" d="M165,0C74.019,0,0,74.019,0,165s74.019,165,165,165s165-74.019,165-165S255.981,0,165,0z M85,190 c-13.785,0-25-11.215-25-25s11.215-25,25-25s25,11.215,25,25S98.785,190,85,190z M165,190c-13.785,0-25-11.215-25-25 s11.215-25,25-25s25,11.215,25,25S178.785,190,165,190z M245,190c-13.785,0-25-11.215-25-25s11.215-25,25-25 c13.785,0,25,11.215,25,25S258.785,190,245,190z"></path></a></g></svg></svg></svg>