<svg version="1.1" xmlns="http://www.w3.org/2000/svg" xmlns:xlink="http://www.w3.org/1999/xlink" fill="transparent" x="0" y="0" width="350" height="350" preserveAspectRatio="xMinYMin slice"><style type="text/css">.links{fill:transparent;stroke: #E4CF37;}.links:hover{fill:#63D272; opacity:0.4;}</style><defs><g id="allt"><path id="t3346" d="M3201,800 L3191,799 C3181,799 3194,807 3183,805 C3172,804 3187,798 3177,799 L3168,800 3168,800 L3166,809 C3165,818 3173,808 3172,816 C3172,824 3165,813 3166,822 L3168,832 3168,832 L3177,830 C3187,829 3177,837 3185,836 C3193,836 3181,829 3191,830 L3201,832 3201,832 L3200,821 C3199,811 3205,827 3206,817 C3208,807 3199,819 3200,809 L3201,800"/></g><clipPath id="c" clipRule="evenodd" fill="transparent"><use href="#t3346"/></clipPath></defs><svg viewBox="3164 797 45 41" preserveAspectRatio="xMinYMin meet"><svg width="4380" height="2430"><g><image crossorigin="anonymous" x="0" y="0" href="https://nftpuzzle.license-token.com/assets/completepuzzle.svg" width="100%" height="100%" /><g class="links"><use href="#t3346"/></g></g></svg><svg x="3194" y="823" height="9%" width="9%" viewBox="0 0 330 330"><g><a xlink:href="https://nftpuzzle.license-token.com/" class="links"><title>See the most innovative NFT based token software licensing project</title><path fill="#E4CF37" id="more" d="M165,0C74.019,0,0,74.019,0,165s74.019,165,165,165s165-74.019,165-165S255.981,0,165,0z M85,190 c-13.785,0-25-11.215-25-25s11.215-25,25-25s25,11.215,25,25S98.785,190,85,190z M165,190c-13.785,0-25-11.215-25-25 s11.215-25,25-25s25,11.215,25,25S178.785,190,165,190z M245,190c-13.785,0-25-11.215-25-25s11.215-25,25-25 c13.785,0,25,11.215,25,25S258.785,190,245,190z"></path></a></g></svg></svg></svg>