<svg version="1.1" xmlns="http://www.w3.org/2000/svg" xmlns:xlink="http://www.w3.org/1999/xlink" fill="transparent" x="0" y="0" width="350" height="350" preserveAspectRatio="xMinYMin slice"><style type="text/css">.links{fill:transparent;stroke: #E4CF37;}.links:hover{fill:#63D272; opacity:0.4;}</style><defs><g id="allt"><path id="t335" d="M2508,64 L2497,63 C2487,62 2498,70 2489,69 C2481,68 2493,62 2484,63 L2475,64 2475,64 L2475,73 C2475,83 2469,69 2465,79 C2462,90 2475,77 2475,86 L2475,96 2475,96 L2484,96 C2494,96 2480,90 2491,87 C2502,84 2488,96 2498,96 L2508,96 2508,96 L2508,86 C2508,77 2515,89 2515,80 C2516,72 2507,84 2507,74 L2508,64"/></g><clipPath id="c" clipRule="evenodd" fill="transparent"><use href="#t335"/></clipPath></defs><svg viewBox="2461 61 56 36" preserveAspectRatio="xMinYMin meet"><svg width="4380" height="2430"><g><image crossorigin="anonymous" x="0" y="0" href="https://nftpuzzle.license-token.com/assets/completepuzzle.svg" width="100%" height="100%" /><g class="links"><use href="#t335"/></g></g></svg><svg x="2502" y="82" height="9%" width="9%" viewBox="0 0 330 330"><g><a xlink:href="https://nftpuzzle.license-token.com/" class="links"><title>See the most innovative NFT based token software licensing project</title><path fill="#E4CF37" id="more" d="M165,0C74.019,0,0,74.019,0,165s74.019,165,165,165s165-74.019,165-165S255.981,0,165,0z M85,190 c-13.785,0-25-11.215-25-25s11.215-25,25-25s25,11.215,25,25S98.785,190,85,190z M165,190c-13.785,0-25-11.215-25-25 s11.215-25,25-25s25,11.215,25,25S178.785,190,165,190z M245,190c-13.785,0-25-11.215-25-25s11.215-25,25-25 c13.785,0,25,11.215,25,25S258.785,190,245,190z"></path></a></g></svg></svg></svg>