<svg version="1.1" xmlns="http://www.w3.org/2000/svg" xmlns:xlink="http://www.w3.org/1999/xlink" fill="transparent" x="0" y="0" width="350" height="350" preserveAspectRatio="xMinYMin slice"><style type="text/css">.links{fill:transparent;stroke: #E4CF37;}.links:hover{fill:#63D272; opacity:0.4;}</style><defs><g id="allt"><path id="t3352" d="M3399,800 L3389,800 C3379,800 3393,793 3382,794 C3372,795 3386,802 3376,801 L3366,800 3366,800 L3366,810 C3366,820 3364,809 3363,817 C3363,825 3368,812 3367,822 L3366,832 3366,832 L3376,832 C3387,832 3375,830 3383,829 C3392,829 3378,834 3388,833 L3399,832 3399,832 L3399,822 C3399,812 3394,826 3395,817 C3396,809 3399,820 3399,810 L3399,800"/></g><clipPath id="c" clipRule="evenodd" fill="transparent"><use href="#t3352"/></clipPath></defs><svg viewBox="3362 792 38 43" preserveAspectRatio="xMinYMin meet"><svg width="4380" height="2430"><g><image crossorigin="anonymous" x="0" y="0" href="https://nftpuzzle.license-token.com/assets/completepuzzle.svg" width="100%" height="100%" /><g class="links"><use href="#t3352"/></g></g></svg><svg x="3385" y="820" height="9%" width="9%" viewBox="0 0 330 330"><g><a xlink:href="https://nftpuzzle.license-token.com/" class="links"><title>See the most innovative NFT based token software licensing project</title><path fill="#E4CF37" id="more" d="M165,0C74.019,0,0,74.019,0,165s74.019,165,165,165s165-74.019,165-165S255.981,0,165,0z M85,190 c-13.785,0-25-11.215-25-25s11.215-25,25-25s25,11.215,25,25S98.785,190,85,190z M165,190c-13.785,0-25-11.215-25-25 s11.215-25,25-25s25,11.215,25,25S178.785,190,165,190z M245,190c-13.785,0-25-11.215-25-25s11.215-25,25-25 c13.785,0,25,11.215,25,25S258.785,190,245,190z"></path></a></g></svg></svg></svg>