<svg version="1.1" xmlns="http://www.w3.org/2000/svg" xmlns:xlink="http://www.w3.org/1999/xlink" fill="transparent" x="0" y="0" width="350" height="350" preserveAspectRatio="xMinYMin slice"><style type="text/css">.links{fill:transparent;stroke: #E4CF37;}.links:hover{fill:#63D272; opacity:0.4;}</style><defs><g id="allt"><path id="t3354" d="M3465,800 L3454,800 C3444,800 3457,802 3448,803 C3439,804 3453,800 3442,800 L3432,800 3432,800 L3433,810 C3435,821 3428,808 3428,816 C3428,824 3434,812 3433,822 L3432,832 3432,832 L3442,833 C3453,835 3441,828 3449,828 C3457,828 3445,834 3455,833 L3465,832 3465,832 L3464,822 C3463,813 3473,827 3472,816 C3472,805 3462,821 3463,810 L3465,800"/></g><clipPath id="c" clipRule="evenodd" fill="transparent"><use href="#t3354"/></clipPath></defs><svg viewBox="3427 799 47 37" preserveAspectRatio="xMinYMin meet"><svg width="4380" height="2430"><g><image crossorigin="anonymous" x="0" y="0" href="https://nftpuzzle.license-token.com/assets/completepuzzle.svg" width="100%" height="100%" /><g class="links"><use href="#t3354"/></g></g></svg><svg x="3459" y="821" height="9%" width="9%" viewBox="0 0 330 330"><g><a xlink:href="https://nftpuzzle.license-token.com/" class="links"><title>See the most innovative NFT based token software licensing project</title><path fill="#E4CF37" id="more" d="M165,0C74.019,0,0,74.019,0,165s74.019,165,165,165s165-74.019,165-165S255.981,0,165,0z M85,190 c-13.785,0-25-11.215-25-25s11.215-25,25-25s25,11.215,25,25S98.785,190,85,190z M165,190c-13.785,0-25-11.215-25-25 s11.215-25,25-25s25,11.215,25,25S178.785,190,165,190z M245,190c-13.785,0-25-11.215-25-25s11.215-25,25-25 c13.785,0,25,11.215,25,25S258.785,190,245,190z"></path></a></g></svg></svg></svg>