<svg version="1.1" xmlns="http://www.w3.org/2000/svg" xmlns:xlink="http://www.w3.org/1999/xlink" fill="transparent" x="0" y="0" width="350" height="350" preserveAspectRatio="xMinYMin slice"><style type="text/css">.links{fill:transparent;stroke: #E4CF37;}.links:hover{fill:#63D272; opacity:0.4;}</style><defs><g id="allt"><path id="t3360" d="M3663,800 L3652,799 C3641,798 3656,806 3647,805 C3638,805 3649,800 3639,800 L3630,800 3630,800 L3631,809 C3632,819 3624,807 3624,815 C3625,824 3632,814 3631,823 L3630,832 3630,832 L3639,833 C3649,834 3637,826 3646,826 C3655,827 3644,834 3653,833 L3663,832 3663,832 L3663,822 C3663,813 3652,825 3654,816 C3656,807 3663,818 3663,809 L3663,800"/></g><clipPath id="c" clipRule="evenodd" fill="transparent"><use href="#t3360"/></clipPath></defs><svg viewBox="3623 797 41 38" preserveAspectRatio="xMinYMin meet"><svg width="4380" height="2430"><g><image crossorigin="anonymous" x="0" y="0" href="https://nftpuzzle.license-token.com/assets/completepuzzle.svg" width="100%" height="100%" /><g class="links"><use href="#t3360"/></g></g></svg><svg x="3649" y="820" height="9%" width="9%" viewBox="0 0 330 330"><g><a xlink:href="https://nftpuzzle.license-token.com/" class="links"><title>See the most innovative NFT based token software licensing project</title><path fill="#E4CF37" id="more" d="M165,0C74.019,0,0,74.019,0,165s74.019,165,165,165s165-74.019,165-165S255.981,0,165,0z M85,190 c-13.785,0-25-11.215-25-25s11.215-25,25-25s25,11.215,25,25S98.785,190,85,190z M165,190c-13.785,0-25-11.215-25-25 s11.215-25,25-25s25,11.215,25,25S178.785,190,165,190z M245,190c-13.785,0-25-11.215-25-25s11.215-25,25-25 c13.785,0,25,11.215,25,25S258.785,190,245,190z"></path></a></g></svg></svg></svg>