<svg version="1.1" xmlns="http://www.w3.org/2000/svg" xmlns:xlink="http://www.w3.org/1999/xlink" fill="transparent" x="0" y="0" width="350" height="350" preserveAspectRatio="xMinYMin slice"><style type="text/css">.links{fill:transparent;stroke: #E4CF37;}.links:hover{fill:#63D272; opacity:0.4;}</style><defs><g id="allt"><path id="t3366" d="M3861,800 L3850,799 C3839,799 3855,803 3845,803 C3836,803 3847,800 3837,800 L3828,800 3828,800 L3830,808 C3832,817 3820,805 3821,815 C3823,826 3833,811 3830,821 L3828,832 3828,832 L3837,834 C3846,836 3833,824 3844,825 C3855,827 3839,837 3850,834 L3861,832 3861,832 L3861,821 C3861,810 3855,824 3854,814 C3853,805 3861,819 3861,809 L3861,800"/></g><clipPath id="c" clipRule="evenodd" fill="transparent"><use href="#t3366"/></clipPath></defs><svg viewBox="3819 798 43 40" preserveAspectRatio="xMinYMin meet"><svg width="4380" height="2430"><g><image crossorigin="anonymous" x="0" y="0" href="https://nftpuzzle.license-token.com/assets/completepuzzle.svg" width="100%" height="100%" /><g class="links"><use href="#t3366"/></g></g></svg><svg x="3847" y="823" height="9%" width="9%" viewBox="0 0 330 330"><g><a xlink:href="https://nftpuzzle.license-token.com/" class="links"><title>See the most innovative NFT based token software licensing project</title><path fill="#E4CF37" id="more" d="M165,0C74.019,0,0,74.019,0,165s74.019,165,165,165s165-74.019,165-165S255.981,0,165,0z M85,190 c-13.785,0-25-11.215-25-25s11.215-25,25-25s25,11.215,25,25S98.785,190,85,190z M165,190c-13.785,0-25-11.215-25-25 s11.215-25,25-25s25,11.215,25,25S178.785,190,165,190z M245,190c-13.785,0-25-11.215-25-25s11.215-25,25-25 c13.785,0,25,11.215,25,25S258.785,190,245,190z"></path></a></g></svg></svg></svg>