<svg version="1.1" xmlns="http://www.w3.org/2000/svg" xmlns:xlink="http://www.w3.org/1999/xlink" fill="transparent" x="0" y="0" width="350" height="350" preserveAspectRatio="xMinYMin slice"><style type="text/css">.links{fill:transparent;stroke: #E4CF37;}.links:hover{fill:#63D272; opacity:0.4;}</style><defs><g id="allt"><path id="t3369" d="M3960,800 L3949,801 C3938,802 3955,796 3945,795 C3935,794 3946,800 3936,800 L3927,800 3927,800 L3926,808 C3925,817 3940,808 3939,817 C3939,826 3927,813 3927,822 L3927,832 3927,832 L3936,831 C3945,830 3935,844 3944,844 C3954,844 3940,832 3950,832 L3960,832 3960,832 L3960,822 C3960,812 3956,826 3955,816 C3955,807 3963,821 3961,810 L3960,800"/></g><clipPath id="c" clipRule="evenodd" fill="transparent"><use href="#t3369"/></clipPath></defs><svg viewBox="3924 793 40 52" preserveAspectRatio="xMinYMin meet"><svg width="4380" height="2430"><g><image crossorigin="anonymous" x="0" y="0" href="https://nftpuzzle.license-token.com/assets/completepuzzle.svg" width="100%" height="100%" /><g class="links"><use href="#t3369"/></g></g></svg><svg x="3949" y="830" height="9%" width="9%" viewBox="0 0 330 330"><g><a xlink:href="https://nftpuzzle.license-token.com/" class="links"><title>See the most innovative NFT based token software licensing project</title><path fill="#E4CF37" id="more" d="M165,0C74.019,0,0,74.019,0,165s74.019,165,165,165s165-74.019,165-165S255.981,0,165,0z M85,190 c-13.785,0-25-11.215-25-25s11.215-25,25-25s25,11.215,25,25S98.785,190,85,190z M165,190c-13.785,0-25-11.215-25-25 s11.215-25,25-25s25,11.215,25,25S178.785,190,165,190z M245,190c-13.785,0-25-11.215-25-25s11.215-25,25-25 c13.785,0,25,11.215,25,25S258.785,190,245,190z"></path></a></g></svg></svg></svg>