<svg version="1.1" xmlns="http://www.w3.org/2000/svg" xmlns:xlink="http://www.w3.org/1999/xlink" fill="transparent" x="0" y="0" width="350" height="350" preserveAspectRatio="xMinYMin slice"><style type="text/css">.links{fill:transparent;stroke: #E4CF37;}.links:hover{fill:#63D272; opacity:0.4;}</style><defs><g id="allt"><path id="t3376" d="M4191,800 L4179,799 C4168,799 4184,805 4175,804 C4166,804 4179,798 4168,799 L4158,800 4158,800 L4157,810 C4156,821 4163,807 4163,816 C4164,825 4155,812 4156,822 L4158,832 4158,832 L4168,831 C4179,830 4165,837 4174,837 C4184,838 4171,829 4181,830 L4191,832 4191,832 L4190,821 C4189,811 4194,825 4194,815 C4194,805 4189,820 4190,810 L4191,800"/></g><clipPath id="c" clipRule="evenodd" fill="transparent"><use href="#t3376"/></clipPath></defs><svg viewBox="4154 797 41 42" preserveAspectRatio="xMinYMin meet"><svg width="4380" height="2430"><g><image crossorigin="anonymous" x="0" y="0" href="https://nftpuzzle.license-token.com/assets/completepuzzle.svg" width="100%" height="100%" /><g class="links"><use href="#t3376"/></g></g></svg><svg x="4180" y="824" height="9%" width="9%" viewBox="0 0 330 330"><g><a xlink:href="https://nftpuzzle.license-token.com/" class="links"><title>See the most innovative NFT based token software licensing project</title><path fill="#E4CF37" id="more" d="M165,0C74.019,0,0,74.019,0,165s74.019,165,165,165s165-74.019,165-165S255.981,0,165,0z M85,190 c-13.785,0-25-11.215-25-25s11.215-25,25-25s25,11.215,25,25S98.785,190,85,190z M165,190c-13.785,0-25-11.215-25-25 s11.215-25,25-25s25,11.215,25,25S178.785,190,165,190z M245,190c-13.785,0-25-11.215-25-25s11.215-25,25-25 c13.785,0,25,11.215,25,25S258.785,190,245,190z"></path></a></g></svg></svg></svg>