<svg version="1.1" xmlns="http://www.w3.org/2000/svg" xmlns:xlink="http://www.w3.org/1999/xlink" fill="transparent" x="0" y="0" width="350" height="350" preserveAspectRatio="xMinYMin slice"><style type="text/css">.links{fill:transparent;stroke: #E4CF37;}.links:hover{fill:#63D272; opacity:0.4;}</style><defs><g id="allt"><path id="t3378" d="M4257,800 L4246,800 C4235,800 4247,798 4237,797 C4228,797 4244,801 4234,800 L4224,800 4224,800 L4225,810 C4227,820 4219,806 4217,815 C4216,825 4226,811 4225,821 L4224,832 4224,832 L4234,833 C4245,835 4230,827 4240,825 C4250,824 4236,834 4246,833 L4257,832 4257,832 L4256,822 C4255,812 4264,823 4265,814 C4266,805 4257,820 4257,810 L4257,800"/></g><clipPath id="c" clipRule="evenodd" fill="transparent"><use href="#t3378"/></clipPath></defs><svg viewBox="4215 796 52 40" preserveAspectRatio="xMinYMin meet"><svg width="4380" height="2430"><g><image crossorigin="anonymous" x="0" y="0" href="https://nftpuzzle.license-token.com/assets/completepuzzle.svg" width="100%" height="100%" /><g class="links"><use href="#t3378"/></g></g></svg><svg x="4252" y="821" height="9%" width="9%" viewBox="0 0 330 330"><g><a xlink:href="https://nftpuzzle.license-token.com/" class="links"><title>See the most innovative NFT based token software licensing project</title><path fill="#E4CF37" id="more" d="M165,0C74.019,0,0,74.019,0,165s74.019,165,165,165s165-74.019,165-165S255.981,0,165,0z M85,190 c-13.785,0-25-11.215-25-25s11.215-25,25-25s25,11.215,25,25S98.785,190,85,190z M165,190c-13.785,0-25-11.215-25-25 s11.215-25,25-25s25,11.215,25,25S178.785,190,165,190z M245,190c-13.785,0-25-11.215-25-25s11.215-25,25-25 c13.785,0,25,11.215,25,25S258.785,190,245,190z"></path></a></g></svg></svg></svg>