<svg version="1.1" xmlns="http://www.w3.org/2000/svg" xmlns:xlink="http://www.w3.org/1999/xlink" fill="transparent" x="0" y="0" width="350" height="350" preserveAspectRatio="xMinYMin slice"><style type="text/css">.links{fill:transparent;stroke: #E4CF37;}.links:hover{fill:#63D272; opacity:0.4;}</style><defs><g id="allt"><path id="t341" d="M2706,64 L2695,63 C2684,62 2698,70 2688,71 C2678,73 2693,62 2683,63 L2673,64 2673,64 L2673,73 C2673,83 2679,72 2679,80 C2679,88 2673,77 2673,86 L2673,96 2673,96 L2682,96 C2692,96 2681,102 2689,102 C2698,102 2687,96 2696,96 L2706,96 2706,96 L2706,87 C2706,78 2703,90 2703,80 C2703,71 2706,83 2706,73 L2706,64"/></g><clipPath id="c" clipRule="evenodd" fill="transparent"><use href="#t341"/></clipPath></defs><svg viewBox="2672 61 35 42" preserveAspectRatio="xMinYMin meet"><svg width="4380" height="2430"><g><image crossorigin="anonymous" x="0" y="0" href="https://nftpuzzle.license-token.com/assets/completepuzzle.svg" width="100%" height="100%" /><g class="links"><use href="#t341"/></g></g></svg><svg x="2692" y="88" height="9%" width="9%" viewBox="0 0 330 330"><g><a xlink:href="https://nftpuzzle.license-token.com/" class="links"><title>See the most innovative NFT based token software licensing project</title><path fill="#E4CF37" id="more" d="M165,0C74.019,0,0,74.019,0,165s74.019,165,165,165s165-74.019,165-165S255.981,0,165,0z M85,190 c-13.785,0-25-11.215-25-25s11.215-25,25-25s25,11.215,25,25S98.785,190,85,190z M165,190c-13.785,0-25-11.215-25-25 s11.215-25,25-25s25,11.215,25,25S178.785,190,165,190z M245,190c-13.785,0-25-11.215-25-25s11.215-25,25-25 c13.785,0,25,11.215,25,25S258.785,190,245,190z"></path></a></g></svg></svg></svg>