<svg version="1.1" xmlns="http://www.w3.org/2000/svg" xmlns:xlink="http://www.w3.org/1999/xlink" fill="transparent" x="0" y="0" width="350" height="350" preserveAspectRatio="xMinYMin slice"><style type="text/css">.links{fill:transparent;stroke: #E4CF37;}.links:hover{fill:#63D272; opacity:0.4;}</style><defs><g id="allt"><path id="t3411" d="M1056,832 L1045,830 C1034,829 1049,840 1039,838 C1029,837 1043,832 1033,832 L1023,832 1023,832 L1023,840 C1024,849 1020,841 1019,848 C1019,855 1023,845 1023,854 L1023,864 1023,864 L1032,864 C1041,865 1032,861 1039,860 C1047,860 1037,864 1046,864 L1056,864 1056,864 L1057,853 C1058,843 1048,854 1049,846 C1051,838 1058,853 1057,842 L1056,832"/></g><clipPath id="c" clipRule="evenodd" fill="transparent"><use href="#t3411"/></clipPath></defs><svg viewBox="1018 828 41 38" preserveAspectRatio="xMinYMin meet"><svg width="4380" height="2430"><g><image crossorigin="anonymous" x="0" y="0" href="https://nftpuzzle.license-token.com/assets/completepuzzle.svg" width="100%" height="100%" /><g class="links"><use href="#t3411"/></g></g></svg><svg x="1044" y="851" height="9%" width="9%" viewBox="0 0 330 330"><g><a xlink:href="https://nftpuzzle.license-token.com/" class="links"><title>See the most innovative NFT based token software licensing project</title><path fill="#E4CF37" id="more" d="M165,0C74.019,0,0,74.019,0,165s74.019,165,165,165s165-74.019,165-165S255.981,0,165,0z M85,190 c-13.785,0-25-11.215-25-25s11.215-25,25-25s25,11.215,25,25S98.785,190,85,190z M165,190c-13.785,0-25-11.215-25-25 s11.215-25,25-25s25,11.215,25,25S178.785,190,165,190z M245,190c-13.785,0-25-11.215-25-25s11.215-25,25-25 c13.785,0,25,11.215,25,25S258.785,190,245,190z"></path></a></g></svg></svg></svg>