<svg version="1.1" xmlns="http://www.w3.org/2000/svg" xmlns:xlink="http://www.w3.org/1999/xlink" fill="transparent" x="0" y="0" width="350" height="350" preserveAspectRatio="xMinYMin slice"><style type="text/css">.links{fill:transparent;stroke: #E4CF37;}.links:hover{fill:#63D272; opacity:0.4;}</style><defs><g id="allt"><path id="t342" d="M2739,64 L2729,64 C2720,64 2732,73 2722,72 C2713,71 2725,64 2715,64 L2706,64 2706,64 L2706,73 C2706,83 2703,71 2703,80 C2703,90 2706,78 2706,87 L2706,96 2706,96 L2716,96 C2726,96 2713,93 2723,93 C2733,93 2720,96 2729,96 L2739,96 2739,96 L2741,86 C2743,77 2733,88 2732,79 C2732,70 2741,83 2740,73 L2739,64"/></g><clipPath id="c" clipRule="evenodd" fill="transparent"><use href="#t342"/></clipPath></defs><svg viewBox="2702 63 42 34" preserveAspectRatio="xMinYMin meet"><svg width="4380" height="2430"><g><image crossorigin="anonymous" x="0" y="0" href="https://nftpuzzle.license-token.com/assets/completepuzzle.svg" width="100%" height="100%" /><g class="links"><use href="#t342"/></g></g></svg><svg x="2729" y="82" height="9%" width="9%" viewBox="0 0 330 330"><g><a xlink:href="https://nftpuzzle.license-token.com/" class="links"><title>See the most innovative NFT based token software licensing project</title><path fill="#E4CF37" id="more" d="M165,0C74.019,0,0,74.019,0,165s74.019,165,165,165s165-74.019,165-165S255.981,0,165,0z M85,190 c-13.785,0-25-11.215-25-25s11.215-25,25-25s25,11.215,25,25S98.785,190,85,190z M165,190c-13.785,0-25-11.215-25-25 s11.215-25,25-25s25,11.215,25,25S178.785,190,165,190z M245,190c-13.785,0-25-11.215-25-25s11.215-25,25-25 c13.785,0,25,11.215,25,25S258.785,190,245,190z"></path></a></g></svg></svg></svg>