<svg version="1.1" xmlns="http://www.w3.org/2000/svg" xmlns:xlink="http://www.w3.org/1999/xlink" fill="transparent" x="0" y="0" width="350" height="350" preserveAspectRatio="xMinYMin slice"><style type="text/css">.links{fill:transparent;stroke: #E4CF37;}.links:hover{fill:#63D272; opacity:0.4;}</style><defs><g id="allt"><path id="t3421" d="M1386,832 L1376,832 C1366,832 1379,839 1369,839 C1360,840 1372,827 1362,829 L1353,832 1353,832 L1353,841 C1354,851 1349,839 1348,847 C1347,855 1353,844 1353,854 L1353,864 1353,864 L1362,864 C1372,865 1360,860 1368,859 C1376,858 1365,864 1375,864 L1386,864 1386,864 L1386,854 C1386,844 1391,855 1394,846 C1398,838 1382,853 1384,842 L1386,832"/></g><clipPath id="c" clipRule="evenodd" fill="transparent"><use href="#t3421"/></clipPath></defs><svg viewBox="1346 826 53 40" preserveAspectRatio="xMinYMin meet"><svg width="4380" height="2430"><g><image crossorigin="anonymous" x="0" y="0" href="https://nftpuzzle.license-token.com/assets/completepuzzle.svg" width="100%" height="100%" /><g class="links"><use href="#t3421"/></g></g></svg><svg x="1384" y="851" height="9%" width="9%" viewBox="0 0 330 330"><g><a xlink:href="https://nftpuzzle.license-token.com/" class="links"><title>See the most innovative NFT based token software licensing project</title><path fill="#E4CF37" id="more" d="M165,0C74.019,0,0,74.019,0,165s74.019,165,165,165s165-74.019,165-165S255.981,0,165,0z M85,190 c-13.785,0-25-11.215-25-25s11.215-25,25-25s25,11.215,25,25S98.785,190,85,190z M165,190c-13.785,0-25-11.215-25-25 s11.215-25,25-25s25,11.215,25,25S178.785,190,165,190z M245,190c-13.785,0-25-11.215-25-25s11.215-25,25-25 c13.785,0,25,11.215,25,25S258.785,190,245,190z"></path></a></g></svg></svg></svg>