<svg version="1.1" xmlns="http://www.w3.org/2000/svg" xmlns:xlink="http://www.w3.org/1999/xlink" fill="transparent" x="0" y="0" width="350" height="350" preserveAspectRatio="xMinYMin slice"><style type="text/css">.links{fill:transparent;stroke: #E4CF37;}.links:hover{fill:#63D272; opacity:0.4;}</style><defs><g id="allt"><path id="t3428" d="M1617,832 L1605,834 C1594,836 1610,822 1601,823 C1592,824 1603,835 1593,833 L1584,832 1584,832 L1584,842 C1585,853 1577,836 1578,845 C1579,854 1585,844 1584,854 L1584,864 1584,864 L1595,864 C1606,865 1588,857 1597,858 C1607,859 1596,865 1606,864 L1617,864 1617,864 L1617,853 C1617,842 1620,857 1621,849 C1622,841 1615,851 1616,841 L1617,832"/></g><clipPath id="c" clipRule="evenodd" fill="transparent"><use href="#t3428"/></clipPath></defs><svg viewBox="1576 821 47 45" preserveAspectRatio="xMinYMin meet"><svg width="4380" height="2430"><g><image crossorigin="anonymous" x="0" y="0" href="https://nftpuzzle.license-token.com/assets/completepuzzle.svg" width="100%" height="100%" /><g class="links"><use href="#t3428"/></g></g></svg><svg x="1608" y="851" height="9%" width="9%" viewBox="0 0 330 330"><g><a xlink:href="https://nftpuzzle.license-token.com/" class="links"><title>See the most innovative NFT based token software licensing project</title><path fill="#E4CF37" id="more" d="M165,0C74.019,0,0,74.019,0,165s74.019,165,165,165s165-74.019,165-165S255.981,0,165,0z M85,190 c-13.785,0-25-11.215-25-25s11.215-25,25-25s25,11.215,25,25S98.785,190,85,190z M165,190c-13.785,0-25-11.215-25-25 s11.215-25,25-25s25,11.215,25,25S178.785,190,165,190z M245,190c-13.785,0-25-11.215-25-25s11.215-25,25-25 c13.785,0,25,11.215,25,25S258.785,190,245,190z"></path></a></g></svg></svg></svg>