<svg version="1.1" xmlns="http://www.w3.org/2000/svg" xmlns:xlink="http://www.w3.org/1999/xlink" fill="transparent" x="0" y="0" width="350" height="350" preserveAspectRatio="xMinYMin slice"><style type="text/css">.links{fill:transparent;stroke: #E4CF37;}.links:hover{fill:#63D272; opacity:0.4;}</style><defs><g id="allt"><path id="t3429" d="M1650,832 L1639,832 C1628,832 1642,830 1632,828 C1622,826 1636,832 1626,832 L1617,832 1617,832 L1616,841 C1615,851 1622,841 1621,849 C1620,857 1617,842 1617,853 L1617,864 1617,864 L1626,863 C1636,862 1626,869 1634,868 C1643,867 1628,864 1639,864 L1650,864 1650,864 L1651,855 C1653,846 1640,855 1641,847 C1642,840 1650,853 1650,842 L1650,832"/></g><clipPath id="c" clipRule="evenodd" fill="transparent"><use href="#t3429"/></clipPath></defs><svg viewBox="1614 825 40 45" preserveAspectRatio="xMinYMin meet"><svg width="4380" height="2430"><g><image crossorigin="anonymous" x="0" y="0" href="https://nftpuzzle.license-token.com/assets/completepuzzle.svg" width="100%" height="100%" /><g class="links"><use href="#t3429"/></g></g></svg><svg x="1639" y="855" height="9%" width="9%" viewBox="0 0 330 330"><g><a xlink:href="https://nftpuzzle.license-token.com/" class="links"><title>See the most innovative NFT based token software licensing project</title><path fill="#E4CF37" id="more" d="M165,0C74.019,0,0,74.019,0,165s74.019,165,165,165s165-74.019,165-165S255.981,0,165,0z M85,190 c-13.785,0-25-11.215-25-25s11.215-25,25-25s25,11.215,25,25S98.785,190,85,190z M165,190c-13.785,0-25-11.215-25-25 s11.215-25,25-25s25,11.215,25,25S178.785,190,165,190z M245,190c-13.785,0-25-11.215-25-25s11.215-25,25-25 c13.785,0,25,11.215,25,25S258.785,190,245,190z"></path></a></g></svg></svg></svg>