<svg version="1.1" xmlns="http://www.w3.org/2000/svg" xmlns:xlink="http://www.w3.org/1999/xlink" fill="transparent" x="0" y="0" width="350" height="350" preserveAspectRatio="xMinYMin slice"><style type="text/css">.links{fill:transparent;stroke: #E4CF37;}.links:hover{fill:#63D272; opacity:0.4;}</style><defs><g id="allt"><path id="t3436" d="M1881,832 L1870,832 C1859,832 1876,844 1864,843 C1853,842 1867,833 1857,832 L1848,832 1848,832 L1850,841 C1852,850 1838,838 1840,847 C1843,856 1851,844 1849,854 L1848,864 1848,864 L1857,866 C1867,868 1854,854 1863,856 C1872,859 1860,867 1870,865 L1881,864 1881,864 L1881,854 C1881,844 1877,854 1876,845 C1876,837 1882,850 1881,841 L1881,832"/></g><clipPath id="c" clipRule="evenodd" fill="transparent"><use href="#t3436"/></clipPath></defs><svg viewBox="1837 831 46 38" preserveAspectRatio="xMinYMin meet"><svg width="4380" height="2430"><g><image crossorigin="anonymous" x="0" y="0" href="https://nftpuzzle.license-token.com/assets/completepuzzle.svg" width="100%" height="100%" /><g class="links"><use href="#t3436"/></g></g></svg><svg x="1868" y="854" height="9%" width="9%" viewBox="0 0 330 330"><g><a xlink:href="https://nftpuzzle.license-token.com/" class="links"><title>See the most innovative NFT based token software licensing project</title><path fill="#E4CF37" id="more" d="M165,0C74.019,0,0,74.019,0,165s74.019,165,165,165s165-74.019,165-165S255.981,0,165,0z M85,190 c-13.785,0-25-11.215-25-25s11.215-25,25-25s25,11.215,25,25S98.785,190,85,190z M165,190c-13.785,0-25-11.215-25-25 s11.215-25,25-25s25,11.215,25,25S178.785,190,165,190z M245,190c-13.785,0-25-11.215-25-25s11.215-25,25-25 c13.785,0,25,11.215,25,25S258.785,190,245,190z"></path></a></g></svg></svg></svg>