<svg version="1.1" xmlns="http://www.w3.org/2000/svg" xmlns:xlink="http://www.w3.org/1999/xlink" fill="transparent" x="0" y="0" width="350" height="350" preserveAspectRatio="xMinYMin slice"><style type="text/css">.links{fill:transparent;stroke: #E4CF37;}.links:hover{fill:#63D272; opacity:0.4;}</style><defs><g id="allt"><path id="t3452" d="M2409,832 L2398,832 C2388,833 2401,830 2392,829 C2383,828 2394,832 2385,832 L2376,832 2376,832 L2373,841 C2371,850 2387,839 2385,848 C2383,858 2375,842 2375,853 L2376,864 2376,864 L2385,861 C2394,859 2383,874 2393,872 C2403,871 2386,863 2397,863 L2409,864 2409,864 L2409,854 C2409,844 2403,856 2404,848 C2405,841 2410,851 2409,841 L2409,832"/></g><clipPath id="c" clipRule="evenodd" fill="transparent"><use href="#t3452"/></clipPath></defs><svg viewBox="2370 827 41 48" preserveAspectRatio="xMinYMin meet"><svg width="4380" height="2430"><g><image crossorigin="anonymous" x="0" y="0" href="https://nftpuzzle.license-token.com/assets/completepuzzle.svg" width="100%" height="100%" /><g class="links"><use href="#t3452"/></g></g></svg><svg x="2396" y="860" height="9%" width="9%" viewBox="0 0 330 330"><g><a xlink:href="https://nftpuzzle.license-token.com/" class="links"><title>See the most innovative NFT based token software licensing project</title><path fill="#E4CF37" id="more" d="M165,0C74.019,0,0,74.019,0,165s74.019,165,165,165s165-74.019,165-165S255.981,0,165,0z M85,190 c-13.785,0-25-11.215-25-25s11.215-25,25-25s25,11.215,25,25S98.785,190,85,190z M165,190c-13.785,0-25-11.215-25-25 s11.215-25,25-25s25,11.215,25,25S178.785,190,165,190z M245,190c-13.785,0-25-11.215-25-25s11.215-25,25-25 c13.785,0,25,11.215,25,25S258.785,190,245,190z"></path></a></g></svg></svg></svg>