<svg version="1.1" xmlns="http://www.w3.org/2000/svg" xmlns:xlink="http://www.w3.org/1999/xlink" fill="transparent" x="0" y="0" width="350" height="350" preserveAspectRatio="xMinYMin slice"><style type="text/css">.links{fill:transparent;stroke: #E4CF37;}.links:hover{fill:#63D272; opacity:0.4;}</style><defs><g id="allt"><path id="t3456" d="M2541,832 L2530,833 C2520,834 2531,828 2521,827 C2512,827 2527,833 2517,832 L2508,832 2508,832 L2508,841 C2508,850 2506,837 2506,847 C2506,858 2510,844 2509,854 L2508,864 2508,864 L2517,864 C2526,864 2513,862 2524,862 C2535,862 2521,866 2531,865 L2541,864 2541,864 L2538,854 C2536,845 2554,856 2552,847 C2551,839 2540,851 2540,841 L2541,832"/></g><clipPath id="c" clipRule="evenodd" fill="transparent"><use href="#t3456"/></clipPath></defs><svg viewBox="2505 826 50 41" preserveAspectRatio="xMinYMin meet"><svg width="4380" height="2430"><g><image crossorigin="anonymous" x="0" y="0" href="https://nftpuzzle.license-token.com/assets/completepuzzle.svg" width="100%" height="100%" /><g class="links"><use href="#t3456"/></g></g></svg><svg x="2540" y="852" height="9%" width="9%" viewBox="0 0 330 330"><g><a xlink:href="https://nftpuzzle.license-token.com/" class="links"><title>See the most innovative NFT based token software licensing project</title><path fill="#E4CF37" id="more" d="M165,0C74.019,0,0,74.019,0,165s74.019,165,165,165s165-74.019,165-165S255.981,0,165,0z M85,190 c-13.785,0-25-11.215-25-25s11.215-25,25-25s25,11.215,25,25S98.785,190,85,190z M165,190c-13.785,0-25-11.215-25-25 s11.215-25,25-25s25,11.215,25,25S178.785,190,165,190z M245,190c-13.785,0-25-11.215-25-25s11.215-25,25-25 c13.785,0,25,11.215,25,25S258.785,190,245,190z"></path></a></g></svg></svg></svg>