<svg version="1.1" xmlns="http://www.w3.org/2000/svg" xmlns:xlink="http://www.w3.org/1999/xlink" fill="transparent" x="0" y="0" width="350" height="350" preserveAspectRatio="xMinYMin slice"><style type="text/css">.links{fill:transparent;stroke: #E4CF37;}.links:hover{fill:#63D272; opacity:0.4;}</style><defs><g id="allt"><path id="t3458" d="M2607,832 L2597,832 C2587,832 2601,838 2591,839 C2582,841 2593,831 2583,831 L2574,832 2574,832 L2574,841 C2574,851 2564,838 2564,846 C2564,854 2574,844 2574,854 L2574,864 2574,864 L2583,864 C2593,864 2580,854 2588,854 C2597,855 2586,864 2596,864 L2607,864 2607,864 L2607,853 C2607,843 2614,858 2616,849 C2618,841 2607,852 2607,842 L2607,832"/></g><clipPath id="c" clipRule="evenodd" fill="transparent"><use href="#t3458"/></clipPath></defs><svg viewBox="2563 830 56 35" preserveAspectRatio="xMinYMin meet"><svg width="4380" height="2430"><g><image crossorigin="anonymous" x="0" y="0" href="https://nftpuzzle.license-token.com/assets/completepuzzle.svg" width="100%" height="100%" /><g class="links"><use href="#t3458"/></g></g></svg><svg x="2604" y="850" height="9%" width="9%" viewBox="0 0 330 330"><g><a xlink:href="https://nftpuzzle.license-token.com/" class="links"><title>See the most innovative NFT based token software licensing project</title><path fill="#E4CF37" id="more" d="M165,0C74.019,0,0,74.019,0,165s74.019,165,165,165s165-74.019,165-165S255.981,0,165,0z M85,190 c-13.785,0-25-11.215-25-25s11.215-25,25-25s25,11.215,25,25S98.785,190,85,190z M165,190c-13.785,0-25-11.215-25-25 s11.215-25,25-25s25,11.215,25,25S178.785,190,165,190z M245,190c-13.785,0-25-11.215-25-25s11.215-25,25-25 c13.785,0,25,11.215,25,25S258.785,190,245,190z"></path></a></g></svg></svg></svg>