<svg version="1.1" xmlns="http://www.w3.org/2000/svg" xmlns:xlink="http://www.w3.org/1999/xlink" fill="transparent" x="0" y="0" width="350" height="350" preserveAspectRatio="xMinYMin slice"><style type="text/css">.links{fill:transparent;stroke: #E4CF37;}.links:hover{fill:#63D272; opacity:0.4;}</style><defs><g id="allt"><path id="t3461" d="M2706,832 L2695,833 C2685,834 2696,829 2687,827 C2678,826 2693,832 2683,832 L2673,832 2673,832 L2672,842 C2672,853 2677,841 2677,849 C2678,857 2672,842 2672,853 L2673,864 2673,864 L2683,863 C2694,863 2682,868 2690,868 C2699,869 2683,863 2694,863 L2706,864 2706,864 L2706,855 C2707,846 2702,855 2703,846 C2704,838 2708,849 2707,840 L2706,832"/></g><clipPath id="c" clipRule="evenodd" fill="transparent"><use href="#t3461"/></clipPath></defs><svg viewBox="2671 825 38 45" preserveAspectRatio="xMinYMin meet"><svg width="4380" height="2430"><g><image crossorigin="anonymous" x="0" y="0" href="https://nftpuzzle.license-token.com/assets/completepuzzle.svg" width="100%" height="100%" /><g class="links"><use href="#t3461"/></g></g></svg><svg x="2694" y="855" height="9%" width="9%" viewBox="0 0 330 330"><g><a xlink:href="https://nftpuzzle.license-token.com/" class="links"><title>See the most innovative NFT based token software licensing project</title><path fill="#E4CF37" id="more" d="M165,0C74.019,0,0,74.019,0,165s74.019,165,165,165s165-74.019,165-165S255.981,0,165,0z M85,190 c-13.785,0-25-11.215-25-25s11.215-25,25-25s25,11.215,25,25S98.785,190,85,190z M165,190c-13.785,0-25-11.215-25-25 s11.215-25,25-25s25,11.215,25,25S178.785,190,165,190z M245,190c-13.785,0-25-11.215-25-25s11.215-25,25-25 c13.785,0,25,11.215,25,25S258.785,190,245,190z"></path></a></g></svg></svg></svg>