<svg version="1.1" xmlns="http://www.w3.org/2000/svg" xmlns:xlink="http://www.w3.org/1999/xlink" fill="transparent" x="0" y="0" width="350" height="350" preserveAspectRatio="xMinYMin slice"><style type="text/css">.links{fill:transparent;stroke: #E4CF37;}.links:hover{fill:#63D272; opacity:0.4;}</style><defs><g id="allt"><path id="t3466" d="M2871,832 L2861,832 C2851,832 2862,840 2854,840 C2847,840 2857,832 2847,832 L2838,832 2838,832 L2838,841 C2838,850 2831,840 2831,847 C2832,854 2838,846 2838,855 L2838,864 2838,864 L2847,864 C2857,864 2847,857 2854,857 C2861,858 2852,864 2861,864 L2871,864 2871,864 L2871,854 C2871,844 2877,855 2876,847 C2875,840 2870,852 2870,842 L2871,832"/></g><clipPath id="c" clipRule="evenodd" fill="transparent"><use href="#t3466"/></clipPath></defs><svg viewBox="2830 831 48 34" preserveAspectRatio="xMinYMin meet"><svg width="4380" height="2430"><g><image crossorigin="anonymous" x="0" y="0" href="https://nftpuzzle.license-token.com/assets/completepuzzle.svg" width="100%" height="100%" /><g class="links"><use href="#t3466"/></g></g></svg><svg x="2863" y="850" height="9%" width="9%" viewBox="0 0 330 330"><g><a xlink:href="https://nftpuzzle.license-token.com/" class="links"><title>See the most innovative NFT based token software licensing project</title><path fill="#E4CF37" id="more" d="M165,0C74.019,0,0,74.019,0,165s74.019,165,165,165s165-74.019,165-165S255.981,0,165,0z M85,190 c-13.785,0-25-11.215-25-25s11.215-25,25-25s25,11.215,25,25S98.785,190,85,190z M165,190c-13.785,0-25-11.215-25-25 s11.215-25,25-25s25,11.215,25,25S178.785,190,165,190z M245,190c-13.785,0-25-11.215-25-25s11.215-25,25-25 c13.785,0,25,11.215,25,25S258.785,190,245,190z"></path></a></g></svg></svg></svg>