<svg version="1.1" xmlns="http://www.w3.org/2000/svg" xmlns:xlink="http://www.w3.org/1999/xlink" fill="transparent" x="0" y="0" width="350" height="350" preserveAspectRatio="xMinYMin slice"><style type="text/css">.links{fill:transparent;stroke: #E4CF37;}.links:hover{fill:#63D272; opacity:0.4;}</style><defs><g id="allt"><path id="t3468" d="M2937,832 L2926,831 C2915,831 2930,838 2921,838 C2912,838 2924,832 2914,832 L2904,832 2904,832 L2904,841 C2905,851 2900,841 2897,849 C2894,858 2904,846 2904,855 L2904,864 2904,864 L2914,864 C2924,865 2913,860 2922,857 C2931,854 2918,864 2927,864 L2937,864 2937,864 L2937,853 C2937,843 2929,857 2931,849 C2933,841 2938,850 2937,841 L2937,832"/></g><clipPath id="c" clipRule="evenodd" fill="transparent"><use href="#t3468"/></clipPath></defs><svg viewBox="2893 830 46 36" preserveAspectRatio="xMinYMin meet"><svg width="4380" height="2430"><g><image crossorigin="anonymous" x="0" y="0" href="https://nftpuzzle.license-token.com/assets/completepuzzle.svg" width="100%" height="100%" /><g class="links"><use href="#t3468"/></g></g></svg><svg x="2924" y="851" height="9%" width="9%" viewBox="0 0 330 330"><g><a xlink:href="https://nftpuzzle.license-token.com/" class="links"><title>See the most innovative NFT based token software licensing project</title><path fill="#E4CF37" id="more" d="M165,0C74.019,0,0,74.019,0,165s74.019,165,165,165s165-74.019,165-165S255.981,0,165,0z M85,190 c-13.785,0-25-11.215-25-25s11.215-25,25-25s25,11.215,25,25S98.785,190,85,190z M165,190c-13.785,0-25-11.215-25-25 s11.215-25,25-25s25,11.215,25,25S178.785,190,165,190z M245,190c-13.785,0-25-11.215-25-25s11.215-25,25-25 c13.785,0,25,11.215,25,25S258.785,190,245,190z"></path></a></g></svg></svg></svg>