<svg version="1.1" xmlns="http://www.w3.org/2000/svg" xmlns:xlink="http://www.w3.org/1999/xlink" fill="transparent" x="0" y="0" width="350" height="350" preserveAspectRatio="xMinYMin slice"><style type="text/css">.links{fill:transparent;stroke: #E4CF37;}.links:hover{fill:#63D272; opacity:0.4;}</style><defs><g id="allt"><path id="t347" d="M2904,64 L2893,64 C2882,64 2895,61 2885,60 C2876,60 2890,64 2880,64 L2871,64 2871,64 L2871,74 C2871,84 2861,71 2862,79 C2863,87 2873,75 2872,85 L2871,96 2871,96 L2881,96 C2892,96 2878,86 2886,87 C2895,88 2882,98 2893,97 L2904,96 2904,96 L2904,85 C2904,74 2908,90 2909,81 C2910,72 2904,85 2904,74 L2904,64"/></g><clipPath id="c" clipRule="evenodd" fill="transparent"><use href="#t347"/></clipPath></defs><svg viewBox="2860 59 51 40" preserveAspectRatio="xMinYMin meet"><svg width="4380" height="2430"><g><image crossorigin="anonymous" x="0" y="0" href="https://nftpuzzle.license-token.com/assets/completepuzzle.svg" width="100%" height="100%" /><g class="links"><use href="#t347"/></g></g></svg><svg x="2896" y="84" height="9%" width="9%" viewBox="0 0 330 330"><g><a xlink:href="https://nftpuzzle.license-token.com/" class="links"><title>See the most innovative NFT based token software licensing project</title><path fill="#E4CF37" id="more" d="M165,0C74.019,0,0,74.019,0,165s74.019,165,165,165s165-74.019,165-165S255.981,0,165,0z M85,190 c-13.785,0-25-11.215-25-25s11.215-25,25-25s25,11.215,25,25S98.785,190,85,190z M165,190c-13.785,0-25-11.215-25-25 s11.215-25,25-25s25,11.215,25,25S178.785,190,165,190z M245,190c-13.785,0-25-11.215-25-25s11.215-25,25-25 c13.785,0,25,11.215,25,25S258.785,190,245,190z"></path></a></g></svg></svg></svg>