<svg version="1.1" xmlns="http://www.w3.org/2000/svg" xmlns:xlink="http://www.w3.org/1999/xlink" fill="transparent" x="0" y="0" width="350" height="350" preserveAspectRatio="xMinYMin slice"><style type="text/css">.links{fill:transparent;stroke: #E4CF37;}.links:hover{fill:#63D272; opacity:0.4;}</style><defs><g id="allt"><path id="t3477" d="M3234,832 L3223,831 C3212,830 3229,836 3218,837 C3208,839 3221,830 3211,831 L3201,832 3201,832 L3201,841 C3201,850 3207,837 3207,845 C3208,854 3201,844 3201,854 L3201,864 3201,864 L3210,864 C3219,864 3206,870 3215,870 C3224,871 3214,864 3224,864 L3234,864 3234,864 L3234,853 C3234,843 3237,859 3238,849 C3240,839 3232,849 3233,840 L3234,832"/></g><clipPath id="c" clipRule="evenodd" fill="transparent"><use href="#t3477"/></clipPath></defs><svg viewBox="3200 829 41 43" preserveAspectRatio="xMinYMin meet"><svg width="4380" height="2430"><g><image crossorigin="anonymous" x="0" y="0" href="https://nftpuzzle.license-token.com/assets/completepuzzle.svg" width="100%" height="100%" /><g class="links"><use href="#t3477"/></g></g></svg><svg x="3226" y="857" height="9%" width="9%" viewBox="0 0 330 330"><g><a xlink:href="https://nftpuzzle.license-token.com/" class="links"><title>See the most innovative NFT based token software licensing project</title><path fill="#E4CF37" id="more" d="M165,0C74.019,0,0,74.019,0,165s74.019,165,165,165s165-74.019,165-165S255.981,0,165,0z M85,190 c-13.785,0-25-11.215-25-25s11.215-25,25-25s25,11.215,25,25S98.785,190,85,190z M165,190c-13.785,0-25-11.215-25-25 s11.215-25,25-25s25,11.215,25,25S178.785,190,165,190z M245,190c-13.785,0-25-11.215-25-25s11.215-25,25-25 c13.785,0,25,11.215,25,25S258.785,190,245,190z"></path></a></g></svg></svg></svg>