<svg version="1.1" xmlns="http://www.w3.org/2000/svg" xmlns:xlink="http://www.w3.org/1999/xlink" fill="transparent" x="0" y="0" width="350" height="350" preserveAspectRatio="xMinYMin slice"><style type="text/css">.links{fill:transparent;stroke: #E4CF37;}.links:hover{fill:#63D272; opacity:0.4;}</style><defs><g id="allt"><path id="t3481" d="M3366,832 L3356,832 C3347,832 3358,830 3348,829 C3339,829 3353,832 3343,832 L3333,832 3333,832 L3334,840 C3335,849 3324,836 3326,845 C3328,854 3334,845 3333,854 L3333,864 3333,864 L3342,865 C3351,866 3337,855 3346,857 C3356,859 3346,865 3356,864 L3366,864 3366,864 L3367,854 C3368,845 3362,854 3363,846 C3364,839 3366,852 3366,842 L3366,832"/></g><clipPath id="c" clipRule="evenodd" fill="transparent"><use href="#t3481"/></clipPath></defs><svg viewBox="3323 828 46 39" preserveAspectRatio="xMinYMin meet"><svg width="4380" height="2430"><g><image crossorigin="anonymous" x="0" y="0" href="https://nftpuzzle.license-token.com/assets/completepuzzle.svg" width="100%" height="100%" /><g class="links"><use href="#t3481"/></g></g></svg><svg x="3354" y="852" height="9%" width="9%" viewBox="0 0 330 330"><g><a xlink:href="https://nftpuzzle.license-token.com/" class="links"><title>See the most innovative NFT based token software licensing project</title><path fill="#E4CF37" id="more" d="M165,0C74.019,0,0,74.019,0,165s74.019,165,165,165s165-74.019,165-165S255.981,0,165,0z M85,190 c-13.785,0-25-11.215-25-25s11.215-25,25-25s25,11.215,25,25S98.785,190,85,190z M165,190c-13.785,0-25-11.215-25-25 s11.215-25,25-25s25,11.215,25,25S178.785,190,165,190z M245,190c-13.785,0-25-11.215-25-25s11.215-25,25-25 c13.785,0,25,11.215,25,25S258.785,190,245,190z"></path></a></g></svg></svg></svg>