<svg version="1.1" xmlns="http://www.w3.org/2000/svg" xmlns:xlink="http://www.w3.org/1999/xlink" fill="transparent" x="0" y="0" width="350" height="350" preserveAspectRatio="xMinYMin slice"><style type="text/css">.links{fill:transparent;stroke: #E4CF37;}.links:hover{fill:#63D272; opacity:0.4;}</style><defs><g id="allt"><path id="t3485" d="M3498,832 L3488,831 C3479,830 3493,840 3481,839 C3470,839 3486,829 3475,830 L3465,832 3465,832 L3465,842 C3465,853 3473,839 3472,848 C3471,857 3464,843 3464,853 L3465,864 3465,864 L3476,864 C3487,864 3472,872 3481,871 C3491,870 3477,863 3487,863 L3498,864 3498,864 L3498,855 C3498,846 3495,857 3494,847 C3494,838 3498,850 3498,841 L3498,832"/></g><clipPath id="c" clipRule="evenodd" fill="transparent"><use href="#t3485"/></clipPath></defs><svg viewBox="3463 828 36 45" preserveAspectRatio="xMinYMin meet"><svg width="4380" height="2430"><g><image crossorigin="anonymous" x="0" y="0" href="https://nftpuzzle.license-token.com/assets/completepuzzle.svg" width="100%" height="100%" /><g class="links"><use href="#t3485"/></g></g></svg><svg x="3484" y="858" height="9%" width="9%" viewBox="0 0 330 330"><g><a xlink:href="https://nftpuzzle.license-token.com/" class="links"><title>See the most innovative NFT based token software licensing project</title><path fill="#E4CF37" id="more" d="M165,0C74.019,0,0,74.019,0,165s74.019,165,165,165s165-74.019,165-165S255.981,0,165,0z M85,190 c-13.785,0-25-11.215-25-25s11.215-25,25-25s25,11.215,25,25S98.785,190,85,190z M165,190c-13.785,0-25-11.215-25-25 s11.215-25,25-25s25,11.215,25,25S178.785,190,165,190z M245,190c-13.785,0-25-11.215-25-25s11.215-25,25-25 c13.785,0,25,11.215,25,25S258.785,190,245,190z"></path></a></g></svg></svg></svg>