<svg version="1.1" xmlns="http://www.w3.org/2000/svg" xmlns:xlink="http://www.w3.org/1999/xlink" fill="transparent" x="0" y="0" width="350" height="350" preserveAspectRatio="xMinYMin slice"><style type="text/css">.links{fill:transparent;stroke: #E4CF37;}.links:hover{fill:#63D272; opacity:0.4;}</style><defs><g id="allt"><path id="t3487" d="M3564,832 L3553,832 C3542,832 3557,840 3547,839 C3537,838 3549,830 3540,831 L3531,832 3531,832 L3531,841 C3531,850 3527,838 3528,846 C3529,855 3531,844 3531,854 L3531,864 3531,864 L3540,864 C3549,864 3537,860 3546,861 C3555,862 3543,864 3553,864 L3564,864 3564,864 L3566,854 C3569,845 3555,858 3553,847 C3551,837 3568,852 3566,842 L3564,832"/></g><clipPath id="c" clipRule="evenodd" fill="transparent"><use href="#t3487"/></clipPath></defs><svg viewBox="3526 829 44 36" preserveAspectRatio="xMinYMin meet"><svg width="4380" height="2430"><g><image crossorigin="anonymous" x="0" y="0" href="https://nftpuzzle.license-token.com/assets/completepuzzle.svg" width="100%" height="100%" /><g class="links"><use href="#t3487"/></g></g></svg><svg x="3555" y="850" height="9%" width="9%" viewBox="0 0 330 330"><g><a xlink:href="https://nftpuzzle.license-token.com/" class="links"><title>See the most innovative NFT based token software licensing project</title><path fill="#E4CF37" id="more" d="M165,0C74.019,0,0,74.019,0,165s74.019,165,165,165s165-74.019,165-165S255.981,0,165,0z M85,190 c-13.785,0-25-11.215-25-25s11.215-25,25-25s25,11.215,25,25S98.785,190,85,190z M165,190c-13.785,0-25-11.215-25-25 s11.215-25,25-25s25,11.215,25,25S178.785,190,165,190z M245,190c-13.785,0-25-11.215-25-25s11.215-25,25-25 c13.785,0,25,11.215,25,25S258.785,190,245,190z"></path></a></g></svg></svg></svg>