<svg version="1.1" xmlns="http://www.w3.org/2000/svg" xmlns:xlink="http://www.w3.org/1999/xlink" fill="transparent" x="0" y="0" width="350" height="350" preserveAspectRatio="xMinYMin slice"><style type="text/css">.links{fill:transparent;stroke: #E4CF37;}.links:hover{fill:#63D272; opacity:0.4;}</style><defs><g id="allt"><path id="t349" d="M2970,64 L2960,62 C2950,61 2965,71 2955,70 C2945,70 2955,62 2946,63 L2937,64 2937,64 L2937,72 C2937,81 2931,69 2931,78 C2932,88 2937,74 2937,85 L2937,96 2937,96 L2946,96 C2955,96 2942,90 2951,90 C2961,91 2948,96 2959,96 L2970,96 2970,96 L2968,85 C2967,75 2978,87 2978,78 C2978,70 2970,82 2970,73 L2970,64"/></g><clipPath id="c" clipRule="evenodd" fill="transparent"><use href="#t349"/></clipPath></defs><svg viewBox="2930 60 49 37" preserveAspectRatio="xMinYMin meet"><svg width="4380" height="2430"><g><image crossorigin="anonymous" x="0" y="0" href="https://nftpuzzle.license-token.com/assets/completepuzzle.svg" width="100%" height="100%" /><g class="links"><use href="#t349"/></g></g></svg><svg x="2964" y="82" height="9%" width="9%" viewBox="0 0 330 330"><g><a xlink:href="https://nftpuzzle.license-token.com/" class="links"><title>See the most innovative NFT based token software licensing project</title><path fill="#E4CF37" id="more" d="M165,0C74.019,0,0,74.019,0,165s74.019,165,165,165s165-74.019,165-165S255.981,0,165,0z M85,190 c-13.785,0-25-11.215-25-25s11.215-25,25-25s25,11.215,25,25S98.785,190,85,190z M165,190c-13.785,0-25-11.215-25-25 s11.215-25,25-25s25,11.215,25,25S178.785,190,165,190z M245,190c-13.785,0-25-11.215-25-25s11.215-25,25-25 c13.785,0,25,11.215,25,25S258.785,190,245,190z"></path></a></g></svg></svg></svg>