<svg version="1.1" xmlns="http://www.w3.org/2000/svg" xmlns:xlink="http://www.w3.org/1999/xlink" fill="transparent" x="0" y="0" width="350" height="350" preserveAspectRatio="xMinYMin slice"><style type="text/css">.links{fill:transparent;stroke: #E4CF37;}.links:hover{fill:#63D272; opacity:0.4;}</style><defs><g id="allt"><path id="t3492" d="M3729,832 L3719,832 C3709,833 3723,828 3714,826 C3705,824 3715,832 3705,832 L3696,832 3696,832 L3696,840 C3696,849 3694,840 3693,848 C3693,856 3696,845 3696,854 L3696,864 3696,864 L3705,864 C3714,864 3704,862 3712,861 C3720,861 3709,864 3719,864 L3729,864 3729,864 L3729,854 C3729,844 3724,857 3725,847 C3726,838 3729,852 3729,842 L3729,832"/></g><clipPath id="c" clipRule="evenodd" fill="transparent"><use href="#t3492"/></clipPath></defs><svg viewBox="3692 823 38 42" preserveAspectRatio="xMinYMin meet"><svg width="4380" height="2430"><g><image crossorigin="anonymous" x="0" y="0" href="https://nftpuzzle.license-token.com/assets/completepuzzle.svg" width="100%" height="100%" /><g class="links"><use href="#t3492"/></g></g></svg><svg x="3715" y="850" height="9%" width="9%" viewBox="0 0 330 330"><g><a xlink:href="https://nftpuzzle.license-token.com/" class="links"><title>See the most innovative NFT based token software licensing project</title><path fill="#E4CF37" id="more" d="M165,0C74.019,0,0,74.019,0,165s74.019,165,165,165s165-74.019,165-165S255.981,0,165,0z M85,190 c-13.785,0-25-11.215-25-25s11.215-25,25-25s25,11.215,25,25S98.785,190,85,190z M165,190c-13.785,0-25-11.215-25-25 s11.215-25,25-25s25,11.215,25,25S178.785,190,165,190z M245,190c-13.785,0-25-11.215-25-25s11.215-25,25-25 c13.785,0,25,11.215,25,25S258.785,190,245,190z"></path></a></g></svg></svg></svg>