<svg version="1.1" xmlns="http://www.w3.org/2000/svg" xmlns:xlink="http://www.w3.org/1999/xlink" fill="transparent" x="0" y="0" width="350" height="350" preserveAspectRatio="xMinYMin slice"><style type="text/css">.links{fill:transparent;stroke: #E4CF37;}.links:hover{fill:#63D272; opacity:0.4;}</style><defs><g id="allt"><path id="t3495" d="M3828,832 L3817,831 C3807,830 3818,838 3810,837 C3803,836 3816,831 3805,831 L3795,832 3795,832 L3795,841 C3795,850 3791,838 3790,846 C3790,855 3795,845 3795,854 L3795,864 3795,864 L3804,864 C3813,864 3801,860 3810,859 C3819,859 3809,864 3818,864 L3828,864 3828,864 L3826,854 C3824,844 3838,858 3836,849 C3834,840 3826,851 3827,841 L3828,832"/></g><clipPath id="c" clipRule="evenodd" fill="transparent"><use href="#t3495"/></clipPath></defs><svg viewBox="3789 829 50 36" preserveAspectRatio="xMinYMin meet"><svg width="4380" height="2430"><g><image crossorigin="anonymous" x="0" y="0" href="https://nftpuzzle.license-token.com/assets/completepuzzle.svg" width="100%" height="100%" /><g class="links"><use href="#t3495"/></g></g></svg><svg x="3824" y="850" height="9%" width="9%" viewBox="0 0 330 330"><g><a xlink:href="https://nftpuzzle.license-token.com/" class="links"><title>See the most innovative NFT based token software licensing project</title><path fill="#E4CF37" id="more" d="M165,0C74.019,0,0,74.019,0,165s74.019,165,165,165s165-74.019,165-165S255.981,0,165,0z M85,190 c-13.785,0-25-11.215-25-25s11.215-25,25-25s25,11.215,25,25S98.785,190,85,190z M165,190c-13.785,0-25-11.215-25-25 s11.215-25,25-25s25,11.215,25,25S178.785,190,165,190z M245,190c-13.785,0-25-11.215-25-25s11.215-25,25-25 c13.785,0,25,11.215,25,25S258.785,190,245,190z"></path></a></g></svg></svg></svg>