<svg version="1.1" xmlns="http://www.w3.org/2000/svg" xmlns:xlink="http://www.w3.org/1999/xlink" fill="transparent" x="0" y="0" width="350" height="350" preserveAspectRatio="xMinYMin slice"><style type="text/css">.links{fill:transparent;stroke: #E4CF37;}.links:hover{fill:#63D272; opacity:0.4;}</style><defs><g id="allt"><path id="t3496" d="M3861,832 L3850,834 C3839,837 3855,827 3844,825 C3833,824 3846,836 3837,834 L3828,832 3828,832 L3827,841 C3826,851 3834,840 3836,849 C3838,858 3824,844 3826,854 L3828,864 3828,864 L3838,863 C3848,862 3836,870 3845,872 C3855,874 3840,860 3850,862 L3861,864 3861,864 L3861,854 C3861,844 3857,855 3856,848 C3856,841 3861,850 3861,841 L3861,832"/></g><clipPath id="c" clipRule="evenodd" fill="transparent"><use href="#t3496"/></clipPath></defs><svg viewBox="3823 823 39 52" preserveAspectRatio="xMinYMin meet"><svg width="4380" height="2430"><g><image crossorigin="anonymous" x="0" y="0" href="https://nftpuzzle.license-token.com/assets/completepuzzle.svg" width="100%" height="100%" /><g class="links"><use href="#t3496"/></g></g></svg><svg x="3847" y="860" height="9%" width="9%" viewBox="0 0 330 330"><g><a xlink:href="https://nftpuzzle.license-token.com/" class="links"><title>See the most innovative NFT based token software licensing project</title><path fill="#E4CF37" id="more" d="M165,0C74.019,0,0,74.019,0,165s74.019,165,165,165s165-74.019,165-165S255.981,0,165,0z M85,190 c-13.785,0-25-11.215-25-25s11.215-25,25-25s25,11.215,25,25S98.785,190,85,190z M165,190c-13.785,0-25-11.215-25-25 s11.215-25,25-25s25,11.215,25,25S178.785,190,165,190z M245,190c-13.785,0-25-11.215-25-25s11.215-25,25-25 c13.785,0,25,11.215,25,25S258.785,190,245,190z"></path></a></g></svg></svg></svg>