<svg version="1.1" xmlns="http://www.w3.org/2000/svg" xmlns:xlink="http://www.w3.org/1999/xlink" fill="transparent" x="0" y="0" width="350" height="350" preserveAspectRatio="xMinYMin slice"><style type="text/css">.links{fill:transparent;stroke: #E4CF37;}.links:hover{fill:#63D272; opacity:0.4;}</style><defs><g id="allt"><path id="t3499" d="M3960,832 L3950,832 C3940,832 3954,844 3944,844 C3935,844 3945,830 3936,831 L3927,832 3927,832 L3927,841 C3927,851 3918,840 3917,849 C3917,858 3928,845 3927,854 L3927,864 3927,864 L3937,864 C3947,864 3936,855 3945,855 C3954,855 3941,865 3950,864 L3960,864 3960,864 L3960,854 C3960,844 3963,857 3963,849 C3964,841 3960,850 3960,841 L3960,832"/></g><clipPath id="c" clipRule="evenodd" fill="transparent"><use href="#t3499"/></clipPath></defs><svg viewBox="3916 829 49 37" preserveAspectRatio="xMinYMin meet"><svg width="4380" height="2430"><g><image crossorigin="anonymous" x="0" y="0" href="https://nftpuzzle.license-token.com/assets/completepuzzle.svg" width="100%" height="100%" /><g class="links"><use href="#t3499"/></g></g></svg><svg x="3950" y="851" height="9%" width="9%" viewBox="0 0 330 330"><g><a xlink:href="https://nftpuzzle.license-token.com/" class="links"><title>See the most innovative NFT based token software licensing project</title><path fill="#E4CF37" id="more" d="M165,0C74.019,0,0,74.019,0,165s74.019,165,165,165s165-74.019,165-165S255.981,0,165,0z M85,190 c-13.785,0-25-11.215-25-25s11.215-25,25-25s25,11.215,25,25S98.785,190,85,190z M165,190c-13.785,0-25-11.215-25-25 s11.215-25,25-25s25,11.215,25,25S178.785,190,165,190z M245,190c-13.785,0-25-11.215-25-25s11.215-25,25-25 c13.785,0,25,11.215,25,25S258.785,190,245,190z"></path></a></g></svg></svg></svg>