<svg version="1.1" xmlns="http://www.w3.org/2000/svg" xmlns:xlink="http://www.w3.org/1999/xlink" fill="transparent" x="0" y="0" width="350" height="350" preserveAspectRatio="xMinYMin slice"><style type="text/css">.links{fill:transparent;stroke: #E4CF37;}.links:hover{fill:#63D272; opacity:0.4;}</style><defs><g id="allt"><path id="t350" d="M3003,64 L2991,64 C2980,64 2995,62 2985,61 C2975,61 2989,65 2979,64 L2970,64 2970,64 L2970,73 C2970,82 2978,70 2978,78 C2978,87 2967,75 2968,85 L2970,96 2970,96 L2979,96 C2989,96 2976,104 2985,104 C2994,104 2982,93 2992,94 L3003,96 3003,96 L3006,86 C3009,77 2991,87 2991,78 C2991,69 3003,81 3003,72 L3003,64"/></g><clipPath id="c" clipRule="evenodd" fill="transparent"><use href="#t350"/></clipPath></defs><svg viewBox="2966 60 44 45" preserveAspectRatio="xMinYMin meet"><svg width="4380" height="2430"><g><image crossorigin="anonymous" x="0" y="0" href="https://nftpuzzle.license-token.com/assets/completepuzzle.svg" width="100%" height="100%" /><g class="links"><use href="#t350"/></g></g></svg><svg x="2995" y="90" height="9%" width="9%" viewBox="0 0 330 330"><g><a xlink:href="https://nftpuzzle.license-token.com/" class="links"><title>See the most innovative NFT based token software licensing project</title><path fill="#E4CF37" id="more" d="M165,0C74.019,0,0,74.019,0,165s74.019,165,165,165s165-74.019,165-165S255.981,0,165,0z M85,190 c-13.785,0-25-11.215-25-25s11.215-25,25-25s25,11.215,25,25S98.785,190,85,190z M165,190c-13.785,0-25-11.215-25-25 s11.215-25,25-25s25,11.215,25,25S178.785,190,165,190z M245,190c-13.785,0-25-11.215-25-25s11.215-25,25-25 c13.785,0,25,11.215,25,25S258.785,190,245,190z"></path></a></g></svg></svg></svg>