<svg version="1.1" xmlns="http://www.w3.org/2000/svg" xmlns:xlink="http://www.w3.org/1999/xlink" fill="transparent" x="0" y="0" width="350" height="350" preserveAspectRatio="xMinYMin slice"><style type="text/css">.links{fill:transparent;stroke: #E4CF37;}.links:hover{fill:#63D272; opacity:0.4;}</style><defs><g id="allt"><path id="t3501" d="M4026,832 L4016,833 C4006,834 4020,826 4009,827 C3999,828 4011,834 4002,833 L3993,832 3993,832 L3993,841 C3993,851 3985,840 3985,847 C3985,854 3994,844 3993,854 L3993,864 3993,864 L4002,864 C4012,864 4002,856 4009,856 C4016,856 4006,865 4016,864 L4026,864 4026,864 L4025,854 C4024,844 4035,858 4035,848 C4036,838 4025,849 4025,840 L4026,832"/></g><clipPath id="c" clipRule="evenodd" fill="transparent"><use href="#t3501"/></clipPath></defs><svg viewBox="3984 825 53 41" preserveAspectRatio="xMinYMin meet"><svg width="4380" height="2430"><g><image crossorigin="anonymous" x="0" y="0" href="https://nftpuzzle.license-token.com/assets/completepuzzle.svg" width="100%" height="100%" /><g class="links"><use href="#t3501"/></g></g></svg><svg x="4022" y="851" height="9%" width="9%" viewBox="0 0 330 330"><g><a xlink:href="https://nftpuzzle.license-token.com/" class="links"><title>See the most innovative NFT based token software licensing project</title><path fill="#E4CF37" id="more" d="M165,0C74.019,0,0,74.019,0,165s74.019,165,165,165s165-74.019,165-165S255.981,0,165,0z M85,190 c-13.785,0-25-11.215-25-25s11.215-25,25-25s25,11.215,25,25S98.785,190,85,190z M165,190c-13.785,0-25-11.215-25-25 s11.215-25,25-25s25,11.215,25,25S178.785,190,165,190z M245,190c-13.785,0-25-11.215-25-25s11.215-25,25-25 c13.785,0,25,11.215,25,25S258.785,190,245,190z"></path></a></g></svg></svg></svg>