<svg version="1.1" xmlns="http://www.w3.org/2000/svg" xmlns:xlink="http://www.w3.org/1999/xlink" fill="transparent" x="0" y="0" width="350" height="350" preserveAspectRatio="xMinYMin slice"><style type="text/css">.links{fill:transparent;stroke: #E4CF37;}.links:hover{fill:#63D272; opacity:0.4;}</style><defs><g id="allt"><path id="t3545" d="M1188,864 L1177,864 C1167,864 1182,859 1172,859 C1162,859 1177,867 1166,865 L1155,864 1155,864 L1156,874 C1157,884 1146,871 1147,879 C1149,887 1158,876 1156,886 L1155,896 1155,896 L1165,897 C1176,898 1162,887 1170,888 C1179,890 1167,899 1177,897 L1188,896 1188,896 L1188,885 C1188,875 1185,887 1184,878 C1184,869 1189,884 1188,874 L1188,864"/></g><clipPath id="c" clipRule="evenodd" fill="transparent"><use href="#t3545"/></clipPath></defs><svg viewBox="1145 858 45 42" preserveAspectRatio="xMinYMin meet"><svg width="4380" height="2430"><g><image crossorigin="anonymous" x="0" y="0" href="https://nftpuzzle.license-token.com/assets/completepuzzle.svg" width="100%" height="100%" /><g class="links"><use href="#t3545"/></g></g></svg><svg x="1175" y="885" height="9%" width="9%" viewBox="0 0 330 330"><g><a xlink:href="https://nftpuzzle.license-token.com/" class="links"><title>See the most innovative NFT based token software licensing project</title><path fill="#E4CF37" id="more" d="M165,0C74.019,0,0,74.019,0,165s74.019,165,165,165s165-74.019,165-165S255.981,0,165,0z M85,190 c-13.785,0-25-11.215-25-25s11.215-25,25-25s25,11.215,25,25S98.785,190,85,190z M165,190c-13.785,0-25-11.215-25-25 s11.215-25,25-25s25,11.215,25,25S178.785,190,165,190z M245,190c-13.785,0-25-11.215-25-25s11.215-25,25-25 c13.785,0,25,11.215,25,25S258.785,190,245,190z"></path></a></g></svg></svg></svg>