<svg version="1.1" xmlns="http://www.w3.org/2000/svg" xmlns:xlink="http://www.w3.org/1999/xlink" fill="transparent" x="0" y="0" width="350" height="350" preserveAspectRatio="xMinYMin slice"><style type="text/css">.links{fill:transparent;stroke: #E4CF37;}.links:hover{fill:#63D272; opacity:0.4;}</style><defs><g id="allt"><path id="t3546" d="M1221,864 L1211,864 C1201,865 1214,860 1203,859 C1193,859 1207,864 1197,864 L1188,864 1188,864 L1188,874 C1189,884 1184,869 1184,878 C1185,887 1188,875 1188,885 L1188,896 1188,896 L1198,896 C1209,897 1193,892 1202,892 C1211,893 1200,896 1210,896 L1221,896 1221,896 L1221,886 C1221,877 1219,888 1218,879 C1217,870 1221,884 1221,874 L1221,864"/></g><clipPath id="c" clipRule="evenodd" fill="transparent"><use href="#t3546"/></clipPath></defs><svg viewBox="1183 858 39 40" preserveAspectRatio="xMinYMin meet"><svg width="4380" height="2430"><g><image crossorigin="anonymous" x="0" y="0" href="https://nftpuzzle.license-token.com/assets/completepuzzle.svg" width="100%" height="100%" /><g class="links"><use href="#t3546"/></g></g></svg><svg x="1207" y="883" height="9%" width="9%" viewBox="0 0 330 330"><g><a xlink:href="https://nftpuzzle.license-token.com/" class="links"><title>See the most innovative NFT based token software licensing project</title><path fill="#E4CF37" id="more" d="M165,0C74.019,0,0,74.019,0,165s74.019,165,165,165s165-74.019,165-165S255.981,0,165,0z M85,190 c-13.785,0-25-11.215-25-25s11.215-25,25-25s25,11.215,25,25S98.785,190,85,190z M165,190c-13.785,0-25-11.215-25-25 s11.215-25,25-25s25,11.215,25,25S178.785,190,165,190z M245,190c-13.785,0-25-11.215-25-25s11.215-25,25-25 c13.785,0,25,11.215,25,25S258.785,190,245,190z"></path></a></g></svg></svg></svg>