<svg version="1.1" xmlns="http://www.w3.org/2000/svg" xmlns:xlink="http://www.w3.org/1999/xlink" fill="transparent" x="0" y="0" width="350" height="350" preserveAspectRatio="xMinYMin slice"><style type="text/css">.links{fill:transparent;stroke: #E4CF37;}.links:hover{fill:#63D272; opacity:0.4;}</style><defs><g id="allt"><path id="t3555" d="M1518,864 L1508,865 C1498,866 1509,859 1500,860 C1492,861 1504,864 1494,864 L1485,864 1485,864 L1486,873 C1487,883 1473,868 1476,877 C1479,887 1486,876 1485,886 L1485,896 1485,896 L1494,897 C1504,898 1489,885 1499,887 C1509,890 1497,897 1507,896 L1518,896 1518,896 L1519,885 C1521,874 1512,888 1512,878 C1512,868 1518,882 1518,873 L1518,864"/></g><clipPath id="c" clipRule="evenodd" fill="transparent"><use href="#t3555"/></clipPath></defs><svg viewBox="1472 858 50 41" preserveAspectRatio="xMinYMin meet"><svg width="4380" height="2430"><g><image crossorigin="anonymous" x="0" y="0" href="https://nftpuzzle.license-token.com/assets/completepuzzle.svg" width="100%" height="100%" /><g class="links"><use href="#t3555"/></g></g></svg><svg x="1507" y="884" height="9%" width="9%" viewBox="0 0 330 330"><g><a xlink:href="https://nftpuzzle.license-token.com/" class="links"><title>See the most innovative NFT based token software licensing project</title><path fill="#E4CF37" id="more" d="M165,0C74.019,0,0,74.019,0,165s74.019,165,165,165s165-74.019,165-165S255.981,0,165,0z M85,190 c-13.785,0-25-11.215-25-25s11.215-25,25-25s25,11.215,25,25S98.785,190,85,190z M165,190c-13.785,0-25-11.215-25-25 s11.215-25,25-25s25,11.215,25,25S178.785,190,165,190z M245,190c-13.785,0-25-11.215-25-25s11.215-25,25-25 c13.785,0,25,11.215,25,25S258.785,190,245,190z"></path></a></g></svg></svg></svg>