<svg version="1.1" xmlns="http://www.w3.org/2000/svg" xmlns:xlink="http://www.w3.org/1999/xlink" fill="transparent" x="0" y="0" width="350" height="350" preserveAspectRatio="xMinYMin slice"><style type="text/css">.links{fill:transparent;stroke: #E4CF37;}.links:hover{fill:#63D272; opacity:0.4;}</style><defs><g id="allt"><path id="t3559" d="M1650,864 L1639,864 C1628,864 1643,867 1634,868 C1626,869 1636,862 1626,863 L1617,864 1617,864 L1616,873 C1615,882 1626,868 1626,878 C1626,888 1617,878 1617,887 L1617,896 1617,896 L1626,895 C1636,894 1621,905 1631,904 C1641,904 1631,896 1640,896 L1650,896 1650,896 L1650,885 C1650,874 1656,887 1658,880 C1661,873 1646,882 1648,873 L1650,864"/></g><clipPath id="c" clipRule="evenodd" fill="transparent"><use href="#t3559"/></clipPath></defs><svg viewBox="1614 861 48 45" preserveAspectRatio="xMinYMin meet"><svg width="4380" height="2430"><g><image crossorigin="anonymous" x="0" y="0" href="https://nftpuzzle.license-token.com/assets/completepuzzle.svg" width="100%" height="100%" /><g class="links"><use href="#t3559"/></g></g></svg><svg x="1647" y="891" height="9%" width="9%" viewBox="0 0 330 330"><g><a xlink:href="https://nftpuzzle.license-token.com/" class="links"><title>See the most innovative NFT based token software licensing project</title><path fill="#E4CF37" id="more" d="M165,0C74.019,0,0,74.019,0,165s74.019,165,165,165s165-74.019,165-165S255.981,0,165,0z M85,190 c-13.785,0-25-11.215-25-25s11.215-25,25-25s25,11.215,25,25S98.785,190,85,190z M165,190c-13.785,0-25-11.215-25-25 s11.215-25,25-25s25,11.215,25,25S178.785,190,165,190z M245,190c-13.785,0-25-11.215-25-25s11.215-25,25-25 c13.785,0,25,11.215,25,25S258.785,190,245,190z"></path></a></g></svg></svg></svg>