<svg version="1.1" xmlns="http://www.w3.org/2000/svg" xmlns:xlink="http://www.w3.org/1999/xlink" fill="transparent" x="0" y="0" width="350" height="350" preserveAspectRatio="xMinYMin slice"><style type="text/css">.links{fill:transparent;stroke: #E4CF37;}.links:hover{fill:#63D272; opacity:0.4;}</style><defs><g id="allt"><path id="t3562" d="M1749,864 L1738,864 C1728,864 1742,859 1733,858 C1725,858 1735,866 1725,865 L1716,864 1716,864 L1716,873 C1717,882 1712,871 1711,880 C1710,890 1716,877 1716,886 L1716,896 1716,896 L1725,896 C1735,897 1723,892 1733,891 C1743,890 1729,896 1739,896 L1749,896 1749,896 L1750,885 C1751,875 1744,887 1740,879 C1736,872 1750,885 1749,874 L1749,864"/></g><clipPath id="c" clipRule="evenodd" fill="transparent"><use href="#t3562"/></clipPath></defs><svg viewBox="1709 857 43 41" preserveAspectRatio="xMinYMin meet"><svg width="4380" height="2430"><g><image crossorigin="anonymous" x="0" y="0" href="https://nftpuzzle.license-token.com/assets/completepuzzle.svg" width="100%" height="100%" /><g class="links"><use href="#t3562"/></g></g></svg><svg x="1737" y="883" height="9%" width="9%" viewBox="0 0 330 330"><g><a xlink:href="https://nftpuzzle.license-token.com/" class="links"><title>See the most innovative NFT based token software licensing project</title><path fill="#E4CF37" id="more" d="M165,0C74.019,0,0,74.019,0,165s74.019,165,165,165s165-74.019,165-165S255.981,0,165,0z M85,190 c-13.785,0-25-11.215-25-25s11.215-25,25-25s25,11.215,25,25S98.785,190,85,190z M165,190c-13.785,0-25-11.215-25-25 s11.215-25,25-25s25,11.215,25,25S178.785,190,165,190z M245,190c-13.785,0-25-11.215-25-25s11.215-25,25-25 c13.785,0,25,11.215,25,25S258.785,190,245,190z"></path></a></g></svg></svg></svg>