<svg version="1.1" xmlns="http://www.w3.org/2000/svg" xmlns:xlink="http://www.w3.org/1999/xlink" fill="transparent" x="0" y="0" width="350" height="350" preserveAspectRatio="xMinYMin slice"><style type="text/css">.links{fill:transparent;stroke: #E4CF37;}.links:hover{fill:#63D272; opacity:0.4;}</style><defs><g id="allt"><path id="t3563" d="M1782,864 L1771,864 C1761,864 1774,857 1764,857 C1754,858 1771,864 1760,864 L1749,864 1749,864 L1749,874 C1750,885 1736,872 1740,879 C1744,887 1751,875 1750,885 L1749,896 1749,896 L1759,896 C1770,897 1757,884 1765,887 C1773,891 1760,898 1771,897 L1782,896 1782,896 L1782,885 C1783,875 1777,890 1777,881 C1777,872 1786,882 1784,873 L1782,864"/></g><clipPath id="c" clipRule="evenodd" fill="transparent"><use href="#t3563"/></clipPath></defs><svg viewBox="1735 856 52 43" preserveAspectRatio="xMinYMin meet"><svg width="4380" height="2430"><g><image crossorigin="anonymous" x="0" y="0" href="https://nftpuzzle.license-token.com/assets/completepuzzle.svg" width="100%" height="100%" /><g class="links"><use href="#t3563"/></g></g></svg><svg x="1772" y="884" height="9%" width="9%" viewBox="0 0 330 330"><g><a xlink:href="https://nftpuzzle.license-token.com/" class="links"><title>See the most innovative NFT based token software licensing project</title><path fill="#E4CF37" id="more" d="M165,0C74.019,0,0,74.019,0,165s74.019,165,165,165s165-74.019,165-165S255.981,0,165,0z M85,190 c-13.785,0-25-11.215-25-25s11.215-25,25-25s25,11.215,25,25S98.785,190,85,190z M165,190c-13.785,0-25-11.215-25-25 s11.215-25,25-25s25,11.215,25,25S178.785,190,165,190z M245,190c-13.785,0-25-11.215-25-25s11.215-25,25-25 c13.785,0,25,11.215,25,25S258.785,190,245,190z"></path></a></g></svg></svg></svg>