<svg version="1.1" xmlns="http://www.w3.org/2000/svg" xmlns:xlink="http://www.w3.org/1999/xlink" fill="transparent" x="0" y="0" width="350" height="350" preserveAspectRatio="xMinYMin slice"><style type="text/css">.links{fill:transparent;stroke: #E4CF37;}.links:hover{fill:#63D272; opacity:0.4;}</style><defs><g id="allt"><path id="t3567" d="M1914,864 L1904,864 C1894,864 1904,860 1895,859 C1886,859 1900,865 1890,864 L1881,864 1881,864 L1880,874 C1880,884 1885,872 1884,879 C1883,886 1880,876 1880,886 L1881,896 1881,896 L1891,895 C1901,895 1889,900 1896,899 C1904,898 1893,895 1903,895 L1914,896 1914,896 L1914,886 C1914,877 1919,888 1917,880 C1916,873 1914,884 1914,874 L1914,864"/></g><clipPath id="c" clipRule="evenodd" fill="transparent"><use href="#t3567"/></clipPath></defs><svg viewBox="1879 858 41 43" preserveAspectRatio="xMinYMin meet"><svg width="4380" height="2430"><g><image crossorigin="anonymous" x="0" y="0" href="https://nftpuzzle.license-token.com/assets/completepuzzle.svg" width="100%" height="100%" /><g class="links"><use href="#t3567"/></g></g></svg><svg x="1905" y="886" height="9%" width="9%" viewBox="0 0 330 330"><g><a xlink:href="https://nftpuzzle.license-token.com/" class="links"><title>See the most innovative NFT based token software licensing project</title><path fill="#E4CF37" id="more" d="M165,0C74.019,0,0,74.019,0,165s74.019,165,165,165s165-74.019,165-165S255.981,0,165,0z M85,190 c-13.785,0-25-11.215-25-25s11.215-25,25-25s25,11.215,25,25S98.785,190,85,190z M165,190c-13.785,0-25-11.215-25-25 s11.215-25,25-25s25,11.215,25,25S178.785,190,165,190z M245,190c-13.785,0-25-11.215-25-25s11.215-25,25-25 c13.785,0,25,11.215,25,25S258.785,190,245,190z"></path></a></g></svg></svg></svg>