<svg version="1.1" xmlns="http://www.w3.org/2000/svg" xmlns:xlink="http://www.w3.org/1999/xlink" fill="transparent" x="0" y="0" width="350" height="350" preserveAspectRatio="xMinYMin slice"><style type="text/css">.links{fill:transparent;stroke: #E4CF37;}.links:hover{fill:#63D272; opacity:0.4;}</style><defs><g id="allt"><path id="t3571" d="M2046,864 L2035,866 C2024,868 2039,857 2030,858 C2022,859 2032,868 2022,866 L2013,864 2013,864 L2014,873 C2016,883 2003,872 2004,881 C2005,891 2013,876 2013,886 L2013,896 2013,896 L2023,897 C2033,899 2021,886 2031,887 C2041,888 2026,896 2036,896 L2046,896 2046,896 L2046,887 C2046,878 2035,889 2035,879 C2035,869 2046,882 2046,873 L2046,864"/></g><clipPath id="c" clipRule="evenodd" fill="transparent"><use href="#t3571"/></clipPath></defs><svg viewBox="2002 856 45 44" preserveAspectRatio="xMinYMin meet"><svg width="4380" height="2430"><g><image crossorigin="anonymous" x="0" y="0" href="https://nftpuzzle.license-token.com/assets/completepuzzle.svg" width="100%" height="100%" /><g class="links"><use href="#t3571"/></g></g></svg><svg x="2032" y="885" height="9%" width="9%" viewBox="0 0 330 330"><g><a xlink:href="https://nftpuzzle.license-token.com/" class="links"><title>See the most innovative NFT based token software licensing project</title><path fill="#E4CF37" id="more" d="M165,0C74.019,0,0,74.019,0,165s74.019,165,165,165s165-74.019,165-165S255.981,0,165,0z M85,190 c-13.785,0-25-11.215-25-25s11.215-25,25-25s25,11.215,25,25S98.785,190,85,190z M165,190c-13.785,0-25-11.215-25-25 s11.215-25,25-25s25,11.215,25,25S178.785,190,165,190z M245,190c-13.785,0-25-11.215-25-25s11.215-25,25-25 c13.785,0,25,11.215,25,25S258.785,190,245,190z"></path></a></g></svg></svg></svg>