<svg version="1.1" xmlns="http://www.w3.org/2000/svg" xmlns:xlink="http://www.w3.org/1999/xlink" fill="transparent" x="0" y="0" width="350" height="350" preserveAspectRatio="xMinYMin slice"><style type="text/css">.links{fill:transparent;stroke: #E4CF37;}.links:hover{fill:#63D272; opacity:0.4;}</style><defs><g id="allt"><path id="t3575" d="M2178,864 L2168,864 C2158,864 2171,860 2160,860 C2149,860 2165,864 2155,864 L2145,864 2145,864 L2145,872 C2145,881 2155,870 2155,880 C2156,890 2145,876 2145,886 L2145,896 2145,896 L2154,896 C2163,896 2151,905 2161,906 C2172,907 2157,896 2167,896 L2178,896 2178,896 L2179,887 C2181,878 2173,888 2171,878 C2169,869 2178,881 2178,872 L2178,864"/></g><clipPath id="c" clipRule="evenodd" fill="transparent"><use href="#t3575"/></clipPath></defs><svg viewBox="2144 859 38 49" preserveAspectRatio="xMinYMin meet"><svg width="4380" height="2430"><g><image crossorigin="anonymous" x="0" y="0" href="https://nftpuzzle.license-token.com/assets/completepuzzle.svg" width="100%" height="100%" /><g class="links"><use href="#t3575"/></g></g></svg><svg x="2167" y="893" height="9%" width="9%" viewBox="0 0 330 330"><g><a xlink:href="https://nftpuzzle.license-token.com/" class="links"><title>See the most innovative NFT based token software licensing project</title><path fill="#E4CF37" id="more" d="M165,0C74.019,0,0,74.019,0,165s74.019,165,165,165s165-74.019,165-165S255.981,0,165,0z M85,190 c-13.785,0-25-11.215-25-25s11.215-25,25-25s25,11.215,25,25S98.785,190,85,190z M165,190c-13.785,0-25-11.215-25-25 s11.215-25,25-25s25,11.215,25,25S178.785,190,165,190z M245,190c-13.785,0-25-11.215-25-25s11.215-25,25-25 c13.785,0,25,11.215,25,25S258.785,190,245,190z"></path></a></g></svg></svg></svg>