<svg version="1.1" xmlns="http://www.w3.org/2000/svg" xmlns:xlink="http://www.w3.org/1999/xlink" fill="transparent" x="0" y="0" width="350" height="350" preserveAspectRatio="xMinYMin slice"><style type="text/css">.links{fill:transparent;stroke: #E4CF37;}.links:hover{fill:#63D272; opacity:0.4;}</style><defs><g id="allt"><path id="t3580" d="M2343,864 L2333,864 C2324,864 2335,871 2325,872 C2316,874 2329,864 2319,864 L2310,864 2310,864 L2310,872 C2310,881 2316,871 2316,879 C2316,888 2310,876 2310,886 L2310,896 2310,896 L2319,896 C2328,896 2317,902 2325,902 C2334,902 2322,896 2332,896 L2343,896 2343,896 L2343,886 C2343,876 2350,887 2350,878 C2351,870 2343,884 2343,874 L2343,864"/></g><clipPath id="c" clipRule="evenodd" fill="transparent"><use href="#t3580"/></clipPath></defs><svg viewBox="2309 863 43 40" preserveAspectRatio="xMinYMin meet"><svg width="4380" height="2430"><g><image crossorigin="anonymous" x="0" y="0" href="https://nftpuzzle.license-token.com/assets/completepuzzle.svg" width="100%" height="100%" /><g class="links"><use href="#t3580"/></g></g></svg><svg x="2337" y="888" height="9%" width="9%" viewBox="0 0 330 330"><g><a xlink:href="https://nftpuzzle.license-token.com/" class="links"><title>See the most innovative NFT based token software licensing project</title><path fill="#E4CF37" id="more" d="M165,0C74.019,0,0,74.019,0,165s74.019,165,165,165s165-74.019,165-165S255.981,0,165,0z M85,190 c-13.785,0-25-11.215-25-25s11.215-25,25-25s25,11.215,25,25S98.785,190,85,190z M165,190c-13.785,0-25-11.215-25-25 s11.215-25,25-25s25,11.215,25,25S178.785,190,165,190z M245,190c-13.785,0-25-11.215-25-25s11.215-25,25-25 c13.785,0,25,11.215,25,25S258.785,190,245,190z"></path></a></g></svg></svg></svg>