<svg version="1.1" xmlns="http://www.w3.org/2000/svg" xmlns:xlink="http://www.w3.org/1999/xlink" fill="transparent" x="0" y="0" width="350" height="350" preserveAspectRatio="xMinYMin slice"><style type="text/css">.links{fill:transparent;stroke: #E4CF37;}.links:hover{fill:#63D272; opacity:0.4;}</style><defs><g id="allt"><path id="t3581" d="M2376,864 L2365,864 C2355,864 2366,852 2358,853 C2351,855 2361,866 2352,865 L2343,864 2343,864 L2343,874 C2343,884 2351,870 2350,878 C2350,887 2343,876 2343,886 L2343,896 2343,896 L2353,896 C2364,896 2349,904 2357,903 C2366,903 2355,896 2365,896 L2376,896 2376,896 L2374,885 C2373,875 2380,886 2380,877 C2381,869 2373,884 2374,874 L2376,864"/></g><clipPath id="c" clipRule="evenodd" fill="transparent"><use href="#t3581"/></clipPath></defs><svg viewBox="2342 851 40 54" preserveAspectRatio="xMinYMin meet"><svg width="4380" height="2430"><g><image crossorigin="anonymous" x="0" y="0" href="https://nftpuzzle.license-token.com/assets/completepuzzle.svg" width="100%" height="100%" /><g class="links"><use href="#t3581"/></g></g></svg><svg x="2367" y="890" height="9%" width="9%" viewBox="0 0 330 330"><g><a xlink:href="https://nftpuzzle.license-token.com/" class="links"><title>See the most innovative NFT based token software licensing project</title><path fill="#E4CF37" id="more" d="M165,0C74.019,0,0,74.019,0,165s74.019,165,165,165s165-74.019,165-165S255.981,0,165,0z M85,190 c-13.785,0-25-11.215-25-25s11.215-25,25-25s25,11.215,25,25S98.785,190,85,190z M165,190c-13.785,0-25-11.215-25-25 s11.215-25,25-25s25,11.215,25,25S178.785,190,165,190z M245,190c-13.785,0-25-11.215-25-25s11.215-25,25-25 c13.785,0,25,11.215,25,25S258.785,190,245,190z"></path></a></g></svg></svg></svg>