<svg version="1.1" xmlns="http://www.w3.org/2000/svg" xmlns:xlink="http://www.w3.org/1999/xlink" fill="transparent" x="0" y="0" width="350" height="350" preserveAspectRatio="xMinYMin slice"><style type="text/css">.links{fill:transparent;stroke: #E4CF37;}.links:hover{fill:#63D272; opacity:0.4;}</style><defs><g id="allt"><path id="t359" d="M3300,64 L3289,64 C3278,65 3293,55 3283,54 C3273,54 3286,67 3276,65 L3267,64 3267,64 L3268,74 C3269,85 3259,72 3258,80 C3258,89 3268,78 3267,87 L3267,96 3267,96 L3277,97 C3288,98 3275,88 3284,87 C3293,87 3281,97 3290,96 L3300,96 3300,96 L3300,86 C3300,77 3303,87 3303,78 C3304,70 3300,85 3300,74 L3300,64"/></g><clipPath id="c" clipRule="evenodd" fill="transparent"><use href="#t359"/></clipPath></defs><svg viewBox="3257 53 48 46" preserveAspectRatio="xMinYMin meet"><svg width="4380" height="2430"><g><image crossorigin="anonymous" x="0" y="0" href="https://nftpuzzle.license-token.com/assets/completepuzzle.svg" width="100%" height="100%" /><g class="links"><use href="#t359"/></g></g></svg><svg x="3290" y="84" height="9%" width="9%" viewBox="0 0 330 330"><g><a xlink:href="https://nftpuzzle.license-token.com/" class="links"><title>See the most innovative NFT based token software licensing project</title><path fill="#E4CF37" id="more" d="M165,0C74.019,0,0,74.019,0,165s74.019,165,165,165s165-74.019,165-165S255.981,0,165,0z M85,190 c-13.785,0-25-11.215-25-25s11.215-25,25-25s25,11.215,25,25S98.785,190,85,190z M165,190c-13.785,0-25-11.215-25-25 s11.215-25,25-25s25,11.215,25,25S178.785,190,165,190z M245,190c-13.785,0-25-11.215-25-25s11.215-25,25-25 c13.785,0,25,11.215,25,25S258.785,190,245,190z"></path></a></g></svg></svg></svg>