<svg version="1.1" xmlns="http://www.w3.org/2000/svg" xmlns:xlink="http://www.w3.org/1999/xlink" fill="transparent" x="0" y="0" width="350" height="350" preserveAspectRatio="xMinYMin slice"><style type="text/css">.links{fill:transparent;stroke: #E4CF37;}.links:hover{fill:#63D272; opacity:0.4;}</style><defs><g id="allt"><path id="t3597" d="M2904,864 L2894,864 C2884,864 2895,870 2887,869 C2879,868 2892,863 2881,863 L2871,864 2871,864 L2871,872 C2871,881 2865,870 2866,879 C2868,888 2872,877 2871,886 L2871,896 2871,896 L2880,896 C2889,896 2877,890 2886,891 C2896,893 2884,897 2894,896 L2904,896 2904,896 L2904,886 C2904,877 2908,889 2909,879 C2910,870 2902,884 2903,874 L2904,864"/></g><clipPath id="c" clipRule="evenodd" fill="transparent"><use href="#t3597"/></clipPath></defs><svg viewBox="2864 862 47 36" preserveAspectRatio="xMinYMin meet"><svg width="4380" height="2430"><g><image crossorigin="anonymous" x="0" y="0" href="https://nftpuzzle.license-token.com/assets/completepuzzle.svg" width="100%" height="100%" /><g class="links"><use href="#t3597"/></g></g></svg><svg x="2896" y="883" height="9%" width="9%" viewBox="0 0 330 330"><g><a xlink:href="https://nftpuzzle.license-token.com/" class="links"><title>See the most innovative NFT based token software licensing project</title><path fill="#E4CF37" id="more" d="M165,0C74.019,0,0,74.019,0,165s74.019,165,165,165s165-74.019,165-165S255.981,0,165,0z M85,190 c-13.785,0-25-11.215-25-25s11.215-25,25-25s25,11.215,25,25S98.785,190,85,190z M165,190c-13.785,0-25-11.215-25-25 s11.215-25,25-25s25,11.215,25,25S178.785,190,165,190z M245,190c-13.785,0-25-11.215-25-25s11.215-25,25-25 c13.785,0,25,11.215,25,25S258.785,190,245,190z"></path></a></g></svg></svg></svg>