<svg version="1.1" xmlns="http://www.w3.org/2000/svg" xmlns:xlink="http://www.w3.org/1999/xlink" fill="transparent" x="0" y="0" width="350" height="350" preserveAspectRatio="xMinYMin slice"><style type="text/css">.links{fill:transparent;stroke: #E4CF37;}.links:hover{fill:#63D272; opacity:0.4;}</style><defs><g id="allt"><path id="t360" d="M3333,64 L3322,64 C3311,64 3325,60 3315,59 C3305,58 3320,64 3310,64 L3300,64 3300,64 L3300,74 C3300,85 3304,70 3303,78 C3303,87 3300,77 3300,86 L3300,96 3300,96 L3311,96 C3322,96 3306,100 3315,99 C3324,99 3313,96 3323,96 L3333,96 3333,96 L3333,86 C3333,76 3335,89 3335,79 C3336,69 3333,85 3333,74 L3333,64"/></g><clipPath id="c" clipRule="evenodd" fill="transparent"><use href="#t360"/></clipPath></defs><svg viewBox="3299 57 38 44" preserveAspectRatio="xMinYMin meet"><svg width="4380" height="2430"><g><image crossorigin="anonymous" x="0" y="0" href="https://nftpuzzle.license-token.com/assets/completepuzzle.svg" width="100%" height="100%" /><g class="links"><use href="#t360"/></g></g></svg><svg x="3322" y="86" height="9%" width="9%" viewBox="0 0 330 330"><g><a xlink:href="https://nftpuzzle.license-token.com/" class="links"><title>See the most innovative NFT based token software licensing project</title><path fill="#E4CF37" id="more" d="M165,0C74.019,0,0,74.019,0,165s74.019,165,165,165s165-74.019,165-165S255.981,0,165,0z M85,190 c-13.785,0-25-11.215-25-25s11.215-25,25-25s25,11.215,25,25S98.785,190,85,190z M165,190c-13.785,0-25-11.215-25-25 s11.215-25,25-25s25,11.215,25,25S178.785,190,165,190z M245,190c-13.785,0-25-11.215-25-25s11.215-25,25-25 c13.785,0,25,11.215,25,25S258.785,190,245,190z"></path></a></g></svg></svg></svg>