<svg version="1.1" xmlns="http://www.w3.org/2000/svg" xmlns:xlink="http://www.w3.org/1999/xlink" fill="transparent" x="0" y="0" width="350" height="350" preserveAspectRatio="xMinYMin slice"><style type="text/css">.links{fill:transparent;stroke: #E4CF37;}.links:hover{fill:#63D272; opacity:0.4;}</style><defs><g id="allt"><path id="t3601" d="M3036,864 L3025,864 C3015,864 3026,872 3017,874 C3009,876 3021,864 3012,864 L3003,864 3003,864 L3003,874 C3003,885 3008,870 3007,878 C3007,887 3002,876 3002,886 L3003,896 3003,896 L3014,896 C3025,896 3009,901 3018,900 C3027,900 3015,895 3025,895 L3036,896 3036,896 L3035,886 C3034,876 3041,887 3042,878 C3044,870 3035,885 3035,874 L3036,864"/></g><clipPath id="c" clipRule="evenodd" fill="transparent"><use href="#t3601"/></clipPath></defs><svg viewBox="3001 863 44 39" preserveAspectRatio="xMinYMin meet"><svg width="4380" height="2430"><g><image crossorigin="anonymous" x="0" y="0" href="https://nftpuzzle.license-token.com/assets/completepuzzle.svg" width="100%" height="100%" /><g class="links"><use href="#t3601"/></g></g></svg><svg x="3030" y="887" height="9%" width="9%" viewBox="0 0 330 330"><g><a xlink:href="https://nftpuzzle.license-token.com/" class="links"><title>See the most innovative NFT based token software licensing project</title><path fill="#E4CF37" id="more" d="M165,0C74.019,0,0,74.019,0,165s74.019,165,165,165s165-74.019,165-165S255.981,0,165,0z M85,190 c-13.785,0-25-11.215-25-25s11.215-25,25-25s25,11.215,25,25S98.785,190,85,190z M165,190c-13.785,0-25-11.215-25-25 s11.215-25,25-25s25,11.215,25,25S178.785,190,165,190z M245,190c-13.785,0-25-11.215-25-25s11.215-25,25-25 c13.785,0,25,11.215,25,25S258.785,190,245,190z"></path></a></g></svg></svg></svg>