<svg version="1.1" xmlns="http://www.w3.org/2000/svg" xmlns:xlink="http://www.w3.org/1999/xlink" fill="transparent" x="0" y="0" width="350" height="350" preserveAspectRatio="xMinYMin slice"><style type="text/css">.links{fill:transparent;stroke: #E4CF37;}.links:hover{fill:#63D272; opacity:0.4;}</style><defs><g id="allt"><path id="t3604" d="M3135,864 L3124,865 C3113,867 3129,860 3119,859 C3110,858 3121,867 3111,865 L3102,864 3102,864 L3102,872 C3102,881 3104,870 3104,880 C3104,890 3102,876 3102,886 L3102,896 3102,896 L3111,896 C3120,896 3108,898 3118,898 C3129,898 3114,896 3124,896 L3135,896 3135,896 L3135,885 C3135,874 3130,887 3129,879 C3129,871 3137,885 3136,874 L3135,864"/></g><clipPath id="c" clipRule="evenodd" fill="transparent"><use href="#t3604"/></clipPath></defs><svg viewBox="3101 857 37 42" preserveAspectRatio="xMinYMin meet"><svg width="4380" height="2430"><g><image crossorigin="anonymous" x="0" y="0" href="https://nftpuzzle.license-token.com/assets/completepuzzle.svg" width="100%" height="100%" /><g class="links"><use href="#t3604"/></g></g></svg><svg x="3123" y="884" height="9%" width="9%" viewBox="0 0 330 330"><g><a xlink:href="https://nftpuzzle.license-token.com/" class="links"><title>See the most innovative NFT based token software licensing project</title><path fill="#E4CF37" id="more" d="M165,0C74.019,0,0,74.019,0,165s74.019,165,165,165s165-74.019,165-165S255.981,0,165,0z M85,190 c-13.785,0-25-11.215-25-25s11.215-25,25-25s25,11.215,25,25S98.785,190,85,190z M165,190c-13.785,0-25-11.215-25-25 s11.215-25,25-25s25,11.215,25,25S178.785,190,165,190z M245,190c-13.785,0-25-11.215-25-25s11.215-25,25-25 c13.785,0,25,11.215,25,25S258.785,190,245,190z"></path></a></g></svg></svg></svg>