<svg version="1.1" xmlns="http://www.w3.org/2000/svg" xmlns:xlink="http://www.w3.org/1999/xlink" fill="transparent" x="0" y="0" width="350" height="350" preserveAspectRatio="xMinYMin slice"><style type="text/css">.links{fill:transparent;stroke: #E4CF37;}.links:hover{fill:#63D272; opacity:0.4;}</style><defs><g id="allt"><path id="t3606" d="M3201,864 L3191,864 C3182,865 3191,861 3182,861 C3173,862 3188,864 3178,864 L3168,864 3168,864 L3169,873 C3170,883 3165,871 3162,879 C3160,888 3170,877 3169,886 L3168,896 3168,896 L3178,897 C3188,898 3175,893 3183,890 C3192,888 3181,898 3191,897 L3201,896 3201,896 L3201,885 C3201,874 3208,890 3209,879 C3211,869 3197,882 3199,873 L3201,864"/></g><clipPath id="c" clipRule="evenodd" fill="transparent"><use href="#t3606"/></clipPath></defs><svg viewBox="3159 860 53 39" preserveAspectRatio="xMinYMin meet"><svg width="4380" height="2430"><g><image crossorigin="anonymous" x="0" y="0" href="https://nftpuzzle.license-token.com/assets/completepuzzle.svg" width="100%" height="100%" /><g class="links"><use href="#t3606"/></g></g></svg><svg x="3197" y="884" height="9%" width="9%" viewBox="0 0 330 330"><g><a xlink:href="https://nftpuzzle.license-token.com/" class="links"><title>See the most innovative NFT based token software licensing project</title><path fill="#E4CF37" id="more" d="M165,0C74.019,0,0,74.019,0,165s74.019,165,165,165s165-74.019,165-165S255.981,0,165,0z M85,190 c-13.785,0-25-11.215-25-25s11.215-25,25-25s25,11.215,25,25S98.785,190,85,190z M165,190c-13.785,0-25-11.215-25-25 s11.215-25,25-25s25,11.215,25,25S178.785,190,165,190z M245,190c-13.785,0-25-11.215-25-25s11.215-25,25-25 c13.785,0,25,11.215,25,25S258.785,190,245,190z"></path></a></g></svg></svg></svg>