<svg version="1.1" xmlns="http://www.w3.org/2000/svg" xmlns:xlink="http://www.w3.org/1999/xlink" fill="transparent" x="0" y="0" width="350" height="350" preserveAspectRatio="xMinYMin slice"><style type="text/css">.links{fill:transparent;stroke: #E4CF37;}.links:hover{fill:#63D272; opacity:0.4;}</style><defs><g id="allt"><path id="t3608" d="M3267,864 L3256,864 C3245,864 3262,867 3251,868 C3241,870 3252,862 3243,863 L3234,864 3234,864 L3234,874 C3234,885 3232,873 3232,880 C3232,887 3234,877 3234,886 L3234,896 3234,896 L3245,896 C3256,896 3243,894 3250,894 C3258,894 3247,896 3257,896 L3267,896 3267,896 L3265,885 C3263,875 3273,886 3276,879 C3280,872 3264,885 3265,874 L3267,864"/></g><clipPath id="c" clipRule="evenodd" fill="transparent"><use href="#t3608"/></clipPath></defs><svg viewBox="3231 861 50 36" preserveAspectRatio="xMinYMin meet"><svg width="4380" height="2430"><g><image crossorigin="anonymous" x="0" y="0" href="https://nftpuzzle.license-token.com/assets/completepuzzle.svg" width="100%" height="100%" /><g class="links"><use href="#t3608"/></g></g></svg><svg x="3266" y="882" height="9%" width="9%" viewBox="0 0 330 330"><g><a xlink:href="https://nftpuzzle.license-token.com/" class="links"><title>See the most innovative NFT based token software licensing project</title><path fill="#E4CF37" id="more" d="M165,0C74.019,0,0,74.019,0,165s74.019,165,165,165s165-74.019,165-165S255.981,0,165,0z M85,190 c-13.785,0-25-11.215-25-25s11.215-25,25-25s25,11.215,25,25S98.785,190,85,190z M165,190c-13.785,0-25-11.215-25-25 s11.215-25,25-25s25,11.215,25,25S178.785,190,165,190z M245,190c-13.785,0-25-11.215-25-25s11.215-25,25-25 c13.785,0,25,11.215,25,25S258.785,190,245,190z"></path></a></g></svg></svg></svg>