<svg version="1.1" xmlns="http://www.w3.org/2000/svg" xmlns:xlink="http://www.w3.org/1999/xlink" fill="transparent" x="0" y="0" width="350" height="350" preserveAspectRatio="xMinYMin slice"><style type="text/css">.links{fill:transparent;stroke: #E4CF37;}.links:hover{fill:#63D272; opacity:0.4;}</style><defs><g id="allt"><path id="t361" d="M3366,64 L3355,64 C3344,64 3357,71 3348,69 C3339,68 3351,61 3342,62 L3333,64 3333,64 L3333,74 C3333,85 3336,69 3335,79 C3335,89 3333,76 3333,86 L3333,96 3333,96 L3343,96 C3354,96 3338,99 3348,98 C3359,98 3345,96 3355,96 L3366,96 3366,96 L3366,86 C3366,76 3362,88 3362,79 C3362,71 3366,81 3366,72 L3366,64"/></g><clipPath id="c" clipRule="evenodd" fill="transparent"><use href="#t361"/></clipPath></defs><svg viewBox="3332 60 35 40" preserveAspectRatio="xMinYMin meet"><svg width="4380" height="2430"><g><image crossorigin="anonymous" x="0" y="0" href="https://nftpuzzle.license-token.com/assets/completepuzzle.svg" width="100%" height="100%" /><g class="links"><use href="#t361"/></g></g></svg><svg x="3352" y="85" height="9%" width="9%" viewBox="0 0 330 330"><g><a xlink:href="https://nftpuzzle.license-token.com/" class="links"><title>See the most innovative NFT based token software licensing project</title><path fill="#E4CF37" id="more" d="M165,0C74.019,0,0,74.019,0,165s74.019,165,165,165s165-74.019,165-165S255.981,0,165,0z M85,190 c-13.785,0-25-11.215-25-25s11.215-25,25-25s25,11.215,25,25S98.785,190,85,190z M165,190c-13.785,0-25-11.215-25-25 s11.215-25,25-25s25,11.215,25,25S178.785,190,165,190z M245,190c-13.785,0-25-11.215-25-25s11.215-25,25-25 c13.785,0,25,11.215,25,25S258.785,190,245,190z"></path></a></g></svg></svg></svg>