<svg version="1.1" xmlns="http://www.w3.org/2000/svg" xmlns:xlink="http://www.w3.org/1999/xlink" fill="transparent" x="0" y="0" width="350" height="350" preserveAspectRatio="xMinYMin slice"><style type="text/css">.links{fill:transparent;stroke: #E4CF37;}.links:hover{fill:#63D272; opacity:0.4;}</style><defs><g id="allt"><path id="t3611" d="M3366,864 L3356,864 C3346,865 3356,859 3346,857 C3337,855 3351,866 3342,865 L3333,864 3333,864 L3333,873 C3333,883 3325,869 3327,878 C3329,888 3333,874 3333,885 L3333,896 3333,896 L3343,896 C3353,896 3338,888 3348,890 C3358,892 3343,896 3354,896 L3366,896 3366,896 L3367,886 C3369,877 3360,889 3359,880 C3359,871 3368,883 3367,873 L3366,864"/></g><clipPath id="c" clipRule="evenodd" fill="transparent"><use href="#t3611"/></clipPath></defs><svg viewBox="3324 854 46 43" preserveAspectRatio="xMinYMin meet"><svg width="4380" height="2430"><g><image crossorigin="anonymous" x="0" y="0" href="https://nftpuzzle.license-token.com/assets/completepuzzle.svg" width="100%" height="100%" /><g class="links"><use href="#t3611"/></g></g></svg><svg x="3355" y="882" height="9%" width="9%" viewBox="0 0 330 330"><g><a xlink:href="https://nftpuzzle.license-token.com/" class="links"><title>See the most innovative NFT based token software licensing project</title><path fill="#E4CF37" id="more" d="M165,0C74.019,0,0,74.019,0,165s74.019,165,165,165s165-74.019,165-165S255.981,0,165,0z M85,190 c-13.785,0-25-11.215-25-25s11.215-25,25-25s25,11.215,25,25S98.785,190,85,190z M165,190c-13.785,0-25-11.215-25-25 s11.215-25,25-25s25,11.215,25,25S178.785,190,165,190z M245,190c-13.785,0-25-11.215-25-25s11.215-25,25-25 c13.785,0,25,11.215,25,25S258.785,190,245,190z"></path></a></g></svg></svg></svg>