<svg version="1.1" xmlns="http://www.w3.org/2000/svg" xmlns:xlink="http://www.w3.org/1999/xlink" fill="transparent" x="0" y="0" width="350" height="350" preserveAspectRatio="xMinYMin slice"><style type="text/css">.links{fill:transparent;stroke: #E4CF37;}.links:hover{fill:#63D272; opacity:0.4;}</style><defs><g id="allt"><path id="t3614" d="M3465,864 L3454,864 C3443,864 3455,870 3447,870 C3439,870 3451,861 3441,862 L3432,864 3432,864 L3432,873 C3432,882 3436,870 3437,879 C3439,888 3430,876 3431,886 L3432,896 3432,896 L3441,896 C3450,896 3438,900 3447,901 C3457,903 3444,894 3454,895 L3465,896 3465,896 L3465,885 C3465,875 3462,889 3462,880 C3462,871 3465,882 3465,873 L3465,864"/></g><clipPath id="c" clipRule="evenodd" fill="transparent"><use href="#t3614"/></clipPath></defs><svg viewBox="3429 860 37 44" preserveAspectRatio="xMinYMin meet"><svg width="4380" height="2430"><g><image crossorigin="anonymous" x="0" y="0" href="https://nftpuzzle.license-token.com/assets/completepuzzle.svg" width="100%" height="100%" /><g class="links"><use href="#t3614"/></g></g></svg><svg x="3451" y="889" height="9%" width="9%" viewBox="0 0 330 330"><g><a xlink:href="https://nftpuzzle.license-token.com/" class="links"><title>See the most innovative NFT based token software licensing project</title><path fill="#E4CF37" id="more" d="M165,0C74.019,0,0,74.019,0,165s74.019,165,165,165s165-74.019,165-165S255.981,0,165,0z M85,190 c-13.785,0-25-11.215-25-25s11.215-25,25-25s25,11.215,25,25S98.785,190,85,190z M165,190c-13.785,0-25-11.215-25-25 s11.215-25,25-25s25,11.215,25,25S178.785,190,165,190z M245,190c-13.785,0-25-11.215-25-25s11.215-25,25-25 c13.785,0,25,11.215,25,25S258.785,190,245,190z"></path></a></g></svg></svg></svg>