<svg version="1.1" xmlns="http://www.w3.org/2000/svg" xmlns:xlink="http://www.w3.org/1999/xlink" fill="transparent" x="0" y="0" width="350" height="350" preserveAspectRatio="xMinYMin slice"><style type="text/css">.links{fill:transparent;stroke: #E4CF37;}.links:hover{fill:#63D272; opacity:0.4;}</style><defs><g id="allt"><path id="t3615" d="M3498,864 L3487,863 C3477,863 3491,870 3481,871 C3472,872 3487,864 3476,864 L3465,864 3465,864 L3465,873 C3465,882 3462,871 3462,880 C3462,889 3465,875 3465,885 L3465,896 3465,896 L3474,896 C3484,896 3472,893 3481,893 C3491,893 3477,896 3487,896 L3498,896 3498,896 L3498,886 C3498,876 3493,889 3489,880 C3486,871 3503,884 3500,874 L3498,864"/></g><clipPath id="c" clipRule="evenodd" fill="transparent"><use href="#t3615"/></clipPath></defs><svg viewBox="3461 862 43 35" preserveAspectRatio="xMinYMin meet"><svg width="4380" height="2430"><g><image crossorigin="anonymous" x="0" y="0" href="https://nftpuzzle.license-token.com/assets/completepuzzle.svg" width="100%" height="100%" /><g class="links"><use href="#t3615"/></g></g></svg><svg x="3489" y="882" height="9%" width="9%" viewBox="0 0 330 330"><g><a xlink:href="https://nftpuzzle.license-token.com/" class="links"><title>See the most innovative NFT based token software licensing project</title><path fill="#E4CF37" id="more" d="M165,0C74.019,0,0,74.019,0,165s74.019,165,165,165s165-74.019,165-165S255.981,0,165,0z M85,190 c-13.785,0-25-11.215-25-25s11.215-25,25-25s25,11.215,25,25S98.785,190,85,190z M165,190c-13.785,0-25-11.215-25-25 s11.215-25,25-25s25,11.215,25,25S178.785,190,165,190z M245,190c-13.785,0-25-11.215-25-25s11.215-25,25-25 c13.785,0,25,11.215,25,25S258.785,190,245,190z"></path></a></g></svg></svg></svg>