<svg version="1.1" xmlns="http://www.w3.org/2000/svg" xmlns:xlink="http://www.w3.org/1999/xlink" fill="transparent" x="0" y="0" width="350" height="350" preserveAspectRatio="xMinYMin slice"><style type="text/css">.links{fill:transparent;stroke: #E4CF37;}.links:hover{fill:#63D272; opacity:0.4;}</style><defs><g id="allt"><path id="t3616" d="M3531,864 L3521,864 C3512,864 3524,861 3514,860 C3504,860 3517,864 3507,864 L3498,864 3498,864 L3500,874 C3503,884 3486,871 3489,880 C3493,889 3498,876 3498,886 L3498,896 3498,896 L3508,898 C3519,901 3505,885 3514,888 C3524,891 3510,896 3520,896 L3531,896 3531,896 L3530,886 C3530,876 3536,889 3536,879 C3537,870 3529,882 3530,873 L3531,864"/></g><clipPath id="c" clipRule="evenodd" fill="transparent"><use href="#t3616"/></clipPath></defs><svg viewBox="3485 859 53 43" preserveAspectRatio="xMinYMin meet"><svg width="4380" height="2430"><g><image crossorigin="anonymous" x="0" y="0" href="https://nftpuzzle.license-token.com/assets/completepuzzle.svg" width="100%" height="100%" /><g class="links"><use href="#t3616"/></g></g></svg><svg x="3523" y="887" height="9%" width="9%" viewBox="0 0 330 330"><g><a xlink:href="https://nftpuzzle.license-token.com/" class="links"><title>See the most innovative NFT based token software licensing project</title><path fill="#E4CF37" id="more" d="M165,0C74.019,0,0,74.019,0,165s74.019,165,165,165s165-74.019,165-165S255.981,0,165,0z M85,190 c-13.785,0-25-11.215-25-25s11.215-25,25-25s25,11.215,25,25S98.785,190,85,190z M165,190c-13.785,0-25-11.215-25-25 s11.215-25,25-25s25,11.215,25,25S178.785,190,165,190z M245,190c-13.785,0-25-11.215-25-25s11.215-25,25-25 c13.785,0,25,11.215,25,25S258.785,190,245,190z"></path></a></g></svg></svg></svg>