<svg version="1.1" xmlns="http://www.w3.org/2000/svg" xmlns:xlink="http://www.w3.org/1999/xlink" fill="transparent" x="0" y="0" width="350" height="350" preserveAspectRatio="xMinYMin slice"><style type="text/css">.links{fill:transparent;stroke: #E4CF37;}.links:hover{fill:#63D272; opacity:0.4;}</style><defs><g id="allt"><path id="t3617" d="M3564,864 L3553,864 C3543,864 3555,862 3546,861 C3537,860 3549,864 3540,864 L3531,864 3531,864 L3530,873 C3529,882 3537,870 3536,879 C3536,889 3530,876 3530,886 L3531,896 3531,896 L3540,895 C3550,894 3537,902 3547,901 C3557,901 3543,895 3553,895 L3564,896 3564,896 L3563,885 C3563,875 3567,889 3567,879 C3567,869 3563,884 3563,874 L3564,864"/></g><clipPath id="c" clipRule="evenodd" fill="transparent"><use href="#t3617"/></clipPath></defs><svg viewBox="3528 859 40 44" preserveAspectRatio="xMinYMin meet"><svg width="4380" height="2430"><g><image crossorigin="anonymous" x="0" y="0" href="https://nftpuzzle.license-token.com/assets/completepuzzle.svg" width="100%" height="100%" /><g class="links"><use href="#t3617"/></g></g></svg><svg x="3553" y="888" height="9%" width="9%" viewBox="0 0 330 330"><g><a xlink:href="https://nftpuzzle.license-token.com/" class="links"><title>See the most innovative NFT based token software licensing project</title><path fill="#E4CF37" id="more" d="M165,0C74.019,0,0,74.019,0,165s74.019,165,165,165s165-74.019,165-165S255.981,0,165,0z M85,190 c-13.785,0-25-11.215-25-25s11.215-25,25-25s25,11.215,25,25S98.785,190,85,190z M165,190c-13.785,0-25-11.215-25-25 s11.215-25,25-25s25,11.215,25,25S178.785,190,165,190z M245,190c-13.785,0-25-11.215-25-25s11.215-25,25-25 c13.785,0,25,11.215,25,25S258.785,190,245,190z"></path></a></g></svg></svg></svg>