<svg version="1.1" xmlns="http://www.w3.org/2000/svg" xmlns:xlink="http://www.w3.org/1999/xlink" fill="transparent" x="0" y="0" width="350" height="350" preserveAspectRatio="xMinYMin slice"><style type="text/css">.links{fill:transparent;stroke: #E4CF37;}.links:hover{fill:#63D272; opacity:0.4;}</style><defs><g id="allt"><path id="t3618" d="M3597,864 L3587,866 C3578,869 3591,855 3580,853 C3569,851 3585,868 3574,866 L3564,864 3564,864 L3563,874 C3563,884 3567,869 3567,879 C3567,889 3563,875 3563,885 L3564,896 3564,896 L3574,895 C3584,895 3569,899 3579,899 C3590,899 3576,895 3586,895 L3597,896 3597,896 L3596,885 C3595,875 3605,889 3604,880 C3603,871 3596,882 3596,873 L3597,864"/></g><clipPath id="c" clipRule="evenodd" fill="transparent"><use href="#t3618"/></clipPath></defs><svg viewBox="3562 850 44 50" preserveAspectRatio="xMinYMin meet"><svg width="4380" height="2430"><g><image crossorigin="anonymous" x="0" y="0" href="https://nftpuzzle.license-token.com/assets/completepuzzle.svg" width="100%" height="100%" /><g class="links"><use href="#t3618"/></g></g></svg><svg x="3591" y="885" height="9%" width="9%" viewBox="0 0 330 330"><g><a xlink:href="https://nftpuzzle.license-token.com/" class="links"><title>See the most innovative NFT based token software licensing project</title><path fill="#E4CF37" id="more" d="M165,0C74.019,0,0,74.019,0,165s74.019,165,165,165s165-74.019,165-165S255.981,0,165,0z M85,190 c-13.785,0-25-11.215-25-25s11.215-25,25-25s25,11.215,25,25S98.785,190,85,190z M165,190c-13.785,0-25-11.215-25-25 s11.215-25,25-25s25,11.215,25,25S178.785,190,165,190z M245,190c-13.785,0-25-11.215-25-25s11.215-25,25-25 c13.785,0,25,11.215,25,25S258.785,190,245,190z"></path></a></g></svg></svg></svg>