<svg version="1.1" xmlns="http://www.w3.org/2000/svg" xmlns:xlink="http://www.w3.org/1999/xlink" fill="transparent" x="0" y="0" width="350" height="350" preserveAspectRatio="xMinYMin slice"><style type="text/css">.links{fill:transparent;stroke: #E4CF37;}.links:hover{fill:#63D272; opacity:0.4;}</style><defs><g id="allt"><path id="t3619" d="M3630,864 L3619,863 C3609,862 3623,874 3614,874 C3605,875 3615,859 3606,861 L3597,864 3597,864 L3596,873 C3596,882 3603,871 3604,880 C3605,889 3595,875 3596,885 L3597,896 3597,896 L3606,895 C3616,895 3604,902 3613,903 C3623,904 3608,894 3619,895 L3630,896 3630,896 L3631,886 C3633,876 3622,890 3623,881 C3625,872 3633,885 3631,874 L3630,864"/></g><clipPath id="c" clipRule="evenodd" fill="transparent"><use href="#t3619"/></clipPath></defs><svg viewBox="3594 858 40 47" preserveAspectRatio="xMinYMin meet"><svg width="4380" height="2430"><g><image crossorigin="anonymous" x="0" y="0" href="https://nftpuzzle.license-token.com/assets/completepuzzle.svg" width="100%" height="100%" /><g class="links"><use href="#t3619"/></g></g></svg><svg x="3619" y="890" height="9%" width="9%" viewBox="0 0 330 330"><g><a xlink:href="https://nftpuzzle.license-token.com/" class="links"><title>See the most innovative NFT based token software licensing project</title><path fill="#E4CF37" id="more" d="M165,0C74.019,0,0,74.019,0,165s74.019,165,165,165s165-74.019,165-165S255.981,0,165,0z M85,190 c-13.785,0-25-11.215-25-25s11.215-25,25-25s25,11.215,25,25S98.785,190,85,190z M165,190c-13.785,0-25-11.215-25-25 s11.215-25,25-25s25,11.215,25,25S178.785,190,165,190z M245,190c-13.785,0-25-11.215-25-25s11.215-25,25-25 c13.785,0,25,11.215,25,25S258.785,190,245,190z"></path></a></g></svg></svg></svg>