<svg version="1.1" xmlns="http://www.w3.org/2000/svg" xmlns:xlink="http://www.w3.org/1999/xlink" fill="transparent" x="0" y="0" width="350" height="350" preserveAspectRatio="xMinYMin slice"><style type="text/css">.links{fill:transparent;stroke: #E4CF37;}.links:hover{fill:#63D272; opacity:0.4;}</style><defs><g id="allt"><path id="t3621" d="M3696,864 L3685,864 C3674,864 3689,871 3679,872 C3669,873 3684,861 3673,862 L3663,864 3663,864 L3661,874 C3660,885 3672,870 3671,879 C3671,889 3659,874 3661,885 L3663,896 3663,896 L3673,894 C3684,893 3669,905 3679,904 C3689,904 3674,892 3685,894 L3696,896 3696,896 L3695,887 C3695,878 3701,888 3699,879 C3698,871 3696,883 3696,873 L3696,864"/></g><clipPath id="c" clipRule="evenodd" fill="transparent"><use href="#t3621"/></clipPath></defs><svg viewBox="3658 860 44 46" preserveAspectRatio="xMinYMin meet"><svg width="4380" height="2430"><g><image crossorigin="anonymous" x="0" y="0" href="https://nftpuzzle.license-token.com/assets/completepuzzle.svg" width="100%" height="100%" /><g class="links"><use href="#t3621"/></g></g></svg><svg x="3687" y="891" height="9%" width="9%" viewBox="0 0 330 330"><g><a xlink:href="https://nftpuzzle.license-token.com/" class="links"><title>See the most innovative NFT based token software licensing project</title><path fill="#E4CF37" id="more" d="M165,0C74.019,0,0,74.019,0,165s74.019,165,165,165s165-74.019,165-165S255.981,0,165,0z M85,190 c-13.785,0-25-11.215-25-25s11.215-25,25-25s25,11.215,25,25S98.785,190,85,190z M165,190c-13.785,0-25-11.215-25-25 s11.215-25,25-25s25,11.215,25,25S178.785,190,165,190z M245,190c-13.785,0-25-11.215-25-25s11.215-25,25-25 c13.785,0,25,11.215,25,25S258.785,190,245,190z"></path></a></g></svg></svg></svg>