<svg version="1.1" xmlns="http://www.w3.org/2000/svg" xmlns:xlink="http://www.w3.org/1999/xlink" fill="transparent" x="0" y="0" width="350" height="350" preserveAspectRatio="xMinYMin slice"><style type="text/css">.links{fill:transparent;stroke: #E4CF37;}.links:hover{fill:#63D272; opacity:0.4;}</style><defs><g id="allt"><path id="t3623" d="M3762,864 L3752,864 C3742,864 3755,859 3745,860 C3735,861 3750,864 3739,864 L3729,864 3729,864 L3730,874 C3731,884 3722,872 3722,880 C3723,888 3731,874 3730,885 L3729,896 3729,896 L3739,897 C3750,898 3737,889 3745,889 C3754,890 3740,898 3751,897 L3762,896 3762,896 L3762,887 C3762,878 3765,891 3765,880 C3766,870 3762,884 3762,874 L3762,864"/></g><clipPath id="c" clipRule="evenodd" fill="transparent"><use href="#t3623"/></clipPath></defs><svg viewBox="3721 858 46 41" preserveAspectRatio="xMinYMin meet"><svg width="4380" height="2430"><g><image crossorigin="anonymous" x="0" y="0" href="https://nftpuzzle.license-token.com/assets/completepuzzle.svg" width="100%" height="100%" /><g class="links"><use href="#t3623"/></g></g></svg><svg x="3752" y="884" height="9%" width="9%" viewBox="0 0 330 330"><g><a xlink:href="https://nftpuzzle.license-token.com/" class="links"><title>See the most innovative NFT based token software licensing project</title><path fill="#E4CF37" id="more" d="M165,0C74.019,0,0,74.019,0,165s74.019,165,165,165s165-74.019,165-165S255.981,0,165,0z M85,190 c-13.785,0-25-11.215-25-25s11.215-25,25-25s25,11.215,25,25S98.785,190,85,190z M165,190c-13.785,0-25-11.215-25-25 s11.215-25,25-25s25,11.215,25,25S178.785,190,165,190z M245,190c-13.785,0-25-11.215-25-25s11.215-25,25-25 c13.785,0,25,11.215,25,25S258.785,190,245,190z"></path></a></g></svg></svg></svg>