<svg version="1.1" xmlns="http://www.w3.org/2000/svg" xmlns:xlink="http://www.w3.org/1999/xlink" fill="transparent" x="0" y="0" width="350" height="350" preserveAspectRatio="xMinYMin slice"><style type="text/css">.links{fill:transparent;stroke: #E4CF37;}.links:hover{fill:#63D272; opacity:0.4;}</style><defs><g id="allt"><path id="t3624" d="M3795,864 L3784,864 C3774,865 3785,860 3777,859 C3770,858 3783,867 3772,865 L3762,864 3762,864 L3762,874 C3762,884 3766,870 3765,880 C3765,891 3762,878 3762,887 L3762,896 3762,896 L3772,896 C3783,896 3768,900 3779,899 C3790,899 3776,896 3785,896 L3795,896 3795,896 L3793,886 C3792,876 3802,887 3801,879 C3800,872 3795,885 3795,874 L3795,864"/></g><clipPath id="c" clipRule="evenodd" fill="transparent"><use href="#t3624"/></clipPath></defs><svg viewBox="3761 857 42 44" preserveAspectRatio="xMinYMin meet"><svg width="4380" height="2430"><g><image crossorigin="anonymous" x="0" y="0" href="https://nftpuzzle.license-token.com/assets/completepuzzle.svg" width="100%" height="100%" /><g class="links"><use href="#t3624"/></g></g></svg><svg x="3788" y="886" height="9%" width="9%" viewBox="0 0 330 330"><g><a xlink:href="https://nftpuzzle.license-token.com/" class="links"><title>See the most innovative NFT based token software licensing project</title><path fill="#E4CF37" id="more" d="M165,0C74.019,0,0,74.019,0,165s74.019,165,165,165s165-74.019,165-165S255.981,0,165,0z M85,190 c-13.785,0-25-11.215-25-25s11.215-25,25-25s25,11.215,25,25S98.785,190,85,190z M165,190c-13.785,0-25-11.215-25-25 s11.215-25,25-25s25,11.215,25,25S178.785,190,165,190z M245,190c-13.785,0-25-11.215-25-25s11.215-25,25-25 c13.785,0,25,11.215,25,25S258.785,190,245,190z"></path></a></g></svg></svg></svg>