<svg version="1.1" xmlns="http://www.w3.org/2000/svg" xmlns:xlink="http://www.w3.org/1999/xlink" fill="transparent" x="0" y="0" width="350" height="350" preserveAspectRatio="xMinYMin slice"><style type="text/css">.links{fill:transparent;stroke: #E4CF37;}.links:hover{fill:#63D272; opacity:0.4;}</style><defs><g id="allt"><path id="t3626" d="M3861,864 L3850,862 C3840,860 3855,874 3845,872 C3836,870 3848,862 3838,863 L3828,864 3828,864 L3828,872 C3828,881 3825,870 3824,880 C3824,890 3829,877 3828,886 L3828,896 3828,896 L3837,896 C3846,896 3834,893 3844,892 C3855,892 3841,897 3851,896 L3861,896 3861,896 L3860,886 C3860,876 3868,890 3866,881 C3865,872 3859,883 3860,873 L3861,864"/></g><clipPath id="c" clipRule="evenodd" fill="transparent"><use href="#t3626"/></clipPath></defs><svg viewBox="3823 859 46 39" preserveAspectRatio="xMinYMin meet"><svg width="4380" height="2430"><g><image crossorigin="anonymous" x="0" y="0" href="https://nftpuzzle.license-token.com/assets/completepuzzle.svg" width="100%" height="100%" /><g class="links"><use href="#t3626"/></g></g></svg><svg x="3854" y="883" height="9%" width="9%" viewBox="0 0 330 330"><g><a xlink:href="https://nftpuzzle.license-token.com/" class="links"><title>See the most innovative NFT based token software licensing project</title><path fill="#E4CF37" id="more" d="M165,0C74.019,0,0,74.019,0,165s74.019,165,165,165s165-74.019,165-165S255.981,0,165,0z M85,190 c-13.785,0-25-11.215-25-25s11.215-25,25-25s25,11.215,25,25S98.785,190,85,190z M165,190c-13.785,0-25-11.215-25-25 s11.215-25,25-25s25,11.215,25,25S178.785,190,165,190z M245,190c-13.785,0-25-11.215-25-25s11.215-25,25-25 c13.785,0,25,11.215,25,25S258.785,190,245,190z"></path></a></g></svg></svg></svg>