<svg version="1.1" xmlns="http://www.w3.org/2000/svg" xmlns:xlink="http://www.w3.org/1999/xlink" fill="transparent" x="0" y="0" width="350" height="350" preserveAspectRatio="xMinYMin slice"><style type="text/css">.links{fill:transparent;stroke: #E4CF37;}.links:hover{fill:#63D272; opacity:0.4;}</style><defs><g id="allt"><path id="t3628" d="M3927,864 L3916,864 C3906,864 3920,872 3911,871 C3902,870 3915,861 3904,862 L3894,864 3894,864 L3895,873 C3896,883 3882,872 3883,880 C3884,889 3895,877 3894,886 L3894,896 3894,896 L3903,897 C3913,898 3902,884 3911,885 C3920,887 3907,897 3917,896 L3927,896 3927,896 L3929,885 C3932,875 3921,886 3919,879 C3917,873 3930,884 3928,874 L3927,864"/></g><clipPath id="c" clipRule="evenodd" fill="transparent"><use href="#t3628"/></clipPath></defs><svg viewBox="3881 860 52 39" preserveAspectRatio="xMinYMin meet"><svg width="4380" height="2430"><g><image crossorigin="anonymous" x="0" y="0" href="https://nftpuzzle.license-token.com/assets/completepuzzle.svg" width="100%" height="100%" /><g class="links"><use href="#t3628"/></g></g></svg><svg x="3918" y="884" height="9%" width="9%" viewBox="0 0 330 330"><g><a xlink:href="https://nftpuzzle.license-token.com/" class="links"><title>See the most innovative NFT based token software licensing project</title><path fill="#E4CF37" id="more" d="M165,0C74.019,0,0,74.019,0,165s74.019,165,165,165s165-74.019,165-165S255.981,0,165,0z M85,190 c-13.785,0-25-11.215-25-25s11.215-25,25-25s25,11.215,25,25S98.785,190,85,190z M165,190c-13.785,0-25-11.215-25-25 s11.215-25,25-25s25,11.215,25,25S178.785,190,165,190z M245,190c-13.785,0-25-11.215-25-25s11.215-25,25-25 c13.785,0,25,11.215,25,25S258.785,190,245,190z"></path></a></g></svg></svg></svg>