<svg version="1.1" xmlns="http://www.w3.org/2000/svg" xmlns:xlink="http://www.w3.org/1999/xlink" fill="transparent" x="0" y="0" width="350" height="350" preserveAspectRatio="xMinYMin slice"><style type="text/css">.links{fill:transparent;stroke: #E4CF37;}.links:hover{fill:#63D272; opacity:0.4;}</style><defs><g id="allt"><path id="t365" d="M3498,64 L3488,64 C3478,64 3490,69 3482,69 C3474,70 3485,64 3475,64 L3465,64 3465,64 L3465,73 C3465,82 3456,72 3458,81 C3461,90 3465,76 3465,86 L3465,96 3465,96 L3474,96 C3484,96 3473,88 3482,90 C3492,92 3478,96 3488,96 L3498,96 3498,96 L3498,85 C3499,75 3493,90 3492,81 C3492,73 3499,83 3498,73 L3498,64"/></g><clipPath id="c" clipRule="evenodd" fill="transparent"><use href="#t365"/></clipPath></defs><svg viewBox="3455 63 45 34" preserveAspectRatio="xMinYMin meet"><svg width="4380" height="2430"><g><image crossorigin="anonymous" x="0" y="0" href="https://nftpuzzle.license-token.com/assets/completepuzzle.svg" width="100%" height="100%" /><g class="links"><use href="#t365"/></g></g></svg><svg x="3485" y="82" height="9%" width="9%" viewBox="0 0 330 330"><g><a xlink:href="https://nftpuzzle.license-token.com/" class="links"><title>See the most innovative NFT based token software licensing project</title><path fill="#E4CF37" id="more" d="M165,0C74.019,0,0,74.019,0,165s74.019,165,165,165s165-74.019,165-165S255.981,0,165,0z M85,190 c-13.785,0-25-11.215-25-25s11.215-25,25-25s25,11.215,25,25S98.785,190,85,190z M165,190c-13.785,0-25-11.215-25-25 s11.215-25,25-25s25,11.215,25,25S178.785,190,165,190z M245,190c-13.785,0-25-11.215-25-25s11.215-25,25-25 c13.785,0,25,11.215,25,25S258.785,190,245,190z"></path></a></g></svg></svg></svg>