<svg version="1.1" xmlns="http://www.w3.org/2000/svg" xmlns:xlink="http://www.w3.org/1999/xlink" fill="transparent" x="0" y="0" width="350" height="350" preserveAspectRatio="xMinYMin slice"><style type="text/css">.links{fill:transparent;stroke: #E4CF37;}.links:hover{fill:#63D272; opacity:0.4;}</style><defs><g id="allt"><path id="t366" d="M3531,64 L3521,64 C3511,64 3521,71 3512,70 C3503,69 3517,64 3507,64 L3498,64 3498,64 L3498,73 C3499,83 3492,73 3492,81 C3493,90 3499,75 3498,85 L3498,96 3498,96 L3508,96 C3518,97 3507,90 3516,90 C3525,91 3510,97 3520,96 L3531,96 3531,96 L3531,86 C3531,77 3537,89 3536,79 C3536,69 3531,83 3531,73 L3531,64"/></g><clipPath id="c" clipRule="evenodd" fill="transparent"><use href="#t366"/></clipPath></defs><svg viewBox="3491 63 47 35" preserveAspectRatio="xMinYMin meet"><svg width="4380" height="2430"><g><image crossorigin="anonymous" x="0" y="0" href="https://nftpuzzle.license-token.com/assets/completepuzzle.svg" width="100%" height="100%" /><g class="links"><use href="#t366"/></g></g></svg><svg x="3523" y="83" height="9%" width="9%" viewBox="0 0 330 330"><g><a xlink:href="https://nftpuzzle.license-token.com/" class="links"><title>See the most innovative NFT based token software licensing project</title><path fill="#E4CF37" id="more" d="M165,0C74.019,0,0,74.019,0,165s74.019,165,165,165s165-74.019,165-165S255.981,0,165,0z M85,190 c-13.785,0-25-11.215-25-25s11.215-25,25-25s25,11.215,25,25S98.785,190,85,190z M165,190c-13.785,0-25-11.215-25-25 s11.215-25,25-25s25,11.215,25,25S178.785,190,165,190z M245,190c-13.785,0-25-11.215-25-25s11.215-25,25-25 c13.785,0,25,11.215,25,25S258.785,190,245,190z"></path></a></g></svg></svg></svg>