<svg version="1.1" xmlns="http://www.w3.org/2000/svg" xmlns:xlink="http://www.w3.org/1999/xlink" fill="transparent" x="0" y="0" width="350" height="350" preserveAspectRatio="xMinYMin slice"><style type="text/css">.links{fill:transparent;stroke: #E4CF37;}.links:hover{fill:#63D272; opacity:0.4;}</style><defs><g id="allt"><path id="t3676" d="M1221,896 L1210,896 C1200,896 1211,893 1202,892 C1193,892 1209,897 1198,896 L1188,896 1188,896 L1188,906 C1188,917 1179,900 1181,909 C1183,919 1191,906 1189,917 L1188,928 1188,928 L1198,928 C1209,928 1192,919 1202,921 C1212,923 1199,931 1210,929 L1221,928 1221,928 L1221,918 C1221,908 1218,918 1218,910 C1219,903 1221,913 1221,904 L1221,896"/></g><clipPath id="c" clipRule="evenodd" fill="transparent"><use href="#t3676"/></clipPath></defs><svg viewBox="1178 891 44 41" preserveAspectRatio="xMinYMin meet"><svg width="4380" height="2430"><g><image crossorigin="anonymous" x="0" y="0" href="https://nftpuzzle.license-token.com/assets/completepuzzle.svg" width="100%" height="100%" /><g class="links"><use href="#t3676"/></g></g></svg><svg x="1207" y="917" height="9%" width="9%" viewBox="0 0 330 330"><g><a xlink:href="https://nftpuzzle.license-token.com/" class="links"><title>See the most innovative NFT based token software licensing project</title><path fill="#E4CF37" id="more" d="M165,0C74.019,0,0,74.019,0,165s74.019,165,165,165s165-74.019,165-165S255.981,0,165,0z M85,190 c-13.785,0-25-11.215-25-25s11.215-25,25-25s25,11.215,25,25S98.785,190,85,190z M165,190c-13.785,0-25-11.215-25-25 s11.215-25,25-25s25,11.215,25,25S178.785,190,165,190z M245,190c-13.785,0-25-11.215-25-25s11.215-25,25-25 c13.785,0,25,11.215,25,25S258.785,190,245,190z"></path></a></g></svg></svg></svg>