<svg version="1.1" xmlns="http://www.w3.org/2000/svg" xmlns:xlink="http://www.w3.org/1999/xlink" fill="transparent" x="0" y="0" width="350" height="350" preserveAspectRatio="xMinYMin slice"><style type="text/css">.links{fill:transparent;stroke: #E4CF37;}.links:hover{fill:#63D272; opacity:0.4;}</style><defs><g id="allt"><path id="t3681" d="M1386,896 L1376,895 C1366,894 1378,902 1369,903 C1360,904 1373,896 1363,896 L1353,896 1353,896 L1353,906 C1354,916 1343,904 1345,912 C1348,921 1355,910 1354,919 L1353,928 1353,928 L1363,928 C1374,929 1362,918 1370,920 C1379,923 1367,930 1376,929 L1386,928 1386,928 L1385,917 C1384,906 1389,922 1390,912 C1392,903 1386,913 1386,904 L1386,896"/></g><clipPath id="c" clipRule="evenodd" fill="transparent"><use href="#t3681"/></clipPath></defs><svg viewBox="1342 893 51 38" preserveAspectRatio="xMinYMin meet"><svg width="4380" height="2430"><g><image crossorigin="anonymous" x="0" y="0" href="https://nftpuzzle.license-token.com/assets/completepuzzle.svg" width="100%" height="100%" /><g class="links"><use href="#t3681"/></g></g></svg><svg x="1378" y="916" height="9%" width="9%" viewBox="0 0 330 330"><g><a xlink:href="https://nftpuzzle.license-token.com/" class="links"><title>See the most innovative NFT based token software licensing project</title><path fill="#E4CF37" id="more" d="M165,0C74.019,0,0,74.019,0,165s74.019,165,165,165s165-74.019,165-165S255.981,0,165,0z M85,190 c-13.785,0-25-11.215-25-25s11.215-25,25-25s25,11.215,25,25S98.785,190,85,190z M165,190c-13.785,0-25-11.215-25-25 s11.215-25,25-25s25,11.215,25,25S178.785,190,165,190z M245,190c-13.785,0-25-11.215-25-25s11.215-25,25-25 c13.785,0,25,11.215,25,25S258.785,190,245,190z"></path></a></g></svg></svg></svg>