<svg version="1.1" xmlns="http://www.w3.org/2000/svg" xmlns:xlink="http://www.w3.org/1999/xlink" fill="transparent" x="0" y="0" width="350" height="350" preserveAspectRatio="xMinYMin slice"><style type="text/css">.links{fill:transparent;stroke: #E4CF37;}.links:hover{fill:#63D272; opacity:0.4;}</style><defs><g id="allt"><path id="t3682" d="M1419,896 L1409,896 C1400,897 1409,890 1401,889 C1394,888 1404,896 1395,896 L1386,896 1386,896 L1386,904 C1386,913 1392,903 1390,912 C1389,922 1384,906 1385,917 L1386,928 1386,928 L1395,928 C1404,928 1393,934 1403,932 C1413,931 1396,926 1407,927 L1419,928 1419,928 L1419,918 C1419,908 1426,922 1424,913 C1423,904 1416,916 1417,906 L1419,896"/></g><clipPath id="c" clipRule="evenodd" fill="transparent"><use href="#t3682"/></clipPath></defs><svg viewBox="1383 887 44 48" preserveAspectRatio="xMinYMin meet"><svg width="4380" height="2430"><g><image crossorigin="anonymous" x="0" y="0" href="https://nftpuzzle.license-token.com/assets/completepuzzle.svg" width="100%" height="100%" /><g class="links"><use href="#t3682"/></g></g></svg><svg x="1412" y="920" height="9%" width="9%" viewBox="0 0 330 330"><g><a xlink:href="https://nftpuzzle.license-token.com/" class="links"><title>See the most innovative NFT based token software licensing project</title><path fill="#E4CF37" id="more" d="M165,0C74.019,0,0,74.019,0,165s74.019,165,165,165s165-74.019,165-165S255.981,0,165,0z M85,190 c-13.785,0-25-11.215-25-25s11.215-25,25-25s25,11.215,25,25S98.785,190,85,190z M165,190c-13.785,0-25-11.215-25-25 s11.215-25,25-25s25,11.215,25,25S178.785,190,165,190z M245,190c-13.785,0-25-11.215-25-25s11.215-25,25-25 c13.785,0,25,11.215,25,25S258.785,190,245,190z"></path></a></g></svg></svg></svg>