<svg version="1.1" xmlns="http://www.w3.org/2000/svg" xmlns:xlink="http://www.w3.org/1999/xlink" fill="transparent" x="0" y="0" width="350" height="350" preserveAspectRatio="xMinYMin slice"><style type="text/css">.links{fill:transparent;stroke: #E4CF37;}.links:hover{fill:#63D272; opacity:0.4;}</style><defs><g id="allt"><path id="t3689" d="M1650,896 L1640,896 C1631,896 1641,904 1631,904 C1621,905 1636,894 1626,895 L1617,896 1617,896 L1617,905 C1617,915 1609,903 1607,913 C1606,923 1620,909 1618,918 L1617,928 1617,928 L1627,928 C1637,928 1624,920 1634,919 C1645,918 1631,931 1640,929 L1650,928 1650,928 L1650,917 C1651,907 1647,922 1646,912 C1646,902 1650,916 1650,906 L1650,896"/></g><clipPath id="c" clipRule="evenodd" fill="transparent"><use href="#t3689"/></clipPath></defs><svg viewBox="1605 893 47 39" preserveAspectRatio="xMinYMin meet"><svg width="4380" height="2430"><g><image crossorigin="anonymous" x="0" y="0" href="https://nftpuzzle.license-token.com/assets/completepuzzle.svg" width="100%" height="100%" /><g class="links"><use href="#t3689"/></g></g></svg><svg x="1637" y="917" height="9%" width="9%" viewBox="0 0 330 330"><g><a xlink:href="https://nftpuzzle.license-token.com/" class="links"><title>See the most innovative NFT based token software licensing project</title><path fill="#E4CF37" id="more" d="M165,0C74.019,0,0,74.019,0,165s74.019,165,165,165s165-74.019,165-165S255.981,0,165,0z M85,190 c-13.785,0-25-11.215-25-25s11.215-25,25-25s25,11.215,25,25S98.785,190,85,190z M165,190c-13.785,0-25-11.215-25-25 s11.215-25,25-25s25,11.215,25,25S178.785,190,165,190z M245,190c-13.785,0-25-11.215-25-25s11.215-25,25-25 c13.785,0,25,11.215,25,25S258.785,190,245,190z"></path></a></g></svg></svg></svg>