<svg version="1.1" xmlns="http://www.w3.org/2000/svg" xmlns:xlink="http://www.w3.org/1999/xlink" fill="transparent" x="0" y="0" width="350" height="350" preserveAspectRatio="xMinYMin slice"><style type="text/css">.links{fill:transparent;stroke: #E4CF37;}.links:hover{fill:#63D272; opacity:0.4;}</style><defs><g id="allt"><path id="t369" d="M3630,64 L3619,64 C3608,64 3621,66 3613,66 C3606,67 3616,64 3606,64 L3597,64 3597,64 L3598,74 C3599,84 3586,70 3585,79 C3585,88 3602,74 3599,85 L3597,96 3597,96 L3607,97 C3617,98 3603,85 3612,85 C3621,85 3607,101 3618,98 L3630,96 3630,96 L3630,87 C3630,78 3632,88 3632,78 C3633,69 3629,85 3629,74 L3630,64"/></g><clipPath id="c" clipRule="evenodd" fill="transparent"><use href="#t369"/></clipPath></defs><svg viewBox="3584 63 50 39" preserveAspectRatio="xMinYMin meet"><svg width="4380" height="2430"><g><image crossorigin="anonymous" x="0" y="0" href="https://nftpuzzle.license-token.com/assets/completepuzzle.svg" width="100%" height="100%" /><g class="links"><use href="#t369"/></g></g></svg><svg x="3619" y="87" height="9%" width="9%" viewBox="0 0 330 330"><g><a xlink:href="https://nftpuzzle.license-token.com/" class="links"><title>See the most innovative NFT based token software licensing project</title><path fill="#E4CF37" id="more" d="M165,0C74.019,0,0,74.019,0,165s74.019,165,165,165s165-74.019,165-165S255.981,0,165,0z M85,190 c-13.785,0-25-11.215-25-25s11.215-25,25-25s25,11.215,25,25S98.785,190,85,190z M165,190c-13.785,0-25-11.215-25-25 s11.215-25,25-25s25,11.215,25,25S178.785,190,165,190z M245,190c-13.785,0-25-11.215-25-25s11.215-25,25-25 c13.785,0,25,11.215,25,25S258.785,190,245,190z"></path></a></g></svg></svg></svg>