<svg version="1.1" xmlns="http://www.w3.org/2000/svg" xmlns:xlink="http://www.w3.org/1999/xlink" fill="transparent" x="0" y="0" width="350" height="350" preserveAspectRatio="xMinYMin slice"><style type="text/css">.links{fill:transparent;stroke: #E4CF37;}.links:hover{fill:#63D272; opacity:0.4;}</style><defs><g id="allt"><path id="t3690" d="M1683,896 L1671,896 C1660,896 1673,902 1666,904 C1659,907 1668,892 1659,894 L1650,896 1650,896 L1650,906 C1650,916 1646,902 1646,912 C1647,922 1651,907 1650,917 L1650,928 1650,928 L1660,928 C1671,928 1656,924 1666,924 C1677,925 1662,929 1672,928 L1683,928 1683,928 L1684,918 C1685,908 1680,921 1680,912 C1681,904 1683,915 1683,905 L1683,896"/></g><clipPath id="c" clipRule="evenodd" fill="transparent"><use href="#t3690"/></clipPath></defs><svg viewBox="1645 891 41 39" preserveAspectRatio="xMinYMin meet"><svg width="4380" height="2430"><g><image crossorigin="anonymous" x="0" y="0" href="https://nftpuzzle.license-token.com/assets/completepuzzle.svg" width="100%" height="100%" /><g class="links"><use href="#t3690"/></g></g></svg><svg x="1671" y="915" height="9%" width="9%" viewBox="0 0 330 330"><g><a xlink:href="https://nftpuzzle.license-token.com/" class="links"><title>See the most innovative NFT based token software licensing project</title><path fill="#E4CF37" id="more" d="M165,0C74.019,0,0,74.019,0,165s74.019,165,165,165s165-74.019,165-165S255.981,0,165,0z M85,190 c-13.785,0-25-11.215-25-25s11.215-25,25-25s25,11.215,25,25S98.785,190,85,190z M165,190c-13.785,0-25-11.215-25-25 s11.215-25,25-25s25,11.215,25,25S178.785,190,165,190z M245,190c-13.785,0-25-11.215-25-25s11.215-25,25-25 c13.785,0,25,11.215,25,25S258.785,190,245,190z"></path></a></g></svg></svg></svg>