<svg version="1.1" xmlns="http://www.w3.org/2000/svg" xmlns:xlink="http://www.w3.org/1999/xlink" fill="transparent" x="0" y="0" width="350" height="350" preserveAspectRatio="xMinYMin slice"><style type="text/css">.links{fill:transparent;stroke: #E4CF37;}.links:hover{fill:#63D272; opacity:0.4;}</style><defs><g id="allt"><path id="t3691" d="M1716,896 L1705,896 C1694,896 1709,902 1700,902 C1692,902 1703,894 1693,895 L1683,896 1683,896 L1683,905 C1683,915 1681,904 1680,912 C1680,921 1685,908 1684,918 L1683,928 1683,928 L1693,928 C1703,928 1691,926 1700,925 C1709,925 1696,930 1706,929 L1716,928 1716,928 L1717,917 C1718,906 1711,919 1710,912 C1709,905 1719,917 1717,906 L1716,896"/></g><clipPath id="c" clipRule="evenodd" fill="transparent"><use href="#t3691"/></clipPath></defs><svg viewBox="1679 893 41 38" preserveAspectRatio="xMinYMin meet"><svg width="4380" height="2430"><g><image crossorigin="anonymous" x="0" y="0" href="https://nftpuzzle.license-token.com/assets/completepuzzle.svg" width="100%" height="100%" /><g class="links"><use href="#t3691"/></g></g></svg><svg x="1705" y="916" height="9%" width="9%" viewBox="0 0 330 330"><g><a xlink:href="https://nftpuzzle.license-token.com/" class="links"><title>See the most innovative NFT based token software licensing project</title><path fill="#E4CF37" id="more" d="M165,0C74.019,0,0,74.019,0,165s74.019,165,165,165s165-74.019,165-165S255.981,0,165,0z M85,190 c-13.785,0-25-11.215-25-25s11.215-25,25-25s25,11.215,25,25S98.785,190,85,190z M165,190c-13.785,0-25-11.215-25-25 s11.215-25,25-25s25,11.215,25,25S178.785,190,165,190z M245,190c-13.785,0-25-11.215-25-25s11.215-25,25-25 c13.785,0,25,11.215,25,25S258.785,190,245,190z"></path></a></g></svg></svg></svg>