<svg version="1.1" xmlns="http://www.w3.org/2000/svg" xmlns:xlink="http://www.w3.org/1999/xlink" fill="transparent" x="0" y="0" width="350" height="350" preserveAspectRatio="xMinYMin slice"><style type="text/css">.links{fill:transparent;stroke: #E4CF37;}.links:hover{fill:#63D272; opacity:0.4;}</style><defs><g id="allt"><path id="t3692" d="M1749,896 L1739,896 C1729,896 1743,890 1733,891 C1723,892 1735,897 1725,896 L1716,896 1716,896 L1717,906 C1719,917 1709,905 1710,912 C1711,919 1718,906 1717,917 L1716,928 1716,928 L1726,929 C1737,931 1725,921 1732,922 C1740,923 1726,930 1737,929 L1749,928 1749,928 L1749,918 C1749,909 1747,922 1746,911 C1746,901 1750,913 1749,904 L1749,896"/></g><clipPath id="c" clipRule="evenodd" fill="transparent"><use href="#t3692"/></clipPath></defs><svg viewBox="1708 889 43 43" preserveAspectRatio="xMinYMin meet"><svg width="4380" height="2430"><g><image crossorigin="anonymous" x="0" y="0" href="https://nftpuzzle.license-token.com/assets/completepuzzle.svg" width="100%" height="100%" /><g class="links"><use href="#t3692"/></g></g></svg><svg x="1736" y="917" height="9%" width="9%" viewBox="0 0 330 330"><g><a xlink:href="https://nftpuzzle.license-token.com/" class="links"><title>See the most innovative NFT based token software licensing project</title><path fill="#E4CF37" id="more" d="M165,0C74.019,0,0,74.019,0,165s74.019,165,165,165s165-74.019,165-165S255.981,0,165,0z M85,190 c-13.785,0-25-11.215-25-25s11.215-25,25-25s25,11.215,25,25S98.785,190,85,190z M165,190c-13.785,0-25-11.215-25-25 s11.215-25,25-25s25,11.215,25,25S178.785,190,165,190z M245,190c-13.785,0-25-11.215-25-25s11.215-25,25-25 c13.785,0,25,11.215,25,25S258.785,190,245,190z"></path></a></g></svg></svg></svg>