<svg version="1.1" xmlns="http://www.w3.org/2000/svg" xmlns:xlink="http://www.w3.org/1999/xlink" fill="transparent" x="0" y="0" width="350" height="350" preserveAspectRatio="xMinYMin slice"><style type="text/css">.links{fill:transparent;stroke: #E4CF37;}.links:hover{fill:#63D272; opacity:0.4;}</style><defs><g id="allt"><path id="t3695" d="M1848,896 L1837,894 C1826,892 1839,901 1830,901 C1821,901 1836,894 1825,895 L1815,896 1815,896 L1815,906 C1815,916 1808,904 1807,913 C1806,922 1815,906 1815,917 L1815,928 1815,928 L1825,928 C1836,928 1823,921 1832,920 C1842,919 1825,928 1836,928 L1848,928 1848,928 L1849,917 C1850,906 1838,919 1839,909 C1840,900 1848,914 1848,905 L1848,896"/></g><clipPath id="c" clipRule="evenodd" fill="transparent"><use href="#t3695"/></clipPath></defs><svg viewBox="1805 891 46 38" preserveAspectRatio="xMinYMin meet"><svg width="4380" height="2430"><g><image crossorigin="anonymous" x="0" y="0" href="https://nftpuzzle.license-token.com/assets/completepuzzle.svg" width="100%" height="100%" /><g class="links"><use href="#t3695"/></g></g></svg><svg x="1836" y="914" height="9%" width="9%" viewBox="0 0 330 330"><g><a xlink:href="https://nftpuzzle.license-token.com/" class="links"><title>See the most innovative NFT based token software licensing project</title><path fill="#E4CF37" id="more" d="M165,0C74.019,0,0,74.019,0,165s74.019,165,165,165s165-74.019,165-165S255.981,0,165,0z M85,190 c-13.785,0-25-11.215-25-25s11.215-25,25-25s25,11.215,25,25S98.785,190,85,190z M165,190c-13.785,0-25-11.215-25-25 s11.215-25,25-25s25,11.215,25,25S178.785,190,165,190z M245,190c-13.785,0-25-11.215-25-25s11.215-25,25-25 c13.785,0,25,11.215,25,25S258.785,190,245,190z"></path></a></g></svg></svg></svg>