<svg version="1.1" xmlns="http://www.w3.org/2000/svg" xmlns:xlink="http://www.w3.org/1999/xlink" fill="transparent" x="0" y="0" width="350" height="350" preserveAspectRatio="xMinYMin slice"><style type="text/css">.links{fill:transparent;stroke: #E4CF37;}.links:hover{fill:#63D272; opacity:0.4;}</style><defs><g id="allt"><path id="t3696" d="M1881,896 L1871,895 C1862,895 1872,898 1863,898 C1854,898 1869,895 1858,895 L1848,896 1848,896 L1848,905 C1848,914 1840,900 1839,909 C1838,919 1850,906 1849,917 L1848,928 1848,928 L1857,928 C1866,928 1852,920 1862,919 C1872,918 1858,930 1869,929 L1881,928 1881,928 L1881,917 C1881,907 1876,920 1874,912 C1873,904 1881,916 1881,906 L1881,896"/></g><clipPath id="c" clipRule="evenodd" fill="transparent"><use href="#t3696"/></clipPath></defs><svg viewBox="1837 894 45 37" preserveAspectRatio="xMinYMin meet"><svg width="4380" height="2430"><g><image crossorigin="anonymous" x="0" y="0" href="https://nftpuzzle.license-token.com/assets/completepuzzle.svg" width="100%" height="100%" /><g class="links"><use href="#t3696"/></g></g></svg><svg x="1867" y="916" height="9%" width="9%" viewBox="0 0 330 330"><g><a xlink:href="https://nftpuzzle.license-token.com/" class="links"><title>See the most innovative NFT based token software licensing project</title><path fill="#E4CF37" id="more" d="M165,0C74.019,0,0,74.019,0,165s74.019,165,165,165s165-74.019,165-165S255.981,0,165,0z M85,190 c-13.785,0-25-11.215-25-25s11.215-25,25-25s25,11.215,25,25S98.785,190,85,190z M165,190c-13.785,0-25-11.215-25-25 s11.215-25,25-25s25,11.215,25,25S178.785,190,165,190z M245,190c-13.785,0-25-11.215-25-25s11.215-25,25-25 c13.785,0,25,11.215,25,25S258.785,190,245,190z"></path></a></g></svg></svg></svg>