<svg version="1.1" xmlns="http://www.w3.org/2000/svg" xmlns:xlink="http://www.w3.org/1999/xlink" fill="transparent" x="0" y="0" width="350" height="350" preserveAspectRatio="xMinYMin slice"><style type="text/css">.links{fill:transparent;stroke: #E4CF37;}.links:hover{fill:#63D272; opacity:0.4;}</style><defs><g id="allt"><path id="t3698" d="M1947,896 L1937,896 C1927,896 1939,901 1931,899 C1923,898 1935,896 1924,896 L1914,896 1914,896 L1914,906 C1914,917 1902,904 1903,911 C1904,919 1918,908 1916,918 L1914,928 1914,928 L1924,928 C1935,928 1923,916 1930,917 C1937,919 1926,932 1936,930 L1947,928 1947,928 L1947,918 C1947,909 1942,922 1943,912 C1944,903 1948,917 1947,906 L1947,896"/></g><clipPath id="c" clipRule="evenodd" fill="transparent"><use href="#t3698"/></clipPath></defs><svg viewBox="1901 895 48 38" preserveAspectRatio="xMinYMin meet"><svg width="4380" height="2430"><g><image crossorigin="anonymous" x="0" y="0" href="https://nftpuzzle.license-token.com/assets/completepuzzle.svg" width="100%" height="100%" /><g class="links"><use href="#t3698"/></g></g></svg><svg x="1934" y="918" height="9%" width="9%" viewBox="0 0 330 330"><g><a xlink:href="https://nftpuzzle.license-token.com/" class="links"><title>See the most innovative NFT based token software licensing project</title><path fill="#E4CF37" id="more" d="M165,0C74.019,0,0,74.019,0,165s74.019,165,165,165s165-74.019,165-165S255.981,0,165,0z M85,190 c-13.785,0-25-11.215-25-25s11.215-25,25-25s25,11.215,25,25S98.785,190,85,190z M165,190c-13.785,0-25-11.215-25-25 s11.215-25,25-25s25,11.215,25,25S178.785,190,165,190z M245,190c-13.785,0-25-11.215-25-25s11.215-25,25-25 c13.785,0,25,11.215,25,25S258.785,190,245,190z"></path></a></g></svg></svg></svg>