<svg version="1.1" xmlns="http://www.w3.org/2000/svg" xmlns:xlink="http://www.w3.org/1999/xlink" fill="transparent" x="0" y="0" width="350" height="350" preserveAspectRatio="xMinYMin slice"><style type="text/css">.links{fill:transparent;stroke: #E4CF37;}.links:hover{fill:#63D272; opacity:0.4;}</style><defs><g id="allt"><path id="t3700" d="M2013,896 L2002,896 C1992,896 2006,892 1997,890 C1988,889 1999,899 1989,897 L1980,896 1980,896 L1978,906 C1976,916 1990,905 1990,912 C1990,919 1977,908 1978,918 L1980,928 1980,928 L1990,926 C2001,924 1989,938 1996,938 C2003,938 1992,925 2002,926 L2013,928 2013,928 L2013,917 C2013,907 2019,922 2021,911 C2023,901 2012,916 2012,906 L2013,896"/></g><clipPath id="c" clipRule="evenodd" fill="transparent"><use href="#t3700"/></clipPath></defs><svg viewBox="1975 888 49 51" preserveAspectRatio="xMinYMin meet"><svg width="4380" height="2430"><g><image crossorigin="anonymous" x="0" y="0" href="https://nftpuzzle.license-token.com/assets/completepuzzle.svg" width="100%" height="100%" /><g class="links"><use href="#t3700"/></g></g></svg><svg x="2009" y="924" height="9%" width="9%" viewBox="0 0 330 330"><g><a xlink:href="https://nftpuzzle.license-token.com/" class="links"><title>See the most innovative NFT based token software licensing project</title><path fill="#E4CF37" id="more" d="M165,0C74.019,0,0,74.019,0,165s74.019,165,165,165s165-74.019,165-165S255.981,0,165,0z M85,190 c-13.785,0-25-11.215-25-25s11.215-25,25-25s25,11.215,25,25S98.785,190,85,190z M165,190c-13.785,0-25-11.215-25-25 s11.215-25,25-25s25,11.215,25,25S178.785,190,165,190z M245,190c-13.785,0-25-11.215-25-25s11.215-25,25-25 c13.785,0,25,11.215,25,25S258.785,190,245,190z"></path></a></g></svg></svg></svg>