<svg version="1.1" xmlns="http://www.w3.org/2000/svg" xmlns:xlink="http://www.w3.org/1999/xlink" fill="transparent" x="0" y="0" width="350" height="350" preserveAspectRatio="xMinYMin slice"><style type="text/css">.links{fill:transparent;stroke: #E4CF37;}.links:hover{fill:#63D272; opacity:0.4;}</style><defs><g id="allt"><path id="t3706" d="M2211,896 L2201,897 C2192,899 2203,891 2193,889 C2183,887 2196,896 2187,896 L2178,896 2178,896 L2179,905 C2180,914 2172,900 2172,909 C2172,919 2180,907 2179,917 L2178,928 2178,928 L2187,929 C2197,930 2182,922 2192,922 C2202,922 2189,930 2200,929 L2211,928 2211,928 L2211,918 C2211,908 2215,920 2214,912 C2213,905 2210,913 2210,904 L2211,896"/></g><clipPath id="c" clipRule="evenodd" fill="transparent"><use href="#t3706"/></clipPath></defs><svg viewBox="2171 886 45 45" preserveAspectRatio="xMinYMin meet"><svg width="4380" height="2430"><g><image crossorigin="anonymous" x="0" y="0" href="https://nftpuzzle.license-token.com/assets/completepuzzle.svg" width="100%" height="100%" /><g class="links"><use href="#t3706"/></g></g></svg><svg x="2201" y="916" height="9%" width="9%" viewBox="0 0 330 330"><g><a xlink:href="https://nftpuzzle.license-token.com/" class="links"><title>See the most innovative NFT based token software licensing project</title><path fill="#E4CF37" id="more" d="M165,0C74.019,0,0,74.019,0,165s74.019,165,165,165s165-74.019,165-165S255.981,0,165,0z M85,190 c-13.785,0-25-11.215-25-25s11.215-25,25-25s25,11.215,25,25S98.785,190,85,190z M165,190c-13.785,0-25-11.215-25-25 s11.215-25,25-25s25,11.215,25,25S178.785,190,165,190z M245,190c-13.785,0-25-11.215-25-25s11.215-25,25-25 c13.785,0,25,11.215,25,25S258.785,190,245,190z"></path></a></g></svg></svg></svg>