<svg version="1.1" xmlns="http://www.w3.org/2000/svg" xmlns:xlink="http://www.w3.org/1999/xlink" fill="transparent" x="0" y="0" width="350" height="350" preserveAspectRatio="xMinYMin slice"><style type="text/css">.links{fill:transparent;stroke: #E4CF37;}.links:hover{fill:#63D272; opacity:0.4;}</style><defs><g id="allt"><path id="t371" d="M3696,64 L3684,65 C3673,66 3686,59 3676,59 C3667,60 3681,66 3672,65 L3663,64 3663,64 L3663,72 C3663,81 3657,69 3657,77 C3658,86 3663,76 3663,86 L3663,96 3663,96 L3672,96 C3681,96 3668,90 3677,90 C3686,91 3676,96 3686,96 L3696,96 3696,96 L3697,85 C3698,75 3686,89 3688,80 C3690,72 3696,83 3696,73 L3696,64"/></g><clipPath id="c" clipRule="evenodd" fill="transparent"><use href="#t371"/></clipPath></defs><svg viewBox="3656 58 43 39" preserveAspectRatio="xMinYMin meet"><svg width="4380" height="2430"><g><image crossorigin="anonymous" x="0" y="0" href="https://nftpuzzle.license-token.com/assets/completepuzzle.svg" width="100%" height="100%" /><g class="links"><use href="#t371"/></g></g></svg><svg x="3684" y="82" height="9%" width="9%" viewBox="0 0 330 330"><g><a xlink:href="https://nftpuzzle.license-token.com/" class="links"><title>See the most innovative NFT based token software licensing project</title><path fill="#E4CF37" id="more" d="M165,0C74.019,0,0,74.019,0,165s74.019,165,165,165s165-74.019,165-165S255.981,0,165,0z M85,190 c-13.785,0-25-11.215-25-25s11.215-25,25-25s25,11.215,25,25S98.785,190,85,190z M165,190c-13.785,0-25-11.215-25-25 s11.215-25,25-25s25,11.215,25,25S178.785,190,165,190z M245,190c-13.785,0-25-11.215-25-25s11.215-25,25-25 c13.785,0,25,11.215,25,25S258.785,190,245,190z"></path></a></g></svg></svg></svg>