<svg version="1.1" xmlns="http://www.w3.org/2000/svg" xmlns:xlink="http://www.w3.org/1999/xlink" fill="transparent" x="0" y="0" width="350" height="350" preserveAspectRatio="xMinYMin slice"><style type="text/css">.links{fill:transparent;stroke: #E4CF37;}.links:hover{fill:#63D272; opacity:0.4;}</style><defs><g id="allt"><path id="t3711" d="M2376,896 L2365,896 C2355,896 2366,903 2357,903 C2349,904 2364,896 2353,896 L2343,896 2343,896 L2343,905 C2343,915 2340,904 2339,913 C2339,922 2343,909 2343,918 L2343,928 2343,928 L2353,928 C2363,928 2351,925 2360,924 C2370,924 2357,928 2366,928 L2376,928 2376,928 L2377,917 C2379,907 2367,918 2368,911 C2370,904 2376,913 2376,904 L2376,896"/></g><clipPath id="c" clipRule="evenodd" fill="transparent"><use href="#t3711"/></clipPath></defs><svg viewBox="2338 895 42 34" preserveAspectRatio="xMinYMin meet"><svg width="4380" height="2430"><g><image crossorigin="anonymous" x="0" y="0" href="https://nftpuzzle.license-token.com/assets/completepuzzle.svg" width="100%" height="100%" /><g class="links"><use href="#t3711"/></g></g></svg><svg x="2365" y="914" height="9%" width="9%" viewBox="0 0 330 330"><g><a xlink:href="https://nftpuzzle.license-token.com/" class="links"><title>See the most innovative NFT based token software licensing project</title><path fill="#E4CF37" id="more" d="M165,0C74.019,0,0,74.019,0,165s74.019,165,165,165s165-74.019,165-165S255.981,0,165,0z M85,190 c-13.785,0-25-11.215-25-25s11.215-25,25-25s25,11.215,25,25S98.785,190,85,190z M165,190c-13.785,0-25-11.215-25-25 s11.215-25,25-25s25,11.215,25,25S178.785,190,165,190z M245,190c-13.785,0-25-11.215-25-25s11.215-25,25-25 c13.785,0,25,11.215,25,25S258.785,190,245,190z"></path></a></g></svg></svg></svg>