<svg version="1.1" xmlns="http://www.w3.org/2000/svg" xmlns:xlink="http://www.w3.org/1999/xlink" fill="transparent" x="0" y="0" width="350" height="350" preserveAspectRatio="xMinYMin slice"><style type="text/css">.links{fill:transparent;stroke: #E4CF37;}.links:hover{fill:#63D272; opacity:0.4;}</style><defs><g id="allt"><path id="t3714" d="M2475,896 L2464,896 C2454,896 2465,892 2457,891 C2449,891 2463,896 2452,896 L2442,896 2442,896 L2442,905 C2442,915 2439,902 2437,910 C2436,919 2442,908 2442,918 L2442,928 2442,928 L2451,928 C2461,928 2448,925 2456,923 C2465,922 2454,928 2464,928 L2475,928 2475,928 L2475,918 C2476,908 2472,918 2471,911 C2471,904 2475,916 2475,906 L2475,896"/></g><clipPath id="c" clipRule="evenodd" fill="transparent"><use href="#t3714"/></clipPath></defs><svg viewBox="2435 890 42 39" preserveAspectRatio="xMinYMin meet"><svg width="4380" height="2430"><g><image crossorigin="anonymous" x="0" y="0" href="https://nftpuzzle.license-token.com/assets/completepuzzle.svg" width="100%" height="100%" /><g class="links"><use href="#t3714"/></g></g></svg><svg x="2462" y="914" height="9%" width="9%" viewBox="0 0 330 330"><g><a xlink:href="https://nftpuzzle.license-token.com/" class="links"><title>See the most innovative NFT based token software licensing project</title><path fill="#E4CF37" id="more" d="M165,0C74.019,0,0,74.019,0,165s74.019,165,165,165s165-74.019,165-165S255.981,0,165,0z M85,190 c-13.785,0-25-11.215-25-25s11.215-25,25-25s25,11.215,25,25S98.785,190,85,190z M165,190c-13.785,0-25-11.215-25-25 s11.215-25,25-25s25,11.215,25,25S178.785,190,165,190z M245,190c-13.785,0-25-11.215-25-25s11.215-25,25-25 c13.785,0,25,11.215,25,25S258.785,190,245,190z"></path></a></g></svg></svg></svg>