<svg version="1.1" xmlns="http://www.w3.org/2000/svg" xmlns:xlink="http://www.w3.org/1999/xlink" fill="transparent" x="0" y="0" width="350" height="350" preserveAspectRatio="xMinYMin slice"><style type="text/css">.links{fill:transparent;stroke: #E4CF37;}.links:hover{fill:#63D272; opacity:0.4;}</style><defs><g id="allt"><path id="t3717" d="M2574,896 L2564,897 C2555,898 2567,891 2558,892 C2549,893 2563,896 2552,896 L2541,896 2541,896 L2541,905 C2541,914 2530,902 2533,910 C2536,918 2542,908 2541,918 L2541,928 2541,928 L2550,928 C2560,928 2547,918 2555,920 C2564,923 2554,929 2564,928 L2574,928 2574,928 L2574,918 C2574,909 2570,923 2570,912 C2570,901 2574,915 2574,905 L2574,896"/></g><clipPath id="c" clipRule="evenodd" fill="transparent"><use href="#t3717"/></clipPath></defs><svg viewBox="2529 890 46 40" preserveAspectRatio="xMinYMin meet"><svg width="4380" height="2430"><g><image crossorigin="anonymous" x="0" y="0" href="https://nftpuzzle.license-token.com/assets/completepuzzle.svg" width="100%" height="100%" /><g class="links"><use href="#t3717"/></g></g></svg><svg x="2560" y="915" height="9%" width="9%" viewBox="0 0 330 330"><g><a xlink:href="https://nftpuzzle.license-token.com/" class="links"><title>See the most innovative NFT based token software licensing project</title><path fill="#E4CF37" id="more" d="M165,0C74.019,0,0,74.019,0,165s74.019,165,165,165s165-74.019,165-165S255.981,0,165,0z M85,190 c-13.785,0-25-11.215-25-25s11.215-25,25-25s25,11.215,25,25S98.785,190,85,190z M165,190c-13.785,0-25-11.215-25-25 s11.215-25,25-25s25,11.215,25,25S178.785,190,165,190z M245,190c-13.785,0-25-11.215-25-25s11.215-25,25-25 c13.785,0,25,11.215,25,25S258.785,190,245,190z"></path></a></g></svg></svg></svg>