<svg version="1.1" xmlns="http://www.w3.org/2000/svg" xmlns:xlink="http://www.w3.org/1999/xlink" fill="transparent" x="0" y="0" width="350" height="350" preserveAspectRatio="xMinYMin slice"><style type="text/css">.links{fill:transparent;stroke: #E4CF37;}.links:hover{fill:#63D272; opacity:0.4;}</style><defs><g id="allt"><path id="t3719" d="M2640,896 L2629,895 C2618,895 2632,898 2622,898 C2612,899 2628,896 2617,896 L2607,896 2607,896 L2606,906 C2606,916 2611,901 2610,910 C2610,919 2607,910 2607,919 L2607,928 2607,928 L2617,927 C2628,927 2612,932 2621,931 C2630,931 2621,928 2630,928 L2640,928 2640,928 L2638,918 C2637,909 2644,919 2646,911 C2648,903 2640,916 2640,906 L2640,896"/></g><clipPath id="c" clipRule="evenodd" fill="transparent"><use href="#t3719"/></clipPath></defs><svg viewBox="2605 894 44 39" preserveAspectRatio="xMinYMin meet"><svg width="4380" height="2430"><g><image crossorigin="anonymous" x="0" y="0" href="https://nftpuzzle.license-token.com/assets/completepuzzle.svg" width="100%" height="100%" /><g class="links"><use href="#t3719"/></g></g></svg><svg x="2634" y="918" height="9%" width="9%" viewBox="0 0 330 330"><g><a xlink:href="https://nftpuzzle.license-token.com/" class="links"><title>See the most innovative NFT based token software licensing project</title><path fill="#E4CF37" id="more" d="M165,0C74.019,0,0,74.019,0,165s74.019,165,165,165s165-74.019,165-165S255.981,0,165,0z M85,190 c-13.785,0-25-11.215-25-25s11.215-25,25-25s25,11.215,25,25S98.785,190,85,190z M165,190c-13.785,0-25-11.215-25-25 s11.215-25,25-25s25,11.215,25,25S178.785,190,165,190z M245,190c-13.785,0-25-11.215-25-25s11.215-25,25-25 c13.785,0,25,11.215,25,25S258.785,190,245,190z"></path></a></g></svg></svg></svg>