<svg version="1.1" xmlns="http://www.w3.org/2000/svg" xmlns:xlink="http://www.w3.org/1999/xlink" fill="transparent" x="0" y="0" width="350" height="350" preserveAspectRatio="xMinYMin slice"><style type="text/css">.links{fill:transparent;stroke: #E4CF37;}.links:hover{fill:#63D272; opacity:0.4;}</style><defs><g id="allt"><path id="t372" d="M3729,64 L3719,64 C3710,64 3720,69 3712,68 C3705,68 3717,64 3706,64 L3696,64 3696,64 L3696,73 C3696,83 3690,72 3688,80 C3686,89 3698,75 3697,85 L3696,96 3696,96 L3705,96 C3715,96 3704,90 3713,88 C3722,86 3707,98 3718,97 L3729,96 3729,96 L3727,85 C3725,75 3738,87 3737,78 C3737,70 3729,83 3729,73 L3729,64"/></g><clipPath id="c" clipRule="evenodd" fill="transparent"><use href="#t372"/></clipPath></defs><svg viewBox="3685 63 54 36" preserveAspectRatio="xMinYMin meet"><svg width="4380" height="2430"><g><image crossorigin="anonymous" x="0" y="0" href="https://nftpuzzle.license-token.com/assets/completepuzzle.svg" width="100%" height="100%" /><g class="links"><use href="#t372"/></g></g></svg><svg x="3724" y="84" height="9%" width="9%" viewBox="0 0 330 330"><g><a xlink:href="https://nftpuzzle.license-token.com/" class="links"><title>See the most innovative NFT based token software licensing project</title><path fill="#E4CF37" id="more" d="M165,0C74.019,0,0,74.019,0,165s74.019,165,165,165s165-74.019,165-165S255.981,0,165,0z M85,190 c-13.785,0-25-11.215-25-25s11.215-25,25-25s25,11.215,25,25S98.785,190,85,190z M165,190c-13.785,0-25-11.215-25-25 s11.215-25,25-25s25,11.215,25,25S178.785,190,165,190z M245,190c-13.785,0-25-11.215-25-25s11.215-25,25-25 c13.785,0,25,11.215,25,25S258.785,190,245,190z"></path></a></g></svg></svg></svg>