<svg version="1.1" xmlns="http://www.w3.org/2000/svg" xmlns:xlink="http://www.w3.org/1999/xlink" fill="transparent" x="0" y="0" width="350" height="350" preserveAspectRatio="xMinYMin slice"><style type="text/css">.links{fill:transparent;stroke: #E4CF37;}.links:hover{fill:#63D272; opacity:0.4;}</style><defs><g id="allt"><path id="t3721" d="M2706,896 L2696,897 C2687,898 2698,889 2688,888 C2678,887 2694,896 2683,896 L2673,896 2673,896 L2673,905 C2674,915 2665,905 2664,913 C2664,921 2673,910 2673,919 L2673,928 2673,928 L2682,928 C2692,929 2682,920 2690,920 C2699,920 2687,928 2696,928 L2706,928 2706,928 L2706,918 C2706,908 2700,918 2700,910 C2700,902 2706,914 2706,905 L2706,896"/></g><clipPath id="c" clipRule="evenodd" fill="transparent"><use href="#t3721"/></clipPath></defs><svg viewBox="2663 886 44 44" preserveAspectRatio="xMinYMin meet"><svg width="4380" height="2430"><g><image crossorigin="anonymous" x="0" y="0" href="https://nftpuzzle.license-token.com/assets/completepuzzle.svg" width="100%" height="100%" /><g class="links"><use href="#t3721"/></g></g></svg><svg x="2692" y="915" height="9%" width="9%" viewBox="0 0 330 330"><g><a xlink:href="https://nftpuzzle.license-token.com/" class="links"><title>See the most innovative NFT based token software licensing project</title><path fill="#E4CF37" id="more" d="M165,0C74.019,0,0,74.019,0,165s74.019,165,165,165s165-74.019,165-165S255.981,0,165,0z M85,190 c-13.785,0-25-11.215-25-25s11.215-25,25-25s25,11.215,25,25S98.785,190,85,190z M165,190c-13.785,0-25-11.215-25-25 s11.215-25,25-25s25,11.215,25,25S178.785,190,165,190z M245,190c-13.785,0-25-11.215-25-25s11.215-25,25-25 c13.785,0,25,11.215,25,25S258.785,190,245,190z"></path></a></g></svg></svg></svg>