<svg version="1.1" xmlns="http://www.w3.org/2000/svg" xmlns:xlink="http://www.w3.org/1999/xlink" fill="transparent" x="0" y="0" width="350" height="350" preserveAspectRatio="xMinYMin slice"><style type="text/css">.links{fill:transparent;stroke: #E4CF37;}.links:hover{fill:#63D272; opacity:0.4;}</style><defs><g id="allt"><path id="t3729" d="M2970,896 L2960,896 C2950,896 2962,900 2953,900 C2944,900 2958,895 2947,895 L2937,896 2937,896 L2936,906 C2936,916 2941,901 2940,910 C2940,919 2937,907 2937,917 L2937,928 2937,928 L2947,927 C2958,927 2942,932 2951,931 C2960,931 2948,928 2959,928 L2970,928 2970,928 L2967,918 C2965,909 2976,920 2977,910 C2979,901 2970,913 2970,904 L2970,896"/></g><clipPath id="c" clipRule="evenodd" fill="transparent"><use href="#t3729"/></clipPath></defs><svg viewBox="2935 894 45 39" preserveAspectRatio="xMinYMin meet"><svg width="4380" height="2430"><g><image crossorigin="anonymous" x="0" y="0" href="https://nftpuzzle.license-token.com/assets/completepuzzle.svg" width="100%" height="100%" /><g class="links"><use href="#t3729"/></g></g></svg><svg x="2965" y="918" height="9%" width="9%" viewBox="0 0 330 330"><g><a xlink:href="https://nftpuzzle.license-token.com/" class="links"><title>See the most innovative NFT based token software licensing project</title><path fill="#E4CF37" id="more" d="M165,0C74.019,0,0,74.019,0,165s74.019,165,165,165s165-74.019,165-165S255.981,0,165,0z M85,190 c-13.785,0-25-11.215-25-25s11.215-25,25-25s25,11.215,25,25S98.785,190,85,190z M165,190c-13.785,0-25-11.215-25-25 s11.215-25,25-25s25,11.215,25,25S178.785,190,165,190z M245,190c-13.785,0-25-11.215-25-25s11.215-25,25-25 c13.785,0,25,11.215,25,25S258.785,190,245,190z"></path></a></g></svg></svg></svg>