<svg version="1.1" xmlns="http://www.w3.org/2000/svg" xmlns:xlink="http://www.w3.org/1999/xlink" fill="transparent" x="0" y="0" width="350" height="350" preserveAspectRatio="xMinYMin slice"><style type="text/css">.links{fill:transparent;stroke: #E4CF37;}.links:hover{fill:#63D272; opacity:0.4;}</style><defs><g id="allt"><path id="t3733" d="M3102,896 L3091,894 C3080,893 3093,900 3084,902 C3076,904 3088,892 3078,894 L3069,896 3069,896 L3068,906 C3068,917 3073,901 3073,910 C3073,920 3066,908 3067,918 L3069,928 3069,928 L3080,927 C3091,927 3074,932 3084,932 C3094,932 3081,925 3091,926 L3102,928 3102,928 L3100,918 C3098,908 3111,922 3110,912 C3109,902 3102,913 3102,904 L3102,896"/></g><clipPath id="c" clipRule="evenodd" fill="transparent"><use href="#t3733"/></clipPath></defs><svg viewBox="3065 891 47 42" preserveAspectRatio="xMinYMin meet"><svg width="4380" height="2430"><g><image crossorigin="anonymous" x="0" y="0" href="https://nftpuzzle.license-token.com/assets/completepuzzle.svg" width="100%" height="100%" /><g class="links"><use href="#t3733"/></g></g></svg><svg x="3097" y="918" height="9%" width="9%" viewBox="0 0 330 330"><g><a xlink:href="https://nftpuzzle.license-token.com/" class="links"><title>See the most innovative NFT based token software licensing project</title><path fill="#E4CF37" id="more" d="M165,0C74.019,0,0,74.019,0,165s74.019,165,165,165s165-74.019,165-165S255.981,0,165,0z M85,190 c-13.785,0-25-11.215-25-25s11.215-25,25-25s25,11.215,25,25S98.785,190,85,190z M165,190c-13.785,0-25-11.215-25-25 s11.215-25,25-25s25,11.215,25,25S178.785,190,165,190z M245,190c-13.785,0-25-11.215-25-25s11.215-25,25-25 c13.785,0,25,11.215,25,25S258.785,190,245,190z"></path></a></g></svg></svg></svg>