<svg version="1.1" xmlns="http://www.w3.org/2000/svg" xmlns:xlink="http://www.w3.org/1999/xlink" fill="transparent" x="0" y="0" width="350" height="350" preserveAspectRatio="xMinYMin slice"><style type="text/css">.links{fill:transparent;stroke: #E4CF37;}.links:hover{fill:#63D272; opacity:0.4;}</style><defs><g id="allt"><path id="t3734" d="M3135,896 L3124,896 C3114,896 3129,898 3118,898 C3108,898 3120,896 3111,896 L3102,896 3102,896 L3102,904 C3102,913 3109,902 3110,912 C3111,922 3098,908 3100,918 L3102,928 3102,928 L3111,928 C3120,928 3108,935 3118,935 C3129,936 3115,924 3125,926 L3135,928 3135,928 L3137,918 C3140,908 3124,921 3122,912 C3121,903 3136,916 3135,906 L3135,896"/></g><clipPath id="c" clipRule="evenodd" fill="transparent"><use href="#t3734"/></clipPath></defs><svg viewBox="3097 895 44 42" preserveAspectRatio="xMinYMin meet"><svg width="4380" height="2430"><g><image crossorigin="anonymous" x="0" y="0" href="https://nftpuzzle.license-token.com/assets/completepuzzle.svg" width="100%" height="100%" /><g class="links"><use href="#t3734"/></g></g></svg><svg x="3126" y="922" height="9%" width="9%" viewBox="0 0 330 330"><g><a xlink:href="https://nftpuzzle.license-token.com/" class="links"><title>See the most innovative NFT based token software licensing project</title><path fill="#E4CF37" id="more" d="M165,0C74.019,0,0,74.019,0,165s74.019,165,165,165s165-74.019,165-165S255.981,0,165,0z M85,190 c-13.785,0-25-11.215-25-25s11.215-25,25-25s25,11.215,25,25S98.785,190,85,190z M165,190c-13.785,0-25-11.215-25-25 s11.215-25,25-25s25,11.215,25,25S178.785,190,165,190z M245,190c-13.785,0-25-11.215-25-25s11.215-25,25-25 c13.785,0,25,11.215,25,25S258.785,190,245,190z"></path></a></g></svg></svg></svg>