<svg version="1.1" xmlns="http://www.w3.org/2000/svg" xmlns:xlink="http://www.w3.org/1999/xlink" fill="transparent" x="0" y="0" width="350" height="350" preserveAspectRatio="xMinYMin slice"><style type="text/css">.links{fill:transparent;stroke: #E4CF37;}.links:hover{fill:#63D272; opacity:0.4;}</style><defs><g id="allt"><path id="t3736" d="M3201,896 L3191,897 C3181,898 3192,888 3183,890 C3175,893 3188,898 3178,897 L3168,896 3168,896 L3166,906 C3165,916 3172,901 3174,909 C3176,918 3168,907 3168,917 L3168,928 3168,928 L3178,926 C3189,925 3173,932 3182,934 C3191,936 3180,928 3190,928 L3201,928 3201,928 L3201,917 C3202,906 3199,920 3197,911 C3196,903 3202,916 3201,906 L3201,896"/></g><clipPath id="c" clipRule="evenodd" fill="transparent"><use href="#t3736"/></clipPath></defs><svg viewBox="3164 887 39 50" preserveAspectRatio="xMinYMin meet"><svg width="4380" height="2430"><g><image crossorigin="anonymous" x="0" y="0" href="https://nftpuzzle.license-token.com/assets/completepuzzle.svg" width="100%" height="100%" /><g class="links"><use href="#t3736"/></g></g></svg><svg x="3188" y="922" height="9%" width="9%" viewBox="0 0 330 330"><g><a xlink:href="https://nftpuzzle.license-token.com/" class="links"><title>See the most innovative NFT based token software licensing project</title><path fill="#E4CF37" id="more" d="M165,0C74.019,0,0,74.019,0,165s74.019,165,165,165s165-74.019,165-165S255.981,0,165,0z M85,190 c-13.785,0-25-11.215-25-25s11.215-25,25-25s25,11.215,25,25S98.785,190,85,190z M165,190c-13.785,0-25-11.215-25-25 s11.215-25,25-25s25,11.215,25,25S178.785,190,165,190z M245,190c-13.785,0-25-11.215-25-25s11.215-25,25-25 c13.785,0,25,11.215,25,25S258.785,190,245,190z"></path></a></g></svg></svg></svg>