<svg version="1.1" xmlns="http://www.w3.org/2000/svg" xmlns:xlink="http://www.w3.org/1999/xlink" fill="transparent" x="0" y="0" width="350" height="350" preserveAspectRatio="xMinYMin slice"><style type="text/css">.links{fill:transparent;stroke: #E4CF37;}.links:hover{fill:#63D272; opacity:0.4;}</style><defs><g id="allt"><path id="t3737" d="M3234,896 L3223,896 C3212,896 3228,903 3217,904 C3206,906 3220,892 3210,894 L3201,896 3201,896 L3201,906 C3202,916 3196,903 3197,911 C3199,920 3202,906 3201,917 L3201,928 3201,928 L3211,928 C3222,929 3208,923 3217,924 C3226,926 3212,929 3223,928 L3234,928 3234,928 L3235,917 C3237,907 3225,922 3226,912 C3227,903 3234,913 3234,904 L3234,896"/></g><clipPath id="c" clipRule="evenodd" fill="transparent"><use href="#t3737"/></clipPath></defs><svg viewBox="3195 891 43 39" preserveAspectRatio="xMinYMin meet"><svg width="4380" height="2430"><g><image crossorigin="anonymous" x="0" y="0" href="https://nftpuzzle.license-token.com/assets/completepuzzle.svg" width="100%" height="100%" /><g class="links"><use href="#t3737"/></g></g></svg><svg x="3223" y="915" height="9%" width="9%" viewBox="0 0 330 330"><g><a xlink:href="https://nftpuzzle.license-token.com/" class="links"><title>See the most innovative NFT based token software licensing project</title><path fill="#E4CF37" id="more" d="M165,0C74.019,0,0,74.019,0,165s74.019,165,165,165s165-74.019,165-165S255.981,0,165,0z M85,190 c-13.785,0-25-11.215-25-25s11.215-25,25-25s25,11.215,25,25S98.785,190,85,190z M165,190c-13.785,0-25-11.215-25-25 s11.215-25,25-25s25,11.215,25,25S178.785,190,165,190z M245,190c-13.785,0-25-11.215-25-25s11.215-25,25-25 c13.785,0,25,11.215,25,25S258.785,190,245,190z"></path></a></g></svg></svg></svg>