<svg version="1.1" xmlns="http://www.w3.org/2000/svg" xmlns:xlink="http://www.w3.org/1999/xlink" fill="transparent" x="0" y="0" width="350" height="350" preserveAspectRatio="xMinYMin slice"><style type="text/css">.links{fill:transparent;stroke: #E4CF37;}.links:hover{fill:#63D272; opacity:0.4;}</style><defs><g id="allt"><path id="t3741" d="M3366,896 L3354,896 C3343,896 3358,892 3348,890 C3338,888 3353,896 3343,896 L3333,896 3333,896 L3333,905 C3333,915 3327,902 3327,910 C3327,919 3333,910 3333,919 L3333,928 3333,928 L3343,928 C3353,928 3339,922 3348,922 C3357,922 3347,928 3356,928 L3366,928 3366,928 L3366,919 C3367,910 3362,918 3361,910 C3360,902 3366,913 3366,904 L3366,896"/></g><clipPath id="c" clipRule="evenodd" fill="transparent"><use href="#t3741"/></clipPath></defs><svg viewBox="3326 887 42 42" preserveAspectRatio="xMinYMin meet"><svg width="4380" height="2430"><g><image crossorigin="anonymous" x="0" y="0" href="https://nftpuzzle.license-token.com/assets/completepuzzle.svg" width="100%" height="100%" /><g class="links"><use href="#t3741"/></g></g></svg><svg x="3353" y="914" height="9%" width="9%" viewBox="0 0 330 330"><g><a xlink:href="https://nftpuzzle.license-token.com/" class="links"><title>See the most innovative NFT based token software licensing project</title><path fill="#E4CF37" id="more" d="M165,0C74.019,0,0,74.019,0,165s74.019,165,165,165s165-74.019,165-165S255.981,0,165,0z M85,190 c-13.785,0-25-11.215-25-25s11.215-25,25-25s25,11.215,25,25S98.785,190,85,190z M165,190c-13.785,0-25-11.215-25-25 s11.215-25,25-25s25,11.215,25,25S178.785,190,165,190z M245,190c-13.785,0-25-11.215-25-25s11.215-25,25-25 c13.785,0,25,11.215,25,25S258.785,190,245,190z"></path></a></g></svg></svg></svg>