<svg version="1.1" xmlns="http://www.w3.org/2000/svg" xmlns:xlink="http://www.w3.org/1999/xlink" fill="transparent" x="0" y="0" width="350" height="350" preserveAspectRatio="xMinYMin slice"><style type="text/css">.links{fill:transparent;stroke: #E4CF37;}.links:hover{fill:#63D272; opacity:0.4;}</style><defs><g id="allt"><path id="t3744" d="M3465,896 L3454,895 C3444,894 3457,903 3447,901 C3438,900 3450,896 3441,896 L3432,896 3432,896 L3432,905 C3432,915 3423,900 3423,911 C3423,923 3431,907 3431,917 L3432,928 3432,928 L3442,928 C3452,928 3436,919 3448,919 C3460,919 3444,927 3454,927 L3465,928 3465,928 L3465,918 C3465,908 3473,922 3471,911 C3469,901 3465,915 3465,905 L3465,896"/></g><clipPath id="c" clipRule="evenodd" fill="transparent"><use href="#t3744"/></clipPath></defs><svg viewBox="3422 893 52 36" preserveAspectRatio="xMinYMin meet"><svg width="4380" height="2430"><g><image crossorigin="anonymous" x="0" y="0" href="https://nftpuzzle.license-token.com/assets/completepuzzle.svg" width="100%" height="100%" /><g class="links"><use href="#t3744"/></g></g></svg><svg x="3459" y="914" height="9%" width="9%" viewBox="0 0 330 330"><g><a xlink:href="https://nftpuzzle.license-token.com/" class="links"><title>See the most innovative NFT based token software licensing project</title><path fill="#E4CF37" id="more" d="M165,0C74.019,0,0,74.019,0,165s74.019,165,165,165s165-74.019,165-165S255.981,0,165,0z M85,190 c-13.785,0-25-11.215-25-25s11.215-25,25-25s25,11.215,25,25S98.785,190,85,190z M165,190c-13.785,0-25-11.215-25-25 s11.215-25,25-25s25,11.215,25,25S178.785,190,165,190z M245,190c-13.785,0-25-11.215-25-25s11.215-25,25-25 c13.785,0,25,11.215,25,25S258.785,190,245,190z"></path></a></g></svg></svg></svg>