<svg version="1.1" xmlns="http://www.w3.org/2000/svg" xmlns:xlink="http://www.w3.org/1999/xlink" fill="transparent" x="0" y="0" width="350" height="350" preserveAspectRatio="xMinYMin slice"><style type="text/css">.links{fill:transparent;stroke: #E4CF37;}.links:hover{fill:#63D272; opacity:0.4;}</style><defs><g id="allt"><path id="t3757" d="M3894,896 L3883,895 C3873,895 3888,903 3879,901 C3870,900 3881,894 3871,895 L3861,896 3861,896 L3862,906 C3863,916 3856,901 3854,911 C3853,922 3861,906 3861,917 L3861,928 3861,928 L3871,929 C3881,930 3866,923 3877,921 C3888,920 3871,928 3882,928 L3894,928 3894,928 L3894,917 C3894,906 3884,918 3884,909 C3885,901 3894,915 3894,905 L3894,896"/></g><clipPath id="c" clipRule="evenodd" fill="transparent"><use href="#t3757"/></clipPath></defs><svg viewBox="3852 893 43 38" preserveAspectRatio="xMinYMin meet"><svg width="4380" height="2430"><g><image crossorigin="anonymous" x="0" y="0" href="https://nftpuzzle.license-token.com/assets/completepuzzle.svg" width="100%" height="100%" /><g class="links"><use href="#t3757"/></g></g></svg><svg x="3880" y="916" height="9%" width="9%" viewBox="0 0 330 330"><g><a xlink:href="https://nftpuzzle.license-token.com/" class="links"><title>See the most innovative NFT based token software licensing project</title><path fill="#E4CF37" id="more" d="M165,0C74.019,0,0,74.019,0,165s74.019,165,165,165s165-74.019,165-165S255.981,0,165,0z M85,190 c-13.785,0-25-11.215-25-25s11.215-25,25-25s25,11.215,25,25S98.785,190,85,190z M165,190c-13.785,0-25-11.215-25-25 s11.215-25,25-25s25,11.215,25,25S178.785,190,165,190z M245,190c-13.785,0-25-11.215-25-25s11.215-25,25-25 c13.785,0,25,11.215,25,25S258.785,190,245,190z"></path></a></g></svg></svg></svg>