<svg version="1.1" xmlns="http://www.w3.org/2000/svg" xmlns:xlink="http://www.w3.org/1999/xlink" fill="transparent" x="0" y="0" width="350" height="350" preserveAspectRatio="xMinYMin slice"><style type="text/css">.links{fill:transparent;stroke: #E4CF37;}.links:hover{fill:#63D272; opacity:0.4;}</style><defs><g id="allt"><path id="t3758" d="M3927,896 L3917,896 C3907,897 3920,887 3911,885 C3902,884 3913,898 3903,897 L3894,896 3894,896 L3894,905 C3894,915 3885,901 3884,909 C3884,918 3894,906 3894,917 L3894,928 3894,928 L3904,928 C3914,928 3899,919 3908,918 C3917,918 3905,928 3916,928 L3927,928 3927,928 L3928,918 C3929,909 3921,918 3921,909 C3922,901 3929,915 3928,905 L3927,896"/></g><clipPath id="c" clipRule="evenodd" fill="transparent"><use href="#t3758"/></clipPath></defs><svg viewBox="3883 883 47 46" preserveAspectRatio="xMinYMin meet"><svg width="4380" height="2430"><g><image crossorigin="anonymous" x="0" y="0" href="https://nftpuzzle.license-token.com/assets/completepuzzle.svg" width="100%" height="100%" /><g class="links"><use href="#t3758"/></g></g></svg><svg x="3915" y="914" height="9%" width="9%" viewBox="0 0 330 330"><g><a xlink:href="https://nftpuzzle.license-token.com/" class="links"><title>See the most innovative NFT based token software licensing project</title><path fill="#E4CF37" id="more" d="M165,0C74.019,0,0,74.019,0,165s74.019,165,165,165s165-74.019,165-165S255.981,0,165,0z M85,190 c-13.785,0-25-11.215-25-25s11.215-25,25-25s25,11.215,25,25S98.785,190,85,190z M165,190c-13.785,0-25-11.215-25-25 s11.215-25,25-25s25,11.215,25,25S178.785,190,165,190z M245,190c-13.785,0-25-11.215-25-25s11.215-25,25-25 c13.785,0,25,11.215,25,25S258.785,190,245,190z"></path></a></g></svg></svg></svg>