<svg version="1.1" xmlns="http://www.w3.org/2000/svg" xmlns:xlink="http://www.w3.org/1999/xlink" fill="transparent" x="0" y="0" width="350" height="350" preserveAspectRatio="xMinYMin slice"><style type="text/css">.links{fill:transparent;stroke: #E4CF37;}.links:hover{fill:#63D272; opacity:0.4;}</style><defs><g id="allt"><path id="t3768" d="M4257,896 L4247,896 C4238,897 4248,891 4239,891 C4230,892 4245,897 4234,896 L4224,896 4224,896 L4224,905 C4224,914 4214,901 4216,910 C4218,919 4224,907 4224,917 L4224,928 4224,928 L4233,928 C4242,928 4229,918 4238,920 C4247,922 4236,928 4246,928 L4257,928 4257,928 L4255,918 C4253,908 4267,922 4265,912 C4263,903 4257,915 4257,905 L4257,896"/></g><clipPath id="c" clipRule="evenodd" fill="transparent"><use href="#t3768"/></clipPath></defs><svg viewBox="4213 890 55 39" preserveAspectRatio="xMinYMin meet"><svg width="4380" height="2430"><g><image crossorigin="anonymous" x="0" y="0" href="https://nftpuzzle.license-token.com/assets/completepuzzle.svg" width="100%" height="100%" /><g class="links"><use href="#t3768"/></g></g></svg><svg x="4253" y="914" height="9%" width="9%" viewBox="0 0 330 330"><g><a xlink:href="https://nftpuzzle.license-token.com/" class="links"><title>See the most innovative NFT based token software licensing project</title><path fill="#E4CF37" id="more" d="M165,0C74.019,0,0,74.019,0,165s74.019,165,165,165s165-74.019,165-165S255.981,0,165,0z M85,190 c-13.785,0-25-11.215-25-25s11.215-25,25-25s25,11.215,25,25S98.785,190,85,190z M165,190c-13.785,0-25-11.215-25-25 s11.215-25,25-25s25,11.215,25,25S178.785,190,165,190z M245,190c-13.785,0-25-11.215-25-25s11.215-25,25-25 c13.785,0,25,11.215,25,25S258.785,190,245,190z"></path></a></g></svg></svg></svg>