<svg version="1.1" xmlns="http://www.w3.org/2000/svg" xmlns:xlink="http://www.w3.org/1999/xlink" fill="transparent" x="0" y="0" width="350" height="350" preserveAspectRatio="xMinYMin slice"><style type="text/css">.links{fill:transparent;stroke: #E4CF37;}.links:hover{fill:#63D272; opacity:0.4;}</style><defs><g id="allt"><path id="t379" d="M3960,64 L3950,64 C3941,64 3952,60 3943,59 C3934,58 3948,64 3937,64 L3927,64 3927,64 L3927,73 C3927,82 3922,69 3922,79 C3923,90 3929,77 3928,86 L3927,96 3927,96 L3936,96 C3946,96 3932,91 3943,91 C3954,92 3940,98 3950,97 L3960,96 3960,96 L3960,87 C3960,78 3958,91 3957,81 C3956,72 3960,82 3960,73 L3960,64"/></g><clipPath id="c" clipRule="evenodd" fill="transparent"><use href="#t379"/></clipPath></defs><svg viewBox="3921 57 40 42" preserveAspectRatio="xMinYMin meet"><svg width="4380" height="2430"><g><image crossorigin="anonymous" x="0" y="0" href="https://nftpuzzle.license-token.com/assets/completepuzzle.svg" width="100%" height="100%" /><g class="links"><use href="#t379"/></g></g></svg><svg x="3946" y="84" height="9%" width="9%" viewBox="0 0 330 330"><g><a xlink:href="https://nftpuzzle.license-token.com/" class="links"><title>See the most innovative NFT based token software licensing project</title><path fill="#E4CF37" id="more" d="M165,0C74.019,0,0,74.019,0,165s74.019,165,165,165s165-74.019,165-165S255.981,0,165,0z M85,190 c-13.785,0-25-11.215-25-25s11.215-25,25-25s25,11.215,25,25S98.785,190,85,190z M165,190c-13.785,0-25-11.215-25-25 s11.215-25,25-25s25,11.215,25,25S178.785,190,165,190z M245,190c-13.785,0-25-11.215-25-25s11.215-25,25-25 c13.785,0,25,11.215,25,25S258.785,190,245,190z"></path></a></g></svg></svg></svg>