<svg version="1.1" xmlns="http://www.w3.org/2000/svg" xmlns:xlink="http://www.w3.org/1999/xlink" fill="transparent" x="0" y="0" width="350" height="350" preserveAspectRatio="xMinYMin slice"><style type="text/css">.links{fill:transparent;stroke: #E4CF37;}.links:hover{fill:#63D272; opacity:0.4;}</style><defs><g id="allt"><path id="t3805" d="M1188,928 L1177,927 C1167,926 1181,934 1171,932 C1162,931 1176,928 1165,928 L1155,928 1155,928 L1156,936 C1158,945 1151,936 1148,943 C1146,950 1157,942 1156,951 L1155,960 1155,960 L1164,961 C1173,963 1164,956 1171,954 C1178,952 1169,962 1178,961 L1188,960 1188,960 L1189,950 C1190,940 1183,952 1182,942 C1181,933 1188,948 1188,938 L1188,928"/></g><clipPath id="c" clipRule="evenodd" fill="transparent"><use href="#t3805"/></clipPath></defs><svg viewBox="1145 925 46 39" preserveAspectRatio="xMinYMin meet"><svg width="4380" height="2430"><g><image crossorigin="anonymous" x="0" y="0" href="https://nftpuzzle.license-token.com/assets/completepuzzle.svg" width="100%" height="100%" /><g class="links"><use href="#t3805"/></g></g></svg><svg x="1176" y="949" height="9%" width="9%" viewBox="0 0 330 330"><g><a xlink:href="https://nftpuzzle.license-token.com/" class="links"><title>See the most innovative NFT based token software licensing project</title><path fill="#E4CF37" id="more" d="M165,0C74.019,0,0,74.019,0,165s74.019,165,165,165s165-74.019,165-165S255.981,0,165,0z M85,190 c-13.785,0-25-11.215-25-25s11.215-25,25-25s25,11.215,25,25S98.785,190,85,190z M165,190c-13.785,0-25-11.215-25-25 s11.215-25,25-25s25,11.215,25,25S178.785,190,165,190z M245,190c-13.785,0-25-11.215-25-25s11.215-25,25-25 c13.785,0,25,11.215,25,25S258.785,190,245,190z"></path></a></g></svg></svg></svg>