<svg version="1.1" xmlns="http://www.w3.org/2000/svg" xmlns:xlink="http://www.w3.org/1999/xlink" fill="transparent" x="0" y="0" width="350" height="350" preserveAspectRatio="xMinYMin slice"><style type="text/css">.links{fill:transparent;stroke: #E4CF37;}.links:hover{fill:#63D272; opacity:0.4;}</style><defs><g id="allt"><path id="t381" d="M4026,64 L4016,64 C4007,64 4020,70 4009,71 C3998,72 4011,60 4002,62 L3993,64 3993,64 L3992,72 C3991,81 4000,72 4001,81 C4003,91 3990,75 3991,85 L3993,96 3993,96 L4002,95 C4011,94 4002,103 4011,104 C4021,105 4005,93 4015,94 L4026,96 4026,96 L4025,86 C4024,77 4029,87 4030,78 C4031,69 4026,83 4026,73 L4026,64"/></g><clipPath id="c" clipRule="evenodd" fill="transparent"><use href="#t381"/></clipPath></defs><svg viewBox="3989 59 43 47" preserveAspectRatio="xMinYMin meet"><svg width="4380" height="2430"><g><image crossorigin="anonymous" x="0" y="0" href="https://nftpuzzle.license-token.com/assets/completepuzzle.svg" width="100%" height="100%" /><g class="links"><use href="#t381"/></g></g></svg><svg x="4017" y="91" height="9%" width="9%" viewBox="0 0 330 330"><g><a xlink:href="https://nftpuzzle.license-token.com/" class="links"><title>See the most innovative NFT based token software licensing project</title><path fill="#E4CF37" id="more" d="M165,0C74.019,0,0,74.019,0,165s74.019,165,165,165s165-74.019,165-165S255.981,0,165,0z M85,190 c-13.785,0-25-11.215-25-25s11.215-25,25-25s25,11.215,25,25S98.785,190,85,190z M165,190c-13.785,0-25-11.215-25-25 s11.215-25,25-25s25,11.215,25,25S178.785,190,165,190z M245,190c-13.785,0-25-11.215-25-25s11.215-25,25-25 c13.785,0,25,11.215,25,25S258.785,190,245,190z"></path></a></g></svg></svg></svg>