<svg version="1.1" xmlns="http://www.w3.org/2000/svg" xmlns:xlink="http://www.w3.org/1999/xlink" fill="transparent" x="0" y="0" width="350" height="350" preserveAspectRatio="xMinYMin slice"><style type="text/css">.links{fill:transparent;stroke: #E4CF37;}.links:hover{fill:#63D272; opacity:0.4;}</style><defs><g id="allt"><path id="t3816" d="M1551,928 L1541,928 C1532,928 1543,932 1533,933 C1524,934 1539,926 1528,927 L1518,928 1518,928 L1518,936 C1518,945 1510,933 1511,942 C1512,952 1520,938 1519,949 L1518,960 1518,960 L1527,960 C1536,960 1523,952 1533,953 C1543,954 1529,962 1540,961 L1551,960 1551,960 L1551,949 C1551,938 1561,952 1558,942 C1556,933 1551,949 1551,938 L1551,928"/></g><clipPath id="c" clipRule="evenodd" fill="transparent"><use href="#t3816"/></clipPath></defs><svg viewBox="1509 925 53 38" preserveAspectRatio="xMinYMin meet"><svg width="4380" height="2430"><g><image crossorigin="anonymous" x="0" y="0" href="https://nftpuzzle.license-token.com/assets/completepuzzle.svg" width="100%" height="100%" /><g class="links"><use href="#t3816"/></g></g></svg><svg x="1547" y="948" height="9%" width="9%" viewBox="0 0 330 330"><g><a xlink:href="https://nftpuzzle.license-token.com/" class="links"><title>See the most innovative NFT based token software licensing project</title><path fill="#E4CF37" id="more" d="M165,0C74.019,0,0,74.019,0,165s74.019,165,165,165s165-74.019,165-165S255.981,0,165,0z M85,190 c-13.785,0-25-11.215-25-25s11.215-25,25-25s25,11.215,25,25S98.785,190,85,190z M165,190c-13.785,0-25-11.215-25-25 s11.215-25,25-25s25,11.215,25,25S178.785,190,165,190z M245,190c-13.785,0-25-11.215-25-25s11.215-25,25-25 c13.785,0,25,11.215,25,25S258.785,190,245,190z"></path></a></g></svg></svg></svg>