<svg version="1.1" xmlns="http://www.w3.org/2000/svg" xmlns:xlink="http://www.w3.org/1999/xlink" fill="transparent" x="0" y="0" width="350" height="350" preserveAspectRatio="xMinYMin slice"><style type="text/css">.links{fill:transparent;stroke: #E4CF37;}.links:hover{fill:#63D272; opacity:0.4;}</style><defs><g id="allt"><path id="t3820" d="M1683,928 L1672,928 C1662,929 1677,925 1666,924 C1656,924 1671,928 1660,928 L1650,928 1650,928 L1650,937 C1651,946 1643,934 1642,943 C1641,953 1651,938 1650,949 L1650,960 1650,960 L1659,960 C1669,961 1656,953 1666,952 C1676,951 1661,961 1672,960 L1683,960 1683,960 L1683,950 C1683,940 1681,951 1681,943 C1681,936 1683,945 1683,936 L1683,928"/></g><clipPath id="c" clipRule="evenodd" fill="transparent"><use href="#t3820"/></clipPath></defs><svg viewBox="1640 923 44 39" preserveAspectRatio="xMinYMin meet"><svg width="4380" height="2430"><g><image crossorigin="anonymous" x="0" y="0" href="https://nftpuzzle.license-token.com/assets/completepuzzle.svg" width="100%" height="100%" /><g class="links"><use href="#t3820"/></g></g></svg><svg x="1669" y="947" height="9%" width="9%" viewBox="0 0 330 330"><g><a xlink:href="https://nftpuzzle.license-token.com/" class="links"><title>See the most innovative NFT based token software licensing project</title><path fill="#E4CF37" id="more" d="M165,0C74.019,0,0,74.019,0,165s74.019,165,165,165s165-74.019,165-165S255.981,0,165,0z M85,190 c-13.785,0-25-11.215-25-25s11.215-25,25-25s25,11.215,25,25S98.785,190,85,190z M165,190c-13.785,0-25-11.215-25-25 s11.215-25,25-25s25,11.215,25,25S178.785,190,165,190z M245,190c-13.785,0-25-11.215-25-25s11.215-25,25-25 c13.785,0,25,11.215,25,25S258.785,190,245,190z"></path></a></g></svg></svg></svg>