<svg version="1.1" xmlns="http://www.w3.org/2000/svg" xmlns:xlink="http://www.w3.org/1999/xlink" fill="transparent" x="0" y="0" width="350" height="350" preserveAspectRatio="xMinYMin slice"><style type="text/css">.links{fill:transparent;stroke: #E4CF37;}.links:hover{fill:#63D272; opacity:0.4;}</style><defs><g id="allt"><path id="t3821" d="M1716,928 L1706,929 C1696,930 1709,925 1700,925 C1691,926 1703,928 1693,928 L1683,928 1683,928 L1683,936 C1683,945 1681,936 1681,943 C1681,951 1683,940 1683,950 L1683,960 1683,960 L1692,960 C1701,960 1692,958 1699,958 C1706,958 1695,960 1705,960 L1716,960 1716,960 L1718,951 C1720,942 1710,951 1708,941 C1706,932 1720,948 1718,938 L1716,928"/></g><clipPath id="c" clipRule="evenodd" fill="transparent"><use href="#t3821"/></clipPath></defs><svg viewBox="1680 924 41 37" preserveAspectRatio="xMinYMin meet"><svg width="4380" height="2430"><g><image crossorigin="anonymous" x="0" y="0" href="https://nftpuzzle.license-token.com/assets/completepuzzle.svg" width="100%" height="100%" /><g class="links"><use href="#t3821"/></g></g></svg><svg x="1706" y="946" height="9%" width="9%" viewBox="0 0 330 330"><g><a xlink:href="https://nftpuzzle.license-token.com/" class="links"><title>See the most innovative NFT based token software licensing project</title><path fill="#E4CF37" id="more" d="M165,0C74.019,0,0,74.019,0,165s74.019,165,165,165s165-74.019,165-165S255.981,0,165,0z M85,190 c-13.785,0-25-11.215-25-25s11.215-25,25-25s25,11.215,25,25S98.785,190,85,190z M165,190c-13.785,0-25-11.215-25-25 s11.215-25,25-25s25,11.215,25,25S178.785,190,165,190z M245,190c-13.785,0-25-11.215-25-25s11.215-25,25-25 c13.785,0,25,11.215,25,25S258.785,190,245,190z"></path></a></g></svg></svg></svg>