<svg version="1.1" xmlns="http://www.w3.org/2000/svg" xmlns:xlink="http://www.w3.org/1999/xlink" fill="transparent" x="0" y="0" width="350" height="350" preserveAspectRatio="xMinYMin slice"><style type="text/css">.links{fill:transparent;stroke: #E4CF37;}.links:hover{fill:#63D272; opacity:0.4;}</style><defs><g id="allt"><path id="t3823" d="M1782,928 L1772,928 C1762,928 1776,926 1765,925 C1754,925 1767,929 1758,928 L1749,928 1749,928 L1749,937 C1750,946 1744,936 1745,944 C1746,953 1749,942 1749,951 L1749,960 1749,960 L1758,960 C1768,961 1757,955 1766,956 C1775,957 1763,960 1772,960 L1782,960 1782,960 L1782,950 C1782,941 1778,952 1778,944 C1779,936 1783,949 1782,938 L1782,928"/></g><clipPath id="c" clipRule="evenodd" fill="transparent"><use href="#t3823"/></clipPath></defs><svg viewBox="1743 924 41 38" preserveAspectRatio="xMinYMin meet"><svg width="4380" height="2430"><g><image crossorigin="anonymous" x="0" y="0" href="https://nftpuzzle.license-token.com/assets/completepuzzle.svg" width="100%" height="100%" /><g class="links"><use href="#t3823"/></g></g></svg><svg x="1769" y="947" height="9%" width="9%" viewBox="0 0 330 330"><g><a xlink:href="https://nftpuzzle.license-token.com/" class="links"><title>See the most innovative NFT based token software licensing project</title><path fill="#E4CF37" id="more" d="M165,0C74.019,0,0,74.019,0,165s74.019,165,165,165s165-74.019,165-165S255.981,0,165,0z M85,190 c-13.785,0-25-11.215-25-25s11.215-25,25-25s25,11.215,25,25S98.785,190,85,190z M165,190c-13.785,0-25-11.215-25-25 s11.215-25,25-25s25,11.215,25,25S178.785,190,165,190z M245,190c-13.785,0-25-11.215-25-25s11.215-25,25-25 c13.785,0,25,11.215,25,25S258.785,190,245,190z"></path></a></g></svg></svg></svg>