<svg version="1.1" xmlns="http://www.w3.org/2000/svg" xmlns:xlink="http://www.w3.org/1999/xlink" fill="transparent" x="0" y="0" width="350" height="350" preserveAspectRatio="xMinYMin slice"><style type="text/css">.links{fill:transparent;stroke: #E4CF37;}.links:hover{fill:#63D272; opacity:0.4;}</style><defs><g id="allt"><path id="t3830" d="M2013,928 L2002,926 C1992,925 2003,938 1996,938 C1989,938 2001,924 1990,926 L1980,928 1980,928 L1980,938 C1980,948 1986,933 1984,943 C1983,954 1979,940 1979,950 L1980,960 1980,960 L1990,960 C2001,960 1985,966 1996,964 C2007,963 1993,959 2003,959 L2013,960 2013,960 L2011,950 C2009,940 2022,954 2020,943 C2018,933 2013,947 2013,937 L2013,928"/></g><clipPath id="c" clipRule="evenodd" fill="transparent"><use href="#t3830"/></clipPath></defs><svg viewBox="1978 923 45 44" preserveAspectRatio="xMinYMin meet"><svg width="4380" height="2430"><g><image crossorigin="anonymous" x="0" y="0" href="https://nftpuzzle.license-token.com/assets/completepuzzle.svg" width="100%" height="100%" /><g class="links"><use href="#t3830"/></g></g></svg><svg x="2008" y="952" height="9%" width="9%" viewBox="0 0 330 330"><g><a xlink:href="https://nftpuzzle.license-token.com/" class="links"><title>See the most innovative NFT based token software licensing project</title><path fill="#E4CF37" id="more" d="M165,0C74.019,0,0,74.019,0,165s74.019,165,165,165s165-74.019,165-165S255.981,0,165,0z M85,190 c-13.785,0-25-11.215-25-25s11.215-25,25-25s25,11.215,25,25S98.785,190,85,190z M165,190c-13.785,0-25-11.215-25-25 s11.215-25,25-25s25,11.215,25,25S178.785,190,165,190z M245,190c-13.785,0-25-11.215-25-25s11.215-25,25-25 c13.785,0,25,11.215,25,25S258.785,190,245,190z"></path></a></g></svg></svg></svg>