<svg version="1.1" xmlns="http://www.w3.org/2000/svg" xmlns:xlink="http://www.w3.org/1999/xlink" fill="transparent" x="0" y="0" width="350" height="350" preserveAspectRatio="xMinYMin slice"><style type="text/css">.links{fill:transparent;stroke: #E4CF37;}.links:hover{fill:#63D272; opacity:0.4;}</style><defs><g id="allt"><path id="t3831" d="M2046,928 L2035,928 C2024,928 2040,934 2029,936 C2018,938 2034,927 2023,927 L2013,928 2013,928 L2013,937 C2013,947 2018,933 2020,943 C2022,954 2009,940 2011,950 L2013,960 2013,960 L2023,960 C2033,960 2018,965 2029,967 C2040,969 2026,956 2036,958 L2046,960 2046,960 L2045,951 C2044,942 2051,953 2054,944 C2057,936 2045,948 2045,938 L2046,928"/></g><clipPath id="c" clipRule="evenodd" fill="transparent"><use href="#t3831"/></clipPath></defs><svg viewBox="2008 926 50 44" preserveAspectRatio="xMinYMin meet"><svg width="4380" height="2430"><g><image crossorigin="anonymous" x="0" y="0" href="https://nftpuzzle.license-token.com/assets/completepuzzle.svg" width="100%" height="100%" /><g class="links"><use href="#t3831"/></g></g></svg><svg x="2043" y="955" height="9%" width="9%" viewBox="0 0 330 330"><g><a xlink:href="https://nftpuzzle.license-token.com/" class="links"><title>See the most innovative NFT based token software licensing project</title><path fill="#E4CF37" id="more" d="M165,0C74.019,0,0,74.019,0,165s74.019,165,165,165s165-74.019,165-165S255.981,0,165,0z M85,190 c-13.785,0-25-11.215-25-25s11.215-25,25-25s25,11.215,25,25S98.785,190,85,190z M165,190c-13.785,0-25-11.215-25-25 s11.215-25,25-25s25,11.215,25,25S178.785,190,165,190z M245,190c-13.785,0-25-11.215-25-25s11.215-25,25-25 c13.785,0,25,11.215,25,25S258.785,190,245,190z"></path></a></g></svg></svg></svg>