<svg version="1.1" xmlns="http://www.w3.org/2000/svg" xmlns:xlink="http://www.w3.org/1999/xlink" fill="transparent" x="0" y="0" width="350" height="350" preserveAspectRatio="xMinYMin slice"><style type="text/css">.links{fill:transparent;stroke: #E4CF37;}.links:hover{fill:#63D272; opacity:0.4;}</style><defs><g id="allt"><path id="t3836" d="M2211,928 L2200,929 C2189,930 2202,922 2192,922 C2182,922 2197,930 2187,929 L2178,928 2178,928 L2178,938 C2178,948 2184,933 2185,943 C2187,953 2174,941 2176,950 L2178,960 2178,960 L2188,960 C2198,960 2183,966 2193,967 C2204,968 2191,956 2201,958 L2211,960 2211,960 L2211,950 C2211,940 2204,952 2204,943 C2204,934 2211,946 2211,937 L2211,928"/></g><clipPath id="c" clipRule="evenodd" fill="transparent"><use href="#t3836"/></clipPath></defs><svg viewBox="2173 921 39 48" preserveAspectRatio="xMinYMin meet"><svg width="4380" height="2430"><g><image crossorigin="anonymous" x="0" y="0" href="https://nftpuzzle.license-token.com/assets/completepuzzle.svg" width="100%" height="100%" /><g class="links"><use href="#t3836"/></g></g></svg><svg x="2197" y="954" height="9%" width="9%" viewBox="0 0 330 330"><g><a xlink:href="https://nftpuzzle.license-token.com/" class="links"><title>See the most innovative NFT based token software licensing project</title><path fill="#E4CF37" id="more" d="M165,0C74.019,0,0,74.019,0,165s74.019,165,165,165s165-74.019,165-165S255.981,0,165,0z M85,190 c-13.785,0-25-11.215-25-25s11.215-25,25-25s25,11.215,25,25S98.785,190,85,190z M165,190c-13.785,0-25-11.215-25-25 s11.215-25,25-25s25,11.215,25,25S178.785,190,165,190z M245,190c-13.785,0-25-11.215-25-25s11.215-25,25-25 c13.785,0,25,11.215,25,25S258.785,190,245,190z"></path></a></g></svg></svg></svg>