<svg version="1.1" xmlns="http://www.w3.org/2000/svg" xmlns:xlink="http://www.w3.org/1999/xlink" fill="transparent" x="0" y="0" width="350" height="350" preserveAspectRatio="xMinYMin slice"><style type="text/css">.links{fill:transparent;stroke: #E4CF37;}.links:hover{fill:#63D272; opacity:0.4;}</style><defs><g id="allt"><path id="t3839" d="M2310,928 L2300,926 C2290,925 2302,933 2293,934 C2285,936 2296,926 2286,927 L2277,928 2277,928 L2276,937 C2276,947 2280,933 2280,943 C2281,954 2275,942 2276,951 L2277,960 2277,960 L2287,959 C2297,959 2282,963 2293,963 C2304,964 2291,958 2300,959 L2310,960 2310,960 L2311,949 C2312,939 2307,952 2307,943 C2308,935 2310,947 2310,937 L2310,928"/></g><clipPath id="c" clipRule="evenodd" fill="transparent"><use href="#t3839"/></clipPath></defs><svg viewBox="2274 924 39 41" preserveAspectRatio="xMinYMin meet"><svg width="4380" height="2430"><g><image crossorigin="anonymous" x="0" y="0" href="https://nftpuzzle.license-token.com/assets/completepuzzle.svg" width="100%" height="100%" /><g class="links"><use href="#t3839"/></g></g></svg><svg x="2298" y="950" height="9%" width="9%" viewBox="0 0 330 330"><g><a xlink:href="https://nftpuzzle.license-token.com/" class="links"><title>See the most innovative NFT based token software licensing project</title><path fill="#E4CF37" id="more" d="M165,0C74.019,0,0,74.019,0,165s74.019,165,165,165s165-74.019,165-165S255.981,0,165,0z M85,190 c-13.785,0-25-11.215-25-25s11.215-25,25-25s25,11.215,25,25S98.785,190,85,190z M165,190c-13.785,0-25-11.215-25-25 s11.215-25,25-25s25,11.215,25,25S178.785,190,165,190z M245,190c-13.785,0-25-11.215-25-25s11.215-25,25-25 c13.785,0,25,11.215,25,25S258.785,190,245,190z"></path></a></g></svg></svg></svg>