<svg version="1.1" xmlns="http://www.w3.org/2000/svg" xmlns:xlink="http://www.w3.org/1999/xlink" fill="transparent" x="0" y="0" width="350" height="350" preserveAspectRatio="xMinYMin slice"><style type="text/css">.links{fill:transparent;stroke: #E4CF37;}.links:hover{fill:#63D272; opacity:0.4;}</style><defs><g id="allt"><path id="t3843" d="M2442,928 L2432,928 C2423,928 2437,930 2425,931 C2414,932 2427,927 2418,927 L2409,928 2409,928 L2409,938 C2409,948 2405,937 2403,945 C2402,954 2413,941 2411,950 L2409,960 2409,960 L2419,960 C2430,960 2418,956 2427,954 C2436,953 2422,964 2432,962 L2442,960 2442,960 L2442,950 C2442,941 2448,950 2447,942 C2446,935 2442,945 2442,936 L2442,928"/></g><clipPath id="c" clipRule="evenodd" fill="transparent"><use href="#t3843"/></clipPath></defs><svg viewBox="2401 926 48 39" preserveAspectRatio="xMinYMin meet"><svg width="4380" height="2430"><g><image crossorigin="anonymous" x="0" y="0" href="https://nftpuzzle.license-token.com/assets/completepuzzle.svg" width="100%" height="100%" /><g class="links"><use href="#t3843"/></g></g></svg><svg x="2434" y="950" height="9%" width="9%" viewBox="0 0 330 330"><g><a xlink:href="https://nftpuzzle.license-token.com/" class="links"><title>See the most innovative NFT based token software licensing project</title><path fill="#E4CF37" id="more" d="M165,0C74.019,0,0,74.019,0,165s74.019,165,165,165s165-74.019,165-165S255.981,0,165,0z M85,190 c-13.785,0-25-11.215-25-25s11.215-25,25-25s25,11.215,25,25S98.785,190,85,190z M165,190c-13.785,0-25-11.215-25-25 s11.215-25,25-25s25,11.215,25,25S178.785,190,165,190z M245,190c-13.785,0-25-11.215-25-25s11.215-25,25-25 c13.785,0,25,11.215,25,25S258.785,190,245,190z"></path></a></g></svg></svg></svg>