<svg version="1.1" xmlns="http://www.w3.org/2000/svg" xmlns:xlink="http://www.w3.org/1999/xlink" fill="transparent" x="0" y="0" width="350" height="350" preserveAspectRatio="xMinYMin slice"><style type="text/css">.links{fill:transparent;stroke: #E4CF37;}.links:hover{fill:#63D272; opacity:0.4;}</style><defs><g id="allt"><path id="t3846" d="M2541,928 L2530,929 C2520,930 2535,920 2525,920 C2515,920 2527,930 2517,929 L2508,928 2508,928 L2508,937 C2508,946 2500,937 2501,944 C2502,951 2511,942 2509,951 L2508,960 2508,960 L2517,960 C2527,960 2517,952 2524,953 C2532,954 2522,963 2531,961 L2541,960 2541,960 L2542,951 C2544,942 2536,951 2535,941 C2535,932 2541,948 2541,938 L2541,928"/></g><clipPath id="c" clipRule="evenodd" fill="transparent"><use href="#t3846"/></clipPath></defs><svg viewBox="2499 919 46 45" preserveAspectRatio="xMinYMin meet"><svg width="4380" height="2430"><g><image crossorigin="anonymous" x="0" y="0" href="https://nftpuzzle.license-token.com/assets/completepuzzle.svg" width="100%" height="100%" /><g class="links"><use href="#t3846"/></g></g></svg><svg x="2530" y="949" height="9%" width="9%" viewBox="0 0 330 330"><g><a xlink:href="https://nftpuzzle.license-token.com/" class="links"><title>See the most innovative NFT based token software licensing project</title><path fill="#E4CF37" id="more" d="M165,0C74.019,0,0,74.019,0,165s74.019,165,165,165s165-74.019,165-165S255.981,0,165,0z M85,190 c-13.785,0-25-11.215-25-25s11.215-25,25-25s25,11.215,25,25S98.785,190,85,190z M165,190c-13.785,0-25-11.215-25-25 s11.215-25,25-25s25,11.215,25,25S178.785,190,165,190z M245,190c-13.785,0-25-11.215-25-25s11.215-25,25-25 c13.785,0,25,11.215,25,25S258.785,190,245,190z"></path></a></g></svg></svg></svg>