<svg version="1.1" xmlns="http://www.w3.org/2000/svg" xmlns:xlink="http://www.w3.org/1999/xlink" fill="transparent" x="0" y="0" width="350" height="350" preserveAspectRatio="xMinYMin slice"><style type="text/css">.links{fill:transparent;stroke: #E4CF37;}.links:hover{fill:#63D272; opacity:0.4;}</style><defs><g id="allt"><path id="t3847" d="M2574,928 L2564,928 C2554,929 2564,923 2555,920 C2547,918 2560,928 2550,928 L2541,928 2541,928 L2541,938 C2541,948 2535,932 2535,941 C2536,951 2544,942 2542,951 L2541,960 2541,960 L2551,960 C2562,960 2545,954 2555,954 C2565,955 2555,963 2564,961 L2574,960 2574,960 L2575,949 C2576,939 2569,954 2568,943 C2567,933 2574,947 2574,937 L2574,928"/></g><clipPath id="c" clipRule="evenodd" fill="transparent"><use href="#t3847"/></clipPath></defs><svg viewBox="2534 917 43 47" preserveAspectRatio="xMinYMin meet"><svg width="4380" height="2430"><g><image crossorigin="anonymous" x="0" y="0" href="https://nftpuzzle.license-token.com/assets/completepuzzle.svg" width="100%" height="100%" /><g class="links"><use href="#t3847"/></g></g></svg><svg x="2562" y="949" height="9%" width="9%" viewBox="0 0 330 330"><g><a xlink:href="https://nftpuzzle.license-token.com/" class="links"><title>See the most innovative NFT based token software licensing project</title><path fill="#E4CF37" id="more" d="M165,0C74.019,0,0,74.019,0,165s74.019,165,165,165s165-74.019,165-165S255.981,0,165,0z M85,190 c-13.785,0-25-11.215-25-25s11.215-25,25-25s25,11.215,25,25S98.785,190,85,190z M165,190c-13.785,0-25-11.215-25-25 s11.215-25,25-25s25,11.215,25,25S178.785,190,165,190z M245,190c-13.785,0-25-11.215-25-25s11.215-25,25-25 c13.785,0,25,11.215,25,25S258.785,190,245,190z"></path></a></g></svg></svg></svg>