<svg version="1.1" xmlns="http://www.w3.org/2000/svg" xmlns:xlink="http://www.w3.org/1999/xlink" fill="transparent" x="0" y="0" width="350" height="350" preserveAspectRatio="xMinYMin slice"><style type="text/css">.links{fill:transparent;stroke: #E4CF37;}.links:hover{fill:#63D272; opacity:0.4;}</style><defs><g id="allt"><path id="t3851" d="M2706,928 L2696,928 C2687,928 2699,920 2690,920 C2682,920 2692,929 2682,928 L2673,928 2673,928 L2673,936 C2674,945 2671,934 2671,944 C2671,954 2673,942 2673,951 L2673,960 2673,960 L2682,960 C2691,961 2679,958 2689,958 C2700,958 2687,960 2696,960 L2706,960 2706,960 L2706,949 C2707,939 2697,954 2697,944 C2698,934 2707,946 2706,937 L2706,928"/></g><clipPath id="c" clipRule="evenodd" fill="transparent"><use href="#t3851"/></clipPath></defs><svg viewBox="2670 919 38 43" preserveAspectRatio="xMinYMin meet"><svg width="4380" height="2430"><g><image crossorigin="anonymous" x="0" y="0" href="https://nftpuzzle.license-token.com/assets/completepuzzle.svg" width="100%" height="100%" /><g class="links"><use href="#t3851"/></g></g></svg><svg x="2693" y="947" height="9%" width="9%" viewBox="0 0 330 330"><g><a xlink:href="https://nftpuzzle.license-token.com/" class="links"><title>See the most innovative NFT based token software licensing project</title><path fill="#E4CF37" id="more" d="M165,0C74.019,0,0,74.019,0,165s74.019,165,165,165s165-74.019,165-165S255.981,0,165,0z M85,190 c-13.785,0-25-11.215-25-25s11.215-25,25-25s25,11.215,25,25S98.785,190,85,190z M165,190c-13.785,0-25-11.215-25-25 s11.215-25,25-25s25,11.215,25,25S178.785,190,165,190z M245,190c-13.785,0-25-11.215-25-25s11.215-25,25-25 c13.785,0,25,11.215,25,25S258.785,190,245,190z"></path></a></g></svg></svg></svg>