<svg version="1.1" xmlns="http://www.w3.org/2000/svg" xmlns:xlink="http://www.w3.org/1999/xlink" fill="transparent" x="0" y="0" width="350" height="350" preserveAspectRatio="xMinYMin slice"><style type="text/css">.links{fill:transparent;stroke: #E4CF37;}.links:hover{fill:#63D272; opacity:0.4;}</style><defs><g id="allt"><path id="t3852" d="M2739,928 L2728,928 C2718,928 2729,922 2720,922 C2712,922 2725,928 2715,928 L2706,928 2706,928 L2706,937 C2707,946 2698,934 2697,944 C2697,954 2707,939 2706,949 L2706,960 2706,960 L2715,960 C2724,961 2712,952 2722,951 C2733,951 2717,961 2728,960 L2739,960 2739,960 L2737,949 C2736,939 2749,953 2746,943 C2744,934 2736,946 2737,937 L2739,928"/></g><clipPath id="c" clipRule="evenodd" fill="transparent"><use href="#t3852"/></clipPath></defs><svg viewBox="2696 921 54 41" preserveAspectRatio="xMinYMin meet"><svg width="4380" height="2430"><g><image crossorigin="anonymous" x="0" y="0" href="https://nftpuzzle.license-token.com/assets/completepuzzle.svg" width="100%" height="100%" /><g class="links"><use href="#t3852"/></g></g></svg><svg x="2735" y="947" height="9%" width="9%" viewBox="0 0 330 330"><g><a xlink:href="https://nftpuzzle.license-token.com/" class="links"><title>See the most innovative NFT based token software licensing project</title><path fill="#E4CF37" id="more" d="M165,0C74.019,0,0,74.019,0,165s74.019,165,165,165s165-74.019,165-165S255.981,0,165,0z M85,190 c-13.785,0-25-11.215-25-25s11.215-25,25-25s25,11.215,25,25S98.785,190,85,190z M165,190c-13.785,0-25-11.215-25-25 s11.215-25,25-25s25,11.215,25,25S178.785,190,165,190z M245,190c-13.785,0-25-11.215-25-25s11.215-25,25-25 c13.785,0,25,11.215,25,25S258.785,190,245,190z"></path></a></g></svg></svg></svg>