<svg version="1.1" xmlns="http://www.w3.org/2000/svg" xmlns:xlink="http://www.w3.org/1999/xlink" fill="transparent" x="0" y="0" width="350" height="350" preserveAspectRatio="xMinYMin slice"><style type="text/css">.links{fill:transparent;stroke: #E4CF37;}.links:hover{fill:#63D272; opacity:0.4;}</style><defs><g id="allt"><path id="t3855" d="M2838,928 L2827,927 C2816,927 2828,933 2820,931 C2813,930 2823,927 2814,927 L2805,928 2805,928 L2805,936 C2805,945 2801,932 2801,941 C2802,951 2808,939 2806,949 L2805,960 2805,960 L2814,960 C2823,960 2809,956 2818,956 C2828,957 2816,963 2827,961 L2838,960 2838,960 L2837,951 C2837,942 2843,953 2842,945 C2841,937 2835,946 2836,937 L2838,928"/></g><clipPath id="c" clipRule="evenodd" fill="transparent"><use href="#t3855"/></clipPath></defs><svg viewBox="2800 926 44 38" preserveAspectRatio="xMinYMin meet"><svg width="4380" height="2430"><g><image crossorigin="anonymous" x="0" y="0" href="https://nftpuzzle.license-token.com/assets/completepuzzle.svg" width="100%" height="100%" /><g class="links"><use href="#t3855"/></g></g></svg><svg x="2829" y="949" height="9%" width="9%" viewBox="0 0 330 330"><g><a xlink:href="https://nftpuzzle.license-token.com/" class="links"><title>See the most innovative NFT based token software licensing project</title><path fill="#E4CF37" id="more" d="M165,0C74.019,0,0,74.019,0,165s74.019,165,165,165s165-74.019,165-165S255.981,0,165,0z M85,190 c-13.785,0-25-11.215-25-25s11.215-25,25-25s25,11.215,25,25S98.785,190,85,190z M165,190c-13.785,0-25-11.215-25-25 s11.215-25,25-25s25,11.215,25,25S178.785,190,165,190z M245,190c-13.785,0-25-11.215-25-25s11.215-25,25-25 c13.785,0,25,11.215,25,25S258.785,190,245,190z"></path></a></g></svg></svg></svg>