<svg version="1.1" xmlns="http://www.w3.org/2000/svg" xmlns:xlink="http://www.w3.org/1999/xlink" fill="transparent" x="0" y="0" width="350" height="350" preserveAspectRatio="xMinYMin slice"><style type="text/css">.links{fill:transparent;stroke: #E4CF37;}.links:hover{fill:#63D272; opacity:0.4;}</style><defs><g id="allt"><path id="t3856" d="M2871,928 L2861,927 C2852,927 2861,934 2854,934 C2847,935 2857,927 2847,927 L2838,928 2838,928 L2836,937 C2835,946 2841,937 2842,945 C2843,953 2837,942 2837,951 L2838,960 2838,960 L2847,958 C2857,957 2847,963 2855,964 C2864,965 2852,959 2861,959 L2871,960 2871,960 L2872,949 C2873,938 2868,952 2867,943 C2867,934 2872,947 2871,937 L2871,928"/></g><clipPath id="c" clipRule="evenodd" fill="transparent"><use href="#t3856"/></clipPath></defs><svg viewBox="2834 926 40 40" preserveAspectRatio="xMinYMin meet"><svg width="4380" height="2430"><g><image crossorigin="anonymous" x="0" y="0" href="https://nftpuzzle.license-token.com/assets/completepuzzle.svg" width="100%" height="100%" /><g class="links"><use href="#t3856"/></g></g></svg><svg x="2859" y="951" height="9%" width="9%" viewBox="0 0 330 330"><g><a xlink:href="https://nftpuzzle.license-token.com/" class="links"><title>See the most innovative NFT based token software licensing project</title><path fill="#E4CF37" id="more" d="M165,0C74.019,0,0,74.019,0,165s74.019,165,165,165s165-74.019,165-165S255.981,0,165,0z M85,190 c-13.785,0-25-11.215-25-25s11.215-25,25-25s25,11.215,25,25S98.785,190,85,190z M165,190c-13.785,0-25-11.215-25-25 s11.215-25,25-25s25,11.215,25,25S178.785,190,165,190z M245,190c-13.785,0-25-11.215-25-25s11.215-25,25-25 c13.785,0,25,11.215,25,25S258.785,190,245,190z"></path></a></g></svg></svg></svg>