<svg version="1.1" xmlns="http://www.w3.org/2000/svg" xmlns:xlink="http://www.w3.org/1999/xlink" fill="transparent" x="0" y="0" width="350" height="350" preserveAspectRatio="xMinYMin slice"><style type="text/css">.links{fill:transparent;stroke: #E4CF37;}.links:hover{fill:#63D272; opacity:0.4;}</style><defs><g id="allt"><path id="t3857" d="M2904,928 L2894,929 C2885,930 2898,922 2888,923 C2879,925 2889,929 2880,928 L2871,928 2871,928 L2871,937 C2872,947 2867,934 2867,943 C2868,952 2873,938 2872,949 L2871,960 2871,960 L2881,960 C2891,961 2877,956 2886,956 C2896,957 2881,962 2892,961 L2904,960 2904,960 L2905,950 C2906,940 2892,952 2894,942 C2897,933 2908,948 2906,938 L2904,928"/></g><clipPath id="c" clipRule="evenodd" fill="transparent"><use href="#t3857"/></clipPath></defs><svg viewBox="2866 921 43 42" preserveAspectRatio="xMinYMin meet"><svg width="4380" height="2430"><g><image crossorigin="anonymous" x="0" y="0" href="https://nftpuzzle.license-token.com/assets/completepuzzle.svg" width="100%" height="100%" /><g class="links"><use href="#t3857"/></g></g></svg><svg x="2894" y="948" height="9%" width="9%" viewBox="0 0 330 330"><g><a xlink:href="https://nftpuzzle.license-token.com/" class="links"><title>See the most innovative NFT based token software licensing project</title><path fill="#E4CF37" id="more" d="M165,0C74.019,0,0,74.019,0,165s74.019,165,165,165s165-74.019,165-165S255.981,0,165,0z M85,190 c-13.785,0-25-11.215-25-25s11.215-25,25-25s25,11.215,25,25S98.785,190,85,190z M165,190c-13.785,0-25-11.215-25-25 s11.215-25,25-25s25,11.215,25,25S178.785,190,165,190z M245,190c-13.785,0-25-11.215-25-25s11.215-25,25-25 c13.785,0,25,11.215,25,25S258.785,190,245,190z"></path></a></g></svg></svg></svg>