<svg version="1.1" xmlns="http://www.w3.org/2000/svg" xmlns:xlink="http://www.w3.org/1999/xlink" fill="transparent" x="0" y="0" width="350" height="350" preserveAspectRatio="xMinYMin slice"><style type="text/css">.links{fill:transparent;stroke: #E4CF37;}.links:hover{fill:#63D272; opacity:0.4;}</style><defs><g id="allt"><path id="t386" d="M4191,64 L4181,64 C4171,64 4181,61 4172,61 C4164,61 4177,64 4167,64 L4158,64 4158,64 L4159,72 C4161,81 4144,71 4145,79 C4147,87 4158,76 4158,86 L4158,96 4158,96 L4167,97 C4176,99 4165,82 4173,83 C4182,85 4170,96 4180,96 L4191,96 4191,96 L4191,86 C4191,76 4195,86 4195,79 C4195,72 4191,85 4191,74 L4191,64"/></g><clipPath id="c" clipRule="evenodd" fill="transparent"><use href="#t386"/></clipPath></defs><svg viewBox="4143 60 53 40" preserveAspectRatio="xMinYMin meet"><svg width="4380" height="2430"><g><image crossorigin="anonymous" x="0" y="0" href="https://nftpuzzle.license-token.com/assets/completepuzzle.svg" width="100%" height="100%" /><g class="links"><use href="#t386"/></g></g></svg><svg x="4181" y="85" height="9%" width="9%" viewBox="0 0 330 330"><g><a xlink:href="https://nftpuzzle.license-token.com/" class="links"><title>See the most innovative NFT based token software licensing project</title><path fill="#E4CF37" id="more" d="M165,0C74.019,0,0,74.019,0,165s74.019,165,165,165s165-74.019,165-165S255.981,0,165,0z M85,190 c-13.785,0-25-11.215-25-25s11.215-25,25-25s25,11.215,25,25S98.785,190,85,190z M165,190c-13.785,0-25-11.215-25-25 s11.215-25,25-25s25,11.215,25,25S178.785,190,165,190z M245,190c-13.785,0-25-11.215-25-25s11.215-25,25-25 c13.785,0,25,11.215,25,25S258.785,190,245,190z"></path></a></g></svg></svg></svg>