<svg version="1.1" xmlns="http://www.w3.org/2000/svg" xmlns:xlink="http://www.w3.org/1999/xlink" fill="transparent" x="0" y="0" width="350" height="350" preserveAspectRatio="xMinYMin slice"><style type="text/css">.links{fill:transparent;stroke: #E4CF37;}.links:hover{fill:#63D272; opacity:0.4;}</style><defs><g id="allt"><path id="t3861" d="M3036,928 L3025,928 C3015,928 3030,924 3019,924 C3008,924 3023,929 3013,928 L3003,928 3003,928 L3003,938 C3004,948 2995,934 2996,943 C2997,952 3005,941 3004,950 L3003,960 3003,960 L3013,960 C3023,961 3009,952 3018,953 C3028,954 3017,962 3026,961 L3036,960 3036,960 L3036,951 C3036,942 3048,952 3047,943 C3046,935 3032,945 3034,936 L3036,928"/></g><clipPath id="c" clipRule="evenodd" fill="transparent"><use href="#t3861"/></clipPath></defs><svg viewBox="2994 923 55 40" preserveAspectRatio="xMinYMin meet"><svg width="4380" height="2430"><g><image crossorigin="anonymous" x="0" y="0" href="https://nftpuzzle.license-token.com/assets/completepuzzle.svg" width="100%" height="100%" /><g class="links"><use href="#t3861"/></g></g></svg><svg x="3034" y="948" height="9%" width="9%" viewBox="0 0 330 330"><g><a xlink:href="https://nftpuzzle.license-token.com/" class="links"><title>See the most innovative NFT based token software licensing project</title><path fill="#E4CF37" id="more" d="M165,0C74.019,0,0,74.019,0,165s74.019,165,165,165s165-74.019,165-165S255.981,0,165,0z M85,190 c-13.785,0-25-11.215-25-25s11.215-25,25-25s25,11.215,25,25S98.785,190,85,190z M165,190c-13.785,0-25-11.215-25-25 s11.215-25,25-25s25,11.215,25,25S178.785,190,165,190z M245,190c-13.785,0-25-11.215-25-25s11.215-25,25-25 c13.785,0,25,11.215,25,25S258.785,190,245,190z"></path></a></g></svg></svg></svg>