<svg version="1.1" xmlns="http://www.w3.org/2000/svg" xmlns:xlink="http://www.w3.org/1999/xlink" fill="transparent" x="0" y="0" width="350" height="350" preserveAspectRatio="xMinYMin slice"><style type="text/css">.links{fill:transparent;stroke: #E4CF37;}.links:hover{fill:#63D272; opacity:0.4;}</style><defs><g id="allt"><path id="t3863" d="M3102,928 L3091,926 C3081,925 3094,932 3084,932 C3074,932 3091,927 3080,927 L3069,928 3069,928 L3069,937 C3069,946 3066,936 3065,943 C3065,951 3071,940 3070,950 L3069,960 3069,960 L3078,960 C3088,960 3077,957 3085,956 C3093,956 3081,962 3091,961 L3102,960 3102,960 L3102,949 C3103,938 3099,954 3098,944 C3097,935 3102,948 3102,938 L3102,928"/></g><clipPath id="c" clipRule="evenodd" fill="transparent"><use href="#t3863"/></clipPath></defs><svg viewBox="3064 924 40 39" preserveAspectRatio="xMinYMin meet"><svg width="4380" height="2430"><g><image crossorigin="anonymous" x="0" y="0" href="https://nftpuzzle.license-token.com/assets/completepuzzle.svg" width="100%" height="100%" /><g class="links"><use href="#t3863"/></g></g></svg><svg x="3089" y="948" height="9%" width="9%" viewBox="0 0 330 330"><g><a xlink:href="https://nftpuzzle.license-token.com/" class="links"><title>See the most innovative NFT based token software licensing project</title><path fill="#E4CF37" id="more" d="M165,0C74.019,0,0,74.019,0,165s74.019,165,165,165s165-74.019,165-165S255.981,0,165,0z M85,190 c-13.785,0-25-11.215-25-25s11.215-25,25-25s25,11.215,25,25S98.785,190,85,190z M165,190c-13.785,0-25-11.215-25-25 s11.215-25,25-25s25,11.215,25,25S178.785,190,165,190z M245,190c-13.785,0-25-11.215-25-25s11.215-25,25-25 c13.785,0,25,11.215,25,25S258.785,190,245,190z"></path></a></g></svg></svg></svg>