<svg version="1.1" xmlns="http://www.w3.org/2000/svg" xmlns:xlink="http://www.w3.org/1999/xlink" fill="transparent" x="0" y="0" width="350" height="350" preserveAspectRatio="xMinYMin slice"><style type="text/css">.links{fill:transparent;stroke: #E4CF37;}.links:hover{fill:#63D272; opacity:0.4;}</style><defs><g id="allt"><path id="t3867" d="M3234,928 L3223,928 C3212,929 3226,926 3217,924 C3208,923 3222,929 3211,928 L3201,928 3201,928 L3200,938 C3200,949 3204,936 3204,945 C3205,954 3201,942 3201,951 L3201,960 3201,960 L3211,959 C3222,959 3210,963 3219,963 C3228,964 3215,960 3224,960 L3234,960 3234,960 L3231,951 C3229,942 3246,952 3243,943 C3241,934 3233,946 3233,937 L3234,928"/></g><clipPath id="c" clipRule="evenodd" fill="transparent"><use href="#t3867"/></clipPath></defs><svg viewBox="3199 922 48 43" preserveAspectRatio="xMinYMin meet"><svg width="4380" height="2430"><g><image crossorigin="anonymous" x="0" y="0" href="https://nftpuzzle.license-token.com/assets/completepuzzle.svg" width="100%" height="100%" /><g class="links"><use href="#t3867"/></g></g></svg><svg x="3232" y="950" height="9%" width="9%" viewBox="0 0 330 330"><g><a xlink:href="https://nftpuzzle.license-token.com/" class="links"><title>See the most innovative NFT based token software licensing project</title><path fill="#E4CF37" id="more" d="M165,0C74.019,0,0,74.019,0,165s74.019,165,165,165s165-74.019,165-165S255.981,0,165,0z M85,190 c-13.785,0-25-11.215-25-25s11.215-25,25-25s25,11.215,25,25S98.785,190,85,190z M165,190c-13.785,0-25-11.215-25-25 s11.215-25,25-25s25,11.215,25,25S178.785,190,165,190z M245,190c-13.785,0-25-11.215-25-25s11.215-25,25-25 c13.785,0,25,11.215,25,25S258.785,190,245,190z"></path></a></g></svg></svg></svg>