<svg version="1.1" xmlns="http://www.w3.org/2000/svg" xmlns:xlink="http://www.w3.org/1999/xlink" fill="transparent" x="0" y="0" width="350" height="350" preserveAspectRatio="xMinYMin slice"><style type="text/css">.links{fill:transparent;stroke: #E4CF37;}.links:hover{fill:#63D272; opacity:0.4;}</style><defs><g id="allt"><path id="t3868" d="M3267,928 L3256,929 C3245,931 3261,920 3251,920 C3241,921 3252,928 3243,928 L3234,928 3234,928 L3233,937 C3233,946 3241,934 3243,943 C3246,952 3229,942 3231,951 L3234,960 3234,960 L3243,959 C3252,959 3240,967 3249,969 C3259,972 3248,955 3257,957 L3267,960 3267,960 L3267,949 C3268,938 3260,954 3261,945 C3262,936 3270,949 3268,938 L3267,928"/></g><clipPath id="c" clipRule="evenodd" fill="transparent"><use href="#t3868"/></clipPath></defs><svg viewBox="3228 919 43 54" preserveAspectRatio="xMinYMin meet"><svg width="4380" height="2430"><g><image crossorigin="anonymous" x="0" y="0" href="https://nftpuzzle.license-token.com/assets/completepuzzle.svg" width="100%" height="100%" /><g class="links"><use href="#t3868"/></g></g></svg><svg x="3256" y="958" height="9%" width="9%" viewBox="0 0 330 330"><g><a xlink:href="https://nftpuzzle.license-token.com/" class="links"><title>See the most innovative NFT based token software licensing project</title><path fill="#E4CF37" id="more" d="M165,0C74.019,0,0,74.019,0,165s74.019,165,165,165s165-74.019,165-165S255.981,0,165,0z M85,190 c-13.785,0-25-11.215-25-25s11.215-25,25-25s25,11.215,25,25S98.785,190,85,190z M165,190c-13.785,0-25-11.215-25-25 s11.215-25,25-25s25,11.215,25,25S178.785,190,165,190z M245,190c-13.785,0-25-11.215-25-25s11.215-25,25-25 c13.785,0,25,11.215,25,25S258.785,190,245,190z"></path></a></g></svg></svg></svg>