<svg version="1.1" xmlns="http://www.w3.org/2000/svg" xmlns:xlink="http://www.w3.org/1999/xlink" fill="transparent" x="0" y="0" width="350" height="350" preserveAspectRatio="xMinYMin slice"><style type="text/css">.links{fill:transparent;stroke: #E4CF37;}.links:hover{fill:#63D272; opacity:0.4;}</style><defs><g id="allt"><path id="t3869" d="M3300,928 L3290,926 C3281,925 3292,937 3282,937 C3272,937 3285,928 3276,928 L3267,928 3267,928 L3268,938 C3270,949 3262,936 3261,945 C3260,954 3268,938 3267,949 L3267,960 3267,960 L3278,961 C3289,963 3276,955 3285,954 C3294,953 3277,961 3288,960 L3300,960 3300,960 L3300,950 C3301,941 3296,954 3296,943 C3296,932 3302,948 3301,938 L3300,928"/></g><clipPath id="c" clipRule="evenodd" fill="transparent"><use href="#t3869"/></clipPath></defs><svg viewBox="3259 924 44 40" preserveAspectRatio="xMinYMin meet"><svg width="4380" height="2430"><g><image crossorigin="anonymous" x="0" y="0" href="https://nftpuzzle.license-token.com/assets/completepuzzle.svg" width="100%" height="100%" /><g class="links"><use href="#t3869"/></g></g></svg><svg x="3288" y="949" height="9%" width="9%" viewBox="0 0 330 330"><g><a xlink:href="https://nftpuzzle.license-token.com/" class="links"><title>See the most innovative NFT based token software licensing project</title><path fill="#E4CF37" id="more" d="M165,0C74.019,0,0,74.019,0,165s74.019,165,165,165s165-74.019,165-165S255.981,0,165,0z M85,190 c-13.785,0-25-11.215-25-25s11.215-25,25-25s25,11.215,25,25S98.785,190,85,190z M165,190c-13.785,0-25-11.215-25-25 s11.215-25,25-25s25,11.215,25,25S178.785,190,165,190z M245,190c-13.785,0-25-11.215-25-25s11.215-25,25-25 c13.785,0,25,11.215,25,25S258.785,190,245,190z"></path></a></g></svg></svg></svg>