<svg version="1.1" xmlns="http://www.w3.org/2000/svg" xmlns:xlink="http://www.w3.org/1999/xlink" fill="transparent" x="0" y="0" width="350" height="350" preserveAspectRatio="xMinYMin slice"><style type="text/css">.links{fill:transparent;stroke: #E4CF37;}.links:hover{fill:#63D272; opacity:0.4;}</style><defs><g id="allt"><path id="t387" d="M4224,64 L4214,65 C4204,67 4214,58 4207,58 C4200,58 4213,64 4202,64 L4191,64 4191,64 L4191,74 C4191,85 4195,72 4195,79 C4195,86 4191,76 4191,86 L4191,96 4191,96 L4202,96 C4213,96 4199,100 4206,100 C4214,100 4204,96 4214,96 L4224,96 4224,96 L4225,86 C4227,77 4219,86 4218,79 C4217,72 4224,82 4224,73 L4224,64"/></g><clipPath id="c" clipRule="evenodd" fill="transparent"><use href="#t387"/></clipPath></defs><svg viewBox="4190 57 38 44" preserveAspectRatio="xMinYMin meet"><svg width="4380" height="2430"><g><image crossorigin="anonymous" x="0" y="0" href="https://nftpuzzle.license-token.com/assets/completepuzzle.svg" width="100%" height="100%" /><g class="links"><use href="#t387"/></g></g></svg><svg x="4213" y="86" height="9%" width="9%" viewBox="0 0 330 330"><g><a xlink:href="https://nftpuzzle.license-token.com/" class="links"><title>See the most innovative NFT based token software licensing project</title><path fill="#E4CF37" id="more" d="M165,0C74.019,0,0,74.019,0,165s74.019,165,165,165s165-74.019,165-165S255.981,0,165,0z M85,190 c-13.785,0-25-11.215-25-25s11.215-25,25-25s25,11.215,25,25S98.785,190,85,190z M165,190c-13.785,0-25-11.215-25-25 s11.215-25,25-25s25,11.215,25,25S178.785,190,165,190z M245,190c-13.785,0-25-11.215-25-25s11.215-25,25-25 c13.785,0,25,11.215,25,25S258.785,190,245,190z"></path></a></g></svg></svg></svg>