<svg version="1.1" xmlns="http://www.w3.org/2000/svg" xmlns:xlink="http://www.w3.org/1999/xlink" fill="transparent" x="0" y="0" width="350" height="350" preserveAspectRatio="xMinYMin slice"><style type="text/css">.links{fill:transparent;stroke: #E4CF37;}.links:hover{fill:#63D272; opacity:0.4;}</style><defs><g id="allt"><path id="t3886" d="M3861,928 L3850,926 C3840,925 3851,935 3843,934 C3836,933 3846,928 3837,928 L3828,928 3828,928 L3828,938 C3829,948 3816,935 3819,943 C3822,951 3830,939 3829,949 L3828,960 3828,960 L3838,960 C3849,961 3835,949 3843,951 C3852,954 3839,962 3850,961 L3861,960 3861,960 L3861,949 C3861,939 3867,952 3866,944 C3866,936 3861,949 3861,938 L3861,928"/></g><clipPath id="c" clipRule="evenodd" fill="transparent"><use href="#t3886"/></clipPath></defs><svg viewBox="3815 924 53 39" preserveAspectRatio="xMinYMin meet"><svg width="4380" height="2430"><g><image crossorigin="anonymous" x="0" y="0" href="https://nftpuzzle.license-token.com/assets/completepuzzle.svg" width="100%" height="100%" /><g class="links"><use href="#t3886"/></g></g></svg><svg x="3853" y="948" height="9%" width="9%" viewBox="0 0 330 330"><g><a xlink:href="https://nftpuzzle.license-token.com/" class="links"><title>See the most innovative NFT based token software licensing project</title><path fill="#E4CF37" id="more" d="M165,0C74.019,0,0,74.019,0,165s74.019,165,165,165s165-74.019,165-165S255.981,0,165,0z M85,190 c-13.785,0-25-11.215-25-25s11.215-25,25-25s25,11.215,25,25S98.785,190,85,190z M165,190c-13.785,0-25-11.215-25-25 s11.215-25,25-25s25,11.215,25,25S178.785,190,165,190z M245,190c-13.785,0-25-11.215-25-25s11.215-25,25-25 c13.785,0,25,11.215,25,25S258.785,190,245,190z"></path></a></g></svg></svg></svg>