<svg version="1.1" xmlns="http://www.w3.org/2000/svg" xmlns:xlink="http://www.w3.org/1999/xlink" fill="transparent" x="0" y="0" width="350" height="350" preserveAspectRatio="xMinYMin slice"><style type="text/css">.links{fill:transparent;stroke: #E4CF37;}.links:hover{fill:#63D272; opacity:0.4;}</style><defs><g id="allt"><path id="t3888" d="M3927,928 L3916,928 C3905,928 3917,918 3908,918 C3899,919 3914,928 3904,928 L3894,928 3894,928 L3894,936 C3895,945 3888,937 3889,945 C3890,954 3894,941 3894,950 L3894,960 3894,960 L3903,960 C3912,961 3903,954 3912,955 C3921,956 3907,960 3917,960 L3927,960 3927,960 L3927,950 C3927,941 3920,954 3920,945 C3920,937 3927,948 3927,938 L3927,928"/></g><clipPath id="c" clipRule="evenodd" fill="transparent"><use href="#t3888"/></clipPath></defs><svg viewBox="3887 917 41 45" preserveAspectRatio="xMinYMin meet"><svg width="4380" height="2430"><g><image crossorigin="anonymous" x="0" y="0" href="https://nftpuzzle.license-token.com/assets/completepuzzle.svg" width="100%" height="100%" /><g class="links"><use href="#t3888"/></g></g></svg><svg x="3913" y="947" height="9%" width="9%" viewBox="0 0 330 330"><g><a xlink:href="https://nftpuzzle.license-token.com/" class="links"><title>See the most innovative NFT based token software licensing project</title><path fill="#E4CF37" id="more" d="M165,0C74.019,0,0,74.019,0,165s74.019,165,165,165s165-74.019,165-165S255.981,0,165,0z M85,190 c-13.785,0-25-11.215-25-25s11.215-25,25-25s25,11.215,25,25S98.785,190,85,190z M165,190c-13.785,0-25-11.215-25-25 s11.215-25,25-25s25,11.215,25,25S178.785,190,165,190z M245,190c-13.785,0-25-11.215-25-25s11.215-25,25-25 c13.785,0,25,11.215,25,25S258.785,190,245,190z"></path></a></g></svg></svg></svg>