<svg version="1.1" xmlns="http://www.w3.org/2000/svg" xmlns:xlink="http://www.w3.org/1999/xlink" fill="transparent" x="0" y="0" width="350" height="350" preserveAspectRatio="xMinYMin slice"><style type="text/css">.links{fill:transparent;stroke: #E4CF37;}.links:hover{fill:#63D272; opacity:0.4;}</style><defs><g id="allt"><path id="t3931" d="M1056,960 L1045,959 C1035,959 1046,966 1039,966 C1032,967 1041,960 1032,960 L1023,960 1023,960 L1023,970 C1024,980 1018,969 1019,978 C1020,987 1026,973 1024,982 L1023,992 1023,992 L1033,992 C1044,993 1032,987 1041,988 C1051,989 1037,995 1046,993 L1056,992 1056,992 L1055,983 C1055,974 1064,985 1063,975 C1062,965 1053,979 1054,969 L1056,960"/></g><clipPath id="c" clipRule="evenodd" fill="transparent"><use href="#t3931"/></clipPath></defs><svg viewBox="1017 958 48 38" preserveAspectRatio="xMinYMin meet"><svg width="4380" height="2430"><g><image crossorigin="anonymous" x="0" y="0" href="https://nftpuzzle.license-token.com/assets/completepuzzle.svg" width="100%" height="100%" /><g class="links"><use href="#t3931"/></g></g></svg><svg x="1050" y="981" height="9%" width="9%" viewBox="0 0 330 330"><g><a xlink:href="https://nftpuzzle.license-token.com/" class="links"><title>See the most innovative NFT based token software licensing project</title><path fill="#E4CF37" id="more" d="M165,0C74.019,0,0,74.019,0,165s74.019,165,165,165s165-74.019,165-165S255.981,0,165,0z M85,190 c-13.785,0-25-11.215-25-25s11.215-25,25-25s25,11.215,25,25S98.785,190,85,190z M165,190c-13.785,0-25-11.215-25-25 s11.215-25,25-25s25,11.215,25,25S178.785,190,165,190z M245,190c-13.785,0-25-11.215-25-25s11.215-25,25-25 c13.785,0,25,11.215,25,25S258.785,190,245,190z"></path></a></g></svg></svg></svg>