<svg version="1.1" xmlns="http://www.w3.org/2000/svg" xmlns:xlink="http://www.w3.org/1999/xlink" fill="transparent" x="0" y="0" width="350" height="350" preserveAspectRatio="xMinYMin slice"><style type="text/css">.links{fill:transparent;stroke: #E4CF37;}.links:hover{fill:#63D272; opacity:0.4;}</style><defs><g id="allt"><path id="t3935" d="M1188,960 L1178,961 C1169,962 1178,952 1171,954 C1164,956 1173,963 1164,961 L1155,960 1155,960 L1155,970 C1155,980 1150,968 1149,976 C1148,985 1158,974 1156,983 L1155,992 1155,992 L1165,992 C1176,992 1164,987 1172,986 C1181,985 1169,995 1178,993 L1188,992 1188,992 L1188,981 C1188,970 1197,984 1195,976 C1194,969 1188,979 1188,969 L1188,960"/></g><clipPath id="c" clipRule="evenodd" fill="transparent"><use href="#t3935"/></clipPath></defs><svg viewBox="1147 951 51 45" preserveAspectRatio="xMinYMin meet"><svg width="4380" height="2430"><g><image crossorigin="anonymous" x="0" y="0" href="https://nftpuzzle.license-token.com/assets/completepuzzle.svg" width="100%" height="100%" /><g class="links"><use href="#t3935"/></g></g></svg><svg x="1183" y="981" height="9%" width="9%" viewBox="0 0 330 330"><g><a xlink:href="https://nftpuzzle.license-token.com/" class="links"><title>See the most innovative NFT based token software licensing project</title><path fill="#E4CF37" id="more" d="M165,0C74.019,0,0,74.019,0,165s74.019,165,165,165s165-74.019,165-165S255.981,0,165,0z M85,190 c-13.785,0-25-11.215-25-25s11.215-25,25-25s25,11.215,25,25S98.785,190,85,190z M165,190c-13.785,0-25-11.215-25-25 s11.215-25,25-25s25,11.215,25,25S178.785,190,165,190z M245,190c-13.785,0-25-11.215-25-25s11.215-25,25-25 c13.785,0,25,11.215,25,25S258.785,190,245,190z"></path></a></g></svg></svg></svg>