<svg version="1.1" xmlns="http://www.w3.org/2000/svg" xmlns:xlink="http://www.w3.org/1999/xlink" fill="transparent" x="0" y="0" width="350" height="350" preserveAspectRatio="xMinYMin slice"><style type="text/css">.links{fill:transparent;stroke: #E4CF37;}.links:hover{fill:#63D272; opacity:0.4;}</style><defs><g id="allt"><path id="t3939" d="M1320,960 L1310,960 C1301,960 1314,963 1305,962 C1296,962 1306,960 1296,960 L1287,960 1287,960 L1287,968 C1287,977 1279,964 1279,975 C1280,987 1287,974 1287,983 L1287,992 1287,992 L1296,992 C1305,992 1291,984 1303,984 C1315,985 1301,992 1310,992 L1320,992 1320,992 L1320,982 C1320,973 1318,984 1317,974 C1316,965 1320,980 1320,970 L1320,960"/></g><clipPath id="c" clipRule="evenodd" fill="transparent"><use href="#t3939"/></clipPath></defs><svg viewBox="1278 959 43 34" preserveAspectRatio="xMinYMin meet"><svg width="4380" height="2430"><g><image crossorigin="anonymous" x="0" y="0" href="https://nftpuzzle.license-token.com/assets/completepuzzle.svg" width="100%" height="100%" /><g class="links"><use href="#t3939"/></g></g></svg><svg x="1306" y="978" height="9%" width="9%" viewBox="0 0 330 330"><g><a xlink:href="https://nftpuzzle.license-token.com/" class="links"><title>See the most innovative NFT based token software licensing project</title><path fill="#E4CF37" id="more" d="M165,0C74.019,0,0,74.019,0,165s74.019,165,165,165s165-74.019,165-165S255.981,0,165,0z M85,190 c-13.785,0-25-11.215-25-25s11.215-25,25-25s25,11.215,25,25S98.785,190,85,190z M165,190c-13.785,0-25-11.215-25-25 s11.215-25,25-25s25,11.215,25,25S178.785,190,165,190z M245,190c-13.785,0-25-11.215-25-25s11.215-25,25-25 c13.785,0,25,11.215,25,25S258.785,190,245,190z"></path></a></g></svg></svg></svg>