<svg version="1.1" xmlns="http://www.w3.org/2000/svg" xmlns:xlink="http://www.w3.org/1999/xlink" fill="transparent" x="0" y="0" width="350" height="350" preserveAspectRatio="xMinYMin slice"><style type="text/css">.links{fill:transparent;stroke: #E4CF37;}.links:hover{fill:#63D272; opacity:0.4;}</style><defs><g id="allt"><path id="t3942" d="M1419,960 L1407,960 C1396,960 1413,951 1404,952 C1395,953 1406,964 1396,962 L1386,960 1386,960 L1386,970 C1386,981 1383,968 1382,977 C1382,986 1386,972 1386,982 L1386,992 1386,992 L1397,992 C1408,992 1394,989 1403,988 C1413,988 1399,992 1409,992 L1419,992 1419,992 L1418,982 C1417,972 1426,985 1426,976 C1427,968 1415,980 1417,970 L1419,960"/></g><clipPath id="c" clipRule="evenodd" fill="transparent"><use href="#t3942"/></clipPath></defs><svg viewBox="1381 950 47 43" preserveAspectRatio="xMinYMin meet"><svg width="4380" height="2430"><g><image crossorigin="anonymous" x="0" y="0" href="https://nftpuzzle.license-token.com/assets/completepuzzle.svg" width="100%" height="100%" /><g class="links"><use href="#t3942"/></g></g></svg><svg x="1413" y="978" height="9%" width="9%" viewBox="0 0 330 330"><g><a xlink:href="https://nftpuzzle.license-token.com/" class="links"><title>See the most innovative NFT based token software licensing project</title><path fill="#E4CF37" id="more" d="M165,0C74.019,0,0,74.019,0,165s74.019,165,165,165s165-74.019,165-165S255.981,0,165,0z M85,190 c-13.785,0-25-11.215-25-25s11.215-25,25-25s25,11.215,25,25S98.785,190,85,190z M165,190c-13.785,0-25-11.215-25-25 s11.215-25,25-25s25,11.215,25,25S178.785,190,165,190z M245,190c-13.785,0-25-11.215-25-25s11.215-25,25-25 c13.785,0,25,11.215,25,25S258.785,190,245,190z"></path></a></g></svg></svg></svg>