<svg version="1.1" xmlns="http://www.w3.org/2000/svg" xmlns:xlink="http://www.w3.org/1999/xlink" fill="transparent" x="0" y="0" width="350" height="350" preserveAspectRatio="xMinYMin slice"><style type="text/css">.links{fill:transparent;stroke: #E4CF37;}.links:hover{fill:#63D272; opacity:0.4;}</style><defs><g id="allt"><path id="t3943" d="M1452,960 L1441,960 C1430,960 1446,970 1435,969 C1424,968 1438,959 1428,959 L1419,960 1419,960 L1417,970 C1415,980 1427,968 1426,976 C1426,985 1417,972 1418,982 L1419,992 1419,992 L1429,990 C1439,988 1427,1000 1436,999 C1445,999 1431,990 1441,991 L1452,992 1452,992 L1452,982 C1452,973 1448,983 1447,975 C1447,968 1453,980 1452,970 L1452,960"/></g><clipPath id="c" clipRule="evenodd" fill="transparent"><use href="#t3943"/></clipPath></defs><svg viewBox="1414 958 40 43" preserveAspectRatio="xMinYMin meet"><svg width="4380" height="2430"><g><image crossorigin="anonymous" x="0" y="0" href="https://nftpuzzle.license-token.com/assets/completepuzzle.svg" width="100%" height="100%" /><g class="links"><use href="#t3943"/></g></g></svg><svg x="1439" y="986" height="9%" width="9%" viewBox="0 0 330 330"><g><a xlink:href="https://nftpuzzle.license-token.com/" class="links"><title>See the most innovative NFT based token software licensing project</title><path fill="#E4CF37" id="more" d="M165,0C74.019,0,0,74.019,0,165s74.019,165,165,165s165-74.019,165-165S255.981,0,165,0z M85,190 c-13.785,0-25-11.215-25-25s11.215-25,25-25s25,11.215,25,25S98.785,190,85,190z M165,190c-13.785,0-25-11.215-25-25 s11.215-25,25-25s25,11.215,25,25S178.785,190,165,190z M245,190c-13.785,0-25-11.215-25-25s11.215-25,25-25 c13.785,0,25,11.215,25,25S258.785,190,245,190z"></path></a></g></svg></svg></svg>