<svg version="1.1" xmlns="http://www.w3.org/2000/svg" xmlns:xlink="http://www.w3.org/1999/xlink" fill="transparent" x="0" y="0" width="350" height="350" preserveAspectRatio="xMinYMin slice"><style type="text/css">.links{fill:transparent;stroke: #E4CF37;}.links:hover{fill:#63D272; opacity:0.4;}</style><defs><g id="allt"><path id="t3949" d="M1650,960 L1640,959 C1630,959 1641,966 1632,966 C1623,967 1635,960 1626,960 L1617,960 1617,960 L1615,970 C1614,980 1629,968 1628,976 C1627,984 1615,973 1616,982 L1617,992 1617,992 L1627,990 C1637,989 1625,1004 1633,1002 C1642,1001 1630,990 1640,991 L1650,992 1650,992 L1650,982 C1650,973 1658,985 1660,976 C1663,967 1649,979 1649,969 L1650,960"/></g><clipPath id="c" clipRule="evenodd" fill="transparent"><use href="#t3949"/></clipPath></defs><svg viewBox="1613 958 51 47" preserveAspectRatio="xMinYMin meet"><svg width="4380" height="2430"><g><image crossorigin="anonymous" x="0" y="0" href="https://nftpuzzle.license-token.com/assets/completepuzzle.svg" width="100%" height="100%" /><g class="links"><use href="#t3949"/></g></g></svg><svg x="1649" y="990" height="9%" width="9%" viewBox="0 0 330 330"><g><a xlink:href="https://nftpuzzle.license-token.com/" class="links"><title>See the most innovative NFT based token software licensing project</title><path fill="#E4CF37" id="more" d="M165,0C74.019,0,0,74.019,0,165s74.019,165,165,165s165-74.019,165-165S255.981,0,165,0z M85,190 c-13.785,0-25-11.215-25-25s11.215-25,25-25s25,11.215,25,25S98.785,190,85,190z M165,190c-13.785,0-25-11.215-25-25 s11.215-25,25-25s25,11.215,25,25S178.785,190,165,190z M245,190c-13.785,0-25-11.215-25-25s11.215-25,25-25 c13.785,0,25,11.215,25,25S258.785,190,245,190z"></path></a></g></svg></svg></svg>