<svg version="1.1" xmlns="http://www.w3.org/2000/svg" xmlns:xlink="http://www.w3.org/1999/xlink" fill="transparent" x="0" y="0" width="350" height="350" preserveAspectRatio="xMinYMin slice"><style type="text/css">.links{fill:transparent;stroke: #E4CF37;}.links:hover{fill:#63D272; opacity:0.4;}</style><defs><g id="allt"><path id="t3953" d="M1782,960 L1772,960 C1763,960 1775,957 1766,956 C1757,955 1768,961 1758,960 L1749,960 1749,960 L1747,970 C1745,980 1760,964 1758,973 C1757,983 1746,971 1747,981 L1749,992 1749,992 L1759,990 C1770,988 1753,1002 1762,1001 C1772,1000 1760,989 1771,990 L1782,992 1782,992 L1782,982 C1782,973 1790,986 1789,975 C1788,965 1780,981 1781,970 L1782,960"/></g><clipPath id="c" clipRule="evenodd" fill="transparent"><use href="#t3953"/></clipPath></defs><svg viewBox="1744 954 47 49" preserveAspectRatio="xMinYMin meet"><svg width="4380" height="2430"><g><image crossorigin="anonymous" x="0" y="0" href="https://nftpuzzle.license-token.com/assets/completepuzzle.svg" width="100%" height="100%" /><g class="links"><use href="#t3953"/></g></g></svg><svg x="1776" y="988" height="9%" width="9%" viewBox="0 0 330 330"><g><a xlink:href="https://nftpuzzle.license-token.com/" class="links"><title>See the most innovative NFT based token software licensing project</title><path fill="#E4CF37" id="more" d="M165,0C74.019,0,0,74.019,0,165s74.019,165,165,165s165-74.019,165-165S255.981,0,165,0z M85,190 c-13.785,0-25-11.215-25-25s11.215-25,25-25s25,11.215,25,25S98.785,190,85,190z M165,190c-13.785,0-25-11.215-25-25 s11.215-25,25-25s25,11.215,25,25S178.785,190,165,190z M245,190c-13.785,0-25-11.215-25-25s11.215-25,25-25 c13.785,0,25,11.215,25,25S258.785,190,245,190z"></path></a></g></svg></svg></svg>