<svg version="1.1" xmlns="http://www.w3.org/2000/svg" xmlns:xlink="http://www.w3.org/1999/xlink" fill="transparent" x="0" y="0" width="350" height="350" preserveAspectRatio="xMinYMin slice"><style type="text/css">.links{fill:transparent;stroke: #E4CF37;}.links:hover{fill:#63D272; opacity:0.4;}</style><defs><g id="allt"><path id="t3955" d="M1848,960 L1837,960 C1826,961 1841,954 1832,954 C1823,955 1833,962 1824,961 L1815,960 1815,960 L1815,969 C1815,978 1821,966 1821,975 C1821,984 1813,972 1814,982 L1815,992 1815,992 L1824,992 C1834,992 1821,998 1830,998 C1839,998 1827,990 1837,991 L1848,992 1848,992 L1848,982 C1848,972 1855,982 1854,975 C1854,969 1848,978 1848,969 L1848,960"/></g><clipPath id="c" clipRule="evenodd" fill="transparent"><use href="#t3955"/></clipPath></defs><svg viewBox="1812 953 44 46" preserveAspectRatio="xMinYMin meet"><svg width="4380" height="2430"><g><image crossorigin="anonymous" x="0" y="0" href="https://nftpuzzle.license-token.com/assets/completepuzzle.svg" width="100%" height="100%" /><g class="links"><use href="#t3955"/></g></g></svg><svg x="1841" y="984" height="9%" width="9%" viewBox="0 0 330 330"><g><a xlink:href="https://nftpuzzle.license-token.com/" class="links"><title>See the most innovative NFT based token software licensing project</title><path fill="#E4CF37" id="more" d="M165,0C74.019,0,0,74.019,0,165s74.019,165,165,165s165-74.019,165-165S255.981,0,165,0z M85,190 c-13.785,0-25-11.215-25-25s11.215-25,25-25s25,11.215,25,25S98.785,190,85,190z M165,190c-13.785,0-25-11.215-25-25 s11.215-25,25-25s25,11.215,25,25S178.785,190,165,190z M245,190c-13.785,0-25-11.215-25-25s11.215-25,25-25 c13.785,0,25,11.215,25,25S258.785,190,245,190z"></path></a></g></svg></svg></svg>