<svg version="1.1" xmlns="http://www.w3.org/2000/svg" xmlns:xlink="http://www.w3.org/1999/xlink" fill="transparent" x="0" y="0" width="350" height="350" preserveAspectRatio="xMinYMin slice"><style type="text/css">.links{fill:transparent;stroke: #E4CF37;}.links:hover{fill:#63D272; opacity:0.4;}</style><defs><g id="allt"><path id="t3969" d="M2310,960 L2300,959 C2291,958 2304,964 2293,963 C2282,963 2297,959 2287,959 L2277,960 2277,960 L2277,969 C2277,978 2280,967 2280,975 C2281,984 2277,972 2277,982 L2277,992 2277,992 L2286,992 C2296,992 2284,995 2293,995 C2302,996 2289,992 2299,992 L2310,992 2310,992 L2311,981 C2312,971 2305,984 2304,975 C2303,967 2310,981 2310,970 L2310,960"/></g><clipPath id="c" clipRule="evenodd" fill="transparent"><use href="#t3969"/></clipPath></defs><svg viewBox="2276 957 37 40" preserveAspectRatio="xMinYMin meet"><svg width="4380" height="2430"><g><image crossorigin="anonymous" x="0" y="0" href="https://nftpuzzle.license-token.com/assets/completepuzzle.svg" width="100%" height="100%" /><g class="links"><use href="#t3969"/></g></g></svg><svg x="2298" y="982" height="9%" width="9%" viewBox="0 0 330 330"><g><a xlink:href="https://nftpuzzle.license-token.com/" class="links"><title>See the most innovative NFT based token software licensing project</title><path fill="#E4CF37" id="more" d="M165,0C74.019,0,0,74.019,0,165s74.019,165,165,165s165-74.019,165-165S255.981,0,165,0z M85,190 c-13.785,0-25-11.215-25-25s11.215-25,25-25s25,11.215,25,25S98.785,190,85,190z M165,190c-13.785,0-25-11.215-25-25 s11.215-25,25-25s25,11.215,25,25S178.785,190,165,190z M245,190c-13.785,0-25-11.215-25-25s11.215-25,25-25 c13.785,0,25,11.215,25,25S258.785,190,245,190z"></path></a></g></svg></svg></svg>