<svg version="1.1" xmlns="http://www.w3.org/2000/svg" xmlns:xlink="http://www.w3.org/1999/xlink" fill="transparent" x="0" y="0" width="350" height="350" preserveAspectRatio="xMinYMin slice"><style type="text/css">.links{fill:transparent;stroke: #E4CF37;}.links:hover{fill:#63D272; opacity:0.4;}</style><defs><g id="allt"><path id="t3971" d="M2376,960 L2364,960 C2353,960 2369,953 2359,951 C2349,949 2364,960 2353,960 L2343,960 2343,960 L2344,969 C2345,979 2339,965 2336,975 C2334,985 2346,971 2344,981 L2343,992 2343,992 L2353,993 C2363,994 2348,988 2358,986 C2369,984 2355,995 2365,993 L2376,992 2376,992 L2376,982 C2376,972 2371,986 2372,977 C2374,969 2376,977 2376,968 L2376,960"/></g><clipPath id="c" clipRule="evenodd" fill="transparent"><use href="#t3971"/></clipPath></defs><svg viewBox="2333 948 44 48" preserveAspectRatio="xMinYMin meet"><svg width="4380" height="2430"><g><image crossorigin="anonymous" x="0" y="0" href="https://nftpuzzle.license-token.com/assets/completepuzzle.svg" width="100%" height="100%" /><g class="links"><use href="#t3971"/></g></g></svg><svg x="2362" y="981" height="9%" width="9%" viewBox="0 0 330 330"><g><a xlink:href="https://nftpuzzle.license-token.com/" class="links"><title>See the most innovative NFT based token software licensing project</title><path fill="#E4CF37" id="more" d="M165,0C74.019,0,0,74.019,0,165s74.019,165,165,165s165-74.019,165-165S255.981,0,165,0z M85,190 c-13.785,0-25-11.215-25-25s11.215-25,25-25s25,11.215,25,25S98.785,190,85,190z M165,190c-13.785,0-25-11.215-25-25 s11.215-25,25-25s25,11.215,25,25S178.785,190,165,190z M245,190c-13.785,0-25-11.215-25-25s11.215-25,25-25 c13.785,0,25,11.215,25,25S258.785,190,245,190z"></path></a></g></svg></svg></svg>