<svg version="1.1" xmlns="http://www.w3.org/2000/svg" xmlns:xlink="http://www.w3.org/1999/xlink" fill="transparent" x="0" y="0" width="350" height="350" preserveAspectRatio="xMinYMin slice"><style type="text/css">.links{fill:transparent;stroke: #E4CF37;}.links:hover{fill:#63D272; opacity:0.4;}</style><defs><g id="allt"><path id="t3984" d="M2805,960 L2794,960 C2784,960 2795,973 2785,969 C2776,966 2792,956 2782,958 L2772,960 2772,960 L2772,969 C2772,979 2769,967 2769,974 C2769,982 2773,973 2772,982 L2772,992 2772,992 L2782,992 C2792,992 2779,989 2787,989 C2795,989 2785,993 2795,992 L2805,992 2805,992 L2805,982 C2805,972 2808,984 2810,975 C2813,967 2804,979 2804,969 L2805,960"/></g><clipPath id="c" clipRule="evenodd" fill="transparent"><use href="#t3984"/></clipPath></defs><svg viewBox="2768 955 46 39" preserveAspectRatio="xMinYMin meet"><svg width="4380" height="2430"><g><image crossorigin="anonymous" x="0" y="0" href="https://nftpuzzle.license-token.com/assets/completepuzzle.svg" width="100%" height="100%" /><g class="links"><use href="#t3984"/></g></g></svg><svg x="2799" y="979" height="9%" width="9%" viewBox="0 0 330 330"><g><a xlink:href="https://nftpuzzle.license-token.com/" class="links"><title>See the most innovative NFT based token software licensing project</title><path fill="#E4CF37" id="more" d="M165,0C74.019,0,0,74.019,0,165s74.019,165,165,165s165-74.019,165-165S255.981,0,165,0z M85,190 c-13.785,0-25-11.215-25-25s11.215-25,25-25s25,11.215,25,25S98.785,190,85,190z M165,190c-13.785,0-25-11.215-25-25 s11.215-25,25-25s25,11.215,25,25S178.785,190,165,190z M245,190c-13.785,0-25-11.215-25-25s11.215-25,25-25 c13.785,0,25,11.215,25,25S258.785,190,245,190z"></path></a></g></svg></svg></svg>