<svg version="1.1" xmlns="http://www.w3.org/2000/svg" xmlns:xlink="http://www.w3.org/1999/xlink" fill="transparent" x="0" y="0" width="350" height="350" preserveAspectRatio="xMinYMin slice"><style type="text/css">.links{fill:transparent;stroke: #E4CF37;}.links:hover{fill:#63D272; opacity:0.4;}</style><defs><g id="allt"><path id="t3986" d="M2871,960 L2861,959 C2852,959 2864,965 2855,964 C2847,963 2857,957 2847,958 L2838,960 2838,960 L2839,969 C2841,978 2831,965 2832,975 C2834,985 2841,973 2839,982 L2838,992 2838,992 L2847,993 C2857,995 2843,985 2853,986 C2864,988 2851,995 2861,993 L2871,992 2871,992 L2871,981 C2871,971 2882,986 2882,977 C2883,969 2869,977 2870,968 L2871,960"/></g><clipPath id="c" clipRule="evenodd" fill="transparent"><use href="#t3986"/></clipPath></defs><svg viewBox="2830 956 54 40" preserveAspectRatio="xMinYMin meet"><svg width="4380" height="2430"><g><image crossorigin="anonymous" x="0" y="0" href="https://nftpuzzle.license-token.com/assets/completepuzzle.svg" width="100%" height="100%" /><g class="links"><use href="#t3986"/></g></g></svg><svg x="2869" y="981" height="9%" width="9%" viewBox="0 0 330 330"><g><a xlink:href="https://nftpuzzle.license-token.com/" class="links"><title>See the most innovative NFT based token software licensing project</title><path fill="#E4CF37" id="more" d="M165,0C74.019,0,0,74.019,0,165s74.019,165,165,165s165-74.019,165-165S255.981,0,165,0z M85,190 c-13.785,0-25-11.215-25-25s11.215-25,25-25s25,11.215,25,25S98.785,190,85,190z M165,190c-13.785,0-25-11.215-25-25 s11.215-25,25-25s25,11.215,25,25S178.785,190,165,190z M245,190c-13.785,0-25-11.215-25-25s11.215-25,25-25 c13.785,0,25,11.215,25,25S258.785,190,245,190z"></path></a></g></svg></svg></svg>