<svg version="1.1" xmlns="http://www.w3.org/2000/svg" xmlns:xlink="http://www.w3.org/1999/xlink" fill="transparent" x="0" y="0" width="350" height="350" preserveAspectRatio="xMinYMin slice"><style type="text/css">.links{fill:transparent;stroke: #E4CF37;}.links:hover{fill:#63D272; opacity:0.4;}</style><defs><g id="allt"><path id="t3991" d="M3036,960 L3026,961 C3017,962 3028,954 3018,953 C3009,952 3023,961 3013,960 L3003,960 3003,960 L3003,970 C3003,981 2999,969 2999,977 C3000,986 3003,970 3003,981 L3003,992 3003,992 L3013,992 C3024,992 3012,988 3021,988 C3030,989 3014,992 3025,992 L3036,992 3036,992 L3036,982 C3036,972 3042,987 3040,976 C3039,966 3036,979 3036,969 L3036,960"/></g><clipPath id="c" clipRule="evenodd" fill="transparent"><use href="#t3991"/></clipPath></defs><svg viewBox="2998 951 45 42" preserveAspectRatio="xMinYMin meet"><svg width="4380" height="2430"><g><image crossorigin="anonymous" x="0" y="0" href="https://nftpuzzle.license-token.com/assets/completepuzzle.svg" width="100%" height="100%" /><g class="links"><use href="#t3991"/></g></g></svg><svg x="3028" y="978" height="9%" width="9%" viewBox="0 0 330 330"><g><a xlink:href="https://nftpuzzle.license-token.com/" class="links"><title>See the most innovative NFT based token software licensing project</title><path fill="#E4CF37" id="more" d="M165,0C74.019,0,0,74.019,0,165s74.019,165,165,165s165-74.019,165-165S255.981,0,165,0z M85,190 c-13.785,0-25-11.215-25-25s11.215-25,25-25s25,11.215,25,25S98.785,190,85,190z M165,190c-13.785,0-25-11.215-25-25 s11.215-25,25-25s25,11.215,25,25S178.785,190,165,190z M245,190c-13.785,0-25-11.215-25-25s11.215-25,25-25 c13.785,0,25,11.215,25,25S258.785,190,245,190z"></path></a></g></svg></svg></svg>