<svg version="1.1" xmlns="http://www.w3.org/2000/svg" xmlns:xlink="http://www.w3.org/1999/xlink" fill="transparent" x="0" y="0" width="350" height="350" preserveAspectRatio="xMinYMin slice"><style type="text/css">.links{fill:transparent;stroke: #E4CF37;}.links:hover{fill:#63D272; opacity:0.4;}</style><defs><g id="allt"><path id="t3994" d="M3135,960 L3123,960 C3112,961 3129,957 3119,956 C3109,955 3123,960 3112,960 L3102,960 3102,960 L3102,969 C3102,979 3099,965 3098,974 C3098,984 3102,973 3102,982 L3102,992 3102,992 L3112,992 C3122,992 3107,989 3117,988 C3127,988 3115,992 3125,992 L3135,992 3135,992 L3135,981 C3135,971 3141,982 3142,975 C3143,968 3132,981 3133,970 L3135,960"/></g><clipPath id="c" clipRule="evenodd" fill="transparent"><use href="#t3994"/></clipPath></defs><svg viewBox="3097 954 47 39" preserveAspectRatio="xMinYMin meet"><svg width="4380" height="2430"><g><image crossorigin="anonymous" x="0" y="0" href="https://nftpuzzle.license-token.com/assets/completepuzzle.svg" width="100%" height="100%" /><g class="links"><use href="#t3994"/></g></g></svg><svg x="3129" y="978" height="9%" width="9%" viewBox="0 0 330 330"><g><a xlink:href="https://nftpuzzle.license-token.com/" class="links"><title>See the most innovative NFT based token software licensing project</title><path fill="#E4CF37" id="more" d="M165,0C74.019,0,0,74.019,0,165s74.019,165,165,165s165-74.019,165-165S255.981,0,165,0z M85,190 c-13.785,0-25-11.215-25-25s11.215-25,25-25s25,11.215,25,25S98.785,190,85,190z M165,190c-13.785,0-25-11.215-25-25 s11.215-25,25-25s25,11.215,25,25S178.785,190,165,190z M245,190c-13.785,0-25-11.215-25-25s11.215-25,25-25 c13.785,0,25,11.215,25,25S258.785,190,245,190z"></path></a></g></svg></svg></svg>