<svg version="1.1" xmlns="http://www.w3.org/2000/svg" xmlns:xlink="http://www.w3.org/1999/xlink" fill="transparent" x="0" y="0" width="350" height="350" preserveAspectRatio="xMinYMin slice"><style type="text/css">.links{fill:transparent;stroke: #E4CF37;}.links:hover{fill:#63D272; opacity:0.4;}</style><defs><g id="allt"><path id="t3997" d="M3234,960 L3224,960 C3215,960 3228,964 3219,963 C3210,963 3222,959 3211,959 L3201,960 3201,960 L3201,968 C3201,977 3196,967 3196,977 C3197,987 3203,973 3202,982 L3201,992 3201,992 L3210,992 C3219,992 3208,987 3218,987 C3229,988 3214,994 3224,993 L3234,992 3234,992 L3234,981 C3234,971 3229,984 3227,974 C3226,965 3234,979 3234,969 L3234,960"/></g><clipPath id="c" clipRule="evenodd" fill="transparent"><use href="#t3997"/></clipPath></defs><svg viewBox="3195 958 40 37" preserveAspectRatio="xMinYMin meet"><svg width="4380" height="2430"><g><image crossorigin="anonymous" x="0" y="0" href="https://nftpuzzle.license-token.com/assets/completepuzzle.svg" width="100%" height="100%" /><g class="links"><use href="#t3997"/></g></g></svg><svg x="3220" y="980" height="9%" width="9%" viewBox="0 0 330 330"><g><a xlink:href="https://nftpuzzle.license-token.com/" class="links"><title>See the most innovative NFT based token software licensing project</title><path fill="#E4CF37" id="more" d="M165,0C74.019,0,0,74.019,0,165s74.019,165,165,165s165-74.019,165-165S255.981,0,165,0z M85,190 c-13.785,0-25-11.215-25-25s11.215-25,25-25s25,11.215,25,25S98.785,190,85,190z M165,190c-13.785,0-25-11.215-25-25 s11.215-25,25-25s25,11.215,25,25S178.785,190,165,190z M245,190c-13.785,0-25-11.215-25-25s11.215-25,25-25 c13.785,0,25,11.215,25,25S258.785,190,245,190z"></path></a></g></svg></svg></svg>