<svg version="1.1" xmlns="http://www.w3.org/2000/svg" xmlns:xlink="http://www.w3.org/1999/xlink" fill="transparent" x="0" y="0" width="350" height="350" preserveAspectRatio="xMinYMin slice"><style type="text/css">.links{fill:transparent;stroke: #E4CF37;}.links:hover{fill:#63D272; opacity:0.4;}</style><defs><g id="allt"><path id="t3998" d="M3267,960 L3257,957 C3248,955 3259,972 3249,969 C3240,967 3252,959 3243,959 L3234,960 3234,960 L3234,969 C3234,979 3226,965 3227,974 C3229,984 3234,971 3234,981 L3234,992 3234,992 L3244,992 C3254,992 3239,984 3248,985 C3258,987 3245,992 3256,992 L3267,992 3267,992 L3267,981 C3267,970 3259,985 3259,975 C3260,965 3267,979 3267,969 L3267,960"/></g><clipPath id="c" clipRule="evenodd" fill="transparent"><use href="#t3998"/></clipPath></defs><svg viewBox="3225 954 43 39" preserveAspectRatio="xMinYMin meet"><svg width="4380" height="2430"><g><image crossorigin="anonymous" x="0" y="0" href="https://nftpuzzle.license-token.com/assets/completepuzzle.svg" width="100%" height="100%" /><g class="links"><use href="#t3998"/></g></g></svg><svg x="3253" y="978" height="9%" width="9%" viewBox="0 0 330 330"><g><a xlink:href="https://nftpuzzle.license-token.com/" class="links"><title>See the most innovative NFT based token software licensing project</title><path fill="#E4CF37" id="more" d="M165,0C74.019,0,0,74.019,0,165s74.019,165,165,165s165-74.019,165-165S255.981,0,165,0z M85,190 c-13.785,0-25-11.215-25-25s11.215-25,25-25s25,11.215,25,25S98.785,190,85,190z M165,190c-13.785,0-25-11.215-25-25 s11.215-25,25-25s25,11.215,25,25S178.785,190,165,190z M245,190c-13.785,0-25-11.215-25-25s11.215-25,25-25 c13.785,0,25,11.215,25,25S258.785,190,245,190z"></path></a></g></svg></svg></svg>