<svg version="1.1" xmlns="http://www.w3.org/2000/svg" xmlns:xlink="http://www.w3.org/1999/xlink" fill="transparent" x="0" y="0" width="350" height="350" preserveAspectRatio="xMinYMin slice"><style type="text/css">.links{fill:transparent;stroke: #E4CF37;}.links:hover{fill:#63D272; opacity:0.4;}</style><defs><g id="allt"><path id="t4002" d="M3399,960 L3388,960 C3377,961 3391,955 3381,955 C3372,956 3387,962 3376,961 L3366,960 3366,960 L3365,970 C3365,980 3371,969 3373,977 C3375,986 3365,971 3365,981 L3366,992 3366,992 L3376,991 C3386,991 3375,997 3384,999 C3393,1001 3377,991 3388,991 L3399,992 3399,992 L3400,982 C3401,972 3391,983 3390,974 C3389,965 3404,978 3401,969 L3399,960"/></g><clipPath id="c" clipRule="evenodd" fill="transparent"><use href="#t4002"/></clipPath></defs><svg viewBox="3364 954 41 48" preserveAspectRatio="xMinYMin meet"><svg width="4380" height="2430"><g><image crossorigin="anonymous" x="0" y="0" href="https://nftpuzzle.license-token.com/assets/completepuzzle.svg" width="100%" height="100%" /><g class="links"><use href="#t4002"/></g></g></svg><svg x="3390" y="987" height="9%" width="9%" viewBox="0 0 330 330"><g><a xlink:href="https://nftpuzzle.license-token.com/" class="links"><title>See the most innovative NFT based token software licensing project</title><path fill="#E4CF37" id="more" d="M165,0C74.019,0,0,74.019,0,165s74.019,165,165,165s165-74.019,165-165S255.981,0,165,0z M85,190 c-13.785,0-25-11.215-25-25s11.215-25,25-25s25,11.215,25,25S98.785,190,85,190z M165,190c-13.785,0-25-11.215-25-25 s11.215-25,25-25s25,11.215,25,25S178.785,190,165,190z M245,190c-13.785,0-25-11.215-25-25s11.215-25,25-25 c13.785,0,25,11.215,25,25S258.785,190,245,190z"></path></a></g></svg></svg></svg>