<svg version="1.1" xmlns="http://www.w3.org/2000/svg" xmlns:xlink="http://www.w3.org/1999/xlink" fill="transparent" x="0" y="0" width="350" height="350" preserveAspectRatio="xMinYMin slice"><style type="text/css">.links{fill:transparent;stroke: #E4CF37;}.links:hover{fill:#63D272; opacity:0.4;}</style><defs><g id="allt"><path id="t4009" d="M3630,960 L3620,961 C3610,963 3623,950 3614,952 C3605,954 3619,960 3608,960 L3597,960 3597,960 L3597,968 C3597,977 3603,969 3603,977 C3603,985 3597,973 3597,982 L3597,992 3597,992 L3606,992 C3615,992 3606,998 3614,998 C3623,998 3610,992 3620,992 L3630,992 3630,992 L3630,981 C3630,970 3628,984 3628,976 C3628,968 3630,981 3630,970 L3630,960"/></g><clipPath id="c" clipRule="evenodd" fill="transparent"><use href="#t4009"/></clipPath></defs><svg viewBox="3596 949 35 50" preserveAspectRatio="xMinYMin meet"><svg width="4380" height="2430"><g><image crossorigin="anonymous" x="0" y="0" href="https://nftpuzzle.license-token.com/assets/completepuzzle.svg" width="100%" height="100%" /><g class="links"><use href="#t4009"/></g></g></svg><svg x="3616" y="984" height="9%" width="9%" viewBox="0 0 330 330"><g><a xlink:href="https://nftpuzzle.license-token.com/" class="links"><title>See the most innovative NFT based token software licensing project</title><path fill="#E4CF37" id="more" d="M165,0C74.019,0,0,74.019,0,165s74.019,165,165,165s165-74.019,165-165S255.981,0,165,0z M85,190 c-13.785,0-25-11.215-25-25s11.215-25,25-25s25,11.215,25,25S98.785,190,85,190z M165,190c-13.785,0-25-11.215-25-25 s11.215-25,25-25s25,11.215,25,25S178.785,190,165,190z M245,190c-13.785,0-25-11.215-25-25s11.215-25,25-25 c13.785,0,25,11.215,25,25S258.785,190,245,190z"></path></a></g></svg></svg></svg>