<svg version="1.1" xmlns="http://www.w3.org/2000/svg" xmlns:xlink="http://www.w3.org/1999/xlink" fill="transparent" x="0" y="0" width="350" height="350" preserveAspectRatio="xMinYMin slice"><style type="text/css">.links{fill:transparent;stroke: #E4CF37;}.links:hover{fill:#63D272; opacity:0.4;}</style><defs><g id="allt"><path id="t4016" d="M3861,960 L3850,961 C3839,962 3852,954 3843,951 C3835,949 3849,961 3838,960 L3828,960 3828,960 L3829,969 C3830,979 3823,964 3822,973 C3822,983 3828,974 3828,983 L3828,992 3828,992 L3837,993 C3847,994 3832,987 3842,986 C3852,986 3842,992 3851,992 L3861,992 3861,992 L3861,982 C3861,973 3851,984 3851,975 C3852,967 3862,981 3861,970 L3861,960"/></g><clipPath id="c" clipRule="evenodd" fill="transparent"><use href="#t4016"/></clipPath></defs><svg viewBox="3821 948 42 47" preserveAspectRatio="xMinYMin meet"><svg width="4380" height="2430"><g><image crossorigin="anonymous" x="0" y="0" href="https://nftpuzzle.license-token.com/assets/completepuzzle.svg" width="100%" height="100%" /><g class="links"><use href="#t4016"/></g></g></svg><svg x="3848" y="980" height="9%" width="9%" viewBox="0 0 330 330"><g><a xlink:href="https://nftpuzzle.license-token.com/" class="links"><title>See the most innovative NFT based token software licensing project</title><path fill="#E4CF37" id="more" d="M165,0C74.019,0,0,74.019,0,165s74.019,165,165,165s165-74.019,165-165S255.981,0,165,0z M85,190 c-13.785,0-25-11.215-25-25s11.215-25,25-25s25,11.215,25,25S98.785,190,85,190z M165,190c-13.785,0-25-11.215-25-25 s11.215-25,25-25s25,11.215,25,25S178.785,190,165,190z M245,190c-13.785,0-25-11.215-25-25s11.215-25,25-25 c13.785,0,25,11.215,25,25S258.785,190,245,190z"></path></a></g></svg></svg></svg>