<svg version="1.1" xmlns="http://www.w3.org/2000/svg" xmlns:xlink="http://www.w3.org/1999/xlink" fill="transparent" x="0" y="0" width="350" height="350" preserveAspectRatio="xMinYMin slice"><style type="text/css">.links{fill:transparent;stroke: #E4CF37;}.links:hover{fill:#63D272; opacity:0.4;}</style><defs><g id="allt"><path id="t4017" d="M3894,960 L3883,960 C3872,960 3886,966 3877,965 C3869,965 3883,960 3872,960 L3861,960 3861,960 L3861,970 C3862,981 3852,967 3851,975 C3851,984 3861,973 3861,982 L3861,992 3861,992 L3872,992 C3883,993 3868,984 3876,983 C3885,982 3874,992 3884,992 L3894,992 3894,992 L3896,983 C3898,974 3887,982 3886,974 C3886,967 3896,981 3895,970 L3894,960"/></g><clipPath id="c" clipRule="evenodd" fill="transparent"><use href="#t4017"/></clipPath></defs><svg viewBox="3850 959 49 35" preserveAspectRatio="xMinYMin meet"><svg width="4380" height="2430"><g><image crossorigin="anonymous" x="0" y="0" href="https://nftpuzzle.license-token.com/assets/completepuzzle.svg" width="100%" height="100%" /><g class="links"><use href="#t4017"/></g></g></svg><svg x="3884" y="979" height="9%" width="9%" viewBox="0 0 330 330"><g><a xlink:href="https://nftpuzzle.license-token.com/" class="links"><title>See the most innovative NFT based token software licensing project</title><path fill="#E4CF37" id="more" d="M165,0C74.019,0,0,74.019,0,165s74.019,165,165,165s165-74.019,165-165S255.981,0,165,0z M85,190 c-13.785,0-25-11.215-25-25s11.215-25,25-25s25,11.215,25,25S98.785,190,85,190z M165,190c-13.785,0-25-11.215-25-25 s11.215-25,25-25s25,11.215,25,25S178.785,190,165,190z M245,190c-13.785,0-25-11.215-25-25s11.215-25,25-25 c13.785,0,25,11.215,25,25S258.785,190,245,190z"></path></a></g></svg></svg></svg>