<svg version="1.1" xmlns="http://www.w3.org/2000/svg" xmlns:xlink="http://www.w3.org/1999/xlink" fill="transparent" x="0" y="0" width="350" height="350" preserveAspectRatio="xMinYMin slice"><style type="text/css">.links{fill:transparent;stroke: #E4CF37;}.links:hover{fill:#63D272; opacity:0.4;}</style><defs><g id="allt"><path id="t4018" d="M3927,960 L3917,960 C3907,960 3921,956 3912,955 C3903,954 3912,961 3903,960 L3894,960 3894,960 L3895,970 C3896,981 3886,967 3886,974 C3887,982 3898,974 3896,983 L3894,992 3894,992 L3904,993 C3915,994 3901,984 3909,984 C3917,985 3908,996 3917,994 L3927,992 3927,992 L3927,983 C3927,974 3931,983 3932,974 C3933,966 3926,980 3926,970 L3927,960"/></g><clipPath id="c" clipRule="evenodd" fill="transparent"><use href="#t4018"/></clipPath></defs><svg viewBox="3885 953 49 44" preserveAspectRatio="xMinYMin meet"><svg width="4380" height="2430"><g><image crossorigin="anonymous" x="0" y="0" href="https://nftpuzzle.license-token.com/assets/completepuzzle.svg" width="100%" height="100%" /><g class="links"><use href="#t4018"/></g></g></svg><svg x="3919" y="982" height="9%" width="9%" viewBox="0 0 330 330"><g><a xlink:href="https://nftpuzzle.license-token.com/" class="links"><title>See the most innovative NFT based token software licensing project</title><path fill="#E4CF37" id="more" d="M165,0C74.019,0,0,74.019,0,165s74.019,165,165,165s165-74.019,165-165S255.981,0,165,0z M85,190 c-13.785,0-25-11.215-25-25s11.215-25,25-25s25,11.215,25,25S98.785,190,85,190z M165,190c-13.785,0-25-11.215-25-25 s11.215-25,25-25s25,11.215,25,25S178.785,190,165,190z M245,190c-13.785,0-25-11.215-25-25s11.215-25,25-25 c13.785,0,25,11.215,25,25S258.785,190,245,190z"></path></a></g></svg></svg></svg>