<svg version="1.1" xmlns="http://www.w3.org/2000/svg" xmlns:xlink="http://www.w3.org/1999/xlink" fill="transparent" x="0" y="0" width="350" height="350" preserveAspectRatio="xMinYMin slice"><style type="text/css">.links{fill:transparent;stroke: #E4CF37;}.links:hover{fill:#63D272; opacity:0.4;}</style><defs><g id="allt"><path id="t4023" d="M4092,960 L4082,960 C4072,961 4084,956 4074,956 C4064,957 4079,960 4069,960 L4059,960 4059,960 L4059,969 C4059,978 4068,965 4069,975 C4070,986 4059,972 4059,982 L4059,992 4059,992 L4068,992 C4077,992 4064,1000 4075,1001 C4086,1002 4071,992 4081,992 L4092,992 4092,992 L4091,981 C4091,971 4100,985 4101,977 C4103,969 4091,979 4091,969 L4092,960"/></g><clipPath id="c" clipRule="evenodd" fill="transparent"><use href="#t4023"/></clipPath></defs><svg viewBox="4058 955 46 48" preserveAspectRatio="xMinYMin meet"><svg width="4380" height="2430"><g><image crossorigin="anonymous" x="0" y="0" href="https://nftpuzzle.license-token.com/assets/completepuzzle.svg" width="100%" height="100%" /><g class="links"><use href="#t4023"/></g></g></svg><svg x="4089" y="988" height="9%" width="9%" viewBox="0 0 330 330"><g><a xlink:href="https://nftpuzzle.license-token.com/" class="links"><title>See the most innovative NFT based token software licensing project</title><path fill="#E4CF37" id="more" d="M165,0C74.019,0,0,74.019,0,165s74.019,165,165,165s165-74.019,165-165S255.981,0,165,0z M85,190 c-13.785,0-25-11.215-25-25s11.215-25,25-25s25,11.215,25,25S98.785,190,85,190z M165,190c-13.785,0-25-11.215-25-25 s11.215-25,25-25s25,11.215,25,25S178.785,190,165,190z M245,190c-13.785,0-25-11.215-25-25s11.215-25,25-25 c13.785,0,25,11.215,25,25S258.785,190,245,190z"></path></a></g></svg></svg></svg>