<svg version="1.1" xmlns="http://www.w3.org/2000/svg" xmlns:xlink="http://www.w3.org/1999/xlink" fill="transparent" x="0" y="0" width="350" height="350" preserveAspectRatio="xMinYMin slice"><style type="text/css">.links{fill:transparent;stroke: #E4CF37;}.links:hover{fill:#63D272; opacity:0.4;}</style><defs><g id="allt"><path id="t4032" d="M99,992 L89,992 C80,993 90,984 81,983 C73,982 85,992 75,992 L66,992 66,992 L64,1001 C63,1010 75,1000 76,1007 C77,1015 66,1005 66,1014 L66,1024 66,1024 L75,1022 C85,1021 74,1033 82,1034 C90,1035 79,1024 89,1024 L99,1024 99,1024 L99,1014 C99,1005 103,1018 102,1009 C102,1000 99,1012 99,1002 L99,992"/></g><clipPath id="c" clipRule="evenodd" fill="transparent"><use href="#t4032"/></clipPath></defs><svg viewBox="62 981 42 55" preserveAspectRatio="xMinYMin meet"><svg width="4380" height="2430"><g><image crossorigin="anonymous" x="0" y="0" href="https://nftpuzzle.license-token.com/assets/completepuzzle.svg" width="100%" height="100%" /><g class="links"><use href="#t4032"/></g></g></svg><svg x="89" y="1021" height="9%" width="9%" viewBox="0 0 330 330"><g><a xlink:href="https://nftpuzzle.license-token.com/" class="links"><title>See the most innovative NFT based token software licensing project</title><path fill="#E4CF37" id="more" d="M165,0C74.019,0,0,74.019,0,165s74.019,165,165,165s165-74.019,165-165S255.981,0,165,0z M85,190 c-13.785,0-25-11.215-25-25s11.215-25,25-25s25,11.215,25,25S98.785,190,85,190z M165,190c-13.785,0-25-11.215-25-25 s11.215-25,25-25s25,11.215,25,25S178.785,190,165,190z M245,190c-13.785,0-25-11.215-25-25s11.215-25,25-25 c13.785,0,25,11.215,25,25S258.785,190,245,190z"></path></a></g></svg></svg></svg>