<svg version="1.1" xmlns="http://www.w3.org/2000/svg" xmlns:xlink="http://www.w3.org/1999/xlink" fill="transparent" x="0" y="0" width="350" height="350" preserveAspectRatio="xMinYMin slice"><style type="text/css">.links{fill:transparent;stroke: #E4CF37;}.links:hover{fill:#63D272; opacity:0.4;}</style><defs><g id="allt"><path id="t4035" d="M198,992 L188,993 C178,995 192,986 183,986 C174,987 186,994 175,993 L165,992 165,992 L164,1000 C163,1009 176,1000 173,1008 C170,1016 163,1003 164,1013 L165,1024 165,1024 L174,1023 C183,1022 173,1035 181,1032 C189,1029 176,1022 187,1023 L198,1024 198,1024 L197,1013 C196,1002 207,1016 205,1007 C203,998 198,1010 198,1001 L198,992"/></g><clipPath id="c" clipRule="evenodd" fill="transparent"><use href="#t4035"/></clipPath></defs><svg viewBox="162 985 46 51" preserveAspectRatio="xMinYMin meet"><svg width="4380" height="2430"><g><image crossorigin="anonymous" x="0" y="0" href="https://nftpuzzle.license-token.com/assets/completepuzzle.svg" width="100%" height="100%" /><g class="links"><use href="#t4035"/></g></g></svg><svg x="193" y="1021" height="9%" width="9%" viewBox="0 0 330 330"><g><a xlink:href="https://nftpuzzle.license-token.com/" class="links"><title>See the most innovative NFT based token software licensing project</title><path fill="#E4CF37" id="more" d="M165,0C74.019,0,0,74.019,0,165s74.019,165,165,165s165-74.019,165-165S255.981,0,165,0z M85,190 c-13.785,0-25-11.215-25-25s11.215-25,25-25s25,11.215,25,25S98.785,190,85,190z M165,190c-13.785,0-25-11.215-25-25 s11.215-25,25-25s25,11.215,25,25S178.785,190,165,190z M245,190c-13.785,0-25-11.215-25-25s11.215-25,25-25 c13.785,0,25,11.215,25,25S258.785,190,245,190z"></path></a></g></svg></svg></svg>