<svg version="1.1" xmlns="http://www.w3.org/2000/svg" xmlns:xlink="http://www.w3.org/1999/xlink" fill="transparent" x="0" y="0" width="350" height="350" preserveAspectRatio="xMinYMin slice"><style type="text/css">.links{fill:transparent;stroke: #E4CF37;}.links:hover{fill:#63D272; opacity:0.4;}</style><defs><g id="allt"><path id="t4036" d="M231,992 L220,992 C210,992 225,989 215,988 C205,987 218,992 208,992 L198,992 198,992 L198,1001 C198,1010 203,998 205,1007 C207,1016 196,1002 197,1013 L198,1024 198,1024 L207,1024 C216,1024 204,1029 213,1030 C223,1032 208,1022 219,1023 L231,1024 231,1024 L231,1014 C231,1004 226,1014 225,1006 C225,999 231,1010 231,1001 L231,992"/></g><clipPath id="c" clipRule="evenodd" fill="transparent"><use href="#t4036"/></clipPath></defs><svg viewBox="195 986 37 47" preserveAspectRatio="xMinYMin meet"><svg width="4380" height="2430"><g><image crossorigin="anonymous" x="0" y="0" href="https://nftpuzzle.license-token.com/assets/completepuzzle.svg" width="100%" height="100%" /><g class="links"><use href="#t4036"/></g></g></svg><svg x="217" y="1018" height="9%" width="9%" viewBox="0 0 330 330"><g><a xlink:href="https://nftpuzzle.license-token.com/" class="links"><title>See the most innovative NFT based token software licensing project</title><path fill="#E4CF37" id="more" d="M165,0C74.019,0,0,74.019,0,165s74.019,165,165,165s165-74.019,165-165S255.981,0,165,0z M85,190 c-13.785,0-25-11.215-25-25s11.215-25,25-25s25,11.215,25,25S98.785,190,85,190z M165,190c-13.785,0-25-11.215-25-25 s11.215-25,25-25s25,11.215,25,25S178.785,190,165,190z M245,190c-13.785,0-25-11.215-25-25s11.215-25,25-25 c13.785,0,25,11.215,25,25S258.785,190,245,190z"></path></a></g></svg></svg></svg>