<svg version="1.1" xmlns="http://www.w3.org/2000/svg" xmlns:xlink="http://www.w3.org/1999/xlink" fill="transparent" x="0" y="0" width="350" height="350" preserveAspectRatio="xMinYMin slice"><style type="text/css">.links{fill:transparent;stroke: #E4CF37;}.links:hover{fill:#63D272; opacity:0.4;}</style><defs><g id="allt"><path id="t4040" d="M363,992 L353,992 C343,992 356,989 346,989 C336,989 348,993 339,992 L330,992 330,992 L331,1000 C333,1009 326,999 324,1007 C322,1016 331,1005 330,1014 L330,1024 330,1024 L339,1025 C348,1027 337,1020 346,1018 C355,1016 343,1025 353,1024 L363,1024 363,1024 L363,1014 C364,1005 357,1016 357,1008 C357,1000 363,1011 363,1001 L363,992"/></g><clipPath id="c" clipRule="evenodd" fill="transparent"><use href="#t4040"/></clipPath></defs><svg viewBox="321 988 44 40" preserveAspectRatio="xMinYMin meet"><svg width="4380" height="2430"><g><image crossorigin="anonymous" x="0" y="0" href="https://nftpuzzle.license-token.com/assets/completepuzzle.svg" width="100%" height="100%" /><g class="links"><use href="#t4040"/></g></g></svg><svg x="350" y="1013" height="9%" width="9%" viewBox="0 0 330 330"><g><a xlink:href="https://nftpuzzle.license-token.com/" class="links"><title>See the most innovative NFT based token software licensing project</title><path fill="#E4CF37" id="more" d="M165,0C74.019,0,0,74.019,0,165s74.019,165,165,165s165-74.019,165-165S255.981,0,165,0z M85,190 c-13.785,0-25-11.215-25-25s11.215-25,25-25s25,11.215,25,25S98.785,190,85,190z M165,190c-13.785,0-25-11.215-25-25 s11.215-25,25-25s25,11.215,25,25S178.785,190,165,190z M245,190c-13.785,0-25-11.215-25-25s11.215-25,25-25 c13.785,0,25,11.215,25,25S258.785,190,245,190z"></path></a></g></svg></svg></svg>