<svg version="1.1" xmlns="http://www.w3.org/2000/svg" xmlns:xlink="http://www.w3.org/1999/xlink" fill="transparent" x="0" y="0" width="350" height="350" preserveAspectRatio="xMinYMin slice"><style type="text/css">.links{fill:transparent;stroke: #E4CF37;}.links:hover{fill:#63D272; opacity:0.4;}</style><defs><g id="allt"><path id="t4042" d="M429,992 L419,992 C410,992 419,982 411,982 C403,982 415,992 405,992 L396,992 396,992 L394,1002 C392,1012 404,1000 402,1007 C401,1015 393,1004 394,1014 L396,1024 396,1024 L406,1022 C417,1020 404,1032 412,1030 C420,1029 409,1021 419,1022 L429,1024 429,1024 L428,1013 C427,1002 435,1016 435,1006 C436,996 429,1010 429,1001 L429,992"/></g><clipPath id="c" clipRule="evenodd" fill="transparent"><use href="#t4042"/></clipPath></defs><svg viewBox="391 981 46 52" preserveAspectRatio="xMinYMin meet"><svg width="4380" height="2430"><g><image crossorigin="anonymous" x="0" y="0" href="https://nftpuzzle.license-token.com/assets/completepuzzle.svg" width="100%" height="100%" /><g class="links"><use href="#t4042"/></g></g></svg><svg x="422" y="1018" height="9%" width="9%" viewBox="0 0 330 330"><g><a xlink:href="https://nftpuzzle.license-token.com/" class="links"><title>See the most innovative NFT based token software licensing project</title><path fill="#E4CF37" id="more" d="M165,0C74.019,0,0,74.019,0,165s74.019,165,165,165s165-74.019,165-165S255.981,0,165,0z M85,190 c-13.785,0-25-11.215-25-25s11.215-25,25-25s25,11.215,25,25S98.785,190,85,190z M165,190c-13.785,0-25-11.215-25-25 s11.215-25,25-25s25,11.215,25,25S178.785,190,165,190z M245,190c-13.785,0-25-11.215-25-25s11.215-25,25-25 c13.785,0,25,11.215,25,25S258.785,190,245,190z"></path></a></g></svg></svg></svg>