<svg version="1.1" xmlns="http://www.w3.org/2000/svg" xmlns:xlink="http://www.w3.org/1999/xlink" fill="transparent" x="0" y="0" width="350" height="350" preserveAspectRatio="xMinYMin slice"><style type="text/css">.links{fill:transparent;stroke: #E4CF37;}.links:hover{fill:#63D272; opacity:0.4;}</style><defs><g id="allt"><path id="t4043" d="M462,992 L452,994 C443,996 456,982 446,983 C437,984 451,993 440,992 L429,992 429,992 L429,1001 C429,1010 436,996 435,1006 C435,1016 427,1002 428,1013 L429,1024 429,1024 L438,1024 C448,1024 433,1031 443,1030 C454,1030 439,1022 450,1023 L462,1024 462,1024 L462,1013 C463,1003 459,1017 458,1008 C458,1000 465,1013 463,1002 L462,992"/></g><clipPath id="c" clipRule="evenodd" fill="transparent"><use href="#t4043"/></clipPath></defs><svg viewBox="426 981 40 51" preserveAspectRatio="xMinYMin meet"><svg width="4380" height="2430"><g><image crossorigin="anonymous" x="0" y="0" href="https://nftpuzzle.license-token.com/assets/completepuzzle.svg" width="100%" height="100%" /><g class="links"><use href="#t4043"/></g></g></svg><svg x="451" y="1017" height="9%" width="9%" viewBox="0 0 330 330"><g><a xlink:href="https://nftpuzzle.license-token.com/" class="links"><title>See the most innovative NFT based token software licensing project</title><path fill="#E4CF37" id="more" d="M165,0C74.019,0,0,74.019,0,165s74.019,165,165,165s165-74.019,165-165S255.981,0,165,0z M85,190 c-13.785,0-25-11.215-25-25s11.215-25,25-25s25,11.215,25,25S98.785,190,85,190z M165,190c-13.785,0-25-11.215-25-25 s11.215-25,25-25s25,11.215,25,25S178.785,190,165,190z M245,190c-13.785,0-25-11.215-25-25s11.215-25,25-25 c13.785,0,25,11.215,25,25S258.785,190,245,190z"></path></a></g></svg></svg></svg>