<svg version="1.1" xmlns="http://www.w3.org/2000/svg" xmlns:xlink="http://www.w3.org/1999/xlink" fill="transparent" x="0" y="0" width="350" height="350" preserveAspectRatio="xMinYMin slice"><style type="text/css">.links{fill:transparent;stroke: #E4CF37;}.links:hover{fill:#63D272; opacity:0.4;}</style><defs><g id="allt"><path id="t4051" d="M726,992 L714,990 C703,989 718,996 709,998 C700,1001 714,992 703,992 L693,992 693,992 L693,1001 C693,1010 691,997 690,1007 C689,1018 693,1002 693,1013 L693,1024 693,1024 L702,1024 C712,1024 698,1022 709,1021 C720,1020 704,1024 715,1024 L726,1024 726,1024 L724,1013 C723,1002 738,1015 737,1007 C737,999 723,1011 724,1001 L726,992"/></g><clipPath id="c" clipRule="evenodd" fill="transparent"><use href="#t4051"/></clipPath></defs><svg viewBox="688 988 51 37" preserveAspectRatio="xMinYMin meet"><svg width="4380" height="2430"><g><image crossorigin="anonymous" x="0" y="0" href="https://nftpuzzle.license-token.com/assets/completepuzzle.svg" width="100%" height="100%" /><g class="links"><use href="#t4051"/></g></g></svg><svg x="724" y="1010" height="9%" width="9%" viewBox="0 0 330 330"><g><a xlink:href="https://nftpuzzle.license-token.com/" class="links"><title>See the most innovative NFT based token software licensing project</title><path fill="#E4CF37" id="more" d="M165,0C74.019,0,0,74.019,0,165s74.019,165,165,165s165-74.019,165-165S255.981,0,165,0z M85,190 c-13.785,0-25-11.215-25-25s11.215-25,25-25s25,11.215,25,25S98.785,190,85,190z M165,190c-13.785,0-25-11.215-25-25 s11.215-25,25-25s25,11.215,25,25S178.785,190,165,190z M245,190c-13.785,0-25-11.215-25-25s11.215-25,25-25 c13.785,0,25,11.215,25,25S258.785,190,245,190z"></path></a></g></svg></svg></svg>