<svg version="1.1" xmlns="http://www.w3.org/2000/svg" xmlns:xlink="http://www.w3.org/1999/xlink" fill="transparent" x="0" y="0" width="350" height="350" preserveAspectRatio="xMinYMin slice"><style type="text/css">.links{fill:transparent;stroke: #E4CF37;}.links:hover{fill:#63D272; opacity:0.4;}</style><defs><g id="allt"><path id="t4061" d="M1056,992 L1046,993 C1037,995 1051,989 1041,988 C1032,987 1044,993 1033,992 L1023,992 1023,992 L1023,1001 C1023,1011 1014,997 1012,1007 C1011,1017 1026,1004 1024,1014 L1023,1024 1023,1024 L1033,1024 C1043,1024 1028,1016 1038,1014 C1049,1012 1035,1027 1045,1025 L1056,1024 1056,1024 L1056,1013 C1056,1003 1061,1017 1063,1006 C1065,996 1054,1012 1055,1002 L1056,992"/></g><clipPath id="c" clipRule="evenodd" fill="transparent"><use href="#t4061"/></clipPath></defs><svg viewBox="1010 986 56 42" preserveAspectRatio="xMinYMin meet"><svg width="4380" height="2430"><g><image crossorigin="anonymous" x="0" y="0" href="https://nftpuzzle.license-token.com/assets/completepuzzle.svg" width="100%" height="100%" /><g class="links"><use href="#t4061"/></g></g></svg><svg x="1051" y="1013" height="9%" width="9%" viewBox="0 0 330 330"><g><a xlink:href="https://nftpuzzle.license-token.com/" class="links"><title>See the most innovative NFT based token software licensing project</title><path fill="#E4CF37" id="more" d="M165,0C74.019,0,0,74.019,0,165s74.019,165,165,165s165-74.019,165-165S255.981,0,165,0z M85,190 c-13.785,0-25-11.215-25-25s11.215-25,25-25s25,11.215,25,25S98.785,190,85,190z M165,190c-13.785,0-25-11.215-25-25 s11.215-25,25-25s25,11.215,25,25S178.785,190,165,190z M245,190c-13.785,0-25-11.215-25-25s11.215-25,25-25 c13.785,0,25,11.215,25,25S258.785,190,245,190z"></path></a></g></svg></svg></svg>