<svg version="1.1" xmlns="http://www.w3.org/2000/svg" xmlns:xlink="http://www.w3.org/1999/xlink" fill="transparent" x="0" y="0" width="350" height="350" preserveAspectRatio="xMinYMin slice"><style type="text/css">.links{fill:transparent;stroke: #E4CF37;}.links:hover{fill:#63D272; opacity:0.4;}</style><defs><g id="allt"><path id="t4064" d="M1155,992 L1144,993 C1134,995 1145,987 1137,985 C1130,984 1143,992 1132,992 L1122,992 1122,992 L1122,1002 C1122,1013 1125,997 1125,1005 C1125,1014 1121,1003 1121,1013 L1122,1024 1122,1024 L1132,1024 C1143,1024 1127,1027 1136,1027 C1145,1027 1134,1023 1144,1023 L1155,1024 1155,1024 L1156,1013 C1157,1003 1149,1016 1149,1007 C1150,999 1155,1010 1155,1001 L1155,992"/></g><clipPath id="c" clipRule="evenodd" fill="transparent"><use href="#t4064"/></clipPath></defs><svg viewBox="1120 983 38 45" preserveAspectRatio="xMinYMin meet"><svg width="4380" height="2430"><g><image crossorigin="anonymous" x="0" y="0" href="https://nftpuzzle.license-token.com/assets/completepuzzle.svg" width="100%" height="100%" /><g class="links"><use href="#t4064"/></g></g></svg><svg x="1143" y="1013" height="9%" width="9%" viewBox="0 0 330 330"><g><a xlink:href="https://nftpuzzle.license-token.com/" class="links"><title>See the most innovative NFT based token software licensing project</title><path fill="#E4CF37" id="more" d="M165,0C74.019,0,0,74.019,0,165s74.019,165,165,165s165-74.019,165-165S255.981,0,165,0z M85,190 c-13.785,0-25-11.215-25-25s11.215-25,25-25s25,11.215,25,25S98.785,190,85,190z M165,190c-13.785,0-25-11.215-25-25 s11.215-25,25-25s25,11.215,25,25S178.785,190,165,190z M245,190c-13.785,0-25-11.215-25-25s11.215-25,25-25 c13.785,0,25,11.215,25,25S258.785,190,245,190z"></path></a></g></svg></svg></svg>