<svg version="1.1" xmlns="http://www.w3.org/2000/svg" xmlns:xlink="http://www.w3.org/1999/xlink" fill="transparent" x="0" y="0" width="350" height="350" preserveAspectRatio="xMinYMin slice"><style type="text/css">.links{fill:transparent;stroke: #E4CF37;}.links:hover{fill:#63D272; opacity:0.4;}</style><defs><g id="allt"><path id="t4065" d="M1188,992 L1178,993 C1169,995 1181,985 1172,986 C1164,987 1176,992 1165,992 L1155,992 1155,992 L1155,1001 C1155,1010 1150,999 1149,1007 C1149,1016 1157,1003 1156,1013 L1155,1024 1155,1024 L1164,1024 C1173,1024 1162,1019 1170,1018 C1179,1018 1166,1026 1177,1025 L1188,1024 1188,1024 L1186,1015 C1185,1006 1196,1018 1195,1009 C1195,1001 1187,1013 1187,1002 L1188,992"/></g><clipPath id="c" clipRule="evenodd" fill="transparent"><use href="#t4065"/></clipPath></defs><svg viewBox="1148 984 49 43" preserveAspectRatio="xMinYMin meet"><svg width="4380" height="2430"><g><image crossorigin="anonymous" x="0" y="0" href="https://nftpuzzle.license-token.com/assets/completepuzzle.svg" width="100%" height="100%" /><g class="links"><use href="#t4065"/></g></g></svg><svg x="1182" y="1012" height="9%" width="9%" viewBox="0 0 330 330"><g><a xlink:href="https://nftpuzzle.license-token.com/" class="links"><title>See the most innovative NFT based token software licensing project</title><path fill="#E4CF37" id="more" d="M165,0C74.019,0,0,74.019,0,165s74.019,165,165,165s165-74.019,165-165S255.981,0,165,0z M85,190 c-13.785,0-25-11.215-25-25s11.215-25,25-25s25,11.215,25,25S98.785,190,85,190z M165,190c-13.785,0-25-11.215-25-25 s11.215-25,25-25s25,11.215,25,25S178.785,190,165,190z M245,190c-13.785,0-25-11.215-25-25s11.215-25,25-25 c13.785,0,25,11.215,25,25S258.785,190,245,190z"></path></a></g></svg></svg></svg>