<svg version="1.1" xmlns="http://www.w3.org/2000/svg" xmlns:xlink="http://www.w3.org/1999/xlink" fill="transparent" x="0" y="0" width="350" height="350" preserveAspectRatio="xMinYMin slice"><style type="text/css">.links{fill:transparent;stroke: #E4CF37;}.links:hover{fill:#63D272; opacity:0.4;}</style><defs><g id="allt"><path id="t4095" d="M2178,992 L2168,992 C2158,992 2169,996 2159,996 C2149,997 2165,992 2155,992 L2145,992 2145,992 L2145,1002 C2145,1012 2142,997 2142,1007 C2142,1017 2145,1005 2145,1014 L2145,1024 2145,1024 L2155,1024 C2166,1024 2150,1021 2160,1021 C2171,1021 2158,1024 2168,1024 L2178,1024 2178,1024 L2178,1013 C2178,1003 2174,1016 2173,1007 C2173,999 2178,1010 2178,1001 L2178,992"/></g><clipPath id="c" clipRule="evenodd" fill="transparent"><use href="#t4095"/></clipPath></defs><svg viewBox="2141 991 38 34" preserveAspectRatio="xMinYMin meet"><svg width="4380" height="2430"><g><image crossorigin="anonymous" x="0" y="0" href="https://nftpuzzle.license-token.com/assets/completepuzzle.svg" width="100%" height="100%" /><g class="links"><use href="#t4095"/></g></g></svg><svg x="2164" y="1010" height="9%" width="9%" viewBox="0 0 330 330"><g><a xlink:href="https://nftpuzzle.license-token.com/" class="links"><title>See the most innovative NFT based token software licensing project</title><path fill="#E4CF37" id="more" d="M165,0C74.019,0,0,74.019,0,165s74.019,165,165,165s165-74.019,165-165S255.981,0,165,0z M85,190 c-13.785,0-25-11.215-25-25s11.215-25,25-25s25,11.215,25,25S98.785,190,85,190z M165,190c-13.785,0-25-11.215-25-25 s11.215-25,25-25s25,11.215,25,25S178.785,190,165,190z M245,190c-13.785,0-25-11.215-25-25s11.215-25,25-25 c13.785,0,25,11.215,25,25S258.785,190,245,190z"></path></a></g></svg></svg></svg>