<svg version="1.1" xmlns="http://www.w3.org/2000/svg" xmlns:xlink="http://www.w3.org/1999/xlink" fill="transparent" x="0" y="0" width="350" height="350" preserveAspectRatio="xMinYMin slice"><style type="text/css">.links{fill:transparent;stroke: #E4CF37;}.links:hover{fill:#63D272; opacity:0.4;}</style><defs><g id="allt"><path id="t4100" d="M2343,992 L2332,993 C2321,994 2335,987 2326,986 C2317,985 2332,992 2321,992 L2310,992 2310,992 L2311,1002 C2312,1013 2301,1000 2303,1007 C2306,1015 2313,1004 2311,1014 L2310,1024 2310,1024 L2321,1025 C2332,1026 2318,1016 2326,1018 C2334,1020 2322,1027 2332,1025 L2343,1024 2343,1024 L2345,1014 C2347,1005 2334,1015 2336,1007 C2338,999 2343,1010 2343,1001 L2343,992"/></g><clipPath id="c" clipRule="evenodd" fill="transparent"><use href="#t4100"/></clipPath></defs><svg viewBox="2300 984 48 44" preserveAspectRatio="xMinYMin meet"><svg width="4380" height="2430"><g><image crossorigin="anonymous" x="0" y="0" href="https://nftpuzzle.license-token.com/assets/completepuzzle.svg" width="100%" height="100%" /><g class="links"><use href="#t4100"/></g></g></svg><svg x="2333" y="1013" height="9%" width="9%" viewBox="0 0 330 330"><g><a xlink:href="https://nftpuzzle.license-token.com/" class="links"><title>See the most innovative NFT based token software licensing project</title><path fill="#E4CF37" id="more" d="M165,0C74.019,0,0,74.019,0,165s74.019,165,165,165s165-74.019,165-165S255.981,0,165,0z M85,190 c-13.785,0-25-11.215-25-25s11.215-25,25-25s25,11.215,25,25S98.785,190,85,190z M165,190c-13.785,0-25-11.215-25-25 s11.215-25,25-25s25,11.215,25,25S178.785,190,165,190z M245,190c-13.785,0-25-11.215-25-25s11.215-25,25-25 c13.785,0,25,11.215,25,25S258.785,190,245,190z"></path></a></g></svg></svg></svg>