<svg version="1.1" xmlns="http://www.w3.org/2000/svg" xmlns:xlink="http://www.w3.org/1999/xlink" fill="transparent" x="0" y="0" width="350" height="350" preserveAspectRatio="xMinYMin slice"><style type="text/css">.links{fill:transparent;stroke: #E4CF37;}.links:hover{fill:#63D272; opacity:0.4;}</style><defs><g id="allt"><path id="t4101" d="M2376,992 L2365,993 C2355,995 2369,984 2358,986 C2348,988 2363,994 2353,993 L2343,992 2343,992 L2343,1001 C2343,1010 2338,999 2336,1007 C2334,1015 2347,1005 2345,1014 L2343,1024 2343,1024 L2352,1024 C2362,1024 2350,1019 2358,1017 C2367,1016 2356,1028 2366,1026 L2376,1024 2376,1024 L2375,1013 C2375,1003 2382,1018 2382,1007 C2383,997 2376,1012 2376,1002 L2376,992"/></g><clipPath id="c" clipRule="evenodd" fill="transparent"><use href="#t4101"/></clipPath></defs><svg viewBox="2333 983 51 46" preserveAspectRatio="xMinYMin meet"><svg width="4380" height="2430"><g><image crossorigin="anonymous" x="0" y="0" href="https://nftpuzzle.license-token.com/assets/completepuzzle.svg" width="100%" height="100%" /><g class="links"><use href="#t4101"/></g></g></svg><svg x="2369" y="1014" height="9%" width="9%" viewBox="0 0 330 330"><g><a xlink:href="https://nftpuzzle.license-token.com/" class="links"><title>See the most innovative NFT based token software licensing project</title><path fill="#E4CF37" id="more" d="M165,0C74.019,0,0,74.019,0,165s74.019,165,165,165s165-74.019,165-165S255.981,0,165,0z M85,190 c-13.785,0-25-11.215-25-25s11.215-25,25-25s25,11.215,25,25S98.785,190,85,190z M165,190c-13.785,0-25-11.215-25-25 s11.215-25,25-25s25,11.215,25,25S178.785,190,165,190z M245,190c-13.785,0-25-11.215-25-25s11.215-25,25-25 c13.785,0,25,11.215,25,25S258.785,190,245,190z"></path></a></g></svg></svg></svg>