<svg version="1.1" xmlns="http://www.w3.org/2000/svg" xmlns:xlink="http://www.w3.org/1999/xlink" fill="transparent" x="0" y="0" width="350" height="350" preserveAspectRatio="xMinYMin slice"><style type="text/css">.links{fill:transparent;stroke: #E4CF37;}.links:hover{fill:#63D272; opacity:0.4;}</style><defs><g id="allt"><path id="t4104" d="M2475,992 L2464,994 C2454,996 2466,985 2457,986 C2448,987 2463,996 2452,994 L2442,992 2442,992 L2442,1002 C2443,1012 2429,999 2429,1007 C2429,1015 2447,1002 2444,1013 L2442,1024 2442,1024 L2452,1024 C2463,1025 2449,1011 2457,1011 C2466,1012 2453,1029 2464,1026 L2475,1024 2475,1024 L2473,1014 C2472,1005 2486,1014 2483,1007 C2480,1000 2475,1011 2475,1001 L2475,992"/></g><clipPath id="c" clipRule="evenodd" fill="transparent"><use href="#t4104"/></clipPath></defs><svg viewBox="2428 984 59 46" preserveAspectRatio="xMinYMin meet"><svg width="4380" height="2430"><g><image crossorigin="anonymous" x="0" y="0" href="https://nftpuzzle.license-token.com/assets/completepuzzle.svg" width="100%" height="100%" /><g class="links"><use href="#t4104"/></g></g></svg><svg x="2472" y="1015" height="9%" width="9%" viewBox="0 0 330 330"><g><a xlink:href="https://nftpuzzle.license-token.com/" class="links"><title>See the most innovative NFT based token software licensing project</title><path fill="#E4CF37" id="more" d="M165,0C74.019,0,0,74.019,0,165s74.019,165,165,165s165-74.019,165-165S255.981,0,165,0z M85,190 c-13.785,0-25-11.215-25-25s11.215-25,25-25s25,11.215,25,25S98.785,190,85,190z M165,190c-13.785,0-25-11.215-25-25 s11.215-25,25-25s25,11.215,25,25S178.785,190,165,190z M245,190c-13.785,0-25-11.215-25-25s11.215-25,25-25 c13.785,0,25,11.215,25,25S258.785,190,245,190z"></path></a></g></svg></svg></svg>