<svg version="1.1" xmlns="http://www.w3.org/2000/svg" xmlns:xlink="http://www.w3.org/1999/xlink" fill="transparent" x="0" y="0" width="350" height="350" preserveAspectRatio="xMinYMin slice"><style type="text/css">.links{fill:transparent;stroke: #E4CF37;}.links:hover{fill:#63D272; opacity:0.4;}</style><defs><g id="allt"><path id="t4109" d="M2640,992 L2628,989 C2617,987 2634,998 2623,999 C2612,1000 2625,988 2616,990 L2607,992 2607,992 L2608,1002 C2610,1013 2602,999 2601,1007 C2600,1016 2608,1002 2607,1013 L2607,1024 2607,1024 L2617,1025 C2628,1027 2614,1019 2623,1018 C2632,1017 2618,1025 2629,1024 L2640,1024 2640,1024 L2638,1014 C2636,1004 2652,1016 2649,1008 C2647,1000 2638,1011 2639,1001 L2640,992"/></g><clipPath id="c" clipRule="evenodd" fill="transparent"><use href="#t4109"/></clipPath></defs><svg viewBox="2599 986 54 42" preserveAspectRatio="xMinYMin meet"><svg width="4380" height="2430"><g><image crossorigin="anonymous" x="0" y="0" href="https://nftpuzzle.license-token.com/assets/completepuzzle.svg" width="100%" height="100%" /><g class="links"><use href="#t4109"/></g></g></svg><svg x="2638" y="1013" height="9%" width="9%" viewBox="0 0 330 330"><g><a xlink:href="https://nftpuzzle.license-token.com/" class="links"><title>See the most innovative NFT based token software licensing project</title><path fill="#E4CF37" id="more" d="M165,0C74.019,0,0,74.019,0,165s74.019,165,165,165s165-74.019,165-165S255.981,0,165,0z M85,190 c-13.785,0-25-11.215-25-25s11.215-25,25-25s25,11.215,25,25S98.785,190,85,190z M165,190c-13.785,0-25-11.215-25-25 s11.215-25,25-25s25,11.215,25,25S178.785,190,165,190z M245,190c-13.785,0-25-11.215-25-25s11.215-25,25-25 c13.785,0,25,11.215,25,25S258.785,190,245,190z"></path></a></g></svg></svg></svg>