<svg version="1.1" xmlns="http://www.w3.org/2000/svg" xmlns:xlink="http://www.w3.org/1999/xlink" fill="transparent" x="0" y="0" width="350" height="350" preserveAspectRatio="xMinYMin slice"><style type="text/css">.links{fill:transparent;stroke: #E4CF37;}.links:hover{fill:#63D272; opacity:0.4;}</style><defs><g id="allt"><path id="t4113" d="M2772,992 L2762,992 C2752,992 2766,999 2756,997 C2747,996 2758,992 2748,992 L2739,992 2739,992 L2739,1002 C2739,1012 2730,1000 2730,1008 C2730,1016 2742,1005 2740,1014 L2739,1024 2739,1024 L2749,1024 C2760,1024 2747,1015 2755,1015 C2764,1015 2752,1027 2762,1025 L2772,1024 2772,1024 L2771,1014 C2771,1004 2777,1019 2779,1008 C2781,998 2772,1012 2772,1002 L2772,992"/></g><clipPath id="c" clipRule="evenodd" fill="transparent"><use href="#t4113"/></clipPath></defs><svg viewBox="2729 991 53 37" preserveAspectRatio="xMinYMin meet"><svg width="4380" height="2430"><g><image crossorigin="anonymous" x="0" y="0" href="https://nftpuzzle.license-token.com/assets/completepuzzle.svg" width="100%" height="100%" /><g class="links"><use href="#t4113"/></g></g></svg><svg x="2767" y="1013" height="9%" width="9%" viewBox="0 0 330 330"><g><a xlink:href="https://nftpuzzle.license-token.com/" class="links"><title>See the most innovative NFT based token software licensing project</title><path fill="#E4CF37" id="more" d="M165,0C74.019,0,0,74.019,0,165s74.019,165,165,165s165-74.019,165-165S255.981,0,165,0z M85,190 c-13.785,0-25-11.215-25-25s11.215-25,25-25s25,11.215,25,25S98.785,190,85,190z M165,190c-13.785,0-25-11.215-25-25 s11.215-25,25-25s25,11.215,25,25S178.785,190,165,190z M245,190c-13.785,0-25-11.215-25-25s11.215-25,25-25 c13.785,0,25,11.215,25,25S258.785,190,245,190z"></path></a></g></svg></svg></svg>