<svg version="1.1" xmlns="http://www.w3.org/2000/svg" xmlns:xlink="http://www.w3.org/1999/xlink" fill="transparent" x="0" y="0" width="350" height="350" preserveAspectRatio="xMinYMin slice"><style type="text/css">.links{fill:transparent;stroke: #E4CF37;}.links:hover{fill:#63D272; opacity:0.4;}</style><defs><g id="allt"><path id="t4116" d="M2871,992 L2861,993 C2851,995 2864,988 2853,986 C2843,985 2857,995 2847,993 L2838,992 2838,992 L2837,1002 C2837,1012 2844,1001 2843,1009 C2843,1018 2836,1003 2837,1013 L2838,1024 2838,1024 L2848,1023 C2859,1023 2847,1030 2856,1029 C2865,1029 2849,1022 2860,1023 L2871,1024 2871,1024 L2871,1013 C2871,1002 2867,1014 2867,1007 C2867,1000 2874,1010 2872,1001 L2871,992"/></g><clipPath id="c" clipRule="evenodd" fill="transparent"><use href="#t4116"/></clipPath></defs><svg viewBox="2835 984 40 47" preserveAspectRatio="xMinYMin meet"><svg width="4380" height="2430"><g><image crossorigin="anonymous" x="0" y="0" href="https://nftpuzzle.license-token.com/assets/completepuzzle.svg" width="100%" height="100%" /><g class="links"><use href="#t4116"/></g></g></svg><svg x="2860" y="1016" height="9%" width="9%" viewBox="0 0 330 330"><g><a xlink:href="https://nftpuzzle.license-token.com/" class="links"><title>See the most innovative NFT based token software licensing project</title><path fill="#E4CF37" id="more" d="M165,0C74.019,0,0,74.019,0,165s74.019,165,165,165s165-74.019,165-165S255.981,0,165,0z M85,190 c-13.785,0-25-11.215-25-25s11.215-25,25-25s25,11.215,25,25S98.785,190,85,190z M165,190c-13.785,0-25-11.215-25-25 s11.215-25,25-25s25,11.215,25,25S178.785,190,165,190z M245,190c-13.785,0-25-11.215-25-25s11.215-25,25-25 c13.785,0,25,11.215,25,25S258.785,190,245,190z"></path></a></g></svg></svg></svg>