<svg version="1.1" xmlns="http://www.w3.org/2000/svg" xmlns:xlink="http://www.w3.org/1999/xlink" fill="transparent" x="0" y="0" width="350" height="350" preserveAspectRatio="xMinYMin slice"><style type="text/css">.links{fill:transparent;stroke: #E4CF37;}.links:hover{fill:#63D272; opacity:0.4;}</style><defs><g id="allt"><path id="t4117" d="M2904,992 L2893,992 C2882,992 2898,1003 2889,1003 C2880,1004 2889,990 2880,991 L2871,992 2871,992 L2872,1001 C2874,1010 2867,1000 2867,1007 C2867,1014 2871,1002 2871,1013 L2871,1024 2871,1024 L2880,1025 C2889,1027 2880,1020 2887,1020 C2894,1020 2882,1024 2893,1024 L2904,1024 2904,1024 L2902,1015 C2901,1006 2911,1018 2909,1007 C2908,997 2900,1011 2902,1001 L2904,992"/></g><clipPath id="c" clipRule="evenodd" fill="transparent"><use href="#t4117"/></clipPath></defs><svg viewBox="2866 989 46 39" preserveAspectRatio="xMinYMin meet"><svg width="4380" height="2430"><g><image crossorigin="anonymous" x="0" y="0" href="https://nftpuzzle.license-token.com/assets/completepuzzle.svg" width="100%" height="100%" /><g class="links"><use href="#t4117"/></g></g></svg><svg x="2897" y="1013" height="9%" width="9%" viewBox="0 0 330 330"><g><a xlink:href="https://nftpuzzle.license-token.com/" class="links"><title>See the most innovative NFT based token software licensing project</title><path fill="#E4CF37" id="more" d="M165,0C74.019,0,0,74.019,0,165s74.019,165,165,165s165-74.019,165-165S255.981,0,165,0z M85,190 c-13.785,0-25-11.215-25-25s11.215-25,25-25s25,11.215,25,25S98.785,190,85,190z M165,190c-13.785,0-25-11.215-25-25 s11.215-25,25-25s25,11.215,25,25S178.785,190,165,190z M245,190c-13.785,0-25-11.215-25-25s11.215-25,25-25 c13.785,0,25,11.215,25,25S258.785,190,245,190z"></path></a></g></svg></svg></svg>