<svg version="1.1" xmlns="http://www.w3.org/2000/svg" xmlns:xlink="http://www.w3.org/1999/xlink" fill="transparent" x="0" y="0" width="350" height="350" preserveAspectRatio="xMinYMin slice"><style type="text/css">.links{fill:transparent;stroke: #E4CF37;}.links:hover{fill:#63D272; opacity:0.4;}</style><defs><g id="allt"><path id="t4121" d="M3036,992 L3025,992 C3014,992 3030,989 3021,988 C3012,988 3024,992 3013,992 L3003,992 3003,992 L3003,1000 C3003,1009 3000,1001 3000,1007 C3000,1014 3003,1003 3003,1013 L3003,1024 3003,1024 L3012,1024 C3021,1024 3012,1021 3019,1021 C3026,1021 3015,1024 3025,1024 L3036,1024 3036,1024 L3036,1013 C3037,1003 3031,1018 3030,1009 C3030,1000 3036,1011 3036,1001 L3036,992"/></g><clipPath id="c" clipRule="evenodd" fill="transparent"><use href="#t4121"/></clipPath></defs><svg viewBox="2999 987 39 38" preserveAspectRatio="xMinYMin meet"><svg width="4380" height="2430"><g><image crossorigin="anonymous" x="0" y="0" href="https://nftpuzzle.license-token.com/assets/completepuzzle.svg" width="100%" height="100%" /><g class="links"><use href="#t4121"/></g></g></svg><svg x="3023" y="1010" height="9%" width="9%" viewBox="0 0 330 330"><g><a xlink:href="https://nftpuzzle.license-token.com/" class="links"><title>See the most innovative NFT based token software licensing project</title><path fill="#E4CF37" id="more" d="M165,0C74.019,0,0,74.019,0,165s74.019,165,165,165s165-74.019,165-165S255.981,0,165,0z M85,190 c-13.785,0-25-11.215-25-25s11.215-25,25-25s25,11.215,25,25S98.785,190,85,190z M165,190c-13.785,0-25-11.215-25-25 s11.215-25,25-25s25,11.215,25,25S178.785,190,165,190z M245,190c-13.785,0-25-11.215-25-25s11.215-25,25-25 c13.785,0,25,11.215,25,25S258.785,190,245,190z"></path></a></g></svg></svg></svg>