<svg version="1.1" xmlns="http://www.w3.org/2000/svg" xmlns:xlink="http://www.w3.org/1999/xlink" fill="transparent" x="0" y="0" width="350" height="350" preserveAspectRatio="xMinYMin slice"><style type="text/css">.links{fill:transparent;stroke: #E4CF37;}.links:hover{fill:#63D272; opacity:0.4;}</style><defs><g id="allt"><path id="t4132" d="M3399,992 L3388,991 C3377,991 3393,1001 3384,999 C3375,997 3386,991 3376,991 L3366,992 3366,992 L3366,1001 C3366,1010 3361,996 3361,1007 C3362,1018 3366,1006 3366,1015 L3366,1024 3366,1024 L3375,1024 C3385,1024 3370,1019 3381,1019 C3393,1020 3380,1024 3389,1024 L3399,1024 3399,1024 L3401,1013 C3404,1003 3387,1015 3387,1005 C3387,996 3402,1012 3400,1002 L3399,992"/></g><clipPath id="c" clipRule="evenodd" fill="transparent"><use href="#t4132"/></clipPath></defs><svg viewBox="3360 990 45 35" preserveAspectRatio="xMinYMin meet"><svg width="4380" height="2430"><g><image crossorigin="anonymous" x="0" y="0" href="https://nftpuzzle.license-token.com/assets/completepuzzle.svg" width="100%" height="100%" /><g class="links"><use href="#t4132"/></g></g></svg><svg x="3390" y="1010" height="9%" width="9%" viewBox="0 0 330 330"><g><a xlink:href="https://nftpuzzle.license-token.com/" class="links"><title>See the most innovative NFT based token software licensing project</title><path fill="#E4CF37" id="more" d="M165,0C74.019,0,0,74.019,0,165s74.019,165,165,165s165-74.019,165-165S255.981,0,165,0z M85,190 c-13.785,0-25-11.215-25-25s11.215-25,25-25s25,11.215,25,25S98.785,190,85,190z M165,190c-13.785,0-25-11.215-25-25 s11.215-25,25-25s25,11.215,25,25S178.785,190,165,190z M245,190c-13.785,0-25-11.215-25-25s11.215-25,25-25 c13.785,0,25,11.215,25,25S258.785,190,245,190z"></path></a></g></svg></svg></svg>