<svg version="1.1" xmlns="http://www.w3.org/2000/svg" xmlns:xlink="http://www.w3.org/1999/xlink" fill="transparent" x="0" y="0" width="350" height="350" preserveAspectRatio="xMinYMin slice"><style type="text/css">.links{fill:transparent;stroke: #E4CF37;}.links:hover{fill:#63D272; opacity:0.4;}</style><defs><g id="allt"><path id="t4138" d="M3597,992 L3587,991 C3578,991 3592,998 3581,998 C3570,999 3583,990 3573,991 L3564,992 3564,992 L3563,1001 C3563,1010 3567,1000 3566,1008 C3566,1016 3562,1005 3563,1014 L3564,1024 3564,1024 L3573,1023 C3583,1023 3572,1027 3580,1026 C3589,1026 3578,1022 3587,1023 L3597,1024 3597,1024 L3597,1014 C3598,1005 3593,1018 3593,1008 C3593,999 3599,1012 3598,1002 L3597,992"/></g><clipPath id="c" clipRule="evenodd" fill="transparent"><use href="#t4138"/></clipPath></defs><svg viewBox="3561 989 39 39" preserveAspectRatio="xMinYMin meet"><svg width="4380" height="2430"><g><image crossorigin="anonymous" x="0" y="0" href="https://nftpuzzle.license-token.com/assets/completepuzzle.svg" width="100%" height="100%" /><g class="links"><use href="#t4138"/></g></g></svg><svg x="3585" y="1013" height="9%" width="9%" viewBox="0 0 330 330"><g><a xlink:href="https://nftpuzzle.license-token.com/" class="links"><title>See the most innovative NFT based token software licensing project</title><path fill="#E4CF37" id="more" d="M165,0C74.019,0,0,74.019,0,165s74.019,165,165,165s165-74.019,165-165S255.981,0,165,0z M85,190 c-13.785,0-25-11.215-25-25s11.215-25,25-25s25,11.215,25,25S98.785,190,85,190z M165,190c-13.785,0-25-11.215-25-25 s11.215-25,25-25s25,11.215,25,25S178.785,190,165,190z M245,190c-13.785,0-25-11.215-25-25s11.215-25,25-25 c13.785,0,25,11.215,25,25S258.785,190,245,190z"></path></a></g></svg></svg></svg>