<svg version="1.1" xmlns="http://www.w3.org/2000/svg" xmlns:xlink="http://www.w3.org/1999/xlink" fill="transparent" x="0" y="0" width="350" height="350" preserveAspectRatio="xMinYMin slice"><style type="text/css">.links{fill:transparent;stroke: #E4CF37;}.links:hover{fill:#63D272; opacity:0.4;}</style><defs><g id="allt"><path id="t4139" d="M3630,992 L3620,992 C3610,992 3623,998 3614,998 C3606,998 3615,992 3606,992 L3597,992 3597,992 L3598,1002 C3599,1012 3593,999 3593,1008 C3593,1018 3598,1005 3597,1014 L3597,1024 3597,1024 L3607,1025 C3618,1026 3604,1020 3614,1020 C3624,1020 3610,1025 3620,1024 L3630,1024 3630,1024 L3630,1014 C3631,1004 3625,1016 3623,1008 C3622,1000 3633,1011 3631,1001 L3630,992"/></g><clipPath id="c" clipRule="evenodd" fill="transparent"><use href="#t4139"/></clipPath></defs><svg viewBox="3592 991 42 36" preserveAspectRatio="xMinYMin meet"><svg width="4380" height="2430"><g><image crossorigin="anonymous" x="0" y="0" href="https://nftpuzzle.license-token.com/assets/completepuzzle.svg" width="100%" height="100%" /><g class="links"><use href="#t4139"/></g></g></svg><svg x="3619" y="1012" height="9%" width="9%" viewBox="0 0 330 330"><g><a xlink:href="https://nftpuzzle.license-token.com/" class="links"><title>See the most innovative NFT based token software licensing project</title><path fill="#E4CF37" id="more" d="M165,0C74.019,0,0,74.019,0,165s74.019,165,165,165s165-74.019,165-165S255.981,0,165,0z M85,190 c-13.785,0-25-11.215-25-25s11.215-25,25-25s25,11.215,25,25S98.785,190,85,190z M165,190c-13.785,0-25-11.215-25-25 s11.215-25,25-25s25,11.215,25,25S178.785,190,165,190z M245,190c-13.785,0-25-11.215-25-25s11.215-25,25-25 c13.785,0,25,11.215,25,25S258.785,190,245,190z"></path></a></g></svg></svg></svg>