<svg version="1.1" xmlns="http://www.w3.org/2000/svg" xmlns:xlink="http://www.w3.org/1999/xlink" fill="transparent" x="0" y="0" width="350" height="350" preserveAspectRatio="xMinYMin slice"><style type="text/css">.links{fill:transparent;stroke: #E4CF37;}.links:hover{fill:#63D272; opacity:0.4;}</style><defs><g id="allt"><path id="t4144" d="M3795,992 L3784,993 C3774,994 3787,989 3779,988 C3771,987 3780,992 3771,992 L3762,992 3762,992 L3763,1001 C3764,1010 3756,997 3755,1006 C3755,1016 3763,1005 3762,1014 L3762,1024 3762,1024 L3771,1025 C3781,1026 3767,1018 3777,1017 C3787,1017 3775,1025 3785,1024 L3795,1024 3795,1024 L3795,1013 C3795,1002 3799,1015 3799,1007 C3799,999 3795,1013 3795,1002 L3795,992"/></g><clipPath id="c" clipRule="evenodd" fill="transparent"><use href="#t4144"/></clipPath></defs><svg viewBox="3754 986 46 41" preserveAspectRatio="xMinYMin meet"><svg width="4380" height="2430"><g><image crossorigin="anonymous" x="0" y="0" href="https://nftpuzzle.license-token.com/assets/completepuzzle.svg" width="100%" height="100%" /><g class="links"><use href="#t4144"/></g></g></svg><svg x="3785" y="1012" height="9%" width="9%" viewBox="0 0 330 330"><g><a xlink:href="https://nftpuzzle.license-token.com/" class="links"><title>See the most innovative NFT based token software licensing project</title><path fill="#E4CF37" id="more" d="M165,0C74.019,0,0,74.019,0,165s74.019,165,165,165s165-74.019,165-165S255.981,0,165,0z M85,190 c-13.785,0-25-11.215-25-25s11.215-25,25-25s25,11.215,25,25S98.785,190,85,190z M165,190c-13.785,0-25-11.215-25-25 s11.215-25,25-25s25,11.215,25,25S178.785,190,165,190z M245,190c-13.785,0-25-11.215-25-25s11.215-25,25-25 c13.785,0,25,11.215,25,25S258.785,190,245,190z"></path></a></g></svg></svg></svg>