<svg version="1.1" xmlns="http://www.w3.org/2000/svg" xmlns:xlink="http://www.w3.org/1999/xlink" fill="transparent" x="0" y="0" width="350" height="350" preserveAspectRatio="xMinYMin slice"><style type="text/css">.links{fill:transparent;stroke: #E4CF37;}.links:hover{fill:#63D272; opacity:0.4;}</style><defs><g id="allt"><path id="t4149" d="M3960,992 L3950,992 C3941,992 3951,996 3942,997 C3933,998 3947,991 3937,991 L3927,992 3927,992 L3927,1001 C3927,1010 3933,997 3933,1006 C3934,1016 3924,1003 3925,1013 L3927,1024 3927,1024 L3936,1024 C3946,1024 3932,1030 3942,1030 C3952,1031 3938,1021 3949,1022 L3960,1024 3960,1024 L3960,1014 C3960,1004 3963,1016 3962,1006 C3962,996 3960,1012 3960,1002 L3960,992"/></g><clipPath id="c" clipRule="evenodd" fill="transparent"><use href="#t4149"/></clipPath></defs><svg viewBox="3923 990 41 42" preserveAspectRatio="xMinYMin meet"><svg width="4380" height="2430"><g><image crossorigin="anonymous" x="0" y="0" href="https://nftpuzzle.license-token.com/assets/completepuzzle.svg" width="100%" height="100%" /><g class="links"><use href="#t4149"/></g></g></svg><svg x="3949" y="1017" height="9%" width="9%" viewBox="0 0 330 330"><g><a xlink:href="https://nftpuzzle.license-token.com/" class="links"><title>See the most innovative NFT based token software licensing project</title><path fill="#E4CF37" id="more" d="M165,0C74.019,0,0,74.019,0,165s74.019,165,165,165s165-74.019,165-165S255.981,0,165,0z M85,190 c-13.785,0-25-11.215-25-25s11.215-25,25-25s25,11.215,25,25S98.785,190,85,190z M165,190c-13.785,0-25-11.215-25-25 s11.215-25,25-25s25,11.215,25,25S178.785,190,165,190z M245,190c-13.785,0-25-11.215-25-25s11.215-25,25-25 c13.785,0,25,11.215,25,25S258.785,190,245,190z"></path></a></g></svg></svg></svg>