<svg version="1.1" xmlns="http://www.w3.org/2000/svg" xmlns:xlink="http://www.w3.org/1999/xlink" fill="transparent" x="0" y="0" width="350" height="350" preserveAspectRatio="xMinYMin slice"><style type="text/css">.links{fill:transparent;stroke: #E4CF37;}.links:hover{fill:#63D272; opacity:0.4;}</style><defs><g id="allt"><path id="t4152" d="M4059,992 L4049,992 C4040,992 4053,988 4043,989 C4033,990 4045,994 4035,993 L4026,992 4026,992 L4026,1001 C4027,1011 4022,999 4022,1008 C4023,1017 4026,1005 4026,1014 L4026,1024 4026,1024 L4035,1024 C4045,1025 4033,1020 4042,1020 C4052,1021 4040,1024 4049,1024 L4059,1024 4059,1024 L4061,1013 C4063,1002 4051,1018 4051,1008 C4051,998 4060,1010 4059,1001 L4059,992"/></g><clipPath id="c" clipRule="evenodd" fill="transparent"><use href="#t4152"/></clipPath></defs><svg viewBox="4021 987 43 39" preserveAspectRatio="xMinYMin meet"><svg width="4380" height="2430"><g><image crossorigin="anonymous" x="0" y="0" href="https://nftpuzzle.license-token.com/assets/completepuzzle.svg" width="100%" height="100%" /><g class="links"><use href="#t4152"/></g></g></svg><svg x="4049" y="1011" height="9%" width="9%" viewBox="0 0 330 330"><g><a xlink:href="https://nftpuzzle.license-token.com/" class="links"><title>See the most innovative NFT based token software licensing project</title><path fill="#E4CF37" id="more" d="M165,0C74.019,0,0,74.019,0,165s74.019,165,165,165s165-74.019,165-165S255.981,0,165,0z M85,190 c-13.785,0-25-11.215-25-25s11.215-25,25-25s25,11.215,25,25S98.785,190,85,190z M165,190c-13.785,0-25-11.215-25-25 s11.215-25,25-25s25,11.215,25,25S178.785,190,165,190z M245,190c-13.785,0-25-11.215-25-25s11.215-25,25-25 c13.785,0,25,11.215,25,25S258.785,190,245,190z"></path></a></g></svg></svg></svg>