<svg version="1.1" xmlns="http://www.w3.org/2000/svg" xmlns:xlink="http://www.w3.org/1999/xlink" fill="transparent" x="0" y="0" width="350" height="350" preserveAspectRatio="xMinYMin slice"><style type="text/css">.links{fill:transparent;stroke: #E4CF37;}.links:hover{fill:#63D272; opacity:0.4;}</style><defs><g id="allt"><path id="t4153" d="M4092,992 L4081,992 C4071,992 4086,1002 4075,1001 C4064,1000 4077,992 4068,992 L4059,992 4059,992 L4059,1001 C4060,1010 4051,998 4051,1008 C4051,1018 4063,1002 4061,1013 L4059,1024 4059,1024 L4068,1024 C4078,1025 4065,1016 4075,1016 C4086,1016 4069,1028 4080,1026 L4092,1024 4092,1024 L4090,1015 C4089,1006 4098,1016 4099,1007 C4101,998 4092,1010 4092,1001 L4092,992"/></g><clipPath id="c" clipRule="evenodd" fill="transparent"><use href="#t4153"/></clipPath></defs><svg viewBox="4050 991 52 38" preserveAspectRatio="xMinYMin meet"><svg width="4380" height="2430"><g><image crossorigin="anonymous" x="0" y="0" href="https://nftpuzzle.license-token.com/assets/completepuzzle.svg" width="100%" height="100%" /><g class="links"><use href="#t4153"/></g></g></svg><svg x="4087" y="1014" height="9%" width="9%" viewBox="0 0 330 330"><g><a xlink:href="https://nftpuzzle.license-token.com/" class="links"><title>See the most innovative NFT based token software licensing project</title><path fill="#E4CF37" id="more" d="M165,0C74.019,0,0,74.019,0,165s74.019,165,165,165s165-74.019,165-165S255.981,0,165,0z M85,190 c-13.785,0-25-11.215-25-25s11.215-25,25-25s25,11.215,25,25S98.785,190,85,190z M165,190c-13.785,0-25-11.215-25-25 s11.215-25,25-25s25,11.215,25,25S178.785,190,165,190z M245,190c-13.785,0-25-11.215-25-25s11.215-25,25-25 c13.785,0,25,11.215,25,25S258.785,190,245,190z"></path></a></g></svg></svg></svg>