<svg version="1.1" xmlns="http://www.w3.org/2000/svg" xmlns:xlink="http://www.w3.org/1999/xlink" fill="transparent" x="0" y="0" width="350" height="350" preserveAspectRatio="xMinYMin slice"><style type="text/css">.links{fill:transparent;stroke: #E4CF37;}.links:hover{fill:#63D272; opacity:0.4;}</style><defs><g id="allt"><path id="t4154" d="M4125,992 L4114,991 C4103,991 4118,1000 4109,1001 C4101,1003 4112,991 4102,991 L4092,992 4092,992 L4092,1001 C4092,1010 4101,998 4099,1007 C4098,1016 4089,1006 4090,1015 L4092,1024 4092,1024 L4101,1024 C4110,1024 4098,1032 4107,1031 C4117,1030 4106,1021 4115,1022 L4125,1024 4125,1024 L4125,1013 C4125,1003 4117,1015 4115,1005 C4113,996 4124,1011 4124,1001 L4125,992"/></g><clipPath id="c" clipRule="evenodd" fill="transparent"><use href="#t4154"/></clipPath></defs><svg viewBox="4088 990 38 43" preserveAspectRatio="xMinYMin meet"><svg width="4380" height="2430"><g><image crossorigin="anonymous" x="0" y="0" href="https://nftpuzzle.license-token.com/assets/completepuzzle.svg" width="100%" height="100%" /><g class="links"><use href="#t4154"/></g></g></svg><svg x="4111" y="1018" height="9%" width="9%" viewBox="0 0 330 330"><g><a xlink:href="https://nftpuzzle.license-token.com/" class="links"><title>See the most innovative NFT based token software licensing project</title><path fill="#E4CF37" id="more" d="M165,0C74.019,0,0,74.019,0,165s74.019,165,165,165s165-74.019,165-165S255.981,0,165,0z M85,190 c-13.785,0-25-11.215-25-25s11.215-25,25-25s25,11.215,25,25S98.785,190,85,190z M165,190c-13.785,0-25-11.215-25-25 s11.215-25,25-25s25,11.215,25,25S178.785,190,165,190z M245,190c-13.785,0-25-11.215-25-25s11.215-25,25-25 c13.785,0,25,11.215,25,25S258.785,190,245,190z"></path></a></g></svg></svg></svg>