<svg version="1.1" xmlns="http://www.w3.org/2000/svg" xmlns:xlink="http://www.w3.org/1999/xlink" fill="transparent" x="0" y="0" width="350" height="350" preserveAspectRatio="xMinYMin slice"><style type="text/css">.links{fill:transparent;stroke: #E4CF37;}.links:hover{fill:#63D272; opacity:0.4;}</style><defs><g id="allt"><path id="t4156" d="M4191,992 L4180,992 C4170,992 4181,982 4173,981 C4165,981 4177,992 4167,992 L4158,992 4158,992 L4158,1001 C4159,1010 4151,999 4151,1008 C4152,1017 4162,1005 4160,1014 L4158,1024 4158,1024 L4167,1024 C4177,1025 4165,1017 4174,1017 C4184,1018 4172,1028 4181,1026 L4191,1024 4191,1024 L4191,1014 C4192,1004 4183,1018 4182,1009 C4182,1000 4191,1010 4191,1001 L4191,992"/></g><clipPath id="c" clipRule="evenodd" fill="transparent"><use href="#t4156"/></clipPath></defs><svg viewBox="4150 980 43 49" preserveAspectRatio="xMinYMin meet"><svg width="4380" height="2430"><g><image crossorigin="anonymous" x="0" y="0" href="https://nftpuzzle.license-token.com/assets/completepuzzle.svg" width="100%" height="100%" /><g class="links"><use href="#t4156"/></g></g></svg><svg x="4178" y="1014" height="9%" width="9%" viewBox="0 0 330 330"><g><a xlink:href="https://nftpuzzle.license-token.com/" class="links"><title>See the most innovative NFT based token software licensing project</title><path fill="#E4CF37" id="more" d="M165,0C74.019,0,0,74.019,0,165s74.019,165,165,165s165-74.019,165-165S255.981,0,165,0z M85,190 c-13.785,0-25-11.215-25-25s11.215-25,25-25s25,11.215,25,25S98.785,190,85,190z M165,190c-13.785,0-25-11.215-25-25 s11.215-25,25-25s25,11.215,25,25S178.785,190,165,190z M245,190c-13.785,0-25-11.215-25-25s11.215-25,25-25 c13.785,0,25,11.215,25,25S258.785,190,245,190z"></path></a></g></svg></svg></svg>