<svg version="1.1" xmlns="http://www.w3.org/2000/svg" xmlns:xlink="http://www.w3.org/1999/xlink" fill="transparent" x="0" y="0" width="350" height="350" preserveAspectRatio="xMinYMin slice"><style type="text/css">.links{fill:transparent;stroke: #E4CF37;}.links:hover{fill:#63D272; opacity:0.4;}</style><defs><g id="allt"><path id="t4161" d="M66,1024 L55,1024 C44,1024 59,1028 50,1028 C41,1028 52,1023 42,1023 L33,1024 33,1024 L33,1033 C33,1042 26,1033 27,1040 C29,1048 35,1037 34,1046 L33,1056 33,1056 L42,1056 C52,1056 42,1049 50,1050 C58,1052 46,1058 56,1057 L66,1056 66,1056 L66,1045 C66,1034 64,1048 63,1040 C63,1033 66,1041 66,1032 L66,1024"/></g><clipPath id="c" clipRule="evenodd" fill="transparent"><use href="#t4161"/></clipPath></defs><svg viewBox="25 1022 42 37" preserveAspectRatio="xMinYMin meet"><svg width="4380" height="2430"><g><image crossorigin="anonymous" x="0" y="0" href="https://nftpuzzle.license-token.com/assets/completepuzzle.svg" width="100%" height="100%" /><g class="links"><use href="#t4161"/></g></g></svg><svg x="52" y="1044" height="9%" width="9%" viewBox="0 0 330 330"><g><a xlink:href="https://nftpuzzle.license-token.com/" class="links"><title>See the most innovative NFT based token software licensing project</title><path fill="#E4CF37" id="more" d="M165,0C74.019,0,0,74.019,0,165s74.019,165,165,165s165-74.019,165-165S255.981,0,165,0z M85,190 c-13.785,0-25-11.215-25-25s11.215-25,25-25s25,11.215,25,25S98.785,190,85,190z M165,190c-13.785,0-25-11.215-25-25 s11.215-25,25-25s25,11.215,25,25S178.785,190,165,190z M245,190c-13.785,0-25-11.215-25-25s11.215-25,25-25 c13.785,0,25,11.215,25,25S258.785,190,245,190z"></path></a></g></svg></svg></svg>