<svg version="1.1" xmlns="http://www.w3.org/2000/svg" xmlns:xlink="http://www.w3.org/1999/xlink" fill="transparent" x="0" y="0" width="350" height="350" preserveAspectRatio="xMinYMin slice"><style type="text/css">.links{fill:transparent;stroke: #E4CF37;}.links:hover{fill:#63D272; opacity:0.4;}</style><defs><g id="allt"><path id="t4166" d="M231,1024 L219,1023 C208,1022 223,1032 213,1030 C204,1029 216,1024 207,1024 L198,1024 198,1024 L198,1034 C198,1044 206,1032 205,1039 C205,1046 198,1038 198,1047 L198,1056 198,1056 L208,1056 C219,1056 206,1064 213,1063 C221,1063 212,1056 221,1056 L231,1056 231,1056 L231,1046 C231,1036 226,1048 227,1038 C228,1028 232,1044 231,1034 L231,1024"/></g><clipPath id="c" clipRule="evenodd" fill="transparent"><use href="#t4166"/></clipPath></defs><svg viewBox="197 1021 36 44" preserveAspectRatio="xMinYMin meet"><svg width="4380" height="2430"><g><image crossorigin="anonymous" x="0" y="0" href="https://nftpuzzle.license-token.com/assets/completepuzzle.svg" width="100%" height="100%" /><g class="links"><use href="#t4166"/></g></g></svg><svg x="218" y="1050" height="9%" width="9%" viewBox="0 0 330 330"><g><a xlink:href="https://nftpuzzle.license-token.com/" class="links"><title>See the most innovative NFT based token software licensing project</title><path fill="#E4CF37" id="more" d="M165,0C74.019,0,0,74.019,0,165s74.019,165,165,165s165-74.019,165-165S255.981,0,165,0z M85,190 c-13.785,0-25-11.215-25-25s11.215-25,25-25s25,11.215,25,25S98.785,190,85,190z M165,190c-13.785,0-25-11.215-25-25 s11.215-25,25-25s25,11.215,25,25S178.785,190,165,190z M245,190c-13.785,0-25-11.215-25-25s11.215-25,25-25 c13.785,0,25,11.215,25,25S258.785,190,245,190z"></path></a></g></svg></svg></svg>