<svg version="1.1" xmlns="http://www.w3.org/2000/svg" xmlns:xlink="http://www.w3.org/1999/xlink" fill="transparent" x="0" y="0" width="350" height="350" preserveAspectRatio="xMinYMin slice"><style type="text/css">.links{fill:transparent;stroke: #E4CF37;}.links:hover{fill:#63D272; opacity:0.4;}</style><defs><g id="allt"><path id="t4172" d="M429,1024 L419,1022 C409,1021 420,1029 412,1030 C404,1032 417,1020 406,1022 L396,1024 396,1024 L397,1034 C399,1044 391,1030 389,1038 C387,1046 396,1036 396,1046 L396,1056 396,1056 L406,1057 C417,1059 402,1051 410,1049 C419,1048 408,1056 418,1056 L429,1056 429,1056 L429,1045 C430,1034 425,1049 425,1039 C426,1030 429,1041 429,1032 L429,1024"/></g><clipPath id="c" clipRule="evenodd" fill="transparent"><use href="#t4172"/></clipPath></defs><svg viewBox="386 1019 45 41" preserveAspectRatio="xMinYMin meet"><svg width="4380" height="2430"><g><image crossorigin="anonymous" x="0" y="0" href="https://nftpuzzle.license-token.com/assets/completepuzzle.svg" width="100%" height="100%" /><g class="links"><use href="#t4172"/></g></g></svg><svg x="416" y="1045" height="9%" width="9%" viewBox="0 0 330 330"><g><a xlink:href="https://nftpuzzle.license-token.com/" class="links"><title>See the most innovative NFT based token software licensing project</title><path fill="#E4CF37" id="more" d="M165,0C74.019,0,0,74.019,0,165s74.019,165,165,165s165-74.019,165-165S255.981,0,165,0z M85,190 c-13.785,0-25-11.215-25-25s11.215-25,25-25s25,11.215,25,25S98.785,190,85,190z M165,190c-13.785,0-25-11.215-25-25 s11.215-25,25-25s25,11.215,25,25S178.785,190,165,190z M245,190c-13.785,0-25-11.215-25-25s11.215-25,25-25 c13.785,0,25,11.215,25,25S258.785,190,245,190z"></path></a></g></svg></svg></svg>