<svg version="1.1" xmlns="http://www.w3.org/2000/svg" xmlns:xlink="http://www.w3.org/1999/xlink" fill="transparent" x="0" y="0" width="350" height="350" preserveAspectRatio="xMinYMin slice"><style type="text/css">.links{fill:transparent;stroke: #E4CF37;}.links:hover{fill:#63D272; opacity:0.4;}</style><defs><g id="allt"><path id="t4173" d="M462,1024 L450,1023 C439,1022 454,1030 443,1030 C433,1031 448,1024 438,1024 L429,1024 429,1024 L429,1032 C429,1041 426,1030 425,1039 C425,1049 430,1034 429,1045 L429,1056 429,1056 L438,1056 C447,1056 435,1053 445,1052 C455,1052 440,1057 451,1056 L462,1056 462,1056 L463,1046 C465,1037 457,1048 456,1040 C455,1032 463,1041 462,1032 L462,1024"/></g><clipPath id="c" clipRule="evenodd" fill="transparent"><use href="#t4173"/></clipPath></defs><svg viewBox="424 1021 42 37" preserveAspectRatio="xMinYMin meet"><svg width="4380" height="2430"><g><image crossorigin="anonymous" x="0" y="0" href="https://nftpuzzle.license-token.com/assets/completepuzzle.svg" width="100%" height="100%" /><g class="links"><use href="#t4173"/></g></g></svg><svg x="451" y="1043" height="9%" width="9%" viewBox="0 0 330 330"><g><a xlink:href="https://nftpuzzle.license-token.com/" class="links"><title>See the most innovative NFT based token software licensing project</title><path fill="#E4CF37" id="more" d="M165,0C74.019,0,0,74.019,0,165s74.019,165,165,165s165-74.019,165-165S255.981,0,165,0z M85,190 c-13.785,0-25-11.215-25-25s11.215-25,25-25s25,11.215,25,25S98.785,190,85,190z M165,190c-13.785,0-25-11.215-25-25 s11.215-25,25-25s25,11.215,25,25S178.785,190,165,190z M245,190c-13.785,0-25-11.215-25-25s11.215-25,25-25 c13.785,0,25,11.215,25,25S258.785,190,245,190z"></path></a></g></svg></svg></svg>