<svg version="1.1" xmlns="http://www.w3.org/2000/svg" xmlns:xlink="http://www.w3.org/1999/xlink" fill="transparent" x="0" y="0" width="350" height="350" preserveAspectRatio="xMinYMin slice"><style type="text/css">.links{fill:transparent;stroke: #E4CF37;}.links:hover{fill:#63D272; opacity:0.4;}</style><defs><g id="allt"><path id="t4176" d="M561,1024 L551,1024 C541,1024 551,1032 542,1030 C533,1029 548,1022 538,1023 L528,1024 528,1024 L530,1034 C533,1045 523,1029 523,1038 C523,1048 528,1036 528,1046 L528,1056 528,1056 L539,1058 C550,1061 533,1051 543,1051 C553,1051 540,1056 550,1056 L561,1056 561,1056 L561,1045 C561,1035 558,1050 557,1040 C557,1030 561,1045 561,1034 L561,1024"/></g><clipPath id="c" clipRule="evenodd" fill="transparent"><use href="#t4176"/></clipPath></defs><svg viewBox="522 1021 40 41" preserveAspectRatio="xMinYMin meet"><svg width="4380" height="2430"><g><image crossorigin="anonymous" x="0" y="0" href="https://nftpuzzle.license-token.com/assets/completepuzzle.svg" width="100%" height="100%" /><g class="links"><use href="#t4176"/></g></g></svg><svg x="547" y="1047" height="9%" width="9%" viewBox="0 0 330 330"><g><a xlink:href="https://nftpuzzle.license-token.com/" class="links"><title>See the most innovative NFT based token software licensing project</title><path fill="#E4CF37" id="more" d="M165,0C74.019,0,0,74.019,0,165s74.019,165,165,165s165-74.019,165-165S255.981,0,165,0z M85,190 c-13.785,0-25-11.215-25-25s11.215-25,25-25s25,11.215,25,25S98.785,190,85,190z M165,190c-13.785,0-25-11.215-25-25 s11.215-25,25-25s25,11.215,25,25S178.785,190,165,190z M245,190c-13.785,0-25-11.215-25-25s11.215-25,25-25 c13.785,0,25,11.215,25,25S258.785,190,245,190z"></path></a></g></svg></svg></svg>