<svg version="1.1" xmlns="http://www.w3.org/2000/svg" xmlns:xlink="http://www.w3.org/1999/xlink" fill="transparent" x="0" y="0" width="350" height="350" preserveAspectRatio="xMinYMin slice"><style type="text/css">.links{fill:transparent;stroke: #E4CF37;}.links:hover{fill:#63D272; opacity:0.4;}</style><defs><g id="allt"><path id="t4181" d="M726,1024 L715,1024 C704,1024 720,1020 709,1021 C698,1022 712,1024 702,1024 L693,1024 693,1024 L693,1033 C693,1042 698,1028 698,1039 C698,1050 693,1035 693,1045 L693,1056 693,1056 L702,1056 C712,1056 697,1061 708,1061 C720,1061 705,1056 715,1056 L726,1056 726,1056 L724,1045 C722,1035 731,1050 731,1040 C732,1031 726,1045 726,1034 L726,1024"/></g><clipPath id="c" clipRule="evenodd" fill="transparent"><use href="#t4181"/></clipPath></defs><svg viewBox="692 1019 41 43" preserveAspectRatio="xMinYMin meet"><svg width="4380" height="2430"><g><image crossorigin="anonymous" x="0" y="0" href="https://nftpuzzle.license-token.com/assets/completepuzzle.svg" width="100%" height="100%" /><g class="links"><use href="#t4181"/></g></g></svg><svg x="718" y="1047" height="9%" width="9%" viewBox="0 0 330 330"><g><a xlink:href="https://nftpuzzle.license-token.com/" class="links"><title>See the most innovative NFT based token software licensing project</title><path fill="#E4CF37" id="more" d="M165,0C74.019,0,0,74.019,0,165s74.019,165,165,165s165-74.019,165-165S255.981,0,165,0z M85,190 c-13.785,0-25-11.215-25-25s11.215-25,25-25s25,11.215,25,25S98.785,190,85,190z M165,190c-13.785,0-25-11.215-25-25 s11.215-25,25-25s25,11.215,25,25S178.785,190,165,190z M245,190c-13.785,0-25-11.215-25-25s11.215-25,25-25 c13.785,0,25,11.215,25,25S258.785,190,245,190z"></path></a></g></svg></svg></svg>