<svg version="1.1" xmlns="http://www.w3.org/2000/svg" xmlns:xlink="http://www.w3.org/1999/xlink" fill="transparent" x="0" y="0" width="350" height="350" preserveAspectRatio="xMinYMin slice"><style type="text/css">.links{fill:transparent;stroke: #E4CF37;}.links:hover{fill:#63D272; opacity:0.4;}</style><defs><g id="allt"><path id="t4186" d="M891,1024 L880,1024 C870,1025 881,1018 872,1019 C864,1021 879,1025 868,1024 L858,1024 858,1024 L860,1032 C863,1041 848,1033 849,1041 C851,1049 858,1035 858,1045 L858,1056 858,1056 L867,1058 C876,1061 867,1047 875,1048 C884,1049 869,1056 880,1056 L891,1056 891,1056 L891,1046 C892,1036 883,1049 883,1039 C883,1030 892,1042 891,1033 L891,1024"/></g><clipPath id="c" clipRule="evenodd" fill="transparent"><use href="#t4186"/></clipPath></defs><svg viewBox="847 1017 46 45" preserveAspectRatio="xMinYMin meet"><svg width="4380" height="2430"><g><image crossorigin="anonymous" x="0" y="0" href="https://nftpuzzle.license-token.com/assets/completepuzzle.svg" width="100%" height="100%" /><g class="links"><use href="#t4186"/></g></g></svg><svg x="878" y="1047" height="9%" width="9%" viewBox="0 0 330 330"><g><a xlink:href="https://nftpuzzle.license-token.com/" class="links"><title>See the most innovative NFT based token software licensing project</title><path fill="#E4CF37" id="more" d="M165,0C74.019,0,0,74.019,0,165s74.019,165,165,165s165-74.019,165-165S255.981,0,165,0z M85,190 c-13.785,0-25-11.215-25-25s11.215-25,25-25s25,11.215,25,25S98.785,190,85,190z M165,190c-13.785,0-25-11.215-25-25 s11.215-25,25-25s25,11.215,25,25S178.785,190,165,190z M245,190c-13.785,0-25-11.215-25-25s11.215-25,25-25 c13.785,0,25,11.215,25,25S258.785,190,245,190z"></path></a></g></svg></svg></svg>