<svg version="1.1" xmlns="http://www.w3.org/2000/svg" xmlns:xlink="http://www.w3.org/1999/xlink" fill="transparent" x="0" y="0" width="350" height="350" preserveAspectRatio="xMinYMin slice"><style type="text/css">.links{fill:transparent;stroke: #E4CF37;}.links:hover{fill:#63D272; opacity:0.4;}</style><defs><g id="allt"><path id="t4187" d="M924,1024 L913,1024 C903,1024 918,1013 907,1013 C896,1013 910,1029 900,1026 L891,1024 891,1024 L891,1033 C892,1042 883,1030 883,1039 C883,1049 892,1036 891,1046 L891,1056 891,1056 L900,1056 C910,1057 897,1048 907,1048 C917,1048 903,1057 913,1056 L924,1056 924,1056 L925,1046 C926,1036 919,1050 918,1040 C917,1030 926,1042 925,1033 L924,1024"/></g><clipPath id="c" clipRule="evenodd" fill="transparent"><use href="#t4187"/></clipPath></defs><svg viewBox="882 1012 45 46" preserveAspectRatio="xMinYMin meet"><svg width="4380" height="2430"><g><image crossorigin="anonymous" x="0" y="0" href="https://nftpuzzle.license-token.com/assets/completepuzzle.svg" width="100%" height="100%" /><g class="links"><use href="#t4187"/></g></g></svg><svg x="912" y="1043" height="9%" width="9%" viewBox="0 0 330 330"><g><a xlink:href="https://nftpuzzle.license-token.com/" class="links"><title>See the most innovative NFT based token software licensing project</title><path fill="#E4CF37" id="more" d="M165,0C74.019,0,0,74.019,0,165s74.019,165,165,165s165-74.019,165-165S255.981,0,165,0z M85,190 c-13.785,0-25-11.215-25-25s11.215-25,25-25s25,11.215,25,25S98.785,190,85,190z M165,190c-13.785,0-25-11.215-25-25 s11.215-25,25-25s25,11.215,25,25S178.785,190,165,190z M245,190c-13.785,0-25-11.215-25-25s11.215-25,25-25 c13.785,0,25,11.215,25,25S258.785,190,245,190z"></path></a></g></svg></svg></svg>