<svg version="1.1" xmlns="http://www.w3.org/2000/svg" xmlns:xlink="http://www.w3.org/1999/xlink" fill="transparent" x="0" y="0" width="350" height="350" preserveAspectRatio="xMinYMin slice"><style type="text/css">.links{fill:transparent;stroke: #E4CF37;}.links:hover{fill:#63D272; opacity:0.4;}</style><defs><g id="allt"><path id="t4189" d="M990,1024 L979,1024 C968,1024 982,1018 974,1019 C966,1021 978,1025 967,1024 L957,1024 957,1024 L958,1032 C960,1041 950,1029 949,1039 C948,1050 958,1037 957,1046 L957,1056 957,1056 L966,1057 C975,1059 962,1049 973,1048 C984,1047 970,1057 980,1056 L990,1056 990,1056 L990,1045 C990,1035 1002,1047 1001,1038 C1001,1029 989,1045 989,1034 L990,1024"/></g><clipPath id="c" clipRule="evenodd" fill="transparent"><use href="#t4189"/></clipPath></defs><svg viewBox="947 1017 56 43" preserveAspectRatio="xMinYMin meet"><svg width="4380" height="2430"><g><image crossorigin="anonymous" x="0" y="0" href="https://nftpuzzle.license-token.com/assets/completepuzzle.svg" width="100%" height="100%" /><g class="links"><use href="#t4189"/></g></g></svg><svg x="988" y="1045" height="9%" width="9%" viewBox="0 0 330 330"><g><a xlink:href="https://nftpuzzle.license-token.com/" class="links"><title>See the most innovative NFT based token software licensing project</title><path fill="#E4CF37" id="more" d="M165,0C74.019,0,0,74.019,0,165s74.019,165,165,165s165-74.019,165-165S255.981,0,165,0z M85,190 c-13.785,0-25-11.215-25-25s11.215-25,25-25s25,11.215,25,25S98.785,190,85,190z M165,190c-13.785,0-25-11.215-25-25 s11.215-25,25-25s25,11.215,25,25S178.785,190,165,190z M245,190c-13.785,0-25-11.215-25-25s11.215-25,25-25 c13.785,0,25,11.215,25,25S258.785,190,245,190z"></path></a></g></svg></svg></svg>