<svg version="1.1" xmlns="http://www.w3.org/2000/svg" xmlns:xlink="http://www.w3.org/1999/xlink" fill="transparent" x="0" y="0" width="350" height="350" preserveAspectRatio="xMinYMin slice"><style type="text/css">.links{fill:transparent;stroke: #E4CF37;}.links:hover{fill:#63D272; opacity:0.4;}</style><defs><g id="allt"><path id="t4192" d="M1089,1024 L1078,1024 C1067,1024 1082,1029 1071,1030 C1060,1032 1076,1022 1066,1023 L1056,1024 1056,1024 L1056,1033 C1056,1042 1065,1032 1063,1041 C1062,1050 1056,1035 1056,1045 L1056,1056 1056,1056 L1065,1056 C1075,1056 1064,1065 1073,1063 C1083,1062 1068,1056 1078,1056 L1089,1056 1089,1056 L1089,1045 C1089,1035 1093,1046 1093,1037 C1094,1029 1088,1043 1088,1033 L1089,1024"/></g><clipPath id="c" clipRule="evenodd" fill="transparent"><use href="#t4192"/></clipPath></defs><svg viewBox="1055 1021 40 45" preserveAspectRatio="xMinYMin meet"><svg width="4380" height="2430"><g><image crossorigin="anonymous" x="0" y="0" href="https://nftpuzzle.license-token.com/assets/completepuzzle.svg" width="100%" height="100%" /><g class="links"><use href="#t4192"/></g></g></svg><svg x="1080" y="1051" height="9%" width="9%" viewBox="0 0 330 330"><g><a xlink:href="https://nftpuzzle.license-token.com/" class="links"><title>See the most innovative NFT based token software licensing project</title><path fill="#E4CF37" id="more" d="M165,0C74.019,0,0,74.019,0,165s74.019,165,165,165s165-74.019,165-165S255.981,0,165,0z M85,190 c-13.785,0-25-11.215-25-25s11.215-25,25-25s25,11.215,25,25S98.785,190,85,190z M165,190c-13.785,0-25-11.215-25-25 s11.215-25,25-25s25,11.215,25,25S178.785,190,165,190z M245,190c-13.785,0-25-11.215-25-25s11.215-25,25-25 c13.785,0,25,11.215,25,25S258.785,190,245,190z"></path></a></g></svg></svg></svg>