<svg version="1.1" xmlns="http://www.w3.org/2000/svg" xmlns:xlink="http://www.w3.org/1999/xlink" fill="transparent" x="0" y="0" width="350" height="350" preserveAspectRatio="xMinYMin slice"><style type="text/css">.links{fill:transparent;stroke: #E4CF37;}.links:hover{fill:#63D272; opacity:0.4;}</style><defs><g id="allt"><path id="t4209" d="M1650,1024 L1638,1024 C1627,1025 1641,1016 1633,1017 C1625,1018 1638,1026 1627,1025 L1617,1024 1617,1024 L1619,1033 C1621,1042 1609,1028 1610,1037 C1612,1046 1618,1037 1617,1046 L1617,1056 1617,1056 L1626,1058 C1636,1060 1621,1048 1630,1049 C1640,1051 1630,1057 1640,1056 L1650,1056 1650,1056 L1651,1045 C1652,1035 1643,1046 1644,1038 C1645,1030 1653,1045 1651,1034 L1650,1024"/></g><clipPath id="c" clipRule="evenodd" fill="transparent"><use href="#t4209"/></clipPath></defs><svg viewBox="1608 1015 46 46" preserveAspectRatio="xMinYMin meet"><svg width="4380" height="2430"><g><image crossorigin="anonymous" x="0" y="0" href="https://nftpuzzle.license-token.com/assets/completepuzzle.svg" width="100%" height="100%" /><g class="links"><use href="#t4209"/></g></g></svg><svg x="1639" y="1046" height="9%" width="9%" viewBox="0 0 330 330"><g><a xlink:href="https://nftpuzzle.license-token.com/" class="links"><title>See the most innovative NFT based token software licensing project</title><path fill="#E4CF37" id="more" d="M165,0C74.019,0,0,74.019,0,165s74.019,165,165,165s165-74.019,165-165S255.981,0,165,0z M85,190 c-13.785,0-25-11.215-25-25s11.215-25,25-25s25,11.215,25,25S98.785,190,85,190z M165,190c-13.785,0-25-11.215-25-25 s11.215-25,25-25s25,11.215,25,25S178.785,190,165,190z M245,190c-13.785,0-25-11.215-25-25s11.215-25,25-25 c13.785,0,25,11.215,25,25S258.785,190,245,190z"></path></a></g></svg></svg></svg>