<svg version="1.1" xmlns="http://www.w3.org/2000/svg" xmlns:xlink="http://www.w3.org/1999/xlink" fill="transparent" x="0" y="0" width="350" height="350" preserveAspectRatio="xMinYMin slice"><style type="text/css">.links{fill:transparent;stroke: #E4CF37;}.links:hover{fill:#63D272; opacity:0.4;}</style><defs><g id="allt"><path id="t4211" d="M1716,1024 L1705,1024 C1695,1024 1707,1030 1699,1029 C1691,1029 1702,1022 1692,1023 L1683,1024 1683,1024 L1683,1033 C1684,1043 1677,1030 1676,1038 C1676,1046 1684,1035 1683,1045 L1683,1056 1683,1056 L1693,1056 C1703,1057 1689,1050 1697,1049 C1706,1049 1694,1057 1705,1056 L1716,1056 1716,1056 L1715,1046 C1714,1037 1719,1048 1720,1040 C1722,1033 1716,1044 1716,1034 L1716,1024"/></g><clipPath id="c" clipRule="evenodd" fill="transparent"><use href="#t4211"/></clipPath></defs><svg viewBox="1675 1021 48 37" preserveAspectRatio="xMinYMin meet"><svg width="4380" height="2430"><g><image crossorigin="anonymous" x="0" y="0" href="https://nftpuzzle.license-token.com/assets/completepuzzle.svg" width="100%" height="100%" /><g class="links"><use href="#t4211"/></g></g></svg><svg x="1708" y="1043" height="9%" width="9%" viewBox="0 0 330 330"><g><a xlink:href="https://nftpuzzle.license-token.com/" class="links"><title>See the most innovative NFT based token software licensing project</title><path fill="#E4CF37" id="more" d="M165,0C74.019,0,0,74.019,0,165s74.019,165,165,165s165-74.019,165-165S255.981,0,165,0z M85,190 c-13.785,0-25-11.215-25-25s11.215-25,25-25s25,11.215,25,25S98.785,190,85,190z M165,190c-13.785,0-25-11.215-25-25 s11.215-25,25-25s25,11.215,25,25S178.785,190,165,190z M245,190c-13.785,0-25-11.215-25-25s11.215-25,25-25 c13.785,0,25,11.215,25,25S258.785,190,245,190z"></path></a></g></svg></svg></svg>