<svg version="1.1" xmlns="http://www.w3.org/2000/svg" xmlns:xlink="http://www.w3.org/1999/xlink" fill="transparent" x="0" y="0" width="350" height="350" preserveAspectRatio="xMinYMin slice"><style type="text/css">.links{fill:transparent;stroke: #E4CF37;}.links:hover{fill:#63D272; opacity:0.4;}</style><defs><g id="allt"><path id="t4212" d="M1749,1024 L1738,1022 C1727,1021 1742,1029 1732,1030 C1723,1031 1735,1022 1725,1023 L1716,1024 1716,1024 L1716,1034 C1716,1044 1722,1033 1720,1040 C1719,1048 1714,1037 1715,1046 L1716,1056 1716,1056 L1726,1056 C1737,1056 1725,1062 1733,1060 C1741,1059 1729,1054 1739,1055 L1749,1056 1749,1056 L1749,1046 C1750,1037 1746,1048 1745,1040 C1745,1033 1749,1042 1749,1033 L1749,1024"/></g><clipPath id="c" clipRule="evenodd" fill="transparent"><use href="#t4212"/></clipPath></defs><svg viewBox="1713 1020 38 43" preserveAspectRatio="xMinYMin meet"><svg width="4380" height="2430"><g><image crossorigin="anonymous" x="0" y="0" href="https://nftpuzzle.license-token.com/assets/completepuzzle.svg" width="100%" height="100%" /><g class="links"><use href="#t4212"/></g></g></svg><svg x="1736" y="1048" height="9%" width="9%" viewBox="0 0 330 330"><g><a xlink:href="https://nftpuzzle.license-token.com/" class="links"><title>See the most innovative NFT based token software licensing project</title><path fill="#E4CF37" id="more" d="M165,0C74.019,0,0,74.019,0,165s74.019,165,165,165s165-74.019,165-165S255.981,0,165,0z M85,190 c-13.785,0-25-11.215-25-25s11.215-25,25-25s25,11.215,25,25S98.785,190,85,190z M165,190c-13.785,0-25-11.215-25-25 s11.215-25,25-25s25,11.215,25,25S178.785,190,165,190z M245,190c-13.785,0-25-11.215-25-25s11.215-25,25-25 c13.785,0,25,11.215,25,25S258.785,190,245,190z"></path></a></g></svg></svg></svg>