<svg version="1.1" xmlns="http://www.w3.org/2000/svg" xmlns:xlink="http://www.w3.org/1999/xlink" fill="transparent" x="0" y="0" width="350" height="350" preserveAspectRatio="xMinYMin slice"><style type="text/css">.links{fill:transparent;stroke: #E4CF37;}.links:hover{fill:#63D272; opacity:0.4;}</style><defs><g id="allt"><path id="t4213" d="M1782,1024 L1772,1024 C1763,1024 1775,1017 1765,1016 C1755,1015 1767,1026 1758,1025 L1749,1024 1749,1024 L1749,1033 C1749,1042 1745,1033 1745,1040 C1746,1048 1750,1037 1749,1046 L1749,1056 1749,1056 L1758,1056 C1767,1056 1758,1052 1766,1052 C1774,1053 1762,1057 1772,1056 L1782,1056 1782,1056 L1782,1046 C1782,1037 1777,1048 1777,1040 C1777,1032 1784,1041 1783,1032 L1782,1024"/></g><clipPath id="c" clipRule="evenodd" fill="transparent"><use href="#t4213"/></clipPath></defs><svg viewBox="1744 1014 41 44" preserveAspectRatio="xMinYMin meet"><svg width="4380" height="2430"><g><image crossorigin="anonymous" x="0" y="0" href="https://nftpuzzle.license-token.com/assets/completepuzzle.svg" width="100%" height="100%" /><g class="links"><use href="#t4213"/></g></g></svg><svg x="1770" y="1043" height="9%" width="9%" viewBox="0 0 330 330"><g><a xlink:href="https://nftpuzzle.license-token.com/" class="links"><title>See the most innovative NFT based token software licensing project</title><path fill="#E4CF37" id="more" d="M165,0C74.019,0,0,74.019,0,165s74.019,165,165,165s165-74.019,165-165S255.981,0,165,0z M85,190 c-13.785,0-25-11.215-25-25s11.215-25,25-25s25,11.215,25,25S98.785,190,85,190z M165,190c-13.785,0-25-11.215-25-25 s11.215-25,25-25s25,11.215,25,25S178.785,190,165,190z M245,190c-13.785,0-25-11.215-25-25s11.215-25,25-25 c13.785,0,25,11.215,25,25S258.785,190,245,190z"></path></a></g></svg></svg></svg>