<svg version="1.1" xmlns="http://www.w3.org/2000/svg" xmlns:xlink="http://www.w3.org/1999/xlink" fill="transparent" x="0" y="0" width="350" height="350" preserveAspectRatio="xMinYMin slice"><style type="text/css">.links{fill:transparent;stroke: #E4CF37;}.links:hover{fill:#63D272; opacity:0.4;}</style><defs><g id="allt"><path id="t4215" d="M1848,1024 L1837,1024 C1827,1024 1838,1018 1829,1018 C1821,1019 1834,1026 1824,1025 L1815,1024 1815,1024 L1815,1034 C1815,1045 1811,1033 1810,1040 C1810,1048 1815,1035 1815,1045 L1815,1056 1815,1056 L1825,1056 C1836,1056 1824,1052 1831,1051 C1839,1051 1827,1056 1837,1056 L1848,1056 1848,1056 L1848,1045 C1848,1034 1842,1048 1840,1039 C1838,1030 1851,1042 1849,1033 L1848,1024"/></g><clipPath id="c" clipRule="evenodd" fill="transparent"><use href="#t4215"/></clipPath></defs><svg viewBox="1809 1017 43 40" preserveAspectRatio="xMinYMin meet"><svg width="4380" height="2430"><g><image crossorigin="anonymous" x="0" y="0" href="https://nftpuzzle.license-token.com/assets/completepuzzle.svg" width="100%" height="100%" /><g class="links"><use href="#t4215"/></g></g></svg><svg x="1837" y="1042" height="9%" width="9%" viewBox="0 0 330 330"><g><a xlink:href="https://nftpuzzle.license-token.com/" class="links"><title>See the most innovative NFT based token software licensing project</title><path fill="#E4CF37" id="more" d="M165,0C74.019,0,0,74.019,0,165s74.019,165,165,165s165-74.019,165-165S255.981,0,165,0z M85,190 c-13.785,0-25-11.215-25-25s11.215-25,25-25s25,11.215,25,25S98.785,190,85,190z M165,190c-13.785,0-25-11.215-25-25 s11.215-25,25-25s25,11.215,25,25S178.785,190,165,190z M245,190c-13.785,0-25-11.215-25-25s11.215-25,25-25 c13.785,0,25,11.215,25,25S258.785,190,245,190z"></path></a></g></svg></svg></svg>