<svg version="1.1" xmlns="http://www.w3.org/2000/svg" xmlns:xlink="http://www.w3.org/1999/xlink" fill="transparent" x="0" y="0" width="350" height="350" preserveAspectRatio="xMinYMin slice"><style type="text/css">.links{fill:transparent;stroke: #E4CF37;}.links:hover{fill:#63D272; opacity:0.4;}</style><defs><g id="allt"><path id="t4218" d="M1947,1024 L1937,1023 C1927,1023 1940,1027 1931,1027 C1923,1028 1932,1024 1923,1024 L1914,1024 1914,1024 L1914,1034 C1914,1044 1909,1030 1908,1039 C1907,1049 1916,1036 1915,1046 L1914,1056 1914,1056 L1924,1056 C1934,1056 1920,1051 1930,1050 C1940,1049 1926,1058 1936,1057 L1947,1056 1947,1056 L1947,1045 C1948,1035 1941,1047 1941,1039 C1941,1031 1948,1042 1947,1033 L1947,1024"/></g><clipPath id="c" clipRule="evenodd" fill="transparent"><use href="#t4218"/></clipPath></defs><svg viewBox="1906 1022 43 37" preserveAspectRatio="xMinYMin meet"><svg width="4380" height="2430"><g><image crossorigin="anonymous" x="0" y="0" href="https://nftpuzzle.license-token.com/assets/completepuzzle.svg" width="100%" height="100%" /><g class="links"><use href="#t4218"/></g></g></svg><svg x="1934" y="1044" height="9%" width="9%" viewBox="0 0 330 330"><g><a xlink:href="https://nftpuzzle.license-token.com/" class="links"><title>See the most innovative NFT based token software licensing project</title><path fill="#E4CF37" id="more" d="M165,0C74.019,0,0,74.019,0,165s74.019,165,165,165s165-74.019,165-165S255.981,0,165,0z M85,190 c-13.785,0-25-11.215-25-25s11.215-25,25-25s25,11.215,25,25S98.785,190,85,190z M165,190c-13.785,0-25-11.215-25-25 s11.215-25,25-25s25,11.215,25,25S178.785,190,165,190z M245,190c-13.785,0-25-11.215-25-25s11.215-25,25-25 c13.785,0,25,11.215,25,25S258.785,190,245,190z"></path></a></g></svg></svg></svg>