<svg version="1.1" xmlns="http://www.w3.org/2000/svg" xmlns:xlink="http://www.w3.org/1999/xlink" fill="transparent" x="0" y="0" width="350" height="350" preserveAspectRatio="xMinYMin slice"><style type="text/css">.links{fill:transparent;stroke: #E4CF37;}.links:hover{fill:#63D272; opacity:0.4;}</style><defs><g id="allt"><path id="t4221" d="M2046,1024 L2036,1025 C2026,1027 2037,1018 2029,1016 C2021,1015 2031,1025 2022,1024 L2013,1024 2013,1024 L2013,1034 C2013,1044 2006,1032 2004,1039 C2003,1047 2017,1037 2015,1046 L2013,1056 2013,1056 L2023,1056 C2034,1056 2022,1049 2029,1048 C2036,1047 2027,1060 2036,1058 L2046,1056 2046,1056 L2046,1045 C2046,1035 2052,1049 2052,1041 C2053,1033 2046,1042 2046,1033 L2046,1024"/></g><clipPath id="c" clipRule="evenodd" fill="transparent"><use href="#t4221"/></clipPath></defs><svg viewBox="2002 1014 52 47" preserveAspectRatio="xMinYMin meet"><svg width="4380" height="2430"><g><image crossorigin="anonymous" x="0" y="0" href="https://nftpuzzle.license-token.com/assets/completepuzzle.svg" width="100%" height="100%" /><g class="links"><use href="#t4221"/></g></g></svg><svg x="2039" y="1046" height="9%" width="9%" viewBox="0 0 330 330"><g><a xlink:href="https://nftpuzzle.license-token.com/" class="links"><title>See the most innovative NFT based token software licensing project</title><path fill="#E4CF37" id="more" d="M165,0C74.019,0,0,74.019,0,165s74.019,165,165,165s165-74.019,165-165S255.981,0,165,0z M85,190 c-13.785,0-25-11.215-25-25s11.215-25,25-25s25,11.215,25,25S98.785,190,85,190z M165,190c-13.785,0-25-11.215-25-25 s11.215-25,25-25s25,11.215,25,25S178.785,190,165,190z M245,190c-13.785,0-25-11.215-25-25s11.215-25,25-25 c13.785,0,25,11.215,25,25S258.785,190,245,190z"></path></a></g></svg></svg></svg>