<svg version="1.1" xmlns="http://www.w3.org/2000/svg" xmlns:xlink="http://www.w3.org/1999/xlink" fill="transparent" x="0" y="0" width="350" height="350" preserveAspectRatio="xMinYMin slice"><style type="text/css">.links{fill:transparent;stroke: #E4CF37;}.links:hover{fill:#63D272; opacity:0.4;}</style><defs><g id="allt"><path id="t4222" d="M2079,1024 L2067,1024 C2056,1024 2071,1016 2062,1017 C2054,1018 2066,1024 2056,1024 L2046,1024 2046,1024 L2046,1033 C2046,1042 2053,1033 2052,1041 C2052,1049 2046,1035 2046,1045 L2046,1056 2046,1056 L2055,1056 C2064,1056 2055,1063 2063,1062 C2072,1062 2058,1056 2068,1056 L2079,1056 2079,1056 L2079,1046 C2079,1036 2076,1048 2076,1040 C2076,1033 2080,1043 2079,1033 L2079,1024"/></g><clipPath id="c" clipRule="evenodd" fill="transparent"><use href="#t4222"/></clipPath></defs><svg viewBox="2045 1015 36 49" preserveAspectRatio="xMinYMin meet"><svg width="4380" height="2430"><g><image crossorigin="anonymous" x="0" y="0" href="https://nftpuzzle.license-token.com/assets/completepuzzle.svg" width="100%" height="100%" /><g class="links"><use href="#t4222"/></g></g></svg><svg x="2066" y="1049" height="9%" width="9%" viewBox="0 0 330 330"><g><a xlink:href="https://nftpuzzle.license-token.com/" class="links"><title>See the most innovative NFT based token software licensing project</title><path fill="#E4CF37" id="more" d="M165,0C74.019,0,0,74.019,0,165s74.019,165,165,165s165-74.019,165-165S255.981,0,165,0z M85,190 c-13.785,0-25-11.215-25-25s11.215-25,25-25s25,11.215,25,25S98.785,190,85,190z M165,190c-13.785,0-25-11.215-25-25 s11.215-25,25-25s25,11.215,25,25S178.785,190,165,190z M245,190c-13.785,0-25-11.215-25-25s11.215-25,25-25 c13.785,0,25,11.215,25,25S258.785,190,245,190z"></path></a></g></svg></svg></svg>