<svg version="1.1" xmlns="http://www.w3.org/2000/svg" xmlns:xlink="http://www.w3.org/1999/xlink" fill="transparent" x="0" y="0" width="350" height="350" preserveAspectRatio="xMinYMin slice"><style type="text/css">.links{fill:transparent;stroke: #E4CF37;}.links:hover{fill:#63D272; opacity:0.4;}</style><defs><g id="allt"><path id="t4225" d="M2178,1024 L2168,1024 C2158,1024 2171,1021 2160,1021 C2150,1021 2166,1024 2155,1024 L2145,1024 2145,1024 L2143,1033 C2141,1043 2151,1029 2152,1037 C2154,1046 2145,1037 2145,1046 L2145,1056 2145,1056 L2155,1054 C2165,1052 2150,1062 2159,1063 C2168,1064 2158,1056 2168,1056 L2178,1056 2178,1056 L2178,1045 C2178,1035 2175,1048 2173,1039 C2172,1030 2180,1042 2179,1033 L2178,1024"/></g><clipPath id="c" clipRule="evenodd" fill="transparent"><use href="#t4225"/></clipPath></defs><svg viewBox="2140 1020 41 45" preserveAspectRatio="xMinYMin meet"><svg width="4380" height="2430"><g><image crossorigin="anonymous" x="0" y="0" href="https://nftpuzzle.license-token.com/assets/completepuzzle.svg" width="100%" height="100%" /><g class="links"><use href="#t4225"/></g></g></svg><svg x="2166" y="1050" height="9%" width="9%" viewBox="0 0 330 330"><g><a xlink:href="https://nftpuzzle.license-token.com/" class="links"><title>See the most innovative NFT based token software licensing project</title><path fill="#E4CF37" id="more" d="M165,0C74.019,0,0,74.019,0,165s74.019,165,165,165s165-74.019,165-165S255.981,0,165,0z M85,190 c-13.785,0-25-11.215-25-25s11.215-25,25-25s25,11.215,25,25S98.785,190,85,190z M165,190c-13.785,0-25-11.215-25-25 s11.215-25,25-25s25,11.215,25,25S178.785,190,165,190z M245,190c-13.785,0-25-11.215-25-25s11.215-25,25-25 c13.785,0,25,11.215,25,25S258.785,190,245,190z"></path></a></g></svg></svg></svg>