<svg version="1.1" xmlns="http://www.w3.org/2000/svg" xmlns:xlink="http://www.w3.org/1999/xlink" fill="transparent" x="0" y="0" width="350" height="350" preserveAspectRatio="xMinYMin slice"><style type="text/css">.links{fill:transparent;stroke: #E4CF37;}.links:hover{fill:#63D272; opacity:0.4;}</style><defs><g id="allt"><path id="t4227" d="M2244,1024 L2234,1024 C2224,1024 2234,1018 2225,1016 C2216,1015 2230,1024 2220,1024 L2211,1024 2211,1024 L2211,1034 C2211,1045 2204,1031 2203,1040 C2202,1049 2214,1035 2212,1045 L2211,1056 2211,1056 L2221,1056 C2232,1056 2218,1049 2227,1048 C2237,1047 2222,1059 2233,1057 L2244,1056 2244,1056 L2244,1045 C2244,1035 2240,1046 2240,1039 C2241,1032 2245,1043 2244,1033 L2244,1024"/></g><clipPath id="c" clipRule="evenodd" fill="transparent"><use href="#t4227"/></clipPath></defs><svg viewBox="2201 1014 45 46" preserveAspectRatio="xMinYMin meet"><svg width="4380" height="2430"><g><image crossorigin="anonymous" x="0" y="0" href="https://nftpuzzle.license-token.com/assets/completepuzzle.svg" width="100%" height="100%" /><g class="links"><use href="#t4227"/></g></g></svg><svg x="2231" y="1045" height="9%" width="9%" viewBox="0 0 330 330"><g><a xlink:href="https://nftpuzzle.license-token.com/" class="links"><title>See the most innovative NFT based token software licensing project</title><path fill="#E4CF37" id="more" d="M165,0C74.019,0,0,74.019,0,165s74.019,165,165,165s165-74.019,165-165S255.981,0,165,0z M85,190 c-13.785,0-25-11.215-25-25s11.215-25,25-25s25,11.215,25,25S98.785,190,85,190z M165,190c-13.785,0-25-11.215-25-25 s11.215-25,25-25s25,11.215,25,25S178.785,190,165,190z M245,190c-13.785,0-25-11.215-25-25s11.215-25,25-25 c13.785,0,25,11.215,25,25S258.785,190,245,190z"></path></a></g></svg></svg></svg>