<svg version="1.1" xmlns="http://www.w3.org/2000/svg" xmlns:xlink="http://www.w3.org/1999/xlink" fill="transparent" x="0" y="0" width="350" height="350" preserveAspectRatio="xMinYMin slice"><style type="text/css">.links{fill:transparent;stroke: #E4CF37;}.links:hover{fill:#63D272; opacity:0.4;}</style><defs><g id="allt"><path id="t4229" d="M2310,1024 L2299,1024 C2288,1024 2300,1015 2291,1016 C2282,1017 2295,1026 2286,1025 L2277,1024 2277,1024 L2277,1034 C2277,1045 2290,1029 2288,1039 C2286,1049 2272,1036 2274,1046 L2277,1056 2277,1056 L2287,1056 C2298,1056 2282,1069 2292,1067 C2303,1065 2290,1051 2300,1053 L2310,1056 2310,1056 L2311,1047 C2312,1038 2302,1046 2300,1037 C2299,1029 2314,1042 2312,1033 L2310,1024"/></g><clipPath id="c" clipRule="evenodd" fill="transparent"><use href="#t4229"/></clipPath></defs><svg viewBox="2271 1014 44 56" preserveAspectRatio="xMinYMin meet"><svg width="4380" height="2430"><g><image crossorigin="anonymous" x="0" y="0" href="https://nftpuzzle.license-token.com/assets/completepuzzle.svg" width="100%" height="100%" /><g class="links"><use href="#t4229"/></g></g></svg><svg x="2300" y="1055" height="9%" width="9%" viewBox="0 0 330 330"><g><a xlink:href="https://nftpuzzle.license-token.com/" class="links"><title>See the most innovative NFT based token software licensing project</title><path fill="#E4CF37" id="more" d="M165,0C74.019,0,0,74.019,0,165s74.019,165,165,165s165-74.019,165-165S255.981,0,165,0z M85,190 c-13.785,0-25-11.215-25-25s11.215-25,25-25s25,11.215,25,25S98.785,190,85,190z M165,190c-13.785,0-25-11.215-25-25 s11.215-25,25-25s25,11.215,25,25S178.785,190,165,190z M245,190c-13.785,0-25-11.215-25-25s11.215-25,25-25 c13.785,0,25,11.215,25,25S258.785,190,245,190z"></path></a></g></svg></svg></svg>