<svg version="1.1" xmlns="http://www.w3.org/2000/svg" xmlns:xlink="http://www.w3.org/1999/xlink" fill="transparent" x="0" y="0" width="350" height="350" preserveAspectRatio="xMinYMin slice"><style type="text/css">.links{fill:transparent;stroke: #E4CF37;}.links:hover{fill:#63D272; opacity:0.4;}</style><defs><g id="allt"><path id="t4234" d="M2475,1024 L2464,1026 C2453,1029 2466,1012 2457,1011 C2449,1011 2463,1025 2452,1024 L2442,1024 2442,1024 L2441,1034 C2440,1044 2450,1033 2448,1041 C2447,1050 2440,1037 2441,1046 L2442,1056 2442,1056 L2452,1055 C2463,1054 2451,1064 2460,1062 C2469,1061 2455,1054 2465,1055 L2475,1056 2475,1056 L2475,1045 C2475,1034 2473,1048 2473,1040 C2473,1032 2475,1043 2475,1033 L2475,1024"/></g><clipPath id="c" clipRule="evenodd" fill="transparent"><use href="#t4234"/></clipPath></defs><svg viewBox="2439 1010 37 55" preserveAspectRatio="xMinYMin meet"><svg width="4380" height="2430"><g><image crossorigin="anonymous" x="0" y="0" href="https://nftpuzzle.license-token.com/assets/completepuzzle.svg" width="100%" height="100%" /><g class="links"><use href="#t4234"/></g></g></svg><svg x="2461" y="1050" height="9%" width="9%" viewBox="0 0 330 330"><g><a xlink:href="https://nftpuzzle.license-token.com/" class="links"><title>See the most innovative NFT based token software licensing project</title><path fill="#E4CF37" id="more" d="M165,0C74.019,0,0,74.019,0,165s74.019,165,165,165s165-74.019,165-165S255.981,0,165,0z M85,190 c-13.785,0-25-11.215-25-25s11.215-25,25-25s25,11.215,25,25S98.785,190,85,190z M165,190c-13.785,0-25-11.215-25-25 s11.215-25,25-25s25,11.215,25,25S178.785,190,165,190z M245,190c-13.785,0-25-11.215-25-25s11.215-25,25-25 c13.785,0,25,11.215,25,25S258.785,190,245,190z"></path></a></g></svg></svg></svg>