<svg version="1.1" xmlns="http://www.w3.org/2000/svg" xmlns:xlink="http://www.w3.org/1999/xlink" fill="transparent" x="0" y="0" width="350" height="350" preserveAspectRatio="xMinYMin slice"><style type="text/css">.links{fill:transparent;stroke: #E4CF37;}.links:hover{fill:#63D272; opacity:0.4;}</style><defs><g id="allt"><path id="t424" d="M1155,96 L1145,96 C1136,96 1148,104 1139,102 C1131,101 1141,94 1131,95 L1122,96 1122,96 L1122,106 C1123,116 1119,104 1117,112 C1115,120 1125,110 1123,119 L1122,128 1122,128 L1132,128 C1143,129 1131,125 1139,123 C1147,121 1136,131 1145,129 L1155,128 1155,128 L1155,119 C1155,110 1142,121 1143,112 C1145,104 1155,117 1155,106 L1155,96"/></g><clipPath id="c" clipRule="evenodd" fill="transparent"><use href="#t424"/></clipPath></defs><svg viewBox="1114 93 42 39" preserveAspectRatio="xMinYMin meet"><svg width="4380" height="2430"><g><image crossorigin="anonymous" x="0" y="0" href="https://nftpuzzle.license-token.com/assets/completepuzzle.svg" width="100%" height="100%" /><g class="links"><use href="#t424"/></g></g></svg><svg x="1141" y="117" height="9%" width="9%" viewBox="0 0 330 330"><g><a xlink:href="https://nftpuzzle.license-token.com/" class="links"><title>See the most innovative NFT based token software licensing project</title><path fill="#E4CF37" id="more" d="M165,0C74.019,0,0,74.019,0,165s74.019,165,165,165s165-74.019,165-165S255.981,0,165,0z M85,190 c-13.785,0-25-11.215-25-25s11.215-25,25-25s25,11.215,25,25S98.785,190,85,190z M165,190c-13.785,0-25-11.215-25-25 s11.215-25,25-25s25,11.215,25,25S178.785,190,165,190z M245,190c-13.785,0-25-11.215-25-25s11.215-25,25-25 c13.785,0,25,11.215,25,25S258.785,190,245,190z"></path></a></g></svg></svg></svg>