<svg version="1.1" xmlns="http://www.w3.org/2000/svg" xmlns:xlink="http://www.w3.org/1999/xlink" fill="transparent" x="0" y="0" width="350" height="350" preserveAspectRatio="xMinYMin slice"><style type="text/css">.links{fill:transparent;stroke: #E4CF37;}.links:hover{fill:#63D272; opacity:0.4;}</style><defs><g id="allt"><path id="t4244" d="M2805,1024 L2794,1023 C2784,1023 2800,1029 2789,1031 C2778,1033 2793,1024 2782,1024 L2772,1024 2772,1024 L2772,1033 C2772,1043 2767,1033 2767,1040 C2767,1048 2775,1036 2773,1046 L2772,1056 2772,1056 L2781,1056 C2791,1056 2781,1051 2788,1051 C2796,1051 2784,1059 2794,1057 L2805,1056 2805,1056 L2803,1045 C2802,1035 2813,1051 2812,1042 C2811,1033 2802,1042 2803,1033 L2805,1024"/></g><clipPath id="c" clipRule="evenodd" fill="transparent"><use href="#t4244"/></clipPath></defs><svg viewBox="2766 1022 48 38" preserveAspectRatio="xMinYMin meet"><svg width="4380" height="2430"><g><image crossorigin="anonymous" x="0" y="0" href="https://nftpuzzle.license-token.com/assets/completepuzzle.svg" width="100%" height="100%" /><g class="links"><use href="#t4244"/></g></g></svg><svg x="2799" y="1045" height="9%" width="9%" viewBox="0 0 330 330"><g><a xlink:href="https://nftpuzzle.license-token.com/" class="links"><title>See the most innovative NFT based token software licensing project</title><path fill="#E4CF37" id="more" d="M165,0C74.019,0,0,74.019,0,165s74.019,165,165,165s165-74.019,165-165S255.981,0,165,0z M85,190 c-13.785,0-25-11.215-25-25s11.215-25,25-25s25,11.215,25,25S98.785,190,85,190z M165,190c-13.785,0-25-11.215-25-25 s11.215-25,25-25s25,11.215,25,25S178.785,190,165,190z M245,190c-13.785,0-25-11.215-25-25s11.215-25,25-25 c13.785,0,25,11.215,25,25S258.785,190,245,190z"></path></a></g></svg></svg></svg>