<svg version="1.1" xmlns="http://www.w3.org/2000/svg" xmlns:xlink="http://www.w3.org/1999/xlink" fill="transparent" x="0" y="0" width="350" height="350" preserveAspectRatio="xMinYMin slice"><style type="text/css">.links{fill:transparent;stroke: #E4CF37;}.links:hover{fill:#63D272; opacity:0.4;}</style><defs><g id="allt"><path id="t425" d="M1188,96 L1178,96 C1168,97 1183,91 1173,91 C1164,91 1174,97 1164,96 L1155,96 1155,96 L1155,106 C1155,117 1145,104 1143,112 C1142,121 1155,110 1155,119 L1155,128 1155,128 L1166,128 C1177,128 1163,118 1172,117 C1181,116 1169,128 1178,128 L1188,128 1188,128 L1188,119 C1189,110 1185,120 1184,110 C1184,101 1189,116 1188,106 L1188,96"/></g><clipPath id="c" clipRule="evenodd" fill="transparent"><use href="#t425"/></clipPath></defs><svg viewBox="1141 90 49 39" preserveAspectRatio="xMinYMin meet"><svg width="4380" height="2430"><g><image crossorigin="anonymous" x="0" y="0" href="https://nftpuzzle.license-token.com/assets/completepuzzle.svg" width="100%" height="100%" /><g class="links"><use href="#t425"/></g></g></svg><svg x="1175" y="114" height="9%" width="9%" viewBox="0 0 330 330"><g><a xlink:href="https://nftpuzzle.license-token.com/" class="links"><title>See the most innovative NFT based token software licensing project</title><path fill="#E4CF37" id="more" d="M165,0C74.019,0,0,74.019,0,165s74.019,165,165,165s165-74.019,165-165S255.981,0,165,0z M85,190 c-13.785,0-25-11.215-25-25s11.215-25,25-25s25,11.215,25,25S98.785,190,85,190z M165,190c-13.785,0-25-11.215-25-25 s11.215-25,25-25s25,11.215,25,25S178.785,190,165,190z M245,190c-13.785,0-25-11.215-25-25s11.215-25,25-25 c13.785,0,25,11.215,25,25S258.785,190,245,190z"></path></a></g></svg></svg></svg>