<svg version="1.1" xmlns="http://www.w3.org/2000/svg" xmlns:xlink="http://www.w3.org/1999/xlink" fill="transparent" x="0" y="0" width="350" height="350" preserveAspectRatio="xMinYMin slice"><style type="text/css">.links{fill:transparent;stroke: #E4CF37;}.links:hover{fill:#63D272; opacity:0.4;}</style><defs><g id="allt"><path id="t4256" d="M3201,1024 L3190,1024 C3179,1025 3195,1015 3184,1015 C3173,1016 3189,1026 3178,1025 L3168,1024 3168,1024 L3170,1034 C3172,1044 3158,1029 3158,1038 C3159,1048 3170,1035 3169,1045 L3168,1056 3168,1056 L3178,1058 C3189,1060 3173,1046 3182,1047 C3192,1048 3179,1058 3190,1057 L3201,1056 3201,1056 L3202,1046 C3203,1037 3190,1047 3191,1038 C3193,1029 3201,1042 3201,1033 L3201,1024"/></g><clipPath id="c" clipRule="evenodd" fill="transparent"><use href="#t4256"/></clipPath></defs><svg viewBox="3157 1014 47 47" preserveAspectRatio="xMinYMin meet"><svg width="4380" height="2430"><g><image crossorigin="anonymous" x="0" y="0" href="https://nftpuzzle.license-token.com/assets/completepuzzle.svg" width="100%" height="100%" /><g class="links"><use href="#t4256"/></g></g></svg><svg x="3189" y="1046" height="9%" width="9%" viewBox="0 0 330 330"><g><a xlink:href="https://nftpuzzle.license-token.com/" class="links"><title>See the most innovative NFT based token software licensing project</title><path fill="#E4CF37" id="more" d="M165,0C74.019,0,0,74.019,0,165s74.019,165,165,165s165-74.019,165-165S255.981,0,165,0z M85,190 c-13.785,0-25-11.215-25-25s11.215-25,25-25s25,11.215,25,25S98.785,190,85,190z M165,190c-13.785,0-25-11.215-25-25 s11.215-25,25-25s25,11.215,25,25S178.785,190,165,190z M245,190c-13.785,0-25-11.215-25-25s11.215-25,25-25 c13.785,0,25,11.215,25,25S258.785,190,245,190z"></path></a></g></svg></svg></svg>