<svg version="1.1" xmlns="http://www.w3.org/2000/svg" xmlns:xlink="http://www.w3.org/1999/xlink" fill="transparent" x="0" y="0" width="350" height="350" preserveAspectRatio="xMinYMin slice"><style type="text/css">.links{fill:transparent;stroke: #E4CF37;}.links:hover{fill:#63D272; opacity:0.4;}</style><defs><g id="allt"><path id="t4260" d="M3333,1024 L3322,1023 C3312,1023 3326,1026 3317,1027 C3308,1029 3318,1024 3309,1024 L3300,1024 3300,1024 L3300,1032 C3300,1041 3298,1030 3298,1039 C3298,1048 3301,1036 3300,1046 L3300,1056 3300,1056 L3309,1056 C3318,1056 3306,1054 3315,1054 C3325,1054 3313,1057 3323,1056 L3333,1056 3333,1056 L3333,1047 C3333,1038 3330,1046 3330,1037 C3330,1028 3333,1043 3333,1033 L3333,1024"/></g><clipPath id="c" clipRule="evenodd" fill="transparent"><use href="#t4260"/></clipPath></defs><svg viewBox="3297 1022 37 36" preserveAspectRatio="xMinYMin meet"><svg width="4380" height="2430"><g><image crossorigin="anonymous" x="0" y="0" href="https://nftpuzzle.license-token.com/assets/completepuzzle.svg" width="100%" height="100%" /><g class="links"><use href="#t4260"/></g></g></svg><svg x="3319" y="1043" height="9%" width="9%" viewBox="0 0 330 330"><g><a xlink:href="https://nftpuzzle.license-token.com/" class="links"><title>See the most innovative NFT based token software licensing project</title><path fill="#E4CF37" id="more" d="M165,0C74.019,0,0,74.019,0,165s74.019,165,165,165s165-74.019,165-165S255.981,0,165,0z M85,190 c-13.785,0-25-11.215-25-25s11.215-25,25-25s25,11.215,25,25S98.785,190,85,190z M165,190c-13.785,0-25-11.215-25-25 s11.215-25,25-25s25,11.215,25,25S178.785,190,165,190z M245,190c-13.785,0-25-11.215-25-25s11.215-25,25-25 c13.785,0,25,11.215,25,25S258.785,190,245,190z"></path></a></g></svg></svg></svg>