<svg version="1.1" xmlns="http://www.w3.org/2000/svg" xmlns:xlink="http://www.w3.org/1999/xlink" fill="transparent" x="0" y="0" width="350" height="350" preserveAspectRatio="xMinYMin slice"><style type="text/css">.links{fill:transparent;stroke: #E4CF37;}.links:hover{fill:#63D272; opacity:0.4;}</style><defs><g id="allt"><path id="t4268" d="M3597,1024 L3587,1023 C3578,1022 3589,1026 3580,1026 C3572,1027 3583,1023 3573,1023 L3564,1024 3564,1024 L3564,1033 C3564,1043 3568,1031 3567,1039 C3566,1047 3563,1035 3563,1045 L3564,1056 3564,1056 L3574,1056 C3584,1056 3571,1060 3579,1059 C3588,1058 3575,1055 3586,1055 L3597,1056 3597,1056 L3597,1045 C3597,1035 3606,1048 3603,1038 C3601,1029 3595,1041 3596,1032 L3597,1024"/></g><clipPath id="c" clipRule="evenodd" fill="transparent"><use href="#t4268"/></clipPath></defs><svg viewBox="3562 1021 45 40" preserveAspectRatio="xMinYMin meet"><svg width="4380" height="2430"><g><image crossorigin="anonymous" x="0" y="0" href="https://nftpuzzle.license-token.com/assets/completepuzzle.svg" width="100%" height="100%" /><g class="links"><use href="#t4268"/></g></g></svg><svg x="3592" y="1046" height="9%" width="9%" viewBox="0 0 330 330"><g><a xlink:href="https://nftpuzzle.license-token.com/" class="links"><title>See the most innovative NFT based token software licensing project</title><path fill="#E4CF37" id="more" d="M165,0C74.019,0,0,74.019,0,165s74.019,165,165,165s165-74.019,165-165S255.981,0,165,0z M85,190 c-13.785,0-25-11.215-25-25s11.215-25,25-25s25,11.215,25,25S98.785,190,85,190z M165,190c-13.785,0-25-11.215-25-25 s11.215-25,25-25s25,11.215,25,25S178.785,190,165,190z M245,190c-13.785,0-25-11.215-25-25s11.215-25,25-25 c13.785,0,25,11.215,25,25S258.785,190,245,190z"></path></a></g></svg></svg></svg>