<svg version="1.1" xmlns="http://www.w3.org/2000/svg" xmlns:xlink="http://www.w3.org/1999/xlink" fill="transparent" x="0" y="0" width="350" height="350" preserveAspectRatio="xMinYMin slice"><style type="text/css">.links{fill:transparent;stroke: #E4CF37;}.links:hover{fill:#63D272; opacity:0.4;}</style><defs><g id="allt"><path id="t4269" d="M3630,1024 L3620,1024 C3610,1025 3624,1020 3614,1020 C3604,1020 3618,1026 3607,1025 L3597,1024 3597,1024 L3596,1032 C3595,1041 3601,1029 3603,1038 C3606,1048 3597,1035 3597,1045 L3597,1056 3597,1056 L3606,1055 C3615,1054 3602,1060 3612,1062 C3622,1065 3608,1056 3619,1056 L3630,1056 3630,1056 L3630,1045 C3630,1035 3635,1049 3635,1040 C3636,1031 3628,1043 3629,1033 L3630,1024"/></g><clipPath id="c" clipRule="evenodd" fill="transparent"><use href="#t4269"/></clipPath></defs><svg viewBox="3594 1019 43 47" preserveAspectRatio="xMinYMin meet"><svg width="4380" height="2430"><g><image crossorigin="anonymous" x="0" y="0" href="https://nftpuzzle.license-token.com/assets/completepuzzle.svg" width="100%" height="100%" /><g class="links"><use href="#t4269"/></g></g></svg><svg x="3622" y="1051" height="9%" width="9%" viewBox="0 0 330 330"><g><a xlink:href="https://nftpuzzle.license-token.com/" class="links"><title>See the most innovative NFT based token software licensing project</title><path fill="#E4CF37" id="more" d="M165,0C74.019,0,0,74.019,0,165s74.019,165,165,165s165-74.019,165-165S255.981,0,165,0z M85,190 c-13.785,0-25-11.215-25-25s11.215-25,25-25s25,11.215,25,25S98.785,190,85,190z M165,190c-13.785,0-25-11.215-25-25 s11.215-25,25-25s25,11.215,25,25S178.785,190,165,190z M245,190c-13.785,0-25-11.215-25-25s11.215-25,25-25 c13.785,0,25,11.215,25,25S258.785,190,245,190z"></path></a></g></svg></svg></svg>