<svg version="1.1" xmlns="http://www.w3.org/2000/svg" xmlns:xlink="http://www.w3.org/1999/xlink" fill="transparent" x="0" y="0" width="350" height="350" preserveAspectRatio="xMinYMin slice"><style type="text/css">.links{fill:transparent;stroke: #E4CF37;}.links:hover{fill:#63D272; opacity:0.4;}</style><defs><g id="allt"><path id="t427" d="M1254,96 L1243,94 C1232,93 1249,106 1239,104 C1230,103 1240,96 1230,96 L1221,96 1221,96 L1221,106 C1222,116 1218,101 1216,110 C1215,119 1222,108 1221,118 L1221,128 1221,128 L1231,128 C1242,129 1226,125 1235,123 C1244,122 1234,129 1244,128 L1254,128 1254,128 L1254,117 C1254,107 1252,122 1251,111 C1251,101 1254,116 1254,106 L1254,96"/></g><clipPath id="c" clipRule="evenodd" fill="transparent"><use href="#t427"/></clipPath></defs><svg viewBox="1214 92 41 38" preserveAspectRatio="xMinYMin meet"><svg width="4380" height="2430"><g><image crossorigin="anonymous" x="0" y="0" href="https://nftpuzzle.license-token.com/assets/completepuzzle.svg" width="100%" height="100%" /><g class="links"><use href="#t427"/></g></g></svg><svg x="1240" y="115" height="9%" width="9%" viewBox="0 0 330 330"><g><a xlink:href="https://nftpuzzle.license-token.com/" class="links"><title>See the most innovative NFT based token software licensing project</title><path fill="#E4CF37" id="more" d="M165,0C74.019,0,0,74.019,0,165s74.019,165,165,165s165-74.019,165-165S255.981,0,165,0z M85,190 c-13.785,0-25-11.215-25-25s11.215-25,25-25s25,11.215,25,25S98.785,190,85,190z M165,190c-13.785,0-25-11.215-25-25 s11.215-25,25-25s25,11.215,25,25S178.785,190,165,190z M245,190c-13.785,0-25-11.215-25-25s11.215-25,25-25 c13.785,0,25,11.215,25,25S258.785,190,245,190z"></path></a></g></svg></svg></svg>