<svg version="1.1" xmlns="http://www.w3.org/2000/svg" xmlns:xlink="http://www.w3.org/1999/xlink" fill="transparent" x="0" y="0" width="350" height="350" preserveAspectRatio="xMinYMin slice"><style type="text/css">.links{fill:transparent;stroke: #E4CF37;}.links:hover{fill:#63D272; opacity:0.4;}</style><defs><g id="allt"><path id="t4274" d="M3795,1024 L3785,1024 C3775,1025 3787,1017 3777,1017 C3767,1018 3781,1026 3771,1025 L3762,1024 3762,1024 L3760,1034 C3758,1045 3769,1030 3769,1040 C3770,1051 3759,1037 3760,1046 L3762,1056 3762,1056 L3772,1054 C3783,1052 3768,1063 3779,1063 C3790,1064 3775,1053 3785,1054 L3795,1056 3795,1056 L3795,1046 C3796,1036 3788,1050 3787,1041 C3786,1032 3797,1042 3796,1033 L3795,1024"/></g><clipPath id="c" clipRule="evenodd" fill="transparent"><use href="#t4274"/></clipPath></defs><svg viewBox="3757 1016 41 49" preserveAspectRatio="xMinYMin meet"><svg width="4380" height="2430"><g><image crossorigin="anonymous" x="0" y="0" href="https://nftpuzzle.license-token.com/assets/completepuzzle.svg" width="100%" height="100%" /><g class="links"><use href="#t4274"/></g></g></svg><svg x="3783" y="1050" height="9%" width="9%" viewBox="0 0 330 330"><g><a xlink:href="https://nftpuzzle.license-token.com/" class="links"><title>See the most innovative NFT based token software licensing project</title><path fill="#E4CF37" id="more" d="M165,0C74.019,0,0,74.019,0,165s74.019,165,165,165s165-74.019,165-165S255.981,0,165,0z M85,190 c-13.785,0-25-11.215-25-25s11.215-25,25-25s25,11.215,25,25S98.785,190,85,190z M165,190c-13.785,0-25-11.215-25-25 s11.215-25,25-25s25,11.215,25,25S178.785,190,165,190z M245,190c-13.785,0-25-11.215-25-25s11.215-25,25-25 c13.785,0,25,11.215,25,25S258.785,190,245,190z"></path></a></g></svg></svg></svg>