<svg version="1.1" xmlns="http://www.w3.org/2000/svg" xmlns:xlink="http://www.w3.org/1999/xlink" fill="transparent" x="0" y="0" width="350" height="350" preserveAspectRatio="xMinYMin slice"><style type="text/css">.links{fill:transparent;stroke: #E4CF37;}.links:hover{fill:#63D272; opacity:0.4;}</style><defs><g id="allt"><path id="t4279" d="M3960,1024 L3949,1022 C3938,1021 3952,1031 3942,1030 C3932,1030 3946,1024 3936,1024 L3927,1024 3927,1024 L3925,1033 C3923,1042 3931,1032 3934,1039 C3938,1047 3927,1037 3927,1046 L3927,1056 3927,1056 L3936,1054 C3946,1052 3935,1060 3943,1063 C3951,1066 3941,1056 3950,1056 L3960,1056 3960,1056 L3962,1047 C3964,1038 3952,1051 3951,1041 C3951,1031 3963,1043 3961,1033 L3960,1024"/></g><clipPath id="c" clipRule="evenodd" fill="transparent"><use href="#t4279"/></clipPath></defs><svg viewBox="3922 1020 43 47" preserveAspectRatio="xMinYMin meet"><svg width="4380" height="2430"><g><image crossorigin="anonymous" x="0" y="0" href="https://nftpuzzle.license-token.com/assets/completepuzzle.svg" width="100%" height="100%" /><g class="links"><use href="#t4279"/></g></g></svg><svg x="3950" y="1052" height="9%" width="9%" viewBox="0 0 330 330"><g><a xlink:href="https://nftpuzzle.license-token.com/" class="links"><title>See the most innovative NFT based token software licensing project</title><path fill="#E4CF37" id="more" d="M165,0C74.019,0,0,74.019,0,165s74.019,165,165,165s165-74.019,165-165S255.981,0,165,0z M85,190 c-13.785,0-25-11.215-25-25s11.215-25,25-25s25,11.215,25,25S98.785,190,85,190z M165,190c-13.785,0-25-11.215-25-25 s11.215-25,25-25s25,11.215,25,25S178.785,190,165,190z M245,190c-13.785,0-25-11.215-25-25s11.215-25,25-25 c13.785,0,25,11.215,25,25S258.785,190,245,190z"></path></a></g></svg></svg></svg>