<svg version="1.1" xmlns="http://www.w3.org/2000/svg" xmlns:xlink="http://www.w3.org/1999/xlink" fill="transparent" x="0" y="0" width="350" height="350" preserveAspectRatio="xMinYMin slice"><style type="text/css">.links{fill:transparent;stroke: #E4CF37;}.links:hover{fill:#63D272; opacity:0.4;}</style><defs><g id="allt"><path id="t4284" d="M4125,1024 L4115,1022 C4106,1021 4117,1030 4107,1031 C4098,1032 4110,1024 4101,1024 L4092,1024 4092,1024 L4093,1034 C4094,1044 4087,1032 4087,1041 C4087,1051 4092,1037 4092,1046 L4092,1056 4092,1056 L4102,1057 C4113,1058 4101,1051 4110,1051 C4120,1051 4105,1056 4115,1056 L4125,1056 4125,1056 L4125,1046 C4125,1037 4117,1049 4118,1041 C4120,1033 4128,1045 4126,1034 L4125,1024"/></g><clipPath id="c" clipRule="evenodd" fill="transparent"><use href="#t4284"/></clipPath></defs><svg viewBox="4086 1020 43 39" preserveAspectRatio="xMinYMin meet"><svg width="4380" height="2430"><g><image crossorigin="anonymous" x="0" y="0" href="https://nftpuzzle.license-token.com/assets/completepuzzle.svg" width="100%" height="100%" /><g class="links"><use href="#t4284"/></g></g></svg><svg x="4114" y="1044" height="9%" width="9%" viewBox="0 0 330 330"><g><a xlink:href="https://nftpuzzle.license-token.com/" class="links"><title>See the most innovative NFT based token software licensing project</title><path fill="#E4CF37" id="more" d="M165,0C74.019,0,0,74.019,0,165s74.019,165,165,165s165-74.019,165-165S255.981,0,165,0z M85,190 c-13.785,0-25-11.215-25-25s11.215-25,25-25s25,11.215,25,25S98.785,190,85,190z M165,190c-13.785,0-25-11.215-25-25 s11.215-25,25-25s25,11.215,25,25S178.785,190,165,190z M245,190c-13.785,0-25-11.215-25-25s11.215-25,25-25 c13.785,0,25,11.215,25,25S258.785,190,245,190z"></path></a></g></svg></svg></svg>