<svg version="1.1" xmlns="http://www.w3.org/2000/svg" xmlns:xlink="http://www.w3.org/1999/xlink" fill="transparent" x="0" y="0" width="350" height="350" preserveAspectRatio="xMinYMin slice"><style type="text/css">.links{fill:transparent;stroke: #E4CF37;}.links:hover{fill:#63D272; opacity:0.4;}</style><defs><g id="allt"><path id="t4289" d="M4290,1024 L4279,1021 C4268,1019 4282,1031 4273,1032 C4265,1034 4276,1023 4266,1023 L4257,1024 4257,1024 L4257,1033 C4257,1042 4263,1032 4262,1039 C4262,1046 4256,1037 4256,1046 L4257,1056 4257,1056 L4266,1056 C4276,1056 4265,1062 4272,1061 C4280,1061 4270,1055 4280,1055 L4290,1056 L4290,1056 L4290,1024"/></g><clipPath id="c" clipRule="evenodd" fill="transparent"><use href="#t4289"/></clipPath></defs><svg viewBox="4255 1018 36 45" preserveAspectRatio="xMinYMin meet"><svg width="4380" height="2430"><g><image crossorigin="anonymous" x="0" y="0" href="https://nftpuzzle.license-token.com/assets/completepuzzle.svg" width="100%" height="100%" /><g class="links"><use href="#t4289"/></g></g></svg><svg x="4276" y="1048" height="9%" width="9%" viewBox="0 0 330 330"><g><a xlink:href="https://nftpuzzle.license-token.com/" class="links"><title>See the most innovative NFT based token software licensing project</title><path fill="#E4CF37" id="more" d="M165,0C74.019,0,0,74.019,0,165s74.019,165,165,165s165-74.019,165-165S255.981,0,165,0z M85,190 c-13.785,0-25-11.215-25-25s11.215-25,25-25s25,11.215,25,25S98.785,190,85,190z M165,190c-13.785,0-25-11.215-25-25 s11.215-25,25-25s25,11.215,25,25S178.785,190,165,190z M245,190c-13.785,0-25-11.215-25-25s11.215-25,25-25 c13.785,0,25,11.215,25,25S258.785,190,245,190z"></path></a></g></svg></svg></svg>