<svg version="1.1" xmlns="http://www.w3.org/2000/svg" xmlns:xlink="http://www.w3.org/1999/xlink" fill="transparent" x="0" y="0" width="350" height="350" preserveAspectRatio="xMinYMin slice"><style type="text/css">.links{fill:transparent;stroke: #E4CF37;}.links:hover{fill:#63D272; opacity:0.4;}</style><defs><g id="allt"><path id="t429" d="M1320,96 L1310,95 C1300,94 1310,103 1302,103 C1294,103 1306,94 1296,95 L1287,96 1287,96 L1287,105 C1287,114 1296,103 1296,112 C1297,121 1287,110 1287,119 L1287,128 1287,128 L1296,128 C1306,128 1294,137 1303,137 C1313,138 1301,128 1310,128 L1320,128 1320,128 L1321,119 C1323,110 1315,119 1315,111 C1315,104 1320,115 1320,105 L1320,96"/></g><clipPath id="c" clipRule="evenodd" fill="transparent"><use href="#t429"/></clipPath></defs><svg viewBox="1286 93 38 46" preserveAspectRatio="xMinYMin meet"><svg width="4380" height="2430"><g><image crossorigin="anonymous" x="0" y="0" href="https://nftpuzzle.license-token.com/assets/completepuzzle.svg" width="100%" height="100%" /><g class="links"><use href="#t429"/></g></g></svg><svg x="1309" y="124" height="9%" width="9%" viewBox="0 0 330 330"><g><a xlink:href="https://nftpuzzle.license-token.com/" class="links"><title>See the most innovative NFT based token software licensing project</title><path fill="#E4CF37" id="more" d="M165,0C74.019,0,0,74.019,0,165s74.019,165,165,165s165-74.019,165-165S255.981,0,165,0z M85,190 c-13.785,0-25-11.215-25-25s11.215-25,25-25s25,11.215,25,25S98.785,190,85,190z M165,190c-13.785,0-25-11.215-25-25 s11.215-25,25-25s25,11.215,25,25S178.785,190,165,190z M245,190c-13.785,0-25-11.215-25-25s11.215-25,25-25 c13.785,0,25,11.215,25,25S258.785,190,245,190z"></path></a></g></svg></svg></svg>