<svg version="1.1" xmlns="http://www.w3.org/2000/svg" xmlns:xlink="http://www.w3.org/1999/xlink" fill="transparent" x="0" y="0" width="350" height="350" preserveAspectRatio="xMinYMin slice"><style type="text/css">.links{fill:transparent;stroke: #E4CF37;}.links:hover{fill:#63D272; opacity:0.4;}</style><defs><g id="allt"><path id="t4291" d="M66,1056 L56,1057 C46,1058 58,1052 50,1050 C42,1049 52,1056 42,1056 L33,1056 33,1056 L32,1066 C32,1077 39,1061 41,1070 C43,1080 30,1067 31,1077 L33,1088 33,1088 L44,1087 C55,1087 38,1094 47,1096 C57,1098 44,1085 55,1086 L66,1088 66,1088 L64,1077 C63,1067 76,1083 74,1073 C72,1063 66,1075 66,1065 L66,1056"/></g><clipPath id="c" clipRule="evenodd" fill="transparent"><use href="#t4291"/></clipPath></defs><svg viewBox="29 1048 48 51" preserveAspectRatio="xMinYMin meet"><svg width="4380" height="2430"><g><image crossorigin="anonymous" x="0" y="0" href="https://nftpuzzle.license-token.com/assets/completepuzzle.svg" width="100%" height="100%" /><g class="links"><use href="#t4291"/></g></g></svg><svg x="62" y="1084" height="9%" width="9%" viewBox="0 0 330 330"><g><a xlink:href="https://nftpuzzle.license-token.com/" class="links"><title>See the most innovative NFT based token software licensing project</title><path fill="#E4CF37" id="more" d="M165,0C74.019,0,0,74.019,0,165s74.019,165,165,165s165-74.019,165-165S255.981,0,165,0z M85,190 c-13.785,0-25-11.215-25-25s11.215-25,25-25s25,11.215,25,25S98.785,190,85,190z M165,190c-13.785,0-25-11.215-25-25 s11.215-25,25-25s25,11.215,25,25S178.785,190,165,190z M245,190c-13.785,0-25-11.215-25-25s11.215-25,25-25 c13.785,0,25,11.215,25,25S258.785,190,245,190z"></path></a></g></svg></svg></svg>