<svg version="1.1" xmlns="http://www.w3.org/2000/svg" xmlns:xlink="http://www.w3.org/1999/xlink" fill="transparent" x="0" y="0" width="350" height="350" preserveAspectRatio="xMinYMin slice"><style type="text/css">.links{fill:transparent;stroke: #E4CF37;}.links:hover{fill:#63D272; opacity:0.4;}</style><defs><g id="allt"><path id="t4293" d="M132,1056 L122,1057 C112,1058 123,1048 114,1048 C105,1049 120,1057 109,1056 L99,1056 99,1056 L100,1066 C101,1077 92,1063 92,1070 C92,1078 103,1068 101,1078 L99,1088 99,1088 L109,1089 C120,1090 106,1081 114,1081 C122,1081 112,1092 122,1090 L132,1088 132,1088 L132,1079 C132,1070 125,1082 124,1073 C124,1065 132,1075 132,1065 L132,1056"/></g><clipPath id="c" clipRule="evenodd" fill="transparent"><use href="#t4293"/></clipPath></defs><svg viewBox="91 1047 42 46" preserveAspectRatio="xMinYMin meet"><svg width="4380" height="2430"><g><image crossorigin="anonymous" x="0" y="0" href="https://nftpuzzle.license-token.com/assets/completepuzzle.svg" width="100%" height="100%" /><g class="links"><use href="#t4293"/></g></g></svg><svg x="118" y="1078" height="9%" width="9%" viewBox="0 0 330 330"><g><a xlink:href="https://nftpuzzle.license-token.com/" class="links"><title>See the most innovative NFT based token software licensing project</title><path fill="#E4CF37" id="more" d="M165,0C74.019,0,0,74.019,0,165s74.019,165,165,165s165-74.019,165-165S255.981,0,165,0z M85,190 c-13.785,0-25-11.215-25-25s11.215-25,25-25s25,11.215,25,25S98.785,190,85,190z M165,190c-13.785,0-25-11.215-25-25 s11.215-25,25-25s25,11.215,25,25S178.785,190,165,190z M245,190c-13.785,0-25-11.215-25-25s11.215-25,25-25 c13.785,0,25,11.215,25,25S258.785,190,245,190z"></path></a></g></svg></svg></svg>