<svg version="1.1" xmlns="http://www.w3.org/2000/svg" xmlns:xlink="http://www.w3.org/1999/xlink" fill="transparent" x="0" y="0" width="350" height="350" preserveAspectRatio="xMinYMin slice"><style type="text/css">.links{fill:transparent;stroke: #E4CF37;}.links:hover{fill:#63D272; opacity:0.4;}</style><defs><g id="allt"><path id="t4295" d="M198,1056 L187,1057 C176,1058 189,1048 180,1047 C171,1046 183,1056 174,1056 L165,1056 165,1056 L165,1065 C165,1074 161,1063 159,1072 C158,1081 165,1069 165,1078 L165,1088 165,1088 L174,1088 C184,1088 172,1084 181,1082 C191,1081 178,1088 188,1088 L198,1088 198,1088 L196,1078 C194,1068 203,1081 205,1071 C207,1061 197,1076 197,1066 L198,1056"/></g><clipPath id="c" clipRule="evenodd" fill="transparent"><use href="#t4295"/></clipPath></defs><svg viewBox="157 1045 51 44" preserveAspectRatio="xMinYMin meet"><svg width="4380" height="2430"><g><image crossorigin="anonymous" x="0" y="0" href="https://nftpuzzle.license-token.com/assets/completepuzzle.svg" width="100%" height="100%" /><g class="links"><use href="#t4295"/></g></g></svg><svg x="193" y="1074" height="9%" width="9%" viewBox="0 0 330 330"><g><a xlink:href="https://nftpuzzle.license-token.com/" class="links"><title>See the most innovative NFT based token software licensing project</title><path fill="#E4CF37" id="more" d="M165,0C74.019,0,0,74.019,0,165s74.019,165,165,165s165-74.019,165-165S255.981,0,165,0z M85,190 c-13.785,0-25-11.215-25-25s11.215-25,25-25s25,11.215,25,25S98.785,190,85,190z M165,190c-13.785,0-25-11.215-25-25 s11.215-25,25-25s25,11.215,25,25S178.785,190,165,190z M245,190c-13.785,0-25-11.215-25-25s11.215-25,25-25 c13.785,0,25,11.215,25,25S258.785,190,245,190z"></path></a></g></svg></svg></svg>