<svg version="1.1" xmlns="http://www.w3.org/2000/svg" xmlns:xlink="http://www.w3.org/1999/xlink" fill="transparent" x="0" y="0" width="350" height="350" preserveAspectRatio="xMinYMin slice"><style type="text/css">.links{fill:transparent;stroke: #E4CF37;}.links:hover{fill:#63D272; opacity:0.4;}</style><defs><g id="allt"><path id="t4296" d="M231,1056 L221,1056 C212,1056 221,1063 213,1063 C206,1064 219,1056 208,1056 L198,1056 198,1056 L197,1066 C197,1076 207,1061 205,1071 C203,1081 194,1068 196,1078 L198,1088 198,1088 L208,1087 C219,1087 203,1097 213,1095 C224,1093 210,1084 220,1086 L231,1088 231,1088 L231,1078 C231,1069 235,1082 236,1072 C237,1062 229,1076 230,1066 L231,1056"/></g><clipPath id="c" clipRule="evenodd" fill="transparent"><use href="#t4296"/></clipPath></defs><svg viewBox="193 1055 45 43" preserveAspectRatio="xMinYMin meet"><svg width="4380" height="2430"><g><image crossorigin="anonymous" x="0" y="0" href="https://nftpuzzle.license-token.com/assets/completepuzzle.svg" width="100%" height="100%" /><g class="links"><use href="#t4296"/></g></g></svg><svg x="223" y="1083" height="9%" width="9%" viewBox="0 0 330 330"><g><a xlink:href="https://nftpuzzle.license-token.com/" class="links"><title>See the most innovative NFT based token software licensing project</title><path fill="#E4CF37" id="more" d="M165,0C74.019,0,0,74.019,0,165s74.019,165,165,165s165-74.019,165-165S255.981,0,165,0z M85,190 c-13.785,0-25-11.215-25-25s11.215-25,25-25s25,11.215,25,25S98.785,190,85,190z M165,190c-13.785,0-25-11.215-25-25 s11.215-25,25-25s25,11.215,25,25S178.785,190,165,190z M245,190c-13.785,0-25-11.215-25-25s11.215-25,25-25 c13.785,0,25,11.215,25,25S258.785,190,245,190z"></path></a></g></svg></svg></svg>