<svg version="1.1" xmlns="http://www.w3.org/2000/svg" xmlns:xlink="http://www.w3.org/1999/xlink" fill="transparent" x="0" y="0" width="350" height="350" preserveAspectRatio="xMinYMin slice"><style type="text/css">.links{fill:transparent;stroke: #E4CF37;}.links:hover{fill:#63D272; opacity:0.4;}</style><defs><g id="allt"><path id="t4299" d="M330,1056 L320,1058 C311,1061 323,1047 314,1047 C306,1047 315,1062 306,1059 L297,1056 297,1056 L297,1066 C297,1076 290,1064 291,1073 C292,1082 300,1068 298,1078 L297,1088 297,1088 L307,1088 C318,1088 305,1081 314,1082 C324,1083 310,1091 320,1089 L330,1088 330,1088 L329,1078 C328,1068 336,1082 335,1073 C334,1064 330,1077 330,1066 L330,1056"/></g><clipPath id="c" clipRule="evenodd" fill="transparent"><use href="#t4299"/></clipPath></defs><svg viewBox="289 1046 48 46" preserveAspectRatio="xMinYMin meet"><svg width="4380" height="2430"><g><image crossorigin="anonymous" x="0" y="0" href="https://nftpuzzle.license-token.com/assets/completepuzzle.svg" width="100%" height="100%" /><g class="links"><use href="#t4299"/></g></g></svg><svg x="322" y="1077" height="9%" width="9%" viewBox="0 0 330 330"><g><a xlink:href="https://nftpuzzle.license-token.com/" class="links"><title>See the most innovative NFT based token software licensing project</title><path fill="#E4CF37" id="more" d="M165,0C74.019,0,0,74.019,0,165s74.019,165,165,165s165-74.019,165-165S255.981,0,165,0z M85,190 c-13.785,0-25-11.215-25-25s11.215-25,25-25s25,11.215,25,25S98.785,190,85,190z M165,190c-13.785,0-25-11.215-25-25 s11.215-25,25-25s25,11.215,25,25S178.785,190,165,190z M245,190c-13.785,0-25-11.215-25-25s11.215-25,25-25 c13.785,0,25,11.215,25,25S258.785,190,245,190z"></path></a></g></svg></svg></svg>