<svg version="1.1" xmlns="http://www.w3.org/2000/svg" xmlns:xlink="http://www.w3.org/1999/xlink" fill="transparent" x="0" y="0" width="350" height="350" preserveAspectRatio="xMinYMin slice"><style type="text/css">.links{fill:transparent;stroke: #E4CF37;}.links:hover{fill:#63D272; opacity:0.4;}</style><defs><g id="allt"><path id="t430" d="M1353,96 L1342,96 C1332,97 1344,102 1336,101 C1329,101 1338,95 1329,95 L1320,96 1320,96 L1320,105 C1320,115 1315,104 1315,111 C1315,119 1323,110 1321,119 L1320,128 1320,128 L1330,128 C1340,128 1329,123 1336,123 C1343,123 1334,131 1343,129 L1353,128 1353,128 L1355,117 C1358,106 1348,119 1345,110 C1343,101 1353,116 1353,106 L1353,96"/></g><clipPath id="c" clipRule="evenodd" fill="transparent"><use href="#t430"/></clipPath></defs><svg viewBox="1314 94 45 38" preserveAspectRatio="xMinYMin meet"><svg width="4380" height="2430"><g><image crossorigin="anonymous" x="0" y="0" href="https://nftpuzzle.license-token.com/assets/completepuzzle.svg" width="100%" height="100%" /><g class="links"><use href="#t430"/></g></g></svg><svg x="1344" y="117" height="9%" width="9%" viewBox="0 0 330 330"><g><a xlink:href="https://nftpuzzle.license-token.com/" class="links"><title>See the most innovative NFT based token software licensing project</title><path fill="#E4CF37" id="more" d="M165,0C74.019,0,0,74.019,0,165s74.019,165,165,165s165-74.019,165-165S255.981,0,165,0z M85,190 c-13.785,0-25-11.215-25-25s11.215-25,25-25s25,11.215,25,25S98.785,190,85,190z M165,190c-13.785,0-25-11.215-25-25 s11.215-25,25-25s25,11.215,25,25S178.785,190,165,190z M245,190c-13.785,0-25-11.215-25-25s11.215-25,25-25 c13.785,0,25,11.215,25,25S258.785,190,245,190z"></path></a></g></svg></svg></svg>