<svg version="1.1" xmlns="http://www.w3.org/2000/svg" xmlns:xlink="http://www.w3.org/1999/xlink" fill="transparent" x="0" y="0" width="350" height="350" preserveAspectRatio="xMinYMin slice"><style type="text/css">.links{fill:transparent;stroke: #E4CF37;}.links:hover{fill:#63D272; opacity:0.4;}</style><defs><g id="allt"><path id="t4302" d="M429,1056 L418,1056 C408,1056 419,1048 410,1049 C402,1051 417,1059 406,1057 L396,1056 396,1056 L394,1066 C392,1077 401,1064 401,1072 C402,1081 392,1066 394,1077 L396,1088 396,1088 L406,1086 C417,1084 404,1093 413,1093 C422,1094 406,1084 417,1086 L429,1088 429,1088 L429,1077 C430,1067 418,1080 418,1071 C419,1063 429,1077 429,1066 L429,1056"/></g><clipPath id="c" clipRule="evenodd" fill="transparent"><use href="#t4302"/></clipPath></defs><svg viewBox="391 1047 40 48" preserveAspectRatio="xMinYMin meet"><svg width="4380" height="2430"><g><image crossorigin="anonymous" x="0" y="0" href="https://nftpuzzle.license-token.com/assets/completepuzzle.svg" width="100%" height="100%" /><g class="links"><use href="#t4302"/></g></g></svg><svg x="416" y="1080" height="9%" width="9%" viewBox="0 0 330 330"><g><a xlink:href="https://nftpuzzle.license-token.com/" class="links"><title>See the most innovative NFT based token software licensing project</title><path fill="#E4CF37" id="more" d="M165,0C74.019,0,0,74.019,0,165s74.019,165,165,165s165-74.019,165-165S255.981,0,165,0z M85,190 c-13.785,0-25-11.215-25-25s11.215-25,25-25s25,11.215,25,25S98.785,190,85,190z M165,190c-13.785,0-25-11.215-25-25 s11.215-25,25-25s25,11.215,25,25S178.785,190,165,190z M245,190c-13.785,0-25-11.215-25-25s11.215-25,25-25 c13.785,0,25,11.215,25,25S258.785,190,245,190z"></path></a></g></svg></svg></svg>