<svg version="1.1" xmlns="http://www.w3.org/2000/svg" xmlns:xlink="http://www.w3.org/1999/xlink" fill="transparent" x="0" y="0" width="350" height="350" preserveAspectRatio="xMinYMin slice"><style type="text/css">.links{fill:transparent;stroke: #E4CF37;}.links:hover{fill:#63D272; opacity:0.4;}</style><defs><g id="allt"><path id="t4303" d="M462,1056 L451,1056 C440,1057 455,1052 445,1052 C435,1053 447,1056 438,1056 L429,1056 429,1056 L429,1066 C429,1077 419,1063 418,1071 C418,1080 430,1067 429,1077 L429,1088 429,1088 L439,1088 C450,1088 436,1078 444,1078 C453,1078 440,1089 451,1088 L462,1088 462,1088 L461,1079 C460,1070 467,1080 468,1071 C469,1062 462,1075 462,1065 L462,1056"/></g><clipPath id="c" clipRule="evenodd" fill="transparent"><use href="#t4303"/></clipPath></defs><svg viewBox="417 1051 53 39" preserveAspectRatio="xMinYMin meet"><svg width="4380" height="2430"><g><image crossorigin="anonymous" x="0" y="0" href="https://nftpuzzle.license-token.com/assets/completepuzzle.svg" width="100%" height="100%" /><g class="links"><use href="#t4303"/></g></g></svg><svg x="455" y="1075" height="9%" width="9%" viewBox="0 0 330 330"><g><a xlink:href="https://nftpuzzle.license-token.com/" class="links"><title>See the most innovative NFT based token software licensing project</title><path fill="#E4CF37" id="more" d="M165,0C74.019,0,0,74.019,0,165s74.019,165,165,165s165-74.019,165-165S255.981,0,165,0z M85,190 c-13.785,0-25-11.215-25-25s11.215-25,25-25s25,11.215,25,25S98.785,190,85,190z M165,190c-13.785,0-25-11.215-25-25 s11.215-25,25-25s25,11.215,25,25S178.785,190,165,190z M245,190c-13.785,0-25-11.215-25-25s11.215-25,25-25 c13.785,0,25,11.215,25,25S258.785,190,245,190z"></path></a></g></svg></svg></svg>