<svg version="1.1" xmlns="http://www.w3.org/2000/svg" xmlns:xlink="http://www.w3.org/1999/xlink" fill="transparent" x="0" y="0" width="350" height="350" preserveAspectRatio="xMinYMin slice"><style type="text/css">.links{fill:transparent;stroke: #E4CF37;}.links:hover{fill:#63D272; opacity:0.4;}</style><defs><g id="allt"><path id="t4307" d="M594,1056 L583,1056 C572,1056 588,1053 577,1052 C567,1052 583,1056 572,1056 L561,1056 561,1056 L562,1066 C563,1076 557,1063 554,1072 C552,1082 561,1068 561,1078 L561,1088 561,1088 L571,1089 C582,1090 568,1084 578,1081 C588,1079 574,1088 584,1088 L594,1088 594,1088 L593,1078 C593,1068 602,1079 601,1071 C600,1064 594,1074 594,1065 L594,1056"/></g><clipPath id="c" clipRule="evenodd" fill="transparent"><use href="#t4307"/></clipPath></defs><svg viewBox="551 1051 52 40" preserveAspectRatio="xMinYMin meet"><svg width="4380" height="2430"><g><image crossorigin="anonymous" x="0" y="0" href="https://nftpuzzle.license-token.com/assets/completepuzzle.svg" width="100%" height="100%" /><g class="links"><use href="#t4307"/></g></g></svg><svg x="588" y="1076" height="9%" width="9%" viewBox="0 0 330 330"><g><a xlink:href="https://nftpuzzle.license-token.com/" class="links"><title>See the most innovative NFT based token software licensing project</title><path fill="#E4CF37" id="more" d="M165,0C74.019,0,0,74.019,0,165s74.019,165,165,165s165-74.019,165-165S255.981,0,165,0z M85,190 c-13.785,0-25-11.215-25-25s11.215-25,25-25s25,11.215,25,25S98.785,190,85,190z M165,190c-13.785,0-25-11.215-25-25 s11.215-25,25-25s25,11.215,25,25S178.785,190,165,190z M245,190c-13.785,0-25-11.215-25-25s11.215-25,25-25 c13.785,0,25,11.215,25,25S258.785,190,245,190z"></path></a></g></svg></svg></svg>