<svg version="1.1" xmlns="http://www.w3.org/2000/svg" xmlns:xlink="http://www.w3.org/1999/xlink" fill="transparent" x="0" y="0" width="350" height="350" preserveAspectRatio="xMinYMin slice"><style type="text/css">.links{fill:transparent;stroke: #E4CF37;}.links:hover{fill:#63D272; opacity:0.4;}</style><defs><g id="allt"><path id="t4309" d="M660,1056 L650,1056 C641,1056 652,1063 644,1062 C636,1062 647,1054 637,1055 L627,1056 627,1056 L626,1064 C625,1073 633,1064 632,1073 C631,1082 627,1068 627,1078 L627,1088 627,1088 L636,1087 C645,1086 635,1094 644,1093 C654,1092 640,1088 650,1088 L660,1088 660,1088 L659,1078 C658,1068 670,1080 669,1071 C669,1063 659,1076 659,1066 L660,1056"/></g><clipPath id="c" clipRule="evenodd" fill="transparent"><use href="#t4309"/></clipPath></defs><svg viewBox="624 1053 47 42" preserveAspectRatio="xMinYMin meet"><svg width="4380" height="2430"><g><image crossorigin="anonymous" x="0" y="0" href="https://nftpuzzle.license-token.com/assets/completepuzzle.svg" width="100%" height="100%" /><g class="links"><use href="#t4309"/></g></g></svg><svg x="656" y="1080" height="9%" width="9%" viewBox="0 0 330 330"><g><a xlink:href="https://nftpuzzle.license-token.com/" class="links"><title>See the most innovative NFT based token software licensing project</title><path fill="#E4CF37" id="more" d="M165,0C74.019,0,0,74.019,0,165s74.019,165,165,165s165-74.019,165-165S255.981,0,165,0z M85,190 c-13.785,0-25-11.215-25-25s11.215-25,25-25s25,11.215,25,25S98.785,190,85,190z M165,190c-13.785,0-25-11.215-25-25 s11.215-25,25-25s25,11.215,25,25S178.785,190,165,190z M245,190c-13.785,0-25-11.215-25-25s11.215-25,25-25 c13.785,0,25,11.215,25,25S258.785,190,245,190z"></path></a></g></svg></svg></svg>