<svg version="1.1" xmlns="http://www.w3.org/2000/svg" xmlns:xlink="http://www.w3.org/1999/xlink" fill="transparent" x="0" y="0" width="350" height="350" preserveAspectRatio="xMinYMin slice"><style type="text/css">.links{fill:transparent;stroke: #E4CF37;}.links:hover{fill:#63D272; opacity:0.4;}</style><defs><g id="allt"><path id="t4310" d="M693,1056 L681,1056 C670,1056 684,1048 675,1049 C666,1051 680,1056 670,1056 L660,1056 660,1056 L659,1066 C659,1076 669,1063 669,1071 C670,1080 658,1068 659,1078 L660,1088 660,1088 L670,1087 C680,1087 667,1097 676,1097 C685,1097 672,1086 682,1087 L693,1088 693,1088 L693,1078 C694,1068 689,1082 689,1073 C689,1065 694,1073 693,1064 L693,1056"/></g><clipPath id="c" clipRule="evenodd" fill="transparent"><use href="#t4310"/></clipPath></defs><svg viewBox="657 1047 38 51" preserveAspectRatio="xMinYMin meet"><svg width="4380" height="2430"><g><image crossorigin="anonymous" x="0" y="0" href="https://nftpuzzle.license-token.com/assets/completepuzzle.svg" width="100%" height="100%" /><g class="links"><use href="#t4310"/></g></g></svg><svg x="680" y="1083" height="9%" width="9%" viewBox="0 0 330 330"><g><a xlink:href="https://nftpuzzle.license-token.com/" class="links"><title>See the most innovative NFT based token software licensing project</title><path fill="#E4CF37" id="more" d="M165,0C74.019,0,0,74.019,0,165s74.019,165,165,165s165-74.019,165-165S255.981,0,165,0z M85,190 c-13.785,0-25-11.215-25-25s11.215-25,25-25s25,11.215,25,25S98.785,190,85,190z M165,190c-13.785,0-25-11.215-25-25 s11.215-25,25-25s25,11.215,25,25S178.785,190,165,190z M245,190c-13.785,0-25-11.215-25-25s11.215-25,25-25 c13.785,0,25,11.215,25,25S258.785,190,245,190z"></path></a></g></svg></svg></svg>