<svg version="1.1" xmlns="http://www.w3.org/2000/svg" xmlns:xlink="http://www.w3.org/1999/xlink" fill="transparent" x="0" y="0" width="350" height="350" preserveAspectRatio="xMinYMin slice"><style type="text/css">.links{fill:transparent;stroke: #E4CF37;}.links:hover{fill:#63D272; opacity:0.4;}</style><defs><g id="allt"><path id="t4312" d="M759,1056 L748,1054 C738,1052 753,1061 743,1061 C733,1062 748,1056 737,1056 L726,1056 726,1056 L725,1065 C725,1074 733,1064 733,1073 C734,1083 725,1070 725,1079 L726,1088 726,1088 L735,1087 C745,1087 734,1095 744,1095 C754,1096 740,1087 749,1087 L759,1088 759,1088 L758,1079 C758,1070 765,1080 766,1071 C768,1062 757,1073 758,1064 L759,1056"/></g><clipPath id="c" clipRule="evenodd" fill="transparent"><use href="#t4312"/></clipPath></defs><svg viewBox="724 1051 45 46" preserveAspectRatio="xMinYMin meet"><svg width="4380" height="2430"><g><image crossorigin="anonymous" x="0" y="0" href="https://nftpuzzle.license-token.com/assets/completepuzzle.svg" width="100%" height="100%" /><g class="links"><use href="#t4312"/></g></g></svg><svg x="754" y="1082" height="9%" width="9%" viewBox="0 0 330 330"><g><a xlink:href="https://nftpuzzle.license-token.com/" class="links"><title>See the most innovative NFT based token software licensing project</title><path fill="#E4CF37" id="more" d="M165,0C74.019,0,0,74.019,0,165s74.019,165,165,165s165-74.019,165-165S255.981,0,165,0z M85,190 c-13.785,0-25-11.215-25-25s11.215-25,25-25s25,11.215,25,25S98.785,190,85,190z M165,190c-13.785,0-25-11.215-25-25 s11.215-25,25-25s25,11.215,25,25S178.785,190,165,190z M245,190c-13.785,0-25-11.215-25-25s11.215-25,25-25 c13.785,0,25,11.215,25,25S258.785,190,245,190z"></path></a></g></svg></svg></svg>