<svg version="1.1" xmlns="http://www.w3.org/2000/svg" xmlns:xlink="http://www.w3.org/1999/xlink" fill="transparent" x="0" y="0" width="350" height="350" preserveAspectRatio="xMinYMin slice"><style type="text/css">.links{fill:transparent;stroke: #E4CF37;}.links:hover{fill:#63D272; opacity:0.4;}</style><defs><g id="allt"><path id="t4313" d="M792,1056 L781,1056 C770,1056 786,1049 776,1049 C767,1049 777,1058 768,1057 L759,1056 759,1056 L758,1064 C757,1073 768,1062 766,1071 C765,1080 758,1070 758,1079 L759,1088 759,1088 L768,1087 C777,1086 765,1096 774,1095 C784,1094 773,1087 782,1087 L792,1088 792,1088 L792,1079 C792,1070 789,1080 788,1072 C788,1064 792,1074 792,1065 L792,1056"/></g><clipPath id="c" clipRule="evenodd" fill="transparent"><use href="#t4313"/></clipPath></defs><svg viewBox="756 1048 37 49" preserveAspectRatio="xMinYMin meet"><svg width="4380" height="2430"><g><image crossorigin="anonymous" x="0" y="0" href="https://nftpuzzle.license-token.com/assets/completepuzzle.svg" width="100%" height="100%" /><g class="links"><use href="#t4313"/></g></g></svg><svg x="778" y="1082" height="9%" width="9%" viewBox="0 0 330 330"><g><a xlink:href="https://nftpuzzle.license-token.com/" class="links"><title>See the most innovative NFT based token software licensing project</title><path fill="#E4CF37" id="more" d="M165,0C74.019,0,0,74.019,0,165s74.019,165,165,165s165-74.019,165-165S255.981,0,165,0z M85,190 c-13.785,0-25-11.215-25-25s11.215-25,25-25s25,11.215,25,25S98.785,190,85,190z M165,190c-13.785,0-25-11.215-25-25 s11.215-25,25-25s25,11.215,25,25S178.785,190,165,190z M245,190c-13.785,0-25-11.215-25-25s11.215-25,25-25 c13.785,0,25,11.215,25,25S258.785,190,245,190z"></path></a></g></svg></svg></svg>