<svg version="1.1" xmlns="http://www.w3.org/2000/svg" xmlns:xlink="http://www.w3.org/1999/xlink" fill="transparent" x="0" y="0" width="350" height="350" preserveAspectRatio="xMinYMin slice"><style type="text/css">.links{fill:transparent;stroke: #E4CF37;}.links:hover{fill:#63D272; opacity:0.4;}</style><defs><g id="allt"><path id="t4314" d="M825,1056 L814,1056 C804,1056 817,1053 807,1052 C797,1052 810,1056 801,1056 L792,1056 792,1056 L792,1065 C792,1074 788,1064 788,1072 C789,1080 792,1070 792,1079 L792,1088 792,1088 L801,1088 C810,1088 800,1084 808,1084 C817,1085 806,1088 815,1088 L825,1088 825,1088 L825,1079 C826,1070 818,1080 818,1072 C818,1065 825,1074 825,1065 L825,1056"/></g><clipPath id="c" clipRule="evenodd" fill="transparent"><use href="#t4314"/></clipPath></defs><svg viewBox="787 1051 40 38" preserveAspectRatio="xMinYMin meet"><svg width="4380" height="2430"><g><image crossorigin="anonymous" x="0" y="0" href="https://nftpuzzle.license-token.com/assets/completepuzzle.svg" width="100%" height="100%" /><g class="links"><use href="#t4314"/></g></g></svg><svg x="812" y="1074" height="9%" width="9%" viewBox="0 0 330 330"><g><a xlink:href="https://nftpuzzle.license-token.com/" class="links"><title>See the most innovative NFT based token software licensing project</title><path fill="#E4CF37" id="more" d="M165,0C74.019,0,0,74.019,0,165s74.019,165,165,165s165-74.019,165-165S255.981,0,165,0z M85,190 c-13.785,0-25-11.215-25-25s11.215-25,25-25s25,11.215,25,25S98.785,190,85,190z M165,190c-13.785,0-25-11.215-25-25 s11.215-25,25-25s25,11.215,25,25S178.785,190,165,190z M245,190c-13.785,0-25-11.215-25-25s11.215-25,25-25 c13.785,0,25,11.215,25,25S258.785,190,245,190z"></path></a></g></svg></svg></svg>