<svg version="1.1" xmlns="http://www.w3.org/2000/svg" xmlns:xlink="http://www.w3.org/1999/xlink" fill="transparent" x="0" y="0" width="350" height="350" preserveAspectRatio="xMinYMin slice"><style type="text/css">.links{fill:transparent;stroke: #E4CF37;}.links:hover{fill:#63D272; opacity:0.4;}</style><defs><g id="allt"><path id="t4316" d="M891,1056 L880,1056 C869,1056 884,1049 875,1048 C867,1047 876,1061 867,1058 L858,1056 858,1056 L858,1066 C859,1076 855,1060 854,1070 C854,1081 858,1068 858,1078 L858,1088 858,1088 L868,1088 C878,1089 862,1085 873,1084 C884,1084 871,1088 881,1088 L891,1088 891,1088 L891,1079 C891,1070 881,1079 883,1071 C886,1064 891,1077 891,1066 L891,1056"/></g><clipPath id="c" clipRule="evenodd" fill="transparent"><use href="#t4316"/></clipPath></defs><svg viewBox="853 1046 39 44" preserveAspectRatio="xMinYMin meet"><svg width="4380" height="2430"><g><image crossorigin="anonymous" x="0" y="0" href="https://nftpuzzle.license-token.com/assets/completepuzzle.svg" width="100%" height="100%" /><g class="links"><use href="#t4316"/></g></g></svg><svg x="877" y="1075" height="9%" width="9%" viewBox="0 0 330 330"><g><a xlink:href="https://nftpuzzle.license-token.com/" class="links"><title>See the most innovative NFT based token software licensing project</title><path fill="#E4CF37" id="more" d="M165,0C74.019,0,0,74.019,0,165s74.019,165,165,165s165-74.019,165-165S255.981,0,165,0z M85,190 c-13.785,0-25-11.215-25-25s11.215-25,25-25s25,11.215,25,25S98.785,190,85,190z M165,190c-13.785,0-25-11.215-25-25 s11.215-25,25-25s25,11.215,25,25S178.785,190,165,190z M245,190c-13.785,0-25-11.215-25-25s11.215-25,25-25 c13.785,0,25,11.215,25,25S258.785,190,245,190z"></path></a></g></svg></svg></svg>