<svg version="1.1" xmlns="http://www.w3.org/2000/svg" xmlns:xlink="http://www.w3.org/1999/xlink" fill="transparent" x="0" y="0" width="350" height="350" preserveAspectRatio="xMinYMin slice"><style type="text/css">.links{fill:transparent;stroke: #E4CF37;}.links:hover{fill:#63D272; opacity:0.4;}</style><defs><g id="allt"><path id="t4327" d="M1254,1056 L1244,1057 C1234,1058 1244,1048 1235,1047 C1226,1047 1240,1056 1230,1056 L1221,1056 1221,1056 L1220,1065 C1220,1075 1223,1064 1223,1073 C1224,1082 1219,1068 1220,1078 L1221,1088 1221,1088 L1231,1087 C1241,1087 1229,1090 1238,1090 C1248,1091 1233,1086 1243,1087 L1254,1088 1254,1088 L1254,1077 C1254,1067 1250,1078 1249,1071 C1248,1064 1256,1076 1255,1066 L1254,1056"/></g><clipPath id="c" clipRule="evenodd" fill="transparent"><use href="#t4327"/></clipPath></defs><svg viewBox="1218 1046 39 46" preserveAspectRatio="xMinYMin meet"><svg width="4380" height="2430"><g><image crossorigin="anonymous" x="0" y="0" href="https://nftpuzzle.license-token.com/assets/completepuzzle.svg" width="100%" height="100%" /><g class="links"><use href="#t4327"/></g></g></svg><svg x="1242" y="1077" height="9%" width="9%" viewBox="0 0 330 330"><g><a xlink:href="https://nftpuzzle.license-token.com/" class="links"><title>See the most innovative NFT based token software licensing project</title><path fill="#E4CF37" id="more" d="M165,0C74.019,0,0,74.019,0,165s74.019,165,165,165s165-74.019,165-165S255.981,0,165,0z M85,190 c-13.785,0-25-11.215-25-25s11.215-25,25-25s25,11.215,25,25S98.785,190,85,190z M165,190c-13.785,0-25-11.215-25-25 s11.215-25,25-25s25,11.215,25,25S178.785,190,165,190z M245,190c-13.785,0-25-11.215-25-25s11.215-25,25-25 c13.785,0,25,11.215,25,25S258.785,190,245,190z"></path></a></g></svg></svg></svg>