<svg version="1.1" xmlns="http://www.w3.org/2000/svg" xmlns:xlink="http://www.w3.org/1999/xlink" fill="transparent" x="0" y="0" width="350" height="350" preserveAspectRatio="xMinYMin slice"><style type="text/css">.links{fill:transparent;stroke: #E4CF37;}.links:hover{fill:#63D272; opacity:0.4;}</style><defs><g id="allt"><path id="t4328" d="M1287,1056 L1277,1056 C1267,1056 1277,1052 1270,1052 C1263,1053 1275,1057 1264,1056 L1254,1056 1254,1056 L1255,1066 C1256,1076 1248,1064 1249,1071 C1250,1078 1254,1067 1254,1077 L1254,1088 1254,1088 L1264,1089 C1274,1090 1263,1082 1270,1083 C1277,1084 1266,1088 1276,1088 L1287,1088 1287,1088 L1289,1078 C1292,1069 1276,1081 1278,1073 C1281,1065 1288,1073 1287,1064 L1287,1056"/></g><clipPath id="c" clipRule="evenodd" fill="transparent"><use href="#t4328"/></clipPath></defs><svg viewBox="1247 1051 46 40" preserveAspectRatio="xMinYMin meet"><svg width="4380" height="2430"><g><image crossorigin="anonymous" x="0" y="0" href="https://nftpuzzle.license-token.com/assets/completepuzzle.svg" width="100%" height="100%" /><g class="links"><use href="#t4328"/></g></g></svg><svg x="1278" y="1076" height="9%" width="9%" viewBox="0 0 330 330"><g><a xlink:href="https://nftpuzzle.license-token.com/" class="links"><title>See the most innovative NFT based token software licensing project</title><path fill="#E4CF37" id="more" d="M165,0C74.019,0,0,74.019,0,165s74.019,165,165,165s165-74.019,165-165S255.981,0,165,0z M85,190 c-13.785,0-25-11.215-25-25s11.215-25,25-25s25,11.215,25,25S98.785,190,85,190z M165,190c-13.785,0-25-11.215-25-25 s11.215-25,25-25s25,11.215,25,25S178.785,190,165,190z M245,190c-13.785,0-25-11.215-25-25s11.215-25,25-25 c13.785,0,25,11.215,25,25S258.785,190,245,190z"></path></a></g></svg></svg></svg>