<svg version="1.1" xmlns="http://www.w3.org/2000/svg" xmlns:xlink="http://www.w3.org/1999/xlink" fill="transparent" x="0" y="0" width="350" height="350" preserveAspectRatio="xMinYMin slice"><style type="text/css">.links{fill:transparent;stroke: #E4CF37;}.links:hover{fill:#63D272; opacity:0.4;}</style><defs><g id="allt"><path id="t4330" d="M1353,1056 L1343,1056 C1334,1056 1343,1051 1336,1050 C1329,1049 1338,1059 1329,1057 L1320,1056 1320,1056 L1320,1065 C1320,1074 1314,1063 1313,1070 C1312,1078 1320,1067 1320,1077 L1320,1088 1320,1088 L1329,1088 C1339,1088 1327,1082 1335,1081 C1343,1080 1332,1088 1342,1088 L1353,1088 1353,1088 L1353,1077 C1353,1067 1349,1080 1349,1072 C1349,1064 1353,1077 1353,1066 L1353,1056"/></g><clipPath id="c" clipRule="evenodd" fill="transparent"><use href="#t4330"/></clipPath></defs><svg viewBox="1311 1048 43 41" preserveAspectRatio="xMinYMin meet"><svg width="4380" height="2430"><g><image crossorigin="anonymous" x="0" y="0" href="https://nftpuzzle.license-token.com/assets/completepuzzle.svg" width="100%" height="100%" /><g class="links"><use href="#t4330"/></g></g></svg><svg x="1339" y="1074" height="9%" width="9%" viewBox="0 0 330 330"><g><a xlink:href="https://nftpuzzle.license-token.com/" class="links"><title>See the most innovative NFT based token software licensing project</title><path fill="#E4CF37" id="more" d="M165,0C74.019,0,0,74.019,0,165s74.019,165,165,165s165-74.019,165-165S255.981,0,165,0z M85,190 c-13.785,0-25-11.215-25-25s11.215-25,25-25s25,11.215,25,25S98.785,190,85,190z M165,190c-13.785,0-25-11.215-25-25 s11.215-25,25-25s25,11.215,25,25S178.785,190,165,190z M245,190c-13.785,0-25-11.215-25-25s11.215-25,25-25 c13.785,0,25,11.215,25,25S258.785,190,245,190z"></path></a></g></svg></svg></svg>