<svg version="1.1" xmlns="http://www.w3.org/2000/svg" xmlns:xlink="http://www.w3.org/1999/xlink" fill="transparent" x="0" y="0" width="350" height="350" preserveAspectRatio="xMinYMin slice"><style type="text/css">.links{fill:transparent;stroke: #E4CF37;}.links:hover{fill:#63D272; opacity:0.4;}</style><defs><g id="allt"><path id="t4332" d="M1419,1056 L1409,1056 C1399,1057 1413,1051 1403,1051 C1394,1051 1404,1056 1395,1056 L1386,1056 1386,1056 L1383,1065 C1381,1075 1396,1062 1394,1070 C1392,1079 1385,1066 1385,1077 L1386,1088 1386,1088 L1396,1085 C1406,1083 1392,1098 1400,1096 C1409,1094 1396,1087 1407,1087 L1419,1088 1419,1088 L1420,1077 C1421,1067 1412,1082 1412,1073 C1413,1064 1420,1074 1419,1065 L1419,1056"/></g><clipPath id="c" clipRule="evenodd" fill="transparent"><use href="#t4332"/></clipPath></defs><svg viewBox="1380 1050 42 49" preserveAspectRatio="xMinYMin meet"><svg width="4380" height="2430"><g><image crossorigin="anonymous" x="0" y="0" href="https://nftpuzzle.license-token.com/assets/completepuzzle.svg" width="100%" height="100%" /><g class="links"><use href="#t4332"/></g></g></svg><svg x="1407" y="1084" height="9%" width="9%" viewBox="0 0 330 330"><g><a xlink:href="https://nftpuzzle.license-token.com/" class="links"><title>See the most innovative NFT based token software licensing project</title><path fill="#E4CF37" id="more" d="M165,0C74.019,0,0,74.019,0,165s74.019,165,165,165s165-74.019,165-165S255.981,0,165,0z M85,190 c-13.785,0-25-11.215-25-25s11.215-25,25-25s25,11.215,25,25S98.785,190,85,190z M165,190c-13.785,0-25-11.215-25-25 s11.215-25,25-25s25,11.215,25,25S178.785,190,165,190z M245,190c-13.785,0-25-11.215-25-25s11.215-25,25-25 c13.785,0,25,11.215,25,25S258.785,190,245,190z"></path></a></g></svg></svg></svg>