<svg version="1.1" xmlns="http://www.w3.org/2000/svg" xmlns:xlink="http://www.w3.org/1999/xlink" fill="transparent" x="0" y="0" width="350" height="350" preserveAspectRatio="xMinYMin slice"><style type="text/css">.links{fill:transparent;stroke: #E4CF37;}.links:hover{fill:#63D272; opacity:0.4;}</style><defs><g id="allt"><path id="t4334" d="M1485,1056 L1474,1058 C1463,1060 1478,1047 1467,1047 C1456,1047 1470,1056 1461,1056 L1452,1056 1452,1056 L1452,1065 C1452,1074 1444,1062 1441,1071 C1439,1080 1455,1070 1453,1079 L1452,1088 1452,1088 L1461,1088 C1470,1088 1458,1080 1467,1077 C1477,1075 1466,1091 1475,1089 L1485,1088 1485,1088 L1485,1077 C1485,1066 1489,1080 1489,1071 C1490,1063 1485,1075 1485,1065 L1485,1056"/></g><clipPath id="c" clipRule="evenodd" fill="transparent"><use href="#t4334"/></clipPath></defs><svg viewBox="1438 1046 53 46" preserveAspectRatio="xMinYMin meet"><svg width="4380" height="2430"><g><image crossorigin="anonymous" x="0" y="0" href="https://nftpuzzle.license-token.com/assets/completepuzzle.svg" width="100%" height="100%" /><g class="links"><use href="#t4334"/></g></g></svg><svg x="1476" y="1077" height="9%" width="9%" viewBox="0 0 330 330"><g><a xlink:href="https://nftpuzzle.license-token.com/" class="links"><title>See the most innovative NFT based token software licensing project</title><path fill="#E4CF37" id="more" d="M165,0C74.019,0,0,74.019,0,165s74.019,165,165,165s165-74.019,165-165S255.981,0,165,0z M85,190 c-13.785,0-25-11.215-25-25s11.215-25,25-25s25,11.215,25,25S98.785,190,85,190z M165,190c-13.785,0-25-11.215-25-25 s11.215-25,25-25s25,11.215,25,25S178.785,190,165,190z M245,190c-13.785,0-25-11.215-25-25s11.215-25,25-25 c13.785,0,25,11.215,25,25S258.785,190,245,190z"></path></a></g></svg></svg></svg>