<svg version="1.1" xmlns="http://www.w3.org/2000/svg" xmlns:xlink="http://www.w3.org/1999/xlink" fill="transparent" x="0" y="0" width="350" height="350" preserveAspectRatio="xMinYMin slice"><style type="text/css">.links{fill:transparent;stroke: #E4CF37;}.links:hover{fill:#63D272; opacity:0.4;}</style><defs><g id="allt"><path id="t4337" d="M1584,1056 L1573,1056 C1562,1056 1576,1053 1568,1053 C1560,1054 1571,1057 1561,1056 L1551,1056 1551,1056 L1550,1065 C1549,1075 1557,1062 1555,1070 C1554,1078 1549,1070 1550,1079 L1551,1088 1551,1088 L1560,1087 C1570,1086 1557,1094 1565,1092 C1574,1091 1565,1086 1574,1087 L1584,1088 1584,1088 L1584,1078 C1585,1069 1581,1078 1580,1070 C1580,1063 1585,1076 1584,1066 L1584,1056"/></g><clipPath id="c" clipRule="evenodd" fill="transparent"><use href="#t4337"/></clipPath></defs><svg viewBox="1548 1052 38 43" preserveAspectRatio="xMinYMin meet"><svg width="4380" height="2430"><g><image crossorigin="anonymous" x="0" y="0" href="https://nftpuzzle.license-token.com/assets/completepuzzle.svg" width="100%" height="100%" /><g class="links"><use href="#t4337"/></g></g></svg><svg x="1571" y="1080" height="9%" width="9%" viewBox="0 0 330 330"><g><a xlink:href="https://nftpuzzle.license-token.com/" class="links"><title>See the most innovative NFT based token software licensing project</title><path fill="#E4CF37" id="more" d="M165,0C74.019,0,0,74.019,0,165s74.019,165,165,165s165-74.019,165-165S255.981,0,165,0z M85,190 c-13.785,0-25-11.215-25-25s11.215-25,25-25s25,11.215,25,25S98.785,190,85,190z M165,190c-13.785,0-25-11.215-25-25 s11.215-25,25-25s25,11.215,25,25S178.785,190,165,190z M245,190c-13.785,0-25-11.215-25-25s11.215-25,25-25 c13.785,0,25,11.215,25,25S258.785,190,245,190z"></path></a></g></svg></svg></svg>