<svg version="1.1" xmlns="http://www.w3.org/2000/svg" xmlns:xlink="http://www.w3.org/1999/xlink" fill="transparent" x="0" y="0" width="350" height="350" preserveAspectRatio="xMinYMin slice"><style type="text/css">.links{fill:transparent;stroke: #E4CF37;}.links:hover{fill:#63D272; opacity:0.4;}</style><defs><g id="allt"><path id="t4338" d="M1617,1056 L1606,1055 C1596,1054 1607,1059 1597,1059 C1588,1060 1603,1055 1593,1055 L1584,1056 1584,1056 L1584,1066 C1585,1076 1580,1063 1580,1070 C1581,1078 1585,1069 1584,1078 L1584,1088 1584,1088 L1594,1088 C1604,1089 1591,1084 1599,1084 C1607,1085 1598,1089 1607,1088 L1617,1088 1617,1088 L1619,1078 C1622,1068 1606,1078 1605,1071 C1605,1064 1617,1074 1617,1065 L1617,1056"/></g><clipPath id="c" clipRule="evenodd" fill="transparent"><use href="#t4338"/></clipPath></defs><svg viewBox="1579 1053 44 37" preserveAspectRatio="xMinYMin meet"><svg width="4380" height="2430"><g><image crossorigin="anonymous" x="0" y="0" href="https://nftpuzzle.license-token.com/assets/completepuzzle.svg" width="100%" height="100%" /><g class="links"><use href="#t4338"/></g></g></svg><svg x="1608" y="1075" height="9%" width="9%" viewBox="0 0 330 330"><g><a xlink:href="https://nftpuzzle.license-token.com/" class="links"><title>See the most innovative NFT based token software licensing project</title><path fill="#E4CF37" id="more" d="M165,0C74.019,0,0,74.019,0,165s74.019,165,165,165s165-74.019,165-165S255.981,0,165,0z M85,190 c-13.785,0-25-11.215-25-25s11.215-25,25-25s25,11.215,25,25S98.785,190,85,190z M165,190c-13.785,0-25-11.215-25-25 s11.215-25,25-25s25,11.215,25,25S178.785,190,165,190z M245,190c-13.785,0-25-11.215-25-25s11.215-25,25-25 c13.785,0,25,11.215,25,25S258.785,190,245,190z"></path></a></g></svg></svg></svg>