<svg version="1.1" xmlns="http://www.w3.org/2000/svg" xmlns:xlink="http://www.w3.org/1999/xlink" fill="transparent" x="0" y="0" width="350" height="350" preserveAspectRatio="xMinYMin slice"><style type="text/css">.links{fill:transparent;stroke: #E4CF37;}.links:hover{fill:#63D272; opacity:0.4;}</style><defs><g id="allt"><path id="t4341" d="M1716,1056 L1705,1056 C1694,1057 1706,1049 1697,1049 C1689,1050 1703,1057 1693,1056 L1683,1056 1683,1056 L1683,1066 C1683,1077 1677,1063 1677,1070 C1678,1078 1683,1068 1683,1078 L1683,1088 1683,1088 L1693,1088 C1704,1088 1690,1082 1698,1082 C1706,1083 1695,1088 1705,1088 L1716,1088 1716,1088 L1714,1077 C1712,1066 1727,1079 1724,1070 C1721,1062 1716,1073 1716,1064 L1716,1056"/></g><clipPath id="c" clipRule="evenodd" fill="transparent"><use href="#t4341"/></clipPath></defs><svg viewBox="1676 1048 52 41" preserveAspectRatio="xMinYMin meet"><svg width="4380" height="2430"><g><image crossorigin="anonymous" x="0" y="0" href="https://nftpuzzle.license-token.com/assets/completepuzzle.svg" width="100%" height="100%" /><g class="links"><use href="#t4341"/></g></g></svg><svg x="1713" y="1074" height="9%" width="9%" viewBox="0 0 330 330"><g><a xlink:href="https://nftpuzzle.license-token.com/" class="links"><title>See the most innovative NFT based token software licensing project</title><path fill="#E4CF37" id="more" d="M165,0C74.019,0,0,74.019,0,165s74.019,165,165,165s165-74.019,165-165S255.981,0,165,0z M85,190 c-13.785,0-25-11.215-25-25s11.215-25,25-25s25,11.215,25,25S98.785,190,85,190z M165,190c-13.785,0-25-11.215-25-25 s11.215-25,25-25s25,11.215,25,25S178.785,190,165,190z M245,190c-13.785,0-25-11.215-25-25s11.215-25,25-25 c13.785,0,25,11.215,25,25S258.785,190,245,190z"></path></a></g></svg></svg></svg>