<svg version="1.1" xmlns="http://www.w3.org/2000/svg" xmlns:xlink="http://www.w3.org/1999/xlink" fill="transparent" x="0" y="0" width="350" height="350" preserveAspectRatio="xMinYMin slice"><style type="text/css">.links{fill:transparent;stroke: #E4CF37;}.links:hover{fill:#63D272; opacity:0.4;}</style><defs><g id="allt"><path id="t4343" d="M1782,1056 L1772,1056 C1762,1057 1774,1053 1766,1052 C1758,1052 1767,1056 1758,1056 L1749,1056 1749,1056 L1748,1065 C1748,1075 1754,1064 1754,1072 C1754,1080 1749,1067 1749,1077 L1749,1088 1749,1088 L1759,1087 C1769,1087 1757,1093 1765,1093 C1774,1093 1761,1088 1771,1088 L1782,1088 1782,1088 L1784,1079 C1786,1070 1775,1080 1775,1072 C1775,1064 1782,1074 1782,1065 L1782,1056"/></g><clipPath id="c" clipRule="evenodd" fill="transparent"><use href="#t4343"/></clipPath></defs><svg viewBox="1747 1051 40 43" preserveAspectRatio="xMinYMin meet"><svg width="4380" height="2430"><g><image crossorigin="anonymous" x="0" y="0" href="https://nftpuzzle.license-token.com/assets/completepuzzle.svg" width="100%" height="100%" /><g class="links"><use href="#t4343"/></g></g></svg><svg x="1772" y="1079" height="9%" width="9%" viewBox="0 0 330 330"><g><a xlink:href="https://nftpuzzle.license-token.com/" class="links"><title>See the most innovative NFT based token software licensing project</title><path fill="#E4CF37" id="more" d="M165,0C74.019,0,0,74.019,0,165s74.019,165,165,165s165-74.019,165-165S255.981,0,165,0z M85,190 c-13.785,0-25-11.215-25-25s11.215-25,25-25s25,11.215,25,25S98.785,190,85,190z M165,190c-13.785,0-25-11.215-25-25 s11.215-25,25-25s25,11.215,25,25S178.785,190,165,190z M245,190c-13.785,0-25-11.215-25-25s11.215-25,25-25 c13.785,0,25,11.215,25,25S258.785,190,245,190z"></path></a></g></svg></svg></svg>