<svg version="1.1" xmlns="http://www.w3.org/2000/svg" xmlns:xlink="http://www.w3.org/1999/xlink" fill="transparent" x="0" y="0" width="350" height="350" preserveAspectRatio="xMinYMin slice"><style type="text/css">.links{fill:transparent;stroke: #E4CF37;}.links:hover{fill:#63D272; opacity:0.4;}</style><defs><g id="allt"><path id="t4346" d="M1881,1056 L1869,1056 C1858,1056 1872,1050 1863,1048 C1854,1046 1867,1059 1857,1057 L1848,1056 1848,1056 L1848,1066 C1848,1077 1844,1065 1844,1072 C1844,1080 1850,1069 1849,1078 L1848,1088 1848,1088 L1858,1088 C1869,1088 1857,1084 1865,1084 C1873,1084 1861,1090 1871,1089 L1881,1088 1881,1088 L1881,1077 C1881,1067 1878,1082 1877,1071 C1876,1061 1883,1076 1882,1066 L1881,1056"/></g><clipPath id="c" clipRule="evenodd" fill="transparent"><use href="#t4346"/></clipPath></defs><svg viewBox="1843 1045 41 46" preserveAspectRatio="xMinYMin meet"><svg width="4380" height="2430"><g><image crossorigin="anonymous" x="0" y="0" href="https://nftpuzzle.license-token.com/assets/completepuzzle.svg" width="100%" height="100%" /><g class="links"><use href="#t4346"/></g></g></svg><svg x="1869" y="1076" height="9%" width="9%" viewBox="0 0 330 330"><g><a xlink:href="https://nftpuzzle.license-token.com/" class="links"><title>See the most innovative NFT based token software licensing project</title><path fill="#E4CF37" id="more" d="M165,0C74.019,0,0,74.019,0,165s74.019,165,165,165s165-74.019,165-165S255.981,0,165,0z M85,190 c-13.785,0-25-11.215-25-25s11.215-25,25-25s25,11.215,25,25S98.785,190,85,190z M165,190c-13.785,0-25-11.215-25-25 s11.215-25,25-25s25,11.215,25,25S178.785,190,165,190z M245,190c-13.785,0-25-11.215-25-25s11.215-25,25-25 c13.785,0,25,11.215,25,25S258.785,190,245,190z"></path></a></g></svg></svg></svg>