<svg version="1.1" xmlns="http://www.w3.org/2000/svg" xmlns:xlink="http://www.w3.org/1999/xlink" fill="transparent" x="0" y="0" width="350" height="350" preserveAspectRatio="xMinYMin slice"><style type="text/css">.links{fill:transparent;stroke: #E4CF37;}.links:hover{fill:#63D272; opacity:0.4;}</style><defs><g id="allt"><path id="t435" d="M1518,96 L1508,96 C1498,96 1512,89 1500,87 C1489,85 1504,97 1494,96 L1485,96 1485,96 L1487,105 C1489,115 1481,104 1480,112 C1479,121 1485,110 1485,119 L1485,128 1485,128 L1495,130 C1505,132 1493,124 1502,123 C1511,122 1499,128 1508,128 L1518,128 1518,128 L1516,117 C1515,106 1523,122 1522,113 C1522,105 1518,113 1518,104 L1518,96"/></g><clipPath id="c" clipRule="evenodd" fill="transparent"><use href="#t435"/></clipPath></defs><svg viewBox="1478 84 46 49" preserveAspectRatio="xMinYMin meet"><svg width="4380" height="2430"><g><image crossorigin="anonymous" x="0" y="0" href="https://nftpuzzle.license-token.com/assets/completepuzzle.svg" width="100%" height="100%" /><g class="links"><use href="#t435"/></g></g></svg><svg x="1509" y="118" height="9%" width="9%" viewBox="0 0 330 330"><g><a xlink:href="https://nftpuzzle.license-token.com/" class="links"><title>See the most innovative NFT based token software licensing project</title><path fill="#E4CF37" id="more" d="M165,0C74.019,0,0,74.019,0,165s74.019,165,165,165s165-74.019,165-165S255.981,0,165,0z M85,190 c-13.785,0-25-11.215-25-25s11.215-25,25-25s25,11.215,25,25S98.785,190,85,190z M165,190c-13.785,0-25-11.215-25-25 s11.215-25,25-25s25,11.215,25,25S178.785,190,165,190z M245,190c-13.785,0-25-11.215-25-25s11.215-25,25-25 c13.785,0,25,11.215,25,25S258.785,190,245,190z"></path></a></g></svg></svg></svg>