<svg version="1.1" xmlns="http://www.w3.org/2000/svg" xmlns:xlink="http://www.w3.org/1999/xlink" fill="transparent" x="0" y="0" width="350" height="350" preserveAspectRatio="xMinYMin slice"><style type="text/css">.links{fill:transparent;stroke: #E4CF37;}.links:hover{fill:#63D272; opacity:0.4;}</style><defs><g id="allt"><path id="t4350" d="M2013,1056 L2003,1056 C1993,1056 2006,1052 1995,1049 C1984,1046 2000,1056 1990,1056 L1980,1056 1980,1056 L1980,1064 C1981,1073 1976,1065 1975,1072 C1975,1080 1982,1070 1981,1079 L1980,1088 1980,1088 L1989,1088 C1998,1089 1989,1084 1997,1083 C2005,1083 1994,1090 2003,1089 L2013,1088 2013,1088 L2010,1077 C2008,1066 2022,1082 2023,1073 C2024,1065 2008,1076 2010,1066 L2013,1056"/></g><clipPath id="c" clipRule="evenodd" fill="transparent"><use href="#t4350"/></clipPath></defs><svg viewBox="1974 1045 51 46" preserveAspectRatio="xMinYMin meet"><svg width="4380" height="2430"><g><image crossorigin="anonymous" x="0" y="0" href="https://nftpuzzle.license-token.com/assets/completepuzzle.svg" width="100%" height="100%" /><g class="links"><use href="#t4350"/></g></g></svg><svg x="2010" y="1076" height="9%" width="9%" viewBox="0 0 330 330"><g><a xlink:href="https://nftpuzzle.license-token.com/" class="links"><title>See the most innovative NFT based token software licensing project</title><path fill="#E4CF37" id="more" d="M165,0C74.019,0,0,74.019,0,165s74.019,165,165,165s165-74.019,165-165S255.981,0,165,0z M85,190 c-13.785,0-25-11.215-25-25s11.215-25,25-25s25,11.215,25,25S98.785,190,85,190z M165,190c-13.785,0-25-11.215-25-25 s11.215-25,25-25s25,11.215,25,25S178.785,190,165,190z M245,190c-13.785,0-25-11.215-25-25s11.215-25,25-25 c13.785,0,25,11.215,25,25S258.785,190,245,190z"></path></a></g></svg></svg></svg>