<svg version="1.1" xmlns="http://www.w3.org/2000/svg" xmlns:xlink="http://www.w3.org/1999/xlink" fill="transparent" x="0" y="0" width="350" height="350" preserveAspectRatio="xMinYMin slice"><style type="text/css">.links{fill:transparent;stroke: #E4CF37;}.links:hover{fill:#63D272; opacity:0.4;}</style><defs><g id="allt"><path id="t4358" d="M2277,1056 L2266,1056 C2255,1056 2267,1052 2259,1052 C2252,1053 2263,1057 2253,1056 L2244,1056 2244,1056 L2244,1066 C2244,1076 2252,1064 2251,1071 C2251,1079 2244,1068 2244,1078 L2244,1088 2244,1088 L2254,1088 C2265,1088 2252,1096 2260,1095 C2268,1095 2256,1088 2266,1088 L2277,1088 2277,1088 L2278,1077 C2279,1066 2275,1082 2275,1072 C2275,1063 2277,1075 2277,1065 L2277,1056"/></g><clipPath id="c" clipRule="evenodd" fill="transparent"><use href="#t4358"/></clipPath></defs><svg viewBox="2243 1051 37 46" preserveAspectRatio="xMinYMin meet"><svg width="4380" height="2430"><g><image crossorigin="anonymous" x="0" y="0" href="https://nftpuzzle.license-token.com/assets/completepuzzle.svg" width="100%" height="100%" /><g class="links"><use href="#t4358"/></g></g></svg><svg x="2265" y="1082" height="9%" width="9%" viewBox="0 0 330 330"><g><a xlink:href="https://nftpuzzle.license-token.com/" class="links"><title>See the most innovative NFT based token software licensing project</title><path fill="#E4CF37" id="more" d="M165,0C74.019,0,0,74.019,0,165s74.019,165,165,165s165-74.019,165-165S255.981,0,165,0z M85,190 c-13.785,0-25-11.215-25-25s11.215-25,25-25s25,11.215,25,25S98.785,190,85,190z M165,190c-13.785,0-25-11.215-25-25 s11.215-25,25-25s25,11.215,25,25S178.785,190,165,190z M245,190c-13.785,0-25-11.215-25-25s11.215-25,25-25 c13.785,0,25,11.215,25,25S258.785,190,245,190z"></path></a></g></svg></svg></svg>