<svg version="1.1" xmlns="http://www.w3.org/2000/svg" xmlns:xlink="http://www.w3.org/1999/xlink" fill="transparent" x="0" y="0" width="350" height="350" preserveAspectRatio="xMinYMin slice"><style type="text/css">.links{fill:transparent;stroke: #E4CF37;}.links:hover{fill:#63D272; opacity:0.4;}</style><defs><g id="allt"><path id="t4359" d="M2310,1056 L2300,1053 C2290,1051 2303,1065 2292,1067 C2282,1069 2298,1056 2287,1056 L2277,1056 2277,1056 L2277,1065 C2277,1075 2275,1063 2275,1072 C2275,1082 2279,1066 2278,1077 L2277,1088 2277,1088 L2286,1088 C2296,1088 2284,1086 2294,1086 C2304,1086 2287,1090 2298,1089 L2310,1088 2310,1088 L2310,1078 C2311,1069 2302,1080 2301,1070 C2300,1061 2312,1074 2311,1065 L2310,1056"/></g><clipPath id="c" clipRule="evenodd" fill="transparent"><use href="#t4359"/></clipPath></defs><svg viewBox="2274 1050 39 41" preserveAspectRatio="xMinYMin meet"><svg width="4380" height="2430"><g><image crossorigin="anonymous" x="0" y="0" href="https://nftpuzzle.license-token.com/assets/completepuzzle.svg" width="100%" height="100%" /><g class="links"><use href="#t4359"/></g></g></svg><svg x="2298" y="1076" height="9%" width="9%" viewBox="0 0 330 330"><g><a xlink:href="https://nftpuzzle.license-token.com/" class="links"><title>See the most innovative NFT based token software licensing project</title><path fill="#E4CF37" id="more" d="M165,0C74.019,0,0,74.019,0,165s74.019,165,165,165s165-74.019,165-165S255.981,0,165,0z M85,190 c-13.785,0-25-11.215-25-25s11.215-25,25-25s25,11.215,25,25S98.785,190,85,190z M165,190c-13.785,0-25-11.215-25-25 s11.215-25,25-25s25,11.215,25,25S178.785,190,165,190z M245,190c-13.785,0-25-11.215-25-25s11.215-25,25-25 c13.785,0,25,11.215,25,25S258.785,190,245,190z"></path></a></g></svg></svg></svg>