<svg version="1.1" xmlns="http://www.w3.org/2000/svg" xmlns:xlink="http://www.w3.org/1999/xlink" fill="transparent" x="0" y="0" width="350" height="350" preserveAspectRatio="xMinYMin slice"><style type="text/css">.links{fill:transparent;stroke: #E4CF37;}.links:hover{fill:#63D272; opacity:0.4;}</style><defs><g id="allt"><path id="t4363" d="M2442,1056 L2432,1056 C2422,1056 2432,1046 2422,1047 C2413,1048 2430,1061 2419,1058 L2409,1056 2409,1056 L2409,1066 C2410,1076 2417,1062 2417,1071 C2418,1081 2409,1066 2409,1077 L2409,1088 2409,1088 L2419,1088 C2430,1089 2415,1096 2425,1096 C2435,1097 2420,1088 2431,1088 L2442,1088 2442,1088 L2443,1079 C2444,1070 2437,1080 2436,1072 C2436,1064 2442,1073 2442,1064 L2442,1056"/></g><clipPath id="c" clipRule="evenodd" fill="transparent"><use href="#t4363"/></clipPath></defs><svg viewBox="2408 1045 37 53" preserveAspectRatio="xMinYMin meet"><svg width="4380" height="2430"><g><image crossorigin="anonymous" x="0" y="0" href="https://nftpuzzle.license-token.com/assets/completepuzzle.svg" width="100%" height="100%" /><g class="links"><use href="#t4363"/></g></g></svg><svg x="2430" y="1083" height="9%" width="9%" viewBox="0 0 330 330"><g><a xlink:href="https://nftpuzzle.license-token.com/" class="links"><title>See the most innovative NFT based token software licensing project</title><path fill="#E4CF37" id="more" d="M165,0C74.019,0,0,74.019,0,165s74.019,165,165,165s165-74.019,165-165S255.981,0,165,0z M85,190 c-13.785,0-25-11.215-25-25s11.215-25,25-25s25,11.215,25,25S98.785,190,85,190z M165,190c-13.785,0-25-11.215-25-25 s11.215-25,25-25s25,11.215,25,25S178.785,190,165,190z M245,190c-13.785,0-25-11.215-25-25s11.215-25,25-25 c13.785,0,25,11.215,25,25S258.785,190,245,190z"></path></a></g></svg></svg></svg>