<svg version="1.1" xmlns="http://www.w3.org/2000/svg" xmlns:xlink="http://www.w3.org/1999/xlink" fill="transparent" x="0" y="0" width="350" height="350" preserveAspectRatio="xMinYMin slice"><style type="text/css">.links{fill:transparent;stroke: #E4CF37;}.links:hover{fill:#63D272; opacity:0.4;}</style><defs><g id="allt"><path id="t4367" d="M2574,1056 L2564,1057 C2554,1058 2566,1046 2556,1047 C2547,1048 2562,1061 2551,1058 L2541,1056 2541,1056 L2541,1066 C2541,1077 2536,1062 2537,1071 C2538,1081 2541,1069 2541,1078 L2541,1088 2541,1088 L2552,1088 C2563,1088 2547,1083 2557,1084 C2567,1085 2554,1088 2564,1088 L2574,1088 2574,1088 L2574,1079 C2574,1070 2585,1082 2582,1071 C2580,1061 2569,1075 2571,1065 L2574,1056"/></g><clipPath id="c" clipRule="evenodd" fill="transparent"><use href="#t4367"/></clipPath></defs><svg viewBox="2535 1045 51 44" preserveAspectRatio="xMinYMin meet"><svg width="4380" height="2430"><g><image crossorigin="anonymous" x="0" y="0" href="https://nftpuzzle.license-token.com/assets/completepuzzle.svg" width="100%" height="100%" /><g class="links"><use href="#t4367"/></g></g></svg><svg x="2571" y="1074" height="9%" width="9%" viewBox="0 0 330 330"><g><a xlink:href="https://nftpuzzle.license-token.com/" class="links"><title>See the most innovative NFT based token software licensing project</title><path fill="#E4CF37" id="more" d="M165,0C74.019,0,0,74.019,0,165s74.019,165,165,165s165-74.019,165-165S255.981,0,165,0z M85,190 c-13.785,0-25-11.215-25-25s11.215-25,25-25s25,11.215,25,25S98.785,190,85,190z M165,190c-13.785,0-25-11.215-25-25 s11.215-25,25-25s25,11.215,25,25S178.785,190,165,190z M245,190c-13.785,0-25-11.215-25-25s11.215-25,25-25 c13.785,0,25,11.215,25,25S258.785,190,245,190z"></path></a></g></svg></svg></svg>