<svg version="1.1" xmlns="http://www.w3.org/2000/svg" xmlns:xlink="http://www.w3.org/1999/xlink" fill="transparent" x="0" y="0" width="350" height="350" preserveAspectRatio="xMinYMin slice"><style type="text/css">.links{fill:transparent;stroke: #E4CF37;}.links:hover{fill:#63D272; opacity:0.4;}</style><defs><g id="allt"><path id="t438" d="M1617,96 L1607,97 C1597,98 1611,93 1600,91 C1590,90 1603,97 1593,96 L1584,96 1584,96 L1584,105 C1585,114 1580,100 1578,111 C1577,122 1584,106 1584,117 L1584,128 1584,128 L1593,128 C1603,129 1588,124 1599,122 C1611,121 1594,128 1605,128 L1617,128 1617,128 L1616,118 C1615,108 1625,121 1624,112 C1624,103 1615,115 1616,105 L1617,96"/></g><clipPath id="c" clipRule="evenodd" fill="transparent"><use href="#t438"/></clipPath></defs><svg viewBox="1576 89 50 41" preserveAspectRatio="xMinYMin meet"><svg width="4380" height="2430"><g><image crossorigin="anonymous" x="0" y="0" href="https://nftpuzzle.license-token.com/assets/completepuzzle.svg" width="100%" height="100%" /><g class="links"><use href="#t438"/></g></g></svg><svg x="1611" y="115" height="9%" width="9%" viewBox="0 0 330 330"><g><a xlink:href="https://nftpuzzle.license-token.com/" class="links"><title>See the most innovative NFT based token software licensing project</title><path fill="#E4CF37" id="more" d="M165,0C74.019,0,0,74.019,0,165s74.019,165,165,165s165-74.019,165-165S255.981,0,165,0z M85,190 c-13.785,0-25-11.215-25-25s11.215-25,25-25s25,11.215,25,25S98.785,190,85,190z M165,190c-13.785,0-25-11.215-25-25 s11.215-25,25-25s25,11.215,25,25S178.785,190,165,190z M245,190c-13.785,0-25-11.215-25-25s11.215-25,25-25 c13.785,0,25,11.215,25,25S258.785,190,245,190z"></path></a></g></svg></svg></svg>