<svg version="1.1" xmlns="http://www.w3.org/2000/svg" xmlns:xlink="http://www.w3.org/1999/xlink" fill="transparent" x="0" y="0" width="350" height="350" preserveAspectRatio="xMinYMin slice"><style type="text/css">.links{fill:transparent;stroke: #E4CF37;}.links:hover{fill:#63D272; opacity:0.4;}</style><defs><g id="allt"><path id="t4384" d="M3135,1056 L3125,1055 C3115,1054 3128,1064 3117,1064 C3107,1065 3123,1056 3112,1056 L3102,1056 3102,1056 L3103,1064 C3104,1073 3096,1062 3093,1071 C3091,1080 3104,1068 3103,1078 L3102,1088 3102,1088 L3111,1089 C3120,1090 3108,1082 3117,1079 C3127,1077 3114,1090 3124,1089 L3135,1088 3135,1088 L3135,1078 C3135,1068 3130,1082 3130,1073 C3130,1064 3136,1074 3135,1065 L3135,1056"/></g><clipPath id="c" clipRule="evenodd" fill="transparent"><use href="#t4384"/></clipPath></defs><svg viewBox="3090 1053 47 38" preserveAspectRatio="xMinYMin meet"><svg width="4380" height="2430"><g><image crossorigin="anonymous" x="0" y="0" href="https://nftpuzzle.license-token.com/assets/completepuzzle.svg" width="100%" height="100%" /><g class="links"><use href="#t4384"/></g></g></svg><svg x="3122" y="1076" height="9%" width="9%" viewBox="0 0 330 330"><g><a xlink:href="https://nftpuzzle.license-token.com/" class="links"><title>See the most innovative NFT based token software licensing project</title><path fill="#E4CF37" id="more" d="M165,0C74.019,0,0,74.019,0,165s74.019,165,165,165s165-74.019,165-165S255.981,0,165,0z M85,190 c-13.785,0-25-11.215-25-25s11.215-25,25-25s25,11.215,25,25S98.785,190,85,190z M165,190c-13.785,0-25-11.215-25-25 s11.215-25,25-25s25,11.215,25,25S178.785,190,165,190z M245,190c-13.785,0-25-11.215-25-25s11.215-25,25-25 c13.785,0,25,11.215,25,25S258.785,190,245,190z"></path></a></g></svg></svg></svg>