<svg version="1.1" xmlns="http://www.w3.org/2000/svg" xmlns:xlink="http://www.w3.org/1999/xlink" fill="transparent" x="0" y="0" width="350" height="350" preserveAspectRatio="xMinYMin slice"><style type="text/css">.links{fill:transparent;stroke: #E4CF37;}.links:hover{fill:#63D272; opacity:0.4;}</style><defs><g id="allt"><path id="t4387" d="M3234,1056 L3224,1057 C3214,1058 3225,1046 3215,1047 C3206,1048 3219,1056 3210,1056 L3201,1056 3201,1056 L3201,1066 C3201,1077 3204,1062 3204,1071 C3205,1080 3201,1069 3201,1078 L3201,1088 3201,1088 L3211,1088 C3222,1088 3207,1091 3216,1091 C3225,1092 3214,1088 3224,1088 L3234,1088 3234,1088 L3234,1077 C3234,1067 3242,1082 3240,1073 C3239,1064 3231,1074 3232,1065 L3234,1056"/></g><clipPath id="c" clipRule="evenodd" fill="transparent"><use href="#t4387"/></clipPath></defs><svg viewBox="3200 1045 43 48" preserveAspectRatio="xMinYMin meet"><svg width="4380" height="2430"><g><image crossorigin="anonymous" x="0" y="0" href="https://nftpuzzle.license-token.com/assets/completepuzzle.svg" width="100%" height="100%" /><g class="links"><use href="#t4387"/></g></g></svg><svg x="3228" y="1078" height="9%" width="9%" viewBox="0 0 330 330"><g><a xlink:href="https://nftpuzzle.license-token.com/" class="links"><title>See the most innovative NFT based token software licensing project</title><path fill="#E4CF37" id="more" d="M165,0C74.019,0,0,74.019,0,165s74.019,165,165,165s165-74.019,165-165S255.981,0,165,0z M85,190 c-13.785,0-25-11.215-25-25s11.215-25,25-25s25,11.215,25,25S98.785,190,85,190z M165,190c-13.785,0-25-11.215-25-25 s11.215-25,25-25s25,11.215,25,25S178.785,190,165,190z M245,190c-13.785,0-25-11.215-25-25s11.215-25,25-25 c13.785,0,25,11.215,25,25S258.785,190,245,190z"></path></a></g></svg></svg></svg>