<svg version="1.1" xmlns="http://www.w3.org/2000/svg" xmlns:xlink="http://www.w3.org/1999/xlink" fill="transparent" x="0" y="0" width="350" height="350" preserveAspectRatio="xMinYMin slice"><style type="text/css">.links{fill:transparent;stroke: #E4CF37;}.links:hover{fill:#63D272; opacity:0.4;}</style><defs><g id="allt"><path id="t439" d="M1650,96 L1640,95 C1630,94 1640,100 1633,101 C1626,102 1635,94 1626,95 L1617,96 1617,96 L1616,105 C1615,115 1624,103 1624,112 C1625,121 1615,108 1616,118 L1617,128 1617,128 L1626,127 C1636,126 1624,135 1633,135 C1643,136 1629,126 1639,127 L1650,128 1650,128 L1648,117 C1647,106 1656,123 1658,112 C1660,102 1645,116 1647,106 L1650,96"/></g><clipPath id="c" clipRule="evenodd" fill="transparent"><use href="#t439"/></clipPath></defs><svg viewBox="1614 93 47 44" preserveAspectRatio="xMinYMin meet"><svg width="4380" height="2430"><g><image crossorigin="anonymous" x="0" y="0" href="https://nftpuzzle.license-token.com/assets/completepuzzle.svg" width="100%" height="100%" /><g class="links"><use href="#t439"/></g></g></svg><svg x="1646" y="122" height="9%" width="9%" viewBox="0 0 330 330"><g><a xlink:href="https://nftpuzzle.license-token.com/" class="links"><title>See the most innovative NFT based token software licensing project</title><path fill="#E4CF37" id="more" d="M165,0C74.019,0,0,74.019,0,165s74.019,165,165,165s165-74.019,165-165S255.981,0,165,0z M85,190 c-13.785,0-25-11.215-25-25s11.215-25,25-25s25,11.215,25,25S98.785,190,85,190z M165,190c-13.785,0-25-11.215-25-25 s11.215-25,25-25s25,11.215,25,25S178.785,190,165,190z M245,190c-13.785,0-25-11.215-25-25s11.215-25,25-25 c13.785,0,25,11.215,25,25S258.785,190,245,190z"></path></a></g></svg></svg></svg>