<svg version="1.1" xmlns="http://www.w3.org/2000/svg" xmlns:xlink="http://www.w3.org/1999/xlink" fill="transparent" x="0" y="0" width="350" height="350" preserveAspectRatio="xMinYMin slice"><style type="text/css">.links{fill:transparent;stroke: #E4CF37;}.links:hover{fill:#63D272; opacity:0.4;}</style><defs><g id="allt"><path id="t4395" d="M3498,1056 L3488,1056 C3478,1056 3491,1054 3482,1053 C3474,1053 3485,1056 3475,1056 L3465,1056 3465,1056 L3465,1066 C3466,1077 3461,1063 3461,1072 C3461,1082 3466,1067 3465,1077 L3465,1088 3465,1088 L3476,1088 C3487,1089 3472,1084 3482,1084 C3492,1084 3476,1089 3487,1088 L3498,1088 3498,1088 L3498,1078 C3498,1068 3490,1080 3490,1071 C3490,1063 3501,1073 3499,1064 L3498,1056"/></g><clipPath id="c" clipRule="evenodd" fill="transparent"><use href="#t4395"/></clipPath></defs><svg viewBox="3460 1052 42 38" preserveAspectRatio="xMinYMin meet"><svg width="4380" height="2430"><g><image crossorigin="anonymous" x="0" y="0" href="https://nftpuzzle.license-token.com/assets/completepuzzle.svg" width="100%" height="100%" /><g class="links"><use href="#t4395"/></g></g></svg><svg x="3487" y="1075" height="9%" width="9%" viewBox="0 0 330 330"><g><a xlink:href="https://nftpuzzle.license-token.com/" class="links"><title>See the most innovative NFT based token software licensing project</title><path fill="#E4CF37" id="more" d="M165,0C74.019,0,0,74.019,0,165s74.019,165,165,165s165-74.019,165-165S255.981,0,165,0z M85,190 c-13.785,0-25-11.215-25-25s11.215-25,25-25s25,11.215,25,25S98.785,190,85,190z M165,190c-13.785,0-25-11.215-25-25 s11.215-25,25-25s25,11.215,25,25S178.785,190,165,190z M245,190c-13.785,0-25-11.215-25-25s11.215-25,25-25 c13.785,0,25,11.215,25,25S258.785,190,245,190z"></path></a></g></svg></svg></svg>