<svg version="1.1" xmlns="http://www.w3.org/2000/svg" xmlns:xlink="http://www.w3.org/1999/xlink" fill="transparent" x="0" y="0" width="350" height="350" preserveAspectRatio="xMinYMin slice"><style type="text/css">.links{fill:transparent;stroke: #E4CF37;}.links:hover{fill:#63D272; opacity:0.4;}</style><defs><g id="allt"><path id="t440" d="M1683,96 L1673,96 C1664,96 1676,99 1667,101 C1659,103 1669,94 1659,95 L1650,96 1650,96 L1647,106 C1645,116 1660,102 1658,112 C1656,123 1647,106 1648,117 L1650,128 1650,128 L1660,125 C1671,123 1656,137 1667,135 C1678,134 1661,125 1672,126 L1683,128 1683,128 L1683,118 C1684,109 1676,119 1677,111 C1678,104 1683,117 1683,106 L1683,96"/></g><clipPath id="c" clipRule="evenodd" fill="transparent"><use href="#t440"/></clipPath></defs><svg viewBox="1644 93 41 45" preserveAspectRatio="xMinYMin meet"><svg width="4380" height="2430"><g><image crossorigin="anonymous" x="0" y="0" href="https://nftpuzzle.license-token.com/assets/completepuzzle.svg" width="100%" height="100%" /><g class="links"><use href="#t440"/></g></g></svg><svg x="1670" y="123" height="9%" width="9%" viewBox="0 0 330 330"><g><a xlink:href="https://nftpuzzle.license-token.com/" class="links"><title>See the most innovative NFT based token software licensing project</title><path fill="#E4CF37" id="more" d="M165,0C74.019,0,0,74.019,0,165s74.019,165,165,165s165-74.019,165-165S255.981,0,165,0z M85,190 c-13.785,0-25-11.215-25-25s11.215-25,25-25s25,11.215,25,25S98.785,190,85,190z M165,190c-13.785,0-25-11.215-25-25 s11.215-25,25-25s25,11.215,25,25S178.785,190,165,190z M245,190c-13.785,0-25-11.215-25-25s11.215-25,25-25 c13.785,0,25,11.215,25,25S258.785,190,245,190z"></path></a></g></svg></svg></svg>