<svg version="1.1" xmlns="http://www.w3.org/2000/svg" xmlns:xlink="http://www.w3.org/1999/xlink" fill="transparent" x="0" y="0" width="350" height="350" preserveAspectRatio="xMinYMin slice"><style type="text/css">.links{fill:transparent;stroke: #E4CF37;}.links:hover{fill:#63D272; opacity:0.4;}</style><defs><g id="allt"><path id="t4404" d="M3795,1056 L3785,1054 C3775,1053 3790,1064 3779,1063 C3768,1063 3783,1052 3772,1054 L3762,1056 3762,1056 L3761,1066 C3760,1076 3766,1061 3767,1070 C3769,1080 3762,1067 3762,1077 L3762,1088 3762,1088 L3772,1087 C3783,1086 3767,1092 3776,1093 C3786,1095 3773,1088 3784,1088 L3795,1088 3795,1088 L3794,1079 C3793,1070 3799,1080 3800,1072 C3802,1064 3795,1073 3795,1064 L3795,1056"/></g><clipPath id="c" clipRule="evenodd" fill="transparent"><use href="#t4404"/></clipPath></defs><svg viewBox="3759 1051 44 45" preserveAspectRatio="xMinYMin meet"><svg width="4380" height="2430"><g><image crossorigin="anonymous" x="0" y="0" href="https://nftpuzzle.license-token.com/assets/completepuzzle.svg" width="100%" height="100%" /><g class="links"><use href="#t4404"/></g></g></svg><svg x="3788" y="1081" height="9%" width="9%" viewBox="0 0 330 330"><g><a xlink:href="https://nftpuzzle.license-token.com/" class="links"><title>See the most innovative NFT based token software licensing project</title><path fill="#E4CF37" id="more" d="M165,0C74.019,0,0,74.019,0,165s74.019,165,165,165s165-74.019,165-165S255.981,0,165,0z M85,190 c-13.785,0-25-11.215-25-25s11.215-25,25-25s25,11.215,25,25S98.785,190,85,190z M165,190c-13.785,0-25-11.215-25-25 s11.215-25,25-25s25,11.215,25,25S178.785,190,165,190z M245,190c-13.785,0-25-11.215-25-25s11.215-25,25-25 c13.785,0,25,11.215,25,25S258.785,190,245,190z"></path></a></g></svg></svg></svg>