<svg version="1.1" xmlns="http://www.w3.org/2000/svg" xmlns:xlink="http://www.w3.org/1999/xlink" fill="transparent" x="0" y="0" width="350" height="350" preserveAspectRatio="xMinYMin slice"><style type="text/css">.links{fill:transparent;stroke: #E4CF37;}.links:hover{fill:#63D272; opacity:0.4;}</style><defs><g id="allt"><path id="t4408" d="M3927,1056 L3917,1056 C3907,1056 3919,1061 3909,1062 C3899,1064 3912,1056 3903,1056 L3894,1056 3894,1056 L3894,1065 C3894,1074 3889,1065 3889,1073 C3890,1082 3896,1066 3895,1077 L3894,1088 3894,1088 L3903,1088 C3912,1088 3903,1083 3912,1083 C3921,1084 3904,1090 3915,1089 L3927,1088 3927,1088 L3927,1078 C3928,1068 3921,1078 3921,1071 C3922,1065 3927,1074 3927,1065 L3927,1056"/></g><clipPath id="c" clipRule="evenodd" fill="transparent"><use href="#t4408"/></clipPath></defs><svg viewBox="3888 1055 41 36" preserveAspectRatio="xMinYMin meet"><svg width="4380" height="2430"><g><image crossorigin="anonymous" x="0" y="0" href="https://nftpuzzle.license-token.com/assets/completepuzzle.svg" width="100%" height="100%" /><g class="links"><use href="#t4408"/></g></g></svg><svg x="3914" y="1076" height="9%" width="9%" viewBox="0 0 330 330"><g><a xlink:href="https://nftpuzzle.license-token.com/" class="links"><title>See the most innovative NFT based token software licensing project</title><path fill="#E4CF37" id="more" d="M165,0C74.019,0,0,74.019,0,165s74.019,165,165,165s165-74.019,165-165S255.981,0,165,0z M85,190 c-13.785,0-25-11.215-25-25s11.215-25,25-25s25,11.215,25,25S98.785,190,85,190z M165,190c-13.785,0-25-11.215-25-25 s11.215-25,25-25s25,11.215,25,25S178.785,190,165,190z M245,190c-13.785,0-25-11.215-25-25s11.215-25,25-25 c13.785,0,25,11.215,25,25S258.785,190,245,190z"></path></a></g></svg></svg></svg>