<svg version="1.1" xmlns="http://www.w3.org/2000/svg" xmlns:xlink="http://www.w3.org/1999/xlink" fill="transparent" x="0" y="0" width="350" height="350" preserveAspectRatio="xMinYMin slice"><style type="text/css">.links{fill:transparent;stroke: #E4CF37;}.links:hover{fill:#63D272; opacity:0.4;}</style><defs><g id="allt"><path id="t4409" d="M3960,1056 L3950,1056 C3941,1056 3951,1066 3943,1063 C3935,1060 3946,1052 3936,1054 L3927,1056 3927,1056 L3927,1065 C3927,1074 3922,1065 3921,1071 C3921,1078 3928,1068 3927,1078 L3927,1088 3927,1088 L3936,1088 C3946,1088 3936,1083 3943,1082 C3950,1082 3939,1089 3949,1088 L3960,1088 3960,1088 L3960,1078 C3960,1069 3952,1081 3950,1072 C3948,1063 3960,1074 3960,1065 L3960,1056"/></g><clipPath id="c" clipRule="evenodd" fill="transparent"><use href="#t4409"/></clipPath></defs><svg viewBox="3920 1051 41 39" preserveAspectRatio="xMinYMin meet"><svg width="4380" height="2430"><g><image crossorigin="anonymous" x="0" y="0" href="https://nftpuzzle.license-token.com/assets/completepuzzle.svg" width="100%" height="100%" /><g class="links"><use href="#t4409"/></g></g></svg><svg x="3946" y="1075" height="9%" width="9%" viewBox="0 0 330 330"><g><a xlink:href="https://nftpuzzle.license-token.com/" class="links"><title>See the most innovative NFT based token software licensing project</title><path fill="#E4CF37" id="more" d="M165,0C74.019,0,0,74.019,0,165s74.019,165,165,165s165-74.019,165-165S255.981,0,165,0z M85,190 c-13.785,0-25-11.215-25-25s11.215-25,25-25s25,11.215,25,25S98.785,190,85,190z M165,190c-13.785,0-25-11.215-25-25 s11.215-25,25-25s25,11.215,25,25S178.785,190,165,190z M245,190c-13.785,0-25-11.215-25-25s11.215-25,25-25 c13.785,0,25,11.215,25,25S258.785,190,245,190z"></path></a></g></svg></svg></svg>