<svg version="1.1" xmlns="http://www.w3.org/2000/svg" xmlns:xlink="http://www.w3.org/1999/xlink" fill="transparent" x="0" y="0" width="350" height="350" preserveAspectRatio="xMinYMin slice"><style type="text/css">.links{fill:transparent;stroke: #E4CF37;}.links:hover{fill:#63D272; opacity:0.4;}</style><defs><g id="allt"><path id="t4415" d="M4158,1056 L4148,1056 C4139,1056 4151,1048 4142,1049 C4134,1051 4147,1059 4136,1057 L4125,1056 4125,1056 L4125,1065 C4126,1075 4120,1063 4120,1070 C4120,1078 4126,1069 4125,1078 L4125,1088 4125,1088 L4135,1088 C4145,1089 4132,1083 4140,1083 C4148,1083 4138,1089 4148,1088 L4158,1088 4158,1088 L4160,1077 C4163,1067 4150,1080 4150,1070 C4151,1061 4158,1076 4158,1066 L4158,1056"/></g><clipPath id="c" clipRule="evenodd" fill="transparent"><use href="#t4415"/></clipPath></defs><svg viewBox="4119 1047 45 43" preserveAspectRatio="xMinYMin meet"><svg width="4380" height="2430"><g><image crossorigin="anonymous" x="0" y="0" href="https://nftpuzzle.license-token.com/assets/completepuzzle.svg" width="100%" height="100%" /><g class="links"><use href="#t4415"/></g></g></svg><svg x="4149" y="1075" height="9%" width="9%" viewBox="0 0 330 330"><g><a xlink:href="https://nftpuzzle.license-token.com/" class="links"><title>See the most innovative NFT based token software licensing project</title><path fill="#E4CF37" id="more" d="M165,0C74.019,0,0,74.019,0,165s74.019,165,165,165s165-74.019,165-165S255.981,0,165,0z M85,190 c-13.785,0-25-11.215-25-25s11.215-25,25-25s25,11.215,25,25S98.785,190,85,190z M165,190c-13.785,0-25-11.215-25-25 s11.215-25,25-25s25,11.215,25,25S178.785,190,165,190z M245,190c-13.785,0-25-11.215-25-25s11.215-25,25-25 c13.785,0,25,11.215,25,25S258.785,190,245,190z"></path></a></g></svg></svg></svg>