<svg version="1.1" xmlns="http://www.w3.org/2000/svg" xmlns:xlink="http://www.w3.org/1999/xlink" fill="transparent" x="0" y="0" width="350" height="350" preserveAspectRatio="xMinYMin slice"><style type="text/css">.links{fill:transparent;stroke: #E4CF37;}.links:hover{fill:#63D272; opacity:0.4;}</style><defs><g id="allt"><path id="t4417" d="M4224,1056 L4214,1056 C4205,1057 4218,1054 4208,1053 C4198,1053 4211,1056 4201,1056 L4191,1056 4191,1056 L4191,1064 C4191,1073 4186,1063 4186,1070 C4186,1078 4193,1069 4192,1078 L4191,1088 4191,1088 L4200,1088 C4209,1088 4198,1083 4206,1083 C4214,1083 4204,1090 4214,1089 L4224,1088 4224,1088 L4224,1077 C4224,1067 4234,1081 4233,1073 C4233,1065 4224,1077 4224,1066 L4224,1056"/></g><clipPath id="c" clipRule="evenodd" fill="transparent"><use href="#t4417"/></clipPath></defs><svg viewBox="4185 1052 50 39" preserveAspectRatio="xMinYMin meet"><svg width="4380" height="2430"><g><image crossorigin="anonymous" x="0" y="0" href="https://nftpuzzle.license-token.com/assets/completepuzzle.svg" width="100%" height="100%" /><g class="links"><use href="#t4417"/></g></g></svg><svg x="4220" y="1076" height="9%" width="9%" viewBox="0 0 330 330"><g><a xlink:href="https://nftpuzzle.license-token.com/" class="links"><title>See the most innovative NFT based token software licensing project</title><path fill="#E4CF37" id="more" d="M165,0C74.019,0,0,74.019,0,165s74.019,165,165,165s165-74.019,165-165S255.981,0,165,0z M85,190 c-13.785,0-25-11.215-25-25s11.215-25,25-25s25,11.215,25,25S98.785,190,85,190z M165,190c-13.785,0-25-11.215-25-25 s11.215-25,25-25s25,11.215,25,25S178.785,190,165,190z M245,190c-13.785,0-25-11.215-25-25s11.215-25,25-25 c13.785,0,25,11.215,25,25S258.785,190,245,190z"></path></a></g></svg></svg></svg>