<svg version="1.1" xmlns="http://www.w3.org/2000/svg" xmlns:xlink="http://www.w3.org/1999/xlink" fill="transparent" x="0" y="0" width="350" height="350" preserveAspectRatio="xMinYMin slice"><style type="text/css">.links{fill:transparent;stroke: #E4CF37;}.links:hover{fill:#63D272; opacity:0.4;}</style><defs><g id="allt"><path id="t4418" d="M4257,1056 L4247,1056 C4238,1056 4252,1048 4241,1049 C4231,1051 4243,1058 4233,1057 L4224,1056 4224,1056 L4224,1066 C4224,1077 4233,1065 4233,1073 C4234,1081 4224,1067 4224,1077 L4224,1088 4224,1088 L4234,1088 C4245,1088 4233,1096 4241,1096 C4250,1097 4236,1088 4246,1088 L4257,1088 4257,1088 L4257,1078 C4257,1068 4249,1080 4250,1072 C4251,1065 4259,1077 4258,1066 L4257,1056"/></g><clipPath id="c" clipRule="evenodd" fill="transparent"><use href="#t4418"/></clipPath></defs><svg viewBox="4223 1047 37 51" preserveAspectRatio="xMinYMin meet"><svg width="4380" height="2430"><g><image crossorigin="anonymous" x="0" y="0" href="https://nftpuzzle.license-token.com/assets/completepuzzle.svg" width="100%" height="100%" /><g class="links"><use href="#t4418"/></g></g></svg><svg x="4245" y="1083" height="9%" width="9%" viewBox="0 0 330 330"><g><a xlink:href="https://nftpuzzle.license-token.com/" class="links"><title>See the most innovative NFT based token software licensing project</title><path fill="#E4CF37" id="more" d="M165,0C74.019,0,0,74.019,0,165s74.019,165,165,165s165-74.019,165-165S255.981,0,165,0z M85,190 c-13.785,0-25-11.215-25-25s11.215-25,25-25s25,11.215,25,25S98.785,190,85,190z M165,190c-13.785,0-25-11.215-25-25 s11.215-25,25-25s25,11.215,25,25S178.785,190,165,190z M245,190c-13.785,0-25-11.215-25-25s11.215-25,25-25 c13.785,0,25,11.215,25,25S258.785,190,245,190z"></path></a></g></svg></svg></svg>