<svg version="1.1" xmlns="http://www.w3.org/2000/svg" xmlns:xlink="http://www.w3.org/1999/xlink" fill="transparent" x="0" y="0" width="350" height="350" preserveAspectRatio="xMinYMin slice"><style type="text/css">.links{fill:transparent;stroke: #E4CF37;}.links:hover{fill:#63D272; opacity:0.4;}</style><defs><g id="allt"><path id="t442" d="M1749,96 L1738,96 C1727,96 1740,88 1732,88 C1725,88 1735,97 1725,96 L1716,96 1716,96 L1715,105 C1715,115 1718,103 1718,112 C1719,122 1716,109 1716,118 L1716,128 1716,128 L1726,127 C1736,127 1723,130 1733,130 C1743,131 1729,128 1739,128 L1749,128 1749,128 L1747,117 C1745,107 1758,120 1755,112 C1753,105 1745,117 1747,106 L1749,96"/></g><clipPath id="c" clipRule="evenodd" fill="transparent"><use href="#t442"/></clipPath></defs><svg viewBox="1714 87 45 45" preserveAspectRatio="xMinYMin meet"><svg width="4380" height="2430"><g><image crossorigin="anonymous" x="0" y="0" href="https://nftpuzzle.license-token.com/assets/completepuzzle.svg" width="100%" height="100%" /><g class="links"><use href="#t442"/></g></g></svg><svg x="1744" y="117" height="9%" width="9%" viewBox="0 0 330 330"><g><a xlink:href="https://nftpuzzle.license-token.com/" class="links"><title>See the most innovative NFT based token software licensing project</title><path fill="#E4CF37" id="more" d="M165,0C74.019,0,0,74.019,0,165s74.019,165,165,165s165-74.019,165-165S255.981,0,165,0z M85,190 c-13.785,0-25-11.215-25-25s11.215-25,25-25s25,11.215,25,25S98.785,190,85,190z M165,190c-13.785,0-25-11.215-25-25 s11.215-25,25-25s25,11.215,25,25S178.785,190,165,190z M245,190c-13.785,0-25-11.215-25-25s11.215-25,25-25 c13.785,0,25,11.215,25,25S258.785,190,245,190z"></path></a></g></svg></svg></svg>