<svg version="1.1" xmlns="http://www.w3.org/2000/svg" xmlns:xlink="http://www.w3.org/1999/xlink" fill="transparent" x="0" y="0" width="350" height="350" preserveAspectRatio="xMinYMin slice"><style type="text/css">.links{fill:transparent;stroke: #E4CF37;}.links:hover{fill:#63D272; opacity:0.4;}</style><defs><g id="allt"><path id="t4426" d="M231,1088 L220,1086 C210,1084 224,1093 213,1095 C203,1097 219,1087 208,1087 L198,1088 198,1088 L199,1097 C200,1107 195,1094 194,1102 C193,1110 199,1101 198,1110 L198,1120 198,1120 L208,1121 C218,1122 204,1117 212,1116 C221,1115 211,1121 221,1120 L231,1120 231,1120 L229,1110 C228,1100 240,1113 239,1103 C238,1094 229,1107 230,1097 L231,1088"/></g><clipPath id="c" clipRule="evenodd" fill="transparent"><use href="#t4426"/></clipPath></defs><svg viewBox="192 1083 49 40" preserveAspectRatio="xMinYMin meet"><svg width="4380" height="2430"><g><image crossorigin="anonymous" x="0" y="0" href="https://nftpuzzle.license-token.com/assets/completepuzzle.svg" width="100%" height="100%" /><g class="links"><use href="#t4426"/></g></g></svg><svg x="226" y="1108" height="9%" width="9%" viewBox="0 0 330 330"><g><a xlink:href="https://nftpuzzle.license-token.com/" class="links"><title>See the most innovative NFT based token software licensing project</title><path fill="#E4CF37" id="more" d="M165,0C74.019,0,0,74.019,0,165s74.019,165,165,165s165-74.019,165-165S255.981,0,165,0z M85,190 c-13.785,0-25-11.215-25-25s11.215-25,25-25s25,11.215,25,25S98.785,190,85,190z M165,190c-13.785,0-25-11.215-25-25 s11.215-25,25-25s25,11.215,25,25S178.785,190,165,190z M245,190c-13.785,0-25-11.215-25-25s11.215-25,25-25 c13.785,0,25,11.215,25,25S258.785,190,245,190z"></path></a></g></svg></svg></svg>