<svg version="1.1" xmlns="http://www.w3.org/2000/svg" xmlns:xlink="http://www.w3.org/1999/xlink" fill="transparent" x="0" y="0" width="350" height="350" preserveAspectRatio="xMinYMin slice"><style type="text/css">.links{fill:transparent;stroke: #E4CF37;}.links:hover{fill:#63D272; opacity:0.4;}</style><defs><g id="allt"><path id="t4427" d="M264,1088 L254,1088 C245,1088 258,1092 247,1093 C237,1094 252,1086 241,1087 L231,1088 231,1088 L230,1097 C229,1107 238,1094 239,1103 C240,1113 228,1100 229,1110 L231,1120 231,1120 L240,1119 C250,1118 237,1127 247,1127 C257,1128 243,1117 253,1118 L264,1120 264,1120 L263,1110 C263,1100 270,1113 269,1104 C268,1095 261,1107 262,1097 L264,1088"/></g><clipPath id="c" clipRule="evenodd" fill="transparent"><use href="#t4427"/></clipPath></defs><svg viewBox="227 1085 44 44" preserveAspectRatio="xMinYMin meet"><svg width="4380" height="2430"><g><image crossorigin="anonymous" x="0" y="0" href="https://nftpuzzle.license-token.com/assets/completepuzzle.svg" width="100%" height="100%" /><g class="links"><use href="#t4427"/></g></g></svg><svg x="256" y="1114" height="9%" width="9%" viewBox="0 0 330 330"><g><a xlink:href="https://nftpuzzle.license-token.com/" class="links"><title>See the most innovative NFT based token software licensing project</title><path fill="#E4CF37" id="more" d="M165,0C74.019,0,0,74.019,0,165s74.019,165,165,165s165-74.019,165-165S255.981,0,165,0z M85,190 c-13.785,0-25-11.215-25-25s11.215-25,25-25s25,11.215,25,25S98.785,190,85,190z M165,190c-13.785,0-25-11.215-25-25 s11.215-25,25-25s25,11.215,25,25S178.785,190,165,190z M245,190c-13.785,0-25-11.215-25-25s11.215-25,25-25 c13.785,0,25,11.215,25,25S258.785,190,245,190z"></path></a></g></svg></svg></svg>