<svg version="1.1" xmlns="http://www.w3.org/2000/svg" xmlns:xlink="http://www.w3.org/1999/xlink" fill="transparent" x="0" y="0" width="350" height="350" preserveAspectRatio="xMinYMin slice"><style type="text/css">.links{fill:transparent;stroke: #E4CF37;}.links:hover{fill:#63D272; opacity:0.4;}</style><defs><g id="allt"><path id="t4429" d="M330,1088 L320,1089 C310,1091 324,1083 314,1082 C305,1081 318,1088 307,1088 L297,1088 297,1088 L297,1097 C297,1106 289,1097 289,1104 C289,1112 301,1102 299,1111 L297,1120 297,1120 L306,1120 C316,1120 306,1112 314,1112 C322,1112 311,1124 320,1122 L330,1120 330,1120 L330,1109 C330,1099 319,1111 321,1102 C324,1093 330,1108 330,1098 L330,1088"/></g><clipPath id="c" clipRule="evenodd" fill="transparent"><use href="#t4429"/></clipPath></defs><svg viewBox="288 1080 43 45" preserveAspectRatio="xMinYMin meet"><svg width="4380" height="2430"><g><image crossorigin="anonymous" x="0" y="0" href="https://nftpuzzle.license-token.com/assets/completepuzzle.svg" width="100%" height="100%" /><g class="links"><use href="#t4429"/></g></g></svg><svg x="316" y="1110" height="9%" width="9%" viewBox="0 0 330 330"><g><a xlink:href="https://nftpuzzle.license-token.com/" class="links"><title>See the most innovative NFT based token software licensing project</title><path fill="#E4CF37" id="more" d="M165,0C74.019,0,0,74.019,0,165s74.019,165,165,165s165-74.019,165-165S255.981,0,165,0z M85,190 c-13.785,0-25-11.215-25-25s11.215-25,25-25s25,11.215,25,25S98.785,190,85,190z M165,190c-13.785,0-25-11.215-25-25 s11.215-25,25-25s25,11.215,25,25S178.785,190,165,190z M245,190c-13.785,0-25-11.215-25-25s11.215-25,25-25 c13.785,0,25,11.215,25,25S258.785,190,245,190z"></path></a></g></svg></svg></svg>