<svg version="1.1" xmlns="http://www.w3.org/2000/svg" xmlns:xlink="http://www.w3.org/1999/xlink" fill="transparent" x="0" y="0" width="350" height="350" preserveAspectRatio="xMinYMin slice"><style type="text/css">.links{fill:transparent;stroke: #E4CF37;}.links:hover{fill:#63D272; opacity:0.4;}</style><defs><g id="allt"><path id="t4433" d="M462,1088 L451,1088 C440,1089 453,1078 444,1078 C436,1078 450,1088 439,1088 L429,1088 429,1088 L430,1097 C431,1107 422,1096 422,1103 C423,1111 432,1098 430,1109 L429,1120 429,1120 L439,1121 C449,1122 438,1113 445,1113 C453,1114 439,1123 450,1121 L462,1120 462,1120 L462,1109 C463,1099 453,1113 455,1103 C458,1094 463,1106 462,1097 L462,1088"/></g><clipPath id="c" clipRule="evenodd" fill="transparent"><use href="#t4433"/></clipPath></defs><svg viewBox="421 1077 43 47" preserveAspectRatio="xMinYMin meet"><svg width="4380" height="2430"><g><image crossorigin="anonymous" x="0" y="0" href="https://nftpuzzle.license-token.com/assets/completepuzzle.svg" width="100%" height="100%" /><g class="links"><use href="#t4433"/></g></g></svg><svg x="449" y="1109" height="9%" width="9%" viewBox="0 0 330 330"><g><a xlink:href="https://nftpuzzle.license-token.com/" class="links"><title>See the most innovative NFT based token software licensing project</title><path fill="#E4CF37" id="more" d="M165,0C74.019,0,0,74.019,0,165s74.019,165,165,165s165-74.019,165-165S255.981,0,165,0z M85,190 c-13.785,0-25-11.215-25-25s11.215-25,25-25s25,11.215,25,25S98.785,190,85,190z M165,190c-13.785,0-25-11.215-25-25 s11.215-25,25-25s25,11.215,25,25S178.785,190,165,190z M245,190c-13.785,0-25-11.215-25-25s11.215-25,25-25 c13.785,0,25,11.215,25,25S258.785,190,245,190z"></path></a></g></svg></svg></svg>