<svg version="1.1" xmlns="http://www.w3.org/2000/svg" xmlns:xlink="http://www.w3.org/1999/xlink" fill="transparent" x="0" y="0" width="350" height="350" preserveAspectRatio="xMinYMin slice"><style type="text/css">.links{fill:transparent;stroke: #E4CF37;}.links:hover{fill:#63D272; opacity:0.4;}</style><defs><g id="allt"><path id="t444" d="M1815,96 L1804,95 C1794,95 1809,104 1798,102 C1788,101 1802,96 1792,96 L1782,96 1782,96 L1782,106 C1782,116 1787,105 1786,113 C1786,121 1782,106 1782,117 L1782,128 1782,128 L1792,128 C1802,128 1791,133 1799,132 C1808,132 1793,128 1804,128 L1815,128 1815,128 L1816,117 C1818,106 1806,119 1807,110 C1808,102 1818,116 1816,106 L1815,96"/></g><clipPath id="c" clipRule="evenodd" fill="transparent"><use href="#t444"/></clipPath></defs><svg viewBox="1781 94 38 40" preserveAspectRatio="xMinYMin meet"><svg width="4380" height="2430"><g><image crossorigin="anonymous" x="0" y="0" href="https://nftpuzzle.license-token.com/assets/completepuzzle.svg" width="100%" height="100%" /><g class="links"><use href="#t444"/></g></g></svg><svg x="1804" y="119" height="9%" width="9%" viewBox="0 0 330 330"><g><a xlink:href="https://nftpuzzle.license-token.com/" class="links"><title>See the most innovative NFT based token software licensing project</title><path fill="#E4CF37" id="more" d="M165,0C74.019,0,0,74.019,0,165s74.019,165,165,165s165-74.019,165-165S255.981,0,165,0z M85,190 c-13.785,0-25-11.215-25-25s11.215-25,25-25s25,11.215,25,25S98.785,190,85,190z M165,190c-13.785,0-25-11.215-25-25 s11.215-25,25-25s25,11.215,25,25S178.785,190,165,190z M245,190c-13.785,0-25-11.215-25-25s11.215-25,25-25 c13.785,0,25,11.215,25,25S258.785,190,245,190z"></path></a></g></svg></svg></svg>