<svg version="1.1" xmlns="http://www.w3.org/2000/svg" xmlns:xlink="http://www.w3.org/1999/xlink" fill="transparent" x="0" y="0" width="350" height="350" preserveAspectRatio="xMinYMin slice"><style type="text/css">.links{fill:transparent;stroke: #E4CF37;}.links:hover{fill:#63D272; opacity:0.4;}</style><defs><g id="allt"><path id="t4440" d="M693,1088 L682,1087 C672,1086 685,1097 676,1097 C667,1097 680,1087 670,1087 L660,1088 660,1088 L660,1098 C660,1108 666,1093 665,1103 C665,1114 660,1100 660,1110 L660,1120 660,1120 L670,1120 C681,1120 665,1126 676,1125 C687,1125 672,1120 682,1120 L693,1120 693,1120 L693,1109 C693,1099 696,1111 695,1102 C695,1093 693,1106 693,1097 L693,1088"/></g><clipPath id="c" clipRule="evenodd" fill="transparent"><use href="#t4440"/></clipPath></defs><svg viewBox="659 1085 38 42" preserveAspectRatio="xMinYMin meet"><svg width="4380" height="2430"><g><image crossorigin="anonymous" x="0" y="0" href="https://nftpuzzle.license-token.com/assets/completepuzzle.svg" width="100%" height="100%" /><g class="links"><use href="#t4440"/></g></g></svg><svg x="682" y="1112" height="9%" width="9%" viewBox="0 0 330 330"><g><a xlink:href="https://nftpuzzle.license-token.com/" class="links"><title>See the most innovative NFT based token software licensing project</title><path fill="#E4CF37" id="more" d="M165,0C74.019,0,0,74.019,0,165s74.019,165,165,165s165-74.019,165-165S255.981,0,165,0z M85,190 c-13.785,0-25-11.215-25-25s11.215-25,25-25s25,11.215,25,25S98.785,190,85,190z M165,190c-13.785,0-25-11.215-25-25 s11.215-25,25-25s25,11.215,25,25S178.785,190,165,190z M245,190c-13.785,0-25-11.215-25-25s11.215-25,25-25 c13.785,0,25,11.215,25,25S258.785,190,245,190z"></path></a></g></svg></svg></svg>