<svg version="1.1" xmlns="http://www.w3.org/2000/svg" xmlns:xlink="http://www.w3.org/1999/xlink" fill="transparent" x="0" y="0" width="350" height="350" preserveAspectRatio="xMinYMin slice"><style type="text/css">.links{fill:transparent;stroke: #E4CF37;}.links:hover{fill:#63D272; opacity:0.4;}</style><defs><g id="allt"><path id="t4443" d="M792,1088 L782,1087 C773,1087 784,1094 774,1095 C765,1096 777,1086 768,1087 L759,1088 759,1088 L757,1098 C756,1108 763,1097 764,1104 C766,1112 756,1099 757,1109 L759,1120 759,1120 L769,1118 C780,1117 768,1124 775,1125 C783,1127 770,1117 781,1118 L792,1120 792,1120 L792,1109 C793,1098 786,1114 786,1104 C786,1094 792,1108 792,1098 L792,1088"/></g><clipPath id="c" clipRule="evenodd" fill="transparent"><use href="#t4443"/></clipPath></defs><svg viewBox="755 1085 39 43" preserveAspectRatio="xMinYMin meet"><svg width="4380" height="2430"><g><image crossorigin="anonymous" x="0" y="0" href="https://nftpuzzle.license-token.com/assets/completepuzzle.svg" width="100%" height="100%" /><g class="links"><use href="#t4443"/></g></g></svg><svg x="779" y="1113" height="9%" width="9%" viewBox="0 0 330 330"><g><a xlink:href="https://nftpuzzle.license-token.com/" class="links"><title>See the most innovative NFT based token software licensing project</title><path fill="#E4CF37" id="more" d="M165,0C74.019,0,0,74.019,0,165s74.019,165,165,165s165-74.019,165-165S255.981,0,165,0z M85,190 c-13.785,0-25-11.215-25-25s11.215-25,25-25s25,11.215,25,25S98.785,190,85,190z M165,190c-13.785,0-25-11.215-25-25 s11.215-25,25-25s25,11.215,25,25S178.785,190,165,190z M245,190c-13.785,0-25-11.215-25-25s11.215-25,25-25 c13.785,0,25,11.215,25,25S258.785,190,245,190z"></path></a></g></svg></svg></svg>