<svg version="1.1" xmlns="http://www.w3.org/2000/svg" xmlns:xlink="http://www.w3.org/1999/xlink" fill="transparent" x="0" y="0" width="350" height="350" preserveAspectRatio="xMinYMin slice"><style type="text/css">.links{fill:transparent;stroke: #E4CF37;}.links:hover{fill:#63D272; opacity:0.4;}</style><defs><g id="allt"><path id="t4444" d="M825,1088 L815,1088 C806,1088 817,1085 808,1084 C800,1084 810,1088 801,1088 L792,1088 792,1088 L792,1098 C792,1108 786,1094 786,1104 C786,1114 793,1098 792,1109 L792,1120 792,1120 L802,1120 C813,1120 798,1114 808,1114 C819,1114 802,1121 813,1120 L825,1120 825,1120 L824,1110 C823,1100 830,1114 829,1104 C828,1094 822,1109 823,1098 L825,1088"/></g><clipPath id="c" clipRule="evenodd" fill="transparent"><use href="#t4444"/></clipPath></defs><svg viewBox="785 1083 46 39" preserveAspectRatio="xMinYMin meet"><svg width="4380" height="2430"><g><image crossorigin="anonymous" x="0" y="0" href="https://nftpuzzle.license-token.com/assets/completepuzzle.svg" width="100%" height="100%" /><g class="links"><use href="#t4444"/></g></g></svg><svg x="816" y="1107" height="9%" width="9%" viewBox="0 0 330 330"><g><a xlink:href="https://nftpuzzle.license-token.com/" class="links"><title>See the most innovative NFT based token software licensing project</title><path fill="#E4CF37" id="more" d="M165,0C74.019,0,0,74.019,0,165s74.019,165,165,165s165-74.019,165-165S255.981,0,165,0z M85,190 c-13.785,0-25-11.215-25-25s11.215-25,25-25s25,11.215,25,25S98.785,190,85,190z M165,190c-13.785,0-25-11.215-25-25 s11.215-25,25-25s25,11.215,25,25S178.785,190,165,190z M245,190c-13.785,0-25-11.215-25-25s11.215-25,25-25 c13.785,0,25,11.215,25,25S258.785,190,245,190z"></path></a></g></svg></svg></svg>