<svg version="1.1" xmlns="http://www.w3.org/2000/svg" xmlns:xlink="http://www.w3.org/1999/xlink" fill="transparent" x="0" y="0" width="350" height="350" preserveAspectRatio="xMinYMin slice"><style type="text/css">.links{fill:transparent;stroke: #E4CF37;}.links:hover{fill:#63D272; opacity:0.4;}</style><defs><g id="allt"><path id="t4446" d="M891,1088 L881,1088 C871,1088 884,1084 873,1084 C862,1085 878,1089 868,1088 L858,1088 858,1088 L857,1097 C856,1107 870,1094 869,1104 C869,1114 858,1100 858,1110 L858,1120 858,1120 L868,1119 C878,1118 864,1132 874,1131 C885,1131 871,1120 881,1120 L891,1120 891,1120 L891,1111 C891,1102 896,1113 895,1103 C895,1094 890,1109 890,1098 L891,1088"/></g><clipPath id="c" clipRule="evenodd" fill="transparent"><use href="#t4446"/></clipPath></defs><svg viewBox="855 1083 42 50" preserveAspectRatio="xMinYMin meet"><svg width="4380" height="2430"><g><image crossorigin="anonymous" x="0" y="0" href="https://nftpuzzle.license-token.com/assets/completepuzzle.svg" width="100%" height="100%" /><g class="links"><use href="#t4446"/></g></g></svg><svg x="882" y="1118" height="9%" width="9%" viewBox="0 0 330 330"><g><a xlink:href="https://nftpuzzle.license-token.com/" class="links"><title>See the most innovative NFT based token software licensing project</title><path fill="#E4CF37" id="more" d="M165,0C74.019,0,0,74.019,0,165s74.019,165,165,165s165-74.019,165-165S255.981,0,165,0z M85,190 c-13.785,0-25-11.215-25-25s11.215-25,25-25s25,11.215,25,25S98.785,190,85,190z M165,190c-13.785,0-25-11.215-25-25 s11.215-25,25-25s25,11.215,25,25S178.785,190,165,190z M245,190c-13.785,0-25-11.215-25-25s11.215-25,25-25 c13.785,0,25,11.215,25,25S258.785,190,245,190z"></path></a></g></svg></svg></svg>