<svg version="1.1" xmlns="http://www.w3.org/2000/svg" xmlns:xlink="http://www.w3.org/1999/xlink" fill="transparent" x="0" y="0" width="350" height="350" preserveAspectRatio="xMinYMin slice"><style type="text/css">.links{fill:transparent;stroke: #E4CF37;}.links:hover{fill:#63D272; opacity:0.4;}</style><defs><g id="allt"><path id="t4450" d="M1023,1088 L1011,1088 C1000,1089 1017,1082 1007,1081 C998,1081 1008,1090 999,1089 L990,1088 990,1088 L988,1098 C987,1108 995,1097 994,1104 C994,1112 988,1102 989,1111 L990,1120 990,1120 L1000,1118 C1010,1117 999,1125 1007,1124 C1015,1124 1004,1118 1013,1119 L1023,1120 1023,1120 L1026,1110 C1029,1101 1013,1113 1014,1103 C1015,1093 1023,1108 1023,1098 L1023,1088"/></g><clipPath id="c" clipRule="evenodd" fill="transparent"><use href="#t4450"/></clipPath></defs><svg viewBox="986 1080 44 46" preserveAspectRatio="xMinYMin meet"><svg width="4380" height="2430"><g><image crossorigin="anonymous" x="0" y="0" href="https://nftpuzzle.license-token.com/assets/completepuzzle.svg" width="100%" height="100%" /><g class="links"><use href="#t4450"/></g></g></svg><svg x="1015" y="1111" height="9%" width="9%" viewBox="0 0 330 330"><g><a xlink:href="https://nftpuzzle.license-token.com/" class="links"><title>See the most innovative NFT based token software licensing project</title><path fill="#E4CF37" id="more" d="M165,0C74.019,0,0,74.019,0,165s74.019,165,165,165s165-74.019,165-165S255.981,0,165,0z M85,190 c-13.785,0-25-11.215-25-25s11.215-25,25-25s25,11.215,25,25S98.785,190,85,190z M165,190c-13.785,0-25-11.215-25-25 s11.215-25,25-25s25,11.215,25,25S178.785,190,165,190z M245,190c-13.785,0-25-11.215-25-25s11.215-25,25-25 c13.785,0,25,11.215,25,25S258.785,190,245,190z"></path></a></g></svg></svg></svg>