<svg version="1.1" xmlns="http://www.w3.org/2000/svg" xmlns:xlink="http://www.w3.org/1999/xlink" fill="transparent" x="0" y="0" width="350" height="350" preserveAspectRatio="xMinYMin slice"><style type="text/css">.links{fill:transparent;stroke: #E4CF37;}.links:hover{fill:#63D272; opacity:0.4;}</style><defs><g id="allt"><path id="t4453" d="M1122,1088 L1112,1088 C1103,1088 1115,1083 1106,1083 C1098,1083 1107,1088 1098,1088 L1089,1088 1089,1088 L1090,1096 C1092,1105 1082,1096 1081,1104 C1080,1113 1089,1101 1089,1110 L1089,1120 1089,1120 L1098,1121 C1107,1123 1097,1113 1106,1112 C1115,1112 1102,1120 1112,1120 L1122,1120 1122,1120 L1121,1110 C1121,1100 1112,1115 1113,1104 C1114,1094 1126,1108 1124,1098 L1122,1088"/></g><clipPath id="c" clipRule="evenodd" fill="transparent"><use href="#t4453"/></clipPath></defs><svg viewBox="1079 1082 48 42" preserveAspectRatio="xMinYMin meet"><svg width="4380" height="2430"><g><image crossorigin="anonymous" x="0" y="0" href="https://nftpuzzle.license-token.com/assets/completepuzzle.svg" width="100%" height="100%" /><g class="links"><use href="#t4453"/></g></g></svg><svg x="1112" y="1109" height="9%" width="9%" viewBox="0 0 330 330"><g><a xlink:href="https://nftpuzzle.license-token.com/" class="links"><title>See the most innovative NFT based token software licensing project</title><path fill="#E4CF37" id="more" d="M165,0C74.019,0,0,74.019,0,165s74.019,165,165,165s165-74.019,165-165S255.981,0,165,0z M85,190 c-13.785,0-25-11.215-25-25s11.215-25,25-25s25,11.215,25,25S98.785,190,85,190z M165,190c-13.785,0-25-11.215-25-25 s11.215-25,25-25s25,11.215,25,25S178.785,190,165,190z M245,190c-13.785,0-25-11.215-25-25s11.215-25,25-25 c13.785,0,25,11.215,25,25S258.785,190,245,190z"></path></a></g></svg></svg></svg>