<svg version="1.1" xmlns="http://www.w3.org/2000/svg" xmlns:xlink="http://www.w3.org/1999/xlink" fill="transparent" x="0" y="0" width="350" height="350" preserveAspectRatio="xMinYMin slice"><style type="text/css">.links{fill:transparent;stroke: #E4CF37;}.links:hover{fill:#63D272; opacity:0.4;}</style><defs><g id="allt"><path id="t4454" d="M1155,1088 L1145,1088 C1135,1088 1146,1082 1137,1083 C1128,1084 1143,1088 1132,1088 L1122,1088 1122,1088 L1124,1098 C1126,1108 1114,1094 1113,1104 C1112,1115 1121,1100 1121,1110 L1122,1120 1122,1120 L1132,1122 C1143,1124 1128,1112 1139,1111 C1150,1111 1134,1119 1144,1119 L1155,1120 1155,1120 L1155,1110 C1156,1100 1150,1112 1151,1104 C1153,1097 1155,1105 1155,1096 L1155,1088"/></g><clipPath id="c" clipRule="evenodd" fill="transparent"><use href="#t4454"/></clipPath></defs><svg viewBox="1111 1081 46 44" preserveAspectRatio="xMinYMin meet"><svg width="4380" height="2430"><g><image crossorigin="anonymous" x="0" y="0" href="https://nftpuzzle.license-token.com/assets/completepuzzle.svg" width="100%" height="100%" /><g class="links"><use href="#t4454"/></g></g></svg><svg x="1142" y="1110" height="9%" width="9%" viewBox="0 0 330 330"><g><a xlink:href="https://nftpuzzle.license-token.com/" class="links"><title>See the most innovative NFT based token software licensing project</title><path fill="#E4CF37" id="more" d="M165,0C74.019,0,0,74.019,0,165s74.019,165,165,165s165-74.019,165-165S255.981,0,165,0z M85,190 c-13.785,0-25-11.215-25-25s11.215-25,25-25s25,11.215,25,25S98.785,190,85,190z M165,190c-13.785,0-25-11.215-25-25 s11.215-25,25-25s25,11.215,25,25S178.785,190,165,190z M245,190c-13.785,0-25-11.215-25-25s11.215-25,25-25 c13.785,0,25,11.215,25,25S258.785,190,245,190z"></path></a></g></svg></svg></svg>