<svg version="1.1" xmlns="http://www.w3.org/2000/svg" xmlns:xlink="http://www.w3.org/1999/xlink" fill="transparent" x="0" y="0" width="350" height="350" preserveAspectRatio="xMinYMin slice"><style type="text/css">.links{fill:transparent;stroke: #E4CF37;}.links:hover{fill:#63D272; opacity:0.4;}</style><defs><g id="allt"><path id="t4457" d="M1254,1088 L1243,1087 C1233,1086 1248,1091 1238,1090 C1229,1090 1241,1087 1231,1087 L1221,1088 1221,1088 L1222,1098 C1224,1108 1216,1097 1214,1104 C1213,1111 1224,1098 1222,1109 L1221,1120 1221,1120 L1231,1121 C1242,1123 1230,1115 1237,1113 C1245,1112 1231,1123 1242,1121 L1254,1120 1254,1120 L1254,1110 C1254,1101 1256,1111 1256,1102 C1256,1094 1254,1107 1254,1097 L1254,1088"/></g><clipPath id="c" clipRule="evenodd" fill="transparent"><use href="#t4457"/></clipPath></defs><svg viewBox="1212 1085 45 39" preserveAspectRatio="xMinYMin meet"><svg width="4380" height="2430"><g><image crossorigin="anonymous" x="0" y="0" href="https://nftpuzzle.license-token.com/assets/completepuzzle.svg" width="100%" height="100%" /><g class="links"><use href="#t4457"/></g></g></svg><svg x="1242" y="1109" height="9%" width="9%" viewBox="0 0 330 330"><g><a xlink:href="https://nftpuzzle.license-token.com/" class="links"><title>See the most innovative NFT based token software licensing project</title><path fill="#E4CF37" id="more" d="M165,0C74.019,0,0,74.019,0,165s74.019,165,165,165s165-74.019,165-165S255.981,0,165,0z M85,190 c-13.785,0-25-11.215-25-25s11.215-25,25-25s25,11.215,25,25S98.785,190,85,190z M165,190c-13.785,0-25-11.215-25-25 s11.215-25,25-25s25,11.215,25,25S178.785,190,165,190z M245,190c-13.785,0-25-11.215-25-25s11.215-25,25-25 c13.785,0,25,11.215,25,25S258.785,190,245,190z"></path></a></g></svg></svg></svg>