<svg version="1.1" xmlns="http://www.w3.org/2000/svg" xmlns:xlink="http://www.w3.org/1999/xlink" fill="transparent" x="0" y="0" width="350" height="350" preserveAspectRatio="xMinYMin slice"><style type="text/css">.links{fill:transparent;stroke: #E4CF37;}.links:hover{fill:#63D272; opacity:0.4;}</style><defs><g id="allt"><path id="t4461" d="M1386,1088 L1375,1088 C1365,1088 1378,1084 1370,1084 C1362,1084 1374,1088 1363,1088 L1353,1088 1353,1088 L1353,1098 C1353,1108 1356,1095 1357,1103 C1358,1111 1352,1099 1352,1109 L1353,1120 1353,1120 L1363,1120 C1374,1120 1360,1123 1368,1124 C1377,1125 1364,1119 1375,1119 L1386,1120 1386,1120 L1385,1109 C1384,1099 1390,1113 1392,1104 C1394,1096 1386,1107 1386,1097 L1386,1088"/></g><clipPath id="c" clipRule="evenodd" fill="transparent"><use href="#t4461"/></clipPath></defs><svg viewBox="1351 1083 44 43" preserveAspectRatio="xMinYMin meet"><svg width="4380" height="2430"><g><image crossorigin="anonymous" x="0" y="0" href="https://nftpuzzle.license-token.com/assets/completepuzzle.svg" width="100%" height="100%" /><g class="links"><use href="#t4461"/></g></g></svg><svg x="1380" y="1111" height="9%" width="9%" viewBox="0 0 330 330"><g><a xlink:href="https://nftpuzzle.license-token.com/" class="links"><title>See the most innovative NFT based token software licensing project</title><path fill="#E4CF37" id="more" d="M165,0C74.019,0,0,74.019,0,165s74.019,165,165,165s165-74.019,165-165S255.981,0,165,0z M85,190 c-13.785,0-25-11.215-25-25s11.215-25,25-25s25,11.215,25,25S98.785,190,85,190z M165,190c-13.785,0-25-11.215-25-25 s11.215-25,25-25s25,11.215,25,25S178.785,190,165,190z M245,190c-13.785,0-25-11.215-25-25s11.215-25,25-25 c13.785,0,25,11.215,25,25S258.785,190,245,190z"></path></a></g></svg></svg></svg>