<svg version="1.1" xmlns="http://www.w3.org/2000/svg" xmlns:xlink="http://www.w3.org/1999/xlink" fill="transparent" x="0" y="0" width="350" height="350" preserveAspectRatio="xMinYMin slice"><style type="text/css">.links{fill:transparent;stroke: #E4CF37;}.links:hover{fill:#63D272; opacity:0.4;}</style><defs><g id="allt"><path id="t4467" d="M1584,1088 L1574,1087 C1565,1086 1574,1091 1565,1092 C1557,1094 1570,1086 1560,1087 L1551,1088 1551,1088 L1551,1097 C1551,1107 1555,1096 1557,1105 C1559,1114 1551,1100 1551,1110 L1551,1120 1551,1120 L1561,1120 C1571,1120 1559,1124 1568,1126 C1578,1128 1564,1120 1574,1120 L1584,1120 1584,1120 L1584,1110 C1584,1100 1578,1113 1575,1104 C1573,1095 1584,1105 1584,1096 L1584,1088"/></g><clipPath id="c" clipRule="evenodd" fill="transparent"><use href="#t4467"/></clipPath></defs><svg viewBox="1550 1085 35 44" preserveAspectRatio="xMinYMin meet"><svg width="4380" height="2430"><g><image crossorigin="anonymous" x="0" y="0" href="https://nftpuzzle.license-token.com/assets/completepuzzle.svg" width="100%" height="100%" /><g class="links"><use href="#t4467"/></g></g></svg><svg x="1570" y="1114" height="9%" width="9%" viewBox="0 0 330 330"><g><a xlink:href="https://nftpuzzle.license-token.com/" class="links"><title>See the most innovative NFT based token software licensing project</title><path fill="#E4CF37" id="more" d="M165,0C74.019,0,0,74.019,0,165s74.019,165,165,165s165-74.019,165-165S255.981,0,165,0z M85,190 c-13.785,0-25-11.215-25-25s11.215-25,25-25s25,11.215,25,25S98.785,190,85,190z M165,190c-13.785,0-25-11.215-25-25 s11.215-25,25-25s25,11.215,25,25S178.785,190,165,190z M245,190c-13.785,0-25-11.215-25-25s11.215-25,25-25 c13.785,0,25,11.215,25,25S258.785,190,245,190z"></path></a></g></svg></svg></svg>