<svg version="1.1" xmlns="http://www.w3.org/2000/svg" xmlns:xlink="http://www.w3.org/1999/xlink" fill="transparent" x="0" y="0" width="350" height="350" preserveAspectRatio="xMinYMin slice"><style type="text/css">.links{fill:transparent;stroke: #E4CF37;}.links:hover{fill:#63D272; opacity:0.4;}</style><defs><g id="allt"><path id="t4469" d="M1650,1088 L1640,1090 C1630,1093 1640,1077 1632,1077 C1625,1077 1635,1088 1626,1088 L1617,1088 1617,1088 L1616,1097 C1615,1106 1625,1096 1626,1104 C1627,1113 1612,1100 1614,1110 L1617,1120 1617,1120 L1626,1119 C1636,1118 1626,1128 1634,1129 C1643,1130 1629,1115 1639,1117 L1650,1120 1650,1120 L1648,1110 C1647,1100 1656,1112 1655,1104 C1655,1097 1650,1107 1650,1097 L1650,1088"/></g><clipPath id="c" clipRule="evenodd" fill="transparent"><use href="#t4469"/></clipPath></defs><svg viewBox="1611 1076 46 55" preserveAspectRatio="xMinYMin meet"><svg width="4380" height="2430"><g><image crossorigin="anonymous" x="0" y="0" href="https://nftpuzzle.license-token.com/assets/completepuzzle.svg" width="100%" height="100%" /><g class="links"><use href="#t4469"/></g></g></svg><svg x="1642" y="1116" height="9%" width="9%" viewBox="0 0 330 330"><g><a xlink:href="https://nftpuzzle.license-token.com/" class="links"><title>See the most innovative NFT based token software licensing project</title><path fill="#E4CF37" id="more" d="M165,0C74.019,0,0,74.019,0,165s74.019,165,165,165s165-74.019,165-165S255.981,0,165,0z M85,190 c-13.785,0-25-11.215-25-25s11.215-25,25-25s25,11.215,25,25S98.785,190,85,190z M165,190c-13.785,0-25-11.215-25-25 s11.215-25,25-25s25,11.215,25,25S178.785,190,165,190z M245,190c-13.785,0-25-11.215-25-25s11.215-25,25-25 c13.785,0,25,11.215,25,25S258.785,190,245,190z"></path></a></g></svg></svg></svg>