<svg version="1.1" xmlns="http://www.w3.org/2000/svg" xmlns:xlink="http://www.w3.org/1999/xlink" fill="transparent" x="0" y="0" width="350" height="350" preserveAspectRatio="xMinYMin slice"><style type="text/css">.links{fill:transparent;stroke: #E4CF37;}.links:hover{fill:#63D272; opacity:0.4;}</style><defs><g id="allt"><path id="t4473" d="M1782,1088 L1771,1088 C1761,1088 1774,1093 1765,1093 C1757,1093 1769,1087 1759,1087 L1749,1088 1749,1088 L1750,1097 C1751,1106 1736,1096 1736,1105 C1736,1114 1749,1102 1749,1111 L1749,1120 1749,1120 L1758,1121 C1768,1122 1757,1108 1766,1107 C1776,1107 1763,1120 1772,1120 L1782,1120 1782,1120 L1783,1110 C1784,1101 1776,1113 1776,1104 C1776,1096 1782,1105 1782,1096 L1782,1088"/></g><clipPath id="c" clipRule="evenodd" fill="transparent"><use href="#t4473"/></clipPath></defs><svg viewBox="1735 1086 50 37" preserveAspectRatio="xMinYMin meet"><svg width="4380" height="2430"><g><image crossorigin="anonymous" x="0" y="0" href="https://nftpuzzle.license-token.com/assets/completepuzzle.svg" width="100%" height="100%" /><g class="links"><use href="#t4473"/></g></g></svg><svg x="1770" y="1108" height="9%" width="9%" viewBox="0 0 330 330"><g><a xlink:href="https://nftpuzzle.license-token.com/" class="links"><title>See the most innovative NFT based token software licensing project</title><path fill="#E4CF37" id="more" d="M165,0C74.019,0,0,74.019,0,165s74.019,165,165,165s165-74.019,165-165S255.981,0,165,0z M85,190 c-13.785,0-25-11.215-25-25s11.215-25,25-25s25,11.215,25,25S98.785,190,85,190z M165,190c-13.785,0-25-11.215-25-25 s11.215-25,25-25s25,11.215,25,25S178.785,190,165,190z M245,190c-13.785,0-25-11.215-25-25s11.215-25,25-25 c13.785,0,25,11.215,25,25S258.785,190,245,190z"></path></a></g></svg></svg></svg>