<svg version="1.1" xmlns="http://www.w3.org/2000/svg" xmlns:xlink="http://www.w3.org/1999/xlink" fill="transparent" x="0" y="0" width="350" height="350" preserveAspectRatio="xMinYMin slice"><style type="text/css">.links{fill:transparent;stroke: #E4CF37;}.links:hover{fill:#63D272; opacity:0.4;}</style><defs><g id="allt"><path id="t4474" d="M1815,1088 L1805,1090 C1796,1092 1807,1081 1798,1081 C1790,1081 1801,1088 1791,1088 L1782,1088 1782,1088 L1782,1096 C1782,1105 1776,1096 1776,1104 C1776,1113 1784,1101 1783,1110 L1782,1120 1782,1120 L1791,1120 C1800,1120 1791,1114 1799,1114 C1808,1114 1795,1122 1805,1121 L1815,1120 1815,1120 L1812,1110 C1810,1101 1825,1110 1823,1102 C1822,1094 1810,1109 1812,1098 L1815,1088"/></g><clipPath id="c" clipRule="evenodd" fill="transparent"><use href="#t4474"/></clipPath></defs><svg viewBox="1775 1080 51 43" preserveAspectRatio="xMinYMin meet"><svg width="4380" height="2430"><g><image crossorigin="anonymous" x="0" y="0" href="https://nftpuzzle.license-token.com/assets/completepuzzle.svg" width="100%" height="100%" /><g class="links"><use href="#t4474"/></g></g></svg><svg x="1811" y="1108" height="9%" width="9%" viewBox="0 0 330 330"><g><a xlink:href="https://nftpuzzle.license-token.com/" class="links"><title>See the most innovative NFT based token software licensing project</title><path fill="#E4CF37" id="more" d="M165,0C74.019,0,0,74.019,0,165s74.019,165,165,165s165-74.019,165-165S255.981,0,165,0z M85,190 c-13.785,0-25-11.215-25-25s11.215-25,25-25s25,11.215,25,25S98.785,190,85,190z M165,190c-13.785,0-25-11.215-25-25 s11.215-25,25-25s25,11.215,25,25S178.785,190,165,190z M245,190c-13.785,0-25-11.215-25-25s11.215-25,25-25 c13.785,0,25,11.215,25,25S258.785,190,245,190z"></path></a></g></svg></svg></svg>