<svg version="1.1" xmlns="http://www.w3.org/2000/svg" xmlns:xlink="http://www.w3.org/1999/xlink" fill="transparent" x="0" y="0" width="350" height="350" preserveAspectRatio="xMinYMin slice"><style type="text/css">.links{fill:transparent;stroke: #E4CF37;}.links:hover{fill:#63D272; opacity:0.4;}</style><defs><g id="allt"><path id="t4475" d="M1848,1088 L1837,1088 C1826,1088 1839,1076 1831,1077 C1823,1078 1834,1089 1824,1088 L1815,1088 1815,1088 L1812,1098 C1810,1109 1822,1094 1823,1102 C1825,1110 1810,1101 1812,1110 L1815,1120 1815,1120 L1826,1117 C1837,1115 1821,1127 1829,1128 C1838,1130 1828,1115 1838,1117 L1848,1120 1848,1120 L1848,1109 C1848,1099 1845,1114 1844,1104 C1843,1095 1848,1108 1848,1098 L1848,1088"/></g><clipPath id="c" clipRule="evenodd" fill="transparent"><use href="#t4475"/></clipPath></defs><svg viewBox="1809 1075 40 56" preserveAspectRatio="xMinYMin meet"><svg width="4380" height="2430"><g><image crossorigin="anonymous" x="0" y="0" href="https://nftpuzzle.license-token.com/assets/completepuzzle.svg" width="100%" height="100%" /><g class="links"><use href="#t4475"/></g></g></svg><svg x="1834" y="1116" height="9%" width="9%" viewBox="0 0 330 330"><g><a xlink:href="https://nftpuzzle.license-token.com/" class="links"><title>See the most innovative NFT based token software licensing project</title><path fill="#E4CF37" id="more" d="M165,0C74.019,0,0,74.019,0,165s74.019,165,165,165s165-74.019,165-165S255.981,0,165,0z M85,190 c-13.785,0-25-11.215-25-25s11.215-25,25-25s25,11.215,25,25S98.785,190,85,190z M165,190c-13.785,0-25-11.215-25-25 s11.215-25,25-25s25,11.215,25,25S178.785,190,165,190z M245,190c-13.785,0-25-11.215-25-25s11.215-25,25-25 c13.785,0,25,11.215,25,25S258.785,190,245,190z"></path></a></g></svg></svg></svg>