<svg version="1.1" xmlns="http://www.w3.org/2000/svg" xmlns:xlink="http://www.w3.org/1999/xlink" fill="transparent" x="0" y="0" width="350" height="350" preserveAspectRatio="xMinYMin slice"><style type="text/css">.links{fill:transparent;stroke: #E4CF37;}.links:hover{fill:#63D272; opacity:0.4;}</style><defs><g id="allt"><path id="t4476" d="M1881,1088 L1871,1089 C1861,1090 1873,1084 1865,1084 C1857,1084 1869,1088 1858,1088 L1848,1088 1848,1088 L1848,1098 C1848,1108 1843,1095 1844,1104 C1845,1114 1848,1099 1848,1109 L1848,1120 1848,1120 L1858,1120 C1869,1120 1855,1115 1865,1116 C1875,1117 1859,1120 1870,1120 L1881,1120 1881,1120 L1880,1110 C1879,1101 1888,1110 1887,1102 C1887,1094 1881,1106 1881,1097 L1881,1088"/></g><clipPath id="c" clipRule="evenodd" fill="transparent"><use href="#t4476"/></clipPath></defs><svg viewBox="1842 1083 47 38" preserveAspectRatio="xMinYMin meet"><svg width="4380" height="2430"><g><image crossorigin="anonymous" x="0" y="0" href="https://nftpuzzle.license-token.com/assets/completepuzzle.svg" width="100%" height="100%" /><g class="links"><use href="#t4476"/></g></g></svg><svg x="1874" y="1106" height="9%" width="9%" viewBox="0 0 330 330"><g><a xlink:href="https://nftpuzzle.license-token.com/" class="links"><title>See the most innovative NFT based token software licensing project</title><path fill="#E4CF37" id="more" d="M165,0C74.019,0,0,74.019,0,165s74.019,165,165,165s165-74.019,165-165S255.981,0,165,0z M85,190 c-13.785,0-25-11.215-25-25s11.215-25,25-25s25,11.215,25,25S98.785,190,85,190z M165,190c-13.785,0-25-11.215-25-25 s11.215-25,25-25s25,11.215,25,25S178.785,190,165,190z M245,190c-13.785,0-25-11.215-25-25s11.215-25,25-25 c13.785,0,25,11.215,25,25S258.785,190,245,190z"></path></a></g></svg></svg></svg>