<svg version="1.1" xmlns="http://www.w3.org/2000/svg" xmlns:xlink="http://www.w3.org/1999/xlink" fill="transparent" x="0" y="0" width="350" height="350" preserveAspectRatio="xMinYMin slice"><style type="text/css">.links{fill:transparent;stroke: #E4CF37;}.links:hover{fill:#63D272; opacity:0.4;}</style><defs><g id="allt"><path id="t4478" d="M1947,1088 L1937,1086 C1927,1085 1941,1092 1932,1092 C1923,1092 1934,1088 1924,1088 L1914,1088 1914,1088 L1913,1097 C1912,1106 1922,1094 1921,1103 C1920,1112 1912,1099 1913,1109 L1914,1120 1914,1120 L1923,1119 C1933,1118 1920,1128 1929,1127 C1938,1126 1925,1118 1936,1119 L1947,1120 1947,1120 L1945,1110 C1943,1100 1951,1110 1952,1103 C1954,1096 1944,1105 1945,1096 L1947,1088"/></g><clipPath id="c" clipRule="evenodd" fill="transparent"><use href="#t4478"/></clipPath></defs><svg viewBox="1911 1084 44 45" preserveAspectRatio="xMinYMin meet"><svg width="4380" height="2430"><g><image crossorigin="anonymous" x="0" y="0" href="https://nftpuzzle.license-token.com/assets/completepuzzle.svg" width="100%" height="100%" /><g class="links"><use href="#t4478"/></g></g></svg><svg x="1940" y="1114" height="9%" width="9%" viewBox="0 0 330 330"><g><a xlink:href="https://nftpuzzle.license-token.com/" class="links"><title>See the most innovative NFT based token software licensing project</title><path fill="#E4CF37" id="more" d="M165,0C74.019,0,0,74.019,0,165s74.019,165,165,165s165-74.019,165-165S255.981,0,165,0z M85,190 c-13.785,0-25-11.215-25-25s11.215-25,25-25s25,11.215,25,25S98.785,190,85,190z M165,190c-13.785,0-25-11.215-25-25 s11.215-25,25-25s25,11.215,25,25S178.785,190,165,190z M245,190c-13.785,0-25-11.215-25-25s11.215-25,25-25 c13.785,0,25,11.215,25,25S258.785,190,245,190z"></path></a></g></svg></svg></svg>