<svg version="1.1" xmlns="http://www.w3.org/2000/svg" xmlns:xlink="http://www.w3.org/1999/xlink" fill="transparent" x="0" y="0" width="350" height="350" preserveAspectRatio="xMinYMin slice"><style type="text/css">.links{fill:transparent;stroke: #E4CF37;}.links:hover{fill:#63D272; opacity:0.4;}</style><defs><g id="allt"><path id="t4484" d="M2145,1088 L2135,1088 C2125,1088 2138,1091 2129,1091 C2121,1092 2130,1086 2121,1087 L2112,1088 2112,1088 L2110,1097 C2109,1106 2121,1096 2120,1105 C2119,1115 2112,1100 2112,1110 L2112,1120 2112,1120 L2121,1118 C2131,1117 2121,1129 2130,1128 C2140,1127 2125,1120 2135,1120 L2145,1120 2145,1120 L2146,1110 C2147,1100 2133,1110 2134,1101 C2135,1093 2146,1108 2145,1098 L2145,1088"/></g><clipPath id="c" clipRule="evenodd" fill="transparent"><use href="#t4484"/></clipPath></defs><svg viewBox="2108 1085 40 45" preserveAspectRatio="xMinYMin meet"><svg width="4380" height="2430"><g><image crossorigin="anonymous" x="0" y="0" href="https://nftpuzzle.license-token.com/assets/completepuzzle.svg" width="100%" height="100%" /><g class="links"><use href="#t4484"/></g></g></svg><svg x="2133" y="1115" height="9%" width="9%" viewBox="0 0 330 330"><g><a xlink:href="https://nftpuzzle.license-token.com/" class="links"><title>See the most innovative NFT based token software licensing project</title><path fill="#E4CF37" id="more" d="M165,0C74.019,0,0,74.019,0,165s74.019,165,165,165s165-74.019,165-165S255.981,0,165,0z M85,190 c-13.785,0-25-11.215-25-25s11.215-25,25-25s25,11.215,25,25S98.785,190,85,190z M165,190c-13.785,0-25-11.215-25-25 s11.215-25,25-25s25,11.215,25,25S178.785,190,165,190z M245,190c-13.785,0-25-11.215-25-25s11.215-25,25-25 c13.785,0,25,11.215,25,25S258.785,190,245,190z"></path></a></g></svg></svg></svg>