<svg version="1.1" xmlns="http://www.w3.org/2000/svg" xmlns:xlink="http://www.w3.org/1999/xlink" fill="transparent" x="0" y="0" width="350" height="350" preserveAspectRatio="xMinYMin slice"><style type="text/css">.links{fill:transparent;stroke: #E4CF37;}.links:hover{fill:#63D272; opacity:0.4;}</style><defs><g id="allt"><path id="t4485" d="M2178,1088 L2167,1088 C2156,1088 2169,1092 2161,1092 C2153,1092 2166,1087 2155,1087 L2145,1088 2145,1088 L2145,1098 C2146,1108 2135,1093 2134,1101 C2133,1110 2147,1100 2146,1110 L2145,1120 2145,1120 L2155,1120 C2165,1121 2150,1111 2159,1110 C2168,1109 2157,1122 2167,1121 L2178,1120 2178,1120 L2177,1109 C2176,1099 2183,1110 2184,1103 C2185,1097 2178,1106 2178,1097 L2178,1088"/></g><clipPath id="c" clipRule="evenodd" fill="transparent"><use href="#t4485"/></clipPath></defs><svg viewBox="2132 1086 54 37" preserveAspectRatio="xMinYMin meet"><svg width="4380" height="2430"><g><image crossorigin="anonymous" x="0" y="0" href="https://nftpuzzle.license-token.com/assets/completepuzzle.svg" width="100%" height="100%" /><g class="links"><use href="#t4485"/></g></g></svg><svg x="2171" y="1108" height="9%" width="9%" viewBox="0 0 330 330"><g><a xlink:href="https://nftpuzzle.license-token.com/" class="links"><title>See the most innovative NFT based token software licensing project</title><path fill="#E4CF37" id="more" d="M165,0C74.019,0,0,74.019,0,165s74.019,165,165,165s165-74.019,165-165S255.981,0,165,0z M85,190 c-13.785,0-25-11.215-25-25s11.215-25,25-25s25,11.215,25,25S98.785,190,85,190z M165,190c-13.785,0-25-11.215-25-25 s11.215-25,25-25s25,11.215,25,25S178.785,190,165,190z M245,190c-13.785,0-25-11.215-25-25s11.215-25,25-25 c13.785,0,25,11.215,25,25S258.785,190,245,190z"></path></a></g></svg></svg></svg>