<svg version="1.1" xmlns="http://www.w3.org/2000/svg" xmlns:xlink="http://www.w3.org/1999/xlink" fill="transparent" x="0" y="0" width="350" height="350" preserveAspectRatio="xMinYMin slice"><style type="text/css">.links{fill:transparent;stroke: #E4CF37;}.links:hover{fill:#63D272; opacity:0.4;}</style><defs><g id="allt"><path id="t449" d="M1980,96 L1970,94 C1961,93 1972,106 1962,106 C1952,106 1969,95 1958,95 L1947,96 1947,96 L1949,105 C1952,115 1941,104 1940,112 C1939,121 1947,106 1947,117 L1947,128 1947,128 L1957,130 C1967,133 1955,122 1964,121 C1973,120 1957,128 1968,128 L1980,128 1980,128 L1982,118 C1985,109 1971,122 1970,113 C1969,104 1984,115 1982,105 L1980,96"/></g><clipPath id="c" clipRule="evenodd" fill="transparent"><use href="#t449"/></clipPath></defs><svg viewBox="1938 92 48 42" preserveAspectRatio="xMinYMin meet"><svg width="4380" height="2430"><g><image crossorigin="anonymous" x="0" y="0" href="https://nftpuzzle.license-token.com/assets/completepuzzle.svg" width="100%" height="100%" /><g class="links"><use href="#t449"/></g></g></svg><svg x="1971" y="119" height="9%" width="9%" viewBox="0 0 330 330"><g><a xlink:href="https://nftpuzzle.license-token.com/" class="links"><title>See the most innovative NFT based token software licensing project</title><path fill="#E4CF37" id="more" d="M165,0C74.019,0,0,74.019,0,165s74.019,165,165,165s165-74.019,165-165S255.981,0,165,0z M85,190 c-13.785,0-25-11.215-25-25s11.215-25,25-25s25,11.215,25,25S98.785,190,85,190z M165,190c-13.785,0-25-11.215-25-25 s11.215-25,25-25s25,11.215,25,25S178.785,190,165,190z M245,190c-13.785,0-25-11.215-25-25s11.215-25,25-25 c13.785,0,25,11.215,25,25S258.785,190,245,190z"></path></a></g></svg></svg></svg>