<svg version="1.1" xmlns="http://www.w3.org/2000/svg" xmlns:xlink="http://www.w3.org/1999/xlink" fill="transparent" x="0" y="0" width="350" height="350" preserveAspectRatio="xMinYMin slice"><style type="text/css">.links{fill:transparent;stroke: #E4CF37;}.links:hover{fill:#63D272; opacity:0.4;}</style><defs><g id="allt"><path id="t4495" d="M2508,1088 L2497,1089 C2487,1090 2499,1084 2490,1085 C2481,1086 2496,1088 2485,1088 L2475,1088 2475,1088 L2475,1098 C2476,1109 2471,1094 2470,1102 C2469,1111 2475,1102 2475,1111 L2475,1120 2475,1120 L2486,1120 C2497,1121 2481,1116 2490,1115 C2499,1114 2489,1120 2498,1120 L2508,1120 2508,1120 L2508,1111 C2508,1102 2501,1115 2501,1105 C2502,1096 2507,1106 2507,1097 L2508,1088"/></g><clipPath id="c" clipRule="evenodd" fill="transparent"><use href="#t4495"/></clipPath></defs><svg viewBox="2468 1083 41 39" preserveAspectRatio="xMinYMin meet"><svg width="4380" height="2430"><g><image crossorigin="anonymous" x="0" y="0" href="https://nftpuzzle.license-token.com/assets/completepuzzle.svg" width="100%" height="100%" /><g class="links"><use href="#t4495"/></g></g></svg><svg x="2494" y="1107" height="9%" width="9%" viewBox="0 0 330 330"><g><a xlink:href="https://nftpuzzle.license-token.com/" class="links"><title>See the most innovative NFT based token software licensing project</title><path fill="#E4CF37" id="more" d="M165,0C74.019,0,0,74.019,0,165s74.019,165,165,165s165-74.019,165-165S255.981,0,165,0z M85,190 c-13.785,0-25-11.215-25-25s11.215-25,25-25s25,11.215,25,25S98.785,190,85,190z M165,190c-13.785,0-25-11.215-25-25 s11.215-25,25-25s25,11.215,25,25S178.785,190,165,190z M245,190c-13.785,0-25-11.215-25-25s11.215-25,25-25 c13.785,0,25,11.215,25,25S258.785,190,245,190z"></path></a></g></svg></svg></svg>