<svg version="1.1" xmlns="http://www.w3.org/2000/svg" xmlns:xlink="http://www.w3.org/1999/xlink" fill="transparent" x="0" y="0" width="350" height="350" preserveAspectRatio="xMinYMin slice"><style type="text/css">.links{fill:transparent;stroke: #E4CF37;}.links:hover{fill:#63D272; opacity:0.4;}</style><defs><g id="allt"><path id="t4501" d="M2706,1088 L2696,1088 C2687,1088 2700,1081 2688,1083 C2677,1085 2693,1088 2683,1088 L2673,1088 2673,1088 L2672,1098 C2672,1108 2675,1095 2676,1103 C2677,1111 2672,1098 2672,1109 L2673,1120 2673,1120 L2683,1119 C2694,1119 2680,1122 2688,1123 C2697,1124 2683,1119 2694,1119 L2706,1120 2706,1120 L2706,1110 C2707,1101 2703,1112 2703,1103 C2703,1094 2707,1106 2706,1097 L2706,1088"/></g><clipPath id="c" clipRule="evenodd" fill="transparent"><use href="#t4501"/></clipPath></defs><svg viewBox="2671 1080 37 45" preserveAspectRatio="xMinYMin meet"><svg width="4380" height="2430"><g><image crossorigin="anonymous" x="0" y="0" href="https://nftpuzzle.license-token.com/assets/completepuzzle.svg" width="100%" height="100%" /><g class="links"><use href="#t4501"/></g></g></svg><svg x="2693" y="1110" height="9%" width="9%" viewBox="0 0 330 330"><g><a xlink:href="https://nftpuzzle.license-token.com/" class="links"><title>See the most innovative NFT based token software licensing project</title><path fill="#E4CF37" id="more" d="M165,0C74.019,0,0,74.019,0,165s74.019,165,165,165s165-74.019,165-165S255.981,0,165,0z M85,190 c-13.785,0-25-11.215-25-25s11.215-25,25-25s25,11.215,25,25S98.785,190,85,190z M165,190c-13.785,0-25-11.215-25-25 s11.215-25,25-25s25,11.215,25,25S178.785,190,165,190z M245,190c-13.785,0-25-11.215-25-25s11.215-25,25-25 c13.785,0,25,11.215,25,25S258.785,190,245,190z"></path></a></g></svg></svg></svg>