<svg version="1.1" xmlns="http://www.w3.org/2000/svg" xmlns:xlink="http://www.w3.org/1999/xlink" fill="transparent" x="0" y="0" width="350" height="350" preserveAspectRatio="xMinYMin slice"><style type="text/css">.links{fill:transparent;stroke: #E4CF37;}.links:hover{fill:#63D272; opacity:0.4;}</style><defs><g id="allt"><path id="t4504" d="M2805,1088 L2794,1086 C2783,1085 2800,1096 2790,1096 C2781,1096 2792,1087 2782,1087 L2772,1088 2772,1088 L2773,1098 C2775,1108 2769,1094 2766,1104 C2764,1114 2772,1098 2772,1109 L2772,1120 2772,1120 L2782,1121 C2793,1123 2778,1117 2788,1114 C2799,1112 2782,1120 2793,1120 L2805,1120 2805,1120 L2805,1111 C2806,1102 2801,1113 2801,1104 C2802,1096 2807,1107 2806,1097 L2805,1088"/></g><clipPath id="c" clipRule="evenodd" fill="transparent"><use href="#t4504"/></clipPath></defs><svg viewBox="2763 1084 45 40" preserveAspectRatio="xMinYMin meet"><svg width="4380" height="2430"><g><image crossorigin="anonymous" x="0" y="0" href="https://nftpuzzle.license-token.com/assets/completepuzzle.svg" width="100%" height="100%" /><g class="links"><use href="#t4504"/></g></g></svg><svg x="2793" y="1109" height="9%" width="9%" viewBox="0 0 330 330"><g><a xlink:href="https://nftpuzzle.license-token.com/" class="links"><title>See the most innovative NFT based token software licensing project</title><path fill="#E4CF37" id="more" d="M165,0C74.019,0,0,74.019,0,165s74.019,165,165,165s165-74.019,165-165S255.981,0,165,0z M85,190 c-13.785,0-25-11.215-25-25s11.215-25,25-25s25,11.215,25,25S98.785,190,85,190z M165,190c-13.785,0-25-11.215-25-25 s11.215-25,25-25s25,11.215,25,25S178.785,190,165,190z M245,190c-13.785,0-25-11.215-25-25s11.215-25,25-25 c13.785,0,25,11.215,25,25S258.785,190,245,190z"></path></a></g></svg></svg></svg>