<svg version="1.1" xmlns="http://www.w3.org/2000/svg" xmlns:xlink="http://www.w3.org/1999/xlink" fill="transparent" x="0" y="0" width="350" height="350" preserveAspectRatio="xMinYMin slice"><style type="text/css">.links{fill:transparent;stroke: #E4CF37;}.links:hover{fill:#63D272; opacity:0.4;}</style><defs><g id="allt"><path id="t4505" d="M2838,1088 L2827,1087 C2816,1087 2832,1094 2821,1093 C2811,1093 2827,1088 2816,1088 L2805,1088 2805,1088 L2806,1097 C2807,1107 2802,1096 2801,1104 C2801,1113 2806,1102 2805,1111 L2805,1120 2805,1120 L2815,1121 C2825,1122 2813,1117 2822,1116 C2831,1116 2819,1121 2828,1120 L2838,1120 2838,1120 L2838,1110 C2839,1101 2834,1114 2834,1105 C2834,1096 2838,1106 2838,1097 L2838,1088"/></g><clipPath id="c" clipRule="evenodd" fill="transparent"><use href="#t4505"/></clipPath></defs><svg viewBox="2800 1086 40 37" preserveAspectRatio="xMinYMin meet"><svg width="4380" height="2430"><g><image crossorigin="anonymous" x="0" y="0" href="https://nftpuzzle.license-token.com/assets/completepuzzle.svg" width="100%" height="100%" /><g class="links"><use href="#t4505"/></g></g></svg><svg x="2825" y="1108" height="9%" width="9%" viewBox="0 0 330 330"><g><a xlink:href="https://nftpuzzle.license-token.com/" class="links"><title>See the most innovative NFT based token software licensing project</title><path fill="#E4CF37" id="more" d="M165,0C74.019,0,0,74.019,0,165s74.019,165,165,165s165-74.019,165-165S255.981,0,165,0z M85,190 c-13.785,0-25-11.215-25-25s11.215-25,25-25s25,11.215,25,25S98.785,190,85,190z M165,190c-13.785,0-25-11.215-25-25 s11.215-25,25-25s25,11.215,25,25S178.785,190,165,190z M245,190c-13.785,0-25-11.215-25-25s11.215-25,25-25 c13.785,0,25,11.215,25,25S258.785,190,245,190z"></path></a></g></svg></svg></svg>