<svg version="1.1" xmlns="http://www.w3.org/2000/svg" xmlns:xlink="http://www.w3.org/1999/xlink" fill="transparent" x="0" y="0" width="350" height="350" preserveAspectRatio="xMinYMin slice"><style type="text/css">.links{fill:transparent;stroke: #E4CF37;}.links:hover{fill:#63D272; opacity:0.4;}</style><defs><g id="allt"><path id="t4509" d="M2970,1088 L2960,1088 C2951,1088 2964,1086 2954,1085 C2944,1085 2955,1088 2946,1088 L2937,1088 2937,1088 L2937,1096 C2937,1105 2940,1097 2941,1104 C2942,1111 2937,1100 2937,1110 L2937,1120 2937,1120 L2946,1120 C2955,1120 2946,1123 2953,1124 C2961,1125 2949,1120 2959,1120 L2970,1120 2970,1120 L2970,1110 C2970,1100 2975,1111 2977,1103 C2979,1095 2969,1109 2969,1098 L2970,1088"/></g><clipPath id="c" clipRule="evenodd" fill="transparent"><use href="#t4509"/></clipPath></defs><svg viewBox="2936 1084 44 42" preserveAspectRatio="xMinYMin meet"><svg width="4380" height="2430"><g><image crossorigin="anonymous" x="0" y="0" href="https://nftpuzzle.license-token.com/assets/completepuzzle.svg" width="100%" height="100%" /><g class="links"><use href="#t4509"/></g></g></svg><svg x="2965" y="1111" height="9%" width="9%" viewBox="0 0 330 330"><g><a xlink:href="https://nftpuzzle.license-token.com/" class="links"><title>See the most innovative NFT based token software licensing project</title><path fill="#E4CF37" id="more" d="M165,0C74.019,0,0,74.019,0,165s74.019,165,165,165s165-74.019,165-165S255.981,0,165,0z M85,190 c-13.785,0-25-11.215-25-25s11.215-25,25-25s25,11.215,25,25S98.785,190,85,190z M165,190c-13.785,0-25-11.215-25-25 s11.215-25,25-25s25,11.215,25,25S178.785,190,165,190z M245,190c-13.785,0-25-11.215-25-25s11.215-25,25-25 c13.785,0,25,11.215,25,25S258.785,190,245,190z"></path></a></g></svg></svg></svg>