<svg version="1.1" xmlns="http://www.w3.org/2000/svg" xmlns:xlink="http://www.w3.org/1999/xlink" fill="transparent" x="0" y="0" width="350" height="350" preserveAspectRatio="xMinYMin slice"><style type="text/css">.links{fill:transparent;stroke: #E4CF37;}.links:hover{fill:#63D272; opacity:0.4;}</style><defs><g id="allt"><path id="t4510" d="M3003,1088 L2992,1088 C2982,1088 2993,1084 2985,1084 C2977,1084 2989,1091 2979,1089 L2970,1088 2970,1088 L2969,1098 C2969,1109 2979,1095 2977,1103 C2975,1111 2970,1100 2970,1110 L2970,1120 2970,1120 L2980,1119 C2991,1119 2977,1128 2985,1126 C2994,1125 2982,1120 2992,1120 L3003,1120 3003,1120 L3004,1110 C3005,1101 3000,1112 2999,1104 C2999,1096 3003,1107 3003,1097 L3003,1088"/></g><clipPath id="c" clipRule="evenodd" fill="transparent"><use href="#t4510"/></clipPath></defs><svg viewBox="2968 1083 38 46" preserveAspectRatio="xMinYMin meet"><svg width="4380" height="2430"><g><image crossorigin="anonymous" x="0" y="0" href="https://nftpuzzle.license-token.com/assets/completepuzzle.svg" width="100%" height="100%" /><g class="links"><use href="#t4510"/></g></g></svg><svg x="2991" y="1114" height="9%" width="9%" viewBox="0 0 330 330"><g><a xlink:href="https://nftpuzzle.license-token.com/" class="links"><title>See the most innovative NFT based token software licensing project</title><path fill="#E4CF37" id="more" d="M165,0C74.019,0,0,74.019,0,165s74.019,165,165,165s165-74.019,165-165S255.981,0,165,0z M85,190 c-13.785,0-25-11.215-25-25s11.215-25,25-25s25,11.215,25,25S98.785,190,85,190z M165,190c-13.785,0-25-11.215-25-25 s11.215-25,25-25s25,11.215,25,25S178.785,190,165,190z M245,190c-13.785,0-25-11.215-25-25s11.215-25,25-25 c13.785,0,25,11.215,25,25S258.785,190,245,190z"></path></a></g></svg></svg></svg>