<svg version="1.1" xmlns="http://www.w3.org/2000/svg" xmlns:xlink="http://www.w3.org/1999/xlink" fill="transparent" x="0" y="0" width="350" height="350" preserveAspectRatio="xMinYMin slice"><style type="text/css">.links{fill:transparent;stroke: #E4CF37;}.links:hover{fill:#63D272; opacity:0.4;}</style><defs><g id="allt"><path id="t4514" d="M3135,1088 L3124,1089 C3114,1090 3127,1077 3117,1079 C3108,1082 3120,1090 3111,1089 L3102,1088 3102,1088 L3102,1097 C3102,1106 3105,1093 3106,1102 C3107,1111 3101,1101 3101,1110 L3102,1120 3102,1120 L3111,1120 C3121,1120 3107,1123 3116,1124 C3126,1125 3116,1119 3125,1119 L3135,1120 3135,1120 L3134,1111 C3134,1102 3137,1111 3137,1102 C3138,1093 3135,1109 3135,1098 L3135,1088"/></g><clipPath id="c" clipRule="evenodd" fill="transparent"><use href="#t4514"/></clipPath></defs><svg viewBox="3100 1076 39 50" preserveAspectRatio="xMinYMin meet"><svg width="4380" height="2430"><g><image crossorigin="anonymous" x="0" y="0" href="https://nftpuzzle.license-token.com/assets/completepuzzle.svg" width="100%" height="100%" /><g class="links"><use href="#t4514"/></g></g></svg><svg x="3124" y="1111" height="9%" width="9%" viewBox="0 0 330 330"><g><a xlink:href="https://nftpuzzle.license-token.com/" class="links"><title>See the most innovative NFT based token software licensing project</title><path fill="#E4CF37" id="more" d="M165,0C74.019,0,0,74.019,0,165s74.019,165,165,165s165-74.019,165-165S255.981,0,165,0z M85,190 c-13.785,0-25-11.215-25-25s11.215-25,25-25s25,11.215,25,25S98.785,190,85,190z M165,190c-13.785,0-25-11.215-25-25 s11.215-25,25-25s25,11.215,25,25S178.785,190,165,190z M245,190c-13.785,0-25-11.215-25-25s11.215-25,25-25 c13.785,0,25,11.215,25,25S258.785,190,245,190z"></path></a></g></svg></svg></svg>