<svg version="1.1" xmlns="http://www.w3.org/2000/svg" xmlns:xlink="http://www.w3.org/1999/xlink" fill="transparent" x="0" y="0" width="350" height="350" preserveAspectRatio="xMinYMin slice"><style type="text/css">.links{fill:transparent;stroke: #E4CF37;}.links:hover{fill:#63D272; opacity:0.4;}</style><defs><g id="allt"><path id="t4522" d="M3399,1088 L3388,1088 C3377,1088 3393,1092 3383,1092 C3374,1093 3387,1086 3376,1087 L3366,1088 3366,1088 L3368,1097 C3371,1106 3352,1095 3355,1104 C3359,1113 3366,1100 3366,1110 L3366,1120 3366,1120 L3375,1122 C3384,1125 3373,1107 3382,1110 C3392,1113 3379,1120 3389,1120 L3399,1120 3399,1120 L3399,1110 C3399,1101 3391,1111 3392,1103 C3394,1096 3401,1109 3400,1098 L3399,1088"/></g><clipPath id="c" clipRule="evenodd" fill="transparent"><use href="#t4522"/></clipPath></defs><svg viewBox="3351 1085 51 41" preserveAspectRatio="xMinYMin meet"><svg width="4380" height="2430"><g><image crossorigin="anonymous" x="0" y="0" href="https://nftpuzzle.license-token.com/assets/completepuzzle.svg" width="100%" height="100%" /><g class="links"><use href="#t4522"/></g></g></svg><svg x="3387" y="1111" height="9%" width="9%" viewBox="0 0 330 330"><g><a xlink:href="https://nftpuzzle.license-token.com/" class="links"><title>See the most innovative NFT based token software licensing project</title><path fill="#E4CF37" id="more" d="M165,0C74.019,0,0,74.019,0,165s74.019,165,165,165s165-74.019,165-165S255.981,0,165,0z M85,190 c-13.785,0-25-11.215-25-25s11.215-25,25-25s25,11.215,25,25S98.785,190,85,190z M165,190c-13.785,0-25-11.215-25-25 s11.215-25,25-25s25,11.215,25,25S178.785,190,165,190z M245,190c-13.785,0-25-11.215-25-25s11.215-25,25-25 c13.785,0,25,11.215,25,25S258.785,190,245,190z"></path></a></g></svg></svg></svg>