<svg version="1.1" xmlns="http://www.w3.org/2000/svg" xmlns:xlink="http://www.w3.org/1999/xlink" fill="transparent" x="0" y="0" width="350" height="350" preserveAspectRatio="xMinYMin slice"><style type="text/css">.links{fill:transparent;stroke: #E4CF37;}.links:hover{fill:#63D272; opacity:0.4;}</style><defs><g id="allt"><path id="t4525" d="M3498,1088 L3487,1088 C3476,1089 3492,1084 3482,1084 C3472,1084 3487,1089 3476,1088 L3465,1088 3465,1088 L3465,1096 C3466,1105 3462,1094 3460,1104 C3459,1114 3465,1099 3465,1109 L3465,1120 3465,1120 L3474,1120 C3483,1121 3471,1117 3481,1115 C3492,1114 3476,1120 3487,1120 L3498,1120 3498,1120 L3498,1111 C3498,1102 3496,1112 3496,1104 C3496,1096 3498,1106 3498,1097 L3498,1088"/></g><clipPath id="c" clipRule="evenodd" fill="transparent"><use href="#t4525"/></clipPath></defs><svg viewBox="3458 1083 41 39" preserveAspectRatio="xMinYMin meet"><svg width="4380" height="2430"><g><image crossorigin="anonymous" x="0" y="0" href="https://nftpuzzle.license-token.com/assets/completepuzzle.svg" width="100%" height="100%" /><g class="links"><use href="#t4525"/></g></g></svg><svg x="3484" y="1107" height="9%" width="9%" viewBox="0 0 330 330"><g><a xlink:href="https://nftpuzzle.license-token.com/" class="links"><title>See the most innovative NFT based token software licensing project</title><path fill="#E4CF37" id="more" d="M165,0C74.019,0,0,74.019,0,165s74.019,165,165,165s165-74.019,165-165S255.981,0,165,0z M85,190 c-13.785,0-25-11.215-25-25s11.215-25,25-25s25,11.215,25,25S98.785,190,85,190z M165,190c-13.785,0-25-11.215-25-25 s11.215-25,25-25s25,11.215,25,25S178.785,190,165,190z M245,190c-13.785,0-25-11.215-25-25s11.215-25,25-25 c13.785,0,25,11.215,25,25S258.785,190,245,190z"></path></a></g></svg></svg></svg>