<svg version="1.1" xmlns="http://www.w3.org/2000/svg" xmlns:xlink="http://www.w3.org/1999/xlink" fill="transparent" x="0" y="0" width="350" height="350" preserveAspectRatio="xMinYMin slice"><style type="text/css">.links{fill:transparent;stroke: #E4CF37;}.links:hover{fill:#63D272; opacity:0.4;}</style><defs><g id="allt"><path id="t4527" d="M3564,1088 L3553,1088 C3543,1088 3556,1076 3547,1078 C3539,1080 3549,1090 3540,1089 L3531,1088 3531,1088 L3531,1097 C3531,1106 3538,1097 3536,1103 C3535,1110 3531,1102 3531,1111 L3531,1120 3531,1120 L3540,1120 C3549,1120 3540,1127 3547,1125 C3554,1124 3545,1120 3554,1120 L3564,1120 3564,1120 L3564,1111 C3564,1102 3560,1112 3560,1103 C3561,1095 3564,1108 3564,1098 L3564,1088"/></g><clipPath id="c" clipRule="evenodd" fill="transparent"><use href="#t4527"/></clipPath></defs><svg viewBox="3530 1075 35 53" preserveAspectRatio="xMinYMin meet"><svg width="4380" height="2430"><g><image crossorigin="anonymous" x="0" y="0" href="https://nftpuzzle.license-token.com/assets/completepuzzle.svg" width="100%" height="100%" /><g class="links"><use href="#t4527"/></g></g></svg><svg x="3550" y="1113" height="9%" width="9%" viewBox="0 0 330 330"><g><a xlink:href="https://nftpuzzle.license-token.com/" class="links"><title>See the most innovative NFT based token software licensing project</title><path fill="#E4CF37" id="more" d="M165,0C74.019,0,0,74.019,0,165s74.019,165,165,165s165-74.019,165-165S255.981,0,165,0z M85,190 c-13.785,0-25-11.215-25-25s11.215-25,25-25s25,11.215,25,25S98.785,190,85,190z M165,190c-13.785,0-25-11.215-25-25 s11.215-25,25-25s25,11.215,25,25S178.785,190,165,190z M245,190c-13.785,0-25-11.215-25-25s11.215-25,25-25 c13.785,0,25,11.215,25,25S258.785,190,245,190z"></path></a></g></svg></svg></svg>