<svg version="1.1" xmlns="http://www.w3.org/2000/svg" xmlns:xlink="http://www.w3.org/1999/xlink" fill="transparent" x="0" y="0" width="350" height="350" preserveAspectRatio="xMinYMin slice"><style type="text/css">.links{fill:transparent;stroke: #E4CF37;}.links:hover{fill:#63D272; opacity:0.4;}</style><defs><g id="allt"><path id="t4538" d="M3927,1088 L3915,1089 C3904,1090 3921,1084 3912,1083 C3903,1083 3912,1088 3903,1088 L3894,1088 3894,1088 L3893,1097 C3893,1106 3898,1094 3897,1103 C3897,1112 3893,1099 3893,1109 L3894,1120 3894,1120 L3903,1119 C3913,1119 3900,1124 3909,1123 C3919,1123 3906,1119 3916,1119 L3927,1120 3927,1120 L3927,1109 C3927,1098 3930,1114 3930,1104 C3930,1094 3925,1109 3926,1098 L3927,1088"/></g><clipPath id="c" clipRule="evenodd" fill="transparent"><use href="#t4538"/></clipPath></defs><svg viewBox="3892 1082 39 43" preserveAspectRatio="xMinYMin meet"><svg width="4380" height="2430"><g><image crossorigin="anonymous" x="0" y="0" href="https://nftpuzzle.license-token.com/assets/completepuzzle.svg" width="100%" height="100%" /><g class="links"><use href="#t4538"/></g></g></svg><svg x="3916" y="1110" height="9%" width="9%" viewBox="0 0 330 330"><g><a xlink:href="https://nftpuzzle.license-token.com/" class="links"><title>See the most innovative NFT based token software licensing project</title><path fill="#E4CF37" id="more" d="M165,0C74.019,0,0,74.019,0,165s74.019,165,165,165s165-74.019,165-165S255.981,0,165,0z M85,190 c-13.785,0-25-11.215-25-25s11.215-25,25-25s25,11.215,25,25S98.785,190,85,190z M165,190c-13.785,0-25-11.215-25-25 s11.215-25,25-25s25,11.215,25,25S178.785,190,165,190z M245,190c-13.785,0-25-11.215-25-25s11.215-25,25-25 c13.785,0,25,11.215,25,25S258.785,190,245,190z"></path></a></g></svg></svg></svg>