<svg version="1.1" xmlns="http://www.w3.org/2000/svg" xmlns:xlink="http://www.w3.org/1999/xlink" fill="transparent" x="0" y="0" width="350" height="350" preserveAspectRatio="xMinYMin slice"><style type="text/css">.links{fill:transparent;stroke: #E4CF37;}.links:hover{fill:#63D272; opacity:0.4;}</style><defs><g id="allt"><path id="t4549" d="M4290,1088 L4280,1088 C4270,1088 4282,1080 4274,1081 C4266,1082 4279,1090 4268,1089 L4257,1088 4257,1088 L4258,1098 C4259,1108 4253,1097 4252,1105 C4252,1114 4257,1101 4257,1110 L4257,1120 4257,1120 L4267,1121 C4278,1122 4266,1116 4275,1115 C4284,1115 4270,1120 4280,1120 L4290,1120 L4290,1120 L4290,1088"/></g><clipPath id="c" clipRule="evenodd" fill="transparent"><use href="#t4549"/></clipPath></defs><svg viewBox="4251 1079 40 44" preserveAspectRatio="xMinYMin meet"><svg width="4380" height="2430"><g><image crossorigin="anonymous" x="0" y="0" href="https://nftpuzzle.license-token.com/assets/completepuzzle.svg" width="100%" height="100%" /><g class="links"><use href="#t4549"/></g></g></svg><svg x="4276" y="1108" height="9%" width="9%" viewBox="0 0 330 330"><g><a xlink:href="https://nftpuzzle.license-token.com/" class="links"><title>See the most innovative NFT based token software licensing project</title><path fill="#E4CF37" id="more" d="M165,0C74.019,0,0,74.019,0,165s74.019,165,165,165s165-74.019,165-165S255.981,0,165,0z M85,190 c-13.785,0-25-11.215-25-25s11.215-25,25-25s25,11.215,25,25S98.785,190,85,190z M165,190c-13.785,0-25-11.215-25-25 s11.215-25,25-25s25,11.215,25,25S178.785,190,165,190z M245,190c-13.785,0-25-11.215-25-25s11.215-25,25-25 c13.785,0,25,11.215,25,25S258.785,190,245,190z"></path></a></g></svg></svg></svg>