<svg version="1.1" xmlns="http://www.w3.org/2000/svg" xmlns:xlink="http://www.w3.org/1999/xlink" fill="transparent" x="0" y="0" width="350" height="350" preserveAspectRatio="xMinYMin slice"><style type="text/css">.links{fill:transparent;stroke: #E4CF37;}.links:hover{fill:#63D272; opacity:0.4;}</style><defs><g id="allt"><path id="t4553" d="M132,1120 L122,1120 C112,1120 126,1117 115,1117 C104,1118 118,1120 108,1120 L99,1120 99,1120 L99,1129 C99,1138 107,1128 106,1136 C105,1145 99,1134 99,1143 L99,1152 99,1152 L108,1152 C118,1152 107,1160 116,1159 C125,1158 113,1152 122,1152 L132,1152 132,1152 L132,1141 C133,1130 126,1142 126,1134 C127,1127 132,1137 132,1128 L132,1120"/></g><clipPath id="c" clipRule="evenodd" fill="transparent"><use href="#t4553"/></clipPath></defs><svg viewBox="98 1116 36 45" preserveAspectRatio="xMinYMin meet"><svg width="4380" height="2430"><g><image crossorigin="anonymous" x="0" y="0" href="https://nftpuzzle.license-token.com/assets/completepuzzle.svg" width="100%" height="100%" /><g class="links"><use href="#t4553"/></g></g></svg><svg x="119" y="1146" height="9%" width="9%" viewBox="0 0 330 330"><g><a xlink:href="https://nftpuzzle.license-token.com/" class="links"><title>See the most innovative NFT based token software licensing project</title><path fill="#E4CF37" id="more" d="M165,0C74.019,0,0,74.019,0,165s74.019,165,165,165s165-74.019,165-165S255.981,0,165,0z M85,190 c-13.785,0-25-11.215-25-25s11.215-25,25-25s25,11.215,25,25S98.785,190,85,190z M165,190c-13.785,0-25-11.215-25-25 s11.215-25,25-25s25,11.215,25,25S178.785,190,165,190z M245,190c-13.785,0-25-11.215-25-25s11.215-25,25-25 c13.785,0,25,11.215,25,25S258.785,190,245,190z"></path></a></g></svg></svg></svg>