<svg version="1.1" xmlns="http://www.w3.org/2000/svg" xmlns:xlink="http://www.w3.org/1999/xlink" fill="transparent" x="0" y="0" width="350" height="350" preserveAspectRatio="xMinYMin slice"><style type="text/css">.links{fill:transparent;stroke: #E4CF37;}.links:hover{fill:#63D272; opacity:0.4;}</style><defs><g id="allt"><path id="t4556" d="M231,1120 L221,1120 C211,1121 221,1115 212,1116 C204,1117 218,1122 208,1121 L198,1120 198,1120 L196,1130 C195,1140 207,1126 205,1134 C204,1143 198,1133 198,1142 L198,1152 198,1152 L208,1150 C219,1149 204,1161 213,1159 C222,1158 211,1152 221,1152 L231,1152 231,1152 L231,1141 C232,1131 228,1142 228,1133 C229,1125 231,1140 231,1130 L231,1120"/></g><clipPath id="c" clipRule="evenodd" fill="transparent"><use href="#t4556"/></clipPath></defs><svg viewBox="194 1114 39 48" preserveAspectRatio="xMinYMin meet"><svg width="4380" height="2430"><g><image crossorigin="anonymous" x="0" y="0" href="https://nftpuzzle.license-token.com/assets/completepuzzle.svg" width="100%" height="100%" /><g class="links"><use href="#t4556"/></g></g></svg><svg x="218" y="1147" height="9%" width="9%" viewBox="0 0 330 330"><g><a xlink:href="https://nftpuzzle.license-token.com/" class="links"><title>See the most innovative NFT based token software licensing project</title><path fill="#E4CF37" id="more" d="M165,0C74.019,0,0,74.019,0,165s74.019,165,165,165s165-74.019,165-165S255.981,0,165,0z M85,190 c-13.785,0-25-11.215-25-25s11.215-25,25-25s25,11.215,25,25S98.785,190,85,190z M165,190c-13.785,0-25-11.215-25-25 s11.215-25,25-25s25,11.215,25,25S178.785,190,165,190z M245,190c-13.785,0-25-11.215-25-25s11.215-25,25-25 c13.785,0,25,11.215,25,25S258.785,190,245,190z"></path></a></g></svg></svg></svg>