<svg version="1.1" xmlns="http://www.w3.org/2000/svg" xmlns:xlink="http://www.w3.org/1999/xlink" fill="transparent" x="0" y="0" width="350" height="350" preserveAspectRatio="xMinYMin slice"><style type="text/css">.links{fill:transparent;stroke: #E4CF37;}.links:hover{fill:#63D272; opacity:0.4;}</style><defs><g id="allt"><path id="t4560" d="M363,1120 L352,1120 C341,1120 354,1109 344,1111 C335,1114 351,1120 340,1120 L330,1120 330,1120 L331,1129 C333,1139 321,1128 323,1136 C325,1144 331,1133 330,1142 L330,1152 330,1152 L339,1153 C349,1155 338,1143 346,1145 C355,1147 343,1153 353,1152 L363,1152 363,1152 L362,1142 C362,1133 368,1142 370,1134 C373,1127 363,1139 363,1129 L363,1120"/></g><clipPath id="c" clipRule="evenodd" fill="transparent"><use href="#t4560"/></clipPath></defs><svg viewBox="320 1108 54 48" preserveAspectRatio="xMinYMin meet"><svg width="4380" height="2430"><g><image crossorigin="anonymous" x="0" y="0" href="https://nftpuzzle.license-token.com/assets/completepuzzle.svg" width="100%" height="100%" /><g class="links"><use href="#t4560"/></g></g></svg><svg x="359" y="1141" height="9%" width="9%" viewBox="0 0 330 330"><g><a xlink:href="https://nftpuzzle.license-token.com/" class="links"><title>See the most innovative NFT based token software licensing project</title><path fill="#E4CF37" id="more" d="M165,0C74.019,0,0,74.019,0,165s74.019,165,165,165s165-74.019,165-165S255.981,0,165,0z M85,190 c-13.785,0-25-11.215-25-25s11.215-25,25-25s25,11.215,25,25S98.785,190,85,190z M165,190c-13.785,0-25-11.215-25-25 s11.215-25,25-25s25,11.215,25,25S178.785,190,165,190z M245,190c-13.785,0-25-11.215-25-25s11.215-25,25-25 c13.785,0,25,11.215,25,25S258.785,190,245,190z"></path></a></g></svg></svg></svg>