<svg version="1.1" xmlns="http://www.w3.org/2000/svg" xmlns:xlink="http://www.w3.org/1999/xlink" fill="transparent" x="0" y="0" width="350" height="350" preserveAspectRatio="xMinYMin slice"><style type="text/css">.links{fill:transparent;stroke: #E4CF37;}.links:hover{fill:#63D272; opacity:0.4;}</style><defs><g id="allt"><path id="t4562" d="M429,1120 L418,1120 C407,1120 419,1110 412,1109 C405,1109 416,1120 406,1120 L396,1120 396,1120 L399,1130 C402,1141 389,1128 386,1135 C383,1143 397,1130 396,1141 L396,1152 396,1152 L406,1155 C417,1158 404,1145 412,1142 C420,1139 406,1153 417,1152 L429,1152 429,1152 L429,1142 C429,1133 442,1143 439,1134 C437,1126 429,1138 429,1129 L429,1120"/></g><clipPath id="c" clipRule="evenodd" fill="transparent"><use href="#t4562"/></clipPath></defs><svg viewBox="382 1108 61 51" preserveAspectRatio="xMinYMin meet"><svg width="4380" height="2430"><g><image crossorigin="anonymous" x="0" y="0" href="https://nftpuzzle.license-token.com/assets/completepuzzle.svg" width="100%" height="100%" /><g class="links"><use href="#t4562"/></g></g></svg><svg x="428" y="1144" height="9%" width="9%" viewBox="0 0 330 330"><g><a xlink:href="https://nftpuzzle.license-token.com/" class="links"><title>See the most innovative NFT based token software licensing project</title><path fill="#E4CF37" id="more" d="M165,0C74.019,0,0,74.019,0,165s74.019,165,165,165s165-74.019,165-165S255.981,0,165,0z M85,190 c-13.785,0-25-11.215-25-25s11.215-25,25-25s25,11.215,25,25S98.785,190,85,190z M165,190c-13.785,0-25-11.215-25-25 s11.215-25,25-25s25,11.215,25,25S178.785,190,165,190z M245,190c-13.785,0-25-11.215-25-25s11.215-25,25-25 c13.785,0,25,11.215,25,25S258.785,190,245,190z"></path></a></g></svg></svg></svg>