<svg version="1.1" xmlns="http://www.w3.org/2000/svg" xmlns:xlink="http://www.w3.org/1999/xlink" fill="transparent" x="0" y="0" width="350" height="350" preserveAspectRatio="xMinYMin slice"><style type="text/css">.links{fill:transparent;stroke: #E4CF37;}.links:hover{fill:#63D272; opacity:0.4;}</style><defs><g id="allt"><path id="t4568" d="M627,1120 L616,1121 C605,1123 617,1113 610,1114 C603,1115 616,1120 605,1120 L594,1120 594,1120 L593,1130 C592,1141 601,1128 600,1135 C599,1143 593,1134 593,1143 L594,1152 594,1152 L604,1151 C615,1150 602,1159 609,1158 C617,1157 608,1151 617,1151 L627,1152 627,1152 L627,1142 C627,1132 630,1146 629,1136 C629,1126 626,1138 626,1129 L627,1120"/></g><clipPath id="c" clipRule="evenodd" fill="transparent"><use href="#t4568"/></clipPath></defs><svg viewBox="591 1112 40 48" preserveAspectRatio="xMinYMin meet"><svg width="4380" height="2430"><g><image crossorigin="anonymous" x="0" y="0" href="https://nftpuzzle.license-token.com/assets/completepuzzle.svg" width="100%" height="100%" /><g class="links"><use href="#t4568"/></g></g></svg><svg x="616" y="1145" height="9%" width="9%" viewBox="0 0 330 330"><g><a xlink:href="https://nftpuzzle.license-token.com/" class="links"><title>See the most innovative NFT based token software licensing project</title><path fill="#E4CF37" id="more" d="M165,0C74.019,0,0,74.019,0,165s74.019,165,165,165s165-74.019,165-165S255.981,0,165,0z M85,190 c-13.785,0-25-11.215-25-25s11.215-25,25-25s25,11.215,25,25S98.785,190,85,190z M165,190c-13.785,0-25-11.215-25-25 s11.215-25,25-25s25,11.215,25,25S178.785,190,165,190z M245,190c-13.785,0-25-11.215-25-25s11.215-25,25-25 c13.785,0,25,11.215,25,25S258.785,190,245,190z"></path></a></g></svg></svg></svg>