<svg version="1.1" xmlns="http://www.w3.org/2000/svg" xmlns:xlink="http://www.w3.org/1999/xlink" fill="transparent" x="0" y="0" width="350" height="350" preserveAspectRatio="xMinYMin slice"><style type="text/css">.links{fill:transparent;stroke: #E4CF37;}.links:hover{fill:#63D272; opacity:0.4;}</style><defs><g id="allt"><path id="t4571" d="M726,1120 L715,1120 C704,1120 717,1123 707,1122 C698,1122 712,1120 702,1120 L693,1120 693,1120 L693,1128 C694,1137 687,1126 688,1135 C689,1144 693,1134 693,1143 L693,1152 693,1152 L702,1152 C711,1153 699,1146 708,1147 C717,1148 707,1152 716,1152 L726,1152 726,1152 L726,1142 C726,1132 735,1143 736,1134 C738,1125 726,1140 726,1130 L726,1120"/></g><clipPath id="c" clipRule="evenodd" fill="transparent"><use href="#t4571"/></clipPath></defs><svg viewBox="686 1119 53 35" preserveAspectRatio="xMinYMin meet"><svg width="4380" height="2430"><g><image crossorigin="anonymous" x="0" y="0" href="https://nftpuzzle.license-token.com/assets/completepuzzle.svg" width="100%" height="100%" /><g class="links"><use href="#t4571"/></g></g></svg><svg x="724" y="1139" height="9%" width="9%" viewBox="0 0 330 330"><g><a xlink:href="https://nftpuzzle.license-token.com/" class="links"><title>See the most innovative NFT based token software licensing project</title><path fill="#E4CF37" id="more" d="M165,0C74.019,0,0,74.019,0,165s74.019,165,165,165s165-74.019,165-165S255.981,0,165,0z M85,190 c-13.785,0-25-11.215-25-25s11.215-25,25-25s25,11.215,25,25S98.785,190,85,190z M165,190c-13.785,0-25-11.215-25-25 s11.215-25,25-25s25,11.215,25,25S178.785,190,165,190z M245,190c-13.785,0-25-11.215-25-25s11.215-25,25-25 c13.785,0,25,11.215,25,25S258.785,190,245,190z"></path></a></g></svg></svg></svg>