<svg version="1.1" xmlns="http://www.w3.org/2000/svg" xmlns:xlink="http://www.w3.org/1999/xlink" fill="transparent" x="0" y="0" width="350" height="350" preserveAspectRatio="xMinYMin slice"><style type="text/css">.links{fill:transparent;stroke: #E4CF37;}.links:hover{fill:#63D272; opacity:0.4;}</style><defs><g id="allt"><path id="t4574" d="M825,1120 L813,1120 C802,1121 819,1114 808,1114 C798,1114 813,1120 802,1120 L792,1120 792,1120 L791,1129 C790,1138 796,1127 796,1135 C796,1143 792,1133 792,1142 L792,1152 792,1152 L801,1151 C810,1150 799,1156 807,1156 C815,1156 806,1152 815,1152 L825,1152 825,1152 L826,1142 C827,1133 812,1143 812,1134 C813,1125 827,1138 826,1129 L825,1120"/></g><clipPath id="c" clipRule="evenodd" fill="transparent"><use href="#t4574"/></clipPath></defs><svg viewBox="789 1113 39 44" preserveAspectRatio="xMinYMin meet"><svg width="4380" height="2430"><g><image crossorigin="anonymous" x="0" y="0" href="https://nftpuzzle.license-token.com/assets/completepuzzle.svg" width="100%" height="100%" /><g class="links"><use href="#t4574"/></g></g></svg><svg x="813" y="1142" height="9%" width="9%" viewBox="0 0 330 330"><g><a xlink:href="https://nftpuzzle.license-token.com/" class="links"><title>See the most innovative NFT based token software licensing project</title><path fill="#E4CF37" id="more" d="M165,0C74.019,0,0,74.019,0,165s74.019,165,165,165s165-74.019,165-165S255.981,0,165,0z M85,190 c-13.785,0-25-11.215-25-25s11.215-25,25-25s25,11.215,25,25S98.785,190,85,190z M165,190c-13.785,0-25-11.215-25-25 s11.215-25,25-25s25,11.215,25,25S178.785,190,165,190z M245,190c-13.785,0-25-11.215-25-25s11.215-25,25-25 c13.785,0,25,11.215,25,25S258.785,190,245,190z"></path></a></g></svg></svg></svg>