<svg version="1.1" xmlns="http://www.w3.org/2000/svg" xmlns:xlink="http://www.w3.org/1999/xlink" fill="transparent" x="0" y="0" width="350" height="350" preserveAspectRatio="xMinYMin slice"><style type="text/css">.links{fill:transparent;stroke: #E4CF37;}.links:hover{fill:#63D272; opacity:0.4;}</style><defs><g id="allt"><path id="t4575" d="M858,1120 L847,1119 C837,1118 852,1125 841,1124 C831,1123 846,1117 835,1118 L825,1120 825,1120 L826,1129 C827,1138 813,1125 812,1134 C812,1143 827,1133 826,1142 L825,1152 825,1152 L834,1153 C844,1154 830,1141 839,1140 C849,1139 838,1154 848,1153 L858,1152 858,1152 L859,1142 C860,1133 853,1144 853,1134 C853,1125 860,1141 859,1130 L858,1120"/></g><clipPath id="c" clipRule="evenodd" fill="transparent"><use href="#t4575"/></clipPath></defs><svg viewBox="811 1116 50 39" preserveAspectRatio="xMinYMin meet"><svg width="4380" height="2430"><g><image crossorigin="anonymous" x="0" y="0" href="https://nftpuzzle.license-token.com/assets/completepuzzle.svg" width="100%" height="100%" /><g class="links"><use href="#t4575"/></g></g></svg><svg x="846" y="1140" height="9%" width="9%" viewBox="0 0 330 330"><g><a xlink:href="https://nftpuzzle.license-token.com/" class="links"><title>See the most innovative NFT based token software licensing project</title><path fill="#E4CF37" id="more" d="M165,0C74.019,0,0,74.019,0,165s74.019,165,165,165s165-74.019,165-165S255.981,0,165,0z M85,190 c-13.785,0-25-11.215-25-25s11.215-25,25-25s25,11.215,25,25S98.785,190,85,190z M165,190c-13.785,0-25-11.215-25-25 s11.215-25,25-25s25,11.215,25,25S178.785,190,165,190z M245,190c-13.785,0-25-11.215-25-25s11.215-25,25-25 c13.785,0,25,11.215,25,25S258.785,190,245,190z"></path></a></g></svg></svg></svg>