<svg version="1.1" xmlns="http://www.w3.org/2000/svg" xmlns:xlink="http://www.w3.org/1999/xlink" fill="transparent" x="0" y="0" width="350" height="350" preserveAspectRatio="xMinYMin slice"><style type="text/css">.links{fill:transparent;stroke: #E4CF37;}.links:hover{fill:#63D272; opacity:0.4;}</style><defs><g id="allt"><path id="t4578" d="M957,1120 L946,1120 C936,1121 950,1117 939,1116 C929,1116 945,1122 934,1121 L924,1120 924,1120 L924,1129 C924,1138 919,1129 919,1136 C920,1144 927,1130 925,1141 L924,1152 924,1152 L933,1152 C942,1152 933,1147 940,1147 C948,1148 934,1155 945,1153 L957,1152 957,1152 L957,1141 C957,1130 953,1145 952,1134 C952,1124 959,1138 958,1129 L957,1120"/></g><clipPath id="c" clipRule="evenodd" fill="transparent"><use href="#t4578"/></clipPath></defs><svg viewBox="918 1115 42 41" preserveAspectRatio="xMinYMin meet"><svg width="4380" height="2430"><g><image crossorigin="anonymous" x="0" y="0" href="https://nftpuzzle.license-token.com/assets/completepuzzle.svg" width="100%" height="100%" /><g class="links"><use href="#t4578"/></g></g></svg><svg x="945" y="1141" height="9%" width="9%" viewBox="0 0 330 330"><g><a xlink:href="https://nftpuzzle.license-token.com/" class="links"><title>See the most innovative NFT based token software licensing project</title><path fill="#E4CF37" id="more" d="M165,0C74.019,0,0,74.019,0,165s74.019,165,165,165s165-74.019,165-165S255.981,0,165,0z M85,190 c-13.785,0-25-11.215-25-25s11.215-25,25-25s25,11.215,25,25S98.785,190,85,190z M165,190c-13.785,0-25-11.215-25-25 s11.215-25,25-25s25,11.215,25,25S178.785,190,165,190z M245,190c-13.785,0-25-11.215-25-25s11.215-25,25-25 c13.785,0,25,11.215,25,25S258.785,190,245,190z"></path></a></g></svg></svg></svg>