<svg version="1.1" xmlns="http://www.w3.org/2000/svg" xmlns:xlink="http://www.w3.org/1999/xlink" fill="transparent" x="0" y="0" width="350" height="350" preserveAspectRatio="xMinYMin slice"><style type="text/css">.links{fill:transparent;stroke: #E4CF37;}.links:hover{fill:#63D272; opacity:0.4;}</style><defs><g id="allt"><path id="t4581" d="M1056,1120 L1046,1123 C1036,1126 1049,1111 1038,1111 C1028,1112 1044,1120 1033,1120 L1023,1120 1023,1120 L1023,1129 C1023,1138 1016,1127 1016,1136 C1016,1145 1026,1134 1024,1143 L1023,1152 1023,1152 L1032,1152 C1041,1152 1030,1145 1039,1145 C1049,1145 1037,1155 1046,1153 L1056,1152 1056,1152 L1056,1141 C1056,1131 1066,1146 1063,1137 C1061,1128 1056,1140 1056,1130 L1056,1120"/></g><clipPath id="c" clipRule="evenodd" fill="transparent"><use href="#t4581"/></clipPath></defs><svg viewBox="1015 1110 52 46" preserveAspectRatio="xMinYMin meet"><svg width="4380" height="2430"><g><image crossorigin="anonymous" x="0" y="0" href="https://nftpuzzle.license-token.com/assets/completepuzzle.svg" width="100%" height="100%" /><g class="links"><use href="#t4581"/></g></g></svg><svg x="1052" y="1141" height="9%" width="9%" viewBox="0 0 330 330"><g><a xlink:href="https://nftpuzzle.license-token.com/" class="links"><title>See the most innovative NFT based token software licensing project</title><path fill="#E4CF37" id="more" d="M165,0C74.019,0,0,74.019,0,165s74.019,165,165,165s165-74.019,165-165S255.981,0,165,0z M85,190 c-13.785,0-25-11.215-25-25s11.215-25,25-25s25,11.215,25,25S98.785,190,85,190z M165,190c-13.785,0-25-11.215-25-25 s11.215-25,25-25s25,11.215,25,25S178.785,190,165,190z M245,190c-13.785,0-25-11.215-25-25s11.215-25,25-25 c13.785,0,25,11.215,25,25S258.785,190,245,190z"></path></a></g></svg></svg></svg>