<svg version="1.1" xmlns="http://www.w3.org/2000/svg" xmlns:xlink="http://www.w3.org/1999/xlink" fill="transparent" x="0" y="0" width="350" height="350" preserveAspectRatio="xMinYMin slice"><style type="text/css">.links{fill:transparent;stroke: #E4CF37;}.links:hover{fill:#63D272; opacity:0.4;}</style><defs><g id="allt"><path id="t4583" d="M1122,1120 L1112,1120 C1102,1120 1115,1112 1106,1112 C1097,1113 1107,1123 1098,1121 L1089,1120 1089,1120 L1089,1129 C1089,1138 1091,1129 1092,1137 C1093,1146 1088,1132 1088,1142 L1089,1152 1089,1152 L1098,1152 C1108,1152 1098,1154 1107,1155 C1116,1156 1102,1151 1112,1151 L1122,1152 1122,1152 L1122,1142 C1122,1133 1125,1143 1126,1134 C1127,1125 1121,1139 1121,1129 L1122,1120"/></g><clipPath id="c" clipRule="evenodd" fill="transparent"><use href="#t4583"/></clipPath></defs><svg viewBox="1087 1111 41 46" preserveAspectRatio="xMinYMin meet"><svg width="4380" height="2430"><g><image crossorigin="anonymous" x="0" y="0" href="https://nftpuzzle.license-token.com/assets/completepuzzle.svg" width="100%" height="100%" /><g class="links"><use href="#t4583"/></g></g></svg><svg x="1113" y="1142" height="9%" width="9%" viewBox="0 0 330 330"><g><a xlink:href="https://nftpuzzle.license-token.com/" class="links"><title>See the most innovative NFT based token software licensing project</title><path fill="#E4CF37" id="more" d="M165,0C74.019,0,0,74.019,0,165s74.019,165,165,165s165-74.019,165-165S255.981,0,165,0z M85,190 c-13.785,0-25-11.215-25-25s11.215-25,25-25s25,11.215,25,25S98.785,190,85,190z M165,190c-13.785,0-25-11.215-25-25 s11.215-25,25-25s25,11.215,25,25S178.785,190,165,190z M245,190c-13.785,0-25-11.215-25-25s11.215-25,25-25 c13.785,0,25,11.215,25,25S258.785,190,245,190z"></path></a></g></svg></svg></svg>