<svg version="1.1" xmlns="http://www.w3.org/2000/svg" xmlns:xlink="http://www.w3.org/1999/xlink" fill="transparent" x="0" y="0" width="350" height="350" preserveAspectRatio="xMinYMin slice"><style type="text/css">.links{fill:transparent;stroke: #E4CF37;}.links:hover{fill:#63D272; opacity:0.4;}</style><defs><g id="allt"><path id="t4584" d="M1155,1120 L1144,1119 C1134,1119 1150,1111 1139,1111 C1128,1112 1143,1124 1132,1122 L1122,1120 1122,1120 L1121,1129 C1121,1139 1127,1125 1126,1134 C1125,1143 1122,1133 1122,1142 L1122,1152 1122,1152 L1132,1151 C1142,1151 1127,1157 1136,1156 C1145,1155 1136,1152 1145,1152 L1155,1152 1155,1152 L1155,1141 C1155,1131 1145,1145 1145,1135 C1146,1126 1157,1137 1156,1128 L1155,1120"/></g><clipPath id="c" clipRule="evenodd" fill="transparent"><use href="#t4584"/></clipPath></defs><svg viewBox="1120 1110 38 48" preserveAspectRatio="xMinYMin meet"><svg width="4380" height="2430"><g><image crossorigin="anonymous" x="0" y="0" href="https://nftpuzzle.license-token.com/assets/completepuzzle.svg" width="100%" height="100%" /><g class="links"><use href="#t4584"/></g></g></svg><svg x="1143" y="1143" height="9%" width="9%" viewBox="0 0 330 330"><g><a xlink:href="https://nftpuzzle.license-token.com/" class="links"><title>See the most innovative NFT based token software licensing project</title><path fill="#E4CF37" id="more" d="M165,0C74.019,0,0,74.019,0,165s74.019,165,165,165s165-74.019,165-165S255.981,0,165,0z M85,190 c-13.785,0-25-11.215-25-25s11.215-25,25-25s25,11.215,25,25S98.785,190,85,190z M165,190c-13.785,0-25-11.215-25-25 s11.215-25,25-25s25,11.215,25,25S178.785,190,165,190z M245,190c-13.785,0-25-11.215-25-25s11.215-25,25-25 c13.785,0,25,11.215,25,25S258.785,190,245,190z"></path></a></g></svg></svg></svg>