<svg version="1.1" xmlns="http://www.w3.org/2000/svg" xmlns:xlink="http://www.w3.org/1999/xlink" fill="transparent" x="0" y="0" width="350" height="350" preserveAspectRatio="xMinYMin slice"><style type="text/css">.links{fill:transparent;stroke: #E4CF37;}.links:hover{fill:#63D272; opacity:0.4;}</style><defs><g id="allt"><path id="t4585" d="M1188,1120 L1178,1120 C1168,1121 1179,1115 1171,1116 C1164,1118 1173,1120 1164,1120 L1155,1120 1155,1120 L1156,1128 C1157,1137 1146,1126 1145,1135 C1145,1145 1155,1131 1155,1141 L1155,1152 1155,1152 L1164,1153 C1173,1154 1161,1143 1171,1143 C1181,1143 1166,1152 1177,1152 L1188,1152 1188,1152 L1188,1142 C1188,1133 1193,1144 1192,1135 C1192,1126 1188,1138 1188,1129 L1188,1120"/></g><clipPath id="c" clipRule="evenodd" fill="transparent"><use href="#t4585"/></clipPath></defs><svg viewBox="1144 1114 50 41" preserveAspectRatio="xMinYMin meet"><svg width="4380" height="2430"><g><image crossorigin="anonymous" x="0" y="0" href="https://nftpuzzle.license-token.com/assets/completepuzzle.svg" width="100%" height="100%" /><g class="links"><use href="#t4585"/></g></g></svg><svg x="1179" y="1140" height="9%" width="9%" viewBox="0 0 330 330"><g><a xlink:href="https://nftpuzzle.license-token.com/" class="links"><title>See the most innovative NFT based token software licensing project</title><path fill="#E4CF37" id="more" d="M165,0C74.019,0,0,74.019,0,165s74.019,165,165,165s165-74.019,165-165S255.981,0,165,0z M85,190 c-13.785,0-25-11.215-25-25s11.215-25,25-25s25,11.215,25,25S98.785,190,85,190z M165,190c-13.785,0-25-11.215-25-25 s11.215-25,25-25s25,11.215,25,25S178.785,190,165,190z M245,190c-13.785,0-25-11.215-25-25s11.215-25,25-25 c13.785,0,25,11.215,25,25S258.785,190,245,190z"></path></a></g></svg></svg></svg>