<svg version="1.1" xmlns="http://www.w3.org/2000/svg" xmlns:xlink="http://www.w3.org/1999/xlink" fill="transparent" x="0" y="0" width="350" height="350" preserveAspectRatio="xMinYMin slice"><style type="text/css">.links{fill:transparent;stroke: #E4CF37;}.links:hover{fill:#63D272; opacity:0.4;}</style><defs><g id="allt"><path id="t4587" d="M1254,1120 L1242,1121 C1231,1123 1245,1112 1237,1113 C1230,1115 1242,1123 1231,1121 L1221,1120 1221,1120 L1221,1129 C1221,1138 1212,1126 1211,1135 C1210,1145 1221,1133 1221,1142 L1221,1152 1221,1152 L1230,1152 C1240,1152 1227,1144 1237,1142 C1247,1141 1234,1152 1244,1152 L1254,1152 1254,1152 L1255,1143 C1256,1134 1250,1143 1250,1135 C1250,1128 1257,1141 1255,1130 L1254,1120"/></g><clipPath id="c" clipRule="evenodd" fill="transparent"><use href="#t4587"/></clipPath></defs><svg viewBox="1209 1111 49 42" preserveAspectRatio="xMinYMin meet"><svg width="4380" height="2430"><g><image crossorigin="anonymous" x="0" y="0" href="https://nftpuzzle.license-token.com/assets/completepuzzle.svg" width="100%" height="100%" /><g class="links"><use href="#t4587"/></g></g></svg><svg x="1243" y="1138" height="9%" width="9%" viewBox="0 0 330 330"><g><a xlink:href="https://nftpuzzle.license-token.com/" class="links"><title>See the most innovative NFT based token software licensing project</title><path fill="#E4CF37" id="more" d="M165,0C74.019,0,0,74.019,0,165s74.019,165,165,165s165-74.019,165-165S255.981,0,165,0z M85,190 c-13.785,0-25-11.215-25-25s11.215-25,25-25s25,11.215,25,25S98.785,190,85,190z M165,190c-13.785,0-25-11.215-25-25 s11.215-25,25-25s25,11.215,25,25S178.785,190,165,190z M245,190c-13.785,0-25-11.215-25-25s11.215-25,25-25 c13.785,0,25,11.215,25,25S258.785,190,245,190z"></path></a></g></svg></svg></svg>