<svg version="1.1" xmlns="http://www.w3.org/2000/svg" xmlns:xlink="http://www.w3.org/1999/xlink" fill="transparent" x="0" y="0" width="350" height="350" preserveAspectRatio="xMinYMin slice"><style type="text/css">.links{fill:transparent;stroke: #E4CF37;}.links:hover{fill:#63D272; opacity:0.4;}</style><defs><g id="allt"><path id="t459" d="M2310,96 L2300,96 C2291,96 2305,100 2293,101 C2282,103 2297,95 2287,95 L2277,96 2277,96 L2276,105 C2276,114 2289,101 2287,111 C2286,122 2277,106 2277,117 L2277,128 2277,128 L2286,127 C2296,127 2282,140 2293,138 C2304,136 2288,128 2299,128 L2310,128 2310,128 L2310,117 C2311,107 2305,121 2305,113 C2306,105 2310,117 2310,106 L2310,96"/></g><clipPath id="c" clipRule="evenodd" fill="transparent"><use href="#t459"/></clipPath></defs><svg viewBox="2275 94 37 47" preserveAspectRatio="xMinYMin meet"><svg width="4380" height="2430"><g><image crossorigin="anonymous" x="0" y="0" href="https://nftpuzzle.license-token.com/assets/completepuzzle.svg" width="100%" height="100%" /><g class="links"><use href="#t459"/></g></g></svg><svg x="2297" y="126" height="9%" width="9%" viewBox="0 0 330 330"><g><a xlink:href="https://nftpuzzle.license-token.com/" class="links"><title>See the most innovative NFT based token software licensing project</title><path fill="#E4CF37" id="more" d="M165,0C74.019,0,0,74.019,0,165s74.019,165,165,165s165-74.019,165-165S255.981,0,165,0z M85,190 c-13.785,0-25-11.215-25-25s11.215-25,25-25s25,11.215,25,25S98.785,190,85,190z M165,190c-13.785,0-25-11.215-25-25 s11.215-25,25-25s25,11.215,25,25S178.785,190,165,190z M245,190c-13.785,0-25-11.215-25-25s11.215-25,25-25 c13.785,0,25,11.215,25,25S258.785,190,245,190z"></path></a></g></svg></svg></svg>