<svg version="1.1" xmlns="http://www.w3.org/2000/svg" xmlns:xlink="http://www.w3.org/1999/xlink" fill="transparent" x="0" y="0" width="350" height="350" preserveAspectRatio="xMinYMin slice"><style type="text/css">.links{fill:transparent;stroke: #E4CF37;}.links:hover{fill:#63D272; opacity:0.4;}</style><defs><g id="allt"><path id="t4599" d="M1650,1120 L1639,1117 C1629,1115 1643,1130 1634,1129 C1626,1128 1636,1118 1626,1119 L1617,1120 1617,1120 L1617,1130 C1617,1141 1613,1126 1610,1135 C1607,1144 1617,1134 1617,1143 L1617,1152 1617,1152 L1627,1152 C1638,1152 1623,1148 1632,1145 C1641,1143 1631,1152 1640,1152 L1650,1152 1650,1152 L1651,1141 C1652,1130 1646,1144 1646,1136 C1646,1129 1650,1137 1650,1128 L1650,1120"/></g><clipPath id="c" clipRule="evenodd" fill="transparent"><use href="#t4599"/></clipPath></defs><svg viewBox="1606 1114 47 39" preserveAspectRatio="xMinYMin meet"><svg width="4380" height="2430"><g><image crossorigin="anonymous" x="0" y="0" href="https://nftpuzzle.license-token.com/assets/completepuzzle.svg" width="100%" height="100%" /><g class="links"><use href="#t4599"/></g></g></svg><svg x="1638" y="1138" height="9%" width="9%" viewBox="0 0 330 330"><g><a xlink:href="https://nftpuzzle.license-token.com/" class="links"><title>See the most innovative NFT based token software licensing project</title><path fill="#E4CF37" id="more" d="M165,0C74.019,0,0,74.019,0,165s74.019,165,165,165s165-74.019,165-165S255.981,0,165,0z M85,190 c-13.785,0-25-11.215-25-25s11.215-25,25-25s25,11.215,25,25S98.785,190,85,190z M165,190c-13.785,0-25-11.215-25-25 s11.215-25,25-25s25,11.215,25,25S178.785,190,165,190z M245,190c-13.785,0-25-11.215-25-25s11.215-25,25-25 c13.785,0,25,11.215,25,25S258.785,190,245,190z"></path></a></g></svg></svg></svg>