<svg version="1.1" xmlns="http://www.w3.org/2000/svg" xmlns:xlink="http://www.w3.org/1999/xlink" fill="transparent" x="0" y="0" width="350" height="350" preserveAspectRatio="xMinYMin slice"><style type="text/css">.links{fill:transparent;stroke: #E4CF37;}.links:hover{fill:#63D272; opacity:0.4;}</style><defs><g id="allt"><path id="t460" d="M2343,96 L2332,95 C2322,94 2337,104 2328,104 C2319,104 2331,96 2320,96 L2310,96 2310,96 L2310,106 C2310,117 2306,105 2305,113 C2305,121 2311,107 2310,117 L2310,128 2310,128 L2321,128 C2332,128 2319,124 2327,123 C2336,123 2321,129 2332,128 L2343,128 2343,128 L2344,119 C2345,110 2332,120 2334,112 C2336,105 2347,114 2345,105 L2343,96"/></g><clipPath id="c" clipRule="evenodd" fill="transparent"><use href="#t460"/></clipPath></defs><svg viewBox="2304 93 44 37" preserveAspectRatio="xMinYMin meet"><svg width="4380" height="2430"><g><image crossorigin="anonymous" x="0" y="0" href="https://nftpuzzle.license-token.com/assets/completepuzzle.svg" width="100%" height="100%" /><g class="links"><use href="#t460"/></g></g></svg><svg x="2333" y="115" height="9%" width="9%" viewBox="0 0 330 330"><g><a xlink:href="https://nftpuzzle.license-token.com/" class="links"><title>See the most innovative NFT based token software licensing project</title><path fill="#E4CF37" id="more" d="M165,0C74.019,0,0,74.019,0,165s74.019,165,165,165s165-74.019,165-165S255.981,0,165,0z M85,190 c-13.785,0-25-11.215-25-25s11.215-25,25-25s25,11.215,25,25S98.785,190,85,190z M165,190c-13.785,0-25-11.215-25-25 s11.215-25,25-25s25,11.215,25,25S178.785,190,165,190z M245,190c-13.785,0-25-11.215-25-25s11.215-25,25-25 c13.785,0,25,11.215,25,25S258.785,190,245,190z"></path></a></g></svg></svg></svg>