<svg version="1.1" xmlns="http://www.w3.org/2000/svg" xmlns:xlink="http://www.w3.org/1999/xlink" fill="transparent" x="0" y="0" width="350" height="350" preserveAspectRatio="xMinYMin slice"><style type="text/css">.links{fill:transparent;stroke: #E4CF37;}.links:hover{fill:#63D272; opacity:0.4;}</style><defs><g id="allt"><path id="t4602" d="M1749,1120 L1738,1120 C1728,1120 1739,1115 1730,1115 C1722,1116 1734,1120 1725,1120 L1716,1120 1716,1120 L1716,1129 C1717,1138 1713,1127 1712,1136 C1712,1145 1718,1130 1717,1141 L1716,1152 1716,1152 L1725,1152 C1735,1153 1723,1149 1732,1148 C1742,1148 1726,1154 1737,1153 L1749,1152 1749,1152 L1749,1141 C1750,1130 1745,1145 1743,1135 C1742,1126 1749,1141 1749,1130 L1749,1120"/></g><clipPath id="c" clipRule="evenodd" fill="transparent"><use href="#t4602"/></clipPath></defs><svg viewBox="1711 1114 40 41" preserveAspectRatio="xMinYMin meet"><svg width="4380" height="2430"><g><image crossorigin="anonymous" x="0" y="0" href="https://nftpuzzle.license-token.com/assets/completepuzzle.svg" width="100%" height="100%" /><g class="links"><use href="#t4602"/></g></g></svg><svg x="1736" y="1140" height="9%" width="9%" viewBox="0 0 330 330"><g><a xlink:href="https://nftpuzzle.license-token.com/" class="links"><title>See the most innovative NFT based token software licensing project</title><path fill="#E4CF37" id="more" d="M165,0C74.019,0,0,74.019,0,165s74.019,165,165,165s165-74.019,165-165S255.981,0,165,0z M85,190 c-13.785,0-25-11.215-25-25s11.215-25,25-25s25,11.215,25,25S98.785,190,85,190z M165,190c-13.785,0-25-11.215-25-25 s11.215-25,25-25s25,11.215,25,25S178.785,190,165,190z M245,190c-13.785,0-25-11.215-25-25s11.215-25,25-25 c13.785,0,25,11.215,25,25S258.785,190,245,190z"></path></a></g></svg></svg></svg>