<svg version="1.1" xmlns="http://www.w3.org/2000/svg" xmlns:xlink="http://www.w3.org/1999/xlink" fill="transparent" x="0" y="0" width="350" height="350" preserveAspectRatio="xMinYMin slice"><style type="text/css">.links{fill:transparent;stroke: #E4CF37;}.links:hover{fill:#63D272; opacity:0.4;}</style><defs><g id="allt"><path id="t4609" d="M1980,1120 L1969,1118 C1959,1116 1970,1124 1963,1125 C1956,1127 1965,1117 1956,1118 L1947,1120 1947,1120 L1947,1129 C1947,1138 1943,1127 1942,1135 C1942,1143 1947,1130 1947,1141 L1947,1152 1947,1152 L1956,1152 C1966,1152 1954,1148 1962,1147 C1971,1147 1958,1152 1969,1152 L1980,1152 1980,1152 L1979,1142 C1979,1132 1983,1147 1984,1136 C1985,1126 1980,1138 1980,1129 L1980,1120"/></g><clipPath id="c" clipRule="evenodd" fill="transparent"><use href="#t4609"/></clipPath></defs><svg viewBox="1941 1115 45 38" preserveAspectRatio="xMinYMin meet"><svg width="4380" height="2430"><g><image crossorigin="anonymous" x="0" y="0" href="https://nftpuzzle.license-token.com/assets/completepuzzle.svg" width="100%" height="100%" /><g class="links"><use href="#t4609"/></g></g></svg><svg x="1971" y="1138" height="9%" width="9%" viewBox="0 0 330 330"><g><a xlink:href="https://nftpuzzle.license-token.com/" class="links"><title>See the most innovative NFT based token software licensing project</title><path fill="#E4CF37" id="more" d="M165,0C74.019,0,0,74.019,0,165s74.019,165,165,165s165-74.019,165-165S255.981,0,165,0z M85,190 c-13.785,0-25-11.215-25-25s11.215-25,25-25s25,11.215,25,25S98.785,190,85,190z M165,190c-13.785,0-25-11.215-25-25 s11.215-25,25-25s25,11.215,25,25S178.785,190,165,190z M245,190c-13.785,0-25-11.215-25-25s11.215-25,25-25 c13.785,0,25,11.215,25,25S258.785,190,245,190z"></path></a></g></svg></svg></svg>