<svg version="1.1" xmlns="http://www.w3.org/2000/svg" xmlns:xlink="http://www.w3.org/1999/xlink" fill="transparent" x="0" y="0" width="350" height="350" preserveAspectRatio="xMinYMin slice"><style type="text/css">.links{fill:transparent;stroke: #E4CF37;}.links:hover{fill:#63D272; opacity:0.4;}</style><defs><g id="allt"><path id="t4621" d="M2376,1120 L2366,1120 C2357,1121 2370,1110 2360,1110 C2350,1110 2364,1122 2353,1121 L2343,1120 2343,1120 L2343,1129 C2343,1138 2335,1127 2335,1137 C2335,1147 2344,1132 2343,1142 L2343,1152 2343,1152 L2352,1152 C2362,1152 2350,1144 2360,1144 C2371,1144 2356,1153 2366,1152 L2376,1152 2376,1152 L2377,1143 C2378,1134 2369,1144 2369,1136 C2370,1128 2377,1140 2376,1130 L2376,1120"/></g><clipPath id="c" clipRule="evenodd" fill="transparent"><use href="#t4621"/></clipPath></defs><svg viewBox="2334 1109 45 45" preserveAspectRatio="xMinYMin meet"><svg width="4380" height="2430"><g><image crossorigin="anonymous" x="0" y="0" href="https://nftpuzzle.license-token.com/assets/completepuzzle.svg" width="100%" height="100%" /><g class="links"><use href="#t4621"/></g></g></svg><svg x="2364" y="1139" height="9%" width="9%" viewBox="0 0 330 330"><g><a xlink:href="https://nftpuzzle.license-token.com/" class="links"><title>See the most innovative NFT based token software licensing project</title><path fill="#E4CF37" id="more" d="M165,0C74.019,0,0,74.019,0,165s74.019,165,165,165s165-74.019,165-165S255.981,0,165,0z M85,190 c-13.785,0-25-11.215-25-25s11.215-25,25-25s25,11.215,25,25S98.785,190,85,190z M165,190c-13.785,0-25-11.215-25-25 s11.215-25,25-25s25,11.215,25,25S178.785,190,165,190z M245,190c-13.785,0-25-11.215-25-25s11.215-25,25-25 c13.785,0,25,11.215,25,25S258.785,190,245,190z"></path></a></g></svg></svg></svg>