<svg version="1.1" xmlns="http://www.w3.org/2000/svg" xmlns:xlink="http://www.w3.org/1999/xlink" fill="transparent" x="0" y="0" width="350" height="350" preserveAspectRatio="xMinYMin slice"><style type="text/css">.links{fill:transparent;stroke: #E4CF37;}.links:hover{fill:#63D272; opacity:0.4;}</style><defs><g id="allt"><path id="t4624" d="M2475,1120 L2463,1120 C2452,1120 2469,1124 2459,1124 C2450,1124 2464,1118 2453,1119 L2442,1120 2442,1120 L2444,1130 C2446,1140 2434,1129 2433,1137 C2433,1146 2447,1134 2444,1143 L2442,1152 2442,1152 L2452,1154 C2463,1156 2451,1144 2460,1143 C2469,1143 2456,1157 2465,1154 L2475,1152 2475,1152 L2475,1141 C2475,1131 2485,1143 2483,1134 C2482,1126 2471,1141 2473,1130 L2475,1120"/></g><clipPath id="c" clipRule="evenodd" fill="transparent"><use href="#t4624"/></clipPath></defs><svg viewBox="2432 1117 54 41" preserveAspectRatio="xMinYMin meet"><svg width="4380" height="2430"><g><image crossorigin="anonymous" x="0" y="0" href="https://nftpuzzle.license-token.com/assets/completepuzzle.svg" width="100%" height="100%" /><g class="links"><use href="#t4624"/></g></g></svg><svg x="2471" y="1143" height="9%" width="9%" viewBox="0 0 330 330"><g><a xlink:href="https://nftpuzzle.license-token.com/" class="links"><title>See the most innovative NFT based token software licensing project</title><path fill="#E4CF37" id="more" d="M165,0C74.019,0,0,74.019,0,165s74.019,165,165,165s165-74.019,165-165S255.981,0,165,0z M85,190 c-13.785,0-25-11.215-25-25s11.215-25,25-25s25,11.215,25,25S98.785,190,85,190z M165,190c-13.785,0-25-11.215-25-25 s11.215-25,25-25s25,11.215,25,25S178.785,190,165,190z M245,190c-13.785,0-25-11.215-25-25s11.215-25,25-25 c13.785,0,25,11.215,25,25S258.785,190,245,190z"></path></a></g></svg></svg></svg>