<svg version="1.1" xmlns="http://www.w3.org/2000/svg" xmlns:xlink="http://www.w3.org/1999/xlink" fill="transparent" x="0" y="0" width="350" height="350" preserveAspectRatio="xMinYMin slice"><style type="text/css">.links{fill:transparent;stroke: #E4CF37;}.links:hover{fill:#63D272; opacity:0.4;}</style><defs><g id="allt"><path id="t4630" d="M2673,1120 L2663,1120 C2654,1120 2665,1110 2657,1110 C2649,1111 2662,1120 2651,1120 L2640,1120 2640,1120 L2640,1129 C2640,1138 2633,1127 2633,1135 C2634,1144 2640,1130 2640,1141 L2640,1152 2640,1152 L2649,1152 C2659,1152 2647,1145 2656,1145 C2665,1146 2651,1152 2662,1152 L2673,1152 2673,1152 L2673,1141 C2673,1130 2680,1145 2679,1136 C2679,1128 2671,1138 2672,1129 L2673,1120"/></g><clipPath id="c" clipRule="evenodd" fill="transparent"><use href="#t4630"/></clipPath></defs><svg viewBox="2632 1109 49 44" preserveAspectRatio="xMinYMin meet"><svg width="4380" height="2430"><g><image crossorigin="anonymous" x="0" y="0" href="https://nftpuzzle.license-token.com/assets/completepuzzle.svg" width="100%" height="100%" /><g class="links"><use href="#t4630"/></g></g></svg><svg x="2666" y="1138" height="9%" width="9%" viewBox="0 0 330 330"><g><a xlink:href="https://nftpuzzle.license-token.com/" class="links"><title>See the most innovative NFT based token software licensing project</title><path fill="#E4CF37" id="more" d="M165,0C74.019,0,0,74.019,0,165s74.019,165,165,165s165-74.019,165-165S255.981,0,165,0z M85,190 c-13.785,0-25-11.215-25-25s11.215-25,25-25s25,11.215,25,25S98.785,190,85,190z M165,190c-13.785,0-25-11.215-25-25 s11.215-25,25-25s25,11.215,25,25S178.785,190,165,190z M245,190c-13.785,0-25-11.215-25-25s11.215-25,25-25 c13.785,0,25,11.215,25,25S258.785,190,245,190z"></path></a></g></svg></svg></svg>