<svg version="1.1" xmlns="http://www.w3.org/2000/svg" xmlns:xlink="http://www.w3.org/1999/xlink" fill="transparent" x="0" y="0" width="350" height="350" preserveAspectRatio="xMinYMin slice"><style type="text/css">.links{fill:transparent;stroke: #E4CF37;}.links:hover{fill:#63D272; opacity:0.4;}</style><defs><g id="allt"><path id="t4632" d="M2739,1120 L2729,1120 C2720,1121 2731,1117 2721,1117 C2712,1117 2725,1121 2715,1120 L2706,1120 2706,1120 L2706,1130 C2706,1140 2703,1128 2703,1137 C2703,1146 2706,1133 2706,1142 L2706,1152 2706,1152 L2716,1152 C2727,1152 2714,1149 2723,1149 C2733,1149 2720,1152 2729,1152 L2739,1152 2739,1152 L2739,1141 C2739,1131 2734,1146 2732,1136 C2731,1127 2742,1139 2740,1129 L2739,1120"/></g><clipPath id="c" clipRule="evenodd" fill="transparent"><use href="#t4632"/></clipPath></defs><svg viewBox="2702 1116 41 37" preserveAspectRatio="xMinYMin meet"><svg width="4380" height="2430"><g><image crossorigin="anonymous" x="0" y="0" href="https://nftpuzzle.license-token.com/assets/completepuzzle.svg" width="100%" height="100%" /><g class="links"><use href="#t4632"/></g></g></svg><svg x="2728" y="1138" height="9%" width="9%" viewBox="0 0 330 330"><g><a xlink:href="https://nftpuzzle.license-token.com/" class="links"><title>See the most innovative NFT based token software licensing project</title><path fill="#E4CF37" id="more" d="M165,0C74.019,0,0,74.019,0,165s74.019,165,165,165s165-74.019,165-165S255.981,0,165,0z M85,190 c-13.785,0-25-11.215-25-25s11.215-25,25-25s25,11.215,25,25S98.785,190,85,190z M165,190c-13.785,0-25-11.215-25-25 s11.215-25,25-25s25,11.215,25,25S178.785,190,165,190z M245,190c-13.785,0-25-11.215-25-25s11.215-25,25-25 c13.785,0,25,11.215,25,25S258.785,190,245,190z"></path></a></g></svg></svg></svg>