<svg version="1.1" xmlns="http://www.w3.org/2000/svg" xmlns:xlink="http://www.w3.org/1999/xlink" fill="transparent" x="0" y="0" width="350" height="350" preserveAspectRatio="xMinYMin slice"><style type="text/css">.links{fill:transparent;stroke: #E4CF37;}.links:hover{fill:#63D272; opacity:0.4;}</style><defs><g id="allt"><path id="t4636" d="M2871,1120 L2861,1120 C2851,1121 2865,1116 2856,1116 C2847,1116 2857,1120 2847,1120 L2838,1120 2838,1120 L2838,1130 C2839,1140 2833,1125 2834,1136 C2835,1147 2839,1130 2838,1141 L2838,1152 2838,1152 L2848,1152 C2859,1153 2843,1147 2854,1148 C2866,1149 2848,1153 2859,1152 L2871,1152 2871,1152 L2871,1143 C2872,1134 2863,1143 2864,1135 C2865,1128 2871,1137 2871,1128 L2871,1120"/></g><clipPath id="c" clipRule="evenodd" fill="transparent"><use href="#t4636"/></clipPath></defs><svg viewBox="2832 1115 41 39" preserveAspectRatio="xMinYMin meet"><svg width="4380" height="2430"><g><image crossorigin="anonymous" x="0" y="0" href="https://nftpuzzle.license-token.com/assets/completepuzzle.svg" width="100%" height="100%" /><g class="links"><use href="#t4636"/></g></g></svg><svg x="2858" y="1139" height="9%" width="9%" viewBox="0 0 330 330"><g><a xlink:href="https://nftpuzzle.license-token.com/" class="links"><title>See the most innovative NFT based token software licensing project</title><path fill="#E4CF37" id="more" d="M165,0C74.019,0,0,74.019,0,165s74.019,165,165,165s165-74.019,165-165S255.981,0,165,0z M85,190 c-13.785,0-25-11.215-25-25s11.215-25,25-25s25,11.215,25,25S98.785,190,85,190z M165,190c-13.785,0-25-11.215-25-25 s11.215-25,25-25s25,11.215,25,25S178.785,190,165,190z M245,190c-13.785,0-25-11.215-25-25s11.215-25,25-25 c13.785,0,25,11.215,25,25S258.785,190,245,190z"></path></a></g></svg></svg></svg>