<svg version="1.1" xmlns="http://www.w3.org/2000/svg" xmlns:xlink="http://www.w3.org/1999/xlink" fill="transparent" x="0" y="0" width="350" height="350" preserveAspectRatio="xMinYMin slice"><style type="text/css">.links{fill:transparent;stroke: #E4CF37;}.links:hover{fill:#63D272; opacity:0.4;}</style><defs><g id="allt"><path id="t464" d="M2475,96 L2464,95 C2453,95 2468,100 2459,99 C2450,98 2460,96 2451,96 L2442,96 2442,96 L2441,105 C2441,115 2448,100 2447,110 C2447,120 2442,110 2442,119 L2442,128 2442,128 L2452,127 C2462,127 2446,134 2456,133 C2466,133 2456,128 2465,128 L2475,128 2475,128 L2474,117 C2474,106 2485,119 2484,112 C2484,105 2473,115 2474,105 L2475,96"/></g><clipPath id="c" clipRule="evenodd" fill="transparent"><use href="#t464"/></clipPath></defs><svg viewBox="2440 94 46 41" preserveAspectRatio="xMinYMin meet"><svg width="4380" height="2430"><g><image crossorigin="anonymous" x="0" y="0" href="https://nftpuzzle.license-token.com/assets/completepuzzle.svg" width="100%" height="100%" /><g class="links"><use href="#t464"/></g></g></svg><svg x="2471" y="120" height="9%" width="9%" viewBox="0 0 330 330"><g><a xlink:href="https://nftpuzzle.license-token.com/" class="links"><title>See the most innovative NFT based token software licensing project</title><path fill="#E4CF37" id="more" d="M165,0C74.019,0,0,74.019,0,165s74.019,165,165,165s165-74.019,165-165S255.981,0,165,0z M85,190 c-13.785,0-25-11.215-25-25s11.215-25,25-25s25,11.215,25,25S98.785,190,85,190z M165,190c-13.785,0-25-11.215-25-25 s11.215-25,25-25s25,11.215,25,25S178.785,190,165,190z M245,190c-13.785,0-25-11.215-25-25s11.215-25,25-25 c13.785,0,25,11.215,25,25S258.785,190,245,190z"></path></a></g></svg></svg></svg>