<svg version="1.1" xmlns="http://www.w3.org/2000/svg" xmlns:xlink="http://www.w3.org/1999/xlink" fill="transparent" x="0" y="0" width="350" height="350" preserveAspectRatio="xMinYMin slice"><style type="text/css">.links{fill:transparent;stroke: #E4CF37;}.links:hover{fill:#63D272; opacity:0.4;}</style><defs><g id="allt"><path id="t4642" d="M3069,1120 L3059,1118 C3050,1116 3064,1130 3052,1129 C3041,1128 3055,1117 3045,1118 L3036,1120 3036,1120 L3036,1130 C3037,1140 3032,1127 3031,1135 C3031,1143 3036,1133 3036,1142 L3036,1152 3036,1152 L3046,1152 C3056,1153 3043,1148 3051,1147 C3060,1147 3049,1152 3059,1152 L3069,1152 3069,1152 L3068,1141 C3068,1130 3076,1146 3075,1135 C3075,1125 3069,1138 3069,1129 L3069,1120"/></g><clipPath id="c" clipRule="evenodd" fill="transparent"><use href="#t4642"/></clipPath></defs><svg viewBox="3030 1115 47 39" preserveAspectRatio="xMinYMin meet"><svg width="4380" height="2430"><g><image crossorigin="anonymous" x="0" y="0" href="https://nftpuzzle.license-token.com/assets/completepuzzle.svg" width="100%" height="100%" /><g class="links"><use href="#t4642"/></g></g></svg><svg x="3062" y="1139" height="9%" width="9%" viewBox="0 0 330 330"><g><a xlink:href="https://nftpuzzle.license-token.com/" class="links"><title>See the most innovative NFT based token software licensing project</title><path fill="#E4CF37" id="more" d="M165,0C74.019,0,0,74.019,0,165s74.019,165,165,165s165-74.019,165-165S255.981,0,165,0z M85,190 c-13.785,0-25-11.215-25-25s11.215-25,25-25s25,11.215,25,25S98.785,190,85,190z M165,190c-13.785,0-25-11.215-25-25 s11.215-25,25-25s25,11.215,25,25S178.785,190,165,190z M245,190c-13.785,0-25-11.215-25-25s11.215-25,25-25 c13.785,0,25,11.215,25,25S258.785,190,245,190z"></path></a></g></svg></svg></svg>