<svg version="1.1" xmlns="http://www.w3.org/2000/svg" xmlns:xlink="http://www.w3.org/1999/xlink" fill="transparent" x="0" y="0" width="350" height="350" preserveAspectRatio="xMinYMin slice"><style type="text/css">.links{fill:transparent;stroke: #E4CF37;}.links:hover{fill:#63D272; opacity:0.4;}</style><defs><g id="allt"><path id="t4657" d="M3564,1120 L3554,1120 C3545,1120 3554,1124 3547,1125 C3540,1127 3549,1120 3540,1120 L3531,1120 3531,1120 L3531,1130 C3531,1141 3534,1124 3534,1133 C3535,1143 3528,1131 3529,1141 L3531,1152 3531,1152 L3542,1152 C3553,1152 3535,1155 3545,1155 C3555,1156 3542,1149 3553,1150 L3564,1152 3564,1152 L3563,1142 C3562,1133 3570,1143 3569,1135 C3568,1127 3563,1137 3563,1128 L3564,1120"/></g><clipPath id="c" clipRule="evenodd" fill="transparent"><use href="#t4657"/></clipPath></defs><svg viewBox="3527 1119 44 38" preserveAspectRatio="xMinYMin meet"><svg width="4380" height="2430"><g><image crossorigin="anonymous" x="0" y="0" href="https://nftpuzzle.license-token.com/assets/completepuzzle.svg" width="100%" height="100%" /><g class="links"><use href="#t4657"/></g></g></svg><svg x="3556" y="1142" height="9%" width="9%" viewBox="0 0 330 330"><g><a xlink:href="https://nftpuzzle.license-token.com/" class="links"><title>See the most innovative NFT based token software licensing project</title><path fill="#E4CF37" id="more" d="M165,0C74.019,0,0,74.019,0,165s74.019,165,165,165s165-74.019,165-165S255.981,0,165,0z M85,190 c-13.785,0-25-11.215-25-25s11.215-25,25-25s25,11.215,25,25S98.785,190,85,190z M165,190c-13.785,0-25-11.215-25-25 s11.215-25,25-25s25,11.215,25,25S178.785,190,165,190z M245,190c-13.785,0-25-11.215-25-25s11.215-25,25-25 c13.785,0,25,11.215,25,25S258.785,190,245,190z"></path></a></g></svg></svg></svg>