<svg version="1.1" xmlns="http://www.w3.org/2000/svg" xmlns:xlink="http://www.w3.org/1999/xlink" fill="transparent" x="0" y="0" width="350" height="350" preserveAspectRatio="xMinYMin slice"><style type="text/css">.links{fill:transparent;stroke: #E4CF37;}.links:hover{fill:#63D272; opacity:0.4;}</style><defs><g id="allt"><path id="t4659" d="M3630,1120 L3618,1119 C3607,1118 3620,1130 3613,1130 C3606,1130 3617,1120 3607,1120 L3597,1120 3597,1120 L3596,1129 C3595,1139 3600,1127 3601,1135 C3602,1143 3597,1132 3597,1142 L3597,1152 3597,1152 L3607,1151 C3617,1150 3604,1155 3612,1156 C3621,1157 3610,1152 3620,1152 L3630,1152 3630,1152 L3630,1143 C3630,1134 3634,1144 3635,1134 C3637,1125 3628,1141 3629,1130 L3630,1120"/></g><clipPath id="c" clipRule="evenodd" fill="transparent"><use href="#t4659"/></clipPath></defs><svg viewBox="3594 1117 44 41" preserveAspectRatio="xMinYMin meet"><svg width="4380" height="2430"><g><image crossorigin="anonymous" x="0" y="0" href="https://nftpuzzle.license-token.com/assets/completepuzzle.svg" width="100%" height="100%" /><g class="links"><use href="#t4659"/></g></g></svg><svg x="3623" y="1143" height="9%" width="9%" viewBox="0 0 330 330"><g><a xlink:href="https://nftpuzzle.license-token.com/" class="links"><title>See the most innovative NFT based token software licensing project</title><path fill="#E4CF37" id="more" d="M165,0C74.019,0,0,74.019,0,165s74.019,165,165,165s165-74.019,165-165S255.981,0,165,0z M85,190 c-13.785,0-25-11.215-25-25s11.215-25,25-25s25,11.215,25,25S98.785,190,85,190z M165,190c-13.785,0-25-11.215-25-25 s11.215-25,25-25s25,11.215,25,25S178.785,190,165,190z M245,190c-13.785,0-25-11.215-25-25s11.215-25,25-25 c13.785,0,25,11.215,25,25S258.785,190,245,190z"></path></a></g></svg></svg></svg>