<svg version="1.1" xmlns="http://www.w3.org/2000/svg" xmlns:xlink="http://www.w3.org/1999/xlink" fill="transparent" x="0" y="0" width="350" height="350" preserveAspectRatio="xMinYMin slice"><style type="text/css">.links{fill:transparent;stroke: #E4CF37;}.links:hover{fill:#63D272; opacity:0.4;}</style><defs><g id="allt"><path id="t466" d="M2541,96 L2531,96 C2521,96 2534,103 2525,103 C2516,104 2529,95 2518,95 L2508,96 2508,96 L2509,105 C2510,114 2497,102 2497,111 C2498,121 2513,108 2510,118 L2508,128 2508,128 L2517,129 C2526,130 2514,117 2524,117 C2534,118 2521,133 2531,130 L2541,128 2541,128 L2541,117 C2541,106 2538,123 2538,114 C2538,105 2541,113 2541,104 L2541,96"/></g><clipPath id="c" clipRule="evenodd" fill="transparent"><use href="#t466"/></clipPath></defs><svg viewBox="2496 94 46 40" preserveAspectRatio="xMinYMin meet"><svg width="4380" height="2430"><g><image crossorigin="anonymous" x="0" y="0" href="https://nftpuzzle.license-token.com/assets/completepuzzle.svg" width="100%" height="100%" /><g class="links"><use href="#t466"/></g></g></svg><svg x="2527" y="119" height="9%" width="9%" viewBox="0 0 330 330"><g><a xlink:href="https://nftpuzzle.license-token.com/" class="links"><title>See the most innovative NFT based token software licensing project</title><path fill="#E4CF37" id="more" d="M165,0C74.019,0,0,74.019,0,165s74.019,165,165,165s165-74.019,165-165S255.981,0,165,0z M85,190 c-13.785,0-25-11.215-25-25s11.215-25,25-25s25,11.215,25,25S98.785,190,85,190z M165,190c-13.785,0-25-11.215-25-25 s11.215-25,25-25s25,11.215,25,25S178.785,190,165,190z M245,190c-13.785,0-25-11.215-25-25s11.215-25,25-25 c13.785,0,25,11.215,25,25S258.785,190,245,190z"></path></a></g></svg></svg></svg>