<svg version="1.1" xmlns="http://www.w3.org/2000/svg" xmlns:xlink="http://www.w3.org/1999/xlink" fill="transparent" x="0" y="0" width="350" height="350" preserveAspectRatio="xMinYMin slice"><style type="text/css">.links{fill:transparent;stroke: #E4CF37;}.links:hover{fill:#63D272; opacity:0.4;}</style><defs><g id="allt"><path id="t4660" d="M3663,1120 L3653,1120 C3643,1120 3656,1116 3645,1116 C3635,1117 3648,1120 3639,1120 L3630,1120 3630,1120 L3629,1130 C3628,1141 3637,1125 3635,1134 C3634,1144 3630,1134 3630,1143 L3630,1152 3630,1152 L3641,1151 C3652,1150 3635,1159 3645,1157 C3655,1156 3644,1152 3653,1152 L3663,1152 3663,1152 L3663,1143 C3663,1134 3655,1146 3657,1136 C3659,1127 3663,1139 3663,1129 L3663,1120"/></g><clipPath id="c" clipRule="evenodd" fill="transparent"><use href="#t4660"/></clipPath></defs><svg viewBox="3627 1115 37 45" preserveAspectRatio="xMinYMin meet"><svg width="4380" height="2430"><g><image crossorigin="anonymous" x="0" y="0" href="https://nftpuzzle.license-token.com/assets/completepuzzle.svg" width="100%" height="100%" /><g class="links"><use href="#t4660"/></g></g></svg><svg x="3649" y="1145" height="9%" width="9%" viewBox="0 0 330 330"><g><a xlink:href="https://nftpuzzle.license-token.com/" class="links"><title>See the most innovative NFT based token software licensing project</title><path fill="#E4CF37" id="more" d="M165,0C74.019,0,0,74.019,0,165s74.019,165,165,165s165-74.019,165-165S255.981,0,165,0z M85,190 c-13.785,0-25-11.215-25-25s11.215-25,25-25s25,11.215,25,25S98.785,190,85,190z M165,190c-13.785,0-25-11.215-25-25 s11.215-25,25-25s25,11.215,25,25S178.785,190,165,190z M245,190c-13.785,0-25-11.215-25-25s11.215-25,25-25 c13.785,0,25,11.215,25,25S258.785,190,245,190z"></path></a></g></svg></svg></svg>