<svg version="1.1" xmlns="http://www.w3.org/2000/svg" xmlns:xlink="http://www.w3.org/1999/xlink" fill="transparent" x="0" y="0" width="350" height="350" preserveAspectRatio="xMinYMin slice"><style type="text/css">.links{fill:transparent;stroke: #E4CF37;}.links:hover{fill:#63D272; opacity:0.4;}</style><defs><g id="allt"><path id="t4666" d="M3861,1120 L3850,1121 C3839,1122 3853,1113 3844,1114 C3836,1116 3847,1120 3837,1120 L3828,1120 3828,1120 L3828,1130 C3828,1140 3822,1125 3823,1134 C3824,1144 3829,1131 3828,1141 L3828,1152 3828,1152 L3838,1152 C3849,1152 3833,1146 3843,1147 C3853,1148 3839,1153 3850,1152 L3861,1152 3861,1152 L3862,1142 C3864,1132 3852,1144 3853,1135 C3855,1126 3861,1141 3861,1130 L3861,1120"/></g><clipPath id="c" clipRule="evenodd" fill="transparent"><use href="#t4666"/></clipPath></defs><svg viewBox="3821 1112 44 42" preserveAspectRatio="xMinYMin meet"><svg width="4380" height="2430"><g><image crossorigin="anonymous" x="0" y="0" href="https://nftpuzzle.license-token.com/assets/completepuzzle.svg" width="100%" height="100%" /><g class="links"><use href="#t4666"/></g></g></svg><svg x="3850" y="1139" height="9%" width="9%" viewBox="0 0 330 330"><g><a xlink:href="https://nftpuzzle.license-token.com/" class="links"><title>See the most innovative NFT based token software licensing project</title><path fill="#E4CF37" id="more" d="M165,0C74.019,0,0,74.019,0,165s74.019,165,165,165s165-74.019,165-165S255.981,0,165,0z M85,190 c-13.785,0-25-11.215-25-25s11.215-25,25-25s25,11.215,25,25S98.785,190,85,190z M165,190c-13.785,0-25-11.215-25-25 s11.215-25,25-25s25,11.215,25,25S178.785,190,165,190z M245,190c-13.785,0-25-11.215-25-25s11.215-25,25-25 c13.785,0,25,11.215,25,25S258.785,190,245,190z"></path></a></g></svg></svg></svg>