<svg version="1.1" xmlns="http://www.w3.org/2000/svg" xmlns:xlink="http://www.w3.org/1999/xlink" fill="transparent" x="0" y="0" width="350" height="350" preserveAspectRatio="xMinYMin slice"><style type="text/css">.links{fill:transparent;stroke: #E4CF37;}.links:hover{fill:#63D272; opacity:0.4;}</style><defs><g id="allt"><path id="t467" d="M2574,96 L2563,95 C2552,95 2566,104 2555,102 C2545,101 2561,96 2551,96 L2541,96 2541,96 L2541,104 C2541,113 2538,105 2538,114 C2538,123 2541,106 2541,117 L2541,128 2541,128 L2550,128 C2559,128 2550,125 2559,125 C2569,125 2552,128 2563,128 L2574,128 2574,128 L2574,118 C2574,109 2568,121 2568,112 C2568,103 2574,117 2574,106 L2574,96"/></g><clipPath id="c" clipRule="evenodd" fill="transparent"><use href="#t467"/></clipPath></defs><svg viewBox="2537 94 38 35" preserveAspectRatio="xMinYMin meet"><svg width="4380" height="2430"><g><image crossorigin="anonymous" x="0" y="0" href="https://nftpuzzle.license-token.com/assets/completepuzzle.svg" width="100%" height="100%" /><g class="links"><use href="#t467"/></g></g></svg><svg x="2560" y="114" height="9%" width="9%" viewBox="0 0 330 330"><g><a xlink:href="https://nftpuzzle.license-token.com/" class="links"><title>See the most innovative NFT based token software licensing project</title><path fill="#E4CF37" id="more" d="M165,0C74.019,0,0,74.019,0,165s74.019,165,165,165s165-74.019,165-165S255.981,0,165,0z M85,190 c-13.785,0-25-11.215-25-25s11.215-25,25-25s25,11.215,25,25S98.785,190,85,190z M165,190c-13.785,0-25-11.215-25-25 s11.215-25,25-25s25,11.215,25,25S178.785,190,165,190z M245,190c-13.785,0-25-11.215-25-25s11.215-25,25-25 c13.785,0,25,11.215,25,25S258.785,190,245,190z"></path></a></g></svg></svg></svg>