<svg version="1.1" xmlns="http://www.w3.org/2000/svg" xmlns:xlink="http://www.w3.org/1999/xlink" fill="transparent" x="0" y="0" width="350" height="350" preserveAspectRatio="xMinYMin slice"><style type="text/css">.links{fill:transparent;stroke: #E4CF37;}.links:hover{fill:#63D272; opacity:0.4;}</style><defs><g id="allt"><path id="t4672" d="M4059,1120 L4048,1120 C4038,1120 4053,1117 4044,1117 C4035,1117 4045,1120 4035,1120 L4026,1120 4026,1120 L4025,1129 C4025,1139 4028,1128 4028,1135 C4028,1143 4024,1133 4025,1142 L4026,1152 4026,1152 L4036,1151 C4046,1151 4035,1154 4042,1154 C4050,1154 4039,1150 4049,1151 L4059,1152 4059,1152 L4059,1142 C4060,1133 4050,1144 4052,1134 C4055,1125 4060,1140 4059,1130 L4059,1120"/></g><clipPath id="c" clipRule="evenodd" fill="transparent"><use href="#t4672"/></clipPath></defs><svg viewBox="4023 1116 38 39" preserveAspectRatio="xMinYMin meet"><svg width="4380" height="2430"><g><image crossorigin="anonymous" x="0" y="0" href="https://nftpuzzle.license-token.com/assets/completepuzzle.svg" width="100%" height="100%" /><g class="links"><use href="#t4672"/></g></g></svg><svg x="4046" y="1140" height="9%" width="9%" viewBox="0 0 330 330"><g><a xlink:href="https://nftpuzzle.license-token.com/" class="links"><title>See the most innovative NFT based token software licensing project</title><path fill="#E4CF37" id="more" d="M165,0C74.019,0,0,74.019,0,165s74.019,165,165,165s165-74.019,165-165S255.981,0,165,0z M85,190 c-13.785,0-25-11.215-25-25s11.215-25,25-25s25,11.215,25,25S98.785,190,85,190z M165,190c-13.785,0-25-11.215-25-25 s11.215-25,25-25s25,11.215,25,25S178.785,190,165,190z M245,190c-13.785,0-25-11.215-25-25s11.215-25,25-25 c13.785,0,25,11.215,25,25S258.785,190,245,190z"></path></a></g></svg></svg></svg>