<svg version="1.1" xmlns="http://www.w3.org/2000/svg" xmlns:xlink="http://www.w3.org/1999/xlink" fill="transparent" x="0" y="0" width="350" height="350" preserveAspectRatio="xMinYMin slice"><style type="text/css">.links{fill:transparent;stroke: #E4CF37;}.links:hover{fill:#63D272; opacity:0.4;}</style><defs><g id="allt"><path id="t4677" d="M4224,1120 L4214,1120 C4205,1121 4217,1114 4208,1113 C4200,1112 4212,1123 4201,1121 L4191,1120 4191,1120 L4191,1129 C4192,1139 4185,1126 4183,1134 C4182,1142 4191,1134 4191,1143 L4191,1152 4191,1152 L4201,1152 C4211,1153 4197,1146 4205,1144 C4214,1143 4205,1152 4214,1152 L4224,1152 4224,1152 L4224,1143 C4224,1134 4217,1146 4217,1136 C4218,1127 4224,1139 4224,1129 L4224,1120"/></g><clipPath id="c" clipRule="evenodd" fill="transparent"><use href="#t4677"/></clipPath></defs><svg viewBox="4181 1111 44 43" preserveAspectRatio="xMinYMin meet"><svg width="4380" height="2430"><g><image crossorigin="anonymous" x="0" y="0" href="https://nftpuzzle.license-token.com/assets/completepuzzle.svg" width="100%" height="100%" /><g class="links"><use href="#t4677"/></g></g></svg><svg x="4210" y="1139" height="9%" width="9%" viewBox="0 0 330 330"><g><a xlink:href="https://nftpuzzle.license-token.com/" class="links"><title>See the most innovative NFT based token software licensing project</title><path fill="#E4CF37" id="more" d="M165,0C74.019,0,0,74.019,0,165s74.019,165,165,165s165-74.019,165-165S255.981,0,165,0z M85,190 c-13.785,0-25-11.215-25-25s11.215-25,25-25s25,11.215,25,25S98.785,190,85,190z M165,190c-13.785,0-25-11.215-25-25 s11.215-25,25-25s25,11.215,25,25S178.785,190,165,190z M245,190c-13.785,0-25-11.215-25-25s11.215-25,25-25 c13.785,0,25,11.215,25,25S258.785,190,245,190z"></path></a></g></svg></svg></svg>