<svg version="1.1" xmlns="http://www.w3.org/2000/svg" xmlns:xlink="http://www.w3.org/1999/xlink" fill="transparent" x="0" y="0" width="350" height="350" preserveAspectRatio="xMinYMin slice"><style type="text/css">.links{fill:transparent;stroke: #E4CF37;}.links:hover{fill:#63D272; opacity:0.4;}</style><defs><g id="allt"><path id="t4682" d="M99,1152 L88,1154 C77,1157 93,1141 81,1143 C70,1146 85,1155 75,1153 L66,1152 66,1152 L68,1162 C70,1173 59,1156 59,1166 C59,1176 65,1162 65,1173 L66,1184 66,1184 L77,1186 C88,1188 70,1177 80,1177 C91,1177 76,1183 87,1183 L99,1184 99,1184 L99,1173 C99,1162 103,1178 105,1167 C107,1157 98,1170 98,1161 L99,1152"/></g><clipPath id="c" clipRule="evenodd" fill="transparent"><use href="#t4682"/></clipPath></defs><svg viewBox="58 1140 50 49" preserveAspectRatio="xMinYMin meet"><svg width="4380" height="2430"><g><image crossorigin="anonymous" x="0" y="0" href="https://nftpuzzle.license-token.com/assets/completepuzzle.svg" width="100%" height="100%" /><g class="links"><use href="#t4682"/></g></g></svg><svg x="93" y="1174" height="9%" width="9%" viewBox="0 0 330 330"><g><a xlink:href="https://nftpuzzle.license-token.com/" class="links"><title>See the most innovative NFT based token software licensing project</title><path fill="#E4CF37" id="more" d="M165,0C74.019,0,0,74.019,0,165s74.019,165,165,165s165-74.019,165-165S255.981,0,165,0z M85,190 c-13.785,0-25-11.215-25-25s11.215-25,25-25s25,11.215,25,25S98.785,190,85,190z M165,190c-13.785,0-25-11.215-25-25 s11.215-25,25-25s25,11.215,25,25S178.785,190,165,190z M245,190c-13.785,0-25-11.215-25-25s11.215-25,25-25 c13.785,0,25,11.215,25,25S258.785,190,245,190z"></path></a></g></svg></svg></svg>