<svg version="1.1" xmlns="http://www.w3.org/2000/svg" xmlns:xlink="http://www.w3.org/1999/xlink" fill="transparent" x="0" y="0" width="350" height="350" preserveAspectRatio="xMinYMin slice"><style type="text/css">.links{fill:transparent;stroke: #E4CF37;}.links:hover{fill:#63D272; opacity:0.4;}</style><defs><g id="allt"><path id="t4684" d="M165,1152 L153,1152 C142,1153 155,1146 147,1146 C139,1147 150,1152 141,1152 L132,1152 132,1152 L132,1161 C133,1171 128,1158 129,1166 C130,1175 132,1162 132,1173 L132,1184 132,1184 L142,1184 C152,1185 138,1180 147,1181 C156,1182 142,1184 153,1184 L165,1184 165,1184 L165,1174 C165,1165 168,1178 169,1167 C171,1157 165,1172 165,1162 L165,1152"/></g><clipPath id="c" clipRule="evenodd" fill="transparent"><use href="#t4684"/></clipPath></defs><svg viewBox="127 1145 45 41" preserveAspectRatio="xMinYMin meet"><svg width="4380" height="2430"><g><image crossorigin="anonymous" x="0" y="0" href="https://nftpuzzle.license-token.com/assets/completepuzzle.svg" width="100%" height="100%" /><g class="links"><use href="#t4684"/></g></g></svg><svg x="157" y="1171" height="9%" width="9%" viewBox="0 0 330 330"><g><a xlink:href="https://nftpuzzle.license-token.com/" class="links"><title>See the most innovative NFT based token software licensing project</title><path fill="#E4CF37" id="more" d="M165,0C74.019,0,0,74.019,0,165s74.019,165,165,165s165-74.019,165-165S255.981,0,165,0z M85,190 c-13.785,0-25-11.215-25-25s11.215-25,25-25s25,11.215,25,25S98.785,190,85,190z M165,190c-13.785,0-25-11.215-25-25 s11.215-25,25-25s25,11.215,25,25S178.785,190,165,190z M245,190c-13.785,0-25-11.215-25-25s11.215-25,25-25 c13.785,0,25,11.215,25,25S258.785,190,245,190z"></path></a></g></svg></svg></svg>