<svg version="1.1" xmlns="http://www.w3.org/2000/svg" xmlns:xlink="http://www.w3.org/1999/xlink" fill="transparent" x="0" y="0" width="350" height="350" preserveAspectRatio="xMinYMin slice"><style type="text/css">.links{fill:transparent;stroke: #E4CF37;}.links:hover{fill:#63D272; opacity:0.4;}</style><defs><g id="allt"><path id="t4693" d="M462,1152 L452,1152 C443,1152 453,1164 444,1162 C435,1160 448,1152 438,1152 L429,1152 429,1152 L429,1162 C429,1172 423,1160 424,1167 C425,1174 429,1162 429,1173 L429,1184 429,1184 L439,1184 C450,1184 437,1178 444,1179 C452,1180 440,1184 451,1184 L462,1184 462,1184 L462,1173 C462,1163 458,1178 457,1168 C456,1159 462,1171 462,1161 L462,1152"/></g><clipPath id="c" clipRule="evenodd" fill="transparent"><use href="#t4693"/></clipPath></defs><svg viewBox="422 1151 41 34" preserveAspectRatio="xMinYMin meet"><svg width="4380" height="2430"><g><image crossorigin="anonymous" x="0" y="0" href="https://nftpuzzle.license-token.com/assets/completepuzzle.svg" width="100%" height="100%" /><g class="links"><use href="#t4693"/></g></g></svg><svg x="448" y="1170" height="9%" width="9%" viewBox="0 0 330 330"><g><a xlink:href="https://nftpuzzle.license-token.com/" class="links"><title>See the most innovative NFT based token software licensing project</title><path fill="#E4CF37" id="more" d="M165,0C74.019,0,0,74.019,0,165s74.019,165,165,165s165-74.019,165-165S255.981,0,165,0z M85,190 c-13.785,0-25-11.215-25-25s11.215-25,25-25s25,11.215,25,25S98.785,190,85,190z M165,190c-13.785,0-25-11.215-25-25 s11.215-25,25-25s25,11.215,25,25S178.785,190,165,190z M245,190c-13.785,0-25-11.215-25-25s11.215-25,25-25 c13.785,0,25,11.215,25,25S258.785,190,245,190z"></path></a></g></svg></svg></svg>