<svg version="1.1" xmlns="http://www.w3.org/2000/svg" xmlns:xlink="http://www.w3.org/1999/xlink" fill="transparent" x="0" y="0" width="350" height="350" preserveAspectRatio="xMinYMin slice"><style type="text/css">.links{fill:transparent;stroke: #E4CF37;}.links:hover{fill:#63D272; opacity:0.4;}</style><defs><g id="allt"><path id="t4694" d="M495,1152 L484,1151 C473,1151 488,1155 479,1155 C471,1156 482,1152 472,1152 L462,1152 462,1152 L462,1161 C462,1171 456,1159 457,1168 C458,1178 462,1163 462,1173 L462,1184 462,1184 L472,1184 C482,1184 469,1178 479,1179 C489,1180 474,1184 484,1184 L495,1184 495,1184 L494,1174 C494,1164 499,1176 499,1166 C499,1156 495,1172 495,1162 L495,1152"/></g><clipPath id="c" clipRule="evenodd" fill="transparent"><use href="#t4694"/></clipPath></defs><svg viewBox="455 1150 45 35" preserveAspectRatio="xMinYMin meet"><svg width="4380" height="2430"><g><image crossorigin="anonymous" x="0" y="0" href="https://nftpuzzle.license-token.com/assets/completepuzzle.svg" width="100%" height="100%" /><g class="links"><use href="#t4694"/></g></g></svg><svg x="485" y="1170" height="9%" width="9%" viewBox="0 0 330 330"><g><a xlink:href="https://nftpuzzle.license-token.com/" class="links"><title>See the most innovative NFT based token software licensing project</title><path fill="#E4CF37" id="more" d="M165,0C74.019,0,0,74.019,0,165s74.019,165,165,165s165-74.019,165-165S255.981,0,165,0z M85,190 c-13.785,0-25-11.215-25-25s11.215-25,25-25s25,11.215,25,25S98.785,190,85,190z M165,190c-13.785,0-25-11.215-25-25 s11.215-25,25-25s25,11.215,25,25S178.785,190,165,190z M245,190c-13.785,0-25-11.215-25-25s11.215-25,25-25 c13.785,0,25,11.215,25,25S258.785,190,245,190z"></path></a></g></svg></svg></svg>