<svg version="1.1" xmlns="http://www.w3.org/2000/svg" xmlns:xlink="http://www.w3.org/1999/xlink" fill="transparent" x="0" y="0" width="350" height="350" preserveAspectRatio="xMinYMin slice"><style type="text/css">.links{fill:transparent;stroke: #E4CF37;}.links:hover{fill:#63D272; opacity:0.4;}</style><defs><g id="allt"><path id="t4700" d="M693,1152 L683,1152 C674,1152 687,1160 676,1159 C665,1158 678,1152 669,1152 L660,1152 660,1152 L659,1160 C659,1169 669,1161 668,1168 C667,1175 660,1163 660,1173 L660,1184 660,1184 L669,1183 C678,1183 669,1192 676,1191 C684,1191 671,1184 682,1184 L693,1184 693,1184 L692,1174 C691,1164 702,1176 703,1168 C704,1160 693,1173 693,1162 L693,1152"/></g><clipPath id="c" clipRule="evenodd" fill="transparent"><use href="#t4700"/></clipPath></defs><svg viewBox="658 1151 47 42" preserveAspectRatio="xMinYMin meet"><svg width="4380" height="2430"><g><image crossorigin="anonymous" x="0" y="0" href="https://nftpuzzle.license-token.com/assets/completepuzzle.svg" width="100%" height="100%" /><g class="links"><use href="#t4700"/></g></g></svg><svg x="690" y="1178" height="9%" width="9%" viewBox="0 0 330 330"><g><a xlink:href="https://nftpuzzle.license-token.com/" class="links"><title>See the most innovative NFT based token software licensing project</title><path fill="#E4CF37" id="more" d="M165,0C74.019,0,0,74.019,0,165s74.019,165,165,165s165-74.019,165-165S255.981,0,165,0z M85,190 c-13.785,0-25-11.215-25-25s11.215-25,25-25s25,11.215,25,25S98.785,190,85,190z M165,190c-13.785,0-25-11.215-25-25 s11.215-25,25-25s25,11.215,25,25S178.785,190,165,190z M245,190c-13.785,0-25-11.215-25-25s11.215-25,25-25 c13.785,0,25,11.215,25,25S258.785,190,245,190z"></path></a></g></svg></svg></svg>