<svg version="1.1" xmlns="http://www.w3.org/2000/svg" xmlns:xlink="http://www.w3.org/1999/xlink" fill="transparent" x="0" y="0" width="350" height="350" preserveAspectRatio="xMinYMin slice"><style type="text/css">.links{fill:transparent;stroke: #E4CF37;}.links:hover{fill:#63D272; opacity:0.4;}</style><defs><g id="allt"><path id="t4702" d="M759,1152 L748,1152 C738,1152 750,1160 740,1162 C731,1164 746,1152 736,1152 L726,1152 726,1152 L725,1160 C725,1169 729,1161 728,1167 C728,1174 726,1162 726,1173 L726,1184 726,1184 L735,1183 C744,1183 735,1187 742,1186 C749,1186 736,1184 747,1184 L759,1184 759,1184 L758,1173 C757,1162 763,1175 765,1167 C768,1159 759,1173 759,1162 L759,1152"/></g><clipPath id="c" clipRule="evenodd" fill="transparent"><use href="#t4702"/></clipPath></defs><svg viewBox="724 1151 45 37" preserveAspectRatio="xMinYMin meet"><svg width="4380" height="2430"><g><image crossorigin="anonymous" x="0" y="0" href="https://nftpuzzle.license-token.com/assets/completepuzzle.svg" width="100%" height="100%" /><g class="links"><use href="#t4702"/></g></g></svg><svg x="754" y="1173" height="9%" width="9%" viewBox="0 0 330 330"><g><a xlink:href="https://nftpuzzle.license-token.com/" class="links"><title>See the most innovative NFT based token software licensing project</title><path fill="#E4CF37" id="more" d="M165,0C74.019,0,0,74.019,0,165s74.019,165,165,165s165-74.019,165-165S255.981,0,165,0z M85,190 c-13.785,0-25-11.215-25-25s11.215-25,25-25s25,11.215,25,25S98.785,190,85,190z M165,190c-13.785,0-25-11.215-25-25 s11.215-25,25-25s25,11.215,25,25S178.785,190,165,190z M245,190c-13.785,0-25-11.215-25-25s11.215-25,25-25 c13.785,0,25,11.215,25,25S258.785,190,245,190z"></path></a></g></svg></svg></svg>