<svg version="1.1" xmlns="http://www.w3.org/2000/svg" xmlns:xlink="http://www.w3.org/1999/xlink" fill="transparent" x="0" y="0" width="350" height="350" preserveAspectRatio="xMinYMin slice"><style type="text/css">.links{fill:transparent;stroke: #E4CF37;}.links:hover{fill:#63D272; opacity:0.4;}</style><defs><g id="allt"><path id="t4709" d="M990,1152 L978,1152 C967,1152 983,1148 972,1147 C961,1147 976,1154 966,1153 L957,1152 957,1152 L959,1162 C961,1172 953,1156 951,1166 C950,1176 958,1166 957,1175 L957,1184 957,1184 L967,1186 C977,1188 961,1180 971,1178 C982,1177 971,1185 980,1184 L990,1184 990,1184 L992,1173 C994,1163 985,1178 985,1169 C986,1160 993,1173 991,1162 L990,1152"/></g><clipPath id="c" clipRule="evenodd" fill="transparent"><use href="#t4709"/></clipPath></defs><svg viewBox="949 1146 46 43" preserveAspectRatio="xMinYMin meet"><svg width="4380" height="2430"><g><image crossorigin="anonymous" x="0" y="0" href="https://nftpuzzle.license-token.com/assets/completepuzzle.svg" width="100%" height="100%" /><g class="links"><use href="#t4709"/></g></g></svg><svg x="980" y="1174" height="9%" width="9%" viewBox="0 0 330 330"><g><a xlink:href="https://nftpuzzle.license-token.com/" class="links"><title>See the most innovative NFT based token software licensing project</title><path fill="#E4CF37" id="more" d="M165,0C74.019,0,0,74.019,0,165s74.019,165,165,165s165-74.019,165-165S255.981,0,165,0z M85,190 c-13.785,0-25-11.215-25-25s11.215-25,25-25s25,11.215,25,25S98.785,190,85,190z M165,190c-13.785,0-25-11.215-25-25 s11.215-25,25-25s25,11.215,25,25S178.785,190,165,190z M245,190c-13.785,0-25-11.215-25-25s11.215-25,25-25 c13.785,0,25,11.215,25,25S258.785,190,245,190z"></path></a></g></svg></svg></svg>