<svg version="1.1" xmlns="http://www.w3.org/2000/svg" xmlns:xlink="http://www.w3.org/1999/xlink" fill="transparent" x="0" y="0" width="350" height="350" preserveAspectRatio="xMinYMin slice"><style type="text/css">.links{fill:transparent;stroke: #E4CF37;}.links:hover{fill:#63D272; opacity:0.4;}</style><defs><g id="allt"><path id="t4716" d="M1221,1152 L1211,1152 C1202,1152 1212,1157 1203,1156 C1194,1156 1206,1152 1197,1152 L1188,1152 1188,1152 L1186,1160 C1184,1169 1193,1158 1194,1168 C1195,1178 1186,1166 1187,1175 L1188,1184 1188,1184 L1197,1182 C1206,1180 1194,1189 1204,1190 C1215,1191 1202,1182 1211,1183 L1221,1184 1221,1184 L1221,1175 C1221,1166 1218,1177 1217,1167 C1217,1157 1222,1170 1221,1161 L1221,1152"/></g><clipPath id="c" clipRule="evenodd" fill="transparent"><use href="#t4716"/></clipPath></defs><svg viewBox="1183 1151 40 41" preserveAspectRatio="xMinYMin meet"><svg width="4380" height="2430"><g><image crossorigin="anonymous" x="0" y="0" href="https://nftpuzzle.license-token.com/assets/completepuzzle.svg" width="100%" height="100%" /><g class="links"><use href="#t4716"/></g></g></svg><svg x="1208" y="1177" height="9%" width="9%" viewBox="0 0 330 330"><g><a xlink:href="https://nftpuzzle.license-token.com/" class="links"><title>See the most innovative NFT based token software licensing project</title><path fill="#E4CF37" id="more" d="M165,0C74.019,0,0,74.019,0,165s74.019,165,165,165s165-74.019,165-165S255.981,0,165,0z M85,190 c-13.785,0-25-11.215-25-25s11.215-25,25-25s25,11.215,25,25S98.785,190,85,190z M165,190c-13.785,0-25-11.215-25-25 s11.215-25,25-25s25,11.215,25,25S178.785,190,165,190z M245,190c-13.785,0-25-11.215-25-25s11.215-25,25-25 c13.785,0,25,11.215,25,25S258.785,190,245,190z"></path></a></g></svg></svg></svg>