<svg version="1.1" xmlns="http://www.w3.org/2000/svg" xmlns:xlink="http://www.w3.org/1999/xlink" fill="transparent" x="0" y="0" width="350" height="350" preserveAspectRatio="xMinYMin slice"><style type="text/css">.links{fill:transparent;stroke: #E4CF37;}.links:hover{fill:#63D272; opacity:0.4;}</style><defs><g id="allt"><path id="t4722" d="M1419,1152 L1408,1151 C1398,1150 1412,1160 1403,1159 C1394,1158 1405,1151 1395,1151 L1386,1152 1386,1152 L1386,1162 C1386,1173 1393,1160 1392,1167 C1392,1174 1386,1163 1386,1173 L1386,1184 1386,1184 L1396,1184 C1407,1184 1394,1191 1401,1190 C1409,1190 1397,1184 1408,1184 L1419,1184 1419,1184 L1419,1174 C1419,1164 1429,1177 1427,1168 C1426,1160 1414,1171 1416,1161 L1419,1152"/></g><clipPath id="c" clipRule="evenodd" fill="transparent"><use href="#t4722"/></clipPath></defs><svg viewBox="1385 1149 45 43" preserveAspectRatio="xMinYMin meet"><svg width="4380" height="2430"><g><image crossorigin="anonymous" x="0" y="0" href="https://nftpuzzle.license-token.com/assets/completepuzzle.svg" width="100%" height="100%" /><g class="links"><use href="#t4722"/></g></g></svg><svg x="1415" y="1177" height="9%" width="9%" viewBox="0 0 330 330"><g><a xlink:href="https://nftpuzzle.license-token.com/" class="links"><title>See the most innovative NFT based token software licensing project</title><path fill="#E4CF37" id="more" d="M165,0C74.019,0,0,74.019,0,165s74.019,165,165,165s165-74.019,165-165S255.981,0,165,0z M85,190 c-13.785,0-25-11.215-25-25s11.215-25,25-25s25,11.215,25,25S98.785,190,85,190z M165,190c-13.785,0-25-11.215-25-25 s11.215-25,25-25s25,11.215,25,25S178.785,190,165,190z M245,190c-13.785,0-25-11.215-25-25s11.215-25,25-25 c13.785,0,25,11.215,25,25S258.785,190,245,190z"></path></a></g></svg></svg></svg>