<svg version="1.1" xmlns="http://www.w3.org/2000/svg" xmlns:xlink="http://www.w3.org/1999/xlink" fill="transparent" x="0" y="0" width="350" height="350" preserveAspectRatio="xMinYMin slice"><style type="text/css">.links{fill:transparent;stroke: #E4CF37;}.links:hover{fill:#63D272; opacity:0.4;}</style><defs><g id="allt"><path id="t4733" d="M1782,1152 L1771,1152 C1760,1153 1775,1148 1765,1146 C1755,1145 1771,1152 1760,1152 L1749,1152 1749,1152 L1748,1162 C1747,1172 1756,1160 1755,1168 C1754,1176 1748,1164 1748,1174 L1749,1184 1749,1184 L1759,1183 C1770,1182 1757,1191 1765,1190 C1774,1189 1762,1183 1772,1183 L1782,1184 1782,1184 L1782,1174 C1782,1165 1772,1174 1773,1165 C1775,1157 1783,1173 1782,1162 L1782,1152"/></g><clipPath id="c" clipRule="evenodd" fill="transparent"><use href="#t4733"/></clipPath></defs><svg viewBox="1746 1144 38 48" preserveAspectRatio="xMinYMin meet"><svg width="4380" height="2430"><g><image crossorigin="anonymous" x="0" y="0" href="https://nftpuzzle.license-token.com/assets/completepuzzle.svg" width="100%" height="100%" /><g class="links"><use href="#t4733"/></g></g></svg><svg x="1769" y="1177" height="9%" width="9%" viewBox="0 0 330 330"><g><a xlink:href="https://nftpuzzle.license-token.com/" class="links"><title>See the most innovative NFT based token software licensing project</title><path fill="#E4CF37" id="more" d="M165,0C74.019,0,0,74.019,0,165s74.019,165,165,165s165-74.019,165-165S255.981,0,165,0z M85,190 c-13.785,0-25-11.215-25-25s11.215-25,25-25s25,11.215,25,25S98.785,190,85,190z M165,190c-13.785,0-25-11.215-25-25 s11.215-25,25-25s25,11.215,25,25S178.785,190,165,190z M245,190c-13.785,0-25-11.215-25-25s11.215-25,25-25 c13.785,0,25,11.215,25,25S258.785,190,245,190z"></path></a></g></svg></svg></svg>