<svg version="1.1" xmlns="http://www.w3.org/2000/svg" xmlns:xlink="http://www.w3.org/1999/xlink" fill="transparent" x="0" y="0" width="350" height="350" preserveAspectRatio="xMinYMin slice"><style type="text/css">.links{fill:transparent;stroke: #E4CF37;}.links:hover{fill:#63D272; opacity:0.4;}</style><defs><g id="allt"><path id="t4735" d="M1848,1152 L1838,1152 C1829,1152 1840,1161 1829,1159 C1819,1158 1833,1152 1824,1152 L1815,1152 1815,1152 L1814,1162 C1814,1173 1821,1157 1821,1167 C1821,1178 1815,1165 1815,1174 L1815,1184 1815,1184 L1825,1183 C1836,1183 1820,1190 1831,1190 C1842,1190 1829,1184 1838,1184 L1848,1184 1848,1184 L1848,1173 C1848,1163 1857,1178 1856,1167 C1855,1157 1848,1172 1848,1162 L1848,1152"/></g><clipPath id="c" clipRule="evenodd" fill="transparent"><use href="#t4735"/></clipPath></defs><svg viewBox="1813 1151 45 40" preserveAspectRatio="xMinYMin meet"><svg width="4380" height="2430"><g><image crossorigin="anonymous" x="0" y="0" href="https://nftpuzzle.license-token.com/assets/completepuzzle.svg" width="100%" height="100%" /><g class="links"><use href="#t4735"/></g></g></svg><svg x="1843" y="1176" height="9%" width="9%" viewBox="0 0 330 330"><g><a xlink:href="https://nftpuzzle.license-token.com/" class="links"><title>See the most innovative NFT based token software licensing project</title><path fill="#E4CF37" id="more" d="M165,0C74.019,0,0,74.019,0,165s74.019,165,165,165s165-74.019,165-165S255.981,0,165,0z M85,190 c-13.785,0-25-11.215-25-25s11.215-25,25-25s25,11.215,25,25S98.785,190,85,190z M165,190c-13.785,0-25-11.215-25-25 s11.215-25,25-25s25,11.215,25,25S178.785,190,165,190z M245,190c-13.785,0-25-11.215-25-25s11.215-25,25-25 c13.785,0,25,11.215,25,25S258.785,190,245,190z"></path></a></g></svg></svg></svg>