<svg version="1.1" xmlns="http://www.w3.org/2000/svg" xmlns:xlink="http://www.w3.org/1999/xlink" fill="transparent" x="0" y="0" width="350" height="350" preserveAspectRatio="xMinYMin slice"><style type="text/css">.links{fill:transparent;stroke: #E4CF37;}.links:hover{fill:#63D272; opacity:0.4;}</style><defs><g id="allt"><path id="t4738" d="M1947,1152 L1937,1153 C1927,1154 1941,1145 1931,1144 C1921,1143 1936,1154 1925,1153 L1914,1152 1914,1152 L1915,1162 C1916,1172 1903,1157 1904,1166 C1906,1176 1917,1163 1915,1173 L1914,1184 1914,1184 L1924,1185 C1935,1186 1919,1174 1928,1175 C1938,1176 1925,1187 1936,1185 L1947,1184 1947,1184 L1949,1174 C1952,1165 1941,1178 1940,1169 C1939,1161 1952,1171 1949,1161 L1947,1152"/></g><clipPath id="c" clipRule="evenodd" fill="transparent"><use href="#t4738"/></clipPath></defs><svg viewBox="1902 1142 51 46" preserveAspectRatio="xMinYMin meet"><svg width="4380" height="2430"><g><image crossorigin="anonymous" x="0" y="0" href="https://nftpuzzle.license-token.com/assets/completepuzzle.svg" width="100%" height="100%" /><g class="links"><use href="#t4738"/></g></g></svg><svg x="1938" y="1173" height="9%" width="9%" viewBox="0 0 330 330"><g><a xlink:href="https://nftpuzzle.license-token.com/" class="links"><title>See the most innovative NFT based token software licensing project</title><path fill="#E4CF37" id="more" d="M165,0C74.019,0,0,74.019,0,165s74.019,165,165,165s165-74.019,165-165S255.981,0,165,0z M85,190 c-13.785,0-25-11.215-25-25s11.215-25,25-25s25,11.215,25,25S98.785,190,85,190z M165,190c-13.785,0-25-11.215-25-25 s11.215-25,25-25s25,11.215,25,25S178.785,190,165,190z M245,190c-13.785,0-25-11.215-25-25s11.215-25,25-25 c13.785,0,25,11.215,25,25S258.785,190,245,190z"></path></a></g></svg></svg></svg>