<svg version="1.1" xmlns="http://www.w3.org/2000/svg" xmlns:xlink="http://www.w3.org/1999/xlink" fill="transparent" x="0" y="0" width="350" height="350" preserveAspectRatio="xMinYMin slice"><style type="text/css">.links{fill:transparent;stroke: #E4CF37;}.links:hover{fill:#63D272; opacity:0.4;}</style><defs><g id="allt"><path id="t4739" d="M1980,1152 L1969,1152 C1958,1152 1971,1147 1962,1147 C1954,1148 1966,1152 1956,1152 L1947,1152 1947,1152 L1949,1161 C1952,1171 1939,1161 1940,1169 C1941,1178 1952,1165 1949,1174 L1947,1184 1947,1184 L1957,1186 C1967,1189 1956,1176 1965,1177 C1974,1178 1961,1189 1970,1186 L1980,1184 1980,1184 L1980,1174 C1980,1165 1973,1177 1974,1169 C1975,1161 1983,1169 1981,1160 L1980,1152"/></g><clipPath id="c" clipRule="evenodd" fill="transparent"><use href="#t4739"/></clipPath></defs><svg viewBox="1938 1146 46 44" preserveAspectRatio="xMinYMin meet"><svg width="4380" height="2430"><g><image crossorigin="anonymous" x="0" y="0" href="https://nftpuzzle.license-token.com/assets/completepuzzle.svg" width="100%" height="100%" /><g class="links"><use href="#t4739"/></g></g></svg><svg x="1969" y="1175" height="9%" width="9%" viewBox="0 0 330 330"><g><a xlink:href="https://nftpuzzle.license-token.com/" class="links"><title>See the most innovative NFT based token software licensing project</title><path fill="#E4CF37" id="more" d="M165,0C74.019,0,0,74.019,0,165s74.019,165,165,165s165-74.019,165-165S255.981,0,165,0z M85,190 c-13.785,0-25-11.215-25-25s11.215-25,25-25s25,11.215,25,25S98.785,190,85,190z M165,190c-13.785,0-25-11.215-25-25 s11.215-25,25-25s25,11.215,25,25S178.785,190,165,190z M245,190c-13.785,0-25-11.215-25-25s11.215-25,25-25 c13.785,0,25,11.215,25,25S258.785,190,245,190z"></path></a></g></svg></svg></svg>