<svg version="1.1" xmlns="http://www.w3.org/2000/svg" xmlns:xlink="http://www.w3.org/1999/xlink" fill="transparent" x="0" y="0" width="350" height="350" preserveAspectRatio="xMinYMin slice"><style type="text/css">.links{fill:transparent;stroke: #E4CF37;}.links:hover{fill:#63D272; opacity:0.4;}</style><defs><g id="allt"><path id="t474" d="M2805,96 L2793,96 C2782,96 2798,93 2788,92 C2779,91 2790,96 2781,96 L2772,96 2772,96 L2772,105 C2773,114 2762,104 2761,111 C2761,119 2773,109 2772,118 L2772,128 2772,128 L2781,128 C2791,129 2780,118 2787,117 C2795,117 2786,129 2795,128 L2805,128 2805,128 L2805,117 C2805,107 2796,120 2797,111 C2799,102 2809,113 2807,104 L2805,96"/></g><clipPath id="c" clipRule="evenodd" fill="transparent"><use href="#t474"/></clipPath></defs><svg viewBox="2760 90 50 40" preserveAspectRatio="xMinYMin meet"><svg width="4380" height="2430"><g><image crossorigin="anonymous" x="0" y="0" href="https://nftpuzzle.license-token.com/assets/completepuzzle.svg" width="100%" height="100%" /><g class="links"><use href="#t474"/></g></g></svg><svg x="2795" y="115" height="9%" width="9%" viewBox="0 0 330 330"><g><a xlink:href="https://nftpuzzle.license-token.com/" class="links"><title>See the most innovative NFT based token software licensing project</title><path fill="#E4CF37" id="more" d="M165,0C74.019,0,0,74.019,0,165s74.019,165,165,165s165-74.019,165-165S255.981,0,165,0z M85,190 c-13.785,0-25-11.215-25-25s11.215-25,25-25s25,11.215,25,25S98.785,190,85,190z M165,190c-13.785,0-25-11.215-25-25 s11.215-25,25-25s25,11.215,25,25S178.785,190,165,190z M245,190c-13.785,0-25-11.215-25-25s11.215-25,25-25 c13.785,0,25,11.215,25,25S258.785,190,245,190z"></path></a></g></svg></svg></svg>