<svg version="1.1" xmlns="http://www.w3.org/2000/svg" xmlns:xlink="http://www.w3.org/1999/xlink" fill="transparent" x="0" y="0" width="350" height="350" preserveAspectRatio="xMinYMin slice"><style type="text/css">.links{fill:transparent;stroke: #E4CF37;}.links:hover{fill:#63D272; opacity:0.4;}</style><defs><g id="allt"><path id="t4750" d="M2343,1152 L2331,1150 C2320,1149 2338,1159 2328,1160 C2318,1161 2329,1152 2319,1152 L2310,1152 2310,1152 L2309,1161 C2308,1170 2321,1156 2318,1166 C2315,1177 2308,1164 2309,1174 L2310,1184 2310,1184 L2319,1183 C2329,1182 2314,1195 2325,1192 C2336,1189 2323,1182 2333,1183 L2343,1184 2343,1184 L2344,1175 C2345,1166 2337,1178 2335,1168 C2334,1159 2347,1170 2345,1161 L2343,1152"/></g><clipPath id="c" clipRule="evenodd" fill="transparent"><use href="#t4750"/></clipPath></defs><svg viewBox="2307 1148 41 48" preserveAspectRatio="xMinYMin meet"><svg width="4380" height="2430"><g><image crossorigin="anonymous" x="0" y="0" href="https://nftpuzzle.license-token.com/assets/completepuzzle.svg" width="100%" height="100%" /><g class="links"><use href="#t4750"/></g></g></svg><svg x="2333" y="1181" height="9%" width="9%" viewBox="0 0 330 330"><g><a xlink:href="https://nftpuzzle.license-token.com/" class="links"><title>See the most innovative NFT based token software licensing project</title><path fill="#E4CF37" id="more" d="M165,0C74.019,0,0,74.019,0,165s74.019,165,165,165s165-74.019,165-165S255.981,0,165,0z M85,190 c-13.785,0-25-11.215-25-25s11.215-25,25-25s25,11.215,25,25S98.785,190,85,190z M165,190c-13.785,0-25-11.215-25-25 s11.215-25,25-25s25,11.215,25,25S178.785,190,165,190z M245,190c-13.785,0-25-11.215-25-25s11.215-25,25-25 c13.785,0,25,11.215,25,25S258.785,190,245,190z"></path></a></g></svg></svg></svg>