<svg version="1.1" xmlns="http://www.w3.org/2000/svg" xmlns:xlink="http://www.w3.org/1999/xlink" fill="transparent" x="0" y="0" width="350" height="350" preserveAspectRatio="xMinYMin slice"><style type="text/css">.links{fill:transparent;stroke: #E4CF37;}.links:hover{fill:#63D272; opacity:0.4;}</style><defs><g id="allt"><path id="t4754" d="M2475,1152 L2465,1154 C2456,1157 2469,1143 2460,1143 C2451,1144 2463,1156 2452,1154 L2442,1152 2442,1152 L2441,1162 C2440,1172 2448,1160 2447,1167 C2447,1175 2442,1166 2442,1175 L2442,1184 2442,1184 L2452,1183 C2463,1182 2450,1190 2458,1189 C2466,1189 2456,1184 2465,1184 L2475,1184 2475,1184 L2476,1173 C2477,1163 2471,1175 2469,1166 C2467,1157 2477,1171 2476,1161 L2475,1152"/></g><clipPath id="c" clipRule="evenodd" fill="transparent"><use href="#t4754"/></clipPath></defs><svg viewBox="2439 1142 39 49" preserveAspectRatio="xMinYMin meet"><svg width="4380" height="2430"><g><image crossorigin="anonymous" x="0" y="0" href="https://nftpuzzle.license-token.com/assets/completepuzzle.svg" width="100%" height="100%" /><g class="links"><use href="#t4754"/></g></g></svg><svg x="2463" y="1176" height="9%" width="9%" viewBox="0 0 330 330"><g><a xlink:href="https://nftpuzzle.license-token.com/" class="links"><title>See the most innovative NFT based token software licensing project</title><path fill="#E4CF37" id="more" d="M165,0C74.019,0,0,74.019,0,165s74.019,165,165,165s165-74.019,165-165S255.981,0,165,0z M85,190 c-13.785,0-25-11.215-25-25s11.215-25,25-25s25,11.215,25,25S98.785,190,85,190z M165,190c-13.785,0-25-11.215-25-25 s11.215-25,25-25s25,11.215,25,25S178.785,190,165,190z M245,190c-13.785,0-25-11.215-25-25s11.215-25,25-25 c13.785,0,25,11.215,25,25S258.785,190,245,190z"></path></a></g></svg></svg></svg>