<svg version="1.1" xmlns="http://www.w3.org/2000/svg" xmlns:xlink="http://www.w3.org/1999/xlink" fill="transparent" x="0" y="0" width="350" height="350" preserveAspectRatio="xMinYMin slice"><style type="text/css">.links{fill:transparent;stroke: #E4CF37;}.links:hover{fill:#63D272; opacity:0.4;}</style><defs><g id="allt"><path id="t4756" d="M2541,1152 L2531,1154 C2522,1156 2534,1142 2524,1143 C2514,1144 2527,1156 2517,1154 L2508,1152 2508,1152 L2507,1162 C2507,1172 2512,1160 2512,1168 C2512,1176 2508,1163 2508,1173 L2508,1184 2508,1184 L2518,1183 C2529,1183 2517,1188 2525,1188 C2533,1188 2519,1184 2530,1184 L2541,1184 2541,1184 L2541,1175 C2542,1166 2533,1177 2534,1168 C2536,1160 2541,1173 2541,1162 L2541,1152"/></g><clipPath id="c" clipRule="evenodd" fill="transparent"><use href="#t4756"/></clipPath></defs><svg viewBox="2506 1141 37 48" preserveAspectRatio="xMinYMin meet"><svg width="4380" height="2430"><g><image crossorigin="anonymous" x="0" y="0" href="https://nftpuzzle.license-token.com/assets/completepuzzle.svg" width="100%" height="100%" /><g class="links"><use href="#t4756"/></g></g></svg><svg x="2528" y="1174" height="9%" width="9%" viewBox="0 0 330 330"><g><a xlink:href="https://nftpuzzle.license-token.com/" class="links"><title>See the most innovative NFT based token software licensing project</title><path fill="#E4CF37" id="more" d="M165,0C74.019,0,0,74.019,0,165s74.019,165,165,165s165-74.019,165-165S255.981,0,165,0z M85,190 c-13.785,0-25-11.215-25-25s11.215-25,25-25s25,11.215,25,25S98.785,190,85,190z M165,190c-13.785,0-25-11.215-25-25 s11.215-25,25-25s25,11.215,25,25S178.785,190,165,190z M245,190c-13.785,0-25-11.215-25-25s11.215-25,25-25 c13.785,0,25,11.215,25,25S258.785,190,245,190z"></path></a></g></svg></svg></svg>