<svg version="1.1" xmlns="http://www.w3.org/2000/svg" xmlns:xlink="http://www.w3.org/1999/xlink" fill="transparent" x="0" y="0" width="350" height="350" preserveAspectRatio="xMinYMin slice"><style type="text/css">.links{fill:transparent;stroke: #E4CF37;}.links:hover{fill:#63D272; opacity:0.4;}</style><defs><g id="allt"><path id="t4759" d="M2640,1152 L2630,1152 C2621,1152 2630,1143 2622,1144 C2614,1146 2628,1155 2617,1153 L2607,1152 2607,1152 L2607,1161 C2608,1171 2601,1160 2601,1168 C2602,1176 2607,1165 2607,1174 L2607,1184 2607,1184 L2616,1184 C2626,1185 2615,1178 2623,1178 C2631,1179 2620,1184 2630,1184 L2640,1184 2640,1184 L2640,1174 C2640,1165 2629,1178 2632,1168 C2635,1159 2640,1173 2640,1162 L2640,1152"/></g><clipPath id="c" clipRule="evenodd" fill="transparent"><use href="#t4759"/></clipPath></defs><svg viewBox="2600 1142 41 44" preserveAspectRatio="xMinYMin meet"><svg width="4380" height="2430"><g><image crossorigin="anonymous" x="0" y="0" href="https://nftpuzzle.license-token.com/assets/completepuzzle.svg" width="100%" height="100%" /><g class="links"><use href="#t4759"/></g></g></svg><svg x="2626" y="1171" height="9%" width="9%" viewBox="0 0 330 330"><g><a xlink:href="https://nftpuzzle.license-token.com/" class="links"><title>See the most innovative NFT based token software licensing project</title><path fill="#E4CF37" id="more" d="M165,0C74.019,0,0,74.019,0,165s74.019,165,165,165s165-74.019,165-165S255.981,0,165,0z M85,190 c-13.785,0-25-11.215-25-25s11.215-25,25-25s25,11.215,25,25S98.785,190,85,190z M165,190c-13.785,0-25-11.215-25-25 s11.215-25,25-25s25,11.215,25,25S178.785,190,165,190z M245,190c-13.785,0-25-11.215-25-25s11.215-25,25-25 c13.785,0,25,11.215,25,25S258.785,190,245,190z"></path></a></g></svg></svg></svg>