<svg version="1.1" xmlns="http://www.w3.org/2000/svg" xmlns:xlink="http://www.w3.org/1999/xlink" fill="transparent" x="0" y="0" width="350" height="350" preserveAspectRatio="xMinYMin slice"><style type="text/css">.links{fill:transparent;stroke: #E4CF37;}.links:hover{fill:#63D272; opacity:0.4;}</style><defs><g id="allt"><path id="t4760" d="M2673,1152 L2662,1152 C2651,1152 2665,1146 2656,1145 C2647,1145 2659,1152 2649,1152 L2640,1152 2640,1152 L2640,1162 C2640,1173 2635,1159 2632,1168 C2629,1178 2640,1165 2640,1174 L2640,1184 2640,1184 L2650,1184 C2661,1184 2647,1179 2657,1176 C2667,1173 2653,1184 2663,1184 L2673,1184 2673,1184 L2673,1174 C2673,1165 2669,1178 2669,1169 C2670,1160 2673,1171 2673,1161 L2673,1152"/></g><clipPath id="c" clipRule="evenodd" fill="transparent"><use href="#t4760"/></clipPath></defs><svg viewBox="2628 1144 46 41" preserveAspectRatio="xMinYMin meet"><svg width="4380" height="2430"><g><image crossorigin="anonymous" x="0" y="0" href="https://nftpuzzle.license-token.com/assets/completepuzzle.svg" width="100%" height="100%" /><g class="links"><use href="#t4760"/></g></g></svg><svg x="2659" y="1170" height="9%" width="9%" viewBox="0 0 330 330"><g><a xlink:href="https://nftpuzzle.license-token.com/" class="links"><title>See the most innovative NFT based token software licensing project</title><path fill="#E4CF37" id="more" d="M165,0C74.019,0,0,74.019,0,165s74.019,165,165,165s165-74.019,165-165S255.981,0,165,0z M85,190 c-13.785,0-25-11.215-25-25s11.215-25,25-25s25,11.215,25,25S98.785,190,85,190z M165,190c-13.785,0-25-11.215-25-25 s11.215-25,25-25s25,11.215,25,25S178.785,190,165,190z M245,190c-13.785,0-25-11.215-25-25s11.215-25,25-25 c13.785,0,25,11.215,25,25S258.785,190,245,190z"></path></a></g></svg></svg></svg>