<svg version="1.1" xmlns="http://www.w3.org/2000/svg" xmlns:xlink="http://www.w3.org/1999/xlink" fill="transparent" x="0" y="0" width="350" height="350" preserveAspectRatio="xMinYMin slice"><style type="text/css">.links{fill:transparent;stroke: #E4CF37;}.links:hover{fill:#63D272; opacity:0.4;}</style><defs><g id="allt"><path id="t4765" d="M2838,1152 L2828,1152 C2818,1152 2832,1145 2822,1146 C2813,1147 2827,1152 2816,1152 L2805,1152 2805,1152 L2805,1161 C2806,1171 2802,1158 2801,1168 C2800,1178 2806,1165 2805,1174 L2805,1184 2805,1184 L2815,1184 C2825,1185 2811,1181 2821,1180 C2832,1179 2818,1185 2828,1184 L2838,1184 2838,1184 L2838,1174 C2838,1165 2833,1175 2832,1166 C2831,1157 2839,1172 2838,1162 L2838,1152"/></g><clipPath id="c" clipRule="evenodd" fill="transparent"><use href="#t4765"/></clipPath></defs><svg viewBox="2799 1144 41 42" preserveAspectRatio="xMinYMin meet"><svg width="4380" height="2430"><g><image crossorigin="anonymous" x="0" y="0" href="https://nftpuzzle.license-token.com/assets/completepuzzle.svg" width="100%" height="100%" /><g class="links"><use href="#t4765"/></g></g></svg><svg x="2825" y="1171" height="9%" width="9%" viewBox="0 0 330 330"><g><a xlink:href="https://nftpuzzle.license-token.com/" class="links"><title>See the most innovative NFT based token software licensing project</title><path fill="#E4CF37" id="more" d="M165,0C74.019,0,0,74.019,0,165s74.019,165,165,165s165-74.019,165-165S255.981,0,165,0z M85,190 c-13.785,0-25-11.215-25-25s11.215-25,25-25s25,11.215,25,25S98.785,190,85,190z M165,190c-13.785,0-25-11.215-25-25 s11.215-25,25-25s25,11.215,25,25S178.785,190,165,190z M245,190c-13.785,0-25-11.215-25-25s11.215-25,25-25 c13.785,0,25,11.215,25,25S258.785,190,245,190z"></path></a></g></svg></svg></svg>