<svg version="1.1" xmlns="http://www.w3.org/2000/svg" xmlns:xlink="http://www.w3.org/1999/xlink" fill="transparent" x="0" y="0" width="350" height="350" preserveAspectRatio="xMinYMin slice"><style type="text/css">.links{fill:transparent;stroke: #E4CF37;}.links:hover{fill:#63D272; opacity:0.4;}</style><defs><g id="allt"><path id="t4767" d="M2904,1152 L2894,1152 C2885,1153 2894,1144 2887,1145 C2880,1146 2889,1152 2880,1152 L2871,1152 2871,1152 L2871,1162 C2871,1172 2863,1157 2865,1166 C2867,1175 2874,1164 2872,1174 L2871,1184 2871,1184 L2881,1184 C2892,1184 2876,1176 2885,1178 C2895,1180 2883,1187 2893,1185 L2904,1184 2904,1184 L2904,1173 C2905,1163 2895,1178 2896,1168 C2898,1158 2908,1172 2906,1162 L2904,1152"/></g><clipPath id="c" clipRule="evenodd" fill="transparent"><use href="#t4767"/></clipPath></defs><svg viewBox="2862 1143 47 45" preserveAspectRatio="xMinYMin meet"><svg width="4380" height="2430"><g><image crossorigin="anonymous" x="0" y="0" href="https://nftpuzzle.license-token.com/assets/completepuzzle.svg" width="100%" height="100%" /><g class="links"><use href="#t4767"/></g></g></svg><svg x="2894" y="1173" height="9%" width="9%" viewBox="0 0 330 330"><g><a xlink:href="https://nftpuzzle.license-token.com/" class="links"><title>See the most innovative NFT based token software licensing project</title><path fill="#E4CF37" id="more" d="M165,0C74.019,0,0,74.019,0,165s74.019,165,165,165s165-74.019,165-165S255.981,0,165,0z M85,190 c-13.785,0-25-11.215-25-25s11.215-25,25-25s25,11.215,25,25S98.785,190,85,190z M165,190c-13.785,0-25-11.215-25-25 s11.215-25,25-25s25,11.215,25,25S178.785,190,165,190z M245,190c-13.785,0-25-11.215-25-25s11.215-25,25-25 c13.785,0,25,11.215,25,25S258.785,190,245,190z"></path></a></g></svg></svg></svg>