<svg version="1.1" xmlns="http://www.w3.org/2000/svg" xmlns:xlink="http://www.w3.org/1999/xlink" fill="transparent" x="0" y="0" width="350" height="350" preserveAspectRatio="xMinYMin slice"><style type="text/css">.links{fill:transparent;stroke: #E4CF37;}.links:hover{fill:#63D272; opacity:0.4;}</style><defs><g id="allt"><path id="t4769" d="M2970,1152 L2959,1151 C2949,1151 2961,1147 2951,1146 C2942,1146 2959,1155 2948,1153 L2937,1152 2937,1152 L2937,1161 C2937,1170 2949,1160 2947,1168 C2946,1177 2934,1162 2935,1173 L2937,1184 2937,1184 L2946,1184 C2956,1184 2945,1196 2954,1194 C2963,1192 2947,1181 2958,1182 L2970,1184 2970,1184 L2970,1174 C2970,1164 2968,1174 2968,1166 C2968,1158 2971,1172 2970,1162 L2970,1152"/></g><clipPath id="c" clipRule="evenodd" fill="transparent"><use href="#t4769"/></clipPath></defs><svg viewBox="2933 1145 39 52" preserveAspectRatio="xMinYMin meet"><svg width="4380" height="2430"><g><image crossorigin="anonymous" x="0" y="0" href="https://nftpuzzle.license-token.com/assets/completepuzzle.svg" width="100%" height="100%" /><g class="links"><use href="#t4769"/></g></g></svg><svg x="2957" y="1182" height="9%" width="9%" viewBox="0 0 330 330"><g><a xlink:href="https://nftpuzzle.license-token.com/" class="links"><title>See the most innovative NFT based token software licensing project</title><path fill="#E4CF37" id="more" d="M165,0C74.019,0,0,74.019,0,165s74.019,165,165,165s165-74.019,165-165S255.981,0,165,0z M85,190 c-13.785,0-25-11.215-25-25s11.215-25,25-25s25,11.215,25,25S98.785,190,85,190z M165,190c-13.785,0-25-11.215-25-25 s11.215-25,25-25s25,11.215,25,25S178.785,190,165,190z M245,190c-13.785,0-25-11.215-25-25s11.215-25,25-25 c13.785,0,25,11.215,25,25S258.785,190,245,190z"></path></a></g></svg></svg></svg>