<svg version="1.1" xmlns="http://www.w3.org/2000/svg" xmlns:xlink="http://www.w3.org/1999/xlink" fill="transparent" x="0" y="0" width="350" height="350" preserveAspectRatio="xMinYMin slice"><style type="text/css">.links{fill:transparent;stroke: #E4CF37;}.links:hover{fill:#63D272; opacity:0.4;}</style><defs><g id="allt"><path id="t4771" d="M3036,1152 L3025,1152 C3015,1152 3026,1150 3017,1149 C3008,1149 3023,1152 3013,1152 L3003,1152 3003,1152 L3004,1161 C3005,1170 2997,1159 2997,1167 C2998,1176 3006,1162 3004,1173 L3003,1184 3003,1184 L3012,1185 C3022,1186 3010,1178 3019,1178 C3028,1179 3013,1187 3024,1185 L3036,1184 3036,1184 L3036,1174 C3036,1164 3032,1175 3031,1166 C3031,1158 3038,1170 3037,1161 L3036,1152"/></g><clipPath id="c" clipRule="evenodd" fill="transparent"><use href="#t4771"/></clipPath></defs><svg viewBox="2996 1148 43 40" preserveAspectRatio="xMinYMin meet"><svg width="4380" height="2430"><g><image crossorigin="anonymous" x="0" y="0" href="https://nftpuzzle.license-token.com/assets/completepuzzle.svg" width="100%" height="100%" /><g class="links"><use href="#t4771"/></g></g></svg><svg x="3024" y="1173" height="9%" width="9%" viewBox="0 0 330 330"><g><a xlink:href="https://nftpuzzle.license-token.com/" class="links"><title>See the most innovative NFT based token software licensing project</title><path fill="#E4CF37" id="more" d="M165,0C74.019,0,0,74.019,0,165s74.019,165,165,165s165-74.019,165-165S255.981,0,165,0z M85,190 c-13.785,0-25-11.215-25-25s11.215-25,25-25s25,11.215,25,25S98.785,190,85,190z M165,190c-13.785,0-25-11.215-25-25 s11.215-25,25-25s25,11.215,25,25S178.785,190,165,190z M245,190c-13.785,0-25-11.215-25-25s11.215-25,25-25 c13.785,0,25,11.215,25,25S258.785,190,245,190z"></path></a></g></svg></svg></svg>