<svg version="1.1" xmlns="http://www.w3.org/2000/svg" xmlns:xlink="http://www.w3.org/1999/xlink" fill="transparent" x="0" y="0" width="350" height="350" preserveAspectRatio="xMinYMin slice"><style type="text/css">.links{fill:transparent;stroke: #E4CF37;}.links:hover{fill:#63D272; opacity:0.4;}</style><defs><g id="allt"><path id="t4778" d="M3267,1152 L3257,1153 C3247,1155 3262,1144 3252,1145 C3242,1147 3254,1152 3244,1152 L3234,1152 3234,1152 L3232,1161 C3231,1171 3240,1158 3240,1167 C3241,1176 3234,1163 3234,1173 L3234,1184 3234,1184 L3244,1182 C3254,1181 3240,1190 3249,1190 C3258,1191 3245,1184 3256,1184 L3267,1184 3267,1184 L3267,1174 C3267,1165 3262,1176 3261,1168 C3260,1161 3267,1171 3267,1161 L3267,1152"/></g><clipPath id="c" clipRule="evenodd" fill="transparent"><use href="#t4778"/></clipPath></defs><svg viewBox="3230 1143 38 49" preserveAspectRatio="xMinYMin meet"><svg width="4380" height="2430"><g><image crossorigin="anonymous" x="0" y="0" href="https://nftpuzzle.license-token.com/assets/completepuzzle.svg" width="100%" height="100%" /><g class="links"><use href="#t4778"/></g></g></svg><svg x="3253" y="1177" height="9%" width="9%" viewBox="0 0 330 330"><g><a xlink:href="https://nftpuzzle.license-token.com/" class="links"><title>See the most innovative NFT based token software licensing project</title><path fill="#E4CF37" id="more" d="M165,0C74.019,0,0,74.019,0,165s74.019,165,165,165s165-74.019,165-165S255.981,0,165,0z M85,190 c-13.785,0-25-11.215-25-25s11.215-25,25-25s25,11.215,25,25S98.785,190,85,190z M165,190c-13.785,0-25-11.215-25-25 s11.215-25,25-25s25,11.215,25,25S178.785,190,165,190z M245,190c-13.785,0-25-11.215-25-25s11.215-25,25-25 c13.785,0,25,11.215,25,25S258.785,190,245,190z"></path></a></g></svg></svg></svg>