<svg version="1.1" xmlns="http://www.w3.org/2000/svg" xmlns:xlink="http://www.w3.org/1999/xlink" fill="transparent" x="0" y="0" width="350" height="350" preserveAspectRatio="xMinYMin slice"><style type="text/css">.links{fill:transparent;stroke: #E4CF37;}.links:hover{fill:#63D272; opacity:0.4;}</style><defs><g id="allt"><path id="t4779" d="M3300,1152 L3289,1152 C3278,1152 3295,1146 3285,1147 C3275,1149 3285,1154 3276,1153 L3267,1152 3267,1152 L3267,1161 C3267,1171 3260,1161 3261,1168 C3262,1176 3267,1165 3267,1174 L3267,1184 3267,1184 L3277,1184 C3287,1184 3276,1177 3284,1178 C3292,1179 3281,1184 3290,1184 L3300,1184 3300,1184 L3300,1174 C3300,1165 3302,1176 3303,1168 C3304,1160 3300,1171 3300,1161 L3300,1152"/></g><clipPath id="c" clipRule="evenodd" fill="transparent"><use href="#t4779"/></clipPath></defs><svg viewBox="3259 1145 46 40" preserveAspectRatio="xMinYMin meet"><svg width="4380" height="2430"><g><image crossorigin="anonymous" x="0" y="0" href="https://nftpuzzle.license-token.com/assets/completepuzzle.svg" width="100%" height="100%" /><g class="links"><use href="#t4779"/></g></g></svg><svg x="3290" y="1170" height="9%" width="9%" viewBox="0 0 330 330"><g><a xlink:href="https://nftpuzzle.license-token.com/" class="links"><title>See the most innovative NFT based token software licensing project</title><path fill="#E4CF37" id="more" d="M165,0C74.019,0,0,74.019,0,165s74.019,165,165,165s165-74.019,165-165S255.981,0,165,0z M85,190 c-13.785,0-25-11.215-25-25s11.215-25,25-25s25,11.215,25,25S98.785,190,85,190z M165,190c-13.785,0-25-11.215-25-25 s11.215-25,25-25s25,11.215,25,25S178.785,190,165,190z M245,190c-13.785,0-25-11.215-25-25s11.215-25,25-25 c13.785,0,25,11.215,25,25S258.785,190,245,190z"></path></a></g></svg></svg></svg>