<svg version="1.1" xmlns="http://www.w3.org/2000/svg" xmlns:xlink="http://www.w3.org/1999/xlink" fill="transparent" x="0" y="0" width="350" height="350" preserveAspectRatio="xMinYMin slice"><style type="text/css">.links{fill:transparent;stroke: #E4CF37;}.links:hover{fill:#63D272; opacity:0.4;}</style><defs><g id="allt"><path id="t4789" d="M3630,1152 L3620,1152 C3610,1152 3621,1157 3612,1156 C3604,1155 3617,1150 3607,1151 L3597,1152 3597,1152 L3595,1161 C3593,1170 3609,1161 3606,1170 C3603,1179 3595,1165 3596,1174 L3597,1184 3597,1184 L3606,1182 C3616,1180 3606,1195 3615,1192 C3625,1190 3610,1182 3620,1183 L3630,1184 3630,1184 L3630,1173 C3630,1162 3634,1176 3634,1166 C3634,1157 3629,1169 3629,1160 L3630,1152"/></g><clipPath id="c" clipRule="evenodd" fill="transparent"><use href="#t4789"/></clipPath></defs><svg viewBox="3592 1149 43 47" preserveAspectRatio="xMinYMin meet"><svg width="4380" height="2430"><g><image crossorigin="anonymous" x="0" y="0" href="https://nftpuzzle.license-token.com/assets/completepuzzle.svg" width="100%" height="100%" /><g class="links"><use href="#t4789"/></g></g></svg><svg x="3620" y="1181" height="9%" width="9%" viewBox="0 0 330 330"><g><a xlink:href="https://nftpuzzle.license-token.com/" class="links"><title>See the most innovative NFT based token software licensing project</title><path fill="#E4CF37" id="more" d="M165,0C74.019,0,0,74.019,0,165s74.019,165,165,165s165-74.019,165-165S255.981,0,165,0z M85,190 c-13.785,0-25-11.215-25-25s11.215-25,25-25s25,11.215,25,25S98.785,190,85,190z M165,190c-13.785,0-25-11.215-25-25 s11.215-25,25-25s25,11.215,25,25S178.785,190,165,190z M245,190c-13.785,0-25-11.215-25-25s11.215-25,25-25 c13.785,0,25,11.215,25,25S258.785,190,245,190z"></path></a></g></svg></svg></svg>