<svg version="1.1" xmlns="http://www.w3.org/2000/svg" xmlns:xlink="http://www.w3.org/1999/xlink" fill="transparent" x="0" y="0" width="350" height="350" preserveAspectRatio="xMinYMin slice"><style type="text/css">.links{fill:transparent;stroke: #E4CF37;}.links:hover{fill:#63D272; opacity:0.4;}</style><defs><g id="allt"><path id="t4790" d="M3663,1152 L3653,1152 C3644,1152 3655,1156 3645,1157 C3635,1159 3652,1150 3641,1151 L3630,1152 3630,1152 L3629,1160 C3629,1169 3634,1157 3634,1166 C3634,1176 3630,1162 3630,1173 L3630,1184 3630,1184 L3639,1183 C3648,1183 3635,1188 3645,1188 C3655,1188 3640,1184 3651,1184 L3663,1184 3663,1184 L3662,1175 C3662,1166 3668,1177 3669,1168 C3671,1160 3663,1169 3663,1160 L3663,1152"/></g><clipPath id="c" clipRule="evenodd" fill="transparent"><use href="#t4790"/></clipPath></defs><svg viewBox="3628 1149 44 40" preserveAspectRatio="xMinYMin meet"><svg width="4380" height="2430"><g><image crossorigin="anonymous" x="0" y="0" href="https://nftpuzzle.license-token.com/assets/completepuzzle.svg" width="100%" height="100%" /><g class="links"><use href="#t4790"/></g></g></svg><svg x="3657" y="1174" height="9%" width="9%" viewBox="0 0 330 330"><g><a xlink:href="https://nftpuzzle.license-token.com/" class="links"><title>See the most innovative NFT based token software licensing project</title><path fill="#E4CF37" id="more" d="M165,0C74.019,0,0,74.019,0,165s74.019,165,165,165s165-74.019,165-165S255.981,0,165,0z M85,190 c-13.785,0-25-11.215-25-25s11.215-25,25-25s25,11.215,25,25S98.785,190,85,190z M165,190c-13.785,0-25-11.215-25-25 s11.215-25,25-25s25,11.215,25,25S178.785,190,165,190z M245,190c-13.785,0-25-11.215-25-25s11.215-25,25-25 c13.785,0,25,11.215,25,25S258.785,190,245,190z"></path></a></g></svg></svg></svg>