<svg version="1.1" xmlns="http://www.w3.org/2000/svg" xmlns:xlink="http://www.w3.org/1999/xlink" fill="transparent" x="0" y="0" width="350" height="350" preserveAspectRatio="xMinYMin slice"><style type="text/css">.links{fill:transparent;stroke: #E4CF37;}.links:hover{fill:#63D272; opacity:0.4;}</style><defs><g id="allt"><path id="t4791" d="M3696,1152 L3686,1152 C3677,1152 3690,1144 3680,1146 C3670,1148 3683,1152 3673,1152 L3663,1152 3663,1152 L3663,1160 C3663,1169 3671,1160 3669,1168 C3668,1177 3662,1166 3662,1175 L3663,1184 3663,1184 L3672,1184 C3681,1184 3672,1192 3680,1190 C3689,1189 3677,1183 3686,1183 L3696,1184 3696,1184 L3697,1173 C3698,1162 3689,1176 3688,1168 C3687,1161 3698,1171 3697,1161 L3696,1152"/></g><clipPath id="c" clipRule="evenodd" fill="transparent"><use href="#t4791"/></clipPath></defs><svg viewBox="3661 1143 38 50" preserveAspectRatio="xMinYMin meet"><svg width="4380" height="2430"><g><image crossorigin="anonymous" x="0" y="0" href="https://nftpuzzle.license-token.com/assets/completepuzzle.svg" width="100%" height="100%" /><g class="links"><use href="#t4791"/></g></g></svg><svg x="3684" y="1178" height="9%" width="9%" viewBox="0 0 330 330"><g><a xlink:href="https://nftpuzzle.license-token.com/" class="links"><title>See the most innovative NFT based token software licensing project</title><path fill="#E4CF37" id="more" d="M165,0C74.019,0,0,74.019,0,165s74.019,165,165,165s165-74.019,165-165S255.981,0,165,0z M85,190 c-13.785,0-25-11.215-25-25s11.215-25,25-25s25,11.215,25,25S98.785,190,85,190z M165,190c-13.785,0-25-11.215-25-25 s11.215-25,25-25s25,11.215,25,25S178.785,190,165,190z M245,190c-13.785,0-25-11.215-25-25s11.215-25,25-25 c13.785,0,25,11.215,25,25S258.785,190,245,190z"></path></a></g></svg></svg></svg>