<svg version="1.1" xmlns="http://www.w3.org/2000/svg" xmlns:xlink="http://www.w3.org/1999/xlink" fill="transparent" x="0" y="0" width="350" height="350" preserveAspectRatio="xMinYMin slice"><style type="text/css">.links{fill:transparent;stroke: #E4CF37;}.links:hover{fill:#63D272; opacity:0.4;}</style><defs><g id="allt"><path id="t4796" d="M3861,1152 L3850,1152 C3839,1153 3853,1148 3843,1147 C3833,1146 3849,1152 3838,1152 L3828,1152 3828,1152 L3827,1160 C3827,1169 3835,1161 3833,1168 C3832,1175 3825,1163 3826,1173 L3828,1184 3828,1184 L3837,1183 C3846,1183 3837,1191 3844,1189 C3852,1188 3839,1181 3850,1182 L3861,1184 3861,1184 L3861,1174 C3861,1165 3872,1179 3869,1169 C3866,1159 3861,1170 3861,1161 L3861,1152"/></g><clipPath id="c" clipRule="evenodd" fill="transparent"><use href="#t4796"/></clipPath></defs><svg viewBox="3824 1145 49 47" preserveAspectRatio="xMinYMin meet"><svg width="4380" height="2430"><g><image crossorigin="anonymous" x="0" y="0" href="https://nftpuzzle.license-token.com/assets/completepuzzle.svg" width="100%" height="100%" /><g class="links"><use href="#t4796"/></g></g></svg><svg x="3858" y="1177" height="9%" width="9%" viewBox="0 0 330 330"><g><a xlink:href="https://nftpuzzle.license-token.com/" class="links"><title>See the most innovative NFT based token software licensing project</title><path fill="#E4CF37" id="more" d="M165,0C74.019,0,0,74.019,0,165s74.019,165,165,165s165-74.019,165-165S255.981,0,165,0z M85,190 c-13.785,0-25-11.215-25-25s11.215-25,25-25s25,11.215,25,25S98.785,190,85,190z M165,190c-13.785,0-25-11.215-25-25 s11.215-25,25-25s25,11.215,25,25S178.785,190,165,190z M245,190c-13.785,0-25-11.215-25-25s11.215-25,25-25 c13.785,0,25,11.215,25,25S258.785,190,245,190z"></path></a></g></svg></svg></svg>