<svg version="1.1" xmlns="http://www.w3.org/2000/svg" xmlns:xlink="http://www.w3.org/1999/xlink" fill="transparent" x="0" y="0" width="350" height="350" preserveAspectRatio="xMinYMin slice"><style type="text/css">.links{fill:transparent;stroke: #E4CF37;}.links:hover{fill:#63D272; opacity:0.4;}</style><defs><g id="allt"><path id="t4797" d="M3894,1152 L3883,1153 C3873,1155 3886,1144 3876,1145 C3867,1146 3883,1152 3872,1152 L3861,1152 3861,1152 L3861,1161 C3861,1170 3866,1159 3869,1169 C3872,1179 3861,1165 3861,1174 L3861,1184 3861,1184 L3870,1184 C3880,1184 3868,1189 3878,1191 C3889,1194 3874,1184 3884,1184 L3894,1184 3894,1184 L3894,1174 C3894,1164 3902,1177 3901,1167 C3901,1157 3893,1171 3893,1161 L3894,1152"/></g><clipPath id="c" clipRule="evenodd" fill="transparent"><use href="#t4797"/></clipPath></defs><svg viewBox="3860 1143 43 52" preserveAspectRatio="xMinYMin meet"><svg width="4380" height="2430"><g><image crossorigin="anonymous" x="0" y="0" href="https://nftpuzzle.license-token.com/assets/completepuzzle.svg" width="100%" height="100%" /><g class="links"><use href="#t4797"/></g></g></svg><svg x="3888" y="1180" height="9%" width="9%" viewBox="0 0 330 330"><g><a xlink:href="https://nftpuzzle.license-token.com/" class="links"><title>See the most innovative NFT based token software licensing project</title><path fill="#E4CF37" id="more" d="M165,0C74.019,0,0,74.019,0,165s74.019,165,165,165s165-74.019,165-165S255.981,0,165,0z M85,190 c-13.785,0-25-11.215-25-25s11.215-25,25-25s25,11.215,25,25S98.785,190,85,190z M165,190c-13.785,0-25-11.215-25-25 s11.215-25,25-25s25,11.215,25,25S178.785,190,165,190z M245,190c-13.785,0-25-11.215-25-25s11.215-25,25-25 c13.785,0,25,11.215,25,25S258.785,190,245,190z"></path></a></g></svg></svg></svg>