<svg version="1.1" xmlns="http://www.w3.org/2000/svg" xmlns:xlink="http://www.w3.org/1999/xlink" fill="transparent" x="0" y="0" width="350" height="350" preserveAspectRatio="xMinYMin slice"><style type="text/css">.links{fill:transparent;stroke: #E4CF37;}.links:hover{fill:#63D272; opacity:0.4;}</style><defs><g id="allt"><path id="t4798" d="M3927,1152 L3917,1152 C3907,1152 3917,1155 3909,1155 C3901,1156 3913,1151 3903,1151 L3894,1152 3894,1152 L3893,1161 C3893,1171 3901,1157 3901,1167 C3902,1177 3894,1164 3894,1174 L3894,1184 3894,1184 L3903,1183 C3913,1183 3899,1191 3909,1191 C3920,1192 3906,1184 3916,1184 L3927,1184 3927,1184 L3927,1173 C3927,1162 3922,1175 3922,1165 C3922,1156 3929,1171 3928,1161 L3927,1152"/></g><clipPath id="c" clipRule="evenodd" fill="transparent"><use href="#t4798"/></clipPath></defs><svg viewBox="3892 1150 38 43" preserveAspectRatio="xMinYMin meet"><svg width="4380" height="2430"><g><image crossorigin="anonymous" x="0" y="0" href="https://nftpuzzle.license-token.com/assets/completepuzzle.svg" width="100%" height="100%" /><g class="links"><use href="#t4798"/></g></g></svg><svg x="3915" y="1178" height="9%" width="9%" viewBox="0 0 330 330"><g><a xlink:href="https://nftpuzzle.license-token.com/" class="links"><title>See the most innovative NFT based token software licensing project</title><path fill="#E4CF37" id="more" d="M165,0C74.019,0,0,74.019,0,165s74.019,165,165,165s165-74.019,165-165S255.981,0,165,0z M85,190 c-13.785,0-25-11.215-25-25s11.215-25,25-25s25,11.215,25,25S98.785,190,85,190z M165,190c-13.785,0-25-11.215-25-25 s11.215-25,25-25s25,11.215,25,25S178.785,190,165,190z M245,190c-13.785,0-25-11.215-25-25s11.215-25,25-25 c13.785,0,25,11.215,25,25S258.785,190,245,190z"></path></a></g></svg></svg></svg>