<svg version="1.1" xmlns="http://www.w3.org/2000/svg" xmlns:xlink="http://www.w3.org/1999/xlink" fill="transparent" x="0" y="0" width="350" height="350" preserveAspectRatio="xMinYMin slice"><style type="text/css">.links{fill:transparent;stroke: #E4CF37;}.links:hover{fill:#63D272; opacity:0.4;}</style><defs><g id="allt"><path id="t4799" d="M3960,1152 L3949,1153 C3939,1155 3951,1145 3943,1145 C3936,1146 3948,1154 3937,1153 L3927,1152 3927,1152 L3928,1161 C3929,1171 3922,1156 3922,1165 C3922,1175 3927,1162 3927,1173 L3927,1184 3927,1184 L3937,1185 C3947,1186 3931,1179 3940,1179 C3950,1179 3937,1184 3948,1184 L3960,1184 3960,1184 L3960,1174 C3960,1165 3953,1177 3952,1167 C3951,1157 3963,1173 3961,1162 L3960,1152"/></g><clipPath id="c" clipRule="evenodd" fill="transparent"><use href="#t4799"/></clipPath></defs><svg viewBox="3921 1144 43 43" preserveAspectRatio="xMinYMin meet"><svg width="4380" height="2430"><g><image crossorigin="anonymous" x="0" y="0" href="https://nftpuzzle.license-token.com/assets/completepuzzle.svg" width="100%" height="100%" /><g class="links"><use href="#t4799"/></g></g></svg><svg x="3949" y="1172" height="9%" width="9%" viewBox="0 0 330 330"><g><a xlink:href="https://nftpuzzle.license-token.com/" class="links"><title>See the most innovative NFT based token software licensing project</title><path fill="#E4CF37" id="more" d="M165,0C74.019,0,0,74.019,0,165s74.019,165,165,165s165-74.019,165-165S255.981,0,165,0z M85,190 c-13.785,0-25-11.215-25-25s11.215-25,25-25s25,11.215,25,25S98.785,190,85,190z M165,190c-13.785,0-25-11.215-25-25 s11.215-25,25-25s25,11.215,25,25S178.785,190,165,190z M245,190c-13.785,0-25-11.215-25-25s11.215-25,25-25 c13.785,0,25,11.215,25,25S258.785,190,245,190z"></path></a></g></svg></svg></svg>