<svg version="1.1" xmlns="http://www.w3.org/2000/svg" xmlns:xlink="http://www.w3.org/1999/xlink" fill="transparent" x="0" y="0" width="350" height="350" preserveAspectRatio="xMinYMin slice"><style type="text/css">.links{fill:transparent;stroke: #E4CF37;}.links:hover{fill:#63D272; opacity:0.4;}</style><defs><g id="allt"><path id="t4802" d="M4059,1152 L4049,1151 C4039,1150 4050,1154 4042,1154 C4035,1154 4046,1151 4036,1151 L4026,1152 4026,1152 L4027,1162 C4029,1172 4019,1157 4018,1167 C4018,1178 4029,1163 4027,1173 L4026,1184 4026,1184 L4036,1185 C4046,1187 4031,1177 4042,1176 C4053,1176 4038,1187 4048,1185 L4059,1184 4059,1184 L4060,1174 C4062,1165 4055,1175 4054,1167 C4054,1159 4061,1171 4060,1161 L4059,1152"/></g><clipPath id="c" clipRule="evenodd" fill="transparent"><use href="#t4802"/></clipPath></defs><svg viewBox="4017 1149 46 39" preserveAspectRatio="xMinYMin meet"><svg width="4380" height="2430"><g><image crossorigin="anonymous" x="0" y="0" href="https://nftpuzzle.license-token.com/assets/completepuzzle.svg" width="100%" height="100%" /><g class="links"><use href="#t4802"/></g></g></svg><svg x="4048" y="1173" height="9%" width="9%" viewBox="0 0 330 330"><g><a xlink:href="https://nftpuzzle.license-token.com/" class="links"><title>See the most innovative NFT based token software licensing project</title><path fill="#E4CF37" id="more" d="M165,0C74.019,0,0,74.019,0,165s74.019,165,165,165s165-74.019,165-165S255.981,0,165,0z M85,190 c-13.785,0-25-11.215-25-25s11.215-25,25-25s25,11.215,25,25S98.785,190,85,190z M165,190c-13.785,0-25-11.215-25-25 s11.215-25,25-25s25,11.215,25,25S178.785,190,165,190z M245,190c-13.785,0-25-11.215-25-25s11.215-25,25-25 c13.785,0,25,11.215,25,25S258.785,190,245,190z"></path></a></g></svg></svg></svg>