<svg version="1.1" xmlns="http://www.w3.org/2000/svg" xmlns:xlink="http://www.w3.org/1999/xlink" fill="transparent" x="0" y="0" width="350" height="350" preserveAspectRatio="xMinYMin slice"><style type="text/css">.links{fill:transparent;stroke: #E4CF37;}.links:hover{fill:#63D272; opacity:0.4;}</style><defs><g id="allt"><path id="t4804" d="M4125,1152 L4114,1152 C4104,1153 4118,1149 4108,1148 C4099,1147 4110,1153 4101,1152 L4092,1152 4092,1152 L4091,1161 C4091,1171 4097,1160 4097,1168 C4097,1176 4090,1165 4091,1174 L4092,1184 4092,1184 L4102,1183 C4112,1183 4100,1189 4108,1189 C4116,1189 4105,1182 4115,1183 L4125,1184 4125,1184 L4125,1173 C4125,1163 4117,1177 4117,1168 C4118,1159 4128,1172 4126,1162 L4125,1152"/></g><clipPath id="c" clipRule="evenodd" fill="transparent"><use href="#t4804"/></clipPath></defs><svg viewBox="4089 1146 40 44" preserveAspectRatio="xMinYMin meet"><svg width="4380" height="2430"><g><image crossorigin="anonymous" x="0" y="0" href="https://nftpuzzle.license-token.com/assets/completepuzzle.svg" width="100%" height="100%" /><g class="links"><use href="#t4804"/></g></g></svg><svg x="4114" y="1175" height="9%" width="9%" viewBox="0 0 330 330"><g><a xlink:href="https://nftpuzzle.license-token.com/" class="links"><title>See the most innovative NFT based token software licensing project</title><path fill="#E4CF37" id="more" d="M165,0C74.019,0,0,74.019,0,165s74.019,165,165,165s165-74.019,165-165S255.981,0,165,0z M85,190 c-13.785,0-25-11.215-25-25s11.215-25,25-25s25,11.215,25,25S98.785,190,85,190z M165,190c-13.785,0-25-11.215-25-25 s11.215-25,25-25s25,11.215,25,25S178.785,190,165,190z M245,190c-13.785,0-25-11.215-25-25s11.215-25,25-25 c13.785,0,25,11.215,25,25S258.785,190,245,190z"></path></a></g></svg></svg></svg>