<svg version="1.1" xmlns="http://www.w3.org/2000/svg" xmlns:xlink="http://www.w3.org/1999/xlink" fill="transparent" x="0" y="0" width="350" height="350" preserveAspectRatio="xMinYMin slice"><style type="text/css">.links{fill:transparent;stroke: #E4CF37;}.links:hover{fill:#63D272; opacity:0.4;}</style><defs><g id="allt"><path id="t4806" d="M4191,1152 L4180,1152 C4169,1152 4184,1161 4174,1158 C4164,1156 4178,1148 4168,1150 L4158,1152 4158,1152 L4158,1161 C4158,1171 4163,1160 4161,1168 C4160,1177 4158,1165 4158,1174 L4158,1184 4158,1184 L4168,1184 C4178,1184 4166,1189 4175,1187 C4184,1186 4171,1184 4181,1184 L4191,1184 4191,1184 L4191,1174 C4191,1165 4187,1174 4187,1167 C4188,1160 4191,1170 4191,1161 L4191,1152"/></g><clipPath id="c" clipRule="evenodd" fill="transparent"><use href="#t4806"/></clipPath></defs><svg viewBox="4157 1147 35 43" preserveAspectRatio="xMinYMin meet"><svg width="4380" height="2430"><g><image crossorigin="anonymous" x="0" y="0" href="https://nftpuzzle.license-token.com/assets/completepuzzle.svg" width="100%" height="100%" /><g class="links"><use href="#t4806"/></g></g></svg><svg x="4177" y="1175" height="9%" width="9%" viewBox="0 0 330 330"><g><a xlink:href="https://nftpuzzle.license-token.com/" class="links"><title>See the most innovative NFT based token software licensing project</title><path fill="#E4CF37" id="more" d="M165,0C74.019,0,0,74.019,0,165s74.019,165,165,165s165-74.019,165-165S255.981,0,165,0z M85,190 c-13.785,0-25-11.215-25-25s11.215-25,25-25s25,11.215,25,25S98.785,190,85,190z M165,190c-13.785,0-25-11.215-25-25 s11.215-25,25-25s25,11.215,25,25S178.785,190,165,190z M245,190c-13.785,0-25-11.215-25-25s11.215-25,25-25 c13.785,0,25,11.215,25,25S258.785,190,245,190z"></path></a></g></svg></svg></svg>