<svg version="1.1" xmlns="http://www.w3.org/2000/svg" xmlns:xlink="http://www.w3.org/1999/xlink" fill="transparent" x="0" y="0" width="350" height="350" preserveAspectRatio="xMinYMin slice"><style type="text/css">.links{fill:transparent;stroke: #E4CF37;}.links:hover{fill:#63D272; opacity:0.4;}</style><defs><g id="allt"><path id="t4808" d="M4257,1152 L4247,1152 C4238,1152 4251,1145 4241,1145 C4231,1146 4244,1152 4234,1152 L4224,1152 4224,1152 L4225,1162 C4226,1172 4215,1157 4217,1165 C4220,1174 4224,1165 4224,1174 L4224,1184 4224,1184 L4234,1185 C4244,1186 4229,1176 4238,1178 C4247,1180 4238,1184 4247,1184 L4257,1184 4257,1184 L4257,1174 C4257,1165 4265,1178 4263,1168 C4262,1159 4256,1172 4256,1162 L4257,1152"/></g><clipPath id="c" clipRule="evenodd" fill="transparent"><use href="#t4808"/></clipPath></defs><svg viewBox="4214 1144 52 43" preserveAspectRatio="xMinYMin meet"><svg width="4380" height="2430"><g><image crossorigin="anonymous" x="0" y="0" href="https://nftpuzzle.license-token.com/assets/completepuzzle.svg" width="100%" height="100%" /><g class="links"><use href="#t4808"/></g></g></svg><svg x="4251" y="1172" height="9%" width="9%" viewBox="0 0 330 330"><g><a xlink:href="https://nftpuzzle.license-token.com/" class="links"><title>See the most innovative NFT based token software licensing project</title><path fill="#E4CF37" id="more" d="M165,0C74.019,0,0,74.019,0,165s74.019,165,165,165s165-74.019,165-165S255.981,0,165,0z M85,190 c-13.785,0-25-11.215-25-25s11.215-25,25-25s25,11.215,25,25S98.785,190,85,190z M165,190c-13.785,0-25-11.215-25-25 s11.215-25,25-25s25,11.215,25,25S178.785,190,165,190z M245,190c-13.785,0-25-11.215-25-25s11.215-25,25-25 c13.785,0,25,11.215,25,25S258.785,190,245,190z"></path></a></g></svg></svg></svg>