<svg version="1.1" xmlns="http://www.w3.org/2000/svg" xmlns:xlink="http://www.w3.org/1999/xlink" fill="transparent" x="0" y="0" width="350" height="350" preserveAspectRatio="xMinYMin slice"><style type="text/css">.links{fill:transparent;stroke: #E4CF37;}.links:hover{fill:#63D272; opacity:0.4;}</style><defs><g id="allt"><path id="t4813" d="M132,1184 L121,1184 C110,1184 126,1188 115,1190 C104,1192 118,1183 108,1183 L99,1184 99,1184 L99,1193 C100,1202 89,1190 90,1199 C92,1208 102,1194 100,1205 L99,1216 99,1216 L108,1216 C117,1217 105,1207 114,1208 C124,1209 109,1219 120,1217 L132,1216 132,1216 L134,1207 C136,1198 128,1206 126,1199 C124,1192 134,1204 133,1194 L132,1184"/></g><clipPath id="c" clipRule="evenodd" fill="transparent"><use href="#t4813"/></clipPath></defs><svg viewBox="88 1182 49 38" preserveAspectRatio="xMinYMin meet"><svg width="4380" height="2430"><g><image crossorigin="anonymous" x="0" y="0" href="https://nftpuzzle.license-token.com/assets/completepuzzle.svg" width="100%" height="100%" /><g class="links"><use href="#t4813"/></g></g></svg><svg x="122" y="1205" height="9%" width="9%" viewBox="0 0 330 330"><g><a xlink:href="https://nftpuzzle.license-token.com/" class="links"><title>See the most innovative NFT based token software licensing project</title><path fill="#E4CF37" id="more" d="M165,0C74.019,0,0,74.019,0,165s74.019,165,165,165s165-74.019,165-165S255.981,0,165,0z M85,190 c-13.785,0-25-11.215-25-25s11.215-25,25-25s25,11.215,25,25S98.785,190,85,190z M165,190c-13.785,0-25-11.215-25-25 s11.215-25,25-25s25,11.215,25,25S178.785,190,165,190z M245,190c-13.785,0-25-11.215-25-25s11.215-25,25-25 c13.785,0,25,11.215,25,25S258.785,190,245,190z"></path></a></g></svg></svg></svg>