<svg version="1.1" xmlns="http://www.w3.org/2000/svg" xmlns:xlink="http://www.w3.org/1999/xlink" fill="transparent" x="0" y="0" width="350" height="350" preserveAspectRatio="xMinYMin slice"><style type="text/css">.links{fill:transparent;stroke: #E4CF37;}.links:hover{fill:#63D272; opacity:0.4;}</style><defs><g id="allt"><path id="t4814" d="M165,1184 L153,1184 C142,1184 156,1182 147,1181 C138,1180 152,1185 142,1184 L132,1184 132,1184 L133,1194 C134,1204 124,1192 126,1199 C128,1206 136,1198 134,1207 L132,1216 132,1216 L142,1217 C153,1218 140,1208 147,1210 C155,1212 146,1220 155,1218 L165,1216 165,1216 L165,1206 C165,1197 173,1207 172,1199 C171,1191 165,1202 165,1193 L165,1184"/></g><clipPath id="c" clipRule="evenodd" fill="transparent"><use href="#t4814"/></clipPath></defs><svg viewBox="123 1179 51 42" preserveAspectRatio="xMinYMin meet"><svg width="4380" height="2430"><g><image crossorigin="anonymous" x="0" y="0" href="https://nftpuzzle.license-token.com/assets/completepuzzle.svg" width="100%" height="100%" /><g class="links"><use href="#t4814"/></g></g></svg><svg x="159" y="1206" height="9%" width="9%" viewBox="0 0 330 330"><g><a xlink:href="https://nftpuzzle.license-token.com/" class="links"><title>See the most innovative NFT based token software licensing project</title><path fill="#E4CF37" id="more" d="M165,0C74.019,0,0,74.019,0,165s74.019,165,165,165s165-74.019,165-165S255.981,0,165,0z M85,190 c-13.785,0-25-11.215-25-25s11.215-25,25-25s25,11.215,25,25S98.785,190,85,190z M165,190c-13.785,0-25-11.215-25-25 s11.215-25,25-25s25,11.215,25,25S178.785,190,165,190z M245,190c-13.785,0-25-11.215-25-25s11.215-25,25-25 c13.785,0,25,11.215,25,25S258.785,190,245,190z"></path></a></g></svg></svg></svg>