<svg version="1.1" xmlns="http://www.w3.org/2000/svg" xmlns:xlink="http://www.w3.org/1999/xlink" fill="transparent" x="0" y="0" width="350" height="350" preserveAspectRatio="xMinYMin slice"><style type="text/css">.links{fill:transparent;stroke: #E4CF37;}.links:hover{fill:#63D272; opacity:0.4;}</style><defs><g id="allt"><path id="t4818" d="M297,1184 L286,1183 C275,1183 289,1187 280,1187 C272,1187 284,1184 274,1184 L264,1184 264,1184 L263,1193 C262,1203 268,1190 268,1198 C268,1207 261,1194 262,1205 L264,1216 264,1216 L273,1215 C283,1214 270,1220 279,1220 C288,1220 275,1213 286,1214 L297,1216 297,1216 L296,1207 C295,1198 303,1210 304,1199 C305,1189 295,1201 296,1192 L297,1184"/></g><clipPath id="c" clipRule="evenodd" fill="transparent"><use href="#t4818"/></clipPath></defs><svg viewBox="260 1182 46 39" preserveAspectRatio="xMinYMin meet"><svg width="4380" height="2430"><g><image crossorigin="anonymous" x="0" y="0" href="https://nftpuzzle.license-token.com/assets/completepuzzle.svg" width="100%" height="100%" /><g class="links"><use href="#t4818"/></g></g></svg><svg x="291" y="1206" height="9%" width="9%" viewBox="0 0 330 330"><g><a xlink:href="https://nftpuzzle.license-token.com/" class="links"><title>See the most innovative NFT based token software licensing project</title><path fill="#E4CF37" id="more" d="M165,0C74.019,0,0,74.019,0,165s74.019,165,165,165s165-74.019,165-165S255.981,0,165,0z M85,190 c-13.785,0-25-11.215-25-25s11.215-25,25-25s25,11.215,25,25S98.785,190,85,190z M165,190c-13.785,0-25-11.215-25-25 s11.215-25,25-25s25,11.215,25,25S178.785,190,165,190z M245,190c-13.785,0-25-11.215-25-25s11.215-25,25-25 c13.785,0,25,11.215,25,25S258.785,190,245,190z"></path></a></g></svg></svg></svg>