<svg version="1.1" xmlns="http://www.w3.org/2000/svg" xmlns:xlink="http://www.w3.org/1999/xlink" fill="transparent" x="0" y="0" width="350" height="350" preserveAspectRatio="xMinYMin slice"><style type="text/css">.links{fill:transparent;stroke: #E4CF37;}.links:hover{fill:#63D272; opacity:0.4;}</style><defs><g id="allt"><path id="t4825" d="M528,1184 L518,1183 C508,1183 520,1188 509,1188 C499,1188 516,1184 505,1184 L495,1184 495,1184 L496,1194 C497,1204 483,1189 484,1199 C486,1210 495,1196 495,1206 L495,1216 495,1216 L505,1217 C515,1218 500,1204 511,1206 C522,1208 508,1216 518,1216 L528,1216 528,1216 L528,1205 C528,1194 532,1206 533,1197 C535,1189 525,1203 526,1193 L528,1184"/></g><clipPath id="c" clipRule="evenodd" fill="transparent"><use href="#t4825"/></clipPath></defs><svg viewBox="482 1182 54 37" preserveAspectRatio="xMinYMin meet"><svg width="4380" height="2430"><g><image crossorigin="anonymous" x="0" y="0" href="https://nftpuzzle.license-token.com/assets/completepuzzle.svg" width="100%" height="100%" /><g class="links"><use href="#t4825"/></g></g></svg><svg x="521" y="1204" height="9%" width="9%" viewBox="0 0 330 330"><g><a xlink:href="https://nftpuzzle.license-token.com/" class="links"><title>See the most innovative NFT based token software licensing project</title><path fill="#E4CF37" id="more" d="M165,0C74.019,0,0,74.019,0,165s74.019,165,165,165s165-74.019,165-165S255.981,0,165,0z M85,190 c-13.785,0-25-11.215-25-25s11.215-25,25-25s25,11.215,25,25S98.785,190,85,190z M165,190c-13.785,0-25-11.215-25-25 s11.215-25,25-25s25,11.215,25,25S178.785,190,165,190z M245,190c-13.785,0-25-11.215-25-25s11.215-25,25-25 c13.785,0,25,11.215,25,25S258.785,190,245,190z"></path></a></g></svg></svg></svg>