<svg version="1.1" xmlns="http://www.w3.org/2000/svg" xmlns:xlink="http://www.w3.org/1999/xlink" fill="transparent" x="0" y="0" width="350" height="350" preserveAspectRatio="xMinYMin slice"><style type="text/css">.links{fill:transparent;stroke: #E4CF37;}.links:hover{fill:#63D272; opacity:0.4;}</style><defs><g id="allt"><path id="t4827" d="M594,1184 L583,1184 C573,1185 585,1182 577,1181 C570,1180 583,1184 572,1184 L561,1184 561,1184 L561,1192 C561,1201 563,1191 563,1200 C564,1209 559,1195 560,1205 L561,1216 561,1216 L570,1216 C579,1216 568,1218 577,1218 C587,1219 573,1214 583,1215 L594,1216 594,1216 L594,1205 C594,1195 598,1208 598,1199 C598,1191 594,1202 594,1193 L594,1184"/></g><clipPath id="c" clipRule="evenodd" fill="transparent"><use href="#t4827"/></clipPath></defs><svg viewBox="558 1179 41 41" preserveAspectRatio="xMinYMin meet"><svg width="4380" height="2430"><g><image crossorigin="anonymous" x="0" y="0" href="https://nftpuzzle.license-token.com/assets/completepuzzle.svg" width="100%" height="100%" /><g class="links"><use href="#t4827"/></g></g></svg><svg x="584" y="1205" height="9%" width="9%" viewBox="0 0 330 330"><g><a xlink:href="https://nftpuzzle.license-token.com/" class="links"><title>See the most innovative NFT based token software licensing project</title><path fill="#E4CF37" id="more" d="M165,0C74.019,0,0,74.019,0,165s74.019,165,165,165s165-74.019,165-165S255.981,0,165,0z M85,190 c-13.785,0-25-11.215-25-25s11.215-25,25-25s25,11.215,25,25S98.785,190,85,190z M165,190c-13.785,0-25-11.215-25-25 s11.215-25,25-25s25,11.215,25,25S178.785,190,165,190z M245,190c-13.785,0-25-11.215-25-25s11.215-25,25-25 c13.785,0,25,11.215,25,25S258.785,190,245,190z"></path></a></g></svg></svg></svg>