<svg version="1.1" xmlns="http://www.w3.org/2000/svg" xmlns:xlink="http://www.w3.org/1999/xlink" fill="transparent" x="0" y="0" width="350" height="350" preserveAspectRatio="xMinYMin slice"><style type="text/css">.links{fill:transparent;stroke: #E4CF37;}.links:hover{fill:#63D272; opacity:0.4;}</style><defs><g id="allt"><path id="t4828" d="M627,1184 L617,1184 C608,1184 619,1191 610,1190 C601,1190 612,1183 603,1183 L594,1184 594,1184 L594,1193 C594,1202 598,1191 598,1199 C598,1208 594,1195 594,1205 L594,1216 594,1216 L603,1216 C613,1216 601,1220 610,1220 C619,1220 605,1216 616,1216 L627,1216 627,1216 L627,1206 C627,1197 624,1210 624,1199 C624,1189 628,1204 627,1194 L627,1184"/></g><clipPath id="c" clipRule="evenodd" fill="transparent"><use href="#t4828"/></clipPath></defs><svg viewBox="593 1182 36 39" preserveAspectRatio="xMinYMin meet"><svg width="4380" height="2430"><g><image crossorigin="anonymous" x="0" y="0" href="https://nftpuzzle.license-token.com/assets/completepuzzle.svg" width="100%" height="100%" /><g class="links"><use href="#t4828"/></g></g></svg><svg x="614" y="1206" height="9%" width="9%" viewBox="0 0 330 330"><g><a xlink:href="https://nftpuzzle.license-token.com/" class="links"><title>See the most innovative NFT based token software licensing project</title><path fill="#E4CF37" id="more" d="M165,0C74.019,0,0,74.019,0,165s74.019,165,165,165s165-74.019,165-165S255.981,0,165,0z M85,190 c-13.785,0-25-11.215-25-25s11.215-25,25-25s25,11.215,25,25S98.785,190,85,190z M165,190c-13.785,0-25-11.215-25-25 s11.215-25,25-25s25,11.215,25,25S178.785,190,165,190z M245,190c-13.785,0-25-11.215-25-25s11.215-25,25-25 c13.785,0,25,11.215,25,25S258.785,190,245,190z"></path></a></g></svg></svg></svg>