<svg version="1.1" xmlns="http://www.w3.org/2000/svg" xmlns:xlink="http://www.w3.org/1999/xlink" fill="transparent" x="0" y="0" width="350" height="350" preserveAspectRatio="xMinYMin slice"><style type="text/css">.links{fill:transparent;stroke: #E4CF37;}.links:hover{fill:#63D272; opacity:0.4;}</style><defs><g id="allt"><path id="t4834" d="M825,1184 L815,1184 C806,1185 819,1180 809,1180 C799,1181 813,1186 802,1185 L792,1184 792,1184 L792,1193 C792,1203 782,1191 781,1198 C780,1206 795,1195 793,1205 L792,1216 792,1216 L801,1216 C811,1216 799,1206 807,1205 C815,1204 803,1219 814,1217 L825,1216 825,1216 L825,1206 C825,1196 821,1209 822,1200 C823,1191 825,1202 825,1193 L825,1184"/></g><clipPath id="c" clipRule="evenodd" fill="transparent"><use href="#t4834"/></clipPath></defs><svg viewBox="779 1179 47 41" preserveAspectRatio="xMinYMin meet"><svg width="4380" height="2430"><g><image crossorigin="anonymous" x="0" y="0" href="https://nftpuzzle.license-token.com/assets/completepuzzle.svg" width="100%" height="100%" /><g class="links"><use href="#t4834"/></g></g></svg><svg x="811" y="1205" height="9%" width="9%" viewBox="0 0 330 330"><g><a xlink:href="https://nftpuzzle.license-token.com/" class="links"><title>See the most innovative NFT based token software licensing project</title><path fill="#E4CF37" id="more" d="M165,0C74.019,0,0,74.019,0,165s74.019,165,165,165s165-74.019,165-165S255.981,0,165,0z M85,190 c-13.785,0-25-11.215-25-25s11.215-25,25-25s25,11.215,25,25S98.785,190,85,190z M165,190c-13.785,0-25-11.215-25-25 s11.215-25,25-25s25,11.215,25,25S178.785,190,165,190z M245,190c-13.785,0-25-11.215-25-25s11.215-25,25-25 c13.785,0,25,11.215,25,25S258.785,190,245,190z"></path></a></g></svg></svg></svg>