<svg version="1.1" xmlns="http://www.w3.org/2000/svg" xmlns:xlink="http://www.w3.org/1999/xlink" fill="transparent" x="0" y="0" width="350" height="350" preserveAspectRatio="xMinYMin slice"><style type="text/css">.links{fill:transparent;stroke: #E4CF37;}.links:hover{fill:#63D272; opacity:0.4;}</style><defs><g id="allt"><path id="t4836" d="M891,1184 L881,1185 C872,1186 882,1180 874,1180 C867,1181 878,1186 868,1185 L858,1184 858,1184 L858,1192 C858,1201 864,1190 863,1198 C863,1207 857,1195 857,1205 L858,1216 858,1216 L867,1216 C876,1216 864,1222 872,1221 C881,1221 870,1215 880,1215 L891,1216 891,1216 L889,1206 C888,1196 901,1211 898,1200 C896,1189 887,1204 889,1194 L891,1184"/></g><clipPath id="c" clipRule="evenodd" fill="transparent"><use href="#t4836"/></clipPath></defs><svg viewBox="856 1179 46 44" preserveAspectRatio="xMinYMin meet"><svg width="4380" height="2430"><g><image crossorigin="anonymous" x="0" y="0" href="https://nftpuzzle.license-token.com/assets/completepuzzle.svg" width="100%" height="100%" /><g class="links"><use href="#t4836"/></g></g></svg><svg x="887" y="1208" height="9%" width="9%" viewBox="0 0 330 330"><g><a xlink:href="https://nftpuzzle.license-token.com/" class="links"><title>See the most innovative NFT based token software licensing project</title><path fill="#E4CF37" id="more" d="M165,0C74.019,0,0,74.019,0,165s74.019,165,165,165s165-74.019,165-165S255.981,0,165,0z M85,190 c-13.785,0-25-11.215-25-25s11.215-25,25-25s25,11.215,25,25S98.785,190,85,190z M165,190c-13.785,0-25-11.215-25-25 s11.215-25,25-25s25,11.215,25,25S178.785,190,165,190z M245,190c-13.785,0-25-11.215-25-25s11.215-25,25-25 c13.785,0,25,11.215,25,25S258.785,190,245,190z"></path></a></g></svg></svg></svg>