<svg version="1.1" xmlns="http://www.w3.org/2000/svg" xmlns:xlink="http://www.w3.org/1999/xlink" fill="transparent" x="0" y="0" width="350" height="350" preserveAspectRatio="xMinYMin slice"><style type="text/css">.links{fill:transparent;stroke: #E4CF37;}.links:hover{fill:#63D272; opacity:0.4;}</style><defs><g id="allt"><path id="t4838" d="M957,1184 L947,1185 C937,1186 950,1175 939,1174 C929,1173 942,1185 933,1184 L924,1184 924,1184 L924,1193 C924,1202 929,1191 929,1200 C929,1209 923,1195 923,1205 L924,1216 924,1216 L933,1216 C943,1216 931,1221 940,1221 C950,1221 935,1215 946,1215 L957,1216 957,1216 L956,1206 C956,1196 960,1208 961,1198 C962,1188 955,1204 956,1194 L957,1184"/></g><clipPath id="c" clipRule="evenodd" fill="transparent"><use href="#t4838"/></clipPath></defs><svg viewBox="922 1172 41 50" preserveAspectRatio="xMinYMin meet"><svg width="4380" height="2430"><g><image crossorigin="anonymous" x="0" y="0" href="https://nftpuzzle.license-token.com/assets/completepuzzle.svg" width="100%" height="100%" /><g class="links"><use href="#t4838"/></g></g></svg><svg x="948" y="1207" height="9%" width="9%" viewBox="0 0 330 330"><g><a xlink:href="https://nftpuzzle.license-token.com/" class="links"><title>See the most innovative NFT based token software licensing project</title><path fill="#E4CF37" id="more" d="M165,0C74.019,0,0,74.019,0,165s74.019,165,165,165s165-74.019,165-165S255.981,0,165,0z M85,190 c-13.785,0-25-11.215-25-25s11.215-25,25-25s25,11.215,25,25S98.785,190,85,190z M165,190c-13.785,0-25-11.215-25-25 s11.215-25,25-25s25,11.215,25,25S178.785,190,165,190z M245,190c-13.785,0-25-11.215-25-25s11.215-25,25-25 c13.785,0,25,11.215,25,25S258.785,190,245,190z"></path></a></g></svg></svg></svg>