<svg version="1.1" xmlns="http://www.w3.org/2000/svg" xmlns:xlink="http://www.w3.org/1999/xlink" fill="transparent" x="0" y="0" width="350" height="350" preserveAspectRatio="xMinYMin slice"><style type="text/css">.links{fill:transparent;stroke: #E4CF37;}.links:hover{fill:#63D272; opacity:0.4;}</style><defs><g id="allt"><path id="t4843" d="M1122,1184 L1111,1182 C1100,1180 1116,1195 1106,1192 C1096,1190 1110,1183 1099,1183 L1089,1184 1089,1184 L1089,1194 C1089,1204 1084,1189 1084,1198 C1084,1208 1089,1194 1089,1205 L1089,1216 1089,1216 L1099,1216 C1110,1216 1094,1211 1104,1211 C1114,1211 1099,1216 1110,1216 L1122,1216 1122,1216 L1123,1205 C1124,1194 1118,1209 1117,1199 C1117,1189 1123,1204 1122,1194 L1122,1184"/></g><clipPath id="c" clipRule="evenodd" fill="transparent"><use href="#t4843"/></clipPath></defs><svg viewBox="1083 1179 42 38" preserveAspectRatio="xMinYMin meet"><svg width="4380" height="2430"><g><image crossorigin="anonymous" x="0" y="0" href="https://nftpuzzle.license-token.com/assets/completepuzzle.svg" width="100%" height="100%" /><g class="links"><use href="#t4843"/></g></g></svg><svg x="1110" y="1202" height="9%" width="9%" viewBox="0 0 330 330"><g><a xlink:href="https://nftpuzzle.license-token.com/" class="links"><title>See the most innovative NFT based token software licensing project</title><path fill="#E4CF37" id="more" d="M165,0C74.019,0,0,74.019,0,165s74.019,165,165,165s165-74.019,165-165S255.981,0,165,0z M85,190 c-13.785,0-25-11.215-25-25s11.215-25,25-25s25,11.215,25,25S98.785,190,85,190z M165,190c-13.785,0-25-11.215-25-25 s11.215-25,25-25s25,11.215,25,25S178.785,190,165,190z M245,190c-13.785,0-25-11.215-25-25s11.215-25,25-25 c13.785,0,25,11.215,25,25S258.785,190,245,190z"></path></a></g></svg></svg></svg>