<svg version="1.1" xmlns="http://www.w3.org/2000/svg" xmlns:xlink="http://www.w3.org/1999/xlink" fill="transparent" x="0" y="0" width="350" height="350" preserveAspectRatio="xMinYMin slice"><style type="text/css">.links{fill:transparent;stroke: #E4CF37;}.links:hover{fill:#63D272; opacity:0.4;}</style><defs><g id="allt"><path id="t4848" d="M1287,1184 L1276,1184 C1266,1184 1278,1187 1270,1187 C1263,1187 1275,1184 1264,1184 L1254,1184 1254,1184 L1253,1193 C1253,1203 1260,1192 1259,1200 C1258,1208 1254,1194 1254,1205 L1254,1216 1254,1216 L1264,1215 C1274,1215 1262,1222 1270,1221 C1279,1220 1265,1216 1276,1216 L1287,1216 1287,1216 L1286,1206 C1285,1196 1291,1210 1291,1199 C1291,1188 1286,1203 1286,1193 L1287,1184"/></g><clipPath id="c" clipRule="evenodd" fill="transparent"><use href="#t4848"/></clipPath></defs><svg viewBox="1252 1183 40 40" preserveAspectRatio="xMinYMin meet"><svg width="4380" height="2430"><g><image crossorigin="anonymous" x="0" y="0" href="https://nftpuzzle.license-token.com/assets/completepuzzle.svg" width="100%" height="100%" /><g class="links"><use href="#t4848"/></g></g></svg><svg x="1277" y="1208" height="9%" width="9%" viewBox="0 0 330 330"><g><a xlink:href="https://nftpuzzle.license-token.com/" class="links"><title>See the most innovative NFT based token software licensing project</title><path fill="#E4CF37" id="more" d="M165,0C74.019,0,0,74.019,0,165s74.019,165,165,165s165-74.019,165-165S255.981,0,165,0z M85,190 c-13.785,0-25-11.215-25-25s11.215-25,25-25s25,11.215,25,25S98.785,190,85,190z M165,190c-13.785,0-25-11.215-25-25 s11.215-25,25-25s25,11.215,25,25S178.785,190,165,190z M245,190c-13.785,0-25-11.215-25-25s11.215-25,25-25 c13.785,0,25,11.215,25,25S258.785,190,245,190z"></path></a></g></svg></svg></svg>