<svg version="1.1" xmlns="http://www.w3.org/2000/svg" xmlns:xlink="http://www.w3.org/1999/xlink" fill="transparent" x="0" y="0" width="350" height="350" preserveAspectRatio="xMinYMin slice"><style type="text/css">.links{fill:transparent;stroke: #E4CF37;}.links:hover{fill:#63D272; opacity:0.4;}</style><defs><g id="allt"><path id="t4859" d="M1650,1184 L1640,1184 C1631,1184 1642,1179 1632,1177 C1622,1176 1636,1184 1626,1184 L1617,1184 1617,1184 L1617,1193 C1617,1203 1608,1190 1608,1199 C1609,1208 1622,1197 1619,1206 L1617,1216 1617,1216 L1627,1216 C1637,1216 1623,1207 1632,1207 C1642,1208 1631,1221 1640,1218 L1650,1216 1650,1216 L1650,1207 C1650,1198 1658,1207 1658,1199 C1659,1191 1648,1204 1649,1194 L1650,1184"/></g><clipPath id="c" clipRule="evenodd" fill="transparent"><use href="#t4859"/></clipPath></defs><svg viewBox="1607 1175 53 47" preserveAspectRatio="xMinYMin meet"><svg width="4380" height="2430"><g><image crossorigin="anonymous" x="0" y="0" href="https://nftpuzzle.license-token.com/assets/completepuzzle.svg" width="100%" height="100%" /><g class="links"><use href="#t4859"/></g></g></svg><svg x="1645" y="1207" height="9%" width="9%" viewBox="0 0 330 330"><g><a xlink:href="https://nftpuzzle.license-token.com/" class="links"><title>See the most innovative NFT based token software licensing project</title><path fill="#E4CF37" id="more" d="M165,0C74.019,0,0,74.019,0,165s74.019,165,165,165s165-74.019,165-165S255.981,0,165,0z M85,190 c-13.785,0-25-11.215-25-25s11.215-25,25-25s25,11.215,25,25S98.785,190,85,190z M165,190c-13.785,0-25-11.215-25-25 s11.215-25,25-25s25,11.215,25,25S178.785,190,165,190z M245,190c-13.785,0-25-11.215-25-25s11.215-25,25-25 c13.785,0,25,11.215,25,25S258.785,190,245,190z"></path></a></g></svg></svg></svg>