<svg version="1.1" xmlns="http://www.w3.org/2000/svg" xmlns:xlink="http://www.w3.org/1999/xlink" fill="transparent" x="0" y="0" width="350" height="350" preserveAspectRatio="xMinYMin slice"><style type="text/css">.links{fill:transparent;stroke: #E4CF37;}.links:hover{fill:#63D272; opacity:0.4;}</style><defs><g id="allt"><path id="t4860" d="M1683,1184 L1673,1182 C1663,1181 1673,1188 1666,1188 C1659,1188 1670,1183 1660,1183 L1650,1184 1650,1184 L1649,1194 C1648,1204 1659,1191 1658,1199 C1658,1207 1650,1198 1650,1207 L1650,1216 1650,1216 L1660,1215 C1671,1214 1657,1225 1665,1224 C1674,1224 1664,1216 1673,1216 L1683,1216 1683,1216 L1683,1205 C1683,1194 1677,1209 1677,1199 C1677,1190 1683,1202 1683,1193 L1683,1184"/></g><clipPath id="c" clipRule="evenodd" fill="transparent"><use href="#t4860"/></clipPath></defs><svg viewBox="1647 1180 37 46" preserveAspectRatio="xMinYMin meet"><svg width="4380" height="2430"><g><image crossorigin="anonymous" x="0" y="0" href="https://nftpuzzle.license-token.com/assets/completepuzzle.svg" width="100%" height="100%" /><g class="links"><use href="#t4860"/></g></g></svg><svg x="1669" y="1211" height="9%" width="9%" viewBox="0 0 330 330"><g><a xlink:href="https://nftpuzzle.license-token.com/" class="links"><title>See the most innovative NFT based token software licensing project</title><path fill="#E4CF37" id="more" d="M165,0C74.019,0,0,74.019,0,165s74.019,165,165,165s165-74.019,165-165S255.981,0,165,0z M85,190 c-13.785,0-25-11.215-25-25s11.215-25,25-25s25,11.215,25,25S98.785,190,85,190z M165,190c-13.785,0-25-11.215-25-25 s11.215-25,25-25s25,11.215,25,25S178.785,190,165,190z M245,190c-13.785,0-25-11.215-25-25s11.215-25,25-25 c13.785,0,25,11.215,25,25S258.785,190,245,190z"></path></a></g></svg></svg></svg>