<svg version="1.1" xmlns="http://www.w3.org/2000/svg" xmlns:xlink="http://www.w3.org/1999/xlink" fill="transparent" x="0" y="0" width="350" height="350" preserveAspectRatio="xMinYMin slice"><style type="text/css">.links{fill:transparent;stroke: #E4CF37;}.links:hover{fill:#63D272; opacity:0.4;}</style><defs><g id="allt"><path id="t4863" d="M1782,1184 L1772,1183 C1762,1183 1774,1189 1765,1190 C1757,1191 1770,1182 1759,1183 L1749,1184 1749,1184 L1749,1192 C1749,1201 1743,1193 1743,1200 C1744,1208 1749,1194 1749,1205 L1749,1216 1749,1216 L1758,1216 C1767,1216 1758,1210 1766,1210 C1774,1211 1759,1216 1770,1216 L1782,1216 1782,1216 L1782,1205 C1782,1195 1789,1208 1789,1200 C1790,1193 1782,1204 1782,1194 L1782,1184"/></g><clipPath id="c" clipRule="evenodd" fill="transparent"><use href="#t4863"/></clipPath></defs><svg viewBox="1742 1181 49 36" preserveAspectRatio="xMinYMin meet"><svg width="4380" height="2430"><g><image crossorigin="anonymous" x="0" y="0" href="https://nftpuzzle.license-token.com/assets/completepuzzle.svg" width="100%" height="100%" /><g class="links"><use href="#t4863"/></g></g></svg><svg x="1776" y="1202" height="9%" width="9%" viewBox="0 0 330 330"><g><a xlink:href="https://nftpuzzle.license-token.com/" class="links"><title>See the most innovative NFT based token software licensing project</title><path fill="#E4CF37" id="more" d="M165,0C74.019,0,0,74.019,0,165s74.019,165,165,165s165-74.019,165-165S255.981,0,165,0z M85,190 c-13.785,0-25-11.215-25-25s11.215-25,25-25s25,11.215,25,25S98.785,190,85,190z M165,190c-13.785,0-25-11.215-25-25 s11.215-25,25-25s25,11.215,25,25S178.785,190,165,190z M245,190c-13.785,0-25-11.215-25-25s11.215-25,25-25 c13.785,0,25,11.215,25,25S258.785,190,245,190z"></path></a></g></svg></svg></svg>