<svg version="1.1" xmlns="http://www.w3.org/2000/svg" xmlns:xlink="http://www.w3.org/1999/xlink" fill="transparent" x="0" y="0" width="350" height="350" preserveAspectRatio="xMinYMin slice"><style type="text/css">.links{fill:transparent;stroke: #E4CF37;}.links:hover{fill:#63D272; opacity:0.4;}</style><defs><g id="allt"><path id="t4864" d="M1815,1184 L1805,1184 C1796,1184 1805,1174 1796,1175 C1787,1177 1803,1185 1792,1184 L1782,1184 1782,1184 L1782,1194 C1782,1204 1790,1193 1789,1200 C1789,1208 1782,1195 1782,1205 L1782,1216 1782,1216 L1792,1216 C1802,1216 1791,1224 1799,1223 C1807,1223 1794,1216 1804,1216 L1815,1216 1815,1216 L1814,1206 C1814,1197 1822,1209 1822,1199 C1823,1189 1815,1201 1815,1192 L1815,1184"/></g><clipPath id="c" clipRule="evenodd" fill="transparent"><use href="#t4864"/></clipPath></defs><svg viewBox="1781 1173 43 52" preserveAspectRatio="xMinYMin meet"><svg width="4380" height="2430"><g><image crossorigin="anonymous" x="0" y="0" href="https://nftpuzzle.license-token.com/assets/completepuzzle.svg" width="100%" height="100%" /><g class="links"><use href="#t4864"/></g></g></svg><svg x="1809" y="1210" height="9%" width="9%" viewBox="0 0 330 330"><g><a xlink:href="https://nftpuzzle.license-token.com/" class="links"><title>See the most innovative NFT based token software licensing project</title><path fill="#E4CF37" id="more" d="M165,0C74.019,0,0,74.019,0,165s74.019,165,165,165s165-74.019,165-165S255.981,0,165,0z M85,190 c-13.785,0-25-11.215-25-25s11.215-25,25-25s25,11.215,25,25S98.785,190,85,190z M165,190c-13.785,0-25-11.215-25-25 s11.215-25,25-25s25,11.215,25,25S178.785,190,165,190z M245,190c-13.785,0-25-11.215-25-25s11.215-25,25-25 c13.785,0,25,11.215,25,25S258.785,190,245,190z"></path></a></g></svg></svg></svg>