<svg version="1.1" xmlns="http://www.w3.org/2000/svg" xmlns:xlink="http://www.w3.org/1999/xlink" fill="transparent" x="0" y="0" width="350" height="350" preserveAspectRatio="xMinYMin slice"><style type="text/css">.links{fill:transparent;stroke: #E4CF37;}.links:hover{fill:#63D272; opacity:0.4;}</style><defs><g id="allt"><path id="t4866" d="M1881,1184 L1870,1184 C1860,1184 1875,1192 1864,1191 C1853,1191 1869,1184 1858,1184 L1848,1184 1848,1184 L1848,1194 C1848,1204 1839,1189 1839,1198 C1839,1208 1848,1196 1848,1206 L1848,1216 1848,1216 L1858,1216 C1868,1216 1853,1207 1863,1207 C1873,1207 1860,1216 1870,1216 L1881,1216 1881,1216 L1881,1207 C1881,1198 1887,1211 1886,1201 C1885,1192 1881,1205 1881,1194 L1881,1184"/></g><clipPath id="c" clipRule="evenodd" fill="transparent"><use href="#t4866"/></clipPath></defs><svg viewBox="1838 1183 50 34" preserveAspectRatio="xMinYMin meet"><svg width="4380" height="2430"><g><image crossorigin="anonymous" x="0" y="0" href="https://nftpuzzle.license-token.com/assets/completepuzzle.svg" width="100%" height="100%" /><g class="links"><use href="#t4866"/></g></g></svg><svg x="1873" y="1202" height="9%" width="9%" viewBox="0 0 330 330"><g><a xlink:href="https://nftpuzzle.license-token.com/" class="links"><title>See the most innovative NFT based token software licensing project</title><path fill="#E4CF37" id="more" d="M165,0C74.019,0,0,74.019,0,165s74.019,165,165,165s165-74.019,165-165S255.981,0,165,0z M85,190 c-13.785,0-25-11.215-25-25s11.215-25,25-25s25,11.215,25,25S98.785,190,85,190z M165,190c-13.785,0-25-11.215-25-25 s11.215-25,25-25s25,11.215,25,25S178.785,190,165,190z M245,190c-13.785,0-25-11.215-25-25s11.215-25,25-25 c13.785,0,25,11.215,25,25S258.785,190,245,190z"></path></a></g></svg></svg></svg>