<svg version="1.1" xmlns="http://www.w3.org/2000/svg" xmlns:xlink="http://www.w3.org/1999/xlink" fill="transparent" x="0" y="0" width="350" height="350" preserveAspectRatio="xMinYMin slice"><style type="text/css">.links{fill:transparent;stroke: #E4CF37;}.links:hover{fill:#63D272; opacity:0.4;}</style><defs><g id="allt"><path id="t4867" d="M1914,1184 L1902,1185 C1891,1187 1904,1177 1895,1177 C1886,1178 1900,1187 1890,1185 L1881,1184 1881,1184 L1881,1194 C1881,1205 1885,1192 1886,1201 C1887,1211 1881,1198 1881,1207 L1881,1216 1881,1216 L1891,1216 C1902,1216 1889,1220 1899,1221 C1909,1222 1895,1216 1904,1216 L1914,1216 1914,1216 L1914,1207 C1914,1198 1905,1211 1904,1199 C1903,1188 1918,1201 1916,1192 L1914,1184"/></g><clipPath id="c" clipRule="evenodd" fill="transparent"><use href="#t4867"/></clipPath></defs><svg viewBox="1880 1176 39 47" preserveAspectRatio="xMinYMin meet"><svg width="4380" height="2430"><g><image crossorigin="anonymous" x="0" y="0" href="https://nftpuzzle.license-token.com/assets/completepuzzle.svg" width="100%" height="100%" /><g class="links"><use href="#t4867"/></g></g></svg><svg x="1904" y="1208" height="9%" width="9%" viewBox="0 0 330 330"><g><a xlink:href="https://nftpuzzle.license-token.com/" class="links"><title>See the most innovative NFT based token software licensing project</title><path fill="#E4CF37" id="more" d="M165,0C74.019,0,0,74.019,0,165s74.019,165,165,165s165-74.019,165-165S255.981,0,165,0z M85,190 c-13.785,0-25-11.215-25-25s11.215-25,25-25s25,11.215,25,25S98.785,190,85,190z M165,190c-13.785,0-25-11.215-25-25 s11.215-25,25-25s25,11.215,25,25S178.785,190,165,190z M245,190c-13.785,0-25-11.215-25-25s11.215-25,25-25 c13.785,0,25,11.215,25,25S258.785,190,245,190z"></path></a></g></svg></svg></svg>