<svg version="1.1" xmlns="http://www.w3.org/2000/svg" xmlns:xlink="http://www.w3.org/1999/xlink" fill="transparent" x="0" y="0" width="350" height="350" preserveAspectRatio="xMinYMin slice"><style type="text/css">.links{fill:transparent;stroke: #E4CF37;}.links:hover{fill:#63D272; opacity:0.4;}</style><defs><g id="allt"><path id="t4868" d="M1947,1184 L1936,1185 C1925,1187 1938,1176 1928,1175 C1919,1174 1935,1186 1924,1185 L1914,1184 1914,1184 L1916,1192 C1918,1201 1903,1188 1904,1199 C1905,1211 1914,1198 1914,1207 L1914,1216 1914,1216 L1923,1218 C1932,1220 1918,1205 1930,1206 C1942,1207 1928,1216 1937,1216 L1947,1216 1947,1216 L1948,1206 C1949,1196 1939,1208 1941,1200 C1944,1193 1947,1203 1947,1193 L1947,1184"/></g><clipPath id="c" clipRule="evenodd" fill="transparent"><use href="#t4868"/></clipPath></defs><svg viewBox="1902 1173 48 48" preserveAspectRatio="xMinYMin meet"><svg width="4380" height="2430"><g><image crossorigin="anonymous" x="0" y="0" href="https://nftpuzzle.license-token.com/assets/completepuzzle.svg" width="100%" height="100%" /><g class="links"><use href="#t4868"/></g></g></svg><svg x="1935" y="1206" height="9%" width="9%" viewBox="0 0 330 330"><g><a xlink:href="https://nftpuzzle.license-token.com/" class="links"><title>See the most innovative NFT based token software licensing project</title><path fill="#E4CF37" id="more" d="M165,0C74.019,0,0,74.019,0,165s74.019,165,165,165s165-74.019,165-165S255.981,0,165,0z M85,190 c-13.785,0-25-11.215-25-25s11.215-25,25-25s25,11.215,25,25S98.785,190,85,190z M165,190c-13.785,0-25-11.215-25-25 s11.215-25,25-25s25,11.215,25,25S178.785,190,165,190z M245,190c-13.785,0-25-11.215-25-25s11.215-25,25-25 c13.785,0,25,11.215,25,25S258.785,190,245,190z"></path></a></g></svg></svg></svg>