<svg version="1.1" xmlns="http://www.w3.org/2000/svg" xmlns:xlink="http://www.w3.org/1999/xlink" fill="transparent" x="0" y="0" width="350" height="350" preserveAspectRatio="xMinYMin slice"><style type="text/css">.links{fill:transparent;stroke: #E4CF37;}.links:hover{fill:#63D272; opacity:0.4;}</style><defs><g id="allt"><path id="t4876" d="M2211,1184 L2200,1182 C2190,1181 2202,1189 2193,1189 C2185,1189 2199,1184 2188,1184 L2178,1184 2178,1184 L2178,1194 C2178,1204 2182,1192 2181,1200 C2181,1209 2178,1195 2178,1205 L2178,1216 2178,1216 L2188,1216 C2199,1216 2186,1220 2195,1219 C2204,1219 2189,1216 2200,1216 L2211,1216 2211,1216 L2210,1206 C2210,1197 2214,1206 2215,1198 C2217,1190 2210,1202 2210,1193 L2211,1184"/></g><clipPath id="c" clipRule="evenodd" fill="transparent"><use href="#t4876"/></clipPath></defs><svg viewBox="2177 1180 41 41" preserveAspectRatio="xMinYMin meet"><svg width="4380" height="2430"><g><image crossorigin="anonymous" x="0" y="0" href="https://nftpuzzle.license-token.com/assets/completepuzzle.svg" width="100%" height="100%" /><g class="links"><use href="#t4876"/></g></g></svg><svg x="2203" y="1206" height="9%" width="9%" viewBox="0 0 330 330"><g><a xlink:href="https://nftpuzzle.license-token.com/" class="links"><title>See the most innovative NFT based token software licensing project</title><path fill="#E4CF37" id="more" d="M165,0C74.019,0,0,74.019,0,165s74.019,165,165,165s165-74.019,165-165S255.981,0,165,0z M85,190 c-13.785,0-25-11.215-25-25s11.215-25,25-25s25,11.215,25,25S98.785,190,85,190z M165,190c-13.785,0-25-11.215-25-25 s11.215-25,25-25s25,11.215,25,25S178.785,190,165,190z M245,190c-13.785,0-25-11.215-25-25s11.215-25,25-25 c13.785,0,25,11.215,25,25S258.785,190,245,190z"></path></a></g></svg></svg></svg>