<svg version="1.1" xmlns="http://www.w3.org/2000/svg" xmlns:xlink="http://www.w3.org/1999/xlink" fill="transparent" x="0" y="0" width="350" height="350" preserveAspectRatio="xMinYMin slice"><style type="text/css">.links{fill:transparent;stroke: #E4CF37;}.links:hover{fill:#63D272; opacity:0.4;}</style><defs><g id="allt"><path id="t4880" d="M2343,1184 L2333,1183 C2323,1182 2336,1189 2325,1192 C2314,1195 2329,1182 2319,1183 L2310,1184 2310,1184 L2310,1193 C2310,1203 2307,1191 2306,1198 C2306,1206 2310,1197 2310,1206 L2310,1216 2310,1216 L2320,1216 C2330,1216 2317,1213 2325,1212 C2333,1212 2323,1216 2333,1216 L2343,1216 2343,1216 L2343,1206 C2344,1197 2335,1211 2337,1201 C2339,1192 2344,1204 2343,1194 L2343,1184"/></g><clipPath id="c" clipRule="evenodd" fill="transparent"><use href="#t4880"/></clipPath></defs><svg viewBox="2305 1181 40 36" preserveAspectRatio="xMinYMin meet"><svg width="4380" height="2430"><g><image crossorigin="anonymous" x="0" y="0" href="https://nftpuzzle.license-token.com/assets/completepuzzle.svg" width="100%" height="100%" /><g class="links"><use href="#t4880"/></g></g></svg><svg x="2330" y="1202" height="9%" width="9%" viewBox="0 0 330 330"><g><a xlink:href="https://nftpuzzle.license-token.com/" class="links"><title>See the most innovative NFT based token software licensing project</title><path fill="#E4CF37" id="more" d="M165,0C74.019,0,0,74.019,0,165s74.019,165,165,165s165-74.019,165-165S255.981,0,165,0z M85,190 c-13.785,0-25-11.215-25-25s11.215-25,25-25s25,11.215,25,25S98.785,190,85,190z M165,190c-13.785,0-25-11.215-25-25 s11.215-25,25-25s25,11.215,25,25S178.785,190,165,190z M245,190c-13.785,0-25-11.215-25-25s11.215-25,25-25 c13.785,0,25,11.215,25,25S258.785,190,245,190z"></path></a></g></svg></svg></svg>