<svg version="1.1" xmlns="http://www.w3.org/2000/svg" xmlns:xlink="http://www.w3.org/1999/xlink" fill="transparent" x="0" y="0" width="350" height="350" preserveAspectRatio="xMinYMin slice"><style type="text/css">.links{fill:transparent;stroke: #E4CF37;}.links:hover{fill:#63D272; opacity:0.4;}</style><defs><g id="allt"><path id="t4882" d="M2409,1184 L2398,1184 C2387,1184 2402,1189 2391,1188 C2381,1187 2396,1184 2386,1184 L2376,1184 2376,1184 L2376,1194 C2376,1204 2380,1192 2381,1201 C2382,1210 2374,1197 2375,1206 L2376,1216 2376,1216 L2386,1216 C2397,1216 2384,1220 2393,1221 C2403,1222 2389,1214 2399,1215 L2409,1216 2409,1216 L2409,1205 C2409,1195 2403,1211 2402,1201 C2402,1191 2410,1204 2409,1194 L2409,1184"/></g><clipPath id="c" clipRule="evenodd" fill="transparent"><use href="#t4882"/></clipPath></defs><svg viewBox="2373 1183 38 40" preserveAspectRatio="xMinYMin meet"><svg width="4380" height="2430"><g><image crossorigin="anonymous" x="0" y="0" href="https://nftpuzzle.license-token.com/assets/completepuzzle.svg" width="100%" height="100%" /><g class="links"><use href="#t4882"/></g></g></svg><svg x="2396" y="1208" height="9%" width="9%" viewBox="0 0 330 330"><g><a xlink:href="https://nftpuzzle.license-token.com/" class="links"><title>See the most innovative NFT based token software licensing project</title><path fill="#E4CF37" id="more" d="M165,0C74.019,0,0,74.019,0,165s74.019,165,165,165s165-74.019,165-165S255.981,0,165,0z M85,190 c-13.785,0-25-11.215-25-25s11.215-25,25-25s25,11.215,25,25S98.785,190,85,190z M165,190c-13.785,0-25-11.215-25-25 s11.215-25,25-25s25,11.215,25,25S178.785,190,165,190z M245,190c-13.785,0-25-11.215-25-25s11.215-25,25-25 c13.785,0,25,11.215,25,25S258.785,190,245,190z"></path></a></g></svg></svg></svg>