<svg version="1.1" xmlns="http://www.w3.org/2000/svg" xmlns:xlink="http://www.w3.org/1999/xlink" fill="transparent" x="0" y="0" width="350" height="350" preserveAspectRatio="xMinYMin slice"><style type="text/css">.links{fill:transparent;stroke: #E4CF37;}.links:hover{fill:#63D272; opacity:0.4;}</style><defs><g id="allt"><path id="t4883" d="M2442,1184 L2431,1184 C2421,1184 2437,1180 2425,1179 C2414,1179 2430,1184 2419,1184 L2409,1184 2409,1184 L2409,1194 C2410,1204 2402,1191 2402,1201 C2403,1211 2409,1195 2409,1205 L2409,1216 2409,1216 L2419,1216 C2429,1217 2416,1209 2426,1209 C2437,1210 2420,1216 2431,1216 L2442,1216 2442,1216 L2442,1207 C2442,1198 2430,1210 2429,1200 C2428,1191 2446,1203 2444,1193 L2442,1184"/></g><clipPath id="c" clipRule="evenodd" fill="transparent"><use href="#t4883"/></clipPath></defs><svg viewBox="2401 1178 46 40" preserveAspectRatio="xMinYMin meet"><svg width="4380" height="2430"><g><image crossorigin="anonymous" x="0" y="0" href="https://nftpuzzle.license-token.com/assets/completepuzzle.svg" width="100%" height="100%" /><g class="links"><use href="#t4883"/></g></g></svg><svg x="2432" y="1203" height="9%" width="9%" viewBox="0 0 330 330"><g><a xlink:href="https://nftpuzzle.license-token.com/" class="links"><title>See the most innovative NFT based token software licensing project</title><path fill="#E4CF37" id="more" d="M165,0C74.019,0,0,74.019,0,165s74.019,165,165,165s165-74.019,165-165S255.981,0,165,0z M85,190 c-13.785,0-25-11.215-25-25s11.215-25,25-25s25,11.215,25,25S98.785,190,85,190z M165,190c-13.785,0-25-11.215-25-25 s11.215-25,25-25s25,11.215,25,25S178.785,190,165,190z M245,190c-13.785,0-25-11.215-25-25s11.215-25,25-25 c13.785,0,25,11.215,25,25S258.785,190,245,190z"></path></a></g></svg></svg></svg>