<svg version="1.1" xmlns="http://www.w3.org/2000/svg" xmlns:xlink="http://www.w3.org/1999/xlink" fill="transparent" x="0" y="0" width="350" height="350" preserveAspectRatio="xMinYMin slice"><style type="text/css">.links{fill:transparent;stroke: #E4CF37;}.links:hover{fill:#63D272; opacity:0.4;}</style><defs><g id="allt"><path id="t4885" d="M2508,1184 L2497,1185 C2486,1186 2498,1180 2489,1178 C2480,1176 2495,1186 2485,1185 L2475,1184 2475,1184 L2476,1193 C2477,1202 2469,1192 2468,1201 C2467,1210 2475,1195 2475,1205 L2475,1216 2475,1216 L2484,1217 C2494,1218 2483,1210 2492,1209 C2502,1208 2486,1216 2497,1216 L2508,1216 2508,1216 L2509,1206 C2511,1197 2499,1207 2498,1198 C2498,1190 2508,1203 2508,1193 L2508,1184"/></g><clipPath id="c" clipRule="evenodd" fill="transparent"><use href="#t4885"/></clipPath></defs><svg viewBox="2466 1175 46 44" preserveAspectRatio="xMinYMin meet"><svg width="4380" height="2430"><g><image crossorigin="anonymous" x="0" y="0" href="https://nftpuzzle.license-token.com/assets/completepuzzle.svg" width="100%" height="100%" /><g class="links"><use href="#t4885"/></g></g></svg><svg x="2497" y="1204" height="9%" width="9%" viewBox="0 0 330 330"><g><a xlink:href="https://nftpuzzle.license-token.com/" class="links"><title>See the most innovative NFT based token software licensing project</title><path fill="#E4CF37" id="more" d="M165,0C74.019,0,0,74.019,0,165s74.019,165,165,165s165-74.019,165-165S255.981,0,165,0z M85,190 c-13.785,0-25-11.215-25-25s11.215-25,25-25s25,11.215,25,25S98.785,190,85,190z M165,190c-13.785,0-25-11.215-25-25 s11.215-25,25-25s25,11.215,25,25S178.785,190,165,190z M245,190c-13.785,0-25-11.215-25-25s11.215-25,25-25 c13.785,0,25,11.215,25,25S258.785,190,245,190z"></path></a></g></svg></svg></svg>