<svg version="1.1" xmlns="http://www.w3.org/2000/svg" xmlns:xlink="http://www.w3.org/1999/xlink" fill="transparent" x="0" y="0" width="350" height="350" preserveAspectRatio="xMinYMin slice"><style type="text/css">.links{fill:transparent;stroke: #E4CF37;}.links:hover{fill:#63D272; opacity:0.4;}</style><defs><g id="allt"><path id="t4886" d="M2541,1184 L2530,1184 C2519,1184 2533,1188 2525,1188 C2517,1188 2529,1183 2518,1183 L2508,1184 2508,1184 L2508,1193 C2508,1203 2498,1190 2498,1198 C2499,1207 2511,1197 2509,1206 L2508,1216 2508,1216 L2518,1216 C2528,1216 2514,1206 2523,1207 C2532,1208 2522,1219 2531,1217 L2541,1216 2541,1216 L2538,1206 C2535,1196 2552,1209 2550,1199 C2548,1189 2535,1205 2538,1194 L2541,1184"/></g><clipPath id="c" clipRule="evenodd" fill="transparent"><use href="#t4886"/></clipPath></defs><svg viewBox="2497 1182 56 38" preserveAspectRatio="xMinYMin meet"><svg width="4380" height="2430"><g><image crossorigin="anonymous" x="0" y="0" href="https://nftpuzzle.license-token.com/assets/completepuzzle.svg" width="100%" height="100%" /><g class="links"><use href="#t4886"/></g></g></svg><svg x="2538" y="1205" height="9%" width="9%" viewBox="0 0 330 330"><g><a xlink:href="https://nftpuzzle.license-token.com/" class="links"><title>See the most innovative NFT based token software licensing project</title><path fill="#E4CF37" id="more" d="M165,0C74.019,0,0,74.019,0,165s74.019,165,165,165s165-74.019,165-165S255.981,0,165,0z M85,190 c-13.785,0-25-11.215-25-25s11.215-25,25-25s25,11.215,25,25S98.785,190,85,190z M165,190c-13.785,0-25-11.215-25-25 s11.215-25,25-25s25,11.215,25,25S178.785,190,165,190z M245,190c-13.785,0-25-11.215-25-25s11.215-25,25-25 c13.785,0,25,11.215,25,25S258.785,190,245,190z"></path></a></g></svg></svg></svg>