<svg version="1.1" xmlns="http://www.w3.org/2000/svg" xmlns:xlink="http://www.w3.org/1999/xlink" fill="transparent" x="0" y="0" width="350" height="350" preserveAspectRatio="xMinYMin slice"><style type="text/css">.links{fill:transparent;stroke: #E4CF37;}.links:hover{fill:#63D272; opacity:0.4;}</style><defs><g id="allt"><path id="t489" d="M3300,96 L3290,96 C3281,97 3293,87 3284,87 C3275,88 3288,98 3277,97 L3267,96 3267,96 L3267,105 C3267,114 3264,104 3263,111 C3263,119 3269,109 3268,118 L3267,128 3267,128 L3276,128 C3286,128 3275,125 3282,124 C3290,124 3281,130 3290,129 L3300,128 3300,128 L3300,117 C3300,106 3303,120 3303,112 C3303,104 3300,116 3300,106 L3300,96"/></g><clipPath id="c" clipRule="evenodd" fill="transparent"><use href="#t489"/></clipPath></defs><svg viewBox="3262 86 42 45" preserveAspectRatio="xMinYMin meet"><svg width="4380" height="2430"><g><image crossorigin="anonymous" x="0" y="0" href="https://nftpuzzle.license-token.com/assets/completepuzzle.svg" width="100%" height="100%" /><g class="links"><use href="#t489"/></g></g></svg><svg x="3289" y="116" height="9%" width="9%" viewBox="0 0 330 330"><g><a xlink:href="https://nftpuzzle.license-token.com/" class="links"><title>See the most innovative NFT based token software licensing project</title><path fill="#E4CF37" id="more" d="M165,0C74.019,0,0,74.019,0,165s74.019,165,165,165s165-74.019,165-165S255.981,0,165,0z M85,190 c-13.785,0-25-11.215-25-25s11.215-25,25-25s25,11.215,25,25S98.785,190,85,190z M165,190c-13.785,0-25-11.215-25-25 s11.215-25,25-25s25,11.215,25,25S178.785,190,165,190z M245,190c-13.785,0-25-11.215-25-25s11.215-25,25-25 c13.785,0,25,11.215,25,25S258.785,190,245,190z"></path></a></g></svg></svg></svg>