<svg version="1.1" xmlns="http://www.w3.org/2000/svg" xmlns:xlink="http://www.w3.org/1999/xlink" fill="transparent" x="0" y="0" width="350" height="350" preserveAspectRatio="xMinYMin slice"><style type="text/css">.links{fill:transparent;stroke: #E4CF37;}.links:hover{fill:#63D272; opacity:0.4;}</style><defs><g id="allt"><path id="t4892" d="M2739,1184 L2728,1182 C2717,1180 2732,1190 2721,1189 C2710,1189 2727,1182 2716,1183 L2706,1184 2706,1184 L2704,1194 C2703,1204 2710,1191 2710,1199 C2711,1208 2706,1196 2706,1206 L2706,1216 2706,1216 L2716,1214 C2727,1213 2713,1220 2722,1220 C2731,1221 2718,1216 2728,1216 L2739,1216 2739,1216 L2738,1206 C2737,1196 2742,1206 2742,1197 C2742,1189 2737,1204 2738,1194 L2739,1184"/></g><clipPath id="c" clipRule="evenodd" fill="transparent"><use href="#t4892"/></clipPath></defs><svg viewBox="2702 1179 41 43" preserveAspectRatio="xMinYMin meet"><svg width="4380" height="2430"><g><image crossorigin="anonymous" x="0" y="0" href="https://nftpuzzle.license-token.com/assets/completepuzzle.svg" width="100%" height="100%" /><g class="links"><use href="#t4892"/></g></g></svg><svg x="2728" y="1207" height="9%" width="9%" viewBox="0 0 330 330"><g><a xlink:href="https://nftpuzzle.license-token.com/" class="links"><title>See the most innovative NFT based token software licensing project</title><path fill="#E4CF37" id="more" d="M165,0C74.019,0,0,74.019,0,165s74.019,165,165,165s165-74.019,165-165S255.981,0,165,0z M85,190 c-13.785,0-25-11.215-25-25s11.215-25,25-25s25,11.215,25,25S98.785,190,85,190z M165,190c-13.785,0-25-11.215-25-25 s11.215-25,25-25s25,11.215,25,25S178.785,190,165,190z M245,190c-13.785,0-25-11.215-25-25s11.215-25,25-25 c13.785,0,25,11.215,25,25S258.785,190,245,190z"></path></a></g></svg></svg></svg>