<svg version="1.1" xmlns="http://www.w3.org/2000/svg" xmlns:xlink="http://www.w3.org/1999/xlink" fill="transparent" x="0" y="0" width="350" height="350" preserveAspectRatio="xMinYMin slice"><style type="text/css">.links{fill:transparent;stroke: #E4CF37;}.links:hover{fill:#63D272; opacity:0.4;}</style><defs><g id="allt"><path id="t4895" d="M2838,1184 L2828,1184 C2818,1185 2832,1179 2821,1180 C2811,1181 2825,1185 2815,1184 L2805,1184 2805,1184 L2806,1194 C2807,1205 2801,1193 2799,1201 C2797,1210 2806,1195 2805,1205 L2805,1216 2805,1216 L2815,1217 C2826,1218 2814,1212 2823,1210 C2832,1208 2816,1217 2827,1216 L2838,1216 2838,1216 L2838,1207 C2838,1198 2831,1206 2832,1197 C2833,1189 2841,1205 2839,1194 L2838,1184"/></g><clipPath id="c" clipRule="evenodd" fill="transparent"><use href="#t4895"/></clipPath></defs><svg viewBox="2796 1178 46 41" preserveAspectRatio="xMinYMin meet"><svg width="4380" height="2430"><g><image crossorigin="anonymous" x="0" y="0" href="https://nftpuzzle.license-token.com/assets/completepuzzle.svg" width="100%" height="100%" /><g class="links"><use href="#t4895"/></g></g></svg><svg x="2827" y="1204" height="9%" width="9%" viewBox="0 0 330 330"><g><a xlink:href="https://nftpuzzle.license-token.com/" class="links"><title>See the most innovative NFT based token software licensing project</title><path fill="#E4CF37" id="more" d="M165,0C74.019,0,0,74.019,0,165s74.019,165,165,165s165-74.019,165-165S255.981,0,165,0z M85,190 c-13.785,0-25-11.215-25-25s11.215-25,25-25s25,11.215,25,25S98.785,190,85,190z M165,190c-13.785,0-25-11.215-25-25 s11.215-25,25-25s25,11.215,25,25S178.785,190,165,190z M245,190c-13.785,0-25-11.215-25-25s11.215-25,25-25 c13.785,0,25,11.215,25,25S258.785,190,245,190z"></path></a></g></svg></svg></svg>