<svg version="1.1" xmlns="http://www.w3.org/2000/svg" xmlns:xlink="http://www.w3.org/1999/xlink" fill="transparent" x="0" y="0" width="350" height="350" preserveAspectRatio="xMinYMin slice"><style type="text/css">.links{fill:transparent;stroke: #E4CF37;}.links:hover{fill:#63D272; opacity:0.4;}</style><defs><g id="allt"><path id="t4902" d="M3069,1184 L3059,1184 C3049,1184 3059,1180 3050,1179 C3042,1179 3055,1186 3045,1185 L3036,1184 3036,1184 L3036,1193 C3036,1203 3032,1192 3030,1201 C3029,1210 3036,1194 3036,1205 L3036,1216 3036,1216 L3046,1216 C3056,1216 3044,1212 3053,1210 C3063,1209 3046,1216 3057,1216 L3069,1216 3069,1216 L3069,1205 C3069,1194 3078,1209 3079,1199 C3080,1190 3064,1202 3066,1193 L3069,1184"/></g><clipPath id="c" clipRule="evenodd" fill="transparent"><use href="#t4902"/></clipPath></defs><svg viewBox="3028 1178 53 39" preserveAspectRatio="xMinYMin meet"><svg width="4380" height="2430"><g><image crossorigin="anonymous" x="0" y="0" href="https://nftpuzzle.license-token.com/assets/completepuzzle.svg" width="100%" height="100%" /><g class="links"><use href="#t4902"/></g></g></svg><svg x="3066" y="1202" height="9%" width="9%" viewBox="0 0 330 330"><g><a xlink:href="https://nftpuzzle.license-token.com/" class="links"><title>See the most innovative NFT based token software licensing project</title><path fill="#E4CF37" id="more" d="M165,0C74.019,0,0,74.019,0,165s74.019,165,165,165s165-74.019,165-165S255.981,0,165,0z M85,190 c-13.785,0-25-11.215-25-25s11.215-25,25-25s25,11.215,25,25S98.785,190,85,190z M165,190c-13.785,0-25-11.215-25-25 s11.215-25,25-25s25,11.215,25,25S178.785,190,165,190z M245,190c-13.785,0-25-11.215-25-25s11.215-25,25-25 c13.785,0,25,11.215,25,25S258.785,190,245,190z"></path></a></g></svg></svg></svg>