<svg version="1.1" xmlns="http://www.w3.org/2000/svg" xmlns:xlink="http://www.w3.org/1999/xlink" fill="transparent" x="0" y="0" width="350" height="350" preserveAspectRatio="xMinYMin slice"><style type="text/css">.links{fill:transparent;stroke: #E4CF37;}.links:hover{fill:#63D272; opacity:0.4;}</style><defs><g id="allt"><path id="t4904" d="M3135,1184 L3124,1183 C3113,1183 3128,1193 3119,1195 C3110,1197 3120,1184 3111,1184 L3102,1184 3102,1184 L3103,1193 C3105,1203 3099,1189 3098,1199 C3097,1210 3105,1197 3103,1206 L3102,1216 3102,1216 L3112,1217 C3122,1219 3107,1213 3118,1212 C3129,1211 3115,1219 3125,1217 L3135,1216 3135,1216 L3135,1207 C3135,1198 3142,1208 3141,1200 C3140,1193 3135,1204 3135,1194 L3135,1184"/></g><clipPath id="c" clipRule="evenodd" fill="transparent"><use href="#t4904"/></clipPath></defs><svg viewBox="3096 1182 47 38" preserveAspectRatio="xMinYMin meet"><svg width="4380" height="2430"><g><image crossorigin="anonymous" x="0" y="0" href="https://nftpuzzle.license-token.com/assets/completepuzzle.svg" width="100%" height="100%" /><g class="links"><use href="#t4904"/></g></g></svg><svg x="3128" y="1205" height="9%" width="9%" viewBox="0 0 330 330"><g><a xlink:href="https://nftpuzzle.license-token.com/" class="links"><title>See the most innovative NFT based token software licensing project</title><path fill="#E4CF37" id="more" d="M165,0C74.019,0,0,74.019,0,165s74.019,165,165,165s165-74.019,165-165S255.981,0,165,0z M85,190 c-13.785,0-25-11.215-25-25s11.215-25,25-25s25,11.215,25,25S98.785,190,85,190z M165,190c-13.785,0-25-11.215-25-25 s11.215-25,25-25s25,11.215,25,25S178.785,190,165,190z M245,190c-13.785,0-25-11.215-25-25s11.215-25,25-25 c13.785,0,25,11.215,25,25S258.785,190,245,190z"></path></a></g></svg></svg></svg>