<svg version="1.1" xmlns="http://www.w3.org/2000/svg" xmlns:xlink="http://www.w3.org/1999/xlink" fill="transparent" x="0" y="0" width="350" height="350" preserveAspectRatio="xMinYMin slice"><style type="text/css">.links{fill:transparent;stroke: #E4CF37;}.links:hover{fill:#63D272; opacity:0.4;}</style><defs><g id="allt"><path id="t4910" d="M3333,1184 L3323,1184 C3313,1184 3325,1186 3316,1187 C3308,1188 3320,1184 3310,1184 L3300,1184 3300,1184 L3302,1194 C3304,1204 3291,1190 3292,1198 C3293,1207 3301,1195 3300,1205 L3300,1216 3300,1216 L3310,1218 C3321,1220 3306,1207 3315,1208 C3324,1209 3312,1217 3322,1216 L3333,1216 3333,1216 L3331,1205 C3330,1194 3339,1208 3338,1198 C3338,1189 3330,1204 3331,1194 L3333,1184"/></g><clipPath id="c" clipRule="evenodd" fill="transparent"><use href="#t4910"/></clipPath></defs><svg viewBox="3290 1183 50 38" preserveAspectRatio="xMinYMin meet"><svg width="4380" height="2430"><g><image crossorigin="anonymous" x="0" y="0" href="https://nftpuzzle.license-token.com/assets/completepuzzle.svg" width="100%" height="100%" /><g class="links"><use href="#t4910"/></g></g></svg><svg x="3325" y="1206" height="9%" width="9%" viewBox="0 0 330 330"><g><a xlink:href="https://nftpuzzle.license-token.com/" class="links"><title>See the most innovative NFT based token software licensing project</title><path fill="#E4CF37" id="more" d="M165,0C74.019,0,0,74.019,0,165s74.019,165,165,165s165-74.019,165-165S255.981,0,165,0z M85,190 c-13.785,0-25-11.215-25-25s11.215-25,25-25s25,11.215,25,25S98.785,190,85,190z M165,190c-13.785,0-25-11.215-25-25 s11.215-25,25-25s25,11.215,25,25S178.785,190,165,190z M245,190c-13.785,0-25-11.215-25-25s11.215-25,25-25 c13.785,0,25,11.215,25,25S258.785,190,245,190z"></path></a></g></svg></svg></svg>