<svg version="1.1" xmlns="http://www.w3.org/2000/svg" xmlns:xlink="http://www.w3.org/1999/xlink" fill="transparent" x="0" y="0" width="350" height="350" preserveAspectRatio="xMinYMin slice"><style type="text/css">.links{fill:transparent;stroke: #E4CF37;}.links:hover{fill:#63D272; opacity:0.4;}</style><defs><g id="allt"><path id="t4911" d="M3366,1184 L3355,1184 C3344,1184 3359,1177 3350,1178 C3342,1179 3354,1185 3343,1184 L3333,1184 3333,1184 L3331,1194 C3330,1204 3338,1189 3338,1198 C3339,1208 3330,1194 3331,1205 L3333,1216 3333,1216 L3343,1214 C3354,1213 3338,1221 3347,1221 C3357,1222 3343,1213 3354,1214 L3366,1216 3366,1216 L3367,1205 C3368,1194 3360,1206 3361,1199 C3363,1192 3366,1204 3366,1194 L3366,1184"/></g><clipPath id="c" clipRule="evenodd" fill="transparent"><use href="#t4911"/></clipPath></defs><svg viewBox="3329 1176 40 47" preserveAspectRatio="xMinYMin meet"><svg width="4380" height="2430"><g><image crossorigin="anonymous" x="0" y="0" href="https://nftpuzzle.license-token.com/assets/completepuzzle.svg" width="100%" height="100%" /><g class="links"><use href="#t4911"/></g></g></svg><svg x="3354" y="1208" height="9%" width="9%" viewBox="0 0 330 330"><g><a xlink:href="https://nftpuzzle.license-token.com/" class="links"><title>See the most innovative NFT based token software licensing project</title><path fill="#E4CF37" id="more" d="M165,0C74.019,0,0,74.019,0,165s74.019,165,165,165s165-74.019,165-165S255.981,0,165,0z M85,190 c-13.785,0-25-11.215-25-25s11.215-25,25-25s25,11.215,25,25S98.785,190,85,190z M165,190c-13.785,0-25-11.215-25-25 s11.215-25,25-25s25,11.215,25,25S178.785,190,165,190z M245,190c-13.785,0-25-11.215-25-25s11.215-25,25-25 c13.785,0,25,11.215,25,25S258.785,190,245,190z"></path></a></g></svg></svg></svg>