<svg version="1.1" xmlns="http://www.w3.org/2000/svg" xmlns:xlink="http://www.w3.org/1999/xlink" fill="transparent" x="0" y="0" width="350" height="350" preserveAspectRatio="xMinYMin slice"><style type="text/css">.links{fill:transparent;stroke: #E4CF37;}.links:hover{fill:#63D272; opacity:0.4;}</style><defs><g id="allt"><path id="t4917" d="M3564,1184 L3553,1186 C3542,1188 3559,1178 3549,1178 C3540,1178 3552,1184 3541,1184 L3531,1184 3531,1184 L3531,1193 C3531,1202 3525,1192 3524,1200 C3523,1208 3531,1196 3531,1206 L3531,1216 3531,1216 L3540,1216 C3550,1216 3540,1210 3548,1209 C3556,1208 3544,1216 3554,1216 L3564,1216 3564,1216 L3564,1206 C3564,1197 3553,1209 3555,1201 C3557,1193 3566,1204 3565,1194 L3564,1184"/></g><clipPath id="c" clipRule="evenodd" fill="transparent"><use href="#t4917"/></clipPath></defs><svg viewBox="3522 1177 45 40" preserveAspectRatio="xMinYMin meet"><svg width="4380" height="2430"><g><image crossorigin="anonymous" x="0" y="0" href="https://nftpuzzle.license-token.com/assets/completepuzzle.svg" width="100%" height="100%" /><g class="links"><use href="#t4917"/></g></g></svg><svg x="3552" y="1202" height="9%" width="9%" viewBox="0 0 330 330"><g><a xlink:href="https://nftpuzzle.license-token.com/" class="links"><title>See the most innovative NFT based token software licensing project</title><path fill="#E4CF37" id="more" d="M165,0C74.019,0,0,74.019,0,165s74.019,165,165,165s165-74.019,165-165S255.981,0,165,0z M85,190 c-13.785,0-25-11.215-25-25s11.215-25,25-25s25,11.215,25,25S98.785,190,85,190z M165,190c-13.785,0-25-11.215-25-25 s11.215-25,25-25s25,11.215,25,25S178.785,190,165,190z M245,190c-13.785,0-25-11.215-25-25s11.215-25,25-25 c13.785,0,25,11.215,25,25S258.785,190,245,190z"></path></a></g></svg></svg></svg>