<svg version="1.1" xmlns="http://www.w3.org/2000/svg" xmlns:xlink="http://www.w3.org/1999/xlink" fill="transparent" x="0" y="0" width="350" height="350" preserveAspectRatio="xMinYMin slice"><style type="text/css">.links{fill:transparent;stroke: #E4CF37;}.links:hover{fill:#63D272; opacity:0.4;}</style><defs><g id="allt"><path id="t492" d="M3399,96 L3388,96 C3378,96 3391,92 3382,92 C3373,92 3384,96 3375,96 L3366,96 3366,96 L3366,106 C3366,116 3362,102 3363,111 C3364,120 3366,108 3366,118 L3366,128 3366,128 L3376,128 C3387,128 3372,124 3381,125 C3390,126 3378,128 3388,128 L3399,128 3399,128 L3399,118 C3399,108 3402,120 3403,110 C3404,101 3398,113 3398,104 L3399,96"/></g><clipPath id="c" clipRule="evenodd" fill="transparent"><use href="#t492"/></clipPath></defs><svg viewBox="3361 91 44 38" preserveAspectRatio="xMinYMin meet"><svg width="4380" height="2430"><g><image crossorigin="anonymous" x="0" y="0" href="https://nftpuzzle.license-token.com/assets/completepuzzle.svg" width="100%" height="100%" /><g class="links"><use href="#t492"/></g></g></svg><svg x="3390" y="114" height="9%" width="9%" viewBox="0 0 330 330"><g><a xlink:href="https://nftpuzzle.license-token.com/" class="links"><title>See the most innovative NFT based token software licensing project</title><path fill="#E4CF37" id="more" d="M165,0C74.019,0,0,74.019,0,165s74.019,165,165,165s165-74.019,165-165S255.981,0,165,0z M85,190 c-13.785,0-25-11.215-25-25s11.215-25,25-25s25,11.215,25,25S98.785,190,85,190z M165,190c-13.785,0-25-11.215-25-25 s11.215-25,25-25s25,11.215,25,25S178.785,190,165,190z M245,190c-13.785,0-25-11.215-25-25s11.215-25,25-25 c13.785,0,25,11.215,25,25S258.785,190,245,190z"></path></a></g></svg></svg></svg>