<svg version="1.1" xmlns="http://www.w3.org/2000/svg" xmlns:xlink="http://www.w3.org/1999/xlink" fill="transparent" x="0" y="0" width="350" height="350" preserveAspectRatio="xMinYMin slice"><style type="text/css">.links{fill:transparent;stroke: #E4CF37;}.links:hover{fill:#63D272; opacity:0.4;}</style><defs><g id="allt"><path id="t4923" d="M3762,1184 L3751,1184 C3741,1184 3753,1180 3743,1179 C3734,1179 3750,1184 3739,1184 L3729,1184 3729,1184 L3729,1193 C3729,1202 3734,1192 3733,1200 C3733,1208 3729,1197 3729,1206 L3729,1216 3729,1216 L3738,1216 C3748,1216 3737,1221 3745,1220 C3753,1220 3742,1216 3752,1216 L3762,1216 3762,1216 L3764,1206 C3766,1197 3756,1207 3755,1199 C3754,1192 3762,1203 3762,1193 L3762,1184"/></g><clipPath id="c" clipRule="evenodd" fill="transparent"><use href="#t4923"/></clipPath></defs><svg viewBox="3728 1178 39 44" preserveAspectRatio="xMinYMin meet"><svg width="4380" height="2430"><g><image crossorigin="anonymous" x="0" y="0" href="https://nftpuzzle.license-token.com/assets/completepuzzle.svg" width="100%" height="100%" /><g class="links"><use href="#t4923"/></g></g></svg><svg x="3752" y="1207" height="9%" width="9%" viewBox="0 0 330 330"><g><a xlink:href="https://nftpuzzle.license-token.com/" class="links"><title>See the most innovative NFT based token software licensing project</title><path fill="#E4CF37" id="more" d="M165,0C74.019,0,0,74.019,0,165s74.019,165,165,165s165-74.019,165-165S255.981,0,165,0z M85,190 c-13.785,0-25-11.215-25-25s11.215-25,25-25s25,11.215,25,25S98.785,190,85,190z M165,190c-13.785,0-25-11.215-25-25 s11.215-25,25-25s25,11.215,25,25S178.785,190,165,190z M245,190c-13.785,0-25-11.215-25-25s11.215-25,25-25 c13.785,0,25,11.215,25,25S258.785,190,245,190z"></path></a></g></svg></svg></svg>