<svg version="1.1" xmlns="http://www.w3.org/2000/svg" xmlns:xlink="http://www.w3.org/1999/xlink" fill="transparent" x="0" y="0" width="350" height="350" preserveAspectRatio="xMinYMin slice"><style type="text/css">.links{fill:transparent;stroke: #E4CF37;}.links:hover{fill:#63D272; opacity:0.4;}</style><defs><g id="allt"><path id="t4929" d="M3960,1184 L3948,1184 C3937,1184 3950,1179 3940,1179 C3931,1179 3947,1186 3937,1185 L3927,1184 3927,1184 L3926,1194 C3926,1205 3931,1189 3930,1199 C3930,1209 3927,1195 3927,1205 L3927,1216 3927,1216 L3937,1215 C3948,1215 3932,1220 3942,1219 C3953,1219 3938,1216 3949,1216 L3960,1216 3960,1216 L3960,1207 C3960,1198 3965,1211 3966,1201 C3968,1192 3958,1205 3959,1194 L3960,1184"/></g><clipPath id="c" clipRule="evenodd" fill="transparent"><use href="#t4929"/></clipPath></defs><svg viewBox="3925 1178 44 43" preserveAspectRatio="xMinYMin meet"><svg width="4380" height="2430"><g><image crossorigin="anonymous" x="0" y="0" href="https://nftpuzzle.license-token.com/assets/completepuzzle.svg" width="100%" height="100%" /><g class="links"><use href="#t4929"/></g></g></svg><svg x="3954" y="1206" height="9%" width="9%" viewBox="0 0 330 330"><g><a xlink:href="https://nftpuzzle.license-token.com/" class="links"><title>See the most innovative NFT based token software licensing project</title><path fill="#E4CF37" id="more" d="M165,0C74.019,0,0,74.019,0,165s74.019,165,165,165s165-74.019,165-165S255.981,0,165,0z M85,190 c-13.785,0-25-11.215-25-25s11.215-25,25-25s25,11.215,25,25S98.785,190,85,190z M165,190c-13.785,0-25-11.215-25-25 s11.215-25,25-25s25,11.215,25,25S178.785,190,165,190z M245,190c-13.785,0-25-11.215-25-25s11.215-25,25-25 c13.785,0,25,11.215,25,25S258.785,190,245,190z"></path></a></g></svg></svg></svg>