<svg version="1.1" xmlns="http://www.w3.org/2000/svg" xmlns:xlink="http://www.w3.org/1999/xlink" fill="transparent" x="0" y="0" width="350" height="350" preserveAspectRatio="xMinYMin slice"><style type="text/css">.links{fill:transparent;stroke: #E4CF37;}.links:hover{fill:#63D272; opacity:0.4;}</style><defs><g id="allt"><path id="t4930" d="M3993,1184 L3983,1184 C3973,1184 3986,1177 3975,1176 C3965,1175 3982,1187 3971,1185 L3960,1184 3960,1184 L3959,1194 C3958,1205 3968,1192 3966,1201 C3965,1211 3960,1198 3960,1207 L3960,1216 3960,1216 L3971,1215 C3982,1214 3968,1224 3978,1222 C3988,1221 3974,1216 3983,1216 L3993,1216 3993,1216 L3991,1206 C3990,1197 4003,1210 4001,1200 C3999,1190 3990,1204 3991,1194 L3993,1184"/></g><clipPath id="c" clipRule="evenodd" fill="transparent"><use href="#t4930"/></clipPath></defs><svg viewBox="3957 1174 47 51" preserveAspectRatio="xMinYMin meet"><svg width="4380" height="2430"><g><image crossorigin="anonymous" x="0" y="0" href="https://nftpuzzle.license-token.com/assets/completepuzzle.svg" width="100%" height="100%" /><g class="links"><use href="#t4930"/></g></g></svg><svg x="3989" y="1210" height="9%" width="9%" viewBox="0 0 330 330"><g><a xlink:href="https://nftpuzzle.license-token.com/" class="links"><title>See the most innovative NFT based token software licensing project</title><path fill="#E4CF37" id="more" d="M165,0C74.019,0,0,74.019,0,165s74.019,165,165,165s165-74.019,165-165S255.981,0,165,0z M85,190 c-13.785,0-25-11.215-25-25s11.215-25,25-25s25,11.215,25,25S98.785,190,85,190z M165,190c-13.785,0-25-11.215-25-25 s11.215-25,25-25s25,11.215,25,25S178.785,190,165,190z M245,190c-13.785,0-25-11.215-25-25s11.215-25,25-25 c13.785,0,25,11.215,25,25S258.785,190,245,190z"></path></a></g></svg></svg></svg>