<svg version="1.1" xmlns="http://www.w3.org/2000/svg" xmlns:xlink="http://www.w3.org/1999/xlink" fill="transparent" x="0" y="0" width="350" height="350" preserveAspectRatio="xMinYMin slice"><style type="text/css">.links{fill:transparent;stroke: #E4CF37;}.links:hover{fill:#63D272; opacity:0.4;}</style><defs><g id="allt"><path id="t4931" d="M4026,1184 L4016,1184 C4007,1184 4017,1188 4009,1188 C4001,1189 4014,1184 4003,1184 L3993,1184 3993,1184 L3991,1194 C3990,1204 3999,1190 4001,1200 C4003,1210 3990,1197 3991,1206 L3993,1216 3993,1216 L4003,1214 C4014,1213 3999,1222 4009,1223 C4020,1225 4006,1213 4016,1214 L4026,1216 4026,1216 L4026,1206 C4026,1197 4020,1208 4019,1199 C4019,1191 4030,1204 4028,1194 L4026,1184"/></g><clipPath id="c" clipRule="evenodd" fill="transparent"><use href="#t4931"/></clipPath></defs><svg viewBox="3989 1183 42 43" preserveAspectRatio="xMinYMin meet"><svg width="4380" height="2430"><g><image crossorigin="anonymous" x="0" y="0" href="https://nftpuzzle.license-token.com/assets/completepuzzle.svg" width="100%" height="100%" /><g class="links"><use href="#t4931"/></g></g></svg><svg x="4016" y="1211" height="9%" width="9%" viewBox="0 0 330 330"><g><a xlink:href="https://nftpuzzle.license-token.com/" class="links"><title>See the most innovative NFT based token software licensing project</title><path fill="#E4CF37" id="more" d="M165,0C74.019,0,0,74.019,0,165s74.019,165,165,165s165-74.019,165-165S255.981,0,165,0z M85,190 c-13.785,0-25-11.215-25-25s11.215-25,25-25s25,11.215,25,25S98.785,190,85,190z M165,190c-13.785,0-25-11.215-25-25 s11.215-25,25-25s25,11.215,25,25S178.785,190,165,190z M245,190c-13.785,0-25-11.215-25-25s11.215-25,25-25 c13.785,0,25,11.215,25,25S258.785,190,245,190z"></path></a></g></svg></svg></svg>