<svg version="1.1" xmlns="http://www.w3.org/2000/svg" xmlns:xlink="http://www.w3.org/1999/xlink" fill="transparent" x="0" y="0" width="350" height="350" preserveAspectRatio="xMinYMin slice"><style type="text/css">.links{fill:transparent;stroke: #E4CF37;}.links:hover{fill:#63D272; opacity:0.4;}</style><defs><g id="allt"><path id="t494" d="M3465,96 L3455,95 C3446,95 3455,100 3447,101 C3440,102 3450,96 3441,96 L3432,96 3432,96 L3432,106 C3432,116 3436,103 3436,110 C3436,118 3430,109 3431,118 L3432,128 3432,128 L3442,128 C3453,128 3439,132 3447,132 C3455,132 3445,126 3455,127 L3465,128 3465,128 L3465,118 C3465,108 3468,121 3468,112 C3468,103 3465,113 3465,104 L3465,96"/></g><clipPath id="c" clipRule="evenodd" fill="transparent"><use href="#t494"/></clipPath></defs><svg viewBox="3429 94 40 39" preserveAspectRatio="xMinYMin meet"><svg width="4380" height="2430"><g><image crossorigin="anonymous" x="0" y="0" href="https://nftpuzzle.license-token.com/assets/completepuzzle.svg" width="100%" height="100%" /><g class="links"><use href="#t494"/></g></g></svg><svg x="3454" y="118" height="9%" width="9%" viewBox="0 0 330 330"><g><a xlink:href="https://nftpuzzle.license-token.com/" class="links"><title>See the most innovative NFT based token software licensing project</title><path fill="#E4CF37" id="more" d="M165,0C74.019,0,0,74.019,0,165s74.019,165,165,165s165-74.019,165-165S255.981,0,165,0z M85,190 c-13.785,0-25-11.215-25-25s11.215-25,25-25s25,11.215,25,25S98.785,190,85,190z M165,190c-13.785,0-25-11.215-25-25 s11.215-25,25-25s25,11.215,25,25S178.785,190,165,190z M245,190c-13.785,0-25-11.215-25-25s11.215-25,25-25 c13.785,0,25,11.215,25,25S258.785,190,245,190z"></path></a></g></svg></svg></svg>