<svg version="1.1" xmlns="http://www.w3.org/2000/svg" xmlns:xlink="http://www.w3.org/1999/xlink" fill="transparent" x="0" y="0" width="350" height="350" preserveAspectRatio="xMinYMin slice"><style type="text/css">.links{fill:transparent;stroke: #E4CF37;}.links:hover{fill:#63D272; opacity:0.4;}</style><defs><g id="allt"><path id="t4943" d="M132,1216 L120,1217 C109,1219 124,1209 114,1208 C105,1207 117,1217 108,1216 L99,1216 99,1216 L99,1225 C99,1235 105,1221 103,1231 C102,1242 98,1230 98,1239 L99,1248 99,1248 L109,1248 C119,1248 104,1254 115,1252 C126,1251 113,1247 122,1247 L132,1248 132,1248 L130,1237 C128,1227 141,1243 139,1232 C138,1221 128,1236 130,1226 L132,1216"/></g><clipPath id="c" clipRule="evenodd" fill="transparent"><use href="#t4943"/></clipPath></defs><svg viewBox="97 1206 45 49" preserveAspectRatio="xMinYMin meet"><svg width="4380" height="2430"><g><image crossorigin="anonymous" x="0" y="0" href="https://nftpuzzle.license-token.com/assets/completepuzzle.svg" width="100%" height="100%" /><g class="links"><use href="#t4943"/></g></g></svg><svg x="127" y="1240" height="9%" width="9%" viewBox="0 0 330 330"><g><a xlink:href="https://nftpuzzle.license-token.com/" class="links"><title>See the most innovative NFT based token software licensing project</title><path fill="#E4CF37" id="more" d="M165,0C74.019,0,0,74.019,0,165s74.019,165,165,165s165-74.019,165-165S255.981,0,165,0z M85,190 c-13.785,0-25-11.215-25-25s11.215-25,25-25s25,11.215,25,25S98.785,190,85,190z M165,190c-13.785,0-25-11.215-25-25 s11.215-25,25-25s25,11.215,25,25S178.785,190,165,190z M245,190c-13.785,0-25-11.215-25-25s11.215-25,25-25 c13.785,0,25,11.215,25,25S258.785,190,245,190z"></path></a></g></svg></svg></svg>