<svg version="1.1" xmlns="http://www.w3.org/2000/svg" xmlns:xlink="http://www.w3.org/1999/xlink" fill="transparent" x="0" y="0" width="350" height="350" preserveAspectRatio="xMinYMin slice"><style type="text/css">.links{fill:transparent;stroke: #E4CF37;}.links:hover{fill:#63D272; opacity:0.4;}</style><defs><g id="allt"><path id="t4947" d="M264,1216 L253,1217 C242,1218 258,1213 246,1212 C235,1211 252,1218 241,1217 L231,1216 231,1216 L230,1226 C229,1236 236,1224 235,1231 C235,1238 229,1229 230,1238 L231,1248 231,1248 L241,1247 C252,1246 240,1253 247,1252 C254,1252 244,1246 254,1247 L264,1248 264,1248 L264,1238 C264,1228 254,1238 255,1229 C257,1221 268,1233 266,1224 L264,1216"/></g><clipPath id="c" clipRule="evenodd" fill="transparent"><use href="#t4947"/></clipPath></defs><svg viewBox="228 1210 41 44" preserveAspectRatio="xMinYMin meet"><svg width="4380" height="2430"><g><image crossorigin="anonymous" x="0" y="0" href="https://nftpuzzle.license-token.com/assets/completepuzzle.svg" width="100%" height="100%" /><g class="links"><use href="#t4947"/></g></g></svg><svg x="254" y="1239" height="9%" width="9%" viewBox="0 0 330 330"><g><a xlink:href="https://nftpuzzle.license-token.com/" class="links"><title>See the most innovative NFT based token software licensing project</title><path fill="#E4CF37" id="more" d="M165,0C74.019,0,0,74.019,0,165s74.019,165,165,165s165-74.019,165-165S255.981,0,165,0z M85,190 c-13.785,0-25-11.215-25-25s11.215-25,25-25s25,11.215,25,25S98.785,190,85,190z M165,190c-13.785,0-25-11.215-25-25 s11.215-25,25-25s25,11.215,25,25S178.785,190,165,190z M245,190c-13.785,0-25-11.215-25-25s11.215-25,25-25 c13.785,0,25,11.215,25,25S258.785,190,245,190z"></path></a></g></svg></svg></svg>