<svg version="1.1" xmlns="http://www.w3.org/2000/svg" xmlns:xlink="http://www.w3.org/1999/xlink" fill="transparent" x="0" y="0" width="350" height="350" preserveAspectRatio="xMinYMin slice"><style type="text/css">.links{fill:transparent;stroke: #E4CF37;}.links:hover{fill:#63D272; opacity:0.4;}</style><defs><g id="allt"><path id="t4949" d="M330,1216 L320,1215 C311,1214 324,1222 313,1223 C302,1224 315,1214 306,1215 L297,1216 297,1216 L297,1226 C297,1237 294,1221 294,1230 C294,1240 299,1227 298,1237 L297,1248 297,1248 L307,1248 C318,1248 302,1245 312,1245 C322,1245 308,1250 319,1249 L330,1248 330,1248 L330,1237 C330,1227 334,1241 334,1231 C334,1222 330,1233 330,1224 L330,1216"/></g><clipPath id="c" clipRule="evenodd" fill="transparent"><use href="#t4949"/></clipPath></defs><svg viewBox="293 1213 42 38" preserveAspectRatio="xMinYMin meet"><svg width="4380" height="2430"><g><image crossorigin="anonymous" x="0" y="0" href="https://nftpuzzle.license-token.com/assets/completepuzzle.svg" width="100%" height="100%" /><g class="links"><use href="#t4949"/></g></g></svg><svg x="320" y="1236" height="9%" width="9%" viewBox="0 0 330 330"><g><a xlink:href="https://nftpuzzle.license-token.com/" class="links"><title>See the most innovative NFT based token software licensing project</title><path fill="#E4CF37" id="more" d="M165,0C74.019,0,0,74.019,0,165s74.019,165,165,165s165-74.019,165-165S255.981,0,165,0z M85,190 c-13.785,0-25-11.215-25-25s11.215-25,25-25s25,11.215,25,25S98.785,190,85,190z M165,190c-13.785,0-25-11.215-25-25 s11.215-25,25-25s25,11.215,25,25S178.785,190,165,190z M245,190c-13.785,0-25-11.215-25-25s11.215-25,25-25 c13.785,0,25,11.215,25,25S258.785,190,245,190z"></path></a></g></svg></svg></svg>