<svg version="1.1" xmlns="http://www.w3.org/2000/svg" xmlns:xlink="http://www.w3.org/1999/xlink" fill="transparent" x="0" y="0" width="350" height="350" preserveAspectRatio="xMinYMin slice"><style type="text/css">.links{fill:transparent;stroke: #E4CF37;}.links:hover{fill:#63D272; opacity:0.4;}</style><defs><g id="allt"><path id="t495" d="M3498,96 L3488,96 C3478,96 3492,92 3482,90 C3473,88 3484,96 3474,96 L3465,96 3465,96 L3465,104 C3465,113 3468,103 3468,112 C3468,121 3465,108 3465,118 L3465,128 3465,128 L3474,128 C3483,128 3472,131 3481,131 C3491,131 3477,128 3487,128 L3498,128 3498,128 L3498,117 C3498,106 3493,120 3491,112 C3490,104 3498,116 3498,106 L3498,96"/></g><clipPath id="c" clipRule="evenodd" fill="transparent"><use href="#t495"/></clipPath></defs><svg viewBox="3464 87 35 45" preserveAspectRatio="xMinYMin meet"><svg width="4380" height="2430"><g><image crossorigin="anonymous" x="0" y="0" href="https://nftpuzzle.license-token.com/assets/completepuzzle.svg" width="100%" height="100%" /><g class="links"><use href="#t495"/></g></g></svg><svg x="3484" y="117" height="9%" width="9%" viewBox="0 0 330 330"><g><a xlink:href="https://nftpuzzle.license-token.com/" class="links"><title>See the most innovative NFT based token software licensing project</title><path fill="#E4CF37" id="more" d="M165,0C74.019,0,0,74.019,0,165s74.019,165,165,165s165-74.019,165-165S255.981,0,165,0z M85,190 c-13.785,0-25-11.215-25-25s11.215-25,25-25s25,11.215,25,25S98.785,190,85,190z M165,190c-13.785,0-25-11.215-25-25 s11.215-25,25-25s25,11.215,25,25S178.785,190,165,190z M245,190c-13.785,0-25-11.215-25-25s11.215-25,25-25 c13.785,0,25,11.215,25,25S258.785,190,245,190z"></path></a></g></svg></svg></svg>