<svg version="1.1" xmlns="http://www.w3.org/2000/svg" xmlns:xlink="http://www.w3.org/1999/xlink" fill="transparent" x="0" y="0" width="350" height="350" preserveAspectRatio="xMinYMin slice"><style type="text/css">.links{fill:transparent;stroke: #E4CF37;}.links:hover{fill:#63D272; opacity:0.4;}</style><defs><g id="allt"><path id="t4952" d="M429,1216 L419,1216 C410,1216 423,1208 413,1208 C403,1208 416,1217 406,1216 L396,1216 396,1216 L396,1226 C396,1237 392,1224 393,1233 C394,1242 396,1230 396,1239 L396,1248 396,1248 L406,1248 C417,1248 404,1244 413,1245 C423,1246 410,1248 419,1248 L429,1248 429,1248 L429,1237 C429,1227 432,1239 432,1229 C433,1220 429,1234 429,1225 L429,1216"/></g><clipPath id="c" clipRule="evenodd" fill="transparent"><use href="#t4952"/></clipPath></defs><svg viewBox="391 1207 43 42" preserveAspectRatio="xMinYMin meet"><svg width="4380" height="2430"><g><image crossorigin="anonymous" x="0" y="0" href="https://nftpuzzle.license-token.com/assets/completepuzzle.svg" width="100%" height="100%" /><g class="links"><use href="#t4952"/></g></g></svg><svg x="419" y="1234" height="9%" width="9%" viewBox="0 0 330 330"><g><a xlink:href="https://nftpuzzle.license-token.com/" class="links"><title>See the most innovative NFT based token software licensing project</title><path fill="#E4CF37" id="more" d="M165,0C74.019,0,0,74.019,0,165s74.019,165,165,165s165-74.019,165-165S255.981,0,165,0z M85,190 c-13.785,0-25-11.215-25-25s11.215-25,25-25s25,11.215,25,25S98.785,190,85,190z M165,190c-13.785,0-25-11.215-25-25 s11.215-25,25-25s25,11.215,25,25S178.785,190,165,190z M245,190c-13.785,0-25-11.215-25-25s11.215-25,25-25 c13.785,0,25,11.215,25,25S258.785,190,245,190z"></path></a></g></svg></svg></svg>