<svg version="1.1" xmlns="http://www.w3.org/2000/svg" xmlns:xlink="http://www.w3.org/1999/xlink" fill="transparent" x="0" y="0" width="350" height="350" preserveAspectRatio="xMinYMin slice"><style type="text/css">.links{fill:transparent;stroke: #E4CF37;}.links:hover{fill:#63D272; opacity:0.4;}</style><defs><g id="allt"><path id="t4953" d="M462,1216 L452,1216 C443,1217 454,1211 445,1210 C437,1209 449,1218 439,1217 L429,1216 429,1216 L429,1225 C429,1234 433,1220 432,1229 C432,1239 429,1227 429,1237 L429,1248 429,1248 L438,1248 C448,1248 433,1252 443,1251 C453,1251 440,1248 451,1248 L462,1248 462,1248 L462,1237 C462,1227 452,1240 453,1231 C454,1223 461,1234 461,1225 L462,1216"/></g><clipPath id="c" clipRule="evenodd" fill="transparent"><use href="#t4953"/></clipPath></defs><svg viewBox="428 1208 35 45" preserveAspectRatio="xMinYMin meet"><svg width="4380" height="2430"><g><image crossorigin="anonymous" x="0" y="0" href="https://nftpuzzle.license-token.com/assets/completepuzzle.svg" width="100%" height="100%" /><g class="links"><use href="#t4953"/></g></g></svg><svg x="448" y="1238" height="9%" width="9%" viewBox="0 0 330 330"><g><a xlink:href="https://nftpuzzle.license-token.com/" class="links"><title>See the most innovative NFT based token software licensing project</title><path fill="#E4CF37" id="more" d="M165,0C74.019,0,0,74.019,0,165s74.019,165,165,165s165-74.019,165-165S255.981,0,165,0z M85,190 c-13.785,0-25-11.215-25-25s11.215-25,25-25s25,11.215,25,25S98.785,190,85,190z M165,190c-13.785,0-25-11.215-25-25 s11.215-25,25-25s25,11.215,25,25S178.785,190,165,190z M245,190c-13.785,0-25-11.215-25-25s11.215-25,25-25 c13.785,0,25,11.215,25,25S258.785,190,245,190z"></path></a></g></svg></svg></svg>