<svg version="1.1" xmlns="http://www.w3.org/2000/svg" xmlns:xlink="http://www.w3.org/1999/xlink" fill="transparent" x="0" y="0" width="350" height="350" preserveAspectRatio="xMinYMin slice"><style type="text/css">.links{fill:transparent;stroke: #E4CF37;}.links:hover{fill:#63D272; opacity:0.4;}</style><defs><g id="allt"><path id="t4957" d="M594,1216 L583,1215 C573,1214 587,1219 577,1218 C568,1218 579,1216 570,1216 L561,1216 561,1216 L560,1225 C560,1235 564,1223 563,1232 C563,1241 561,1229 561,1238 L561,1248 561,1248 L571,1247 C581,1247 568,1251 577,1250 C587,1250 574,1248 584,1248 L594,1248 594,1248 L593,1237 C593,1226 601,1241 601,1232 C602,1223 594,1234 594,1225 L594,1216"/></g><clipPath id="c" clipRule="evenodd" fill="transparent"><use href="#t4957"/></clipPath></defs><svg viewBox="559 1213 44 39" preserveAspectRatio="xMinYMin meet"><svg width="4380" height="2430"><g><image crossorigin="anonymous" x="0" y="0" href="https://nftpuzzle.license-token.com/assets/completepuzzle.svg" width="100%" height="100%" /><g class="links"><use href="#t4957"/></g></g></svg><svg x="588" y="1237" height="9%" width="9%" viewBox="0 0 330 330"><g><a xlink:href="https://nftpuzzle.license-token.com/" class="links"><title>See the most innovative NFT based token software licensing project</title><path fill="#E4CF37" id="more" d="M165,0C74.019,0,0,74.019,0,165s74.019,165,165,165s165-74.019,165-165S255.981,0,165,0z M85,190 c-13.785,0-25-11.215-25-25s11.215-25,25-25s25,11.215,25,25S98.785,190,85,190z M165,190c-13.785,0-25-11.215-25-25 s11.215-25,25-25s25,11.215,25,25S178.785,190,165,190z M245,190c-13.785,0-25-11.215-25-25s11.215-25,25-25 c13.785,0,25,11.215,25,25S258.785,190,245,190z"></path></a></g></svg></svg></svg>