<svg version="1.1" xmlns="http://www.w3.org/2000/svg" xmlns:xlink="http://www.w3.org/1999/xlink" fill="transparent" x="0" y="0" width="350" height="350" preserveAspectRatio="xMinYMin slice"><style type="text/css">.links{fill:transparent;stroke: #E4CF37;}.links:hover{fill:#63D272; opacity:0.4;}</style><defs><g id="allt"><path id="t496" d="M3531,96 L3520,96 C3510,97 3525,91 3516,90 C3507,90 3518,97 3508,96 L3498,96 3498,96 L3498,106 C3498,116 3490,104 3491,112 C3493,120 3498,106 3498,117 L3498,128 3498,128 L3508,128 C3518,128 3506,120 3514,121 C3523,123 3508,128 3519,128 L3531,128 3531,128 L3531,118 C3531,108 3539,121 3538,111 C3538,101 3529,113 3530,104 L3531,96"/></g><clipPath id="c" clipRule="evenodd" fill="transparent"><use href="#t496"/></clipPath></defs><svg viewBox="3489 89 51 40" preserveAspectRatio="xMinYMin meet"><svg width="4380" height="2430"><g><image crossorigin="anonymous" x="0" y="0" href="https://nftpuzzle.license-token.com/assets/completepuzzle.svg" width="100%" height="100%" /><g class="links"><use href="#t496"/></g></g></svg><svg x="3525" y="114" height="9%" width="9%" viewBox="0 0 330 330"><g><a xlink:href="https://nftpuzzle.license-token.com/" class="links"><title>See the most innovative NFT based token software licensing project</title><path fill="#E4CF37" id="more" d="M165,0C74.019,0,0,74.019,0,165s74.019,165,165,165s165-74.019,165-165S255.981,0,165,0z M85,190 c-13.785,0-25-11.215-25-25s11.215-25,25-25s25,11.215,25,25S98.785,190,85,190z M165,190c-13.785,0-25-11.215-25-25 s11.215-25,25-25s25,11.215,25,25S178.785,190,165,190z M245,190c-13.785,0-25-11.215-25-25s11.215-25,25-25 c13.785,0,25,11.215,25,25S258.785,190,245,190z"></path></a></g></svg></svg></svg>