<svg version="1.1" xmlns="http://www.w3.org/2000/svg" xmlns:xlink="http://www.w3.org/1999/xlink" fill="transparent" x="0" y="0" width="350" height="350" preserveAspectRatio="xMinYMin slice"><style type="text/css">.links{fill:transparent;stroke: #E4CF37;}.links:hover{fill:#63D272; opacity:0.4;}</style><defs><g id="allt"><path id="t4961" d="M726,1216 L716,1216 C707,1216 717,1222 707,1222 C697,1222 715,1216 704,1216 L693,1216 693,1216 L694,1224 C695,1233 686,1224 685,1232 C684,1240 696,1226 694,1237 L693,1248 693,1248 L702,1249 C711,1250 701,1241 709,1240 C717,1239 704,1251 715,1249 L726,1248 726,1248 L726,1238 C726,1228 721,1241 722,1231 C724,1221 726,1234 726,1225 L726,1216"/></g><clipPath id="c" clipRule="evenodd" fill="transparent"><use href="#t4961"/></clipPath></defs><svg viewBox="683 1215 44 37" preserveAspectRatio="xMinYMin meet"><svg width="4380" height="2430"><g><image crossorigin="anonymous" x="0" y="0" href="https://nftpuzzle.license-token.com/assets/completepuzzle.svg" width="100%" height="100%" /><g class="links"><use href="#t4961"/></g></g></svg><svg x="712" y="1237" height="9%" width="9%" viewBox="0 0 330 330"><g><a xlink:href="https://nftpuzzle.license-token.com/" class="links"><title>See the most innovative NFT based token software licensing project</title><path fill="#E4CF37" id="more" d="M165,0C74.019,0,0,74.019,0,165s74.019,165,165,165s165-74.019,165-165S255.981,0,165,0z M85,190 c-13.785,0-25-11.215-25-25s11.215-25,25-25s25,11.215,25,25S98.785,190,85,190z M165,190c-13.785,0-25-11.215-25-25 s11.215-25,25-25s25,11.215,25,25S178.785,190,165,190z M245,190c-13.785,0-25-11.215-25-25s11.215-25,25-25 c13.785,0,25,11.215,25,25S258.785,190,245,190z"></path></a></g></svg></svg></svg>