<svg version="1.1" xmlns="http://www.w3.org/2000/svg" xmlns:xlink="http://www.w3.org/1999/xlink" fill="transparent" x="0" y="0" width="350" height="350" preserveAspectRatio="xMinYMin slice"><style type="text/css">.links{fill:transparent;stroke: #E4CF37;}.links:hover{fill:#63D272; opacity:0.4;}</style><defs><g id="allt"><path id="t4968" d="M957,1216 L946,1215 C935,1215 950,1221 940,1221 C931,1221 943,1216 933,1216 L924,1216 924,1216 L924,1225 C924,1234 928,1225 927,1232 C927,1240 924,1229 924,1238 L924,1248 924,1248 L933,1248 C942,1248 933,1252 941,1251 C949,1251 938,1248 947,1248 L957,1248 957,1248 L957,1238 C957,1229 948,1240 949,1231 C951,1223 957,1234 957,1225 L957,1216"/></g><clipPath id="c" clipRule="evenodd" fill="transparent"><use href="#t4968"/></clipPath></defs><svg viewBox="923 1214 35 39" preserveAspectRatio="xMinYMin meet"><svg width="4380" height="2430"><g><image crossorigin="anonymous" x="0" y="0" href="https://nftpuzzle.license-token.com/assets/completepuzzle.svg" width="100%" height="100%" /><g class="links"><use href="#t4968"/></g></g></svg><svg x="943" y="1238" height="9%" width="9%" viewBox="0 0 330 330"><g><a xlink:href="https://nftpuzzle.license-token.com/" class="links"><title>See the most innovative NFT based token software licensing project</title><path fill="#E4CF37" id="more" d="M165,0C74.019,0,0,74.019,0,165s74.019,165,165,165s165-74.019,165-165S255.981,0,165,0z M85,190 c-13.785,0-25-11.215-25-25s11.215-25,25-25s25,11.215,25,25S98.785,190,85,190z M165,190c-13.785,0-25-11.215-25-25 s11.215-25,25-25s25,11.215,25,25S178.785,190,165,190z M245,190c-13.785,0-25-11.215-25-25s11.215-25,25-25 c13.785,0,25,11.215,25,25S258.785,190,245,190z"></path></a></g></svg></svg></svg>