<svg version="1.1" xmlns="http://www.w3.org/2000/svg" xmlns:xlink="http://www.w3.org/1999/xlink" fill="transparent" x="0" y="0" width="350" height="350" preserveAspectRatio="xMinYMin slice"><style type="text/css">.links{fill:transparent;stroke: #E4CF37;}.links:hover{fill:#63D272; opacity:0.4;}</style><defs><g id="allt"><path id="t497" d="M3564,96 L3554,96 C3544,96 3557,102 3546,101 C3536,101 3551,96 3541,96 L3531,96 3531,96 L3530,104 C3529,113 3538,101 3538,111 C3539,121 3531,108 3531,118 L3531,128 3531,128 L3540,127 C3549,126 3536,135 3546,135 C3557,136 3543,128 3553,128 L3564,128 3564,128 L3564,117 C3564,106 3558,120 3556,112 C3555,105 3564,113 3564,104 L3564,96"/></g><clipPath id="c" clipRule="evenodd" fill="transparent"><use href="#t497"/></clipPath></defs><svg viewBox="3528 95 37 42" preserveAspectRatio="xMinYMin meet"><svg width="4380" height="2430"><g><image crossorigin="anonymous" x="0" y="0" href="https://nftpuzzle.license-token.com/assets/completepuzzle.svg" width="100%" height="100%" /><g class="links"><use href="#t497"/></g></g></svg><svg x="3550" y="122" height="9%" width="9%" viewBox="0 0 330 330"><g><a xlink:href="https://nftpuzzle.license-token.com/" class="links"><title>See the most innovative NFT based token software licensing project</title><path fill="#E4CF37" id="more" d="M165,0C74.019,0,0,74.019,0,165s74.019,165,165,165s165-74.019,165-165S255.981,0,165,0z M85,190 c-13.785,0-25-11.215-25-25s11.215-25,25-25s25,11.215,25,25S98.785,190,85,190z M165,190c-13.785,0-25-11.215-25-25 s11.215-25,25-25s25,11.215,25,25S178.785,190,165,190z M245,190c-13.785,0-25-11.215-25-25s11.215-25,25-25 c13.785,0,25,11.215,25,25S258.785,190,245,190z"></path></a></g></svg></svg></svg>