<svg version="1.1" xmlns="http://www.w3.org/2000/svg" xmlns:xlink="http://www.w3.org/1999/xlink" fill="transparent" x="0" y="0" width="350" height="350" preserveAspectRatio="xMinYMin slice"><style type="text/css">.links{fill:transparent;stroke: #E4CF37;}.links:hover{fill:#63D272; opacity:0.4;}</style><defs><g id="allt"><path id="t4971" d="M1056,1216 L1045,1216 C1035,1216 1047,1225 1037,1224 C1028,1223 1042,1215 1032,1215 L1023,1216 1023,1216 L1021,1224 C1020,1233 1031,1223 1033,1231 C1035,1240 1023,1228 1023,1238 L1023,1248 1023,1248 L1032,1246 C1041,1245 1030,1256 1039,1257 C1048,1259 1035,1248 1045,1248 L1056,1248 1056,1248 L1056,1239 C1057,1230 1051,1240 1049,1232 C1047,1224 1055,1234 1055,1225 L1056,1216"/></g><clipPath id="c" clipRule="evenodd" fill="transparent"><use href="#t4971"/></clipPath></defs><svg viewBox="1019 1214 39 46" preserveAspectRatio="xMinYMin meet"><svg width="4380" height="2430"><g><image crossorigin="anonymous" x="0" y="0" href="https://nftpuzzle.license-token.com/assets/completepuzzle.svg" width="100%" height="100%" /><g class="links"><use href="#t4971"/></g></g></svg><svg x="1043" y="1245" height="9%" width="9%" viewBox="0 0 330 330"><g><a xlink:href="https://nftpuzzle.license-token.com/" class="links"><title>See the most innovative NFT based token software licensing project</title><path fill="#E4CF37" id="more" d="M165,0C74.019,0,0,74.019,0,165s74.019,165,165,165s165-74.019,165-165S255.981,0,165,0z M85,190 c-13.785,0-25-11.215-25-25s11.215-25,25-25s25,11.215,25,25S98.785,190,85,190z M165,190c-13.785,0-25-11.215-25-25 s11.215-25,25-25s25,11.215,25,25S178.785,190,165,190z M245,190c-13.785,0-25-11.215-25-25s11.215-25,25-25 c13.785,0,25,11.215,25,25S258.785,190,245,190z"></path></a></g></svg></svg></svg>