<svg version="1.1" xmlns="http://www.w3.org/2000/svg" xmlns:xlink="http://www.w3.org/1999/xlink" fill="transparent" x="0" y="0" width="350" height="350" preserveAspectRatio="xMinYMin slice"><style type="text/css">.links{fill:transparent;stroke: #E4CF37;}.links:hover{fill:#63D272; opacity:0.4;}</style><defs><g id="allt"><path id="t4972" d="M1089,1216 L1079,1217 C1070,1218 1081,1208 1073,1209 C1065,1211 1077,1216 1066,1216 L1056,1216 1056,1216 L1055,1225 C1055,1234 1047,1224 1049,1232 C1051,1240 1057,1230 1056,1239 L1056,1248 1056,1248 L1065,1247 C1074,1247 1065,1240 1072,1241 C1080,1243 1070,1249 1079,1248 L1089,1248 1089,1248 L1088,1239 C1087,1230 1093,1240 1095,1232 C1097,1225 1086,1237 1087,1226 L1089,1216"/></g><clipPath id="c" clipRule="evenodd" fill="transparent"><use href="#t4972"/></clipPath></defs><svg viewBox="1046 1207 52 43" preserveAspectRatio="xMinYMin meet"><svg width="4380" height="2430"><g><image crossorigin="anonymous" x="0" y="0" href="https://nftpuzzle.license-token.com/assets/completepuzzle.svg" width="100%" height="100%" /><g class="links"><use href="#t4972"/></g></g></svg><svg x="1083" y="1235" height="9%" width="9%" viewBox="0 0 330 330"><g><a xlink:href="https://nftpuzzle.license-token.com/" class="links"><title>See the most innovative NFT based token software licensing project</title><path fill="#E4CF37" id="more" d="M165,0C74.019,0,0,74.019,0,165s74.019,165,165,165s165-74.019,165-165S255.981,0,165,0z M85,190 c-13.785,0-25-11.215-25-25s11.215-25,25-25s25,11.215,25,25S98.785,190,85,190z M165,190c-13.785,0-25-11.215-25-25 s11.215-25,25-25s25,11.215,25,25S178.785,190,165,190z M245,190c-13.785,0-25-11.215-25-25s11.215-25,25-25 c13.785,0,25,11.215,25,25S258.785,190,245,190z"></path></a></g></svg></svg></svg>