<svg version="1.1" xmlns="http://www.w3.org/2000/svg" xmlns:xlink="http://www.w3.org/1999/xlink" fill="transparent" x="0" y="0" width="350" height="350" preserveAspectRatio="xMinYMin slice"><style type="text/css">.links{fill:transparent;stroke: #E4CF37;}.links:hover{fill:#63D272; opacity:0.4;}</style><defs><g id="allt"><path id="t4973" d="M1122,1216 L1110,1216 C1099,1216 1114,1211 1104,1211 C1094,1211 1110,1216 1099,1216 L1089,1216 1089,1216 L1087,1226 C1086,1237 1097,1225 1095,1232 C1093,1240 1087,1230 1088,1239 L1089,1248 1089,1248 L1099,1246 C1110,1245 1098,1256 1106,1254 C1114,1252 1103,1246 1112,1247 L1122,1248 1122,1248 L1122,1237 C1123,1226 1117,1243 1116,1233 C1115,1224 1124,1235 1123,1225 L1122,1216"/></g><clipPath id="c" clipRule="evenodd" fill="transparent"><use href="#t4973"/></clipPath></defs><svg viewBox="1085 1210 40 47" preserveAspectRatio="xMinYMin meet"><svg width="4380" height="2430"><g><image crossorigin="anonymous" x="0" y="0" href="https://nftpuzzle.license-token.com/assets/completepuzzle.svg" width="100%" height="100%" /><g class="links"><use href="#t4973"/></g></g></svg><svg x="1110" y="1242" height="9%" width="9%" viewBox="0 0 330 330"><g><a xlink:href="https://nftpuzzle.license-token.com/" class="links"><title>See the most innovative NFT based token software licensing project</title><path fill="#E4CF37" id="more" d="M165,0C74.019,0,0,74.019,0,165s74.019,165,165,165s165-74.019,165-165S255.981,0,165,0z M85,190 c-13.785,0-25-11.215-25-25s11.215-25,25-25s25,11.215,25,25S98.785,190,85,190z M165,190c-13.785,0-25-11.215-25-25 s11.215-25,25-25s25,11.215,25,25S178.785,190,165,190z M245,190c-13.785,0-25-11.215-25-25s11.215-25,25-25 c13.785,0,25,11.215,25,25S258.785,190,245,190z"></path></a></g></svg></svg></svg>