<svg version="1.1" xmlns="http://www.w3.org/2000/svg" xmlns:xlink="http://www.w3.org/1999/xlink" fill="transparent" x="0" y="0" width="350" height="350" preserveAspectRatio="xMinYMin slice"><style type="text/css">.links{fill:transparent;stroke: #E4CF37;}.links:hover{fill:#63D272; opacity:0.4;}</style><defs><g id="allt"><path id="t4974" d="M1155,1216 L1144,1217 C1133,1218 1148,1212 1137,1211 C1127,1211 1143,1217 1132,1216 L1122,1216 1122,1216 L1123,1225 C1124,1235 1115,1224 1116,1233 C1117,1243 1123,1226 1122,1237 L1122,1248 1122,1248 L1132,1249 C1142,1250 1130,1241 1140,1242 C1150,1243 1132,1249 1143,1248 L1155,1248 1155,1248 L1155,1237 C1155,1226 1160,1240 1160,1231 C1161,1223 1153,1233 1154,1224 L1155,1216"/></g><clipPath id="c" clipRule="evenodd" fill="transparent"><use href="#t4974"/></clipPath></defs><svg viewBox="1114 1210 48 41" preserveAspectRatio="xMinYMin meet"><svg width="4380" height="2430"><g><image crossorigin="anonymous" x="0" y="0" href="https://nftpuzzle.license-token.com/assets/completepuzzle.svg" width="100%" height="100%" /><g class="links"><use href="#t4974"/></g></g></svg><svg x="1147" y="1236" height="9%" width="9%" viewBox="0 0 330 330"><g><a xlink:href="https://nftpuzzle.license-token.com/" class="links"><title>See the most innovative NFT based token software licensing project</title><path fill="#E4CF37" id="more" d="M165,0C74.019,0,0,74.019,0,165s74.019,165,165,165s165-74.019,165-165S255.981,0,165,0z M85,190 c-13.785,0-25-11.215-25-25s11.215-25,25-25s25,11.215,25,25S98.785,190,85,190z M165,190c-13.785,0-25-11.215-25-25 s11.215-25,25-25s25,11.215,25,25S178.785,190,165,190z M245,190c-13.785,0-25-11.215-25-25s11.215-25,25-25 c13.785,0,25,11.215,25,25S258.785,190,245,190z"></path></a></g></svg></svg></svg>