<svg version="1.1" xmlns="http://www.w3.org/2000/svg" xmlns:xlink="http://www.w3.org/1999/xlink" fill="transparent" x="0" y="0" width="350" height="350" preserveAspectRatio="xMinYMin slice"><style type="text/css">.links{fill:transparent;stroke: #E4CF37;}.links:hover{fill:#63D272; opacity:0.4;}</style><defs><g id="allt"><path id="t4977" d="M1254,1216 L1244,1216 C1234,1217 1245,1209 1235,1210 C1226,1211 1240,1219 1230,1217 L1221,1216 1221,1216 L1220,1226 C1220,1237 1228,1221 1227,1231 C1227,1241 1218,1229 1219,1238 L1221,1248 1221,1248 L1231,1247 C1242,1247 1226,1255 1236,1254 C1247,1254 1234,1245 1244,1246 L1254,1248 1254,1248 L1254,1237 C1254,1227 1264,1242 1262,1233 C1261,1224 1251,1236 1252,1226 L1254,1216"/></g><clipPath id="c" clipRule="evenodd" fill="transparent"><use href="#t4977"/></clipPath></defs><svg viewBox="1217 1208 48 48" preserveAspectRatio="xMinYMin meet"><svg width="4380" height="2430"><g><image crossorigin="anonymous" x="0" y="0" href="https://nftpuzzle.license-token.com/assets/completepuzzle.svg" width="100%" height="100%" /><g class="links"><use href="#t4977"/></g></g></svg><svg x="1250" y="1241" height="9%" width="9%" viewBox="0 0 330 330"><g><a xlink:href="https://nftpuzzle.license-token.com/" class="links"><title>See the most innovative NFT based token software licensing project</title><path fill="#E4CF37" id="more" d="M165,0C74.019,0,0,74.019,0,165s74.019,165,165,165s165-74.019,165-165S255.981,0,165,0z M85,190 c-13.785,0-25-11.215-25-25s11.215-25,25-25s25,11.215,25,25S98.785,190,85,190z M165,190c-13.785,0-25-11.215-25-25 s11.215-25,25-25s25,11.215,25,25S178.785,190,165,190z M245,190c-13.785,0-25-11.215-25-25s11.215-25,25-25 c13.785,0,25,11.215,25,25S258.785,190,245,190z"></path></a></g></svg></svg></svg>