<svg version="1.1" xmlns="http://www.w3.org/2000/svg" xmlns:xlink="http://www.w3.org/1999/xlink" fill="transparent" x="0" y="0" width="350" height="350" preserveAspectRatio="xMinYMin slice"><style type="text/css">.links{fill:transparent;stroke: #E4CF37;}.links:hover{fill:#63D272; opacity:0.4;}</style><defs><g id="allt"><path id="t4979" d="M1320,1216 L1310,1215 C1300,1214 1314,1220 1302,1220 C1291,1220 1306,1215 1296,1215 L1287,1216 1287,1216 L1287,1226 C1288,1236 1284,1225 1283,1233 C1282,1242 1287,1228 1287,1238 L1287,1248 1287,1248 L1297,1248 C1307,1249 1296,1245 1305,1244 C1314,1243 1299,1248 1309,1248 L1320,1248 1320,1248 L1320,1237 C1320,1226 1310,1239 1310,1230 C1311,1222 1320,1236 1320,1226 L1320,1216"/></g><clipPath id="c" clipRule="evenodd" fill="transparent"><use href="#t4979"/></clipPath></defs><svg viewBox="1281 1213 40 37" preserveAspectRatio="xMinYMin meet"><svg width="4380" height="2430"><g><image crossorigin="anonymous" x="0" y="0" href="https://nftpuzzle.license-token.com/assets/completepuzzle.svg" width="100%" height="100%" /><g class="links"><use href="#t4979"/></g></g></svg><svg x="1306" y="1235" height="9%" width="9%" viewBox="0 0 330 330"><g><a xlink:href="https://nftpuzzle.license-token.com/" class="links"><title>See the most innovative NFT based token software licensing project</title><path fill="#E4CF37" id="more" d="M165,0C74.019,0,0,74.019,0,165s74.019,165,165,165s165-74.019,165-165S255.981,0,165,0z M85,190 c-13.785,0-25-11.215-25-25s11.215-25,25-25s25,11.215,25,25S98.785,190,85,190z M165,190c-13.785,0-25-11.215-25-25 s11.215-25,25-25s25,11.215,25,25S178.785,190,165,190z M245,190c-13.785,0-25-11.215-25-25s11.215-25,25-25 c13.785,0,25,11.215,25,25S258.785,190,245,190z"></path></a></g></svg></svg></svg>