<svg version="1.1" xmlns="http://www.w3.org/2000/svg" xmlns:xlink="http://www.w3.org/1999/xlink" fill="transparent" x="0" y="0" width="350" height="350" preserveAspectRatio="xMinYMin slice"><style type="text/css">.links{fill:transparent;stroke: #E4CF37;}.links:hover{fill:#63D272; opacity:0.4;}</style><defs><g id="allt"><path id="t4980" d="M1353,1216 L1342,1215 C1331,1214 1345,1219 1336,1220 C1327,1221 1338,1214 1329,1215 L1320,1216 1320,1216 L1320,1226 C1320,1236 1311,1222 1310,1230 C1310,1239 1320,1226 1320,1237 L1320,1248 1320,1248 L1330,1248 C1340,1248 1326,1239 1335,1239 C1344,1239 1331,1248 1342,1248 L1353,1248 1353,1248 L1351,1239 C1349,1230 1362,1239 1361,1230 C1361,1221 1353,1237 1353,1226 L1353,1216"/></g><clipPath id="c" clipRule="evenodd" fill="transparent"><use href="#t4980"/></clipPath></defs><svg viewBox="1309 1213 54 36" preserveAspectRatio="xMinYMin meet"><svg width="4380" height="2430"><g><image crossorigin="anonymous" x="0" y="0" href="https://nftpuzzle.license-token.com/assets/completepuzzle.svg" width="100%" height="100%" /><g class="links"><use href="#t4980"/></g></g></svg><svg x="1348" y="1234" height="9%" width="9%" viewBox="0 0 330 330"><g><a xlink:href="https://nftpuzzle.license-token.com/" class="links"><title>See the most innovative NFT based token software licensing project</title><path fill="#E4CF37" id="more" d="M165,0C74.019,0,0,74.019,0,165s74.019,165,165,165s165-74.019,165-165S255.981,0,165,0z M85,190 c-13.785,0-25-11.215-25-25s11.215-25,25-25s25,11.215,25,25S98.785,190,85,190z M165,190c-13.785,0-25-11.215-25-25 s11.215-25,25-25s25,11.215,25,25S178.785,190,165,190z M245,190c-13.785,0-25-11.215-25-25s11.215-25,25-25 c13.785,0,25,11.215,25,25S258.785,190,245,190z"></path></a></g></svg></svg></svg>