<svg version="1.1" xmlns="http://www.w3.org/2000/svg" xmlns:xlink="http://www.w3.org/1999/xlink" fill="transparent" x="0" y="0" width="350" height="350" preserveAspectRatio="xMinYMin slice"><style type="text/css">.links{fill:transparent;stroke: #E4CF37;}.links:hover{fill:#63D272; opacity:0.4;}</style><defs><g id="allt"><path id="t4982" d="M1419,1216 L1409,1215 C1400,1214 1410,1219 1402,1219 C1395,1220 1404,1216 1395,1216 L1386,1216 1386,1216 L1384,1225 C1382,1235 1396,1223 1394,1231 C1393,1239 1386,1227 1386,1237 L1386,1248 1386,1248 L1396,1246 C1406,1244 1393,1258 1401,1256 C1410,1255 1397,1248 1408,1248 L1419,1248 1419,1248 L1419,1238 C1420,1228 1412,1241 1413,1233 C1414,1225 1420,1237 1419,1226 L1419,1216"/></g><clipPath id="c" clipRule="evenodd" fill="transparent"><use href="#t4982"/></clipPath></defs><svg viewBox="1381 1213 40 46" preserveAspectRatio="xMinYMin meet"><svg width="4380" height="2430"><g><image crossorigin="anonymous" x="0" y="0" href="https://nftpuzzle.license-token.com/assets/completepuzzle.svg" width="100%" height="100%" /><g class="links"><use href="#t4982"/></g></g></svg><svg x="1406" y="1244" height="9%" width="9%" viewBox="0 0 330 330"><g><a xlink:href="https://nftpuzzle.license-token.com/" class="links"><title>See the most innovative NFT based token software licensing project</title><path fill="#E4CF37" id="more" d="M165,0C74.019,0,0,74.019,0,165s74.019,165,165,165s165-74.019,165-165S255.981,0,165,0z M85,190 c-13.785,0-25-11.215-25-25s11.215-25,25-25s25,11.215,25,25S98.785,190,85,190z M165,190c-13.785,0-25-11.215-25-25 s11.215-25,25-25s25,11.215,25,25S178.785,190,165,190z M245,190c-13.785,0-25-11.215-25-25s11.215-25,25-25 c13.785,0,25,11.215,25,25S258.785,190,245,190z"></path></a></g></svg></svg></svg>