<svg version="1.1" xmlns="http://www.w3.org/2000/svg" xmlns:xlink="http://www.w3.org/1999/xlink" fill="transparent" x="0" y="0" width="350" height="350" preserveAspectRatio="xMinYMin slice"><style type="text/css">.links{fill:transparent;stroke: #E4CF37;}.links:hover{fill:#63D272; opacity:0.4;}</style><defs><g id="allt"><path id="t4983" d="M1452,1216 L1442,1216 C1432,1216 1442,1213 1432,1212 C1423,1212 1437,1216 1428,1216 L1419,1216 1419,1216 L1419,1226 C1420,1237 1414,1225 1413,1233 C1412,1241 1420,1228 1419,1238 L1419,1248 1419,1248 L1430,1248 C1441,1249 1428,1243 1436,1242 C1445,1241 1431,1249 1441,1248 L1452,1248 1452,1248 L1451,1238 C1451,1229 1460,1238 1460,1231 C1460,1224 1451,1237 1451,1226 L1452,1216"/></g><clipPath id="c" clipRule="evenodd" fill="transparent"><use href="#t4983"/></clipPath></defs><svg viewBox="1411 1211 50 39" preserveAspectRatio="xMinYMin meet"><svg width="4380" height="2430"><g><image crossorigin="anonymous" x="0" y="0" href="https://nftpuzzle.license-token.com/assets/completepuzzle.svg" width="100%" height="100%" /><g class="links"><use href="#t4983"/></g></g></svg><svg x="1446" y="1235" height="9%" width="9%" viewBox="0 0 330 330"><g><a xlink:href="https://nftpuzzle.license-token.com/" class="links"><title>See the most innovative NFT based token software licensing project</title><path fill="#E4CF37" id="more" d="M165,0C74.019,0,0,74.019,0,165s74.019,165,165,165s165-74.019,165-165S255.981,0,165,0z M85,190 c-13.785,0-25-11.215-25-25s11.215-25,25-25s25,11.215,25,25S98.785,190,85,190z M165,190c-13.785,0-25-11.215-25-25 s11.215-25,25-25s25,11.215,25,25S178.785,190,165,190z M245,190c-13.785,0-25-11.215-25-25s11.215-25,25-25 c13.785,0,25,11.215,25,25S258.785,190,245,190z"></path></a></g></svg></svg></svg>