<svg version="1.1" xmlns="http://www.w3.org/2000/svg" xmlns:xlink="http://www.w3.org/1999/xlink" fill="transparent" x="0" y="0" width="350" height="350" preserveAspectRatio="xMinYMin slice"><style type="text/css">.links{fill:transparent;stroke: #E4CF37;}.links:hover{fill:#63D272; opacity:0.4;}</style><defs><g id="allt"><path id="t4989" d="M1650,1216 L1640,1218 C1631,1221 1642,1208 1632,1207 C1623,1207 1637,1216 1627,1216 L1617,1216 1617,1216 L1617,1226 C1617,1237 1614,1224 1614,1232 C1615,1240 1619,1228 1618,1238 L1617,1248 1617,1248 L1627,1248 C1638,1248 1625,1245 1633,1245 C1642,1246 1629,1250 1639,1249 L1650,1248 1650,1248 L1650,1238 C1650,1229 1640,1238 1642,1230 C1645,1222 1650,1235 1650,1225 L1650,1216"/></g><clipPath id="c" clipRule="evenodd" fill="transparent"><use href="#t4989"/></clipPath></defs><svg viewBox="1613 1206 38 45" preserveAspectRatio="xMinYMin meet"><svg width="4380" height="2430"><g><image crossorigin="anonymous" x="0" y="0" href="https://nftpuzzle.license-token.com/assets/completepuzzle.svg" width="100%" height="100%" /><g class="links"><use href="#t4989"/></g></g></svg><svg x="1636" y="1236" height="9%" width="9%" viewBox="0 0 330 330"><g><a xlink:href="https://nftpuzzle.license-token.com/" class="links"><title>See the most innovative NFT based token software licensing project</title><path fill="#E4CF37" id="more" d="M165,0C74.019,0,0,74.019,0,165s74.019,165,165,165s165-74.019,165-165S255.981,0,165,0z M85,190 c-13.785,0-25-11.215-25-25s11.215-25,25-25s25,11.215,25,25S98.785,190,85,190z M165,190c-13.785,0-25-11.215-25-25 s11.215-25,25-25s25,11.215,25,25S178.785,190,165,190z M245,190c-13.785,0-25-11.215-25-25s11.215-25,25-25 c13.785,0,25,11.215,25,25S258.785,190,245,190z"></path></a></g></svg></svg></svg>