<svg version="1.1" xmlns="http://www.w3.org/2000/svg" xmlns:xlink="http://www.w3.org/1999/xlink" fill="transparent" x="0" y="0" width="350" height="350" preserveAspectRatio="xMinYMin slice"><style type="text/css">.links{fill:transparent;stroke: #E4CF37;}.links:hover{fill:#63D272; opacity:0.4;}</style><defs><g id="allt"><path id="t4990" d="M1683,1216 L1673,1216 C1664,1216 1674,1224 1665,1224 C1657,1225 1671,1214 1660,1215 L1650,1216 1650,1216 L1650,1225 C1650,1235 1645,1222 1642,1230 C1640,1238 1650,1229 1650,1238 L1650,1248 1650,1248 L1660,1248 C1670,1248 1656,1243 1664,1240 C1673,1238 1663,1248 1673,1248 L1683,1248 1683,1248 L1683,1238 C1683,1228 1685,1241 1686,1232 C1687,1223 1682,1234 1682,1225 L1683,1216"/></g><clipPath id="c" clipRule="evenodd" fill="transparent"><use href="#t4990"/></clipPath></defs><svg viewBox="1639 1213 49 36" preserveAspectRatio="xMinYMin meet"><svg width="4380" height="2430"><g><image crossorigin="anonymous" x="0" y="0" href="https://nftpuzzle.license-token.com/assets/completepuzzle.svg" width="100%" height="100%" /><g class="links"><use href="#t4990"/></g></g></svg><svg x="1673" y="1234" height="9%" width="9%" viewBox="0 0 330 330"><g><a xlink:href="https://nftpuzzle.license-token.com/" class="links"><title>See the most innovative NFT based token software licensing project</title><path fill="#E4CF37" id="more" d="M165,0C74.019,0,0,74.019,0,165s74.019,165,165,165s165-74.019,165-165S255.981,0,165,0z M85,190 c-13.785,0-25-11.215-25-25s11.215-25,25-25s25,11.215,25,25S98.785,190,85,190z M165,190c-13.785,0-25-11.215-25-25 s11.215-25,25-25s25,11.215,25,25S178.785,190,165,190z M245,190c-13.785,0-25-11.215-25-25s11.215-25,25-25 c13.785,0,25,11.215,25,25S258.785,190,245,190z"></path></a></g></svg></svg></svg>