<svg version="1.1" xmlns="http://www.w3.org/2000/svg" xmlns:xlink="http://www.w3.org/1999/xlink" fill="transparent" x="0" y="0" width="350" height="350" preserveAspectRatio="xMinYMin slice"><style type="text/css">.links{fill:transparent;stroke: #E4CF37;}.links:hover{fill:#63D272; opacity:0.4;}</style><defs><g id="allt"><path id="t4993" d="M1782,1216 L1770,1216 C1759,1216 1774,1211 1766,1210 C1758,1210 1767,1216 1758,1216 L1749,1216 1749,1216 L1749,1225 C1749,1234 1756,1222 1755,1230 C1755,1239 1749,1228 1749,1238 L1749,1248 1749,1248 L1758,1248 C1768,1248 1755,1255 1763,1254 C1772,1254 1762,1248 1772,1248 L1782,1248 1782,1248 L1781,1238 C1781,1229 1788,1238 1787,1229 C1786,1221 1781,1236 1781,1226 L1782,1216"/></g><clipPath id="c" clipRule="evenodd" fill="transparent"><use href="#t4993"/></clipPath></defs><svg viewBox="1748 1209 41 47" preserveAspectRatio="xMinYMin meet"><svg width="4380" height="2430"><g><image crossorigin="anonymous" x="0" y="0" href="https://nftpuzzle.license-token.com/assets/completepuzzle.svg" width="100%" height="100%" /><g class="links"><use href="#t4993"/></g></g></svg><svg x="1774" y="1241" height="9%" width="9%" viewBox="0 0 330 330"><g><a xlink:href="https://nftpuzzle.license-token.com/" class="links"><title>See the most innovative NFT based token software licensing project</title><path fill="#E4CF37" id="more" d="M165,0C74.019,0,0,74.019,0,165s74.019,165,165,165s165-74.019,165-165S255.981,0,165,0z M85,190 c-13.785,0-25-11.215-25-25s11.215-25,25-25s25,11.215,25,25S98.785,190,85,190z M165,190c-13.785,0-25-11.215-25-25 s11.215-25,25-25s25,11.215,25,25S178.785,190,165,190z M245,190c-13.785,0-25-11.215-25-25s11.215-25,25-25 c13.785,0,25,11.215,25,25S258.785,190,245,190z"></path></a></g></svg></svg></svg>