<svg version="1.1" xmlns="http://www.w3.org/2000/svg" xmlns:xlink="http://www.w3.org/1999/xlink" fill="transparent" x="0" y="0" width="350" height="350" preserveAspectRatio="xMinYMin slice"><style type="text/css">.links{fill:transparent;stroke: #E4CF37;}.links:hover{fill:#63D272; opacity:0.4;}</style><defs><g id="allt"><path id="t4994" d="M1815,1216 L1804,1216 C1794,1216 1807,1223 1799,1223 C1791,1224 1802,1216 1792,1216 L1782,1216 1782,1216 L1781,1226 C1781,1236 1786,1221 1787,1229 C1788,1238 1781,1229 1781,1238 L1782,1248 1782,1248 L1792,1247 C1802,1247 1787,1252 1796,1253 C1805,1254 1795,1247 1805,1247 L1815,1248 1815,1248 L1815,1239 C1815,1230 1817,1239 1818,1231 C1819,1224 1815,1235 1815,1225 L1815,1216"/></g><clipPath id="c" clipRule="evenodd" fill="transparent"><use href="#t4994"/></clipPath></defs><svg viewBox="1780 1215 40 40" preserveAspectRatio="xMinYMin meet"><svg width="4380" height="2430"><g><image crossorigin="anonymous" x="0" y="0" href="https://nftpuzzle.license-token.com/assets/completepuzzle.svg" width="100%" height="100%" /><g class="links"><use href="#t4994"/></g></g></svg><svg x="1805" y="1240" height="9%" width="9%" viewBox="0 0 330 330"><g><a xlink:href="https://nftpuzzle.license-token.com/" class="links"><title>See the most innovative NFT based token software licensing project</title><path fill="#E4CF37" id="more" d="M165,0C74.019,0,0,74.019,0,165s74.019,165,165,165s165-74.019,165-165S255.981,0,165,0z M85,190 c-13.785,0-25-11.215-25-25s11.215-25,25-25s25,11.215,25,25S98.785,190,85,190z M165,190c-13.785,0-25-11.215-25-25 s11.215-25,25-25s25,11.215,25,25S178.785,190,165,190z M245,190c-13.785,0-25-11.215-25-25s11.215-25,25-25 c13.785,0,25,11.215,25,25S258.785,190,245,190z"></path></a></g></svg></svg></svg>