<svg version="1.1" xmlns="http://www.w3.org/2000/svg" xmlns:xlink="http://www.w3.org/1999/xlink" fill="transparent" x="0" y="0" width="350" height="350" preserveAspectRatio="xMinYMin slice"><style type="text/css">.links{fill:transparent;stroke: #E4CF37;}.links:hover{fill:#63D272; opacity:0.4;}</style><defs><g id="allt"><path id="t4996" d="M1881,1216 L1870,1216 C1860,1216 1873,1207 1863,1207 C1853,1207 1868,1216 1858,1216 L1848,1216 1848,1216 L1849,1226 C1850,1236 1842,1222 1842,1231 C1842,1240 1848,1227 1848,1237 L1848,1248 1848,1248 L1858,1249 C1869,1250 1854,1242 1863,1242 C1873,1242 1859,1248 1870,1248 L1881,1248 1881,1248 L1881,1237 C1881,1227 1872,1240 1872,1230 C1872,1221 1881,1235 1881,1225 L1881,1216"/></g><clipPath id="c" clipRule="evenodd" fill="transparent"><use href="#t4996"/></clipPath></defs><svg viewBox="1841 1206 41 45" preserveAspectRatio="xMinYMin meet"><svg width="4380" height="2430"><g><image crossorigin="anonymous" x="0" y="0" href="https://nftpuzzle.license-token.com/assets/completepuzzle.svg" width="100%" height="100%" /><g class="links"><use href="#t4996"/></g></g></svg><svg x="1867" y="1236" height="9%" width="9%" viewBox="0 0 330 330"><g><a xlink:href="https://nftpuzzle.license-token.com/" class="links"><title>See the most innovative NFT based token software licensing project</title><path fill="#E4CF37" id="more" d="M165,0C74.019,0,0,74.019,0,165s74.019,165,165,165s165-74.019,165-165S255.981,0,165,0z M85,190 c-13.785,0-25-11.215-25-25s11.215-25,25-25s25,11.215,25,25S98.785,190,85,190z M165,190c-13.785,0-25-11.215-25-25 s11.215-25,25-25s25,11.215,25,25S178.785,190,165,190z M245,190c-13.785,0-25-11.215-25-25s11.215-25,25-25 c13.785,0,25,11.215,25,25S258.785,190,245,190z"></path></a></g></svg></svg></svg>