<svg version="1.1" xmlns="http://www.w3.org/2000/svg" xmlns:xlink="http://www.w3.org/1999/xlink" fill="transparent" x="0" y="0" width="350" height="350" preserveAspectRatio="xMinYMin slice"><style type="text/css">.links{fill:transparent;stroke: #E4CF37;}.links:hover{fill:#63D272; opacity:0.4;}</style><defs><g id="allt"><path id="t4997" d="M1914,1216 L1904,1216 C1895,1216 1909,1222 1899,1221 C1889,1220 1902,1216 1891,1216 L1881,1216 1881,1216 L1881,1225 C1881,1235 1872,1221 1872,1230 C1872,1240 1881,1227 1881,1237 L1881,1248 1881,1248 L1890,1248 C1900,1248 1886,1239 1896,1239 C1906,1239 1893,1248 1903,1248 L1914,1248 1914,1248 L1915,1239 C1917,1230 1908,1242 1909,1231 C1910,1221 1917,1235 1915,1225 L1914,1216"/></g><clipPath id="c" clipRule="evenodd" fill="transparent"><use href="#t4997"/></clipPath></defs><svg viewBox="1871 1215 47 34" preserveAspectRatio="xMinYMin meet"><svg width="4380" height="2430"><g><image crossorigin="anonymous" x="0" y="0" href="https://nftpuzzle.license-token.com/assets/completepuzzle.svg" width="100%" height="100%" /><g class="links"><use href="#t4997"/></g></g></svg><svg x="1903" y="1234" height="9%" width="9%" viewBox="0 0 330 330"><g><a xlink:href="https://nftpuzzle.license-token.com/" class="links"><title>See the most innovative NFT based token software licensing project</title><path fill="#E4CF37" id="more" d="M165,0C74.019,0,0,74.019,0,165s74.019,165,165,165s165-74.019,165-165S255.981,0,165,0z M85,190 c-13.785,0-25-11.215-25-25s11.215-25,25-25s25,11.215,25,25S98.785,190,85,190z M165,190c-13.785,0-25-11.215-25-25 s11.215-25,25-25s25,11.215,25,25S178.785,190,165,190z M245,190c-13.785,0-25-11.215-25-25s11.215-25,25-25 c13.785,0,25,11.215,25,25S258.785,190,245,190z"></path></a></g></svg></svg></svg>