<svg version="1.1" xmlns="http://www.w3.org/2000/svg" xmlns:xlink="http://www.w3.org/1999/xlink" fill="transparent" x="0" y="0" width="350" height="350" preserveAspectRatio="xMinYMin slice"><style type="text/css">.links{fill:transparent;stroke: #E4CF37;}.links:hover{fill:#63D272; opacity:0.4;}</style><defs><g id="allt"><path id="t4999" d="M1980,1216 L1969,1217 C1959,1218 1971,1208 1963,1210 C1956,1213 1967,1216 1957,1216 L1947,1216 1947,1216 L1947,1225 C1947,1234 1955,1222 1954,1230 C1954,1238 1947,1230 1947,1239 L1947,1248 1947,1248 L1956,1248 C1966,1248 1953,1256 1961,1255 C1970,1255 1961,1248 1970,1248 L1980,1248 1980,1248 L1981,1237 C1982,1227 1974,1240 1974,1230 C1974,1221 1980,1236 1980,1226 L1980,1216"/></g><clipPath id="c" clipRule="evenodd" fill="transparent"><use href="#t4999"/></clipPath></defs><svg viewBox="1946 1207 37 50" preserveAspectRatio="xMinYMin meet"><svg width="4380" height="2430"><g><image crossorigin="anonymous" x="0" y="0" href="https://nftpuzzle.license-token.com/assets/completepuzzle.svg" width="100%" height="100%" /><g class="links"><use href="#t4999"/></g></g></svg><svg x="1968" y="1242" height="9%" width="9%" viewBox="0 0 330 330"><g><a xlink:href="https://nftpuzzle.license-token.com/" class="links"><title>See the most innovative NFT based token software licensing project</title><path fill="#E4CF37" id="more" d="M165,0C74.019,0,0,74.019,0,165s74.019,165,165,165s165-74.019,165-165S255.981,0,165,0z M85,190 c-13.785,0-25-11.215-25-25s11.215-25,25-25s25,11.215,25,25S98.785,190,85,190z M165,190c-13.785,0-25-11.215-25-25 s11.215-25,25-25s25,11.215,25,25S178.785,190,165,190z M245,190c-13.785,0-25-11.215-25-25s11.215-25,25-25 c13.785,0,25,11.215,25,25S258.785,190,245,190z"></path></a></g></svg></svg></svg>