<svg version="1.1" xmlns="http://www.w3.org/2000/svg" xmlns:xlink="http://www.w3.org/1999/xlink" fill="transparent" x="0" y="0" width="350" height="350" preserveAspectRatio="xMinYMin slice"><style type="text/css">.links{fill:transparent;stroke: #E4CF37;}.links:hover{fill:#63D272; opacity:0.4;}</style><defs><g id="allt"><path id="t5002" d="M2079,1216 L2069,1217 C2060,1218 2072,1211 2063,1210 C2055,1210 2064,1220 2055,1218 L2046,1216 2046,1216 L2046,1225 C2046,1235 2057,1224 2054,1233 C2051,1242 2046,1229 2046,1238 L2046,1248 2046,1248 L2055,1248 C2065,1248 2054,1259 2063,1256 C2073,1253 2059,1248 2069,1248 L2079,1248 2079,1248 L2079,1238 C2079,1228 2090,1239 2087,1229 C2085,1220 2077,1234 2078,1225 L2079,1216"/></g><clipPath id="c" clipRule="evenodd" fill="transparent"><use href="#t5002"/></clipPath></defs><svg viewBox="2045 1209 46 51" preserveAspectRatio="xMinYMin meet"><svg width="4380" height="2430"><g><image crossorigin="anonymous" x="0" y="0" href="https://nftpuzzle.license-token.com/assets/completepuzzle.svg" width="100%" height="100%" /><g class="links"><use href="#t5002"/></g></g></svg><svg x="2076" y="1245" height="9%" width="9%" viewBox="0 0 330 330"><g><a xlink:href="https://nftpuzzle.license-token.com/" class="links"><title>See the most innovative NFT based token software licensing project</title><path fill="#E4CF37" id="more" d="M165,0C74.019,0,0,74.019,0,165s74.019,165,165,165s165-74.019,165-165S255.981,0,165,0z M85,190 c-13.785,0-25-11.215-25-25s11.215-25,25-25s25,11.215,25,25S98.785,190,85,190z M165,190c-13.785,0-25-11.215-25-25 s11.215-25,25-25s25,11.215,25,25S178.785,190,165,190z M245,190c-13.785,0-25-11.215-25-25s11.215-25,25-25 c13.785,0,25,11.215,25,25S258.785,190,245,190z"></path></a></g></svg></svg></svg>