<svg version="1.1" xmlns="http://www.w3.org/2000/svg" xmlns:xlink="http://www.w3.org/1999/xlink" fill="transparent" x="0" y="0" width="350" height="350" preserveAspectRatio="xMinYMin slice"><style type="text/css">.links{fill:transparent;stroke: #E4CF37;}.links:hover{fill:#63D272; opacity:0.4;}</style><defs><g id="allt"><path id="t5004" d="M2145,1216 L2135,1218 C2125,1221 2139,1210 2128,1209 C2117,1208 2130,1216 2121,1216 L2112,1216 2112,1216 L2114,1225 C2117,1235 2106,1221 2105,1230 C2104,1240 2112,1228 2112,1238 L2112,1248 2112,1248 L2121,1250 C2131,1253 2117,1242 2127,1241 C2137,1240 2124,1248 2134,1248 L2145,1248 2145,1248 L2145,1238 C2146,1228 2135,1240 2134,1230 C2134,1220 2148,1236 2146,1226 L2145,1216"/></g><clipPath id="c" clipRule="evenodd" fill="transparent"><use href="#t5004"/></clipPath></defs><svg viewBox="2103 1207 46 47" preserveAspectRatio="xMinYMin meet"><svg width="4380" height="2430"><g><image crossorigin="anonymous" x="0" y="0" href="https://nftpuzzle.license-token.com/assets/completepuzzle.svg" width="100%" height="100%" /><g class="links"><use href="#t5004"/></g></g></svg><svg x="2134" y="1239" height="9%" width="9%" viewBox="0 0 330 330"><g><a xlink:href="https://nftpuzzle.license-token.com/" class="links"><title>See the most innovative NFT based token software licensing project</title><path fill="#E4CF37" id="more" d="M165,0C74.019,0,0,74.019,0,165s74.019,165,165,165s165-74.019,165-165S255.981,0,165,0z M85,190 c-13.785,0-25-11.215-25-25s11.215-25,25-25s25,11.215,25,25S98.785,190,85,190z M165,190c-13.785,0-25-11.215-25-25 s11.215-25,25-25s25,11.215,25,25S178.785,190,165,190z M245,190c-13.785,0-25-11.215-25-25s11.215-25,25-25 c13.785,0,25,11.215,25,25S258.785,190,245,190z"></path></a></g></svg></svg></svg>