<svg version="1.1" xmlns="http://www.w3.org/2000/svg" xmlns:xlink="http://www.w3.org/1999/xlink" fill="transparent" x="0" y="0" width="350" height="350" preserveAspectRatio="xMinYMin slice"><style type="text/css">.links{fill:transparent;stroke: #E4CF37;}.links:hover{fill:#63D272; opacity:0.4;}</style><defs><g id="allt"><path id="t5006" d="M2211,1216 L2200,1216 C2189,1216 2204,1219 2195,1219 C2186,1220 2199,1216 2188,1216 L2178,1216 2178,1216 L2178,1225 C2178,1235 2168,1221 2169,1229 C2171,1238 2178,1228 2178,1238 L2178,1248 2178,1248 L2187,1248 C2197,1248 2183,1239 2192,1240 C2201,1241 2190,1248 2200,1248 L2211,1248 2211,1248 L2208,1238 C2206,1228 2223,1238 2221,1231 C2219,1224 2211,1234 2211,1225 L2211,1216"/></g><clipPath id="c" clipRule="evenodd" fill="transparent"><use href="#t5006"/></clipPath></defs><svg viewBox="2167 1215 57 34" preserveAspectRatio="xMinYMin meet"><svg width="4380" height="2430"><g><image crossorigin="anonymous" x="0" y="0" href="https://nftpuzzle.license-token.com/assets/completepuzzle.svg" width="100%" height="100%" /><g class="links"><use href="#t5006"/></g></g></svg><svg x="2209" y="1234" height="9%" width="9%" viewBox="0 0 330 330"><g><a xlink:href="https://nftpuzzle.license-token.com/" class="links"><title>See the most innovative NFT based token software licensing project</title><path fill="#E4CF37" id="more" d="M165,0C74.019,0,0,74.019,0,165s74.019,165,165,165s165-74.019,165-165S255.981,0,165,0z M85,190 c-13.785,0-25-11.215-25-25s11.215-25,25-25s25,11.215,25,25S98.785,190,85,190z M165,190c-13.785,0-25-11.215-25-25 s11.215-25,25-25s25,11.215,25,25S178.785,190,165,190z M245,190c-13.785,0-25-11.215-25-25s11.215-25,25-25 c13.785,0,25,11.215,25,25S258.785,190,245,190z"></path></a></g></svg></svg></svg>