<svg version="1.1" xmlns="http://www.w3.org/2000/svg" xmlns:xlink="http://www.w3.org/1999/xlink" fill="transparent" x="0" y="0" width="350" height="350" preserveAspectRatio="xMinYMin slice"><style type="text/css">.links{fill:transparent;stroke: #E4CF37;}.links:hover{fill:#63D272; opacity:0.4;}</style><defs><g id="allt"><path id="t501" d="M3696,96 L3686,96 C3676,96 3686,91 3677,90 C3668,90 3681,96 3672,96 L3663,96 3663,96 L3663,106 C3663,116 3656,102 3656,111 C3657,121 3663,110 3663,119 L3663,128 3663,128 L3673,128 C3684,128 3669,121 3679,121 C3689,122 3677,128 3686,128 L3696,128 3696,128 L3696,118 C3696,108 3704,121 3702,111 C3701,101 3696,114 3696,105 L3696,96"/></g><clipPath id="c" clipRule="evenodd" fill="transparent"><use href="#t501"/></clipPath></defs><svg viewBox="3655 89 50 40" preserveAspectRatio="xMinYMin meet"><svg width="4380" height="2430"><g><image crossorigin="anonymous" x="0" y="0" href="https://nftpuzzle.license-token.com/assets/completepuzzle.svg" width="100%" height="100%" /><g class="links"><use href="#t501"/></g></g></svg><svg x="3690" y="114" height="9%" width="9%" viewBox="0 0 330 330"><g><a xlink:href="https://nftpuzzle.license-token.com/" class="links"><title>See the most innovative NFT based token software licensing project</title><path fill="#E4CF37" id="more" d="M165,0C74.019,0,0,74.019,0,165s74.019,165,165,165s165-74.019,165-165S255.981,0,165,0z M85,190 c-13.785,0-25-11.215-25-25s11.215-25,25-25s25,11.215,25,25S98.785,190,85,190z M165,190c-13.785,0-25-11.215-25-25 s11.215-25,25-25s25,11.215,25,25S178.785,190,165,190z M245,190c-13.785,0-25-11.215-25-25s11.215-25,25-25 c13.785,0,25,11.215,25,25S258.785,190,245,190z"></path></a></g></svg></svg></svg>