<svg version="1.1" xmlns="http://www.w3.org/2000/svg" xmlns:xlink="http://www.w3.org/1999/xlink" fill="transparent" x="0" y="0" width="350" height="350" preserveAspectRatio="xMinYMin slice"><style type="text/css">.links{fill:transparent;stroke: #E4CF37;}.links:hover{fill:#63D272; opacity:0.4;}</style><defs><g id="allt"><path id="t5013" d="M2442,1216 L2431,1216 C2420,1216 2437,1210 2426,1209 C2416,1209 2429,1217 2419,1216 L2409,1216 2409,1216 L2409,1225 C2409,1235 2417,1221 2415,1230 C2414,1240 2409,1230 2409,1239 L2409,1248 2409,1248 L2418,1248 C2428,1248 2414,1256 2424,1254 C2434,1253 2423,1248 2432,1248 L2442,1248 2442,1248 L2442,1237 C2442,1227 2452,1239 2451,1232 C2450,1225 2442,1236 2442,1226 L2442,1216"/></g><clipPath id="c" clipRule="evenodd" fill="transparent"><use href="#t5013"/></clipPath></defs><svg viewBox="2408 1208 45 49" preserveAspectRatio="xMinYMin meet"><svg width="4380" height="2430"><g><image crossorigin="anonymous" x="0" y="0" href="https://nftpuzzle.license-token.com/assets/completepuzzle.svg" width="100%" height="100%" /><g class="links"><use href="#t5013"/></g></g></svg><svg x="2438" y="1242" height="9%" width="9%" viewBox="0 0 330 330"><g><a xlink:href="https://nftpuzzle.license-token.com/" class="links"><title>See the most innovative NFT based token software licensing project</title><path fill="#E4CF37" id="more" d="M165,0C74.019,0,0,74.019,0,165s74.019,165,165,165s165-74.019,165-165S255.981,0,165,0z M85,190 c-13.785,0-25-11.215-25-25s11.215-25,25-25s25,11.215,25,25S98.785,190,85,190z M165,190c-13.785,0-25-11.215-25-25 s11.215-25,25-25s25,11.215,25,25S178.785,190,165,190z M245,190c-13.785,0-25-11.215-25-25s11.215-25,25-25 c13.785,0,25,11.215,25,25S258.785,190,245,190z"></path></a></g></svg></svg></svg>