<svg version="1.1" xmlns="http://www.w3.org/2000/svg" xmlns:xlink="http://www.w3.org/1999/xlink" fill="transparent" x="0" y="0" width="350" height="350" preserveAspectRatio="xMinYMin slice"><style type="text/css">.links{fill:transparent;stroke: #E4CF37;}.links:hover{fill:#63D272; opacity:0.4;}</style><defs><g id="allt"><path id="t5015" d="M2508,1216 L2497,1216 C2486,1216 2502,1208 2492,1209 C2483,1210 2494,1218 2484,1217 L2475,1216 2475,1216 L2473,1225 C2472,1235 2480,1224 2481,1232 C2482,1241 2475,1229 2475,1238 L2475,1248 2475,1248 L2485,1246 C2495,1245 2484,1253 2492,1254 C2501,1255 2488,1248 2498,1248 L2508,1248 2508,1248 L2506,1238 C2504,1228 2516,1241 2516,1232 C2516,1224 2508,1236 2508,1226 L2508,1216"/></g><clipPath id="c" clipRule="evenodd" fill="transparent"><use href="#t5015"/></clipPath></defs><svg viewBox="2471 1207 46 49" preserveAspectRatio="xMinYMin meet"><svg width="4380" height="2430"><g><image crossorigin="anonymous" x="0" y="0" href="https://nftpuzzle.license-token.com/assets/completepuzzle.svg" width="100%" height="100%" /><g class="links"><use href="#t5015"/></g></g></svg><svg x="2502" y="1241" height="9%" width="9%" viewBox="0 0 330 330"><g><a xlink:href="https://nftpuzzle.license-token.com/" class="links"><title>See the most innovative NFT based token software licensing project</title><path fill="#E4CF37" id="more" d="M165,0C74.019,0,0,74.019,0,165s74.019,165,165,165s165-74.019,165-165S255.981,0,165,0z M85,190 c-13.785,0-25-11.215-25-25s11.215-25,25-25s25,11.215,25,25S98.785,190,85,190z M165,190c-13.785,0-25-11.215-25-25 s11.215-25,25-25s25,11.215,25,25S178.785,190,165,190z M245,190c-13.785,0-25-11.215-25-25s11.215-25,25-25 c13.785,0,25,11.215,25,25S258.785,190,245,190z"></path></a></g></svg></svg></svg>