<svg version="1.1" xmlns="http://www.w3.org/2000/svg" xmlns:xlink="http://www.w3.org/1999/xlink" fill="transparent" x="0" y="0" width="350" height="350" preserveAspectRatio="xMinYMin slice"><style type="text/css">.links{fill:transparent;stroke: #E4CF37;}.links:hover{fill:#63D272; opacity:0.4;}</style><defs><g id="allt"><path id="t5018" d="M2607,1216 L2596,1216 C2585,1216 2597,1220 2588,1222 C2579,1224 2595,1214 2584,1215 L2574,1216 2574,1216 L2574,1226 C2574,1237 2577,1221 2577,1230 C2578,1239 2574,1227 2574,1237 L2574,1248 2574,1248 L2584,1248 C2595,1248 2579,1251 2588,1251 C2598,1252 2585,1248 2596,1248 L2607,1248 2607,1248 L2606,1238 C2606,1229 2613,1243 2612,1233 C2611,1224 2606,1235 2606,1225 L2607,1216"/></g><clipPath id="c" clipRule="evenodd" fill="transparent"><use href="#t5018"/></clipPath></defs><svg viewBox="2573 1213 41 40" preserveAspectRatio="xMinYMin meet"><svg width="4380" height="2430"><g><image crossorigin="anonymous" x="0" y="0" href="https://nftpuzzle.license-token.com/assets/completepuzzle.svg" width="100%" height="100%" /><g class="links"><use href="#t5018"/></g></g></svg><svg x="2599" y="1238" height="9%" width="9%" viewBox="0 0 330 330"><g><a xlink:href="https://nftpuzzle.license-token.com/" class="links"><title>See the most innovative NFT based token software licensing project</title><path fill="#E4CF37" id="more" d="M165,0C74.019,0,0,74.019,0,165s74.019,165,165,165s165-74.019,165-165S255.981,0,165,0z M85,190 c-13.785,0-25-11.215-25-25s11.215-25,25-25s25,11.215,25,25S98.785,190,85,190z M165,190c-13.785,0-25-11.215-25-25 s11.215-25,25-25s25,11.215,25,25S178.785,190,165,190z M245,190c-13.785,0-25-11.215-25-25s11.215-25,25-25 c13.785,0,25,11.215,25,25S258.785,190,245,190z"></path></a></g></svg></svg></svg>