<svg version="1.1" xmlns="http://www.w3.org/2000/svg" xmlns:xlink="http://www.w3.org/1999/xlink" fill="transparent" x="0" y="0" width="350" height="350" preserveAspectRatio="xMinYMin slice"><style type="text/css">.links{fill:transparent;stroke: #E4CF37;}.links:hover{fill:#63D272; opacity:0.4;}</style><defs><g id="allt"><path id="t502" d="M3729,96 L3718,97 C3707,98 3722,86 3713,88 C3704,90 3715,96 3705,96 L3696,96 3696,96 L3696,105 C3696,114 3701,101 3702,111 C3704,121 3696,108 3696,118 L3696,128 3696,128 L3705,128 C3714,128 3701,133 3711,134 C3722,136 3708,128 3718,128 L3729,128 3729,128 L3729,117 C3729,107 3737,121 3736,112 C3735,104 3727,115 3728,105 L3729,96"/></g><clipPath id="c" clipRule="evenodd" fill="transparent"><use href="#t502"/></clipPath></defs><svg viewBox="3695 85 43 52" preserveAspectRatio="xMinYMin meet"><svg width="4380" height="2430"><g><image crossorigin="anonymous" x="0" y="0" href="https://nftpuzzle.license-token.com/assets/completepuzzle.svg" width="100%" height="100%" /><g class="links"><use href="#t502"/></g></g></svg><svg x="3723" y="122" height="9%" width="9%" viewBox="0 0 330 330"><g><a xlink:href="https://nftpuzzle.license-token.com/" class="links"><title>See the most innovative NFT based token software licensing project</title><path fill="#E4CF37" id="more" d="M165,0C74.019,0,0,74.019,0,165s74.019,165,165,165s165-74.019,165-165S255.981,0,165,0z M85,190 c-13.785,0-25-11.215-25-25s11.215-25,25-25s25,11.215,25,25S98.785,190,85,190z M165,190c-13.785,0-25-11.215-25-25 s11.215-25,25-25s25,11.215,25,25S178.785,190,165,190z M245,190c-13.785,0-25-11.215-25-25s11.215-25,25-25 c13.785,0,25,11.215,25,25S258.785,190,245,190z"></path></a></g></svg></svg></svg>