<svg version="1.1" xmlns="http://www.w3.org/2000/svg" xmlns:xlink="http://www.w3.org/1999/xlink" fill="transparent" x="0" y="0" width="350" height="350" preserveAspectRatio="xMinYMin slice"><style type="text/css">.links{fill:transparent;stroke: #E4CF37;}.links:hover{fill:#63D272; opacity:0.4;}</style><defs><g id="allt"><path id="t5021" d="M2706,1216 L2696,1216 C2686,1216 2697,1226 2688,1223 C2679,1221 2691,1216 2682,1216 L2673,1216 2673,1216 L2672,1226 C2671,1236 2678,1224 2678,1232 C2678,1240 2673,1230 2673,1239 L2673,1248 2673,1248 L2683,1247 C2693,1246 2681,1253 2689,1253 C2698,1253 2687,1248 2696,1248 L2706,1248 2706,1248 L2706,1238 C2706,1228 2704,1242 2702,1231 C2701,1221 2707,1234 2706,1225 L2706,1216"/></g><clipPath id="c" clipRule="evenodd" fill="transparent"><use href="#t5021"/></clipPath></defs><svg viewBox="2670 1215 38 39" preserveAspectRatio="xMinYMin meet"><svg width="4380" height="2430"><g><image crossorigin="anonymous" x="0" y="0" href="https://nftpuzzle.license-token.com/assets/completepuzzle.svg" width="100%" height="100%" /><g class="links"><use href="#t5021"/></g></g></svg><svg x="2693" y="1239" height="9%" width="9%" viewBox="0 0 330 330"><g><a xlink:href="https://nftpuzzle.license-token.com/" class="links"><title>See the most innovative NFT based token software licensing project</title><path fill="#E4CF37" id="more" d="M165,0C74.019,0,0,74.019,0,165s74.019,165,165,165s165-74.019,165-165S255.981,0,165,0z M85,190 c-13.785,0-25-11.215-25-25s11.215-25,25-25s25,11.215,25,25S98.785,190,85,190z M165,190c-13.785,0-25-11.215-25-25 s11.215-25,25-25s25,11.215,25,25S178.785,190,165,190z M245,190c-13.785,0-25-11.215-25-25s11.215-25,25-25 c13.785,0,25,11.215,25,25S258.785,190,245,190z"></path></a></g></svg></svg></svg>