<svg version="1.1" xmlns="http://www.w3.org/2000/svg" xmlns:xlink="http://www.w3.org/1999/xlink" fill="transparent" x="0" y="0" width="350" height="350" preserveAspectRatio="xMinYMin slice"><style type="text/css">.links{fill:transparent;stroke: #E4CF37;}.links:hover{fill:#63D272; opacity:0.4;}</style><defs><g id="allt"><path id="t5025" d="M2838,1216 L2827,1216 C2816,1217 2832,1208 2823,1210 C2814,1212 2826,1218 2815,1217 L2805,1216 2805,1216 L2806,1224 C2808,1233 2800,1221 2798,1229 C2796,1238 2806,1228 2805,1238 L2805,1248 2805,1248 L2814,1249 C2823,1251 2810,1243 2819,1241 C2828,1239 2818,1249 2828,1248 L2838,1248 2838,1248 L2839,1237 C2840,1227 2834,1242 2834,1233 C2834,1225 2838,1235 2838,1225 L2838,1216"/></g><clipPath id="c" clipRule="evenodd" fill="transparent"><use href="#t5025"/></clipPath></defs><svg viewBox="2795 1207 46 45" preserveAspectRatio="xMinYMin meet"><svg width="4380" height="2430"><g><image crossorigin="anonymous" x="0" y="0" href="https://nftpuzzle.license-token.com/assets/completepuzzle.svg" width="100%" height="100%" /><g class="links"><use href="#t5025"/></g></g></svg><svg x="2826" y="1237" height="9%" width="9%" viewBox="0 0 330 330"><g><a xlink:href="https://nftpuzzle.license-token.com/" class="links"><title>See the most innovative NFT based token software licensing project</title><path fill="#E4CF37" id="more" d="M165,0C74.019,0,0,74.019,0,165s74.019,165,165,165s165-74.019,165-165S255.981,0,165,0z M85,190 c-13.785,0-25-11.215-25-25s11.215-25,25-25s25,11.215,25,25S98.785,190,85,190z M165,190c-13.785,0-25-11.215-25-25 s11.215-25,25-25s25,11.215,25,25S178.785,190,165,190z M245,190c-13.785,0-25-11.215-25-25s11.215-25,25-25 c13.785,0,25,11.215,25,25S258.785,190,245,190z"></path></a></g></svg></svg></svg>