<svg version="1.1" xmlns="http://www.w3.org/2000/svg" xmlns:xlink="http://www.w3.org/1999/xlink" fill="transparent" x="0" y="0" width="350" height="350" preserveAspectRatio="xMinYMin slice"><style type="text/css">.links{fill:transparent;stroke: #E4CF37;}.links:hover{fill:#63D272; opacity:0.4;}</style><defs><g id="allt"><path id="t5026" d="M2871,1216 L2861,1216 C2852,1216 2861,1209 2852,1210 C2843,1211 2860,1219 2849,1217 L2838,1216 2838,1216 L2838,1225 C2838,1235 2834,1225 2834,1233 C2834,1242 2840,1227 2839,1237 L2838,1248 2838,1248 L2848,1248 C2858,1248 2847,1244 2856,1244 C2865,1244 2849,1250 2860,1249 L2871,1248 2871,1248 L2871,1239 C2871,1230 2863,1241 2863,1232 C2864,1223 2871,1233 2871,1224 L2871,1216"/></g><clipPath id="c" clipRule="evenodd" fill="transparent"><use href="#t5026"/></clipPath></defs><svg viewBox="2833 1208 39 43" preserveAspectRatio="xMinYMin meet"><svg width="4380" height="2430"><g><image crossorigin="anonymous" x="0" y="0" href="https://nftpuzzle.license-token.com/assets/completepuzzle.svg" width="100%" height="100%" /><g class="links"><use href="#t5026"/></g></g></svg><svg x="2857" y="1236" height="9%" width="9%" viewBox="0 0 330 330"><g><a xlink:href="https://nftpuzzle.license-token.com/" class="links"><title>See the most innovative NFT based token software licensing project</title><path fill="#E4CF37" id="more" d="M165,0C74.019,0,0,74.019,0,165s74.019,165,165,165s165-74.019,165-165S255.981,0,165,0z M85,190 c-13.785,0-25-11.215-25-25s11.215-25,25-25s25,11.215,25,25S98.785,190,85,190z M165,190c-13.785,0-25-11.215-25-25 s11.215-25,25-25s25,11.215,25,25S178.785,190,165,190z M245,190c-13.785,0-25-11.215-25-25s11.215-25,25-25 c13.785,0,25,11.215,25,25S258.785,190,245,190z"></path></a></g></svg></svg></svg>