<svg version="1.1" xmlns="http://www.w3.org/2000/svg" xmlns:xlink="http://www.w3.org/1999/xlink" fill="transparent" x="0" y="0" width="350" height="350" preserveAspectRatio="xMinYMin slice"><style type="text/css">.links{fill:transparent;stroke: #E4CF37;}.links:hover{fill:#63D272; opacity:0.4;}</style><defs><g id="allt"><path id="t5027" d="M2904,1216 L2894,1216 C2884,1216 2898,1211 2889,1211 C2880,1212 2891,1217 2881,1216 L2871,1216 2871,1216 L2871,1224 C2871,1233 2864,1223 2863,1232 C2863,1241 2871,1230 2871,1239 L2871,1248 2871,1248 L2880,1248 C2889,1248 2878,1241 2887,1240 C2897,1240 2885,1248 2894,1248 L2904,1248 2904,1248 L2902,1238 C2901,1228 2909,1239 2911,1230 C2914,1222 2905,1233 2904,1224 L2904,1216"/></g><clipPath id="c" clipRule="evenodd" fill="transparent"><use href="#t5027"/></clipPath></defs><svg viewBox="2862 1210 53 39" preserveAspectRatio="xMinYMin meet"><svg width="4380" height="2430"><g><image crossorigin="anonymous" x="0" y="0" href="https://nftpuzzle.license-token.com/assets/completepuzzle.svg" width="100%" height="100%" /><g class="links"><use href="#t5027"/></g></g></svg><svg x="2900" y="1234" height="9%" width="9%" viewBox="0 0 330 330"><g><a xlink:href="https://nftpuzzle.license-token.com/" class="links"><title>See the most innovative NFT based token software licensing project</title><path fill="#E4CF37" id="more" d="M165,0C74.019,0,0,74.019,0,165s74.019,165,165,165s165-74.019,165-165S255.981,0,165,0z M85,190 c-13.785,0-25-11.215-25-25s11.215-25,25-25s25,11.215,25,25S98.785,190,85,190z M165,190c-13.785,0-25-11.215-25-25 s11.215-25,25-25s25,11.215,25,25S178.785,190,165,190z M245,190c-13.785,0-25-11.215-25-25s11.215-25,25-25 c13.785,0,25,11.215,25,25S258.785,190,245,190z"></path></a></g></svg></svg></svg>