<svg version="1.1" xmlns="http://www.w3.org/2000/svg" xmlns:xlink="http://www.w3.org/1999/xlink" fill="transparent" x="0" y="0" width="350" height="350" preserveAspectRatio="xMinYMin slice"><style type="text/css">.links{fill:transparent;stroke: #E4CF37;}.links:hover{fill:#63D272; opacity:0.4;}</style><defs><g id="allt"><path id="t503" d="M3762,96 L3751,94 C3740,92 3753,105 3744,104 C3735,104 3749,96 3739,96 L3729,96 3729,96 L3728,105 C3727,115 3735,104 3736,112 C3737,121 3729,107 3729,117 L3729,128 3729,128 L3739,127 C3749,126 3737,134 3746,135 C3755,136 3740,128 3751,128 L3762,128 3762,128 L3762,117 C3762,107 3756,120 3756,111 C3756,103 3763,115 3762,105 L3762,96"/></g><clipPath id="c" clipRule="evenodd" fill="transparent"><use href="#t503"/></clipPath></defs><svg viewBox="3726 91 38 46" preserveAspectRatio="xMinYMin meet"><svg width="4380" height="2430"><g><image crossorigin="anonymous" x="0" y="0" href="https://nftpuzzle.license-token.com/assets/completepuzzle.svg" width="100%" height="100%" /><g class="links"><use href="#t503"/></g></g></svg><svg x="3749" y="122" height="9%" width="9%" viewBox="0 0 330 330"><g><a xlink:href="https://nftpuzzle.license-token.com/" class="links"><title>See the most innovative NFT based token software licensing project</title><path fill="#E4CF37" id="more" d="M165,0C74.019,0,0,74.019,0,165s74.019,165,165,165s165-74.019,165-165S255.981,0,165,0z M85,190 c-13.785,0-25-11.215-25-25s11.215-25,25-25s25,11.215,25,25S98.785,190,85,190z M165,190c-13.785,0-25-11.215-25-25 s11.215-25,25-25s25,11.215,25,25S178.785,190,165,190z M245,190c-13.785,0-25-11.215-25-25s11.215-25,25-25 c13.785,0,25,11.215,25,25S258.785,190,245,190z"></path></a></g></svg></svg></svg>