<svg version="1.1" xmlns="http://www.w3.org/2000/svg" xmlns:xlink="http://www.w3.org/1999/xlink" fill="transparent" x="0" y="0" width="350" height="350" preserveAspectRatio="xMinYMin slice"><style type="text/css">.links{fill:transparent;stroke: #E4CF37;}.links:hover{fill:#63D272; opacity:0.4;}</style><defs><g id="allt"><path id="t5032" d="M3069,1216 L3057,1216 C3046,1216 3063,1209 3053,1210 C3044,1212 3056,1216 3046,1216 L3036,1216 3036,1216 L3036,1224 C3036,1233 3033,1221 3032,1229 C3032,1238 3036,1227 3036,1237 L3036,1248 3036,1248 L3045,1248 C3054,1248 3041,1245 3050,1244 C3059,1244 3047,1248 3058,1248 L3069,1248 3069,1248 L3070,1237 C3071,1226 3059,1240 3060,1231 C3061,1222 3070,1235 3069,1225 L3069,1216"/></g><clipPath id="c" clipRule="evenodd" fill="transparent"><use href="#t5032"/></clipPath></defs><svg viewBox="3031 1208 41 41" preserveAspectRatio="xMinYMin meet"><svg width="4380" height="2430"><g><image crossorigin="anonymous" x="0" y="0" href="https://nftpuzzle.license-token.com/assets/completepuzzle.svg" width="100%" height="100%" /><g class="links"><use href="#t5032"/></g></g></svg><svg x="3057" y="1234" height="9%" width="9%" viewBox="0 0 330 330"><g><a xlink:href="https://nftpuzzle.license-token.com/" class="links"><title>See the most innovative NFT based token software licensing project</title><path fill="#E4CF37" id="more" d="M165,0C74.019,0,0,74.019,0,165s74.019,165,165,165s165-74.019,165-165S255.981,0,165,0z M85,190 c-13.785,0-25-11.215-25-25s11.215-25,25-25s25,11.215,25,25S98.785,190,85,190z M165,190c-13.785,0-25-11.215-25-25 s11.215-25,25-25s25,11.215,25,25S178.785,190,165,190z M245,190c-13.785,0-25-11.215-25-25s11.215-25,25-25 c13.785,0,25,11.215,25,25S258.785,190,245,190z"></path></a></g></svg></svg></svg>