<svg version="1.1" xmlns="http://www.w3.org/2000/svg" xmlns:xlink="http://www.w3.org/1999/xlink" fill="transparent" x="0" y="0" width="350" height="350" preserveAspectRatio="xMinYMin slice"><style type="text/css">.links{fill:transparent;stroke: #E4CF37;}.links:hover{fill:#63D272; opacity:0.4;}</style><defs><g id="allt"><path id="t5037" d="M3234,1216 L3224,1215 C3215,1215 3227,1221 3217,1221 C3207,1221 3221,1216 3211,1216 L3201,1216 3201,1216 L3200,1225 C3200,1235 3208,1221 3208,1231 C3208,1241 3199,1227 3200,1237 L3201,1248 3201,1248 L3211,1247 C3221,1247 3206,1255 3216,1255 C3227,1255 3212,1246 3223,1247 L3234,1248 3234,1248 L3234,1238 C3234,1228 3244,1240 3242,1231 C3240,1222 3234,1236 3234,1226 L3234,1216"/></g><clipPath id="c" clipRule="evenodd" fill="transparent"><use href="#t5037"/></clipPath></defs><svg viewBox="3198 1214 47 42" preserveAspectRatio="xMinYMin meet"><svg width="4380" height="2430"><g><image crossorigin="anonymous" x="0" y="0" href="https://nftpuzzle.license-token.com/assets/completepuzzle.svg" width="100%" height="100%" /><g class="links"><use href="#t5037"/></g></g></svg><svg x="3230" y="1241" height="9%" width="9%" viewBox="0 0 330 330"><g><a xlink:href="https://nftpuzzle.license-token.com/" class="links"><title>See the most innovative NFT based token software licensing project</title><path fill="#E4CF37" id="more" d="M165,0C74.019,0,0,74.019,0,165s74.019,165,165,165s165-74.019,165-165S255.981,0,165,0z M85,190 c-13.785,0-25-11.215-25-25s11.215-25,25-25s25,11.215,25,25S98.785,190,85,190z M165,190c-13.785,0-25-11.215-25-25 s11.215-25,25-25s25,11.215,25,25S178.785,190,165,190z M245,190c-13.785,0-25-11.215-25-25s11.215-25,25-25 c13.785,0,25,11.215,25,25S258.785,190,245,190z"></path></a></g></svg></svg></svg>