<svg version="1.1" xmlns="http://www.w3.org/2000/svg" xmlns:xlink="http://www.w3.org/1999/xlink" fill="transparent" x="0" y="0" width="350" height="350" preserveAspectRatio="xMinYMin slice"><style type="text/css">.links{fill:transparent;stroke: #E4CF37;}.links:hover{fill:#63D272; opacity:0.4;}</style><defs><g id="allt"><path id="t5038" d="M3267,1216 L3256,1216 C3246,1216 3259,1213 3250,1213 C3242,1214 3252,1216 3243,1216 L3234,1216 3234,1216 L3234,1226 C3234,1236 3240,1222 3242,1231 C3244,1240 3234,1228 3234,1238 L3234,1248 3234,1248 L3244,1248 C3255,1248 3240,1254 3249,1256 C3259,1258 3246,1248 3256,1248 L3267,1248 3267,1248 L3268,1238 C3269,1229 3259,1238 3259,1230 C3260,1223 3267,1234 3267,1225 L3267,1216"/></g><clipPath id="c" clipRule="evenodd" fill="transparent"><use href="#t5038"/></clipPath></defs><svg viewBox="3233 1212 37 47" preserveAspectRatio="xMinYMin meet"><svg width="4380" height="2430"><g><image crossorigin="anonymous" x="0" y="0" href="https://nftpuzzle.license-token.com/assets/completepuzzle.svg" width="100%" height="100%" /><g class="links"><use href="#t5038"/></g></g></svg><svg x="3255" y="1244" height="9%" width="9%" viewBox="0 0 330 330"><g><a xlink:href="https://nftpuzzle.license-token.com/" class="links"><title>See the most innovative NFT based token software licensing project</title><path fill="#E4CF37" id="more" d="M165,0C74.019,0,0,74.019,0,165s74.019,165,165,165s165-74.019,165-165S255.981,0,165,0z M85,190 c-13.785,0-25-11.215-25-25s11.215-25,25-25s25,11.215,25,25S98.785,190,85,190z M165,190c-13.785,0-25-11.215-25-25 s11.215-25,25-25s25,11.215,25,25S178.785,190,165,190z M245,190c-13.785,0-25-11.215-25-25s11.215-25,25-25 c13.785,0,25,11.215,25,25S258.785,190,245,190z"></path></a></g></svg></svg></svg>