<svg version="1.1" xmlns="http://www.w3.org/2000/svg" xmlns:xlink="http://www.w3.org/1999/xlink" fill="transparent" x="0" y="0" width="350" height="350" preserveAspectRatio="xMinYMin slice"><style type="text/css">.links{fill:transparent;stroke: #E4CF37;}.links:hover{fill:#63D272; opacity:0.4;}</style><defs><g id="allt"><path id="t5040" d="M3333,1216 L3322,1216 C3312,1217 3324,1209 3315,1208 C3306,1207 3321,1220 3310,1218 L3300,1216 3300,1216 L3301,1225 C3303,1234 3288,1222 3288,1232 C3288,1242 3301,1229 3300,1238 L3300,1248 3300,1248 L3309,1249 C3318,1251 3306,1237 3316,1236 C3327,1236 3313,1249 3323,1248 L3333,1248 3333,1248 L3332,1237 C3331,1226 3340,1240 3340,1231 C3341,1223 3331,1234 3332,1225 L3333,1216"/></g><clipPath id="c" clipRule="evenodd" fill="transparent"><use href="#t5040"/></clipPath></defs><svg viewBox="3287 1206 55 46" preserveAspectRatio="xMinYMin meet"><svg width="4380" height="2430"><g><image crossorigin="anonymous" x="0" y="0" href="https://nftpuzzle.license-token.com/assets/completepuzzle.svg" width="100%" height="100%" /><g class="links"><use href="#t5040"/></g></g></svg><svg x="3327" y="1237" height="9%" width="9%" viewBox="0 0 330 330"><g><a xlink:href="https://nftpuzzle.license-token.com/" class="links"><title>See the most innovative NFT based token software licensing project</title><path fill="#E4CF37" id="more" d="M165,0C74.019,0,0,74.019,0,165s74.019,165,165,165s165-74.019,165-165S255.981,0,165,0z M85,190 c-13.785,0-25-11.215-25-25s11.215-25,25-25s25,11.215,25,25S98.785,190,85,190z M165,190c-13.785,0-25-11.215-25-25 s11.215-25,25-25s25,11.215,25,25S178.785,190,165,190z M245,190c-13.785,0-25-11.215-25-25s11.215-25,25-25 c13.785,0,25,11.215,25,25S258.785,190,245,190z"></path></a></g></svg></svg></svg>