<svg version="1.1" xmlns="http://www.w3.org/2000/svg" xmlns:xlink="http://www.w3.org/1999/xlink" fill="transparent" x="0" y="0" width="350" height="350" preserveAspectRatio="xMinYMin slice"><style type="text/css">.links{fill:transparent;stroke: #E4CF37;}.links:hover{fill:#63D272; opacity:0.4;}</style><defs><g id="allt"><path id="t5044" d="M3465,1216 L3455,1216 C3446,1216 3456,1221 3448,1220 C3441,1220 3450,1214 3441,1215 L3432,1216 3432,1216 L3432,1225 C3432,1235 3442,1224 3441,1233 C3441,1242 3428,1228 3430,1238 L3432,1248 3432,1248 L3442,1248 C3452,1248 3440,1257 3449,1257 C3459,1257 3444,1244 3454,1246 L3465,1248 3465,1248 L3464,1239 C3463,1230 3473,1238 3472,1229 C3471,1221 3463,1236 3464,1226 L3465,1216"/></g><clipPath id="c" clipRule="evenodd" fill="transparent"><use href="#t5044"/></clipPath></defs><svg viewBox="3427 1213 47 45" preserveAspectRatio="xMinYMin meet"><svg width="4380" height="2430"><g><image crossorigin="anonymous" x="0" y="0" href="https://nftpuzzle.license-token.com/assets/completepuzzle.svg" width="100%" height="100%" /><g class="links"><use href="#t5044"/></g></g></svg><svg x="3459" y="1243" height="9%" width="9%" viewBox="0 0 330 330"><g><a xlink:href="https://nftpuzzle.license-token.com/" class="links"><title>See the most innovative NFT based token software licensing project</title><path fill="#E4CF37" id="more" d="M165,0C74.019,0,0,74.019,0,165s74.019,165,165,165s165-74.019,165-165S255.981,0,165,0z M85,190 c-13.785,0-25-11.215-25-25s11.215-25,25-25s25,11.215,25,25S98.785,190,85,190z M165,190c-13.785,0-25-11.215-25-25 s11.215-25,25-25s25,11.215,25,25S178.785,190,165,190z M245,190c-13.785,0-25-11.215-25-25s11.215-25,25-25 c13.785,0,25,11.215,25,25S258.785,190,245,190z"></path></a></g></svg></svg></svg>