<svg version="1.1" xmlns="http://www.w3.org/2000/svg" xmlns:xlink="http://www.w3.org/1999/xlink" fill="transparent" x="0" y="0" width="350" height="350" preserveAspectRatio="xMinYMin slice"><style type="text/css">.links{fill:transparent;stroke: #E4CF37;}.links:hover{fill:#63D272; opacity:0.4;}</style><defs><g id="allt"><path id="t5045" d="M3498,1216 L3487,1216 C3477,1216 3488,1223 3480,1222 C3472,1221 3486,1216 3475,1216 L3465,1216 3465,1216 L3464,1226 C3463,1236 3471,1221 3472,1229 C3473,1238 3463,1230 3464,1239 L3465,1248 3465,1248 L3475,1247 C3485,1246 3470,1254 3479,1255 C3488,1256 3479,1246 3488,1247 L3498,1248 3498,1248 L3499,1239 C3500,1230 3494,1241 3493,1232 C3493,1224 3498,1237 3498,1226 L3498,1216"/></g><clipPath id="c" clipRule="evenodd" fill="transparent"><use href="#t5045"/></clipPath></defs><svg viewBox="3462 1215 39 42" preserveAspectRatio="xMinYMin meet"><svg width="4380" height="2430"><g><image crossorigin="anonymous" x="0" y="0" href="https://nftpuzzle.license-token.com/assets/completepuzzle.svg" width="100%" height="100%" /><g class="links"><use href="#t5045"/></g></g></svg><svg x="3486" y="1242" height="9%" width="9%" viewBox="0 0 330 330"><g><a xlink:href="https://nftpuzzle.license-token.com/" class="links"><title>See the most innovative NFT based token software licensing project</title><path fill="#E4CF37" id="more" d="M165,0C74.019,0,0,74.019,0,165s74.019,165,165,165s165-74.019,165-165S255.981,0,165,0z M85,190 c-13.785,0-25-11.215-25-25s11.215-25,25-25s25,11.215,25,25S98.785,190,85,190z M165,190c-13.785,0-25-11.215-25-25 s11.215-25,25-25s25,11.215,25,25S178.785,190,165,190z M245,190c-13.785,0-25-11.215-25-25s11.215-25,25-25 c13.785,0,25,11.215,25,25S258.785,190,245,190z"></path></a></g></svg></svg></svg>