<svg version="1.1" xmlns="http://www.w3.org/2000/svg" xmlns:xlink="http://www.w3.org/1999/xlink" fill="transparent" x="0" y="0" width="350" height="350" preserveAspectRatio="xMinYMin slice"><style type="text/css">.links{fill:transparent;stroke: #E4CF37;}.links:hover{fill:#63D272; opacity:0.4;}</style><defs><g id="allt"><path id="t5051" d="M3696,1216 L3686,1218 C3677,1220 3690,1207 3679,1207 C3669,1208 3682,1218 3672,1217 L3663,1216 3663,1216 L3663,1224 C3663,1233 3659,1221 3659,1229 C3660,1238 3663,1228 3663,1238 L3663,1248 3663,1248 L3672,1248 C3681,1248 3668,1244 3677,1244 C3686,1245 3676,1248 3686,1248 L3696,1248 3696,1248 L3695,1239 C3695,1230 3703,1242 3702,1231 C3701,1221 3695,1237 3695,1226 L3696,1216"/></g><clipPath id="c" clipRule="evenodd" fill="transparent"><use href="#t5051"/></clipPath></defs><svg viewBox="3658 1206 46 43" preserveAspectRatio="xMinYMin meet"><svg width="4380" height="2430"><g><image crossorigin="anonymous" x="0" y="0" href="https://nftpuzzle.license-token.com/assets/completepuzzle.svg" width="100%" height="100%" /><g class="links"><use href="#t5051"/></g></g></svg><svg x="3689" y="1234" height="9%" width="9%" viewBox="0 0 330 330"><g><a xlink:href="https://nftpuzzle.license-token.com/" class="links"><title>See the most innovative NFT based token software licensing project</title><path fill="#E4CF37" id="more" d="M165,0C74.019,0,0,74.019,0,165s74.019,165,165,165s165-74.019,165-165S255.981,0,165,0z M85,190 c-13.785,0-25-11.215-25-25s11.215-25,25-25s25,11.215,25,25S98.785,190,85,190z M165,190c-13.785,0-25-11.215-25-25 s11.215-25,25-25s25,11.215,25,25S178.785,190,165,190z M245,190c-13.785,0-25-11.215-25-25s11.215-25,25-25 c13.785,0,25,11.215,25,25S258.785,190,245,190z"></path></a></g></svg></svg></svg>