<svg version="1.1" xmlns="http://www.w3.org/2000/svg" xmlns:xlink="http://www.w3.org/1999/xlink" fill="transparent" x="0" y="0" width="350" height="350" preserveAspectRatio="xMinYMin slice"><style type="text/css">.links{fill:transparent;stroke: #E4CF37;}.links:hover{fill:#63D272; opacity:0.4;}</style><defs><g id="allt"><path id="t5057" d="M3894,1216 L3883,1214 C3872,1213 3888,1222 3876,1222 C3865,1223 3883,1215 3872,1215 L3861,1216 3861,1216 L3860,1226 C3859,1237 3865,1224 3864,1232 C3864,1241 3861,1229 3861,1238 L3861,1248 3861,1248 L3872,1247 C3883,1246 3869,1252 3878,1251 C3887,1251 3874,1248 3884,1248 L3894,1248 3894,1248 L3894,1237 C3894,1226 3900,1243 3900,1233 C3901,1223 3894,1236 3894,1226 L3894,1216"/></g><clipPath id="c" clipRule="evenodd" fill="transparent"><use href="#t5057"/></clipPath></defs><svg viewBox="3858 1212 44 41" preserveAspectRatio="xMinYMin meet"><svg width="4380" height="2430"><g><image crossorigin="anonymous" x="0" y="0" href="https://nftpuzzle.license-token.com/assets/completepuzzle.svg" width="100%" height="100%" /><g class="links"><use href="#t5057"/></g></g></svg><svg x="3887" y="1238" height="9%" width="9%" viewBox="0 0 330 330"><g><a xlink:href="https://nftpuzzle.license-token.com/" class="links"><title>See the most innovative NFT based token software licensing project</title><path fill="#E4CF37" id="more" d="M165,0C74.019,0,0,74.019,0,165s74.019,165,165,165s165-74.019,165-165S255.981,0,165,0z M85,190 c-13.785,0-25-11.215-25-25s11.215-25,25-25s25,11.215,25,25S98.785,190,85,190z M165,190c-13.785,0-25-11.215-25-25 s11.215-25,25-25s25,11.215,25,25S178.785,190,165,190z M245,190c-13.785,0-25-11.215-25-25s11.215-25,25-25 c13.785,0,25,11.215,25,25S258.785,190,245,190z"></path></a></g></svg></svg></svg>