<svg version="1.1" xmlns="http://www.w3.org/2000/svg" xmlns:xlink="http://www.w3.org/1999/xlink" fill="transparent" x="0" y="0" width="350" height="350" preserveAspectRatio="xMinYMin slice"><style type="text/css">.links{fill:transparent;stroke: #E4CF37;}.links:hover{fill:#63D272; opacity:0.4;}</style><defs><g id="allt"><path id="t5059" d="M3960,1216 L3949,1216 C3938,1216 3953,1219 3942,1219 C3932,1220 3948,1215 3937,1215 L3927,1216 3927,1216 L3929,1226 C3932,1236 3920,1223 3918,1231 C3916,1240 3927,1227 3927,1237 L3927,1248 3927,1248 L3937,1250 C3947,1253 3934,1241 3943,1239 C3952,1237 3939,1248 3949,1248 L3960,1248 3960,1248 L3960,1238 C3960,1229 3956,1242 3956,1233 C3957,1224 3961,1234 3960,1225 L3960,1216"/></g><clipPath id="c" clipRule="evenodd" fill="transparent"><use href="#t5059"/></clipPath></defs><svg viewBox="3915 1214 47 40" preserveAspectRatio="xMinYMin meet"><svg width="4380" height="2430"><g><image crossorigin="anonymous" x="0" y="0" href="https://nftpuzzle.license-token.com/assets/completepuzzle.svg" width="100%" height="100%" /><g class="links"><use href="#t5059"/></g></g></svg><svg x="3947" y="1239" height="9%" width="9%" viewBox="0 0 330 330"><g><a xlink:href="https://nftpuzzle.license-token.com/" class="links"><title>See the most innovative NFT based token software licensing project</title><path fill="#E4CF37" id="more" d="M165,0C74.019,0,0,74.019,0,165s74.019,165,165,165s165-74.019,165-165S255.981,0,165,0z M85,190 c-13.785,0-25-11.215-25-25s11.215-25,25-25s25,11.215,25,25S98.785,190,85,190z M165,190c-13.785,0-25-11.215-25-25 s11.215-25,25-25s25,11.215,25,25S178.785,190,165,190z M245,190c-13.785,0-25-11.215-25-25s11.215-25,25-25 c13.785,0,25,11.215,25,25S258.785,190,245,190z"></path></a></g></svg></svg></svg>