<svg version="1.1" xmlns="http://www.w3.org/2000/svg" xmlns:xlink="http://www.w3.org/1999/xlink" fill="transparent" x="0" y="0" width="350" height="350" preserveAspectRatio="xMinYMin slice"><style type="text/css">.links{fill:transparent;stroke: #E4CF37;}.links:hover{fill:#63D272; opacity:0.4;}</style><defs><g id="allt"><path id="t5067" d="M4224,1216 L4214,1216 C4205,1216 4218,1224 4209,1223 C4200,1222 4212,1212 4201,1214 L4191,1216 4191,1216 L4190,1226 C4189,1237 4197,1221 4198,1230 C4199,1240 4190,1230 4190,1239 L4191,1248 4191,1248 L4202,1247 C4213,1246 4196,1254 4206,1255 C4216,1256 4205,1247 4214,1247 L4224,1248 4224,1248 L4224,1238 C4224,1229 4219,1240 4220,1232 C4221,1225 4226,1236 4225,1226 L4224,1216"/></g><clipPath id="c" clipRule="evenodd" fill="transparent"><use href="#t5067"/></clipPath></defs><svg viewBox="4188 1211 39 46" preserveAspectRatio="xMinYMin meet"><svg width="4380" height="2430"><g><image crossorigin="anonymous" x="0" y="0" href="https://nftpuzzle.license-token.com/assets/completepuzzle.svg" width="100%" height="100%" /><g class="links"><use href="#t5067"/></g></g></svg><svg x="4212" y="1242" height="9%" width="9%" viewBox="0 0 330 330"><g><a xlink:href="https://nftpuzzle.license-token.com/" class="links"><title>See the most innovative NFT based token software licensing project</title><path fill="#E4CF37" id="more" d="M165,0C74.019,0,0,74.019,0,165s74.019,165,165,165s165-74.019,165-165S255.981,0,165,0z M85,190 c-13.785,0-25-11.215-25-25s11.215-25,25-25s25,11.215,25,25S98.785,190,85,190z M165,190c-13.785,0-25-11.215-25-25 s11.215-25,25-25s25,11.215,25,25S178.785,190,165,190z M245,190c-13.785,0-25-11.215-25-25s11.215-25,25-25 c13.785,0,25,11.215,25,25S258.785,190,245,190z"></path></a></g></svg></svg></svg>