<svg version="1.1" xmlns="http://www.w3.org/2000/svg" xmlns:xlink="http://www.w3.org/1999/xlink" fill="transparent" x="0" y="0" width="350" height="350" preserveAspectRatio="xMinYMin slice"><style type="text/css">.links{fill:transparent;stroke: #E4CF37;}.links:hover{fill:#63D272; opacity:0.4;}</style><defs><g id="allt"><path id="t5078" d="M297,1248 L286,1248 C276,1248 287,1239 278,1240 C269,1241 282,1252 273,1250 L264,1248 264,1248 L265,1258 C267,1268 256,1253 256,1261 C256,1270 266,1261 265,1270 L264,1280 264,1280 L274,1281 C285,1283 269,1272 278,1272 C287,1272 278,1282 287,1281 L297,1280 297,1280 L298,1269 C300,1259 290,1274 291,1263 C292,1253 298,1266 297,1257 L297,1248"/></g><clipPath id="c" clipRule="evenodd" fill="transparent"><use href="#t5078"/></clipPath></defs><svg viewBox="255 1238 46 46" preserveAspectRatio="xMinYMin meet"><svg width="4380" height="2430"><g><image crossorigin="anonymous" x="0" y="0" href="https://nftpuzzle.license-token.com/assets/completepuzzle.svg" width="100%" height="100%" /><g class="links"><use href="#t5078"/></g></g></svg><svg x="286" y="1269" height="9%" width="9%" viewBox="0 0 330 330"><g><a xlink:href="https://nftpuzzle.license-token.com/" class="links"><title>See the most innovative NFT based token software licensing project</title><path fill="#E4CF37" id="more" d="M165,0C74.019,0,0,74.019,0,165s74.019,165,165,165s165-74.019,165-165S255.981,0,165,0z M85,190 c-13.785,0-25-11.215-25-25s11.215-25,25-25s25,11.215,25,25S98.785,190,85,190z M165,190c-13.785,0-25-11.215-25-25 s11.215-25,25-25s25,11.215,25,25S178.785,190,165,190z M245,190c-13.785,0-25-11.215-25-25s11.215-25,25-25 c13.785,0,25,11.215,25,25S258.785,190,245,190z"></path></a></g></svg></svg></svg>