<svg version="1.1" xmlns="http://www.w3.org/2000/svg" xmlns:xlink="http://www.w3.org/1999/xlink" fill="transparent" x="0" y="0" width="350" height="350" preserveAspectRatio="xMinYMin slice"><style type="text/css">.links{fill:transparent;stroke: #E4CF37;}.links:hover{fill:#63D272; opacity:0.4;}</style><defs><g id="allt"><path id="t5083" d="M462,1248 L451,1248 C440,1248 453,1251 443,1251 C433,1252 448,1248 438,1248 L429,1248 429,1248 L426,1256 C424,1265 439,1254 437,1263 C436,1273 428,1259 428,1269 L429,1280 429,1280 L438,1277 C447,1275 435,1290 445,1288 C455,1287 441,1279 451,1279 L462,1280 462,1280 L462,1270 C462,1260 453,1271 452,1263 C451,1256 463,1268 462,1258 L462,1248"/></g><clipPath id="c" clipRule="evenodd" fill="transparent"><use href="#t5083"/></clipPath></defs><svg viewBox="423 1247 41 44" preserveAspectRatio="xMinYMin meet"><svg width="4380" height="2430"><g><image crossorigin="anonymous" x="0" y="0" href="https://nftpuzzle.license-token.com/assets/completepuzzle.svg" width="100%" height="100%" /><g class="links"><use href="#t5083"/></g></g></svg><svg x="449" y="1276" height="9%" width="9%" viewBox="0 0 330 330"><g><a xlink:href="https://nftpuzzle.license-token.com/" class="links"><title>See the most innovative NFT based token software licensing project</title><path fill="#E4CF37" id="more" d="M165,0C74.019,0,0,74.019,0,165s74.019,165,165,165s165-74.019,165-165S255.981,0,165,0z M85,190 c-13.785,0-25-11.215-25-25s11.215-25,25-25s25,11.215,25,25S98.785,190,85,190z M165,190c-13.785,0-25-11.215-25-25 s11.215-25,25-25s25,11.215,25,25S178.785,190,165,190z M245,190c-13.785,0-25-11.215-25-25s11.215-25,25-25 c13.785,0,25,11.215,25,25S258.785,190,245,190z"></path></a></g></svg></svg></svg>