<svg version="1.1" xmlns="http://www.w3.org/2000/svg" xmlns:xlink="http://www.w3.org/1999/xlink" fill="transparent" x="0" y="0" width="350" height="350" preserveAspectRatio="xMinYMin slice"><style type="text/css">.links{fill:transparent;stroke: #E4CF37;}.links:hover{fill:#63D272; opacity:0.4;}</style><defs><g id="allt"><path id="t5084" d="M495,1248 L484,1248 C473,1248 487,1239 478,1239 C469,1240 481,1247 471,1247 L462,1248 462,1248 L462,1258 C463,1268 451,1256 452,1263 C453,1271 462,1260 462,1270 L462,1280 462,1280 L472,1280 C482,1281 470,1270 478,1270 C486,1271 474,1280 484,1280 L495,1280 495,1280 L493,1269 C491,1259 504,1270 502,1263 C501,1257 495,1268 495,1258 L495,1248"/></g><clipPath id="c" clipRule="evenodd" fill="transparent"><use href="#t5084"/></clipPath></defs><svg viewBox="450 1238 55 44" preserveAspectRatio="xMinYMin meet"><svg width="4380" height="2430"><g><image crossorigin="anonymous" x="0" y="0" href="https://nftpuzzle.license-token.com/assets/completepuzzle.svg" width="100%" height="100%" /><g class="links"><use href="#t5084"/></g></g></svg><svg x="490" y="1267" height="9%" width="9%" viewBox="0 0 330 330"><g><a xlink:href="https://nftpuzzle.license-token.com/" class="links"><title>See the most innovative NFT based token software licensing project</title><path fill="#E4CF37" id="more" d="M165,0C74.019,0,0,74.019,0,165s74.019,165,165,165s165-74.019,165-165S255.981,0,165,0z M85,190 c-13.785,0-25-11.215-25-25s11.215-25,25-25s25,11.215,25,25S98.785,190,85,190z M165,190c-13.785,0-25-11.215-25-25 s11.215-25,25-25s25,11.215,25,25S178.785,190,165,190z M245,190c-13.785,0-25-11.215-25-25s11.215-25,25-25 c13.785,0,25,11.215,25,25S258.785,190,245,190z"></path></a></g></svg></svg></svg>