<svg version="1.1" xmlns="http://www.w3.org/2000/svg" xmlns:xlink="http://www.w3.org/1999/xlink" fill="transparent" x="0" y="0" width="350" height="350" preserveAspectRatio="xMinYMin slice"><style type="text/css">.links{fill:transparent;stroke: #E4CF37;}.links:hover{fill:#63D272; opacity:0.4;}</style><defs><g id="allt"><path id="t5089" d="M660,1248 L648,1250 C637,1252 653,1243 644,1242 C636,1241 646,1252 636,1250 L627,1248 627,1248 L627,1256 C627,1265 635,1255 635,1264 C636,1273 623,1262 625,1271 L627,1280 627,1280 L636,1280 C645,1280 634,1288 643,1288 C653,1288 641,1276 650,1278 L660,1280 660,1280 L661,1269 C662,1259 650,1273 649,1263 C649,1253 660,1266 660,1257 L660,1248"/></g><clipPath id="c" clipRule="evenodd" fill="transparent"><use href="#t5089"/></clipPath></defs><svg viewBox="622 1240 41 49" preserveAspectRatio="xMinYMin meet"><svg width="4380" height="2430"><g><image crossorigin="anonymous" x="0" y="0" href="https://nftpuzzle.license-token.com/assets/completepuzzle.svg" width="100%" height="100%" /><g class="links"><use href="#t5089"/></g></g></svg><svg x="648" y="1274" height="9%" width="9%" viewBox="0 0 330 330"><g><a xlink:href="https://nftpuzzle.license-token.com/" class="links"><title>See the most innovative NFT based token software licensing project</title><path fill="#E4CF37" id="more" d="M165,0C74.019,0,0,74.019,0,165s74.019,165,165,165s165-74.019,165-165S255.981,0,165,0z M85,190 c-13.785,0-25-11.215-25-25s11.215-25,25-25s25,11.215,25,25S98.785,190,85,190z M165,190c-13.785,0-25-11.215-25-25 s11.215-25,25-25s25,11.215,25,25S178.785,190,165,190z M245,190c-13.785,0-25-11.215-25-25s11.215-25,25-25 c13.785,0,25,11.215,25,25S258.785,190,245,190z"></path></a></g></svg></svg></svg>