<svg version="1.1" xmlns="http://www.w3.org/2000/svg" xmlns:xlink="http://www.w3.org/1999/xlink" fill="transparent" x="0" y="0" width="350" height="350" preserveAspectRatio="xMinYMin slice"><style type="text/css">.links{fill:transparent;stroke: #E4CF37;}.links:hover{fill:#63D272; opacity:0.4;}</style><defs><g id="allt"><path id="t5091" d="M726,1248 L715,1249 C704,1251 717,1239 709,1240 C701,1241 711,1250 702,1249 L693,1248 693,1248 L693,1258 C694,1268 689,1255 689,1262 C689,1270 695,1258 694,1269 L693,1280 693,1280 L703,1280 C714,1281 700,1276 708,1276 C716,1276 703,1282 714,1281 L726,1280 726,1280 L726,1270 C726,1260 721,1271 721,1262 C722,1253 726,1269 726,1258 L726,1248"/></g><clipPath id="c" clipRule="evenodd" fill="transparent"><use href="#t5091"/></clipPath></defs><svg viewBox="688 1238 39 45" preserveAspectRatio="xMinYMin meet"><svg width="4380" height="2430"><g><image crossorigin="anonymous" x="0" y="0" href="https://nftpuzzle.license-token.com/assets/completepuzzle.svg" width="100%" height="100%" /><g class="links"><use href="#t5091"/></g></g></svg><svg x="712" y="1268" height="9%" width="9%" viewBox="0 0 330 330"><g><a xlink:href="https://nftpuzzle.license-token.com/" class="links"><title>See the most innovative NFT based token software licensing project</title><path fill="#E4CF37" id="more" d="M165,0C74.019,0,0,74.019,0,165s74.019,165,165,165s165-74.019,165-165S255.981,0,165,0z M85,190 c-13.785,0-25-11.215-25-25s11.215-25,25-25s25,11.215,25,25S98.785,190,85,190z M165,190c-13.785,0-25-11.215-25-25 s11.215-25,25-25s25,11.215,25,25S178.785,190,165,190z M245,190c-13.785,0-25-11.215-25-25s11.215-25,25-25 c13.785,0,25,11.215,25,25S258.785,190,245,190z"></path></a></g></svg></svg></svg>