<svg version="1.1" xmlns="http://www.w3.org/2000/svg" xmlns:xlink="http://www.w3.org/1999/xlink" fill="transparent" x="0" y="0" width="350" height="350" preserveAspectRatio="xMinYMin slice"><style type="text/css">.links{fill:transparent;stroke: #E4CF37;}.links:hover{fill:#63D272; opacity:0.4;}</style><defs><g id="allt"><path id="t510" d="M3993,96 L3983,96 C3974,96 3988,94 3978,93 C3968,92 3979,96 3969,96 L3960,96 3960,96 L3958,105 C3956,115 3970,103 3968,111 C3966,119 3960,108 3960,118 L3960,128 3960,128 L3970,126 C3980,124 3967,138 3975,136 C3984,134 3972,128 3982,128 L3993,128 3993,128 L3993,118 C3993,108 3982,121 3984,111 C3986,101 3995,113 3994,104 L3993,96"/></g><clipPath id="c" clipRule="evenodd" fill="transparent"><use href="#t510"/></clipPath></defs><svg viewBox="3955 91 41 48" preserveAspectRatio="xMinYMin meet"><svg width="4380" height="2430"><g><image crossorigin="anonymous" x="0" y="0" href="https://nftpuzzle.license-token.com/assets/completepuzzle.svg" width="100%" height="100%" /><g class="links"><use href="#t510"/></g></g></svg><svg x="3981" y="124" height="9%" width="9%" viewBox="0 0 330 330"><g><a xlink:href="https://nftpuzzle.license-token.com/" class="links"><title>See the most innovative NFT based token software licensing project</title><path fill="#E4CF37" id="more" d="M165,0C74.019,0,0,74.019,0,165s74.019,165,165,165s165-74.019,165-165S255.981,0,165,0z M85,190 c-13.785,0-25-11.215-25-25s11.215-25,25-25s25,11.215,25,25S98.785,190,85,190z M165,190c-13.785,0-25-11.215-25-25 s11.215-25,25-25s25,11.215,25,25S178.785,190,165,190z M245,190c-13.785,0-25-11.215-25-25s11.215-25,25-25 c13.785,0,25,11.215,25,25S258.785,190,245,190z"></path></a></g></svg></svg></svg>