<svg version="1.1" xmlns="http://www.w3.org/2000/svg" xmlns:xlink="http://www.w3.org/1999/xlink" fill="transparent" x="0" y="0" width="350" height="350" preserveAspectRatio="xMinYMin slice"><style type="text/css">.links{fill:transparent;stroke: #E4CF37;}.links:hover{fill:#63D272; opacity:0.4;}</style><defs><g id="allt"><path id="t5103" d="M1122,1248 L1112,1247 C1103,1246 1114,1252 1106,1254 C1098,1256 1110,1245 1099,1246 L1089,1248 1089,1248 L1089,1258 C1089,1268 1093,1255 1093,1263 C1093,1272 1087,1258 1088,1269 L1089,1280 1089,1280 L1099,1280 C1109,1280 1096,1284 1105,1284 C1114,1284 1099,1278 1110,1279 L1122,1280 1122,1280 L1123,1270 C1124,1260 1118,1271 1117,1264 C1116,1257 1122,1268 1122,1258 L1122,1248"/></g><clipPath id="c" clipRule="evenodd" fill="transparent"><use href="#t5103"/></clipPath></defs><svg viewBox="1086 1244 39 41" preserveAspectRatio="xMinYMin meet"><svg width="4380" height="2430"><g><image crossorigin="anonymous" x="0" y="0" href="https://nftpuzzle.license-token.com/assets/completepuzzle.svg" width="100%" height="100%" /><g class="links"><use href="#t5103"/></g></g></svg><svg x="1110" y="1270" height="9%" width="9%" viewBox="0 0 330 330"><g><a xlink:href="https://nftpuzzle.license-token.com/" class="links"><title>See the most innovative NFT based token software licensing project</title><path fill="#E4CF37" id="more" d="M165,0C74.019,0,0,74.019,0,165s74.019,165,165,165s165-74.019,165-165S255.981,0,165,0z M85,190 c-13.785,0-25-11.215-25-25s11.215-25,25-25s25,11.215,25,25S98.785,190,85,190z M165,190c-13.785,0-25-11.215-25-25 s11.215-25,25-25s25,11.215,25,25S178.785,190,165,190z M245,190c-13.785,0-25-11.215-25-25s11.215-25,25-25 c13.785,0,25,11.215,25,25S258.785,190,245,190z"></path></a></g></svg></svg></svg>