<svg version="1.1" xmlns="http://www.w3.org/2000/svg" xmlns:xlink="http://www.w3.org/1999/xlink" fill="transparent" x="0" y="0" width="350" height="350" preserveAspectRatio="xMinYMin slice"><style type="text/css">.links{fill:transparent;stroke: #E4CF37;}.links:hover{fill:#63D272; opacity:0.4;}</style><defs><g id="allt"><path id="t5108" d="M1287,1248 L1276,1248 C1265,1248 1281,1258 1271,1256 C1262,1255 1275,1245 1264,1246 L1254,1248 1254,1248 L1254,1257 C1255,1267 1243,1256 1244,1264 C1245,1273 1257,1262 1255,1271 L1254,1280 1254,1280 L1264,1280 C1274,1281 1262,1270 1271,1270 C1280,1271 1268,1283 1277,1281 L1287,1280 1287,1280 L1287,1270 C1287,1261 1277,1274 1278,1264 C1280,1254 1289,1267 1288,1257 L1287,1248"/></g><clipPath id="c" clipRule="evenodd" fill="transparent"><use href="#t5108"/></clipPath></defs><svg viewBox="1242 1244 48 40" preserveAspectRatio="xMinYMin meet"><svg width="4380" height="2430"><g><image crossorigin="anonymous" x="0" y="0" href="https://nftpuzzle.license-token.com/assets/completepuzzle.svg" width="100%" height="100%" /><g class="links"><use href="#t5108"/></g></g></svg><svg x="1275" y="1269" height="9%" width="9%" viewBox="0 0 330 330"><g><a xlink:href="https://nftpuzzle.license-token.com/" class="links"><title>See the most innovative NFT based token software licensing project</title><path fill="#E4CF37" id="more" d="M165,0C74.019,0,0,74.019,0,165s74.019,165,165,165s165-74.019,165-165S255.981,0,165,0z M85,190 c-13.785,0-25-11.215-25-25s11.215-25,25-25s25,11.215,25,25S98.785,190,85,190z M165,190c-13.785,0-25-11.215-25-25 s11.215-25,25-25s25,11.215,25,25S178.785,190,165,190z M245,190c-13.785,0-25-11.215-25-25s11.215-25,25-25 c13.785,0,25,11.215,25,25S258.785,190,245,190z"></path></a></g></svg></svg></svg>