<svg version="1.1" xmlns="http://www.w3.org/2000/svg" xmlns:xlink="http://www.w3.org/1999/xlink" fill="transparent" x="0" y="0" width="350" height="350" preserveAspectRatio="xMinYMin slice"><style type="text/css">.links{fill:transparent;stroke: #E4CF37;}.links:hover{fill:#63D272; opacity:0.4;}</style><defs><g id="allt"><path id="t5114" d="M1485,1248 L1475,1247 C1465,1247 1475,1256 1468,1256 C1461,1256 1474,1247 1463,1247 L1452,1248 1452,1248 L1454,1258 C1457,1268 1447,1253 1446,1261 C1446,1270 1452,1260 1452,1270 L1452,1280 1452,1280 L1462,1282 C1472,1285 1457,1275 1466,1274 C1475,1274 1464,1280 1474,1280 L1485,1280 1485,1280 L1485,1270 C1485,1260 1492,1272 1492,1263 C1492,1255 1483,1269 1484,1258 L1485,1248"/></g><clipPath id="c" clipRule="evenodd" fill="transparent"><use href="#t5114"/></clipPath></defs><svg viewBox="1445 1246 48 40" preserveAspectRatio="xMinYMin meet"><svg width="4380" height="2430"><g><image crossorigin="anonymous" x="0" y="0" href="https://nftpuzzle.license-token.com/assets/completepuzzle.svg" width="100%" height="100%" /><g class="links"><use href="#t5114"/></g></g></svg><svg x="1478" y="1271" height="9%" width="9%" viewBox="0 0 330 330"><g><a xlink:href="https://nftpuzzle.license-token.com/" class="links"><title>See the most innovative NFT based token software licensing project</title><path fill="#E4CF37" id="more" d="M165,0C74.019,0,0,74.019,0,165s74.019,165,165,165s165-74.019,165-165S255.981,0,165,0z M85,190 c-13.785,0-25-11.215-25-25s11.215-25,25-25s25,11.215,25,25S98.785,190,85,190z M165,190c-13.785,0-25-11.215-25-25 s11.215-25,25-25s25,11.215,25,25S178.785,190,165,190z M245,190c-13.785,0-25-11.215-25-25s11.215-25,25-25 c13.785,0,25,11.215,25,25S258.785,190,245,190z"></path></a></g></svg></svg></svg>