<svg version="1.1" xmlns="http://www.w3.org/2000/svg" xmlns:xlink="http://www.w3.org/1999/xlink" fill="transparent" x="0" y="0" width="350" height="350" preserveAspectRatio="xMinYMin slice"><style type="text/css">.links{fill:transparent;stroke: #E4CF37;}.links:hover{fill:#63D272; opacity:0.4;}</style><defs><g id="allt"><path id="t5117" d="M1584,1248 L1573,1250 C1563,1252 1578,1237 1567,1239 C1556,1241 1571,1252 1561,1250 L1551,1248 1551,1248 L1552,1258 C1554,1269 1544,1255 1542,1264 C1541,1274 1553,1258 1552,1269 L1551,1280 1551,1280 L1562,1281 C1573,1283 1558,1273 1568,1271 C1578,1270 1562,1282 1573,1281 L1584,1280 1584,1280 L1584,1269 C1584,1259 1582,1270 1581,1262 C1580,1254 1586,1267 1585,1257 L1584,1248"/></g><clipPath id="c" clipRule="evenodd" fill="transparent"><use href="#t5117"/></clipPath></defs><svg viewBox="1540 1236 47 48" preserveAspectRatio="xMinYMin meet"><svg width="4380" height="2430"><g><image crossorigin="anonymous" x="0" y="0" href="https://nftpuzzle.license-token.com/assets/completepuzzle.svg" width="100%" height="100%" /><g class="links"><use href="#t5117"/></g></g></svg><svg x="1572" y="1269" height="9%" width="9%" viewBox="0 0 330 330"><g><a xlink:href="https://nftpuzzle.license-token.com/" class="links"><title>See the most innovative NFT based token software licensing project</title><path fill="#E4CF37" id="more" d="M165,0C74.019,0,0,74.019,0,165s74.019,165,165,165s165-74.019,165-165S255.981,0,165,0z M85,190 c-13.785,0-25-11.215-25-25s11.215-25,25-25s25,11.215,25,25S98.785,190,85,190z M165,190c-13.785,0-25-11.215-25-25 s11.215-25,25-25s25,11.215,25,25S178.785,190,165,190z M245,190c-13.785,0-25-11.215-25-25s11.215-25,25-25 c13.785,0,25,11.215,25,25S258.785,190,245,190z"></path></a></g></svg></svg></svg>