<svg version="1.1" xmlns="http://www.w3.org/2000/svg" xmlns:xlink="http://www.w3.org/1999/xlink" fill="transparent" x="0" y="0" width="350" height="350" preserveAspectRatio="xMinYMin slice"><style type="text/css">.links{fill:transparent;stroke: #E4CF37;}.links:hover{fill:#63D272; opacity:0.4;}</style><defs><g id="allt"><path id="t5119" d="M1650,1248 L1639,1249 C1629,1250 1642,1246 1633,1245 C1625,1245 1638,1248 1627,1248 L1617,1248 1617,1248 L1617,1257 C1617,1267 1613,1257 1611,1264 C1610,1271 1619,1262 1618,1271 L1617,1280 1617,1280 L1627,1280 C1637,1280 1626,1276 1633,1274 C1641,1273 1631,1282 1640,1281 L1650,1280 1650,1280 L1651,1271 C1653,1262 1644,1275 1643,1265 C1642,1255 1651,1267 1650,1257 L1650,1248"/></g><clipPath id="c" clipRule="evenodd" fill="transparent"><use href="#t5119"/></clipPath></defs><svg viewBox="1609 1244 45 39" preserveAspectRatio="xMinYMin meet"><svg width="4380" height="2430"><g><image crossorigin="anonymous" x="0" y="0" href="https://nftpuzzle.license-token.com/assets/completepuzzle.svg" width="100%" height="100%" /><g class="links"><use href="#t5119"/></g></g></svg><svg x="1639" y="1268" height="9%" width="9%" viewBox="0 0 330 330"><g><a xlink:href="https://nftpuzzle.license-token.com/" class="links"><title>See the most innovative NFT based token software licensing project</title><path fill="#E4CF37" id="more" d="M165,0C74.019,0,0,74.019,0,165s74.019,165,165,165s165-74.019,165-165S255.981,0,165,0z M85,190 c-13.785,0-25-11.215-25-25s11.215-25,25-25s25,11.215,25,25S98.785,190,85,190z M165,190c-13.785,0-25-11.215-25-25 s11.215-25,25-25s25,11.215,25,25S178.785,190,165,190z M245,190c-13.785,0-25-11.215-25-25s11.215-25,25-25 c13.785,0,25,11.215,25,25S258.785,190,245,190z"></path></a></g></svg></svg></svg>