<svg version="1.1" xmlns="http://www.w3.org/2000/svg" xmlns:xlink="http://www.w3.org/1999/xlink" fill="transparent" x="0" y="0" width="350" height="350" preserveAspectRatio="xMinYMin slice"><style type="text/css">.links{fill:transparent;stroke: #E4CF37;}.links:hover{fill:#63D272; opacity:0.4;}</style><defs><g id="allt"><path id="t512" d="M4059,96 L4049,95 C4039,94 4049,99 4040,100 C4031,101 4046,96 4036,96 L4026,96 4026,96 L4026,106 C4026,116 4029,105 4029,114 C4030,123 4026,106 4026,117 L4026,128 4026,128 L4036,128 C4046,128 4035,131 4044,131 C4054,132 4036,128 4047,128 L4059,128 4059,128 L4060,117 C4061,107 4049,120 4051,111 C4053,103 4062,116 4060,106 L4059,96"/></g><clipPath id="c" clipRule="evenodd" fill="transparent"><use href="#t512"/></clipPath></defs><svg viewBox="4025 93 38 40" preserveAspectRatio="xMinYMin meet"><svg width="4380" height="2430"><g><image crossorigin="anonymous" x="0" y="0" href="https://nftpuzzle.license-token.com/assets/completepuzzle.svg" width="100%" height="100%" /><g class="links"><use href="#t512"/></g></g></svg><svg x="4048" y="118" height="9%" width="9%" viewBox="0 0 330 330"><g><a xlink:href="https://nftpuzzle.license-token.com/" class="links"><title>See the most innovative NFT based token software licensing project</title><path fill="#E4CF37" id="more" d="M165,0C74.019,0,0,74.019,0,165s74.019,165,165,165s165-74.019,165-165S255.981,0,165,0z M85,190 c-13.785,0-25-11.215-25-25s11.215-25,25-25s25,11.215,25,25S98.785,190,85,190z M165,190c-13.785,0-25-11.215-25-25 s11.215-25,25-25s25,11.215,25,25S178.785,190,165,190z M245,190c-13.785,0-25-11.215-25-25s11.215-25,25-25 c13.785,0,25,11.215,25,25S258.785,190,245,190z"></path></a></g></svg></svg></svg>