<svg version="1.1" xmlns="http://www.w3.org/2000/svg" xmlns:xlink="http://www.w3.org/1999/xlink" fill="transparent" x="0" y="0" width="350" height="350" preserveAspectRatio="xMinYMin slice"><style type="text/css">.links{fill:transparent;stroke: #E4CF37;}.links:hover{fill:#63D272; opacity:0.4;}</style><defs><g id="allt"><path id="t5121" d="M1716,1248 L1706,1248 C1696,1248 1709,1250 1699,1251 C1690,1252 1701,1247 1692,1247 L1683,1248 1683,1248 L1683,1258 C1683,1269 1691,1252 1689,1261 C1688,1271 1683,1260 1683,1270 L1683,1280 1683,1280 L1694,1280 C1705,1280 1687,1288 1696,1286 C1706,1285 1695,1280 1705,1280 L1716,1280 1716,1280 L1717,1270 C1718,1261 1708,1271 1708,1263 C1709,1255 1719,1265 1717,1256 L1716,1248"/></g><clipPath id="c" clipRule="evenodd" fill="transparent"><use href="#t5121"/></clipPath></defs><svg viewBox="1682 1246 38 43" preserveAspectRatio="xMinYMin meet"><svg width="4380" height="2430"><g><image crossorigin="anonymous" x="0" y="0" href="https://nftpuzzle.license-token.com/assets/completepuzzle.svg" width="100%" height="100%" /><g class="links"><use href="#t5121"/></g></g></svg><svg x="1705" y="1274" height="9%" width="9%" viewBox="0 0 330 330"><g><a xlink:href="https://nftpuzzle.license-token.com/" class="links"><title>See the most innovative NFT based token software licensing project</title><path fill="#E4CF37" id="more" d="M165,0C74.019,0,0,74.019,0,165s74.019,165,165,165s165-74.019,165-165S255.981,0,165,0z M85,190 c-13.785,0-25-11.215-25-25s11.215-25,25-25s25,11.215,25,25S98.785,190,85,190z M165,190c-13.785,0-25-11.215-25-25 s11.215-25,25-25s25,11.215,25,25S178.785,190,165,190z M245,190c-13.785,0-25-11.215-25-25s11.215-25,25-25 c13.785,0,25,11.215,25,25S258.785,190,245,190z"></path></a></g></svg></svg></svg>