<svg version="1.1" xmlns="http://www.w3.org/2000/svg" xmlns:xlink="http://www.w3.org/1999/xlink" fill="transparent" x="0" y="0" width="350" height="350" preserveAspectRatio="xMinYMin slice"><style type="text/css">.links{fill:transparent;stroke: #E4CF37;}.links:hover{fill:#63D272; opacity:0.4;}</style><defs><g id="allt"><path id="t5128" d="M1947,1248 L1937,1249 C1928,1251 1941,1242 1930,1243 C1919,1244 1933,1251 1923,1249 L1914,1248 1914,1248 L1912,1257 C1911,1266 1922,1252 1920,1263 C1918,1274 1912,1260 1913,1270 L1914,1280 1914,1280 L1923,1278 C1932,1277 1918,1288 1929,1286 C1941,1284 1926,1278 1936,1279 L1947,1280 1947,1280 L1947,1270 C1947,1260 1945,1272 1944,1264 C1943,1257 1947,1269 1947,1258 L1947,1248"/></g><clipPath id="c" clipRule="evenodd" fill="transparent"><use href="#t5128"/></clipPath></defs><svg viewBox="1910 1241 38 48" preserveAspectRatio="xMinYMin meet"><svg width="4380" height="2430"><g><image crossorigin="anonymous" x="0" y="0" href="https://nftpuzzle.license-token.com/assets/completepuzzle.svg" width="100%" height="100%" /><g class="links"><use href="#t5128"/></g></g></svg><svg x="1933" y="1274" height="9%" width="9%" viewBox="0 0 330 330"><g><a xlink:href="https://nftpuzzle.license-token.com/" class="links"><title>See the most innovative NFT based token software licensing project</title><path fill="#E4CF37" id="more" d="M165,0C74.019,0,0,74.019,0,165s74.019,165,165,165s165-74.019,165-165S255.981,0,165,0z M85,190 c-13.785,0-25-11.215-25-25s11.215-25,25-25s25,11.215,25,25S98.785,190,85,190z M165,190c-13.785,0-25-11.215-25-25 s11.215-25,25-25s25,11.215,25,25S178.785,190,165,190z M245,190c-13.785,0-25-11.215-25-25s11.215-25,25-25 c13.785,0,25,11.215,25,25S258.785,190,245,190z"></path></a></g></svg></svg></svg>