<svg version="1.1" xmlns="http://www.w3.org/2000/svg" xmlns:xlink="http://www.w3.org/1999/xlink" fill="transparent" x="0" y="0" width="350" height="350" preserveAspectRatio="xMinYMin slice"><style type="text/css">.links{fill:transparent;stroke: #E4CF37;}.links:hover{fill:#63D272; opacity:0.4;}</style><defs><g id="allt"><path id="t5137" d="M2244,1248 L2233,1245 C2223,1243 2234,1260 2226,1258 C2219,1256 2229,1248 2220,1248 L2211,1248 2211,1248 L2210,1258 C2210,1268 2218,1254 2217,1264 C2216,1274 2211,1259 2211,1269 L2211,1280 2211,1280 L2221,1279 C2232,1279 2217,1287 2227,1286 C2238,1285 2223,1280 2233,1280 L2244,1280 2244,1280 L2244,1270 C2244,1260 2247,1274 2247,1264 C2247,1255 2244,1267 2244,1257 L2244,1248"/></g><clipPath id="c" clipRule="evenodd" fill="transparent"><use href="#t5137"/></clipPath></defs><svg viewBox="2209 1242 39 46" preserveAspectRatio="xMinYMin meet"><svg width="4380" height="2430"><g><image crossorigin="anonymous" x="0" y="0" href="https://nftpuzzle.license-token.com/assets/completepuzzle.svg" width="100%" height="100%" /><g class="links"><use href="#t5137"/></g></g></svg><svg x="2233" y="1273" height="9%" width="9%" viewBox="0 0 330 330"><g><a xlink:href="https://nftpuzzle.license-token.com/" class="links"><title>See the most innovative NFT based token software licensing project</title><path fill="#E4CF37" id="more" d="M165,0C74.019,0,0,74.019,0,165s74.019,165,165,165s165-74.019,165-165S255.981,0,165,0z M85,190 c-13.785,0-25-11.215-25-25s11.215-25,25-25s25,11.215,25,25S98.785,190,85,190z M165,190c-13.785,0-25-11.215-25-25 s11.215-25,25-25s25,11.215,25,25S178.785,190,165,190z M245,190c-13.785,0-25-11.215-25-25s11.215-25,25-25 c13.785,0,25,11.215,25,25S258.785,190,245,190z"></path></a></g></svg></svg></svg>