<svg version="1.1" xmlns="http://www.w3.org/2000/svg" xmlns:xlink="http://www.w3.org/1999/xlink" fill="transparent" x="0" y="0" width="350" height="350" preserveAspectRatio="xMinYMin slice"><style type="text/css">.links{fill:transparent;stroke: #E4CF37;}.links:hover{fill:#63D272; opacity:0.4;}</style><defs><g id="allt"><path id="t5147" d="M2574,1248 L2563,1249 C2553,1250 2564,1243 2557,1244 C2550,1245 2560,1248 2550,1248 L2541,1248 2541,1248 L2540,1257 C2540,1267 2536,1253 2535,1263 C2535,1273 2543,1262 2542,1271 L2541,1280 2541,1280 L2550,1279 C2560,1279 2546,1275 2556,1274 C2567,1274 2555,1282 2564,1281 L2574,1280 2574,1280 L2573,1269 C2572,1259 2581,1273 2579,1263 C2578,1254 2574,1266 2574,1257 L2574,1248"/></g><clipPath id="c" clipRule="evenodd" fill="transparent"><use href="#t5147"/></clipPath></defs><svg viewBox="2534 1242 48 41" preserveAspectRatio="xMinYMin meet"><svg width="4380" height="2430"><g><image crossorigin="anonymous" x="0" y="0" href="https://nftpuzzle.license-token.com/assets/completepuzzle.svg" width="100%" height="100%" /><g class="links"><use href="#t5147"/></g></g></svg><svg x="2567" y="1268" height="9%" width="9%" viewBox="0 0 330 330"><g><a xlink:href="https://nftpuzzle.license-token.com/" class="links"><title>See the most innovative NFT based token software licensing project</title><path fill="#E4CF37" id="more" d="M165,0C74.019,0,0,74.019,0,165s74.019,165,165,165s165-74.019,165-165S255.981,0,165,0z M85,190 c-13.785,0-25-11.215-25-25s11.215-25,25-25s25,11.215,25,25S98.785,190,85,190z M165,190c-13.785,0-25-11.215-25-25 s11.215-25,25-25s25,11.215,25,25S178.785,190,165,190z M245,190c-13.785,0-25-11.215-25-25s11.215-25,25-25 c13.785,0,25,11.215,25,25S258.785,190,245,190z"></path></a></g></svg></svg></svg>