<svg version="1.1" xmlns="http://www.w3.org/2000/svg" xmlns:xlink="http://www.w3.org/1999/xlink" fill="transparent" x="0" y="0" width="350" height="350" preserveAspectRatio="xMinYMin slice"><style type="text/css">.links{fill:transparent;stroke: #E4CF37;}.links:hover{fill:#63D272; opacity:0.4;}</style><defs><g id="allt"><path id="t5148" d="M2607,1248 L2596,1248 C2585,1248 2598,1252 2588,1251 C2579,1251 2595,1248 2584,1248 L2574,1248 2574,1248 L2574,1257 C2574,1266 2578,1254 2579,1263 C2581,1273 2572,1259 2573,1269 L2574,1280 2574,1280 L2583,1280 C2593,1280 2580,1284 2590,1285 C2600,1287 2586,1278 2596,1279 L2607,1280 2607,1280 L2607,1269 C2607,1258 2614,1270 2616,1262 C2618,1254 2604,1269 2605,1258 L2607,1248"/></g><clipPath id="c" clipRule="evenodd" fill="transparent"><use href="#t5148"/></clipPath></defs><svg viewBox="2571 1247 48 41" preserveAspectRatio="xMinYMin meet"><svg width="4380" height="2430"><g><image crossorigin="anonymous" x="0" y="0" href="https://nftpuzzle.license-token.com/assets/completepuzzle.svg" width="100%" height="100%" /><g class="links"><use href="#t5148"/></g></g></svg><svg x="2604" y="1273" height="9%" width="9%" viewBox="0 0 330 330"><g><a xlink:href="https://nftpuzzle.license-token.com/" class="links"><title>See the most innovative NFT based token software licensing project</title><path fill="#E4CF37" id="more" d="M165,0C74.019,0,0,74.019,0,165s74.019,165,165,165s165-74.019,165-165S255.981,0,165,0z M85,190 c-13.785,0-25-11.215-25-25s11.215-25,25-25s25,11.215,25,25S98.785,190,85,190z M165,190c-13.785,0-25-11.215-25-25 s11.215-25,25-25s25,11.215,25,25S178.785,190,165,190z M245,190c-13.785,0-25-11.215-25-25s11.215-25,25-25 c13.785,0,25,11.215,25,25S258.785,190,245,190z"></path></a></g></svg></svg></svg>