<svg version="1.1" xmlns="http://www.w3.org/2000/svg" xmlns:xlink="http://www.w3.org/1999/xlink" fill="transparent" x="0" y="0" width="350" height="350" preserveAspectRatio="xMinYMin slice"><style type="text/css">.links{fill:transparent;stroke: #E4CF37;}.links:hover{fill:#63D272; opacity:0.4;}</style><defs><g id="allt"><path id="t5149" d="M2640,1248 L2630,1247 C2620,1247 2635,1254 2625,1253 C2615,1252 2627,1247 2617,1247 L2607,1248 2607,1248 L2605,1258 C2604,1269 2618,1254 2616,1262 C2614,1270 2607,1258 2607,1269 L2607,1280 2607,1280 L2617,1278 C2628,1277 2613,1291 2621,1289 C2630,1287 2618,1280 2629,1280 L2640,1280 2640,1280 L2638,1269 C2636,1259 2651,1270 2649,1262 C2648,1254 2637,1267 2638,1257 L2640,1248"/></g><clipPath id="c" clipRule="evenodd" fill="transparent"><use href="#t5149"/></clipPath></defs><svg viewBox="2603 1246 49 46" preserveAspectRatio="xMinYMin meet"><svg width="4380" height="2430"><g><image crossorigin="anonymous" x="0" y="0" href="https://nftpuzzle.license-token.com/assets/completepuzzle.svg" width="100%" height="100%" /><g class="links"><use href="#t5149"/></g></g></svg><svg x="2637" y="1277" height="9%" width="9%" viewBox="0 0 330 330"><g><a xlink:href="https://nftpuzzle.license-token.com/" class="links"><title>See the most innovative NFT based token software licensing project</title><path fill="#E4CF37" id="more" d="M165,0C74.019,0,0,74.019,0,165s74.019,165,165,165s165-74.019,165-165S255.981,0,165,0z M85,190 c-13.785,0-25-11.215-25-25s11.215-25,25-25s25,11.215,25,25S98.785,190,85,190z M165,190c-13.785,0-25-11.215-25-25 s11.215-25,25-25s25,11.215,25,25S178.785,190,165,190z M245,190c-13.785,0-25-11.215-25-25s11.215-25,25-25 c13.785,0,25,11.215,25,25S258.785,190,245,190z"></path></a></g></svg></svg></svg>