<svg version="1.1" xmlns="http://www.w3.org/2000/svg" xmlns:xlink="http://www.w3.org/1999/xlink" fill="transparent" x="0" y="0" width="350" height="350" preserveAspectRatio="xMinYMin slice"><style type="text/css">.links{fill:transparent;stroke: #E4CF37;}.links:hover{fill:#63D272; opacity:0.4;}</style><defs><g id="allt"><path id="t5151" d="M2706,1248 L2696,1248 C2687,1248 2698,1253 2689,1253 C2681,1253 2693,1246 2683,1247 L2673,1248 2673,1248 L2673,1256 C2673,1265 2669,1257 2669,1264 C2670,1271 2673,1260 2673,1270 L2673,1280 2673,1280 L2682,1280 C2691,1280 2682,1276 2689,1276 C2697,1277 2685,1280 2695,1280 L2706,1280 2706,1280 L2707,1269 C2708,1259 2704,1272 2702,1264 C2700,1256 2708,1265 2707,1256 L2706,1248"/></g><clipPath id="c" clipRule="evenodd" fill="transparent"><use href="#t5151"/></clipPath></defs><svg viewBox="2668 1245 41 36" preserveAspectRatio="xMinYMin meet"><svg width="4380" height="2430"><g><image crossorigin="anonymous" x="0" y="0" href="https://nftpuzzle.license-token.com/assets/completepuzzle.svg" width="100%" height="100%" /><g class="links"><use href="#t5151"/></g></g></svg><svg x="2694" y="1266" height="9%" width="9%" viewBox="0 0 330 330"><g><a xlink:href="https://nftpuzzle.license-token.com/" class="links"><title>See the most innovative NFT based token software licensing project</title><path fill="#E4CF37" id="more" d="M165,0C74.019,0,0,74.019,0,165s74.019,165,165,165s165-74.019,165-165S255.981,0,165,0z M85,190 c-13.785,0-25-11.215-25-25s11.215-25,25-25s25,11.215,25,25S98.785,190,85,190z M165,190c-13.785,0-25-11.215-25-25 s11.215-25,25-25s25,11.215,25,25S178.785,190,165,190z M245,190c-13.785,0-25-11.215-25-25s11.215-25,25-25 c13.785,0,25,11.215,25,25S258.785,190,245,190z"></path></a></g></svg></svg></svg>