<svg version="1.1" xmlns="http://www.w3.org/2000/svg" xmlns:xlink="http://www.w3.org/1999/xlink" fill="transparent" x="0" y="0" width="350" height="350" preserveAspectRatio="xMinYMin slice"><style type="text/css">.links{fill:transparent;stroke: #E4CF37;}.links:hover{fill:#63D272; opacity:0.4;}</style><defs><g id="allt"><path id="t5153" d="M2772,1248 L2762,1247 C2753,1246 2766,1254 2755,1253 C2745,1253 2758,1248 2748,1248 L2739,1248 2739,1248 L2740,1256 C2742,1265 2733,1255 2732,1265 C2732,1275 2739,1261 2739,1270 L2739,1280 2739,1280 L2748,1281 C2757,1283 2746,1274 2756,1273 C2767,1273 2752,1280 2762,1280 L2772,1280 2772,1280 L2772,1269 C2772,1259 2767,1272 2767,1264 C2768,1257 2775,1269 2773,1258 L2772,1248"/></g><clipPath id="c" clipRule="evenodd" fill="transparent"><use href="#t5153"/></clipPath></defs><svg viewBox="2731 1245 45 39" preserveAspectRatio="xMinYMin meet"><svg width="4380" height="2430"><g><image crossorigin="anonymous" x="0" y="0" href="https://nftpuzzle.license-token.com/assets/completepuzzle.svg" width="100%" height="100%" /><g class="links"><use href="#t5153"/></g></g></svg><svg x="2761" y="1269" height="9%" width="9%" viewBox="0 0 330 330"><g><a xlink:href="https://nftpuzzle.license-token.com/" class="links"><title>See the most innovative NFT based token software licensing project</title><path fill="#E4CF37" id="more" d="M165,0C74.019,0,0,74.019,0,165s74.019,165,165,165s165-74.019,165-165S255.981,0,165,0z M85,190 c-13.785,0-25-11.215-25-25s11.215-25,25-25s25,11.215,25,25S98.785,190,85,190z M165,190c-13.785,0-25-11.215-25-25 s11.215-25,25-25s25,11.215,25,25S178.785,190,165,190z M245,190c-13.785,0-25-11.215-25-25s11.215-25,25-25 c13.785,0,25,11.215,25,25S258.785,190,245,190z"></path></a></g></svg></svg></svg>