<svg version="1.1" xmlns="http://www.w3.org/2000/svg" xmlns:xlink="http://www.w3.org/1999/xlink" fill="transparent" x="0" y="0" width="350" height="350" preserveAspectRatio="xMinYMin slice"><style type="text/css">.links{fill:transparent;stroke: #E4CF37;}.links:hover{fill:#63D272; opacity:0.4;}</style><defs><g id="allt"><path id="t5155" d="M2838,1248 L2828,1248 C2818,1249 2828,1239 2819,1241 C2810,1243 2823,1251 2814,1249 L2805,1248 2805,1248 L2805,1257 C2806,1267 2799,1256 2797,1263 C2796,1270 2805,1260 2805,1270 L2805,1280 2805,1280 L2815,1280 C2825,1281 2814,1274 2821,1272 C2828,1271 2817,1280 2827,1280 L2838,1280 2838,1280 L2838,1271 C2838,1262 2830,1273 2832,1262 C2834,1252 2842,1267 2840,1257 L2838,1248"/></g><clipPath id="c" clipRule="evenodd" fill="transparent"><use href="#t5155"/></clipPath></defs><svg viewBox="2795 1238 48 44" preserveAspectRatio="xMinYMin meet"><svg width="4380" height="2430"><g><image crossorigin="anonymous" x="0" y="0" href="https://nftpuzzle.license-token.com/assets/completepuzzle.svg" width="100%" height="100%" /><g class="links"><use href="#t5155"/></g></g></svg><svg x="2828" y="1267" height="9%" width="9%" viewBox="0 0 330 330"><g><a xlink:href="https://nftpuzzle.license-token.com/" class="links"><title>See the most innovative NFT based token software licensing project</title><path fill="#E4CF37" id="more" d="M165,0C74.019,0,0,74.019,0,165s74.019,165,165,165s165-74.019,165-165S255.981,0,165,0z M85,190 c-13.785,0-25-11.215-25-25s11.215-25,25-25s25,11.215,25,25S98.785,190,85,190z M165,190c-13.785,0-25-11.215-25-25 s11.215-25,25-25s25,11.215,25,25S178.785,190,165,190z M245,190c-13.785,0-25-11.215-25-25s11.215-25,25-25 c13.785,0,25,11.215,25,25S258.785,190,245,190z"></path></a></g></svg></svg></svg>