<svg version="1.1" xmlns="http://www.w3.org/2000/svg" xmlns:xlink="http://www.w3.org/1999/xlink" fill="transparent" x="0" y="0" width="350" height="350" preserveAspectRatio="xMinYMin slice"><style type="text/css">.links{fill:transparent;stroke: #E4CF37;}.links:hover{fill:#63D272; opacity:0.4;}</style><defs><g id="allt"><path id="t5159" d="M2970,1248 L2959,1248 C2949,1248 2961,1244 2951,1244 C2942,1244 2957,1248 2947,1248 L2937,1248 2937,1248 L2937,1257 C2938,1267 2931,1255 2930,1264 C2929,1274 2937,1262 2937,1271 L2937,1280 2937,1280 L2947,1280 C2957,1281 2944,1274 2954,1273 C2964,1272 2951,1280 2960,1280 L2970,1280 2970,1280 L2968,1269 C2966,1259 2979,1270 2978,1262 C2977,1255 2969,1268 2969,1258 L2970,1248"/></g><clipPath id="c" clipRule="evenodd" fill="transparent"><use href="#t5159"/></clipPath></defs><svg viewBox="2928 1243 52 39" preserveAspectRatio="xMinYMin meet"><svg width="4380" height="2430"><g><image crossorigin="anonymous" x="0" y="0" href="https://nftpuzzle.license-token.com/assets/completepuzzle.svg" width="100%" height="100%" /><g class="links"><use href="#t5159"/></g></g></svg><svg x="2965" y="1267" height="9%" width="9%" viewBox="0 0 330 330"><g><a xlink:href="https://nftpuzzle.license-token.com/" class="links"><title>See the most innovative NFT based token software licensing project</title><path fill="#E4CF37" id="more" d="M165,0C74.019,0,0,74.019,0,165s74.019,165,165,165s165-74.019,165-165S255.981,0,165,0z M85,190 c-13.785,0-25-11.215-25-25s11.215-25,25-25s25,11.215,25,25S98.785,190,85,190z M165,190c-13.785,0-25-11.215-25-25 s11.215-25,25-25s25,11.215,25,25S178.785,190,165,190z M245,190c-13.785,0-25-11.215-25-25s11.215-25,25-25 c13.785,0,25,11.215,25,25S258.785,190,245,190z"></path></a></g></svg></svg></svg>