<svg version="1.1" xmlns="http://www.w3.org/2000/svg" xmlns:xlink="http://www.w3.org/1999/xlink" fill="transparent" x="0" y="0" width="350" height="350" preserveAspectRatio="xMinYMin slice"><style type="text/css">.links{fill:transparent;stroke: #E4CF37;}.links:hover{fill:#63D272; opacity:0.4;}</style><defs><g id="allt"><path id="t5161" d="M3036,1248 L3025,1248 C3014,1248 3030,1240 3020,1241 C3011,1243 3024,1249 3013,1248 L3003,1248 3003,1248 L3003,1257 C3003,1267 3010,1255 3009,1263 C3008,1272 3001,1259 3002,1269 L3003,1280 3003,1280 L3012,1280 C3022,1280 3010,1287 3019,1286 C3028,1285 3015,1278 3025,1279 L3036,1280 3036,1280 L3036,1271 C3036,1262 3038,1275 3038,1263 C3038,1252 3036,1265 3036,1256 L3036,1248"/></g><clipPath id="c" clipRule="evenodd" fill="transparent"><use href="#t5161"/></clipPath></defs><svg viewBox="3000 1239 39 49" preserveAspectRatio="xMinYMin meet"><svg width="4380" height="2430"><g><image crossorigin="anonymous" x="0" y="0" href="https://nftpuzzle.license-token.com/assets/completepuzzle.svg" width="100%" height="100%" /><g class="links"><use href="#t5161"/></g></g></svg><svg x="3024" y="1273" height="9%" width="9%" viewBox="0 0 330 330"><g><a xlink:href="https://nftpuzzle.license-token.com/" class="links"><title>See the most innovative NFT based token software licensing project</title><path fill="#E4CF37" id="more" d="M165,0C74.019,0,0,74.019,0,165s74.019,165,165,165s165-74.019,165-165S255.981,0,165,0z M85,190 c-13.785,0-25-11.215-25-25s11.215-25,25-25s25,11.215,25,25S98.785,190,85,190z M165,190c-13.785,0-25-11.215-25-25 s11.215-25,25-25s25,11.215,25,25S178.785,190,165,190z M245,190c-13.785,0-25-11.215-25-25s11.215-25,25-25 c13.785,0,25,11.215,25,25S258.785,190,245,190z"></path></a></g></svg></svg></svg>