<svg version="1.1" xmlns="http://www.w3.org/2000/svg" xmlns:xlink="http://www.w3.org/1999/xlink" fill="transparent" x="0" y="0" width="350" height="350" preserveAspectRatio="xMinYMin slice"><style type="text/css">.links{fill:transparent;stroke: #E4CF37;}.links:hover{fill:#63D272; opacity:0.4;}</style><defs><g id="allt"><path id="t5173" d="M3432,1248 L3421,1248 C3411,1248 3424,1261 3416,1259 C3408,1257 3418,1248 3408,1248 L3399,1248 3399,1248 L3398,1257 C3397,1267 3404,1255 3404,1262 C3405,1270 3399,1260 3399,1270 L3399,1280 3399,1280 L3409,1279 C3419,1278 3406,1285 3414,1285 C3422,1286 3411,1280 3421,1280 L3432,1280 3432,1280 L3432,1269 C3432,1258 3435,1274 3435,1264 C3436,1255 3432,1268 3432,1258 L3432,1248"/></g><clipPath id="c" clipRule="evenodd" fill="transparent"><use href="#t5173"/></clipPath></defs><svg viewBox="3396 1247 41 40" preserveAspectRatio="xMinYMin meet"><svg width="4380" height="2430"><g><image crossorigin="anonymous" x="0" y="0" href="https://nftpuzzle.license-token.com/assets/completepuzzle.svg" width="100%" height="100%" /><g class="links"><use href="#t5173"/></g></g></svg><svg x="3422" y="1272" height="9%" width="9%" viewBox="0 0 330 330"><g><a xlink:href="https://nftpuzzle.license-token.com/" class="links"><title>See the most innovative NFT based token software licensing project</title><path fill="#E4CF37" id="more" d="M165,0C74.019,0,0,74.019,0,165s74.019,165,165,165s165-74.019,165-165S255.981,0,165,0z M85,190 c-13.785,0-25-11.215-25-25s11.215-25,25-25s25,11.215,25,25S98.785,190,85,190z M165,190c-13.785,0-25-11.215-25-25 s11.215-25,25-25s25,11.215,25,25S178.785,190,165,190z M245,190c-13.785,0-25-11.215-25-25s11.215-25,25-25 c13.785,0,25,11.215,25,25S258.785,190,245,190z"></path></a></g></svg></svg></svg>