<svg version="1.1" xmlns="http://www.w3.org/2000/svg" xmlns:xlink="http://www.w3.org/1999/xlink" fill="transparent" x="0" y="0" width="350" height="350" preserveAspectRatio="xMinYMin slice"><style type="text/css">.links{fill:transparent;stroke: #E4CF37;}.links:hover{fill:#63D272; opacity:0.4;}</style><defs><g id="allt"><path id="t5178" d="M3597,1248 L3587,1249 C3577,1250 3590,1244 3579,1244 C3569,1244 3582,1248 3573,1248 L3564,1248 3564,1248 L3563,1257 C3562,1266 3574,1257 3574,1264 C3575,1272 3564,1259 3564,1269 L3564,1280 3564,1280 L3573,1279 C3582,1278 3573,1290 3580,1290 C3588,1291 3576,1280 3586,1280 L3597,1280 3597,1280 L3597,1269 C3598,1259 3591,1270 3591,1263 C3591,1257 3597,1265 3597,1256 L3597,1248"/></g><clipPath id="c" clipRule="evenodd" fill="transparent"><use href="#t5178"/></clipPath></defs><svg viewBox="3561 1243 38 49" preserveAspectRatio="xMinYMin meet"><svg width="4380" height="2430"><g><image crossorigin="anonymous" x="0" y="0" href="https://nftpuzzle.license-token.com/assets/completepuzzle.svg" width="100%" height="100%" /><g class="links"><use href="#t5178"/></g></g></svg><svg x="3584" y="1277" height="9%" width="9%" viewBox="0 0 330 330"><g><a xlink:href="https://nftpuzzle.license-token.com/" class="links"><title>See the most innovative NFT based token software licensing project</title><path fill="#E4CF37" id="more" d="M165,0C74.019,0,0,74.019,0,165s74.019,165,165,165s165-74.019,165-165S255.981,0,165,0z M85,190 c-13.785,0-25-11.215-25-25s11.215-25,25-25s25,11.215,25,25S98.785,190,85,190z M165,190c-13.785,0-25-11.215-25-25 s11.215-25,25-25s25,11.215,25,25S178.785,190,165,190z M245,190c-13.785,0-25-11.215-25-25s11.215-25,25-25 c13.785,0,25,11.215,25,25S258.785,190,245,190z"></path></a></g></svg></svg></svg>