<svg version="1.1" xmlns="http://www.w3.org/2000/svg" xmlns:xlink="http://www.w3.org/1999/xlink" fill="transparent" x="0" y="0" width="350" height="350" preserveAspectRatio="xMinYMin slice"><style type="text/css">.links{fill:transparent;stroke: #E4CF37;}.links:hover{fill:#63D272; opacity:0.4;}</style><defs><g id="allt"><path id="t5184" d="M3795,1248 L3784,1248 C3773,1249 3788,1241 3778,1240 C3769,1240 3784,1248 3773,1248 L3762,1248 3762,1248 L3763,1256 C3764,1265 3755,1255 3755,1264 C3755,1273 3763,1260 3762,1270 L3762,1280 3762,1280 L3771,1281 C3780,1282 3769,1273 3778,1273 C3788,1273 3775,1281 3785,1280 L3795,1280 3795,1280 L3795,1270 C3795,1261 3804,1272 3804,1263 C3804,1255 3793,1266 3794,1257 L3795,1248"/></g><clipPath id="c" clipRule="evenodd" fill="transparent"><use href="#t5184"/></clipPath></defs><svg viewBox="3754 1239 51 44" preserveAspectRatio="xMinYMin meet"><svg width="4380" height="2430"><g><image crossorigin="anonymous" x="0" y="0" href="https://nftpuzzle.license-token.com/assets/completepuzzle.svg" width="100%" height="100%" /><g class="links"><use href="#t5184"/></g></g></svg><svg x="3790" y="1268" height="9%" width="9%" viewBox="0 0 330 330"><g><a xlink:href="https://nftpuzzle.license-token.com/" class="links"><title>See the most innovative NFT based token software licensing project</title><path fill="#E4CF37" id="more" d="M165,0C74.019,0,0,74.019,0,165s74.019,165,165,165s165-74.019,165-165S255.981,0,165,0z M85,190 c-13.785,0-25-11.215-25-25s11.215-25,25-25s25,11.215,25,25S98.785,190,85,190z M165,190c-13.785,0-25-11.215-25-25 s11.215-25,25-25s25,11.215,25,25S178.785,190,165,190z M245,190c-13.785,0-25-11.215-25-25s11.215-25,25-25 c13.785,0,25,11.215,25,25S258.785,190,245,190z"></path></a></g></svg></svg></svg>