<svg version="1.1" xmlns="http://www.w3.org/2000/svg" xmlns:xlink="http://www.w3.org/1999/xlink" fill="transparent" x="0" y="0" width="350" height="350" preserveAspectRatio="xMinYMin slice"><style type="text/css">.links{fill:transparent;stroke: #E4CF37;}.links:hover{fill:#63D272; opacity:0.4;}</style><defs><g id="allt"><path id="t5191" d="M4026,1248 L4015,1248 C4004,1248 4019,1254 4008,1256 C3998,1259 4013,1247 4003,1247 L3993,1248 3993,1248 L3992,1257 C3991,1267 4000,1253 3999,1262 C3999,1271 3990,1259 3991,1269 L3993,1280 3993,1280 L4003,1279 C4013,1278 3998,1287 4007,1286 C4017,1286 4004,1277 4015,1278 L4026,1280 4026,1280 L4026,1269 C4026,1258 4029,1271 4028,1263 C4028,1256 4024,1268 4025,1258 L4026,1248"/></g><clipPath id="c" clipRule="evenodd" fill="transparent"><use href="#t5191"/></clipPath></defs><svg viewBox="3989 1246 41 42" preserveAspectRatio="xMinYMin meet"><svg width="4380" height="2430"><g><image crossorigin="anonymous" x="0" y="0" href="https://nftpuzzle.license-token.com/assets/completepuzzle.svg" width="100%" height="100%" /><g class="links"><use href="#t5191"/></g></g></svg><svg x="4015" y="1273" height="9%" width="9%" viewBox="0 0 330 330"><g><a xlink:href="https://nftpuzzle.license-token.com/" class="links"><title>See the most innovative NFT based token software licensing project</title><path fill="#E4CF37" id="more" d="M165,0C74.019,0,0,74.019,0,165s74.019,165,165,165s165-74.019,165-165S255.981,0,165,0z M85,190 c-13.785,0-25-11.215-25-25s11.215-25,25-25s25,11.215,25,25S98.785,190,85,190z M165,190c-13.785,0-25-11.215-25-25 s11.215-25,25-25s25,11.215,25,25S178.785,190,165,190z M245,190c-13.785,0-25-11.215-25-25s11.215-25,25-25 c13.785,0,25,11.215,25,25S258.785,190,245,190z"></path></a></g></svg></svg></svg>