<svg version="1.1" xmlns="http://www.w3.org/2000/svg" xmlns:xlink="http://www.w3.org/1999/xlink" fill="transparent" x="0" y="0" width="350" height="350" preserveAspectRatio="xMinYMin slice"><style type="text/css">.links{fill:transparent;stroke: #E4CF37;}.links:hover{fill:#63D272; opacity:0.4;}</style><defs><g id="allt"><path id="t5196" d="M4191,1248 L4180,1248 C4170,1248 4184,1240 4175,1241 C4167,1242 4179,1249 4168,1248 L4158,1248 4158,1248 L4157,1258 C4157,1269 4165,1256 4163,1263 C4162,1271 4155,1260 4156,1270 L4158,1280 4158,1280 L4169,1279 C4180,1279 4166,1287 4174,1285 C4182,1284 4171,1277 4181,1278 L4191,1280 4191,1280 L4189,1270 C4187,1261 4202,1273 4200,1264 C4199,1256 4191,1269 4191,1258 L4191,1248"/></g><clipPath id="c" clipRule="evenodd" fill="transparent"><use href="#t5196"/></clipPath></defs><svg viewBox="4154 1239 49 49" preserveAspectRatio="xMinYMin meet"><svg width="4380" height="2430"><g><image crossorigin="anonymous" x="0" y="0" href="https://nftpuzzle.license-token.com/assets/completepuzzle.svg" width="100%" height="100%" /><g class="links"><use href="#t5196"/></g></g></svg><svg x="4188" y="1273" height="9%" width="9%" viewBox="0 0 330 330"><g><a xlink:href="https://nftpuzzle.license-token.com/" class="links"><title>See the most innovative NFT based token software licensing project</title><path fill="#E4CF37" id="more" d="M165,0C74.019,0,0,74.019,0,165s74.019,165,165,165s165-74.019,165-165S255.981,0,165,0z M85,190 c-13.785,0-25-11.215-25-25s11.215-25,25-25s25,11.215,25,25S98.785,190,85,190z M165,190c-13.785,0-25-11.215-25-25 s11.215-25,25-25s25,11.215,25,25S178.785,190,165,190z M245,190c-13.785,0-25-11.215-25-25s11.215-25,25-25 c13.785,0,25,11.215,25,25S258.785,190,245,190z"></path></a></g></svg></svg></svg>