<svg version="1.1" xmlns="http://www.w3.org/2000/svg" xmlns:xlink="http://www.w3.org/1999/xlink" fill="transparent" x="0" y="0" width="350" height="350" preserveAspectRatio="xMinYMin slice"><style type="text/css">.links{fill:transparent;stroke: #E4CF37;}.links:hover{fill:#63D272; opacity:0.4;}</style><defs><g id="allt"><path id="t5197" d="M4224,1248 L4214,1247 C4205,1247 4216,1256 4206,1255 C4196,1254 4213,1246 4202,1247 L4191,1248 4191,1248 L4191,1258 C4191,1269 4199,1256 4200,1264 C4202,1273 4187,1261 4189,1270 L4191,1280 4191,1280 L4201,1280 C4212,1280 4200,1288 4208,1289 C4217,1290 4204,1276 4214,1278 L4224,1280 4224,1280 L4224,1270 C4224,1261 4216,1272 4217,1262 C4219,1253 4224,1268 4224,1258 L4224,1248"/></g><clipPath id="c" clipRule="evenodd" fill="transparent"><use href="#t5197"/></clipPath></defs><svg viewBox="4186 1245 39 46" preserveAspectRatio="xMinYMin meet"><svg width="4380" height="2430"><g><image crossorigin="anonymous" x="0" y="0" href="https://nftpuzzle.license-token.com/assets/completepuzzle.svg" width="100%" height="100%" /><g class="links"><use href="#t5197"/></g></g></svg><svg x="4210" y="1276" height="9%" width="9%" viewBox="0 0 330 330"><g><a xlink:href="https://nftpuzzle.license-token.com/" class="links"><title>See the most innovative NFT based token software licensing project</title><path fill="#E4CF37" id="more" d="M165,0C74.019,0,0,74.019,0,165s74.019,165,165,165s165-74.019,165-165S255.981,0,165,0z M85,190 c-13.785,0-25-11.215-25-25s11.215-25,25-25s25,11.215,25,25S98.785,190,85,190z M165,190c-13.785,0-25-11.215-25-25 s11.215-25,25-25s25,11.215,25,25S178.785,190,165,190z M245,190c-13.785,0-25-11.215-25-25s11.215-25,25-25 c13.785,0,25,11.215,25,25S258.785,190,245,190z"></path></a></g></svg></svg></svg>