<svg version="1.1" xmlns="http://www.w3.org/2000/svg" xmlns:xlink="http://www.w3.org/1999/xlink" fill="transparent" x="0" y="0" width="350" height="350" preserveAspectRatio="xMinYMin slice"><style type="text/css">.links{fill:transparent;stroke: #E4CF37;}.links:hover{fill:#63D272; opacity:0.4;}</style><defs><g id="allt"><path id="t5199" d="M4290,1248 L4280,1247 C4270,1247 4281,1241 4271,1240 C4262,1240 4275,1248 4266,1248 L4257,1248 4257,1248 L4258,1258 C4260,1269 4248,1253 4248,1263 C4249,1274 4261,1258 4259,1269 L4257,1280 4257,1280 L4268,1281 C4279,1283 4262,1271 4273,1271 C4284,1272 4268,1284 4279,1282 L4290,1280 L4290,1280 L4290,1248"/></g><clipPath id="c" clipRule="evenodd" fill="transparent"><use href="#t5199"/></clipPath></defs><svg viewBox="4247 1239 44 46" preserveAspectRatio="xMinYMin meet"><svg width="4380" height="2430"><g><image crossorigin="anonymous" x="0" y="0" href="https://nftpuzzle.license-token.com/assets/completepuzzle.svg" width="100%" height="100%" /><g class="links"><use href="#t5199"/></g></g></svg><svg x="4276" y="1270" height="9%" width="9%" viewBox="0 0 330 330"><g><a xlink:href="https://nftpuzzle.license-token.com/" class="links"><title>See the most innovative NFT based token software licensing project</title><path fill="#E4CF37" id="more" d="M165,0C74.019,0,0,74.019,0,165s74.019,165,165,165s165-74.019,165-165S255.981,0,165,0z M85,190 c-13.785,0-25-11.215-25-25s11.215-25,25-25s25,11.215,25,25S98.785,190,85,190z M165,190c-13.785,0-25-11.215-25-25 s11.215-25,25-25s25,11.215,25,25S178.785,190,165,190z M245,190c-13.785,0-25-11.215-25-25s11.215-25,25-25 c13.785,0,25,11.215,25,25S258.785,190,245,190z"></path></a></g></svg></svg></svg>