<svg version="1.1" xmlns="http://www.w3.org/2000/svg" xmlns:xlink="http://www.w3.org/1999/xlink" fill="transparent" x="0" y="0" width="350" height="350" preserveAspectRatio="xMinYMin slice"><style type="text/css">.links{fill:transparent;stroke: #E4CF37;}.links:hover{fill:#63D272; opacity:0.4;}</style><defs><g id="allt"><path id="t5202" d="M99,1280 L89,1280 C80,1280 93,1275 83,1275 C74,1276 85,1280 75,1280 L66,1280 66,1280 L66,1289 C66,1299 72,1289 71,1297 C71,1306 66,1294 66,1303 L66,1312 66,1312 L76,1312 C86,1312 75,1318 84,1317 C93,1317 80,1312 89,1312 L99,1312 99,1312 L99,1303 C99,1294 103,1307 102,1298 C102,1289 99,1300 99,1290 L99,1280"/></g><clipPath id="c" clipRule="evenodd" fill="transparent"><use href="#t5202"/></clipPath></defs><svg viewBox="65 1274 39 45" preserveAspectRatio="xMinYMin meet"><svg width="4380" height="2430"><g><image crossorigin="anonymous" x="0" y="0" href="https://nftpuzzle.license-token.com/assets/completepuzzle.svg" width="100%" height="100%" /><g class="links"><use href="#t5202"/></g></g></svg><svg x="89" y="1304" height="9%" width="9%" viewBox="0 0 330 330"><g><a xlink:href="https://nftpuzzle.license-token.com/" class="links"><title>See the most innovative NFT based token software licensing project</title><path fill="#E4CF37" id="more" d="M165,0C74.019,0,0,74.019,0,165s74.019,165,165,165s165-74.019,165-165S255.981,0,165,0z M85,190 c-13.785,0-25-11.215-25-25s11.215-25,25-25s25,11.215,25,25S98.785,190,85,190z M165,190c-13.785,0-25-11.215-25-25 s11.215-25,25-25s25,11.215,25,25S178.785,190,165,190z M245,190c-13.785,0-25-11.215-25-25s11.215-25,25-25 c13.785,0,25,11.215,25,25S258.785,190,245,190z"></path></a></g></svg></svg></svg>