<svg version="1.1" xmlns="http://www.w3.org/2000/svg" xmlns:xlink="http://www.w3.org/1999/xlink" fill="transparent" x="0" y="0" width="350" height="350" preserveAspectRatio="xMinYMin slice"><style type="text/css">.links{fill:transparent;stroke: #E4CF37;}.links:hover{fill:#63D272; opacity:0.4;}</style><defs><g id="allt"><path id="t5208" d="M297,1280 L287,1281 C278,1282 287,1272 278,1272 C269,1272 285,1283 274,1281 L264,1280 264,1280 L264,1290 C264,1300 258,1288 257,1297 C257,1306 266,1291 265,1301 L264,1312 264,1312 L274,1312 C284,1312 272,1306 281,1305 C291,1305 276,1314 286,1313 L297,1312 297,1312 L297,1301 C297,1291 292,1304 291,1296 C291,1288 300,1300 298,1290 L297,1280"/></g><clipPath id="c" clipRule="evenodd" fill="transparent"><use href="#t5208"/></clipPath></defs><svg viewBox="256 1271 45 44" preserveAspectRatio="xMinYMin meet"><svg width="4380" height="2430"><g><image crossorigin="anonymous" x="0" y="0" href="https://nftpuzzle.license-token.com/assets/completepuzzle.svg" width="100%" height="100%" /><g class="links"><use href="#t5208"/></g></g></svg><svg x="286" y="1300" height="9%" width="9%" viewBox="0 0 330 330"><g><a xlink:href="https://nftpuzzle.license-token.com/" class="links"><title>See the most innovative NFT based token software licensing project</title><path fill="#E4CF37" id="more" d="M165,0C74.019,0,0,74.019,0,165s74.019,165,165,165s165-74.019,165-165S255.981,0,165,0z M85,190 c-13.785,0-25-11.215-25-25s11.215-25,25-25s25,11.215,25,25S98.785,190,85,190z M165,190c-13.785,0-25-11.215-25-25 s11.215-25,25-25s25,11.215,25,25S178.785,190,165,190z M245,190c-13.785,0-25-11.215-25-25s11.215-25,25-25 c13.785,0,25,11.215,25,25S258.785,190,245,190z"></path></a></g></svg></svg></svg>