<svg version="1.1" xmlns="http://www.w3.org/2000/svg" xmlns:xlink="http://www.w3.org/1999/xlink" fill="transparent" x="0" y="0" width="350" height="350" preserveAspectRatio="xMinYMin slice"><style type="text/css">.links{fill:transparent;stroke: #E4CF37;}.links:hover{fill:#63D272; opacity:0.4;}</style><defs><g id="allt"><path id="t5209" d="M330,1280 L319,1281 C308,1283 324,1273 313,1274 C302,1275 316,1281 306,1280 L297,1280 297,1280 L298,1290 C300,1300 291,1288 291,1296 C292,1304 297,1291 297,1301 L297,1312 297,1312 L307,1313 C317,1315 305,1306 313,1306 C322,1307 308,1312 319,1312 L330,1312 330,1312 L330,1302 C330,1293 341,1304 339,1295 C337,1287 326,1301 328,1290 L330,1280"/></g><clipPath id="c" clipRule="evenodd" fill="transparent"><use href="#t5209"/></clipPath></defs><svg viewBox="290 1272 52 44" preserveAspectRatio="xMinYMin meet"><svg width="4380" height="2430"><g><image crossorigin="anonymous" x="0" y="0" href="https://nftpuzzle.license-token.com/assets/completepuzzle.svg" width="100%" height="100%" /><g class="links"><use href="#t5209"/></g></g></svg><svg x="327" y="1301" height="9%" width="9%" viewBox="0 0 330 330"><g><a xlink:href="https://nftpuzzle.license-token.com/" class="links"><title>See the most innovative NFT based token software licensing project</title><path fill="#E4CF37" id="more" d="M165,0C74.019,0,0,74.019,0,165s74.019,165,165,165s165-74.019,165-165S255.981,0,165,0z M85,190 c-13.785,0-25-11.215-25-25s11.215-25,25-25s25,11.215,25,25S98.785,190,85,190z M165,190c-13.785,0-25-11.215-25-25 s11.215-25,25-25s25,11.215,25,25S178.785,190,165,190z M245,190c-13.785,0-25-11.215-25-25s11.215-25,25-25 c13.785,0,25,11.215,25,25S258.785,190,245,190z"></path></a></g></svg></svg></svg>