<svg version="1.1" xmlns="http://www.w3.org/2000/svg" xmlns:xlink="http://www.w3.org/1999/xlink" fill="transparent" x="0" y="0" width="350" height="350" preserveAspectRatio="xMinYMin slice"><style type="text/css">.links{fill:transparent;stroke: #E4CF37;}.links:hover{fill:#63D272; opacity:0.4;}</style><defs><g id="allt"><path id="t5213" d="M462,1280 L451,1279 C441,1279 455,1287 445,1288 C435,1290 447,1275 438,1277 L429,1280 429,1280 L431,1289 C433,1299 417,1286 417,1294 C418,1302 432,1291 430,1301 L429,1312 429,1312 L439,1314 C449,1316 435,1301 443,1301 C452,1301 440,1315 451,1313 L462,1312 462,1312 L463,1303 C464,1294 456,1303 454,1296 C453,1289 466,1299 464,1289 L462,1280"/></g><clipPath id="c" clipRule="evenodd" fill="transparent"><use href="#t5213"/></clipPath></defs><svg viewBox="416 1274 51 43" preserveAspectRatio="xMinYMin meet"><svg width="4380" height="2430"><g><image crossorigin="anonymous" x="0" y="0" href="https://nftpuzzle.license-token.com/assets/completepuzzle.svg" width="100%" height="100%" /><g class="links"><use href="#t5213"/></g></g></svg><svg x="452" y="1302" height="9%" width="9%" viewBox="0 0 330 330"><g><a xlink:href="https://nftpuzzle.license-token.com/" class="links"><title>See the most innovative NFT based token software licensing project</title><path fill="#E4CF37" id="more" d="M165,0C74.019,0,0,74.019,0,165s74.019,165,165,165s165-74.019,165-165S255.981,0,165,0z M85,190 c-13.785,0-25-11.215-25-25s11.215-25,25-25s25,11.215,25,25S98.785,190,85,190z M165,190c-13.785,0-25-11.215-25-25 s11.215-25,25-25s25,11.215,25,25S178.785,190,165,190z M245,190c-13.785,0-25-11.215-25-25s11.215-25,25-25 c13.785,0,25,11.215,25,25S258.785,190,245,190z"></path></a></g></svg></svg></svg>