<svg version="1.1" xmlns="http://www.w3.org/2000/svg" xmlns:xlink="http://www.w3.org/1999/xlink" fill="transparent" x="0" y="0" width="350" height="350" preserveAspectRatio="xMinYMin slice"><style type="text/css">.links{fill:transparent;stroke: #E4CF37;}.links:hover{fill:#63D272; opacity:0.4;}</style><defs><g id="allt"><path id="t5215" d="M528,1280 L517,1278 C506,1276 518,1288 511,1287 C504,1286 516,1280 505,1280 L495,1280 495,1280 L496,1290 C497,1300 492,1286 491,1296 C491,1306 495,1290 495,1301 L495,1312 495,1312 L505,1313 C516,1314 501,1309 511,1308 C522,1308 505,1312 516,1312 L528,1312 528,1312 L528,1303 C528,1294 517,1306 519,1297 C522,1288 528,1300 528,1290 L528,1280"/></g><clipPath id="c" clipRule="evenodd" fill="transparent"><use href="#t5215"/></clipPath></defs><svg viewBox="490 1275 39 40" preserveAspectRatio="xMinYMin meet"><svg width="4380" height="2430"><g><image crossorigin="anonymous" x="0" y="0" href="https://nftpuzzle.license-token.com/assets/completepuzzle.svg" width="100%" height="100%" /><g class="links"><use href="#t5215"/></g></g></svg><svg x="514" y="1300" height="9%" width="9%" viewBox="0 0 330 330"><g><a xlink:href="https://nftpuzzle.license-token.com/" class="links"><title>See the most innovative NFT based token software licensing project</title><path fill="#E4CF37" id="more" d="M165,0C74.019,0,0,74.019,0,165s74.019,165,165,165s165-74.019,165-165S255.981,0,165,0z M85,190 c-13.785,0-25-11.215-25-25s11.215-25,25-25s25,11.215,25,25S98.785,190,85,190z M165,190c-13.785,0-25-11.215-25-25 s11.215-25,25-25s25,11.215,25,25S178.785,190,165,190z M245,190c-13.785,0-25-11.215-25-25s11.215-25,25-25 c13.785,0,25,11.215,25,25S258.785,190,245,190z"></path></a></g></svg></svg></svg>