<svg version="1.1" xmlns="http://www.w3.org/2000/svg" xmlns:xlink="http://www.w3.org/1999/xlink" fill="transparent" x="0" y="0" width="350" height="350" preserveAspectRatio="xMinYMin slice"><style type="text/css">.links{fill:transparent;stroke: #E4CF37;}.links:hover{fill:#63D272; opacity:0.4;}</style><defs><g id="allt"><path id="t5219" d="M660,1280 L650,1278 C641,1276 653,1288 643,1288 C634,1288 645,1280 636,1280 L627,1280 627,1280 L627,1290 C627,1300 624,1285 624,1295 C624,1305 629,1292 628,1302 L627,1312 627,1312 L637,1312 C647,1312 632,1309 642,1309 C653,1309 639,1314 649,1313 L660,1312 660,1312 L660,1301 C660,1291 668,1305 669,1297 C671,1289 657,1299 658,1289 L660,1280"/></g><clipPath id="c" clipRule="evenodd" fill="transparent"><use href="#t5219"/></clipPath></defs><svg viewBox="623 1275 49 40" preserveAspectRatio="xMinYMin meet"><svg width="4380" height="2430"><g><image crossorigin="anonymous" x="0" y="0" href="https://nftpuzzle.license-token.com/assets/completepuzzle.svg" width="100%" height="100%" /><g class="links"><use href="#t5219"/></g></g></svg><svg x="657" y="1300" height="9%" width="9%" viewBox="0 0 330 330"><g><a xlink:href="https://nftpuzzle.license-token.com/" class="links"><title>See the most innovative NFT based token software licensing project</title><path fill="#E4CF37" id="more" d="M165,0C74.019,0,0,74.019,0,165s74.019,165,165,165s165-74.019,165-165S255.981,0,165,0z M85,190 c-13.785,0-25-11.215-25-25s11.215-25,25-25s25,11.215,25,25S98.785,190,85,190z M165,190c-13.785,0-25-11.215-25-25 s11.215-25,25-25s25,11.215,25,25S178.785,190,165,190z M245,190c-13.785,0-25-11.215-25-25s11.215-25,25-25 c13.785,0,25,11.215,25,25S258.785,190,245,190z"></path></a></g></svg></svg></svg>