<svg version="1.1" xmlns="http://www.w3.org/2000/svg" xmlns:xlink="http://www.w3.org/1999/xlink" fill="transparent" x="0" y="0" width="350" height="350" preserveAspectRatio="xMinYMin slice"><style type="text/css">.links{fill:transparent;stroke: #E4CF37;}.links:hover{fill:#63D272; opacity:0.4;}</style><defs><g id="allt"><path id="t5220" d="M693,1280 L682,1281 C672,1282 686,1270 675,1269 C665,1269 678,1280 669,1280 L660,1280 660,1280 L658,1289 C657,1299 671,1289 669,1297 C668,1305 660,1291 660,1301 L660,1312 660,1312 L670,1310 C680,1309 669,1322 677,1321 C686,1320 671,1312 682,1312 L693,1312 693,1312 L694,1302 C695,1293 689,1306 688,1296 C688,1286 693,1301 693,1290 L693,1280"/></g><clipPath id="c" clipRule="evenodd" fill="transparent"><use href="#t5220"/></clipPath></defs><svg viewBox="656 1268 40 55" preserveAspectRatio="xMinYMin meet"><svg width="4380" height="2430"><g><image crossorigin="anonymous" x="0" y="0" href="https://nftpuzzle.license-token.com/assets/completepuzzle.svg" width="100%" height="100%" /><g class="links"><use href="#t5220"/></g></g></svg><svg x="681" y="1308" height="9%" width="9%" viewBox="0 0 330 330"><g><a xlink:href="https://nftpuzzle.license-token.com/" class="links"><title>See the most innovative NFT based token software licensing project</title><path fill="#E4CF37" id="more" d="M165,0C74.019,0,0,74.019,0,165s74.019,165,165,165s165-74.019,165-165S255.981,0,165,0z M85,190 c-13.785,0-25-11.215-25-25s11.215-25,25-25s25,11.215,25,25S98.785,190,85,190z M165,190c-13.785,0-25-11.215-25-25 s11.215-25,25-25s25,11.215,25,25S178.785,190,165,190z M245,190c-13.785,0-25-11.215-25-25s11.215-25,25-25 c13.785,0,25,11.215,25,25S258.785,190,245,190z"></path></a></g></svg></svg></svg>