<svg version="1.1" xmlns="http://www.w3.org/2000/svg" xmlns:xlink="http://www.w3.org/1999/xlink" fill="transparent" x="0" y="0" width="350" height="350" preserveAspectRatio="xMinYMin slice"><style type="text/css">.links{fill:transparent;stroke: #E4CF37;}.links:hover{fill:#63D272; opacity:0.4;}</style><defs><g id="allt"><path id="t5222" d="M759,1280 L749,1280 C739,1280 750,1275 740,1275 C731,1276 748,1280 737,1280 L726,1280 726,1280 L728,1288 C730,1297 715,1289 717,1297 C720,1305 730,1290 728,1301 L726,1312 726,1312 L735,1314 C744,1316 735,1301 743,1303 C752,1306 737,1316 748,1314 L759,1312 759,1312 L759,1303 C759,1294 766,1304 765,1296 C765,1288 759,1300 759,1290 L759,1280"/></g><clipPath id="c" clipRule="evenodd" fill="transparent"><use href="#t5222"/></clipPath></defs><svg viewBox="714 1274 53 43" preserveAspectRatio="xMinYMin meet"><svg width="4380" height="2430"><g><image crossorigin="anonymous" x="0" y="0" href="https://nftpuzzle.license-token.com/assets/completepuzzle.svg" width="100%" height="100%" /><g class="links"><use href="#t5222"/></g></g></svg><svg x="752" y="1302" height="9%" width="9%" viewBox="0 0 330 330"><g><a xlink:href="https://nftpuzzle.license-token.com/" class="links"><title>See the most innovative NFT based token software licensing project</title><path fill="#E4CF37" id="more" d="M165,0C74.019,0,0,74.019,0,165s74.019,165,165,165s165-74.019,165-165S255.981,0,165,0z M85,190 c-13.785,0-25-11.215-25-25s11.215-25,25-25s25,11.215,25,25S98.785,190,85,190z M165,190c-13.785,0-25-11.215-25-25 s11.215-25,25-25s25,11.215,25,25S178.785,190,165,190z M245,190c-13.785,0-25-11.215-25-25s11.215-25,25-25 c13.785,0,25,11.215,25,25S258.785,190,245,190z"></path></a></g></svg></svg></svg>