<svg version="1.1" xmlns="http://www.w3.org/2000/svg" xmlns:xlink="http://www.w3.org/1999/xlink" fill="transparent" x="0" y="0" width="350" height="350" preserveAspectRatio="xMinYMin slice"><style type="text/css">.links{fill:transparent;stroke: #E4CF37;}.links:hover{fill:#63D272; opacity:0.4;}</style><defs><g id="allt"><path id="t5224" d="M825,1280 L815,1280 C805,1280 815,1284 806,1284 C797,1284 812,1280 802,1280 L792,1280 792,1280 L792,1289 C792,1299 788,1287 787,1295 C786,1303 794,1293 793,1302 L792,1312 792,1312 L801,1312 C811,1312 799,1308 807,1307 C815,1306 805,1314 815,1313 L825,1312 825,1312 L826,1301 C828,1290 819,1302 818,1293 C817,1285 825,1300 825,1290 L825,1280"/></g><clipPath id="c" clipRule="evenodd" fill="transparent"><use href="#t5224"/></clipPath></defs><svg viewBox="785 1279 44 36" preserveAspectRatio="xMinYMin meet"><svg width="4380" height="2430"><g><image crossorigin="anonymous" x="0" y="0" href="https://nftpuzzle.license-token.com/assets/completepuzzle.svg" width="100%" height="100%" /><g class="links"><use href="#t5224"/></g></g></svg><svg x="814" y="1300" height="9%" width="9%" viewBox="0 0 330 330"><g><a xlink:href="https://nftpuzzle.license-token.com/" class="links"><title>See the most innovative NFT based token software licensing project</title><path fill="#E4CF37" id="more" d="M165,0C74.019,0,0,74.019,0,165s74.019,165,165,165s165-74.019,165-165S255.981,0,165,0z M85,190 c-13.785,0-25-11.215-25-25s11.215-25,25-25s25,11.215,25,25S98.785,190,85,190z M165,190c-13.785,0-25-11.215-25-25 s11.215-25,25-25s25,11.215,25,25S178.785,190,165,190z M245,190c-13.785,0-25-11.215-25-25s11.215-25,25-25 c13.785,0,25,11.215,25,25S258.785,190,245,190z"></path></a></g></svg></svg></svg>