<svg version="1.1" xmlns="http://www.w3.org/2000/svg" xmlns:xlink="http://www.w3.org/1999/xlink" fill="transparent" x="0" y="0" width="350" height="350" preserveAspectRatio="xMinYMin slice"><style type="text/css">.links{fill:transparent;stroke: #E4CF37;}.links:hover{fill:#63D272; opacity:0.4;}</style><defs><g id="allt"><path id="t5228" d="M957,1280 L946,1282 C936,1284 947,1273 939,1272 C931,1272 945,1283 934,1281 L924,1280 924,1280 L924,1288 C924,1297 920,1289 917,1296 C915,1304 924,1291 924,1301 L924,1312 924,1312 L933,1312 C942,1312 933,1308 940,1306 C948,1304 935,1312 946,1312 L957,1312 957,1312 L956,1303 C956,1294 961,1303 962,1293 C963,1284 954,1298 955,1289 L957,1280"/></g><clipPath id="c" clipRule="evenodd" fill="transparent"><use href="#t5228"/></clipPath></defs><svg viewBox="914 1271 50 42" preserveAspectRatio="xMinYMin meet"><svg width="4380" height="2430"><g><image crossorigin="anonymous" x="0" y="0" href="https://nftpuzzle.license-token.com/assets/completepuzzle.svg" width="100%" height="100%" /><g class="links"><use href="#t5228"/></g></g></svg><svg x="949" y="1298" height="9%" width="9%" viewBox="0 0 330 330"><g><a xlink:href="https://nftpuzzle.license-token.com/" class="links"><title>See the most innovative NFT based token software licensing project</title><path fill="#E4CF37" id="more" d="M165,0C74.019,0,0,74.019,0,165s74.019,165,165,165s165-74.019,165-165S255.981,0,165,0z M85,190 c-13.785,0-25-11.215-25-25s11.215-25,25-25s25,11.215,25,25S98.785,190,85,190z M165,190c-13.785,0-25-11.215-25-25 s11.215-25,25-25s25,11.215,25,25S178.785,190,165,190z M245,190c-13.785,0-25-11.215-25-25s11.215-25,25-25 c13.785,0,25,11.215,25,25S258.785,190,245,190z"></path></a></g></svg></svg></svg>