<svg version="1.1" xmlns="http://www.w3.org/2000/svg" xmlns:xlink="http://www.w3.org/1999/xlink" fill="transparent" x="0" y="0" width="350" height="350" preserveAspectRatio="xMinYMin slice"><style type="text/css">.links{fill:transparent;stroke: #E4CF37;}.links:hover{fill:#63D272; opacity:0.4;}</style><defs><g id="allt"><path id="t5232" d="M1089,1280 L1078,1280 C1068,1281 1083,1271 1073,1272 C1063,1274 1077,1281 1066,1280 L1056,1280 1056,1280 L1056,1288 C1056,1297 1065,1287 1067,1295 C1069,1304 1053,1291 1054,1301 L1056,1312 1056,1312 L1065,1312 C1074,1312 1063,1321 1072,1322 C1081,1324 1067,1309 1078,1310 L1089,1312 1089,1312 L1088,1301 C1088,1291 1094,1304 1095,1295 C1096,1287 1089,1300 1089,1290 L1089,1280"/></g><clipPath id="c" clipRule="evenodd" fill="transparent"><use href="#t5232"/></clipPath></defs><svg viewBox="1052 1270 45 55" preserveAspectRatio="xMinYMin meet"><svg width="4380" height="2430"><g><image crossorigin="anonymous" x="0" y="0" href="https://nftpuzzle.license-token.com/assets/completepuzzle.svg" width="100%" height="100%" /><g class="links"><use href="#t5232"/></g></g></svg><svg x="1082" y="1310" height="9%" width="9%" viewBox="0 0 330 330"><g><a xlink:href="https://nftpuzzle.license-token.com/" class="links"><title>See the most innovative NFT based token software licensing project</title><path fill="#E4CF37" id="more" d="M165,0C74.019,0,0,74.019,0,165s74.019,165,165,165s165-74.019,165-165S255.981,0,165,0z M85,190 c-13.785,0-25-11.215-25-25s11.215-25,25-25s25,11.215,25,25S98.785,190,85,190z M165,190c-13.785,0-25-11.215-25-25 s11.215-25,25-25s25,11.215,25,25S178.785,190,165,190z M245,190c-13.785,0-25-11.215-25-25s11.215-25,25-25 c13.785,0,25,11.215,25,25S258.785,190,245,190z"></path></a></g></svg></svg></svg>