<svg version="1.1" xmlns="http://www.w3.org/2000/svg" xmlns:xlink="http://www.w3.org/1999/xlink" fill="transparent" x="0" y="0" width="350" height="350" preserveAspectRatio="xMinYMin slice"><style type="text/css">.links{fill:transparent;stroke: #E4CF37;}.links:hover{fill:#63D272; opacity:0.4;}</style><defs><g id="allt"><path id="t5235" d="M1188,1280 L1178,1280 C1169,1281 1179,1277 1171,1275 C1163,1274 1174,1282 1164,1281 L1155,1280 1155,1280 L1157,1289 C1159,1299 1147,1288 1148,1295 C1150,1303 1159,1294 1157,1303 L1155,1312 1155,1312 L1164,1314 C1174,1316 1163,1304 1170,1305 C1178,1307 1169,1316 1178,1314 L1188,1312 1188,1312 L1188,1302 C1189,1293 1182,1304 1182,1295 C1182,1287 1190,1297 1189,1288 L1188,1280"/></g><clipPath id="c" clipRule="evenodd" fill="transparent"><use href="#t5235"/></clipPath></defs><svg viewBox="1146 1273 45 44" preserveAspectRatio="xMinYMin meet"><svg width="4380" height="2430"><g><image crossorigin="anonymous" x="0" y="0" href="https://nftpuzzle.license-token.com/assets/completepuzzle.svg" width="100%" height="100%" /><g class="links"><use href="#t5235"/></g></g></svg><svg x="1176" y="1302" height="9%" width="9%" viewBox="0 0 330 330"><g><a xlink:href="https://nftpuzzle.license-token.com/" class="links"><title>See the most innovative NFT based token software licensing project</title><path fill="#E4CF37" id="more" d="M165,0C74.019,0,0,74.019,0,165s74.019,165,165,165s165-74.019,165-165S255.981,0,165,0z M85,190 c-13.785,0-25-11.215-25-25s11.215-25,25-25s25,11.215,25,25S98.785,190,85,190z M165,190c-13.785,0-25-11.215-25-25 s11.215-25,25-25s25,11.215,25,25S178.785,190,165,190z M245,190c-13.785,0-25-11.215-25-25s11.215-25,25-25 c13.785,0,25,11.215,25,25S258.785,190,245,190z"></path></a></g></svg></svg></svg>