<svg version="1.1" xmlns="http://www.w3.org/2000/svg" xmlns:xlink="http://www.w3.org/1999/xlink" fill="transparent" x="0" y="0" width="350" height="350" preserveAspectRatio="xMinYMin slice"><style type="text/css">.links{fill:transparent;stroke: #E4CF37;}.links:hover{fill:#63D272; opacity:0.4;}</style><defs><g id="allt"><path id="t5241" d="M1386,1280 L1375,1281 C1365,1283 1376,1274 1367,1274 C1359,1275 1373,1280 1363,1280 L1353,1280 1353,1280 L1353,1288 C1353,1297 1359,1285 1359,1294 C1359,1304 1349,1292 1351,1302 L1353,1312 1353,1312 L1362,1312 C1371,1312 1358,1318 1368,1318 C1378,1318 1366,1308 1376,1310 L1386,1312 1386,1312 L1386,1302 C1387,1292 1382,1304 1382,1294 C1383,1284 1387,1299 1386,1289 L1386,1280"/></g><clipPath id="c" clipRule="evenodd" fill="transparent"><use href="#t5241"/></clipPath></defs><svg viewBox="1348 1273 40 46" preserveAspectRatio="xMinYMin meet"><svg width="4380" height="2430"><g><image crossorigin="anonymous" x="0" y="0" href="https://nftpuzzle.license-token.com/assets/completepuzzle.svg" width="100%" height="100%" /><g class="links"><use href="#t5241"/></g></g></svg><svg x="1373" y="1304" height="9%" width="9%" viewBox="0 0 330 330"><g><a xlink:href="https://nftpuzzle.license-token.com/" class="links"><title>See the most innovative NFT based token software licensing project</title><path fill="#E4CF37" id="more" d="M165,0C74.019,0,0,74.019,0,165s74.019,165,165,165s165-74.019,165-165S255.981,0,165,0z M85,190 c-13.785,0-25-11.215-25-25s11.215-25,25-25s25,11.215,25,25S98.785,190,85,190z M165,190c-13.785,0-25-11.215-25-25 s11.215-25,25-25s25,11.215,25,25S178.785,190,165,190z M245,190c-13.785,0-25-11.215-25-25s11.215-25,25-25 c13.785,0,25,11.215,25,25S258.785,190,245,190z"></path></a></g></svg></svg></svg>