<svg version="1.1" xmlns="http://www.w3.org/2000/svg" xmlns:xlink="http://www.w3.org/1999/xlink" fill="transparent" x="0" y="0" width="350" height="350" preserveAspectRatio="xMinYMin slice"><style type="text/css">.links{fill:transparent;stroke: #E4CF37;}.links:hover{fill:#63D272; opacity:0.4;}</style><defs><g id="allt"><path id="t5242" d="M1419,1280 L1409,1282 C1399,1284 1412,1272 1402,1272 C1393,1273 1406,1280 1396,1280 L1386,1280 1386,1280 L1386,1289 C1387,1299 1383,1284 1382,1294 C1382,1304 1387,1292 1386,1302 L1386,1312 1386,1312 L1396,1312 C1406,1313 1390,1309 1400,1308 C1411,1308 1398,1313 1408,1312 L1419,1312 1419,1312 L1419,1302 C1419,1293 1414,1303 1414,1295 C1415,1288 1420,1297 1419,1288 L1419,1280"/></g><clipPath id="c" clipRule="evenodd" fill="transparent"><use href="#t5242"/></clipPath></defs><svg viewBox="1381 1271 40 43" preserveAspectRatio="xMinYMin meet"><svg width="4380" height="2430"><g><image crossorigin="anonymous" x="0" y="0" href="https://nftpuzzle.license-token.com/assets/completepuzzle.svg" width="100%" height="100%" /><g class="links"><use href="#t5242"/></g></g></svg><svg x="1406" y="1299" height="9%" width="9%" viewBox="0 0 330 330"><g><a xlink:href="https://nftpuzzle.license-token.com/" class="links"><title>See the most innovative NFT based token software licensing project</title><path fill="#E4CF37" id="more" d="M165,0C74.019,0,0,74.019,0,165s74.019,165,165,165s165-74.019,165-165S255.981,0,165,0z M85,190 c-13.785,0-25-11.215-25-25s11.215-25,25-25s25,11.215,25,25S98.785,190,85,190z M165,190c-13.785,0-25-11.215-25-25 s11.215-25,25-25s25,11.215,25,25S178.785,190,165,190z M245,190c-13.785,0-25-11.215-25-25s11.215-25,25-25 c13.785,0,25,11.215,25,25S258.785,190,245,190z"></path></a></g></svg></svg></svg>