<svg version="1.1" xmlns="http://www.w3.org/2000/svg" xmlns:xlink="http://www.w3.org/1999/xlink" fill="transparent" x="0" y="0" width="350" height="350" preserveAspectRatio="xMinYMin slice"><style type="text/css">.links{fill:transparent;stroke: #E4CF37;}.links:hover{fill:#63D272; opacity:0.4;}</style><defs><g id="allt"><path id="t5247" d="M1584,1280 L1573,1281 C1562,1282 1578,1270 1568,1271 C1558,1273 1573,1283 1562,1281 L1551,1280 1551,1280 L1550,1290 C1549,1301 1557,1287 1556,1296 C1556,1305 1552,1291 1551,1301 L1551,1312 1551,1312 L1561,1311 C1572,1310 1558,1318 1567,1317 C1577,1317 1563,1313 1573,1312 L1584,1312 1584,1312 L1584,1301 C1584,1290 1574,1302 1574,1293 C1575,1285 1587,1297 1585,1288 L1584,1280"/></g><clipPath id="c" clipRule="evenodd" fill="transparent"><use href="#t5247"/></clipPath></defs><svg viewBox="1548 1269 40 50" preserveAspectRatio="xMinYMin meet"><svg width="4380" height="2430"><g><image crossorigin="anonymous" x="0" y="0" href="https://nftpuzzle.license-token.com/assets/completepuzzle.svg" width="100%" height="100%" /><g class="links"><use href="#t5247"/></g></g></svg><svg x="1573" y="1304" height="9%" width="9%" viewBox="0 0 330 330"><g><a xlink:href="https://nftpuzzle.license-token.com/" class="links"><title>See the most innovative NFT based token software licensing project</title><path fill="#E4CF37" id="more" d="M165,0C74.019,0,0,74.019,0,165s74.019,165,165,165s165-74.019,165-165S255.981,0,165,0z M85,190 c-13.785,0-25-11.215-25-25s11.215-25,25-25s25,11.215,25,25S98.785,190,85,190z M165,190c-13.785,0-25-11.215-25-25 s11.215-25,25-25s25,11.215,25,25S178.785,190,165,190z M245,190c-13.785,0-25-11.215-25-25s11.215-25,25-25 c13.785,0,25,11.215,25,25S258.785,190,245,190z"></path></a></g></svg></svg></svg>