<svg version="1.1" xmlns="http://www.w3.org/2000/svg" xmlns:xlink="http://www.w3.org/1999/xlink" fill="transparent" x="0" y="0" width="350" height="350" preserveAspectRatio="xMinYMin slice"><style type="text/css">.links{fill:transparent;stroke: #E4CF37;}.links:hover{fill:#63D272; opacity:0.4;}</style><defs><g id="allt"><path id="t5254" d="M1815,1280 L1805,1278 C1796,1276 1810,1290 1798,1288 C1787,1286 1801,1280 1791,1280 L1782,1280 1782,1280 L1783,1289 C1785,1298 1775,1289 1776,1296 C1777,1303 1784,1294 1783,1303 L1782,1312 1782,1312 L1791,1313 C1801,1315 1791,1305 1798,1306 C1806,1307 1796,1314 1805,1313 L1815,1312 1815,1312 L1815,1301 C1816,1290 1808,1306 1810,1296 C1812,1287 1815,1297 1815,1288 L1815,1280"/></g><clipPath id="c" clipRule="evenodd" fill="transparent"><use href="#t5254"/></clipPath></defs><svg viewBox="1774 1275 43 41" preserveAspectRatio="xMinYMin meet"><svg width="4380" height="2430"><g><image crossorigin="anonymous" x="0" y="0" href="https://nftpuzzle.license-token.com/assets/completepuzzle.svg" width="100%" height="100%" /><g class="links"><use href="#t5254"/></g></g></svg><svg x="1802" y="1301" height="9%" width="9%" viewBox="0 0 330 330"><g><a xlink:href="https://nftpuzzle.license-token.com/" class="links"><title>See the most innovative NFT based token software licensing project</title><path fill="#E4CF37" id="more" d="M165,0C74.019,0,0,74.019,0,165s74.019,165,165,165s165-74.019,165-165S255.981,0,165,0z M85,190 c-13.785,0-25-11.215-25-25s11.215-25,25-25s25,11.215,25,25S98.785,190,85,190z M165,190c-13.785,0-25-11.215-25-25 s11.215-25,25-25s25,11.215,25,25S178.785,190,165,190z M245,190c-13.785,0-25-11.215-25-25s11.215-25,25-25 c13.785,0,25,11.215,25,25S258.785,190,245,190z"></path></a></g></svg></svg></svg>