<svg version="1.1" xmlns="http://www.w3.org/2000/svg" xmlns:xlink="http://www.w3.org/1999/xlink" fill="transparent" x="0" y="0" width="350" height="350" preserveAspectRatio="xMinYMin slice"><style type="text/css">.links{fill:transparent;stroke: #E4CF37;}.links:hover{fill:#63D272; opacity:0.4;}</style><defs><g id="allt"><path id="t5257" d="M1914,1280 L1903,1281 C1892,1283 1908,1268 1898,1268 C1889,1268 1902,1280 1891,1280 L1881,1280 1881,1280 L1881,1289 C1881,1299 1886,1287 1888,1295 C1890,1303 1881,1293 1881,1302 L1881,1312 1881,1312 L1891,1312 C1901,1312 1888,1317 1896,1319 C1905,1321 1894,1312 1904,1312 L1914,1312 1914,1312 L1913,1302 C1913,1292 1918,1306 1919,1297 C1921,1288 1912,1300 1913,1290 L1914,1280"/></g><clipPath id="c" clipRule="evenodd" fill="transparent"><use href="#t5257"/></clipPath></defs><svg viewBox="1880 1267 42 55" preserveAspectRatio="xMinYMin meet"><svg width="4380" height="2430"><g><image crossorigin="anonymous" x="0" y="0" href="https://nftpuzzle.license-token.com/assets/completepuzzle.svg" width="100%" height="100%" /><g class="links"><use href="#t5257"/></g></g></svg><svg x="1907" y="1307" height="9%" width="9%" viewBox="0 0 330 330"><g><a xlink:href="https://nftpuzzle.license-token.com/" class="links"><title>See the most innovative NFT based token software licensing project</title><path fill="#E4CF37" id="more" d="M165,0C74.019,0,0,74.019,0,165s74.019,165,165,165s165-74.019,165-165S255.981,0,165,0z M85,190 c-13.785,0-25-11.215-25-25s11.215-25,25-25s25,11.215,25,25S98.785,190,85,190z M165,190c-13.785,0-25-11.215-25-25 s11.215-25,25-25s25,11.215,25,25S178.785,190,165,190z M245,190c-13.785,0-25-11.215-25-25s11.215-25,25-25 c13.785,0,25,11.215,25,25S258.785,190,245,190z"></path></a></g></svg></svg></svg>