<svg version="1.1" xmlns="http://www.w3.org/2000/svg" xmlns:xlink="http://www.w3.org/1999/xlink" fill="transparent" x="0" y="0" width="350" height="350" preserveAspectRatio="xMinYMin slice"><style type="text/css">.links{fill:transparent;stroke: #E4CF37;}.links:hover{fill:#63D272; opacity:0.4;}</style><defs><g id="allt"><path id="t5260" d="M2013,1280 L2002,1277 C1991,1274 2004,1293 1994,1291 C1985,1289 2001,1278 1990,1279 L1980,1280 1980,1280 L1977,1290 C1975,1300 1992,1286 1991,1295 C1991,1304 1981,1294 1980,1303 L1980,1312 1980,1312 L1990,1309 C2001,1307 1986,1324 1995,1323 C2004,1323 1994,1313 2003,1312 L2013,1312 2013,1312 L2013,1302 C2013,1292 2006,1302 2008,1294 C2010,1286 2015,1297 2014,1288 L2013,1280"/></g><clipPath id="c" clipRule="evenodd" fill="transparent"><use href="#t5260"/></clipPath></defs><svg viewBox="1974 1273 42 52" preserveAspectRatio="xMinYMin meet"><svg width="4380" height="2430"><g><image crossorigin="anonymous" x="0" y="0" href="https://nftpuzzle.license-token.com/assets/completepuzzle.svg" width="100%" height="100%" /><g class="links"><use href="#t5260"/></g></g></svg><svg x="2001" y="1310" height="9%" width="9%" viewBox="0 0 330 330"><g><a xlink:href="https://nftpuzzle.license-token.com/" class="links"><title>See the most innovative NFT based token software licensing project</title><path fill="#E4CF37" id="more" d="M165,0C74.019,0,0,74.019,0,165s74.019,165,165,165s165-74.019,165-165S255.981,0,165,0z M85,190 c-13.785,0-25-11.215-25-25s11.215-25,25-25s25,11.215,25,25S98.785,190,85,190z M165,190c-13.785,0-25-11.215-25-25 s11.215-25,25-25s25,11.215,25,25S178.785,190,165,190z M245,190c-13.785,0-25-11.215-25-25s11.215-25,25-25 c13.785,0,25,11.215,25,25S258.785,190,245,190z"></path></a></g></svg></svg></svg>