<svg version="1.1" xmlns="http://www.w3.org/2000/svg" xmlns:xlink="http://www.w3.org/1999/xlink" fill="transparent" x="0" y="0" width="350" height="350" preserveAspectRatio="xMinYMin slice"><style type="text/css">.links{fill:transparent;stroke: #E4CF37;}.links:hover{fill:#63D272; opacity:0.4;}</style><defs><g id="allt"><path id="t5267" d="M2244,1280 L2233,1280 C2223,1280 2238,1285 2227,1286 C2217,1287 2232,1279 2221,1279 L2211,1280 2211,1280 L2212,1288 C2214,1297 2202,1287 2203,1295 C2204,1304 2211,1292 2211,1302 L2211,1312 2211,1312 L2220,1313 C2229,1315 2218,1303 2227,1304 C2236,1305 2224,1312 2234,1312 L2244,1312 2244,1312 L2243,1302 C2243,1292 2249,1306 2250,1295 C2251,1285 2243,1299 2243,1289 L2244,1280"/></g><clipPath id="c" clipRule="evenodd" fill="transparent"><use href="#t5267"/></clipPath></defs><svg viewBox="2201 1278 51 38" preserveAspectRatio="xMinYMin meet"><svg width="4380" height="2430"><g><image crossorigin="anonymous" x="0" y="0" href="https://nftpuzzle.license-token.com/assets/completepuzzle.svg" width="100%" height="100%" /><g class="links"><use href="#t5267"/></g></g></svg><svg x="2237" y="1301" height="9%" width="9%" viewBox="0 0 330 330"><g><a xlink:href="https://nftpuzzle.license-token.com/" class="links"><title>See the most innovative NFT based token software licensing project</title><path fill="#E4CF37" id="more" d="M165,0C74.019,0,0,74.019,0,165s74.019,165,165,165s165-74.019,165-165S255.981,0,165,0z M85,190 c-13.785,0-25-11.215-25-25s11.215-25,25-25s25,11.215,25,25S98.785,190,85,190z M165,190c-13.785,0-25-11.215-25-25 s11.215-25,25-25s25,11.215,25,25S178.785,190,165,190z M245,190c-13.785,0-25-11.215-25-25s11.215-25,25-25 c13.785,0,25,11.215,25,25S258.785,190,245,190z"></path></a></g></svg></svg></svg>