<svg version="1.1" xmlns="http://www.w3.org/2000/svg" xmlns:xlink="http://www.w3.org/1999/xlink" fill="transparent" x="0" y="0" width="350" height="350" preserveAspectRatio="xMinYMin slice"><style type="text/css">.links{fill:transparent;stroke: #E4CF37;}.links:hover{fill:#63D272; opacity:0.4;}</style><defs><g id="allt"><path id="t5270" d="M2343,1280 L2333,1281 C2323,1282 2334,1275 2325,1275 C2316,1275 2329,1281 2319,1280 L2310,1280 2310,1280 L2310,1289 C2310,1298 2314,1288 2316,1297 C2318,1306 2310,1293 2310,1302 L2310,1312 2310,1312 L2319,1312 C2329,1312 2318,1316 2327,1318 C2337,1320 2324,1312 2333,1312 L2343,1312 2343,1312 L2343,1301 C2343,1290 2331,1304 2331,1296 C2331,1288 2343,1300 2343,1290 L2343,1280"/></g><clipPath id="c" clipRule="evenodd" fill="transparent"><use href="#t5270"/></clipPath></defs><svg viewBox="2309 1274 35 47" preserveAspectRatio="xMinYMin meet"><svg width="4380" height="2430"><g><image crossorigin="anonymous" x="0" y="0" href="https://nftpuzzle.license-token.com/assets/completepuzzle.svg" width="100%" height="100%" /><g class="links"><use href="#t5270"/></g></g></svg><svg x="2329" y="1306" height="9%" width="9%" viewBox="0 0 330 330"><g><a xlink:href="https://nftpuzzle.license-token.com/" class="links"><title>See the most innovative NFT based token software licensing project</title><path fill="#E4CF37" id="more" d="M165,0C74.019,0,0,74.019,0,165s74.019,165,165,165s165-74.019,165-165S255.981,0,165,0z M85,190 c-13.785,0-25-11.215-25-25s11.215-25,25-25s25,11.215,25,25S98.785,190,85,190z M165,190c-13.785,0-25-11.215-25-25 s11.215-25,25-25s25,11.215,25,25S178.785,190,165,190z M245,190c-13.785,0-25-11.215-25-25s11.215-25,25-25 c13.785,0,25,11.215,25,25S258.785,190,245,190z"></path></a></g></svg></svg></svg>