<svg version="1.1" xmlns="http://www.w3.org/2000/svg" xmlns:xlink="http://www.w3.org/1999/xlink" fill="transparent" x="0" y="0" width="350" height="350" preserveAspectRatio="xMinYMin slice"><style type="text/css">.links{fill:transparent;stroke: #E4CF37;}.links:hover{fill:#63D272; opacity:0.4;}</style><defs><g id="allt"><path id="t5272" d="M2409,1280 L2398,1280 C2388,1280 2403,1273 2393,1274 C2384,1276 2397,1283 2386,1281 L2376,1280 2376,1280 L2376,1289 C2376,1298 2384,1287 2385,1294 C2386,1302 2376,1292 2376,1302 L2376,1312 2376,1312 L2385,1312 C2394,1312 2383,1320 2391,1320 C2399,1321 2389,1312 2399,1312 L2409,1312 2409,1312 L2409,1303 C2409,1294 2400,1303 2401,1293 C2402,1284 2413,1298 2411,1289 L2409,1280"/></g><clipPath id="c" clipRule="evenodd" fill="transparent"><use href="#t5272"/></clipPath></defs><svg viewBox="2375 1272 39 50" preserveAspectRatio="xMinYMin meet"><svg width="4380" height="2430"><g><image crossorigin="anonymous" x="0" y="0" href="https://nftpuzzle.license-token.com/assets/completepuzzle.svg" width="100%" height="100%" /><g class="links"><use href="#t5272"/></g></g></svg><svg x="2399" y="1307" height="9%" width="9%" viewBox="0 0 330 330"><g><a xlink:href="https://nftpuzzle.license-token.com/" class="links"><title>See the most innovative NFT based token software licensing project</title><path fill="#E4CF37" id="more" d="M165,0C74.019,0,0,74.019,0,165s74.019,165,165,165s165-74.019,165-165S255.981,0,165,0z M85,190 c-13.785,0-25-11.215-25-25s11.215-25,25-25s25,11.215,25,25S98.785,190,85,190z M165,190c-13.785,0-25-11.215-25-25 s11.215-25,25-25s25,11.215,25,25S178.785,190,165,190z M245,190c-13.785,0-25-11.215-25-25s11.215-25,25-25 c13.785,0,25,11.215,25,25S258.785,190,245,190z"></path></a></g></svg></svg></svg>