<svg version="1.1" xmlns="http://www.w3.org/2000/svg" xmlns:xlink="http://www.w3.org/1999/xlink" fill="transparent" x="0" y="0" width="350" height="350" preserveAspectRatio="xMinYMin slice"><style type="text/css">.links{fill:transparent;stroke: #E4CF37;}.links:hover{fill:#63D272; opacity:0.4;}</style><defs><g id="allt"><path id="t5277" d="M2574,1280 L2564,1281 C2555,1282 2567,1274 2556,1274 C2546,1275 2560,1279 2550,1279 L2541,1280 2541,1280 L2540,1289 C2540,1299 2547,1285 2547,1295 C2548,1306 2537,1292 2539,1302 L2541,1312 2541,1312 L2551,1311 C2561,1311 2546,1318 2557,1318 C2568,1319 2553,1308 2563,1310 L2574,1312 2574,1312 L2574,1301 C2575,1290 2570,1306 2570,1297 C2570,1289 2574,1299 2574,1289 L2574,1280"/></g><clipPath id="c" clipRule="evenodd" fill="transparent"><use href="#t5277"/></clipPath></defs><svg viewBox="2536 1273 40 47" preserveAspectRatio="xMinYMin meet"><svg width="4380" height="2430"><g><image crossorigin="anonymous" x="0" y="0" href="https://nftpuzzle.license-token.com/assets/completepuzzle.svg" width="100%" height="100%" /><g class="links"><use href="#t5277"/></g></g></svg><svg x="2561" y="1305" height="9%" width="9%" viewBox="0 0 330 330"><g><a xlink:href="https://nftpuzzle.license-token.com/" class="links"><title>See the most innovative NFT based token software licensing project</title><path fill="#E4CF37" id="more" d="M165,0C74.019,0,0,74.019,0,165s74.019,165,165,165s165-74.019,165-165S255.981,0,165,0z M85,190 c-13.785,0-25-11.215-25-25s11.215-25,25-25s25,11.215,25,25S98.785,190,85,190z M165,190c-13.785,0-25-11.215-25-25 s11.215-25,25-25s25,11.215,25,25S178.785,190,165,190z M245,190c-13.785,0-25-11.215-25-25s11.215-25,25-25 c13.785,0,25,11.215,25,25S258.785,190,245,190z"></path></a></g></svg></svg></svg>