<svg version="1.1" xmlns="http://www.w3.org/2000/svg" xmlns:xlink="http://www.w3.org/1999/xlink" fill="transparent" x="0" y="0" width="350" height="350" preserveAspectRatio="xMinYMin slice"><style type="text/css">.links{fill:transparent;stroke: #E4CF37;}.links:hover{fill:#63D272; opacity:0.4;}</style><defs><g id="allt"><path id="t5279" d="M2640,1280 L2629,1280 C2618,1280 2630,1287 2621,1289 C2613,1291 2628,1277 2617,1278 L2607,1280 2607,1280 L2607,1289 C2607,1298 2603,1288 2602,1296 C2602,1304 2609,1292 2608,1302 L2607,1312 2607,1312 L2616,1312 C2626,1312 2615,1308 2623,1307 C2632,1307 2620,1314 2630,1313 L2640,1312 2640,1312 L2640,1301 C2640,1290 2634,1302 2634,1295 C2635,1289 2640,1299 2640,1289 L2640,1280"/></g><clipPath id="c" clipRule="evenodd" fill="transparent"><use href="#t5279"/></clipPath></defs><svg viewBox="2601 1276 40 39" preserveAspectRatio="xMinYMin meet"><svg width="4380" height="2430"><g><image crossorigin="anonymous" x="0" y="0" href="https://nftpuzzle.license-token.com/assets/completepuzzle.svg" width="100%" height="100%" /><g class="links"><use href="#t5279"/></g></g></svg><svg x="2626" y="1300" height="9%" width="9%" viewBox="0 0 330 330"><g><a xlink:href="https://nftpuzzle.license-token.com/" class="links"><title>See the most innovative NFT based token software licensing project</title><path fill="#E4CF37" id="more" d="M165,0C74.019,0,0,74.019,0,165s74.019,165,165,165s165-74.019,165-165S255.981,0,165,0z M85,190 c-13.785,0-25-11.215-25-25s11.215-25,25-25s25,11.215,25,25S98.785,190,85,190z M165,190c-13.785,0-25-11.215-25-25 s11.215-25,25-25s25,11.215,25,25S178.785,190,165,190z M245,190c-13.785,0-25-11.215-25-25s11.215-25,25-25 c13.785,0,25,11.215,25,25S258.785,190,245,190z"></path></a></g></svg></svg></svg>