<svg version="1.1" xmlns="http://www.w3.org/2000/svg" xmlns:xlink="http://www.w3.org/1999/xlink" fill="transparent" x="0" y="0" width="350" height="350" preserveAspectRatio="xMinYMin slice"><style type="text/css">.links{fill:transparent;stroke: #E4CF37;}.links:hover{fill:#63D272; opacity:0.4;}</style><defs><g id="allt"><path id="t5292" d="M3069,1280 L3059,1280 C3050,1280 3064,1282 3052,1282 C3040,1282 3054,1280 3045,1280 L3036,1280 3036,1280 L3037,1289 C3039,1299 3031,1289 3029,1296 C3028,1304 3036,1294 3036,1303 L3036,1312 3036,1312 L3045,1313 C3055,1315 3045,1307 3053,1305 C3061,1304 3050,1312 3059,1312 L3069,1312 3069,1312 L3069,1301 C3069,1291 3058,1306 3059,1297 C3060,1288 3071,1299 3070,1289 L3069,1280"/></g><clipPath id="c" clipRule="evenodd" fill="transparent"><use href="#t5292"/></clipPath></defs><svg viewBox="3027 1279 45 37" preserveAspectRatio="xMinYMin meet"><svg width="4380" height="2430"><g><image crossorigin="anonymous" x="0" y="0" href="https://nftpuzzle.license-token.com/assets/completepuzzle.svg" width="100%" height="100%" /><g class="links"><use href="#t5292"/></g></g></svg><svg x="3057" y="1301" height="9%" width="9%" viewBox="0 0 330 330"><g><a xlink:href="https://nftpuzzle.license-token.com/" class="links"><title>See the most innovative NFT based token software licensing project</title><path fill="#E4CF37" id="more" d="M165,0C74.019,0,0,74.019,0,165s74.019,165,165,165s165-74.019,165-165S255.981,0,165,0z M85,190 c-13.785,0-25-11.215-25-25s11.215-25,25-25s25,11.215,25,25S98.785,190,85,190z M165,190c-13.785,0-25-11.215-25-25 s11.215-25,25-25s25,11.215,25,25S178.785,190,165,190z M245,190c-13.785,0-25-11.215-25-25s11.215-25,25-25 c13.785,0,25,11.215,25,25S258.785,190,245,190z"></path></a></g></svg></svg></svg>