<svg version="1.1" xmlns="http://www.w3.org/2000/svg" xmlns:xlink="http://www.w3.org/1999/xlink" fill="transparent" x="0" y="0" width="350" height="350" preserveAspectRatio="xMinYMin slice"><style type="text/css">.links{fill:transparent;stroke: #E4CF37;}.links:hover{fill:#63D272; opacity:0.4;}</style><defs><g id="allt"><path id="t5300" d="M3333,1280 L3322,1277 C3312,1275 3327,1286 3317,1288 C3307,1290 3321,1280 3310,1280 L3300,1280 3300,1280 L3300,1289 C3300,1298 3291,1284 3290,1295 C3290,1307 3302,1293 3301,1302 L3300,1312 3300,1312 L3309,1312 C3319,1312 3304,1303 3316,1302 C3328,1302 3313,1314 3323,1313 L3333,1312 3333,1312 L3331,1301 C3330,1291 3340,1302 3339,1294 C3338,1286 3332,1299 3332,1289 L3333,1280"/></g><clipPath id="c" clipRule="evenodd" fill="transparent"><use href="#t5300"/></clipPath></defs><svg viewBox="3289 1274 52 41" preserveAspectRatio="xMinYMin meet"><svg width="4380" height="2430"><g><image crossorigin="anonymous" x="0" y="0" href="https://nftpuzzle.license-token.com/assets/completepuzzle.svg" width="100%" height="100%" /><g class="links"><use href="#t5300"/></g></g></svg><svg x="3326" y="1300" height="9%" width="9%" viewBox="0 0 330 330"><g><a xlink:href="https://nftpuzzle.license-token.com/" class="links"><title>See the most innovative NFT based token software licensing project</title><path fill="#E4CF37" id="more" d="M165,0C74.019,0,0,74.019,0,165s74.019,165,165,165s165-74.019,165-165S255.981,0,165,0z M85,190 c-13.785,0-25-11.215-25-25s11.215-25,25-25s25,11.215,25,25S98.785,190,85,190z M165,190c-13.785,0-25-11.215-25-25 s11.215-25,25-25s25,11.215,25,25S178.785,190,165,190z M245,190c-13.785,0-25-11.215-25-25s11.215-25,25-25 c13.785,0,25,11.215,25,25S258.785,190,245,190z"></path></a></g></svg></svg></svg>