<svg version="1.1" xmlns="http://www.w3.org/2000/svg" xmlns:xlink="http://www.w3.org/1999/xlink" fill="transparent" x="0" y="0" width="350" height="350" preserveAspectRatio="xMinYMin slice"><style type="text/css">.links{fill:transparent;stroke: #E4CF37;}.links:hover{fill:#63D272; opacity:0.4;}</style><defs><g id="allt"><path id="t5305" d="M3498,1280 L3488,1280 C3479,1280 3489,1286 3480,1286 C3471,1286 3484,1280 3474,1280 L3465,1280 3465,1280 L3465,1289 C3465,1298 3462,1286 3462,1295 C3462,1304 3465,1291 3465,1301 L3465,1312 3465,1312 L3474,1312 C3483,1312 3471,1309 3480,1309 C3490,1309 3476,1312 3487,1312 L3498,1312 3498,1312 L3499,1302 C3500,1292 3489,1306 3489,1296 C3489,1286 3498,1299 3498,1289 L3498,1280"/></g><clipPath id="c" clipRule="evenodd" fill="transparent"><use href="#t5305"/></clipPath></defs><svg viewBox="3461 1279 40 34" preserveAspectRatio="xMinYMin meet"><svg width="4380" height="2430"><g><image crossorigin="anonymous" x="0" y="0" href="https://nftpuzzle.license-token.com/assets/completepuzzle.svg" width="100%" height="100%" /><g class="links"><use href="#t5305"/></g></g></svg><svg x="3486" y="1298" height="9%" width="9%" viewBox="0 0 330 330"><g><a xlink:href="https://nftpuzzle.license-token.com/" class="links"><title>See the most innovative NFT based token software licensing project</title><path fill="#E4CF37" id="more" d="M165,0C74.019,0,0,74.019,0,165s74.019,165,165,165s165-74.019,165-165S255.981,0,165,0z M85,190 c-13.785,0-25-11.215-25-25s11.215-25,25-25s25,11.215,25,25S98.785,190,85,190z M165,190c-13.785,0-25-11.215-25-25 s11.215-25,25-25s25,11.215,25,25S178.785,190,165,190z M245,190c-13.785,0-25-11.215-25-25s11.215-25,25-25 c13.785,0,25,11.215,25,25S258.785,190,245,190z"></path></a></g></svg></svg></svg>