<svg version="1.1" xmlns="http://www.w3.org/2000/svg" xmlns:xlink="http://www.w3.org/1999/xlink" fill="transparent" x="0" y="0" width="350" height="350" preserveAspectRatio="xMinYMin slice"><style type="text/css">.links{fill:transparent;stroke: #E4CF37;}.links:hover{fill:#63D272; opacity:0.4;}</style><defs><g id="allt"><path id="t5306" d="M3531,1280 L3521,1280 C3512,1280 3521,1276 3512,1276 C3504,1277 3519,1280 3508,1280 L3498,1280 3498,1280 L3498,1289 C3498,1299 3489,1286 3489,1296 C3489,1306 3500,1292 3499,1302 L3498,1312 3498,1312 L3508,1312 C3518,1312 3504,1303 3514,1303 C3525,1304 3510,1314 3520,1313 L3531,1312 3531,1312 L3532,1302 C3533,1293 3529,1303 3529,1296 C3529,1289 3532,1298 3531,1289 L3531,1280"/></g><clipPath id="c" clipRule="evenodd" fill="transparent"><use href="#t5306"/></clipPath></defs><svg viewBox="3488 1275 46 40" preserveAspectRatio="xMinYMin meet"><svg width="4380" height="2430"><g><image crossorigin="anonymous" x="0" y="0" href="https://nftpuzzle.license-token.com/assets/completepuzzle.svg" width="100%" height="100%" /><g class="links"><use href="#t5306"/></g></g></svg><svg x="3519" y="1300" height="9%" width="9%" viewBox="0 0 330 330"><g><a xlink:href="https://nftpuzzle.license-token.com/" class="links"><title>See the most innovative NFT based token software licensing project</title><path fill="#E4CF37" id="more" d="M165,0C74.019,0,0,74.019,0,165s74.019,165,165,165s165-74.019,165-165S255.981,0,165,0z M85,190 c-13.785,0-25-11.215-25-25s11.215-25,25-25s25,11.215,25,25S98.785,190,85,190z M165,190c-13.785,0-25-11.215-25-25 s11.215-25,25-25s25,11.215,25,25S178.785,190,165,190z M245,190c-13.785,0-25-11.215-25-25s11.215-25,25-25 c13.785,0,25,11.215,25,25S258.785,190,245,190z"></path></a></g></svg></svg></svg>