<svg version="1.1" xmlns="http://www.w3.org/2000/svg" xmlns:xlink="http://www.w3.org/1999/xlink" fill="transparent" x="0" y="0" width="350" height="350" preserveAspectRatio="xMinYMin slice"><style type="text/css">.links{fill:transparent;stroke: #E4CF37;}.links:hover{fill:#63D272; opacity:0.4;}</style><defs><g id="allt"><path id="t5307" d="M3564,1280 L3552,1278 C3541,1277 3557,1288 3548,1286 C3540,1285 3549,1278 3540,1279 L3531,1280 3531,1280 L3531,1289 C3532,1298 3529,1289 3529,1296 C3529,1303 3533,1293 3532,1302 L3531,1312 3531,1312 L3540,1312 C3550,1313 3540,1310 3547,1310 C3555,1310 3545,1314 3554,1313 L3564,1312 3564,1312 L3564,1303 C3564,1294 3566,1302 3567,1293 C3568,1284 3564,1300 3564,1290 L3564,1280"/></g><clipPath id="c" clipRule="evenodd" fill="transparent"><use href="#t5307"/></clipPath></defs><svg viewBox="3528 1276 41 39" preserveAspectRatio="xMinYMin meet"><svg width="4380" height="2430"><g><image crossorigin="anonymous" x="0" y="0" href="https://nftpuzzle.license-token.com/assets/completepuzzle.svg" width="100%" height="100%" /><g class="links"><use href="#t5307"/></g></g></svg><svg x="3554" y="1300" height="9%" width="9%" viewBox="0 0 330 330"><g><a xlink:href="https://nftpuzzle.license-token.com/" class="links"><title>See the most innovative NFT based token software licensing project</title><path fill="#E4CF37" id="more" d="M165,0C74.019,0,0,74.019,0,165s74.019,165,165,165s165-74.019,165-165S255.981,0,165,0z M85,190 c-13.785,0-25-11.215-25-25s11.215-25,25-25s25,11.215,25,25S98.785,190,85,190z M165,190c-13.785,0-25-11.215-25-25 s11.215-25,25-25s25,11.215,25,25S178.785,190,165,190z M245,190c-13.785,0-25-11.215-25-25s11.215-25,25-25 c13.785,0,25,11.215,25,25S258.785,190,245,190z"></path></a></g></svg></svg></svg>