<svg version="1.1" xmlns="http://www.w3.org/2000/svg" xmlns:xlink="http://www.w3.org/1999/xlink" fill="transparent" x="0" y="0" width="350" height="350" preserveAspectRatio="xMinYMin slice"><style type="text/css">.links{fill:transparent;stroke: #E4CF37;}.links:hover{fill:#63D272; opacity:0.4;}</style><defs><g id="allt"><path id="t5309" d="M3630,1280 L3619,1280 C3608,1281 3620,1274 3613,1274 C3606,1274 3615,1280 3606,1280 L3597,1280 3597,1280 L3597,1290 C3597,1300 3592,1288 3592,1296 C3592,1305 3599,1292 3598,1302 L3597,1312 3597,1312 L3607,1312 C3617,1312 3606,1307 3614,1307 C3623,1307 3609,1314 3619,1313 L3630,1312 3630,1312 L3630,1301 C3630,1291 3624,1302 3623,1294 C3622,1287 3633,1301 3631,1290 L3630,1280"/></g><clipPath id="c" clipRule="evenodd" fill="transparent"><use href="#t5309"/></clipPath></defs><svg viewBox="3591 1273 43 42" preserveAspectRatio="xMinYMin meet"><svg width="4380" height="2430"><g><image crossorigin="anonymous" x="0" y="0" href="https://nftpuzzle.license-token.com/assets/completepuzzle.svg" width="100%" height="100%" /><g class="links"><use href="#t5309"/></g></g></svg><svg x="3619" y="1300" height="9%" width="9%" viewBox="0 0 330 330"><g><a xlink:href="https://nftpuzzle.license-token.com/" class="links"><title>See the most innovative NFT based token software licensing project</title><path fill="#E4CF37" id="more" d="M165,0C74.019,0,0,74.019,0,165s74.019,165,165,165s165-74.019,165-165S255.981,0,165,0z M85,190 c-13.785,0-25-11.215-25-25s11.215-25,25-25s25,11.215,25,25S98.785,190,85,190z M165,190c-13.785,0-25-11.215-25-25 s11.215-25,25-25s25,11.215,25,25S178.785,190,165,190z M245,190c-13.785,0-25-11.215-25-25s11.215-25,25-25 c13.785,0,25,11.215,25,25S258.785,190,245,190z"></path></a></g></svg></svg></svg>