<svg version="1.1" xmlns="http://www.w3.org/2000/svg" xmlns:xlink="http://www.w3.org/1999/xlink" fill="transparent" x="0" y="0" width="350" height="350" preserveAspectRatio="xMinYMin slice"><style type="text/css">.links{fill:transparent;stroke: #E4CF37;}.links:hover{fill:#63D272; opacity:0.4;}</style><defs><g id="allt"><path id="t5318" d="M3927,1280 L3917,1277 C3907,1275 3921,1288 3909,1290 C3898,1292 3913,1275 3903,1277 L3894,1280 3894,1280 L3893,1289 C3893,1298 3901,1285 3900,1293 C3900,1302 3894,1290 3894,1301 L3894,1312 3894,1312 L3903,1311 C3913,1311 3899,1319 3908,1318 C3917,1318 3905,1312 3916,1312 L3927,1312 3927,1312 L3927,1302 C3927,1292 3923,1307 3922,1296 C3922,1286 3930,1301 3928,1290 L3927,1280"/></g><clipPath id="c" clipRule="evenodd" fill="transparent"><use href="#t5318"/></clipPath></defs><svg viewBox="3892 1274 39 46" preserveAspectRatio="xMinYMin meet"><svg width="4380" height="2430"><g><image crossorigin="anonymous" x="0" y="0" href="https://nftpuzzle.license-token.com/assets/completepuzzle.svg" width="100%" height="100%" /><g class="links"><use href="#t5318"/></g></g></svg><svg x="3916" y="1305" height="9%" width="9%" viewBox="0 0 330 330"><g><a xlink:href="https://nftpuzzle.license-token.com/" class="links"><title>See the most innovative NFT based token software licensing project</title><path fill="#E4CF37" id="more" d="M165,0C74.019,0,0,74.019,0,165s74.019,165,165,165s165-74.019,165-165S255.981,0,165,0z M85,190 c-13.785,0-25-11.215-25-25s11.215-25,25-25s25,11.215,25,25S98.785,190,85,190z M165,190c-13.785,0-25-11.215-25-25 s11.215-25,25-25s25,11.215,25,25S178.785,190,165,190z M245,190c-13.785,0-25-11.215-25-25s11.215-25,25-25 c13.785,0,25,11.215,25,25S258.785,190,245,190z"></path></a></g></svg></svg></svg>