<svg version="1.1" xmlns="http://www.w3.org/2000/svg" xmlns:xlink="http://www.w3.org/1999/xlink" fill="transparent" x="0" y="0" width="350" height="350" preserveAspectRatio="xMinYMin slice"><style type="text/css">.links{fill:transparent;stroke: #E4CF37;}.links:hover{fill:#63D272; opacity:0.4;}</style><defs><g id="allt"><path id="t5320" d="M3993,1280 L3982,1280 C3972,1280 3983,1290 3975,1291 C3968,1293 3980,1280 3970,1280 L3960,1280 3960,1280 L3960,1289 C3960,1299 3964,1285 3965,1295 C3966,1305 3959,1293 3959,1302 L3960,1312 3960,1312 L3970,1312 C3980,1312 3965,1316 3975,1317 C3986,1318 3974,1311 3983,1311 L3993,1312 3993,1312 L3992,1301 C3992,1290 4003,1306 4001,1297 C4000,1289 3993,1300 3993,1290 L3993,1280"/></g><clipPath id="c" clipRule="evenodd" fill="transparent"><use href="#t5320"/></clipPath></defs><svg viewBox="3958 1279 46 40" preserveAspectRatio="xMinYMin meet"><svg width="4380" height="2430"><g><image crossorigin="anonymous" x="0" y="0" href="https://nftpuzzle.license-token.com/assets/completepuzzle.svg" width="100%" height="100%" /><g class="links"><use href="#t5320"/></g></g></svg><svg x="3989" y="1304" height="9%" width="9%" viewBox="0 0 330 330"><g><a xlink:href="https://nftpuzzle.license-token.com/" class="links"><title>See the most innovative NFT based token software licensing project</title><path fill="#E4CF37" id="more" d="M165,0C74.019,0,0,74.019,0,165s74.019,165,165,165s165-74.019,165-165S255.981,0,165,0z M85,190 c-13.785,0-25-11.215-25-25s11.215-25,25-25s25,11.215,25,25S98.785,190,85,190z M165,190c-13.785,0-25-11.215-25-25 s11.215-25,25-25s25,11.215,25,25S178.785,190,165,190z M245,190c-13.785,0-25-11.215-25-25s11.215-25,25-25 c13.785,0,25,11.215,25,25S258.785,190,245,190z"></path></a></g></svg></svg></svg>