<svg version="1.1" xmlns="http://www.w3.org/2000/svg" xmlns:xlink="http://www.w3.org/1999/xlink" fill="transparent" x="0" y="0" width="350" height="350" preserveAspectRatio="xMinYMin slice"><style type="text/css">.links{fill:transparent;stroke: #E4CF37;}.links:hover{fill:#63D272; opacity:0.4;}</style><defs><g id="allt"><path id="t5323" d="M4092,1280 L4082,1279 C4073,1279 4086,1287 4075,1287 C4064,1287 4080,1280 4069,1280 L4059,1280 4059,1280 L4057,1289 C4056,1299 4067,1288 4068,1296 C4069,1305 4058,1293 4058,1302 L4059,1312 4059,1312 L4069,1310 C4079,1309 4067,1320 4076,1320 C4085,1321 4073,1311 4082,1311 L4092,1312 4092,1312 L4092,1301 C4093,1291 4087,1305 4086,1295 C4085,1285 4092,1298 4092,1289 L4092,1280"/></g><clipPath id="c" clipRule="evenodd" fill="transparent"><use href="#t5323"/></clipPath></defs><svg viewBox="4055 1278 39 44" preserveAspectRatio="xMinYMin meet"><svg width="4380" height="2430"><g><image crossorigin="anonymous" x="0" y="0" href="https://nftpuzzle.license-token.com/assets/completepuzzle.svg" width="100%" height="100%" /><g class="links"><use href="#t5323"/></g></g></svg><svg x="4079" y="1307" height="9%" width="9%" viewBox="0 0 330 330"><g><a xlink:href="https://nftpuzzle.license-token.com/" class="links"><title>See the most innovative NFT based token software licensing project</title><path fill="#E4CF37" id="more" d="M165,0C74.019,0,0,74.019,0,165s74.019,165,165,165s165-74.019,165-165S255.981,0,165,0z M85,190 c-13.785,0-25-11.215-25-25s11.215-25,25-25s25,11.215,25,25S98.785,190,85,190z M165,190c-13.785,0-25-11.215-25-25 s11.215-25,25-25s25,11.215,25,25S178.785,190,165,190z M245,190c-13.785,0-25-11.215-25-25s11.215-25,25-25 c13.785,0,25,11.215,25,25S258.785,190,245,190z"></path></a></g></svg></svg></svg>