<svg version="1.1" xmlns="http://www.w3.org/2000/svg" xmlns:xlink="http://www.w3.org/1999/xlink" fill="transparent" x="0" y="0" width="350" height="350" preserveAspectRatio="xMinYMin slice"><style type="text/css">.links{fill:transparent;stroke: #E4CF37;}.links:hover{fill:#63D272; opacity:0.4;}</style><defs><g id="allt"><path id="t5324" d="M4125,1280 L4114,1282 C4103,1285 4117,1272 4108,1273 C4100,1275 4112,1282 4102,1281 L4092,1280 4092,1280 L4092,1289 C4092,1298 4085,1285 4086,1295 C4087,1305 4093,1291 4092,1301 L4092,1312 4092,1312 L4101,1312 C4110,1312 4097,1305 4107,1306 C4118,1307 4103,1313 4114,1312 L4125,1312 4125,1312 L4125,1303 C4125,1294 4119,1304 4120,1294 C4122,1285 4126,1299 4125,1289 L4125,1280"/></g><clipPath id="c" clipRule="evenodd" fill="transparent"><use href="#t5324"/></clipPath></defs><svg viewBox="4084 1271 43 43" preserveAspectRatio="xMinYMin meet"><svg width="4380" height="2430"><g><image crossorigin="anonymous" x="0" y="0" href="https://nftpuzzle.license-token.com/assets/completepuzzle.svg" width="100%" height="100%" /><g class="links"><use href="#t5324"/></g></g></svg><svg x="4112" y="1299" height="9%" width="9%" viewBox="0 0 330 330"><g><a xlink:href="https://nftpuzzle.license-token.com/" class="links"><title>See the most innovative NFT based token software licensing project</title><path fill="#E4CF37" id="more" d="M165,0C74.019,0,0,74.019,0,165s74.019,165,165,165s165-74.019,165-165S255.981,0,165,0z M85,190 c-13.785,0-25-11.215-25-25s11.215-25,25-25s25,11.215,25,25S98.785,190,85,190z M165,190c-13.785,0-25-11.215-25-25 s11.215-25,25-25s25,11.215,25,25S178.785,190,165,190z M245,190c-13.785,0-25-11.215-25-25s11.215-25,25-25 c13.785,0,25,11.215,25,25S258.785,190,245,190z"></path></a></g></svg></svg></svg>