<svg version="1.1" xmlns="http://www.w3.org/2000/svg" xmlns:xlink="http://www.w3.org/1999/xlink" fill="transparent" x="0" y="0" width="350" height="350" preserveAspectRatio="xMinYMin slice"><style type="text/css">.links{fill:transparent;stroke: #E4CF37;}.links:hover{fill:#63D272; opacity:0.4;}</style><defs><g id="allt"><path id="t5326" d="M4191,1280 L4181,1278 C4171,1277 4182,1284 4174,1285 C4166,1287 4180,1279 4169,1279 L4158,1280 4158,1280 L4159,1288 C4160,1297 4153,1285 4152,1293 C4151,1302 4158,1294 4158,1303 L4158,1312 4158,1312 L4167,1313 C4176,1314 4163,1307 4172,1306 C4181,1305 4172,1312 4181,1312 L4191,1312 4191,1312 L4193,1303 C4195,1294 4181,1303 4181,1295 C4182,1287 4191,1299 4191,1289 L4191,1280"/></g><clipPath id="c" clipRule="evenodd" fill="transparent"><use href="#t5326"/></clipPath></defs><svg viewBox="4150 1276 46 39" preserveAspectRatio="xMinYMin meet"><svg width="4380" height="2430"><g><image crossorigin="anonymous" x="0" y="0" href="https://nftpuzzle.license-token.com/assets/completepuzzle.svg" width="100%" height="100%" /><g class="links"><use href="#t5326"/></g></g></svg><svg x="4181" y="1300" height="9%" width="9%" viewBox="0 0 330 330"><g><a xlink:href="https://nftpuzzle.license-token.com/" class="links"><title>See the most innovative NFT based token software licensing project</title><path fill="#E4CF37" id="more" d="M165,0C74.019,0,0,74.019,0,165s74.019,165,165,165s165-74.019,165-165S255.981,0,165,0z M85,190 c-13.785,0-25-11.215-25-25s11.215-25,25-25s25,11.215,25,25S98.785,190,85,190z M165,190c-13.785,0-25-11.215-25-25 s11.215-25,25-25s25,11.215,25,25S178.785,190,165,190z M245,190c-13.785,0-25-11.215-25-25s11.215-25,25-25 c13.785,0,25,11.215,25,25S258.785,190,245,190z"></path></a></g></svg></svg></svg>