<svg version="1.1" xmlns="http://www.w3.org/2000/svg" xmlns:xlink="http://www.w3.org/1999/xlink" fill="transparent" x="0" y="0" width="350" height="350" preserveAspectRatio="xMinYMin slice"><style type="text/css">.links{fill:transparent;stroke: #E4CF37;}.links:hover{fill:#63D272; opacity:0.4;}</style><defs><g id="allt"><path id="t5344" d="M495,1312 L485,1313 C476,1314 485,1306 478,1304 C471,1303 482,1316 472,1314 L462,1312 462,1312 L462,1322 C463,1332 457,1318 456,1326 C456,1335 463,1324 462,1334 L462,1344 462,1344 L472,1344 C482,1345 468,1339 477,1338 C486,1338 474,1345 484,1344 L495,1344 495,1344 L496,1335 C498,1326 487,1337 486,1326 C486,1316 496,1330 495,1321 L495,1312"/></g><clipPath id="c" clipRule="evenodd" fill="transparent"><use href="#t5344"/></clipPath></defs><svg viewBox="455 1302 44 44" preserveAspectRatio="xMinYMin meet"><svg width="4380" height="2430"><g><image crossorigin="anonymous" x="0" y="0" href="https://nftpuzzle.license-token.com/assets/completepuzzle.svg" width="100%" height="100%" /><g class="links"><use href="#t5344"/></g></g></svg><svg x="484" y="1331" height="9%" width="9%" viewBox="0 0 330 330"><g><a xlink:href="https://nftpuzzle.license-token.com/" class="links"><title>See the most innovative NFT based token software licensing project</title><path fill="#E4CF37" id="more" d="M165,0C74.019,0,0,74.019,0,165s74.019,165,165,165s165-74.019,165-165S255.981,0,165,0z M85,190 c-13.785,0-25-11.215-25-25s11.215-25,25-25s25,11.215,25,25S98.785,190,85,190z M165,190c-13.785,0-25-11.215-25-25 s11.215-25,25-25s25,11.215,25,25S178.785,190,165,190z M245,190c-13.785,0-25-11.215-25-25s11.215-25,25-25 c13.785,0,25,11.215,25,25S258.785,190,245,190z"></path></a></g></svg></svg></svg>