<svg version="1.1" xmlns="http://www.w3.org/2000/svg" xmlns:xlink="http://www.w3.org/1999/xlink" fill="transparent" x="0" y="0" width="350" height="350" preserveAspectRatio="xMinYMin slice"><style type="text/css">.links{fill:transparent;stroke: #E4CF37;}.links:hover{fill:#63D272; opacity:0.4;}</style><defs><g id="allt"><path id="t5347" d="M594,1312 L584,1313 C575,1314 584,1307 576,1306 C569,1306 581,1314 571,1313 L561,1312 561,1312 L562,1320 C563,1329 553,1321 553,1329 C554,1338 562,1325 561,1334 L561,1344 561,1344 L570,1345 C579,1346 570,1336 579,1336 C588,1337 574,1345 584,1344 L594,1344 594,1344 L594,1333 C595,1323 589,1336 589,1326 C589,1317 594,1332 594,1322 L594,1312"/></g><clipPath id="c" clipRule="evenodd" fill="transparent"><use href="#t5347"/></clipPath></defs><svg viewBox="552 1305 44 42" preserveAspectRatio="xMinYMin meet"><svg width="4380" height="2430"><g><image crossorigin="anonymous" x="0" y="0" href="https://nftpuzzle.license-token.com/assets/completepuzzle.svg" width="100%" height="100%" /><g class="links"><use href="#t5347"/></g></g></svg><svg x="581" y="1332" height="9%" width="9%" viewBox="0 0 330 330"><g><a xlink:href="https://nftpuzzle.license-token.com/" class="links"><title>See the most innovative NFT based token software licensing project</title><path fill="#E4CF37" id="more" d="M165,0C74.019,0,0,74.019,0,165s74.019,165,165,165s165-74.019,165-165S255.981,0,165,0z M85,190 c-13.785,0-25-11.215-25-25s11.215-25,25-25s25,11.215,25,25S98.785,190,85,190z M165,190c-13.785,0-25-11.215-25-25 s11.215-25,25-25s25,11.215,25,25S178.785,190,165,190z M245,190c-13.785,0-25-11.215-25-25s11.215-25,25-25 c13.785,0,25,11.215,25,25S258.785,190,245,190z"></path></a></g></svg></svg></svg>