<svg version="1.1" xmlns="http://www.w3.org/2000/svg" xmlns:xlink="http://www.w3.org/1999/xlink" fill="transparent" x="0" y="0" width="350" height="350" preserveAspectRatio="xMinYMin slice"><style type="text/css">.links{fill:transparent;stroke: #E4CF37;}.links:hover{fill:#63D272; opacity:0.4;}</style><defs><g id="allt"><path id="t5348" d="M627,1312 L617,1312 C608,1312 617,1309 608,1307 C599,1306 614,1312 604,1312 L594,1312 594,1312 L594,1322 C594,1332 589,1317 589,1326 C589,1336 595,1323 594,1333 L594,1344 594,1344 L604,1344 C615,1344 599,1339 609,1339 C619,1339 606,1345 616,1344 L627,1344 627,1344 L627,1333 C627,1323 632,1336 633,1328 C634,1320 627,1333 627,1322 L627,1312"/></g><clipPath id="c" clipRule="evenodd" fill="transparent"><use href="#t5348"/></clipPath></defs><svg viewBox="588 1305 47 41" preserveAspectRatio="xMinYMin meet"><svg width="4380" height="2430"><g><image crossorigin="anonymous" x="0" y="0" href="https://nftpuzzle.license-token.com/assets/completepuzzle.svg" width="100%" height="100%" /><g class="links"><use href="#t5348"/></g></g></svg><svg x="620" y="1331" height="9%" width="9%" viewBox="0 0 330 330"><g><a xlink:href="https://nftpuzzle.license-token.com/" class="links"><title>See the most innovative NFT based token software licensing project</title><path fill="#E4CF37" id="more" d="M165,0C74.019,0,0,74.019,0,165s74.019,165,165,165s165-74.019,165-165S255.981,0,165,0z M85,190 c-13.785,0-25-11.215-25-25s11.215-25,25-25s25,11.215,25,25S98.785,190,85,190z M165,190c-13.785,0-25-11.215-25-25 s11.215-25,25-25s25,11.215,25,25S178.785,190,165,190z M245,190c-13.785,0-25-11.215-25-25s11.215-25,25-25 c13.785,0,25,11.215,25,25S258.785,190,245,190z"></path></a></g></svg></svg></svg>