<svg version="1.1" xmlns="http://www.w3.org/2000/svg" xmlns:xlink="http://www.w3.org/1999/xlink" fill="transparent" x="0" y="0" width="350" height="350" preserveAspectRatio="xMinYMin slice"><style type="text/css">.links{fill:transparent;stroke: #E4CF37;}.links:hover{fill:#63D272; opacity:0.4;}</style><defs><g id="allt"><path id="t5349" d="M660,1312 L649,1313 C639,1314 653,1309 642,1309 C632,1309 647,1312 637,1312 L627,1312 627,1312 L627,1322 C627,1333 634,1320 633,1328 C632,1336 627,1323 627,1333 L627,1344 627,1344 L637,1344 C648,1344 635,1351 643,1350 C651,1349 638,1344 649,1344 L660,1344 660,1344 L662,1334 C665,1325 649,1337 649,1328 C649,1320 660,1332 660,1322 L660,1312"/></g><clipPath id="c" clipRule="evenodd" fill="transparent"><use href="#t5349"/></clipPath></defs><svg viewBox="626 1308 40 44" preserveAspectRatio="xMinYMin meet"><svg width="4380" height="2430"><g><image crossorigin="anonymous" x="0" y="0" href="https://nftpuzzle.license-token.com/assets/completepuzzle.svg" width="100%" height="100%" /><g class="links"><use href="#t5349"/></g></g></svg><svg x="651" y="1337" height="9%" width="9%" viewBox="0 0 330 330"><g><a xlink:href="https://nftpuzzle.license-token.com/" class="links"><title>See the most innovative NFT based token software licensing project</title><path fill="#E4CF37" id="more" d="M165,0C74.019,0,0,74.019,0,165s74.019,165,165,165s165-74.019,165-165S255.981,0,165,0z M85,190 c-13.785,0-25-11.215-25-25s11.215-25,25-25s25,11.215,25,25S98.785,190,85,190z M165,190c-13.785,0-25-11.215-25-25 s11.215-25,25-25s25,11.215,25,25S178.785,190,165,190z M245,190c-13.785,0-25-11.215-25-25s11.215-25,25-25 c13.785,0,25,11.215,25,25S258.785,190,245,190z"></path></a></g></svg></svg></svg>