<svg version="1.1" xmlns="http://www.w3.org/2000/svg" xmlns:xlink="http://www.w3.org/1999/xlink" fill="transparent" x="0" y="0" width="350" height="350" preserveAspectRatio="xMinYMin slice"><style type="text/css">.links{fill:transparent;stroke: #E4CF37;}.links:hover{fill:#63D272; opacity:0.4;}</style><defs><g id="allt"><path id="t5351" d="M726,1312 L716,1313 C706,1314 720,1308 709,1307 C699,1307 714,1312 703,1312 L693,1312 693,1312 L693,1321 C694,1331 685,1320 684,1328 C684,1336 695,1325 694,1334 L693,1344 693,1344 L702,1344 C712,1345 701,1336 709,1335 C718,1335 707,1346 716,1345 L726,1344 726,1344 L727,1335 C729,1326 716,1337 716,1328 C717,1319 728,1331 727,1321 L726,1312"/></g><clipPath id="c" clipRule="evenodd" fill="transparent"><use href="#t5351"/></clipPath></defs><svg viewBox="683 1306 47 41" preserveAspectRatio="xMinYMin meet"><svg width="4380" height="2430"><g><image crossorigin="anonymous" x="0" y="0" href="https://nftpuzzle.license-token.com/assets/completepuzzle.svg" width="100%" height="100%" /><g class="links"><use href="#t5351"/></g></g></svg><svg x="715" y="1332" height="9%" width="9%" viewBox="0 0 330 330"><g><a xlink:href="https://nftpuzzle.license-token.com/" class="links"><title>See the most innovative NFT based token software licensing project</title><path fill="#E4CF37" id="more" d="M165,0C74.019,0,0,74.019,0,165s74.019,165,165,165s165-74.019,165-165S255.981,0,165,0z M85,190 c-13.785,0-25-11.215-25-25s11.215-25,25-25s25,11.215,25,25S98.785,190,85,190z M165,190c-13.785,0-25-11.215-25-25 s11.215-25,25-25s25,11.215,25,25S178.785,190,165,190z M245,190c-13.785,0-25-11.215-25-25s11.215-25,25-25 c13.785,0,25,11.215,25,25S258.785,190,245,190z"></path></a></g></svg></svg></svg>