<svg version="1.1" xmlns="http://www.w3.org/2000/svg" xmlns:xlink="http://www.w3.org/1999/xlink" fill="transparent" x="0" y="0" width="350" height="350" preserveAspectRatio="xMinYMin slice"><style type="text/css">.links{fill:transparent;stroke: #E4CF37;}.links:hover{fill:#63D272; opacity:0.4;}</style><defs><g id="allt"><path id="t5353" d="M792,1312 L782,1312 C773,1312 783,1319 775,1318 C767,1318 779,1312 769,1312 L759,1312 759,1312 L760,1321 C761,1330 754,1318 755,1328 C756,1338 759,1325 759,1334 L759,1344 759,1344 L768,1345 C778,1346 765,1339 775,1340 C786,1341 772,1344 782,1344 L792,1344 792,1344 L790,1333 C788,1322 799,1338 800,1329 C802,1321 792,1329 792,1320 L792,1312"/></g><clipPath id="c" clipRule="evenodd" fill="transparent"><use href="#t5353"/></clipPath></defs><svg viewBox="753 1311 50 36" preserveAspectRatio="xMinYMin meet"><svg width="4380" height="2430"><g><image crossorigin="anonymous" x="0" y="0" href="https://nftpuzzle.license-token.com/assets/completepuzzle.svg" width="100%" height="100%" /><g class="links"><use href="#t5353"/></g></g></svg><svg x="788" y="1332" height="9%" width="9%" viewBox="0 0 330 330"><g><a xlink:href="https://nftpuzzle.license-token.com/" class="links"><title>See the most innovative NFT based token software licensing project</title><path fill="#E4CF37" id="more" d="M165,0C74.019,0,0,74.019,0,165s74.019,165,165,165s165-74.019,165-165S255.981,0,165,0z M85,190 c-13.785,0-25-11.215-25-25s11.215-25,25-25s25,11.215,25,25S98.785,190,85,190z M165,190c-13.785,0-25-11.215-25-25 s11.215-25,25-25s25,11.215,25,25S178.785,190,165,190z M245,190c-13.785,0-25-11.215-25-25s11.215-25,25-25 c13.785,0,25,11.215,25,25S258.785,190,245,190z"></path></a></g></svg></svg></svg>