<svg version="1.1" xmlns="http://www.w3.org/2000/svg" xmlns:xlink="http://www.w3.org/1999/xlink" fill="transparent" x="0" y="0" width="350" height="350" preserveAspectRatio="xMinYMin slice"><style type="text/css">.links{fill:transparent;stroke: #E4CF37;}.links:hover{fill:#63D272; opacity:0.4;}</style><defs><g id="allt"><path id="t5355" d="M858,1312 L846,1313 C835,1315 848,1306 839,1305 C830,1304 845,1312 835,1312 L825,1312 825,1312 L825,1321 C825,1330 830,1317 829,1326 C828,1336 825,1323 825,1333 L825,1344 825,1344 L834,1344 C844,1344 830,1349 840,1348 C850,1347 836,1344 847,1344 L858,1344 858,1344 L859,1334 C860,1325 854,1338 853,1327 C852,1317 858,1332 858,1322 L858,1312"/></g><clipPath id="c" clipRule="evenodd" fill="transparent"><use href="#t5355"/></clipPath></defs><svg viewBox="824 1303 37 47" preserveAspectRatio="xMinYMin meet"><svg width="4380" height="2430"><g><image crossorigin="anonymous" x="0" y="0" href="https://nftpuzzle.license-token.com/assets/completepuzzle.svg" width="100%" height="100%" /><g class="links"><use href="#t5355"/></g></g></svg><svg x="846" y="1335" height="9%" width="9%" viewBox="0 0 330 330"><g><a xlink:href="https://nftpuzzle.license-token.com/" class="links"><title>See the most innovative NFT based token software licensing project</title><path fill="#E4CF37" id="more" d="M165,0C74.019,0,0,74.019,0,165s74.019,165,165,165s165-74.019,165-165S255.981,0,165,0z M85,190 c-13.785,0-25-11.215-25-25s11.215-25,25-25s25,11.215,25,25S98.785,190,85,190z M165,190c-13.785,0-25-11.215-25-25 s11.215-25,25-25s25,11.215,25,25S178.785,190,165,190z M245,190c-13.785,0-25-11.215-25-25s11.215-25,25-25 c13.785,0,25,11.215,25,25S258.785,190,245,190z"></path></a></g></svg></svg></svg>