<svg version="1.1" xmlns="http://www.w3.org/2000/svg" xmlns:xlink="http://www.w3.org/1999/xlink" fill="transparent" x="0" y="0" width="350" height="350" preserveAspectRatio="xMinYMin slice"><style type="text/css">.links{fill:transparent;stroke: #E4CF37;}.links:hover{fill:#63D272; opacity:0.4;}</style><defs><g id="allt"><path id="t5357" d="M924,1312 L913,1312 C902,1313 917,1303 906,1303 C896,1303 910,1316 900,1314 L891,1312 891,1312 L892,1322 C894,1332 884,1319 885,1328 C887,1337 891,1324 891,1334 L891,1344 891,1344 L901,1345 C911,1347 898,1337 907,1338 C917,1340 903,1344 913,1344 L924,1344 924,1344 L926,1335 C928,1326 917,1337 918,1327 C919,1317 927,1332 925,1322 L924,1312"/></g><clipPath id="c" clipRule="evenodd" fill="transparent"><use href="#t5357"/></clipPath></defs><svg viewBox="883 1302 46 46" preserveAspectRatio="xMinYMin meet"><svg width="4380" height="2430"><g><image crossorigin="anonymous" x="0" y="0" href="https://nftpuzzle.license-token.com/assets/completepuzzle.svg" width="100%" height="100%" /><g class="links"><use href="#t5357"/></g></g></svg><svg x="914" y="1333" height="9%" width="9%" viewBox="0 0 330 330"><g><a xlink:href="https://nftpuzzle.license-token.com/" class="links"><title>See the most innovative NFT based token software licensing project</title><path fill="#E4CF37" id="more" d="M165,0C74.019,0,0,74.019,0,165s74.019,165,165,165s165-74.019,165-165S255.981,0,165,0z M85,190 c-13.785,0-25-11.215-25-25s11.215-25,25-25s25,11.215,25,25S98.785,190,85,190z M165,190c-13.785,0-25-11.215-25-25 s11.215-25,25-25s25,11.215,25,25S178.785,190,165,190z M245,190c-13.785,0-25-11.215-25-25s11.215-25,25-25 c13.785,0,25,11.215,25,25S258.785,190,245,190z"></path></a></g></svg></svg></svg>