<svg version="1.1" xmlns="http://www.w3.org/2000/svg" xmlns:xlink="http://www.w3.org/1999/xlink" fill="transparent" x="0" y="0" width="350" height="350" preserveAspectRatio="xMinYMin slice"><style type="text/css">.links{fill:transparent;stroke: #E4CF37;}.links:hover{fill:#63D272; opacity:0.4;}</style><defs><g id="allt"><path id="t5359" d="M990,1312 L980,1311 C971,1311 980,1316 970,1317 C961,1318 976,1309 966,1310 L957,1312 957,1312 L958,1321 C959,1330 953,1321 952,1329 C952,1337 958,1326 957,1335 L957,1344 957,1344 L966,1345 C976,1346 966,1340 974,1339 C983,1339 971,1345 980,1344 L990,1344 990,1344 L990,1333 C991,1322 985,1336 985,1326 C986,1317 990,1331 990,1321 L990,1312"/></g><clipPath id="c" clipRule="evenodd" fill="transparent"><use href="#t5359"/></clipPath></defs><svg viewBox="951 1308 41 39" preserveAspectRatio="xMinYMin meet"><svg width="4380" height="2430"><g><image crossorigin="anonymous" x="0" y="0" href="https://nftpuzzle.license-token.com/assets/completepuzzle.svg" width="100%" height="100%" /><g class="links"><use href="#t5359"/></g></g></svg><svg x="977" y="1332" height="9%" width="9%" viewBox="0 0 330 330"><g><a xlink:href="https://nftpuzzle.license-token.com/" class="links"><title>See the most innovative NFT based token software licensing project</title><path fill="#E4CF37" id="more" d="M165,0C74.019,0,0,74.019,0,165s74.019,165,165,165s165-74.019,165-165S255.981,0,165,0z M85,190 c-13.785,0-25-11.215-25-25s11.215-25,25-25s25,11.215,25,25S98.785,190,85,190z M165,190c-13.785,0-25-11.215-25-25 s11.215-25,25-25s25,11.215,25,25S178.785,190,165,190z M245,190c-13.785,0-25-11.215-25-25s11.215-25,25-25 c13.785,0,25,11.215,25,25S258.785,190,245,190z"></path></a></g></svg></svg></svg>