<svg version="1.1" xmlns="http://www.w3.org/2000/svg" xmlns:xlink="http://www.w3.org/1999/xlink" fill="transparent" x="0" y="0" width="350" height="350" preserveAspectRatio="xMinYMin slice"><style type="text/css">.links{fill:transparent;stroke: #E4CF37;}.links:hover{fill:#63D272; opacity:0.4;}</style><defs><g id="allt"><path id="t5363" d="M1122,1312 L1111,1311 C1100,1311 1114,1317 1105,1318 C1096,1319 1110,1312 1099,1312 L1089,1312 1089,1312 L1088,1321 C1088,1330 1092,1318 1093,1326 C1095,1334 1086,1324 1087,1334 L1089,1344 1089,1344 L1098,1343 C1108,1343 1095,1347 1103,1348 C1112,1350 1101,1341 1111,1342 L1122,1344 1122,1344 L1123,1334 C1125,1325 1112,1336 1112,1327 C1112,1319 1125,1332 1123,1322 L1122,1312"/></g><clipPath id="c" clipRule="evenodd" fill="transparent"><use href="#t5363"/></clipPath></defs><svg viewBox="1085 1310 41 41" preserveAspectRatio="xMinYMin meet"><svg width="4380" height="2430"><g><image crossorigin="anonymous" x="0" y="0" href="https://nftpuzzle.license-token.com/assets/completepuzzle.svg" width="100%" height="100%" /><g class="links"><use href="#t5363"/></g></g></svg><svg x="1111" y="1336" height="9%" width="9%" viewBox="0 0 330 330"><g><a xlink:href="https://nftpuzzle.license-token.com/" class="links"><title>See the most innovative NFT based token software licensing project</title><path fill="#E4CF37" id="more" d="M165,0C74.019,0,0,74.019,0,165s74.019,165,165,165s165-74.019,165-165S255.981,0,165,0z M85,190 c-13.785,0-25-11.215-25-25s11.215-25,25-25s25,11.215,25,25S98.785,190,85,190z M165,190c-13.785,0-25-11.215-25-25 s11.215-25,25-25s25,11.215,25,25S178.785,190,165,190z M245,190c-13.785,0-25-11.215-25-25s11.215-25,25-25 c13.785,0,25,11.215,25,25S258.785,190,245,190z"></path></a></g></svg></svg></svg>