<svg version="1.1" xmlns="http://www.w3.org/2000/svg" xmlns:xlink="http://www.w3.org/1999/xlink" fill="transparent" x="0" y="0" width="350" height="350" preserveAspectRatio="xMinYMin slice"><style type="text/css">.links{fill:transparent;stroke: #E4CF37;}.links:hover{fill:#63D272; opacity:0.4;}</style><defs><g id="allt"><path id="t5365" d="M1188,1312 L1178,1314 C1169,1316 1178,1307 1170,1305 C1163,1304 1174,1316 1164,1314 L1155,1312 1155,1312 L1155,1322 C1155,1332 1148,1318 1149,1327 C1151,1337 1156,1322 1155,1333 L1155,1344 1155,1344 L1165,1344 C1176,1344 1161,1337 1171,1338 C1181,1340 1166,1345 1177,1344 L1188,1344 1188,1344 L1186,1333 C1185,1322 1194,1338 1193,1328 C1192,1318 1188,1329 1188,1320 L1188,1312"/></g><clipPath id="c" clipRule="evenodd" fill="transparent"><use href="#t5365"/></clipPath></defs><svg viewBox="1147 1303 48 43" preserveAspectRatio="xMinYMin meet"><svg width="4380" height="2430"><g><image crossorigin="anonymous" x="0" y="0" href="https://nftpuzzle.license-token.com/assets/completepuzzle.svg" width="100%" height="100%" /><g class="links"><use href="#t5365"/></g></g></svg><svg x="1180" y="1331" height="9%" width="9%" viewBox="0 0 330 330"><g><a xlink:href="https://nftpuzzle.license-token.com/" class="links"><title>See the most innovative NFT based token software licensing project</title><path fill="#E4CF37" id="more" d="M165,0C74.019,0,0,74.019,0,165s74.019,165,165,165s165-74.019,165-165S255.981,0,165,0z M85,190 c-13.785,0-25-11.215-25-25s11.215-25,25-25s25,11.215,25,25S98.785,190,85,190z M165,190c-13.785,0-25-11.215-25-25 s11.215-25,25-25s25,11.215,25,25S178.785,190,165,190z M245,190c-13.785,0-25-11.215-25-25s11.215-25,25-25 c13.785,0,25,11.215,25,25S258.785,190,245,190z"></path></a></g></svg></svg></svg>