<svg version="1.1" xmlns="http://www.w3.org/2000/svg" xmlns:xlink="http://www.w3.org/1999/xlink" fill="transparent" x="0" y="0" width="350" height="350" preserveAspectRatio="xMinYMin slice"><style type="text/css">.links{fill:transparent;stroke: #E4CF37;}.links:hover{fill:#63D272; opacity:0.4;}</style><defs><g id="allt"><path id="t5371" d="M1386,1312 L1376,1310 C1366,1308 1378,1318 1368,1318 C1358,1318 1371,1312 1362,1312 L1353,1312 1353,1312 L1353,1320 C1353,1329 1345,1319 1345,1327 C1346,1336 1356,1326 1354,1335 L1353,1344 1353,1344 L1362,1344 C1371,1344 1360,1336 1369,1336 C1378,1337 1367,1347 1376,1345 L1386,1344 1386,1344 L1387,1334 C1389,1324 1380,1336 1381,1327 C1382,1318 1389,1330 1387,1321 L1386,1312"/></g><clipPath id="c" clipRule="evenodd" fill="transparent"><use href="#t5371"/></clipPath></defs><svg viewBox="1344 1307 46 41" preserveAspectRatio="xMinYMin meet"><svg width="4380" height="2430"><g><image crossorigin="anonymous" x="0" y="0" href="https://nftpuzzle.license-token.com/assets/completepuzzle.svg" width="100%" height="100%" /><g class="links"><use href="#t5371"/></g></g></svg><svg x="1375" y="1333" height="9%" width="9%" viewBox="0 0 330 330"><g><a xlink:href="https://nftpuzzle.license-token.com/" class="links"><title>See the most innovative NFT based token software licensing project</title><path fill="#E4CF37" id="more" d="M165,0C74.019,0,0,74.019,0,165s74.019,165,165,165s165-74.019,165-165S255.981,0,165,0z M85,190 c-13.785,0-25-11.215-25-25s11.215-25,25-25s25,11.215,25,25S98.785,190,85,190z M165,190c-13.785,0-25-11.215-25-25 s11.215-25,25-25s25,11.215,25,25S178.785,190,165,190z M245,190c-13.785,0-25-11.215-25-25s11.215-25,25-25 c13.785,0,25,11.215,25,25S258.785,190,245,190z"></path></a></g></svg></svg></svg>