<svg version="1.1" xmlns="http://www.w3.org/2000/svg" xmlns:xlink="http://www.w3.org/1999/xlink" fill="transparent" x="0" y="0" width="350" height="350" preserveAspectRatio="xMinYMin slice"><style type="text/css">.links{fill:transparent;stroke: #E4CF37;}.links:hover{fill:#63D272; opacity:0.4;}</style><defs><g id="allt"><path id="t5372" d="M1419,1312 L1408,1312 C1398,1313 1411,1308 1400,1308 C1390,1309 1406,1313 1396,1312 L1386,1312 1386,1312 L1387,1321 C1389,1330 1382,1318 1381,1327 C1380,1336 1389,1324 1387,1334 L1386,1344 1386,1344 L1395,1345 C1405,1347 1392,1340 1401,1339 C1410,1338 1399,1347 1409,1345 L1419,1344 1419,1344 L1420,1335 C1422,1326 1412,1338 1412,1329 C1412,1320 1421,1332 1420,1322 L1419,1312"/></g><clipPath id="c" clipRule="evenodd" fill="transparent"><use href="#t5372"/></clipPath></defs><svg viewBox="1379 1307 44 41" preserveAspectRatio="xMinYMin meet"><svg width="4380" height="2430"><g><image crossorigin="anonymous" x="0" y="0" href="https://nftpuzzle.license-token.com/assets/completepuzzle.svg" width="100%" height="100%" /><g class="links"><use href="#t5372"/></g></g></svg><svg x="1408" y="1333" height="9%" width="9%" viewBox="0 0 330 330"><g><a xlink:href="https://nftpuzzle.license-token.com/" class="links"><title>See the most innovative NFT based token software licensing project</title><path fill="#E4CF37" id="more" d="M165,0C74.019,0,0,74.019,0,165s74.019,165,165,165s165-74.019,165-165S255.981,0,165,0z M85,190 c-13.785,0-25-11.215-25-25s11.215-25,25-25s25,11.215,25,25S98.785,190,85,190z M165,190c-13.785,0-25-11.215-25-25 s11.215-25,25-25s25,11.215,25,25S178.785,190,165,190z M245,190c-13.785,0-25-11.215-25-25s11.215-25,25-25 c13.785,0,25,11.215,25,25S258.785,190,245,190z"></path></a></g></svg></svg></svg>