<svg version="1.1" xmlns="http://www.w3.org/2000/svg" xmlns:xlink="http://www.w3.org/1999/xlink" fill="transparent" x="0" y="0" width="350" height="350" preserveAspectRatio="xMinYMin slice"><style type="text/css">.links{fill:transparent;stroke: #E4CF37;}.links:hover{fill:#63D272; opacity:0.4;}</style><defs><g id="allt"><path id="t5375" d="M1518,1312 L1508,1312 C1499,1312 1511,1316 1500,1316 C1489,1316 1506,1312 1495,1312 L1485,1312 1485,1312 L1485,1322 C1485,1333 1481,1320 1480,1328 C1480,1336 1485,1323 1485,1333 L1485,1344 1485,1344 L1496,1344 C1507,1344 1493,1340 1501,1339 C1510,1339 1497,1344 1507,1344 L1518,1344 1518,1344 L1518,1334 C1518,1324 1524,1335 1524,1327 C1524,1320 1516,1332 1517,1322 L1518,1312"/></g><clipPath id="c" clipRule="evenodd" fill="transparent"><use href="#t5375"/></clipPath></defs><svg viewBox="1479 1311 46 34" preserveAspectRatio="xMinYMin meet"><svg width="4380" height="2430"><g><image crossorigin="anonymous" x="0" y="0" href="https://nftpuzzle.license-token.com/assets/completepuzzle.svg" width="100%" height="100%" /><g class="links"><use href="#t5375"/></g></g></svg><svg x="1510" y="1330" height="9%" width="9%" viewBox="0 0 330 330"><g><a xlink:href="https://nftpuzzle.license-token.com/" class="links"><title>See the most innovative NFT based token software licensing project</title><path fill="#E4CF37" id="more" d="M165,0C74.019,0,0,74.019,0,165s74.019,165,165,165s165-74.019,165-165S255.981,0,165,0z M85,190 c-13.785,0-25-11.215-25-25s11.215-25,25-25s25,11.215,25,25S98.785,190,85,190z M165,190c-13.785,0-25-11.215-25-25 s11.215-25,25-25s25,11.215,25,25S178.785,190,165,190z M245,190c-13.785,0-25-11.215-25-25s11.215-25,25-25 c13.785,0,25,11.215,25,25S258.785,190,245,190z"></path></a></g></svg></svg></svg>