<svg version="1.1" xmlns="http://www.w3.org/2000/svg" xmlns:xlink="http://www.w3.org/1999/xlink" fill="transparent" x="0" y="0" width="350" height="350" preserveAspectRatio="xMinYMin slice"><style type="text/css">.links{fill:transparent;stroke: #E4CF37;}.links:hover{fill:#63D272; opacity:0.4;}</style><defs><g id="allt"><path id="t5378" d="M1617,1312 L1606,1312 C1595,1312 1607,1303 1598,1303 C1589,1303 1602,1315 1593,1313 L1584,1312 1584,1312 L1585,1320 C1586,1329 1573,1317 1573,1327 C1573,1338 1584,1326 1584,1335 L1584,1344 1584,1344 L1593,1345 C1602,1346 1589,1334 1600,1333 C1611,1333 1598,1344 1607,1344 L1617,1344 1617,1344 L1616,1335 C1616,1326 1623,1336 1622,1327 C1622,1318 1617,1331 1617,1321 L1617,1312"/></g><clipPath id="c" clipRule="evenodd" fill="transparent"><use href="#t5378"/></clipPath></defs><svg viewBox="1572 1302 52 45" preserveAspectRatio="xMinYMin meet"><svg width="4380" height="2430"><g><image crossorigin="anonymous" x="0" y="0" href="https://nftpuzzle.license-token.com/assets/completepuzzle.svg" width="100%" height="100%" /><g class="links"><use href="#t5378"/></g></g></svg><svg x="1609" y="1332" height="9%" width="9%" viewBox="0 0 330 330"><g><a xlink:href="https://nftpuzzle.license-token.com/" class="links"><title>See the most innovative NFT based token software licensing project</title><path fill="#E4CF37" id="more" d="M165,0C74.019,0,0,74.019,0,165s74.019,165,165,165s165-74.019,165-165S255.981,0,165,0z M85,190 c-13.785,0-25-11.215-25-25s11.215-25,25-25s25,11.215,25,25S98.785,190,85,190z M165,190c-13.785,0-25-11.215-25-25 s11.215-25,25-25s25,11.215,25,25S178.785,190,165,190z M245,190c-13.785,0-25-11.215-25-25s11.215-25,25-25 c13.785,0,25,11.215,25,25S258.785,190,245,190z"></path></a></g></svg></svg></svg>