<svg version="1.1" xmlns="http://www.w3.org/2000/svg" xmlns:xlink="http://www.w3.org/1999/xlink" fill="transparent" x="0" y="0" width="350" height="350" preserveAspectRatio="xMinYMin slice"><style type="text/css">.links{fill:transparent;stroke: #E4CF37;}.links:hover{fill:#63D272; opacity:0.4;}</style><defs><g id="allt"><path id="t5379" d="M1650,1312 L1638,1312 C1627,1313 1641,1305 1631,1305 C1622,1305 1638,1312 1627,1312 L1617,1312 1617,1312 L1617,1321 C1617,1331 1622,1318 1622,1327 C1623,1336 1616,1326 1616,1335 L1617,1344 1617,1344 L1626,1344 C1636,1344 1623,1349 1632,1349 C1642,1350 1631,1343 1640,1343 L1650,1344 1650,1344 L1650,1333 C1651,1322 1644,1336 1645,1327 C1646,1318 1651,1329 1650,1320 L1650,1312"/></g><clipPath id="c" clipRule="evenodd" fill="transparent"><use href="#t5379"/></clipPath></defs><svg viewBox="1615 1304 37 47" preserveAspectRatio="xMinYMin meet"><svg width="4380" height="2430"><g><image crossorigin="anonymous" x="0" y="0" href="https://nftpuzzle.license-token.com/assets/completepuzzle.svg" width="100%" height="100%" /><g class="links"><use href="#t5379"/></g></g></svg><svg x="1637" y="1336" height="9%" width="9%" viewBox="0 0 330 330"><g><a xlink:href="https://nftpuzzle.license-token.com/" class="links"><title>See the most innovative NFT based token software licensing project</title><path fill="#E4CF37" id="more" d="M165,0C74.019,0,0,74.019,0,165s74.019,165,165,165s165-74.019,165-165S255.981,0,165,0z M85,190 c-13.785,0-25-11.215-25-25s11.215-25,25-25s25,11.215,25,25S98.785,190,85,190z M165,190c-13.785,0-25-11.215-25-25 s11.215-25,25-25s25,11.215,25,25S178.785,190,165,190z M245,190c-13.785,0-25-11.215-25-25s11.215-25,25-25 c13.785,0,25,11.215,25,25S258.785,190,245,190z"></path></a></g></svg></svg></svg>