<svg version="1.1" xmlns="http://www.w3.org/2000/svg" xmlns:xlink="http://www.w3.org/1999/xlink" fill="transparent" x="0" y="0" width="350" height="350" preserveAspectRatio="xMinYMin slice"><style type="text/css">.links{fill:transparent;stroke: #E4CF37;}.links:hover{fill:#63D272; opacity:0.4;}</style><defs><g id="allt"><path id="t5383" d="M1782,1312 L1771,1311 C1761,1311 1775,1304 1766,1303 C1758,1302 1767,1313 1758,1312 L1749,1312 1749,1312 L1750,1320 C1751,1329 1746,1318 1745,1327 C1744,1337 1751,1323 1750,1333 L1749,1344 1749,1344 L1758,1345 C1767,1346 1755,1341 1765,1340 C1775,1339 1760,1346 1771,1345 L1782,1344 1782,1344 L1781,1334 C1780,1324 1788,1336 1787,1326 C1786,1317 1780,1333 1781,1322 L1782,1312"/></g><clipPath id="c" clipRule="evenodd" fill="transparent"><use href="#t5383"/></clipPath></defs><svg viewBox="1743 1301 46 46" preserveAspectRatio="xMinYMin meet"><svg width="4380" height="2430"><g><image crossorigin="anonymous" x="0" y="0" href="https://nftpuzzle.license-token.com/assets/completepuzzle.svg" width="100%" height="100%" /><g class="links"><use href="#t5383"/></g></g></svg><svg x="1774" y="1332" height="9%" width="9%" viewBox="0 0 330 330"><g><a xlink:href="https://nftpuzzle.license-token.com/" class="links"><title>See the most innovative NFT based token software licensing project</title><path fill="#E4CF37" id="more" d="M165,0C74.019,0,0,74.019,0,165s74.019,165,165,165s165-74.019,165-165S255.981,0,165,0z M85,190 c-13.785,0-25-11.215-25-25s11.215-25,25-25s25,11.215,25,25S98.785,190,85,190z M165,190c-13.785,0-25-11.215-25-25 s11.215-25,25-25s25,11.215,25,25S178.785,190,165,190z M245,190c-13.785,0-25-11.215-25-25s11.215-25,25-25 c13.785,0,25,11.215,25,25S258.785,190,245,190z"></path></a></g></svg></svg></svg>