<svg version="1.1" xmlns="http://www.w3.org/2000/svg" xmlns:xlink="http://www.w3.org/1999/xlink" fill="transparent" x="0" y="0" width="350" height="350" preserveAspectRatio="xMinYMin slice"><style type="text/css">.links{fill:transparent;stroke: #E4CF37;}.links:hover{fill:#63D272; opacity:0.4;}</style><defs><g id="allt"><path id="t5385" d="M1848,1312 L1836,1312 C1825,1313 1842,1305 1832,1307 C1822,1309 1833,1312 1824,1312 L1815,1312 1815,1312 L1816,1322 C1817,1333 1809,1318 1810,1326 C1811,1335 1819,1325 1817,1334 L1815,1344 1815,1344 L1825,1345 C1836,1346 1821,1338 1830,1339 C1839,1340 1828,1348 1838,1346 L1848,1344 1848,1344 L1848,1334 C1848,1325 1851,1334 1851,1327 C1852,1320 1848,1330 1848,1321 L1848,1312"/></g><clipPath id="c" clipRule="evenodd" fill="transparent"><use href="#t5385"/></clipPath></defs><svg viewBox="1808 1304 45 45" preserveAspectRatio="xMinYMin meet"><svg width="4380" height="2430"><g><image crossorigin="anonymous" x="0" y="0" href="https://nftpuzzle.license-token.com/assets/completepuzzle.svg" width="100%" height="100%" /><g class="links"><use href="#t5385"/></g></g></svg><svg x="1838" y="1334" height="9%" width="9%" viewBox="0 0 330 330"><g><a xlink:href="https://nftpuzzle.license-token.com/" class="links"><title>See the most innovative NFT based token software licensing project</title><path fill="#E4CF37" id="more" d="M165,0C74.019,0,0,74.019,0,165s74.019,165,165,165s165-74.019,165-165S255.981,0,165,0z M85,190 c-13.785,0-25-11.215-25-25s11.215-25,25-25s25,11.215,25,25S98.785,190,85,190z M165,190c-13.785,0-25-11.215-25-25 s11.215-25,25-25s25,11.215,25,25S178.785,190,165,190z M245,190c-13.785,0-25-11.215-25-25s11.215-25,25-25 c13.785,0,25,11.215,25,25S258.785,190,245,190z"></path></a></g></svg></svg></svg>