<svg version="1.1" xmlns="http://www.w3.org/2000/svg" xmlns:xlink="http://www.w3.org/1999/xlink" fill="transparent" x="0" y="0" width="350" height="350" preserveAspectRatio="xMinYMin slice"><style type="text/css">.links{fill:transparent;stroke: #E4CF37;}.links:hover{fill:#63D272; opacity:0.4;}</style><defs><g id="allt"><path id="t5386" d="M1881,1312 L1871,1312 C1862,1312 1873,1301 1864,1301 C1855,1301 1866,1318 1857,1315 L1848,1312 1848,1312 L1848,1321 C1848,1330 1852,1320 1851,1327 C1851,1334 1848,1325 1848,1334 L1848,1344 1848,1344 L1857,1344 C1867,1344 1856,1348 1863,1347 C1871,1347 1861,1344 1871,1344 L1881,1344 1881,1344 L1882,1334 C1884,1324 1874,1337 1874,1327 C1874,1317 1885,1332 1883,1322 L1881,1312"/></g><clipPath id="c" clipRule="evenodd" fill="transparent"><use href="#t5386"/></clipPath></defs><svg viewBox="1847 1300 39 49" preserveAspectRatio="xMinYMin meet"><svg width="4380" height="2430"><g><image crossorigin="anonymous" x="0" y="0" href="https://nftpuzzle.license-token.com/assets/completepuzzle.svg" width="100%" height="100%" /><g class="links"><use href="#t5386"/></g></g></svg><svg x="1871" y="1334" height="9%" width="9%" viewBox="0 0 330 330"><g><a xlink:href="https://nftpuzzle.license-token.com/" class="links"><title>See the most innovative NFT based token software licensing project</title><path fill="#E4CF37" id="more" d="M165,0C74.019,0,0,74.019,0,165s74.019,165,165,165s165-74.019,165-165S255.981,0,165,0z M85,190 c-13.785,0-25-11.215-25-25s11.215-25,25-25s25,11.215,25,25S98.785,190,85,190z M165,190c-13.785,0-25-11.215-25-25 s11.215-25,25-25s25,11.215,25,25S178.785,190,165,190z M245,190c-13.785,0-25-11.215-25-25s11.215-25,25-25 c13.785,0,25,11.215,25,25S258.785,190,245,190z"></path></a></g></svg></svg></svg>