<svg version="1.1" xmlns="http://www.w3.org/2000/svg" xmlns:xlink="http://www.w3.org/1999/xlink" fill="transparent" x="0" y="0" width="350" height="350" preserveAspectRatio="xMinYMin slice"><style type="text/css">.links{fill:transparent;stroke: #E4CF37;}.links:hover{fill:#63D272; opacity:0.4;}</style><defs><g id="allt"><path id="t5387" d="M1914,1312 L1904,1312 C1894,1312 1905,1321 1896,1319 C1888,1317 1901,1312 1891,1312 L1881,1312 1881,1312 L1883,1322 C1885,1332 1874,1317 1874,1327 C1874,1337 1884,1324 1882,1334 L1881,1344 1881,1344 L1891,1346 C1902,1348 1886,1337 1896,1337 C1907,1337 1893,1347 1903,1345 L1914,1344 1914,1344 L1914,1334 C1914,1325 1909,1337 1906,1329 C1904,1321 1914,1331 1914,1321 L1914,1312"/></g><clipPath id="c" clipRule="evenodd" fill="transparent"><use href="#t5387"/></clipPath></defs><svg viewBox="1873 1311 42 38" preserveAspectRatio="xMinYMin meet"><svg width="4380" height="2430"><g><image crossorigin="anonymous" x="0" y="0" href="https://nftpuzzle.license-token.com/assets/completepuzzle.svg" width="100%" height="100%" /><g class="links"><use href="#t5387"/></g></g></svg><svg x="1900" y="1334" height="9%" width="9%" viewBox="0 0 330 330"><g><a xlink:href="https://nftpuzzle.license-token.com/" class="links"><title>See the most innovative NFT based token software licensing project</title><path fill="#E4CF37" id="more" d="M165,0C74.019,0,0,74.019,0,165s74.019,165,165,165s165-74.019,165-165S255.981,0,165,0z M85,190 c-13.785,0-25-11.215-25-25s11.215-25,25-25s25,11.215,25,25S98.785,190,85,190z M165,190c-13.785,0-25-11.215-25-25 s11.215-25,25-25s25,11.215,25,25S178.785,190,165,190z M245,190c-13.785,0-25-11.215-25-25s11.215-25,25-25 c13.785,0,25,11.215,25,25S258.785,190,245,190z"></path></a></g></svg></svg></svg>