<svg version="1.1" xmlns="http://www.w3.org/2000/svg" xmlns:xlink="http://www.w3.org/1999/xlink" fill="transparent" x="0" y="0" width="350" height="350" preserveAspectRatio="xMinYMin slice"><style type="text/css">.links{fill:transparent;stroke: #E4CF37;}.links:hover{fill:#63D272; opacity:0.4;}</style><defs><g id="allt"><path id="t5394" d="M2145,1312 L2135,1311 C2126,1311 2135,1315 2128,1315 C2121,1315 2130,1309 2121,1310 L2112,1312 2112,1312 L2113,1322 C2115,1332 2106,1319 2103,1326 C2100,1334 2117,1323 2114,1333 L2112,1344 2112,1344 L2122,1345 C2133,1347 2119,1338 2127,1335 C2135,1332 2123,1349 2134,1346 L2145,1344 2145,1344 L2145,1334 C2145,1324 2141,1335 2140,1326 C2140,1317 2148,1331 2146,1321 L2145,1312"/></g><clipPath id="c" clipRule="evenodd" fill="transparent"><use href="#t5394"/></clipPath></defs><svg viewBox="2099 1308 50 42" preserveAspectRatio="xMinYMin meet"><svg width="4380" height="2430"><g><image crossorigin="anonymous" x="0" y="0" href="https://nftpuzzle.license-token.com/assets/completepuzzle.svg" width="100%" height="100%" /><g class="links"><use href="#t5394"/></g></g></svg><svg x="2134" y="1335" height="9%" width="9%" viewBox="0 0 330 330"><g><a xlink:href="https://nftpuzzle.license-token.com/" class="links"><title>See the most innovative NFT based token software licensing project</title><path fill="#E4CF37" id="more" d="M165,0C74.019,0,0,74.019,0,165s74.019,165,165,165s165-74.019,165-165S255.981,0,165,0z M85,190 c-13.785,0-25-11.215-25-25s11.215-25,25-25s25,11.215,25,25S98.785,190,85,190z M165,190c-13.785,0-25-11.215-25-25 s11.215-25,25-25s25,11.215,25,25S178.785,190,165,190z M245,190c-13.785,0-25-11.215-25-25s11.215-25,25-25 c13.785,0,25,11.215,25,25S258.785,190,245,190z"></path></a></g></svg></svg></svg>