<svg version="1.1" xmlns="http://www.w3.org/2000/svg" xmlns:xlink="http://www.w3.org/1999/xlink" fill="transparent" x="0" y="0" width="350" height="350" preserveAspectRatio="xMinYMin slice"><style type="text/css">.links{fill:transparent;stroke: #E4CF37;}.links:hover{fill:#63D272; opacity:0.4;}</style><defs><g id="allt"><path id="t5401" d="M2376,1312 L2364,1312 C2353,1312 2368,1300 2359,1300 C2351,1300 2363,1312 2353,1312 L2343,1312 2343,1312 L2343,1321 C2344,1331 2340,1320 2340,1328 C2341,1336 2344,1323 2343,1333 L2343,1344 2343,1344 L2353,1344 C2363,1345 2351,1341 2359,1341 C2368,1342 2354,1345 2365,1344 L2376,1344 2376,1344 L2377,1334 C2378,1324 2369,1337 2369,1328 C2370,1319 2379,1333 2377,1322 L2376,1312"/></g><clipPath id="c" clipRule="evenodd" fill="transparent"><use href="#t5401"/></clipPath></defs><svg viewBox="2339 1299 41 47" preserveAspectRatio="xMinYMin meet"><svg width="4380" height="2430"><g><image crossorigin="anonymous" x="0" y="0" href="https://nftpuzzle.license-token.com/assets/completepuzzle.svg" width="100%" height="100%" /><g class="links"><use href="#t5401"/></g></g></svg><svg x="2365" y="1331" height="9%" width="9%" viewBox="0 0 330 330"><g><a xlink:href="https://nftpuzzle.license-token.com/" class="links"><title>See the most innovative NFT based token software licensing project</title><path fill="#E4CF37" id="more" d="M165,0C74.019,0,0,74.019,0,165s74.019,165,165,165s165-74.019,165-165S255.981,0,165,0z M85,190 c-13.785,0-25-11.215-25-25s11.215-25,25-25s25,11.215,25,25S98.785,190,85,190z M165,190c-13.785,0-25-11.215-25-25 s11.215-25,25-25s25,11.215,25,25S178.785,190,165,190z M245,190c-13.785,0-25-11.215-25-25s11.215-25,25-25 c13.785,0,25,11.215,25,25S258.785,190,245,190z"></path></a></g></svg></svg></svg>