<svg version="1.1" xmlns="http://www.w3.org/2000/svg" xmlns:xlink="http://www.w3.org/1999/xlink" fill="transparent" x="0" y="0" width="350" height="350" preserveAspectRatio="xMinYMin slice"><style type="text/css">.links{fill:transparent;stroke: #E4CF37;}.links:hover{fill:#63D272; opacity:0.4;}</style><defs><g id="allt"><path id="t5406" d="M2541,1312 L2531,1314 C2521,1316 2531,1305 2524,1304 C2517,1303 2528,1314 2518,1313 L2508,1312 2508,1312 L2508,1322 C2508,1333 2516,1317 2515,1326 C2514,1335 2504,1322 2506,1333 L2508,1344 2508,1344 L2518,1344 C2529,1344 2513,1352 2522,1351 C2532,1350 2518,1340 2529,1342 L2541,1344 2541,1344 L2541,1335 C2541,1326 2547,1335 2549,1327 C2551,1320 2538,1329 2539,1320 L2541,1312"/></g><clipPath id="c" clipRule="evenodd" fill="transparent"><use href="#t5406"/></clipPath></defs><svg viewBox="2503 1302 49 51" preserveAspectRatio="xMinYMin meet"><svg width="4380" height="2430"><g><image crossorigin="anonymous" x="0" y="0" href="https://nftpuzzle.license-token.com/assets/completepuzzle.svg" width="100%" height="100%" /><g class="links"><use href="#t5406"/></g></g></svg><svg x="2537" y="1338" height="9%" width="9%" viewBox="0 0 330 330"><g><a xlink:href="https://nftpuzzle.license-token.com/" class="links"><title>See the most innovative NFT based token software licensing project</title><path fill="#E4CF37" id="more" d="M165,0C74.019,0,0,74.019,0,165s74.019,165,165,165s165-74.019,165-165S255.981,0,165,0z M85,190 c-13.785,0-25-11.215-25-25s11.215-25,25-25s25,11.215,25,25S98.785,190,85,190z M165,190c-13.785,0-25-11.215-25-25 s11.215-25,25-25s25,11.215,25,25S178.785,190,165,190z M245,190c-13.785,0-25-11.215-25-25s11.215-25,25-25 c13.785,0,25,11.215,25,25S258.785,190,245,190z"></path></a></g></svg></svg></svg>