<svg version="1.1" xmlns="http://www.w3.org/2000/svg" xmlns:xlink="http://www.w3.org/1999/xlink" fill="transparent" x="0" y="0" width="350" height="350" preserveAspectRatio="xMinYMin slice"><style type="text/css">.links{fill:transparent;stroke: #E4CF37;}.links:hover{fill:#63D272; opacity:0.4;}</style><defs><g id="allt"><path id="t5413" d="M2772,1312 L2762,1311 C2752,1311 2765,1317 2755,1316 C2745,1315 2759,1309 2749,1310 L2739,1312 2739,1312 L2741,1321 C2743,1330 2728,1318 2729,1327 C2731,1337 2741,1322 2740,1333 L2739,1344 2739,1344 L2748,1346 C2758,1348 2745,1333 2755,1334 C2765,1336 2750,1346 2761,1345 L2772,1344 2772,1344 L2773,1335 C2774,1326 2766,1336 2763,1328 C2761,1320 2772,1331 2772,1321 L2772,1312"/></g><clipPath id="c" clipRule="evenodd" fill="transparent"><use href="#t5413"/></clipPath></defs><svg viewBox="2727 1308 48 41" preserveAspectRatio="xMinYMin meet"><svg width="4380" height="2430"><g><image crossorigin="anonymous" x="0" y="0" href="https://nftpuzzle.license-token.com/assets/completepuzzle.svg" width="100%" height="100%" /><g class="links"><use href="#t5413"/></g></g></svg><svg x="2760" y="1334" height="9%" width="9%" viewBox="0 0 330 330"><g><a xlink:href="https://nftpuzzle.license-token.com/" class="links"><title>See the most innovative NFT based token software licensing project</title><path fill="#E4CF37" id="more" d="M165,0C74.019,0,0,74.019,0,165s74.019,165,165,165s165-74.019,165-165S255.981,0,165,0z M85,190 c-13.785,0-25-11.215-25-25s11.215-25,25-25s25,11.215,25,25S98.785,190,85,190z M165,190c-13.785,0-25-11.215-25-25 s11.215-25,25-25s25,11.215,25,25S178.785,190,165,190z M245,190c-13.785,0-25-11.215-25-25s11.215-25,25-25 c13.785,0,25,11.215,25,25S258.785,190,245,190z"></path></a></g></svg></svg></svg>