<svg version="1.1" xmlns="http://www.w3.org/2000/svg" xmlns:xlink="http://www.w3.org/1999/xlink" fill="transparent" x="0" y="0" width="350" height="350" preserveAspectRatio="xMinYMin slice"><style type="text/css">.links{fill:transparent;stroke: #E4CF37;}.links:hover{fill:#63D272; opacity:0.4;}</style><defs><g id="allt"><path id="t5414" d="M2805,1312 L2795,1312 C2786,1313 2797,1304 2788,1304 C2779,1305 2790,1312 2781,1312 L2772,1312 2772,1312 L2772,1321 C2772,1331 2761,1320 2763,1328 C2766,1336 2774,1326 2773,1335 L2772,1344 2772,1344 L2781,1344 C2791,1344 2780,1333 2788,1335 C2797,1338 2786,1346 2795,1345 L2805,1344 2805,1344 L2805,1333 C2805,1322 2816,1334 2816,1325 C2816,1317 2801,1331 2803,1321 L2805,1312"/></g><clipPath id="c" clipRule="evenodd" fill="transparent"><use href="#t5414"/></clipPath></defs><svg viewBox="2760 1303 57 44" preserveAspectRatio="xMinYMin meet"><svg width="4380" height="2430"><g><image crossorigin="anonymous" x="0" y="0" href="https://nftpuzzle.license-token.com/assets/completepuzzle.svg" width="100%" height="100%" /><g class="links"><use href="#t5414"/></g></g></svg><svg x="2802" y="1332" height="9%" width="9%" viewBox="0 0 330 330"><g><a xlink:href="https://nftpuzzle.license-token.com/" class="links"><title>See the most innovative NFT based token software licensing project</title><path fill="#E4CF37" id="more" d="M165,0C74.019,0,0,74.019,0,165s74.019,165,165,165s165-74.019,165-165S255.981,0,165,0z M85,190 c-13.785,0-25-11.215-25-25s11.215-25,25-25s25,11.215,25,25S98.785,190,85,190z M165,190c-13.785,0-25-11.215-25-25 s11.215-25,25-25s25,11.215,25,25S178.785,190,165,190z M245,190c-13.785,0-25-11.215-25-25s11.215-25,25-25 c13.785,0,25,11.215,25,25S258.785,190,245,190z"></path></a></g></svg></svg></svg>