<svg version="1.1" xmlns="http://www.w3.org/2000/svg" xmlns:xlink="http://www.w3.org/1999/xlink" fill="transparent" x="0" y="0" width="350" height="350" preserveAspectRatio="xMinYMin slice"><style type="text/css">.links{fill:transparent;stroke: #E4CF37;}.links:hover{fill:#63D272; opacity:0.4;}</style><defs><g id="allt"><path id="t5426" d="M3201,1312 L3190,1312 C3179,1312 3191,1310 3182,1308 C3173,1307 3188,1312 3178,1312 L3168,1312 3168,1312 L3168,1321 C3168,1330 3158,1320 3159,1328 C3161,1336 3169,1326 3168,1335 L3168,1344 3168,1344 L3177,1344 C3187,1344 3176,1334 3184,1335 C3193,1337 3182,1345 3191,1344 L3201,1344 3201,1344 L3201,1334 C3201,1325 3204,1334 3204,1327 C3204,1321 3201,1330 3201,1321 L3201,1312"/></g><clipPath id="c" clipRule="evenodd" fill="transparent"><use href="#t5426"/></clipPath></defs><svg viewBox="3157 1306 48 40" preserveAspectRatio="xMinYMin meet"><svg width="4380" height="2430"><g><image crossorigin="anonymous" x="0" y="0" href="https://nftpuzzle.license-token.com/assets/completepuzzle.svg" width="100%" height="100%" /><g class="links"><use href="#t5426"/></g></g></svg><svg x="3190" y="1331" height="9%" width="9%" viewBox="0 0 330 330"><g><a xlink:href="https://nftpuzzle.license-token.com/" class="links"><title>See the most innovative NFT based token software licensing project</title><path fill="#E4CF37" id="more" d="M165,0C74.019,0,0,74.019,0,165s74.019,165,165,165s165-74.019,165-165S255.981,0,165,0z M85,190 c-13.785,0-25-11.215-25-25s11.215-25,25-25s25,11.215,25,25S98.785,190,85,190z M165,190c-13.785,0-25-11.215-25-25 s11.215-25,25-25s25,11.215,25,25S178.785,190,165,190z M245,190c-13.785,0-25-11.215-25-25s11.215-25,25-25 c13.785,0,25,11.215,25,25S258.785,190,245,190z"></path></a></g></svg></svg></svg>