<svg version="1.1" xmlns="http://www.w3.org/2000/svg" xmlns:xlink="http://www.w3.org/1999/xlink" fill="transparent" x="0" y="0" width="350" height="350" preserveAspectRatio="xMinYMin slice"><style type="text/css">.links{fill:transparent;stroke: #E4CF37;}.links:hover{fill:#63D272; opacity:0.4;}</style><defs><g id="allt"><path id="t5430" d="M3333,1312 L3323,1313 C3313,1314 3328,1302 3316,1302 C3304,1303 3319,1312 3309,1312 L3300,1312 3300,1312 L3298,1322 C3297,1332 3307,1317 3306,1327 C3306,1337 3300,1322 3300,1333 L3300,1344 3300,1344 L3310,1342 C3321,1341 3305,1351 3315,1350 C3326,1350 3310,1344 3321,1344 L3333,1344 3333,1344 L3332,1333 C3332,1323 3336,1337 3335,1328 C3335,1320 3332,1329 3332,1320 L3333,1312"/></g><clipPath id="c" clipRule="evenodd" fill="transparent"><use href="#t5430"/></clipPath></defs><svg viewBox="3296 1301 41 51" preserveAspectRatio="xMinYMin meet"><svg width="4380" height="2430"><g><image crossorigin="anonymous" x="0" y="0" href="https://nftpuzzle.license-token.com/assets/completepuzzle.svg" width="100%" height="100%" /><g class="links"><use href="#t5430"/></g></g></svg><svg x="3322" y="1337" height="9%" width="9%" viewBox="0 0 330 330"><g><a xlink:href="https://nftpuzzle.license-token.com/" class="links"><title>See the most innovative NFT based token software licensing project</title><path fill="#E4CF37" id="more" d="M165,0C74.019,0,0,74.019,0,165s74.019,165,165,165s165-74.019,165-165S255.981,0,165,0z M85,190 c-13.785,0-25-11.215-25-25s11.215-25,25-25s25,11.215,25,25S98.785,190,85,190z M165,190c-13.785,0-25-11.215-25-25 s11.215-25,25-25s25,11.215,25,25S178.785,190,165,190z M245,190c-13.785,0-25-11.215-25-25s11.215-25,25-25 c13.785,0,25,11.215,25,25S258.785,190,245,190z"></path></a></g></svg></svg></svg>