<svg version="1.1" xmlns="http://www.w3.org/2000/svg" xmlns:xlink="http://www.w3.org/1999/xlink" fill="transparent" x="0" y="0" width="350" height="350" preserveAspectRatio="xMinYMin slice"><style type="text/css">.links{fill:transparent;stroke: #E4CF37;}.links:hover{fill:#63D272; opacity:0.4;}</style><defs><g id="allt"><path id="t5438" d="M3597,1312 L3587,1312 C3578,1312 3587,1314 3577,1315 C3568,1316 3585,1312 3574,1312 L3564,1312 3564,1312 L3564,1321 C3565,1330 3558,1316 3558,1326 C3558,1337 3567,1322 3565,1333 L3564,1344 3564,1344 L3573,1344 C3582,1345 3568,1338 3579,1338 C3590,1338 3575,1347 3586,1345 L3597,1344 3597,1344 L3597,1334 C3597,1324 3592,1335 3593,1327 C3594,1320 3600,1331 3598,1321 L3597,1312"/></g><clipPath id="c" clipRule="evenodd" fill="transparent"><use href="#t5438"/></clipPath></defs><svg viewBox="3557 1311 44 37" preserveAspectRatio="xMinYMin meet"><svg width="4380" height="2430"><g><image crossorigin="anonymous" x="0" y="0" href="https://nftpuzzle.license-token.com/assets/completepuzzle.svg" width="100%" height="100%" /><g class="links"><use href="#t5438"/></g></g></svg><svg x="3586" y="1333" height="9%" width="9%" viewBox="0 0 330 330"><g><a xlink:href="https://nftpuzzle.license-token.com/" class="links"><title>See the most innovative NFT based token software licensing project</title><path fill="#E4CF37" id="more" d="M165,0C74.019,0,0,74.019,0,165s74.019,165,165,165s165-74.019,165-165S255.981,0,165,0z M85,190 c-13.785,0-25-11.215-25-25s11.215-25,25-25s25,11.215,25,25S98.785,190,85,190z M165,190c-13.785,0-25-11.215-25-25 s11.215-25,25-25s25,11.215,25,25S178.785,190,165,190z M245,190c-13.785,0-25-11.215-25-25s11.215-25,25-25 c13.785,0,25,11.215,25,25S258.785,190,245,190z"></path></a></g></svg></svg></svg>