<svg version="1.1" xmlns="http://www.w3.org/2000/svg" xmlns:xlink="http://www.w3.org/1999/xlink" fill="transparent" x="0" y="0" width="350" height="350" preserveAspectRatio="xMinYMin slice"><style type="text/css">.links{fill:transparent;stroke: #E4CF37;}.links:hover{fill:#63D272; opacity:0.4;}</style><defs><g id="allt"><path id="t5444" d="M3795,1312 L3785,1313 C3776,1315 3789,1306 3778,1306 C3767,1307 3782,1314 3772,1313 L3762,1312 3762,1312 L3762,1322 C3763,1332 3755,1320 3753,1329 C3751,1338 3762,1324 3762,1334 L3762,1344 3762,1344 L3772,1344 C3783,1345 3771,1337 3780,1335 C3789,1333 3775,1344 3785,1344 L3795,1344 3795,1344 L3796,1334 C3797,1324 3791,1336 3791,1328 C3791,1321 3795,1330 3795,1321 L3795,1312"/></g><clipPath id="c" clipRule="evenodd" fill="transparent"><use href="#t5444"/></clipPath></defs><svg viewBox="3750 1305 48 41" preserveAspectRatio="xMinYMin meet"><svg width="4380" height="2430"><g><image crossorigin="anonymous" x="0" y="0" href="https://nftpuzzle.license-token.com/assets/completepuzzle.svg" width="100%" height="100%" /><g class="links"><use href="#t5444"/></g></g></svg><svg x="3783" y="1331" height="9%" width="9%" viewBox="0 0 330 330"><g><a xlink:href="https://nftpuzzle.license-token.com/" class="links"><title>See the most innovative NFT based token software licensing project</title><path fill="#E4CF37" id="more" d="M165,0C74.019,0,0,74.019,0,165s74.019,165,165,165s165-74.019,165-165S255.981,0,165,0z M85,190 c-13.785,0-25-11.215-25-25s11.215-25,25-25s25,11.215,25,25S98.785,190,85,190z M165,190c-13.785,0-25-11.215-25-25 s11.215-25,25-25s25,11.215,25,25S178.785,190,165,190z M245,190c-13.785,0-25-11.215-25-25s11.215-25,25-25 c13.785,0,25,11.215,25,25S258.785,190,245,190z"></path></a></g></svg></svg></svg>