<svg version="1.1" xmlns="http://www.w3.org/2000/svg" xmlns:xlink="http://www.w3.org/1999/xlink" fill="transparent" x="0" y="0" width="350" height="350" preserveAspectRatio="xMinYMin slice"><style type="text/css">.links{fill:transparent;stroke: #E4CF37;}.links:hover{fill:#63D272; opacity:0.4;}</style><defs><g id="allt"><path id="t5447" d="M3894,1312 L3882,1313 C3871,1314 3886,1304 3876,1305 C3866,1307 3881,1315 3871,1313 L3861,1312 3861,1312 L3863,1322 C3865,1332 3855,1319 3855,1328 C3856,1338 3863,1326 3862,1335 L3861,1344 3861,1344 L3871,1346 C3881,1348 3868,1338 3878,1338 C3888,1339 3875,1346 3884,1345 L3894,1344 3894,1344 L3894,1334 C3894,1325 3903,1334 3903,1327 C3904,1320 3889,1331 3891,1321 L3894,1312"/></g><clipPath id="c" clipRule="evenodd" fill="transparent"><use href="#t5447"/></clipPath></defs><svg viewBox="3854 1303 51 46" preserveAspectRatio="xMinYMin meet"><svg width="4380" height="2430"><g><image crossorigin="anonymous" x="0" y="0" href="https://nftpuzzle.license-token.com/assets/completepuzzle.svg" width="100%" height="100%" /><g class="links"><use href="#t5447"/></g></g></svg><svg x="3890" y="1334" height="9%" width="9%" viewBox="0 0 330 330"><g><a xlink:href="https://nftpuzzle.license-token.com/" class="links"><title>See the most innovative NFT based token software licensing project</title><path fill="#E4CF37" id="more" d="M165,0C74.019,0,0,74.019,0,165s74.019,165,165,165s165-74.019,165-165S255.981,0,165,0z M85,190 c-13.785,0-25-11.215-25-25s11.215-25,25-25s25,11.215,25,25S98.785,190,85,190z M165,190c-13.785,0-25-11.215-25-25 s11.215-25,25-25s25,11.215,25,25S178.785,190,165,190z M245,190c-13.785,0-25-11.215-25-25s11.215-25,25-25 c13.785,0,25,11.215,25,25S258.785,190,245,190z"></path></a></g></svg></svg></svg>