<svg version="1.1" xmlns="http://www.w3.org/2000/svg" xmlns:xlink="http://www.w3.org/1999/xlink" fill="transparent" x="0" y="0" width="350" height="350" preserveAspectRatio="xMinYMin slice"><style type="text/css">.links{fill:transparent;stroke: #E4CF37;}.links:hover{fill:#63D272; opacity:0.4;}</style><defs><g id="allt"><path id="t5463" d="M132,1344 L121,1345 C111,1346 125,1332 115,1334 C106,1337 120,1348 109,1346 L99,1344 99,1344 L99,1353 C99,1362 92,1350 92,1359 C92,1368 102,1355 100,1365 L99,1376 99,1376 L108,1376 C117,1376 105,1369 114,1369 C124,1369 111,1379 121,1377 L132,1376 132,1376 L130,1366 C129,1357 139,1370 139,1360 C140,1351 132,1362 132,1353 L132,1344"/></g><clipPath id="c" clipRule="evenodd" fill="transparent"><use href="#t5463"/></clipPath></defs><svg viewBox="91 1331 50 49" preserveAspectRatio="xMinYMin meet"><svg width="4380" height="2430"><g><image crossorigin="anonymous" x="0" y="0" href="https://nftpuzzle.license-token.com/assets/completepuzzle.svg" width="100%" height="100%" /><g class="links"><use href="#t5463"/></g></g></svg><svg x="126" y="1365" height="9%" width="9%" viewBox="0 0 330 330"><g><a xlink:href="https://nftpuzzle.license-token.com/" class="links"><title>See the most innovative NFT based token software licensing project</title><path fill="#E4CF37" id="more" d="M165,0C74.019,0,0,74.019,0,165s74.019,165,165,165s165-74.019,165-165S255.981,0,165,0z M85,190 c-13.785,0-25-11.215-25-25s11.215-25,25-25s25,11.215,25,25S98.785,190,85,190z M165,190c-13.785,0-25-11.215-25-25 s11.215-25,25-25s25,11.215,25,25S178.785,190,165,190z M245,190c-13.785,0-25-11.215-25-25s11.215-25,25-25 c13.785,0,25,11.215,25,25S258.785,190,245,190z"></path></a></g></svg></svg></svg>