<svg version="1.1" xmlns="http://www.w3.org/2000/svg" xmlns:xlink="http://www.w3.org/1999/xlink" fill="transparent" x="0" y="0" width="350" height="350" preserveAspectRatio="xMinYMin slice"><style type="text/css">.links{fill:transparent;stroke: #E4CF37;}.links:hover{fill:#63D272; opacity:0.4;}</style><defs><g id="allt"><path id="t5467" d="M264,1344 L254,1344 C244,1345 254,1340 245,1337 C236,1335 251,1344 241,1344 L231,1344 231,1344 L231,1353 C231,1362 240,1351 240,1360 C240,1369 227,1358 229,1367 L231,1376 231,1376 L240,1376 C250,1376 238,1385 247,1384 C257,1384 245,1372 254,1374 L264,1376 264,1376 L265,1365 C267,1354 256,1370 257,1361 C259,1352 264,1365 264,1354 L264,1344"/></g><clipPath id="c" clipRule="evenodd" fill="transparent"><use href="#t5467"/></clipPath></defs><svg viewBox="226 1334 42 52" preserveAspectRatio="xMinYMin meet"><svg width="4380" height="2430"><g><image crossorigin="anonymous" x="0" y="0" href="https://nftpuzzle.license-token.com/assets/completepuzzle.svg" width="100%" height="100%" /><g class="links"><use href="#t5467"/></g></g></svg><svg x="253" y="1371" height="9%" width="9%" viewBox="0 0 330 330"><g><a xlink:href="https://nftpuzzle.license-token.com/" class="links"><title>See the most innovative NFT based token software licensing project</title><path fill="#E4CF37" id="more" d="M165,0C74.019,0,0,74.019,0,165s74.019,165,165,165s165-74.019,165-165S255.981,0,165,0z M85,190 c-13.785,0-25-11.215-25-25s11.215-25,25-25s25,11.215,25,25S98.785,190,85,190z M165,190c-13.785,0-25-11.215-25-25 s11.215-25,25-25s25,11.215,25,25S178.785,190,165,190z M245,190c-13.785,0-25-11.215-25-25s11.215-25,25-25 c13.785,0,25,11.215,25,25S258.785,190,245,190z"></path></a></g></svg></svg></svg>