<svg version="1.1" xmlns="http://www.w3.org/2000/svg" xmlns:xlink="http://www.w3.org/1999/xlink" fill="transparent" x="0" y="0" width="350" height="350" preserveAspectRatio="xMinYMin slice"><style type="text/css">.links{fill:transparent;stroke: #E4CF37;}.links:hover{fill:#63D272; opacity:0.4;}</style><defs><g id="allt"><path id="t5470" d="M363,1344 L353,1344 C343,1345 356,1340 347,1340 C339,1341 351,1344 340,1344 L330,1344 330,1344 L329,1353 C328,1362 338,1352 338,1360 C339,1369 330,1354 330,1365 L330,1376 330,1376 L339,1375 C349,1374 338,1384 347,1384 C356,1384 341,1376 352,1376 L363,1376 363,1376 L363,1366 C364,1356 355,1367 356,1359 C357,1351 367,1363 365,1353 L363,1344"/></g><clipPath id="c" clipRule="evenodd" fill="transparent"><use href="#t5470"/></clipPath></defs><svg viewBox="327 1339 41 46" preserveAspectRatio="xMinYMin meet"><svg width="4380" height="2430"><g><image crossorigin="anonymous" x="0" y="0" href="https://nftpuzzle.license-token.com/assets/completepuzzle.svg" width="100%" height="100%" /><g class="links"><use href="#t5470"/></g></g></svg><svg x="353" y="1370" height="9%" width="9%" viewBox="0 0 330 330"><g><a xlink:href="https://nftpuzzle.license-token.com/" class="links"><title>See the most innovative NFT based token software licensing project</title><path fill="#E4CF37" id="more" d="M165,0C74.019,0,0,74.019,0,165s74.019,165,165,165s165-74.019,165-165S255.981,0,165,0z M85,190 c-13.785,0-25-11.215-25-25s11.215-25,25-25s25,11.215,25,25S98.785,190,85,190z M165,190c-13.785,0-25-11.215-25-25 s11.215-25,25-25s25,11.215,25,25S178.785,190,165,190z M245,190c-13.785,0-25-11.215-25-25s11.215-25,25-25 c13.785,0,25,11.215,25,25S258.785,190,245,190z"></path></a></g></svg></svg></svg>