<svg version="1.1" xmlns="http://www.w3.org/2000/svg" xmlns:xlink="http://www.w3.org/1999/xlink" fill="transparent" x="0" y="0" width="350" height="350" preserveAspectRatio="xMinYMin slice"><style type="text/css">.links{fill:transparent;stroke: #E4CF37;}.links:hover{fill:#63D272; opacity:0.4;}</style><defs><g id="allt"><path id="t5472" d="M429,1344 L418,1344 C407,1344 421,1341 411,1339 C401,1337 416,1346 406,1345 L396,1344 396,1344 L397,1352 C399,1361 387,1349 387,1358 C388,1368 397,1357 396,1366 L396,1376 396,1376 L405,1377 C414,1379 401,1368 411,1368 C421,1368 409,1377 419,1376 L429,1376 429,1376 L430,1366 C431,1356 422,1366 421,1359 C421,1353 429,1363 429,1353 L429,1344"/></g><clipPath id="c" clipRule="evenodd" fill="transparent"><use href="#t5472"/></clipPath></defs><svg viewBox="386 1336 46 44" preserveAspectRatio="xMinYMin meet"><svg width="4380" height="2430"><g><image crossorigin="anonymous" x="0" y="0" href="https://nftpuzzle.license-token.com/assets/completepuzzle.svg" width="100%" height="100%" /><g class="links"><use href="#t5472"/></g></g></svg><svg x="417" y="1365" height="9%" width="9%" viewBox="0 0 330 330"><g><a xlink:href="https://nftpuzzle.license-token.com/" class="links"><title>See the most innovative NFT based token software licensing project</title><path fill="#E4CF37" id="more" d="M165,0C74.019,0,0,74.019,0,165s74.019,165,165,165s165-74.019,165-165S255.981,0,165,0z M85,190 c-13.785,0-25-11.215-25-25s11.215-25,25-25s25,11.215,25,25S98.785,190,85,190z M165,190c-13.785,0-25-11.215-25-25 s11.215-25,25-25s25,11.215,25,25S178.785,190,165,190z M245,190c-13.785,0-25-11.215-25-25s11.215-25,25-25 c13.785,0,25,11.215,25,25S258.785,190,245,190z"></path></a></g></svg></svg></svg>