<svg version="1.1" xmlns="http://www.w3.org/2000/svg" xmlns:xlink="http://www.w3.org/1999/xlink" fill="transparent" x="0" y="0" width="350" height="350" preserveAspectRatio="xMinYMin slice"><style type="text/css">.links{fill:transparent;stroke: #E4CF37;}.links:hover{fill:#63D272; opacity:0.4;}</style><defs><g id="allt"><path id="t5481" d="M726,1344 L716,1345 C707,1346 718,1335 709,1335 C701,1336 712,1345 702,1344 L693,1344 693,1344 L693,1352 C694,1361 688,1349 688,1360 C688,1371 693,1354 693,1365 L693,1376 693,1376 L702,1376 C711,1377 698,1371 709,1371 C721,1371 703,1376 714,1376 L726,1376 726,1376 L725,1365 C725,1354 732,1367 730,1359 C729,1352 726,1365 726,1354 L726,1344"/></g><clipPath id="c" clipRule="evenodd" fill="transparent"><use href="#t5481"/></clipPath></defs><svg viewBox="687 1334 46 44" preserveAspectRatio="xMinYMin meet"><svg width="4380" height="2430"><g><image crossorigin="anonymous" x="0" y="0" href="https://nftpuzzle.license-token.com/assets/completepuzzle.svg" width="100%" height="100%" /><g class="links"><use href="#t5481"/></g></g></svg><svg x="718" y="1363" height="9%" width="9%" viewBox="0 0 330 330"><g><a xlink:href="https://nftpuzzle.license-token.com/" class="links"><title>See the most innovative NFT based token software licensing project</title><path fill="#E4CF37" id="more" d="M165,0C74.019,0,0,74.019,0,165s74.019,165,165,165s165-74.019,165-165S255.981,0,165,0z M85,190 c-13.785,0-25-11.215-25-25s11.215-25,25-25s25,11.215,25,25S98.785,190,85,190z M165,190c-13.785,0-25-11.215-25-25 s11.215-25,25-25s25,11.215,25,25S178.785,190,165,190z M245,190c-13.785,0-25-11.215-25-25s11.215-25,25-25 c13.785,0,25,11.215,25,25S258.785,190,245,190z"></path></a></g></svg></svg></svg>