<svg version="1.1" xmlns="http://www.w3.org/2000/svg" xmlns:xlink="http://www.w3.org/1999/xlink" fill="transparent" x="0" y="0" width="350" height="350" preserveAspectRatio="xMinYMin slice"><style type="text/css">.links{fill:transparent;stroke: #E4CF37;}.links:hover{fill:#63D272; opacity:0.4;}</style><defs><g id="allt"><path id="t5482" d="M759,1344 L749,1345 C740,1347 752,1335 742,1335 C733,1336 745,1346 735,1345 L726,1344 726,1344 L726,1354 C726,1365 729,1352 730,1359 C732,1367 725,1354 725,1365 L726,1376 726,1376 L737,1376 C748,1376 734,1379 742,1380 C750,1382 736,1375 747,1375 L759,1376 759,1376 L759,1366 C759,1356 755,1367 754,1359 C754,1352 760,1364 759,1354 L759,1344"/></g><clipPath id="c" clipRule="evenodd" fill="transparent"><use href="#t5482"/></clipPath></defs><svg viewBox="724 1334 37 49" preserveAspectRatio="xMinYMin meet"><svg width="4380" height="2430"><g><image crossorigin="anonymous" x="0" y="0" href="https://nftpuzzle.license-token.com/assets/completepuzzle.svg" width="100%" height="100%" /><g class="links"><use href="#t5482"/></g></g></svg><svg x="746" y="1368" height="9%" width="9%" viewBox="0 0 330 330"><g><a xlink:href="https://nftpuzzle.license-token.com/" class="links"><title>See the most innovative NFT based token software licensing project</title><path fill="#E4CF37" id="more" d="M165,0C74.019,0,0,74.019,0,165s74.019,165,165,165s165-74.019,165-165S255.981,0,165,0z M85,190 c-13.785,0-25-11.215-25-25s11.215-25,25-25s25,11.215,25,25S98.785,190,85,190z M165,190c-13.785,0-25-11.215-25-25 s11.215-25,25-25s25,11.215,25,25S178.785,190,165,190z M245,190c-13.785,0-25-11.215-25-25s11.215-25,25-25 c13.785,0,25,11.215,25,25S258.785,190,245,190z"></path></a></g></svg></svg></svg>