<svg version="1.1" xmlns="http://www.w3.org/2000/svg" xmlns:xlink="http://www.w3.org/1999/xlink" fill="transparent" x="0" y="0" width="350" height="350" preserveAspectRatio="xMinYMin slice"><style type="text/css">.links{fill:transparent;stroke: #E4CF37;}.links:hover{fill:#63D272; opacity:0.4;}</style><defs><g id="allt"><path id="t5490" d="M1023,1344 L1012,1344 C1001,1345 1015,1339 1005,1339 C995,1340 1009,1344 999,1344 L990,1344 990,1344 L990,1353 C990,1363 988,1353 987,1361 C987,1369 990,1354 990,1365 L990,1376 990,1376 L1000,1376 C1010,1376 999,1374 1007,1373 C1016,1373 1000,1376 1011,1376 L1023,1376 1023,1376 L1024,1366 C1025,1357 1019,1366 1018,1358 C1018,1350 1025,1364 1024,1354 L1023,1344"/></g><clipPath id="c" clipRule="evenodd" fill="transparent"><use href="#t5490"/></clipPath></defs><svg viewBox="986 1338 40 39" preserveAspectRatio="xMinYMin meet"><svg width="4380" height="2430"><g><image crossorigin="anonymous" x="0" y="0" href="https://nftpuzzle.license-token.com/assets/completepuzzle.svg" width="100%" height="100%" /><g class="links"><use href="#t5490"/></g></g></svg><svg x="1011" y="1362" height="9%" width="9%" viewBox="0 0 330 330"><g><a xlink:href="https://nftpuzzle.license-token.com/" class="links"><title>See the most innovative NFT based token software licensing project</title><path fill="#E4CF37" id="more" d="M165,0C74.019,0,0,74.019,0,165s74.019,165,165,165s165-74.019,165-165S255.981,0,165,0z M85,190 c-13.785,0-25-11.215-25-25s11.215-25,25-25s25,11.215,25,25S98.785,190,85,190z M165,190c-13.785,0-25-11.215-25-25 s11.215-25,25-25s25,11.215,25,25S178.785,190,165,190z M245,190c-13.785,0-25-11.215-25-25s11.215-25,25-25 c13.785,0,25,11.215,25,25S258.785,190,245,190z"></path></a></g></svg></svg></svg>