<svg version="1.1" xmlns="http://www.w3.org/2000/svg" xmlns:xlink="http://www.w3.org/1999/xlink" fill="transparent" x="0" y="0" width="350" height="350" preserveAspectRatio="xMinYMin slice"><style type="text/css">.links{fill:transparent;stroke: #E4CF37;}.links:hover{fill:#63D272; opacity:0.4;}</style><defs><g id="allt"><path id="t5492" d="M1089,1344 L1078,1344 C1068,1345 1083,1337 1071,1337 C1060,1338 1078,1345 1067,1344 L1056,1344 1056,1344 L1056,1354 C1056,1364 1045,1352 1047,1361 C1050,1370 1060,1356 1058,1366 L1056,1376 1056,1376 L1066,1376 C1077,1376 1064,1365 1073,1367 C1083,1370 1069,1380 1079,1378 L1089,1376 1089,1376 L1087,1367 C1086,1358 1094,1367 1094,1359 C1095,1351 1089,1363 1089,1353 L1089,1344"/></g><clipPath id="c" clipRule="evenodd" fill="transparent"><use href="#t5492"/></clipPath></defs><svg viewBox="1044 1336 52 45" preserveAspectRatio="xMinYMin meet"><svg width="4380" height="2430"><g><image crossorigin="anonymous" x="0" y="0" href="https://nftpuzzle.license-token.com/assets/completepuzzle.svg" width="100%" height="100%" /><g class="links"><use href="#t5492"/></g></g></svg><svg x="1081" y="1366" height="9%" width="9%" viewBox="0 0 330 330"><g><a xlink:href="https://nftpuzzle.license-token.com/" class="links"><title>See the most innovative NFT based token software licensing project</title><path fill="#E4CF37" id="more" d="M165,0C74.019,0,0,74.019,0,165s74.019,165,165,165s165-74.019,165-165S255.981,0,165,0z M85,190 c-13.785,0-25-11.215-25-25s11.215-25,25-25s25,11.215,25,25S98.785,190,85,190z M165,190c-13.785,0-25-11.215-25-25 s11.215-25,25-25s25,11.215,25,25S178.785,190,165,190z M245,190c-13.785,0-25-11.215-25-25s11.215-25,25-25 c13.785,0,25,11.215,25,25S258.785,190,245,190z"></path></a></g></svg></svg></svg>