<svg version="1.1" xmlns="http://www.w3.org/2000/svg" xmlns:xlink="http://www.w3.org/1999/xlink" fill="transparent" x="0" y="0" width="350" height="350" preserveAspectRatio="xMinYMin slice"><style type="text/css">.links{fill:transparent;stroke: #E4CF37;}.links:hover{fill:#63D272; opacity:0.4;}</style><defs><g id="allt"><path id="t5497" d="M1254,1344 L1243,1344 C1232,1344 1247,1350 1237,1351 C1228,1352 1239,1341 1230,1342 L1221,1344 1221,1344 L1219,1353 C1217,1362 1229,1350 1229,1358 C1230,1367 1219,1357 1220,1366 L1221,1376 1221,1376 L1230,1374 C1240,1372 1227,1384 1236,1384 C1245,1385 1235,1374 1244,1375 L1254,1376 1254,1376 L1255,1365 C1256,1354 1250,1368 1248,1359 C1246,1350 1255,1362 1254,1353 L1254,1344"/></g><clipPath id="c" clipRule="evenodd" fill="transparent"><use href="#t5497"/></clipPath></defs><svg viewBox="1216 1340 41 46" preserveAspectRatio="xMinYMin meet"><svg width="4380" height="2430"><g><image crossorigin="anonymous" x="0" y="0" href="https://nftpuzzle.license-token.com/assets/completepuzzle.svg" width="100%" height="100%" /><g class="links"><use href="#t5497"/></g></g></svg><svg x="1242" y="1371" height="9%" width="9%" viewBox="0 0 330 330"><g><a xlink:href="https://nftpuzzle.license-token.com/" class="links"><title>See the most innovative NFT based token software licensing project</title><path fill="#E4CF37" id="more" d="M165,0C74.019,0,0,74.019,0,165s74.019,165,165,165s165-74.019,165-165S255.981,0,165,0z M85,190 c-13.785,0-25-11.215-25-25s11.215-25,25-25s25,11.215,25,25S98.785,190,85,190z M165,190c-13.785,0-25-11.215-25-25 s11.215-25,25-25s25,11.215,25,25S178.785,190,165,190z M245,190c-13.785,0-25-11.215-25-25s11.215-25,25-25 c13.785,0,25,11.215,25,25S258.785,190,245,190z"></path></a></g></svg></svg></svg>