<svg version="1.1" xmlns="http://www.w3.org/2000/svg" xmlns:xlink="http://www.w3.org/1999/xlink" fill="transparent" x="0" y="0" width="350" height="350" preserveAspectRatio="xMinYMin slice"><style type="text/css">.links{fill:transparent;stroke: #E4CF37;}.links:hover{fill:#63D272; opacity:0.4;}</style><defs><g id="allt"><path id="t5500" d="M1353,1344 L1343,1343 C1333,1342 1343,1346 1334,1347 C1326,1348 1341,1344 1330,1344 L1320,1344 1320,1344 L1320,1352 C1320,1361 1324,1352 1323,1359 C1323,1367 1320,1357 1320,1366 L1320,1376 1320,1376 L1329,1376 C1338,1376 1329,1380 1336,1379 C1344,1379 1333,1376 1343,1376 L1353,1376 1353,1376 L1353,1365 C1353,1354 1346,1369 1346,1359 C1347,1349 1355,1363 1354,1353 L1353,1344"/></g><clipPath id="c" clipRule="evenodd" fill="transparent"><use href="#t5500"/></clipPath></defs><svg viewBox="1319 1341 37 40" preserveAspectRatio="xMinYMin meet"><svg width="4380" height="2430"><g><image crossorigin="anonymous" x="0" y="0" href="https://nftpuzzle.license-token.com/assets/completepuzzle.svg" width="100%" height="100%" /><g class="links"><use href="#t5500"/></g></g></svg><svg x="1341" y="1366" height="9%" width="9%" viewBox="0 0 330 330"><g><a xlink:href="https://nftpuzzle.license-token.com/" class="links"><title>See the most innovative NFT based token software licensing project</title><path fill="#E4CF37" id="more" d="M165,0C74.019,0,0,74.019,0,165s74.019,165,165,165s165-74.019,165-165S255.981,0,165,0z M85,190 c-13.785,0-25-11.215-25-25s11.215-25,25-25s25,11.215,25,25S98.785,190,85,190z M165,190c-13.785,0-25-11.215-25-25 s11.215-25,25-25s25,11.215,25,25S178.785,190,165,190z M245,190c-13.785,0-25-11.215-25-25s11.215-25,25-25 c13.785,0,25,11.215,25,25S258.785,190,245,190z"></path></a></g></svg></svg></svg>