<svg version="1.1" xmlns="http://www.w3.org/2000/svg" xmlns:xlink="http://www.w3.org/1999/xlink" fill="transparent" x="0" y="0" width="350" height="350" preserveAspectRatio="xMinYMin slice"><style type="text/css">.links{fill:transparent;stroke: #E4CF37;}.links:hover{fill:#63D272; opacity:0.4;}</style><defs><g id="allt"><path id="t5504" d="M1485,1344 L1473,1344 C1462,1344 1477,1338 1467,1336 C1457,1334 1471,1348 1461,1346 L1452,1344 1452,1344 L1452,1354 C1453,1365 1448,1349 1449,1358 C1450,1367 1452,1355 1452,1365 L1452,1376 1452,1376 L1462,1376 C1473,1377 1457,1372 1466,1373 C1476,1374 1463,1376 1474,1376 L1485,1376 1485,1376 L1485,1365 C1485,1355 1488,1370 1488,1361 C1488,1352 1483,1364 1484,1354 L1485,1344"/></g><clipPath id="c" clipRule="evenodd" fill="transparent"><use href="#t5504"/></clipPath></defs><svg viewBox="1447 1333 42 45" preserveAspectRatio="xMinYMin meet"><svg width="4380" height="2430"><g><image crossorigin="anonymous" x="0" y="0" href="https://nftpuzzle.license-token.com/assets/completepuzzle.svg" width="100%" height="100%" /><g class="links"><use href="#t5504"/></g></g></svg><svg x="1474" y="1363" height="9%" width="9%" viewBox="0 0 330 330"><g><a xlink:href="https://nftpuzzle.license-token.com/" class="links"><title>See the most innovative NFT based token software licensing project</title><path fill="#E4CF37" id="more" d="M165,0C74.019,0,0,74.019,0,165s74.019,165,165,165s165-74.019,165-165S255.981,0,165,0z M85,190 c-13.785,0-25-11.215-25-25s11.215-25,25-25s25,11.215,25,25S98.785,190,85,190z M165,190c-13.785,0-25-11.215-25-25 s11.215-25,25-25s25,11.215,25,25S178.785,190,165,190z M245,190c-13.785,0-25-11.215-25-25s11.215-25,25-25 c13.785,0,25,11.215,25,25S258.785,190,245,190z"></path></a></g></svg></svg></svg>