<svg version="1.1" xmlns="http://www.w3.org/2000/svg" xmlns:xlink="http://www.w3.org/1999/xlink" fill="transparent" x="0" y="0" width="350" height="350" preserveAspectRatio="xMinYMin slice"><style type="text/css">.links{fill:transparent;stroke: #E4CF37;}.links:hover{fill:#63D272; opacity:0.4;}</style><defs><g id="allt"><path id="t5506" d="M1551,1344 L1541,1344 C1531,1344 1541,1350 1533,1350 C1526,1350 1538,1342 1528,1343 L1518,1344 1518,1344 L1518,1352 C1518,1361 1515,1351 1514,1359 C1514,1368 1520,1357 1519,1366 L1518,1376 1518,1376 L1527,1376 C1536,1376 1525,1373 1534,1372 C1543,1372 1531,1378 1541,1377 L1551,1376 1551,1376 L1551,1365 C1551,1355 1545,1366 1543,1359 C1542,1352 1551,1364 1551,1354 L1551,1344"/></g><clipPath id="c" clipRule="evenodd" fill="transparent"><use href="#t5506"/></clipPath></defs><svg viewBox="1513 1341 39 38" preserveAspectRatio="xMinYMin meet"><svg width="4380" height="2430"><g><image crossorigin="anonymous" x="0" y="0" href="https://nftpuzzle.license-token.com/assets/completepuzzle.svg" width="100%" height="100%" /><g class="links"><use href="#t5506"/></g></g></svg><svg x="1537" y="1364" height="9%" width="9%" viewBox="0 0 330 330"><g><a xlink:href="https://nftpuzzle.license-token.com/" class="links"><title>See the most innovative NFT based token software licensing project</title><path fill="#E4CF37" id="more" d="M165,0C74.019,0,0,74.019,0,165s74.019,165,165,165s165-74.019,165-165S255.981,0,165,0z M85,190 c-13.785,0-25-11.215-25-25s11.215-25,25-25s25,11.215,25,25S98.785,190,85,190z M165,190c-13.785,0-25-11.215-25-25 s11.215-25,25-25s25,11.215,25,25S178.785,190,165,190z M245,190c-13.785,0-25-11.215-25-25s11.215-25,25-25 c13.785,0,25,11.215,25,25S258.785,190,245,190z"></path></a></g></svg></svg></svg>