<svg version="1.1" xmlns="http://www.w3.org/2000/svg" xmlns:xlink="http://www.w3.org/1999/xlink" fill="transparent" x="0" y="0" width="350" height="350" preserveAspectRatio="xMinYMin slice"><style type="text/css">.links{fill:transparent;stroke: #E4CF37;}.links:hover{fill:#63D272; opacity:0.4;}</style><defs><g id="allt"><path id="t5509" d="M1650,1344 L1640,1343 C1631,1343 1642,1350 1632,1349 C1623,1349 1636,1344 1626,1344 L1617,1344 1617,1344 L1616,1352 C1615,1361 1621,1353 1620,1360 C1620,1368 1616,1355 1616,1365 L1617,1376 1617,1376 L1626,1375 C1635,1374 1626,1380 1634,1379 C1642,1379 1628,1375 1639,1375 L1650,1376 1650,1376 L1648,1366 C1647,1356 1657,1370 1656,1360 C1656,1350 1650,1365 1650,1354 L1650,1344"/></g><clipPath id="c" clipRule="evenodd" fill="transparent"><use href="#t5509"/></clipPath></defs><svg viewBox="1614 1342 44 39" preserveAspectRatio="xMinYMin meet"><svg width="4380" height="2430"><g><image crossorigin="anonymous" x="0" y="0" href="https://nftpuzzle.license-token.com/assets/completepuzzle.svg" width="100%" height="100%" /><g class="links"><use href="#t5509"/></g></g></svg><svg x="1643" y="1366" height="9%" width="9%" viewBox="0 0 330 330"><g><a xlink:href="https://nftpuzzle.license-token.com/" class="links"><title>See the most innovative NFT based token software licensing project</title><path fill="#E4CF37" id="more" d="M165,0C74.019,0,0,74.019,0,165s74.019,165,165,165s165-74.019,165-165S255.981,0,165,0z M85,190 c-13.785,0-25-11.215-25-25s11.215-25,25-25s25,11.215,25,25S98.785,190,85,190z M165,190c-13.785,0-25-11.215-25-25 s11.215-25,25-25s25,11.215,25,25S178.785,190,165,190z M245,190c-13.785,0-25-11.215-25-25s11.215-25,25-25 c13.785,0,25,11.215,25,25S258.785,190,245,190z"></path></a></g></svg></svg></svg>