<svg version="1.1" xmlns="http://www.w3.org/2000/svg" xmlns:xlink="http://www.w3.org/1999/xlink" fill="transparent" x="0" y="0" width="350" height="350" preserveAspectRatio="xMinYMin slice"><style type="text/css">.links{fill:transparent;stroke: #E4CF37;}.links:hover{fill:#63D272; opacity:0.4;}</style><defs><g id="allt"><path id="t5510" d="M1683,1344 L1672,1344 C1661,1345 1675,1338 1665,1339 C1656,1340 1668,1345 1659,1344 L1650,1344 1650,1344 L1650,1354 C1650,1365 1656,1350 1656,1360 C1657,1370 1647,1356 1648,1366 L1650,1376 1650,1376 L1660,1376 C1671,1376 1656,1382 1666,1382 C1677,1383 1662,1373 1672,1374 L1683,1376 1683,1376 L1681,1365 C1679,1354 1693,1370 1692,1361 C1692,1352 1683,1362 1683,1353 L1683,1344"/></g><clipPath id="c" clipRule="evenodd" fill="transparent"><use href="#t5510"/></clipPath></defs><svg viewBox="1646 1337 48 47" preserveAspectRatio="xMinYMin meet"><svg width="4380" height="2430"><g><image crossorigin="anonymous" x="0" y="0" href="https://nftpuzzle.license-token.com/assets/completepuzzle.svg" width="100%" height="100%" /><g class="links"><use href="#t5510"/></g></g></svg><svg x="1679" y="1369" height="9%" width="9%" viewBox="0 0 330 330"><g><a xlink:href="https://nftpuzzle.license-token.com/" class="links"><title>See the most innovative NFT based token software licensing project</title><path fill="#E4CF37" id="more" d="M165,0C74.019,0,0,74.019,0,165s74.019,165,165,165s165-74.019,165-165S255.981,0,165,0z M85,190 c-13.785,0-25-11.215-25-25s11.215-25,25-25s25,11.215,25,25S98.785,190,85,190z M165,190c-13.785,0-25-11.215-25-25 s11.215-25,25-25s25,11.215,25,25S178.785,190,165,190z M245,190c-13.785,0-25-11.215-25-25s11.215-25,25-25 c13.785,0,25,11.215,25,25S258.785,190,245,190z"></path></a></g></svg></svg></svg>