<svg version="1.1" xmlns="http://www.w3.org/2000/svg" xmlns:xlink="http://www.w3.org/1999/xlink" fill="transparent" x="0" y="0" width="350" height="350" preserveAspectRatio="xMinYMin slice"><style type="text/css">.links{fill:transparent;stroke: #E4CF37;}.links:hover{fill:#63D272; opacity:0.4;}</style><defs><g id="allt"><path id="t5511" d="M1716,1344 L1705,1344 C1694,1344 1709,1348 1698,1348 C1688,1348 1704,1344 1693,1344 L1683,1344 1683,1344 L1683,1353 C1683,1362 1692,1352 1692,1361 C1693,1370 1679,1354 1681,1365 L1683,1376 1683,1376 L1692,1376 C1702,1376 1691,1384 1700,1384 C1710,1385 1693,1372 1704,1374 L1716,1376 1716,1376 L1717,1367 C1718,1358 1707,1369 1707,1359 C1707,1349 1717,1362 1716,1353 L1716,1344"/></g><clipPath id="c" clipRule="evenodd" fill="transparent"><use href="#t5511"/></clipPath></defs><svg viewBox="1678 1343 41 43" preserveAspectRatio="xMinYMin meet"><svg width="4380" height="2430"><g><image crossorigin="anonymous" x="0" y="0" href="https://nftpuzzle.license-token.com/assets/completepuzzle.svg" width="100%" height="100%" /><g class="links"><use href="#t5511"/></g></g></svg><svg x="1704" y="1371" height="9%" width="9%" viewBox="0 0 330 330"><g><a xlink:href="https://nftpuzzle.license-token.com/" class="links"><title>See the most innovative NFT based token software licensing project</title><path fill="#E4CF37" id="more" d="M165,0C74.019,0,0,74.019,0,165s74.019,165,165,165s165-74.019,165-165S255.981,0,165,0z M85,190 c-13.785,0-25-11.215-25-25s11.215-25,25-25s25,11.215,25,25S98.785,190,85,190z M165,190c-13.785,0-25-11.215-25-25 s11.215-25,25-25s25,11.215,25,25S178.785,190,165,190z M245,190c-13.785,0-25-11.215-25-25s11.215-25,25-25 c13.785,0,25,11.215,25,25S258.785,190,245,190z"></path></a></g></svg></svg></svg>