<svg version="1.1" xmlns="http://www.w3.org/2000/svg" xmlns:xlink="http://www.w3.org/1999/xlink" fill="transparent" x="0" y="0" width="350" height="350" preserveAspectRatio="xMinYMin slice"><style type="text/css">.links{fill:transparent;stroke: #E4CF37;}.links:hover{fill:#63D272; opacity:0.4;}</style><defs><g id="allt"><path id="t5512" d="M1749,1344 L1739,1344 C1729,1344 1739,1340 1730,1340 C1721,1341 1737,1345 1726,1344 L1716,1344 1716,1344 L1716,1353 C1717,1362 1707,1349 1707,1359 C1707,1369 1718,1358 1717,1367 L1716,1376 1716,1376 L1725,1376 C1735,1377 1721,1367 1731,1367 C1742,1367 1730,1378 1739,1377 L1749,1376 1749,1376 L1748,1366 C1747,1356 1755,1369 1754,1360 C1754,1351 1746,1365 1747,1354 L1749,1344"/></g><clipPath id="c" clipRule="evenodd" fill="transparent"><use href="#t5512"/></clipPath></defs><svg viewBox="1706 1339 50 40" preserveAspectRatio="xMinYMin meet"><svg width="4380" height="2430"><g><image crossorigin="anonymous" x="0" y="0" href="https://nftpuzzle.license-token.com/assets/completepuzzle.svg" width="100%" height="100%" /><g class="links"><use href="#t5512"/></g></g></svg><svg x="1741" y="1364" height="9%" width="9%" viewBox="0 0 330 330"><g><a xlink:href="https://nftpuzzle.license-token.com/" class="links"><title>See the most innovative NFT based token software licensing project</title><path fill="#E4CF37" id="more" d="M165,0C74.019,0,0,74.019,0,165s74.019,165,165,165s165-74.019,165-165S255.981,0,165,0z M85,190 c-13.785,0-25-11.215-25-25s11.215-25,25-25s25,11.215,25,25S98.785,190,85,190z M165,190c-13.785,0-25-11.215-25-25 s11.215-25,25-25s25,11.215,25,25S178.785,190,165,190z M245,190c-13.785,0-25-11.215-25-25s11.215-25,25-25 c13.785,0,25,11.215,25,25S258.785,190,245,190z"></path></a></g></svg></svg></svg>