<svg version="1.1" xmlns="http://www.w3.org/2000/svg" xmlns:xlink="http://www.w3.org/1999/xlink" fill="transparent" x="0" y="0" width="350" height="350" preserveAspectRatio="xMinYMin slice"><style type="text/css">.links{fill:transparent;stroke: #E4CF37;}.links:hover{fill:#63D272; opacity:0.4;}</style><defs><g id="allt"><path id="t5514" d="M1815,1344 L1805,1343 C1795,1342 1806,1350 1796,1349 C1787,1348 1803,1342 1792,1343 L1782,1344 1782,1344 L1781,1353 C1781,1362 1777,1353 1774,1361 C1771,1370 1785,1355 1783,1365 L1782,1376 1782,1376 L1791,1375 C1801,1375 1791,1371 1800,1368 C1809,1365 1794,1379 1804,1377 L1815,1376 1815,1376 L1816,1366 C1818,1356 1808,1367 1806,1359 C1804,1352 1819,1363 1817,1353 L1815,1344"/></g><clipPath id="c" clipRule="evenodd" fill="transparent"><use href="#t5514"/></clipPath></defs><svg viewBox="1770 1341 50 39" preserveAspectRatio="xMinYMin meet"><svg width="4380" height="2430"><g><image crossorigin="anonymous" x="0" y="0" href="https://nftpuzzle.license-token.com/assets/completepuzzle.svg" width="100%" height="100%" /><g class="links"><use href="#t5514"/></g></g></svg><svg x="1805" y="1365" height="9%" width="9%" viewBox="0 0 330 330"><g><a xlink:href="https://nftpuzzle.license-token.com/" class="links"><title>See the most innovative NFT based token software licensing project</title><path fill="#E4CF37" id="more" d="M165,0C74.019,0,0,74.019,0,165s74.019,165,165,165s165-74.019,165-165S255.981,0,165,0z M85,190 c-13.785,0-25-11.215-25-25s11.215-25,25-25s25,11.215,25,25S98.785,190,85,190z M165,190c-13.785,0-25-11.215-25-25 s11.215-25,25-25s25,11.215,25,25S178.785,190,165,190z M245,190c-13.785,0-25-11.215-25-25s11.215-25,25-25 c13.785,0,25,11.215,25,25S258.785,190,245,190z"></path></a></g></svg></svg></svg>