<svg version="1.1" xmlns="http://www.w3.org/2000/svg" xmlns:xlink="http://www.w3.org/1999/xlink" fill="transparent" x="0" y="0" width="350" height="350" preserveAspectRatio="xMinYMin slice"><style type="text/css">.links{fill:transparent;stroke: #E4CF37;}.links:hover{fill:#63D272; opacity:0.4;}</style><defs><g id="allt"><path id="t5518" d="M1947,1344 L1937,1344 C1927,1344 1940,1339 1931,1336 C1923,1334 1934,1344 1924,1344 L1914,1344 1914,1344 L1914,1354 C1915,1365 1904,1348 1906,1358 C1908,1368 1914,1356 1914,1366 L1914,1376 1914,1376 L1924,1376 C1935,1377 1918,1366 1928,1368 C1939,1370 1926,1376 1936,1376 L1947,1376 1947,1376 L1945,1367 C1943,1358 1953,1369 1955,1359 C1958,1350 1947,1362 1947,1353 L1947,1344"/></g><clipPath id="c" clipRule="evenodd" fill="transparent"><use href="#t5518"/></clipPath></defs><svg viewBox="1903 1333 56 45" preserveAspectRatio="xMinYMin meet"><svg width="4380" height="2430"><g><image crossorigin="anonymous" x="0" y="0" href="https://nftpuzzle.license-token.com/assets/completepuzzle.svg" width="100%" height="100%" /><g class="links"><use href="#t5518"/></g></g></svg><svg x="1944" y="1363" height="9%" width="9%" viewBox="0 0 330 330"><g><a xlink:href="https://nftpuzzle.license-token.com/" class="links"><title>See the most innovative NFT based token software licensing project</title><path fill="#E4CF37" id="more" d="M165,0C74.019,0,0,74.019,0,165s74.019,165,165,165s165-74.019,165-165S255.981,0,165,0z M85,190 c-13.785,0-25-11.215-25-25s11.215-25,25-25s25,11.215,25,25S98.785,190,85,190z M165,190c-13.785,0-25-11.215-25-25 s11.215-25,25-25s25,11.215,25,25S178.785,190,165,190z M245,190c-13.785,0-25-11.215-25-25s11.215-25,25-25 c13.785,0,25,11.215,25,25S258.785,190,245,190z"></path></a></g></svg></svg></svg>