<svg version="1.1" xmlns="http://www.w3.org/2000/svg" xmlns:xlink="http://www.w3.org/1999/xlink" fill="transparent" x="0" y="0" width="350" height="350" preserveAspectRatio="xMinYMin slice"><style type="text/css">.links{fill:transparent;stroke: #E4CF37;}.links:hover{fill:#63D272; opacity:0.4;}</style><defs><g id="allt"><path id="t5519" d="M1980,1344 L1969,1344 C1959,1344 1972,1353 1963,1353 C1954,1353 1969,1343 1958,1343 L1947,1344 1947,1344 L1947,1353 C1947,1362 1958,1350 1955,1359 C1953,1369 1943,1358 1945,1367 L1947,1376 1947,1376 L1956,1376 C1966,1376 1953,1387 1963,1384 C1973,1382 1961,1372 1970,1374 L1980,1376 1980,1376 L1980,1366 C1980,1356 1983,1370 1984,1361 C1986,1352 1980,1362 1980,1353 L1980,1344"/></g><clipPath id="c" clipRule="evenodd" fill="transparent"><use href="#t5519"/></clipPath></defs><svg viewBox="1942 1342 45 46" preserveAspectRatio="xMinYMin meet"><svg width="4380" height="2430"><g><image crossorigin="anonymous" x="0" y="0" href="https://nftpuzzle.license-token.com/assets/completepuzzle.svg" width="100%" height="100%" /><g class="links"><use href="#t5519"/></g></g></svg><svg x="1972" y="1373" height="9%" width="9%" viewBox="0 0 330 330"><g><a xlink:href="https://nftpuzzle.license-token.com/" class="links"><title>See the most innovative NFT based token software licensing project</title><path fill="#E4CF37" id="more" d="M165,0C74.019,0,0,74.019,0,165s74.019,165,165,165s165-74.019,165-165S255.981,0,165,0z M85,190 c-13.785,0-25-11.215-25-25s11.215-25,25-25s25,11.215,25,25S98.785,190,85,190z M165,190c-13.785,0-25-11.215-25-25 s11.215-25,25-25s25,11.215,25,25S178.785,190,165,190z M245,190c-13.785,0-25-11.215-25-25s11.215-25,25-25 c13.785,0,25,11.215,25,25S258.785,190,245,190z"></path></a></g></svg></svg></svg>