<svg version="1.1" xmlns="http://www.w3.org/2000/svg" xmlns:xlink="http://www.w3.org/1999/xlink" fill="transparent" x="0" y="0" width="350" height="350" preserveAspectRatio="xMinYMin slice"><style type="text/css">.links{fill:transparent;stroke: #E4CF37;}.links:hover{fill:#63D272; opacity:0.4;}</style><defs><g id="allt"><path id="t552" d="M1089,128 L1078,129 C1068,130 1080,119 1072,120 C1065,122 1077,131 1066,129 L1056,128 1056,128 L1057,138 C1058,148 1050,134 1047,142 C1045,150 1056,142 1056,151 L1056,160 1056,160 L1066,161 C1077,162 1062,154 1070,151 C1079,149 1070,160 1079,160 L1089,160 1089,160 L1088,150 C1088,140 1091,153 1091,143 C1092,134 1089,146 1089,137 L1089,128"/></g><clipPath id="c" clipRule="evenodd" fill="transparent"><use href="#t552"/></clipPath></defs><svg viewBox="1044 118 49 45" preserveAspectRatio="xMinYMin meet"><svg width="4380" height="2430"><g><image crossorigin="anonymous" x="0" y="0" href="https://nftpuzzle.license-token.com/assets/completepuzzle.svg" width="100%" height="100%" /><g class="links"><use href="#t552"/></g></g></svg><svg x="1078" y="148" height="9%" width="9%" viewBox="0 0 330 330"><g><a xlink:href="https://nftpuzzle.license-token.com/" class="links"><title>See the most innovative NFT based token software licensing project</title><path fill="#E4CF37" id="more" d="M165,0C74.019,0,0,74.019,0,165s74.019,165,165,165s165-74.019,165-165S255.981,0,165,0z M85,190 c-13.785,0-25-11.215-25-25s11.215-25,25-25s25,11.215,25,25S98.785,190,85,190z M165,190c-13.785,0-25-11.215-25-25 s11.215-25,25-25s25,11.215,25,25S178.785,190,165,190z M245,190c-13.785,0-25-11.215-25-25s11.215-25,25-25 c13.785,0,25,11.215,25,25S258.785,190,245,190z"></path></a></g></svg></svg></svg>