<svg version="1.1" xmlns="http://www.w3.org/2000/svg" xmlns:xlink="http://www.w3.org/1999/xlink" fill="transparent" x="0" y="0" width="350" height="350" preserveAspectRatio="xMinYMin slice"><style type="text/css">.links{fill:transparent;stroke: #E4CF37;}.links:hover{fill:#63D272; opacity:0.4;}</style><defs><g id="allt"><path id="t5520" d="M2013,1344 L2003,1344 C1993,1344 2008,1342 1996,1340 C1985,1339 1999,1344 1989,1344 L1980,1344 1980,1344 L1980,1353 C1980,1362 1986,1352 1984,1361 C1983,1370 1980,1356 1980,1366 L1980,1376 1980,1376 L1989,1376 C1998,1376 1988,1382 1997,1380 C2007,1379 1992,1376 2002,1376 L2013,1376 2013,1376 L2013,1367 C2013,1358 2015,1368 2015,1359 C2015,1350 2012,1364 2012,1354 L2013,1344"/></g><clipPath id="c" clipRule="evenodd" fill="transparent"><use href="#t5520"/></clipPath></defs><svg viewBox="1979 1338 37 45" preserveAspectRatio="xMinYMin meet"><svg width="4380" height="2430"><g><image crossorigin="anonymous" x="0" y="0" href="https://nftpuzzle.license-token.com/assets/completepuzzle.svg" width="100%" height="100%" /><g class="links"><use href="#t5520"/></g></g></svg><svg x="2001" y="1368" height="9%" width="9%" viewBox="0 0 330 330"><g><a xlink:href="https://nftpuzzle.license-token.com/" class="links"><title>See the most innovative NFT based token software licensing project</title><path fill="#E4CF37" id="more" d="M165,0C74.019,0,0,74.019,0,165s74.019,165,165,165s165-74.019,165-165S255.981,0,165,0z M85,190 c-13.785,0-25-11.215-25-25s11.215-25,25-25s25,11.215,25,25S98.785,190,85,190z M165,190c-13.785,0-25-11.215-25-25 s11.215-25,25-25s25,11.215,25,25S178.785,190,165,190z M245,190c-13.785,0-25-11.215-25-25s11.215-25,25-25 c13.785,0,25,11.215,25,25S258.785,190,245,190z"></path></a></g></svg></svg></svg>