<svg version="1.1" xmlns="http://www.w3.org/2000/svg" xmlns:xlink="http://www.w3.org/1999/xlink" fill="transparent" x="0" y="0" width="350" height="350" preserveAspectRatio="xMinYMin slice"><style type="text/css">.links{fill:transparent;stroke: #E4CF37;}.links:hover{fill:#63D272; opacity:0.4;}</style><defs><g id="allt"><path id="t5523" d="M2112,1344 L2102,1344 C2093,1344 2104,1336 2096,1336 C2088,1336 2097,1347 2088,1345 L2079,1344 2079,1344 L2080,1352 C2081,1361 2073,1349 2074,1359 C2075,1370 2081,1357 2080,1366 L2079,1376 2079,1376 L2088,1377 C2097,1378 2084,1370 2095,1371 C2106,1372 2092,1378 2102,1377 L2112,1376 2112,1376 L2112,1365 C2112,1354 2109,1370 2108,1361 C2107,1352 2112,1364 2112,1354 L2112,1344"/></g><clipPath id="c" clipRule="evenodd" fill="transparent"><use href="#t5523"/></clipPath></defs><svg viewBox="2072 1335 41 44" preserveAspectRatio="xMinYMin meet"><svg width="4380" height="2430"><g><image crossorigin="anonymous" x="0" y="0" href="https://nftpuzzle.license-token.com/assets/completepuzzle.svg" width="100%" height="100%" /><g class="links"><use href="#t5523"/></g></g></svg><svg x="2098" y="1364" height="9%" width="9%" viewBox="0 0 330 330"><g><a xlink:href="https://nftpuzzle.license-token.com/" class="links"><title>See the most innovative NFT based token software licensing project</title><path fill="#E4CF37" id="more" d="M165,0C74.019,0,0,74.019,0,165s74.019,165,165,165s165-74.019,165-165S255.981,0,165,0z M85,190 c-13.785,0-25-11.215-25-25s11.215-25,25-25s25,11.215,25,25S98.785,190,85,190z M165,190c-13.785,0-25-11.215-25-25 s11.215-25,25-25s25,11.215,25,25S178.785,190,165,190z M245,190c-13.785,0-25-11.215-25-25s11.215-25,25-25 c13.785,0,25,11.215,25,25S258.785,190,245,190z"></path></a></g></svg></svg></svg>