<svg version="1.1" xmlns="http://www.w3.org/2000/svg" xmlns:xlink="http://www.w3.org/1999/xlink" fill="transparent" x="0" y="0" width="350" height="350" preserveAspectRatio="xMinYMin slice"><style type="text/css">.links{fill:transparent;stroke: #E4CF37;}.links:hover{fill:#63D272; opacity:0.4;}</style><defs><g id="allt"><path id="t5527" d="M2244,1344 L2233,1344 C2222,1344 2236,1335 2227,1337 C2219,1339 2230,1344 2220,1344 L2211,1344 2211,1344 L2211,1353 C2211,1363 2214,1349 2214,1359 C2214,1370 2210,1357 2210,1366 L2211,1376 2211,1376 L2221,1376 C2231,1376 2216,1379 2227,1379 C2238,1379 2224,1375 2234,1375 L2244,1376 2244,1376 L2245,1365 C2246,1354 2236,1367 2237,1358 C2239,1349 2244,1362 2244,1353 L2244,1344"/></g><clipPath id="c" clipRule="evenodd" fill="transparent"><use href="#t5527"/></clipPath></defs><svg viewBox="2209 1334 38 46" preserveAspectRatio="xMinYMin meet"><svg width="4380" height="2430"><g><image crossorigin="anonymous" x="0" y="0" href="https://nftpuzzle.license-token.com/assets/completepuzzle.svg" width="100%" height="100%" /><g class="links"><use href="#t5527"/></g></g></svg><svg x="2232" y="1365" height="9%" width="9%" viewBox="0 0 330 330"><g><a xlink:href="https://nftpuzzle.license-token.com/" class="links"><title>See the most innovative NFT based token software licensing project</title><path fill="#E4CF37" id="more" d="M165,0C74.019,0,0,74.019,0,165s74.019,165,165,165s165-74.019,165-165S255.981,0,165,0z M85,190 c-13.785,0-25-11.215-25-25s11.215-25,25-25s25,11.215,25,25S98.785,190,85,190z M165,190c-13.785,0-25-11.215-25-25 s11.215-25,25-25s25,11.215,25,25S178.785,190,165,190z M245,190c-13.785,0-25-11.215-25-25s11.215-25,25-25 c13.785,0,25,11.215,25,25S258.785,190,245,190z"></path></a></g></svg></svg></svg>