<svg version="1.1" xmlns="http://www.w3.org/2000/svg" xmlns:xlink="http://www.w3.org/1999/xlink" fill="transparent" x="0" y="0" width="350" height="350" preserveAspectRatio="xMinYMin slice"><style type="text/css">.links{fill:transparent;stroke: #E4CF37;}.links:hover{fill:#63D272; opacity:0.4;}</style><defs><g id="allt"><path id="t5528" d="M2277,1344 L2267,1345 C2258,1346 2267,1336 2258,1335 C2249,1335 2262,1344 2253,1344 L2244,1344 2244,1344 L2244,1353 C2244,1362 2239,1349 2237,1358 C2236,1367 2246,1354 2245,1365 L2244,1376 2244,1376 L2253,1376 C2262,1376 2249,1371 2258,1369 C2268,1368 2255,1378 2266,1377 L2277,1376 2277,1376 L2277,1366 C2277,1357 2270,1368 2268,1358 C2266,1348 2279,1362 2278,1353 L2277,1344"/></g><clipPath id="c" clipRule="evenodd" fill="transparent"><use href="#t5528"/></clipPath></defs><svg viewBox="2235 1334 45 45" preserveAspectRatio="xMinYMin meet"><svg width="4380" height="2430"><g><image crossorigin="anonymous" x="0" y="0" href="https://nftpuzzle.license-token.com/assets/completepuzzle.svg" width="100%" height="100%" /><g class="links"><use href="#t5528"/></g></g></svg><svg x="2265" y="1364" height="9%" width="9%" viewBox="0 0 330 330"><g><a xlink:href="https://nftpuzzle.license-token.com/" class="links"><title>See the most innovative NFT based token software licensing project</title><path fill="#E4CF37" id="more" d="M165,0C74.019,0,0,74.019,0,165s74.019,165,165,165s165-74.019,165-165S255.981,0,165,0z M85,190 c-13.785,0-25-11.215-25-25s11.215-25,25-25s25,11.215,25,25S98.785,190,85,190z M165,190c-13.785,0-25-11.215-25-25 s11.215-25,25-25s25,11.215,25,25S178.785,190,165,190z M245,190c-13.785,0-25-11.215-25-25s11.215-25,25-25 c13.785,0,25,11.215,25,25S258.785,190,245,190z"></path></a></g></svg></svg></svg>