<svg version="1.1" xmlns="http://www.w3.org/2000/svg" xmlns:xlink="http://www.w3.org/1999/xlink" fill="transparent" x="0" y="0" width="350" height="350" preserveAspectRatio="xMinYMin slice"><style type="text/css">.links{fill:transparent;stroke: #E4CF37;}.links:hover{fill:#63D272; opacity:0.4;}</style><defs><g id="allt"><path id="t5530" d="M2343,1344 L2332,1344 C2322,1344 2336,1339 2327,1340 C2319,1342 2328,1344 2319,1344 L2310,1344 2310,1344 L2310,1354 C2310,1364 2307,1353 2307,1360 C2308,1368 2312,1356 2311,1366 L2310,1376 2310,1376 L2320,1376 C2330,1376 2319,1373 2327,1373 C2335,1374 2322,1378 2332,1377 L2343,1376 2343,1376 L2343,1366 C2343,1356 2341,1371 2340,1361 C2340,1351 2343,1362 2343,1353 L2343,1344"/></g><clipPath id="c" clipRule="evenodd" fill="transparent"><use href="#t5530"/></clipPath></defs><svg viewBox="2306 1338 38 41" preserveAspectRatio="xMinYMin meet"><svg width="4380" height="2430"><g><image crossorigin="anonymous" x="0" y="0" href="https://nftpuzzle.license-token.com/assets/completepuzzle.svg" width="100%" height="100%" /><g class="links"><use href="#t5530"/></g></g></svg><svg x="2329" y="1364" height="9%" width="9%" viewBox="0 0 330 330"><g><a xlink:href="https://nftpuzzle.license-token.com/" class="links"><title>See the most innovative NFT based token software licensing project</title><path fill="#E4CF37" id="more" d="M165,0C74.019,0,0,74.019,0,165s74.019,165,165,165s165-74.019,165-165S255.981,0,165,0z M85,190 c-13.785,0-25-11.215-25-25s11.215-25,25-25s25,11.215,25,25S98.785,190,85,190z M165,190c-13.785,0-25-11.215-25-25 s11.215-25,25-25s25,11.215,25,25S178.785,190,165,190z M245,190c-13.785,0-25-11.215-25-25s11.215-25,25-25 c13.785,0,25,11.215,25,25S258.785,190,245,190z"></path></a></g></svg></svg></svg>