<svg version="1.1" xmlns="http://www.w3.org/2000/svg" xmlns:xlink="http://www.w3.org/1999/xlink" fill="transparent" x="0" y="0" width="350" height="350" preserveAspectRatio="xMinYMin slice"><style type="text/css">.links{fill:transparent;stroke: #E4CF37;}.links:hover{fill:#63D272; opacity:0.4;}</style><defs><g id="allt"><path id="t5531" d="M2376,1344 L2365,1344 C2354,1345 2368,1342 2359,1341 C2351,1341 2363,1345 2353,1344 L2343,1344 2343,1344 L2343,1353 C2343,1362 2340,1351 2340,1361 C2341,1371 2343,1356 2343,1366 L2343,1376 2343,1376 L2352,1376 C2361,1376 2350,1373 2360,1373 C2371,1374 2355,1376 2365,1376 L2376,1376 2376,1376 L2376,1365 C2377,1354 2366,1368 2367,1360 C2368,1352 2379,1363 2377,1353 L2376,1344"/></g><clipPath id="c" clipRule="evenodd" fill="transparent"><use href="#t5531"/></clipPath></defs><svg viewBox="2339 1340 41 37" preserveAspectRatio="xMinYMin meet"><svg width="4380" height="2430"><g><image crossorigin="anonymous" x="0" y="0" href="https://nftpuzzle.license-token.com/assets/completepuzzle.svg" width="100%" height="100%" /><g class="links"><use href="#t5531"/></g></g></svg><svg x="2365" y="1362" height="9%" width="9%" viewBox="0 0 330 330"><g><a xlink:href="https://nftpuzzle.license-token.com/" class="links"><title>See the most innovative NFT based token software licensing project</title><path fill="#E4CF37" id="more" d="M165,0C74.019,0,0,74.019,0,165s74.019,165,165,165s165-74.019,165-165S255.981,0,165,0z M85,190 c-13.785,0-25-11.215-25-25s11.215-25,25-25s25,11.215,25,25S98.785,190,85,190z M165,190c-13.785,0-25-11.215-25-25 s11.215-25,25-25s25,11.215,25,25S178.785,190,165,190z M245,190c-13.785,0-25-11.215-25-25s11.215-25,25-25 c13.785,0,25,11.215,25,25S258.785,190,245,190z"></path></a></g></svg></svg></svg>