<svg version="1.1" xmlns="http://www.w3.org/2000/svg" xmlns:xlink="http://www.w3.org/1999/xlink" fill="transparent" x="0" y="0" width="350" height="350" preserveAspectRatio="xMinYMin slice"><style type="text/css">.links{fill:transparent;stroke: #E4CF37;}.links:hover{fill:#63D272; opacity:0.4;}</style><defs><g id="allt"><path id="t5532" d="M2409,1344 L2398,1345 C2388,1346 2402,1337 2392,1337 C2383,1338 2398,1347 2387,1345 L2376,1344 2376,1344 L2377,1353 C2379,1363 2368,1352 2367,1360 C2366,1368 2377,1354 2376,1365 L2376,1376 2376,1376 L2385,1377 C2395,1379 2384,1368 2392,1367 C2400,1367 2386,1377 2397,1376 L2409,1376 2409,1376 L2409,1366 C2409,1357 2413,1366 2412,1359 C2412,1352 2409,1364 2409,1354 L2409,1344"/></g><clipPath id="c" clipRule="evenodd" fill="transparent"><use href="#t5532"/></clipPath></defs><svg viewBox="2365 1336 49 44" preserveAspectRatio="xMinYMin meet"><svg width="4380" height="2430"><g><image crossorigin="anonymous" x="0" y="0" href="https://nftpuzzle.license-token.com/assets/completepuzzle.svg" width="100%" height="100%" /><g class="links"><use href="#t5532"/></g></g></svg><svg x="2399" y="1365" height="9%" width="9%" viewBox="0 0 330 330"><g><a xlink:href="https://nftpuzzle.license-token.com/" class="links"><title>See the most innovative NFT based token software licensing project</title><path fill="#E4CF37" id="more" d="M165,0C74.019,0,0,74.019,0,165s74.019,165,165,165s165-74.019,165-165S255.981,0,165,0z M85,190 c-13.785,0-25-11.215-25-25s11.215-25,25-25s25,11.215,25,25S98.785,190,85,190z M165,190c-13.785,0-25-11.215-25-25 s11.215-25,25-25s25,11.215,25,25S178.785,190,165,190z M245,190c-13.785,0-25-11.215-25-25s11.215-25,25-25 c13.785,0,25,11.215,25,25S258.785,190,245,190z"></path></a></g></svg></svg></svg>