<svg version="1.1" xmlns="http://www.w3.org/2000/svg" xmlns:xlink="http://www.w3.org/1999/xlink" fill="transparent" x="0" y="0" width="350" height="350" preserveAspectRatio="xMinYMin slice"><style type="text/css">.links{fill:transparent;stroke: #E4CF37;}.links:hover{fill:#63D272; opacity:0.4;}</style><defs><g id="allt"><path id="t5533" d="M2442,1344 L2432,1344 C2422,1345 2434,1340 2425,1340 C2416,1341 2429,1344 2419,1344 L2409,1344 2409,1344 L2409,1354 C2409,1364 2412,1352 2412,1359 C2413,1366 2409,1357 2409,1366 L2409,1376 2409,1376 L2419,1376 C2429,1376 2418,1379 2425,1379 C2432,1380 2422,1376 2432,1376 L2442,1376 2442,1376 L2442,1366 C2442,1356 2438,1367 2437,1358 C2437,1350 2445,1364 2443,1354 L2442,1344"/></g><clipPath id="c" clipRule="evenodd" fill="transparent"><use href="#t5533"/></clipPath></defs><svg viewBox="2408 1339 38 42" preserveAspectRatio="xMinYMin meet"><svg width="4380" height="2430"><g><image crossorigin="anonymous" x="0" y="0" href="https://nftpuzzle.license-token.com/assets/completepuzzle.svg" width="100%" height="100%" /><g class="links"><use href="#t5533"/></g></g></svg><svg x="2431" y="1366" height="9%" width="9%" viewBox="0 0 330 330"><g><a xlink:href="https://nftpuzzle.license-token.com/" class="links"><title>See the most innovative NFT based token software licensing project</title><path fill="#E4CF37" id="more" d="M165,0C74.019,0,0,74.019,0,165s74.019,165,165,165s165-74.019,165-165S255.981,0,165,0z M85,190 c-13.785,0-25-11.215-25-25s11.215-25,25-25s25,11.215,25,25S98.785,190,85,190z M165,190c-13.785,0-25-11.215-25-25 s11.215-25,25-25s25,11.215,25,25S178.785,190,165,190z M245,190c-13.785,0-25-11.215-25-25s11.215-25,25-25 c13.785,0,25,11.215,25,25S258.785,190,245,190z"></path></a></g></svg></svg></svg>