<svg version="1.1" xmlns="http://www.w3.org/2000/svg" xmlns:xlink="http://www.w3.org/1999/xlink" fill="transparent" x="0" y="0" width="350" height="350" preserveAspectRatio="xMinYMin slice"><style type="text/css">.links{fill:transparent;stroke: #E4CF37;}.links:hover{fill:#63D272; opacity:0.4;}</style><defs><g id="allt"><path id="t5544" d="M2805,1344 L2795,1345 C2786,1346 2797,1338 2788,1335 C2780,1333 2791,1344 2781,1344 L2772,1344 2772,1344 L2771,1353 C2771,1362 2781,1349 2782,1359 C2783,1369 2771,1354 2771,1365 L2772,1376 2772,1376 L2781,1375 C2790,1375 2777,1385 2787,1385 C2798,1386 2782,1375 2793,1375 L2805,1376 2805,1376 L2803,1366 C2801,1356 2815,1371 2815,1360 C2815,1349 2805,1362 2805,1353 L2805,1344"/></g><clipPath id="c" clipRule="evenodd" fill="transparent"><use href="#t5544"/></clipPath></defs><svg viewBox="2770 1332 46 55" preserveAspectRatio="xMinYMin meet"><svg width="4380" height="2430"><g><image crossorigin="anonymous" x="0" y="0" href="https://nftpuzzle.license-token.com/assets/completepuzzle.svg" width="100%" height="100%" /><g class="links"><use href="#t5544"/></g></g></svg><svg x="2801" y="1372" height="9%" width="9%" viewBox="0 0 330 330"><g><a xlink:href="https://nftpuzzle.license-token.com/" class="links"><title>See the most innovative NFT based token software licensing project</title><path fill="#E4CF37" id="more" d="M165,0C74.019,0,0,74.019,0,165s74.019,165,165,165s165-74.019,165-165S255.981,0,165,0z M85,190 c-13.785,0-25-11.215-25-25s11.215-25,25-25s25,11.215,25,25S98.785,190,85,190z M165,190c-13.785,0-25-11.215-25-25 s11.215-25,25-25s25,11.215,25,25S178.785,190,165,190z M245,190c-13.785,0-25-11.215-25-25s11.215-25,25-25 c13.785,0,25,11.215,25,25S258.785,190,245,190z"></path></a></g></svg></svg></svg>