<svg version="1.1" xmlns="http://www.w3.org/2000/svg" xmlns:xlink="http://www.w3.org/1999/xlink" fill="transparent" x="0" y="0" width="350" height="350" preserveAspectRatio="xMinYMin slice"><style type="text/css">.links{fill:transparent;stroke: #E4CF37;}.links:hover{fill:#63D272; opacity:0.4;}</style><defs><g id="allt"><path id="t5550" d="M3003,1344 L2992,1344 C2981,1345 2996,1338 2987,1340 C2979,1342 2988,1344 2979,1344 L2970,1344 2970,1344 L2968,1353 C2967,1363 2976,1352 2977,1360 C2978,1368 2970,1355 2970,1365 L2970,1376 2970,1376 L2980,1374 C2990,1373 2979,1382 2986,1383 C2994,1384 2981,1376 2992,1376 L3003,1376 3003,1376 L3003,1366 C3004,1356 2997,1370 2997,1360 C2997,1351 3005,1365 3004,1354 L3003,1344"/></g><clipPath id="c" clipRule="evenodd" fill="transparent"><use href="#t5550"/></clipPath></defs><svg viewBox="2966 1337 40 48" preserveAspectRatio="xMinYMin meet"><svg width="4380" height="2430"><g><image crossorigin="anonymous" x="0" y="0" href="https://nftpuzzle.license-token.com/assets/completepuzzle.svg" width="100%" height="100%" /><g class="links"><use href="#t5550"/></g></g></svg><svg x="2991" y="1370" height="9%" width="9%" viewBox="0 0 330 330"><g><a xlink:href="https://nftpuzzle.license-token.com/" class="links"><title>See the most innovative NFT based token software licensing project</title><path fill="#E4CF37" id="more" d="M165,0C74.019,0,0,74.019,0,165s74.019,165,165,165s165-74.019,165-165S255.981,0,165,0z M85,190 c-13.785,0-25-11.215-25-25s11.215-25,25-25s25,11.215,25,25S98.785,190,85,190z M165,190c-13.785,0-25-11.215-25-25 s11.215-25,25-25s25,11.215,25,25S178.785,190,165,190z M245,190c-13.785,0-25-11.215-25-25s11.215-25,25-25 c13.785,0,25,11.215,25,25S258.785,190,245,190z"></path></a></g></svg></svg></svg>