<svg version="1.1" xmlns="http://www.w3.org/2000/svg" xmlns:xlink="http://www.w3.org/1999/xlink" fill="transparent" x="0" y="0" width="350" height="350" preserveAspectRatio="xMinYMin slice"><style type="text/css">.links{fill:transparent;stroke: #E4CF37;}.links:hover{fill:#63D272; opacity:0.4;}</style><defs><g id="allt"><path id="t5564" d="M3465,1344 L3454,1345 C3443,1346 3457,1337 3449,1337 C3441,1338 3451,1345 3441,1344 L3432,1344 3432,1344 L3432,1354 C3433,1365 3423,1348 3425,1358 C3427,1369 3432,1354 3432,1365 L3432,1376 3432,1376 L3442,1376 C3453,1377 3436,1367 3447,1369 C3458,1371 3443,1376 3454,1376 L3465,1376 3465,1376 L3465,1366 C3465,1356 3459,1370 3458,1361 C3458,1352 3465,1362 3465,1353 L3465,1344"/></g><clipPath id="c" clipRule="evenodd" fill="transparent"><use href="#t5564"/></clipPath></defs><svg viewBox="3422 1336 44 42" preserveAspectRatio="xMinYMin meet"><svg width="4380" height="2430"><g><image crossorigin="anonymous" x="0" y="0" href="https://nftpuzzle.license-token.com/assets/completepuzzle.svg" width="100%" height="100%" /><g class="links"><use href="#t5564"/></g></g></svg><svg x="3451" y="1363" height="9%" width="9%" viewBox="0 0 330 330"><g><a xlink:href="https://nftpuzzle.license-token.com/" class="links"><title>See the most innovative NFT based token software licensing project</title><path fill="#E4CF37" id="more" d="M165,0C74.019,0,0,74.019,0,165s74.019,165,165,165s165-74.019,165-165S255.981,0,165,0z M85,190 c-13.785,0-25-11.215-25-25s11.215-25,25-25s25,11.215,25,25S98.785,190,85,190z M165,190c-13.785,0-25-11.215-25-25 s11.215-25,25-25s25,11.215,25,25S178.785,190,165,190z M245,190c-13.785,0-25-11.215-25-25s11.215-25,25-25 c13.785,0,25,11.215,25,25S258.785,190,245,190z"></path></a></g></svg></svg></svg>