<svg version="1.1" xmlns="http://www.w3.org/2000/svg" xmlns:xlink="http://www.w3.org/1999/xlink" fill="transparent" x="0" y="0" width="350" height="350" preserveAspectRatio="xMinYMin slice"><style type="text/css">.links{fill:transparent;stroke: #E4CF37;}.links:hover{fill:#63D272; opacity:0.4;}</style><defs><g id="allt"><path id="t5566" d="M3531,1344 L3520,1344 C3509,1344 3522,1340 3513,1339 C3504,1339 3516,1344 3507,1344 L3498,1344 3498,1344 L3499,1354 C3500,1365 3494,1353 3493,1361 C3492,1370 3498,1357 3498,1366 L3498,1376 3498,1376 L3509,1377 C3520,1378 3507,1372 3516,1371 C3525,1370 3511,1376 3521,1376 L3531,1376 3531,1376 L3531,1365 C3531,1355 3521,1369 3521,1360 C3522,1352 3532,1365 3531,1354 L3531,1344"/></g><clipPath id="c" clipRule="evenodd" fill="transparent"><use href="#t5566"/></clipPath></defs><svg viewBox="3491 1338 42 41" preserveAspectRatio="xMinYMin meet"><svg width="4380" height="2430"><g><image crossorigin="anonymous" x="0" y="0" href="https://nftpuzzle.license-token.com/assets/completepuzzle.svg" width="100%" height="100%" /><g class="links"><use href="#t5566"/></g></g></svg><svg x="3518" y="1364" height="9%" width="9%" viewBox="0 0 330 330"><g><a xlink:href="https://nftpuzzle.license-token.com/" class="links"><title>See the most innovative NFT based token software licensing project</title><path fill="#E4CF37" id="more" d="M165,0C74.019,0,0,74.019,0,165s74.019,165,165,165s165-74.019,165-165S255.981,0,165,0z M85,190 c-13.785,0-25-11.215-25-25s11.215-25,25-25s25,11.215,25,25S98.785,190,85,190z M165,190c-13.785,0-25-11.215-25-25 s11.215-25,25-25s25,11.215,25,25S178.785,190,165,190z M245,190c-13.785,0-25-11.215-25-25s11.215-25,25-25 c13.785,0,25,11.215,25,25S258.785,190,245,190z"></path></a></g></svg></svg></svg>