<svg version="1.1" xmlns="http://www.w3.org/2000/svg" xmlns:xlink="http://www.w3.org/1999/xlink" fill="transparent" x="0" y="0" width="350" height="350" preserveAspectRatio="xMinYMin slice"><style type="text/css">.links{fill:transparent;stroke: #E4CF37;}.links:hover{fill:#63D272; opacity:0.4;}</style><defs><g id="allt"><path id="t5570" d="M3663,1344 L3651,1345 C3640,1347 3654,1336 3646,1334 C3638,1333 3650,1348 3640,1346 L3630,1344 3630,1344 L3630,1354 C3630,1364 3635,1351 3634,1360 C3634,1369 3630,1356 3630,1366 L3630,1376 3630,1376 L3640,1376 C3651,1376 3637,1381 3646,1380 C3656,1380 3643,1376 3653,1376 L3663,1376 3663,1376 L3663,1366 C3663,1357 3669,1368 3669,1358 C3669,1349 3660,1361 3661,1352 L3663,1344"/></g><clipPath id="c" clipRule="evenodd" fill="transparent"><use href="#t5570"/></clipPath></defs><svg viewBox="3629 1332 41 50" preserveAspectRatio="xMinYMin meet"><svg width="4380" height="2430"><g><image crossorigin="anonymous" x="0" y="0" href="https://nftpuzzle.license-token.com/assets/completepuzzle.svg" width="100%" height="100%" /><g class="links"><use href="#t5570"/></g></g></svg><svg x="3655" y="1367" height="9%" width="9%" viewBox="0 0 330 330"><g><a xlink:href="https://nftpuzzle.license-token.com/" class="links"><title>See the most innovative NFT based token software licensing project</title><path fill="#E4CF37" id="more" d="M165,0C74.019,0,0,74.019,0,165s74.019,165,165,165s165-74.019,165-165S255.981,0,165,0z M85,190 c-13.785,0-25-11.215-25-25s11.215-25,25-25s25,11.215,25,25S98.785,190,85,190z M165,190c-13.785,0-25-11.215-25-25 s11.215-25,25-25s25,11.215,25,25S178.785,190,165,190z M245,190c-13.785,0-25-11.215-25-25s11.215-25,25-25 c13.785,0,25,11.215,25,25S258.785,190,245,190z"></path></a></g></svg></svg></svg>