<svg version="1.1" xmlns="http://www.w3.org/2000/svg" xmlns:xlink="http://www.w3.org/1999/xlink" fill="transparent" x="0" y="0" width="350" height="350" preserveAspectRatio="xMinYMin slice"><style type="text/css">.links{fill:transparent;stroke: #E4CF37;}.links:hover{fill:#63D272; opacity:0.4;}</style><defs><g id="allt"><path id="t5572" d="M3729,1344 L3718,1345 C3708,1346 3723,1338 3714,1339 C3705,1341 3717,1345 3706,1344 L3696,1344 3696,1344 L3696,1354 C3696,1364 3700,1352 3700,1360 C3701,1369 3694,1356 3695,1366 L3696,1376 3696,1376 L3706,1376 C3717,1376 3704,1380 3713,1380 C3722,1381 3709,1374 3719,1375 L3729,1376 3729,1376 L3727,1365 C3726,1354 3736,1369 3738,1359 C3740,1349 3724,1361 3726,1352 L3729,1344"/></g><clipPath id="c" clipRule="evenodd" fill="transparent"><use href="#t5572"/></clipPath></defs><svg viewBox="3693 1337 48 45" preserveAspectRatio="xMinYMin meet"><svg width="4380" height="2430"><g><image crossorigin="anonymous" x="0" y="0" href="https://nftpuzzle.license-token.com/assets/completepuzzle.svg" width="100%" height="100%" /><g class="links"><use href="#t5572"/></g></g></svg><svg x="3726" y="1367" height="9%" width="9%" viewBox="0 0 330 330"><g><a xlink:href="https://nftpuzzle.license-token.com/" class="links"><title>See the most innovative NFT based token software licensing project</title><path fill="#E4CF37" id="more" d="M165,0C74.019,0,0,74.019,0,165s74.019,165,165,165s165-74.019,165-165S255.981,0,165,0z M85,190 c-13.785,0-25-11.215-25-25s11.215-25,25-25s25,11.215,25,25S98.785,190,85,190z M165,190c-13.785,0-25-11.215-25-25 s11.215-25,25-25s25,11.215,25,25S178.785,190,165,190z M245,190c-13.785,0-25-11.215-25-25s11.215-25,25-25 c13.785,0,25,11.215,25,25S258.785,190,245,190z"></path></a></g></svg></svg></svg>