<svg version="1.1" xmlns="http://www.w3.org/2000/svg" xmlns:xlink="http://www.w3.org/1999/xlink" fill="transparent" x="0" y="0" width="350" height="350" preserveAspectRatio="xMinYMin slice"><style type="text/css">.links{fill:transparent;stroke: #E4CF37;}.links:hover{fill:#63D272; opacity:0.4;}</style><defs><g id="allt"><path id="t5575" d="M3828,1344 L3817,1345 C3807,1346 3819,1340 3811,1340 C3804,1340 3813,1344 3804,1344 L3795,1344 3795,1344 L3795,1353 C3795,1362 3798,1349 3799,1358 C3800,1367 3794,1355 3794,1365 L3795,1376 3795,1376 L3804,1376 C3814,1376 3800,1379 3809,1380 C3819,1381 3807,1375 3817,1375 L3828,1376 3828,1376 L3828,1367 C3829,1358 3819,1368 3820,1359 C3821,1351 3828,1362 3828,1353 L3828,1344"/></g><clipPath id="c" clipRule="evenodd" fill="transparent"><use href="#t5575"/></clipPath></defs><svg viewBox="3793 1339 37 43" preserveAspectRatio="xMinYMin meet"><svg width="4380" height="2430"><g><image crossorigin="anonymous" x="0" y="0" href="https://nftpuzzle.license-token.com/assets/completepuzzle.svg" width="100%" height="100%" /><g class="links"><use href="#t5575"/></g></g></svg><svg x="3815" y="1367" height="9%" width="9%" viewBox="0 0 330 330"><g><a xlink:href="https://nftpuzzle.license-token.com/" class="links"><title>See the most innovative NFT based token software licensing project</title><path fill="#E4CF37" id="more" d="M165,0C74.019,0,0,74.019,0,165s74.019,165,165,165s165-74.019,165-165S255.981,0,165,0z M85,190 c-13.785,0-25-11.215-25-25s11.215-25,25-25s25,11.215,25,25S98.785,190,85,190z M165,190c-13.785,0-25-11.215-25-25 s11.215-25,25-25s25,11.215,25,25S178.785,190,165,190z M245,190c-13.785,0-25-11.215-25-25s11.215-25,25-25 c13.785,0,25,11.215,25,25S258.785,190,245,190z"></path></a></g></svg></svg></svg>