<svg version="1.1" xmlns="http://www.w3.org/2000/svg" xmlns:xlink="http://www.w3.org/1999/xlink" fill="transparent" x="0" y="0" width="350" height="350" preserveAspectRatio="xMinYMin slice"><style type="text/css">.links{fill:transparent;stroke: #E4CF37;}.links:hover{fill:#63D272; opacity:0.4;}</style><defs><g id="allt"><path id="t5579" d="M3960,1344 L3949,1344 C3938,1345 3952,1341 3943,1341 C3935,1342 3947,1344 3937,1344 L3927,1344 3927,1344 L3927,1354 C3927,1364 3931,1352 3932,1361 C3933,1370 3924,1356 3925,1366 L3927,1376 3927,1376 L3937,1376 C3948,1376 3936,1380 3945,1381 C3954,1382 3940,1373 3950,1374 L3960,1376 3960,1376 L3960,1365 C3960,1355 3965,1370 3965,1360 C3965,1351 3957,1364 3958,1354 L3960,1344"/></g><clipPath id="c" clipRule="evenodd" fill="transparent"><use href="#t5579"/></clipPath></defs><svg viewBox="3923 1340 43 43" preserveAspectRatio="xMinYMin meet"><svg width="4380" height="2430"><g><image crossorigin="anonymous" x="0" y="0" href="https://nftpuzzle.license-token.com/assets/completepuzzle.svg" width="100%" height="100%" /><g class="links"><use href="#t5579"/></g></g></svg><svg x="3951" y="1368" height="9%" width="9%" viewBox="0 0 330 330"><g><a xlink:href="https://nftpuzzle.license-token.com/" class="links"><title>See the most innovative NFT based token software licensing project</title><path fill="#E4CF37" id="more" d="M165,0C74.019,0,0,74.019,0,165s74.019,165,165,165s165-74.019,165-165S255.981,0,165,0z M85,190 c-13.785,0-25-11.215-25-25s11.215-25,25-25s25,11.215,25,25S98.785,190,85,190z M165,190c-13.785,0-25-11.215-25-25 s11.215-25,25-25s25,11.215,25,25S178.785,190,165,190z M245,190c-13.785,0-25-11.215-25-25s11.215-25,25-25 c13.785,0,25,11.215,25,25S258.785,190,245,190z"></path></a></g></svg></svg></svg>