<svg version="1.1" xmlns="http://www.w3.org/2000/svg" xmlns:xlink="http://www.w3.org/1999/xlink" fill="transparent" x="0" y="0" width="350" height="350" preserveAspectRatio="xMinYMin slice"><style type="text/css">.links{fill:transparent;stroke: #E4CF37;}.links:hover{fill:#63D272; opacity:0.4;}</style><defs><g id="allt"><path id="t5580" d="M3993,1344 L3983,1344 C3974,1344 3986,1353 3977,1353 C3968,1354 3979,1343 3969,1343 L3960,1344 3960,1344 L3958,1354 C3957,1364 3965,1351 3965,1360 C3965,1370 3960,1355 3960,1365 L3960,1376 3960,1376 L3970,1374 C3981,1373 3967,1381 3977,1381 C3987,1381 3971,1376 3982,1376 L3993,1376 3993,1376 L3993,1366 C3993,1357 3996,1367 3996,1358 C3997,1349 3992,1363 3992,1353 L3993,1344"/></g><clipPath id="c" clipRule="evenodd" fill="transparent"><use href="#t5580"/></clipPath></defs><svg viewBox="3956 1342 42 40" preserveAspectRatio="xMinYMin meet"><svg width="4380" height="2430"><g><image crossorigin="anonymous" x="0" y="0" href="https://nftpuzzle.license-token.com/assets/completepuzzle.svg" width="100%" height="100%" /><g class="links"><use href="#t5580"/></g></g></svg><svg x="3983" y="1367" height="9%" width="9%" viewBox="0 0 330 330"><g><a xlink:href="https://nftpuzzle.license-token.com/" class="links"><title>See the most innovative NFT based token software licensing project</title><path fill="#E4CF37" id="more" d="M165,0C74.019,0,0,74.019,0,165s74.019,165,165,165s165-74.019,165-165S255.981,0,165,0z M85,190 c-13.785,0-25-11.215-25-25s11.215-25,25-25s25,11.215,25,25S98.785,190,85,190z M165,190c-13.785,0-25-11.215-25-25 s11.215-25,25-25s25,11.215,25,25S178.785,190,165,190z M245,190c-13.785,0-25-11.215-25-25s11.215-25,25-25 c13.785,0,25,11.215,25,25S258.785,190,245,190z"></path></a></g></svg></svg></svg>