<svg version="1.1" xmlns="http://www.w3.org/2000/svg" xmlns:xlink="http://www.w3.org/1999/xlink" fill="transparent" x="0" y="0" width="350" height="350" preserveAspectRatio="xMinYMin slice"><style type="text/css">.links{fill:transparent;stroke: #E4CF37;}.links:hover{fill:#63D272; opacity:0.4;}</style><defs><g id="allt"><path id="t5583" d="M4092,1344 L4081,1343 C4070,1343 4087,1347 4077,1346 C4067,1346 4077,1343 4068,1343 L4059,1344 4059,1344 L4059,1353 C4059,1363 4072,1349 4071,1359 C4070,1370 4056,1355 4057,1365 L4059,1376 4059,1376 L4068,1376 C4078,1376 4064,1389 4075,1387 C4086,1386 4070,1373 4081,1374 L4092,1376 4092,1376 L4092,1366 C4093,1356 4088,1370 4086,1360 C4084,1351 4092,1361 4092,1352 L4092,1344"/></g><clipPath id="c" clipRule="evenodd" fill="transparent"><use href="#t5583"/></clipPath></defs><svg viewBox="4055 1342 39 48" preserveAspectRatio="xMinYMin meet"><svg width="4380" height="2430"><g><image crossorigin="anonymous" x="0" y="0" href="https://nftpuzzle.license-token.com/assets/completepuzzle.svg" width="100%" height="100%" /><g class="links"><use href="#t5583"/></g></g></svg><svg x="4079" y="1375" height="9%" width="9%" viewBox="0 0 330 330"><g><a xlink:href="https://nftpuzzle.license-token.com/" class="links"><title>See the most innovative NFT based token software licensing project</title><path fill="#E4CF37" id="more" d="M165,0C74.019,0,0,74.019,0,165s74.019,165,165,165s165-74.019,165-165S255.981,0,165,0z M85,190 c-13.785,0-25-11.215-25-25s11.215-25,25-25s25,11.215,25,25S98.785,190,85,190z M165,190c-13.785,0-25-11.215-25-25 s11.215-25,25-25s25,11.215,25,25S178.785,190,165,190z M245,190c-13.785,0-25-11.215-25-25s11.215-25,25-25 c13.785,0,25,11.215,25,25S258.785,190,245,190z"></path></a></g></svg></svg></svg>