<svg version="1.1" xmlns="http://www.w3.org/2000/svg" xmlns:xlink="http://www.w3.org/1999/xlink" fill="transparent" x="0" y="0" width="350" height="350" preserveAspectRatio="xMinYMin slice"><style type="text/css">.links{fill:transparent;stroke: #E4CF37;}.links:hover{fill:#63D272; opacity:0.4;}</style><defs><g id="allt"><path id="t5585" d="M4158,1344 L4148,1344 C4139,1344 4150,1332 4140,1335 C4130,1338 4145,1347 4135,1345 L4125,1344 4125,1344 L4124,1353 C4124,1363 4117,1352 4117,1360 C4118,1368 4125,1357 4125,1366 L4125,1376 4125,1376 L4135,1375 C4145,1375 4133,1368 4141,1368 C4150,1369 4138,1376 4148,1376 L4158,1376 4158,1376 L4158,1365 C4159,1354 4154,1370 4154,1361 C4155,1353 4158,1361 4158,1352 L4158,1344"/></g><clipPath id="c" clipRule="evenodd" fill="transparent"><use href="#t5585"/></clipPath></defs><svg viewBox="4116 1331 44 46" preserveAspectRatio="xMinYMin meet"><svg width="4380" height="2430"><g><image crossorigin="anonymous" x="0" y="0" href="https://nftpuzzle.license-token.com/assets/completepuzzle.svg" width="100%" height="100%" /><g class="links"><use href="#t5585"/></g></g></svg><svg x="4145" y="1362" height="9%" width="9%" viewBox="0 0 330 330"><g><a xlink:href="https://nftpuzzle.license-token.com/" class="links"><title>See the most innovative NFT based token software licensing project</title><path fill="#E4CF37" id="more" d="M165,0C74.019,0,0,74.019,0,165s74.019,165,165,165s165-74.019,165-165S255.981,0,165,0z M85,190 c-13.785,0-25-11.215-25-25s11.215-25,25-25s25,11.215,25,25S98.785,190,85,190z M165,190c-13.785,0-25-11.215-25-25 s11.215-25,25-25s25,11.215,25,25S178.785,190,165,190z M245,190c-13.785,0-25-11.215-25-25s11.215-25,25-25 c13.785,0,25,11.215,25,25S258.785,190,245,190z"></path></a></g></svg></svg></svg>