<svg version="1.1" xmlns="http://www.w3.org/2000/svg" xmlns:xlink="http://www.w3.org/1999/xlink" fill="transparent" x="0" y="0" width="350" height="350" preserveAspectRatio="xMinYMin slice"><style type="text/css">.links{fill:transparent;stroke: #E4CF37;}.links:hover{fill:#63D272; opacity:0.4;}</style><defs><g id="allt"><path id="t5592" d="M99,1376 L88,1378 C78,1380 92,1366 82,1367 C72,1368 85,1378 75,1377 L66,1376 66,1376 L65,1385 C65,1394 70,1383 70,1391 C71,1400 64,1389 65,1398 L66,1408 66,1408 L75,1407 C85,1407 73,1412 82,1412 C91,1413 79,1406 89,1407 L99,1408 99,1408 L99,1398 C99,1388 103,1403 103,1392 C103,1382 99,1396 99,1386 L99,1376"/></g><clipPath id="c" clipRule="evenodd" fill="transparent"><use href="#t5592"/></clipPath></defs><svg viewBox="63 1365 41 49" preserveAspectRatio="xMinYMin meet"><svg width="4380" height="2430"><g><image crossorigin="anonymous" x="0" y="0" href="https://nftpuzzle.license-token.com/assets/completepuzzle.svg" width="100%" height="100%" /><g class="links"><use href="#t5592"/></g></g></svg><svg x="89" y="1399" height="9%" width="9%" viewBox="0 0 330 330"><g><a xlink:href="https://nftpuzzle.license-token.com/" class="links"><title>See the most innovative NFT based token software licensing project</title><path fill="#E4CF37" id="more" d="M165,0C74.019,0,0,74.019,0,165s74.019,165,165,165s165-74.019,165-165S255.981,0,165,0z M85,190 c-13.785,0-25-11.215-25-25s11.215-25,25-25s25,11.215,25,25S98.785,190,85,190z M165,190c-13.785,0-25-11.215-25-25 s11.215-25,25-25s25,11.215,25,25S178.785,190,165,190z M245,190c-13.785,0-25-11.215-25-25s11.215-25,25-25 c13.785,0,25,11.215,25,25S258.785,190,245,190z"></path></a></g></svg></svg></svg>