<svg version="1.1" xmlns="http://www.w3.org/2000/svg" xmlns:xlink="http://www.w3.org/1999/xlink" fill="transparent" x="0" y="0" width="350" height="350" preserveAspectRatio="xMinYMin slice"><style type="text/css">.links{fill:transparent;stroke: #E4CF37;}.links:hover{fill:#63D272; opacity:0.4;}</style><defs><g id="allt"><path id="t5594" d="M165,1376 L155,1374 C146,1373 159,1383 149,1383 C139,1384 151,1376 141,1376 L132,1376 132,1376 L132,1386 C132,1396 120,1384 120,1392 C121,1401 136,1390 134,1399 L132,1408 132,1408 L142,1408 C153,1408 140,1397 149,1397 C158,1398 146,1412 155,1410 L165,1408 165,1408 L164,1398 C164,1389 169,1399 168,1391 C168,1383 163,1397 164,1386 L165,1376"/></g><clipPath id="c" clipRule="evenodd" fill="transparent"><use href="#t5594"/></clipPath></defs><svg viewBox="119 1372 51 41" preserveAspectRatio="xMinYMin meet"><svg width="4380" height="2430"><g><image crossorigin="anonymous" x="0" y="0" href="https://nftpuzzle.license-token.com/assets/completepuzzle.svg" width="100%" height="100%" /><g class="links"><use href="#t5594"/></g></g></svg><svg x="155" y="1398" height="9%" width="9%" viewBox="0 0 330 330"><g><a xlink:href="https://nftpuzzle.license-token.com/" class="links"><title>See the most innovative NFT based token software licensing project</title><path fill="#E4CF37" id="more" d="M165,0C74.019,0,0,74.019,0,165s74.019,165,165,165s165-74.019,165-165S255.981,0,165,0z M85,190 c-13.785,0-25-11.215-25-25s11.215-25,25-25s25,11.215,25,25S98.785,190,85,190z M165,190c-13.785,0-25-11.215-25-25 s11.215-25,25-25s25,11.215,25,25S178.785,190,165,190z M245,190c-13.785,0-25-11.215-25-25s11.215-25,25-25 c13.785,0,25,11.215,25,25S258.785,190,245,190z"></path></a></g></svg></svg></svg>