<svg version="1.1" xmlns="http://www.w3.org/2000/svg" xmlns:xlink="http://www.w3.org/1999/xlink" fill="transparent" x="0" y="0" width="350" height="350" preserveAspectRatio="xMinYMin slice"><style type="text/css">.links{fill:transparent;stroke: #E4CF37;}.links:hover{fill:#63D272; opacity:0.4;}</style><defs><g id="allt"><path id="t5597" d="M264,1376 L254,1374 C245,1372 257,1384 247,1384 C238,1385 250,1376 240,1376 L231,1376 231,1376 L232,1385 C233,1394 226,1381 225,1390 C224,1400 234,1388 232,1398 L231,1408 231,1408 L240,1409 C250,1410 236,1403 245,1402 C255,1401 244,1411 254,1409 L264,1408 264,1408 L265,1397 C267,1387 255,1401 254,1393 C253,1385 267,1396 265,1386 L264,1376"/></g><clipPath id="c" clipRule="evenodd" fill="transparent"><use href="#t5597"/></clipPath></defs><svg viewBox="223 1371 45 41" preserveAspectRatio="xMinYMin meet"><svg width="4380" height="2430"><g><image crossorigin="anonymous" x="0" y="0" href="https://nftpuzzle.license-token.com/assets/completepuzzle.svg" width="100%" height="100%" /><g class="links"><use href="#t5597"/></g></g></svg><svg x="253" y="1397" height="9%" width="9%" viewBox="0 0 330 330"><g><a xlink:href="https://nftpuzzle.license-token.com/" class="links"><title>See the most innovative NFT based token software licensing project</title><path fill="#E4CF37" id="more" d="M165,0C74.019,0,0,74.019,0,165s74.019,165,165,165s165-74.019,165-165S255.981,0,165,0z M85,190 c-13.785,0-25-11.215-25-25s11.215-25,25-25s25,11.215,25,25S98.785,190,85,190z M165,190c-13.785,0-25-11.215-25-25 s11.215-25,25-25s25,11.215,25,25S178.785,190,165,190z M245,190c-13.785,0-25-11.215-25-25s11.215-25,25-25 c13.785,0,25,11.215,25,25S258.785,190,245,190z"></path></a></g></svg></svg></svg>