<svg version="1.1" xmlns="http://www.w3.org/2000/svg" xmlns:xlink="http://www.w3.org/1999/xlink" fill="transparent" x="0" y="0" width="350" height="350" preserveAspectRatio="xMinYMin slice"><style type="text/css">.links{fill:transparent;stroke: #E4CF37;}.links:hover{fill:#63D272; opacity:0.4;}</style><defs><g id="allt"><path id="t560" d="M1353,128 L1343,129 C1334,131 1343,123 1336,123 C1329,123 1340,128 1330,128 L1320,128 1320,128 L1321,137 C1322,146 1310,134 1312,142 C1314,151 1321,138 1320,149 L1320,160 1320,160 L1329,161 C1338,162 1326,150 1334,152 C1343,154 1331,161 1342,160 L1353,160 1353,160 L1351,149 C1350,138 1360,154 1359,144 C1359,135 1350,145 1351,136 L1353,128"/></g><clipPath id="c" clipRule="evenodd" fill="transparent"><use href="#t560"/></clipPath></defs><svg viewBox="1309 122 52 41" preserveAspectRatio="xMinYMin meet"><svg width="4380" height="2430"><g><image crossorigin="anonymous" x="0" y="0" href="https://nftpuzzle.license-token.com/assets/completepuzzle.svg" width="100%" height="100%" /><g class="links"><use href="#t560"/></g></g></svg><svg x="1346" y="148" height="9%" width="9%" viewBox="0 0 330 330"><g><a xlink:href="https://nftpuzzle.license-token.com/" class="links"><title>See the most innovative NFT based token software licensing project</title><path fill="#E4CF37" id="more" d="M165,0C74.019,0,0,74.019,0,165s74.019,165,165,165s165-74.019,165-165S255.981,0,165,0z M85,190 c-13.785,0-25-11.215-25-25s11.215-25,25-25s25,11.215,25,25S98.785,190,85,190z M165,190c-13.785,0-25-11.215-25-25 s11.215-25,25-25s25,11.215,25,25S178.785,190,165,190z M245,190c-13.785,0-25-11.215-25-25s11.215-25,25-25 c13.785,0,25,11.215,25,25S258.785,190,245,190z"></path></a></g></svg></svg></svg>