<svg version="1.1" xmlns="http://www.w3.org/2000/svg" xmlns:xlink="http://www.w3.org/1999/xlink" fill="transparent" x="0" y="0" width="350" height="350" preserveAspectRatio="xMinYMin slice"><style type="text/css">.links{fill:transparent;stroke: #E4CF37;}.links:hover{fill:#63D272; opacity:0.4;}</style><defs><g id="allt"><path id="t5630" d="M1353,1376 L1343,1376 C1333,1376 1344,1379 1336,1379 C1329,1380 1338,1376 1329,1376 L1320,1376 1320,1376 L1318,1385 C1317,1395 1326,1383 1325,1392 C1324,1401 1317,1387 1318,1397 L1320,1408 1320,1408 L1329,1406 C1339,1405 1327,1414 1336,1413 C1346,1412 1331,1405 1342,1406 L1353,1408 1353,1408 L1353,1398 C1353,1388 1349,1401 1348,1393 C1347,1385 1356,1395 1354,1385 L1353,1376"/></g><clipPath id="c" clipRule="evenodd" fill="transparent"><use href="#t5630"/></clipPath></defs><svg viewBox="1316 1375 41 40" preserveAspectRatio="xMinYMin meet"><svg width="4380" height="2430"><g><image crossorigin="anonymous" x="0" y="0" href="https://nftpuzzle.license-token.com/assets/completepuzzle.svg" width="100%" height="100%" /><g class="links"><use href="#t5630"/></g></g></svg><svg x="1342" y="1400" height="9%" width="9%" viewBox="0 0 330 330"><g><a xlink:href="https://nftpuzzle.license-token.com/" class="links"><title>See the most innovative NFT based token software licensing project</title><path fill="#E4CF37" id="more" d="M165,0C74.019,0,0,74.019,0,165s74.019,165,165,165s165-74.019,165-165S255.981,0,165,0z M85,190 c-13.785,0-25-11.215-25-25s11.215-25,25-25s25,11.215,25,25S98.785,190,85,190z M165,190c-13.785,0-25-11.215-25-25 s11.215-25,25-25s25,11.215,25,25S178.785,190,165,190z M245,190c-13.785,0-25-11.215-25-25s11.215-25,25-25 c13.785,0,25,11.215,25,25S258.785,190,245,190z"></path></a></g></svg></svg></svg>