<svg version="1.1" xmlns="http://www.w3.org/2000/svg" xmlns:xlink="http://www.w3.org/1999/xlink" fill="transparent" x="0" y="0" width="350" height="350" preserveAspectRatio="xMinYMin slice"><style type="text/css">.links{fill:transparent;stroke: #E4CF37;}.links:hover{fill:#63D272; opacity:0.4;}</style><defs><g id="allt"><path id="t5636" d="M1551,1376 L1541,1377 C1531,1378 1543,1372 1534,1372 C1525,1373 1536,1376 1527,1376 L1518,1376 1518,1376 L1517,1386 C1517,1396 1520,1384 1520,1392 C1520,1400 1517,1387 1517,1397 L1518,1408 1518,1408 L1528,1407 C1539,1407 1527,1410 1535,1410 C1543,1410 1530,1407 1540,1407 L1551,1408 1551,1408 L1552,1398 C1554,1389 1546,1401 1544,1392 C1543,1384 1552,1394 1551,1385 L1551,1376"/></g><clipPath id="c" clipRule="evenodd" fill="transparent"><use href="#t5636"/></clipPath></defs><svg viewBox="1516 1371 39 40" preserveAspectRatio="xMinYMin meet"><svg width="4380" height="2430"><g><image crossorigin="anonymous" x="0" y="0" href="https://nftpuzzle.license-token.com/assets/completepuzzle.svg" width="100%" height="100%" /><g class="links"><use href="#t5636"/></g></g></svg><svg x="1540" y="1396" height="9%" width="9%" viewBox="0 0 330 330"><g><a xlink:href="https://nftpuzzle.license-token.com/" class="links"><title>See the most innovative NFT based token software licensing project</title><path fill="#E4CF37" id="more" d="M165,0C74.019,0,0,74.019,0,165s74.019,165,165,165s165-74.019,165-165S255.981,0,165,0z M85,190 c-13.785,0-25-11.215-25-25s11.215-25,25-25s25,11.215,25,25S98.785,190,85,190z M165,190c-13.785,0-25-11.215-25-25 s11.215-25,25-25s25,11.215,25,25S178.785,190,165,190z M245,190c-13.785,0-25-11.215-25-25s11.215-25,25-25 c13.785,0,25,11.215,25,25S258.785,190,245,190z"></path></a></g></svg></svg></svg>