<svg version="1.1" xmlns="http://www.w3.org/2000/svg" xmlns:xlink="http://www.w3.org/1999/xlink" fill="transparent" x="0" y="0" width="350" height="350" preserveAspectRatio="xMinYMin slice"><style type="text/css">.links{fill:transparent;stroke: #E4CF37;}.links:hover{fill:#63D272; opacity:0.4;}</style><defs><g id="allt"><path id="t5642" d="M1749,1376 L1739,1377 C1730,1378 1742,1367 1731,1367 C1721,1367 1735,1377 1725,1376 L1716,1376 1716,1376 L1717,1386 C1718,1396 1711,1384 1710,1392 C1710,1401 1720,1389 1718,1398 L1716,1408 1716,1408 L1726,1409 C1737,1410 1724,1403 1733,1402 C1742,1402 1730,1412 1739,1410 L1749,1408 1749,1408 L1747,1398 C1746,1389 1754,1400 1755,1392 C1756,1385 1746,1396 1747,1386 L1749,1376"/></g><clipPath id="c" clipRule="evenodd" fill="transparent"><use href="#t5642"/></clipPath></defs><svg viewBox="1709 1366 48 47" preserveAspectRatio="xMinYMin meet"><svg width="4380" height="2430"><g><image crossorigin="anonymous" x="0" y="0" href="https://nftpuzzle.license-token.com/assets/completepuzzle.svg" width="100%" height="100%" /><g class="links"><use href="#t5642"/></g></g></svg><svg x="1742" y="1398" height="9%" width="9%" viewBox="0 0 330 330"><g><a xlink:href="https://nftpuzzle.license-token.com/" class="links"><title>See the most innovative NFT based token software licensing project</title><path fill="#E4CF37" id="more" d="M165,0C74.019,0,0,74.019,0,165s74.019,165,165,165s165-74.019,165-165S255.981,0,165,0z M85,190 c-13.785,0-25-11.215-25-25s11.215-25,25-25s25,11.215,25,25S98.785,190,85,190z M165,190c-13.785,0-25-11.215-25-25 s11.215-25,25-25s25,11.215,25,25S178.785,190,165,190z M245,190c-13.785,0-25-11.215-25-25s11.215-25,25-25 c13.785,0,25,11.215,25,25S258.785,190,245,190z"></path></a></g></svg></svg></svg>