<svg version="1.1" xmlns="http://www.w3.org/2000/svg" xmlns:xlink="http://www.w3.org/1999/xlink" fill="transparent" x="0" y="0" width="350" height="350" preserveAspectRatio="xMinYMin slice"><style type="text/css">.links{fill:transparent;stroke: #E4CF37;}.links:hover{fill:#63D272; opacity:0.4;}</style><defs><g id="allt"><path id="t5648" d="M1947,1376 L1936,1376 C1926,1376 1939,1370 1928,1368 C1918,1366 1935,1377 1924,1376 L1914,1376 1914,1376 L1914,1385 C1914,1394 1909,1385 1907,1391 C1906,1398 1915,1386 1914,1397 L1914,1408 1914,1408 L1923,1408 C1932,1408 1923,1403 1930,1401 C1937,1400 1924,1409 1935,1408 L1947,1408 1947,1408 L1947,1398 C1947,1388 1949,1399 1949,1391 C1949,1384 1947,1397 1947,1386 L1947,1376"/></g><clipPath id="c" clipRule="evenodd" fill="transparent"><use href="#t5648"/></clipPath></defs><svg viewBox="1905 1365 45 45" preserveAspectRatio="xMinYMin meet"><svg width="4380" height="2430"><g><image crossorigin="anonymous" x="0" y="0" href="https://nftpuzzle.license-token.com/assets/completepuzzle.svg" width="100%" height="100%" /><g class="links"><use href="#t5648"/></g></g></svg><svg x="1935" y="1395" height="9%" width="9%" viewBox="0 0 330 330"><g><a xlink:href="https://nftpuzzle.license-token.com/" class="links"><title>See the most innovative NFT based token software licensing project</title><path fill="#E4CF37" id="more" d="M165,0C74.019,0,0,74.019,0,165s74.019,165,165,165s165-74.019,165-165S255.981,0,165,0z M85,190 c-13.785,0-25-11.215-25-25s11.215-25,25-25s25,11.215,25,25S98.785,190,85,190z M165,190c-13.785,0-25-11.215-25-25 s11.215-25,25-25s25,11.215,25,25S178.785,190,165,190z M245,190c-13.785,0-25-11.215-25-25s11.215-25,25-25 c13.785,0,25,11.215,25,25S258.785,190,245,190z"></path></a></g></svg></svg></svg>