<svg version="1.1" xmlns="http://www.w3.org/2000/svg" xmlns:xlink="http://www.w3.org/1999/xlink" fill="transparent" x="0" y="0" width="350" height="350" preserveAspectRatio="xMinYMin slice"><style type="text/css">.links{fill:transparent;stroke: #E4CF37;}.links:hover{fill:#63D272; opacity:0.4;}</style><defs><g id="allt"><path id="t5649" d="M1980,1376 L1970,1374 C1961,1372 1973,1382 1963,1384 C1953,1387 1966,1376 1956,1376 L1947,1376 1947,1376 L1947,1386 C1947,1397 1949,1384 1949,1391 C1949,1399 1947,1388 1947,1398 L1947,1408 1947,1408 L1957,1408 C1968,1408 1955,1410 1962,1410 C1970,1410 1960,1408 1970,1408 L1980,1408 1980,1408 L1980,1398 C1980,1388 1985,1401 1986,1393 C1987,1385 1980,1396 1980,1386 L1980,1376"/></g><clipPath id="c" clipRule="evenodd" fill="transparent"><use href="#t5649"/></clipPath></defs><svg viewBox="1946 1371 42 40" preserveAspectRatio="xMinYMin meet"><svg width="4380" height="2430"><g><image crossorigin="anonymous" x="0" y="0" href="https://nftpuzzle.license-token.com/assets/completepuzzle.svg" width="100%" height="100%" /><g class="links"><use href="#t5649"/></g></g></svg><svg x="1973" y="1396" height="9%" width="9%" viewBox="0 0 330 330"><g><a xlink:href="https://nftpuzzle.license-token.com/" class="links"><title>See the most innovative NFT based token software licensing project</title><path fill="#E4CF37" id="more" d="M165,0C74.019,0,0,74.019,0,165s74.019,165,165,165s165-74.019,165-165S255.981,0,165,0z M85,190 c-13.785,0-25-11.215-25-25s11.215-25,25-25s25,11.215,25,25S98.785,190,85,190z M165,190c-13.785,0-25-11.215-25-25 s11.215-25,25-25s25,11.215,25,25S178.785,190,165,190z M245,190c-13.785,0-25-11.215-25-25s11.215-25,25-25 c13.785,0,25,11.215,25,25S258.785,190,245,190z"></path></a></g></svg></svg></svg>