<svg version="1.1" xmlns="http://www.w3.org/2000/svg" xmlns:xlink="http://www.w3.org/1999/xlink" fill="transparent" x="0" y="0" width="350" height="350" preserveAspectRatio="xMinYMin slice"><style type="text/css">.links{fill:transparent;stroke: #E4CF37;}.links:hover{fill:#63D272; opacity:0.4;}</style><defs><g id="allt"><path id="t5654" d="M2145,1376 L2134,1376 C2123,1376 2139,1373 2129,1372 C2120,1371 2132,1376 2122,1376 L2112,1376 2112,1376 L2113,1386 C2114,1396 2105,1384 2104,1392 C2103,1401 2115,1387 2113,1397 L2112,1408 2112,1408 L2122,1409 C2133,1410 2120,1401 2129,1400 C2138,1399 2123,1411 2134,1409 L2145,1408 2145,1408 L2145,1397 C2145,1387 2149,1400 2150,1392 C2151,1384 2144,1395 2144,1385 L2145,1376"/></g><clipPath id="c" clipRule="evenodd" fill="transparent"><use href="#t5654"/></clipPath></defs><svg viewBox="2102 1370 50 42" preserveAspectRatio="xMinYMin meet"><svg width="4380" height="2430"><g><image crossorigin="anonymous" x="0" y="0" href="https://nftpuzzle.license-token.com/assets/completepuzzle.svg" width="100%" height="100%" /><g class="links"><use href="#t5654"/></g></g></svg><svg x="2137" y="1397" height="9%" width="9%" viewBox="0 0 330 330"><g><a xlink:href="https://nftpuzzle.license-token.com/" class="links"><title>See the most innovative NFT based token software licensing project</title><path fill="#E4CF37" id="more" d="M165,0C74.019,0,0,74.019,0,165s74.019,165,165,165s165-74.019,165-165S255.981,0,165,0z M85,190 c-13.785,0-25-11.215-25-25s11.215-25,25-25s25,11.215,25,25S98.785,190,85,190z M165,190c-13.785,0-25-11.215-25-25 s11.215-25,25-25s25,11.215,25,25S178.785,190,165,190z M245,190c-13.785,0-25-11.215-25-25s11.215-25,25-25 c13.785,0,25,11.215,25,25S258.785,190,245,190z"></path></a></g></svg></svg></svg>