<svg version="1.1" xmlns="http://www.w3.org/2000/svg" xmlns:xlink="http://www.w3.org/1999/xlink" fill="transparent" x="0" y="0" width="350" height="350" preserveAspectRatio="xMinYMin slice"><style type="text/css">.links{fill:transparent;stroke: #E4CF37;}.links:hover{fill:#63D272; opacity:0.4;}</style><defs><g id="allt"><path id="t5655" d="M2178,1376 L2168,1376 C2159,1376 2169,1373 2161,1373 C2154,1373 2163,1376 2154,1376 L2145,1376 2145,1376 L2144,1385 C2144,1395 2151,1384 2150,1392 C2149,1400 2145,1387 2145,1397 L2145,1408 2145,1408 L2155,1407 C2165,1407 2153,1414 2161,1413 C2170,1412 2157,1408 2167,1408 L2178,1408 2178,1408 L2178,1398 C2179,1389 2173,1401 2174,1392 C2176,1383 2178,1394 2178,1385 L2178,1376"/></g><clipPath id="c" clipRule="evenodd" fill="transparent"><use href="#t5655"/></clipPath></defs><svg viewBox="2143 1372 37 43" preserveAspectRatio="xMinYMin meet"><svg width="4380" height="2430"><g><image crossorigin="anonymous" x="0" y="0" href="https://nftpuzzle.license-token.com/assets/completepuzzle.svg" width="100%" height="100%" /><g class="links"><use href="#t5655"/></g></g></svg><svg x="2165" y="1400" height="9%" width="9%" viewBox="0 0 330 330"><g><a xlink:href="https://nftpuzzle.license-token.com/" class="links"><title>See the most innovative NFT based token software licensing project</title><path fill="#E4CF37" id="more" d="M165,0C74.019,0,0,74.019,0,165s74.019,165,165,165s165-74.019,165-165S255.981,0,165,0z M85,190 c-13.785,0-25-11.215-25-25s11.215-25,25-25s25,11.215,25,25S98.785,190,85,190z M165,190c-13.785,0-25-11.215-25-25 s11.215-25,25-25s25,11.215,25,25S178.785,190,165,190z M245,190c-13.785,0-25-11.215-25-25s11.215-25,25-25 c13.785,0,25,11.215,25,25S258.785,190,245,190z"></path></a></g></svg></svg></svg>