<svg version="1.1" xmlns="http://www.w3.org/2000/svg" xmlns:xlink="http://www.w3.org/1999/xlink" fill="transparent" x="0" y="0" width="350" height="350" preserveAspectRatio="xMinYMin slice"><style type="text/css">.links{fill:transparent;stroke: #E4CF37;}.links:hover{fill:#63D272; opacity:0.4;}</style><defs><g id="allt"><path id="t5658" d="M2277,1376 L2266,1377 C2255,1378 2268,1368 2258,1369 C2249,1371 2262,1376 2253,1376 L2244,1376 2244,1376 L2245,1384 C2246,1393 2238,1383 2239,1391 C2241,1399 2245,1387 2244,1397 L2244,1408 2244,1408 L2253,1409 C2262,1410 2251,1402 2259,1403 C2267,1405 2255,1409 2266,1408 L2277,1408 2277,1408 L2277,1398 C2278,1388 2272,1399 2272,1390 C2272,1381 2279,1395 2278,1385 L2277,1376"/></g><clipPath id="c" clipRule="evenodd" fill="transparent"><use href="#t5658"/></clipPath></defs><svg viewBox="2237 1367 43 44" preserveAspectRatio="xMinYMin meet"><svg width="4380" height="2430"><g><image crossorigin="anonymous" x="0" y="0" href="https://nftpuzzle.license-token.com/assets/completepuzzle.svg" width="100%" height="100%" /><g class="links"><use href="#t5658"/></g></g></svg><svg x="2265" y="1396" height="9%" width="9%" viewBox="0 0 330 330"><g><a xlink:href="https://nftpuzzle.license-token.com/" class="links"><title>See the most innovative NFT based token software licensing project</title><path fill="#E4CF37" id="more" d="M165,0C74.019,0,0,74.019,0,165s74.019,165,165,165s165-74.019,165-165S255.981,0,165,0z M85,190 c-13.785,0-25-11.215-25-25s11.215-25,25-25s25,11.215,25,25S98.785,190,85,190z M165,190c-13.785,0-25-11.215-25-25 s11.215-25,25-25s25,11.215,25,25S178.785,190,165,190z M245,190c-13.785,0-25-11.215-25-25s11.215-25,25-25 c13.785,0,25,11.215,25,25S258.785,190,245,190z"></path></a></g></svg></svg></svg>