<svg version="1.1" xmlns="http://www.w3.org/2000/svg" xmlns:xlink="http://www.w3.org/1999/xlink" fill="transparent" x="0" y="0" width="350" height="350" preserveAspectRatio="xMinYMin slice"><style type="text/css">.links{fill:transparent;stroke: #E4CF37;}.links:hover{fill:#63D272; opacity:0.4;}</style><defs><g id="allt"><path id="t5659" d="M2310,1376 L2300,1376 C2291,1376 2301,1369 2291,1367 C2281,1365 2296,1378 2286,1377 L2277,1376 2277,1376 L2278,1385 C2279,1395 2272,1381 2272,1390 C2272,1399 2278,1388 2277,1398 L2277,1408 2277,1408 L2286,1409 C2296,1410 2282,1403 2291,1403 C2301,1403 2290,1409 2300,1408 L2310,1408 2310,1408 L2310,1397 C2311,1387 2303,1403 2303,1393 C2303,1383 2310,1394 2310,1385 L2310,1376"/></g><clipPath id="c" clipRule="evenodd" fill="transparent"><use href="#t5659"/></clipPath></defs><svg viewBox="2271 1364 41 47" preserveAspectRatio="xMinYMin meet"><svg width="4380" height="2430"><g><image crossorigin="anonymous" x="0" y="0" href="https://nftpuzzle.license-token.com/assets/completepuzzle.svg" width="100%" height="100%" /><g class="links"><use href="#t5659"/></g></g></svg><svg x="2297" y="1396" height="9%" width="9%" viewBox="0 0 330 330"><g><a xlink:href="https://nftpuzzle.license-token.com/" class="links"><title>See the most innovative NFT based token software licensing project</title><path fill="#E4CF37" id="more" d="M165,0C74.019,0,0,74.019,0,165s74.019,165,165,165s165-74.019,165-165S255.981,0,165,0z M85,190 c-13.785,0-25-11.215-25-25s11.215-25,25-25s25,11.215,25,25S98.785,190,85,190z M165,190c-13.785,0-25-11.215-25-25 s11.215-25,25-25s25,11.215,25,25S178.785,190,165,190z M245,190c-13.785,0-25-11.215-25-25s11.215-25,25-25 c13.785,0,25,11.215,25,25S258.785,190,245,190z"></path></a></g></svg></svg></svg>