<svg version="1.1" xmlns="http://www.w3.org/2000/svg" xmlns:xlink="http://www.w3.org/1999/xlink" fill="transparent" x="0" y="0" width="350" height="350" preserveAspectRatio="xMinYMin slice"><style type="text/css">.links{fill:transparent;stroke: #E4CF37;}.links:hover{fill:#63D272; opacity:0.4;}</style><defs><g id="allt"><path id="t5666" d="M2541,1376 L2530,1376 C2520,1376 2535,1368 2526,1368 C2517,1368 2529,1378 2518,1377 L2508,1376 2508,1376 L2508,1385 C2508,1394 2515,1384 2513,1392 C2512,1400 2508,1390 2508,1399 L2508,1408 2508,1408 L2517,1408 C2526,1408 2516,1415 2524,1413 C2533,1412 2522,1408 2531,1408 L2541,1408 2541,1408 L2541,1398 C2541,1388 2548,1398 2547,1390 C2547,1382 2541,1395 2541,1385 L2541,1376"/></g><clipPath id="c" clipRule="evenodd" fill="transparent"><use href="#t5666"/></clipPath></defs><svg viewBox="2507 1367 42 49" preserveAspectRatio="xMinYMin meet"><svg width="4380" height="2430"><g><image crossorigin="anonymous" x="0" y="0" href="https://nftpuzzle.license-token.com/assets/completepuzzle.svg" width="100%" height="100%" /><g class="links"><use href="#t5666"/></g></g></svg><svg x="2534" y="1401" height="9%" width="9%" viewBox="0 0 330 330"><g><a xlink:href="https://nftpuzzle.license-token.com/" class="links"><title>See the most innovative NFT based token software licensing project</title><path fill="#E4CF37" id="more" d="M165,0C74.019,0,0,74.019,0,165s74.019,165,165,165s165-74.019,165-165S255.981,0,165,0z M85,190 c-13.785,0-25-11.215-25-25s11.215-25,25-25s25,11.215,25,25S98.785,190,85,190z M165,190c-13.785,0-25-11.215-25-25 s11.215-25,25-25s25,11.215,25,25S178.785,190,165,190z M245,190c-13.785,0-25-11.215-25-25s11.215-25,25-25 c13.785,0,25,11.215,25,25S258.785,190,245,190z"></path></a></g></svg></svg></svg>