<svg version="1.1" xmlns="http://www.w3.org/2000/svg" xmlns:xlink="http://www.w3.org/1999/xlink" fill="transparent" x="0" y="0" width="350" height="350" preserveAspectRatio="xMinYMin slice"><style type="text/css">.links{fill:transparent;stroke: #E4CF37;}.links:hover{fill:#63D272; opacity:0.4;}</style><defs><g id="allt"><path id="t567" d="M1584,128 L1574,128 C1565,129 1577,125 1568,124 C1559,124 1569,128 1560,128 L1551,128 1551,128 L1550,137 C1549,147 1555,135 1556,143 C1557,152 1549,139 1550,149 L1551,160 1551,160 L1560,159 C1570,158 1558,164 1567,165 C1576,166 1563,158 1573,159 L1584,160 1584,160 L1583,151 C1583,142 1590,152 1589,142 C1588,132 1582,149 1583,138 L1584,128"/></g><clipPath id="c" clipRule="evenodd" fill="transparent"><use href="#t567"/></clipPath></defs><svg viewBox="1548 123 43 44" preserveAspectRatio="xMinYMin meet"><svg width="4380" height="2430"><g><image crossorigin="anonymous" x="0" y="0" href="https://nftpuzzle.license-token.com/assets/completepuzzle.svg" width="100%" height="100%" /><g class="links"><use href="#t567"/></g></g></svg><svg x="1576" y="152" height="9%" width="9%" viewBox="0 0 330 330"><g><a xlink:href="https://nftpuzzle.license-token.com/" class="links"><title>See the most innovative NFT based token software licensing project</title><path fill="#E4CF37" id="more" d="M165,0C74.019,0,0,74.019,0,165s74.019,165,165,165s165-74.019,165-165S255.981,0,165,0z M85,190 c-13.785,0-25-11.215-25-25s11.215-25,25-25s25,11.215,25,25S98.785,190,85,190z M165,190c-13.785,0-25-11.215-25-25 s11.215-25,25-25s25,11.215,25,25S178.785,190,165,190z M245,190c-13.785,0-25-11.215-25-25s11.215-25,25-25 c13.785,0,25,11.215,25,25S258.785,190,245,190z"></path></a></g></svg></svg></svg>