<svg version="1.1" xmlns="http://www.w3.org/2000/svg" xmlns:xlink="http://www.w3.org/1999/xlink" fill="transparent" x="0" y="0" width="350" height="350" preserveAspectRatio="xMinYMin slice"><style type="text/css">.links{fill:transparent;stroke: #E4CF37;}.links:hover{fill:#63D272; opacity:0.4;}</style><defs><g id="allt"><path id="t5671" d="M2706,1376 L2696,1374 C2687,1372 2699,1385 2688,1386 C2678,1388 2695,1376 2684,1376 L2673,1376 2673,1376 L2673,1384 C2673,1393 2677,1382 2676,1391 C2676,1400 2673,1390 2673,1399 L2673,1408 2673,1408 L2682,1408 C2691,1408 2679,1412 2688,1411 C2698,1411 2687,1408 2696,1408 L2706,1408 2706,1408 L2705,1397 C2704,1387 2711,1398 2712,1389 C2713,1380 2706,1393 2706,1384 L2706,1376"/></g><clipPath id="c" clipRule="evenodd" fill="transparent"><use href="#t5671"/></clipPath></defs><svg viewBox="2672 1371 42 42" preserveAspectRatio="xMinYMin meet"><svg width="4380" height="2430"><g><image crossorigin="anonymous" x="0" y="0" href="https://nftpuzzle.license-token.com/assets/completepuzzle.svg" width="100%" height="100%" /><g class="links"><use href="#t5671"/></g></g></svg><svg x="2699" y="1398" height="9%" width="9%" viewBox="0 0 330 330"><g><a xlink:href="https://nftpuzzle.license-token.com/" class="links"><title>See the most innovative NFT based token software licensing project</title><path fill="#E4CF37" id="more" d="M165,0C74.019,0,0,74.019,0,165s74.019,165,165,165s165-74.019,165-165S255.981,0,165,0z M85,190 c-13.785,0-25-11.215-25-25s11.215-25,25-25s25,11.215,25,25S98.785,190,85,190z M165,190c-13.785,0-25-11.215-25-25 s11.215-25,25-25s25,11.215,25,25S178.785,190,165,190z M245,190c-13.785,0-25-11.215-25-25s11.215-25,25-25 c13.785,0,25,11.215,25,25S258.785,190,245,190z"></path></a></g></svg></svg></svg>