<svg version="1.1" xmlns="http://www.w3.org/2000/svg" xmlns:xlink="http://www.w3.org/1999/xlink" fill="transparent" x="0" y="0" width="350" height="350" preserveAspectRatio="xMinYMin slice"><style type="text/css">.links{fill:transparent;stroke: #E4CF37;}.links:hover{fill:#63D272; opacity:0.4;}</style><defs><g id="allt"><path id="t5673" d="M2772,1376 L2762,1376 C2753,1376 2765,1368 2756,1368 C2747,1369 2758,1377 2748,1376 L2739,1376 2739,1376 L2739,1386 C2739,1396 2745,1383 2744,1393 C2744,1403 2738,1387 2738,1397 L2739,1408 2739,1408 L2749,1408 C2760,1408 2746,1414 2756,1413 C2767,1413 2751,1407 2761,1407 L2772,1408 2772,1408 L2772,1398 C2773,1388 2768,1399 2767,1390 C2767,1381 2772,1395 2772,1385 L2772,1376"/></g><clipPath id="c" clipRule="evenodd" fill="transparent"><use href="#t5673"/></clipPath></defs><svg viewBox="2737 1367 37 48" preserveAspectRatio="xMinYMin meet"><svg width="4380" height="2430"><g><image crossorigin="anonymous" x="0" y="0" href="https://nftpuzzle.license-token.com/assets/completepuzzle.svg" width="100%" height="100%" /><g class="links"><use href="#t5673"/></g></g></svg><svg x="2759" y="1400" height="9%" width="9%" viewBox="0 0 330 330"><g><a xlink:href="https://nftpuzzle.license-token.com/" class="links"><title>See the most innovative NFT based token software licensing project</title><path fill="#E4CF37" id="more" d="M165,0C74.019,0,0,74.019,0,165s74.019,165,165,165s165-74.019,165-165S255.981,0,165,0z M85,190 c-13.785,0-25-11.215-25-25s11.215-25,25-25s25,11.215,25,25S98.785,190,85,190z M165,190c-13.785,0-25-11.215-25-25 s11.215-25,25-25s25,11.215,25,25S178.785,190,165,190z M245,190c-13.785,0-25-11.215-25-25s11.215-25,25-25 c13.785,0,25,11.215,25,25S258.785,190,245,190z"></path></a></g></svg></svg></svg>