<svg version="1.1" xmlns="http://www.w3.org/2000/svg" xmlns:xlink="http://www.w3.org/1999/xlink" fill="transparent" x="0" y="0" width="350" height="350" preserveAspectRatio="xMinYMin slice"><style type="text/css">.links{fill:transparent;stroke: #E4CF37;}.links:hover{fill:#63D272; opacity:0.4;}</style><defs><g id="allt"><path id="t5678" d="M2937,1376 L2926,1376 C2916,1376 2932,1379 2920,1379 C2908,1380 2922,1376 2913,1376 L2904,1376 2904,1376 L2904,1385 C2904,1394 2912,1383 2911,1391 C2910,1399 2900,1387 2902,1397 L2904,1408 2904,1408 L2913,1408 C2922,1408 2911,1416 2919,1415 C2928,1414 2915,1404 2926,1406 L2937,1408 2937,1408 L2937,1398 C2937,1388 2930,1399 2931,1391 C2932,1384 2939,1394 2938,1385 L2937,1376"/></g><clipPath id="c" clipRule="evenodd" fill="transparent"><use href="#t5678"/></clipPath></defs><svg viewBox="2899 1375 41 42" preserveAspectRatio="xMinYMin meet"><svg width="4380" height="2430"><g><image crossorigin="anonymous" x="0" y="0" href="https://nftpuzzle.license-token.com/assets/completepuzzle.svg" width="100%" height="100%" /><g class="links"><use href="#t5678"/></g></g></svg><svg x="2925" y="1402" height="9%" width="9%" viewBox="0 0 330 330"><g><a xlink:href="https://nftpuzzle.license-token.com/" class="links"><title>See the most innovative NFT based token software licensing project</title><path fill="#E4CF37" id="more" d="M165,0C74.019,0,0,74.019,0,165s74.019,165,165,165s165-74.019,165-165S255.981,0,165,0z M85,190 c-13.785,0-25-11.215-25-25s11.215-25,25-25s25,11.215,25,25S98.785,190,85,190z M165,190c-13.785,0-25-11.215-25-25 s11.215-25,25-25s25,11.215,25,25S178.785,190,165,190z M245,190c-13.785,0-25-11.215-25-25s11.215-25,25-25 c13.785,0,25,11.215,25,25S258.785,190,245,190z"></path></a></g></svg></svg></svg>