<svg version="1.1" xmlns="http://www.w3.org/2000/svg" xmlns:xlink="http://www.w3.org/1999/xlink" fill="transparent" x="0" y="0" width="350" height="350" preserveAspectRatio="xMinYMin slice"><style type="text/css">.links{fill:transparent;stroke: #E4CF37;}.links:hover{fill:#63D272; opacity:0.4;}</style><defs><g id="allt"><path id="t5685" d="M3168,1376 L3157,1378 C3146,1380 3159,1370 3151,1370 C3144,1371 3153,1376 3144,1376 L3135,1376 3135,1376 L3135,1385 C3135,1395 3126,1382 3127,1391 C3129,1400 3135,1390 3135,1399 L3135,1408 3135,1408 L3144,1408 C3154,1408 3141,1399 3150,1400 C3160,1402 3149,1408 3158,1408 L3168,1408 3168,1408 L3168,1399 C3168,1390 3172,1398 3171,1390 C3171,1383 3166,1395 3167,1385 L3168,1376"/></g><clipPath id="c" clipRule="evenodd" fill="transparent"><use href="#t5685"/></clipPath></defs><svg viewBox="3125 1369 48 40" preserveAspectRatio="xMinYMin meet"><svg width="4380" height="2430"><g><image crossorigin="anonymous" x="0" y="0" href="https://nftpuzzle.license-token.com/assets/completepuzzle.svg" width="100%" height="100%" /><g class="links"><use href="#t5685"/></g></g></svg><svg x="3158" y="1394" height="9%" width="9%" viewBox="0 0 330 330"><g><a xlink:href="https://nftpuzzle.license-token.com/" class="links"><title>See the most innovative NFT based token software licensing project</title><path fill="#E4CF37" id="more" d="M165,0C74.019,0,0,74.019,0,165s74.019,165,165,165s165-74.019,165-165S255.981,0,165,0z M85,190 c-13.785,0-25-11.215-25-25s11.215-25,25-25s25,11.215,25,25S98.785,190,85,190z M165,190c-13.785,0-25-11.215-25-25 s11.215-25,25-25s25,11.215,25,25S178.785,190,165,190z M245,190c-13.785,0-25-11.215-25-25s11.215-25,25-25 c13.785,0,25,11.215,25,25S258.785,190,245,190z"></path></a></g></svg></svg></svg>