<svg version="1.1" xmlns="http://www.w3.org/2000/svg" xmlns:xlink="http://www.w3.org/1999/xlink" fill="transparent" x="0" y="0" width="350" height="350" preserveAspectRatio="xMinYMin slice"><style type="text/css">.links{fill:transparent;stroke: #E4CF37;}.links:hover{fill:#63D272; opacity:0.4;}</style><defs><g id="allt"><path id="t5687" d="M3234,1376 L3223,1376 C3212,1376 3225,1373 3215,1373 C3206,1373 3221,1378 3211,1377 L3201,1376 3201,1376 L3201,1385 C3201,1395 3194,1383 3194,1390 C3195,1398 3204,1389 3202,1398 L3201,1408 3201,1408 L3210,1408 C3220,1408 3208,1401 3216,1401 C3224,1402 3214,1411 3224,1409 L3234,1408 3234,1408 L3232,1398 C3231,1388 3242,1399 3240,1390 C3239,1382 3234,1397 3234,1386 L3234,1376"/></g><clipPath id="c" clipRule="evenodd" fill="transparent"><use href="#t5687"/></clipPath></defs><svg viewBox="3193 1372 50 40" preserveAspectRatio="xMinYMin meet"><svg width="4380" height="2430"><g><image crossorigin="anonymous" x="0" y="0" href="https://nftpuzzle.license-token.com/assets/completepuzzle.svg" width="100%" height="100%" /><g class="links"><use href="#t5687"/></g></g></svg><svg x="3228" y="1397" height="9%" width="9%" viewBox="0 0 330 330"><g><a xlink:href="https://nftpuzzle.license-token.com/" class="links"><title>See the most innovative NFT based token software licensing project</title><path fill="#E4CF37" id="more" d="M165,0C74.019,0,0,74.019,0,165s74.019,165,165,165s165-74.019,165-165S255.981,0,165,0z M85,190 c-13.785,0-25-11.215-25-25s11.215-25,25-25s25,11.215,25,25S98.785,190,85,190z M165,190c-13.785,0-25-11.215-25-25 s11.215-25,25-25s25,11.215,25,25S178.785,190,165,190z M245,190c-13.785,0-25-11.215-25-25s11.215-25,25-25 c13.785,0,25,11.215,25,25S258.785,190,245,190z"></path></a></g></svg></svg></svg>