<svg version="1.1" xmlns="http://www.w3.org/2000/svg" xmlns:xlink="http://www.w3.org/1999/xlink" fill="transparent" x="0" y="0" width="350" height="350" preserveAspectRatio="xMinYMin slice"><style type="text/css">.links{fill:transparent;stroke: #E4CF37;}.links:hover{fill:#63D272; opacity:0.4;}</style><defs><g id="allt"><path id="t5689" d="M3300,1376 L3290,1376 C3280,1376 3290,1384 3281,1384 C3273,1384 3288,1376 3277,1376 L3267,1376 3267,1376 L3266,1386 C3265,1397 3278,1382 3277,1392 C3276,1402 3267,1389 3267,1398 L3267,1408 3267,1408 L3278,1407 C3289,1406 3273,1418 3283,1417 C3294,1417 3280,1408 3290,1408 L3300,1408 3300,1408 L3298,1398 C3296,1388 3312,1400 3312,1392 C3312,1384 3298,1394 3299,1385 L3300,1376"/></g><clipPath id="c" clipRule="evenodd" fill="transparent"><use href="#t5689"/></clipPath></defs><svg viewBox="3264 1375 49 44" preserveAspectRatio="xMinYMin meet"><svg width="4380" height="2430"><g><image crossorigin="anonymous" x="0" y="0" href="https://nftpuzzle.license-token.com/assets/completepuzzle.svg" width="100%" height="100%" /><g class="links"><use href="#t5689"/></g></g></svg><svg x="3298" y="1404" height="9%" width="9%" viewBox="0 0 330 330"><g><a xlink:href="https://nftpuzzle.license-token.com/" class="links"><title>See the most innovative NFT based token software licensing project</title><path fill="#E4CF37" id="more" d="M165,0C74.019,0,0,74.019,0,165s74.019,165,165,165s165-74.019,165-165S255.981,0,165,0z M85,190 c-13.785,0-25-11.215-25-25s11.215-25,25-25s25,11.215,25,25S98.785,190,85,190z M165,190c-13.785,0-25-11.215-25-25 s11.215-25,25-25s25,11.215,25,25S178.785,190,165,190z M245,190c-13.785,0-25-11.215-25-25s11.215-25,25-25 c13.785,0,25,11.215,25,25S258.785,190,245,190z"></path></a></g></svg></svg></svg>