<svg version="1.1" xmlns="http://www.w3.org/2000/svg" xmlns:xlink="http://www.w3.org/1999/xlink" fill="transparent" x="0" y="0" width="350" height="350" preserveAspectRatio="xMinYMin slice"><style type="text/css">.links{fill:transparent;stroke: #E4CF37;}.links:hover{fill:#63D272; opacity:0.4;}</style><defs><g id="allt"><path id="t5696" d="M3531,1376 L3521,1376 C3511,1376 3525,1370 3516,1371 C3507,1372 3520,1378 3509,1377 L3498,1376 3498,1376 L3498,1386 C3498,1396 3491,1383 3491,1390 C3492,1398 3500,1389 3499,1398 L3498,1408 3498,1408 L3508,1408 C3518,1408 3505,1401 3513,1401 C3521,1402 3511,1410 3521,1409 L3531,1408 3531,1408 L3531,1398 C3532,1388 3527,1399 3526,1390 C3526,1382 3533,1394 3532,1385 L3531,1376"/></g><clipPath id="c" clipRule="evenodd" fill="transparent"><use href="#t5696"/></clipPath></defs><svg viewBox="3490 1369 44 42" preserveAspectRatio="xMinYMin meet"><svg width="4380" height="2430"><g><image crossorigin="anonymous" x="0" y="0" href="https://nftpuzzle.license-token.com/assets/completepuzzle.svg" width="100%" height="100%" /><g class="links"><use href="#t5696"/></g></g></svg><svg x="3519" y="1396" height="9%" width="9%" viewBox="0 0 330 330"><g><a xlink:href="https://nftpuzzle.license-token.com/" class="links"><title>See the most innovative NFT based token software licensing project</title><path fill="#E4CF37" id="more" d="M165,0C74.019,0,0,74.019,0,165s74.019,165,165,165s165-74.019,165-165S255.981,0,165,0z M85,190 c-13.785,0-25-11.215-25-25s11.215-25,25-25s25,11.215,25,25S98.785,190,85,190z M165,190c-13.785,0-25-11.215-25-25 s11.215-25,25-25s25,11.215,25,25S178.785,190,165,190z M245,190c-13.785,0-25-11.215-25-25s11.215-25,25-25 c13.785,0,25,11.215,25,25S258.785,190,245,190z"></path></a></g></svg></svg></svg>