<svg version="1.1" xmlns="http://www.w3.org/2000/svg" xmlns:xlink="http://www.w3.org/1999/xlink" fill="transparent" x="0" y="0" width="350" height="350" preserveAspectRatio="xMinYMin slice"><style type="text/css">.links{fill:transparent;stroke: #E4CF37;}.links:hover{fill:#63D272; opacity:0.4;}</style><defs><g id="allt"><path id="t5698" d="M3597,1376 L3586,1376 C3576,1376 3589,1369 3579,1371 C3569,1373 3582,1376 3573,1376 L3564,1376 3564,1376 L3565,1386 C3567,1397 3556,1384 3555,1391 C3555,1399 3566,1388 3565,1398 L3564,1408 3564,1408 L3575,1409 C3586,1411 3573,1400 3580,1400 C3587,1400 3576,1410 3586,1409 L3597,1408 3597,1408 L3596,1398 C3596,1388 3600,1400 3599,1392 C3599,1384 3596,1395 3596,1385 L3597,1376"/></g><clipPath id="c" clipRule="evenodd" fill="transparent"><use href="#t5698"/></clipPath></defs><svg viewBox="3554 1368 47 44" preserveAspectRatio="xMinYMin meet"><svg width="4380" height="2430"><g><image crossorigin="anonymous" x="0" y="0" href="https://nftpuzzle.license-token.com/assets/completepuzzle.svg" width="100%" height="100%" /><g class="links"><use href="#t5698"/></g></g></svg><svg x="3586" y="1397" height="9%" width="9%" viewBox="0 0 330 330"><g><a xlink:href="https://nftpuzzle.license-token.com/" class="links"><title>See the most innovative NFT based token software licensing project</title><path fill="#E4CF37" id="more" d="M165,0C74.019,0,0,74.019,0,165s74.019,165,165,165s165-74.019,165-165S255.981,0,165,0z M85,190 c-13.785,0-25-11.215-25-25s11.215-25,25-25s25,11.215,25,25S98.785,190,85,190z M165,190c-13.785,0-25-11.215-25-25 s11.215-25,25-25s25,11.215,25,25S178.785,190,165,190z M245,190c-13.785,0-25-11.215-25-25s11.215-25,25-25 c13.785,0,25,11.215,25,25S258.785,190,245,190z"></path></a></g></svg></svg></svg>