<svg version="1.1" xmlns="http://www.w3.org/2000/svg" xmlns:xlink="http://www.w3.org/1999/xlink" fill="transparent" x="0" y="0" width="350" height="350" preserveAspectRatio="xMinYMin slice"><style type="text/css">.links{fill:transparent;stroke: #E4CF37;}.links:hover{fill:#63D272; opacity:0.4;}</style><defs><g id="allt"><path id="t570" d="M1683,128 L1672,126 C1661,125 1678,134 1667,135 C1656,137 1671,123 1660,125 L1650,128 1650,128 L1648,137 C1647,146 1655,136 1656,143 C1657,150 1650,142 1650,151 L1650,160 1650,160 L1659,158 C1669,157 1658,165 1665,166 C1673,167 1664,160 1673,160 L1683,160 1683,160 L1683,150 C1683,141 1676,154 1676,145 C1677,136 1687,146 1685,137 L1683,128"/></g><clipPath id="c" clipRule="evenodd" fill="transparent"><use href="#t570"/></clipPath></defs><svg viewBox="1646 122 42 46" preserveAspectRatio="xMinYMin meet"><svg width="4380" height="2430"><g><image crossorigin="anonymous" x="0" y="0" href="https://nftpuzzle.license-token.com/assets/completepuzzle.svg" width="100%" height="100%" /><g class="links"><use href="#t570"/></g></g></svg><svg x="1673" y="153" height="9%" width="9%" viewBox="0 0 330 330"><g><a xlink:href="https://nftpuzzle.license-token.com/" class="links"><title>See the most innovative NFT based token software licensing project</title><path fill="#E4CF37" id="more" d="M165,0C74.019,0,0,74.019,0,165s74.019,165,165,165s165-74.019,165-165S255.981,0,165,0z M85,190 c-13.785,0-25-11.215-25-25s11.215-25,25-25s25,11.215,25,25S98.785,190,85,190z M165,190c-13.785,0-25-11.215-25-25 s11.215-25,25-25s25,11.215,25,25S178.785,190,165,190z M245,190c-13.785,0-25-11.215-25-25s11.215-25,25-25 c13.785,0,25,11.215,25,25S258.785,190,245,190z"></path></a></g></svg></svg></svg>