<svg version="1.1" xmlns="http://www.w3.org/2000/svg" xmlns:xlink="http://www.w3.org/1999/xlink" fill="transparent" x="0" y="0" width="350" height="350" preserveAspectRatio="xMinYMin slice"><style type="text/css">.links{fill:transparent;stroke: #E4CF37;}.links:hover{fill:#63D272; opacity:0.4;}</style><defs><g id="allt"><path id="t5700" d="M3663,1376 L3653,1376 C3643,1376 3656,1380 3646,1380 C3637,1381 3651,1376 3640,1376 L3630,1376 3630,1376 L3629,1386 C3629,1396 3637,1383 3637,1391 C3637,1400 3628,1387 3629,1397 L3630,1408 3630,1408 L3640,1407 C3650,1407 3637,1415 3646,1415 C3655,1415 3642,1406 3652,1407 L3663,1408 3663,1408 L3663,1397 C3663,1386 3650,1400 3652,1392 C3654,1384 3663,1394 3663,1385 L3663,1376"/></g><clipPath id="c" clipRule="evenodd" fill="transparent"><use href="#t5700"/></clipPath></defs><svg viewBox="3627 1375 37 41" preserveAspectRatio="xMinYMin meet"><svg width="4380" height="2430"><g><image crossorigin="anonymous" x="0" y="0" href="https://nftpuzzle.license-token.com/assets/completepuzzle.svg" width="100%" height="100%" /><g class="links"><use href="#t5700"/></g></g></svg><svg x="3649" y="1401" height="9%" width="9%" viewBox="0 0 330 330"><g><a xlink:href="https://nftpuzzle.license-token.com/" class="links"><title>See the most innovative NFT based token software licensing project</title><path fill="#E4CF37" id="more" d="M165,0C74.019,0,0,74.019,0,165s74.019,165,165,165s165-74.019,165-165S255.981,0,165,0z M85,190 c-13.785,0-25-11.215-25-25s11.215-25,25-25s25,11.215,25,25S98.785,190,85,190z M165,190c-13.785,0-25-11.215-25-25 s11.215-25,25-25s25,11.215,25,25S178.785,190,165,190z M245,190c-13.785,0-25-11.215-25-25s11.215-25,25-25 c13.785,0,25,11.215,25,25S258.785,190,245,190z"></path></a></g></svg></svg></svg>