<svg version="1.1" xmlns="http://www.w3.org/2000/svg" xmlns:xlink="http://www.w3.org/1999/xlink" fill="transparent" x="0" y="0" width="350" height="350" preserveAspectRatio="xMinYMin slice"><style type="text/css">.links{fill:transparent;stroke: #E4CF37;}.links:hover{fill:#63D272; opacity:0.4;}</style><defs><g id="allt"><path id="t5704" d="M3795,1376 L3784,1374 C3773,1373 3786,1382 3777,1381 C3768,1380 3781,1376 3771,1376 L3762,1376 3762,1376 L3762,1385 C3762,1395 3757,1383 3756,1392 C3756,1402 3765,1386 3763,1397 L3762,1408 3762,1408 L3772,1408 C3782,1408 3769,1403 3779,1402 C3789,1402 3773,1411 3784,1409 L3795,1408 3795,1408 L3796,1397 C3798,1387 3787,1402 3786,1391 C3785,1381 3795,1393 3795,1384 L3795,1376"/></g><clipPath id="c" clipRule="evenodd" fill="transparent"><use href="#t5704"/></clipPath></defs><svg viewBox="3755 1372 44 40" preserveAspectRatio="xMinYMin meet"><svg width="4380" height="2430"><g><image crossorigin="anonymous" x="0" y="0" href="https://nftpuzzle.license-token.com/assets/completepuzzle.svg" width="100%" height="100%" /><g class="links"><use href="#t5704"/></g></g></svg><svg x="3784" y="1397" height="9%" width="9%" viewBox="0 0 330 330"><g><a xlink:href="https://nftpuzzle.license-token.com/" class="links"><title>See the most innovative NFT based token software licensing project</title><path fill="#E4CF37" id="more" d="M165,0C74.019,0,0,74.019,0,165s74.019,165,165,165s165-74.019,165-165S255.981,0,165,0z M85,190 c-13.785,0-25-11.215-25-25s11.215-25,25-25s25,11.215,25,25S98.785,190,85,190z M165,190c-13.785,0-25-11.215-25-25 s11.215-25,25-25s25,11.215,25,25S178.785,190,165,190z M245,190c-13.785,0-25-11.215-25-25s11.215-25,25-25 c13.785,0,25,11.215,25,25S258.785,190,245,190z"></path></a></g></svg></svg></svg>