<svg version="1.1" xmlns="http://www.w3.org/2000/svg" xmlns:xlink="http://www.w3.org/1999/xlink" fill="transparent" x="0" y="0" width="350" height="350" preserveAspectRatio="xMinYMin slice"><style type="text/css">.links{fill:transparent;stroke: #E4CF37;}.links:hover{fill:#63D272; opacity:0.4;}</style><defs><g id="allt"><path id="t5705" d="M3828,1376 L3817,1375 C3807,1375 3819,1381 3809,1380 C3800,1379 3814,1376 3804,1376 L3795,1376 3795,1376 L3795,1384 C3795,1393 3785,1381 3786,1391 C3787,1402 3798,1387 3796,1397 L3795,1408 3795,1408 L3804,1408 C3813,1408 3800,1398 3811,1399 C3822,1400 3806,1411 3817,1409 L3828,1408 3828,1408 L3827,1398 C3827,1388 3834,1398 3834,1390 C3834,1382 3828,1395 3828,1385 L3828,1376"/></g><clipPath id="c" clipRule="evenodd" fill="transparent"><use href="#t5705"/></clipPath></defs><svg viewBox="3784 1374 51 38" preserveAspectRatio="xMinYMin meet"><svg width="4380" height="2430"><g><image crossorigin="anonymous" x="0" y="0" href="https://nftpuzzle.license-token.com/assets/completepuzzle.svg" width="100%" height="100%" /><g class="links"><use href="#t5705"/></g></g></svg><svg x="3820" y="1397" height="9%" width="9%" viewBox="0 0 330 330"><g><a xlink:href="https://nftpuzzle.license-token.com/" class="links"><title>See the most innovative NFT based token software licensing project</title><path fill="#E4CF37" id="more" d="M165,0C74.019,0,0,74.019,0,165s74.019,165,165,165s165-74.019,165-165S255.981,0,165,0z M85,190 c-13.785,0-25-11.215-25-25s11.215-25,25-25s25,11.215,25,25S98.785,190,85,190z M165,190c-13.785,0-25-11.215-25-25 s11.215-25,25-25s25,11.215,25,25S178.785,190,165,190z M245,190c-13.785,0-25-11.215-25-25s11.215-25,25-25 c13.785,0,25,11.215,25,25S258.785,190,245,190z"></path></a></g></svg></svg></svg>