<svg version="1.1" xmlns="http://www.w3.org/2000/svg" xmlns:xlink="http://www.w3.org/1999/xlink" fill="transparent" x="0" y="0" width="350" height="350" preserveAspectRatio="xMinYMin slice"><style type="text/css">.links{fill:transparent;stroke: #E4CF37;}.links:hover{fill:#63D272; opacity:0.4;}</style><defs><g id="allt"><path id="t5706" d="M3861,1376 L3851,1376 C3842,1377 3853,1367 3844,1368 C3835,1369 3847,1376 3837,1376 L3828,1376 3828,1376 L3828,1385 C3828,1395 3834,1382 3834,1390 C3834,1398 3827,1388 3827,1398 L3828,1408 3828,1408 L3837,1408 C3847,1408 3834,1414 3842,1414 C3851,1414 3840,1407 3850,1407 L3861,1408 3861,1408 L3862,1397 C3863,1387 3852,1402 3852,1391 C3853,1381 3862,1395 3861,1385 L3861,1376"/></g><clipPath id="c" clipRule="evenodd" fill="transparent"><use href="#t5706"/></clipPath></defs><svg viewBox="3826 1366 38 49" preserveAspectRatio="xMinYMin meet"><svg width="4380" height="2430"><g><image crossorigin="anonymous" x="0" y="0" href="https://nftpuzzle.license-token.com/assets/completepuzzle.svg" width="100%" height="100%" /><g class="links"><use href="#t5706"/></g></g></svg><svg x="3849" y="1400" height="9%" width="9%" viewBox="0 0 330 330"><g><a xlink:href="https://nftpuzzle.license-token.com/" class="links"><title>See the most innovative NFT based token software licensing project</title><path fill="#E4CF37" id="more" d="M165,0C74.019,0,0,74.019,0,165s74.019,165,165,165s165-74.019,165-165S255.981,0,165,0z M85,190 c-13.785,0-25-11.215-25-25s11.215-25,25-25s25,11.215,25,25S98.785,190,85,190z M165,190c-13.785,0-25-11.215-25-25 s11.215-25,25-25s25,11.215,25,25S178.785,190,165,190z M245,190c-13.785,0-25-11.215-25-25s11.215-25,25-25 c13.785,0,25,11.215,25,25S258.785,190,245,190z"></path></a></g></svg></svg></svg>