<svg version="1.1" xmlns="http://www.w3.org/2000/svg" xmlns:xlink="http://www.w3.org/1999/xlink" fill="transparent" x="0" y="0" width="350" height="350" preserveAspectRatio="xMinYMin slice"><style type="text/css">.links{fill:transparent;stroke: #E4CF37;}.links:hover{fill:#63D272; opacity:0.4;}</style><defs><g id="allt"><path id="t5708" d="M3927,1376 L3915,1376 C3904,1376 3920,1369 3909,1368 C3899,1368 3915,1378 3904,1377 L3894,1376 3894,1376 L3894,1384 C3895,1393 3886,1385 3886,1393 C3887,1402 3894,1387 3894,1397 L3894,1408 3894,1408 L3903,1408 C3912,1409 3903,1400 3912,1400 C3921,1401 3906,1408 3916,1408 L3927,1408 3927,1408 L3927,1398 C3927,1388 3935,1400 3934,1392 C3933,1384 3927,1395 3927,1385 L3927,1376"/></g><clipPath id="c" clipRule="evenodd" fill="transparent"><use href="#t5708"/></clipPath></defs><svg viewBox="3885 1367 51 43" preserveAspectRatio="xMinYMin meet"><svg width="4380" height="2430"><g><image crossorigin="anonymous" x="0" y="0" href="https://nftpuzzle.license-token.com/assets/completepuzzle.svg" width="100%" height="100%" /><g class="links"><use href="#t5708"/></g></g></svg><svg x="3921" y="1395" height="9%" width="9%" viewBox="0 0 330 330"><g><a xlink:href="https://nftpuzzle.license-token.com/" class="links"><title>See the most innovative NFT based token software licensing project</title><path fill="#E4CF37" id="more" d="M165,0C74.019,0,0,74.019,0,165s74.019,165,165,165s165-74.019,165-165S255.981,0,165,0z M85,190 c-13.785,0-25-11.215-25-25s11.215-25,25-25s25,11.215,25,25S98.785,190,85,190z M165,190c-13.785,0-25-11.215-25-25 s11.215-25,25-25s25,11.215,25,25S178.785,190,165,190z M245,190c-13.785,0-25-11.215-25-25s11.215-25,25-25 c13.785,0,25,11.215,25,25S258.785,190,245,190z"></path></a></g></svg></svg></svg>