<svg version="1.1" xmlns="http://www.w3.org/2000/svg" xmlns:xlink="http://www.w3.org/1999/xlink" fill="transparent" x="0" y="0" width="350" height="350" preserveAspectRatio="xMinYMin slice"><style type="text/css">.links{fill:transparent;stroke: #E4CF37;}.links:hover{fill:#63D272; opacity:0.4;}</style><defs><g id="allt"><path id="t571" d="M1716,128 L1706,128 C1697,129 1707,121 1699,122 C1692,123 1705,128 1694,128 L1683,128 1683,128 L1685,137 C1687,146 1677,136 1676,145 C1676,154 1683,141 1683,150 L1683,160 1683,160 L1692,162 C1702,164 1691,154 1700,153 C1710,153 1696,160 1706,160 L1716,160 1716,160 L1716,149 C1717,138 1712,152 1712,142 C1712,133 1716,147 1716,137 L1716,128"/></g><clipPath id="c" clipRule="evenodd" fill="transparent"><use href="#t571"/></clipPath></defs><svg viewBox="1675 120 43 45" preserveAspectRatio="xMinYMin meet"><svg width="4380" height="2430"><g><image crossorigin="anonymous" x="0" y="0" href="https://nftpuzzle.license-token.com/assets/completepuzzle.svg" width="100%" height="100%" /><g class="links"><use href="#t571"/></g></g></svg><svg x="1703" y="150" height="9%" width="9%" viewBox="0 0 330 330"><g><a xlink:href="https://nftpuzzle.license-token.com/" class="links"><title>See the most innovative NFT based token software licensing project</title><path fill="#E4CF37" id="more" d="M165,0C74.019,0,0,74.019,0,165s74.019,165,165,165s165-74.019,165-165S255.981,0,165,0z M85,190 c-13.785,0-25-11.215-25-25s11.215-25,25-25s25,11.215,25,25S98.785,190,85,190z M165,190c-13.785,0-25-11.215-25-25 s11.215-25,25-25s25,11.215,25,25S178.785,190,165,190z M245,190c-13.785,0-25-11.215-25-25s11.215-25,25-25 c13.785,0,25,11.215,25,25S258.785,190,245,190z"></path></a></g></svg></svg></svg>