<svg version="1.1" xmlns="http://www.w3.org/2000/svg" xmlns:xlink="http://www.w3.org/1999/xlink" fill="transparent" x="0" y="0" width="350" height="350" preserveAspectRatio="xMinYMin slice"><style type="text/css">.links{fill:transparent;stroke: #E4CF37;}.links:hover{fill:#63D272; opacity:0.4;}</style><defs><g id="allt"><path id="t5713" d="M4092,1376 L4081,1374 C4070,1373 4086,1386 4075,1387 C4064,1389 4078,1376 4068,1376 L4059,1376 4059,1376 L4060,1385 C4062,1394 4055,1385 4052,1393 C4050,1401 4059,1388 4059,1398 L4059,1408 4059,1408 L4068,1409 C4078,1411 4068,1404 4076,1401 C4085,1399 4071,1408 4081,1408 L4092,1408 4092,1408 L4091,1399 C4091,1390 4095,1400 4096,1392 C4098,1384 4092,1394 4092,1385 L4092,1376"/></g><clipPath id="c" clipRule="evenodd" fill="transparent"><use href="#t5713"/></clipPath></defs><svg viewBox="4049 1372 50 40" preserveAspectRatio="xMinYMin meet"><svg width="4380" height="2430"><g><image crossorigin="anonymous" x="0" y="0" href="https://nftpuzzle.license-token.com/assets/completepuzzle.svg" width="100%" height="100%" /><g class="links"><use href="#t5713"/></g></g></svg><svg x="4084" y="1397" height="9%" width="9%" viewBox="0 0 330 330"><g><a xlink:href="https://nftpuzzle.license-token.com/" class="links"><title>See the most innovative NFT based token software licensing project</title><path fill="#E4CF37" id="more" d="M165,0C74.019,0,0,74.019,0,165s74.019,165,165,165s165-74.019,165-165S255.981,0,165,0z M85,190 c-13.785,0-25-11.215-25-25s11.215-25,25-25s25,11.215,25,25S98.785,190,85,190z M165,190c-13.785,0-25-11.215-25-25 s11.215-25,25-25s25,11.215,25,25S178.785,190,165,190z M245,190c-13.785,0-25-11.215-25-25s11.215-25,25-25 c13.785,0,25,11.215,25,25S258.785,190,245,190z"></path></a></g></svg></svg></svg>