<svg version="1.1" xmlns="http://www.w3.org/2000/svg" xmlns:xlink="http://www.w3.org/1999/xlink" fill="transparent" x="0" y="0" width="350" height="350" preserveAspectRatio="xMinYMin slice"><style type="text/css">.links{fill:transparent;stroke: #E4CF37;}.links:hover{fill:#63D272; opacity:0.4;}</style><defs><g id="allt"><path id="t5721" d="M66,1408 L55,1408 C44,1408 60,1414 51,1415 C42,1416 51,1404 42,1406 L33,1408 33,1408 L33,1417 C33,1427 31,1415 30,1424 C30,1434 35,1420 34,1430 L33,1440 33,1440 L43,1440 C53,1440 40,1438 50,1437 C60,1437 45,1442 55,1441 L66,1440 66,1440 L68,1431 C70,1422 57,1432 56,1424 C56,1417 66,1429 66,1418 L66,1408"/></g><clipPath id="c" clipRule="evenodd" fill="transparent"><use href="#t5721"/></clipPath></defs><svg viewBox="29 1403 42 40" preserveAspectRatio="xMinYMin meet"><svg width="4380" height="2430"><g><image crossorigin="anonymous" x="0" y="0" href="https://nftpuzzle.license-token.com/assets/completepuzzle.svg" width="100%" height="100%" /><g class="links"><use href="#t5721"/></g></g></svg><svg x="56" y="1428" height="9%" width="9%" viewBox="0 0 330 330"><g><a xlink:href="https://nftpuzzle.license-token.com/" class="links"><title>See the most innovative NFT based token software licensing project</title><path fill="#E4CF37" id="more" d="M165,0C74.019,0,0,74.019,0,165s74.019,165,165,165s165-74.019,165-165S255.981,0,165,0z M85,190 c-13.785,0-25-11.215-25-25s11.215-25,25-25s25,11.215,25,25S98.785,190,85,190z M165,190c-13.785,0-25-11.215-25-25 s11.215-25,25-25s25,11.215,25,25S178.785,190,165,190z M245,190c-13.785,0-25-11.215-25-25s11.215-25,25-25 c13.785,0,25,11.215,25,25S258.785,190,245,190z"></path></a></g></svg></svg></svg>