<svg version="1.1" xmlns="http://www.w3.org/2000/svg" xmlns:xlink="http://www.w3.org/1999/xlink" fill="transparent" x="0" y="0" width="350" height="350" preserveAspectRatio="xMinYMin slice"><style type="text/css">.links{fill:transparent;stroke: #E4CF37;}.links:hover{fill:#63D272; opacity:0.4;}</style><defs><g id="allt"><path id="t5724" d="M165,1408 L155,1410 C146,1412 158,1398 149,1397 C140,1397 153,1408 142,1408 L132,1408 132,1408 L132,1418 C132,1428 137,1416 136,1423 C136,1430 132,1419 132,1429 L132,1440 132,1440 L142,1440 C152,1440 140,1445 147,1444 C155,1444 143,1440 154,1440 L165,1440 165,1440 L165,1430 C166,1421 158,1431 157,1422 C157,1413 167,1426 166,1417 L165,1408"/></g><clipPath id="c" clipRule="evenodd" fill="transparent"><use href="#t5724"/></clipPath></defs><svg viewBox="131 1396 37 50" preserveAspectRatio="xMinYMin meet"><svg width="4380" height="2430"><g><image crossorigin="anonymous" x="0" y="0" href="https://nftpuzzle.license-token.com/assets/completepuzzle.svg" width="100%" height="100%" /><g class="links"><use href="#t5724"/></g></g></svg><svg x="153" y="1431" height="9%" width="9%" viewBox="0 0 330 330"><g><a xlink:href="https://nftpuzzle.license-token.com/" class="links"><title>See the most innovative NFT based token software licensing project</title><path fill="#E4CF37" id="more" d="M165,0C74.019,0,0,74.019,0,165s74.019,165,165,165s165-74.019,165-165S255.981,0,165,0z M85,190 c-13.785,0-25-11.215-25-25s11.215-25,25-25s25,11.215,25,25S98.785,190,85,190z M165,190c-13.785,0-25-11.215-25-25 s11.215-25,25-25s25,11.215,25,25S178.785,190,165,190z M245,190c-13.785,0-25-11.215-25-25s11.215-25,25-25 c13.785,0,25,11.215,25,25S258.785,190,245,190z"></path></a></g></svg></svg></svg>