<svg version="1.1" xmlns="http://www.w3.org/2000/svg" xmlns:xlink="http://www.w3.org/1999/xlink" fill="transparent" x="0" y="0" width="350" height="350" preserveAspectRatio="xMinYMin slice"><style type="text/css">.links{fill:transparent;stroke: #E4CF37;}.links:hover{fill:#63D272; opacity:0.4;}</style><defs><g id="allt"><path id="t5725" d="M198,1408 L188,1407 C179,1407 189,1412 180,1411 C172,1411 187,1406 176,1407 L165,1408 165,1408 L166,1417 C167,1426 157,1413 157,1422 C158,1431 166,1421 165,1430 L165,1440 165,1440 L174,1441 C184,1442 170,1432 179,1432 C189,1433 179,1441 188,1440 L198,1440 198,1440 L198,1430 C198,1420 187,1433 189,1423 C191,1413 198,1428 198,1418 L198,1408"/></g><clipPath id="c" clipRule="evenodd" fill="transparent"><use href="#t5725"/></clipPath></defs><svg viewBox="156 1405 43 38" preserveAspectRatio="xMinYMin meet"><svg width="4380" height="2430"><g><image crossorigin="anonymous" x="0" y="0" href="https://nftpuzzle.license-token.com/assets/completepuzzle.svg" width="100%" height="100%" /><g class="links"><use href="#t5725"/></g></g></svg><svg x="184" y="1428" height="9%" width="9%" viewBox="0 0 330 330"><g><a xlink:href="https://nftpuzzle.license-token.com/" class="links"><title>See the most innovative NFT based token software licensing project</title><path fill="#E4CF37" id="more" d="M165,0C74.019,0,0,74.019,0,165s74.019,165,165,165s165-74.019,165-165S255.981,0,165,0z M85,190 c-13.785,0-25-11.215-25-25s11.215-25,25-25s25,11.215,25,25S98.785,190,85,190z M165,190c-13.785,0-25-11.215-25-25 s11.215-25,25-25s25,11.215,25,25S178.785,190,165,190z M245,190c-13.785,0-25-11.215-25-25s11.215-25,25-25 c13.785,0,25,11.215,25,25S258.785,190,245,190z"></path></a></g></svg></svg></svg>