<svg version="1.1" xmlns="http://www.w3.org/2000/svg" xmlns:xlink="http://www.w3.org/1999/xlink" fill="transparent" x="0" y="0" width="350" height="350" preserveAspectRatio="xMinYMin slice"><style type="text/css">.links{fill:transparent;stroke: #E4CF37;}.links:hover{fill:#63D272; opacity:0.4;}</style><defs><g id="allt"><path id="t5727" d="M264,1408 L254,1409 C244,1411 255,1401 245,1402 C236,1403 250,1410 240,1409 L231,1408 231,1408 L231,1417 C232,1426 227,1413 227,1422 C227,1432 232,1419 231,1429 L231,1440 231,1440 L240,1440 C250,1441 236,1436 246,1436 C256,1436 242,1441 253,1440 L264,1440 264,1440 L265,1431 C266,1422 255,1434 257,1424 C259,1414 264,1427 264,1417 L264,1408"/></g><clipPath id="c" clipRule="evenodd" fill="transparent"><use href="#t5727"/></clipPath></defs><svg viewBox="226 1400 41 42" preserveAspectRatio="xMinYMin meet"><svg width="4380" height="2430"><g><image crossorigin="anonymous" x="0" y="0" href="https://nftpuzzle.license-token.com/assets/completepuzzle.svg" width="100%" height="100%" /><g class="links"><use href="#t5727"/></g></g></svg><svg x="252" y="1427" height="9%" width="9%" viewBox="0 0 330 330"><g><a xlink:href="https://nftpuzzle.license-token.com/" class="links"><title>See the most innovative NFT based token software licensing project</title><path fill="#E4CF37" id="more" d="M165,0C74.019,0,0,74.019,0,165s74.019,165,165,165s165-74.019,165-165S255.981,0,165,0z M85,190 c-13.785,0-25-11.215-25-25s11.215-25,25-25s25,11.215,25,25S98.785,190,85,190z M165,190c-13.785,0-25-11.215-25-25 s11.215-25,25-25s25,11.215,25,25S178.785,190,165,190z M245,190c-13.785,0-25-11.215-25-25s11.215-25,25-25 c13.785,0,25,11.215,25,25S258.785,190,245,190z"></path></a></g></svg></svg></svg>