<svg version="1.1" xmlns="http://www.w3.org/2000/svg" xmlns:xlink="http://www.w3.org/1999/xlink" fill="transparent" x="0" y="0" width="350" height="350" preserveAspectRatio="xMinYMin slice"><style type="text/css">.links{fill:transparent;stroke: #E4CF37;}.links:hover{fill:#63D272; opacity:0.4;}</style><defs><g id="allt"><path id="t5737" d="M594,1408 L583,1408 C573,1408 588,1416 577,1415 C566,1415 579,1407 570,1407 L561,1408 561,1408 L561,1417 C561,1427 568,1416 567,1424 C566,1433 561,1420 561,1430 L561,1440 561,1440 L571,1440 C581,1440 569,1447 578,1446 C587,1445 573,1440 583,1440 L594,1440 594,1440 L594,1430 C594,1420 589,1433 589,1425 C590,1417 597,1427 595,1417 L594,1408"/></g><clipPath id="c" clipRule="evenodd" fill="transparent"><use href="#t5737"/></clipPath></defs><svg viewBox="560 1406 38 42" preserveAspectRatio="xMinYMin meet"><svg width="4380" height="2430"><g><image crossorigin="anonymous" x="0" y="0" href="https://nftpuzzle.license-token.com/assets/completepuzzle.svg" width="100%" height="100%" /><g class="links"><use href="#t5737"/></g></g></svg><svg x="583" y="1433" height="9%" width="9%" viewBox="0 0 330 330"><g><a xlink:href="https://nftpuzzle.license-token.com/" class="links"><title>See the most innovative NFT based token software licensing project</title><path fill="#E4CF37" id="more" d="M165,0C74.019,0,0,74.019,0,165s74.019,165,165,165s165-74.019,165-165S255.981,0,165,0z M85,190 c-13.785,0-25-11.215-25-25s11.215-25,25-25s25,11.215,25,25S98.785,190,85,190z M165,190c-13.785,0-25-11.215-25-25 s11.215-25,25-25s25,11.215,25,25S178.785,190,165,190z M245,190c-13.785,0-25-11.215-25-25s11.215-25,25-25 c13.785,0,25,11.215,25,25S258.785,190,245,190z"></path></a></g></svg></svg></svg>