<svg version="1.1" xmlns="http://www.w3.org/2000/svg" xmlns:xlink="http://www.w3.org/1999/xlink" fill="transparent" x="0" y="0" width="350" height="350" preserveAspectRatio="xMinYMin slice"><style type="text/css">.links{fill:transparent;stroke: #E4CF37;}.links:hover{fill:#63D272; opacity:0.4;}</style><defs><g id="allt"><path id="t5748" d="M957,1408 L946,1408 C935,1408 947,1410 939,1411 C931,1412 943,1408 933,1408 L924,1408 924,1408 L922,1417 C920,1427 932,1413 932,1423 C932,1433 923,1419 923,1429 L924,1440 924,1440 L934,1438 C944,1436 929,1448 939,1448 C950,1448 935,1439 946,1439 L957,1440 957,1440 L957,1430 C957,1421 951,1433 949,1425 C948,1417 961,1426 959,1417 L957,1408"/></g><clipPath id="c" clipRule="evenodd" fill="transparent"><use href="#t5748"/></clipPath></defs><svg viewBox="919 1407 43 42" preserveAspectRatio="xMinYMin meet"><svg width="4380" height="2430"><g><image crossorigin="anonymous" x="0" y="0" href="https://nftpuzzle.license-token.com/assets/completepuzzle.svg" width="100%" height="100%" /><g class="links"><use href="#t5748"/></g></g></svg><svg x="947" y="1434" height="9%" width="9%" viewBox="0 0 330 330"><g><a xlink:href="https://nftpuzzle.license-token.com/" class="links"><title>See the most innovative NFT based token software licensing project</title><path fill="#E4CF37" id="more" d="M165,0C74.019,0,0,74.019,0,165s74.019,165,165,165s165-74.019,165-165S255.981,0,165,0z M85,190 c-13.785,0-25-11.215-25-25s11.215-25,25-25s25,11.215,25,25S98.785,190,85,190z M165,190c-13.785,0-25-11.215-25-25 s11.215-25,25-25s25,11.215,25,25S178.785,190,165,190z M245,190c-13.785,0-25-11.215-25-25s11.215-25,25-25 c13.785,0,25,11.215,25,25S258.785,190,245,190z"></path></a></g></svg></svg></svg>