<svg version="1.1" xmlns="http://www.w3.org/2000/svg" xmlns:xlink="http://www.w3.org/1999/xlink" fill="transparent" x="0" y="0" width="350" height="350" preserveAspectRatio="xMinYMin slice"><style type="text/css">.links{fill:transparent;stroke: #E4CF37;}.links:hover{fill:#63D272; opacity:0.4;}</style><defs><g id="allt"><path id="t575" d="M1848,128 L1837,129 C1826,131 1839,119 1830,120 C1821,121 1836,131 1825,129 L1815,128 1815,128 L1815,137 C1815,147 1812,136 1812,143 C1812,150 1816,141 1815,150 L1815,160 1815,160 L1824,160 C1834,160 1823,157 1830,157 C1838,157 1828,161 1838,160 L1848,160 1848,160 L1849,149 C1851,139 1836,153 1837,143 C1838,133 1848,146 1848,137 L1848,128"/></g><clipPath id="c" clipRule="evenodd" fill="transparent"><use href="#t575"/></clipPath></defs><svg viewBox="1811 118 41 44" preserveAspectRatio="xMinYMin meet"><svg width="4380" height="2430"><g><image crossorigin="anonymous" x="0" y="0" href="https://nftpuzzle.license-token.com/assets/completepuzzle.svg" width="100%" height="100%" /><g class="links"><use href="#t575"/></g></g></svg><svg x="1837" y="147" height="9%" width="9%" viewBox="0 0 330 330"><g><a xlink:href="https://nftpuzzle.license-token.com/" class="links"><title>See the most innovative NFT based token software licensing project</title><path fill="#E4CF37" id="more" d="M165,0C74.019,0,0,74.019,0,165s74.019,165,165,165s165-74.019,165-165S255.981,0,165,0z M85,190 c-13.785,0-25-11.215-25-25s11.215-25,25-25s25,11.215,25,25S98.785,190,85,190z M165,190c-13.785,0-25-11.215-25-25 s11.215-25,25-25s25,11.215,25,25S178.785,190,165,190z M245,190c-13.785,0-25-11.215-25-25s11.215-25,25-25 c13.785,0,25,11.215,25,25S258.785,190,245,190z"></path></a></g></svg></svg></svg>