<svg version="1.1" xmlns="http://www.w3.org/2000/svg" xmlns:xlink="http://www.w3.org/1999/xlink" fill="transparent" x="0" y="0" width="350" height="350" preserveAspectRatio="xMinYMin slice"><style type="text/css">.links{fill:transparent;stroke: #E4CF37;}.links:hover{fill:#63D272; opacity:0.4;}</style><defs><g id="allt"><path id="t5755" d="M1188,1408 L1177,1407 C1166,1407 1179,1413 1171,1414 C1164,1415 1176,1404 1165,1406 L1155,1408 1155,1408 L1154,1417 C1154,1427 1162,1415 1160,1423 C1159,1431 1152,1418 1153,1429 L1155,1440 1155,1440 L1164,1439 C1174,1439 1162,1447 1170,1445 C1179,1444 1165,1437 1176,1438 L1188,1440 1188,1440 L1186,1430 C1184,1421 1197,1433 1197,1423 C1198,1414 1188,1427 1188,1417 L1188,1408"/></g><clipPath id="c" clipRule="evenodd" fill="transparent"><use href="#t5755"/></clipPath></defs><svg viewBox="1151 1403 48 45" preserveAspectRatio="xMinYMin meet"><svg width="4380" height="2430"><g><image crossorigin="anonymous" x="0" y="0" href="https://nftpuzzle.license-token.com/assets/completepuzzle.svg" width="100%" height="100%" /><g class="links"><use href="#t5755"/></g></g></svg><svg x="1184" y="1433" height="9%" width="9%" viewBox="0 0 330 330"><g><a xlink:href="https://nftpuzzle.license-token.com/" class="links"><title>See the most innovative NFT based token software licensing project</title><path fill="#E4CF37" id="more" d="M165,0C74.019,0,0,74.019,0,165s74.019,165,165,165s165-74.019,165-165S255.981,0,165,0z M85,190 c-13.785,0-25-11.215-25-25s11.215-25,25-25s25,11.215,25,25S98.785,190,85,190z M165,190c-13.785,0-25-11.215-25-25 s11.215-25,25-25s25,11.215,25,25S178.785,190,165,190z M245,190c-13.785,0-25-11.215-25-25s11.215-25,25-25 c13.785,0,25,11.215,25,25S258.785,190,245,190z"></path></a></g></svg></svg></svg>