<svg version="1.1" xmlns="http://www.w3.org/2000/svg" xmlns:xlink="http://www.w3.org/1999/xlink" fill="transparent" x="0" y="0" width="350" height="350" preserveAspectRatio="xMinYMin slice"><style type="text/css">.links{fill:transparent;stroke: #E4CF37;}.links:hover{fill:#63D272; opacity:0.4;}</style><defs><g id="allt"><path id="t5758" d="M1287,1408 L1277,1408 C1267,1408 1277,1411 1270,1411 C1263,1412 1275,1408 1264,1408 L1254,1408 1254,1408 L1253,1416 C1253,1425 1257,1415 1257,1423 C1257,1431 1254,1421 1254,1430 L1254,1440 1254,1440 L1263,1439 C1272,1439 1261,1443 1269,1443 C1278,1443 1267,1440 1277,1440 L1287,1440 1287,1440 L1287,1429 C1287,1419 1281,1431 1278,1422 C1276,1413 1287,1428 1287,1418 L1287,1408"/></g><clipPath id="c" clipRule="evenodd" fill="transparent"><use href="#t5758"/></clipPath></defs><svg viewBox="1252 1407 36 37" preserveAspectRatio="xMinYMin meet"><svg width="4380" height="2430"><g><image crossorigin="anonymous" x="0" y="0" href="https://nftpuzzle.license-token.com/assets/completepuzzle.svg" width="100%" height="100%" /><g class="links"><use href="#t5758"/></g></g></svg><svg x="1273" y="1429" height="9%" width="9%" viewBox="0 0 330 330"><g><a xlink:href="https://nftpuzzle.license-token.com/" class="links"><title>See the most innovative NFT based token software licensing project</title><path fill="#E4CF37" id="more" d="M165,0C74.019,0,0,74.019,0,165s74.019,165,165,165s165-74.019,165-165S255.981,0,165,0z M85,190 c-13.785,0-25-11.215-25-25s11.215-25,25-25s25,11.215,25,25S98.785,190,85,190z M165,190c-13.785,0-25-11.215-25-25 s11.215-25,25-25s25,11.215,25,25S178.785,190,165,190z M245,190c-13.785,0-25-11.215-25-25s11.215-25,25-25 c13.785,0,25,11.215,25,25S258.785,190,245,190z"></path></a></g></svg></svg></svg>