<svg version="1.1" xmlns="http://www.w3.org/2000/svg" xmlns:xlink="http://www.w3.org/1999/xlink" fill="transparent" x="0" y="0" width="350" height="350" preserveAspectRatio="xMinYMin slice"><style type="text/css">.links{fill:transparent;stroke: #E4CF37;}.links:hover{fill:#63D272; opacity:0.4;}</style><defs><g id="allt"><path id="t576" d="M1881,128 L1871,128 C1862,128 1875,123 1864,123 C1854,123 1868,129 1858,128 L1848,128 1848,128 L1848,137 C1848,146 1838,133 1837,143 C1836,153 1851,139 1849,149 L1848,160 1848,160 L1857,160 C1866,160 1853,150 1863,149 C1874,149 1860,163 1870,161 L1881,160 1881,160 L1880,150 C1880,141 1888,153 1887,144 C1887,136 1876,146 1878,137 L1881,128"/></g><clipPath id="c" clipRule="evenodd" fill="transparent"><use href="#t576"/></clipPath></defs><svg viewBox="1835 122 54 42" preserveAspectRatio="xMinYMin meet"><svg width="4380" height="2430"><g><image crossorigin="anonymous" x="0" y="0" href="https://nftpuzzle.license-token.com/assets/completepuzzle.svg" width="100%" height="100%" /><g class="links"><use href="#t576"/></g></g></svg><svg x="1874" y="149" height="9%" width="9%" viewBox="0 0 330 330"><g><a xlink:href="https://nftpuzzle.license-token.com/" class="links"><title>See the most innovative NFT based token software licensing project</title><path fill="#E4CF37" id="more" d="M165,0C74.019,0,0,74.019,0,165s74.019,165,165,165s165-74.019,165-165S255.981,0,165,0z M85,190 c-13.785,0-25-11.215-25-25s11.215-25,25-25s25,11.215,25,25S98.785,190,85,190z M165,190c-13.785,0-25-11.215-25-25 s11.215-25,25-25s25,11.215,25,25S178.785,190,165,190z M245,190c-13.785,0-25-11.215-25-25s11.215-25,25-25 c13.785,0,25,11.215,25,25S258.785,190,245,190z"></path></a></g></svg></svg></svg>