<svg version="1.1" xmlns="http://www.w3.org/2000/svg" xmlns:xlink="http://www.w3.org/1999/xlink" fill="transparent" x="0" y="0" width="350" height="350" preserveAspectRatio="xMinYMin slice"><style type="text/css">.links{fill:transparent;stroke: #E4CF37;}.links:hover{fill:#63D272; opacity:0.4;}</style><defs><g id="allt"><path id="t5760" d="M1353,1408 L1342,1406 C1331,1405 1346,1412 1336,1413 C1327,1414 1339,1405 1329,1406 L1320,1408 1320,1408 L1320,1417 C1320,1427 1332,1412 1328,1422 C1325,1433 1315,1420 1317,1430 L1320,1440 1320,1440 L1330,1440 C1340,1440 1324,1452 1335,1448 C1346,1445 1332,1435 1342,1437 L1353,1440 1353,1440 L1353,1430 C1353,1420 1350,1432 1349,1423 C1348,1415 1353,1427 1353,1417 L1353,1408"/></g><clipPath id="c" clipRule="evenodd" fill="transparent"><use href="#t5760"/></clipPath></defs><svg viewBox="1314 1404 40 49" preserveAspectRatio="xMinYMin meet"><svg width="4380" height="2430"><g><image crossorigin="anonymous" x="0" y="0" href="https://nftpuzzle.license-token.com/assets/completepuzzle.svg" width="100%" height="100%" /><g class="links"><use href="#t5760"/></g></g></svg><svg x="1339" y="1438" height="9%" width="9%" viewBox="0 0 330 330"><g><a xlink:href="https://nftpuzzle.license-token.com/" class="links"><title>See the most innovative NFT based token software licensing project</title><path fill="#E4CF37" id="more" d="M165,0C74.019,0,0,74.019,0,165s74.019,165,165,165s165-74.019,165-165S255.981,0,165,0z M85,190 c-13.785,0-25-11.215-25-25s11.215-25,25-25s25,11.215,25,25S98.785,190,85,190z M165,190c-13.785,0-25-11.215-25-25 s11.215-25,25-25s25,11.215,25,25S178.785,190,165,190z M245,190c-13.785,0-25-11.215-25-25s11.215-25,25-25 c13.785,0,25,11.215,25,25S258.785,190,245,190z"></path></a></g></svg></svg></svg>