<svg version="1.1" xmlns="http://www.w3.org/2000/svg" xmlns:xlink="http://www.w3.org/1999/xlink" fill="transparent" x="0" y="0" width="350" height="350" preserveAspectRatio="xMinYMin slice"><style type="text/css">.links{fill:transparent;stroke: #E4CF37;}.links:hover{fill:#63D272; opacity:0.4;}</style><defs><g id="allt"><path id="t5763" d="M1452,1408 L1442,1408 C1432,1409 1446,1406 1435,1405 C1425,1405 1440,1409 1429,1408 L1419,1408 1419,1408 L1419,1417 C1419,1426 1425,1416 1426,1423 C1427,1431 1415,1421 1417,1430 L1419,1440 1419,1440 L1428,1440 C1438,1440 1428,1446 1435,1447 C1443,1448 1432,1436 1442,1438 L1452,1440 1452,1440 L1452,1430 C1452,1421 1458,1433 1458,1423 C1459,1414 1452,1427 1452,1417 L1452,1408"/></g><clipPath id="c" clipRule="evenodd" fill="transparent"><use href="#t5763"/></clipPath></defs><svg viewBox="1414 1404 46 45" preserveAspectRatio="xMinYMin meet"><svg width="4380" height="2430"><g><image crossorigin="anonymous" x="0" y="0" href="https://nftpuzzle.license-token.com/assets/completepuzzle.svg" width="100%" height="100%" /><g class="links"><use href="#t5763"/></g></g></svg><svg x="1445" y="1434" height="9%" width="9%" viewBox="0 0 330 330"><g><a xlink:href="https://nftpuzzle.license-token.com/" class="links"><title>See the most innovative NFT based token software licensing project</title><path fill="#E4CF37" id="more" d="M165,0C74.019,0,0,74.019,0,165s74.019,165,165,165s165-74.019,165-165S255.981,0,165,0z M85,190 c-13.785,0-25-11.215-25-25s11.215-25,25-25s25,11.215,25,25S98.785,190,85,190z M165,190c-13.785,0-25-11.215-25-25 s11.215-25,25-25s25,11.215,25,25S178.785,190,165,190z M245,190c-13.785,0-25-11.215-25-25s11.215-25,25-25 c13.785,0,25,11.215,25,25S258.785,190,245,190z"></path></a></g></svg></svg></svg>