<svg version="1.1" xmlns="http://www.w3.org/2000/svg" xmlns:xlink="http://www.w3.org/1999/xlink" fill="transparent" x="0" y="0" width="350" height="350" preserveAspectRatio="xMinYMin slice"><style type="text/css">.links{fill:transparent;stroke: #E4CF37;}.links:hover{fill:#63D272; opacity:0.4;}</style><defs><g id="allt"><path id="t5773" d="M1782,1408 L1772,1406 C1763,1405 1774,1413 1766,1414 C1758,1415 1770,1405 1759,1406 L1749,1408 1749,1408 L1750,1417 C1752,1427 1739,1414 1740,1424 C1741,1435 1753,1421 1751,1430 L1749,1440 1749,1440 L1759,1441 C1769,1443 1755,1430 1766,1431 C1777,1432 1762,1444 1772,1442 L1782,1440 1782,1440 L1782,1429 C1782,1419 1778,1433 1776,1423 C1775,1414 1784,1425 1783,1416 L1782,1408"/></g><clipPath id="c" clipRule="evenodd" fill="transparent"><use href="#t5773"/></clipPath></defs><svg viewBox="1738 1404 47 41" preserveAspectRatio="xMinYMin meet"><svg width="4380" height="2430"><g><image crossorigin="anonymous" x="0" y="0" href="https://nftpuzzle.license-token.com/assets/completepuzzle.svg" width="100%" height="100%" /><g class="links"><use href="#t5773"/></g></g></svg><svg x="1770" y="1430" height="9%" width="9%" viewBox="0 0 330 330"><g><a xlink:href="https://nftpuzzle.license-token.com/" class="links"><title>See the most innovative NFT based token software licensing project</title><path fill="#E4CF37" id="more" d="M165,0C74.019,0,0,74.019,0,165s74.019,165,165,165s165-74.019,165-165S255.981,0,165,0z M85,190 c-13.785,0-25-11.215-25-25s11.215-25,25-25s25,11.215,25,25S98.785,190,85,190z M165,190c-13.785,0-25-11.215-25-25 s11.215-25,25-25s25,11.215,25,25S178.785,190,165,190z M245,190c-13.785,0-25-11.215-25-25s11.215-25,25-25 c13.785,0,25,11.215,25,25S258.785,190,245,190z"></path></a></g></svg></svg></svg>