<svg version="1.1" xmlns="http://www.w3.org/2000/svg" xmlns:xlink="http://www.w3.org/1999/xlink" fill="transparent" x="0" y="0" width="350" height="350" preserveAspectRatio="xMinYMin slice"><style type="text/css">.links{fill:transparent;stroke: #E4CF37;}.links:hover{fill:#63D272; opacity:0.4;}</style><defs><g id="allt"><path id="t5774" d="M1815,1408 L1804,1409 C1794,1411 1806,1402 1798,1400 C1791,1399 1801,1410 1791,1409 L1782,1408 1782,1408 L1783,1416 C1784,1425 1775,1414 1776,1423 C1778,1433 1782,1419 1782,1429 L1782,1440 1782,1440 L1791,1441 C1800,1442 1788,1433 1798,1434 C1808,1436 1793,1440 1804,1440 L1815,1440 1815,1440 L1815,1430 C1815,1420 1825,1434 1824,1425 C1823,1417 1815,1428 1815,1418 L1815,1408"/></g><clipPath id="c" clipRule="evenodd" fill="transparent"><use href="#t5774"/></clipPath></defs><svg viewBox="1774 1398 52 45" preserveAspectRatio="xMinYMin meet"><svg width="4380" height="2430"><g><image crossorigin="anonymous" x="0" y="0" href="https://nftpuzzle.license-token.com/assets/completepuzzle.svg" width="100%" height="100%" /><g class="links"><use href="#t5774"/></g></g></svg><svg x="1811" y="1428" height="9%" width="9%" viewBox="0 0 330 330"><g><a xlink:href="https://nftpuzzle.license-token.com/" class="links"><title>See the most innovative NFT based token software licensing project</title><path fill="#E4CF37" id="more" d="M165,0C74.019,0,0,74.019,0,165s74.019,165,165,165s165-74.019,165-165S255.981,0,165,0z M85,190 c-13.785,0-25-11.215-25-25s11.215-25,25-25s25,11.215,25,25S98.785,190,85,190z M165,190c-13.785,0-25-11.215-25-25 s11.215-25,25-25s25,11.215,25,25S178.785,190,165,190z M245,190c-13.785,0-25-11.215-25-25s11.215-25,25-25 c13.785,0,25,11.215,25,25S258.785,190,245,190z"></path></a></g></svg></svg></svg>