<svg version="1.1" xmlns="http://www.w3.org/2000/svg" xmlns:xlink="http://www.w3.org/1999/xlink" fill="transparent" x="0" y="0" width="350" height="350" preserveAspectRatio="xMinYMin slice"><style type="text/css">.links{fill:transparent;stroke: #E4CF37;}.links:hover{fill:#63D272; opacity:0.4;}</style><defs><g id="allt"><path id="t5783" d="M2112,1408 L2101,1407 C2090,1406 2103,1411 2094,1412 C2085,1414 2099,1408 2089,1408 L2079,1408 2079,1408 L2079,1417 C2079,1427 2074,1414 2074,1423 C2074,1433 2084,1418 2081,1429 L2079,1440 2079,1440 L2088,1440 C2098,1440 2085,1435 2095,1435 C2105,1435 2090,1445 2101,1442 L2112,1440 2112,1440 L2110,1431 C2109,1422 2119,1433 2120,1423 C2122,1414 2112,1428 2112,1418 L2112,1408"/></g><clipPath id="c" clipRule="evenodd" fill="transparent"><use href="#t5783"/></clipPath></defs><svg viewBox="2073 1405 50 41" preserveAspectRatio="xMinYMin meet"><svg width="4380" height="2430"><g><image crossorigin="anonymous" x="0" y="0" href="https://nftpuzzle.license-token.com/assets/completepuzzle.svg" width="100%" height="100%" /><g class="links"><use href="#t5783"/></g></g></svg><svg x="2108" y="1431" height="9%" width="9%" viewBox="0 0 330 330"><g><a xlink:href="https://nftpuzzle.license-token.com/" class="links"><title>See the most innovative NFT based token software licensing project</title><path fill="#E4CF37" id="more" d="M165,0C74.019,0,0,74.019,0,165s74.019,165,165,165s165-74.019,165-165S255.981,0,165,0z M85,190 c-13.785,0-25-11.215-25-25s11.215-25,25-25s25,11.215,25,25S98.785,190,85,190z M165,190c-13.785,0-25-11.215-25-25 s11.215-25,25-25s25,11.215,25,25S178.785,190,165,190z M245,190c-13.785,0-25-11.215-25-25s11.215-25,25-25 c13.785,0,25,11.215,25,25S258.785,190,245,190z"></path></a></g></svg></svg></svg>