<svg version="1.1" xmlns="http://www.w3.org/2000/svg" xmlns:xlink="http://www.w3.org/1999/xlink" fill="transparent" x="0" y="0" width="350" height="350" preserveAspectRatio="xMinYMin slice"><style type="text/css">.links{fill:transparent;stroke: #E4CF37;}.links:hover{fill:#63D272; opacity:0.4;}</style><defs><g id="allt"><path id="t5786" d="M2211,1408 L2201,1408 C2191,1409 2204,1403 2194,1404 C2185,1406 2197,1408 2187,1408 L2178,1408 2178,1408 L2178,1418 C2178,1429 2176,1416 2175,1424 C2174,1432 2178,1418 2178,1429 L2178,1440 2178,1440 L2188,1440 C2199,1440 2186,1438 2194,1437 C2202,1436 2189,1440 2200,1440 L2211,1440 2211,1440 L2211,1429 C2211,1419 2207,1435 2207,1424 C2208,1414 2211,1428 2211,1418 L2211,1408"/></g><clipPath id="c" clipRule="evenodd" fill="transparent"><use href="#t5786"/></clipPath></defs><svg viewBox="2173 1402 39 39" preserveAspectRatio="xMinYMin meet"><svg width="4380" height="2430"><g><image crossorigin="anonymous" x="0" y="0" href="https://nftpuzzle.license-token.com/assets/completepuzzle.svg" width="100%" height="100%" /><g class="links"><use href="#t5786"/></g></g></svg><svg x="2197" y="1426" height="9%" width="9%" viewBox="0 0 330 330"><g><a xlink:href="https://nftpuzzle.license-token.com/" class="links"><title>See the most innovative NFT based token software licensing project</title><path fill="#E4CF37" id="more" d="M165,0C74.019,0,0,74.019,0,165s74.019,165,165,165s165-74.019,165-165S255.981,0,165,0z M85,190 c-13.785,0-25-11.215-25-25s11.215-25,25-25s25,11.215,25,25S98.785,190,85,190z M165,190c-13.785,0-25-11.215-25-25 s11.215-25,25-25s25,11.215,25,25S178.785,190,165,190z M245,190c-13.785,0-25-11.215-25-25s11.215-25,25-25 c13.785,0,25,11.215,25,25S258.785,190,245,190z"></path></a></g></svg></svg></svg>