<svg version="1.1" xmlns="http://www.w3.org/2000/svg" xmlns:xlink="http://www.w3.org/1999/xlink" fill="transparent" x="0" y="0" width="350" height="350" preserveAspectRatio="xMinYMin slice"><style type="text/css">.links{fill:transparent;stroke: #E4CF37;}.links:hover{fill:#63D272; opacity:0.4;}</style><defs><g id="allt"><path id="t5791" d="M2376,1408 L2366,1407 C2357,1407 2370,1414 2359,1413 C2349,1412 2362,1406 2352,1407 L2343,1408 2343,1408 L2343,1417 C2343,1426 2337,1417 2334,1425 C2332,1434 2343,1418 2343,1429 L2343,1440 2343,1440 L2352,1440 C2362,1440 2352,1434 2361,1431 C2370,1429 2354,1440 2365,1440 L2376,1440 2376,1440 L2377,1430 C2378,1421 2370,1434 2370,1423 C2371,1413 2376,1427 2376,1417 L2376,1408"/></g><clipPath id="c" clipRule="evenodd" fill="transparent"><use href="#t5791"/></clipPath></defs><svg viewBox="2331 1405 48 36" preserveAspectRatio="xMinYMin meet"><svg width="4380" height="2430"><g><image crossorigin="anonymous" x="0" y="0" href="https://nftpuzzle.license-token.com/assets/completepuzzle.svg" width="100%" height="100%" /><g class="links"><use href="#t5791"/></g></g></svg><svg x="2364" y="1426" height="9%" width="9%" viewBox="0 0 330 330"><g><a xlink:href="https://nftpuzzle.license-token.com/" class="links"><title>See the most innovative NFT based token software licensing project</title><path fill="#E4CF37" id="more" d="M165,0C74.019,0,0,74.019,0,165s74.019,165,165,165s165-74.019,165-165S255.981,0,165,0z M85,190 c-13.785,0-25-11.215-25-25s11.215-25,25-25s25,11.215,25,25S98.785,190,85,190z M165,190c-13.785,0-25-11.215-25-25 s11.215-25,25-25s25,11.215,25,25S178.785,190,165,190z M245,190c-13.785,0-25-11.215-25-25s11.215-25,25-25 c13.785,0,25,11.215,25,25S258.785,190,245,190z"></path></a></g></svg></svg></svg>