<svg version="1.1" xmlns="http://www.w3.org/2000/svg" xmlns:xlink="http://www.w3.org/1999/xlink" fill="transparent" x="0" y="0" width="350" height="350" preserveAspectRatio="xMinYMin slice"><style type="text/css">.links{fill:transparent;stroke: #E4CF37;}.links:hover{fill:#63D272; opacity:0.4;}</style><defs><g id="allt"><path id="t5794" d="M2475,1408 L2464,1408 C2453,1408 2466,1414 2458,1414 C2451,1414 2462,1406 2452,1407 L2442,1408 2442,1408 L2442,1417 C2443,1426 2434,1414 2433,1422 C2433,1430 2443,1419 2442,1429 L2442,1440 2442,1440 L2451,1440 C2461,1441 2448,1432 2456,1431 C2465,1431 2454,1441 2464,1440 L2475,1440 2475,1440 L2475,1429 C2475,1419 2470,1431 2470,1422 C2471,1413 2475,1425 2475,1416 L2475,1408"/></g><clipPath id="c" clipRule="evenodd" fill="transparent"><use href="#t5794"/></clipPath></defs><svg viewBox="2432 1405 44 37" preserveAspectRatio="xMinYMin meet"><svg width="4380" height="2430"><g><image crossorigin="anonymous" x="0" y="0" href="https://nftpuzzle.license-token.com/assets/completepuzzle.svg" width="100%" height="100%" /><g class="links"><use href="#t5794"/></g></g></svg><svg x="2461" y="1427" height="9%" width="9%" viewBox="0 0 330 330"><g><a xlink:href="https://nftpuzzle.license-token.com/" class="links"><title>See the most innovative NFT based token software licensing project</title><path fill="#E4CF37" id="more" d="M165,0C74.019,0,0,74.019,0,165s74.019,165,165,165s165-74.019,165-165S255.981,0,165,0z M85,190 c-13.785,0-25-11.215-25-25s11.215-25,25-25s25,11.215,25,25S98.785,190,85,190z M165,190c-13.785,0-25-11.215-25-25 s11.215-25,25-25s25,11.215,25,25S178.785,190,165,190z M245,190c-13.785,0-25-11.215-25-25s11.215-25,25-25 c13.785,0,25,11.215,25,25S258.785,190,245,190z"></path></a></g></svg></svg></svg>