<svg version="1.1" xmlns="http://www.w3.org/2000/svg" xmlns:xlink="http://www.w3.org/1999/xlink" fill="transparent" x="0" y="0" width="350" height="350" preserveAspectRatio="xMinYMin slice"><style type="text/css">.links{fill:transparent;stroke: #E4CF37;}.links:hover{fill:#63D272; opacity:0.4;}</style><defs><g id="allt"><path id="t5795" d="M2508,1408 L2498,1408 C2489,1408 2501,1412 2492,1411 C2483,1411 2494,1407 2484,1407 L2475,1408 2475,1408 L2475,1416 C2475,1425 2471,1413 2470,1422 C2470,1431 2475,1419 2475,1429 L2475,1440 2475,1440 L2484,1440 C2493,1440 2480,1436 2489,1435 C2499,1435 2486,1440 2497,1440 L2508,1440 2508,1440 L2507,1430 C2507,1421 2510,1432 2511,1424 C2512,1416 2507,1427 2507,1417 L2508,1408"/></g><clipPath id="c" clipRule="evenodd" fill="transparent"><use href="#t5795"/></clipPath></defs><svg viewBox="2469 1406 44 35" preserveAspectRatio="xMinYMin meet"><svg width="4380" height="2430"><g><image crossorigin="anonymous" x="0" y="0" href="https://nftpuzzle.license-token.com/assets/completepuzzle.svg" width="100%" height="100%" /><g class="links"><use href="#t5795"/></g></g></svg><svg x="2498" y="1426" height="9%" width="9%" viewBox="0 0 330 330"><g><a xlink:href="https://nftpuzzle.license-token.com/" class="links"><title>See the most innovative NFT based token software licensing project</title><path fill="#E4CF37" id="more" d="M165,0C74.019,0,0,74.019,0,165s74.019,165,165,165s165-74.019,165-165S255.981,0,165,0z M85,190 c-13.785,0-25-11.215-25-25s11.215-25,25-25s25,11.215,25,25S98.785,190,85,190z M165,190c-13.785,0-25-11.215-25-25 s11.215-25,25-25s25,11.215,25,25S178.785,190,165,190z M245,190c-13.785,0-25-11.215-25-25s11.215-25,25-25 c13.785,0,25,11.215,25,25S258.785,190,245,190z"></path></a></g></svg></svg></svg>