<svg version="1.1" xmlns="http://www.w3.org/2000/svg" xmlns:xlink="http://www.w3.org/1999/xlink" fill="transparent" x="0" y="0" width="350" height="350" preserveAspectRatio="xMinYMin slice"><style type="text/css">.links{fill:transparent;stroke: #E4CF37;}.links:hover{fill:#63D272; opacity:0.4;}</style><defs><g id="allt"><path id="t5796" d="M2541,1408 L2531,1408 C2522,1408 2533,1412 2524,1413 C2516,1415 2526,1408 2517,1408 L2508,1408 2508,1408 L2507,1417 C2507,1427 2512,1416 2511,1424 C2510,1432 2507,1421 2507,1430 L2508,1440 2508,1440 L2517,1439 C2527,1439 2516,1444 2524,1443 C2533,1442 2521,1439 2531,1439 L2541,1440 2541,1440 L2541,1431 C2542,1422 2538,1432 2536,1424 C2535,1416 2542,1425 2541,1416 L2541,1408"/></g><clipPath id="c" clipRule="evenodd" fill="transparent"><use href="#t5796"/></clipPath></defs><svg viewBox="2506 1407 37 38" preserveAspectRatio="xMinYMin meet"><svg width="4380" height="2430"><g><image crossorigin="anonymous" x="0" y="0" href="https://nftpuzzle.license-token.com/assets/completepuzzle.svg" width="100%" height="100%" /><g class="links"><use href="#t5796"/></g></g></svg><svg x="2528" y="1430" height="9%" width="9%" viewBox="0 0 330 330"><g><a xlink:href="https://nftpuzzle.license-token.com/" class="links"><title>See the most innovative NFT based token software licensing project</title><path fill="#E4CF37" id="more" d="M165,0C74.019,0,0,74.019,0,165s74.019,165,165,165s165-74.019,165-165S255.981,0,165,0z M85,190 c-13.785,0-25-11.215-25-25s11.215-25,25-25s25,11.215,25,25S98.785,190,85,190z M165,190c-13.785,0-25-11.215-25-25 s11.215-25,25-25s25,11.215,25,25S178.785,190,165,190z M245,190c-13.785,0-25-11.215-25-25s11.215-25,25-25 c13.785,0,25,11.215,25,25S258.785,190,245,190z"></path></a></g></svg></svg></svg>