<svg version="1.1" xmlns="http://www.w3.org/2000/svg" xmlns:xlink="http://www.w3.org/1999/xlink" fill="transparent" x="0" y="0" width="350" height="350" preserveAspectRatio="xMinYMin slice"><style type="text/css">.links{fill:transparent;stroke: #E4CF37;}.links:hover{fill:#63D272; opacity:0.4;}</style><defs><g id="allt"><path id="t5798" d="M2607,1408 L2596,1408 C2586,1408 2601,1401 2592,1401 C2583,1401 2594,1410 2584,1409 L2574,1408 2574,1408 L2574,1417 C2574,1426 2569,1413 2568,1424 C2568,1435 2575,1421 2574,1430 L2574,1440 2574,1440 L2583,1440 C2592,1440 2579,1435 2590,1434 C2602,1434 2587,1441 2597,1440 L2607,1440 2607,1440 L2607,1429 C2607,1419 2602,1434 2601,1423 C2601,1412 2607,1427 2607,1417 L2607,1408"/></g><clipPath id="c" clipRule="evenodd" fill="transparent"><use href="#t5798"/></clipPath></defs><svg viewBox="2567 1400 41 42" preserveAspectRatio="xMinYMin meet"><svg width="4380" height="2430"><g><image crossorigin="anonymous" x="0" y="0" href="https://nftpuzzle.license-token.com/assets/completepuzzle.svg" width="100%" height="100%" /><g class="links"><use href="#t5798"/></g></g></svg><svg x="2593" y="1427" height="9%" width="9%" viewBox="0 0 330 330"><g><a xlink:href="https://nftpuzzle.license-token.com/" class="links"><title>See the most innovative NFT based token software licensing project</title><path fill="#E4CF37" id="more" d="M165,0C74.019,0,0,74.019,0,165s74.019,165,165,165s165-74.019,165-165S255.981,0,165,0z M85,190 c-13.785,0-25-11.215-25-25s11.215-25,25-25s25,11.215,25,25S98.785,190,85,190z M165,190c-13.785,0-25-11.215-25-25 s11.215-25,25-25s25,11.215,25,25S178.785,190,165,190z M245,190c-13.785,0-25-11.215-25-25s11.215-25,25-25 c13.785,0,25,11.215,25,25S258.785,190,245,190z"></path></a></g></svg></svg></svg>