<svg version="1.1" xmlns="http://www.w3.org/2000/svg" xmlns:xlink="http://www.w3.org/1999/xlink" fill="transparent" x="0" y="0" width="350" height="350" preserveAspectRatio="xMinYMin slice"><style type="text/css">.links{fill:transparent;stroke: #E4CF37;}.links:hover{fill:#63D272; opacity:0.4;}</style><defs><g id="allt"><path id="t580" d="M2013,128 L2003,130 C1993,133 2007,119 1997,118 C1988,118 1999,132 1989,130 L1980,128 1980,128 L1981,137 C1982,147 1974,134 1975,142 C1977,151 1980,138 1980,149 L1980,160 1980,160 L1989,161 C1999,162 1986,154 1994,155 C2003,157 1990,160 2001,160 L2013,160 2013,160 L2013,150 C2013,140 2019,152 2019,142 C2020,133 2011,146 2012,137 L2013,128"/></g><clipPath id="c" clipRule="evenodd" fill="transparent"><use href="#t580"/></clipPath></defs><svg viewBox="1973 117 48 46" preserveAspectRatio="xMinYMin meet"><svg width="4380" height="2430"><g><image crossorigin="anonymous" x="0" y="0" href="https://nftpuzzle.license-token.com/assets/completepuzzle.svg" width="100%" height="100%" /><g class="links"><use href="#t580"/></g></g></svg><svg x="2006" y="148" height="9%" width="9%" viewBox="0 0 330 330"><g><a xlink:href="https://nftpuzzle.license-token.com/" class="links"><title>See the most innovative NFT based token software licensing project</title><path fill="#E4CF37" id="more" d="M165,0C74.019,0,0,74.019,0,165s74.019,165,165,165s165-74.019,165-165S255.981,0,165,0z M85,190 c-13.785,0-25-11.215-25-25s11.215-25,25-25s25,11.215,25,25S98.785,190,85,190z M165,190c-13.785,0-25-11.215-25-25 s11.215-25,25-25s25,11.215,25,25S178.785,190,165,190z M245,190c-13.785,0-25-11.215-25-25s11.215-25,25-25 c13.785,0,25,11.215,25,25S258.785,190,245,190z"></path></a></g></svg></svg></svg>