<svg version="1.1" xmlns="http://www.w3.org/2000/svg" xmlns:xlink="http://www.w3.org/1999/xlink" fill="transparent" x="0" y="0" width="350" height="350" preserveAspectRatio="xMinYMin slice"><style type="text/css">.links{fill:transparent;stroke: #E4CF37;}.links:hover{fill:#63D272; opacity:0.4;}</style><defs><g id="allt"><path id="t5801" d="M2706,1408 L2696,1408 C2687,1408 2698,1411 2688,1411 C2679,1412 2691,1408 2682,1408 L2673,1408 2673,1408 L2673,1418 C2673,1429 2671,1416 2671,1424 C2671,1432 2673,1420 2673,1430 L2673,1440 2673,1440 L2684,1440 C2695,1440 2682,1438 2689,1438 C2697,1438 2685,1440 2695,1440 L2706,1440 2706,1440 L2705,1429 C2705,1419 2713,1430 2711,1422 C2710,1414 2705,1427 2705,1417 L2706,1408"/></g><clipPath id="c" clipRule="evenodd" fill="transparent"><use href="#t5801"/></clipPath></defs><svg viewBox="2670 1407 44 34" preserveAspectRatio="xMinYMin meet"><svg width="4380" height="2430"><g><image crossorigin="anonymous" x="0" y="0" href="https://nftpuzzle.license-token.com/assets/completepuzzle.svg" width="100%" height="100%" /><g class="links"><use href="#t5801"/></g></g></svg><svg x="2699" y="1426" height="9%" width="9%" viewBox="0 0 330 330"><g><a xlink:href="https://nftpuzzle.license-token.com/" class="links"><title>See the most innovative NFT based token software licensing project</title><path fill="#E4CF37" id="more" d="M165,0C74.019,0,0,74.019,0,165s74.019,165,165,165s165-74.019,165-165S255.981,0,165,0z M85,190 c-13.785,0-25-11.215-25-25s11.215-25,25-25s25,11.215,25,25S98.785,190,85,190z M165,190c-13.785,0-25-11.215-25-25 s11.215-25,25-25s25,11.215,25,25S178.785,190,165,190z M245,190c-13.785,0-25-11.215-25-25s11.215-25,25-25 c13.785,0,25,11.215,25,25S258.785,190,245,190z"></path></a></g></svg></svg></svg>