<svg version="1.1" xmlns="http://www.w3.org/2000/svg" xmlns:xlink="http://www.w3.org/1999/xlink" fill="transparent" x="0" y="0" width="350" height="350" preserveAspectRatio="xMinYMin slice"><style type="text/css">.links{fill:transparent;stroke: #E4CF37;}.links:hover{fill:#63D272; opacity:0.4;}</style><defs><g id="allt"><path id="t5803" d="M2772,1408 L2761,1407 C2751,1407 2767,1413 2756,1413 C2746,1414 2760,1408 2749,1408 L2739,1408 2739,1408 L2738,1417 C2738,1427 2742,1416 2742,1424 C2743,1432 2739,1419 2739,1429 L2739,1440 2739,1440 L2749,1439 C2759,1439 2747,1443 2755,1443 C2764,1444 2750,1440 2761,1440 L2772,1440 2772,1440 L2772,1431 C2773,1422 2767,1430 2767,1422 C2767,1414 2772,1426 2772,1417 L2772,1408"/></g><clipPath id="c" clipRule="evenodd" fill="transparent"><use href="#t5803"/></clipPath></defs><svg viewBox="2737 1406 37 39" preserveAspectRatio="xMinYMin meet"><svg width="4380" height="2430"><g><image crossorigin="anonymous" x="0" y="0" href="https://nftpuzzle.license-token.com/assets/completepuzzle.svg" width="100%" height="100%" /><g class="links"><use href="#t5803"/></g></g></svg><svg x="2759" y="1430" height="9%" width="9%" viewBox="0 0 330 330"><g><a xlink:href="https://nftpuzzle.license-token.com/" class="links"><title>See the most innovative NFT based token software licensing project</title><path fill="#E4CF37" id="more" d="M165,0C74.019,0,0,74.019,0,165s74.019,165,165,165s165-74.019,165-165S255.981,0,165,0z M85,190 c-13.785,0-25-11.215-25-25s11.215-25,25-25s25,11.215,25,25S98.785,190,85,190z M165,190c-13.785,0-25-11.215-25-25 s11.215-25,25-25s25,11.215,25,25S178.785,190,165,190z M245,190c-13.785,0-25-11.215-25-25s11.215-25,25-25 c13.785,0,25,11.215,25,25S258.785,190,245,190z"></path></a></g></svg></svg></svg>