<svg version="1.1" xmlns="http://www.w3.org/2000/svg" xmlns:xlink="http://www.w3.org/1999/xlink" fill="transparent" x="0" y="0" width="350" height="350" preserveAspectRatio="xMinYMin slice"><style type="text/css">.links{fill:transparent;stroke: #E4CF37;}.links:hover{fill:#63D272; opacity:0.4;}</style><defs><g id="allt"><path id="t5809" d="M2970,1408 L2959,1408 C2949,1408 2961,1401 2953,1402 C2945,1403 2955,1410 2946,1409 L2937,1408 2937,1408 L2939,1417 C2941,1427 2926,1415 2927,1422 C2928,1430 2941,1419 2939,1429 L2937,1440 2937,1440 L2946,1442 C2956,1444 2944,1430 2952,1430 C2960,1431 2948,1444 2959,1442 L2970,1440 2970,1440 L2971,1431 C2973,1422 2965,1433 2965,1424 C2965,1415 2970,1427 2970,1417 L2970,1408"/></g><clipPath id="c" clipRule="evenodd" fill="transparent"><use href="#t5809"/></clipPath></defs><svg viewBox="2925 1400 49 45" preserveAspectRatio="xMinYMin meet"><svg width="4380" height="2430"><g><image crossorigin="anonymous" x="0" y="0" href="https://nftpuzzle.license-token.com/assets/completepuzzle.svg" width="100%" height="100%" /><g class="links"><use href="#t5809"/></g></g></svg><svg x="2959" y="1430" height="9%" width="9%" viewBox="0 0 330 330"><g><a xlink:href="https://nftpuzzle.license-token.com/" class="links"><title>See the most innovative NFT based token software licensing project</title><path fill="#E4CF37" id="more" d="M165,0C74.019,0,0,74.019,0,165s74.019,165,165,165s165-74.019,165-165S255.981,0,165,0z M85,190 c-13.785,0-25-11.215-25-25s11.215-25,25-25s25,11.215,25,25S98.785,190,85,190z M165,190c-13.785,0-25-11.215-25-25 s11.215-25,25-25s25,11.215,25,25S178.785,190,165,190z M245,190c-13.785,0-25-11.215-25-25s11.215-25,25-25 c13.785,0,25,11.215,25,25S258.785,190,245,190z"></path></a></g></svg></svg></svg>