<svg version="1.1" xmlns="http://www.w3.org/2000/svg" xmlns:xlink="http://www.w3.org/1999/xlink" fill="transparent" x="0" y="0" width="350" height="350" preserveAspectRatio="xMinYMin slice"><style type="text/css">.links{fill:transparent;stroke: #E4CF37;}.links:hover{fill:#63D272; opacity:0.4;}</style><defs><g id="allt"><path id="t581" d="M2046,128 L2036,128 C2027,129 2040,125 2029,125 C2018,125 2033,128 2023,128 L2013,128 2013,128 L2012,137 C2011,146 2020,133 2019,142 C2019,152 2013,140 2013,150 L2013,160 2013,160 L2022,159 C2031,158 2018,167 2027,166 C2037,166 2025,160 2035,160 L2046,160 2046,160 L2046,150 C2046,141 2051,151 2050,141 C2050,132 2045,145 2045,136 L2046,128"/></g><clipPath id="c" clipRule="evenodd" fill="transparent"><use href="#t581"/></clipPath></defs><svg viewBox="2010 124 42 44" preserveAspectRatio="xMinYMin meet"><svg width="4380" height="2430"><g><image crossorigin="anonymous" x="0" y="0" href="https://nftpuzzle.license-token.com/assets/completepuzzle.svg" width="100%" height="100%" /><g class="links"><use href="#t581"/></g></g></svg><svg x="2037" y="153" height="9%" width="9%" viewBox="0 0 330 330"><g><a xlink:href="https://nftpuzzle.license-token.com/" class="links"><title>See the most innovative NFT based token software licensing project</title><path fill="#E4CF37" id="more" d="M165,0C74.019,0,0,74.019,0,165s74.019,165,165,165s165-74.019,165-165S255.981,0,165,0z M85,190 c-13.785,0-25-11.215-25-25s11.215-25,25-25s25,11.215,25,25S98.785,190,85,190z M165,190c-13.785,0-25-11.215-25-25 s11.215-25,25-25s25,11.215,25,25S178.785,190,165,190z M245,190c-13.785,0-25-11.215-25-25s11.215-25,25-25 c13.785,0,25,11.215,25,25S258.785,190,245,190z"></path></a></g></svg></svg></svg>