<svg version="1.1" xmlns="http://www.w3.org/2000/svg" xmlns:xlink="http://www.w3.org/1999/xlink" fill="transparent" x="0" y="0" width="350" height="350" preserveAspectRatio="xMinYMin slice"><style type="text/css">.links{fill:transparent;stroke: #E4CF37;}.links:hover{fill:#63D272; opacity:0.4;}</style><defs><g id="allt"><path id="t5813" d="M3102,1408 L3092,1409 C3083,1410 3092,1402 3083,1399 C3074,1397 3088,1412 3078,1410 L3069,1408 3069,1408 L3069,1418 C3069,1428 3062,1413 3063,1423 C3064,1433 3072,1420 3070,1430 L3069,1440 3069,1440 L3079,1440 C3090,1440 3074,1433 3084,1434 C3095,1435 3082,1443 3092,1441 L3102,1440 3102,1440 L3102,1430 C3103,1421 3098,1433 3098,1422 C3098,1412 3102,1426 3102,1417 L3102,1408"/></g><clipPath id="c" clipRule="evenodd" fill="transparent"><use href="#t5813"/></clipPath></defs><svg viewBox="3061 1396 43 48" preserveAspectRatio="xMinYMin meet"><svg width="4380" height="2430"><g><image crossorigin="anonymous" x="0" y="0" href="https://nftpuzzle.license-token.com/assets/completepuzzle.svg" width="100%" height="100%" /><g class="links"><use href="#t5813"/></g></g></svg><svg x="3089" y="1429" height="9%" width="9%" viewBox="0 0 330 330"><g><a xlink:href="https://nftpuzzle.license-token.com/" class="links"><title>See the most innovative NFT based token software licensing project</title><path fill="#E4CF37" id="more" d="M165,0C74.019,0,0,74.019,0,165s74.019,165,165,165s165-74.019,165-165S255.981,0,165,0z M85,190 c-13.785,0-25-11.215-25-25s11.215-25,25-25s25,11.215,25,25S98.785,190,85,190z M165,190c-13.785,0-25-11.215-25-25 s11.215-25,25-25s25,11.215,25,25S178.785,190,165,190z M245,190c-13.785,0-25-11.215-25-25s11.215-25,25-25 c13.785,0,25,11.215,25,25S258.785,190,245,190z"></path></a></g></svg></svg></svg>