<svg version="1.1" xmlns="http://www.w3.org/2000/svg" xmlns:xlink="http://www.w3.org/1999/xlink" fill="transparent" x="0" y="0" width="350" height="350" preserveAspectRatio="xMinYMin slice"><style type="text/css">.links{fill:transparent;stroke: #E4CF37;}.links:hover{fill:#63D272; opacity:0.4;}</style><defs><g id="allt"><path id="t5815" d="M3168,1408 L3158,1408 C3149,1408 3160,1402 3150,1400 C3141,1399 3154,1408 3144,1408 L3135,1408 3135,1408 L3135,1418 C3135,1429 3144,1413 3143,1423 C3143,1434 3135,1420 3135,1430 L3135,1440 3135,1440 L3145,1440 C3156,1440 3140,1449 3151,1448 C3162,1448 3147,1440 3157,1440 L3168,1440 3168,1440 L3168,1430 C3168,1420 3163,1431 3163,1423 C3164,1416 3170,1428 3169,1418 L3168,1408"/></g><clipPath id="c" clipRule="evenodd" fill="transparent"><use href="#t5815"/></clipPath></defs><svg viewBox="3134 1398 37 52" preserveAspectRatio="xMinYMin meet"><svg width="4380" height="2430"><g><image crossorigin="anonymous" x="0" y="0" href="https://nftpuzzle.license-token.com/assets/completepuzzle.svg" width="100%" height="100%" /><g class="links"><use href="#t5815"/></g></g></svg><svg x="3156" y="1435" height="9%" width="9%" viewBox="0 0 330 330"><g><a xlink:href="https://nftpuzzle.license-token.com/" class="links"><title>See the most innovative NFT based token software licensing project</title><path fill="#E4CF37" id="more" d="M165,0C74.019,0,0,74.019,0,165s74.019,165,165,165s165-74.019,165-165S255.981,0,165,0z M85,190 c-13.785,0-25-11.215-25-25s11.215-25,25-25s25,11.215,25,25S98.785,190,85,190z M165,190c-13.785,0-25-11.215-25-25 s11.215-25,25-25s25,11.215,25,25S178.785,190,165,190z M245,190c-13.785,0-25-11.215-25-25s11.215-25,25-25 c13.785,0,25,11.215,25,25S258.785,190,245,190z"></path></a></g></svg></svg></svg>