<svg version="1.1" xmlns="http://www.w3.org/2000/svg" xmlns:xlink="http://www.w3.org/1999/xlink" fill="transparent" x="0" y="0" width="350" height="350" preserveAspectRatio="xMinYMin slice"><style type="text/css">.links{fill:transparent;stroke: #E4CF37;}.links:hover{fill:#63D272; opacity:0.4;}</style><defs><g id="allt"><path id="t5816" d="M3201,1408 L3191,1408 C3182,1408 3191,1412 3183,1411 C3175,1411 3188,1406 3178,1407 L3168,1408 3168,1408 L3169,1418 C3170,1428 3164,1416 3163,1423 C3163,1431 3168,1420 3168,1430 L3168,1440 3168,1440 L3178,1441 C3189,1442 3177,1436 3184,1435 C3192,1435 3181,1440 3191,1440 L3201,1440 3201,1440 L3200,1431 C3200,1422 3194,1435 3194,1424 C3194,1413 3201,1427 3201,1417 L3201,1408"/></g><clipPath id="c" clipRule="evenodd" fill="transparent"><use href="#t5816"/></clipPath></defs><svg viewBox="3162 1405 40 38" preserveAspectRatio="xMinYMin meet"><svg width="4380" height="2430"><g><image crossorigin="anonymous" x="0" y="0" href="https://nftpuzzle.license-token.com/assets/completepuzzle.svg" width="100%" height="100%" /><g class="links"><use href="#t5816"/></g></g></svg><svg x="3187" y="1428" height="9%" width="9%" viewBox="0 0 330 330"><g><a xlink:href="https://nftpuzzle.license-token.com/" class="links"><title>See the most innovative NFT based token software licensing project</title><path fill="#E4CF37" id="more" d="M165,0C74.019,0,0,74.019,0,165s74.019,165,165,165s165-74.019,165-165S255.981,0,165,0z M85,190 c-13.785,0-25-11.215-25-25s11.215-25,25-25s25,11.215,25,25S98.785,190,85,190z M165,190c-13.785,0-25-11.215-25-25 s11.215-25,25-25s25,11.215,25,25S178.785,190,165,190z M245,190c-13.785,0-25-11.215-25-25s11.215-25,25-25 c13.785,0,25,11.215,25,25S258.785,190,245,190z"></path></a></g></svg></svg></svg>