<svg version="1.1" xmlns="http://www.w3.org/2000/svg" xmlns:xlink="http://www.w3.org/1999/xlink" fill="transparent" x="0" y="0" width="350" height="350" preserveAspectRatio="xMinYMin slice"><style type="text/css">.links{fill:transparent;stroke: #E4CF37;}.links:hover{fill:#63D272; opacity:0.4;}</style><defs><g id="allt"><path id="t582" d="M2079,128 L2068,128 C2057,128 2071,135 2061,133 C2051,131 2068,128 2057,128 L2046,128 2046,128 L2045,136 C2045,145 2050,132 2050,141 C2051,151 2046,141 2046,150 L2046,160 2046,160 L2055,159 C2064,159 2050,164 2060,164 C2070,165 2059,160 2069,160 L2079,160 2079,160 L2080,151 C2082,142 2069,154 2069,144 C2070,134 2079,148 2079,138 L2079,128"/></g><clipPath id="c" clipRule="evenodd" fill="transparent"><use href="#t582"/></clipPath></defs><svg viewBox="2044 127 39 39" preserveAspectRatio="xMinYMin meet"><svg width="4380" height="2430"><g><image crossorigin="anonymous" x="0" y="0" href="https://nftpuzzle.license-token.com/assets/completepuzzle.svg" width="100%" height="100%" /><g class="links"><use href="#t582"/></g></g></svg><svg x="2068" y="151" height="9%" width="9%" viewBox="0 0 330 330"><g><a xlink:href="https://nftpuzzle.license-token.com/" class="links"><title>See the most innovative NFT based token software licensing project</title><path fill="#E4CF37" id="more" d="M165,0C74.019,0,0,74.019,0,165s74.019,165,165,165s165-74.019,165-165S255.981,0,165,0z M85,190 c-13.785,0-25-11.215-25-25s11.215-25,25-25s25,11.215,25,25S98.785,190,85,190z M165,190c-13.785,0-25-11.215-25-25 s11.215-25,25-25s25,11.215,25,25S178.785,190,165,190z M245,190c-13.785,0-25-11.215-25-25s11.215-25,25-25 c13.785,0,25,11.215,25,25S258.785,190,245,190z"></path></a></g></svg></svg></svg>