<svg version="1.1" xmlns="http://www.w3.org/2000/svg" xmlns:xlink="http://www.w3.org/1999/xlink" fill="transparent" x="0" y="0" width="350" height="350" preserveAspectRatio="xMinYMin slice"><style type="text/css">.links{fill:transparent;stroke: #E4CF37;}.links:hover{fill:#63D272; opacity:0.4;}</style><defs><g id="allt"><path id="t5831" d="M3696,1408 L3685,1408 C3674,1408 3688,1396 3680,1398 C3672,1400 3682,1408 3672,1408 L3663,1408 3663,1408 L3663,1418 C3663,1429 3666,1413 3665,1423 C3665,1433 3661,1421 3662,1430 L3663,1440 3663,1440 L3674,1440 C3685,1440 3668,1443 3678,1442 C3689,1442 3676,1438 3686,1439 L3696,1440 3696,1440 L3696,1430 C3696,1420 3693,1432 3692,1422 C3691,1413 3698,1425 3697,1416 L3696,1408"/></g><clipPath id="c" clipRule="evenodd" fill="transparent"><use href="#t5831"/></clipPath></defs><svg viewBox="3660 1395 39 49" preserveAspectRatio="xMinYMin meet"><svg width="4380" height="2430"><g><image crossorigin="anonymous" x="0" y="0" href="https://nftpuzzle.license-token.com/assets/completepuzzle.svg" width="100%" height="100%" /><g class="links"><use href="#t5831"/></g></g></svg><svg x="3684" y="1429" height="9%" width="9%" viewBox="0 0 330 330"><g><a xlink:href="https://nftpuzzle.license-token.com/" class="links"><title>See the most innovative NFT based token software licensing project</title><path fill="#E4CF37" id="more" d="M165,0C74.019,0,0,74.019,0,165s74.019,165,165,165s165-74.019,165-165S255.981,0,165,0z M85,190 c-13.785,0-25-11.215-25-25s11.215-25,25-25s25,11.215,25,25S98.785,190,85,190z M165,190c-13.785,0-25-11.215-25-25 s11.215-25,25-25s25,11.215,25,25S178.785,190,165,190z M245,190c-13.785,0-25-11.215-25-25s11.215-25,25-25 c13.785,0,25,11.215,25,25S258.785,190,245,190z"></path></a></g></svg></svg></svg>