<svg version="1.1" xmlns="http://www.w3.org/2000/svg" xmlns:xlink="http://www.w3.org/1999/xlink" fill="transparent" x="0" y="0" width="350" height="350" preserveAspectRatio="xMinYMin slice"><style type="text/css">.links{fill:transparent;stroke: #E4CF37;}.links:hover{fill:#63D272; opacity:0.4;}</style><defs><g id="allt"><path id="t5838" d="M3927,1408 L3916,1408 C3906,1408 3921,1401 3912,1400 C3903,1400 3912,1409 3903,1408 L3894,1408 3894,1408 L3895,1418 C3896,1429 3888,1416 3889,1425 C3890,1435 3894,1422 3894,1431 L3894,1440 3894,1440 L3904,1441 C3915,1442 3902,1434 3912,1435 C3922,1436 3908,1440 3917,1440 L3927,1440 3927,1440 L3927,1430 C3927,1420 3920,1430 3920,1422 C3920,1415 3928,1427 3927,1417 L3927,1408"/></g><clipPath id="c" clipRule="evenodd" fill="transparent"><use href="#t5838"/></clipPath></defs><svg viewBox="3887 1399 42 44" preserveAspectRatio="xMinYMin meet"><svg width="4380" height="2430"><g><image crossorigin="anonymous" x="0" y="0" href="https://nftpuzzle.license-token.com/assets/completepuzzle.svg" width="100%" height="100%" /><g class="links"><use href="#t5838"/></g></g></svg><svg x="3914" y="1428" height="9%" width="9%" viewBox="0 0 330 330"><g><a xlink:href="https://nftpuzzle.license-token.com/" class="links"><title>See the most innovative NFT based token software licensing project</title><path fill="#E4CF37" id="more" d="M165,0C74.019,0,0,74.019,0,165s74.019,165,165,165s165-74.019,165-165S255.981,0,165,0z M85,190 c-13.785,0-25-11.215-25-25s11.215-25,25-25s25,11.215,25,25S98.785,190,85,190z M165,190c-13.785,0-25-11.215-25-25 s11.215-25,25-25s25,11.215,25,25S178.785,190,165,190z M245,190c-13.785,0-25-11.215-25-25s11.215-25,25-25 c13.785,0,25,11.215,25,25S258.785,190,245,190z"></path></a></g></svg></svg></svg>