<svg version="1.1" xmlns="http://www.w3.org/2000/svg" xmlns:xlink="http://www.w3.org/1999/xlink" fill="transparent" x="0" y="0" width="350" height="350" preserveAspectRatio="xMinYMin slice"><style type="text/css">.links{fill:transparent;stroke: #E4CF37;}.links:hover{fill:#63D272; opacity:0.4;}</style><defs><g id="allt"><path id="t584" d="M2145,128 L2135,129 C2126,131 2139,124 2128,124 C2117,124 2133,130 2122,129 L2112,128 2112,128 L2112,138 C2113,148 2108,136 2107,145 C2106,154 2115,140 2113,150 L2112,160 2112,160 L2122,160 C2133,161 2120,156 2129,155 C2139,154 2124,163 2134,161 L2145,160 2145,160 L2145,149 C2145,138 2152,150 2151,143 C2150,137 2145,147 2145,137 L2145,128"/></g><clipPath id="c" clipRule="evenodd" fill="transparent"><use href="#t584"/></clipPath></defs><svg viewBox="2105 123 48 41" preserveAspectRatio="xMinYMin meet"><svg width="4380" height="2430"><g><image crossorigin="anonymous" x="0" y="0" href="https://nftpuzzle.license-token.com/assets/completepuzzle.svg" width="100%" height="100%" /><g class="links"><use href="#t584"/></g></g></svg><svg x="2138" y="149" height="9%" width="9%" viewBox="0 0 330 330"><g><a xlink:href="https://nftpuzzle.license-token.com/" class="links"><title>See the most innovative NFT based token software licensing project</title><path fill="#E4CF37" id="more" d="M165,0C74.019,0,0,74.019,0,165s74.019,165,165,165s165-74.019,165-165S255.981,0,165,0z M85,190 c-13.785,0-25-11.215-25-25s11.215-25,25-25s25,11.215,25,25S98.785,190,85,190z M165,190c-13.785,0-25-11.215-25-25 s11.215-25,25-25s25,11.215,25,25S178.785,190,165,190z M245,190c-13.785,0-25-11.215-25-25s11.215-25,25-25 c13.785,0,25,11.215,25,25S258.785,190,245,190z"></path></a></g></svg></svg></svg>