<svg version="1.1" xmlns="http://www.w3.org/2000/svg" xmlns:xlink="http://www.w3.org/1999/xlink" fill="transparent" x="0" y="0" width="350" height="350" preserveAspectRatio="xMinYMin slice"><style type="text/css">.links{fill:transparent;stroke: #E4CF37;}.links:hover{fill:#63D272; opacity:0.4;}</style><defs><g id="allt"><path id="t5842" d="M4059,1408 L4049,1408 C4039,1408 4053,1403 4044,1403 C4035,1404 4045,1408 4035,1408 L4026,1408 4026,1408 L4027,1417 C4028,1426 4014,1413 4016,1421 C4018,1430 4030,1418 4028,1429 L4026,1440 4026,1440 L4035,1441 C4044,1442 4031,1429 4040,1430 C4049,1432 4037,1444 4048,1442 L4059,1440 4059,1440 L4059,1430 C4059,1421 4053,1430 4053,1422 C4054,1415 4059,1426 4059,1417 L4059,1408"/></g><clipPath id="c" clipRule="evenodd" fill="transparent"><use href="#t5842"/></clipPath></defs><svg viewBox="4013 1402 47 43" preserveAspectRatio="xMinYMin meet"><svg width="4380" height="2430"><g><image crossorigin="anonymous" x="0" y="0" href="https://nftpuzzle.license-token.com/assets/completepuzzle.svg" width="100%" height="100%" /><g class="links"><use href="#t5842"/></g></g></svg><svg x="4045" y="1430" height="9%" width="9%" viewBox="0 0 330 330"><g><a xlink:href="https://nftpuzzle.license-token.com/" class="links"><title>See the most innovative NFT based token software licensing project</title><path fill="#E4CF37" id="more" d="M165,0C74.019,0,0,74.019,0,165s74.019,165,165,165s165-74.019,165-165S255.981,0,165,0z M85,190 c-13.785,0-25-11.215-25-25s11.215-25,25-25s25,11.215,25,25S98.785,190,85,190z M165,190c-13.785,0-25-11.215-25-25 s11.215-25,25-25s25,11.215,25,25S178.785,190,165,190z M245,190c-13.785,0-25-11.215-25-25s11.215-25,25-25 c13.785,0,25,11.215,25,25S258.785,190,245,190z"></path></a></g></svg></svg></svg>