<svg version="1.1" xmlns="http://www.w3.org/2000/svg" xmlns:xlink="http://www.w3.org/1999/xlink" fill="transparent" x="0" y="0" width="350" height="350" preserveAspectRatio="xMinYMin slice"><style type="text/css">.links{fill:transparent;stroke: #E4CF37;}.links:hover{fill:#63D272; opacity:0.4;}</style><defs><g id="allt"><path id="t5844" d="M4125,1408 L4115,1407 C4106,1407 4117,1411 4108,1412 C4100,1414 4110,1408 4101,1408 L4092,1408 4092,1408 L4093,1418 C4094,1428 4087,1414 4087,1422 C4087,1431 4092,1419 4092,1429 L4092,1440 4092,1440 L4102,1441 C4113,1442 4098,1435 4107,1435 C4116,1435 4103,1440 4114,1440 L4125,1440 4125,1440 L4125,1431 C4126,1422 4118,1431 4119,1424 C4121,1417 4125,1429 4125,1418 L4125,1408"/></g><clipPath id="c" clipRule="evenodd" fill="transparent"><use href="#t5844"/></clipPath></defs><svg viewBox="4086 1406 41 37" preserveAspectRatio="xMinYMin meet"><svg width="4380" height="2430"><g><image crossorigin="anonymous" x="0" y="0" href="https://nftpuzzle.license-token.com/assets/completepuzzle.svg" width="100%" height="100%" /><g class="links"><use href="#t5844"/></g></g></svg><svg x="4112" y="1428" height="9%" width="9%" viewBox="0 0 330 330"><g><a xlink:href="https://nftpuzzle.license-token.com/" class="links"><title>See the most innovative NFT based token software licensing project</title><path fill="#E4CF37" id="more" d="M165,0C74.019,0,0,74.019,0,165s74.019,165,165,165s165-74.019,165-165S255.981,0,165,0z M85,190 c-13.785,0-25-11.215-25-25s11.215-25,25-25s25,11.215,25,25S98.785,190,85,190z M165,190c-13.785,0-25-11.215-25-25 s11.215-25,25-25s25,11.215,25,25S178.785,190,165,190z M245,190c-13.785,0-25-11.215-25-25s11.215-25,25-25 c13.785,0,25,11.215,25,25S258.785,190,245,190z"></path></a></g></svg></svg></svg>