<svg version="1.1" xmlns="http://www.w3.org/2000/svg" xmlns:xlink="http://www.w3.org/1999/xlink" fill="transparent" x="0" y="0" width="350" height="350" preserveAspectRatio="xMinYMin slice"><style type="text/css">.links{fill:transparent;stroke: #E4CF37;}.links:hover{fill:#63D272; opacity:0.4;}</style><defs><g id="allt"><path id="t5846" d="M4191,1408 L4181,1406 C4171,1404 4181,1415 4173,1417 C4166,1419 4176,1405 4167,1406 L4158,1408 4158,1408 L4158,1417 C4158,1426 4145,1413 4149,1424 C4153,1435 4158,1422 4158,1431 L4158,1440 4158,1440 L4167,1440 C4176,1440 4163,1428 4174,1431 C4186,1435 4172,1440 4181,1440 L4191,1440 4191,1440 L4190,1430 C4190,1420 4198,1431 4198,1422 C4198,1413 4187,1429 4189,1418 L4191,1408"/></g><clipPath id="c" clipRule="evenodd" fill="transparent"><use href="#t5846"/></clipPath></defs><svg viewBox="4144 1403 55 38" preserveAspectRatio="xMinYMin meet"><svg width="4380" height="2430"><g><image crossorigin="anonymous" x="0" y="0" href="https://nftpuzzle.license-token.com/assets/completepuzzle.svg" width="100%" height="100%" /><g class="links"><use href="#t5846"/></g></g></svg><svg x="4184" y="1426" height="9%" width="9%" viewBox="0 0 330 330"><g><a xlink:href="https://nftpuzzle.license-token.com/" class="links"><title>See the most innovative NFT based token software licensing project</title><path fill="#E4CF37" id="more" d="M165,0C74.019,0,0,74.019,0,165s74.019,165,165,165s165-74.019,165-165S255.981,0,165,0z M85,190 c-13.785,0-25-11.215-25-25s11.215-25,25-25s25,11.215,25,25S98.785,190,85,190z M165,190c-13.785,0-25-11.215-25-25 s11.215-25,25-25s25,11.215,25,25S178.785,190,165,190z M245,190c-13.785,0-25-11.215-25-25s11.215-25,25-25 c13.785,0,25,11.215,25,25S258.785,190,245,190z"></path></a></g></svg></svg></svg>