<svg version="1.1" xmlns="http://www.w3.org/2000/svg" xmlns:xlink="http://www.w3.org/1999/xlink" fill="transparent" x="0" y="0" width="350" height="350" preserveAspectRatio="xMinYMin slice"><style type="text/css">.links{fill:transparent;stroke: #E4CF37;}.links:hover{fill:#63D272; opacity:0.4;}</style><defs><g id="allt"><path id="t5848" d="M4257,1408 L4246,1407 C4236,1407 4252,1414 4242,1414 C4233,1415 4245,1408 4234,1408 L4224,1408 4224,1408 L4224,1418 C4225,1429 4219,1413 4220,1423 C4221,1434 4225,1419 4224,1429 L4224,1440 4224,1440 L4235,1440 C4246,1441 4229,1435 4240,1436 C4251,1437 4235,1441 4246,1440 L4257,1440 4257,1440 L4258,1429 C4260,1418 4251,1432 4251,1423 C4251,1414 4261,1428 4259,1418 L4257,1408"/></g><clipPath id="c" clipRule="evenodd" fill="transparent"><use href="#t5848"/></clipPath></defs><svg viewBox="4218 1406 44 36" preserveAspectRatio="xMinYMin meet"><svg width="4380" height="2430"><g><image crossorigin="anonymous" x="0" y="0" href="https://nftpuzzle.license-token.com/assets/completepuzzle.svg" width="100%" height="100%" /><g class="links"><use href="#t5848"/></g></g></svg><svg x="4247" y="1427" height="9%" width="9%" viewBox="0 0 330 330"><g><a xlink:href="https://nftpuzzle.license-token.com/" class="links"><title>See the most innovative NFT based token software licensing project</title><path fill="#E4CF37" id="more" d="M165,0C74.019,0,0,74.019,0,165s74.019,165,165,165s165-74.019,165-165S255.981,0,165,0z M85,190 c-13.785,0-25-11.215-25-25s11.215-25,25-25s25,11.215,25,25S98.785,190,85,190z M165,190c-13.785,0-25-11.215-25-25 s11.215-25,25-25s25,11.215,25,25S178.785,190,165,190z M245,190c-13.785,0-25-11.215-25-25s11.215-25,25-25 c13.785,0,25,11.215,25,25S258.785,190,245,190z"></path></a></g></svg></svg></svg>