<svg version="1.1" xmlns="http://www.w3.org/2000/svg" xmlns:xlink="http://www.w3.org/1999/xlink" fill="transparent" x="0" y="0" width="350" height="350" preserveAspectRatio="xMinYMin slice"><style type="text/css">.links{fill:transparent;stroke: #E4CF37;}.links:hover{fill:#63D272; opacity:0.4;}</style><defs><g id="allt"><path id="t5851" d="M66,1440 L55,1441 C45,1442 60,1437 50,1437 C40,1438 53,1440 43,1440 L33,1440 33,1440 L33,1450 C33,1461 28,1448 28,1456 C29,1464 33,1452 33,1462 L33,1472 33,1472 L44,1472 C55,1472 42,1467 49,1467 C57,1468 46,1472 56,1472 L66,1472 66,1472 L66,1461 C66,1450 57,1464 59,1455 C62,1447 68,1459 67,1449 L66,1440"/></g><clipPath id="c" clipRule="evenodd" fill="transparent"><use href="#t5851"/></clipPath></defs><svg viewBox="27 1436 42 37" preserveAspectRatio="xMinYMin meet"><svg width="4380" height="2430"><g><image crossorigin="anonymous" x="0" y="0" href="https://nftpuzzle.license-token.com/assets/completepuzzle.svg" width="100%" height="100%" /><g class="links"><use href="#t5851"/></g></g></svg><svg x="54" y="1458" height="9%" width="9%" viewBox="0 0 330 330"><g><a xlink:href="https://nftpuzzle.license-token.com/" class="links"><title>See the most innovative NFT based token software licensing project</title><path fill="#E4CF37" id="more" d="M165,0C74.019,0,0,74.019,0,165s74.019,165,165,165s165-74.019,165-165S255.981,0,165,0z M85,190 c-13.785,0-25-11.215-25-25s11.215-25,25-25s25,11.215,25,25S98.785,190,85,190z M165,190c-13.785,0-25-11.215-25-25 s11.215-25,25-25s25,11.215,25,25S178.785,190,165,190z M245,190c-13.785,0-25-11.215-25-25s11.215-25,25-25 c13.785,0,25,11.215,25,25S258.785,190,245,190z"></path></a></g></svg></svg></svg>