<svg version="1.1" xmlns="http://www.w3.org/2000/svg" xmlns:xlink="http://www.w3.org/1999/xlink" fill="transparent" x="0" y="0" width="350" height="350" preserveAspectRatio="xMinYMin slice"><style type="text/css">.links{fill:transparent;stroke: #E4CF37;}.links:hover{fill:#63D272; opacity:0.4;}</style><defs><g id="allt"><path id="t5854" d="M165,1440 L154,1440 C143,1440 155,1444 147,1444 C140,1445 152,1440 142,1440 L132,1440 132,1440 L133,1449 C134,1459 121,1445 122,1454 C124,1463 134,1453 133,1462 L132,1472 132,1472 L142,1473 C152,1474 137,1461 146,1462 C156,1464 145,1474 155,1473 L165,1472 165,1472 L163,1462 C162,1453 171,1464 170,1455 C170,1446 163,1457 164,1448 L165,1440"/></g><clipPath id="c" clipRule="evenodd" fill="transparent"><use href="#t5854"/></clipPath></defs><svg viewBox="120 1439 52 36" preserveAspectRatio="xMinYMin meet"><svg width="4380" height="2430"><g><image crossorigin="anonymous" x="0" y="0" href="https://nftpuzzle.license-token.com/assets/completepuzzle.svg" width="100%" height="100%" /><g class="links"><use href="#t5854"/></g></g></svg><svg x="157" y="1460" height="9%" width="9%" viewBox="0 0 330 330"><g><a xlink:href="https://nftpuzzle.license-token.com/" class="links"><title>See the most innovative NFT based token software licensing project</title><path fill="#E4CF37" id="more" d="M165,0C74.019,0,0,74.019,0,165s74.019,165,165,165s165-74.019,165-165S255.981,0,165,0z M85,190 c-13.785,0-25-11.215-25-25s11.215-25,25-25s25,11.215,25,25S98.785,190,85,190z M165,190c-13.785,0-25-11.215-25-25 s11.215-25,25-25s25,11.215,25,25S178.785,190,165,190z M245,190c-13.785,0-25-11.215-25-25s11.215-25,25-25 c13.785,0,25,11.215,25,25S258.785,190,245,190z"></path></a></g></svg></svg></svg>