<svg version="1.1" xmlns="http://www.w3.org/2000/svg" xmlns:xlink="http://www.w3.org/1999/xlink" fill="transparent" x="0" y="0" width="350" height="350" preserveAspectRatio="xMinYMin slice"><style type="text/css">.links{fill:transparent;stroke: #E4CF37;}.links:hover{fill:#63D272; opacity:0.4;}</style><defs><g id="allt"><path id="t5856" d="M231,1440 L220,1440 C210,1440 224,1429 213,1431 C203,1433 219,1440 208,1440 L198,1440 198,1440 L197,1449 C197,1458 186,1446 186,1456 C186,1467 198,1451 198,1461 L198,1472 198,1472 L207,1471 C217,1471 204,1460 215,1460 C226,1461 209,1472 220,1472 L231,1472 231,1472 L233,1462 C235,1453 225,1464 224,1454 C224,1445 231,1457 231,1448 L231,1440"/></g><clipPath id="c" clipRule="evenodd" fill="transparent"><use href="#t5856"/></clipPath></defs><svg viewBox="185 1428 51 45" preserveAspectRatio="xMinYMin meet"><svg width="4380" height="2430"><g><image crossorigin="anonymous" x="0" y="0" href="https://nftpuzzle.license-token.com/assets/completepuzzle.svg" width="100%" height="100%" /><g class="links"><use href="#t5856"/></g></g></svg><svg x="221" y="1458" height="9%" width="9%" viewBox="0 0 330 330"><g><a xlink:href="https://nftpuzzle.license-token.com/" class="links"><title>See the most innovative NFT based token software licensing project</title><path fill="#E4CF37" id="more" d="M165,0C74.019,0,0,74.019,0,165s74.019,165,165,165s165-74.019,165-165S255.981,0,165,0z M85,190 c-13.785,0-25-11.215-25-25s11.215-25,25-25s25,11.215,25,25S98.785,190,85,190z M165,190c-13.785,0-25-11.215-25-25 s11.215-25,25-25s25,11.215,25,25S178.785,190,165,190z M245,190c-13.785,0-25-11.215-25-25s11.215-25,25-25 c13.785,0,25,11.215,25,25S258.785,190,245,190z"></path></a></g></svg></svg></svg>