<svg version="1.1" xmlns="http://www.w3.org/2000/svg" xmlns:xlink="http://www.w3.org/1999/xlink" fill="transparent" x="0" y="0" width="350" height="350" preserveAspectRatio="xMinYMin slice"><style type="text/css">.links{fill:transparent;stroke: #E4CF37;}.links:hover{fill:#63D272; opacity:0.4;}</style><defs><g id="allt"><path id="t5860" d="M363,1440 L352,1442 C342,1445 357,1430 348,1432 C339,1434 352,1443 341,1441 L330,1440 330,1440 L330,1450 C330,1460 324,1448 324,1456 C324,1465 330,1450 330,1461 L330,1472 330,1472 L340,1472 C351,1472 339,1466 347,1466 C356,1466 340,1472 351,1472 L363,1472 363,1472 L361,1461 C359,1451 369,1466 370,1456 C372,1447 360,1460 361,1450 L363,1440"/></g><clipPath id="c" clipRule="evenodd" fill="transparent"><use href="#t5860"/></clipPath></defs><svg viewBox="323 1429 50 44" preserveAspectRatio="xMinYMin meet"><svg width="4380" height="2430"><g><image crossorigin="anonymous" x="0" y="0" href="https://nftpuzzle.license-token.com/assets/completepuzzle.svg" width="100%" height="100%" /><g class="links"><use href="#t5860"/></g></g></svg><svg x="358" y="1458" height="9%" width="9%" viewBox="0 0 330 330"><g><a xlink:href="https://nftpuzzle.license-token.com/" class="links"><title>See the most innovative NFT based token software licensing project</title><path fill="#E4CF37" id="more" d="M165,0C74.019,0,0,74.019,0,165s74.019,165,165,165s165-74.019,165-165S255.981,0,165,0z M85,190 c-13.785,0-25-11.215-25-25s11.215-25,25-25s25,11.215,25,25S98.785,190,85,190z M165,190c-13.785,0-25-11.215-25-25 s11.215-25,25-25s25,11.215,25,25S178.785,190,165,190z M245,190c-13.785,0-25-11.215-25-25s11.215-25,25-25 c13.785,0,25,11.215,25,25S258.785,190,245,190z"></path></a></g></svg></svg></svg>