<svg version="1.1" xmlns="http://www.w3.org/2000/svg" xmlns:xlink="http://www.w3.org/1999/xlink" fill="transparent" x="0" y="0" width="350" height="350" preserveAspectRatio="xMinYMin slice"><style type="text/css">.links{fill:transparent;stroke: #E4CF37;}.links:hover{fill:#63D272; opacity:0.4;}</style><defs><g id="allt"><path id="t5868" d="M627,1440 L616,1440 C606,1440 620,1435 611,1435 C603,1436 614,1443 604,1441 L594,1440 594,1440 L593,1449 C593,1459 599,1449 601,1455 C604,1462 594,1454 594,1463 L594,1472 594,1472 L603,1471 C613,1471 603,1477 610,1479 C617,1482 608,1472 617,1472 L627,1472 627,1472 L628,1462 C630,1452 623,1464 621,1456 C619,1448 628,1459 627,1449 L627,1440"/></g><clipPath id="c" clipRule="evenodd" fill="transparent"><use href="#t5868"/></clipPath></defs><svg viewBox="592 1434 39 49" preserveAspectRatio="xMinYMin meet"><svg width="4380" height="2430"><g><image crossorigin="anonymous" x="0" y="0" href="https://nftpuzzle.license-token.com/assets/completepuzzle.svg" width="100%" height="100%" /><g class="links"><use href="#t5868"/></g></g></svg><svg x="616" y="1468" height="9%" width="9%" viewBox="0 0 330 330"><g><a xlink:href="https://nftpuzzle.license-token.com/" class="links"><title>See the most innovative NFT based token software licensing project</title><path fill="#E4CF37" id="more" d="M165,0C74.019,0,0,74.019,0,165s74.019,165,165,165s165-74.019,165-165S255.981,0,165,0z M85,190 c-13.785,0-25-11.215-25-25s11.215-25,25-25s25,11.215,25,25S98.785,190,85,190z M165,190c-13.785,0-25-11.215-25-25 s11.215-25,25-25s25,11.215,25,25S178.785,190,165,190z M245,190c-13.785,0-25-11.215-25-25s11.215-25,25-25 c13.785,0,25,11.215,25,25S258.785,190,245,190z"></path></a></g></svg></svg></svg>