<svg version="1.1" xmlns="http://www.w3.org/2000/svg" xmlns:xlink="http://www.w3.org/1999/xlink" fill="transparent" x="0" y="0" width="350" height="350" preserveAspectRatio="xMinYMin slice"><style type="text/css">.links{fill:transparent;stroke: #E4CF37;}.links:hover{fill:#63D272; opacity:0.4;}</style><defs><g id="allt"><path id="t5870" d="M693,1440 L681,1439 C670,1439 683,1443 674,1443 C665,1444 680,1439 670,1439 L660,1440 660,1440 L660,1449 C661,1458 652,1448 654,1456 C656,1465 663,1454 661,1463 L660,1472 660,1472 L669,1472 C678,1473 668,1464 677,1466 C686,1468 674,1475 683,1473 L693,1472 693,1472 L693,1461 C693,1451 695,1464 696,1454 C697,1445 693,1459 693,1449 L693,1440"/></g><clipPath id="c" clipRule="evenodd" fill="transparent"><use href="#t5870"/></clipPath></defs><svg viewBox="651 1438 47 38" preserveAspectRatio="xMinYMin meet"><svg width="4380" height="2430"><g><image crossorigin="anonymous" x="0" y="0" href="https://nftpuzzle.license-token.com/assets/completepuzzle.svg" width="100%" height="100%" /><g class="links"><use href="#t5870"/></g></g></svg><svg x="683" y="1461" height="9%" width="9%" viewBox="0 0 330 330"><g><a xlink:href="https://nftpuzzle.license-token.com/" class="links"><title>See the most innovative NFT based token software licensing project</title><path fill="#E4CF37" id="more" d="M165,0C74.019,0,0,74.019,0,165s74.019,165,165,165s165-74.019,165-165S255.981,0,165,0z M85,190 c-13.785,0-25-11.215-25-25s11.215-25,25-25s25,11.215,25,25S98.785,190,85,190z M165,190c-13.785,0-25-11.215-25-25 s11.215-25,25-25s25,11.215,25,25S178.785,190,165,190z M245,190c-13.785,0-25-11.215-25-25s11.215-25,25-25 c13.785,0,25,11.215,25,25S258.785,190,245,190z"></path></a></g></svg></svg></svg>