<svg version="1.1" xmlns="http://www.w3.org/2000/svg" xmlns:xlink="http://www.w3.org/1999/xlink" fill="transparent" x="0" y="0" width="350" height="350" preserveAspectRatio="xMinYMin slice"><style type="text/css">.links{fill:transparent;stroke: #E4CF37;}.links:hover{fill:#63D272; opacity:0.4;}</style><defs><g id="allt"><path id="t5874" d="M825,1440 L815,1442 C805,1444 816,1431 808,1430 C800,1430 812,1442 802,1441 L792,1440 792,1440 L791,1450 C791,1460 800,1447 798,1456 C796,1465 791,1454 791,1463 L792,1472 792,1472 L802,1471 C813,1471 799,1480 808,1478 C818,1476 806,1471 815,1471 L825,1472 825,1472 L826,1461 C828,1451 815,1466 817,1456 C820,1446 826,1457 825,1448 L825,1440"/></g><clipPath id="c" clipRule="evenodd" fill="transparent"><use href="#t5874"/></clipPath></defs><svg viewBox="790 1429 39 52" preserveAspectRatio="xMinYMin meet"><svg width="4380" height="2430"><g><image crossorigin="anonymous" x="0" y="0" href="https://nftpuzzle.license-token.com/assets/completepuzzle.svg" width="100%" height="100%" /><g class="links"><use href="#t5874"/></g></g></svg><svg x="814" y="1466" height="9%" width="9%" viewBox="0 0 330 330"><g><a xlink:href="https://nftpuzzle.license-token.com/" class="links"><title>See the most innovative NFT based token software licensing project</title><path fill="#E4CF37" id="more" d="M165,0C74.019,0,0,74.019,0,165s74.019,165,165,165s165-74.019,165-165S255.981,0,165,0z M85,190 c-13.785,0-25-11.215-25-25s11.215-25,25-25s25,11.215,25,25S98.785,190,85,190z M165,190c-13.785,0-25-11.215-25-25 s11.215-25,25-25s25,11.215,25,25S178.785,190,165,190z M245,190c-13.785,0-25-11.215-25-25s11.215-25,25-25 c13.785,0,25,11.215,25,25S258.785,190,245,190z"></path></a></g></svg></svg></svg>