<svg version="1.1" xmlns="http://www.w3.org/2000/svg" xmlns:xlink="http://www.w3.org/1999/xlink" fill="transparent" x="0" y="0" width="350" height="350" preserveAspectRatio="xMinYMin slice"><style type="text/css">.links{fill:transparent;stroke: #E4CF37;}.links:hover{fill:#63D272; opacity:0.4;}</style><defs><g id="allt"><path id="t5876" d="M891,1440 L880,1440 C870,1440 881,1443 873,1444 C865,1445 878,1438 868,1439 L858,1440 858,1440 L858,1449 C859,1459 851,1446 849,1455 C847,1464 863,1452 860,1462 L858,1472 858,1472 L867,1472 C877,1473 864,1465 873,1463 C883,1462 870,1477 880,1474 L891,1472 891,1472 L892,1461 C893,1451 882,1463 883,1455 C885,1448 896,1457 893,1448 L891,1440"/></g><clipPath id="c" clipRule="evenodd" fill="transparent"><use href="#t5876"/></clipPath></defs><svg viewBox="846 1437 51 41" preserveAspectRatio="xMinYMin meet"><svg width="4380" height="2430"><g><image crossorigin="anonymous" x="0" y="0" href="https://nftpuzzle.license-token.com/assets/completepuzzle.svg" width="100%" height="100%" /><g class="links"><use href="#t5876"/></g></g></svg><svg x="882" y="1463" height="9%" width="9%" viewBox="0 0 330 330"><g><a xlink:href="https://nftpuzzle.license-token.com/" class="links"><title>See the most innovative NFT based token software licensing project</title><path fill="#E4CF37" id="more" d="M165,0C74.019,0,0,74.019,0,165s74.019,165,165,165s165-74.019,165-165S255.981,0,165,0z M85,190 c-13.785,0-25-11.215-25-25s11.215-25,25-25s25,11.215,25,25S98.785,190,85,190z M165,190c-13.785,0-25-11.215-25-25 s11.215-25,25-25s25,11.215,25,25S178.785,190,165,190z M245,190c-13.785,0-25-11.215-25-25s11.215-25,25-25 c13.785,0,25,11.215,25,25S258.785,190,245,190z"></path></a></g></svg></svg></svg>