<svg version="1.1" xmlns="http://www.w3.org/2000/svg" xmlns:xlink="http://www.w3.org/1999/xlink" fill="transparent" x="0" y="0" width="350" height="350" preserveAspectRatio="xMinYMin slice"><style type="text/css">.links{fill:transparent;stroke: #E4CF37;}.links:hover{fill:#63D272; opacity:0.4;}</style><defs><g id="allt"><path id="t5880" d="M1023,1440 L1013,1439 C1003,1439 1016,1442 1007,1443 C998,1444 1009,1440 999,1440 L990,1440 990,1440 L989,1448 C988,1457 992,1448 992,1455 C992,1463 990,1453 990,1462 L990,1472 990,1472 L999,1471 C1008,1470 998,1474 1006,1474 C1014,1474 1003,1472 1013,1472 L1023,1472 1023,1472 L1023,1463 C1023,1454 1030,1463 1029,1455 C1029,1448 1017,1457 1020,1448 L1023,1440"/></g><clipPath id="c" clipRule="evenodd" fill="transparent"><use href="#t5880"/></clipPath></defs><svg viewBox="987 1438 44 37" preserveAspectRatio="xMinYMin meet"><svg width="4380" height="2430"><g><image crossorigin="anonymous" x="0" y="0" href="https://nftpuzzle.license-token.com/assets/completepuzzle.svg" width="100%" height="100%" /><g class="links"><use href="#t5880"/></g></g></svg><svg x="1016" y="1460" height="9%" width="9%" viewBox="0 0 330 330"><g><a xlink:href="https://nftpuzzle.license-token.com/" class="links"><title>See the most innovative NFT based token software licensing project</title><path fill="#E4CF37" id="more" d="M165,0C74.019,0,0,74.019,0,165s74.019,165,165,165s165-74.019,165-165S255.981,0,165,0z M85,190 c-13.785,0-25-11.215-25-25s11.215-25,25-25s25,11.215,25,25S98.785,190,85,190z M165,190c-13.785,0-25-11.215-25-25 s11.215-25,25-25s25,11.215,25,25S178.785,190,165,190z M245,190c-13.785,0-25-11.215-25-25s11.215-25,25-25 c13.785,0,25,11.215,25,25S258.785,190,245,190z"></path></a></g></svg></svg></svg>