<svg version="1.1" xmlns="http://www.w3.org/2000/svg" xmlns:xlink="http://www.w3.org/1999/xlink" fill="transparent" x="0" y="0" width="350" height="350" preserveAspectRatio="xMinYMin slice"><style type="text/css">.links{fill:transparent;stroke: #E4CF37;}.links:hover{fill:#63D272; opacity:0.4;}</style><defs><g id="allt"><path id="t5881" d="M1056,1440 L1045,1440 C1034,1441 1047,1436 1039,1435 C1032,1435 1044,1443 1033,1441 L1023,1440 1023,1440 L1020,1448 C1017,1457 1029,1448 1029,1455 C1030,1463 1023,1454 1023,1463 L1023,1472 1023,1472 L1032,1469 C1041,1466 1031,1478 1039,1478 C1047,1479 1037,1472 1046,1472 L1056,1472 1056,1472 L1055,1463 C1054,1454 1066,1465 1066,1455 C1066,1445 1056,1458 1056,1449 L1056,1440"/></g><clipPath id="c" clipRule="evenodd" fill="transparent"><use href="#t5881"/></clipPath></defs><svg viewBox="1016 1434 51 46" preserveAspectRatio="xMinYMin meet"><svg width="4380" height="2430"><g><image crossorigin="anonymous" x="0" y="0" href="https://nftpuzzle.license-token.com/assets/completepuzzle.svg" width="100%" height="100%" /><g class="links"><use href="#t5881"/></g></g></svg><svg x="1052" y="1465" height="9%" width="9%" viewBox="0 0 330 330"><g><a xlink:href="https://nftpuzzle.license-token.com/" class="links"><title>See the most innovative NFT based token software licensing project</title><path fill="#E4CF37" id="more" d="M165,0C74.019,0,0,74.019,0,165s74.019,165,165,165s165-74.019,165-165S255.981,0,165,0z M85,190 c-13.785,0-25-11.215-25-25s11.215-25,25-25s25,11.215,25,25S98.785,190,85,190z M165,190c-13.785,0-25-11.215-25-25 s11.215-25,25-25s25,11.215,25,25S178.785,190,165,190z M245,190c-13.785,0-25-11.215-25-25s11.215-25,25-25 c13.785,0,25,11.215,25,25S258.785,190,245,190z"></path></a></g></svg></svg></svg>