<svg version="1.1" xmlns="http://www.w3.org/2000/svg" xmlns:xlink="http://www.w3.org/1999/xlink" fill="transparent" x="0" y="0" width="350" height="350" preserveAspectRatio="xMinYMin slice"><style type="text/css">.links{fill:transparent;stroke: #E4CF37;}.links:hover{fill:#63D272; opacity:0.4;}</style><defs><g id="allt"><path id="t5884" d="M1155,1440 L1145,1440 C1135,1440 1145,1435 1138,1434 C1131,1434 1143,1445 1132,1442 L1122,1440 1122,1440 L1125,1448 C1128,1457 1114,1446 1114,1455 C1115,1464 1123,1451 1122,1461 L1122,1472 1122,1472 L1131,1475 C1140,1478 1128,1464 1137,1464 C1147,1465 1133,1473 1144,1472 L1155,1472 1155,1472 L1156,1462 C1157,1452 1152,1467 1151,1457 C1151,1447 1156,1458 1155,1449 L1155,1440"/></g><clipPath id="c" clipRule="evenodd" fill="transparent"><use href="#t5884"/></clipPath></defs><svg viewBox="1113 1433 45 46" preserveAspectRatio="xMinYMin meet"><svg width="4380" height="2430"><g><image crossorigin="anonymous" x="0" y="0" href="https://nftpuzzle.license-token.com/assets/completepuzzle.svg" width="100%" height="100%" /><g class="links"><use href="#t5884"/></g></g></svg><svg x="1143" y="1464" height="9%" width="9%" viewBox="0 0 330 330"><g><a xlink:href="https://nftpuzzle.license-token.com/" class="links"><title>See the most innovative NFT based token software licensing project</title><path fill="#E4CF37" id="more" d="M165,0C74.019,0,0,74.019,0,165s74.019,165,165,165s165-74.019,165-165S255.981,0,165,0z M85,190 c-13.785,0-25-11.215-25-25s11.215-25,25-25s25,11.215,25,25S98.785,190,85,190z M165,190c-13.785,0-25-11.215-25-25 s11.215-25,25-25s25,11.215,25,25S178.785,190,165,190z M245,190c-13.785,0-25-11.215-25-25s11.215-25,25-25 c13.785,0,25,11.215,25,25S258.785,190,245,190z"></path></a></g></svg></svg></svg>