<svg version="1.1" xmlns="http://www.w3.org/2000/svg" xmlns:xlink="http://www.w3.org/1999/xlink" fill="transparent" x="0" y="0" width="350" height="350" preserveAspectRatio="xMinYMin slice"><style type="text/css">.links{fill:transparent;stroke: #E4CF37;}.links:hover{fill:#63D272; opacity:0.4;}</style><defs><g id="allt"><path id="t5888" d="M1287,1440 L1277,1440 C1267,1440 1278,1443 1269,1443 C1261,1443 1272,1439 1263,1439 L1254,1440 1254,1440 L1252,1449 C1251,1458 1263,1448 1261,1455 C1260,1463 1254,1452 1254,1462 L1254,1472 1254,1472 L1263,1470 C1273,1469 1262,1481 1270,1479 C1278,1478 1266,1472 1276,1472 L1287,1472 1287,1472 L1286,1461 C1286,1451 1289,1466 1289,1457 C1289,1448 1286,1461 1286,1450 L1287,1440"/></g><clipPath id="c" clipRule="evenodd" fill="transparent"><use href="#t5888"/></clipPath></defs><svg viewBox="1250 1438 40 44" preserveAspectRatio="xMinYMin meet"><svg width="4380" height="2430"><g><image crossorigin="anonymous" x="0" y="0" href="https://nftpuzzle.license-token.com/assets/completepuzzle.svg" width="100%" height="100%" /><g class="links"><use href="#t5888"/></g></g></svg><svg x="1275" y="1467" height="9%" width="9%" viewBox="0 0 330 330"><g><a xlink:href="https://nftpuzzle.license-token.com/" class="links"><title>See the most innovative NFT based token software licensing project</title><path fill="#E4CF37" id="more" d="M165,0C74.019,0,0,74.019,0,165s74.019,165,165,165s165-74.019,165-165S255.981,0,165,0z M85,190 c-13.785,0-25-11.215-25-25s11.215-25,25-25s25,11.215,25,25S98.785,190,85,190z M165,190c-13.785,0-25-11.215-25-25 s11.215-25,25-25s25,11.215,25,25S178.785,190,165,190z M245,190c-13.785,0-25-11.215-25-25s11.215-25,25-25 c13.785,0,25,11.215,25,25S258.785,190,245,190z"></path></a></g></svg></svg></svg>