<svg version="1.1" xmlns="http://www.w3.org/2000/svg" xmlns:xlink="http://www.w3.org/1999/xlink" fill="transparent" x="0" y="0" width="350" height="350" preserveAspectRatio="xMinYMin slice"><style type="text/css">.links{fill:transparent;stroke: #E4CF37;}.links:hover{fill:#63D272; opacity:0.4;}</style><defs><g id="allt"><path id="t5893" d="M1452,1440 L1442,1438 C1432,1436 1443,1448 1435,1447 C1428,1446 1438,1440 1428,1440 L1419,1440 1419,1440 L1419,1449 C1419,1458 1421,1448 1421,1457 C1421,1466 1419,1450 1419,1461 L1419,1472 1419,1472 L1428,1472 C1438,1472 1428,1474 1437,1474 C1446,1474 1430,1472 1441,1472 L1452,1472 1452,1472 L1452,1461 C1452,1451 1444,1466 1441,1457 C1439,1448 1452,1459 1452,1449 L1452,1440"/></g><clipPath id="c" clipRule="evenodd" fill="transparent"><use href="#t5893"/></clipPath></defs><svg viewBox="1418 1435 35 40" preserveAspectRatio="xMinYMin meet"><svg width="4380" height="2430"><g><image crossorigin="anonymous" x="0" y="0" href="https://nftpuzzle.license-token.com/assets/completepuzzle.svg" width="100%" height="100%" /><g class="links"><use href="#t5893"/></g></g></svg><svg x="1438" y="1460" height="9%" width="9%" viewBox="0 0 330 330"><g><a xlink:href="https://nftpuzzle.license-token.com/" class="links"><title>See the most innovative NFT based token software licensing project</title><path fill="#E4CF37" id="more" d="M165,0C74.019,0,0,74.019,0,165s74.019,165,165,165s165-74.019,165-165S255.981,0,165,0z M85,190 c-13.785,0-25-11.215-25-25s11.215-25,25-25s25,11.215,25,25S98.785,190,85,190z M165,190c-13.785,0-25-11.215-25-25 s11.215-25,25-25s25,11.215,25,25S178.785,190,165,190z M245,190c-13.785,0-25-11.215-25-25s11.215-25,25-25 c13.785,0,25,11.215,25,25S258.785,190,245,190z"></path></a></g></svg></svg></svg>