<svg version="1.1" xmlns="http://www.w3.org/2000/svg" xmlns:xlink="http://www.w3.org/1999/xlink" fill="transparent" x="0" y="0" width="350" height="350" preserveAspectRatio="xMinYMin slice"><style type="text/css">.links{fill:transparent;stroke: #E4CF37;}.links:hover{fill:#63D272; opacity:0.4;}</style><defs><g id="allt"><path id="t5899" d="M1650,1440 L1640,1441 C1630,1442 1641,1434 1632,1433 C1624,1432 1638,1441 1627,1440 L1617,1440 1617,1440 L1617,1449 C1617,1459 1607,1445 1609,1455 C1612,1465 1622,1452 1619,1462 L1617,1472 1617,1472 L1627,1472 C1637,1472 1622,1462 1632,1464 C1643,1467 1630,1477 1640,1474 L1650,1472 1650,1472 L1650,1461 C1650,1451 1644,1462 1644,1455 C1644,1449 1650,1460 1650,1450 L1650,1440"/></g><clipPath id="c" clipRule="evenodd" fill="transparent"><use href="#t5899"/></clipPath></defs><svg viewBox="1606 1431 45 47" preserveAspectRatio="xMinYMin meet"><svg width="4380" height="2430"><g><image crossorigin="anonymous" x="0" y="0" href="https://nftpuzzle.license-token.com/assets/completepuzzle.svg" width="100%" height="100%" /><g class="links"><use href="#t5899"/></g></g></svg><svg x="1636" y="1463" height="9%" width="9%" viewBox="0 0 330 330"><g><a xlink:href="https://nftpuzzle.license-token.com/" class="links"><title>See the most innovative NFT based token software licensing project</title><path fill="#E4CF37" id="more" d="M165,0C74.019,0,0,74.019,0,165s74.019,165,165,165s165-74.019,165-165S255.981,0,165,0z M85,190 c-13.785,0-25-11.215-25-25s11.215-25,25-25s25,11.215,25,25S98.785,190,85,190z M165,190c-13.785,0-25-11.215-25-25 s11.215-25,25-25s25,11.215,25,25S178.785,190,165,190z M245,190c-13.785,0-25-11.215-25-25s11.215-25,25-25 c13.785,0,25,11.215,25,25S258.785,190,245,190z"></path></a></g></svg></svg></svg>