<svg version="1.1" xmlns="http://www.w3.org/2000/svg" xmlns:xlink="http://www.w3.org/1999/xlink" fill="transparent" x="0" y="0" width="350" height="350" preserveAspectRatio="xMinYMin slice"><style type="text/css">.links{fill:transparent;stroke: #E4CF37;}.links:hover{fill:#63D272; opacity:0.4;}</style><defs><g id="allt"><path id="t5901" d="M1716,1440 L1706,1440 C1697,1441 1710,1432 1698,1432 C1687,1432 1701,1440 1692,1440 L1683,1440 1683,1440 L1681,1448 C1680,1457 1696,1448 1692,1455 C1689,1463 1683,1452 1683,1462 L1683,1472 1683,1472 L1692,1470 C1701,1469 1691,1485 1699,1481 C1707,1478 1695,1472 1705,1472 L1716,1472 1716,1472 L1716,1461 C1716,1451 1707,1466 1708,1457 C1709,1448 1717,1461 1716,1450 L1716,1440"/></g><clipPath id="c" clipRule="evenodd" fill="transparent"><use href="#t5901"/></clipPath></defs><svg viewBox="1679 1431 39 55" preserveAspectRatio="xMinYMin meet"><svg width="4380" height="2430"><g><image crossorigin="anonymous" x="0" y="0" href="https://nftpuzzle.license-token.com/assets/completepuzzle.svg" width="100%" height="100%" /><g class="links"><use href="#t5901"/></g></g></svg><svg x="1703" y="1471" height="9%" width="9%" viewBox="0 0 330 330"><g><a xlink:href="https://nftpuzzle.license-token.com/" class="links"><title>See the most innovative NFT based token software licensing project</title><path fill="#E4CF37" id="more" d="M165,0C74.019,0,0,74.019,0,165s74.019,165,165,165s165-74.019,165-165S255.981,0,165,0z M85,190 c-13.785,0-25-11.215-25-25s11.215-25,25-25s25,11.215,25,25S98.785,190,85,190z M165,190c-13.785,0-25-11.215-25-25 s11.215-25,25-25s25,11.215,25,25S178.785,190,165,190z M245,190c-13.785,0-25-11.215-25-25s11.215-25,25-25 c13.785,0,25,11.215,25,25S258.785,190,245,190z"></path></a></g></svg></svg></svg>