<svg version="1.1" xmlns="http://www.w3.org/2000/svg" xmlns:xlink="http://www.w3.org/1999/xlink" fill="transparent" x="0" y="0" width="350" height="350" preserveAspectRatio="xMinYMin slice"><style type="text/css">.links{fill:transparent;stroke: #E4CF37;}.links:hover{fill:#63D272; opacity:0.4;}</style><defs><g id="allt"><path id="t5903" d="M1782,1440 L1772,1442 C1762,1444 1777,1432 1766,1431 C1755,1430 1769,1443 1759,1441 L1749,1440 1749,1440 L1748,1449 C1748,1459 1759,1446 1757,1454 C1756,1462 1749,1453 1749,1462 L1749,1472 1749,1472 L1759,1471 C1769,1471 1755,1482 1763,1480 C1772,1479 1762,1472 1772,1472 L1782,1472 1782,1472 L1782,1462 C1782,1452 1777,1465 1778,1455 C1779,1445 1783,1458 1782,1449 L1782,1440"/></g><clipPath id="c" clipRule="evenodd" fill="transparent"><use href="#t5903"/></clipPath></defs><svg viewBox="1747 1429 37 54" preserveAspectRatio="xMinYMin meet"><svg width="4380" height="2430"><g><image crossorigin="anonymous" x="0" y="0" href="https://nftpuzzle.license-token.com/assets/completepuzzle.svg" width="100%" height="100%" /><g class="links"><use href="#t5903"/></g></g></svg><svg x="1769" y="1468" height="9%" width="9%" viewBox="0 0 330 330"><g><a xlink:href="https://nftpuzzle.license-token.com/" class="links"><title>See the most innovative NFT based token software licensing project</title><path fill="#E4CF37" id="more" d="M165,0C74.019,0,0,74.019,0,165s74.019,165,165,165s165-74.019,165-165S255.981,0,165,0z M85,190 c-13.785,0-25-11.215-25-25s11.215-25,25-25s25,11.215,25,25S98.785,190,85,190z M165,190c-13.785,0-25-11.215-25-25 s11.215-25,25-25s25,11.215,25,25S178.785,190,165,190z M245,190c-13.785,0-25-11.215-25-25s11.215-25,25-25 c13.785,0,25,11.215,25,25S258.785,190,245,190z"></path></a></g></svg></svg></svg>