<svg version="1.1" xmlns="http://www.w3.org/2000/svg" xmlns:xlink="http://www.w3.org/1999/xlink" fill="transparent" x="0" y="0" width="350" height="350" preserveAspectRatio="xMinYMin slice"><style type="text/css">.links{fill:transparent;stroke: #E4CF37;}.links:hover{fill:#63D272; opacity:0.4;}</style><defs><g id="allt"><path id="t5906" d="M1881,1440 L1871,1440 C1861,1440 1875,1434 1865,1434 C1855,1434 1868,1441 1858,1440 L1848,1440 1848,1440 L1848,1449 C1848,1459 1845,1447 1844,1455 C1844,1463 1848,1450 1848,1461 L1848,1472 1848,1472 L1858,1472 C1868,1472 1855,1469 1863,1468 C1871,1468 1859,1472 1870,1472 L1881,1472 1881,1472 L1879,1461 C1878,1451 1886,1463 1886,1455 C1886,1447 1880,1459 1880,1449 L1881,1440"/></g><clipPath id="c" clipRule="evenodd" fill="transparent"><use href="#t5906"/></clipPath></defs><svg viewBox="1843 1433 44 40" preserveAspectRatio="xMinYMin meet"><svg width="4380" height="2430"><g><image crossorigin="anonymous" x="0" y="0" href="https://nftpuzzle.license-token.com/assets/completepuzzle.svg" width="100%" height="100%" /><g class="links"><use href="#t5906"/></g></g></svg><svg x="1872" y="1458" height="9%" width="9%" viewBox="0 0 330 330"><g><a xlink:href="https://nftpuzzle.license-token.com/" class="links"><title>See the most innovative NFT based token software licensing project</title><path fill="#E4CF37" id="more" d="M165,0C74.019,0,0,74.019,0,165s74.019,165,165,165s165-74.019,165-165S255.981,0,165,0z M85,190 c-13.785,0-25-11.215-25-25s11.215-25,25-25s25,11.215,25,25S98.785,190,85,190z M165,190c-13.785,0-25-11.215-25-25 s11.215-25,25-25s25,11.215,25,25S178.785,190,165,190z M245,190c-13.785,0-25-11.215-25-25s11.215-25,25-25 c13.785,0,25,11.215,25,25S258.785,190,245,190z"></path></a></g></svg></svg></svg>