<svg version="1.1" xmlns="http://www.w3.org/2000/svg" xmlns:xlink="http://www.w3.org/1999/xlink" fill="transparent" x="0" y="0" width="350" height="350" preserveAspectRatio="xMinYMin slice"><style type="text/css">.links{fill:transparent;stroke: #E4CF37;}.links:hover{fill:#63D272; opacity:0.4;}</style><defs><g id="allt"><path id="t5908" d="M1947,1440 L1935,1440 C1924,1441 1937,1432 1928,1431 C1919,1431 1932,1443 1923,1441 L1914,1440 1914,1440 L1915,1448 C1916,1457 1902,1447 1904,1456 C1907,1466 1915,1452 1914,1462 L1914,1472 1914,1472 L1923,1473 C1932,1474 1921,1460 1931,1462 C1941,1465 1926,1473 1936,1472 L1947,1472 1947,1472 L1946,1461 C1945,1451 1952,1466 1952,1457 C1953,1449 1945,1460 1946,1450 L1947,1440"/></g><clipPath id="c" clipRule="evenodd" fill="transparent"><use href="#t5908"/></clipPath></defs><svg viewBox="1901 1430 53 45" preserveAspectRatio="xMinYMin meet"><svg width="4380" height="2430"><g><image crossorigin="anonymous" x="0" y="0" href="https://nftpuzzle.license-token.com/assets/completepuzzle.svg" width="100%" height="100%" /><g class="links"><use href="#t5908"/></g></g></svg><svg x="1939" y="1460" height="9%" width="9%" viewBox="0 0 330 330"><g><a xlink:href="https://nftpuzzle.license-token.com/" class="links"><title>See the most innovative NFT based token software licensing project</title><path fill="#E4CF37" id="more" d="M165,0C74.019,0,0,74.019,0,165s74.019,165,165,165s165-74.019,165-165S255.981,0,165,0z M85,190 c-13.785,0-25-11.215-25-25s11.215-25,25-25s25,11.215,25,25S98.785,190,85,190z M165,190c-13.785,0-25-11.215-25-25 s11.215-25,25-25s25,11.215,25,25S178.785,190,165,190z M245,190c-13.785,0-25-11.215-25-25s11.215-25,25-25 c13.785,0,25,11.215,25,25S258.785,190,245,190z"></path></a></g></svg></svg></svg>