<svg version="1.1" xmlns="http://www.w3.org/2000/svg" xmlns:xlink="http://www.w3.org/1999/xlink" fill="transparent" x="0" y="0" width="350" height="350" preserveAspectRatio="xMinYMin slice"><style type="text/css">.links{fill:transparent;stroke: #E4CF37;}.links:hover{fill:#63D272; opacity:0.4;}</style><defs><g id="allt"><path id="t5909" d="M1980,1440 L1969,1441 C1959,1442 1970,1435 1963,1436 C1956,1438 1968,1441 1957,1440 L1947,1440 1947,1440 L1946,1450 C1945,1460 1953,1449 1952,1457 C1952,1466 1945,1451 1946,1461 L1947,1472 1947,1472 L1957,1471 C1968,1470 1956,1478 1965,1477 C1974,1477 1959,1470 1969,1471 L1980,1472 1980,1472 L1980,1461 C1980,1450 1975,1466 1974,1456 C1973,1446 1983,1460 1981,1450 L1980,1440"/></g><clipPath id="c" clipRule="evenodd" fill="transparent"><use href="#t5909"/></clipPath></defs><svg viewBox="1944 1434 40 45" preserveAspectRatio="xMinYMin meet"><svg width="4380" height="2430"><g><image crossorigin="anonymous" x="0" y="0" href="https://nftpuzzle.license-token.com/assets/completepuzzle.svg" width="100%" height="100%" /><g class="links"><use href="#t5909"/></g></g></svg><svg x="1969" y="1464" height="9%" width="9%" viewBox="0 0 330 330"><g><a xlink:href="https://nftpuzzle.license-token.com/" class="links"><title>See the most innovative NFT based token software licensing project</title><path fill="#E4CF37" id="more" d="M165,0C74.019,0,0,74.019,0,165s74.019,165,165,165s165-74.019,165-165S255.981,0,165,0z M85,190 c-13.785,0-25-11.215-25-25s11.215-25,25-25s25,11.215,25,25S98.785,190,85,190z M165,190c-13.785,0-25-11.215-25-25 s11.215-25,25-25s25,11.215,25,25S178.785,190,165,190z M245,190c-13.785,0-25-11.215-25-25s11.215-25,25-25 c13.785,0,25,11.215,25,25S258.785,190,245,190z"></path></a></g></svg></svg></svg>