<svg version="1.1" xmlns="http://www.w3.org/2000/svg" xmlns:xlink="http://www.w3.org/1999/xlink" fill="transparent" x="0" y="0" width="350" height="350" preserveAspectRatio="xMinYMin slice"><style type="text/css">.links{fill:transparent;stroke: #E4CF37;}.links:hover{fill:#63D272; opacity:0.4;}</style><defs><g id="allt"><path id="t5910" d="M2013,1440 L2003,1438 C1993,1436 2003,1450 1995,1450 C1988,1450 2000,1438 1990,1439 L1980,1440 1980,1440 L1981,1450 C1983,1460 1973,1446 1974,1456 C1975,1466 1980,1450 1980,1461 L1980,1472 1980,1472 L1990,1473 C2001,1475 1986,1465 1996,1466 C2007,1467 1991,1472 2002,1472 L2013,1472 2013,1472 L2013,1461 C2013,1450 2009,1463 2010,1453 C2011,1444 2014,1458 2013,1449 L2013,1440"/></g><clipPath id="c" clipRule="evenodd" fill="transparent"><use href="#t5910"/></clipPath></defs><svg viewBox="1972 1435 43 41" preserveAspectRatio="xMinYMin meet"><svg width="4380" height="2430"><g><image crossorigin="anonymous" x="0" y="0" href="https://nftpuzzle.license-token.com/assets/completepuzzle.svg" width="100%" height="100%" /><g class="links"><use href="#t5910"/></g></g></svg><svg x="2000" y="1461" height="9%" width="9%" viewBox="0 0 330 330"><g><a xlink:href="https://nftpuzzle.license-token.com/" class="links"><title>See the most innovative NFT based token software licensing project</title><path fill="#E4CF37" id="more" d="M165,0C74.019,0,0,74.019,0,165s74.019,165,165,165s165-74.019,165-165S255.981,0,165,0z M85,190 c-13.785,0-25-11.215-25-25s11.215-25,25-25s25,11.215,25,25S98.785,190,85,190z M165,190c-13.785,0-25-11.215-25-25 s11.215-25,25-25s25,11.215,25,25S178.785,190,165,190z M245,190c-13.785,0-25-11.215-25-25s11.215-25,25-25 c13.785,0,25,11.215,25,25S258.785,190,245,190z"></path></a></g></svg></svg></svg>