<svg version="1.1" xmlns="http://www.w3.org/2000/svg" xmlns:xlink="http://www.w3.org/1999/xlink" fill="transparent" x="0" y="0" width="350" height="350" preserveAspectRatio="xMinYMin slice"><style type="text/css">.links{fill:transparent;stroke: #E4CF37;}.links:hover{fill:#63D272; opacity:0.4;}</style><defs><g id="allt"><path id="t5912" d="M2079,1440 L2067,1441 C2056,1442 2073,1433 2062,1432 C2051,1432 2065,1444 2055,1442 L2046,1440 2046,1440 L2046,1450 C2046,1460 2041,1449 2038,1457 C2036,1466 2049,1452 2047,1462 L2046,1472 2046,1472 L2056,1472 C2066,1472 2055,1467 2064,1464 C2073,1462 2059,1475 2069,1473 L2079,1472 2079,1472 L2079,1461 C2080,1451 2072,1462 2071,1455 C2070,1448 2082,1459 2080,1449 L2079,1440"/></g><clipPath id="c" clipRule="evenodd" fill="transparent"><use href="#t5912"/></clipPath></defs><svg viewBox="2035 1431 48 45" preserveAspectRatio="xMinYMin meet"><svg width="4380" height="2430"><g><image crossorigin="anonymous" x="0" y="0" href="https://nftpuzzle.license-token.com/assets/completepuzzle.svg" width="100%" height="100%" /><g class="links"><use href="#t5912"/></g></g></svg><svg x="2068" y="1461" height="9%" width="9%" viewBox="0 0 330 330"><g><a xlink:href="https://nftpuzzle.license-token.com/" class="links"><title>See the most innovative NFT based token software licensing project</title><path fill="#E4CF37" id="more" d="M165,0C74.019,0,0,74.019,0,165s74.019,165,165,165s165-74.019,165-165S255.981,0,165,0z M85,190 c-13.785,0-25-11.215-25-25s11.215-25,25-25s25,11.215,25,25S98.785,190,85,190z M165,190c-13.785,0-25-11.215-25-25 s11.215-25,25-25s25,11.215,25,25S178.785,190,165,190z M245,190c-13.785,0-25-11.215-25-25s11.215-25,25-25 c13.785,0,25,11.215,25,25S258.785,190,245,190z"></path></a></g></svg></svg></svg>