<svg version="1.1" xmlns="http://www.w3.org/2000/svg" xmlns:xlink="http://www.w3.org/1999/xlink" fill="transparent" x="0" y="0" width="350" height="350" preserveAspectRatio="xMinYMin slice"><style type="text/css">.links{fill:transparent;stroke: #E4CF37;}.links:hover{fill:#63D272; opacity:0.4;}</style><defs><g id="allt"><path id="t5913" d="M2112,1440 L2101,1442 C2090,1445 2105,1435 2095,1435 C2085,1435 2098,1440 2088,1440 L2079,1440 2079,1440 L2080,1449 C2082,1459 2070,1448 2071,1455 C2072,1462 2080,1451 2079,1461 L2079,1472 2079,1472 L2089,1473 C2099,1475 2087,1463 2094,1464 C2102,1465 2091,1473 2101,1472 L2112,1472 2112,1472 L2111,1462 C2111,1452 2105,1465 2104,1454 C2104,1444 2112,1461 2112,1450 L2112,1440"/></g><clipPath id="c" clipRule="evenodd" fill="transparent"><use href="#t5913"/></clipPath></defs><svg viewBox="2069 1434 44 42" preserveAspectRatio="xMinYMin meet"><svg width="4380" height="2430"><g><image crossorigin="anonymous" x="0" y="0" href="https://nftpuzzle.license-token.com/assets/completepuzzle.svg" width="100%" height="100%" /><g class="links"><use href="#t5913"/></g></g></svg><svg x="2098" y="1461" height="9%" width="9%" viewBox="0 0 330 330"><g><a xlink:href="https://nftpuzzle.license-token.com/" class="links"><title>See the most innovative NFT based token software licensing project</title><path fill="#E4CF37" id="more" d="M165,0C74.019,0,0,74.019,0,165s74.019,165,165,165s165-74.019,165-165S255.981,0,165,0z M85,190 c-13.785,0-25-11.215-25-25s11.215-25,25-25s25,11.215,25,25S98.785,190,85,190z M165,190c-13.785,0-25-11.215-25-25 s11.215-25,25-25s25,11.215,25,25S178.785,190,165,190z M245,190c-13.785,0-25-11.215-25-25s11.215-25,25-25 c13.785,0,25,11.215,25,25S258.785,190,245,190z"></path></a></g></svg></svg></svg>