<svg version="1.1" xmlns="http://www.w3.org/2000/svg" xmlns:xlink="http://www.w3.org/1999/xlink" fill="transparent" x="0" y="0" width="350" height="350" preserveAspectRatio="xMinYMin slice"><style type="text/css">.links{fill:transparent;stroke: #E4CF37;}.links:hover{fill:#63D272; opacity:0.4;}</style><defs><g id="allt"><path id="t5915" d="M2178,1440 L2167,1440 C2157,1440 2170,1433 2161,1434 C2153,1436 2165,1440 2155,1440 L2145,1440 2145,1440 L2145,1450 C2146,1460 2142,1445 2141,1454 C2140,1464 2147,1453 2146,1462 L2145,1472 2145,1472 L2155,1472 C2165,1473 2150,1469 2160,1468 C2170,1467 2159,1474 2168,1473 L2178,1472 2178,1472 L2178,1461 C2178,1450 2176,1466 2175,1457 C2175,1448 2180,1459 2179,1449 L2178,1440"/></g><clipPath id="c" clipRule="evenodd" fill="transparent"><use href="#t5915"/></clipPath></defs><svg viewBox="2139 1432 42 43" preserveAspectRatio="xMinYMin meet"><svg width="4380" height="2430"><g><image crossorigin="anonymous" x="0" y="0" href="https://nftpuzzle.license-token.com/assets/completepuzzle.svg" width="100%" height="100%" /><g class="links"><use href="#t5915"/></g></g></svg><svg x="2166" y="1460" height="9%" width="9%" viewBox="0 0 330 330"><g><a xlink:href="https://nftpuzzle.license-token.com/" class="links"><title>See the most innovative NFT based token software licensing project</title><path fill="#E4CF37" id="more" d="M165,0C74.019,0,0,74.019,0,165s74.019,165,165,165s165-74.019,165-165S255.981,0,165,0z M85,190 c-13.785,0-25-11.215-25-25s11.215-25,25-25s25,11.215,25,25S98.785,190,85,190z M165,190c-13.785,0-25-11.215-25-25 s11.215-25,25-25s25,11.215,25,25S178.785,190,165,190z M245,190c-13.785,0-25-11.215-25-25s11.215-25,25-25 c13.785,0,25,11.215,25,25S258.785,190,245,190z"></path></a></g></svg></svg></svg>