<svg version="1.1" xmlns="http://www.w3.org/2000/svg" xmlns:xlink="http://www.w3.org/1999/xlink" fill="transparent" x="0" y="0" width="350" height="350" preserveAspectRatio="xMinYMin slice"><style type="text/css">.links{fill:transparent;stroke: #E4CF37;}.links:hover{fill:#63D272; opacity:0.4;}</style><defs><g id="allt"><path id="t5919" d="M2310,1440 L2299,1440 C2288,1440 2304,1436 2293,1436 C2283,1437 2297,1440 2287,1440 L2277,1440 2277,1440 L2277,1450 C2278,1460 2272,1444 2271,1454 C2271,1464 2278,1454 2277,1463 L2277,1472 2277,1472 L2287,1472 C2298,1473 2281,1467 2291,1466 C2302,1466 2291,1473 2300,1472 L2310,1472 2310,1472 L2310,1462 C2310,1453 2313,1464 2313,1455 C2313,1446 2310,1458 2310,1449 L2310,1440"/></g><clipPath id="c" clipRule="evenodd" fill="transparent"><use href="#t5919"/></clipPath></defs><svg viewBox="2270 1435 44 39" preserveAspectRatio="xMinYMin meet"><svg width="4380" height="2430"><g><image crossorigin="anonymous" x="0" y="0" href="https://nftpuzzle.license-token.com/assets/completepuzzle.svg" width="100%" height="100%" /><g class="links"><use href="#t5919"/></g></g></svg><svg x="2299" y="1459" height="9%" width="9%" viewBox="0 0 330 330"><g><a xlink:href="https://nftpuzzle.license-token.com/" class="links"><title>See the most innovative NFT based token software licensing project</title><path fill="#E4CF37" id="more" d="M165,0C74.019,0,0,74.019,0,165s74.019,165,165,165s165-74.019,165-165S255.981,0,165,0z M85,190 c-13.785,0-25-11.215-25-25s11.215-25,25-25s25,11.215,25,25S98.785,190,85,190z M165,190c-13.785,0-25-11.215-25-25 s11.215-25,25-25s25,11.215,25,25S178.785,190,165,190z M245,190c-13.785,0-25-11.215-25-25s11.215-25,25-25 c13.785,0,25,11.215,25,25S258.785,190,245,190z"></path></a></g></svg></svg></svg>