<svg version="1.1" xmlns="http://www.w3.org/2000/svg" xmlns:xlink="http://www.w3.org/1999/xlink" fill="transparent" x="0" y="0" width="350" height="350" preserveAspectRatio="xMinYMin slice"><style type="text/css">.links{fill:transparent;stroke: #E4CF37;}.links:hover{fill:#63D272; opacity:0.4;}</style><defs><g id="allt"><path id="t5921" d="M2376,1440 L2365,1440 C2354,1440 2370,1429 2361,1431 C2352,1434 2362,1440 2352,1440 L2343,1440 2343,1440 L2343,1450 C2343,1460 2349,1447 2348,1456 C2348,1465 2342,1451 2342,1461 L2343,1472 2343,1472 L2353,1472 C2364,1472 2350,1478 2359,1477 C2369,1477 2355,1471 2365,1471 L2376,1472 2376,1472 L2375,1462 C2374,1453 2384,1465 2383,1456 C2383,1447 2374,1459 2375,1449 L2376,1440"/></g><clipPath id="c" clipRule="evenodd" fill="transparent"><use href="#t5921"/></clipPath></defs><svg viewBox="2341 1428 44 51" preserveAspectRatio="xMinYMin meet"><svg width="4380" height="2430"><g><image crossorigin="anonymous" x="0" y="0" href="https://nftpuzzle.license-token.com/assets/completepuzzle.svg" width="100%" height="100%" /><g class="links"><use href="#t5921"/></g></g></svg><svg x="2370" y="1464" height="9%" width="9%" viewBox="0 0 330 330"><g><a xlink:href="https://nftpuzzle.license-token.com/" class="links"><title>See the most innovative NFT based token software licensing project</title><path fill="#E4CF37" id="more" d="M165,0C74.019,0,0,74.019,0,165s74.019,165,165,165s165-74.019,165-165S255.981,0,165,0z M85,190 c-13.785,0-25-11.215-25-25s11.215-25,25-25s25,11.215,25,25S98.785,190,85,190z M165,190c-13.785,0-25-11.215-25-25 s11.215-25,25-25s25,11.215,25,25S178.785,190,165,190z M245,190c-13.785,0-25-11.215-25-25s11.215-25,25-25 c13.785,0,25,11.215,25,25S258.785,190,245,190z"></path></a></g></svg></svg></svg>