<svg version="1.1" xmlns="http://www.w3.org/2000/svg" xmlns:xlink="http://www.w3.org/1999/xlink" fill="transparent" x="0" y="0" width="350" height="350" preserveAspectRatio="xMinYMin slice"><style type="text/css">.links{fill:transparent;stroke: #E4CF37;}.links:hover{fill:#63D272; opacity:0.4;}</style><defs><g id="allt"><path id="t5923" d="M2442,1440 L2431,1440 C2420,1440 2432,1434 2423,1435 C2415,1436 2427,1440 2418,1440 L2409,1440 2409,1440 L2407,1450 C2405,1460 2417,1447 2415,1456 C2414,1465 2408,1450 2408,1461 L2409,1472 2409,1472 L2419,1470 C2429,1468 2416,1480 2425,1478 C2435,1477 2420,1471 2431,1471 L2442,1472 2442,1472 L2443,1462 C2444,1452 2437,1465 2438,1455 C2439,1445 2443,1458 2442,1449 L2442,1440"/></g><clipPath id="c" clipRule="evenodd" fill="transparent"><use href="#t5923"/></clipPath></defs><svg viewBox="2404 1433 41 48" preserveAspectRatio="xMinYMin meet"><svg width="4380" height="2430"><g><image crossorigin="anonymous" x="0" y="0" href="https://nftpuzzle.license-token.com/assets/completepuzzle.svg" width="100%" height="100%" /><g class="links"><use href="#t5923"/></g></g></svg><svg x="2430" y="1466" height="9%" width="9%" viewBox="0 0 330 330"><g><a xlink:href="https://nftpuzzle.license-token.com/" class="links"><title>See the most innovative NFT based token software licensing project</title><path fill="#E4CF37" id="more" d="M165,0C74.019,0,0,74.019,0,165s74.019,165,165,165s165-74.019,165-165S255.981,0,165,0z M85,190 c-13.785,0-25-11.215-25-25s11.215-25,25-25s25,11.215,25,25S98.785,190,85,190z M165,190c-13.785,0-25-11.215-25-25 s11.215-25,25-25s25,11.215,25,25S178.785,190,165,190z M245,190c-13.785,0-25-11.215-25-25s11.215-25,25-25 c13.785,0,25,11.215,25,25S258.785,190,245,190z"></path></a></g></svg></svg></svg>