<svg version="1.1" xmlns="http://www.w3.org/2000/svg" xmlns:xlink="http://www.w3.org/1999/xlink" fill="transparent" x="0" y="0" width="350" height="350" preserveAspectRatio="xMinYMin slice"><style type="text/css">.links{fill:transparent;stroke: #E4CF37;}.links:hover{fill:#63D272; opacity:0.4;}</style><defs><g id="allt"><path id="t5925" d="M2508,1440 L2497,1440 C2486,1440 2499,1435 2489,1435 C2480,1436 2493,1440 2484,1440 L2475,1440 2475,1440 L2476,1450 C2478,1460 2466,1445 2465,1454 C2464,1464 2476,1454 2475,1463 L2475,1472 2475,1472 L2485,1473 C2496,1475 2480,1463 2489,1462 C2499,1461 2489,1473 2498,1472 L2508,1472 2508,1472 L2508,1461 C2508,1450 2502,1465 2503,1456 C2505,1447 2510,1457 2509,1448 L2508,1440"/></g><clipPath id="c" clipRule="evenodd" fill="transparent"><use href="#t5925"/></clipPath></defs><svg viewBox="2463 1434 48 42" preserveAspectRatio="xMinYMin meet"><svg width="4380" height="2430"><g><image crossorigin="anonymous" x="0" y="0" href="https://nftpuzzle.license-token.com/assets/completepuzzle.svg" width="100%" height="100%" /><g class="links"><use href="#t5925"/></g></g></svg><svg x="2496" y="1461" height="9%" width="9%" viewBox="0 0 330 330"><g><a xlink:href="https://nftpuzzle.license-token.com/" class="links"><title>See the most innovative NFT based token software licensing project</title><path fill="#E4CF37" id="more" d="M165,0C74.019,0,0,74.019,0,165s74.019,165,165,165s165-74.019,165-165S255.981,0,165,0z M85,190 c-13.785,0-25-11.215-25-25s11.215-25,25-25s25,11.215,25,25S98.785,190,85,190z M165,190c-13.785,0-25-11.215-25-25 s11.215-25,25-25s25,11.215,25,25S178.785,190,165,190z M245,190c-13.785,0-25-11.215-25-25s11.215-25,25-25 c13.785,0,25,11.215,25,25S258.785,190,245,190z"></path></a></g></svg></svg></svg>