<svg version="1.1" xmlns="http://www.w3.org/2000/svg" xmlns:xlink="http://www.w3.org/1999/xlink" fill="transparent" x="0" y="0" width="350" height="350" preserveAspectRatio="xMinYMin slice"><style type="text/css">.links{fill:transparent;stroke: #E4CF37;}.links:hover{fill:#63D272; opacity:0.4;}</style><defs><g id="allt"><path id="t593" d="M2442,128 L2432,127 C2423,127 2432,131 2423,133 C2414,135 2428,128 2418,128 L2409,128 2409,128 L2410,137 C2411,147 2404,133 2403,143 C2403,154 2409,139 2409,149 L2409,160 2409,160 L2419,161 C2429,162 2414,155 2425,154 C2436,154 2420,160 2431,160 L2442,160 2442,160 L2443,150 C2444,141 2432,152 2432,144 C2433,136 2442,149 2442,138 L2442,128"/></g><clipPath id="c" clipRule="evenodd" fill="transparent"><use href="#t593"/></clipPath></defs><svg viewBox="2402 126 43 37" preserveAspectRatio="xMinYMin meet"><svg width="4380" height="2430"><g><image crossorigin="anonymous" x="0" y="0" href="https://nftpuzzle.license-token.com/assets/completepuzzle.svg" width="100%" height="100%" /><g class="links"><use href="#t593"/></g></g></svg><svg x="2430" y="148" height="9%" width="9%" viewBox="0 0 330 330"><g><a xlink:href="https://nftpuzzle.license-token.com/" class="links"><title>See the most innovative NFT based token software licensing project</title><path fill="#E4CF37" id="more" d="M165,0C74.019,0,0,74.019,0,165s74.019,165,165,165s165-74.019,165-165S255.981,0,165,0z M85,190 c-13.785,0-25-11.215-25-25s11.215-25,25-25s25,11.215,25,25S98.785,190,85,190z M165,190c-13.785,0-25-11.215-25-25 s11.215-25,25-25s25,11.215,25,25S178.785,190,165,190z M245,190c-13.785,0-25-11.215-25-25s11.215-25,25-25 c13.785,0,25,11.215,25,25S258.785,190,245,190z"></path></a></g></svg></svg></svg>