<svg version="1.1" xmlns="http://www.w3.org/2000/svg" xmlns:xlink="http://www.w3.org/1999/xlink" fill="transparent" x="0" y="0" width="350" height="350" preserveAspectRatio="xMinYMin slice"><style type="text/css">.links{fill:transparent;stroke: #E4CF37;}.links:hover{fill:#63D272; opacity:0.4;}</style><defs><g id="allt"><path id="t5931" d="M2706,1440 L2695,1440 C2685,1440 2697,1438 2689,1438 C2682,1438 2695,1440 2684,1440 L2673,1440 2673,1440 L2673,1449 C2673,1459 2663,1445 2663,1453 C2664,1462 2675,1452 2674,1462 L2673,1472 2673,1472 L2682,1472 C2692,1472 2678,1462 2687,1463 C2696,1464 2685,1474 2695,1473 L2706,1472 2706,1472 L2706,1462 C2706,1452 2715,1464 2716,1454 C2717,1444 2706,1460 2706,1450 L2706,1440"/></g><clipPath id="c" clipRule="evenodd" fill="transparent"><use href="#t5931"/></clipPath></defs><svg viewBox="2662 1437 56 38" preserveAspectRatio="xMinYMin meet"><svg width="4380" height="2430"><g><image crossorigin="anonymous" x="0" y="0" href="https://nftpuzzle.license-token.com/assets/completepuzzle.svg" width="100%" height="100%" /><g class="links"><use href="#t5931"/></g></g></svg><svg x="2703" y="1460" height="9%" width="9%" viewBox="0 0 330 330"><g><a xlink:href="https://nftpuzzle.license-token.com/" class="links"><title>See the most innovative NFT based token software licensing project</title><path fill="#E4CF37" id="more" d="M165,0C74.019,0,0,74.019,0,165s74.019,165,165,165s165-74.019,165-165S255.981,0,165,0z M85,190 c-13.785,0-25-11.215-25-25s11.215-25,25-25s25,11.215,25,25S98.785,190,85,190z M165,190c-13.785,0-25-11.215-25-25 s11.215-25,25-25s25,11.215,25,25S178.785,190,165,190z M245,190c-13.785,0-25-11.215-25-25s11.215-25,25-25 c13.785,0,25,11.215,25,25S258.785,190,245,190z"></path></a></g></svg></svg></svg>