<svg version="1.1" xmlns="http://www.w3.org/2000/svg" xmlns:xlink="http://www.w3.org/1999/xlink" fill="transparent" x="0" y="0" width="350" height="350" preserveAspectRatio="xMinYMin slice"><style type="text/css">.links{fill:transparent;stroke: #E4CF37;}.links:hover{fill:#63D272; opacity:0.4;}</style><defs><g id="allt"><path id="t5933" d="M2772,1440 L2761,1440 C2750,1440 2764,1444 2755,1443 C2747,1443 2759,1439 2749,1439 L2739,1440 2739,1440 L2739,1450 C2739,1460 2734,1448 2734,1455 C2735,1462 2741,1450 2740,1461 L2739,1472 2739,1472 L2749,1472 C2759,1472 2747,1467 2754,1467 C2762,1468 2749,1474 2760,1473 L2772,1472 2772,1472 L2773,1461 C2775,1451 2767,1462 2768,1454 C2769,1446 2773,1460 2772,1450 L2772,1440"/></g><clipPath id="c" clipRule="evenodd" fill="transparent"><use href="#t5933"/></clipPath></defs><svg viewBox="2733 1438 43 37" preserveAspectRatio="xMinYMin meet"><svg width="4380" height="2430"><g><image crossorigin="anonymous" x="0" y="0" href="https://nftpuzzle.license-token.com/assets/completepuzzle.svg" width="100%" height="100%" /><g class="links"><use href="#t5933"/></g></g></svg><svg x="2761" y="1460" height="9%" width="9%" viewBox="0 0 330 330"><g><a xlink:href="https://nftpuzzle.license-token.com/" class="links"><title>See the most innovative NFT based token software licensing project</title><path fill="#E4CF37" id="more" d="M165,0C74.019,0,0,74.019,0,165s74.019,165,165,165s165-74.019,165-165S255.981,0,165,0z M85,190 c-13.785,0-25-11.215-25-25s11.215-25,25-25s25,11.215,25,25S98.785,190,85,190z M165,190c-13.785,0-25-11.215-25-25 s11.215-25,25-25s25,11.215,25,25S178.785,190,165,190z M245,190c-13.785,0-25-11.215-25-25s11.215-25,25-25 c13.785,0,25,11.215,25,25S258.785,190,245,190z"></path></a></g></svg></svg></svg>