<svg version="1.1" xmlns="http://www.w3.org/2000/svg" xmlns:xlink="http://www.w3.org/1999/xlink" fill="transparent" x="0" y="0" width="350" height="350" preserveAspectRatio="xMinYMin slice"><style type="text/css">.links{fill:transparent;stroke: #E4CF37;}.links:hover{fill:#63D272; opacity:0.4;}</style><defs><g id="allt"><path id="t5938" d="M2937,1440 L2927,1440 C2918,1440 2931,1444 2920,1446 C2910,1448 2926,1439 2915,1439 L2904,1440 2904,1440 L2903,1449 C2902,1459 2908,1448 2908,1456 C2909,1464 2904,1453 2904,1462 L2904,1472 2904,1472 L2914,1471 C2924,1470 2912,1476 2920,1476 C2929,1477 2917,1472 2927,1472 L2937,1472 2937,1472 L2937,1462 C2937,1453 2944,1465 2946,1454 C2949,1444 2935,1459 2936,1449 L2937,1440"/></g><clipPath id="c" clipRule="evenodd" fill="transparent"><use href="#t5938"/></clipPath></defs><svg viewBox="2901 1438 49 40" preserveAspectRatio="xMinYMin meet"><svg width="4380" height="2430"><g><image crossorigin="anonymous" x="0" y="0" href="https://nftpuzzle.license-token.com/assets/completepuzzle.svg" width="100%" height="100%" /><g class="links"><use href="#t5938"/></g></g></svg><svg x="2935" y="1463" height="9%" width="9%" viewBox="0 0 330 330"><g><a xlink:href="https://nftpuzzle.license-token.com/" class="links"><title>See the most innovative NFT based token software licensing project</title><path fill="#E4CF37" id="more" d="M165,0C74.019,0,0,74.019,0,165s74.019,165,165,165s165-74.019,165-165S255.981,0,165,0z M85,190 c-13.785,0-25-11.215-25-25s11.215-25,25-25s25,11.215,25,25S98.785,190,85,190z M165,190c-13.785,0-25-11.215-25-25 s11.215-25,25-25s25,11.215,25,25S178.785,190,165,190z M245,190c-13.785,0-25-11.215-25-25s11.215-25,25-25 c13.785,0,25,11.215,25,25S258.785,190,245,190z"></path></a></g></svg></svg></svg>