<svg version="1.1" xmlns="http://www.w3.org/2000/svg" xmlns:xlink="http://www.w3.org/1999/xlink" fill="transparent" x="0" y="0" width="350" height="350" preserveAspectRatio="xMinYMin slice"><style type="text/css">.links{fill:transparent;stroke: #E4CF37;}.links:hover{fill:#63D272; opacity:0.4;}</style><defs><g id="allt"><path id="t5943" d="M3102,1440 L3092,1441 C3082,1443 3095,1435 3084,1434 C3074,1433 3090,1440 3079,1440 L3069,1440 3069,1440 L3069,1450 C3069,1460 3065,1448 3063,1455 C3062,1462 3069,1451 3069,1461 L3069,1472 3069,1472 L3079,1472 C3090,1472 3077,1468 3084,1466 C3092,1465 3080,1472 3091,1472 L3102,1472 3102,1472 L3101,1462 C3100,1453 3108,1464 3108,1456 C3108,1448 3099,1458 3100,1449 L3102,1440"/></g><clipPath id="c" clipRule="evenodd" fill="transparent"><use href="#t5943"/></clipPath></defs><svg viewBox="3061 1432 48 41" preserveAspectRatio="xMinYMin meet"><svg width="4380" height="2430"><g><image crossorigin="anonymous" x="0" y="0" href="https://nftpuzzle.license-token.com/assets/completepuzzle.svg" width="100%" height="100%" /><g class="links"><use href="#t5943"/></g></g></svg><svg x="3094" y="1458" height="9%" width="9%" viewBox="0 0 330 330"><g><a xlink:href="https://nftpuzzle.license-token.com/" class="links"><title>See the most innovative NFT based token software licensing project</title><path fill="#E4CF37" id="more" d="M165,0C74.019,0,0,74.019,0,165s74.019,165,165,165s165-74.019,165-165S255.981,0,165,0z M85,190 c-13.785,0-25-11.215-25-25s11.215-25,25-25s25,11.215,25,25S98.785,190,85,190z M165,190c-13.785,0-25-11.215-25-25 s11.215-25,25-25s25,11.215,25,25S178.785,190,165,190z M245,190c-13.785,0-25-11.215-25-25s11.215-25,25-25 c13.785,0,25,11.215,25,25S258.785,190,245,190z"></path></a></g></svg></svg></svg>