<svg version="1.1" xmlns="http://www.w3.org/2000/svg" xmlns:xlink="http://www.w3.org/1999/xlink" fill="transparent" x="0" y="0" width="350" height="350" preserveAspectRatio="xMinYMin slice"><style type="text/css">.links{fill:transparent;stroke: #E4CF37;}.links:hover{fill:#63D272; opacity:0.4;}</style><defs><g id="allt"><path id="t595" d="M2508,128 L2497,127 C2486,127 2499,137 2491,137 C2484,137 2495,126 2485,127 L2475,128 2475,128 L2475,137 C2475,147 2478,136 2478,143 C2479,151 2474,142 2474,151 L2475,160 2475,160 L2485,160 C2495,160 2484,163 2491,163 C2499,164 2489,159 2498,159 L2508,160 2508,160 L2508,150 C2508,140 2514,155 2513,145 C2512,135 2508,149 2508,138 L2508,128"/></g><clipPath id="c" clipRule="evenodd" fill="transparent"><use href="#t595"/></clipPath></defs><svg viewBox="2473 125 42 40" preserveAspectRatio="xMinYMin meet"><svg width="4380" height="2430"><g><image crossorigin="anonymous" x="0" y="0" href="https://nftpuzzle.license-token.com/assets/completepuzzle.svg" width="100%" height="100%" /><g class="links"><use href="#t595"/></g></g></svg><svg x="2500" y="150" height="9%" width="9%" viewBox="0 0 330 330"><g><a xlink:href="https://nftpuzzle.license-token.com/" class="links"><title>See the most innovative NFT based token software licensing project</title><path fill="#E4CF37" id="more" d="M165,0C74.019,0,0,74.019,0,165s74.019,165,165,165s165-74.019,165-165S255.981,0,165,0z M85,190 c-13.785,0-25-11.215-25-25s11.215-25,25-25s25,11.215,25,25S98.785,190,85,190z M165,190c-13.785,0-25-11.215-25-25 s11.215-25,25-25s25,11.215,25,25S178.785,190,165,190z M245,190c-13.785,0-25-11.215-25-25s11.215-25,25-25 c13.785,0,25,11.215,25,25S258.785,190,245,190z"></path></a></g></svg></svg></svg>