<svg version="1.1" xmlns="http://www.w3.org/2000/svg" xmlns:xlink="http://www.w3.org/1999/xlink" fill="transparent" x="0" y="0" width="350" height="350" preserveAspectRatio="xMinYMin slice"><style type="text/css">.links{fill:transparent;stroke: #E4CF37;}.links:hover{fill:#63D272; opacity:0.4;}</style><defs><g id="allt"><path id="t5955" d="M3498,1440 L3488,1440 C3479,1440 3491,1446 3481,1445 C3472,1444 3484,1439 3474,1439 L3465,1440 3465,1440 L3465,1449 C3466,1458 3456,1448 3456,1456 C3456,1464 3470,1452 3467,1462 L3465,1472 3465,1472 L3474,1472 C3484,1473 3473,1463 3481,1463 C3489,1463 3477,1477 3487,1474 L3498,1472 3498,1472 L3497,1461 C3497,1451 3486,1465 3486,1454 C3487,1444 3498,1460 3498,1450 L3498,1440"/></g><clipPath id="c" clipRule="evenodd" fill="transparent"><use href="#t5955"/></clipPath></defs><svg viewBox="3455 1438 44 40" preserveAspectRatio="xMinYMin meet"><svg width="4380" height="2430"><g><image crossorigin="anonymous" x="0" y="0" href="https://nftpuzzle.license-token.com/assets/completepuzzle.svg" width="100%" height="100%" /><g class="links"><use href="#t5955"/></g></g></svg><svg x="3484" y="1463" height="9%" width="9%" viewBox="0 0 330 330"><g><a xlink:href="https://nftpuzzle.license-token.com/" class="links"><title>See the most innovative NFT based token software licensing project</title><path fill="#E4CF37" id="more" d="M165,0C74.019,0,0,74.019,0,165s74.019,165,165,165s165-74.019,165-165S255.981,0,165,0z M85,190 c-13.785,0-25-11.215-25-25s11.215-25,25-25s25,11.215,25,25S98.785,190,85,190z M165,190c-13.785,0-25-11.215-25-25 s11.215-25,25-25s25,11.215,25,25S178.785,190,165,190z M245,190c-13.785,0-25-11.215-25-25s11.215-25,25-25 c13.785,0,25,11.215,25,25S258.785,190,245,190z"></path></a></g></svg></svg></svg>