<svg version="1.1" xmlns="http://www.w3.org/2000/svg" xmlns:xlink="http://www.w3.org/1999/xlink" fill="transparent" x="0" y="0" width="350" height="350" preserveAspectRatio="xMinYMin slice"><style type="text/css">.links{fill:transparent;stroke: #E4CF37;}.links:hover{fill:#63D272; opacity:0.4;}</style><defs><g id="allt"><path id="t5961" d="M3696,1440 L3686,1439 C3676,1438 3689,1442 3678,1442 C3668,1443 3685,1440 3674,1440 L3663,1440 3663,1440 L3663,1448 C3663,1457 3659,1448 3658,1457 C3658,1466 3664,1450 3663,1461 L3663,1472 3663,1472 L3672,1472 C3681,1472 3671,1468 3680,1467 C3690,1467 3673,1473 3684,1472 L3696,1472 3696,1472 L3696,1461 C3696,1451 3684,1463 3685,1456 C3687,1449 3699,1461 3697,1450 L3696,1440"/></g><clipPath id="c" clipRule="evenodd" fill="transparent"><use href="#t5961"/></clipPath></defs><svg viewBox="3657 1437 43 37" preserveAspectRatio="xMinYMin meet"><svg width="4380" height="2430"><g><image crossorigin="anonymous" x="0" y="0" href="https://nftpuzzle.license-token.com/assets/completepuzzle.svg" width="100%" height="100%" /><g class="links"><use href="#t5961"/></g></g></svg><svg x="3685" y="1459" height="9%" width="9%" viewBox="0 0 330 330"><g><a xlink:href="https://nftpuzzle.license-token.com/" class="links"><title>See the most innovative NFT based token software licensing project</title><path fill="#E4CF37" id="more" d="M165,0C74.019,0,0,74.019,0,165s74.019,165,165,165s165-74.019,165-165S255.981,0,165,0z M85,190 c-13.785,0-25-11.215-25-25s11.215-25,25-25s25,11.215,25,25S98.785,190,85,190z M165,190c-13.785,0-25-11.215-25-25 s11.215-25,25-25s25,11.215,25,25S178.785,190,165,190z M245,190c-13.785,0-25-11.215-25-25s11.215-25,25-25 c13.785,0,25,11.215,25,25S258.785,190,245,190z"></path></a></g></svg></svg></svg>