<svg version="1.1" xmlns="http://www.w3.org/2000/svg" xmlns:xlink="http://www.w3.org/1999/xlink" fill="transparent" x="0" y="0" width="350" height="350" preserveAspectRatio="xMinYMin slice"><style type="text/css">.links{fill:transparent;stroke: #E4CF37;}.links:hover{fill:#63D272; opacity:0.4;}</style><defs><g id="allt"><path id="t5962" d="M3729,1440 L3719,1440 C3709,1440 3721,1437 3711,1436 C3701,1435 3714,1442 3705,1441 L3696,1440 3696,1440 L3697,1450 C3699,1461 3687,1449 3685,1456 C3684,1463 3696,1451 3696,1461 L3696,1472 3696,1472 L3706,1473 C3717,1475 3705,1463 3712,1461 C3720,1460 3708,1472 3718,1472 L3729,1472 3729,1472 L3726,1462 C3724,1452 3735,1463 3736,1454 C3738,1446 3727,1458 3728,1449 L3729,1440"/></g><clipPath id="c" clipRule="evenodd" fill="transparent"><use href="#t5962"/></clipPath></defs><svg viewBox="3683 1434 56 42" preserveAspectRatio="xMinYMin meet"><svg width="4380" height="2430"><g><image crossorigin="anonymous" x="0" y="0" href="https://nftpuzzle.license-token.com/assets/completepuzzle.svg" width="100%" height="100%" /><g class="links"><use href="#t5962"/></g></g></svg><svg x="3724" y="1461" height="9%" width="9%" viewBox="0 0 330 330"><g><a xlink:href="https://nftpuzzle.license-token.com/" class="links"><title>See the most innovative NFT based token software licensing project</title><path fill="#E4CF37" id="more" d="M165,0C74.019,0,0,74.019,0,165s74.019,165,165,165s165-74.019,165-165S255.981,0,165,0z M85,190 c-13.785,0-25-11.215-25-25s11.215-25,25-25s25,11.215,25,25S98.785,190,85,190z M165,190c-13.785,0-25-11.215-25-25 s11.215-25,25-25s25,11.215,25,25S178.785,190,165,190z M245,190c-13.785,0-25-11.215-25-25s11.215-25,25-25 c13.785,0,25,11.215,25,25S258.785,190,245,190z"></path></a></g></svg></svg></svg>