<svg version="1.1" xmlns="http://www.w3.org/2000/svg" xmlns:xlink="http://www.w3.org/1999/xlink" fill="transparent" x="0" y="0" width="350" height="350" preserveAspectRatio="xMinYMin slice"><style type="text/css">.links{fill:transparent;stroke: #E4CF37;}.links:hover{fill:#63D272; opacity:0.4;}</style><defs><g id="allt"><path id="t5967" d="M3894,1440 L3883,1440 C3872,1440 3887,1436 3878,1437 C3869,1438 3881,1440 3871,1440 L3861,1440 3861,1440 L3861,1449 C3861,1459 3868,1444 3867,1454 C3866,1465 3858,1454 3859,1463 L3861,1472 3861,1472 L3871,1472 C3881,1472 3865,1479 3876,1478 C3887,1477 3875,1469 3884,1470 L3894,1472 3894,1472 L3893,1463 C3892,1454 3904,1465 3903,1456 C3902,1447 3891,1458 3892,1449 L3894,1440"/></g><clipPath id="c" clipRule="evenodd" fill="transparent"><use href="#t5967"/></clipPath></defs><svg viewBox="3857 1435 48 45" preserveAspectRatio="xMinYMin meet"><svg width="4380" height="2430"><g><image crossorigin="anonymous" x="0" y="0" href="https://nftpuzzle.license-token.com/assets/completepuzzle.svg" width="100%" height="100%" /><g class="links"><use href="#t5967"/></g></g></svg><svg x="3890" y="1465" height="9%" width="9%" viewBox="0 0 330 330"><g><a xlink:href="https://nftpuzzle.license-token.com/" class="links"><title>See the most innovative NFT based token software licensing project</title><path fill="#E4CF37" id="more" d="M165,0C74.019,0,0,74.019,0,165s74.019,165,165,165s165-74.019,165-165S255.981,0,165,0z M85,190 c-13.785,0-25-11.215-25-25s11.215-25,25-25s25,11.215,25,25S98.785,190,85,190z M165,190c-13.785,0-25-11.215-25-25 s11.215-25,25-25s25,11.215,25,25S178.785,190,165,190z M245,190c-13.785,0-25-11.215-25-25s11.215-25,25-25 c13.785,0,25,11.215,25,25S258.785,190,245,190z"></path></a></g></svg></svg></svg>