<svg version="1.1" xmlns="http://www.w3.org/2000/svg" xmlns:xlink="http://www.w3.org/1999/xlink" fill="transparent" x="0" y="0" width="350" height="350" preserveAspectRatio="xMinYMin slice"><style type="text/css">.links{fill:transparent;stroke: #E4CF37;}.links:hover{fill:#63D272; opacity:0.4;}</style><defs><g id="allt"><path id="t5969" d="M3960,1440 L3949,1440 C3939,1440 3950,1433 3942,1433 C3934,1433 3947,1441 3937,1440 L3927,1440 3927,1440 L3927,1449 C3927,1458 3936,1449 3936,1457 C3937,1465 3923,1451 3925,1461 L3927,1472 3927,1472 L3936,1472 C3946,1472 3936,1481 3944,1481 C3953,1482 3939,1468 3949,1470 L3960,1472 3960,1472 L3960,1461 C3960,1450 3954,1462 3952,1453 C3950,1445 3959,1461 3959,1450 L3960,1440"/></g><clipPath id="c" clipRule="evenodd" fill="transparent"><use href="#t5969"/></clipPath></defs><svg viewBox="3922 1432 39 51" preserveAspectRatio="xMinYMin meet"><svg width="4380" height="2430"><g><image crossorigin="anonymous" x="0" y="0" href="https://nftpuzzle.license-token.com/assets/completepuzzle.svg" width="100%" height="100%" /><g class="links"><use href="#t5969"/></g></g></svg><svg x="3946" y="1468" height="9%" width="9%" viewBox="0 0 330 330"><g><a xlink:href="https://nftpuzzle.license-token.com/" class="links"><title>See the most innovative NFT based token software licensing project</title><path fill="#E4CF37" id="more" d="M165,0C74.019,0,0,74.019,0,165s74.019,165,165,165s165-74.019,165-165S255.981,0,165,0z M85,190 c-13.785,0-25-11.215-25-25s11.215-25,25-25s25,11.215,25,25S98.785,190,85,190z M165,190c-13.785,0-25-11.215-25-25 s11.215-25,25-25s25,11.215,25,25S178.785,190,165,190z M245,190c-13.785,0-25-11.215-25-25s11.215-25,25-25 c13.785,0,25,11.215,25,25S258.785,190,245,190z"></path></a></g></svg></svg></svg>