<svg version="1.1" xmlns="http://www.w3.org/2000/svg" xmlns:xlink="http://www.w3.org/1999/xlink" fill="transparent" x="0" y="0" width="350" height="350" preserveAspectRatio="xMinYMin slice"><style type="text/css">.links{fill:transparent;stroke: #E4CF37;}.links:hover{fill:#63D272; opacity:0.4;}</style><defs><g id="allt"><path id="t5971" d="M4026,1440 L4016,1439 C4006,1438 4019,1446 4009,1444 C4000,1443 4012,1438 4002,1439 L3993,1440 3993,1440 L3993,1449 C3994,1458 3988,1447 3989,1455 C3991,1463 3993,1453 3993,1462 L3993,1472 3993,1472 L4002,1472 C4012,1473 4000,1467 4008,1468 C4016,1470 4007,1472 4016,1472 L4026,1472 4026,1472 L4024,1463 C4023,1454 4031,1462 4030,1453 C4029,1444 4026,1458 4026,1449 L4026,1440"/></g><clipPath id="c" clipRule="evenodd" fill="transparent"><use href="#t5971"/></clipPath></defs><svg viewBox="3987 1437 45 37" preserveAspectRatio="xMinYMin meet"><svg width="4380" height="2430"><g><image crossorigin="anonymous" x="0" y="0" href="https://nftpuzzle.license-token.com/assets/completepuzzle.svg" width="100%" height="100%" /><g class="links"><use href="#t5971"/></g></g></svg><svg x="4017" y="1459" height="9%" width="9%" viewBox="0 0 330 330"><g><a xlink:href="https://nftpuzzle.license-token.com/" class="links"><title>See the most innovative NFT based token software licensing project</title><path fill="#E4CF37" id="more" d="M165,0C74.019,0,0,74.019,0,165s74.019,165,165,165s165-74.019,165-165S255.981,0,165,0z M85,190 c-13.785,0-25-11.215-25-25s11.215-25,25-25s25,11.215,25,25S98.785,190,85,190z M165,190c-13.785,0-25-11.215-25-25 s11.215-25,25-25s25,11.215,25,25S178.785,190,165,190z M245,190c-13.785,0-25-11.215-25-25s11.215-25,25-25 c13.785,0,25,11.215,25,25S258.785,190,245,190z"></path></a></g></svg></svg></svg>