<svg version="1.1" xmlns="http://www.w3.org/2000/svg" xmlns:xlink="http://www.w3.org/1999/xlink" fill="transparent" x="0" y="0" width="350" height="350" preserveAspectRatio="xMinYMin slice"><style type="text/css">.links{fill:transparent;stroke: #E4CF37;}.links:hover{fill:#63D272; opacity:0.4;}</style><defs><g id="allt"><path id="t5973" d="M4092,1440 L4082,1440 C4072,1440 4082,1434 4074,1434 C4066,1435 4078,1440 4068,1440 L4059,1440 4059,1440 L4059,1450 C4059,1461 4062,1445 4062,1455 C4063,1466 4059,1452 4059,1462 L4059,1472 4059,1472 L4070,1472 C4081,1472 4064,1475 4075,1475 C4086,1476 4071,1472 4081,1472 L4092,1472 4092,1472 L4093,1461 C4095,1451 4087,1465 4086,1455 C4085,1446 4092,1457 4092,1448 L4092,1440"/></g><clipPath id="c" clipRule="evenodd" fill="transparent"><use href="#t5973"/></clipPath></defs><svg viewBox="4058 1433 38 44" preserveAspectRatio="xMinYMin meet"><svg width="4380" height="2430"><g><image crossorigin="anonymous" x="0" y="0" href="https://nftpuzzle.license-token.com/assets/completepuzzle.svg" width="100%" height="100%" /><g class="links"><use href="#t5973"/></g></g></svg><svg x="4081" y="1462" height="9%" width="9%" viewBox="0 0 330 330"><g><a xlink:href="https://nftpuzzle.license-token.com/" class="links"><title>See the most innovative NFT based token software licensing project</title><path fill="#E4CF37" id="more" d="M165,0C74.019,0,0,74.019,0,165s74.019,165,165,165s165-74.019,165-165S255.981,0,165,0z M85,190 c-13.785,0-25-11.215-25-25s11.215-25,25-25s25,11.215,25,25S98.785,190,85,190z M165,190c-13.785,0-25-11.215-25-25 s11.215-25,25-25s25,11.215,25,25S178.785,190,165,190z M245,190c-13.785,0-25-11.215-25-25s11.215-25,25-25 c13.785,0,25,11.215,25,25S258.785,190,245,190z"></path></a></g></svg></svg></svg>