<svg version="1.1" xmlns="http://www.w3.org/2000/svg" xmlns:xlink="http://www.w3.org/1999/xlink" fill="transparent" x="0" y="0" width="350" height="350" preserveAspectRatio="xMinYMin slice"><style type="text/css">.links{fill:transparent;stroke: #E4CF37;}.links:hover{fill:#63D272; opacity:0.4;}</style><defs><g id="allt"><path id="t5974" d="M4125,1440 L4114,1440 C4103,1440 4116,1435 4107,1435 C4098,1435 4113,1442 4102,1441 L4092,1440 4092,1440 L4092,1448 C4092,1457 4085,1446 4086,1455 C4087,1465 4095,1451 4093,1461 L4092,1472 4092,1472 L4101,1472 C4110,1472 4098,1465 4108,1466 C4118,1467 4103,1475 4114,1473 L4125,1472 4125,1472 L4125,1462 C4125,1452 4118,1465 4117,1456 C4117,1447 4126,1459 4125,1449 L4125,1440"/></g><clipPath id="c" clipRule="evenodd" fill="transparent"><use href="#t5974"/></clipPath></defs><svg viewBox="4084 1434 43 42" preserveAspectRatio="xMinYMin meet"><svg width="4380" height="2430"><g><image crossorigin="anonymous" x="0" y="0" href="https://nftpuzzle.license-token.com/assets/completepuzzle.svg" width="100%" height="100%" /><g class="links"><use href="#t5974"/></g></g></svg><svg x="4112" y="1461" height="9%" width="9%" viewBox="0 0 330 330"><g><a xlink:href="https://nftpuzzle.license-token.com/" class="links"><title>See the most innovative NFT based token software licensing project</title><path fill="#E4CF37" id="more" d="M165,0C74.019,0,0,74.019,0,165s74.019,165,165,165s165-74.019,165-165S255.981,0,165,0z M85,190 c-13.785,0-25-11.215-25-25s11.215-25,25-25s25,11.215,25,25S98.785,190,85,190z M165,190c-13.785,0-25-11.215-25-25 s11.215-25,25-25s25,11.215,25,25S178.785,190,165,190z M245,190c-13.785,0-25-11.215-25-25s11.215-25,25-25 c13.785,0,25,11.215,25,25S258.785,190,245,190z"></path></a></g></svg></svg></svg>