<svg version="1.1" xmlns="http://www.w3.org/2000/svg" xmlns:xlink="http://www.w3.org/1999/xlink" fill="transparent" x="0" y="0" width="350" height="350" preserveAspectRatio="xMinYMin slice"><style type="text/css">.links{fill:transparent;stroke: #E4CF37;}.links:hover{fill:#63D272; opacity:0.4;}</style><defs><g id="allt"><path id="t5975" d="M4158,1440 L4148,1440 C4139,1441 4149,1433 4141,1434 C4134,1436 4146,1440 4135,1440 L4125,1440 4125,1440 L4125,1449 C4126,1459 4117,1447 4117,1456 C4118,1465 4125,1452 4125,1462 L4125,1472 4125,1472 L4135,1472 C4145,1473 4132,1464 4141,1464 C4151,1465 4137,1472 4147,1472 L4158,1472 4158,1472 L4158,1463 C4158,1454 4152,1466 4151,1456 C4150,1446 4159,1460 4158,1450 L4158,1440"/></g><clipPath id="c" clipRule="evenodd" fill="transparent"><use href="#t5975"/></clipPath></defs><svg viewBox="4116 1432 44 42" preserveAspectRatio="xMinYMin meet"><svg width="4380" height="2430"><g><image crossorigin="anonymous" x="0" y="0" href="https://nftpuzzle.license-token.com/assets/completepuzzle.svg" width="100%" height="100%" /><g class="links"><use href="#t5975"/></g></g></svg><svg x="4145" y="1459" height="9%" width="9%" viewBox="0 0 330 330"><g><a xlink:href="https://nftpuzzle.license-token.com/" class="links"><title>See the most innovative NFT based token software licensing project</title><path fill="#E4CF37" id="more" d="M165,0C74.019,0,0,74.019,0,165s74.019,165,165,165s165-74.019,165-165S255.981,0,165,0z M85,190 c-13.785,0-25-11.215-25-25s11.215-25,25-25s25,11.215,25,25S98.785,190,85,190z M165,190c-13.785,0-25-11.215-25-25 s11.215-25,25-25s25,11.215,25,25S178.785,190,165,190z M245,190c-13.785,0-25-11.215-25-25s11.215-25,25-25 c13.785,0,25,11.215,25,25S258.785,190,245,190z"></path></a></g></svg></svg></svg>