<svg version="1.1" xmlns="http://www.w3.org/2000/svg" xmlns:xlink="http://www.w3.org/1999/xlink" fill="transparent" x="0" y="0" width="350" height="350" preserveAspectRatio="xMinYMin slice"><style type="text/css">.links{fill:transparent;stroke: #E4CF37;}.links:hover{fill:#63D272; opacity:0.4;}</style><defs><g id="allt"><path id="t5977" d="M4224,1440 L4214,1439 C4204,1439 4215,1447 4205,1447 C4196,1447 4212,1436 4201,1438 L4191,1440 4191,1440 L4191,1450 C4191,1460 4195,1446 4195,1456 C4196,1466 4189,1450 4190,1461 L4191,1472 4191,1472 L4201,1472 C4212,1472 4197,1476 4207,1476 C4218,1477 4201,1470 4212,1471 L4224,1472 4224,1472 L4222,1463 C4221,1454 4233,1464 4233,1456 C4234,1448 4224,1460 4224,1450 L4224,1440"/></g><clipPath id="c" clipRule="evenodd" fill="transparent"><use href="#t5977"/></clipPath></defs><svg viewBox="4188 1435 47 43" preserveAspectRatio="xMinYMin meet"><svg width="4380" height="2430"><g><image crossorigin="anonymous" x="0" y="0" href="https://nftpuzzle.license-token.com/assets/completepuzzle.svg" width="100%" height="100%" /><g class="links"><use href="#t5977"/></g></g></svg><svg x="4220" y="1463" height="9%" width="9%" viewBox="0 0 330 330"><g><a xlink:href="https://nftpuzzle.license-token.com/" class="links"><title>See the most innovative NFT based token software licensing project</title><path fill="#E4CF37" id="more" d="M165,0C74.019,0,0,74.019,0,165s74.019,165,165,165s165-74.019,165-165S255.981,0,165,0z M85,190 c-13.785,0-25-11.215-25-25s11.215-25,25-25s25,11.215,25,25S98.785,190,85,190z M165,190c-13.785,0-25-11.215-25-25 s11.215-25,25-25s25,11.215,25,25S178.785,190,165,190z M245,190c-13.785,0-25-11.215-25-25s11.215-25,25-25 c13.785,0,25,11.215,25,25S258.785,190,245,190z"></path></a></g></svg></svg></svg>