<svg version="1.1" xmlns="http://www.w3.org/2000/svg" xmlns:xlink="http://www.w3.org/1999/xlink" fill="transparent" x="0" y="0" width="350" height="350" preserveAspectRatio="xMinYMin slice"><style type="text/css">.links{fill:transparent;stroke: #E4CF37;}.links:hover{fill:#63D272; opacity:0.4;}</style><defs><g id="allt"><path id="t5986" d="M231,1472 L220,1472 C209,1472 226,1461 215,1460 C204,1460 217,1471 207,1471 L198,1472 198,1472 L198,1481 C198,1490 195,1480 194,1488 C193,1496 199,1485 198,1494 L198,1504 198,1504 L207,1504 C216,1504 206,1501 214,1500 C222,1499 211,1505 221,1504 L231,1504 231,1504 L229,1494 C227,1484 235,1494 237,1486 C240,1479 230,1489 230,1480 L231,1472"/></g><clipPath id="c" clipRule="evenodd" fill="transparent"><use href="#t5986"/></clipPath></defs><svg viewBox="192 1459 49 47" preserveAspectRatio="xMinYMin meet"><svg width="4380" height="2430"><g><image crossorigin="anonymous" x="0" y="0" href="https://nftpuzzle.license-token.com/assets/completepuzzle.svg" width="100%" height="100%" /><g class="links"><use href="#t5986"/></g></g></svg><svg x="226" y="1491" height="9%" width="9%" viewBox="0 0 330 330"><g><a xlink:href="https://nftpuzzle.license-token.com/" class="links"><title>See the most innovative NFT based token software licensing project</title><path fill="#E4CF37" id="more" d="M165,0C74.019,0,0,74.019,0,165s74.019,165,165,165s165-74.019,165-165S255.981,0,165,0z M85,190 c-13.785,0-25-11.215-25-25s11.215-25,25-25s25,11.215,25,25S98.785,190,85,190z M165,190c-13.785,0-25-11.215-25-25 s11.215-25,25-25s25,11.215,25,25S178.785,190,165,190z M245,190c-13.785,0-25-11.215-25-25s11.215-25,25-25 c13.785,0,25,11.215,25,25S258.785,190,245,190z"></path></a></g></svg></svg></svg>