<svg version="1.1" xmlns="http://www.w3.org/2000/svg" xmlns:xlink="http://www.w3.org/1999/xlink" fill="transparent" x="0" y="0" width="350" height="350" preserveAspectRatio="xMinYMin slice"><style type="text/css">.links{fill:transparent;stroke: #E4CF37;}.links:hover{fill:#63D272; opacity:0.4;}</style><defs><g id="allt"><path id="t600" d="M2673,128 L2663,127 C2654,126 2665,134 2657,136 C2649,139 2660,128 2650,128 L2640,128 2640,128 L2640,136 C2640,145 2636,134 2635,143 C2634,152 2640,140 2640,150 L2640,160 2640,160 L2649,160 C2658,160 2646,156 2655,155 C2665,154 2653,160 2663,160 L2673,160 2673,160 L2673,150 C2673,140 2669,154 2670,143 C2671,133 2673,145 2673,136 L2673,128"/></g><clipPath id="c" clipRule="evenodd" fill="transparent"><use href="#t600"/></clipPath></defs><svg viewBox="2633 125 41 36" preserveAspectRatio="xMinYMin meet"><svg width="4380" height="2430"><g><image crossorigin="anonymous" x="0" y="0" href="https://nftpuzzle.license-token.com/assets/completepuzzle.svg" width="100%" height="100%" /><g class="links"><use href="#t600"/></g></g></svg><svg x="2659" y="146" height="9%" width="9%" viewBox="0 0 330 330"><g><a xlink:href="https://nftpuzzle.license-token.com/" class="links"><title>See the most innovative NFT based token software licensing project</title><path fill="#E4CF37" id="more" d="M165,0C74.019,0,0,74.019,0,165s74.019,165,165,165s165-74.019,165-165S255.981,0,165,0z M85,190 c-13.785,0-25-11.215-25-25s11.215-25,25-25s25,11.215,25,25S98.785,190,85,190z M165,190c-13.785,0-25-11.215-25-25 s11.215-25,25-25s25,11.215,25,25S178.785,190,165,190z M245,190c-13.785,0-25-11.215-25-25s11.215-25,25-25 c13.785,0,25,11.215,25,25S258.785,190,245,190z"></path></a></g></svg></svg></svg>