<svg version="1.1" xmlns="http://www.w3.org/2000/svg" xmlns:xlink="http://www.w3.org/1999/xlink" fill="transparent" x="0" y="0" width="350" height="350" preserveAspectRatio="xMinYMin slice"><style type="text/css">.links{fill:transparent;stroke: #E4CF37;}.links:hover{fill:#63D272; opacity:0.4;}</style><defs><g id="allt"><path id="t6004" d="M825,1472 L815,1471 C806,1471 818,1476 808,1478 C799,1480 813,1471 802,1471 L792,1472 792,1472 L793,1481 C794,1491 789,1479 789,1487 C789,1496 793,1484 792,1494 L792,1504 792,1504 L801,1505 C811,1506 799,1501 808,1501 C817,1501 805,1505 815,1504 L825,1504 825,1504 L825,1493 C825,1482 829,1495 829,1486 C830,1478 825,1493 825,1482 L825,1472"/></g><clipPath id="c" clipRule="evenodd" fill="transparent"><use href="#t6004"/></clipPath></defs><svg viewBox="788 1470 43 37" preserveAspectRatio="xMinYMin meet"><svg width="4380" height="2430"><g><image crossorigin="anonymous" x="0" y="0" href="https://nftpuzzle.license-token.com/assets/completepuzzle.svg" width="100%" height="100%" /><g class="links"><use href="#t6004"/></g></g></svg><svg x="816" y="1492" height="9%" width="9%" viewBox="0 0 330 330"><g><a xlink:href="https://nftpuzzle.license-token.com/" class="links"><title>See the most innovative NFT based token software licensing project</title><path fill="#E4CF37" id="more" d="M165,0C74.019,0,0,74.019,0,165s74.019,165,165,165s165-74.019,165-165S255.981,0,165,0z M85,190 c-13.785,0-25-11.215-25-25s11.215-25,25-25s25,11.215,25,25S98.785,190,85,190z M165,190c-13.785,0-25-11.215-25-25 s11.215-25,25-25s25,11.215,25,25S178.785,190,165,190z M245,190c-13.785,0-25-11.215-25-25s11.215-25,25-25 c13.785,0,25,11.215,25,25S258.785,190,245,190z"></path></a></g></svg></svg></svg>