<svg version="1.1" xmlns="http://www.w3.org/2000/svg" xmlns:xlink="http://www.w3.org/1999/xlink" fill="transparent" x="0" y="0" width="350" height="350" preserveAspectRatio="xMinYMin slice"><style type="text/css">.links{fill:transparent;stroke: #E4CF37;}.links:hover{fill:#63D272; opacity:0.4;}</style><defs><g id="allt"><path id="t6007" d="M924,1472 L913,1473 C903,1474 914,1463 907,1464 C900,1466 909,1477 900,1474 L891,1472 891,1472 L890,1480 C890,1489 896,1478 897,1487 C898,1497 891,1482 891,1493 L891,1504 891,1504 L900,1503 C909,1503 897,1509 907,1510 C917,1511 901,1504 912,1504 L924,1504 924,1504 L924,1493 C924,1483 921,1497 921,1488 C921,1479 926,1490 925,1481 L924,1472"/></g><clipPath id="c" clipRule="evenodd" fill="transparent"><use href="#t6007"/></clipPath></defs><svg viewBox="889 1462 38 50" preserveAspectRatio="xMinYMin meet"><svg width="4380" height="2430"><g><image crossorigin="anonymous" x="0" y="0" href="https://nftpuzzle.license-token.com/assets/completepuzzle.svg" width="100%" height="100%" /><g class="links"><use href="#t6007"/></g></g></svg><svg x="912" y="1497" height="9%" width="9%" viewBox="0 0 330 330"><g><a xlink:href="https://nftpuzzle.license-token.com/" class="links"><title>See the most innovative NFT based token software licensing project</title><path fill="#E4CF37" id="more" d="M165,0C74.019,0,0,74.019,0,165s74.019,165,165,165s165-74.019,165-165S255.981,0,165,0z M85,190 c-13.785,0-25-11.215-25-25s11.215-25,25-25s25,11.215,25,25S98.785,190,85,190z M165,190c-13.785,0-25-11.215-25-25 s11.215-25,25-25s25,11.215,25,25S178.785,190,165,190z M245,190c-13.785,0-25-11.215-25-25s11.215-25,25-25 c13.785,0,25,11.215,25,25S258.785,190,245,190z"></path></a></g></svg></svg></svg>