<svg version="1.1" xmlns="http://www.w3.org/2000/svg" xmlns:xlink="http://www.w3.org/1999/xlink" fill="transparent" x="0" y="0" width="350" height="350" preserveAspectRatio="xMinYMin slice"><style type="text/css">.links{fill:transparent;stroke: #E4CF37;}.links:hover{fill:#63D272; opacity:0.4;}</style><defs><g id="allt"><path id="t6009" d="M990,1472 L980,1473 C971,1474 981,1469 971,1468 C962,1467 977,1472 967,1472 L957,1472 957,1472 L957,1481 C958,1491 952,1481 951,1489 C951,1498 960,1483 958,1493 L957,1504 957,1504 L967,1504 C977,1505 966,1499 975,1498 C984,1498 968,1507 979,1505 L990,1504 990,1504 L989,1494 C989,1484 993,1498 994,1489 C995,1481 990,1491 990,1481 L990,1472"/></g><clipPath id="c" clipRule="evenodd" fill="transparent"><use href="#t6009"/></clipPath></defs><svg viewBox="950 1466 46 42" preserveAspectRatio="xMinYMin meet"><svg width="4380" height="2430"><g><image crossorigin="anonymous" x="0" y="0" href="https://nftpuzzle.license-token.com/assets/completepuzzle.svg" width="100%" height="100%" /><g class="links"><use href="#t6009"/></g></g></svg><svg x="981" y="1493" height="9%" width="9%" viewBox="0 0 330 330"><g><a xlink:href="https://nftpuzzle.license-token.com/" class="links"><title>See the most innovative NFT based token software licensing project</title><path fill="#E4CF37" id="more" d="M165,0C74.019,0,0,74.019,0,165s74.019,165,165,165s165-74.019,165-165S255.981,0,165,0z M85,190 c-13.785,0-25-11.215-25-25s11.215-25,25-25s25,11.215,25,25S98.785,190,85,190z M165,190c-13.785,0-25-11.215-25-25 s11.215-25,25-25s25,11.215,25,25S178.785,190,165,190z M245,190c-13.785,0-25-11.215-25-25s11.215-25,25-25 c13.785,0,25,11.215,25,25S258.785,190,245,190z"></path></a></g></svg></svg></svg>