<svg version="1.1" xmlns="http://www.w3.org/2000/svg" xmlns:xlink="http://www.w3.org/1999/xlink" fill="transparent" x="0" y="0" width="350" height="350" preserveAspectRatio="xMinYMin slice"><style type="text/css">.links{fill:transparent;stroke: #E4CF37;}.links:hover{fill:#63D272; opacity:0.4;}</style><defs><g id="allt"><path id="t601" d="M2706,128 L2695,129 C2684,130 2700,123 2691,123 C2682,124 2692,129 2682,128 L2673,128 2673,128 L2673,136 C2673,145 2671,133 2670,143 C2669,154 2673,140 2673,150 L2673,160 2673,160 L2682,160 C2691,160 2678,158 2689,157 C2700,156 2686,160 2696,160 L2706,160 2706,160 L2706,149 C2706,138 2704,153 2704,144 C2704,135 2706,145 2706,136 L2706,128"/></g><clipPath id="c" clipRule="evenodd" fill="transparent"><use href="#t601"/></clipPath></defs><svg viewBox="2668 122 39 39" preserveAspectRatio="xMinYMin meet"><svg width="4380" height="2430"><g><image crossorigin="anonymous" x="0" y="0" href="https://nftpuzzle.license-token.com/assets/completepuzzle.svg" width="100%" height="100%" /><g class="links"><use href="#t601"/></g></g></svg><svg x="2692" y="146" height="9%" width="9%" viewBox="0 0 330 330"><g><a xlink:href="https://nftpuzzle.license-token.com/" class="links"><title>See the most innovative NFT based token software licensing project</title><path fill="#E4CF37" id="more" d="M165,0C74.019,0,0,74.019,0,165s74.019,165,165,165s165-74.019,165-165S255.981,0,165,0z M85,190 c-13.785,0-25-11.215-25-25s11.215-25,25-25s25,11.215,25,25S98.785,190,85,190z M165,190c-13.785,0-25-11.215-25-25 s11.215-25,25-25s25,11.215,25,25S178.785,190,165,190z M245,190c-13.785,0-25-11.215-25-25s11.215-25,25-25 c13.785,0,25,11.215,25,25S258.785,190,245,190z"></path></a></g></svg></svg></svg>