<svg version="1.1" xmlns="http://www.w3.org/2000/svg" xmlns:xlink="http://www.w3.org/1999/xlink" fill="transparent" x="0" y="0" width="350" height="350" preserveAspectRatio="xMinYMin slice"><style type="text/css">.links{fill:transparent;stroke: #E4CF37;}.links:hover{fill:#63D272; opacity:0.4;}</style><defs><g id="allt"><path id="t6014" d="M1155,1472 L1144,1472 C1133,1473 1147,1465 1137,1464 C1128,1464 1140,1478 1131,1475 L1122,1472 1122,1472 L1124,1482 C1126,1492 1112,1479 1113,1486 C1114,1494 1127,1485 1124,1494 L1122,1504 1122,1504 L1132,1506 C1142,1508 1129,1495 1137,1495 C1145,1496 1135,1509 1145,1506 L1155,1504 1155,1504 L1156,1493 C1157,1483 1149,1498 1150,1489 C1151,1480 1155,1491 1155,1481 L1155,1472"/></g><clipPath id="c" clipRule="evenodd" fill="transparent"><use href="#t6014"/></clipPath></defs><svg viewBox="1111 1463 47 47" preserveAspectRatio="xMinYMin meet"><svg width="4380" height="2430"><g><image crossorigin="anonymous" x="0" y="0" href="https://nftpuzzle.license-token.com/assets/completepuzzle.svg" width="100%" height="100%" /><g class="links"><use href="#t6014"/></g></g></svg><svg x="1143" y="1495" height="9%" width="9%" viewBox="0 0 330 330"><g><a xlink:href="https://nftpuzzle.license-token.com/" class="links"><title>See the most innovative NFT based token software licensing project</title><path fill="#E4CF37" id="more" d="M165,0C74.019,0,0,74.019,0,165s74.019,165,165,165s165-74.019,165-165S255.981,0,165,0z M85,190 c-13.785,0-25-11.215-25-25s11.215-25,25-25s25,11.215,25,25S98.785,190,85,190z M165,190c-13.785,0-25-11.215-25-25 s11.215-25,25-25s25,11.215,25,25S178.785,190,165,190z M245,190c-13.785,0-25-11.215-25-25s11.215-25,25-25 c13.785,0,25,11.215,25,25S258.785,190,245,190z"></path></a></g></svg></svg></svg>