<svg version="1.1" xmlns="http://www.w3.org/2000/svg" xmlns:xlink="http://www.w3.org/1999/xlink" fill="transparent" x="0" y="0" width="350" height="350" preserveAspectRatio="xMinYMin slice"><style type="text/css">.links{fill:transparent;stroke: #E4CF37;}.links:hover{fill:#63D272; opacity:0.4;}</style><defs><g id="allt"><path id="t6017" d="M1254,1472 L1243,1471 C1233,1471 1246,1476 1236,1475 C1227,1474 1241,1470 1231,1471 L1221,1472 1221,1472 L1219,1481 C1218,1490 1229,1479 1231,1487 C1234,1496 1221,1485 1221,1494 L1221,1504 1221,1504 L1230,1502 C1240,1501 1228,1512 1236,1514 C1245,1517 1234,1504 1244,1504 L1254,1504 1254,1504 L1253,1495 C1252,1486 1257,1498 1257,1487 C1258,1477 1254,1491 1254,1481 L1254,1472"/></g><clipPath id="c" clipRule="evenodd" fill="transparent"><use href="#t6017"/></clipPath></defs><svg viewBox="1217 1469 42 49" preserveAspectRatio="xMinYMin meet"><svg width="4380" height="2430"><g><image crossorigin="anonymous" x="0" y="0" href="https://nftpuzzle.license-token.com/assets/completepuzzle.svg" width="100%" height="100%" /><g class="links"><use href="#t6017"/></g></g></svg><svg x="1244" y="1503" height="9%" width="9%" viewBox="0 0 330 330"><g><a xlink:href="https://nftpuzzle.license-token.com/" class="links"><title>See the most innovative NFT based token software licensing project</title><path fill="#E4CF37" id="more" d="M165,0C74.019,0,0,74.019,0,165s74.019,165,165,165s165-74.019,165-165S255.981,0,165,0z M85,190 c-13.785,0-25-11.215-25-25s11.215-25,25-25s25,11.215,25,25S98.785,190,85,190z M165,190c-13.785,0-25-11.215-25-25 s11.215-25,25-25s25,11.215,25,25S178.785,190,165,190z M245,190c-13.785,0-25-11.215-25-25s11.215-25,25-25 c13.785,0,25,11.215,25,25S258.785,190,245,190z"></path></a></g></svg></svg></svg>