<svg version="1.1" xmlns="http://www.w3.org/2000/svg" xmlns:xlink="http://www.w3.org/1999/xlink" fill="transparent" x="0" y="0" width="350" height="350" preserveAspectRatio="xMinYMin slice"><style type="text/css">.links{fill:transparent;stroke: #E4CF37;}.links:hover{fill:#63D272; opacity:0.4;}</style><defs><g id="allt"><path id="t6024" d="M1485,1472 L1474,1472 C1463,1472 1479,1464 1469,1461 C1460,1459 1472,1472 1462,1472 L1452,1472 1452,1472 L1452,1481 C1453,1491 1449,1477 1448,1487 C1447,1497 1452,1485 1452,1494 L1452,1504 1452,1504 L1462,1504 C1472,1505 1457,1501 1467,1500 C1478,1499 1465,1504 1475,1504 L1485,1504 1485,1504 L1485,1495 C1485,1486 1476,1498 1476,1487 C1476,1477 1487,1491 1486,1481 L1485,1472"/></g><clipPath id="c" clipRule="evenodd" fill="transparent"><use href="#t6024"/></clipPath></defs><svg viewBox="1446 1458 42 48" preserveAspectRatio="xMinYMin meet"><svg width="4380" height="2430"><g><image crossorigin="anonymous" x="0" y="0" href="https://nftpuzzle.license-token.com/assets/completepuzzle.svg" width="100%" height="100%" /><g class="links"><use href="#t6024"/></g></g></svg><svg x="1473" y="1491" height="9%" width="9%" viewBox="0 0 330 330"><g><a xlink:href="https://nftpuzzle.license-token.com/" class="links"><title>See the most innovative NFT based token software licensing project</title><path fill="#E4CF37" id="more" d="M165,0C74.019,0,0,74.019,0,165s74.019,165,165,165s165-74.019,165-165S255.981,0,165,0z M85,190 c-13.785,0-25-11.215-25-25s11.215-25,25-25s25,11.215,25,25S98.785,190,85,190z M165,190c-13.785,0-25-11.215-25-25 s11.215-25,25-25s25,11.215,25,25S178.785,190,165,190z M245,190c-13.785,0-25-11.215-25-25s11.215-25,25-25 c13.785,0,25,11.215,25,25S258.785,190,245,190z"></path></a></g></svg></svg></svg>