<svg version="1.1" xmlns="http://www.w3.org/2000/svg" xmlns:xlink="http://www.w3.org/1999/xlink" fill="transparent" x="0" y="0" width="350" height="350" preserveAspectRatio="xMinYMin slice"><style type="text/css">.links{fill:transparent;stroke: #E4CF37;}.links:hover{fill:#63D272; opacity:0.4;}</style><defs><g id="allt"><path id="t6030" d="M1683,1472 L1672,1472 C1661,1472 1673,1466 1666,1466 C1659,1466 1670,1472 1660,1472 L1650,1472 1650,1472 L1650,1480 C1650,1489 1653,1479 1652,1488 C1652,1498 1650,1482 1650,1493 L1650,1504 1650,1504 L1659,1504 C1668,1504 1657,1507 1667,1506 C1677,1506 1661,1504 1672,1504 L1683,1504 1683,1504 L1683,1494 C1684,1484 1680,1495 1680,1486 C1680,1477 1685,1492 1684,1482 L1683,1472"/></g><clipPath id="c" clipRule="evenodd" fill="transparent"><use href="#t6030"/></clipPath></defs><svg viewBox="1649 1465 37 43" preserveAspectRatio="xMinYMin meet"><svg width="4380" height="2430"><g><image crossorigin="anonymous" x="0" y="0" href="https://nftpuzzle.license-token.com/assets/completepuzzle.svg" width="100%" height="100%" /><g class="links"><use href="#t6030"/></g></g></svg><svg x="1671" y="1493" height="9%" width="9%" viewBox="0 0 330 330"><g><a xlink:href="https://nftpuzzle.license-token.com/" class="links"><title>See the most innovative NFT based token software licensing project</title><path fill="#E4CF37" id="more" d="M165,0C74.019,0,0,74.019,0,165s74.019,165,165,165s165-74.019,165-165S255.981,0,165,0z M85,190 c-13.785,0-25-11.215-25-25s11.215-25,25-25s25,11.215,25,25S98.785,190,85,190z M165,190c-13.785,0-25-11.215-25-25 s11.215-25,25-25s25,11.215,25,25S178.785,190,165,190z M245,190c-13.785,0-25-11.215-25-25s11.215-25,25-25 c13.785,0,25,11.215,25,25S258.785,190,245,190z"></path></a></g></svg></svg></svg>