<svg version="1.1" xmlns="http://www.w3.org/2000/svg" xmlns:xlink="http://www.w3.org/1999/xlink" fill="transparent" x="0" y="0" width="350" height="350" preserveAspectRatio="xMinYMin slice"><style type="text/css">.links{fill:transparent;stroke: #E4CF37;}.links:hover{fill:#63D272; opacity:0.4;}</style><defs><g id="allt"><path id="t6032" d="M1749,1472 L1738,1472 C1727,1472 1743,1463 1733,1464 C1724,1465 1737,1473 1726,1472 L1716,1472 1716,1472 L1717,1482 C1718,1493 1710,1481 1709,1488 C1708,1495 1716,1485 1716,1494 L1716,1504 1716,1504 L1726,1505 C1737,1506 1725,1498 1732,1497 C1740,1496 1729,1504 1739,1504 L1749,1504 1749,1504 L1749,1494 C1749,1485 1745,1495 1745,1486 C1745,1478 1749,1490 1749,1481 L1749,1472"/></g><clipPath id="c" clipRule="evenodd" fill="transparent"><use href="#t6032"/></clipPath></defs><svg viewBox="1707 1462 43 45" preserveAspectRatio="xMinYMin meet"><svg width="4380" height="2430"><g><image crossorigin="anonymous" x="0" y="0" href="https://nftpuzzle.license-token.com/assets/completepuzzle.svg" width="100%" height="100%" /><g class="links"><use href="#t6032"/></g></g></svg><svg x="1735" y="1492" height="9%" width="9%" viewBox="0 0 330 330"><g><a xlink:href="https://nftpuzzle.license-token.com/" class="links"><title>See the most innovative NFT based token software licensing project</title><path fill="#E4CF37" id="more" d="M165,0C74.019,0,0,74.019,0,165s74.019,165,165,165s165-74.019,165-165S255.981,0,165,0z M85,190 c-13.785,0-25-11.215-25-25s11.215-25,25-25s25,11.215,25,25S98.785,190,85,190z M165,190c-13.785,0-25-11.215-25-25 s11.215-25,25-25s25,11.215,25,25S178.785,190,165,190z M245,190c-13.785,0-25-11.215-25-25s11.215-25,25-25 c13.785,0,25,11.215,25,25S258.785,190,245,190z"></path></a></g></svg></svg></svg>