<svg version="1.1" xmlns="http://www.w3.org/2000/svg" xmlns:xlink="http://www.w3.org/1999/xlink" fill="transparent" x="0" y="0" width="350" height="350" preserveAspectRatio="xMinYMin slice"><style type="text/css">.links{fill:transparent;stroke: #E4CF37;}.links:hover{fill:#63D272; opacity:0.4;}</style><defs><g id="allt"><path id="t6038" d="M1947,1472 L1936,1472 C1926,1473 1941,1465 1931,1462 C1921,1460 1932,1474 1923,1473 L1914,1472 1914,1472 L1912,1482 C1911,1493 1919,1479 1920,1486 C1922,1494 1913,1486 1913,1495 L1914,1504 1914,1504 L1924,1502 C1935,1501 1921,1509 1929,1510 C1937,1512 1928,1503 1937,1503 L1947,1504 1947,1504 L1948,1493 C1949,1482 1939,1495 1940,1487 C1942,1480 1948,1491 1947,1481 L1947,1472"/></g><clipPath id="c" clipRule="evenodd" fill="transparent"><use href="#t6038"/></clipPath></defs><svg viewBox="1910 1459 40 54" preserveAspectRatio="xMinYMin meet"><svg width="4380" height="2430"><g><image crossorigin="anonymous" x="0" y="0" href="https://nftpuzzle.license-token.com/assets/completepuzzle.svg" width="100%" height="100%" /><g class="links"><use href="#t6038"/></g></g></svg><svg x="1935" y="1498" height="9%" width="9%" viewBox="0 0 330 330"><g><a xlink:href="https://nftpuzzle.license-token.com/" class="links"><title>See the most innovative NFT based token software licensing project</title><path fill="#E4CF37" id="more" d="M165,0C74.019,0,0,74.019,0,165s74.019,165,165,165s165-74.019,165-165S255.981,0,165,0z M85,190 c-13.785,0-25-11.215-25-25s11.215-25,25-25s25,11.215,25,25S98.785,190,85,190z M165,190c-13.785,0-25-11.215-25-25 s11.215-25,25-25s25,11.215,25,25S178.785,190,165,190z M245,190c-13.785,0-25-11.215-25-25s11.215-25,25-25 c13.785,0,25,11.215,25,25S258.785,190,245,190z"></path></a></g></svg></svg></svg>