<svg version="1.1" xmlns="http://www.w3.org/2000/svg" xmlns:xlink="http://www.w3.org/1999/xlink" fill="transparent" x="0" y="0" width="350" height="350" preserveAspectRatio="xMinYMin slice"><style type="text/css">.links{fill:transparent;stroke: #E4CF37;}.links:hover{fill:#63D272; opacity:0.4;}</style><defs><g id="allt"><path id="t6041" d="M2046,1472 L2035,1472 C2024,1472 2037,1468 2027,1469 C2017,1470 2032,1473 2022,1472 L2013,1472 2013,1472 L2013,1481 C2014,1491 2018,1476 2018,1486 C2019,1496 2008,1485 2010,1494 L2013,1504 2013,1504 L2022,1504 C2032,1505 2017,1509 2027,1509 C2037,1510 2027,1499 2036,1501 L2046,1504 2046,1504 L2046,1494 C2046,1484 2041,1496 2040,1486 C2040,1476 2051,1490 2048,1481 L2046,1472"/></g><clipPath id="c" clipRule="evenodd" fill="transparent"><use href="#t6041"/></clipPath></defs><svg viewBox="2007 1467 45 44" preserveAspectRatio="xMinYMin meet"><svg width="4380" height="2430"><g><image crossorigin="anonymous" x="0" y="0" href="https://nftpuzzle.license-token.com/assets/completepuzzle.svg" width="100%" height="100%" /><g class="links"><use href="#t6041"/></g></g></svg><svg x="2037" y="1496" height="9%" width="9%" viewBox="0 0 330 330"><g><a xlink:href="https://nftpuzzle.license-token.com/" class="links"><title>See the most innovative NFT based token software licensing project</title><path fill="#E4CF37" id="more" d="M165,0C74.019,0,0,74.019,0,165s74.019,165,165,165s165-74.019,165-165S255.981,0,165,0z M85,190 c-13.785,0-25-11.215-25-25s11.215-25,25-25s25,11.215,25,25S98.785,190,85,190z M165,190c-13.785,0-25-11.215-25-25 s11.215-25,25-25s25,11.215,25,25S178.785,190,165,190z M245,190c-13.785,0-25-11.215-25-25s11.215-25,25-25 c13.785,0,25,11.215,25,25S258.785,190,245,190z"></path></a></g></svg></svg></svg>