<svg version="1.1" xmlns="http://www.w3.org/2000/svg" xmlns:xlink="http://www.w3.org/1999/xlink" fill="transparent" x="0" y="0" width="350" height="350" preserveAspectRatio="xMinYMin slice"><style type="text/css">.links{fill:transparent;stroke: #E4CF37;}.links:hover{fill:#63D272; opacity:0.4;}</style><defs><g id="allt"><path id="t6046" d="M2211,1472 L2199,1472 C2188,1472 2205,1470 2195,1469 C2186,1469 2197,1474 2187,1473 L2178,1472 2178,1472 L2178,1481 C2179,1491 2169,1481 2169,1488 C2169,1496 2179,1485 2178,1494 L2178,1504 2178,1504 L2188,1504 C2198,1505 2187,1495 2195,1495 C2203,1495 2192,1505 2201,1504 L2211,1504 2211,1504 L2212,1493 C2213,1483 2205,1497 2205,1487 C2205,1478 2215,1491 2213,1481 L2211,1472"/></g><clipPath id="c" clipRule="evenodd" fill="transparent"><use href="#t6046"/></clipPath></defs><svg viewBox="2168 1468 48 38" preserveAspectRatio="xMinYMin meet"><svg width="4380" height="2430"><g><image crossorigin="anonymous" x="0" y="0" href="https://nftpuzzle.license-token.com/assets/completepuzzle.svg" width="100%" height="100%" /><g class="links"><use href="#t6046"/></g></g></svg><svg x="2201" y="1491" height="9%" width="9%" viewBox="0 0 330 330"><g><a xlink:href="https://nftpuzzle.license-token.com/" class="links"><title>See the most innovative NFT based token software licensing project</title><path fill="#E4CF37" id="more" d="M165,0C74.019,0,0,74.019,0,165s74.019,165,165,165s165-74.019,165-165S255.981,0,165,0z M85,190 c-13.785,0-25-11.215-25-25s11.215-25,25-25s25,11.215,25,25S98.785,190,85,190z M165,190c-13.785,0-25-11.215-25-25 s11.215-25,25-25s25,11.215,25,25S178.785,190,165,190z M245,190c-13.785,0-25-11.215-25-25s11.215-25,25-25 c13.785,0,25,11.215,25,25S258.785,190,245,190z"></path></a></g></svg></svg></svg>