<svg version="1.1" xmlns="http://www.w3.org/2000/svg" xmlns:xlink="http://www.w3.org/1999/xlink" fill="transparent" x="0" y="0" width="350" height="350" preserveAspectRatio="xMinYMin slice"><style type="text/css">.links{fill:transparent;stroke: #E4CF37;}.links:hover{fill:#63D272; opacity:0.4;}</style><defs><g id="allt"><path id="t6054" d="M2475,1472 L2464,1473 C2454,1474 2468,1467 2457,1468 C2447,1469 2460,1473 2451,1472 L2442,1472 2442,1472 L2442,1481 C2442,1491 2438,1477 2437,1486 C2437,1496 2442,1482 2442,1493 L2442,1504 2442,1504 L2452,1504 C2462,1504 2447,1500 2456,1499 C2466,1499 2452,1504 2463,1504 L2475,1504 2475,1504 L2475,1495 C2475,1486 2479,1495 2479,1487 C2480,1479 2474,1491 2474,1481 L2475,1472"/></g><clipPath id="c" clipRule="evenodd" fill="transparent"><use href="#t6054"/></clipPath></defs><svg viewBox="2436 1466 45 39" preserveAspectRatio="xMinYMin meet"><svg width="4380" height="2430"><g><image crossorigin="anonymous" x="0" y="0" href="https://nftpuzzle.license-token.com/assets/completepuzzle.svg" width="100%" height="100%" /><g class="links"><use href="#t6054"/></g></g></svg><svg x="2466" y="1490" height="9%" width="9%" viewBox="0 0 330 330"><g><a xlink:href="https://nftpuzzle.license-token.com/" class="links"><title>See the most innovative NFT based token software licensing project</title><path fill="#E4CF37" id="more" d="M165,0C74.019,0,0,74.019,0,165s74.019,165,165,165s165-74.019,165-165S255.981,0,165,0z M85,190 c-13.785,0-25-11.215-25-25s11.215-25,25-25s25,11.215,25,25S98.785,190,85,190z M165,190c-13.785,0-25-11.215-25-25 s11.215-25,25-25s25,11.215,25,25S178.785,190,165,190z M245,190c-13.785,0-25-11.215-25-25s11.215-25,25-25 c13.785,0,25,11.215,25,25S258.785,190,245,190z"></path></a></g></svg></svg></svg>