<svg version="1.1" xmlns="http://www.w3.org/2000/svg" xmlns:xlink="http://www.w3.org/1999/xlink" fill="transparent" x="0" y="0" width="350" height="350" preserveAspectRatio="xMinYMin slice"><style type="text/css">.links{fill:transparent;stroke: #E4CF37;}.links:hover{fill:#63D272; opacity:0.4;}</style><defs><g id="allt"><path id="t6059" d="M2640,1472 L2630,1471 C2621,1470 2630,1481 2622,1479 C2615,1477 2627,1469 2617,1470 L2607,1472 2607,1472 L2608,1481 C2610,1491 2597,1478 2599,1486 C2601,1495 2611,1486 2609,1495 L2607,1504 2607,1504 L2616,1505 C2626,1507 2613,1494 2622,1496 C2631,1498 2621,1508 2630,1506 L2640,1504 2640,1504 L2638,1493 C2636,1482 2649,1499 2648,1488 C2647,1478 2639,1491 2639,1481 L2640,1472"/></g><clipPath id="c" clipRule="evenodd" fill="transparent"><use href="#t6059"/></clipPath></defs><svg viewBox="2596 1468 54 41" preserveAspectRatio="xMinYMin meet"><svg width="4380" height="2430"><g><image crossorigin="anonymous" x="0" y="0" href="https://nftpuzzle.license-token.com/assets/completepuzzle.svg" width="100%" height="100%" /><g class="links"><use href="#t6059"/></g></g></svg><svg x="2635" y="1494" height="9%" width="9%" viewBox="0 0 330 330"><g><a xlink:href="https://nftpuzzle.license-token.com/" class="links"><title>See the most innovative NFT based token software licensing project</title><path fill="#E4CF37" id="more" d="M165,0C74.019,0,0,74.019,0,165s74.019,165,165,165s165-74.019,165-165S255.981,0,165,0z M85,190 c-13.785,0-25-11.215-25-25s11.215-25,25-25s25,11.215,25,25S98.785,190,85,190z M165,190c-13.785,0-25-11.215-25-25 s11.215-25,25-25s25,11.215,25,25S178.785,190,165,190z M245,190c-13.785,0-25-11.215-25-25s11.215-25,25-25 c13.785,0,25,11.215,25,25S258.785,190,245,190z"></path></a></g></svg></svg></svg>