<svg version="1.1" xmlns="http://www.w3.org/2000/svg" xmlns:xlink="http://www.w3.org/1999/xlink" fill="transparent" x="0" y="0" width="350" height="350" preserveAspectRatio="xMinYMin slice"><style type="text/css">.links{fill:transparent;stroke: #E4CF37;}.links:hover{fill:#63D272; opacity:0.4;}</style><defs><g id="allt"><path id="t606" d="M2871,128 L2861,128 C2852,128 2865,137 2856,135 C2847,134 2856,126 2847,127 L2838,128 2838,128 L2838,137 C2839,146 2830,136 2830,143 C2830,151 2838,142 2838,151 L2838,160 2838,160 L2847,160 C2856,161 2846,152 2853,152 C2861,152 2852,160 2861,160 L2871,160 2871,160 L2871,149 C2872,138 2868,154 2867,144 C2867,134 2872,149 2871,138 L2871,128"/></g><clipPath id="c" clipRule="evenodd" fill="transparent"><use href="#t606"/></clipPath></defs><svg viewBox="2829 125 44 37" preserveAspectRatio="xMinYMin meet"><svg width="4380" height="2430"><g><image crossorigin="anonymous" x="0" y="0" href="https://nftpuzzle.license-token.com/assets/completepuzzle.svg" width="100%" height="100%" /><g class="links"><use href="#t606"/></g></g></svg><svg x="2858" y="147" height="9%" width="9%" viewBox="0 0 330 330"><g><a xlink:href="https://nftpuzzle.license-token.com/" class="links"><title>See the most innovative NFT based token software licensing project</title><path fill="#E4CF37" id="more" d="M165,0C74.019,0,0,74.019,0,165s74.019,165,165,165s165-74.019,165-165S255.981,0,165,0z M85,190 c-13.785,0-25-11.215-25-25s11.215-25,25-25s25,11.215,25,25S98.785,190,85,190z M165,190c-13.785,0-25-11.215-25-25 s11.215-25,25-25s25,11.215,25,25S178.785,190,165,190z M245,190c-13.785,0-25-11.215-25-25s11.215-25,25-25 c13.785,0,25,11.215,25,25S258.785,190,245,190z"></path></a></g></svg></svg></svg>