<svg version="1.1" xmlns="http://www.w3.org/2000/svg" xmlns:xlink="http://www.w3.org/1999/xlink" fill="transparent" x="0" y="0" width="350" height="350" preserveAspectRatio="xMinYMin slice"><style type="text/css">.links{fill:transparent;stroke: #E4CF37;}.links:hover{fill:#63D272; opacity:0.4;}</style><defs><g id="allt"><path id="t6062" d="M2739,1472 L2728,1472 C2718,1472 2731,1481 2720,1481 C2710,1482 2727,1472 2716,1472 L2706,1472 2706,1472 L2705,1480 C2704,1489 2710,1478 2711,1488 C2712,1498 2704,1483 2705,1493 L2706,1504 2706,1504 L2715,1503 C2724,1502 2712,1508 2722,1509 C2733,1510 2717,1502 2728,1503 L2739,1504 2739,1504 L2739,1493 C2739,1482 2727,1497 2726,1487 C2726,1478 2739,1491 2739,1481 L2739,1472"/></g><clipPath id="c" clipRule="evenodd" fill="transparent"><use href="#t6062"/></clipPath></defs><svg viewBox="2703 1471 37 40" preserveAspectRatio="xMinYMin meet"><svg width="4380" height="2430"><g><image crossorigin="anonymous" x="0" y="0" href="https://nftpuzzle.license-token.com/assets/completepuzzle.svg" width="100%" height="100%" /><g class="links"><use href="#t6062"/></g></g></svg><svg x="2725" y="1496" height="9%" width="9%" viewBox="0 0 330 330"><g><a xlink:href="https://nftpuzzle.license-token.com/" class="links"><title>See the most innovative NFT based token software licensing project</title><path fill="#E4CF37" id="more" d="M165,0C74.019,0,0,74.019,0,165s74.019,165,165,165s165-74.019,165-165S255.981,0,165,0z M85,190 c-13.785,0-25-11.215-25-25s11.215-25,25-25s25,11.215,25,25S98.785,190,85,190z M165,190c-13.785,0-25-11.215-25-25 s11.215-25,25-25s25,11.215,25,25S178.785,190,165,190z M245,190c-13.785,0-25-11.215-25-25s11.215-25,25-25 c13.785,0,25,11.215,25,25S258.785,190,245,190z"></path></a></g></svg></svg></svg>