<svg version="1.1" xmlns="http://www.w3.org/2000/svg" xmlns:xlink="http://www.w3.org/1999/xlink" fill="transparent" x="0" y="0" width="350" height="350" preserveAspectRatio="xMinYMin slice"><style type="text/css">.links{fill:transparent;stroke: #E4CF37;}.links:hover{fill:#63D272; opacity:0.4;}</style><defs><g id="allt"><path id="t6066" d="M2871,1472 L2860,1472 C2850,1472 2866,1478 2854,1476 C2843,1475 2860,1472 2849,1472 L2838,1472 2838,1472 L2840,1480 C2842,1489 2830,1479 2828,1486 C2827,1494 2839,1482 2838,1493 L2838,1504 2838,1504 L2847,1506 C2856,1508 2845,1496 2853,1495 C2861,1494 2849,1505 2860,1504 L2871,1504 2871,1504 L2873,1493 C2875,1482 2865,1496 2865,1487 C2865,1478 2876,1490 2873,1481 L2871,1472"/></g><clipPath id="c" clipRule="evenodd" fill="transparent"><use href="#t6066"/></clipPath></defs><svg viewBox="2826 1471 51 38" preserveAspectRatio="xMinYMin meet"><svg width="4380" height="2430"><g><image crossorigin="anonymous" x="0" y="0" href="https://nftpuzzle.license-token.com/assets/completepuzzle.svg" width="100%" height="100%" /><g class="links"><use href="#t6066"/></g></g></svg><svg x="2862" y="1494" height="9%" width="9%" viewBox="0 0 330 330"><g><a xlink:href="https://nftpuzzle.license-token.com/" class="links"><title>See the most innovative NFT based token software licensing project</title><path fill="#E4CF37" id="more" d="M165,0C74.019,0,0,74.019,0,165s74.019,165,165,165s165-74.019,165-165S255.981,0,165,0z M85,190 c-13.785,0-25-11.215-25-25s11.215-25,25-25s25,11.215,25,25S98.785,190,85,190z M165,190c-13.785,0-25-11.215-25-25 s11.215-25,25-25s25,11.215,25,25S178.785,190,165,190z M245,190c-13.785,0-25-11.215-25-25s11.215-25,25-25 c13.785,0,25,11.215,25,25S258.785,190,245,190z"></path></a></g></svg></svg></svg>