<svg version="1.1" xmlns="http://www.w3.org/2000/svg" xmlns:xlink="http://www.w3.org/1999/xlink" fill="transparent" x="0" y="0" width="350" height="350" preserveAspectRatio="xMinYMin slice"><style type="text/css">.links{fill:transparent;stroke: #E4CF37;}.links:hover{fill:#63D272; opacity:0.4;}</style><defs><g id="allt"><path id="t6074" d="M3135,1472 L3125,1471 C3115,1470 3127,1478 3118,1478 C3110,1478 3121,1469 3111,1470 L3102,1472 3102,1472 L3102,1482 C3103,1493 3095,1479 3093,1487 C3092,1495 3105,1484 3103,1494 L3102,1504 3102,1504 L3113,1504 C3124,1505 3109,1497 3117,1495 C3126,1494 3114,1507 3124,1505 L3135,1504 3135,1504 L3135,1494 C3135,1485 3127,1496 3129,1488 C3131,1480 3135,1491 3135,1481 L3135,1472"/></g><clipPath id="c" clipRule="evenodd" fill="transparent"><use href="#t6074"/></clipPath></defs><svg viewBox="3091 1468 45 40" preserveAspectRatio="xMinYMin meet"><svg width="4380" height="2430"><g><image crossorigin="anonymous" x="0" y="0" href="https://nftpuzzle.license-token.com/assets/completepuzzle.svg" width="100%" height="100%" /><g class="links"><use href="#t6074"/></g></g></svg><svg x="3121" y="1493" height="9%" width="9%" viewBox="0 0 330 330"><g><a xlink:href="https://nftpuzzle.license-token.com/" class="links"><title>See the most innovative NFT based token software licensing project</title><path fill="#E4CF37" id="more" d="M165,0C74.019,0,0,74.019,0,165s74.019,165,165,165s165-74.019,165-165S255.981,0,165,0z M85,190 c-13.785,0-25-11.215-25-25s11.215-25,25-25s25,11.215,25,25S98.785,190,85,190z M165,190c-13.785,0-25-11.215-25-25 s11.215-25,25-25s25,11.215,25,25S178.785,190,165,190z M245,190c-13.785,0-25-11.215-25-25s11.215-25,25-25 c13.785,0,25,11.215,25,25S258.785,190,245,190z"></path></a></g></svg></svg></svg>