<svg version="1.1" xmlns="http://www.w3.org/2000/svg" xmlns:xlink="http://www.w3.org/1999/xlink" fill="transparent" x="0" y="0" width="350" height="350" preserveAspectRatio="xMinYMin slice"><style type="text/css">.links{fill:transparent;stroke: #E4CF37;}.links:hover{fill:#63D272; opacity:0.4;}</style><defs><g id="allt"><path id="t6079" d="M3300,1472 L3290,1473 C3280,1475 3290,1469 3281,1466 C3272,1464 3285,1472 3276,1472 L3267,1472 3267,1472 L3267,1482 C3267,1492 3261,1477 3262,1487 C3263,1498 3270,1483 3268,1493 L3267,1504 3267,1504 L3277,1504 C3288,1504 3272,1498 3283,1499 C3294,1500 3278,1507 3289,1505 L3300,1504 3300,1504 L3300,1494 C3300,1484 3311,1497 3310,1488 C3309,1479 3300,1492 3300,1482 L3300,1472"/></g><clipPath id="c" clipRule="evenodd" fill="transparent"><use href="#t6079"/></clipPath></defs><svg viewBox="3260 1463 52 45" preserveAspectRatio="xMinYMin meet"><svg width="4380" height="2430"><g><image crossorigin="anonymous" x="0" y="0" href="https://nftpuzzle.license-token.com/assets/completepuzzle.svg" width="100%" height="100%" /><g class="links"><use href="#t6079"/></g></g></svg><svg x="3297" y="1493" height="9%" width="9%" viewBox="0 0 330 330"><g><a xlink:href="https://nftpuzzle.license-token.com/" class="links"><title>See the most innovative NFT based token software licensing project</title><path fill="#E4CF37" id="more" d="M165,0C74.019,0,0,74.019,0,165s74.019,165,165,165s165-74.019,165-165S255.981,0,165,0z M85,190 c-13.785,0-25-11.215-25-25s11.215-25,25-25s25,11.215,25,25S98.785,190,85,190z M165,190c-13.785,0-25-11.215-25-25 s11.215-25,25-25s25,11.215,25,25S178.785,190,165,190z M245,190c-13.785,0-25-11.215-25-25s11.215-25,25-25 c13.785,0,25,11.215,25,25S258.785,190,245,190z"></path></a></g></svg></svg></svg>