<svg version="1.1" xmlns="http://www.w3.org/2000/svg" xmlns:xlink="http://www.w3.org/1999/xlink" fill="transparent" x="0" y="0" width="350" height="350" preserveAspectRatio="xMinYMin slice"><style type="text/css">.links{fill:transparent;stroke: #E4CF37;}.links:hover{fill:#63D272; opacity:0.4;}</style><defs><g id="allt"><path id="t6080" d="M3333,1472 L3323,1472 C3313,1472 3323,1466 3315,1463 C3307,1461 3318,1475 3309,1473 L3300,1472 3300,1472 L3300,1482 C3300,1492 3309,1479 3310,1488 C3311,1497 3300,1484 3300,1494 L3300,1504 3300,1504 L3310,1504 C3321,1504 3307,1513 3316,1514 C3326,1515 3312,1504 3322,1504 L3333,1504 3333,1504 L3334,1494 C3336,1484 3322,1494 3323,1485 C3325,1477 3335,1493 3334,1482 L3333,1472"/></g><clipPath id="c" clipRule="evenodd" fill="transparent"><use href="#t6080"/></clipPath></defs><svg viewBox="3299 1460 38 56" preserveAspectRatio="xMinYMin meet"><svg width="4380" height="2430"><g><image crossorigin="anonymous" x="0" y="0" href="https://nftpuzzle.license-token.com/assets/completepuzzle.svg" width="100%" height="100%" /><g class="links"><use href="#t6080"/></g></g></svg><svg x="3322" y="1501" height="9%" width="9%" viewBox="0 0 330 330"><g><a xlink:href="https://nftpuzzle.license-token.com/" class="links"><title>See the most innovative NFT based token software licensing project</title><path fill="#E4CF37" id="more" d="M165,0C74.019,0,0,74.019,0,165s74.019,165,165,165s165-74.019,165-165S255.981,0,165,0z M85,190 c-13.785,0-25-11.215-25-25s11.215-25,25-25s25,11.215,25,25S98.785,190,85,190z M165,190c-13.785,0-25-11.215-25-25 s11.215-25,25-25s25,11.215,25,25S178.785,190,165,190z M245,190c-13.785,0-25-11.215-25-25s11.215-25,25-25 c13.785,0,25,11.215,25,25S258.785,190,245,190z"></path></a></g></svg></svg></svg>