<svg version="1.1" xmlns="http://www.w3.org/2000/svg" xmlns:xlink="http://www.w3.org/1999/xlink" fill="transparent" x="0" y="0" width="350" height="350" preserveAspectRatio="xMinYMin slice"><style type="text/css">.links{fill:transparent;stroke: #E4CF37;}.links:hover{fill:#63D272; opacity:0.4;}</style><defs><g id="allt"><path id="t6081" d="M3366,1472 L3355,1474 C3344,1477 3356,1464 3348,1464 C3341,1465 3353,1473 3343,1472 L3333,1472 3333,1472 L3334,1482 C3335,1493 3325,1477 3323,1485 C3322,1494 3336,1484 3334,1494 L3333,1504 3333,1504 L3344,1505 C3355,1506 3338,1496 3347,1494 C3356,1493 3345,1507 3355,1505 L3366,1504 3366,1504 L3366,1495 C3366,1486 3359,1494 3359,1487 C3360,1480 3369,1491 3367,1481 L3366,1472"/></g><clipPath id="c" clipRule="evenodd" fill="transparent"><use href="#t6081"/></clipPath></defs><svg viewBox="3321 1463 49 45" preserveAspectRatio="xMinYMin meet"><svg width="4380" height="2430"><g><image crossorigin="anonymous" x="0" y="0" href="https://nftpuzzle.license-token.com/assets/completepuzzle.svg" width="100%" height="100%" /><g class="links"><use href="#t6081"/></g></g></svg><svg x="3355" y="1493" height="9%" width="9%" viewBox="0 0 330 330"><g><a xlink:href="https://nftpuzzle.license-token.com/" class="links"><title>See the most innovative NFT based token software licensing project</title><path fill="#E4CF37" id="more" d="M165,0C74.019,0,0,74.019,0,165s74.019,165,165,165s165-74.019,165-165S255.981,0,165,0z M85,190 c-13.785,0-25-11.215-25-25s11.215-25,25-25s25,11.215,25,25S98.785,190,85,190z M165,190c-13.785,0-25-11.215-25-25 s11.215-25,25-25s25,11.215,25,25S178.785,190,165,190z M245,190c-13.785,0-25-11.215-25-25s11.215-25,25-25 c13.785,0,25,11.215,25,25S258.785,190,245,190z"></path></a></g></svg></svg></svg>