<svg version="1.1" xmlns="http://www.w3.org/2000/svg" xmlns:xlink="http://www.w3.org/1999/xlink" fill="transparent" x="0" y="0" width="350" height="350" preserveAspectRatio="xMinYMin slice"><style type="text/css">.links{fill:transparent;stroke: #E4CF37;}.links:hover{fill:#63D272; opacity:0.4;}</style><defs><g id="allt"><path id="t6083" d="M3432,1472 L3422,1473 C3412,1475 3427,1465 3416,1465 C3406,1465 3420,1472 3409,1472 L3399,1472 3399,1472 L3399,1481 C3400,1490 3394,1479 3394,1487 C3394,1496 3400,1485 3399,1494 L3399,1504 3399,1504 L3408,1504 C3418,1505 3406,1499 3415,1499 C3424,1499 3412,1505 3422,1504 L3432,1504 3432,1504 L3430,1495 C3429,1486 3437,1498 3439,1488 C3442,1479 3428,1492 3430,1482 L3432,1472"/></g><clipPath id="c" clipRule="evenodd" fill="transparent"><use href="#t6083"/></clipPath></defs><svg viewBox="3393 1464 50 42" preserveAspectRatio="xMinYMin meet"><svg width="4380" height="2430"><g><image crossorigin="anonymous" x="0" y="0" href="https://nftpuzzle.license-token.com/assets/completepuzzle.svg" width="100%" height="100%" /><g class="links"><use href="#t6083"/></g></g></svg><svg x="3428" y="1491" height="9%" width="9%" viewBox="0 0 330 330"><g><a xlink:href="https://nftpuzzle.license-token.com/" class="links"><title>See the most innovative NFT based token software licensing project</title><path fill="#E4CF37" id="more" d="M165,0C74.019,0,0,74.019,0,165s74.019,165,165,165s165-74.019,165-165S255.981,0,165,0z M85,190 c-13.785,0-25-11.215-25-25s11.215-25,25-25s25,11.215,25,25S98.785,190,85,190z M165,190c-13.785,0-25-11.215-25-25 s11.215-25,25-25s25,11.215,25,25S178.785,190,165,190z M245,190c-13.785,0-25-11.215-25-25s11.215-25,25-25 c13.785,0,25,11.215,25,25S258.785,190,245,190z"></path></a></g></svg></svg></svg>