<svg version="1.1" xmlns="http://www.w3.org/2000/svg" xmlns:xlink="http://www.w3.org/1999/xlink" fill="transparent" x="0" y="0" width="350" height="350" preserveAspectRatio="xMinYMin slice"><style type="text/css">.links{fill:transparent;stroke: #E4CF37;}.links:hover{fill:#63D272; opacity:0.4;}</style><defs><g id="allt"><path id="t6085" d="M3498,1472 L3487,1474 C3477,1477 3489,1463 3481,1463 C3473,1463 3484,1473 3474,1472 L3465,1472 3465,1472 L3465,1481 C3466,1490 3460,1481 3457,1490 C3455,1499 3466,1483 3465,1493 L3465,1504 3465,1504 L3474,1504 C3484,1505 3474,1499 3483,1496 C3493,1494 3476,1505 3487,1504 L3498,1504 3498,1504 L3498,1494 C3498,1485 3496,1497 3495,1489 C3495,1481 3498,1489 3498,1480 L3498,1472"/></g><clipPath id="c" clipRule="evenodd" fill="transparent"><use href="#t6085"/></clipPath></defs><svg viewBox="3454 1462 45 44" preserveAspectRatio="xMinYMin meet"><svg width="4380" height="2430"><g><image crossorigin="anonymous" x="0" y="0" href="https://nftpuzzle.license-token.com/assets/completepuzzle.svg" width="100%" height="100%" /><g class="links"><use href="#t6085"/></g></g></svg><svg x="3484" y="1491" height="9%" width="9%" viewBox="0 0 330 330"><g><a xlink:href="https://nftpuzzle.license-token.com/" class="links"><title>See the most innovative NFT based token software licensing project</title><path fill="#E4CF37" id="more" d="M165,0C74.019,0,0,74.019,0,165s74.019,165,165,165s165-74.019,165-165S255.981,0,165,0z M85,190 c-13.785,0-25-11.215-25-25s11.215-25,25-25s25,11.215,25,25S98.785,190,85,190z M165,190c-13.785,0-25-11.215-25-25 s11.215-25,25-25s25,11.215,25,25S178.785,190,165,190z M245,190c-13.785,0-25-11.215-25-25s11.215-25,25-25 c13.785,0,25,11.215,25,25S258.785,190,245,190z"></path></a></g></svg></svg></svg>