<svg version="1.1" xmlns="http://www.w3.org/2000/svg" xmlns:xlink="http://www.w3.org/1999/xlink" fill="transparent" x="0" y="0" width="350" height="350" preserveAspectRatio="xMinYMin slice"><style type="text/css">.links{fill:transparent;stroke: #E4CF37;}.links:hover{fill:#63D272; opacity:0.4;}</style><defs><g id="allt"><path id="t6086" d="M3531,1472 L3520,1471 C3509,1471 3524,1460 3513,1460 C3502,1461 3519,1472 3508,1472 L3498,1472 3498,1472 L3498,1480 C3498,1489 3495,1481 3495,1489 C3496,1497 3498,1485 3498,1494 L3498,1504 3498,1504 L3507,1504 C3516,1504 3507,1501 3515,1501 C3524,1502 3512,1504 3521,1504 L3531,1504 3531,1504 L3531,1493 C3531,1482 3538,1497 3536,1488 C3535,1479 3530,1492 3530,1482 L3531,1472"/></g><clipPath id="c" clipRule="evenodd" fill="transparent"><use href="#t6086"/></clipPath></defs><svg viewBox="3494 1459 45 46" preserveAspectRatio="xMinYMin meet"><svg width="4380" height="2430"><g><image crossorigin="anonymous" x="0" y="0" href="https://nftpuzzle.license-token.com/assets/completepuzzle.svg" width="100%" height="100%" /><g class="links"><use href="#t6086"/></g></g></svg><svg x="3524" y="1490" height="9%" width="9%" viewBox="0 0 330 330"><g><a xlink:href="https://nftpuzzle.license-token.com/" class="links"><title>See the most innovative NFT based token software licensing project</title><path fill="#E4CF37" id="more" d="M165,0C74.019,0,0,74.019,0,165s74.019,165,165,165s165-74.019,165-165S255.981,0,165,0z M85,190 c-13.785,0-25-11.215-25-25s11.215-25,25-25s25,11.215,25,25S98.785,190,85,190z M165,190c-13.785,0-25-11.215-25-25 s11.215-25,25-25s25,11.215,25,25S178.785,190,165,190z M245,190c-13.785,0-25-11.215-25-25s11.215-25,25-25 c13.785,0,25,11.215,25,25S258.785,190,245,190z"></path></a></g></svg></svg></svg>