<svg version="1.1" xmlns="http://www.w3.org/2000/svg" xmlns:xlink="http://www.w3.org/1999/xlink" fill="transparent" x="0" y="0" width="350" height="350" preserveAspectRatio="xMinYMin slice"><style type="text/css">.links{fill:transparent;stroke: #E4CF37;}.links:hover{fill:#63D272; opacity:0.4;}</style><defs><g id="allt"><path id="t6092" d="M3729,1472 L3718,1472 C3708,1472 3720,1460 3712,1461 C3705,1463 3717,1475 3706,1473 L3696,1472 3696,1472 L3696,1482 C3696,1492 3701,1479 3700,1487 C3700,1495 3696,1485 3696,1494 L3696,1504 3696,1504 L3706,1504 C3717,1504 3703,1509 3711,1508 C3719,1508 3709,1504 3719,1504 L3729,1504 3729,1504 L3729,1494 C3730,1484 3722,1498 3723,1489 C3724,1480 3732,1492 3730,1482 L3729,1472"/></g><clipPath id="c" clipRule="evenodd" fill="transparent"><use href="#t6092"/></clipPath></defs><svg viewBox="3695 1459 38 51" preserveAspectRatio="xMinYMin meet"><svg width="4380" height="2430"><g><image crossorigin="anonymous" x="0" y="0" href="https://nftpuzzle.license-token.com/assets/completepuzzle.svg" width="100%" height="100%" /><g class="links"><use href="#t6092"/></g></g></svg><svg x="3718" y="1495" height="9%" width="9%" viewBox="0 0 330 330"><g><a xlink:href="https://nftpuzzle.license-token.com/" class="links"><title>See the most innovative NFT based token software licensing project</title><path fill="#E4CF37" id="more" d="M165,0C74.019,0,0,74.019,0,165s74.019,165,165,165s165-74.019,165-165S255.981,0,165,0z M85,190 c-13.785,0-25-11.215-25-25s11.215-25,25-25s25,11.215,25,25S98.785,190,85,190z M165,190c-13.785,0-25-11.215-25-25 s11.215-25,25-25s25,11.215,25,25S178.785,190,165,190z M245,190c-13.785,0-25-11.215-25-25s11.215-25,25-25 c13.785,0,25,11.215,25,25S258.785,190,245,190z"></path></a></g></svg></svg></svg>