<svg version="1.1" xmlns="http://www.w3.org/2000/svg" xmlns:xlink="http://www.w3.org/1999/xlink" fill="transparent" x="0" y="0" width="350" height="350" preserveAspectRatio="xMinYMin slice"><style type="text/css">.links{fill:transparent;stroke: #E4CF37;}.links:hover{fill:#63D272; opacity:0.4;}</style><defs><g id="allt"><path id="t610" d="M3003,128 L2993,128 C2984,128 2993,133 2985,134 C2977,135 2990,128 2980,128 L2970,128 2970,128 L2970,138 C2970,148 2963,135 2962,144 C2961,153 2973,139 2971,149 L2970,160 2970,160 L2980,160 C2991,160 2977,153 2986,152 C2996,152 2982,163 2992,161 L3003,160 3003,160 L3004,149 C3005,139 2995,150 2996,142 C2998,134 3003,145 3003,136 L3003,128"/></g><clipPath id="c" clipRule="evenodd" fill="transparent"><use href="#t610"/></clipPath></defs><svg viewBox="2960 127 46 37" preserveAspectRatio="xMinYMin meet"><svg width="4380" height="2430"><g><image crossorigin="anonymous" x="0" y="0" href="https://nftpuzzle.license-token.com/assets/completepuzzle.svg" width="100%" height="100%" /><g class="links"><use href="#t610"/></g></g></svg><svg x="2991" y="149" height="9%" width="9%" viewBox="0 0 330 330"><g><a xlink:href="https://nftpuzzle.license-token.com/" class="links"><title>See the most innovative NFT based token software licensing project</title><path fill="#E4CF37" id="more" d="M165,0C74.019,0,0,74.019,0,165s74.019,165,165,165s165-74.019,165-165S255.981,0,165,0z M85,190 c-13.785,0-25-11.215-25-25s11.215-25,25-25s25,11.215,25,25S98.785,190,85,190z M165,190c-13.785,0-25-11.215-25-25 s11.215-25,25-25s25,11.215,25,25S178.785,190,165,190z M245,190c-13.785,0-25-11.215-25-25s11.215-25,25-25 c13.785,0,25,11.215,25,25S258.785,190,245,190z"></path></a></g></svg></svg></svg>