<svg version="1.1" xmlns="http://www.w3.org/2000/svg" xmlns:xlink="http://www.w3.org/1999/xlink" fill="transparent" x="0" y="0" width="350" height="350" preserveAspectRatio="xMinYMin slice"><style type="text/css">.links{fill:transparent;stroke: #E4CF37;}.links:hover{fill:#63D272; opacity:0.4;}</style><defs><g id="allt"><path id="t6104" d="M4125,1472 L4114,1473 C4103,1475 4118,1467 4108,1466 C4098,1465 4110,1472 4101,1472 L4092,1472 4092,1472 L4092,1481 C4092,1490 4085,1480 4085,1488 C4085,1497 4092,1486 4092,1495 L4092,1504 4092,1504 L4101,1504 C4111,1504 4100,1497 4109,1497 C4118,1497 4106,1504 4115,1504 L4125,1504 4125,1504 L4124,1493 C4123,1483 4132,1496 4130,1487 C4128,1479 4123,1490 4124,1481 L4125,1472"/></g><clipPath id="c" clipRule="evenodd" fill="transparent"><use href="#t6104"/></clipPath></defs><svg viewBox="4084 1464 49 41" preserveAspectRatio="xMinYMin meet"><svg width="4380" height="2430"><g><image crossorigin="anonymous" x="0" y="0" href="https://nftpuzzle.license-token.com/assets/completepuzzle.svg" width="100%" height="100%" /><g class="links"><use href="#t6104"/></g></g></svg><svg x="4118" y="1490" height="9%" width="9%" viewBox="0 0 330 330"><g><a xlink:href="https://nftpuzzle.license-token.com/" class="links"><title>See the most innovative NFT based token software licensing project</title><path fill="#E4CF37" id="more" d="M165,0C74.019,0,0,74.019,0,165s74.019,165,165,165s165-74.019,165-165S255.981,0,165,0z M85,190 c-13.785,0-25-11.215-25-25s11.215-25,25-25s25,11.215,25,25S98.785,190,85,190z M165,190c-13.785,0-25-11.215-25-25 s11.215-25,25-25s25,11.215,25,25S178.785,190,165,190z M245,190c-13.785,0-25-11.215-25-25s11.215-25,25-25 c13.785,0,25,11.215,25,25S258.785,190,245,190z"></path></a></g></svg></svg></svg>