<svg version="1.1" xmlns="http://www.w3.org/2000/svg" xmlns:xlink="http://www.w3.org/1999/xlink" fill="transparent" x="0" y="0" width="350" height="350" preserveAspectRatio="xMinYMin slice"><style type="text/css">.links{fill:transparent;stroke: #E4CF37;}.links:hover{fill:#63D272; opacity:0.4;}</style><defs><g id="allt"><path id="t6111" d="M66,1504 L54,1504 C43,1505 58,1501 49,1501 C40,1501 55,1504 44,1504 L33,1504 33,1504 L31,1513 C29,1523 41,1513 41,1520 C42,1527 33,1514 33,1525 L33,1536 33,1536 L42,1534 C52,1532 42,1544 49,1544 C57,1545 44,1536 55,1536 L66,1536 66,1536 L66,1526 C66,1516 74,1526 73,1519 C72,1513 66,1523 66,1513 L66,1504"/></g><clipPath id="c" clipRule="evenodd" fill="transparent"><use href="#t6111"/></clipPath></defs><svg viewBox="28 1500 47 46" preserveAspectRatio="xMinYMin meet"><svg width="4380" height="2430"><g><image crossorigin="anonymous" x="0" y="0" href="https://nftpuzzle.license-token.com/assets/completepuzzle.svg" width="100%" height="100%" /><g class="links"><use href="#t6111"/></g></g></svg><svg x="60" y="1531" height="9%" width="9%" viewBox="0 0 330 330"><g><a xlink:href="https://nftpuzzle.license-token.com/" class="links"><title>See the most innovative NFT based token software licensing project</title><path fill="#E4CF37" id="more" d="M165,0C74.019,0,0,74.019,0,165s74.019,165,165,165s165-74.019,165-165S255.981,0,165,0z M85,190 c-13.785,0-25-11.215-25-25s11.215-25,25-25s25,11.215,25,25S98.785,190,85,190z M165,190c-13.785,0-25-11.215-25-25 s11.215-25,25-25s25,11.215,25,25S178.785,190,165,190z M245,190c-13.785,0-25-11.215-25-25s11.215-25,25-25 c13.785,0,25,11.215,25,25S258.785,190,245,190z"></path></a></g></svg></svg></svg>