<svg version="1.1" xmlns="http://www.w3.org/2000/svg" xmlns:xlink="http://www.w3.org/1999/xlink" fill="transparent" x="0" y="0" width="350" height="350" preserveAspectRatio="xMinYMin slice"><style type="text/css">.links{fill:transparent;stroke: #E4CF37;}.links:hover{fill:#63D272; opacity:0.4;}</style><defs><g id="allt"><path id="t6114" d="M165,1504 L155,1505 C145,1506 157,1496 147,1494 C137,1493 152,1504 142,1504 L132,1504 132,1504 L132,1512 C132,1521 128,1510 127,1519 C127,1528 132,1515 132,1525 L132,1536 132,1536 L141,1536 C150,1536 138,1532 147,1531 C156,1531 143,1536 154,1536 L165,1536 165,1536 L164,1525 C163,1515 170,1529 170,1521 C170,1513 163,1524 164,1514 L165,1504"/></g><clipPath id="c" clipRule="evenodd" fill="transparent"><use href="#t6114"/></clipPath></defs><svg viewBox="126 1492 45 45" preserveAspectRatio="xMinYMin meet"><svg width="4380" height="2430"><g><image crossorigin="anonymous" x="0" y="0" href="https://nftpuzzle.license-token.com/assets/completepuzzle.svg" width="100%" height="100%" /><g class="links"><use href="#t6114"/></g></g></svg><svg x="156" y="1522" height="9%" width="9%" viewBox="0 0 330 330"><g><a xlink:href="https://nftpuzzle.license-token.com/" class="links"><title>See the most innovative NFT based token software licensing project</title><path fill="#E4CF37" id="more" d="M165,0C74.019,0,0,74.019,0,165s74.019,165,165,165s165-74.019,165-165S255.981,0,165,0z M85,190 c-13.785,0-25-11.215-25-25s11.215-25,25-25s25,11.215,25,25S98.785,190,85,190z M165,190c-13.785,0-25-11.215-25-25 s11.215-25,25-25s25,11.215,25,25S178.785,190,165,190z M245,190c-13.785,0-25-11.215-25-25s11.215-25,25-25 c13.785,0,25,11.215,25,25S258.785,190,245,190z"></path></a></g></svg></svg></svg>