<svg version="1.1" xmlns="http://www.w3.org/2000/svg" xmlns:xlink="http://www.w3.org/1999/xlink" fill="transparent" x="0" y="0" width="350" height="350" preserveAspectRatio="xMinYMin slice"><style type="text/css">.links{fill:transparent;stroke: #E4CF37;}.links:hover{fill:#63D272; opacity:0.4;}</style><defs><g id="allt"><path id="t6128" d="M627,1504 L616,1506 C605,1508 617,1495 609,1495 C601,1496 614,1504 604,1504 L594,1504 594,1504 L593,1514 C593,1525 600,1511 600,1519 C600,1528 594,1516 594,1526 L594,1536 594,1536 L605,1535 C616,1535 601,1542 610,1542 C619,1542 606,1536 616,1536 L627,1536 627,1536 L627,1526 C627,1517 638,1528 636,1520 C635,1512 624,1524 625,1514 L627,1504"/></g><clipPath id="c" clipRule="evenodd" fill="transparent"><use href="#t6128"/></clipPath></defs><svg viewBox="592 1494 47 49" preserveAspectRatio="xMinYMin meet"><svg width="4380" height="2430"><g><image crossorigin="anonymous" x="0" y="0" href="https://nftpuzzle.license-token.com/assets/completepuzzle.svg" width="100%" height="100%" /><g class="links"><use href="#t6128"/></g></g></svg><svg x="624" y="1528" height="9%" width="9%" viewBox="0 0 330 330"><g><a xlink:href="https://nftpuzzle.license-token.com/" class="links"><title>See the most innovative NFT based token software licensing project</title><path fill="#E4CF37" id="more" d="M165,0C74.019,0,0,74.019,0,165s74.019,165,165,165s165-74.019,165-165S255.981,0,165,0z M85,190 c-13.785,0-25-11.215-25-25s11.215-25,25-25s25,11.215,25,25S98.785,190,85,190z M165,190c-13.785,0-25-11.215-25-25 s11.215-25,25-25s25,11.215,25,25S178.785,190,165,190z M245,190c-13.785,0-25-11.215-25-25s11.215-25,25-25 c13.785,0,25,11.215,25,25S258.785,190,245,190z"></path></a></g></svg></svg></svg>