<svg version="1.1" xmlns="http://www.w3.org/2000/svg" xmlns:xlink="http://www.w3.org/1999/xlink" fill="transparent" x="0" y="0" width="350" height="350" preserveAspectRatio="xMinYMin slice"><style type="text/css">.links{fill:transparent;stroke: #E4CF37;}.links:hover{fill:#63D272; opacity:0.4;}</style><defs><g id="allt"><path id="t6129" d="M660,1504 L649,1504 C639,1505 650,1502 641,1500 C633,1499 645,1504 636,1504 L627,1504 627,1504 L625,1514 C624,1524 635,1512 636,1520 C638,1528 627,1517 627,1526 L627,1536 627,1536 L637,1534 C647,1533 635,1544 643,1545 C652,1546 640,1536 650,1536 L660,1536 660,1536 L660,1526 C660,1517 667,1530 667,1520 C668,1510 658,1522 659,1513 L660,1504"/></g><clipPath id="c" clipRule="evenodd" fill="transparent"><use href="#t6129"/></clipPath></defs><svg viewBox="623 1498 46 49" preserveAspectRatio="xMinYMin meet"><svg width="4380" height="2430"><g><image crossorigin="anonymous" x="0" y="0" href="https://nftpuzzle.license-token.com/assets/completepuzzle.svg" width="100%" height="100%" /><g class="links"><use href="#t6129"/></g></g></svg><svg x="654" y="1532" height="9%" width="9%" viewBox="0 0 330 330"><g><a xlink:href="https://nftpuzzle.license-token.com/" class="links"><title>See the most innovative NFT based token software licensing project</title><path fill="#E4CF37" id="more" d="M165,0C74.019,0,0,74.019,0,165s74.019,165,165,165s165-74.019,165-165S255.981,0,165,0z M85,190 c-13.785,0-25-11.215-25-25s11.215-25,25-25s25,11.215,25,25S98.785,190,85,190z M165,190c-13.785,0-25-11.215-25-25 s11.215-25,25-25s25,11.215,25,25S178.785,190,165,190z M245,190c-13.785,0-25-11.215-25-25s11.215-25,25-25 c13.785,0,25,11.215,25,25S258.785,190,245,190z"></path></a></g></svg></svg></svg>