<svg version="1.1" xmlns="http://www.w3.org/2000/svg" xmlns:xlink="http://www.w3.org/1999/xlink" fill="transparent" x="0" y="0" width="350" height="350" preserveAspectRatio="xMinYMin slice"><style type="text/css">.links{fill:transparent;stroke: #E4CF37;}.links:hover{fill:#63D272; opacity:0.4;}</style><defs><g id="allt"><path id="t6136" d="M891,1504 L880,1506 C869,1508 886,1497 876,1497 C867,1498 876,1507 867,1505 L858,1504 858,1504 L859,1514 C860,1524 846,1511 846,1519 C846,1528 861,1518 859,1527 L858,1536 858,1536 L868,1537 C878,1538 865,1525 874,1525 C883,1525 872,1539 881,1537 L891,1536 891,1536 L891,1527 C891,1518 897,1527 895,1518 C894,1509 888,1522 889,1513 L891,1504"/></g><clipPath id="c" clipRule="evenodd" fill="transparent"><use href="#t6136"/></clipPath></defs><svg viewBox="845 1496 53 44" preserveAspectRatio="xMinYMin meet"><svg width="4380" height="2430"><g><image crossorigin="anonymous" x="0" y="0" href="https://nftpuzzle.license-token.com/assets/completepuzzle.svg" width="100%" height="100%" /><g class="links"><use href="#t6136"/></g></g></svg><svg x="883" y="1525" height="9%" width="9%" viewBox="0 0 330 330"><g><a xlink:href="https://nftpuzzle.license-token.com/" class="links"><title>See the most innovative NFT based token software licensing project</title><path fill="#E4CF37" id="more" d="M165,0C74.019,0,0,74.019,0,165s74.019,165,165,165s165-74.019,165-165S255.981,0,165,0z M85,190 c-13.785,0-25-11.215-25-25s11.215-25,25-25s25,11.215,25,25S98.785,190,85,190z M165,190c-13.785,0-25-11.215-25-25 s11.215-25,25-25s25,11.215,25,25S178.785,190,165,190z M245,190c-13.785,0-25-11.215-25-25s11.215-25,25-25 c13.785,0,25,11.215,25,25S258.785,190,245,190z"></path></a></g></svg></svg></svg>