<svg version="1.1" xmlns="http://www.w3.org/2000/svg" xmlns:xlink="http://www.w3.org/1999/xlink" fill="transparent" x="0" y="0" width="350" height="350" preserveAspectRatio="xMinYMin slice"><style type="text/css">.links{fill:transparent;stroke: #E4CF37;}.links:hover{fill:#63D272; opacity:0.4;}</style><defs><g id="allt"><path id="t6140" d="M1023,1504 L1012,1503 C1002,1503 1017,1507 1008,1508 C999,1509 1009,1504 999,1504 L990,1504 990,1504 L990,1513 C990,1523 982,1512 983,1521 C985,1531 994,1517 992,1526 L990,1536 990,1536 L1000,1536 C1010,1536 998,1528 1008,1529 C1018,1531 1003,1540 1013,1538 L1023,1536 1023,1536 L1023,1526 C1023,1516 1018,1530 1019,1520 C1021,1510 1023,1523 1023,1513 L1023,1504"/></g><clipPath id="c" clipRule="evenodd" fill="transparent"><use href="#t6140"/></clipPath></defs><svg viewBox="981 1502 43 39" preserveAspectRatio="xMinYMin meet"><svg width="4380" height="2430"><g><image crossorigin="anonymous" x="0" y="0" href="https://nftpuzzle.license-token.com/assets/completepuzzle.svg" width="100%" height="100%" /><g class="links"><use href="#t6140"/></g></g></svg><svg x="1009" y="1526" height="9%" width="9%" viewBox="0 0 330 330"><g><a xlink:href="https://nftpuzzle.license-token.com/" class="links"><title>See the most innovative NFT based token software licensing project</title><path fill="#E4CF37" id="more" d="M165,0C74.019,0,0,74.019,0,165s74.019,165,165,165s165-74.019,165-165S255.981,0,165,0z M85,190 c-13.785,0-25-11.215-25-25s11.215-25,25-25s25,11.215,25,25S98.785,190,85,190z M165,190c-13.785,0-25-11.215-25-25 s11.215-25,25-25s25,11.215,25,25S178.785,190,165,190z M245,190c-13.785,0-25-11.215-25-25s11.215-25,25-25 c13.785,0,25,11.215,25,25S258.785,190,245,190z"></path></a></g></svg></svg></svg>