<svg version="1.1" xmlns="http://www.w3.org/2000/svg" xmlns:xlink="http://www.w3.org/1999/xlink" fill="transparent" x="0" y="0" width="350" height="350" preserveAspectRatio="xMinYMin slice"><style type="text/css">.links{fill:transparent;stroke: #E4CF37;}.links:hover{fill:#63D272; opacity:0.4;}</style><defs><g id="allt"><path id="t6142" d="M1089,1504 L1078,1505 C1068,1506 1083,1497 1072,1497 C1061,1498 1077,1505 1066,1504 L1056,1504 1056,1504 L1054,1513 C1053,1522 1063,1511 1063,1521 C1063,1531 1055,1516 1055,1526 L1056,1536 1056,1536 L1065,1534 C1074,1533 1063,1543 1073,1543 C1084,1543 1069,1535 1079,1535 L1089,1536 1089,1536 L1089,1525 C1089,1515 1085,1527 1085,1518 C1086,1510 1089,1523 1089,1513 L1089,1504"/></g><clipPath id="c" clipRule="evenodd" fill="transparent"><use href="#t6142"/></clipPath></defs><svg viewBox="1052 1496 38 48" preserveAspectRatio="xMinYMin meet"><svg width="4380" height="2430"><g><image crossorigin="anonymous" x="0" y="0" href="https://nftpuzzle.license-token.com/assets/completepuzzle.svg" width="100%" height="100%" /><g class="links"><use href="#t6142"/></g></g></svg><svg x="1075" y="1529" height="9%" width="9%" viewBox="0 0 330 330"><g><a xlink:href="https://nftpuzzle.license-token.com/" class="links"><title>See the most innovative NFT based token software licensing project</title><path fill="#E4CF37" id="more" d="M165,0C74.019,0,0,74.019,0,165s74.019,165,165,165s165-74.019,165-165S255.981,0,165,0z M85,190 c-13.785,0-25-11.215-25-25s11.215-25,25-25s25,11.215,25,25S98.785,190,85,190z M165,190c-13.785,0-25-11.215-25-25 s11.215-25,25-25s25,11.215,25,25S178.785,190,165,190z M245,190c-13.785,0-25-11.215-25-25s11.215-25,25-25 c13.785,0,25,11.215,25,25S258.785,190,245,190z"></path></a></g></svg></svg></svg>