<svg version="1.1" xmlns="http://www.w3.org/2000/svg" xmlns:xlink="http://www.w3.org/1999/xlink" fill="transparent" x="0" y="0" width="350" height="350" preserveAspectRatio="xMinYMin slice"><style type="text/css">.links{fill:transparent;stroke: #E4CF37;}.links:hover{fill:#63D272; opacity:0.4;}</style><defs><g id="allt"><path id="t6145" d="M1188,1504 L1177,1505 C1167,1506 1182,1498 1172,1499 C1163,1500 1174,1504 1164,1504 L1155,1504 1155,1504 L1155,1514 C1155,1525 1157,1510 1157,1519 C1157,1528 1155,1516 1155,1526 L1155,1536 1155,1536 L1166,1536 C1177,1536 1161,1538 1170,1538 C1180,1538 1167,1536 1177,1536 L1188,1536 1188,1536 L1188,1526 C1188,1517 1191,1530 1191,1519 C1191,1509 1187,1525 1187,1514 L1188,1504"/></g><clipPath id="c" clipRule="evenodd" fill="transparent"><use href="#t6145"/></clipPath></defs><svg viewBox="1154 1497 38 42" preserveAspectRatio="xMinYMin meet"><svg width="4380" height="2430"><g><image crossorigin="anonymous" x="0" y="0" href="https://nftpuzzle.license-token.com/assets/completepuzzle.svg" width="100%" height="100%" /><g class="links"><use href="#t6145"/></g></g></svg><svg x="1177" y="1524" height="9%" width="9%" viewBox="0 0 330 330"><g><a xlink:href="https://nftpuzzle.license-token.com/" class="links"><title>See the most innovative NFT based token software licensing project</title><path fill="#E4CF37" id="more" d="M165,0C74.019,0,0,74.019,0,165s74.019,165,165,165s165-74.019,165-165S255.981,0,165,0z M85,190 c-13.785,0-25-11.215-25-25s11.215-25,25-25s25,11.215,25,25S98.785,190,85,190z M165,190c-13.785,0-25-11.215-25-25 s11.215-25,25-25s25,11.215,25,25S178.785,190,165,190z M245,190c-13.785,0-25-11.215-25-25s11.215-25,25-25 c13.785,0,25,11.215,25,25S258.785,190,245,190z"></path></a></g></svg></svg></svg>