<svg version="1.1" xmlns="http://www.w3.org/2000/svg" xmlns:xlink="http://www.w3.org/1999/xlink" fill="transparent" x="0" y="0" width="350" height="350" preserveAspectRatio="xMinYMin slice"><style type="text/css">.links{fill:transparent;stroke: #E4CF37;}.links:hover{fill:#63D272; opacity:0.4;}</style><defs><g id="allt"><path id="t6146" d="M1221,1504 L1211,1504 C1202,1505 1211,1495 1204,1494 C1197,1494 1210,1504 1199,1504 L1188,1504 1188,1504 L1187,1514 C1187,1525 1191,1509 1191,1519 C1191,1530 1188,1517 1188,1526 L1188,1536 1188,1536 L1198,1535 C1209,1535 1193,1539 1204,1539 C1215,1539 1202,1536 1211,1536 L1221,1536 1221,1536 L1221,1525 C1221,1514 1214,1529 1216,1520 C1218,1511 1223,1522 1222,1513 L1221,1504"/></g><clipPath id="c" clipRule="evenodd" fill="transparent"><use href="#t6146"/></clipPath></defs><svg viewBox="1186 1493 38 47" preserveAspectRatio="xMinYMin meet"><svg width="4380" height="2430"><g><image crossorigin="anonymous" x="0" y="0" href="https://nftpuzzle.license-token.com/assets/completepuzzle.svg" width="100%" height="100%" /><g class="links"><use href="#t6146"/></g></g></svg><svg x="1209" y="1525" height="9%" width="9%" viewBox="0 0 330 330"><g><a xlink:href="https://nftpuzzle.license-token.com/" class="links"><title>See the most innovative NFT based token software licensing project</title><path fill="#E4CF37" id="more" d="M165,0C74.019,0,0,74.019,0,165s74.019,165,165,165s165-74.019,165-165S255.981,0,165,0z M85,190 c-13.785,0-25-11.215-25-25s11.215-25,25-25s25,11.215,25,25S98.785,190,85,190z M165,190c-13.785,0-25-11.215-25-25 s11.215-25,25-25s25,11.215,25,25S178.785,190,165,190z M245,190c-13.785,0-25-11.215-25-25s11.215-25,25-25 c13.785,0,25,11.215,25,25S258.785,190,245,190z"></path></a></g></svg></svg></svg>