<svg version="1.1" xmlns="http://www.w3.org/2000/svg" xmlns:xlink="http://www.w3.org/1999/xlink" fill="transparent" x="0" y="0" width="350" height="350" preserveAspectRatio="xMinYMin slice"><style type="text/css">.links{fill:transparent;stroke: #E4CF37;}.links:hover{fill:#63D272; opacity:0.4;}</style><defs><g id="allt"><path id="t6147" d="M1254,1504 L1244,1504 C1234,1504 1245,1517 1236,1514 C1228,1512 1240,1501 1230,1502 L1221,1504 1221,1504 L1222,1513 C1223,1522 1218,1511 1216,1520 C1214,1529 1221,1514 1221,1525 L1221,1536 1221,1536 L1230,1537 C1240,1538 1228,1533 1237,1531 C1247,1529 1232,1536 1243,1536 L1254,1536 1254,1536 L1254,1525 C1254,1515 1263,1529 1261,1520 C1259,1511 1252,1523 1253,1513 L1254,1504"/></g><clipPath id="c" clipRule="evenodd" fill="transparent"><use href="#t6147"/></clipPath></defs><svg viewBox="1213 1500 51 39" preserveAspectRatio="xMinYMin meet"><svg width="4380" height="2430"><g><image crossorigin="anonymous" x="0" y="0" href="https://nftpuzzle.license-token.com/assets/completepuzzle.svg" width="100%" height="100%" /><g class="links"><use href="#t6147"/></g></g></svg><svg x="1249" y="1524" height="9%" width="9%" viewBox="0 0 330 330"><g><a xlink:href="https://nftpuzzle.license-token.com/" class="links"><title>See the most innovative NFT based token software licensing project</title><path fill="#E4CF37" id="more" d="M165,0C74.019,0,0,74.019,0,165s74.019,165,165,165s165-74.019,165-165S255.981,0,165,0z M85,190 c-13.785,0-25-11.215-25-25s11.215-25,25-25s25,11.215,25,25S98.785,190,85,190z M165,190c-13.785,0-25-11.215-25-25 s11.215-25,25-25s25,11.215,25,25S178.785,190,165,190z M245,190c-13.785,0-25-11.215-25-25s11.215-25,25-25 c13.785,0,25,11.215,25,25S258.785,190,245,190z"></path></a></g></svg></svg></svg>