<svg version="1.1" xmlns="http://www.w3.org/2000/svg" xmlns:xlink="http://www.w3.org/1999/xlink" fill="transparent" x="0" y="0" width="350" height="350" preserveAspectRatio="xMinYMin slice"><style type="text/css">.links{fill:transparent;stroke: #E4CF37;}.links:hover{fill:#63D272; opacity:0.4;}</style><defs><g id="allt"><path id="t6149" d="M1320,1504 L1309,1503 C1298,1502 1311,1511 1302,1511 C1294,1512 1309,1504 1298,1504 L1287,1504 1287,1504 L1287,1513 C1287,1523 1284,1509 1283,1519 C1283,1529 1287,1517 1287,1526 L1287,1536 1287,1536 L1297,1536 C1307,1536 1292,1533 1302,1532 C1313,1532 1300,1536 1310,1536 L1320,1536 1320,1536 L1320,1525 C1320,1514 1315,1528 1315,1520 C1315,1512 1321,1523 1320,1513 L1320,1504"/></g><clipPath id="c" clipRule="evenodd" fill="transparent"><use href="#t6149"/></clipPath></defs><svg viewBox="1282 1501 40 36" preserveAspectRatio="xMinYMin meet"><svg width="4380" height="2430"><g><image crossorigin="anonymous" x="0" y="0" href="https://nftpuzzle.license-token.com/assets/completepuzzle.svg" width="100%" height="100%" /><g class="links"><use href="#t6149"/></g></g></svg><svg x="1307" y="1522" height="9%" width="9%" viewBox="0 0 330 330"><g><a xlink:href="https://nftpuzzle.license-token.com/" class="links"><title>See the most innovative NFT based token software licensing project</title><path fill="#E4CF37" id="more" d="M165,0C74.019,0,0,74.019,0,165s74.019,165,165,165s165-74.019,165-165S255.981,0,165,0z M85,190 c-13.785,0-25-11.215-25-25s11.215-25,25-25s25,11.215,25,25S98.785,190,85,190z M165,190c-13.785,0-25-11.215-25-25 s11.215-25,25-25s25,11.215,25,25S178.785,190,165,190z M245,190c-13.785,0-25-11.215-25-25s11.215-25,25-25 c13.785,0,25,11.215,25,25S258.785,190,245,190z"></path></a></g></svg></svg></svg>