<svg version="1.1" xmlns="http://www.w3.org/2000/svg" xmlns:xlink="http://www.w3.org/1999/xlink" fill="transparent" x="0" y="0" width="350" height="350" preserveAspectRatio="xMinYMin slice"><style type="text/css">.links{fill:transparent;stroke: #E4CF37;}.links:hover{fill:#63D272; opacity:0.4;}</style><defs><g id="allt"><path id="t615" d="M3168,128 L3157,128 C3146,128 3160,133 3150,136 C3140,139 3154,127 3144,127 L3135,128 3135,128 L3134,137 C3134,146 3126,136 3127,143 C3129,151 3137,142 3136,151 L3135,160 3135,160 L3144,159 C3153,159 3143,152 3151,153 C3159,154 3149,162 3158,161 L3168,160 3168,160 L3168,150 C3168,141 3164,155 3161,145 C3158,135 3172,145 3170,136 L3168,128"/></g><clipPath id="c" clipRule="evenodd" fill="transparent"><use href="#t615"/></clipPath></defs><svg viewBox="3125 126 48 37" preserveAspectRatio="xMinYMin meet"><svg width="4380" height="2430"><g><image crossorigin="anonymous" x="0" y="0" href="https://nftpuzzle.license-token.com/assets/completepuzzle.svg" width="100%" height="100%" /><g class="links"><use href="#t615"/></g></g></svg><svg x="3158" y="148" height="9%" width="9%" viewBox="0 0 330 330"><g><a xlink:href="https://nftpuzzle.license-token.com/" class="links"><title>See the most innovative NFT based token software licensing project</title><path fill="#E4CF37" id="more" d="M165,0C74.019,0,0,74.019,0,165s74.019,165,165,165s165-74.019,165-165S255.981,0,165,0z M85,190 c-13.785,0-25-11.215-25-25s11.215-25,25-25s25,11.215,25,25S98.785,190,85,190z M165,190c-13.785,0-25-11.215-25-25 s11.215-25,25-25s25,11.215,25,25S178.785,190,165,190z M245,190c-13.785,0-25-11.215-25-25s11.215-25,25-25 c13.785,0,25,11.215,25,25S258.785,190,245,190z"></path></a></g></svg></svg></svg>