<svg version="1.1" xmlns="http://www.w3.org/2000/svg" xmlns:xlink="http://www.w3.org/1999/xlink" fill="transparent" x="0" y="0" width="350" height="350" preserveAspectRatio="xMinYMin slice"><style type="text/css">.links{fill:transparent;stroke: #E4CF37;}.links:hover{fill:#63D272; opacity:0.4;}</style><defs><g id="allt"><path id="t6152" d="M1419,1504 L1408,1504 C1398,1504 1411,1497 1403,1497 C1395,1497 1404,1504 1395,1504 L1386,1504 1386,1504 L1386,1514 C1386,1525 1380,1512 1379,1520 C1378,1529 1388,1516 1387,1526 L1386,1536 1386,1536 L1397,1536 C1408,1536 1394,1530 1403,1529 C1412,1528 1399,1538 1409,1537 L1419,1536 1419,1536 L1420,1526 C1421,1516 1415,1528 1414,1520 C1414,1512 1420,1522 1419,1513 L1419,1504"/></g><clipPath id="c" clipRule="evenodd" fill="transparent"><use href="#t6152"/></clipPath></defs><svg viewBox="1377 1496 45 43" preserveAspectRatio="xMinYMin meet"><svg width="4380" height="2430"><g><image crossorigin="anonymous" x="0" y="0" href="https://nftpuzzle.license-token.com/assets/completepuzzle.svg" width="100%" height="100%" /><g class="links"><use href="#t6152"/></g></g></svg><svg x="1407" y="1524" height="9%" width="9%" viewBox="0 0 330 330"><g><a xlink:href="https://nftpuzzle.license-token.com/" class="links"><title>See the most innovative NFT based token software licensing project</title><path fill="#E4CF37" id="more" d="M165,0C74.019,0,0,74.019,0,165s74.019,165,165,165s165-74.019,165-165S255.981,0,165,0z M85,190 c-13.785,0-25-11.215-25-25s11.215-25,25-25s25,11.215,25,25S98.785,190,85,190z M165,190c-13.785,0-25-11.215-25-25 s11.215-25,25-25s25,11.215,25,25S178.785,190,165,190z M245,190c-13.785,0-25-11.215-25-25s11.215-25,25-25 c13.785,0,25,11.215,25,25S258.785,190,245,190z"></path></a></g></svg></svg></svg>