<svg version="1.1" xmlns="http://www.w3.org/2000/svg" xmlns:xlink="http://www.w3.org/1999/xlink" fill="transparent" x="0" y="0" width="350" height="350" preserveAspectRatio="xMinYMin slice"><style type="text/css">.links{fill:transparent;stroke: #E4CF37;}.links:hover{fill:#63D272; opacity:0.4;}</style><defs><g id="allt"><path id="t6156" d="M1551,1504 L1541,1506 C1531,1508 1543,1496 1535,1495 C1527,1494 1537,1504 1527,1504 L1518,1504 1518,1504 L1518,1514 C1519,1524 1514,1508 1513,1518 C1512,1528 1518,1516 1518,1526 L1518,1536 1518,1536 L1528,1536 C1538,1537 1522,1532 1532,1531 C1542,1530 1531,1536 1541,1536 L1551,1536 1551,1536 L1552,1525 C1554,1514 1539,1529 1539,1521 C1539,1513 1553,1525 1552,1514 L1551,1504"/></g><clipPath id="c" clipRule="evenodd" fill="transparent"><use href="#t6156"/></clipPath></defs><svg viewBox="1511 1493 44 45" preserveAspectRatio="xMinYMin meet"><svg width="4380" height="2430"><g><image crossorigin="anonymous" x="0" y="0" href="https://nftpuzzle.license-token.com/assets/completepuzzle.svg" width="100%" height="100%" /><g class="links"><use href="#t6156"/></g></g></svg><svg x="1540" y="1523" height="9%" width="9%" viewBox="0 0 330 330"><g><a xlink:href="https://nftpuzzle.license-token.com/" class="links"><title>See the most innovative NFT based token software licensing project</title><path fill="#E4CF37" id="more" d="M165,0C74.019,0,0,74.019,0,165s74.019,165,165,165s165-74.019,165-165S255.981,0,165,0z M85,190 c-13.785,0-25-11.215-25-25s11.215-25,25-25s25,11.215,25,25S98.785,190,85,190z M165,190c-13.785,0-25-11.215-25-25 s11.215-25,25-25s25,11.215,25,25S178.785,190,165,190z M245,190c-13.785,0-25-11.215-25-25s11.215-25,25-25 c13.785,0,25,11.215,25,25S258.785,190,245,190z"></path></a></g></svg></svg></svg>