<svg version="1.1" xmlns="http://www.w3.org/2000/svg" xmlns:xlink="http://www.w3.org/1999/xlink" fill="transparent" x="0" y="0" width="350" height="350" preserveAspectRatio="xMinYMin slice"><style type="text/css">.links{fill:transparent;stroke: #E4CF37;}.links:hover{fill:#63D272; opacity:0.4;}</style><defs><g id="allt"><path id="t6159" d="M1650,1504 L1639,1504 C1628,1504 1640,1502 1632,1501 C1625,1500 1638,1504 1627,1504 L1617,1504 1617,1504 L1617,1514 C1617,1524 1615,1511 1613,1521 C1612,1531 1617,1514 1617,1525 L1617,1536 1617,1536 L1627,1536 C1638,1536 1624,1534 1634,1532 C1645,1531 1628,1536 1639,1536 L1650,1536 1650,1536 L1650,1525 C1650,1515 1658,1527 1658,1518 C1658,1510 1647,1522 1648,1513 L1650,1504"/></g><clipPath id="c" clipRule="evenodd" fill="transparent"><use href="#t6159"/></clipPath></defs><svg viewBox="1611 1499 48 38" preserveAspectRatio="xMinYMin meet"><svg width="4380" height="2430"><g><image crossorigin="anonymous" x="0" y="0" href="https://nftpuzzle.license-token.com/assets/completepuzzle.svg" width="100%" height="100%" /><g class="links"><use href="#t6159"/></g></g></svg><svg x="1644" y="1522" height="9%" width="9%" viewBox="0 0 330 330"><g><a xlink:href="https://nftpuzzle.license-token.com/" class="links"><title>See the most innovative NFT based token software licensing project</title><path fill="#E4CF37" id="more" d="M165,0C74.019,0,0,74.019,0,165s74.019,165,165,165s165-74.019,165-165S255.981,0,165,0z M85,190 c-13.785,0-25-11.215-25-25s11.215-25,25-25s25,11.215,25,25S98.785,190,85,190z M165,190c-13.785,0-25-11.215-25-25 s11.215-25,25-25s25,11.215,25,25S178.785,190,165,190z M245,190c-13.785,0-25-11.215-25-25s11.215-25,25-25 c13.785,0,25,11.215,25,25S258.785,190,245,190z"></path></a></g></svg></svg></svg>