<svg version="1.1" xmlns="http://www.w3.org/2000/svg" xmlns:xlink="http://www.w3.org/1999/xlink" fill="transparent" x="0" y="0" width="350" height="350" preserveAspectRatio="xMinYMin slice"><style type="text/css">.links{fill:transparent;stroke: #E4CF37;}.links:hover{fill:#63D272; opacity:0.4;}</style><defs><g id="allt"><path id="t6161" d="M1716,1504 L1705,1504 C1695,1505 1707,1501 1697,1501 C1688,1501 1704,1506 1693,1505 L1683,1504 1683,1504 L1684,1513 C1686,1522 1677,1512 1677,1520 C1677,1528 1683,1515 1683,1525 L1683,1536 1683,1536 L1692,1537 C1701,1539 1692,1530 1699,1530 C1707,1530 1694,1536 1705,1536 L1716,1536 1716,1536 L1716,1525 C1717,1514 1724,1527 1724,1517 C1724,1508 1712,1523 1714,1513 L1716,1504"/></g><clipPath id="c" clipRule="evenodd" fill="transparent"><use href="#t6161"/></clipPath></defs><svg viewBox="1676 1500 49 40" preserveAspectRatio="xMinYMin meet"><svg width="4380" height="2430"><g><image crossorigin="anonymous" x="0" y="0" href="https://nftpuzzle.license-token.com/assets/completepuzzle.svg" width="100%" height="100%" /><g class="links"><use href="#t6161"/></g></g></svg><svg x="1710" y="1525" height="9%" width="9%" viewBox="0 0 330 330"><g><a xlink:href="https://nftpuzzle.license-token.com/" class="links"><title>See the most innovative NFT based token software licensing project</title><path fill="#E4CF37" id="more" d="M165,0C74.019,0,0,74.019,0,165s74.019,165,165,165s165-74.019,165-165S255.981,0,165,0z M85,190 c-13.785,0-25-11.215-25-25s11.215-25,25-25s25,11.215,25,25S98.785,190,85,190z M165,190c-13.785,0-25-11.215-25-25 s11.215-25,25-25s25,11.215,25,25S178.785,190,165,190z M245,190c-13.785,0-25-11.215-25-25s11.215-25,25-25 c13.785,0,25,11.215,25,25S258.785,190,245,190z"></path></a></g></svg></svg></svg>