<svg version="1.1" xmlns="http://www.w3.org/2000/svg" xmlns:xlink="http://www.w3.org/1999/xlink" fill="transparent" x="0" y="0" width="350" height="350" preserveAspectRatio="xMinYMin slice"><style type="text/css">.links{fill:transparent;stroke: #E4CF37;}.links:hover{fill:#63D272; opacity:0.4;}</style><defs><g id="allt"><path id="t6162" d="M1749,1504 L1739,1504 C1729,1504 1740,1496 1732,1497 C1725,1498 1737,1506 1726,1505 L1716,1504 1716,1504 L1714,1513 C1712,1523 1724,1508 1724,1517 C1724,1527 1717,1514 1716,1525 L1716,1536 1716,1536 L1726,1534 C1736,1532 1720,1544 1730,1544 C1740,1544 1727,1537 1738,1536 L1749,1536 1749,1536 L1749,1525 C1749,1515 1742,1527 1741,1518 C1740,1509 1753,1523 1751,1513 L1749,1504"/></g><clipPath id="c" clipRule="evenodd" fill="transparent"><use href="#t6162"/></clipPath></defs><svg viewBox="1711 1495 43 50" preserveAspectRatio="xMinYMin meet"><svg width="4380" height="2430"><g><image crossorigin="anonymous" x="0" y="0" href="https://nftpuzzle.license-token.com/assets/completepuzzle.svg" width="100%" height="100%" /><g class="links"><use href="#t6162"/></g></g></svg><svg x="1739" y="1530" height="9%" width="9%" viewBox="0 0 330 330"><g><a xlink:href="https://nftpuzzle.license-token.com/" class="links"><title>See the most innovative NFT based token software licensing project</title><path fill="#E4CF37" id="more" d="M165,0C74.019,0,0,74.019,0,165s74.019,165,165,165s165-74.019,165-165S255.981,0,165,0z M85,190 c-13.785,0-25-11.215-25-25s11.215-25,25-25s25,11.215,25,25S98.785,190,85,190z M165,190c-13.785,0-25-11.215-25-25 s11.215-25,25-25s25,11.215,25,25S178.785,190,165,190z M245,190c-13.785,0-25-11.215-25-25s11.215-25,25-25 c13.785,0,25,11.215,25,25S258.785,190,245,190z"></path></a></g></svg></svg></svg>