<svg version="1.1" xmlns="http://www.w3.org/2000/svg" xmlns:xlink="http://www.w3.org/1999/xlink" fill="transparent" x="0" y="0" width="350" height="350" preserveAspectRatio="xMinYMin slice"><style type="text/css">.links{fill:transparent;stroke: #E4CF37;}.links:hover{fill:#63D272; opacity:0.4;}</style><defs><g id="allt"><path id="t6165" d="M1848,1504 L1837,1504 C1827,1504 1838,1500 1830,1500 C1823,1501 1836,1504 1825,1504 L1815,1504 1815,1504 L1815,1514 C1815,1525 1810,1511 1809,1519 C1809,1528 1815,1517 1815,1526 L1815,1536 1815,1536 L1825,1536 C1836,1536 1822,1531 1831,1530 C1840,1530 1828,1536 1838,1536 L1848,1536 1848,1536 L1850,1527 C1852,1518 1840,1528 1841,1518 C1843,1508 1850,1524 1849,1514 L1848,1504"/></g><clipPath id="c" clipRule="evenodd" fill="transparent"><use href="#t6165"/></clipPath></defs><svg viewBox="1808 1499 45 38" preserveAspectRatio="xMinYMin meet"><svg width="4380" height="2430"><g><image crossorigin="anonymous" x="0" y="0" href="https://nftpuzzle.license-token.com/assets/completepuzzle.svg" width="100%" height="100%" /><g class="links"><use href="#t6165"/></g></g></svg><svg x="1838" y="1522" height="9%" width="9%" viewBox="0 0 330 330"><g><a xlink:href="https://nftpuzzle.license-token.com/" class="links"><title>See the most innovative NFT based token software licensing project</title><path fill="#E4CF37" id="more" d="M165,0C74.019,0,0,74.019,0,165s74.019,165,165,165s165-74.019,165-165S255.981,0,165,0z M85,190 c-13.785,0-25-11.215-25-25s11.215-25,25-25s25,11.215,25,25S98.785,190,85,190z M165,190c-13.785,0-25-11.215-25-25 s11.215-25,25-25s25,11.215,25,25S178.785,190,165,190z M245,190c-13.785,0-25-11.215-25-25s11.215-25,25-25 c13.785,0,25,11.215,25,25S258.785,190,245,190z"></path></a></g></svg></svg></svg>