<svg version="1.1" xmlns="http://www.w3.org/2000/svg" xmlns:xlink="http://www.w3.org/1999/xlink" fill="transparent" x="0" y="0" width="350" height="350" preserveAspectRatio="xMinYMin slice"><style type="text/css">.links{fill:transparent;stroke: #E4CF37;}.links:hover{fill:#63D272; opacity:0.4;}</style><defs><g id="allt"><path id="t6166" d="M1881,1504 L1871,1504 C1861,1504 1872,1511 1864,1511 C1857,1511 1866,1502 1857,1503 L1848,1504 1848,1504 L1849,1514 C1850,1524 1843,1508 1841,1518 C1840,1528 1852,1518 1850,1527 L1848,1536 1848,1536 L1858,1537 C1869,1538 1852,1531 1862,1529 C1873,1528 1862,1540 1871,1538 L1881,1536 1881,1536 L1881,1525 C1882,1514 1876,1529 1876,1520 C1877,1512 1881,1524 1881,1514 L1881,1504"/></g><clipPath id="c" clipRule="evenodd" fill="transparent"><use href="#t6166"/></clipPath></defs><svg viewBox="1839 1501 44 40" preserveAspectRatio="xMinYMin meet"><svg width="4380" height="2430"><g><image crossorigin="anonymous" x="0" y="0" href="https://nftpuzzle.license-token.com/assets/completepuzzle.svg" width="100%" height="100%" /><g class="links"><use href="#t6166"/></g></g></svg><svg x="1868" y="1526" height="9%" width="9%" viewBox="0 0 330 330"><g><a xlink:href="https://nftpuzzle.license-token.com/" class="links"><title>See the most innovative NFT based token software licensing project</title><path fill="#E4CF37" id="more" d="M165,0C74.019,0,0,74.019,0,165s74.019,165,165,165s165-74.019,165-165S255.981,0,165,0z M85,190 c-13.785,0-25-11.215-25-25s11.215-25,25-25s25,11.215,25,25S98.785,190,85,190z M165,190c-13.785,0-25-11.215-25-25 s11.215-25,25-25s25,11.215,25,25S178.785,190,165,190z M245,190c-13.785,0-25-11.215-25-25s11.215-25,25-25 c13.785,0,25,11.215,25,25S258.785,190,245,190z"></path></a></g></svg></svg></svg>