<svg version="1.1" xmlns="http://www.w3.org/2000/svg" xmlns:xlink="http://www.w3.org/1999/xlink" fill="transparent" x="0" y="0" width="350" height="350" preserveAspectRatio="xMinYMin slice"><style type="text/css">.links{fill:transparent;stroke: #E4CF37;}.links:hover{fill:#63D272; opacity:0.4;}</style><defs><g id="allt"><path id="t6167" d="M1914,1504 L1904,1505 C1894,1506 1904,1500 1895,1499 C1887,1499 1900,1504 1890,1504 L1881,1504 1881,1504 L1881,1514 C1881,1524 1877,1512 1876,1520 C1876,1529 1882,1514 1881,1525 L1881,1536 1881,1536 L1891,1536 C1902,1536 1890,1532 1898,1531 C1907,1531 1891,1537 1902,1536 L1914,1536 1914,1536 L1914,1526 C1914,1516 1925,1528 1924,1520 C1924,1513 1909,1521 1911,1512 L1914,1504"/></g><clipPath id="c" clipRule="evenodd" fill="transparent"><use href="#t6167"/></clipPath></defs><svg viewBox="1875 1498 51 40" preserveAspectRatio="xMinYMin meet"><svg width="4380" height="2430"><g><image crossorigin="anonymous" x="0" y="0" href="https://nftpuzzle.license-token.com/assets/completepuzzle.svg" width="100%" height="100%" /><g class="links"><use href="#t6167"/></g></g></svg><svg x="1911" y="1523" height="9%" width="9%" viewBox="0 0 330 330"><g><a xlink:href="https://nftpuzzle.license-token.com/" class="links"><title>See the most innovative NFT based token software licensing project</title><path fill="#E4CF37" id="more" d="M165,0C74.019,0,0,74.019,0,165s74.019,165,165,165s165-74.019,165-165S255.981,0,165,0z M85,190 c-13.785,0-25-11.215-25-25s11.215-25,25-25s25,11.215,25,25S98.785,190,85,190z M165,190c-13.785,0-25-11.215-25-25 s11.215-25,25-25s25,11.215,25,25S178.785,190,165,190z M245,190c-13.785,0-25-11.215-25-25s11.215-25,25-25 c13.785,0,25,11.215,25,25S258.785,190,245,190z"></path></a></g></svg></svg></svg>