<svg version="1.1" xmlns="http://www.w3.org/2000/svg" xmlns:xlink="http://www.w3.org/1999/xlink" fill="transparent" x="0" y="0" width="350" height="350" preserveAspectRatio="xMinYMin slice"><style type="text/css">.links{fill:transparent;stroke: #E4CF37;}.links:hover{fill:#63D272; opacity:0.4;}</style><defs><g id="allt"><path id="t6169" d="M1980,1504 L1969,1505 C1958,1506 1971,1496 1963,1497 C1955,1499 1967,1505 1957,1504 L1947,1504 1947,1504 L1947,1514 C1947,1525 1950,1512 1950,1521 C1951,1531 1947,1517 1947,1526 L1947,1536 1947,1536 L1958,1536 C1969,1536 1955,1539 1965,1539 C1975,1540 1960,1536 1970,1536 L1980,1536 1980,1536 L1980,1526 C1980,1516 1976,1531 1976,1521 C1976,1512 1980,1523 1980,1513 L1980,1504"/></g><clipPath id="c" clipRule="evenodd" fill="transparent"><use href="#t6169"/></clipPath></defs><svg viewBox="1946 1495 35 46" preserveAspectRatio="xMinYMin meet"><svg width="4380" height="2430"><g><image crossorigin="anonymous" x="0" y="0" href="https://nftpuzzle.license-token.com/assets/completepuzzle.svg" width="100%" height="100%" /><g class="links"><use href="#t6169"/></g></g></svg><svg x="1966" y="1526" height="9%" width="9%" viewBox="0 0 330 330"><g><a xlink:href="https://nftpuzzle.license-token.com/" class="links"><title>See the most innovative NFT based token software licensing project</title><path fill="#E4CF37" id="more" d="M165,0C74.019,0,0,74.019,0,165s74.019,165,165,165s165-74.019,165-165S255.981,0,165,0z M85,190 c-13.785,0-25-11.215-25-25s11.215-25,25-25s25,11.215,25,25S98.785,190,85,190z M165,190c-13.785,0-25-11.215-25-25 s11.215-25,25-25s25,11.215,25,25S178.785,190,165,190z M245,190c-13.785,0-25-11.215-25-25s11.215-25,25-25 c13.785,0,25,11.215,25,25S258.785,190,245,190z"></path></a></g></svg></svg></svg>