<svg version="1.1" xmlns="http://www.w3.org/2000/svg" xmlns:xlink="http://www.w3.org/1999/xlink" fill="transparent" x="0" y="0" width="350" height="350" preserveAspectRatio="xMinYMin slice"><style type="text/css">.links{fill:transparent;stroke: #E4CF37;}.links:hover{fill:#63D272; opacity:0.4;}</style><defs><g id="allt"><path id="t6172" d="M2079,1504 L2068,1504 C2058,1504 2071,1499 2060,1498 C2050,1498 2065,1509 2055,1506 L2046,1504 2046,1504 L2048,1513 C2050,1523 2036,1512 2037,1519 C2038,1527 2046,1518 2046,1527 L2046,1536 2046,1536 L2056,1538 C2066,1540 2054,1526 2062,1527 C2070,1528 2060,1536 2069,1536 L2079,1536 2079,1536 L2079,1526 C2079,1517 2071,1529 2071,1521 C2072,1513 2080,1523 2079,1513 L2079,1504"/></g><clipPath id="c" clipRule="evenodd" fill="transparent"><use href="#t6172"/></clipPath></defs><svg viewBox="2035 1497 46 44" preserveAspectRatio="xMinYMin meet"><svg width="4380" height="2430"><g><image crossorigin="anonymous" x="0" y="0" href="https://nftpuzzle.license-token.com/assets/completepuzzle.svg" width="100%" height="100%" /><g class="links"><use href="#t6172"/></g></g></svg><svg x="2066" y="1526" height="9%" width="9%" viewBox="0 0 330 330"><g><a xlink:href="https://nftpuzzle.license-token.com/" class="links"><title>See the most innovative NFT based token software licensing project</title><path fill="#E4CF37" id="more" d="M165,0C74.019,0,0,74.019,0,165s74.019,165,165,165s165-74.019,165-165S255.981,0,165,0z M85,190 c-13.785,0-25-11.215-25-25s11.215-25,25-25s25,11.215,25,25S98.785,190,85,190z M165,190c-13.785,0-25-11.215-25-25 s11.215-25,25-25s25,11.215,25,25S178.785,190,165,190z M245,190c-13.785,0-25-11.215-25-25s11.215-25,25-25 c13.785,0,25,11.215,25,25S258.785,190,245,190z"></path></a></g></svg></svg></svg>