<svg version="1.1" xmlns="http://www.w3.org/2000/svg" xmlns:xlink="http://www.w3.org/1999/xlink" fill="transparent" x="0" y="0" width="350" height="350" preserveAspectRatio="xMinYMin slice"><style type="text/css">.links{fill:transparent;stroke: #E4CF37;}.links:hover{fill:#63D272; opacity:0.4;}</style><defs><g id="allt"><path id="t6174" d="M2145,1504 L2135,1504 C2125,1505 2140,1494 2128,1494 C2117,1495 2132,1504 2122,1504 L2112,1504 2112,1504 L2109,1513 C2107,1523 2122,1512 2120,1520 C2119,1528 2112,1517 2112,1526 L2112,1536 2112,1536 L2122,1533 C2132,1531 2121,1546 2129,1544 C2137,1543 2125,1536 2135,1536 L2145,1536 2145,1536 L2145,1525 C2145,1515 2137,1526 2138,1518 C2139,1510 2145,1525 2145,1514 L2145,1504"/></g><clipPath id="c" clipRule="evenodd" fill="transparent"><use href="#t6174"/></clipPath></defs><svg viewBox="2106 1493 40 54" preserveAspectRatio="xMinYMin meet"><svg width="4380" height="2430"><g><image crossorigin="anonymous" x="0" y="0" href="https://nftpuzzle.license-token.com/assets/completepuzzle.svg" width="100%" height="100%" /><g class="links"><use href="#t6174"/></g></g></svg><svg x="2131" y="1532" height="9%" width="9%" viewBox="0 0 330 330"><g><a xlink:href="https://nftpuzzle.license-token.com/" class="links"><title>See the most innovative NFT based token software licensing project</title><path fill="#E4CF37" id="more" d="M165,0C74.019,0,0,74.019,0,165s74.019,165,165,165s165-74.019,165-165S255.981,0,165,0z M85,190 c-13.785,0-25-11.215-25-25s11.215-25,25-25s25,11.215,25,25S98.785,190,85,190z M165,190c-13.785,0-25-11.215-25-25 s11.215-25,25-25s25,11.215,25,25S178.785,190,165,190z M245,190c-13.785,0-25-11.215-25-25s11.215-25,25-25 c13.785,0,25,11.215,25,25S258.785,190,245,190z"></path></a></g></svg></svg></svg>