<svg version="1.1" xmlns="http://www.w3.org/2000/svg" xmlns:xlink="http://www.w3.org/1999/xlink" fill="transparent" x="0" y="0" width="350" height="350" preserveAspectRatio="xMinYMin slice"><style type="text/css">.links{fill:transparent;stroke: #E4CF37;}.links:hover{fill:#63D272; opacity:0.4;}</style><defs><g id="allt"><path id="t6180" d="M2343,1504 L2332,1502 C2321,1500 2334,1510 2325,1511 C2316,1513 2330,1503 2320,1503 L2310,1504 2310,1504 L2311,1513 C2312,1523 2306,1508 2305,1519 C2305,1530 2311,1518 2310,1527 L2310,1536 2310,1536 L2320,1537 C2330,1538 2314,1532 2325,1531 C2337,1531 2324,1537 2333,1536 L2343,1536 2343,1536 L2342,1526 C2341,1516 2348,1531 2350,1521 C2352,1512 2342,1523 2342,1513 L2343,1504"/></g><clipPath id="c" clipRule="evenodd" fill="transparent"><use href="#t6180"/></clipPath></defs><svg viewBox="2304 1499 49 40" preserveAspectRatio="xMinYMin meet"><svg width="4380" height="2430"><g><image crossorigin="anonymous" x="0" y="0" href="https://nftpuzzle.license-token.com/assets/completepuzzle.svg" width="100%" height="100%" /><g class="links"><use href="#t6180"/></g></g></svg><svg x="2338" y="1524" height="9%" width="9%" viewBox="0 0 330 330"><g><a xlink:href="https://nftpuzzle.license-token.com/" class="links"><title>See the most innovative NFT based token software licensing project</title><path fill="#E4CF37" id="more" d="M165,0C74.019,0,0,74.019,0,165s74.019,165,165,165s165-74.019,165-165S255.981,0,165,0z M85,190 c-13.785,0-25-11.215-25-25s11.215-25,25-25s25,11.215,25,25S98.785,190,85,190z M165,190c-13.785,0-25-11.215-25-25 s11.215-25,25-25s25,11.215,25,25S178.785,190,165,190z M245,190c-13.785,0-25-11.215-25-25s11.215-25,25-25 c13.785,0,25,11.215,25,25S258.785,190,245,190z"></path></a></g></svg></svg></svg>