<svg version="1.1" xmlns="http://www.w3.org/2000/svg" xmlns:xlink="http://www.w3.org/1999/xlink" fill="transparent" x="0" y="0" width="350" height="350" preserveAspectRatio="xMinYMin slice"><style type="text/css">.links{fill:transparent;stroke: #E4CF37;}.links:hover{fill:#63D272; opacity:0.4;}</style><defs><g id="allt"><path id="t6181" d="M2376,1504 L2366,1504 C2357,1504 2369,1511 2358,1512 C2348,1514 2363,1500 2353,1502 L2343,1504 2343,1504 L2342,1513 C2342,1523 2352,1512 2350,1521 C2348,1531 2341,1516 2342,1526 L2343,1536 2343,1536 L2353,1535 C2363,1535 2351,1545 2361,1543 C2371,1541 2356,1534 2366,1535 L2376,1536 2376,1536 L2376,1526 C2376,1517 2385,1526 2384,1518 C2384,1510 2376,1522 2376,1513 L2376,1504"/></g><clipPath id="c" clipRule="evenodd" fill="transparent"><use href="#t6181"/></clipPath></defs><svg viewBox="2340 1499 46 47" preserveAspectRatio="xMinYMin meet"><svg width="4380" height="2430"><g><image crossorigin="anonymous" x="0" y="0" href="https://nftpuzzle.license-token.com/assets/completepuzzle.svg" width="100%" height="100%" /><g class="links"><use href="#t6181"/></g></g></svg><svg x="2371" y="1531" height="9%" width="9%" viewBox="0 0 330 330"><g><a xlink:href="https://nftpuzzle.license-token.com/" class="links"><title>See the most innovative NFT based token software licensing project</title><path fill="#E4CF37" id="more" d="M165,0C74.019,0,0,74.019,0,165s74.019,165,165,165s165-74.019,165-165S255.981,0,165,0z M85,190 c-13.785,0-25-11.215-25-25s11.215-25,25-25s25,11.215,25,25S98.785,190,85,190z M165,190c-13.785,0-25-11.215-25-25 s11.215-25,25-25s25,11.215,25,25S178.785,190,165,190z M245,190c-13.785,0-25-11.215-25-25s11.215-25,25-25 c13.785,0,25,11.215,25,25S258.785,190,245,190z"></path></a></g></svg></svg></svg>