<svg version="1.1" xmlns="http://www.w3.org/2000/svg" xmlns:xlink="http://www.w3.org/1999/xlink" fill="transparent" x="0" y="0" width="350" height="350" preserveAspectRatio="xMinYMin slice"><style type="text/css">.links{fill:transparent;stroke: #E4CF37;}.links:hover{fill:#63D272; opacity:0.4;}</style><defs><g id="allt"><path id="t6182" d="M2409,1504 L2399,1506 C2390,1508 2402,1498 2392,1497 C2383,1497 2395,1506 2385,1505 L2376,1504 2376,1504 L2376,1513 C2376,1522 2384,1510 2384,1518 C2385,1526 2376,1517 2376,1526 L2376,1536 2376,1536 L2385,1536 C2395,1536 2382,1544 2390,1544 C2399,1544 2389,1536 2399,1536 L2409,1536 2409,1536 L2409,1525 C2409,1515 2414,1531 2415,1521 C2416,1511 2409,1524 2409,1514 L2409,1504"/></g><clipPath id="c" clipRule="evenodd" fill="transparent"><use href="#t6182"/></clipPath></defs><svg viewBox="2375 1496 42 49" preserveAspectRatio="xMinYMin meet"><svg width="4380" height="2430"><g><image crossorigin="anonymous" x="0" y="0" href="https://nftpuzzle.license-token.com/assets/completepuzzle.svg" width="100%" height="100%" /><g class="links"><use href="#t6182"/></g></g></svg><svg x="2402" y="1530" height="9%" width="9%" viewBox="0 0 330 330"><g><a xlink:href="https://nftpuzzle.license-token.com/" class="links"><title>See the most innovative NFT based token software licensing project</title><path fill="#E4CF37" id="more" d="M165,0C74.019,0,0,74.019,0,165s74.019,165,165,165s165-74.019,165-165S255.981,0,165,0z M85,190 c-13.785,0-25-11.215-25-25s11.215-25,25-25s25,11.215,25,25S98.785,190,85,190z M165,190c-13.785,0-25-11.215-25-25 s11.215-25,25-25s25,11.215,25,25S178.785,190,165,190z M245,190c-13.785,0-25-11.215-25-25s11.215-25,25-25 c13.785,0,25,11.215,25,25S258.785,190,245,190z"></path></a></g></svg></svg></svg>