<svg version="1.1" xmlns="http://www.w3.org/2000/svg" xmlns:xlink="http://www.w3.org/1999/xlink" fill="transparent" x="0" y="0" width="350" height="350" preserveAspectRatio="xMinYMin slice"><style type="text/css">.links{fill:transparent;stroke: #E4CF37;}.links:hover{fill:#63D272; opacity:0.4;}</style><defs><g id="allt"><path id="t6183" d="M2442,1504 L2431,1504 C2420,1504 2433,1499 2425,1496 C2417,1494 2429,1504 2419,1504 L2409,1504 2409,1504 L2409,1514 C2409,1524 2416,1511 2415,1521 C2414,1531 2409,1515 2409,1525 L2409,1536 2409,1536 L2419,1536 C2430,1536 2416,1543 2426,1542 C2437,1541 2420,1536 2431,1536 L2442,1536 2442,1536 L2443,1526 C2444,1516 2438,1527 2437,1517 C2436,1508 2444,1524 2443,1514 L2442,1504"/></g><clipPath id="c" clipRule="evenodd" fill="transparent"><use href="#t6183"/></clipPath></defs><svg viewBox="2408 1493 37 51" preserveAspectRatio="xMinYMin meet"><svg width="4380" height="2430"><g><image crossorigin="anonymous" x="0" y="0" href="https://nftpuzzle.license-token.com/assets/completepuzzle.svg" width="100%" height="100%" /><g class="links"><use href="#t6183"/></g></g></svg><svg x="2430" y="1529" height="9%" width="9%" viewBox="0 0 330 330"><g><a xlink:href="https://nftpuzzle.license-token.com/" class="links"><title>See the most innovative NFT based token software licensing project</title><path fill="#E4CF37" id="more" d="M165,0C74.019,0,0,74.019,0,165s74.019,165,165,165s165-74.019,165-165S255.981,0,165,0z M85,190 c-13.785,0-25-11.215-25-25s11.215-25,25-25s25,11.215,25,25S98.785,190,85,190z M165,190c-13.785,0-25-11.215-25-25 s11.215-25,25-25s25,11.215,25,25S178.785,190,165,190z M245,190c-13.785,0-25-11.215-25-25s11.215-25,25-25 c13.785,0,25,11.215,25,25S258.785,190,245,190z"></path></a></g></svg></svg></svg>