<svg version="1.1" xmlns="http://www.w3.org/2000/svg" xmlns:xlink="http://www.w3.org/1999/xlink" fill="transparent" x="0" y="0" width="350" height="350" preserveAspectRatio="xMinYMin slice"><style type="text/css">.links{fill:transparent;stroke: #E4CF37;}.links:hover{fill:#63D272; opacity:0.4;}</style><defs><g id="allt"><path id="t6186" d="M2541,1504 L2530,1504 C2519,1504 2532,1496 2523,1494 C2515,1493 2526,1505 2517,1504 L2508,1504 2508,1504 L2508,1514 C2508,1524 2496,1512 2498,1520 C2501,1529 2512,1515 2510,1525 L2508,1536 2508,1536 L2518,1536 C2529,1536 2516,1524 2525,1526 C2534,1529 2519,1540 2530,1538 L2541,1536 2541,1536 L2542,1525 C2543,1515 2532,1531 2534,1522 C2536,1513 2544,1524 2542,1514 L2541,1504"/></g><clipPath id="c" clipRule="evenodd" fill="transparent"><use href="#t6186"/></clipPath></defs><svg viewBox="2495 1492 50 49" preserveAspectRatio="xMinYMin meet"><svg width="4380" height="2430"><g><image crossorigin="anonymous" x="0" y="0" href="https://nftpuzzle.license-token.com/assets/completepuzzle.svg" width="100%" height="100%" /><g class="links"><use href="#t6186"/></g></g></svg><svg x="2530" y="1526" height="9%" width="9%" viewBox="0 0 330 330"><g><a xlink:href="https://nftpuzzle.license-token.com/" class="links"><title>See the most innovative NFT based token software licensing project</title><path fill="#E4CF37" id="more" d="M165,0C74.019,0,0,74.019,0,165s74.019,165,165,165s165-74.019,165-165S255.981,0,165,0z M85,190 c-13.785,0-25-11.215-25-25s11.215-25,25-25s25,11.215,25,25S98.785,190,85,190z M165,190c-13.785,0-25-11.215-25-25 s11.215-25,25-25s25,11.215,25,25S178.785,190,165,190z M245,190c-13.785,0-25-11.215-25-25s11.215-25,25-25 c13.785,0,25,11.215,25,25S258.785,190,245,190z"></path></a></g></svg></svg></svg>