<svg version="1.1" xmlns="http://www.w3.org/2000/svg" xmlns:xlink="http://www.w3.org/1999/xlink" fill="transparent" x="0" y="0" width="350" height="350" preserveAspectRatio="xMinYMin slice"><style type="text/css">.links{fill:transparent;stroke: #E4CF37;}.links:hover{fill:#63D272; opacity:0.4;}</style><defs><g id="allt"><path id="t6188" d="M2607,1504 L2597,1504 C2587,1505 2601,1501 2590,1500 C2579,1500 2595,1504 2584,1504 L2574,1504 2574,1504 L2572,1514 C2570,1524 2584,1510 2582,1518 C2581,1526 2573,1518 2573,1527 L2574,1536 2574,1536 L2584,1534 C2594,1532 2580,1546 2588,1544 C2597,1543 2588,1535 2597,1535 L2607,1536 2607,1536 L2607,1525 C2607,1515 2595,1528 2595,1518 C2596,1508 2612,1522 2609,1513 L2607,1504"/></g><clipPath id="c" clipRule="evenodd" fill="transparent"><use href="#t6188"/></clipPath></defs><svg viewBox="2569 1499 44 48" preserveAspectRatio="xMinYMin meet"><svg width="4380" height="2430"><g><image crossorigin="anonymous" x="0" y="0" href="https://nftpuzzle.license-token.com/assets/completepuzzle.svg" width="100%" height="100%" /><g class="links"><use href="#t6188"/></g></g></svg><svg x="2598" y="1532" height="9%" width="9%" viewBox="0 0 330 330"><g><a xlink:href="https://nftpuzzle.license-token.com/" class="links"><title>See the most innovative NFT based token software licensing project</title><path fill="#E4CF37" id="more" d="M165,0C74.019,0,0,74.019,0,165s74.019,165,165,165s165-74.019,165-165S255.981,0,165,0z M85,190 c-13.785,0-25-11.215-25-25s11.215-25,25-25s25,11.215,25,25S98.785,190,85,190z M165,190c-13.785,0-25-11.215-25-25 s11.215-25,25-25s25,11.215,25,25S178.785,190,165,190z M245,190c-13.785,0-25-11.215-25-25s11.215-25,25-25 c13.785,0,25,11.215,25,25S258.785,190,245,190z"></path></a></g></svg></svg></svg>