<svg version="1.1" xmlns="http://www.w3.org/2000/svg" xmlns:xlink="http://www.w3.org/1999/xlink" fill="transparent" x="0" y="0" width="350" height="350" preserveAspectRatio="xMinYMin slice"><style type="text/css">.links{fill:transparent;stroke: #E4CF37;}.links:hover{fill:#63D272; opacity:0.4;}</style><defs><g id="allt"><path id="t6189" d="M2640,1504 L2630,1506 C2621,1508 2631,1498 2622,1496 C2613,1494 2626,1507 2616,1505 L2607,1504 2607,1504 L2609,1513 C2612,1522 2596,1508 2595,1518 C2595,1528 2607,1515 2607,1525 L2607,1536 2607,1536 L2616,1538 C2626,1541 2611,1525 2621,1524 C2631,1524 2619,1536 2629,1536 L2640,1536 2640,1536 L2640,1527 C2640,1518 2643,1530 2642,1520 C2642,1510 2640,1523 2640,1513 L2640,1504"/></g><clipPath id="c" clipRule="evenodd" fill="transparent"><use href="#t6189"/></clipPath></defs><svg viewBox="2594 1493 50 49" preserveAspectRatio="xMinYMin meet"><svg width="4380" height="2430"><g><image crossorigin="anonymous" x="0" y="0" href="https://nftpuzzle.license-token.com/assets/completepuzzle.svg" width="100%" height="100%" /><g class="links"><use href="#t6189"/></g></g></svg><svg x="2629" y="1527" height="9%" width="9%" viewBox="0 0 330 330"><g><a xlink:href="https://nftpuzzle.license-token.com/" class="links"><title>See the most innovative NFT based token software licensing project</title><path fill="#E4CF37" id="more" d="M165,0C74.019,0,0,74.019,0,165s74.019,165,165,165s165-74.019,165-165S255.981,0,165,0z M85,190 c-13.785,0-25-11.215-25-25s11.215-25,25-25s25,11.215,25,25S98.785,190,85,190z M165,190c-13.785,0-25-11.215-25-25 s11.215-25,25-25s25,11.215,25,25S178.785,190,165,190z M245,190c-13.785,0-25-11.215-25-25s11.215-25,25-25 c13.785,0,25,11.215,25,25S258.785,190,245,190z"></path></a></g></svg></svg></svg>