<svg version="1.1" xmlns="http://www.w3.org/2000/svg" xmlns:xlink="http://www.w3.org/1999/xlink" fill="transparent" x="0" y="0" width="350" height="350" preserveAspectRatio="xMinYMin slice"><style type="text/css">.links{fill:transparent;stroke: #E4CF37;}.links:hover{fill:#63D272; opacity:0.4;}</style><defs><g id="allt"><path id="t6193" d="M2772,1504 L2761,1504 C2750,1504 2765,1492 2755,1491 C2745,1491 2759,1504 2749,1504 L2739,1504 2739,1504 L2740,1513 C2741,1523 2727,1512 2727,1520 C2727,1529 2740,1515 2739,1525 L2739,1536 2739,1536 L2749,1537 C2759,1538 2747,1525 2756,1524 C2765,1524 2750,1537 2761,1536 L2772,1536 2772,1536 L2772,1527 C2772,1518 2779,1527 2781,1520 C2784,1513 2771,1522 2771,1513 L2772,1504"/></g><clipPath id="c" clipRule="evenodd" fill="transparent"><use href="#t6193"/></clipPath></defs><svg viewBox="2726 1490 59 49" preserveAspectRatio="xMinYMin meet"><svg width="4380" height="2430"><g><image crossorigin="anonymous" x="0" y="0" href="https://nftpuzzle.license-token.com/assets/completepuzzle.svg" width="100%" height="100%" /><g class="links"><use href="#t6193"/></g></g></svg><svg x="2770" y="1524" height="9%" width="9%" viewBox="0 0 330 330"><g><a xlink:href="https://nftpuzzle.license-token.com/" class="links"><title>See the most innovative NFT based token software licensing project</title><path fill="#E4CF37" id="more" d="M165,0C74.019,0,0,74.019,0,165s74.019,165,165,165s165-74.019,165-165S255.981,0,165,0z M85,190 c-13.785,0-25-11.215-25-25s11.215-25,25-25s25,11.215,25,25S98.785,190,85,190z M165,190c-13.785,0-25-11.215-25-25 s11.215-25,25-25s25,11.215,25,25S178.785,190,165,190z M245,190c-13.785,0-25-11.215-25-25s11.215-25,25-25 c13.785,0,25,11.215,25,25S258.785,190,245,190z"></path></a></g></svg></svg></svg>