<svg version="1.1" xmlns="http://www.w3.org/2000/svg" xmlns:xlink="http://www.w3.org/1999/xlink" fill="transparent" x="0" y="0" width="350" height="350" preserveAspectRatio="xMinYMin slice"><style type="text/css">.links{fill:transparent;stroke: #E4CF37;}.links:hover{fill:#63D272; opacity:0.4;}</style><defs><g id="allt"><path id="t6194" d="M2805,1504 L2794,1505 C2784,1507 2799,1494 2787,1496 C2776,1499 2792,1505 2782,1504 L2772,1504 2772,1504 L2771,1513 C2771,1522 2784,1513 2781,1520 C2779,1527 2772,1518 2772,1527 L2772,1536 2772,1536 L2781,1535 C2791,1535 2781,1548 2788,1545 C2796,1543 2786,1536 2795,1536 L2805,1536 2805,1536 L2804,1527 C2804,1518 2809,1528 2809,1518 C2809,1509 2802,1522 2803,1513 L2805,1504"/></g><clipPath id="c" clipRule="evenodd" fill="transparent"><use href="#t6194"/></clipPath></defs><svg viewBox="2770 1493 40 56" preserveAspectRatio="xMinYMin meet"><svg width="4380" height="2430"><g><image crossorigin="anonymous" x="0" y="0" href="https://nftpuzzle.license-token.com/assets/completepuzzle.svg" width="100%" height="100%" /><g class="links"><use href="#t6194"/></g></g></svg><svg x="2795" y="1534" height="9%" width="9%" viewBox="0 0 330 330"><g><a xlink:href="https://nftpuzzle.license-token.com/" class="links"><title>See the most innovative NFT based token software licensing project</title><path fill="#E4CF37" id="more" d="M165,0C74.019,0,0,74.019,0,165s74.019,165,165,165s165-74.019,165-165S255.981,0,165,0z M85,190 c-13.785,0-25-11.215-25-25s11.215-25,25-25s25,11.215,25,25S98.785,190,85,190z M165,190c-13.785,0-25-11.215-25-25 s11.215-25,25-25s25,11.215,25,25S178.785,190,165,190z M245,190c-13.785,0-25-11.215-25-25s11.215-25,25-25 c13.785,0,25,11.215,25,25S258.785,190,245,190z"></path></a></g></svg></svg></svg>