<svg version="1.1" xmlns="http://www.w3.org/2000/svg" xmlns:xlink="http://www.w3.org/1999/xlink" fill="transparent" x="0" y="0" width="350" height="350" preserveAspectRatio="xMinYMin slice"><style type="text/css">.links{fill:transparent;stroke: #E4CF37;}.links:hover{fill:#63D272; opacity:0.4;}</style><defs><g id="allt"><path id="t6195" d="M2838,1504 L2827,1503 C2816,1503 2832,1507 2822,1508 C2812,1509 2823,1504 2814,1504 L2805,1504 2805,1504 L2803,1513 C2802,1522 2809,1509 2809,1518 C2809,1528 2804,1518 2804,1527 L2805,1536 2805,1536 L2814,1534 C2824,1533 2810,1540 2820,1540 C2830,1540 2819,1535 2828,1535 L2838,1536 2838,1536 L2840,1526 C2842,1517 2830,1530 2831,1520 C2832,1511 2838,1523 2838,1513 L2838,1504"/></g><clipPath id="c" clipRule="evenodd" fill="transparent"><use href="#t6195"/></clipPath></defs><svg viewBox="2801 1502 42 39" preserveAspectRatio="xMinYMin meet"><svg width="4380" height="2430"><g><image crossorigin="anonymous" x="0" y="0" href="https://nftpuzzle.license-token.com/assets/completepuzzle.svg" width="100%" height="100%" /><g class="links"><use href="#t6195"/></g></g></svg><svg x="2828" y="1526" height="9%" width="9%" viewBox="0 0 330 330"><g><a xlink:href="https://nftpuzzle.license-token.com/" class="links"><title>See the most innovative NFT based token software licensing project</title><path fill="#E4CF37" id="more" d="M165,0C74.019,0,0,74.019,0,165s74.019,165,165,165s165-74.019,165-165S255.981,0,165,0z M85,190 c-13.785,0-25-11.215-25-25s11.215-25,25-25s25,11.215,25,25S98.785,190,85,190z M165,190c-13.785,0-25-11.215-25-25 s11.215-25,25-25s25,11.215,25,25S178.785,190,165,190z M245,190c-13.785,0-25-11.215-25-25s11.215-25,25-25 c13.785,0,25,11.215,25,25S258.785,190,245,190z"></path></a></g></svg></svg></svg>