<svg version="1.1" xmlns="http://www.w3.org/2000/svg" xmlns:xlink="http://www.w3.org/1999/xlink" fill="transparent" x="0" y="0" width="350" height="350" preserveAspectRatio="xMinYMin slice"><style type="text/css">.links{fill:transparent;stroke: #E4CF37;}.links:hover{fill:#63D272; opacity:0.4;}</style><defs><g id="allt"><path id="t6198" d="M2937,1504 L2926,1504 C2916,1504 2927,1506 2920,1506 C2913,1507 2925,1503 2914,1503 L2904,1504 2904,1504 L2901,1514 C2899,1524 2913,1509 2913,1519 C2913,1529 2904,1517 2904,1526 L2904,1536 2904,1536 L2914,1533 C2924,1531 2909,1545 2919,1545 C2930,1545 2918,1536 2927,1536 L2937,1536 2937,1536 L2937,1525 C2937,1515 2927,1528 2927,1519 C2928,1510 2941,1522 2939,1513 L2937,1504"/></g><clipPath id="c" clipRule="evenodd" fill="transparent"><use href="#t6198"/></clipPath></defs><svg viewBox="2898 1502 44 44" preserveAspectRatio="xMinYMin meet"><svg width="4380" height="2430"><g><image crossorigin="anonymous" x="0" y="0" href="https://nftpuzzle.license-token.com/assets/completepuzzle.svg" width="100%" height="100%" /><g class="links"><use href="#t6198"/></g></g></svg><svg x="2927" y="1531" height="9%" width="9%" viewBox="0 0 330 330"><g><a xlink:href="https://nftpuzzle.license-token.com/" class="links"><title>See the most innovative NFT based token software licensing project</title><path fill="#E4CF37" id="more" d="M165,0C74.019,0,0,74.019,0,165s74.019,165,165,165s165-74.019,165-165S255.981,0,165,0z M85,190 c-13.785,0-25-11.215-25-25s11.215-25,25-25s25,11.215,25,25S98.785,190,85,190z M165,190c-13.785,0-25-11.215-25-25 s11.215-25,25-25s25,11.215,25,25S178.785,190,165,190z M245,190c-13.785,0-25-11.215-25-25s11.215-25,25-25 c13.785,0,25,11.215,25,25S258.785,190,245,190z"></path></a></g></svg></svg></svg>