<svg version="1.1" xmlns="http://www.w3.org/2000/svg" xmlns:xlink="http://www.w3.org/1999/xlink" fill="transparent" x="0" y="0" width="350" height="350" preserveAspectRatio="xMinYMin slice"><style type="text/css">.links{fill:transparent;stroke: #E4CF37;}.links:hover{fill:#63D272; opacity:0.4;}</style><defs><g id="allt"><path id="t620" d="M3333,128 L3322,128 C3311,128 3325,131 3316,131 C3308,131 3321,128 3310,128 L3300,128 3300,128 L3301,138 C3303,148 3297,136 3297,143 C3297,151 3302,140 3301,150 L3300,160 3300,160 L3310,161 C3320,163 3308,157 3316,157 C3324,157 3312,162 3322,161 L3333,160 3333,160 L3333,149 C3334,139 3321,154 3321,144 C3321,135 3337,145 3335,136 L3333,128"/></g><clipPath id="c" clipRule="evenodd" fill="transparent"><use href="#t620"/></clipPath></defs><svg viewBox="3296 127 42 37" preserveAspectRatio="xMinYMin meet"><svg width="4380" height="2430"><g><image crossorigin="anonymous" x="0" y="0" href="https://nftpuzzle.license-token.com/assets/completepuzzle.svg" width="100%" height="100%" /><g class="links"><use href="#t620"/></g></g></svg><svg x="3323" y="149" height="9%" width="9%" viewBox="0 0 330 330"><g><a xlink:href="https://nftpuzzle.license-token.com/" class="links"><title>See the most innovative NFT based token software licensing project</title><path fill="#E4CF37" id="more" d="M165,0C74.019,0,0,74.019,0,165s74.019,165,165,165s165-74.019,165-165S255.981,0,165,0z M85,190 c-13.785,0-25-11.215-25-25s11.215-25,25-25s25,11.215,25,25S98.785,190,85,190z M165,190c-13.785,0-25-11.215-25-25 s11.215-25,25-25s25,11.215,25,25S178.785,190,165,190z M245,190c-13.785,0-25-11.215-25-25s11.215-25,25-25 c13.785,0,25,11.215,25,25S258.785,190,245,190z"></path></a></g></svg></svg></svg>