<svg version="1.1" xmlns="http://www.w3.org/2000/svg" xmlns:xlink="http://www.w3.org/1999/xlink" fill="transparent" x="0" y="0" width="350" height="350" preserveAspectRatio="xMinYMin slice"><style type="text/css">.links{fill:transparent;stroke: #E4CF37;}.links:hover{fill:#63D272; opacity:0.4;}</style><defs><g id="allt"><path id="t6200" d="M3003,1504 L2992,1503 C2981,1503 2993,1513 2985,1511 C2978,1510 2989,1503 2979,1503 L2970,1504 2970,1504 L2968,1513 C2967,1523 2975,1513 2976,1521 C2978,1530 2966,1518 2968,1527 L2970,1536 2970,1536 L2980,1534 C2990,1533 2979,1541 2988,1542 C2997,1544 2984,1532 2993,1534 L3003,1536 3003,1536 L3003,1525 C3003,1514 3008,1527 3006,1518 C3005,1509 3002,1522 3002,1513 L3003,1504"/></g><clipPath id="c" clipRule="evenodd" fill="transparent"><use href="#t6200"/></clipPath></defs><svg viewBox="2965 1502 44 43" preserveAspectRatio="xMinYMin meet"><svg width="4380" height="2430"><g><image crossorigin="anonymous" x="0" y="0" href="https://nftpuzzle.license-token.com/assets/completepuzzle.svg" width="100%" height="100%" /><g class="links"><use href="#t6200"/></g></g></svg><svg x="2994" y="1530" height="9%" width="9%" viewBox="0 0 330 330"><g><a xlink:href="https://nftpuzzle.license-token.com/" class="links"><title>See the most innovative NFT based token software licensing project</title><path fill="#E4CF37" id="more" d="M165,0C74.019,0,0,74.019,0,165s74.019,165,165,165s165-74.019,165-165S255.981,0,165,0z M85,190 c-13.785,0-25-11.215-25-25s11.215-25,25-25s25,11.215,25,25S98.785,190,85,190z M165,190c-13.785,0-25-11.215-25-25 s11.215-25,25-25s25,11.215,25,25S178.785,190,165,190z M245,190c-13.785,0-25-11.215-25-25s11.215-25,25-25 c13.785,0,25,11.215,25,25S258.785,190,245,190z"></path></a></g></svg></svg></svg>