<svg version="1.1" xmlns="http://www.w3.org/2000/svg" xmlns:xlink="http://www.w3.org/1999/xlink" fill="transparent" x="0" y="0" width="350" height="350" preserveAspectRatio="xMinYMin slice"><style type="text/css">.links{fill:transparent;stroke: #E4CF37;}.links:hover{fill:#63D272; opacity:0.4;}</style><defs><g id="allt"><path id="t6201" d="M3036,1504 L3026,1503 C3017,1502 3028,1511 3019,1511 C3010,1511 3025,1503 3014,1503 L3003,1504 3003,1504 L3002,1513 C3002,1522 3005,1509 3006,1518 C3008,1527 3003,1514 3003,1525 L3003,1536 3003,1536 L3012,1535 C3022,1535 3008,1538 3017,1539 C3027,1541 3013,1536 3024,1536 L3036,1536 3036,1536 L3038,1526 C3041,1516 3027,1526 3025,1518 C3024,1511 3041,1524 3038,1514 L3036,1504"/></g><clipPath id="c" clipRule="evenodd" fill="transparent"><use href="#t6201"/></clipPath></defs><svg viewBox="3001 1501 41 41" preserveAspectRatio="xMinYMin meet"><svg width="4380" height="2430"><g><image crossorigin="anonymous" x="0" y="0" href="https://nftpuzzle.license-token.com/assets/completepuzzle.svg" width="100%" height="100%" /><g class="links"><use href="#t6201"/></g></g></svg><svg x="3027" y="1527" height="9%" width="9%" viewBox="0 0 330 330"><g><a xlink:href="https://nftpuzzle.license-token.com/" class="links"><title>See the most innovative NFT based token software licensing project</title><path fill="#E4CF37" id="more" d="M165,0C74.019,0,0,74.019,0,165s74.019,165,165,165s165-74.019,165-165S255.981,0,165,0z M85,190 c-13.785,0-25-11.215-25-25s11.215-25,25-25s25,11.215,25,25S98.785,190,85,190z M165,190c-13.785,0-25-11.215-25-25 s11.215-25,25-25s25,11.215,25,25S178.785,190,165,190z M245,190c-13.785,0-25-11.215-25-25s11.215-25,25-25 c13.785,0,25,11.215,25,25S258.785,190,245,190z"></path></a></g></svg></svg></svg>