<svg version="1.1" xmlns="http://www.w3.org/2000/svg" xmlns:xlink="http://www.w3.org/1999/xlink" fill="transparent" x="0" y="0" width="350" height="350" preserveAspectRatio="xMinYMin slice"><style type="text/css">.links{fill:transparent;stroke: #E4CF37;}.links:hover{fill:#63D272; opacity:0.4;}</style><defs><g id="allt"><path id="t6202" d="M3069,1504 L3059,1503 C3049,1503 3059,1510 3052,1509 C3045,1508 3055,1503 3045,1503 L3036,1504 3036,1504 L3038,1514 C3041,1524 3024,1511 3025,1518 C3027,1526 3041,1516 3038,1526 L3036,1536 3036,1536 L3046,1538 C3056,1541 3043,1524 3051,1525 C3059,1527 3048,1541 3058,1538 L3069,1536 3069,1536 L3069,1527 C3069,1518 3063,1526 3060,1518 C3058,1510 3070,1523 3069,1513 L3069,1504"/></g><clipPath id="c" clipRule="evenodd" fill="transparent"><use href="#t6202"/></clipPath></defs><svg viewBox="3023 1502 48 40" preserveAspectRatio="xMinYMin meet"><svg width="4380" height="2430"><g><image crossorigin="anonymous" x="0" y="0" href="https://nftpuzzle.license-token.com/assets/completepuzzle.svg" width="100%" height="100%" /><g class="links"><use href="#t6202"/></g></g></svg><svg x="3056" y="1527" height="9%" width="9%" viewBox="0 0 330 330"><g><a xlink:href="https://nftpuzzle.license-token.com/" class="links"><title>See the most innovative NFT based token software licensing project</title><path fill="#E4CF37" id="more" d="M165,0C74.019,0,0,74.019,0,165s74.019,165,165,165s165-74.019,165-165S255.981,0,165,0z M85,190 c-13.785,0-25-11.215-25-25s11.215-25,25-25s25,11.215,25,25S98.785,190,85,190z M165,190c-13.785,0-25-11.215-25-25 s11.215-25,25-25s25,11.215,25,25S178.785,190,165,190z M245,190c-13.785,0-25-11.215-25-25s11.215-25,25-25 c13.785,0,25,11.215,25,25S258.785,190,245,190z"></path></a></g></svg></svg></svg>