<svg version="1.1" xmlns="http://www.w3.org/2000/svg" xmlns:xlink="http://www.w3.org/1999/xlink" fill="transparent" x="0" y="0" width="350" height="350" preserveAspectRatio="xMinYMin slice"><style type="text/css">.links{fill:transparent;stroke: #E4CF37;}.links:hover{fill:#63D272; opacity:0.4;}</style><defs><g id="allt"><path id="t6205" d="M3168,1504 L3158,1504 C3148,1504 3160,1496 3151,1498 C3143,1500 3155,1504 3145,1504 L3135,1504 3135,1504 L3135,1514 C3135,1524 3132,1509 3130,1518 C3129,1528 3137,1515 3136,1525 L3135,1536 3135,1536 L3145,1536 C3155,1536 3140,1533 3149,1531 C3159,1530 3147,1538 3157,1537 L3168,1536 3168,1536 L3168,1525 C3168,1514 3174,1528 3173,1519 C3172,1510 3168,1521 3168,1512 L3168,1504"/></g><clipPath id="c" clipRule="evenodd" fill="transparent"><use href="#t6205"/></clipPath></defs><svg viewBox="3128 1495 47 44" preserveAspectRatio="xMinYMin meet"><svg width="4380" height="2430"><g><image crossorigin="anonymous" x="0" y="0" href="https://nftpuzzle.license-token.com/assets/completepuzzle.svg" width="100%" height="100%" /><g class="links"><use href="#t6205"/></g></g></svg><svg x="3160" y="1524" height="9%" width="9%" viewBox="0 0 330 330"><g><a xlink:href="https://nftpuzzle.license-token.com/" class="links"><title>See the most innovative NFT based token software licensing project</title><path fill="#E4CF37" id="more" d="M165,0C74.019,0,0,74.019,0,165s74.019,165,165,165s165-74.019,165-165S255.981,0,165,0z M85,190 c-13.785,0-25-11.215-25-25s11.215-25,25-25s25,11.215,25,25S98.785,190,85,190z M165,190c-13.785,0-25-11.215-25-25 s11.215-25,25-25s25,11.215,25,25S178.785,190,165,190z M245,190c-13.785,0-25-11.215-25-25s11.215-25,25-25 c13.785,0,25,11.215,25,25S258.785,190,245,190z"></path></a></g></svg></svg></svg>