<svg version="1.1" xmlns="http://www.w3.org/2000/svg" xmlns:xlink="http://www.w3.org/1999/xlink" fill="transparent" x="0" y="0" width="350" height="350" preserveAspectRatio="xMinYMin slice"><style type="text/css">.links{fill:transparent;stroke: #E4CF37;}.links:hover{fill:#63D272; opacity:0.4;}</style><defs><g id="allt"><path id="t6206" d="M3201,1504 L3191,1503 C3181,1503 3193,1514 3183,1515 C3173,1516 3189,1505 3178,1504 L3168,1504 3168,1504 L3168,1512 C3168,1521 3172,1510 3173,1519 C3174,1528 3168,1514 3168,1525 L3168,1536 3168,1536 L3177,1536 C3186,1536 3174,1540 3183,1541 C3192,1542 3178,1536 3189,1536 L3201,1536 3201,1536 L3202,1526 C3204,1516 3194,1527 3193,1518 C3192,1509 3205,1523 3203,1513 L3201,1504"/></g><clipPath id="c" clipRule="evenodd" fill="transparent"><use href="#t6206"/></clipPath></defs><svg viewBox="3167 1502 39 41" preserveAspectRatio="xMinYMin meet"><svg width="4380" height="2430"><g><image crossorigin="anonymous" x="0" y="0" href="https://nftpuzzle.license-token.com/assets/completepuzzle.svg" width="100%" height="100%" /><g class="links"><use href="#t6206"/></g></g></svg><svg x="3191" y="1528" height="9%" width="9%" viewBox="0 0 330 330"><g><a xlink:href="https://nftpuzzle.license-token.com/" class="links"><title>See the most innovative NFT based token software licensing project</title><path fill="#E4CF37" id="more" d="M165,0C74.019,0,0,74.019,0,165s74.019,165,165,165s165-74.019,165-165S255.981,0,165,0z M85,190 c-13.785,0-25-11.215-25-25s11.215-25,25-25s25,11.215,25,25S98.785,190,85,190z M165,190c-13.785,0-25-11.215-25-25 s11.215-25,25-25s25,11.215,25,25S178.785,190,165,190z M245,190c-13.785,0-25-11.215-25-25s11.215-25,25-25 c13.785,0,25,11.215,25,25S258.785,190,245,190z"></path></a></g></svg></svg></svg>