<svg version="1.1" xmlns="http://www.w3.org/2000/svg" xmlns:xlink="http://www.w3.org/1999/xlink" fill="transparent" x="0" y="0" width="350" height="350" preserveAspectRatio="xMinYMin slice"><style type="text/css">.links{fill:transparent;stroke: #E4CF37;}.links:hover{fill:#63D272; opacity:0.4;}</style><defs><g id="allt"><path id="t6209" d="M3300,1504 L3289,1505 C3278,1507 3294,1500 3283,1499 C3272,1498 3288,1504 3277,1504 L3267,1504 3267,1504 L3265,1512 C3264,1521 3273,1512 3273,1520 C3273,1529 3267,1515 3267,1525 L3267,1536 3267,1536 L3276,1534 C3285,1533 3276,1542 3284,1542 C3293,1542 3279,1536 3289,1536 L3300,1536 3300,1536 L3301,1526 C3302,1516 3288,1528 3287,1519 C3287,1510 3306,1521 3303,1512 L3300,1504"/></g><clipPath id="c" clipRule="evenodd" fill="transparent"><use href="#t6209"/></clipPath></defs><svg viewBox="3263 1497 44 46" preserveAspectRatio="xMinYMin meet"><svg width="4380" height="2430"><g><image crossorigin="anonymous" x="0" y="0" href="https://nftpuzzle.license-token.com/assets/completepuzzle.svg" width="100%" height="100%" /><g class="links"><use href="#t6209"/></g></g></svg><svg x="3292" y="1528" height="9%" width="9%" viewBox="0 0 330 330"><g><a xlink:href="https://nftpuzzle.license-token.com/" class="links"><title>See the most innovative NFT based token software licensing project</title><path fill="#E4CF37" id="more" d="M165,0C74.019,0,0,74.019,0,165s74.019,165,165,165s165-74.019,165-165S255.981,0,165,0z M85,190 c-13.785,0-25-11.215-25-25s11.215-25,25-25s25,11.215,25,25S98.785,190,85,190z M165,190c-13.785,0-25-11.215-25-25 s11.215-25,25-25s25,11.215,25,25S178.785,190,165,190z M245,190c-13.785,0-25-11.215-25-25s11.215-25,25-25 c13.785,0,25,11.215,25,25S258.785,190,245,190z"></path></a></g></svg></svg></svg>