<svg version="1.1" xmlns="http://www.w3.org/2000/svg" xmlns:xlink="http://www.w3.org/1999/xlink" fill="transparent" x="0" y="0" width="350" height="350" preserveAspectRatio="xMinYMin slice"><style type="text/css">.links{fill:transparent;stroke: #E4CF37;}.links:hover{fill:#63D272; opacity:0.4;}</style><defs><g id="allt"><path id="t6210" d="M3333,1504 L3322,1504 C3312,1504 3326,1515 3316,1514 C3307,1513 3321,1504 3310,1504 L3300,1504 3300,1504 L3303,1512 C3306,1521 3287,1510 3287,1519 C3288,1528 3302,1516 3301,1526 L3300,1536 3300,1536 L3309,1539 C3318,1542 3306,1524 3315,1524 C3324,1525 3312,1538 3322,1537 L3333,1536 3333,1536 L3332,1526 C3331,1516 3339,1526 3338,1519 C3338,1513 3333,1525 3333,1514 L3333,1504"/></g><clipPath id="c" clipRule="evenodd" fill="transparent"><use href="#t6210"/></clipPath></defs><svg viewBox="3286 1503 54 40" preserveAspectRatio="xMinYMin meet"><svg width="4380" height="2430"><g><image crossorigin="anonymous" x="0" y="0" href="https://nftpuzzle.license-token.com/assets/completepuzzle.svg" width="100%" height="100%" /><g class="links"><use href="#t6210"/></g></g></svg><svg x="3325" y="1528" height="9%" width="9%" viewBox="0 0 330 330"><g><a xlink:href="https://nftpuzzle.license-token.com/" class="links"><title>See the most innovative NFT based token software licensing project</title><path fill="#E4CF37" id="more" d="M165,0C74.019,0,0,74.019,0,165s74.019,165,165,165s165-74.019,165-165S255.981,0,165,0z M85,190 c-13.785,0-25-11.215-25-25s11.215-25,25-25s25,11.215,25,25S98.785,190,85,190z M165,190c-13.785,0-25-11.215-25-25 s11.215-25,25-25s25,11.215,25,25S178.785,190,165,190z M245,190c-13.785,0-25-11.215-25-25s11.215-25,25-25 c13.785,0,25,11.215,25,25S258.785,190,245,190z"></path></a></g></svg></svg></svg>