<svg version="1.1" xmlns="http://www.w3.org/2000/svg" xmlns:xlink="http://www.w3.org/1999/xlink" fill="transparent" x="0" y="0" width="350" height="350" preserveAspectRatio="xMinYMin slice"><style type="text/css">.links{fill:transparent;stroke: #E4CF37;}.links:hover{fill:#63D272; opacity:0.4;}</style><defs><g id="allt"><path id="t6213" d="M3432,1504 L3422,1504 C3412,1505 3424,1499 3415,1499 C3406,1499 3418,1505 3408,1504 L3399,1504 3399,1504 L3398,1512 C3398,1521 3390,1509 3391,1519 C3393,1529 3399,1515 3399,1525 L3399,1536 3399,1536 L3408,1535 C3417,1535 3404,1527 3414,1528 C3425,1530 3410,1536 3421,1536 L3432,1536 3432,1536 L3432,1526 C3432,1516 3438,1528 3437,1518 C3437,1509 3432,1525 3432,1514 L3432,1504"/></g><clipPath id="c" clipRule="evenodd" fill="transparent"><use href="#t6213"/></clipPath></defs><svg viewBox="3389 1498 50 39" preserveAspectRatio="xMinYMin meet"><svg width="4380" height="2430"><g><image crossorigin="anonymous" x="0" y="0" href="https://nftpuzzle.license-token.com/assets/completepuzzle.svg" width="100%" height="100%" /><g class="links"><use href="#t6213"/></g></g></svg><svg x="3424" y="1522" height="9%" width="9%" viewBox="0 0 330 330"><g><a xlink:href="https://nftpuzzle.license-token.com/" class="links"><title>See the most innovative NFT based token software licensing project</title><path fill="#E4CF37" id="more" d="M165,0C74.019,0,0,74.019,0,165s74.019,165,165,165s165-74.019,165-165S255.981,0,165,0z M85,190 c-13.785,0-25-11.215-25-25s11.215-25,25-25s25,11.215,25,25S98.785,190,85,190z M165,190c-13.785,0-25-11.215-25-25 s11.215-25,25-25s25,11.215,25,25S178.785,190,165,190z M245,190c-13.785,0-25-11.215-25-25s11.215-25,25-25 c13.785,0,25,11.215,25,25S258.785,190,245,190z"></path></a></g></svg></svg></svg>