<svg version="1.1" xmlns="http://www.w3.org/2000/svg" xmlns:xlink="http://www.w3.org/1999/xlink" fill="transparent" x="0" y="0" width="350" height="350" preserveAspectRatio="xMinYMin slice"><style type="text/css">.links{fill:transparent;stroke: #E4CF37;}.links:hover{fill:#63D272; opacity:0.4;}</style><defs><g id="allt"><path id="t6214" d="M3465,1504 L3455,1502 C3446,1501 3459,1509 3449,1511 C3439,1514 3452,1500 3442,1502 L3432,1504 3432,1504 L3432,1514 C3432,1525 3437,1509 3437,1518 C3438,1528 3432,1516 3432,1526 L3432,1536 3432,1536 L3442,1536 C3453,1536 3437,1541 3447,1541 C3457,1542 3444,1536 3454,1536 L3465,1536 3465,1536 L3465,1526 C3465,1517 3475,1530 3472,1521 C3470,1512 3463,1524 3464,1514 L3465,1504"/></g><clipPath id="c" clipRule="evenodd" fill="transparent"><use href="#t6214"/></clipPath></defs><svg viewBox="3431 1499 45 44" preserveAspectRatio="xMinYMin meet"><svg width="4380" height="2430"><g><image crossorigin="anonymous" x="0" y="0" href="https://nftpuzzle.license-token.com/assets/completepuzzle.svg" width="100%" height="100%" /><g class="links"><use href="#t6214"/></g></g></svg><svg x="3461" y="1528" height="9%" width="9%" viewBox="0 0 330 330"><g><a xlink:href="https://nftpuzzle.license-token.com/" class="links"><title>See the most innovative NFT based token software licensing project</title><path fill="#E4CF37" id="more" d="M165,0C74.019,0,0,74.019,0,165s74.019,165,165,165s165-74.019,165-165S255.981,0,165,0z M85,190 c-13.785,0-25-11.215-25-25s11.215-25,25-25s25,11.215,25,25S98.785,190,85,190z M165,190c-13.785,0-25-11.215-25-25 s11.215-25,25-25s25,11.215,25,25S178.785,190,165,190z M245,190c-13.785,0-25-11.215-25-25s11.215-25,25-25 c13.785,0,25,11.215,25,25S258.785,190,245,190z"></path></a></g></svg></svg></svg>