<svg version="1.1" xmlns="http://www.w3.org/2000/svg" xmlns:xlink="http://www.w3.org/1999/xlink" fill="transparent" x="0" y="0" width="350" height="350" preserveAspectRatio="xMinYMin slice"><style type="text/css">.links{fill:transparent;stroke: #E4CF37;}.links:hover{fill:#63D272; opacity:0.4;}</style><defs><g id="allt"><path id="t6218" d="M3597,1504 L3586,1504 C3576,1504 3590,1494 3581,1496 C3572,1499 3583,1504 3573,1504 L3564,1504 3564,1504 L3564,1513 C3564,1522 3560,1511 3559,1520 C3558,1529 3564,1518 3564,1527 L3564,1536 3564,1536 L3573,1536 C3583,1536 3571,1532 3580,1531 C3590,1530 3578,1536 3587,1536 L3597,1536 3597,1536 L3597,1527 C3597,1518 3593,1530 3593,1519 C3593,1509 3597,1523 3597,1513 L3597,1504"/></g><clipPath id="c" clipRule="evenodd" fill="transparent"><use href="#t6218"/></clipPath></defs><svg viewBox="3557 1493 41 44" preserveAspectRatio="xMinYMin meet"><svg width="4380" height="2430"><g><image crossorigin="anonymous" x="0" y="0" href="https://nftpuzzle.license-token.com/assets/completepuzzle.svg" width="100%" height="100%" /><g class="links"><use href="#t6218"/></g></g></svg><svg x="3583" y="1522" height="9%" width="9%" viewBox="0 0 330 330"><g><a xlink:href="https://nftpuzzle.license-token.com/" class="links"><title>See the most innovative NFT based token software licensing project</title><path fill="#E4CF37" id="more" d="M165,0C74.019,0,0,74.019,0,165s74.019,165,165,165s165-74.019,165-165S255.981,0,165,0z M85,190 c-13.785,0-25-11.215-25-25s11.215-25,25-25s25,11.215,25,25S98.785,190,85,190z M165,190c-13.785,0-25-11.215-25-25 s11.215-25,25-25s25,11.215,25,25S178.785,190,165,190z M245,190c-13.785,0-25-11.215-25-25s11.215-25,25-25 c13.785,0,25,11.215,25,25S258.785,190,245,190z"></path></a></g></svg></svg></svg>