<svg version="1.1" xmlns="http://www.w3.org/2000/svg" xmlns:xlink="http://www.w3.org/1999/xlink" fill="transparent" x="0" y="0" width="350" height="350" preserveAspectRatio="xMinYMin slice"><style type="text/css">.links{fill:transparent;stroke: #E4CF37;}.links:hover{fill:#63D272; opacity:0.4;}</style><defs><g id="allt"><path id="t622" d="M3399,128 L3388,128 C3378,128 3390,126 3381,125 C3372,124 3387,128 3376,128 L3366,128 3366,128 L3366,137 C3366,147 3361,132 3360,143 C3359,154 3368,140 3367,150 L3366,160 3366,160 L3376,160 C3386,160 3370,155 3381,154 C3393,153 3379,162 3389,161 L3399,160 3399,160 L3399,150 C3399,140 3389,152 3389,144 C3389,136 3400,147 3399,137 L3399,128"/></g><clipPath id="c" clipRule="evenodd" fill="transparent"><use href="#t622"/></clipPath></defs><svg viewBox="3358 123 43 40" preserveAspectRatio="xMinYMin meet"><svg width="4380" height="2430"><g><image crossorigin="anonymous" x="0" y="0" href="https://nftpuzzle.license-token.com/assets/completepuzzle.svg" width="100%" height="100%" /><g class="links"><use href="#t622"/></g></g></svg><svg x="3386" y="148" height="9%" width="9%" viewBox="0 0 330 330"><g><a xlink:href="https://nftpuzzle.license-token.com/" class="links"><title>See the most innovative NFT based token software licensing project</title><path fill="#E4CF37" id="more" d="M165,0C74.019,0,0,74.019,0,165s74.019,165,165,165s165-74.019,165-165S255.981,0,165,0z M85,190 c-13.785,0-25-11.215-25-25s11.215-25,25-25s25,11.215,25,25S98.785,190,85,190z M165,190c-13.785,0-25-11.215-25-25 s11.215-25,25-25s25,11.215,25,25S178.785,190,165,190z M245,190c-13.785,0-25-11.215-25-25s11.215-25,25-25 c13.785,0,25,11.215,25,25S258.785,190,245,190z"></path></a></g></svg></svg></svg>