<svg version="1.1" xmlns="http://www.w3.org/2000/svg" xmlns:xlink="http://www.w3.org/1999/xlink" fill="transparent" x="0" y="0" width="350" height="350" preserveAspectRatio="xMinYMin slice"><style type="text/css">.links{fill:transparent;stroke: #E4CF37;}.links:hover{fill:#63D272; opacity:0.4;}</style><defs><g id="allt"><path id="t6223" d="M3762,1504 L3751,1504 C3741,1505 3756,1497 3747,1498 C3738,1499 3750,1507 3739,1505 L3729,1504 3729,1504 L3729,1514 C3729,1525 3723,1512 3723,1519 C3724,1526 3729,1515 3729,1525 L3729,1536 3729,1536 L3739,1536 C3750,1536 3738,1530 3745,1530 C3752,1531 3741,1536 3751,1536 L3762,1536 3762,1536 L3763,1525 C3764,1514 3759,1528 3758,1518 C3757,1509 3762,1521 3762,1512 L3762,1504"/></g><clipPath id="c" clipRule="evenodd" fill="transparent"><use href="#t6223"/></clipPath></defs><svg viewBox="3722 1496 43 41" preserveAspectRatio="xMinYMin meet"><svg width="4380" height="2430"><g><image crossorigin="anonymous" x="0" y="0" href="https://nftpuzzle.license-token.com/assets/completepuzzle.svg" width="100%" height="100%" /><g class="links"><use href="#t6223"/></g></g></svg><svg x="3750" y="1522" height="9%" width="9%" viewBox="0 0 330 330"><g><a xlink:href="https://nftpuzzle.license-token.com/" class="links"><title>See the most innovative NFT based token software licensing project</title><path fill="#E4CF37" id="more" d="M165,0C74.019,0,0,74.019,0,165s74.019,165,165,165s165-74.019,165-165S255.981,0,165,0z M85,190 c-13.785,0-25-11.215-25-25s11.215-25,25-25s25,11.215,25,25S98.785,190,85,190z M165,190c-13.785,0-25-11.215-25-25 s11.215-25,25-25s25,11.215,25,25S178.785,190,165,190z M245,190c-13.785,0-25-11.215-25-25s11.215-25,25-25 c13.785,0,25,11.215,25,25S258.785,190,245,190z"></path></a></g></svg></svg></svg>