<svg version="1.1" xmlns="http://www.w3.org/2000/svg" xmlns:xlink="http://www.w3.org/1999/xlink" fill="transparent" x="0" y="0" width="350" height="350" preserveAspectRatio="xMinYMin slice"><style type="text/css">.links{fill:transparent;stroke: #E4CF37;}.links:hover{fill:#63D272; opacity:0.4;}</style><defs><g id="allt"><path id="t6225" d="M3828,1504 L3816,1503 C3805,1503 3818,1508 3809,1509 C3801,1511 3815,1504 3805,1504 L3795,1504 3795,1504 L3795,1512 C3795,1521 3790,1512 3789,1520 C3788,1529 3797,1516 3796,1526 L3795,1536 3795,1536 L3804,1536 C3813,1536 3803,1531 3812,1530 C3821,1529 3807,1538 3817,1537 L3828,1536 3828,1536 L3830,1526 C3832,1516 3816,1528 3816,1519 C3816,1510 3832,1522 3830,1513 L3828,1504"/></g><clipPath id="c" clipRule="evenodd" fill="transparent"><use href="#t6225"/></clipPath></defs><svg viewBox="3787 1502 46 37" preserveAspectRatio="xMinYMin meet"><svg width="4380" height="2430"><g><image crossorigin="anonymous" x="0" y="0" href="https://nftpuzzle.license-token.com/assets/completepuzzle.svg" width="100%" height="100%" /><g class="links"><use href="#t6225"/></g></g></svg><svg x="3818" y="1524" height="9%" width="9%" viewBox="0 0 330 330"><g><a xlink:href="https://nftpuzzle.license-token.com/" class="links"><title>See the most innovative NFT based token software licensing project</title><path fill="#E4CF37" id="more" d="M165,0C74.019,0,0,74.019,0,165s74.019,165,165,165s165-74.019,165-165S255.981,0,165,0z M85,190 c-13.785,0-25-11.215-25-25s11.215-25,25-25s25,11.215,25,25S98.785,190,85,190z M165,190c-13.785,0-25-11.215-25-25 s11.215-25,25-25s25,11.215,25,25S178.785,190,165,190z M245,190c-13.785,0-25-11.215-25-25s11.215-25,25-25 c13.785,0,25,11.215,25,25S258.785,190,245,190z"></path></a></g></svg></svg></svg>