<svg version="1.1" xmlns="http://www.w3.org/2000/svg" xmlns:xlink="http://www.w3.org/1999/xlink" fill="transparent" x="0" y="0" width="350" height="350" preserveAspectRatio="xMinYMin slice"><style type="text/css">.links{fill:transparent;stroke: #E4CF37;}.links:hover{fill:#63D272; opacity:0.4;}</style><defs><g id="allt"><path id="t6228" d="M3927,1504 L3916,1504 C3906,1504 3918,1491 3909,1493 C3900,1496 3915,1505 3904,1504 L3894,1504 3894,1504 L3894,1514 C3895,1524 3887,1513 3888,1519 C3889,1526 3896,1515 3895,1525 L3894,1536 3894,1536 L3904,1536 C3915,1537 3903,1529 3910,1530 C3917,1531 3905,1538 3916,1537 L3927,1536 3927,1536 L3927,1526 C3927,1517 3915,1528 3915,1518 C3916,1509 3932,1521 3929,1512 L3927,1504"/></g><clipPath id="c" clipRule="evenodd" fill="transparent"><use href="#t6228"/></clipPath></defs><svg viewBox="3886 1490 47 49" preserveAspectRatio="xMinYMin meet"><svg width="4380" height="2430"><g><image crossorigin="anonymous" x="0" y="0" href="https://nftpuzzle.license-token.com/assets/completepuzzle.svg" width="100%" height="100%" /><g class="links"><use href="#t6228"/></g></g></svg><svg x="3918" y="1524" height="9%" width="9%" viewBox="0 0 330 330"><g><a xlink:href="https://nftpuzzle.license-token.com/" class="links"><title>See the most innovative NFT based token software licensing project</title><path fill="#E4CF37" id="more" d="M165,0C74.019,0,0,74.019,0,165s74.019,165,165,165s165-74.019,165-165S255.981,0,165,0z M85,190 c-13.785,0-25-11.215-25-25s11.215-25,25-25s25,11.215,25,25S98.785,190,85,190z M165,190c-13.785,0-25-11.215-25-25 s11.215-25,25-25s25,11.215,25,25S178.785,190,165,190z M245,190c-13.785,0-25-11.215-25-25s11.215-25,25-25 c13.785,0,25,11.215,25,25S258.785,190,245,190z"></path></a></g></svg></svg></svg>