<svg version="1.1" xmlns="http://www.w3.org/2000/svg" xmlns:xlink="http://www.w3.org/1999/xlink" fill="transparent" x="0" y="0" width="350" height="350" preserveAspectRatio="xMinYMin slice"><style type="text/css">.links{fill:transparent;stroke: #E4CF37;}.links:hover{fill:#63D272; opacity:0.4;}</style><defs><g id="allt"><path id="t6238" d="M4257,1504 L4246,1505 C4235,1507 4248,1494 4238,1495 C4229,1496 4243,1507 4233,1505 L4224,1504 4224,1504 L4224,1513 C4224,1523 4214,1512 4216,1520 C4219,1529 4224,1517 4224,1526 L4224,1536 4224,1536 L4234,1536 C4244,1536 4233,1526 4241,1528 C4250,1531 4237,1536 4247,1536 L4257,1536 4257,1536 L4257,1526 C4257,1516 4265,1530 4264,1521 C4264,1512 4257,1525 4257,1514 L4257,1504"/></g><clipPath id="c" clipRule="evenodd" fill="transparent"><use href="#t6238"/></clipPath></defs><svg viewBox="4213 1493 53 44" preserveAspectRatio="xMinYMin meet"><svg width="4380" height="2430"><g><image crossorigin="anonymous" x="0" y="0" href="https://nftpuzzle.license-token.com/assets/completepuzzle.svg" width="100%" height="100%" /><g class="links"><use href="#t6238"/></g></g></svg><svg x="4251" y="1522" height="9%" width="9%" viewBox="0 0 330 330"><g><a xlink:href="https://nftpuzzle.license-token.com/" class="links"><title>See the most innovative NFT based token software licensing project</title><path fill="#E4CF37" id="more" d="M165,0C74.019,0,0,74.019,0,165s74.019,165,165,165s165-74.019,165-165S255.981,0,165,0z M85,190 c-13.785,0-25-11.215-25-25s11.215-25,25-25s25,11.215,25,25S98.785,190,85,190z M165,190c-13.785,0-25-11.215-25-25 s11.215-25,25-25s25,11.215,25,25S178.785,190,165,190z M245,190c-13.785,0-25-11.215-25-25s11.215-25,25-25 c13.785,0,25,11.215,25,25S258.785,190,245,190z"></path></a></g></svg></svg></svg>