<svg version="1.1" xmlns="http://www.w3.org/2000/svg" xmlns:xlink="http://www.w3.org/1999/xlink" fill="transparent" x="0" y="0" width="350" height="350" preserveAspectRatio="xMinYMin slice"><style type="text/css">.links{fill:transparent;stroke: #E4CF37;}.links:hover{fill:#63D272; opacity:0.4;}</style><defs><g id="allt"><path id="t6248" d="M297,1536 L286,1533 C276,1531 290,1547 280,1546 C270,1545 283,1535 273,1535 L264,1536 264,1536 L264,1544 C264,1553 272,1545 274,1551 C277,1558 264,1550 264,1559 L264,1568 264,1568 L273,1568 C282,1568 273,1576 280,1578 C287,1581 278,1568 287,1568 L297,1568 297,1568 L295,1559 C294,1550 300,1561 300,1551 C300,1542 296,1556 296,1546 L297,1536"/></g><clipPath id="c" clipRule="evenodd" fill="transparent"><use href="#t6248"/></clipPath></defs><svg viewBox="263 1530 38 52" preserveAspectRatio="xMinYMin meet"><svg width="4380" height="2430"><g><image crossorigin="anonymous" x="0" y="0" href="https://nftpuzzle.license-token.com/assets/completepuzzle.svg" width="100%" height="100%" /><g class="links"><use href="#t6248"/></g></g></svg><svg x="286" y="1567" height="9%" width="9%" viewBox="0 0 330 330"><g><a xlink:href="https://nftpuzzle.license-token.com/" class="links"><title>See the most innovative NFT based token software licensing project</title><path fill="#E4CF37" id="more" d="M165,0C74.019,0,0,74.019,0,165s74.019,165,165,165s165-74.019,165-165S255.981,0,165,0z M85,190 c-13.785,0-25-11.215-25-25s11.215-25,25-25s25,11.215,25,25S98.785,190,85,190z M165,190c-13.785,0-25-11.215-25-25 s11.215-25,25-25s25,11.215,25,25S178.785,190,165,190z M245,190c-13.785,0-25-11.215-25-25s11.215-25,25-25 c13.785,0,25,11.215,25,25S258.785,190,245,190z"></path></a></g></svg></svg></svg>