<svg version="1.1" xmlns="http://www.w3.org/2000/svg" xmlns:xlink="http://www.w3.org/1999/xlink" fill="transparent" x="0" y="0" width="350" height="350" preserveAspectRatio="xMinYMin slice"><style type="text/css">.links{fill:transparent;stroke: #E4CF37;}.links:hover{fill:#63D272; opacity:0.4;}</style><defs><g id="allt"><path id="t625" d="M3498,128 L3487,128 C3477,128 3491,131 3481,131 C3472,131 3483,128 3474,128 L3465,128 3465,128 L3464,138 C3464,149 3469,134 3468,144 C3467,154 3465,138 3465,149 L3465,160 3465,160 L3476,159 C3487,159 3471,164 3481,163 C3492,162 3476,160 3487,160 L3498,160 3498,160 L3498,150 C3498,141 3495,153 3495,145 C3495,137 3499,148 3498,138 L3498,128"/></g><clipPath id="c" clipRule="evenodd" fill="transparent"><use href="#t625"/></clipPath></defs><svg viewBox="3463 127 37 38" preserveAspectRatio="xMinYMin meet"><svg width="4380" height="2430"><g><image crossorigin="anonymous" x="0" y="0" href="https://nftpuzzle.license-token.com/assets/completepuzzle.svg" width="100%" height="100%" /><g class="links"><use href="#t625"/></g></g></svg><svg x="3485" y="150" height="9%" width="9%" viewBox="0 0 330 330"><g><a xlink:href="https://nftpuzzle.license-token.com/" class="links"><title>See the most innovative NFT based token software licensing project</title><path fill="#E4CF37" id="more" d="M165,0C74.019,0,0,74.019,0,165s74.019,165,165,165s165-74.019,165-165S255.981,0,165,0z M85,190 c-13.785,0-25-11.215-25-25s11.215-25,25-25s25,11.215,25,25S98.785,190,85,190z M165,190c-13.785,0-25-11.215-25-25 s11.215-25,25-25s25,11.215,25,25S178.785,190,165,190z M245,190c-13.785,0-25-11.215-25-25s11.215-25,25-25 c13.785,0,25,11.215,25,25S258.785,190,245,190z"></path></a></g></svg></svg></svg>