<svg version="1.1" xmlns="http://www.w3.org/2000/svg" xmlns:xlink="http://www.w3.org/1999/xlink" fill="transparent" x="0" y="0" width="350" height="350" preserveAspectRatio="xMinYMin slice"><style type="text/css">.links{fill:transparent;stroke: #E4CF37;}.links:hover{fill:#63D272; opacity:0.4;}</style><defs><g id="allt"><path id="t6255" d="M528,1536 L517,1537 C507,1538 519,1532 510,1531 C502,1530 513,1536 504,1536 L495,1536 495,1536 L495,1544 C495,1553 490,1542 489,1550 C489,1558 495,1549 495,1558 L495,1568 495,1568 L504,1568 C513,1568 501,1563 509,1562 C518,1562 508,1568 518,1568 L528,1568 528,1568 L528,1558 C528,1548 538,1562 536,1551 C535,1541 525,1555 526,1545 L528,1536"/></g><clipPath id="c" clipRule="evenodd" fill="transparent"><use href="#t6255"/></clipPath></defs><svg viewBox="488 1529 51 40" preserveAspectRatio="xMinYMin meet"><svg width="4380" height="2430"><g><image crossorigin="anonymous" x="0" y="0" href="https://nftpuzzle.license-token.com/assets/completepuzzle.svg" width="100%" height="100%" /><g class="links"><use href="#t6255"/></g></g></svg><svg x="524" y="1554" height="9%" width="9%" viewBox="0 0 330 330"><g><a xlink:href="https://nftpuzzle.license-token.com/" class="links"><title>See the most innovative NFT based token software licensing project</title><path fill="#E4CF37" id="more" d="M165,0C74.019,0,0,74.019,0,165s74.019,165,165,165s165-74.019,165-165S255.981,0,165,0z M85,190 c-13.785,0-25-11.215-25-25s11.215-25,25-25s25,11.215,25,25S98.785,190,85,190z M165,190c-13.785,0-25-11.215-25-25 s11.215-25,25-25s25,11.215,25,25S178.785,190,165,190z M245,190c-13.785,0-25-11.215-25-25s11.215-25,25-25 c13.785,0,25,11.215,25,25S258.785,190,245,190z"></path></a></g></svg></svg></svg>