<svg version="1.1" xmlns="http://www.w3.org/2000/svg" xmlns:xlink="http://www.w3.org/1999/xlink" fill="transparent" x="0" y="0" width="350" height="350" preserveAspectRatio="xMinYMin slice"><style type="text/css">.links{fill:transparent;stroke: #E4CF37;}.links:hover{fill:#63D272; opacity:0.4;}</style><defs><g id="allt"><path id="t6258" d="M627,1536 L616,1536 C606,1536 619,1542 610,1542 C601,1542 616,1535 605,1535 L594,1536 594,1536 L595,1545 C596,1555 585,1541 587,1551 C589,1561 594,1547 594,1557 L594,1568 594,1568 L604,1569 C614,1570 599,1559 609,1561 C620,1563 605,1568 616,1568 L627,1568 627,1568 L626,1558 C625,1548 634,1559 633,1550 C632,1542 623,1556 625,1546 L627,1536"/></g><clipPath id="c" clipRule="evenodd" fill="transparent"><use href="#t6258"/></clipPath></defs><svg viewBox="584 1534 51 37" preserveAspectRatio="xMinYMin meet"><svg width="4380" height="2430"><g><image crossorigin="anonymous" x="0" y="0" href="https://nftpuzzle.license-token.com/assets/completepuzzle.svg" width="100%" height="100%" /><g class="links"><use href="#t6258"/></g></g></svg><svg x="620" y="1556" height="9%" width="9%" viewBox="0 0 330 330"><g><a xlink:href="https://nftpuzzle.license-token.com/" class="links"><title>See the most innovative NFT based token software licensing project</title><path fill="#E4CF37" id="more" d="M165,0C74.019,0,0,74.019,0,165s74.019,165,165,165s165-74.019,165-165S255.981,0,165,0z M85,190 c-13.785,0-25-11.215-25-25s11.215-25,25-25s25,11.215,25,25S98.785,190,85,190z M165,190c-13.785,0-25-11.215-25-25 s11.215-25,25-25s25,11.215,25,25S178.785,190,165,190z M245,190c-13.785,0-25-11.215-25-25s11.215-25,25-25 c13.785,0,25,11.215,25,25S258.785,190,245,190z"></path></a></g></svg></svg></svg>