<svg version="1.1" xmlns="http://www.w3.org/2000/svg" xmlns:xlink="http://www.w3.org/1999/xlink" fill="transparent" x="0" y="0" width="350" height="350" preserveAspectRatio="xMinYMin slice"><style type="text/css">.links{fill:transparent;stroke: #E4CF37;}.links:hover{fill:#63D272; opacity:0.4;}</style><defs><g id="allt"><path id="t6260" d="M693,1536 L683,1536 C673,1536 687,1543 676,1543 C666,1544 678,1534 669,1535 L660,1536 660,1536 L660,1545 C660,1555 663,1545 663,1553 C664,1562 659,1548 659,1558 L660,1568 660,1568 L670,1568 C680,1568 669,1571 678,1571 C687,1572 673,1567 683,1567 L693,1568 693,1568 L693,1557 C693,1547 701,1562 700,1552 C699,1542 692,1554 692,1545 L693,1536"/></g><clipPath id="c" clipRule="evenodd" fill="transparent"><use href="#t6260"/></clipPath></defs><svg viewBox="658 1533 44 40" preserveAspectRatio="xMinYMin meet"><svg width="4380" height="2430"><g><image crossorigin="anonymous" x="0" y="0" href="https://nftpuzzle.license-token.com/assets/completepuzzle.svg" width="100%" height="100%" /><g class="links"><use href="#t6260"/></g></g></svg><svg x="687" y="1558" height="9%" width="9%" viewBox="0 0 330 330"><g><a xlink:href="https://nftpuzzle.license-token.com/" class="links"><title>See the most innovative NFT based token software licensing project</title><path fill="#E4CF37" id="more" d="M165,0C74.019,0,0,74.019,0,165s74.019,165,165,165s165-74.019,165-165S255.981,0,165,0z M85,190 c-13.785,0-25-11.215-25-25s11.215-25,25-25s25,11.215,25,25S98.785,190,85,190z M165,190c-13.785,0-25-11.215-25-25 s11.215-25,25-25s25,11.215,25,25S178.785,190,165,190z M245,190c-13.785,0-25-11.215-25-25s11.215-25,25-25 c13.785,0,25,11.215,25,25S258.785,190,245,190z"></path></a></g></svg></svg></svg>