<svg version="1.1" xmlns="http://www.w3.org/2000/svg" xmlns:xlink="http://www.w3.org/1999/xlink" fill="transparent" x="0" y="0" width="350" height="350" preserveAspectRatio="xMinYMin slice"><style type="text/css">.links{fill:transparent;stroke: #E4CF37;}.links:hover{fill:#63D272; opacity:0.4;}</style><defs><g id="allt"><path id="t6278" d="M1287,1536 L1276,1536 C1265,1536 1280,1545 1270,1543 C1261,1541 1274,1534 1264,1535 L1254,1536 1254,1536 L1252,1544 C1251,1553 1264,1543 1263,1551 C1263,1559 1254,1546 1254,1557 L1254,1568 1254,1568 L1263,1566 C1272,1565 1261,1577 1269,1577 C1278,1577 1264,1568 1275,1568 L1287,1568 1287,1568 L1287,1557 C1287,1546 1278,1558 1279,1551 C1281,1545 1290,1553 1288,1544 L1287,1536"/></g><clipPath id="c" clipRule="evenodd" fill="transparent"><use href="#t6278"/></clipPath></defs><svg viewBox="1250 1533 41 45" preserveAspectRatio="xMinYMin meet"><svg width="4380" height="2430"><g><image crossorigin="anonymous" x="0" y="0" href="https://nftpuzzle.license-token.com/assets/completepuzzle.svg" width="100%" height="100%" /><g class="links"><use href="#t6278"/></g></g></svg><svg x="1276" y="1563" height="9%" width="9%" viewBox="0 0 330 330"><g><a xlink:href="https://nftpuzzle.license-token.com/" class="links"><title>See the most innovative NFT based token software licensing project</title><path fill="#E4CF37" id="more" d="M165,0C74.019,0,0,74.019,0,165s74.019,165,165,165s165-74.019,165-165S255.981,0,165,0z M85,190 c-13.785,0-25-11.215-25-25s11.215-25,25-25s25,11.215,25,25S98.785,190,85,190z M165,190c-13.785,0-25-11.215-25-25 s11.215-25,25-25s25,11.215,25,25S178.785,190,165,190z M245,190c-13.785,0-25-11.215-25-25s11.215-25,25-25 c13.785,0,25,11.215,25,25S258.785,190,245,190z"></path></a></g></svg></svg></svg>