<svg version="1.1" xmlns="http://www.w3.org/2000/svg" xmlns:xlink="http://www.w3.org/1999/xlink" fill="transparent" x="0" y="0" width="350" height="350" preserveAspectRatio="xMinYMin slice"><style type="text/css">.links{fill:transparent;stroke: #E4CF37;}.links:hover{fill:#63D272; opacity:0.4;}</style><defs><g id="allt"><path id="t6282" d="M1419,1536 L1409,1537 C1399,1538 1412,1528 1403,1529 C1394,1530 1408,1536 1397,1536 L1386,1536 1386,1536 L1386,1546 C1386,1556 1396,1545 1394,1554 C1392,1563 1383,1548 1384,1558 L1386,1568 1386,1568 L1396,1568 C1406,1568 1395,1578 1404,1576 C1414,1574 1398,1565 1408,1566 L1419,1568 1419,1568 L1419,1558 C1419,1549 1425,1559 1424,1551 C1423,1544 1419,1553 1419,1544 L1419,1536"/></g><clipPath id="c" clipRule="evenodd" fill="transparent"><use href="#t6282"/></clipPath></defs><svg viewBox="1382 1527 44 52" preserveAspectRatio="xMinYMin meet"><svg width="4380" height="2430"><g><image crossorigin="anonymous" x="0" y="0" href="https://nftpuzzle.license-token.com/assets/completepuzzle.svg" width="100%" height="100%" /><g class="links"><use href="#t6282"/></g></g></svg><svg x="1411" y="1564" height="9%" width="9%" viewBox="0 0 330 330"><g><a xlink:href="https://nftpuzzle.license-token.com/" class="links"><title>See the most innovative NFT based token software licensing project</title><path fill="#E4CF37" id="more" d="M165,0C74.019,0,0,74.019,0,165s74.019,165,165,165s165-74.019,165-165S255.981,0,165,0z M85,190 c-13.785,0-25-11.215-25-25s11.215-25,25-25s25,11.215,25,25S98.785,190,85,190z M165,190c-13.785,0-25-11.215-25-25 s11.215-25,25-25s25,11.215,25,25S178.785,190,165,190z M245,190c-13.785,0-25-11.215-25-25s11.215-25,25-25 c13.785,0,25,11.215,25,25S258.785,190,245,190z"></path></a></g></svg></svg></svg>