<svg version="1.1" xmlns="http://www.w3.org/2000/svg" xmlns:xlink="http://www.w3.org/1999/xlink" fill="transparent" x="0" y="0" width="350" height="350" preserveAspectRatio="xMinYMin slice"><style type="text/css">.links{fill:transparent;stroke: #E4CF37;}.links:hover{fill:#63D272; opacity:0.4;}</style><defs><g id="allt"><path id="t6287" d="M1584,1536 L1572,1537 C1561,1539 1577,1524 1568,1524 C1560,1524 1573,1538 1562,1537 L1551,1536 1551,1536 L1551,1544 C1552,1553 1543,1540 1543,1550 C1543,1560 1552,1550 1551,1559 L1551,1568 1551,1568 L1560,1568 C1569,1569 1555,1560 1565,1560 C1576,1560 1565,1569 1574,1568 L1584,1568 1584,1568 L1584,1558 C1584,1549 1579,1560 1578,1550 C1577,1541 1584,1553 1584,1544 L1584,1536"/></g><clipPath id="c" clipRule="evenodd" fill="transparent"><use href="#t6287"/></clipPath></defs><svg viewBox="1542 1523 43 47" preserveAspectRatio="xMinYMin meet"><svg width="4380" height="2430"><g><image crossorigin="anonymous" x="0" y="0" href="https://nftpuzzle.license-token.com/assets/completepuzzle.svg" width="100%" height="100%" /><g class="links"><use href="#t6287"/></g></g></svg><svg x="1570" y="1555" height="9%" width="9%" viewBox="0 0 330 330"><g><a xlink:href="https://nftpuzzle.license-token.com/" class="links"><title>See the most innovative NFT based token software licensing project</title><path fill="#E4CF37" id="more" d="M165,0C74.019,0,0,74.019,0,165s74.019,165,165,165s165-74.019,165-165S255.981,0,165,0z M85,190 c-13.785,0-25-11.215-25-25s11.215-25,25-25s25,11.215,25,25S98.785,190,85,190z M165,190c-13.785,0-25-11.215-25-25 s11.215-25,25-25s25,11.215,25,25S178.785,190,165,190z M245,190c-13.785,0-25-11.215-25-25s11.215-25,25-25 c13.785,0,25,11.215,25,25S258.785,190,245,190z"></path></a></g></svg></svg></svg>