<svg version="1.1" xmlns="http://www.w3.org/2000/svg" xmlns:xlink="http://www.w3.org/1999/xlink" fill="transparent" x="0" y="0" width="350" height="350" preserveAspectRatio="xMinYMin slice"><style type="text/css">.links{fill:transparent;stroke: #E4CF37;}.links:hover{fill:#63D272; opacity:0.4;}</style><defs><g id="allt"><path id="t6289" d="M1650,1536 L1639,1536 C1628,1536 1645,1531 1634,1532 C1624,1534 1638,1536 1627,1536 L1617,1536 1617,1536 L1616,1545 C1616,1554 1624,1545 1625,1553 C1627,1561 1616,1549 1616,1558 L1617,1568 1617,1568 L1626,1567 C1636,1567 1626,1575 1634,1576 C1643,1577 1630,1567 1640,1567 L1650,1568 1650,1568 L1650,1557 C1650,1546 1640,1561 1641,1551 C1642,1541 1650,1555 1650,1545 L1650,1536"/></g><clipPath id="c" clipRule="evenodd" fill="transparent"><use href="#t6289"/></clipPath></defs><svg viewBox="1615 1530 36 48" preserveAspectRatio="xMinYMin meet"><svg width="4380" height="2430"><g><image crossorigin="anonymous" x="0" y="0" href="https://nftpuzzle.license-token.com/assets/completepuzzle.svg" width="100%" height="100%" /><g class="links"><use href="#t6289"/></g></g></svg><svg x="1636" y="1563" height="9%" width="9%" viewBox="0 0 330 330"><g><a xlink:href="https://nftpuzzle.license-token.com/" class="links"><title>See the most innovative NFT based token software licensing project</title><path fill="#E4CF37" id="more" d="M165,0C74.019,0,0,74.019,0,165s74.019,165,165,165s165-74.019,165-165S255.981,0,165,0z M85,190 c-13.785,0-25-11.215-25-25s11.215-25,25-25s25,11.215,25,25S98.785,190,85,190z M165,190c-13.785,0-25-11.215-25-25 s11.215-25,25-25s25,11.215,25,25S178.785,190,165,190z M245,190c-13.785,0-25-11.215-25-25s11.215-25,25-25 c13.785,0,25,11.215,25,25S258.785,190,245,190z"></path></a></g></svg></svg></svg>