<svg version="1.1" xmlns="http://www.w3.org/2000/svg" xmlns:xlink="http://www.w3.org/1999/xlink" fill="transparent" x="0" y="0" width="350" height="350" preserveAspectRatio="xMinYMin slice"><style type="text/css">.links{fill:transparent;stroke: #E4CF37;}.links:hover{fill:#63D272; opacity:0.4;}</style><defs><g id="allt"><path id="t6294" d="M1815,1536 L1804,1538 C1794,1540 1806,1526 1797,1524 C1789,1523 1800,1537 1791,1536 L1782,1536 1782,1536 L1782,1544 C1783,1553 1778,1542 1778,1550 C1778,1558 1782,1546 1782,1557 L1782,1568 1782,1568 L1791,1568 C1800,1569 1788,1564 1796,1564 C1805,1564 1793,1568 1804,1568 L1815,1568 1815,1568 L1815,1558 C1815,1548 1826,1562 1826,1553 C1827,1545 1810,1555 1812,1545 L1815,1536"/></g><clipPath id="c" clipRule="evenodd" fill="transparent"><use href="#t6294"/></clipPath></defs><svg viewBox="1777 1522 51 48" preserveAspectRatio="xMinYMin meet"><svg width="4380" height="2430"><g><image crossorigin="anonymous" x="0" y="0" href="https://nftpuzzle.license-token.com/assets/completepuzzle.svg" width="100%" height="100%" /><g class="links"><use href="#t6294"/></g></g></svg><svg x="1813" y="1555" height="9%" width="9%" viewBox="0 0 330 330"><g><a xlink:href="https://nftpuzzle.license-token.com/" class="links"><title>See the most innovative NFT based token software licensing project</title><path fill="#E4CF37" id="more" d="M165,0C74.019,0,0,74.019,0,165s74.019,165,165,165s165-74.019,165-165S255.981,0,165,0z M85,190 c-13.785,0-25-11.215-25-25s11.215-25,25-25s25,11.215,25,25S98.785,190,85,190z M165,190c-13.785,0-25-11.215-25-25 s11.215-25,25-25s25,11.215,25,25S178.785,190,165,190z M245,190c-13.785,0-25-11.215-25-25s11.215-25,25-25 c13.785,0,25,11.215,25,25S258.785,190,245,190z"></path></a></g></svg></svg></svg>