<svg version="1.1" xmlns="http://www.w3.org/2000/svg" xmlns:xlink="http://www.w3.org/1999/xlink" fill="transparent" x="0" y="0" width="350" height="350" preserveAspectRatio="xMinYMin slice"><style type="text/css">.links{fill:transparent;stroke: #E4CF37;}.links:hover{fill:#63D272; opacity:0.4;}</style><defs><g id="allt"><path id="t6295" d="M1848,1536 L1838,1536 C1828,1536 1840,1530 1831,1530 C1822,1531 1836,1536 1825,1536 L1815,1536 1815,1536 L1812,1545 C1810,1555 1827,1545 1826,1553 C1826,1562 1815,1548 1815,1558 L1815,1568 1815,1568 L1825,1565 C1835,1563 1824,1580 1833,1579 C1842,1579 1827,1568 1837,1568 L1848,1568 1848,1568 L1848,1558 C1848,1549 1853,1560 1855,1550 C1857,1540 1847,1554 1847,1545 L1848,1536"/></g><clipPath id="c" clipRule="evenodd" fill="transparent"><use href="#t6295"/></clipPath></defs><svg viewBox="1809 1529 49 52" preserveAspectRatio="xMinYMin meet"><svg width="4380" height="2430"><g><image crossorigin="anonymous" x="0" y="0" href="https://nftpuzzle.license-token.com/assets/completepuzzle.svg" width="100%" height="100%" /><g class="links"><use href="#t6295"/></g></g></svg><svg x="1843" y="1566" height="9%" width="9%" viewBox="0 0 330 330"><g><a xlink:href="https://nftpuzzle.license-token.com/" class="links"><title>See the most innovative NFT based token software licensing project</title><path fill="#E4CF37" id="more" d="M165,0C74.019,0,0,74.019,0,165s74.019,165,165,165s165-74.019,165-165S255.981,0,165,0z M85,190 c-13.785,0-25-11.215-25-25s11.215-25,25-25s25,11.215,25,25S98.785,190,85,190z M165,190c-13.785,0-25-11.215-25-25 s11.215-25,25-25s25,11.215,25,25S178.785,190,165,190z M245,190c-13.785,0-25-11.215-25-25s11.215-25,25-25 c13.785,0,25,11.215,25,25S258.785,190,245,190z"></path></a></g></svg></svg></svg>