<svg version="1.1" xmlns="http://www.w3.org/2000/svg" xmlns:xlink="http://www.w3.org/1999/xlink" fill="transparent" x="0" y="0" width="350" height="350" preserveAspectRatio="xMinYMin slice"><style type="text/css">.links{fill:transparent;stroke: #E4CF37;}.links:hover{fill:#63D272; opacity:0.4;}</style><defs><g id="allt"><path id="t6296" d="M1881,1536 L1871,1538 C1862,1540 1873,1528 1862,1529 C1852,1531 1869,1538 1858,1537 L1848,1536 1848,1536 L1847,1545 C1847,1554 1857,1540 1855,1550 C1853,1560 1848,1549 1848,1558 L1848,1568 1848,1568 L1857,1567 C1867,1567 1852,1576 1862,1574 C1873,1573 1862,1568 1871,1568 L1881,1568 1881,1568 L1883,1559 C1886,1550 1871,1560 1873,1551 C1876,1543 1885,1557 1883,1546 L1881,1536"/></g><clipPath id="c" clipRule="evenodd" fill="transparent"><use href="#t6296"/></clipPath></defs><svg viewBox="1846 1527 41 50" preserveAspectRatio="xMinYMin meet"><svg width="4380" height="2430"><g><image crossorigin="anonymous" x="0" y="0" href="https://nftpuzzle.license-token.com/assets/completepuzzle.svg" width="100%" height="100%" /><g class="links"><use href="#t6296"/></g></g></svg><svg x="1872" y="1562" height="9%" width="9%" viewBox="0 0 330 330"><g><a xlink:href="https://nftpuzzle.license-token.com/" class="links"><title>See the most innovative NFT based token software licensing project</title><path fill="#E4CF37" id="more" d="M165,0C74.019,0,0,74.019,0,165s74.019,165,165,165s165-74.019,165-165S255.981,0,165,0z M85,190 c-13.785,0-25-11.215-25-25s11.215-25,25-25s25,11.215,25,25S98.785,190,85,190z M165,190c-13.785,0-25-11.215-25-25 s11.215-25,25-25s25,11.215,25,25S178.785,190,165,190z M245,190c-13.785,0-25-11.215-25-25s11.215-25,25-25 c13.785,0,25,11.215,25,25S258.785,190,245,190z"></path></a></g></svg></svg></svg>