<svg version="1.1" xmlns="http://www.w3.org/2000/svg" xmlns:xlink="http://www.w3.org/1999/xlink" fill="transparent" x="0" y="0" width="350" height="350" preserveAspectRatio="xMinYMin slice"><style type="text/css">.links{fill:transparent;stroke: #E4CF37;}.links:hover{fill:#63D272; opacity:0.4;}</style><defs><g id="allt"><path id="t630" d="M3663,128 L3653,128 C3643,129 3653,122 3646,122 C3639,123 3648,129 3639,128 L3630,128 3630,128 L3631,137 C3632,147 3623,136 3624,143 C3626,151 3632,140 3631,150 L3630,160 3630,160 L3639,161 C3649,162 3638,153 3646,154 C3654,156 3643,162 3653,161 L3663,160 3663,160 L3664,150 C3665,141 3657,154 3657,145 C3657,137 3666,147 3664,137 L3663,128"/></g><clipPath id="c" clipRule="evenodd" fill="transparent"><use href="#t630"/></clipPath></defs><svg viewBox="3622 121 45 42" preserveAspectRatio="xMinYMin meet"><svg width="4380" height="2430"><g><image crossorigin="anonymous" x="0" y="0" href="https://nftpuzzle.license-token.com/assets/completepuzzle.svg" width="100%" height="100%" /><g class="links"><use href="#t630"/></g></g></svg><svg x="3652" y="148" height="9%" width="9%" viewBox="0 0 330 330"><g><a xlink:href="https://nftpuzzle.license-token.com/" class="links"><title>See the most innovative NFT based token software licensing project</title><path fill="#E4CF37" id="more" d="M165,0C74.019,0,0,74.019,0,165s74.019,165,165,165s165-74.019,165-165S255.981,0,165,0z M85,190 c-13.785,0-25-11.215-25-25s11.215-25,25-25s25,11.215,25,25S98.785,190,85,190z M165,190c-13.785,0-25-11.215-25-25 s11.215-25,25-25s25,11.215,25,25S178.785,190,165,190z M245,190c-13.785,0-25-11.215-25-25s11.215-25,25-25 c13.785,0,25,11.215,25,25S258.785,190,245,190z"></path></a></g></svg></svg></svg>