<svg version="1.1" xmlns="http://www.w3.org/2000/svg" xmlns:xlink="http://www.w3.org/1999/xlink" fill="transparent" x="0" y="0" width="350" height="350" preserveAspectRatio="xMinYMin slice"><style type="text/css">.links{fill:transparent;stroke: #E4CF37;}.links:hover{fill:#63D272; opacity:0.4;}</style><defs><g id="allt"><path id="t6302" d="M2079,1536 L2069,1536 C2060,1536 2070,1528 2062,1527 C2054,1526 2066,1540 2056,1538 L2046,1536 2046,1536 L2046,1544 C2046,1553 2038,1542 2037,1550 C2036,1558 2050,1548 2048,1558 L2046,1568 2046,1568 L2055,1568 C2064,1568 2052,1560 2060,1559 C2069,1558 2058,1572 2068,1570 L2079,1568 2079,1568 L2079,1557 C2079,1547 2087,1561 2088,1551 C2090,1542 2079,1555 2079,1545 L2079,1536"/></g><clipPath id="c" clipRule="evenodd" fill="transparent"><use href="#t6302"/></clipPath></defs><svg viewBox="2035 1525 56 48" preserveAspectRatio="xMinYMin meet"><svg width="4380" height="2430"><g><image crossorigin="anonymous" x="0" y="0" href="https://nftpuzzle.license-token.com/assets/completepuzzle.svg" width="100%" height="100%" /><g class="links"><use href="#t6302"/></g></g></svg><svg x="2076" y="1558" height="9%" width="9%" viewBox="0 0 330 330"><g><a xlink:href="https://nftpuzzle.license-token.com/" class="links"><title>See the most innovative NFT based token software licensing project</title><path fill="#E4CF37" id="more" d="M165,0C74.019,0,0,74.019,0,165s74.019,165,165,165s165-74.019,165-165S255.981,0,165,0z M85,190 c-13.785,0-25-11.215-25-25s11.215-25,25-25s25,11.215,25,25S98.785,190,85,190z M165,190c-13.785,0-25-11.215-25-25 s11.215-25,25-25s25,11.215,25,25S178.785,190,165,190z M245,190c-13.785,0-25-11.215-25-25s11.215-25,25-25 c13.785,0,25,11.215,25,25S258.785,190,245,190z"></path></a></g></svg></svg></svg>