<svg version="1.1" xmlns="http://www.w3.org/2000/svg" xmlns:xlink="http://www.w3.org/1999/xlink" fill="transparent" x="0" y="0" width="350" height="350" preserveAspectRatio="xMinYMin slice"><style type="text/css">.links{fill:transparent;stroke: #E4CF37;}.links:hover{fill:#63D272; opacity:0.4;}</style><defs><g id="allt"><path id="t6303" d="M2112,1536 L2102,1536 C2092,1536 2105,1528 2096,1528 C2088,1529 2099,1537 2089,1536 L2079,1536 2079,1536 L2079,1545 C2079,1555 2090,1542 2088,1551 C2087,1561 2079,1547 2079,1557 L2079,1568 2079,1568 L2088,1568 C2098,1568 2085,1579 2095,1577 C2105,1576 2091,1568 2101,1568 L2112,1568 2112,1568 L2112,1559 C2112,1550 2110,1561 2109,1551 C2108,1542 2114,1555 2113,1545 L2112,1536"/></g><clipPath id="c" clipRule="evenodd" fill="transparent"><use href="#t6303"/></clipPath></defs><svg viewBox="2078 1527 37 53" preserveAspectRatio="xMinYMin meet"><svg width="4380" height="2430"><g><image crossorigin="anonymous" x="0" y="0" href="https://nftpuzzle.license-token.com/assets/completepuzzle.svg" width="100%" height="100%" /><g class="links"><use href="#t6303"/></g></g></svg><svg x="2100" y="1565" height="9%" width="9%" viewBox="0 0 330 330"><g><a xlink:href="https://nftpuzzle.license-token.com/" class="links"><title>See the most innovative NFT based token software licensing project</title><path fill="#E4CF37" id="more" d="M165,0C74.019,0,0,74.019,0,165s74.019,165,165,165s165-74.019,165-165S255.981,0,165,0z M85,190 c-13.785,0-25-11.215-25-25s11.215-25,25-25s25,11.215,25,25S98.785,190,85,190z M165,190c-13.785,0-25-11.215-25-25 s11.215-25,25-25s25,11.215,25,25S178.785,190,165,190z M245,190c-13.785,0-25-11.215-25-25s11.215-25,25-25 c13.785,0,25,11.215,25,25S258.785,190,245,190z"></path></a></g></svg></svg></svg>