<svg version="1.1" xmlns="http://www.w3.org/2000/svg" xmlns:xlink="http://www.w3.org/1999/xlink" fill="transparent" x="0" y="0" width="350" height="350" preserveAspectRatio="xMinYMin slice"><style type="text/css">.links{fill:transparent;stroke: #E4CF37;}.links:hover{fill:#63D272; opacity:0.4;}</style><defs><g id="allt"><path id="t6304" d="M2145,1536 L2135,1536 C2125,1536 2137,1543 2129,1544 C2121,1546 2132,1531 2122,1533 L2112,1536 2112,1536 L2113,1545 C2114,1555 2108,1542 2109,1551 C2110,1561 2112,1550 2112,1559 L2112,1568 2112,1568 L2122,1569 C2132,1570 2118,1564 2128,1565 C2138,1566 2126,1568 2135,1568 L2145,1568 2145,1568 L2146,1558 C2148,1548 2139,1558 2136,1549 C2134,1541 2149,1554 2147,1545 L2145,1536"/></g><clipPath id="c" clipRule="evenodd" fill="transparent"><use href="#t6304"/></clipPath></defs><svg viewBox="2107 1530 43 41" preserveAspectRatio="xMinYMin meet"><svg width="4380" height="2430"><g><image crossorigin="anonymous" x="0" y="0" href="https://nftpuzzle.license-token.com/assets/completepuzzle.svg" width="100%" height="100%" /><g class="links"><use href="#t6304"/></g></g></svg><svg x="2135" y="1556" height="9%" width="9%" viewBox="0 0 330 330"><g><a xlink:href="https://nftpuzzle.license-token.com/" class="links"><title>See the most innovative NFT based token software licensing project</title><path fill="#E4CF37" id="more" d="M165,0C74.019,0,0,74.019,0,165s74.019,165,165,165s165-74.019,165-165S255.981,0,165,0z M85,190 c-13.785,0-25-11.215-25-25s11.215-25,25-25s25,11.215,25,25S98.785,190,85,190z M165,190c-13.785,0-25-11.215-25-25 s11.215-25,25-25s25,11.215,25,25S178.785,190,165,190z M245,190c-13.785,0-25-11.215-25-25s11.215-25,25-25 c13.785,0,25,11.215,25,25S258.785,190,245,190z"></path></a></g></svg></svg></svg>