<svg version="1.1" xmlns="http://www.w3.org/2000/svg" xmlns:xlink="http://www.w3.org/1999/xlink" fill="transparent" x="0" y="0" width="350" height="350" preserveAspectRatio="xMinYMin slice"><style type="text/css">.links{fill:transparent;stroke: #E4CF37;}.links:hover{fill:#63D272; opacity:0.4;}</style><defs><g id="allt"><path id="t6306" d="M2211,1536 L2201,1536 C2192,1536 2203,1530 2194,1531 C2185,1533 2198,1538 2188,1537 L2178,1536 2178,1536 L2178,1546 C2179,1556 2174,1543 2174,1551 C2174,1559 2178,1547 2178,1557 L2178,1568 2178,1568 L2188,1568 C2199,1569 2185,1564 2193,1564 C2202,1564 2189,1568 2200,1568 L2211,1568 2211,1568 L2211,1559 C2211,1550 2222,1559 2223,1551 C2224,1543 2207,1555 2209,1545 L2211,1536"/></g><clipPath id="c" clipRule="evenodd" fill="transparent"><use href="#t6306"/></clipPath></defs><svg viewBox="2173 1529 52 41" preserveAspectRatio="xMinYMin meet"><svg width="4380" height="2430"><g><image crossorigin="anonymous" x="0" y="0" href="https://nftpuzzle.license-token.com/assets/completepuzzle.svg" width="100%" height="100%" /><g class="links"><use href="#t6306"/></g></g></svg><svg x="2210" y="1555" height="9%" width="9%" viewBox="0 0 330 330"><g><a xlink:href="https://nftpuzzle.license-token.com/" class="links"><title>See the most innovative NFT based token software licensing project</title><path fill="#E4CF37" id="more" d="M165,0C74.019,0,0,74.019,0,165s74.019,165,165,165s165-74.019,165-165S255.981,0,165,0z M85,190 c-13.785,0-25-11.215-25-25s11.215-25,25-25s25,11.215,25,25S98.785,190,85,190z M165,190c-13.785,0-25-11.215-25-25 s11.215-25,25-25s25,11.215,25,25S178.785,190,165,190z M245,190c-13.785,0-25-11.215-25-25s11.215-25,25-25 c13.785,0,25,11.215,25,25S258.785,190,245,190z"></path></a></g></svg></svg></svg>