<svg version="1.1" xmlns="http://www.w3.org/2000/svg" xmlns:xlink="http://www.w3.org/1999/xlink" fill="transparent" x="0" y="0" width="350" height="350" preserveAspectRatio="xMinYMin slice"><style type="text/css">.links{fill:transparent;stroke: #E4CF37;}.links:hover{fill:#63D272; opacity:0.4;}</style><defs><g id="allt"><path id="t6307" d="M2244,1536 L2234,1535 C2225,1534 2237,1542 2228,1542 C2219,1543 2232,1533 2221,1534 L2211,1536 2211,1536 L2209,1545 C2207,1555 2224,1543 2223,1551 C2222,1559 2211,1550 2211,1559 L2211,1568 2211,1568 L2220,1566 C2230,1564 2218,1580 2226,1579 C2234,1578 2225,1568 2234,1568 L2244,1568 2244,1568 L2244,1558 C2245,1549 2239,1561 2238,1551 C2237,1541 2245,1555 2244,1545 L2244,1536"/></g><clipPath id="c" clipRule="evenodd" fill="transparent"><use href="#t6307"/></clipPath></defs><svg viewBox="2206 1532 40 49" preserveAspectRatio="xMinYMin meet"><svg width="4380" height="2430"><g><image crossorigin="anonymous" x="0" y="0" href="https://nftpuzzle.license-token.com/assets/completepuzzle.svg" width="100%" height="100%" /><g class="links"><use href="#t6307"/></g></g></svg><svg x="2231" y="1566" height="9%" width="9%" viewBox="0 0 330 330"><g><a xlink:href="https://nftpuzzle.license-token.com/" class="links"><title>See the most innovative NFT based token software licensing project</title><path fill="#E4CF37" id="more" d="M165,0C74.019,0,0,74.019,0,165s74.019,165,165,165s165-74.019,165-165S255.981,0,165,0z M85,190 c-13.785,0-25-11.215-25-25s11.215-25,25-25s25,11.215,25,25S98.785,190,85,190z M165,190c-13.785,0-25-11.215-25-25 s11.215-25,25-25s25,11.215,25,25S178.785,190,165,190z M245,190c-13.785,0-25-11.215-25-25s11.215-25,25-25 c13.785,0,25,11.215,25,25S258.785,190,245,190z"></path></a></g></svg></svg></svg>