<svg version="1.1" xmlns="http://www.w3.org/2000/svg" xmlns:xlink="http://www.w3.org/1999/xlink" fill="transparent" x="0" y="0" width="350" height="350" preserveAspectRatio="xMinYMin slice"><style type="text/css">.links{fill:transparent;stroke: #E4CF37;}.links:hover{fill:#63D272; opacity:0.4;}</style><defs><g id="allt"><path id="t6308" d="M2277,1536 L2267,1537 C2257,1538 2271,1531 2262,1530 C2253,1529 2263,1537 2253,1536 L2244,1536 2244,1536 L2244,1545 C2245,1555 2237,1541 2238,1551 C2239,1561 2245,1549 2244,1558 L2244,1568 2244,1568 L2253,1568 C2263,1569 2249,1561 2259,1562 C2270,1563 2257,1569 2267,1568 L2277,1568 2277,1568 L2277,1557 C2277,1547 2282,1559 2281,1550 C2281,1541 2277,1557 2277,1546 L2277,1536"/></g><clipPath id="c" clipRule="evenodd" fill="transparent"><use href="#t6308"/></clipPath></defs><svg viewBox="2236 1528 47 42" preserveAspectRatio="xMinYMin meet"><svg width="4380" height="2430"><g><image crossorigin="anonymous" x="0" y="0" href="https://nftpuzzle.license-token.com/assets/completepuzzle.svg" width="100%" height="100%" /><g class="links"><use href="#t6308"/></g></g></svg><svg x="2268" y="1555" height="9%" width="9%" viewBox="0 0 330 330"><g><a xlink:href="https://nftpuzzle.license-token.com/" class="links"><title>See the most innovative NFT based token software licensing project</title><path fill="#E4CF37" id="more" d="M165,0C74.019,0,0,74.019,0,165s74.019,165,165,165s165-74.019,165-165S255.981,0,165,0z M85,190 c-13.785,0-25-11.215-25-25s11.215-25,25-25s25,11.215,25,25S98.785,190,85,190z M165,190c-13.785,0-25-11.215-25-25 s11.215-25,25-25s25,11.215,25,25S178.785,190,165,190z M245,190c-13.785,0-25-11.215-25-25s11.215-25,25-25 c13.785,0,25,11.215,25,25S258.785,190,245,190z"></path></a></g></svg></svg></svg>