<svg version="1.1" xmlns="http://www.w3.org/2000/svg" xmlns:xlink="http://www.w3.org/1999/xlink" fill="transparent" x="0" y="0" width="350" height="350" preserveAspectRatio="xMinYMin slice"><style type="text/css">.links{fill:transparent;stroke: #E4CF37;}.links:hover{fill:#63D272; opacity:0.4;}</style><defs><g id="allt"><path id="t6310" d="M2343,1536 L2333,1536 C2324,1537 2337,1531 2325,1531 C2314,1532 2330,1538 2320,1537 L2310,1536 2310,1536 L2311,1546 C2313,1556 2304,1542 2305,1551 C2306,1561 2312,1548 2311,1558 L2310,1568 2310,1568 L2320,1569 C2331,1571 2316,1562 2326,1563 C2336,1564 2322,1570 2332,1569 L2343,1568 2343,1568 L2343,1558 C2343,1548 2353,1560 2353,1550 C2353,1541 2340,1555 2341,1545 L2343,1536"/></g><clipPath id="c" clipRule="evenodd" fill="transparent"><use href="#t6310"/></clipPath></defs><svg viewBox="2303 1530 51 42" preserveAspectRatio="xMinYMin meet"><svg width="4380" height="2430"><g><image crossorigin="anonymous" x="0" y="0" href="https://nftpuzzle.license-token.com/assets/completepuzzle.svg" width="100%" height="100%" /><g class="links"><use href="#t6310"/></g></g></svg><svg x="2339" y="1557" height="9%" width="9%" viewBox="0 0 330 330"><g><a xlink:href="https://nftpuzzle.license-token.com/" class="links"><title>See the most innovative NFT based token software licensing project</title><path fill="#E4CF37" id="more" d="M165,0C74.019,0,0,74.019,0,165s74.019,165,165,165s165-74.019,165-165S255.981,0,165,0z M85,190 c-13.785,0-25-11.215-25-25s11.215-25,25-25s25,11.215,25,25S98.785,190,85,190z M165,190c-13.785,0-25-11.215-25-25 s11.215-25,25-25s25,11.215,25,25S178.785,190,165,190z M245,190c-13.785,0-25-11.215-25-25s11.215-25,25-25 c13.785,0,25,11.215,25,25S258.785,190,245,190z"></path></a></g></svg></svg></svg>