<svg version="1.1" xmlns="http://www.w3.org/2000/svg" xmlns:xlink="http://www.w3.org/1999/xlink" fill="transparent" x="0" y="0" width="350" height="350" preserveAspectRatio="xMinYMin slice"><style type="text/css">.links{fill:transparent;stroke: #E4CF37;}.links:hover{fill:#63D272; opacity:0.4;}</style><defs><g id="allt"><path id="t6313" d="M2442,1536 L2431,1536 C2420,1536 2437,1541 2426,1542 C2416,1543 2430,1536 2419,1536 L2409,1536 2409,1536 L2408,1546 C2408,1556 2415,1544 2417,1551 C2419,1559 2407,1547 2408,1557 L2409,1568 2409,1568 L2419,1567 C2429,1567 2418,1574 2425,1576 C2433,1578 2421,1566 2431,1567 L2442,1568 2442,1568 L2442,1558 C2442,1549 2438,1560 2438,1552 C2438,1544 2443,1557 2442,1546 L2442,1536"/></g><clipPath id="c" clipRule="evenodd" fill="transparent"><use href="#t6313"/></clipPath></defs><svg viewBox="2406 1535 38 44" preserveAspectRatio="xMinYMin meet"><svg width="4380" height="2430"><g><image crossorigin="anonymous" x="0" y="0" href="https://nftpuzzle.license-token.com/assets/completepuzzle.svg" width="100%" height="100%" /><g class="links"><use href="#t6313"/></g></g></svg><svg x="2429" y="1564" height="9%" width="9%" viewBox="0 0 330 330"><g><a xlink:href="https://nftpuzzle.license-token.com/" class="links"><title>See the most innovative NFT based token software licensing project</title><path fill="#E4CF37" id="more" d="M165,0C74.019,0,0,74.019,0,165s74.019,165,165,165s165-74.019,165-165S255.981,0,165,0z M85,190 c-13.785,0-25-11.215-25-25s11.215-25,25-25s25,11.215,25,25S98.785,190,85,190z M165,190c-13.785,0-25-11.215-25-25 s11.215-25,25-25s25,11.215,25,25S178.785,190,165,190z M245,190c-13.785,0-25-11.215-25-25s11.215-25,25-25 c13.785,0,25,11.215,25,25S258.785,190,245,190z"></path></a></g></svg></svg></svg>