<svg version="1.1" xmlns="http://www.w3.org/2000/svg" xmlns:xlink="http://www.w3.org/1999/xlink" fill="transparent" x="0" y="0" width="350" height="350" preserveAspectRatio="xMinYMin slice"><style type="text/css">.links{fill:transparent;stroke: #E4CF37;}.links:hover{fill:#63D272; opacity:0.4;}</style><defs><g id="allt"><path id="t6323" d="M2772,1536 L2761,1536 C2750,1537 2765,1524 2756,1524 C2747,1525 2759,1538 2749,1537 L2739,1536 2739,1536 L2739,1545 C2739,1555 2730,1544 2730,1551 C2731,1559 2742,1548 2740,1558 L2739,1568 2739,1568 L2748,1568 C2758,1568 2747,1559 2755,1559 C2763,1560 2751,1571 2761,1569 L2772,1568 2772,1568 L2774,1557 C2776,1547 2761,1560 2763,1551 C2765,1542 2772,1555 2772,1545 L2772,1536"/></g><clipPath id="c" clipRule="evenodd" fill="transparent"><use href="#t6323"/></clipPath></defs><svg viewBox="2729 1523 48 49" preserveAspectRatio="xMinYMin meet"><svg width="4380" height="2430"><g><image crossorigin="anonymous" x="0" y="0" href="https://nftpuzzle.license-token.com/assets/completepuzzle.svg" width="100%" height="100%" /><g class="links"><use href="#t6323"/></g></g></svg><svg x="2762" y="1557" height="9%" width="9%" viewBox="0 0 330 330"><g><a xlink:href="https://nftpuzzle.license-token.com/" class="links"><title>See the most innovative NFT based token software licensing project</title><path fill="#E4CF37" id="more" d="M165,0C74.019,0,0,74.019,0,165s74.019,165,165,165s165-74.019,165-165S255.981,0,165,0z M85,190 c-13.785,0-25-11.215-25-25s11.215-25,25-25s25,11.215,25,25S98.785,190,85,190z M165,190c-13.785,0-25-11.215-25-25 s11.215-25,25-25s25,11.215,25,25S178.785,190,165,190z M245,190c-13.785,0-25-11.215-25-25s11.215-25,25-25 c13.785,0,25,11.215,25,25S258.785,190,245,190z"></path></a></g></svg></svg></svg>