<svg version="1.1" xmlns="http://www.w3.org/2000/svg" xmlns:xlink="http://www.w3.org/1999/xlink" fill="transparent" x="0" y="0" width="350" height="350" preserveAspectRatio="xMinYMin slice"><style type="text/css">.links{fill:transparent;stroke: #E4CF37;}.links:hover{fill:#63D272; opacity:0.4;}</style><defs><g id="allt"><path id="t6327" d="M2904,1536 L2893,1536 C2882,1536 2898,1532 2889,1533 C2880,1534 2890,1536 2880,1536 L2871,1536 2871,1536 L2872,1546 C2873,1556 2863,1543 2863,1551 C2864,1560 2871,1550 2871,1559 L2871,1568 2871,1568 L2881,1569 C2892,1570 2878,1560 2887,1560 C2896,1561 2885,1568 2894,1568 L2904,1568 2904,1568 L2903,1557 C2902,1547 2907,1563 2907,1552 C2908,1542 2903,1557 2903,1546 L2904,1536"/></g><clipPath id="c" clipRule="evenodd" fill="transparent"><use href="#t6327"/></clipPath></defs><svg viewBox="2862 1531 47 40" preserveAspectRatio="xMinYMin meet"><svg width="4380" height="2430"><g><image crossorigin="anonymous" x="0" y="0" href="https://nftpuzzle.license-token.com/assets/completepuzzle.svg" width="100%" height="100%" /><g class="links"><use href="#t6327"/></g></g></svg><svg x="2894" y="1556" height="9%" width="9%" viewBox="0 0 330 330"><g><a xlink:href="https://nftpuzzle.license-token.com/" class="links"><title>See the most innovative NFT based token software licensing project</title><path fill="#E4CF37" id="more" d="M165,0C74.019,0,0,74.019,0,165s74.019,165,165,165s165-74.019,165-165S255.981,0,165,0z M85,190 c-13.785,0-25-11.215-25-25s11.215-25,25-25s25,11.215,25,25S98.785,190,85,190z M165,190c-13.785,0-25-11.215-25-25 s11.215-25,25-25s25,11.215,25,25S178.785,190,165,190z M245,190c-13.785,0-25-11.215-25-25s11.215-25,25-25 c13.785,0,25,11.215,25,25S258.785,190,245,190z"></path></a></g></svg></svg></svg>