<svg version="1.1" xmlns="http://www.w3.org/2000/svg" xmlns:xlink="http://www.w3.org/1999/xlink" fill="transparent" x="0" y="0" width="350" height="350" preserveAspectRatio="xMinYMin slice"><style type="text/css">.links{fill:transparent;stroke: #E4CF37;}.links:hover{fill:#63D272; opacity:0.4;}</style><defs><g id="allt"><path id="t6328" d="M2937,1536 L2927,1536 C2918,1536 2930,1545 2919,1545 C2909,1545 2924,1531 2914,1533 L2904,1536 2904,1536 L2903,1546 C2903,1557 2908,1542 2907,1552 C2907,1563 2902,1547 2903,1557 L2904,1568 2904,1568 L2915,1567 C2926,1567 2910,1572 2921,1571 C2932,1571 2916,1566 2926,1567 L2937,1568 2937,1568 L2938,1558 C2940,1548 2928,1560 2928,1551 C2928,1543 2937,1554 2937,1545 L2937,1536"/></g><clipPath id="c" clipRule="evenodd" fill="transparent"><use href="#t6328"/></clipPath></defs><svg viewBox="2901 1530 40 43" preserveAspectRatio="xMinYMin meet"><svg width="4380" height="2430"><g><image crossorigin="anonymous" x="0" y="0" href="https://nftpuzzle.license-token.com/assets/completepuzzle.svg" width="100%" height="100%" /><g class="links"><use href="#t6328"/></g></g></svg><svg x="2926" y="1558" height="9%" width="9%" viewBox="0 0 330 330"><g><a xlink:href="https://nftpuzzle.license-token.com/" class="links"><title>See the most innovative NFT based token software licensing project</title><path fill="#E4CF37" id="more" d="M165,0C74.019,0,0,74.019,0,165s74.019,165,165,165s165-74.019,165-165S255.981,0,165,0z M85,190 c-13.785,0-25-11.215-25-25s11.215-25,25-25s25,11.215,25,25S98.785,190,85,190z M165,190c-13.785,0-25-11.215-25-25 s11.215-25,25-25s25,11.215,25,25S178.785,190,165,190z M245,190c-13.785,0-25-11.215-25-25s11.215-25,25-25 c13.785,0,25,11.215,25,25S258.785,190,245,190z"></path></a></g></svg></svg></svg>