<svg version="1.1" xmlns="http://www.w3.org/2000/svg" xmlns:xlink="http://www.w3.org/1999/xlink" fill="transparent" x="0" y="0" width="350" height="350" preserveAspectRatio="xMinYMin slice"><style type="text/css">.links{fill:transparent;stroke: #E4CF37;}.links:hover{fill:#63D272; opacity:0.4;}</style><defs><g id="allt"><path id="t6331" d="M3036,1536 L3024,1536 C3013,1536 3027,1541 3017,1539 C3008,1538 3022,1535 3012,1535 L3003,1536 3003,1536 L3002,1546 C3002,1557 3008,1541 3009,1550 C3010,1559 3000,1549 3001,1558 L3003,1568 3003,1568 L3014,1567 C3025,1567 3008,1573 3017,1574 C3027,1575 3017,1565 3026,1566 L3036,1568 3036,1568 L3038,1557 C3040,1546 3029,1559 3028,1550 C3027,1541 3036,1555 3036,1545 L3036,1536"/></g><clipPath id="c" clipRule="evenodd" fill="transparent"><use href="#t6331"/></clipPath></defs><svg viewBox="2999 1534 42 42" preserveAspectRatio="xMinYMin meet"><svg width="4380" height="2430"><g><image crossorigin="anonymous" x="0" y="0" href="https://nftpuzzle.license-token.com/assets/completepuzzle.svg" width="100%" height="100%" /><g class="links"><use href="#t6331"/></g></g></svg><svg x="3026" y="1561" height="9%" width="9%" viewBox="0 0 330 330"><g><a xlink:href="https://nftpuzzle.license-token.com/" class="links"><title>See the most innovative NFT based token software licensing project</title><path fill="#E4CF37" id="more" d="M165,0C74.019,0,0,74.019,0,165s74.019,165,165,165s165-74.019,165-165S255.981,0,165,0z M85,190 c-13.785,0-25-11.215-25-25s11.215-25,25-25s25,11.215,25,25S98.785,190,85,190z M165,190c-13.785,0-25-11.215-25-25 s11.215-25,25-25s25,11.215,25,25S178.785,190,165,190z M245,190c-13.785,0-25-11.215-25-25s11.215-25,25-25 c13.785,0,25,11.215,25,25S258.785,190,245,190z"></path></a></g></svg></svg></svg>