<svg version="1.1" xmlns="http://www.w3.org/2000/svg" xmlns:xlink="http://www.w3.org/1999/xlink" fill="transparent" x="0" y="0" width="350" height="350" preserveAspectRatio="xMinYMin slice"><style type="text/css">.links{fill:transparent;stroke: #E4CF37;}.links:hover{fill:#63D272; opacity:0.4;}</style><defs><g id="allt"><path id="t6334" d="M3135,1536 L3125,1538 C3115,1541 3126,1528 3117,1527 C3108,1527 3121,1541 3111,1538 L3102,1536 3102,1536 L3101,1546 C3101,1556 3104,1542 3105,1550 C3106,1558 3102,1548 3102,1558 L3102,1568 3102,1568 L3112,1567 C3123,1567 3108,1570 3116,1571 C3125,1572 3114,1568 3124,1568 L3135,1568 3135,1568 L3135,1557 C3135,1547 3137,1560 3138,1551 C3140,1543 3135,1554 3135,1545 L3135,1536"/></g><clipPath id="c" clipRule="evenodd" fill="transparent"><use href="#t6334"/></clipPath></defs><svg viewBox="3100 1526 41 47" preserveAspectRatio="xMinYMin meet"><svg width="4380" height="2430"><g><image crossorigin="anonymous" x="0" y="0" href="https://nftpuzzle.license-token.com/assets/completepuzzle.svg" width="100%" height="100%" /><g class="links"><use href="#t6334"/></g></g></svg><svg x="3126" y="1558" height="9%" width="9%" viewBox="0 0 330 330"><g><a xlink:href="https://nftpuzzle.license-token.com/" class="links"><title>See the most innovative NFT based token software licensing project</title><path fill="#E4CF37" id="more" d="M165,0C74.019,0,0,74.019,0,165s74.019,165,165,165s165-74.019,165-165S255.981,0,165,0z M85,190 c-13.785,0-25-11.215-25-25s11.215-25,25-25s25,11.215,25,25S98.785,190,85,190z M165,190c-13.785,0-25-11.215-25-25 s11.215-25,25-25s25,11.215,25,25S178.785,190,165,190z M245,190c-13.785,0-25-11.215-25-25s11.215-25,25-25 c13.785,0,25,11.215,25,25S258.785,190,245,190z"></path></a></g></svg></svg></svg>