<svg version="1.1" xmlns="http://www.w3.org/2000/svg" xmlns:xlink="http://www.w3.org/1999/xlink" fill="transparent" x="0" y="0" width="350" height="350" preserveAspectRatio="xMinYMin slice"><style type="text/css">.links{fill:transparent;stroke: #E4CF37;}.links:hover{fill:#63D272; opacity:0.4;}</style><defs><g id="allt"><path id="t6337" d="M3234,1536 L3223,1537 C3213,1539 3225,1529 3215,1528 C3206,1527 3221,1540 3211,1538 L3201,1536 3201,1536 L3201,1545 C3202,1555 3197,1542 3197,1551 C3198,1560 3202,1546 3201,1557 L3201,1568 3201,1568 L3211,1568 C3221,1569 3207,1564 3216,1564 C3225,1565 3211,1569 3222,1568 L3234,1568 3234,1568 L3235,1557 C3236,1546 3228,1561 3228,1551 C3229,1542 3236,1553 3235,1544 L3234,1536"/></g><clipPath id="c" clipRule="evenodd" fill="transparent"><use href="#t6337"/></clipPath></defs><svg viewBox="3196 1526 41 44" preserveAspectRatio="xMinYMin meet"><svg width="4380" height="2430"><g><image crossorigin="anonymous" x="0" y="0" href="https://nftpuzzle.license-token.com/assets/completepuzzle.svg" width="100%" height="100%" /><g class="links"><use href="#t6337"/></g></g></svg><svg x="3222" y="1555" height="9%" width="9%" viewBox="0 0 330 330"><g><a xlink:href="https://nftpuzzle.license-token.com/" class="links"><title>See the most innovative NFT based token software licensing project</title><path fill="#E4CF37" id="more" d="M165,0C74.019,0,0,74.019,0,165s74.019,165,165,165s165-74.019,165-165S255.981,0,165,0z M85,190 c-13.785,0-25-11.215-25-25s11.215-25,25-25s25,11.215,25,25S98.785,190,85,190z M165,190c-13.785,0-25-11.215-25-25 s11.215-25,25-25s25,11.215,25,25S178.785,190,165,190z M245,190c-13.785,0-25-11.215-25-25s11.215-25,25-25 c13.785,0,25,11.215,25,25S258.785,190,245,190z"></path></a></g></svg></svg></svg>