<svg version="1.1" xmlns="http://www.w3.org/2000/svg" xmlns:xlink="http://www.w3.org/1999/xlink" fill="transparent" x="0" y="0" width="350" height="350" preserveAspectRatio="xMinYMin slice"><style type="text/css">.links{fill:transparent;stroke: #E4CF37;}.links:hover{fill:#63D272; opacity:0.4;}</style><defs><g id="allt"><path id="t634" d="M3795,128 L3784,128 C3773,128 3787,122 3778,122 C3769,122 3782,129 3772,128 L3762,128 3762,128 L3761,137 C3761,147 3770,134 3769,143 C3769,152 3762,141 3762,150 L3762,160 3762,160 L3771,159 C3781,159 3768,168 3777,167 C3787,167 3775,160 3785,160 L3795,160 3795,160 L3795,150 C3795,141 3800,151 3800,142 C3800,134 3795,147 3795,137 L3795,128"/></g><clipPath id="c" clipRule="evenodd" fill="transparent"><use href="#t634"/></clipPath></defs><svg viewBox="3760 121 41 48" preserveAspectRatio="xMinYMin meet"><svg width="4380" height="2430"><g><image crossorigin="anonymous" x="0" y="0" href="https://nftpuzzle.license-token.com/assets/completepuzzle.svg" width="100%" height="100%" /><g class="links"><use href="#t634"/></g></g></svg><svg x="3786" y="154" height="9%" width="9%" viewBox="0 0 330 330"><g><a xlink:href="https://nftpuzzle.license-token.com/" class="links"><title>See the most innovative NFT based token software licensing project</title><path fill="#E4CF37" id="more" d="M165,0C74.019,0,0,74.019,0,165s74.019,165,165,165s165-74.019,165-165S255.981,0,165,0z M85,190 c-13.785,0-25-11.215-25-25s11.215-25,25-25s25,11.215,25,25S98.785,190,85,190z M165,190c-13.785,0-25-11.215-25-25 s11.215-25,25-25s25,11.215,25,25S178.785,190,165,190z M245,190c-13.785,0-25-11.215-25-25s11.215-25,25-25 c13.785,0,25,11.215,25,25S258.785,190,245,190z"></path></a></g></svg></svg></svg>