<svg version="1.1" xmlns="http://www.w3.org/2000/svg" xmlns:xlink="http://www.w3.org/1999/xlink" fill="transparent" x="0" y="0" width="350" height="350" preserveAspectRatio="xMinYMin slice"><style type="text/css">.links{fill:transparent;stroke: #E4CF37;}.links:hover{fill:#63D272; opacity:0.4;}</style><defs><g id="allt"><path id="t6342" d="M3399,1536 L3388,1536 C3377,1537 3389,1529 3380,1530 C3371,1531 3384,1536 3375,1536 L3366,1536 3366,1536 L3366,1545 C3366,1554 3363,1545 3362,1553 C3361,1562 3367,1547 3366,1557 L3366,1568 3366,1568 L3375,1568 C3385,1568 3375,1565 3384,1564 C3393,1563 3377,1569 3388,1568 L3399,1568 3399,1568 L3399,1558 C3400,1549 3396,1558 3395,1551 C3394,1544 3400,1556 3399,1546 L3399,1536"/></g><clipPath id="c" clipRule="evenodd" fill="transparent"><use href="#t6342"/></clipPath></defs><svg viewBox="3360 1528 41 42" preserveAspectRatio="xMinYMin meet"><svg width="4380" height="2430"><g><image crossorigin="anonymous" x="0" y="0" href="https://nftpuzzle.license-token.com/assets/completepuzzle.svg" width="100%" height="100%" /><g class="links"><use href="#t6342"/></g></g></svg><svg x="3386" y="1555" height="9%" width="9%" viewBox="0 0 330 330"><g><a xlink:href="https://nftpuzzle.license-token.com/" class="links"><title>See the most innovative NFT based token software licensing project</title><path fill="#E4CF37" id="more" d="M165,0C74.019,0,0,74.019,0,165s74.019,165,165,165s165-74.019,165-165S255.981,0,165,0z M85,190 c-13.785,0-25-11.215-25-25s11.215-25,25-25s25,11.215,25,25S98.785,190,85,190z M165,190c-13.785,0-25-11.215-25-25 s11.215-25,25-25s25,11.215,25,25S178.785,190,165,190z M245,190c-13.785,0-25-11.215-25-25s11.215-25,25-25 c13.785,0,25,11.215,25,25S258.785,190,245,190z"></path></a></g></svg></svg></svg>