<svg version="1.1" xmlns="http://www.w3.org/2000/svg" xmlns:xlink="http://www.w3.org/1999/xlink" fill="transparent" x="0" y="0" width="350" height="350" preserveAspectRatio="xMinYMin slice"><style type="text/css">.links{fill:transparent;stroke: #E4CF37;}.links:hover{fill:#63D272; opacity:0.4;}</style><defs><g id="allt"><path id="t6349" d="M3630,1536 L3620,1536 C3611,1536 3624,1532 3613,1532 C3602,1532 3617,1536 3607,1536 L3597,1536 3597,1536 L3598,1546 C3599,1557 3592,1545 3590,1554 C3588,1563 3598,1549 3597,1558 L3597,1568 3597,1568 L3608,1569 C3619,1570 3606,1563 3615,1561 C3625,1559 3610,1569 3620,1568 L3630,1568 3630,1568 L3631,1559 C3632,1550 3620,1562 3621,1553 C3622,1544 3631,1557 3630,1546 L3630,1536"/></g><clipPath id="c" clipRule="evenodd" fill="transparent"><use href="#t6349"/></clipPath></defs><svg viewBox="3587 1531 46 40" preserveAspectRatio="xMinYMin meet"><svg width="4380" height="2430"><g><image crossorigin="anonymous" x="0" y="0" href="https://nftpuzzle.license-token.com/assets/completepuzzle.svg" width="100%" height="100%" /><g class="links"><use href="#t6349"/></g></g></svg><svg x="3618" y="1556" height="9%" width="9%" viewBox="0 0 330 330"><g><a xlink:href="https://nftpuzzle.license-token.com/" class="links"><title>See the most innovative NFT based token software licensing project</title><path fill="#E4CF37" id="more" d="M165,0C74.019,0,0,74.019,0,165s74.019,165,165,165s165-74.019,165-165S255.981,0,165,0z M85,190 c-13.785,0-25-11.215-25-25s11.215-25,25-25s25,11.215,25,25S98.785,190,85,190z M165,190c-13.785,0-25-11.215-25-25 s11.215-25,25-25s25,11.215,25,25S178.785,190,165,190z M245,190c-13.785,0-25-11.215-25-25s11.215-25,25-25 c13.785,0,25,11.215,25,25S258.785,190,245,190z"></path></a></g></svg></svg></svg>