<svg version="1.1" xmlns="http://www.w3.org/2000/svg" xmlns:xlink="http://www.w3.org/1999/xlink" fill="transparent" x="0" y="0" width="350" height="350" preserveAspectRatio="xMinYMin slice"><style type="text/css">.links{fill:transparent;stroke: #E4CF37;}.links:hover{fill:#63D272; opacity:0.4;}</style><defs><g id="allt"><path id="t6351" d="M3696,1536 L3686,1537 C3676,1538 3689,1525 3679,1528 C3670,1531 3683,1537 3673,1536 L3663,1536 3663,1536 L3663,1545 C3663,1554 3668,1542 3668,1551 C3669,1561 3663,1550 3663,1559 L3663,1568 3663,1568 L3672,1568 C3682,1568 3669,1573 3679,1573 C3689,1574 3677,1568 3686,1568 L3696,1568 3696,1568 L3696,1557 C3696,1546 3693,1560 3693,1551 C3694,1542 3696,1556 3696,1546 L3696,1536"/></g><clipPath id="c" clipRule="evenodd" fill="transparent"><use href="#t6351"/></clipPath></defs><svg viewBox="3662 1524 35 51" preserveAspectRatio="xMinYMin meet"><svg width="4380" height="2430"><g><image crossorigin="anonymous" x="0" y="0" href="https://nftpuzzle.license-token.com/assets/completepuzzle.svg" width="100%" height="100%" /><g class="links"><use href="#t6351"/></g></g></svg><svg x="3682" y="1560" height="9%" width="9%" viewBox="0 0 330 330"><g><a xlink:href="https://nftpuzzle.license-token.com/" class="links"><title>See the most innovative NFT based token software licensing project</title><path fill="#E4CF37" id="more" d="M165,0C74.019,0,0,74.019,0,165s74.019,165,165,165s165-74.019,165-165S255.981,0,165,0z M85,190 c-13.785,0-25-11.215-25-25s11.215-25,25-25s25,11.215,25,25S98.785,190,85,190z M165,190c-13.785,0-25-11.215-25-25 s11.215-25,25-25s25,11.215,25,25S178.785,190,165,190z M245,190c-13.785,0-25-11.215-25-25s11.215-25,25-25 c13.785,0,25,11.215,25,25S258.785,190,245,190z"></path></a></g></svg></svg></svg>