<svg version="1.1" xmlns="http://www.w3.org/2000/svg" xmlns:xlink="http://www.w3.org/1999/xlink" fill="transparent" x="0" y="0" width="350" height="350" preserveAspectRatio="xMinYMin slice"><style type="text/css">.links{fill:transparent;stroke: #E4CF37;}.links:hover{fill:#63D272; opacity:0.4;}</style><defs><g id="allt"><path id="t6355" d="M3828,1536 L3817,1537 C3807,1538 3821,1529 3812,1530 C3803,1531 3813,1536 3804,1536 L3795,1536 3795,1536 L3796,1545 C3797,1555 3790,1541 3789,1550 C3789,1560 3797,1549 3796,1558 L3795,1568 3795,1568 L3805,1569 C3815,1570 3800,1563 3810,1562 C3820,1562 3808,1570 3818,1569 L3828,1568 3828,1568 L3828,1558 C3828,1549 3830,1558 3830,1550 C3831,1542 3827,1556 3827,1546 L3828,1536"/></g><clipPath id="c" clipRule="evenodd" fill="transparent"><use href="#t6355"/></clipPath></defs><svg viewBox="3788 1528 44 43" preserveAspectRatio="xMinYMin meet"><svg width="4380" height="2430"><g><image crossorigin="anonymous" x="0" y="0" href="https://nftpuzzle.license-token.com/assets/completepuzzle.svg" width="100%" height="100%" /><g class="links"><use href="#t6355"/></g></g></svg><svg x="3817" y="1556" height="9%" width="9%" viewBox="0 0 330 330"><g><a xlink:href="https://nftpuzzle.license-token.com/" class="links"><title>See the most innovative NFT based token software licensing project</title><path fill="#E4CF37" id="more" d="M165,0C74.019,0,0,74.019,0,165s74.019,165,165,165s165-74.019,165-165S255.981,0,165,0z M85,190 c-13.785,0-25-11.215-25-25s11.215-25,25-25s25,11.215,25,25S98.785,190,85,190z M165,190c-13.785,0-25-11.215-25-25 s11.215-25,25-25s25,11.215,25,25S178.785,190,165,190z M245,190c-13.785,0-25-11.215-25-25s11.215-25,25-25 c13.785,0,25,11.215,25,25S258.785,190,245,190z"></path></a></g></svg></svg></svg>