<svg version="1.1" xmlns="http://www.w3.org/2000/svg" xmlns:xlink="http://www.w3.org/1999/xlink" fill="transparent" x="0" y="0" width="350" height="350" preserveAspectRatio="xMinYMin slice"><style type="text/css">.links{fill:transparent;stroke: #E4CF37;}.links:hover{fill:#63D272; opacity:0.4;}</style><defs><g id="allt"><path id="t6364" d="M4125,1536 L4113,1536 C4102,1536 4116,1544 4107,1543 C4099,1542 4111,1532 4101,1534 L4092,1536 4092,1536 L4091,1545 C4091,1555 4096,1544 4097,1552 C4099,1560 4088,1546 4090,1557 L4092,1568 4092,1568 L4102,1567 C4112,1567 4100,1572 4108,1573 C4117,1575 4102,1564 4113,1566 L4125,1568 4125,1568 L4125,1557 C4125,1547 4130,1561 4129,1552 C4128,1543 4125,1554 4125,1545 L4125,1536"/></g><clipPath id="c" clipRule="evenodd" fill="transparent"><use href="#t6364"/></clipPath></defs><svg viewBox="4087 1531 44 45" preserveAspectRatio="xMinYMin meet"><svg width="4380" height="2430"><g><image crossorigin="anonymous" x="0" y="0" href="https://nftpuzzle.license-token.com/assets/completepuzzle.svg" width="100%" height="100%" /><g class="links"><use href="#t6364"/></g></g></svg><svg x="4116" y="1561" height="9%" width="9%" viewBox="0 0 330 330"><g><a xlink:href="https://nftpuzzle.license-token.com/" class="links"><title>See the most innovative NFT based token software licensing project</title><path fill="#E4CF37" id="more" d="M165,0C74.019,0,0,74.019,0,165s74.019,165,165,165s165-74.019,165-165S255.981,0,165,0z M85,190 c-13.785,0-25-11.215-25-25s11.215-25,25-25s25,11.215,25,25S98.785,190,85,190z M165,190c-13.785,0-25-11.215-25-25 s11.215-25,25-25s25,11.215,25,25S178.785,190,165,190z M245,190c-13.785,0-25-11.215-25-25s11.215-25,25-25 c13.785,0,25,11.215,25,25S258.785,190,245,190z"></path></a></g></svg></svg></svg>