<svg version="1.1" xmlns="http://www.w3.org/2000/svg" xmlns:xlink="http://www.w3.org/1999/xlink" fill="transparent" x="0" y="0" width="350" height="350" preserveAspectRatio="xMinYMin slice"><style type="text/css">.links{fill:transparent;stroke: #E4CF37;}.links:hover{fill:#63D272; opacity:0.4;}</style><defs><g id="allt"><path id="t6371" d="M66,1568 L55,1569 C45,1571 60,1562 50,1563 C40,1564 54,1568 43,1568 L33,1568 33,1568 L34,1577 C35,1586 27,1572 24,1583 C21,1594 37,1578 35,1589 L33,1600 33,1600 L42,1601 C52,1602 37,1594 48,1591 C60,1589 44,1604 55,1602 L66,1600 66,1600 L68,1589 C70,1579 55,1593 57,1584 C59,1576 71,1588 68,1578 L66,1568"/></g><clipPath id="c" clipRule="evenodd" fill="transparent"><use href="#t6371"/></clipPath></defs><svg viewBox="20 1561 52 44" preserveAspectRatio="xMinYMin meet"><svg width="4380" height="2430"><g><image crossorigin="anonymous" x="0" y="0" href="https://nftpuzzle.license-token.com/assets/completepuzzle.svg" width="100%" height="100%" /><g class="links"><use href="#t6371"/></g></g></svg><svg x="57" y="1590" height="9%" width="9%" viewBox="0 0 330 330"><g><a xlink:href="https://nftpuzzle.license-token.com/" class="links"><title>See the most innovative NFT based token software licensing project</title><path fill="#E4CF37" id="more" d="M165,0C74.019,0,0,74.019,0,165s74.019,165,165,165s165-74.019,165-165S255.981,0,165,0z M85,190 c-13.785,0-25-11.215-25-25s11.215-25,25-25s25,11.215,25,25S98.785,190,85,190z M165,190c-13.785,0-25-11.215-25-25 s11.215-25,25-25s25,11.215,25,25S178.785,190,165,190z M245,190c-13.785,0-25-11.215-25-25s11.215-25,25-25 c13.785,0,25,11.215,25,25S258.785,190,245,190z"></path></a></g></svg></svg></svg>