<svg version="1.1" xmlns="http://www.w3.org/2000/svg" xmlns:xlink="http://www.w3.org/1999/xlink" fill="transparent" x="0" y="0" width="350" height="350" preserveAspectRatio="xMinYMin slice"><style type="text/css">.links{fill:transparent;stroke: #E4CF37;}.links:hover{fill:#63D272; opacity:0.4;}</style><defs><g id="allt"><path id="t6372" d="M99,1568 L88,1568 C77,1568 92,1559 82,1559 C72,1560 85,1570 75,1569 L66,1568 66,1568 L68,1578 C71,1588 59,1576 57,1584 C55,1593 70,1579 68,1589 L66,1600 66,1600 L76,1602 C87,1605 74,1593 83,1591 C92,1589 77,1604 88,1602 L99,1600 99,1600 L98,1589 C98,1578 103,1594 102,1585 C102,1576 99,1586 99,1577 L99,1568"/></g><clipPath id="c" clipRule="evenodd" fill="transparent"><use href="#t6372"/></clipPath></defs><svg viewBox="54 1558 50 48" preserveAspectRatio="xMinYMin meet"><svg width="4380" height="2430"><g><image crossorigin="anonymous" x="0" y="0" href="https://nftpuzzle.license-token.com/assets/completepuzzle.svg" width="100%" height="100%" /><g class="links"><use href="#t6372"/></g></g></svg><svg x="89" y="1591" height="9%" width="9%" viewBox="0 0 330 330"><g><a xlink:href="https://nftpuzzle.license-token.com/" class="links"><title>See the most innovative NFT based token software licensing project</title><path fill="#E4CF37" id="more" d="M165,0C74.019,0,0,74.019,0,165s74.019,165,165,165s165-74.019,165-165S255.981,0,165,0z M85,190 c-13.785,0-25-11.215-25-25s11.215-25,25-25s25,11.215,25,25S98.785,190,85,190z M165,190c-13.785,0-25-11.215-25-25 s11.215-25,25-25s25,11.215,25,25S178.785,190,165,190z M245,190c-13.785,0-25-11.215-25-25s11.215-25,25-25 c13.785,0,25,11.215,25,25S258.785,190,245,190z"></path></a></g></svg></svg></svg>