<svg version="1.1" xmlns="http://www.w3.org/2000/svg" xmlns:xlink="http://www.w3.org/1999/xlink" fill="transparent" x="0" y="0" width="350" height="350" preserveAspectRatio="xMinYMin slice"><style type="text/css">.links{fill:transparent;stroke: #E4CF37;}.links:hover{fill:#63D272; opacity:0.4;}</style><defs><g id="allt"><path id="t6375" d="M198,1568 L187,1568 C176,1568 188,1577 180,1575 C172,1574 184,1566 174,1567 L165,1568 165,1568 L164,1578 C164,1588 175,1572 173,1582 C172,1592 161,1579 163,1589 L165,1600 165,1600 L175,1599 C185,1599 169,1610 179,1608 C190,1607 176,1596 187,1598 L198,1600 198,1600 L198,1589 C198,1579 191,1593 192,1584 C193,1576 199,1589 198,1578 L198,1568"/></g><clipPath id="c" clipRule="evenodd" fill="transparent"><use href="#t6375"/></clipPath></defs><svg viewBox="160 1565 40 46" preserveAspectRatio="xMinYMin meet"><svg width="4380" height="2430"><g><image crossorigin="anonymous" x="0" y="0" href="https://nftpuzzle.license-token.com/assets/completepuzzle.svg" width="100%" height="100%" /><g class="links"><use href="#t6375"/></g></g></svg><svg x="185" y="1596" height="9%" width="9%" viewBox="0 0 330 330"><g><a xlink:href="https://nftpuzzle.license-token.com/" class="links"><title>See the most innovative NFT based token software licensing project</title><path fill="#E4CF37" id="more" d="M165,0C74.019,0,0,74.019,0,165s74.019,165,165,165s165-74.019,165-165S255.981,0,165,0z M85,190 c-13.785,0-25-11.215-25-25s11.215-25,25-25s25,11.215,25,25S98.785,190,85,190z M165,190c-13.785,0-25-11.215-25-25 s11.215-25,25-25s25,11.215,25,25S178.785,190,165,190z M245,190c-13.785,0-25-11.215-25-25s11.215-25,25-25 c13.785,0,25,11.215,25,25S258.785,190,245,190z"></path></a></g></svg></svg></svg>