<svg version="1.1" xmlns="http://www.w3.org/2000/svg" xmlns:xlink="http://www.w3.org/1999/xlink" fill="transparent" x="0" y="0" width="350" height="350" preserveAspectRatio="xMinYMin slice"><style type="text/css">.links{fill:transparent;stroke: #E4CF37;}.links:hover{fill:#63D272; opacity:0.4;}</style><defs><g id="allt"><path id="t6377" d="M264,1568 L254,1567 C245,1567 254,1571 247,1572 C240,1573 252,1568 241,1568 L231,1568 231,1568 L231,1578 C231,1588 227,1576 224,1583 C222,1591 231,1581 231,1590 L231,1600 231,1600 L241,1600 C252,1600 240,1596 247,1593 C255,1591 244,1600 254,1600 L264,1600 264,1600 L263,1590 C263,1581 269,1591 269,1583 C270,1576 262,1588 263,1578 L264,1568"/></g><clipPath id="c" clipRule="evenodd" fill="transparent"><use href="#t6377"/></clipPath></defs><svg viewBox="221 1566 50 35" preserveAspectRatio="xMinYMin meet"><svg width="4380" height="2430"><g><image crossorigin="anonymous" x="0" y="0" href="https://nftpuzzle.license-token.com/assets/completepuzzle.svg" width="100%" height="100%" /><g class="links"><use href="#t6377"/></g></g></svg><svg x="256" y="1586" height="9%" width="9%" viewBox="0 0 330 330"><g><a xlink:href="https://nftpuzzle.license-token.com/" class="links"><title>See the most innovative NFT based token software licensing project</title><path fill="#E4CF37" id="more" d="M165,0C74.019,0,0,74.019,0,165s74.019,165,165,165s165-74.019,165-165S255.981,0,165,0z M85,190 c-13.785,0-25-11.215-25-25s11.215-25,25-25s25,11.215,25,25S98.785,190,85,190z M165,190c-13.785,0-25-11.215-25-25 s11.215-25,25-25s25,11.215,25,25S178.785,190,165,190z M245,190c-13.785,0-25-11.215-25-25s11.215-25,25-25 c13.785,0,25,11.215,25,25S258.785,190,245,190z"></path></a></g></svg></svg></svg>