<svg version="1.1" xmlns="http://www.w3.org/2000/svg" xmlns:xlink="http://www.w3.org/1999/xlink" fill="transparent" x="0" y="0" width="350" height="350" preserveAspectRatio="xMinYMin slice"><style type="text/css">.links{fill:transparent;stroke: #E4CF37;}.links:hover{fill:#63D272; opacity:0.4;}</style><defs><g id="allt"><path id="t6378" d="M297,1568 L287,1568 C278,1568 287,1581 280,1578 C273,1576 282,1568 273,1568 L264,1568 264,1568 L263,1578 C262,1588 270,1576 269,1583 C269,1591 263,1581 263,1590 L264,1600 264,1600 L274,1599 C285,1598 272,1606 279,1605 C287,1605 278,1599 287,1599 L297,1600 297,1600 L296,1589 C296,1579 302,1592 301,1583 C300,1575 297,1587 297,1577 L297,1568"/></g><clipPath id="c" clipRule="evenodd" fill="transparent"><use href="#t6378"/></clipPath></defs><svg viewBox="261 1567 42 40" preserveAspectRatio="xMinYMin meet"><svg width="4380" height="2430"><g><image crossorigin="anonymous" x="0" y="0" href="https://nftpuzzle.license-token.com/assets/completepuzzle.svg" width="100%" height="100%" /><g class="links"><use href="#t6378"/></g></g></svg><svg x="288" y="1592" height="9%" width="9%" viewBox="0 0 330 330"><g><a xlink:href="https://nftpuzzle.license-token.com/" class="links"><title>See the most innovative NFT based token software licensing project</title><path fill="#E4CF37" id="more" d="M165,0C74.019,0,0,74.019,0,165s74.019,165,165,165s165-74.019,165-165S255.981,0,165,0z M85,190 c-13.785,0-25-11.215-25-25s11.215-25,25-25s25,11.215,25,25S98.785,190,85,190z M165,190c-13.785,0-25-11.215-25-25 s11.215-25,25-25s25,11.215,25,25S178.785,190,165,190z M245,190c-13.785,0-25-11.215-25-25s11.215-25,25-25 c13.785,0,25,11.215,25,25S258.785,190,245,190z"></path></a></g></svg></svg></svg>