<svg version="1.1" xmlns="http://www.w3.org/2000/svg" xmlns:xlink="http://www.w3.org/1999/xlink" fill="transparent" x="0" y="0" width="350" height="350" preserveAspectRatio="xMinYMin slice"><style type="text/css">.links{fill:transparent;stroke: #E4CF37;}.links:hover{fill:#63D272; opacity:0.4;}</style><defs><g id="allt"><path id="t6388" d="M627,1568 L616,1568 C605,1568 620,1563 609,1561 C599,1559 614,1570 604,1569 L594,1568 594,1568 L594,1577 C594,1587 597,1573 596,1582 C596,1591 593,1578 593,1589 L594,1600 594,1600 L604,1600 C614,1600 599,1603 608,1602 C617,1602 605,1599 616,1599 L627,1600 627,1600 L627,1590 C627,1581 621,1591 621,1583 C622,1575 627,1587 627,1577 L627,1568"/></g><clipPath id="c" clipRule="evenodd" fill="transparent"><use href="#t6388"/></clipPath></defs><svg viewBox="592 1558 36 46" preserveAspectRatio="xMinYMin meet"><svg width="4380" height="2430"><g><image crossorigin="anonymous" x="0" y="0" href="https://nftpuzzle.license-token.com/assets/completepuzzle.svg" width="100%" height="100%" /><g class="links"><use href="#t6388"/></g></g></svg><svg x="613" y="1589" height="9%" width="9%" viewBox="0 0 330 330"><g><a xlink:href="https://nftpuzzle.license-token.com/" class="links"><title>See the most innovative NFT based token software licensing project</title><path fill="#E4CF37" id="more" d="M165,0C74.019,0,0,74.019,0,165s74.019,165,165,165s165-74.019,165-165S255.981,0,165,0z M85,190 c-13.785,0-25-11.215-25-25s11.215-25,25-25s25,11.215,25,25S98.785,190,85,190z M165,190c-13.785,0-25-11.215-25-25 s11.215-25,25-25s25,11.215,25,25S178.785,190,165,190z M245,190c-13.785,0-25-11.215-25-25s11.215-25,25-25 c13.785,0,25,11.215,25,25S258.785,190,245,190z"></path></a></g></svg></svg></svg>