<svg version="1.1" xmlns="http://www.w3.org/2000/svg" xmlns:xlink="http://www.w3.org/1999/xlink" fill="transparent" x="0" y="0" width="350" height="350" preserveAspectRatio="xMinYMin slice"><style type="text/css">.links{fill:transparent;stroke: #E4CF37;}.links:hover{fill:#63D272; opacity:0.4;}</style><defs><g id="allt"><path id="t6389" d="M660,1568 L649,1567 C639,1566 650,1575 641,1574 C633,1573 648,1564 637,1566 L627,1568 627,1568 L627,1577 C627,1587 622,1575 621,1583 C621,1591 627,1581 627,1590 L627,1600 627,1600 L636,1600 C646,1600 634,1595 642,1594 C651,1594 641,1600 650,1600 L660,1600 660,1600 L660,1590 C660,1580 653,1590 653,1583 C653,1576 664,1586 662,1577 L660,1568"/></g><clipPath id="c" clipRule="evenodd" fill="transparent"><use href="#t6389"/></clipPath></defs><svg viewBox="620 1563 45 38" preserveAspectRatio="xMinYMin meet"><svg width="4380" height="2430"><g><image crossorigin="anonymous" x="0" y="0" href="https://nftpuzzle.license-token.com/assets/completepuzzle.svg" width="100%" height="100%" /><g class="links"><use href="#t6389"/></g></g></svg><svg x="650" y="1586" height="9%" width="9%" viewBox="0 0 330 330"><g><a xlink:href="https://nftpuzzle.license-token.com/" class="links"><title>See the most innovative NFT based token software licensing project</title><path fill="#E4CF37" id="more" d="M165,0C74.019,0,0,74.019,0,165s74.019,165,165,165s165-74.019,165-165S255.981,0,165,0z M85,190 c-13.785,0-25-11.215-25-25s11.215-25,25-25s25,11.215,25,25S98.785,190,85,190z M165,190c-13.785,0-25-11.215-25-25 s11.215-25,25-25s25,11.215,25,25S178.785,190,165,190z M245,190c-13.785,0-25-11.215-25-25s11.215-25,25-25 c13.785,0,25,11.215,25,25S258.785,190,245,190z"></path></a></g></svg></svg></svg>