<svg version="1.1" xmlns="http://www.w3.org/2000/svg" xmlns:xlink="http://www.w3.org/1999/xlink" fill="transparent" x="0" y="0" width="350" height="350" preserveAspectRatio="xMinYMin slice"><style type="text/css">.links{fill:transparent;stroke: #E4CF37;}.links:hover{fill:#63D272; opacity:0.4;}</style><defs><g id="allt"><path id="t639" d="M3960,128 L3949,127 C3939,127 3953,135 3943,135 C3934,135 3945,125 3936,126 L3927,128 3927,128 L3927,138 C3927,148 3939,135 3936,144 C3933,153 3926,141 3926,150 L3927,160 3927,160 L3937,160 C3948,160 3934,172 3943,169 C3953,166 3940,159 3950,159 L3960,160 3960,160 L3960,149 C3960,139 3954,152 3952,144 C3950,136 3962,146 3961,137 L3960,128"/></g><clipPath id="c" clipRule="evenodd" fill="transparent"><use href="#t639"/></clipPath></defs><svg viewBox="3925 124 38 49" preserveAspectRatio="xMinYMin meet"><svg width="4380" height="2430"><g><image crossorigin="anonymous" x="0" y="0" href="https://nftpuzzle.license-token.com/assets/completepuzzle.svg" width="100%" height="100%" /><g class="links"><use href="#t639"/></g></g></svg><svg x="3948" y="158" height="9%" width="9%" viewBox="0 0 330 330"><g><a xlink:href="https://nftpuzzle.license-token.com/" class="links"><title>See the most innovative NFT based token software licensing project</title><path fill="#E4CF37" id="more" d="M165,0C74.019,0,0,74.019,0,165s74.019,165,165,165s165-74.019,165-165S255.981,0,165,0z M85,190 c-13.785,0-25-11.215-25-25s11.215-25,25-25s25,11.215,25,25S98.785,190,85,190z M165,190c-13.785,0-25-11.215-25-25 s11.215-25,25-25s25,11.215,25,25S178.785,190,165,190z M245,190c-13.785,0-25-11.215-25-25s11.215-25,25-25 c13.785,0,25,11.215,25,25S258.785,190,245,190z"></path></a></g></svg></svg></svg>