<svg version="1.1" xmlns="http://www.w3.org/2000/svg" xmlns:xlink="http://www.w3.org/1999/xlink" fill="transparent" x="0" y="0" width="350" height="350" preserveAspectRatio="xMinYMin slice"><style type="text/css">.links{fill:transparent;stroke: #E4CF37;}.links:hover{fill:#63D272; opacity:0.4;}</style><defs><g id="allt"><path id="t6391" d="M726,1568 L715,1568 C705,1568 720,1576 709,1575 C699,1574 712,1567 702,1567 L693,1568 693,1568 L693,1576 C694,1585 689,1577 689,1586 C689,1595 693,1580 693,1590 L693,1600 693,1600 L702,1600 C711,1601 702,1596 711,1596 C721,1596 706,1600 716,1600 L726,1600 726,1600 L727,1590 C728,1581 721,1591 720,1582 C719,1573 730,1587 728,1577 L726,1568"/></g><clipPath id="c" clipRule="evenodd" fill="transparent"><use href="#t6391"/></clipPath></defs><svg viewBox="688 1566 43 36" preserveAspectRatio="xMinYMin meet"><svg width="4380" height="2430"><g><image crossorigin="anonymous" x="0" y="0" href="https://nftpuzzle.license-token.com/assets/completepuzzle.svg" width="100%" height="100%" /><g class="links"><use href="#t6391"/></g></g></svg><svg x="716" y="1587" height="9%" width="9%" viewBox="0 0 330 330"><g><a xlink:href="https://nftpuzzle.license-token.com/" class="links"><title>See the most innovative NFT based token software licensing project</title><path fill="#E4CF37" id="more" d="M165,0C74.019,0,0,74.019,0,165s74.019,165,165,165s165-74.019,165-165S255.981,0,165,0z M85,190 c-13.785,0-25-11.215-25-25s11.215-25,25-25s25,11.215,25,25S98.785,190,85,190z M165,190c-13.785,0-25-11.215-25-25 s11.215-25,25-25s25,11.215,25,25S178.785,190,165,190z M245,190c-13.785,0-25-11.215-25-25s11.215-25,25-25 c13.785,0,25,11.215,25,25S258.785,190,245,190z"></path></a></g></svg></svg></svg>