<svg version="1.1" xmlns="http://www.w3.org/2000/svg" xmlns:xlink="http://www.w3.org/1999/xlink" fill="transparent" x="0" y="0" width="350" height="350" preserveAspectRatio="xMinYMin slice"><style type="text/css">.links{fill:transparent;stroke: #E4CF37;}.links:hover{fill:#63D272; opacity:0.4;}</style><defs><g id="allt"><path id="t6392" d="M759,1568 L748,1569 C738,1571 750,1561 740,1563 C731,1565 745,1570 735,1569 L726,1568 726,1568 L728,1577 C730,1587 719,1573 720,1582 C721,1591 728,1581 727,1590 L726,1600 726,1600 L735,1602 C745,1604 731,1593 740,1594 C750,1595 739,1602 749,1601 L759,1600 759,1600 L759,1590 C759,1580 761,1591 762,1582 C763,1573 758,1587 758,1577 L759,1568"/></g><clipPath id="c" clipRule="evenodd" fill="transparent"><use href="#t6392"/></clipPath></defs><svg viewBox="718 1560 46 45" preserveAspectRatio="xMinYMin meet"><svg width="4380" height="2430"><g><image crossorigin="anonymous" x="0" y="0" href="https://nftpuzzle.license-token.com/assets/completepuzzle.svg" width="100%" height="100%" /><g class="links"><use href="#t6392"/></g></g></svg><svg x="749" y="1590" height="9%" width="9%" viewBox="0 0 330 330"><g><a xlink:href="https://nftpuzzle.license-token.com/" class="links"><title>See the most innovative NFT based token software licensing project</title><path fill="#E4CF37" id="more" d="M165,0C74.019,0,0,74.019,0,165s74.019,165,165,165s165-74.019,165-165S255.981,0,165,0z M85,190 c-13.785,0-25-11.215-25-25s11.215-25,25-25s25,11.215,25,25S98.785,190,85,190z M165,190c-13.785,0-25-11.215-25-25 s11.215-25,25-25s25,11.215,25,25S178.785,190,165,190z M245,190c-13.785,0-25-11.215-25-25s11.215-25,25-25 c13.785,0,25,11.215,25,25S258.785,190,245,190z"></path></a></g></svg></svg></svg>