<svg version="1.1" xmlns="http://www.w3.org/2000/svg" xmlns:xlink="http://www.w3.org/1999/xlink" fill="transparent" x="0" y="0" width="350" height="350" preserveAspectRatio="xMinYMin slice"><style type="text/css">.links{fill:transparent;stroke: #E4CF37;}.links:hover{fill:#63D272; opacity:0.4;}</style><defs><g id="allt"><path id="t6393" d="M792,1568 L781,1568 C771,1568 782,1563 774,1562 C767,1562 780,1570 769,1569 L759,1568 759,1568 L758,1577 C758,1587 763,1573 762,1582 C761,1591 759,1580 759,1590 L759,1600 759,1600 L769,1599 C779,1599 764,1604 773,1603 C783,1602 771,1600 781,1600 L792,1600 792,1600 L792,1589 C792,1579 785,1592 787,1582 C789,1573 792,1585 792,1576 L792,1568"/></g><clipPath id="c" clipRule="evenodd" fill="transparent"><use href="#t6393"/></clipPath></defs><svg viewBox="757 1561 36 44" preserveAspectRatio="xMinYMin meet"><svg width="4380" height="2430"><g><image crossorigin="anonymous" x="0" y="0" href="https://nftpuzzle.license-token.com/assets/completepuzzle.svg" width="100%" height="100%" /><g class="links"><use href="#t6393"/></g></g></svg><svg x="778" y="1590" height="9%" width="9%" viewBox="0 0 330 330"><g><a xlink:href="https://nftpuzzle.license-token.com/" class="links"><title>See the most innovative NFT based token software licensing project</title><path fill="#E4CF37" id="more" d="M165,0C74.019,0,0,74.019,0,165s74.019,165,165,165s165-74.019,165-165S255.981,0,165,0z M85,190 c-13.785,0-25-11.215-25-25s11.215-25,25-25s25,11.215,25,25S98.785,190,85,190z M165,190c-13.785,0-25-11.215-25-25 s11.215-25,25-25s25,11.215,25,25S178.785,190,165,190z M245,190c-13.785,0-25-11.215-25-25s11.215-25,25-25 c13.785,0,25,11.215,25,25S258.785,190,245,190z"></path></a></g></svg></svg></svg>