<svg version="1.1" xmlns="http://www.w3.org/2000/svg" xmlns:xlink="http://www.w3.org/1999/xlink" fill="transparent" x="0" y="0" width="350" height="350" preserveAspectRatio="xMinYMin slice"><style type="text/css">.links{fill:transparent;stroke: #E4CF37;}.links:hover{fill:#63D272; opacity:0.4;}</style><defs><g id="allt"><path id="t6396" d="M891,1568 L879,1567 C868,1566 882,1574 874,1575 C866,1576 877,1568 867,1568 L858,1568 858,1568 L858,1577 C859,1586 851,1575 851,1582 C852,1590 860,1578 859,1589 L858,1600 858,1600 L867,1600 C877,1601 865,1593 873,1593 C881,1594 869,1602 880,1601 L891,1600 891,1600 L891,1589 C891,1579 882,1594 883,1583 C885,1573 891,1586 891,1577 L891,1568"/></g><clipPath id="c" clipRule="evenodd" fill="transparent"><use href="#t6396"/></clipPath></defs><svg viewBox="850 1565 42 38" preserveAspectRatio="xMinYMin meet"><svg width="4380" height="2430"><g><image crossorigin="anonymous" x="0" y="0" href="https://nftpuzzle.license-token.com/assets/completepuzzle.svg" width="100%" height="100%" /><g class="links"><use href="#t6396"/></g></g></svg><svg x="877" y="1588" height="9%" width="9%" viewBox="0 0 330 330"><g><a xlink:href="https://nftpuzzle.license-token.com/" class="links"><title>See the most innovative NFT based token software licensing project</title><path fill="#E4CF37" id="more" d="M165,0C74.019,0,0,74.019,0,165s74.019,165,165,165s165-74.019,165-165S255.981,0,165,0z M85,190 c-13.785,0-25-11.215-25-25s11.215-25,25-25s25,11.215,25,25S98.785,190,85,190z M165,190c-13.785,0-25-11.215-25-25 s11.215-25,25-25s25,11.215,25,25S178.785,190,165,190z M245,190c-13.785,0-25-11.215-25-25s11.215-25,25-25 c13.785,0,25,11.215,25,25S258.785,190,245,190z"></path></a></g></svg></svg></svg>