<svg version="1.1" xmlns="http://www.w3.org/2000/svg" xmlns:xlink="http://www.w3.org/1999/xlink" fill="transparent" x="0" y="0" width="350" height="350" preserveAspectRatio="xMinYMin slice"><style type="text/css">.links{fill:transparent;stroke: #E4CF37;}.links:hover{fill:#63D272; opacity:0.4;}</style><defs><g id="allt"><path id="t6399" d="M990,1568 L979,1567 C968,1567 982,1575 973,1575 C964,1576 978,1568 967,1568 L957,1568 957,1568 L956,1576 C956,1585 962,1572 960,1582 C959,1592 957,1581 957,1590 L957,1600 957,1600 L966,1599 C975,1599 961,1605 971,1603 C981,1602 971,1600 980,1600 L990,1600 990,1600 L990,1589 C990,1579 986,1594 985,1584 C984,1574 992,1586 991,1577 L990,1568"/></g><clipPath id="c" clipRule="evenodd" fill="transparent"><use href="#t6399"/></clipPath></defs><svg viewBox="955 1566 38 40" preserveAspectRatio="xMinYMin meet"><svg width="4380" height="2430"><g><image crossorigin="anonymous" x="0" y="0" href="https://nftpuzzle.license-token.com/assets/completepuzzle.svg" width="100%" height="100%" /><g class="links"><use href="#t6399"/></g></g></svg><svg x="978" y="1591" height="9%" width="9%" viewBox="0 0 330 330"><g><a xlink:href="https://nftpuzzle.license-token.com/" class="links"><title>See the most innovative NFT based token software licensing project</title><path fill="#E4CF37" id="more" d="M165,0C74.019,0,0,74.019,0,165s74.019,165,165,165s165-74.019,165-165S255.981,0,165,0z M85,190 c-13.785,0-25-11.215-25-25s11.215-25,25-25s25,11.215,25,25S98.785,190,85,190z M165,190c-13.785,0-25-11.215-25-25 s11.215-25,25-25s25,11.215,25,25S178.785,190,165,190z M245,190c-13.785,0-25-11.215-25-25s11.215-25,25-25 c13.785,0,25,11.215,25,25S258.785,190,245,190z"></path></a></g></svg></svg></svg>