<svg version="1.1" xmlns="http://www.w3.org/2000/svg" xmlns:xlink="http://www.w3.org/1999/xlink" fill="transparent" x="0" y="0" width="350" height="350" preserveAspectRatio="xMinYMin slice"><style type="text/css">.links{fill:transparent;stroke: #E4CF37;}.links:hover{fill:#63D272; opacity:0.4;}</style><defs><g id="allt"><path id="t6400" d="M1023,1568 L1013,1570 C1003,1573 1014,1562 1006,1561 C999,1560 1009,1568 999,1568 L990,1568 990,1568 L991,1577 C992,1586 984,1574 985,1584 C986,1594 990,1579 990,1589 L990,1600 990,1600 L999,1601 C1009,1602 996,1594 1006,1595 C1017,1596 1001,1600 1012,1600 L1023,1600 1023,1600 L1024,1591 C1025,1582 1011,1590 1013,1583 C1015,1576 1023,1587 1023,1577 L1023,1568"/></g><clipPath id="c" clipRule="evenodd" fill="transparent"><use href="#t6400"/></clipPath></defs><svg viewBox="983 1559 43 44" preserveAspectRatio="xMinYMin meet"><svg width="4380" height="2430"><g><image crossorigin="anonymous" x="0" y="0" href="https://nftpuzzle.license-token.com/assets/completepuzzle.svg" width="100%" height="100%" /><g class="links"><use href="#t6400"/></g></g></svg><svg x="1011" y="1588" height="9%" width="9%" viewBox="0 0 330 330"><g><a xlink:href="https://nftpuzzle.license-token.com/" class="links"><title>See the most innovative NFT based token software licensing project</title><path fill="#E4CF37" id="more" d="M165,0C74.019,0,0,74.019,0,165s74.019,165,165,165s165-74.019,165-165S255.981,0,165,0z M85,190 c-13.785,0-25-11.215-25-25s11.215-25,25-25s25,11.215,25,25S98.785,190,85,190z M165,190c-13.785,0-25-11.215-25-25 s11.215-25,25-25s25,11.215,25,25S178.785,190,165,190z M245,190c-13.785,0-25-11.215-25-25s11.215-25,25-25 c13.785,0,25,11.215,25,25S258.785,190,245,190z"></path></a></g></svg></svg></svg>