<svg version="1.1" xmlns="http://www.w3.org/2000/svg" xmlns:xlink="http://www.w3.org/1999/xlink" fill="transparent" x="0" y="0" width="350" height="350" preserveAspectRatio="xMinYMin slice"><style type="text/css">.links{fill:transparent;stroke: #E4CF37;}.links:hover{fill:#63D272; opacity:0.4;}</style><defs><g id="allt"><path id="t6401" d="M1056,1568 L1046,1569 C1037,1570 1047,1563 1038,1563 C1030,1564 1042,1568 1032,1568 L1023,1568 1023,1568 L1023,1577 C1023,1587 1015,1576 1013,1583 C1011,1590 1025,1582 1024,1591 L1023,1600 1023,1600 L1033,1600 C1043,1600 1031,1592 1038,1590 C1046,1589 1037,1602 1046,1601 L1056,1600 1056,1600 L1056,1589 C1056,1579 1051,1591 1050,1583 C1049,1576 1056,1585 1056,1576 L1056,1568"/></g><clipPath id="c" clipRule="evenodd" fill="transparent"><use href="#t6401"/></clipPath></defs><svg viewBox="1010 1562 47 41" preserveAspectRatio="xMinYMin meet"><svg width="4380" height="2430"><g><image crossorigin="anonymous" x="0" y="0" href="https://nftpuzzle.license-token.com/assets/completepuzzle.svg" width="100%" height="100%" /><g class="links"><use href="#t6401"/></g></g></svg><svg x="1042" y="1588" height="9%" width="9%" viewBox="0 0 330 330"><g><a xlink:href="https://nftpuzzle.license-token.com/" class="links"><title>See the most innovative NFT based token software licensing project</title><path fill="#E4CF37" id="more" d="M165,0C74.019,0,0,74.019,0,165s74.019,165,165,165s165-74.019,165-165S255.981,0,165,0z M85,190 c-13.785,0-25-11.215-25-25s11.215-25,25-25s25,11.215,25,25S98.785,190,85,190z M165,190c-13.785,0-25-11.215-25-25 s11.215-25,25-25s25,11.215,25,25S178.785,190,165,190z M245,190c-13.785,0-25-11.215-25-25s11.215-25,25-25 c13.785,0,25,11.215,25,25S258.785,190,245,190z"></path></a></g></svg></svg></svg>