<svg version="1.1" xmlns="http://www.w3.org/2000/svg" xmlns:xlink="http://www.w3.org/1999/xlink" fill="transparent" x="0" y="0" width="350" height="350" preserveAspectRatio="xMinYMin slice"><style type="text/css">.links{fill:transparent;stroke: #E4CF37;}.links:hover{fill:#63D272; opacity:0.4;}</style><defs><g id="allt"><path id="t6404" d="M1155,1568 L1145,1568 C1135,1568 1149,1563 1139,1563 C1130,1564 1140,1568 1131,1568 L1122,1568 1122,1568 L1122,1577 C1123,1586 1119,1573 1118,1582 C1118,1592 1123,1582 1122,1591 L1122,1600 1122,1600 L1131,1600 C1140,1601 1127,1597 1137,1596 C1147,1596 1136,1601 1145,1600 L1155,1600 1155,1600 L1153,1589 C1151,1578 1163,1595 1163,1586 C1163,1577 1153,1588 1154,1578 L1155,1568"/></g><clipPath id="c" clipRule="evenodd" fill="transparent"><use href="#t6404"/></clipPath></defs><svg viewBox="1117 1562 47 40" preserveAspectRatio="xMinYMin meet"><svg width="4380" height="2430"><g><image crossorigin="anonymous" x="0" y="0" href="https://nftpuzzle.license-token.com/assets/completepuzzle.svg" width="100%" height="100%" /><g class="links"><use href="#t6404"/></g></g></svg><svg x="1149" y="1587" height="9%" width="9%" viewBox="0 0 330 330"><g><a xlink:href="https://nftpuzzle.license-token.com/" class="links"><title>See the most innovative NFT based token software licensing project</title><path fill="#E4CF37" id="more" d="M165,0C74.019,0,0,74.019,0,165s74.019,165,165,165s165-74.019,165-165S255.981,0,165,0z M85,190 c-13.785,0-25-11.215-25-25s11.215-25,25-25s25,11.215,25,25S98.785,190,85,190z M165,190c-13.785,0-25-11.215-25-25 s11.215-25,25-25s25,11.215,25,25S178.785,190,165,190z M245,190c-13.785,0-25-11.215-25-25s11.215-25,25-25 c13.785,0,25,11.215,25,25S258.785,190,245,190z"></path></a></g></svg></svg></svg>