<svg version="1.1" xmlns="http://www.w3.org/2000/svg" xmlns:xlink="http://www.w3.org/1999/xlink" fill="transparent" x="0" y="0" width="350" height="350" preserveAspectRatio="xMinYMin slice"><style type="text/css">.links{fill:transparent;stroke: #E4CF37;}.links:hover{fill:#63D272; opacity:0.4;}</style><defs><g id="allt"><path id="t6411" d="M1386,1568 L1375,1569 C1364,1570 1377,1561 1369,1562 C1362,1564 1374,1570 1363,1569 L1353,1568 1353,1568 L1354,1578 C1355,1589 1347,1572 1345,1582 C1344,1593 1353,1582 1353,1591 L1353,1600 1353,1600 L1364,1601 C1375,1602 1357,1594 1368,1592 C1379,1591 1367,1600 1376,1600 L1386,1600 1386,1600 L1385,1591 C1385,1582 1380,1591 1378,1584 C1377,1577 1386,1588 1386,1578 L1386,1568"/></g><clipPath id="c" clipRule="evenodd" fill="transparent"><use href="#t6411"/></clipPath></defs><svg viewBox="1343 1560 44 43" preserveAspectRatio="xMinYMin meet"><svg width="4380" height="2430"><g><image crossorigin="anonymous" x="0" y="0" href="https://nftpuzzle.license-token.com/assets/completepuzzle.svg" width="100%" height="100%" /><g class="links"><use href="#t6411"/></g></g></svg><svg x="1372" y="1588" height="9%" width="9%" viewBox="0 0 330 330"><g><a xlink:href="https://nftpuzzle.license-token.com/" class="links"><title>See the most innovative NFT based token software licensing project</title><path fill="#E4CF37" id="more" d="M165,0C74.019,0,0,74.019,0,165s74.019,165,165,165s165-74.019,165-165S255.981,0,165,0z M85,190 c-13.785,0-25-11.215-25-25s11.215-25,25-25s25,11.215,25,25S98.785,190,85,190z M165,190c-13.785,0-25-11.215-25-25 s11.215-25,25-25s25,11.215,25,25S178.785,190,165,190z M245,190c-13.785,0-25-11.215-25-25s11.215-25,25-25 c13.785,0,25,11.215,25,25S258.785,190,245,190z"></path></a></g></svg></svg></svg>