<svg version="1.1" xmlns="http://www.w3.org/2000/svg" xmlns:xlink="http://www.w3.org/1999/xlink" fill="transparent" x="0" y="0" width="350" height="350" preserveAspectRatio="xMinYMin slice"><style type="text/css">.links{fill:transparent;stroke: #E4CF37;}.links:hover{fill:#63D272; opacity:0.4;}</style><defs><g id="allt"><path id="t6412" d="M1419,1568 L1408,1566 C1398,1565 1414,1574 1404,1576 C1395,1578 1406,1568 1396,1568 L1386,1568 1386,1568 L1386,1578 C1386,1588 1377,1577 1378,1584 C1380,1591 1385,1582 1385,1591 L1386,1600 1386,1600 L1396,1600 C1406,1600 1395,1591 1402,1592 C1409,1594 1400,1599 1409,1599 L1419,1600 1419,1600 L1418,1589 C1418,1579 1423,1594 1423,1583 C1423,1573 1419,1585 1419,1576 L1419,1568"/></g><clipPath id="c" clipRule="evenodd" fill="transparent"><use href="#t6412"/></clipPath></defs><svg viewBox="1376 1564 48 37" preserveAspectRatio="xMinYMin meet"><svg width="4380" height="2430"><g><image crossorigin="anonymous" x="0" y="0" href="https://nftpuzzle.license-token.com/assets/completepuzzle.svg" width="100%" height="100%" /><g class="links"><use href="#t6412"/></g></g></svg><svg x="1409" y="1586" height="9%" width="9%" viewBox="0 0 330 330"><g><a xlink:href="https://nftpuzzle.license-token.com/" class="links"><title>See the most innovative NFT based token software licensing project</title><path fill="#E4CF37" id="more" d="M165,0C74.019,0,0,74.019,0,165s74.019,165,165,165s165-74.019,165-165S255.981,0,165,0z M85,190 c-13.785,0-25-11.215-25-25s11.215-25,25-25s25,11.215,25,25S98.785,190,85,190z M165,190c-13.785,0-25-11.215-25-25 s11.215-25,25-25s25,11.215,25,25S178.785,190,165,190z M245,190c-13.785,0-25-11.215-25-25s11.215-25,25-25 c13.785,0,25,11.215,25,25S258.785,190,245,190z"></path></a></g></svg></svg></svg>