<svg version="1.1" xmlns="http://www.w3.org/2000/svg" xmlns:xlink="http://www.w3.org/1999/xlink" fill="transparent" x="0" y="0" width="350" height="350" preserveAspectRatio="xMinYMin slice"><style type="text/css">.links{fill:transparent;stroke: #E4CF37;}.links:hover{fill:#63D272; opacity:0.4;}</style><defs><g id="allt"><path id="t6423" d="M1782,1568 L1772,1569 C1763,1570 1775,1563 1766,1564 C1757,1565 1768,1570 1758,1569 L1749,1568 1749,1568 L1751,1577 C1753,1587 1740,1576 1741,1583 C1743,1590 1749,1581 1749,1590 L1749,1600 1749,1600 L1758,1602 C1768,1604 1758,1591 1765,1592 C1772,1594 1763,1600 1772,1600 L1782,1600 1782,1600 L1781,1590 C1781,1580 1784,1593 1784,1583 C1784,1573 1782,1587 1782,1577 L1782,1568"/></g><clipPath id="c" clipRule="evenodd" fill="transparent"><use href="#t6423"/></clipPath></defs><svg viewBox="1739 1562 46 43" preserveAspectRatio="xMinYMin meet"><svg width="4380" height="2430"><g><image crossorigin="anonymous" x="0" y="0" href="https://nftpuzzle.license-token.com/assets/completepuzzle.svg" width="100%" height="100%" /><g class="links"><use href="#t6423"/></g></g></svg><svg x="1770" y="1590" height="9%" width="9%" viewBox="0 0 330 330"><g><a xlink:href="https://nftpuzzle.license-token.com/" class="links"><title>See the most innovative NFT based token software licensing project</title><path fill="#E4CF37" id="more" d="M165,0C74.019,0,0,74.019,0,165s74.019,165,165,165s165-74.019,165-165S255.981,0,165,0z M85,190 c-13.785,0-25-11.215-25-25s11.215-25,25-25s25,11.215,25,25S98.785,190,85,190z M165,190c-13.785,0-25-11.215-25-25 s11.215-25,25-25s25,11.215,25,25S178.785,190,165,190z M245,190c-13.785,0-25-11.215-25-25s11.215-25,25-25 c13.785,0,25,11.215,25,25S258.785,190,245,190z"></path></a></g></svg></svg></svg>