<svg version="1.1" xmlns="http://www.w3.org/2000/svg" xmlns:xlink="http://www.w3.org/1999/xlink" fill="transparent" x="0" y="0" width="350" height="350" preserveAspectRatio="xMinYMin slice"><style type="text/css">.links{fill:transparent;stroke: #E4CF37;}.links:hover{fill:#63D272; opacity:0.4;}</style><defs><g id="allt"><path id="t6424" d="M1815,1568 L1804,1568 C1793,1568 1805,1564 1796,1564 C1788,1564 1800,1569 1791,1568 L1782,1568 1782,1568 L1782,1577 C1782,1587 1784,1573 1784,1583 C1784,1593 1781,1580 1781,1590 L1782,1600 1782,1600 L1792,1600 C1802,1600 1787,1602 1797,1602 C1808,1602 1794,1599 1804,1599 L1815,1600 1815,1600 L1815,1591 C1815,1582 1807,1591 1805,1583 C1803,1575 1815,1588 1815,1578 L1815,1568"/></g><clipPath id="c" clipRule="evenodd" fill="transparent"><use href="#t6424"/></clipPath></defs><svg viewBox="1780 1563 36 40" preserveAspectRatio="xMinYMin meet"><svg width="4380" height="2430"><g><image crossorigin="anonymous" x="0" y="0" href="https://nftpuzzle.license-token.com/assets/completepuzzle.svg" width="100%" height="100%" /><g class="links"><use href="#t6424"/></g></g></svg><svg x="1801" y="1588" height="9%" width="9%" viewBox="0 0 330 330"><g><a xlink:href="https://nftpuzzle.license-token.com/" class="links"><title>See the most innovative NFT based token software licensing project</title><path fill="#E4CF37" id="more" d="M165,0C74.019,0,0,74.019,0,165s74.019,165,165,165s165-74.019,165-165S255.981,0,165,0z M85,190 c-13.785,0-25-11.215-25-25s11.215-25,25-25s25,11.215,25,25S98.785,190,85,190z M165,190c-13.785,0-25-11.215-25-25 s11.215-25,25-25s25,11.215,25,25S178.785,190,165,190z M245,190c-13.785,0-25-11.215-25-25s11.215-25,25-25 c13.785,0,25,11.215,25,25S258.785,190,245,190z"></path></a></g></svg></svg></svg>