<svg version="1.1" xmlns="http://www.w3.org/2000/svg" xmlns:xlink="http://www.w3.org/1999/xlink" fill="transparent" x="0" y="0" width="350" height="350" preserveAspectRatio="xMinYMin slice"><style type="text/css">.links{fill:transparent;stroke: #E4CF37;}.links:hover{fill:#63D272; opacity:0.4;}</style><defs><g id="allt"><path id="t6427" d="M1914,1568 L1904,1570 C1895,1573 1906,1558 1897,1560 C1888,1563 1902,1572 1891,1570 L1881,1568 1881,1568 L1881,1578 C1881,1589 1885,1573 1886,1583 C1888,1594 1881,1581 1881,1590 L1881,1600 1881,1600 L1891,1600 C1902,1600 1886,1604 1897,1605 C1908,1607 1894,1600 1904,1600 L1914,1600 1914,1600 L1913,1590 C1912,1580 1918,1593 1918,1584 C1919,1576 1913,1588 1913,1578 L1914,1568"/></g><clipPath id="c" clipRule="evenodd" fill="transparent"><use href="#t6427"/></clipPath></defs><svg viewBox="1880 1557 40 51" preserveAspectRatio="xMinYMin meet"><svg width="4380" height="2430"><g><image crossorigin="anonymous" x="0" y="0" href="https://nftpuzzle.license-token.com/assets/completepuzzle.svg" width="100%" height="100%" /><g class="links"><use href="#t6427"/></g></g></svg><svg x="1905" y="1593" height="9%" width="9%" viewBox="0 0 330 330"><g><a xlink:href="https://nftpuzzle.license-token.com/" class="links"><title>See the most innovative NFT based token software licensing project</title><path fill="#E4CF37" id="more" d="M165,0C74.019,0,0,74.019,0,165s74.019,165,165,165s165-74.019,165-165S255.981,0,165,0z M85,190 c-13.785,0-25-11.215-25-25s11.215-25,25-25s25,11.215,25,25S98.785,190,85,190z M165,190c-13.785,0-25-11.215-25-25 s11.215-25,25-25s25,11.215,25,25S178.785,190,165,190z M245,190c-13.785,0-25-11.215-25-25s11.215-25,25-25 c13.785,0,25,11.215,25,25S258.785,190,245,190z"></path></a></g></svg></svg></svg>