<svg version="1.1" xmlns="http://www.w3.org/2000/svg" xmlns:xlink="http://www.w3.org/1999/xlink" fill="transparent" x="0" y="0" width="350" height="350" preserveAspectRatio="xMinYMin slice"><style type="text/css">.links{fill:transparent;stroke: #E4CF37;}.links:hover{fill:#63D272; opacity:0.4;}</style><defs><g id="allt"><path id="t6433" d="M2112,1568 L2101,1568 C2091,1568 2105,1576 2095,1577 C2085,1579 2098,1568 2088,1568 L2079,1568 2079,1568 L2079,1577 C2079,1587 2073,1575 2073,1583 C2074,1592 2079,1579 2079,1589 L2079,1600 2079,1600 L2089,1600 C2099,1600 2086,1594 2094,1594 C2103,1595 2090,1600 2101,1600 L2112,1600 2112,1600 L2112,1590 C2112,1581 2105,1592 2105,1583 C2106,1574 2112,1586 2112,1577 L2112,1568"/></g><clipPath id="c" clipRule="evenodd" fill="transparent"><use href="#t6433"/></clipPath></defs><svg viewBox="2072 1567 41 34" preserveAspectRatio="xMinYMin meet"><svg width="4380" height="2430"><g><image crossorigin="anonymous" x="0" y="0" href="https://nftpuzzle.license-token.com/assets/completepuzzle.svg" width="100%" height="100%" /><g class="links"><use href="#t6433"/></g></g></svg><svg x="2098" y="1586" height="9%" width="9%" viewBox="0 0 330 330"><g><a xlink:href="https://nftpuzzle.license-token.com/" class="links"><title>See the most innovative NFT based token software licensing project</title><path fill="#E4CF37" id="more" d="M165,0C74.019,0,0,74.019,0,165s74.019,165,165,165s165-74.019,165-165S255.981,0,165,0z M85,190 c-13.785,0-25-11.215-25-25s11.215-25,25-25s25,11.215,25,25S98.785,190,85,190z M165,190c-13.785,0-25-11.215-25-25 s11.215-25,25-25s25,11.215,25,25S178.785,190,165,190z M245,190c-13.785,0-25-11.215-25-25s11.215-25,25-25 c13.785,0,25,11.215,25,25S258.785,190,245,190z"></path></a></g></svg></svg></svg>