<svg version="1.1" xmlns="http://www.w3.org/2000/svg" xmlns:xlink="http://www.w3.org/1999/xlink" fill="transparent" x="0" y="0" width="350" height="350" preserveAspectRatio="xMinYMin slice"><style type="text/css">.links{fill:transparent;stroke: #E4CF37;}.links:hover{fill:#63D272; opacity:0.4;}</style><defs><g id="allt"><path id="t6438" d="M2277,1568 L2267,1568 C2257,1569 2270,1563 2259,1562 C2249,1561 2263,1569 2253,1568 L2244,1568 2244,1568 L2243,1578 C2243,1589 2249,1577 2248,1584 C2248,1592 2241,1578 2242,1589 L2244,1600 2244,1600 L2254,1599 C2265,1599 2253,1605 2261,1604 C2269,1604 2255,1597 2266,1598 L2277,1600 2277,1600 L2277,1590 C2277,1580 2275,1595 2275,1584 C2275,1574 2277,1589 2277,1578 L2277,1568"/></g><clipPath id="c" clipRule="evenodd" fill="transparent"><use href="#t6438"/></clipPath></defs><svg viewBox="2240 1560 38 46" preserveAspectRatio="xMinYMin meet"><svg width="4380" height="2430"><g><image crossorigin="anonymous" x="0" y="0" href="https://nftpuzzle.license-token.com/assets/completepuzzle.svg" width="100%" height="100%" /><g class="links"><use href="#t6438"/></g></g></svg><svg x="2263" y="1591" height="9%" width="9%" viewBox="0 0 330 330"><g><a xlink:href="https://nftpuzzle.license-token.com/" class="links"><title>See the most innovative NFT based token software licensing project</title><path fill="#E4CF37" id="more" d="M165,0C74.019,0,0,74.019,0,165s74.019,165,165,165s165-74.019,165-165S255.981,0,165,0z M85,190 c-13.785,0-25-11.215-25-25s11.215-25,25-25s25,11.215,25,25S98.785,190,85,190z M165,190c-13.785,0-25-11.215-25-25 s11.215-25,25-25s25,11.215,25,25S178.785,190,165,190z M245,190c-13.785,0-25-11.215-25-25s11.215-25,25-25 c13.785,0,25,11.215,25,25S258.785,190,245,190z"></path></a></g></svg></svg></svg>