<svg version="1.1" xmlns="http://www.w3.org/2000/svg" xmlns:xlink="http://www.w3.org/1999/xlink" fill="transparent" x="0" y="0" width="350" height="350" preserveAspectRatio="xMinYMin slice"><style type="text/css">.links{fill:transparent;stroke: #E4CF37;}.links:hover{fill:#63D272; opacity:0.4;}</style><defs><g id="allt"><path id="t644" d="M4125,128 L4114,130 C4103,132 4118,119 4107,119 C4097,120 4111,129 4101,128 L4092,128 4092,128 L4092,136 C4093,145 4085,133 4085,142 C4085,152 4096,139 4094,149 L4092,160 4092,160 L4101,160 C4110,161 4097,153 4107,153 C4117,153 4103,164 4114,162 L4125,160 4125,160 L4125,150 C4125,141 4121,152 4122,143 C4123,135 4126,148 4125,138 L4125,128"/></g><clipPath id="c" clipRule="evenodd" fill="transparent"><use href="#t644"/></clipPath></defs><svg viewBox="4084 118 43 47" preserveAspectRatio="xMinYMin meet"><svg width="4380" height="2430"><g><image crossorigin="anonymous" x="0" y="0" href="https://nftpuzzle.license-token.com/assets/completepuzzle.svg" width="100%" height="100%" /><g class="links"><use href="#t644"/></g></g></svg><svg x="4112" y="150" height="9%" width="9%" viewBox="0 0 330 330"><g><a xlink:href="https://nftpuzzle.license-token.com/" class="links"><title>See the most innovative NFT based token software licensing project</title><path fill="#E4CF37" id="more" d="M165,0C74.019,0,0,74.019,0,165s74.019,165,165,165s165-74.019,165-165S255.981,0,165,0z M85,190 c-13.785,0-25-11.215-25-25s11.215-25,25-25s25,11.215,25,25S98.785,190,85,190z M165,190c-13.785,0-25-11.215-25-25 s11.215-25,25-25s25,11.215,25,25S178.785,190,165,190z M245,190c-13.785,0-25-11.215-25-25s11.215-25,25-25 c13.785,0,25,11.215,25,25S258.785,190,245,190z"></path></a></g></svg></svg></svg>