<svg version="1.1" xmlns="http://www.w3.org/2000/svg" xmlns:xlink="http://www.w3.org/1999/xlink" fill="transparent" x="0" y="0" width="350" height="350" preserveAspectRatio="xMinYMin slice"><style type="text/css">.links{fill:transparent;stroke: #E4CF37;}.links:hover{fill:#63D272; opacity:0.4;}</style><defs><g id="allt"><path id="t6442" d="M2409,1568 L2398,1568 C2388,1568 2401,1566 2393,1566 C2385,1566 2397,1569 2386,1568 L2376,1568 2376,1568 L2375,1577 C2375,1586 2380,1575 2379,1584 C2379,1593 2376,1581 2376,1590 L2376,1600 2376,1600 L2385,1599 C2395,1599 2383,1604 2392,1603 C2402,1603 2389,1600 2399,1600 L2409,1600 2409,1600 L2411,1590 C2413,1580 2400,1592 2401,1582 C2402,1573 2411,1585 2410,1576 L2409,1568"/></g><clipPath id="c" clipRule="evenodd" fill="transparent"><use href="#t6442"/></clipPath></defs><svg viewBox="2374 1565 40 40" preserveAspectRatio="xMinYMin meet"><svg width="4380" height="2430"><g><image crossorigin="anonymous" x="0" y="0" href="https://nftpuzzle.license-token.com/assets/completepuzzle.svg" width="100%" height="100%" /><g class="links"><use href="#t6442"/></g></g></svg><svg x="2399" y="1590" height="9%" width="9%" viewBox="0 0 330 330"><g><a xlink:href="https://nftpuzzle.license-token.com/" class="links"><title>See the most innovative NFT based token software licensing project</title><path fill="#E4CF37" id="more" d="M165,0C74.019,0,0,74.019,0,165s74.019,165,165,165s165-74.019,165-165S255.981,0,165,0z M85,190 c-13.785,0-25-11.215-25-25s11.215-25,25-25s25,11.215,25,25S98.785,190,85,190z M165,190c-13.785,0-25-11.215-25-25 s11.215-25,25-25s25,11.215,25,25S178.785,190,165,190z M245,190c-13.785,0-25-11.215-25-25s11.215-25,25-25 c13.785,0,25,11.215,25,25S258.785,190,245,190z"></path></a></g></svg></svg></svg>