<svg version="1.1" xmlns="http://www.w3.org/2000/svg" xmlns:xlink="http://www.w3.org/1999/xlink" fill="transparent" x="0" y="0" width="350" height="350" preserveAspectRatio="xMinYMin slice"><style type="text/css">.links{fill:transparent;stroke: #E4CF37;}.links:hover{fill:#63D272; opacity:0.4;}</style><defs><g id="allt"><path id="t6443" d="M2442,1568 L2431,1567 C2421,1566 2433,1578 2425,1576 C2418,1574 2429,1567 2419,1567 L2409,1568 2409,1568 L2410,1576 C2411,1585 2402,1573 2401,1582 C2400,1592 2413,1580 2411,1590 L2409,1600 2409,1600 L2418,1601 C2427,1602 2414,1593 2424,1592 C2434,1592 2421,1604 2431,1602 L2442,1600 2442,1600 L2442,1590 C2442,1581 2433,1595 2435,1584 C2437,1573 2444,1589 2443,1578 L2442,1568"/></g><clipPath id="c" clipRule="evenodd" fill="transparent"><use href="#t6443"/></clipPath></defs><svg viewBox="2399 1565 46 40" preserveAspectRatio="xMinYMin meet"><svg width="4380" height="2430"><g><image crossorigin="anonymous" x="0" y="0" href="https://nftpuzzle.license-token.com/assets/completepuzzle.svg" width="100%" height="100%" /><g class="links"><use href="#t6443"/></g></g></svg><svg x="2430" y="1590" height="9%" width="9%" viewBox="0 0 330 330"><g><a xlink:href="https://nftpuzzle.license-token.com/" class="links"><title>See the most innovative NFT based token software licensing project</title><path fill="#E4CF37" id="more" d="M165,0C74.019,0,0,74.019,0,165s74.019,165,165,165s165-74.019,165-165S255.981,0,165,0z M85,190 c-13.785,0-25-11.215-25-25s11.215-25,25-25s25,11.215,25,25S98.785,190,85,190z M165,190c-13.785,0-25-11.215-25-25 s11.215-25,25-25s25,11.215,25,25S178.785,190,165,190z M245,190c-13.785,0-25-11.215-25-25s11.215-25,25-25 c13.785,0,25,11.215,25,25S258.785,190,245,190z"></path></a></g></svg></svg></svg>