<svg version="1.1" xmlns="http://www.w3.org/2000/svg" xmlns:xlink="http://www.w3.org/1999/xlink" fill="transparent" x="0" y="0" width="350" height="350" preserveAspectRatio="xMinYMin slice"><style type="text/css">.links{fill:transparent;stroke: #E4CF37;}.links:hover{fill:#63D272; opacity:0.4;}</style><defs><g id="allt"><path id="t6446" d="M2541,1568 L2530,1568 C2520,1568 2532,1559 2524,1559 C2516,1560 2526,1571 2517,1569 L2508,1568 2508,1568 L2510,1577 C2513,1587 2497,1576 2498,1584 C2500,1592 2510,1579 2509,1589 L2508,1600 2508,1600 L2518,1602 C2528,1605 2516,1590 2524,1591 C2533,1592 2519,1602 2530,1601 L2541,1600 2541,1600 L2541,1590 C2541,1580 2531,1593 2531,1582 C2531,1572 2544,1589 2542,1578 L2541,1568"/></g><clipPath id="c" clipRule="evenodd" fill="transparent"><use href="#t6446"/></clipPath></defs><svg viewBox="2496 1558 49 48" preserveAspectRatio="xMinYMin meet"><svg width="4380" height="2430"><g><image crossorigin="anonymous" x="0" y="0" href="https://nftpuzzle.license-token.com/assets/completepuzzle.svg" width="100%" height="100%" /><g class="links"><use href="#t6446"/></g></g></svg><svg x="2530" y="1591" height="9%" width="9%" viewBox="0 0 330 330"><g><a xlink:href="https://nftpuzzle.license-token.com/" class="links"><title>See the most innovative NFT based token software licensing project</title><path fill="#E4CF37" id="more" d="M165,0C74.019,0,0,74.019,0,165s74.019,165,165,165s165-74.019,165-165S255.981,0,165,0z M85,190 c-13.785,0-25-11.215-25-25s11.215-25,25-25s25,11.215,25,25S98.785,190,85,190z M165,190c-13.785,0-25-11.215-25-25 s11.215-25,25-25s25,11.215,25,25S178.785,190,165,190z M245,190c-13.785,0-25-11.215-25-25s11.215-25,25-25 c13.785,0,25,11.215,25,25S258.785,190,245,190z"></path></a></g></svg></svg></svg>