<svg version="1.1" xmlns="http://www.w3.org/2000/svg" xmlns:xlink="http://www.w3.org/1999/xlink" fill="transparent" x="0" y="0" width="350" height="350" preserveAspectRatio="xMinYMin slice"><style type="text/css">.links{fill:transparent;stroke: #E4CF37;}.links:hover{fill:#63D272; opacity:0.4;}</style><defs><g id="allt"><path id="t6449" d="M2640,1568 L2630,1567 C2621,1567 2630,1572 2622,1571 C2614,1571 2625,1568 2616,1568 L2607,1568 2607,1568 L2607,1577 C2608,1586 2604,1575 2603,1585 C2602,1595 2607,1582 2607,1591 L2607,1600 2607,1600 L2616,1600 C2625,1601 2614,1597 2624,1596 C2635,1595 2621,1600 2630,1600 L2640,1600 2640,1600 L2640,1589 C2640,1578 2636,1593 2636,1585 C2637,1577 2641,1588 2640,1578 L2640,1568"/></g><clipPath id="c" clipRule="evenodd" fill="transparent"><use href="#t6449"/></clipPath></defs><svg viewBox="2601 1566 41 36" preserveAspectRatio="xMinYMin meet"><svg width="4380" height="2430"><g><image crossorigin="anonymous" x="0" y="0" href="https://nftpuzzle.license-token.com/assets/completepuzzle.svg" width="100%" height="100%" /><g class="links"><use href="#t6449"/></g></g></svg><svg x="2627" y="1587" height="9%" width="9%" viewBox="0 0 330 330"><g><a xlink:href="https://nftpuzzle.license-token.com/" class="links"><title>See the most innovative NFT based token software licensing project</title><path fill="#E4CF37" id="more" d="M165,0C74.019,0,0,74.019,0,165s74.019,165,165,165s165-74.019,165-165S255.981,0,165,0z M85,190 c-13.785,0-25-11.215-25-25s11.215-25,25-25s25,11.215,25,25S98.785,190,85,190z M165,190c-13.785,0-25-11.215-25-25 s11.215-25,25-25s25,11.215,25,25S178.785,190,165,190z M245,190c-13.785,0-25-11.215-25-25s11.215-25,25-25 c13.785,0,25,11.215,25,25S258.785,190,245,190z"></path></a></g></svg></svg></svg>