<svg version="1.1" xmlns="http://www.w3.org/2000/svg" xmlns:xlink="http://www.w3.org/1999/xlink" fill="transparent" x="0" y="0" width="350" height="350" preserveAspectRatio="xMinYMin slice"><style type="text/css">.links{fill:transparent;stroke: #E4CF37;}.links:hover{fill:#63D272; opacity:0.4;}</style><defs><g id="allt"><path id="t6450" d="M2673,1568 L2662,1568 C2651,1568 2667,1565 2656,1564 C2645,1564 2661,1568 2650,1568 L2640,1568 2640,1568 L2640,1578 C2641,1588 2637,1577 2636,1585 C2636,1593 2640,1578 2640,1589 L2640,1600 2640,1600 L2650,1600 C2661,1601 2649,1597 2657,1596 C2666,1596 2651,1600 2662,1600 L2673,1600 2673,1600 L2673,1589 C2673,1579 2670,1592 2669,1582 C2669,1573 2673,1586 2673,1577 L2673,1568"/></g><clipPath id="c" clipRule="evenodd" fill="transparent"><use href="#t6450"/></clipPath></defs><svg viewBox="2635 1563 39 39" preserveAspectRatio="xMinYMin meet"><svg width="4380" height="2430"><g><image crossorigin="anonymous" x="0" y="0" href="https://nftpuzzle.license-token.com/assets/completepuzzle.svg" width="100%" height="100%" /><g class="links"><use href="#t6450"/></g></g></svg><svg x="2659" y="1587" height="9%" width="9%" viewBox="0 0 330 330"><g><a xlink:href="https://nftpuzzle.license-token.com/" class="links"><title>See the most innovative NFT based token software licensing project</title><path fill="#E4CF37" id="more" d="M165,0C74.019,0,0,74.019,0,165s74.019,165,165,165s165-74.019,165-165S255.981,0,165,0z M85,190 c-13.785,0-25-11.215-25-25s11.215-25,25-25s25,11.215,25,25S98.785,190,85,190z M165,190c-13.785,0-25-11.215-25-25 s11.215-25,25-25s25,11.215,25,25S178.785,190,165,190z M245,190c-13.785,0-25-11.215-25-25s11.215-25,25-25 c13.785,0,25,11.215,25,25S258.785,190,245,190z"></path></a></g></svg></svg></svg>