<svg version="1.1" xmlns="http://www.w3.org/2000/svg" xmlns:xlink="http://www.w3.org/1999/xlink" fill="transparent" x="0" y="0" width="350" height="350" preserveAspectRatio="xMinYMin slice"><style type="text/css">.links{fill:transparent;stroke: #E4CF37;}.links:hover{fill:#63D272; opacity:0.4;}</style><defs><g id="allt"><path id="t6452" d="M2739,1568 L2729,1568 C2720,1568 2731,1563 2721,1562 C2712,1561 2727,1568 2716,1568 L2706,1568 2706,1568 L2706,1578 C2706,1588 2698,1575 2698,1582 C2698,1590 2706,1580 2706,1590 L2706,1600 2706,1600 L2716,1600 C2727,1600 2713,1592 2721,1592 C2729,1592 2718,1600 2728,1600 L2739,1600 2739,1600 L2739,1590 C2739,1581 2744,1591 2744,1582 C2745,1573 2739,1588 2739,1578 L2739,1568"/></g><clipPath id="c" clipRule="evenodd" fill="transparent"><use href="#t6452"/></clipPath></defs><svg viewBox="2697 1560 49 41" preserveAspectRatio="xMinYMin meet"><svg width="4380" height="2430"><g><image crossorigin="anonymous" x="0" y="0" href="https://nftpuzzle.license-token.com/assets/completepuzzle.svg" width="100%" height="100%" /><g class="links"><use href="#t6452"/></g></g></svg><svg x="2731" y="1586" height="9%" width="9%" viewBox="0 0 330 330"><g><a xlink:href="https://nftpuzzle.license-token.com/" class="links"><title>See the most innovative NFT based token software licensing project</title><path fill="#E4CF37" id="more" d="M165,0C74.019,0,0,74.019,0,165s74.019,165,165,165s165-74.019,165-165S255.981,0,165,0z M85,190 c-13.785,0-25-11.215-25-25s11.215-25,25-25s25,11.215,25,25S98.785,190,85,190z M165,190c-13.785,0-25-11.215-25-25 s11.215-25,25-25s25,11.215,25,25S178.785,190,165,190z M245,190c-13.785,0-25-11.215-25-25s11.215-25,25-25 c13.785,0,25,11.215,25,25S258.785,190,245,190z"></path></a></g></svg></svg></svg>