<svg version="1.1" xmlns="http://www.w3.org/2000/svg" xmlns:xlink="http://www.w3.org/1999/xlink" fill="transparent" x="0" y="0" width="350" height="350" preserveAspectRatio="xMinYMin slice"><style type="text/css">.links{fill:transparent;stroke: #E4CF37;}.links:hover{fill:#63D272; opacity:0.4;}</style><defs><g id="allt"><path id="t646" d="M4191,128 L4180,128 C4170,128 4185,130 4173,130 C4162,131 4180,128 4169,128 L4158,128 4158,128 L4158,136 C4159,145 4152,134 4151,143 C4150,152 4160,140 4159,150 L4158,160 4158,160 L4167,160 C4176,161 4164,154 4173,153 C4182,152 4170,162 4180,161 L4191,160 4191,160 L4192,149 C4193,138 4184,154 4184,144 C4185,135 4191,146 4191,137 L4191,128"/></g><clipPath id="c" clipRule="evenodd" fill="transparent"><use href="#t646"/></clipPath></defs><svg viewBox="4149 127 45 36" preserveAspectRatio="xMinYMin meet"><svg width="4380" height="2430"><g><image crossorigin="anonymous" x="0" y="0" href="https://nftpuzzle.license-token.com/assets/completepuzzle.svg" width="100%" height="100%" /><g class="links"><use href="#t646"/></g></g></svg><svg x="4179" y="148" height="9%" width="9%" viewBox="0 0 330 330"><g><a xlink:href="https://nftpuzzle.license-token.com/" class="links"><title>See the most innovative NFT based token software licensing project</title><path fill="#E4CF37" id="more" d="M165,0C74.019,0,0,74.019,0,165s74.019,165,165,165s165-74.019,165-165S255.981,0,165,0z M85,190 c-13.785,0-25-11.215-25-25s11.215-25,25-25s25,11.215,25,25S98.785,190,85,190z M165,190c-13.785,0-25-11.215-25-25 s11.215-25,25-25s25,11.215,25,25S178.785,190,165,190z M245,190c-13.785,0-25-11.215-25-25s11.215-25,25-25 c13.785,0,25,11.215,25,25S258.785,190,245,190z"></path></a></g></svg></svg></svg>