<svg version="1.1" xmlns="http://www.w3.org/2000/svg" xmlns:xlink="http://www.w3.org/1999/xlink" fill="transparent" x="0" y="0" width="350" height="350" preserveAspectRatio="xMinYMin slice"><style type="text/css">.links{fill:transparent;stroke: #E4CF37;}.links:hover{fill:#63D272; opacity:0.4;}</style><defs><g id="allt"><path id="t6462" d="M3069,1568 L3058,1570 C3047,1572 3060,1561 3050,1560 C3041,1559 3056,1568 3046,1568 L3036,1568 3036,1568 L3036,1577 C3036,1586 3044,1575 3045,1583 C3046,1592 3031,1582 3033,1591 L3036,1600 3036,1600 L3045,1600 C3055,1600 3043,1608 3052,1609 C3061,1610 3050,1595 3059,1597 L3069,1600 3069,1600 L3068,1589 C3067,1578 3073,1591 3072,1583 C3072,1576 3067,1587 3068,1577 L3069,1568"/></g><clipPath id="c" clipRule="evenodd" fill="transparent"><use href="#t6462"/></clipPath></defs><svg viewBox="3030 1558 44 53" preserveAspectRatio="xMinYMin meet"><svg width="4380" height="2430"><g><image crossorigin="anonymous" x="0" y="0" href="https://nftpuzzle.license-token.com/assets/completepuzzle.svg" width="100%" height="100%" /><g class="links"><use href="#t6462"/></g></g></svg><svg x="3059" y="1596" height="9%" width="9%" viewBox="0 0 330 330"><g><a xlink:href="https://nftpuzzle.license-token.com/" class="links"><title>See the most innovative NFT based token software licensing project</title><path fill="#E4CF37" id="more" d="M165,0C74.019,0,0,74.019,0,165s74.019,165,165,165s165-74.019,165-165S255.981,0,165,0z M85,190 c-13.785,0-25-11.215-25-25s11.215-25,25-25s25,11.215,25,25S98.785,190,85,190z M165,190c-13.785,0-25-11.215-25-25 s11.215-25,25-25s25,11.215,25,25S178.785,190,165,190z M245,190c-13.785,0-25-11.215-25-25s11.215-25,25-25 c13.785,0,25,11.215,25,25S258.785,190,245,190z"></path></a></g></svg></svg></svg>