<svg version="1.1" xmlns="http://www.w3.org/2000/svg" xmlns:xlink="http://www.w3.org/1999/xlink" fill="transparent" x="0" y="0" width="350" height="350" preserveAspectRatio="xMinYMin slice"><style type="text/css">.links{fill:transparent;stroke: #E4CF37;}.links:hover{fill:#63D272; opacity:0.4;}</style><defs><g id="allt"><path id="t6464" d="M3135,1568 L3124,1568 C3114,1568 3125,1572 3116,1571 C3108,1570 3123,1567 3112,1567 L3102,1568 3102,1568 L3102,1577 C3102,1587 3104,1576 3105,1584 C3106,1592 3101,1578 3101,1589 L3102,1600 3102,1600 L3111,1600 C3121,1600 3110,1602 3118,1603 C3126,1604 3113,1599 3124,1599 L3135,1600 3135,1600 L3136,1590 C3138,1580 3128,1592 3126,1584 C3125,1576 3136,1589 3135,1578 L3135,1568"/></g><clipPath id="c" clipRule="evenodd" fill="transparent"><use href="#t6464"/></clipPath></defs><svg viewBox="3100 1566 39 39" preserveAspectRatio="xMinYMin meet"><svg width="4380" height="2430"><g><image crossorigin="anonymous" x="0" y="0" href="https://nftpuzzle.license-token.com/assets/completepuzzle.svg" width="100%" height="100%" /><g class="links"><use href="#t6464"/></g></g></svg><svg x="3124" y="1590" height="9%" width="9%" viewBox="0 0 330 330"><g><a xlink:href="https://nftpuzzle.license-token.com/" class="links"><title>See the most innovative NFT based token software licensing project</title><path fill="#E4CF37" id="more" d="M165,0C74.019,0,0,74.019,0,165s74.019,165,165,165s165-74.019,165-165S255.981,0,165,0z M85,190 c-13.785,0-25-11.215-25-25s11.215-25,25-25s25,11.215,25,25S98.785,190,85,190z M165,190c-13.785,0-25-11.215-25-25 s11.215-25,25-25s25,11.215,25,25S178.785,190,165,190z M245,190c-13.785,0-25-11.215-25-25s11.215-25,25-25 c13.785,0,25,11.215,25,25S258.785,190,245,190z"></path></a></g></svg></svg></svg>