<svg version="1.1" xmlns="http://www.w3.org/2000/svg" xmlns:xlink="http://www.w3.org/1999/xlink" fill="transparent" x="0" y="0" width="350" height="350" preserveAspectRatio="xMinYMin slice"><style type="text/css">.links{fill:transparent;stroke: #E4CF37;}.links:hover{fill:#63D272; opacity:0.4;}</style><defs><g id="allt"><path id="t6466" d="M3201,1568 L3190,1568 C3179,1569 3194,1566 3184,1566 C3174,1566 3187,1568 3177,1568 L3168,1568 3168,1568 L3170,1577 C3172,1587 3162,1574 3162,1583 C3162,1593 3172,1582 3170,1591 L3168,1600 3168,1600 L3178,1602 C3188,1604 3174,1594 3184,1594 C3194,1594 3182,1604 3191,1602 L3201,1600 3201,1600 L3200,1589 C3199,1579 3204,1592 3204,1583 C3205,1575 3200,1587 3200,1577 L3201,1568"/></g><clipPath id="c" clipRule="evenodd" fill="transparent"><use href="#t6466"/></clipPath></defs><svg viewBox="3161 1565 45 40" preserveAspectRatio="xMinYMin meet"><svg width="4380" height="2430"><g><image crossorigin="anonymous" x="0" y="0" href="https://nftpuzzle.license-token.com/assets/completepuzzle.svg" width="100%" height="100%" /><g class="links"><use href="#t6466"/></g></g></svg><svg x="3191" y="1590" height="9%" width="9%" viewBox="0 0 330 330"><g><a xlink:href="https://nftpuzzle.license-token.com/" class="links"><title>See the most innovative NFT based token software licensing project</title><path fill="#E4CF37" id="more" d="M165,0C74.019,0,0,74.019,0,165s74.019,165,165,165s165-74.019,165-165S255.981,0,165,0z M85,190 c-13.785,0-25-11.215-25-25s11.215-25,25-25s25,11.215,25,25S98.785,190,85,190z M165,190c-13.785,0-25-11.215-25-25 s11.215-25,25-25s25,11.215,25,25S178.785,190,165,190z M245,190c-13.785,0-25-11.215-25-25s11.215-25,25-25 c13.785,0,25,11.215,25,25S258.785,190,245,190z"></path></a></g></svg></svg></svg>