<svg version="1.1" xmlns="http://www.w3.org/2000/svg" xmlns:xlink="http://www.w3.org/1999/xlink" fill="transparent" x="0" y="0" width="350" height="350" preserveAspectRatio="xMinYMin slice"><style type="text/css">.links{fill:transparent;stroke: #E4CF37;}.links:hover{fill:#63D272; opacity:0.4;}</style><defs><g id="allt"><path id="t6474" d="M3465,1568 L3455,1568 C3446,1568 3455,1563 3446,1562 C3438,1562 3453,1569 3442,1568 L3432,1568 3432,1568 L3434,1578 C3436,1588 3422,1576 3421,1584 C3420,1592 3437,1579 3434,1589 L3432,1600 3432,1600 L3442,1602 C3453,1604 3441,1590 3448,1589 C3456,1588 3443,1605 3454,1602 L3465,1600 3465,1600 L3463,1590 C3461,1581 3478,1591 3478,1583 C3478,1576 3459,1586 3462,1577 L3465,1568"/></g><clipPath id="c" clipRule="evenodd" fill="transparent"><use href="#t6474"/></clipPath></defs><svg viewBox="3419 1561 60 45" preserveAspectRatio="xMinYMin meet"><svg width="4380" height="2430"><g><image crossorigin="anonymous" x="0" y="0" href="https://nftpuzzle.license-token.com/assets/completepuzzle.svg" width="100%" height="100%" /><g class="links"><use href="#t6474"/></g></g></svg><svg x="3464" y="1591" height="9%" width="9%" viewBox="0 0 330 330"><g><a xlink:href="https://nftpuzzle.license-token.com/" class="links"><title>See the most innovative NFT based token software licensing project</title><path fill="#E4CF37" id="more" d="M165,0C74.019,0,0,74.019,0,165s74.019,165,165,165s165-74.019,165-165S255.981,0,165,0z M85,190 c-13.785,0-25-11.215-25-25s11.215-25,25-25s25,11.215,25,25S98.785,190,85,190z M165,190c-13.785,0-25-11.215-25-25 s11.215-25,25-25s25,11.215,25,25S178.785,190,165,190z M245,190c-13.785,0-25-11.215-25-25s11.215-25,25-25 c13.785,0,25,11.215,25,25S258.785,190,245,190z"></path></a></g></svg></svg></svg>