<svg version="1.1" xmlns="http://www.w3.org/2000/svg" xmlns:xlink="http://www.w3.org/1999/xlink" fill="transparent" x="0" y="0" width="350" height="350" preserveAspectRatio="xMinYMin slice"><style type="text/css">.links{fill:transparent;stroke: #E4CF37;}.links:hover{fill:#63D272; opacity:0.4;}</style><defs><g id="allt"><path id="t6475" d="M3498,1568 L3487,1569 C3476,1570 3488,1557 3479,1558 C3470,1559 3486,1571 3475,1569 L3465,1568 3465,1568 L3462,1577 C3459,1586 3478,1576 3478,1583 C3478,1591 3461,1581 3463,1590 L3465,1600 3465,1600 L3474,1597 C3484,1594 3473,1612 3481,1612 C3489,1612 3478,1596 3488,1598 L3498,1600 3498,1600 L3498,1589 C3499,1578 3491,1594 3491,1584 C3491,1574 3498,1589 3498,1578 L3498,1568"/></g><clipPath id="c" clipRule="evenodd" fill="transparent"><use href="#t6475"/></clipPath></defs><svg viewBox="3458 1556 42 57" preserveAspectRatio="xMinYMin meet"><svg width="4380" height="2430"><g><image crossorigin="anonymous" x="0" y="0" href="https://nftpuzzle.license-token.com/assets/completepuzzle.svg" width="100%" height="100%" /><g class="links"><use href="#t6475"/></g></g></svg><svg x="3485" y="1598" height="9%" width="9%" viewBox="0 0 330 330"><g><a xlink:href="https://nftpuzzle.license-token.com/" class="links"><title>See the most innovative NFT based token software licensing project</title><path fill="#E4CF37" id="more" d="M165,0C74.019,0,0,74.019,0,165s74.019,165,165,165s165-74.019,165-165S255.981,0,165,0z M85,190 c-13.785,0-25-11.215-25-25s11.215-25,25-25s25,11.215,25,25S98.785,190,85,190z M165,190c-13.785,0-25-11.215-25-25 s11.215-25,25-25s25,11.215,25,25S178.785,190,165,190z M245,190c-13.785,0-25-11.215-25-25s11.215-25,25-25 c13.785,0,25,11.215,25,25S258.785,190,245,190z"></path></a></g></svg></svg></svg>