<svg version="1.1" xmlns="http://www.w3.org/2000/svg" xmlns:xlink="http://www.w3.org/1999/xlink" fill="transparent" x="0" y="0" width="350" height="350" preserveAspectRatio="xMinYMin slice"><style type="text/css">.links{fill:transparent;stroke: #E4CF37;}.links:hover{fill:#63D272; opacity:0.4;}</style><defs><g id="allt"><path id="t6490" d="M3993,1568 L3982,1568 C3972,1568 3986,1566 3976,1565 C3966,1564 3980,1570 3970,1569 L3960,1568 3960,1568 L3960,1577 C3960,1587 3968,1577 3969,1583 C3970,1590 3958,1579 3959,1589 L3960,1600 3960,1600 L3969,1600 C3979,1600 3969,1608 3976,1608 C3983,1609 3971,1598 3982,1599 L3993,1600 3993,1600 L3994,1589 C3995,1578 3986,1592 3987,1584 C3988,1576 3995,1589 3994,1578 L3993,1568"/></g><clipPath id="c" clipRule="evenodd" fill="transparent"><use href="#t6490"/></clipPath></defs><svg viewBox="3957 1563 39 47" preserveAspectRatio="xMinYMin meet"><svg width="4380" height="2430"><g><image crossorigin="anonymous" x="0" y="0" href="https://nftpuzzle.license-token.com/assets/completepuzzle.svg" width="100%" height="100%" /><g class="links"><use href="#t6490"/></g></g></svg><svg x="3981" y="1595" height="9%" width="9%" viewBox="0 0 330 330"><g><a xlink:href="https://nftpuzzle.license-token.com/" class="links"><title>See the most innovative NFT based token software licensing project</title><path fill="#E4CF37" id="more" d="M165,0C74.019,0,0,74.019,0,165s74.019,165,165,165s165-74.019,165-165S255.981,0,165,0z M85,190 c-13.785,0-25-11.215-25-25s11.215-25,25-25s25,11.215,25,25S98.785,190,85,190z M165,190c-13.785,0-25-11.215-25-25 s11.215-25,25-25s25,11.215,25,25S178.785,190,165,190z M245,190c-13.785,0-25-11.215-25-25s11.215-25,25-25 c13.785,0,25,11.215,25,25S258.785,190,245,190z"></path></a></g></svg></svg></svg>