<svg version="1.1" xmlns="http://www.w3.org/2000/svg" xmlns:xlink="http://www.w3.org/1999/xlink" fill="transparent" x="0" y="0" width="350" height="350" preserveAspectRatio="xMinYMin slice"><style type="text/css">.links{fill:transparent;stroke: #E4CF37;}.links:hover{fill:#63D272; opacity:0.4;}</style><defs><g id="allt"><path id="t6495" d="M4158,1568 L4147,1568 C4136,1568 4151,1573 4141,1572 C4132,1571 4143,1568 4134,1568 L4125,1568 4125,1568 L4125,1578 C4125,1588 4131,1576 4129,1584 C4128,1593 4125,1578 4125,1589 L4125,1600 4125,1600 L4135,1600 C4146,1600 4133,1606 4142,1604 C4151,1603 4136,1600 4147,1600 L4158,1600 4158,1600 L4158,1589 C4158,1578 4161,1593 4162,1584 C4164,1575 4158,1585 4158,1576 L4158,1568"/></g><clipPath id="c" clipRule="evenodd" fill="transparent"><use href="#t6495"/></clipPath></defs><svg viewBox="4124 1567 41 40" preserveAspectRatio="xMinYMin meet"><svg width="4380" height="2430"><g><image crossorigin="anonymous" x="0" y="0" href="https://nftpuzzle.license-token.com/assets/completepuzzle.svg" width="100%" height="100%" /><g class="links"><use href="#t6495"/></g></g></svg><svg x="4150" y="1592" height="9%" width="9%" viewBox="0 0 330 330"><g><a xlink:href="https://nftpuzzle.license-token.com/" class="links"><title>See the most innovative NFT based token software licensing project</title><path fill="#E4CF37" id="more" d="M165,0C74.019,0,0,74.019,0,165s74.019,165,165,165s165-74.019,165-165S255.981,0,165,0z M85,190 c-13.785,0-25-11.215-25-25s11.215-25,25-25s25,11.215,25,25S98.785,190,85,190z M165,190c-13.785,0-25-11.215-25-25 s11.215-25,25-25s25,11.215,25,25S178.785,190,165,190z M245,190c-13.785,0-25-11.215-25-25s11.215-25,25-25 c13.785,0,25,11.215,25,25S258.785,190,245,190z"></path></a></g></svg></svg></svg>