<svg version="1.1" xmlns="http://www.w3.org/2000/svg" xmlns:xlink="http://www.w3.org/1999/xlink" fill="transparent" x="0" y="0" width="350" height="350" preserveAspectRatio="xMinYMin slice"><style type="text/css">.links{fill:transparent;stroke: #E4CF37;}.links:hover{fill:#63D272; opacity:0.4;}</style><defs><g id="allt"><path id="t6502" d="M99,1600 L88,1602 C77,1604 92,1589 83,1591 C74,1593 87,1605 76,1602 L66,1600 66,1600 L63,1608 C61,1617 80,1606 80,1614 C80,1623 63,1614 64,1623 L66,1632 66,1632 L75,1629 C84,1627 72,1645 81,1645 C90,1645 80,1629 89,1630 L99,1632 99,1632 L99,1621 C99,1611 89,1625 91,1615 C94,1605 100,1618 99,1609 L99,1600"/></g><clipPath id="c" clipRule="evenodd" fill="transparent"><use href="#t6502"/></clipPath></defs><svg viewBox="60 1588 41 58" preserveAspectRatio="xMinYMin meet"><svg width="4380" height="2430"><g><image crossorigin="anonymous" x="0" y="0" href="https://nftpuzzle.license-token.com/assets/completepuzzle.svg" width="100%" height="100%" /><g class="links"><use href="#t6502"/></g></g></svg><svg x="86" y="1631" height="9%" width="9%" viewBox="0 0 330 330"><g><a xlink:href="https://nftpuzzle.license-token.com/" class="links"><title>See the most innovative NFT based token software licensing project</title><path fill="#E4CF37" id="more" d="M165,0C74.019,0,0,74.019,0,165s74.019,165,165,165s165-74.019,165-165S255.981,0,165,0z M85,190 c-13.785,0-25-11.215-25-25s11.215-25,25-25s25,11.215,25,25S98.785,190,85,190z M165,190c-13.785,0-25-11.215-25-25 s11.215-25,25-25s25,11.215,25,25S178.785,190,165,190z M245,190c-13.785,0-25-11.215-25-25s11.215-25,25-25 c13.785,0,25,11.215,25,25S258.785,190,245,190z"></path></a></g></svg></svg></svg>