<svg version="1.1" xmlns="http://www.w3.org/2000/svg" xmlns:xlink="http://www.w3.org/1999/xlink" fill="transparent" x="0" y="0" width="350" height="350" preserveAspectRatio="xMinYMin slice"><style type="text/css">.links{fill:transparent;stroke: #E4CF37;}.links:hover{fill:#63D272; opacity:0.4;}</style><defs><g id="allt"><path id="t6505" d="M198,1600 L187,1598 C176,1596 190,1607 179,1608 C169,1610 185,1599 175,1599 L165,1600 165,1600 L165,1608 C165,1617 171,1605 171,1615 C171,1625 163,1614 164,1623 L165,1632 165,1632 L174,1632 C183,1632 170,1638 180,1638 C191,1638 179,1630 188,1631 L198,1632 198,1632 L197,1622 C196,1613 204,1624 204,1614 C205,1605 198,1619 198,1609 L198,1600"/></g><clipPath id="c" clipRule="evenodd" fill="transparent"><use href="#t6505"/></clipPath></defs><svg viewBox="162 1595 44 44" preserveAspectRatio="xMinYMin meet"><svg width="4380" height="2430"><g><image crossorigin="anonymous" x="0" y="0" href="https://nftpuzzle.license-token.com/assets/completepuzzle.svg" width="100%" height="100%" /><g class="links"><use href="#t6505"/></g></g></svg><svg x="191" y="1624" height="9%" width="9%" viewBox="0 0 330 330"><g><a xlink:href="https://nftpuzzle.license-token.com/" class="links"><title>See the most innovative NFT based token software licensing project</title><path fill="#E4CF37" id="more" d="M165,0C74.019,0,0,74.019,0,165s74.019,165,165,165s165-74.019,165-165S255.981,0,165,0z M85,190 c-13.785,0-25-11.215-25-25s11.215-25,25-25s25,11.215,25,25S98.785,190,85,190z M165,190c-13.785,0-25-11.215-25-25 s11.215-25,25-25s25,11.215,25,25S178.785,190,165,190z M245,190c-13.785,0-25-11.215-25-25s11.215-25,25-25 c13.785,0,25,11.215,25,25S258.785,190,245,190z"></path></a></g></svg></svg></svg>