<svg version="1.1" xmlns="http://www.w3.org/2000/svg" xmlns:xlink="http://www.w3.org/1999/xlink" fill="transparent" x="0" y="0" width="350" height="350" preserveAspectRatio="xMinYMin slice"><style type="text/css">.links{fill:transparent;stroke: #E4CF37;}.links:hover{fill:#63D272; opacity:0.4;}</style><defs><g id="allt"><path id="t6506" d="M231,1600 L220,1600 C209,1600 224,1593 215,1594 C206,1595 220,1601 209,1600 L198,1600 198,1600 L198,1609 C198,1619 205,1605 204,1614 C204,1624 196,1613 197,1622 L198,1632 198,1632 L207,1632 C217,1632 203,1639 213,1638 C223,1638 211,1630 221,1631 L231,1632 231,1632 L231,1621 C231,1610 237,1625 238,1614 C239,1604 229,1619 230,1609 L231,1600"/></g><clipPath id="c" clipRule="evenodd" fill="transparent"><use href="#t6506"/></clipPath></defs><svg viewBox="195 1592 45 48" preserveAspectRatio="xMinYMin meet"><svg width="4380" height="2430"><g><image crossorigin="anonymous" x="0" y="0" href="https://nftpuzzle.license-token.com/assets/completepuzzle.svg" width="100%" height="100%" /><g class="links"><use href="#t6506"/></g></g></svg><svg x="225" y="1625" height="9%" width="9%" viewBox="0 0 330 330"><g><a xlink:href="https://nftpuzzle.license-token.com/" class="links"><title>See the most innovative NFT based token software licensing project</title><path fill="#E4CF37" id="more" d="M165,0C74.019,0,0,74.019,0,165s74.019,165,165,165s165-74.019,165-165S255.981,0,165,0z M85,190 c-13.785,0-25-11.215-25-25s11.215-25,25-25s25,11.215,25,25S98.785,190,85,190z M165,190c-13.785,0-25-11.215-25-25 s11.215-25,25-25s25,11.215,25,25S178.785,190,165,190z M245,190c-13.785,0-25-11.215-25-25s11.215-25,25-25 c13.785,0,25,11.215,25,25S258.785,190,245,190z"></path></a></g></svg></svg></svg>