<svg version="1.1" xmlns="http://www.w3.org/2000/svg" xmlns:xlink="http://www.w3.org/1999/xlink" fill="transparent" x="0" y="0" width="350" height="350" preserveAspectRatio="xMinYMin slice"><style type="text/css">.links{fill:transparent;stroke: #E4CF37;}.links:hover{fill:#63D272; opacity:0.4;}</style><defs><g id="allt"><path id="t6508" d="M297,1600 L287,1599 C278,1599 287,1605 279,1605 C272,1606 285,1598 274,1599 L264,1600 264,1600 L264,1609 C264,1619 256,1608 257,1616 C258,1624 267,1613 265,1622 L264,1632 264,1632 L273,1632 C283,1632 272,1624 280,1625 C289,1626 278,1635 287,1633 L297,1632 297,1632 L295,1621 C294,1611 307,1627 305,1616 C304,1606 295,1618 296,1609 L297,1600"/></g><clipPath id="c" clipRule="evenodd" fill="transparent"><use href="#t6508"/></clipPath></defs><svg viewBox="255 1597 53 39" preserveAspectRatio="xMinYMin meet"><svg width="4380" height="2430"><g><image crossorigin="anonymous" x="0" y="0" href="https://nftpuzzle.license-token.com/assets/completepuzzle.svg" width="100%" height="100%" /><g class="links"><use href="#t6508"/></g></g></svg><svg x="293" y="1621" height="9%" width="9%" viewBox="0 0 330 330"><g><a xlink:href="https://nftpuzzle.license-token.com/" class="links"><title>See the most innovative NFT based token software licensing project</title><path fill="#E4CF37" id="more" d="M165,0C74.019,0,0,74.019,0,165s74.019,165,165,165s165-74.019,165-165S255.981,0,165,0z M85,190 c-13.785,0-25-11.215-25-25s11.215-25,25-25s25,11.215,25,25S98.785,190,85,190z M165,190c-13.785,0-25-11.215-25-25 s11.215-25,25-25s25,11.215,25,25S178.785,190,165,190z M245,190c-13.785,0-25-11.215-25-25s11.215-25,25-25 c13.785,0,25,11.215,25,25S258.785,190,245,190z"></path></a></g></svg></svg></svg>