<svg version="1.1" xmlns="http://www.w3.org/2000/svg" xmlns:xlink="http://www.w3.org/1999/xlink" fill="transparent" x="0" y="0" width="350" height="350" preserveAspectRatio="xMinYMin slice"><style type="text/css">.links{fill:transparent;stroke: #E4CF37;}.links:hover{fill:#63D272; opacity:0.4;}</style><defs><g id="allt"><path id="t6509" d="M330,1600 L319,1599 C309,1599 322,1605 313,1604 C304,1603 317,1600 307,1600 L297,1600 297,1600 L296,1609 C295,1618 304,1606 305,1616 C307,1627 294,1611 295,1621 L297,1632 297,1632 L306,1631 C316,1630 303,1639 314,1640 C325,1641 308,1629 319,1630 L330,1632 330,1632 L330,1622 C331,1612 325,1623 325,1614 C325,1606 330,1620 330,1610 L330,1600"/></g><clipPath id="c" clipRule="evenodd" fill="transparent"><use href="#t6509"/></clipPath></defs><svg viewBox="293 1598 39 44" preserveAspectRatio="xMinYMin meet"><svg width="4380" height="2430"><g><image crossorigin="anonymous" x="0" y="0" href="https://nftpuzzle.license-token.com/assets/completepuzzle.svg" width="100%" height="100%" /><g class="links"><use href="#t6509"/></g></g></svg><svg x="317" y="1627" height="9%" width="9%" viewBox="0 0 330 330"><g><a xlink:href="https://nftpuzzle.license-token.com/" class="links"><title>See the most innovative NFT based token software licensing project</title><path fill="#E4CF37" id="more" d="M165,0C74.019,0,0,74.019,0,165s74.019,165,165,165s165-74.019,165-165S255.981,0,165,0z M85,190 c-13.785,0-25-11.215-25-25s11.215-25,25-25s25,11.215,25,25S98.785,190,85,190z M165,190c-13.785,0-25-11.215-25-25 s11.215-25,25-25s25,11.215,25,25S178.785,190,165,190z M245,190c-13.785,0-25-11.215-25-25s11.215-25,25-25 c13.785,0,25,11.215,25,25S258.785,190,245,190z"></path></a></g></svg></svg></svg>