<svg version="1.1" xmlns="http://www.w3.org/2000/svg" xmlns:xlink="http://www.w3.org/1999/xlink" fill="transparent" x="0" y="0" width="350" height="350" preserveAspectRatio="xMinYMin slice"><style type="text/css">.links{fill:transparent;stroke: #E4CF37;}.links:hover{fill:#63D272; opacity:0.4;}</style><defs><g id="allt"><path id="t6522" d="M759,1600 L749,1601 C739,1602 750,1595 740,1594 C731,1593 745,1604 735,1602 L726,1600 726,1600 L725,1609 C724,1619 729,1608 729,1616 C729,1625 724,1613 725,1622 L726,1632 726,1632 L736,1631 C746,1630 735,1635 743,1635 C752,1635 740,1630 749,1631 L759,1632 759,1632 L759,1622 C759,1613 755,1624 754,1615 C753,1606 759,1619 759,1609 L759,1600"/></g><clipPath id="c" clipRule="evenodd" fill="transparent"><use href="#t6522"/></clipPath></defs><svg viewBox="723 1592 37 44" preserveAspectRatio="xMinYMin meet"><svg width="4380" height="2430"><g><image crossorigin="anonymous" x="0" y="0" href="https://nftpuzzle.license-token.com/assets/completepuzzle.svg" width="100%" height="100%" /><g class="links"><use href="#t6522"/></g></g></svg><svg x="745" y="1621" height="9%" width="9%" viewBox="0 0 330 330"><g><a xlink:href="https://nftpuzzle.license-token.com/" class="links"><title>See the most innovative NFT based token software licensing project</title><path fill="#E4CF37" id="more" d="M165,0C74.019,0,0,74.019,0,165s74.019,165,165,165s165-74.019,165-165S255.981,0,165,0z M85,190 c-13.785,0-25-11.215-25-25s11.215-25,25-25s25,11.215,25,25S98.785,190,85,190z M165,190c-13.785,0-25-11.215-25-25 s11.215-25,25-25s25,11.215,25,25S178.785,190,165,190z M245,190c-13.785,0-25-11.215-25-25s11.215-25,25-25 c13.785,0,25,11.215,25,25S258.785,190,245,190z"></path></a></g></svg></svg></svg>