<svg version="1.1" xmlns="http://www.w3.org/2000/svg" xmlns:xlink="http://www.w3.org/1999/xlink" fill="transparent" x="0" y="0" width="350" height="350" preserveAspectRatio="xMinYMin slice"><style type="text/css">.links{fill:transparent;stroke: #E4CF37;}.links:hover{fill:#63D272; opacity:0.4;}</style><defs><g id="allt"><path id="t6526" d="M891,1600 L880,1601 C869,1602 881,1594 873,1593 C865,1593 877,1601 867,1600 L858,1600 858,1600 L858,1609 C858,1618 856,1609 856,1616 C856,1623 860,1610 859,1621 L858,1632 858,1632 L867,1632 C876,1632 867,1630 874,1630 C882,1630 869,1634 880,1633 L891,1632 891,1632 L891,1622 C892,1612 878,1624 879,1616 C881,1609 894,1619 892,1609 L891,1600"/></g><clipPath id="c" clipRule="evenodd" fill="transparent"><use href="#t6526"/></clipPath></defs><svg viewBox="855 1592 40 43" preserveAspectRatio="xMinYMin meet"><svg width="4380" height="2430"><g><image crossorigin="anonymous" x="0" y="0" href="https://nftpuzzle.license-token.com/assets/completepuzzle.svg" width="100%" height="100%" /><g class="links"><use href="#t6526"/></g></g></svg><svg x="880" y="1620" height="9%" width="9%" viewBox="0 0 330 330"><g><a xlink:href="https://nftpuzzle.license-token.com/" class="links"><title>See the most innovative NFT based token software licensing project</title><path fill="#E4CF37" id="more" d="M165,0C74.019,0,0,74.019,0,165s74.019,165,165,165s165-74.019,165-165S255.981,0,165,0z M85,190 c-13.785,0-25-11.215-25-25s11.215-25,25-25s25,11.215,25,25S98.785,190,85,190z M165,190c-13.785,0-25-11.215-25-25 s11.215-25,25-25s25,11.215,25,25S178.785,190,165,190z M245,190c-13.785,0-25-11.215-25-25s11.215-25,25-25 c13.785,0,25,11.215,25,25S258.785,190,245,190z"></path></a></g></svg></svg></svg>