<svg version="1.1" xmlns="http://www.w3.org/2000/svg" xmlns:xlink="http://www.w3.org/1999/xlink" fill="transparent" x="0" y="0" width="350" height="350" preserveAspectRatio="xMinYMin slice"><style type="text/css">.links{fill:transparent;stroke: #E4CF37;}.links:hover{fill:#63D272; opacity:0.4;}</style><defs><g id="allt"><path id="t6527" d="M924,1600 L913,1600 C902,1600 918,1591 907,1592 C896,1594 910,1600 900,1600 L891,1600 891,1600 L892,1609 C894,1619 881,1609 879,1616 C878,1624 892,1612 891,1622 L891,1632 891,1632 L901,1633 C911,1635 900,1623 908,1621 C916,1619 904,1633 914,1632 L924,1632 924,1632 L924,1622 C924,1612 918,1623 918,1614 C919,1605 924,1619 924,1609 L924,1600"/></g><clipPath id="c" clipRule="evenodd" fill="transparent"><use href="#t6527"/></clipPath></defs><svg viewBox="877 1590 48 46" preserveAspectRatio="xMinYMin meet"><svg width="4380" height="2430"><g><image crossorigin="anonymous" x="0" y="0" href="https://nftpuzzle.license-token.com/assets/completepuzzle.svg" width="100%" height="100%" /><g class="links"><use href="#t6527"/></g></g></svg><svg x="910" y="1621" height="9%" width="9%" viewBox="0 0 330 330"><g><a xlink:href="https://nftpuzzle.license-token.com/" class="links"><title>See the most innovative NFT based token software licensing project</title><path fill="#E4CF37" id="more" d="M165,0C74.019,0,0,74.019,0,165s74.019,165,165,165s165-74.019,165-165S255.981,0,165,0z M85,190 c-13.785,0-25-11.215-25-25s11.215-25,25-25s25,11.215,25,25S98.785,190,85,190z M165,190c-13.785,0-25-11.215-25-25 s11.215-25,25-25s25,11.215,25,25S178.785,190,165,190z M245,190c-13.785,0-25-11.215-25-25s11.215-25,25-25 c13.785,0,25,11.215,25,25S258.785,190,245,190z"></path></a></g></svg></svg></svg>