<svg version="1.1" xmlns="http://www.w3.org/2000/svg" xmlns:xlink="http://www.w3.org/1999/xlink" fill="transparent" x="0" y="0" width="350" height="350" preserveAspectRatio="xMinYMin slice"><style type="text/css">.links{fill:transparent;stroke: #E4CF37;}.links:hover{fill:#63D272; opacity:0.4;}</style><defs><g id="allt"><path id="t6530" d="M1023,1600 L1012,1600 C1001,1600 1017,1596 1006,1595 C996,1594 1009,1602 999,1601 L990,1600 990,1600 L992,1609 C994,1619 979,1606 981,1615 C983,1624 991,1611 990,1621 L990,1632 990,1632 L1000,1634 C1010,1636 996,1622 1005,1623 C1015,1625 1002,1633 1012,1632 L1023,1632 1023,1632 L1023,1621 C1023,1611 1031,1622 1029,1614 C1028,1607 1020,1617 1021,1608 L1023,1600"/></g><clipPath id="c" clipRule="evenodd" fill="transparent"><use href="#t6530"/></clipPath></defs><svg viewBox="978 1593 54 44" preserveAspectRatio="xMinYMin meet"><svg width="4380" height="2430"><g><image crossorigin="anonymous" x="0" y="0" href="https://nftpuzzle.license-token.com/assets/completepuzzle.svg" width="100%" height="100%" /><g class="links"><use href="#t6530"/></g></g></svg><svg x="1017" y="1622" height="9%" width="9%" viewBox="0 0 330 330"><g><a xlink:href="https://nftpuzzle.license-token.com/" class="links"><title>See the most innovative NFT based token software licensing project</title><path fill="#E4CF37" id="more" d="M165,0C74.019,0,0,74.019,0,165s74.019,165,165,165s165-74.019,165-165S255.981,0,165,0z M85,190 c-13.785,0-25-11.215-25-25s11.215-25,25-25s25,11.215,25,25S98.785,190,85,190z M165,190c-13.785,0-25-11.215-25-25 s11.215-25,25-25s25,11.215,25,25S178.785,190,165,190z M245,190c-13.785,0-25-11.215-25-25s11.215-25,25-25 c13.785,0,25,11.215,25,25S258.785,190,245,190z"></path></a></g></svg></svg></svg>