<svg version="1.1" xmlns="http://www.w3.org/2000/svg" xmlns:xlink="http://www.w3.org/1999/xlink" fill="transparent" x="0" y="0" width="350" height="350" preserveAspectRatio="xMinYMin slice"><style type="text/css">.links{fill:transparent;stroke: #E4CF37;}.links:hover{fill:#63D272; opacity:0.4;}</style><defs><g id="allt"><path id="t6532" d="M1089,1600 L1078,1600 C1067,1600 1080,1595 1072,1594 C1064,1593 1074,1600 1065,1600 L1056,1600 1056,1600 L1057,1610 C1058,1621 1050,1605 1051,1613 C1052,1622 1056,1612 1056,1622 L1056,1632 1056,1632 L1067,1633 C1078,1634 1061,1626 1070,1627 C1079,1628 1068,1632 1078,1632 L1089,1632 1089,1632 L1088,1621 C1087,1611 1096,1622 1096,1614 C1096,1606 1088,1618 1088,1609 L1089,1600"/></g><clipPath id="c" clipRule="evenodd" fill="transparent"><use href="#t6532"/></clipPath></defs><svg viewBox="1049 1592 48 43" preserveAspectRatio="xMinYMin meet"><svg width="4380" height="2430"><g><image crossorigin="anonymous" x="0" y="0" href="https://nftpuzzle.license-token.com/assets/completepuzzle.svg" width="100%" height="100%" /><g class="links"><use href="#t6532"/></g></g></svg><svg x="1082" y="1620" height="9%" width="9%" viewBox="0 0 330 330"><g><a xlink:href="https://nftpuzzle.license-token.com/" class="links"><title>See the most innovative NFT based token software licensing project</title><path fill="#E4CF37" id="more" d="M165,0C74.019,0,0,74.019,0,165s74.019,165,165,165s165-74.019,165-165S255.981,0,165,0z M85,190 c-13.785,0-25-11.215-25-25s11.215-25,25-25s25,11.215,25,25S98.785,190,85,190z M165,190c-13.785,0-25-11.215-25-25 s11.215-25,25-25s25,11.215,25,25S178.785,190,165,190z M245,190c-13.785,0-25-11.215-25-25s11.215-25,25-25 c13.785,0,25,11.215,25,25S258.785,190,245,190z"></path></a></g></svg></svg></svg>