<svg version="1.1" xmlns="http://www.w3.org/2000/svg" xmlns:xlink="http://www.w3.org/1999/xlink" fill="transparent" x="0" y="0" width="350" height="350" preserveAspectRatio="xMinYMin slice"><style type="text/css">.links{fill:transparent;stroke: #E4CF37;}.links:hover{fill:#63D272; opacity:0.4;}</style><defs><g id="allt"><path id="t6538" d="M1287,1600 L1276,1599 C1266,1599 1281,1609 1271,1610 C1261,1611 1272,1600 1263,1600 L1254,1600 1254,1600 L1255,1609 C1256,1619 1249,1606 1248,1615 C1248,1624 1255,1612 1254,1622 L1254,1632 1254,1632 L1263,1633 C1273,1634 1260,1627 1269,1626 C1278,1626 1266,1633 1276,1632 L1287,1632 1287,1632 L1287,1621 C1287,1611 1295,1623 1295,1616 C1296,1609 1287,1618 1287,1609 L1287,1600"/></g><clipPath id="c" clipRule="evenodd" fill="transparent"><use href="#t6538"/></clipPath></defs><svg viewBox="1247 1598 50 37" preserveAspectRatio="xMinYMin meet"><svg width="4380" height="2430"><g><image crossorigin="anonymous" x="0" y="0" href="https://nftpuzzle.license-token.com/assets/completepuzzle.svg" width="100%" height="100%" /><g class="links"><use href="#t6538"/></g></g></svg><svg x="1282" y="1620" height="9%" width="9%" viewBox="0 0 330 330"><g><a xlink:href="https://nftpuzzle.license-token.com/" class="links"><title>See the most innovative NFT based token software licensing project</title><path fill="#E4CF37" id="more" d="M165,0C74.019,0,0,74.019,0,165s74.019,165,165,165s165-74.019,165-165S255.981,0,165,0z M85,190 c-13.785,0-25-11.215-25-25s11.215-25,25-25s25,11.215,25,25S98.785,190,85,190z M165,190c-13.785,0-25-11.215-25-25 s11.215-25,25-25s25,11.215,25,25S178.785,190,165,190z M245,190c-13.785,0-25-11.215-25-25s11.215-25,25-25 c13.785,0,25,11.215,25,25S258.785,190,245,190z"></path></a></g></svg></svg></svg>