<svg version="1.1" xmlns="http://www.w3.org/2000/svg" xmlns:xlink="http://www.w3.org/1999/xlink" fill="transparent" x="0" y="0" width="350" height="350" preserveAspectRatio="xMinYMin slice"><style type="text/css">.links{fill:transparent;stroke: #E4CF37;}.links:hover{fill:#63D272; opacity:0.4;}</style><defs><g id="allt"><path id="t6540" d="M1353,1600 L1342,1599 C1331,1598 1344,1608 1334,1608 C1324,1608 1339,1599 1329,1599 L1320,1600 1320,1600 L1320,1610 C1320,1621 1327,1606 1326,1616 C1325,1626 1319,1612 1319,1622 L1320,1632 1320,1632 L1330,1632 C1341,1632 1326,1639 1336,1638 C1347,1637 1332,1631 1342,1631 L1353,1632 1353,1632 L1353,1621 C1354,1611 1349,1625 1348,1616 C1348,1607 1354,1618 1353,1609 L1353,1600"/></g><clipPath id="c" clipRule="evenodd" fill="transparent"><use href="#t6540"/></clipPath></defs><svg viewBox="1318 1597 37 43" preserveAspectRatio="xMinYMin meet"><svg width="4380" height="2430"><g><image crossorigin="anonymous" x="0" y="0" href="https://nftpuzzle.license-token.com/assets/completepuzzle.svg" width="100%" height="100%" /><g class="links"><use href="#t6540"/></g></g></svg><svg x="1340" y="1625" height="9%" width="9%" viewBox="0 0 330 330"><g><a xlink:href="https://nftpuzzle.license-token.com/" class="links"><title>See the most innovative NFT based token software licensing project</title><path fill="#E4CF37" id="more" d="M165,0C74.019,0,0,74.019,0,165s74.019,165,165,165s165-74.019,165-165S255.981,0,165,0z M85,190 c-13.785,0-25-11.215-25-25s11.215-25,25-25s25,11.215,25,25S98.785,190,85,190z M165,190c-13.785,0-25-11.215-25-25 s11.215-25,25-25s25,11.215,25,25S178.785,190,165,190z M245,190c-13.785,0-25-11.215-25-25s11.215-25,25-25 c13.785,0,25,11.215,25,25S258.785,190,245,190z"></path></a></g></svg></svg></svg>