<svg version="1.1" xmlns="http://www.w3.org/2000/svg" xmlns:xlink="http://www.w3.org/1999/xlink" fill="transparent" x="0" y="0" width="350" height="350" preserveAspectRatio="xMinYMin slice"><style type="text/css">.links{fill:transparent;stroke: #E4CF37;}.links:hover{fill:#63D272; opacity:0.4;}</style><defs><g id="allt"><path id="t6544" d="M1485,1600 L1475,1600 C1466,1600 1477,1609 1466,1608 C1456,1608 1474,1598 1463,1599 L1452,1600 1452,1600 L1451,1609 C1451,1618 1456,1606 1457,1614 C1458,1623 1450,1610 1451,1621 L1452,1632 1452,1632 L1461,1631 C1470,1631 1458,1636 1466,1637 C1475,1638 1462,1630 1473,1631 L1485,1632 1485,1632 L1484,1622 C1483,1612 1490,1624 1488,1616 C1487,1608 1485,1620 1485,1610 L1485,1600"/></g><clipPath id="c" clipRule="evenodd" fill="transparent"><use href="#t6544"/></clipPath></defs><svg viewBox="1449 1597 42 42" preserveAspectRatio="xMinYMin meet"><svg width="4380" height="2430"><g><image crossorigin="anonymous" x="0" y="0" href="https://nftpuzzle.license-token.com/assets/completepuzzle.svg" width="100%" height="100%" /><g class="links"><use href="#t6544"/></g></g></svg><svg x="1476" y="1624" height="9%" width="9%" viewBox="0 0 330 330"><g><a xlink:href="https://nftpuzzle.license-token.com/" class="links"><title>See the most innovative NFT based token software licensing project</title><path fill="#E4CF37" id="more" d="M165,0C74.019,0,0,74.019,0,165s74.019,165,165,165s165-74.019,165-165S255.981,0,165,0z M85,190 c-13.785,0-25-11.215-25-25s11.215-25,25-25s25,11.215,25,25S98.785,190,85,190z M165,190c-13.785,0-25-11.215-25-25 s11.215-25,25-25s25,11.215,25,25S178.785,190,165,190z M245,190c-13.785,0-25-11.215-25-25s11.215-25,25-25 c13.785,0,25,11.215,25,25S258.785,190,245,190z"></path></a></g></svg></svg></svg>