<svg version="1.1" xmlns="http://www.w3.org/2000/svg" xmlns:xlink="http://www.w3.org/1999/xlink" fill="transparent" x="0" y="0" width="350" height="350" preserveAspectRatio="xMinYMin slice"><style type="text/css">.links{fill:transparent;stroke: #E4CF37;}.links:hover{fill:#63D272; opacity:0.4;}</style><defs><g id="allt"><path id="t6547" d="M1584,1600 L1574,1600 C1565,1600 1575,1595 1567,1595 C1560,1595 1572,1602 1561,1601 L1551,1600 1551,1600 L1551,1608 C1551,1617 1546,1605 1546,1615 C1546,1625 1554,1612 1552,1622 L1551,1632 1551,1632 L1560,1632 C1569,1632 1556,1627 1566,1627 C1577,1627 1563,1635 1573,1633 L1584,1632 1584,1632 L1584,1621 C1584,1610 1587,1624 1588,1616 C1589,1608 1583,1617 1583,1608 L1584,1600"/></g><clipPath id="c" clipRule="evenodd" fill="transparent"><use href="#t6547"/></clipPath></defs><svg viewBox="1545 1594 45 42" preserveAspectRatio="xMinYMin meet"><svg width="4380" height="2430"><g><image crossorigin="anonymous" x="0" y="0" href="https://nftpuzzle.license-token.com/assets/completepuzzle.svg" width="100%" height="100%" /><g class="links"><use href="#t6547"/></g></g></svg><svg x="1575" y="1621" height="9%" width="9%" viewBox="0 0 330 330"><g><a xlink:href="https://nftpuzzle.license-token.com/" class="links"><title>See the most innovative NFT based token software licensing project</title><path fill="#E4CF37" id="more" d="M165,0C74.019,0,0,74.019,0,165s74.019,165,165,165s165-74.019,165-165S255.981,0,165,0z M85,190 c-13.785,0-25-11.215-25-25s11.215-25,25-25s25,11.215,25,25S98.785,190,85,190z M165,190c-13.785,0-25-11.215-25-25 s11.215-25,25-25s25,11.215,25,25S178.785,190,165,190z M245,190c-13.785,0-25-11.215-25-25s11.215-25,25-25 c13.785,0,25,11.215,25,25S258.785,190,245,190z"></path></a></g></svg></svg></svg>