<svg version="1.1" xmlns="http://www.w3.org/2000/svg" xmlns:xlink="http://www.w3.org/1999/xlink" fill="transparent" x="0" y="0" width="350" height="350" preserveAspectRatio="xMinYMin slice"><style type="text/css">.links{fill:transparent;stroke: #E4CF37;}.links:hover{fill:#63D272; opacity:0.4;}</style><defs><g id="allt"><path id="t6548" d="M1617,1600 L1606,1600 C1596,1600 1608,1595 1600,1593 C1592,1592 1604,1603 1594,1601 L1584,1600 1584,1600 L1583,1608 C1583,1617 1589,1608 1588,1616 C1587,1624 1584,1610 1584,1621 L1584,1632 1584,1632 L1593,1631 C1602,1631 1593,1637 1600,1636 C1608,1635 1595,1632 1606,1632 L1617,1632 1617,1632 L1617,1622 C1618,1613 1610,1624 1610,1615 C1610,1607 1617,1620 1617,1610 L1617,1600"/></g><clipPath id="c" clipRule="evenodd" fill="transparent"><use href="#t6548"/></clipPath></defs><svg viewBox="1582 1591 37 47" preserveAspectRatio="xMinYMin meet"><svg width="4380" height="2430"><g><image crossorigin="anonymous" x="0" y="0" href="https://nftpuzzle.license-token.com/assets/completepuzzle.svg" width="100%" height="100%" /><g class="links"><use href="#t6548"/></g></g></svg><svg x="1604" y="1623" height="9%" width="9%" viewBox="0 0 330 330"><g><a xlink:href="https://nftpuzzle.license-token.com/" class="links"><title>See the most innovative NFT based token software licensing project</title><path fill="#E4CF37" id="more" d="M165,0C74.019,0,0,74.019,0,165s74.019,165,165,165s165-74.019,165-165S255.981,0,165,0z M85,190 c-13.785,0-25-11.215-25-25s11.215-25,25-25s25,11.215,25,25S98.785,190,85,190z M165,190c-13.785,0-25-11.215-25-25 s11.215-25,25-25s25,11.215,25,25S178.785,190,165,190z M245,190c-13.785,0-25-11.215-25-25s11.215-25,25-25 c13.785,0,25,11.215,25,25S258.785,190,245,190z"></path></a></g></svg></svg></svg>