<svg version="1.1" xmlns="http://www.w3.org/2000/svg" xmlns:xlink="http://www.w3.org/1999/xlink" fill="transparent" x="0" y="0" width="350" height="350" preserveAspectRatio="xMinYMin slice"><style type="text/css">.links{fill:transparent;stroke: #E4CF37;}.links:hover{fill:#63D272; opacity:0.4;}</style><defs><g id="allt"><path id="t6551" d="M1716,1600 L1706,1600 C1697,1600 1707,1594 1699,1593 C1692,1592 1704,1602 1693,1601 L1683,1600 1683,1600 L1683,1610 C1683,1621 1681,1608 1679,1617 C1678,1626 1683,1613 1683,1622 L1683,1632 1683,1632 L1694,1632 C1705,1632 1691,1630 1700,1628 C1710,1627 1696,1632 1706,1632 L1716,1632 1716,1632 L1715,1621 C1714,1611 1722,1626 1722,1615 C1723,1605 1716,1621 1716,1610 L1716,1600"/></g><clipPath id="c" clipRule="evenodd" fill="transparent"><use href="#t6551"/></clipPath></defs><svg viewBox="1677 1591 47 42" preserveAspectRatio="xMinYMin meet"><svg width="4380" height="2430"><g><image crossorigin="anonymous" x="0" y="0" href="https://nftpuzzle.license-token.com/assets/completepuzzle.svg" width="100%" height="100%" /><g class="links"><use href="#t6551"/></g></g></svg><svg x="1709" y="1618" height="9%" width="9%" viewBox="0 0 330 330"><g><a xlink:href="https://nftpuzzle.license-token.com/" class="links"><title>See the most innovative NFT based token software licensing project</title><path fill="#E4CF37" id="more" d="M165,0C74.019,0,0,74.019,0,165s74.019,165,165,165s165-74.019,165-165S255.981,0,165,0z M85,190 c-13.785,0-25-11.215-25-25s11.215-25,25-25s25,11.215,25,25S98.785,190,85,190z M165,190c-13.785,0-25-11.215-25-25 s11.215-25,25-25s25,11.215,25,25S178.785,190,165,190z M245,190c-13.785,0-25-11.215-25-25s11.215-25,25-25 c13.785,0,25,11.215,25,25S258.785,190,245,190z"></path></a></g></svg></svg></svg>