<svg version="1.1" xmlns="http://www.w3.org/2000/svg" xmlns:xlink="http://www.w3.org/1999/xlink" fill="transparent" x="0" y="0" width="350" height="350" preserveAspectRatio="xMinYMin slice"><style type="text/css">.links{fill:transparent;stroke: #E4CF37;}.links:hover{fill:#63D272; opacity:0.4;}</style><defs><g id="allt"><path id="t6554" d="M1815,1600 L1804,1599 C1794,1599 1808,1602 1797,1602 C1787,1602 1802,1600 1792,1600 L1782,1600 1782,1600 L1781,1608 C1780,1617 1788,1605 1790,1614 C1792,1624 1778,1611 1780,1621 L1782,1632 1782,1632 L1791,1631 C1800,1630 1787,1638 1796,1640 C1806,1642 1794,1628 1804,1630 L1815,1632 1815,1632 L1816,1622 C1817,1613 1807,1624 1807,1614 C1807,1605 1817,1619 1816,1609 L1815,1600"/></g><clipPath id="c" clipRule="evenodd" fill="transparent"><use href="#t6554"/></clipPath></defs><svg viewBox="1777 1598 41 45" preserveAspectRatio="xMinYMin meet"><svg width="4380" height="2430"><g><image crossorigin="anonymous" x="0" y="0" href="https://nftpuzzle.license-token.com/assets/completepuzzle.svg" width="100%" height="100%" /><g class="links"><use href="#t6554"/></g></g></svg><svg x="1803" y="1628" height="9%" width="9%" viewBox="0 0 330 330"><g><a xlink:href="https://nftpuzzle.license-token.com/" class="links"><title>See the most innovative NFT based token software licensing project</title><path fill="#E4CF37" id="more" d="M165,0C74.019,0,0,74.019,0,165s74.019,165,165,165s165-74.019,165-165S255.981,0,165,0z M85,190 c-13.785,0-25-11.215-25-25s11.215-25,25-25s25,11.215,25,25S98.785,190,85,190z M165,190c-13.785,0-25-11.215-25-25 s11.215-25,25-25s25,11.215,25,25S178.785,190,165,190z M245,190c-13.785,0-25-11.215-25-25s11.215-25,25-25 c13.785,0,25,11.215,25,25S258.785,190,245,190z"></path></a></g></svg></svg></svg>