<svg version="1.1" xmlns="http://www.w3.org/2000/svg" xmlns:xlink="http://www.w3.org/1999/xlink" fill="transparent" x="0" y="0" width="350" height="350" preserveAspectRatio="xMinYMin slice"><style type="text/css">.links{fill:transparent;stroke: #E4CF37;}.links:hover{fill:#63D272; opacity:0.4;}</style><defs><g id="allt"><path id="t6556" d="M1881,1600 L1869,1598 C1858,1597 1871,1608 1864,1608 C1857,1608 1867,1599 1857,1599 L1848,1600 1848,1600 L1847,1609 C1846,1618 1853,1607 1852,1616 C1851,1626 1846,1610 1847,1621 L1848,1632 1848,1632 L1857,1631 C1867,1630 1855,1637 1865,1636 C1875,1635 1858,1630 1869,1631 L1881,1632 1881,1632 L1881,1621 C1881,1611 1873,1624 1875,1616 C1877,1608 1881,1621 1881,1610 L1881,1600"/></g><clipPath id="c" clipRule="evenodd" fill="transparent"><use href="#t6556"/></clipPath></defs><svg viewBox="1845 1596 37 42" preserveAspectRatio="xMinYMin meet"><svg width="4380" height="2430"><g><image crossorigin="anonymous" x="0" y="0" href="https://nftpuzzle.license-token.com/assets/completepuzzle.svg" width="100%" height="100%" /><g class="links"><use href="#t6556"/></g></g></svg><svg x="1867" y="1623" height="9%" width="9%" viewBox="0 0 330 330"><g><a xlink:href="https://nftpuzzle.license-token.com/" class="links"><title>See the most innovative NFT based token software licensing project</title><path fill="#E4CF37" id="more" d="M165,0C74.019,0,0,74.019,0,165s74.019,165,165,165s165-74.019,165-165S255.981,0,165,0z M85,190 c-13.785,0-25-11.215-25-25s11.215-25,25-25s25,11.215,25,25S98.785,190,85,190z M165,190c-13.785,0-25-11.215-25-25 s11.215-25,25-25s25,11.215,25,25S178.785,190,165,190z M245,190c-13.785,0-25-11.215-25-25s11.215-25,25-25 c13.785,0,25,11.215,25,25S258.785,190,245,190z"></path></a></g></svg></svg></svg>