<svg version="1.1" xmlns="http://www.w3.org/2000/svg" xmlns:xlink="http://www.w3.org/1999/xlink" fill="transparent" x="0" y="0" width="350" height="350" preserveAspectRatio="xMinYMin slice"><style type="text/css">.links{fill:transparent;stroke: #E4CF37;}.links:hover{fill:#63D272; opacity:0.4;}</style><defs><g id="allt"><path id="t6557" d="M1914,1600 L1904,1600 C1894,1600 1908,1607 1897,1605 C1886,1604 1902,1600 1891,1600 L1881,1600 1881,1600 L1881,1610 C1881,1621 1877,1608 1875,1616 C1873,1624 1881,1611 1881,1621 L1881,1632 1881,1632 L1892,1632 C1903,1632 1890,1628 1898,1626 C1906,1624 1892,1632 1903,1632 L1914,1632 1914,1632 L1914,1621 C1915,1610 1908,1623 1907,1614 C1906,1605 1914,1619 1914,1609 L1914,1600"/></g><clipPath id="c" clipRule="evenodd" fill="transparent"><use href="#t6557"/></clipPath></defs><svg viewBox="1872 1599 44 34" preserveAspectRatio="xMinYMin meet"><svg width="4380" height="2430"><g><image crossorigin="anonymous" x="0" y="0" href="https://nftpuzzle.license-token.com/assets/completepuzzle.svg" width="100%" height="100%" /><g class="links"><use href="#t6557"/></g></g></svg><svg x="1901" y="1618" height="9%" width="9%" viewBox="0 0 330 330"><g><a xlink:href="https://nftpuzzle.license-token.com/" class="links"><title>See the most innovative NFT based token software licensing project</title><path fill="#E4CF37" id="more" d="M165,0C74.019,0,0,74.019,0,165s74.019,165,165,165s165-74.019,165-165S255.981,0,165,0z M85,190 c-13.785,0-25-11.215-25-25s11.215-25,25-25s25,11.215,25,25S98.785,190,85,190z M165,190c-13.785,0-25-11.215-25-25 s11.215-25,25-25s25,11.215,25,25S178.785,190,165,190z M245,190c-13.785,0-25-11.215-25-25s11.215-25,25-25 c13.785,0,25,11.215,25,25S258.785,190,245,190z"></path></a></g></svg></svg></svg>