<svg version="1.1" xmlns="http://www.w3.org/2000/svg" xmlns:xlink="http://www.w3.org/1999/xlink" fill="transparent" x="0" y="0" width="350" height="350" preserveAspectRatio="xMinYMin slice"><style type="text/css">.links{fill:transparent;stroke: #E4CF37;}.links:hover{fill:#63D272; opacity:0.4;}</style><defs><g id="allt"><path id="t6558" d="M1947,1600 L1936,1599 C1926,1598 1940,1604 1931,1604 C1923,1605 1935,1599 1924,1599 L1914,1600 1914,1600 L1914,1609 C1914,1619 1906,1605 1907,1614 C1908,1623 1915,1610 1914,1621 L1914,1632 1914,1632 L1923,1632 C1933,1632 1919,1624 1928,1625 C1938,1626 1925,1633 1936,1632 L1947,1632 1947,1632 L1947,1621 C1947,1611 1945,1622 1944,1614 C1943,1607 1947,1619 1947,1609 L1947,1600"/></g><clipPath id="c" clipRule="evenodd" fill="transparent"><use href="#t6558"/></clipPath></defs><svg viewBox="1905 1597 43 37" preserveAspectRatio="xMinYMin meet"><svg width="4380" height="2430"><g><image crossorigin="anonymous" x="0" y="0" href="https://nftpuzzle.license-token.com/assets/completepuzzle.svg" width="100%" height="100%" /><g class="links"><use href="#t6558"/></g></g></svg><svg x="1933" y="1619" height="9%" width="9%" viewBox="0 0 330 330"><g><a xlink:href="https://nftpuzzle.license-token.com/" class="links"><title>See the most innovative NFT based token software licensing project</title><path fill="#E4CF37" id="more" d="M165,0C74.019,0,0,74.019,0,165s74.019,165,165,165s165-74.019,165-165S255.981,0,165,0z M85,190 c-13.785,0-25-11.215-25-25s11.215-25,25-25s25,11.215,25,25S98.785,190,85,190z M165,190c-13.785,0-25-11.215-25-25 s11.215-25,25-25s25,11.215,25,25S178.785,190,165,190z M245,190c-13.785,0-25-11.215-25-25s11.215-25,25-25 c13.785,0,25,11.215,25,25S258.785,190,245,190z"></path></a></g></svg></svg></svg>