<svg version="1.1" xmlns="http://www.w3.org/2000/svg" xmlns:xlink="http://www.w3.org/1999/xlink" fill="transparent" x="0" y="0" width="350" height="350" preserveAspectRatio="xMinYMin slice"><style type="text/css">.links{fill:transparent;stroke: #E4CF37;}.links:hover{fill:#63D272; opacity:0.4;}</style><defs><g id="allt"><path id="t6567" d="M2244,1600 L2234,1600 C2224,1600 2237,1610 2227,1609 C2218,1609 2230,1598 2220,1599 L2211,1600 2211,1600 L2211,1610 C2211,1620 2217,1607 2215,1615 C2214,1623 2208,1610 2209,1621 L2211,1632 2211,1632 L2221,1632 C2231,1632 2218,1638 2226,1636 C2235,1635 2221,1629 2232,1630 L2244,1632 2244,1632 L2244,1623 C2245,1614 2237,1622 2238,1615 C2239,1608 2244,1619 2244,1609 L2244,1600"/></g><clipPath id="c" clipRule="evenodd" fill="transparent"><use href="#t6567"/></clipPath></defs><svg viewBox="2207 1597 39 42" preserveAspectRatio="xMinYMin meet"><svg width="4380" height="2430"><g><image crossorigin="anonymous" x="0" y="0" href="https://nftpuzzle.license-token.com/assets/completepuzzle.svg" width="100%" height="100%" /><g class="links"><use href="#t6567"/></g></g></svg><svg x="2231" y="1624" height="9%" width="9%" viewBox="0 0 330 330"><g><a xlink:href="https://nftpuzzle.license-token.com/" class="links"><title>See the most innovative NFT based token software licensing project</title><path fill="#E4CF37" id="more" d="M165,0C74.019,0,0,74.019,0,165s74.019,165,165,165s165-74.019,165-165S255.981,0,165,0z M85,190 c-13.785,0-25-11.215-25-25s11.215-25,25-25s25,11.215,25,25S98.785,190,85,190z M165,190c-13.785,0-25-11.215-25-25 s11.215-25,25-25s25,11.215,25,25S178.785,190,165,190z M245,190c-13.785,0-25-11.215-25-25s11.215-25,25-25 c13.785,0,25,11.215,25,25S258.785,190,245,190z"></path></a></g></svg></svg></svg>