<svg version="1.1" xmlns="http://www.w3.org/2000/svg" xmlns:xlink="http://www.w3.org/1999/xlink" fill="transparent" x="0" y="0" width="350" height="350" preserveAspectRatio="xMinYMin slice"><style type="text/css">.links{fill:transparent;stroke: #E4CF37;}.links:hover{fill:#63D272; opacity:0.4;}</style><defs><g id="allt"><path id="t6568" d="M2277,1600 L2266,1598 C2255,1597 2269,1604 2261,1604 C2253,1605 2265,1599 2254,1599 L2244,1600 2244,1600 L2244,1609 C2244,1619 2239,1608 2238,1615 C2237,1622 2245,1614 2244,1623 L2244,1632 2244,1632 L2254,1632 C2264,1632 2253,1627 2260,1626 C2267,1625 2258,1633 2267,1632 L2277,1632 2277,1632 L2277,1622 C2277,1612 2281,1623 2280,1615 C2279,1607 2276,1619 2276,1609 L2277,1600"/></g><clipPath id="c" clipRule="evenodd" fill="transparent"><use href="#t6568"/></clipPath></defs><svg viewBox="2236 1596 46 38" preserveAspectRatio="xMinYMin meet"><svg width="4380" height="2430"><g><image crossorigin="anonymous" x="0" y="0" href="https://nftpuzzle.license-token.com/assets/completepuzzle.svg" width="100%" height="100%" /><g class="links"><use href="#t6568"/></g></g></svg><svg x="2267" y="1619" height="9%" width="9%" viewBox="0 0 330 330"><g><a xlink:href="https://nftpuzzle.license-token.com/" class="links"><title>See the most innovative NFT based token software licensing project</title><path fill="#E4CF37" id="more" d="M165,0C74.019,0,0,74.019,0,165s74.019,165,165,165s165-74.019,165-165S255.981,0,165,0z M85,190 c-13.785,0-25-11.215-25-25s11.215-25,25-25s25,11.215,25,25S98.785,190,85,190z M165,190c-13.785,0-25-11.215-25-25 s11.215-25,25-25s25,11.215,25,25S178.785,190,165,190z M245,190c-13.785,0-25-11.215-25-25s11.215-25,25-25 c13.785,0,25,11.215,25,25S258.785,190,245,190z"></path></a></g></svg></svg></svg>