<svg version="1.1" xmlns="http://www.w3.org/2000/svg" xmlns:xlink="http://www.w3.org/1999/xlink" fill="transparent" x="0" y="0" width="350" height="350" preserveAspectRatio="xMinYMin slice"><style type="text/css">.links{fill:transparent;stroke: #E4CF37;}.links:hover{fill:#63D272; opacity:0.4;}</style><defs><g id="allt"><path id="t6572" d="M2409,1600 L2399,1600 C2389,1600 2402,1603 2392,1603 C2383,1604 2395,1599 2385,1599 L2376,1600 2376,1600 L2375,1609 C2375,1619 2381,1607 2381,1616 C2382,1625 2375,1611 2375,1621 L2376,1632 2376,1632 L2386,1631 C2396,1631 2383,1637 2392,1637 C2402,1638 2387,1631 2398,1631 L2409,1632 2409,1632 L2408,1622 C2407,1612 2416,1626 2416,1615 C2416,1604 2408,1621 2408,1610 L2409,1600"/></g><clipPath id="c" clipRule="evenodd" fill="transparent"><use href="#t6572"/></clipPath></defs><svg viewBox="2374 1598 43 41" preserveAspectRatio="xMinYMin meet"><svg width="4380" height="2430"><g><image crossorigin="anonymous" x="0" y="0" href="https://nftpuzzle.license-token.com/assets/completepuzzle.svg" width="100%" height="100%" /><g class="links"><use href="#t6572"/></g></g></svg><svg x="2402" y="1624" height="9%" width="9%" viewBox="0 0 330 330"><g><a xlink:href="https://nftpuzzle.license-token.com/" class="links"><title>See the most innovative NFT based token software licensing project</title><path fill="#E4CF37" id="more" d="M165,0C74.019,0,0,74.019,0,165s74.019,165,165,165s165-74.019,165-165S255.981,0,165,0z M85,190 c-13.785,0-25-11.215-25-25s11.215-25,25-25s25,11.215,25,25S98.785,190,85,190z M165,190c-13.785,0-25-11.215-25-25 s11.215-25,25-25s25,11.215,25,25S178.785,190,165,190z M245,190c-13.785,0-25-11.215-25-25s11.215-25,25-25 c13.785,0,25,11.215,25,25S258.785,190,245,190z"></path></a></g></svg></svg></svg>