<svg version="1.1" xmlns="http://www.w3.org/2000/svg" xmlns:xlink="http://www.w3.org/1999/xlink" fill="transparent" x="0" y="0" width="350" height="350" preserveAspectRatio="xMinYMin slice"><style type="text/css">.links{fill:transparent;stroke: #E4CF37;}.links:hover{fill:#63D272; opacity:0.4;}</style><defs><g id="allt"><path id="t6578" d="M2607,1600 L2597,1601 C2587,1603 2597,1595 2590,1594 C2583,1593 2595,1602 2584,1601 L2574,1600 2574,1600 L2573,1608 C2573,1617 2578,1605 2578,1615 C2578,1626 2572,1613 2573,1622 L2574,1632 2574,1632 L2583,1631 C2592,1631 2579,1636 2590,1636 C2601,1636 2588,1630 2597,1631 L2607,1632 2607,1632 L2608,1621 C2610,1611 2596,1623 2597,1615 C2599,1608 2610,1620 2608,1610 L2607,1600"/></g><clipPath id="c" clipRule="evenodd" fill="transparent"><use href="#t6578"/></clipPath></defs><svg viewBox="2571 1592 40 45" preserveAspectRatio="xMinYMin meet"><svg width="4380" height="2430"><g><image crossorigin="anonymous" x="0" y="0" href="https://nftpuzzle.license-token.com/assets/completepuzzle.svg" width="100%" height="100%" /><g class="links"><use href="#t6578"/></g></g></svg><svg x="2596" y="1622" height="9%" width="9%" viewBox="0 0 330 330"><g><a xlink:href="https://nftpuzzle.license-token.com/" class="links"><title>See the most innovative NFT based token software licensing project</title><path fill="#E4CF37" id="more" d="M165,0C74.019,0,0,74.019,0,165s74.019,165,165,165s165-74.019,165-165S255.981,0,165,0z M85,190 c-13.785,0-25-11.215-25-25s11.215-25,25-25s25,11.215,25,25S98.785,190,85,190z M165,190c-13.785,0-25-11.215-25-25 s11.215-25,25-25s25,11.215,25,25S178.785,190,165,190z M245,190c-13.785,0-25-11.215-25-25s11.215-25,25-25 c13.785,0,25,11.215,25,25S258.785,190,245,190z"></path></a></g></svg></svg></svg>