<svg version="1.1" xmlns="http://www.w3.org/2000/svg" xmlns:xlink="http://www.w3.org/1999/xlink" fill="transparent" x="0" y="0" width="350" height="350" preserveAspectRatio="xMinYMin slice"><style type="text/css">.links{fill:transparent;stroke: #E4CF37;}.links:hover{fill:#63D272; opacity:0.4;}</style><defs><g id="allt"><path id="t6582" d="M2739,1600 L2728,1600 C2718,1600 2729,1592 2721,1592 C2713,1592 2727,1600 2716,1600 L2706,1600 2706,1600 L2708,1610 C2710,1620 2700,1608 2698,1616 C2697,1625 2710,1613 2708,1622 L2706,1632 2706,1632 L2716,1634 C2727,1636 2714,1626 2723,1624 C2732,1623 2719,1636 2729,1634 L2739,1632 2739,1632 L2739,1622 C2739,1612 2736,1625 2736,1616 C2736,1608 2740,1618 2739,1609 L2739,1600"/></g><clipPath id="c" clipRule="evenodd" fill="transparent"><use href="#t6582"/></clipPath></defs><svg viewBox="2696 1591 45 46" preserveAspectRatio="xMinYMin meet"><svg width="4380" height="2430"><g><image crossorigin="anonymous" x="0" y="0" href="https://nftpuzzle.license-token.com/assets/completepuzzle.svg" width="100%" height="100%" /><g class="links"><use href="#t6582"/></g></g></svg><svg x="2726" y="1622" height="9%" width="9%" viewBox="0 0 330 330"><g><a xlink:href="https://nftpuzzle.license-token.com/" class="links"><title>See the most innovative NFT based token software licensing project</title><path fill="#E4CF37" id="more" d="M165,0C74.019,0,0,74.019,0,165s74.019,165,165,165s165-74.019,165-165S255.981,0,165,0z M85,190 c-13.785,0-25-11.215-25-25s11.215-25,25-25s25,11.215,25,25S98.785,190,85,190z M165,190c-13.785,0-25-11.215-25-25 s11.215-25,25-25s25,11.215,25,25S178.785,190,165,190z M245,190c-13.785,0-25-11.215-25-25s11.215-25,25-25 c13.785,0,25,11.215,25,25S258.785,190,245,190z"></path></a></g></svg></svg></svg>