<svg version="1.1" xmlns="http://www.w3.org/2000/svg" xmlns:xlink="http://www.w3.org/1999/xlink" fill="transparent" x="0" y="0" width="350" height="350" preserveAspectRatio="xMinYMin slice"><style type="text/css">.links{fill:transparent;stroke: #E4CF37;}.links:hover{fill:#63D272; opacity:0.4;}</style><defs><g id="allt"><path id="t6585" d="M2838,1600 L2826,1600 C2815,1600 2829,1607 2820,1605 C2812,1604 2823,1597 2814,1598 L2805,1600 2805,1600 L2805,1609 C2805,1619 2810,1608 2810,1616 C2811,1625 2802,1613 2803,1622 L2805,1632 2805,1632 L2814,1632 C2824,1632 2813,1637 2822,1637 C2831,1638 2818,1629 2828,1630 L2838,1632 2838,1632 L2839,1622 C2841,1613 2833,1624 2833,1615 C2834,1606 2838,1620 2838,1610 L2838,1600"/></g><clipPath id="c" clipRule="evenodd" fill="transparent"><use href="#t6585"/></clipPath></defs><svg viewBox="2801 1596 41 43" preserveAspectRatio="xMinYMin meet"><svg width="4380" height="2430"><g><image crossorigin="anonymous" x="0" y="0" href="https://nftpuzzle.license-token.com/assets/completepuzzle.svg" width="100%" height="100%" /><g class="links"><use href="#t6585"/></g></g></svg><svg x="2827" y="1624" height="9%" width="9%" viewBox="0 0 330 330"><g><a xlink:href="https://nftpuzzle.license-token.com/" class="links"><title>See the most innovative NFT based token software licensing project</title><path fill="#E4CF37" id="more" d="M165,0C74.019,0,0,74.019,0,165s74.019,165,165,165s165-74.019,165-165S255.981,0,165,0z M85,190 c-13.785,0-25-11.215-25-25s11.215-25,25-25s25,11.215,25,25S98.785,190,85,190z M165,190c-13.785,0-25-11.215-25-25 s11.215-25,25-25s25,11.215,25,25S178.785,190,165,190z M245,190c-13.785,0-25-11.215-25-25s11.215-25,25-25 c13.785,0,25,11.215,25,25S258.785,190,245,190z"></path></a></g></svg></svg></svg>