<svg version="1.1" xmlns="http://www.w3.org/2000/svg" xmlns:xlink="http://www.w3.org/1999/xlink" fill="transparent" x="0" y="0" width="350" height="350" preserveAspectRatio="xMinYMin slice"><style type="text/css">.links{fill:transparent;stroke: #E4CF37;}.links:hover{fill:#63D272; opacity:0.4;}</style><defs><g id="allt"><path id="t6593" d="M3102,1600 L3090,1599 C3079,1598 3093,1604 3085,1603 C3078,1603 3089,1598 3079,1599 L3069,1600 3069,1600 L3069,1609 C3069,1619 3074,1605 3074,1613 C3075,1622 3066,1611 3067,1621 L3069,1632 3069,1632 L3079,1632 C3089,1632 3074,1637 3083,1637 C3092,1638 3080,1629 3091,1630 L3102,1632 3102,1632 L3102,1621 C3102,1611 3111,1625 3110,1616 C3109,1607 3102,1620 3102,1610 L3102,1600"/></g><clipPath id="c" clipRule="evenodd" fill="transparent"><use href="#t6593"/></clipPath></defs><svg viewBox="3065 1597 47 42" preserveAspectRatio="xMinYMin meet"><svg width="4380" height="2430"><g><image crossorigin="anonymous" x="0" y="0" href="https://nftpuzzle.license-token.com/assets/completepuzzle.svg" width="100%" height="100%" /><g class="links"><use href="#t6593"/></g></g></svg><svg x="3097" y="1624" height="9%" width="9%" viewBox="0 0 330 330"><g><a xlink:href="https://nftpuzzle.license-token.com/" class="links"><title>See the most innovative NFT based token software licensing project</title><path fill="#E4CF37" id="more" d="M165,0C74.019,0,0,74.019,0,165s74.019,165,165,165s165-74.019,165-165S255.981,0,165,0z M85,190 c-13.785,0-25-11.215-25-25s11.215-25,25-25s25,11.215,25,25S98.785,190,85,190z M165,190c-13.785,0-25-11.215-25-25 s11.215-25,25-25s25,11.215,25,25S178.785,190,165,190z M245,190c-13.785,0-25-11.215-25-25s11.215-25,25-25 c13.785,0,25,11.215,25,25S258.785,190,245,190z"></path></a></g></svg></svg></svg>