<svg version="1.1" xmlns="http://www.w3.org/2000/svg" xmlns:xlink="http://www.w3.org/1999/xlink" fill="transparent" x="0" y="0" width="350" height="350" preserveAspectRatio="xMinYMin slice"><style type="text/css">.links{fill:transparent;stroke: #E4CF37;}.links:hover{fill:#63D272; opacity:0.4;}</style><defs><g id="allt"><path id="t6596" d="M3201,1600 L3191,1602 C3182,1604 3194,1594 3184,1594 C3174,1594 3188,1604 3178,1602 L3168,1600 3168,1600 L3168,1609 C3169,1618 3164,1606 3161,1614 C3159,1623 3169,1611 3168,1621 L3168,1632 3168,1632 L3177,1632 C3186,1633 3174,1628 3183,1625 C3192,1623 3180,1633 3190,1632 L3201,1632 3201,1632 L3202,1622 C3203,1612 3196,1622 3196,1614 C3197,1606 3201,1619 3201,1609 L3201,1600"/></g><clipPath id="c" clipRule="evenodd" fill="transparent"><use href="#t6596"/></clipPath></defs><svg viewBox="3158 1593 46 41" preserveAspectRatio="xMinYMin meet"><svg width="4380" height="2430"><g><image crossorigin="anonymous" x="0" y="0" href="https://nftpuzzle.license-token.com/assets/completepuzzle.svg" width="100%" height="100%" /><g class="links"><use href="#t6596"/></g></g></svg><svg x="3189" y="1619" height="9%" width="9%" viewBox="0 0 330 330"><g><a xlink:href="https://nftpuzzle.license-token.com/" class="links"><title>See the most innovative NFT based token software licensing project</title><path fill="#E4CF37" id="more" d="M165,0C74.019,0,0,74.019,0,165s74.019,165,165,165s165-74.019,165-165S255.981,0,165,0z M85,190 c-13.785,0-25-11.215-25-25s11.215-25,25-25s25,11.215,25,25S98.785,190,85,190z M165,190c-13.785,0-25-11.215-25-25 s11.215-25,25-25s25,11.215,25,25S178.785,190,165,190z M245,190c-13.785,0-25-11.215-25-25s11.215-25,25-25 c13.785,0,25,11.215,25,25S258.785,190,245,190z"></path></a></g></svg></svg></svg>