<svg version="1.1" xmlns="http://www.w3.org/2000/svg" xmlns:xlink="http://www.w3.org/1999/xlink" fill="transparent" x="0" y="0" width="350" height="350" preserveAspectRatio="xMinYMin slice"><style type="text/css">.links{fill:transparent;stroke: #E4CF37;}.links:hover{fill:#63D272; opacity:0.4;}</style><defs><g id="allt"><path id="t6603" d="M3432,1600 L3421,1600 C3411,1600 3424,1591 3414,1591 C3405,1592 3417,1600 3408,1600 L3399,1600 3399,1600 L3398,1610 C3398,1620 3389,1605 3389,1615 C3390,1626 3399,1610 3399,1621 L3399,1632 3399,1632 L3409,1631 C3419,1631 3404,1622 3415,1622 C3426,1623 3409,1632 3420,1632 L3432,1632 3432,1632 L3433,1623 C3435,1614 3423,1626 3424,1615 C3426,1604 3432,1618 3432,1609 L3432,1600"/></g><clipPath id="c" clipRule="evenodd" fill="transparent"><use href="#t6603"/></clipPath></defs><svg viewBox="3388 1590 48 43" preserveAspectRatio="xMinYMin meet"><svg width="4380" height="2430"><g><image crossorigin="anonymous" x="0" y="0" href="https://nftpuzzle.license-token.com/assets/completepuzzle.svg" width="100%" height="100%" /><g class="links"><use href="#t6603"/></g></g></svg><svg x="3421" y="1618" height="9%" width="9%" viewBox="0 0 330 330"><g><a xlink:href="https://nftpuzzle.license-token.com/" class="links"><title>See the most innovative NFT based token software licensing project</title><path fill="#E4CF37" id="more" d="M165,0C74.019,0,0,74.019,0,165s74.019,165,165,165s165-74.019,165-165S255.981,0,165,0z M85,190 c-13.785,0-25-11.215-25-25s11.215-25,25-25s25,11.215,25,25S98.785,190,85,190z M165,190c-13.785,0-25-11.215-25-25 s11.215-25,25-25s25,11.215,25,25S178.785,190,165,190z M245,190c-13.785,0-25-11.215-25-25s11.215-25,25-25 c13.785,0,25,11.215,25,25S258.785,190,245,190z"></path></a></g></svg></svg></svg>