<svg version="1.1" xmlns="http://www.w3.org/2000/svg" xmlns:xlink="http://www.w3.org/1999/xlink" fill="transparent" x="0" y="0" width="350" height="350" preserveAspectRatio="xMinYMin slice"><style type="text/css">.links{fill:transparent;stroke: #E4CF37;}.links:hover{fill:#63D272; opacity:0.4;}</style><defs><g id="allt"><path id="t6604" d="M3465,1600 L3454,1602 C3443,1605 3456,1588 3448,1589 C3441,1590 3453,1604 3442,1602 L3432,1600 3432,1600 L3432,1609 C3432,1618 3426,1604 3424,1615 C3423,1626 3435,1614 3433,1623 L3432,1632 3432,1632 L3441,1632 C3451,1632 3436,1626 3447,1625 C3459,1624 3446,1635 3455,1633 L3465,1632 3465,1632 L3465,1622 C3466,1612 3459,1626 3457,1617 C3455,1608 3469,1618 3467,1609 L3465,1600"/></g><clipPath id="c" clipRule="evenodd" fill="transparent"><use href="#t6604"/></clipPath></defs><svg viewBox="3422 1587 48 49" preserveAspectRatio="xMinYMin meet"><svg width="4380" height="2430"><g><image crossorigin="anonymous" x="0" y="0" href="https://nftpuzzle.license-token.com/assets/completepuzzle.svg" width="100%" height="100%" /><g class="links"><use href="#t6604"/></g></g></svg><svg x="3455" y="1621" height="9%" width="9%" viewBox="0 0 330 330"><g><a xlink:href="https://nftpuzzle.license-token.com/" class="links"><title>See the most innovative NFT based token software licensing project</title><path fill="#E4CF37" id="more" d="M165,0C74.019,0,0,74.019,0,165s74.019,165,165,165s165-74.019,165-165S255.981,0,165,0z M85,190 c-13.785,0-25-11.215-25-25s11.215-25,25-25s25,11.215,25,25S98.785,190,85,190z M165,190c-13.785,0-25-11.215-25-25 s11.215-25,25-25s25,11.215,25,25S178.785,190,165,190z M245,190c-13.785,0-25-11.215-25-25s11.215-25,25-25 c13.785,0,25,11.215,25,25S258.785,190,245,190z"></path></a></g></svg></svg></svg>