<svg version="1.1" xmlns="http://www.w3.org/2000/svg" xmlns:xlink="http://www.w3.org/1999/xlink" fill="transparent" x="0" y="0" width="350" height="350" preserveAspectRatio="xMinYMin slice"><style type="text/css">.links{fill:transparent;stroke: #E4CF37;}.links:hover{fill:#63D272; opacity:0.4;}</style><defs><g id="allt"><path id="t6606" d="M3531,1600 L3520,1600 C3509,1601 3525,1593 3514,1593 C3504,1593 3520,1600 3509,1600 L3498,1600 3498,1600 L3498,1610 C3498,1620 3506,1608 3505,1617 C3505,1626 3497,1614 3497,1623 L3498,1632 3498,1632 L3508,1632 C3518,1632 3506,1640 3515,1639 C3525,1639 3512,1631 3521,1631 L3531,1632 3531,1632 L3532,1622 C3533,1613 3526,1624 3525,1615 C3524,1607 3532,1620 3531,1610 L3531,1600"/></g><clipPath id="c" clipRule="evenodd" fill="transparent"><use href="#t6606"/></clipPath></defs><svg viewBox="3496 1592 38 49" preserveAspectRatio="xMinYMin meet"><svg width="4380" height="2430"><g><image crossorigin="anonymous" x="0" y="0" href="https://nftpuzzle.license-token.com/assets/completepuzzle.svg" width="100%" height="100%" /><g class="links"><use href="#t6606"/></g></g></svg><svg x="3519" y="1626" height="9%" width="9%" viewBox="0 0 330 330"><g><a xlink:href="https://nftpuzzle.license-token.com/" class="links"><title>See the most innovative NFT based token software licensing project</title><path fill="#E4CF37" id="more" d="M165,0C74.019,0,0,74.019,0,165s74.019,165,165,165s165-74.019,165-165S255.981,0,165,0z M85,190 c-13.785,0-25-11.215-25-25s11.215-25,25-25s25,11.215,25,25S98.785,190,85,190z M165,190c-13.785,0-25-11.215-25-25 s11.215-25,25-25s25,11.215,25,25S178.785,190,165,190z M245,190c-13.785,0-25-11.215-25-25s11.215-25,25-25 c13.785,0,25,11.215,25,25S258.785,190,245,190z"></path></a></g></svg></svg></svg>