<svg version="1.1" xmlns="http://www.w3.org/2000/svg" xmlns:xlink="http://www.w3.org/1999/xlink" fill="transparent" x="0" y="0" width="350" height="350" preserveAspectRatio="xMinYMin slice"><style type="text/css">.links{fill:transparent;stroke: #E4CF37;}.links:hover{fill:#63D272; opacity:0.4;}</style><defs><g id="allt"><path id="t6608" d="M3597,1600 L3586,1600 C3576,1600 3590,1606 3580,1606 C3570,1607 3584,1599 3574,1599 L3564,1600 3564,1600 L3564,1609 C3565,1619 3560,1608 3560,1617 C3561,1626 3564,1613 3564,1622 L3564,1632 3564,1632 L3574,1632 C3584,1633 3572,1628 3581,1628 C3591,1629 3578,1632 3587,1632 L3597,1632 3597,1632 L3597,1623 C3598,1614 3585,1622 3587,1614 C3590,1606 3597,1618 3597,1609 L3597,1600"/></g><clipPath id="c" clipRule="evenodd" fill="transparent"><use href="#t6608"/></clipPath></defs><svg viewBox="3559 1598 40 36" preserveAspectRatio="xMinYMin meet"><svg width="4380" height="2430"><g><image crossorigin="anonymous" x="0" y="0" href="https://nftpuzzle.license-token.com/assets/completepuzzle.svg" width="100%" height="100%" /><g class="links"><use href="#t6608"/></g></g></svg><svg x="3584" y="1619" height="9%" width="9%" viewBox="0 0 330 330"><g><a xlink:href="https://nftpuzzle.license-token.com/" class="links"><title>See the most innovative NFT based token software licensing project</title><path fill="#E4CF37" id="more" d="M165,0C74.019,0,0,74.019,0,165s74.019,165,165,165s165-74.019,165-165S255.981,0,165,0z M85,190 c-13.785,0-25-11.215-25-25s11.215-25,25-25s25,11.215,25,25S98.785,190,85,190z M165,190c-13.785,0-25-11.215-25-25 s11.215-25,25-25s25,11.215,25,25S178.785,190,165,190z M245,190c-13.785,0-25-11.215-25-25s11.215-25,25-25 c13.785,0,25,11.215,25,25S258.785,190,245,190z"></path></a></g></svg></svg></svg>