<svg version="1.1" xmlns="http://www.w3.org/2000/svg" xmlns:xlink="http://www.w3.org/1999/xlink" fill="transparent" x="0" y="0" width="350" height="350" preserveAspectRatio="xMinYMin slice"><style type="text/css">.links{fill:transparent;stroke: #E4CF37;}.links:hover{fill:#63D272; opacity:0.4;}</style><defs><g id="allt"><path id="t6610" d="M3663,1600 L3653,1600 C3644,1601 3655,1596 3646,1596 C3637,1596 3650,1600 3640,1600 L3630,1600 3630,1600 L3629,1609 C3628,1618 3632,1606 3633,1614 C3634,1623 3630,1613 3630,1622 L3630,1632 3630,1632 L3639,1631 C3649,1630 3636,1634 3645,1635 C3654,1636 3643,1632 3653,1632 L3663,1632 3663,1632 L3663,1621 C3663,1611 3658,1622 3658,1615 C3658,1608 3663,1617 3663,1608 L3663,1600"/></g><clipPath id="c" clipRule="evenodd" fill="transparent"><use href="#t6610"/></clipPath></defs><svg viewBox="3627 1595 37 42" preserveAspectRatio="xMinYMin meet"><svg width="4380" height="2430"><g><image crossorigin="anonymous" x="0" y="0" href="https://nftpuzzle.license-token.com/assets/completepuzzle.svg" width="100%" height="100%" /><g class="links"><use href="#t6610"/></g></g></svg><svg x="3649" y="1622" height="9%" width="9%" viewBox="0 0 330 330"><g><a xlink:href="https://nftpuzzle.license-token.com/" class="links"><title>See the most innovative NFT based token software licensing project</title><path fill="#E4CF37" id="more" d="M165,0C74.019,0,0,74.019,0,165s74.019,165,165,165s165-74.019,165-165S255.981,0,165,0z M85,190 c-13.785,0-25-11.215-25-25s11.215-25,25-25s25,11.215,25,25S98.785,190,85,190z M165,190c-13.785,0-25-11.215-25-25 s11.215-25,25-25s25,11.215,25,25S178.785,190,165,190z M245,190c-13.785,0-25-11.215-25-25s11.215-25,25-25 c13.785,0,25,11.215,25,25S258.785,190,245,190z"></path></a></g></svg></svg></svg>