<svg version="1.1" xmlns="http://www.w3.org/2000/svg" xmlns:xlink="http://www.w3.org/1999/xlink" fill="transparent" x="0" y="0" width="350" height="350" preserveAspectRatio="xMinYMin slice"><style type="text/css">.links{fill:transparent;stroke: #E4CF37;}.links:hover{fill:#63D272; opacity:0.4;}</style><defs><g id="allt"><path id="t6611" d="M3696,1600 L3685,1600 C3674,1600 3687,1594 3677,1595 C3668,1596 3684,1600 3673,1600 L3663,1600 3663,1600 L3663,1608 C3663,1617 3658,1608 3658,1615 C3658,1622 3663,1611 3663,1621 L3663,1632 3663,1632 L3672,1632 C3681,1632 3671,1627 3678,1627 C3686,1627 3674,1632 3685,1632 L3696,1632 3696,1632 L3696,1622 C3696,1612 3686,1625 3686,1615 C3686,1605 3700,1621 3698,1610 L3696,1600"/></g><clipPath id="c" clipRule="evenodd" fill="transparent"><use href="#t6611"/></clipPath></defs><svg viewBox="3657 1593 44 40" preserveAspectRatio="xMinYMin meet"><svg width="4380" height="2430"><g><image crossorigin="anonymous" x="0" y="0" href="https://nftpuzzle.license-token.com/assets/completepuzzle.svg" width="100%" height="100%" /><g class="links"><use href="#t6611"/></g></g></svg><svg x="3686" y="1618" height="9%" width="9%" viewBox="0 0 330 330"><g><a xlink:href="https://nftpuzzle.license-token.com/" class="links"><title>See the most innovative NFT based token software licensing project</title><path fill="#E4CF37" id="more" d="M165,0C74.019,0,0,74.019,0,165s74.019,165,165,165s165-74.019,165-165S255.981,0,165,0z M85,190 c-13.785,0-25-11.215-25-25s11.215-25,25-25s25,11.215,25,25S98.785,190,85,190z M165,190c-13.785,0-25-11.215-25-25 s11.215-25,25-25s25,11.215,25,25S178.785,190,165,190z M245,190c-13.785,0-25-11.215-25-25s11.215-25,25-25 c13.785,0,25,11.215,25,25S258.785,190,245,190z"></path></a></g></svg></svg></svg>