<svg version="1.1" xmlns="http://www.w3.org/2000/svg" xmlns:xlink="http://www.w3.org/1999/xlink" fill="transparent" x="0" y="0" width="350" height="350" preserveAspectRatio="xMinYMin slice"><style type="text/css">.links{fill:transparent;stroke: #E4CF37;}.links:hover{fill:#63D272; opacity:0.4;}</style><defs><g id="allt"><path id="t6616" d="M3861,1600 L3850,1599 C3839,1599 3856,1607 3846,1606 C3836,1606 3847,1599 3837,1599 L3828,1600 3828,1600 L3826,1609 C3824,1619 3835,1608 3834,1615 C3833,1622 3829,1612 3828,1622 L3828,1632 3828,1632 L3837,1630 C3847,1628 3836,1639 3843,1638 C3851,1637 3840,1633 3850,1632 L3861,1632 3861,1632 L3862,1621 C3863,1611 3857,1626 3855,1617 C3853,1608 3864,1617 3862,1608 L3861,1600"/></g><clipPath id="c" clipRule="evenodd" fill="transparent"><use href="#t6616"/></clipPath></defs><svg viewBox="3823 1598 42 42" preserveAspectRatio="xMinYMin meet"><svg width="4380" height="2430"><g><image crossorigin="anonymous" x="0" y="0" href="https://nftpuzzle.license-token.com/assets/completepuzzle.svg" width="100%" height="100%" /><g class="links"><use href="#t6616"/></g></g></svg><svg x="3850" y="1625" height="9%" width="9%" viewBox="0 0 330 330"><g><a xlink:href="https://nftpuzzle.license-token.com/" class="links"><title>See the most innovative NFT based token software licensing project</title><path fill="#E4CF37" id="more" d="M165,0C74.019,0,0,74.019,0,165s74.019,165,165,165s165-74.019,165-165S255.981,0,165,0z M85,190 c-13.785,0-25-11.215-25-25s11.215-25,25-25s25,11.215,25,25S98.785,190,85,190z M165,190c-13.785,0-25-11.215-25-25 s11.215-25,25-25s25,11.215,25,25S178.785,190,165,190z M245,190c-13.785,0-25-11.215-25-25s11.215-25,25-25 c13.785,0,25,11.215,25,25S258.785,190,245,190z"></path></a></g></svg></svg></svg>