<svg version="1.1" xmlns="http://www.w3.org/2000/svg" xmlns:xlink="http://www.w3.org/1999/xlink" fill="transparent" x="0" y="0" width="350" height="350" preserveAspectRatio="xMinYMin slice"><style type="text/css">.links{fill:transparent;stroke: #E4CF37;}.links:hover{fill:#63D272; opacity:0.4;}</style><defs><g id="allt"><path id="t6617" d="M3894,1600 L3884,1600 C3875,1600 3885,1603 3876,1602 C3867,1602 3880,1599 3870,1599 L3861,1600 3861,1600 L3862,1608 C3864,1617 3853,1608 3855,1617 C3857,1626 3863,1611 3862,1621 L3861,1632 3861,1632 L3870,1633 C3879,1635 3869,1624 3878,1626 C3888,1628 3873,1634 3883,1633 L3894,1632 3894,1632 L3894,1621 C3894,1610 3898,1624 3897,1616 C3897,1608 3894,1621 3894,1610 L3894,1600"/></g><clipPath id="c" clipRule="evenodd" fill="transparent"><use href="#t6617"/></clipPath></defs><svg viewBox="3852 1598 47 38" preserveAspectRatio="xMinYMin meet"><svg width="4380" height="2430"><g><image crossorigin="anonymous" x="0" y="0" href="https://nftpuzzle.license-token.com/assets/completepuzzle.svg" width="100%" height="100%" /><g class="links"><use href="#t6617"/></g></g></svg><svg x="3884" y="1621" height="9%" width="9%" viewBox="0 0 330 330"><g><a xlink:href="https://nftpuzzle.license-token.com/" class="links"><title>See the most innovative NFT based token software licensing project</title><path fill="#E4CF37" id="more" d="M165,0C74.019,0,0,74.019,0,165s74.019,165,165,165s165-74.019,165-165S255.981,0,165,0z M85,190 c-13.785,0-25-11.215-25-25s11.215-25,25-25s25,11.215,25,25S98.785,190,85,190z M165,190c-13.785,0-25-11.215-25-25 s11.215-25,25-25s25,11.215,25,25S178.785,190,165,190z M245,190c-13.785,0-25-11.215-25-25s11.215-25,25-25 c13.785,0,25,11.215,25,25S258.785,190,245,190z"></path></a></g></svg></svg></svg>