<svg version="1.1" xmlns="http://www.w3.org/2000/svg" xmlns:xlink="http://www.w3.org/1999/xlink" fill="transparent" x="0" y="0" width="350" height="350" preserveAspectRatio="xMinYMin slice"><style type="text/css">.links{fill:transparent;stroke: #E4CF37;}.links:hover{fill:#63D272; opacity:0.4;}</style><defs><g id="allt"><path id="t6620" d="M3993,1600 L3982,1599 C3971,1598 3983,1609 3976,1608 C3969,1608 3979,1600 3969,1600 L3960,1600 3960,1600 L3960,1609 C3960,1618 3965,1606 3967,1615 C3969,1625 3960,1614 3960,1623 L3960,1632 3960,1632 L3969,1632 C3978,1632 3966,1637 3976,1638 C3986,1640 3974,1632 3983,1632 L3993,1632 3993,1632 L3993,1622 C3993,1613 3986,1625 3985,1615 C3985,1606 3995,1617 3994,1608 L3993,1600"/></g><clipPath id="c" clipRule="evenodd" fill="transparent"><use href="#t6620"/></clipPath></defs><svg viewBox="3959 1597 37 44" preserveAspectRatio="xMinYMin meet"><svg width="4380" height="2430"><g><image crossorigin="anonymous" x="0" y="0" href="https://nftpuzzle.license-token.com/assets/completepuzzle.svg" width="100%" height="100%" /><g class="links"><use href="#t6620"/></g></g></svg><svg x="3981" y="1626" height="9%" width="9%" viewBox="0 0 330 330"><g><a xlink:href="https://nftpuzzle.license-token.com/" class="links"><title>See the most innovative NFT based token software licensing project</title><path fill="#E4CF37" id="more" d="M165,0C74.019,0,0,74.019,0,165s74.019,165,165,165s165-74.019,165-165S255.981,0,165,0z M85,190 c-13.785,0-25-11.215-25-25s11.215-25,25-25s25,11.215,25,25S98.785,190,85,190z M165,190c-13.785,0-25-11.215-25-25 s11.215-25,25-25s25,11.215,25,25S178.785,190,165,190z M245,190c-13.785,0-25-11.215-25-25s11.215-25,25-25 c13.785,0,25,11.215,25,25S258.785,190,245,190z"></path></a></g></svg></svg></svg>