<svg version="1.1" xmlns="http://www.w3.org/2000/svg" xmlns:xlink="http://www.w3.org/1999/xlink" fill="transparent" x="0" y="0" width="350" height="350" preserveAspectRatio="xMinYMin slice"><style type="text/css">.links{fill:transparent;stroke: #E4CF37;}.links:hover{fill:#63D272; opacity:0.4;}</style><defs><g id="allt"><path id="t6625" d="M4158,1600 L4147,1600 C4136,1600 4151,1603 4142,1604 C4133,1606 4146,1600 4135,1600 L4125,1600 4125,1600 L4125,1609 C4125,1618 4131,1606 4132,1616 C4133,1626 4125,1611 4125,1621 L4125,1632 4125,1632 L4134,1632 C4144,1632 4131,1638 4141,1639 C4152,1640 4137,1632 4147,1632 L4158,1632 4158,1632 L4159,1622 C4161,1612 4148,1624 4148,1615 C4148,1606 4162,1619 4160,1609 L4158,1600"/></g><clipPath id="c" clipRule="evenodd" fill="transparent"><use href="#t6625"/></clipPath></defs><svg viewBox="4124 1599 39 42" preserveAspectRatio="xMinYMin meet"><svg width="4380" height="2430"><g><image crossorigin="anonymous" x="0" y="0" href="https://nftpuzzle.license-token.com/assets/completepuzzle.svg" width="100%" height="100%" /><g class="links"><use href="#t6625"/></g></g></svg><svg x="4148" y="1626" height="9%" width="9%" viewBox="0 0 330 330"><g><a xlink:href="https://nftpuzzle.license-token.com/" class="links"><title>See the most innovative NFT based token software licensing project</title><path fill="#E4CF37" id="more" d="M165,0C74.019,0,0,74.019,0,165s74.019,165,165,165s165-74.019,165-165S255.981,0,165,0z M85,190 c-13.785,0-25-11.215-25-25s11.215-25,25-25s25,11.215,25,25S98.785,190,85,190z M165,190c-13.785,0-25-11.215-25-25 s11.215-25,25-25s25,11.215,25,25S178.785,190,165,190z M245,190c-13.785,0-25-11.215-25-25s11.215-25,25-25 c13.785,0,25,11.215,25,25S258.785,190,245,190z"></path></a></g></svg></svg></svg>