<svg version="1.1" xmlns="http://www.w3.org/2000/svg" xmlns:xlink="http://www.w3.org/1999/xlink" fill="transparent" x="0" y="0" width="350" height="350" preserveAspectRatio="xMinYMin slice"><style type="text/css">.links{fill:transparent;stroke: #E4CF37;}.links:hover{fill:#63D272; opacity:0.4;}</style><defs><g id="allt"><path id="t6634" d="M165,1632 L155,1632 C146,1632 157,1624 149,1626 C141,1628 150,1632 141,1632 L132,1632 132,1632 L131,1640 C130,1649 137,1637 138,1646 C139,1656 130,1642 131,1653 L132,1664 132,1664 L141,1663 C150,1662 137,1669 147,1670 C157,1671 143,1662 154,1663 L165,1664 165,1664 L165,1653 C165,1643 174,1654 172,1647 C171,1640 161,1650 163,1641 L165,1632"/></g><clipPath id="c" clipRule="evenodd" fill="transparent"><use href="#t6634"/></clipPath></defs><svg viewBox="129 1623 46 49" preserveAspectRatio="xMinYMin meet"><svg width="4380" height="2430"><g><image crossorigin="anonymous" x="0" y="0" href="https://nftpuzzle.license-token.com/assets/completepuzzle.svg" width="100%" height="100%" /><g class="links"><use href="#t6634"/></g></g></svg><svg x="160" y="1657" height="9%" width="9%" viewBox="0 0 330 330"><g><a xlink:href="https://nftpuzzle.license-token.com/" class="links"><title>See the most innovative NFT based token software licensing project</title><path fill="#E4CF37" id="more" d="M165,0C74.019,0,0,74.019,0,165s74.019,165,165,165s165-74.019,165-165S255.981,0,165,0z M85,190 c-13.785,0-25-11.215-25-25s11.215-25,25-25s25,11.215,25,25S98.785,190,85,190z M165,190c-13.785,0-25-11.215-25-25 s11.215-25,25-25s25,11.215,25,25S178.785,190,165,190z M245,190c-13.785,0-25-11.215-25-25s11.215-25,25-25 c13.785,0,25,11.215,25,25S258.785,190,245,190z"></path></a></g></svg></svg></svg>