<svg version="1.1" xmlns="http://www.w3.org/2000/svg" xmlns:xlink="http://www.w3.org/1999/xlink" fill="transparent" x="0" y="0" width="350" height="350" preserveAspectRatio="xMinYMin slice"><style type="text/css">.links{fill:transparent;stroke: #E4CF37;}.links:hover{fill:#63D272; opacity:0.4;}</style><defs><g id="allt"><path id="t6636" d="M231,1632 L221,1631 C211,1630 223,1638 213,1638 C203,1639 217,1632 207,1632 L198,1632 198,1632 L199,1642 C201,1653 188,1641 188,1649 C189,1657 201,1642 199,1653 L198,1664 198,1664 L208,1665 C219,1667 207,1655 215,1655 C224,1655 208,1667 219,1665 L231,1664 231,1664 L232,1654 C234,1644 226,1655 225,1647 C225,1639 234,1651 232,1641 L231,1632"/></g><clipPath id="c" clipRule="evenodd" fill="transparent"><use href="#t6636"/></clipPath></defs><svg viewBox="187 1629 48 39" preserveAspectRatio="xMinYMin meet"><svg width="4380" height="2430"><g><image crossorigin="anonymous" x="0" y="0" href="https://nftpuzzle.license-token.com/assets/completepuzzle.svg" width="100%" height="100%" /><g class="links"><use href="#t6636"/></g></g></svg><svg x="220" y="1653" height="9%" width="9%" viewBox="0 0 330 330"><g><a xlink:href="https://nftpuzzle.license-token.com/" class="links"><title>See the most innovative NFT based token software licensing project</title><path fill="#E4CF37" id="more" d="M165,0C74.019,0,0,74.019,0,165s74.019,165,165,165s165-74.019,165-165S255.981,0,165,0z M85,190 c-13.785,0-25-11.215-25-25s11.215-25,25-25s25,11.215,25,25S98.785,190,85,190z M165,190c-13.785,0-25-11.215-25-25 s11.215-25,25-25s25,11.215,25,25S178.785,190,165,190z M245,190c-13.785,0-25-11.215-25-25s11.215-25,25-25 c13.785,0,25,11.215,25,25S258.785,190,245,190z"></path></a></g></svg></svg></svg>