<svg version="1.1" xmlns="http://www.w3.org/2000/svg" xmlns:xlink="http://www.w3.org/1999/xlink" fill="transparent" x="0" y="0" width="350" height="350" preserveAspectRatio="xMinYMin slice"><style type="text/css">.links{fill:transparent;stroke: #E4CF37;}.links:hover{fill:#63D272; opacity:0.4;}</style><defs><g id="allt"><path id="t6640" d="M363,1632 L352,1632 C342,1633 353,1627 344,1627 C336,1627 351,1632 340,1632 L330,1632 330,1632 L330,1641 C330,1650 324,1640 324,1649 C324,1659 330,1644 330,1654 L330,1664 330,1664 L339,1664 C349,1664 339,1658 348,1658 C358,1658 342,1664 352,1664 L363,1664 363,1664 L365,1653 C367,1643 358,1654 357,1646 C357,1639 366,1651 364,1641 L363,1632"/></g><clipPath id="c" clipRule="evenodd" fill="transparent"><use href="#t6640"/></clipPath></defs><svg viewBox="323 1626 45 39" preserveAspectRatio="xMinYMin meet"><svg width="4380" height="2430"><g><image crossorigin="anonymous" x="0" y="0" href="https://nftpuzzle.license-token.com/assets/completepuzzle.svg" width="100%" height="100%" /><g class="links"><use href="#t6640"/></g></g></svg><svg x="353" y="1650" height="9%" width="9%" viewBox="0 0 330 330"><g><a xlink:href="https://nftpuzzle.license-token.com/" class="links"><title>See the most innovative NFT based token software licensing project</title><path fill="#E4CF37" id="more" d="M165,0C74.019,0,0,74.019,0,165s74.019,165,165,165s165-74.019,165-165S255.981,0,165,0z M85,190 c-13.785,0-25-11.215-25-25s11.215-25,25-25s25,11.215,25,25S98.785,190,85,190z M165,190c-13.785,0-25-11.215-25-25 s11.215-25,25-25s25,11.215,25,25S178.785,190,165,190z M245,190c-13.785,0-25-11.215-25-25s11.215-25,25-25 c13.785,0,25,11.215,25,25S258.785,190,245,190z"></path></a></g></svg></svg></svg>