<svg version="1.1" xmlns="http://www.w3.org/2000/svg" xmlns:xlink="http://www.w3.org/1999/xlink" fill="transparent" x="0" y="0" width="350" height="350" preserveAspectRatio="xMinYMin slice"><style type="text/css">.links{fill:transparent;stroke: #E4CF37;}.links:hover{fill:#63D272; opacity:0.4;}</style><defs><g id="allt"><path id="t6641" d="M396,1632 L385,1631 C375,1630 390,1642 380,1641 C371,1640 381,1628 372,1630 L363,1632 363,1632 L364,1641 C366,1651 357,1639 357,1646 C358,1654 367,1643 365,1653 L363,1664 363,1664 L372,1665 C382,1667 370,1658 378,1658 C386,1659 375,1668 385,1666 L396,1664 396,1664 L396,1654 C397,1645 391,1659 390,1650 C390,1641 398,1650 397,1641 L396,1632"/></g><clipPath id="c" clipRule="evenodd" fill="transparent"><use href="#t6641"/></clipPath></defs><svg viewBox="356 1627 43 42" preserveAspectRatio="xMinYMin meet"><svg width="4380" height="2430"><g><image crossorigin="anonymous" x="0" y="0" href="https://nftpuzzle.license-token.com/assets/completepuzzle.svg" width="100%" height="100%" /><g class="links"><use href="#t6641"/></g></g></svg><svg x="384" y="1654" height="9%" width="9%" viewBox="0 0 330 330"><g><a xlink:href="https://nftpuzzle.license-token.com/" class="links"><title>See the most innovative NFT based token software licensing project</title><path fill="#E4CF37" id="more" d="M165,0C74.019,0,0,74.019,0,165s74.019,165,165,165s165-74.019,165-165S255.981,0,165,0z M85,190 c-13.785,0-25-11.215-25-25s11.215-25,25-25s25,11.215,25,25S98.785,190,85,190z M165,190c-13.785,0-25-11.215-25-25 s11.215-25,25-25s25,11.215,25,25S178.785,190,165,190z M245,190c-13.785,0-25-11.215-25-25s11.215-25,25-25 c13.785,0,25,11.215,25,25S258.785,190,245,190z"></path></a></g></svg></svg></svg>