<svg version="1.1" xmlns="http://www.w3.org/2000/svg" xmlns:xlink="http://www.w3.org/1999/xlink" fill="transparent" x="0" y="0" width="350" height="350" preserveAspectRatio="xMinYMin slice"><style type="text/css">.links{fill:transparent;stroke: #E4CF37;}.links:hover{fill:#63D272; opacity:0.4;}</style><defs><g id="allt"><path id="t6642" d="M429,1632 L418,1632 C408,1632 423,1635 412,1635 C401,1636 417,1631 406,1631 L396,1632 396,1632 L397,1641 C398,1650 390,1641 390,1650 C391,1659 397,1645 396,1654 L396,1664 396,1664 L405,1665 C415,1666 405,1658 414,1658 C424,1659 410,1665 419,1664 L429,1664 429,1664 L428,1654 C427,1644 436,1656 436,1646 C437,1636 429,1650 429,1641 L429,1632"/></g><clipPath id="c" clipRule="evenodd" fill="transparent"><use href="#t6642"/></clipPath></defs><svg viewBox="389 1630 49 37" preserveAspectRatio="xMinYMin meet"><svg width="4380" height="2430"><g><image crossorigin="anonymous" x="0" y="0" href="https://nftpuzzle.license-token.com/assets/completepuzzle.svg" width="100%" height="100%" /><g class="links"><use href="#t6642"/></g></g></svg><svg x="423" y="1652" height="9%" width="9%" viewBox="0 0 330 330"><g><a xlink:href="https://nftpuzzle.license-token.com/" class="links"><title>See the most innovative NFT based token software licensing project</title><path fill="#E4CF37" id="more" d="M165,0C74.019,0,0,74.019,0,165s74.019,165,165,165s165-74.019,165-165S255.981,0,165,0z M85,190 c-13.785,0-25-11.215-25-25s11.215-25,25-25s25,11.215,25,25S98.785,190,85,190z M165,190c-13.785,0-25-11.215-25-25 s11.215-25,25-25s25,11.215,25,25S178.785,190,165,190z M245,190c-13.785,0-25-11.215-25-25s11.215-25,25-25 c13.785,0,25,11.215,25,25S258.785,190,245,190z"></path></a></g></svg></svg></svg>