<svg version="1.1" xmlns="http://www.w3.org/2000/svg" xmlns:xlink="http://www.w3.org/1999/xlink" fill="transparent" x="0" y="0" width="350" height="350" preserveAspectRatio="xMinYMin slice"><style type="text/css">.links{fill:transparent;stroke: #E4CF37;}.links:hover{fill:#63D272; opacity:0.4;}</style><defs><g id="allt"><path id="t6647" d="M594,1632 L584,1632 C574,1632 584,1634 577,1634 C570,1635 579,1632 570,1632 L561,1632 561,1632 L561,1641 C561,1650 556,1639 555,1647 C554,1656 563,1642 562,1653 L561,1664 561,1664 L570,1664 C579,1664 568,1659 577,1658 C586,1657 572,1666 583,1665 L594,1664 594,1664 L594,1654 C594,1644 600,1656 600,1646 C601,1637 593,1650 593,1641 L594,1632"/></g><clipPath id="c" clipRule="evenodd" fill="transparent"><use href="#t6647"/></clipPath></defs><svg viewBox="553 1631 49 36" preserveAspectRatio="xMinYMin meet"><svg width="4380" height="2430"><g><image crossorigin="anonymous" x="0" y="0" href="https://nftpuzzle.license-token.com/assets/completepuzzle.svg" width="100%" height="100%" /><g class="links"><use href="#t6647"/></g></g></svg><svg x="587" y="1652" height="9%" width="9%" viewBox="0 0 330 330"><g><a xlink:href="https://nftpuzzle.license-token.com/" class="links"><title>See the most innovative NFT based token software licensing project</title><path fill="#E4CF37" id="more" d="M165,0C74.019,0,0,74.019,0,165s74.019,165,165,165s165-74.019,165-165S255.981,0,165,0z M85,190 c-13.785,0-25-11.215-25-25s11.215-25,25-25s25,11.215,25,25S98.785,190,85,190z M165,190c-13.785,0-25-11.215-25-25 s11.215-25,25-25s25,11.215,25,25S178.785,190,165,190z M245,190c-13.785,0-25-11.215-25-25s11.215-25,25-25 c13.785,0,25,11.215,25,25S258.785,190,245,190z"></path></a></g></svg></svg></svg>