<svg version="1.1" xmlns="http://www.w3.org/2000/svg" xmlns:xlink="http://www.w3.org/1999/xlink" fill="transparent" x="0" y="0" width="350" height="350" preserveAspectRatio="xMinYMin slice"><style type="text/css">.links{fill:transparent;stroke: #E4CF37;}.links:hover{fill:#63D272; opacity:0.4;}</style><defs><g id="allt"><path id="t6648" d="M627,1632 L617,1632 C607,1632 619,1625 609,1624 C599,1624 613,1632 603,1632 L594,1632 594,1632 L593,1641 C593,1650 601,1637 600,1646 C600,1656 594,1644 594,1654 L594,1664 594,1664 L603,1663 C613,1663 599,1671 609,1670 C619,1670 606,1664 616,1664 L627,1664 627,1664 L628,1653 C629,1643 618,1655 619,1645 C621,1636 631,1653 629,1642 L627,1632"/></g><clipPath id="c" clipRule="evenodd" fill="transparent"><use href="#t6648"/></clipPath></defs><svg viewBox="592 1623 40 49" preserveAspectRatio="xMinYMin meet"><svg width="4380" height="2430"><g><image crossorigin="anonymous" x="0" y="0" href="https://nftpuzzle.license-token.com/assets/completepuzzle.svg" width="100%" height="100%" /><g class="links"><use href="#t6648"/></g></g></svg><svg x="617" y="1657" height="9%" width="9%" viewBox="0 0 330 330"><g><a xlink:href="https://nftpuzzle.license-token.com/" class="links"><title>See the most innovative NFT based token software licensing project</title><path fill="#E4CF37" id="more" d="M165,0C74.019,0,0,74.019,0,165s74.019,165,165,165s165-74.019,165-165S255.981,0,165,0z M85,190 c-13.785,0-25-11.215-25-25s11.215-25,25-25s25,11.215,25,25S98.785,190,85,190z M165,190c-13.785,0-25-11.215-25-25 s11.215-25,25-25s25,11.215,25,25S178.785,190,165,190z M245,190c-13.785,0-25-11.215-25-25s11.215-25,25-25 c13.785,0,25,11.215,25,25S258.785,190,245,190z"></path></a></g></svg></svg></svg>