<svg version="1.1" xmlns="http://www.w3.org/2000/svg" xmlns:xlink="http://www.w3.org/1999/xlink" fill="transparent" x="0" y="0" width="350" height="350" preserveAspectRatio="xMinYMin slice"><style type="text/css">.links{fill:transparent;stroke: #E4CF37;}.links:hover{fill:#63D272; opacity:0.4;}</style><defs><g id="allt"><path id="t6657" d="M924,1632 L914,1632 C904,1633 916,1619 908,1621 C900,1623 911,1635 901,1633 L891,1632 891,1632 L891,1642 C891,1653 884,1639 884,1649 C884,1659 894,1645 892,1654 L891,1664 891,1664 L901,1664 C912,1664 898,1657 908,1657 C919,1657 904,1667 914,1665 L924,1664 924,1664 L926,1653 C928,1643 912,1655 913,1647 C915,1639 924,1652 924,1642 L924,1632"/></g><clipPath id="c" clipRule="evenodd" fill="transparent"><use href="#t6657"/></clipPath></defs><svg viewBox="883 1618 46 50" preserveAspectRatio="xMinYMin meet"><svg width="4380" height="2430"><g><image crossorigin="anonymous" x="0" y="0" href="https://nftpuzzle.license-token.com/assets/completepuzzle.svg" width="100%" height="100%" /><g class="links"><use href="#t6657"/></g></g></svg><svg x="914" y="1653" height="9%" width="9%" viewBox="0 0 330 330"><g><a xlink:href="https://nftpuzzle.license-token.com/" class="links"><title>See the most innovative NFT based token software licensing project</title><path fill="#E4CF37" id="more" d="M165,0C74.019,0,0,74.019,0,165s74.019,165,165,165s165-74.019,165-165S255.981,0,165,0z M85,190 c-13.785,0-25-11.215-25-25s11.215-25,25-25s25,11.215,25,25S98.785,190,85,190z M165,190c-13.785,0-25-11.215-25-25 s11.215-25,25-25s25,11.215,25,25S178.785,190,165,190z M245,190c-13.785,0-25-11.215-25-25s11.215-25,25-25 c13.785,0,25,11.215,25,25S258.785,190,245,190z"></path></a></g></svg></svg></svg>