<svg version="1.1" xmlns="http://www.w3.org/2000/svg" xmlns:xlink="http://www.w3.org/1999/xlink" fill="transparent" x="0" y="0" width="350" height="350" preserveAspectRatio="xMinYMin slice"><style type="text/css">.links{fill:transparent;stroke: #E4CF37;}.links:hover{fill:#63D272; opacity:0.4;}</style><defs><g id="allt"><path id="t6662" d="M1089,1632 L1078,1632 C1068,1632 1079,1628 1070,1627 C1061,1626 1078,1634 1067,1633 L1056,1632 1056,1632 L1055,1642 C1054,1652 1064,1640 1062,1648 C1061,1657 1055,1644 1055,1654 L1056,1664 1056,1664 L1066,1663 C1077,1662 1065,1672 1073,1670 C1082,1669 1068,1663 1078,1663 L1089,1664 1089,1664 L1091,1654 C1094,1644 1078,1654 1080,1647 C1082,1641 1088,1649 1088,1640 L1089,1632"/></g><clipPath id="c" clipRule="evenodd" fill="transparent"><use href="#t6662"/></clipPath></defs><svg viewBox="1053 1625 42 48" preserveAspectRatio="xMinYMin meet"><svg width="4380" height="2430"><g><image crossorigin="anonymous" x="0" y="0" href="https://nftpuzzle.license-token.com/assets/completepuzzle.svg" width="100%" height="100%" /><g class="links"><use href="#t6662"/></g></g></svg><svg x="1080" y="1658" height="9%" width="9%" viewBox="0 0 330 330"><g><a xlink:href="https://nftpuzzle.license-token.com/" class="links"><title>See the most innovative NFT based token software licensing project</title><path fill="#E4CF37" id="more" d="M165,0C74.019,0,0,74.019,0,165s74.019,165,165,165s165-74.019,165-165S255.981,0,165,0z M85,190 c-13.785,0-25-11.215-25-25s11.215-25,25-25s25,11.215,25,25S98.785,190,85,190z M165,190c-13.785,0-25-11.215-25-25 s11.215-25,25-25s25,11.215,25,25S178.785,190,165,190z M245,190c-13.785,0-25-11.215-25-25s11.215-25,25-25 c13.785,0,25,11.215,25,25S258.785,190,245,190z"></path></a></g></svg></svg></svg>