<svg version="1.1" xmlns="http://www.w3.org/2000/svg" xmlns:xlink="http://www.w3.org/1999/xlink" fill="transparent" x="0" y="0" width="350" height="350" preserveAspectRatio="xMinYMin slice"><style type="text/css">.links{fill:transparent;stroke: #E4CF37;}.links:hover{fill:#63D272; opacity:0.4;}</style><defs><g id="allt"><path id="t6663" d="M1122,1632 L1111,1631 C1100,1630 1112,1639 1103,1639 C1095,1639 1107,1631 1098,1631 L1089,1632 1089,1632 L1088,1640 C1088,1649 1082,1641 1080,1647 C1078,1654 1094,1644 1091,1654 L1089,1664 1089,1664 L1098,1663 C1107,1663 1098,1657 1105,1655 C1112,1654 1101,1669 1111,1666 L1122,1664 1122,1664 L1121,1654 C1121,1645 1126,1656 1125,1648 C1125,1640 1121,1650 1121,1641 L1122,1632"/></g><clipPath id="c" clipRule="evenodd" fill="transparent"><use href="#t6663"/></clipPath></defs><svg viewBox="1077 1629 50 41" preserveAspectRatio="xMinYMin meet"><svg width="4380" height="2430"><g><image crossorigin="anonymous" x="0" y="0" href="https://nftpuzzle.license-token.com/assets/completepuzzle.svg" width="100%" height="100%" /><g class="links"><use href="#t6663"/></g></g></svg><svg x="1112" y="1655" height="9%" width="9%" viewBox="0 0 330 330"><g><a xlink:href="https://nftpuzzle.license-token.com/" class="links"><title>See the most innovative NFT based token software licensing project</title><path fill="#E4CF37" id="more" d="M165,0C74.019,0,0,74.019,0,165s74.019,165,165,165s165-74.019,165-165S255.981,0,165,0z M85,190 c-13.785,0-25-11.215-25-25s11.215-25,25-25s25,11.215,25,25S98.785,190,85,190z M165,190c-13.785,0-25-11.215-25-25 s11.215-25,25-25s25,11.215,25,25S178.785,190,165,190z M245,190c-13.785,0-25-11.215-25-25s11.215-25,25-25 c13.785,0,25,11.215,25,25S258.785,190,245,190z"></path></a></g></svg></svg></svg>