<svg version="1.1" xmlns="http://www.w3.org/2000/svg" xmlns:xlink="http://www.w3.org/1999/xlink" fill="transparent" x="0" y="0" width="350" height="350" preserveAspectRatio="xMinYMin slice"><style type="text/css">.links{fill:transparent;stroke: #E4CF37;}.links:hover{fill:#63D272; opacity:0.4;}</style><defs><g id="allt"><path id="t6670" d="M1353,1632 L1342,1631 C1332,1631 1347,1637 1336,1638 C1326,1639 1341,1632 1330,1632 L1320,1632 1320,1632 L1320,1641 C1320,1651 1317,1639 1316,1647 C1315,1656 1320,1643 1320,1653 L1320,1664 1320,1664 L1330,1664 C1340,1664 1327,1661 1336,1660 C1345,1659 1331,1664 1342,1664 L1353,1664 1353,1664 L1353,1654 C1353,1644 1350,1655 1350,1648 C1350,1641 1353,1652 1353,1642 L1353,1632"/></g><clipPath id="c" clipRule="evenodd" fill="transparent"><use href="#t6670"/></clipPath></defs><svg viewBox="1314 1630 40 35" preserveAspectRatio="xMinYMin meet"><svg width="4380" height="2430"><g><image crossorigin="anonymous" x="0" y="0" href="https://nftpuzzle.license-token.com/assets/completepuzzle.svg" width="100%" height="100%" /><g class="links"><use href="#t6670"/></g></g></svg><svg x="1339" y="1650" height="9%" width="9%" viewBox="0 0 330 330"><g><a xlink:href="https://nftpuzzle.license-token.com/" class="links"><title>See the most innovative NFT based token software licensing project</title><path fill="#E4CF37" id="more" d="M165,0C74.019,0,0,74.019,0,165s74.019,165,165,165s165-74.019,165-165S255.981,0,165,0z M85,190 c-13.785,0-25-11.215-25-25s11.215-25,25-25s25,11.215,25,25S98.785,190,85,190z M165,190c-13.785,0-25-11.215-25-25 s11.215-25,25-25s25,11.215,25,25S178.785,190,165,190z M245,190c-13.785,0-25-11.215-25-25s11.215-25,25-25 c13.785,0,25,11.215,25,25S258.785,190,245,190z"></path></a></g></svg></svg></svg>