<svg version="1.1" xmlns="http://www.w3.org/2000/svg" xmlns:xlink="http://www.w3.org/1999/xlink" fill="transparent" x="0" y="0" width="350" height="350" preserveAspectRatio="xMinYMin slice"><style type="text/css">.links{fill:transparent;stroke: #E4CF37;}.links:hover{fill:#63D272; opacity:0.4;}</style><defs><g id="allt"><path id="t6677" d="M1584,1632 L1573,1633 C1563,1635 1577,1627 1566,1627 C1556,1627 1569,1632 1560,1632 L1551,1632 1551,1632 L1551,1642 C1552,1652 1544,1639 1544,1647 C1545,1655 1552,1644 1551,1654 L1551,1664 1551,1664 L1561,1664 C1572,1665 1558,1657 1566,1657 C1575,1658 1563,1665 1573,1664 L1584,1664 1584,1664 L1584,1654 C1584,1645 1595,1659 1594,1650 C1593,1641 1584,1650 1584,1641 L1584,1632"/></g><clipPath id="c" clipRule="evenodd" fill="transparent"><use href="#t6677"/></clipPath></defs><svg viewBox="1543 1626 53 40" preserveAspectRatio="xMinYMin meet"><svg width="4380" height="2430"><g><image crossorigin="anonymous" x="0" y="0" href="https://nftpuzzle.license-token.com/assets/completepuzzle.svg" width="100%" height="100%" /><g class="links"><use href="#t6677"/></g></g></svg><svg x="1581" y="1651" height="9%" width="9%" viewBox="0 0 330 330"><g><a xlink:href="https://nftpuzzle.license-token.com/" class="links"><title>See the most innovative NFT based token software licensing project</title><path fill="#E4CF37" id="more" d="M165,0C74.019,0,0,74.019,0,165s74.019,165,165,165s165-74.019,165-165S255.981,0,165,0z M85,190 c-13.785,0-25-11.215-25-25s11.215-25,25-25s25,11.215,25,25S98.785,190,85,190z M165,190c-13.785,0-25-11.215-25-25 s11.215-25,25-25s25,11.215,25,25S178.785,190,165,190z M245,190c-13.785,0-25-11.215-25-25s11.215-25,25-25 c13.785,0,25,11.215,25,25S258.785,190,245,190z"></path></a></g></svg></svg></svg>