<svg version="1.1" xmlns="http://www.w3.org/2000/svg" xmlns:xlink="http://www.w3.org/1999/xlink" fill="transparent" x="0" y="0" width="350" height="350" preserveAspectRatio="xMinYMin slice"><style type="text/css">.links{fill:transparent;stroke: #E4CF37;}.links:hover{fill:#63D272; opacity:0.4;}</style><defs><g id="allt"><path id="t6684" d="M1815,1632 L1804,1630 C1794,1628 1806,1642 1796,1640 C1787,1638 1800,1630 1791,1631 L1782,1632 1782,1632 L1782,1642 C1782,1652 1789,1640 1788,1649 C1788,1658 1780,1643 1781,1653 L1782,1664 1782,1664 L1792,1664 C1802,1664 1790,1671 1799,1670 C1809,1670 1794,1662 1804,1663 L1815,1664 1815,1664 L1815,1654 C1815,1644 1821,1655 1820,1646 C1819,1637 1812,1653 1813,1642 L1815,1632"/></g><clipPath id="c" clipRule="evenodd" fill="transparent"><use href="#t6684"/></clipPath></defs><svg viewBox="1779 1627 43 45" preserveAspectRatio="xMinYMin meet"><svg width="4380" height="2430"><g><image crossorigin="anonymous" x="0" y="0" href="https://nftpuzzle.license-token.com/assets/completepuzzle.svg" width="100%" height="100%" /><g class="links"><use href="#t6684"/></g></g></svg><svg x="1807" y="1657" height="9%" width="9%" viewBox="0 0 330 330"><g><a xlink:href="https://nftpuzzle.license-token.com/" class="links"><title>See the most innovative NFT based token software licensing project</title><path fill="#E4CF37" id="more" d="M165,0C74.019,0,0,74.019,0,165s74.019,165,165,165s165-74.019,165-165S255.981,0,165,0z M85,190 c-13.785,0-25-11.215-25-25s11.215-25,25-25s25,11.215,25,25S98.785,190,85,190z M165,190c-13.785,0-25-11.215-25-25 s11.215-25,25-25s25,11.215,25,25S178.785,190,165,190z M245,190c-13.785,0-25-11.215-25-25s11.215-25,25-25 c13.785,0,25,11.215,25,25S258.785,190,245,190z"></path></a></g></svg></svg></svg>