<svg version="1.1" xmlns="http://www.w3.org/2000/svg" xmlns:xlink="http://www.w3.org/1999/xlink" fill="transparent" x="0" y="0" width="350" height="350" preserveAspectRatio="xMinYMin slice"><style type="text/css">.links{fill:transparent;stroke: #E4CF37;}.links:hover{fill:#63D272; opacity:0.4;}</style><defs><g id="allt"><path id="t6688" d="M1947,1632 L1936,1632 C1925,1633 1938,1626 1928,1625 C1919,1624 1933,1632 1923,1632 L1914,1632 1914,1632 L1914,1641 C1914,1651 1910,1636 1910,1647 C1910,1658 1914,1643 1914,1653 L1914,1664 1914,1664 L1924,1664 C1934,1664 1918,1660 1929,1660 C1941,1660 1925,1664 1936,1664 L1947,1664 1947,1664 L1947,1653 C1947,1643 1959,1654 1958,1647 C1957,1640 1945,1652 1946,1642 L1947,1632"/></g><clipPath id="c" clipRule="evenodd" fill="transparent"><use href="#t6688"/></clipPath></defs><svg viewBox="1909 1623 51 42" preserveAspectRatio="xMinYMin meet"><svg width="4380" height="2430"><g><image crossorigin="anonymous" x="0" y="0" href="https://nftpuzzle.license-token.com/assets/completepuzzle.svg" width="100%" height="100%" /><g class="links"><use href="#t6688"/></g></g></svg><svg x="1945" y="1650" height="9%" width="9%" viewBox="0 0 330 330"><g><a xlink:href="https://nftpuzzle.license-token.com/" class="links"><title>See the most innovative NFT based token software licensing project</title><path fill="#E4CF37" id="more" d="M165,0C74.019,0,0,74.019,0,165s74.019,165,165,165s165-74.019,165-165S255.981,0,165,0z M85,190 c-13.785,0-25-11.215-25-25s11.215-25,25-25s25,11.215,25,25S98.785,190,85,190z M165,190c-13.785,0-25-11.215-25-25 s11.215-25,25-25s25,11.215,25,25S178.785,190,165,190z M245,190c-13.785,0-25-11.215-25-25s11.215-25,25-25 c13.785,0,25,11.215,25,25S258.785,190,245,190z"></path></a></g></svg></svg></svg>