<svg version="1.1" xmlns="http://www.w3.org/2000/svg" xmlns:xlink="http://www.w3.org/1999/xlink" fill="transparent" x="0" y="0" width="350" height="350" preserveAspectRatio="xMinYMin slice"><style type="text/css">.links{fill:transparent;stroke: #E4CF37;}.links:hover{fill:#63D272; opacity:0.4;}</style><defs><g id="allt"><path id="t6690" d="M2013,1632 L2002,1631 C1991,1630 2005,1639 1995,1639 C1985,1639 2001,1629 1990,1630 L1980,1632 1980,1632 L1980,1642 C1980,1652 1973,1639 1974,1647 C1976,1656 1980,1644 1980,1654 L1980,1664 1980,1664 L1990,1664 C2000,1664 1987,1657 1995,1658 C2004,1660 1993,1664 2003,1664 L2013,1664 2013,1664 L2013,1655 C2014,1646 2006,1657 2007,1647 C2009,1638 2013,1652 2013,1642 L2013,1632"/></g><clipPath id="c" clipRule="evenodd" fill="transparent"><use href="#t6690"/></clipPath></defs><svg viewBox="1972 1628 43 37" preserveAspectRatio="xMinYMin meet"><svg width="4380" height="2430"><g><image crossorigin="anonymous" x="0" y="0" href="https://nftpuzzle.license-token.com/assets/completepuzzle.svg" width="100%" height="100%" /><g class="links"><use href="#t6690"/></g></g></svg><svg x="2000" y="1650" height="9%" width="9%" viewBox="0 0 330 330"><g><a xlink:href="https://nftpuzzle.license-token.com/" class="links"><title>See the most innovative NFT based token software licensing project</title><path fill="#E4CF37" id="more" d="M165,0C74.019,0,0,74.019,0,165s74.019,165,165,165s165-74.019,165-165S255.981,0,165,0z M85,190 c-13.785,0-25-11.215-25-25s11.215-25,25-25s25,11.215,25,25S98.785,190,85,190z M165,190c-13.785,0-25-11.215-25-25 s11.215-25,25-25s25,11.215,25,25S178.785,190,165,190z M245,190c-13.785,0-25-11.215-25-25s11.215-25,25-25 c13.785,0,25,11.215,25,25S258.785,190,245,190z"></path></a></g></svg></svg></svg>