<svg version="1.1" xmlns="http://www.w3.org/2000/svg" xmlns:xlink="http://www.w3.org/1999/xlink" fill="transparent" x="0" y="0" width="350" height="350" preserveAspectRatio="xMinYMin slice"><style type="text/css">.links{fill:transparent;stroke: #E4CF37;}.links:hover{fill:#63D272; opacity:0.4;}</style><defs><g id="allt"><path id="t6693" d="M2112,1632 L2101,1633 C2090,1634 2106,1619 2095,1622 C2085,1625 2098,1632 2088,1632 L2079,1632 2079,1632 L2081,1642 C2084,1652 2072,1640 2072,1647 C2073,1654 2082,1646 2080,1655 L2079,1664 2079,1664 L2089,1666 C2100,1669 2087,1657 2094,1657 C2102,1658 2093,1667 2102,1665 L2112,1664 2112,1664 L2112,1653 C2112,1642 2119,1656 2117,1646 C2115,1637 2112,1652 2112,1642 L2112,1632"/></g><clipPath id="c" clipRule="evenodd" fill="transparent"><use href="#t6693"/></clipPath></defs><svg viewBox="2071 1618 49 52" preserveAspectRatio="xMinYMin meet"><svg width="4380" height="2430"><g><image crossorigin="anonymous" x="0" y="0" href="https://nftpuzzle.license-token.com/assets/completepuzzle.svg" width="100%" height="100%" /><g class="links"><use href="#t6693"/></g></g></svg><svg x="2105" y="1655" height="9%" width="9%" viewBox="0 0 330 330"><g><a xlink:href="https://nftpuzzle.license-token.com/" class="links"><title>See the most innovative NFT based token software licensing project</title><path fill="#E4CF37" id="more" d="M165,0C74.019,0,0,74.019,0,165s74.019,165,165,165s165-74.019,165-165S255.981,0,165,0z M85,190 c-13.785,0-25-11.215-25-25s11.215-25,25-25s25,11.215,25,25S98.785,190,85,190z M165,190c-13.785,0-25-11.215-25-25 s11.215-25,25-25s25,11.215,25,25S178.785,190,165,190z M245,190c-13.785,0-25-11.215-25-25s11.215-25,25-25 c13.785,0,25,11.215,25,25S258.785,190,245,190z"></path></a></g></svg></svg></svg>