<svg version="1.1" xmlns="http://www.w3.org/2000/svg" xmlns:xlink="http://www.w3.org/1999/xlink" fill="transparent" x="0" y="0" width="350" height="350" preserveAspectRatio="xMinYMin slice"><style type="text/css">.links{fill:transparent;stroke: #E4CF37;}.links:hover{fill:#63D272; opacity:0.4;}</style><defs><g id="allt"><path id="t6696" d="M2211,1632 L2200,1632 C2189,1633 2202,1628 2194,1628 C2187,1628 2196,1632 2187,1632 L2178,1632 2178,1632 L2179,1641 C2181,1651 2168,1640 2168,1648 C2168,1656 2178,1644 2178,1654 L2178,1664 2178,1664 L2188,1665 C2198,1667 2186,1654 2194,1654 C2202,1655 2190,1664 2200,1664 L2211,1664 2211,1664 L2212,1653 C2213,1643 2208,1656 2206,1646 C2205,1637 2213,1653 2212,1642 L2211,1632"/></g><clipPath id="c" clipRule="evenodd" fill="transparent"><use href="#t6696"/></clipPath></defs><svg viewBox="2167 1627 47 41" preserveAspectRatio="xMinYMin meet"><svg width="4380" height="2430"><g><image crossorigin="anonymous" x="0" y="0" href="https://nftpuzzle.license-token.com/assets/completepuzzle.svg" width="100%" height="100%" /><g class="links"><use href="#t6696"/></g></g></svg><svg x="2199" y="1653" height="9%" width="9%" viewBox="0 0 330 330"><g><a xlink:href="https://nftpuzzle.license-token.com/" class="links"><title>See the most innovative NFT based token software licensing project</title><path fill="#E4CF37" id="more" d="M165,0C74.019,0,0,74.019,0,165s74.019,165,165,165s165-74.019,165-165S255.981,0,165,0z M85,190 c-13.785,0-25-11.215-25-25s11.215-25,25-25s25,11.215,25,25S98.785,190,85,190z M165,190c-13.785,0-25-11.215-25-25 s11.215-25,25-25s25,11.215,25,25S178.785,190,165,190z M245,190c-13.785,0-25-11.215-25-25s11.215-25,25-25 c13.785,0,25,11.215,25,25S258.785,190,245,190z"></path></a></g></svg></svg></svg>