<svg version="1.1" xmlns="http://www.w3.org/2000/svg" xmlns:xlink="http://www.w3.org/1999/xlink" fill="transparent" x="0" y="0" width="350" height="350" preserveAspectRatio="xMinYMin slice"><style type="text/css">.links{fill:transparent;stroke: #E4CF37;}.links:hover{fill:#63D272; opacity:0.4;}</style><defs><g id="allt"><path id="t6710" d="M2673,1632 L2661,1632 C2650,1632 2666,1637 2656,1636 C2647,1635 2661,1630 2650,1631 L2640,1632 2640,1632 L2641,1640 C2643,1649 2629,1639 2629,1648 C2630,1657 2640,1646 2640,1655 L2640,1664 2640,1664 L2649,1665 C2658,1667 2647,1653 2656,1653 C2666,1654 2654,1664 2663,1664 L2673,1664 2673,1664 L2673,1653 C2673,1642 2678,1654 2679,1647 C2681,1641 2669,1650 2671,1641 L2673,1632"/></g><clipPath id="c" clipRule="evenodd" fill="transparent"><use href="#t6710"/></clipPath></defs><svg viewBox="2628 1629 54 39" preserveAspectRatio="xMinYMin meet"><svg width="4380" height="2430"><g><image crossorigin="anonymous" x="0" y="0" href="https://nftpuzzle.license-token.com/assets/completepuzzle.svg" width="100%" height="100%" /><g class="links"><use href="#t6710"/></g></g></svg><svg x="2667" y="1653" height="9%" width="9%" viewBox="0 0 330 330"><g><a xlink:href="https://nftpuzzle.license-token.com/" class="links"><title>See the most innovative NFT based token software licensing project</title><path fill="#E4CF37" id="more" d="M165,0C74.019,0,0,74.019,0,165s74.019,165,165,165s165-74.019,165-165S255.981,0,165,0z M85,190 c-13.785,0-25-11.215-25-25s11.215-25,25-25s25,11.215,25,25S98.785,190,85,190z M165,190c-13.785,0-25-11.215-25-25 s11.215-25,25-25s25,11.215,25,25S178.785,190,165,190z M245,190c-13.785,0-25-11.215-25-25s11.215-25,25-25 c13.785,0,25,11.215,25,25S258.785,190,245,190z"></path></a></g></svg></svg></svg>