<svg version="1.1" xmlns="http://www.w3.org/2000/svg" xmlns:xlink="http://www.w3.org/1999/xlink" fill="transparent" x="0" y="0" width="350" height="350" preserveAspectRatio="xMinYMin slice"><style type="text/css">.links{fill:transparent;stroke: #E4CF37;}.links:hover{fill:#63D272; opacity:0.4;}</style><defs><g id="allt"><path id="t6713" d="M2772,1632 L2761,1632 C2751,1632 2765,1629 2756,1629 C2748,1629 2757,1633 2748,1632 L2739,1632 2739,1632 L2739,1640 C2740,1649 2731,1640 2733,1647 C2735,1654 2740,1642 2739,1653 L2739,1664 2739,1664 L2748,1664 C2757,1665 2747,1656 2754,1658 C2762,1660 2750,1665 2761,1664 L2772,1664 2772,1664 L2771,1655 C2771,1646 2783,1654 2783,1647 C2783,1641 2772,1653 2772,1642 L2772,1632"/></g><clipPath id="c" clipRule="evenodd" fill="transparent"><use href="#t6713"/></clipPath></defs><svg viewBox="2730 1628 54 38" preserveAspectRatio="xMinYMin meet"><svg width="4380" height="2430"><g><image crossorigin="anonymous" x="0" y="0" href="https://nftpuzzle.license-token.com/assets/completepuzzle.svg" width="100%" height="100%" /><g class="links"><use href="#t6713"/></g></g></svg><svg x="2769" y="1651" height="9%" width="9%" viewBox="0 0 330 330"><g><a xlink:href="https://nftpuzzle.license-token.com/" class="links"><title>See the most innovative NFT based token software licensing project</title><path fill="#E4CF37" id="more" d="M165,0C74.019,0,0,74.019,0,165s74.019,165,165,165s165-74.019,165-165S255.981,0,165,0z M85,190 c-13.785,0-25-11.215-25-25s11.215-25,25-25s25,11.215,25,25S98.785,190,85,190z M165,190c-13.785,0-25-11.215-25-25 s11.215-25,25-25s25,11.215,25,25S178.785,190,165,190z M245,190c-13.785,0-25-11.215-25-25s11.215-25,25-25 c13.785,0,25,11.215,25,25S258.785,190,245,190z"></path></a></g></svg></svg></svg>