<svg version="1.1" xmlns="http://www.w3.org/2000/svg" xmlns:xlink="http://www.w3.org/1999/xlink" fill="transparent" x="0" y="0" width="350" height="350" preserveAspectRatio="xMinYMin slice"><style type="text/css">.links{fill:transparent;stroke: #E4CF37;}.links:hover{fill:#63D272; opacity:0.4;}</style><defs><g id="allt"><path id="t6714" d="M2805,1632 L2795,1632 C2785,1632 2799,1637 2790,1637 C2781,1638 2791,1632 2781,1632 L2772,1632 2772,1632 L2772,1642 C2772,1653 2783,1641 2783,1647 C2783,1654 2771,1646 2771,1655 L2772,1664 2772,1664 L2782,1664 C2793,1664 2781,1674 2788,1674 C2795,1674 2786,1663 2795,1663 L2805,1664 2805,1664 L2804,1654 C2804,1644 2813,1657 2814,1649 C2816,1641 2802,1649 2803,1640 L2805,1632"/></g><clipPath id="c" clipRule="evenodd" fill="transparent"><use href="#t6714"/></clipPath></defs><svg viewBox="2770 1631 47 44" preserveAspectRatio="xMinYMin meet"><svg width="4380" height="2430"><g><image crossorigin="anonymous" x="0" y="0" href="https://nftpuzzle.license-token.com/assets/completepuzzle.svg" width="100%" height="100%" /><g class="links"><use href="#t6714"/></g></g></svg><svg x="2802" y="1660" height="9%" width="9%" viewBox="0 0 330 330"><g><a xlink:href="https://nftpuzzle.license-token.com/" class="links"><title>See the most innovative NFT based token software licensing project</title><path fill="#E4CF37" id="more" d="M165,0C74.019,0,0,74.019,0,165s74.019,165,165,165s165-74.019,165-165S255.981,0,165,0z M85,190 c-13.785,0-25-11.215-25-25s11.215-25,25-25s25,11.215,25,25S98.785,190,85,190z M165,190c-13.785,0-25-11.215-25-25 s11.215-25,25-25s25,11.215,25,25S178.785,190,165,190z M245,190c-13.785,0-25-11.215-25-25s11.215-25,25-25 c13.785,0,25,11.215,25,25S258.785,190,245,190z"></path></a></g></svg></svg></svg>