<svg version="1.1" xmlns="http://www.w3.org/2000/svg" xmlns:xlink="http://www.w3.org/1999/xlink" fill="transparent" x="0" y="0" width="350" height="350" preserveAspectRatio="xMinYMin slice"><style type="text/css">.links{fill:transparent;stroke: #E4CF37;}.links:hover{fill:#63D272; opacity:0.4;}</style><defs><g id="allt"><path id="t6718" d="M2937,1632 L2925,1632 C2914,1632 2928,1637 2920,1636 C2913,1635 2922,1632 2913,1632 L2904,1632 2904,1632 L2906,1641 C2909,1650 2895,1637 2897,1647 C2899,1658 2905,1643 2904,1653 L2904,1664 2904,1664 L2913,1666 C2923,1669 2909,1656 2920,1657 C2931,1659 2916,1665 2926,1664 L2937,1664 2937,1664 L2937,1653 C2937,1642 2943,1659 2942,1649 C2941,1639 2937,1650 2937,1641 L2937,1632"/></g><clipPath id="c" clipRule="evenodd" fill="transparent"><use href="#t6718"/></clipPath></defs><svg viewBox="2894 1631 50 39" preserveAspectRatio="xMinYMin meet"><svg width="4380" height="2430"><g><image crossorigin="anonymous" x="0" y="0" href="https://nftpuzzle.license-token.com/assets/completepuzzle.svg" width="100%" height="100%" /><g class="links"><use href="#t6718"/></g></g></svg><svg x="2929" y="1655" height="9%" width="9%" viewBox="0 0 330 330"><g><a xlink:href="https://nftpuzzle.license-token.com/" class="links"><title>See the most innovative NFT based token software licensing project</title><path fill="#E4CF37" id="more" d="M165,0C74.019,0,0,74.019,0,165s74.019,165,165,165s165-74.019,165-165S255.981,0,165,0z M85,190 c-13.785,0-25-11.215-25-25s11.215-25,25-25s25,11.215,25,25S98.785,190,85,190z M165,190c-13.785,0-25-11.215-25-25 s11.215-25,25-25s25,11.215,25,25S178.785,190,165,190z M245,190c-13.785,0-25-11.215-25-25s11.215-25,25-25 c13.785,0,25,11.215,25,25S258.785,190,245,190z"></path></a></g></svg></svg></svg>