<svg version="1.1" xmlns="http://www.w3.org/2000/svg" xmlns:xlink="http://www.w3.org/1999/xlink" fill="transparent" x="0" y="0" width="350" height="350" preserveAspectRatio="xMinYMin slice"><style type="text/css">.links{fill:transparent;stroke: #E4CF37;}.links:hover{fill:#63D272; opacity:0.4;}</style><defs><g id="allt"><path id="t6729" d="M3300,1632 L3289,1633 C3279,1634 3293,1625 3283,1626 C3273,1628 3285,1632 3276,1632 L3267,1632 3267,1632 L3267,1641 C3268,1650 3256,1638 3256,1648 C3256,1658 3270,1645 3268,1654 L3267,1664 3267,1664 L3276,1664 C3286,1665 3273,1653 3283,1653 C3294,1654 3280,1667 3290,1665 L3300,1664 3300,1664 L3299,1654 C3298,1645 3305,1656 3307,1647 C3309,1639 3301,1650 3300,1641 L3300,1632"/></g><clipPath id="c" clipRule="evenodd" fill="transparent"><use href="#t6729"/></clipPath></defs><svg viewBox="3255 1624 55 44" preserveAspectRatio="xMinYMin meet"><svg width="4380" height="2430"><g><image crossorigin="anonymous" x="0" y="0" href="https://nftpuzzle.license-token.com/assets/completepuzzle.svg" width="100%" height="100%" /><g class="links"><use href="#t6729"/></g></g></svg><svg x="3295" y="1653" height="9%" width="9%" viewBox="0 0 330 330"><g><a xlink:href="https://nftpuzzle.license-token.com/" class="links"><title>See the most innovative NFT based token software licensing project</title><path fill="#E4CF37" id="more" d="M165,0C74.019,0,0,74.019,0,165s74.019,165,165,165s165-74.019,165-165S255.981,0,165,0z M85,190 c-13.785,0-25-11.215-25-25s11.215-25,25-25s25,11.215,25,25S98.785,190,85,190z M165,190c-13.785,0-25-11.215-25-25 s11.215-25,25-25s25,11.215,25,25S178.785,190,165,190z M245,190c-13.785,0-25-11.215-25-25s11.215-25,25-25 c13.785,0,25,11.215,25,25S258.785,190,245,190z"></path></a></g></svg></svg></svg>