<svg version="1.1" xmlns="http://www.w3.org/2000/svg" xmlns:xlink="http://www.w3.org/1999/xlink" fill="transparent" x="0" y="0" width="350" height="350" preserveAspectRatio="xMinYMin slice"><style type="text/css">.links{fill:transparent;stroke: #E4CF37;}.links:hover{fill:#63D272; opacity:0.4;}</style><defs><g id="allt"><path id="t6732" d="M3399,1632 L3388,1632 C3378,1632 3392,1625 3381,1624 C3371,1624 3384,1632 3375,1632 L3366,1632 3366,1632 L3366,1641 C3366,1651 3376,1636 3374,1645 C3372,1655 3362,1642 3364,1653 L3366,1664 3366,1664 L3375,1664 C3385,1664 3370,1674 3380,1672 C3390,1670 3377,1660 3388,1662 L3399,1664 3399,1664 L3399,1654 C3399,1644 3406,1655 3405,1648 C3404,1641 3399,1649 3399,1640 L3399,1632"/></g><clipPath id="c" clipRule="evenodd" fill="transparent"><use href="#t6732"/></clipPath></defs><svg viewBox="3361 1623 46 52" preserveAspectRatio="xMinYMin meet"><svg width="4380" height="2430"><g><image crossorigin="anonymous" x="0" y="0" href="https://nftpuzzle.license-token.com/assets/completepuzzle.svg" width="100%" height="100%" /><g class="links"><use href="#t6732"/></g></g></svg><svg x="3392" y="1660" height="9%" width="9%" viewBox="0 0 330 330"><g><a xlink:href="https://nftpuzzle.license-token.com/" class="links"><title>See the most innovative NFT based token software licensing project</title><path fill="#E4CF37" id="more" d="M165,0C74.019,0,0,74.019,0,165s74.019,165,165,165s165-74.019,165-165S255.981,0,165,0z M85,190 c-13.785,0-25-11.215-25-25s11.215-25,25-25s25,11.215,25,25S98.785,190,85,190z M165,190c-13.785,0-25-11.215-25-25 s11.215-25,25-25s25,11.215,25,25S178.785,190,165,190z M245,190c-13.785,0-25-11.215-25-25s11.215-25,25-25 c13.785,0,25,11.215,25,25S258.785,190,245,190z"></path></a></g></svg></svg></svg>