<svg version="1.1" xmlns="http://www.w3.org/2000/svg" xmlns:xlink="http://www.w3.org/1999/xlink" fill="transparent" x="0" y="0" width="350" height="350" preserveAspectRatio="xMinYMin slice"><style type="text/css">.links{fill:transparent;stroke: #E4CF37;}.links:hover{fill:#63D272; opacity:0.4;}</style><defs><g id="allt"><path id="t6733" d="M3432,1632 L3420,1632 C3409,1632 3426,1623 3415,1622 C3404,1622 3419,1631 3409,1631 L3399,1632 3399,1632 L3399,1640 C3399,1649 3404,1641 3405,1648 C3406,1655 3399,1644 3399,1654 L3399,1664 3399,1664 L3408,1664 C3417,1664 3408,1669 3415,1670 C3423,1671 3411,1664 3421,1664 L3432,1664 3432,1664 L3432,1654 C3432,1645 3436,1656 3435,1646 C3435,1637 3432,1650 3432,1641 L3432,1632"/></g><clipPath id="c" clipRule="evenodd" fill="transparent"><use href="#t6733"/></clipPath></defs><svg viewBox="3398 1621 39 51" preserveAspectRatio="xMinYMin meet"><svg width="4380" height="2430"><g><image crossorigin="anonymous" x="0" y="0" href="https://nftpuzzle.license-token.com/assets/completepuzzle.svg" width="100%" height="100%" /><g class="links"><use href="#t6733"/></g></g></svg><svg x="3422" y="1657" height="9%" width="9%" viewBox="0 0 330 330"><g><a xlink:href="https://nftpuzzle.license-token.com/" class="links"><title>See the most innovative NFT based token software licensing project</title><path fill="#E4CF37" id="more" d="M165,0C74.019,0,0,74.019,0,165s74.019,165,165,165s165-74.019,165-165S255.981,0,165,0z M85,190 c-13.785,0-25-11.215-25-25s11.215-25,25-25s25,11.215,25,25S98.785,190,85,190z M165,190c-13.785,0-25-11.215-25-25 s11.215-25,25-25s25,11.215,25,25S178.785,190,165,190z M245,190c-13.785,0-25-11.215-25-25s11.215-25,25-25 c13.785,0,25,11.215,25,25S258.785,190,245,190z"></path></a></g></svg></svg></svg>