<svg version="1.1" xmlns="http://www.w3.org/2000/svg" xmlns:xlink="http://www.w3.org/1999/xlink" fill="transparent" x="0" y="0" width="350" height="350" preserveAspectRatio="xMinYMin slice"><style type="text/css">.links{fill:transparent;stroke: #E4CF37;}.links:hover{fill:#63D272; opacity:0.4;}</style><defs><g id="allt"><path id="t6738" d="M3597,1632 L3587,1632 C3578,1632 3591,1629 3581,1628 C3572,1628 3584,1633 3574,1632 L3564,1632 3564,1632 L3564,1642 C3564,1653 3573,1638 3573,1646 C3574,1654 3561,1643 3562,1653 L3564,1664 3564,1664 L3574,1664 C3585,1664 3570,1672 3578,1672 C3587,1673 3576,1661 3586,1662 L3597,1664 3597,1664 L3597,1654 C3598,1644 3608,1658 3606,1648 C3604,1639 3595,1651 3596,1641 L3597,1632"/></g><clipPath id="c" clipRule="evenodd" fill="transparent"><use href="#t6738"/></clipPath></defs><svg viewBox="3560 1627 49 47" preserveAspectRatio="xMinYMin meet"><svg width="4380" height="2430"><g><image crossorigin="anonymous" x="0" y="0" href="https://nftpuzzle.license-token.com/assets/completepuzzle.svg" width="100%" height="100%" /><g class="links"><use href="#t6738"/></g></g></svg><svg x="3594" y="1659" height="9%" width="9%" viewBox="0 0 330 330"><g><a xlink:href="https://nftpuzzle.license-token.com/" class="links"><title>See the most innovative NFT based token software licensing project</title><path fill="#E4CF37" id="more" d="M165,0C74.019,0,0,74.019,0,165s74.019,165,165,165s165-74.019,165-165S255.981,0,165,0z M85,190 c-13.785,0-25-11.215-25-25s11.215-25,25-25s25,11.215,25,25S98.785,190,85,190z M165,190c-13.785,0-25-11.215-25-25 s11.215-25,25-25s25,11.215,25,25S178.785,190,165,190z M245,190c-13.785,0-25-11.215-25-25s11.215-25,25-25 c13.785,0,25,11.215,25,25S258.785,190,245,190z"></path></a></g></svg></svg></svg>