<svg version="1.1" xmlns="http://www.w3.org/2000/svg" xmlns:xlink="http://www.w3.org/1999/xlink" fill="transparent" x="0" y="0" width="350" height="350" preserveAspectRatio="xMinYMin slice"><style type="text/css">.links{fill:transparent;stroke: #E4CF37;}.links:hover{fill:#63D272; opacity:0.4;}</style><defs><g id="allt"><path id="t6745" d="M3828,1632 L3817,1632 C3807,1632 3821,1625 3812,1625 C3803,1626 3813,1632 3804,1632 L3795,1632 3795,1632 L3795,1641 C3795,1651 3787,1636 3788,1647 C3790,1658 3795,1643 3795,1653 L3795,1664 3795,1664 L3805,1664 C3815,1664 3799,1656 3810,1657 C3822,1659 3806,1664 3817,1664 L3828,1664 3828,1664 L3828,1655 C3828,1646 3835,1656 3834,1648 C3834,1640 3826,1650 3827,1641 L3828,1632"/></g><clipPath id="c" clipRule="evenodd" fill="transparent"><use href="#t6745"/></clipPath></defs><svg viewBox="3786 1624 50 41" preserveAspectRatio="xMinYMin meet"><svg width="4380" height="2430"><g><image crossorigin="anonymous" x="0" y="0" href="https://nftpuzzle.license-token.com/assets/completepuzzle.svg" width="100%" height="100%" /><g class="links"><use href="#t6745"/></g></g></svg><svg x="3821" y="1650" height="9%" width="9%" viewBox="0 0 330 330"><g><a xlink:href="https://nftpuzzle.license-token.com/" class="links"><title>See the most innovative NFT based token software licensing project</title><path fill="#E4CF37" id="more" d="M165,0C74.019,0,0,74.019,0,165s74.019,165,165,165s165-74.019,165-165S255.981,0,165,0z M85,190 c-13.785,0-25-11.215-25-25s11.215-25,25-25s25,11.215,25,25S98.785,190,85,190z M165,190c-13.785,0-25-11.215-25-25 s11.215-25,25-25s25,11.215,25,25S178.785,190,165,190z M245,190c-13.785,0-25-11.215-25-25s11.215-25,25-25 c13.785,0,25,11.215,25,25S258.785,190,245,190z"></path></a></g></svg></svg></svg>