<svg version="1.1" xmlns="http://www.w3.org/2000/svg" xmlns:xlink="http://www.w3.org/1999/xlink" fill="transparent" x="0" y="0" width="350" height="350" preserveAspectRatio="xMinYMin slice"><style type="text/css">.links{fill:transparent;stroke: #E4CF37;}.links:hover{fill:#63D272; opacity:0.4;}</style><defs><g id="allt"><path id="t6747" d="M3894,1632 L3883,1633 C3873,1634 3888,1628 3878,1626 C3869,1624 3879,1635 3870,1633 L3861,1632 3861,1632 L3861,1641 C3861,1651 3868,1640 3868,1647 C3868,1654 3859,1643 3860,1653 L3861,1664 3861,1664 L3871,1664 C3881,1664 3869,1671 3876,1671 C3884,1671 3872,1662 3883,1663 L3894,1664 3894,1664 L3894,1654 C3894,1645 3897,1656 3899,1648 C3901,1640 3894,1650 3894,1641 L3894,1632"/></g><clipPath id="c" clipRule="evenodd" fill="transparent"><use href="#t6747"/></clipPath></defs><svg viewBox="3858 1623 44 49" preserveAspectRatio="xMinYMin meet"><svg width="4380" height="2430"><g><image crossorigin="anonymous" x="0" y="0" href="https://nftpuzzle.license-token.com/assets/completepuzzle.svg" width="100%" height="100%" /><g class="links"><use href="#t6747"/></g></g></svg><svg x="3887" y="1657" height="9%" width="9%" viewBox="0 0 330 330"><g><a xlink:href="https://nftpuzzle.license-token.com/" class="links"><title>See the most innovative NFT based token software licensing project</title><path fill="#E4CF37" id="more" d="M165,0C74.019,0,0,74.019,0,165s74.019,165,165,165s165-74.019,165-165S255.981,0,165,0z M85,190 c-13.785,0-25-11.215-25-25s11.215-25,25-25s25,11.215,25,25S98.785,190,85,190z M165,190c-13.785,0-25-11.215-25-25 s11.215-25,25-25s25,11.215,25,25S178.785,190,165,190z M245,190c-13.785,0-25-11.215-25-25s11.215-25,25-25 c13.785,0,25,11.215,25,25S258.785,190,245,190z"></path></a></g></svg></svg></svg>