<svg version="1.1" xmlns="http://www.w3.org/2000/svg" xmlns:xlink="http://www.w3.org/1999/xlink" fill="transparent" x="0" y="0" width="350" height="350" preserveAspectRatio="xMinYMin slice"><style type="text/css">.links{fill:transparent;stroke: #E4CF37;}.links:hover{fill:#63D272; opacity:0.4;}</style><defs><g id="allt"><path id="t6764" d="M165,1664 L154,1663 C143,1662 157,1671 147,1670 C137,1669 150,1662 141,1663 L132,1664 132,1664 L133,1673 C134,1682 129,1669 129,1679 C129,1689 132,1677 132,1686 L132,1696 132,1696 L141,1697 C151,1698 137,1693 147,1693 C158,1693 145,1696 155,1696 L165,1696 165,1696 L165,1686 C166,1676 160,1690 157,1681 C154,1672 168,1684 166,1674 L165,1664"/></g><clipPath id="c" clipRule="evenodd" fill="transparent"><use href="#t6764"/></clipPath></defs><svg viewBox="128 1661 41 38" preserveAspectRatio="xMinYMin meet"><svg width="4380" height="2430"><g><image crossorigin="anonymous" x="0" y="0" href="https://nftpuzzle.license-token.com/assets/completepuzzle.svg" width="100%" height="100%" /><g class="links"><use href="#t6764"/></g></g></svg><svg x="154" y="1684" height="9%" width="9%" viewBox="0 0 330 330"><g><a xlink:href="https://nftpuzzle.license-token.com/" class="links"><title>See the most innovative NFT based token software licensing project</title><path fill="#E4CF37" id="more" d="M165,0C74.019,0,0,74.019,0,165s74.019,165,165,165s165-74.019,165-165S255.981,0,165,0z M85,190 c-13.785,0-25-11.215-25-25s11.215-25,25-25s25,11.215,25,25S98.785,190,85,190z M165,190c-13.785,0-25-11.215-25-25 s11.215-25,25-25s25,11.215,25,25S178.785,190,165,190z M245,190c-13.785,0-25-11.215-25-25s11.215-25,25-25 c13.785,0,25,11.215,25,25S258.785,190,245,190z"></path></a></g></svg></svg></svg>