<svg version="1.1" xmlns="http://www.w3.org/2000/svg" xmlns:xlink="http://www.w3.org/1999/xlink" fill="transparent" x="0" y="0" width="350" height="350" preserveAspectRatio="xMinYMin slice"><style type="text/css">.links{fill:transparent;stroke: #E4CF37;}.links:hover{fill:#63D272; opacity:0.4;}</style><defs><g id="allt"><path id="t6765" d="M198,1664 L187,1664 C176,1664 188,1673 180,1671 C173,1670 184,1660 174,1662 L165,1664 165,1664 L166,1674 C168,1684 154,1672 157,1681 C160,1690 166,1676 165,1686 L165,1696 165,1696 L175,1697 C186,1699 173,1686 182,1688 C192,1691 177,1697 187,1696 L198,1696 198,1696 L200,1686 C202,1676 192,1690 190,1680 C188,1671 199,1682 198,1673 L198,1664"/></g><clipPath id="c" clipRule="evenodd" fill="transparent"><use href="#t6765"/></clipPath></defs><svg viewBox="153 1659 50 41" preserveAspectRatio="xMinYMin meet"><svg width="4380" height="2430"><g><image crossorigin="anonymous" x="0" y="0" href="https://nftpuzzle.license-token.com/assets/completepuzzle.svg" width="100%" height="100%" /><g class="links"><use href="#t6765"/></g></g></svg><svg x="188" y="1685" height="9%" width="9%" viewBox="0 0 330 330"><g><a xlink:href="https://nftpuzzle.license-token.com/" class="links"><title>See the most innovative NFT based token software licensing project</title><path fill="#E4CF37" id="more" d="M165,0C74.019,0,0,74.019,0,165s74.019,165,165,165s165-74.019,165-165S255.981,0,165,0z M85,190 c-13.785,0-25-11.215-25-25s11.215-25,25-25s25,11.215,25,25S98.785,190,85,190z M165,190c-13.785,0-25-11.215-25-25 s11.215-25,25-25s25,11.215,25,25S178.785,190,165,190z M245,190c-13.785,0-25-11.215-25-25s11.215-25,25-25 c13.785,0,25,11.215,25,25S258.785,190,245,190z"></path></a></g></svg></svg></svg>