<svg version="1.1" xmlns="http://www.w3.org/2000/svg" xmlns:xlink="http://www.w3.org/1999/xlink" fill="transparent" x="0" y="0" width="350" height="350" preserveAspectRatio="xMinYMin slice"><style type="text/css">.links{fill:transparent;stroke: #E4CF37;}.links:hover{fill:#63D272; opacity:0.4;}</style><defs><g id="allt"><path id="t6773" d="M462,1664 L452,1663 C442,1662 454,1671 443,1671 C433,1672 447,1664 438,1664 L429,1664 429,1664 L429,1673 C429,1682 433,1669 432,1677 C432,1686 429,1675 429,1685 L429,1696 429,1696 L438,1696 C448,1696 434,1700 443,1699 C452,1699 440,1696 451,1696 L462,1696 462,1696 L461,1685 C460,1675 467,1687 466,1679 C466,1671 462,1682 462,1673 L462,1664"/></g><clipPath id="c" clipRule="evenodd" fill="transparent"><use href="#t6773"/></clipPath></defs><svg viewBox="428 1661 40 40" preserveAspectRatio="xMinYMin meet"><svg width="4380" height="2430"><g><image crossorigin="anonymous" x="0" y="0" href="https://nftpuzzle.license-token.com/assets/completepuzzle.svg" width="100%" height="100%" /><g class="links"><use href="#t6773"/></g></g></svg><svg x="453" y="1686" height="9%" width="9%" viewBox="0 0 330 330"><g><a xlink:href="https://nftpuzzle.license-token.com/" class="links"><title>See the most innovative NFT based token software licensing project</title><path fill="#E4CF37" id="more" d="M165,0C74.019,0,0,74.019,0,165s74.019,165,165,165s165-74.019,165-165S255.981,0,165,0z M85,190 c-13.785,0-25-11.215-25-25s11.215-25,25-25s25,11.215,25,25S98.785,190,85,190z M165,190c-13.785,0-25-11.215-25-25 s11.215-25,25-25s25,11.215,25,25S178.785,190,165,190z M245,190c-13.785,0-25-11.215-25-25s11.215-25,25-25 c13.785,0,25,11.215,25,25S258.785,190,245,190z"></path></a></g></svg></svg></svg>