<svg version="1.1" xmlns="http://www.w3.org/2000/svg" xmlns:xlink="http://www.w3.org/1999/xlink" fill="transparent" x="0" y="0" width="350" height="350" preserveAspectRatio="xMinYMin slice"><style type="text/css">.links{fill:transparent;stroke: #E4CF37;}.links:hover{fill:#63D272; opacity:0.4;}</style><defs><g id="allt"><path id="t6778" d="M627,1664 L616,1664 C606,1664 619,1670 609,1670 C599,1671 613,1663 603,1663 L594,1664 594,1664 L594,1672 C594,1681 583,1670 583,1678 C584,1687 594,1678 594,1687 L594,1696 594,1696 L603,1696 C612,1696 600,1685 609,1686 C618,1687 608,1696 617,1696 L627,1696 627,1696 L627,1685 C627,1675 633,1688 634,1679 C636,1670 623,1682 625,1673 L627,1664"/></g><clipPath id="c" clipRule="evenodd" fill="transparent"><use href="#t6778"/></clipPath></defs><svg viewBox="582 1662 55 35" preserveAspectRatio="xMinYMin meet"><svg width="4380" height="2430"><g><image crossorigin="anonymous" x="0" y="0" href="https://nftpuzzle.license-token.com/assets/completepuzzle.svg" width="100%" height="100%" /><g class="links"><use href="#t6778"/></g></g></svg><svg x="622" y="1682" height="9%" width="9%" viewBox="0 0 330 330"><g><a xlink:href="https://nftpuzzle.license-token.com/" class="links"><title>See the most innovative NFT based token software licensing project</title><path fill="#E4CF37" id="more" d="M165,0C74.019,0,0,74.019,0,165s74.019,165,165,165s165-74.019,165-165S255.981,0,165,0z M85,190 c-13.785,0-25-11.215-25-25s11.215-25,25-25s25,11.215,25,25S98.785,190,85,190z M165,190c-13.785,0-25-11.215-25-25 s11.215-25,25-25s25,11.215,25,25S178.785,190,165,190z M245,190c-13.785,0-25-11.215-25-25s11.215-25,25-25 c13.785,0,25,11.215,25,25S258.785,190,245,190z"></path></a></g></svg></svg></svg>