<svg version="1.1" xmlns="http://www.w3.org/2000/svg" xmlns:xlink="http://www.w3.org/1999/xlink" fill="transparent" x="0" y="0" width="350" height="350" preserveAspectRatio="xMinYMin slice"><style type="text/css">.links{fill:transparent;stroke: #E4CF37;}.links:hover{fill:#63D272; opacity:0.4;}</style><defs><g id="allt"><path id="t6783" d="M792,1664 L781,1664 C770,1664 782,1671 773,1672 C765,1674 781,1664 770,1664 L759,1664 759,1664 L759,1673 C759,1682 768,1668 766,1679 C765,1690 758,1677 758,1686 L759,1696 759,1696 L768,1696 C777,1696 763,1704 774,1703 C786,1702 773,1695 782,1695 L792,1696 792,1696 L792,1685 C792,1675 787,1688 787,1679 C787,1671 793,1681 792,1672 L792,1664"/></g><clipPath id="c" clipRule="evenodd" fill="transparent"><use href="#t6783"/></clipPath></defs><svg viewBox="757 1663 37 42" preserveAspectRatio="xMinYMin meet"><svg width="4380" height="2430"><g><image crossorigin="anonymous" x="0" y="0" href="https://nftpuzzle.license-token.com/assets/completepuzzle.svg" width="100%" height="100%" /><g class="links"><use href="#t6783"/></g></g></svg><svg x="779" y="1690" height="9%" width="9%" viewBox="0 0 330 330"><g><a xlink:href="https://nftpuzzle.license-token.com/" class="links"><title>See the most innovative NFT based token software licensing project</title><path fill="#E4CF37" id="more" d="M165,0C74.019,0,0,74.019,0,165s74.019,165,165,165s165-74.019,165-165S255.981,0,165,0z M85,190 c-13.785,0-25-11.215-25-25s11.215-25,25-25s25,11.215,25,25S98.785,190,85,190z M165,190c-13.785,0-25-11.215-25-25 s11.215-25,25-25s25,11.215,25,25S178.785,190,165,190z M245,190c-13.785,0-25-11.215-25-25s11.215-25,25-25 c13.785,0,25,11.215,25,25S258.785,190,245,190z"></path></a></g></svg></svg></svg>