<svg version="1.1" xmlns="http://www.w3.org/2000/svg" xmlns:xlink="http://www.w3.org/1999/xlink" fill="transparent" x="0" y="0" width="350" height="350" preserveAspectRatio="xMinYMin slice"><style type="text/css">.links{fill:transparent;stroke: #E4CF37;}.links:hover{fill:#63D272; opacity:0.4;}</style><defs><g id="allt"><path id="t6788" d="M957,1664 L946,1666 C935,1668 948,1652 939,1654 C931,1656 944,1664 934,1664 L924,1664 924,1664 L926,1673 C929,1683 919,1671 917,1678 C915,1686 924,1675 924,1685 L924,1696 924,1696 L934,1698 C944,1701 931,1691 939,1689 C947,1687 935,1696 946,1696 L957,1696 957,1696 L958,1685 C959,1674 948,1687 948,1679 C949,1671 958,1684 957,1674 L957,1664"/></g><clipPath id="c" clipRule="evenodd" fill="transparent"><use href="#t6788"/></clipPath></defs><svg viewBox="914 1651 46 51" preserveAspectRatio="xMinYMin meet"><svg width="4380" height="2430"><g><image crossorigin="anonymous" x="0" y="0" href="https://nftpuzzle.license-token.com/assets/completepuzzle.svg" width="100%" height="100%" /><g class="links"><use href="#t6788"/></g></g></svg><svg x="945" y="1687" height="9%" width="9%" viewBox="0 0 330 330"><g><a xlink:href="https://nftpuzzle.license-token.com/" class="links"><title>See the most innovative NFT based token software licensing project</title><path fill="#E4CF37" id="more" d="M165,0C74.019,0,0,74.019,0,165s74.019,165,165,165s165-74.019,165-165S255.981,0,165,0z M85,190 c-13.785,0-25-11.215-25-25s11.215-25,25-25s25,11.215,25,25S98.785,190,85,190z M165,190c-13.785,0-25-11.215-25-25 s11.215-25,25-25s25,11.215,25,25S178.785,190,165,190z M245,190c-13.785,0-25-11.215-25-25s11.215-25,25-25 c13.785,0,25,11.215,25,25S258.785,190,245,190z"></path></a></g></svg></svg></svg>