<svg version="1.1" xmlns="http://www.w3.org/2000/svg" xmlns:xlink="http://www.w3.org/1999/xlink" fill="transparent" x="0" y="0" width="350" height="350" preserveAspectRatio="xMinYMin slice"><style type="text/css">.links{fill:transparent;stroke: #E4CF37;}.links:hover{fill:#63D272; opacity:0.4;}</style><defs><g id="allt"><path id="t680" d="M1023,160 L1013,160 C1004,161 1015,166 1006,166 C998,166 1011,159 1000,159 L990,160 990,160 L989,169 C989,178 995,164 994,174 C993,185 989,173 989,182 L990,192 990,192 L999,191 C1009,191 994,197 1005,196 C1016,195 1004,191 1013,191 L1023,192 1023,192 L1023,181 C1023,171 1025,184 1025,175 C1026,167 1023,177 1023,168 L1023,160"/></g><clipPath id="c" clipRule="evenodd" fill="transparent"><use href="#t680"/></clipPath></defs><svg viewBox="988 158 39 40" preserveAspectRatio="xMinYMin meet"><svg width="4380" height="2430"><g><image crossorigin="anonymous" x="0" y="0" href="https://nftpuzzle.license-token.com/assets/completepuzzle.svg" width="100%" height="100%" /><g class="links"><use href="#t680"/></g></g></svg><svg x="1012" y="183" height="9%" width="9%" viewBox="0 0 330 330"><g><a xlink:href="https://nftpuzzle.license-token.com/" class="links"><title>See the most innovative NFT based token software licensing project</title><path fill="#E4CF37" id="more" d="M165,0C74.019,0,0,74.019,0,165s74.019,165,165,165s165-74.019,165-165S255.981,0,165,0z M85,190 c-13.785,0-25-11.215-25-25s11.215-25,25-25s25,11.215,25,25S98.785,190,85,190z M165,190c-13.785,0-25-11.215-25-25 s11.215-25,25-25s25,11.215,25,25S178.785,190,165,190z M245,190c-13.785,0-25-11.215-25-25s11.215-25,25-25 c13.785,0,25,11.215,25,25S258.785,190,245,190z"></path></a></g></svg></svg></svg>