<svg version="1.1" xmlns="http://www.w3.org/2000/svg" xmlns:xlink="http://www.w3.org/1999/xlink" fill="transparent" x="0" y="0" width="350" height="350" preserveAspectRatio="xMinYMin slice"><style type="text/css">.links{fill:transparent;stroke: #E4CF37;}.links:hover{fill:#63D272; opacity:0.4;}</style><defs><g id="allt"><path id="t6800" d="M1353,1664 L1342,1664 C1331,1664 1345,1659 1336,1660 C1327,1661 1340,1664 1330,1664 L1320,1664 1320,1664 L1321,1672 C1322,1681 1312,1672 1312,1679 C1313,1687 1324,1674 1322,1685 L1320,1696 1320,1696 L1329,1697 C1338,1698 1328,1688 1336,1688 C1344,1689 1331,1700 1342,1698 L1353,1696 1353,1696 L1352,1685 C1352,1674 1356,1688 1356,1679 C1357,1671 1352,1681 1352,1672 L1353,1664"/></g><clipPath id="c" clipRule="evenodd" fill="transparent"><use href="#t6800"/></clipPath></defs><svg viewBox="1311 1658 47 43" preserveAspectRatio="xMinYMin meet"><svg width="4380" height="2430"><g><image crossorigin="anonymous" x="0" y="0" href="https://nftpuzzle.license-token.com/assets/completepuzzle.svg" width="100%" height="100%" /><g class="links"><use href="#t6800"/></g></g></svg><svg x="1343" y="1686" height="9%" width="9%" viewBox="0 0 330 330"><g><a xlink:href="https://nftpuzzle.license-token.com/" class="links"><title>See the most innovative NFT based token software licensing project</title><path fill="#E4CF37" id="more" d="M165,0C74.019,0,0,74.019,0,165s74.019,165,165,165s165-74.019,165-165S255.981,0,165,0z M85,190 c-13.785,0-25-11.215-25-25s11.215-25,25-25s25,11.215,25,25S98.785,190,85,190z M165,190c-13.785,0-25-11.215-25-25 s11.215-25,25-25s25,11.215,25,25S178.785,190,165,190z M245,190c-13.785,0-25-11.215-25-25s11.215-25,25-25 c13.785,0,25,11.215,25,25S258.785,190,245,190z"></path></a></g></svg></svg></svg>