<svg version="1.1" xmlns="http://www.w3.org/2000/svg" xmlns:xlink="http://www.w3.org/1999/xlink" fill="transparent" x="0" y="0" width="350" height="350" preserveAspectRatio="xMinYMin slice"><style type="text/css">.links{fill:transparent;stroke: #E4CF37;}.links:hover{fill:#63D272; opacity:0.4;}</style><defs><g id="allt"><path id="t6803" d="M1452,1664 L1442,1664 C1433,1664 1442,1660 1433,1660 C1425,1660 1439,1664 1429,1664 L1419,1664 1419,1664 L1417,1673 C1416,1682 1422,1673 1422,1681 C1422,1689 1418,1677 1418,1686 L1419,1696 1419,1696 L1428,1694 C1438,1693 1428,1699 1436,1699 C1445,1699 1433,1695 1442,1695 L1452,1696 1452,1696 L1450,1686 C1449,1677 1458,1688 1459,1679 C1460,1671 1448,1685 1450,1674 L1452,1664"/></g><clipPath id="c" clipRule="evenodd" fill="transparent"><use href="#t6803"/></clipPath></defs><svg viewBox="1415 1659 46 41" preserveAspectRatio="xMinYMin meet"><svg width="4380" height="2430"><g><image crossorigin="anonymous" x="0" y="0" href="https://nftpuzzle.license-token.com/assets/completepuzzle.svg" width="100%" height="100%" /><g class="links"><use href="#t6803"/></g></g></svg><svg x="1446" y="1685" height="9%" width="9%" viewBox="0 0 330 330"><g><a xlink:href="https://nftpuzzle.license-token.com/" class="links"><title>See the most innovative NFT based token software licensing project</title><path fill="#E4CF37" id="more" d="M165,0C74.019,0,0,74.019,0,165s74.019,165,165,165s165-74.019,165-165S255.981,0,165,0z M85,190 c-13.785,0-25-11.215-25-25s11.215-25,25-25s25,11.215,25,25S98.785,190,85,190z M165,190c-13.785,0-25-11.215-25-25 s11.215-25,25-25s25,11.215,25,25S178.785,190,165,190z M245,190c-13.785,0-25-11.215-25-25s11.215-25,25-25 c13.785,0,25,11.215,25,25S258.785,190,245,190z"></path></a></g></svg></svg></svg>