<svg version="1.1" xmlns="http://www.w3.org/2000/svg" xmlns:xlink="http://www.w3.org/1999/xlink" fill="transparent" x="0" y="0" width="350" height="350" preserveAspectRatio="xMinYMin slice"><style type="text/css">.links{fill:transparent;stroke: #E4CF37;}.links:hover{fill:#63D272; opacity:0.4;}</style><defs><g id="allt"><path id="t6818" d="M1947,1664 L1936,1664 C1925,1664 1941,1660 1929,1660 C1918,1660 1934,1664 1924,1664 L1914,1664 1914,1664 L1912,1674 C1910,1684 1925,1669 1922,1678 C1919,1687 1911,1677 1912,1686 L1914,1696 1914,1696 L1924,1694 C1935,1692 1919,1707 1928,1704 C1938,1701 1927,1693 1937,1694 L1947,1696 1947,1696 L1947,1687 C1947,1678 1951,1690 1950,1680 C1949,1670 1947,1683 1947,1673 L1947,1664"/></g><clipPath id="c" clipRule="evenodd" fill="transparent"><use href="#t6818"/></clipPath></defs><svg viewBox="1909 1659 43 49" preserveAspectRatio="xMinYMin meet"><svg width="4380" height="2430"><g><image crossorigin="anonymous" x="0" y="0" href="https://nftpuzzle.license-token.com/assets/completepuzzle.svg" width="100%" height="100%" /><g class="links"><use href="#t6818"/></g></g></svg><svg x="1937" y="1693" height="9%" width="9%" viewBox="0 0 330 330"><g><a xlink:href="https://nftpuzzle.license-token.com/" class="links"><title>See the most innovative NFT based token software licensing project</title><path fill="#E4CF37" id="more" d="M165,0C74.019,0,0,74.019,0,165s74.019,165,165,165s165-74.019,165-165S255.981,0,165,0z M85,190 c-13.785,0-25-11.215-25-25s11.215-25,25-25s25,11.215,25,25S98.785,190,85,190z M165,190c-13.785,0-25-11.215-25-25 s11.215-25,25-25s25,11.215,25,25S178.785,190,165,190z M245,190c-13.785,0-25-11.215-25-25s11.215-25,25-25 c13.785,0,25,11.215,25,25S258.785,190,245,190z"></path></a></g></svg></svg></svg>