<svg version="1.1" xmlns="http://www.w3.org/2000/svg" xmlns:xlink="http://www.w3.org/1999/xlink" fill="transparent" x="0" y="0" width="350" height="350" preserveAspectRatio="xMinYMin slice"><style type="text/css">.links{fill:transparent;stroke: #E4CF37;}.links:hover{fill:#63D272; opacity:0.4;}</style><defs><g id="allt"><path id="t683" d="M1122,160 L1112,159 C1102,159 1115,162 1105,162 C1095,163 1108,160 1098,160 L1089,160 1089,160 L1087,169 C1086,178 1094,167 1096,175 C1098,183 1088,171 1088,181 L1089,192 1089,192 L1098,190 C1107,189 1096,197 1104,198 C1113,200 1100,191 1111,191 L1122,192 1122,192 L1122,181 C1122,171 1128,185 1128,175 C1128,165 1120,177 1121,168 L1122,160"/></g><clipPath id="c" clipRule="evenodd" fill="transparent"><use href="#t683"/></clipPath></defs><svg viewBox="1085 158 44 43" preserveAspectRatio="xMinYMin meet"><svg width="4380" height="2430"><g><image crossorigin="anonymous" x="0" y="0" href="https://nftpuzzle.license-token.com/assets/completepuzzle.svg" width="100%" height="100%" /><g class="links"><use href="#t683"/></g></g></svg><svg x="1114" y="186" height="9%" width="9%" viewBox="0 0 330 330"><g><a xlink:href="https://nftpuzzle.license-token.com/" class="links"><title>See the most innovative NFT based token software licensing project</title><path fill="#E4CF37" id="more" d="M165,0C74.019,0,0,74.019,0,165s74.019,165,165,165s165-74.019,165-165S255.981,0,165,0z M85,190 c-13.785,0-25-11.215-25-25s11.215-25,25-25s25,11.215,25,25S98.785,190,85,190z M165,190c-13.785,0-25-11.215-25-25 s11.215-25,25-25s25,11.215,25,25S178.785,190,165,190z M245,190c-13.785,0-25-11.215-25-25s11.215-25,25-25 c13.785,0,25,11.215,25,25S258.785,190,245,190z"></path></a></g></svg></svg></svg>