<svg version="1.1" xmlns="http://www.w3.org/2000/svg" xmlns:xlink="http://www.w3.org/1999/xlink" fill="transparent" x="0" y="0" width="350" height="350" preserveAspectRatio="xMinYMin slice"><style type="text/css">.links{fill:transparent;stroke: #E4CF37;}.links:hover{fill:#63D272; opacity:0.4;}</style><defs><g id="allt"><path id="t6832" d="M2409,1664 L2397,1664 C2386,1665 2400,1657 2392,1658 C2385,1659 2394,1664 2385,1664 L2376,1664 2376,1664 L2376,1672 C2376,1681 2368,1671 2369,1680 C2370,1689 2376,1676 2376,1686 L2376,1696 2376,1696 L2385,1696 C2394,1696 2383,1688 2392,1689 C2402,1690 2389,1696 2399,1696 L2409,1696 2409,1696 L2408,1686 C2408,1677 2414,1686 2415,1678 C2416,1670 2406,1683 2407,1673 L2409,1664"/></g><clipPath id="c" clipRule="evenodd" fill="transparent"><use href="#t6832"/></clipPath></defs><svg viewBox="2367 1656 50 41" preserveAspectRatio="xMinYMin meet"><svg width="4380" height="2430"><g><image crossorigin="anonymous" x="0" y="0" href="https://nftpuzzle.license-token.com/assets/completepuzzle.svg" width="100%" height="100%" /><g class="links"><use href="#t6832"/></g></g></svg><svg x="2402" y="1682" height="9%" width="9%" viewBox="0 0 330 330"><g><a xlink:href="https://nftpuzzle.license-token.com/" class="links"><title>See the most innovative NFT based token software licensing project</title><path fill="#E4CF37" id="more" d="M165,0C74.019,0,0,74.019,0,165s74.019,165,165,165s165-74.019,165-165S255.981,0,165,0z M85,190 c-13.785,0-25-11.215-25-25s11.215-25,25-25s25,11.215,25,25S98.785,190,85,190z M165,190c-13.785,0-25-11.215-25-25 s11.215-25,25-25s25,11.215,25,25S178.785,190,165,190z M245,190c-13.785,0-25-11.215-25-25s11.215-25,25-25 c13.785,0,25,11.215,25,25S258.785,190,245,190z"></path></a></g></svg></svg></svg>