<svg version="1.1" xmlns="http://www.w3.org/2000/svg" xmlns:xlink="http://www.w3.org/1999/xlink" fill="transparent" x="0" y="0" width="350" height="350" preserveAspectRatio="xMinYMin slice"><style type="text/css">.links{fill:transparent;stroke: #E4CF37;}.links:hover{fill:#63D272; opacity:0.4;}</style><defs><g id="allt"><path id="t6835" d="M2508,1664 L2496,1664 C2485,1664 2502,1661 2491,1660 C2480,1659 2496,1664 2485,1664 L2475,1664 2475,1664 L2475,1674 C2475,1684 2467,1670 2468,1679 C2469,1689 2476,1675 2475,1685 L2475,1696 2475,1696 L2485,1696 C2495,1696 2481,1688 2491,1689 C2501,1690 2486,1697 2497,1696 L2508,1696 2508,1696 L2508,1685 C2508,1675 2501,1689 2500,1680 C2499,1672 2509,1684 2508,1674 L2508,1664"/></g><clipPath id="c" clipRule="evenodd" fill="transparent"><use href="#t6835"/></clipPath></defs><svg viewBox="2466 1658 44 40" preserveAspectRatio="xMinYMin meet"><svg width="4380" height="2430"><g><image crossorigin="anonymous" x="0" y="0" href="https://nftpuzzle.license-token.com/assets/completepuzzle.svg" width="100%" height="100%" /><g class="links"><use href="#t6835"/></g></g></svg><svg x="2495" y="1683" height="9%" width="9%" viewBox="0 0 330 330"><g><a xlink:href="https://nftpuzzle.license-token.com/" class="links"><title>See the most innovative NFT based token software licensing project</title><path fill="#E4CF37" id="more" d="M165,0C74.019,0,0,74.019,0,165s74.019,165,165,165s165-74.019,165-165S255.981,0,165,0z M85,190 c-13.785,0-25-11.215-25-25s11.215-25,25-25s25,11.215,25,25S98.785,190,85,190z M165,190c-13.785,0-25-11.215-25-25 s11.215-25,25-25s25,11.215,25,25S178.785,190,165,190z M245,190c-13.785,0-25-11.215-25-25s11.215-25,25-25 c13.785,0,25,11.215,25,25S258.785,190,245,190z"></path></a></g></svg></svg></svg>