<svg version="1.1" xmlns="http://www.w3.org/2000/svg" xmlns:xlink="http://www.w3.org/1999/xlink" fill="transparent" x="0" y="0" width="350" height="350" preserveAspectRatio="xMinYMin slice"><style type="text/css">.links{fill:transparent;stroke: #E4CF37;}.links:hover{fill:#63D272; opacity:0.4;}</style><defs><g id="allt"><path id="t6836" d="M2541,1664 L2530,1663 C2519,1663 2534,1668 2525,1667 C2516,1666 2526,1663 2517,1663 L2508,1664 2508,1664 L2508,1674 C2509,1684 2499,1672 2500,1680 C2501,1689 2508,1675 2508,1685 L2508,1696 2508,1696 L2518,1696 C2528,1697 2516,1688 2525,1688 C2534,1689 2519,1696 2530,1696 L2541,1696 2541,1696 L2542,1685 C2543,1674 2538,1689 2537,1679 C2536,1669 2543,1681 2542,1672 L2541,1664"/></g><clipPath id="c" clipRule="evenodd" fill="transparent"><use href="#t6836"/></clipPath></defs><svg viewBox="2498 1662 46 36" preserveAspectRatio="xMinYMin meet"><svg width="4380" height="2430"><g><image crossorigin="anonymous" x="0" y="0" href="https://nftpuzzle.license-token.com/assets/completepuzzle.svg" width="100%" height="100%" /><g class="links"><use href="#t6836"/></g></g></svg><svg x="2529" y="1683" height="9%" width="9%" viewBox="0 0 330 330"><g><a xlink:href="https://nftpuzzle.license-token.com/" class="links"><title>See the most innovative NFT based token software licensing project</title><path fill="#E4CF37" id="more" d="M165,0C74.019,0,0,74.019,0,165s74.019,165,165,165s165-74.019,165-165S255.981,0,165,0z M85,190 c-13.785,0-25-11.215-25-25s11.215-25,25-25s25,11.215,25,25S98.785,190,85,190z M165,190c-13.785,0-25-11.215-25-25 s11.215-25,25-25s25,11.215,25,25S178.785,190,165,190z M245,190c-13.785,0-25-11.215-25-25s11.215-25,25-25 c13.785,0,25,11.215,25,25S258.785,190,245,190z"></path></a></g></svg></svg></svg>