<svg version="1.1" xmlns="http://www.w3.org/2000/svg" xmlns:xlink="http://www.w3.org/1999/xlink" fill="transparent" x="0" y="0" width="350" height="350" preserveAspectRatio="xMinYMin slice"><style type="text/css">.links{fill:transparent;stroke: #E4CF37;}.links:hover{fill:#63D272; opacity:0.4;}</style><defs><g id="allt"><path id="t6839" d="M2640,1664 L2630,1664 C2620,1664 2633,1674 2622,1673 C2612,1672 2626,1664 2616,1664 L2607,1664 2607,1664 L2606,1674 C2605,1684 2615,1673 2616,1680 C2617,1687 2605,1675 2606,1685 L2607,1696 2607,1696 L2617,1695 C2627,1694 2616,1704 2623,1705 C2631,1706 2618,1694 2629,1695 L2640,1696 2640,1696 L2639,1685 C2638,1675 2648,1689 2649,1679 C2650,1670 2638,1684 2639,1674 L2640,1664"/></g><clipPath id="c" clipRule="evenodd" fill="transparent"><use href="#t6839"/></clipPath></defs><svg viewBox="2604 1663 47 44" preserveAspectRatio="xMinYMin meet"><svg width="4380" height="2430"><g><image crossorigin="anonymous" x="0" y="0" href="https://nftpuzzle.license-token.com/assets/completepuzzle.svg" width="100%" height="100%" /><g class="links"><use href="#t6839"/></g></g></svg><svg x="2636" y="1692" height="9%" width="9%" viewBox="0 0 330 330"><g><a xlink:href="https://nftpuzzle.license-token.com/" class="links"><title>See the most innovative NFT based token software licensing project</title><path fill="#E4CF37" id="more" d="M165,0C74.019,0,0,74.019,0,165s74.019,165,165,165s165-74.019,165-165S255.981,0,165,0z M85,190 c-13.785,0-25-11.215-25-25s11.215-25,25-25s25,11.215,25,25S98.785,190,85,190z M165,190c-13.785,0-25-11.215-25-25 s11.215-25,25-25s25,11.215,25,25S178.785,190,165,190z M245,190c-13.785,0-25-11.215-25-25s11.215-25,25-25 c13.785,0,25,11.215,25,25S258.785,190,245,190z"></path></a></g></svg></svg></svg>