<svg version="1.1" xmlns="http://www.w3.org/2000/svg" xmlns:xlink="http://www.w3.org/1999/xlink" fill="transparent" x="0" y="0" width="350" height="350" preserveAspectRatio="xMinYMin slice"><style type="text/css">.links{fill:transparent;stroke: #E4CF37;}.links:hover{fill:#63D272; opacity:0.4;}</style><defs><g id="allt"><path id="t6841" d="M2706,1664 L2694,1664 C2683,1664 2696,1669 2689,1670 C2682,1672 2692,1660 2682,1662 L2673,1664 2673,1664 L2673,1672 C2674,1681 2665,1669 2666,1678 C2668,1687 2673,1676 2673,1686 L2673,1696 2673,1696 L2682,1696 C2691,1697 2678,1688 2687,1689 C2697,1691 2685,1696 2695,1696 L2706,1696 2706,1696 L2706,1685 C2706,1675 2703,1689 2703,1680 C2704,1672 2707,1684 2706,1674 L2706,1664"/></g><clipPath id="c" clipRule="evenodd" fill="transparent"><use href="#t6841"/></clipPath></defs><svg viewBox="2664 1659 44 39" preserveAspectRatio="xMinYMin meet"><svg width="4380" height="2430"><g><image crossorigin="anonymous" x="0" y="0" href="https://nftpuzzle.license-token.com/assets/completepuzzle.svg" width="100%" height="100%" /><g class="links"><use href="#t6841"/></g></g></svg><svg x="2693" y="1683" height="9%" width="9%" viewBox="0 0 330 330"><g><a xlink:href="https://nftpuzzle.license-token.com/" class="links"><title>See the most innovative NFT based token software licensing project</title><path fill="#E4CF37" id="more" d="M165,0C74.019,0,0,74.019,0,165s74.019,165,165,165s165-74.019,165-165S255.981,0,165,0z M85,190 c-13.785,0-25-11.215-25-25s11.215-25,25-25s25,11.215,25,25S98.785,190,85,190z M165,190c-13.785,0-25-11.215-25-25 s11.215-25,25-25s25,11.215,25,25S178.785,190,165,190z M245,190c-13.785,0-25-11.215-25-25s11.215-25,25-25 c13.785,0,25,11.215,25,25S258.785,190,245,190z"></path></a></g></svg></svg></svg>