<svg version="1.1" xmlns="http://www.w3.org/2000/svg" xmlns:xlink="http://www.w3.org/1999/xlink" fill="transparent" x="0" y="0" width="350" height="350" preserveAspectRatio="xMinYMin slice"><style type="text/css">.links{fill:transparent;stroke: #E4CF37;}.links:hover{fill:#63D272; opacity:0.4;}</style><defs><g id="allt"><path id="t6842" d="M2739,1664 L2728,1663 C2717,1662 2731,1666 2721,1666 C2711,1667 2726,1662 2716,1663 L2706,1664 2706,1664 L2706,1674 C2707,1684 2704,1672 2703,1680 C2703,1689 2706,1675 2706,1685 L2706,1696 2706,1696 L2716,1696 C2727,1697 2714,1694 2723,1693 C2732,1693 2717,1696 2728,1696 L2739,1696 2739,1696 L2741,1686 C2744,1676 2727,1689 2730,1681 C2733,1673 2742,1684 2740,1674 L2739,1664"/></g><clipPath id="c" clipRule="evenodd" fill="transparent"><use href="#t6842"/></clipPath></defs><svg viewBox="2702 1661 43 37" preserveAspectRatio="xMinYMin meet"><svg width="4380" height="2430"><g><image crossorigin="anonymous" x="0" y="0" href="https://nftpuzzle.license-token.com/assets/completepuzzle.svg" width="100%" height="100%" /><g class="links"><use href="#t6842"/></g></g></svg><svg x="2730" y="1683" height="9%" width="9%" viewBox="0 0 330 330"><g><a xlink:href="https://nftpuzzle.license-token.com/" class="links"><title>See the most innovative NFT based token software licensing project</title><path fill="#E4CF37" id="more" d="M165,0C74.019,0,0,74.019,0,165s74.019,165,165,165s165-74.019,165-165S255.981,0,165,0z M85,190 c-13.785,0-25-11.215-25-25s11.215-25,25-25s25,11.215,25,25S98.785,190,85,190z M165,190c-13.785,0-25-11.215-25-25 s11.215-25,25-25s25,11.215,25,25S178.785,190,165,190z M245,190c-13.785,0-25-11.215-25-25s11.215-25,25-25 c13.785,0,25,11.215,25,25S258.785,190,245,190z"></path></a></g></svg></svg></svg>