<svg version="1.1" xmlns="http://www.w3.org/2000/svg" xmlns:xlink="http://www.w3.org/1999/xlink" fill="transparent" x="0" y="0" width="350" height="350" preserveAspectRatio="xMinYMin slice"><style type="text/css">.links{fill:transparent;stroke: #E4CF37;}.links:hover{fill:#63D272; opacity:0.4;}</style><defs><g id="allt"><path id="t6847" d="M2904,1664 L2893,1664 C2883,1664 2894,1666 2886,1667 C2878,1669 2892,1663 2881,1663 L2871,1664 2871,1664 L2870,1673 C2869,1682 2882,1672 2880,1680 C2879,1689 2866,1675 2868,1685 L2871,1696 2871,1696 L2880,1695 C2889,1694 2879,1706 2888,1705 C2897,1704 2882,1691 2893,1693 L2904,1696 2904,1696 L2904,1686 C2904,1676 2900,1687 2900,1679 C2900,1672 2904,1681 2904,1672 L2904,1664"/></g><clipPath id="c" clipRule="evenodd" fill="transparent"><use href="#t6847"/></clipPath></defs><svg viewBox="2865 1662 40 45" preserveAspectRatio="xMinYMin meet"><svg width="4380" height="2430"><g><image crossorigin="anonymous" x="0" y="0" href="https://nftpuzzle.license-token.com/assets/completepuzzle.svg" width="100%" height="100%" /><g class="links"><use href="#t6847"/></g></g></svg><svg x="2890" y="1692" height="9%" width="9%" viewBox="0 0 330 330"><g><a xlink:href="https://nftpuzzle.license-token.com/" class="links"><title>See the most innovative NFT based token software licensing project</title><path fill="#E4CF37" id="more" d="M165,0C74.019,0,0,74.019,0,165s74.019,165,165,165s165-74.019,165-165S255.981,0,165,0z M85,190 c-13.785,0-25-11.215-25-25s11.215-25,25-25s25,11.215,25,25S98.785,190,85,190z M165,190c-13.785,0-25-11.215-25-25 s11.215-25,25-25s25,11.215,25,25S178.785,190,165,190z M245,190c-13.785,0-25-11.215-25-25s11.215-25,25-25 c13.785,0,25,11.215,25,25S258.785,190,245,190z"></path></a></g></svg></svg></svg>