<svg version="1.1" xmlns="http://www.w3.org/2000/svg" xmlns:xlink="http://www.w3.org/1999/xlink" fill="transparent" x="0" y="0" width="350" height="350" preserveAspectRatio="xMinYMin slice"><style type="text/css">.links{fill:transparent;stroke: #E4CF37;}.links:hover{fill:#63D272; opacity:0.4;}</style><defs><g id="allt"><path id="t6849" d="M2970,1664 L2959,1664 C2948,1664 2965,1670 2954,1669 C2944,1668 2956,1664 2946,1664 L2937,1664 2937,1664 L2937,1674 C2937,1685 2942,1670 2945,1679 C2948,1688 2937,1677 2937,1686 L2937,1696 2937,1696 L2947,1696 C2958,1696 2943,1701 2952,1704 C2962,1707 2950,1696 2960,1696 L2970,1696 2970,1696 L2969,1686 C2968,1677 2975,1690 2974,1680 C2974,1671 2968,1684 2969,1674 L2970,1664"/></g><clipPath id="c" clipRule="evenodd" fill="transparent"><use href="#t6849"/></clipPath></defs><svg viewBox="2936 1663 40 45" preserveAspectRatio="xMinYMin meet"><svg width="4380" height="2430"><g><image crossorigin="anonymous" x="0" y="0" href="https://nftpuzzle.license-token.com/assets/completepuzzle.svg" width="100%" height="100%" /><g class="links"><use href="#t6849"/></g></g></svg><svg x="2961" y="1693" height="9%" width="9%" viewBox="0 0 330 330"><g><a xlink:href="https://nftpuzzle.license-token.com/" class="links"><title>See the most innovative NFT based token software licensing project</title><path fill="#E4CF37" id="more" d="M165,0C74.019,0,0,74.019,0,165s74.019,165,165,165s165-74.019,165-165S255.981,0,165,0z M85,190 c-13.785,0-25-11.215-25-25s11.215-25,25-25s25,11.215,25,25S98.785,190,85,190z M165,190c-13.785,0-25-11.215-25-25 s11.215-25,25-25s25,11.215,25,25S178.785,190,165,190z M245,190c-13.785,0-25-11.215-25-25s11.215-25,25-25 c13.785,0,25,11.215,25,25S258.785,190,245,190z"></path></a></g></svg></svg></svg>