<svg version="1.1" xmlns="http://www.w3.org/2000/svg" xmlns:xlink="http://www.w3.org/1999/xlink" fill="transparent" x="0" y="0" width="350" height="350" preserveAspectRatio="xMinYMin slice"><style type="text/css">.links{fill:transparent;stroke: #E4CF37;}.links:hover{fill:#63D272; opacity:0.4;}</style><defs><g id="allt"><path id="t685" d="M1188,160 L1178,161 C1168,163 1181,153 1172,151 C1164,149 1175,164 1165,162 L1155,160 1155,160 L1155,169 C1155,178 1147,168 1148,177 C1149,187 1155,172 1155,182 L1155,192 1155,192 L1164,192 C1174,192 1164,184 1173,185 C1183,186 1167,192 1177,192 L1188,192 1188,192 L1188,181 C1188,170 1193,182 1192,173 C1192,165 1187,178 1187,169 L1188,160"/></g><clipPath id="c" clipRule="evenodd" fill="transparent"><use href="#t685"/></clipPath></defs><svg viewBox="1146 148 48 45" preserveAspectRatio="xMinYMin meet"><svg width="4380" height="2430"><g><image crossorigin="anonymous" x="0" y="0" href="https://nftpuzzle.license-token.com/assets/completepuzzle.svg" width="100%" height="100%" /><g class="links"><use href="#t685"/></g></g></svg><svg x="1179" y="178" height="9%" width="9%" viewBox="0 0 330 330"><g><a xlink:href="https://nftpuzzle.license-token.com/" class="links"><title>See the most innovative NFT based token software licensing project</title><path fill="#E4CF37" id="more" d="M165,0C74.019,0,0,74.019,0,165s74.019,165,165,165s165-74.019,165-165S255.981,0,165,0z M85,190 c-13.785,0-25-11.215-25-25s11.215-25,25-25s25,11.215,25,25S98.785,190,85,190z M165,190c-13.785,0-25-11.215-25-25 s11.215-25,25-25s25,11.215,25,25S178.785,190,165,190z M245,190c-13.785,0-25-11.215-25-25s11.215-25,25-25 c13.785,0,25,11.215,25,25S258.785,190,245,190z"></path></a></g></svg></svg></svg>