<svg version="1.1" xmlns="http://www.w3.org/2000/svg" xmlns:xlink="http://www.w3.org/1999/xlink" fill="transparent" x="0" y="0" width="350" height="350" preserveAspectRatio="xMinYMin slice"><style type="text/css">.links{fill:transparent;stroke: #E4CF37;}.links:hover{fill:#63D272; opacity:0.4;}</style><defs><g id="allt"><path id="t6852" d="M3069,1664 L3058,1665 C3047,1667 3059,1655 3050,1656 C3041,1658 3054,1664 3045,1664 L3036,1664 3036,1664 L3036,1674 C3036,1685 3041,1670 3040,1679 C3040,1688 3036,1678 3036,1687 L3036,1696 3036,1696 L3047,1696 C3058,1696 3042,1701 3051,1700 C3061,1700 3050,1696 3059,1696 L3069,1696 3069,1696 L3067,1686 C3065,1676 3077,1688 3079,1680 C3082,1672 3068,1682 3068,1673 L3069,1664"/></g><clipPath id="c" clipRule="evenodd" fill="transparent"><use href="#t6852"/></clipPath></defs><svg viewBox="3035 1654 48 48" preserveAspectRatio="xMinYMin meet"><svg width="4380" height="2430"><g><image crossorigin="anonymous" x="0" y="0" href="https://nftpuzzle.license-token.com/assets/completepuzzle.svg" width="100%" height="100%" /><g class="links"><use href="#t6852"/></g></g></svg><svg x="3068" y="1687" height="9%" width="9%" viewBox="0 0 330 330"><g><a xlink:href="https://nftpuzzle.license-token.com/" class="links"><title>See the most innovative NFT based token software licensing project</title><path fill="#E4CF37" id="more" d="M165,0C74.019,0,0,74.019,0,165s74.019,165,165,165s165-74.019,165-165S255.981,0,165,0z M85,190 c-13.785,0-25-11.215-25-25s11.215-25,25-25s25,11.215,25,25S98.785,190,85,190z M165,190c-13.785,0-25-11.215-25-25 s11.215-25,25-25s25,11.215,25,25S178.785,190,165,190z M245,190c-13.785,0-25-11.215-25-25s11.215-25,25-25 c13.785,0,25,11.215,25,25S258.785,190,245,190z"></path></a></g></svg></svg></svg>