<svg version="1.1" xmlns="http://www.w3.org/2000/svg" xmlns:xlink="http://www.w3.org/1999/xlink" fill="transparent" x="0" y="0" width="350" height="350" preserveAspectRatio="xMinYMin slice"><style type="text/css">.links{fill:transparent;stroke: #E4CF37;}.links:hover{fill:#63D272; opacity:0.4;}</style><defs><g id="allt"><path id="t6857" d="M3234,1664 L3223,1664 C3212,1664 3225,1659 3215,1658 C3206,1658 3222,1665 3211,1664 L3201,1664 3201,1664 L3201,1674 C3201,1685 3196,1670 3193,1679 C3191,1689 3204,1676 3202,1686 L3201,1696 3201,1696 L3212,1696 C3223,1696 3207,1691 3217,1688 C3227,1686 3213,1699 3223,1697 L3234,1696 3234,1696 L3233,1685 C3232,1675 3240,1688 3240,1678 C3241,1669 3234,1683 3234,1673 L3234,1664"/></g><clipPath id="c" clipRule="evenodd" fill="transparent"><use href="#t6857"/></clipPath></defs><svg viewBox="3190 1657 52 43" preserveAspectRatio="xMinYMin meet"><svg width="4380" height="2430"><g><image crossorigin="anonymous" x="0" y="0" href="https://nftpuzzle.license-token.com/assets/completepuzzle.svg" width="100%" height="100%" /><g class="links"><use href="#t6857"/></g></g></svg><svg x="3227" y="1685" height="9%" width="9%" viewBox="0 0 330 330"><g><a xlink:href="https://nftpuzzle.license-token.com/" class="links"><title>See the most innovative NFT based token software licensing project</title><path fill="#E4CF37" id="more" d="M165,0C74.019,0,0,74.019,0,165s74.019,165,165,165s165-74.019,165-165S255.981,0,165,0z M85,190 c-13.785,0-25-11.215-25-25s11.215-25,25-25s25,11.215,25,25S98.785,190,85,190z M165,190c-13.785,0-25-11.215-25-25 s11.215-25,25-25s25,11.215,25,25S178.785,190,165,190z M245,190c-13.785,0-25-11.215-25-25s11.215-25,25-25 c13.785,0,25,11.215,25,25S258.785,190,245,190z"></path></a></g></svg></svg></svg>