<svg version="1.1" xmlns="http://www.w3.org/2000/svg" xmlns:xlink="http://www.w3.org/1999/xlink" fill="transparent" x="0" y="0" width="350" height="350" preserveAspectRatio="xMinYMin slice"><style type="text/css">.links{fill:transparent;stroke: #E4CF37;}.links:hover{fill:#63D272; opacity:0.4;}</style><defs><g id="allt"><path id="t6858" d="M3267,1664 L3256,1662 C3246,1661 3259,1670 3250,1671 C3242,1673 3254,1664 3244,1664 L3234,1664 3234,1664 L3234,1673 C3234,1683 3241,1669 3240,1678 C3240,1688 3232,1675 3233,1685 L3234,1696 3234,1696 L3244,1696 C3254,1696 3239,1703 3248,1702 C3258,1702 3246,1694 3256,1695 L3267,1696 3267,1696 L3267,1686 C3267,1677 3264,1690 3264,1680 C3264,1671 3267,1683 3267,1673 L3267,1664"/></g><clipPath id="c" clipRule="evenodd" fill="transparent"><use href="#t6858"/></clipPath></defs><svg viewBox="3231 1660 37 44" preserveAspectRatio="xMinYMin meet"><svg width="4380" height="2430"><g><image crossorigin="anonymous" x="0" y="0" href="https://nftpuzzle.license-token.com/assets/completepuzzle.svg" width="100%" height="100%" /><g class="links"><use href="#t6858"/></g></g></svg><svg x="3253" y="1689" height="9%" width="9%" viewBox="0 0 330 330"><g><a xlink:href="https://nftpuzzle.license-token.com/" class="links"><title>See the most innovative NFT based token software licensing project</title><path fill="#E4CF37" id="more" d="M165,0C74.019,0,0,74.019,0,165s74.019,165,165,165s165-74.019,165-165S255.981,0,165,0z M85,190 c-13.785,0-25-11.215-25-25s11.215-25,25-25s25,11.215,25,25S98.785,190,85,190z M165,190c-13.785,0-25-11.215-25-25 s11.215-25,25-25s25,11.215,25,25S178.785,190,165,190z M245,190c-13.785,0-25-11.215-25-25s11.215-25,25-25 c13.785,0,25,11.215,25,25S258.785,190,245,190z"></path></a></g></svg></svg></svg>