<svg version="1.1" xmlns="http://www.w3.org/2000/svg" xmlns:xlink="http://www.w3.org/1999/xlink" fill="transparent" x="0" y="0" width="350" height="350" preserveAspectRatio="xMinYMin slice"><style type="text/css">.links{fill:transparent;stroke: #E4CF37;}.links:hover{fill:#63D272; opacity:0.4;}</style><defs><g id="allt"><path id="t6866" d="M3531,1664 L3521,1663 C3512,1662 3523,1668 3514,1669 C3505,1670 3517,1660 3507,1662 L3498,1664 3498,1664 L3498,1674 C3498,1684 3495,1669 3495,1679 C3495,1690 3498,1675 3498,1685 L3498,1696 3498,1696 L3508,1696 C3519,1696 3503,1693 3514,1693 C3525,1693 3509,1696 3520,1696 L3531,1696 3531,1696 L3531,1686 C3531,1677 3526,1686 3525,1678 C3524,1670 3531,1683 3531,1673 L3531,1664"/></g><clipPath id="c" clipRule="evenodd" fill="transparent"><use href="#t6866"/></clipPath></defs><svg viewBox="3494 1659 38 38" preserveAspectRatio="xMinYMin meet"><svg width="4380" height="2430"><g><image crossorigin="anonymous" x="0" y="0" href="https://nftpuzzle.license-token.com/assets/completepuzzle.svg" width="100%" height="100%" /><g class="links"><use href="#t6866"/></g></g></svg><svg x="3517" y="1682" height="9%" width="9%" viewBox="0 0 330 330"><g><a xlink:href="https://nftpuzzle.license-token.com/" class="links"><title>See the most innovative NFT based token software licensing project</title><path fill="#E4CF37" id="more" d="M165,0C74.019,0,0,74.019,0,165s74.019,165,165,165s165-74.019,165-165S255.981,0,165,0z M85,190 c-13.785,0-25-11.215-25-25s11.215-25,25-25s25,11.215,25,25S98.785,190,85,190z M165,190c-13.785,0-25-11.215-25-25 s11.215-25,25-25s25,11.215,25,25S178.785,190,165,190z M245,190c-13.785,0-25-11.215-25-25s11.215-25,25-25 c13.785,0,25,11.215,25,25S258.785,190,245,190z"></path></a></g></svg></svg></svg>