<svg version="1.1" xmlns="http://www.w3.org/2000/svg" xmlns:xlink="http://www.w3.org/1999/xlink" fill="transparent" x="0" y="0" width="350" height="350" preserveAspectRatio="xMinYMin slice"><style type="text/css">.links{fill:transparent;stroke: #E4CF37;}.links:hover{fill:#63D272; opacity:0.4;}</style><defs><g id="allt"><path id="t6868" d="M3597,1664 L3586,1662 C3576,1661 3587,1673 3578,1672 C3570,1672 3585,1664 3574,1664 L3564,1664 3564,1664 L3564,1672 C3564,1681 3556,1671 3557,1680 C3559,1690 3564,1676 3564,1686 L3564,1696 3564,1696 L3573,1696 C3582,1696 3571,1688 3581,1689 C3591,1691 3576,1696 3586,1696 L3597,1696 3597,1696 L3595,1686 C3594,1677 3606,1686 3603,1679 C3601,1672 3597,1684 3597,1674 L3597,1664"/></g><clipPath id="c" clipRule="evenodd" fill="transparent"><use href="#t6868"/></clipPath></defs><svg viewBox="3555 1660 52 37" preserveAspectRatio="xMinYMin meet"><svg width="4380" height="2430"><g><image crossorigin="anonymous" x="0" y="0" href="https://nftpuzzle.license-token.com/assets/completepuzzle.svg" width="100%" height="100%" /><g class="links"><use href="#t6868"/></g></g></svg><svg x="3592" y="1682" height="9%" width="9%" viewBox="0 0 330 330"><g><a xlink:href="https://nftpuzzle.license-token.com/" class="links"><title>See the most innovative NFT based token software licensing project</title><path fill="#E4CF37" id="more" d="M165,0C74.019,0,0,74.019,0,165s74.019,165,165,165s165-74.019,165-165S255.981,0,165,0z M85,190 c-13.785,0-25-11.215-25-25s11.215-25,25-25s25,11.215,25,25S98.785,190,85,190z M165,190c-13.785,0-25-11.215-25-25 s11.215-25,25-25s25,11.215,25,25S178.785,190,165,190z M245,190c-13.785,0-25-11.215-25-25s11.215-25,25-25 c13.785,0,25,11.215,25,25S258.785,190,245,190z"></path></a></g></svg></svg></svg>