<svg version="1.1" xmlns="http://www.w3.org/2000/svg" xmlns:xlink="http://www.w3.org/1999/xlink" fill="transparent" x="0" y="0" width="350" height="350" preserveAspectRatio="xMinYMin slice"><style type="text/css">.links{fill:transparent;stroke: #E4CF37;}.links:hover{fill:#63D272; opacity:0.4;}</style><defs><g id="allt"><path id="t687" d="M1254,160 L1242,161 C1231,162 1247,151 1238,150 C1229,150 1241,160 1231,160 L1221,160 1221,160 L1221,170 C1221,181 1226,168 1226,175 C1227,183 1219,173 1220,182 L1221,192 1221,192 L1231,192 C1242,192 1229,197 1236,197 C1244,198 1234,190 1244,191 L1254,192 1254,192 L1254,181 C1254,170 1258,183 1259,174 C1260,166 1254,181 1254,170 L1254,160"/></g><clipPath id="c" clipRule="evenodd" fill="transparent"><use href="#t687"/></clipPath></defs><svg viewBox="1218 149 43 50" preserveAspectRatio="xMinYMin meet"><svg width="4380" height="2430"><g><image crossorigin="anonymous" x="0" y="0" href="https://nftpuzzle.license-token.com/assets/completepuzzle.svg" width="100%" height="100%" /><g class="links"><use href="#t687"/></g></g></svg><svg x="1246" y="184" height="9%" width="9%" viewBox="0 0 330 330"><g><a xlink:href="https://nftpuzzle.license-token.com/" class="links"><title>See the most innovative NFT based token software licensing project</title><path fill="#E4CF37" id="more" d="M165,0C74.019,0,0,74.019,0,165s74.019,165,165,165s165-74.019,165-165S255.981,0,165,0z M85,190 c-13.785,0-25-11.215-25-25s11.215-25,25-25s25,11.215,25,25S98.785,190,85,190z M165,190c-13.785,0-25-11.215-25-25 s11.215-25,25-25s25,11.215,25,25S178.785,190,165,190z M245,190c-13.785,0-25-11.215-25-25s11.215-25,25-25 c13.785,0,25,11.215,25,25S258.785,190,245,190z"></path></a></g></svg></svg></svg>