<svg version="1.1" xmlns="http://www.w3.org/2000/svg" xmlns:xlink="http://www.w3.org/1999/xlink" fill="transparent" x="0" y="0" width="350" height="350" preserveAspectRatio="xMinYMin slice"><style type="text/css">.links{fill:transparent;stroke: #E4CF37;}.links:hover{fill:#63D272; opacity:0.4;}</style><defs><g id="allt"><path id="t6871" d="M3696,1664 L3686,1664 C3676,1664 3689,1675 3679,1673 C3669,1672 3682,1664 3672,1664 L3663,1664 3663,1664 L3663,1673 C3663,1683 3658,1669 3658,1679 C3659,1689 3663,1676 3663,1686 L3663,1696 3663,1696 L3673,1696 C3683,1696 3668,1691 3678,1691 C3689,1692 3675,1696 3685,1696 L3696,1696 3696,1696 L3695,1686 C3695,1677 3700,1689 3702,1678 C3705,1668 3693,1681 3694,1672 L3696,1664"/></g><clipPath id="c" clipRule="evenodd" fill="transparent"><use href="#t6871"/></clipPath></defs><svg viewBox="3657 1663 49 34" preserveAspectRatio="xMinYMin meet"><svg width="4380" height="2430"><g><image crossorigin="anonymous" x="0" y="0" href="https://nftpuzzle.license-token.com/assets/completepuzzle.svg" width="100%" height="100%" /><g class="links"><use href="#t6871"/></g></g></svg><svg x="3691" y="1682" height="9%" width="9%" viewBox="0 0 330 330"><g><a xlink:href="https://nftpuzzle.license-token.com/" class="links"><title>See the most innovative NFT based token software licensing project</title><path fill="#E4CF37" id="more" d="M165,0C74.019,0,0,74.019,0,165s74.019,165,165,165s165-74.019,165-165S255.981,0,165,0z M85,190 c-13.785,0-25-11.215-25-25s11.215-25,25-25s25,11.215,25,25S98.785,190,85,190z M165,190c-13.785,0-25-11.215-25-25 s11.215-25,25-25s25,11.215,25,25S178.785,190,165,190z M245,190c-13.785,0-25-11.215-25-25s11.215-25,25-25 c13.785,0,25,11.215,25,25S258.785,190,245,190z"></path></a></g></svg></svg></svg>