<svg version="1.1" xmlns="http://www.w3.org/2000/svg" xmlns:xlink="http://www.w3.org/1999/xlink" fill="transparent" x="0" y="0" width="350" height="350" preserveAspectRatio="xMinYMin slice"><style type="text/css">.links{fill:transparent;stroke: #E4CF37;}.links:hover{fill:#63D272; opacity:0.4;}</style><defs><g id="allt"><path id="t6872" d="M3729,1664 L3719,1664 C3709,1664 3719,1662 3711,1662 C3703,1662 3715,1665 3705,1664 L3696,1664 3696,1664 L3694,1672 C3693,1681 3705,1668 3702,1678 C3700,1689 3695,1677 3695,1686 L3696,1696 3696,1696 L3705,1694 C3714,1693 3700,1705 3711,1702 C3722,1700 3709,1695 3719,1695 L3729,1696 3729,1696 L3729,1687 C3729,1678 3735,1689 3736,1681 C3737,1673 3726,1682 3727,1673 L3729,1664"/></g><clipPath id="c" clipRule="evenodd" fill="transparent"><use href="#t6872"/></clipPath></defs><svg viewBox="3692 1661 46 45" preserveAspectRatio="xMinYMin meet"><svg width="4380" height="2430"><g><image crossorigin="anonymous" x="0" y="0" href="https://nftpuzzle.license-token.com/assets/completepuzzle.svg" width="100%" height="100%" /><g class="links"><use href="#t6872"/></g></g></svg><svg x="3723" y="1691" height="9%" width="9%" viewBox="0 0 330 330"><g><a xlink:href="https://nftpuzzle.license-token.com/" class="links"><title>See the most innovative NFT based token software licensing project</title><path fill="#E4CF37" id="more" d="M165,0C74.019,0,0,74.019,0,165s74.019,165,165,165s165-74.019,165-165S255.981,0,165,0z M85,190 c-13.785,0-25-11.215-25-25s11.215-25,25-25s25,11.215,25,25S98.785,190,85,190z M165,190c-13.785,0-25-11.215-25-25 s11.215-25,25-25s25,11.215,25,25S178.785,190,165,190z M245,190c-13.785,0-25-11.215-25-25s11.215-25,25-25 c13.785,0,25,11.215,25,25S258.785,190,245,190z"></path></a></g></svg></svg></svg>