<svg version="1.1" xmlns="http://www.w3.org/2000/svg" xmlns:xlink="http://www.w3.org/1999/xlink" fill="transparent" x="0" y="0" width="350" height="350" preserveAspectRatio="xMinYMin slice"><style type="text/css">.links{fill:transparent;stroke: #E4CF37;}.links:hover{fill:#63D272; opacity:0.4;}</style><defs><g id="allt"><path id="t6875" d="M3828,1664 L3817,1664 C3806,1664 3822,1659 3810,1657 C3799,1656 3815,1664 3805,1664 L3795,1664 3795,1664 L3795,1674 C3795,1684 3801,1669 3802,1677 C3803,1686 3792,1676 3793,1686 L3795,1696 3795,1696 L3805,1696 C3816,1696 3800,1702 3809,1703 C3818,1704 3807,1693 3817,1694 L3828,1696 3828,1696 L3828,1685 C3829,1675 3824,1689 3823,1679 C3823,1670 3828,1683 3828,1673 L3828,1664"/></g><clipPath id="c" clipRule="evenodd" fill="transparent"><use href="#t6875"/></clipPath></defs><svg viewBox="3791 1655 39 50" preserveAspectRatio="xMinYMin meet"><svg width="4380" height="2430"><g><image crossorigin="anonymous" x="0" y="0" href="https://nftpuzzle.license-token.com/assets/completepuzzle.svg" width="100%" height="100%" /><g class="links"><use href="#t6875"/></g></g></svg><svg x="3815" y="1690" height="9%" width="9%" viewBox="0 0 330 330"><g><a xlink:href="https://nftpuzzle.license-token.com/" class="links"><title>See the most innovative NFT based token software licensing project</title><path fill="#E4CF37" id="more" d="M165,0C74.019,0,0,74.019,0,165s74.019,165,165,165s165-74.019,165-165S255.981,0,165,0z M85,190 c-13.785,0-25-11.215-25-25s11.215-25,25-25s25,11.215,25,25S98.785,190,85,190z M165,190c-13.785,0-25-11.215-25-25 s11.215-25,25-25s25,11.215,25,25S178.785,190,165,190z M245,190c-13.785,0-25-11.215-25-25s11.215-25,25-25 c13.785,0,25,11.215,25,25S258.785,190,245,190z"></path></a></g></svg></svg></svg>