<svg version="1.1" xmlns="http://www.w3.org/2000/svg" xmlns:xlink="http://www.w3.org/1999/xlink" fill="transparent" x="0" y="0" width="350" height="350" preserveAspectRatio="xMinYMin slice"><style type="text/css">.links{fill:transparent;stroke: #E4CF37;}.links:hover{fill:#63D272; opacity:0.4;}</style><defs><g id="allt"><path id="t6882" d="M4059,1664 L4049,1664 C4040,1664 4049,1667 4041,1666 C4033,1666 4047,1663 4036,1663 L4026,1664 4026,1664 L4026,1672 C4026,1681 4032,1672 4030,1679 C4029,1686 4024,1674 4025,1685 L4026,1696 4026,1696 L4035,1696 C4044,1696 4034,1702 4041,1700 C4049,1699 4036,1694 4047,1695 L4059,1696 4059,1696 L4059,1686 C4059,1677 4062,1690 4062,1681 C4063,1672 4058,1682 4058,1673 L4059,1664"/></g><clipPath id="c" clipRule="evenodd" fill="transparent"><use href="#t6882"/></clipPath></defs><svg viewBox="4023 1662 41 41" preserveAspectRatio="xMinYMin meet"><svg width="4380" height="2430"><g><image crossorigin="anonymous" x="0" y="0" href="https://nftpuzzle.license-token.com/assets/completepuzzle.svg" width="100%" height="100%" /><g class="links"><use href="#t6882"/></g></g></svg><svg x="4049" y="1688" height="9%" width="9%" viewBox="0 0 330 330"><g><a xlink:href="https://nftpuzzle.license-token.com/" class="links"><title>See the most innovative NFT based token software licensing project</title><path fill="#E4CF37" id="more" d="M165,0C74.019,0,0,74.019,0,165s74.019,165,165,165s165-74.019,165-165S255.981,0,165,0z M85,190 c-13.785,0-25-11.215-25-25s11.215-25,25-25s25,11.215,25,25S98.785,190,85,190z M165,190c-13.785,0-25-11.215-25-25 s11.215-25,25-25s25,11.215,25,25S178.785,190,165,190z M245,190c-13.785,0-25-11.215-25-25s11.215-25,25-25 c13.785,0,25,11.215,25,25S258.785,190,245,190z"></path></a></g></svg></svg></svg>