<svg version="1.1" xmlns="http://www.w3.org/2000/svg" xmlns:xlink="http://www.w3.org/1999/xlink" fill="transparent" x="0" y="0" width="350" height="350" preserveAspectRatio="xMinYMin slice"><style type="text/css">.links{fill:transparent;stroke: #E4CF37;}.links:hover{fill:#63D272; opacity:0.4;}</style><defs><g id="allt"><path id="t6883" d="M4092,1664 L4082,1664 C4073,1664 4082,1656 4074,1655 C4066,1654 4079,1668 4069,1666 L4059,1664 4059,1664 L4058,1673 C4058,1682 4063,1672 4062,1681 C4062,1690 4059,1677 4059,1686 L4059,1696 4059,1696 L4068,1695 C4078,1695 4067,1700 4076,1699 C4086,1699 4072,1696 4082,1696 L4092,1696 4092,1696 L4091,1686 C4090,1677 4098,1690 4098,1681 C4099,1673 4092,1683 4092,1673 L4092,1664"/></g><clipPath id="c" clipRule="evenodd" fill="transparent"><use href="#t6883"/></clipPath></defs><svg viewBox="4057 1653 43 48" preserveAspectRatio="xMinYMin meet"><svg width="4380" height="2430"><g><image crossorigin="anonymous" x="0" y="0" href="https://nftpuzzle.license-token.com/assets/completepuzzle.svg" width="100%" height="100%" /><g class="links"><use href="#t6883"/></g></g></svg><svg x="4085" y="1686" height="9%" width="9%" viewBox="0 0 330 330"><g><a xlink:href="https://nftpuzzle.license-token.com/" class="links"><title>See the most innovative NFT based token software licensing project</title><path fill="#E4CF37" id="more" d="M165,0C74.019,0,0,74.019,0,165s74.019,165,165,165s165-74.019,165-165S255.981,0,165,0z M85,190 c-13.785,0-25-11.215-25-25s11.215-25,25-25s25,11.215,25,25S98.785,190,85,190z M165,190c-13.785,0-25-11.215-25-25 s11.215-25,25-25s25,11.215,25,25S178.785,190,165,190z M245,190c-13.785,0-25-11.215-25-25s11.215-25,25-25 c13.785,0,25,11.215,25,25S258.785,190,245,190z"></path></a></g></svg></svg></svg>