<svg version="1.1" xmlns="http://www.w3.org/2000/svg" xmlns:xlink="http://www.w3.org/1999/xlink" fill="transparent" x="0" y="0" width="350" height="350" preserveAspectRatio="xMinYMin slice"><style type="text/css">.links{fill:transparent;stroke: #E4CF37;}.links:hover{fill:#63D272; opacity:0.4;}</style><defs><g id="allt"><path id="t6885" d="M4158,1664 L4148,1664 C4139,1664 4151,1659 4141,1659 C4131,1659 4145,1665 4135,1664 L4125,1664 4125,1664 L4127,1673 C4129,1683 4113,1672 4114,1681 C4115,1691 4125,1674 4125,1685 L4125,1696 4125,1696 L4135,1698 C4145,1700 4133,1684 4143,1685 C4153,1686 4136,1696 4147,1696 L4158,1696 4158,1696 L4158,1686 C4158,1676 4167,1690 4165,1679 C4163,1669 4158,1682 4158,1673 L4158,1664"/></g><clipPath id="c" clipRule="evenodd" fill="transparent"><use href="#t6885"/></clipPath></defs><svg viewBox="4112 1658 56 43" preserveAspectRatio="xMinYMin meet"><svg width="4380" height="2430"><g><image crossorigin="anonymous" x="0" y="0" href="https://nftpuzzle.license-token.com/assets/completepuzzle.svg" width="100%" height="100%" /><g class="links"><use href="#t6885"/></g></g></svg><svg x="4153" y="1686" height="9%" width="9%" viewBox="0 0 330 330"><g><a xlink:href="https://nftpuzzle.license-token.com/" class="links"><title>See the most innovative NFT based token software licensing project</title><path fill="#E4CF37" id="more" d="M165,0C74.019,0,0,74.019,0,165s74.019,165,165,165s165-74.019,165-165S255.981,0,165,0z M85,190 c-13.785,0-25-11.215-25-25s11.215-25,25-25s25,11.215,25,25S98.785,190,85,190z M165,190c-13.785,0-25-11.215-25-25 s11.215-25,25-25s25,11.215,25,25S178.785,190,165,190z M245,190c-13.785,0-25-11.215-25-25s11.215-25,25-25 c13.785,0,25,11.215,25,25S258.785,190,245,190z"></path></a></g></svg></svg></svg>