<svg version="1.1" xmlns="http://www.w3.org/2000/svg" xmlns:xlink="http://www.w3.org/1999/xlink" fill="transparent" x="0" y="0" width="350" height="350" preserveAspectRatio="xMinYMin slice"><style type="text/css">.links{fill:transparent;stroke: #E4CF37;}.links:hover{fill:#63D272; opacity:0.4;}</style><defs><g id="allt"><path id="t6888" d="M4257,1664 L4246,1664 C4235,1664 4247,1655 4238,1657 C4229,1659 4244,1664 4234,1664 L4224,1664 4224,1664 L4222,1673 C4220,1682 4231,1670 4233,1678 C4235,1687 4220,1678 4222,1687 L4224,1696 4224,1696 L4233,1694 C4243,1692 4230,1703 4238,1704 C4247,1706 4238,1692 4247,1694 L4257,1696 4257,1696 L4257,1686 C4257,1676 4245,1690 4244,1679 C4244,1669 4261,1684 4259,1674 L4257,1664"/></g><clipPath id="c" clipRule="evenodd" fill="transparent"><use href="#t6888"/></clipPath></defs><svg viewBox="4219 1654 43 53" preserveAspectRatio="xMinYMin meet"><svg width="4380" height="2430"><g><image crossorigin="anonymous" x="0" y="0" href="https://nftpuzzle.license-token.com/assets/completepuzzle.svg" width="100%" height="100%" /><g class="links"><use href="#t6888"/></g></g></svg><svg x="4247" y="1692" height="9%" width="9%" viewBox="0 0 330 330"><g><a xlink:href="https://nftpuzzle.license-token.com/" class="links"><title>See the most innovative NFT based token software licensing project</title><path fill="#E4CF37" id="more" d="M165,0C74.019,0,0,74.019,0,165s74.019,165,165,165s165-74.019,165-165S255.981,0,165,0z M85,190 c-13.785,0-25-11.215-25-25s11.215-25,25-25s25,11.215,25,25S98.785,190,85,190z M165,190c-13.785,0-25-11.215-25-25 s11.215-25,25-25s25,11.215,25,25S178.785,190,165,190z M245,190c-13.785,0-25-11.215-25-25s11.215-25,25-25 c13.785,0,25,11.215,25,25S258.785,190,245,190z"></path></a></g></svg></svg></svg>