<svg version="1.1" xmlns="http://www.w3.org/2000/svg" xmlns:xlink="http://www.w3.org/1999/xlink" fill="transparent" x="0" y="0" width="350" height="350" preserveAspectRatio="xMinYMin slice"><style type="text/css">.links{fill:transparent;stroke: #E4CF37;}.links:hover{fill:#63D272; opacity:0.4;}</style><defs><g id="allt"><path id="t6895" d="M198,1696 L187,1696 C177,1697 192,1691 182,1688 C173,1686 186,1699 175,1697 L165,1696 165,1696 L166,1706 C168,1716 160,1702 160,1712 C161,1722 165,1708 165,1718 L165,1728 165,1728 L175,1729 C186,1731 171,1723 181,1723 C192,1724 177,1728 187,1728 L198,1728 198,1728 L198,1717 C198,1707 202,1721 202,1712 C203,1704 198,1717 198,1706 L198,1696"/></g><clipPath id="c" clipRule="evenodd" fill="transparent"><use href="#t6895"/></clipPath></defs><svg viewBox="159 1685 45 47" preserveAspectRatio="xMinYMin meet"><svg width="4380" height="2430"><g><image crossorigin="anonymous" x="0" y="0" href="https://nftpuzzle.license-token.com/assets/completepuzzle.svg" width="100%" height="100%" /><g class="links"><use href="#t6895"/></g></g></svg><svg x="189" y="1717" height="9%" width="9%" viewBox="0 0 330 330"><g><a xlink:href="https://nftpuzzle.license-token.com/" class="links"><title>See the most innovative NFT based token software licensing project</title><path fill="#E4CF37" id="more" d="M165,0C74.019,0,0,74.019,0,165s74.019,165,165,165s165-74.019,165-165S255.981,0,165,0z M85,190 c-13.785,0-25-11.215-25-25s11.215-25,25-25s25,11.215,25,25S98.785,190,85,190z M165,190c-13.785,0-25-11.215-25-25 s11.215-25,25-25s25,11.215,25,25S178.785,190,165,190z M245,190c-13.785,0-25-11.215-25-25s11.215-25,25-25 c13.785,0,25,11.215,25,25S258.785,190,245,190z"></path></a></g></svg></svg></svg>