<svg version="1.1" xmlns="http://www.w3.org/2000/svg" xmlns:xlink="http://www.w3.org/1999/xlink" fill="transparent" x="0" y="0" width="350" height="350" preserveAspectRatio="xMinYMin slice"><style type="text/css">.links{fill:transparent;stroke: #E4CF37;}.links:hover{fill:#63D272; opacity:0.4;}</style><defs><g id="allt"><path id="t6898" d="M297,1696 L286,1697 C275,1698 291,1690 280,1691 C269,1692 282,1696 273,1696 L264,1696 264,1696 L265,1706 C266,1717 259,1702 258,1710 C257,1718 264,1709 264,1718 L264,1728 264,1728 L274,1729 C285,1730 270,1723 278,1722 C287,1721 278,1728 287,1728 L297,1728 297,1728 L298,1717 C299,1707 292,1719 291,1710 C291,1702 297,1713 297,1704 L297,1696"/></g><clipPath id="c" clipRule="evenodd" fill="transparent"><use href="#t6898"/></clipPath></defs><svg viewBox="256 1689 44 42" preserveAspectRatio="xMinYMin meet"><svg width="4380" height="2430"><g><image crossorigin="anonymous" x="0" y="0" href="https://nftpuzzle.license-token.com/assets/completepuzzle.svg" width="100%" height="100%" /><g class="links"><use href="#t6898"/></g></g></svg><svg x="285" y="1716" height="9%" width="9%" viewBox="0 0 330 330"><g><a xlink:href="https://nftpuzzle.license-token.com/" class="links"><title>See the most innovative NFT based token software licensing project</title><path fill="#E4CF37" id="more" d="M165,0C74.019,0,0,74.019,0,165s74.019,165,165,165s165-74.019,165-165S255.981,0,165,0z M85,190 c-13.785,0-25-11.215-25-25s11.215-25,25-25s25,11.215,25,25S98.785,190,85,190z M165,190c-13.785,0-25-11.215-25-25 s11.215-25,25-25s25,11.215,25,25S178.785,190,165,190z M245,190c-13.785,0-25-11.215-25-25s11.215-25,25-25 c13.785,0,25,11.215,25,25S258.785,190,245,190z"></path></a></g></svg></svg></svg>