<svg version="1.1" xmlns="http://www.w3.org/2000/svg" xmlns:xlink="http://www.w3.org/1999/xlink" fill="transparent" x="0" y="0" width="350" height="350" preserveAspectRatio="xMinYMin slice"><style type="text/css">.links{fill:transparent;stroke: #E4CF37;}.links:hover{fill:#63D272; opacity:0.4;}</style><defs><g id="allt"><path id="t690" d="M1353,160 L1342,160 C1331,161 1343,154 1334,152 C1326,150 1338,162 1329,161 L1320,160 1320,160 L1320,169 C1321,178 1312,167 1313,176 C1315,186 1321,172 1320,182 L1320,192 1320,192 L1329,192 C1338,193 1327,184 1337,185 C1347,187 1332,193 1342,192 L1353,192 1353,192 L1354,181 C1355,171 1346,186 1346,177 C1346,169 1355,178 1354,169 L1353,160"/></g><clipPath id="c" clipRule="evenodd" fill="transparent"><use href="#t690"/></clipPath></defs><svg viewBox="1311 149 45 45" preserveAspectRatio="xMinYMin meet"><svg width="4380" height="2430"><g><image crossorigin="anonymous" x="0" y="0" href="https://nftpuzzle.license-token.com/assets/completepuzzle.svg" width="100%" height="100%" /><g class="links"><use href="#t690"/></g></g></svg><svg x="1341" y="179" height="9%" width="9%" viewBox="0 0 330 330"><g><a xlink:href="https://nftpuzzle.license-token.com/" class="links"><title>See the most innovative NFT based token software licensing project</title><path fill="#E4CF37" id="more" d="M165,0C74.019,0,0,74.019,0,165s74.019,165,165,165s165-74.019,165-165S255.981,0,165,0z M85,190 c-13.785,0-25-11.215-25-25s11.215-25,25-25s25,11.215,25,25S98.785,190,85,190z M165,190c-13.785,0-25-11.215-25-25 s11.215-25,25-25s25,11.215,25,25S178.785,190,165,190z M245,190c-13.785,0-25-11.215-25-25s11.215-25,25-25 c13.785,0,25,11.215,25,25S258.785,190,245,190z"></path></a></g></svg></svg></svg>