<svg version="1.1" xmlns="http://www.w3.org/2000/svg" xmlns:xlink="http://www.w3.org/1999/xlink" fill="transparent" x="0" y="0" width="350" height="350" preserveAspectRatio="xMinYMin slice"><style type="text/css">.links{fill:transparent;stroke: #E4CF37;}.links:hover{fill:#63D272; opacity:0.4;}</style><defs><g id="allt"><path id="t6907" d="M594,1696 L584,1696 C574,1696 588,1690 578,1691 C569,1693 580,1698 570,1697 L561,1696 561,1696 L561,1705 C562,1714 557,1702 557,1712 C558,1722 562,1709 561,1718 L561,1728 561,1728 L570,1728 C579,1729 567,1724 577,1724 C588,1725 575,1729 584,1728 L594,1728 594,1728 L594,1719 C594,1710 586,1720 586,1712 C587,1705 594,1716 594,1706 L594,1696"/></g><clipPath id="c" clipRule="evenodd" fill="transparent"><use href="#t6907"/></clipPath></defs><svg viewBox="556 1689 39 41" preserveAspectRatio="xMinYMin meet"><svg width="4380" height="2430"><g><image crossorigin="anonymous" x="0" y="0" href="https://nftpuzzle.license-token.com/assets/completepuzzle.svg" width="100%" height="100%" /><g class="links"><use href="#t6907"/></g></g></svg><svg x="580" y="1715" height="9%" width="9%" viewBox="0 0 330 330"><g><a xlink:href="https://nftpuzzle.license-token.com/" class="links"><title>See the most innovative NFT based token software licensing project</title><path fill="#E4CF37" id="more" d="M165,0C74.019,0,0,74.019,0,165s74.019,165,165,165s165-74.019,165-165S255.981,0,165,0z M85,190 c-13.785,0-25-11.215-25-25s11.215-25,25-25s25,11.215,25,25S98.785,190,85,190z M165,190c-13.785,0-25-11.215-25-25 s11.215-25,25-25s25,11.215,25,25S178.785,190,165,190z M245,190c-13.785,0-25-11.215-25-25s11.215-25,25-25 c13.785,0,25,11.215,25,25S258.785,190,245,190z"></path></a></g></svg></svg></svg>