<svg version="1.1" xmlns="http://www.w3.org/2000/svg" xmlns:xlink="http://www.w3.org/1999/xlink" fill="transparent" x="0" y="0" width="350" height="350" preserveAspectRatio="xMinYMin slice"><style type="text/css">.links{fill:transparent;stroke: #E4CF37;}.links:hover{fill:#63D272; opacity:0.4;}</style><defs><g id="allt"><path id="t6913" d="M792,1696 L782,1695 C773,1695 786,1702 774,1703 C763,1704 777,1696 768,1696 L759,1696 759,1696 L759,1706 C760,1716 754,1702 755,1711 C756,1721 759,1709 759,1718 L759,1728 759,1728 L769,1728 C780,1729 765,1723 775,1724 C785,1725 773,1728 782,1728 L792,1728 792,1728 L792,1717 C792,1706 788,1722 788,1713 C788,1704 792,1714 792,1705 L792,1696"/></g><clipPath id="c" clipRule="evenodd" fill="transparent"><use href="#t6913"/></clipPath></defs><svg viewBox="753 1694 40 36" preserveAspectRatio="xMinYMin meet"><svg width="4380" height="2430"><g><image crossorigin="anonymous" x="0" y="0" href="https://nftpuzzle.license-token.com/assets/completepuzzle.svg" width="100%" height="100%" /><g class="links"><use href="#t6913"/></g></g></svg><svg x="778" y="1715" height="9%" width="9%" viewBox="0 0 330 330"><g><a xlink:href="https://nftpuzzle.license-token.com/" class="links"><title>See the most innovative NFT based token software licensing project</title><path fill="#E4CF37" id="more" d="M165,0C74.019,0,0,74.019,0,165s74.019,165,165,165s165-74.019,165-165S255.981,0,165,0z M85,190 c-13.785,0-25-11.215-25-25s11.215-25,25-25s25,11.215,25,25S98.785,190,85,190z M165,190c-13.785,0-25-11.215-25-25 s11.215-25,25-25s25,11.215,25,25S178.785,190,165,190z M245,190c-13.785,0-25-11.215-25-25s11.215-25,25-25 c13.785,0,25,11.215,25,25S258.785,190,245,190z"></path></a></g></svg></svg></svg>