<svg version="1.1" xmlns="http://www.w3.org/2000/svg" xmlns:xlink="http://www.w3.org/1999/xlink" fill="transparent" x="0" y="0" width="350" height="350" preserveAspectRatio="xMinYMin slice"><style type="text/css">.links{fill:transparent;stroke: #E4CF37;}.links:hover{fill:#63D272; opacity:0.4;}</style><defs><g id="allt"><path id="t6917" d="M924,1696 L914,1696 C904,1696 917,1701 908,1701 C900,1702 911,1696 901,1696 L891,1696 891,1696 L891,1706 C891,1717 884,1701 884,1710 C884,1719 891,1707 891,1717 L891,1728 891,1728 L902,1728 C913,1728 896,1721 905,1721 C915,1721 902,1728 913,1728 L924,1728 924,1728 L924,1718 C924,1709 928,1719 928,1712 C928,1705 922,1717 923,1706 L924,1696"/></g><clipPath id="c" clipRule="evenodd" fill="transparent"><use href="#t6917"/></clipPath></defs><svg viewBox="883 1695 46 34" preserveAspectRatio="xMinYMin meet"><svg width="4380" height="2430"><g><image crossorigin="anonymous" x="0" y="0" href="https://nftpuzzle.license-token.com/assets/completepuzzle.svg" width="100%" height="100%" /><g class="links"><use href="#t6917"/></g></g></svg><svg x="914" y="1714" height="9%" width="9%" viewBox="0 0 330 330"><g><a xlink:href="https://nftpuzzle.license-token.com/" class="links"><title>See the most innovative NFT based token software licensing project</title><path fill="#E4CF37" id="more" d="M165,0C74.019,0,0,74.019,0,165s74.019,165,165,165s165-74.019,165-165S255.981,0,165,0z M85,190 c-13.785,0-25-11.215-25-25s11.215-25,25-25s25,11.215,25,25S98.785,190,85,190z M165,190c-13.785,0-25-11.215-25-25 s11.215-25,25-25s25,11.215,25,25S178.785,190,165,190z M245,190c-13.785,0-25-11.215-25-25s11.215-25,25-25 c13.785,0,25,11.215,25,25S258.785,190,245,190z"></path></a></g></svg></svg></svg>