<svg version="1.1" xmlns="http://www.w3.org/2000/svg" xmlns:xlink="http://www.w3.org/1999/xlink" fill="transparent" x="0" y="0" width="350" height="350" preserveAspectRatio="xMinYMin slice"><style type="text/css">.links{fill:transparent;stroke: #E4CF37;}.links:hover{fill:#63D272; opacity:0.4;}</style><defs><g id="allt"><path id="t692" d="M1419,160 L1408,160 C1397,161 1412,157 1403,157 C1394,157 1404,161 1395,160 L1386,160 1386,160 L1384,169 C1382,179 1399,165 1399,175 C1399,185 1386,171 1386,181 L1386,192 1386,192 L1395,190 C1405,188 1391,205 1401,204 C1412,204 1397,192 1408,192 L1419,192 1419,192 L1419,182 C1419,172 1414,182 1411,174 C1409,167 1419,179 1419,169 L1419,160"/></g><clipPath id="c" clipRule="evenodd" fill="transparent"><use href="#t692"/></clipPath></defs><svg viewBox="1381 156 39 50" preserveAspectRatio="xMinYMin meet"><svg width="4380" height="2430"><g><image crossorigin="anonymous" x="0" y="0" href="https://nftpuzzle.license-token.com/assets/completepuzzle.svg" width="100%" height="100%" /><g class="links"><use href="#t692"/></g></g></svg><svg x="1405" y="191" height="9%" width="9%" viewBox="0 0 330 330"><g><a xlink:href="https://nftpuzzle.license-token.com/" class="links"><title>See the most innovative NFT based token software licensing project</title><path fill="#E4CF37" id="more" d="M165,0C74.019,0,0,74.019,0,165s74.019,165,165,165s165-74.019,165-165S255.981,0,165,0z M85,190 c-13.785,0-25-11.215-25-25s11.215-25,25-25s25,11.215,25,25S98.785,190,85,190z M165,190c-13.785,0-25-11.215-25-25 s11.215-25,25-25s25,11.215,25,25S178.785,190,165,190z M245,190c-13.785,0-25-11.215-25-25s11.215-25,25-25 c13.785,0,25,11.215,25,25S258.785,190,245,190z"></path></a></g></svg></svg></svg>