<svg version="1.1" xmlns="http://www.w3.org/2000/svg" xmlns:xlink="http://www.w3.org/1999/xlink" fill="transparent" x="0" y="0" width="350" height="350" preserveAspectRatio="xMinYMin slice"><style type="text/css">.links{fill:transparent;stroke: #E4CF37;}.links:hover{fill:#63D272; opacity:0.4;}</style><defs><g id="allt"><path id="t6920" d="M1023,1696 L1012,1696 C1001,1697 1013,1694 1004,1694 C995,1694 1011,1697 1000,1696 L990,1696 990,1696 L989,1706 C989,1716 994,1701 995,1710 C997,1720 990,1707 990,1717 L990,1728 990,1728 L1000,1727 C1011,1727 995,1732 1005,1733 C1015,1735 1001,1728 1012,1728 L1023,1728 1023,1728 L1024,1717 C1025,1706 1017,1720 1016,1712 C1016,1704 1026,1716 1024,1706 L1023,1696"/></g><clipPath id="c" clipRule="evenodd" fill="transparent"><use href="#t6920"/></clipPath></defs><svg viewBox="988 1693 39 43" preserveAspectRatio="xMinYMin meet"><svg width="4380" height="2430"><g><image crossorigin="anonymous" x="0" y="0" href="https://nftpuzzle.license-token.com/assets/completepuzzle.svg" width="100%" height="100%" /><g class="links"><use href="#t6920"/></g></g></svg><svg x="1012" y="1721" height="9%" width="9%" viewBox="0 0 330 330"><g><a xlink:href="https://nftpuzzle.license-token.com/" class="links"><title>See the most innovative NFT based token software licensing project</title><path fill="#E4CF37" id="more" d="M165,0C74.019,0,0,74.019,0,165s74.019,165,165,165s165-74.019,165-165S255.981,0,165,0z M85,190 c-13.785,0-25-11.215-25-25s11.215-25,25-25s25,11.215,25,25S98.785,190,85,190z M165,190c-13.785,0-25-11.215-25-25 s11.215-25,25-25s25,11.215,25,25S178.785,190,165,190z M245,190c-13.785,0-25-11.215-25-25s11.215-25,25-25 c13.785,0,25,11.215,25,25S258.785,190,245,190z"></path></a></g></svg></svg></svg>