<svg version="1.1" xmlns="http://www.w3.org/2000/svg" xmlns:xlink="http://www.w3.org/1999/xlink" fill="transparent" x="0" y="0" width="350" height="350" preserveAspectRatio="xMinYMin slice"><style type="text/css">.links{fill:transparent;stroke: #E4CF37;}.links:hover{fill:#63D272; opacity:0.4;}</style><defs><g id="allt"><path id="t6921" d="M1056,1696 L1045,1697 C1035,1699 1048,1693 1040,1693 C1032,1693 1044,1698 1033,1697 L1023,1696 1023,1696 L1024,1706 C1026,1716 1016,1704 1016,1712 C1017,1720 1025,1706 1024,1717 L1023,1728 1023,1728 L1033,1729 C1044,1731 1032,1721 1039,1721 C1047,1722 1034,1730 1045,1729 L1056,1728 1056,1728 L1055,1718 C1054,1708 1065,1722 1064,1711 C1064,1701 1053,1714 1054,1705 L1056,1696"/></g><clipPath id="c" clipRule="evenodd" fill="transparent"><use href="#t6921"/></clipPath></defs><svg viewBox="1015 1692 51 40" preserveAspectRatio="xMinYMin meet"><svg width="4380" height="2430"><g><image crossorigin="anonymous" x="0" y="0" href="https://nftpuzzle.license-token.com/assets/completepuzzle.svg" width="100%" height="100%" /><g class="links"><use href="#t6921"/></g></g></svg><svg x="1051" y="1717" height="9%" width="9%" viewBox="0 0 330 330"><g><a xlink:href="https://nftpuzzle.license-token.com/" class="links"><title>See the most innovative NFT based token software licensing project</title><path fill="#E4CF37" id="more" d="M165,0C74.019,0,0,74.019,0,165s74.019,165,165,165s165-74.019,165-165S255.981,0,165,0z M85,190 c-13.785,0-25-11.215-25-25s11.215-25,25-25s25,11.215,25,25S98.785,190,85,190z M165,190c-13.785,0-25-11.215-25-25 s11.215-25,25-25s25,11.215,25,25S178.785,190,165,190z M245,190c-13.785,0-25-11.215-25-25s11.215-25,25-25 c13.785,0,25,11.215,25,25S258.785,190,245,190z"></path></a></g></svg></svg></svg>