<svg version="1.1" xmlns="http://www.w3.org/2000/svg" xmlns:xlink="http://www.w3.org/1999/xlink" fill="transparent" x="0" y="0" width="350" height="350" preserveAspectRatio="xMinYMin slice"><style type="text/css">.links{fill:transparent;stroke: #E4CF37;}.links:hover{fill:#63D272; opacity:0.4;}</style><defs><g id="allt"><path id="t6926" d="M1221,1696 L1211,1697 C1201,1698 1212,1691 1204,1692 C1196,1693 1209,1696 1198,1696 L1188,1696 1188,1696 L1188,1706 C1188,1717 1197,1701 1196,1711 C1195,1722 1184,1710 1186,1719 L1188,1728 1188,1728 L1199,1728 C1210,1728 1193,1736 1204,1735 C1215,1735 1202,1724 1211,1726 L1221,1728 1221,1728 L1220,1717 C1219,1706 1225,1720 1226,1711 C1227,1702 1221,1715 1221,1705 L1221,1696"/></g><clipPath id="c" clipRule="evenodd" fill="transparent"><use href="#t6926"/></clipPath></defs><svg viewBox="1183 1690 45 47" preserveAspectRatio="xMinYMin meet"><svg width="4380" height="2430"><g><image crossorigin="anonymous" x="0" y="0" href="https://nftpuzzle.license-token.com/assets/completepuzzle.svg" width="100%" height="100%" /><g class="links"><use href="#t6926"/></g></g></svg><svg x="1213" y="1722" height="9%" width="9%" viewBox="0 0 330 330"><g><a xlink:href="https://nftpuzzle.license-token.com/" class="links"><title>See the most innovative NFT based token software licensing project</title><path fill="#E4CF37" id="more" d="M165,0C74.019,0,0,74.019,0,165s74.019,165,165,165s165-74.019,165-165S255.981,0,165,0z M85,190 c-13.785,0-25-11.215-25-25s11.215-25,25-25s25,11.215,25,25S98.785,190,85,190z M165,190c-13.785,0-25-11.215-25-25 s11.215-25,25-25s25,11.215,25,25S178.785,190,165,190z M245,190c-13.785,0-25-11.215-25-25s11.215-25,25-25 c13.785,0,25,11.215,25,25S258.785,190,245,190z"></path></a></g></svg></svg></svg>