<svg version="1.1" xmlns="http://www.w3.org/2000/svg" xmlns:xlink="http://www.w3.org/1999/xlink" fill="transparent" x="0" y="0" width="350" height="350" preserveAspectRatio="xMinYMin slice"><style type="text/css">.links{fill:transparent;stroke: #E4CF37;}.links:hover{fill:#63D272; opacity:0.4;}</style><defs><g id="allt"><path id="t6928" d="M1287,1696 L1277,1695 C1267,1694 1277,1706 1268,1706 C1259,1706 1276,1695 1265,1695 L1254,1696 1254,1696 L1254,1706 C1255,1717 1249,1701 1248,1711 C1248,1722 1254,1708 1254,1718 L1254,1728 1254,1728 L1264,1728 C1275,1729 1259,1723 1270,1722 C1281,1722 1267,1728 1277,1728 L1287,1728 1287,1728 L1285,1717 C1284,1707 1295,1719 1296,1710 C1298,1701 1287,1713 1287,1704 L1287,1696"/></g><clipPath id="c" clipRule="evenodd" fill="transparent"><use href="#t6928"/></clipPath></defs><svg viewBox="1247 1693 52 37" preserveAspectRatio="xMinYMin meet"><svg width="4380" height="2430"><g><image crossorigin="anonymous" x="0" y="0" href="https://nftpuzzle.license-token.com/assets/completepuzzle.svg" width="100%" height="100%" /><g class="links"><use href="#t6928"/></g></g></svg><svg x="1284" y="1715" height="9%" width="9%" viewBox="0 0 330 330"><g><a xlink:href="https://nftpuzzle.license-token.com/" class="links"><title>See the most innovative NFT based token software licensing project</title><path fill="#E4CF37" id="more" d="M165,0C74.019,0,0,74.019,0,165s74.019,165,165,165s165-74.019,165-165S255.981,0,165,0z M85,190 c-13.785,0-25-11.215-25-25s11.215-25,25-25s25,11.215,25,25S98.785,190,85,190z M165,190c-13.785,0-25-11.215-25-25 s11.215-25,25-25s25,11.215,25,25S178.785,190,165,190z M245,190c-13.785,0-25-11.215-25-25s11.215-25,25-25 c13.785,0,25,11.215,25,25S258.785,190,245,190z"></path></a></g></svg></svg></svg>