<svg version="1.1" xmlns="http://www.w3.org/2000/svg" xmlns:xlink="http://www.w3.org/1999/xlink" fill="transparent" x="0" y="0" width="350" height="350" preserveAspectRatio="xMinYMin slice"><style type="text/css">.links{fill:transparent;stroke: #E4CF37;}.links:hover{fill:#63D272; opacity:0.4;}</style><defs><g id="allt"><path id="t6930" d="M1353,1696 L1342,1698 C1331,1700 1344,1689 1336,1688 C1328,1688 1338,1698 1329,1697 L1320,1696 1320,1696 L1320,1706 C1320,1717 1313,1704 1312,1712 C1311,1720 1322,1708 1321,1718 L1320,1728 1320,1728 L1331,1728 C1342,1728 1329,1721 1337,1720 C1345,1720 1332,1730 1342,1729 L1353,1728 1353,1728 L1352,1717 C1352,1707 1365,1722 1364,1711 C1364,1701 1348,1716 1350,1706 L1353,1696"/></g><clipPath id="c" clipRule="evenodd" fill="transparent"><use href="#t6930"/></clipPath></defs><svg viewBox="1310 1687 56 44" preserveAspectRatio="xMinYMin meet"><svg width="4380" height="2430"><g><image crossorigin="anonymous" x="0" y="0" href="https://nftpuzzle.license-token.com/assets/completepuzzle.svg" width="100%" height="100%" /><g class="links"><use href="#t6930"/></g></g></svg><svg x="1351" y="1716" height="9%" width="9%" viewBox="0 0 330 330"><g><a xlink:href="https://nftpuzzle.license-token.com/" class="links"><title>See the most innovative NFT based token software licensing project</title><path fill="#E4CF37" id="more" d="M165,0C74.019,0,0,74.019,0,165s74.019,165,165,165s165-74.019,165-165S255.981,0,165,0z M85,190 c-13.785,0-25-11.215-25-25s11.215-25,25-25s25,11.215,25,25S98.785,190,85,190z M165,190c-13.785,0-25-11.215-25-25 s11.215-25,25-25s25,11.215,25,25S178.785,190,165,190z M245,190c-13.785,0-25-11.215-25-25s11.215-25,25-25 c13.785,0,25,11.215,25,25S258.785,190,245,190z"></path></a></g></svg></svg></svg>