<svg version="1.1" xmlns="http://www.w3.org/2000/svg" xmlns:xlink="http://www.w3.org/1999/xlink" fill="transparent" x="0" y="0" width="350" height="350" preserveAspectRatio="xMinYMin slice"><style type="text/css">.links{fill:transparent;stroke: #E4CF37;}.links:hover{fill:#63D272; opacity:0.4;}</style><defs><g id="allt"><path id="t6932" d="M1419,1696 L1409,1696 C1399,1696 1409,1699 1400,1698 C1392,1698 1407,1696 1396,1696 L1386,1696 1386,1696 L1384,1704 C1383,1713 1389,1703 1390,1711 C1392,1719 1386,1709 1386,1718 L1386,1728 1386,1728 L1395,1726 C1404,1725 1393,1731 1401,1732 C1410,1734 1399,1728 1409,1728 L1419,1728 1419,1728 L1416,1718 C1414,1708 1429,1718 1429,1710 C1429,1703 1415,1714 1417,1705 L1419,1696"/></g><clipPath id="c" clipRule="evenodd" fill="transparent"><use href="#t6932"/></clipPath></defs><svg viewBox="1382 1695 48 40" preserveAspectRatio="xMinYMin meet"><svg width="4380" height="2430"><g><image crossorigin="anonymous" x="0" y="0" href="https://nftpuzzle.license-token.com/assets/completepuzzle.svg" width="100%" height="100%" /><g class="links"><use href="#t6932"/></g></g></svg><svg x="1415" y="1720" height="9%" width="9%" viewBox="0 0 330 330"><g><a xlink:href="https://nftpuzzle.license-token.com/" class="links"><title>See the most innovative NFT based token software licensing project</title><path fill="#E4CF37" id="more" d="M165,0C74.019,0,0,74.019,0,165s74.019,165,165,165s165-74.019,165-165S255.981,0,165,0z M85,190 c-13.785,0-25-11.215-25-25s11.215-25,25-25s25,11.215,25,25S98.785,190,85,190z M165,190c-13.785,0-25-11.215-25-25 s11.215-25,25-25s25,11.215,25,25S178.785,190,165,190z M245,190c-13.785,0-25-11.215-25-25s11.215-25,25-25 c13.785,0,25,11.215,25,25S258.785,190,245,190z"></path></a></g></svg></svg></svg>