<svg version="1.1" xmlns="http://www.w3.org/2000/svg" xmlns:xlink="http://www.w3.org/1999/xlink" fill="transparent" x="0" y="0" width="350" height="350" preserveAspectRatio="xMinYMin slice"><style type="text/css">.links{fill:transparent;stroke: #E4CF37;}.links:hover{fill:#63D272; opacity:0.4;}</style><defs><g id="allt"><path id="t694" d="M1485,160 L1474,160 C1464,160 1477,158 1469,157 C1461,156 1471,160 1461,160 L1452,160 1452,160 L1451,170 C1450,181 1457,168 1458,176 C1459,184 1448,171 1450,181 L1452,192 1452,192 L1462,191 C1473,190 1460,197 1468,198 C1477,199 1463,188 1474,190 L1485,192 1485,192 L1485,182 C1486,173 1478,183 1479,175 C1480,168 1486,180 1485,170 L1485,160"/></g><clipPath id="c" clipRule="evenodd" fill="transparent"><use href="#t694"/></clipPath></defs><svg viewBox="1447 155 40 45" preserveAspectRatio="xMinYMin meet"><svg width="4380" height="2430"><g><image crossorigin="anonymous" x="0" y="0" href="https://nftpuzzle.license-token.com/assets/completepuzzle.svg" width="100%" height="100%" /><g class="links"><use href="#t694"/></g></g></svg><svg x="1472" y="185" height="9%" width="9%" viewBox="0 0 330 330"><g><a xlink:href="https://nftpuzzle.license-token.com/" class="links"><title>See the most innovative NFT based token software licensing project</title><path fill="#E4CF37" id="more" d="M165,0C74.019,0,0,74.019,0,165s74.019,165,165,165s165-74.019,165-165S255.981,0,165,0z M85,190 c-13.785,0-25-11.215-25-25s11.215-25,25-25s25,11.215,25,25S98.785,190,85,190z M165,190c-13.785,0-25-11.215-25-25 s11.215-25,25-25s25,11.215,25,25S178.785,190,165,190z M245,190c-13.785,0-25-11.215-25-25s11.215-25,25-25 c13.785,0,25,11.215,25,25S258.785,190,245,190z"></path></a></g></svg></svg></svg>