<svg version="1.1" xmlns="http://www.w3.org/2000/svg" xmlns:xlink="http://www.w3.org/1999/xlink" fill="transparent" x="0" y="0" width="350" height="350" preserveAspectRatio="xMinYMin slice"><style type="text/css">.links{fill:transparent;stroke: #E4CF37;}.links:hover{fill:#63D272; opacity:0.4;}</style><defs><g id="allt"><path id="t6940" d="M1683,1696 L1672,1696 C1662,1696 1673,1699 1663,1699 C1654,1699 1672,1695 1661,1695 L1650,1696 1650,1696 L1651,1705 C1652,1715 1645,1700 1644,1710 C1644,1720 1650,1709 1650,1718 L1650,1728 1650,1728 L1659,1729 C1669,1730 1654,1723 1664,1722 C1675,1722 1663,1728 1673,1728 L1683,1728 1683,1728 L1682,1717 C1682,1707 1690,1721 1689,1712 C1688,1703 1683,1714 1683,1705 L1683,1696"/></g><clipPath id="c" clipRule="evenodd" fill="transparent"><use href="#t6940"/></clipPath></defs><svg viewBox="1643 1694 48 37" preserveAspectRatio="xMinYMin meet"><svg width="4380" height="2430"><g><image crossorigin="anonymous" x="0" y="0" href="https://nftpuzzle.license-token.com/assets/completepuzzle.svg" width="100%" height="100%" /><g class="links"><use href="#t6940"/></g></g></svg><svg x="1676" y="1716" height="9%" width="9%" viewBox="0 0 330 330"><g><a xlink:href="https://nftpuzzle.license-token.com/" class="links"><title>See the most innovative NFT based token software licensing project</title><path fill="#E4CF37" id="more" d="M165,0C74.019,0,0,74.019,0,165s74.019,165,165,165s165-74.019,165-165S255.981,0,165,0z M85,190 c-13.785,0-25-11.215-25-25s11.215-25,25-25s25,11.215,25,25S98.785,190,85,190z M165,190c-13.785,0-25-11.215-25-25 s11.215-25,25-25s25,11.215,25,25S178.785,190,165,190z M245,190c-13.785,0-25-11.215-25-25s11.215-25,25-25 c13.785,0,25,11.215,25,25S258.785,190,245,190z"></path></a></g></svg></svg></svg>