<svg version="1.1" xmlns="http://www.w3.org/2000/svg" xmlns:xlink="http://www.w3.org/1999/xlink" fill="transparent" x="0" y="0" width="350" height="350" preserveAspectRatio="xMinYMin slice"><style type="text/css">.links{fill:transparent;stroke: #E4CF37;}.links:hover{fill:#63D272; opacity:0.4;}</style><defs><g id="allt"><path id="t6942" d="M1749,1696 L1739,1696 C1729,1696 1739,1702 1732,1702 C1725,1702 1734,1694 1725,1695 L1716,1696 1716,1696 L1718,1704 C1720,1713 1707,1701 1705,1711 C1704,1722 1716,1707 1716,1717 L1716,1728 1716,1728 L1725,1730 C1734,1732 1721,1720 1732,1718 C1743,1716 1728,1728 1738,1728 L1749,1728 1749,1728 L1749,1717 C1749,1706 1741,1721 1742,1712 C1744,1704 1752,1715 1750,1705 L1749,1696"/></g><clipPath id="c" clipRule="evenodd" fill="transparent"><use href="#t6942"/></clipPath></defs><svg viewBox="1703 1693 50 40" preserveAspectRatio="xMinYMin meet"><svg width="4380" height="2430"><g><image crossorigin="anonymous" x="0" y="0" href="https://nftpuzzle.license-token.com/assets/completepuzzle.svg" width="100%" height="100%" /><g class="links"><use href="#t6942"/></g></g></svg><svg x="1738" y="1718" height="9%" width="9%" viewBox="0 0 330 330"><g><a xlink:href="https://nftpuzzle.license-token.com/" class="links"><title>See the most innovative NFT based token software licensing project</title><path fill="#E4CF37" id="more" d="M165,0C74.019,0,0,74.019,0,165s74.019,165,165,165s165-74.019,165-165S255.981,0,165,0z M85,190 c-13.785,0-25-11.215-25-25s11.215-25,25-25s25,11.215,25,25S98.785,190,85,190z M165,190c-13.785,0-25-11.215-25-25 s11.215-25,25-25s25,11.215,25,25S178.785,190,165,190z M245,190c-13.785,0-25-11.215-25-25s11.215-25,25-25 c13.785,0,25,11.215,25,25S258.785,190,245,190z"></path></a></g></svg></svg></svg>