<svg version="1.1" xmlns="http://www.w3.org/2000/svg" xmlns:xlink="http://www.w3.org/1999/xlink" fill="transparent" x="0" y="0" width="350" height="350" preserveAspectRatio="xMinYMin slice"><style type="text/css">.links{fill:transparent;stroke: #E4CF37;}.links:hover{fill:#63D272; opacity:0.4;}</style><defs><g id="allt"><path id="t6946" d="M1881,1696 L1871,1696 C1861,1696 1871,1690 1862,1691 C1853,1693 1866,1696 1857,1696 L1848,1696 1848,1696 L1846,1705 C1844,1715 1855,1704 1854,1713 C1854,1722 1847,1710 1847,1719 L1848,1728 1848,1728 L1858,1726 C1868,1724 1856,1735 1865,1734 C1875,1734 1862,1727 1871,1727 L1881,1728 1881,1728 L1882,1718 C1883,1709 1877,1721 1878,1711 C1879,1702 1881,1714 1881,1705 L1881,1696"/></g><clipPath id="c" clipRule="evenodd" fill="transparent"><use href="#t6946"/></clipPath></defs><svg viewBox="1843 1689 41 47" preserveAspectRatio="xMinYMin meet"><svg width="4380" height="2430"><g><image crossorigin="anonymous" x="0" y="0" href="https://nftpuzzle.license-token.com/assets/completepuzzle.svg" width="100%" height="100%" /><g class="links"><use href="#t6946"/></g></g></svg><svg x="1869" y="1721" height="9%" width="9%" viewBox="0 0 330 330"><g><a xlink:href="https://nftpuzzle.license-token.com/" class="links"><title>See the most innovative NFT based token software licensing project</title><path fill="#E4CF37" id="more" d="M165,0C74.019,0,0,74.019,0,165s74.019,165,165,165s165-74.019,165-165S255.981,0,165,0z M85,190 c-13.785,0-25-11.215-25-25s11.215-25,25-25s25,11.215,25,25S98.785,190,85,190z M165,190c-13.785,0-25-11.215-25-25 s11.215-25,25-25s25,11.215,25,25S178.785,190,165,190z M245,190c-13.785,0-25-11.215-25-25s11.215-25,25-25 c13.785,0,25,11.215,25,25S258.785,190,245,190z"></path></a></g></svg></svg></svg>