<svg version="1.1" xmlns="http://www.w3.org/2000/svg" xmlns:xlink="http://www.w3.org/1999/xlink" fill="transparent" x="0" y="0" width="350" height="350" preserveAspectRatio="xMinYMin slice"><style type="text/css">.links{fill:transparent;stroke: #E4CF37;}.links:hover{fill:#63D272; opacity:0.4;}</style><defs><g id="allt"><path id="t6947" d="M1914,1696 L1904,1696 C1895,1696 1907,1701 1896,1701 C1886,1702 1900,1696 1890,1696 L1881,1696 1881,1696 L1881,1705 C1881,1714 1879,1702 1878,1711 C1877,1721 1883,1709 1882,1718 L1881,1728 1881,1728 L1890,1728 C1900,1728 1887,1726 1897,1725 C1907,1724 1895,1730 1904,1729 L1914,1728 1914,1728 L1916,1719 C1918,1710 1901,1721 1904,1711 C1908,1701 1919,1713 1916,1704 L1914,1696"/></g><clipPath id="c" clipRule="evenodd" fill="transparent"><use href="#t6947"/></clipPath></defs><svg viewBox="1876 1695 44 36" preserveAspectRatio="xMinYMin meet"><svg width="4380" height="2430"><g><image crossorigin="anonymous" x="0" y="0" href="https://nftpuzzle.license-token.com/assets/completepuzzle.svg" width="100%" height="100%" /><g class="links"><use href="#t6947"/></g></g></svg><svg x="1905" y="1716" height="9%" width="9%" viewBox="0 0 330 330"><g><a xlink:href="https://nftpuzzle.license-token.com/" class="links"><title>See the most innovative NFT based token software licensing project</title><path fill="#E4CF37" id="more" d="M165,0C74.019,0,0,74.019,0,165s74.019,165,165,165s165-74.019,165-165S255.981,0,165,0z M85,190 c-13.785,0-25-11.215-25-25s11.215-25,25-25s25,11.215,25,25S98.785,190,85,190z M165,190c-13.785,0-25-11.215-25-25 s11.215-25,25-25s25,11.215,25,25S178.785,190,165,190z M245,190c-13.785,0-25-11.215-25-25s11.215-25,25-25 c13.785,0,25,11.215,25,25S258.785,190,245,190z"></path></a></g></svg></svg></svg>