<svg version="1.1" xmlns="http://www.w3.org/2000/svg" xmlns:xlink="http://www.w3.org/1999/xlink" fill="transparent" x="0" y="0" width="350" height="350" preserveAspectRatio="xMinYMin slice"><style type="text/css">.links{fill:transparent;stroke: #E4CF37;}.links:hover{fill:#63D272; opacity:0.4;}</style><defs><g id="allt"><path id="t6948" d="M1947,1696 L1937,1694 C1927,1693 1938,1701 1928,1704 C1919,1707 1935,1692 1924,1694 L1914,1696 1914,1696 L1916,1704 C1919,1713 1908,1701 1904,1711 C1901,1721 1918,1710 1916,1719 L1914,1728 1914,1728 L1923,1730 C1932,1733 1919,1722 1929,1718 C1940,1715 1928,1732 1937,1730 L1947,1728 1947,1728 L1947,1718 C1947,1709 1938,1719 1939,1712 C1941,1705 1947,1715 1947,1705 L1947,1696"/></g><clipPath id="c" clipRule="evenodd" fill="transparent"><use href="#t6948"/></clipPath></defs><svg viewBox="1900 1691 48 43" preserveAspectRatio="xMinYMin meet"><svg width="4380" height="2430"><g><image crossorigin="anonymous" x="0" y="0" href="https://nftpuzzle.license-token.com/assets/completepuzzle.svg" width="100%" height="100%" /><g class="links"><use href="#t6948"/></g></g></svg><svg x="1933" y="1719" height="9%" width="9%" viewBox="0 0 330 330"><g><a xlink:href="https://nftpuzzle.license-token.com/" class="links"><title>See the most innovative NFT based token software licensing project</title><path fill="#E4CF37" id="more" d="M165,0C74.019,0,0,74.019,0,165s74.019,165,165,165s165-74.019,165-165S255.981,0,165,0z M85,190 c-13.785,0-25-11.215-25-25s11.215-25,25-25s25,11.215,25,25S98.785,190,85,190z M165,190c-13.785,0-25-11.215-25-25 s11.215-25,25-25s25,11.215,25,25S178.785,190,165,190z M245,190c-13.785,0-25-11.215-25-25s11.215-25,25-25 c13.785,0,25,11.215,25,25S258.785,190,245,190z"></path></a></g></svg></svg></svg>