<svg version="1.1" xmlns="http://www.w3.org/2000/svg" xmlns:xlink="http://www.w3.org/1999/xlink" fill="transparent" x="0" y="0" width="350" height="350" preserveAspectRatio="xMinYMin slice"><style type="text/css">.links{fill:transparent;stroke: #E4CF37;}.links:hover{fill:#63D272; opacity:0.4;}</style><defs><g id="allt"><path id="t695" d="M1518,160 L1508,158 C1498,156 1508,166 1500,165 C1493,165 1504,160 1494,160 L1485,160 1485,160 L1485,170 C1486,180 1480,168 1479,175 C1478,183 1486,173 1485,182 L1485,192 1485,192 L1495,192 C1506,193 1494,187 1501,186 C1509,185 1498,193 1508,192 L1518,192 1518,192 L1518,182 C1518,173 1514,184 1514,174 C1514,165 1518,177 1518,168 L1518,160"/></g><clipPath id="c" clipRule="evenodd" fill="transparent"><use href="#t695"/></clipPath></defs><svg viewBox="1477 155 42 39" preserveAspectRatio="xMinYMin meet"><svg width="4380" height="2430"><g><image crossorigin="anonymous" x="0" y="0" href="https://nftpuzzle.license-token.com/assets/completepuzzle.svg" width="100%" height="100%" /><g class="links"><use href="#t695"/></g></g></svg><svg x="1504" y="179" height="9%" width="9%" viewBox="0 0 330 330"><g><a xlink:href="https://nftpuzzle.license-token.com/" class="links"><title>See the most innovative NFT based token software licensing project</title><path fill="#E4CF37" id="more" d="M165,0C74.019,0,0,74.019,0,165s74.019,165,165,165s165-74.019,165-165S255.981,0,165,0z M85,190 c-13.785,0-25-11.215-25-25s11.215-25,25-25s25,11.215,25,25S98.785,190,85,190z M165,190c-13.785,0-25-11.215-25-25 s11.215-25,25-25s25,11.215,25,25S178.785,190,165,190z M245,190c-13.785,0-25-11.215-25-25s11.215-25,25-25 c13.785,0,25,11.215,25,25S258.785,190,245,190z"></path></a></g></svg></svg></svg>