<svg version="1.1" xmlns="http://www.w3.org/2000/svg" xmlns:xlink="http://www.w3.org/1999/xlink" fill="transparent" x="0" y="0" width="350" height="350" preserveAspectRatio="xMinYMin slice"><style type="text/css">.links{fill:transparent;stroke: #E4CF37;}.links:hover{fill:#63D272; opacity:0.4;}</style><defs><g id="allt"><path id="t6950" d="M2013,1696 L2002,1696 C1992,1696 2006,1700 1996,1700 C1986,1701 1999,1696 1989,1696 L1980,1696 1980,1696 L1980,1705 C1980,1715 1975,1704 1976,1711 C1977,1718 1981,1706 1980,1717 L1980,1728 1980,1728 L1989,1728 C1999,1728 1988,1723 1995,1724 C2003,1725 1990,1729 2001,1728 L2013,1728 2013,1728 L2012,1718 C2012,1709 2020,1718 2020,1711 C2020,1705 2011,1714 2012,1705 L2013,1696"/></g><clipPath id="c" clipRule="evenodd" fill="transparent"><use href="#t6950"/></clipPath></defs><svg viewBox="1974 1695 47 35" preserveAspectRatio="xMinYMin meet"><svg width="4380" height="2430"><g><image crossorigin="anonymous" x="0" y="0" href="https://nftpuzzle.license-token.com/assets/completepuzzle.svg" width="100%" height="100%" /><g class="links"><use href="#t6950"/></g></g></svg><svg x="2006" y="1715" height="9%" width="9%" viewBox="0 0 330 330"><g><a xlink:href="https://nftpuzzle.license-token.com/" class="links"><title>See the most innovative NFT based token software licensing project</title><path fill="#E4CF37" id="more" d="M165,0C74.019,0,0,74.019,0,165s74.019,165,165,165s165-74.019,165-165S255.981,0,165,0z M85,190 c-13.785,0-25-11.215-25-25s11.215-25,25-25s25,11.215,25,25S98.785,190,85,190z M165,190c-13.785,0-25-11.215-25-25 s11.215-25,25-25s25,11.215,25,25S178.785,190,165,190z M245,190c-13.785,0-25-11.215-25-25s11.215-25,25-25 c13.785,0,25,11.215,25,25S258.785,190,245,190z"></path></a></g></svg></svg></svg>