<svg version="1.1" xmlns="http://www.w3.org/2000/svg" xmlns:xlink="http://www.w3.org/1999/xlink" fill="transparent" x="0" y="0" width="350" height="350" preserveAspectRatio="xMinYMin slice"><style type="text/css">.links{fill:transparent;stroke: #E4CF37;}.links:hover{fill:#63D272; opacity:0.4;}</style><defs><g id="allt"><path id="t6954" d="M2145,1696 L2134,1696 C2123,1696 2139,1687 2129,1687 C2119,1687 2133,1701 2122,1698 L2112,1696 2112,1696 L2112,1704 C2112,1713 2107,1704 2108,1711 C2110,1719 2112,1708 2112,1718 L2112,1728 2112,1728 L2121,1728 C2130,1728 2120,1723 2128,1724 C2136,1726 2125,1728 2135,1728 L2145,1728 2145,1728 L2145,1717 C2145,1707 2152,1720 2152,1712 C2152,1705 2142,1716 2143,1706 L2145,1696"/></g><clipPath id="c" clipRule="evenodd" fill="transparent"><use href="#t6954"/></clipPath></defs><svg viewBox="2106 1686 47 43" preserveAspectRatio="xMinYMin meet"><svg width="4380" height="2430"><g><image crossorigin="anonymous" x="0" y="0" href="https://nftpuzzle.license-token.com/assets/completepuzzle.svg" width="100%" height="100%" /><g class="links"><use href="#t6954"/></g></g></svg><svg x="2138" y="1714" height="9%" width="9%" viewBox="0 0 330 330"><g><a xlink:href="https://nftpuzzle.license-token.com/" class="links"><title>See the most innovative NFT based token software licensing project</title><path fill="#E4CF37" id="more" d="M165,0C74.019,0,0,74.019,0,165s74.019,165,165,165s165-74.019,165-165S255.981,0,165,0z M85,190 c-13.785,0-25-11.215-25-25s11.215-25,25-25s25,11.215,25,25S98.785,190,85,190z M165,190c-13.785,0-25-11.215-25-25 s11.215-25,25-25s25,11.215,25,25S178.785,190,165,190z M245,190c-13.785,0-25-11.215-25-25s11.215-25,25-25 c13.785,0,25,11.215,25,25S258.785,190,245,190z"></path></a></g></svg></svg></svg>