<svg version="1.1" xmlns="http://www.w3.org/2000/svg" xmlns:xlink="http://www.w3.org/1999/xlink" fill="transparent" x="0" y="0" width="350" height="350" preserveAspectRatio="xMinYMin slice"><style type="text/css">.links{fill:transparent;stroke: #E4CF37;}.links:hover{fill:#63D272; opacity:0.4;}</style><defs><g id="allt"><path id="t696" d="M1551,160 L1540,161 C1530,163 1541,153 1532,152 C1523,151 1536,160 1527,160 L1518,160 1518,160 L1518,168 C1518,177 1514,165 1514,174 C1514,184 1518,173 1518,182 L1518,192 1518,192 L1527,192 C1536,192 1523,188 1533,188 C1543,188 1531,192 1541,192 L1551,192 1551,192 L1551,181 C1551,171 1545,183 1545,174 C1545,166 1557,180 1554,170 L1551,160"/></g><clipPath id="c" clipRule="evenodd" fill="transparent"><use href="#t696"/></clipPath></defs><svg viewBox="1513 150 45 43" preserveAspectRatio="xMinYMin meet"><svg width="4380" height="2430"><g><image crossorigin="anonymous" x="0" y="0" href="https://nftpuzzle.license-token.com/assets/completepuzzle.svg" width="100%" height="100%" /><g class="links"><use href="#t696"/></g></g></svg><svg x="1543" y="178" height="9%" width="9%" viewBox="0 0 330 330"><g><a xlink:href="https://nftpuzzle.license-token.com/" class="links"><title>See the most innovative NFT based token software licensing project</title><path fill="#E4CF37" id="more" d="M165,0C74.019,0,0,74.019,0,165s74.019,165,165,165s165-74.019,165-165S255.981,0,165,0z M85,190 c-13.785,0-25-11.215-25-25s11.215-25,25-25s25,11.215,25,25S98.785,190,85,190z M165,190c-13.785,0-25-11.215-25-25 s11.215-25,25-25s25,11.215,25,25S178.785,190,165,190z M245,190c-13.785,0-25-11.215-25-25s11.215-25,25-25 c13.785,0,25,11.215,25,25S258.785,190,245,190z"></path></a></g></svg></svg></svg>