<svg version="1.1" xmlns="http://www.w3.org/2000/svg" xmlns:xlink="http://www.w3.org/1999/xlink" fill="transparent" x="0" y="0" width="350" height="350" preserveAspectRatio="xMinYMin slice"><style type="text/css">.links{fill:transparent;stroke: #E4CF37;}.links:hover{fill:#63D272; opacity:0.4;}</style><defs><g id="allt"><path id="t6960" d="M2343,1696 L2331,1696 C2320,1697 2337,1692 2328,1692 C2319,1693 2329,1697 2319,1696 L2310,1696 2310,1696 L2310,1704 C2310,1713 2318,1701 2317,1711 C2317,1722 2306,1709 2308,1718 L2310,1728 2310,1728 L2319,1728 C2328,1728 2315,1736 2326,1735 C2337,1735 2324,1724 2333,1726 L2343,1728 2343,1728 L2343,1718 C2344,1708 2333,1719 2332,1710 C2331,1701 2347,1715 2345,1705 L2343,1696"/></g><clipPath id="c" clipRule="evenodd" fill="transparent"><use href="#t6960"/></clipPath></defs><svg viewBox="2305 1691 43 46" preserveAspectRatio="xMinYMin meet"><svg width="4380" height="2430"><g><image crossorigin="anonymous" x="0" y="0" href="https://nftpuzzle.license-token.com/assets/completepuzzle.svg" width="100%" height="100%" /><g class="links"><use href="#t6960"/></g></g></svg><svg x="2333" y="1722" height="9%" width="9%" viewBox="0 0 330 330"><g><a xlink:href="https://nftpuzzle.license-token.com/" class="links"><title>See the most innovative NFT based token software licensing project</title><path fill="#E4CF37" id="more" d="M165,0C74.019,0,0,74.019,0,165s74.019,165,165,165s165-74.019,165-165S255.981,0,165,0z M85,190 c-13.785,0-25-11.215-25-25s11.215-25,25-25s25,11.215,25,25S98.785,190,85,190z M165,190c-13.785,0-25-11.215-25-25 s11.215-25,25-25s25,11.215,25,25S178.785,190,165,190z M245,190c-13.785,0-25-11.215-25-25s11.215-25,25-25 c13.785,0,25,11.215,25,25S258.785,190,245,190z"></path></a></g></svg></svg></svg>