<svg version="1.1" xmlns="http://www.w3.org/2000/svg" xmlns:xlink="http://www.w3.org/1999/xlink" fill="transparent" x="0" y="0" width="350" height="350" preserveAspectRatio="xMinYMin slice"><style type="text/css">.links{fill:transparent;stroke: #E4CF37;}.links:hover{fill:#63D272; opacity:0.4;}</style><defs><g id="allt"><path id="t6965" d="M2508,1696 L2497,1696 C2486,1697 2501,1690 2491,1689 C2481,1688 2495,1696 2485,1696 L2475,1696 2475,1696 L2475,1704 C2475,1713 2470,1704 2470,1712 C2471,1721 2476,1707 2475,1717 L2475,1728 2475,1728 L2484,1728 C2493,1728 2483,1723 2492,1723 C2501,1724 2486,1729 2497,1728 L2508,1728 2508,1728 L2508,1719 C2508,1710 2506,1723 2504,1712 C2503,1702 2508,1714 2508,1705 L2508,1696"/></g><clipPath id="c" clipRule="evenodd" fill="transparent"><use href="#t6965"/></clipPath></defs><svg viewBox="2469 1687 40 43" preserveAspectRatio="xMinYMin meet"><svg width="4380" height="2430"><g><image crossorigin="anonymous" x="0" y="0" href="https://nftpuzzle.license-token.com/assets/completepuzzle.svg" width="100%" height="100%" /><g class="links"><use href="#t6965"/></g></g></svg><svg x="2494" y="1715" height="9%" width="9%" viewBox="0 0 330 330"><g><a xlink:href="https://nftpuzzle.license-token.com/" class="links"><title>See the most innovative NFT based token software licensing project</title><path fill="#E4CF37" id="more" d="M165,0C74.019,0,0,74.019,0,165s74.019,165,165,165s165-74.019,165-165S255.981,0,165,0z M85,190 c-13.785,0-25-11.215-25-25s11.215-25,25-25s25,11.215,25,25S98.785,190,85,190z M165,190c-13.785,0-25-11.215-25-25 s11.215-25,25-25s25,11.215,25,25S178.785,190,165,190z M245,190c-13.785,0-25-11.215-25-25s11.215-25,25-25 c13.785,0,25,11.215,25,25S258.785,190,245,190z"></path></a></g></svg></svg></svg>