<svg version="1.1" xmlns="http://www.w3.org/2000/svg" xmlns:xlink="http://www.w3.org/1999/xlink" fill="transparent" x="0" y="0" width="350" height="350" preserveAspectRatio="xMinYMin slice"><style type="text/css">.links{fill:transparent;stroke: #E4CF37;}.links:hover{fill:#63D272; opacity:0.4;}</style><defs><g id="allt"><path id="t6966" d="M2541,1696 L2530,1696 C2519,1696 2534,1689 2525,1688 C2516,1688 2528,1697 2518,1696 L2508,1696 2508,1696 L2508,1705 C2508,1714 2503,1702 2504,1712 C2506,1723 2508,1710 2508,1719 L2508,1728 2508,1728 L2517,1728 C2526,1728 2514,1723 2525,1724 C2536,1726 2522,1728 2531,1728 L2541,1728 2541,1728 L2541,1718 C2542,1708 2536,1721 2536,1712 C2536,1704 2541,1717 2541,1706 L2541,1696"/></g><clipPath id="c" clipRule="evenodd" fill="transparent"><use href="#t6966"/></clipPath></defs><svg viewBox="2502 1687 41 42" preserveAspectRatio="xMinYMin meet"><svg width="4380" height="2430"><g><image crossorigin="anonymous" x="0" y="0" href="https://nftpuzzle.license-token.com/assets/completepuzzle.svg" width="100%" height="100%" /><g class="links"><use href="#t6966"/></g></g></svg><svg x="2528" y="1714" height="9%" width="9%" viewBox="0 0 330 330"><g><a xlink:href="https://nftpuzzle.license-token.com/" class="links"><title>See the most innovative NFT based token software licensing project</title><path fill="#E4CF37" id="more" d="M165,0C74.019,0,0,74.019,0,165s74.019,165,165,165s165-74.019,165-165S255.981,0,165,0z M85,190 c-13.785,0-25-11.215-25-25s11.215-25,25-25s25,11.215,25,25S98.785,190,85,190z M165,190c-13.785,0-25-11.215-25-25 s11.215-25,25-25s25,11.215,25,25S178.785,190,165,190z M245,190c-13.785,0-25-11.215-25-25s11.215-25,25-25 c13.785,0,25,11.215,25,25S258.785,190,245,190z"></path></a></g></svg></svg></svg>