<svg version="1.1" xmlns="http://www.w3.org/2000/svg" xmlns:xlink="http://www.w3.org/1999/xlink" fill="transparent" x="0" y="0" width="350" height="350" preserveAspectRatio="xMinYMin slice"><style type="text/css">.links{fill:transparent;stroke: #E4CF37;}.links:hover{fill:#63D272; opacity:0.4;}</style><defs><g id="allt"><path id="t6971" d="M2706,1696 L2695,1696 C2685,1696 2697,1691 2687,1689 C2678,1688 2691,1697 2682,1696 L2673,1696 2673,1696 L2675,1704 C2678,1713 2663,1704 2665,1713 C2668,1722 2673,1708 2673,1718 L2673,1728 2673,1728 L2682,1730 C2691,1733 2681,1718 2690,1720 C2700,1723 2686,1728 2696,1728 L2706,1728 2706,1728 L2707,1718 C2709,1708 2700,1722 2699,1711 C2698,1701 2706,1717 2706,1706 L2706,1696"/></g><clipPath id="c" clipRule="evenodd" fill="transparent"><use href="#t6971"/></clipPath></defs><svg viewBox="2662 1687 48 47" preserveAspectRatio="xMinYMin meet"><svg width="4380" height="2430"><g><image crossorigin="anonymous" x="0" y="0" href="https://nftpuzzle.license-token.com/assets/completepuzzle.svg" width="100%" height="100%" /><g class="links"><use href="#t6971"/></g></g></svg><svg x="2695" y="1719" height="9%" width="9%" viewBox="0 0 330 330"><g><a xlink:href="https://nftpuzzle.license-token.com/" class="links"><title>See the most innovative NFT based token software licensing project</title><path fill="#E4CF37" id="more" d="M165,0C74.019,0,0,74.019,0,165s74.019,165,165,165s165-74.019,165-165S255.981,0,165,0z M85,190 c-13.785,0-25-11.215-25-25s11.215-25,25-25s25,11.215,25,25S98.785,190,85,190z M165,190c-13.785,0-25-11.215-25-25 s11.215-25,25-25s25,11.215,25,25S178.785,190,165,190z M245,190c-13.785,0-25-11.215-25-25s11.215-25,25-25 c13.785,0,25,11.215,25,25S258.785,190,245,190z"></path></a></g></svg></svg></svg>