<svg version="1.1" xmlns="http://www.w3.org/2000/svg" xmlns:xlink="http://www.w3.org/1999/xlink" fill="transparent" x="0" y="0" width="350" height="350" preserveAspectRatio="xMinYMin slice"><style type="text/css">.links{fill:transparent;stroke: #E4CF37;}.links:hover{fill:#63D272; opacity:0.4;}</style><defs><g id="allt"><path id="t6972" d="M2739,1696 L2728,1696 C2717,1696 2732,1693 2723,1693 C2714,1694 2727,1697 2716,1696 L2706,1696 2706,1696 L2706,1706 C2706,1717 2698,1701 2699,1711 C2700,1722 2709,1708 2707,1718 L2706,1728 2706,1728 L2717,1728 C2728,1728 2711,1720 2722,1721 C2733,1722 2718,1731 2728,1729 L2739,1728 2739,1728 L2739,1718 C2740,1709 2734,1721 2735,1712 C2736,1704 2739,1714 2739,1705 L2739,1696"/></g><clipPath id="c" clipRule="evenodd" fill="transparent"><use href="#t6972"/></clipPath></defs><svg viewBox="2697 1692 44 40" preserveAspectRatio="xMinYMin meet"><svg width="4380" height="2430"><g><image crossorigin="anonymous" x="0" y="0" href="https://nftpuzzle.license-token.com/assets/completepuzzle.svg" width="100%" height="100%" /><g class="links"><use href="#t6972"/></g></g></svg><svg x="2726" y="1717" height="9%" width="9%" viewBox="0 0 330 330"><g><a xlink:href="https://nftpuzzle.license-token.com/" class="links"><title>See the most innovative NFT based token software licensing project</title><path fill="#E4CF37" id="more" d="M165,0C74.019,0,0,74.019,0,165s74.019,165,165,165s165-74.019,165-165S255.981,0,165,0z M85,190 c-13.785,0-25-11.215-25-25s11.215-25,25-25s25,11.215,25,25S98.785,190,85,190z M165,190c-13.785,0-25-11.215-25-25 s11.215-25,25-25s25,11.215,25,25S178.785,190,165,190z M245,190c-13.785,0-25-11.215-25-25s11.215-25,25-25 c13.785,0,25,11.215,25,25S258.785,190,245,190z"></path></a></g></svg></svg></svg>