<svg version="1.1" xmlns="http://www.w3.org/2000/svg" xmlns:xlink="http://www.w3.org/1999/xlink" fill="transparent" x="0" y="0" width="350" height="350" preserveAspectRatio="xMinYMin slice"><style type="text/css">.links{fill:transparent;stroke: #E4CF37;}.links:hover{fill:#63D272; opacity:0.4;}</style><defs><g id="allt"><path id="t6981" d="M3036,1696 L3025,1696 C3015,1696 3027,1689 3017,1691 C3008,1693 3021,1697 3012,1696 L3003,1696 3003,1696 L3003,1706 C3003,1716 3009,1704 3008,1712 C3007,1721 3003,1707 3003,1717 L3003,1728 3003,1728 L3013,1728 C3023,1728 3012,1734 3020,1733 C3029,1732 3014,1728 3025,1728 L3036,1728 3036,1728 L3036,1718 C3036,1708 3033,1719 3033,1711 C3033,1703 3037,1716 3036,1706 L3036,1696"/></g><clipPath id="c" clipRule="evenodd" fill="transparent"><use href="#t6981"/></clipPath></defs><svg viewBox="3002 1688 36 47" preserveAspectRatio="xMinYMin meet"><svg width="4380" height="2430"><g><image crossorigin="anonymous" x="0" y="0" href="https://nftpuzzle.license-token.com/assets/completepuzzle.svg" width="100%" height="100%" /><g class="links"><use href="#t6981"/></g></g></svg><svg x="3023" y="1720" height="9%" width="9%" viewBox="0 0 330 330"><g><a xlink:href="https://nftpuzzle.license-token.com/" class="links"><title>See the most innovative NFT based token software licensing project</title><path fill="#E4CF37" id="more" d="M165,0C74.019,0,0,74.019,0,165s74.019,165,165,165s165-74.019,165-165S255.981,0,165,0z M85,190 c-13.785,0-25-11.215-25-25s11.215-25,25-25s25,11.215,25,25S98.785,190,85,190z M165,190c-13.785,0-25-11.215-25-25 s11.215-25,25-25s25,11.215,25,25S178.785,190,165,190z M245,190c-13.785,0-25-11.215-25-25s11.215-25,25-25 c13.785,0,25,11.215,25,25S258.785,190,245,190z"></path></a></g></svg></svg></svg>