<svg version="1.1" xmlns="http://www.w3.org/2000/svg" xmlns:xlink="http://www.w3.org/1999/xlink" fill="transparent" x="0" y="0" width="350" height="350" preserveAspectRatio="xMinYMin slice"><style type="text/css">.links{fill:transparent;stroke: #E4CF37;}.links:hover{fill:#63D272; opacity:0.4;}</style><defs><g id="allt"><path id="t6985" d="M3168,1696 L3158,1696 C3149,1696 3158,1691 3149,1691 C3140,1691 3154,1700 3144,1698 L3135,1696 3135,1696 L3135,1706 C3135,1716 3137,1703 3138,1710 C3139,1718 3133,1707 3134,1717 L3135,1728 3135,1728 L3145,1728 C3156,1728 3142,1730 3150,1731 C3158,1732 3147,1726 3157,1727 L3168,1728 3168,1728 L3168,1717 C3168,1707 3161,1722 3162,1713 C3164,1704 3168,1713 3168,1704 L3168,1696"/></g><clipPath id="c" clipRule="evenodd" fill="transparent"><use href="#t6985"/></clipPath></defs><svg viewBox="3132 1690 37 43" preserveAspectRatio="xMinYMin meet"><svg width="4380" height="2430"><g><image crossorigin="anonymous" x="0" y="0" href="https://nftpuzzle.license-token.com/assets/completepuzzle.svg" width="100%" height="100%" /><g class="links"><use href="#t6985"/></g></g></svg><svg x="3154" y="1718" height="9%" width="9%" viewBox="0 0 330 330"><g><a xlink:href="https://nftpuzzle.license-token.com/" class="links"><title>See the most innovative NFT based token software licensing project</title><path fill="#E4CF37" id="more" d="M165,0C74.019,0,0,74.019,0,165s74.019,165,165,165s165-74.019,165-165S255.981,0,165,0z M85,190 c-13.785,0-25-11.215-25-25s11.215-25,25-25s25,11.215,25,25S98.785,190,85,190z M165,190c-13.785,0-25-11.215-25-25 s11.215-25,25-25s25,11.215,25,25S178.785,190,165,190z M245,190c-13.785,0-25-11.215-25-25s11.215-25,25-25 c13.785,0,25,11.215,25,25S258.785,190,245,190z"></path></a></g></svg></svg></svg>