<svg version="1.1" xmlns="http://www.w3.org/2000/svg" xmlns:xlink="http://www.w3.org/1999/xlink" fill="transparent" x="0" y="0" width="350" height="350" preserveAspectRatio="xMinYMin slice"><style type="text/css">.links{fill:transparent;stroke: #E4CF37;}.links:hover{fill:#63D272; opacity:0.4;}</style><defs><g id="allt"><path id="t6986" d="M3201,1696 L3190,1696 C3179,1696 3194,1692 3184,1692 C3174,1692 3189,1698 3178,1697 L3168,1696 3168,1696 L3168,1704 C3168,1713 3164,1704 3162,1713 C3161,1722 3168,1707 3168,1717 L3168,1728 3168,1728 L3177,1728 C3186,1728 3176,1724 3185,1722 C3195,1721 3180,1728 3190,1728 L3201,1728 3201,1728 L3201,1717 C3201,1706 3203,1718 3203,1710 C3204,1703 3201,1714 3201,1705 L3201,1696"/></g><clipPath id="c" clipRule="evenodd" fill="transparent"><use href="#t6986"/></clipPath></defs><svg viewBox="3160 1691 45 38" preserveAspectRatio="xMinYMin meet"><svg width="4380" height="2430"><g><image crossorigin="anonymous" x="0" y="0" href="https://nftpuzzle.license-token.com/assets/completepuzzle.svg" width="100%" height="100%" /><g class="links"><use href="#t6986"/></g></g></svg><svg x="3190" y="1714" height="9%" width="9%" viewBox="0 0 330 330"><g><a xlink:href="https://nftpuzzle.license-token.com/" class="links"><title>See the most innovative NFT based token software licensing project</title><path fill="#E4CF37" id="more" d="M165,0C74.019,0,0,74.019,0,165s74.019,165,165,165s165-74.019,165-165S255.981,0,165,0z M85,190 c-13.785,0-25-11.215-25-25s11.215-25,25-25s25,11.215,25,25S98.785,190,85,190z M165,190c-13.785,0-25-11.215-25-25 s11.215-25,25-25s25,11.215,25,25S178.785,190,165,190z M245,190c-13.785,0-25-11.215-25-25s11.215-25,25-25 c13.785,0,25,11.215,25,25S258.785,190,245,190z"></path></a></g></svg></svg></svg>