<svg version="1.1" xmlns="http://www.w3.org/2000/svg" xmlns:xlink="http://www.w3.org/1999/xlink" fill="transparent" x="0" y="0" width="350" height="350" preserveAspectRatio="xMinYMin slice"><style type="text/css">.links{fill:transparent;stroke: #E4CF37;}.links:hover{fill:#63D272; opacity:0.4;}</style><defs><g id="allt"><path id="t6992" d="M3399,1696 L3388,1696 C3378,1696 3390,1702 3380,1701 C3370,1700 3386,1693 3376,1694 L3366,1696 3366,1696 L3367,1706 C3369,1716 3360,1701 3359,1711 C3359,1722 3367,1706 3366,1717 L3366,1728 3366,1728 L3376,1729 C3387,1731 3371,1722 3382,1721 C3393,1721 3377,1729 3388,1728 L3399,1728 3399,1728 L3397,1718 C3395,1708 3408,1721 3406,1712 C3404,1704 3398,1716 3398,1706 L3399,1696"/></g><clipPath id="c" clipRule="evenodd" fill="transparent"><use href="#t6992"/></clipPath></defs><svg viewBox="3358 1692 51 40" preserveAspectRatio="xMinYMin meet"><svg width="4380" height="2430"><g><image crossorigin="anonymous" x="0" y="0" href="https://nftpuzzle.license-token.com/assets/completepuzzle.svg" width="100%" height="100%" /><g class="links"><use href="#t6992"/></g></g></svg><svg x="3394" y="1717" height="9%" width="9%" viewBox="0 0 330 330"><g><a xlink:href="https://nftpuzzle.license-token.com/" class="links"><title>See the most innovative NFT based token software licensing project</title><path fill="#E4CF37" id="more" d="M165,0C74.019,0,0,74.019,0,165s74.019,165,165,165s165-74.019,165-165S255.981,0,165,0z M85,190 c-13.785,0-25-11.215-25-25s11.215-25,25-25s25,11.215,25,25S98.785,190,85,190z M165,190c-13.785,0-25-11.215-25-25 s11.215-25,25-25s25,11.215,25,25S178.785,190,165,190z M245,190c-13.785,0-25-11.215-25-25s11.215-25,25-25 c13.785,0,25,11.215,25,25S258.785,190,245,190z"></path></a></g></svg></svg></svg>