<svg version="1.1" xmlns="http://www.w3.org/2000/svg" xmlns:xlink="http://www.w3.org/1999/xlink" fill="transparent" x="0" y="0" width="350" height="350" preserveAspectRatio="xMinYMin slice"><style type="text/css">.links{fill:transparent;stroke: #E4CF37;}.links:hover{fill:#63D272; opacity:0.4;}</style><defs><g id="allt"><path id="t6993" d="M3432,1696 L3422,1697 C3412,1699 3424,1690 3416,1689 C3408,1688 3417,1698 3408,1697 L3399,1696 3399,1696 L3398,1706 C3398,1716 3404,1704 3406,1712 C3408,1721 3395,1708 3397,1718 L3399,1728 3399,1728 L3409,1727 C3420,1727 3408,1733 3416,1735 C3425,1737 3411,1724 3421,1726 L3432,1728 3432,1728 L3432,1718 C3433,1708 3427,1719 3427,1710 C3427,1701 3432,1716 3432,1706 L3432,1696"/></g><clipPath id="c" clipRule="evenodd" fill="transparent"><use href="#t6993"/></clipPath></defs><svg viewBox="3394 1687 40 51" preserveAspectRatio="xMinYMin meet"><svg width="4380" height="2430"><g><image crossorigin="anonymous" x="0" y="0" href="https://nftpuzzle.license-token.com/assets/completepuzzle.svg" width="100%" height="100%" /><g class="links"><use href="#t6993"/></g></g></svg><svg x="3419" y="1723" height="9%" width="9%" viewBox="0 0 330 330"><g><a xlink:href="https://nftpuzzle.license-token.com/" class="links"><title>See the most innovative NFT based token software licensing project</title><path fill="#E4CF37" id="more" d="M165,0C74.019,0,0,74.019,0,165s74.019,165,165,165s165-74.019,165-165S255.981,0,165,0z M85,190 c-13.785,0-25-11.215-25-25s11.215-25,25-25s25,11.215,25,25S98.785,190,85,190z M165,190c-13.785,0-25-11.215-25-25 s11.215-25,25-25s25,11.215,25,25S178.785,190,165,190z M245,190c-13.785,0-25-11.215-25-25s11.215-25,25-25 c13.785,0,25,11.215,25,25S258.785,190,245,190z"></path></a></g></svg></svg></svg>