<svg version="1.1" xmlns="http://www.w3.org/2000/svg" xmlns:xlink="http://www.w3.org/1999/xlink" fill="transparent" x="0" y="0" width="350" height="350" preserveAspectRatio="xMinYMin slice"><style type="text/css">.links{fill:transparent;stroke: #E4CF37;}.links:hover{fill:#63D272; opacity:0.4;}</style><defs><g id="allt"><path id="t6999" d="M3630,1696 L3620,1694 C3610,1693 3620,1705 3613,1702 C3606,1700 3617,1696 3607,1696 L3597,1696 3597,1696 L3598,1705 C3599,1715 3590,1702 3591,1711 C3593,1721 3598,1708 3597,1718 L3597,1728 3597,1728 L3607,1729 C3617,1730 3603,1721 3613,1722 C3623,1724 3609,1729 3619,1728 L3630,1728 3630,1728 L3632,1717 C3634,1706 3622,1718 3621,1709 C3621,1701 3631,1717 3630,1706 L3630,1696"/></g><clipPath id="c" clipRule="evenodd" fill="transparent"><use href="#t6999"/></clipPath></defs><svg viewBox="3589 1692 46 39" preserveAspectRatio="xMinYMin meet"><svg width="4380" height="2430"><g><image crossorigin="anonymous" x="0" y="0" href="https://nftpuzzle.license-token.com/assets/completepuzzle.svg" width="100%" height="100%" /><g class="links"><use href="#t6999"/></g></g></svg><svg x="3620" y="1716" height="9%" width="9%" viewBox="0 0 330 330"><g><a xlink:href="https://nftpuzzle.license-token.com/" class="links"><title>See the most innovative NFT based token software licensing project</title><path fill="#E4CF37" id="more" d="M165,0C74.019,0,0,74.019,0,165s74.019,165,165,165s165-74.019,165-165S255.981,0,165,0z M85,190 c-13.785,0-25-11.215-25-25s11.215-25,25-25s25,11.215,25,25S98.785,190,85,190z M165,190c-13.785,0-25-11.215-25-25 s11.215-25,25-25s25,11.215,25,25S178.785,190,165,190z M245,190c-13.785,0-25-11.215-25-25s11.215-25,25-25 c13.785,0,25,11.215,25,25S258.785,190,245,190z"></path></a></g></svg></svg></svg>