<svg version="1.1" xmlns="http://www.w3.org/2000/svg" xmlns:xlink="http://www.w3.org/1999/xlink" fill="transparent" x="0" y="0" width="350" height="350" preserveAspectRatio="xMinYMin slice"><style type="text/css">.links{fill:transparent;stroke: #E4CF37;}.links:hover{fill:#63D272; opacity:0.4;}</style><defs><g id="allt"><path id="t7000" d="M3663,1696 L3652,1696 C3641,1696 3657,1703 3647,1703 C3637,1703 3651,1695 3640,1695 L3630,1696 3630,1696 L3630,1706 C3631,1717 3621,1701 3621,1709 C3622,1718 3634,1706 3632,1717 L3630,1728 3630,1728 L3640,1728 C3651,1729 3635,1720 3644,1720 C3653,1720 3641,1732 3652,1730 L3663,1728 3663,1728 L3661,1717 C3660,1707 3671,1723 3671,1713 C3672,1704 3663,1713 3663,1704 L3663,1696"/></g><clipPath id="c" clipRule="evenodd" fill="transparent"><use href="#t7000"/></clipPath></defs><svg viewBox="3620 1694 53 39" preserveAspectRatio="xMinYMin meet"><svg width="4380" height="2430"><g><image crossorigin="anonymous" x="0" y="0" href="https://nftpuzzle.license-token.com/assets/completepuzzle.svg" width="100%" height="100%" /><g class="links"><use href="#t7000"/></g></g></svg><svg x="3658" y="1718" height="9%" width="9%" viewBox="0 0 330 330"><g><a xlink:href="https://nftpuzzle.license-token.com/" class="links"><title>See the most innovative NFT based token software licensing project</title><path fill="#E4CF37" id="more" d="M165,0C74.019,0,0,74.019,0,165s74.019,165,165,165s165-74.019,165-165S255.981,0,165,0z M85,190 c-13.785,0-25-11.215-25-25s11.215-25,25-25s25,11.215,25,25S98.785,190,85,190z M165,190c-13.785,0-25-11.215-25-25 s11.215-25,25-25s25,11.215,25,25S178.785,190,165,190z M245,190c-13.785,0-25-11.215-25-25s11.215-25,25-25 c13.785,0,25,11.215,25,25S258.785,190,245,190z"></path></a></g></svg></svg></svg>