<svg version="1.1" xmlns="http://www.w3.org/2000/svg" xmlns:xlink="http://www.w3.org/1999/xlink" fill="transparent" x="0" y="0" width="350" height="350" preserveAspectRatio="xMinYMin slice"><style type="text/css">.links{fill:transparent;stroke: #E4CF37;}.links:hover{fill:#63D272; opacity:0.4;}</style><defs><g id="allt"><path id="t7001" d="M3696,1696 L3685,1696 C3675,1696 3689,1692 3678,1691 C3668,1691 3683,1696 3673,1696 L3663,1696 3663,1696 L3663,1704 C3663,1713 3672,1704 3671,1713 C3671,1723 3660,1707 3661,1717 L3663,1728 3663,1728 L3672,1728 C3681,1728 3671,1736 3681,1736 C3691,1736 3674,1725 3685,1726 L3696,1728 3696,1728 L3698,1718 C3700,1709 3689,1719 3689,1711 C3689,1704 3696,1717 3696,1706 L3696,1696"/></g><clipPath id="c" clipRule="evenodd" fill="transparent"><use href="#t7001"/></clipPath></defs><svg viewBox="3659 1690 42 47" preserveAspectRatio="xMinYMin meet"><svg width="4380" height="2430"><g><image crossorigin="anonymous" x="0" y="0" href="https://nftpuzzle.license-token.com/assets/completepuzzle.svg" width="100%" height="100%" /><g class="links"><use href="#t7001"/></g></g></svg><svg x="3686" y="1722" height="9%" width="9%" viewBox="0 0 330 330"><g><a xlink:href="https://nftpuzzle.license-token.com/" class="links"><title>See the most innovative NFT based token software licensing project</title><path fill="#E4CF37" id="more" d="M165,0C74.019,0,0,74.019,0,165s74.019,165,165,165s165-74.019,165-165S255.981,0,165,0z M85,190 c-13.785,0-25-11.215-25-25s11.215-25,25-25s25,11.215,25,25S98.785,190,85,190z M165,190c-13.785,0-25-11.215-25-25 s11.215-25,25-25s25,11.215,25,25S178.785,190,165,190z M245,190c-13.785,0-25-11.215-25-25s11.215-25,25-25 c13.785,0,25,11.215,25,25S258.785,190,245,190z"></path></a></g></svg></svg></svg>