<svg version="1.1" xmlns="http://www.w3.org/2000/svg" xmlns:xlink="http://www.w3.org/1999/xlink" fill="transparent" x="0" y="0" width="350" height="350" preserveAspectRatio="xMinYMin slice"><style type="text/css">.links{fill:transparent;stroke: #E4CF37;}.links:hover{fill:#63D272; opacity:0.4;}</style><defs><g id="allt"><path id="t7003" d="M3762,1696 L3752,1696 C3743,1696 3755,1702 3746,1703 C3738,1704 3748,1693 3738,1694 L3729,1696 3729,1696 L3728,1705 C3728,1714 3738,1705 3737,1713 C3737,1721 3728,1707 3728,1717 L3729,1728 3729,1728 L3738,1727 C3747,1727 3738,1737 3746,1736 C3755,1736 3740,1727 3751,1727 L3762,1728 3762,1728 L3762,1718 C3762,1709 3758,1719 3759,1712 C3760,1705 3762,1715 3762,1705 L3762,1696"/></g><clipPath id="c" clipRule="evenodd" fill="transparent"><use href="#t7003"/></clipPath></defs><svg viewBox="3727 1692 36 46" preserveAspectRatio="xMinYMin meet"><svg width="4380" height="2430"><g><image crossorigin="anonymous" x="0" y="0" href="https://nftpuzzle.license-token.com/assets/completepuzzle.svg" width="100%" height="100%" /><g class="links"><use href="#t7003"/></g></g></svg><svg x="3748" y="1723" height="9%" width="9%" viewBox="0 0 330 330"><g><a xlink:href="https://nftpuzzle.license-token.com/" class="links"><title>See the most innovative NFT based token software licensing project</title><path fill="#E4CF37" id="more" d="M165,0C74.019,0,0,74.019,0,165s74.019,165,165,165s165-74.019,165-165S255.981,0,165,0z M85,190 c-13.785,0-25-11.215-25-25s11.215-25,25-25s25,11.215,25,25S98.785,190,85,190z M165,190c-13.785,0-25-11.215-25-25 s11.215-25,25-25s25,11.215,25,25S178.785,190,165,190z M245,190c-13.785,0-25-11.215-25-25s11.215-25,25-25 c13.785,0,25,11.215,25,25S258.785,190,245,190z"></path></a></g></svg></svg></svg>