<svg version="1.1" xmlns="http://www.w3.org/2000/svg" xmlns:xlink="http://www.w3.org/1999/xlink" fill="transparent" x="0" y="0" width="350" height="350" preserveAspectRatio="xMinYMin slice"><style type="text/css">.links{fill:transparent;stroke: #E4CF37;}.links:hover{fill:#63D272; opacity:0.4;}</style><defs><g id="allt"><path id="t7007" d="M3894,1696 L3883,1697 C3872,1699 3885,1692 3876,1689 C3868,1687 3879,1698 3870,1697 L3861,1696 3861,1696 L3861,1705 C3861,1715 3867,1703 3867,1712 C3868,1722 3861,1708 3861,1718 L3861,1728 3861,1728 L3870,1728 C3880,1728 3868,1734 3878,1734 C3888,1735 3873,1728 3883,1728 L3894,1728 3894,1728 L3895,1718 C3896,1708 3889,1722 3888,1713 C3888,1704 3895,1714 3894,1705 L3894,1696"/></g><clipPath id="c" clipRule="evenodd" fill="transparent"><use href="#t7007"/></clipPath></defs><svg viewBox="3860 1686 37 50" preserveAspectRatio="xMinYMin meet"><svg width="4380" height="2430"><g><image crossorigin="anonymous" x="0" y="0" href="https://nftpuzzle.license-token.com/assets/completepuzzle.svg" width="100%" height="100%" /><g class="links"><use href="#t7007"/></g></g></svg><svg x="3882" y="1721" height="9%" width="9%" viewBox="0 0 330 330"><g><a xlink:href="https://nftpuzzle.license-token.com/" class="links"><title>See the most innovative NFT based token software licensing project</title><path fill="#E4CF37" id="more" d="M165,0C74.019,0,0,74.019,0,165s74.019,165,165,165s165-74.019,165-165S255.981,0,165,0z M85,190 c-13.785,0-25-11.215-25-25s11.215-25,25-25s25,11.215,25,25S98.785,190,85,190z M165,190c-13.785,0-25-11.215-25-25 s11.215-25,25-25s25,11.215,25,25S178.785,190,165,190z M245,190c-13.785,0-25-11.215-25-25s11.215-25,25-25 c13.785,0,25,11.215,25,25S258.785,190,245,190z"></path></a></g></svg></svg></svg>