<svg version="1.1" xmlns="http://www.w3.org/2000/svg" xmlns:xlink="http://www.w3.org/1999/xlink" fill="transparent" x="0" y="0" width="350" height="350" preserveAspectRatio="xMinYMin slice"><style type="text/css">.links{fill:transparent;stroke: #E4CF37;}.links:hover{fill:#63D272; opacity:0.4;}</style><defs><g id="allt"><path id="t7016" d="M4191,1696 L4180,1696 C4170,1696 4185,1705 4174,1703 C4163,1701 4177,1696 4167,1696 L4158,1696 4158,1696 L4158,1704 C4159,1713 4156,1703 4155,1711 C4154,1720 4160,1709 4159,1718 L4158,1728 4158,1728 L4167,1728 C4176,1729 4165,1726 4174,1725 C4183,1724 4172,1730 4181,1729 L4191,1728 4191,1728 L4191,1719 C4191,1710 4186,1721 4187,1712 C4188,1703 4191,1714 4191,1705 L4191,1696"/></g><clipPath id="c" clipRule="evenodd" fill="transparent"><use href="#t7016"/></clipPath></defs><svg viewBox="4153 1695 39 36" preserveAspectRatio="xMinYMin meet"><svg width="4380" height="2430"><g><image crossorigin="anonymous" x="0" y="0" href="https://nftpuzzle.license-token.com/assets/completepuzzle.svg" width="100%" height="100%" /><g class="links"><use href="#t7016"/></g></g></svg><svg x="4177" y="1716" height="9%" width="9%" viewBox="0 0 330 330"><g><a xlink:href="https://nftpuzzle.license-token.com/" class="links"><title>See the most innovative NFT based token software licensing project</title><path fill="#E4CF37" id="more" d="M165,0C74.019,0,0,74.019,0,165s74.019,165,165,165s165-74.019,165-165S255.981,0,165,0z M85,190 c-13.785,0-25-11.215-25-25s11.215-25,25-25s25,11.215,25,25S98.785,190,85,190z M165,190c-13.785,0-25-11.215-25-25 s11.215-25,25-25s25,11.215,25,25S178.785,190,165,190z M245,190c-13.785,0-25-11.215-25-25s11.215-25,25-25 c13.785,0,25,11.215,25,25S258.785,190,245,190z"></path></a></g></svg></svg></svg>