<svg version="1.1" xmlns="http://www.w3.org/2000/svg" xmlns:xlink="http://www.w3.org/1999/xlink" fill="transparent" x="0" y="0" width="350" height="350" preserveAspectRatio="xMinYMin slice"><style type="text/css">.links{fill:transparent;stroke: #E4CF37;}.links:hover{fill:#63D272; opacity:0.4;}</style><defs><g id="allt"><path id="t7017" d="M4224,1696 L4214,1696 C4204,1696 4215,1700 4207,1700 C4199,1701 4210,1695 4200,1695 L4191,1696 4191,1696 L4191,1705 C4191,1714 4188,1703 4187,1712 C4186,1721 4191,1710 4191,1719 L4191,1728 4191,1728 L4200,1728 C4210,1728 4198,1725 4207,1724 C4217,1723 4205,1728 4214,1728 L4224,1728 4224,1728 L4222,1717 C4221,1707 4233,1722 4232,1712 C4232,1702 4224,1716 4224,1706 L4224,1696"/></g><clipPath id="c" clipRule="evenodd" fill="transparent"><use href="#t7017"/></clipPath></defs><svg viewBox="4185 1694 49 35" preserveAspectRatio="xMinYMin meet"><svg width="4380" height="2430"><g><image crossorigin="anonymous" x="0" y="0" href="https://nftpuzzle.license-token.com/assets/completepuzzle.svg" width="100%" height="100%" /><g class="links"><use href="#t7017"/></g></g></svg><svg x="4219" y="1714" height="9%" width="9%" viewBox="0 0 330 330"><g><a xlink:href="https://nftpuzzle.license-token.com/" class="links"><title>See the most innovative NFT based token software licensing project</title><path fill="#E4CF37" id="more" d="M165,0C74.019,0,0,74.019,0,165s74.019,165,165,165s165-74.019,165-165S255.981,0,165,0z M85,190 c-13.785,0-25-11.215-25-25s11.215-25,25-25s25,11.215,25,25S98.785,190,85,190z M165,190c-13.785,0-25-11.215-25-25 s11.215-25,25-25s25,11.215,25,25S178.785,190,165,190z M245,190c-13.785,0-25-11.215-25-25s11.215-25,25-25 c13.785,0,25,11.215,25,25S258.785,190,245,190z"></path></a></g></svg></svg></svg>