<svg version="1.1" xmlns="http://www.w3.org/2000/svg" xmlns:xlink="http://www.w3.org/1999/xlink" fill="transparent" x="0" y="0" width="350" height="350" preserveAspectRatio="xMinYMin slice"><style type="text/css">.links{fill:transparent;stroke: #E4CF37;}.links:hover{fill:#63D272; opacity:0.4;}</style><defs><g id="allt"><path id="t7019" d="M4290,1696 L4279,1696 C4269,1696 4284,1684 4273,1683 C4262,1683 4278,1700 4267,1698 L4257,1696 4257,1696 L4257,1706 C4257,1716 4253,1703 4253,1711 C4253,1719 4257,1709 4257,1718 L4257,1728 4257,1728 L4267,1728 C4278,1728 4264,1724 4272,1724 C4280,1724 4270,1728 4280,1728 L4290,1728 L4290,1728 L4290,1696"/></g><clipPath id="c" clipRule="evenodd" fill="transparent"><use href="#t7019"/></clipPath></defs><svg viewBox="4252 1682 39 47" preserveAspectRatio="xMinYMin meet"><svg width="4380" height="2430"><g><image crossorigin="anonymous" x="0" y="0" href="https://nftpuzzle.license-token.com/assets/completepuzzle.svg" width="100%" height="100%" /><g class="links"><use href="#t7019"/></g></g></svg><svg x="4276" y="1714" height="9%" width="9%" viewBox="0 0 330 330"><g><a xlink:href="https://nftpuzzle.license-token.com/" class="links"><title>See the most innovative NFT based token software licensing project</title><path fill="#E4CF37" id="more" d="M165,0C74.019,0,0,74.019,0,165s74.019,165,165,165s165-74.019,165-165S255.981,0,165,0z M85,190 c-13.785,0-25-11.215-25-25s11.215-25,25-25s25,11.215,25,25S98.785,190,85,190z M165,190c-13.785,0-25-11.215-25-25 s11.215-25,25-25s25,11.215,25,25S178.785,190,165,190z M245,190c-13.785,0-25-11.215-25-25s11.215-25,25-25 c13.785,0,25,11.215,25,25S258.785,190,245,190z"></path></a></g></svg></svg></svg>