<svg version="1.1" xmlns="http://www.w3.org/2000/svg" xmlns:xlink="http://www.w3.org/1999/xlink" fill="transparent" x="0" y="0" width="350" height="350" preserveAspectRatio="xMinYMin slice"><style type="text/css">.links{fill:transparent;stroke: #E4CF37;}.links:hover{fill:#63D272; opacity:0.4;}</style><defs><g id="allt"><path id="t7021" d="M66,1728 L56,1728 C46,1728 57,1722 49,1721 C42,1720 51,1728 42,1728 L33,1728 33,1728 L34,1738 C36,1748 28,1737 28,1744 C29,1752 34,1741 33,1750 L33,1760 33,1760 L43,1761 C54,1763 42,1755 50,1755 C58,1756 46,1761 56,1760 L66,1760 66,1760 L67,1749 C68,1739 60,1751 58,1743 C56,1736 66,1747 66,1737 L66,1728"/></g><clipPath id="c" clipRule="evenodd" fill="transparent"><use href="#t7021"/></clipPath></defs><svg viewBox="27 1719 42 45" preserveAspectRatio="xMinYMin meet"><svg width="4380" height="2430"><g><image crossorigin="anonymous" x="0" y="0" href="https://nftpuzzle.license-token.com/assets/completepuzzle.svg" width="100%" height="100%" /><g class="links"><use href="#t7021"/></g></g></svg><svg x="54" y="1749" height="9%" width="9%" viewBox="0 0 330 330"><g><a xlink:href="https://nftpuzzle.license-token.com/" class="links"><title>See the most innovative NFT based token software licensing project</title><path fill="#E4CF37" id="more" d="M165,0C74.019,0,0,74.019,0,165s74.019,165,165,165s165-74.019,165-165S255.981,0,165,0z M85,190 c-13.785,0-25-11.215-25-25s11.215-25,25-25s25,11.215,25,25S98.785,190,85,190z M165,190c-13.785,0-25-11.215-25-25 s11.215-25,25-25s25,11.215,25,25S178.785,190,165,190z M245,190c-13.785,0-25-11.215-25-25s11.215-25,25-25 c13.785,0,25,11.215,25,25S258.785,190,245,190z"></path></a></g></svg></svg></svg>