<svg version="1.1" xmlns="http://www.w3.org/2000/svg" xmlns:xlink="http://www.w3.org/1999/xlink" fill="transparent" x="0" y="0" width="350" height="350" preserveAspectRatio="xMinYMin slice"><style type="text/css">.links{fill:transparent;stroke: #E4CF37;}.links:hover{fill:#63D272; opacity:0.4;}</style><defs><g id="allt"><path id="t7023" d="M132,1728 L122,1729 C113,1730 122,1719 115,1717 C108,1715 119,1731 109,1729 L99,1728 99,1728 L99,1738 C99,1748 104,1736 104,1745 C104,1754 99,1741 99,1750 L99,1760 99,1760 L109,1760 C120,1760 107,1765 116,1765 C126,1765 113,1760 122,1760 L132,1760 132,1760 L131,1750 C130,1740 143,1753 143,1742 C143,1732 132,1748 132,1738 L132,1728"/></g><clipPath id="c" clipRule="evenodd" fill="transparent"><use href="#t7023"/></clipPath></defs><svg viewBox="98 1714 46 52" preserveAspectRatio="xMinYMin meet"><svg width="4380" height="2430"><g><image crossorigin="anonymous" x="0" y="0" href="https://nftpuzzle.license-token.com/assets/completepuzzle.svg" width="100%" height="100%" /><g class="links"><use href="#t7023"/></g></g></svg><svg x="129" y="1751" height="9%" width="9%" viewBox="0 0 330 330"><g><a xlink:href="https://nftpuzzle.license-token.com/" class="links"><title>See the most innovative NFT based token software licensing project</title><path fill="#E4CF37" id="more" d="M165,0C74.019,0,0,74.019,0,165s74.019,165,165,165s165-74.019,165-165S255.981,0,165,0z M85,190 c-13.785,0-25-11.215-25-25s11.215-25,25-25s25,11.215,25,25S98.785,190,85,190z M165,190c-13.785,0-25-11.215-25-25 s11.215-25,25-25s25,11.215,25,25S178.785,190,165,190z M245,190c-13.785,0-25-11.215-25-25s11.215-25,25-25 c13.785,0,25,11.215,25,25S258.785,190,245,190z"></path></a></g></svg></svg></svg>