<svg version="1.1" xmlns="http://www.w3.org/2000/svg" xmlns:xlink="http://www.w3.org/1999/xlink" fill="transparent" x="0" y="0" width="350" height="350" preserveAspectRatio="xMinYMin slice"><style type="text/css">.links{fill:transparent;stroke: #E4CF37;}.links:hover{fill:#63D272; opacity:0.4;}</style><defs><g id="allt"><path id="t7026" d="M231,1728 L220,1728 C209,1728 224,1732 215,1732 C206,1733 219,1728 208,1728 L198,1728 198,1728 L198,1737 C198,1747 203,1732 202,1741 C201,1750 197,1738 197,1749 L198,1760 198,1760 L208,1760 C218,1760 202,1765 211,1764 C221,1763 209,1759 220,1759 L231,1760 231,1760 L232,1751 C234,1742 225,1752 224,1744 C224,1736 232,1747 231,1737 L231,1728"/></g><clipPath id="c" clipRule="evenodd" fill="transparent"><use href="#t7026"/></clipPath></defs><svg viewBox="196 1727 39 39" preserveAspectRatio="xMinYMin meet"><svg width="4380" height="2430"><g><image crossorigin="anonymous" x="0" y="0" href="https://nftpuzzle.license-token.com/assets/completepuzzle.svg" width="100%" height="100%" /><g class="links"><use href="#t7026"/></g></g></svg><svg x="220" y="1751" height="9%" width="9%" viewBox="0 0 330 330"><g><a xlink:href="https://nftpuzzle.license-token.com/" class="links"><title>See the most innovative NFT based token software licensing project</title><path fill="#E4CF37" id="more" d="M165,0C74.019,0,0,74.019,0,165s74.019,165,165,165s165-74.019,165-165S255.981,0,165,0z M85,190 c-13.785,0-25-11.215-25-25s11.215-25,25-25s25,11.215,25,25S98.785,190,85,190z M165,190c-13.785,0-25-11.215-25-25 s11.215-25,25-25s25,11.215,25,25S178.785,190,165,190z M245,190c-13.785,0-25-11.215-25-25s11.215-25,25-25 c13.785,0,25,11.215,25,25S258.785,190,245,190z"></path></a></g></svg></svg></svg>