<svg version="1.1" xmlns="http://www.w3.org/2000/svg" xmlns:xlink="http://www.w3.org/1999/xlink" fill="transparent" x="0" y="0" width="350" height="350" preserveAspectRatio="xMinYMin slice"><style type="text/css">.links{fill:transparent;stroke: #E4CF37;}.links:hover{fill:#63D272; opacity:0.4;}</style><defs><g id="allt"><path id="t7027" d="M264,1728 L254,1728 C244,1728 257,1738 248,1735 C239,1733 253,1728 242,1728 L231,1728 231,1728 L231,1737 C232,1747 224,1736 224,1744 C225,1752 234,1742 232,1751 L231,1760 231,1760 L241,1760 C251,1761 239,1753 247,1753 C255,1754 245,1763 254,1761 L264,1760 264,1760 L262,1749 C261,1738 269,1753 270,1744 C271,1735 261,1749 262,1738 L264,1728"/></g><clipPath id="c" clipRule="evenodd" fill="transparent"><use href="#t7027"/></clipPath></defs><svg viewBox="223 1727 49 37" preserveAspectRatio="xMinYMin meet"><svg width="4380" height="2430"><g><image crossorigin="anonymous" x="0" y="0" href="https://nftpuzzle.license-token.com/assets/completepuzzle.svg" width="100%" height="100%" /><g class="links"><use href="#t7027"/></g></g></svg><svg x="257" y="1749" height="9%" width="9%" viewBox="0 0 330 330"><g><a xlink:href="https://nftpuzzle.license-token.com/" class="links"><title>See the most innovative NFT based token software licensing project</title><path fill="#E4CF37" id="more" d="M165,0C74.019,0,0,74.019,0,165s74.019,165,165,165s165-74.019,165-165S255.981,0,165,0z M85,190 c-13.785,0-25-11.215-25-25s11.215-25,25-25s25,11.215,25,25S98.785,190,85,190z M165,190c-13.785,0-25-11.215-25-25 s11.215-25,25-25s25,11.215,25,25S178.785,190,165,190z M245,190c-13.785,0-25-11.215-25-25s11.215-25,25-25 c13.785,0,25,11.215,25,25S258.785,190,245,190z"></path></a></g></svg></svg></svg>