<svg version="1.1" xmlns="http://www.w3.org/2000/svg" xmlns:xlink="http://www.w3.org/1999/xlink" fill="transparent" x="0" y="0" width="350" height="350" preserveAspectRatio="xMinYMin slice"><style type="text/css">.links{fill:transparent;stroke: #E4CF37;}.links:hover{fill:#63D272; opacity:0.4;}</style><defs><g id="allt"><path id="t7028" d="M297,1728 L287,1728 C278,1728 287,1721 278,1722 C270,1723 285,1730 274,1729 L264,1728 264,1728 L262,1738 C261,1749 271,1735 270,1744 C269,1753 261,1738 262,1749 L264,1760 264,1760 L275,1758 C286,1757 271,1767 280,1766 C290,1765 274,1757 285,1758 L297,1760 297,1760 L297,1750 C297,1741 306,1754 305,1743 C305,1733 297,1748 297,1738 L297,1728"/></g><clipPath id="c" clipRule="evenodd" fill="transparent"><use href="#t7028"/></clipPath></defs><svg viewBox="260 1720 47 48" preserveAspectRatio="xMinYMin meet"><svg width="4380" height="2430"><g><image crossorigin="anonymous" x="0" y="0" href="https://nftpuzzle.license-token.com/assets/completepuzzle.svg" width="100%" height="100%" /><g class="links"><use href="#t7028"/></g></g></svg><svg x="292" y="1753" height="9%" width="9%" viewBox="0 0 330 330"><g><a xlink:href="https://nftpuzzle.license-token.com/" class="links"><title>See the most innovative NFT based token software licensing project</title><path fill="#E4CF37" id="more" d="M165,0C74.019,0,0,74.019,0,165s74.019,165,165,165s165-74.019,165-165S255.981,0,165,0z M85,190 c-13.785,0-25-11.215-25-25s11.215-25,25-25s25,11.215,25,25S98.785,190,85,190z M165,190c-13.785,0-25-11.215-25-25 s11.215-25,25-25s25,11.215,25,25S178.785,190,165,190z M245,190c-13.785,0-25-11.215-25-25s11.215-25,25-25 c13.785,0,25,11.215,25,25S258.785,190,245,190z"></path></a></g></svg></svg></svg>