<svg version="1.1" xmlns="http://www.w3.org/2000/svg" xmlns:xlink="http://www.w3.org/1999/xlink" fill="transparent" x="0" y="0" width="350" height="350" preserveAspectRatio="xMinYMin slice"><style type="text/css">.links{fill:transparent;stroke: #E4CF37;}.links:hover{fill:#63D272; opacity:0.4;}</style><defs><g id="allt"><path id="t7030" d="M363,1728 L353,1728 C343,1728 355,1733 347,1732 C339,1731 350,1727 340,1727 L330,1728 330,1728 L330,1737 C331,1746 327,1735 327,1743 C327,1752 330,1740 330,1750 L330,1760 330,1760 L339,1760 C348,1761 337,1757 346,1757 C355,1757 342,1760 352,1760 L363,1760 363,1760 L363,1751 C363,1742 369,1752 371,1743 C374,1734 363,1746 363,1737 L363,1728"/></g><clipPath id="c" clipRule="evenodd" fill="transparent"><use href="#t7030"/></clipPath></defs><svg viewBox="326 1726 49 36" preserveAspectRatio="xMinYMin meet"><svg width="4380" height="2430"><g><image crossorigin="anonymous" x="0" y="0" href="https://nftpuzzle.license-token.com/assets/completepuzzle.svg" width="100%" height="100%" /><g class="links"><use href="#t7030"/></g></g></svg><svg x="360" y="1747" height="9%" width="9%" viewBox="0 0 330 330"><g><a xlink:href="https://nftpuzzle.license-token.com/" class="links"><title>See the most innovative NFT based token software licensing project</title><path fill="#E4CF37" id="more" d="M165,0C74.019,0,0,74.019,0,165s74.019,165,165,165s165-74.019,165-165S255.981,0,165,0z M85,190 c-13.785,0-25-11.215-25-25s11.215-25,25-25s25,11.215,25,25S98.785,190,85,190z M165,190c-13.785,0-25-11.215-25-25 s11.215-25,25-25s25,11.215,25,25S178.785,190,165,190z M245,190c-13.785,0-25-11.215-25-25s11.215-25,25-25 c13.785,0,25,11.215,25,25S258.785,190,245,190z"></path></a></g></svg></svg></svg>