<svg version="1.1" xmlns="http://www.w3.org/2000/svg" xmlns:xlink="http://www.w3.org/1999/xlink" fill="transparent" x="0" y="0" width="350" height="350" preserveAspectRatio="xMinYMin slice"><style type="text/css">.links{fill:transparent;stroke: #E4CF37;}.links:hover{fill:#63D272; opacity:0.4;}</style><defs><g id="allt"><path id="t7034" d="M495,1728 L485,1728 C476,1728 486,1731 477,1730 C468,1730 482,1727 472,1727 L462,1728 462,1728 L462,1737 C462,1747 458,1734 458,1743 C458,1753 462,1739 462,1749 L462,1760 462,1760 L471,1760 C481,1760 468,1756 478,1756 C488,1756 473,1760 484,1760 L495,1760 495,1760 L496,1750 C497,1740 492,1754 491,1743 C491,1732 496,1747 495,1737 L495,1728"/></g><clipPath id="c" clipRule="evenodd" fill="transparent"><use href="#t7034"/></clipPath></defs><svg viewBox="457 1726 41 35" preserveAspectRatio="xMinYMin meet"><svg width="4380" height="2430"><g><image crossorigin="anonymous" x="0" y="0" href="https://nftpuzzle.license-token.com/assets/completepuzzle.svg" width="100%" height="100%" /><g class="links"><use href="#t7034"/></g></g></svg><svg x="483" y="1746" height="9%" width="9%" viewBox="0 0 330 330"><g><a xlink:href="https://nftpuzzle.license-token.com/" class="links"><title>See the most innovative NFT based token software licensing project</title><path fill="#E4CF37" id="more" d="M165,0C74.019,0,0,74.019,0,165s74.019,165,165,165s165-74.019,165-165S255.981,0,165,0z M85,190 c-13.785,0-25-11.215-25-25s11.215-25,25-25s25,11.215,25,25S98.785,190,85,190z M165,190c-13.785,0-25-11.215-25-25 s11.215-25,25-25s25,11.215,25,25S178.785,190,165,190z M245,190c-13.785,0-25-11.215-25-25s11.215-25,25-25 c13.785,0,25,11.215,25,25S258.785,190,245,190z"></path></a></g></svg></svg></svg>