<svg version="1.1" xmlns="http://www.w3.org/2000/svg" xmlns:xlink="http://www.w3.org/1999/xlink" fill="transparent" x="0" y="0" width="350" height="350" preserveAspectRatio="xMinYMin slice"><style type="text/css">.links{fill:transparent;stroke: #E4CF37;}.links:hover{fill:#63D272; opacity:0.4;}</style><defs><g id="allt"><path id="t7039" d="M660,1728 L650,1728 C640,1728 654,1721 645,1722 C636,1723 646,1728 636,1728 L627,1728 627,1728 L626,1737 C626,1746 631,1732 631,1742 C631,1753 627,1740 627,1750 L627,1760 627,1760 L636,1759 C646,1759 631,1764 642,1764 C653,1764 639,1760 649,1760 L660,1760 660,1760 L660,1751 C661,1742 654,1751 651,1744 C649,1737 661,1749 660,1738 L660,1728"/></g><clipPath id="c" clipRule="evenodd" fill="transparent"><use href="#t7039"/></clipPath></defs><svg viewBox="625 1720 37 45" preserveAspectRatio="xMinYMin meet"><svg width="4380" height="2430"><g><image crossorigin="anonymous" x="0" y="0" href="https://nftpuzzle.license-token.com/assets/completepuzzle.svg" width="100%" height="100%" /><g class="links"><use href="#t7039"/></g></g></svg><svg x="647" y="1750" height="9%" width="9%" viewBox="0 0 330 330"><g><a xlink:href="https://nftpuzzle.license-token.com/" class="links"><title>See the most innovative NFT based token software licensing project</title><path fill="#E4CF37" id="more" d="M165,0C74.019,0,0,74.019,0,165s74.019,165,165,165s165-74.019,165-165S255.981,0,165,0z M85,190 c-13.785,0-25-11.215-25-25s11.215-25,25-25s25,11.215,25,25S98.785,190,85,190z M165,190c-13.785,0-25-11.215-25-25 s11.215-25,25-25s25,11.215,25,25S178.785,190,165,190z M245,190c-13.785,0-25-11.215-25-25s11.215-25,25-25 c13.785,0,25,11.215,25,25S258.785,190,245,190z"></path></a></g></svg></svg></svg>