<svg version="1.1" xmlns="http://www.w3.org/2000/svg" xmlns:xlink="http://www.w3.org/1999/xlink" fill="transparent" x="0" y="0" width="350" height="350" preserveAspectRatio="xMinYMin slice"><style type="text/css">.links{fill:transparent;stroke: #E4CF37;}.links:hover{fill:#63D272; opacity:0.4;}</style><defs><g id="allt"><path id="t7041" d="M726,1728 L716,1728 C707,1728 721,1725 709,1724 C698,1724 711,1729 702,1728 L693,1728 693,1728 L693,1737 C693,1746 685,1736 686,1744 C688,1752 695,1741 694,1750 L693,1760 693,1760 L702,1760 C711,1760 702,1752 710,1753 C718,1755 706,1762 716,1761 L726,1760 726,1760 L728,1750 C731,1740 714,1751 715,1744 C716,1737 726,1748 726,1738 L726,1728"/></g><clipPath id="c" clipRule="evenodd" fill="transparent"><use href="#t7041"/></clipPath></defs><svg viewBox="684 1723 48 40" preserveAspectRatio="xMinYMin meet"><svg width="4380" height="2430"><g><image crossorigin="anonymous" x="0" y="0" href="https://nftpuzzle.license-token.com/assets/completepuzzle.svg" width="100%" height="100%" /><g class="links"><use href="#t7041"/></g></g></svg><svg x="717" y="1748" height="9%" width="9%" viewBox="0 0 330 330"><g><a xlink:href="https://nftpuzzle.license-token.com/" class="links"><title>See the most innovative NFT based token software licensing project</title><path fill="#E4CF37" id="more" d="M165,0C74.019,0,0,74.019,0,165s74.019,165,165,165s165-74.019,165-165S255.981,0,165,0z M85,190 c-13.785,0-25-11.215-25-25s11.215-25,25-25s25,11.215,25,25S98.785,190,85,190z M165,190c-13.785,0-25-11.215-25-25 s11.215-25,25-25s25,11.215,25,25S178.785,190,165,190z M245,190c-13.785,0-25-11.215-25-25s11.215-25,25-25 c13.785,0,25,11.215,25,25S258.785,190,245,190z"></path></a></g></svg></svg></svg>