<svg version="1.1" xmlns="http://www.w3.org/2000/svg" xmlns:xlink="http://www.w3.org/1999/xlink" fill="transparent" x="0" y="0" width="350" height="350" preserveAspectRatio="xMinYMin slice"><style type="text/css">.links{fill:transparent;stroke: #E4CF37;}.links:hover{fill:#63D272; opacity:0.4;}</style><defs><g id="allt"><path id="t7049" d="M990,1728 L979,1728 C968,1728 981,1723 971,1723 C962,1723 977,1728 967,1728 L957,1728 957,1728 L957,1737 C957,1746 953,1735 951,1743 C949,1751 961,1742 959,1751 L957,1760 957,1760 L966,1760 C976,1760 964,1756 972,1754 C980,1752 971,1764 980,1762 L990,1760 990,1760 L990,1749 C991,1738 986,1753 984,1744 C983,1736 990,1749 990,1738 L990,1728"/></g><clipPath id="c" clipRule="evenodd" fill="transparent"><use href="#t7049"/></clipPath></defs><svg viewBox="948 1722 44 43" preserveAspectRatio="xMinYMin meet"><svg width="4380" height="2430"><g><image crossorigin="anonymous" x="0" y="0" href="https://nftpuzzle.license-token.com/assets/completepuzzle.svg" width="100%" height="100%" /><g class="links"><use href="#t7049"/></g></g></svg><svg x="977" y="1750" height="9%" width="9%" viewBox="0 0 330 330"><g><a xlink:href="https://nftpuzzle.license-token.com/" class="links"><title>See the most innovative NFT based token software licensing project</title><path fill="#E4CF37" id="more" d="M165,0C74.019,0,0,74.019,0,165s74.019,165,165,165s165-74.019,165-165S255.981,0,165,0z M85,190 c-13.785,0-25-11.215-25-25s11.215-25,25-25s25,11.215,25,25S98.785,190,85,190z M165,190c-13.785,0-25-11.215-25-25 s11.215-25,25-25s25,11.215,25,25S178.785,190,165,190z M245,190c-13.785,0-25-11.215-25-25s11.215-25,25-25 c13.785,0,25,11.215,25,25S258.785,190,245,190z"></path></a></g></svg></svg></svg>