<svg version="1.1" xmlns="http://www.w3.org/2000/svg" xmlns:xlink="http://www.w3.org/1999/xlink" fill="transparent" x="0" y="0" width="350" height="350" preserveAspectRatio="xMinYMin slice"><style type="text/css">.links{fill:transparent;stroke: #E4CF37;}.links:hover{fill:#63D272; opacity:0.4;}</style><defs><g id="allt"><path id="t705" d="M1848,160 L1838,160 C1828,161 1838,157 1830,157 C1823,157 1834,160 1824,160 L1815,160 1815,160 L1815,169 C1815,179 1809,169 1809,177 C1809,186 1818,173 1816,182 L1815,192 1815,192 L1825,192 C1835,192 1824,186 1833,186 C1842,186 1828,195 1838,193 L1848,192 1848,192 L1848,181 C1848,170 1854,185 1855,174 C1857,164 1845,180 1846,170 L1848,160"/></g><clipPath id="c" clipRule="evenodd" fill="transparent"><use href="#t705"/></clipPath></defs><svg viewBox="1808 156 50 40" preserveAspectRatio="xMinYMin meet"><svg width="4380" height="2430"><g><image crossorigin="anonymous" x="0" y="0" href="https://nftpuzzle.license-token.com/assets/completepuzzle.svg" width="100%" height="100%" /><g class="links"><use href="#t705"/></g></g></svg><svg x="1843" y="181" height="9%" width="9%" viewBox="0 0 330 330"><g><a xlink:href="https://nftpuzzle.license-token.com/" class="links"><title>See the most innovative NFT based token software licensing project</title><path fill="#E4CF37" id="more" d="M165,0C74.019,0,0,74.019,0,165s74.019,165,165,165s165-74.019,165-165S255.981,0,165,0z M85,190 c-13.785,0-25-11.215-25-25s11.215-25,25-25s25,11.215,25,25S98.785,190,85,190z M165,190c-13.785,0-25-11.215-25-25 s11.215-25,25-25s25,11.215,25,25S178.785,190,165,190z M245,190c-13.785,0-25-11.215-25-25s11.215-25,25-25 c13.785,0,25,11.215,25,25S258.785,190,245,190z"></path></a></g></svg></svg></svg>