<svg version="1.1" xmlns="http://www.w3.org/2000/svg" xmlns:xlink="http://www.w3.org/1999/xlink" fill="transparent" x="0" y="0" width="350" height="350" preserveAspectRatio="xMinYMin slice"><style type="text/css">.links{fill:transparent;stroke: #E4CF37;}.links:hover{fill:#63D272; opacity:0.4;}</style><defs><g id="allt"><path id="t7051" d="M1056,1728 L1045,1729 C1034,1730 1047,1722 1039,1721 C1032,1721 1044,1731 1033,1729 L1023,1728 1023,1728 L1022,1738 C1022,1749 1028,1734 1026,1743 C1025,1752 1022,1740 1022,1750 L1023,1760 1023,1760 L1033,1759 C1044,1759 1029,1765 1038,1763 C1047,1762 1035,1759 1045,1759 L1056,1760 1056,1760 L1056,1751 C1056,1742 1061,1752 1061,1744 C1062,1736 1056,1749 1056,1738 L1056,1728"/></g><clipPath id="c" clipRule="evenodd" fill="transparent"><use href="#t7051"/></clipPath></defs><svg viewBox="1021 1720 42 46" preserveAspectRatio="xMinYMin meet"><svg width="4380" height="2430"><g><image crossorigin="anonymous" x="0" y="0" href="https://nftpuzzle.license-token.com/assets/completepuzzle.svg" width="100%" height="100%" /><g class="links"><use href="#t7051"/></g></g></svg><svg x="1048" y="1751" height="9%" width="9%" viewBox="0 0 330 330"><g><a xlink:href="https://nftpuzzle.license-token.com/" class="links"><title>See the most innovative NFT based token software licensing project</title><path fill="#E4CF37" id="more" d="M165,0C74.019,0,0,74.019,0,165s74.019,165,165,165s165-74.019,165-165S255.981,0,165,0z M85,190 c-13.785,0-25-11.215-25-25s11.215-25,25-25s25,11.215,25,25S98.785,190,85,190z M165,190c-13.785,0-25-11.215-25-25 s11.215-25,25-25s25,11.215,25,25S178.785,190,165,190z M245,190c-13.785,0-25-11.215-25-25s11.215-25,25-25 c13.785,0,25,11.215,25,25S258.785,190,245,190z"></path></a></g></svg></svg></svg>