<svg version="1.1" xmlns="http://www.w3.org/2000/svg" xmlns:xlink="http://www.w3.org/1999/xlink" fill="transparent" x="0" y="0" width="350" height="350" preserveAspectRatio="xMinYMin slice"><style type="text/css">.links{fill:transparent;stroke: #E4CF37;}.links:hover{fill:#63D272; opacity:0.4;}</style><defs><g id="allt"><path id="t7054" d="M1155,1728 L1144,1730 C1134,1733 1145,1721 1138,1721 C1131,1722 1141,1727 1131,1727 L1122,1728 1122,1728 L1122,1738 C1122,1748 1117,1735 1117,1743 C1118,1752 1122,1739 1122,1749 L1122,1760 1122,1760 L1132,1760 C1143,1760 1129,1755 1138,1755 C1147,1756 1133,1760 1144,1760 L1155,1760 1155,1760 L1155,1749 C1155,1738 1145,1753 1146,1744 C1147,1735 1159,1745 1157,1736 L1155,1728"/></g><clipPath id="c" clipRule="evenodd" fill="transparent"><use href="#t7054"/></clipPath></defs><svg viewBox="1116 1720 44 41" preserveAspectRatio="xMinYMin meet"><svg width="4380" height="2430"><g><image crossorigin="anonymous" x="0" y="0" href="https://nftpuzzle.license-token.com/assets/completepuzzle.svg" width="100%" height="100%" /><g class="links"><use href="#t7054"/></g></g></svg><svg x="1145" y="1746" height="9%" width="9%" viewBox="0 0 330 330"><g><a xlink:href="https://nftpuzzle.license-token.com/" class="links"><title>See the most innovative NFT based token software licensing project</title><path fill="#E4CF37" id="more" d="M165,0C74.019,0,0,74.019,0,165s74.019,165,165,165s165-74.019,165-165S255.981,0,165,0z M85,190 c-13.785,0-25-11.215-25-25s11.215-25,25-25s25,11.215,25,25S98.785,190,85,190z M165,190c-13.785,0-25-11.215-25-25 s11.215-25,25-25s25,11.215,25,25S178.785,190,165,190z M245,190c-13.785,0-25-11.215-25-25s11.215-25,25-25 c13.785,0,25,11.215,25,25S258.785,190,245,190z"></path></a></g></svg></svg></svg>