<svg version="1.1" xmlns="http://www.w3.org/2000/svg" xmlns:xlink="http://www.w3.org/1999/xlink" fill="transparent" x="0" y="0" width="350" height="350" preserveAspectRatio="xMinYMin slice"><style type="text/css">.links{fill:transparent;stroke: #E4CF37;}.links:hover{fill:#63D272; opacity:0.4;}</style><defs><g id="allt"><path id="t706" d="M1881,160 L1870,161 C1860,163 1874,149 1863,149 C1853,150 1866,160 1857,160 L1848,160 1848,160 L1846,170 C1845,180 1857,164 1855,174 C1854,185 1848,170 1848,181 L1848,192 1848,192 L1858,190 C1869,189 1852,200 1863,199 C1874,198 1859,192 1870,192 L1881,192 1881,192 L1881,181 C1881,170 1879,185 1877,175 C1876,166 1881,178 1881,169 L1881,160"/></g><clipPath id="c" clipRule="evenodd" fill="transparent"><use href="#t706"/></clipPath></defs><svg viewBox="1844 148 38 53" preserveAspectRatio="xMinYMin meet"><svg width="4380" height="2430"><g><image crossorigin="anonymous" x="0" y="0" href="https://nftpuzzle.license-token.com/assets/completepuzzle.svg" width="100%" height="100%" /><g class="links"><use href="#t706"/></g></g></svg><svg x="1867" y="186" height="9%" width="9%" viewBox="0 0 330 330"><g><a xlink:href="https://nftpuzzle.license-token.com/" class="links"><title>See the most innovative NFT based token software licensing project</title><path fill="#E4CF37" id="more" d="M165,0C74.019,0,0,74.019,0,165s74.019,165,165,165s165-74.019,165-165S255.981,0,165,0z M85,190 c-13.785,0-25-11.215-25-25s11.215-25,25-25s25,11.215,25,25S98.785,190,85,190z M165,190c-13.785,0-25-11.215-25-25 s11.215-25,25-25s25,11.215,25,25S178.785,190,165,190z M245,190c-13.785,0-25-11.215-25-25s11.215-25,25-25 c13.785,0,25,11.215,25,25S258.785,190,245,190z"></path></a></g></svg></svg></svg>