<svg version="1.1" xmlns="http://www.w3.org/2000/svg" xmlns:xlink="http://www.w3.org/1999/xlink" fill="transparent" x="0" y="0" width="350" height="350" preserveAspectRatio="xMinYMin slice"><style type="text/css">.links{fill:transparent;stroke: #E4CF37;}.links:hover{fill:#63D272; opacity:0.4;}</style><defs><g id="allt"><path id="t7063" d="M1452,1728 L1441,1725 C1431,1723 1442,1738 1434,1737 C1426,1737 1438,1724 1428,1726 L1419,1728 1419,1728 L1419,1736 C1419,1745 1426,1736 1426,1743 C1427,1750 1419,1738 1419,1749 L1419,1760 1419,1760 L1428,1760 C1437,1760 1427,1767 1434,1767 C1442,1768 1430,1760 1441,1760 L1452,1760 1452,1760 L1452,1750 C1452,1740 1442,1750 1443,1742 C1444,1735 1457,1749 1454,1738 L1452,1728"/></g><clipPath id="c" clipRule="evenodd" fill="transparent"><use href="#t7063"/></clipPath></defs><svg viewBox="1418 1722 40 47" preserveAspectRatio="xMinYMin meet"><svg width="4380" height="2430"><g><image crossorigin="anonymous" x="0" y="0" href="https://nftpuzzle.license-token.com/assets/completepuzzle.svg" width="100%" height="100%" /><g class="links"><use href="#t7063"/></g></g></svg><svg x="1443" y="1754" height="9%" width="9%" viewBox="0 0 330 330"><g><a xlink:href="https://nftpuzzle.license-token.com/" class="links"><title>See the most innovative NFT based token software licensing project</title><path fill="#E4CF37" id="more" d="M165,0C74.019,0,0,74.019,0,165s74.019,165,165,165s165-74.019,165-165S255.981,0,165,0z M85,190 c-13.785,0-25-11.215-25-25s11.215-25,25-25s25,11.215,25,25S98.785,190,85,190z M165,190c-13.785,0-25-11.215-25-25 s11.215-25,25-25s25,11.215,25,25S178.785,190,165,190z M245,190c-13.785,0-25-11.215-25-25s11.215-25,25-25 c13.785,0,25,11.215,25,25S258.785,190,245,190z"></path></a></g></svg></svg></svg>