<svg version="1.1" xmlns="http://www.w3.org/2000/svg" xmlns:xlink="http://www.w3.org/1999/xlink" fill="transparent" x="0" y="0" width="350" height="350" preserveAspectRatio="xMinYMin slice"><style type="text/css">.links{fill:transparent;stroke: #E4CF37;}.links:hover{fill:#63D272; opacity:0.4;}</style><defs><g id="allt"><path id="t7064" d="M1485,1728 L1474,1728 C1463,1729 1477,1724 1467,1722 C1458,1721 1472,1730 1462,1729 L1452,1728 1452,1728 L1454,1738 C1457,1749 1444,1735 1443,1742 C1442,1750 1452,1740 1452,1750 L1452,1760 1452,1760 L1463,1762 C1474,1765 1459,1752 1467,1751 C1475,1750 1465,1760 1475,1760 L1485,1760 1485,1760 L1483,1750 C1481,1741 1494,1751 1494,1743 C1494,1736 1485,1745 1485,1736 L1485,1728"/></g><clipPath id="c" clipRule="evenodd" fill="transparent"><use href="#t7064"/></clipPath></defs><svg viewBox="1441 1720 54 46" preserveAspectRatio="xMinYMin meet"><svg width="4380" height="2430"><g><image crossorigin="anonymous" x="0" y="0" href="https://nftpuzzle.license-token.com/assets/completepuzzle.svg" width="100%" height="100%" /><g class="links"><use href="#t7064"/></g></g></svg><svg x="1480" y="1751" height="9%" width="9%" viewBox="0 0 330 330"><g><a xlink:href="https://nftpuzzle.license-token.com/" class="links"><title>See the most innovative NFT based token software licensing project</title><path fill="#E4CF37" id="more" d="M165,0C74.019,0,0,74.019,0,165s74.019,165,165,165s165-74.019,165-165S255.981,0,165,0z M85,190 c-13.785,0-25-11.215-25-25s11.215-25,25-25s25,11.215,25,25S98.785,190,85,190z M165,190c-13.785,0-25-11.215-25-25 s11.215-25,25-25s25,11.215,25,25S178.785,190,165,190z M245,190c-13.785,0-25-11.215-25-25s11.215-25,25-25 c13.785,0,25,11.215,25,25S258.785,190,245,190z"></path></a></g></svg></svg></svg>