<svg version="1.1" xmlns="http://www.w3.org/2000/svg" xmlns:xlink="http://www.w3.org/1999/xlink" fill="transparent" x="0" y="0" width="350" height="350" preserveAspectRatio="xMinYMin slice"><style type="text/css">.links{fill:transparent;stroke: #E4CF37;}.links:hover{fill:#63D272; opacity:0.4;}</style><defs><g id="allt"><path id="t7068" d="M1617,1728 L1607,1728 C1597,1728 1611,1715 1600,1717 C1590,1719 1602,1728 1593,1728 L1584,1728 1584,1728 L1584,1737 C1585,1747 1581,1735 1579,1742 C1577,1750 1584,1739 1584,1749 L1584,1760 1584,1760 L1593,1760 C1603,1761 1591,1757 1599,1755 C1607,1753 1595,1760 1606,1760 L1617,1760 1617,1760 L1617,1750 C1617,1741 1620,1752 1620,1743 C1620,1735 1615,1745 1616,1736 L1617,1728"/></g><clipPath id="c" clipRule="evenodd" fill="transparent"><use href="#t7068"/></clipPath></defs><svg viewBox="1576 1714 45 48" preserveAspectRatio="xMinYMin meet"><svg width="4380" height="2430"><g><image crossorigin="anonymous" x="0" y="0" href="https://nftpuzzle.license-token.com/assets/completepuzzle.svg" width="100%" height="100%" /><g class="links"><use href="#t7068"/></g></g></svg><svg x="1606" y="1747" height="9%" width="9%" viewBox="0 0 330 330"><g><a xlink:href="https://nftpuzzle.license-token.com/" class="links"><title>See the most innovative NFT based token software licensing project</title><path fill="#E4CF37" id="more" d="M165,0C74.019,0,0,74.019,0,165s74.019,165,165,165s165-74.019,165-165S255.981,0,165,0z M85,190 c-13.785,0-25-11.215-25-25s11.215-25,25-25s25,11.215,25,25S98.785,190,85,190z M165,190c-13.785,0-25-11.215-25-25 s11.215-25,25-25s25,11.215,25,25S178.785,190,165,190z M245,190c-13.785,0-25-11.215-25-25s11.215-25,25-25 c13.785,0,25,11.215,25,25S258.785,190,245,190z"></path></a></g></svg></svg></svg>