<svg version="1.1" xmlns="http://www.w3.org/2000/svg" xmlns:xlink="http://www.w3.org/1999/xlink" fill="transparent" x="0" y="0" width="350" height="350" preserveAspectRatio="xMinYMin slice"><style type="text/css">.links{fill:transparent;stroke: #E4CF37;}.links:hover{fill:#63D272; opacity:0.4;}</style><defs><g id="allt"><path id="t7069" d="M1650,1728 L1639,1729 C1629,1730 1641,1720 1633,1719 C1626,1718 1635,1732 1626,1730 L1617,1728 1617,1728 L1616,1736 C1615,1745 1620,1735 1620,1743 C1620,1752 1617,1741 1617,1750 L1617,1760 1617,1760 L1626,1759 C1635,1758 1624,1763 1633,1763 C1642,1763 1630,1760 1640,1760 L1650,1760 1650,1760 L1651,1750 C1653,1740 1645,1752 1643,1742 C1642,1732 1650,1747 1650,1737 L1650,1728"/></g><clipPath id="c" clipRule="evenodd" fill="transparent"><use href="#t7069"/></clipPath></defs><svg viewBox="1614 1717 40 47" preserveAspectRatio="xMinYMin meet"><svg width="4380" height="2430"><g><image crossorigin="anonymous" x="0" y="0" href="https://nftpuzzle.license-token.com/assets/completepuzzle.svg" width="100%" height="100%" /><g class="links"><use href="#t7069"/></g></g></svg><svg x="1639" y="1749" height="9%" width="9%" viewBox="0 0 330 330"><g><a xlink:href="https://nftpuzzle.license-token.com/" class="links"><title>See the most innovative NFT based token software licensing project</title><path fill="#E4CF37" id="more" d="M165,0C74.019,0,0,74.019,0,165s74.019,165,165,165s165-74.019,165-165S255.981,0,165,0z M85,190 c-13.785,0-25-11.215-25-25s11.215-25,25-25s25,11.215,25,25S98.785,190,85,190z M165,190c-13.785,0-25-11.215-25-25 s11.215-25,25-25s25,11.215,25,25S178.785,190,165,190z M245,190c-13.785,0-25-11.215-25-25s11.215-25,25-25 c13.785,0,25,11.215,25,25S258.785,190,245,190z"></path></a></g></svg></svg></svg>