<svg version="1.1" xmlns="http://www.w3.org/2000/svg" xmlns:xlink="http://www.w3.org/1999/xlink" fill="transparent" x="0" y="0" width="350" height="350" preserveAspectRatio="xMinYMin slice"><style type="text/css">.links{fill:transparent;stroke: #E4CF37;}.links:hover{fill:#63D272; opacity:0.4;}</style><defs><g id="allt"><path id="t707" d="M1914,160 L1904,159 C1894,159 1907,167 1898,166 C1890,166 1900,155 1890,157 L1881,160 1881,160 L1881,169 C1881,178 1876,166 1877,175 C1879,185 1881,170 1881,181 L1881,192 1881,192 L1890,192 C1900,192 1887,187 1897,188 C1907,190 1891,192 1902,192 L1914,192 1914,192 L1915,182 C1917,173 1905,186 1906,177 C1908,168 1916,179 1915,169 L1914,160"/></g><clipPath id="c" clipRule="evenodd" fill="transparent"><use href="#t707"/></clipPath></defs><svg viewBox="1875 154 43 39" preserveAspectRatio="xMinYMin meet"><svg width="4380" height="2430"><g><image crossorigin="anonymous" x="0" y="0" href="https://nftpuzzle.license-token.com/assets/completepuzzle.svg" width="100%" height="100%" /><g class="links"><use href="#t707"/></g></g></svg><svg x="1903" y="178" height="9%" width="9%" viewBox="0 0 330 330"><g><a xlink:href="https://nftpuzzle.license-token.com/" class="links"><title>See the most innovative NFT based token software licensing project</title><path fill="#E4CF37" id="more" d="M165,0C74.019,0,0,74.019,0,165s74.019,165,165,165s165-74.019,165-165S255.981,0,165,0z M85,190 c-13.785,0-25-11.215-25-25s11.215-25,25-25s25,11.215,25,25S98.785,190,85,190z M165,190c-13.785,0-25-11.215-25-25 s11.215-25,25-25s25,11.215,25,25S178.785,190,165,190z M245,190c-13.785,0-25-11.215-25-25s11.215-25,25-25 c13.785,0,25,11.215,25,25S258.785,190,245,190z"></path></a></g></svg></svg></svg>