<svg version="1.1" xmlns="http://www.w3.org/2000/svg" xmlns:xlink="http://www.w3.org/1999/xlink" fill="transparent" x="0" y="0" width="350" height="350" preserveAspectRatio="xMinYMin slice"><style type="text/css">.links{fill:transparent;stroke: #E4CF37;}.links:hover{fill:#63D272; opacity:0.4;}</style><defs><g id="allt"><path id="t7076" d="M1881,1728 L1871,1727 C1862,1727 1875,1734 1865,1734 C1856,1735 1868,1724 1858,1726 L1848,1728 1848,1728 L1849,1738 C1850,1748 1843,1736 1842,1745 C1842,1754 1850,1740 1849,1750 L1848,1760 1848,1760 L1858,1761 C1868,1762 1857,1755 1866,1754 C1875,1754 1861,1762 1871,1761 L1881,1760 1881,1760 L1881,1749 C1882,1738 1877,1752 1876,1742 C1876,1733 1882,1747 1881,1737 L1881,1728"/></g><clipPath id="c" clipRule="evenodd" fill="transparent"><use href="#t7076"/></clipPath></defs><svg viewBox="1841 1723 42 40" preserveAspectRatio="xMinYMin meet"><svg width="4380" height="2430"><g><image crossorigin="anonymous" x="0" y="0" href="https://nftpuzzle.license-token.com/assets/completepuzzle.svg" width="100%" height="100%" /><g class="links"><use href="#t7076"/></g></g></svg><svg x="1868" y="1748" height="9%" width="9%" viewBox="0 0 330 330"><g><a xlink:href="https://nftpuzzle.license-token.com/" class="links"><title>See the most innovative NFT based token software licensing project</title><path fill="#E4CF37" id="more" d="M165,0C74.019,0,0,74.019,0,165s74.019,165,165,165s165-74.019,165-165S255.981,0,165,0z M85,190 c-13.785,0-25-11.215-25-25s11.215-25,25-25s25,11.215,25,25S98.785,190,85,190z M165,190c-13.785,0-25-11.215-25-25 s11.215-25,25-25s25,11.215,25,25S178.785,190,165,190z M245,190c-13.785,0-25-11.215-25-25s11.215-25,25-25 c13.785,0,25,11.215,25,25S258.785,190,245,190z"></path></a></g></svg></svg></svg>