<svg version="1.1" xmlns="http://www.w3.org/2000/svg" xmlns:xlink="http://www.w3.org/1999/xlink" fill="transparent" x="0" y="0" width="350" height="350" preserveAspectRatio="xMinYMin slice"><style type="text/css">.links{fill:transparent;stroke: #E4CF37;}.links:hover{fill:#63D272; opacity:0.4;}</style><defs><g id="allt"><path id="t7077" d="M1914,1728 L1904,1729 C1895,1730 1907,1724 1897,1725 C1887,1726 1900,1728 1890,1728 L1881,1728 1881,1728 L1881,1737 C1882,1747 1876,1733 1876,1742 C1877,1752 1882,1738 1881,1749 L1881,1760 1881,1760 L1891,1760 C1901,1761 1886,1755 1896,1755 C1906,1756 1892,1761 1903,1760 L1914,1760 1914,1760 L1914,1749 C1915,1739 1922,1752 1921,1744 C1921,1736 1914,1745 1914,1736 L1914,1728"/></g><clipPath id="c" clipRule="evenodd" fill="transparent"><use href="#t7077"/></clipPath></defs><svg viewBox="1875 1723 48 39" preserveAspectRatio="xMinYMin meet"><svg width="4380" height="2430"><g><image crossorigin="anonymous" x="0" y="0" href="https://nftpuzzle.license-token.com/assets/completepuzzle.svg" width="100%" height="100%" /><g class="links"><use href="#t7077"/></g></g></svg><svg x="1908" y="1747" height="9%" width="9%" viewBox="0 0 330 330"><g><a xlink:href="https://nftpuzzle.license-token.com/" class="links"><title>See the most innovative NFT based token software licensing project</title><path fill="#E4CF37" id="more" d="M165,0C74.019,0,0,74.019,0,165s74.019,165,165,165s165-74.019,165-165S255.981,0,165,0z M85,190 c-13.785,0-25-11.215-25-25s11.215-25,25-25s25,11.215,25,25S98.785,190,85,190z M165,190c-13.785,0-25-11.215-25-25 s11.215-25,25-25s25,11.215,25,25S178.785,190,165,190z M245,190c-13.785,0-25-11.215-25-25s11.215-25,25-25 c13.785,0,25,11.215,25,25S258.785,190,245,190z"></path></a></g></svg></svg></svg>