<svg version="1.1" xmlns="http://www.w3.org/2000/svg" xmlns:xlink="http://www.w3.org/1999/xlink" fill="transparent" x="0" y="0" width="350" height="350" preserveAspectRatio="xMinYMin slice"><style type="text/css">.links{fill:transparent;stroke: #E4CF37;}.links:hover{fill:#63D272; opacity:0.4;}</style><defs><g id="allt"><path id="t7079" d="M1980,1728 L1970,1728 C1961,1728 1971,1719 1963,1720 C1956,1722 1967,1728 1957,1728 L1947,1728 1947,1728 L1945,1738 C1944,1748 1958,1734 1958,1743 C1959,1752 1947,1739 1947,1749 L1947,1760 1947,1760 L1957,1758 C1967,1757 1953,1770 1962,1771 C1972,1772 1959,1760 1969,1760 L1980,1760 1980,1760 L1980,1749 C1980,1738 1989,1754 1989,1745 C1989,1737 1979,1748 1979,1738 L1980,1728"/></g><clipPath id="c" clipRule="evenodd" fill="transparent"><use href="#t7079"/></clipPath></defs><svg viewBox="1943 1718 47 55" preserveAspectRatio="xMinYMin meet"><svg width="4380" height="2430"><g><image crossorigin="anonymous" x="0" y="0" href="https://nftpuzzle.license-token.com/assets/completepuzzle.svg" width="100%" height="100%" /><g class="links"><use href="#t7079"/></g></g></svg><svg x="1975" y="1758" height="9%" width="9%" viewBox="0 0 330 330"><g><a xlink:href="https://nftpuzzle.license-token.com/" class="links"><title>See the most innovative NFT based token software licensing project</title><path fill="#E4CF37" id="more" d="M165,0C74.019,0,0,74.019,0,165s74.019,165,165,165s165-74.019,165-165S255.981,0,165,0z M85,190 c-13.785,0-25-11.215-25-25s11.215-25,25-25s25,11.215,25,25S98.785,190,85,190z M165,190c-13.785,0-25-11.215-25-25 s11.215-25,25-25s25,11.215,25,25S178.785,190,165,190z M245,190c-13.785,0-25-11.215-25-25s11.215-25,25-25 c13.785,0,25,11.215,25,25S258.785,190,245,190z"></path></a></g></svg></svg></svg>