<svg version="1.1" xmlns="http://www.w3.org/2000/svg" xmlns:xlink="http://www.w3.org/1999/xlink" fill="transparent" x="0" y="0" width="350" height="350" preserveAspectRatio="xMinYMin slice"><style type="text/css">.links{fill:transparent;stroke: #E4CF37;}.links:hover{fill:#63D272; opacity:0.4;}</style><defs><g id="allt"><path id="t7086" d="M2211,1728 L2201,1728 C2191,1728 2203,1721 2193,1720 C2183,1719 2199,1732 2188,1730 L2178,1728 2178,1728 L2178,1738 C2179,1749 2173,1734 2172,1742 C2171,1751 2178,1741 2178,1750 L2178,1760 2178,1760 L2188,1760 C2199,1761 2184,1755 2193,1754 C2202,1753 2191,1760 2201,1760 L2211,1760 2211,1760 L2209,1749 C2207,1739 2216,1752 2217,1743 C2219,1735 2211,1749 2211,1738 L2211,1728"/></g><clipPath id="c" clipRule="evenodd" fill="transparent"><use href="#t7086"/></clipPath></defs><svg viewBox="2170 1718 50 44" preserveAspectRatio="xMinYMin meet"><svg width="4380" height="2430"><g><image crossorigin="anonymous" x="0" y="0" href="https://nftpuzzle.license-token.com/assets/completepuzzle.svg" width="100%" height="100%" /><g class="links"><use href="#t7086"/></g></g></svg><svg x="2205" y="1747" height="9%" width="9%" viewBox="0 0 330 330"><g><a xlink:href="https://nftpuzzle.license-token.com/" class="links"><title>See the most innovative NFT based token software licensing project</title><path fill="#E4CF37" id="more" d="M165,0C74.019,0,0,74.019,0,165s74.019,165,165,165s165-74.019,165-165S255.981,0,165,0z M85,190 c-13.785,0-25-11.215-25-25s11.215-25,25-25s25,11.215,25,25S98.785,190,85,190z M165,190c-13.785,0-25-11.215-25-25 s11.215-25,25-25s25,11.215,25,25S178.785,190,165,190z M245,190c-13.785,0-25-11.215-25-25s11.215-25,25-25 c13.785,0,25,11.215,25,25S258.785,190,245,190z"></path></a></g></svg></svg></svg>