<svg version="1.1" xmlns="http://www.w3.org/2000/svg" xmlns:xlink="http://www.w3.org/1999/xlink" fill="transparent" x="0" y="0" width="350" height="350" preserveAspectRatio="xMinYMin slice"><style type="text/css">.links{fill:transparent;stroke: #E4CF37;}.links:hover{fill:#63D272; opacity:0.4;}</style><defs><g id="allt"><path id="t7087" d="M2244,1728 L2233,1728 C2222,1728 2237,1731 2228,1731 C2219,1732 2232,1728 2221,1728 L2211,1728 2211,1728 L2211,1738 C2211,1749 2219,1735 2217,1743 C2216,1752 2207,1739 2209,1749 L2211,1760 2211,1760 L2221,1760 C2232,1760 2218,1768 2226,1766 C2235,1765 2222,1756 2233,1758 L2244,1760 2244,1760 L2244,1749 C2244,1739 2250,1754 2249,1744 C2249,1734 2241,1748 2242,1738 L2244,1728"/></g><clipPath id="c" clipRule="evenodd" fill="transparent"><use href="#t7087"/></clipPath></defs><svg viewBox="2206 1727 45 42" preserveAspectRatio="xMinYMin meet"><svg width="4380" height="2430"><g><image crossorigin="anonymous" x="0" y="0" href="https://nftpuzzle.license-token.com/assets/completepuzzle.svg" width="100%" height="100%" /><g class="links"><use href="#t7087"/></g></g></svg><svg x="2236" y="1754" height="9%" width="9%" viewBox="0 0 330 330"><g><a xlink:href="https://nftpuzzle.license-token.com/" class="links"><title>See the most innovative NFT based token software licensing project</title><path fill="#E4CF37" id="more" d="M165,0C74.019,0,0,74.019,0,165s74.019,165,165,165s165-74.019,165-165S255.981,0,165,0z M85,190 c-13.785,0-25-11.215-25-25s11.215-25,25-25s25,11.215,25,25S98.785,190,85,190z M165,190c-13.785,0-25-11.215-25-25 s11.215-25,25-25s25,11.215,25,25S178.785,190,165,190z M245,190c-13.785,0-25-11.215-25-25s11.215-25,25-25 c13.785,0,25,11.215,25,25S258.785,190,245,190z"></path></a></g></svg></svg></svg>