<svg version="1.1" xmlns="http://www.w3.org/2000/svg" xmlns:xlink="http://www.w3.org/1999/xlink" fill="transparent" x="0" y="0" width="350" height="350" preserveAspectRatio="xMinYMin slice"><style type="text/css">.links{fill:transparent;stroke: #E4CF37;}.links:hover{fill:#63D272; opacity:0.4;}</style><defs><g id="allt"><path id="t7089" d="M2310,1728 L2298,1728 C2287,1728 2303,1732 2294,1731 C2286,1731 2299,1728 2288,1728 L2277,1728 2277,1728 L2278,1738 C2279,1749 2273,1733 2271,1743 C2269,1753 2280,1739 2278,1749 L2277,1760 2277,1760 L2287,1761 C2298,1762 2282,1756 2292,1754 C2303,1752 2288,1763 2299,1761 L2310,1760 2310,1760 L2310,1749 C2310,1739 2303,1754 2302,1744 C2302,1734 2313,1746 2311,1737 L2310,1728"/></g><clipPath id="c" clipRule="evenodd" fill="transparent"><use href="#t7089"/></clipPath></defs><svg viewBox="2268 1727 46 37" preserveAspectRatio="xMinYMin meet"><svg width="4380" height="2430"><g><image crossorigin="anonymous" x="0" y="0" href="https://nftpuzzle.license-token.com/assets/completepuzzle.svg" width="100%" height="100%" /><g class="links"><use href="#t7089"/></g></g></svg><svg x="2299" y="1749" height="9%" width="9%" viewBox="0 0 330 330"><g><a xlink:href="https://nftpuzzle.license-token.com/" class="links"><title>See the most innovative NFT based token software licensing project</title><path fill="#E4CF37" id="more" d="M165,0C74.019,0,0,74.019,0,165s74.019,165,165,165s165-74.019,165-165S255.981,0,165,0z M85,190 c-13.785,0-25-11.215-25-25s11.215-25,25-25s25,11.215,25,25S98.785,190,85,190z M165,190c-13.785,0-25-11.215-25-25 s11.215-25,25-25s25,11.215,25,25S178.785,190,165,190z M245,190c-13.785,0-25-11.215-25-25s11.215-25,25-25 c13.785,0,25,11.215,25,25S258.785,190,245,190z"></path></a></g></svg></svg></svg>