<svg version="1.1" xmlns="http://www.w3.org/2000/svg" xmlns:xlink="http://www.w3.org/1999/xlink" fill="transparent" x="0" y="0" width="350" height="350" preserveAspectRatio="xMinYMin slice"><style type="text/css">.links{fill:transparent;stroke: #E4CF37;}.links:hover{fill:#63D272; opacity:0.4;}</style><defs><g id="allt"><path id="t7093" d="M2442,1728 L2431,1728 C2420,1728 2433,1724 2423,1724 C2413,1724 2431,1728 2420,1728 L2409,1728 2409,1728 L2409,1737 C2409,1747 2401,1734 2402,1744 C2403,1754 2410,1741 2409,1750 L2409,1760 2409,1760 L2419,1760 C2429,1760 2415,1752 2425,1753 C2436,1754 2423,1761 2432,1760 L2442,1760 2442,1760 L2442,1750 C2442,1740 2438,1751 2438,1743 C2439,1735 2442,1745 2442,1736 L2442,1728"/></g><clipPath id="c" clipRule="evenodd" fill="transparent"><use href="#t7093"/></clipPath></defs><svg viewBox="2400 1723 43 39" preserveAspectRatio="xMinYMin meet"><svg width="4380" height="2430"><g><image crossorigin="anonymous" x="0" y="0" href="https://nftpuzzle.license-token.com/assets/completepuzzle.svg" width="100%" height="100%" /><g class="links"><use href="#t7093"/></g></g></svg><svg x="2428" y="1747" height="9%" width="9%" viewBox="0 0 330 330"><g><a xlink:href="https://nftpuzzle.license-token.com/" class="links"><title>See the most innovative NFT based token software licensing project</title><path fill="#E4CF37" id="more" d="M165,0C74.019,0,0,74.019,0,165s74.019,165,165,165s165-74.019,165-165S255.981,0,165,0z M85,190 c-13.785,0-25-11.215-25-25s11.215-25,25-25s25,11.215,25,25S98.785,190,85,190z M165,190c-13.785,0-25-11.215-25-25 s11.215-25,25-25s25,11.215,25,25S178.785,190,165,190z M245,190c-13.785,0-25-11.215-25-25s11.215-25,25-25 c13.785,0,25,11.215,25,25S258.785,190,245,190z"></path></a></g></svg></svg></svg>