<svg version="1.1" xmlns="http://www.w3.org/2000/svg" xmlns:xlink="http://www.w3.org/1999/xlink" fill="transparent" x="0" y="0" width="350" height="350" preserveAspectRatio="xMinYMin slice"><style type="text/css">.links{fill:transparent;stroke: #E4CF37;}.links:hover{fill:#63D272; opacity:0.4;}</style><defs><g id="allt"><path id="t7095" d="M2508,1728 L2497,1728 C2486,1729 2501,1724 2492,1723 C2483,1723 2493,1728 2484,1728 L2475,1728 2475,1728 L2475,1737 C2475,1746 2480,1737 2480,1743 C2481,1750 2474,1741 2474,1750 L2475,1760 2475,1760 L2484,1760 C2493,1760 2484,1765 2491,1765 C2498,1766 2489,1759 2498,1759 L2508,1760 2508,1760 L2508,1750 C2509,1741 2503,1751 2503,1743 C2504,1736 2508,1747 2508,1737 L2508,1728"/></g><clipPath id="c" clipRule="evenodd" fill="transparent"><use href="#t7095"/></clipPath></defs><svg viewBox="2473 1722 37 45" preserveAspectRatio="xMinYMin meet"><svg width="4380" height="2430"><g><image crossorigin="anonymous" x="0" y="0" href="https://nftpuzzle.license-token.com/assets/completepuzzle.svg" width="100%" height="100%" /><g class="links"><use href="#t7095"/></g></g></svg><svg x="2495" y="1752" height="9%" width="9%" viewBox="0 0 330 330"><g><a xlink:href="https://nftpuzzle.license-token.com/" class="links"><title>See the most innovative NFT based token software licensing project</title><path fill="#E4CF37" id="more" d="M165,0C74.019,0,0,74.019,0,165s74.019,165,165,165s165-74.019,165-165S255.981,0,165,0z M85,190 c-13.785,0-25-11.215-25-25s11.215-25,25-25s25,11.215,25,25S98.785,190,85,190z M165,190c-13.785,0-25-11.215-25-25 s11.215-25,25-25s25,11.215,25,25S178.785,190,165,190z M245,190c-13.785,0-25-11.215-25-25s11.215-25,25-25 c13.785,0,25,11.215,25,25S258.785,190,245,190z"></path></a></g></svg></svg></svg>