<svg version="1.1" xmlns="http://www.w3.org/2000/svg" xmlns:xlink="http://www.w3.org/1999/xlink" fill="transparent" x="0" y="0" width="350" height="350" preserveAspectRatio="xMinYMin slice"><style type="text/css">.links{fill:transparent;stroke: #E4CF37;}.links:hover{fill:#63D272; opacity:0.4;}</style><defs><g id="allt"><path id="t7097" d="M2574,1728 L2564,1728 C2554,1729 2567,1723 2558,1723 C2550,1723 2562,1728 2551,1728 L2541,1728 2541,1728 L2539,1738 C2537,1748 2549,1732 2549,1742 C2550,1752 2540,1739 2540,1749 L2541,1760 2541,1760 L2551,1758 C2561,1756 2545,1768 2555,1768 C2566,1769 2552,1759 2563,1759 L2574,1760 2574,1760 L2574,1750 C2575,1741 2568,1751 2567,1742 C2567,1733 2574,1749 2574,1738 L2574,1728"/></g><clipPath id="c" clipRule="evenodd" fill="transparent"><use href="#t7097"/></clipPath></defs><svg viewBox="2536 1722 40 48" preserveAspectRatio="xMinYMin meet"><svg width="4380" height="2430"><g><image crossorigin="anonymous" x="0" y="0" href="https://nftpuzzle.license-token.com/assets/completepuzzle.svg" width="100%" height="100%" /><g class="links"><use href="#t7097"/></g></g></svg><svg x="2561" y="1755" height="9%" width="9%" viewBox="0 0 330 330"><g><a xlink:href="https://nftpuzzle.license-token.com/" class="links"><title>See the most innovative NFT based token software licensing project</title><path fill="#E4CF37" id="more" d="M165,0C74.019,0,0,74.019,0,165s74.019,165,165,165s165-74.019,165-165S255.981,0,165,0z M85,190 c-13.785,0-25-11.215-25-25s11.215-25,25-25s25,11.215,25,25S98.785,190,85,190z M165,190c-13.785,0-25-11.215-25-25 s11.215-25,25-25s25,11.215,25,25S178.785,190,165,190z M245,190c-13.785,0-25-11.215-25-25s11.215-25,25-25 c13.785,0,25,11.215,25,25S258.785,190,245,190z"></path></a></g></svg></svg></svg>