<svg version="1.1" xmlns="http://www.w3.org/2000/svg" xmlns:xlink="http://www.w3.org/1999/xlink" fill="transparent" x="0" y="0" width="350" height="350" preserveAspectRatio="xMinYMin slice"><style type="text/css">.links{fill:transparent;stroke: #E4CF37;}.links:hover{fill:#63D272; opacity:0.4;}</style><defs><g id="allt"><path id="t710" d="M2013,160 L2001,160 C1990,160 2003,157 1994,155 C1986,154 1999,162 1989,161 L1980,160 1980,160 L1980,169 C1980,178 1976,168 1977,175 C1978,183 1980,172 1980,182 L1980,192 1980,192 L1989,192 C1998,192 1988,188 1996,189 C2004,190 1993,192 2003,192 L2013,192 2013,192 L2013,182 C2013,173 2006,184 2004,174 C2002,165 2014,179 2013,169 L2013,160"/></g><clipPath id="c" clipRule="evenodd" fill="transparent"><use href="#t710"/></clipPath></defs><svg viewBox="1975 153 40 40" preserveAspectRatio="xMinYMin meet"><svg width="4380" height="2430"><g><image crossorigin="anonymous" x="0" y="0" href="https://nftpuzzle.license-token.com/assets/completepuzzle.svg" width="100%" height="100%" /><g class="links"><use href="#t710"/></g></g></svg><svg x="2000" y="178" height="9%" width="9%" viewBox="0 0 330 330"><g><a xlink:href="https://nftpuzzle.license-token.com/" class="links"><title>See the most innovative NFT based token software licensing project</title><path fill="#E4CF37" id="more" d="M165,0C74.019,0,0,74.019,0,165s74.019,165,165,165s165-74.019,165-165S255.981,0,165,0z M85,190 c-13.785,0-25-11.215-25-25s11.215-25,25-25s25,11.215,25,25S98.785,190,85,190z M165,190c-13.785,0-25-11.215-25-25 s11.215-25,25-25s25,11.215,25,25S178.785,190,165,190z M245,190c-13.785,0-25-11.215-25-25s11.215-25,25-25 c13.785,0,25,11.215,25,25S258.785,190,245,190z"></path></a></g></svg></svg></svg>