<svg version="1.1" xmlns="http://www.w3.org/2000/svg" xmlns:xlink="http://www.w3.org/1999/xlink" fill="transparent" x="0" y="0" width="350" height="350" preserveAspectRatio="xMinYMin slice"><style type="text/css">.links{fill:transparent;stroke: #E4CF37;}.links:hover{fill:#63D272; opacity:0.4;}</style><defs><g id="allt"><path id="t7102" d="M2739,1728 L2728,1729 C2718,1731 2733,1722 2722,1721 C2711,1720 2728,1728 2717,1728 L2706,1728 2706,1728 L2706,1736 C2706,1745 2698,1736 2697,1745 C2697,1754 2708,1739 2707,1749 L2706,1760 2706,1760 L2715,1760 C2724,1760 2714,1752 2723,1752 C2733,1752 2717,1762 2728,1761 L2739,1760 2739,1760 L2739,1750 C2739,1741 2736,1750 2735,1742 C2734,1735 2741,1747 2740,1737 L2739,1728"/></g><clipPath id="c" clipRule="evenodd" fill="transparent"><use href="#t7102"/></clipPath></defs><svg viewBox="2696 1719 46 44" preserveAspectRatio="xMinYMin meet"><svg width="4380" height="2430"><g><image crossorigin="anonymous" x="0" y="0" href="https://nftpuzzle.license-token.com/assets/completepuzzle.svg" width="100%" height="100%" /><g class="links"><use href="#t7102"/></g></g></svg><svg x="2727" y="1748" height="9%" width="9%" viewBox="0 0 330 330"><g><a xlink:href="https://nftpuzzle.license-token.com/" class="links"><title>See the most innovative NFT based token software licensing project</title><path fill="#E4CF37" id="more" d="M165,0C74.019,0,0,74.019,0,165s74.019,165,165,165s165-74.019,165-165S255.981,0,165,0z M85,190 c-13.785,0-25-11.215-25-25s11.215-25,25-25s25,11.215,25,25S98.785,190,85,190z M165,190c-13.785,0-25-11.215-25-25 s11.215-25,25-25s25,11.215,25,25S178.785,190,165,190z M245,190c-13.785,0-25-11.215-25-25s11.215-25,25-25 c13.785,0,25,11.215,25,25S258.785,190,245,190z"></path></a></g></svg></svg></svg>