<svg version="1.1" xmlns="http://www.w3.org/2000/svg" xmlns:xlink="http://www.w3.org/1999/xlink" fill="transparent" x="0" y="0" width="350" height="350" preserveAspectRatio="xMinYMin slice"><style type="text/css">.links{fill:transparent;stroke: #E4CF37;}.links:hover{fill:#63D272; opacity:0.4;}</style><defs><g id="allt"><path id="t7105" d="M2838,1728 L2827,1730 C2817,1733 2830,1720 2821,1718 C2813,1716 2825,1729 2815,1728 L2805,1728 2805,1728 L2804,1738 C2803,1749 2811,1736 2811,1744 C2811,1753 2805,1740 2805,1750 L2805,1760 2805,1760 L2816,1759 C2827,1758 2813,1766 2822,1766 C2831,1766 2817,1760 2827,1760 L2838,1760 2838,1760 L2837,1749 C2837,1739 2842,1754 2842,1744 C2842,1734 2837,1745 2837,1736 L2838,1728"/></g><clipPath id="c" clipRule="evenodd" fill="transparent"><use href="#t7105"/></clipPath></defs><svg viewBox="2802 1715 41 52" preserveAspectRatio="xMinYMin meet"><svg width="4380" height="2430"><g><image crossorigin="anonymous" x="0" y="0" href="https://nftpuzzle.license-token.com/assets/completepuzzle.svg" width="100%" height="100%" /><g class="links"><use href="#t7105"/></g></g></svg><svg x="2828" y="1752" height="9%" width="9%" viewBox="0 0 330 330"><g><a xlink:href="https://nftpuzzle.license-token.com/" class="links"><title>See the most innovative NFT based token software licensing project</title><path fill="#E4CF37" id="more" d="M165,0C74.019,0,0,74.019,0,165s74.019,165,165,165s165-74.019,165-165S255.981,0,165,0z M85,190 c-13.785,0-25-11.215-25-25s11.215-25,25-25s25,11.215,25,25S98.785,190,85,190z M165,190c-13.785,0-25-11.215-25-25 s11.215-25,25-25s25,11.215,25,25S178.785,190,165,190z M245,190c-13.785,0-25-11.215-25-25s11.215-25,25-25 c13.785,0,25,11.215,25,25S258.785,190,245,190z"></path></a></g></svg></svg></svg>