<svg version="1.1" xmlns="http://www.w3.org/2000/svg" xmlns:xlink="http://www.w3.org/1999/xlink" fill="transparent" x="0" y="0" width="350" height="350" preserveAspectRatio="xMinYMin slice"><style type="text/css">.links{fill:transparent;stroke: #E4CF37;}.links:hover{fill:#63D272; opacity:0.4;}</style><defs><g id="allt"><path id="t7108" d="M2937,1728 L2926,1727 C2916,1726 2927,1736 2919,1736 C2912,1736 2923,1728 2913,1728 L2904,1728 2904,1728 L2902,1736 C2901,1745 2909,1733 2911,1743 C2914,1754 2903,1741 2903,1750 L2904,1760 2904,1760 L2913,1758 C2922,1757 2909,1765 2920,1767 C2931,1769 2918,1759 2927,1759 L2937,1760 2937,1760 L2937,1750 C2937,1740 2949,1753 2947,1744 C2945,1736 2935,1745 2936,1736 L2937,1728"/></g><clipPath id="c" clipRule="evenodd" fill="transparent"><use href="#t7108"/></clipPath></defs><svg viewBox="2900 1725 50 45" preserveAspectRatio="xMinYMin meet"><svg width="4380" height="2430"><g><image crossorigin="anonymous" x="0" y="0" href="https://nftpuzzle.license-token.com/assets/completepuzzle.svg" width="100%" height="100%" /><g class="links"><use href="#t7108"/></g></g></svg><svg x="2935" y="1755" height="9%" width="9%" viewBox="0 0 330 330"><g><a xlink:href="https://nftpuzzle.license-token.com/" class="links"><title>See the most innovative NFT based token software licensing project</title><path fill="#E4CF37" id="more" d="M165,0C74.019,0,0,74.019,0,165s74.019,165,165,165s165-74.019,165-165S255.981,0,165,0z M85,190 c-13.785,0-25-11.215-25-25s11.215-25,25-25s25,11.215,25,25S98.785,190,85,190z M165,190c-13.785,0-25-11.215-25-25 s11.215-25,25-25s25,11.215,25,25S178.785,190,165,190z M245,190c-13.785,0-25-11.215-25-25s11.215-25,25-25 c13.785,0,25,11.215,25,25S258.785,190,245,190z"></path></a></g></svg></svg></svg>