<svg version="1.1" xmlns="http://www.w3.org/2000/svg" xmlns:xlink="http://www.w3.org/1999/xlink" fill="transparent" x="0" y="0" width="350" height="350" preserveAspectRatio="xMinYMin slice"><style type="text/css">.links{fill:transparent;stroke: #E4CF37;}.links:hover{fill:#63D272; opacity:0.4;}</style><defs><g id="allt"><path id="t7109" d="M2970,1728 L2960,1729 C2950,1731 2960,1719 2951,1718 C2943,1718 2956,1733 2946,1730 L2937,1728 2937,1728 L2936,1736 C2935,1745 2945,1736 2947,1744 C2949,1753 2937,1740 2937,1750 L2937,1760 2937,1760 L2946,1759 C2955,1758 2945,1768 2954,1770 C2963,1772 2950,1760 2960,1760 L2970,1760 2970,1760 L2969,1750 C2969,1740 2976,1754 2975,1745 C2975,1736 2968,1746 2969,1737 L2970,1728"/></g><clipPath id="c" clipRule="evenodd" fill="transparent"><use href="#t7109"/></clipPath></defs><svg viewBox="2934 1717 43 56" preserveAspectRatio="xMinYMin meet"><svg width="4380" height="2430"><g><image crossorigin="anonymous" x="0" y="0" href="https://nftpuzzle.license-token.com/assets/completepuzzle.svg" width="100%" height="100%" /><g class="links"><use href="#t7109"/></g></g></svg><svg x="2962" y="1758" height="9%" width="9%" viewBox="0 0 330 330"><g><a xlink:href="https://nftpuzzle.license-token.com/" class="links"><title>See the most innovative NFT based token software licensing project</title><path fill="#E4CF37" id="more" d="M165,0C74.019,0,0,74.019,0,165s74.019,165,165,165s165-74.019,165-165S255.981,0,165,0z M85,190 c-13.785,0-25-11.215-25-25s11.215-25,25-25s25,11.215,25,25S98.785,190,85,190z M165,190c-13.785,0-25-11.215-25-25 s11.215-25,25-25s25,11.215,25,25S178.785,190,165,190z M245,190c-13.785,0-25-11.215-25-25s11.215-25,25-25 c13.785,0,25,11.215,25,25S258.785,190,245,190z"></path></a></g></svg></svg></svg>