<svg version="1.1" xmlns="http://www.w3.org/2000/svg" xmlns:xlink="http://www.w3.org/1999/xlink" fill="transparent" x="0" y="0" width="350" height="350" preserveAspectRatio="xMinYMin slice"><style type="text/css">.links{fill:transparent;stroke: #E4CF37;}.links:hover{fill:#63D272; opacity:0.4;}</style><defs><g id="allt"><path id="t711" d="M2046,160 L2035,160 C2025,160 2037,166 2027,166 C2018,167 2031,158 2022,159 L2013,160 2013,160 L2013,169 C2014,179 2002,165 2004,174 C2006,184 2013,173 2013,182 L2013,192 2013,192 L2023,192 C2033,193 2018,182 2028,183 C2038,185 2026,192 2036,192 L2046,192 2046,192 L2046,182 C2047,172 2044,184 2043,175 C2043,166 2048,179 2047,169 L2046,160"/></g><clipPath id="c" clipRule="evenodd" fill="transparent"><use href="#t711"/></clipPath></defs><svg viewBox="2001 157 48 37" preserveAspectRatio="xMinYMin meet"><svg width="4380" height="2430"><g><image crossorigin="anonymous" x="0" y="0" href="https://nftpuzzle.license-token.com/assets/completepuzzle.svg" width="100%" height="100%" /><g class="links"><use href="#t711"/></g></g></svg><svg x="2034" y="179" height="9%" width="9%" viewBox="0 0 330 330"><g><a xlink:href="https://nftpuzzle.license-token.com/" class="links"><title>See the most innovative NFT based token software licensing project</title><path fill="#E4CF37" id="more" d="M165,0C74.019,0,0,74.019,0,165s74.019,165,165,165s165-74.019,165-165S255.981,0,165,0z M85,190 c-13.785,0-25-11.215-25-25s11.215-25,25-25s25,11.215,25,25S98.785,190,85,190z M165,190c-13.785,0-25-11.215-25-25 s11.215-25,25-25s25,11.215,25,25S178.785,190,165,190z M245,190c-13.785,0-25-11.215-25-25s11.215-25,25-25 c13.785,0,25,11.215,25,25S258.785,190,245,190z"></path></a></g></svg></svg></svg>