<svg version="1.1" xmlns="http://www.w3.org/2000/svg" xmlns:xlink="http://www.w3.org/1999/xlink" fill="transparent" x="0" y="0" width="350" height="350" preserveAspectRatio="xMinYMin slice"><style type="text/css">.links{fill:transparent;stroke: #E4CF37;}.links:hover{fill:#63D272; opacity:0.4;}</style><defs><g id="allt"><path id="t7110" d="M3003,1728 L2993,1728 C2983,1729 2994,1738 2985,1736 C2976,1735 2988,1726 2979,1727 L2970,1728 2970,1728 L2969,1737 C2968,1746 2975,1736 2975,1745 C2976,1754 2969,1740 2969,1750 L2970,1760 2970,1760 L2979,1759 C2989,1758 2978,1765 2987,1765 C2997,1766 2983,1759 2993,1759 L3003,1760 3003,1760 L3003,1749 C3004,1738 2997,1752 2998,1742 C3000,1733 3005,1749 3004,1738 L3003,1728"/></g><clipPath id="c" clipRule="evenodd" fill="transparent"><use href="#t7110"/></clipPath></defs><svg viewBox="2967 1725 39 42" preserveAspectRatio="xMinYMin meet"><svg width="4380" height="2430"><g><image crossorigin="anonymous" x="0" y="0" href="https://nftpuzzle.license-token.com/assets/completepuzzle.svg" width="100%" height="100%" /><g class="links"><use href="#t7110"/></g></g></svg><svg x="2991" y="1752" height="9%" width="9%" viewBox="0 0 330 330"><g><a xlink:href="https://nftpuzzle.license-token.com/" class="links"><title>See the most innovative NFT based token software licensing project</title><path fill="#E4CF37" id="more" d="M165,0C74.019,0,0,74.019,0,165s74.019,165,165,165s165-74.019,165-165S255.981,0,165,0z M85,190 c-13.785,0-25-11.215-25-25s11.215-25,25-25s25,11.215,25,25S98.785,190,85,190z M165,190c-13.785,0-25-11.215-25-25 s11.215-25,25-25s25,11.215,25,25S178.785,190,165,190z M245,190c-13.785,0-25-11.215-25-25s11.215-25,25-25 c13.785,0,25,11.215,25,25S258.785,190,245,190z"></path></a></g></svg></svg></svg>