<svg version="1.1" xmlns="http://www.w3.org/2000/svg" xmlns:xlink="http://www.w3.org/1999/xlink" fill="transparent" x="0" y="0" width="350" height="350" preserveAspectRatio="xMinYMin slice"><style type="text/css">.links{fill:transparent;stroke: #E4CF37;}.links:hover{fill:#63D272; opacity:0.4;}</style><defs><g id="allt"><path id="t7111" d="M3036,1728 L3025,1728 C3014,1728 3029,1732 3020,1733 C3012,1734 3023,1728 3013,1728 L3003,1728 3003,1728 L3004,1738 C3005,1749 3000,1733 2998,1742 C2997,1752 3004,1738 3003,1749 L3003,1760 3003,1760 L3014,1761 C3025,1762 3008,1757 3018,1755 C3028,1754 3013,1761 3024,1760 L3036,1760 3036,1760 L3036,1749 C3036,1739 3028,1752 3027,1742 C3026,1733 3036,1745 3036,1736 L3036,1728"/></g><clipPath id="c" clipRule="evenodd" fill="transparent"><use href="#t7111"/></clipPath></defs><svg viewBox="2996 1727 41 36" preserveAspectRatio="xMinYMin meet"><svg width="4380" height="2430"><g><image crossorigin="anonymous" x="0" y="0" href="https://nftpuzzle.license-token.com/assets/completepuzzle.svg" width="100%" height="100%" /><g class="links"><use href="#t7111"/></g></g></svg><svg x="3022" y="1748" height="9%" width="9%" viewBox="0 0 330 330"><g><a xlink:href="https://nftpuzzle.license-token.com/" class="links"><title>See the most innovative NFT based token software licensing project</title><path fill="#E4CF37" id="more" d="M165,0C74.019,0,0,74.019,0,165s74.019,165,165,165s165-74.019,165-165S255.981,0,165,0z M85,190 c-13.785,0-25-11.215-25-25s11.215-25,25-25s25,11.215,25,25S98.785,190,85,190z M165,190c-13.785,0-25-11.215-25-25 s11.215-25,25-25s25,11.215,25,25S178.785,190,165,190z M245,190c-13.785,0-25-11.215-25-25s11.215-25,25-25 c13.785,0,25,11.215,25,25S258.785,190,245,190z"></path></a></g></svg></svg></svg>