<svg version="1.1" xmlns="http://www.w3.org/2000/svg" xmlns:xlink="http://www.w3.org/1999/xlink" fill="transparent" x="0" y="0" width="350" height="350" preserveAspectRatio="xMinYMin slice"><style type="text/css">.links{fill:transparent;stroke: #E4CF37;}.links:hover{fill:#63D272; opacity:0.4;}</style><defs><g id="allt"><path id="t7114" d="M3135,1728 L3124,1730 C3113,1732 3127,1722 3117,1719 C3107,1716 3122,1729 3112,1728 L3102,1728 3102,1728 L3102,1737 C3103,1746 3094,1732 3096,1741 C3098,1751 3105,1741 3103,1750 L3102,1760 3102,1760 L3111,1760 C3121,1761 3106,1752 3116,1754 C3126,1756 3115,1763 3125,1761 L3135,1760 3135,1760 L3135,1749 C3135,1738 3142,1753 3141,1744 C3141,1735 3130,1747 3132,1737 L3135,1728"/></g><clipPath id="c" clipRule="evenodd" fill="transparent"><use href="#t7114"/></clipPath></defs><svg viewBox="3093 1715 50 49" preserveAspectRatio="xMinYMin meet"><svg width="4380" height="2430"><g><image crossorigin="anonymous" x="0" y="0" href="https://nftpuzzle.license-token.com/assets/completepuzzle.svg" width="100%" height="100%" /><g class="links"><use href="#t7114"/></g></g></svg><svg x="3128" y="1749" height="9%" width="9%" viewBox="0 0 330 330"><g><a xlink:href="https://nftpuzzle.license-token.com/" class="links"><title>See the most innovative NFT based token software licensing project</title><path fill="#E4CF37" id="more" d="M165,0C74.019,0,0,74.019,0,165s74.019,165,165,165s165-74.019,165-165S255.981,0,165,0z M85,190 c-13.785,0-25-11.215-25-25s11.215-25,25-25s25,11.215,25,25S98.785,190,85,190z M165,190c-13.785,0-25-11.215-25-25 s11.215-25,25-25s25,11.215,25,25S178.785,190,165,190z M245,190c-13.785,0-25-11.215-25-25s11.215-25,25-25 c13.785,0,25,11.215,25,25S258.785,190,245,190z"></path></a></g></svg></svg></svg>