<svg version="1.1" xmlns="http://www.w3.org/2000/svg" xmlns:xlink="http://www.w3.org/1999/xlink" fill="transparent" x="0" y="0" width="350" height="350" preserveAspectRatio="xMinYMin slice"><style type="text/css">.links{fill:transparent;stroke: #E4CF37;}.links:hover{fill:#63D272; opacity:0.4;}</style><defs><g id="allt"><path id="t7116" d="M3201,1728 L3190,1728 C3180,1728 3195,1721 3185,1722 C3176,1724 3186,1728 3177,1728 L3168,1728 3168,1728 L3170,1737 C3172,1747 3160,1734 3159,1743 C3159,1752 3169,1740 3168,1750 L3168,1760 3168,1760 L3178,1762 C3188,1764 3174,1752 3183,1751 C3192,1751 3180,1761 3190,1760 L3201,1760 3201,1760 L3199,1749 C3198,1739 3207,1754 3205,1745 C3204,1737 3201,1749 3201,1738 L3201,1728"/></g><clipPath id="c" clipRule="evenodd" fill="transparent"><use href="#t7116"/></clipPath></defs><svg viewBox="3158 1720 50 45" preserveAspectRatio="xMinYMin meet"><svg width="4380" height="2430"><g><image crossorigin="anonymous" x="0" y="0" href="https://nftpuzzle.license-token.com/assets/completepuzzle.svg" width="100%" height="100%" /><g class="links"><use href="#t7116"/></g></g></svg><svg x="3193" y="1750" height="9%" width="9%" viewBox="0 0 330 330"><g><a xlink:href="https://nftpuzzle.license-token.com/" class="links"><title>See the most innovative NFT based token software licensing project</title><path fill="#E4CF37" id="more" d="M165,0C74.019,0,0,74.019,0,165s74.019,165,165,165s165-74.019,165-165S255.981,0,165,0z M85,190 c-13.785,0-25-11.215-25-25s11.215-25,25-25s25,11.215,25,25S98.785,190,85,190z M165,190c-13.785,0-25-11.215-25-25 s11.215-25,25-25s25,11.215,25,25S178.785,190,165,190z M245,190c-13.785,0-25-11.215-25-25s11.215-25,25-25 c13.785,0,25,11.215,25,25S258.785,190,245,190z"></path></a></g></svg></svg></svg>