<svg version="1.1" xmlns="http://www.w3.org/2000/svg" xmlns:xlink="http://www.w3.org/1999/xlink" fill="transparent" x="0" y="0" width="350" height="350" preserveAspectRatio="xMinYMin slice"><style type="text/css">.links{fill:transparent;stroke: #E4CF37;}.links:hover{fill:#63D272; opacity:0.4;}</style><defs><g id="allt"><path id="t7117" d="M3234,1728 L3222,1728 C3211,1728 3224,1730 3216,1730 C3208,1731 3220,1728 3210,1728 L3201,1728 3201,1728 L3201,1738 C3201,1749 3204,1737 3205,1745 C3207,1754 3198,1739 3199,1749 L3201,1760 3201,1760 L3212,1760 C3223,1760 3210,1763 3219,1764 C3228,1766 3212,1757 3223,1758 L3234,1760 3234,1760 L3233,1750 C3233,1740 3222,1753 3224,1744 C3226,1736 3239,1748 3236,1738 L3234,1728"/></g><clipPath id="c" clipRule="evenodd" fill="transparent"><use href="#t7117"/></clipPath></defs><svg viewBox="3197 1727 43 40" preserveAspectRatio="xMinYMin meet"><svg width="4380" height="2430"><g><image crossorigin="anonymous" x="0" y="0" href="https://nftpuzzle.license-token.com/assets/completepuzzle.svg" width="100%" height="100%" /><g class="links"><use href="#t7117"/></g></g></svg><svg x="3225" y="1752" height="9%" width="9%" viewBox="0 0 330 330"><g><a xlink:href="https://nftpuzzle.license-token.com/" class="links"><title>See the most innovative NFT based token software licensing project</title><path fill="#E4CF37" id="more" d="M165,0C74.019,0,0,74.019,0,165s74.019,165,165,165s165-74.019,165-165S255.981,0,165,0z M85,190 c-13.785,0-25-11.215-25-25s11.215-25,25-25s25,11.215,25,25S98.785,190,85,190z M165,190c-13.785,0-25-11.215-25-25 s11.215-25,25-25s25,11.215,25,25S178.785,190,165,190z M245,190c-13.785,0-25-11.215-25-25s11.215-25,25-25 c13.785,0,25,11.215,25,25S258.785,190,245,190z"></path></a></g></svg></svg></svg>