<svg version="1.1" xmlns="http://www.w3.org/2000/svg" xmlns:xlink="http://www.w3.org/1999/xlink" fill="transparent" x="0" y="0" width="350" height="350" preserveAspectRatio="xMinYMin slice"><style type="text/css">.links{fill:transparent;stroke: #E4CF37;}.links:hover{fill:#63D272; opacity:0.4;}</style><defs><g id="allt"><path id="t7119" d="M3300,1728 L3288,1728 C3277,1728 3291,1725 3282,1724 C3274,1723 3285,1729 3276,1728 L3267,1728 3267,1728 L3267,1737 C3267,1746 3259,1733 3259,1743 C3259,1754 3267,1742 3267,1751 L3267,1760 3267,1760 L3276,1760 C3286,1760 3272,1752 3283,1752 C3294,1752 3281,1760 3290,1760 L3300,1760 3300,1760 L3301,1751 C3303,1742 3293,1751 3291,1742 C3290,1734 3304,1746 3302,1737 L3300,1728"/></g><clipPath id="c" clipRule="evenodd" fill="transparent"><use href="#t7119"/></clipPath></defs><svg viewBox="3258 1722 47 39" preserveAspectRatio="xMinYMin meet"><svg width="4380" height="2430"><g><image crossorigin="anonymous" x="0" y="0" href="https://nftpuzzle.license-token.com/assets/completepuzzle.svg" width="100%" height="100%" /><g class="links"><use href="#t7119"/></g></g></svg><svg x="3290" y="1746" height="9%" width="9%" viewBox="0 0 330 330"><g><a xlink:href="https://nftpuzzle.license-token.com/" class="links"><title>See the most innovative NFT based token software licensing project</title><path fill="#E4CF37" id="more" d="M165,0C74.019,0,0,74.019,0,165s74.019,165,165,165s165-74.019,165-165S255.981,0,165,0z M85,190 c-13.785,0-25-11.215-25-25s11.215-25,25-25s25,11.215,25,25S98.785,190,85,190z M165,190c-13.785,0-25-11.215-25-25 s11.215-25,25-25s25,11.215,25,25S178.785,190,165,190z M245,190c-13.785,0-25-11.215-25-25s11.215-25,25-25 c13.785,0,25,11.215,25,25S258.785,190,245,190z"></path></a></g></svg></svg></svg>