<svg version="1.1" xmlns="http://www.w3.org/2000/svg" xmlns:xlink="http://www.w3.org/1999/xlink" fill="transparent" x="0" y="0" width="350" height="350" preserveAspectRatio="xMinYMin slice"><style type="text/css">.links{fill:transparent;stroke: #E4CF37;}.links:hover{fill:#63D272; opacity:0.4;}</style><defs><g id="allt"><path id="t7126" d="M3531,1728 L3521,1729 C3512,1731 3523,1722 3513,1720 C3503,1718 3517,1731 3507,1729 L3498,1728 3498,1728 L3498,1738 C3498,1749 3489,1735 3488,1743 C3488,1751 3498,1741 3498,1750 L3498,1760 3498,1760 L3509,1760 C3520,1760 3505,1752 3513,1751 C3521,1750 3511,1760 3521,1760 L3531,1760 3531,1760 L3530,1749 C3530,1739 3537,1752 3538,1742 C3540,1733 3528,1746 3529,1737 L3531,1728"/></g><clipPath id="c" clipRule="evenodd" fill="transparent"><use href="#t7126"/></clipPath></defs><svg viewBox="3487 1717 54 44" preserveAspectRatio="xMinYMin meet"><svg width="4380" height="2430"><g><image crossorigin="anonymous" x="0" y="0" href="https://nftpuzzle.license-token.com/assets/completepuzzle.svg" width="100%" height="100%" /><g class="links"><use href="#t7126"/></g></g></svg><svg x="3526" y="1746" height="9%" width="9%" viewBox="0 0 330 330"><g><a xlink:href="https://nftpuzzle.license-token.com/" class="links"><title>See the most innovative NFT based token software licensing project</title><path fill="#E4CF37" id="more" d="M165,0C74.019,0,0,74.019,0,165s74.019,165,165,165s165-74.019,165-165S255.981,0,165,0z M85,190 c-13.785,0-25-11.215-25-25s11.215-25,25-25s25,11.215,25,25S98.785,190,85,190z M165,190c-13.785,0-25-11.215-25-25 s11.215-25,25-25s25,11.215,25,25S178.785,190,165,190z M245,190c-13.785,0-25-11.215-25-25s11.215-25,25-25 c13.785,0,25,11.215,25,25S258.785,190,245,190z"></path></a></g></svg></svg></svg>