<svg version="1.1" xmlns="http://www.w3.org/2000/svg" xmlns:xlink="http://www.w3.org/1999/xlink" fill="transparent" x="0" y="0" width="350" height="350" preserveAspectRatio="xMinYMin slice"><style type="text/css">.links{fill:transparent;stroke: #E4CF37;}.links:hover{fill:#63D272; opacity:0.4;}</style><defs><g id="allt"><path id="t7132" d="M3729,1728 L3719,1730 C3709,1732 3719,1721 3711,1721 C3704,1721 3717,1728 3706,1728 L3696,1728 3696,1728 L3696,1738 C3696,1748 3690,1733 3690,1742 C3690,1752 3698,1741 3697,1750 L3696,1760 3696,1760 L3706,1760 C3717,1760 3701,1754 3710,1754 C3720,1754 3709,1762 3719,1761 L3729,1760 3729,1760 L3729,1750 C3729,1740 3722,1752 3723,1743 C3725,1735 3729,1745 3729,1736 L3729,1728"/></g><clipPath id="c" clipRule="evenodd" fill="transparent"><use href="#t7132"/></clipPath></defs><svg viewBox="3689 1720 41 43" preserveAspectRatio="xMinYMin meet"><svg width="4380" height="2430"><g><image crossorigin="anonymous" x="0" y="0" href="https://nftpuzzle.license-token.com/assets/completepuzzle.svg" width="100%" height="100%" /><g class="links"><use href="#t7132"/></g></g></svg><svg x="3715" y="1748" height="9%" width="9%" viewBox="0 0 330 330"><g><a xlink:href="https://nftpuzzle.license-token.com/" class="links"><title>See the most innovative NFT based token software licensing project</title><path fill="#E4CF37" id="more" d="M165,0C74.019,0,0,74.019,0,165s74.019,165,165,165s165-74.019,165-165S255.981,0,165,0z M85,190 c-13.785,0-25-11.215-25-25s11.215-25,25-25s25,11.215,25,25S98.785,190,85,190z M165,190c-13.785,0-25-11.215-25-25 s11.215-25,25-25s25,11.215,25,25S178.785,190,165,190z M245,190c-13.785,0-25-11.215-25-25s11.215-25,25-25 c13.785,0,25,11.215,25,25S258.785,190,245,190z"></path></a></g></svg></svg></svg>