<svg version="1.1" xmlns="http://www.w3.org/2000/svg" xmlns:xlink="http://www.w3.org/1999/xlink" fill="transparent" x="0" y="0" width="350" height="350" preserveAspectRatio="xMinYMin slice"><style type="text/css">.links{fill:transparent;stroke: #E4CF37;}.links:hover{fill:#63D272; opacity:0.4;}</style><defs><g id="allt"><path id="t7135" d="M3828,1728 L3818,1729 C3809,1731 3820,1722 3812,1722 C3804,1722 3815,1728 3805,1728 L3795,1728 3795,1728 L3794,1736 C3793,1745 3804,1736 3803,1744 C3802,1753 3792,1738 3793,1749 L3795,1760 3795,1760 L3804,1759 C3813,1758 3803,1768 3812,1767 C3821,1767 3805,1757 3816,1758 L3828,1760 3828,1760 L3827,1750 C3826,1741 3834,1752 3833,1743 C3833,1734 3826,1745 3827,1736 L3828,1728"/></g><clipPath id="c" clipRule="evenodd" fill="transparent"><use href="#t7135"/></clipPath></defs><svg viewBox="3791 1721 44 48" preserveAspectRatio="xMinYMin meet"><svg width="4380" height="2430"><g><image crossorigin="anonymous" x="0" y="0" href="https://nftpuzzle.license-token.com/assets/completepuzzle.svg" width="100%" height="100%" /><g class="links"><use href="#t7135"/></g></g></svg><svg x="3820" y="1754" height="9%" width="9%" viewBox="0 0 330 330"><g><a xlink:href="https://nftpuzzle.license-token.com/" class="links"><title>See the most innovative NFT based token software licensing project</title><path fill="#E4CF37" id="more" d="M165,0C74.019,0,0,74.019,0,165s74.019,165,165,165s165-74.019,165-165S255.981,0,165,0z M85,190 c-13.785,0-25-11.215-25-25s11.215-25,25-25s25,11.215,25,25S98.785,190,85,190z M165,190c-13.785,0-25-11.215-25-25 s11.215-25,25-25s25,11.215,25,25S178.785,190,165,190z M245,190c-13.785,0-25-11.215-25-25s11.215-25,25-25 c13.785,0,25,11.215,25,25S258.785,190,245,190z"></path></a></g></svg></svg></svg>