<svg version="1.1" xmlns="http://www.w3.org/2000/svg" xmlns:xlink="http://www.w3.org/1999/xlink" fill="transparent" x="0" y="0" width="350" height="350" preserveAspectRatio="xMinYMin slice"><style type="text/css">.links{fill:transparent;stroke: #E4CF37;}.links:hover{fill:#63D272; opacity:0.4;}</style><defs><g id="allt"><path id="t7144" d="M4125,1728 L4114,1730 C4103,1732 4117,1719 4107,1718 C4097,1717 4112,1732 4102,1730 L4092,1728 4092,1728 L4092,1738 C4092,1748 4087,1735 4088,1744 C4089,1753 4093,1740 4092,1750 L4092,1760 4092,1760 L4102,1760 C4113,1760 4099,1755 4108,1756 C4118,1757 4105,1761 4115,1760 L4125,1760 4125,1760 L4125,1749 C4126,1738 4122,1751 4121,1741 C4120,1732 4125,1749 4125,1738 L4125,1728"/></g><clipPath id="c" clipRule="evenodd" fill="transparent"><use href="#t7144"/></clipPath></defs><svg viewBox="4086 1716 41 46" preserveAspectRatio="xMinYMin meet"><svg width="4380" height="2430"><g><image crossorigin="anonymous" x="0" y="0" href="https://nftpuzzle.license-token.com/assets/completepuzzle.svg" width="100%" height="100%" /><g class="links"><use href="#t7144"/></g></g></svg><svg x="4112" y="1747" height="9%" width="9%" viewBox="0 0 330 330"><g><a xlink:href="https://nftpuzzle.license-token.com/" class="links"><title>See the most innovative NFT based token software licensing project</title><path fill="#E4CF37" id="more" d="M165,0C74.019,0,0,74.019,0,165s74.019,165,165,165s165-74.019,165-165S255.981,0,165,0z M85,190 c-13.785,0-25-11.215-25-25s11.215-25,25-25s25,11.215,25,25S98.785,190,85,190z M165,190c-13.785,0-25-11.215-25-25 s11.215-25,25-25s25,11.215,25,25S178.785,190,165,190z M245,190c-13.785,0-25-11.215-25-25s11.215-25,25-25 c13.785,0,25,11.215,25,25S258.785,190,245,190z"></path></a></g></svg></svg></svg>