<svg version="1.1" xmlns="http://www.w3.org/2000/svg" xmlns:xlink="http://www.w3.org/1999/xlink" fill="transparent" x="0" y="0" width="350" height="350" preserveAspectRatio="xMinYMin slice"><style type="text/css">.links{fill:transparent;stroke: #E4CF37;}.links:hover{fill:#63D272; opacity:0.4;}</style><defs><g id="allt"><path id="t7147" d="M4224,1728 L4214,1728 C4205,1728 4217,1723 4207,1724 C4198,1725 4210,1728 4200,1728 L4191,1728 4191,1728 L4191,1738 C4191,1748 4181,1733 4183,1742 C4185,1752 4191,1738 4191,1749 L4191,1760 4191,1760 L4201,1760 C4212,1760 4196,1751 4206,1752 C4216,1754 4201,1760 4212,1760 L4224,1760 4224,1760 L4224,1749 C4224,1739 4230,1752 4230,1743 C4230,1735 4224,1747 4224,1737 L4224,1728"/></g><clipPath id="c" clipRule="evenodd" fill="transparent"><use href="#t7147"/></clipPath></defs><svg viewBox="4180 1722 51 39" preserveAspectRatio="xMinYMin meet"><svg width="4380" height="2430"><g><image crossorigin="anonymous" x="0" y="0" href="https://nftpuzzle.license-token.com/assets/completepuzzle.svg" width="100%" height="100%" /><g class="links"><use href="#t7147"/></g></g></svg><svg x="4216" y="1746" height="9%" width="9%" viewBox="0 0 330 330"><g><a xlink:href="https://nftpuzzle.license-token.com/" class="links"><title>See the most innovative NFT based token software licensing project</title><path fill="#E4CF37" id="more" d="M165,0C74.019,0,0,74.019,0,165s74.019,165,165,165s165-74.019,165-165S255.981,0,165,0z M85,190 c-13.785,0-25-11.215-25-25s11.215-25,25-25s25,11.215,25,25S98.785,190,85,190z M165,190c-13.785,0-25-11.215-25-25 s11.215-25,25-25s25,11.215,25,25S178.785,190,165,190z M245,190c-13.785,0-25-11.215-25-25s11.215-25,25-25 c13.785,0,25,11.215,25,25S258.785,190,245,190z"></path></a></g></svg></svg></svg>