<svg version="1.1" xmlns="http://www.w3.org/2000/svg" xmlns:xlink="http://www.w3.org/1999/xlink" fill="transparent" x="0" y="0" width="350" height="350" preserveAspectRatio="xMinYMin slice"><style type="text/css">.links{fill:transparent;stroke: #E4CF37;}.links:hover{fill:#63D272; opacity:0.4;}</style><defs><g id="allt"><path id="t7154" d="M165,1760 L154,1759 C144,1758 158,1771 147,1771 C136,1771 152,1760 142,1760 L132,1760 132,1760 L132,1769 C133,1779 127,1767 126,1775 C126,1784 136,1774 134,1783 L132,1792 132,1792 L142,1792 C152,1793 139,1787 148,1786 C157,1786 146,1796 155,1794 L165,1792 165,1792 L165,1782 C165,1772 158,1786 159,1776 C161,1766 165,1779 165,1769 L165,1760"/></g><clipPath id="c" clipRule="evenodd" fill="transparent"><use href="#t7154"/></clipPath></defs><svg viewBox="125 1757 41 40" preserveAspectRatio="xMinYMin meet"><svg width="4380" height="2430"><g><image crossorigin="anonymous" x="0" y="0" href="https://nftpuzzle.license-token.com/assets/completepuzzle.svg" width="100%" height="100%" /><g class="links"><use href="#t7154"/></g></g></svg><svg x="151" y="1782" height="9%" width="9%" viewBox="0 0 330 330"><g><a xlink:href="https://nftpuzzle.license-token.com/" class="links"><title>See the most innovative NFT based token software licensing project</title><path fill="#E4CF37" id="more" d="M165,0C74.019,0,0,74.019,0,165s74.019,165,165,165s165-74.019,165-165S255.981,0,165,0z M85,190 c-13.785,0-25-11.215-25-25s11.215-25,25-25s25,11.215,25,25S98.785,190,85,190z M165,190c-13.785,0-25-11.215-25-25 s11.215-25,25-25s25,11.215,25,25S178.785,190,165,190z M245,190c-13.785,0-25-11.215-25-25s11.215-25,25-25 c13.785,0,25,11.215,25,25S258.785,190,245,190z"></path></a></g></svg></svg></svg>