<svg version="1.1" xmlns="http://www.w3.org/2000/svg" xmlns:xlink="http://www.w3.org/1999/xlink" fill="transparent" x="0" y="0" width="350" height="350" preserveAspectRatio="xMinYMin slice"><style type="text/css">.links{fill:transparent;stroke: #E4CF37;}.links:hover{fill:#63D272; opacity:0.4;}</style><defs><g id="allt"><path id="t7155" d="M198,1760 L188,1759 C178,1759 193,1766 183,1765 C173,1765 185,1758 175,1759 L165,1760 165,1760 L165,1769 C165,1779 161,1766 159,1776 C158,1786 165,1772 165,1782 L165,1792 165,1792 L175,1792 C185,1792 171,1788 181,1786 C192,1785 177,1792 187,1792 L198,1792 198,1792 L197,1783 C197,1774 201,1785 201,1775 C202,1765 196,1780 197,1770 L198,1760"/></g><clipPath id="c" clipRule="evenodd" fill="transparent"><use href="#t7155"/></clipPath></defs><svg viewBox="157 1757 46 36" preserveAspectRatio="xMinYMin meet"><svg width="4380" height="2430"><g><image crossorigin="anonymous" x="0" y="0" href="https://nftpuzzle.license-token.com/assets/completepuzzle.svg" width="100%" height="100%" /><g class="links"><use href="#t7155"/></g></g></svg><svg x="188" y="1778" height="9%" width="9%" viewBox="0 0 330 330"><g><a xlink:href="https://nftpuzzle.license-token.com/" class="links"><title>See the most innovative NFT based token software licensing project</title><path fill="#E4CF37" id="more" d="M165,0C74.019,0,0,74.019,0,165s74.019,165,165,165s165-74.019,165-165S255.981,0,165,0z M85,190 c-13.785,0-25-11.215-25-25s11.215-25,25-25s25,11.215,25,25S98.785,190,85,190z M165,190c-13.785,0-25-11.215-25-25 s11.215-25,25-25s25,11.215,25,25S178.785,190,165,190z M245,190c-13.785,0-25-11.215-25-25s11.215-25,25-25 c13.785,0,25,11.215,25,25S258.785,190,245,190z"></path></a></g></svg></svg></svg>