<svg version="1.1" xmlns="http://www.w3.org/2000/svg" xmlns:xlink="http://www.w3.org/1999/xlink" fill="transparent" x="0" y="0" width="350" height="350" preserveAspectRatio="xMinYMin slice"><style type="text/css">.links{fill:transparent;stroke: #E4CF37;}.links:hover{fill:#63D272; opacity:0.4;}</style><defs><g id="allt"><path id="t7158" d="M297,1760 L285,1758 C274,1757 290,1765 280,1766 C271,1767 286,1757 275,1758 L264,1760 264,1760 L264,1769 C264,1779 270,1764 270,1774 C270,1784 263,1774 263,1783 L264,1792 264,1792 L274,1792 C284,1792 268,1798 278,1798 C289,1798 278,1791 287,1791 L297,1792 297,1792 L299,1782 C301,1772 293,1783 290,1775 C287,1768 297,1779 297,1769 L297,1760"/></g><clipPath id="c" clipRule="evenodd" fill="transparent"><use href="#t7158"/></clipPath></defs><svg viewBox="262 1756 40 43" preserveAspectRatio="xMinYMin meet"><svg width="4380" height="2430"><g><image crossorigin="anonymous" x="0" y="0" href="https://nftpuzzle.license-token.com/assets/completepuzzle.svg" width="100%" height="100%" /><g class="links"><use href="#t7158"/></g></g></svg><svg x="287" y="1784" height="9%" width="9%" viewBox="0 0 330 330"><g><a xlink:href="https://nftpuzzle.license-token.com/" class="links"><title>See the most innovative NFT based token software licensing project</title><path fill="#E4CF37" id="more" d="M165,0C74.019,0,0,74.019,0,165s74.019,165,165,165s165-74.019,165-165S255.981,0,165,0z M85,190 c-13.785,0-25-11.215-25-25s11.215-25,25-25s25,11.215,25,25S98.785,190,85,190z M165,190c-13.785,0-25-11.215-25-25 s11.215-25,25-25s25,11.215,25,25S178.785,190,165,190z M245,190c-13.785,0-25-11.215-25-25s11.215-25,25-25 c13.785,0,25,11.215,25,25S258.785,190,245,190z"></path></a></g></svg></svg></svg>