<svg version="1.1" xmlns="http://www.w3.org/2000/svg" xmlns:xlink="http://www.w3.org/1999/xlink" fill="transparent" x="0" y="0" width="350" height="350" preserveAspectRatio="xMinYMin slice"><style type="text/css">.links{fill:transparent;stroke: #E4CF37;}.links:hover{fill:#63D272; opacity:0.4;}</style><defs><g id="allt"><path id="t7159" d="M330,1760 L320,1760 C310,1760 324,1769 313,1768 C302,1768 318,1760 307,1760 L297,1760 297,1760 L297,1769 C297,1779 287,1768 290,1775 C293,1783 301,1772 299,1782 L297,1792 297,1792 L307,1792 C317,1792 305,1783 313,1785 C321,1788 310,1796 320,1794 L330,1792 330,1792 L329,1781 C328,1771 337,1786 336,1776 C336,1767 330,1780 330,1770 L330,1760"/></g><clipPath id="c" clipRule="evenodd" fill="transparent"><use href="#t7159"/></clipPath></defs><svg viewBox="286 1759 52 38" preserveAspectRatio="xMinYMin meet"><svg width="4380" height="2430"><g><image crossorigin="anonymous" x="0" y="0" href="https://nftpuzzle.license-token.com/assets/completepuzzle.svg" width="100%" height="100%" /><g class="links"><use href="#t7159"/></g></g></svg><svg x="323" y="1782" height="9%" width="9%" viewBox="0 0 330 330"><g><a xlink:href="https://nftpuzzle.license-token.com/" class="links"><title>See the most innovative NFT based token software licensing project</title><path fill="#E4CF37" id="more" d="M165,0C74.019,0,0,74.019,0,165s74.019,165,165,165s165-74.019,165-165S255.981,0,165,0z M85,190 c-13.785,0-25-11.215-25-25s11.215-25,25-25s25,11.215,25,25S98.785,190,85,190z M165,190c-13.785,0-25-11.215-25-25 s11.215-25,25-25s25,11.215,25,25S178.785,190,165,190z M245,190c-13.785,0-25-11.215-25-25s11.215-25,25-25 c13.785,0,25,11.215,25,25S258.785,190,245,190z"></path></a></g></svg></svg></svg>