<svg version="1.1" xmlns="http://www.w3.org/2000/svg" xmlns:xlink="http://www.w3.org/1999/xlink" fill="transparent" x="0" y="0" width="350" height="350" preserveAspectRatio="xMinYMin slice"><style type="text/css">.links{fill:transparent;stroke: #E4CF37;}.links:hover{fill:#63D272; opacity:0.4;}</style><defs><g id="allt"><path id="t7166" d="M561,1760 L551,1759 C541,1759 554,1763 543,1765 C533,1767 546,1759 537,1759 L528,1760 528,1760 L528,1769 C528,1778 520,1767 520,1774 C520,1782 529,1773 528,1782 L528,1792 528,1792 L537,1792 C546,1792 535,1784 543,1784 C551,1784 541,1793 551,1792 L561,1792 561,1792 L561,1782 C561,1772 556,1786 556,1777 C556,1768 561,1779 561,1769 L561,1760"/></g><clipPath id="c" clipRule="evenodd" fill="transparent"><use href="#t7166"/></clipPath></defs><svg viewBox="519 1758 43 36" preserveAspectRatio="xMinYMin meet"><svg width="4380" height="2430"><g><image crossorigin="anonymous" x="0" y="0" href="https://nftpuzzle.license-token.com/assets/completepuzzle.svg" width="100%" height="100%" /><g class="links"><use href="#t7166"/></g></g></svg><svg x="547" y="1779" height="9%" width="9%" viewBox="0 0 330 330"><g><a xlink:href="https://nftpuzzle.license-token.com/" class="links"><title>See the most innovative NFT based token software licensing project</title><path fill="#E4CF37" id="more" d="M165,0C74.019,0,0,74.019,0,165s74.019,165,165,165s165-74.019,165-165S255.981,0,165,0z M85,190 c-13.785,0-25-11.215-25-25s11.215-25,25-25s25,11.215,25,25S98.785,190,85,190z M165,190c-13.785,0-25-11.215-25-25 s11.215-25,25-25s25,11.215,25,25S178.785,190,165,190z M245,190c-13.785,0-25-11.215-25-25s11.215-25,25-25 c13.785,0,25,11.215,25,25S258.785,190,245,190z"></path></a></g></svg></svg></svg>