<svg version="1.1" xmlns="http://www.w3.org/2000/svg" xmlns:xlink="http://www.w3.org/1999/xlink" fill="transparent" x="0" y="0" width="350" height="350" preserveAspectRatio="xMinYMin slice"><style type="text/css">.links{fill:transparent;stroke: #E4CF37;}.links:hover{fill:#63D272; opacity:0.4;}</style><defs><g id="allt"><path id="t7168" d="M627,1760 L615,1759 C604,1758 617,1766 610,1765 C603,1765 614,1760 604,1760 L594,1760 594,1760 L594,1769 C594,1779 589,1765 588,1774 C587,1784 595,1773 594,1782 L594,1792 594,1792 L603,1792 C613,1792 599,1787 609,1786 C619,1785 608,1793 617,1792 L627,1792 627,1792 L627,1783 C627,1774 625,1783 624,1776 C624,1769 629,1781 628,1770 L627,1760"/></g><clipPath id="c" clipRule="evenodd" fill="transparent"><use href="#t7168"/></clipPath></defs><svg viewBox="586 1757 44 37" preserveAspectRatio="xMinYMin meet"><svg width="4380" height="2430"><g><image crossorigin="anonymous" x="0" y="0" href="https://nftpuzzle.license-token.com/assets/completepuzzle.svg" width="100%" height="100%" /><g class="links"><use href="#t7168"/></g></g></svg><svg x="615" y="1779" height="9%" width="9%" viewBox="0 0 330 330"><g><a xlink:href="https://nftpuzzle.license-token.com/" class="links"><title>See the most innovative NFT based token software licensing project</title><path fill="#E4CF37" id="more" d="M165,0C74.019,0,0,74.019,0,165s74.019,165,165,165s165-74.019,165-165S255.981,0,165,0z M85,190 c-13.785,0-25-11.215-25-25s11.215-25,25-25s25,11.215,25,25S98.785,190,85,190z M165,190c-13.785,0-25-11.215-25-25 s11.215-25,25-25s25,11.215,25,25S178.785,190,165,190z M245,190c-13.785,0-25-11.215-25-25s11.215-25,25-25 c13.785,0,25,11.215,25,25S258.785,190,245,190z"></path></a></g></svg></svg></svg>