<svg version="1.1" xmlns="http://www.w3.org/2000/svg" xmlns:xlink="http://www.w3.org/1999/xlink" fill="transparent" x="0" y="0" width="350" height="350" preserveAspectRatio="xMinYMin slice"><style type="text/css">.links{fill:transparent;stroke: #E4CF37;}.links:hover{fill:#63D272; opacity:0.4;}</style><defs><g id="allt"><path id="t7170" d="M693,1760 L683,1760 C674,1761 683,1754 676,1751 C669,1749 682,1761 671,1760 L660,1760 660,1760 L660,1769 C661,1778 650,1765 652,1774 C655,1783 660,1774 660,1783 L660,1792 660,1792 L669,1792 C678,1793 665,1783 674,1785 C683,1787 674,1792 683,1792 L693,1792 693,1792 L693,1782 C693,1772 690,1785 689,1776 C689,1768 694,1778 693,1769 L693,1760"/></g><clipPath id="c" clipRule="evenodd" fill="transparent"><use href="#t7170"/></clipPath></defs><svg viewBox="649 1748 46 46" preserveAspectRatio="xMinYMin meet"><svg width="4380" height="2430"><g><image crossorigin="anonymous" x="0" y="0" href="https://nftpuzzle.license-token.com/assets/completepuzzle.svg" width="100%" height="100%" /><g class="links"><use href="#t7170"/></g></g></svg><svg x="680" y="1779" height="9%" width="9%" viewBox="0 0 330 330"><g><a xlink:href="https://nftpuzzle.license-token.com/" class="links"><title>See the most innovative NFT based token software licensing project</title><path fill="#E4CF37" id="more" d="M165,0C74.019,0,0,74.019,0,165s74.019,165,165,165s165-74.019,165-165S255.981,0,165,0z M85,190 c-13.785,0-25-11.215-25-25s11.215-25,25-25s25,11.215,25,25S98.785,190,85,190z M165,190c-13.785,0-25-11.215-25-25 s11.215-25,25-25s25,11.215,25,25S178.785,190,165,190z M245,190c-13.785,0-25-11.215-25-25s11.215-25,25-25 c13.785,0,25,11.215,25,25S258.785,190,245,190z"></path></a></g></svg></svg></svg>