<svg version="1.1" xmlns="http://www.w3.org/2000/svg" xmlns:xlink="http://www.w3.org/1999/xlink" fill="transparent" x="0" y="0" width="350" height="350" preserveAspectRatio="xMinYMin slice"><style type="text/css">.links{fill:transparent;stroke: #E4CF37;}.links:hover{fill:#63D272; opacity:0.4;}</style><defs><g id="allt"><path id="t7173" d="M792,1760 L781,1759 C770,1759 786,1763 777,1763 C768,1763 779,1759 769,1759 L759,1760 759,1760 L758,1769 C757,1779 764,1767 764,1775 C764,1784 759,1773 759,1782 L759,1792 759,1792 L769,1791 C779,1790 766,1797 775,1797 C784,1797 772,1792 782,1792 L792,1792 792,1792 L793,1781 C794,1771 785,1784 785,1774 C785,1765 792,1780 792,1770 L792,1760"/></g><clipPath id="c" clipRule="evenodd" fill="transparent"><use href="#t7173"/></clipPath></defs><svg viewBox="756 1758 39 40" preserveAspectRatio="xMinYMin meet"><svg width="4380" height="2430"><g><image crossorigin="anonymous" x="0" y="0" href="https://nftpuzzle.license-token.com/assets/completepuzzle.svg" width="100%" height="100%" /><g class="links"><use href="#t7173"/></g></g></svg><svg x="780" y="1783" height="9%" width="9%" viewBox="0 0 330 330"><g><a xlink:href="https://nftpuzzle.license-token.com/" class="links"><title>See the most innovative NFT based token software licensing project</title><path fill="#E4CF37" id="more" d="M165,0C74.019,0,0,74.019,0,165s74.019,165,165,165s165-74.019,165-165S255.981,0,165,0z M85,190 c-13.785,0-25-11.215-25-25s11.215-25,25-25s25,11.215,25,25S98.785,190,85,190z M165,190c-13.785,0-25-11.215-25-25 s11.215-25,25-25s25,11.215,25,25S178.785,190,165,190z M245,190c-13.785,0-25-11.215-25-25s11.215-25,25-25 c13.785,0,25,11.215,25,25S258.785,190,245,190z"></path></a></g></svg></svg></svg>