<svg version="1.1" xmlns="http://www.w3.org/2000/svg" xmlns:xlink="http://www.w3.org/1999/xlink" fill="transparent" x="0" y="0" width="350" height="350" preserveAspectRatio="xMinYMin slice"><style type="text/css">.links{fill:transparent;stroke: #E4CF37;}.links:hover{fill:#63D272; opacity:0.4;}</style><defs><g id="allt"><path id="t7176" d="M891,1760 L881,1760 C871,1761 885,1755 875,1753 C865,1752 879,1760 868,1760 L858,1760 858,1760 L858,1769 C858,1778 853,1766 851,1774 C849,1783 861,1771 859,1781 L858,1792 858,1792 L867,1792 C877,1792 864,1787 873,1785 C882,1784 870,1795 880,1793 L891,1792 891,1792 L891,1781 C892,1771 889,1784 887,1775 C886,1766 891,1778 891,1769 L891,1760"/></g><clipPath id="c" clipRule="evenodd" fill="transparent"><use href="#t7176"/></clipPath></defs><svg viewBox="848 1751 45 45" preserveAspectRatio="xMinYMin meet"><svg width="4380" height="2430"><g><image crossorigin="anonymous" x="0" y="0" href="https://nftpuzzle.license-token.com/assets/completepuzzle.svg" width="100%" height="100%" /><g class="links"><use href="#t7176"/></g></g></svg><svg x="878" y="1781" height="9%" width="9%" viewBox="0 0 330 330"><g><a xlink:href="https://nftpuzzle.license-token.com/" class="links"><title>See the most innovative NFT based token software licensing project</title><path fill="#E4CF37" id="more" d="M165,0C74.019,0,0,74.019,0,165s74.019,165,165,165s165-74.019,165-165S255.981,0,165,0z M85,190 c-13.785,0-25-11.215-25-25s11.215-25,25-25s25,11.215,25,25S98.785,190,85,190z M165,190c-13.785,0-25-11.215-25-25 s11.215-25,25-25s25,11.215,25,25S178.785,190,165,190z M245,190c-13.785,0-25-11.215-25-25s11.215-25,25-25 c13.785,0,25,11.215,25,25S258.785,190,245,190z"></path></a></g></svg></svg></svg>