<svg version="1.1" xmlns="http://www.w3.org/2000/svg" xmlns:xlink="http://www.w3.org/1999/xlink" fill="transparent" x="0" y="0" width="350" height="350" preserveAspectRatio="xMinYMin slice"><style type="text/css">.links{fill:transparent;stroke: #E4CF37;}.links:hover{fill:#63D272; opacity:0.4;}</style><defs><g id="allt"><path id="t7177" d="M924,1760 L913,1760 C903,1760 916,1764 906,1764 C897,1765 911,1759 901,1759 L891,1760 891,1760 L891,1769 C891,1778 886,1766 887,1775 C889,1784 892,1771 891,1781 L891,1792 891,1792 L900,1792 C909,1792 897,1787 906,1788 C916,1790 902,1793 913,1792 L924,1792 924,1792 L924,1781 C924,1771 920,1786 921,1775 C922,1765 924,1779 924,1769 L924,1760"/></g><clipPath id="c" clipRule="evenodd" fill="transparent"><use href="#t7177"/></clipPath></defs><svg viewBox="885 1758 40 36" preserveAspectRatio="xMinYMin meet"><svg width="4380" height="2430"><g><image crossorigin="anonymous" x="0" y="0" href="https://nftpuzzle.license-token.com/assets/completepuzzle.svg" width="100%" height="100%" /><g class="links"><use href="#t7177"/></g></g></svg><svg x="910" y="1779" height="9%" width="9%" viewBox="0 0 330 330"><g><a xlink:href="https://nftpuzzle.license-token.com/" class="links"><title>See the most innovative NFT based token software licensing project</title><path fill="#E4CF37" id="more" d="M165,0C74.019,0,0,74.019,0,165s74.019,165,165,165s165-74.019,165-165S255.981,0,165,0z M85,190 c-13.785,0-25-11.215-25-25s11.215-25,25-25s25,11.215,25,25S98.785,190,85,190z M165,190c-13.785,0-25-11.215-25-25 s11.215-25,25-25s25,11.215,25,25S178.785,190,165,190z M245,190c-13.785,0-25-11.215-25-25s11.215-25,25-25 c13.785,0,25,11.215,25,25S258.785,190,245,190z"></path></a></g></svg></svg></svg>