<svg version="1.1" xmlns="http://www.w3.org/2000/svg" xmlns:xlink="http://www.w3.org/1999/xlink" fill="transparent" x="0" y="0" width="350" height="350" preserveAspectRatio="xMinYMin slice"><style type="text/css">.links{fill:transparent;stroke: #E4CF37;}.links:hover{fill:#63D272; opacity:0.4;}</style><defs><g id="allt"><path id="t7179" d="M990,1760 L980,1762 C971,1764 980,1752 972,1754 C964,1756 976,1760 966,1760 L957,1760 957,1760 L955,1770 C954,1780 965,1769 965,1777 C966,1785 957,1772 957,1782 L957,1792 957,1792 L967,1790 C977,1789 966,1800 974,1800 C983,1800 969,1792 979,1792 L990,1792 990,1792 L989,1782 C988,1772 998,1784 996,1776 C995,1769 987,1780 988,1770 L990,1760"/></g><clipPath id="c" clipRule="evenodd" fill="transparent"><use href="#t7179"/></clipPath></defs><svg viewBox="953 1751 46 50" preserveAspectRatio="xMinYMin meet"><svg width="4380" height="2430"><g><image crossorigin="anonymous" x="0" y="0" href="https://nftpuzzle.license-token.com/assets/completepuzzle.svg" width="100%" height="100%" /><g class="links"><use href="#t7179"/></g></g></svg><svg x="984" y="1786" height="9%" width="9%" viewBox="0 0 330 330"><g><a xlink:href="https://nftpuzzle.license-token.com/" class="links"><title>See the most innovative NFT based token software licensing project</title><path fill="#E4CF37" id="more" d="M165,0C74.019,0,0,74.019,0,165s74.019,165,165,165s165-74.019,165-165S255.981,0,165,0z M85,190 c-13.785,0-25-11.215-25-25s11.215-25,25-25s25,11.215,25,25S98.785,190,85,190z M165,190c-13.785,0-25-11.215-25-25 s11.215-25,25-25s25,11.215,25,25S178.785,190,165,190z M245,190c-13.785,0-25-11.215-25-25s11.215-25,25-25 c13.785,0,25,11.215,25,25S258.785,190,245,190z"></path></a></g></svg></svg></svg>