<svg version="1.1" xmlns="http://www.w3.org/2000/svg" xmlns:xlink="http://www.w3.org/1999/xlink" fill="transparent" x="0" y="0" width="350" height="350" preserveAspectRatio="xMinYMin slice"><style type="text/css">.links{fill:transparent;stroke: #E4CF37;}.links:hover{fill:#63D272; opacity:0.4;}</style><defs><g id="allt"><path id="t7181" d="M1056,1760 L1045,1759 C1035,1759 1047,1762 1038,1763 C1029,1765 1044,1759 1033,1759 L1023,1760 1023,1760 L1021,1768 C1020,1777 1028,1765 1027,1775 C1027,1786 1023,1770 1023,1781 L1023,1792 1023,1792 L1032,1790 C1041,1789 1028,1797 1039,1796 C1050,1796 1034,1792 1045,1792 L1056,1792 1056,1792 L1056,1781 C1056,1771 1058,1786 1059,1775 C1060,1764 1054,1778 1055,1769 L1056,1760"/></g><clipPath id="c" clipRule="evenodd" fill="transparent"><use href="#t7181"/></clipPath></defs><svg viewBox="1019 1758 42 40" preserveAspectRatio="xMinYMin meet"><svg width="4380" height="2430"><g><image crossorigin="anonymous" x="0" y="0" href="https://nftpuzzle.license-token.com/assets/completepuzzle.svg" width="100%" height="100%" /><g class="links"><use href="#t7181"/></g></g></svg><svg x="1046" y="1783" height="9%" width="9%" viewBox="0 0 330 330"><g><a xlink:href="https://nftpuzzle.license-token.com/" class="links"><title>See the most innovative NFT based token software licensing project</title><path fill="#E4CF37" id="more" d="M165,0C74.019,0,0,74.019,0,165s74.019,165,165,165s165-74.019,165-165S255.981,0,165,0z M85,190 c-13.785,0-25-11.215-25-25s11.215-25,25-25s25,11.215,25,25S98.785,190,85,190z M165,190c-13.785,0-25-11.215-25-25 s11.215-25,25-25s25,11.215,25,25S178.785,190,165,190z M245,190c-13.785,0-25-11.215-25-25s11.215-25,25-25 c13.785,0,25,11.215,25,25S258.785,190,245,190z"></path></a></g></svg></svg></svg>