<svg version="1.1" xmlns="http://www.w3.org/2000/svg" xmlns:xlink="http://www.w3.org/1999/xlink" fill="transparent" x="0" y="0" width="350" height="350" preserveAspectRatio="xMinYMin slice"><style type="text/css">.links{fill:transparent;stroke: #E4CF37;}.links:hover{fill:#63D272; opacity:0.4;}</style><defs><g id="allt"><path id="t7184" d="M1155,1760 L1144,1760 C1133,1760 1147,1756 1138,1755 C1129,1755 1143,1760 1132,1760 L1122,1760 1122,1760 L1122,1770 C1122,1781 1120,1765 1120,1774 C1120,1784 1122,1772 1122,1782 L1122,1792 1122,1792 L1133,1792 C1144,1792 1127,1790 1137,1790 C1147,1790 1134,1792 1144,1792 L1155,1792 1155,1792 L1155,1781 C1156,1770 1161,1785 1160,1776 C1160,1767 1155,1777 1155,1768 L1155,1760"/></g><clipPath id="c" clipRule="evenodd" fill="transparent"><use href="#t7184"/></clipPath></defs><svg viewBox="1119 1754 43 39" preserveAspectRatio="xMinYMin meet"><svg width="4380" height="2430"><g><image crossorigin="anonymous" x="0" y="0" href="https://nftpuzzle.license-token.com/assets/completepuzzle.svg" width="100%" height="100%" /><g class="links"><use href="#t7184"/></g></g></svg><svg x="1147" y="1778" height="9%" width="9%" viewBox="0 0 330 330"><g><a xlink:href="https://nftpuzzle.license-token.com/" class="links"><title>See the most innovative NFT based token software licensing project</title><path fill="#E4CF37" id="more" d="M165,0C74.019,0,0,74.019,0,165s74.019,165,165,165s165-74.019,165-165S255.981,0,165,0z M85,190 c-13.785,0-25-11.215-25-25s11.215-25,25-25s25,11.215,25,25S98.785,190,85,190z M165,190c-13.785,0-25-11.215-25-25 s11.215-25,25-25s25,11.215,25,25S178.785,190,165,190z M245,190c-13.785,0-25-11.215-25-25s11.215-25,25-25 c13.785,0,25,11.215,25,25S258.785,190,245,190z"></path></a></g></svg></svg></svg>