<svg version="1.1" xmlns="http://www.w3.org/2000/svg" xmlns:xlink="http://www.w3.org/1999/xlink" fill="transparent" x="0" y="0" width="350" height="350" preserveAspectRatio="xMinYMin slice"><style type="text/css">.links{fill:transparent;stroke: #E4CF37;}.links:hover{fill:#63D272; opacity:0.4;}</style><defs><g id="allt"><path id="t7186" d="M1221,1760 L1211,1762 C1202,1765 1215,1748 1203,1749 C1192,1751 1209,1762 1198,1761 L1188,1760 1188,1760 L1188,1768 C1189,1777 1185,1769 1184,1776 C1183,1784 1189,1773 1188,1782 L1188,1792 1188,1792 L1197,1792 C1206,1793 1197,1789 1204,1788 C1212,1787 1201,1793 1211,1792 L1221,1792 1221,1792 L1221,1782 C1221,1773 1215,1784 1215,1775 C1215,1766 1221,1780 1221,1770 L1221,1760"/></g><clipPath id="c" clipRule="evenodd" fill="transparent"><use href="#t7186"/></clipPath></defs><svg viewBox="1182 1747 40 47" preserveAspectRatio="xMinYMin meet"><svg width="4380" height="2430"><g><image crossorigin="anonymous" x="0" y="0" href="https://nftpuzzle.license-token.com/assets/completepuzzle.svg" width="100%" height="100%" /><g class="links"><use href="#t7186"/></g></g></svg><svg x="1207" y="1779" height="9%" width="9%" viewBox="0 0 330 330"><g><a xlink:href="https://nftpuzzle.license-token.com/" class="links"><title>See the most innovative NFT based token software licensing project</title><path fill="#E4CF37" id="more" d="M165,0C74.019,0,0,74.019,0,165s74.019,165,165,165s165-74.019,165-165S255.981,0,165,0z M85,190 c-13.785,0-25-11.215-25-25s11.215-25,25-25s25,11.215,25,25S98.785,190,85,190z M165,190c-13.785,0-25-11.215-25-25 s11.215-25,25-25s25,11.215,25,25S178.785,190,165,190z M245,190c-13.785,0-25-11.215-25-25s11.215-25,25-25 c13.785,0,25,11.215,25,25S258.785,190,245,190z"></path></a></g></svg></svg></svg>