<svg version="1.1" xmlns="http://www.w3.org/2000/svg" xmlns:xlink="http://www.w3.org/1999/xlink" fill="transparent" x="0" y="0" width="350" height="350" preserveAspectRatio="xMinYMin slice"><style type="text/css">.links{fill:transparent;stroke: #E4CF37;}.links:hover{fill:#63D272; opacity:0.4;}</style><defs><g id="allt"><path id="t7187" d="M1254,1760 L1243,1761 C1233,1762 1244,1748 1235,1750 C1227,1753 1243,1762 1232,1761 L1221,1760 1221,1760 L1221,1770 C1221,1780 1215,1766 1215,1775 C1215,1784 1221,1773 1221,1782 L1221,1792 1221,1792 L1231,1792 C1242,1792 1227,1786 1236,1786 C1246,1786 1234,1792 1244,1792 L1254,1792 1254,1792 L1254,1782 C1254,1773 1246,1786 1248,1776 C1250,1767 1257,1780 1255,1770 L1254,1760"/></g><clipPath id="c" clipRule="evenodd" fill="transparent"><use href="#t7187"/></clipPath></defs><svg viewBox="1214 1747 44 46" preserveAspectRatio="xMinYMin meet"><svg width="4380" height="2430"><g><image crossorigin="anonymous" x="0" y="0" href="https://nftpuzzle.license-token.com/assets/completepuzzle.svg" width="100%" height="100%" /><g class="links"><use href="#t7187"/></g></g></svg><svg x="1243" y="1778" height="9%" width="9%" viewBox="0 0 330 330"><g><a xlink:href="https://nftpuzzle.license-token.com/" class="links"><title>See the most innovative NFT based token software licensing project</title><path fill="#E4CF37" id="more" d="M165,0C74.019,0,0,74.019,0,165s74.019,165,165,165s165-74.019,165-165S255.981,0,165,0z M85,190 c-13.785,0-25-11.215-25-25s11.215-25,25-25s25,11.215,25,25S98.785,190,85,190z M165,190c-13.785,0-25-11.215-25-25 s11.215-25,25-25s25,11.215,25,25S178.785,190,165,190z M245,190c-13.785,0-25-11.215-25-25s11.215-25,25-25 c13.785,0,25,11.215,25,25S258.785,190,245,190z"></path></a></g></svg></svg></svg>