<svg version="1.1" xmlns="http://www.w3.org/2000/svg" xmlns:xlink="http://www.w3.org/1999/xlink" fill="transparent" x="0" y="0" width="350" height="350" preserveAspectRatio="xMinYMin slice"><style type="text/css">.links{fill:transparent;stroke: #E4CF37;}.links:hover{fill:#63D272; opacity:0.4;}</style><defs><g id="allt"><path id="t7189" d="M1320,1760 L1310,1760 C1300,1761 1310,1754 1301,1753 C1293,1752 1305,1765 1296,1762 L1287,1760 1287,1760 L1287,1769 C1287,1779 1281,1769 1281,1776 C1282,1784 1287,1771 1287,1781 L1287,1792 1287,1792 L1297,1792 C1307,1792 1296,1786 1303,1786 C1311,1787 1298,1792 1309,1792 L1320,1792 1320,1792 L1321,1781 C1322,1770 1313,1784 1314,1775 C1315,1766 1320,1780 1320,1770 L1320,1760"/></g><clipPath id="c" clipRule="evenodd" fill="transparent"><use href="#t7189"/></clipPath></defs><svg viewBox="1280 1751 43 42" preserveAspectRatio="xMinYMin meet"><svg width="4380" height="2430"><g><image crossorigin="anonymous" x="0" y="0" href="https://nftpuzzle.license-token.com/assets/completepuzzle.svg" width="100%" height="100%" /><g class="links"><use href="#t7189"/></g></g></svg><svg x="1308" y="1778" height="9%" width="9%" viewBox="0 0 330 330"><g><a xlink:href="https://nftpuzzle.license-token.com/" class="links"><title>See the most innovative NFT based token software licensing project</title><path fill="#E4CF37" id="more" d="M165,0C74.019,0,0,74.019,0,165s74.019,165,165,165s165-74.019,165-165S255.981,0,165,0z M85,190 c-13.785,0-25-11.215-25-25s11.215-25,25-25s25,11.215,25,25S98.785,190,85,190z M165,190c-13.785,0-25-11.215-25-25 s11.215-25,25-25s25,11.215,25,25S178.785,190,165,190z M245,190c-13.785,0-25-11.215-25-25s11.215-25,25-25 c13.785,0,25,11.215,25,25S258.785,190,245,190z"></path></a></g></svg></svg></svg>