<svg version="1.1" xmlns="http://www.w3.org/2000/svg" xmlns:xlink="http://www.w3.org/1999/xlink" fill="transparent" x="0" y="0" width="350" height="350" preserveAspectRatio="xMinYMin slice"><style type="text/css">.links{fill:transparent;stroke: #E4CF37;}.links:hover{fill:#63D272; opacity:0.4;}</style><defs><g id="allt"><path id="t7194" d="M1485,1760 L1475,1760 C1465,1760 1475,1750 1467,1751 C1459,1752 1474,1765 1463,1762 L1452,1760 1452,1760 L1452,1769 C1453,1779 1448,1767 1448,1776 C1449,1786 1455,1774 1453,1783 L1452,1792 1452,1792 L1462,1792 C1472,1793 1459,1788 1469,1788 C1479,1789 1466,1795 1475,1793 L1485,1792 1485,1792 L1486,1781 C1488,1770 1476,1784 1478,1776 C1480,1769 1485,1781 1485,1770 L1485,1760"/></g><clipPath id="c" clipRule="evenodd" fill="transparent"><use href="#t7194"/></clipPath></defs><svg viewBox="1447 1749 42 47" preserveAspectRatio="xMinYMin meet"><svg width="4380" height="2430"><g><image crossorigin="anonymous" x="0" y="0" href="https://nftpuzzle.license-token.com/assets/completepuzzle.svg" width="100%" height="100%" /><g class="links"><use href="#t7194"/></g></g></svg><svg x="1474" y="1781" height="9%" width="9%" viewBox="0 0 330 330"><g><a xlink:href="https://nftpuzzle.license-token.com/" class="links"><title>See the most innovative NFT based token software licensing project</title><path fill="#E4CF37" id="more" d="M165,0C74.019,0,0,74.019,0,165s74.019,165,165,165s165-74.019,165-165S255.981,0,165,0z M85,190 c-13.785,0-25-11.215-25-25s11.215-25,25-25s25,11.215,25,25S98.785,190,85,190z M165,190c-13.785,0-25-11.215-25-25 s11.215-25,25-25s25,11.215,25,25S178.785,190,165,190z M245,190c-13.785,0-25-11.215-25-25s11.215-25,25-25 c13.785,0,25,11.215,25,25S258.785,190,245,190z"></path></a></g></svg></svg></svg>