<svg version="1.1" xmlns="http://www.w3.org/2000/svg" xmlns:xlink="http://www.w3.org/1999/xlink" fill="transparent" x="0" y="0" width="350" height="350" preserveAspectRatio="xMinYMin slice"><style type="text/css">.links{fill:transparent;stroke: #E4CF37;}.links:hover{fill:#63D272; opacity:0.4;}</style><defs><g id="allt"><path id="t7204" d="M1815,1760 L1805,1761 C1795,1762 1808,1755 1799,1755 C1791,1755 1800,1762 1791,1761 L1782,1760 1782,1760 L1780,1769 C1778,1779 1790,1768 1790,1776 C1790,1785 1782,1772 1782,1782 L1782,1792 1782,1792 L1792,1790 C1802,1788 1790,1800 1799,1800 C1808,1800 1794,1792 1804,1792 L1815,1792 1815,1792 L1815,1782 C1815,1772 1803,1783 1804,1775 C1806,1768 1815,1778 1815,1769 L1815,1760"/></g><clipPath id="c" clipRule="evenodd" fill="transparent"><use href="#t7204"/></clipPath></defs><svg viewBox="1777 1754 39 47" preserveAspectRatio="xMinYMin meet"><svg width="4380" height="2430"><g><image crossorigin="anonymous" x="0" y="0" href="https://nftpuzzle.license-token.com/assets/completepuzzle.svg" width="100%" height="100%" /><g class="links"><use href="#t7204"/></g></g></svg><svg x="1801" y="1786" height="9%" width="9%" viewBox="0 0 330 330"><g><a xlink:href="https://nftpuzzle.license-token.com/" class="links"><title>See the most innovative NFT based token software licensing project</title><path fill="#E4CF37" id="more" d="M165,0C74.019,0,0,74.019,0,165s74.019,165,165,165s165-74.019,165-165S255.981,0,165,0z M85,190 c-13.785,0-25-11.215-25-25s11.215-25,25-25s25,11.215,25,25S98.785,190,85,190z M165,190c-13.785,0-25-11.215-25-25 s11.215-25,25-25s25,11.215,25,25S178.785,190,165,190z M245,190c-13.785,0-25-11.215-25-25s11.215-25,25-25 c13.785,0,25,11.215,25,25S258.785,190,245,190z"></path></a></g></svg></svg></svg>