<svg version="1.1" xmlns="http://www.w3.org/2000/svg" xmlns:xlink="http://www.w3.org/1999/xlink" fill="transparent" x="0" y="0" width="350" height="350" preserveAspectRatio="xMinYMin slice"><style type="text/css">.links{fill:transparent;stroke: #E4CF37;}.links:hover{fill:#63D272; opacity:0.4;}</style><defs><g id="allt"><path id="t721" d="M2376,160 L2366,159 C2357,158 2370,164 2358,163 C2347,163 2363,159 2353,159 L2343,160 2343,160 L2342,170 C2341,181 2352,165 2353,174 C2354,183 2343,173 2343,182 L2343,192 2343,192 L2354,191 C2365,190 2348,201 2357,202 C2366,203 2356,192 2366,192 L2376,192 2376,192 L2376,182 C2376,173 2383,182 2383,175 C2384,168 2373,181 2374,170 L2376,160"/></g><clipPath id="c" clipRule="evenodd" fill="transparent"><use href="#t721"/></clipPath></defs><svg viewBox="2340 157 45 47" preserveAspectRatio="xMinYMin meet"><svg width="4380" height="2430"><g><image crossorigin="anonymous" x="0" y="0" href="https://nftpuzzle.license-token.com/assets/completepuzzle.svg" width="100%" height="100%" /><g class="links"><use href="#t721"/></g></g></svg><svg x="2370" y="189" height="9%" width="9%" viewBox="0 0 330 330"><g><a xlink:href="https://nftpuzzle.license-token.com/" class="links"><title>See the most innovative NFT based token software licensing project</title><path fill="#E4CF37" id="more" d="M165,0C74.019,0,0,74.019,0,165s74.019,165,165,165s165-74.019,165-165S255.981,0,165,0z M85,190 c-13.785,0-25-11.215-25-25s11.215-25,25-25s25,11.215,25,25S98.785,190,85,190z M165,190c-13.785,0-25-11.215-25-25 s11.215-25,25-25s25,11.215,25,25S178.785,190,165,190z M245,190c-13.785,0-25-11.215-25-25s11.215-25,25-25 c13.785,0,25,11.215,25,25S258.785,190,245,190z"></path></a></g></svg></svg></svg>