<svg version="1.1" xmlns="http://www.w3.org/2000/svg" xmlns:xlink="http://www.w3.org/1999/xlink" fill="transparent" x="0" y="0" width="350" height="350" preserveAspectRatio="xMinYMin slice"><style type="text/css">.links{fill:transparent;stroke: #E4CF37;}.links:hover{fill:#63D272; opacity:0.4;}</style><defs><g id="allt"><path id="t7219" d="M2310,1760 L2299,1761 C2288,1763 2303,1752 2292,1754 C2282,1756 2298,1762 2287,1761 L2277,1760 2277,1760 L2277,1770 C2277,1780 2280,1768 2281,1775 C2283,1783 2277,1772 2277,1782 L2277,1792 2277,1792 L2287,1792 C2297,1792 2285,1795 2292,1796 C2300,1798 2289,1792 2299,1792 L2310,1792 2310,1792 L2310,1782 C2310,1773 2307,1783 2307,1775 C2307,1768 2310,1779 2310,1769 L2310,1760"/></g><clipPath id="c" clipRule="evenodd" fill="transparent"><use href="#t7219"/></clipPath></defs><svg viewBox="2276 1751 35 48" preserveAspectRatio="xMinYMin meet"><svg width="4380" height="2430"><g><image crossorigin="anonymous" x="0" y="0" href="https://nftpuzzle.license-token.com/assets/completepuzzle.svg" width="100%" height="100%" /><g class="links"><use href="#t7219"/></g></g></svg><svg x="2296" y="1784" height="9%" width="9%" viewBox="0 0 330 330"><g><a xlink:href="https://nftpuzzle.license-token.com/" class="links"><title>See the most innovative NFT based token software licensing project</title><path fill="#E4CF37" id="more" d="M165,0C74.019,0,0,74.019,0,165s74.019,165,165,165s165-74.019,165-165S255.981,0,165,0z M85,190 c-13.785,0-25-11.215-25-25s11.215-25,25-25s25,11.215,25,25S98.785,190,85,190z M165,190c-13.785,0-25-11.215-25-25 s11.215-25,25-25s25,11.215,25,25S178.785,190,165,190z M245,190c-13.785,0-25-11.215-25-25s11.215-25,25-25 c13.785,0,25,11.215,25,25S258.785,190,245,190z"></path></a></g></svg></svg></svg>