<svg version="1.1" xmlns="http://www.w3.org/2000/svg" xmlns:xlink="http://www.w3.org/1999/xlink" fill="transparent" x="0" y="0" width="350" height="350" preserveAspectRatio="xMinYMin slice"><style type="text/css">.links{fill:transparent;stroke: #E4CF37;}.links:hover{fill:#63D272; opacity:0.4;}</style><defs><g id="allt"><path id="t7224" d="M2475,1760 L2464,1760 C2454,1760 2466,1756 2457,1756 C2449,1757 2460,1760 2451,1760 L2442,1760 2442,1760 L2443,1769 C2445,1778 2433,1767 2431,1774 C2430,1782 2446,1771 2444,1781 L2442,1792 2442,1792 L2451,1793 C2461,1795 2449,1783 2457,1781 C2465,1780 2453,1796 2464,1794 L2475,1792 2475,1792 L2477,1781 C2479,1770 2466,1787 2467,1777 C2469,1768 2478,1778 2476,1769 L2475,1760"/></g><clipPath id="c" clipRule="evenodd" fill="transparent"><use href="#t7224"/></clipPath></defs><svg viewBox="2429 1755 51 42" preserveAspectRatio="xMinYMin meet"><svg width="4380" height="2430"><g><image crossorigin="anonymous" x="0" y="0" href="https://nftpuzzle.license-token.com/assets/completepuzzle.svg" width="100%" height="100%" /><g class="links"><use href="#t7224"/></g></g></svg><svg x="2465" y="1782" height="9%" width="9%" viewBox="0 0 330 330"><g><a xlink:href="https://nftpuzzle.license-token.com/" class="links"><title>See the most innovative NFT based token software licensing project</title><path fill="#E4CF37" id="more" d="M165,0C74.019,0,0,74.019,0,165s74.019,165,165,165s165-74.019,165-165S255.981,0,165,0z M85,190 c-13.785,0-25-11.215-25-25s11.215-25,25-25s25,11.215,25,25S98.785,190,85,190z M165,190c-13.785,0-25-11.215-25-25 s11.215-25,25-25s25,11.215,25,25S178.785,190,165,190z M245,190c-13.785,0-25-11.215-25-25s11.215-25,25-25 c13.785,0,25,11.215,25,25S258.785,190,245,190z"></path></a></g></svg></svg></svg>