<svg version="1.1" xmlns="http://www.w3.org/2000/svg" xmlns:xlink="http://www.w3.org/1999/xlink" fill="transparent" x="0" y="0" width="350" height="350" preserveAspectRatio="xMinYMin slice"><style type="text/css">.links{fill:transparent;stroke: #E4CF37;}.links:hover{fill:#63D272; opacity:0.4;}</style><defs><g id="allt"><path id="t7234" d="M2805,1760 L2795,1761 C2786,1763 2799,1757 2789,1755 C2779,1753 2794,1760 2783,1760 L2772,1760 2772,1760 L2773,1769 C2774,1779 2767,1766 2766,1775 C2765,1785 2772,1773 2772,1782 L2772,1792 2772,1792 L2782,1793 C2792,1794 2778,1787 2788,1786 C2798,1785 2785,1792 2795,1792 L2805,1792 2805,1792 L2805,1782 C2805,1772 2798,1783 2797,1774 C2797,1765 2807,1780 2806,1770 L2805,1760"/></g><clipPath id="c" clipRule="evenodd" fill="transparent"><use href="#t7234"/></clipPath></defs><svg viewBox="2764 1752 44 43" preserveAspectRatio="xMinYMin meet"><svg width="4380" height="2430"><g><image crossorigin="anonymous" x="0" y="0" href="https://nftpuzzle.license-token.com/assets/completepuzzle.svg" width="100%" height="100%" /><g class="links"><use href="#t7234"/></g></g></svg><svg x="2793" y="1780" height="9%" width="9%" viewBox="0 0 330 330"><g><a xlink:href="https://nftpuzzle.license-token.com/" class="links"><title>See the most innovative NFT based token software licensing project</title><path fill="#E4CF37" id="more" d="M165,0C74.019,0,0,74.019,0,165s74.019,165,165,165s165-74.019,165-165S255.981,0,165,0z M85,190 c-13.785,0-25-11.215-25-25s11.215-25,25-25s25,11.215,25,25S98.785,190,85,190z M165,190c-13.785,0-25-11.215-25-25 s11.215-25,25-25s25,11.215,25,25S178.785,190,165,190z M245,190c-13.785,0-25-11.215-25-25s11.215-25,25-25 c13.785,0,25,11.215,25,25S258.785,190,245,190z"></path></a></g></svg></svg></svg>