<svg version="1.1" xmlns="http://www.w3.org/2000/svg" xmlns:xlink="http://www.w3.org/1999/xlink" fill="transparent" x="0" y="0" width="350" height="350" preserveAspectRatio="xMinYMin slice"><style type="text/css">.links{fill:transparent;stroke: #E4CF37;}.links:hover{fill:#63D272; opacity:0.4;}</style><defs><g id="allt"><path id="t7236" d="M2871,1760 L2860,1759 C2849,1759 2865,1764 2854,1764 C2844,1764 2856,1759 2847,1759 L2838,1760 2838,1760 L2837,1770 C2837,1780 2841,1765 2843,1774 C2845,1784 2838,1771 2838,1781 L2838,1792 2838,1792 L2848,1791 C2859,1791 2843,1795 2853,1797 C2863,1799 2850,1792 2860,1792 L2871,1792 2871,1792 L2872,1781 C2873,1770 2866,1786 2866,1776 C2867,1766 2872,1778 2871,1769 L2871,1760"/></g><clipPath id="c" clipRule="evenodd" fill="transparent"><use href="#t7236"/></clipPath></defs><svg viewBox="2836 1758 38 42" preserveAspectRatio="xMinYMin meet"><svg width="4380" height="2430"><g><image crossorigin="anonymous" x="0" y="0" href="https://nftpuzzle.license-token.com/assets/completepuzzle.svg" width="100%" height="100%" /><g class="links"><use href="#t7236"/></g></g></svg><svg x="2859" y="1785" height="9%" width="9%" viewBox="0 0 330 330"><g><a xlink:href="https://nftpuzzle.license-token.com/" class="links"><title>See the most innovative NFT based token software licensing project</title><path fill="#E4CF37" id="more" d="M165,0C74.019,0,0,74.019,0,165s74.019,165,165,165s165-74.019,165-165S255.981,0,165,0z M85,190 c-13.785,0-25-11.215-25-25s11.215-25,25-25s25,11.215,25,25S98.785,190,85,190z M165,190c-13.785,0-25-11.215-25-25 s11.215-25,25-25s25,11.215,25,25S178.785,190,165,190z M245,190c-13.785,0-25-11.215-25-25s11.215-25,25-25 c13.785,0,25,11.215,25,25S258.785,190,245,190z"></path></a></g></svg></svg></svg>