<svg version="1.1" xmlns="http://www.w3.org/2000/svg" xmlns:xlink="http://www.w3.org/1999/xlink" fill="transparent" x="0" y="0" width="350" height="350" preserveAspectRatio="xMinYMin slice"><style type="text/css">.links{fill:transparent;stroke: #E4CF37;}.links:hover{fill:#63D272; opacity:0.4;}</style><defs><g id="allt"><path id="t7238" d="M2937,1760 L2927,1759 C2918,1759 2931,1769 2920,1767 C2909,1765 2922,1757 2913,1758 L2904,1760 2904,1760 L2905,1770 C2907,1780 2899,1768 2899,1775 C2899,1783 2904,1774 2904,1783 L2904,1792 2904,1792 L2914,1793 C2925,1795 2912,1787 2920,1787 C2928,1787 2918,1792 2927,1792 L2937,1792 2937,1792 L2937,1783 C2937,1774 2931,1783 2929,1775 C2927,1768 2940,1781 2938,1770 L2937,1760"/></g><clipPath id="c" clipRule="evenodd" fill="transparent"><use href="#t7238"/></clipPath></defs><svg viewBox="2898 1756 43 40" preserveAspectRatio="xMinYMin meet"><svg width="4380" height="2430"><g><image crossorigin="anonymous" x="0" y="0" href="https://nftpuzzle.license-token.com/assets/completepuzzle.svg" width="100%" height="100%" /><g class="links"><use href="#t7238"/></g></g></svg><svg x="2926" y="1781" height="9%" width="9%" viewBox="0 0 330 330"><g><a xlink:href="https://nftpuzzle.license-token.com/" class="links"><title>See the most innovative NFT based token software licensing project</title><path fill="#E4CF37" id="more" d="M165,0C74.019,0,0,74.019,0,165s74.019,165,165,165s165-74.019,165-165S255.981,0,165,0z M85,190 c-13.785,0-25-11.215-25-25s11.215-25,25-25s25,11.215,25,25S98.785,190,85,190z M165,190c-13.785,0-25-11.215-25-25 s11.215-25,25-25s25,11.215,25,25S178.785,190,165,190z M245,190c-13.785,0-25-11.215-25-25s11.215-25,25-25 c13.785,0,25,11.215,25,25S258.785,190,245,190z"></path></a></g></svg></svg></svg>