<svg version="1.1" xmlns="http://www.w3.org/2000/svg" xmlns:xlink="http://www.w3.org/1999/xlink" fill="transparent" x="0" y="0" width="350" height="350" preserveAspectRatio="xMinYMin slice"><style type="text/css">.links{fill:transparent;stroke: #E4CF37;}.links:hover{fill:#63D272; opacity:0.4;}</style><defs><g id="allt"><path id="t724" d="M2475,160 L2465,161 C2455,162 2467,150 2458,151 C2450,152 2463,160 2452,160 L2442,160 2442,160 L2443,170 C2445,180 2436,168 2436,177 C2436,186 2442,171 2442,181 L2442,192 2442,192 L2452,193 C2463,195 2451,186 2460,186 C2469,186 2453,192 2464,192 L2475,192 2475,192 L2474,182 C2473,173 2480,184 2479,175 C2478,167 2473,178 2474,169 L2475,160"/></g><clipPath id="c" clipRule="evenodd" fill="transparent"><use href="#t724"/></clipPath></defs><svg viewBox="2435 149 46 47" preserveAspectRatio="xMinYMin meet"><svg width="4380" height="2430"><g><image crossorigin="anonymous" x="0" y="0" href="https://nftpuzzle.license-token.com/assets/completepuzzle.svg" width="100%" height="100%" /><g class="links"><use href="#t724"/></g></g></svg><svg x="2466" y="181" height="9%" width="9%" viewBox="0 0 330 330"><g><a xlink:href="https://nftpuzzle.license-token.com/" class="links"><title>See the most innovative NFT based token software licensing project</title><path fill="#E4CF37" id="more" d="M165,0C74.019,0,0,74.019,0,165s74.019,165,165,165s165-74.019,165-165S255.981,0,165,0z M85,190 c-13.785,0-25-11.215-25-25s11.215-25,25-25s25,11.215,25,25S98.785,190,85,190z M165,190c-13.785,0-25-11.215-25-25 s11.215-25,25-25s25,11.215,25,25S178.785,190,165,190z M245,190c-13.785,0-25-11.215-25-25s11.215-25,25-25 c13.785,0,25,11.215,25,25S258.785,190,245,190z"></path></a></g></svg></svg></svg>