<svg version="1.1" xmlns="http://www.w3.org/2000/svg" xmlns:xlink="http://www.w3.org/1999/xlink" fill="transparent" x="0" y="0" width="350" height="350" preserveAspectRatio="xMinYMin slice"><style type="text/css">.links{fill:transparent;stroke: #E4CF37;}.links:hover{fill:#63D272; opacity:0.4;}</style><defs><g id="allt"><path id="t7240" d="M3003,1760 L2993,1759 C2983,1759 2997,1766 2987,1765 C2978,1765 2989,1758 2979,1759 L2970,1760 2970,1760 L2970,1770 C2970,1780 2975,1767 2976,1776 C2978,1786 2967,1771 2968,1781 L2970,1792 2970,1792 L2980,1792 C2991,1792 2977,1797 2987,1798 C2997,1800 2981,1789 2992,1790 L3003,1792 3003,1792 L3003,1781 C3003,1770 2993,1786 2993,1777 C2994,1769 3004,1780 3003,1770 L3003,1760"/></g><clipPath id="c" clipRule="evenodd" fill="transparent"><use href="#t7240"/></clipPath></defs><svg viewBox="2966 1757 39 44" preserveAspectRatio="xMinYMin meet"><svg width="4380" height="2430"><g><image crossorigin="anonymous" x="0" y="0" href="https://nftpuzzle.license-token.com/assets/completepuzzle.svg" width="100%" height="100%" /><g class="links"><use href="#t7240"/></g></g></svg><svg x="2990" y="1786" height="9%" width="9%" viewBox="0 0 330 330"><g><a xlink:href="https://nftpuzzle.license-token.com/" class="links"><title>See the most innovative NFT based token software licensing project</title><path fill="#E4CF37" id="more" d="M165,0C74.019,0,0,74.019,0,165s74.019,165,165,165s165-74.019,165-165S255.981,0,165,0z M85,190 c-13.785,0-25-11.215-25-25s11.215-25,25-25s25,11.215,25,25S98.785,190,85,190z M165,190c-13.785,0-25-11.215-25-25 s11.215-25,25-25s25,11.215,25,25S178.785,190,165,190z M245,190c-13.785,0-25-11.215-25-25s11.215-25,25-25 c13.785,0,25,11.215,25,25S258.785,190,245,190z"></path></a></g></svg></svg></svg>