<svg version="1.1" xmlns="http://www.w3.org/2000/svg" xmlns:xlink="http://www.w3.org/1999/xlink" fill="transparent" x="0" y="0" width="350" height="350" preserveAspectRatio="xMinYMin slice"><style type="text/css">.links{fill:transparent;stroke: #E4CF37;}.links:hover{fill:#63D272; opacity:0.4;}</style><defs><g id="allt"><path id="t7241" d="M3036,1760 L3024,1760 C3013,1761 3028,1754 3018,1755 C3008,1757 3025,1762 3014,1761 L3003,1760 3003,1760 L3003,1770 C3004,1780 2994,1769 2993,1777 C2993,1786 3003,1770 3003,1781 L3003,1792 3003,1792 L3013,1792 C3023,1793 3012,1783 3021,1782 C3030,1782 3013,1792 3024,1792 L3036,1792 3036,1792 L3036,1782 C3036,1773 3039,1786 3039,1776 C3040,1767 3036,1777 3036,1768 L3036,1760"/></g><clipPath id="c" clipRule="evenodd" fill="transparent"><use href="#t7241"/></clipPath></defs><svg viewBox="2992 1753 49 41" preserveAspectRatio="xMinYMin meet"><svg width="4380" height="2430"><g><image crossorigin="anonymous" x="0" y="0" href="https://nftpuzzle.license-token.com/assets/completepuzzle.svg" width="100%" height="100%" /><g class="links"><use href="#t7241"/></g></g></svg><svg x="3026" y="1779" height="9%" width="9%" viewBox="0 0 330 330"><g><a xlink:href="https://nftpuzzle.license-token.com/" class="links"><title>See the most innovative NFT based token software licensing project</title><path fill="#E4CF37" id="more" d="M165,0C74.019,0,0,74.019,0,165s74.019,165,165,165s165-74.019,165-165S255.981,0,165,0z M85,190 c-13.785,0-25-11.215-25-25s11.215-25,25-25s25,11.215,25,25S98.785,190,85,190z M165,190c-13.785,0-25-11.215-25-25 s11.215-25,25-25s25,11.215,25,25S178.785,190,165,190z M245,190c-13.785,0-25-11.215-25-25s11.215-25,25-25 c13.785,0,25,11.215,25,25S258.785,190,245,190z"></path></a></g></svg></svg></svg>