<svg version="1.1" xmlns="http://www.w3.org/2000/svg" xmlns:xlink="http://www.w3.org/1999/xlink" fill="transparent" x="0" y="0" width="350" height="350" preserveAspectRatio="xMinYMin slice"><style type="text/css">.links{fill:transparent;stroke: #E4CF37;}.links:hover{fill:#63D272; opacity:0.4;}</style><defs><g id="allt"><path id="t7243" d="M3102,1760 L3092,1757 C3082,1755 3095,1773 3085,1772 C3076,1772 3089,1758 3079,1759 L3069,1760 3069,1760 L3067,1769 C3066,1779 3075,1767 3074,1776 C3074,1786 3067,1772 3068,1782 L3069,1792 3069,1792 L3079,1790 C3089,1789 3076,1798 3086,1797 C3096,1797 3082,1790 3092,1791 L3102,1792 3102,1792 L3102,1781 C3102,1771 3093,1786 3093,1776 C3094,1766 3102,1779 3102,1769 L3102,1760"/></g><clipPath id="c" clipRule="evenodd" fill="transparent"><use href="#t7243"/></clipPath></defs><svg viewBox="3065 1754 38 45" preserveAspectRatio="xMinYMin meet"><svg width="4380" height="2430"><g><image crossorigin="anonymous" x="0" y="0" href="https://nftpuzzle.license-token.com/assets/completepuzzle.svg" width="100%" height="100%" /><g class="links"><use href="#t7243"/></g></g></svg><svg x="3088" y="1784" height="9%" width="9%" viewBox="0 0 330 330"><g><a xlink:href="https://nftpuzzle.license-token.com/" class="links"><title>See the most innovative NFT based token software licensing project</title><path fill="#E4CF37" id="more" d="M165,0C74.019,0,0,74.019,0,165s74.019,165,165,165s165-74.019,165-165S255.981,0,165,0z M85,190 c-13.785,0-25-11.215-25-25s11.215-25,25-25s25,11.215,25,25S98.785,190,85,190z M165,190c-13.785,0-25-11.215-25-25 s11.215-25,25-25s25,11.215,25,25S178.785,190,165,190z M245,190c-13.785,0-25-11.215-25-25s11.215-25,25-25 c13.785,0,25,11.215,25,25S258.785,190,245,190z"></path></a></g></svg></svg></svg>