<svg version="1.1" xmlns="http://www.w3.org/2000/svg" xmlns:xlink="http://www.w3.org/1999/xlink" fill="transparent" x="0" y="0" width="350" height="350" preserveAspectRatio="xMinYMin slice"><style type="text/css">.links{fill:transparent;stroke: #E4CF37;}.links:hover{fill:#63D272; opacity:0.4;}</style><defs><g id="allt"><path id="t7246" d="M3201,1760 L3190,1760 C3180,1761 3192,1751 3183,1751 C3174,1752 3188,1764 3178,1762 L3168,1760 3168,1760 L3167,1769 C3167,1778 3174,1769 3173,1776 C3173,1784 3167,1771 3167,1781 L3168,1792 3168,1792 L3177,1791 C3187,1791 3177,1798 3185,1797 C3193,1797 3179,1791 3190,1791 L3201,1792 3201,1792 L3202,1782 C3204,1772 3194,1785 3193,1776 C3192,1768 3205,1779 3203,1769 L3201,1760"/></g><clipPath id="c" clipRule="evenodd" fill="transparent"><use href="#t7246"/></clipPath></defs><svg viewBox="3166 1750 40 49" preserveAspectRatio="xMinYMin meet"><svg width="4380" height="2430"><g><image crossorigin="anonymous" x="0" y="0" href="https://nftpuzzle.license-token.com/assets/completepuzzle.svg" width="100%" height="100%" /><g class="links"><use href="#t7246"/></g></g></svg><svg x="3191" y="1784" height="9%" width="9%" viewBox="0 0 330 330"><g><a xlink:href="https://nftpuzzle.license-token.com/" class="links"><title>See the most innovative NFT based token software licensing project</title><path fill="#E4CF37" id="more" d="M165,0C74.019,0,0,74.019,0,165s74.019,165,165,165s165-74.019,165-165S255.981,0,165,0z M85,190 c-13.785,0-25-11.215-25-25s11.215-25,25-25s25,11.215,25,25S98.785,190,85,190z M165,190c-13.785,0-25-11.215-25-25 s11.215-25,25-25s25,11.215,25,25S178.785,190,165,190z M245,190c-13.785,0-25-11.215-25-25s11.215-25,25-25 c13.785,0,25,11.215,25,25S258.785,190,245,190z"></path></a></g></svg></svg></svg>