<svg version="1.1" xmlns="http://www.w3.org/2000/svg" xmlns:xlink="http://www.w3.org/1999/xlink" fill="transparent" x="0" y="0" width="350" height="350" preserveAspectRatio="xMinYMin slice"><style type="text/css">.links{fill:transparent;stroke: #E4CF37;}.links:hover{fill:#63D272; opacity:0.4;}</style><defs><g id="allt"><path id="t7250" d="M3333,1760 L3323,1761 C3314,1763 3323,1753 3314,1752 C3306,1751 3319,1764 3309,1762 L3300,1760 3300,1760 L3299,1769 C3299,1779 3311,1765 3309,1775 C3307,1786 3300,1771 3300,1781 L3300,1792 3300,1792 L3309,1791 C3319,1791 3305,1803 3316,1801 C3327,1799 3312,1792 3322,1792 L3333,1792 3333,1792 L3333,1783 C3333,1774 3326,1784 3327,1776 C3328,1768 3334,1780 3333,1770 L3333,1760"/></g><clipPath id="c" clipRule="evenodd" fill="transparent"><use href="#t7250"/></clipPath></defs><svg viewBox="3298 1750 37 54" preserveAspectRatio="xMinYMin meet"><svg width="4380" height="2430"><g><image crossorigin="anonymous" x="0" y="0" href="https://nftpuzzle.license-token.com/assets/completepuzzle.svg" width="100%" height="100%" /><g class="links"><use href="#t7250"/></g></g></svg><svg x="3320" y="1789" height="9%" width="9%" viewBox="0 0 330 330"><g><a xlink:href="https://nftpuzzle.license-token.com/" class="links"><title>See the most innovative NFT based token software licensing project</title><path fill="#E4CF37" id="more" d="M165,0C74.019,0,0,74.019,0,165s74.019,165,165,165s165-74.019,165-165S255.981,0,165,0z M85,190 c-13.785,0-25-11.215-25-25s11.215-25,25-25s25,11.215,25,25S98.785,190,85,190z M165,190c-13.785,0-25-11.215-25-25 s11.215-25,25-25s25,11.215,25,25S178.785,190,165,190z M245,190c-13.785,0-25-11.215-25-25s11.215-25,25-25 c13.785,0,25,11.215,25,25S258.785,190,245,190z"></path></a></g></svg></svg></svg>