<svg version="1.1" xmlns="http://www.w3.org/2000/svg" xmlns:xlink="http://www.w3.org/1999/xlink" fill="transparent" x="0" y="0" width="350" height="350" preserveAspectRatio="xMinYMin slice"><style type="text/css">.links{fill:transparent;stroke: #E4CF37;}.links:hover{fill:#63D272; opacity:0.4;}</style><defs><g id="allt"><path id="t7252" d="M3399,1760 L3389,1760 C3380,1761 3391,1755 3382,1755 C3373,1756 3387,1763 3376,1761 L3366,1760 3366,1760 L3366,1770 C3366,1781 3359,1769 3359,1776 C3360,1784 3366,1774 3366,1783 L3366,1792 3366,1792 L3376,1792 C3387,1792 3375,1785 3382,1785 C3390,1786 3380,1792 3389,1792 L3399,1792 3399,1792 L3401,1783 C3403,1774 3389,1783 3391,1775 C3394,1768 3399,1780 3399,1770 L3399,1760"/></g><clipPath id="c" clipRule="evenodd" fill="transparent"><use href="#t7252"/></clipPath></defs><svg viewBox="3358 1754 46 39" preserveAspectRatio="xMinYMin meet"><svg width="4380" height="2430"><g><image crossorigin="anonymous" x="0" y="0" href="https://nftpuzzle.license-token.com/assets/completepuzzle.svg" width="100%" height="100%" /><g class="links"><use href="#t7252"/></g></g></svg><svg x="3389" y="1778" height="9%" width="9%" viewBox="0 0 330 330"><g><a xlink:href="https://nftpuzzle.license-token.com/" class="links"><title>See the most innovative NFT based token software licensing project</title><path fill="#E4CF37" id="more" d="M165,0C74.019,0,0,74.019,0,165s74.019,165,165,165s165-74.019,165-165S255.981,0,165,0z M85,190 c-13.785,0-25-11.215-25-25s11.215-25,25-25s25,11.215,25,25S98.785,190,85,190z M165,190c-13.785,0-25-11.215-25-25 s11.215-25,25-25s25,11.215,25,25S178.785,190,165,190z M245,190c-13.785,0-25-11.215-25-25s11.215-25,25-25 c13.785,0,25,11.215,25,25S258.785,190,245,190z"></path></a></g></svg></svg></svg>