<svg version="1.1" xmlns="http://www.w3.org/2000/svg" xmlns:xlink="http://www.w3.org/1999/xlink" fill="transparent" x="0" y="0" width="350" height="350" preserveAspectRatio="xMinYMin slice"><style type="text/css">.links{fill:transparent;stroke: #E4CF37;}.links:hover{fill:#63D272; opacity:0.4;}</style><defs><g id="allt"><path id="t7258" d="M3597,1760 L3586,1760 C3575,1761 3592,1755 3582,1755 C3572,1756 3585,1763 3574,1761 L3564,1760 3564,1760 L3564,1770 C3564,1781 3573,1764 3572,1773 C3572,1783 3564,1772 3564,1782 L3564,1792 3564,1792 L3574,1792 C3585,1792 3568,1800 3577,1800 C3587,1800 3576,1792 3586,1792 L3597,1792 3597,1792 L3598,1782 C3599,1773 3590,1782 3590,1774 C3590,1766 3597,1779 3597,1769 L3597,1760"/></g><clipPath id="c" clipRule="evenodd" fill="transparent"><use href="#t7258"/></clipPath></defs><svg viewBox="3563 1754 37 47" preserveAspectRatio="xMinYMin meet"><svg width="4380" height="2430"><g><image crossorigin="anonymous" x="0" y="0" href="https://nftpuzzle.license-token.com/assets/completepuzzle.svg" width="100%" height="100%" /><g class="links"><use href="#t7258"/></g></g></svg><svg x="3585" y="1786" height="9%" width="9%" viewBox="0 0 330 330"><g><a xlink:href="https://nftpuzzle.license-token.com/" class="links"><title>See the most innovative NFT based token software licensing project</title><path fill="#E4CF37" id="more" d="M165,0C74.019,0,0,74.019,0,165s74.019,165,165,165s165-74.019,165-165S255.981,0,165,0z M85,190 c-13.785,0-25-11.215-25-25s11.215-25,25-25s25,11.215,25,25S98.785,190,85,190z M165,190c-13.785,0-25-11.215-25-25 s11.215-25,25-25s25,11.215,25,25S178.785,190,165,190z M245,190c-13.785,0-25-11.215-25-25s11.215-25,25-25 c13.785,0,25,11.215,25,25S258.785,190,245,190z"></path></a></g></svg></svg></svg>