<svg version="1.1" xmlns="http://www.w3.org/2000/svg" xmlns:xlink="http://www.w3.org/1999/xlink" fill="transparent" x="0" y="0" width="350" height="350" preserveAspectRatio="xMinYMin slice"><style type="text/css">.links{fill:transparent;stroke: #E4CF37;}.links:hover{fill:#63D272; opacity:0.4;}</style><defs><g id="allt"><path id="t726" d="M2541,160 L2531,160 C2521,160 2536,166 2525,165 C2515,164 2530,160 2519,160 L2508,160 2508,160 L2508,170 C2509,180 2503,168 2500,176 C2498,184 2512,171 2510,181 L2508,192 2508,192 L2518,192 C2528,193 2517,187 2525,184 C2533,182 2519,196 2530,194 L2541,192 2541,192 L2542,181 C2543,170 2538,186 2537,176 C2537,166 2542,179 2541,169 L2541,160"/></g><clipPath id="c" clipRule="evenodd" fill="transparent"><use href="#t726"/></clipPath></defs><svg viewBox="2497 159 47 38" preserveAspectRatio="xMinYMin meet"><svg width="4380" height="2430"><g><image crossorigin="anonymous" x="0" y="0" href="https://nftpuzzle.license-token.com/assets/completepuzzle.svg" width="100%" height="100%" /><g class="links"><use href="#t726"/></g></g></svg><svg x="2529" y="182" height="9%" width="9%" viewBox="0 0 330 330"><g><a xlink:href="https://nftpuzzle.license-token.com/" class="links"><title>See the most innovative NFT based token software licensing project</title><path fill="#E4CF37" id="more" d="M165,0C74.019,0,0,74.019,0,165s74.019,165,165,165s165-74.019,165-165S255.981,0,165,0z M85,190 c-13.785,0-25-11.215-25-25s11.215-25,25-25s25,11.215,25,25S98.785,190,85,190z M165,190c-13.785,0-25-11.215-25-25 s11.215-25,25-25s25,11.215,25,25S178.785,190,165,190z M245,190c-13.785,0-25-11.215-25-25s11.215-25,25-25 c13.785,0,25,11.215,25,25S258.785,190,245,190z"></path></a></g></svg></svg></svg>