<svg version="1.1" xmlns="http://www.w3.org/2000/svg" xmlns:xlink="http://www.w3.org/1999/xlink" fill="transparent" x="0" y="0" width="350" height="350" preserveAspectRatio="xMinYMin slice"><style type="text/css">.links{fill:transparent;stroke: #E4CF37;}.links:hover{fill:#63D272; opacity:0.4;}</style><defs><g id="allt"><path id="t7262" d="M3729,1760 L3719,1761 C3709,1762 3720,1754 3710,1754 C3701,1754 3717,1760 3706,1760 L3696,1760 3696,1760 L3696,1769 C3696,1779 3690,1768 3690,1775 C3690,1782 3696,1772 3696,1782 L3696,1792 3696,1792 L3706,1792 C3716,1792 3704,1786 3711,1786 C3719,1786 3709,1792 3719,1792 L3729,1792 3729,1792 L3730,1781 C3731,1771 3720,1783 3720,1776 C3721,1769 3729,1779 3729,1769 L3729,1760"/></g><clipPath id="c" clipRule="evenodd" fill="transparent"><use href="#t7262"/></clipPath></defs><svg viewBox="3689 1753 43 40" preserveAspectRatio="xMinYMin meet"><svg width="4380" height="2430"><g><image crossorigin="anonymous" x="0" y="0" href="https://nftpuzzle.license-token.com/assets/completepuzzle.svg" width="100%" height="100%" /><g class="links"><use href="#t7262"/></g></g></svg><svg x="3717" y="1778" height="9%" width="9%" viewBox="0 0 330 330"><g><a xlink:href="https://nftpuzzle.license-token.com/" class="links"><title>See the most innovative NFT based token software licensing project</title><path fill="#E4CF37" id="more" d="M165,0C74.019,0,0,74.019,0,165s74.019,165,165,165s165-74.019,165-165S255.981,0,165,0z M85,190 c-13.785,0-25-11.215-25-25s11.215-25,25-25s25,11.215,25,25S98.785,190,85,190z M165,190c-13.785,0-25-11.215-25-25 s11.215-25,25-25s25,11.215,25,25S178.785,190,165,190z M245,190c-13.785,0-25-11.215-25-25s11.215-25,25-25 c13.785,0,25,11.215,25,25S258.785,190,245,190z"></path></a></g></svg></svg></svg>