<svg version="1.1" xmlns="http://www.w3.org/2000/svg" xmlns:xlink="http://www.w3.org/1999/xlink" fill="transparent" x="0" y="0" width="350" height="350" preserveAspectRatio="xMinYMin slice"><style type="text/css">.links{fill:transparent;stroke: #E4CF37;}.links:hover{fill:#63D272; opacity:0.4;}</style><defs><g id="allt"><path id="t7268" d="M3927,1760 L3916,1760 C3905,1760 3917,1769 3908,1768 C3899,1767 3914,1757 3904,1758 L3894,1760 3894,1760 L3894,1769 C3894,1778 3888,1765 3889,1775 C3891,1786 3894,1772 3894,1782 L3894,1792 3894,1792 L3903,1792 C3913,1792 3899,1786 3910,1787 C3921,1789 3906,1792 3916,1792 L3927,1792 3927,1792 L3927,1783 C3927,1774 3925,1782 3925,1774 C3925,1767 3929,1780 3928,1770 L3927,1760"/></g><clipPath id="c" clipRule="evenodd" fill="transparent"><use href="#t7268"/></clipPath></defs><svg viewBox="3887 1756 43 37" preserveAspectRatio="xMinYMin meet"><svg width="4380" height="2430"><g><image crossorigin="anonymous" x="0" y="0" href="https://nftpuzzle.license-token.com/assets/completepuzzle.svg" width="100%" height="100%" /><g class="links"><use href="#t7268"/></g></g></svg><svg x="3915" y="1778" height="9%" width="9%" viewBox="0 0 330 330"><g><a xlink:href="https://nftpuzzle.license-token.com/" class="links"><title>See the most innovative NFT based token software licensing project</title><path fill="#E4CF37" id="more" d="M165,0C74.019,0,0,74.019,0,165s74.019,165,165,165s165-74.019,165-165S255.981,0,165,0z M85,190 c-13.785,0-25-11.215-25-25s11.215-25,25-25s25,11.215,25,25S98.785,190,85,190z M165,190c-13.785,0-25-11.215-25-25 s11.215-25,25-25s25,11.215,25,25S178.785,190,165,190z M245,190c-13.785,0-25-11.215-25-25s11.215-25,25-25 c13.785,0,25,11.215,25,25S258.785,190,245,190z"></path></a></g></svg></svg></svg>