<svg version="1.1" xmlns="http://www.w3.org/2000/svg" xmlns:xlink="http://www.w3.org/1999/xlink" fill="transparent" x="0" y="0" width="350" height="350" preserveAspectRatio="xMinYMin slice"><style type="text/css">.links{fill:transparent;stroke: #E4CF37;}.links:hover{fill:#63D272; opacity:0.4;}</style><defs><g id="allt"><path id="t7272" d="M4059,1760 L4049,1760 C4040,1760 4053,1756 4041,1754 C4030,1753 4046,1760 4036,1760 L4026,1760 4026,1760 L4026,1769 C4026,1778 4018,1767 4019,1776 C4020,1785 4029,1772 4027,1782 L4026,1792 4026,1792 L4035,1792 C4045,1792 4033,1784 4042,1785 C4052,1786 4039,1795 4049,1793 L4059,1792 4059,1792 L4061,1781 C4064,1771 4051,1783 4051,1776 C4051,1769 4063,1780 4061,1770 L4059,1760"/></g><clipPath id="c" clipRule="evenodd" fill="transparent"><use href="#t7272"/></clipPath></defs><svg viewBox="4017 1752 48 44" preserveAspectRatio="xMinYMin meet"><svg width="4380" height="2430"><g><image crossorigin="anonymous" x="0" y="0" href="https://nftpuzzle.license-token.com/assets/completepuzzle.svg" width="100%" height="100%" /><g class="links"><use href="#t7272"/></g></g></svg><svg x="4050" y="1781" height="9%" width="9%" viewBox="0 0 330 330"><g><a xlink:href="https://nftpuzzle.license-token.com/" class="links"><title>See the most innovative NFT based token software licensing project</title><path fill="#E4CF37" id="more" d="M165,0C74.019,0,0,74.019,0,165s74.019,165,165,165s165-74.019,165-165S255.981,0,165,0z M85,190 c-13.785,0-25-11.215-25-25s11.215-25,25-25s25,11.215,25,25S98.785,190,85,190z M165,190c-13.785,0-25-11.215-25-25 s11.215-25,25-25s25,11.215,25,25S178.785,190,165,190z M245,190c-13.785,0-25-11.215-25-25s11.215-25,25-25 c13.785,0,25,11.215,25,25S258.785,190,245,190z"></path></a></g></svg></svg></svg>