<svg version="1.1" xmlns="http://www.w3.org/2000/svg" xmlns:xlink="http://www.w3.org/1999/xlink" fill="transparent" x="0" y="0" width="350" height="350" preserveAspectRatio="xMinYMin slice"><style type="text/css">.links{fill:transparent;stroke: #E4CF37;}.links:hover{fill:#63D272; opacity:0.4;}</style><defs><g id="allt"><path id="t7279" d="M4290,1760 L4279,1760 C4268,1760 4284,1754 4274,1754 C4265,1755 4277,1761 4267,1760 L4257,1760 4257,1760 L4255,1770 C4254,1780 4265,1767 4264,1776 C4263,1785 4253,1774 4255,1783 L4257,1792 4257,1792 L4267,1790 C4278,1789 4264,1800 4273,1799 C4283,1798 4271,1788 4280,1790 L4290,1792 L4290,1792 L4290,1760"/></g><clipPath id="c" clipRule="evenodd" fill="transparent"><use href="#t7279"/></clipPath></defs><svg viewBox="4252 1753 39 48" preserveAspectRatio="xMinYMin meet"><svg width="4380" height="2430"><g><image crossorigin="anonymous" x="0" y="0" href="https://nftpuzzle.license-token.com/assets/completepuzzle.svg" width="100%" height="100%" /><g class="links"><use href="#t7279"/></g></g></svg><svg x="4276" y="1786" height="9%" width="9%" viewBox="0 0 330 330"><g><a xlink:href="https://nftpuzzle.license-token.com/" class="links"><title>See the most innovative NFT based token software licensing project</title><path fill="#E4CF37" id="more" d="M165,0C74.019,0,0,74.019,0,165s74.019,165,165,165s165-74.019,165-165S255.981,0,165,0z M85,190 c-13.785,0-25-11.215-25-25s11.215-25,25-25s25,11.215,25,25S98.785,190,85,190z M165,190c-13.785,0-25-11.215-25-25 s11.215-25,25-25s25,11.215,25,25S178.785,190,165,190z M245,190c-13.785,0-25-11.215-25-25s11.215-25,25-25 c13.785,0,25,11.215,25,25S258.785,190,245,190z"></path></a></g></svg></svg></svg>