<svg version="1.1" xmlns="http://www.w3.org/2000/svg" xmlns:xlink="http://www.w3.org/1999/xlink" fill="transparent" x="0" y="0" width="350" height="350" preserveAspectRatio="xMinYMin slice"><style type="text/css">.links{fill:transparent;stroke: #E4CF37;}.links:hover{fill:#63D272; opacity:0.4;}</style><defs><g id="allt"><path id="t728" d="M2607,160 L2596,160 C2586,160 2597,156 2589,155 C2582,155 2595,162 2584,161 L2574,160 2574,160 L2574,169 C2574,178 2564,168 2566,176 C2568,185 2576,173 2575,182 L2574,192 2574,192 L2583,192 C2592,192 2582,182 2591,184 C2600,186 2587,194 2597,193 L2607,192 2607,192 L2607,181 C2607,170 2613,183 2613,174 C2614,165 2602,179 2604,169 L2607,160"/></g><clipPath id="c" clipRule="evenodd" fill="transparent"><use href="#t728"/></clipPath></defs><svg viewBox="2563 154 52 41" preserveAspectRatio="xMinYMin meet"><svg width="4380" height="2430"><g><image crossorigin="anonymous" x="0" y="0" href="https://nftpuzzle.license-token.com/assets/completepuzzle.svg" width="100%" height="100%" /><g class="links"><use href="#t728"/></g></g></svg><svg x="2600" y="180" height="9%" width="9%" viewBox="0 0 330 330"><g><a xlink:href="https://nftpuzzle.license-token.com/" class="links"><title>See the most innovative NFT based token software licensing project</title><path fill="#E4CF37" id="more" d="M165,0C74.019,0,0,74.019,0,165s74.019,165,165,165s165-74.019,165-165S255.981,0,165,0z M85,190 c-13.785,0-25-11.215-25-25s11.215-25,25-25s25,11.215,25,25S98.785,190,85,190z M165,190c-13.785,0-25-11.215-25-25 s11.215-25,25-25s25,11.215,25,25S178.785,190,165,190z M245,190c-13.785,0-25-11.215-25-25s11.215-25,25-25 c13.785,0,25,11.215,25,25S258.785,190,245,190z"></path></a></g></svg></svg></svg>