<svg version="1.1" xmlns="http://www.w3.org/2000/svg" xmlns:xlink="http://www.w3.org/1999/xlink" fill="transparent" x="0" y="0" width="350" height="350" preserveAspectRatio="xMinYMin slice"><style type="text/css">.links{fill:transparent;stroke: #E4CF37;}.links:hover{fill:#63D272; opacity:0.4;}</style><defs><g id="allt"><path id="t7299" d="M660,1792 L650,1792 C641,1792 651,1790 643,1789 C636,1789 648,1794 637,1793 L627,1792 627,1792 L627,1802 C627,1813 617,1797 618,1806 C620,1815 631,1803 629,1813 L627,1824 627,1824 L638,1824 C649,1824 632,1814 641,1815 C650,1817 638,1828 649,1826 L660,1824 660,1824 L661,1813 C662,1802 655,1818 654,1808 C653,1798 664,1813 662,1802 L660,1792"/></g><clipPath id="c" clipRule="evenodd" fill="transparent"><use href="#t7299"/></clipPath></defs><svg viewBox="616 1788 49 41" preserveAspectRatio="xMinYMin meet"><svg width="4380" height="2430"><g><image crossorigin="anonymous" x="0" y="0" href="https://nftpuzzle.license-token.com/assets/completepuzzle.svg" width="100%" height="100%" /><g class="links"><use href="#t7299"/></g></g></svg><svg x="650" y="1814" height="9%" width="9%" viewBox="0 0 330 330"><g><a xlink:href="https://nftpuzzle.license-token.com/" class="links"><title>See the most innovative NFT based token software licensing project</title><path fill="#E4CF37" id="more" d="M165,0C74.019,0,0,74.019,0,165s74.019,165,165,165s165-74.019,165-165S255.981,0,165,0z M85,190 c-13.785,0-25-11.215-25-25s11.215-25,25-25s25,11.215,25,25S98.785,190,85,190z M165,190c-13.785,0-25-11.215-25-25 s11.215-25,25-25s25,11.215,25,25S178.785,190,165,190z M245,190c-13.785,0-25-11.215-25-25s11.215-25,25-25 c13.785,0,25,11.215,25,25S258.785,190,245,190z"></path></a></g></svg></svg></svg>