<svg version="1.1" xmlns="http://www.w3.org/2000/svg" xmlns:xlink="http://www.w3.org/1999/xlink" fill="transparent" x="0" y="0" width="350" height="350" preserveAspectRatio="xMinYMin slice"><style type="text/css">.links{fill:transparent;stroke: #E4CF37;}.links:hover{fill:#63D272; opacity:0.4;}</style><defs><g id="allt"><path id="t7301" d="M726,1792 L715,1792 C705,1792 719,1789 710,1788 C701,1788 711,1793 702,1792 L693,1792 693,1792 L694,1802 C695,1812 689,1800 688,1809 C687,1818 697,1805 695,1814 L693,1824 693,1824 L703,1825 C713,1826 701,1820 710,1819 C720,1818 707,1828 716,1826 L726,1824 726,1824 L726,1813 C726,1803 724,1815 723,1807 C722,1800 726,1810 726,1801 L726,1792"/></g><clipPath id="c" clipRule="evenodd" fill="transparent"><use href="#t7301"/></clipPath></defs><svg viewBox="686 1787 41 42" preserveAspectRatio="xMinYMin meet"><svg width="4380" height="2430"><g><image crossorigin="anonymous" x="0" y="0" href="https://nftpuzzle.license-token.com/assets/completepuzzle.svg" width="100%" height="100%" /><g class="links"><use href="#t7301"/></g></g></svg><svg x="712" y="1814" height="9%" width="9%" viewBox="0 0 330 330"><g><a xlink:href="https://nftpuzzle.license-token.com/" class="links"><title>See the most innovative NFT based token software licensing project</title><path fill="#E4CF37" id="more" d="M165,0C74.019,0,0,74.019,0,165s74.019,165,165,165s165-74.019,165-165S255.981,0,165,0z M85,190 c-13.785,0-25-11.215-25-25s11.215-25,25-25s25,11.215,25,25S98.785,190,85,190z M165,190c-13.785,0-25-11.215-25-25 s11.215-25,25-25s25,11.215,25,25S178.785,190,165,190z M245,190c-13.785,0-25-11.215-25-25s11.215-25,25-25 c13.785,0,25,11.215,25,25S258.785,190,245,190z"></path></a></g></svg></svg></svg>