<svg version="1.1" xmlns="http://www.w3.org/2000/svg" xmlns:xlink="http://www.w3.org/1999/xlink" fill="transparent" x="0" y="0" width="350" height="350" preserveAspectRatio="xMinYMin slice"><style type="text/css">.links{fill:transparent;stroke: #E4CF37;}.links:hover{fill:#63D272; opacity:0.4;}</style><defs><g id="allt"><path id="t7302" d="M759,1792 L748,1794 C737,1796 750,1788 741,1786 C733,1784 748,1795 737,1793 L726,1792 726,1792 L726,1801 C726,1810 722,1800 723,1807 C724,1815 726,1803 726,1813 L726,1824 726,1824 L735,1824 C744,1824 734,1820 742,1821 C750,1822 737,1824 748,1824 L759,1824 759,1824 L759,1815 C760,1806 757,1817 756,1807 C755,1797 759,1809 759,1800 L759,1792"/></g><clipPath id="c" clipRule="evenodd" fill="transparent"><use href="#t7302"/></clipPath></defs><svg viewBox="721 1783 40 42" preserveAspectRatio="xMinYMin meet"><svg width="4380" height="2430"><g><image crossorigin="anonymous" x="0" y="0" href="https://nftpuzzle.license-token.com/assets/completepuzzle.svg" width="100%" height="100%" /><g class="links"><use href="#t7302"/></g></g></svg><svg x="746" y="1810" height="9%" width="9%" viewBox="0 0 330 330"><g><a xlink:href="https://nftpuzzle.license-token.com/" class="links"><title>See the most innovative NFT based token software licensing project</title><path fill="#E4CF37" id="more" d="M165,0C74.019,0,0,74.019,0,165s74.019,165,165,165s165-74.019,165-165S255.981,0,165,0z M85,190 c-13.785,0-25-11.215-25-25s11.215-25,25-25s25,11.215,25,25S98.785,190,85,190z M165,190c-13.785,0-25-11.215-25-25 s11.215-25,25-25s25,11.215,25,25S178.785,190,165,190z M245,190c-13.785,0-25-11.215-25-25s11.215-25,25-25 c13.785,0,25,11.215,25,25S258.785,190,245,190z"></path></a></g></svg></svg></svg>