<svg version="1.1" xmlns="http://www.w3.org/2000/svg" xmlns:xlink="http://www.w3.org/1999/xlink" fill="transparent" x="0" y="0" width="350" height="350" preserveAspectRatio="xMinYMin slice"><style type="text/css">.links{fill:transparent;stroke: #E4CF37;}.links:hover{fill:#63D272; opacity:0.4;}</style><defs><g id="allt"><path id="t7304" d="M825,1792 L814,1793 C803,1794 816,1785 806,1785 C797,1785 812,1792 802,1792 L792,1792 792,1792 L790,1801 C788,1810 803,1796 803,1806 C803,1816 788,1802 790,1813 L792,1824 792,1824 L801,1822 C810,1820 796,1835 806,1835 C817,1835 802,1820 813,1822 L825,1824 825,1824 L825,1813 C826,1803 822,1817 821,1809 C821,1801 825,1811 825,1801 L825,1792"/></g><clipPath id="c" clipRule="evenodd" fill="transparent"><use href="#t7304"/></clipPath></defs><svg viewBox="787 1784 40 52" preserveAspectRatio="xMinYMin meet"><svg width="4380" height="2430"><g><image crossorigin="anonymous" x="0" y="0" href="https://nftpuzzle.license-token.com/assets/completepuzzle.svg" width="100%" height="100%" /><g class="links"><use href="#t7304"/></g></g></svg><svg x="812" y="1821" height="9%" width="9%" viewBox="0 0 330 330"><g><a xlink:href="https://nftpuzzle.license-token.com/" class="links"><title>See the most innovative NFT based token software licensing project</title><path fill="#E4CF37" id="more" d="M165,0C74.019,0,0,74.019,0,165s74.019,165,165,165s165-74.019,165-165S255.981,0,165,0z M85,190 c-13.785,0-25-11.215-25-25s11.215-25,25-25s25,11.215,25,25S98.785,190,85,190z M165,190c-13.785,0-25-11.215-25-25 s11.215-25,25-25s25,11.215,25,25S178.785,190,165,190z M245,190c-13.785,0-25-11.215-25-25s11.215-25,25-25 c13.785,0,25,11.215,25,25S258.785,190,245,190z"></path></a></g></svg></svg></svg>