<svg version="1.1" xmlns="http://www.w3.org/2000/svg" xmlns:xlink="http://www.w3.org/1999/xlink" fill="transparent" x="0" y="0" width="350" height="350" preserveAspectRatio="xMinYMin slice"><style type="text/css">.links{fill:transparent;stroke: #E4CF37;}.links:hover{fill:#63D272; opacity:0.4;}</style><defs><g id="allt"><path id="t732" d="M2739,160 L2728,160 C2717,160 2732,158 2722,158 C2713,158 2724,160 2715,160 L2706,160 2706,160 L2704,170 C2703,181 2717,167 2714,176 C2711,186 2706,170 2706,181 L2706,192 2706,192 L2716,190 C2727,189 2713,202 2723,199 C2733,197 2716,192 2727,192 L2739,192 2739,192 L2739,182 C2739,172 2735,186 2735,175 C2735,165 2740,178 2739,169 L2739,160"/></g><clipPath id="c" clipRule="evenodd" fill="transparent"><use href="#t732"/></clipPath></defs><svg viewBox="2702 157 39 46" preserveAspectRatio="xMinYMin meet"><svg width="4380" height="2430"><g><image crossorigin="anonymous" x="0" y="0" href="https://nftpuzzle.license-token.com/assets/completepuzzle.svg" width="100%" height="100%" /><g class="links"><use href="#t732"/></g></g></svg><svg x="2726" y="188" height="9%" width="9%" viewBox="0 0 330 330"><g><a xlink:href="https://nftpuzzle.license-token.com/" class="links"><title>See the most innovative NFT based token software licensing project</title><path fill="#E4CF37" id="more" d="M165,0C74.019,0,0,74.019,0,165s74.019,165,165,165s165-74.019,165-165S255.981,0,165,0z M85,190 c-13.785,0-25-11.215-25-25s11.215-25,25-25s25,11.215,25,25S98.785,190,85,190z M165,190c-13.785,0-25-11.215-25-25 s11.215-25,25-25s25,11.215,25,25S178.785,190,165,190z M245,190c-13.785,0-25-11.215-25-25s11.215-25,25-25 c13.785,0,25,11.215,25,25S258.785,190,245,190z"></path></a></g></svg></svg></svg>