<svg version="1.1" xmlns="http://www.w3.org/2000/svg" xmlns:xlink="http://www.w3.org/1999/xlink" fill="transparent" x="0" y="0" width="350" height="350" preserveAspectRatio="xMinYMin slice"><style type="text/css">.links{fill:transparent;stroke: #E4CF37;}.links:hover{fill:#63D272; opacity:0.4;}</style><defs><g id="allt"><path id="t733" d="M2772,160 L2760,161 C2749,162 2766,156 2757,156 C2748,156 2760,160 2749,160 L2739,160 2739,160 L2739,169 C2740,178 2735,165 2735,175 C2735,186 2739,172 2739,182 L2739,192 2739,192 L2748,192 C2757,193 2744,188 2755,188 C2766,188 2751,192 2761,192 L2772,192 2772,192 L2771,181 C2771,171 2775,184 2776,176 C2777,168 2772,179 2772,169 L2772,160"/></g><clipPath id="c" clipRule="evenodd" fill="transparent"><use href="#t733"/></clipPath></defs><svg viewBox="2734 155 44 39" preserveAspectRatio="xMinYMin meet"><svg width="4380" height="2430"><g><image crossorigin="anonymous" x="0" y="0" href="https://nftpuzzle.license-token.com/assets/completepuzzle.svg" width="100%" height="100%" /><g class="links"><use href="#t733"/></g></g></svg><svg x="2763" y="179" height="9%" width="9%" viewBox="0 0 330 330"><g><a xlink:href="https://nftpuzzle.license-token.com/" class="links"><title>See the most innovative NFT based token software licensing project</title><path fill="#E4CF37" id="more" d="M165,0C74.019,0,0,74.019,0,165s74.019,165,165,165s165-74.019,165-165S255.981,0,165,0z M85,190 c-13.785,0-25-11.215-25-25s11.215-25,25-25s25,11.215,25,25S98.785,190,85,190z M165,190c-13.785,0-25-11.215-25-25 s11.215-25,25-25s25,11.215,25,25S178.785,190,165,190z M245,190c-13.785,0-25-11.215-25-25s11.215-25,25-25 c13.785,0,25,11.215,25,25S258.785,190,245,190z"></path></a></g></svg></svg></svg>