<svg version="1.1" xmlns="http://www.w3.org/2000/svg" xmlns:xlink="http://www.w3.org/1999/xlink" fill="transparent" x="0" y="0" width="350" height="350" preserveAspectRatio="xMinYMin slice"><style type="text/css">.links{fill:transparent;stroke: #E4CF37;}.links:hover{fill:#63D272; opacity:0.4;}</style><defs><g id="allt"><path id="t7330" d="M1683,1792 L1673,1793 C1663,1794 1676,1783 1666,1783 C1656,1784 1671,1792 1660,1792 L1650,1792 1650,1792 L1651,1802 C1652,1812 1647,1799 1647,1808 C1647,1818 1650,1804 1650,1814 L1650,1824 1650,1824 L1660,1825 C1671,1826 1657,1821 1667,1821 C1677,1821 1662,1824 1672,1824 L1683,1824 1683,1824 L1681,1814 C1679,1804 1691,1814 1692,1807 C1693,1800 1681,1811 1682,1801 L1683,1792"/></g><clipPath id="c" clipRule="evenodd" fill="transparent"><use href="#t7330"/></clipPath></defs><svg viewBox="1646 1782 48 45" preserveAspectRatio="xMinYMin meet"><svg width="4380" height="2430"><g><image crossorigin="anonymous" x="0" y="0" href="https://nftpuzzle.license-token.com/assets/completepuzzle.svg" width="100%" height="100%" /><g class="links"><use href="#t7330"/></g></g></svg><svg x="1679" y="1812" height="9%" width="9%" viewBox="0 0 330 330"><g><a xlink:href="https://nftpuzzle.license-token.com/" class="links"><title>See the most innovative NFT based token software licensing project</title><path fill="#E4CF37" id="more" d="M165,0C74.019,0,0,74.019,0,165s74.019,165,165,165s165-74.019,165-165S255.981,0,165,0z M85,190 c-13.785,0-25-11.215-25-25s11.215-25,25-25s25,11.215,25,25S98.785,190,85,190z M165,190c-13.785,0-25-11.215-25-25 s11.215-25,25-25s25,11.215,25,25S178.785,190,165,190z M245,190c-13.785,0-25-11.215-25-25s11.215-25,25-25 c13.785,0,25,11.215,25,25S258.785,190,245,190z"></path></a></g></svg></svg></svg>