<svg version="1.1" xmlns="http://www.w3.org/2000/svg" xmlns:xlink="http://www.w3.org/1999/xlink" fill="transparent" x="0" y="0" width="350" height="350" preserveAspectRatio="xMinYMin slice"><style type="text/css">.links{fill:transparent;stroke: #E4CF37;}.links:hover{fill:#63D272; opacity:0.4;}</style><defs><g id="allt"><path id="t734" d="M2805,160 L2794,160 C2784,160 2800,156 2789,157 C2778,158 2790,161 2781,160 L2772,160 2772,160 L2772,169 C2772,179 2777,168 2776,176 C2775,184 2771,171 2771,181 L2772,192 2772,192 L2781,192 C2791,192 2780,197 2788,196 C2797,195 2784,191 2794,191 L2805,192 2805,192 L2805,182 C2805,173 2812,185 2812,176 C2812,168 2805,179 2805,169 L2805,160"/></g><clipPath id="c" clipRule="evenodd" fill="transparent"><use href="#t734"/></clipPath></defs><svg viewBox="2770 155 43 43" preserveAspectRatio="xMinYMin meet"><svg width="4380" height="2430"><g><image crossorigin="anonymous" x="0" y="0" href="https://nftpuzzle.license-token.com/assets/completepuzzle.svg" width="100%" height="100%" /><g class="links"><use href="#t734"/></g></g></svg><svg x="2798" y="183" height="9%" width="9%" viewBox="0 0 330 330"><g><a xlink:href="https://nftpuzzle.license-token.com/" class="links"><title>See the most innovative NFT based token software licensing project</title><path fill="#E4CF37" id="more" d="M165,0C74.019,0,0,74.019,0,165s74.019,165,165,165s165-74.019,165-165S255.981,0,165,0z M85,190 c-13.785,0-25-11.215-25-25s11.215-25,25-25s25,11.215,25,25S98.785,190,85,190z M165,190c-13.785,0-25-11.215-25-25 s11.215-25,25-25s25,11.215,25,25S178.785,190,165,190z M245,190c-13.785,0-25-11.215-25-25s11.215-25,25-25 c13.785,0,25,11.215,25,25S258.785,190,245,190z"></path></a></g></svg></svg></svg>