<svg version="1.1" xmlns="http://www.w3.org/2000/svg" xmlns:xlink="http://www.w3.org/1999/xlink" fill="transparent" x="0" y="0" width="350" height="350" preserveAspectRatio="xMinYMin slice"><style type="text/css">.links{fill:transparent;stroke: #E4CF37;}.links:hover{fill:#63D272; opacity:0.4;}</style><defs><g id="allt"><path id="t7343" d="M2112,1792 L2101,1792 C2091,1792 2106,1788 2096,1789 C2087,1790 2100,1792 2089,1792 L2079,1792 2079,1792 L2079,1802 C2079,1812 2074,1796 2074,1805 C2075,1815 2080,1805 2079,1814 L2079,1824 2079,1824 L2089,1824 C2100,1824 2083,1819 2093,1819 C2103,1820 2093,1825 2102,1824 L2112,1824 2112,1824 L2111,1814 C2111,1805 2117,1815 2117,1807 C2117,1800 2112,1812 2112,1802 L2112,1792"/></g><clipPath id="c" clipRule="evenodd" fill="transparent"><use href="#t7343"/></clipPath></defs><svg viewBox="2073 1787 45 39" preserveAspectRatio="xMinYMin meet"><svg width="4380" height="2430"><g><image crossorigin="anonymous" x="0" y="0" href="https://nftpuzzle.license-token.com/assets/completepuzzle.svg" width="100%" height="100%" /><g class="links"><use href="#t7343"/></g></g></svg><svg x="2103" y="1811" height="9%" width="9%" viewBox="0 0 330 330"><g><a xlink:href="https://nftpuzzle.license-token.com/" class="links"><title>See the most innovative NFT based token software licensing project</title><path fill="#E4CF37" id="more" d="M165,0C74.019,0,0,74.019,0,165s74.019,165,165,165s165-74.019,165-165S255.981,0,165,0z M85,190 c-13.785,0-25-11.215-25-25s11.215-25,25-25s25,11.215,25,25S98.785,190,85,190z M165,190c-13.785,0-25-11.215-25-25 s11.215-25,25-25s25,11.215,25,25S178.785,190,165,190z M245,190c-13.785,0-25-11.215-25-25s11.215-25,25-25 c13.785,0,25,11.215,25,25S258.785,190,245,190z"></path></a></g></svg></svg></svg>