<svg version="1.1" xmlns="http://www.w3.org/2000/svg" xmlns:xlink="http://www.w3.org/1999/xlink" fill="transparent" x="0" y="0" width="350" height="350" preserveAspectRatio="xMinYMin slice"><style type="text/css">.links{fill:transparent;stroke: #E4CF37;}.links:hover{fill:#63D272; opacity:0.4;}</style><defs><g id="allt"><path id="t7347" d="M2244,1792 L2234,1794 C2225,1796 2237,1786 2228,1784 C2219,1782 2231,1792 2221,1792 L2211,1792 2211,1792 L2211,1802 C2211,1812 2209,1798 2209,1808 C2209,1818 2211,1802 2211,1813 L2211,1824 2211,1824 L2221,1824 C2231,1824 2217,1822 2227,1822 C2238,1822 2222,1824 2233,1824 L2244,1824 2244,1824 L2242,1814 C2241,1804 2250,1817 2251,1807 C2253,1798 2240,1811 2242,1801 L2244,1792"/></g><clipPath id="c" clipRule="evenodd" fill="transparent"><use href="#t7347"/></clipPath></defs><svg viewBox="2208 1781 46 44" preserveAspectRatio="xMinYMin meet"><svg width="4380" height="2430"><g><image crossorigin="anonymous" x="0" y="0" href="https://nftpuzzle.license-token.com/assets/completepuzzle.svg" width="100%" height="100%" /><g class="links"><use href="#t7347"/></g></g></svg><svg x="2239" y="1810" height="9%" width="9%" viewBox="0 0 330 330"><g><a xlink:href="https://nftpuzzle.license-token.com/" class="links"><title>See the most innovative NFT based token software licensing project</title><path fill="#E4CF37" id="more" d="M165,0C74.019,0,0,74.019,0,165s74.019,165,165,165s165-74.019,165-165S255.981,0,165,0z M85,190 c-13.785,0-25-11.215-25-25s11.215-25,25-25s25,11.215,25,25S98.785,190,85,190z M165,190c-13.785,0-25-11.215-25-25 s11.215-25,25-25s25,11.215,25,25S178.785,190,165,190z M245,190c-13.785,0-25-11.215-25-25s11.215-25,25-25 c13.785,0,25,11.215,25,25S258.785,190,245,190z"></path></a></g></svg></svg></svg>