<svg version="1.1" xmlns="http://www.w3.org/2000/svg" xmlns:xlink="http://www.w3.org/1999/xlink" fill="transparent" x="0" y="0" width="350" height="350" preserveAspectRatio="xMinYMin slice"><style type="text/css">.links{fill:transparent;stroke: #E4CF37;}.links:hover{fill:#63D272; opacity:0.4;}</style><defs><g id="allt"><path id="t7350" d="M2343,1792 L2333,1792 C2323,1792 2333,1789 2325,1789 C2318,1789 2330,1792 2320,1792 L2310,1792 2310,1792 L2310,1801 C2310,1810 2306,1800 2306,1809 C2306,1819 2310,1805 2310,1814 L2310,1824 2310,1824 L2319,1824 C2328,1824 2318,1820 2328,1820 C2338,1820 2324,1824 2333,1824 L2343,1824 2343,1824 L2343,1813 C2343,1803 2336,1815 2336,1807 C2336,1800 2343,1812 2343,1802 L2343,1792"/></g><clipPath id="c" clipRule="evenodd" fill="transparent"><use href="#t7350"/></clipPath></defs><svg viewBox="2305 1788 39 37" preserveAspectRatio="xMinYMin meet"><svg width="4380" height="2430"><g><image crossorigin="anonymous" x="0" y="0" href="https://nftpuzzle.license-token.com/assets/completepuzzle.svg" width="100%" height="100%" /><g class="links"><use href="#t7350"/></g></g></svg><svg x="2329" y="1810" height="9%" width="9%" viewBox="0 0 330 330"><g><a xlink:href="https://nftpuzzle.license-token.com/" class="links"><title>See the most innovative NFT based token software licensing project</title><path fill="#E4CF37" id="more" d="M165,0C74.019,0,0,74.019,0,165s74.019,165,165,165s165-74.019,165-165S255.981,0,165,0z M85,190 c-13.785,0-25-11.215-25-25s11.215-25,25-25s25,11.215,25,25S98.785,190,85,190z M165,190c-13.785,0-25-11.215-25-25 s11.215-25,25-25s25,11.215,25,25S178.785,190,165,190z M245,190c-13.785,0-25-11.215-25-25s11.215-25,25-25 c13.785,0,25,11.215,25,25S258.785,190,245,190z"></path></a></g></svg></svg></svg>