<svg version="1.1" xmlns="http://www.w3.org/2000/svg" xmlns:xlink="http://www.w3.org/1999/xlink" fill="transparent" x="0" y="0" width="350" height="350" preserveAspectRatio="xMinYMin slice"><style type="text/css">.links{fill:transparent;stroke: #E4CF37;}.links:hover{fill:#63D272; opacity:0.4;}</style><defs><g id="allt"><path id="t7354" d="M2475,1792 L2464,1794 C2453,1796 2465,1780 2457,1781 C2449,1783 2461,1795 2451,1793 L2442,1792 2442,1792 L2442,1802 C2442,1812 2434,1800 2433,1808 C2433,1816 2442,1804 2442,1814 L2442,1824 2442,1824 L2452,1824 C2463,1824 2450,1816 2458,1815 C2467,1815 2455,1824 2465,1824 L2475,1824 2475,1824 L2474,1814 C2473,1804 2478,1819 2478,1810 C2478,1801 2475,1810 2475,1801 L2475,1792"/></g><clipPath id="c" clipRule="evenodd" fill="transparent"><use href="#t7354"/></clipPath></defs><svg viewBox="2432 1779 47 46" preserveAspectRatio="xMinYMin meet"><svg width="4380" height="2430"><g><image crossorigin="anonymous" x="0" y="0" href="https://nftpuzzle.license-token.com/assets/completepuzzle.svg" width="100%" height="100%" /><g class="links"><use href="#t7354"/></g></g></svg><svg x="2464" y="1810" height="9%" width="9%" viewBox="0 0 330 330"><g><a xlink:href="https://nftpuzzle.license-token.com/" class="links"><title>See the most innovative NFT based token software licensing project</title><path fill="#E4CF37" id="more" d="M165,0C74.019,0,0,74.019,0,165s74.019,165,165,165s165-74.019,165-165S255.981,0,165,0z M85,190 c-13.785,0-25-11.215-25-25s11.215-25,25-25s25,11.215,25,25S98.785,190,85,190z M165,190c-13.785,0-25-11.215-25-25 s11.215-25,25-25s25,11.215,25,25S178.785,190,165,190z M245,190c-13.785,0-25-11.215-25-25s11.215-25,25-25 c13.785,0,25,11.215,25,25S258.785,190,245,190z"></path></a></g></svg></svg></svg>