<svg version="1.1" xmlns="http://www.w3.org/2000/svg" xmlns:xlink="http://www.w3.org/1999/xlink" fill="transparent" x="0" y="0" width="350" height="350" preserveAspectRatio="xMinYMin slice"><style type="text/css">.links{fill:transparent;stroke: #E4CF37;}.links:hover{fill:#63D272; opacity:0.4;}</style><defs><g id="allt"><path id="t7356" d="M2541,1792 L2531,1790 C2521,1788 2531,1800 2523,1799 C2515,1798 2526,1790 2517,1791 L2508,1792 2508,1792 L2506,1801 C2505,1810 2514,1798 2514,1807 C2515,1816 2506,1804 2507,1814 L2508,1824 2508,1824 L2517,1822 C2526,1821 2514,1830 2523,1830 C2532,1831 2520,1822 2530,1823 L2541,1824 2541,1824 L2543,1813 C2545,1803 2531,1816 2529,1808 C2528,1801 2541,1810 2541,1801 L2541,1792"/></g><clipPath id="c" clipRule="evenodd" fill="transparent"><use href="#t7356"/></clipPath></defs><svg viewBox="2504 1787 42 45" preserveAspectRatio="xMinYMin meet"><svg width="4380" height="2430"><g><image crossorigin="anonymous" x="0" y="0" href="https://nftpuzzle.license-token.com/assets/completepuzzle.svg" width="100%" height="100%" /><g class="links"><use href="#t7356"/></g></g></svg><svg x="2531" y="1817" height="9%" width="9%" viewBox="0 0 330 330"><g><a xlink:href="https://nftpuzzle.license-token.com/" class="links"><title>See the most innovative NFT based token software licensing project</title><path fill="#E4CF37" id="more" d="M165,0C74.019,0,0,74.019,0,165s74.019,165,165,165s165-74.019,165-165S255.981,0,165,0z M85,190 c-13.785,0-25-11.215-25-25s11.215-25,25-25s25,11.215,25,25S98.785,190,85,190z M165,190c-13.785,0-25-11.215-25-25 s11.215-25,25-25s25,11.215,25,25S178.785,190,165,190z M245,190c-13.785,0-25-11.215-25-25s11.215-25,25-25 c13.785,0,25,11.215,25,25S258.785,190,245,190z"></path></a></g></svg></svg></svg>