<svg version="1.1" xmlns="http://www.w3.org/2000/svg" xmlns:xlink="http://www.w3.org/1999/xlink" fill="transparent" x="0" y="0" width="350" height="350" preserveAspectRatio="xMinYMin slice"><style type="text/css">.links{fill:transparent;stroke: #E4CF37;}.links:hover{fill:#63D272; opacity:0.4;}</style><defs><g id="allt"><path id="t7359" d="M2640,1792 L2630,1793 C2621,1795 2633,1788 2624,1788 C2616,1788 2628,1792 2617,1792 L2607,1792 2607,1792 L2607,1801 C2607,1811 2601,1796 2601,1806 C2601,1816 2610,1805 2608,1814 L2607,1824 2607,1824 L2617,1824 C2627,1824 2611,1818 2621,1818 C2632,1818 2621,1827 2630,1825 L2640,1824 2640,1824 L2640,1815 C2641,1806 2634,1814 2632,1805 C2630,1797 2642,1811 2641,1801 L2640,1792"/></g><clipPath id="c" clipRule="evenodd" fill="transparent"><use href="#t7359"/></clipPath></defs><svg viewBox="2600 1787 43 41" preserveAspectRatio="xMinYMin meet"><svg width="4380" height="2430"><g><image crossorigin="anonymous" x="0" y="0" href="https://nftpuzzle.license-token.com/assets/completepuzzle.svg" width="100%" height="100%" /><g class="links"><use href="#t7359"/></g></g></svg><svg x="2628" y="1813" height="9%" width="9%" viewBox="0 0 330 330"><g><a xlink:href="https://nftpuzzle.license-token.com/" class="links"><title>See the most innovative NFT based token software licensing project</title><path fill="#E4CF37" id="more" d="M165,0C74.019,0,0,74.019,0,165s74.019,165,165,165s165-74.019,165-165S255.981,0,165,0z M85,190 c-13.785,0-25-11.215-25-25s11.215-25,25-25s25,11.215,25,25S98.785,190,85,190z M165,190c-13.785,0-25-11.215-25-25 s11.215-25,25-25s25,11.215,25,25S178.785,190,165,190z M245,190c-13.785,0-25-11.215-25-25s11.215-25,25-25 c13.785,0,25,11.215,25,25S258.785,190,245,190z"></path></a></g></svg></svg></svg>