<svg version="1.1" xmlns="http://www.w3.org/2000/svg" xmlns:xlink="http://www.w3.org/1999/xlink" fill="transparent" x="0" y="0" width="350" height="350" preserveAspectRatio="xMinYMin slice"><style type="text/css">.links{fill:transparent;stroke: #E4CF37;}.links:hover{fill:#63D272; opacity:0.4;}</style><defs><g id="allt"><path id="t7362" d="M2739,1792 L2728,1792 C2717,1792 2732,1786 2722,1786 C2713,1786 2725,1794 2715,1793 L2706,1792 2706,1792 L2705,1801 C2705,1810 2711,1797 2711,1805 C2711,1814 2703,1803 2704,1813 L2706,1824 2706,1824 L2715,1823 C2724,1823 2711,1829 2720,1829 C2729,1829 2718,1821 2728,1822 L2739,1824 2739,1824 L2739,1814 C2739,1804 2730,1815 2732,1806 C2735,1798 2742,1813 2740,1802 L2739,1792"/></g><clipPath id="c" clipRule="evenodd" fill="transparent"><use href="#t7362"/></clipPath></defs><svg viewBox="2702 1785 41 45" preserveAspectRatio="xMinYMin meet"><svg width="4380" height="2430"><g><image crossorigin="anonymous" x="0" y="0" href="https://nftpuzzle.license-token.com/assets/completepuzzle.svg" width="100%" height="100%" /><g class="links"><use href="#t7362"/></g></g></svg><svg x="2728" y="1815" height="9%" width="9%" viewBox="0 0 330 330"><g><a xlink:href="https://nftpuzzle.license-token.com/" class="links"><title>See the most innovative NFT based token software licensing project</title><path fill="#E4CF37" id="more" d="M165,0C74.019,0,0,74.019,0,165s74.019,165,165,165s165-74.019,165-165S255.981,0,165,0z M85,190 c-13.785,0-25-11.215-25-25s11.215-25,25-25s25,11.215,25,25S98.785,190,85,190z M165,190c-13.785,0-25-11.215-25-25 s11.215-25,25-25s25,11.215,25,25S178.785,190,165,190z M245,190c-13.785,0-25-11.215-25-25s11.215-25,25-25 c13.785,0,25,11.215,25,25S258.785,190,245,190z"></path></a></g></svg></svg></svg>