<svg version="1.1" xmlns="http://www.w3.org/2000/svg" xmlns:xlink="http://www.w3.org/1999/xlink" fill="transparent" x="0" y="0" width="350" height="350" preserveAspectRatio="xMinYMin slice"><style type="text/css">.links{fill:transparent;stroke: #E4CF37;}.links:hover{fill:#63D272; opacity:0.4;}</style><defs><g id="allt"><path id="t7366" d="M2871,1792 L2860,1792 C2850,1792 2863,1799 2853,1797 C2843,1795 2859,1791 2848,1791 L2838,1792 2838,1792 L2838,1802 C2838,1812 2830,1800 2832,1808 C2834,1816 2838,1806 2838,1815 L2838,1824 2838,1824 L2848,1824 C2859,1824 2846,1816 2854,1818 C2863,1820 2852,1824 2861,1824 L2871,1824 2871,1824 L2872,1814 C2874,1804 2861,1816 2859,1808 C2858,1800 2874,1813 2872,1802 L2871,1792"/></g><clipPath id="c" clipRule="evenodd" fill="transparent"><use href="#t7366"/></clipPath></defs><svg viewBox="2829 1790 46 35" preserveAspectRatio="xMinYMin meet"><svg width="4380" height="2430"><g><image crossorigin="anonymous" x="0" y="0" href="https://nftpuzzle.license-token.com/assets/completepuzzle.svg" width="100%" height="100%" /><g class="links"><use href="#t7366"/></g></g></svg><svg x="2860" y="1810" height="9%" width="9%" viewBox="0 0 330 330"><g><a xlink:href="https://nftpuzzle.license-token.com/" class="links"><title>See the most innovative NFT based token software licensing project</title><path fill="#E4CF37" id="more" d="M165,0C74.019,0,0,74.019,0,165s74.019,165,165,165s165-74.019,165-165S255.981,0,165,0z M85,190 c-13.785,0-25-11.215-25-25s11.215-25,25-25s25,11.215,25,25S98.785,190,85,190z M165,190c-13.785,0-25-11.215-25-25 s11.215-25,25-25s25,11.215,25,25S178.785,190,165,190z M245,190c-13.785,0-25-11.215-25-25s11.215-25,25-25 c13.785,0,25,11.215,25,25S258.785,190,245,190z"></path></a></g></svg></svg></svg>