<svg version="1.1" xmlns="http://www.w3.org/2000/svg" xmlns:xlink="http://www.w3.org/1999/xlink" fill="transparent" x="0" y="0" width="350" height="350" preserveAspectRatio="xMinYMin slice"><style type="text/css">.links{fill:transparent;stroke: #E4CF37;}.links:hover{fill:#63D272; opacity:0.4;}</style><defs><g id="allt"><path id="t7368" d="M2937,1792 L2927,1792 C2918,1792 2928,1787 2920,1787 C2912,1787 2925,1795 2914,1793 L2904,1792 2904,1792 L2903,1801 C2903,1811 2909,1798 2911,1806 C2914,1815 2904,1803 2904,1813 L2904,1824 2904,1824 L2913,1823 C2923,1823 2910,1829 2918,1831 C2927,1834 2915,1824 2926,1824 L2937,1824 2937,1824 L2937,1814 C2937,1804 2945,1815 2942,1806 C2940,1797 2937,1811 2937,1801 L2937,1792"/></g><clipPath id="c" clipRule="evenodd" fill="transparent"><use href="#t7368"/></clipPath></defs><svg viewBox="2902 1786 44 49" preserveAspectRatio="xMinYMin meet"><svg width="4380" height="2430"><g><image crossorigin="anonymous" x="0" y="0" href="https://nftpuzzle.license-token.com/assets/completepuzzle.svg" width="100%" height="100%" /><g class="links"><use href="#t7368"/></g></g></svg><svg x="2931" y="1820" height="9%" width="9%" viewBox="0 0 330 330"><g><a xlink:href="https://nftpuzzle.license-token.com/" class="links"><title>See the most innovative NFT based token software licensing project</title><path fill="#E4CF37" id="more" d="M165,0C74.019,0,0,74.019,0,165s74.019,165,165,165s165-74.019,165-165S255.981,0,165,0z M85,190 c-13.785,0-25-11.215-25-25s11.215-25,25-25s25,11.215,25,25S98.785,190,85,190z M165,190c-13.785,0-25-11.215-25-25 s11.215-25,25-25s25,11.215,25,25S178.785,190,165,190z M245,190c-13.785,0-25-11.215-25-25s11.215-25,25-25 c13.785,0,25,11.215,25,25S258.785,190,245,190z"></path></a></g></svg></svg></svg>