<svg version="1.1" xmlns="http://www.w3.org/2000/svg" xmlns:xlink="http://www.w3.org/1999/xlink" fill="transparent" x="0" y="0" width="350" height="350" preserveAspectRatio="xMinYMin slice"><style type="text/css">.links{fill:transparent;stroke: #E4CF37;}.links:hover{fill:#63D272; opacity:0.4;}</style><defs><g id="allt"><path id="t7373" d="M3102,1792 L3092,1791 C3082,1790 3096,1797 3086,1797 C3076,1798 3089,1789 3079,1790 L3069,1792 3069,1792 L3068,1802 C3067,1813 3073,1800 3074,1807 C3076,1815 3069,1802 3069,1813 L3069,1824 3069,1824 L3079,1823 C3090,1822 3077,1828 3085,1829 C3093,1831 3079,1824 3090,1824 L3102,1824 3102,1824 L3102,1814 C3102,1804 3097,1817 3096,1808 C3096,1799 3102,1810 3102,1801 L3102,1792"/></g><clipPath id="c" clipRule="evenodd" fill="transparent"><use href="#t7373"/></clipPath></defs><svg viewBox="3066 1788 37 44" preserveAspectRatio="xMinYMin meet"><svg width="4380" height="2430"><g><image crossorigin="anonymous" x="0" y="0" href="https://nftpuzzle.license-token.com/assets/completepuzzle.svg" width="100%" height="100%" /><g class="links"><use href="#t7373"/></g></g></svg><svg x="3088" y="1817" height="9%" width="9%" viewBox="0 0 330 330"><g><a xlink:href="https://nftpuzzle.license-token.com/" class="links"><title>See the most innovative NFT based token software licensing project</title><path fill="#E4CF37" id="more" d="M165,0C74.019,0,0,74.019,0,165s74.019,165,165,165s165-74.019,165-165S255.981,0,165,0z M85,190 c-13.785,0-25-11.215-25-25s11.215-25,25-25s25,11.215,25,25S98.785,190,85,190z M165,190c-13.785,0-25-11.215-25-25 s11.215-25,25-25s25,11.215,25,25S178.785,190,165,190z M245,190c-13.785,0-25-11.215-25-25s11.215-25,25-25 c13.785,0,25,11.215,25,25S258.785,190,245,190z"></path></a></g></svg></svg></svg>