<svg version="1.1" xmlns="http://www.w3.org/2000/svg" xmlns:xlink="http://www.w3.org/1999/xlink" fill="transparent" x="0" y="0" width="350" height="350" preserveAspectRatio="xMinYMin slice"><style type="text/css">.links{fill:transparent;stroke: #E4CF37;}.links:hover{fill:#63D272; opacity:0.4;}</style><defs><g id="allt"><path id="t7375" d="M3168,1792 L3157,1792 C3146,1793 3160,1790 3151,1788 C3142,1787 3156,1792 3145,1792 L3135,1792 3135,1792 L3135,1801 C3135,1810 3146,1801 3144,1808 C3142,1816 3133,1802 3134,1813 L3135,1824 3135,1824 L3144,1824 C3153,1824 3144,1834 3152,1832 C3160,1831 3146,1822 3157,1823 L3168,1824 3168,1824 L3170,1813 C3172,1802 3164,1818 3164,1809 C3164,1801 3170,1810 3169,1801 L3168,1792"/></g><clipPath id="c" clipRule="evenodd" fill="transparent"><use href="#t7375"/></clipPath></defs><svg viewBox="3132 1786 41 49" preserveAspectRatio="xMinYMin meet"><svg width="4380" height="2430"><g><image crossorigin="anonymous" x="0" y="0" href="https://nftpuzzle.license-token.com/assets/completepuzzle.svg" width="100%" height="100%" /><g class="links"><use href="#t7375"/></g></g></svg><svg x="3158" y="1820" height="9%" width="9%" viewBox="0 0 330 330"><g><a xlink:href="https://nftpuzzle.license-token.com/" class="links"><title>See the most innovative NFT based token software licensing project</title><path fill="#E4CF37" id="more" d="M165,0C74.019,0,0,74.019,0,165s74.019,165,165,165s165-74.019,165-165S255.981,0,165,0z M85,190 c-13.785,0-25-11.215-25-25s11.215-25,25-25s25,11.215,25,25S98.785,190,85,190z M165,190c-13.785,0-25-11.215-25-25 s11.215-25,25-25s25,11.215,25,25S178.785,190,165,190z M245,190c-13.785,0-25-11.215-25-25s11.215-25,25-25 c13.785,0,25,11.215,25,25S258.785,190,245,190z"></path></a></g></svg></svg></svg>