<svg version="1.1" xmlns="http://www.w3.org/2000/svg" xmlns:xlink="http://www.w3.org/1999/xlink" fill="transparent" x="0" y="0" width="350" height="350" preserveAspectRatio="xMinYMin slice"><style type="text/css">.links{fill:transparent;stroke: #E4CF37;}.links:hover{fill:#63D272; opacity:0.4;}</style><defs><g id="allt"><path id="t7376" d="M3201,1792 L3190,1791 C3179,1791 3193,1797 3185,1797 C3177,1798 3187,1791 3177,1791 L3168,1792 3168,1792 L3169,1801 C3170,1810 3164,1801 3164,1809 C3164,1818 3172,1802 3170,1813 L3168,1824 3168,1824 L3177,1825 C3186,1826 3177,1820 3186,1820 C3195,1820 3179,1828 3190,1826 L3201,1824 3201,1824 L3200,1813 C3200,1802 3206,1818 3206,1808 C3206,1798 3198,1810 3199,1801 L3201,1792"/></g><clipPath id="c" clipRule="evenodd" fill="transparent"><use href="#t7376"/></clipPath></defs><svg viewBox="3163 1790 44 39" preserveAspectRatio="xMinYMin meet"><svg width="4380" height="2430"><g><image crossorigin="anonymous" x="0" y="0" href="https://nftpuzzle.license-token.com/assets/completepuzzle.svg" width="100%" height="100%" /><g class="links"><use href="#t7376"/></g></g></svg><svg x="3192" y="1814" height="9%" width="9%" viewBox="0 0 330 330"><g><a xlink:href="https://nftpuzzle.license-token.com/" class="links"><title>See the most innovative NFT based token software licensing project</title><path fill="#E4CF37" id="more" d="M165,0C74.019,0,0,74.019,0,165s74.019,165,165,165s165-74.019,165-165S255.981,0,165,0z M85,190 c-13.785,0-25-11.215-25-25s11.215-25,25-25s25,11.215,25,25S98.785,190,85,190z M165,190c-13.785,0-25-11.215-25-25 s11.215-25,25-25s25,11.215,25,25S178.785,190,165,190z M245,190c-13.785,0-25-11.215-25-25s11.215-25,25-25 c13.785,0,25,11.215,25,25S258.785,190,245,190z"></path></a></g></svg></svg></svg>