<svg version="1.1" xmlns="http://www.w3.org/2000/svg" xmlns:xlink="http://www.w3.org/1999/xlink" fill="transparent" x="0" y="0" width="350" height="350" preserveAspectRatio="xMinYMin slice"><style type="text/css">.links{fill:transparent;stroke: #E4CF37;}.links:hover{fill:#63D272; opacity:0.4;}</style><defs><g id="allt"><path id="t738" d="M2937,160 L2926,159 C2915,159 2928,165 2919,166 C2910,167 2923,158 2913,159 L2904,160 2904,160 L2903,169 C2902,178 2912,166 2911,175 C2911,185 2904,171 2904,181 L2904,192 2904,192 L2913,191 C2923,190 2910,200 2920,199 C2930,199 2916,192 2926,192 L2937,192 2937,192 L2937,182 C2938,172 2933,187 2932,178 C2932,169 2937,179 2937,169 L2937,160"/></g><clipPath id="c" clipRule="evenodd" fill="transparent"><use href="#t738"/></clipPath></defs><svg viewBox="2901 157 38 44" preserveAspectRatio="xMinYMin meet"><svg width="4380" height="2430"><g><image crossorigin="anonymous" x="0" y="0" href="https://nftpuzzle.license-token.com/assets/completepuzzle.svg" width="100%" height="100%" /><g class="links"><use href="#t738"/></g></g></svg><svg x="2924" y="186" height="9%" width="9%" viewBox="0 0 330 330"><g><a xlink:href="https://nftpuzzle.license-token.com/" class="links"><title>See the most innovative NFT based token software licensing project</title><path fill="#E4CF37" id="more" d="M165,0C74.019,0,0,74.019,0,165s74.019,165,165,165s165-74.019,165-165S255.981,0,165,0z M85,190 c-13.785,0-25-11.215-25-25s11.215-25,25-25s25,11.215,25,25S98.785,190,85,190z M165,190c-13.785,0-25-11.215-25-25 s11.215-25,25-25s25,11.215,25,25S178.785,190,165,190z M245,190c-13.785,0-25-11.215-25-25s11.215-25,25-25 c13.785,0,25,11.215,25,25S258.785,190,245,190z"></path></a></g></svg></svg></svg>