<svg version="1.1" xmlns="http://www.w3.org/2000/svg" xmlns:xlink="http://www.w3.org/1999/xlink" fill="transparent" x="0" y="0" width="350" height="350" preserveAspectRatio="xMinYMin slice"><style type="text/css">.links{fill:transparent;stroke: #E4CF37;}.links:hover{fill:#63D272; opacity:0.4;}</style><defs><g id="allt"><path id="t7384" d="M3465,1792 L3453,1792 C3442,1793 3458,1783 3447,1783 C3437,1783 3454,1794 3443,1793 L3432,1792 3432,1792 L3432,1801 C3433,1811 3427,1800 3427,1807 C3428,1815 3434,1803 3433,1813 L3432,1824 3432,1824 L3441,1824 C3451,1825 3440,1819 3447,1819 C3455,1820 3443,1826 3454,1825 L3465,1824 3465,1824 L3465,1813 C3465,1803 3470,1817 3470,1809 C3470,1801 3463,1811 3464,1801 L3465,1792"/></g><clipPath id="c" clipRule="evenodd" fill="transparent"><use href="#t7384"/></clipPath></defs><svg viewBox="3426 1782 45 45" preserveAspectRatio="xMinYMin meet"><svg width="4380" height="2430"><g><image crossorigin="anonymous" x="0" y="0" href="https://nftpuzzle.license-token.com/assets/completepuzzle.svg" width="100%" height="100%" /><g class="links"><use href="#t7384"/></g></g></svg><svg x="3456" y="1812" height="9%" width="9%" viewBox="0 0 330 330"><g><a xlink:href="https://nftpuzzle.license-token.com/" class="links"><title>See the most innovative NFT based token software licensing project</title><path fill="#E4CF37" id="more" d="M165,0C74.019,0,0,74.019,0,165s74.019,165,165,165s165-74.019,165-165S255.981,0,165,0z M85,190 c-13.785,0-25-11.215-25-25s11.215-25,25-25s25,11.215,25,25S98.785,190,85,190z M165,190c-13.785,0-25-11.215-25-25 s11.215-25,25-25s25,11.215,25,25S178.785,190,165,190z M245,190c-13.785,0-25-11.215-25-25s11.215-25,25-25 c13.785,0,25,11.215,25,25S258.785,190,245,190z"></path></a></g></svg></svg></svg>