<svg version="1.1" xmlns="http://www.w3.org/2000/svg" xmlns:xlink="http://www.w3.org/1999/xlink" fill="transparent" x="0" y="0" width="350" height="350" preserveAspectRatio="xMinYMin slice"><style type="text/css">.links{fill:transparent;stroke: #E4CF37;}.links:hover{fill:#63D272; opacity:0.4;}</style><defs><g id="allt"><path id="t7386" d="M3531,1792 L3521,1792 C3511,1792 3521,1789 3513,1787 C3506,1786 3518,1792 3508,1792 L3498,1792 3498,1792 L3498,1800 C3498,1809 3492,1798 3490,1806 C3489,1815 3498,1803 3498,1813 L3498,1824 3498,1824 L3507,1824 C3516,1824 3504,1818 3512,1817 C3521,1816 3510,1824 3520,1824 L3531,1824 3531,1824 L3531,1815 C3532,1806 3527,1817 3526,1807 C3525,1797 3533,1812 3532,1802 L3531,1792"/></g><clipPath id="c" clipRule="evenodd" fill="transparent"><use href="#t7386"/></clipPath></defs><svg viewBox="3488 1785 46 40" preserveAspectRatio="xMinYMin meet"><svg width="4380" height="2430"><g><image crossorigin="anonymous" x="0" y="0" href="https://nftpuzzle.license-token.com/assets/completepuzzle.svg" width="100%" height="100%" /><g class="links"><use href="#t7386"/></g></g></svg><svg x="3519" y="1810" height="9%" width="9%" viewBox="0 0 330 330"><g><a xlink:href="https://nftpuzzle.license-token.com/" class="links"><title>See the most innovative NFT based token software licensing project</title><path fill="#E4CF37" id="more" d="M165,0C74.019,0,0,74.019,0,165s74.019,165,165,165s165-74.019,165-165S255.981,0,165,0z M85,190 c-13.785,0-25-11.215-25-25s11.215-25,25-25s25,11.215,25,25S98.785,190,85,190z M165,190c-13.785,0-25-11.215-25-25 s11.215-25,25-25s25,11.215,25,25S178.785,190,165,190z M245,190c-13.785,0-25-11.215-25-25s11.215-25,25-25 c13.785,0,25,11.215,25,25S258.785,190,245,190z"></path></a></g></svg></svg></svg>