<svg version="1.1" xmlns="http://www.w3.org/2000/svg" xmlns:xlink="http://www.w3.org/1999/xlink" fill="transparent" x="0" y="0" width="350" height="350" preserveAspectRatio="xMinYMin slice"><style type="text/css">.links{fill:transparent;stroke: #E4CF37;}.links:hover{fill:#63D272; opacity:0.4;}</style><defs><g id="allt"><path id="t7387" d="M3564,1792 L3554,1791 C3544,1791 3556,1796 3547,1795 C3538,1794 3553,1792 3542,1792 L3531,1792 3531,1792 L3532,1802 C3533,1812 3525,1797 3526,1807 C3527,1817 3532,1806 3531,1815 L3531,1824 3531,1824 L3541,1825 C3551,1826 3536,1818 3546,1819 C3557,1820 3545,1825 3554,1824 L3564,1824 3564,1824 L3562,1814 C3561,1804 3571,1817 3573,1808 C3575,1799 3564,1812 3564,1802 L3564,1792"/></g><clipPath id="c" clipRule="evenodd" fill="transparent"><use href="#t7387"/></clipPath></defs><svg viewBox="3524 1790 52 37" preserveAspectRatio="xMinYMin meet"><svg width="4380" height="2430"><g><image crossorigin="anonymous" x="0" y="0" href="https://nftpuzzle.license-token.com/assets/completepuzzle.svg" width="100%" height="100%" /><g class="links"><use href="#t7387"/></g></g></svg><svg x="3561" y="1812" height="9%" width="9%" viewBox="0 0 330 330"><g><a xlink:href="https://nftpuzzle.license-token.com/" class="links"><title>See the most innovative NFT based token software licensing project</title><path fill="#E4CF37" id="more" d="M165,0C74.019,0,0,74.019,0,165s74.019,165,165,165s165-74.019,165-165S255.981,0,165,0z M85,190 c-13.785,0-25-11.215-25-25s11.215-25,25-25s25,11.215,25,25S98.785,190,85,190z M165,190c-13.785,0-25-11.215-25-25 s11.215-25,25-25s25,11.215,25,25S178.785,190,165,190z M245,190c-13.785,0-25-11.215-25-25s11.215-25,25-25 c13.785,0,25,11.215,25,25S258.785,190,245,190z"></path></a></g></svg></svg></svg>