<svg version="1.1" xmlns="http://www.w3.org/2000/svg" xmlns:xlink="http://www.w3.org/1999/xlink" fill="transparent" x="0" y="0" width="350" height="350" preserveAspectRatio="xMinYMin slice"><style type="text/css">.links{fill:transparent;stroke: #E4CF37;}.links:hover{fill:#63D272; opacity:0.4;}</style><defs><g id="allt"><path id="t7389" d="M3630,1792 L3620,1793 C3610,1794 3620,1785 3611,1785 C3603,1785 3616,1792 3606,1792 L3597,1792 3597,1792 L3597,1801 C3597,1810 3592,1800 3591,1809 C3590,1818 3600,1806 3598,1815 L3597,1824 3597,1824 L3606,1824 C3616,1824 3605,1819 3614,1818 C3624,1817 3611,1827 3620,1825 L3630,1824 3630,1824 L3628,1814 C3627,1804 3640,1816 3638,1807 C3636,1799 3630,1809 3630,1800 L3630,1792"/></g><clipPath id="c" clipRule="evenodd" fill="transparent"><use href="#t7389"/></clipPath></defs><svg viewBox="3589 1784 52 44" preserveAspectRatio="xMinYMin meet"><svg width="4380" height="2430"><g><image crossorigin="anonymous" x="0" y="0" href="https://nftpuzzle.license-token.com/assets/completepuzzle.svg" width="100%" height="100%" /><g class="links"><use href="#t7389"/></g></g></svg><svg x="3626" y="1813" height="9%" width="9%" viewBox="0 0 330 330"><g><a xlink:href="https://nftpuzzle.license-token.com/" class="links"><title>See the most innovative NFT based token software licensing project</title><path fill="#E4CF37" id="more" d="M165,0C74.019,0,0,74.019,0,165s74.019,165,165,165s165-74.019,165-165S255.981,0,165,0z M85,190 c-13.785,0-25-11.215-25-25s11.215-25,25-25s25,11.215,25,25S98.785,190,85,190z M165,190c-13.785,0-25-11.215-25-25 s11.215-25,25-25s25,11.215,25,25S178.785,190,165,190z M245,190c-13.785,0-25-11.215-25-25s11.215-25,25-25 c13.785,0,25,11.215,25,25S258.785,190,245,190z"></path></a></g></svg></svg></svg>