<svg version="1.1" xmlns="http://www.w3.org/2000/svg" xmlns:xlink="http://www.w3.org/1999/xlink" fill="transparent" x="0" y="0" width="350" height="350" preserveAspectRatio="xMinYMin slice"><style type="text/css">.links{fill:transparent;stroke: #E4CF37;}.links:hover{fill:#63D272; opacity:0.4;}</style><defs><g id="allt"><path id="t739" d="M2970,160 L2960,160 C2951,160 2961,153 2951,152 C2942,152 2955,162 2946,161 L2937,160 2937,160 L2937,169 C2937,179 2932,169 2932,178 C2933,187 2938,172 2937,182 L2937,192 2937,192 L2946,192 C2956,192 2946,187 2955,187 C2965,188 2949,193 2959,192 L2970,192 2970,192 L2971,183 C2973,174 2962,183 2960,173 C2958,164 2970,180 2970,170 L2970,160"/></g><clipPath id="c" clipRule="evenodd" fill="transparent"><use href="#t739"/></clipPath></defs><svg viewBox="2931 151 43 43" preserveAspectRatio="xMinYMin meet"><svg width="4380" height="2430"><g><image crossorigin="anonymous" x="0" y="0" href="https://nftpuzzle.license-token.com/assets/completepuzzle.svg" width="100%" height="100%" /><g class="links"><use href="#t739"/></g></g></svg><svg x="2959" y="179" height="9%" width="9%" viewBox="0 0 330 330"><g><a xlink:href="https://nftpuzzle.license-token.com/" class="links"><title>See the most innovative NFT based token software licensing project</title><path fill="#E4CF37" id="more" d="M165,0C74.019,0,0,74.019,0,165s74.019,165,165,165s165-74.019,165-165S255.981,0,165,0z M85,190 c-13.785,0-25-11.215-25-25s11.215-25,25-25s25,11.215,25,25S98.785,190,85,190z M165,190c-13.785,0-25-11.215-25-25 s11.215-25,25-25s25,11.215,25,25S178.785,190,165,190z M245,190c-13.785,0-25-11.215-25-25s11.215-25,25-25 c13.785,0,25,11.215,25,25S258.785,190,245,190z"></path></a></g></svg></svg></svg>