<svg version="1.1" xmlns="http://www.w3.org/2000/svg" xmlns:xlink="http://www.w3.org/1999/xlink" fill="transparent" x="0" y="0" width="350" height="350" preserveAspectRatio="xMinYMin slice"><style type="text/css">.links{fill:transparent;stroke: #E4CF37;}.links:hover{fill:#63D272; opacity:0.4;}</style><defs><g id="allt"><path id="t7390" d="M3663,1792 L3653,1790 C3644,1788 3654,1802 3646,1803 C3638,1804 3648,1790 3639,1791 L3630,1792 3630,1792 L3630,1800 C3630,1809 3636,1799 3638,1807 C3640,1816 3627,1804 3628,1814 L3630,1824 3630,1824 L3639,1824 C3648,1824 3637,1830 3646,1832 C3655,1834 3642,1821 3652,1822 L3663,1824 3663,1824 L3661,1813 C3660,1802 3673,1818 3673,1808 C3674,1799 3662,1811 3662,1801 L3663,1792"/></g><clipPath id="c" clipRule="evenodd" fill="transparent"><use href="#t7390"/></clipPath></defs><svg viewBox="3626 1787 49 48" preserveAspectRatio="xMinYMin meet"><svg width="4380" height="2430"><g><image crossorigin="anonymous" x="0" y="0" href="https://nftpuzzle.license-token.com/assets/completepuzzle.svg" width="100%" height="100%" /><g class="links"><use href="#t7390"/></g></g></svg><svg x="3660" y="1820" height="9%" width="9%" viewBox="0 0 330 330"><g><a xlink:href="https://nftpuzzle.license-token.com/" class="links"><title>See the most innovative NFT based token software licensing project</title><path fill="#E4CF37" id="more" d="M165,0C74.019,0,0,74.019,0,165s74.019,165,165,165s165-74.019,165-165S255.981,0,165,0z M85,190 c-13.785,0-25-11.215-25-25s11.215-25,25-25s25,11.215,25,25S98.785,190,85,190z M165,190c-13.785,0-25-11.215-25-25 s11.215-25,25-25s25,11.215,25,25S178.785,190,165,190z M245,190c-13.785,0-25-11.215-25-25s11.215-25,25-25 c13.785,0,25,11.215,25,25S258.785,190,245,190z"></path></a></g></svg></svg></svg>