<svg version="1.1" xmlns="http://www.w3.org/2000/svg" xmlns:xlink="http://www.w3.org/1999/xlink" fill="transparent" x="0" y="0" width="350" height="350" preserveAspectRatio="xMinYMin slice"><style type="text/css">.links{fill:transparent;stroke: #E4CF37;}.links:hover{fill:#63D272; opacity:0.4;}</style><defs><g id="allt"><path id="t7398" d="M3927,1792 L3916,1792 C3906,1792 3921,1789 3910,1787 C3899,1786 3913,1792 3903,1792 L3894,1792 3894,1792 L3894,1802 C3894,1812 3892,1800 3891,1807 C3890,1815 3895,1805 3894,1814 L3894,1824 3894,1824 L3904,1824 C3914,1824 3902,1822 3910,1821 C3918,1820 3907,1825 3917,1824 L3927,1824 3927,1824 L3927,1814 C3928,1804 3917,1816 3918,1807 C3919,1799 3927,1813 3927,1802 L3927,1792"/></g><clipPath id="c" clipRule="evenodd" fill="transparent"><use href="#t7398"/></clipPath></defs><svg viewBox="3889 1785 40 41" preserveAspectRatio="xMinYMin meet"><svg width="4380" height="2430"><g><image crossorigin="anonymous" x="0" y="0" href="https://nftpuzzle.license-token.com/assets/completepuzzle.svg" width="100%" height="100%" /><g class="links"><use href="#t7398"/></g></g></svg><svg x="3914" y="1811" height="9%" width="9%" viewBox="0 0 330 330"><g><a xlink:href="https://nftpuzzle.license-token.com/" class="links"><title>See the most innovative NFT based token software licensing project</title><path fill="#E4CF37" id="more" d="M165,0C74.019,0,0,74.019,0,165s74.019,165,165,165s165-74.019,165-165S255.981,0,165,0z M85,190 c-13.785,0-25-11.215-25-25s11.215-25,25-25s25,11.215,25,25S98.785,190,85,190z M165,190c-13.785,0-25-11.215-25-25 s11.215-25,25-25s25,11.215,25,25S178.785,190,165,190z M245,190c-13.785,0-25-11.215-25-25s11.215-25,25-25 c13.785,0,25,11.215,25,25S258.785,190,245,190z"></path></a></g></svg></svg></svg>