<svg version="1.1" xmlns="http://www.w3.org/2000/svg" xmlns:xlink="http://www.w3.org/1999/xlink" fill="transparent" x="0" y="0" width="350" height="350" preserveAspectRatio="xMinYMin slice"><style type="text/css">.links{fill:transparent;stroke: #E4CF37;}.links:hover{fill:#63D272; opacity:0.4;}</style><defs><g id="allt"><path id="t7399" d="M3960,1792 L3950,1792 C3941,1792 3950,1790 3942,1790 C3934,1790 3948,1794 3937,1793 L3927,1792 3927,1792 L3927,1802 C3927,1813 3919,1799 3918,1807 C3917,1816 3928,1804 3927,1814 L3927,1824 3927,1824 L3938,1824 C3949,1824 3934,1816 3942,1815 C3951,1814 3940,1825 3950,1824 L3960,1824 3960,1824 L3961,1815 C3962,1806 3954,1815 3955,1807 C3956,1800 3962,1810 3961,1801 L3960,1792"/></g><clipPath id="c" clipRule="evenodd" fill="transparent"><use href="#t7399"/></clipPath></defs><svg viewBox="3916 1789 47 37" preserveAspectRatio="xMinYMin meet"><svg width="4380" height="2430"><g><image crossorigin="anonymous" x="0" y="0" href="https://nftpuzzle.license-token.com/assets/completepuzzle.svg" width="100%" height="100%" /><g class="links"><use href="#t7399"/></g></g></svg><svg x="3948" y="1811" height="9%" width="9%" viewBox="0 0 330 330"><g><a xlink:href="https://nftpuzzle.license-token.com/" class="links"><title>See the most innovative NFT based token software licensing project</title><path fill="#E4CF37" id="more" d="M165,0C74.019,0,0,74.019,0,165s74.019,165,165,165s165-74.019,165-165S255.981,0,165,0z M85,190 c-13.785,0-25-11.215-25-25s11.215-25,25-25s25,11.215,25,25S98.785,190,85,190z M165,190c-13.785,0-25-11.215-25-25 s11.215-25,25-25s25,11.215,25,25S178.785,190,165,190z M245,190c-13.785,0-25-11.215-25-25s11.215-25,25-25 c13.785,0,25,11.215,25,25S258.785,190,245,190z"></path></a></g></svg></svg></svg>