<svg version="1.1" xmlns="http://www.w3.org/2000/svg" xmlns:xlink="http://www.w3.org/1999/xlink" fill="transparent" x="0" y="0" width="350" height="350" preserveAspectRatio="xMinYMin slice"><style type="text/css">.links{fill:transparent;stroke: #E4CF37;}.links:hover{fill:#63D272; opacity:0.4;}</style><defs><g id="allt"><path id="t740" d="M3003,160 L2992,161 C2982,163 2996,152 2986,152 C2977,153 2991,160 2980,160 L2970,160 2970,160 L2970,170 C2970,180 2958,164 2960,173 C2962,183 2973,174 2971,183 L2970,192 2970,192 L2980,192 C2991,192 2974,181 2984,182 C2994,184 2984,195 2993,193 L3003,192 3003,192 L3004,182 C3006,172 2991,185 2993,175 C2996,165 3008,177 3005,168 L3003,160"/></g><clipPath id="c" clipRule="evenodd" fill="transparent"><use href="#t740"/></clipPath></defs><svg viewBox="2957 151 52 45" preserveAspectRatio="xMinYMin meet"><svg width="4380" height="2430"><g><image crossorigin="anonymous" x="0" y="0" href="https://nftpuzzle.license-token.com/assets/completepuzzle.svg" width="100%" height="100%" /><g class="links"><use href="#t740"/></g></g></svg><svg x="2994" y="181" height="9%" width="9%" viewBox="0 0 330 330"><g><a xlink:href="https://nftpuzzle.license-token.com/" class="links"><title>See the most innovative NFT based token software licensing project</title><path fill="#E4CF37" id="more" d="M165,0C74.019,0,0,74.019,0,165s74.019,165,165,165s165-74.019,165-165S255.981,0,165,0z M85,190 c-13.785,0-25-11.215-25-25s11.215-25,25-25s25,11.215,25,25S98.785,190,85,190z M165,190c-13.785,0-25-11.215-25-25 s11.215-25,25-25s25,11.215,25,25S178.785,190,165,190z M245,190c-13.785,0-25-11.215-25-25s11.215-25,25-25 c13.785,0,25,11.215,25,25S258.785,190,245,190z"></path></a></g></svg></svg></svg>