<svg version="1.1" xmlns="http://www.w3.org/2000/svg" xmlns:xlink="http://www.w3.org/1999/xlink" fill="transparent" x="0" y="0" width="350" height="350" preserveAspectRatio="xMinYMin slice"><style type="text/css">.links{fill:transparent;stroke: #E4CF37;}.links:hover{fill:#63D272; opacity:0.4;}</style><defs><g id="allt"><path id="t7401" d="M4026,1792 L4015,1792 C4005,1792 4018,1790 4009,1789 C4001,1789 4014,1792 4003,1792 L3993,1792 3993,1792 L3994,1802 C3995,1812 3990,1799 3989,1807 C3988,1815 3995,1805 3994,1814 L3993,1824 3993,1824 L4003,1825 C4013,1826 4000,1821 4008,1820 C4017,1819 4006,1826 4016,1825 L4026,1824 4026,1824 L4026,1814 C4026,1804 4033,1816 4031,1806 C4030,1797 4025,1812 4025,1802 L4026,1792"/></g><clipPath id="c" clipRule="evenodd" fill="transparent"><use href="#t7401"/></clipPath></defs><svg viewBox="3987 1788 47 39" preserveAspectRatio="xMinYMin meet"><svg width="4380" height="2430"><g><image crossorigin="anonymous" x="0" y="0" href="https://nftpuzzle.license-token.com/assets/completepuzzle.svg" width="100%" height="100%" /><g class="links"><use href="#t7401"/></g></g></svg><svg x="4019" y="1812" height="9%" width="9%" viewBox="0 0 330 330"><g><a xlink:href="https://nftpuzzle.license-token.com/" class="links"><title>See the most innovative NFT based token software licensing project</title><path fill="#E4CF37" id="more" d="M165,0C74.019,0,0,74.019,0,165s74.019,165,165,165s165-74.019,165-165S255.981,0,165,0z M85,190 c-13.785,0-25-11.215-25-25s11.215-25,25-25s25,11.215,25,25S98.785,190,85,190z M165,190c-13.785,0-25-11.215-25-25 s11.215-25,25-25s25,11.215,25,25S178.785,190,165,190z M245,190c-13.785,0-25-11.215-25-25s11.215-25,25-25 c13.785,0,25,11.215,25,25S258.785,190,245,190z"></path></a></g></svg></svg></svg>