<svg version="1.1" xmlns="http://www.w3.org/2000/svg" xmlns:xlink="http://www.w3.org/1999/xlink" fill="transparent" x="0" y="0" width="350" height="350" preserveAspectRatio="xMinYMin slice"><style type="text/css">.links{fill:transparent;stroke: #E4CF37;}.links:hover{fill:#63D272; opacity:0.4;}</style><defs><g id="allt"><path id="t7403" d="M4092,1792 L4081,1794 C4070,1797 4082,1784 4075,1784 C4068,1784 4080,1796 4069,1794 L4059,1792 4059,1792 L4059,1802 C4059,1813 4056,1798 4055,1808 C4055,1818 4059,1805 4059,1814 L4059,1824 4059,1824 L4070,1824 C4081,1824 4065,1821 4075,1820 C4086,1820 4072,1824 4082,1824 L4092,1824 4092,1824 L4092,1813 C4092,1802 4095,1815 4096,1806 C4097,1797 4090,1813 4091,1802 L4092,1792"/></g><clipPath id="c" clipRule="evenodd" fill="transparent"><use href="#t7403"/></clipPath></defs><svg viewBox="4054 1783 44 42" preserveAspectRatio="xMinYMin meet"><svg width="4380" height="2430"><g><image crossorigin="anonymous" x="0" y="0" href="https://nftpuzzle.license-token.com/assets/completepuzzle.svg" width="100%" height="100%" /><g class="links"><use href="#t7403"/></g></g></svg><svg x="4083" y="1810" height="9%" width="9%" viewBox="0 0 330 330"><g><a xlink:href="https://nftpuzzle.license-token.com/" class="links"><title>See the most innovative NFT based token software licensing project</title><path fill="#E4CF37" id="more" d="M165,0C74.019,0,0,74.019,0,165s74.019,165,165,165s165-74.019,165-165S255.981,0,165,0z M85,190 c-13.785,0-25-11.215-25-25s11.215-25,25-25s25,11.215,25,25S98.785,190,85,190z M165,190c-13.785,0-25-11.215-25-25 s11.215-25,25-25s25,11.215,25,25S178.785,190,165,190z M245,190c-13.785,0-25-11.215-25-25s11.215-25,25-25 c13.785,0,25,11.215,25,25S258.785,190,245,190z"></path></a></g></svg></svg></svg>