<svg version="1.1" xmlns="http://www.w3.org/2000/svg" xmlns:xlink="http://www.w3.org/1999/xlink" fill="transparent" x="0" y="0" width="350" height="350" preserveAspectRatio="xMinYMin slice"><style type="text/css">.links{fill:transparent;stroke: #E4CF37;}.links:hover{fill:#63D272; opacity:0.4;}</style><defs><g id="allt"><path id="t7405" d="M4158,1792 L4148,1792 C4138,1792 4151,1799 4142,1798 C4134,1798 4143,1791 4134,1791 L4125,1792 4125,1792 L4126,1801 C4127,1811 4117,1798 4119,1808 C4121,1819 4125,1806 4125,1815 L4125,1824 4125,1824 L4135,1825 C4145,1826 4131,1816 4142,1818 C4153,1820 4139,1824 4148,1824 L4158,1824 4158,1824 L4158,1813 C4159,1803 4153,1817 4152,1808 C4151,1800 4159,1810 4158,1801 L4158,1792"/></g><clipPath id="c" clipRule="evenodd" fill="transparent"><use href="#t7405"/></clipPath></defs><svg viewBox="4116 1790 44 37" preserveAspectRatio="xMinYMin meet"><svg width="4380" height="2430"><g><image crossorigin="anonymous" x="0" y="0" href="https://nftpuzzle.license-token.com/assets/completepuzzle.svg" width="100%" height="100%" /><g class="links"><use href="#t7405"/></g></g></svg><svg x="4145" y="1812" height="9%" width="9%" viewBox="0 0 330 330"><g><a xlink:href="https://nftpuzzle.license-token.com/" class="links"><title>See the most innovative NFT based token software licensing project</title><path fill="#E4CF37" id="more" d="M165,0C74.019,0,0,74.019,0,165s74.019,165,165,165s165-74.019,165-165S255.981,0,165,0z M85,190 c-13.785,0-25-11.215-25-25s11.215-25,25-25s25,11.215,25,25S98.785,190,85,190z M165,190c-13.785,0-25-11.215-25-25 s11.215-25,25-25s25,11.215,25,25S178.785,190,165,190z M245,190c-13.785,0-25-11.215-25-25s11.215-25,25-25 c13.785,0,25,11.215,25,25S258.785,190,245,190z"></path></a></g></svg></svg></svg>