<svg version="1.1" xmlns="http://www.w3.org/2000/svg" xmlns:xlink="http://www.w3.org/1999/xlink" fill="transparent" x="0" y="0" width="350" height="350" preserveAspectRatio="xMinYMin slice"><style type="text/css">.links{fill:transparent;stroke: #E4CF37;}.links:hover{fill:#63D272; opacity:0.4;}</style><defs><g id="allt"><path id="t7407" d="M4224,1792 L4213,1792 C4202,1793 4215,1789 4207,1789 C4199,1790 4212,1794 4201,1793 L4191,1792 4191,1792 L4190,1801 C4190,1810 4196,1798 4197,1806 C4198,1814 4191,1804 4191,1814 L4191,1824 4191,1824 L4200,1823 C4210,1823 4197,1829 4205,1830 C4214,1831 4204,1824 4214,1824 L4224,1824 4224,1824 L4223,1815 C4222,1806 4227,1816 4227,1807 C4228,1798 4223,1812 4223,1802 L4224,1792"/></g><clipPath id="c" clipRule="evenodd" fill="transparent"><use href="#t7407"/></clipPath></defs><svg viewBox="4189 1788 40 44" preserveAspectRatio="xMinYMin meet"><svg width="4380" height="2430"><g><image crossorigin="anonymous" x="0" y="0" href="https://nftpuzzle.license-token.com/assets/completepuzzle.svg" width="100%" height="100%" /><g class="links"><use href="#t7407"/></g></g></svg><svg x="4214" y="1817" height="9%" width="9%" viewBox="0 0 330 330"><g><a xlink:href="https://nftpuzzle.license-token.com/" class="links"><title>See the most innovative NFT based token software licensing project</title><path fill="#E4CF37" id="more" d="M165,0C74.019,0,0,74.019,0,165s74.019,165,165,165s165-74.019,165-165S255.981,0,165,0z M85,190 c-13.785,0-25-11.215-25-25s11.215-25,25-25s25,11.215,25,25S98.785,190,85,190z M165,190c-13.785,0-25-11.215-25-25 s11.215-25,25-25s25,11.215,25,25S178.785,190,165,190z M245,190c-13.785,0-25-11.215-25-25s11.215-25,25-25 c13.785,0,25,11.215,25,25S258.785,190,245,190z"></path></a></g></svg></svg></svg>