<svg version="1.1" xmlns="http://www.w3.org/2000/svg" xmlns:xlink="http://www.w3.org/1999/xlink" fill="transparent" x="0" y="0" width="350" height="350" preserveAspectRatio="xMinYMin slice"><style type="text/css">.links{fill:transparent;stroke: #E4CF37;}.links:hover{fill:#63D272; opacity:0.4;}</style><defs><g id="allt"><path id="t7418" d="M297,1824 L287,1825 C277,1826 291,1819 279,1818 C268,1818 283,1825 273,1824 L264,1824 264,1824 L263,1834 C262,1844 273,1833 272,1839 C271,1846 260,1834 262,1845 L264,1856 264,1856 L274,1855 C285,1854 273,1864 280,1863 C287,1863 275,1852 286,1854 L297,1856 297,1856 L296,1846 C295,1837 307,1848 304,1838 C302,1829 295,1845 296,1834 L297,1824"/></g><clipPath id="c" clipRule="evenodd" fill="transparent"><use href="#t7418"/></clipPath></defs><svg viewBox="259 1817 49 48" preserveAspectRatio="xMinYMin meet"><svg width="4380" height="2430"><g><image crossorigin="anonymous" x="0" y="0" href="https://nftpuzzle.license-token.com/assets/completepuzzle.svg" width="100%" height="100%" /><g class="links"><use href="#t7418"/></g></g></svg><svg x="293" y="1850" height="9%" width="9%" viewBox="0 0 330 330"><g><a xlink:href="https://nftpuzzle.license-token.com/" class="links"><title>See the most innovative NFT based token software licensing project</title><path fill="#E4CF37" id="more" d="M165,0C74.019,0,0,74.019,0,165s74.019,165,165,165s165-74.019,165-165S255.981,0,165,0z M85,190 c-13.785,0-25-11.215-25-25s11.215-25,25-25s25,11.215,25,25S98.785,190,85,190z M165,190c-13.785,0-25-11.215-25-25 s11.215-25,25-25s25,11.215,25,25S178.785,190,165,190z M245,190c-13.785,0-25-11.215-25-25s11.215-25,25-25 c13.785,0,25,11.215,25,25S258.785,190,245,190z"></path></a></g></svg></svg></svg>