<svg version="1.1" xmlns="http://www.w3.org/2000/svg" xmlns:xlink="http://www.w3.org/1999/xlink" fill="transparent" x="0" y="0" width="350" height="350" preserveAspectRatio="xMinYMin slice"><style type="text/css">.links{fill:transparent;stroke: #E4CF37;}.links:hover{fill:#63D272; opacity:0.4;}</style><defs><g id="allt"><path id="t7419" d="M330,1824 L319,1823 C308,1822 322,1827 314,1827 C306,1828 315,1824 306,1824 L297,1824 297,1824 L296,1834 C295,1845 302,1829 304,1838 C307,1848 295,1837 296,1846 L297,1856 297,1856 L308,1855 C319,1854 302,1861 311,1863 C321,1866 310,1854 320,1855 L330,1856 330,1856 L330,1846 C331,1837 325,1850 325,1839 C325,1829 330,1843 330,1833 L330,1824"/></g><clipPath id="c" clipRule="evenodd" fill="transparent"><use href="#t7419"/></clipPath></defs><svg viewBox="294 1821 38 46" preserveAspectRatio="xMinYMin meet"><svg width="4380" height="2430"><g><image crossorigin="anonymous" x="0" y="0" href="https://nftpuzzle.license-token.com/assets/completepuzzle.svg" width="100%" height="100%" /><g class="links"><use href="#t7419"/></g></g></svg><svg x="317" y="1852" height="9%" width="9%" viewBox="0 0 330 330"><g><a xlink:href="https://nftpuzzle.license-token.com/" class="links"><title>See the most innovative NFT based token software licensing project</title><path fill="#E4CF37" id="more" d="M165,0C74.019,0,0,74.019,0,165s74.019,165,165,165s165-74.019,165-165S255.981,0,165,0z M85,190 c-13.785,0-25-11.215-25-25s11.215-25,25-25s25,11.215,25,25S98.785,190,85,190z M165,190c-13.785,0-25-11.215-25-25 s11.215-25,25-25s25,11.215,25,25S178.785,190,165,190z M245,190c-13.785,0-25-11.215-25-25s11.215-25,25-25 c13.785,0,25,11.215,25,25S258.785,190,245,190z"></path></a></g></svg></svg></svg>