<svg version="1.1" xmlns="http://www.w3.org/2000/svg" xmlns:xlink="http://www.w3.org/1999/xlink" fill="transparent" x="0" y="0" width="350" height="350" preserveAspectRatio="xMinYMin slice"><style type="text/css">.links{fill:transparent;stroke: #E4CF37;}.links:hover{fill:#63D272; opacity:0.4;}</style><defs><g id="allt"><path id="t7427" d="M594,1824 L584,1821 C575,1818 585,1833 577,1833 C569,1834 581,1820 571,1822 L561,1824 561,1824 L560,1833 C560,1842 569,1832 569,1840 C569,1848 561,1835 561,1845 L561,1856 561,1856 L570,1855 C580,1855 569,1864 577,1864 C586,1864 572,1856 583,1856 L594,1856 594,1856 L594,1847 C594,1838 585,1846 584,1838 C583,1831 597,1842 595,1833 L594,1824"/></g><clipPath id="c" clipRule="evenodd" fill="transparent"><use href="#t7427"/></clipPath></defs><svg viewBox="559 1817 39 48" preserveAspectRatio="xMinYMin meet"><svg width="4380" height="2430"><g><image crossorigin="anonymous" x="0" y="0" href="https://nftpuzzle.license-token.com/assets/completepuzzle.svg" width="100%" height="100%" /><g class="links"><use href="#t7427"/></g></g></svg><svg x="583" y="1850" height="9%" width="9%" viewBox="0 0 330 330"><g><a xlink:href="https://nftpuzzle.license-token.com/" class="links"><title>See the most innovative NFT based token software licensing project</title><path fill="#E4CF37" id="more" d="M165,0C74.019,0,0,74.019,0,165s74.019,165,165,165s165-74.019,165-165S255.981,0,165,0z M85,190 c-13.785,0-25-11.215-25-25s11.215-25,25-25s25,11.215,25,25S98.785,190,85,190z M165,190c-13.785,0-25-11.215-25-25 s11.215-25,25-25s25,11.215,25,25S178.785,190,165,190z M245,190c-13.785,0-25-11.215-25-25s11.215-25,25-25 c13.785,0,25,11.215,25,25S258.785,190,245,190z"></path></a></g></svg></svg></svg>