<svg version="1.1" xmlns="http://www.w3.org/2000/svg" xmlns:xlink="http://www.w3.org/1999/xlink" fill="transparent" x="0" y="0" width="350" height="350" preserveAspectRatio="xMinYMin slice"><style type="text/css">.links{fill:transparent;stroke: #E4CF37;}.links:hover{fill:#63D272; opacity:0.4;}</style><defs><g id="allt"><path id="t7431" d="M726,1824 L716,1826 C707,1828 720,1818 710,1819 C701,1820 713,1826 703,1825 L693,1824 693,1824 L693,1834 C693,1844 691,1831 690,1841 C689,1851 693,1836 693,1846 L693,1856 693,1856 L703,1856 C713,1856 700,1854 710,1853 C721,1852 705,1856 715,1856 L726,1856 726,1856 L727,1845 C728,1835 722,1846 721,1839 C721,1832 727,1842 726,1833 L726,1824"/></g><clipPath id="c" clipRule="evenodd" fill="transparent"><use href="#t7431"/></clipPath></defs><svg viewBox="688 1817 41 40" preserveAspectRatio="xMinYMin meet"><svg width="4380" height="2430"><g><image crossorigin="anonymous" x="0" y="0" href="https://nftpuzzle.license-token.com/assets/completepuzzle.svg" width="100%" height="100%" /><g class="links"><use href="#t7431"/></g></g></svg><svg x="714" y="1842" height="9%" width="9%" viewBox="0 0 330 330"><g><a xlink:href="https://nftpuzzle.license-token.com/" class="links"><title>See the most innovative NFT based token software licensing project</title><path fill="#E4CF37" id="more" d="M165,0C74.019,0,0,74.019,0,165s74.019,165,165,165s165-74.019,165-165S255.981,0,165,0z M85,190 c-13.785,0-25-11.215-25-25s11.215-25,25-25s25,11.215,25,25S98.785,190,85,190z M165,190c-13.785,0-25-11.215-25-25 s11.215-25,25-25s25,11.215,25,25S178.785,190,165,190z M245,190c-13.785,0-25-11.215-25-25s11.215-25,25-25 c13.785,0,25,11.215,25,25S258.785,190,245,190z"></path></a></g></svg></svg></svg>