<svg version="1.1" xmlns="http://www.w3.org/2000/svg" xmlns:xlink="http://www.w3.org/1999/xlink" fill="transparent" x="0" y="0" width="350" height="350" preserveAspectRatio="xMinYMin slice"><style type="text/css">.links{fill:transparent;stroke: #E4CF37;}.links:hover{fill:#63D272; opacity:0.4;}</style><defs><g id="allt"><path id="t7432" d="M759,1824 L748,1824 C737,1824 750,1822 742,1821 C734,1820 744,1824 735,1824 L726,1824 726,1824 L726,1833 C727,1842 721,1832 721,1839 C722,1846 728,1835 727,1845 L726,1856 726,1856 L735,1856 C745,1857 734,1851 741,1851 C749,1852 737,1858 748,1857 L759,1856 759,1856 L760,1846 C761,1836 753,1848 750,1840 C748,1832 759,1843 759,1833 L759,1824"/></g><clipPath id="c" clipRule="evenodd" fill="transparent"><use href="#t7432"/></clipPath></defs><svg viewBox="720 1819 42 40" preserveAspectRatio="xMinYMin meet"><svg width="4380" height="2430"><g><image crossorigin="anonymous" x="0" y="0" href="https://nftpuzzle.license-token.com/assets/completepuzzle.svg" width="100%" height="100%" /><g class="links"><use href="#t7432"/></g></g></svg><svg x="747" y="1844" height="9%" width="9%" viewBox="0 0 330 330"><g><a xlink:href="https://nftpuzzle.license-token.com/" class="links"><title>See the most innovative NFT based token software licensing project</title><path fill="#E4CF37" id="more" d="M165,0C74.019,0,0,74.019,0,165s74.019,165,165,165s165-74.019,165-165S255.981,0,165,0z M85,190 c-13.785,0-25-11.215-25-25s11.215-25,25-25s25,11.215,25,25S98.785,190,85,190z M165,190c-13.785,0-25-11.215-25-25 s11.215-25,25-25s25,11.215,25,25S178.785,190,165,190z M245,190c-13.785,0-25-11.215-25-25s11.215-25,25-25 c13.785,0,25,11.215,25,25S258.785,190,245,190z"></path></a></g></svg></svg></svg>