<svg version="1.1" xmlns="http://www.w3.org/2000/svg" xmlns:xlink="http://www.w3.org/1999/xlink" fill="transparent" x="0" y="0" width="350" height="350" preserveAspectRatio="xMinYMin slice"><style type="text/css">.links{fill:transparent;stroke: #E4CF37;}.links:hover{fill:#63D272; opacity:0.4;}</style><defs><g id="allt"><path id="t7435" d="M858,1824 L847,1824 C836,1825 851,1821 842,1820 C834,1820 845,1824 835,1824 L825,1824 825,1824 L825,1833 C826,1842 819,1830 818,1839 C817,1848 827,1837 826,1846 L825,1856 825,1856 L834,1856 C844,1857 831,1850 840,1849 C850,1848 838,1858 848,1857 L858,1856 858,1856 L859,1845 C860,1835 851,1849 851,1840 C852,1832 859,1842 858,1833 L858,1824"/></g><clipPath id="c" clipRule="evenodd" fill="transparent"><use href="#t7435"/></clipPath></defs><svg viewBox="816 1819 45 40" preserveAspectRatio="xMinYMin meet"><svg width="4380" height="2430"><g><image crossorigin="anonymous" x="0" y="0" href="https://nftpuzzle.license-token.com/assets/completepuzzle.svg" width="100%" height="100%" /><g class="links"><use href="#t7435"/></g></g></svg><svg x="846" y="1844" height="9%" width="9%" viewBox="0 0 330 330"><g><a xlink:href="https://nftpuzzle.license-token.com/" class="links"><title>See the most innovative NFT based token software licensing project</title><path fill="#E4CF37" id="more" d="M165,0C74.019,0,0,74.019,0,165s74.019,165,165,165s165-74.019,165-165S255.981,0,165,0z M85,190 c-13.785,0-25-11.215-25-25s11.215-25,25-25s25,11.215,25,25S98.785,190,85,190z M165,190c-13.785,0-25-11.215-25-25 s11.215-25,25-25s25,11.215,25,25S178.785,190,165,190z M245,190c-13.785,0-25-11.215-25-25s11.215-25,25-25 c13.785,0,25,11.215,25,25S258.785,190,245,190z"></path></a></g></svg></svg></svg>