<svg version="1.1" xmlns="http://www.w3.org/2000/svg" xmlns:xlink="http://www.w3.org/1999/xlink" fill="transparent" x="0" y="0" width="350" height="350" preserveAspectRatio="xMinYMin slice"><style type="text/css">.links{fill:transparent;stroke: #E4CF37;}.links:hover{fill:#63D272; opacity:0.4;}</style><defs><g id="allt"><path id="t7439" d="M990,1824 L979,1824 C969,1824 982,1819 973,1818 C965,1817 976,1824 966,1824 L957,1824 957,1824 L957,1833 C957,1843 967,1829 966,1838 C965,1847 954,1835 955,1845 L957,1856 957,1856 L967,1856 C977,1856 962,1865 971,1864 C980,1864 968,1853 979,1854 L990,1856 990,1856 L991,1846 C992,1837 986,1846 986,1837 C986,1829 991,1844 990,1834 L990,1824"/></g><clipPath id="c" clipRule="evenodd" fill="transparent"><use href="#t7439"/></clipPath></defs><svg viewBox="953 1816 40 50" preserveAspectRatio="xMinYMin meet"><svg width="4380" height="2430"><g><image crossorigin="anonymous" x="0" y="0" href="https://nftpuzzle.license-token.com/assets/completepuzzle.svg" width="100%" height="100%" /><g class="links"><use href="#t7439"/></g></g></svg><svg x="978" y="1851" height="9%" width="9%" viewBox="0 0 330 330"><g><a xlink:href="https://nftpuzzle.license-token.com/" class="links"><title>See the most innovative NFT based token software licensing project</title><path fill="#E4CF37" id="more" d="M165,0C74.019,0,0,74.019,0,165s74.019,165,165,165s165-74.019,165-165S255.981,0,165,0z M85,190 c-13.785,0-25-11.215-25-25s11.215-25,25-25s25,11.215,25,25S98.785,190,85,190z M165,190c-13.785,0-25-11.215-25-25 s11.215-25,25-25s25,11.215,25,25S178.785,190,165,190z M245,190c-13.785,0-25-11.215-25-25s11.215-25,25-25 c13.785,0,25,11.215,25,25S258.785,190,245,190z"></path></a></g></svg></svg></svg>