<svg version="1.1" xmlns="http://www.w3.org/2000/svg" xmlns:xlink="http://www.w3.org/1999/xlink" fill="transparent" x="0" y="0" width="350" height="350" preserveAspectRatio="xMinYMin slice"><style type="text/css">.links{fill:transparent;stroke: #E4CF37;}.links:hover{fill:#63D272; opacity:0.4;}</style><defs><g id="allt"><path id="t7440" d="M1023,1824 L1012,1824 C1001,1824 1016,1828 1007,1828 C999,1828 1009,1823 999,1823 L990,1824 990,1824 L990,1834 C991,1844 986,1829 986,1837 C986,1846 992,1837 991,1846 L990,1856 990,1856 L1000,1856 C1011,1857 995,1852 1004,1852 C1013,1852 1004,1858 1013,1857 L1023,1856 1023,1856 L1023,1846 C1023,1836 1011,1846 1014,1837 C1017,1829 1023,1845 1023,1834 L1023,1824"/></g><clipPath id="c" clipRule="evenodd" fill="transparent"><use href="#t7440"/></clipPath></defs><svg viewBox="985 1822 39 37" preserveAspectRatio="xMinYMin meet"><svg width="4380" height="2430"><g><image crossorigin="anonymous" x="0" y="0" href="https://nftpuzzle.license-token.com/assets/completepuzzle.svg" width="100%" height="100%" /><g class="links"><use href="#t7440"/></g></g></svg><svg x="1009" y="1844" height="9%" width="9%" viewBox="0 0 330 330"><g><a xlink:href="https://nftpuzzle.license-token.com/" class="links"><title>See the most innovative NFT based token software licensing project</title><path fill="#E4CF37" id="more" d="M165,0C74.019,0,0,74.019,0,165s74.019,165,165,165s165-74.019,165-165S255.981,0,165,0z M85,190 c-13.785,0-25-11.215-25-25s11.215-25,25-25s25,11.215,25,25S98.785,190,85,190z M165,190c-13.785,0-25-11.215-25-25 s11.215-25,25-25s25,11.215,25,25S178.785,190,165,190z M245,190c-13.785,0-25-11.215-25-25s11.215-25,25-25 c13.785,0,25,11.215,25,25S258.785,190,245,190z"></path></a></g></svg></svg></svg>