<svg version="1.1" xmlns="http://www.w3.org/2000/svg" xmlns:xlink="http://www.w3.org/1999/xlink" fill="transparent" x="0" y="0" width="350" height="350" preserveAspectRatio="xMinYMin slice"><style type="text/css">.links{fill:transparent;stroke: #E4CF37;}.links:hover{fill:#63D272; opacity:0.4;}</style><defs><g id="allt"><path id="t7445" d="M1188,1824 L1176,1824 C1165,1824 1182,1816 1172,1815 C1163,1815 1173,1824 1164,1824 L1155,1824 1155,1824 L1154,1832 C1154,1841 1161,1830 1161,1840 C1161,1850 1155,1836 1155,1846 L1155,1856 1155,1856 L1164,1855 C1173,1855 1161,1862 1171,1862 C1182,1862 1167,1856 1177,1856 L1188,1856 1188,1856 L1189,1845 C1190,1835 1181,1848 1180,1838 C1179,1828 1191,1842 1189,1833 L1188,1824"/></g><clipPath id="c" clipRule="evenodd" fill="transparent"><use href="#t7445"/></clipPath></defs><svg viewBox="1153 1814 39 49" preserveAspectRatio="xMinYMin meet"><svg width="4380" height="2430"><g><image crossorigin="anonymous" x="0" y="0" href="https://nftpuzzle.license-token.com/assets/completepuzzle.svg" width="100%" height="100%" /><g class="links"><use href="#t7445"/></g></g></svg><svg x="1177" y="1848" height="9%" width="9%" viewBox="0 0 330 330"><g><a xlink:href="https://nftpuzzle.license-token.com/" class="links"><title>See the most innovative NFT based token software licensing project</title><path fill="#E4CF37" id="more" d="M165,0C74.019,0,0,74.019,0,165s74.019,165,165,165s165-74.019,165-165S255.981,0,165,0z M85,190 c-13.785,0-25-11.215-25-25s11.215-25,25-25s25,11.215,25,25S98.785,190,85,190z M165,190c-13.785,0-25-11.215-25-25 s11.215-25,25-25s25,11.215,25,25S178.785,190,165,190z M245,190c-13.785,0-25-11.215-25-25s11.215-25,25-25 c13.785,0,25,11.215,25,25S258.785,190,245,190z"></path></a></g></svg></svg></svg>