<svg version="1.1" xmlns="http://www.w3.org/2000/svg" xmlns:xlink="http://www.w3.org/1999/xlink" fill="transparent" x="0" y="0" width="350" height="350" preserveAspectRatio="xMinYMin slice"><style type="text/css">.links{fill:transparent;stroke: #E4CF37;}.links:hover{fill:#63D272; opacity:0.4;}</style><defs><g id="allt"><path id="t7446" d="M1221,1824 L1211,1825 C1202,1826 1216,1820 1205,1820 C1194,1820 1207,1825 1197,1824 L1188,1824 1188,1824 L1189,1833 C1191,1842 1179,1828 1180,1838 C1181,1848 1190,1835 1189,1845 L1188,1856 1188,1856 L1197,1857 C1206,1859 1192,1848 1202,1848 C1213,1849 1200,1858 1210,1857 L1221,1856 1221,1856 L1222,1845 C1223,1835 1216,1847 1216,1837 C1216,1828 1222,1842 1221,1833 L1221,1824"/></g><clipPath id="c" clipRule="evenodd" fill="transparent"><use href="#t7446"/></clipPath></defs><svg viewBox="1178 1819 46 41" preserveAspectRatio="xMinYMin meet"><svg width="4380" height="2430"><g><image crossorigin="anonymous" x="0" y="0" href="https://nftpuzzle.license-token.com/assets/completepuzzle.svg" width="100%" height="100%" /><g class="links"><use href="#t7446"/></g></g></svg><svg x="1209" y="1845" height="9%" width="9%" viewBox="0 0 330 330"><g><a xlink:href="https://nftpuzzle.license-token.com/" class="links"><title>See the most innovative NFT based token software licensing project</title><path fill="#E4CF37" id="more" d="M165,0C74.019,0,0,74.019,0,165s74.019,165,165,165s165-74.019,165-165S255.981,0,165,0z M85,190 c-13.785,0-25-11.215-25-25s11.215-25,25-25s25,11.215,25,25S98.785,190,85,190z M165,190c-13.785,0-25-11.215-25-25 s11.215-25,25-25s25,11.215,25,25S178.785,190,165,190z M245,190c-13.785,0-25-11.215-25-25s11.215-25,25-25 c13.785,0,25,11.215,25,25S258.785,190,245,190z"></path></a></g></svg></svg></svg>