<svg version="1.1" xmlns="http://www.w3.org/2000/svg" xmlns:xlink="http://www.w3.org/1999/xlink" fill="transparent" x="0" y="0" width="350" height="350" preserveAspectRatio="xMinYMin slice"><style type="text/css">.links{fill:transparent;stroke: #E4CF37;}.links:hover{fill:#63D272; opacity:0.4;}</style><defs><g id="allt"><path id="t7447" d="M1254,1824 L1243,1824 C1232,1824 1244,1835 1235,1832 C1227,1829 1240,1823 1230,1823 L1221,1824 1221,1824 L1221,1833 C1222,1842 1216,1828 1216,1837 C1216,1847 1223,1835 1222,1845 L1221,1856 1221,1856 L1230,1856 C1239,1857 1225,1851 1235,1851 C1245,1851 1233,1858 1243,1857 L1254,1856 1254,1856 L1255,1845 C1256,1835 1249,1850 1248,1841 C1248,1832 1257,1841 1255,1832 L1254,1824"/></g><clipPath id="c" clipRule="evenodd" fill="transparent"><use href="#t7447"/></clipPath></defs><svg viewBox="1215 1822 43 37" preserveAspectRatio="xMinYMin meet"><svg width="4380" height="2430"><g><image crossorigin="anonymous" x="0" y="0" href="https://nftpuzzle.license-token.com/assets/completepuzzle.svg" width="100%" height="100%" /><g class="links"><use href="#t7447"/></g></g></svg><svg x="1243" y="1844" height="9%" width="9%" viewBox="0 0 330 330"><g><a xlink:href="https://nftpuzzle.license-token.com/" class="links"><title>See the most innovative NFT based token software licensing project</title><path fill="#E4CF37" id="more" d="M165,0C74.019,0,0,74.019,0,165s74.019,165,165,165s165-74.019,165-165S255.981,0,165,0z M85,190 c-13.785,0-25-11.215-25-25s11.215-25,25-25s25,11.215,25,25S98.785,190,85,190z M165,190c-13.785,0-25-11.215-25-25 s11.215-25,25-25s25,11.215,25,25S178.785,190,165,190z M245,190c-13.785,0-25-11.215-25-25s11.215-25,25-25 c13.785,0,25,11.215,25,25S258.785,190,245,190z"></path></a></g></svg></svg></svg>