<svg version="1.1" xmlns="http://www.w3.org/2000/svg" xmlns:xlink="http://www.w3.org/1999/xlink" fill="transparent" x="0" y="0" width="350" height="350" preserveAspectRatio="xMinYMin slice"><style type="text/css">.links{fill:transparent;stroke: #E4CF37;}.links:hover{fill:#63D272; opacity:0.4;}</style><defs><g id="allt"><path id="t7451" d="M1386,1824 L1376,1824 C1366,1824 1376,1822 1367,1820 C1359,1819 1371,1825 1362,1824 L1353,1824 1353,1824 L1352,1834 C1352,1844 1359,1832 1359,1841 C1359,1850 1353,1835 1353,1845 L1353,1856 1353,1856 L1363,1855 C1373,1855 1361,1862 1370,1862 C1380,1862 1364,1856 1375,1856 L1386,1856 1386,1856 L1386,1846 C1386,1836 1389,1850 1390,1841 C1391,1832 1385,1844 1385,1834 L1386,1824"/></g><clipPath id="c" clipRule="evenodd" fill="transparent"><use href="#t7451"/></clipPath></defs><svg viewBox="1351 1818 41 45" preserveAspectRatio="xMinYMin meet"><svg width="4380" height="2430"><g><image crossorigin="anonymous" x="0" y="0" href="https://nftpuzzle.license-token.com/assets/completepuzzle.svg" width="100%" height="100%" /><g class="links"><use href="#t7451"/></g></g></svg><svg x="1377" y="1848" height="9%" width="9%" viewBox="0 0 330 330"><g><a xlink:href="https://nftpuzzle.license-token.com/" class="links"><title>See the most innovative NFT based token software licensing project</title><path fill="#E4CF37" id="more" d="M165,0C74.019,0,0,74.019,0,165s74.019,165,165,165s165-74.019,165-165S255.981,0,165,0z M85,190 c-13.785,0-25-11.215-25-25s11.215-25,25-25s25,11.215,25,25S98.785,190,85,190z M165,190c-13.785,0-25-11.215-25-25 s11.215-25,25-25s25,11.215,25,25S178.785,190,165,190z M245,190c-13.785,0-25-11.215-25-25s11.215-25,25-25 c13.785,0,25,11.215,25,25S258.785,190,245,190z"></path></a></g></svg></svg></svg>