<svg version="1.1" xmlns="http://www.w3.org/2000/svg" xmlns:xlink="http://www.w3.org/1999/xlink" fill="transparent" x="0" y="0" width="350" height="350" preserveAspectRatio="xMinYMin slice"><style type="text/css">.links{fill:transparent;stroke: #E4CF37;}.links:hover{fill:#63D272; opacity:0.4;}</style><defs><g id="allt"><path id="t7452" d="M1419,1824 L1409,1822 C1399,1820 1414,1830 1402,1830 C1391,1830 1407,1821 1396,1822 L1386,1824 1386,1824 L1385,1834 C1385,1844 1391,1832 1390,1841 C1389,1850 1386,1836 1386,1846 L1386,1856 1386,1856 L1396,1855 C1407,1855 1395,1861 1404,1860 C1413,1859 1398,1856 1408,1856 L1419,1856 1419,1856 L1419,1846 C1420,1836 1413,1851 1412,1841 C1412,1832 1419,1842 1419,1833 L1419,1824"/></g><clipPath id="c" clipRule="evenodd" fill="transparent"><use href="#t7452"/></clipPath></defs><svg viewBox="1384 1819 37 43" preserveAspectRatio="xMinYMin meet"><svg width="4380" height="2430"><g><image crossorigin="anonymous" x="0" y="0" href="https://nftpuzzle.license-token.com/assets/completepuzzle.svg" width="100%" height="100%" /><g class="links"><use href="#t7452"/></g></g></svg><svg x="1406" y="1847" height="9%" width="9%" viewBox="0 0 330 330"><g><a xlink:href="https://nftpuzzle.license-token.com/" class="links"><title>See the most innovative NFT based token software licensing project</title><path fill="#E4CF37" id="more" d="M165,0C74.019,0,0,74.019,0,165s74.019,165,165,165s165-74.019,165-165S255.981,0,165,0z M85,190 c-13.785,0-25-11.215-25-25s11.215-25,25-25s25,11.215,25,25S98.785,190,85,190z M165,190c-13.785,0-25-11.215-25-25 s11.215-25,25-25s25,11.215,25,25S178.785,190,165,190z M245,190c-13.785,0-25-11.215-25-25s11.215-25,25-25 c13.785,0,25,11.215,25,25S258.785,190,245,190z"></path></a></g></svg></svg></svg>