<svg version="1.1" xmlns="http://www.w3.org/2000/svg" xmlns:xlink="http://www.w3.org/1999/xlink" fill="transparent" x="0" y="0" width="350" height="350" preserveAspectRatio="xMinYMin slice"><style type="text/css">.links{fill:transparent;stroke: #E4CF37;}.links:hover{fill:#63D272; opacity:0.4;}</style><defs><g id="allt"><path id="t7455" d="M1518,1824 L1508,1825 C1499,1826 1511,1820 1501,1820 C1491,1821 1504,1825 1494,1824 L1485,1824 1485,1824 L1485,1833 C1485,1842 1479,1832 1475,1839 C1472,1846 1486,1836 1485,1846 L1485,1856 1485,1856 L1494,1856 C1504,1856 1493,1850 1500,1846 C1508,1843 1498,1857 1508,1856 L1518,1856 1518,1856 L1518,1846 C1518,1836 1513,1850 1511,1839 C1510,1829 1518,1843 1518,1833 L1518,1824"/></g><clipPath id="c" clipRule="evenodd" fill="transparent"><use href="#t7455"/></clipPath></defs><svg viewBox="1471 1819 48 39" preserveAspectRatio="xMinYMin meet"><svg width="4380" height="2430"><g><image crossorigin="anonymous" x="0" y="0" href="https://nftpuzzle.license-token.com/assets/completepuzzle.svg" width="100%" height="100%" /><g class="links"><use href="#t7455"/></g></g></svg><svg x="1504" y="1843" height="9%" width="9%" viewBox="0 0 330 330"><g><a xlink:href="https://nftpuzzle.license-token.com/" class="links"><title>See the most innovative NFT based token software licensing project</title><path fill="#E4CF37" id="more" d="M165,0C74.019,0,0,74.019,0,165s74.019,165,165,165s165-74.019,165-165S255.981,0,165,0z M85,190 c-13.785,0-25-11.215-25-25s11.215-25,25-25s25,11.215,25,25S98.785,190,85,190z M165,190c-13.785,0-25-11.215-25-25 s11.215-25,25-25s25,11.215,25,25S178.785,190,165,190z M245,190c-13.785,0-25-11.215-25-25s11.215-25,25-25 c13.785,0,25,11.215,25,25S258.785,190,245,190z"></path></a></g></svg></svg></svg>