<svg version="1.1" xmlns="http://www.w3.org/2000/svg" xmlns:xlink="http://www.w3.org/1999/xlink" fill="transparent" x="0" y="0" width="350" height="350" preserveAspectRatio="xMinYMin slice"><style type="text/css">.links{fill:transparent;stroke: #E4CF37;}.links:hover{fill:#63D272; opacity:0.4;}</style><defs><g id="allt"><path id="t7458" d="M1617,1824 L1607,1824 C1597,1824 1612,1826 1601,1826 C1591,1827 1604,1823 1594,1823 L1584,1824 1584,1824 L1586,1833 C1588,1843 1577,1828 1575,1839 C1574,1850 1584,1837 1584,1846 L1584,1856 1584,1856 L1594,1858 C1604,1860 1588,1849 1599,1848 C1611,1847 1597,1856 1607,1856 L1617,1856 1617,1856 L1615,1845 C1613,1835 1621,1849 1621,1839 C1621,1830 1616,1845 1616,1834 L1617,1824"/></g><clipPath id="c" clipRule="evenodd" fill="transparent"><use href="#t7458"/></clipPath></defs><svg viewBox="1573 1822 49 39" preserveAspectRatio="xMinYMin meet"><svg width="4380" height="2430"><g><image crossorigin="anonymous" x="0" y="0" href="https://nftpuzzle.license-token.com/assets/completepuzzle.svg" width="100%" height="100%" /><g class="links"><use href="#t7458"/></g></g></svg><svg x="1607" y="1846" height="9%" width="9%" viewBox="0 0 330 330"><g><a xlink:href="https://nftpuzzle.license-token.com/" class="links"><title>See the most innovative NFT based token software licensing project</title><path fill="#E4CF37" id="more" d="M165,0C74.019,0,0,74.019,0,165s74.019,165,165,165s165-74.019,165-165S255.981,0,165,0z M85,190 c-13.785,0-25-11.215-25-25s11.215-25,25-25s25,11.215,25,25S98.785,190,85,190z M165,190c-13.785,0-25-11.215-25-25 s11.215-25,25-25s25,11.215,25,25S178.785,190,165,190z M245,190c-13.785,0-25-11.215-25-25s11.215-25,25-25 c13.785,0,25,11.215,25,25S258.785,190,245,190z"></path></a></g></svg></svg></svg>