<svg version="1.1" xmlns="http://www.w3.org/2000/svg" xmlns:xlink="http://www.w3.org/1999/xlink" fill="transparent" x="0" y="0" width="350" height="350" preserveAspectRatio="xMinYMin slice"><style type="text/css">.links{fill:transparent;stroke: #E4CF37;}.links:hover{fill:#63D272; opacity:0.4;}</style><defs><g id="allt"><path id="t7459" d="M1650,1824 L1640,1825 C1631,1826 1643,1816 1633,1814 C1623,1813 1639,1829 1628,1826 L1617,1824 1617,1824 L1616,1834 C1616,1845 1621,1830 1621,1839 C1621,1849 1613,1835 1615,1845 L1617,1856 1617,1856 L1628,1855 C1639,1855 1623,1860 1633,1860 C1643,1860 1628,1852 1639,1854 L1650,1856 1650,1856 L1649,1846 C1649,1836 1656,1847 1658,1840 C1660,1833 1650,1845 1650,1834 L1650,1824"/></g><clipPath id="c" clipRule="evenodd" fill="transparent"><use href="#t7459"/></clipPath></defs><svg viewBox="1612 1812 49 49" preserveAspectRatio="xMinYMin meet"><svg width="4380" height="2430"><g><image crossorigin="anonymous" x="0" y="0" href="https://nftpuzzle.license-token.com/assets/completepuzzle.svg" width="100%" height="100%" /><g class="links"><use href="#t7459"/></g></g></svg><svg x="1646" y="1846" height="9%" width="9%" viewBox="0 0 330 330"><g><a xlink:href="https://nftpuzzle.license-token.com/" class="links"><title>See the most innovative NFT based token software licensing project</title><path fill="#E4CF37" id="more" d="M165,0C74.019,0,0,74.019,0,165s74.019,165,165,165s165-74.019,165-165S255.981,0,165,0z M85,190 c-13.785,0-25-11.215-25-25s11.215-25,25-25s25,11.215,25,25S98.785,190,85,190z M165,190c-13.785,0-25-11.215-25-25 s11.215-25,25-25s25,11.215,25,25S178.785,190,165,190z M245,190c-13.785,0-25-11.215-25-25s11.215-25,25-25 c13.785,0,25,11.215,25,25S258.785,190,245,190z"></path></a></g></svg></svg></svg>