<svg version="1.1" xmlns="http://www.w3.org/2000/svg" xmlns:xlink="http://www.w3.org/1999/xlink" fill="transparent" x="0" y="0" width="350" height="350" preserveAspectRatio="xMinYMin slice"><style type="text/css">.links{fill:transparent;stroke: #E4CF37;}.links:hover{fill:#63D272; opacity:0.4;}</style><defs><g id="allt"><path id="t7465" d="M1848,1824 L1838,1824 C1829,1824 1840,1817 1830,1819 C1821,1821 1833,1824 1824,1824 L1815,1824 1815,1824 L1815,1833 C1816,1843 1805,1831 1805,1840 C1805,1849 1814,1835 1814,1845 L1815,1856 1815,1856 L1825,1856 C1835,1857 1822,1846 1831,1846 C1841,1846 1826,1855 1837,1855 L1848,1856 1848,1856 L1849,1846 C1850,1836 1845,1851 1842,1840 C1840,1829 1850,1842 1849,1833 L1848,1824"/></g><clipPath id="c" clipRule="evenodd" fill="transparent"><use href="#t7465"/></clipPath></defs><svg viewBox="1804 1816 47 42" preserveAspectRatio="xMinYMin meet"><svg width="4380" height="2430"><g><image crossorigin="anonymous" x="0" y="0" href="https://nftpuzzle.license-token.com/assets/completepuzzle.svg" width="100%" height="100%" /><g class="links"><use href="#t7465"/></g></g></svg><svg x="1836" y="1843" height="9%" width="9%" viewBox="0 0 330 330"><g><a xlink:href="https://nftpuzzle.license-token.com/" class="links"><title>See the most innovative NFT based token software licensing project</title><path fill="#E4CF37" id="more" d="M165,0C74.019,0,0,74.019,0,165s74.019,165,165,165s165-74.019,165-165S255.981,0,165,0z M85,190 c-13.785,0-25-11.215-25-25s11.215-25,25-25s25,11.215,25,25S98.785,190,85,190z M165,190c-13.785,0-25-11.215-25-25 s11.215-25,25-25s25,11.215,25,25S178.785,190,165,190z M245,190c-13.785,0-25-11.215-25-25s11.215-25,25-25 c13.785,0,25,11.215,25,25S258.785,190,245,190z"></path></a></g></svg></svg></svg>