<svg version="1.1" xmlns="http://www.w3.org/2000/svg" xmlns:xlink="http://www.w3.org/1999/xlink" fill="transparent" x="0" y="0" width="350" height="350" preserveAspectRatio="xMinYMin slice"><style type="text/css">.links{fill:transparent;stroke: #E4CF37;}.links:hover{fill:#63D272; opacity:0.4;}</style><defs><g id="allt"><path id="t7468" d="M1947,1824 L1936,1824 C1926,1825 1941,1816 1930,1815 C1920,1815 1933,1824 1923,1824 L1914,1824 1914,1824 L1914,1832 C1914,1841 1919,1829 1919,1838 C1920,1848 1912,1835 1913,1845 L1914,1856 1914,1856 L1923,1856 C1932,1856 1919,1861 1929,1861 C1939,1862 1925,1854 1936,1855 L1947,1856 1947,1856 L1945,1847 C1943,1838 1957,1847 1957,1839 C1958,1832 1941,1842 1944,1833 L1947,1824"/></g><clipPath id="c" clipRule="evenodd" fill="transparent"><use href="#t7468"/></clipPath></defs><svg viewBox="1911 1814 48 49" preserveAspectRatio="xMinYMin meet"><svg width="4380" height="2430"><g><image crossorigin="anonymous" x="0" y="0" href="https://nftpuzzle.license-token.com/assets/completepuzzle.svg" width="100%" height="100%" /><g class="links"><use href="#t7468"/></g></g></svg><svg x="1944" y="1848" height="9%" width="9%" viewBox="0 0 330 330"><g><a xlink:href="https://nftpuzzle.license-token.com/" class="links"><title>See the most innovative NFT based token software licensing project</title><path fill="#E4CF37" id="more" d="M165,0C74.019,0,0,74.019,0,165s74.019,165,165,165s165-74.019,165-165S255.981,0,165,0z M85,190 c-13.785,0-25-11.215-25-25s11.215-25,25-25s25,11.215,25,25S98.785,190,85,190z M165,190c-13.785,0-25-11.215-25-25 s11.215-25,25-25s25,11.215,25,25S178.785,190,165,190z M245,190c-13.785,0-25-11.215-25-25s11.215-25,25-25 c13.785,0,25,11.215,25,25S258.785,190,245,190z"></path></a></g></svg></svg></svg>