<svg version="1.1" xmlns="http://www.w3.org/2000/svg" xmlns:xlink="http://www.w3.org/1999/xlink" fill="transparent" x="0" y="0" width="350" height="350" preserveAspectRatio="xMinYMin slice"><style type="text/css">.links{fill:transparent;stroke: #E4CF37;}.links:hover{fill:#63D272; opacity:0.4;}</style><defs><g id="allt"><path id="t7476" d="M2211,1824 L2201,1825 C2192,1827 2204,1816 2194,1816 C2185,1817 2196,1825 2187,1824 L2178,1824 2178,1824 L2178,1833 C2178,1843 2175,1831 2175,1839 C2175,1848 2180,1835 2179,1845 L2178,1856 2178,1856 L2188,1856 C2198,1856 2185,1853 2194,1853 C2203,1853 2190,1858 2200,1857 L2211,1856 2211,1856 L2211,1845 C2211,1835 2214,1848 2215,1840 C2216,1832 2209,1842 2210,1833 L2211,1824"/></g><clipPath id="c" clipRule="evenodd" fill="transparent"><use href="#t7476"/></clipPath></defs><svg viewBox="2174 1815 43 44" preserveAspectRatio="xMinYMin meet"><svg width="4380" height="2430"><g><image crossorigin="anonymous" x="0" y="0" href="https://nftpuzzle.license-token.com/assets/completepuzzle.svg" width="100%" height="100%" /><g class="links"><use href="#t7476"/></g></g></svg><svg x="2202" y="1844" height="9%" width="9%" viewBox="0 0 330 330"><g><a xlink:href="https://nftpuzzle.license-token.com/" class="links"><title>See the most innovative NFT based token software licensing project</title><path fill="#E4CF37" id="more" d="M165,0C74.019,0,0,74.019,0,165s74.019,165,165,165s165-74.019,165-165S255.981,0,165,0z M85,190 c-13.785,0-25-11.215-25-25s11.215-25,25-25s25,11.215,25,25S98.785,190,85,190z M165,190c-13.785,0-25-11.215-25-25 s11.215-25,25-25s25,11.215,25,25S178.785,190,165,190z M245,190c-13.785,0-25-11.215-25-25s11.215-25,25-25 c13.785,0,25,11.215,25,25S258.785,190,245,190z"></path></a></g></svg></svg></svg>