<svg version="1.1" xmlns="http://www.w3.org/2000/svg" xmlns:xlink="http://www.w3.org/1999/xlink" fill="transparent" x="0" y="0" width="350" height="350" preserveAspectRatio="xMinYMin slice"><style type="text/css">.links{fill:transparent;stroke: #E4CF37;}.links:hover{fill:#63D272; opacity:0.4;}</style><defs><g id="allt"><path id="t7478" d="M2277,1824 L2267,1822 C2257,1821 2270,1830 2260,1831 C2250,1833 2263,1820 2253,1822 L2244,1824 2244,1824 L2244,1834 C2244,1845 2239,1830 2237,1839 C2235,1848 2245,1834 2244,1845 L2244,1856 2244,1856 L2255,1856 C2266,1856 2250,1851 2259,1849 C2269,1847 2254,1857 2265,1856 L2277,1856 2277,1856 L2277,1846 C2278,1837 2273,1849 2273,1839 C2273,1830 2278,1844 2277,1834 L2277,1824"/></g><clipPath id="c" clipRule="evenodd" fill="transparent"><use href="#t7478"/></clipPath></defs><svg viewBox="2234 1819 45 39" preserveAspectRatio="xMinYMin meet"><svg width="4380" height="2430"><g><image crossorigin="anonymous" x="0" y="0" href="https://nftpuzzle.license-token.com/assets/completepuzzle.svg" width="100%" height="100%" /><g class="links"><use href="#t7478"/></g></g></svg><svg x="2264" y="1843" height="9%" width="9%" viewBox="0 0 330 330"><g><a xlink:href="https://nftpuzzle.license-token.com/" class="links"><title>See the most innovative NFT based token software licensing project</title><path fill="#E4CF37" id="more" d="M165,0C74.019,0,0,74.019,0,165s74.019,165,165,165s165-74.019,165-165S255.981,0,165,0z M85,190 c-13.785,0-25-11.215-25-25s11.215-25,25-25s25,11.215,25,25S98.785,190,85,190z M165,190c-13.785,0-25-11.215-25-25 s11.215-25,25-25s25,11.215,25,25S178.785,190,165,190z M245,190c-13.785,0-25-11.215-25-25s11.215-25,25-25 c13.785,0,25,11.215,25,25S258.785,190,245,190z"></path></a></g></svg></svg></svg>