<svg version="1.1" xmlns="http://www.w3.org/2000/svg" xmlns:xlink="http://www.w3.org/1999/xlink" fill="transparent" x="0" y="0" width="350" height="350" preserveAspectRatio="xMinYMin slice"><style type="text/css">.links{fill:transparent;stroke: #E4CF37;}.links:hover{fill:#63D272; opacity:0.4;}</style><defs><g id="allt"><path id="t7480" d="M2343,1824 L2333,1824 C2324,1824 2338,1820 2328,1820 C2318,1820 2328,1824 2319,1824 L2310,1824 2310,1824 L2310,1833 C2310,1842 2315,1829 2314,1838 C2313,1847 2310,1834 2310,1845 L2310,1856 2310,1856 L2319,1856 C2329,1856 2315,1861 2324,1860 C2334,1859 2321,1856 2332,1856 L2343,1856 2343,1856 L2342,1846 C2342,1837 2347,1849 2346,1840 C2345,1832 2341,1844 2342,1834 L2343,1824"/></g><clipPath id="c" clipRule="evenodd" fill="transparent"><use href="#t7480"/></clipPath></defs><svg viewBox="2309 1819 39 43" preserveAspectRatio="xMinYMin meet"><svg width="4380" height="2430"><g><image crossorigin="anonymous" x="0" y="0" href="https://nftpuzzle.license-token.com/assets/completepuzzle.svg" width="100%" height="100%" /><g class="links"><use href="#t7480"/></g></g></svg><svg x="2333" y="1847" height="9%" width="9%" viewBox="0 0 330 330"><g><a xlink:href="https://nftpuzzle.license-token.com/" class="links"><title>See the most innovative NFT based token software licensing project</title><path fill="#E4CF37" id="more" d="M165,0C74.019,0,0,74.019,0,165s74.019,165,165,165s165-74.019,165-165S255.981,0,165,0z M85,190 c-13.785,0-25-11.215-25-25s11.215-25,25-25s25,11.215,25,25S98.785,190,85,190z M165,190c-13.785,0-25-11.215-25-25 s11.215-25,25-25s25,11.215,25,25S178.785,190,165,190z M245,190c-13.785,0-25-11.215-25-25s11.215-25,25-25 c13.785,0,25,11.215,25,25S258.785,190,245,190z"></path></a></g></svg></svg></svg>