<svg version="1.1" xmlns="http://www.w3.org/2000/svg" xmlns:xlink="http://www.w3.org/1999/xlink" fill="transparent" x="0" y="0" width="350" height="350" preserveAspectRatio="xMinYMin slice"><style type="text/css">.links{fill:transparent;stroke: #E4CF37;}.links:hover{fill:#63D272; opacity:0.4;}</style><defs><g id="allt"><path id="t7484" d="M2475,1824 L2465,1824 C2455,1824 2467,1815 2458,1815 C2450,1816 2463,1824 2452,1824 L2442,1824 2442,1824 L2442,1834 C2442,1844 2438,1832 2435,1839 C2433,1846 2442,1835 2442,1845 L2442,1856 2442,1856 L2452,1856 C2463,1856 2450,1852 2457,1849 C2465,1847 2453,1856 2464,1856 L2475,1856 2475,1856 L2476,1847 C2477,1838 2471,1849 2470,1841 C2469,1833 2476,1841 2475,1832 L2475,1824"/></g><clipPath id="c" clipRule="evenodd" fill="transparent"><use href="#t7484"/></clipPath></defs><svg viewBox="2432 1814 46 43" preserveAspectRatio="xMinYMin meet"><svg width="4380" height="2430"><g><image crossorigin="anonymous" x="0" y="0" href="https://nftpuzzle.license-token.com/assets/completepuzzle.svg" width="100%" height="100%" /><g class="links"><use href="#t7484"/></g></g></svg><svg x="2463" y="1842" height="9%" width="9%" viewBox="0 0 330 330"><g><a xlink:href="https://nftpuzzle.license-token.com/" class="links"><title>See the most innovative NFT based token software licensing project</title><path fill="#E4CF37" id="more" d="M165,0C74.019,0,0,74.019,0,165s74.019,165,165,165s165-74.019,165-165S255.981,0,165,0z M85,190 c-13.785,0-25-11.215-25-25s11.215-25,25-25s25,11.215,25,25S98.785,190,85,190z M165,190c-13.785,0-25-11.215-25-25 s11.215-25,25-25s25,11.215,25,25S178.785,190,165,190z M245,190c-13.785,0-25-11.215-25-25s11.215-25,25-25 c13.785,0,25,11.215,25,25S258.785,190,245,190z"></path></a></g></svg></svg></svg>