<svg version="1.1" xmlns="http://www.w3.org/2000/svg" xmlns:xlink="http://www.w3.org/1999/xlink" fill="transparent" x="0" y="0" width="350" height="350" preserveAspectRatio="xMinYMin slice"><style type="text/css">.links{fill:transparent;stroke: #E4CF37;}.links:hover{fill:#63D272; opacity:0.4;}</style><defs><g id="allt"><path id="t7485" d="M2508,1824 L2497,1823 C2487,1822 2503,1827 2493,1827 C2484,1827 2493,1824 2484,1824 L2475,1824 2475,1824 L2475,1832 C2476,1841 2469,1833 2470,1841 C2471,1849 2477,1838 2476,1847 L2475,1856 2475,1856 L2484,1856 C2493,1857 2484,1850 2492,1851 C2501,1852 2489,1858 2498,1857 L2508,1856 2508,1856 L2509,1846 C2511,1836 2503,1848 2501,1840 C2500,1832 2513,1843 2510,1833 L2508,1824"/></g><clipPath id="c" clipRule="evenodd" fill="transparent"><use href="#t7485"/></clipPath></defs><svg viewBox="2468 1821 46 38" preserveAspectRatio="xMinYMin meet"><svg width="4380" height="2430"><g><image crossorigin="anonymous" x="0" y="0" href="https://nftpuzzle.license-token.com/assets/completepuzzle.svg" width="100%" height="100%" /><g class="links"><use href="#t7485"/></g></g></svg><svg x="2499" y="1844" height="9%" width="9%" viewBox="0 0 330 330"><g><a xlink:href="https://nftpuzzle.license-token.com/" class="links"><title>See the most innovative NFT based token software licensing project</title><path fill="#E4CF37" id="more" d="M165,0C74.019,0,0,74.019,0,165s74.019,165,165,165s165-74.019,165-165S255.981,0,165,0z M85,190 c-13.785,0-25-11.215-25-25s11.215-25,25-25s25,11.215,25,25S98.785,190,85,190z M165,190c-13.785,0-25-11.215-25-25 s11.215-25,25-25s25,11.215,25,25S178.785,190,165,190z M245,190c-13.785,0-25-11.215-25-25s11.215-25,25-25 c13.785,0,25,11.215,25,25S258.785,190,245,190z"></path></a></g></svg></svg></svg>