<svg version="1.1" xmlns="http://www.w3.org/2000/svg" xmlns:xlink="http://www.w3.org/1999/xlink" fill="transparent" x="0" y="0" width="350" height="350" preserveAspectRatio="xMinYMin slice"><style type="text/css">.links{fill:transparent;stroke: #E4CF37;}.links:hover{fill:#63D272; opacity:0.4;}</style><defs><g id="allt"><path id="t7495" d="M2838,1824 L2828,1824 C2819,1824 2828,1818 2820,1819 C2812,1820 2824,1824 2814,1824 L2805,1824 2805,1824 L2805,1833 C2806,1842 2803,1828 2803,1838 C2803,1849 2805,1837 2805,1846 L2805,1856 2805,1856 L2814,1856 C2824,1857 2809,1854 2820,1854 C2831,1854 2818,1856 2828,1856 L2838,1856 2838,1856 L2837,1845 C2836,1835 2849,1847 2847,1837 C2845,1828 2837,1843 2837,1833 L2838,1824"/></g><clipPath id="c" clipRule="evenodd" fill="transparent"><use href="#t7495"/></clipPath></defs><svg viewBox="2802 1817 48 41" preserveAspectRatio="xMinYMin meet"><svg width="4380" height="2430"><g><image crossorigin="anonymous" x="0" y="0" href="https://nftpuzzle.license-token.com/assets/completepuzzle.svg" width="100%" height="100%" /><g class="links"><use href="#t7495"/></g></g></svg><svg x="2835" y="1843" height="9%" width="9%" viewBox="0 0 330 330"><g><a xlink:href="https://nftpuzzle.license-token.com/" class="links"><title>See the most innovative NFT based token software licensing project</title><path fill="#E4CF37" id="more" d="M165,0C74.019,0,0,74.019,0,165s74.019,165,165,165s165-74.019,165-165S255.981,0,165,0z M85,190 c-13.785,0-25-11.215-25-25s11.215-25,25-25s25,11.215,25,25S98.785,190,85,190z M165,190c-13.785,0-25-11.215-25-25 s11.215-25,25-25s25,11.215,25,25S178.785,190,165,190z M245,190c-13.785,0-25-11.215-25-25s11.215-25,25-25 c13.785,0,25,11.215,25,25S258.785,190,245,190z"></path></a></g></svg></svg></svg>