<svg version="1.1" xmlns="http://www.w3.org/2000/svg" xmlns:xlink="http://www.w3.org/1999/xlink" fill="transparent" x="0" y="0" width="350" height="350" preserveAspectRatio="xMinYMin slice"><style type="text/css">.links{fill:transparent;stroke: #E4CF37;}.links:hover{fill:#63D272; opacity:0.4;}</style><defs><g id="allt"><path id="t7498" d="M2937,1824 L2926,1824 C2915,1824 2927,1834 2918,1831 C2910,1829 2923,1823 2913,1823 L2904,1824 2904,1824 L2904,1833 C2904,1842 2909,1831 2908,1839 C2908,1848 2903,1836 2903,1846 L2904,1856 2904,1856 L2913,1856 C2923,1856 2911,1861 2920,1860 C2929,1860 2916,1855 2926,1855 L2937,1856 2937,1856 L2935,1846 C2933,1837 2942,1847 2942,1840 C2943,1833 2935,1841 2936,1832 L2937,1824"/></g><clipPath id="c" clipRule="evenodd" fill="transparent"><use href="#t7498"/></clipPath></defs><svg viewBox="2902 1822 42 40" preserveAspectRatio="xMinYMin meet"><svg width="4380" height="2430"><g><image crossorigin="anonymous" x="0" y="0" href="https://nftpuzzle.license-token.com/assets/completepuzzle.svg" width="100%" height="100%" /><g class="links"><use href="#t7498"/></g></g></svg><svg x="2929" y="1847" height="9%" width="9%" viewBox="0 0 330 330"><g><a xlink:href="https://nftpuzzle.license-token.com/" class="links"><title>See the most innovative NFT based token software licensing project</title><path fill="#E4CF37" id="more" d="M165,0C74.019,0,0,74.019,0,165s74.019,165,165,165s165-74.019,165-165S255.981,0,165,0z M85,190 c-13.785,0-25-11.215-25-25s11.215-25,25-25s25,11.215,25,25S98.785,190,85,190z M165,190c-13.785,0-25-11.215-25-25 s11.215-25,25-25s25,11.215,25,25S178.785,190,165,190z M245,190c-13.785,0-25-11.215-25-25s11.215-25,25-25 c13.785,0,25,11.215,25,25S258.785,190,245,190z"></path></a></g></svg></svg></svg>