<svg version="1.1" xmlns="http://www.w3.org/2000/svg" xmlns:xlink="http://www.w3.org/1999/xlink" fill="transparent" x="0" y="0" width="350" height="350" preserveAspectRatio="xMinYMin slice"><style type="text/css">.links{fill:transparent;stroke: #E4CF37;}.links:hover{fill:#63D272; opacity:0.4;}</style><defs><g id="allt"><path id="t7503" d="M3102,1824 L3090,1824 C3079,1824 3093,1831 3085,1829 C3077,1828 3090,1822 3079,1823 L3069,1824 3069,1824 L3070,1833 C3071,1843 3066,1830 3065,1839 C3065,1848 3070,1835 3069,1845 L3069,1856 3069,1856 L3079,1857 C3089,1858 3075,1853 3084,1852 C3094,1852 3080,1857 3091,1856 L3102,1856 3102,1856 L3102,1845 C3102,1834 3107,1846 3109,1839 C3111,1833 3099,1845 3100,1834 L3102,1824"/></g><clipPath id="c" clipRule="evenodd" fill="transparent"><use href="#t7503"/></clipPath></defs><svg viewBox="3064 1821 48 38" preserveAspectRatio="xMinYMin meet"><svg width="4380" height="2430"><g><image crossorigin="anonymous" x="0" y="0" href="https://nftpuzzle.license-token.com/assets/completepuzzle.svg" width="100%" height="100%" /><g class="links"><use href="#t7503"/></g></g></svg><svg x="3097" y="1844" height="9%" width="9%" viewBox="0 0 330 330"><g><a xlink:href="https://nftpuzzle.license-token.com/" class="links"><title>See the most innovative NFT based token software licensing project</title><path fill="#E4CF37" id="more" d="M165,0C74.019,0,0,74.019,0,165s74.019,165,165,165s165-74.019,165-165S255.981,0,165,0z M85,190 c-13.785,0-25-11.215-25-25s11.215-25,25-25s25,11.215,25,25S98.785,190,85,190z M165,190c-13.785,0-25-11.215-25-25 s11.215-25,25-25s25,11.215,25,25S178.785,190,165,190z M245,190c-13.785,0-25-11.215-25-25s11.215-25,25-25 c13.785,0,25,11.215,25,25S258.785,190,245,190z"></path></a></g></svg></svg></svg>