<svg version="1.1" xmlns="http://www.w3.org/2000/svg" xmlns:xlink="http://www.w3.org/1999/xlink" fill="transparent" x="0" y="0" width="350" height="350" preserveAspectRatio="xMinYMin slice"><style type="text/css">.links{fill:transparent;stroke: #E4CF37;}.links:hover{fill:#63D272; opacity:0.4;}</style><defs><g id="allt"><path id="t7505" d="M3168,1824 L3157,1823 C3146,1822 3160,1831 3152,1832 C3144,1834 3153,1824 3144,1824 L3135,1824 3135,1824 L3134,1834 C3134,1844 3140,1833 3140,1840 C3140,1848 3135,1834 3135,1845 L3135,1856 3135,1856 L3145,1855 C3155,1855 3144,1861 3152,1861 C3160,1861 3145,1856 3156,1856 L3168,1856 3168,1856 L3168,1845 C3168,1834 3174,1847 3173,1838 C3173,1829 3168,1843 3168,1833 L3168,1824"/></g><clipPath id="c" clipRule="evenodd" fill="transparent"><use href="#t7505"/></clipPath></defs><svg viewBox="3133 1821 42 41" preserveAspectRatio="xMinYMin meet"><svg width="4380" height="2430"><g><image crossorigin="anonymous" x="0" y="0" href="https://nftpuzzle.license-token.com/assets/completepuzzle.svg" width="100%" height="100%" /><g class="links"><use href="#t7505"/></g></g></svg><svg x="3160" y="1847" height="9%" width="9%" viewBox="0 0 330 330"><g><a xlink:href="https://nftpuzzle.license-token.com/" class="links"><title>See the most innovative NFT based token software licensing project</title><path fill="#E4CF37" id="more" d="M165,0C74.019,0,0,74.019,0,165s74.019,165,165,165s165-74.019,165-165S255.981,0,165,0z M85,190 c-13.785,0-25-11.215-25-25s11.215-25,25-25s25,11.215,25,25S98.785,190,85,190z M165,190c-13.785,0-25-11.215-25-25 s11.215-25,25-25s25,11.215,25,25S178.785,190,165,190z M245,190c-13.785,0-25-11.215-25-25s11.215-25,25-25 c13.785,0,25,11.215,25,25S258.785,190,245,190z"></path></a></g></svg></svg></svg>