<svg version="1.1" xmlns="http://www.w3.org/2000/svg" xmlns:xlink="http://www.w3.org/1999/xlink" fill="transparent" x="0" y="0" width="350" height="350" preserveAspectRatio="xMinYMin slice"><style type="text/css">.links{fill:transparent;stroke: #E4CF37;}.links:hover{fill:#63D272; opacity:0.4;}</style><defs><g id="allt"><path id="t7517" d="M3564,1824 L3554,1824 C3545,1825 3557,1820 3546,1819 C3536,1818 3551,1826 3541,1825 L3531,1824 3531,1824 L3528,1833 C3525,1842 3537,1831 3537,1838 C3537,1846 3532,1838 3531,1847 L3531,1856 3531,1856 L3540,1853 C3549,1850 3538,1862 3546,1862 C3554,1862 3545,1857 3554,1856 L3564,1856 3564,1856 L3564,1846 C3564,1837 3555,1849 3555,1838 C3556,1828 3564,1844 3564,1834 L3564,1824"/></g><clipPath id="c" clipRule="evenodd" fill="transparent"><use href="#t7517"/></clipPath></defs><svg viewBox="3524 1817 41 46" preserveAspectRatio="xMinYMin meet"><svg width="4380" height="2430"><g><image crossorigin="anonymous" x="0" y="0" href="https://nftpuzzle.license-token.com/assets/completepuzzle.svg" width="100%" height="100%" /><g class="links"><use href="#t7517"/></g></g></svg><svg x="3550" y="1848" height="9%" width="9%" viewBox="0 0 330 330"><g><a xlink:href="https://nftpuzzle.license-token.com/" class="links"><title>See the most innovative NFT based token software licensing project</title><path fill="#E4CF37" id="more" d="M165,0C74.019,0,0,74.019,0,165s74.019,165,165,165s165-74.019,165-165S255.981,0,165,0z M85,190 c-13.785,0-25-11.215-25-25s11.215-25,25-25s25,11.215,25,25S98.785,190,85,190z M165,190c-13.785,0-25-11.215-25-25 s11.215-25,25-25s25,11.215,25,25S178.785,190,165,190z M245,190c-13.785,0-25-11.215-25-25s11.215-25,25-25 c13.785,0,25,11.215,25,25S258.785,190,245,190z"></path></a></g></svg></svg></svg>