<svg version="1.1" xmlns="http://www.w3.org/2000/svg" xmlns:xlink="http://www.w3.org/1999/xlink" fill="transparent" x="0" y="0" width="350" height="350" preserveAspectRatio="xMinYMin slice"><style type="text/css">.links{fill:transparent;stroke: #E4CF37;}.links:hover{fill:#63D272; opacity:0.4;}</style><defs><g id="allt"><path id="t7519" d="M3630,1824 L3620,1825 C3611,1827 3624,1817 3614,1818 C3605,1819 3616,1824 3606,1824 L3597,1824 3597,1824 L3597,1833 C3597,1843 3592,1833 3593,1840 C3595,1848 3597,1837 3597,1846 L3597,1856 3597,1856 L3607,1856 C3617,1856 3606,1851 3613,1852 C3621,1854 3611,1856 3620,1856 L3630,1856 3630,1856 L3630,1846 C3630,1836 3625,1849 3626,1840 C3628,1831 3631,1844 3630,1834 L3630,1824"/></g><clipPath id="c" clipRule="evenodd" fill="transparent"><use href="#t7519"/></clipPath></defs><svg viewBox="3591 1816 41 41" preserveAspectRatio="xMinYMin meet"><svg width="4380" height="2430"><g><image crossorigin="anonymous" x="0" y="0" href="https://nftpuzzle.license-token.com/assets/completepuzzle.svg" width="100%" height="100%" /><g class="links"><use href="#t7519"/></g></g></svg><svg x="3617" y="1842" height="9%" width="9%" viewBox="0 0 330 330"><g><a xlink:href="https://nftpuzzle.license-token.com/" class="links"><title>See the most innovative NFT based token software licensing project</title><path fill="#E4CF37" id="more" d="M165,0C74.019,0,0,74.019,0,165s74.019,165,165,165s165-74.019,165-165S255.981,0,165,0z M85,190 c-13.785,0-25-11.215-25-25s11.215-25,25-25s25,11.215,25,25S98.785,190,85,190z M165,190c-13.785,0-25-11.215-25-25 s11.215-25,25-25s25,11.215,25,25S178.785,190,165,190z M245,190c-13.785,0-25-11.215-25-25s11.215-25,25-25 c13.785,0,25,11.215,25,25S258.785,190,245,190z"></path></a></g></svg></svg></svg>