<svg version="1.1" xmlns="http://www.w3.org/2000/svg" xmlns:xlink="http://www.w3.org/1999/xlink" fill="transparent" x="0" y="0" width="350" height="350" preserveAspectRatio="xMinYMin slice"><style type="text/css">.links{fill:transparent;stroke: #E4CF37;}.links:hover{fill:#63D272; opacity:0.4;}</style><defs><g id="allt"><path id="t7522" d="M3729,1824 L3719,1824 C3709,1824 3719,1829 3710,1830 C3702,1832 3714,1821 3705,1822 L3696,1824 3696,1824 L3696,1832 C3696,1841 3685,1829 3687,1839 C3689,1849 3699,1837 3697,1846 L3696,1856 3696,1856 L3705,1856 C3714,1856 3701,1845 3711,1847 C3722,1849 3709,1859 3719,1857 L3729,1856 3729,1856 L3730,1846 C3731,1837 3720,1849 3720,1840 C3721,1832 3729,1841 3729,1832 L3729,1824"/></g><clipPath id="c" clipRule="evenodd" fill="transparent"><use href="#t7522"/></clipPath></defs><svg viewBox="3684 1820 48 40" preserveAspectRatio="xMinYMin meet"><svg width="4380" height="2430"><g><image crossorigin="anonymous" x="0" y="0" href="https://nftpuzzle.license-token.com/assets/completepuzzle.svg" width="100%" height="100%" /><g class="links"><use href="#t7522"/></g></g></svg><svg x="3717" y="1845" height="9%" width="9%" viewBox="0 0 330 330"><g><a xlink:href="https://nftpuzzle.license-token.com/" class="links"><title>See the most innovative NFT based token software licensing project</title><path fill="#E4CF37" id="more" d="M165,0C74.019,0,0,74.019,0,165s74.019,165,165,165s165-74.019,165-165S255.981,0,165,0z M85,190 c-13.785,0-25-11.215-25-25s11.215-25,25-25s25,11.215,25,25S98.785,190,85,190z M165,190c-13.785,0-25-11.215-25-25 s11.215-25,25-25s25,11.215,25,25S178.785,190,165,190z M245,190c-13.785,0-25-11.215-25-25s11.215-25,25-25 c13.785,0,25,11.215,25,25S258.785,190,245,190z"></path></a></g></svg></svg></svg>