<svg version="1.1" xmlns="http://www.w3.org/2000/svg" xmlns:xlink="http://www.w3.org/1999/xlink" fill="transparent" x="0" y="0" width="350" height="350" preserveAspectRatio="xMinYMin slice"><style type="text/css">.links{fill:transparent;stroke: #E4CF37;}.links:hover{fill:#63D272; opacity:0.4;}</style><defs><g id="allt"><path id="t7523" d="M3762,1824 L3752,1823 C3743,1823 3753,1830 3743,1830 C3733,1830 3750,1823 3739,1823 L3729,1824 3729,1824 L3729,1832 C3729,1841 3721,1832 3720,1840 C3720,1849 3731,1837 3730,1846 L3729,1856 3729,1856 L3738,1856 C3747,1856 3737,1848 3746,1847 C3755,1847 3742,1858 3752,1857 L3762,1856 3762,1856 L3762,1846 C3762,1837 3768,1848 3768,1840 C3768,1832 3762,1841 3762,1832 L3762,1824"/></g><clipPath id="c" clipRule="evenodd" fill="transparent"><use href="#t7523"/></clipPath></defs><svg viewBox="3719 1822 50 37" preserveAspectRatio="xMinYMin meet"><svg width="4380" height="2430"><g><image crossorigin="anonymous" x="0" y="0" href="https://nftpuzzle.license-token.com/assets/completepuzzle.svg" width="100%" height="100%" /><g class="links"><use href="#t7523"/></g></g></svg><svg x="3754" y="1844" height="9%" width="9%" viewBox="0 0 330 330"><g><a xlink:href="https://nftpuzzle.license-token.com/" class="links"><title>See the most innovative NFT based token software licensing project</title><path fill="#E4CF37" id="more" d="M165,0C74.019,0,0,74.019,0,165s74.019,165,165,165s165-74.019,165-165S255.981,0,165,0z M85,190 c-13.785,0-25-11.215-25-25s11.215-25,25-25s25,11.215,25,25S98.785,190,85,190z M165,190c-13.785,0-25-11.215-25-25 s11.215-25,25-25s25,11.215,25,25S178.785,190,165,190z M245,190c-13.785,0-25-11.215-25-25s11.215-25,25-25 c13.785,0,25,11.215,25,25S258.785,190,245,190z"></path></a></g></svg></svg></svg>