<svg version="1.1" xmlns="http://www.w3.org/2000/svg" xmlns:xlink="http://www.w3.org/1999/xlink" fill="transparent" x="0" y="0" width="350" height="350" preserveAspectRatio="xMinYMin slice"><style type="text/css">.links{fill:transparent;stroke: #E4CF37;}.links:hover{fill:#63D272; opacity:0.4;}</style><defs><g id="allt"><path id="t7527" d="M3894,1824 L3884,1825 C3875,1826 3885,1817 3876,1817 C3867,1817 3880,1828 3870,1826 L3861,1824 3861,1824 L3858,1833 C3856,1843 3867,1832 3869,1839 C3871,1847 3859,1837 3860,1846 L3861,1856 3861,1856 L3870,1853 C3880,1851 3869,1862 3877,1864 C3885,1866 3874,1854 3884,1855 L3894,1856 3894,1856 L3894,1845 C3894,1834 3889,1848 3890,1840 C3892,1832 3894,1844 3894,1834 L3894,1824"/></g><clipPath id="c" clipRule="evenodd" fill="transparent"><use href="#t7527"/></clipPath></defs><svg viewBox="3855 1816 40 51" preserveAspectRatio="xMinYMin meet"><svg width="4380" height="2430"><g><image crossorigin="anonymous" x="0" y="0" href="https://nftpuzzle.license-token.com/assets/completepuzzle.svg" width="100%" height="100%" /><g class="links"><use href="#t7527"/></g></g></svg><svg x="3880" y="1852" height="9%" width="9%" viewBox="0 0 330 330"><g><a xlink:href="https://nftpuzzle.license-token.com/" class="links"><title>See the most innovative NFT based token software licensing project</title><path fill="#E4CF37" id="more" d="M165,0C74.019,0,0,74.019,0,165s74.019,165,165,165s165-74.019,165-165S255.981,0,165,0z M85,190 c-13.785,0-25-11.215-25-25s11.215-25,25-25s25,11.215,25,25S98.785,190,85,190z M165,190c-13.785,0-25-11.215-25-25 s11.215-25,25-25s25,11.215,25,25S178.785,190,165,190z M245,190c-13.785,0-25-11.215-25-25s11.215-25,25-25 c13.785,0,25,11.215,25,25S258.785,190,245,190z"></path></a></g></svg></svg></svg>