<svg version="1.1" xmlns="http://www.w3.org/2000/svg" xmlns:xlink="http://www.w3.org/1999/xlink" fill="transparent" x="0" y="0" width="350" height="350" preserveAspectRatio="xMinYMin slice"><style type="text/css">.links{fill:transparent;stroke: #E4CF37;}.links:hover{fill:#63D272; opacity:0.4;}</style><defs><g id="allt"><path id="t753" d="M3432,160 L3422,160 C3412,160 3424,151 3415,150 C3407,150 3418,161 3408,160 L3399,160 3399,160 L3400,169 C3401,179 3395,165 3395,176 C3395,187 3399,171 3399,181 L3399,192 3399,192 L3408,193 C3418,194 3404,188 3415,188 C3427,188 3411,192 3421,192 L3432,192 3432,192 L3431,181 C3431,170 3443,185 3441,174 C3440,164 3432,178 3432,169 L3432,160"/></g><clipPath id="c" clipRule="evenodd" fill="transparent"><use href="#t753"/></clipPath></defs><svg viewBox="3394 149 50 46" preserveAspectRatio="xMinYMin meet"><svg width="4380" height="2430"><g><image crossorigin="anonymous" x="0" y="0" href="https://nftpuzzle.license-token.com/assets/completepuzzle.svg" width="100%" height="100%" /><g class="links"><use href="#t753"/></g></g></svg><svg x="3429" y="180" height="9%" width="9%" viewBox="0 0 330 330"><g><a xlink:href="https://nftpuzzle.license-token.com/" class="links"><title>See the most innovative NFT based token software licensing project</title><path fill="#E4CF37" id="more" d="M165,0C74.019,0,0,74.019,0,165s74.019,165,165,165s165-74.019,165-165S255.981,0,165,0z M85,190 c-13.785,0-25-11.215-25-25s11.215-25,25-25s25,11.215,25,25S98.785,190,85,190z M165,190c-13.785,0-25-11.215-25-25 s11.215-25,25-25s25,11.215,25,25S178.785,190,165,190z M245,190c-13.785,0-25-11.215-25-25s11.215-25,25-25 c13.785,0,25,11.215,25,25S258.785,190,245,190z"></path></a></g></svg></svg></svg>