<svg version="1.1" xmlns="http://www.w3.org/2000/svg" xmlns:xlink="http://www.w3.org/1999/xlink" fill="transparent" x="0" y="0" width="350" height="350" preserveAspectRatio="xMinYMin slice"><style type="text/css">.links{fill:transparent;stroke: #E4CF37;}.links:hover{fill:#63D272; opacity:0.4;}</style><defs><g id="allt"><path id="t7533" d="M4092,1824 L4082,1824 C4072,1824 4086,1820 4075,1820 C4065,1821 4081,1824 4070,1824 L4059,1824 4059,1824 L4061,1833 C4063,1842 4053,1832 4053,1840 C4054,1848 4063,1835 4061,1845 L4059,1856 4059,1856 L4068,1858 C4077,1860 4067,1850 4075,1850 C4084,1851 4070,1860 4081,1858 L4092,1856 4092,1856 L4092,1845 C4093,1835 4088,1846 4088,1838 C4088,1831 4093,1845 4092,1834 L4092,1824"/></g><clipPath id="c" clipRule="evenodd" fill="transparent"><use href="#t7533"/></clipPath></defs><svg viewBox="4052 1819 42 42" preserveAspectRatio="xMinYMin meet"><svg width="4380" height="2430"><g><image crossorigin="anonymous" x="0" y="0" href="https://nftpuzzle.license-token.com/assets/completepuzzle.svg" width="100%" height="100%" /><g class="links"><use href="#t7533"/></g></g></svg><svg x="4079" y="1846" height="9%" width="9%" viewBox="0 0 330 330"><g><a xlink:href="https://nftpuzzle.license-token.com/" class="links"><title>See the most innovative NFT based token software licensing project</title><path fill="#E4CF37" id="more" d="M165,0C74.019,0,0,74.019,0,165s74.019,165,165,165s165-74.019,165-165S255.981,0,165,0z M85,190 c-13.785,0-25-11.215-25-25s11.215-25,25-25s25,11.215,25,25S98.785,190,85,190z M165,190c-13.785,0-25-11.215-25-25 s11.215-25,25-25s25,11.215,25,25S178.785,190,165,190z M245,190c-13.785,0-25-11.215-25-25s11.215-25,25-25 c13.785,0,25,11.215,25,25S258.785,190,245,190z"></path></a></g></svg></svg></svg>