<svg version="1.1" xmlns="http://www.w3.org/2000/svg" xmlns:xlink="http://www.w3.org/1999/xlink" fill="transparent" x="0" y="0" width="350" height="350" preserveAspectRatio="xMinYMin slice"><style type="text/css">.links{fill:transparent;stroke: #E4CF37;}.links:hover{fill:#63D272; opacity:0.4;}</style><defs><g id="allt"><path id="t7537" d="M4224,1824 L4214,1824 C4204,1824 4214,1831 4205,1830 C4197,1829 4210,1823 4200,1823 L4191,1824 4191,1824 L4191,1834 C4192,1845 4188,1833 4187,1841 C4186,1850 4193,1836 4192,1846 L4191,1856 4191,1856 L4201,1856 C4212,1857 4200,1853 4209,1852 C4218,1851 4203,1858 4213,1857 L4224,1856 4224,1856 L4224,1846 C4224,1836 4217,1850 4218,1840 C4219,1830 4226,1845 4225,1834 L4224,1824"/></g><clipPath id="c" clipRule="evenodd" fill="transparent"><use href="#t7537"/></clipPath></defs><svg viewBox="4185 1822 42 37" preserveAspectRatio="xMinYMin meet"><svg width="4380" height="2430"><g><image crossorigin="anonymous" x="0" y="0" href="https://nftpuzzle.license-token.com/assets/completepuzzle.svg" width="100%" height="100%" /><g class="links"><use href="#t7537"/></g></g></svg><svg x="4212" y="1844" height="9%" width="9%" viewBox="0 0 330 330"><g><a xlink:href="https://nftpuzzle.license-token.com/" class="links"><title>See the most innovative NFT based token software licensing project</title><path fill="#E4CF37" id="more" d="M165,0C74.019,0,0,74.019,0,165s74.019,165,165,165s165-74.019,165-165S255.981,0,165,0z M85,190 c-13.785,0-25-11.215-25-25s11.215-25,25-25s25,11.215,25,25S98.785,190,85,190z M165,190c-13.785,0-25-11.215-25-25 s11.215-25,25-25s25,11.215,25,25S178.785,190,165,190z M245,190c-13.785,0-25-11.215-25-25s11.215-25,25-25 c13.785,0,25,11.215,25,25S258.785,190,245,190z"></path></a></g></svg></svg></svg>