<svg version="1.1" xmlns="http://www.w3.org/2000/svg" xmlns:xlink="http://www.w3.org/1999/xlink" fill="transparent" x="0" y="0" width="350" height="350" preserveAspectRatio="xMinYMin slice"><style type="text/css">.links{fill:transparent;stroke: #E4CF37;}.links:hover{fill:#63D272; opacity:0.4;}</style><defs><g id="allt"><path id="t7541" d="M66,1856 L56,1856 C46,1857 60,1850 49,1850 C38,1851 53,1857 43,1856 L33,1856 33,1856 L33,1865 C33,1874 38,1860 37,1871 C37,1882 32,1869 32,1878 L33,1888 33,1888 L42,1888 C52,1888 37,1893 48,1892 C60,1892 46,1887 56,1887 L66,1888 66,1888 L64,1877 C63,1866 72,1879 72,1870 C72,1861 66,1876 66,1866 L66,1856"/></g><clipPath id="c" clipRule="evenodd" fill="transparent"><use href="#t7541"/></clipPath></defs><svg viewBox="31 1849 42 45" preserveAspectRatio="xMinYMin meet"><svg width="4380" height="2430"><g><image crossorigin="anonymous" x="0" y="0" href="https://nftpuzzle.license-token.com/assets/completepuzzle.svg" width="100%" height="100%" /><g class="links"><use href="#t7541"/></g></g></svg><svg x="58" y="1879" height="9%" width="9%" viewBox="0 0 330 330"><g><a xlink:href="https://nftpuzzle.license-token.com/" class="links"><title>See the most innovative NFT based token software licensing project</title><path fill="#E4CF37" id="more" d="M165,0C74.019,0,0,74.019,0,165s74.019,165,165,165s165-74.019,165-165S255.981,0,165,0z M85,190 c-13.785,0-25-11.215-25-25s11.215-25,25-25s25,11.215,25,25S98.785,190,85,190z M165,190c-13.785,0-25-11.215-25-25 s11.215-25,25-25s25,11.215,25,25S178.785,190,165,190z M245,190c-13.785,0-25-11.215-25-25s11.215-25,25-25 c13.785,0,25,11.215,25,25S258.785,190,245,190z"></path></a></g></svg></svg></svg>