<svg version="1.1" xmlns="http://www.w3.org/2000/svg" xmlns:xlink="http://www.w3.org/1999/xlink" fill="transparent" x="0" y="0" width="350" height="350" preserveAspectRatio="xMinYMin slice"><style type="text/css">.links{fill:transparent;stroke: #E4CF37;}.links:hover{fill:#63D272; opacity:0.4;}</style><defs><g id="allt"><path id="t7543" d="M132,1856 L122,1857 C112,1859 124,1853 115,1851 C107,1849 120,1858 109,1857 L99,1856 99,1856 L99,1866 C99,1876 95,1860 95,1870 C96,1881 101,1867 100,1877 L99,1888 99,1888 L109,1888 C120,1888 103,1884 114,1884 C125,1885 110,1890 121,1889 L132,1888 132,1888 L132,1878 C132,1868 140,1881 138,1871 C136,1861 130,1874 131,1865 L132,1856"/></g><clipPath id="c" clipRule="evenodd" fill="transparent"><use href="#t7543"/></clipPath></defs><svg viewBox="94 1848 47 43" preserveAspectRatio="xMinYMin meet"><svg width="4380" height="2430"><g><image crossorigin="anonymous" x="0" y="0" href="https://nftpuzzle.license-token.com/assets/completepuzzle.svg" width="100%" height="100%" /><g class="links"><use href="#t7543"/></g></g></svg><svg x="126" y="1876" height="9%" width="9%" viewBox="0 0 330 330"><g><a xlink:href="https://nftpuzzle.license-token.com/" class="links"><title>See the most innovative NFT based token software licensing project</title><path fill="#E4CF37" id="more" d="M165,0C74.019,0,0,74.019,0,165s74.019,165,165,165s165-74.019,165-165S255.981,0,165,0z M85,190 c-13.785,0-25-11.215-25-25s11.215-25,25-25s25,11.215,25,25S98.785,190,85,190z M165,190c-13.785,0-25-11.215-25-25 s11.215-25,25-25s25,11.215,25,25S178.785,190,165,190z M245,190c-13.785,0-25-11.215-25-25s11.215-25,25-25 c13.785,0,25,11.215,25,25S258.785,190,245,190z"></path></a></g></svg></svg></svg>