<svg version="1.1" xmlns="http://www.w3.org/2000/svg" xmlns:xlink="http://www.w3.org/1999/xlink" fill="transparent" x="0" y="0" width="350" height="350" preserveAspectRatio="xMinYMin slice"><style type="text/css">.links{fill:transparent;stroke: #E4CF37;}.links:hover{fill:#63D272; opacity:0.4;}</style><defs><g id="allt"><path id="t7546" d="M231,1856 L221,1857 C211,1858 223,1851 214,1851 C205,1851 218,1858 208,1857 L198,1856 198,1856 L199,1866 C200,1876 193,1863 194,1870 C196,1878 198,1866 198,1877 L198,1888 198,1888 L208,1889 C218,1890 205,1883 213,1884 C221,1886 208,1888 219,1888 L231,1888 231,1888 L230,1877 C230,1867 234,1881 235,1873 C236,1865 230,1875 230,1865 L231,1856"/></g><clipPath id="c" clipRule="evenodd" fill="transparent"><use href="#t7546"/></clipPath></defs><svg viewBox="192 1850 45 41" preserveAspectRatio="xMinYMin meet"><svg width="4380" height="2430"><g><image crossorigin="anonymous" x="0" y="0" href="https://nftpuzzle.license-token.com/assets/completepuzzle.svg" width="100%" height="100%" /><g class="links"><use href="#t7546"/></g></g></svg><svg x="222" y="1876" height="9%" width="9%" viewBox="0 0 330 330"><g><a xlink:href="https://nftpuzzle.license-token.com/" class="links"><title>See the most innovative NFT based token software licensing project</title><path fill="#E4CF37" id="more" d="M165,0C74.019,0,0,74.019,0,165s74.019,165,165,165s165-74.019,165-165S255.981,0,165,0z M85,190 c-13.785,0-25-11.215-25-25s11.215-25,25-25s25,11.215,25,25S98.785,190,85,190z M165,190c-13.785,0-25-11.215-25-25 s11.215-25,25-25s25,11.215,25,25S178.785,190,165,190z M245,190c-13.785,0-25-11.215-25-25s11.215-25,25-25 c13.785,0,25,11.215,25,25S258.785,190,245,190z"></path></a></g></svg></svg></svg>