<svg version="1.1" xmlns="http://www.w3.org/2000/svg" xmlns:xlink="http://www.w3.org/1999/xlink" fill="transparent" x="0" y="0" width="350" height="350" preserveAspectRatio="xMinYMin slice"><style type="text/css">.links{fill:transparent;stroke: #E4CF37;}.links:hover{fill:#63D272; opacity:0.4;}</style><defs><g id="allt"><path id="t7547" d="M264,1856 L254,1856 C244,1856 258,1860 247,1859 C236,1858 249,1856 240,1856 L231,1856 231,1856 L230,1865 C230,1875 236,1865 235,1873 C234,1881 230,1867 230,1877 L231,1888 231,1888 L240,1887 C250,1887 240,1893 248,1892 C257,1891 242,1887 253,1887 L264,1888 264,1888 L264,1879 C264,1870 269,1880 270,1872 C271,1864 262,1876 263,1866 L264,1856"/></g><clipPath id="c" clipRule="evenodd" fill="transparent"><use href="#t7547"/></clipPath></defs><svg viewBox="229 1855 43 39" preserveAspectRatio="xMinYMin meet"><svg width="4380" height="2430"><g><image crossorigin="anonymous" x="0" y="0" href="https://nftpuzzle.license-token.com/assets/completepuzzle.svg" width="100%" height="100%" /><g class="links"><use href="#t7547"/></g></g></svg><svg x="257" y="1879" height="9%" width="9%" viewBox="0 0 330 330"><g><a xlink:href="https://nftpuzzle.license-token.com/" class="links"><title>See the most innovative NFT based token software licensing project</title><path fill="#E4CF37" id="more" d="M165,0C74.019,0,0,74.019,0,165s74.019,165,165,165s165-74.019,165-165S255.981,0,165,0z M85,190 c-13.785,0-25-11.215-25-25s11.215-25,25-25s25,11.215,25,25S98.785,190,85,190z M165,190c-13.785,0-25-11.215-25-25 s11.215-25,25-25s25,11.215,25,25S178.785,190,165,190z M245,190c-13.785,0-25-11.215-25-25s11.215-25,25-25 c13.785,0,25,11.215,25,25S258.785,190,245,190z"></path></a></g></svg></svg></svg>