<svg version="1.1" xmlns="http://www.w3.org/2000/svg" xmlns:xlink="http://www.w3.org/1999/xlink" fill="transparent" x="0" y="0" width="350" height="350" preserveAspectRatio="xMinYMin slice"><style type="text/css">.links{fill:transparent;stroke: #E4CF37;}.links:hover{fill:#63D272; opacity:0.4;}</style><defs><g id="allt"><path id="t7548" d="M297,1856 L286,1854 C275,1852 287,1863 280,1863 C273,1864 285,1854 274,1855 L264,1856 264,1856 L263,1866 C262,1876 271,1864 270,1872 C269,1880 264,1870 264,1879 L264,1888 264,1888 L274,1887 C285,1886 272,1895 280,1894 C288,1893 278,1888 287,1888 L297,1888 297,1888 L297,1879 C297,1870 302,1880 301,1872 C301,1865 294,1875 295,1865 L297,1856"/></g><clipPath id="c" clipRule="evenodd" fill="transparent"><use href="#t7548"/></clipPath></defs><svg viewBox="261 1851 42 45" preserveAspectRatio="xMinYMin meet"><svg width="4380" height="2430"><g><image crossorigin="anonymous" x="0" y="0" href="https://nftpuzzle.license-token.com/assets/completepuzzle.svg" width="100%" height="100%" /><g class="links"><use href="#t7548"/></g></g></svg><svg x="288" y="1881" height="9%" width="9%" viewBox="0 0 330 330"><g><a xlink:href="https://nftpuzzle.license-token.com/" class="links"><title>See the most innovative NFT based token software licensing project</title><path fill="#E4CF37" id="more" d="M165,0C74.019,0,0,74.019,0,165s74.019,165,165,165s165-74.019,165-165S255.981,0,165,0z M85,190 c-13.785,0-25-11.215-25-25s11.215-25,25-25s25,11.215,25,25S98.785,190,85,190z M165,190c-13.785,0-25-11.215-25-25 s11.215-25,25-25s25,11.215,25,25S178.785,190,165,190z M245,190c-13.785,0-25-11.215-25-25s11.215-25,25-25 c13.785,0,25,11.215,25,25S258.785,190,245,190z"></path></a></g></svg></svg></svg>