<svg version="1.1" xmlns="http://www.w3.org/2000/svg" xmlns:xlink="http://www.w3.org/1999/xlink" fill="transparent" x="0" y="0" width="350" height="350" preserveAspectRatio="xMinYMin slice"><style type="text/css">.links{fill:transparent;stroke: #E4CF37;}.links:hover{fill:#63D272; opacity:0.4;}</style><defs><g id="allt"><path id="t7549" d="M330,1856 L320,1855 C310,1854 321,1866 311,1863 C302,1861 319,1854 308,1855 L297,1856 297,1856 L295,1865 C294,1875 301,1865 301,1872 C302,1880 297,1870 297,1879 L297,1888 297,1888 L306,1886 C316,1885 306,1892 314,1892 C322,1893 311,1888 320,1888 L330,1888 330,1888 L330,1878 C330,1868 326,1882 325,1873 C325,1864 331,1875 330,1865 L330,1856"/></g><clipPath id="c" clipRule="evenodd" fill="transparent"><use href="#t7549"/></clipPath></defs><svg viewBox="293 1853 39 41" preserveAspectRatio="xMinYMin meet"><svg width="4380" height="2430"><g><image crossorigin="anonymous" x="0" y="0" href="https://nftpuzzle.license-token.com/assets/completepuzzle.svg" width="100%" height="100%" /><g class="links"><use href="#t7549"/></g></g></svg><svg x="317" y="1879" height="9%" width="9%" viewBox="0 0 330 330"><g><a xlink:href="https://nftpuzzle.license-token.com/" class="links"><title>See the most innovative NFT based token software licensing project</title><path fill="#E4CF37" id="more" d="M165,0C74.019,0,0,74.019,0,165s74.019,165,165,165s165-74.019,165-165S255.981,0,165,0z M85,190 c-13.785,0-25-11.215-25-25s11.215-25,25-25s25,11.215,25,25S98.785,190,85,190z M165,190c-13.785,0-25-11.215-25-25 s11.215-25,25-25s25,11.215,25,25S178.785,190,165,190z M245,190c-13.785,0-25-11.215-25-25s11.215-25,25-25 c13.785,0,25,11.215,25,25S258.785,190,245,190z"></path></a></g></svg></svg></svg>