<svg version="1.1" xmlns="http://www.w3.org/2000/svg" xmlns:xlink="http://www.w3.org/1999/xlink" fill="transparent" x="0" y="0" width="350" height="350" preserveAspectRatio="xMinYMin slice"><style type="text/css">.links{fill:transparent;stroke: #E4CF37;}.links:hover{fill:#63D272; opacity:0.4;}</style><defs><g id="allt"><path id="t7558" d="M627,1856 L617,1856 C608,1856 617,1847 609,1846 C601,1845 613,1859 603,1857 L594,1856 594,1856 L592,1865 C591,1874 601,1862 601,1871 C601,1880 594,1868 594,1878 L594,1888 594,1888 L603,1886 C612,1885 600,1895 609,1895 C618,1895 607,1888 617,1888 L627,1888 627,1888 L627,1878 C627,1868 633,1878 632,1870 C631,1863 626,1873 626,1864 L627,1856"/></g><clipPath id="c" clipRule="evenodd" fill="transparent"><use href="#t7558"/></clipPath></defs><svg viewBox="590 1844 44 52" preserveAspectRatio="xMinYMin meet"><svg width="4380" height="2430"><g><image crossorigin="anonymous" x="0" y="0" href="https://nftpuzzle.license-token.com/assets/completepuzzle.svg" width="100%" height="100%" /><g class="links"><use href="#t7558"/></g></g></svg><svg x="619" y="1881" height="9%" width="9%" viewBox="0 0 330 330"><g><a xlink:href="https://nftpuzzle.license-token.com/" class="links"><title>See the most innovative NFT based token software licensing project</title><path fill="#E4CF37" id="more" d="M165,0C74.019,0,0,74.019,0,165s74.019,165,165,165s165-74.019,165-165S255.981,0,165,0z M85,190 c-13.785,0-25-11.215-25-25s11.215-25,25-25s25,11.215,25,25S98.785,190,85,190z M165,190c-13.785,0-25-11.215-25-25 s11.215-25,25-25s25,11.215,25,25S178.785,190,165,190z M245,190c-13.785,0-25-11.215-25-25s11.215-25,25-25 c13.785,0,25,11.215,25,25S258.785,190,245,190z"></path></a></g></svg></svg></svg>