<svg version="1.1" xmlns="http://www.w3.org/2000/svg" xmlns:xlink="http://www.w3.org/1999/xlink" fill="transparent" x="0" y="0" width="350" height="350" preserveAspectRatio="xMinYMin slice"><style type="text/css">.links{fill:transparent;stroke: #E4CF37;}.links:hover{fill:#63D272; opacity:0.4;}</style><defs><g id="allt"><path id="t7571" d="M1056,1856 L1045,1856 C1035,1856 1046,1845 1037,1847 C1028,1850 1045,1856 1034,1856 L1023,1856 1023,1856 L1023,1865 C1023,1875 1027,1865 1027,1872 C1027,1879 1022,1869 1022,1878 L1023,1888 1023,1888 L1032,1888 C1042,1888 1032,1892 1039,1892 C1047,1892 1036,1887 1046,1887 L1056,1888 1056,1888 L1055,1878 C1055,1868 1061,1881 1061,1872 C1061,1864 1054,1873 1055,1864 L1056,1856"/></g><clipPath id="c" clipRule="evenodd" fill="transparent"><use href="#t7571"/></clipPath></defs><svg viewBox="1021 1844 41 49" preserveAspectRatio="xMinYMin meet"><svg width="4380" height="2430"><g><image crossorigin="anonymous" x="0" y="0" href="https://nftpuzzle.license-token.com/assets/completepuzzle.svg" width="100%" height="100%" /><g class="links"><use href="#t7571"/></g></g></svg><svg x="1047" y="1878" height="9%" width="9%" viewBox="0 0 330 330"><g><a xlink:href="https://nftpuzzle.license-token.com/" class="links"><title>See the most innovative NFT based token software licensing project</title><path fill="#E4CF37" id="more" d="M165,0C74.019,0,0,74.019,0,165s74.019,165,165,165s165-74.019,165-165S255.981,0,165,0z M85,190 c-13.785,0-25-11.215-25-25s11.215-25,25-25s25,11.215,25,25S98.785,190,85,190z M165,190c-13.785,0-25-11.215-25-25 s11.215-25,25-25s25,11.215,25,25S178.785,190,165,190z M245,190c-13.785,0-25-11.215-25-25s11.215-25,25-25 c13.785,0,25,11.215,25,25S258.785,190,245,190z"></path></a></g></svg></svg></svg>