<svg version="1.1" xmlns="http://www.w3.org/2000/svg" xmlns:xlink="http://www.w3.org/1999/xlink" fill="transparent" x="0" y="0" width="350" height="350" preserveAspectRatio="xMinYMin slice"><style type="text/css">.links{fill:transparent;stroke: #E4CF37;}.links:hover{fill:#63D272; opacity:0.4;}</style><defs><g id="allt"><path id="t7578" d="M1287,1856 L1276,1857 C1265,1858 1281,1851 1271,1850 C1262,1850 1272,1859 1263,1857 L1254,1856 1254,1856 L1253,1865 C1253,1874 1261,1860 1260,1870 C1260,1880 1254,1868 1254,1878 L1254,1888 1254,1888 L1263,1887 C1273,1887 1258,1895 1268,1894 C1278,1894 1266,1888 1276,1888 L1287,1888 1287,1888 L1287,1878 C1287,1868 1282,1880 1282,1870 C1283,1861 1287,1876 1287,1866 L1287,1856"/></g><clipPath id="c" clipRule="evenodd" fill="transparent"><use href="#t7578"/></clipPath></defs><svg viewBox="1252 1849 36 47" preserveAspectRatio="xMinYMin meet"><svg width="4380" height="2430"><g><image crossorigin="anonymous" x="0" y="0" href="https://nftpuzzle.license-token.com/assets/completepuzzle.svg" width="100%" height="100%" /><g class="links"><use href="#t7578"/></g></g></svg><svg x="1273" y="1881" height="9%" width="9%" viewBox="0 0 330 330"><g><a xlink:href="https://nftpuzzle.license-token.com/" class="links"><title>See the most innovative NFT based token software licensing project</title><path fill="#E4CF37" id="more" d="M165,0C74.019,0,0,74.019,0,165s74.019,165,165,165s165-74.019,165-165S255.981,0,165,0z M85,190 c-13.785,0-25-11.215-25-25s11.215-25,25-25s25,11.215,25,25S98.785,190,85,190z M165,190c-13.785,0-25-11.215-25-25 s11.215-25,25-25s25,11.215,25,25S178.785,190,165,190z M245,190c-13.785,0-25-11.215-25-25s11.215-25,25-25 c13.785,0,25,11.215,25,25S258.785,190,245,190z"></path></a></g></svg></svg></svg>