<svg version="1.1" xmlns="http://www.w3.org/2000/svg" xmlns:xlink="http://www.w3.org/1999/xlink" fill="transparent" x="0" y="0" width="350" height="350" preserveAspectRatio="xMinYMin slice"><style type="text/css">.links{fill:transparent;stroke: #E4CF37;}.links:hover{fill:#63D272; opacity:0.4;}</style><defs><g id="allt"><path id="t7585" d="M1518,1856 L1508,1856 C1498,1857 1508,1843 1500,1846 C1493,1850 1504,1856 1494,1856 L1485,1856 1485,1856 L1486,1864 C1487,1873 1482,1863 1481,1872 C1481,1882 1486,1869 1485,1878 L1485,1888 1485,1888 L1494,1889 C1503,1890 1492,1885 1502,1884 C1512,1884 1499,1889 1508,1888 L1518,1888 1518,1888 L1518,1877 C1518,1867 1516,1881 1515,1872 C1515,1863 1519,1875 1518,1865 L1518,1856"/></g><clipPath id="c" clipRule="evenodd" fill="transparent"><use href="#t7585"/></clipPath></defs><svg viewBox="1480 1842 40 49" preserveAspectRatio="xMinYMin meet"><svg width="4380" height="2430"><g><image crossorigin="anonymous" x="0" y="0" href="https://nftpuzzle.license-token.com/assets/completepuzzle.svg" width="100%" height="100%" /><g class="links"><use href="#t7585"/></g></g></svg><svg x="1505" y="1876" height="9%" width="9%" viewBox="0 0 330 330"><g><a xlink:href="https://nftpuzzle.license-token.com/" class="links"><title>See the most innovative NFT based token software licensing project</title><path fill="#E4CF37" id="more" d="M165,0C74.019,0,0,74.019,0,165s74.019,165,165,165s165-74.019,165-165S255.981,0,165,0z M85,190 c-13.785,0-25-11.215-25-25s11.215-25,25-25s25,11.215,25,25S98.785,190,85,190z M165,190c-13.785,0-25-11.215-25-25 s11.215-25,25-25s25,11.215,25,25S178.785,190,165,190z M245,190c-13.785,0-25-11.215-25-25s11.215-25,25-25 c13.785,0,25,11.215,25,25S258.785,190,245,190z"></path></a></g></svg></svg></svg>