<svg version="1.1" xmlns="http://www.w3.org/2000/svg" xmlns:xlink="http://www.w3.org/1999/xlink" fill="transparent" x="0" y="0" width="350" height="350" preserveAspectRatio="xMinYMin slice"><style type="text/css">.links{fill:transparent;stroke: #E4CF37;}.links:hover{fill:#63D272; opacity:0.4;}</style><defs><g id="allt"><path id="t7589" d="M1650,1856 L1639,1854 C1628,1852 1643,1860 1633,1860 C1623,1860 1639,1855 1628,1855 L1617,1856 1617,1856 L1616,1865 C1616,1874 1622,1864 1623,1872 C1625,1881 1617,1867 1617,1877 L1617,1888 1617,1888 L1626,1887 C1636,1887 1625,1893 1634,1894 C1643,1896 1629,1888 1639,1888 L1650,1888 1650,1888 L1650,1877 C1650,1866 1646,1879 1646,1872 C1647,1865 1651,1875 1650,1865 L1650,1856"/></g><clipPath id="c" clipRule="evenodd" fill="transparent"><use href="#t7589"/></clipPath></defs><svg viewBox="1615 1851 37 46" preserveAspectRatio="xMinYMin meet"><svg width="4380" height="2430"><g><image crossorigin="anonymous" x="0" y="0" href="https://nftpuzzle.license-token.com/assets/completepuzzle.svg" width="100%" height="100%" /><g class="links"><use href="#t7589"/></g></g></svg><svg x="1637" y="1882" height="9%" width="9%" viewBox="0 0 330 330"><g><a xlink:href="https://nftpuzzle.license-token.com/" class="links"><title>See the most innovative NFT based token software licensing project</title><path fill="#E4CF37" id="more" d="M165,0C74.019,0,0,74.019,0,165s74.019,165,165,165s165-74.019,165-165S255.981,0,165,0z M85,190 c-13.785,0-25-11.215-25-25s11.215-25,25-25s25,11.215,25,25S98.785,190,85,190z M165,190c-13.785,0-25-11.215-25-25 s11.215-25,25-25s25,11.215,25,25S178.785,190,165,190z M245,190c-13.785,0-25-11.215-25-25s11.215-25,25-25 c13.785,0,25,11.215,25,25S258.785,190,245,190z"></path></a></g></svg></svg></svg>