<svg version="1.1" xmlns="http://www.w3.org/2000/svg" xmlns:xlink="http://www.w3.org/1999/xlink" fill="transparent" x="0" y="0" width="350" height="350" preserveAspectRatio="xMinYMin slice"><style type="text/css">.links{fill:transparent;stroke: #E4CF37;}.links:hover{fill:#63D272; opacity:0.4;}</style><defs><g id="allt"><path id="t7590" d="M1683,1856 L1672,1855 C1662,1855 1674,1862 1666,1863 C1659,1865 1672,1856 1661,1856 L1650,1856 1650,1856 L1650,1865 C1651,1875 1647,1865 1646,1872 C1646,1879 1650,1866 1650,1877 L1650,1888 1650,1888 L1660,1888 C1670,1889 1659,1885 1666,1884 C1674,1884 1661,1888 1672,1888 L1683,1888 1683,1888 L1683,1878 C1683,1868 1690,1879 1689,1871 C1689,1864 1680,1876 1681,1866 L1683,1856"/></g><clipPath id="c" clipRule="evenodd" fill="transparent"><use href="#t7590"/></clipPath></defs><svg viewBox="1645 1854 46 36" preserveAspectRatio="xMinYMin meet"><svg width="4380" height="2430"><g><image crossorigin="anonymous" x="0" y="0" href="https://nftpuzzle.license-token.com/assets/completepuzzle.svg" width="100%" height="100%" /><g class="links"><use href="#t7590"/></g></g></svg><svg x="1676" y="1875" height="9%" width="9%" viewBox="0 0 330 330"><g><a xlink:href="https://nftpuzzle.license-token.com/" class="links"><title>See the most innovative NFT based token software licensing project</title><path fill="#E4CF37" id="more" d="M165,0C74.019,0,0,74.019,0,165s74.019,165,165,165s165-74.019,165-165S255.981,0,165,0z M85,190 c-13.785,0-25-11.215-25-25s11.215-25,25-25s25,11.215,25,25S98.785,190,85,190z M165,190c-13.785,0-25-11.215-25-25 s11.215-25,25-25s25,11.215,25,25S178.785,190,165,190z M245,190c-13.785,0-25-11.215-25-25s11.215-25,25-25 c13.785,0,25,11.215,25,25S258.785,190,245,190z"></path></a></g></svg></svg></svg>