<svg version="1.1" xmlns="http://www.w3.org/2000/svg" xmlns:xlink="http://www.w3.org/1999/xlink" fill="transparent" x="0" y="0" width="350" height="350" preserveAspectRatio="xMinYMin slice"><style type="text/css">.links{fill:transparent;stroke: #E4CF37;}.links:hover{fill:#63D272; opacity:0.4;}</style><defs><g id="allt"><path id="t7592" d="M1749,1856 L1738,1857 C1727,1858 1741,1852 1733,1852 C1725,1852 1734,1856 1725,1856 L1716,1856 1716,1856 L1716,1866 C1717,1876 1712,1860 1711,1870 C1710,1880 1718,1869 1717,1878 L1716,1888 1716,1888 L1726,1888 C1736,1889 1720,1884 1730,1883 C1741,1882 1729,1890 1739,1889 L1749,1888 1749,1888 L1749,1877 C1749,1867 1745,1880 1745,1872 C1745,1865 1750,1876 1749,1866 L1749,1856"/></g><clipPath id="c" clipRule="evenodd" fill="transparent"><use href="#t7592"/></clipPath></defs><svg viewBox="1709 1851 42 40" preserveAspectRatio="xMinYMin meet"><svg width="4380" height="2430"><g><image crossorigin="anonymous" x="0" y="0" href="https://nftpuzzle.license-token.com/assets/completepuzzle.svg" width="100%" height="100%" /><g class="links"><use href="#t7592"/></g></g></svg><svg x="1736" y="1876" height="9%" width="9%" viewBox="0 0 330 330"><g><a xlink:href="https://nftpuzzle.license-token.com/" class="links"><title>See the most innovative NFT based token software licensing project</title><path fill="#E4CF37" id="more" d="M165,0C74.019,0,0,74.019,0,165s74.019,165,165,165s165-74.019,165-165S255.981,0,165,0z M85,190 c-13.785,0-25-11.215-25-25s11.215-25,25-25s25,11.215,25,25S98.785,190,85,190z M165,190c-13.785,0-25-11.215-25-25 s11.215-25,25-25s25,11.215,25,25S178.785,190,165,190z M245,190c-13.785,0-25-11.215-25-25s11.215-25,25-25 c13.785,0,25,11.215,25,25S258.785,190,245,190z"></path></a></g></svg></svg></svg>