<svg version="1.1" xmlns="http://www.w3.org/2000/svg" xmlns:xlink="http://www.w3.org/1999/xlink" fill="transparent" x="0" y="0" width="350" height="350" preserveAspectRatio="xMinYMin slice"><style type="text/css">.links{fill:transparent;stroke: #E4CF37;}.links:hover{fill:#63D272; opacity:0.4;}</style><defs><g id="allt"><path id="t7606" d="M2211,1856 L2200,1857 C2190,1858 2203,1853 2194,1853 C2185,1853 2198,1856 2188,1856 L2178,1856 2178,1856 L2179,1866 C2181,1876 2173,1863 2172,1873 C2172,1883 2179,1870 2178,1879 L2178,1888 2178,1888 L2188,1889 C2199,1891 2185,1883 2195,1882 C2206,1882 2192,1889 2201,1888 L2211,1888 2211,1888 L2211,1877 C2211,1867 2208,1880 2207,1871 C2207,1862 2211,1873 2211,1864 L2211,1856"/></g><clipPath id="c" clipRule="evenodd" fill="transparent"><use href="#t7606"/></clipPath></defs><svg viewBox="2171 1852 41 40" preserveAspectRatio="xMinYMin meet"><svg width="4380" height="2430"><g><image crossorigin="anonymous" x="0" y="0" href="https://nftpuzzle.license-token.com/assets/completepuzzle.svg" width="100%" height="100%" /><g class="links"><use href="#t7606"/></g></g></svg><svg x="2197" y="1877" height="9%" width="9%" viewBox="0 0 330 330"><g><a xlink:href="https://nftpuzzle.license-token.com/" class="links"><title>See the most innovative NFT based token software licensing project</title><path fill="#E4CF37" id="more" d="M165,0C74.019,0,0,74.019,0,165s74.019,165,165,165s165-74.019,165-165S255.981,0,165,0z M85,190 c-13.785,0-25-11.215-25-25s11.215-25,25-25s25,11.215,25,25S98.785,190,85,190z M165,190c-13.785,0-25-11.215-25-25 s11.215-25,25-25s25,11.215,25,25S178.785,190,165,190z M245,190c-13.785,0-25-11.215-25-25s11.215-25,25-25 c13.785,0,25,11.215,25,25S258.785,190,245,190z"></path></a></g></svg></svg></svg>