<svg version="1.1" xmlns="http://www.w3.org/2000/svg" xmlns:xlink="http://www.w3.org/1999/xlink" fill="transparent" x="0" y="0" width="350" height="350" preserveAspectRatio="xMinYMin slice"><style type="text/css">.links{fill:transparent;stroke: #E4CF37;}.links:hover{fill:#63D272; opacity:0.4;}</style><defs><g id="allt"><path id="t7614" d="M2475,1856 L2464,1856 C2453,1856 2465,1847 2457,1849 C2450,1852 2463,1856 2452,1856 L2442,1856 2442,1856 L2442,1866 C2442,1876 2446,1864 2446,1873 C2446,1883 2440,1866 2441,1877 L2442,1888 2442,1888 L2452,1888 C2463,1888 2450,1892 2460,1892 C2470,1892 2452,1886 2463,1887 L2475,1888 2475,1888 L2476,1877 C2477,1867 2472,1880 2471,1870 C2471,1861 2475,1876 2475,1866 L2475,1856"/></g><clipPath id="c" clipRule="evenodd" fill="transparent"><use href="#t7614"/></clipPath></defs><svg viewBox="2439 1846 39 47" preserveAspectRatio="xMinYMin meet"><svg width="4380" height="2430"><g><image crossorigin="anonymous" x="0" y="0" href="https://nftpuzzle.license-token.com/assets/completepuzzle.svg" width="100%" height="100%" /><g class="links"><use href="#t7614"/></g></g></svg><svg x="2463" y="1878" height="9%" width="9%" viewBox="0 0 330 330"><g><a xlink:href="https://nftpuzzle.license-token.com/" class="links"><title>See the most innovative NFT based token software licensing project</title><path fill="#E4CF37" id="more" d="M165,0C74.019,0,0,74.019,0,165s74.019,165,165,165s165-74.019,165-165S255.981,0,165,0z M85,190 c-13.785,0-25-11.215-25-25s11.215-25,25-25s25,11.215,25,25S98.785,190,85,190z M165,190c-13.785,0-25-11.215-25-25 s11.215-25,25-25s25,11.215,25,25S178.785,190,165,190z M245,190c-13.785,0-25-11.215-25-25s11.215-25,25-25 c13.785,0,25,11.215,25,25S258.785,190,245,190z"></path></a></g></svg></svg></svg>