<svg version="1.1" xmlns="http://www.w3.org/2000/svg" xmlns:xlink="http://www.w3.org/1999/xlink" fill="transparent" x="0" y="0" width="350" height="350" preserveAspectRatio="xMinYMin slice"><style type="text/css">.links{fill:transparent;stroke: #E4CF37;}.links:hover{fill:#63D272; opacity:0.4;}</style><defs><g id="allt"><path id="t7615" d="M2508,1856 L2498,1857 C2489,1858 2501,1852 2492,1851 C2484,1850 2493,1857 2484,1856 L2475,1856 2475,1856 L2475,1866 C2475,1876 2471,1861 2471,1870 C2472,1880 2477,1867 2476,1877 L2475,1888 2475,1888 L2485,1888 C2496,1888 2480,1884 2490,1884 C2500,1885 2487,1890 2497,1889 L2508,1888 2508,1888 L2508,1878 C2509,1868 2498,1881 2497,1871 C2496,1861 2509,1876 2508,1866 L2508,1856"/></g><clipPath id="c" clipRule="evenodd" fill="transparent"><use href="#t7615"/></clipPath></defs><svg viewBox="2470 1849 40 42" preserveAspectRatio="xMinYMin meet"><svg width="4380" height="2430"><g><image crossorigin="anonymous" x="0" y="0" href="https://nftpuzzle.license-token.com/assets/completepuzzle.svg" width="100%" height="100%" /><g class="links"><use href="#t7615"/></g></g></svg><svg x="2495" y="1876" height="9%" width="9%" viewBox="0 0 330 330"><g><a xlink:href="https://nftpuzzle.license-token.com/" class="links"><title>See the most innovative NFT based token software licensing project</title><path fill="#E4CF37" id="more" d="M165,0C74.019,0,0,74.019,0,165s74.019,165,165,165s165-74.019,165-165S255.981,0,165,0z M85,190 c-13.785,0-25-11.215-25-25s11.215-25,25-25s25,11.215,25,25S98.785,190,85,190z M165,190c-13.785,0-25-11.215-25-25 s11.215-25,25-25s25,11.215,25,25S178.785,190,165,190z M245,190c-13.785,0-25-11.215-25-25s11.215-25,25-25 c13.785,0,25,11.215,25,25S258.785,190,245,190z"></path></a></g></svg></svg></svg>