<svg version="1.1" xmlns="http://www.w3.org/2000/svg" xmlns:xlink="http://www.w3.org/1999/xlink" fill="transparent" x="0" y="0" width="350" height="350" preserveAspectRatio="xMinYMin slice"><style type="text/css">.links{fill:transparent;stroke: #E4CF37;}.links:hover{fill:#63D272; opacity:0.4;}</style><defs><g id="allt"><path id="t7621" d="M2706,1856 L2696,1857 C2687,1859 2700,1850 2690,1849 C2681,1848 2691,1860 2682,1858 L2673,1856 2673,1856 L2673,1866 C2673,1876 2669,1864 2668,1873 C2667,1882 2677,1869 2675,1878 L2673,1888 2673,1888 L2683,1888 C2693,1888 2681,1884 2690,1883 C2700,1882 2686,1892 2696,1890 L2706,1888 2706,1888 L2707,1878 C2709,1869 2701,1880 2699,1872 C2697,1865 2706,1875 2706,1865 L2706,1856"/></g><clipPath id="c" clipRule="evenodd" fill="transparent"><use href="#t7621"/></clipPath></defs><svg viewBox="2666 1847 44 46" preserveAspectRatio="xMinYMin meet"><svg width="4380" height="2430"><g><image crossorigin="anonymous" x="0" y="0" href="https://nftpuzzle.license-token.com/assets/completepuzzle.svg" width="100%" height="100%" /><g class="links"><use href="#t7621"/></g></g></svg><svg x="2695" y="1878" height="9%" width="9%" viewBox="0 0 330 330"><g><a xlink:href="https://nftpuzzle.license-token.com/" class="links"><title>See the most innovative NFT based token software licensing project</title><path fill="#E4CF37" id="more" d="M165,0C74.019,0,0,74.019,0,165s74.019,165,165,165s165-74.019,165-165S255.981,0,165,0z M85,190 c-13.785,0-25-11.215-25-25s11.215-25,25-25s25,11.215,25,25S98.785,190,85,190z M165,190c-13.785,0-25-11.215-25-25 s11.215-25,25-25s25,11.215,25,25S178.785,190,165,190z M245,190c-13.785,0-25-11.215-25-25s11.215-25,25-25 c13.785,0,25,11.215,25,25S258.785,190,245,190z"></path></a></g></svg></svg></svg>