<svg version="1.1" xmlns="http://www.w3.org/2000/svg" xmlns:xlink="http://www.w3.org/1999/xlink" fill="transparent" x="0" y="0" width="350" height="350" preserveAspectRatio="xMinYMin slice"><style type="text/css">.links{fill:transparent;stroke: #E4CF37;}.links:hover{fill:#63D272; opacity:0.4;}</style><defs><g id="allt"><path id="t7624" d="M2805,1856 L2795,1856 C2785,1856 2797,1847 2787,1848 C2777,1850 2792,1858 2782,1857 L2772,1856 2772,1856 L2772,1865 C2772,1874 2768,1861 2766,1870 C2765,1880 2775,1869 2773,1878 L2772,1888 2772,1888 L2781,1888 C2790,1888 2777,1884 2787,1882 C2797,1881 2785,1891 2795,1889 L2805,1888 2805,1888 L2806,1878 C2807,1868 2797,1879 2797,1870 C2797,1862 2807,1876 2806,1866 L2805,1856"/></g><clipPath id="c" clipRule="evenodd" fill="transparent"><use href="#t7624"/></clipPath></defs><svg viewBox="2764 1846 44 46" preserveAspectRatio="xMinYMin meet"><svg width="4380" height="2430"><g><image crossorigin="anonymous" x="0" y="0" href="https://nftpuzzle.license-token.com/assets/completepuzzle.svg" width="100%" height="100%" /><g class="links"><use href="#t7624"/></g></g></svg><svg x="2793" y="1877" height="9%" width="9%" viewBox="0 0 330 330"><g><a xlink:href="https://nftpuzzle.license-token.com/" class="links"><title>See the most innovative NFT based token software licensing project</title><path fill="#E4CF37" id="more" d="M165,0C74.019,0,0,74.019,0,165s74.019,165,165,165s165-74.019,165-165S255.981,0,165,0z M85,190 c-13.785,0-25-11.215-25-25s11.215-25,25-25s25,11.215,25,25S98.785,190,85,190z M165,190c-13.785,0-25-11.215-25-25 s11.215-25,25-25s25,11.215,25,25S178.785,190,165,190z M245,190c-13.785,0-25-11.215-25-25s11.215-25,25-25 c13.785,0,25,11.215,25,25S258.785,190,245,190z"></path></a></g></svg></svg></svg>