<svg version="1.1" xmlns="http://www.w3.org/2000/svg" xmlns:xlink="http://www.w3.org/1999/xlink" fill="transparent" x="0" y="0" width="350" height="350" preserveAspectRatio="xMinYMin slice"><style type="text/css">.links{fill:transparent;stroke: #E4CF37;}.links:hover{fill:#63D272; opacity:0.4;}</style><defs><g id="allt"><path id="t7630" d="M3003,1856 L2993,1856 C2984,1856 2996,1864 2985,1864 C2975,1864 2989,1856 2979,1856 L2970,1856 2970,1856 L2970,1865 C2971,1874 2965,1864 2966,1873 C2968,1882 2971,1867 2970,1877 L2970,1888 2970,1888 L2979,1888 C2989,1889 2978,1883 2987,1884 C2997,1886 2981,1889 2992,1888 L3003,1888 3003,1888 L3003,1878 C3004,1868 3000,1882 2999,1872 C2998,1862 3006,1874 3004,1865 L3003,1856"/></g><clipPath id="c" clipRule="evenodd" fill="transparent"><use href="#t7630"/></clipPath></defs><svg viewBox="2964 1855 43 35" preserveAspectRatio="xMinYMin meet"><svg width="4380" height="2430"><g><image crossorigin="anonymous" x="0" y="0" href="https://nftpuzzle.license-token.com/assets/completepuzzle.svg" width="100%" height="100%" /><g class="links"><use href="#t7630"/></g></g></svg><svg x="2992" y="1875" height="9%" width="9%" viewBox="0 0 330 330"><g><a xlink:href="https://nftpuzzle.license-token.com/" class="links"><title>See the most innovative NFT based token software licensing project</title><path fill="#E4CF37" id="more" d="M165,0C74.019,0,0,74.019,0,165s74.019,165,165,165s165-74.019,165-165S255.981,0,165,0z M85,190 c-13.785,0-25-11.215-25-25s11.215-25,25-25s25,11.215,25,25S98.785,190,85,190z M165,190c-13.785,0-25-11.215-25-25 s11.215-25,25-25s25,11.215,25,25S178.785,190,165,190z M245,190c-13.785,0-25-11.215-25-25s11.215-25,25-25 c13.785,0,25,11.215,25,25S258.785,190,245,190z"></path></a></g></svg></svg></svg>