<svg version="1.1" xmlns="http://www.w3.org/2000/svg" xmlns:xlink="http://www.w3.org/1999/xlink" fill="transparent" x="0" y="0" width="350" height="350" preserveAspectRatio="xMinYMin slice"><style type="text/css">.links{fill:transparent;stroke: #E4CF37;}.links:hover{fill:#63D272; opacity:0.4;}</style><defs><g id="allt"><path id="t7633" d="M3102,1856 L3091,1856 C3080,1857 3094,1852 3084,1852 C3075,1853 3089,1858 3079,1857 L3069,1856 3069,1856 L3071,1866 C3073,1877 3063,1863 3062,1871 C3062,1880 3069,1868 3069,1878 L3069,1888 3069,1888 L3079,1890 C3090,1892 3076,1882 3085,1881 C3094,1881 3082,1888 3092,1888 L3102,1888 3102,1888 L3103,1879 C3104,1870 3095,1879 3093,1872 C3092,1865 3106,1874 3104,1865 L3102,1856"/></g><clipPath id="c" clipRule="evenodd" fill="transparent"><use href="#t7633"/></clipPath></defs><svg viewBox="3061 1851 46 42" preserveAspectRatio="xMinYMin meet"><svg width="4380" height="2430"><g><image crossorigin="anonymous" x="0" y="0" href="https://nftpuzzle.license-token.com/assets/completepuzzle.svg" width="100%" height="100%" /><g class="links"><use href="#t7633"/></g></g></svg><svg x="3092" y="1878" height="9%" width="9%" viewBox="0 0 330 330"><g><a xlink:href="https://nftpuzzle.license-token.com/" class="links"><title>See the most innovative NFT based token software licensing project</title><path fill="#E4CF37" id="more" d="M165,0C74.019,0,0,74.019,0,165s74.019,165,165,165s165-74.019,165-165S255.981,0,165,0z M85,190 c-13.785,0-25-11.215-25-25s11.215-25,25-25s25,11.215,25,25S98.785,190,85,190z M165,190c-13.785,0-25-11.215-25-25 s11.215-25,25-25s25,11.215,25,25S178.785,190,165,190z M245,190c-13.785,0-25-11.215-25-25s11.215-25,25-25 c13.785,0,25,11.215,25,25S258.785,190,245,190z"></path></a></g></svg></svg></svg>