<svg version="1.1" xmlns="http://www.w3.org/2000/svg" xmlns:xlink="http://www.w3.org/1999/xlink" fill="transparent" x="0" y="0" width="350" height="350" preserveAspectRatio="xMinYMin slice"><style type="text/css">.links{fill:transparent;stroke: #E4CF37;}.links:hover{fill:#63D272; opacity:0.4;}</style><defs><g id="allt"><path id="t7644" d="M3465,1856 L3455,1857 C3446,1858 3458,1851 3448,1852 C3438,1853 3451,1856 3441,1856 L3432,1856 3432,1856 L3432,1866 C3432,1876 3427,1864 3426,1872 C3426,1881 3433,1866 3432,1877 L3432,1888 3432,1888 L3442,1888 C3453,1888 3440,1883 3449,1882 C3458,1882 3442,1889 3453,1888 L3465,1888 3465,1888 L3465,1877 C3466,1867 3460,1879 3458,1870 C3456,1862 3467,1874 3466,1865 L3465,1856"/></g><clipPath id="c" clipRule="evenodd" fill="transparent"><use href="#t7644"/></clipPath></defs><svg viewBox="3425 1850 43 40" preserveAspectRatio="xMinYMin meet"><svg width="4380" height="2430"><g><image crossorigin="anonymous" x="0" y="0" href="https://nftpuzzle.license-token.com/assets/completepuzzle.svg" width="100%" height="100%" /><g class="links"><use href="#t7644"/></g></g></svg><svg x="3453" y="1875" height="9%" width="9%" viewBox="0 0 330 330"><g><a xlink:href="https://nftpuzzle.license-token.com/" class="links"><title>See the most innovative NFT based token software licensing project</title><path fill="#E4CF37" id="more" d="M165,0C74.019,0,0,74.019,0,165s74.019,165,165,165s165-74.019,165-165S255.981,0,165,0z M85,190 c-13.785,0-25-11.215-25-25s11.215-25,25-25s25,11.215,25,25S98.785,190,85,190z M165,190c-13.785,0-25-11.215-25-25 s11.215-25,25-25s25,11.215,25,25S178.785,190,165,190z M245,190c-13.785,0-25-11.215-25-25s11.215-25,25-25 c13.785,0,25,11.215,25,25S258.785,190,245,190z"></path></a></g></svg></svg></svg>