<svg version="1.1" xmlns="http://www.w3.org/2000/svg" xmlns:xlink="http://www.w3.org/1999/xlink" fill="transparent" x="0" y="0" width="350" height="350" preserveAspectRatio="xMinYMin slice"><style type="text/css">.links{fill:transparent;stroke: #E4CF37;}.links:hover{fill:#63D272; opacity:0.4;}</style><defs><g id="allt"><path id="t7648" d="M3597,1856 L3587,1856 C3578,1856 3590,1847 3579,1847 C3568,1848 3585,1856 3574,1856 L3564,1856 3564,1856 L3563,1865 C3563,1875 3568,1862 3569,1872 C3570,1882 3563,1869 3563,1878 L3564,1888 3564,1888 L3574,1887 C3584,1887 3570,1892 3580,1893 C3591,1894 3577,1887 3587,1887 L3597,1888 3597,1888 L3596,1878 C3595,1869 3602,1880 3602,1872 C3602,1864 3597,1874 3597,1865 L3597,1856"/></g><clipPath id="c" clipRule="evenodd" fill="transparent"><use href="#t7648"/></clipPath></defs><svg viewBox="3562 1846 41 49" preserveAspectRatio="xMinYMin meet"><svg width="4380" height="2430"><g><image crossorigin="anonymous" x="0" y="0" href="https://nftpuzzle.license-token.com/assets/completepuzzle.svg" width="100%" height="100%" /><g class="links"><use href="#t7648"/></g></g></svg><svg x="3588" y="1880" height="9%" width="9%" viewBox="0 0 330 330"><g><a xlink:href="https://nftpuzzle.license-token.com/" class="links"><title>See the most innovative NFT based token software licensing project</title><path fill="#E4CF37" id="more" d="M165,0C74.019,0,0,74.019,0,165s74.019,165,165,165s165-74.019,165-165S255.981,0,165,0z M85,190 c-13.785,0-25-11.215-25-25s11.215-25,25-25s25,11.215,25,25S98.785,190,85,190z M165,190c-13.785,0-25-11.215-25-25 s11.215-25,25-25s25,11.215,25,25S178.785,190,165,190z M245,190c-13.785,0-25-11.215-25-25s11.215-25,25-25 c13.785,0,25,11.215,25,25S258.785,190,245,190z"></path></a></g></svg></svg></svg>