<svg version="1.1" xmlns="http://www.w3.org/2000/svg" xmlns:xlink="http://www.w3.org/1999/xlink" fill="transparent" x="0" y="0" width="350" height="350" preserveAspectRatio="xMinYMin slice"><style type="text/css">.links{fill:transparent;stroke: #E4CF37;}.links:hover{fill:#63D272; opacity:0.4;}</style><defs><g id="allt"><path id="t7649" d="M3630,1856 L3620,1856 C3611,1856 3621,1854 3613,1852 C3606,1851 3617,1856 3607,1856 L3597,1856 3597,1856 L3597,1865 C3597,1874 3602,1864 3602,1872 C3602,1880 3595,1869 3596,1878 L3597,1888 3597,1888 L3606,1888 C3615,1888 3605,1893 3613,1893 C3622,1893 3610,1886 3620,1887 L3630,1888 3630,1888 L3630,1878 C3630,1869 3626,1883 3627,1871 C3628,1860 3630,1875 3630,1865 L3630,1856"/></g><clipPath id="c" clipRule="evenodd" fill="transparent"><use href="#t7649"/></clipPath></defs><svg viewBox="3594 1850 37 44" preserveAspectRatio="xMinYMin meet"><svg width="4380" height="2430"><g><image crossorigin="anonymous" x="0" y="0" href="https://nftpuzzle.license-token.com/assets/completepuzzle.svg" width="100%" height="100%" /><g class="links"><use href="#t7649"/></g></g></svg><svg x="3616" y="1879" height="9%" width="9%" viewBox="0 0 330 330"><g><a xlink:href="https://nftpuzzle.license-token.com/" class="links"><title>See the most innovative NFT based token software licensing project</title><path fill="#E4CF37" id="more" d="M165,0C74.019,0,0,74.019,0,165s74.019,165,165,165s165-74.019,165-165S255.981,0,165,0z M85,190 c-13.785,0-25-11.215-25-25s11.215-25,25-25s25,11.215,25,25S98.785,190,85,190z M165,190c-13.785,0-25-11.215-25-25 s11.215-25,25-25s25,11.215,25,25S178.785,190,165,190z M245,190c-13.785,0-25-11.215-25-25s11.215-25,25-25 c13.785,0,25,11.215,25,25S258.785,190,245,190z"></path></a></g></svg></svg></svg>