<svg version="1.1" xmlns="http://www.w3.org/2000/svg" xmlns:xlink="http://www.w3.org/1999/xlink" fill="transparent" x="0" y="0" width="350" height="350" preserveAspectRatio="xMinYMin slice"><style type="text/css">.links{fill:transparent;stroke: #E4CF37;}.links:hover{fill:#63D272; opacity:0.4;}</style><defs><g id="allt"><path id="t7652" d="M3729,1856 L3719,1857 C3709,1859 3722,1849 3711,1847 C3701,1845 3714,1856 3705,1856 L3696,1856 3696,1856 L3696,1865 C3696,1874 3702,1863 3700,1872 C3699,1881 3696,1869 3696,1878 L3696,1888 3696,1888 L3705,1888 C3714,1888 3703,1894 3712,1892 C3722,1891 3709,1888 3719,1888 L3729,1888 3729,1888 L3729,1878 C3729,1869 3719,1880 3719,1870 C3720,1860 3729,1876 3729,1866 L3729,1856"/></g><clipPath id="c" clipRule="evenodd" fill="transparent"><use href="#t7652"/></clipPath></defs><svg viewBox="3695 1844 35 51" preserveAspectRatio="xMinYMin meet"><svg width="4380" height="2430"><g><image crossorigin="anonymous" x="0" y="0" href="https://nftpuzzle.license-token.com/assets/completepuzzle.svg" width="100%" height="100%" /><g class="links"><use href="#t7652"/></g></g></svg><svg x="3715" y="1880" height="9%" width="9%" viewBox="0 0 330 330"><g><a xlink:href="https://nftpuzzle.license-token.com/" class="links"><title>See the most innovative NFT based token software licensing project</title><path fill="#E4CF37" id="more" d="M165,0C74.019,0,0,74.019,0,165s74.019,165,165,165s165-74.019,165-165S255.981,0,165,0z M85,190 c-13.785,0-25-11.215-25-25s11.215-25,25-25s25,11.215,25,25S98.785,190,85,190z M165,190c-13.785,0-25-11.215-25-25 s11.215-25,25-25s25,11.215,25,25S178.785,190,165,190z M245,190c-13.785,0-25-11.215-25-25s11.215-25,25-25 c13.785,0,25,11.215,25,25S258.785,190,245,190z"></path></a></g></svg></svg></svg>