<svg version="1.1" xmlns="http://www.w3.org/2000/svg" xmlns:xlink="http://www.w3.org/1999/xlink" fill="transparent" x="0" y="0" width="350" height="350" preserveAspectRatio="xMinYMin slice"><style type="text/css">.links{fill:transparent;stroke: #E4CF37;}.links:hover{fill:#63D272; opacity:0.4;}</style><defs><g id="allt"><path id="t7654" d="M3795,1856 L3785,1856 C3776,1856 3787,1862 3778,1862 C3770,1862 3780,1856 3771,1856 L3762,1856 3762,1856 L3761,1865 C3761,1874 3767,1861 3768,1872 C3770,1883 3762,1869 3762,1878 L3762,1888 3762,1888 L3771,1887 C3781,1887 3767,1893 3778,1894 C3790,1896 3775,1888 3785,1888 L3795,1888 3795,1888 L3795,1878 C3796,1868 3790,1879 3787,1870 C3785,1862 3796,1877 3795,1866 L3795,1856"/></g><clipPath id="c" clipRule="evenodd" fill="transparent"><use href="#t7654"/></clipPath></defs><svg viewBox="3760 1855 37 42" preserveAspectRatio="xMinYMin meet"><svg width="4380" height="2430"><g><image crossorigin="anonymous" x="0" y="0" href="https://nftpuzzle.license-token.com/assets/completepuzzle.svg" width="100%" height="100%" /><g class="links"><use href="#t7654"/></g></g></svg><svg x="3782" y="1882" height="9%" width="9%" viewBox="0 0 330 330"><g><a xlink:href="https://nftpuzzle.license-token.com/" class="links"><title>See the most innovative NFT based token software licensing project</title><path fill="#E4CF37" id="more" d="M165,0C74.019,0,0,74.019,0,165s74.019,165,165,165s165-74.019,165-165S255.981,0,165,0z M85,190 c-13.785,0-25-11.215-25-25s11.215-25,25-25s25,11.215,25,25S98.785,190,85,190z M165,190c-13.785,0-25-11.215-25-25 s11.215-25,25-25s25,11.215,25,25S178.785,190,165,190z M245,190c-13.785,0-25-11.215-25-25s11.215-25,25-25 c13.785,0,25,11.215,25,25S258.785,190,245,190z"></path></a></g></svg></svg></svg>