<svg version="1.1" xmlns="http://www.w3.org/2000/svg" xmlns:xlink="http://www.w3.org/1999/xlink" fill="transparent" x="0" y="0" width="350" height="350" preserveAspectRatio="xMinYMin slice"><style type="text/css">.links{fill:transparent;stroke: #E4CF37;}.links:hover{fill:#63D272; opacity:0.4;}</style><defs><g id="allt"><path id="t7660" d="M3993,1856 L3982,1856 C3972,1856 3987,1851 3976,1852 C3965,1854 3979,1857 3969,1856 L3960,1856 3960,1856 L3960,1866 C3961,1877 3952,1865 3954,1872 C3956,1879 3963,1867 3961,1877 L3960,1888 3960,1888 L3970,1888 C3981,1889 3969,1880 3976,1882 C3984,1884 3971,1891 3982,1889 L3993,1888 3993,1888 L3993,1877 C3993,1866 3982,1883 3985,1873 C3988,1863 3992,1874 3992,1865 L3993,1856"/></g><clipPath id="c" clipRule="evenodd" fill="transparent"><use href="#t7660"/></clipPath></defs><svg viewBox="3951 1850 43 42" preserveAspectRatio="xMinYMin meet"><svg width="4380" height="2430"><g><image crossorigin="anonymous" x="0" y="0" href="https://nftpuzzle.license-token.com/assets/completepuzzle.svg" width="100%" height="100%" /><g class="links"><use href="#t7660"/></g></g></svg><svg x="3979" y="1877" height="9%" width="9%" viewBox="0 0 330 330"><g><a xlink:href="https://nftpuzzle.license-token.com/" class="links"><title>See the most innovative NFT based token software licensing project</title><path fill="#E4CF37" id="more" d="M165,0C74.019,0,0,74.019,0,165s74.019,165,165,165s165-74.019,165-165S255.981,0,165,0z M85,190 c-13.785,0-25-11.215-25-25s11.215-25,25-25s25,11.215,25,25S98.785,190,85,190z M165,190c-13.785,0-25-11.215-25-25 s11.215-25,25-25s25,11.215,25,25S178.785,190,165,190z M245,190c-13.785,0-25-11.215-25-25s11.215-25,25-25 c13.785,0,25,11.215,25,25S258.785,190,245,190z"></path></a></g></svg></svg></svg>