<svg version="1.1" xmlns="http://www.w3.org/2000/svg" xmlns:xlink="http://www.w3.org/1999/xlink" fill="transparent" x="0" y="0" width="350" height="350" preserveAspectRatio="xMinYMin slice"><style type="text/css">.links{fill:transparent;stroke: #E4CF37;}.links:hover{fill:#63D272; opacity:0.4;}</style><defs><g id="allt"><path id="t7662" d="M4059,1856 L4048,1856 C4037,1856 4053,1851 4044,1851 C4035,1852 4046,1857 4036,1856 L4026,1856 4026,1856 L4025,1865 C4025,1874 4032,1864 4031,1872 C4030,1880 4026,1870 4026,1879 L4026,1888 4026,1888 L4035,1887 C4044,1887 4034,1894 4042,1893 C4051,1892 4040,1888 4049,1888 L4059,1888 4059,1888 L4057,1877 C4056,1866 4065,1878 4067,1871 C4069,1864 4057,1876 4058,1866 L4059,1856"/></g><clipPath id="c" clipRule="evenodd" fill="transparent"><use href="#t7662"/></clipPath></defs><svg viewBox="4024 1850 46 45" preserveAspectRatio="xMinYMin meet"><svg width="4380" height="2430"><g><image crossorigin="anonymous" x="0" y="0" href="https://nftpuzzle.license-token.com/assets/completepuzzle.svg" width="100%" height="100%" /><g class="links"><use href="#t7662"/></g></g></svg><svg x="4055" y="1880" height="9%" width="9%" viewBox="0 0 330 330"><g><a xlink:href="https://nftpuzzle.license-token.com/" class="links"><title>See the most innovative NFT based token software licensing project</title><path fill="#E4CF37" id="more" d="M165,0C74.019,0,0,74.019,0,165s74.019,165,165,165s165-74.019,165-165S255.981,0,165,0z M85,190 c-13.785,0-25-11.215-25-25s11.215-25,25-25s25,11.215,25,25S98.785,190,85,190z M165,190c-13.785,0-25-11.215-25-25 s11.215-25,25-25s25,11.215,25,25S178.785,190,165,190z M245,190c-13.785,0-25-11.215-25-25s11.215-25,25-25 c13.785,0,25,11.215,25,25S258.785,190,245,190z"></path></a></g></svg></svg></svg>