<svg version="1.1" xmlns="http://www.w3.org/2000/svg" xmlns:xlink="http://www.w3.org/1999/xlink" fill="transparent" x="0" y="0" width="350" height="350" preserveAspectRatio="xMinYMin slice"><style type="text/css">.links{fill:transparent;stroke: #E4CF37;}.links:hover{fill:#63D272; opacity:0.4;}</style><defs><g id="allt"><path id="t7665" d="M4158,1856 L4148,1856 C4138,1857 4151,1849 4141,1849 C4131,1849 4146,1858 4135,1857 L4125,1856 4125,1856 L4125,1864 C4125,1873 4127,1862 4127,1872 C4128,1882 4125,1869 4125,1878 L4125,1888 4125,1888 L4134,1888 C4143,1888 4131,1890 4141,1890 C4152,1891 4139,1888 4148,1888 L4158,1888 4158,1888 L4157,1878 C4157,1869 4166,1880 4166,1870 C4166,1861 4156,1876 4157,1866 L4158,1856"/></g><clipPath id="c" clipRule="evenodd" fill="transparent"><use href="#t7665"/></clipPath></defs><svg viewBox="4124 1848 43 44" preserveAspectRatio="xMinYMin meet"><svg width="4380" height="2430"><g><image crossorigin="anonymous" x="0" y="0" href="https://nftpuzzle.license-token.com/assets/completepuzzle.svg" width="100%" height="100%" /><g class="links"><use href="#t7665"/></g></g></svg><svg x="4152" y="1877" height="9%" width="9%" viewBox="0 0 330 330"><g><a xlink:href="https://nftpuzzle.license-token.com/" class="links"><title>See the most innovative NFT based token software licensing project</title><path fill="#E4CF37" id="more" d="M165,0C74.019,0,0,74.019,0,165s74.019,165,165,165s165-74.019,165-165S255.981,0,165,0z M85,190 c-13.785,0-25-11.215-25-25s11.215-25,25-25s25,11.215,25,25S98.785,190,85,190z M165,190c-13.785,0-25-11.215-25-25 s11.215-25,25-25s25,11.215,25,25S178.785,190,165,190z M245,190c-13.785,0-25-11.215-25-25s11.215-25,25-25 c13.785,0,25,11.215,25,25S258.785,190,245,190z"></path></a></g></svg></svg></svg>