<svg version="1.1" xmlns="http://www.w3.org/2000/svg" xmlns:xlink="http://www.w3.org/1999/xlink" fill="transparent" x="0" y="0" width="350" height="350" preserveAspectRatio="xMinYMin slice"><style type="text/css">.links{fill:transparent;stroke: #E4CF37;}.links:hover{fill:#63D272; opacity:0.4;}</style><defs><g id="allt"><path id="t7667" d="M4224,1856 L4213,1857 C4203,1858 4218,1851 4209,1852 C4200,1853 4212,1857 4201,1856 L4191,1856 4191,1856 L4193,1866 C4196,1876 4185,1863 4184,1872 C4183,1882 4191,1870 4191,1879 L4191,1888 4191,1888 L4201,1890 C4211,1893 4198,1882 4208,1881 C4218,1880 4205,1888 4214,1888 L4224,1888 4224,1888 L4224,1878 C4224,1869 4227,1880 4226,1871 C4226,1862 4223,1875 4223,1865 L4224,1856"/></g><clipPath id="c" clipRule="evenodd" fill="transparent"><use href="#t7667"/></clipPath></defs><svg viewBox="4182 1850 46 44" preserveAspectRatio="xMinYMin meet"><svg width="4380" height="2430"><g><image crossorigin="anonymous" x="0" y="0" href="https://nftpuzzle.license-token.com/assets/completepuzzle.svg" width="100%" height="100%" /><g class="links"><use href="#t7667"/></g></g></svg><svg x="4213" y="1879" height="9%" width="9%" viewBox="0 0 330 330"><g><a xlink:href="https://nftpuzzle.license-token.com/" class="links"><title>See the most innovative NFT based token software licensing project</title><path fill="#E4CF37" id="more" d="M165,0C74.019,0,0,74.019,0,165s74.019,165,165,165s165-74.019,165-165S255.981,0,165,0z M85,190 c-13.785,0-25-11.215-25-25s11.215-25,25-25s25,11.215,25,25S98.785,190,85,190z M165,190c-13.785,0-25-11.215-25-25 s11.215-25,25-25s25,11.215,25,25S178.785,190,165,190z M245,190c-13.785,0-25-11.215-25-25s11.215-25,25-25 c13.785,0,25,11.215,25,25S258.785,190,245,190z"></path></a></g></svg></svg></svg>