<svg version="1.1" xmlns="http://www.w3.org/2000/svg" xmlns:xlink="http://www.w3.org/1999/xlink" fill="transparent" x="0" y="0" width="350" height="350" preserveAspectRatio="xMinYMin slice"><style type="text/css">.links{fill:transparent;stroke: #E4CF37;}.links:hover{fill:#63D272; opacity:0.4;}</style><defs><g id="allt"><path id="t7669" d="M4290,1856 L4280,1855 C4271,1855 4280,1859 4272,1860 C4264,1861 4279,1855 4268,1855 L4257,1856 4257,1856 L4257,1865 C4257,1874 4250,1863 4249,1872 C4248,1882 4262,1866 4259,1877 L4257,1888 4257,1888 L4266,1888 C4275,1888 4264,1881 4274,1880 C4284,1879 4268,1893 4279,1890 L4290,1888 L4290,1888 L4290,1856"/></g><clipPath id="c" clipRule="evenodd" fill="transparent"><use href="#t7669"/></clipPath></defs><svg viewBox="4247 1854 44 40" preserveAspectRatio="xMinYMin meet"><svg width="4380" height="2430"><g><image crossorigin="anonymous" x="0" y="0" href="https://nftpuzzle.license-token.com/assets/completepuzzle.svg" width="100%" height="100%" /><g class="links"><use href="#t7669"/></g></g></svg><svg x="4276" y="1879" height="9%" width="9%" viewBox="0 0 330 330"><g><a xlink:href="https://nftpuzzle.license-token.com/" class="links"><title>See the most innovative NFT based token software licensing project</title><path fill="#E4CF37" id="more" d="M165,0C74.019,0,0,74.019,0,165s74.019,165,165,165s165-74.019,165-165S255.981,0,165,0z M85,190 c-13.785,0-25-11.215-25-25s11.215-25,25-25s25,11.215,25,25S98.785,190,85,190z M165,190c-13.785,0-25-11.215-25-25 s11.215-25,25-25s25,11.215,25,25S178.785,190,165,190z M245,190c-13.785,0-25-11.215-25-25s11.215-25,25-25 c13.785,0,25,11.215,25,25S258.785,190,245,190z"></path></a></g></svg></svg></svg>