<svg version="1.1" xmlns="http://www.w3.org/2000/svg" xmlns:xlink="http://www.w3.org/1999/xlink" fill="transparent" x="0" y="0" width="350" height="350" preserveAspectRatio="xMinYMin slice"><style type="text/css">.links{fill:transparent;stroke: #E4CF37;}.links:hover{fill:#63D272; opacity:0.4;}</style><defs><g id="allt"><path id="t7676" d="M231,1888 L219,1888 C208,1888 221,1886 213,1884 C205,1883 218,1890 208,1889 L198,1888 198,1888 L198,1897 C198,1906 194,1895 192,1904 C191,1913 198,1901 198,1910 L198,1920 198,1920 L207,1920 C217,1920 205,1916 214,1914 C224,1913 211,1920 221,1920 L231,1920 231,1920 L231,1909 C231,1899 222,1911 223,1902 C225,1893 232,1906 231,1897 L231,1888"/></g><clipPath id="c" clipRule="evenodd" fill="transparent"><use href="#t7676"/></clipPath></defs><svg viewBox="190 1882 43 39" preserveAspectRatio="xMinYMin meet"><svg width="4380" height="2430"><g><image crossorigin="anonymous" x="0" y="0" href="https://nftpuzzle.license-token.com/assets/completepuzzle.svg" width="100%" height="100%" /><g class="links"><use href="#t7676"/></g></g></svg><svg x="218" y="1906" height="9%" width="9%" viewBox="0 0 330 330"><g><a xlink:href="https://nftpuzzle.license-token.com/" class="links"><title>See the most innovative NFT based token software licensing project</title><path fill="#E4CF37" id="more" d="M165,0C74.019,0,0,74.019,0,165s74.019,165,165,165s165-74.019,165-165S255.981,0,165,0z M85,190 c-13.785,0-25-11.215-25-25s11.215-25,25-25s25,11.215,25,25S98.785,190,85,190z M165,190c-13.785,0-25-11.215-25-25 s11.215-25,25-25s25,11.215,25,25S178.785,190,165,190z M245,190c-13.785,0-25-11.215-25-25s11.215-25,25-25 c13.785,0,25,11.215,25,25S258.785,190,245,190z"></path></a></g></svg></svg></svg>