<svg version="1.1" xmlns="http://www.w3.org/2000/svg" xmlns:xlink="http://www.w3.org/1999/xlink" fill="transparent" x="0" y="0" width="350" height="350" preserveAspectRatio="xMinYMin slice"><style type="text/css">.links{fill:transparent;stroke: #E4CF37;}.links:hover{fill:#63D272; opacity:0.4;}</style><defs><g id="allt"><path id="t7678" d="M297,1888 L287,1888 C278,1888 288,1893 280,1894 C272,1895 285,1886 274,1887 L264,1888 264,1888 L264,1898 C264,1908 270,1895 269,1903 C269,1912 261,1901 262,1910 L264,1920 264,1920 L274,1920 C285,1920 271,1926 279,1925 C288,1925 278,1917 287,1918 L297,1920 297,1920 L296,1909 C296,1899 299,1912 299,1904 C299,1896 295,1907 296,1897 L297,1888"/></g><clipPath id="c" clipRule="evenodd" fill="transparent"><use href="#t7678"/></clipPath></defs><svg viewBox="260 1885 40 42" preserveAspectRatio="xMinYMin meet"><svg width="4380" height="2430"><g><image crossorigin="anonymous" x="0" y="0" href="https://nftpuzzle.license-token.com/assets/completepuzzle.svg" width="100%" height="100%" /><g class="links"><use href="#t7678"/></g></g></svg><svg x="285" y="1912" height="9%" width="9%" viewBox="0 0 330 330"><g><a xlink:href="https://nftpuzzle.license-token.com/" class="links"><title>See the most innovative NFT based token software licensing project</title><path fill="#E4CF37" id="more" d="M165,0C74.019,0,0,74.019,0,165s74.019,165,165,165s165-74.019,165-165S255.981,0,165,0z M85,190 c-13.785,0-25-11.215-25-25s11.215-25,25-25s25,11.215,25,25S98.785,190,85,190z M165,190c-13.785,0-25-11.215-25-25 s11.215-25,25-25s25,11.215,25,25S178.785,190,165,190z M245,190c-13.785,0-25-11.215-25-25s11.215-25,25-25 c13.785,0,25,11.215,25,25S258.785,190,245,190z"></path></a></g></svg></svg></svg>