<svg version="1.1" xmlns="http://www.w3.org/2000/svg" xmlns:xlink="http://www.w3.org/1999/xlink" fill="transparent" x="0" y="0" width="350" height="350" preserveAspectRatio="xMinYMin slice"><style type="text/css">.links{fill:transparent;stroke: #E4CF37;}.links:hover{fill:#63D272; opacity:0.4;}</style><defs><g id="allt"><path id="t7685" d="M528,1888 L516,1888 C505,1889 519,1883 511,1882 C504,1881 513,1888 504,1888 L495,1888 495,1888 L495,1897 C495,1907 492,1894 491,1902 C491,1910 497,1901 496,1910 L495,1920 495,1920 L505,1920 C515,1920 501,1917 509,1916 C518,1916 509,1922 518,1921 L528,1920 528,1920 L527,1911 C526,1902 531,1910 531,1903 C531,1897 528,1905 528,1896 L528,1888"/></g><clipPath id="c" clipRule="evenodd" fill="transparent"><use href="#t7685"/></clipPath></defs><svg viewBox="490 1880 42 43" preserveAspectRatio="xMinYMin meet"><svg width="4380" height="2430"><g><image crossorigin="anonymous" x="0" y="0" href="https://nftpuzzle.license-token.com/assets/completepuzzle.svg" width="100%" height="100%" /><g class="links"><use href="#t7685"/></g></g></svg><svg x="517" y="1908" height="9%" width="9%" viewBox="0 0 330 330"><g><a xlink:href="https://nftpuzzle.license-token.com/" class="links"><title>See the most innovative NFT based token software licensing project</title><path fill="#E4CF37" id="more" d="M165,0C74.019,0,0,74.019,0,165s74.019,165,165,165s165-74.019,165-165S255.981,0,165,0z M85,190 c-13.785,0-25-11.215-25-25s11.215-25,25-25s25,11.215,25,25S98.785,190,85,190z M165,190c-13.785,0-25-11.215-25-25 s11.215-25,25-25s25,11.215,25,25S178.785,190,165,190z M245,190c-13.785,0-25-11.215-25-25s11.215-25,25-25 c13.785,0,25,11.215,25,25S258.785,190,245,190z"></path></a></g></svg></svg></svg>