<svg version="1.1" xmlns="http://www.w3.org/2000/svg" xmlns:xlink="http://www.w3.org/1999/xlink" fill="transparent" x="0" y="0" width="350" height="350" preserveAspectRatio="xMinYMin slice"><style type="text/css">.links{fill:transparent;stroke: #E4CF37;}.links:hover{fill:#63D272; opacity:0.4;}</style><defs><g id="allt"><path id="t7692" d="M759,1888 L749,1890 C739,1893 751,1877 742,1878 C734,1880 744,1894 735,1891 L726,1888 726,1888 L726,1898 C726,1908 720,1896 721,1904 C722,1912 726,1902 726,1911 L726,1920 726,1920 L736,1920 C747,1920 734,1914 742,1915 C751,1916 740,1920 749,1920 L759,1920 759,1920 L760,1911 C762,1902 751,1910 752,1901 C754,1893 760,1908 759,1898 L759,1888"/></g><clipPath id="c" clipRule="evenodd" fill="transparent"><use href="#t7692"/></clipPath></defs><svg viewBox="719 1876 44 45" preserveAspectRatio="xMinYMin meet"><svg width="4380" height="2430"><g><image crossorigin="anonymous" x="0" y="0" href="https://nftpuzzle.license-token.com/assets/completepuzzle.svg" width="100%" height="100%" /><g class="links"><use href="#t7692"/></g></g></svg><svg x="748" y="1906" height="9%" width="9%" viewBox="0 0 330 330"><g><a xlink:href="https://nftpuzzle.license-token.com/" class="links"><title>See the most innovative NFT based token software licensing project</title><path fill="#E4CF37" id="more" d="M165,0C74.019,0,0,74.019,0,165s74.019,165,165,165s165-74.019,165-165S255.981,0,165,0z M85,190 c-13.785,0-25-11.215-25-25s11.215-25,25-25s25,11.215,25,25S98.785,190,85,190z M165,190c-13.785,0-25-11.215-25-25 s11.215-25,25-25s25,11.215,25,25S178.785,190,165,190z M245,190c-13.785,0-25-11.215-25-25s11.215-25,25-25 c13.785,0,25,11.215,25,25S258.785,190,245,190z"></path></a></g></svg></svg></svg>