<svg version="1.1" xmlns="http://www.w3.org/2000/svg" xmlns:xlink="http://www.w3.org/1999/xlink" fill="transparent" x="0" y="0" width="350" height="350" preserveAspectRatio="xMinYMin slice"><style type="text/css">.links{fill:transparent;stroke: #E4CF37;}.links:hover{fill:#63D272; opacity:0.4;}</style><defs><g id="allt"><path id="t7694" d="M825,1888 L814,1888 C803,1889 817,1879 808,1878 C800,1878 810,1888 801,1888 L792,1888 792,1888 L792,1897 C792,1907 787,1895 787,1903 C787,1912 793,1900 792,1910 L792,1920 792,1920 L802,1920 C812,1920 799,1915 808,1915 C817,1915 804,1921 814,1920 L825,1920 825,1920 L825,1909 C825,1898 815,1914 817,1903 C819,1893 829,1905 827,1896 L825,1888"/></g><clipPath id="c" clipRule="evenodd" fill="transparent"><use href="#t7694"/></clipPath></defs><svg viewBox="786 1877 44 45" preserveAspectRatio="xMinYMin meet"><svg width="4380" height="2430"><g><image crossorigin="anonymous" x="0" y="0" href="https://nftpuzzle.license-token.com/assets/completepuzzle.svg" width="100%" height="100%" /><g class="links"><use href="#t7694"/></g></g></svg><svg x="815" y="1907" height="9%" width="9%" viewBox="0 0 330 330"><g><a xlink:href="https://nftpuzzle.license-token.com/" class="links"><title>See the most innovative NFT based token software licensing project</title><path fill="#E4CF37" id="more" d="M165,0C74.019,0,0,74.019,0,165s74.019,165,165,165s165-74.019,165-165S255.981,0,165,0z M85,190 c-13.785,0-25-11.215-25-25s11.215-25,25-25s25,11.215,25,25S98.785,190,85,190z M165,190c-13.785,0-25-11.215-25-25 s11.215-25,25-25s25,11.215,25,25S178.785,190,165,190z M245,190c-13.785,0-25-11.215-25-25s11.215-25,25-25 c13.785,0,25,11.215,25,25S258.785,190,245,190z"></path></a></g></svg></svg></svg>