<svg version="1.1" xmlns="http://www.w3.org/2000/svg" xmlns:xlink="http://www.w3.org/1999/xlink" fill="transparent" x="0" y="0" width="350" height="350" preserveAspectRatio="xMinYMin slice"><style type="text/css">.links{fill:transparent;stroke: #E4CF37;}.links:hover{fill:#63D272; opacity:0.4;}</style><defs><g id="allt"><path id="t7695" d="M858,1888 L847,1888 C837,1888 848,1882 839,1883 C830,1884 843,1888 834,1888 L825,1888 825,1888 L827,1896 C829,1905 819,1893 817,1903 C815,1914 825,1898 825,1909 L825,1920 825,1920 L834,1922 C843,1924 830,1914 841,1912 C852,1911 835,1920 846,1920 L858,1920 858,1920 L856,1910 C855,1901 867,1913 866,1904 C866,1896 853,1908 855,1898 L858,1888"/></g><clipPath id="c" clipRule="evenodd" fill="transparent"><use href="#t7695"/></clipPath></defs><svg viewBox="814 1881 54 44" preserveAspectRatio="xMinYMin meet"><svg width="4380" height="2430"><g><image crossorigin="anonymous" x="0" y="0" href="https://nftpuzzle.license-token.com/assets/completepuzzle.svg" width="100%" height="100%" /><g class="links"><use href="#t7695"/></g></g></svg><svg x="853" y="1910" height="9%" width="9%" viewBox="0 0 330 330"><g><a xlink:href="https://nftpuzzle.license-token.com/" class="links"><title>See the most innovative NFT based token software licensing project</title><path fill="#E4CF37" id="more" d="M165,0C74.019,0,0,74.019,0,165s74.019,165,165,165s165-74.019,165-165S255.981,0,165,0z M85,190 c-13.785,0-25-11.215-25-25s11.215-25,25-25s25,11.215,25,25S98.785,190,85,190z M165,190c-13.785,0-25-11.215-25-25 s11.215-25,25-25s25,11.215,25,25S178.785,190,165,190z M245,190c-13.785,0-25-11.215-25-25s11.215-25,25-25 c13.785,0,25,11.215,25,25S258.785,190,245,190z"></path></a></g></svg></svg></svg>