<svg version="1.1" xmlns="http://www.w3.org/2000/svg" xmlns:xlink="http://www.w3.org/1999/xlink" fill="transparent" x="0" y="0" width="350" height="350" preserveAspectRatio="xMinYMin slice"><style type="text/css">.links{fill:transparent;stroke: #E4CF37;}.links:hover{fill:#63D272; opacity:0.4;}</style><defs><g id="allt"><path id="t7697" d="M924,1888 L914,1888 C905,1888 914,1882 906,1882 C898,1883 913,1888 902,1888 L891,1888 891,1888 L891,1897 C891,1907 896,1897 897,1904 C898,1912 891,1900 891,1910 L891,1920 891,1920 L901,1920 C911,1920 900,1925 908,1926 C916,1927 903,1920 913,1920 L924,1920 924,1920 L924,1909 C925,1899 920,1913 920,1904 C920,1896 924,1906 924,1897 L924,1888"/></g><clipPath id="c" clipRule="evenodd" fill="transparent"><use href="#t7697"/></clipPath></defs><svg viewBox="890 1881 36 47" preserveAspectRatio="xMinYMin meet"><svg width="4380" height="2430"><g><image crossorigin="anonymous" x="0" y="0" href="https://nftpuzzle.license-token.com/assets/completepuzzle.svg" width="100%" height="100%" /><g class="links"><use href="#t7697"/></g></g></svg><svg x="911" y="1913" height="9%" width="9%" viewBox="0 0 330 330"><g><a xlink:href="https://nftpuzzle.license-token.com/" class="links"><title>See the most innovative NFT based token software licensing project</title><path fill="#E4CF37" id="more" d="M165,0C74.019,0,0,74.019,0,165s74.019,165,165,165s165-74.019,165-165S255.981,0,165,0z M85,190 c-13.785,0-25-11.215-25-25s11.215-25,25-25s25,11.215,25,25S98.785,190,85,190z M165,190c-13.785,0-25-11.215-25-25 s11.215-25,25-25s25,11.215,25,25S178.785,190,165,190z M245,190c-13.785,0-25-11.215-25-25s11.215-25,25-25 c13.785,0,25,11.215,25,25S258.785,190,245,190z"></path></a></g></svg></svg></svg>