<svg version="1.1" xmlns="http://www.w3.org/2000/svg" xmlns:xlink="http://www.w3.org/1999/xlink" fill="transparent" x="0" y="0" width="350" height="350" preserveAspectRatio="xMinYMin slice"><style type="text/css">.links{fill:transparent;stroke: #E4CF37;}.links:hover{fill:#63D272; opacity:0.4;}</style><defs><g id="allt"><path id="t7698" d="M957,1888 L945,1888 C934,1888 951,1893 941,1892 C931,1892 942,1885 933,1886 L924,1888 924,1888 L924,1897 C924,1906 920,1896 920,1904 C920,1913 925,1899 924,1909 L924,1920 924,1920 L933,1920 C943,1920 933,1916 941,1916 C950,1916 935,1921 946,1920 L957,1920 957,1920 L957,1910 C958,1900 953,1913 953,1904 C954,1895 957,1906 957,1897 L957,1888"/></g><clipPath id="c" clipRule="evenodd" fill="transparent"><use href="#t7698"/></clipPath></defs><svg viewBox="919 1884 40 38" preserveAspectRatio="xMinYMin meet"><svg width="4380" height="2430"><g><image crossorigin="anonymous" x="0" y="0" href="https://nftpuzzle.license-token.com/assets/completepuzzle.svg" width="100%" height="100%" /><g class="links"><use href="#t7698"/></g></g></svg><svg x="944" y="1907" height="9%" width="9%" viewBox="0 0 330 330"><g><a xlink:href="https://nftpuzzle.license-token.com/" class="links"><title>See the most innovative NFT based token software licensing project</title><path fill="#E4CF37" id="more" d="M165,0C74.019,0,0,74.019,0,165s74.019,165,165,165s165-74.019,165-165S255.981,0,165,0z M85,190 c-13.785,0-25-11.215-25-25s11.215-25,25-25s25,11.215,25,25S98.785,190,85,190z M165,190c-13.785,0-25-11.215-25-25 s11.215-25,25-25s25,11.215,25,25S178.785,190,165,190z M245,190c-13.785,0-25-11.215-25-25s11.215-25,25-25 c13.785,0,25,11.215,25,25S258.785,190,245,190z"></path></a></g></svg></svg></svg>