<svg version="1.1" xmlns="http://www.w3.org/2000/svg" xmlns:xlink="http://www.w3.org/1999/xlink" fill="transparent" x="0" y="0" width="350" height="350" preserveAspectRatio="xMinYMin slice"><style type="text/css">.links{fill:transparent;stroke: #E4CF37;}.links:hover{fill:#63D272; opacity:0.4;}</style><defs><g id="allt"><path id="t7699" d="M990,1888 L980,1888 C970,1888 981,1883 971,1882 C962,1881 975,1891 966,1889 L957,1888 957,1888 L957,1897 C957,1906 954,1895 953,1904 C953,1913 958,1900 957,1910 L957,1920 957,1920 L966,1920 C976,1920 964,1917 973,1916 C983,1916 969,1921 979,1920 L990,1920 990,1920 L990,1910 C990,1900 995,1912 995,1904 C995,1897 988,1906 989,1897 L990,1888"/></g><clipPath id="c" clipRule="evenodd" fill="transparent"><use href="#t7699"/></clipPath></defs><svg viewBox="952 1880 44 42" preserveAspectRatio="xMinYMin meet"><svg width="4380" height="2430"><g><image crossorigin="anonymous" x="0" y="0" href="https://nftpuzzle.license-token.com/assets/completepuzzle.svg" width="100%" height="100%" /><g class="links"><use href="#t7699"/></g></g></svg><svg x="981" y="1907" height="9%" width="9%" viewBox="0 0 330 330"><g><a xlink:href="https://nftpuzzle.license-token.com/" class="links"><title>See the most innovative NFT based token software licensing project</title><path fill="#E4CF37" id="more" d="M165,0C74.019,0,0,74.019,0,165s74.019,165,165,165s165-74.019,165-165S255.981,0,165,0z M85,190 c-13.785,0-25-11.215-25-25s11.215-25,25-25s25,11.215,25,25S98.785,190,85,190z M165,190c-13.785,0-25-11.215-25-25 s11.215-25,25-25s25,11.215,25,25S178.785,190,165,190z M245,190c-13.785,0-25-11.215-25-25s11.215-25,25-25 c13.785,0,25,11.215,25,25S258.785,190,245,190z"></path></a></g></svg></svg></svg>