<svg version="1.1" xmlns="http://www.w3.org/2000/svg" xmlns:xlink="http://www.w3.org/1999/xlink" fill="transparent" x="0" y="0" width="350" height="350" preserveAspectRatio="xMinYMin slice"><style type="text/css">.links{fill:transparent;stroke: #E4CF37;}.links:hover{fill:#63D272; opacity:0.4;}</style><defs><g id="allt"><path id="t770" d="M3993,160 L3982,160 C3971,160 3985,154 3976,152 C3968,151 3979,162 3969,161 L3960,160 3960,160 L3960,170 C3961,180 3955,167 3956,175 C3957,184 3960,171 3960,181 L3960,192 3960,192 L3970,192 C3981,193 3967,187 3976,188 C3985,189 3971,192 3982,192 L3993,192 3993,192 L3994,181 C3996,171 3985,184 3983,174 C3981,165 3993,178 3993,169 L3993,160"/></g><clipPath id="c" clipRule="evenodd" fill="transparent"><use href="#t770"/></clipPath></defs><svg viewBox="3954 150 43 44" preserveAspectRatio="xMinYMin meet"><svg width="4380" height="2430"><g><image crossorigin="anonymous" x="0" y="0" href="https://nftpuzzle.license-token.com/assets/completepuzzle.svg" width="100%" height="100%" /><g class="links"><use href="#t770"/></g></g></svg><svg x="3982" y="179" height="9%" width="9%" viewBox="0 0 330 330"><g><a xlink:href="https://nftpuzzle.license-token.com/" class="links"><title>See the most innovative NFT based token software licensing project</title><path fill="#E4CF37" id="more" d="M165,0C74.019,0,0,74.019,0,165s74.019,165,165,165s165-74.019,165-165S255.981,0,165,0z M85,190 c-13.785,0-25-11.215-25-25s11.215-25,25-25s25,11.215,25,25S98.785,190,85,190z M165,190c-13.785,0-25-11.215-25-25 s11.215-25,25-25s25,11.215,25,25S178.785,190,165,190z M245,190c-13.785,0-25-11.215-25-25s11.215-25,25-25 c13.785,0,25,11.215,25,25S258.785,190,245,190z"></path></a></g></svg></svg></svg>