<svg version="1.1" xmlns="http://www.w3.org/2000/svg" xmlns:xlink="http://www.w3.org/1999/xlink" fill="transparent" x="0" y="0" width="350" height="350" preserveAspectRatio="xMinYMin slice"><style type="text/css">.links{fill:transparent;stroke: #E4CF37;}.links:hover{fill:#63D272; opacity:0.4;}</style><defs><g id="allt"><path id="t7706" d="M1221,1888 L1211,1889 C1201,1890 1213,1882 1203,1883 C1193,1885 1209,1888 1198,1888 L1188,1888 1188,1888 L1188,1897 C1188,1906 1190,1893 1190,1902 C1190,1912 1188,1899 1188,1909 L1188,1920 1188,1920 L1197,1920 C1206,1920 1193,1922 1203,1922 C1213,1922 1199,1920 1210,1920 L1221,1920 1221,1920 L1221,1910 C1221,1901 1216,1912 1216,1903 C1217,1895 1221,1906 1221,1897 L1221,1888"/></g><clipPath id="c" clipRule="evenodd" fill="transparent"><use href="#t7706"/></clipPath></defs><svg viewBox="1187 1881 35 42" preserveAspectRatio="xMinYMin meet"><svg width="4380" height="2430"><g><image crossorigin="anonymous" x="0" y="0" href="https://nftpuzzle.license-token.com/assets/completepuzzle.svg" width="100%" height="100%" /><g class="links"><use href="#t7706"/></g></g></svg><svg x="1207" y="1908" height="9%" width="9%" viewBox="0 0 330 330"><g><a xlink:href="https://nftpuzzle.license-token.com/" class="links"><title>See the most innovative NFT based token software licensing project</title><path fill="#E4CF37" id="more" d="M165,0C74.019,0,0,74.019,0,165s74.019,165,165,165s165-74.019,165-165S255.981,0,165,0z M85,190 c-13.785,0-25-11.215-25-25s11.215-25,25-25s25,11.215,25,25S98.785,190,85,190z M165,190c-13.785,0-25-11.215-25-25 s11.215-25,25-25s25,11.215,25,25S178.785,190,165,190z M245,190c-13.785,0-25-11.215-25-25s11.215-25,25-25 c13.785,0,25,11.215,25,25S258.785,190,245,190z"></path></a></g></svg></svg></svg>