<svg version="1.1" xmlns="http://www.w3.org/2000/svg" xmlns:xlink="http://www.w3.org/1999/xlink" fill="transparent" x="0" y="0" width="350" height="350" preserveAspectRatio="xMinYMin slice"><style type="text/css">.links{fill:transparent;stroke: #E4CF37;}.links:hover{fill:#63D272; opacity:0.4;}</style><defs><g id="allt"><path id="t7712" d="M1419,1888 L1408,1888 C1398,1888 1410,1881 1402,1880 C1395,1880 1407,1890 1396,1889 L1386,1888 1386,1888 L1387,1898 C1388,1909 1382,1896 1381,1904 C1381,1913 1387,1899 1386,1909 L1386,1920 1386,1920 L1397,1921 C1408,1922 1394,1916 1403,1915 C1412,1915 1398,1921 1408,1920 L1419,1920 1419,1920 L1419,1909 C1419,1899 1425,1910 1424,1902 C1424,1895 1419,1909 1419,1898 L1419,1888"/></g><clipPath id="c" clipRule="evenodd" fill="transparent"><use href="#t7712"/></clipPath></defs><svg viewBox="1380 1879 46 44" preserveAspectRatio="xMinYMin meet"><svg width="4380" height="2430"><g><image crossorigin="anonymous" x="0" y="0" href="https://nftpuzzle.license-token.com/assets/completepuzzle.svg" width="100%" height="100%" /><g class="links"><use href="#t7712"/></g></g></svg><svg x="1411" y="1908" height="9%" width="9%" viewBox="0 0 330 330"><g><a xlink:href="https://nftpuzzle.license-token.com/" class="links"><title>See the most innovative NFT based token software licensing project</title><path fill="#E4CF37" id="more" d="M165,0C74.019,0,0,74.019,0,165s74.019,165,165,165s165-74.019,165-165S255.981,0,165,0z M85,190 c-13.785,0-25-11.215-25-25s11.215-25,25-25s25,11.215,25,25S98.785,190,85,190z M165,190c-13.785,0-25-11.215-25-25 s11.215-25,25-25s25,11.215,25,25S178.785,190,165,190z M245,190c-13.785,0-25-11.215-25-25s11.215-25,25-25 c13.785,0,25,11.215,25,25S258.785,190,245,190z"></path></a></g></svg></svg></svg>