<svg version="1.1" xmlns="http://www.w3.org/2000/svg" xmlns:xlink="http://www.w3.org/1999/xlink" fill="transparent" x="0" y="0" width="350" height="350" preserveAspectRatio="xMinYMin slice"><style type="text/css">.links{fill:transparent;stroke: #E4CF37;}.links:hover{fill:#63D272; opacity:0.4;}</style><defs><g id="allt"><path id="t7713" d="M1452,1888 L1441,1888 C1430,1888 1442,1896 1433,1896 C1425,1896 1439,1885 1429,1886 L1419,1888 1419,1888 L1419,1898 C1419,1909 1424,1895 1424,1902 C1425,1910 1419,1899 1419,1909 L1419,1920 1419,1920 L1430,1920 C1441,1920 1426,1925 1434,1925 C1442,1926 1430,1920 1441,1920 L1452,1920 1452,1920 L1452,1909 C1452,1898 1457,1914 1455,1903 C1454,1893 1451,1905 1451,1896 L1452,1888"/></g><clipPath id="c" clipRule="evenodd" fill="transparent"><use href="#t7713"/></clipPath></defs><svg viewBox="1418 1884 40 43" preserveAspectRatio="xMinYMin meet"><svg width="4380" height="2430"><g><image crossorigin="anonymous" x="0" y="0" href="https://nftpuzzle.license-token.com/assets/completepuzzle.svg" width="100%" height="100%" /><g class="links"><use href="#t7713"/></g></g></svg><svg x="1443" y="1912" height="9%" width="9%" viewBox="0 0 330 330"><g><a xlink:href="https://nftpuzzle.license-token.com/" class="links"><title>See the most innovative NFT based token software licensing project</title><path fill="#E4CF37" id="more" d="M165,0C74.019,0,0,74.019,0,165s74.019,165,165,165s165-74.019,165-165S255.981,0,165,0z M85,190 c-13.785,0-25-11.215-25-25s11.215-25,25-25s25,11.215,25,25S98.785,190,85,190z M165,190c-13.785,0-25-11.215-25-25 s11.215-25,25-25s25,11.215,25,25S178.785,190,165,190z M245,190c-13.785,0-25-11.215-25-25s11.215-25,25-25 c13.785,0,25,11.215,25,25S258.785,190,245,190z"></path></a></g></svg></svg></svg>