<svg version="1.1" xmlns="http://www.w3.org/2000/svg" xmlns:xlink="http://www.w3.org/1999/xlink" fill="transparent" x="0" y="0" width="350" height="350" preserveAspectRatio="xMinYMin slice"><style type="text/css">.links{fill:transparent;stroke: #E4CF37;}.links:hover{fill:#63D272; opacity:0.4;}</style><defs><g id="allt"><path id="t7714" d="M1485,1888 L1474,1889 C1464,1890 1479,1885 1470,1885 C1461,1885 1471,1888 1461,1888 L1452,1888 1452,1888 L1451,1896 C1451,1905 1454,1893 1455,1903 C1457,1914 1452,1898 1452,1909 L1452,1920 1452,1920 L1461,1919 C1470,1919 1457,1922 1468,1923 C1479,1925 1463,1920 1474,1920 L1485,1920 1485,1920 L1484,1909 C1484,1899 1487,1914 1487,1904 C1487,1895 1485,1909 1485,1898 L1485,1888"/></g><clipPath id="c" clipRule="evenodd" fill="transparent"><use href="#t7714"/></clipPath></defs><svg viewBox="1450 1884 38 42" preserveAspectRatio="xMinYMin meet"><svg width="4380" height="2430"><g><image crossorigin="anonymous" x="0" y="0" href="https://nftpuzzle.license-token.com/assets/completepuzzle.svg" width="100%" height="100%" /><g class="links"><use href="#t7714"/></g></g></svg><svg x="1473" y="1911" height="9%" width="9%" viewBox="0 0 330 330"><g><a xlink:href="https://nftpuzzle.license-token.com/" class="links"><title>See the most innovative NFT based token software licensing project</title><path fill="#E4CF37" id="more" d="M165,0C74.019,0,0,74.019,0,165s74.019,165,165,165s165-74.019,165-165S255.981,0,165,0z M85,190 c-13.785,0-25-11.215-25-25s11.215-25,25-25s25,11.215,25,25S98.785,190,85,190z M165,190c-13.785,0-25-11.215-25-25 s11.215-25,25-25s25,11.215,25,25S178.785,190,165,190z M245,190c-13.785,0-25-11.215-25-25s11.215-25,25-25 c13.785,0,25,11.215,25,25S258.785,190,245,190z"></path></a></g></svg></svg></svg>