<svg version="1.1" xmlns="http://www.w3.org/2000/svg" xmlns:xlink="http://www.w3.org/1999/xlink" fill="transparent" x="0" y="0" width="350" height="350" preserveAspectRatio="xMinYMin slice"><style type="text/css">.links{fill:transparent;stroke: #E4CF37;}.links:hover{fill:#63D272; opacity:0.4;}</style><defs><g id="allt"><path id="t7719" d="M1650,1888 L1639,1888 C1629,1888 1643,1896 1634,1894 C1625,1893 1636,1887 1626,1887 L1617,1888 1617,1888 L1617,1898 C1617,1908 1609,1897 1610,1905 C1612,1913 1617,1898 1617,1909 L1617,1920 1617,1920 L1627,1920 C1637,1920 1626,1912 1634,1913 C1643,1915 1627,1920 1638,1920 L1650,1920 1650,1920 L1648,1911 C1646,1902 1658,1912 1659,1902 C1660,1893 1645,1905 1647,1896 L1650,1888"/></g><clipPath id="c" clipRule="evenodd" fill="transparent"><use href="#t7719"/></clipPath></defs><svg viewBox="1608 1886 53 35" preserveAspectRatio="xMinYMin meet"><svg width="4380" height="2430"><g><image crossorigin="anonymous" x="0" y="0" href="https://nftpuzzle.license-token.com/assets/completepuzzle.svg" width="100%" height="100%" /><g class="links"><use href="#t7719"/></g></g></svg><svg x="1646" y="1906" height="9%" width="9%" viewBox="0 0 330 330"><g><a xlink:href="https://nftpuzzle.license-token.com/" class="links"><title>See the most innovative NFT based token software licensing project</title><path fill="#E4CF37" id="more" d="M165,0C74.019,0,0,74.019,0,165s74.019,165,165,165s165-74.019,165-165S255.981,0,165,0z M85,190 c-13.785,0-25-11.215-25-25s11.215-25,25-25s25,11.215,25,25S98.785,190,85,190z M165,190c-13.785,0-25-11.215-25-25 s11.215-25,25-25s25,11.215,25,25S178.785,190,165,190z M245,190c-13.785,0-25-11.215-25-25s11.215-25,25-25 c13.785,0,25,11.215,25,25S258.785,190,245,190z"></path></a></g></svg></svg></svg>