<svg version="1.1" xmlns="http://www.w3.org/2000/svg" xmlns:xlink="http://www.w3.org/1999/xlink" fill="transparent" x="0" y="0" width="350" height="350" preserveAspectRatio="xMinYMin slice"><style type="text/css">.links{fill:transparent;stroke: #E4CF37;}.links:hover{fill:#63D272; opacity:0.4;}</style><defs><g id="allt"><path id="t7722" d="M1749,1888 L1739,1889 C1729,1890 1741,1882 1730,1883 C1720,1884 1736,1889 1726,1888 L1716,1888 1716,1888 L1716,1898 C1716,1908 1714,1894 1713,1903 C1712,1912 1717,1899 1716,1909 L1716,1920 1716,1920 L1726,1920 C1736,1920 1722,1918 1731,1917 C1740,1916 1727,1921 1738,1920 L1749,1920 1749,1920 L1749,1909 C1750,1899 1744,1913 1744,1903 C1744,1893 1749,1906 1749,1897 L1749,1888"/></g><clipPath id="c" clipRule="evenodd" fill="transparent"><use href="#t7722"/></clipPath></defs><svg viewBox="1711 1881 40 41" preserveAspectRatio="xMinYMin meet"><svg width="4380" height="2430"><g><image crossorigin="anonymous" x="0" y="0" href="https://nftpuzzle.license-token.com/assets/completepuzzle.svg" width="100%" height="100%" /><g class="links"><use href="#t7722"/></g></g></svg><svg x="1736" y="1907" height="9%" width="9%" viewBox="0 0 330 330"><g><a xlink:href="https://nftpuzzle.license-token.com/" class="links"><title>See the most innovative NFT based token software licensing project</title><path fill="#E4CF37" id="more" d="M165,0C74.019,0,0,74.019,0,165s74.019,165,165,165s165-74.019,165-165S255.981,0,165,0z M85,190 c-13.785,0-25-11.215-25-25s11.215-25,25-25s25,11.215,25,25S98.785,190,85,190z M165,190c-13.785,0-25-11.215-25-25 s11.215-25,25-25s25,11.215,25,25S178.785,190,165,190z M245,190c-13.785,0-25-11.215-25-25s11.215-25,25-25 c13.785,0,25,11.215,25,25S258.785,190,245,190z"></path></a></g></svg></svg></svg>