<svg version="1.1" xmlns="http://www.w3.org/2000/svg" xmlns:xlink="http://www.w3.org/1999/xlink" fill="transparent" x="0" y="0" width="350" height="350" preserveAspectRatio="xMinYMin slice"><style type="text/css">.links{fill:transparent;stroke: #E4CF37;}.links:hover{fill:#63D272; opacity:0.4;}</style><defs><g id="allt"><path id="t7725" d="M1848,1888 L1837,1889 C1826,1890 1841,1882 1830,1883 C1819,1884 1834,1889 1824,1888 L1815,1888 1815,1888 L1815,1896 C1815,1905 1809,1893 1807,1902 C1806,1912 1817,1900 1816,1910 L1815,1920 1815,1920 L1824,1920 C1833,1920 1820,1914 1830,1912 C1840,1911 1827,1922 1837,1921 L1848,1920 1848,1920 L1847,1909 C1847,1898 1856,1913 1855,1904 C1854,1895 1847,1906 1847,1897 L1848,1888"/></g><clipPath id="c" clipRule="evenodd" fill="transparent"><use href="#t7725"/></clipPath></defs><svg viewBox="1805 1881 52 42" preserveAspectRatio="xMinYMin meet"><svg width="4380" height="2430"><g><image crossorigin="anonymous" x="0" y="0" href="https://nftpuzzle.license-token.com/assets/completepuzzle.svg" width="100%" height="100%" /><g class="links"><use href="#t7725"/></g></g></svg><svg x="1842" y="1908" height="9%" width="9%" viewBox="0 0 330 330"><g><a xlink:href="https://nftpuzzle.license-token.com/" class="links"><title>See the most innovative NFT based token software licensing project</title><path fill="#E4CF37" id="more" d="M165,0C74.019,0,0,74.019,0,165s74.019,165,165,165s165-74.019,165-165S255.981,0,165,0z M85,190 c-13.785,0-25-11.215-25-25s11.215-25,25-25s25,11.215,25,25S98.785,190,85,190z M165,190c-13.785,0-25-11.215-25-25 s11.215-25,25-25s25,11.215,25,25S178.785,190,165,190z M245,190c-13.785,0-25-11.215-25-25s11.215-25,25-25 c13.785,0,25,11.215,25,25S258.785,190,245,190z"></path></a></g></svg></svg></svg>