<svg version="1.1" xmlns="http://www.w3.org/2000/svg" xmlns:xlink="http://www.w3.org/1999/xlink" fill="transparent" x="0" y="0" width="350" height="350" preserveAspectRatio="xMinYMin slice"><style type="text/css">.links{fill:transparent;stroke: #E4CF37;}.links:hover{fill:#63D272; opacity:0.4;}</style><defs><g id="allt"><path id="t7730" d="M2013,1888 L2001,1885 C1990,1883 2006,1898 1997,1896 C1988,1895 1999,1886 1989,1887 L1980,1888 1980,1888 L1980,1898 C1980,1909 1976,1893 1976,1903 C1977,1914 1981,1899 1980,1909 L1980,1920 1980,1920 L1990,1920 C2001,1920 1985,1916 1996,1916 C2007,1917 1992,1921 2002,1920 L2013,1920 2013,1920 L2013,1910 C2013,1901 2003,1914 2003,1905 C2004,1896 2013,1908 2013,1898 L2013,1888"/></g><clipPath id="c" clipRule="evenodd" fill="transparent"><use href="#t7730"/></clipPath></defs><svg viewBox="1975 1882 39 40" preserveAspectRatio="xMinYMin meet"><svg width="4380" height="2430"><g><image crossorigin="anonymous" x="0" y="0" href="https://nftpuzzle.license-token.com/assets/completepuzzle.svg" width="100%" height="100%" /><g class="links"><use href="#t7730"/></g></g></svg><svg x="1999" y="1907" height="9%" width="9%" viewBox="0 0 330 330"><g><a xlink:href="https://nftpuzzle.license-token.com/" class="links"><title>See the most innovative NFT based token software licensing project</title><path fill="#E4CF37" id="more" d="M165,0C74.019,0,0,74.019,0,165s74.019,165,165,165s165-74.019,165-165S255.981,0,165,0z M85,190 c-13.785,0-25-11.215-25-25s11.215-25,25-25s25,11.215,25,25S98.785,190,85,190z M165,190c-13.785,0-25-11.215-25-25 s11.215-25,25-25s25,11.215,25,25S178.785,190,165,190z M245,190c-13.785,0-25-11.215-25-25s11.215-25,25-25 c13.785,0,25,11.215,25,25S258.785,190,245,190z"></path></a></g></svg></svg></svg>