<svg version="1.1" xmlns="http://www.w3.org/2000/svg" xmlns:xlink="http://www.w3.org/1999/xlink" fill="transparent" x="0" y="0" width="350" height="350" preserveAspectRatio="xMinYMin slice"><style type="text/css">.links{fill:transparent;stroke: #E4CF37;}.links:hover{fill:#63D272; opacity:0.4;}</style><defs><g id="allt"><path id="t7733" d="M2112,1888 L2100,1889 C2089,1891 2103,1881 2093,1881 C2084,1882 2099,1891 2089,1889 L2079,1888 2079,1888 L2077,1897 C2076,1907 2087,1895 2085,1904 C2083,1913 2078,1898 2078,1909 L2079,1920 2079,1920 L2089,1918 C2099,1917 2086,1928 2095,1926 C2105,1924 2090,1919 2101,1919 L2112,1920 2112,1920 L2111,1910 C2110,1901 2119,1911 2118,1903 C2117,1895 2110,1907 2111,1897 L2112,1888"/></g><clipPath id="c" clipRule="evenodd" fill="transparent"><use href="#t7733"/></clipPath></defs><svg viewBox="2075 1880 45 49" preserveAspectRatio="xMinYMin meet"><svg width="4380" height="2430"><g><image crossorigin="anonymous" x="0" y="0" href="https://nftpuzzle.license-token.com/assets/completepuzzle.svg" width="100%" height="100%" /><g class="links"><use href="#t7733"/></g></g></svg><svg x="2105" y="1914" height="9%" width="9%" viewBox="0 0 330 330"><g><a xlink:href="https://nftpuzzle.license-token.com/" class="links"><title>See the most innovative NFT based token software licensing project</title><path fill="#E4CF37" id="more" d="M165,0C74.019,0,0,74.019,0,165s74.019,165,165,165s165-74.019,165-165S255.981,0,165,0z M85,190 c-13.785,0-25-11.215-25-25s11.215-25,25-25s25,11.215,25,25S98.785,190,85,190z M165,190c-13.785,0-25-11.215-25-25 s11.215-25,25-25s25,11.215,25,25S178.785,190,165,190z M245,190c-13.785,0-25-11.215-25-25s11.215-25,25-25 c13.785,0,25,11.215,25,25S258.785,190,245,190z"></path></a></g></svg></svg></svg>