<svg version="1.1" xmlns="http://www.w3.org/2000/svg" xmlns:xlink="http://www.w3.org/1999/xlink" fill="transparent" x="0" y="0" width="350" height="350" preserveAspectRatio="xMinYMin slice"><style type="text/css">.links{fill:transparent;stroke: #E4CF37;}.links:hover{fill:#63D272; opacity:0.4;}</style><defs><g id="allt"><path id="t7739" d="M2310,1888 L2300,1888 C2290,1889 2302,1897 2293,1898 C2285,1899 2296,1888 2286,1888 L2277,1888 2277,1888 L2277,1897 C2277,1907 2270,1895 2271,1904 C2272,1913 2278,1901 2277,1910 L2277,1920 2277,1920 L2287,1920 C2297,1920 2284,1913 2293,1914 C2303,1915 2291,1921 2300,1920 L2310,1920 2310,1920 L2310,1910 C2311,1901 2304,1915 2303,1904 C2303,1893 2310,1907 2310,1897 L2310,1888"/></g><clipPath id="c" clipRule="evenodd" fill="transparent"><use href="#t7739"/></clipPath></defs><svg viewBox="2269 1887 43 35" preserveAspectRatio="xMinYMin meet"><svg width="4380" height="2430"><g><image crossorigin="anonymous" x="0" y="0" href="https://nftpuzzle.license-token.com/assets/completepuzzle.svg" width="100%" height="100%" /><g class="links"><use href="#t7739"/></g></g></svg><svg x="2297" y="1907" height="9%" width="9%" viewBox="0 0 330 330"><g><a xlink:href="https://nftpuzzle.license-token.com/" class="links"><title>See the most innovative NFT based token software licensing project</title><path fill="#E4CF37" id="more" d="M165,0C74.019,0,0,74.019,0,165s74.019,165,165,165s165-74.019,165-165S255.981,0,165,0z M85,190 c-13.785,0-25-11.215-25-25s11.215-25,25-25s25,11.215,25,25S98.785,190,85,190z M165,190c-13.785,0-25-11.215-25-25 s11.215-25,25-25s25,11.215,25,25S178.785,190,165,190z M245,190c-13.785,0-25-11.215-25-25s11.215-25,25-25 c13.785,0,25,11.215,25,25S258.785,190,245,190z"></path></a></g></svg></svg></svg>