<svg version="1.1" xmlns="http://www.w3.org/2000/svg" xmlns:xlink="http://www.w3.org/1999/xlink" fill="transparent" x="0" y="0" width="350" height="350" preserveAspectRatio="xMinYMin slice"><style type="text/css">.links{fill:transparent;stroke: #E4CF37;}.links:hover{fill:#63D272; opacity:0.4;}</style><defs><g id="allt"><path id="t7741" d="M2376,1888 L2365,1886 C2355,1885 2367,1897 2357,1895 C2347,1893 2362,1887 2352,1887 L2343,1888 2343,1888 L2344,1897 C2345,1906 2333,1895 2334,1904 C2335,1913 2343,1898 2343,1909 L2343,1920 2343,1920 L2352,1921 C2361,1922 2350,1910 2359,1911 C2369,1912 2354,1920 2365,1920 L2376,1920 2376,1920 L2376,1910 C2377,1901 2369,1911 2367,1903 C2366,1895 2376,1907 2376,1897 L2376,1888"/></g><clipPath id="c" clipRule="evenodd" fill="transparent"><use href="#t7741"/></clipPath></defs><svg viewBox="2332 1884 46 39" preserveAspectRatio="xMinYMin meet"><svg width="4380" height="2430"><g><image crossorigin="anonymous" x="0" y="0" href="https://nftpuzzle.license-token.com/assets/completepuzzle.svg" width="100%" height="100%" /><g class="links"><use href="#t7741"/></g></g></svg><svg x="2363" y="1908" height="9%" width="9%" viewBox="0 0 330 330"><g><a xlink:href="https://nftpuzzle.license-token.com/" class="links"><title>See the most innovative NFT based token software licensing project</title><path fill="#E4CF37" id="more" d="M165,0C74.019,0,0,74.019,0,165s74.019,165,165,165s165-74.019,165-165S255.981,0,165,0z M85,190 c-13.785,0-25-11.215-25-25s11.215-25,25-25s25,11.215,25,25S98.785,190,85,190z M165,190c-13.785,0-25-11.215-25-25 s11.215-25,25-25s25,11.215,25,25S178.785,190,165,190z M245,190c-13.785,0-25-11.215-25-25s11.215-25,25-25 c13.785,0,25,11.215,25,25S258.785,190,245,190z"></path></a></g></svg></svg></svg>