<svg version="1.1" xmlns="http://www.w3.org/2000/svg" xmlns:xlink="http://www.w3.org/1999/xlink" fill="transparent" x="0" y="0" width="350" height="350" preserveAspectRatio="xMinYMin slice"><style type="text/css">.links{fill:transparent;stroke: #E4CF37;}.links:hover{fill:#63D272; opacity:0.4;}</style><defs><g id="allt"><path id="t7748" d="M2607,1888 L2595,1888 C2584,1888 2600,1882 2589,1882 C2578,1882 2593,1888 2583,1888 L2574,1888 2574,1888 L2574,1898 C2574,1908 2566,1893 2565,1902 C2564,1912 2578,1898 2576,1909 L2574,1920 2574,1920 L2584,1920 C2594,1920 2579,1912 2589,1911 C2599,1910 2585,1924 2596,1922 L2607,1920 2607,1920 L2607,1910 C2607,1901 2609,1911 2609,1902 C2609,1894 2607,1905 2607,1896 L2607,1888"/></g><clipPath id="c" clipRule="evenodd" fill="transparent"><use href="#t7748"/></clipPath></defs><svg viewBox="2563 1881 47 44" preserveAspectRatio="xMinYMin meet"><svg width="4380" height="2430"><g><image crossorigin="anonymous" x="0" y="0" href="https://nftpuzzle.license-token.com/assets/completepuzzle.svg" width="100%" height="100%" /><g class="links"><use href="#t7748"/></g></g></svg><svg x="2595" y="1910" height="9%" width="9%" viewBox="0 0 330 330"><g><a xlink:href="https://nftpuzzle.license-token.com/" class="links"><title>See the most innovative NFT based token software licensing project</title><path fill="#E4CF37" id="more" d="M165,0C74.019,0,0,74.019,0,165s74.019,165,165,165s165-74.019,165-165S255.981,0,165,0z M85,190 c-13.785,0-25-11.215-25-25s11.215-25,25-25s25,11.215,25,25S98.785,190,85,190z M165,190c-13.785,0-25-11.215-25-25 s11.215-25,25-25s25,11.215,25,25S178.785,190,165,190z M245,190c-13.785,0-25-11.215-25-25s11.215-25,25-25 c13.785,0,25,11.215,25,25S258.785,190,245,190z"></path></a></g></svg></svg></svg>