<svg version="1.1" xmlns="http://www.w3.org/2000/svg" xmlns:xlink="http://www.w3.org/1999/xlink" fill="transparent" x="0" y="0" width="350" height="350" preserveAspectRatio="xMinYMin slice"><style type="text/css">.links{fill:transparent;stroke: #E4CF37;}.links:hover{fill:#63D272; opacity:0.4;}</style><defs><g id="allt"><path id="t7754" d="M2805,1888 L2795,1889 C2785,1891 2797,1881 2787,1882 C2777,1884 2790,1888 2781,1888 L2772,1888 2772,1888 L2772,1896 C2772,1905 2765,1894 2764,1903 C2763,1913 2772,1900 2772,1910 L2772,1920 2772,1920 L2781,1920 C2790,1920 2778,1913 2788,1912 C2798,1911 2784,1920 2794,1920 L2805,1920 2805,1920 L2804,1910 C2803,1900 2809,1911 2809,1903 C2810,1895 2805,1907 2805,1897 L2805,1888"/></g><clipPath id="c" clipRule="evenodd" fill="transparent"><use href="#t7754"/></clipPath></defs><svg viewBox="2762 1880 49 41" preserveAspectRatio="xMinYMin meet"><svg width="4380" height="2430"><g><image crossorigin="anonymous" x="0" y="0" href="https://nftpuzzle.license-token.com/assets/completepuzzle.svg" width="100%" height="100%" /><g class="links"><use href="#t7754"/></g></g></svg><svg x="2796" y="1906" height="9%" width="9%" viewBox="0 0 330 330"><g><a xlink:href="https://nftpuzzle.license-token.com/" class="links"><title>See the most innovative NFT based token software licensing project</title><path fill="#E4CF37" id="more" d="M165,0C74.019,0,0,74.019,0,165s74.019,165,165,165s165-74.019,165-165S255.981,0,165,0z M85,190 c-13.785,0-25-11.215-25-25s11.215-25,25-25s25,11.215,25,25S98.785,190,85,190z M165,190c-13.785,0-25-11.215-25-25 s11.215-25,25-25s25,11.215,25,25S178.785,190,165,190z M245,190c-13.785,0-25-11.215-25-25s11.215-25,25-25 c13.785,0,25,11.215,25,25S258.785,190,245,190z"></path></a></g></svg></svg></svg>