<svg version="1.1" xmlns="http://www.w3.org/2000/svg" xmlns:xlink="http://www.w3.org/1999/xlink" fill="transparent" x="0" y="0" width="350" height="350" preserveAspectRatio="xMinYMin slice"><style type="text/css">.links{fill:transparent;stroke: #E4CF37;}.links:hover{fill:#63D272; opacity:0.4;}</style><defs><g id="allt"><path id="t7757" d="M2904,1888 L2894,1888 C2884,1888 2897,1883 2887,1881 C2877,1879 2892,1891 2881,1889 L2871,1888 2871,1888 L2872,1897 C2873,1906 2861,1892 2861,1901 C2862,1911 2871,1899 2871,1909 L2871,1920 2871,1920 L2880,1921 C2890,1922 2875,1910 2884,1911 C2894,1912 2883,1920 2893,1920 L2904,1920 2904,1920 L2904,1909 C2904,1899 2899,1913 2900,1903 C2901,1894 2904,1907 2904,1897 L2904,1888"/></g><clipPath id="c" clipRule="evenodd" fill="transparent"><use href="#t7757"/></clipPath></defs><svg viewBox="2860 1878 45 45" preserveAspectRatio="xMinYMin meet"><svg width="4380" height="2430"><g><image crossorigin="anonymous" x="0" y="0" href="https://nftpuzzle.license-token.com/assets/completepuzzle.svg" width="100%" height="100%" /><g class="links"><use href="#t7757"/></g></g></svg><svg x="2890" y="1908" height="9%" width="9%" viewBox="0 0 330 330"><g><a xlink:href="https://nftpuzzle.license-token.com/" class="links"><title>See the most innovative NFT based token software licensing project</title><path fill="#E4CF37" id="more" d="M165,0C74.019,0,0,74.019,0,165s74.019,165,165,165s165-74.019,165-165S255.981,0,165,0z M85,190 c-13.785,0-25-11.215-25-25s11.215-25,25-25s25,11.215,25,25S98.785,190,85,190z M165,190c-13.785,0-25-11.215-25-25 s11.215-25,25-25s25,11.215,25,25S178.785,190,165,190z M245,190c-13.785,0-25-11.215-25-25s11.215-25,25-25 c13.785,0,25,11.215,25,25S258.785,190,245,190z"></path></a></g></svg></svg></svg>