<svg version="1.1" xmlns="http://www.w3.org/2000/svg" xmlns:xlink="http://www.w3.org/1999/xlink" fill="transparent" x="0" y="0" width="350" height="350" preserveAspectRatio="xMinYMin slice"><style type="text/css">.links{fill:transparent;stroke: #E4CF37;}.links:hover{fill:#63D272; opacity:0.4;}</style><defs><g id="allt"><path id="t7758" d="M2937,1888 L2927,1889 C2917,1890 2927,1884 2918,1884 C2910,1884 2924,1889 2914,1888 L2904,1888 2904,1888 L2904,1897 C2904,1907 2901,1894 2900,1903 C2899,1913 2904,1899 2904,1909 L2904,1920 2904,1920 L2913,1920 C2923,1920 2910,1917 2920,1916 C2930,1915 2916,1920 2926,1920 L2937,1920 2937,1920 L2938,1910 C2939,1901 2929,1911 2928,1904 C2928,1897 2939,1908 2938,1898 L2937,1888"/></g><clipPath id="c" clipRule="evenodd" fill="transparent"><use href="#t7758"/></clipPath></defs><svg viewBox="2898 1883 42 38" preserveAspectRatio="xMinYMin meet"><svg width="4380" height="2430"><g><image crossorigin="anonymous" x="0" y="0" href="https://nftpuzzle.license-token.com/assets/completepuzzle.svg" width="100%" height="100%" /><g class="links"><use href="#t7758"/></g></g></svg><svg x="2925" y="1906" height="9%" width="9%" viewBox="0 0 330 330"><g><a xlink:href="https://nftpuzzle.license-token.com/" class="links"><title>See the most innovative NFT based token software licensing project</title><path fill="#E4CF37" id="more" d="M165,0C74.019,0,0,74.019,0,165s74.019,165,165,165s165-74.019,165-165S255.981,0,165,0z M85,190 c-13.785,0-25-11.215-25-25s11.215-25,25-25s25,11.215,25,25S98.785,190,85,190z M165,190c-13.785,0-25-11.215-25-25 s11.215-25,25-25s25,11.215,25,25S178.785,190,165,190z M245,190c-13.785,0-25-11.215-25-25s11.215-25,25-25 c13.785,0,25,11.215,25,25S258.785,190,245,190z"></path></a></g></svg></svg></svg>