<svg version="1.1" xmlns="http://www.w3.org/2000/svg" xmlns:xlink="http://www.w3.org/1999/xlink" fill="transparent" x="0" y="0" width="350" height="350" preserveAspectRatio="xMinYMin slice"><style type="text/css">.links{fill:transparent;stroke: #E4CF37;}.links:hover{fill:#63D272; opacity:0.4;}</style><defs><g id="allt"><path id="t7770" d="M3333,1888 L3322,1887 C3311,1887 3325,1895 3316,1894 C3307,1893 3320,1888 3310,1888 L3300,1888 3300,1888 L3300,1898 C3300,1908 3294,1895 3291,1905 C3289,1915 3300,1899 3300,1909 L3300,1920 3300,1920 L3310,1920 C3321,1920 3307,1914 3317,1911 C3328,1909 3312,1920 3322,1920 L3333,1920 3333,1920 L3334,1911 C3336,1902 3327,1913 3326,1903 C3326,1894 3334,1906 3333,1897 L3333,1888"/></g><clipPath id="c" clipRule="evenodd" fill="transparent"><use href="#t7770"/></clipPath></defs><svg viewBox="3288 1886 49 35" preserveAspectRatio="xMinYMin meet"><svg width="4380" height="2430"><g><image crossorigin="anonymous" x="0" y="0" href="https://nftpuzzle.license-token.com/assets/completepuzzle.svg" width="100%" height="100%" /><g class="links"><use href="#t7770"/></g></g></svg><svg x="3322" y="1906" height="9%" width="9%" viewBox="0 0 330 330"><g><a xlink:href="https://nftpuzzle.license-token.com/" class="links"><title>See the most innovative NFT based token software licensing project</title><path fill="#E4CF37" id="more" d="M165,0C74.019,0,0,74.019,0,165s74.019,165,165,165s165-74.019,165-165S255.981,0,165,0z M85,190 c-13.785,0-25-11.215-25-25s11.215-25,25-25s25,11.215,25,25S98.785,190,85,190z M165,190c-13.785,0-25-11.215-25-25 s11.215-25,25-25s25,11.215,25,25S178.785,190,165,190z M245,190c-13.785,0-25-11.215-25-25s11.215-25,25-25 c13.785,0,25,11.215,25,25S258.785,190,245,190z"></path></a></g></svg></svg></svg>