<svg version="1.1" xmlns="http://www.w3.org/2000/svg" xmlns:xlink="http://www.w3.org/1999/xlink" fill="transparent" x="0" y="0" width="350" height="350" preserveAspectRatio="xMinYMin slice"><style type="text/css">.links{fill:transparent;stroke: #E4CF37;}.links:hover{fill:#63D272; opacity:0.4;}</style><defs><g id="allt"><path id="t7772" d="M3399,1888 L3389,1886 C3379,1885 3391,1893 3383,1895 C3375,1898 3384,1886 3375,1887 L3366,1888 3366,1888 L3367,1897 C3369,1906 3362,1893 3359,1902 C3357,1912 3366,1900 3366,1910 L3366,1920 3366,1920 L3375,1921 C3384,1923 3371,1916 3380,1914 C3390,1912 3379,1920 3389,1920 L3399,1920 3399,1920 L3401,1909 C3403,1898 3392,1910 3391,1902 C3391,1894 3402,1908 3400,1898 L3399,1888"/></g><clipPath id="c" clipRule="evenodd" fill="transparent"><use href="#t7772"/></clipPath></defs><svg viewBox="3356 1884 48 40" preserveAspectRatio="xMinYMin meet"><svg width="4380" height="2430"><g><image crossorigin="anonymous" x="0" y="0" href="https://nftpuzzle.license-token.com/assets/completepuzzle.svg" width="100%" height="100%" /><g class="links"><use href="#t7772"/></g></g></svg><svg x="3389" y="1909" height="9%" width="9%" viewBox="0 0 330 330"><g><a xlink:href="https://nftpuzzle.license-token.com/" class="links"><title>See the most innovative NFT based token software licensing project</title><path fill="#E4CF37" id="more" d="M165,0C74.019,0,0,74.019,0,165s74.019,165,165,165s165-74.019,165-165S255.981,0,165,0z M85,190 c-13.785,0-25-11.215-25-25s11.215-25,25-25s25,11.215,25,25S98.785,190,85,190z M165,190c-13.785,0-25-11.215-25-25 s11.215-25,25-25s25,11.215,25,25S178.785,190,165,190z M245,190c-13.785,0-25-11.215-25-25s11.215-25,25-25 c13.785,0,25,11.215,25,25S258.785,190,245,190z"></path></a></g></svg></svg></svg>