<svg version="1.1" xmlns="http://www.w3.org/2000/svg" xmlns:xlink="http://www.w3.org/1999/xlink" fill="transparent" x="0" y="0" width="350" height="350" preserveAspectRatio="xMinYMin slice"><style type="text/css">.links{fill:transparent;stroke: #E4CF37;}.links:hover{fill:#63D272; opacity:0.4;}</style><defs><g id="allt"><path id="t7781" d="M3696,1888 L3685,1888 C3675,1888 3688,1886 3679,1885 C3670,1884 3684,1889 3673,1888 L3663,1888 3663,1888 L3663,1897 C3664,1907 3661,1895 3661,1902 C3661,1910 3663,1898 3663,1909 L3663,1920 3663,1920 L3672,1920 C3682,1921 3670,1918 3678,1918 C3686,1918 3673,1920 3684,1920 L3696,1920 3696,1920 L3696,1909 C3696,1899 3690,1911 3690,1902 C3691,1893 3699,1906 3697,1897 L3696,1888"/></g><clipPath id="c" clipRule="evenodd" fill="transparent"><use href="#t7781"/></clipPath></defs><svg viewBox="3660 1883 40 39" preserveAspectRatio="xMinYMin meet"><svg width="4380" height="2430"><g><image crossorigin="anonymous" x="0" y="0" href="https://nftpuzzle.license-token.com/assets/completepuzzle.svg" width="100%" height="100%" /><g class="links"><use href="#t7781"/></g></g></svg><svg x="3685" y="1907" height="9%" width="9%" viewBox="0 0 330 330"><g><a xlink:href="https://nftpuzzle.license-token.com/" class="links"><title>See the most innovative NFT based token software licensing project</title><path fill="#E4CF37" id="more" d="M165,0C74.019,0,0,74.019,0,165s74.019,165,165,165s165-74.019,165-165S255.981,0,165,0z M85,190 c-13.785,0-25-11.215-25-25s11.215-25,25-25s25,11.215,25,25S98.785,190,85,190z M165,190c-13.785,0-25-11.215-25-25 s11.215-25,25-25s25,11.215,25,25S178.785,190,165,190z M245,190c-13.785,0-25-11.215-25-25s11.215-25,25-25 c13.785,0,25,11.215,25,25S258.785,190,245,190z"></path></a></g></svg></svg></svg>