<svg version="1.1" xmlns="http://www.w3.org/2000/svg" xmlns:xlink="http://www.w3.org/1999/xlink" fill="transparent" x="0" y="0" width="350" height="350" preserveAspectRatio="xMinYMin slice"><style type="text/css">.links{fill:transparent;stroke: #E4CF37;}.links:hover{fill:#63D272; opacity:0.4;}</style><defs><g id="allt"><path id="t7784" d="M3795,1888 L3785,1888 C3775,1888 3790,1896 3778,1894 C3767,1893 3781,1887 3771,1887 L3762,1888 3762,1888 L3762,1897 C3763,1907 3756,1894 3754,1904 C3753,1914 3764,1901 3763,1910 L3762,1920 3762,1920 L3772,1920 C3782,1921 3768,1914 3778,1912 C3789,1911 3775,1922 3785,1921 L3795,1920 3795,1920 L3795,1910 C3795,1900 3801,1910 3800,1903 C3800,1896 3792,1908 3793,1898 L3795,1888"/></g><clipPath id="c" clipRule="evenodd" fill="transparent"><use href="#t7784"/></clipPath></defs><svg viewBox="3752 1886 50 37" preserveAspectRatio="xMinYMin meet"><svg width="4380" height="2430"><g><image crossorigin="anonymous" x="0" y="0" href="https://nftpuzzle.license-token.com/assets/completepuzzle.svg" width="100%" height="100%" /><g class="links"><use href="#t7784"/></g></g></svg><svg x="3787" y="1908" height="9%" width="9%" viewBox="0 0 330 330"><g><a xlink:href="https://nftpuzzle.license-token.com/" class="links"><title>See the most innovative NFT based token software licensing project</title><path fill="#E4CF37" id="more" d="M165,0C74.019,0,0,74.019,0,165s74.019,165,165,165s165-74.019,165-165S255.981,0,165,0z M85,190 c-13.785,0-25-11.215-25-25s11.215-25,25-25s25,11.215,25,25S98.785,190,85,190z M165,190c-13.785,0-25-11.215-25-25 s11.215-25,25-25s25,11.215,25,25S178.785,190,165,190z M245,190c-13.785,0-25-11.215-25-25s11.215-25,25-25 c13.785,0,25,11.215,25,25S258.785,190,245,190z"></path></a></g></svg></svg></svg>