<svg version="1.1" xmlns="http://www.w3.org/2000/svg" xmlns:xlink="http://www.w3.org/1999/xlink" fill="transparent" x="0" y="0" width="350" height="350" preserveAspectRatio="xMinYMin slice"><style type="text/css">.links{fill:transparent;stroke: #E4CF37;}.links:hover{fill:#63D272; opacity:0.4;}</style><defs><g id="allt"><path id="t7795" d="M4158,1888 L4148,1888 C4139,1888 4152,1891 4141,1890 C4131,1890 4143,1888 4134,1888 L4125,1888 4125,1888 L4125,1897 C4125,1907 4122,1893 4121,1903 C4120,1913 4126,1900 4125,1910 L4125,1920 4125,1920 L4135,1920 C4145,1920 4130,1917 4140,1916 C4151,1915 4137,1921 4147,1920 L4158,1920 4158,1920 L4159,1910 C4161,1900 4149,1912 4149,1902 C4149,1893 4162,1907 4160,1897 L4158,1888"/></g><clipPath id="c" clipRule="evenodd" fill="transparent"><use href="#t7795"/></clipPath></defs><svg viewBox="4119 1887 44 35" preserveAspectRatio="xMinYMin meet"><svg width="4380" height="2430"><g><image crossorigin="anonymous" x="0" y="0" href="https://nftpuzzle.license-token.com/assets/completepuzzle.svg" width="100%" height="100%" /><g class="links"><use href="#t7795"/></g></g></svg><svg x="4148" y="1907" height="9%" width="9%" viewBox="0 0 330 330"><g><a xlink:href="https://nftpuzzle.license-token.com/" class="links"><title>See the most innovative NFT based token software licensing project</title><path fill="#E4CF37" id="more" d="M165,0C74.019,0,0,74.019,0,165s74.019,165,165,165s165-74.019,165-165S255.981,0,165,0z M85,190 c-13.785,0-25-11.215-25-25s11.215-25,25-25s25,11.215,25,25S98.785,190,85,190z M165,190c-13.785,0-25-11.215-25-25 s11.215-25,25-25s25,11.215,25,25S178.785,190,165,190z M245,190c-13.785,0-25-11.215-25-25s11.215-25,25-25 c13.785,0,25,11.215,25,25S258.785,190,245,190z"></path></a></g></svg></svg></svg>