<svg version="1.1" xmlns="http://www.w3.org/2000/svg" xmlns:xlink="http://www.w3.org/1999/xlink" fill="transparent" x="0" y="0" width="350" height="350" preserveAspectRatio="xMinYMin slice"><style type="text/css">.links{fill:transparent;stroke: #E4CF37;}.links:hover{fill:#63D272; opacity:0.4;}</style><defs><g id="allt"><path id="t7796" d="M4191,1888 L4181,1887 C4171,1887 4183,1896 4173,1896 C4163,1896 4179,1886 4168,1887 L4158,1888 4158,1888 L4160,1897 C4162,1907 4149,1893 4149,1902 C4149,1912 4161,1900 4159,1910 L4158,1920 4158,1920 L4168,1922 C4178,1924 4163,1912 4173,1912 C4183,1912 4170,1923 4180,1921 L4191,1920 4191,1920 L4190,1910 C4190,1901 4195,1911 4195,1902 C4196,1894 4191,1908 4191,1898 L4191,1888"/></g><clipPath id="c" clipRule="evenodd" fill="transparent"><use href="#t7796"/></clipPath></defs><svg viewBox="4148 1885 49 40" preserveAspectRatio="xMinYMin meet"><svg width="4380" height="2430"><g><image crossorigin="anonymous" x="0" y="0" href="https://nftpuzzle.license-token.com/assets/completepuzzle.svg" width="100%" height="100%" /><g class="links"><use href="#t7796"/></g></g></svg><svg x="4182" y="1910" height="9%" width="9%" viewBox="0 0 330 330"><g><a xlink:href="https://nftpuzzle.license-token.com/" class="links"><title>See the most innovative NFT based token software licensing project</title><path fill="#E4CF37" id="more" d="M165,0C74.019,0,0,74.019,0,165s74.019,165,165,165s165-74.019,165-165S255.981,0,165,0z M85,190 c-13.785,0-25-11.215-25-25s11.215-25,25-25s25,11.215,25,25S98.785,190,85,190z M165,190c-13.785,0-25-11.215-25-25 s11.215-25,25-25s25,11.215,25,25S178.785,190,165,190z M245,190c-13.785,0-25-11.215-25-25s11.215-25,25-25 c13.785,0,25,11.215,25,25S258.785,190,245,190z"></path></a></g></svg></svg></svg>