<svg version="1.1" xmlns="http://www.w3.org/2000/svg" xmlns:xlink="http://www.w3.org/1999/xlink" fill="transparent" x="0" y="0" width="350" height="350" preserveAspectRatio="xMinYMin slice"><style type="text/css">.links{fill:transparent;stroke: #E4CF37;}.links:hover{fill:#63D272; opacity:0.4;}</style><defs><g id="allt"><path id="t7798" d="M4257,1888 L4247,1888 C4237,1888 4249,1891 4239,1890 C4230,1890 4244,1887 4234,1887 L4224,1888 4224,1888 L4224,1897 C4224,1907 4229,1894 4229,1903 C4230,1913 4221,1902 4222,1911 L4224,1920 4224,1920 L4234,1920 C4244,1920 4230,1925 4240,1925 C4250,1926 4238,1917 4247,1918 L4257,1920 4257,1920 L4256,1910 C4256,1900 4262,1910 4261,1902 C4261,1895 4256,1905 4256,1896 L4257,1888"/></g><clipPath id="c" clipRule="evenodd" fill="transparent"><use href="#t7798"/></clipPath></defs><svg viewBox="4220 1886 43 41" preserveAspectRatio="xMinYMin meet"><svg width="4380" height="2430"><g><image crossorigin="anonymous" x="0" y="0" href="https://nftpuzzle.license-token.com/assets/completepuzzle.svg" width="100%" height="100%" /><g class="links"><use href="#t7798"/></g></g></svg><svg x="4248" y="1912" height="9%" width="9%" viewBox="0 0 330 330"><g><a xlink:href="https://nftpuzzle.license-token.com/" class="links"><title>See the most innovative NFT based token software licensing project</title><path fill="#E4CF37" id="more" d="M165,0C74.019,0,0,74.019,0,165s74.019,165,165,165s165-74.019,165-165S255.981,0,165,0z M85,190 c-13.785,0-25-11.215-25-25s11.215-25,25-25s25,11.215,25,25S98.785,190,85,190z M165,190c-13.785,0-25-11.215-25-25 s11.215-25,25-25s25,11.215,25,25S178.785,190,165,190z M245,190c-13.785,0-25-11.215-25-25s11.215-25,25-25 c13.785,0,25,11.215,25,25S258.785,190,245,190z"></path></a></g></svg></svg></svg>