<svg version="1.1" xmlns="http://www.w3.org/2000/svg" xmlns:xlink="http://www.w3.org/1999/xlink" fill="transparent" x="0" y="0" width="350" height="350" preserveAspectRatio="xMinYMin slice"><style type="text/css">.links{fill:transparent;stroke: #E4CF37;}.links:hover{fill:#63D272; opacity:0.4;}</style><defs><g id="allt"><path id="t7799" d="M4290,1888 L4279,1890 C4268,1893 4284,1879 4274,1880 C4264,1881 4275,1888 4266,1888 L4257,1888 4257,1888 L4256,1896 C4256,1905 4261,1895 4261,1902 C4262,1910 4256,1900 4256,1910 L4257,1920 4257,1920 L4266,1919 C4275,1919 4264,1924 4272,1924 C4280,1925 4270,1919 4280,1919 L4290,1920 L4290,1920 L4290,1888"/></g><clipPath id="c" clipRule="evenodd" fill="transparent"><use href="#t7799"/></clipPath></defs><svg viewBox="4255 1878 36 48" preserveAspectRatio="xMinYMin meet"><svg width="4380" height="2430"><g><image crossorigin="anonymous" x="0" y="0" href="https://nftpuzzle.license-token.com/assets/completepuzzle.svg" width="100%" height="100%" /><g class="links"><use href="#t7799"/></g></g></svg><svg x="4276" y="1911" height="9%" width="9%" viewBox="0 0 330 330"><g><a xlink:href="https://nftpuzzle.license-token.com/" class="links"><title>See the most innovative NFT based token software licensing project</title><path fill="#E4CF37" id="more" d="M165,0C74.019,0,0,74.019,0,165s74.019,165,165,165s165-74.019,165-165S255.981,0,165,0z M85,190 c-13.785,0-25-11.215-25-25s11.215-25,25-25s25,11.215,25,25S98.785,190,85,190z M165,190c-13.785,0-25-11.215-25-25 s11.215-25,25-25s25,11.215,25,25S178.785,190,165,190z M245,190c-13.785,0-25-11.215-25-25s11.215-25,25-25 c13.785,0,25,11.215,25,25S258.785,190,245,190z"></path></a></g></svg></svg></svg>