<svg version="1.1" xmlns="http://www.w3.org/2000/svg" xmlns:xlink="http://www.w3.org/1999/xlink" fill="transparent" x="0" y="0" width="350" height="350" preserveAspectRatio="xMinYMin slice"><style type="text/css">.links{fill:transparent;stroke: #E4CF37;}.links:hover{fill:#63D272; opacity:0.4;}</style><defs><g id="allt"><path id="t7801" d="M66,1920 L55,1919 C45,1918 60,1927 50,1927 C41,1927 52,1920 42,1920 L33,1920 33,1920 L33,1929 C33,1938 25,1929 26,1936 C28,1943 36,1932 34,1942 L33,1952 33,1952 L42,1952 C52,1952 42,1944 49,1945 C56,1947 45,1955 55,1953 L66,1952 66,1952 L66,1942 C66,1932 55,1945 57,1934 C59,1924 71,1938 68,1929 L66,1920"/></g><clipPath id="c" clipRule="evenodd" fill="transparent"><use href="#t7801"/></clipPath></defs><svg viewBox="24 1917 48 39" preserveAspectRatio="xMinYMin meet"><svg width="4380" height="2430"><g><image crossorigin="anonymous" x="0" y="0" href="https://nftpuzzle.license-token.com/assets/completepuzzle.svg" width="100%" height="100%" /><g class="links"><use href="#t7801"/></g></g></svg><svg x="57" y="1941" height="9%" width="9%" viewBox="0 0 330 330"><g><a xlink:href="https://nftpuzzle.license-token.com/" class="links"><title>See the most innovative NFT based token software licensing project</title><path fill="#E4CF37" id="more" d="M165,0C74.019,0,0,74.019,0,165s74.019,165,165,165s165-74.019,165-165S255.981,0,165,0z M85,190 c-13.785,0-25-11.215-25-25s11.215-25,25-25s25,11.215,25,25S98.785,190,85,190z M165,190c-13.785,0-25-11.215-25-25 s11.215-25,25-25s25,11.215,25,25S178.785,190,165,190z M245,190c-13.785,0-25-11.215-25-25s11.215-25,25-25 c13.785,0,25,11.215,25,25S258.785,190,245,190z"></path></a></g></svg></svg></svg>