<svg version="1.1" xmlns="http://www.w3.org/2000/svg" xmlns:xlink="http://www.w3.org/1999/xlink" fill="transparent" x="0" y="0" width="350" height="350" preserveAspectRatio="xMinYMin slice"><style type="text/css">.links{fill:transparent;stroke: #E4CF37;}.links:hover{fill:#63D272; opacity:0.4;}</style><defs><g id="allt"><path id="t7802" d="M99,1920 L89,1920 C80,1920 89,1926 80,1926 C71,1926 85,1919 75,1919 L66,1920 66,1920 L68,1929 C71,1938 59,1924 57,1934 C55,1945 66,1932 66,1942 L66,1952 66,1952 L75,1954 C85,1957 70,1945 81,1943 C92,1941 78,1952 88,1952 L99,1952 99,1952 L99,1941 C99,1931 103,1945 103,1935 C104,1926 99,1941 99,1930 L99,1920"/></g><clipPath id="c" clipRule="evenodd" fill="transparent"><use href="#t7802"/></clipPath></defs><svg viewBox="54 1918 51 40" preserveAspectRatio="xMinYMin meet"><svg width="4380" height="2430"><g><image crossorigin="anonymous" x="0" y="0" href="https://nftpuzzle.license-token.com/assets/completepuzzle.svg" width="100%" height="100%" /><g class="links"><use href="#t7802"/></g></g></svg><svg x="90" y="1943" height="9%" width="9%" viewBox="0 0 330 330"><g><a xlink:href="https://nftpuzzle.license-token.com/" class="links"><title>See the most innovative NFT based token software licensing project</title><path fill="#E4CF37" id="more" d="M165,0C74.019,0,0,74.019,0,165s74.019,165,165,165s165-74.019,165-165S255.981,0,165,0z M85,190 c-13.785,0-25-11.215-25-25s11.215-25,25-25s25,11.215,25,25S98.785,190,85,190z M165,190c-13.785,0-25-11.215-25-25 s11.215-25,25-25s25,11.215,25,25S178.785,190,165,190z M245,190c-13.785,0-25-11.215-25-25s11.215-25,25-25 c13.785,0,25,11.215,25,25S258.785,190,245,190z"></path></a></g></svg></svg></svg>