<svg version="1.1" xmlns="http://www.w3.org/2000/svg" xmlns:xlink="http://www.w3.org/1999/xlink" fill="transparent" x="0" y="0" width="350" height="350" preserveAspectRatio="xMinYMin slice"><style type="text/css">.links{fill:transparent;stroke: #E4CF37;}.links:hover{fill:#63D272; opacity:0.4;}</style><defs><g id="allt"><path id="t7803" d="M132,1920 L122,1920 C112,1920 123,1926 115,1926 C107,1927 118,1919 108,1919 L99,1920 99,1920 L99,1930 C99,1941 104,1926 103,1935 C103,1945 99,1931 99,1941 L99,1952 99,1952 L109,1952 C120,1952 105,1957 115,1956 C125,1956 110,1952 121,1952 L132,1952 132,1952 L132,1942 C133,1932 129,1945 128,1936 C128,1928 132,1938 132,1929 L132,1920"/></g><clipPath id="c" clipRule="evenodd" fill="transparent"><use href="#t7803"/></clipPath></defs><svg viewBox="98 1918 36 40" preserveAspectRatio="xMinYMin meet"><svg width="4380" height="2430"><g><image crossorigin="anonymous" x="0" y="0" href="https://nftpuzzle.license-token.com/assets/completepuzzle.svg" width="100%" height="100%" /><g class="links"><use href="#t7803"/></g></g></svg><svg x="119" y="1943" height="9%" width="9%" viewBox="0 0 330 330"><g><a xlink:href="https://nftpuzzle.license-token.com/" class="links"><title>See the most innovative NFT based token software licensing project</title><path fill="#E4CF37" id="more" d="M165,0C74.019,0,0,74.019,0,165s74.019,165,165,165s165-74.019,165-165S255.981,0,165,0z M85,190 c-13.785,0-25-11.215-25-25s11.215-25,25-25s25,11.215,25,25S98.785,190,85,190z M165,190c-13.785,0-25-11.215-25-25 s11.215-25,25-25s25,11.215,25,25S178.785,190,165,190z M245,190c-13.785,0-25-11.215-25-25s11.215-25,25-25 c13.785,0,25,11.215,25,25S258.785,190,245,190z"></path></a></g></svg></svg></svg>