<svg version="1.1" xmlns="http://www.w3.org/2000/svg" xmlns:xlink="http://www.w3.org/1999/xlink" fill="transparent" x="0" y="0" width="350" height="350" preserveAspectRatio="xMinYMin slice"><style type="text/css">.links{fill:transparent;stroke: #E4CF37;}.links:hover{fill:#63D272; opacity:0.4;}</style><defs><g id="allt"><path id="t7804" d="M165,1920 L154,1920 C143,1920 158,1925 149,1924 C141,1924 151,1920 141,1920 L132,1920 132,1920 L132,1929 C132,1938 128,1928 128,1936 C129,1945 133,1932 132,1942 L132,1952 132,1952 L141,1952 C151,1952 140,1948 149,1948 C158,1949 144,1953 154,1952 L165,1952 165,1952 L163,1942 C161,1932 174,1946 174,1937 C174,1928 163,1941 164,1930 L165,1920"/></g><clipPath id="c" clipRule="evenodd" fill="transparent"><use href="#t7804"/></clipPath></defs><svg viewBox="127 1919 48 35" preserveAspectRatio="xMinYMin meet"><svg width="4380" height="2430"><g><image crossorigin="anonymous" x="0" y="0" href="https://nftpuzzle.license-token.com/assets/completepuzzle.svg" width="100%" height="100%" /><g class="links"><use href="#t7804"/></g></g></svg><svg x="160" y="1939" height="9%" width="9%" viewBox="0 0 330 330"><g><a xlink:href="https://nftpuzzle.license-token.com/" class="links"><title>See the most innovative NFT based token software licensing project</title><path fill="#E4CF37" id="more" d="M165,0C74.019,0,0,74.019,0,165s74.019,165,165,165s165-74.019,165-165S255.981,0,165,0z M85,190 c-13.785,0-25-11.215-25-25s11.215-25,25-25s25,11.215,25,25S98.785,190,85,190z M165,190c-13.785,0-25-11.215-25-25 s11.215-25,25-25s25,11.215,25,25S178.785,190,165,190z M245,190c-13.785,0-25-11.215-25-25s11.215-25,25-25 c13.785,0,25,11.215,25,25S258.785,190,245,190z"></path></a></g></svg></svg></svg>