<svg version="1.1" xmlns="http://www.w3.org/2000/svg" xmlns:xlink="http://www.w3.org/1999/xlink" fill="transparent" x="0" y="0" width="350" height="350" preserveAspectRatio="xMinYMin slice"><style type="text/css">.links{fill:transparent;stroke: #E4CF37;}.links:hover{fill:#63D272; opacity:0.4;}</style><defs><g id="allt"><path id="t7805" d="M198,1920 L188,1920 C178,1920 192,1913 181,1912 C171,1912 184,1921 174,1920 L165,1920 165,1920 L164,1930 C163,1941 174,1928 174,1937 C174,1946 161,1932 163,1942 L165,1952 165,1952 L176,1951 C187,1950 173,1961 182,1961 C192,1961 177,1948 187,1950 L198,1952 198,1952 L197,1943 C196,1934 207,1944 207,1936 C208,1928 198,1938 198,1929 L198,1920"/></g><clipPath id="c" clipRule="evenodd" fill="transparent"><use href="#t7805"/></clipPath></defs><svg viewBox="160 1911 49 51" preserveAspectRatio="xMinYMin meet"><svg width="4380" height="2430"><g><image crossorigin="anonymous" x="0" y="0" href="https://nftpuzzle.license-token.com/assets/completepuzzle.svg" width="100%" height="100%" /><g class="links"><use href="#t7805"/></g></g></svg><svg x="194" y="1947" height="9%" width="9%" viewBox="0 0 330 330"><g><a xlink:href="https://nftpuzzle.license-token.com/" class="links"><title>See the most innovative NFT based token software licensing project</title><path fill="#E4CF37" id="more" d="M165,0C74.019,0,0,74.019,0,165s74.019,165,165,165s165-74.019,165-165S255.981,0,165,0z M85,190 c-13.785,0-25-11.215-25-25s11.215-25,25-25s25,11.215,25,25S98.785,190,85,190z M165,190c-13.785,0-25-11.215-25-25 s11.215-25,25-25s25,11.215,25,25S178.785,190,165,190z M245,190c-13.785,0-25-11.215-25-25s11.215-25,25-25 c13.785,0,25,11.215,25,25S258.785,190,245,190z"></path></a></g></svg></svg></svg>