<svg version="1.1" xmlns="http://www.w3.org/2000/svg" xmlns:xlink="http://www.w3.org/1999/xlink" fill="transparent" x="0" y="0" width="350" height="350" preserveAspectRatio="xMinYMin slice"><style type="text/css">.links{fill:transparent;stroke: #E4CF37;}.links:hover{fill:#63D272; opacity:0.4;}</style><defs><g id="allt"><path id="t7810" d="M363,1920 L353,1919 C344,1919 354,1912 345,1911 C337,1910 348,1925 339,1922 L330,1920 330,1920 L329,1930 C329,1941 335,1928 336,1935 C337,1943 330,1931 330,1941 L330,1952 330,1952 L341,1951 C352,1951 338,1957 346,1958 C354,1959 341,1952 352,1952 L363,1952 363,1952 L363,1943 C363,1934 367,1946 367,1937 C367,1928 360,1939 361,1929 L363,1920"/></g><clipPath id="c" clipRule="evenodd" fill="transparent"><use href="#t7810"/></clipPath></defs><svg viewBox="328 1909 40 51" preserveAspectRatio="xMinYMin meet"><svg width="4380" height="2430"><g><image crossorigin="anonymous" x="0" y="0" href="https://nftpuzzle.license-token.com/assets/completepuzzle.svg" width="100%" height="100%" /><g class="links"><use href="#t7810"/></g></g></svg><svg x="353" y="1945" height="9%" width="9%" viewBox="0 0 330 330"><g><a xlink:href="https://nftpuzzle.license-token.com/" class="links"><title>See the most innovative NFT based token software licensing project</title><path fill="#E4CF37" id="more" d="M165,0C74.019,0,0,74.019,0,165s74.019,165,165,165s165-74.019,165-165S255.981,0,165,0z M85,190 c-13.785,0-25-11.215-25-25s11.215-25,25-25s25,11.215,25,25S98.785,190,85,190z M165,190c-13.785,0-25-11.215-25-25 s11.215-25,25-25s25,11.215,25,25S178.785,190,165,190z M245,190c-13.785,0-25-11.215-25-25s11.215-25,25-25 c13.785,0,25,11.215,25,25S258.785,190,245,190z"></path></a></g></svg></svg></svg>