<svg version="1.1" xmlns="http://www.w3.org/2000/svg" xmlns:xlink="http://www.w3.org/1999/xlink" fill="transparent" x="0" y="0" width="350" height="350" preserveAspectRatio="xMinYMin slice"><style type="text/css">.links{fill:transparent;stroke: #E4CF37;}.links:hover{fill:#63D272; opacity:0.4;}</style><defs><g id="allt"><path id="t7814" d="M495,1920 L485,1919 C475,1918 488,1927 478,1926 C468,1926 482,1915 472,1917 L462,1920 462,1920 L461,1930 C461,1940 466,1927 466,1935 C466,1943 462,1931 462,1941 L462,1952 462,1952 L472,1951 C483,1951 469,1956 477,1956 C486,1956 473,1952 484,1952 L495,1952 495,1952 L494,1942 C493,1932 504,1943 502,1935 C500,1927 494,1938 494,1929 L495,1920"/></g><clipPath id="c" clipRule="evenodd" fill="transparent"><use href="#t7814"/></clipPath></defs><svg viewBox="460 1914 45 43" preserveAspectRatio="xMinYMin meet"><svg width="4380" height="2430"><g><image crossorigin="anonymous" x="0" y="0" href="https://nftpuzzle.license-token.com/assets/completepuzzle.svg" width="100%" height="100%" /><g class="links"><use href="#t7814"/></g></g></svg><svg x="490" y="1942" height="9%" width="9%" viewBox="0 0 330 330"><g><a xlink:href="https://nftpuzzle.license-token.com/" class="links"><title>See the most innovative NFT based token software licensing project</title><path fill="#E4CF37" id="more" d="M165,0C74.019,0,0,74.019,0,165s74.019,165,165,165s165-74.019,165-165S255.981,0,165,0z M85,190 c-13.785,0-25-11.215-25-25s11.215-25,25-25s25,11.215,25,25S98.785,190,85,190z M165,190c-13.785,0-25-11.215-25-25 s11.215-25,25-25s25,11.215,25,25S178.785,190,165,190z M245,190c-13.785,0-25-11.215-25-25s11.215-25,25-25 c13.785,0,25,11.215,25,25S258.785,190,245,190z"></path></a></g></svg></svg></svg>