<svg version="1.1" xmlns="http://www.w3.org/2000/svg" xmlns:xlink="http://www.w3.org/1999/xlink" fill="transparent" x="0" y="0" width="350" height="350" preserveAspectRatio="xMinYMin slice"><style type="text/css">.links{fill:transparent;stroke: #E4CF37;}.links:hover{fill:#63D272; opacity:0.4;}</style><defs><g id="allt"><path id="t7815" d="M528,1920 L518,1921 C509,1922 518,1916 509,1916 C501,1917 515,1920 505,1920 L495,1920 495,1920 L494,1929 C494,1938 500,1927 502,1935 C504,1943 493,1932 494,1942 L495,1952 495,1952 L504,1951 C514,1951 502,1957 510,1958 C519,1960 507,1950 517,1951 L528,1952 528,1952 L528,1943 C528,1934 532,1946 532,1935 C533,1925 528,1941 528,1930 L528,1920"/></g><clipPath id="c" clipRule="evenodd" fill="transparent"><use href="#t7815"/></clipPath></defs><svg viewBox="492 1915 42 46" preserveAspectRatio="xMinYMin meet"><svg width="4380" height="2430"><g><image crossorigin="anonymous" x="0" y="0" href="https://nftpuzzle.license-token.com/assets/completepuzzle.svg" width="100%" height="100%" /><g class="links"><use href="#t7815"/></g></g></svg><svg x="519" y="1946" height="9%" width="9%" viewBox="0 0 330 330"><g><a xlink:href="https://nftpuzzle.license-token.com/" class="links"><title>See the most innovative NFT based token software licensing project</title><path fill="#E4CF37" id="more" d="M165,0C74.019,0,0,74.019,0,165s74.019,165,165,165s165-74.019,165-165S255.981,0,165,0z M85,190 c-13.785,0-25-11.215-25-25s11.215-25,25-25s25,11.215,25,25S98.785,190,85,190z M165,190c-13.785,0-25-11.215-25-25 s11.215-25,25-25s25,11.215,25,25S178.785,190,165,190z M245,190c-13.785,0-25-11.215-25-25s11.215-25,25-25 c13.785,0,25,11.215,25,25S258.785,190,245,190z"></path></a></g></svg></svg></svg>