<svg version="1.1" xmlns="http://www.w3.org/2000/svg" xmlns:xlink="http://www.w3.org/1999/xlink" fill="transparent" x="0" y="0" width="350" height="350" preserveAspectRatio="xMinYMin slice"><style type="text/css">.links{fill:transparent;stroke: #E4CF37;}.links:hover{fill:#63D272; opacity:0.4;}</style><defs><g id="allt"><path id="t7818" d="M627,1920 L617,1920 C608,1920 619,1913 608,1913 C598,1914 613,1921 603,1920 L594,1920 594,1920 L594,1930 C594,1940 592,1927 591,1935 C590,1944 594,1932 594,1942 L594,1952 594,1952 L604,1952 C615,1952 601,1950 610,1949 C619,1948 607,1952 617,1952 L627,1952 627,1952 L625,1942 C623,1932 635,1944 635,1935 C636,1926 623,1938 625,1929 L627,1920"/></g><clipPath id="c" clipRule="evenodd" fill="transparent"><use href="#t7818"/></clipPath></defs><svg viewBox="589 1912 48 41" preserveAspectRatio="xMinYMin meet"><svg width="4380" height="2430"><g><image crossorigin="anonymous" x="0" y="0" href="https://nftpuzzle.license-token.com/assets/completepuzzle.svg" width="100%" height="100%" /><g class="links"><use href="#t7818"/></g></g></svg><svg x="622" y="1938" height="9%" width="9%" viewBox="0 0 330 330"><g><a xlink:href="https://nftpuzzle.license-token.com/" class="links"><title>See the most innovative NFT based token software licensing project</title><path fill="#E4CF37" id="more" d="M165,0C74.019,0,0,74.019,0,165s74.019,165,165,165s165-74.019,165-165S255.981,0,165,0z M85,190 c-13.785,0-25-11.215-25-25s11.215-25,25-25s25,11.215,25,25S98.785,190,85,190z M165,190c-13.785,0-25-11.215-25-25 s11.215-25,25-25s25,11.215,25,25S178.785,190,165,190z M245,190c-13.785,0-25-11.215-25-25s11.215-25,25-25 c13.785,0,25,11.215,25,25S258.785,190,245,190z"></path></a></g></svg></svg></svg>