<svg version="1.1" xmlns="http://www.w3.org/2000/svg" xmlns:xlink="http://www.w3.org/1999/xlink" fill="transparent" x="0" y="0" width="350" height="350" preserveAspectRatio="xMinYMin slice"><style type="text/css">.links{fill:transparent;stroke: #E4CF37;}.links:hover{fill:#63D272; opacity:0.4;}</style><defs><g id="allt"><path id="t7821" d="M726,1920 L716,1920 C706,1920 720,1926 709,1928 C698,1930 714,1917 703,1918 L693,1920 693,1920 L694,1929 C696,1939 689,1926 689,1936 C689,1946 696,1931 694,1941 L693,1952 693,1952 L703,1953 C713,1955 699,1948 709,1948 C720,1948 704,1955 715,1953 L726,1952 726,1952 L726,1942 C726,1933 721,1944 720,1936 C720,1928 727,1939 726,1929 L726,1920"/></g><clipPath id="c" clipRule="evenodd" fill="transparent"><use href="#t7821"/></clipPath></defs><svg viewBox="688 1916 40 40" preserveAspectRatio="xMinYMin meet"><svg width="4380" height="2430"><g><image crossorigin="anonymous" x="0" y="0" href="https://nftpuzzle.license-token.com/assets/completepuzzle.svg" width="100%" height="100%" /><g class="links"><use href="#t7821"/></g></g></svg><svg x="713" y="1941" height="9%" width="9%" viewBox="0 0 330 330"><g><a xlink:href="https://nftpuzzle.license-token.com/" class="links"><title>See the most innovative NFT based token software licensing project</title><path fill="#E4CF37" id="more" d="M165,0C74.019,0,0,74.019,0,165s74.019,165,165,165s165-74.019,165-165S255.981,0,165,0z M85,190 c-13.785,0-25-11.215-25-25s11.215-25,25-25s25,11.215,25,25S98.785,190,85,190z M165,190c-13.785,0-25-11.215-25-25 s11.215-25,25-25s25,11.215,25,25S178.785,190,165,190z M245,190c-13.785,0-25-11.215-25-25s11.215-25,25-25 c13.785,0,25,11.215,25,25S258.785,190,245,190z"></path></a></g></svg></svg></svg>