<svg version="1.1" xmlns="http://www.w3.org/2000/svg" xmlns:xlink="http://www.w3.org/1999/xlink" fill="transparent" x="0" y="0" width="350" height="350" preserveAspectRatio="xMinYMin slice"><style type="text/css">.links{fill:transparent;stroke: #E4CF37;}.links:hover{fill:#63D272; opacity:0.4;}</style><defs><g id="allt"><path id="t7822" d="M759,1920 L749,1920 C740,1920 751,1916 742,1915 C734,1914 747,1920 736,1920 L726,1920 726,1920 L726,1929 C727,1939 720,1928 720,1936 C721,1944 726,1933 726,1942 L726,1952 726,1952 L736,1952 C746,1953 734,1946 742,1946 C751,1947 740,1952 749,1952 L759,1952 759,1952 L759,1942 C759,1932 764,1946 764,1935 C765,1925 756,1939 757,1929 L759,1920"/></g><clipPath id="c" clipRule="evenodd" fill="transparent"><use href="#t7822"/></clipPath></defs><svg viewBox="719 1913 47 41" preserveAspectRatio="xMinYMin meet"><svg width="4380" height="2430"><g><image crossorigin="anonymous" x="0" y="0" href="https://nftpuzzle.license-token.com/assets/completepuzzle.svg" width="100%" height="100%" /><g class="links"><use href="#t7822"/></g></g></svg><svg x="751" y="1939" height="9%" width="9%" viewBox="0 0 330 330"><g><a xlink:href="https://nftpuzzle.license-token.com/" class="links"><title>See the most innovative NFT based token software licensing project</title><path fill="#E4CF37" id="more" d="M165,0C74.019,0,0,74.019,0,165s74.019,165,165,165s165-74.019,165-165S255.981,0,165,0z M85,190 c-13.785,0-25-11.215-25-25s11.215-25,25-25s25,11.215,25,25S98.785,190,85,190z M165,190c-13.785,0-25-11.215-25-25 s11.215-25,25-25s25,11.215,25,25S178.785,190,165,190z M245,190c-13.785,0-25-11.215-25-25s11.215-25,25-25 c13.785,0,25,11.215,25,25S258.785,190,245,190z"></path></a></g></svg></svg></svg>