<svg version="1.1" xmlns="http://www.w3.org/2000/svg" xmlns:xlink="http://www.w3.org/1999/xlink" fill="transparent" x="0" y="0" width="350" height="350" preserveAspectRatio="xMinYMin slice"><style type="text/css">.links{fill:transparent;stroke: #E4CF37;}.links:hover{fill:#63D272; opacity:0.4;}</style><defs><g id="allt"><path id="t7825" d="M858,1920 L846,1920 C835,1920 852,1911 841,1912 C830,1914 843,1924 834,1922 L825,1920 825,1920 L824,1928 C824,1937 833,1928 831,1936 C830,1944 823,1932 824,1942 L825,1952 825,1952 L834,1951 C843,1951 833,1960 841,1958 C850,1957 837,1950 847,1951 L858,1952 858,1952 L857,1941 C857,1930 861,1944 861,1934 C861,1924 856,1939 857,1929 L858,1920"/></g><clipPath id="c" clipRule="evenodd" fill="transparent"><use href="#t7825"/></clipPath></defs><svg viewBox="822 1910 40 51" preserveAspectRatio="xMinYMin meet"><svg width="4380" height="2430"><g><image crossorigin="anonymous" x="0" y="0" href="https://nftpuzzle.license-token.com/assets/completepuzzle.svg" width="100%" height="100%" /><g class="links"><use href="#t7825"/></g></g></svg><svg x="847" y="1946" height="9%" width="9%" viewBox="0 0 330 330"><g><a xlink:href="https://nftpuzzle.license-token.com/" class="links"><title>See the most innovative NFT based token software licensing project</title><path fill="#E4CF37" id="more" d="M165,0C74.019,0,0,74.019,0,165s74.019,165,165,165s165-74.019,165-165S255.981,0,165,0z M85,190 c-13.785,0-25-11.215-25-25s11.215-25,25-25s25,11.215,25,25S98.785,190,85,190z M165,190c-13.785,0-25-11.215-25-25 s11.215-25,25-25s25,11.215,25,25S178.785,190,165,190z M245,190c-13.785,0-25-11.215-25-25s11.215-25,25-25 c13.785,0,25,11.215,25,25S258.785,190,245,190z"></path></a></g></svg></svg></svg>