<svg version="1.1" xmlns="http://www.w3.org/2000/svg" xmlns:xlink="http://www.w3.org/1999/xlink" fill="transparent" x="0" y="0" width="350" height="350" preserveAspectRatio="xMinYMin slice"><style type="text/css">.links{fill:transparent;stroke: #E4CF37;}.links:hover{fill:#63D272; opacity:0.4;}</style><defs><g id="allt"><path id="t7827" d="M924,1920 L913,1920 C903,1920 916,1927 908,1926 C900,1925 911,1920 901,1920 L891,1920 891,1920 L891,1929 C891,1939 896,1929 896,1937 C896,1946 891,1933 891,1942 L891,1952 891,1952 L901,1952 C911,1952 900,1957 909,1957 C918,1957 904,1952 914,1952 L924,1952 924,1952 L924,1942 C924,1932 929,1943 928,1934 C928,1925 921,1939 922,1929 L924,1920"/></g><clipPath id="c" clipRule="evenodd" fill="transparent"><use href="#t7827"/></clipPath></defs><svg viewBox="890 1919 40 39" preserveAspectRatio="xMinYMin meet"><svg width="4380" height="2430"><g><image crossorigin="anonymous" x="0" y="0" href="https://nftpuzzle.license-token.com/assets/completepuzzle.svg" width="100%" height="100%" /><g class="links"><use href="#t7827"/></g></g></svg><svg x="915" y="1943" height="9%" width="9%" viewBox="0 0 330 330"><g><a xlink:href="https://nftpuzzle.license-token.com/" class="links"><title>See the most innovative NFT based token software licensing project</title><path fill="#E4CF37" id="more" d="M165,0C74.019,0,0,74.019,0,165s74.019,165,165,165s165-74.019,165-165S255.981,0,165,0z M85,190 c-13.785,0-25-11.215-25-25s11.215-25,25-25s25,11.215,25,25S98.785,190,85,190z M165,190c-13.785,0-25-11.215-25-25 s11.215-25,25-25s25,11.215,25,25S178.785,190,165,190z M245,190c-13.785,0-25-11.215-25-25s11.215-25,25-25 c13.785,0,25,11.215,25,25S258.785,190,245,190z"></path></a></g></svg></svg></svg>