<svg version="1.1" xmlns="http://www.w3.org/2000/svg" xmlns:xlink="http://www.w3.org/1999/xlink" fill="transparent" x="0" y="0" width="350" height="350" preserveAspectRatio="xMinYMin slice"><style type="text/css">.links{fill:transparent;stroke: #E4CF37;}.links:hover{fill:#63D272; opacity:0.4;}</style><defs><g id="allt"><path id="t7828" d="M957,1920 L946,1920 C935,1921 950,1916 941,1916 C933,1916 943,1920 933,1920 L924,1920 924,1920 L922,1929 C921,1939 928,1925 928,1934 C929,1943 924,1932 924,1942 L924,1952 924,1952 L933,1950 C943,1949 929,1956 938,1956 C948,1957 936,1952 946,1952 L957,1952 957,1952 L957,1943 C958,1934 950,1942 948,1935 C946,1928 957,1937 957,1928 L957,1920"/></g><clipPath id="c" clipRule="evenodd" fill="transparent"><use href="#t7828"/></clipPath></defs><svg viewBox="920 1915 39 43" preserveAspectRatio="xMinYMin meet"><svg width="4380" height="2430"><g><image crossorigin="anonymous" x="0" y="0" href="https://nftpuzzle.license-token.com/assets/completepuzzle.svg" width="100%" height="100%" /><g class="links"><use href="#t7828"/></g></g></svg><svg x="944" y="1943" height="9%" width="9%" viewBox="0 0 330 330"><g><a xlink:href="https://nftpuzzle.license-token.com/" class="links"><title>See the most innovative NFT based token software licensing project</title><path fill="#E4CF37" id="more" d="M165,0C74.019,0,0,74.019,0,165s74.019,165,165,165s165-74.019,165-165S255.981,0,165,0z M85,190 c-13.785,0-25-11.215-25-25s11.215-25,25-25s25,11.215,25,25S98.785,190,85,190z M165,190c-13.785,0-25-11.215-25-25 s11.215-25,25-25s25,11.215,25,25S178.785,190,165,190z M245,190c-13.785,0-25-11.215-25-25s11.215-25,25-25 c13.785,0,25,11.215,25,25S258.785,190,245,190z"></path></a></g></svg></svg></svg>