<svg version="1.1" xmlns="http://www.w3.org/2000/svg" xmlns:xlink="http://www.w3.org/1999/xlink" fill="transparent" x="0" y="0" width="350" height="350" preserveAspectRatio="xMinYMin slice"><style type="text/css">.links{fill:transparent;stroke: #E4CF37;}.links:hover{fill:#63D272; opacity:0.4;}</style><defs><g id="allt"><path id="t7829" d="M990,1920 L979,1920 C969,1921 983,1916 973,1916 C964,1917 976,1920 966,1920 L957,1920 957,1920 L957,1928 C957,1937 946,1928 948,1935 C950,1942 958,1934 957,1943 L957,1952 957,1952 L966,1952 C975,1952 965,1941 972,1943 C980,1945 971,1953 980,1952 L990,1952 990,1952 L990,1942 C990,1933 984,1944 983,1934 C982,1925 991,1941 990,1930 L990,1920"/></g><clipPath id="c" clipRule="evenodd" fill="transparent"><use href="#t7829"/></clipPath></defs><svg viewBox="945 1915 47 39" preserveAspectRatio="xMinYMin meet"><svg width="4380" height="2430"><g><image crossorigin="anonymous" x="0" y="0" href="https://nftpuzzle.license-token.com/assets/completepuzzle.svg" width="100%" height="100%" /><g class="links"><use href="#t7829"/></g></g></svg><svg x="977" y="1939" height="9%" width="9%" viewBox="0 0 330 330"><g><a xlink:href="https://nftpuzzle.license-token.com/" class="links"><title>See the most innovative NFT based token software licensing project</title><path fill="#E4CF37" id="more" d="M165,0C74.019,0,0,74.019,0,165s74.019,165,165,165s165-74.019,165-165S255.981,0,165,0z M85,190 c-13.785,0-25-11.215-25-25s11.215-25,25-25s25,11.215,25,25S98.785,190,85,190z M165,190c-13.785,0-25-11.215-25-25 s11.215-25,25-25s25,11.215,25,25S178.785,190,165,190z M245,190c-13.785,0-25-11.215-25-25s11.215-25,25-25 c13.785,0,25,11.215,25,25S258.785,190,245,190z"></path></a></g></svg></svg></svg>