<svg version="1.1" xmlns="http://www.w3.org/2000/svg" xmlns:xlink="http://www.w3.org/1999/xlink" fill="transparent" x="0" y="0" width="350" height="350" preserveAspectRatio="xMinYMin slice"><style type="text/css">.links{fill:transparent;stroke: #E4CF37;}.links:hover{fill:#63D272; opacity:0.4;}</style><defs><g id="allt"><path id="t7830" d="M1023,1920 L1012,1920 C1002,1920 1015,1925 1007,1925 C999,1925 1008,1918 999,1919 L990,1920 990,1920 L990,1930 C991,1941 982,1925 983,1934 C984,1944 990,1933 990,1942 L990,1952 990,1952 L1001,1952 C1012,1953 995,1944 1005,1945 C1015,1946 1003,1952 1013,1952 L1023,1952 1023,1952 L1021,1942 C1020,1933 1028,1943 1027,1934 C1027,1925 1023,1940 1023,1930 L1023,1920"/></g><clipPath id="c" clipRule="evenodd" fill="transparent"><use href="#t7830"/></clipPath></defs><svg viewBox="981 1917 48 37" preserveAspectRatio="xMinYMin meet"><svg width="4380" height="2430"><g><image crossorigin="anonymous" x="0" y="0" href="https://nftpuzzle.license-token.com/assets/completepuzzle.svg" width="100%" height="100%" /><g class="links"><use href="#t7830"/></g></g></svg><svg x="1014" y="1939" height="9%" width="9%" viewBox="0 0 330 330"><g><a xlink:href="https://nftpuzzle.license-token.com/" class="links"><title>See the most innovative NFT based token software licensing project</title><path fill="#E4CF37" id="more" d="M165,0C74.019,0,0,74.019,0,165s74.019,165,165,165s165-74.019,165-165S255.981,0,165,0z M85,190 c-13.785,0-25-11.215-25-25s11.215-25,25-25s25,11.215,25,25S98.785,190,85,190z M165,190c-13.785,0-25-11.215-25-25 s11.215-25,25-25s25,11.215,25,25S178.785,190,165,190z M245,190c-13.785,0-25-11.215-25-25s11.215-25,25-25 c13.785,0,25,11.215,25,25S258.785,190,245,190z"></path></a></g></svg></svg></svg>