<svg version="1.1" xmlns="http://www.w3.org/2000/svg" xmlns:xlink="http://www.w3.org/1999/xlink" fill="transparent" x="0" y="0" width="350" height="350" preserveAspectRatio="xMinYMin slice"><style type="text/css">.links{fill:transparent;stroke: #E4CF37;}.links:hover{fill:#63D272; opacity:0.4;}</style><defs><g id="allt"><path id="t7835" d="M1188,1920 L1177,1921 C1166,1922 1178,1911 1171,1913 C1164,1915 1173,1920 1164,1920 L1155,1920 1155,1920 L1155,1928 C1156,1937 1151,1928 1149,1937 C1148,1947 1156,1934 1155,1943 L1155,1952 1155,1952 L1164,1952 C1173,1953 1163,1948 1173,1946 C1183,1945 1169,1953 1178,1952 L1188,1952 1188,1952 L1189,1941 C1190,1930 1181,1946 1181,1936 C1181,1926 1190,1938 1189,1929 L1188,1920"/></g><clipPath id="c" clipRule="evenodd" fill="transparent"><use href="#t7835"/></clipPath></defs><svg viewBox="1147 1910 44 44" preserveAspectRatio="xMinYMin meet"><svg width="4380" height="2430"><g><image crossorigin="anonymous" x="0" y="0" href="https://nftpuzzle.license-token.com/assets/completepuzzle.svg" width="100%" height="100%" /><g class="links"><use href="#t7835"/></g></g></svg><svg x="1176" y="1939" height="9%" width="9%" viewBox="0 0 330 330"><g><a xlink:href="https://nftpuzzle.license-token.com/" class="links"><title>See the most innovative NFT based token software licensing project</title><path fill="#E4CF37" id="more" d="M165,0C74.019,0,0,74.019,0,165s74.019,165,165,165s165-74.019,165-165S255.981,0,165,0z M85,190 c-13.785,0-25-11.215-25-25s11.215-25,25-25s25,11.215,25,25S98.785,190,85,190z M165,190c-13.785,0-25-11.215-25-25 s11.215-25,25-25s25,11.215,25,25S178.785,190,165,190z M245,190c-13.785,0-25-11.215-25-25s11.215-25,25-25 c13.785,0,25,11.215,25,25S258.785,190,245,190z"></path></a></g></svg></svg></svg>