<svg version="1.1" xmlns="http://www.w3.org/2000/svg" xmlns:xlink="http://www.w3.org/1999/xlink" fill="transparent" x="0" y="0" width="350" height="350" preserveAspectRatio="xMinYMin slice"><style type="text/css">.links{fill:transparent;stroke: #E4CF37;}.links:hover{fill:#63D272; opacity:0.4;}</style><defs><g id="allt"><path id="t7840" d="M1353,1920 L1342,1919 C1332,1918 1343,1923 1334,1924 C1325,1925 1338,1920 1329,1920 L1320,1920 1320,1920 L1320,1929 C1320,1939 1314,1926 1314,1935 C1315,1944 1320,1931 1320,1941 L1320,1952 1320,1952 L1330,1952 C1340,1952 1326,1946 1335,1946 C1345,1947 1331,1952 1342,1952 L1353,1952 1353,1952 L1353,1941 C1353,1931 1349,1946 1349,1937 C1350,1928 1353,1938 1353,1929 L1353,1920"/></g><clipPath id="c" clipRule="evenodd" fill="transparent"><use href="#t7840"/></clipPath></defs><svg viewBox="1313 1917 41 36" preserveAspectRatio="xMinYMin meet"><svg width="4380" height="2430"><g><image crossorigin="anonymous" x="0" y="0" href="https://nftpuzzle.license-token.com/assets/completepuzzle.svg" width="100%" height="100%" /><g class="links"><use href="#t7840"/></g></g></svg><svg x="1339" y="1938" height="9%" width="9%" viewBox="0 0 330 330"><g><a xlink:href="https://nftpuzzle.license-token.com/" class="links"><title>See the most innovative NFT based token software licensing project</title><path fill="#E4CF37" id="more" d="M165,0C74.019,0,0,74.019,0,165s74.019,165,165,165s165-74.019,165-165S255.981,0,165,0z M85,190 c-13.785,0-25-11.215-25-25s11.215-25,25-25s25,11.215,25,25S98.785,190,85,190z M165,190c-13.785,0-25-11.215-25-25 s11.215-25,25-25s25,11.215,25,25S178.785,190,165,190z M245,190c-13.785,0-25-11.215-25-25s11.215-25,25-25 c13.785,0,25,11.215,25,25S258.785,190,245,190z"></path></a></g></svg></svg></svg>