<svg version="1.1" xmlns="http://www.w3.org/2000/svg" xmlns:xlink="http://www.w3.org/1999/xlink" fill="transparent" x="0" y="0" width="350" height="350" preserveAspectRatio="xMinYMin slice"><style type="text/css">.links{fill:transparent;stroke: #E4CF37;}.links:hover{fill:#63D272; opacity:0.4;}</style><defs><g id="allt"><path id="t7842" d="M1419,1920 L1408,1920 C1398,1921 1412,1915 1403,1915 C1394,1916 1408,1922 1397,1921 L1386,1920 1386,1920 L1389,1928 C1392,1937 1375,1928 1376,1936 C1378,1944 1387,1931 1386,1941 L1386,1952 1386,1952 L1395,1955 C1404,1958 1394,1942 1402,1943 C1411,1944 1397,1953 1408,1952 L1419,1952 1419,1952 L1420,1943 C1422,1934 1414,1943 1413,1935 C1412,1927 1420,1939 1419,1929 L1419,1920"/></g><clipPath id="c" clipRule="evenodd" fill="transparent"><use href="#t7842"/></clipPath></defs><svg viewBox="1374 1914 49 45" preserveAspectRatio="xMinYMin meet"><svg width="4380" height="2430"><g><image crossorigin="anonymous" x="0" y="0" href="https://nftpuzzle.license-token.com/assets/completepuzzle.svg" width="100%" height="100%" /><g class="links"><use href="#t7842"/></g></g></svg><svg x="1408" y="1944" height="9%" width="9%" viewBox="0 0 330 330"><g><a xlink:href="https://nftpuzzle.license-token.com/" class="links"><title>See the most innovative NFT based token software licensing project</title><path fill="#E4CF37" id="more" d="M165,0C74.019,0,0,74.019,0,165s74.019,165,165,165s165-74.019,165-165S255.981,0,165,0z M85,190 c-13.785,0-25-11.215-25-25s11.215-25,25-25s25,11.215,25,25S98.785,190,85,190z M165,190c-13.785,0-25-11.215-25-25 s11.215-25,25-25s25,11.215,25,25S178.785,190,165,190z M245,190c-13.785,0-25-11.215-25-25s11.215-25,25-25 c13.785,0,25,11.215,25,25S258.785,190,245,190z"></path></a></g></svg></svg></svg>