<svg version="1.1" xmlns="http://www.w3.org/2000/svg" xmlns:xlink="http://www.w3.org/1999/xlink" fill="transparent" x="0" y="0" width="350" height="350" preserveAspectRatio="xMinYMin slice"><style type="text/css">.links{fill:transparent;stroke: #E4CF37;}.links:hover{fill:#63D272; opacity:0.4;}</style><defs><g id="allt"><path id="t7846" d="M1551,1920 L1541,1920 C1532,1920 1544,1926 1535,1926 C1527,1927 1537,1917 1527,1918 L1518,1920 1518,1920 L1518,1930 C1519,1941 1509,1925 1510,1933 C1512,1942 1518,1932 1518,1942 L1518,1952 1518,1952 L1529,1952 C1540,1953 1523,1943 1532,1944 C1541,1946 1530,1952 1540,1952 L1551,1952 1551,1952 L1553,1941 C1555,1931 1542,1946 1544,1937 C1547,1929 1551,1940 1551,1930 L1551,1920"/></g><clipPath id="c" clipRule="evenodd" fill="transparent"><use href="#t7846"/></clipPath></defs><svg viewBox="1508 1916 48 38" preserveAspectRatio="xMinYMin meet"><svg width="4380" height="2430"><g><image crossorigin="anonymous" x="0" y="0" href="https://nftpuzzle.license-token.com/assets/completepuzzle.svg" width="100%" height="100%" /><g class="links"><use href="#t7846"/></g></g></svg><svg x="1541" y="1939" height="9%" width="9%" viewBox="0 0 330 330"><g><a xlink:href="https://nftpuzzle.license-token.com/" class="links"><title>See the most innovative NFT based token software licensing project</title><path fill="#E4CF37" id="more" d="M165,0C74.019,0,0,74.019,0,165s74.019,165,165,165s165-74.019,165-165S255.981,0,165,0z M85,190 c-13.785,0-25-11.215-25-25s11.215-25,25-25s25,11.215,25,25S98.785,190,85,190z M165,190c-13.785,0-25-11.215-25-25 s11.215-25,25-25s25,11.215,25,25S178.785,190,165,190z M245,190c-13.785,0-25-11.215-25-25s11.215-25,25-25 c13.785,0,25,11.215,25,25S258.785,190,245,190z"></path></a></g></svg></svg></svg>