<svg version="1.1" xmlns="http://www.w3.org/2000/svg" xmlns:xlink="http://www.w3.org/1999/xlink" fill="transparent" x="0" y="0" width="350" height="350" preserveAspectRatio="xMinYMin slice"><style type="text/css">.links{fill:transparent;stroke: #E4CF37;}.links:hover{fill:#63D272; opacity:0.4;}</style><defs><g id="allt"><path id="t7860" d="M2013,1920 L2002,1920 C1992,1921 2007,1917 1996,1916 C1985,1916 2001,1920 1990,1920 L1980,1920 1980,1920 L1982,1928 C1985,1937 1969,1924 1969,1934 C1969,1945 1980,1932 1980,1942 L1980,1952 1980,1952 L1989,1954 C1998,1957 1984,1941 1995,1941 C2006,1941 1992,1952 2002,1952 L2013,1952 2013,1952 L2013,1941 C2013,1931 2006,1946 2007,1935 C2008,1925 2013,1941 2013,1930 L2013,1920"/></g><clipPath id="c" clipRule="evenodd" fill="transparent"><use href="#t7860"/></clipPath></defs><svg viewBox="1968 1915 46 43" preserveAspectRatio="xMinYMin meet"><svg width="4380" height="2430"><g><image crossorigin="anonymous" x="0" y="0" href="https://nftpuzzle.license-token.com/assets/completepuzzle.svg" width="100%" height="100%" /><g class="links"><use href="#t7860"/></g></g></svg><svg x="1999" y="1943" height="9%" width="9%" viewBox="0 0 330 330"><g><a xlink:href="https://nftpuzzle.license-token.com/" class="links"><title>See the most innovative NFT based token software licensing project</title><path fill="#E4CF37" id="more" d="M165,0C74.019,0,0,74.019,0,165s74.019,165,165,165s165-74.019,165-165S255.981,0,165,0z M85,190 c-13.785,0-25-11.215-25-25s11.215-25,25-25s25,11.215,25,25S98.785,190,85,190z M165,190c-13.785,0-25-11.215-25-25 s11.215-25,25-25s25,11.215,25,25S178.785,190,165,190z M245,190c-13.785,0-25-11.215-25-25s11.215-25,25-25 c13.785,0,25,11.215,25,25S258.785,190,245,190z"></path></a></g></svg></svg></svg>