<svg version="1.1" xmlns="http://www.w3.org/2000/svg" xmlns:xlink="http://www.w3.org/1999/xlink" fill="transparent" x="0" y="0" width="350" height="350" preserveAspectRatio="xMinYMin slice"><style type="text/css">.links{fill:transparent;stroke: #E4CF37;}.links:hover{fill:#63D272; opacity:0.4;}</style><defs><g id="allt"><path id="t7870" d="M2343,1920 L2333,1920 C2323,1921 2338,1914 2326,1913 C2315,1913 2329,1920 2319,1920 L2310,1920 2310,1920 L2310,1929 C2310,1939 2315,1928 2316,1935 C2318,1942 2308,1934 2309,1943 L2310,1952 2310,1952 L2320,1952 C2330,1952 2318,1957 2325,1958 C2333,1960 2324,1950 2333,1951 L2343,1952 2343,1952 L2343,1941 C2343,1930 2346,1945 2346,1936 C2346,1927 2342,1940 2342,1930 L2343,1920"/></g><clipPath id="c" clipRule="evenodd" fill="transparent"><use href="#t7870"/></clipPath></defs><svg viewBox="2307 1912 40 49" preserveAspectRatio="xMinYMin meet"><svg width="4380" height="2430"><g><image crossorigin="anonymous" x="0" y="0" href="https://nftpuzzle.license-token.com/assets/completepuzzle.svg" width="100%" height="100%" /><g class="links"><use href="#t7870"/></g></g></svg><svg x="2332" y="1946" height="9%" width="9%" viewBox="0 0 330 330"><g><a xlink:href="https://nftpuzzle.license-token.com/" class="links"><title>See the most innovative NFT based token software licensing project</title><path fill="#E4CF37" id="more" d="M165,0C74.019,0,0,74.019,0,165s74.019,165,165,165s165-74.019,165-165S255.981,0,165,0z M85,190 c-13.785,0-25-11.215-25-25s11.215-25,25-25s25,11.215,25,25S98.785,190,85,190z M165,190c-13.785,0-25-11.215-25-25 s11.215-25,25-25s25,11.215,25,25S178.785,190,165,190z M245,190c-13.785,0-25-11.215-25-25s11.215-25,25-25 c13.785,0,25,11.215,25,25S258.785,190,245,190z"></path></a></g></svg></svg></svg>