<svg version="1.1" xmlns="http://www.w3.org/2000/svg" xmlns:xlink="http://www.w3.org/1999/xlink" fill="transparent" x="0" y="0" width="350" height="350" preserveAspectRatio="xMinYMin slice"><style type="text/css">.links{fill:transparent;stroke: #E4CF37;}.links:hover{fill:#63D272; opacity:0.4;}</style><defs><g id="allt"><path id="t7875" d="M2508,1920 L2498,1920 C2488,1920 2498,1915 2489,1915 C2481,1915 2495,1920 2485,1920 L2475,1920 2475,1920 L2473,1929 C2472,1938 2486,1927 2486,1934 C2486,1942 2472,1933 2473,1942 L2475,1952 2475,1952 L2484,1950 C2493,1949 2482,1963 2490,1963 C2498,1963 2488,1949 2498,1950 L2508,1952 2508,1952 L2508,1941 C2508,1931 2505,1946 2505,1935 C2506,1925 2509,1938 2508,1929 L2508,1920"/></g><clipPath id="c" clipRule="evenodd" fill="transparent"><use href="#t7875"/></clipPath></defs><svg viewBox="2471 1914 39 50" preserveAspectRatio="xMinYMin meet"><svg width="4380" height="2430"><g><image crossorigin="anonymous" x="0" y="0" href="https://nftpuzzle.license-token.com/assets/completepuzzle.svg" width="100%" height="100%" /><g class="links"><use href="#t7875"/></g></g></svg><svg x="2495" y="1949" height="9%" width="9%" viewBox="0 0 330 330"><g><a xlink:href="https://nftpuzzle.license-token.com/" class="links"><title>See the most innovative NFT based token software licensing project</title><path fill="#E4CF37" id="more" d="M165,0C74.019,0,0,74.019,0,165s74.019,165,165,165s165-74.019,165-165S255.981,0,165,0z M85,190 c-13.785,0-25-11.215-25-25s11.215-25,25-25s25,11.215,25,25S98.785,190,85,190z M165,190c-13.785,0-25-11.215-25-25 s11.215-25,25-25s25,11.215,25,25S178.785,190,165,190z M245,190c-13.785,0-25-11.215-25-25s11.215-25,25-25 c13.785,0,25,11.215,25,25S258.785,190,245,190z"></path></a></g></svg></svg></svg>