<svg version="1.1" xmlns="http://www.w3.org/2000/svg" xmlns:xlink="http://www.w3.org/1999/xlink" fill="transparent" x="0" y="0" width="350" height="350" preserveAspectRatio="xMinYMin slice"><style type="text/css">.links{fill:transparent;stroke: #E4CF37;}.links:hover{fill:#63D272; opacity:0.4;}</style><defs><g id="allt"><path id="t7886" d="M2871,1920 L2860,1920 C2850,1920 2861,1916 2854,1917 C2847,1918 2856,1921 2847,1920 L2838,1920 2838,1920 L2837,1930 C2837,1940 2841,1929 2842,1937 C2843,1945 2836,1930 2837,1941 L2838,1952 2838,1952 L2848,1951 C2859,1951 2847,1955 2855,1956 C2864,1957 2848,1950 2859,1951 L2871,1952 2871,1952 L2871,1942 C2871,1933 2866,1944 2867,1935 C2868,1927 2871,1938 2871,1929 L2871,1920"/></g><clipPath id="c" clipRule="evenodd" fill="transparent"><use href="#t7886"/></clipPath></defs><svg viewBox="2835 1915 37 43" preserveAspectRatio="xMinYMin meet"><svg width="4380" height="2430"><g><image crossorigin="anonymous" x="0" y="0" href="https://nftpuzzle.license-token.com/assets/completepuzzle.svg" width="100%" height="100%" /><g class="links"><use href="#t7886"/></g></g></svg><svg x="2857" y="1943" height="9%" width="9%" viewBox="0 0 330 330"><g><a xlink:href="https://nftpuzzle.license-token.com/" class="links"><title>See the most innovative NFT based token software licensing project</title><path fill="#E4CF37" id="more" d="M165,0C74.019,0,0,74.019,0,165s74.019,165,165,165s165-74.019,165-165S255.981,0,165,0z M85,190 c-13.785,0-25-11.215-25-25s11.215-25,25-25s25,11.215,25,25S98.785,190,85,190z M165,190c-13.785,0-25-11.215-25-25 s11.215-25,25-25s25,11.215,25,25S178.785,190,165,190z M245,190c-13.785,0-25-11.215-25-25s11.215-25,25-25 c13.785,0,25,11.215,25,25S258.785,190,245,190z"></path></a></g></svg></svg></svg>