<svg version="1.1" xmlns="http://www.w3.org/2000/svg" xmlns:xlink="http://www.w3.org/1999/xlink" fill="transparent" x="0" y="0" width="350" height="350" preserveAspectRatio="xMinYMin slice"><style type="text/css">.links{fill:transparent;stroke: #E4CF37;}.links:hover{fill:#63D272; opacity:0.4;}</style><defs><g id="allt"><path id="t7888" d="M2937,1920 L2926,1920 C2916,1920 2930,1915 2920,1916 C2910,1917 2923,1920 2913,1920 L2904,1920 2904,1920 L2906,1929 C2909,1938 2895,1929 2894,1936 C2893,1943 2904,1930 2904,1941 L2904,1952 2904,1952 L2913,1954 C2923,1957 2913,1944 2920,1942 C2927,1941 2914,1952 2925,1952 L2937,1952 2937,1952 L2937,1941 C2937,1931 2929,1944 2926,1934 C2923,1925 2939,1937 2938,1928 L2937,1920"/></g><clipPath id="c" clipRule="evenodd" fill="transparent"><use href="#t7888"/></clipPath></defs><svg viewBox="2892 1914 48 44" preserveAspectRatio="xMinYMin meet"><svg width="4380" height="2430"><g><image crossorigin="anonymous" x="0" y="0" href="https://nftpuzzle.license-token.com/assets/completepuzzle.svg" width="100%" height="100%" /><g class="links"><use href="#t7888"/></g></g></svg><svg x="2925" y="1943" height="9%" width="9%" viewBox="0 0 330 330"><g><a xlink:href="https://nftpuzzle.license-token.com/" class="links"><title>See the most innovative NFT based token software licensing project</title><path fill="#E4CF37" id="more" d="M165,0C74.019,0,0,74.019,0,165s74.019,165,165,165s165-74.019,165-165S255.981,0,165,0z M85,190 c-13.785,0-25-11.215-25-25s11.215-25,25-25s25,11.215,25,25S98.785,190,85,190z M165,190c-13.785,0-25-11.215-25-25 s11.215-25,25-25s25,11.215,25,25S178.785,190,165,190z M245,190c-13.785,0-25-11.215-25-25s11.215-25,25-25 c13.785,0,25,11.215,25,25S258.785,190,245,190z"></path></a></g></svg></svg></svg>