<svg version="1.1" xmlns="http://www.w3.org/2000/svg" xmlns:xlink="http://www.w3.org/1999/xlink" fill="transparent" x="0" y="0" width="350" height="350" preserveAspectRatio="xMinYMin slice"><style type="text/css">.links{fill:transparent;stroke: #E4CF37;}.links:hover{fill:#63D272; opacity:0.4;}</style><defs><g id="allt"><path id="t7891" d="M3036,1920 L3025,1919 C3014,1919 3029,1927 3020,1925 C3012,1924 3022,1917 3012,1918 L3003,1920 3003,1920 L3003,1929 C3004,1939 3013,1926 3012,1935 C3012,1945 3000,1933 3001,1942 L3003,1952 3003,1952 L3013,1952 C3023,1953 3009,1962 3019,1961 C3029,1960 3016,1949 3026,1950 L3036,1952 3036,1952 L3036,1942 C3036,1932 3032,1946 3032,1937 C3033,1929 3036,1938 3036,1929 L3036,1920"/></g><clipPath id="c" clipRule="evenodd" fill="transparent"><use href="#t7891"/></clipPath></defs><svg viewBox="2999 1916 38 47" preserveAspectRatio="xMinYMin meet"><svg width="4380" height="2430"><g><image crossorigin="anonymous" x="0" y="0" href="https://nftpuzzle.license-token.com/assets/completepuzzle.svg" width="100%" height="100%" /><g class="links"><use href="#t7891"/></g></g></svg><svg x="3022" y="1948" height="9%" width="9%" viewBox="0 0 330 330"><g><a xlink:href="https://nftpuzzle.license-token.com/" class="links"><title>See the most innovative NFT based token software licensing project</title><path fill="#E4CF37" id="more" d="M165,0C74.019,0,0,74.019,0,165s74.019,165,165,165s165-74.019,165-165S255.981,0,165,0z M85,190 c-13.785,0-25-11.215-25-25s11.215-25,25-25s25,11.215,25,25S98.785,190,85,190z M165,190c-13.785,0-25-11.215-25-25 s11.215-25,25-25s25,11.215,25,25S178.785,190,165,190z M245,190c-13.785,0-25-11.215-25-25s11.215-25,25-25 c13.785,0,25,11.215,25,25S258.785,190,245,190z"></path></a></g></svg></svg></svg>