<svg version="1.1" xmlns="http://www.w3.org/2000/svg" xmlns:xlink="http://www.w3.org/1999/xlink" fill="transparent" x="0" y="0" width="350" height="350" preserveAspectRatio="xMinYMin slice"><style type="text/css">.links{fill:transparent;stroke: #E4CF37;}.links:hover{fill:#63D272; opacity:0.4;}</style><defs><g id="allt"><path id="t7894" d="M3135,1920 L3125,1918 C3115,1916 3129,1929 3119,1929 C3109,1930 3122,1920 3112,1920 L3102,1920 3102,1920 L3103,1929 C3105,1939 3094,1928 3094,1935 C3095,1943 3104,1930 3103,1941 L3102,1952 3102,1952 L3111,1953 C3121,1955 3110,1944 3118,1944 C3126,1945 3112,1954 3123,1953 L3135,1952 3135,1952 L3134,1942 C3133,1932 3141,1944 3140,1935 C3140,1926 3135,1939 3135,1929 L3135,1920"/></g><clipPath id="c" clipRule="evenodd" fill="transparent"><use href="#t7894"/></clipPath></defs><svg viewBox="3093 1915 49 41" preserveAspectRatio="xMinYMin meet"><svg width="4380" height="2430"><g><image crossorigin="anonymous" x="0" y="0" href="https://nftpuzzle.license-token.com/assets/completepuzzle.svg" width="100%" height="100%" /><g class="links"><use href="#t7894"/></g></g></svg><svg x="3127" y="1941" height="9%" width="9%" viewBox="0 0 330 330"><g><a xlink:href="https://nftpuzzle.license-token.com/" class="links"><title>See the most innovative NFT based token software licensing project</title><path fill="#E4CF37" id="more" d="M165,0C74.019,0,0,74.019,0,165s74.019,165,165,165s165-74.019,165-165S255.981,0,165,0z M85,190 c-13.785,0-25-11.215-25-25s11.215-25,25-25s25,11.215,25,25S98.785,190,85,190z M165,190c-13.785,0-25-11.215-25-25 s11.215-25,25-25s25,11.215,25,25S178.785,190,165,190z M245,190c-13.785,0-25-11.215-25-25s11.215-25,25-25 c13.785,0,25,11.215,25,25S258.785,190,245,190z"></path></a></g></svg></svg></svg>