<svg version="1.1" xmlns="http://www.w3.org/2000/svg" xmlns:xlink="http://www.w3.org/1999/xlink" fill="transparent" x="0" y="0" width="350" height="350" preserveAspectRatio="xMinYMin slice"><style type="text/css">.links{fill:transparent;stroke: #E4CF37;}.links:hover{fill:#63D272; opacity:0.4;}</style><defs><g id="allt"><path id="t7897" d="M3234,1920 L3224,1920 C3214,1920 3228,1914 3218,1913 C3209,1912 3222,1920 3211,1920 L3201,1920 3201,1920 L3201,1929 C3201,1938 3193,1927 3195,1935 C3198,1943 3202,1933 3201,1942 L3201,1952 3201,1952 L3210,1952 C3220,1952 3208,1944 3216,1946 C3225,1949 3214,1953 3224,1952 L3234,1952 3234,1952 L3234,1942 C3234,1933 3229,1943 3228,1934 C3227,1925 3234,1938 3234,1929 L3234,1920"/></g><clipPath id="c" clipRule="evenodd" fill="transparent"><use href="#t7897"/></clipPath></defs><svg viewBox="3192 1911 43 43" preserveAspectRatio="xMinYMin meet"><svg width="4380" height="2430"><g><image crossorigin="anonymous" x="0" y="0" href="https://nftpuzzle.license-token.com/assets/completepuzzle.svg" width="100%" height="100%" /><g class="links"><use href="#t7897"/></g></g></svg><svg x="3220" y="1939" height="9%" width="9%" viewBox="0 0 330 330"><g><a xlink:href="https://nftpuzzle.license-token.com/" class="links"><title>See the most innovative NFT based token software licensing project</title><path fill="#E4CF37" id="more" d="M165,0C74.019,0,0,74.019,0,165s74.019,165,165,165s165-74.019,165-165S255.981,0,165,0z M85,190 c-13.785,0-25-11.215-25-25s11.215-25,25-25s25,11.215,25,25S98.785,190,85,190z M165,190c-13.785,0-25-11.215-25-25 s11.215-25,25-25s25,11.215,25,25S178.785,190,165,190z M245,190c-13.785,0-25-11.215-25-25s11.215-25,25-25 c13.785,0,25,11.215,25,25S258.785,190,245,190z"></path></a></g></svg></svg></svg>