<svg version="1.1" xmlns="http://www.w3.org/2000/svg" xmlns:xlink="http://www.w3.org/1999/xlink" fill="transparent" x="0" y="0" width="350" height="350" preserveAspectRatio="xMinYMin slice"><style type="text/css">.links{fill:transparent;stroke: #E4CF37;}.links:hover{fill:#63D272; opacity:0.4;}</style><defs><g id="allt"><path id="t7898" d="M3267,1920 L3257,1920 C3248,1920 3259,1909 3248,1911 C3238,1913 3256,1920 3245,1920 L3234,1920 3234,1920 L3234,1929 C3234,1938 3227,1925 3228,1934 C3229,1943 3234,1933 3234,1942 L3234,1952 3234,1952 L3243,1952 C3253,1952 3239,1945 3248,1946 C3257,1947 3248,1952 3257,1952 L3267,1952 3267,1952 L3267,1941 C3267,1931 3272,1944 3272,1936 C3272,1929 3265,1937 3266,1928 L3267,1920"/></g><clipPath id="c" clipRule="evenodd" fill="transparent"><use href="#t7898"/></clipPath></defs><svg viewBox="3226 1908 47 45" preserveAspectRatio="xMinYMin meet"><svg width="4380" height="2430"><g><image crossorigin="anonymous" x="0" y="0" href="https://nftpuzzle.license-token.com/assets/completepuzzle.svg" width="100%" height="100%" /><g class="links"><use href="#t7898"/></g></g></svg><svg x="3258" y="1938" height="9%" width="9%" viewBox="0 0 330 330"><g><a xlink:href="https://nftpuzzle.license-token.com/" class="links"><title>See the most innovative NFT based token software licensing project</title><path fill="#E4CF37" id="more" d="M165,0C74.019,0,0,74.019,0,165s74.019,165,165,165s165-74.019,165-165S255.981,0,165,0z M85,190 c-13.785,0-25-11.215-25-25s11.215-25,25-25s25,11.215,25,25S98.785,190,85,190z M165,190c-13.785,0-25-11.215-25-25 s11.215-25,25-25s25,11.215,25,25S178.785,190,165,190z M245,190c-13.785,0-25-11.215-25-25s11.215-25,25-25 c13.785,0,25,11.215,25,25S258.785,190,245,190z"></path></a></g></svg></svg></svg>