<svg version="1.1" xmlns="http://www.w3.org/2000/svg" xmlns:xlink="http://www.w3.org/1999/xlink" fill="transparent" x="0" y="0" width="350" height="350" preserveAspectRatio="xMinYMin slice"><style type="text/css">.links{fill:transparent;stroke: #E4CF37;}.links:hover{fill:#63D272; opacity:0.4;}</style><defs><g id="allt"><path id="t7905" d="M3498,1920 L3488,1919 C3479,1918 3490,1925 3480,1925 C3470,1926 3487,1920 3476,1920 L3465,1920 3465,1920 L3465,1930 C3465,1941 3463,1927 3463,1936 C3463,1946 3466,1933 3465,1942 L3465,1952 3465,1952 L3476,1952 C3487,1952 3472,1950 3482,1950 C3492,1950 3479,1953 3488,1952 L3498,1952 3498,1952 L3497,1941 C3497,1931 3501,1946 3501,1937 C3502,1929 3498,1940 3498,1930 L3498,1920"/></g><clipPath id="c" clipRule="evenodd" fill="transparent"><use href="#t7905"/></clipPath></defs><svg viewBox="3462 1917 41 37" preserveAspectRatio="xMinYMin meet"><svg width="4380" height="2430"><g><image crossorigin="anonymous" x="0" y="0" href="https://nftpuzzle.license-token.com/assets/completepuzzle.svg" width="100%" height="100%" /><g class="links"><use href="#t7905"/></g></g></svg><svg x="3488" y="1939" height="9%" width="9%" viewBox="0 0 330 330"><g><a xlink:href="https://nftpuzzle.license-token.com/" class="links"><title>See the most innovative NFT based token software licensing project</title><path fill="#E4CF37" id="more" d="M165,0C74.019,0,0,74.019,0,165s74.019,165,165,165s165-74.019,165-165S255.981,0,165,0z M85,190 c-13.785,0-25-11.215-25-25s11.215-25,25-25s25,11.215,25,25S98.785,190,85,190z M165,190c-13.785,0-25-11.215-25-25 s11.215-25,25-25s25,11.215,25,25S178.785,190,165,190z M245,190c-13.785,0-25-11.215-25-25s11.215-25,25-25 c13.785,0,25,11.215,25,25S258.785,190,245,190z"></path></a></g></svg></svg></svg>