<svg version="1.1" xmlns="http://www.w3.org/2000/svg" xmlns:xlink="http://www.w3.org/1999/xlink" fill="transparent" x="0" y="0" width="350" height="350" preserveAspectRatio="xMinYMin slice"><style type="text/css">.links{fill:transparent;stroke: #E4CF37;}.links:hover{fill:#63D272; opacity:0.4;}</style><defs><g id="allt"><path id="t7907" d="M3564,1920 L3554,1919 C3544,1918 3555,1928 3547,1929 C3540,1931 3549,1920 3540,1920 L3531,1920 3531,1920 L3531,1929 C3532,1938 3526,1925 3525,1935 C3524,1945 3531,1932 3531,1942 L3531,1952 3531,1952 L3540,1952 C3550,1953 3536,1947 3546,1946 C3557,1945 3544,1952 3554,1952 L3564,1952 3564,1952 L3564,1941 C3564,1930 3560,1946 3557,1935 C3555,1925 3564,1938 3564,1929 L3564,1920"/></g><clipPath id="c" clipRule="evenodd" fill="transparent"><use href="#t7907"/></clipPath></defs><svg viewBox="3523 1917 42 37" preserveAspectRatio="xMinYMin meet"><svg width="4380" height="2430"><g><image crossorigin="anonymous" x="0" y="0" href="https://nftpuzzle.license-token.com/assets/completepuzzle.svg" width="100%" height="100%" /><g class="links"><use href="#t7907"/></g></g></svg><svg x="3550" y="1939" height="9%" width="9%" viewBox="0 0 330 330"><g><a xlink:href="https://nftpuzzle.license-token.com/" class="links"><title>See the most innovative NFT based token software licensing project</title><path fill="#E4CF37" id="more" d="M165,0C74.019,0,0,74.019,0,165s74.019,165,165,165s165-74.019,165-165S255.981,0,165,0z M85,190 c-13.785,0-25-11.215-25-25s11.215-25,25-25s25,11.215,25,25S98.785,190,85,190z M165,190c-13.785,0-25-11.215-25-25 s11.215-25,25-25s25,11.215,25,25S178.785,190,165,190z M245,190c-13.785,0-25-11.215-25-25s11.215-25,25-25 c13.785,0,25,11.215,25,25S258.785,190,245,190z"></path></a></g></svg></svg></svg>