<svg version="1.1" xmlns="http://www.w3.org/2000/svg" xmlns:xlink="http://www.w3.org/1999/xlink" fill="transparent" x="0" y="0" width="350" height="350" preserveAspectRatio="xMinYMin slice"><style type="text/css">.links{fill:transparent;stroke: #E4CF37;}.links:hover{fill:#63D272; opacity:0.4;}</style><defs><g id="allt"><path id="t7913" d="M3762,1920 L3752,1920 C3743,1921 3752,1911 3743,1913 C3735,1915 3748,1920 3738,1920 L3729,1920 3729,1920 L3729,1929 C3729,1938 3737,1926 3737,1936 C3737,1946 3729,1930 3729,1941 L3729,1952 3729,1952 L3738,1952 C3747,1952 3735,1960 3745,1960 C3756,1960 3739,1952 3750,1952 L3762,1952 3762,1952 L3761,1942 C3761,1933 3768,1946 3770,1936 C3773,1926 3762,1940 3762,1930 L3762,1920"/></g><clipPath id="c" clipRule="evenodd" fill="transparent"><use href="#t7913"/></clipPath></defs><svg viewBox="3728 1910 46 51" preserveAspectRatio="xMinYMin meet"><svg width="4380" height="2430"><g><image crossorigin="anonymous" x="0" y="0" href="https://nftpuzzle.license-token.com/assets/completepuzzle.svg" width="100%" height="100%" /><g class="links"><use href="#t7913"/></g></g></svg><svg x="3759" y="1946" height="9%" width="9%" viewBox="0 0 330 330"><g><a xlink:href="https://nftpuzzle.license-token.com/" class="links"><title>See the most innovative NFT based token software licensing project</title><path fill="#E4CF37" id="more" d="M165,0C74.019,0,0,74.019,0,165s74.019,165,165,165s165-74.019,165-165S255.981,0,165,0z M85,190 c-13.785,0-25-11.215-25-25s11.215-25,25-25s25,11.215,25,25S98.785,190,85,190z M165,190c-13.785,0-25-11.215-25-25 s11.215-25,25-25s25,11.215,25,25S178.785,190,165,190z M245,190c-13.785,0-25-11.215-25-25s11.215-25,25-25 c13.785,0,25,11.215,25,25S258.785,190,245,190z"></path></a></g></svg></svg></svg>