<svg version="1.1" xmlns="http://www.w3.org/2000/svg" xmlns:xlink="http://www.w3.org/1999/xlink" fill="transparent" x="0" y="0" width="350" height="350" preserveAspectRatio="xMinYMin slice"><style type="text/css">.links{fill:transparent;stroke: #E4CF37;}.links:hover{fill:#63D272; opacity:0.4;}</style><defs><g id="allt"><path id="t7918" d="M3927,1920 L3916,1920 C3906,1921 3917,1917 3909,1917 C3901,1917 3912,1920 3903,1920 L3894,1920 3894,1920 L3894,1929 C3894,1939 3885,1928 3886,1935 C3888,1943 3894,1932 3894,1942 L3894,1952 3894,1952 L3904,1952 C3914,1952 3902,1943 3910,1944 C3918,1946 3906,1952 3916,1952 L3927,1952 3927,1952 L3928,1942 C3929,1933 3920,1945 3920,1937 C3920,1929 3927,1939 3927,1929 L3927,1920"/></g><clipPath id="c" clipRule="evenodd" fill="transparent"><use href="#t7918"/></clipPath></defs><svg viewBox="3884 1916 46 37" preserveAspectRatio="xMinYMin meet"><svg width="4380" height="2430"><g><image crossorigin="anonymous" x="0" y="0" href="https://nftpuzzle.license-token.com/assets/completepuzzle.svg" width="100%" height="100%" /><g class="links"><use href="#t7918"/></g></g></svg><svg x="3915" y="1938" height="9%" width="9%" viewBox="0 0 330 330"><g><a xlink:href="https://nftpuzzle.license-token.com/" class="links"><title>See the most innovative NFT based token software licensing project</title><path fill="#E4CF37" id="more" d="M165,0C74.019,0,0,74.019,0,165s74.019,165,165,165s165-74.019,165-165S255.981,0,165,0z M85,190 c-13.785,0-25-11.215-25-25s11.215-25,25-25s25,11.215,25,25S98.785,190,85,190z M165,190c-13.785,0-25-11.215-25-25 s11.215-25,25-25s25,11.215,25,25S178.785,190,165,190z M245,190c-13.785,0-25-11.215-25-25s11.215-25,25-25 c13.785,0,25,11.215,25,25S258.785,190,245,190z"></path></a></g></svg></svg></svg>