<svg version="1.1" xmlns="http://www.w3.org/2000/svg" xmlns:xlink="http://www.w3.org/1999/xlink" fill="transparent" x="0" y="0" width="350" height="350" preserveAspectRatio="xMinYMin slice"><style type="text/css">.links{fill:transparent;stroke: #E4CF37;}.links:hover{fill:#63D272; opacity:0.4;}</style><defs><g id="allt"><path id="t7921" d="M4026,1920 L4015,1920 C4005,1920 4018,1915 4008,1916 C3998,1917 4012,1920 4002,1920 L3993,1920 3993,1920 L3994,1929 C3996,1938 3986,1928 3985,1935 C3984,1942 3995,1933 3994,1942 L3993,1952 3993,1952 L4002,1953 C4012,1955 4001,1945 4008,1944 C4016,1943 4006,1954 4016,1953 L4026,1952 4026,1952 L4025,1941 C4025,1930 4031,1942 4030,1934 C4029,1926 4024,1939 4025,1929 L4026,1920"/></g><clipPath id="c" clipRule="evenodd" fill="transparent"><use href="#t7921"/></clipPath></defs><svg viewBox="3983 1914 49 42" preserveAspectRatio="xMinYMin meet"><svg width="4380" height="2430"><g><image crossorigin="anonymous" x="0" y="0" href="https://nftpuzzle.license-token.com/assets/completepuzzle.svg" width="100%" height="100%" /><g class="links"><use href="#t7921"/></g></g></svg><svg x="4017" y="1941" height="9%" width="9%" viewBox="0 0 330 330"><g><a xlink:href="https://nftpuzzle.license-token.com/" class="links"><title>See the most innovative NFT based token software licensing project</title><path fill="#E4CF37" id="more" d="M165,0C74.019,0,0,74.019,0,165s74.019,165,165,165s165-74.019,165-165S255.981,0,165,0z M85,190 c-13.785,0-25-11.215-25-25s11.215-25,25-25s25,11.215,25,25S98.785,190,85,190z M165,190c-13.785,0-25-11.215-25-25 s11.215-25,25-25s25,11.215,25,25S178.785,190,165,190z M245,190c-13.785,0-25-11.215-25-25s11.215-25,25-25 c13.785,0,25,11.215,25,25S258.785,190,245,190z"></path></a></g></svg></svg></svg>