<svg version="1.1" xmlns="http://www.w3.org/2000/svg" xmlns:xlink="http://www.w3.org/1999/xlink" fill="transparent" x="0" y="0" width="350" height="350" preserveAspectRatio="xMinYMin slice"><style type="text/css">.links{fill:transparent;stroke: #E4CF37;}.links:hover{fill:#63D272; opacity:0.4;}</style><defs><g id="allt"><path id="t7924" d="M4125,1920 L4114,1920 C4104,1920 4115,1916 4106,1916 C4098,1916 4112,1922 4102,1921 L4092,1920 4092,1920 L4091,1928 C4091,1937 4099,1928 4098,1937 C4098,1946 4091,1933 4091,1942 L4092,1952 4092,1952 L4101,1951 C4110,1951 4101,1959 4110,1958 C4119,1958 4105,1951 4115,1951 L4125,1952 4125,1952 L4125,1941 C4125,1931 4128,1942 4128,1935 C4129,1928 4124,1940 4124,1930 L4125,1920"/></g><clipPath id="c" clipRule="evenodd" fill="transparent"><use href="#t7924"/></clipPath></defs><svg viewBox="4090 1915 40 45" preserveAspectRatio="xMinYMin meet"><svg width="4380" height="2430"><g><image crossorigin="anonymous" x="0" y="0" href="https://nftpuzzle.license-token.com/assets/completepuzzle.svg" width="100%" height="100%" /><g class="links"><use href="#t7924"/></g></g></svg><svg x="4115" y="1945" height="9%" width="9%" viewBox="0 0 330 330"><g><a xlink:href="https://nftpuzzle.license-token.com/" class="links"><title>See the most innovative NFT based token software licensing project</title><path fill="#E4CF37" id="more" d="M165,0C74.019,0,0,74.019,0,165s74.019,165,165,165s165-74.019,165-165S255.981,0,165,0z M85,190 c-13.785,0-25-11.215-25-25s11.215-25,25-25s25,11.215,25,25S98.785,190,85,190z M165,190c-13.785,0-25-11.215-25-25 s11.215-25,25-25s25,11.215,25,25S178.785,190,165,190z M245,190c-13.785,0-25-11.215-25-25s11.215-25,25-25 c13.785,0,25,11.215,25,25S258.785,190,245,190z"></path></a></g></svg></svg></svg>