<svg version="1.1" xmlns="http://www.w3.org/2000/svg" xmlns:xlink="http://www.w3.org/1999/xlink" fill="transparent" x="0" y="0" width="350" height="350" preserveAspectRatio="xMinYMin slice"><style type="text/css">.links{fill:transparent;stroke: #E4CF37;}.links:hover{fill:#63D272; opacity:0.4;}</style><defs><g id="allt"><path id="t7932" d="M99,1952 L88,1952 C78,1952 92,1941 81,1943 C70,1945 85,1957 75,1954 L66,1952 66,1952 L66,1961 C66,1970 70,1961 71,1967 C72,1974 65,1966 65,1975 L66,1984 66,1984 L75,1984 C84,1984 75,1988 82,1989 C89,1990 80,1983 89,1983 L99,1984 99,1984 L99,1974 C99,1964 107,1977 106,1967 C106,1957 96,1969 97,1960 L99,1952"/></g><clipPath id="c" clipRule="evenodd" fill="transparent"><use href="#t7932"/></clipPath></defs><svg viewBox="64 1940 44 51" preserveAspectRatio="xMinYMin meet"><svg width="4380" height="2430"><g><image crossorigin="anonymous" x="0" y="0" href="https://nftpuzzle.license-token.com/assets/completepuzzle.svg" width="100%" height="100%" /><g class="links"><use href="#t7932"/></g></g></svg><svg x="93" y="1976" height="9%" width="9%" viewBox="0 0 330 330"><g><a xlink:href="https://nftpuzzle.license-token.com/" class="links"><title>See the most innovative NFT based token software licensing project</title><path fill="#E4CF37" id="more" d="M165,0C74.019,0,0,74.019,0,165s74.019,165,165,165s165-74.019,165-165S255.981,0,165,0z M85,190 c-13.785,0-25-11.215-25-25s11.215-25,25-25s25,11.215,25,25S98.785,190,85,190z M165,190c-13.785,0-25-11.215-25-25 s11.215-25,25-25s25,11.215,25,25S178.785,190,165,190z M245,190c-13.785,0-25-11.215-25-25s11.215-25,25-25 c13.785,0,25,11.215,25,25S258.785,190,245,190z"></path></a></g></svg></svg></svg>