<svg version="1.1" xmlns="http://www.w3.org/2000/svg" xmlns:xlink="http://www.w3.org/1999/xlink" fill="transparent" x="0" y="0" width="350" height="350" preserveAspectRatio="xMinYMin slice"><style type="text/css">.links{fill:transparent;stroke: #E4CF37;}.links:hover{fill:#63D272; opacity:0.4;}</style><defs><g id="allt"><path id="t7938" d="M297,1952 L285,1952 C274,1952 287,1945 279,1944 C272,1944 283,1954 273,1953 L264,1952 264,1952 L265,1961 C267,1970 256,1957 254,1966 C252,1975 268,1964 266,1974 L264,1984 264,1984 L273,1985 C283,1987 269,1976 278,1974 C287,1973 276,1988 286,1986 L297,1984 297,1984 L297,1973 C297,1963 293,1976 294,1968 C295,1960 298,1971 297,1961 L297,1952"/></g><clipPath id="c" clipRule="evenodd" fill="transparent"><use href="#t7938"/></clipPath></defs><svg viewBox="251 1943 48 46" preserveAspectRatio="xMinYMin meet"><svg width="4380" height="2430"><g><image crossorigin="anonymous" x="0" y="0" href="https://nftpuzzle.license-token.com/assets/completepuzzle.svg" width="100%" height="100%" /><g class="links"><use href="#t7938"/></g></g></svg><svg x="284" y="1974" height="9%" width="9%" viewBox="0 0 330 330"><g><a xlink:href="https://nftpuzzle.license-token.com/" class="links"><title>See the most innovative NFT based token software licensing project</title><path fill="#E4CF37" id="more" d="M165,0C74.019,0,0,74.019,0,165s74.019,165,165,165s165-74.019,165-165S255.981,0,165,0z M85,190 c-13.785,0-25-11.215-25-25s11.215-25,25-25s25,11.215,25,25S98.785,190,85,190z M165,190c-13.785,0-25-11.215-25-25 s11.215-25,25-25s25,11.215,25,25S178.785,190,165,190z M245,190c-13.785,0-25-11.215-25-25s11.215-25,25-25 c13.785,0,25,11.215,25,25S258.785,190,245,190z"></path></a></g></svg></svg></svg>