<svg version="1.1" xmlns="http://www.w3.org/2000/svg" xmlns:xlink="http://www.w3.org/1999/xlink" fill="transparent" x="0" y="0" width="350" height="350" preserveAspectRatio="xMinYMin slice"><style type="text/css">.links{fill:transparent;stroke: #E4CF37;}.links:hover{fill:#63D272; opacity:0.4;}</style><defs><g id="allt"><path id="t7941" d="M396,1952 L386,1952 C377,1952 390,1956 380,1956 C371,1956 383,1949 373,1950 L363,1952 363,1952 L363,1962 C363,1972 360,1957 358,1966 C357,1976 364,1962 363,1973 L363,1984 363,1984 L373,1984 C384,1984 368,1981 378,1979 C388,1978 374,1985 385,1984 L396,1984 396,1984 L396,1974 C397,1965 384,1977 383,1967 C383,1958 400,1970 398,1961 L396,1952"/></g><clipPath id="c" clipRule="evenodd" fill="transparent"><use href="#t7941"/></clipPath></defs><svg viewBox="356 1948 45 38" preserveAspectRatio="xMinYMin meet"><svg width="4380" height="2430"><g><image crossorigin="anonymous" x="0" y="0" href="https://nftpuzzle.license-token.com/assets/completepuzzle.svg" width="100%" height="100%" /><g class="links"><use href="#t7941"/></g></g></svg><svg x="386" y="1971" height="9%" width="9%" viewBox="0 0 330 330"><g><a xlink:href="https://nftpuzzle.license-token.com/" class="links"><title>See the most innovative NFT based token software licensing project</title><path fill="#E4CF37" id="more" d="M165,0C74.019,0,0,74.019,0,165s74.019,165,165,165s165-74.019,165-165S255.981,0,165,0z M85,190 c-13.785,0-25-11.215-25-25s11.215-25,25-25s25,11.215,25,25S98.785,190,85,190z M165,190c-13.785,0-25-11.215-25-25 s11.215-25,25-25s25,11.215,25,25S178.785,190,165,190z M245,190c-13.785,0-25-11.215-25-25s11.215-25,25-25 c13.785,0,25,11.215,25,25S258.785,190,245,190z"></path></a></g></svg></svg></svg>