<svg version="1.1" xmlns="http://www.w3.org/2000/svg" xmlns:xlink="http://www.w3.org/1999/xlink" fill="transparent" x="0" y="0" width="350" height="350" preserveAspectRatio="xMinYMin slice"><style type="text/css">.links{fill:transparent;stroke: #E4CF37;}.links:hover{fill:#63D272; opacity:0.4;}</style><defs><g id="allt"><path id="t7949" d="M660,1952 L650,1950 C640,1948 652,1960 642,1960 C633,1961 645,1948 636,1950 L627,1952 627,1952 L627,1962 C628,1973 622,1961 622,1969 C622,1977 630,1965 628,1974 L627,1984 627,1984 L638,1984 C649,1985 636,1979 644,1979 C653,1979 641,1987 650,1985 L660,1984 660,1984 L660,1974 C660,1965 653,1975 651,1967 C650,1960 661,1973 660,1962 L660,1952"/></g><clipPath id="c" clipRule="evenodd" fill="transparent"><use href="#t7949"/></clipPath></defs><svg viewBox="621 1947 41 41" preserveAspectRatio="xMinYMin meet"><svg width="4380" height="2430"><g><image crossorigin="anonymous" x="0" y="0" href="https://nftpuzzle.license-token.com/assets/completepuzzle.svg" width="100%" height="100%" /><g class="links"><use href="#t7949"/></g></g></svg><svg x="647" y="1973" height="9%" width="9%" viewBox="0 0 330 330"><g><a xlink:href="https://nftpuzzle.license-token.com/" class="links"><title>See the most innovative NFT based token software licensing project</title><path fill="#E4CF37" id="more" d="M165,0C74.019,0,0,74.019,0,165s74.019,165,165,165s165-74.019,165-165S255.981,0,165,0z M85,190 c-13.785,0-25-11.215-25-25s11.215-25,25-25s25,11.215,25,25S98.785,190,85,190z M165,190c-13.785,0-25-11.215-25-25 s11.215-25,25-25s25,11.215,25,25S178.785,190,165,190z M245,190c-13.785,0-25-11.215-25-25s11.215-25,25-25 c13.785,0,25,11.215,25,25S258.785,190,245,190z"></path></a></g></svg></svg></svg>