<svg version="1.1" xmlns="http://www.w3.org/2000/svg" xmlns:xlink="http://www.w3.org/1999/xlink" fill="transparent" x="0" y="0" width="350" height="350" preserveAspectRatio="xMinYMin slice"><style type="text/css">.links{fill:transparent;stroke: #E4CF37;}.links:hover{fill:#63D272; opacity:0.4;}</style><defs><g id="allt"><path id="t7953" d="M792,1952 L781,1952 C771,1952 786,1957 775,1957 C764,1958 779,1949 769,1950 L759,1952 759,1952 L759,1961 C759,1971 756,1961 755,1968 C755,1975 759,1962 759,1973 L759,1984 759,1984 L768,1984 C778,1984 768,1981 775,1980 C782,1980 770,1984 781,1984 L792,1984 792,1984 L790,1975 C789,1966 803,1974 803,1967 C803,1960 791,1969 791,1960 L792,1952"/></g><clipPath id="c" clipRule="evenodd" fill="transparent"><use href="#t7953"/></clipPath></defs><svg viewBox="754 1948 50 37" preserveAspectRatio="xMinYMin meet"><svg width="4380" height="2430"><g><image crossorigin="anonymous" x="0" y="0" href="https://nftpuzzle.license-token.com/assets/completepuzzle.svg" width="100%" height="100%" /><g class="links"><use href="#t7953"/></g></g></svg><svg x="789" y="1970" height="9%" width="9%" viewBox="0 0 330 330"><g><a xlink:href="https://nftpuzzle.license-token.com/" class="links"><title>See the most innovative NFT based token software licensing project</title><path fill="#E4CF37" id="more" d="M165,0C74.019,0,0,74.019,0,165s74.019,165,165,165s165-74.019,165-165S255.981,0,165,0z M85,190 c-13.785,0-25-11.215-25-25s11.215-25,25-25s25,11.215,25,25S98.785,190,85,190z M165,190c-13.785,0-25-11.215-25-25 s11.215-25,25-25s25,11.215,25,25S178.785,190,165,190z M245,190c-13.785,0-25-11.215-25-25s11.215-25,25-25 c13.785,0,25,11.215,25,25S258.785,190,245,190z"></path></a></g></svg></svg></svg>