<svg version="1.1" xmlns="http://www.w3.org/2000/svg" xmlns:xlink="http://www.w3.org/1999/xlink" fill="transparent" x="0" y="0" width="350" height="350" preserveAspectRatio="xMinYMin slice"><style type="text/css">.links{fill:transparent;stroke: #E4CF37;}.links:hover{fill:#63D272; opacity:0.4;}</style><defs><g id="allt"><path id="t7958" d="M957,1952 L946,1952 C936,1952 948,1957 938,1956 C929,1956 943,1949 933,1950 L924,1952 924,1952 L924,1960 C924,1969 921,1960 920,1969 C919,1978 925,1965 924,1974 L924,1984 924,1984 L933,1984 C942,1984 932,1981 941,1980 C951,1979 938,1985 947,1984 L957,1984 957,1984 L958,1975 C959,1966 946,1978 946,1969 C946,1961 958,1969 957,1960 L957,1952"/></g><clipPath id="c" clipRule="evenodd" fill="transparent"><use href="#t7958"/></clipPath></defs><svg viewBox="918 1948 42 38" preserveAspectRatio="xMinYMin meet"><svg width="4380" height="2430"><g><image crossorigin="anonymous" x="0" y="0" href="https://nftpuzzle.license-token.com/assets/completepuzzle.svg" width="100%" height="100%" /><g class="links"><use href="#t7958"/></g></g></svg><svg x="945" y="1971" height="9%" width="9%" viewBox="0 0 330 330"><g><a xlink:href="https://nftpuzzle.license-token.com/" class="links"><title>See the most innovative NFT based token software licensing project</title><path fill="#E4CF37" id="more" d="M165,0C74.019,0,0,74.019,0,165s74.019,165,165,165s165-74.019,165-165S255.981,0,165,0z M85,190 c-13.785,0-25-11.215-25-25s11.215-25,25-25s25,11.215,25,25S98.785,190,85,190z M165,190c-13.785,0-25-11.215-25-25 s11.215-25,25-25s25,11.215,25,25S178.785,190,165,190z M245,190c-13.785,0-25-11.215-25-25s11.215-25,25-25 c13.785,0,25,11.215,25,25S258.785,190,245,190z"></path></a></g></svg></svg></svg>