<svg version="1.1" xmlns="http://www.w3.org/2000/svg" xmlns:xlink="http://www.w3.org/1999/xlink" fill="transparent" x="0" y="0" width="350" height="350" preserveAspectRatio="xMinYMin slice"><style type="text/css">.links{fill:transparent;stroke: #E4CF37;}.links:hover{fill:#63D272; opacity:0.4;}</style><defs><g id="allt"><path id="t7959" d="M990,1952 L980,1952 C971,1953 980,1945 972,1943 C965,1941 975,1952 966,1952 L957,1952 957,1952 L957,1960 C958,1969 946,1961 946,1969 C946,1978 959,1966 958,1975 L957,1984 957,1984 L966,1984 C975,1985 966,1973 975,1973 C984,1974 971,1986 980,1985 L990,1984 990,1984 L992,1973 C994,1962 985,1974 982,1967 C980,1960 992,1972 991,1962 L990,1952"/></g><clipPath id="c" clipRule="evenodd" fill="transparent"><use href="#t7959"/></clipPath></defs><svg viewBox="945 1940 50 47" preserveAspectRatio="xMinYMin meet"><svg width="4380" height="2430"><g><image crossorigin="anonymous" x="0" y="0" href="https://nftpuzzle.license-token.com/assets/completepuzzle.svg" width="100%" height="100%" /><g class="links"><use href="#t7959"/></g></g></svg><svg x="980" y="1972" height="9%" width="9%" viewBox="0 0 330 330"><g><a xlink:href="https://nftpuzzle.license-token.com/" class="links"><title>See the most innovative NFT based token software licensing project</title><path fill="#E4CF37" id="more" d="M165,0C74.019,0,0,74.019,0,165s74.019,165,165,165s165-74.019,165-165S255.981,0,165,0z M85,190 c-13.785,0-25-11.215-25-25s11.215-25,25-25s25,11.215,25,25S98.785,190,85,190z M165,190c-13.785,0-25-11.215-25-25 s11.215-25,25-25s25,11.215,25,25S178.785,190,165,190z M245,190c-13.785,0-25-11.215-25-25s11.215-25,25-25 c13.785,0,25,11.215,25,25S258.785,190,245,190z"></path></a></g></svg></svg></svg>