<svg version="1.1" xmlns="http://www.w3.org/2000/svg" xmlns:xlink="http://www.w3.org/1999/xlink" fill="transparent" x="0" y="0" width="350" height="350" preserveAspectRatio="xMinYMin slice"><style type="text/css">.links{fill:transparent;stroke: #E4CF37;}.links:hover{fill:#63D272; opacity:0.4;}</style><defs><g id="allt"><path id="t7971" d="M1386,1952 L1375,1952 C1364,1952 1380,1948 1370,1948 C1361,1949 1372,1952 1362,1952 L1353,1952 1353,1952 L1353,1961 C1353,1970 1348,1958 1348,1966 C1348,1975 1353,1964 1353,1974 L1353,1984 1353,1984 L1362,1984 C1372,1984 1359,1979 1367,1979 C1376,1979 1366,1984 1376,1984 L1386,1984 1386,1984 L1387,1975 C1389,1966 1375,1976 1377,1968 C1380,1960 1386,1970 1386,1961 L1386,1952"/></g><clipPath id="c" clipRule="evenodd" fill="transparent"><use href="#t7971"/></clipPath></defs><svg viewBox="1347 1947 43 38" preserveAspectRatio="xMinYMin meet"><svg width="4380" height="2430"><g><image crossorigin="anonymous" x="0" y="0" href="https://nftpuzzle.license-token.com/assets/completepuzzle.svg" width="100%" height="100%" /><g class="links"><use href="#t7971"/></g></g></svg><svg x="1375" y="1970" height="9%" width="9%" viewBox="0 0 330 330"><g><a xlink:href="https://nftpuzzle.license-token.com/" class="links"><title>See the most innovative NFT based token software licensing project</title><path fill="#E4CF37" id="more" d="M165,0C74.019,0,0,74.019,0,165s74.019,165,165,165s165-74.019,165-165S255.981,0,165,0z M85,190 c-13.785,0-25-11.215-25-25s11.215-25,25-25s25,11.215,25,25S98.785,190,85,190z M165,190c-13.785,0-25-11.215-25-25 s11.215-25,25-25s25,11.215,25,25S178.785,190,165,190z M245,190c-13.785,0-25-11.215-25-25s11.215-25,25-25 c13.785,0,25,11.215,25,25S258.785,190,245,190z"></path></a></g></svg></svg></svg>