<svg version="1.1" xmlns="http://www.w3.org/2000/svg" xmlns:xlink="http://www.w3.org/1999/xlink" fill="transparent" x="0" y="0" width="350" height="350" preserveAspectRatio="xMinYMin slice"><style type="text/css">.links{fill:transparent;stroke: #E4CF37;}.links:hover{fill:#63D272; opacity:0.4;}</style><defs><g id="allt"><path id="t7975" d="M1518,1952 L1507,1950 C1496,1948 1510,1958 1501,1960 C1492,1962 1503,1949 1494,1950 L1485,1952 1485,1952 L1485,1961 C1485,1971 1482,1960 1481,1969 C1480,1979 1486,1965 1485,1974 L1485,1984 1485,1984 L1494,1984 C1504,1984 1494,1981 1503,1980 C1513,1979 1499,1985 1508,1984 L1518,1984 1518,1984 L1518,1974 C1518,1964 1524,1978 1524,1967 C1524,1957 1517,1970 1517,1961 L1518,1952"/></g><clipPath id="c" clipRule="evenodd" fill="transparent"><use href="#t7975"/></clipPath></defs><svg viewBox="1479 1947 46 39" preserveAspectRatio="xMinYMin meet"><svg width="4380" height="2430"><g><image crossorigin="anonymous" x="0" y="0" href="https://nftpuzzle.license-token.com/assets/completepuzzle.svg" width="100%" height="100%" /><g class="links"><use href="#t7975"/></g></g></svg><svg x="1510" y="1971" height="9%" width="9%" viewBox="0 0 330 330"><g><a xlink:href="https://nftpuzzle.license-token.com/" class="links"><title>See the most innovative NFT based token software licensing project</title><path fill="#E4CF37" id="more" d="M165,0C74.019,0,0,74.019,0,165s74.019,165,165,165s165-74.019,165-165S255.981,0,165,0z M85,190 c-13.785,0-25-11.215-25-25s11.215-25,25-25s25,11.215,25,25S98.785,190,85,190z M165,190c-13.785,0-25-11.215-25-25 s11.215-25,25-25s25,11.215,25,25S178.785,190,165,190z M245,190c-13.785,0-25-11.215-25-25s11.215-25,25-25 c13.785,0,25,11.215,25,25S258.785,190,245,190z"></path></a></g></svg></svg></svg>