<svg version="1.1" xmlns="http://www.w3.org/2000/svg" xmlns:xlink="http://www.w3.org/1999/xlink" fill="transparent" x="0" y="0" width="350" height="350" preserveAspectRatio="xMinYMin slice"><style type="text/css">.links{fill:transparent;stroke: #E4CF37;}.links:hover{fill:#63D272; opacity:0.4;}</style><defs><g id="allt"><path id="t7977" d="M1584,1952 L1573,1954 C1563,1956 1578,1943 1569,1945 C1560,1948 1571,1952 1561,1952 L1551,1952 1551,1952 L1551,1961 C1551,1970 1559,1960 1558,1968 C1558,1977 1551,1962 1551,1973 L1551,1984 1551,1984 L1560,1984 C1570,1984 1560,1992 1568,1991 C1577,1991 1561,1984 1572,1984 L1584,1984 1584,1984 L1584,1973 C1584,1963 1577,1976 1576,1967 C1576,1958 1585,1972 1584,1962 L1584,1952"/></g><clipPath id="c" clipRule="evenodd" fill="transparent"><use href="#t7977"/></clipPath></defs><svg viewBox="1550 1942 36 51" preserveAspectRatio="xMinYMin meet"><svg width="4380" height="2430"><g><image crossorigin="anonymous" x="0" y="0" href="https://nftpuzzle.license-token.com/assets/completepuzzle.svg" width="100%" height="100%" /><g class="links"><use href="#t7977"/></g></g></svg><svg x="1571" y="1978" height="9%" width="9%" viewBox="0 0 330 330"><g><a xlink:href="https://nftpuzzle.license-token.com/" class="links"><title>See the most innovative NFT based token software licensing project</title><path fill="#E4CF37" id="more" d="M165,0C74.019,0,0,74.019,0,165s74.019,165,165,165s165-74.019,165-165S255.981,0,165,0z M85,190 c-13.785,0-25-11.215-25-25s11.215-25,25-25s25,11.215,25,25S98.785,190,85,190z M165,190c-13.785,0-25-11.215-25-25 s11.215-25,25-25s25,11.215,25,25S178.785,190,165,190z M245,190c-13.785,0-25-11.215-25-25s11.215-25,25-25 c13.785,0,25,11.215,25,25S258.785,190,245,190z"></path></a></g></svg></svg></svg>