<svg version="1.1" xmlns="http://www.w3.org/2000/svg" xmlns:xlink="http://www.w3.org/1999/xlink" fill="transparent" x="0" y="0" width="350" height="350" preserveAspectRatio="xMinYMin slice"><style type="text/css">.links{fill:transparent;stroke: #E4CF37;}.links:hover{fill:#63D272; opacity:0.4;}</style><defs><g id="allt"><path id="t7979" d="M1650,1952 L1640,1952 C1630,1952 1641,1948 1631,1948 C1621,1949 1635,1952 1626,1952 L1617,1952 1617,1952 L1617,1962 C1618,1972 1611,1960 1610,1969 C1610,1978 1617,1962 1617,1973 L1617,1984 1617,1984 L1627,1984 C1638,1985 1626,1978 1635,1977 C1644,1977 1628,1984 1639,1984 L1650,1984 1650,1984 L1650,1974 C1650,1965 1645,1974 1644,1967 C1644,1960 1652,1971 1651,1961 L1650,1952"/></g><clipPath id="c" clipRule="evenodd" fill="transparent"><use href="#t7979"/></clipPath></defs><svg viewBox="1609 1947 44 39" preserveAspectRatio="xMinYMin meet"><svg width="4380" height="2430"><g><image crossorigin="anonymous" x="0" y="0" href="https://nftpuzzle.license-token.com/assets/completepuzzle.svg" width="100%" height="100%" /><g class="links"><use href="#t7979"/></g></g></svg><svg x="1638" y="1971" height="9%" width="9%" viewBox="0 0 330 330"><g><a xlink:href="https://nftpuzzle.license-token.com/" class="links"><title>See the most innovative NFT based token software licensing project</title><path fill="#E4CF37" id="more" d="M165,0C74.019,0,0,74.019,0,165s74.019,165,165,165s165-74.019,165-165S255.981,0,165,0z M85,190 c-13.785,0-25-11.215-25-25s11.215-25,25-25s25,11.215,25,25S98.785,190,85,190z M165,190c-13.785,0-25-11.215-25-25 s11.215-25,25-25s25,11.215,25,25S178.785,190,165,190z M245,190c-13.785,0-25-11.215-25-25s11.215-25,25-25 c13.785,0,25,11.215,25,25S258.785,190,245,190z"></path></a></g></svg></svg></svg>