<svg version="1.1" xmlns="http://www.w3.org/2000/svg" xmlns:xlink="http://www.w3.org/1999/xlink" fill="transparent" x="0" y="0" width="350" height="350" preserveAspectRatio="xMinYMin slice"><style type="text/css">.links{fill:transparent;stroke: #E4CF37;}.links:hover{fill:#63D272; opacity:0.4;}</style><defs><g id="allt"><path id="t7986" d="M1881,1952 L1870,1952 C1859,1952 1875,1945 1865,1943 C1856,1942 1868,1952 1858,1952 L1848,1952 1848,1952 L1848,1961 C1848,1970 1852,1957 1851,1968 C1850,1979 1848,1965 1848,1974 L1848,1984 1848,1984 L1857,1984 C1867,1984 1853,1988 1864,1987 C1876,1986 1861,1984 1871,1984 L1881,1984 1881,1984 L1883,1975 C1886,1966 1869,1977 1872,1967 C1875,1958 1882,1973 1881,1962 L1881,1952"/></g><clipPath id="c" clipRule="evenodd" fill="transparent"><use href="#t7986"/></clipPath></defs><svg viewBox="1847 1941 40 48" preserveAspectRatio="xMinYMin meet"><svg width="4380" height="2430"><g><image crossorigin="anonymous" x="0" y="0" href="https://nftpuzzle.license-token.com/assets/completepuzzle.svg" width="100%" height="100%" /><g class="links"><use href="#t7986"/></g></g></svg><svg x="1872" y="1974" height="9%" width="9%" viewBox="0 0 330 330"><g><a xlink:href="https://nftpuzzle.license-token.com/" class="links"><title>See the most innovative NFT based token software licensing project</title><path fill="#E4CF37" id="more" d="M165,0C74.019,0,0,74.019,0,165s74.019,165,165,165s165-74.019,165-165S255.981,0,165,0z M85,190 c-13.785,0-25-11.215-25-25s11.215-25,25-25s25,11.215,25,25S98.785,190,85,190z M165,190c-13.785,0-25-11.215-25-25 s11.215-25,25-25s25,11.215,25,25S178.785,190,165,190z M245,190c-13.785,0-25-11.215-25-25s11.215-25,25-25 c13.785,0,25,11.215,25,25S258.785,190,245,190z"></path></a></g></svg></svg></svg>