<svg version="1.1" xmlns="http://www.w3.org/2000/svg" xmlns:xlink="http://www.w3.org/1999/xlink" fill="transparent" x="0" y="0" width="350" height="350" preserveAspectRatio="xMinYMin slice"><style type="text/css">.links{fill:transparent;stroke: #E4CF37;}.links:hover{fill:#63D272; opacity:0.4;}</style><defs><g id="allt"><path id="t7994" d="M2145,1952 L2134,1952 C2123,1952 2135,1945 2128,1945 C2121,1945 2132,1955 2122,1953 L2112,1952 2112,1952 L2112,1962 C2112,1972 2109,1961 2109,1968 C2109,1975 2112,1963 2112,1973 L2112,1984 2112,1984 L2122,1984 C2133,1984 2121,1981 2128,1981 C2136,1981 2123,1984 2134,1984 L2145,1984 2145,1984 L2145,1975 C2146,1966 2135,1975 2136,1967 C2137,1960 2148,1972 2146,1962 L2145,1952"/></g><clipPath id="c" clipRule="evenodd" fill="transparent"><use href="#t7994"/></clipPath></defs><svg viewBox="2108 1944 41 41" preserveAspectRatio="xMinYMin meet"><svg width="4380" height="2430"><g><image crossorigin="anonymous" x="0" y="0" href="https://nftpuzzle.license-token.com/assets/completepuzzle.svg" width="100%" height="100%" /><g class="links"><use href="#t7994"/></g></g></svg><svg x="2134" y="1970" height="9%" width="9%" viewBox="0 0 330 330"><g><a xlink:href="https://nftpuzzle.license-token.com/" class="links"><title>See the most innovative NFT based token software licensing project</title><path fill="#E4CF37" id="more" d="M165,0C74.019,0,0,74.019,0,165s74.019,165,165,165s165-74.019,165-165S255.981,0,165,0z M85,190 c-13.785,0-25-11.215-25-25s11.215-25,25-25s25,11.215,25,25S98.785,190,85,190z M165,190c-13.785,0-25-11.215-25-25 s11.215-25,25-25s25,11.215,25,25S178.785,190,165,190z M245,190c-13.785,0-25-11.215-25-25s11.215-25,25-25 c13.785,0,25,11.215,25,25S258.785,190,245,190z"></path></a></g></svg></svg></svg>