<svg version="1.1" xmlns="http://www.w3.org/2000/svg" xmlns:xlink="http://www.w3.org/1999/xlink" fill="transparent" x="0" y="0" width="350" height="350" preserveAspectRatio="xMinYMin slice"><style type="text/css">.links{fill:transparent;stroke: #E4CF37;}.links:hover{fill:#63D272; opacity:0.4;}</style><defs><g id="allt"><path id="t7997" d="M2244,1952 L2234,1952 C2225,1953 2234,1944 2225,1944 C2216,1944 2229,1955 2220,1953 L2211,1952 2211,1952 L2211,1961 C2211,1970 2206,1961 2205,1967 C2204,1974 2214,1965 2212,1974 L2211,1984 2211,1984 L2220,1984 C2229,1984 2220,1979 2227,1978 C2234,1977 2225,1987 2234,1985 L2244,1984 2244,1984 L2243,1974 C2242,1965 2250,1975 2251,1967 C2253,1959 2244,1970 2244,1961 L2244,1952"/></g><clipPath id="c" clipRule="evenodd" fill="transparent"><use href="#t7997"/></clipPath></defs><svg viewBox="2203 1943 51 45" preserveAspectRatio="xMinYMin meet"><svg width="4380" height="2430"><g><image crossorigin="anonymous" x="0" y="0" href="https://nftpuzzle.license-token.com/assets/completepuzzle.svg" width="100%" height="100%" /><g class="links"><use href="#t7997"/></g></g></svg><svg x="2239" y="1973" height="9%" width="9%" viewBox="0 0 330 330"><g><a xlink:href="https://nftpuzzle.license-token.com/" class="links"><title>See the most innovative NFT based token software licensing project</title><path fill="#E4CF37" id="more" d="M165,0C74.019,0,0,74.019,0,165s74.019,165,165,165s165-74.019,165-165S255.981,0,165,0z M85,190 c-13.785,0-25-11.215-25-25s11.215-25,25-25s25,11.215,25,25S98.785,190,85,190z M165,190c-13.785,0-25-11.215-25-25 s11.215-25,25-25s25,11.215,25,25S178.785,190,165,190z M245,190c-13.785,0-25-11.215-25-25s11.215-25,25-25 c13.785,0,25,11.215,25,25S258.785,190,245,190z"></path></a></g></svg></svg></svg>