<svg version="1.1" xmlns="http://www.w3.org/2000/svg" xmlns:xlink="http://www.w3.org/1999/xlink" fill="transparent" x="0" y="0" width="350" height="350" preserveAspectRatio="xMinYMin slice"><style type="text/css">.links{fill:transparent;stroke: #E4CF37;}.links:hover{fill:#63D272; opacity:0.4;}</style><defs><g id="allt"><path id="t7998" d="M2277,1952 L2266,1952 C2256,1952 2269,1939 2261,1939 C2253,1940 2262,1954 2253,1953 L2244,1952 2244,1952 L2244,1961 C2244,1970 2253,1959 2251,1967 C2250,1975 2242,1965 2243,1974 L2244,1984 2244,1984 L2253,1984 C2263,1984 2251,1993 2259,1991 C2267,1990 2257,1982 2267,1983 L2277,1984 2277,1984 L2276,1974 C2276,1965 2286,1976 2286,1967 C2287,1958 2272,1973 2274,1962 L2277,1952"/></g><clipPath id="c" clipRule="evenodd" fill="transparent"><use href="#t7998"/></clipPath></defs><svg viewBox="2241 1938 47 56" preserveAspectRatio="xMinYMin meet"><svg width="4380" height="2430"><g><image crossorigin="anonymous" x="0" y="0" href="https://nftpuzzle.license-token.com/assets/completepuzzle.svg" width="100%" height="100%" /><g class="links"><use href="#t7998"/></g></g></svg><svg x="2273" y="1979" height="9%" width="9%" viewBox="0 0 330 330"><g><a xlink:href="https://nftpuzzle.license-token.com/" class="links"><title>See the most innovative NFT based token software licensing project</title><path fill="#E4CF37" id="more" d="M165,0C74.019,0,0,74.019,0,165s74.019,165,165,165s165-74.019,165-165S255.981,0,165,0z M85,190 c-13.785,0-25-11.215-25-25s11.215-25,25-25s25,11.215,25,25S98.785,190,85,190z M165,190c-13.785,0-25-11.215-25-25 s11.215-25,25-25s25,11.215,25,25S178.785,190,165,190z M245,190c-13.785,0-25-11.215-25-25s11.215-25,25-25 c13.785,0,25,11.215,25,25S258.785,190,245,190z"></path></a></g></svg></svg></svg>