<svg version="1.1" xmlns="http://www.w3.org/2000/svg" xmlns:xlink="http://www.w3.org/1999/xlink" fill="transparent" x="0" y="0" width="350" height="350" preserveAspectRatio="xMinYMin slice"><style type="text/css">.links{fill:transparent;stroke: #E4CF37;}.links:hover{fill:#63D272; opacity:0.4;}</style><defs><g id="allt"><path id="t8007" d="M2574,1952 L2563,1952 C2553,1952 2567,1948 2557,1949 C2547,1950 2559,1953 2550,1952 L2541,1952 2541,1952 L2540,1961 C2539,1970 2549,1958 2548,1967 C2547,1977 2541,1965 2541,1974 L2541,1984 2541,1984 L2550,1983 C2559,1982 2547,1992 2557,1991 C2567,1990 2554,1984 2564,1984 L2574,1984 2574,1984 L2574,1974 C2574,1965 2570,1979 2570,1969 C2571,1960 2574,1969 2574,1960 L2574,1952"/></g><clipPath id="c" clipRule="evenodd" fill="transparent"><use href="#t8007"/></clipPath></defs><svg viewBox="2538 1947 37 46" preserveAspectRatio="xMinYMin meet"><svg width="4380" height="2430"><g><image crossorigin="anonymous" x="0" y="0" href="https://nftpuzzle.license-token.com/assets/completepuzzle.svg" width="100%" height="100%" /><g class="links"><use href="#t8007"/></g></g></svg><svg x="2560" y="1978" height="9%" width="9%" viewBox="0 0 330 330"><g><a xlink:href="https://nftpuzzle.license-token.com/" class="links"><title>See the most innovative NFT based token software licensing project</title><path fill="#E4CF37" id="more" d="M165,0C74.019,0,0,74.019,0,165s74.019,165,165,165s165-74.019,165-165S255.981,0,165,0z M85,190 c-13.785,0-25-11.215-25-25s11.215-25,25-25s25,11.215,25,25S98.785,190,85,190z M165,190c-13.785,0-25-11.215-25-25 s11.215-25,25-25s25,11.215,25,25S178.785,190,165,190z M245,190c-13.785,0-25-11.215-25-25s11.215-25,25-25 c13.785,0,25,11.215,25,25S258.785,190,245,190z"></path></a></g></svg></svg></svg>