<svg version="1.1" xmlns="http://www.w3.org/2000/svg" xmlns:xlink="http://www.w3.org/1999/xlink" fill="transparent" x="0" y="0" width="350" height="350" preserveAspectRatio="xMinYMin slice"><style type="text/css">.links{fill:transparent;stroke: #E4CF37;}.links:hover{fill:#63D272; opacity:0.4;}</style><defs><g id="allt"><path id="t8011" d="M2706,1952 L2695,1952 C2685,1952 2700,1948 2691,1946 C2682,1945 2694,1955 2683,1953 L2673,1952 2673,1952 L2673,1962 C2673,1973 2676,1961 2677,1968 C2678,1975 2672,1965 2672,1974 L2673,1984 2673,1984 L2684,1984 C2695,1984 2682,1987 2689,1988 C2697,1989 2686,1983 2696,1983 L2706,1984 2706,1984 L2706,1974 C2706,1965 2700,1979 2701,1968 C2702,1957 2708,1970 2707,1961 L2706,1952"/></g><clipPath id="c" clipRule="evenodd" fill="transparent"><use href="#t8011"/></clipPath></defs><svg viewBox="2671 1944 38 46" preserveAspectRatio="xMinYMin meet"><svg width="4380" height="2430"><g><image crossorigin="anonymous" x="0" y="0" href="https://nftpuzzle.license-token.com/assets/completepuzzle.svg" width="100%" height="100%" /><g class="links"><use href="#t8011"/></g></g></svg><svg x="2694" y="1975" height="9%" width="9%" viewBox="0 0 330 330"><g><a xlink:href="https://nftpuzzle.license-token.com/" class="links"><title>See the most innovative NFT based token software licensing project</title><path fill="#E4CF37" id="more" d="M165,0C74.019,0,0,74.019,0,165s74.019,165,165,165s165-74.019,165-165S255.981,0,165,0z M85,190 c-13.785,0-25-11.215-25-25s11.215-25,25-25s25,11.215,25,25S98.785,190,85,190z M165,190c-13.785,0-25-11.215-25-25 s11.215-25,25-25s25,11.215,25,25S178.785,190,165,190z M245,190c-13.785,0-25-11.215-25-25s11.215-25,25-25 c13.785,0,25,11.215,25,25S258.785,190,245,190z"></path></a></g></svg></svg></svg>