<svg version="1.1" xmlns="http://www.w3.org/2000/svg" xmlns:xlink="http://www.w3.org/1999/xlink" fill="transparent" x="0" y="0" width="350" height="350" preserveAspectRatio="xMinYMin slice"><style type="text/css">.links{fill:transparent;stroke: #E4CF37;}.links:hover{fill:#63D272; opacity:0.4;}</style><defs><g id="allt"><path id="t8013" d="M2772,1952 L2762,1952 C2752,1952 2764,1949 2756,1949 C2748,1950 2757,1952 2748,1952 L2739,1952 2739,1952 L2739,1961 C2739,1970 2732,1957 2732,1967 C2732,1977 2739,1965 2739,1974 L2739,1984 2739,1984 L2748,1984 C2757,1984 2744,1977 2754,1977 C2765,1977 2752,1984 2762,1984 L2772,1984 2772,1984 L2772,1973 C2772,1962 2768,1976 2768,1968 C2769,1960 2773,1973 2772,1962 L2772,1952"/></g><clipPath id="c" clipRule="evenodd" fill="transparent"><use href="#t8013"/></clipPath></defs><svg viewBox="2731 1948 43 37" preserveAspectRatio="xMinYMin meet"><svg width="4380" height="2430"><g><image crossorigin="anonymous" x="0" y="0" href="https://nftpuzzle.license-token.com/assets/completepuzzle.svg" width="100%" height="100%" /><g class="links"><use href="#t8013"/></g></g></svg><svg x="2759" y="1970" height="9%" width="9%" viewBox="0 0 330 330"><g><a xlink:href="https://nftpuzzle.license-token.com/" class="links"><title>See the most innovative NFT based token software licensing project</title><path fill="#E4CF37" id="more" d="M165,0C74.019,0,0,74.019,0,165s74.019,165,165,165s165-74.019,165-165S255.981,0,165,0z M85,190 c-13.785,0-25-11.215-25-25s11.215-25,25-25s25,11.215,25,25S98.785,190,85,190z M165,190c-13.785,0-25-11.215-25-25 s11.215-25,25-25s25,11.215,25,25S178.785,190,165,190z M245,190c-13.785,0-25-11.215-25-25s11.215-25,25-25 c13.785,0,25,11.215,25,25S258.785,190,245,190z"></path></a></g></svg></svg></svg>