<svg version="1.1" xmlns="http://www.w3.org/2000/svg" xmlns:xlink="http://www.w3.org/1999/xlink" fill="transparent" x="0" y="0" width="350" height="350" preserveAspectRatio="xMinYMin slice"><style type="text/css">.links{fill:transparent;stroke: #E4CF37;}.links:hover{fill:#63D272; opacity:0.4;}</style><defs><g id="allt"><path id="t8025" d="M3168,1952 L3157,1951 C3147,1950 3160,1958 3150,1957 C3141,1957 3155,1952 3145,1952 L3135,1952 3135,1952 L3135,1962 C3135,1973 3140,1959 3141,1966 C3142,1974 3135,1964 3135,1974 L3135,1984 3135,1984 L3145,1984 C3156,1984 3142,1989 3150,1990 C3158,1991 3148,1984 3158,1984 L3168,1984 3168,1984 L3168,1974 C3168,1964 3176,1978 3177,1967 C3178,1957 3168,1973 3168,1962 L3168,1952"/></g><clipPath id="c" clipRule="evenodd" fill="transparent"><use href="#t8025"/></clipPath></defs><svg viewBox="3134 1949 45 43" preserveAspectRatio="xMinYMin meet"><svg width="4380" height="2430"><g><image crossorigin="anonymous" x="0" y="0" href="https://nftpuzzle.license-token.com/assets/completepuzzle.svg" width="100%" height="100%" /><g class="links"><use href="#t8025"/></g></g></svg><svg x="3164" y="1977" height="9%" width="9%" viewBox="0 0 330 330"><g><a xlink:href="https://nftpuzzle.license-token.com/" class="links"><title>See the most innovative NFT based token software licensing project</title><path fill="#E4CF37" id="more" d="M165,0C74.019,0,0,74.019,0,165s74.019,165,165,165s165-74.019,165-165S255.981,0,165,0z M85,190 c-13.785,0-25-11.215-25-25s11.215-25,25-25s25,11.215,25,25S98.785,190,85,190z M165,190c-13.785,0-25-11.215-25-25 s11.215-25,25-25s25,11.215,25,25S178.785,190,165,190z M245,190c-13.785,0-25-11.215-25-25s11.215-25,25-25 c13.785,0,25,11.215,25,25S258.785,190,245,190z"></path></a></g></svg></svg></svg>