<svg version="1.1" xmlns="http://www.w3.org/2000/svg" xmlns:xlink="http://www.w3.org/1999/xlink" fill="transparent" x="0" y="0" width="350" height="350" preserveAspectRatio="xMinYMin slice"><style type="text/css">.links{fill:transparent;stroke: #E4CF37;}.links:hover{fill:#63D272; opacity:0.4;}</style><defs><g id="allt"><path id="t8027" d="M3234,1952 L3224,1952 C3214,1953 3225,1949 3216,1946 C3208,1944 3220,1952 3210,1952 L3201,1952 3201,1952 L3202,1962 C3203,1973 3193,1960 3192,1968 C3192,1976 3204,1964 3202,1974 L3201,1984 3201,1984 L3211,1985 C3222,1986 3209,1976 3217,1976 C3226,1976 3214,1987 3224,1985 L3234,1984 3234,1984 L3233,1974 C3233,1965 3240,1978 3239,1968 C3238,1958 3234,1969 3234,1960 L3234,1952"/></g><clipPath id="c" clipRule="evenodd" fill="transparent"><use href="#t8027"/></clipPath></defs><svg viewBox="3191 1943 50 45" preserveAspectRatio="xMinYMin meet"><svg width="4380" height="2430"><g><image crossorigin="anonymous" x="0" y="0" href="https://nftpuzzle.license-token.com/assets/completepuzzle.svg" width="100%" height="100%" /><g class="links"><use href="#t8027"/></g></g></svg><svg x="3226" y="1973" height="9%" width="9%" viewBox="0 0 330 330"><g><a xlink:href="https://nftpuzzle.license-token.com/" class="links"><title>See the most innovative NFT based token software licensing project</title><path fill="#E4CF37" id="more" d="M165,0C74.019,0,0,74.019,0,165s74.019,165,165,165s165-74.019,165-165S255.981,0,165,0z M85,190 c-13.785,0-25-11.215-25-25s11.215-25,25-25s25,11.215,25,25S98.785,190,85,190z M165,190c-13.785,0-25-11.215-25-25 s11.215-25,25-25s25,11.215,25,25S178.785,190,165,190z M245,190c-13.785,0-25-11.215-25-25s11.215-25,25-25 c13.785,0,25,11.215,25,25S258.785,190,245,190z"></path></a></g></svg></svg></svg>