<svg version="1.1" xmlns="http://www.w3.org/2000/svg" xmlns:xlink="http://www.w3.org/1999/xlink" fill="transparent" x="0" y="0" width="350" height="350" preserveAspectRatio="xMinYMin slice"><style type="text/css">.links{fill:transparent;stroke: #E4CF37;}.links:hover{fill:#63D272; opacity:0.4;}</style><defs><g id="allt"><path id="t8034" d="M3465,1952 L3454,1952 C3444,1953 3457,1947 3447,1947 C3437,1947 3453,1953 3442,1952 L3432,1952 3432,1952 L3433,1961 C3435,1970 3425,1957 3423,1966 C3422,1975 3432,1963 3432,1973 L3432,1984 3432,1984 L3441,1985 C3450,1987 3437,1977 3446,1975 C3455,1974 3443,1984 3454,1984 L3465,1984 3465,1984 L3465,1974 C3466,1965 3471,1977 3473,1966 C3476,1956 3463,1972 3464,1962 L3465,1952"/></g><clipPath id="c" clipRule="evenodd" fill="transparent"><use href="#t8034"/></clipPath></defs><svg viewBox="3421 1946 56 42" preserveAspectRatio="xMinYMin meet"><svg width="4380" height="2430"><g><image crossorigin="anonymous" x="0" y="0" href="https://nftpuzzle.license-token.com/assets/completepuzzle.svg" width="100%" height="100%" /><g class="links"><use href="#t8034"/></g></g></svg><svg x="3462" y="1973" height="9%" width="9%" viewBox="0 0 330 330"><g><a xlink:href="https://nftpuzzle.license-token.com/" class="links"><title>See the most innovative NFT based token software licensing project</title><path fill="#E4CF37" id="more" d="M165,0C74.019,0,0,74.019,0,165s74.019,165,165,165s165-74.019,165-165S255.981,0,165,0z M85,190 c-13.785,0-25-11.215-25-25s11.215-25,25-25s25,11.215,25,25S98.785,190,85,190z M165,190c-13.785,0-25-11.215-25-25 s11.215-25,25-25s25,11.215,25,25S178.785,190,165,190z M245,190c-13.785,0-25-11.215-25-25s11.215-25,25-25 c13.785,0,25,11.215,25,25S258.785,190,245,190z"></path></a></g></svg></svg></svg>