<svg version="1.1" xmlns="http://www.w3.org/2000/svg" xmlns:xlink="http://www.w3.org/1999/xlink" fill="transparent" x="0" y="0" width="350" height="350" preserveAspectRatio="xMinYMin slice"><style type="text/css">.links{fill:transparent;stroke: #E4CF37;}.links:hover{fill:#63D272; opacity:0.4;}</style><defs><g id="allt"><path id="t8035" d="M3498,1952 L3488,1952 C3479,1953 3492,1950 3482,1950 C3472,1950 3487,1952 3476,1952 L3465,1952 3465,1952 L3464,1962 C3463,1972 3476,1956 3473,1966 C3471,1977 3466,1965 3465,1974 L3465,1984 3465,1984 L3475,1983 C3486,1982 3469,1994 3480,1992 C3491,1990 3478,1985 3488,1984 L3498,1984 3498,1984 L3498,1973 C3499,1962 3490,1976 3489,1968 C3489,1961 3501,1972 3499,1962 L3498,1952"/></g><clipPath id="c" clipRule="evenodd" fill="transparent"><use href="#t8035"/></clipPath></defs><svg viewBox="3462 1949 40 46" preserveAspectRatio="xMinYMin meet"><svg width="4380" height="2430"><g><image crossorigin="anonymous" x="0" y="0" href="https://nftpuzzle.license-token.com/assets/completepuzzle.svg" width="100%" height="100%" /><g class="links"><use href="#t8035"/></g></g></svg><svg x="3487" y="1980" height="9%" width="9%" viewBox="0 0 330 330"><g><a xlink:href="https://nftpuzzle.license-token.com/" class="links"><title>See the most innovative NFT based token software licensing project</title><path fill="#E4CF37" id="more" d="M165,0C74.019,0,0,74.019,0,165s74.019,165,165,165s165-74.019,165-165S255.981,0,165,0z M85,190 c-13.785,0-25-11.215-25-25s11.215-25,25-25s25,11.215,25,25S98.785,190,85,190z M165,190c-13.785,0-25-11.215-25-25 s11.215-25,25-25s25,11.215,25,25S178.785,190,165,190z M245,190c-13.785,0-25-11.215-25-25s11.215-25,25-25 c13.785,0,25,11.215,25,25S258.785,190,245,190z"></path></a></g></svg></svg></svg>