<svg version="1.1" xmlns="http://www.w3.org/2000/svg" xmlns:xlink="http://www.w3.org/1999/xlink" fill="transparent" x="0" y="0" width="350" height="350" preserveAspectRatio="xMinYMin slice"><style type="text/css">.links{fill:transparent;stroke: #E4CF37;}.links:hover{fill:#63D272; opacity:0.4;}</style><defs><g id="allt"><path id="t8037" d="M3564,1952 L3554,1952 C3544,1952 3557,1945 3546,1946 C3536,1947 3550,1953 3540,1952 L3531,1952 3531,1952 L3533,1962 C3535,1973 3526,1960 3525,1968 C3524,1977 3532,1963 3531,1973 L3531,1984 3531,1984 L3542,1986 C3553,1988 3539,1979 3548,1978 C3557,1977 3543,1985 3553,1984 L3564,1984 3564,1984 L3564,1974 C3564,1965 3572,1975 3572,1966 C3572,1958 3562,1973 3563,1962 L3564,1952"/></g><clipPath id="c" clipRule="evenodd" fill="transparent"><use href="#t8037"/></clipPath></defs><svg viewBox="3523 1944 50 45" preserveAspectRatio="xMinYMin meet"><svg width="4380" height="2430"><g><image crossorigin="anonymous" x="0" y="0" href="https://nftpuzzle.license-token.com/assets/completepuzzle.svg" width="100%" height="100%" /><g class="links"><use href="#t8037"/></g></g></svg><svg x="3558" y="1974" height="9%" width="9%" viewBox="0 0 330 330"><g><a xlink:href="https://nftpuzzle.license-token.com/" class="links"><title>See the most innovative NFT based token software licensing project</title><path fill="#E4CF37" id="more" d="M165,0C74.019,0,0,74.019,0,165s74.019,165,165,165s165-74.019,165-165S255.981,0,165,0z M85,190 c-13.785,0-25-11.215-25-25s11.215-25,25-25s25,11.215,25,25S98.785,190,85,190z M165,190c-13.785,0-25-11.215-25-25 s11.215-25,25-25s25,11.215,25,25S178.785,190,165,190z M245,190c-13.785,0-25-11.215-25-25s11.215-25,25-25 c13.785,0,25,11.215,25,25S258.785,190,245,190z"></path></a></g></svg></svg></svg>