<svg version="1.1" xmlns="http://www.w3.org/2000/svg" xmlns:xlink="http://www.w3.org/1999/xlink" fill="transparent" x="0" y="0" width="350" height="350" preserveAspectRatio="xMinYMin slice"><style type="text/css">.links{fill:transparent;stroke: #E4CF37;}.links:hover{fill:#63D272; opacity:0.4;}</style><defs><g id="allt"><path id="t8045" d="M3828,1952 L3817,1952 C3807,1952 3821,1960 3812,1959 C3804,1959 3815,1952 3805,1952 L3795,1952 3795,1952 L3793,1962 C3791,1972 3807,1958 3805,1967 C3803,1977 3795,1963 3795,1973 L3795,1984 3795,1984 L3805,1982 C3815,1980 3801,1996 3811,1994 C3821,1992 3806,1984 3817,1984 L3828,1984 3828,1984 L3829,1974 C3830,1965 3825,1979 3823,1968 C3821,1957 3831,1971 3829,1961 L3828,1952"/></g><clipPath id="c" clipRule="evenodd" fill="transparent"><use href="#t8045"/></clipPath></defs><svg viewBox="3790 1951 42 46" preserveAspectRatio="xMinYMin meet"><svg width="4380" height="2430"><g><image crossorigin="anonymous" x="0" y="0" href="https://nftpuzzle.license-token.com/assets/completepuzzle.svg" width="100%" height="100%" /><g class="links"><use href="#t8045"/></g></g></svg><svg x="3817" y="1982" height="9%" width="9%" viewBox="0 0 330 330"><g><a xlink:href="https://nftpuzzle.license-token.com/" class="links"><title>See the most innovative NFT based token software licensing project</title><path fill="#E4CF37" id="more" d="M165,0C74.019,0,0,74.019,0,165s74.019,165,165,165s165-74.019,165-165S255.981,0,165,0z M85,190 c-13.785,0-25-11.215-25-25s11.215-25,25-25s25,11.215,25,25S98.785,190,85,190z M165,190c-13.785,0-25-11.215-25-25 s11.215-25,25-25s25,11.215,25,25S178.785,190,165,190z M245,190c-13.785,0-25-11.215-25-25s11.215-25,25-25 c13.785,0,25,11.215,25,25S258.785,190,245,190z"></path></a></g></svg></svg></svg>