<svg version="1.1" xmlns="http://www.w3.org/2000/svg" xmlns:xlink="http://www.w3.org/1999/xlink" fill="transparent" x="0" y="0" width="350" height="350" preserveAspectRatio="xMinYMin slice"><style type="text/css">.links{fill:transparent;stroke: #E4CF37;}.links:hover{fill:#63D272; opacity:0.4;}</style><defs><g id="allt"><path id="t8048" d="M3927,1952 L3916,1952 C3906,1952 3918,1946 3910,1944 C3902,1943 3914,1952 3904,1952 L3894,1952 3894,1952 L3896,1961 C3898,1970 3887,1960 3888,1967 C3890,1974 3896,1964 3895,1974 L3894,1984 3894,1984 L3903,1986 C3913,1988 3902,1977 3909,1978 C3917,1980 3907,1986 3917,1985 L3927,1984 3927,1984 L3927,1974 C3927,1965 3917,1974 3918,1965 C3920,1957 3931,1971 3929,1961 L3927,1952"/></g><clipPath id="c" clipRule="evenodd" fill="transparent"><use href="#t8048"/></clipPath></defs><svg viewBox="3886 1942 46 47" preserveAspectRatio="xMinYMin meet"><svg width="4380" height="2430"><g><image crossorigin="anonymous" x="0" y="0" href="https://nftpuzzle.license-token.com/assets/completepuzzle.svg" width="100%" height="100%" /><g class="links"><use href="#t8048"/></g></g></svg><svg x="3917" y="1974" height="9%" width="9%" viewBox="0 0 330 330"><g><a xlink:href="https://nftpuzzle.license-token.com/" class="links"><title>See the most innovative NFT based token software licensing project</title><path fill="#E4CF37" id="more" d="M165,0C74.019,0,0,74.019,0,165s74.019,165,165,165s165-74.019,165-165S255.981,0,165,0z M85,190 c-13.785,0-25-11.215-25-25s11.215-25,25-25s25,11.215,25,25S98.785,190,85,190z M165,190c-13.785,0-25-11.215-25-25 s11.215-25,25-25s25,11.215,25,25S178.785,190,165,190z M245,190c-13.785,0-25-11.215-25-25s11.215-25,25-25 c13.785,0,25,11.215,25,25S258.785,190,245,190z"></path></a></g></svg></svg></svg>