<svg version="1.1" xmlns="http://www.w3.org/2000/svg" xmlns:xlink="http://www.w3.org/1999/xlink" fill="transparent" x="0" y="0" width="350" height="350" preserveAspectRatio="xMinYMin slice"><style type="text/css">.links{fill:transparent;stroke: #E4CF37;}.links:hover{fill:#63D272; opacity:0.4;}</style><defs><g id="allt"><path id="t8051" d="M4026,1952 L4016,1953 C4006,1954 4016,1943 4008,1944 C4001,1945 4012,1955 4002,1953 L3993,1952 3993,1952 L3993,1962 C3993,1973 4004,1956 4001,1966 C3999,1977 3991,1964 3992,1974 L3993,1984 3993,1984 L4004,1984 C4015,1984 3997,1994 4008,1992 C4019,1990 4006,1982 4016,1983 L4026,1984 4026,1984 L4026,1973 C4026,1962 4017,1976 4018,1968 C4020,1960 4028,1972 4027,1962 L4026,1952"/></g><clipPath id="c" clipRule="evenodd" fill="transparent"><use href="#t8051"/></clipPath></defs><svg viewBox="3990 1942 39 53" preserveAspectRatio="xMinYMin meet"><svg width="4380" height="2430"><g><image crossorigin="anonymous" x="0" y="0" href="https://nftpuzzle.license-token.com/assets/completepuzzle.svg" width="100%" height="100%" /><g class="links"><use href="#t8051"/></g></g></svg><svg x="4014" y="1980" height="9%" width="9%" viewBox="0 0 330 330"><g><a xlink:href="https://nftpuzzle.license-token.com/" class="links"><title>See the most innovative NFT based token software licensing project</title><path fill="#E4CF37" id="more" d="M165,0C74.019,0,0,74.019,0,165s74.019,165,165,165s165-74.019,165-165S255.981,0,165,0z M85,190 c-13.785,0-25-11.215-25-25s11.215-25,25-25s25,11.215,25,25S98.785,190,85,190z M165,190c-13.785,0-25-11.215-25-25 s11.215-25,25-25s25,11.215,25,25S178.785,190,165,190z M245,190c-13.785,0-25-11.215-25-25s11.215-25,25-25 c13.785,0,25,11.215,25,25S258.785,190,245,190z"></path></a></g></svg></svg></svg>