<svg version="1.1" xmlns="http://www.w3.org/2000/svg" xmlns:xlink="http://www.w3.org/1999/xlink" fill="transparent" x="0" y="0" width="350" height="350" preserveAspectRatio="xMinYMin slice"><style type="text/css">.links{fill:transparent;stroke: #E4CF37;}.links:hover{fill:#63D272; opacity:0.4;}</style><defs><g id="allt"><path id="t8052" d="M4059,1952 L4048,1951 C4037,1951 4049,1957 4040,1956 C4032,1955 4046,1950 4036,1951 L4026,1952 4026,1952 L4027,1962 C4028,1972 4020,1960 4018,1968 C4017,1976 4026,1962 4026,1973 L4026,1984 4026,1984 L4036,1985 C4046,1986 4034,1978 4042,1977 C4050,1976 4036,1984 4047,1984 L4059,1984 4059,1984 L4057,1974 C4055,1965 4068,1977 4067,1968 C4067,1960 4059,1970 4059,1961 L4059,1952"/></g><clipPath id="c" clipRule="evenodd" fill="transparent"><use href="#t8052"/></clipPath></defs><svg viewBox="4016 1949 53 38" preserveAspectRatio="xMinYMin meet"><svg width="4380" height="2430"><g><image crossorigin="anonymous" x="0" y="0" href="https://nftpuzzle.license-token.com/assets/completepuzzle.svg" width="100%" height="100%" /><g class="links"><use href="#t8052"/></g></g></svg><svg x="4054" y="1972" height="9%" width="9%" viewBox="0 0 330 330"><g><a xlink:href="https://nftpuzzle.license-token.com/" class="links"><title>See the most innovative NFT based token software licensing project</title><path fill="#E4CF37" id="more" d="M165,0C74.019,0,0,74.019,0,165s74.019,165,165,165s165-74.019,165-165S255.981,0,165,0z M85,190 c-13.785,0-25-11.215-25-25s11.215-25,25-25s25,11.215,25,25S98.785,190,85,190z M165,190c-13.785,0-25-11.215-25-25 s11.215-25,25-25s25,11.215,25,25S178.785,190,165,190z M245,190c-13.785,0-25-11.215-25-25s11.215-25,25-25 c13.785,0,25,11.215,25,25S258.785,190,245,190z"></path></a></g></svg></svg></svg>