<svg version="1.1" xmlns="http://www.w3.org/2000/svg" xmlns:xlink="http://www.w3.org/1999/xlink" fill="transparent" x="0" y="0" width="350" height="350" preserveAspectRatio="xMinYMin slice"><style type="text/css">.links{fill:transparent;stroke: #E4CF37;}.links:hover{fill:#63D272; opacity:0.4;}</style><defs><g id="allt"><path id="t8054" d="M4125,1952 L4115,1951 C4105,1951 4119,1958 4110,1958 C4101,1959 4110,1951 4101,1951 L4092,1952 4092,1952 L4091,1961 C4090,1971 4100,1960 4099,1968 C4098,1977 4090,1963 4091,1973 L4092,1984 4092,1984 L4102,1983 C4112,1982 4100,1992 4109,1991 C4118,1990 4104,1982 4114,1983 L4125,1984 4125,1984 L4123,1974 C4121,1965 4137,1977 4136,1968 C4136,1960 4125,1969 4125,1960 L4125,1952"/></g><clipPath id="c" clipRule="evenodd" fill="transparent"><use href="#t8054"/></clipPath></defs><svg viewBox="4089 1950 49 43" preserveAspectRatio="xMinYMin meet"><svg width="4380" height="2430"><g><image crossorigin="anonymous" x="0" y="0" href="https://nftpuzzle.license-token.com/assets/completepuzzle.svg" width="100%" height="100%" /><g class="links"><use href="#t8054"/></g></g></svg><svg x="4123" y="1978" height="9%" width="9%" viewBox="0 0 330 330"><g><a xlink:href="https://nftpuzzle.license-token.com/" class="links"><title>See the most innovative NFT based token software licensing project</title><path fill="#E4CF37" id="more" d="M165,0C74.019,0,0,74.019,0,165s74.019,165,165,165s165-74.019,165-165S255.981,0,165,0z M85,190 c-13.785,0-25-11.215-25-25s11.215-25,25-25s25,11.215,25,25S98.785,190,85,190z M165,190c-13.785,0-25-11.215-25-25 s11.215-25,25-25s25,11.215,25,25S178.785,190,165,190z M245,190c-13.785,0-25-11.215-25-25s11.215-25,25-25 c13.785,0,25,11.215,25,25S258.785,190,245,190z"></path></a></g></svg></svg></svg>