<svg version="1.1" xmlns="http://www.w3.org/2000/svg" xmlns:xlink="http://www.w3.org/1999/xlink" fill="transparent" x="0" y="0" width="350" height="350" preserveAspectRatio="xMinYMin slice"><style type="text/css">.links{fill:transparent;stroke: #E4CF37;}.links:hover{fill:#63D272; opacity:0.4;}</style><defs><g id="allt"><path id="t8058" d="M4257,1952 L4247,1952 C4238,1952 4247,1939 4238,1940 C4229,1941 4242,1952 4233,1952 L4224,1952 4224,1952 L4224,1962 C4224,1973 4214,1958 4216,1967 C4218,1977 4223,1966 4223,1975 L4224,1984 4224,1984 L4235,1984 C4246,1984 4230,1974 4240,1976 C4250,1978 4238,1983 4247,1983 L4257,1984 4257,1984 L4257,1975 C4257,1966 4253,1977 4253,1967 C4254,1957 4258,1969 4257,1960 L4257,1952"/></g><clipPath id="c" clipRule="evenodd" fill="transparent"><use href="#t8058"/></clipPath></defs><svg viewBox="4213 1938 46 47" preserveAspectRatio="xMinYMin meet"><svg width="4380" height="2430"><g><image crossorigin="anonymous" x="0" y="0" href="https://nftpuzzle.license-token.com/assets/completepuzzle.svg" width="100%" height="100%" /><g class="links"><use href="#t8058"/></g></g></svg><svg x="4244" y="1970" height="9%" width="9%" viewBox="0 0 330 330"><g><a xlink:href="https://nftpuzzle.license-token.com/" class="links"><title>See the most innovative NFT based token software licensing project</title><path fill="#E4CF37" id="more" d="M165,0C74.019,0,0,74.019,0,165s74.019,165,165,165s165-74.019,165-165S255.981,0,165,0z M85,190 c-13.785,0-25-11.215-25-25s11.215-25,25-25s25,11.215,25,25S98.785,190,85,190z M165,190c-13.785,0-25-11.215-25-25 s11.215-25,25-25s25,11.215,25,25S178.785,190,165,190z M245,190c-13.785,0-25-11.215-25-25s11.215-25,25-25 c13.785,0,25,11.215,25,25S258.785,190,245,190z"></path></a></g></svg></svg></svg>