<svg version="1.1" xmlns="http://www.w3.org/2000/svg" xmlns:xlink="http://www.w3.org/1999/xlink" fill="transparent" x="0" y="0" width="350" height="350" preserveAspectRatio="xMinYMin slice"><style type="text/css">.links{fill:transparent;stroke: #E4CF37;}.links:hover{fill:#63D272; opacity:0.4;}</style><defs><g id="allt"><path id="t8061" d="M66,1984 L56,1984 C47,1984 60,1988 48,1988 C37,1989 51,1982 42,1983 L33,1984 33,1984 L33,1992 C34,2001 27,1990 27,1998 C28,2007 34,1996 33,2006 L33,2016 33,2016 L42,2016 C51,2017 39,2010 48,2010 C57,2011 45,2017 55,2016 L66,2016 66,2016 L65,2006 C64,1997 74,2006 74,1998 C75,1991 65,2004 65,1994 L66,1984"/></g><clipPath id="c" clipRule="evenodd" fill="transparent"><use href="#t8061"/></clipPath></defs><svg viewBox="26 1981 50 37" preserveAspectRatio="xMinYMin meet"><svg width="4380" height="2430"><g><image crossorigin="anonymous" x="0" y="0" href="https://nftpuzzle.license-token.com/assets/completepuzzle.svg" width="100%" height="100%" /><g class="links"><use href="#t8061"/></g></g></svg><svg x="61" y="2003" height="9%" width="9%" viewBox="0 0 330 330"><g><a xlink:href="https://nftpuzzle.license-token.com/" class="links"><title>See the most innovative NFT based token software licensing project</title><path fill="#E4CF37" id="more" d="M165,0C74.019,0,0,74.019,0,165s74.019,165,165,165s165-74.019,165-165S255.981,0,165,0z M85,190 c-13.785,0-25-11.215-25-25s11.215-25,25-25s25,11.215,25,25S98.785,190,85,190z M165,190c-13.785,0-25-11.215-25-25 s11.215-25,25-25s25,11.215,25,25S178.785,190,165,190z M245,190c-13.785,0-25-11.215-25-25s11.215-25,25-25 c13.785,0,25,11.215,25,25S258.785,190,245,190z"></path></a></g></svg></svg></svg>