<svg version="1.1" xmlns="http://www.w3.org/2000/svg" xmlns:xlink="http://www.w3.org/1999/xlink" fill="transparent" x="0" y="0" width="350" height="350" preserveAspectRatio="xMinYMin slice"><style type="text/css">.links{fill:transparent;stroke: #E4CF37;}.links:hover{fill:#63D272; opacity:0.4;}</style><defs><g id="allt"><path id="t8063" d="M132,1984 L121,1984 C111,1984 125,1992 114,1991 C104,1991 117,1981 108,1982 L99,1984 99,1984 L100,1992 C101,2001 95,1992 93,2000 C91,2008 101,1996 100,2006 L99,2016 99,2016 L108,2017 C117,2018 107,2012 115,2010 C124,2008 112,2018 122,2017 L132,2016 132,2016 L132,2005 C132,1995 127,2010 126,2001 C125,1993 132,2005 132,1994 L132,1984"/></g><clipPath id="c" clipRule="evenodd" fill="transparent"><use href="#t8063"/></clipPath></defs><svg viewBox="90 1980 43 39" preserveAspectRatio="xMinYMin meet"><svg width="4380" height="2430"><g><image crossorigin="anonymous" x="0" y="0" href="https://nftpuzzle.license-token.com/assets/completepuzzle.svg" width="100%" height="100%" /><g class="links"><use href="#t8063"/></g></g></svg><svg x="118" y="2004" height="9%" width="9%" viewBox="0 0 330 330"><g><a xlink:href="https://nftpuzzle.license-token.com/" class="links"><title>See the most innovative NFT based token software licensing project</title><path fill="#E4CF37" id="more" d="M165,0C74.019,0,0,74.019,0,165s74.019,165,165,165s165-74.019,165-165S255.981,0,165,0z M85,190 c-13.785,0-25-11.215-25-25s11.215-25,25-25s25,11.215,25,25S98.785,190,85,190z M165,190c-13.785,0-25-11.215-25-25 s11.215-25,25-25s25,11.215,25,25S178.785,190,165,190z M245,190c-13.785,0-25-11.215-25-25s11.215-25,25-25 c13.785,0,25,11.215,25,25S258.785,190,245,190z"></path></a></g></svg></svg></svg>