<svg version="1.1" xmlns="http://www.w3.org/2000/svg" xmlns:xlink="http://www.w3.org/1999/xlink" fill="transparent" x="0" y="0" width="350" height="350" preserveAspectRatio="xMinYMin slice"><style type="text/css">.links{fill:transparent;stroke: #E4CF37;}.links:hover{fill:#63D272; opacity:0.4;}</style><defs><g id="allt"><path id="t8065" d="M198,1984 L188,1985 C179,1986 190,1979 180,1979 C171,1980 183,1984 174,1984 L165,1984 165,1984 L165,1992 C165,2001 161,1988 162,1997 C163,2006 165,1997 165,2006 L165,2016 165,2016 L174,2016 C183,2016 169,2012 178,2013 C188,2014 178,2016 188,2016 L198,2016 198,2016 L198,2007 C198,1998 194,2006 195,1997 C196,1989 198,2003 198,1993 L198,1984"/></g><clipPath id="c" clipRule="evenodd" fill="transparent"><use href="#t8065"/></clipPath></defs><svg viewBox="160 1978 39 39" preserveAspectRatio="xMinYMin meet"><svg width="4380" height="2430"><g><image crossorigin="anonymous" x="0" y="0" href="https://nftpuzzle.license-token.com/assets/completepuzzle.svg" width="100%" height="100%" /><g class="links"><use href="#t8065"/></g></g></svg><svg x="184" y="2002" height="9%" width="9%" viewBox="0 0 330 330"><g><a xlink:href="https://nftpuzzle.license-token.com/" class="links"><title>See the most innovative NFT based token software licensing project</title><path fill="#E4CF37" id="more" d="M165,0C74.019,0,0,74.019,0,165s74.019,165,165,165s165-74.019,165-165S255.981,0,165,0z M85,190 c-13.785,0-25-11.215-25-25s11.215-25,25-25s25,11.215,25,25S98.785,190,85,190z M165,190c-13.785,0-25-11.215-25-25 s11.215-25,25-25s25,11.215,25,25S178.785,190,165,190z M245,190c-13.785,0-25-11.215-25-25s11.215-25,25-25 c13.785,0,25,11.215,25,25S258.785,190,245,190z"></path></a></g></svg></svg></svg>