<svg version="1.1" xmlns="http://www.w3.org/2000/svg" xmlns:xlink="http://www.w3.org/1999/xlink" fill="transparent" x="0" y="0" width="350" height="350" preserveAspectRatio="xMinYMin slice"><style type="text/css">.links{fill:transparent;stroke: #E4CF37;}.links:hover{fill:#63D272; opacity:0.4;}</style><defs><g id="allt"><path id="t8072" d="M429,1984 L419,1984 C410,1985 422,1973 412,1972 C402,1971 415,1988 405,1986 L396,1984 396,1984 L395,1993 C394,2002 400,1990 399,1998 C399,2007 394,1995 395,2005 L396,2016 396,2016 L405,2015 C415,2014 402,2020 411,2019 C420,2019 407,2014 418,2015 L429,2016 429,2016 L429,2006 C429,1996 427,2006 426,1998 C425,1991 430,2005 429,1994 L429,1984"/></g><clipPath id="c" clipRule="evenodd" fill="transparent"><use href="#t8072"/></clipPath></defs><svg viewBox="393 1970 38 51" preserveAspectRatio="xMinYMin meet"><svg width="4380" height="2430"><g><image crossorigin="anonymous" x="0" y="0" href="https://nftpuzzle.license-token.com/assets/completepuzzle.svg" width="100%" height="100%" /><g class="links"><use href="#t8072"/></g></g></svg><svg x="416" y="2006" height="9%" width="9%" viewBox="0 0 330 330"><g><a xlink:href="https://nftpuzzle.license-token.com/" class="links"><title>See the most innovative NFT based token software licensing project</title><path fill="#E4CF37" id="more" d="M165,0C74.019,0,0,74.019,0,165s74.019,165,165,165s165-74.019,165-165S255.981,0,165,0z M85,190 c-13.785,0-25-11.215-25-25s11.215-25,25-25s25,11.215,25,25S98.785,190,85,190z M165,190c-13.785,0-25-11.215-25-25 s11.215-25,25-25s25,11.215,25,25S178.785,190,165,190z M245,190c-13.785,0-25-11.215-25-25s11.215-25,25-25 c13.785,0,25,11.215,25,25S258.785,190,245,190z"></path></a></g></svg></svg></svg>