<svg version="1.1" xmlns="http://www.w3.org/2000/svg" xmlns:xlink="http://www.w3.org/1999/xlink" fill="transparent" x="0" y="0" width="350" height="350" preserveAspectRatio="xMinYMin slice"><style type="text/css">.links{fill:transparent;stroke: #E4CF37;}.links:hover{fill:#63D272; opacity:0.4;}</style><defs><g id="allt"><path id="t8073" d="M462,1984 L451,1984 C441,1984 453,1975 443,1975 C433,1976 448,1988 438,1986 L429,1984 429,1984 L429,1994 C430,2005 425,1991 426,1998 C427,2006 429,1996 429,2006 L429,2016 429,2016 L439,2016 C450,2017 436,2012 444,2013 C452,2014 442,2016 452,2016 L462,2016 462,2016 L461,2006 C460,1996 466,2011 468,2000 C470,1989 459,2002 460,1993 L462,1984"/></g><clipPath id="c" clipRule="evenodd" fill="transparent"><use href="#t8073"/></clipPath></defs><svg viewBox="424 1974 47 44" preserveAspectRatio="xMinYMin meet"><svg width="4380" height="2430"><g><image crossorigin="anonymous" x="0" y="0" href="https://nftpuzzle.license-token.com/assets/completepuzzle.svg" width="100%" height="100%" /><g class="links"><use href="#t8073"/></g></g></svg><svg x="456" y="2003" height="9%" width="9%" viewBox="0 0 330 330"><g><a xlink:href="https://nftpuzzle.license-token.com/" class="links"><title>See the most innovative NFT based token software licensing project</title><path fill="#E4CF37" id="more" d="M165,0C74.019,0,0,74.019,0,165s74.019,165,165,165s165-74.019,165-165S255.981,0,165,0z M85,190 c-13.785,0-25-11.215-25-25s11.215-25,25-25s25,11.215,25,25S98.785,190,85,190z M165,190c-13.785,0-25-11.215-25-25 s11.215-25,25-25s25,11.215,25,25S178.785,190,165,190z M245,190c-13.785,0-25-11.215-25-25s11.215-25,25-25 c13.785,0,25,11.215,25,25S258.785,190,245,190z"></path></a></g></svg></svg></svg>