<svg version="1.1" xmlns="http://www.w3.org/2000/svg" xmlns:xlink="http://www.w3.org/1999/xlink" fill="transparent" x="0" y="0" width="350" height="350" preserveAspectRatio="xMinYMin slice"><style type="text/css">.links{fill:transparent;stroke: #E4CF37;}.links:hover{fill:#63D272; opacity:0.4;}</style><defs><g id="allt"><path id="t8074" d="M495,1984 L484,1984 C474,1985 487,1981 478,1979 C469,1978 481,1986 471,1985 L462,1984 462,1984 L460,1993 C459,2002 470,1989 468,2000 C466,2011 460,1996 461,2006 L462,2016 462,2016 L471,2014 C480,2013 467,2024 478,2022 C490,2020 474,2014 484,2015 L495,2016 495,2016 L492,2005 C490,1995 504,2007 502,1998 C501,1990 495,2004 495,1994 L495,1984"/></g><clipPath id="c" clipRule="evenodd" fill="transparent"><use href="#t8074"/></clipPath></defs><svg viewBox="458 1977 47 48" preserveAspectRatio="xMinYMin meet"><svg width="4380" height="2430"><g><image crossorigin="anonymous" x="0" y="0" href="https://nftpuzzle.license-token.com/assets/completepuzzle.svg" width="100%" height="100%" /><g class="links"><use href="#t8074"/></g></g></svg><svg x="490" y="2010" height="9%" width="9%" viewBox="0 0 330 330"><g><a xlink:href="https://nftpuzzle.license-token.com/" class="links"><title>See the most innovative NFT based token software licensing project</title><path fill="#E4CF37" id="more" d="M165,0C74.019,0,0,74.019,0,165s74.019,165,165,165s165-74.019,165-165S255.981,0,165,0z M85,190 c-13.785,0-25-11.215-25-25s11.215-25,25-25s25,11.215,25,25S98.785,190,85,190z M165,190c-13.785,0-25-11.215-25-25 s11.215-25,25-25s25,11.215,25,25S178.785,190,165,190z M245,190c-13.785,0-25-11.215-25-25s11.215-25,25-25 c13.785,0,25,11.215,25,25S258.785,190,245,190z"></path></a></g></svg></svg></svg>