<svg version="1.1" xmlns="http://www.w3.org/2000/svg" xmlns:xlink="http://www.w3.org/1999/xlink" fill="transparent" x="0" y="0" width="350" height="350" preserveAspectRatio="xMinYMin slice"><style type="text/css">.links{fill:transparent;stroke: #E4CF37;}.links:hover{fill:#63D272; opacity:0.4;}</style><defs><g id="allt"><path id="t8075" d="M528,1984 L517,1984 C506,1985 522,1980 513,1980 C504,1980 514,1984 504,1984 L495,1984 495,1984 L495,1994 C495,2004 501,1990 502,1998 C504,2007 490,1995 492,2005 L495,2016 495,2016 L505,2016 C516,2016 501,2022 510,2023 C519,2024 506,2011 517,2013 L528,2016 528,2016 L529,2005 C530,1995 526,2006 525,1998 C524,1990 529,2005 528,1994 L528,1984"/></g><clipPath id="c" clipRule="evenodd" fill="transparent"><use href="#t8075"/></clipPath></defs><svg viewBox="489 1979 42 46" preserveAspectRatio="xMinYMin meet"><svg width="4380" height="2430"><g><image crossorigin="anonymous" x="0" y="0" href="https://nftpuzzle.license-token.com/assets/completepuzzle.svg" width="100%" height="100%" /><g class="links"><use href="#t8075"/></g></g></svg><svg x="516" y="2010" height="9%" width="9%" viewBox="0 0 330 330"><g><a xlink:href="https://nftpuzzle.license-token.com/" class="links"><title>See the most innovative NFT based token software licensing project</title><path fill="#E4CF37" id="more" d="M165,0C74.019,0,0,74.019,0,165s74.019,165,165,165s165-74.019,165-165S255.981,0,165,0z M85,190 c-13.785,0-25-11.215-25-25s11.215-25,25-25s25,11.215,25,25S98.785,190,85,190z M165,190c-13.785,0-25-11.215-25-25 s11.215-25,25-25s25,11.215,25,25S178.785,190,165,190z M245,190c-13.785,0-25-11.215-25-25s11.215-25,25-25 c13.785,0,25,11.215,25,25S258.785,190,245,190z"></path></a></g></svg></svg></svg>