<svg version="1.1" xmlns="http://www.w3.org/2000/svg" xmlns:xlink="http://www.w3.org/1999/xlink" fill="transparent" x="0" y="0" width="350" height="350" preserveAspectRatio="xMinYMin slice"><style type="text/css">.links{fill:transparent;stroke: #E4CF37;}.links:hover{fill:#63D272; opacity:0.4;}</style><defs><g id="allt"><path id="t8077" d="M594,1984 L584,1984 C575,1985 585,1975 576,1976 C568,1977 580,1987 570,1985 L561,1984 561,1984 L562,1993 C563,2002 552,1991 552,1999 C552,2008 565,1998 563,2007 L561,2016 561,2016 L570,2017 C580,2018 568,2007 577,2007 C586,2007 575,2020 584,2018 L594,2016 594,2016 L594,2006 C594,1997 588,2009 588,2001 C589,1993 596,2003 595,1993 L594,1984"/></g><clipPath id="c" clipRule="evenodd" fill="transparent"><use href="#t8077"/></clipPath></defs><svg viewBox="551 1974 46 47" preserveAspectRatio="xMinYMin meet"><svg width="4380" height="2430"><g><image crossorigin="anonymous" x="0" y="0" href="https://nftpuzzle.license-token.com/assets/completepuzzle.svg" width="100%" height="100%" /><g class="links"><use href="#t8077"/></g></g></svg><svg x="582" y="2006" height="9%" width="9%" viewBox="0 0 330 330"><g><a xlink:href="https://nftpuzzle.license-token.com/" class="links"><title>See the most innovative NFT based token software licensing project</title><path fill="#E4CF37" id="more" d="M165,0C74.019,0,0,74.019,0,165s74.019,165,165,165s165-74.019,165-165S255.981,0,165,0z M85,190 c-13.785,0-25-11.215-25-25s11.215-25,25-25s25,11.215,25,25S98.785,190,85,190z M165,190c-13.785,0-25-11.215-25-25 s11.215-25,25-25s25,11.215,25,25S178.785,190,165,190z M245,190c-13.785,0-25-11.215-25-25s11.215-25,25-25 c13.785,0,25,11.215,25,25S258.785,190,245,190z"></path></a></g></svg></svg></svg>