<svg version="1.1" xmlns="http://www.w3.org/2000/svg" xmlns:xlink="http://www.w3.org/1999/xlink" fill="transparent" x="0" y="0" width="350" height="350" preserveAspectRatio="xMinYMin slice"><style type="text/css">.links{fill:transparent;stroke: #E4CF37;}.links:hover{fill:#63D272; opacity:0.4;}</style><defs><g id="allt"><path id="t8080" d="M693,1984 L683,1984 C673,1984 684,1977 676,1975 C668,1974 682,1985 671,1984 L660,1984 660,1984 L659,1993 C659,2002 663,1992 664,1999 C665,2007 660,1997 660,2006 L660,2016 660,2016 L669,2015 C679,2015 668,2019 675,2020 C683,2021 674,2016 683,2016 L693,2016 693,2016 L693,2006 C693,1997 701,2009 700,2000 C700,1992 693,2002 693,1993 L693,1984"/></g><clipPath id="c" clipRule="evenodd" fill="transparent"><use href="#t8080"/></clipPath></defs><svg viewBox="658 1973 44 49" preserveAspectRatio="xMinYMin meet"><svg width="4380" height="2430"><g><image crossorigin="anonymous" x="0" y="0" href="https://nftpuzzle.license-token.com/assets/completepuzzle.svg" width="100%" height="100%" /><g class="links"><use href="#t8080"/></g></g></svg><svg x="687" y="2007" height="9%" width="9%" viewBox="0 0 330 330"><g><a xlink:href="https://nftpuzzle.license-token.com/" class="links"><title>See the most innovative NFT based token software licensing project</title><path fill="#E4CF37" id="more" d="M165,0C74.019,0,0,74.019,0,165s74.019,165,165,165s165-74.019,165-165S255.981,0,165,0z M85,190 c-13.785,0-25-11.215-25-25s11.215-25,25-25s25,11.215,25,25S98.785,190,85,190z M165,190c-13.785,0-25-11.215-25-25 s11.215-25,25-25s25,11.215,25,25S178.785,190,165,190z M245,190c-13.785,0-25-11.215-25-25s11.215-25,25-25 c13.785,0,25,11.215,25,25S258.785,190,245,190z"></path></a></g></svg></svg></svg>