<svg version="1.1" xmlns="http://www.w3.org/2000/svg" xmlns:xlink="http://www.w3.org/1999/xlink" fill="transparent" x="0" y="0" width="350" height="350" preserveAspectRatio="xMinYMin slice"><style type="text/css">.links{fill:transparent;stroke: #E4CF37;}.links:hover{fill:#63D272; opacity:0.4;}</style><defs><g id="allt"><path id="t8089" d="M990,1984 L980,1985 C971,1986 984,1974 975,1973 C966,1973 975,1985 966,1984 L957,1984 957,1984 L957,1993 C958,2003 951,1993 951,2000 C952,2007 957,1995 957,2005 L957,2016 957,2016 L967,2016 C977,2017 966,2010 973,2010 C981,2011 969,2016 979,2016 L990,2016 990,2016 L990,2005 C991,1995 999,2011 999,2002 C999,1993 990,2002 990,1993 L990,1984"/></g><clipPath id="c" clipRule="evenodd" fill="transparent"><use href="#t8089"/></clipPath></defs><svg viewBox="950 1972 50 46" preserveAspectRatio="xMinYMin meet"><svg width="4380" height="2430"><g><image crossorigin="anonymous" x="0" y="0" href="https://nftpuzzle.license-token.com/assets/completepuzzle.svg" width="100%" height="100%" /><g class="links"><use href="#t8089"/></g></g></svg><svg x="985" y="2003" height="9%" width="9%" viewBox="0 0 330 330"><g><a xlink:href="https://nftpuzzle.license-token.com/" class="links"><title>See the most innovative NFT based token software licensing project</title><path fill="#E4CF37" id="more" d="M165,0C74.019,0,0,74.019,0,165s74.019,165,165,165s165-74.019,165-165S255.981,0,165,0z M85,190 c-13.785,0-25-11.215-25-25s11.215-25,25-25s25,11.215,25,25S98.785,190,85,190z M165,190c-13.785,0-25-11.215-25-25 s11.215-25,25-25s25,11.215,25,25S178.785,190,165,190z M245,190c-13.785,0-25-11.215-25-25s11.215-25,25-25 c13.785,0,25,11.215,25,25S258.785,190,245,190z"></path></a></g></svg></svg></svg>