<svg version="1.1" xmlns="http://www.w3.org/2000/svg" xmlns:xlink="http://www.w3.org/1999/xlink" fill="transparent" x="0" y="0" width="350" height="350" preserveAspectRatio="xMinYMin slice"><style type="text/css">.links{fill:transparent;stroke: #E4CF37;}.links:hover{fill:#63D272; opacity:0.4;}</style><defs><g id="allt"><path id="t8090" d="M1023,1984 L1011,1986 C1000,1988 1013,1979 1005,1976 C998,1974 1011,1986 1000,1985 L990,1984 990,1984 L990,1993 C990,2002 999,1993 999,2002 C999,2011 991,1995 990,2005 L990,2016 990,2016 L999,2016 C1009,2016 999,2025 1008,2025 C1018,2025 1002,2017 1012,2016 L1023,2016 1023,2016 L1022,2006 C1022,1996 1027,2007 1026,1998 C1025,1989 1022,2005 1022,1994 L1023,1984"/></g><clipPath id="c" clipRule="evenodd" fill="transparent"><use href="#t8090"/></clipPath></defs><svg viewBox="989 1973 39 53" preserveAspectRatio="xMinYMin meet"><svg width="4380" height="2430"><g><image crossorigin="anonymous" x="0" y="0" href="https://nftpuzzle.license-token.com/assets/completepuzzle.svg" width="100%" height="100%" /><g class="links"><use href="#t8090"/></g></g></svg><svg x="1013" y="2011" height="9%" width="9%" viewBox="0 0 330 330"><g><a xlink:href="https://nftpuzzle.license-token.com/" class="links"><title>See the most innovative NFT based token software licensing project</title><path fill="#E4CF37" id="more" d="M165,0C74.019,0,0,74.019,0,165s74.019,165,165,165s165-74.019,165-165S255.981,0,165,0z M85,190 c-13.785,0-25-11.215-25-25s11.215-25,25-25s25,11.215,25,25S98.785,190,85,190z M165,190c-13.785,0-25-11.215-25-25 s11.215-25,25-25s25,11.215,25,25S178.785,190,165,190z M245,190c-13.785,0-25-11.215-25-25s11.215-25,25-25 c13.785,0,25,11.215,25,25S258.785,190,245,190z"></path></a></g></svg></svg></svg>