<svg version="1.1" xmlns="http://www.w3.org/2000/svg" xmlns:xlink="http://www.w3.org/1999/xlink" fill="transparent" x="0" y="0" width="350" height="350" preserveAspectRatio="xMinYMin slice"><style type="text/css">.links{fill:transparent;stroke: #E4CF37;}.links:hover{fill:#63D272; opacity:0.4;}</style><defs><g id="allt"><path id="t8096" d="M1221,1984 L1211,1983 C1202,1983 1213,1988 1204,1988 C1195,1988 1210,1983 1199,1983 L1188,1984 1188,1984 L1188,1993 C1188,2003 1183,1989 1183,1998 C1183,2007 1188,1998 1188,2007 L1188,2016 1188,2016 L1198,2016 C1208,2016 1193,2011 1202,2011 C1211,2011 1202,2016 1211,2016 L1221,2016 1221,2016 L1220,2005 C1220,1994 1225,2010 1225,1999 C1226,1989 1220,2002 1220,1993 L1221,1984"/></g><clipPath id="c" clipRule="evenodd" fill="transparent"><use href="#t8096"/></clipPath></defs><svg viewBox="1182 1982 45 35" preserveAspectRatio="xMinYMin meet"><svg width="4380" height="2430"><g><image crossorigin="anonymous" x="0" y="0" href="https://nftpuzzle.license-token.com/assets/completepuzzle.svg" width="100%" height="100%" /><g class="links"><use href="#t8096"/></g></g></svg><svg x="1212" y="2002" height="9%" width="9%" viewBox="0 0 330 330"><g><a xlink:href="https://nftpuzzle.license-token.com/" class="links"><title>See the most innovative NFT based token software licensing project</title><path fill="#E4CF37" id="more" d="M165,0C74.019,0,0,74.019,0,165s74.019,165,165,165s165-74.019,165-165S255.981,0,165,0z M85,190 c-13.785,0-25-11.215-25-25s11.215-25,25-25s25,11.215,25,25S98.785,190,85,190z M165,190c-13.785,0-25-11.215-25-25 s11.215-25,25-25s25,11.215,25,25S178.785,190,165,190z M245,190c-13.785,0-25-11.215-25-25s11.215-25,25-25 c13.785,0,25,11.215,25,25S258.785,190,245,190z"></path></a></g></svg></svg></svg>