<svg version="1.1" xmlns="http://www.w3.org/2000/svg" xmlns:xlink="http://www.w3.org/1999/xlink" fill="transparent" x="0" y="0" width="350" height="350" preserveAspectRatio="xMinYMin slice"><style type="text/css">.links{fill:transparent;stroke: #E4CF37;}.links:hover{fill:#63D272; opacity:0.4;}</style><defs><g id="allt"><path id="t8100" d="M1353,1984 L1343,1984 C1334,1984 1343,1977 1334,1977 C1325,1978 1338,1985 1329,1984 L1320,1984 1320,1984 L1319,1994 C1319,2005 1326,1989 1324,1999 C1323,2009 1320,1998 1320,2007 L1320,2016 1320,2016 L1331,2015 C1342,2015 1325,2022 1335,2020 C1346,2019 1334,2016 1343,2016 L1353,2016 1353,2016 L1353,2005 C1353,1994 1358,2006 1356,1997 C1355,1989 1353,2004 1353,1994 L1353,1984"/></g><clipPath id="c" clipRule="evenodd" fill="transparent"><use href="#t8100"/></clipPath></defs><svg viewBox="1318 1976 41 47" preserveAspectRatio="xMinYMin meet"><svg width="4380" height="2430"><g><image crossorigin="anonymous" x="0" y="0" href="https://nftpuzzle.license-token.com/assets/completepuzzle.svg" width="100%" height="100%" /><g class="links"><use href="#t8100"/></g></g></svg><svg x="1344" y="2008" height="9%" width="9%" viewBox="0 0 330 330"><g><a xlink:href="https://nftpuzzle.license-token.com/" class="links"><title>See the most innovative NFT based token software licensing project</title><path fill="#E4CF37" id="more" d="M165,0C74.019,0,0,74.019,0,165s74.019,165,165,165s165-74.019,165-165S255.981,0,165,0z M85,190 c-13.785,0-25-11.215-25-25s11.215-25,25-25s25,11.215,25,25S98.785,190,85,190z M165,190c-13.785,0-25-11.215-25-25 s11.215-25,25-25s25,11.215,25,25S178.785,190,165,190z M245,190c-13.785,0-25-11.215-25-25s11.215-25,25-25 c13.785,0,25,11.215,25,25S258.785,190,245,190z"></path></a></g></svg></svg></svg>