<svg version="1.1" xmlns="http://www.w3.org/2000/svg" xmlns:xlink="http://www.w3.org/1999/xlink" fill="transparent" x="0" y="0" width="350" height="350" preserveAspectRatio="xMinYMin slice"><style type="text/css">.links{fill:transparent;stroke: #E4CF37;}.links:hover{fill:#63D272; opacity:0.4;}</style><defs><g id="allt"><path id="t8101" d="M1386,1984 L1376,1984 C1366,1984 1376,1979 1367,1979 C1359,1979 1372,1984 1362,1984 L1353,1984 1353,1984 L1353,1994 C1353,2004 1355,1989 1356,1997 C1358,2006 1353,1994 1353,2005 L1353,2016 1353,2016 L1363,2016 C1373,2016 1358,2018 1367,2019 C1376,2021 1363,2016 1374,2016 L1386,2016 1386,2016 L1389,2005 C1392,1994 1379,2008 1379,1998 C1379,1988 1389,2003 1387,1993 L1386,1984"/></g><clipPath id="c" clipRule="evenodd" fill="transparent"><use href="#t8101"/></clipPath></defs><svg viewBox="1352 1978 41 44" preserveAspectRatio="xMinYMin meet"><svg width="4380" height="2430"><g><image crossorigin="anonymous" x="0" y="0" href="https://nftpuzzle.license-token.com/assets/completepuzzle.svg" width="100%" height="100%" /><g class="links"><use href="#t8101"/></g></g></svg><svg x="1378" y="2007" height="9%" width="9%" viewBox="0 0 330 330"><g><a xlink:href="https://nftpuzzle.license-token.com/" class="links"><title>See the most innovative NFT based token software licensing project</title><path fill="#E4CF37" id="more" d="M165,0C74.019,0,0,74.019,0,165s74.019,165,165,165s165-74.019,165-165S255.981,0,165,0z M85,190 c-13.785,0-25-11.215-25-25s11.215-25,25-25s25,11.215,25,25S98.785,190,85,190z M165,190c-13.785,0-25-11.215-25-25 s11.215-25,25-25s25,11.215,25,25S178.785,190,165,190z M245,190c-13.785,0-25-11.215-25-25s11.215-25,25-25 c13.785,0,25,11.215,25,25S258.785,190,245,190z"></path></a></g></svg></svg></svg>