<svg version="1.1" xmlns="http://www.w3.org/2000/svg" xmlns:xlink="http://www.w3.org/1999/xlink" fill="transparent" x="0" y="0" width="350" height="350" preserveAspectRatio="xMinYMin slice"><style type="text/css">.links{fill:transparent;stroke: #E4CF37;}.links:hover{fill:#63D272; opacity:0.4;}</style><defs><g id="allt"><path id="t8102" d="M1419,1984 L1409,1985 C1400,1987 1411,1973 1402,1975 C1394,1978 1405,1984 1395,1984 L1386,1984 1386,1984 L1387,1993 C1389,2003 1379,1988 1379,1998 C1379,2008 1392,1994 1389,2005 L1386,2016 1386,2016 L1396,2017 C1406,2019 1390,2009 1400,2009 C1411,2009 1396,2022 1407,2019 L1419,2016 1419,2016 L1418,2006 C1418,1997 1422,2008 1423,1998 C1425,1989 1417,2005 1418,1994 L1419,1984"/></g><clipPath id="c" clipRule="evenodd" fill="transparent"><use href="#t8102"/></clipPath></defs><svg viewBox="1378 1972 48 51" preserveAspectRatio="xMinYMin meet"><svg width="4380" height="2430"><g><image crossorigin="anonymous" x="0" y="0" href="https://nftpuzzle.license-token.com/assets/completepuzzle.svg" width="100%" height="100%" /><g class="links"><use href="#t8102"/></g></g></svg><svg x="1411" y="2008" height="9%" width="9%" viewBox="0 0 330 330"><g><a xlink:href="https://nftpuzzle.license-token.com/" class="links"><title>See the most innovative NFT based token software licensing project</title><path fill="#E4CF37" id="more" d="M165,0C74.019,0,0,74.019,0,165s74.019,165,165,165s165-74.019,165-165S255.981,0,165,0z M85,190 c-13.785,0-25-11.215-25-25s11.215-25,25-25s25,11.215,25,25S98.785,190,85,190z M165,190c-13.785,0-25-11.215-25-25 s11.215-25,25-25s25,11.215,25,25S178.785,190,165,190z M245,190c-13.785,0-25-11.215-25-25s11.215-25,25-25 c13.785,0,25,11.215,25,25S258.785,190,245,190z"></path></a></g></svg></svg></svg>