<svg version="1.1" xmlns="http://www.w3.org/2000/svg" xmlns:xlink="http://www.w3.org/1999/xlink" fill="transparent" x="0" y="0" width="350" height="350" preserveAspectRatio="xMinYMin slice"><style type="text/css">.links{fill:transparent;stroke: #E4CF37;}.links:hover{fill:#63D272; opacity:0.4;}</style><defs><g id="allt"><path id="t8104" d="M1485,1984 L1473,1984 C1462,1984 1475,1989 1468,1989 C1461,1989 1470,1984 1461,1984 L1452,1984 1452,1984 L1452,1993 C1452,2002 1447,1992 1447,2001 C1447,2010 1452,1994 1452,2005 L1452,2016 1452,2016 L1461,2016 C1471,2016 1460,2011 1469,2011 C1479,2011 1462,2016 1473,2016 L1485,2016 1485,2016 L1484,2005 C1484,1994 1492,2010 1492,2000 C1492,1991 1484,2005 1484,1994 L1485,1984"/></g><clipPath id="c" clipRule="evenodd" fill="transparent"><use href="#t8104"/></clipPath></defs><svg viewBox="1446 1983 47 34" preserveAspectRatio="xMinYMin meet"><svg width="4380" height="2430"><g><image crossorigin="anonymous" x="0" y="0" href="https://nftpuzzle.license-token.com/assets/completepuzzle.svg" width="100%" height="100%" /><g class="links"><use href="#t8104"/></g></g></svg><svg x="1478" y="2002" height="9%" width="9%" viewBox="0 0 330 330"><g><a xlink:href="https://nftpuzzle.license-token.com/" class="links"><title>See the most innovative NFT based token software licensing project</title><path fill="#E4CF37" id="more" d="M165,0C74.019,0,0,74.019,0,165s74.019,165,165,165s165-74.019,165-165S255.981,0,165,0z M85,190 c-13.785,0-25-11.215-25-25s11.215-25,25-25s25,11.215,25,25S98.785,190,85,190z M165,190c-13.785,0-25-11.215-25-25 s11.215-25,25-25s25,11.215,25,25S178.785,190,165,190z M245,190c-13.785,0-25-11.215-25-25s11.215-25,25-25 c13.785,0,25,11.215,25,25S258.785,190,245,190z"></path></a></g></svg></svg></svg>