<svg version="1.1" xmlns="http://www.w3.org/2000/svg" xmlns:xlink="http://www.w3.org/1999/xlink" fill="transparent" x="0" y="0" width="350" height="350" preserveAspectRatio="xMinYMin slice"><style type="text/css">.links{fill:transparent;stroke: #E4CF37;}.links:hover{fill:#63D272; opacity:0.4;}</style><defs><g id="allt"><path id="t8105" d="M1518,1984 L1508,1984 C1499,1985 1513,1979 1503,1980 C1494,1981 1504,1984 1494,1984 L1485,1984 1485,1984 L1484,1994 C1484,2005 1492,1991 1492,2000 C1492,2010 1484,1994 1484,2005 L1485,2016 1485,2016 L1496,2015 C1507,2015 1492,2023 1502,2023 C1512,2023 1496,2015 1507,2015 L1518,2016 1518,2016 L1519,2006 C1521,1996 1508,2007 1510,1998 C1513,1989 1521,2002 1519,1993 L1518,1984"/></g><clipPath id="c" clipRule="evenodd" fill="transparent"><use href="#t8105"/></clipPath></defs><svg viewBox="1483 1978 39 46" preserveAspectRatio="xMinYMin meet"><svg width="4380" height="2430"><g><image crossorigin="anonymous" x="0" y="0" href="https://nftpuzzle.license-token.com/assets/completepuzzle.svg" width="100%" height="100%" /><g class="links"><use href="#t8105"/></g></g></svg><svg x="1507" y="2009" height="9%" width="9%" viewBox="0 0 330 330"><g><a xlink:href="https://nftpuzzle.license-token.com/" class="links"><title>See the most innovative NFT based token software licensing project</title><path fill="#E4CF37" id="more" d="M165,0C74.019,0,0,74.019,0,165s74.019,165,165,165s165-74.019,165-165S255.981,0,165,0z M85,190 c-13.785,0-25-11.215-25-25s11.215-25,25-25s25,11.215,25,25S98.785,190,85,190z M165,190c-13.785,0-25-11.215-25-25 s11.215-25,25-25s25,11.215,25,25S178.785,190,165,190z M245,190c-13.785,0-25-11.215-25-25s11.215-25,25-25 c13.785,0,25,11.215,25,25S258.785,190,245,190z"></path></a></g></svg></svg></svg>