<svg version="1.1" xmlns="http://www.w3.org/2000/svg" xmlns:xlink="http://www.w3.org/1999/xlink" fill="transparent" x="0" y="0" width="350" height="350" preserveAspectRatio="xMinYMin slice"><style type="text/css">.links{fill:transparent;stroke: #E4CF37;}.links:hover{fill:#63D272; opacity:0.4;}</style><defs><g id="allt"><path id="t8108" d="M1617,1984 L1606,1984 C1596,1984 1608,1977 1599,1976 C1590,1976 1605,1985 1594,1984 L1584,1984 1584,1984 L1584,1993 C1585,2002 1579,1989 1577,1998 C1575,2007 1586,1997 1585,2006 L1584,2016 1584,2016 L1593,2016 C1602,2017 1589,2011 1598,2009 C1607,2008 1598,2018 1607,2017 L1617,2016 1617,2016 L1618,2007 C1619,1998 1613,2006 1613,1998 C1614,1990 1617,2003 1617,1993 L1617,1984"/></g><clipPath id="c" clipRule="evenodd" fill="transparent"><use href="#t8108"/></clipPath></defs><svg viewBox="1574 1975 46 44" preserveAspectRatio="xMinYMin meet"><svg width="4380" height="2430"><g><image crossorigin="anonymous" x="0" y="0" href="https://nftpuzzle.license-token.com/assets/completepuzzle.svg" width="100%" height="100%" /><g class="links"><use href="#t8108"/></g></g></svg><svg x="1605" y="2004" height="9%" width="9%" viewBox="0 0 330 330"><g><a xlink:href="https://nftpuzzle.license-token.com/" class="links"><title>See the most innovative NFT based token software licensing project</title><path fill="#E4CF37" id="more" d="M165,0C74.019,0,0,74.019,0,165s74.019,165,165,165s165-74.019,165-165S255.981,0,165,0z M85,190 c-13.785,0-25-11.215-25-25s11.215-25,25-25s25,11.215,25,25S98.785,190,85,190z M165,190c-13.785,0-25-11.215-25-25 s11.215-25,25-25s25,11.215,25,25S178.785,190,165,190z M245,190c-13.785,0-25-11.215-25-25s11.215-25,25-25 c13.785,0,25,11.215,25,25S258.785,190,245,190z"></path></a></g></svg></svg></svg>