<svg version="1.1" xmlns="http://www.w3.org/2000/svg" xmlns:xlink="http://www.w3.org/1999/xlink" fill="transparent" x="0" y="0" width="350" height="350" preserveAspectRatio="xMinYMin slice"><style type="text/css">.links{fill:transparent;stroke: #E4CF37;}.links:hover{fill:#63D272; opacity:0.4;}</style><defs><g id="allt"><path id="t8109" d="M1650,1984 L1639,1984 C1628,1984 1644,1977 1635,1977 C1626,1978 1638,1985 1627,1984 L1617,1984 1617,1984 L1617,1993 C1617,2003 1614,1990 1613,1998 C1613,2006 1619,1998 1618,2007 L1617,2016 1617,2016 L1627,2016 C1637,2016 1623,2013 1631,2012 C1640,2012 1631,2018 1640,2017 L1650,2016 1650,2016 L1652,2005 C1655,1995 1642,2008 1643,2000 C1644,1992 1650,2003 1650,1993 L1650,1984"/></g><clipPath id="c" clipRule="evenodd" fill="transparent"><use href="#t8109"/></clipPath></defs><svg viewBox="1612 1976 44 43" preserveAspectRatio="xMinYMin meet"><svg width="4380" height="2430"><g><image crossorigin="anonymous" x="0" y="0" href="https://nftpuzzle.license-token.com/assets/completepuzzle.svg" width="100%" height="100%" /><g class="links"><use href="#t8109"/></g></g></svg><svg x="1641" y="2004" height="9%" width="9%" viewBox="0 0 330 330"><g><a xlink:href="https://nftpuzzle.license-token.com/" class="links"><title>See the most innovative NFT based token software licensing project</title><path fill="#E4CF37" id="more" d="M165,0C74.019,0,0,74.019,0,165s74.019,165,165,165s165-74.019,165-165S255.981,0,165,0z M85,190 c-13.785,0-25-11.215-25-25s11.215-25,25-25s25,11.215,25,25S98.785,190,85,190z M165,190c-13.785,0-25-11.215-25-25 s11.215-25,25-25s25,11.215,25,25S178.785,190,165,190z M245,190c-13.785,0-25-11.215-25-25s11.215-25,25-25 c13.785,0,25,11.215,25,25S258.785,190,245,190z"></path></a></g></svg></svg></svg>