<svg version="1.1" xmlns="http://www.w3.org/2000/svg" xmlns:xlink="http://www.w3.org/1999/xlink" fill="transparent" x="0" y="0" width="350" height="350" preserveAspectRatio="xMinYMin slice"><style type="text/css">.links{fill:transparent;stroke: #E4CF37;}.links:hover{fill:#63D272; opacity:0.4;}</style><defs><g id="allt"><path id="t8115" d="M1848,1984 L1837,1983 C1827,1983 1838,1989 1829,1989 C1820,1989 1833,1982 1824,1983 L1815,1984 1815,1984 L1815,1993 C1816,2003 1809,1991 1809,1999 C1809,2007 1815,1997 1815,2006 L1815,2016 1815,2016 L1824,2016 C1834,2017 1822,2010 1830,2010 C1839,2010 1828,2016 1838,2016 L1848,2016 1848,2016 L1848,2006 C1849,1996 1844,2006 1843,1998 C1843,1991 1848,2003 1848,1993 L1848,1984"/></g><clipPath id="c" clipRule="evenodd" fill="transparent"><use href="#t8115"/></clipPath></defs><svg viewBox="1808 1981 42 37" preserveAspectRatio="xMinYMin meet"><svg width="4380" height="2430"><g><image crossorigin="anonymous" x="0" y="0" href="https://nftpuzzle.license-token.com/assets/completepuzzle.svg" width="100%" height="100%" /><g class="links"><use href="#t8115"/></g></g></svg><svg x="1835" y="2003" height="9%" width="9%" viewBox="0 0 330 330"><g><a xlink:href="https://nftpuzzle.license-token.com/" class="links"><title>See the most innovative NFT based token software licensing project</title><path fill="#E4CF37" id="more" d="M165,0C74.019,0,0,74.019,0,165s74.019,165,165,165s165-74.019,165-165S255.981,0,165,0z M85,190 c-13.785,0-25-11.215-25-25s11.215-25,25-25s25,11.215,25,25S98.785,190,85,190z M165,190c-13.785,0-25-11.215-25-25 s11.215-25,25-25s25,11.215,25,25S178.785,190,165,190z M245,190c-13.785,0-25-11.215-25-25s11.215-25,25-25 c13.785,0,25,11.215,25,25S258.785,190,245,190z"></path></a></g></svg></svg></svg>