<svg version="1.1" xmlns="http://www.w3.org/2000/svg" xmlns:xlink="http://www.w3.org/1999/xlink" fill="transparent" x="0" y="0" width="350" height="350" preserveAspectRatio="xMinYMin slice"><style type="text/css">.links{fill:transparent;stroke: #E4CF37;}.links:hover{fill:#63D272; opacity:0.4;}</style><defs><g id="allt"><path id="t8116" d="M1881,1984 L1871,1984 C1861,1984 1876,1986 1864,1987 C1853,1988 1867,1984 1857,1984 L1848,1984 1848,1984 L1848,1993 C1848,2003 1843,1991 1843,1998 C1844,2006 1849,1996 1848,2006 L1848,2016 1848,2016 L1858,2016 C1868,2016 1855,2011 1863,2011 C1871,2012 1861,2017 1871,2016 L1881,2016 1881,2016 L1880,2005 C1879,1994 1887,2009 1885,1998 C1884,1988 1879,2005 1880,1994 L1881,1984"/></g><clipPath id="c" clipRule="evenodd" fill="transparent"><use href="#t8116"/></clipPath></defs><svg viewBox="1842 1983 46 35" preserveAspectRatio="xMinYMin meet"><svg width="4380" height="2430"><g><image crossorigin="anonymous" x="0" y="0" href="https://nftpuzzle.license-token.com/assets/completepuzzle.svg" width="100%" height="100%" /><g class="links"><use href="#t8116"/></g></g></svg><svg x="1873" y="2003" height="9%" width="9%" viewBox="0 0 330 330"><g><a xlink:href="https://nftpuzzle.license-token.com/" class="links"><title>See the most innovative NFT based token software licensing project</title><path fill="#E4CF37" id="more" d="M165,0C74.019,0,0,74.019,0,165s74.019,165,165,165s165-74.019,165-165S255.981,0,165,0z M85,190 c-13.785,0-25-11.215-25-25s11.215-25,25-25s25,11.215,25,25S98.785,190,85,190z M165,190c-13.785,0-25-11.215-25-25 s11.215-25,25-25s25,11.215,25,25S178.785,190,165,190z M245,190c-13.785,0-25-11.215-25-25s11.215-25,25-25 c13.785,0,25,11.215,25,25S258.785,190,245,190z"></path></a></g></svg></svg></svg>