<svg version="1.1" xmlns="http://www.w3.org/2000/svg" xmlns:xlink="http://www.w3.org/1999/xlink" fill="transparent" x="0" y="0" width="350" height="350" preserveAspectRatio="xMinYMin slice"><style type="text/css">.links{fill:transparent;stroke: #E4CF37;}.links:hover{fill:#63D272; opacity:0.4;}</style><defs><g id="allt"><path id="t8118" d="M1947,1984 L1937,1984 C1927,1984 1937,1977 1929,1976 C1921,1976 1934,1987 1924,1985 L1914,1984 1914,1984 L1914,1993 C1915,2002 1907,1988 1908,1997 C1909,2007 1914,1995 1914,2005 L1914,2016 1914,2016 L1923,2016 C1933,2017 1918,2009 1928,2010 C1938,2011 1926,2016 1936,2016 L1947,2016 1947,2016 L1947,2006 C1947,1996 1944,2011 1943,2000 C1942,1989 1948,2004 1947,1994 L1947,1984"/></g><clipPath id="c" clipRule="evenodd" fill="transparent"><use href="#t8118"/></clipPath></defs><svg viewBox="1906 1975 43 43" preserveAspectRatio="xMinYMin meet"><svg width="4380" height="2430"><g><image crossorigin="anonymous" x="0" y="0" href="https://nftpuzzle.license-token.com/assets/completepuzzle.svg" width="100%" height="100%" /><g class="links"><use href="#t8118"/></g></g></svg><svg x="1934" y="2003" height="9%" width="9%" viewBox="0 0 330 330"><g><a xlink:href="https://nftpuzzle.license-token.com/" class="links"><title>See the most innovative NFT based token software licensing project</title><path fill="#E4CF37" id="more" d="M165,0C74.019,0,0,74.019,0,165s74.019,165,165,165s165-74.019,165-165S255.981,0,165,0z M85,190 c-13.785,0-25-11.215-25-25s11.215-25,25-25s25,11.215,25,25S98.785,190,85,190z M165,190c-13.785,0-25-11.215-25-25 s11.215-25,25-25s25,11.215,25,25S178.785,190,165,190z M245,190c-13.785,0-25-11.215-25-25s11.215-25,25-25 c13.785,0,25,11.215,25,25S258.785,190,245,190z"></path></a></g></svg></svg></svg>