<svg version="1.1" xmlns="http://www.w3.org/2000/svg" xmlns:xlink="http://www.w3.org/1999/xlink" fill="transparent" x="0" y="0" width="350" height="350" preserveAspectRatio="xMinYMin slice"><style type="text/css">.links{fill:transparent;stroke: #E4CF37;}.links:hover{fill:#63D272; opacity:0.4;}</style><defs><g id="allt"><path id="t8123" d="M2112,1984 L2101,1984 C2090,1984 2103,1989 2094,1992 C2085,1995 2097,1979 2088,1981 L2079,1984 2079,1984 L2080,1993 C2082,2002 2070,1992 2070,2000 C2070,2009 2080,1998 2079,2007 L2079,2016 2079,2016 L2088,2017 C2098,2019 2087,2007 2096,2007 C2105,2008 2093,2017 2102,2016 L2112,2016 2112,2016 L2112,2007 C2112,1998 2109,2006 2109,1999 C2110,1992 2112,2004 2112,1994 L2112,1984"/></g><clipPath id="c" clipRule="evenodd" fill="transparent"><use href="#t8123"/></clipPath></defs><svg viewBox="2069 1978 44 42" preserveAspectRatio="xMinYMin meet"><svg width="4380" height="2430"><g><image crossorigin="anonymous" x="0" y="0" href="https://nftpuzzle.license-token.com/assets/completepuzzle.svg" width="100%" height="100%" /><g class="links"><use href="#t8123"/></g></g></svg><svg x="2098" y="2005" height="9%" width="9%" viewBox="0 0 330 330"><g><a xlink:href="https://nftpuzzle.license-token.com/" class="links"><title>See the most innovative NFT based token software licensing project</title><path fill="#E4CF37" id="more" d="M165,0C74.019,0,0,74.019,0,165s74.019,165,165,165s165-74.019,165-165S255.981,0,165,0z M85,190 c-13.785,0-25-11.215-25-25s11.215-25,25-25s25,11.215,25,25S98.785,190,85,190z M165,190c-13.785,0-25-11.215-25-25 s11.215-25,25-25s25,11.215,25,25S178.785,190,165,190z M245,190c-13.785,0-25-11.215-25-25s11.215-25,25-25 c13.785,0,25,11.215,25,25S258.785,190,245,190z"></path></a></g></svg></svg></svg>