<svg version="1.1" xmlns="http://www.w3.org/2000/svg" xmlns:xlink="http://www.w3.org/1999/xlink" fill="transparent" x="0" y="0" width="350" height="350" preserveAspectRatio="xMinYMin slice"><style type="text/css">.links{fill:transparent;stroke: #E4CF37;}.links:hover{fill:#63D272; opacity:0.4;}</style><defs><g id="allt"><path id="t8124" d="M2145,1984 L2134,1984 C2123,1984 2136,1981 2128,1981 C2121,1981 2133,1984 2122,1984 L2112,1984 2112,1984 L2112,1994 C2112,2004 2110,1992 2109,1999 C2109,2006 2112,1998 2112,2007 L2112,2016 2112,2016 L2122,2016 C2133,2016 2120,2014 2127,2013 C2135,2013 2126,2016 2135,2016 L2145,2016 2145,2016 L2143,2006 C2142,1996 2150,2008 2151,2000 C2153,1993 2141,2003 2143,1993 L2145,1984"/></g><clipPath id="c" clipRule="evenodd" fill="transparent"><use href="#t8124"/></clipPath></defs><svg viewBox="2108 1980 46 37" preserveAspectRatio="xMinYMin meet"><svg width="4380" height="2430"><g><image crossorigin="anonymous" x="0" y="0" href="https://nftpuzzle.license-token.com/assets/completepuzzle.svg" width="100%" height="100%" /><g class="links"><use href="#t8124"/></g></g></svg><svg x="2139" y="2002" height="9%" width="9%" viewBox="0 0 330 330"><g><a xlink:href="https://nftpuzzle.license-token.com/" class="links"><title>See the most innovative NFT based token software licensing project</title><path fill="#E4CF37" id="more" d="M165,0C74.019,0,0,74.019,0,165s74.019,165,165,165s165-74.019,165-165S255.981,0,165,0z M85,190 c-13.785,0-25-11.215-25-25s11.215-25,25-25s25,11.215,25,25S98.785,190,85,190z M165,190c-13.785,0-25-11.215-25-25 s11.215-25,25-25s25,11.215,25,25S178.785,190,165,190z M245,190c-13.785,0-25-11.215-25-25s11.215-25,25-25 c13.785,0,25,11.215,25,25S258.785,190,245,190z"></path></a></g></svg></svg></svg>