<svg version="1.1" xmlns="http://www.w3.org/2000/svg" xmlns:xlink="http://www.w3.org/1999/xlink" fill="transparent" x="0" y="0" width="350" height="350" preserveAspectRatio="xMinYMin slice"><style type="text/css">.links{fill:transparent;stroke: #E4CF37;}.links:hover{fill:#63D272; opacity:0.4;}</style><defs><g id="allt"><path id="t8127" d="M2244,1984 L2234,1985 C2225,1987 2234,1977 2227,1978 C2220,1979 2229,1984 2220,1984 L2211,1984 2211,1984 L2212,1993 C2213,2002 2209,1993 2209,2000 C2209,2008 2211,1994 2211,2005 L2211,2016 2211,2016 L2220,2017 C2230,2018 2220,2014 2228,2014 C2236,2014 2221,2016 2232,2016 L2244,2016 2244,2016 L2244,2006 C2244,1997 2237,2008 2237,1999 C2238,1990 2244,2003 2244,1993 L2244,1984"/></g><clipPath id="c" clipRule="evenodd" fill="transparent"><use href="#t8127"/></clipPath></defs><svg viewBox="2208 1976 37 43" preserveAspectRatio="xMinYMin meet"><svg width="4380" height="2430"><g><image crossorigin="anonymous" x="0" y="0" href="https://nftpuzzle.license-token.com/assets/completepuzzle.svg" width="100%" height="100%" /><g class="links"><use href="#t8127"/></g></g></svg><svg x="2230" y="2004" height="9%" width="9%" viewBox="0 0 330 330"><g><a xlink:href="https://nftpuzzle.license-token.com/" class="links"><title>See the most innovative NFT based token software licensing project</title><path fill="#E4CF37" id="more" d="M165,0C74.019,0,0,74.019,0,165s74.019,165,165,165s165-74.019,165-165S255.981,0,165,0z M85,190 c-13.785,0-25-11.215-25-25s11.215-25,25-25s25,11.215,25,25S98.785,190,85,190z M165,190c-13.785,0-25-11.215-25-25 s11.215-25,25-25s25,11.215,25,25S178.785,190,165,190z M245,190c-13.785,0-25-11.215-25-25s11.215-25,25-25 c13.785,0,25,11.215,25,25S258.785,190,245,190z"></path></a></g></svg></svg></svg>