<svg version="1.1" xmlns="http://www.w3.org/2000/svg" xmlns:xlink="http://www.w3.org/1999/xlink" fill="transparent" x="0" y="0" width="350" height="350" preserveAspectRatio="xMinYMin slice"><style type="text/css">.links{fill:transparent;stroke: #E4CF37;}.links:hover{fill:#63D272; opacity:0.4;}</style><defs><g id="allt"><path id="t8129" d="M2310,1984 L2300,1983 C2290,1983 2302,1993 2292,1993 C2283,1994 2298,1979 2287,1981 L2277,1984 2277,1984 L2278,1993 C2279,2003 2270,1989 2272,1999 C2274,2010 2277,1996 2277,2006 L2277,2016 2277,2016 L2286,2017 C2296,2018 2282,2009 2293,2011 C2304,2013 2289,2016 2299,2016 L2310,2016 2310,2016 L2310,2006 C2310,1996 2317,2007 2315,1999 C2314,1992 2309,2002 2309,1993 L2310,1984"/></g><clipPath id="c" clipRule="evenodd" fill="transparent"><use href="#t8129"/></clipPath></defs><svg viewBox="2269 1978 49 41" preserveAspectRatio="xMinYMin meet"><svg width="4380" height="2430"><g><image crossorigin="anonymous" x="0" y="0" href="https://nftpuzzle.license-token.com/assets/completepuzzle.svg" width="100%" height="100%" /><g class="links"><use href="#t8129"/></g></g></svg><svg x="2303" y="2004" height="9%" width="9%" viewBox="0 0 330 330"><g><a xlink:href="https://nftpuzzle.license-token.com/" class="links"><title>See the most innovative NFT based token software licensing project</title><path fill="#E4CF37" id="more" d="M165,0C74.019,0,0,74.019,0,165s74.019,165,165,165s165-74.019,165-165S255.981,0,165,0z M85,190 c-13.785,0-25-11.215-25-25s11.215-25,25-25s25,11.215,25,25S98.785,190,85,190z M165,190c-13.785,0-25-11.215-25-25 s11.215-25,25-25s25,11.215,25,25S178.785,190,165,190z M245,190c-13.785,0-25-11.215-25-25s11.215-25,25-25 c13.785,0,25,11.215,25,25S258.785,190,245,190z"></path></a></g></svg></svg></svg>