<svg version="1.1" xmlns="http://www.w3.org/2000/svg" xmlns:xlink="http://www.w3.org/1999/xlink" fill="transparent" x="0" y="0" width="350" height="350" preserveAspectRatio="xMinYMin slice"><style type="text/css">.links{fill:transparent;stroke: #E4CF37;}.links:hover{fill:#63D272; opacity:0.4;}</style><defs><g id="allt"><path id="t8130" d="M2343,1984 L2333,1983 C2324,1982 2337,1989 2328,1989 C2319,1989 2331,1982 2320,1983 L2310,1984 2310,1984 L2309,1993 C2309,2002 2314,1992 2315,1999 C2317,2007 2310,1996 2310,2006 L2310,2016 2310,2016 L2319,2015 C2329,2015 2318,2020 2326,2021 C2334,2023 2322,2016 2332,2016 L2343,2016 2343,2016 L2341,2005 C2339,1995 2354,2008 2355,1999 C2357,1990 2343,2005 2343,1994 L2343,1984"/></g><clipPath id="c" clipRule="evenodd" fill="transparent"><use href="#t8130"/></clipPath></defs><svg viewBox="2308 1981 50 43" preserveAspectRatio="xMinYMin meet"><svg width="4380" height="2430"><g><image crossorigin="anonymous" x="0" y="0" href="https://nftpuzzle.license-token.com/assets/completepuzzle.svg" width="100%" height="100%" /><g class="links"><use href="#t8130"/></g></g></svg><svg x="2343" y="2009" height="9%" width="9%" viewBox="0 0 330 330"><g><a xlink:href="https://nftpuzzle.license-token.com/" class="links"><title>See the most innovative NFT based token software licensing project</title><path fill="#E4CF37" id="more" d="M165,0C74.019,0,0,74.019,0,165s74.019,165,165,165s165-74.019,165-165S255.981,0,165,0z M85,190 c-13.785,0-25-11.215-25-25s11.215-25,25-25s25,11.215,25,25S98.785,190,85,190z M165,190c-13.785,0-25-11.215-25-25 s11.215-25,25-25s25,11.215,25,25S178.785,190,165,190z M245,190c-13.785,0-25-11.215-25-25s11.215-25,25-25 c13.785,0,25,11.215,25,25S258.785,190,245,190z"></path></a></g></svg></svg></svg>