<svg version="1.1" xmlns="http://www.w3.org/2000/svg" xmlns:xlink="http://www.w3.org/1999/xlink" fill="transparent" x="0" y="0" width="350" height="350" preserveAspectRatio="xMinYMin slice"><style type="text/css">.links{fill:transparent;stroke: #E4CF37;}.links:hover{fill:#63D272; opacity:0.4;}</style><defs><g id="allt"><path id="t8133" d="M2442,1984 L2431,1984 C2420,1985 2432,1978 2423,1978 C2415,1978 2427,1984 2418,1984 L2409,1984 2409,1984 L2408,1993 C2407,2002 2414,1993 2414,2001 C2414,2009 2409,1998 2409,2007 L2409,2016 2409,2016 L2418,2015 C2428,2014 2418,2021 2426,2021 C2435,2021 2423,2016 2432,2016 L2442,2016 2442,2016 L2443,2006 C2444,1997 2432,2006 2432,1997 C2432,1989 2445,2002 2443,1993 L2442,1984"/></g><clipPath id="c" clipRule="evenodd" fill="transparent"><use href="#t8133"/></clipPath></defs><svg viewBox="2406 1977 40 45" preserveAspectRatio="xMinYMin meet"><svg width="4380" height="2430"><g><image crossorigin="anonymous" x="0" y="0" href="https://nftpuzzle.license-token.com/assets/completepuzzle.svg" width="100%" height="100%" /><g class="links"><use href="#t8133"/></g></g></svg><svg x="2431" y="2007" height="9%" width="9%" viewBox="0 0 330 330"><g><a xlink:href="https://nftpuzzle.license-token.com/" class="links"><title>See the most innovative NFT based token software licensing project</title><path fill="#E4CF37" id="more" d="M165,0C74.019,0,0,74.019,0,165s74.019,165,165,165s165-74.019,165-165S255.981,0,165,0z M85,190 c-13.785,0-25-11.215-25-25s11.215-25,25-25s25,11.215,25,25S98.785,190,85,190z M165,190c-13.785,0-25-11.215-25-25 s11.215-25,25-25s25,11.215,25,25S178.785,190,165,190z M245,190c-13.785,0-25-11.215-25-25s11.215-25,25-25 c13.785,0,25,11.215,25,25S258.785,190,245,190z"></path></a></g></svg></svg></svg>