<svg version="1.1" xmlns="http://www.w3.org/2000/svg" xmlns:xlink="http://www.w3.org/1999/xlink" fill="transparent" x="0" y="0" width="350" height="350" preserveAspectRatio="xMinYMin slice"><style type="text/css">.links{fill:transparent;stroke: #E4CF37;}.links:hover{fill:#63D272; opacity:0.4;}</style><defs><g id="allt"><path id="t814" d="M1155,192 L1144,192 C1133,192 1148,198 1137,198 C1127,198 1140,190 1131,191 L1122,192 1122,192 L1124,201 C1127,211 1112,201 1111,208 C1111,216 1125,205 1123,214 L1122,224 1122,224 L1132,226 C1142,229 1131,214 1139,214 C1147,214 1136,227 1145,225 L1155,224 1155,224 L1155,214 C1156,204 1147,217 1149,206 C1151,196 1155,213 1155,202 L1155,192"/></g><clipPath id="c" clipRule="evenodd" fill="transparent"><use href="#t814"/></clipPath></defs><svg viewBox="1110 189 47 41" preserveAspectRatio="xMinYMin meet"><svg width="4380" height="2430"><g><image crossorigin="anonymous" x="0" y="0" href="https://nftpuzzle.license-token.com/assets/completepuzzle.svg" width="100%" height="100%" /><g class="links"><use href="#t814"/></g></g></svg><svg x="1142" y="215" height="9%" width="9%" viewBox="0 0 330 330"><g><a xlink:href="https://nftpuzzle.license-token.com/" class="links"><title>See the most innovative NFT based token software licensing project</title><path fill="#E4CF37" id="more" d="M165,0C74.019,0,0,74.019,0,165s74.019,165,165,165s165-74.019,165-165S255.981,0,165,0z M85,190 c-13.785,0-25-11.215-25-25s11.215-25,25-25s25,11.215,25,25S98.785,190,85,190z M165,190c-13.785,0-25-11.215-25-25 s11.215-25,25-25s25,11.215,25,25S178.785,190,165,190z M245,190c-13.785,0-25-11.215-25-25s11.215-25,25-25 c13.785,0,25,11.215,25,25S258.785,190,245,190z"></path></a></g></svg></svg></svg>