<svg version="1.1" xmlns="http://www.w3.org/2000/svg" xmlns:xlink="http://www.w3.org/1999/xlink" fill="transparent" x="0" y="0" width="350" height="350" preserveAspectRatio="xMinYMin slice"><style type="text/css">.links{fill:transparent;stroke: #E4CF37;}.links:hover{fill:#63D272; opacity:0.4;}</style><defs><g id="allt"><path id="t8140" d="M2673,1984 L2662,1985 C2652,1986 2664,1972 2655,1974 C2646,1977 2659,1984 2649,1984 L2640,1984 2640,1984 L2640,1993 C2640,2002 2647,1989 2646,1999 C2646,2009 2640,1997 2640,2006 L2640,2016 2640,2016 L2649,2016 C2659,2016 2645,2023 2655,2022 C2666,2022 2653,2016 2663,2016 L2673,2016 2673,2016 L2673,2007 C2674,1998 2666,2008 2665,2000 C2665,1993 2676,2002 2674,1993 L2673,1984"/></g><clipPath id="c" clipRule="evenodd" fill="transparent"><use href="#t8140"/></clipPath></defs><svg viewBox="2639 1971 38 53" preserveAspectRatio="xMinYMin meet"><svg width="4380" height="2430"><g><image crossorigin="anonymous" x="0" y="0" href="https://nftpuzzle.license-token.com/assets/completepuzzle.svg" width="100%" height="100%" /><g class="links"><use href="#t8140"/></g></g></svg><svg x="2662" y="2009" height="9%" width="9%" viewBox="0 0 330 330"><g><a xlink:href="https://nftpuzzle.license-token.com/" class="links"><title>See the most innovative NFT based token software licensing project</title><path fill="#E4CF37" id="more" d="M165,0C74.019,0,0,74.019,0,165s74.019,165,165,165s165-74.019,165-165S255.981,0,165,0z M85,190 c-13.785,0-25-11.215-25-25s11.215-25,25-25s25,11.215,25,25S98.785,190,85,190z M165,190c-13.785,0-25-11.215-25-25 s11.215-25,25-25s25,11.215,25,25S178.785,190,165,190z M245,190c-13.785,0-25-11.215-25-25s11.215-25,25-25 c13.785,0,25,11.215,25,25S258.785,190,245,190z"></path></a></g></svg></svg></svg>