<svg version="1.1" xmlns="http://www.w3.org/2000/svg" xmlns:xlink="http://www.w3.org/1999/xlink" fill="transparent" x="0" y="0" width="350" height="350" preserveAspectRatio="xMinYMin slice"><style type="text/css">.links{fill:transparent;stroke: #E4CF37;}.links:hover{fill:#63D272; opacity:0.4;}</style><defs><g id="allt"><path id="t8144" d="M2805,1984 L2793,1984 C2782,1984 2797,1980 2788,1980 C2780,1981 2794,1985 2783,1984 L2772,1984 2772,1984 L2772,1994 C2772,2005 2765,1993 2765,2001 C2766,2009 2773,1995 2772,2005 L2772,2016 2772,2016 L2783,2016 C2794,2016 2781,2009 2789,2009 C2798,2010 2783,2017 2794,2016 L2805,2016 2805,2016 L2805,2006 C2805,1997 2809,2007 2808,1998 C2807,1989 2805,2003 2805,1993 L2805,1984"/></g><clipPath id="c" clipRule="evenodd" fill="transparent"><use href="#t8144"/></clipPath></defs><svg viewBox="2764 1979 46 39" preserveAspectRatio="xMinYMin meet"><svg width="4380" height="2430"><g><image crossorigin="anonymous" x="0" y="0" href="https://nftpuzzle.license-token.com/assets/completepuzzle.svg" width="100%" height="100%" /><g class="links"><use href="#t8144"/></g></g></svg><svg x="2795" y="2003" height="9%" width="9%" viewBox="0 0 330 330"><g><a xlink:href="https://nftpuzzle.license-token.com/" class="links"><title>See the most innovative NFT based token software licensing project</title><path fill="#E4CF37" id="more" d="M165,0C74.019,0,0,74.019,0,165s74.019,165,165,165s165-74.019,165-165S255.981,0,165,0z M85,190 c-13.785,0-25-11.215-25-25s11.215-25,25-25s25,11.215,25,25S98.785,190,85,190z M165,190c-13.785,0-25-11.215-25-25 s11.215-25,25-25s25,11.215,25,25S178.785,190,165,190z M245,190c-13.785,0-25-11.215-25-25s11.215-25,25-25 c13.785,0,25,11.215,25,25S258.785,190,245,190z"></path></a></g></svg></svg></svg>