<svg version="1.1" xmlns="http://www.w3.org/2000/svg" xmlns:xlink="http://www.w3.org/1999/xlink" fill="transparent" x="0" y="0" width="350" height="350" preserveAspectRatio="xMinYMin slice"><style type="text/css">.links{fill:transparent;stroke: #E4CF37;}.links:hover{fill:#63D272; opacity:0.4;}</style><defs><g id="allt"><path id="t815" d="M1188,192 L1177,192 C1167,192 1183,186 1173,185 C1164,184 1174,192 1164,192 L1155,192 1155,192 L1155,202 C1155,213 1151,196 1149,206 C1147,217 1156,204 1155,214 L1155,224 1155,224 L1165,224 C1176,224 1159,220 1170,218 C1181,216 1168,225 1178,224 L1188,224 1188,224 L1188,214 C1188,205 1192,217 1192,209 C1192,201 1187,213 1187,202 L1188,192"/></g><clipPath id="c" clipRule="evenodd" fill="transparent"><use href="#t815"/></clipPath></defs><svg viewBox="1146 183 47 43" preserveAspectRatio="xMinYMin meet"><svg width="4380" height="2430"><g><image crossorigin="anonymous" x="0" y="0" href="https://nftpuzzle.license-token.com/assets/completepuzzle.svg" width="100%" height="100%" /><g class="links"><use href="#t815"/></g></g></svg><svg x="1178" y="211" height="9%" width="9%" viewBox="0 0 330 330"><g><a xlink:href="https://nftpuzzle.license-token.com/" class="links"><title>See the most innovative NFT based token software licensing project</title><path fill="#E4CF37" id="more" d="M165,0C74.019,0,0,74.019,0,165s74.019,165,165,165s165-74.019,165-165S255.981,0,165,0z M85,190 c-13.785,0-25-11.215-25-25s11.215-25,25-25s25,11.215,25,25S98.785,190,85,190z M165,190c-13.785,0-25-11.215-25-25 s11.215-25,25-25s25,11.215,25,25S178.785,190,165,190z M245,190c-13.785,0-25-11.215-25-25s11.215-25,25-25 c13.785,0,25,11.215,25,25S258.785,190,245,190z"></path></a></g></svg></svg></svg>