<svg version="1.1" xmlns="http://www.w3.org/2000/svg" xmlns:xlink="http://www.w3.org/1999/xlink" fill="transparent" x="0" y="0" width="350" height="350" preserveAspectRatio="xMinYMin slice"><style type="text/css">.links{fill:transparent;stroke: #E4CF37;}.links:hover{fill:#63D272; opacity:0.4;}</style><defs><g id="allt"><path id="t8150" d="M3003,1984 L2993,1983 C2983,1983 2996,1987 2985,1987 C2974,1987 2988,1982 2979,1983 L2970,1984 2970,1984 L2970,1994 C2970,2004 2974,1990 2976,1998 C2978,2006 2967,1997 2968,2006 L2970,2016 2970,2016 L2980,2016 C2990,2016 2976,2020 2984,2022 C2993,2024 2983,2013 2993,2014 L3003,2016 3003,2016 L3003,2005 C3003,1995 3001,2010 3000,2000 C2999,1990 3003,2003 3003,1993 L3003,1984"/></g><clipPath id="c" clipRule="evenodd" fill="transparent"><use href="#t8150"/></clipPath></defs><svg viewBox="2966 1981 38 44" preserveAspectRatio="xMinYMin meet"><svg width="4380" height="2430"><g><image crossorigin="anonymous" x="0" y="0" href="https://nftpuzzle.license-token.com/assets/completepuzzle.svg" width="100%" height="100%" /><g class="links"><use href="#t8150"/></g></g></svg><svg x="2989" y="2010" height="9%" width="9%" viewBox="0 0 330 330"><g><a xlink:href="https://nftpuzzle.license-token.com/" class="links"><title>See the most innovative NFT based token software licensing project</title><path fill="#E4CF37" id="more" d="M165,0C74.019,0,0,74.019,0,165s74.019,165,165,165s165-74.019,165-165S255.981,0,165,0z M85,190 c-13.785,0-25-11.215-25-25s11.215-25,25-25s25,11.215,25,25S98.785,190,85,190z M165,190c-13.785,0-25-11.215-25-25 s11.215-25,25-25s25,11.215,25,25S178.785,190,165,190z M245,190c-13.785,0-25-11.215-25-25s11.215-25,25-25 c13.785,0,25,11.215,25,25S258.785,190,245,190z"></path></a></g></svg></svg></svg>