<svg version="1.1" xmlns="http://www.w3.org/2000/svg" xmlns:xlink="http://www.w3.org/1999/xlink" fill="transparent" x="0" y="0" width="350" height="350" preserveAspectRatio="xMinYMin slice"><style type="text/css">.links{fill:transparent;stroke: #E4CF37;}.links:hover{fill:#63D272; opacity:0.4;}</style><defs><g id="allt"><path id="t8156" d="M3201,1984 L3190,1984 C3180,1984 3195,1992 3184,1992 C3173,1993 3190,1984 3179,1984 L3168,1984 3168,1984 L3168,1994 C3168,2004 3160,1993 3160,2001 C3160,2010 3170,1996 3169,2006 L3168,2016 3168,2016 L3178,2016 C3188,2016 3177,2008 3186,2008 C3195,2008 3180,2018 3190,2017 L3201,2016 3201,2016 L3201,2006 C3201,1997 3198,2009 3197,1999 C3197,1989 3201,2005 3201,1994 L3201,1984"/></g><clipPath id="c" clipRule="evenodd" fill="transparent"><use href="#t8156"/></clipPath></defs><svg viewBox="3159 1983 43 36" preserveAspectRatio="xMinYMin meet"><svg width="4380" height="2430"><g><image crossorigin="anonymous" x="0" y="0" href="https://nftpuzzle.license-token.com/assets/completepuzzle.svg" width="100%" height="100%" /><g class="links"><use href="#t8156"/></g></g></svg><svg x="3187" y="2004" height="9%" width="9%" viewBox="0 0 330 330"><g><a xlink:href="https://nftpuzzle.license-token.com/" class="links"><title>See the most innovative NFT based token software licensing project</title><path fill="#E4CF37" id="more" d="M165,0C74.019,0,0,74.019,0,165s74.019,165,165,165s165-74.019,165-165S255.981,0,165,0z M85,190 c-13.785,0-25-11.215-25-25s11.215-25,25-25s25,11.215,25,25S98.785,190,85,190z M165,190c-13.785,0-25-11.215-25-25 s11.215-25,25-25s25,11.215,25,25S178.785,190,165,190z M245,190c-13.785,0-25-11.215-25-25s11.215-25,25-25 c13.785,0,25,11.215,25,25S258.785,190,245,190z"></path></a></g></svg></svg></svg>