<svg version="1.1" xmlns="http://www.w3.org/2000/svg" xmlns:xlink="http://www.w3.org/1999/xlink" fill="transparent" x="0" y="0" width="350" height="350" preserveAspectRatio="xMinYMin slice"><style type="text/css">.links{fill:transparent;stroke: #E4CF37;}.links:hover{fill:#63D272; opacity:0.4;}</style><defs><g id="allt"><path id="t8158" d="M3267,1984 L3257,1983 C3247,1983 3261,1990 3250,1989 C3240,1988 3252,1984 3243,1984 L3234,1984 3234,1984 L3233,1993 C3232,2002 3241,1990 3242,2000 C3243,2010 3234,1997 3234,2006 L3234,2016 3234,2016 L3243,2015 C3253,2014 3240,2023 3250,2024 C3261,2025 3247,2016 3257,2016 L3267,2016 3267,2016 L3267,2005 C3268,1995 3263,2007 3262,1999 C3262,1992 3267,2004 3267,1994 L3267,1984"/></g><clipPath id="c" clipRule="evenodd" fill="transparent"><use href="#t8158"/></clipPath></defs><svg viewBox="3231 1982 38 44" preserveAspectRatio="xMinYMin meet"><svg width="4380" height="2430"><g><image crossorigin="anonymous" x="0" y="0" href="https://nftpuzzle.license-token.com/assets/completepuzzle.svg" width="100%" height="100%" /><g class="links"><use href="#t8158"/></g></g></svg><svg x="3254" y="2011" height="9%" width="9%" viewBox="0 0 330 330"><g><a xlink:href="https://nftpuzzle.license-token.com/" class="links"><title>See the most innovative NFT based token software licensing project</title><path fill="#E4CF37" id="more" d="M165,0C74.019,0,0,74.019,0,165s74.019,165,165,165s165-74.019,165-165S255.981,0,165,0z M85,190 c-13.785,0-25-11.215-25-25s11.215-25,25-25s25,11.215,25,25S98.785,190,85,190z M165,190c-13.785,0-25-11.215-25-25 s11.215-25,25-25s25,11.215,25,25S178.785,190,165,190z M245,190c-13.785,0-25-11.215-25-25s11.215-25,25-25 c13.785,0,25,11.215,25,25S258.785,190,245,190z"></path></a></g></svg></svg></svg>