<svg version="1.1" xmlns="http://www.w3.org/2000/svg" xmlns:xlink="http://www.w3.org/1999/xlink" fill="transparent" x="0" y="0" width="350" height="350" preserveAspectRatio="xMinYMin slice"><style type="text/css">.links{fill:transparent;stroke: #E4CF37;}.links:hover{fill:#63D272; opacity:0.4;}</style><defs><g id="allt"><path id="t8163" d="M3432,1984 L3422,1984 C3412,1984 3425,1978 3416,1977 C3408,1977 3419,1984 3409,1984 L3399,1984 3399,1984 L3398,1994 C3397,2004 3402,1991 3402,1999 C3403,2007 3397,1995 3398,2005 L3399,2016 3399,2016 L3409,2015 C3419,2014 3406,2019 3414,2019 C3423,2020 3410,2014 3421,2015 L3432,2016 3432,2016 L3434,2007 C3436,1998 3428,2009 3425,1999 C3422,1989 3436,2005 3434,1994 L3432,1984"/></g><clipPath id="c" clipRule="evenodd" fill="transparent"><use href="#t8163"/></clipPath></defs><svg viewBox="3396 1976 41 45" preserveAspectRatio="xMinYMin meet"><svg width="4380" height="2430"><g><image crossorigin="anonymous" x="0" y="0" href="https://nftpuzzle.license-token.com/assets/completepuzzle.svg" width="100%" height="100%" /><g class="links"><use href="#t8163"/></g></g></svg><svg x="3422" y="2006" height="9%" width="9%" viewBox="0 0 330 330"><g><a xlink:href="https://nftpuzzle.license-token.com/" class="links"><title>See the most innovative NFT based token software licensing project</title><path fill="#E4CF37" id="more" d="M165,0C74.019,0,0,74.019,0,165s74.019,165,165,165s165-74.019,165-165S255.981,0,165,0z M85,190 c-13.785,0-25-11.215-25-25s11.215-25,25-25s25,11.215,25,25S98.785,190,85,190z M165,190c-13.785,0-25-11.215-25-25 s11.215-25,25-25s25,11.215,25,25S178.785,190,165,190z M245,190c-13.785,0-25-11.215-25-25s11.215-25,25-25 c13.785,0,25,11.215,25,25S258.785,190,245,190z"></path></a></g></svg></svg></svg>