<svg version="1.1" xmlns="http://www.w3.org/2000/svg" xmlns:xlink="http://www.w3.org/1999/xlink" fill="transparent" x="0" y="0" width="350" height="350" preserveAspectRatio="xMinYMin slice"><style type="text/css">.links{fill:transparent;stroke: #E4CF37;}.links:hover{fill:#63D272; opacity:0.4;}</style><defs><g id="allt"><path id="t8164" d="M3465,1984 L3454,1984 C3443,1984 3455,1974 3446,1975 C3437,1977 3450,1987 3441,1985 L3432,1984 3432,1984 L3434,1994 C3436,2005 3422,1989 3425,1999 C3428,2009 3436,1998 3434,2007 L3432,2016 3432,2016 L3442,2018 C3453,2020 3437,2006 3447,2009 C3458,2012 3446,2020 3455,2018 L3465,2016 3465,2016 L3466,2005 C3468,1995 3460,2007 3460,1998 C3460,1989 3465,2005 3465,1994 L3465,1984"/></g><clipPath id="c" clipRule="evenodd" fill="transparent"><use href="#t8164"/></clipPath></defs><svg viewBox="3421 1973 48 48" preserveAspectRatio="xMinYMin meet"><svg width="4380" height="2430"><g><image crossorigin="anonymous" x="0" y="0" href="https://nftpuzzle.license-token.com/assets/completepuzzle.svg" width="100%" height="100%" /><g class="links"><use href="#t8164"/></g></g></svg><svg x="3454" y="2006" height="9%" width="9%" viewBox="0 0 330 330"><g><a xlink:href="https://nftpuzzle.license-token.com/" class="links"><title>See the most innovative NFT based token software licensing project</title><path fill="#E4CF37" id="more" d="M165,0C74.019,0,0,74.019,0,165s74.019,165,165,165s165-74.019,165-165S255.981,0,165,0z M85,190 c-13.785,0-25-11.215-25-25s11.215-25,25-25s25,11.215,25,25S98.785,190,85,190z M165,190c-13.785,0-25-11.215-25-25 s11.215-25,25-25s25,11.215,25,25S178.785,190,165,190z M245,190c-13.785,0-25-11.215-25-25s11.215-25,25-25 c13.785,0,25,11.215,25,25S258.785,190,245,190z"></path></a></g></svg></svg></svg>