<svg version="1.1" xmlns="http://www.w3.org/2000/svg" xmlns:xlink="http://www.w3.org/1999/xlink" fill="transparent" x="0" y="0" width="350" height="350" preserveAspectRatio="xMinYMin slice"><style type="text/css">.links{fill:transparent;stroke: #E4CF37;}.links:hover{fill:#63D272; opacity:0.4;}</style><defs><g id="allt"><path id="t8168" d="M3597,1984 L3587,1984 C3578,1984 3588,1992 3579,1992 C3570,1992 3586,1982 3575,1983 L3564,1984 3564,1984 L3564,1993 C3564,2003 3556,1993 3556,2000 C3556,2007 3565,1998 3564,2007 L3564,2016 3564,2016 L3573,2016 C3583,2016 3573,2008 3580,2008 C3588,2008 3578,2017 3587,2016 L3597,2016 3597,2016 L3597,2006 C3598,1997 3589,2006 3588,1999 C3588,1993 3598,2001 3597,1992 L3597,1984"/></g><clipPath id="c" clipRule="evenodd" fill="transparent"><use href="#t8168"/></clipPath></defs><svg viewBox="3555 1981 44 37" preserveAspectRatio="xMinYMin meet"><svg width="4380" height="2430"><g><image crossorigin="anonymous" x="0" y="0" href="https://nftpuzzle.license-token.com/assets/completepuzzle.svg" width="100%" height="100%" /><g class="links"><use href="#t8168"/></g></g></svg><svg x="3584" y="2003" height="9%" width="9%" viewBox="0 0 330 330"><g><a xlink:href="https://nftpuzzle.license-token.com/" class="links"><title>See the most innovative NFT based token software licensing project</title><path fill="#E4CF37" id="more" d="M165,0C74.019,0,0,74.019,0,165s74.019,165,165,165s165-74.019,165-165S255.981,0,165,0z M85,190 c-13.785,0-25-11.215-25-25s11.215-25,25-25s25,11.215,25,25S98.785,190,85,190z M165,190c-13.785,0-25-11.215-25-25 s11.215-25,25-25s25,11.215,25,25S178.785,190,165,190z M245,190c-13.785,0-25-11.215-25-25s11.215-25,25-25 c13.785,0,25,11.215,25,25S258.785,190,245,190z"></path></a></g></svg></svg></svg>