<svg version="1.1" xmlns="http://www.w3.org/2000/svg" xmlns:xlink="http://www.w3.org/1999/xlink" fill="transparent" x="0" y="0" width="350" height="350" preserveAspectRatio="xMinYMin slice"><style type="text/css">.links{fill:transparent;stroke: #E4CF37;}.links:hover{fill:#63D272; opacity:0.4;}</style><defs><g id="allt"><path id="t8172" d="M3729,1984 L3719,1984 C3710,1984 3722,1979 3713,1979 C3704,1980 3717,1986 3706,1985 L3696,1984 3696,1984 L3696,1994 C3696,2005 3701,1992 3701,2001 C3702,2010 3693,1995 3694,2005 L3696,2016 3696,2016 L3706,2016 C3717,2016 3704,2021 3713,2021 C3723,2022 3707,2013 3718,2014 L3729,2016 3729,2016 L3729,2006 C3729,1996 3731,2009 3731,2000 C3732,1992 3728,2005 3728,1994 L3729,1984"/></g><clipPath id="c" clipRule="evenodd" fill="transparent"><use href="#t8172"/></clipPath></defs><svg viewBox="3692 1978 41 45" preserveAspectRatio="xMinYMin meet"><svg width="4380" height="2430"><g><image crossorigin="anonymous" x="0" y="0" href="https://nftpuzzle.license-token.com/assets/completepuzzle.svg" width="100%" height="100%" /><g class="links"><use href="#t8172"/></g></g></svg><svg x="3718" y="2008" height="9%" width="9%" viewBox="0 0 330 330"><g><a xlink:href="https://nftpuzzle.license-token.com/" class="links"><title>See the most innovative NFT based token software licensing project</title><path fill="#E4CF37" id="more" d="M165,0C74.019,0,0,74.019,0,165s74.019,165,165,165s165-74.019,165-165S255.981,0,165,0z M85,190 c-13.785,0-25-11.215-25-25s11.215-25,25-25s25,11.215,25,25S98.785,190,85,190z M165,190c-13.785,0-25-11.215-25-25 s11.215-25,25-25s25,11.215,25,25S178.785,190,165,190z M245,190c-13.785,0-25-11.215-25-25s11.215-25,25-25 c13.785,0,25,11.215,25,25S258.785,190,245,190z"></path></a></g></svg></svg></svg>