<svg version="1.1" xmlns="http://www.w3.org/2000/svg" xmlns:xlink="http://www.w3.org/1999/xlink" fill="transparent" x="0" y="0" width="350" height="350" preserveAspectRatio="xMinYMin slice"><style type="text/css">.links{fill:transparent;stroke: #E4CF37;}.links:hover{fill:#63D272; opacity:0.4;}</style><defs><g id="allt"><path id="t8174" d="M3795,1984 L3784,1984 C3773,1984 3785,1973 3776,1973 C3768,1973 3783,1989 3772,1986 L3762,1984 3762,1984 L3762,1994 C3762,2004 3757,1991 3755,2000 C3753,2010 3762,1995 3762,2005 L3762,2016 3762,2016 L3772,2016 C3783,2016 3769,2011 3779,2009 C3789,2008 3773,2016 3784,2016 L3795,2016 3795,2016 L3794,2006 C3794,1996 3801,2009 3801,2000 C3801,1992 3794,2003 3794,1993 L3795,1984"/></g><clipPath id="c" clipRule="evenodd" fill="transparent"><use href="#t8174"/></clipPath></defs><svg viewBox="3752 1972 50 45" preserveAspectRatio="xMinYMin meet"><svg width="4380" height="2430"><g><image crossorigin="anonymous" x="0" y="0" href="https://nftpuzzle.license-token.com/assets/completepuzzle.svg" width="100%" height="100%" /><g class="links"><use href="#t8174"/></g></g></svg><svg x="3787" y="2002" height="9%" width="9%" viewBox="0 0 330 330"><g><a xlink:href="https://nftpuzzle.license-token.com/" class="links"><title>See the most innovative NFT based token software licensing project</title><path fill="#E4CF37" id="more" d="M165,0C74.019,0,0,74.019,0,165s74.019,165,165,165s165-74.019,165-165S255.981,0,165,0z M85,190 c-13.785,0-25-11.215-25-25s11.215-25,25-25s25,11.215,25,25S98.785,190,85,190z M165,190c-13.785,0-25-11.215-25-25 s11.215-25,25-25s25,11.215,25,25S178.785,190,165,190z M245,190c-13.785,0-25-11.215-25-25s11.215-25,25-25 c13.785,0,25,11.215,25,25S258.785,190,245,190z"></path></a></g></svg></svg></svg>