<svg version="1.1" xmlns="http://www.w3.org/2000/svg" xmlns:xlink="http://www.w3.org/1999/xlink" fill="transparent" x="0" y="0" width="350" height="350" preserveAspectRatio="xMinYMin slice"><style type="text/css">.links{fill:transparent;stroke: #E4CF37;}.links:hover{fill:#63D272; opacity:0.4;}</style><defs><g id="allt"><path id="t8175" d="M3828,1984 L3817,1984 C3806,1984 3821,1992 3811,1994 C3801,1996 3815,1980 3805,1982 L3795,1984 3795,1984 L3794,1993 C3794,2003 3801,1992 3801,2000 C3801,2009 3794,1996 3794,2006 L3795,2016 3795,2016 L3804,2015 C3814,2015 3803,2022 3812,2022 C3821,2022 3807,2015 3817,2015 L3828,2016 3828,2016 L3826,2006 C3825,1997 3833,2007 3833,1998 C3833,1989 3827,2004 3827,1994 L3828,1984"/></g><clipPath id="c" clipRule="evenodd" fill="transparent"><use href="#t8175"/></clipPath></defs><svg viewBox="3793 1979 41 44" preserveAspectRatio="xMinYMin meet"><svg width="4380" height="2430"><g><image crossorigin="anonymous" x="0" y="0" href="https://nftpuzzle.license-token.com/assets/completepuzzle.svg" width="100%" height="100%" /><g class="links"><use href="#t8175"/></g></g></svg><svg x="3819" y="2008" height="9%" width="9%" viewBox="0 0 330 330"><g><a xlink:href="https://nftpuzzle.license-token.com/" class="links"><title>See the most innovative NFT based token software licensing project</title><path fill="#E4CF37" id="more" d="M165,0C74.019,0,0,74.019,0,165s74.019,165,165,165s165-74.019,165-165S255.981,0,165,0z M85,190 c-13.785,0-25-11.215-25-25s11.215-25,25-25s25,11.215,25,25S98.785,190,85,190z M165,190c-13.785,0-25-11.215-25-25 s11.215-25,25-25s25,11.215,25,25S178.785,190,165,190z M245,190c-13.785,0-25-11.215-25-25s11.215-25,25-25 c13.785,0,25,11.215,25,25S258.785,190,245,190z"></path></a></g></svg></svg></svg>