<svg version="1.1" xmlns="http://www.w3.org/2000/svg" xmlns:xlink="http://www.w3.org/1999/xlink" fill="transparent" x="0" y="0" width="350" height="350" preserveAspectRatio="xMinYMin slice"><style type="text/css">.links{fill:transparent;stroke: #E4CF37;}.links:hover{fill:#63D272; opacity:0.4;}</style><defs><g id="allt"><path id="t8177" d="M3894,1984 L3884,1985 C3874,1986 3885,1979 3876,1979 C3868,1979 3881,1985 3871,1984 L3861,1984 3861,1984 L3860,1993 C3859,2003 3866,1989 3867,1998 C3868,2007 3861,1995 3861,2005 L3861,2016 3861,2016 L3871,2015 C3881,2014 3866,2021 3875,2022 C3885,2023 3872,2016 3883,2016 L3894,2016 3894,2016 L3894,2006 C3895,1997 3883,2006 3883,1999 C3883,1992 3894,2002 3894,1993 L3894,1984"/></g><clipPath id="c" clipRule="evenodd" fill="transparent"><use href="#t8177"/></clipPath></defs><svg viewBox="3858 1978 38 46" preserveAspectRatio="xMinYMin meet"><svg width="4380" height="2430"><g><image crossorigin="anonymous" x="0" y="0" href="https://nftpuzzle.license-token.com/assets/completepuzzle.svg" width="100%" height="100%" /><g class="links"><use href="#t8177"/></g></g></svg><svg x="3881" y="2009" height="9%" width="9%" viewBox="0 0 330 330"><g><a xlink:href="https://nftpuzzle.license-token.com/" class="links"><title>See the most innovative NFT based token software licensing project</title><path fill="#E4CF37" id="more" d="M165,0C74.019,0,0,74.019,0,165s74.019,165,165,165s165-74.019,165-165S255.981,0,165,0z M85,190 c-13.785,0-25-11.215-25-25s11.215-25,25-25s25,11.215,25,25S98.785,190,85,190z M165,190c-13.785,0-25-11.215-25-25 s11.215-25,25-25s25,11.215,25,25S178.785,190,165,190z M245,190c-13.785,0-25-11.215-25-25s11.215-25,25-25 c13.785,0,25,11.215,25,25S258.785,190,245,190z"></path></a></g></svg></svg></svg>