<svg version="1.1" xmlns="http://www.w3.org/2000/svg" xmlns:xlink="http://www.w3.org/1999/xlink" fill="transparent" x="0" y="0" width="350" height="350" preserveAspectRatio="xMinYMin slice"><style type="text/css">.links{fill:transparent;stroke: #E4CF37;}.links:hover{fill:#63D272; opacity:0.4;}</style><defs><g id="allt"><path id="t8181" d="M4026,1984 L4016,1983 C4006,1982 4019,1990 4008,1992 C3997,1994 4015,1984 4004,1984 L3993,1984 3993,1984 L3992,1994 C3991,2005 3996,1993 3995,2000 C3995,2008 3993,1996 3993,2006 L3993,2016 3993,2016 L4004,2015 C4015,2014 4002,2019 4010,2018 C4018,2018 4005,2016 4015,2016 L4026,2016 4026,2016 L4023,2006 C4021,1996 4037,2011 4035,2000 C4034,1990 4024,2005 4025,1994 L4026,1984"/></g><clipPath id="c" clipRule="evenodd" fill="transparent"><use href="#t8181"/></clipPath></defs><svg viewBox="3990 1981 48 39" preserveAspectRatio="xMinYMin meet"><svg width="4380" height="2430"><g><image crossorigin="anonymous" x="0" y="0" href="https://nftpuzzle.license-token.com/assets/completepuzzle.svg" width="100%" height="100%" /><g class="links"><use href="#t8181"/></g></g></svg><svg x="4023" y="2005" height="9%" width="9%" viewBox="0 0 330 330"><g><a xlink:href="https://nftpuzzle.license-token.com/" class="links"><title>See the most innovative NFT based token software licensing project</title><path fill="#E4CF37" id="more" d="M165,0C74.019,0,0,74.019,0,165s74.019,165,165,165s165-74.019,165-165S255.981,0,165,0z M85,190 c-13.785,0-25-11.215-25-25s11.215-25,25-25s25,11.215,25,25S98.785,190,85,190z M165,190c-13.785,0-25-11.215-25-25 s11.215-25,25-25s25,11.215,25,25S178.785,190,165,190z M245,190c-13.785,0-25-11.215-25-25s11.215-25,25-25 c13.785,0,25,11.215,25,25S258.785,190,245,190z"></path></a></g></svg></svg></svg>