<svg version="1.1" xmlns="http://www.w3.org/2000/svg" xmlns:xlink="http://www.w3.org/1999/xlink" fill="transparent" x="0" y="0" width="350" height="350" preserveAspectRatio="xMinYMin slice"><style type="text/css">.links{fill:transparent;stroke: #E4CF37;}.links:hover{fill:#63D272; opacity:0.4;}</style><defs><g id="allt"><path id="t8187" d="M4224,1984 L4213,1986 C4203,1988 4218,1979 4209,1977 C4200,1975 4209,1984 4200,1984 L4191,1984 4191,1984 L4189,1993 C4188,2003 4200,1992 4199,2000 C4198,2009 4188,1996 4189,2006 L4191,2016 4191,2016 L4200,2014 C4210,2013 4199,2025 4208,2024 C4217,2023 4203,2013 4213,2014 L4224,2016 4224,2016 L4225,2006 C4226,1996 4221,2009 4221,2000 C4222,1991 4224,2003 4224,1993 L4224,1984"/></g><clipPath id="c" clipRule="evenodd" fill="transparent"><use href="#t8187"/></clipPath></defs><svg viewBox="4187 1974 40 52" preserveAspectRatio="xMinYMin meet"><svg width="4380" height="2430"><g><image crossorigin="anonymous" x="0" y="0" href="https://nftpuzzle.license-token.com/assets/completepuzzle.svg" width="100%" height="100%" /><g class="links"><use href="#t8187"/></g></g></svg><svg x="4212" y="2011" height="9%" width="9%" viewBox="0 0 330 330"><g><a xlink:href="https://nftpuzzle.license-token.com/" class="links"><title>See the most innovative NFT based token software licensing project</title><path fill="#E4CF37" id="more" d="M165,0C74.019,0,0,74.019,0,165s74.019,165,165,165s165-74.019,165-165S255.981,0,165,0z M85,190 c-13.785,0-25-11.215-25-25s11.215-25,25-25s25,11.215,25,25S98.785,190,85,190z M165,190c-13.785,0-25-11.215-25-25 s11.215-25,25-25s25,11.215,25,25S178.785,190,165,190z M245,190c-13.785,0-25-11.215-25-25s11.215-25,25-25 c13.785,0,25,11.215,25,25S258.785,190,245,190z"></path></a></g></svg></svg></svg>