<svg version="1.1" xmlns="http://www.w3.org/2000/svg" xmlns:xlink="http://www.w3.org/1999/xlink" fill="transparent" x="0" y="0" width="350" height="350" preserveAspectRatio="xMinYMin slice"><style type="text/css">.links{fill:transparent;stroke: #E4CF37;}.links:hover{fill:#63D272; opacity:0.4;}</style><defs><g id="allt"><path id="t8191" d="M66,2016 L55,2016 C45,2017 57,2011 48,2010 C39,2010 51,2017 42,2016 L33,2016 33,2016 L35,2024 C37,2033 28,2021 26,2030 C24,2039 34,2026 33,2037 L33,2048 33,2048 L42,2050 C51,2052 38,2043 47,2041 C57,2039 44,2049 55,2048 L66,2048 66,2048 L66,2037 C67,2026 64,2041 63,2033 C62,2025 66,2037 66,2026 L66,2016"/></g><clipPath id="c" clipRule="evenodd" fill="transparent"><use href="#t8191"/></clipPath></defs><svg viewBox="23 2009 45 44" preserveAspectRatio="xMinYMin meet"><svg width="4380" height="2430"><g><image crossorigin="anonymous" x="0" y="0" href="https://nftpuzzle.license-token.com/assets/completepuzzle.svg" width="100%" height="100%" /><g class="links"><use href="#t8191"/></g></g></svg><svg x="53" y="2038" height="9%" width="9%" viewBox="0 0 330 330"><g><a xlink:href="https://nftpuzzle.license-token.com/" class="links"><title>See the most innovative NFT based token software licensing project</title><path fill="#E4CF37" id="more" d="M165,0C74.019,0,0,74.019,0,165s74.019,165,165,165s165-74.019,165-165S255.981,0,165,0z M85,190 c-13.785,0-25-11.215-25-25s11.215-25,25-25s25,11.215,25,25S98.785,190,85,190z M165,190c-13.785,0-25-11.215-25-25 s11.215-25,25-25s25,11.215,25,25S178.785,190,165,190z M245,190c-13.785,0-25-11.215-25-25s11.215-25,25-25 c13.785,0,25,11.215,25,25S258.785,190,245,190z"></path></a></g></svg></svg></svg>