<svg version="1.1" xmlns="http://www.w3.org/2000/svg" xmlns:xlink="http://www.w3.org/1999/xlink" fill="transparent" x="0" y="0" width="350" height="350" preserveAspectRatio="xMinYMin slice"><style type="text/css">.links{fill:transparent;stroke: #E4CF37;}.links:hover{fill:#63D272; opacity:0.4;}</style><defs><g id="allt"><path id="t8194" d="M165,2016 L154,2016 C143,2016 159,2011 150,2010 C141,2009 154,2016 143,2016 L132,2016 132,2016 L132,2026 C132,2036 137,2024 137,2031 C137,2038 132,2029 132,2038 L132,2048 132,2048 L142,2048 C152,2048 140,2053 147,2053 C155,2053 145,2048 155,2048 L165,2048 165,2048 L165,2037 C165,2027 159,2042 157,2031 C156,2020 169,2034 167,2025 L165,2016"/></g><clipPath id="c" clipRule="evenodd" fill="transparent"><use href="#t8194"/></clipPath></defs><svg viewBox="131 2008 39 46" preserveAspectRatio="xMinYMin meet"><svg width="4380" height="2430"><g><image crossorigin="anonymous" x="0" y="0" href="https://nftpuzzle.license-token.com/assets/completepuzzle.svg" width="100%" height="100%" /><g class="links"><use href="#t8194"/></g></g></svg><svg x="155" y="2039" height="9%" width="9%" viewBox="0 0 330 330"><g><a xlink:href="https://nftpuzzle.license-token.com/" class="links"><title>See the most innovative NFT based token software licensing project</title><path fill="#E4CF37" id="more" d="M165,0C74.019,0,0,74.019,0,165s74.019,165,165,165s165-74.019,165-165S255.981,0,165,0z M85,190 c-13.785,0-25-11.215-25-25s11.215-25,25-25s25,11.215,25,25S98.785,190,85,190z M165,190c-13.785,0-25-11.215-25-25 s11.215-25,25-25s25,11.215,25,25S178.785,190,165,190z M245,190c-13.785,0-25-11.215-25-25s11.215-25,25-25 c13.785,0,25,11.215,25,25S258.785,190,245,190z"></path></a></g></svg></svg></svg>