<svg version="1.1" xmlns="http://www.w3.org/2000/svg" xmlns:xlink="http://www.w3.org/1999/xlink" fill="transparent" x="0" y="0" width="350" height="350" preserveAspectRatio="xMinYMin slice"><style type="text/css">.links{fill:transparent;stroke: #E4CF37;}.links:hover{fill:#63D272; opacity:0.4;}</style><defs><g id="allt"><path id="t820" d="M1353,192 L1342,192 C1332,193 1347,187 1337,185 C1327,184 1338,193 1329,192 L1320,192 1320,192 L1322,201 C1324,211 1316,198 1316,208 C1316,218 1322,206 1321,215 L1320,224 1320,224 L1330,226 C1340,228 1326,220 1336,220 C1347,220 1334,226 1343,225 L1353,224 1353,224 L1353,214 C1354,204 1347,216 1347,207 C1347,198 1353,213 1353,202 L1353,192"/></g><clipPath id="c" clipRule="evenodd" fill="transparent"><use href="#t820"/></clipPath></defs><svg viewBox="1315 183 40 46" preserveAspectRatio="xMinYMin meet"><svg width="4380" height="2430"><g><image crossorigin="anonymous" x="0" y="0" href="https://nftpuzzle.license-token.com/assets/completepuzzle.svg" width="100%" height="100%" /><g class="links"><use href="#t820"/></g></g></svg><svg x="1340" y="214" height="9%" width="9%" viewBox="0 0 330 330"><g><a xlink:href="https://nftpuzzle.license-token.com/" class="links"><title>See the most innovative NFT based token software licensing project</title><path fill="#E4CF37" id="more" d="M165,0C74.019,0,0,74.019,0,165s74.019,165,165,165s165-74.019,165-165S255.981,0,165,0z M85,190 c-13.785,0-25-11.215-25-25s11.215-25,25-25s25,11.215,25,25S98.785,190,85,190z M165,190c-13.785,0-25-11.215-25-25 s11.215-25,25-25s25,11.215,25,25S178.785,190,165,190z M245,190c-13.785,0-25-11.215-25-25s11.215-25,25-25 c13.785,0,25,11.215,25,25S258.785,190,245,190z"></path></a></g></svg></svg></svg>