<svg version="1.1" xmlns="http://www.w3.org/2000/svg" xmlns:xlink="http://www.w3.org/1999/xlink" fill="transparent" x="0" y="0" width="350" height="350" preserveAspectRatio="xMinYMin slice"><style type="text/css">.links{fill:transparent;stroke: #E4CF37;}.links:hover{fill:#63D272; opacity:0.4;}</style><defs><g id="allt"><path id="t8201" d="M396,2016 L386,2016 C376,2016 390,2013 380,2012 C370,2011 385,2017 374,2016 L363,2016 363,2016 L363,2025 C363,2034 357,2024 355,2032 C354,2040 365,2029 364,2038 L363,2048 363,2048 L372,2048 C381,2048 371,2042 379,2040 C387,2039 376,2050 386,2049 L396,2048 396,2048 L396,2037 C396,2027 406,2041 403,2032 C400,2023 395,2034 395,2025 L396,2016"/></g><clipPath id="c" clipRule="evenodd" fill="transparent"><use href="#t8201"/></clipPath></defs><svg viewBox="353 2010 54 41" preserveAspectRatio="xMinYMin meet"><svg width="4380" height="2430"><g><image crossorigin="anonymous" x="0" y="0" href="https://nftpuzzle.license-token.com/assets/completepuzzle.svg" width="100%" height="100%" /><g class="links"><use href="#t8201"/></g></g></svg><svg x="392" y="2036" height="9%" width="9%" viewBox="0 0 330 330"><g><a xlink:href="https://nftpuzzle.license-token.com/" class="links"><title>See the most innovative NFT based token software licensing project</title><path fill="#E4CF37" id="more" d="M165,0C74.019,0,0,74.019,0,165s74.019,165,165,165s165-74.019,165-165S255.981,0,165,0z M85,190 c-13.785,0-25-11.215-25-25s11.215-25,25-25s25,11.215,25,25S98.785,190,85,190z M165,190c-13.785,0-25-11.215-25-25 s11.215-25,25-25s25,11.215,25,25S178.785,190,165,190z M245,190c-13.785,0-25-11.215-25-25s11.215-25,25-25 c13.785,0,25,11.215,25,25S258.785,190,245,190z"></path></a></g></svg></svg></svg>