<svg version="1.1" xmlns="http://www.w3.org/2000/svg" xmlns:xlink="http://www.w3.org/1999/xlink" fill="transparent" x="0" y="0" width="350" height="350" preserveAspectRatio="xMinYMin slice"><style type="text/css">.links{fill:transparent;stroke: #E4CF37;}.links:hover{fill:#63D272; opacity:0.4;}</style><defs><g id="allt"><path id="t8202" d="M429,2016 L418,2015 C407,2014 420,2019 411,2019 C402,2020 415,2014 405,2015 L396,2016 396,2016 L395,2025 C395,2034 400,2023 403,2032 C406,2041 396,2027 396,2037 L396,2048 396,2048 L405,2047 C414,2047 403,2052 412,2055 C422,2058 407,2048 418,2048 L429,2048 429,2048 L429,2037 C429,2027 426,2042 423,2031 C421,2021 429,2034 429,2025 L429,2016"/></g><clipPath id="c" clipRule="evenodd" fill="transparent"><use href="#t8202"/></clipPath></defs><svg viewBox="394 2013 36 46" preserveAspectRatio="xMinYMin meet"><svg width="4380" height="2430"><g><image crossorigin="anonymous" x="0" y="0" href="https://nftpuzzle.license-token.com/assets/completepuzzle.svg" width="100%" height="100%" /><g class="links"><use href="#t8202"/></g></g></svg><svg x="415" y="2044" height="9%" width="9%" viewBox="0 0 330 330"><g><a xlink:href="https://nftpuzzle.license-token.com/" class="links"><title>See the most innovative NFT based token software licensing project</title><path fill="#E4CF37" id="more" d="M165,0C74.019,0,0,74.019,0,165s74.019,165,165,165s165-74.019,165-165S255.981,0,165,0z M85,190 c-13.785,0-25-11.215-25-25s11.215-25,25-25s25,11.215,25,25S98.785,190,85,190z M165,190c-13.785,0-25-11.215-25-25 s11.215-25,25-25s25,11.215,25,25S178.785,190,165,190z M245,190c-13.785,0-25-11.215-25-25s11.215-25,25-25 c13.785,0,25,11.215,25,25S258.785,190,245,190z"></path></a></g></svg></svg></svg>