<svg version="1.1" xmlns="http://www.w3.org/2000/svg" xmlns:xlink="http://www.w3.org/1999/xlink" fill="transparent" x="0" y="0" width="350" height="350" preserveAspectRatio="xMinYMin slice"><style type="text/css">.links{fill:transparent;stroke: #E4CF37;}.links:hover{fill:#63D272; opacity:0.4;}</style><defs><g id="allt"><path id="t8203" d="M462,2016 L452,2016 C442,2016 452,2014 444,2013 C436,2012 450,2017 439,2016 L429,2016 429,2016 L429,2025 C429,2034 421,2021 423,2031 C426,2042 429,2027 429,2037 L429,2048 429,2048 L438,2048 C447,2048 434,2040 445,2042 C456,2045 440,2048 451,2048 L462,2048 462,2048 L463,2037 C465,2026 458,2039 458,2029 C458,2020 462,2033 462,2024 L462,2016"/></g><clipPath id="c" clipRule="evenodd" fill="transparent"><use href="#t8203"/></clipPath></defs><svg viewBox="420 2011 46 38" preserveAspectRatio="xMinYMin meet"><svg width="4380" height="2430"><g><image crossorigin="anonymous" x="0" y="0" href="https://nftpuzzle.license-token.com/assets/completepuzzle.svg" width="100%" height="100%" /><g class="links"><use href="#t8203"/></g></g></svg><svg x="451" y="2034" height="9%" width="9%" viewBox="0 0 330 330"><g><a xlink:href="https://nftpuzzle.license-token.com/" class="links"><title>See the most innovative NFT based token software licensing project</title><path fill="#E4CF37" id="more" d="M165,0C74.019,0,0,74.019,0,165s74.019,165,165,165s165-74.019,165-165S255.981,0,165,0z M85,190 c-13.785,0-25-11.215-25-25s11.215-25,25-25s25,11.215,25,25S98.785,190,85,190z M165,190c-13.785,0-25-11.215-25-25 s11.215-25,25-25s25,11.215,25,25S178.785,190,165,190z M245,190c-13.785,0-25-11.215-25-25s11.215-25,25-25 c13.785,0,25,11.215,25,25S258.785,190,245,190z"></path></a></g></svg></svg></svg>