<svg version="1.1" xmlns="http://www.w3.org/2000/svg" xmlns:xlink="http://www.w3.org/1999/xlink" fill="transparent" x="0" y="0" width="350" height="350" preserveAspectRatio="xMinYMin slice"><style type="text/css">.links{fill:transparent;stroke: #E4CF37;}.links:hover{fill:#63D272; opacity:0.4;}</style><defs><g id="allt"><path id="t821" d="M1386,192 L1375,193 C1365,194 1380,185 1371,185 C1362,185 1372,194 1362,193 L1353,192 1353,192 L1353,202 C1353,213 1347,198 1347,207 C1347,216 1354,204 1353,214 L1353,224 1353,224 L1364,224 C1375,224 1359,218 1368,218 C1378,218 1366,225 1376,224 L1386,224 1386,224 L1386,214 C1386,205 1384,217 1384,208 C1384,199 1388,211 1387,201 L1386,192"/></g><clipPath id="c" clipRule="evenodd" fill="transparent"><use href="#t821"/></clipPath></defs><svg viewBox="1346 184 43 42" preserveAspectRatio="xMinYMin meet"><svg width="4380" height="2430"><g><image crossorigin="anonymous" x="0" y="0" href="https://nftpuzzle.license-token.com/assets/completepuzzle.svg" width="100%" height="100%" /><g class="links"><use href="#t821"/></g></g></svg><svg x="1374" y="211" height="9%" width="9%" viewBox="0 0 330 330"><g><a xlink:href="https://nftpuzzle.license-token.com/" class="links"><title>See the most innovative NFT based token software licensing project</title><path fill="#E4CF37" id="more" d="M165,0C74.019,0,0,74.019,0,165s74.019,165,165,165s165-74.019,165-165S255.981,0,165,0z M85,190 c-13.785,0-25-11.215-25-25s11.215-25,25-25s25,11.215,25,25S98.785,190,85,190z M165,190c-13.785,0-25-11.215-25-25 s11.215-25,25-25s25,11.215,25,25S178.785,190,165,190z M245,190c-13.785,0-25-11.215-25-25s11.215-25,25-25 c13.785,0,25,11.215,25,25S258.785,190,245,190z"></path></a></g></svg></svg></svg>