<svg version="1.1" xmlns="http://www.w3.org/2000/svg" xmlns:xlink="http://www.w3.org/1999/xlink" fill="transparent" x="0" y="0" width="350" height="350" preserveAspectRatio="xMinYMin slice"><style type="text/css">.links{fill:transparent;stroke: #E4CF37;}.links:hover{fill:#63D272; opacity:0.4;}</style><defs><g id="allt"><path id="t8213" d="M792,2016 L781,2017 C770,2019 782,2011 773,2011 C764,2012 780,2016 769,2016 L759,2016 759,2016 L760,2026 C761,2036 749,2020 749,2029 C750,2039 759,2029 759,2038 L759,2048 759,2048 L769,2049 C779,2050 763,2039 772,2039 C782,2040 773,2048 782,2048 L792,2048 792,2048 L792,2038 C792,2028 788,2041 789,2033 C790,2025 794,2036 793,2026 L792,2016"/></g><clipPath id="c" clipRule="evenodd" fill="transparent"><use href="#t8213"/></clipPath></defs><svg viewBox="748 2010 47 41" preserveAspectRatio="xMinYMin meet"><svg width="4380" height="2430"><g><image crossorigin="anonymous" x="0" y="0" href="https://nftpuzzle.license-token.com/assets/completepuzzle.svg" width="100%" height="100%" /><g class="links"><use href="#t8213"/></g></g></svg><svg x="780" y="2036" height="9%" width="9%" viewBox="0 0 330 330"><g><a xlink:href="https://nftpuzzle.license-token.com/" class="links"><title>See the most innovative NFT based token software licensing project</title><path fill="#E4CF37" id="more" d="M165,0C74.019,0,0,74.019,0,165s74.019,165,165,165s165-74.019,165-165S255.981,0,165,0z M85,190 c-13.785,0-25-11.215-25-25s11.215-25,25-25s25,11.215,25,25S98.785,190,85,190z M165,190c-13.785,0-25-11.215-25-25 s11.215-25,25-25s25,11.215,25,25S178.785,190,165,190z M245,190c-13.785,0-25-11.215-25-25s11.215-25,25-25 c13.785,0,25,11.215,25,25S258.785,190,245,190z"></path></a></g></svg></svg></svg>