<svg version="1.1" xmlns="http://www.w3.org/2000/svg" xmlns:xlink="http://www.w3.org/1999/xlink" fill="transparent" x="0" y="0" width="350" height="350" preserveAspectRatio="xMinYMin slice"><style type="text/css">.links{fill:transparent;stroke: #E4CF37;}.links:hover{fill:#63D272; opacity:0.4;}</style><defs><g id="allt"><path id="t8218" d="M957,2016 L947,2015 C937,2015 951,2020 940,2020 C930,2020 943,2015 933,2015 L924,2016 924,2016 L925,2025 C927,2035 915,2023 915,2030 C916,2038 924,2028 924,2038 L924,2048 924,2048 L934,2049 C944,2051 931,2039 939,2039 C947,2040 936,2048 946,2048 L957,2048 957,2048 L957,2037 C958,2026 953,2039 953,2030 C953,2021 957,2034 957,2025 L957,2016"/></g><clipPath id="c" clipRule="evenodd" fill="transparent"><use href="#t8218"/></clipPath></defs><svg viewBox="914 2014 45 38" preserveAspectRatio="xMinYMin meet"><svg width="4380" height="2430"><g><image crossorigin="anonymous" x="0" y="0" href="https://nftpuzzle.license-token.com/assets/completepuzzle.svg" width="100%" height="100%" /><g class="links"><use href="#t8218"/></g></g></svg><svg x="944" y="2037" height="9%" width="9%" viewBox="0 0 330 330"><g><a xlink:href="https://nftpuzzle.license-token.com/" class="links"><title>See the most innovative NFT based token software licensing project</title><path fill="#E4CF37" id="more" d="M165,0C74.019,0,0,74.019,0,165s74.019,165,165,165s165-74.019,165-165S255.981,0,165,0z M85,190 c-13.785,0-25-11.215-25-25s11.215-25,25-25s25,11.215,25,25S98.785,190,85,190z M165,190c-13.785,0-25-11.215-25-25 s11.215-25,25-25s25,11.215,25,25S178.785,190,165,190z M245,190c-13.785,0-25-11.215-25-25s11.215-25,25-25 c13.785,0,25,11.215,25,25S258.785,190,245,190z"></path></a></g></svg></svg></svg>