<svg version="1.1" xmlns="http://www.w3.org/2000/svg" xmlns:xlink="http://www.w3.org/1999/xlink" fill="transparent" x="0" y="0" width="350" height="350" preserveAspectRatio="xMinYMin slice"><style type="text/css">.links{fill:transparent;stroke: #E4CF37;}.links:hover{fill:#63D272; opacity:0.4;}</style><defs><g id="allt"><path id="t8221" d="M1056,2016 L1045,2015 C1035,2015 1047,2020 1037,2019 C1028,2018 1044,2015 1033,2015 L1023,2016 1023,2016 L1023,2024 C1024,2033 1018,2023 1018,2032 C1018,2041 1023,2026 1023,2037 L1023,2048 1023,2048 L1032,2048 C1041,2049 1030,2043 1039,2043 C1049,2043 1034,2048 1045,2048 L1056,2048 1056,2048 L1058,2038 C1060,2029 1049,2039 1048,2030 C1047,2021 1060,2034 1058,2025 L1056,2016"/></g><clipPath id="c" clipRule="evenodd" fill="transparent"><use href="#t8221"/></clipPath></defs><svg viewBox="1017 2014 44 36" preserveAspectRatio="xMinYMin meet"><svg width="4380" height="2430"><g><image crossorigin="anonymous" x="0" y="0" href="https://nftpuzzle.license-token.com/assets/completepuzzle.svg" width="100%" height="100%" /><g class="links"><use href="#t8221"/></g></g></svg><svg x="1046" y="2035" height="9%" width="9%" viewBox="0 0 330 330"><g><a xlink:href="https://nftpuzzle.license-token.com/" class="links"><title>See the most innovative NFT based token software licensing project</title><path fill="#E4CF37" id="more" d="M165,0C74.019,0,0,74.019,0,165s74.019,165,165,165s165-74.019,165-165S255.981,0,165,0z M85,190 c-13.785,0-25-11.215-25-25s11.215-25,25-25s25,11.215,25,25S98.785,190,85,190z M165,190c-13.785,0-25-11.215-25-25 s11.215-25,25-25s25,11.215,25,25S178.785,190,165,190z M245,190c-13.785,0-25-11.215-25-25s11.215-25,25-25 c13.785,0,25,11.215,25,25S258.785,190,245,190z"></path></a></g></svg></svg></svg>