<svg version="1.1" xmlns="http://www.w3.org/2000/svg" xmlns:xlink="http://www.w3.org/1999/xlink" fill="transparent" x="0" y="0" width="350" height="350" preserveAspectRatio="xMinYMin slice"><style type="text/css">.links{fill:transparent;stroke: #E4CF37;}.links:hover{fill:#63D272; opacity:0.4;}</style><defs><g id="allt"><path id="t8231" d="M1386,2016 L1374,2016 C1363,2016 1376,2021 1367,2019 C1358,2018 1373,2016 1363,2016 L1353,2016 1353,2016 L1353,2025 C1353,2034 1349,2021 1348,2031 C1348,2041 1353,2027 1353,2037 L1353,2048 1353,2048 L1362,2048 C1372,2048 1358,2044 1368,2043 C1379,2043 1364,2048 1375,2048 L1386,2048 1386,2048 L1386,2037 C1386,2027 1392,2040 1391,2032 C1391,2024 1385,2034 1385,2025 L1386,2016"/></g><clipPath id="c" clipRule="evenodd" fill="transparent"><use href="#t8231"/></clipPath></defs><svg viewBox="1347 2015 46 34" preserveAspectRatio="xMinYMin meet"><svg width="4380" height="2430"><g><image crossorigin="anonymous" x="0" y="0" href="https://nftpuzzle.license-token.com/assets/completepuzzle.svg" width="100%" height="100%" /><g class="links"><use href="#t8231"/></g></g></svg><svg x="1378" y="2034" height="9%" width="9%" viewBox="0 0 330 330"><g><a xlink:href="https://nftpuzzle.license-token.com/" class="links"><title>See the most innovative NFT based token software licensing project</title><path fill="#E4CF37" id="more" d="M165,0C74.019,0,0,74.019,0,165s74.019,165,165,165s165-74.019,165-165S255.981,0,165,0z M85,190 c-13.785,0-25-11.215-25-25s11.215-25,25-25s25,11.215,25,25S98.785,190,85,190z M165,190c-13.785,0-25-11.215-25-25 s11.215-25,25-25s25,11.215,25,25S178.785,190,165,190z M245,190c-13.785,0-25-11.215-25-25s11.215-25,25-25 c13.785,0,25,11.215,25,25S258.785,190,245,190z"></path></a></g></svg></svg></svg>