<svg version="1.1" xmlns="http://www.w3.org/2000/svg" xmlns:xlink="http://www.w3.org/1999/xlink" fill="transparent" x="0" y="0" width="350" height="350" preserveAspectRatio="xMinYMin slice"><style type="text/css">.links{fill:transparent;stroke: #E4CF37;}.links:hover{fill:#63D272; opacity:0.4;}</style><defs><g id="allt"><path id="t8233" d="M1452,2016 L1442,2015 C1432,2015 1443,2019 1433,2020 C1424,2022 1441,2014 1430,2015 L1419,2016 1419,2016 L1419,2026 C1419,2037 1411,2024 1411,2031 C1411,2038 1423,2026 1421,2037 L1419,2048 1419,2048 L1430,2048 C1441,2048 1427,2040 1434,2040 C1442,2040 1429,2052 1440,2050 L1452,2048 1452,2048 L1454,2038 C1457,2028 1441,2040 1442,2030 C1444,2021 1457,2037 1454,2026 L1452,2016"/></g><clipPath id="c" clipRule="evenodd" fill="transparent"><use href="#t8233"/></clipPath></defs><svg viewBox="1410 2013 48 40" preserveAspectRatio="xMinYMin meet"><svg width="4380" height="2430"><g><image crossorigin="anonymous" x="0" y="0" href="https://nftpuzzle.license-token.com/assets/completepuzzle.svg" width="100%" height="100%" /><g class="links"><use href="#t8233"/></g></g></svg><svg x="1443" y="2038" height="9%" width="9%" viewBox="0 0 330 330"><g><a xlink:href="https://nftpuzzle.license-token.com/" class="links"><title>See the most innovative NFT based token software licensing project</title><path fill="#E4CF37" id="more" d="M165,0C74.019,0,0,74.019,0,165s74.019,165,165,165s165-74.019,165-165S255.981,0,165,0z M85,190 c-13.785,0-25-11.215-25-25s11.215-25,25-25s25,11.215,25,25S98.785,190,85,190z M165,190c-13.785,0-25-11.215-25-25 s11.215-25,25-25s25,11.215,25,25S178.785,190,165,190z M245,190c-13.785,0-25-11.215-25-25s11.215-25,25-25 c13.785,0,25,11.215,25,25S258.785,190,245,190z"></path></a></g></svg></svg></svg>