<svg version="1.1" xmlns="http://www.w3.org/2000/svg" xmlns:xlink="http://www.w3.org/1999/xlink" fill="transparent" x="0" y="0" width="350" height="350" preserveAspectRatio="xMinYMin slice"><style type="text/css">.links{fill:transparent;stroke: #E4CF37;}.links:hover{fill:#63D272; opacity:0.4;}</style><defs><g id="allt"><path id="t8241" d="M1716,2016 L1706,2016 C1697,2017 1707,2021 1698,2021 C1690,2022 1702,2014 1692,2015 L1683,2016 1683,2016 L1682,2026 C1681,2037 1690,2021 1690,2030 C1691,2039 1683,2029 1683,2038 L1683,2048 1683,2048 L1694,2047 C1705,2046 1688,2055 1697,2055 C1707,2056 1696,2048 1706,2048 L1716,2048 1716,2048 L1715,2038 C1715,2029 1729,2043 1726,2033 C1724,2023 1711,2034 1713,2025 L1716,2016"/></g><clipPath id="c" clipRule="evenodd" fill="transparent"><use href="#t8241"/></clipPath></defs><svg viewBox="1680 2013 50 44" preserveAspectRatio="xMinYMin meet"><svg width="4380" height="2430"><g><image crossorigin="anonymous" x="0" y="0" href="https://nftpuzzle.license-token.com/assets/completepuzzle.svg" width="100%" height="100%" /><g class="links"><use href="#t8241"/></g></g></svg><svg x="1715" y="2042" height="9%" width="9%" viewBox="0 0 330 330"><g><a xlink:href="https://nftpuzzle.license-token.com/" class="links"><title>See the most innovative NFT based token software licensing project</title><path fill="#E4CF37" id="more" d="M165,0C74.019,0,0,74.019,0,165s74.019,165,165,165s165-74.019,165-165S255.981,0,165,0z M85,190 c-13.785,0-25-11.215-25-25s11.215-25,25-25s25,11.215,25,25S98.785,190,85,190z M165,190c-13.785,0-25-11.215-25-25 s11.215-25,25-25s25,11.215,25,25S178.785,190,165,190z M245,190c-13.785,0-25-11.215-25-25s11.215-25,25-25 c13.785,0,25,11.215,25,25S258.785,190,245,190z"></path></a></g></svg></svg></svg>