<svg version="1.1" xmlns="http://www.w3.org/2000/svg" xmlns:xlink="http://www.w3.org/1999/xlink" fill="transparent" x="0" y="0" width="350" height="350" preserveAspectRatio="xMinYMin slice"><style type="text/css">.links{fill:transparent;stroke: #E4CF37;}.links:hover{fill:#63D272; opacity:0.4;}</style><defs><g id="allt"><path id="t8248" d="M1947,2016 L1936,2016 C1926,2016 1938,2011 1928,2010 C1918,2009 1933,2017 1923,2016 L1914,2016 1914,2016 L1913,2025 C1913,2035 1919,2022 1919,2030 C1920,2039 1914,2026 1914,2037 L1914,2048 1914,2048 L1924,2047 C1934,2047 1920,2053 1928,2053 C1937,2054 1925,2048 1936,2048 L1947,2048 1947,2048 L1945,2038 C1944,2029 1950,2042 1951,2033 C1953,2025 1944,2033 1945,2024 L1947,2016"/></g><clipPath id="c" clipRule="evenodd" fill="transparent"><use href="#t8248"/></clipPath></defs><svg viewBox="1912 2008 42 47" preserveAspectRatio="xMinYMin meet"><svg width="4380" height="2430"><g><image crossorigin="anonymous" x="0" y="0" href="https://nftpuzzle.license-token.com/assets/completepuzzle.svg" width="100%" height="100%" /><g class="links"><use href="#t8248"/></g></g></svg><svg x="1939" y="2040" height="9%" width="9%" viewBox="0 0 330 330"><g><a xlink:href="https://nftpuzzle.license-token.com/" class="links"><title>See the most innovative NFT based token software licensing project</title><path fill="#E4CF37" id="more" d="M165,0C74.019,0,0,74.019,0,165s74.019,165,165,165s165-74.019,165-165S255.981,0,165,0z M85,190 c-13.785,0-25-11.215-25-25s11.215-25,25-25s25,11.215,25,25S98.785,190,85,190z M165,190c-13.785,0-25-11.215-25-25 s11.215-25,25-25s25,11.215,25,25S178.785,190,165,190z M245,190c-13.785,0-25-11.215-25-25s11.215-25,25-25 c13.785,0,25,11.215,25,25S258.785,190,245,190z"></path></a></g></svg></svg></svg>