<svg version="1.1" xmlns="http://www.w3.org/2000/svg" xmlns:xlink="http://www.w3.org/1999/xlink" fill="transparent" x="0" y="0" width="350" height="350" preserveAspectRatio="xMinYMin slice"><style type="text/css">.links{fill:transparent;stroke: #E4CF37;}.links:hover{fill:#63D272; opacity:0.4;}</style><defs><g id="allt"><path id="t8249" d="M1980,2016 L1969,2016 C1959,2016 1975,2013 1963,2012 C1952,2011 1968,2017 1957,2016 L1947,2016 1947,2016 L1945,2024 C1944,2033 1953,2025 1951,2033 C1950,2042 1944,2029 1945,2038 L1947,2048 1947,2048 L1956,2046 C1965,2045 1956,2054 1965,2052 C1974,2051 1960,2045 1970,2046 L1980,2048 1980,2048 L1979,2037 C1978,2027 1986,2038 1984,2030 C1983,2022 1980,2036 1980,2026 L1980,2016"/></g><clipPath id="c" clipRule="evenodd" fill="transparent"><use href="#t8249"/></clipPath></defs><svg viewBox="1943 2010 44 45" preserveAspectRatio="xMinYMin meet"><svg width="4380" height="2430"><g><image crossorigin="anonymous" x="0" y="0" href="https://nftpuzzle.license-token.com/assets/completepuzzle.svg" width="100%" height="100%" /><g class="links"><use href="#t8249"/></g></g></svg><svg x="1972" y="2040" height="9%" width="9%" viewBox="0 0 330 330"><g><a xlink:href="https://nftpuzzle.license-token.com/" class="links"><title>See the most innovative NFT based token software licensing project</title><path fill="#E4CF37" id="more" d="M165,0C74.019,0,0,74.019,0,165s74.019,165,165,165s165-74.019,165-165S255.981,0,165,0z M85,190 c-13.785,0-25-11.215-25-25s11.215-25,25-25s25,11.215,25,25S98.785,190,85,190z M165,190c-13.785,0-25-11.215-25-25 s11.215-25,25-25s25,11.215,25,25S178.785,190,165,190z M245,190c-13.785,0-25-11.215-25-25s11.215-25,25-25 c13.785,0,25,11.215,25,25S258.785,190,245,190z"></path></a></g></svg></svg></svg>