<svg version="1.1" xmlns="http://www.w3.org/2000/svg" xmlns:xlink="http://www.w3.org/1999/xlink" fill="transparent" x="0" y="0" width="350" height="350" preserveAspectRatio="xMinYMin slice"><style type="text/css">.links{fill:transparent;stroke: #E4CF37;}.links:hover{fill:#63D272; opacity:0.4;}</style><defs><g id="allt"><path id="t8255" d="M2178,2016 L2168,2014 C2158,2013 2170,2021 2162,2022 C2154,2024 2164,2012 2154,2014 L2145,2016 2145,2016 L2143,2026 C2141,2036 2153,2023 2154,2031 C2156,2039 2141,2029 2143,2038 L2145,2048 2145,2048 L2155,2046 C2165,2044 2152,2056 2160,2057 C2168,2058 2158,2044 2168,2046 L2178,2048 2178,2048 L2178,2038 C2178,2029 2172,2040 2173,2032 C2174,2024 2178,2036 2178,2026 L2178,2016"/></g><clipPath id="c" clipRule="evenodd" fill="transparent"><use href="#t8255"/></clipPath></defs><svg viewBox="2140 2011 39 48" preserveAspectRatio="xMinYMin meet"><svg width="4380" height="2430"><g><image crossorigin="anonymous" x="0" y="0" href="https://nftpuzzle.license-token.com/assets/completepuzzle.svg" width="100%" height="100%" /><g class="links"><use href="#t8255"/></g></g></svg><svg x="2164" y="2044" height="9%" width="9%" viewBox="0 0 330 330"><g><a xlink:href="https://nftpuzzle.license-token.com/" class="links"><title>See the most innovative NFT based token software licensing project</title><path fill="#E4CF37" id="more" d="M165,0C74.019,0,0,74.019,0,165s74.019,165,165,165s165-74.019,165-165S255.981,0,165,0z M85,190 c-13.785,0-25-11.215-25-25s11.215-25,25-25s25,11.215,25,25S98.785,190,85,190z M165,190c-13.785,0-25-11.215-25-25 s11.215-25,25-25s25,11.215,25,25S178.785,190,165,190z M245,190c-13.785,0-25-11.215-25-25s11.215-25,25-25 c13.785,0,25,11.215,25,25S258.785,190,245,190z"></path></a></g></svg></svg></svg>