<svg version="1.1" xmlns="http://www.w3.org/2000/svg" xmlns:xlink="http://www.w3.org/1999/xlink" fill="transparent" x="0" y="0" width="350" height="350" preserveAspectRatio="xMinYMin slice"><style type="text/css">.links{fill:transparent;stroke: #E4CF37;}.links:hover{fill:#63D272; opacity:0.4;}</style><defs><g id="allt"><path id="t8258" d="M2277,2016 L2267,2016 C2258,2016 2269,2009 2259,2009 C2250,2010 2264,2016 2254,2016 L2244,2016 2244,2016 L2244,2026 C2244,2037 2241,2020 2241,2031 C2241,2043 2244,2029 2244,2038 L2244,2048 2244,2048 L2254,2048 C2265,2048 2248,2045 2260,2045 C2272,2045 2258,2048 2267,2048 L2277,2048 2277,2048 L2277,2038 C2277,2029 2280,2039 2281,2030 C2282,2021 2275,2034 2276,2025 L2277,2016"/></g><clipPath id="c" clipRule="evenodd" fill="transparent"><use href="#t8258"/></clipPath></defs><svg viewBox="2240 2008 43 41" preserveAspectRatio="xMinYMin meet"><svg width="4380" height="2430"><g><image crossorigin="anonymous" x="0" y="0" href="https://nftpuzzle.license-token.com/assets/completepuzzle.svg" width="100%" height="100%" /><g class="links"><use href="#t8258"/></g></g></svg><svg x="2268" y="2034" height="9%" width="9%" viewBox="0 0 330 330"><g><a xlink:href="https://nftpuzzle.license-token.com/" class="links"><title>See the most innovative NFT based token software licensing project</title><path fill="#E4CF37" id="more" d="M165,0C74.019,0,0,74.019,0,165s74.019,165,165,165s165-74.019,165-165S255.981,0,165,0z M85,190 c-13.785,0-25-11.215-25-25s11.215-25,25-25s25,11.215,25,25S98.785,190,85,190z M165,190c-13.785,0-25-11.215-25-25 s11.215-25,25-25s25,11.215,25,25S178.785,190,165,190z M245,190c-13.785,0-25-11.215-25-25s11.215-25,25-25 c13.785,0,25,11.215,25,25S258.785,190,245,190z"></path></a></g></svg></svg></svg>