<svg version="1.1" xmlns="http://www.w3.org/2000/svg" xmlns:xlink="http://www.w3.org/1999/xlink" fill="transparent" x="0" y="0" width="350" height="350" preserveAspectRatio="xMinYMin slice"><style type="text/css">.links{fill:transparent;stroke: #E4CF37;}.links:hover{fill:#63D272; opacity:0.4;}</style><defs><g id="allt"><path id="t8261" d="M2376,2016 L2365,2014 C2354,2012 2368,2027 2358,2028 C2349,2030 2364,2016 2353,2016 L2343,2016 2343,2016 L2344,2026 C2345,2036 2341,2020 2340,2029 C2340,2039 2344,2027 2343,2037 L2343,2048 2343,2048 L2353,2049 C2364,2050 2347,2046 2356,2045 C2366,2045 2354,2049 2365,2048 L2376,2048 2376,2048 L2375,2039 C2375,2030 2367,2040 2367,2030 C2368,2021 2379,2035 2377,2025 L2376,2016"/></g><clipPath id="c" clipRule="evenodd" fill="transparent"><use href="#t8261"/></clipPath></defs><svg viewBox="2339 2011 41 40" preserveAspectRatio="xMinYMin meet"><svg width="4380" height="2430"><g><image crossorigin="anonymous" x="0" y="0" href="https://nftpuzzle.license-token.com/assets/completepuzzle.svg" width="100%" height="100%" /><g class="links"><use href="#t8261"/></g></g></svg><svg x="2365" y="2036" height="9%" width="9%" viewBox="0 0 330 330"><g><a xlink:href="https://nftpuzzle.license-token.com/" class="links"><title>See the most innovative NFT based token software licensing project</title><path fill="#E4CF37" id="more" d="M165,0C74.019,0,0,74.019,0,165s74.019,165,165,165s165-74.019,165-165S255.981,0,165,0z M85,190 c-13.785,0-25-11.215-25-25s11.215-25,25-25s25,11.215,25,25S98.785,190,85,190z M165,190c-13.785,0-25-11.215-25-25 s11.215-25,25-25s25,11.215,25,25S178.785,190,165,190z M245,190c-13.785,0-25-11.215-25-25s11.215-25,25-25 c13.785,0,25,11.215,25,25S258.785,190,245,190z"></path></a></g></svg></svg></svg>