<svg version="1.1" xmlns="http://www.w3.org/2000/svg" xmlns:xlink="http://www.w3.org/1999/xlink" fill="transparent" x="0" y="0" width="350" height="350" preserveAspectRatio="xMinYMin slice"><style type="text/css">.links{fill:transparent;stroke: #E4CF37;}.links:hover{fill:#63D272; opacity:0.4;}</style><defs><g id="allt"><path id="t8267" d="M2574,2016 L2563,2016 C2552,2017 2566,2007 2557,2009 C2549,2012 2562,2016 2551,2016 L2541,2016 2541,2016 L2541,2025 C2541,2034 2547,2025 2549,2031 C2552,2038 2538,2028 2539,2038 L2541,2048 2541,2048 L2550,2048 C2560,2048 2550,2054 2557,2056 C2564,2058 2553,2045 2563,2046 L2574,2048 2574,2048 L2574,2037 C2574,2027 2571,2038 2569,2031 C2568,2024 2574,2035 2574,2025 L2574,2016"/></g><clipPath id="c" clipRule="evenodd" fill="transparent"><use href="#t8267"/></clipPath></defs><svg viewBox="2537 2006 38 53" preserveAspectRatio="xMinYMin meet"><svg width="4380" height="2430"><g><image crossorigin="anonymous" x="0" y="0" href="https://nftpuzzle.license-token.com/assets/completepuzzle.svg" width="100%" height="100%" /><g class="links"><use href="#t8267"/></g></g></svg><svg x="2560" y="2044" height="9%" width="9%" viewBox="0 0 330 330"><g><a xlink:href="https://nftpuzzle.license-token.com/" class="links"><title>See the most innovative NFT based token software licensing project</title><path fill="#E4CF37" id="more" d="M165,0C74.019,0,0,74.019,0,165s74.019,165,165,165s165-74.019,165-165S255.981,0,165,0z M85,190 c-13.785,0-25-11.215-25-25s11.215-25,25-25s25,11.215,25,25S98.785,190,85,190z M165,190c-13.785,0-25-11.215-25-25 s11.215-25,25-25s25,11.215,25,25S178.785,190,165,190z M245,190c-13.785,0-25-11.215-25-25s11.215-25,25-25 c13.785,0,25,11.215,25,25S258.785,190,245,190z"></path></a></g></svg></svg></svg>