<svg version="1.1" xmlns="http://www.w3.org/2000/svg" xmlns:xlink="http://www.w3.org/1999/xlink" fill="transparent" x="0" y="0" width="350" height="350" preserveAspectRatio="xMinYMin slice"><style type="text/css">.links{fill:transparent;stroke: #E4CF37;}.links:hover{fill:#63D272; opacity:0.4;}</style><defs><g id="allt"><path id="t8275" d="M2838,2016 L2828,2016 C2818,2016 2829,2020 2819,2019 C2810,2018 2824,2016 2814,2016 L2805,2016 2805,2016 L2806,2024 C2808,2033 2795,2022 2795,2031 C2796,2040 2808,2029 2806,2038 L2805,2048 2805,2048 L2814,2049 C2823,2051 2811,2038 2820,2039 C2830,2040 2818,2051 2828,2049 L2838,2048 2838,2048 L2839,2038 C2840,2029 2836,2040 2834,2031 C2833,2022 2839,2035 2838,2025 L2838,2016"/></g><clipPath id="c" clipRule="evenodd" fill="transparent"><use href="#t8275"/></clipPath></defs><svg viewBox="2794 2015 47 37" preserveAspectRatio="xMinYMin meet"><svg width="4380" height="2430"><g><image crossorigin="anonymous" x="0" y="0" href="https://nftpuzzle.license-token.com/assets/completepuzzle.svg" width="100%" height="100%" /><g class="links"><use href="#t8275"/></g></g></svg><svg x="2826" y="2037" height="9%" width="9%" viewBox="0 0 330 330"><g><a xlink:href="https://nftpuzzle.license-token.com/" class="links"><title>See the most innovative NFT based token software licensing project</title><path fill="#E4CF37" id="more" d="M165,0C74.019,0,0,74.019,0,165s74.019,165,165,165s165-74.019,165-165S255.981,0,165,0z M85,190 c-13.785,0-25-11.215-25-25s11.215-25,25-25s25,11.215,25,25S98.785,190,85,190z M165,190c-13.785,0-25-11.215-25-25 s11.215-25,25-25s25,11.215,25,25S178.785,190,165,190z M245,190c-13.785,0-25-11.215-25-25s11.215-25,25-25 c13.785,0,25,11.215,25,25S258.785,190,245,190z"></path></a></g></svg></svg></svg>