<svg version="1.1" xmlns="http://www.w3.org/2000/svg" xmlns:xlink="http://www.w3.org/1999/xlink" fill="transparent" x="0" y="0" width="350" height="350" preserveAspectRatio="xMinYMin slice"><style type="text/css">.links{fill:transparent;stroke: #E4CF37;}.links:hover{fill:#63D272; opacity:0.4;}</style><defs><g id="allt"><path id="t8277" d="M2904,2016 L2894,2016 C2884,2017 2898,2011 2888,2012 C2879,2014 2890,2016 2880,2016 L2871,2016 2871,2016 L2871,2025 C2871,2035 2869,2023 2868,2031 C2867,2040 2871,2027 2871,2037 L2871,2048 2871,2048 L2881,2048 C2891,2048 2878,2046 2886,2045 C2895,2044 2882,2048 2893,2048 L2904,2048 2904,2048 L2904,2037 C2904,2027 2907,2041 2909,2032 C2911,2024 2904,2033 2904,2024 L2904,2016"/></g><clipPath id="c" clipRule="evenodd" fill="transparent"><use href="#t8277"/></clipPath></defs><svg viewBox="2866 2010 46 39" preserveAspectRatio="xMinYMin meet"><svg width="4380" height="2430"><g><image crossorigin="anonymous" x="0" y="0" href="https://nftpuzzle.license-token.com/assets/completepuzzle.svg" width="100%" height="100%" /><g class="links"><use href="#t8277"/></g></g></svg><svg x="2897" y="2034" height="9%" width="9%" viewBox="0 0 330 330"><g><a xlink:href="https://nftpuzzle.license-token.com/" class="links"><title>See the most innovative NFT based token software licensing project</title><path fill="#E4CF37" id="more" d="M165,0C74.019,0,0,74.019,0,165s74.019,165,165,165s165-74.019,165-165S255.981,0,165,0z M85,190 c-13.785,0-25-11.215-25-25s11.215-25,25-25s25,11.215,25,25S98.785,190,85,190z M165,190c-13.785,0-25-11.215-25-25 s11.215-25,25-25s25,11.215,25,25S178.785,190,165,190z M245,190c-13.785,0-25-11.215-25-25s11.215-25,25-25 c13.785,0,25,11.215,25,25S258.785,190,245,190z"></path></a></g></svg></svg></svg>