<svg version="1.1" xmlns="http://www.w3.org/2000/svg" xmlns:xlink="http://www.w3.org/1999/xlink" fill="transparent" x="0" y="0" width="350" height="350" preserveAspectRatio="xMinYMin slice"><style type="text/css">.links{fill:transparent;stroke: #E4CF37;}.links:hover{fill:#63D272; opacity:0.4;}</style><defs><g id="allt"><path id="t8278" d="M2937,2016 L2927,2016 C2917,2016 2928,2023 2919,2023 C2910,2024 2925,2014 2914,2015 L2904,2016 2904,2016 L2904,2024 C2904,2033 2911,2024 2909,2032 C2907,2041 2904,2027 2904,2037 L2904,2048 2904,2048 L2913,2048 C2922,2048 2913,2055 2921,2053 C2930,2051 2916,2048 2926,2048 L2937,2048 2937,2048 L2937,2038 C2937,2028 2934,2038 2934,2031 C2934,2025 2937,2034 2937,2025 L2937,2016"/></g><clipPath id="c" clipRule="evenodd" fill="transparent"><use href="#t8278"/></clipPath></defs><svg viewBox="2903 2013 35 43" preserveAspectRatio="xMinYMin meet"><svg width="4380" height="2430"><g><image crossorigin="anonymous" x="0" y="0" href="https://nftpuzzle.license-token.com/assets/completepuzzle.svg" width="100%" height="100%" /><g class="links"><use href="#t8278"/></g></g></svg><svg x="2923" y="2041" height="9%" width="9%" viewBox="0 0 330 330"><g><a xlink:href="https://nftpuzzle.license-token.com/" class="links"><title>See the most innovative NFT based token software licensing project</title><path fill="#E4CF37" id="more" d="M165,0C74.019,0,0,74.019,0,165s74.019,165,165,165s165-74.019,165-165S255.981,0,165,0z M85,190 c-13.785,0-25-11.215-25-25s11.215-25,25-25s25,11.215,25,25S98.785,190,85,190z M165,190c-13.785,0-25-11.215-25-25 s11.215-25,25-25s25,11.215,25,25S178.785,190,165,190z M245,190c-13.785,0-25-11.215-25-25s11.215-25,25-25 c13.785,0,25,11.215,25,25S258.785,190,245,190z"></path></a></g></svg></svg></svg>