<svg version="1.1" xmlns="http://www.w3.org/2000/svg" xmlns:xlink="http://www.w3.org/1999/xlink" fill="transparent" x="0" y="0" width="350" height="350" preserveAspectRatio="xMinYMin slice"><style type="text/css">.links{fill:transparent;stroke: #E4CF37;}.links:hover{fill:#63D272; opacity:0.4;}</style><defs><g id="allt"><path id="t828" d="M1617,192 L1607,192 C1598,192 1610,194 1599,196 C1589,198 1604,190 1594,191 L1584,192 1584,192 L1584,200 C1585,209 1582,200 1581,208 C1581,216 1584,206 1584,215 L1584,224 1584,224 L1593,224 C1602,225 1592,222 1600,221 C1609,221 1598,224 1607,224 L1617,224 1617,224 L1617,215 C1617,206 1608,218 1608,208 C1608,199 1617,210 1617,201 L1617,192"/></g><clipPath id="c" clipRule="evenodd" fill="transparent"><use href="#t828"/></clipPath></defs><svg viewBox="1580 189 38 37" preserveAspectRatio="xMinYMin meet"><svg width="4380" height="2430"><g><image crossorigin="anonymous" x="0" y="0" href="https://nftpuzzle.license-token.com/assets/completepuzzle.svg" width="100%" height="100%" /><g class="links"><use href="#t828"/></g></g></svg><svg x="1603" y="211" height="9%" width="9%" viewBox="0 0 330 330"><g><a xlink:href="https://nftpuzzle.license-token.com/" class="links"><title>See the most innovative NFT based token software licensing project</title><path fill="#E4CF37" id="more" d="M165,0C74.019,0,0,74.019,0,165s74.019,165,165,165s165-74.019,165-165S255.981,0,165,0z M85,190 c-13.785,0-25-11.215-25-25s11.215-25,25-25s25,11.215,25,25S98.785,190,85,190z M165,190c-13.785,0-25-11.215-25-25 s11.215-25,25-25s25,11.215,25,25S178.785,190,165,190z M245,190c-13.785,0-25-11.215-25-25s11.215-25,25-25 c13.785,0,25,11.215,25,25S258.785,190,245,190z"></path></a></g></svg></svg></svg>