<svg version="1.1" xmlns="http://www.w3.org/2000/svg" xmlns:xlink="http://www.w3.org/1999/xlink" fill="transparent" x="0" y="0" width="350" height="350" preserveAspectRatio="xMinYMin slice"><style type="text/css">.links{fill:transparent;stroke: #E4CF37;}.links:hover{fill:#63D272; opacity:0.4;}</style><defs><g id="allt"><path id="t8284" d="M3135,2016 L3124,2016 C3114,2016 3127,2005 3118,2006 C3110,2007 3121,2021 3111,2018 L3102,2016 3102,2016 L3100,2024 C3098,2033 3110,2024 3110,2032 C3110,2041 3102,2028 3102,2038 L3102,2048 3102,2048 L3111,2046 C3120,2044 3110,2056 3119,2056 C3128,2056 3115,2048 3125,2048 L3135,2048 3135,2048 L3134,2037 C3134,2026 3140,2040 3140,2032 C3141,2024 3133,2036 3134,2026 L3135,2016"/></g><clipPath id="c" clipRule="evenodd" fill="transparent"><use href="#t8284"/></clipPath></defs><svg viewBox="3097 2004 45 53" preserveAspectRatio="xMinYMin meet"><svg width="4380" height="2430"><g><image crossorigin="anonymous" x="0" y="0" href="https://nftpuzzle.license-token.com/assets/completepuzzle.svg" width="100%" height="100%" /><g class="links"><use href="#t8284"/></g></g></svg><svg x="3127" y="2042" height="9%" width="9%" viewBox="0 0 330 330"><g><a xlink:href="https://nftpuzzle.license-token.com/" class="links"><title>See the most innovative NFT based token software licensing project</title><path fill="#E4CF37" id="more" d="M165,0C74.019,0,0,74.019,0,165s74.019,165,165,165s165-74.019,165-165S255.981,0,165,0z M85,190 c-13.785,0-25-11.215-25-25s11.215-25,25-25s25,11.215,25,25S98.785,190,85,190z M165,190c-13.785,0-25-11.215-25-25 s11.215-25,25-25s25,11.215,25,25S178.785,190,165,190z M245,190c-13.785,0-25-11.215-25-25s11.215-25,25-25 c13.785,0,25,11.215,25,25S258.785,190,245,190z"></path></a></g></svg></svg></svg>