<svg version="1.1" xmlns="http://www.w3.org/2000/svg" xmlns:xlink="http://www.w3.org/1999/xlink" fill="transparent" x="0" y="0" width="350" height="350" preserveAspectRatio="xMinYMin slice"><style type="text/css">.links{fill:transparent;stroke: #E4CF37;}.links:hover{fill:#63D272; opacity:0.4;}</style><defs><g id="allt"><path id="t8285" d="M3168,2016 L3156,2016 C3145,2016 3162,2008 3151,2008 C3141,2008 3156,2021 3145,2018 L3135,2016 3135,2016 L3134,2026 C3133,2036 3141,2024 3140,2032 C3140,2040 3134,2026 3134,2037 L3135,2048 3135,2048 L3145,2047 C3156,2046 3143,2054 3151,2053 C3160,2053 3146,2047 3157,2047 L3168,2048 3168,2048 L3168,2037 C3168,2027 3160,2041 3160,2031 C3160,2021 3170,2037 3169,2026 L3168,2016"/></g><clipPath id="c" clipRule="evenodd" fill="transparent"><use href="#t8285"/></clipPath></defs><svg viewBox="3132 2007 39 48" preserveAspectRatio="xMinYMin meet"><svg width="4380" height="2430"><g><image crossorigin="anonymous" x="0" y="0" href="https://nftpuzzle.license-token.com/assets/completepuzzle.svg" width="100%" height="100%" /><g class="links"><use href="#t8285"/></g></g></svg><svg x="3156" y="2040" height="9%" width="9%" viewBox="0 0 330 330"><g><a xlink:href="https://nftpuzzle.license-token.com/" class="links"><title>See the most innovative NFT based token software licensing project</title><path fill="#E4CF37" id="more" d="M165,0C74.019,0,0,74.019,0,165s74.019,165,165,165s165-74.019,165-165S255.981,0,165,0z M85,190 c-13.785,0-25-11.215-25-25s11.215-25,25-25s25,11.215,25,25S98.785,190,85,190z M165,190c-13.785,0-25-11.215-25-25 s11.215-25,25-25s25,11.215,25,25S178.785,190,165,190z M245,190c-13.785,0-25-11.215-25-25s11.215-25,25-25 c13.785,0,25,11.215,25,25S258.785,190,245,190z"></path></a></g></svg></svg></svg>