<svg version="1.1" xmlns="http://www.w3.org/2000/svg" xmlns:xlink="http://www.w3.org/1999/xlink" fill="transparent" x="0" y="0" width="350" height="350" preserveAspectRatio="xMinYMin slice"><style type="text/css">.links{fill:transparent;stroke: #E4CF37;}.links:hover{fill:#63D272; opacity:0.4;}</style><defs><g id="allt"><path id="t829" d="M1650,192 L1639,192 C1629,192 1642,190 1632,189 C1623,189 1638,192 1627,192 L1617,192 1617,192 L1617,201 C1617,210 1608,199 1608,208 C1608,218 1617,206 1617,215 L1617,224 1617,224 L1626,224 C1636,224 1624,216 1634,215 C1644,215 1631,224 1640,224 L1650,224 1650,224 L1651,213 C1652,202 1644,219 1644,208 C1645,197 1652,212 1651,202 L1650,192"/></g><clipPath id="c" clipRule="evenodd" fill="transparent"><use href="#t829"/></clipPath></defs><svg viewBox="1607 188 46 37" preserveAspectRatio="xMinYMin meet"><svg width="4380" height="2430"><g><image crossorigin="anonymous" x="0" y="0" href="https://nftpuzzle.license-token.com/assets/completepuzzle.svg" width="100%" height="100%" /><g class="links"><use href="#t829"/></g></g></svg><svg x="1638" y="210" height="9%" width="9%" viewBox="0 0 330 330"><g><a xlink:href="https://nftpuzzle.license-token.com/" class="links"><title>See the most innovative NFT based token software licensing project</title><path fill="#E4CF37" id="more" d="M165,0C74.019,0,0,74.019,0,165s74.019,165,165,165s165-74.019,165-165S255.981,0,165,0z M85,190 c-13.785,0-25-11.215-25-25s11.215-25,25-25s25,11.215,25,25S98.785,190,85,190z M165,190c-13.785,0-25-11.215-25-25 s11.215-25,25-25s25,11.215,25,25S178.785,190,165,190z M245,190c-13.785,0-25-11.215-25-25s11.215-25,25-25 c13.785,0,25,11.215,25,25S258.785,190,245,190z"></path></a></g></svg></svg></svg>