<svg version="1.1" xmlns="http://www.w3.org/2000/svg" xmlns:xlink="http://www.w3.org/1999/xlink" fill="transparent" x="0" y="0" width="350" height="350" preserveAspectRatio="xMinYMin slice"><style type="text/css">.links{fill:transparent;stroke: #E4CF37;}.links:hover{fill:#63D272; opacity:0.4;}</style><defs><g id="allt"><path id="t8294" d="M3465,2016 L3455,2018 C3446,2020 3458,2012 3447,2009 C3437,2006 3453,2020 3442,2018 L3432,2016 3432,2016 L3433,2026 C3435,2036 3426,2024 3424,2032 C3422,2040 3432,2030 3432,2039 L3432,2048 3432,2048 L3442,2049 C3452,2051 3440,2042 3448,2040 C3456,2038 3446,2048 3455,2048 L3465,2048 3465,2048 L3465,2037 C3465,2027 3462,2041 3461,2030 C3461,2020 3465,2034 3465,2025 L3465,2016"/></g><clipPath id="c" clipRule="evenodd" fill="transparent"><use href="#t8294"/></clipPath></defs><svg viewBox="3421 2005 45 47" preserveAspectRatio="xMinYMin meet"><svg width="4380" height="2430"><g><image crossorigin="anonymous" x="0" y="0" href="https://nftpuzzle.license-token.com/assets/completepuzzle.svg" width="100%" height="100%" /><g class="links"><use href="#t8294"/></g></g></svg><svg x="3451" y="2037" height="9%" width="9%" viewBox="0 0 330 330"><g><a xlink:href="https://nftpuzzle.license-token.com/" class="links"><title>See the most innovative NFT based token software licensing project</title><path fill="#E4CF37" id="more" d="M165,0C74.019,0,0,74.019,0,165s74.019,165,165,165s165-74.019,165-165S255.981,0,165,0z M85,190 c-13.785,0-25-11.215-25-25s11.215-25,25-25s25,11.215,25,25S98.785,190,85,190z M165,190c-13.785,0-25-11.215-25-25 s11.215-25,25-25s25,11.215,25,25S178.785,190,165,190z M245,190c-13.785,0-25-11.215-25-25s11.215-25,25-25 c13.785,0,25,11.215,25,25S258.785,190,245,190z"></path></a></g></svg></svg></svg>