<svg version="1.1" xmlns="http://www.w3.org/2000/svg" xmlns:xlink="http://www.w3.org/1999/xlink" fill="transparent" x="0" y="0" width="350" height="350" preserveAspectRatio="xMinYMin slice"><style type="text/css">.links{fill:transparent;stroke: #E4CF37;}.links:hover{fill:#63D272; opacity:0.4;}</style><defs><g id="allt"><path id="t8295" d="M3498,2016 L3487,2017 C3476,2019 3488,2011 3479,2011 C3470,2011 3487,2016 3476,2016 L3465,2016 3465,2016 L3465,2025 C3465,2034 3461,2020 3461,2030 C3462,2041 3465,2027 3465,2037 L3465,2048 3465,2048 L3474,2048 C3484,2048 3469,2044 3480,2044 C3491,2045 3476,2048 3487,2048 L3498,2048 3498,2048 L3498,2038 C3498,2028 3493,2042 3493,2033 C3494,2024 3498,2036 3498,2026 L3498,2016"/></g><clipPath id="c" clipRule="evenodd" fill="transparent"><use href="#t8295"/></clipPath></defs><svg viewBox="3460 2010 39 39" preserveAspectRatio="xMinYMin meet"><svg width="4380" height="2430"><g><image crossorigin="anonymous" x="0" y="0" href="https://nftpuzzle.license-token.com/assets/completepuzzle.svg" width="100%" height="100%" /><g class="links"><use href="#t8295"/></g></g></svg><svg x="3484" y="2034" height="9%" width="9%" viewBox="0 0 330 330"><g><a xlink:href="https://nftpuzzle.license-token.com/" class="links"><title>See the most innovative NFT based token software licensing project</title><path fill="#E4CF37" id="more" d="M165,0C74.019,0,0,74.019,0,165s74.019,165,165,165s165-74.019,165-165S255.981,0,165,0z M85,190 c-13.785,0-25-11.215-25-25s11.215-25,25-25s25,11.215,25,25S98.785,190,85,190z M165,190c-13.785,0-25-11.215-25-25 s11.215-25,25-25s25,11.215,25,25S178.785,190,165,190z M245,190c-13.785,0-25-11.215-25-25s11.215-25,25-25 c13.785,0,25,11.215,25,25S258.785,190,245,190z"></path></a></g></svg></svg></svg>