<svg version="1.1" xmlns="http://www.w3.org/2000/svg" xmlns:xlink="http://www.w3.org/1999/xlink" fill="transparent" x="0" y="0" width="350" height="350" preserveAspectRatio="xMinYMin slice"><style type="text/css">.links{fill:transparent;stroke: #E4CF37;}.links:hover{fill:#63D272; opacity:0.4;}</style><defs><g id="allt"><path id="t8296" d="M3531,2016 L3520,2016 C3509,2017 3525,2003 3514,2005 C3503,2008 3516,2017 3507,2016 L3498,2016 3498,2016 L3498,2026 C3498,2036 3494,2024 3493,2033 C3493,2042 3498,2028 3498,2038 L3498,2048 3498,2048 L3508,2048 C3518,2048 3506,2044 3515,2043 C3525,2043 3510,2048 3520,2048 L3531,2048 3531,2048 L3533,2038 C3535,2029 3523,2042 3524,2033 C3525,2025 3531,2037 3531,2026 L3531,2016"/></g><clipPath id="c" clipRule="evenodd" fill="transparent"><use href="#t8296"/></clipPath></defs><svg viewBox="3492 2002 44 47" preserveAspectRatio="xMinYMin meet"><svg width="4380" height="2430"><g><image crossorigin="anonymous" x="0" y="0" href="https://nftpuzzle.license-token.com/assets/completepuzzle.svg" width="100%" height="100%" /><g class="links"><use href="#t8296"/></g></g></svg><svg x="3521" y="2034" height="9%" width="9%" viewBox="0 0 330 330"><g><a xlink:href="https://nftpuzzle.license-token.com/" class="links"><title>See the most innovative NFT based token software licensing project</title><path fill="#E4CF37" id="more" d="M165,0C74.019,0,0,74.019,0,165s74.019,165,165,165s165-74.019,165-165S255.981,0,165,0z M85,190 c-13.785,0-25-11.215-25-25s11.215-25,25-25s25,11.215,25,25S98.785,190,85,190z M165,190c-13.785,0-25-11.215-25-25 s11.215-25,25-25s25,11.215,25,25S178.785,190,165,190z M245,190c-13.785,0-25-11.215-25-25s11.215-25,25-25 c13.785,0,25,11.215,25,25S258.785,190,245,190z"></path></a></g></svg></svg></svg>