<svg version="1.1" xmlns="http://www.w3.org/2000/svg" xmlns:xlink="http://www.w3.org/1999/xlink" fill="transparent" x="0" y="0" width="350" height="350" preserveAspectRatio="xMinYMin slice"><style type="text/css">.links{fill:transparent;stroke: #E4CF37;}.links:hover{fill:#63D272; opacity:0.4;}</style><defs><g id="allt"><path id="t8301" d="M3696,2016 L3686,2016 C3677,2016 3686,2026 3677,2026 C3668,2027 3685,2012 3674,2014 L3663,2016 3663,2016 L3665,2026 C3668,2037 3656,2021 3655,2031 C3654,2041 3665,2030 3664,2039 L3663,2048 3663,2048 L3673,2050 C3684,2053 3668,2041 3678,2040 C3689,2039 3677,2050 3686,2049 L3696,2048 3696,2048 L3696,2037 C3696,2027 3698,2040 3698,2032 C3699,2024 3696,2034 3696,2025 L3696,2016"/></g><clipPath id="c" clipRule="evenodd" fill="transparent"><use href="#t8301"/></clipPath></defs><svg viewBox="3653 2011 47 43" preserveAspectRatio="xMinYMin meet"><svg width="4380" height="2430"><g><image crossorigin="anonymous" x="0" y="0" href="https://nftpuzzle.license-token.com/assets/completepuzzle.svg" width="100%" height="100%" /><g class="links"><use href="#t8301"/></g></g></svg><svg x="3685" y="2039" height="9%" width="9%" viewBox="0 0 330 330"><g><a xlink:href="https://nftpuzzle.license-token.com/" class="links"><title>See the most innovative NFT based token software licensing project</title><path fill="#E4CF37" id="more" d="M165,0C74.019,0,0,74.019,0,165s74.019,165,165,165s165-74.019,165-165S255.981,0,165,0z M85,190 c-13.785,0-25-11.215-25-25s11.215-25,25-25s25,11.215,25,25S98.785,190,85,190z M165,190c-13.785,0-25-11.215-25-25 s11.215-25,25-25s25,11.215,25,25S178.785,190,165,190z M245,190c-13.785,0-25-11.215-25-25s11.215-25,25-25 c13.785,0,25,11.215,25,25S258.785,190,245,190z"></path></a></g></svg></svg></svg>