<svg version="1.1" xmlns="http://www.w3.org/2000/svg" xmlns:xlink="http://www.w3.org/1999/xlink" fill="transparent" x="0" y="0" width="350" height="350" preserveAspectRatio="xMinYMin slice"><style type="text/css">.links{fill:transparent;stroke: #E4CF37;}.links:hover{fill:#63D272; opacity:0.4;}</style><defs><g id="allt"><path id="t8304" d="M3795,2016 L3784,2016 C3773,2016 3789,2008 3779,2009 C3769,2011 3783,2016 3772,2016 L3762,2016 3762,2016 L3762,2026 C3762,2036 3753,2025 3755,2031 C3758,2038 3762,2029 3762,2038 L3762,2048 3762,2048 L3772,2048 C3783,2048 3771,2039 3778,2041 C3785,2044 3775,2048 3785,2048 L3795,2048 3795,2048 L3795,2037 C3795,2027 3801,2040 3802,2032 C3803,2025 3791,2035 3793,2025 L3795,2016"/></g><clipPath id="c" clipRule="evenodd" fill="transparent"><use href="#t8304"/></clipPath></defs><svg viewBox="3752 2007 52 42" preserveAspectRatio="xMinYMin meet"><svg width="4380" height="2430"><g><image crossorigin="anonymous" x="0" y="0" href="https://nftpuzzle.license-token.com/assets/completepuzzle.svg" width="100%" height="100%" /><g class="links"><use href="#t8304"/></g></g></svg><svg x="3789" y="2034" height="9%" width="9%" viewBox="0 0 330 330"><g><a xlink:href="https://nftpuzzle.license-token.com/" class="links"><title>See the most innovative NFT based token software licensing project</title><path fill="#E4CF37" id="more" d="M165,0C74.019,0,0,74.019,0,165s74.019,165,165,165s165-74.019,165-165S255.981,0,165,0z M85,190 c-13.785,0-25-11.215-25-25s11.215-25,25-25s25,11.215,25,25S98.785,190,85,190z M165,190c-13.785,0-25-11.215-25-25 s11.215-25,25-25s25,11.215,25,25S178.785,190,165,190z M245,190c-13.785,0-25-11.215-25-25s11.215-25,25-25 c13.785,0,25,11.215,25,25S258.785,190,245,190z"></path></a></g></svg></svg></svg>