<svg version="1.1" xmlns="http://www.w3.org/2000/svg" xmlns:xlink="http://www.w3.org/1999/xlink" fill="transparent" x="0" y="0" width="350" height="350" preserveAspectRatio="xMinYMin slice"><style type="text/css">.links{fill:transparent;stroke: #E4CF37;}.links:hover{fill:#63D272; opacity:0.4;}</style><defs><g id="allt"><path id="t8309" d="M3960,2016 L3949,2017 C3938,2019 3954,2012 3943,2010 C3932,2009 3946,2016 3936,2016 L3927,2016 3927,2016 L3928,2026 C3929,2036 3919,2023 3918,2032 C3918,2041 3929,2030 3928,2039 L3927,2048 3927,2048 L3937,2049 C3947,2050 3934,2040 3943,2040 C3953,2040 3941,2050 3950,2049 L3960,2048 3960,2048 L3960,2039 C3960,2030 3951,2041 3953,2031 C3955,2022 3963,2034 3961,2025 L3960,2016"/></g><clipPath id="c" clipRule="evenodd" fill="transparent"><use href="#t8309"/></clipPath></defs><svg viewBox="3917 2008 47 43" preserveAspectRatio="xMinYMin meet"><svg width="4380" height="2430"><g><image crossorigin="anonymous" x="0" y="0" href="https://nftpuzzle.license-token.com/assets/completepuzzle.svg" width="100%" height="100%" /><g class="links"><use href="#t8309"/></g></g></svg><svg x="3949" y="2036" height="9%" width="9%" viewBox="0 0 330 330"><g><a xlink:href="https://nftpuzzle.license-token.com/" class="links"><title>See the most innovative NFT based token software licensing project</title><path fill="#E4CF37" id="more" d="M165,0C74.019,0,0,74.019,0,165s74.019,165,165,165s165-74.019,165-165S255.981,0,165,0z M85,190 c-13.785,0-25-11.215-25-25s11.215-25,25-25s25,11.215,25,25S98.785,190,85,190z M165,190c-13.785,0-25-11.215-25-25 s11.215-25,25-25s25,11.215,25,25S178.785,190,165,190z M245,190c-13.785,0-25-11.215-25-25s11.215-25,25-25 c13.785,0,25,11.215,25,25S258.785,190,245,190z"></path></a></g></svg></svg></svg>