<svg version="1.1" xmlns="http://www.w3.org/2000/svg" xmlns:xlink="http://www.w3.org/1999/xlink" fill="transparent" x="0" y="0" width="350" height="350" preserveAspectRatio="xMinYMin slice"><style type="text/css">.links{fill:transparent;stroke: #E4CF37;}.links:hover{fill:#63D272; opacity:0.4;}</style><defs><g id="allt"><path id="t8310" d="M3993,2016 L3983,2016 C3973,2016 3986,2020 3977,2019 C3969,2019 3981,2016 3970,2016 L3960,2016 3960,2016 L3961,2025 C3963,2034 3955,2022 3953,2031 C3951,2041 3960,2030 3960,2039 L3960,2048 3960,2048 L3969,2049 C3979,2051 3966,2043 3976,2041 C3986,2039 3974,2048 3983,2048 L3993,2048 3993,2048 L3992,2038 C3992,2028 3997,2041 3999,2033 C4002,2025 3991,2037 3992,2026 L3993,2016"/></g><clipPath id="c" clipRule="evenodd" fill="transparent"><use href="#t8310"/></clipPath></defs><svg viewBox="3950 2015 53 37" preserveAspectRatio="xMinYMin meet"><svg width="4380" height="2430"><g><image crossorigin="anonymous" x="0" y="0" href="https://nftpuzzle.license-token.com/assets/completepuzzle.svg" width="100%" height="100%" /><g class="links"><use href="#t8310"/></g></g></svg><svg x="3988" y="2037" height="9%" width="9%" viewBox="0 0 330 330"><g><a xlink:href="https://nftpuzzle.license-token.com/" class="links"><title>See the most innovative NFT based token software licensing project</title><path fill="#E4CF37" id="more" d="M165,0C74.019,0,0,74.019,0,165s74.019,165,165,165s165-74.019,165-165S255.981,0,165,0z M85,190 c-13.785,0-25-11.215-25-25s11.215-25,25-25s25,11.215,25,25S98.785,190,85,190z M165,190c-13.785,0-25-11.215-25-25 s11.215-25,25-25s25,11.215,25,25S178.785,190,165,190z M245,190c-13.785,0-25-11.215-25-25s11.215-25,25-25 c13.785,0,25,11.215,25,25S258.785,190,245,190z"></path></a></g></svg></svg></svg>