<svg version="1.1" xmlns="http://www.w3.org/2000/svg" xmlns:xlink="http://www.w3.org/1999/xlink" fill="transparent" x="0" y="0" width="350" height="350" preserveAspectRatio="xMinYMin slice"><style type="text/css">.links{fill:transparent;stroke: #E4CF37;}.links:hover{fill:#63D272; opacity:0.4;}</style><defs><g id="allt"><path id="t8311" d="M4026,2016 L4015,2016 C4005,2016 4018,2018 4010,2018 C4002,2019 4015,2014 4004,2015 L3993,2016 3993,2016 L3992,2026 C3991,2037 4002,2025 3999,2033 C3997,2041 3992,2028 3992,2038 L3993,2048 3993,2048 L4003,2047 C4014,2046 4002,2057 4010,2054 C4019,2052 4006,2047 4016,2047 L4026,2048 4026,2048 L4027,2038 C4028,2029 4017,2041 4017,2032 C4017,2024 4026,2036 4026,2026 L4026,2016"/></g><clipPath id="c" clipRule="evenodd" fill="transparent"><use href="#t8311"/></clipPath></defs><svg viewBox="3990 2013 39 45" preserveAspectRatio="xMinYMin meet"><svg width="4380" height="2430"><g><image crossorigin="anonymous" x="0" y="0" href="https://nftpuzzle.license-token.com/assets/completepuzzle.svg" width="100%" height="100%" /><g class="links"><use href="#t8311"/></g></g></svg><svg x="4014" y="2043" height="9%" width="9%" viewBox="0 0 330 330"><g><a xlink:href="https://nftpuzzle.license-token.com/" class="links"><title>See the most innovative NFT based token software licensing project</title><path fill="#E4CF37" id="more" d="M165,0C74.019,0,0,74.019,0,165s74.019,165,165,165s165-74.019,165-165S255.981,0,165,0z M85,190 c-13.785,0-25-11.215-25-25s11.215-25,25-25s25,11.215,25,25S98.785,190,85,190z M165,190c-13.785,0-25-11.215-25-25 s11.215-25,25-25s25,11.215,25,25S178.785,190,165,190z M245,190c-13.785,0-25-11.215-25-25s11.215-25,25-25 c13.785,0,25,11.215,25,25S258.785,190,245,190z"></path></a></g></svg></svg></svg>