<svg version="1.1" xmlns="http://www.w3.org/2000/svg" xmlns:xlink="http://www.w3.org/1999/xlink" fill="transparent" x="0" y="0" width="350" height="350" preserveAspectRatio="xMinYMin slice"><style type="text/css">.links{fill:transparent;stroke: #E4CF37;}.links:hover{fill:#63D272; opacity:0.4;}</style><defs><g id="allt"><path id="t8313" d="M4092,2016 L4081,2016 C4071,2017 4083,2011 4074,2012 C4066,2013 4078,2016 4068,2016 L4059,2016 4059,2016 L4059,2025 C4059,2035 4052,2022 4052,2031 C4052,2040 4059,2027 4059,2037 L4059,2048 4059,2048 L4069,2048 C4079,2048 4065,2041 4074,2041 C4083,2041 4070,2048 4081,2048 L4092,2048 4092,2048 L4091,2038 C4091,2029 4095,2039 4096,2032 C4098,2025 4090,2033 4091,2024 L4092,2016"/></g><clipPath id="c" clipRule="evenodd" fill="transparent"><use href="#t8313"/></clipPath></defs><svg viewBox="4051 2010 48 39" preserveAspectRatio="xMinYMin meet"><svg width="4380" height="2430"><g><image crossorigin="anonymous" x="0" y="0" href="https://nftpuzzle.license-token.com/assets/completepuzzle.svg" width="100%" height="100%" /><g class="links"><use href="#t8313"/></g></g></svg><svg x="4084" y="2034" height="9%" width="9%" viewBox="0 0 330 330"><g><a xlink:href="https://nftpuzzle.license-token.com/" class="links"><title>See the most innovative NFT based token software licensing project</title><path fill="#E4CF37" id="more" d="M165,0C74.019,0,0,74.019,0,165s74.019,165,165,165s165-74.019,165-165S255.981,0,165,0z M85,190 c-13.785,0-25-11.215-25-25s11.215-25,25-25s25,11.215,25,25S98.785,190,85,190z M165,190c-13.785,0-25-11.215-25-25 s11.215-25,25-25s25,11.215,25,25S178.785,190,165,190z M245,190c-13.785,0-25-11.215-25-25s11.215-25,25-25 c13.785,0,25,11.215,25,25S258.785,190,245,190z"></path></a></g></svg></svg></svg>