<svg version="1.1" xmlns="http://www.w3.org/2000/svg" xmlns:xlink="http://www.w3.org/1999/xlink" fill="transparent" x="0" y="0" width="350" height="350" preserveAspectRatio="xMinYMin slice"><style type="text/css">.links{fill:transparent;stroke: #E4CF37;}.links:hover{fill:#63D272; opacity:0.4;}</style><defs><g id="allt"><path id="t8319" d="M4290,2016 L4279,2015 C4268,2015 4281,2029 4271,2026 C4262,2023 4276,2016 4266,2016 L4257,2016 4257,2016 L4257,2025 C4258,2035 4248,2023 4247,2032 C4247,2042 4258,2028 4257,2038 L4257,2048 4257,2048 L4266,2048 C4276,2049 4264,2039 4274,2039 C4284,2039 4269,2049 4279,2048 L4290,2048 L4290,2048 L4290,2016"/></g><clipPath id="c" clipRule="evenodd" fill="transparent"><use href="#t8319"/></clipPath></defs><svg viewBox="4246 2014 45 36" preserveAspectRatio="xMinYMin meet"><svg width="4380" height="2430"><g><image crossorigin="anonymous" x="0" y="0" href="https://nftpuzzle.license-token.com/assets/completepuzzle.svg" width="100%" height="100%" /><g class="links"><use href="#t8319"/></g></g></svg><svg x="4276" y="2035" height="9%" width="9%" viewBox="0 0 330 330"><g><a xlink:href="https://nftpuzzle.license-token.com/" class="links"><title>See the most innovative NFT based token software licensing project</title><path fill="#E4CF37" id="more" d="M165,0C74.019,0,0,74.019,0,165s74.019,165,165,165s165-74.019,165-165S255.981,0,165,0z M85,190 c-13.785,0-25-11.215-25-25s11.215-25,25-25s25,11.215,25,25S98.785,190,85,190z M165,190c-13.785,0-25-11.215-25-25 s11.215-25,25-25s25,11.215,25,25S178.785,190,165,190z M245,190c-13.785,0-25-11.215-25-25s11.215-25,25-25 c13.785,0,25,11.215,25,25S258.785,190,245,190z"></path></a></g></svg></svg></svg>