<svg version="1.1" xmlns="http://www.w3.org/2000/svg" xmlns:xlink="http://www.w3.org/1999/xlink" fill="transparent" x="0" y="0" width="350" height="350" preserveAspectRatio="xMinYMin slice"><style type="text/css">.links{fill:transparent;stroke: #E4CF37;}.links:hover{fill:#63D272; opacity:0.4;}</style><defs><g id="allt"><path id="t832" d="M1749,192 L1739,192 C1729,193 1739,185 1731,184 C1723,183 1735,194 1725,193 L1716,192 1716,192 L1714,201 C1712,210 1724,198 1724,206 C1724,215 1714,205 1715,214 L1716,224 1716,224 L1725,222 C1735,220 1722,232 1731,232 C1740,232 1729,222 1739,223 L1749,224 1749,224 L1750,214 C1751,204 1741,219 1740,209 C1740,200 1751,211 1750,201 L1749,192"/></g><clipPath id="c" clipRule="evenodd" fill="transparent"><use href="#t832"/></clipPath></defs><svg viewBox="1711 182 41 51" preserveAspectRatio="xMinYMin meet"><svg width="4380" height="2430"><g><image crossorigin="anonymous" x="0" y="0" href="https://nftpuzzle.license-token.com/assets/completepuzzle.svg" width="100%" height="100%" /><g class="links"><use href="#t832"/></g></g></svg><svg x="1737" y="218" height="9%" width="9%" viewBox="0 0 330 330"><g><a xlink:href="https://nftpuzzle.license-token.com/" class="links"><title>See the most innovative NFT based token software licensing project</title><path fill="#E4CF37" id="more" d="M165,0C74.019,0,0,74.019,0,165s74.019,165,165,165s165-74.019,165-165S255.981,0,165,0z M85,190 c-13.785,0-25-11.215-25-25s11.215-25,25-25s25,11.215,25,25S98.785,190,85,190z M165,190c-13.785,0-25-11.215-25-25 s11.215-25,25-25s25,11.215,25,25S178.785,190,165,190z M245,190c-13.785,0-25-11.215-25-25s11.215-25,25-25 c13.785,0,25,11.215,25,25S258.785,190,245,190z"></path></a></g></svg></svg></svg>