<svg version="1.1" xmlns="http://www.w3.org/2000/svg" xmlns:xlink="http://www.w3.org/1999/xlink" fill="transparent" x="0" y="0" width="350" height="350" preserveAspectRatio="xMinYMin slice"><style type="text/css">.links{fill:transparent;stroke: #E4CF37;}.links:hover{fill:#63D272; opacity:0.4;}</style><defs><g id="allt"><path id="t8321" d="M66,2048 L55,2048 C44,2049 57,2039 47,2041 C38,2043 51,2052 42,2050 L33,2048 33,2048 L32,2056 C31,2065 40,2056 40,2064 C40,2072 33,2058 33,2069 L33,2080 33,2080 L42,2079 C51,2078 41,2087 49,2087 C58,2087 44,2080 55,2080 L66,2080 66,2080 L66,2070 C66,2061 74,2074 73,2064 C73,2055 63,2068 64,2058 L66,2048"/></g><clipPath id="c" clipRule="evenodd" fill="transparent"><use href="#t8321"/></clipPath></defs><svg viewBox="30 2038 45 50" preserveAspectRatio="xMinYMin meet"><svg width="4380" height="2430"><g><image crossorigin="anonymous" x="0" y="0" href="https://nftpuzzle.license-token.com/assets/completepuzzle.svg" width="100%" height="100%" /><g class="links"><use href="#t8321"/></g></g></svg><svg x="60" y="2073" height="9%" width="9%" viewBox="0 0 330 330"><g><a xlink:href="https://nftpuzzle.license-token.com/" class="links"><title>See the most innovative NFT based token software licensing project</title><path fill="#E4CF37" id="more" d="M165,0C74.019,0,0,74.019,0,165s74.019,165,165,165s165-74.019,165-165S255.981,0,165,0z M85,190 c-13.785,0-25-11.215-25-25s11.215-25,25-25s25,11.215,25,25S98.785,190,85,190z M165,190c-13.785,0-25-11.215-25-25 s11.215-25,25-25s25,11.215,25,25S178.785,190,165,190z M245,190c-13.785,0-25-11.215-25-25s11.215-25,25-25 c13.785,0,25,11.215,25,25S258.785,190,245,190z"></path></a></g></svg></svg></svg>