<svg version="1.1" xmlns="http://www.w3.org/2000/svg" xmlns:xlink="http://www.w3.org/1999/xlink" fill="transparent" x="0" y="0" width="350" height="350" preserveAspectRatio="xMinYMin slice"><style type="text/css">.links{fill:transparent;stroke: #E4CF37;}.links:hover{fill:#63D272; opacity:0.4;}</style><defs><g id="allt"><path id="t8325" d="M198,2048 L187,2048 C176,2048 192,2042 180,2040 C169,2039 183,2052 174,2050 L165,2048 165,2048 L162,2057 C160,2067 175,2057 173,2064 C171,2072 160,2060 162,2070 L165,2080 165,2080 L175,2077 C185,2075 174,2089 182,2087 C190,2086 177,2075 187,2077 L198,2080 198,2080 L197,2069 C197,2059 203,2072 204,2063 C206,2055 195,2068 196,2058 L198,2048"/></g><clipPath id="c" clipRule="evenodd" fill="transparent"><use href="#t8325"/></clipPath></defs><svg viewBox="159 2038 48 52" preserveAspectRatio="xMinYMin meet"><svg width="4380" height="2430"><g><image crossorigin="anonymous" x="0" y="0" href="https://nftpuzzle.license-token.com/assets/completepuzzle.svg" width="100%" height="100%" /><g class="links"><use href="#t8325"/></g></g></svg><svg x="192" y="2075" height="9%" width="9%" viewBox="0 0 330 330"><g><a xlink:href="https://nftpuzzle.license-token.com/" class="links"><title>See the most innovative NFT based token software licensing project</title><path fill="#E4CF37" id="more" d="M165,0C74.019,0,0,74.019,0,165s74.019,165,165,165s165-74.019,165-165S255.981,0,165,0z M85,190 c-13.785,0-25-11.215-25-25s11.215-25,25-25s25,11.215,25,25S98.785,190,85,190z M165,190c-13.785,0-25-11.215-25-25 s11.215-25,25-25s25,11.215,25,25S178.785,190,165,190z M245,190c-13.785,0-25-11.215-25-25s11.215-25,25-25 c13.785,0,25,11.215,25,25S258.785,190,245,190z"></path></a></g></svg></svg></svg>