<svg version="1.1" xmlns="http://www.w3.org/2000/svg" xmlns:xlink="http://www.w3.org/1999/xlink" fill="transparent" x="0" y="0" width="350" height="350" preserveAspectRatio="xMinYMin slice"><style type="text/css">.links{fill:transparent;stroke: #E4CF37;}.links:hover{fill:#63D272; opacity:0.4;}</style><defs><g id="allt"><path id="t8327" d="M264,2048 L253,2048 C242,2048 257,2051 248,2052 C240,2054 250,2048 240,2048 L231,2048 231,2048 L231,2057 C231,2066 223,2053 222,2063 C221,2074 232,2062 231,2071 L231,2080 231,2080 L240,2080 C250,2080 236,2072 247,2071 C258,2071 245,2081 254,2080 L264,2080 264,2080 L263,2070 C263,2061 267,2071 268,2064 C270,2057 264,2066 264,2057 L264,2048"/></g><clipPath id="c" clipRule="evenodd" fill="transparent"><use href="#t8327"/></clipPath></defs><svg viewBox="220 2047 51 35" preserveAspectRatio="xMinYMin meet"><svg width="4380" height="2430"><g><image crossorigin="anonymous" x="0" y="0" href="https://nftpuzzle.license-token.com/assets/completepuzzle.svg" width="100%" height="100%" /><g class="links"><use href="#t8327"/></g></g></svg><svg x="256" y="2067" height="9%" width="9%" viewBox="0 0 330 330"><g><a xlink:href="https://nftpuzzle.license-token.com/" class="links"><title>See the most innovative NFT based token software licensing project</title><path fill="#E4CF37" id="more" d="M165,0C74.019,0,0,74.019,0,165s74.019,165,165,165s165-74.019,165-165S255.981,0,165,0z M85,190 c-13.785,0-25-11.215-25-25s11.215-25,25-25s25,11.215,25,25S98.785,190,85,190z M165,190c-13.785,0-25-11.215-25-25 s11.215-25,25-25s25,11.215,25,25S178.785,190,165,190z M245,190c-13.785,0-25-11.215-25-25s11.215-25,25-25 c13.785,0,25,11.215,25,25S258.785,190,245,190z"></path></a></g></svg></svg></svg>