<svg version="1.1" xmlns="http://www.w3.org/2000/svg" xmlns:xlink="http://www.w3.org/1999/xlink" fill="transparent" x="0" y="0" width="350" height="350" preserveAspectRatio="xMinYMin slice"><style type="text/css">.links{fill:transparent;stroke: #E4CF37;}.links:hover{fill:#63D272; opacity:0.4;}</style><defs><g id="allt"><path id="t833" d="M1782,192 L1772,192 C1763,193 1776,183 1766,183 C1756,184 1770,193 1759,192 L1749,192 1749,192 L1750,201 C1751,211 1740,200 1740,209 C1741,219 1751,204 1750,214 L1749,224 1749,224 L1759,225 C1769,226 1757,216 1767,216 C1777,216 1761,226 1771,225 L1782,224 1782,224 L1782,213 C1783,202 1778,219 1777,208 C1777,198 1782,210 1782,201 L1782,192"/></g><clipPath id="c" clipRule="evenodd" fill="transparent"><use href="#t833"/></clipPath></defs><svg viewBox="1739 182 45 45" preserveAspectRatio="xMinYMin meet"><svg width="4380" height="2430"><g><image crossorigin="anonymous" x="0" y="0" href="https://nftpuzzle.license-token.com/assets/completepuzzle.svg" width="100%" height="100%" /><g class="links"><use href="#t833"/></g></g></svg><svg x="1769" y="212" height="9%" width="9%" viewBox="0 0 330 330"><g><a xlink:href="https://nftpuzzle.license-token.com/" class="links"><title>See the most innovative NFT based token software licensing project</title><path fill="#E4CF37" id="more" d="M165,0C74.019,0,0,74.019,0,165s74.019,165,165,165s165-74.019,165-165S255.981,0,165,0z M85,190 c-13.785,0-25-11.215-25-25s11.215-25,25-25s25,11.215,25,25S98.785,190,85,190z M165,190c-13.785,0-25-11.215-25-25 s11.215-25,25-25s25,11.215,25,25S178.785,190,165,190z M245,190c-13.785,0-25-11.215-25-25s11.215-25,25-25 c13.785,0,25,11.215,25,25S258.785,190,245,190z"></path></a></g></svg></svg></svg>