<svg version="1.1" xmlns="http://www.w3.org/2000/svg" xmlns:xlink="http://www.w3.org/1999/xlink" fill="transparent" x="0" y="0" width="350" height="350" preserveAspectRatio="xMinYMin slice"><style type="text/css">.links{fill:transparent;stroke: #E4CF37;}.links:hover{fill:#63D272; opacity:0.4;}</style><defs><g id="allt"><path id="t8332" d="M429,2048 L418,2048 C407,2048 422,2058 412,2055 C403,2052 414,2047 405,2047 L396,2048 396,2048 L397,2058 C399,2068 391,2054 390,2064 C390,2074 397,2060 396,2070 L396,2080 396,2080 L406,2081 C417,2083 402,2075 412,2074 C423,2074 408,2081 418,2080 L429,2080 429,2080 L429,2069 C429,2059 440,2072 440,2063 C441,2054 426,2066 427,2057 L429,2048"/></g><clipPath id="c" clipRule="evenodd" fill="transparent"><use href="#t8332"/></clipPath></defs><svg viewBox="389 2046 53 38" preserveAspectRatio="xMinYMin meet"><svg width="4380" height="2430"><g><image crossorigin="anonymous" x="0" y="0" href="https://nftpuzzle.license-token.com/assets/completepuzzle.svg" width="100%" height="100%" /><g class="links"><use href="#t8332"/></g></g></svg><svg x="427" y="2069" height="9%" width="9%" viewBox="0 0 330 330"><g><a xlink:href="https://nftpuzzle.license-token.com/" class="links"><title>See the most innovative NFT based token software licensing project</title><path fill="#E4CF37" id="more" d="M165,0C74.019,0,0,74.019,0,165s74.019,165,165,165s165-74.019,165-165S255.981,0,165,0z M85,190 c-13.785,0-25-11.215-25-25s11.215-25,25-25s25,11.215,25,25S98.785,190,85,190z M165,190c-13.785,0-25-11.215-25-25 s11.215-25,25-25s25,11.215,25,25S178.785,190,165,190z M245,190c-13.785,0-25-11.215-25-25s11.215-25,25-25 c13.785,0,25,11.215,25,25S258.785,190,245,190z"></path></a></g></svg></svg></svg>