<svg version="1.1" xmlns="http://www.w3.org/2000/svg" xmlns:xlink="http://www.w3.org/1999/xlink" fill="transparent" x="0" y="0" width="350" height="350" preserveAspectRatio="xMinYMin slice"><style type="text/css">.links{fill:transparent;stroke: #E4CF37;}.links:hover{fill:#63D272; opacity:0.4;}</style><defs><g id="allt"><path id="t8335" d="M528,2048 L517,2048 C507,2048 520,2044 512,2043 C504,2043 514,2050 504,2049 L495,2048 495,2048 L495,2058 C495,2068 499,2056 498,2064 C498,2073 494,2060 494,2070 L495,2080 495,2080 L505,2080 C516,2080 504,2084 512,2083 C521,2083 507,2079 517,2079 L528,2080 528,2080 L528,2070 C528,2060 535,2072 533,2063 C532,2055 525,2066 526,2057 L528,2048"/></g><clipPath id="c" clipRule="evenodd" fill="transparent"><use href="#t8335"/></clipPath></defs><svg viewBox="493 2042 43 43" preserveAspectRatio="xMinYMin meet"><svg width="4380" height="2430"><g><image crossorigin="anonymous" x="0" y="0" href="https://nftpuzzle.license-token.com/assets/completepuzzle.svg" width="100%" height="100%" /><g class="links"><use href="#t8335"/></g></g></svg><svg x="521" y="2070" height="9%" width="9%" viewBox="0 0 330 330"><g><a xlink:href="https://nftpuzzle.license-token.com/" class="links"><title>See the most innovative NFT based token software licensing project</title><path fill="#E4CF37" id="more" d="M165,0C74.019,0,0,74.019,0,165s74.019,165,165,165s165-74.019,165-165S255.981,0,165,0z M85,190 c-13.785,0-25-11.215-25-25s11.215-25,25-25s25,11.215,25,25S98.785,190,85,190z M165,190c-13.785,0-25-11.215-25-25 s11.215-25,25-25s25,11.215,25,25S178.785,190,165,190z M245,190c-13.785,0-25-11.215-25-25s11.215-25,25-25 c13.785,0,25,11.215,25,25S258.785,190,245,190z"></path></a></g></svg></svg></svg>