<svg version="1.1" xmlns="http://www.w3.org/2000/svg" xmlns:xlink="http://www.w3.org/1999/xlink" fill="transparent" x="0" y="0" width="350" height="350" preserveAspectRatio="xMinYMin slice"><style type="text/css">.links{fill:transparent;stroke: #E4CF37;}.links:hover{fill:#63D272; opacity:0.4;}</style><defs><g id="allt"><path id="t8338" d="M627,2048 L616,2048 C606,2049 617,2040 610,2039 C603,2039 613,2051 603,2049 L594,2048 594,2048 L593,2057 C592,2067 597,2056 597,2064 C597,2073 593,2061 593,2070 L594,2080 594,2080 L604,2079 C614,2078 602,2083 611,2083 C620,2083 608,2079 617,2079 L627,2080 627,2080 L626,2071 C626,2062 631,2073 630,2063 C629,2054 627,2066 627,2057 L627,2048"/></g><clipPath id="c" clipRule="evenodd" fill="transparent"><use href="#t8338"/></clipPath></defs><svg viewBox="591 2038 41 46" preserveAspectRatio="xMinYMin meet"><svg width="4380" height="2430"><g><image crossorigin="anonymous" x="0" y="0" href="https://nftpuzzle.license-token.com/assets/completepuzzle.svg" width="100%" height="100%" /><g class="links"><use href="#t8338"/></g></g></svg><svg x="617" y="2069" height="9%" width="9%" viewBox="0 0 330 330"><g><a xlink:href="https://nftpuzzle.license-token.com/" class="links"><title>See the most innovative NFT based token software licensing project</title><path fill="#E4CF37" id="more" d="M165,0C74.019,0,0,74.019,0,165s74.019,165,165,165s165-74.019,165-165S255.981,0,165,0z M85,190 c-13.785,0-25-11.215-25-25s11.215-25,25-25s25,11.215,25,25S98.785,190,85,190z M165,190c-13.785,0-25-11.215-25-25 s11.215-25,25-25s25,11.215,25,25S178.785,190,165,190z M245,190c-13.785,0-25-11.215-25-25s11.215-25,25-25 c13.785,0,25,11.215,25,25S258.785,190,245,190z"></path></a></g></svg></svg></svg>