<svg version="1.1" xmlns="http://www.w3.org/2000/svg" xmlns:xlink="http://www.w3.org/1999/xlink" fill="transparent" x="0" y="0" width="350" height="350" preserveAspectRatio="xMinYMin slice"><style type="text/css">.links{fill:transparent;stroke: #E4CF37;}.links:hover{fill:#63D272; opacity:0.4;}</style><defs><g id="allt"><path id="t8341" d="M726,2048 L715,2048 C704,2049 717,2045 707,2043 C697,2041 713,2048 703,2048 L693,2048 693,2048 L693,2056 C693,2065 684,2053 684,2062 C684,2072 695,2061 694,2070 L693,2080 693,2080 L702,2080 C711,2080 698,2072 708,2072 C718,2072 707,2082 716,2081 L726,2080 726,2080 L726,2070 C726,2061 718,2071 718,2063 C718,2056 729,2068 727,2058 L726,2048"/></g><clipPath id="c" clipRule="evenodd" fill="transparent"><use href="#t8341"/></clipPath></defs><svg viewBox="683 2040 47 43" preserveAspectRatio="xMinYMin meet"><svg width="4380" height="2430"><g><image crossorigin="anonymous" x="0" y="0" href="https://nftpuzzle.license-token.com/assets/completepuzzle.svg" width="100%" height="100%" /><g class="links"><use href="#t8341"/></g></g></svg><svg x="715" y="2068" height="9%" width="9%" viewBox="0 0 330 330"><g><a xlink:href="https://nftpuzzle.license-token.com/" class="links"><title>See the most innovative NFT based token software licensing project</title><path fill="#E4CF37" id="more" d="M165,0C74.019,0,0,74.019,0,165s74.019,165,165,165s165-74.019,165-165S255.981,0,165,0z M85,190 c-13.785,0-25-11.215-25-25s11.215-25,25-25s25,11.215,25,25S98.785,190,85,190z M165,190c-13.785,0-25-11.215-25-25 s11.215-25,25-25s25,11.215,25,25S178.785,190,165,190z M245,190c-13.785,0-25-11.215-25-25s11.215-25,25-25 c13.785,0,25,11.215,25,25S258.785,190,245,190z"></path></a></g></svg></svg></svg>