<svg version="1.1" xmlns="http://www.w3.org/2000/svg" xmlns:xlink="http://www.w3.org/1999/xlink" fill="transparent" x="0" y="0" width="350" height="350" preserveAspectRatio="xMinYMin slice"><style type="text/css">.links{fill:transparent;stroke: #E4CF37;}.links:hover{fill:#63D272; opacity:0.4;}</style><defs><g id="allt"><path id="t8344" d="M825,2048 L814,2048 C804,2048 818,2044 809,2045 C801,2046 813,2050 802,2049 L792,2048 792,2048 L794,2057 C796,2067 783,2057 783,2065 C784,2074 795,2059 793,2069 L792,2080 792,2080 L801,2082 C811,2084 801,2071 810,2071 C819,2072 803,2083 814,2081 L825,2080 825,2080 L825,2069 C825,2058 822,2071 822,2062 C822,2053 825,2066 825,2057 L825,2048"/></g><clipPath id="c" clipRule="evenodd" fill="transparent"><use href="#t8344"/></clipPath></defs><svg viewBox="782 2043 44 42" preserveAspectRatio="xMinYMin meet"><svg width="4380" height="2430"><g><image crossorigin="anonymous" x="0" y="0" href="https://nftpuzzle.license-token.com/assets/completepuzzle.svg" width="100%" height="100%" /><g class="links"><use href="#t8344"/></g></g></svg><svg x="811" y="2070" height="9%" width="9%" viewBox="0 0 330 330"><g><a xlink:href="https://nftpuzzle.license-token.com/" class="links"><title>See the most innovative NFT based token software licensing project</title><path fill="#E4CF37" id="more" d="M165,0C74.019,0,0,74.019,0,165s74.019,165,165,165s165-74.019,165-165S255.981,0,165,0z M85,190 c-13.785,0-25-11.215-25-25s11.215-25,25-25s25,11.215,25,25S98.785,190,85,190z M165,190c-13.785,0-25-11.215-25-25 s11.215-25,25-25s25,11.215,25,25S178.785,190,165,190z M245,190c-13.785,0-25-11.215-25-25s11.215-25,25-25 c13.785,0,25,11.215,25,25S258.785,190,245,190z"></path></a></g></svg></svg></svg>