<svg version="1.1" xmlns="http://www.w3.org/2000/svg" xmlns:xlink="http://www.w3.org/1999/xlink" fill="transparent" x="0" y="0" width="350" height="350" preserveAspectRatio="xMinYMin slice"><style type="text/css">.links{fill:transparent;stroke: #E4CF37;}.links:hover{fill:#63D272; opacity:0.4;}</style><defs><g id="allt"><path id="t835" d="M1848,192 L1838,193 C1828,195 1842,186 1833,186 C1824,186 1835,192 1825,192 L1815,192 1815,192 L1816,202 C1818,213 1807,199 1808,207 C1809,215 1820,202 1817,213 L1815,224 1815,224 L1825,225 C1836,227 1822,216 1830,217 C1839,218 1826,229 1837,226 L1848,224 1848,224 L1850,214 C1853,204 1834,215 1834,207 C1835,200 1848,211 1848,201 L1848,192"/></g><clipPath id="c" clipRule="evenodd" fill="transparent"><use href="#t835"/></clipPath></defs><svg viewBox="1806 185 48 45" preserveAspectRatio="xMinYMin meet"><svg width="4380" height="2430"><g><image crossorigin="anonymous" x="0" y="0" href="https://nftpuzzle.license-token.com/assets/completepuzzle.svg" width="100%" height="100%" /><g class="links"><use href="#t835"/></g></g></svg><svg x="1839" y="215" height="9%" width="9%" viewBox="0 0 330 330"><g><a xlink:href="https://nftpuzzle.license-token.com/" class="links"><title>See the most innovative NFT based token software licensing project</title><path fill="#E4CF37" id="more" d="M165,0C74.019,0,0,74.019,0,165s74.019,165,165,165s165-74.019,165-165S255.981,0,165,0z M85,190 c-13.785,0-25-11.215-25-25s11.215-25,25-25s25,11.215,25,25S98.785,190,85,190z M165,190c-13.785,0-25-11.215-25-25 s11.215-25,25-25s25,11.215,25,25S178.785,190,165,190z M245,190c-13.785,0-25-11.215-25-25s11.215-25,25-25 c13.785,0,25,11.215,25,25S258.785,190,245,190z"></path></a></g></svg></svg></svg>