<svg version="1.1" xmlns="http://www.w3.org/2000/svg" xmlns:xlink="http://www.w3.org/1999/xlink" fill="transparent" x="0" y="0" width="350" height="350" preserveAspectRatio="xMinYMin slice"><style type="text/css">.links{fill:transparent;stroke: #E4CF37;}.links:hover{fill:#63D272; opacity:0.4;}</style><defs><g id="allt"><path id="t8352" d="M1089,2048 L1079,2050 C1069,2052 1079,2041 1070,2040 C1061,2039 1074,2052 1065,2050 L1056,2048 1056,2048 L1056,2057 C1056,2066 1052,2056 1052,2064 C1052,2072 1058,2059 1057,2069 L1056,2080 1056,2080 L1065,2080 C1075,2080 1064,2076 1072,2076 C1081,2076 1067,2082 1078,2081 L1089,2080 1089,2080 L1087,2070 C1085,2060 1097,2070 1098,2061 C1099,2052 1089,2066 1089,2057 L1089,2048"/></g><clipPath id="c" clipRule="evenodd" fill="transparent"><use href="#t8352"/></clipPath></defs><svg viewBox="1051 2038 49 45" preserveAspectRatio="xMinYMin meet"><svg width="4380" height="2430"><g><image crossorigin="anonymous" x="0" y="0" href="https://nftpuzzle.license-token.com/assets/completepuzzle.svg" width="100%" height="100%" /><g class="links"><use href="#t8352"/></g></g></svg><svg x="1085" y="2068" height="9%" width="9%" viewBox="0 0 330 330"><g><a xlink:href="https://nftpuzzle.license-token.com/" class="links"><title>See the most innovative NFT based token software licensing project</title><path fill="#E4CF37" id="more" d="M165,0C74.019,0,0,74.019,0,165s74.019,165,165,165s165-74.019,165-165S255.981,0,165,0z M85,190 c-13.785,0-25-11.215-25-25s11.215-25,25-25s25,11.215,25,25S98.785,190,85,190z M165,190c-13.785,0-25-11.215-25-25 s11.215-25,25-25s25,11.215,25,25S178.785,190,165,190z M245,190c-13.785,0-25-11.215-25-25s11.215-25,25-25 c13.785,0,25,11.215,25,25S258.785,190,245,190z"></path></a></g></svg></svg></svg>