<svg version="1.1" xmlns="http://www.w3.org/2000/svg" xmlns:xlink="http://www.w3.org/1999/xlink" fill="transparent" x="0" y="0" width="350" height="350" preserveAspectRatio="xMinYMin slice"><style type="text/css">.links{fill:transparent;stroke: #E4CF37;}.links:hover{fill:#63D272; opacity:0.4;}</style><defs><g id="allt"><path id="t8355" d="M1188,2048 L1177,2049 C1167,2051 1178,2044 1170,2043 C1163,2042 1175,2051 1165,2049 L1155,2048 1155,2048 L1156,2058 C1157,2069 1148,2054 1147,2064 C1147,2074 1157,2061 1156,2070 L1155,2080 1155,2080 L1166,2081 C1177,2082 1161,2073 1171,2072 C1182,2072 1168,2082 1178,2081 L1188,2080 1188,2080 L1189,2071 C1191,2062 1184,2070 1181,2062 C1179,2055 1190,2068 1189,2058 L1188,2048"/></g><clipPath id="c" clipRule="evenodd" fill="transparent"><use href="#t8355"/></clipPath></defs><svg viewBox="1146 2041 46 42" preserveAspectRatio="xMinYMin meet"><svg width="4380" height="2430"><g><image crossorigin="anonymous" x="0" y="0" href="https://nftpuzzle.license-token.com/assets/completepuzzle.svg" width="100%" height="100%" /><g class="links"><use href="#t8355"/></g></g></svg><svg x="1177" y="2068" height="9%" width="9%" viewBox="0 0 330 330"><g><a xlink:href="https://nftpuzzle.license-token.com/" class="links"><title>See the most innovative NFT based token software licensing project</title><path fill="#E4CF37" id="more" d="M165,0C74.019,0,0,74.019,0,165s74.019,165,165,165s165-74.019,165-165S255.981,0,165,0z M85,190 c-13.785,0-25-11.215-25-25s11.215-25,25-25s25,11.215,25,25S98.785,190,85,190z M165,190c-13.785,0-25-11.215-25-25 s11.215-25,25-25s25,11.215,25,25S178.785,190,165,190z M245,190c-13.785,0-25-11.215-25-25s11.215-25,25-25 c13.785,0,25,11.215,25,25S258.785,190,245,190z"></path></a></g></svg></svg></svg>