<svg version="1.1" xmlns="http://www.w3.org/2000/svg" xmlns:xlink="http://www.w3.org/1999/xlink" fill="transparent" x="0" y="0" width="350" height="350" preserveAspectRatio="xMinYMin slice"><style type="text/css">.links{fill:transparent;stroke: #E4CF37;}.links:hover{fill:#63D272; opacity:0.4;}</style><defs><g id="allt"><path id="t8369" d="M1650,2048 L1639,2048 C1628,2048 1641,2045 1633,2044 C1625,2043 1639,2048 1628,2048 L1617,2048 1617,2048 L1617,2056 C1618,2065 1613,2054 1612,2064 C1612,2075 1617,2060 1617,2070 L1617,2080 1617,2080 L1626,2080 C1635,2081 1623,2076 1634,2075 C1645,2075 1629,2080 1639,2080 L1650,2080 1650,2080 L1648,2070 C1647,2060 1655,2074 1656,2065 C1658,2056 1649,2065 1649,2056 L1650,2048"/></g><clipPath id="c" clipRule="evenodd" fill="transparent"><use href="#t8369"/></clipPath></defs><svg viewBox="1611 2042 48 40" preserveAspectRatio="xMinYMin meet"><svg width="4380" height="2430"><g><image crossorigin="anonymous" x="0" y="0" href="https://nftpuzzle.license-token.com/assets/completepuzzle.svg" width="100%" height="100%" /><g class="links"><use href="#t8369"/></g></g></svg><svg x="1644" y="2067" height="9%" width="9%" viewBox="0 0 330 330"><g><a xlink:href="https://nftpuzzle.license-token.com/" class="links"><title>See the most innovative NFT based token software licensing project</title><path fill="#E4CF37" id="more" d="M165,0C74.019,0,0,74.019,0,165s74.019,165,165,165s165-74.019,165-165S255.981,0,165,0z M85,190 c-13.785,0-25-11.215-25-25s11.215-25,25-25s25,11.215,25,25S98.785,190,85,190z M165,190c-13.785,0-25-11.215-25-25 s11.215-25,25-25s25,11.215,25,25S178.785,190,165,190z M245,190c-13.785,0-25-11.215-25-25s11.215-25,25-25 c13.785,0,25,11.215,25,25S258.785,190,245,190z"></path></a></g></svg></svg></svg>