<svg version="1.1" xmlns="http://www.w3.org/2000/svg" xmlns:xlink="http://www.w3.org/1999/xlink" fill="transparent" x="0" y="0" width="350" height="350" preserveAspectRatio="xMinYMin slice"><style type="text/css">.links{fill:transparent;stroke: #E4CF37;}.links:hover{fill:#63D272; opacity:0.4;}</style><defs><g id="allt"><path id="t8370" d="M1683,2048 L1672,2048 C1661,2048 1675,2041 1667,2042 C1659,2044 1671,2050 1660,2049 L1650,2048 1650,2048 L1649,2056 C1649,2065 1658,2056 1656,2065 C1655,2074 1647,2060 1648,2070 L1650,2080 1650,2080 L1659,2079 C1668,2079 1659,2088 1668,2086 C1677,2085 1663,2077 1673,2078 L1683,2080 1683,2080 L1683,2069 C1684,2058 1678,2070 1676,2062 C1674,2055 1684,2069 1683,2058 L1683,2048"/></g><clipPath id="c" clipRule="evenodd" fill="transparent"><use href="#t8370"/></clipPath></defs><svg viewBox="1646 2040 39 49" preserveAspectRatio="xMinYMin meet"><svg width="4380" height="2430"><g><image crossorigin="anonymous" x="0" y="0" href="https://nftpuzzle.license-token.com/assets/completepuzzle.svg" width="100%" height="100%" /><g class="links"><use href="#t8370"/></g></g></svg><svg x="1670" y="2074" height="9%" width="9%" viewBox="0 0 330 330"><g><a xlink:href="https://nftpuzzle.license-token.com/" class="links"><title>See the most innovative NFT based token software licensing project</title><path fill="#E4CF37" id="more" d="M165,0C74.019,0,0,74.019,0,165s74.019,165,165,165s165-74.019,165-165S255.981,0,165,0z M85,190 c-13.785,0-25-11.215-25-25s11.215-25,25-25s25,11.215,25,25S98.785,190,85,190z M165,190c-13.785,0-25-11.215-25-25 s11.215-25,25-25s25,11.215,25,25S178.785,190,165,190z M245,190c-13.785,0-25-11.215-25-25s11.215-25,25-25 c13.785,0,25,11.215,25,25S258.785,190,245,190z"></path></a></g></svg></svg></svg>