<svg version="1.1" xmlns="http://www.w3.org/2000/svg" xmlns:xlink="http://www.w3.org/1999/xlink" fill="transparent" x="0" y="0" width="350" height="350" preserveAspectRatio="xMinYMin slice"><style type="text/css">.links{fill:transparent;stroke: #E4CF37;}.links:hover{fill:#63D272; opacity:0.4;}</style><defs><g id="allt"><path id="t8372" d="M1749,2048 L1739,2047 C1729,2047 1744,2061 1733,2058 C1723,2056 1735,2043 1725,2045 L1716,2048 1716,2048 L1716,2058 C1716,2069 1712,2054 1711,2062 C1711,2071 1716,2062 1716,2071 L1716,2080 1716,2080 L1727,2080 C1738,2080 1722,2076 1730,2075 C1739,2075 1730,2080 1739,2080 L1749,2080 1749,2080 L1752,2069 C1755,2058 1742,2072 1739,2062 C1736,2052 1752,2068 1750,2058 L1749,2048"/></g><clipPath id="c" clipRule="evenodd" fill="transparent"><use href="#t8372"/></clipPath></defs><svg viewBox="1710 2042 46 39" preserveAspectRatio="xMinYMin meet"><svg width="4380" height="2430"><g><image crossorigin="anonymous" x="0" y="0" href="https://nftpuzzle.license-token.com/assets/completepuzzle.svg" width="100%" height="100%" /><g class="links"><use href="#t8372"/></g></g></svg><svg x="1741" y="2066" height="9%" width="9%" viewBox="0 0 330 330"><g><a xlink:href="https://nftpuzzle.license-token.com/" class="links"><title>See the most innovative NFT based token software licensing project</title><path fill="#E4CF37" id="more" d="M165,0C74.019,0,0,74.019,0,165s74.019,165,165,165s165-74.019,165-165S255.981,0,165,0z M85,190 c-13.785,0-25-11.215-25-25s11.215-25,25-25s25,11.215,25,25S98.785,190,85,190z M165,190c-13.785,0-25-11.215-25-25 s11.215-25,25-25s25,11.215,25,25S178.785,190,165,190z M245,190c-13.785,0-25-11.215-25-25s11.215-25,25-25 c13.785,0,25,11.215,25,25S258.785,190,245,190z"></path></a></g></svg></svg></svg>