<svg version="1.1" xmlns="http://www.w3.org/2000/svg" xmlns:xlink="http://www.w3.org/1999/xlink" fill="transparent" x="0" y="0" width="350" height="350" preserveAspectRatio="xMinYMin slice"><style type="text/css">.links{fill:transparent;stroke: #E4CF37;}.links:hover{fill:#63D272; opacity:0.4;}</style><defs><g id="allt"><path id="t8382" d="M2079,2048 L2068,2049 C2058,2051 2069,2043 2060,2041 C2052,2040 2065,2049 2055,2048 L2046,2048 2046,2048 L2047,2058 C2048,2069 2037,2057 2038,2064 C2040,2071 2047,2062 2046,2071 L2046,2080 2046,2080 L2056,2081 C2067,2082 2055,2072 2062,2073 C2070,2074 2060,2081 2069,2080 L2079,2080 2079,2080 L2079,2069 C2079,2059 2084,2074 2085,2063 C2087,2053 2077,2069 2078,2058 L2079,2048"/></g><clipPath id="c" clipRule="evenodd" fill="transparent"><use href="#t8382"/></clipPath></defs><svg viewBox="2036 2039 52 44" preserveAspectRatio="xMinYMin meet"><svg width="4380" height="2430"><g><image crossorigin="anonymous" x="0" y="0" href="https://nftpuzzle.license-token.com/assets/completepuzzle.svg" width="100%" height="100%" /><g class="links"><use href="#t8382"/></g></g></svg><svg x="2073" y="2068" height="9%" width="9%" viewBox="0 0 330 330"><g><a xlink:href="https://nftpuzzle.license-token.com/" class="links"><title>See the most innovative NFT based token software licensing project</title><path fill="#E4CF37" id="more" d="M165,0C74.019,0,0,74.019,0,165s74.019,165,165,165s165-74.019,165-165S255.981,0,165,0z M85,190 c-13.785,0-25-11.215-25-25s11.215-25,25-25s25,11.215,25,25S98.785,190,85,190z M165,190c-13.785,0-25-11.215-25-25 s11.215-25,25-25s25,11.215,25,25S178.785,190,165,190z M245,190c-13.785,0-25-11.215-25-25s11.215-25,25-25 c13.785,0,25,11.215,25,25S258.785,190,245,190z"></path></a></g></svg></svg></svg>