<svg version="1.1" xmlns="http://www.w3.org/2000/svg" xmlns:xlink="http://www.w3.org/1999/xlink" fill="transparent" x="0" y="0" width="350" height="350" preserveAspectRatio="xMinYMin slice"><style type="text/css">.links{fill:transparent;stroke: #E4CF37;}.links:hover{fill:#63D272; opacity:0.4;}</style><defs><g id="allt"><path id="t8383" d="M2112,2048 L2102,2049 C2093,2050 2105,2043 2094,2043 C2084,2044 2099,2049 2089,2048 L2079,2048 2079,2048 L2078,2058 C2077,2069 2087,2053 2085,2063 C2084,2074 2079,2059 2079,2069 L2079,2080 2079,2080 L2090,2079 C2101,2078 2084,2088 2095,2086 C2106,2085 2091,2080 2101,2080 L2112,2080 2112,2080 L2112,2069 C2112,2058 2105,2072 2106,2062 C2107,2053 2113,2068 2112,2058 L2112,2048"/></g><clipPath id="c" clipRule="evenodd" fill="transparent"><use href="#t8383"/></clipPath></defs><svg viewBox="2076 2042 38 47" preserveAspectRatio="xMinYMin meet"><svg width="4380" height="2430"><g><image crossorigin="anonymous" x="0" y="0" href="https://nftpuzzle.license-token.com/assets/completepuzzle.svg" width="100%" height="100%" /><g class="links"><use href="#t8383"/></g></g></svg><svg x="2099" y="2074" height="9%" width="9%" viewBox="0 0 330 330"><g><a xlink:href="https://nftpuzzle.license-token.com/" class="links"><title>See the most innovative NFT based token software licensing project</title><path fill="#E4CF37" id="more" d="M165,0C74.019,0,0,74.019,0,165s74.019,165,165,165s165-74.019,165-165S255.981,0,165,0z M85,190 c-13.785,0-25-11.215-25-25s11.215-25,25-25s25,11.215,25,25S98.785,190,85,190z M165,190c-13.785,0-25-11.215-25-25 s11.215-25,25-25s25,11.215,25,25S178.785,190,165,190z M245,190c-13.785,0-25-11.215-25-25s11.215-25,25-25 c13.785,0,25,11.215,25,25S258.785,190,245,190z"></path></a></g></svg></svg></svg>