<svg version="1.1" xmlns="http://www.w3.org/2000/svg" xmlns:xlink="http://www.w3.org/1999/xlink" fill="transparent" x="0" y="0" width="350" height="350" preserveAspectRatio="xMinYMin slice"><style type="text/css">.links{fill:transparent;stroke: #E4CF37;}.links:hover{fill:#63D272; opacity:0.4;}</style><defs><g id="allt"><path id="t8391" d="M2376,2048 L2365,2048 C2354,2049 2366,2045 2356,2045 C2347,2046 2364,2050 2353,2049 L2343,2048 2343,2048 L2343,2057 C2343,2067 2348,2053 2346,2062 C2345,2072 2343,2061 2343,2070 L2343,2080 2343,2080 L2353,2080 C2363,2080 2348,2085 2358,2083 C2368,2082 2356,2080 2366,2080 L2376,2080 2376,2080 L2374,2070 C2373,2061 2380,2071 2381,2063 C2382,2056 2373,2067 2374,2057 L2376,2048"/></g><clipPath id="c" clipRule="evenodd" fill="transparent"><use href="#t8391"/></clipPath></defs><svg viewBox="2342 2044 41 42" preserveAspectRatio="xMinYMin meet"><svg width="4380" height="2430"><g><image crossorigin="anonymous" x="0" y="0" href="https://nftpuzzle.license-token.com/assets/completepuzzle.svg" width="100%" height="100%" /><g class="links"><use href="#t8391"/></g></g></svg><svg x="2368" y="2071" height="9%" width="9%" viewBox="0 0 330 330"><g><a xlink:href="https://nftpuzzle.license-token.com/" class="links"><title>See the most innovative NFT based token software licensing project</title><path fill="#E4CF37" id="more" d="M165,0C74.019,0,0,74.019,0,165s74.019,165,165,165s165-74.019,165-165S255.981,0,165,0z M85,190 c-13.785,0-25-11.215-25-25s11.215-25,25-25s25,11.215,25,25S98.785,190,85,190z M165,190c-13.785,0-25-11.215-25-25 s11.215-25,25-25s25,11.215,25,25S178.785,190,165,190z M245,190c-13.785,0-25-11.215-25-25s11.215-25,25-25 c13.785,0,25,11.215,25,25S258.785,190,245,190z"></path></a></g></svg></svg></svg>