<svg version="1.1" xmlns="http://www.w3.org/2000/svg" xmlns:xlink="http://www.w3.org/1999/xlink" fill="transparent" x="0" y="0" width="350" height="350" preserveAspectRatio="xMinYMin slice"><style type="text/css">.links{fill:transparent;stroke: #E4CF37;}.links:hover{fill:#63D272; opacity:0.4;}</style><defs><g id="allt"><path id="t8399" d="M2640,2048 L2630,2049 C2621,2051 2632,2039 2623,2039 C2614,2039 2625,2048 2616,2048 L2607,2048 2607,2048 L2604,2057 C2602,2066 2618,2057 2615,2065 C2613,2074 2606,2061 2606,2070 L2607,2080 2607,2080 L2616,2077 C2625,2075 2616,2091 2625,2088 C2634,2086 2621,2079 2630,2079 L2640,2080 2640,2080 L2639,2069 C2639,2059 2649,2072 2649,2062 C2650,2053 2639,2066 2639,2057 L2640,2048"/></g><clipPath id="c" clipRule="evenodd" fill="transparent"><use href="#t8399"/></clipPath></defs><svg viewBox="2601 2038 50 54" preserveAspectRatio="xMinYMin meet"><svg width="4380" height="2430"><g><image crossorigin="anonymous" x="0" y="0" href="https://nftpuzzle.license-token.com/assets/completepuzzle.svg" width="100%" height="100%" /><g class="links"><use href="#t8399"/></g></g></svg><svg x="2636" y="2077" height="9%" width="9%" viewBox="0 0 330 330"><g><a xlink:href="https://nftpuzzle.license-token.com/" class="links"><title>See the most innovative NFT based token software licensing project</title><path fill="#E4CF37" id="more" d="M165,0C74.019,0,0,74.019,0,165s74.019,165,165,165s165-74.019,165-165S255.981,0,165,0z M85,190 c-13.785,0-25-11.215-25-25s11.215-25,25-25s25,11.215,25,25S98.785,190,85,190z M165,190c-13.785,0-25-11.215-25-25 s11.215-25,25-25s25,11.215,25,25S178.785,190,165,190z M245,190c-13.785,0-25-11.215-25-25s11.215-25,25-25 c13.785,0,25,11.215,25,25S258.785,190,245,190z"></path></a></g></svg></svg></svg>