<svg version="1.1" xmlns="http://www.w3.org/2000/svg" xmlns:xlink="http://www.w3.org/1999/xlink" fill="transparent" x="0" y="0" width="350" height="350" preserveAspectRatio="xMinYMin slice"><style type="text/css">.links{fill:transparent;stroke: #E4CF37;}.links:hover{fill:#63D272; opacity:0.4;}</style><defs><g id="allt"><path id="t8402" d="M2739,2048 L2728,2046 C2718,2045 2729,2053 2721,2054 C2714,2056 2724,2048 2715,2048 L2706,2048 2706,2048 L2706,2057 C2706,2067 2698,2057 2698,2063 C2699,2070 2706,2059 2706,2069 L2706,2080 2706,2080 L2716,2080 C2726,2080 2715,2072 2722,2072 C2729,2073 2718,2080 2728,2080 L2739,2080 2739,2080 L2741,2069 C2744,2059 2730,2070 2731,2063 C2733,2056 2739,2069 2739,2058 L2739,2048"/></g><clipPath id="c" clipRule="evenodd" fill="transparent"><use href="#t8402"/></clipPath></defs><svg viewBox="2697 2044 48 37" preserveAspectRatio="xMinYMin meet"><svg width="4380" height="2430"><g><image crossorigin="anonymous" x="0" y="0" href="https://nftpuzzle.license-token.com/assets/completepuzzle.svg" width="100%" height="100%" /><g class="links"><use href="#t8402"/></g></g></svg><svg x="2730" y="2066" height="9%" width="9%" viewBox="0 0 330 330"><g><a xlink:href="https://nftpuzzle.license-token.com/" class="links"><title>See the most innovative NFT based token software licensing project</title><path fill="#E4CF37" id="more" d="M165,0C74.019,0,0,74.019,0,165s74.019,165,165,165s165-74.019,165-165S255.981,0,165,0z M85,190 c-13.785,0-25-11.215-25-25s11.215-25,25-25s25,11.215,25,25S98.785,190,85,190z M165,190c-13.785,0-25-11.215-25-25 s11.215-25,25-25s25,11.215,25,25S178.785,190,165,190z M245,190c-13.785,0-25-11.215-25-25s11.215-25,25-25 c13.785,0,25,11.215,25,25S258.785,190,245,190z"></path></a></g></svg></svg></svg>