<svg version="1.1" xmlns="http://www.w3.org/2000/svg" xmlns:xlink="http://www.w3.org/1999/xlink" fill="transparent" x="0" y="0" width="350" height="350" preserveAspectRatio="xMinYMin slice"><style type="text/css">.links{fill:transparent;stroke: #E4CF37;}.links:hover{fill:#63D272; opacity:0.4;}</style><defs><g id="allt"><path id="t8407" d="M2904,2048 L2893,2048 C2882,2048 2895,2044 2886,2045 C2878,2046 2891,2048 2881,2048 L2871,2048 2871,2048 L2871,2057 C2872,2066 2869,2054 2868,2064 C2868,2074 2872,2058 2871,2069 L2871,2080 2871,2080 L2880,2080 C2890,2081 2877,2078 2887,2077 C2898,2077 2882,2081 2893,2080 L2904,2080 2904,2080 L2905,2070 C2906,2060 2899,2074 2899,2064 C2899,2054 2906,2068 2905,2058 L2904,2048"/></g><clipPath id="c" clipRule="evenodd" fill="transparent"><use href="#t8407"/></clipPath></defs><svg viewBox="2867 2043 40 39" preserveAspectRatio="xMinYMin meet"><svg width="4380" height="2430"><g><image crossorigin="anonymous" x="0" y="0" href="https://nftpuzzle.license-token.com/assets/completepuzzle.svg" width="100%" height="100%" /><g class="links"><use href="#t8407"/></g></g></svg><svg x="2892" y="2067" height="9%" width="9%" viewBox="0 0 330 330"><g><a xlink:href="https://nftpuzzle.license-token.com/" class="links"><title>See the most innovative NFT based token software licensing project</title><path fill="#E4CF37" id="more" d="M165,0C74.019,0,0,74.019,0,165s74.019,165,165,165s165-74.019,165-165S255.981,0,165,0z M85,190 c-13.785,0-25-11.215-25-25s11.215-25,25-25s25,11.215,25,25S98.785,190,85,190z M165,190c-13.785,0-25-11.215-25-25 s11.215-25,25-25s25,11.215,25,25S178.785,190,165,190z M245,190c-13.785,0-25-11.215-25-25s11.215-25,25-25 c13.785,0,25,11.215,25,25S258.785,190,245,190z"></path></a></g></svg></svg></svg>