<svg version="1.1" xmlns="http://www.w3.org/2000/svg" xmlns:xlink="http://www.w3.org/1999/xlink" fill="transparent" x="0" y="0" width="350" height="350" preserveAspectRatio="xMinYMin slice"><style type="text/css">.links{fill:transparent;stroke: #E4CF37;}.links:hover{fill:#63D272; opacity:0.4;}</style><defs><g id="allt"><path id="t8409" d="M2970,2048 L2959,2048 C2949,2048 2960,2045 2953,2045 C2946,2045 2956,2048 2946,2048 L2937,2048 2937,2048 L2937,2057 C2937,2066 2929,2055 2930,2063 C2932,2072 2937,2061 2937,2070 L2937,2080 2937,2080 L2946,2080 C2955,2080 2944,2072 2953,2073 C2962,2075 2950,2080 2960,2080 L2970,2080 2970,2080 L2968,2070 C2966,2060 2980,2070 2979,2063 C2979,2056 2968,2067 2969,2057 L2970,2048"/></g><clipPath id="c" clipRule="evenodd" fill="transparent"><use href="#t8409"/></clipPath></defs><svg viewBox="2928 2044 53 37" preserveAspectRatio="xMinYMin meet"><svg width="4380" height="2430"><g><image crossorigin="anonymous" x="0" y="0" href="https://nftpuzzle.license-token.com/assets/completepuzzle.svg" width="100%" height="100%" /><g class="links"><use href="#t8409"/></g></g></svg><svg x="2966" y="2066" height="9%" width="9%" viewBox="0 0 330 330"><g><a xlink:href="https://nftpuzzle.license-token.com/" class="links"><title>See the most innovative NFT based token software licensing project</title><path fill="#E4CF37" id="more" d="M165,0C74.019,0,0,74.019,0,165s74.019,165,165,165s165-74.019,165-165S255.981,0,165,0z M85,190 c-13.785,0-25-11.215-25-25s11.215-25,25-25s25,11.215,25,25S98.785,190,85,190z M165,190c-13.785,0-25-11.215-25-25 s11.215-25,25-25s25,11.215,25,25S178.785,190,165,190z M245,190c-13.785,0-25-11.215-25-25s11.215-25,25-25 c13.785,0,25,11.215,25,25S258.785,190,245,190z"></path></a></g></svg></svg></svg>