<svg version="1.1" xmlns="http://www.w3.org/2000/svg" xmlns:xlink="http://www.w3.org/1999/xlink" fill="transparent" x="0" y="0" width="350" height="350" preserveAspectRatio="xMinYMin slice"><style type="text/css">.links{fill:transparent;stroke: #E4CF37;}.links:hover{fill:#63D272; opacity:0.4;}</style><defs><g id="allt"><path id="t8412" d="M3069,2048 L3057,2046 C3046,2045 3062,2053 3052,2054 C3042,2055 3057,2046 3046,2047 L3036,2048 3036,2048 L3038,2056 C3041,2065 3030,2055 3027,2064 C3024,2074 3038,2060 3037,2070 L3036,2080 3036,2080 L3045,2082 C3054,2085 3043,2074 3053,2071 C3063,2068 3048,2082 3058,2081 L3069,2080 3069,2080 L3069,2070 C3070,2060 3060,2072 3062,2063 C3065,2055 3069,2069 3069,2058 L3069,2048"/></g><clipPath id="c" clipRule="evenodd" fill="transparent"><use href="#t8412"/></clipPath></defs><svg viewBox="3023 2044 48 42" preserveAspectRatio="xMinYMin meet"><svg width="4380" height="2430"><g><image crossorigin="anonymous" x="0" y="0" href="https://nftpuzzle.license-token.com/assets/completepuzzle.svg" width="100%" height="100%" /><g class="links"><use href="#t8412"/></g></g></svg><svg x="3056" y="2071" height="9%" width="9%" viewBox="0 0 330 330"><g><a xlink:href="https://nftpuzzle.license-token.com/" class="links"><title>See the most innovative NFT based token software licensing project</title><path fill="#E4CF37" id="more" d="M165,0C74.019,0,0,74.019,0,165s74.019,165,165,165s165-74.019,165-165S255.981,0,165,0z M85,190 c-13.785,0-25-11.215-25-25s11.215-25,25-25s25,11.215,25,25S98.785,190,85,190z M165,190c-13.785,0-25-11.215-25-25 s11.215-25,25-25s25,11.215,25,25S178.785,190,165,190z M245,190c-13.785,0-25-11.215-25-25s11.215-25,25-25 c13.785,0,25,11.215,25,25S258.785,190,245,190z"></path></a></g></svg></svg></svg>