<svg version="1.1" xmlns="http://www.w3.org/2000/svg" xmlns:xlink="http://www.w3.org/1999/xlink" fill="transparent" x="0" y="0" width="350" height="350" preserveAspectRatio="xMinYMin slice"><style type="text/css">.links{fill:transparent;stroke: #E4CF37;}.links:hover{fill:#63D272; opacity:0.4;}</style><defs><g id="allt"><path id="t8414" d="M3135,2048 L3125,2048 C3115,2048 3128,2056 3119,2056 C3110,2056 3120,2044 3111,2046 L3102,2048 3102,2048 L3102,2058 C3102,2068 3100,2053 3100,2062 C3100,2071 3102,2058 3102,2069 L3102,2080 3102,2080 L3112,2080 C3123,2080 3107,2078 3116,2078 C3126,2078 3113,2080 3124,2080 L3135,2080 3135,2080 L3135,2070 C3135,2061 3127,2070 3128,2063 C3130,2057 3135,2066 3135,2057 L3135,2048"/></g><clipPath id="c" clipRule="evenodd" fill="transparent"><use href="#t8414"/></clipPath></defs><svg viewBox="3099 2043 37 38" preserveAspectRatio="xMinYMin meet"><svg width="4380" height="2430"><g><image crossorigin="anonymous" x="0" y="0" href="https://nftpuzzle.license-token.com/assets/completepuzzle.svg" width="100%" height="100%" /><g class="links"><use href="#t8414"/></g></g></svg><svg x="3121" y="2066" height="9%" width="9%" viewBox="0 0 330 330"><g><a xlink:href="https://nftpuzzle.license-token.com/" class="links"><title>See the most innovative NFT based token software licensing project</title><path fill="#E4CF37" id="more" d="M165,0C74.019,0,0,74.019,0,165s74.019,165,165,165s165-74.019,165-165S255.981,0,165,0z M85,190 c-13.785,0-25-11.215-25-25s11.215-25,25-25s25,11.215,25,25S98.785,190,85,190z M165,190c-13.785,0-25-11.215-25-25 s11.215-25,25-25s25,11.215,25,25S178.785,190,165,190z M245,190c-13.785,0-25-11.215-25-25s11.215-25,25-25 c13.785,0,25,11.215,25,25S258.785,190,245,190z"></path></a></g></svg></svg></svg>