<svg version="1.1" xmlns="http://www.w3.org/2000/svg" xmlns:xlink="http://www.w3.org/1999/xlink" fill="transparent" x="0" y="0" width="350" height="350" preserveAspectRatio="xMinYMin slice"><style type="text/css">.links{fill:transparent;stroke: #E4CF37;}.links:hover{fill:#63D272; opacity:0.4;}</style><defs><g id="allt"><path id="t8415" d="M3168,2048 L3157,2047 C3146,2047 3160,2053 3151,2053 C3143,2054 3156,2046 3145,2047 L3135,2048 3135,2048 L3135,2057 C3135,2066 3130,2057 3128,2063 C3127,2070 3135,2061 3135,2070 L3135,2080 3135,2080 L3144,2080 C3154,2080 3144,2075 3151,2073 C3158,2072 3148,2080 3158,2080 L3168,2080 3168,2080 L3167,2070 C3166,2061 3174,2071 3173,2064 C3172,2057 3168,2069 3168,2058 L3168,2048"/></g><clipPath id="c" clipRule="evenodd" fill="transparent"><use href="#t8415"/></clipPath></defs><svg viewBox="3126 2045 49 36" preserveAspectRatio="xMinYMin meet"><svg width="4380" height="2430"><g><image crossorigin="anonymous" x="0" y="0" href="https://nftpuzzle.license-token.com/assets/completepuzzle.svg" width="100%" height="100%" /><g class="links"><use href="#t8415"/></g></g></svg><svg x="3160" y="2066" height="9%" width="9%" viewBox="0 0 330 330"><g><a xlink:href="https://nftpuzzle.license-token.com/" class="links"><title>See the most innovative NFT based token software licensing project</title><path fill="#E4CF37" id="more" d="M165,0C74.019,0,0,74.019,0,165s74.019,165,165,165s165-74.019,165-165S255.981,0,165,0z M85,190 c-13.785,0-25-11.215-25-25s11.215-25,25-25s25,11.215,25,25S98.785,190,85,190z M165,190c-13.785,0-25-11.215-25-25 s11.215-25,25-25s25,11.215,25,25S178.785,190,165,190z M245,190c-13.785,0-25-11.215-25-25s11.215-25,25-25 c13.785,0,25,11.215,25,25S258.785,190,245,190z"></path></a></g></svg></svg></svg>