<svg version="1.1" xmlns="http://www.w3.org/2000/svg" xmlns:xlink="http://www.w3.org/1999/xlink" fill="transparent" x="0" y="0" width="350" height="350" preserveAspectRatio="xMinYMin slice"><style type="text/css">.links{fill:transparent;stroke: #E4CF37;}.links:hover{fill:#63D272; opacity:0.4;}</style><defs><g id="allt"><path id="t8418" d="M3267,2048 L3256,2048 C3245,2049 3260,2040 3249,2039 C3238,2039 3252,2052 3243,2050 L3234,2048 3234,2048 L3231,2058 C3229,2069 3245,2055 3242,2063 C3240,2072 3234,2058 3234,2069 L3234,2080 3234,2080 L3245,2077 C3256,2075 3241,2091 3249,2088 C3258,2086 3245,2080 3256,2080 L3267,2080 3267,2080 L3267,2071 C3267,2062 3261,2071 3262,2062 C3263,2053 3271,2065 3269,2056 L3267,2048"/></g><clipPath id="c" clipRule="evenodd" fill="transparent"><use href="#t8418"/></clipPath></defs><svg viewBox="3228 2038 44 54" preserveAspectRatio="xMinYMin meet"><svg width="4380" height="2430"><g><image crossorigin="anonymous" x="0" y="0" href="https://nftpuzzle.license-token.com/assets/completepuzzle.svg" width="100%" height="100%" /><g class="links"><use href="#t8418"/></g></g></svg><svg x="3257" y="2077" height="9%" width="9%" viewBox="0 0 330 330"><g><a xlink:href="https://nftpuzzle.license-token.com/" class="links"><title>See the most innovative NFT based token software licensing project</title><path fill="#E4CF37" id="more" d="M165,0C74.019,0,0,74.019,0,165s74.019,165,165,165s165-74.019,165-165S255.981,0,165,0z M85,190 c-13.785,0-25-11.215-25-25s11.215-25,25-25s25,11.215,25,25S98.785,190,85,190z M165,190c-13.785,0-25-11.215-25-25 s11.215-25,25-25s25,11.215,25,25S178.785,190,165,190z M245,190c-13.785,0-25-11.215-25-25s11.215-25,25-25 c13.785,0,25,11.215,25,25S258.785,190,245,190z"></path></a></g></svg></svg></svg>