<svg version="1.1" xmlns="http://www.w3.org/2000/svg" xmlns:xlink="http://www.w3.org/1999/xlink" fill="transparent" x="0" y="0" width="350" height="350" preserveAspectRatio="xMinYMin slice"><style type="text/css">.links{fill:transparent;stroke: #E4CF37;}.links:hover{fill:#63D272; opacity:0.4;}</style><defs><g id="allt"><path id="t8419" d="M3300,2048 L3290,2048 C3280,2049 3293,2043 3284,2043 C3276,2044 3285,2049 3276,2048 L3267,2048 3267,2048 L3269,2056 C3271,2065 3263,2053 3262,2062 C3261,2071 3267,2062 3267,2071 L3267,2080 3267,2080 L3276,2082 C3285,2084 3272,2076 3281,2075 C3290,2074 3281,2080 3290,2080 L3300,2080 3300,2080 L3301,2070 C3302,2061 3297,2072 3296,2062 C3296,2053 3300,2066 3300,2057 L3300,2048"/></g><clipPath id="c" clipRule="evenodd" fill="transparent"><use href="#t8419"/></clipPath></defs><svg viewBox="3260 2042 43 43" preserveAspectRatio="xMinYMin meet"><svg width="4380" height="2430"><g><image crossorigin="anonymous" x="0" y="0" href="https://nftpuzzle.license-token.com/assets/completepuzzle.svg" width="100%" height="100%" /><g class="links"><use href="#t8419"/></g></g></svg><svg x="3288" y="2070" height="9%" width="9%" viewBox="0 0 330 330"><g><a xlink:href="https://nftpuzzle.license-token.com/" class="links"><title>See the most innovative NFT based token software licensing project</title><path fill="#E4CF37" id="more" d="M165,0C74.019,0,0,74.019,0,165s74.019,165,165,165s165-74.019,165-165S255.981,0,165,0z M85,190 c-13.785,0-25-11.215-25-25s11.215-25,25-25s25,11.215,25,25S98.785,190,85,190z M165,190c-13.785,0-25-11.215-25-25 s11.215-25,25-25s25,11.215,25,25S178.785,190,165,190z M245,190c-13.785,0-25-11.215-25-25s11.215-25,25-25 c13.785,0,25,11.215,25,25S258.785,190,245,190z"></path></a></g></svg></svg></svg>