<svg version="1.1" xmlns="http://www.w3.org/2000/svg" xmlns:xlink="http://www.w3.org/1999/xlink" fill="transparent" x="0" y="0" width="350" height="350" preserveAspectRatio="xMinYMin slice"><style type="text/css">.links{fill:transparent;stroke: #E4CF37;}.links:hover{fill:#63D272; opacity:0.4;}</style><defs><g id="allt"><path id="t8420" d="M3333,2048 L3322,2049 C3311,2050 3323,2045 3314,2044 C3305,2044 3320,2049 3310,2048 L3300,2048 3300,2048 L3300,2057 C3300,2066 3296,2053 3296,2062 C3297,2072 3302,2061 3301,2070 L3300,2080 3300,2080 L3309,2080 C3318,2080 3305,2076 3315,2076 C3325,2077 3314,2082 3323,2081 L3333,2080 3333,2080 L3332,2070 C3331,2061 3338,2072 3337,2064 C3337,2057 3333,2068 3333,2058 L3333,2048"/></g><clipPath id="c" clipRule="evenodd" fill="transparent"><use href="#t8420"/></clipPath></defs><svg viewBox="3295 2043 44 40" preserveAspectRatio="xMinYMin meet"><svg width="4380" height="2430"><g><image crossorigin="anonymous" x="0" y="0" href="https://nftpuzzle.license-token.com/assets/completepuzzle.svg" width="100%" height="100%" /><g class="links"><use href="#t8420"/></g></g></svg><svg x="3324" y="2068" height="9%" width="9%" viewBox="0 0 330 330"><g><a xlink:href="https://nftpuzzle.license-token.com/" class="links"><title>See the most innovative NFT based token software licensing project</title><path fill="#E4CF37" id="more" d="M165,0C74.019,0,0,74.019,0,165s74.019,165,165,165s165-74.019,165-165S255.981,0,165,0z M85,190 c-13.785,0-25-11.215-25-25s11.215-25,25-25s25,11.215,25,25S98.785,190,85,190z M165,190c-13.785,0-25-11.215-25-25 s11.215-25,25-25s25,11.215,25,25S178.785,190,165,190z M245,190c-13.785,0-25-11.215-25-25s11.215-25,25-25 c13.785,0,25,11.215,25,25S258.785,190,245,190z"></path></a></g></svg></svg></svg>