<svg version="1.1" xmlns="http://www.w3.org/2000/svg" xmlns:xlink="http://www.w3.org/1999/xlink" fill="transparent" x="0" y="0" width="350" height="350" preserveAspectRatio="xMinYMin slice"><style type="text/css">.links{fill:transparent;stroke: #E4CF37;}.links:hover{fill:#63D272; opacity:0.4;}</style><defs><g id="allt"><path id="t8421" d="M3366,2048 L3355,2050 C3345,2053 3358,2042 3348,2038 C3338,2035 3354,2048 3343,2048 L3333,2048 3333,2048 L3333,2058 C3333,2068 3337,2057 3337,2064 C3338,2072 3331,2061 3332,2070 L3333,2080 3333,2080 L3343,2080 C3354,2080 3342,2084 3350,2084 C3358,2085 3346,2078 3356,2079 L3366,2080 3366,2080 L3366,2070 C3366,2060 3372,2073 3370,2064 C3369,2055 3365,2065 3365,2056 L3366,2048"/></g><clipPath id="c" clipRule="evenodd" fill="transparent"><use href="#t8421"/></clipPath></defs><svg viewBox="3330 2034 43 52" preserveAspectRatio="xMinYMin meet"><svg width="4380" height="2430"><g><image crossorigin="anonymous" x="0" y="0" href="https://nftpuzzle.license-token.com/assets/completepuzzle.svg" width="100%" height="100%" /><g class="links"><use href="#t8421"/></g></g></svg><svg x="3358" y="2071" height="9%" width="9%" viewBox="0 0 330 330"><g><a xlink:href="https://nftpuzzle.license-token.com/" class="links"><title>See the most innovative NFT based token software licensing project</title><path fill="#E4CF37" id="more" d="M165,0C74.019,0,0,74.019,0,165s74.019,165,165,165s165-74.019,165-165S255.981,0,165,0z M85,190 c-13.785,0-25-11.215-25-25s11.215-25,25-25s25,11.215,25,25S98.785,190,85,190z M165,190c-13.785,0-25-11.215-25-25 s11.215-25,25-25s25,11.215,25,25S178.785,190,165,190z M245,190c-13.785,0-25-11.215-25-25s11.215-25,25-25 c13.785,0,25,11.215,25,25S258.785,190,245,190z"></path></a></g></svg></svg></svg>