<svg version="1.1" xmlns="http://www.w3.org/2000/svg" xmlns:xlink="http://www.w3.org/1999/xlink" fill="transparent" x="0" y="0" width="350" height="350" preserveAspectRatio="xMinYMin slice"><style type="text/css">.links{fill:transparent;stroke: #E4CF37;}.links:hover{fill:#63D272; opacity:0.4;}</style><defs><g id="allt"><path id="t8422" d="M3399,2048 L3389,2048 C3380,2048 3393,2045 3382,2045 C3371,2045 3386,2050 3376,2049 L3366,2048 3366,2048 L3365,2056 C3365,2065 3369,2055 3370,2064 C3372,2073 3366,2060 3366,2070 L3366,2080 3366,2080 L3375,2079 C3384,2079 3373,2083 3382,2084 C3392,2086 3379,2080 3389,2080 L3399,2080 3399,2080 L3397,2070 C3396,2060 3409,2074 3410,2064 C3411,2054 3394,2067 3396,2057 L3399,2048"/></g><clipPath id="c" clipRule="evenodd" fill="transparent"><use href="#t8422"/></clipPath></defs><svg viewBox="3364 2044 48 43" preserveAspectRatio="xMinYMin meet"><svg width="4380" height="2430"><g><image crossorigin="anonymous" x="0" y="0" href="https://nftpuzzle.license-token.com/assets/completepuzzle.svg" width="100%" height="100%" /><g class="links"><use href="#t8422"/></g></g></svg><svg x="3397" y="2072" height="9%" width="9%" viewBox="0 0 330 330"><g><a xlink:href="https://nftpuzzle.license-token.com/" class="links"><title>See the most innovative NFT based token software licensing project</title><path fill="#E4CF37" id="more" d="M165,0C74.019,0,0,74.019,0,165s74.019,165,165,165s165-74.019,165-165S255.981,0,165,0z M85,190 c-13.785,0-25-11.215-25-25s11.215-25,25-25s25,11.215,25,25S98.785,190,85,190z M165,190c-13.785,0-25-11.215-25-25 s11.215-25,25-25s25,11.215,25,25S178.785,190,165,190z M245,190c-13.785,0-25-11.215-25-25s11.215-25,25-25 c13.785,0,25,11.215,25,25S258.785,190,245,190z"></path></a></g></svg></svg></svg>