<svg version="1.1" xmlns="http://www.w3.org/2000/svg" xmlns:xlink="http://www.w3.org/1999/xlink" fill="transparent" x="0" y="0" width="350" height="350" preserveAspectRatio="xMinYMin slice"><style type="text/css">.links{fill:transparent;stroke: #E4CF37;}.links:hover{fill:#63D272; opacity:0.4;}</style><defs><g id="allt"><path id="t8424" d="M3465,2048 L3455,2048 C3446,2048 3456,2038 3448,2040 C3440,2042 3452,2051 3442,2049 L3432,2048 3432,2048 L3431,2057 C3431,2067 3438,2056 3439,2064 C3441,2072 3432,2060 3432,2070 L3432,2080 3432,2080 L3441,2079 C3451,2079 3440,2086 3448,2087 C3457,2088 3444,2080 3454,2080 L3465,2080 3465,2080 L3465,2069 C3465,2059 3470,2073 3469,2063 C3468,2053 3465,2065 3465,2056 L3465,2048"/></g><clipPath id="c" clipRule="evenodd" fill="transparent"><use href="#t8424"/></clipPath></defs><svg viewBox="3430 2037 41 52" preserveAspectRatio="xMinYMin meet"><svg width="4380" height="2430"><g><image crossorigin="anonymous" x="0" y="0" href="https://nftpuzzle.license-token.com/assets/completepuzzle.svg" width="100%" height="100%" /><g class="links"><use href="#t8424"/></g></g></svg><svg x="3456" y="2074" height="9%" width="9%" viewBox="0 0 330 330"><g><a xlink:href="https://nftpuzzle.license-token.com/" class="links"><title>See the most innovative NFT based token software licensing project</title><path fill="#E4CF37" id="more" d="M165,0C74.019,0,0,74.019,0,165s74.019,165,165,165s165-74.019,165-165S255.981,0,165,0z M85,190 c-13.785,0-25-11.215-25-25s11.215-25,25-25s25,11.215,25,25S98.785,190,85,190z M165,190c-13.785,0-25-11.215-25-25 s11.215-25,25-25s25,11.215,25,25S178.785,190,165,190z M245,190c-13.785,0-25-11.215-25-25s11.215-25,25-25 c13.785,0,25,11.215,25,25S258.785,190,245,190z"></path></a></g></svg></svg></svg>