<svg version="1.1" xmlns="http://www.w3.org/2000/svg" xmlns:xlink="http://www.w3.org/1999/xlink" fill="transparent" x="0" y="0" width="350" height="350" preserveAspectRatio="xMinYMin slice"><style type="text/css">.links{fill:transparent;stroke: #E4CF37;}.links:hover{fill:#63D272; opacity:0.4;}</style><defs><g id="allt"><path id="t843" d="M2112,192 L2100,192 C2089,193 2107,188 2096,187 C2086,187 2098,194 2088,193 L2079,192 2079,192 L2079,201 C2080,211 2074,198 2072,206 C2071,214 2078,205 2078,214 L2079,224 2079,224 L2089,224 C2099,225 2085,219 2093,217 C2102,216 2093,223 2102,223 L2112,224 2112,224 L2111,213 C2111,203 2119,219 2117,210 C2115,201 2111,209 2111,200 L2112,192"/></g><clipPath id="c" clipRule="evenodd" fill="transparent"><use href="#t843"/></clipPath></defs><svg viewBox="2070 186 50 40" preserveAspectRatio="xMinYMin meet"><svg width="4380" height="2430"><g><image crossorigin="anonymous" x="0" y="0" href="https://nftpuzzle.license-token.com/assets/completepuzzle.svg" width="100%" height="100%" /><g class="links"><use href="#t843"/></g></g></svg><svg x="2105" y="211" height="9%" width="9%" viewBox="0 0 330 330"><g><a xlink:href="https://nftpuzzle.license-token.com/" class="links"><title>See the most innovative NFT based token software licensing project</title><path fill="#E4CF37" id="more" d="M165,0C74.019,0,0,74.019,0,165s74.019,165,165,165s165-74.019,165-165S255.981,0,165,0z M85,190 c-13.785,0-25-11.215-25-25s11.215-25,25-25s25,11.215,25,25S98.785,190,85,190z M165,190c-13.785,0-25-11.215-25-25 s11.215-25,25-25s25,11.215,25,25S178.785,190,165,190z M245,190c-13.785,0-25-11.215-25-25s11.215-25,25-25 c13.785,0,25,11.215,25,25S258.785,190,245,190z"></path></a></g></svg></svg></svg>