<svg version="1.1" xmlns="http://www.w3.org/2000/svg" xmlns:xlink="http://www.w3.org/1999/xlink" fill="transparent" x="0" y="0" width="350" height="350" preserveAspectRatio="xMinYMin slice"><style type="text/css">.links{fill:transparent;stroke: #E4CF37;}.links:hover{fill:#63D272; opacity:0.4;}</style><defs><g id="allt"><path id="t8435" d="M3828,2048 L3817,2048 C3807,2048 3820,2054 3812,2055 C3804,2056 3815,2044 3805,2046 L3795,2048 3795,2048 L3794,2057 C3794,2067 3797,2054 3797,2062 C3797,2071 3795,2062 3795,2071 L3795,2080 3795,2080 L3804,2079 C3814,2079 3801,2082 3810,2082 C3819,2082 3809,2080 3818,2080 L3828,2080 3828,2080 L3828,2071 C3828,2062 3832,2074 3832,2064 C3832,2055 3828,2067 3828,2057 L3828,2048"/></g><clipPath id="c" clipRule="evenodd" fill="transparent"><use href="#t8435"/></clipPath></defs><svg viewBox="3793 2043 40 40" preserveAspectRatio="xMinYMin meet"><svg width="4380" height="2430"><g><image crossorigin="anonymous" x="0" y="0" href="https://nftpuzzle.license-token.com/assets/completepuzzle.svg" width="100%" height="100%" /><g class="links"><use href="#t8435"/></g></g></svg><svg x="3818" y="2068" height="9%" width="9%" viewBox="0 0 330 330"><g><a xlink:href="https://nftpuzzle.license-token.com/" class="links"><title>See the most innovative NFT based token software licensing project</title><path fill="#E4CF37" id="more" d="M165,0C74.019,0,0,74.019,0,165s74.019,165,165,165s165-74.019,165-165S255.981,0,165,0z M85,190 c-13.785,0-25-11.215-25-25s11.215-25,25-25s25,11.215,25,25S98.785,190,85,190z M165,190c-13.785,0-25-11.215-25-25 s11.215-25,25-25s25,11.215,25,25S178.785,190,165,190z M245,190c-13.785,0-25-11.215-25-25s11.215-25,25-25 c13.785,0,25,11.215,25,25S258.785,190,245,190z"></path></a></g></svg></svg></svg>