<svg version="1.1" xmlns="http://www.w3.org/2000/svg" xmlns:xlink="http://www.w3.org/1999/xlink" fill="transparent" x="0" y="0" width="350" height="350" preserveAspectRatio="xMinYMin slice"><style type="text/css">.links{fill:transparent;stroke: #E4CF37;}.links:hover{fill:#63D272; opacity:0.4;}</style><defs><g id="allt"><path id="t8437" d="M3894,2048 L3884,2048 C3875,2048 3884,2052 3875,2051 C3867,2050 3882,2048 3871,2048 L3861,2048 3861,2048 L3863,2057 C3865,2067 3855,2054 3854,2064 C3854,2074 3861,2060 3861,2070 L3861,2080 3861,2080 L3871,2082 C3881,2084 3867,2074 3877,2073 C3888,2073 3873,2080 3883,2080 L3894,2080 3894,2080 L3894,2070 C3894,2060 3899,2073 3901,2063 C3903,2054 3891,2067 3892,2057 L3894,2048"/></g><clipPath id="c" clipRule="evenodd" fill="transparent"><use href="#t8437"/></clipPath></defs><svg viewBox="3853 2047 51 38" preserveAspectRatio="xMinYMin meet"><svg width="4380" height="2430"><g><image crossorigin="anonymous" x="0" y="0" href="https://nftpuzzle.license-token.com/assets/completepuzzle.svg" width="100%" height="100%" /><g class="links"><use href="#t8437"/></g></g></svg><svg x="3889" y="2070" height="9%" width="9%" viewBox="0 0 330 330"><g><a xlink:href="https://nftpuzzle.license-token.com/" class="links"><title>See the most innovative NFT based token software licensing project</title><path fill="#E4CF37" id="more" d="M165,0C74.019,0,0,74.019,0,165s74.019,165,165,165s165-74.019,165-165S255.981,0,165,0z M85,190 c-13.785,0-25-11.215-25-25s11.215-25,25-25s25,11.215,25,25S98.785,190,85,190z M165,190c-13.785,0-25-11.215-25-25 s11.215-25,25-25s25,11.215,25,25S178.785,190,165,190z M245,190c-13.785,0-25-11.215-25-25s11.215-25,25-25 c13.785,0,25,11.215,25,25S258.785,190,245,190z"></path></a></g></svg></svg></svg>