<svg version="1.1" xmlns="http://www.w3.org/2000/svg" xmlns:xlink="http://www.w3.org/1999/xlink" fill="transparent" x="0" y="0" width="350" height="350" preserveAspectRatio="xMinYMin slice"><style type="text/css">.links{fill:transparent;stroke: #E4CF37;}.links:hover{fill:#63D272; opacity:0.4;}</style><defs><g id="allt"><path id="t844" d="M2145,192 L2134,193 C2123,194 2137,186 2127,186 C2118,187 2133,194 2122,193 L2112,192 2112,192 L2111,200 C2111,209 2115,201 2117,210 C2119,219 2111,203 2111,213 L2112,224 2112,224 L2121,223 C2130,223 2121,227 2130,229 C2140,231 2123,223 2134,223 L2145,224 2145,224 L2145,214 C2145,204 2136,214 2137,207 C2138,200 2145,210 2145,201 L2145,192"/></g><clipPath id="c" clipRule="evenodd" fill="transparent"><use href="#t844"/></clipPath></defs><svg viewBox="2110 185 36 47" preserveAspectRatio="xMinYMin meet"><svg width="4380" height="2430"><g><image crossorigin="anonymous" x="0" y="0" href="https://nftpuzzle.license-token.com/assets/completepuzzle.svg" width="100%" height="100%" /><g class="links"><use href="#t844"/></g></g></svg><svg x="2131" y="217" height="9%" width="9%" viewBox="0 0 330 330"><g><a xlink:href="https://nftpuzzle.license-token.com/" class="links"><title>See the most innovative NFT based token software licensing project</title><path fill="#E4CF37" id="more" d="M165,0C74.019,0,0,74.019,0,165s74.019,165,165,165s165-74.019,165-165S255.981,0,165,0z M85,190 c-13.785,0-25-11.215-25-25s11.215-25,25-25s25,11.215,25,25S98.785,190,85,190z M165,190c-13.785,0-25-11.215-25-25 s11.215-25,25-25s25,11.215,25,25S178.785,190,165,190z M245,190c-13.785,0-25-11.215-25-25s11.215-25,25-25 c13.785,0,25,11.215,25,25S258.785,190,245,190z"></path></a></g></svg></svg></svg>