<svg version="1.1" xmlns="http://www.w3.org/2000/svg" xmlns:xlink="http://www.w3.org/1999/xlink" fill="transparent" x="0" y="0" width="350" height="350" preserveAspectRatio="xMinYMin slice"><style type="text/css">.links{fill:transparent;stroke: #E4CF37;}.links:hover{fill:#63D272; opacity:0.4;}</style><defs><g id="allt"><path id="t8443" d="M4092,2048 L4081,2048 C4070,2048 4083,2041 4074,2041 C4065,2041 4079,2048 4069,2048 L4059,2048 4059,2048 L4058,2057 C4058,2067 4062,2052 4062,2063 C4062,2075 4056,2059 4057,2069 L4059,2080 4059,2080 L4069,2079 C4079,2079 4063,2083 4075,2083 C4087,2083 4070,2077 4081,2078 L4092,2080 4092,2080 L4093,2069 C4094,2058 4089,2073 4088,2062 C4087,2052 4092,2066 4092,2057 L4092,2048"/></g><clipPath id="c" clipRule="evenodd" fill="transparent"><use href="#t8443"/></clipPath></defs><svg viewBox="4055 2040 40 44" preserveAspectRatio="xMinYMin meet"><svg width="4380" height="2430"><g><image crossorigin="anonymous" x="0" y="0" href="https://nftpuzzle.license-token.com/assets/completepuzzle.svg" width="100%" height="100%" /><g class="links"><use href="#t8443"/></g></g></svg><svg x="4080" y="2069" height="9%" width="9%" viewBox="0 0 330 330"><g><a xlink:href="https://nftpuzzle.license-token.com/" class="links"><title>See the most innovative NFT based token software licensing project</title><path fill="#E4CF37" id="more" d="M165,0C74.019,0,0,74.019,0,165s74.019,165,165,165s165-74.019,165-165S255.981,0,165,0z M85,190 c-13.785,0-25-11.215-25-25s11.215-25,25-25s25,11.215,25,25S98.785,190,85,190z M165,190c-13.785,0-25-11.215-25-25 s11.215-25,25-25s25,11.215,25,25S178.785,190,165,190z M245,190c-13.785,0-25-11.215-25-25s11.215-25,25-25 c13.785,0,25,11.215,25,25S258.785,190,245,190z"></path></a></g></svg></svg></svg>