<svg version="1.1" xmlns="http://www.w3.org/2000/svg" xmlns:xlink="http://www.w3.org/1999/xlink" fill="transparent" x="0" y="0" width="350" height="350" preserveAspectRatio="xMinYMin slice"><style type="text/css">.links{fill:transparent;stroke: #E4CF37;}.links:hover{fill:#63D272; opacity:0.4;}</style><defs><g id="allt"><path id="t8444" d="M4125,2048 L4115,2047 C4106,2047 4115,2051 4108,2052 C4101,2054 4110,2046 4101,2047 L4092,2048 4092,2048 L4092,2057 C4092,2066 4087,2052 4088,2062 C4089,2073 4094,2058 4093,2069 L4092,2080 4092,2080 L4101,2080 C4110,2080 4096,2075 4107,2076 C4118,2077 4102,2082 4113,2081 L4125,2080 4125,2080 L4125,2069 C4125,2059 4136,2071 4134,2064 C4133,2057 4124,2066 4124,2057 L4125,2048"/></g><clipPath id="c" clipRule="evenodd" fill="transparent"><use href="#t8444"/></clipPath></defs><svg viewBox="4086 2045 51 38" preserveAspectRatio="xMinYMin meet"><svg width="4380" height="2430"><g><image crossorigin="anonymous" x="0" y="0" href="https://nftpuzzle.license-token.com/assets/completepuzzle.svg" width="100%" height="100%" /><g class="links"><use href="#t8444"/></g></g></svg><svg x="4122" y="2068" height="9%" width="9%" viewBox="0 0 330 330"><g><a xlink:href="https://nftpuzzle.license-token.com/" class="links"><title>See the most innovative NFT based token software licensing project</title><path fill="#E4CF37" id="more" d="M165,0C74.019,0,0,74.019,0,165s74.019,165,165,165s165-74.019,165-165S255.981,0,165,0z M85,190 c-13.785,0-25-11.215-25-25s11.215-25,25-25s25,11.215,25,25S98.785,190,85,190z M165,190c-13.785,0-25-11.215-25-25 s11.215-25,25-25s25,11.215,25,25S178.785,190,165,190z M245,190c-13.785,0-25-11.215-25-25s11.215-25,25-25 c13.785,0,25,11.215,25,25S258.785,190,245,190z"></path></a></g></svg></svg></svg>