<svg version="1.1" xmlns="http://www.w3.org/2000/svg" xmlns:xlink="http://www.w3.org/1999/xlink" fill="transparent" x="0" y="0" width="350" height="350" preserveAspectRatio="xMinYMin slice"><style type="text/css">.links{fill:transparent;stroke: #E4CF37;}.links:hover{fill:#63D272; opacity:0.4;}</style><defs><g id="allt"><path id="t8446" d="M4191,2048 L4180,2047 C4170,2047 4183,2054 4175,2054 C4167,2054 4176,2048 4167,2048 L4158,2048 4158,2048 L4158,2057 C4158,2067 4155,2053 4154,2062 C4154,2071 4158,2061 4158,2070 L4158,2080 4158,2080 L4168,2080 C4178,2080 4163,2077 4172,2076 C4182,2076 4171,2080 4181,2080 L4191,2080 4191,2080 L4191,2069 C4191,2058 4197,2072 4196,2063 C4195,2055 4188,2065 4189,2056 L4191,2048"/></g><clipPath id="c" clipRule="evenodd" fill="transparent"><use href="#t8446"/></clipPath></defs><svg viewBox="4153 2046 45 35" preserveAspectRatio="xMinYMin meet"><svg width="4380" height="2430"><g><image crossorigin="anonymous" x="0" y="0" href="https://nftpuzzle.license-token.com/assets/completepuzzle.svg" width="100%" height="100%" /><g class="links"><use href="#t8446"/></g></g></svg><svg x="4183" y="2066" height="9%" width="9%" viewBox="0 0 330 330"><g><a xlink:href="https://nftpuzzle.license-token.com/" class="links"><title>See the most innovative NFT based token software licensing project</title><path fill="#E4CF37" id="more" d="M165,0C74.019,0,0,74.019,0,165s74.019,165,165,165s165-74.019,165-165S255.981,0,165,0z M85,190 c-13.785,0-25-11.215-25-25s11.215-25,25-25s25,11.215,25,25S98.785,190,85,190z M165,190c-13.785,0-25-11.215-25-25 s11.215-25,25-25s25,11.215,25,25S178.785,190,165,190z M245,190c-13.785,0-25-11.215-25-25s11.215-25,25-25 c13.785,0,25,11.215,25,25S258.785,190,245,190z"></path></a></g></svg></svg></svg>