<svg version="1.1" xmlns="http://www.w3.org/2000/svg" xmlns:xlink="http://www.w3.org/1999/xlink" fill="transparent" x="0" y="0" width="350" height="350" preserveAspectRatio="xMinYMin slice"><style type="text/css">.links{fill:transparent;stroke: #E4CF37;}.links:hover{fill:#63D272; opacity:0.4;}</style><defs><g id="allt"><path id="t8448" d="M4257,2048 L4245,2049 C4234,2050 4247,2046 4239,2045 C4231,2044 4243,2049 4233,2048 L4224,2048 4224,2048 L4227,2056 C4230,2065 4211,2056 4211,2064 C4211,2073 4228,2059 4226,2069 L4224,2080 4224,2080 L4233,2083 C4242,2086 4232,2067 4241,2067 C4250,2067 4235,2084 4246,2082 L4257,2080 4257,2080 L4257,2070 C4257,2060 4250,2071 4250,2061 C4251,2052 4261,2068 4259,2058 L4257,2048"/></g><clipPath id="c" clipRule="evenodd" fill="transparent"><use href="#t8448"/></clipPath></defs><svg viewBox="4210 2043 52 44" preserveAspectRatio="xMinYMin meet"><svg width="4380" height="2430"><g><image crossorigin="anonymous" x="0" y="0" href="https://nftpuzzle.license-token.com/assets/completepuzzle.svg" width="100%" height="100%" /><g class="links"><use href="#t8448"/></g></g></svg><svg x="4247" y="2072" height="9%" width="9%" viewBox="0 0 330 330"><g><a xlink:href="https://nftpuzzle.license-token.com/" class="links"><title>See the most innovative NFT based token software licensing project</title><path fill="#E4CF37" id="more" d="M165,0C74.019,0,0,74.019,0,165s74.019,165,165,165s165-74.019,165-165S255.981,0,165,0z M85,190 c-13.785,0-25-11.215-25-25s11.215-25,25-25s25,11.215,25,25S98.785,190,85,190z M165,190c-13.785,0-25-11.215-25-25 s11.215-25,25-25s25,11.215,25,25S178.785,190,165,190z M245,190c-13.785,0-25-11.215-25-25s11.215-25,25-25 c13.785,0,25,11.215,25,25S258.785,190,245,190z"></path></a></g></svg></svg></svg>