<svg version="1.1" xmlns="http://www.w3.org/2000/svg" xmlns:xlink="http://www.w3.org/1999/xlink" fill="transparent" x="0" y="0" width="350" height="350" preserveAspectRatio="xMinYMin slice"><style type="text/css">.links{fill:transparent;stroke: #E4CF37;}.links:hover{fill:#63D272; opacity:0.4;}</style><defs><g id="allt"><path id="t8452" d="M99,2080 L89,2080 C79,2080 93,2088 83,2087 C73,2087 87,2077 76,2078 L66,2080 66,2080 L67,2089 C68,2098 59,2085 59,2095 C60,2105 70,2093 68,2102 L66,2112 66,2112 L75,2113 C85,2114 71,2105 81,2105 C92,2106 79,2116 89,2114 L99,2112 99,2112 L101,2101 C104,2090 85,2103 88,2096 C91,2089 105,2097 102,2088 L99,2080"/></g><clipPath id="c" clipRule="evenodd" fill="transparent"><use href="#t8452"/></clipPath></defs><svg viewBox="58 2076 48 41" preserveAspectRatio="xMinYMin meet"><svg width="4380" height="2430"><g><image crossorigin="anonymous" x="0" y="0" href="https://nftpuzzle.license-token.com/assets/completepuzzle.svg" width="100%" height="100%" /><g class="links"><use href="#t8452"/></g></g></svg><svg x="91" y="2102" height="9%" width="9%" viewBox="0 0 330 330"><g><a xlink:href="https://nftpuzzle.license-token.com/" class="links"><title>See the most innovative NFT based token software licensing project</title><path fill="#E4CF37" id="more" d="M165,0C74.019,0,0,74.019,0,165s74.019,165,165,165s165-74.019,165-165S255.981,0,165,0z M85,190 c-13.785,0-25-11.215-25-25s11.215-25,25-25s25,11.215,25,25S98.785,190,85,190z M165,190c-13.785,0-25-11.215-25-25 s11.215-25,25-25s25,11.215,25,25S178.785,190,165,190z M245,190c-13.785,0-25-11.215-25-25s11.215-25,25-25 c13.785,0,25,11.215,25,25S258.785,190,245,190z"></path></a></g></svg></svg></svg>