<svg version="1.1" xmlns="http://www.w3.org/2000/svg" xmlns:xlink="http://www.w3.org/1999/xlink" fill="transparent" x="0" y="0" width="350" height="350" preserveAspectRatio="xMinYMin slice"><style type="text/css">.links{fill:transparent;stroke: #E4CF37;}.links:hover{fill:#63D272; opacity:0.4;}</style><defs><g id="allt"><path id="t8461" d="M396,2080 L386,2080 C377,2080 389,2075 380,2076 C372,2077 385,2080 374,2080 L363,2080 363,2080 L361,2090 C360,2100 372,2087 370,2095 C368,2104 363,2090 363,2101 L363,2112 363,2112 L373,2110 C383,2109 370,2121 379,2119 C388,2117 373,2112 384,2112 L396,2112 396,2112 L397,2102 C398,2093 386,2105 387,2094 C389,2084 396,2098 396,2089 L396,2080"/></g><clipPath id="c" clipRule="evenodd" fill="transparent"><use href="#t8461"/></clipPath></defs><svg viewBox="359 2074 40 48" preserveAspectRatio="xMinYMin meet"><svg width="4380" height="2430"><g><image crossorigin="anonymous" x="0" y="0" href="https://nftpuzzle.license-token.com/assets/completepuzzle.svg" width="100%" height="100%" /><g class="links"><use href="#t8461"/></g></g></svg><svg x="384" y="2107" height="9%" width="9%" viewBox="0 0 330 330"><g><a xlink:href="https://nftpuzzle.license-token.com/" class="links"><title>See the most innovative NFT based token software licensing project</title><path fill="#E4CF37" id="more" d="M165,0C74.019,0,0,74.019,0,165s74.019,165,165,165s165-74.019,165-165S255.981,0,165,0z M85,190 c-13.785,0-25-11.215-25-25s11.215-25,25-25s25,11.215,25,25S98.785,190,85,190z M165,190c-13.785,0-25-11.215-25-25 s11.215-25,25-25s25,11.215,25,25S178.785,190,165,190z M245,190c-13.785,0-25-11.215-25-25s11.215-25,25-25 c13.785,0,25,11.215,25,25S258.785,190,245,190z"></path></a></g></svg></svg></svg>