<svg version="1.1" xmlns="http://www.w3.org/2000/svg" xmlns:xlink="http://www.w3.org/1999/xlink" fill="transparent" x="0" y="0" width="350" height="350" preserveAspectRatio="xMinYMin slice"><style type="text/css">.links{fill:transparent;stroke: #E4CF37;}.links:hover{fill:#63D272; opacity:0.4;}</style><defs><g id="allt"><path id="t8462" d="M429,2080 L418,2080 C408,2081 423,2074 412,2074 C402,2075 417,2083 406,2081 L396,2080 396,2080 L396,2089 C396,2098 389,2084 387,2094 C386,2105 398,2093 397,2102 L396,2112 396,2112 L405,2112 C414,2112 400,2105 411,2104 C422,2103 409,2114 419,2113 L429,2112 429,2112 L429,2101 C429,2091 419,2105 420,2096 C421,2087 430,2100 429,2090 L429,2080"/></g><clipPath id="c" clipRule="evenodd" fill="transparent"><use href="#t8462"/></clipPath></defs><svg viewBox="385 2073 46 42" preserveAspectRatio="xMinYMin meet"><svg width="4380" height="2430"><g><image crossorigin="anonymous" x="0" y="0" href="https://nftpuzzle.license-token.com/assets/completepuzzle.svg" width="100%" height="100%" /><g class="links"><use href="#t8462"/></g></g></svg><svg x="416" y="2100" height="9%" width="9%" viewBox="0 0 330 330"><g><a xlink:href="https://nftpuzzle.license-token.com/" class="links"><title>See the most innovative NFT based token software licensing project</title><path fill="#E4CF37" id="more" d="M165,0C74.019,0,0,74.019,0,165s74.019,165,165,165s165-74.019,165-165S255.981,0,165,0z M85,190 c-13.785,0-25-11.215-25-25s11.215-25,25-25s25,11.215,25,25S98.785,190,85,190z M165,190c-13.785,0-25-11.215-25-25 s11.215-25,25-25s25,11.215,25,25S178.785,190,165,190z M245,190c-13.785,0-25-11.215-25-25s11.215-25,25-25 c13.785,0,25,11.215,25,25S258.785,190,245,190z"></path></a></g></svg></svg></svg>