<svg version="1.1" xmlns="http://www.w3.org/2000/svg" xmlns:xlink="http://www.w3.org/1999/xlink" fill="transparent" x="0" y="0" width="350" height="350" preserveAspectRatio="xMinYMin slice"><style type="text/css">.links{fill:transparent;stroke: #E4CF37;}.links:hover{fill:#63D272; opacity:0.4;}</style><defs><g id="allt"><path id="t8471" d="M726,2080 L716,2081 C707,2082 718,2072 708,2072 C698,2072 711,2080 702,2080 L693,2080 693,2080 L693,2090 C693,2100 704,2086 704,2095 C705,2105 689,2090 691,2101 L693,2112 693,2112 L703,2112 C714,2112 699,2123 709,2123 C719,2124 703,2108 714,2110 L726,2112 726,2112 L726,2102 C727,2093 718,2105 719,2097 C721,2089 726,2099 726,2089 L726,2080"/></g><clipPath id="c" clipRule="evenodd" fill="transparent"><use href="#t8471"/></clipPath></defs><svg viewBox="688 2071 40 54" preserveAspectRatio="xMinYMin meet"><svg width="4380" height="2430"><g><image crossorigin="anonymous" x="0" y="0" href="https://nftpuzzle.license-token.com/assets/completepuzzle.svg" width="100%" height="100%" /><g class="links"><use href="#t8471"/></g></g></svg><svg x="713" y="2110" height="9%" width="9%" viewBox="0 0 330 330"><g><a xlink:href="https://nftpuzzle.license-token.com/" class="links"><title>See the most innovative NFT based token software licensing project</title><path fill="#E4CF37" id="more" d="M165,0C74.019,0,0,74.019,0,165s74.019,165,165,165s165-74.019,165-165S255.981,0,165,0z M85,190 c-13.785,0-25-11.215-25-25s11.215-25,25-25s25,11.215,25,25S98.785,190,85,190z M165,190c-13.785,0-25-11.215-25-25 s11.215-25,25-25s25,11.215,25,25S178.785,190,165,190z M245,190c-13.785,0-25-11.215-25-25s11.215-25,25-25 c13.785,0,25,11.215,25,25S258.785,190,245,190z"></path></a></g></svg></svg></svg>