<svg version="1.1" xmlns="http://www.w3.org/2000/svg" xmlns:xlink="http://www.w3.org/1999/xlink" fill="transparent" x="0" y="0" width="350" height="350" preserveAspectRatio="xMinYMin slice"><style type="text/css">.links{fill:transparent;stroke: #E4CF37;}.links:hover{fill:#63D272; opacity:0.4;}</style><defs><g id="allt"><path id="t8473" d="M792,2080 L781,2081 C770,2082 785,2069 775,2071 C765,2073 777,2080 768,2080 L759,2080 759,2080 L758,2090 C757,2101 769,2087 768,2095 C768,2104 759,2093 759,2102 L759,2112 759,2112 L769,2111 C780,2110 766,2121 775,2121 C784,2121 772,2112 782,2112 L792,2112 792,2112 L791,2103 C790,2094 801,2103 801,2095 C801,2087 792,2099 792,2089 L792,2080"/></g><clipPath id="c" clipRule="evenodd" fill="transparent"><use href="#t8473"/></clipPath></defs><svg viewBox="756 2068 46 54" preserveAspectRatio="xMinYMin meet"><svg width="4380" height="2430"><g><image crossorigin="anonymous" x="0" y="0" href="https://nftpuzzle.license-token.com/assets/completepuzzle.svg" width="100%" height="100%" /><g class="links"><use href="#t8473"/></g></g></svg><svg x="787" y="2107" height="9%" width="9%" viewBox="0 0 330 330"><g><a xlink:href="https://nftpuzzle.license-token.com/" class="links"><title>See the most innovative NFT based token software licensing project</title><path fill="#E4CF37" id="more" d="M165,0C74.019,0,0,74.019,0,165s74.019,165,165,165s165-74.019,165-165S255.981,0,165,0z M85,190 c-13.785,0-25-11.215-25-25s11.215-25,25-25s25,11.215,25,25S98.785,190,85,190z M165,190c-13.785,0-25-11.215-25-25 s11.215-25,25-25s25,11.215,25,25S178.785,190,165,190z M245,190c-13.785,0-25-11.215-25-25s11.215-25,25-25 c13.785,0,25,11.215,25,25S258.785,190,245,190z"></path></a></g></svg></svg></svg>