<svg version="1.1" xmlns="http://www.w3.org/2000/svg" xmlns:xlink="http://www.w3.org/1999/xlink" fill="transparent" x="0" y="0" width="350" height="350" preserveAspectRatio="xMinYMin slice"><style type="text/css">.links{fill:transparent;stroke: #E4CF37;}.links:hover{fill:#63D272; opacity:0.4;}</style><defs><g id="allt"><path id="t8476" d="M891,2080 L881,2080 C872,2081 883,2078 873,2077 C864,2076 878,2081 868,2080 L858,2080 858,2080 L856,2090 C854,2101 863,2088 865,2095 C868,2103 858,2092 858,2102 L858,2112 858,2112 L868,2110 C879,2108 866,2117 873,2119 C881,2121 871,2112 881,2112 L891,2112 891,2112 L892,2103 C894,2094 884,2103 884,2093 C884,2084 891,2100 891,2090 L891,2080"/></g><clipPath id="c" clipRule="evenodd" fill="transparent"><use href="#t8476"/></clipPath></defs><svg viewBox="853 2075 42 47" preserveAspectRatio="xMinYMin meet"><svg width="4380" height="2430"><g><image crossorigin="anonymous" x="0" y="0" href="https://nftpuzzle.license-token.com/assets/completepuzzle.svg" width="100%" height="100%" /><g class="links"><use href="#t8476"/></g></g></svg><svg x="880" y="2107" height="9%" width="9%" viewBox="0 0 330 330"><g><a xlink:href="https://nftpuzzle.license-token.com/" class="links"><title>See the most innovative NFT based token software licensing project</title><path fill="#E4CF37" id="more" d="M165,0C74.019,0,0,74.019,0,165s74.019,165,165,165s165-74.019,165-165S255.981,0,165,0z M85,190 c-13.785,0-25-11.215-25-25s11.215-25,25-25s25,11.215,25,25S98.785,190,85,190z M165,190c-13.785,0-25-11.215-25-25 s11.215-25,25-25s25,11.215,25,25S178.785,190,165,190z M245,190c-13.785,0-25-11.215-25-25s11.215-25,25-25 c13.785,0,25,11.215,25,25S258.785,190,245,190z"></path></a></g></svg></svg></svg>