<svg version="1.1" xmlns="http://www.w3.org/2000/svg" xmlns:xlink="http://www.w3.org/1999/xlink" fill="transparent" x="0" y="0" width="350" height="350" preserveAspectRatio="xMinYMin slice"><style type="text/css">.links{fill:transparent;stroke: #E4CF37;}.links:hover{fill:#63D272; opacity:0.4;}</style><defs><g id="allt"><path id="t8477" d="M924,2080 L913,2080 C902,2080 914,2083 905,2084 C897,2086 911,2079 901,2079 L891,2080 891,2080 L891,2090 C891,2100 884,2084 884,2093 C884,2103 894,2094 892,2103 L891,2112 891,2112 L901,2112 C911,2112 895,2105 904,2105 C914,2105 905,2115 914,2113 L924,2112 924,2112 L925,2102 C927,2092 918,2105 917,2097 C917,2089 924,2097 924,2088 L924,2080"/></g><clipPath id="c" clipRule="evenodd" fill="transparent"><use href="#t8477"/></clipPath></defs><svg viewBox="883 2078 45 38" preserveAspectRatio="xMinYMin meet"><svg width="4380" height="2430"><g><image crossorigin="anonymous" x="0" y="0" href="https://nftpuzzle.license-token.com/assets/completepuzzle.svg" width="100%" height="100%" /><g class="links"><use href="#t8477"/></g></g></svg><svg x="913" y="2101" height="9%" width="9%" viewBox="0 0 330 330"><g><a xlink:href="https://nftpuzzle.license-token.com/" class="links"><title>See the most innovative NFT based token software licensing project</title><path fill="#E4CF37" id="more" d="M165,0C74.019,0,0,74.019,0,165s74.019,165,165,165s165-74.019,165-165S255.981,0,165,0z M85,190 c-13.785,0-25-11.215-25-25s11.215-25,25-25s25,11.215,25,25S98.785,190,85,190z M165,190c-13.785,0-25-11.215-25-25 s11.215-25,25-25s25,11.215,25,25S178.785,190,165,190z M245,190c-13.785,0-25-11.215-25-25s11.215-25,25-25 c13.785,0,25,11.215,25,25S258.785,190,245,190z"></path></a></g></svg></svg></svg>