<svg version="1.1" xmlns="http://www.w3.org/2000/svg" xmlns:xlink="http://www.w3.org/1999/xlink" fill="transparent" x="0" y="0" width="350" height="350" preserveAspectRatio="xMinYMin slice"><style type="text/css">.links{fill:transparent;stroke: #E4CF37;}.links:hover{fill:#63D272; opacity:0.4;}</style><defs><g id="allt"><path id="t8479" d="M990,2080 L980,2080 C970,2080 984,2075 974,2075 C964,2076 975,2080 966,2080 L957,2080 957,2080 L957,2090 C957,2100 963,2086 962,2095 C962,2105 956,2091 956,2101 L957,2112 957,2112 L967,2112 C978,2112 963,2118 973,2117 C983,2117 968,2111 979,2111 L990,2112 990,2112 L990,2102 C990,2092 983,2106 982,2095 C982,2085 991,2098 990,2089 L990,2080"/></g><clipPath id="c" clipRule="evenodd" fill="transparent"><use href="#t8479"/></clipPath></defs><svg viewBox="955 2074 37 45" preserveAspectRatio="xMinYMin meet"><svg width="4380" height="2430"><g><image crossorigin="anonymous" x="0" y="0" href="https://nftpuzzle.license-token.com/assets/completepuzzle.svg" width="100%" height="100%" /><g class="links"><use href="#t8479"/></g></g></svg><svg x="977" y="2104" height="9%" width="9%" viewBox="0 0 330 330"><g><a xlink:href="https://nftpuzzle.license-token.com/" class="links"><title>See the most innovative NFT based token software licensing project</title><path fill="#E4CF37" id="more" d="M165,0C74.019,0,0,74.019,0,165s74.019,165,165,165s165-74.019,165-165S255.981,0,165,0z M85,190 c-13.785,0-25-11.215-25-25s11.215-25,25-25s25,11.215,25,25S98.785,190,85,190z M165,190c-13.785,0-25-11.215-25-25 s11.215-25,25-25s25,11.215,25,25S178.785,190,165,190z M245,190c-13.785,0-25-11.215-25-25s11.215-25,25-25 c13.785,0,25,11.215,25,25S258.785,190,245,190z"></path></a></g></svg></svg></svg>