<svg version="1.1" xmlns="http://www.w3.org/2000/svg" xmlns:xlink="http://www.w3.org/1999/xlink" fill="transparent" x="0" y="0" width="350" height="350" preserveAspectRatio="xMinYMin slice"><style type="text/css">.links{fill:transparent;stroke: #E4CF37;}.links:hover{fill:#63D272; opacity:0.4;}</style><defs><g id="allt"><path id="t848" d="M2277,192 L2266,192 C2256,193 2270,182 2260,182 C2251,182 2262,195 2253,193 L2244,192 2244,192 L2245,201 C2247,211 2236,196 2236,206 C2236,216 2246,205 2245,214 L2244,224 2244,224 L2254,225 C2264,227 2248,216 2258,216 C2269,216 2257,226 2267,225 L2277,224 2277,224 L2277,215 C2278,206 2272,214 2270,207 C2269,201 2277,209 2277,200 L2277,192"/></g><clipPath id="c" clipRule="evenodd" fill="transparent"><use href="#t848"/></clipPath></defs><svg viewBox="2235 181 44 47" preserveAspectRatio="xMinYMin meet"><svg width="4380" height="2430"><g><image crossorigin="anonymous" x="0" y="0" href="https://nftpuzzle.license-token.com/assets/completepuzzle.svg" width="100%" height="100%" /><g class="links"><use href="#t848"/></g></g></svg><svg x="2264" y="213" height="9%" width="9%" viewBox="0 0 330 330"><g><a xlink:href="https://nftpuzzle.license-token.com/" class="links"><title>See the most innovative NFT based token software licensing project</title><path fill="#E4CF37" id="more" d="M165,0C74.019,0,0,74.019,0,165s74.019,165,165,165s165-74.019,165-165S255.981,0,165,0z M85,190 c-13.785,0-25-11.215-25-25s11.215-25,25-25s25,11.215,25,25S98.785,190,85,190z M165,190c-13.785,0-25-11.215-25-25 s11.215-25,25-25s25,11.215,25,25S178.785,190,165,190z M245,190c-13.785,0-25-11.215-25-25s11.215-25,25-25 c13.785,0,25,11.215,25,25S258.785,190,245,190z"></path></a></g></svg></svg></svg>