<svg version="1.1" xmlns="http://www.w3.org/2000/svg" xmlns:xlink="http://www.w3.org/1999/xlink" fill="transparent" x="0" y="0" width="350" height="350" preserveAspectRatio="xMinYMin slice"><style type="text/css">.links{fill:transparent;stroke: #E4CF37;}.links:hover{fill:#63D272; opacity:0.4;}</style><defs><g id="allt"><path id="t8487" d="M1254,2080 L1243,2079 C1233,2079 1246,2072 1237,2071 C1228,2070 1240,2080 1230,2080 L1221,2080 1221,2080 L1220,2089 C1219,2098 1228,2086 1227,2095 C1227,2104 1219,2091 1220,2101 L1221,2112 1221,2112 L1230,2111 C1239,2110 1227,2119 1236,2118 C1246,2118 1232,2110 1243,2111 L1254,2112 1254,2112 L1254,2101 C1254,2090 1250,2104 1250,2094 C1250,2084 1256,2098 1255,2089 L1254,2080"/></g><clipPath id="c" clipRule="evenodd" fill="transparent"><use href="#t8487"/></clipPath></defs><svg viewBox="1218 2069 39 51" preserveAspectRatio="xMinYMin meet"><svg width="4380" height="2430"><g><image crossorigin="anonymous" x="0" y="0" href="https://nftpuzzle.license-token.com/assets/completepuzzle.svg" width="100%" height="100%" /><g class="links"><use href="#t8487"/></g></g></svg><svg x="1242" y="2105" height="9%" width="9%" viewBox="0 0 330 330"><g><a xlink:href="https://nftpuzzle.license-token.com/" class="links"><title>See the most innovative NFT based token software licensing project</title><path fill="#E4CF37" id="more" d="M165,0C74.019,0,0,74.019,0,165s74.019,165,165,165s165-74.019,165-165S255.981,0,165,0z M85,190 c-13.785,0-25-11.215-25-25s11.215-25,25-25s25,11.215,25,25S98.785,190,85,190z M165,190c-13.785,0-25-11.215-25-25 s11.215-25,25-25s25,11.215,25,25S178.785,190,165,190z M245,190c-13.785,0-25-11.215-25-25s11.215-25,25-25 c13.785,0,25,11.215,25,25S258.785,190,245,190z"></path></a></g></svg></svg></svg>