<svg version="1.1" xmlns="http://www.w3.org/2000/svg" xmlns:xlink="http://www.w3.org/1999/xlink" fill="transparent" x="0" y="0" width="350" height="350" preserveAspectRatio="xMinYMin slice"><style type="text/css">.links{fill:transparent;stroke: #E4CF37;}.links:hover{fill:#63D272; opacity:0.4;}</style><defs><g id="allt"><path id="t849" d="M2310,192 L2299,191 C2288,191 2302,195 2293,194 C2285,194 2295,190 2286,191 L2277,192 2277,192 L2277,200 C2277,209 2269,201 2270,207 C2272,214 2278,206 2277,215 L2277,224 2277,224 L2286,224 C2295,224 2286,216 2293,217 C2300,219 2291,225 2300,224 L2310,224 2310,224 L2310,214 C2311,204 2306,217 2305,209 C2304,201 2311,213 2310,202 L2310,192"/></g><clipPath id="c" clipRule="evenodd" fill="transparent"><use href="#t849"/></clipPath></defs><svg viewBox="2268 189 44 37" preserveAspectRatio="xMinYMin meet"><svg width="4380" height="2430"><g><image crossorigin="anonymous" x="0" y="0" href="https://nftpuzzle.license-token.com/assets/completepuzzle.svg" width="100%" height="100%" /><g class="links"><use href="#t849"/></g></g></svg><svg x="2297" y="211" height="9%" width="9%" viewBox="0 0 330 330"><g><a xlink:href="https://nftpuzzle.license-token.com/" class="links"><title>See the most innovative NFT based token software licensing project</title><path fill="#E4CF37" id="more" d="M165,0C74.019,0,0,74.019,0,165s74.019,165,165,165s165-74.019,165-165S255.981,0,165,0z M85,190 c-13.785,0-25-11.215-25-25s11.215-25,25-25s25,11.215,25,25S98.785,190,85,190z M165,190c-13.785,0-25-11.215-25-25 s11.215-25,25-25s25,11.215,25,25S178.785,190,165,190z M245,190c-13.785,0-25-11.215-25-25s11.215-25,25-25 c13.785,0,25,11.215,25,25S258.785,190,245,190z"></path></a></g></svg></svg></svg>