<svg version="1.1" xmlns="http://www.w3.org/2000/svg" xmlns:xlink="http://www.w3.org/1999/xlink" fill="transparent" x="0" y="0" width="350" height="350" preserveAspectRatio="xMinYMin slice"><style type="text/css">.links{fill:transparent;stroke: #E4CF37;}.links:hover{fill:#63D272; opacity:0.4;}</style><defs><g id="allt"><path id="t8492" d="M1419,2080 L1408,2079 C1398,2079 1412,2084 1402,2084 C1393,2084 1404,2080 1395,2080 L1386,2080 1386,2080 L1386,2088 C1386,2097 1393,2085 1391,2094 C1389,2104 1384,2094 1385,2103 L1386,2112 1386,2112 L1395,2112 C1404,2112 1391,2119 1401,2117 C1411,2115 1400,2110 1409,2111 L1419,2112 1419,2112 L1419,2101 C1419,2090 1411,2102 1412,2093 C1413,2085 1420,2098 1419,2089 L1419,2080"/></g><clipPath id="c" clipRule="evenodd" fill="transparent"><use href="#t8492"/></clipPath></defs><svg viewBox="1383 2078 38 42" preserveAspectRatio="xMinYMin meet"><svg width="4380" height="2430"><g><image crossorigin="anonymous" x="0" y="0" href="https://nftpuzzle.license-token.com/assets/completepuzzle.svg" width="100%" height="100%" /><g class="links"><use href="#t8492"/></g></g></svg><svg x="1406" y="2105" height="9%" width="9%" viewBox="0 0 330 330"><g><a xlink:href="https://nftpuzzle.license-token.com/" class="links"><title>See the most innovative NFT based token software licensing project</title><path fill="#E4CF37" id="more" d="M165,0C74.019,0,0,74.019,0,165s74.019,165,165,165s165-74.019,165-165S255.981,0,165,0z M85,190 c-13.785,0-25-11.215-25-25s11.215-25,25-25s25,11.215,25,25S98.785,190,85,190z M165,190c-13.785,0-25-11.215-25-25 s11.215-25,25-25s25,11.215,25,25S178.785,190,165,190z M245,190c-13.785,0-25-11.215-25-25s11.215-25,25-25 c13.785,0,25,11.215,25,25S258.785,190,245,190z"></path></a></g></svg></svg></svg>