<svg version="1.1" xmlns="http://www.w3.org/2000/svg" xmlns:xlink="http://www.w3.org/1999/xlink" fill="transparent" x="0" y="0" width="350" height="350" preserveAspectRatio="xMinYMin slice"><style type="text/css">.links{fill:transparent;stroke: #E4CF37;}.links:hover{fill:#63D272; opacity:0.4;}</style><defs><g id="allt"><path id="t8496" d="M1551,2080 L1541,2081 C1532,2082 1545,2076 1533,2076 C1522,2077 1539,2080 1528,2080 L1518,2080 1518,2080 L1518,2089 C1518,2099 1510,2086 1510,2095 C1511,2104 1518,2092 1518,2102 L1518,2112 1518,2112 L1527,2112 C1537,2112 1524,2104 1533,2104 C1543,2105 1531,2112 1541,2112 L1551,2112 1551,2112 L1552,2101 C1554,2091 1545,2104 1544,2095 C1544,2087 1551,2100 1551,2090 L1551,2080"/></g><clipPath id="c" clipRule="evenodd" fill="transparent"><use href="#t8496"/></clipPath></defs><svg viewBox="1509 2075 46 38" preserveAspectRatio="xMinYMin meet"><svg width="4380" height="2430"><g><image crossorigin="anonymous" x="0" y="0" href="https://nftpuzzle.license-token.com/assets/completepuzzle.svg" width="100%" height="100%" /><g class="links"><use href="#t8496"/></g></g></svg><svg x="1540" y="2098" height="9%" width="9%" viewBox="0 0 330 330"><g><a xlink:href="https://nftpuzzle.license-token.com/" class="links"><title>See the most innovative NFT based token software licensing project</title><path fill="#E4CF37" id="more" d="M165,0C74.019,0,0,74.019,0,165s74.019,165,165,165s165-74.019,165-165S255.981,0,165,0z M85,190 c-13.785,0-25-11.215-25-25s11.215-25,25-25s25,11.215,25,25S98.785,190,85,190z M165,190c-13.785,0-25-11.215-25-25 s11.215-25,25-25s25,11.215,25,25S178.785,190,165,190z M245,190c-13.785,0-25-11.215-25-25s11.215-25,25-25 c13.785,0,25,11.215,25,25S258.785,190,245,190z"></path></a></g></svg></svg></svg>