<svg version="1.1" xmlns="http://www.w3.org/2000/svg" xmlns:xlink="http://www.w3.org/1999/xlink" fill="transparent" x="0" y="0" width="350" height="350" preserveAspectRatio="xMinYMin slice"><style type="text/css">.links{fill:transparent;stroke: #E4CF37;}.links:hover{fill:#63D272; opacity:0.4;}</style><defs><g id="allt"><path id="t8502" d="M1749,2080 L1739,2080 C1730,2080 1739,2075 1730,2075 C1722,2076 1738,2080 1727,2080 L1716,2080 1716,2080 L1717,2089 C1719,2099 1707,2086 1709,2094 C1711,2102 1718,2091 1717,2101 L1716,2112 1716,2112 L1726,2113 C1736,2115 1722,2103 1730,2105 C1739,2107 1728,2114 1738,2113 L1749,2112 1749,2112 L1749,2101 C1749,2091 1742,2104 1742,2095 C1743,2086 1749,2098 1749,2089 L1749,2080"/></g><clipPath id="c" clipRule="evenodd" fill="transparent"><use href="#t8502"/></clipPath></defs><svg viewBox="1706 2074 44 42" preserveAspectRatio="xMinYMin meet"><svg width="4380" height="2430"><g><image crossorigin="anonymous" x="0" y="0" href="https://nftpuzzle.license-token.com/assets/completepuzzle.svg" width="100%" height="100%" /><g class="links"><use href="#t8502"/></g></g></svg><svg x="1735" y="2101" height="9%" width="9%" viewBox="0 0 330 330"><g><a xlink:href="https://nftpuzzle.license-token.com/" class="links"><title>See the most innovative NFT based token software licensing project</title><path fill="#E4CF37" id="more" d="M165,0C74.019,0,0,74.019,0,165s74.019,165,165,165s165-74.019,165-165S255.981,0,165,0z M85,190 c-13.785,0-25-11.215-25-25s11.215-25,25-25s25,11.215,25,25S98.785,190,85,190z M165,190c-13.785,0-25-11.215-25-25 s11.215-25,25-25s25,11.215,25,25S178.785,190,165,190z M245,190c-13.785,0-25-11.215-25-25s11.215-25,25-25 c13.785,0,25,11.215,25,25S258.785,190,245,190z"></path></a></g></svg></svg></svg>