<svg version="1.1" xmlns="http://www.w3.org/2000/svg" xmlns:xlink="http://www.w3.org/1999/xlink" fill="transparent" x="0" y="0" width="350" height="350" preserveAspectRatio="xMinYMin slice"><style type="text/css">.links{fill:transparent;stroke: #E4CF37;}.links:hover{fill:#63D272; opacity:0.4;}</style><defs><g id="allt"><path id="t8503" d="M1782,2080 L1770,2083 C1759,2086 1774,2073 1763,2070 C1753,2068 1769,2083 1759,2081 L1749,2080 1749,2080 L1749,2089 C1749,2098 1743,2086 1742,2095 C1742,2104 1749,2091 1749,2101 L1749,2112 1749,2112 L1758,2112 C1768,2112 1755,2106 1764,2105 C1774,2105 1760,2112 1771,2112 L1782,2112 1782,2112 L1781,2103 C1780,2094 1785,2102 1785,2095 C1786,2088 1780,2098 1781,2089 L1782,2080"/></g><clipPath id="c" clipRule="evenodd" fill="transparent"><use href="#t8503"/></clipPath></defs><svg viewBox="1741 2067 46 46" preserveAspectRatio="xMinYMin meet"><svg width="4380" height="2430"><g><image crossorigin="anonymous" x="0" y="0" href="https://nftpuzzle.license-token.com/assets/completepuzzle.svg" width="100%" height="100%" /><g class="links"><use href="#t8503"/></g></g></svg><svg x="1772" y="2098" height="9%" width="9%" viewBox="0 0 330 330"><g><a xlink:href="https://nftpuzzle.license-token.com/" class="links"><title>See the most innovative NFT based token software licensing project</title><path fill="#E4CF37" id="more" d="M165,0C74.019,0,0,74.019,0,165s74.019,165,165,165s165-74.019,165-165S255.981,0,165,0z M85,190 c-13.785,0-25-11.215-25-25s11.215-25,25-25s25,11.215,25,25S98.785,190,85,190z M165,190c-13.785,0-25-11.215-25-25 s11.215-25,25-25s25,11.215,25,25S178.785,190,165,190z M245,190c-13.785,0-25-11.215-25-25s11.215-25,25-25 c13.785,0,25,11.215,25,25S258.785,190,245,190z"></path></a></g></svg></svg></svg>