<svg version="1.1" xmlns="http://www.w3.org/2000/svg" xmlns:xlink="http://www.w3.org/1999/xlink" fill="transparent" x="0" y="0" width="350" height="350" preserveAspectRatio="xMinYMin slice"><style type="text/css">.links{fill:transparent;stroke: #E4CF37;}.links:hover{fill:#63D272; opacity:0.4;}</style><defs><g id="allt"><path id="t8504" d="M1815,2080 L1805,2078 C1795,2076 1809,2087 1798,2088 C1788,2090 1804,2076 1793,2078 L1782,2080 1782,2080 L1781,2089 C1780,2098 1786,2088 1785,2095 C1785,2102 1780,2094 1781,2103 L1782,2112 1782,2112 L1791,2111 C1801,2110 1790,2116 1797,2115 C1805,2115 1796,2110 1805,2111 L1815,2112 1815,2112 L1815,2103 C1815,2094 1809,2104 1810,2095 C1811,2086 1817,2098 1816,2089 L1815,2080"/></g><clipPath id="c" clipRule="evenodd" fill="transparent"><use href="#t8504"/></clipPath></defs><svg viewBox="1779 2075 39 42" preserveAspectRatio="xMinYMin meet"><svg width="4380" height="2430"><g><image crossorigin="anonymous" x="0" y="0" href="https://nftpuzzle.license-token.com/assets/completepuzzle.svg" width="100%" height="100%" /><g class="links"><use href="#t8504"/></g></g></svg><svg x="1803" y="2102" height="9%" width="9%" viewBox="0 0 330 330"><g><a xlink:href="https://nftpuzzle.license-token.com/" class="links"><title>See the most innovative NFT based token software licensing project</title><path fill="#E4CF37" id="more" d="M165,0C74.019,0,0,74.019,0,165s74.019,165,165,165s165-74.019,165-165S255.981,0,165,0z M85,190 c-13.785,0-25-11.215-25-25s11.215-25,25-25s25,11.215,25,25S98.785,190,85,190z M165,190c-13.785,0-25-11.215-25-25 s11.215-25,25-25s25,11.215,25,25S178.785,190,165,190z M245,190c-13.785,0-25-11.215-25-25s11.215-25,25-25 c13.785,0,25,11.215,25,25S258.785,190,245,190z"></path></a></g></svg></svg></svg>