<svg version="1.1" xmlns="http://www.w3.org/2000/svg" xmlns:xlink="http://www.w3.org/1999/xlink" fill="transparent" x="0" y="0" width="350" height="350" preserveAspectRatio="xMinYMin slice"><style type="text/css">.links{fill:transparent;stroke: #E4CF37;}.links:hover{fill:#63D272; opacity:0.4;}</style><defs><g id="allt"><path id="t8506" d="M1881,2080 L1870,2079 C1859,2079 1875,2083 1864,2084 C1853,2085 1869,2080 1858,2080 L1848,2080 1848,2080 L1847,2090 C1846,2101 1854,2084 1854,2094 C1854,2104 1844,2093 1846,2102 L1848,2112 1848,2112 L1858,2111 C1869,2110 1852,2118 1862,2118 C1873,2118 1862,2108 1871,2110 L1881,2112 1881,2112 L1881,2101 C1881,2090 1874,2104 1876,2094 C1878,2085 1884,2100 1882,2090 L1881,2080"/></g><clipPath id="c" clipRule="evenodd" fill="transparent"><use href="#t8506"/></clipPath></defs><svg viewBox="1843 2078 42 41" preserveAspectRatio="xMinYMin meet"><svg width="4380" height="2430"><g><image crossorigin="anonymous" x="0" y="0" href="https://nftpuzzle.license-token.com/assets/completepuzzle.svg" width="100%" height="100%" /><g class="links"><use href="#t8506"/></g></g></svg><svg x="1870" y="2104" height="9%" width="9%" viewBox="0 0 330 330"><g><a xlink:href="https://nftpuzzle.license-token.com/" class="links"><title>See the most innovative NFT based token software licensing project</title><path fill="#E4CF37" id="more" d="M165,0C74.019,0,0,74.019,0,165s74.019,165,165,165s165-74.019,165-165S255.981,0,165,0z M85,190 c-13.785,0-25-11.215-25-25s11.215-25,25-25s25,11.215,25,25S98.785,190,85,190z M165,190c-13.785,0-25-11.215-25-25 s11.215-25,25-25s25,11.215,25,25S178.785,190,165,190z M245,190c-13.785,0-25-11.215-25-25s11.215-25,25-25 c13.785,0,25,11.215,25,25S258.785,190,245,190z"></path></a></g></svg></svg></svg>