<svg version="1.1" xmlns="http://www.w3.org/2000/svg" xmlns:xlink="http://www.w3.org/1999/xlink" fill="transparent" x="0" y="0" width="350" height="350" preserveAspectRatio="xMinYMin slice"><style type="text/css">.links{fill:transparent;stroke: #E4CF37;}.links:hover{fill:#63D272; opacity:0.4;}</style><defs><g id="allt"><path id="t8514" d="M2145,2080 L2134,2080 C2123,2080 2137,2073 2127,2074 C2117,2075 2133,2081 2122,2080 L2112,2080 2112,2080 L2113,2089 C2114,2099 2101,2085 2101,2095 C2102,2106 2112,2093 2112,2102 L2112,2112 2112,2112 L2121,2113 C2131,2114 2117,2102 2128,2102 C2139,2102 2125,2112 2135,2112 L2145,2112 2145,2112 L2144,2101 C2144,2091 2154,2104 2154,2095 C2154,2086 2144,2098 2144,2089 L2145,2080"/></g><clipPath id="c" clipRule="evenodd" fill="transparent"><use href="#t8514"/></clipPath></defs><svg viewBox="2100 2072 55 43" preserveAspectRatio="xMinYMin meet"><svg width="4380" height="2430"><g><image crossorigin="anonymous" x="0" y="0" href="https://nftpuzzle.license-token.com/assets/completepuzzle.svg" width="100%" height="100%" /><g class="links"><use href="#t8514"/></g></g></svg><svg x="2140" y="2100" height="9%" width="9%" viewBox="0 0 330 330"><g><a xlink:href="https://nftpuzzle.license-token.com/" class="links"><title>See the most innovative NFT based token software licensing project</title><path fill="#E4CF37" id="more" d="M165,0C74.019,0,0,74.019,0,165s74.019,165,165,165s165-74.019,165-165S255.981,0,165,0z M85,190 c-13.785,0-25-11.215-25-25s11.215-25,25-25s25,11.215,25,25S98.785,190,85,190z M165,190c-13.785,0-25-11.215-25-25 s11.215-25,25-25s25,11.215,25,25S178.785,190,165,190z M245,190c-13.785,0-25-11.215-25-25s11.215-25,25-25 c13.785,0,25,11.215,25,25S258.785,190,245,190z"></path></a></g></svg></svg></svg>