<svg version="1.1" xmlns="http://www.w3.org/2000/svg" xmlns:xlink="http://www.w3.org/1999/xlink" fill="transparent" x="0" y="0" width="350" height="350" preserveAspectRatio="xMinYMin slice"><style type="text/css">.links{fill:transparent;stroke: #E4CF37;}.links:hover{fill:#63D272; opacity:0.4;}</style><defs><g id="allt"><path id="t8518" d="M2277,2080 L2267,2079 C2258,2078 2268,2083 2258,2083 C2249,2084 2265,2077 2254,2078 L2244,2080 2244,2080 L2244,2090 C2244,2100 2240,2085 2239,2094 C2238,2103 2246,2094 2245,2103 L2244,2112 2244,2112 L2254,2112 C2265,2112 2249,2108 2258,2107 C2268,2106 2258,2114 2267,2113 L2277,2112 2277,2112 L2277,2101 C2278,2090 2272,2105 2273,2096 C2274,2088 2278,2098 2277,2089 L2277,2080"/></g><clipPath id="c" clipRule="evenodd" fill="transparent"><use href="#t8518"/></clipPath></defs><svg viewBox="2237 2076 42 39" preserveAspectRatio="xMinYMin meet"><svg width="4380" height="2430"><g><image crossorigin="anonymous" x="0" y="0" href="https://nftpuzzle.license-token.com/assets/completepuzzle.svg" width="100%" height="100%" /><g class="links"><use href="#t8518"/></g></g></svg><svg x="2264" y="2100" height="9%" width="9%" viewBox="0 0 330 330"><g><a xlink:href="https://nftpuzzle.license-token.com/" class="links"><title>See the most innovative NFT based token software licensing project</title><path fill="#E4CF37" id="more" d="M165,0C74.019,0,0,74.019,0,165s74.019,165,165,165s165-74.019,165-165S255.981,0,165,0z M85,190 c-13.785,0-25-11.215-25-25s11.215-25,25-25s25,11.215,25,25S98.785,190,85,190z M165,190c-13.785,0-25-11.215-25-25 s11.215-25,25-25s25,11.215,25,25S178.785,190,165,190z M245,190c-13.785,0-25-11.215-25-25s11.215-25,25-25 c13.785,0,25,11.215,25,25S258.785,190,245,190z"></path></a></g></svg></svg></svg>