<svg version="1.1" xmlns="http://www.w3.org/2000/svg" xmlns:xlink="http://www.w3.org/1999/xlink" fill="transparent" x="0" y="0" width="350" height="350" preserveAspectRatio="xMinYMin slice"><style type="text/css">.links{fill:transparent;stroke: #E4CF37;}.links:hover{fill:#63D272; opacity:0.4;}</style><defs><g id="allt"><path id="t8519" d="M2310,2080 L2299,2082 C2289,2084 2303,2072 2293,2073 C2283,2075 2298,2080 2287,2080 L2277,2080 2277,2080 L2277,2089 C2278,2098 2274,2088 2273,2096 C2272,2105 2278,2090 2277,2101 L2277,2112 2277,2112 L2286,2112 C2296,2113 2286,2109 2294,2108 C2303,2107 2287,2113 2298,2112 L2310,2112 2310,2112 L2311,2102 C2312,2093 2300,2105 2299,2096 C2299,2087 2313,2099 2311,2089 L2310,2080"/></g><clipPath id="c" clipRule="evenodd" fill="transparent"><use href="#t8519"/></clipPath></defs><svg viewBox="2271 2071 43 43" preserveAspectRatio="xMinYMin meet"><svg width="4380" height="2430"><g><image crossorigin="anonymous" x="0" y="0" href="https://nftpuzzle.license-token.com/assets/completepuzzle.svg" width="100%" height="100%" /><g class="links"><use href="#t8519"/></g></g></svg><svg x="2299" y="2099" height="9%" width="9%" viewBox="0 0 330 330"><g><a xlink:href="https://nftpuzzle.license-token.com/" class="links"><title>See the most innovative NFT based token software licensing project</title><path fill="#E4CF37" id="more" d="M165,0C74.019,0,0,74.019,0,165s74.019,165,165,165s165-74.019,165-165S255.981,0,165,0z M85,190 c-13.785,0-25-11.215-25-25s11.215-25,25-25s25,11.215,25,25S98.785,190,85,190z M165,190c-13.785,0-25-11.215-25-25 s11.215-25,25-25s25,11.215,25,25S178.785,190,165,190z M245,190c-13.785,0-25-11.215-25-25s11.215-25,25-25 c13.785,0,25,11.215,25,25S258.785,190,245,190z"></path></a></g></svg></svg></svg>