<svg version="1.1" xmlns="http://www.w3.org/2000/svg" xmlns:xlink="http://www.w3.org/1999/xlink" fill="transparent" x="0" y="0" width="350" height="350" preserveAspectRatio="xMinYMin slice"><style type="text/css">.links{fill:transparent;stroke: #E4CF37;}.links:hover{fill:#63D272; opacity:0.4;}</style><defs><g id="allt"><path id="t8527" d="M2574,2080 L2564,2080 C2554,2080 2568,2086 2557,2086 C2547,2086 2560,2077 2550,2078 L2541,2080 2541,2080 L2540,2090 C2540,2101 2548,2086 2548,2096 C2549,2106 2541,2091 2541,2101 L2541,2112 2541,2112 L2552,2111 C2563,2111 2547,2119 2557,2119 C2568,2120 2553,2112 2563,2112 L2574,2112 2574,2112 L2573,2101 C2573,2090 2582,2106 2581,2095 C2580,2085 2572,2098 2573,2089 L2574,2080"/></g><clipPath id="c" clipRule="evenodd" fill="transparent"><use href="#t8527"/></clipPath></defs><svg viewBox="2539 2076 44 45" preserveAspectRatio="xMinYMin meet"><svg width="4380" height="2430"><g><image crossorigin="anonymous" x="0" y="0" href="https://nftpuzzle.license-token.com/assets/completepuzzle.svg" width="100%" height="100%" /><g class="links"><use href="#t8527"/></g></g></svg><svg x="2568" y="2106" height="9%" width="9%" viewBox="0 0 330 330"><g><a xlink:href="https://nftpuzzle.license-token.com/" class="links"><title>See the most innovative NFT based token software licensing project</title><path fill="#E4CF37" id="more" d="M165,0C74.019,0,0,74.019,0,165s74.019,165,165,165s165-74.019,165-165S255.981,0,165,0z M85,190 c-13.785,0-25-11.215-25-25s11.215-25,25-25s25,11.215,25,25S98.785,190,85,190z M165,190c-13.785,0-25-11.215-25-25 s11.215-25,25-25s25,11.215,25,25S178.785,190,165,190z M245,190c-13.785,0-25-11.215-25-25s11.215-25,25-25 c13.785,0,25,11.215,25,25S258.785,190,245,190z"></path></a></g></svg></svg></svg>