<svg version="1.1" xmlns="http://www.w3.org/2000/svg" xmlns:xlink="http://www.w3.org/1999/xlink" fill="transparent" x="0" y="0" width="350" height="350" preserveAspectRatio="xMinYMin slice"><style type="text/css">.links{fill:transparent;stroke: #E4CF37;}.links:hover{fill:#63D272; opacity:0.4;}</style><defs><g id="allt"><path id="t8535" d="M2838,2080 L2828,2080 C2818,2080 2828,2072 2819,2072 C2811,2072 2824,2081 2814,2080 L2805,2080 2805,2080 L2806,2090 C2807,2101 2801,2085 2801,2094 C2802,2104 2805,2094 2805,2103 L2805,2112 2805,2112 L2816,2113 C2827,2114 2810,2108 2820,2108 C2830,2109 2819,2112 2828,2112 L2838,2112 2838,2112 L2839,2103 C2840,2094 2828,2103 2828,2095 C2828,2088 2843,2099 2840,2089 L2838,2080"/></g><clipPath id="c" clipRule="evenodd" fill="transparent"><use href="#t8535"/></clipPath></defs><svg viewBox="2800 2071 44 44" preserveAspectRatio="xMinYMin meet"><svg width="4380" height="2430"><g><image crossorigin="anonymous" x="0" y="0" href="https://nftpuzzle.license-token.com/assets/completepuzzle.svg" width="100%" height="100%" /><g class="links"><use href="#t8535"/></g></g></svg><svg x="2829" y="2100" height="9%" width="9%" viewBox="0 0 330 330"><g><a xlink:href="https://nftpuzzle.license-token.com/" class="links"><title>See the most innovative NFT based token software licensing project</title><path fill="#E4CF37" id="more" d="M165,0C74.019,0,0,74.019,0,165s74.019,165,165,165s165-74.019,165-165S255.981,0,165,0z M85,190 c-13.785,0-25-11.215-25-25s11.215-25,25-25s25,11.215,25,25S98.785,190,85,190z M165,190c-13.785,0-25-11.215-25-25 s11.215-25,25-25s25,11.215,25,25S178.785,190,165,190z M245,190c-13.785,0-25-11.215-25-25s11.215-25,25-25 c13.785,0,25,11.215,25,25S258.785,190,245,190z"></path></a></g></svg></svg></svg>