<svg version="1.1" xmlns="http://www.w3.org/2000/svg" xmlns:xlink="http://www.w3.org/1999/xlink" fill="transparent" x="0" y="0" width="350" height="350" preserveAspectRatio="xMinYMin slice"><style type="text/css">.links{fill:transparent;stroke: #E4CF37;}.links:hover{fill:#63D272; opacity:0.4;}</style><defs><g id="allt"><path id="t854" d="M2475,192 L2464,192 C2453,192 2469,186 2460,186 C2451,186 2463,195 2452,193 L2442,192 2442,192 L2442,200 C2442,209 2448,201 2449,209 C2451,217 2437,206 2439,215 L2442,224 2442,224 L2451,224 C2460,224 2451,230 2459,231 C2468,232 2456,219 2465,221 L2475,224 2475,224 L2475,214 C2475,205 2468,217 2469,207 C2471,198 2477,211 2476,201 L2475,192"/></g><clipPath id="c" clipRule="evenodd" fill="transparent"><use href="#t854"/></clipPath></defs><svg viewBox="2436 185 42 48" preserveAspectRatio="xMinYMin meet"><svg width="4380" height="2430"><g><image crossorigin="anonymous" x="0" y="0" href="https://nftpuzzle.license-token.com/assets/completepuzzle.svg" width="100%" height="100%" /><g class="links"><use href="#t854"/></g></g></svg><svg x="2463" y="218" height="9%" width="9%" viewBox="0 0 330 330"><g><a xlink:href="https://nftpuzzle.license-token.com/" class="links"><title>See the most innovative NFT based token software licensing project</title><path fill="#E4CF37" id="more" d="M165,0C74.019,0,0,74.019,0,165s74.019,165,165,165s165-74.019,165-165S255.981,0,165,0z M85,190 c-13.785,0-25-11.215-25-25s11.215-25,25-25s25,11.215,25,25S98.785,190,85,190z M165,190c-13.785,0-25-11.215-25-25 s11.215-25,25-25s25,11.215,25,25S178.785,190,165,190z M245,190c-13.785,0-25-11.215-25-25s11.215-25,25-25 c13.785,0,25,11.215,25,25S258.785,190,245,190z"></path></a></g></svg></svg></svg>