<svg version="1.1" xmlns="http://www.w3.org/2000/svg" xmlns:xlink="http://www.w3.org/1999/xlink" fill="transparent" x="0" y="0" width="350" height="350" preserveAspectRatio="xMinYMin slice"><style type="text/css">.links{fill:transparent;stroke: #E4CF37;}.links:hover{fill:#63D272; opacity:0.4;}</style><defs><g id="allt"><path id="t8541" d="M3036,2080 L3025,2080 C3015,2080 3030,2086 3020,2086 C3010,2086 3022,2079 3012,2079 L3003,2080 3003,2080 L3003,2090 C3003,2100 3001,2085 3001,2094 C3001,2103 3004,2090 3003,2101 L3003,2112 3003,2112 L3013,2112 C3024,2112 3008,2110 3017,2110 C3027,2110 3013,2113 3024,2112 L3036,2112 3036,2112 L3036,2101 C3036,2091 3032,2105 3031,2096 C3030,2088 3036,2100 3036,2090 L3036,2080"/></g><clipPath id="c" clipRule="evenodd" fill="transparent"><use href="#t8541"/></clipPath></defs><svg viewBox="3000 2078 37 36" preserveAspectRatio="xMinYMin meet"><svg width="4380" height="2430"><g><image crossorigin="anonymous" x="0" y="0" href="https://nftpuzzle.license-token.com/assets/completepuzzle.svg" width="100%" height="100%" /><g class="links"><use href="#t8541"/></g></g></svg><svg x="3022" y="2099" height="9%" width="9%" viewBox="0 0 330 330"><g><a xlink:href="https://nftpuzzle.license-token.com/" class="links"><title>See the most innovative NFT based token software licensing project</title><path fill="#E4CF37" id="more" d="M165,0C74.019,0,0,74.019,0,165s74.019,165,165,165s165-74.019,165-165S255.981,0,165,0z M85,190 c-13.785,0-25-11.215-25-25s11.215-25,25-25s25,11.215,25,25S98.785,190,85,190z M165,190c-13.785,0-25-11.215-25-25 s11.215-25,25-25s25,11.215,25,25S178.785,190,165,190z M245,190c-13.785,0-25-11.215-25-25s11.215-25,25-25 c13.785,0,25,11.215,25,25S258.785,190,245,190z"></path></a></g></svg></svg></svg>