<svg version="1.1" xmlns="http://www.w3.org/2000/svg" xmlns:xlink="http://www.w3.org/1999/xlink" fill="transparent" x="0" y="0" width="350" height="350" preserveAspectRatio="xMinYMin slice"><style type="text/css">.links{fill:transparent;stroke: #E4CF37;}.links:hover{fill:#63D272; opacity:0.4;}</style><defs><g id="allt"><path id="t8547" d="M3234,2080 L3224,2078 C3215,2076 3226,2088 3216,2088 C3206,2089 3221,2077 3211,2078 L3201,2080 3201,2080 L3199,2090 C3198,2101 3210,2087 3211,2094 C3212,2102 3196,2091 3198,2101 L3201,2112 3201,2112 L3211,2110 C3222,2109 3208,2121 3216,2121 C3224,2122 3213,2107 3223,2109 L3234,2112 3234,2112 L3234,2102 C3234,2093 3229,2104 3227,2095 C3226,2087 3234,2101 3234,2090 L3234,2080"/></g><clipPath id="c" clipRule="evenodd" fill="transparent"><use href="#t8547"/></clipPath></defs><svg viewBox="3195 2075 40 48" preserveAspectRatio="xMinYMin meet"><svg width="4380" height="2430"><g><image crossorigin="anonymous" x="0" y="0" href="https://nftpuzzle.license-token.com/assets/completepuzzle.svg" width="100%" height="100%" /><g class="links"><use href="#t8547"/></g></g></svg><svg x="3220" y="2108" height="9%" width="9%" viewBox="0 0 330 330"><g><a xlink:href="https://nftpuzzle.license-token.com/" class="links"><title>See the most innovative NFT based token software licensing project</title><path fill="#E4CF37" id="more" d="M165,0C74.019,0,0,74.019,0,165s74.019,165,165,165s165-74.019,165-165S255.981,0,165,0z M85,190 c-13.785,0-25-11.215-25-25s11.215-25,25-25s25,11.215,25,25S98.785,190,85,190z M165,190c-13.785,0-25-11.215-25-25 s11.215-25,25-25s25,11.215,25,25S178.785,190,165,190z M245,190c-13.785,0-25-11.215-25-25s11.215-25,25-25 c13.785,0,25,11.215,25,25S258.785,190,245,190z"></path></a></g></svg></svg></svg>