<svg version="1.1" xmlns="http://www.w3.org/2000/svg" xmlns:xlink="http://www.w3.org/1999/xlink" fill="transparent" x="0" y="0" width="350" height="350" preserveAspectRatio="xMinYMin slice"><style type="text/css">.links{fill:transparent;stroke: #E4CF37;}.links:hover{fill:#63D272; opacity:0.4;}</style><defs><g id="allt"><path id="t8550" d="M3333,2080 L3323,2081 C3314,2082 3325,2077 3315,2076 C3305,2076 3318,2080 3309,2080 L3300,2080 3300,2080 L3300,2090 C3301,2100 3291,2088 3291,2097 C3291,2106 3302,2090 3301,2101 L3300,2112 3300,2112 L3310,2112 C3320,2113 3308,2104 3317,2104 C3327,2104 3311,2114 3322,2113 L3333,2112 3333,2112 L3331,2102 C3329,2092 3342,2106 3341,2095 C3341,2084 3331,2101 3332,2090 L3333,2080"/></g><clipPath id="c" clipRule="evenodd" fill="transparent"><use href="#t8550"/></clipPath></defs><svg viewBox="3290 2075 53 40" preserveAspectRatio="xMinYMin meet"><svg width="4380" height="2430"><g><image crossorigin="anonymous" x="0" y="0" href="https://nftpuzzle.license-token.com/assets/completepuzzle.svg" width="100%" height="100%" /><g class="links"><use href="#t8550"/></g></g></svg><svg x="3328" y="2100" height="9%" width="9%" viewBox="0 0 330 330"><g><a xlink:href="https://nftpuzzle.license-token.com/" class="links"><title>See the most innovative NFT based token software licensing project</title><path fill="#E4CF37" id="more" d="M165,0C74.019,0,0,74.019,0,165s74.019,165,165,165s165-74.019,165-165S255.981,0,165,0z M85,190 c-13.785,0-25-11.215-25-25s11.215-25,25-25s25,11.215,25,25S98.785,190,85,190z M165,190c-13.785,0-25-11.215-25-25 s11.215-25,25-25s25,11.215,25,25S178.785,190,165,190z M245,190c-13.785,0-25-11.215-25-25s11.215-25,25-25 c13.785,0,25,11.215,25,25S258.785,190,245,190z"></path></a></g></svg></svg></svg>