<svg version="1.1" xmlns="http://www.w3.org/2000/svg" xmlns:xlink="http://www.w3.org/1999/xlink" fill="transparent" x="0" y="0" width="350" height="350" preserveAspectRatio="xMinYMin slice"><style type="text/css">.links{fill:transparent;stroke: #E4CF37;}.links:hover{fill:#63D272; opacity:0.4;}</style><defs><g id="allt"><path id="t8553" d="M3432,2080 L3422,2078 C3412,2077 3426,2090 3415,2090 C3405,2091 3418,2075 3408,2077 L3399,2080 3399,2080 L3399,2088 C3400,2097 3389,2088 3391,2096 C3393,2104 3400,2090 3399,2101 L3399,2112 3399,2112 L3408,2112 C3417,2113 3408,2102 3415,2104 C3423,2106 3409,2113 3420,2112 L3432,2112 3432,2112 L3432,2101 C3432,2091 3441,2105 3441,2095 C3441,2085 3428,2098 3430,2089 L3432,2080"/></g><clipPath id="c" clipRule="evenodd" fill="transparent"><use href="#t8553"/></clipPath></defs><svg viewBox="3388 2074 54 40" preserveAspectRatio="xMinYMin meet"><svg width="4380" height="2430"><g><image crossorigin="anonymous" x="0" y="0" href="https://nftpuzzle.license-token.com/assets/completepuzzle.svg" width="100%" height="100%" /><g class="links"><use href="#t8553"/></g></g></svg><svg x="3427" y="2099" height="9%" width="9%" viewBox="0 0 330 330"><g><a xlink:href="https://nftpuzzle.license-token.com/" class="links"><title>See the most innovative NFT based token software licensing project</title><path fill="#E4CF37" id="more" d="M165,0C74.019,0,0,74.019,0,165s74.019,165,165,165s165-74.019,165-165S255.981,0,165,0z M85,190 c-13.785,0-25-11.215-25-25s11.215-25,25-25s25,11.215,25,25S98.785,190,85,190z M165,190c-13.785,0-25-11.215-25-25 s11.215-25,25-25s25,11.215,25,25S178.785,190,165,190z M245,190c-13.785,0-25-11.215-25-25s11.215-25,25-25 c13.785,0,25,11.215,25,25S258.785,190,245,190z"></path></a></g></svg></svg></svg>