<svg version="1.1" xmlns="http://www.w3.org/2000/svg" xmlns:xlink="http://www.w3.org/1999/xlink" fill="transparent" x="0" y="0" width="350" height="350" preserveAspectRatio="xMinYMin slice"><style type="text/css">.links{fill:transparent;stroke: #E4CF37;}.links:hover{fill:#63D272; opacity:0.4;}</style><defs><g id="allt"><path id="t8562" d="M3729,2080 L3718,2080 C3707,2080 3722,2077 3712,2076 C3703,2076 3717,2080 3706,2080 L3696,2080 3696,2080 L3696,2089 C3696,2098 3694,2086 3693,2095 C3692,2104 3698,2092 3697,2102 L3696,2112 3696,2112 L3705,2112 C3715,2112 3702,2110 3711,2109 C3721,2108 3709,2114 3719,2113 L3729,2112 3729,2112 L3727,2102 C3725,2093 3733,2102 3734,2093 C3736,2084 3725,2099 3727,2089 L3729,2080"/></g><clipPath id="c" clipRule="evenodd" fill="transparent"><use href="#t8562"/></clipPath></defs><svg viewBox="3691 2075 46 40" preserveAspectRatio="xMinYMin meet"><svg width="4380" height="2430"><g><image crossorigin="anonymous" x="0" y="0" href="https://nftpuzzle.license-token.com/assets/completepuzzle.svg" width="100%" height="100%" /><g class="links"><use href="#t8562"/></g></g></svg><svg x="3722" y="2100" height="9%" width="9%" viewBox="0 0 330 330"><g><a xlink:href="https://nftpuzzle.license-token.com/" class="links"><title>See the most innovative NFT based token software licensing project</title><path fill="#E4CF37" id="more" d="M165,0C74.019,0,0,74.019,0,165s74.019,165,165,165s165-74.019,165-165S255.981,0,165,0z M85,190 c-13.785,0-25-11.215-25-25s11.215-25,25-25s25,11.215,25,25S98.785,190,85,190z M165,190c-13.785,0-25-11.215-25-25 s11.215-25,25-25s25,11.215,25,25S178.785,190,165,190z M245,190c-13.785,0-25-11.215-25-25s11.215-25,25-25 c13.785,0,25,11.215,25,25S258.785,190,245,190z"></path></a></g></svg></svg></svg>