<svg version="1.1" xmlns="http://www.w3.org/2000/svg" xmlns:xlink="http://www.w3.org/1999/xlink" fill="transparent" x="0" y="0" width="350" height="350" preserveAspectRatio="xMinYMin slice"><style type="text/css">.links{fill:transparent;stroke: #E4CF37;}.links:hover{fill:#63D272; opacity:0.4;}</style><defs><g id="allt"><path id="t8573" d="M4092,2080 L4081,2078 C4070,2077 4087,2083 4075,2083 C4063,2083 4079,2079 4069,2079 L4059,2080 4059,2080 L4060,2089 C4061,2098 4055,2087 4054,2095 C4054,2104 4059,2092 4059,2102 L4059,2112 4059,2112 L4068,2113 C4077,2114 4066,2108 4075,2107 C4084,2107 4071,2112 4081,2112 L4092,2112 4092,2112 L4090,2101 C4089,2091 4100,2102 4098,2095 C4096,2089 4092,2099 4092,2089 L4092,2080"/></g><clipPath id="c" clipRule="evenodd" fill="transparent"><use href="#t8573"/></clipPath></defs><svg viewBox="4053 2076 48 39" preserveAspectRatio="xMinYMin meet"><svg width="4380" height="2430"><g><image crossorigin="anonymous" x="0" y="0" href="https://nftpuzzle.license-token.com/assets/completepuzzle.svg" width="100%" height="100%" /><g class="links"><use href="#t8573"/></g></g></svg><svg x="4086" y="2100" height="9%" width="9%" viewBox="0 0 330 330"><g><a xlink:href="https://nftpuzzle.license-token.com/" class="links"><title>See the most innovative NFT based token software licensing project</title><path fill="#E4CF37" id="more" d="M165,0C74.019,0,0,74.019,0,165s74.019,165,165,165s165-74.019,165-165S255.981,0,165,0z M85,190 c-13.785,0-25-11.215-25-25s11.215-25,25-25s25,11.215,25,25S98.785,190,85,190z M165,190c-13.785,0-25-11.215-25-25 s11.215-25,25-25s25,11.215,25,25S178.785,190,165,190z M245,190c-13.785,0-25-11.215-25-25s11.215-25,25-25 c13.785,0,25,11.215,25,25S258.785,190,245,190z"></path></a></g></svg></svg></svg>