<svg version="1.1" xmlns="http://www.w3.org/2000/svg" xmlns:xlink="http://www.w3.org/1999/xlink" fill="transparent" x="0" y="0" width="350" height="350" preserveAspectRatio="xMinYMin slice"><style type="text/css">.links{fill:transparent;stroke: #E4CF37;}.links:hover{fill:#63D272; opacity:0.4;}</style><defs><g id="allt"><path id="t8574" d="M4125,2080 L4113,2081 C4102,2082 4118,2077 4107,2076 C4096,2075 4110,2080 4101,2080 L4092,2080 4092,2080 L4092,2089 C4092,2099 4096,2089 4098,2095 C4100,2102 4089,2091 4090,2101 L4092,2112 4092,2112 L4102,2112 C4112,2112 4101,2116 4108,2118 C4115,2120 4104,2109 4114,2110 L4125,2112 4125,2112 L4124,2102 C4123,2093 4131,2107 4130,2097 C4130,2087 4125,2097 4125,2088 L4125,2080"/></g><clipPath id="c" clipRule="evenodd" fill="transparent"><use href="#t8574"/></clipPath></defs><svg viewBox="4088 2074 44 47" preserveAspectRatio="xMinYMin meet"><svg width="4380" height="2430"><g><image crossorigin="anonymous" x="0" y="0" href="https://nftpuzzle.license-token.com/assets/completepuzzle.svg" width="100%" height="100%" /><g class="links"><use href="#t8574"/></g></g></svg><svg x="4117" y="2106" height="9%" width="9%" viewBox="0 0 330 330"><g><a xlink:href="https://nftpuzzle.license-token.com/" class="links"><title>See the most innovative NFT based token software licensing project</title><path fill="#E4CF37" id="more" d="M165,0C74.019,0,0,74.019,0,165s74.019,165,165,165s165-74.019,165-165S255.981,0,165,0z M85,190 c-13.785,0-25-11.215-25-25s11.215-25,25-25s25,11.215,25,25S98.785,190,85,190z M165,190c-13.785,0-25-11.215-25-25 s11.215-25,25-25s25,11.215,25,25S178.785,190,165,190z M245,190c-13.785,0-25-11.215-25-25s11.215-25,25-25 c13.785,0,25,11.215,25,25S258.785,190,245,190z"></path></a></g></svg></svg></svg>