<svg version="1.1" xmlns="http://www.w3.org/2000/svg" xmlns:xlink="http://www.w3.org/1999/xlink" fill="transparent" x="0" y="0" width="350" height="350" preserveAspectRatio="xMinYMin slice"><style type="text/css">.links{fill:transparent;stroke: #E4CF37;}.links:hover{fill:#63D272; opacity:0.4;}</style><defs><g id="allt"><path id="t8577" d="M4224,2080 L4213,2080 C4202,2080 4216,2086 4207,2085 C4198,2084 4209,2077 4200,2078 L4191,2080 4191,2080 L4190,2090 C4189,2101 4196,2086 4195,2094 C4195,2103 4191,2090 4191,2101 L4191,2112 4191,2112 L4202,2111 C4213,2110 4197,2117 4206,2116 C4215,2116 4201,2112 4212,2112 L4224,2112 4224,2112 L4225,2102 C4226,2092 4216,2106 4216,2095 C4217,2084 4227,2100 4225,2090 L4224,2080"/></g><clipPath id="c" clipRule="evenodd" fill="transparent"><use href="#t8577"/></clipPath></defs><svg viewBox="4188 2076 40 42" preserveAspectRatio="xMinYMin meet"><svg width="4380" height="2430"><g><image crossorigin="anonymous" x="0" y="0" href="https://nftpuzzle.license-token.com/assets/completepuzzle.svg" width="100%" height="100%" /><g class="links"><use href="#t8577"/></g></g></svg><svg x="4213" y="2103" height="9%" width="9%" viewBox="0 0 330 330"><g><a xlink:href="https://nftpuzzle.license-token.com/" class="links"><title>See the most innovative NFT based token software licensing project</title><path fill="#E4CF37" id="more" d="M165,0C74.019,0,0,74.019,0,165s74.019,165,165,165s165-74.019,165-165S255.981,0,165,0z M85,190 c-13.785,0-25-11.215-25-25s11.215-25,25-25s25,11.215,25,25S98.785,190,85,190z M165,190c-13.785,0-25-11.215-25-25 s11.215-25,25-25s25,11.215,25,25S178.785,190,165,190z M245,190c-13.785,0-25-11.215-25-25s11.215-25,25-25 c13.785,0,25,11.215,25,25S258.785,190,245,190z"></path></a></g></svg></svg></svg>