<svg version="1.1" xmlns="http://www.w3.org/2000/svg" xmlns:xlink="http://www.w3.org/1999/xlink" fill="transparent" x="0" y="0" width="350" height="350" preserveAspectRatio="xMinYMin slice"><style type="text/css">.links{fill:transparent;stroke: #E4CF37;}.links:hover{fill:#63D272; opacity:0.4;}</style><defs><g id="allt"><path id="t8578" d="M4257,2080 L4246,2082 C4235,2084 4250,2067 4241,2067 C4232,2067 4242,2086 4233,2083 L4224,2080 4224,2080 L4225,2090 C4227,2100 4217,2084 4216,2095 C4216,2106 4226,2092 4225,2102 L4224,2112 4224,2112 L4234,2113 C4245,2115 4228,2105 4239,2104 C4251,2104 4236,2114 4246,2113 L4257,2112 4257,2112 L4257,2101 C4258,2091 4254,2102 4253,2094 C4252,2086 4257,2101 4257,2090 L4257,2080"/></g><clipPath id="c" clipRule="evenodd" fill="transparent"><use href="#t8578"/></clipPath></defs><svg viewBox="4215 2066 44 50" preserveAspectRatio="xMinYMin meet"><svg width="4380" height="2430"><g><image crossorigin="anonymous" x="0" y="0" href="https://nftpuzzle.license-token.com/assets/completepuzzle.svg" width="100%" height="100%" /><g class="links"><use href="#t8578"/></g></g></svg><svg x="4244" y="2101" height="9%" width="9%" viewBox="0 0 330 330"><g><a xlink:href="https://nftpuzzle.license-token.com/" class="links"><title>See the most innovative NFT based token software licensing project</title><path fill="#E4CF37" id="more" d="M165,0C74.019,0,0,74.019,0,165s74.019,165,165,165s165-74.019,165-165S255.981,0,165,0z M85,190 c-13.785,0-25-11.215-25-25s11.215-25,25-25s25,11.215,25,25S98.785,190,85,190z M165,190c-13.785,0-25-11.215-25-25 s11.215-25,25-25s25,11.215,25,25S178.785,190,165,190z M245,190c-13.785,0-25-11.215-25-25s11.215-25,25-25 c13.785,0,25,11.215,25,25S258.785,190,245,190z"></path></a></g></svg></svg></svg>