<svg version="1.1" xmlns="http://www.w3.org/2000/svg" xmlns:xlink="http://www.w3.org/1999/xlink" fill="transparent" x="0" y="0" width="350" height="350" preserveAspectRatio="xMinYMin slice"><style type="text/css">.links{fill:transparent;stroke: #E4CF37;}.links:hover{fill:#63D272; opacity:0.4;}</style><defs><g id="allt"><path id="t8579" d="M4290,2080 L4279,2080 C4269,2080 4281,2073 4271,2073 C4261,2074 4278,2084 4267,2082 L4257,2080 4257,2080 L4257,2090 C4257,2101 4252,2086 4253,2094 C4254,2102 4258,2091 4257,2101 L4257,2112 4257,2112 L4267,2112 C4278,2112 4263,2107 4271,2108 C4280,2109 4268,2113 4279,2112 L4290,2112 L4290,2112 L4290,2080"/></g><clipPath id="c" clipRule="evenodd" fill="transparent"><use href="#t8579"/></clipPath></defs><svg viewBox="4251 2072 40 42" preserveAspectRatio="xMinYMin meet"><svg width="4380" height="2430"><g><image crossorigin="anonymous" x="0" y="0" href="https://nftpuzzle.license-token.com/assets/completepuzzle.svg" width="100%" height="100%" /><g class="links"><use href="#t8579"/></g></g></svg><svg x="4276" y="2099" height="9%" width="9%" viewBox="0 0 330 330"><g><a xlink:href="https://nftpuzzle.license-token.com/" class="links"><title>See the most innovative NFT based token software licensing project</title><path fill="#E4CF37" id="more" d="M165,0C74.019,0,0,74.019,0,165s74.019,165,165,165s165-74.019,165-165S255.981,0,165,0z M85,190 c-13.785,0-25-11.215-25-25s11.215-25,25-25s25,11.215,25,25S98.785,190,85,190z M165,190c-13.785,0-25-11.215-25-25 s11.215-25,25-25s25,11.215,25,25S178.785,190,165,190z M245,190c-13.785,0-25-11.215-25-25s11.215-25,25-25 c13.785,0,25,11.215,25,25S258.785,190,245,190z"></path></a></g></svg></svg></svg>