<svg version="1.1" xmlns="http://www.w3.org/2000/svg" xmlns:xlink="http://www.w3.org/1999/xlink" fill="transparent" x="0" y="0" width="350" height="350" preserveAspectRatio="xMinYMin slice"><style type="text/css">.links{fill:transparent;stroke: #E4CF37;}.links:hover{fill:#63D272; opacity:0.4;}</style><defs><g id="allt"><path id="t858" d="M2607,192 L2597,193 C2587,194 2600,186 2591,184 C2582,182 2592,192 2583,192 L2574,192 2574,192 L2575,201 C2577,210 2569,197 2569,206 C2569,216 2577,203 2575,213 L2574,224 2574,224 L2583,225 C2592,227 2579,219 2589,219 C2599,219 2585,227 2596,225 L2607,224 2607,224 L2609,213 C2611,202 2600,217 2600,206 C2600,196 2607,210 2607,201 L2607,192"/></g><clipPath id="c" clipRule="evenodd" fill="transparent"><use href="#t858"/></clipPath></defs><svg viewBox="2568 181 44 47" preserveAspectRatio="xMinYMin meet"><svg width="4380" height="2430"><g><image crossorigin="anonymous" x="0" y="0" href="https://nftpuzzle.license-token.com/assets/completepuzzle.svg" width="100%" height="100%" /><g class="links"><use href="#t858"/></g></g></svg><svg x="2597" y="213" height="9%" width="9%" viewBox="0 0 330 330"><g><a xlink:href="https://nftpuzzle.license-token.com/" class="links"><title>See the most innovative NFT based token software licensing project</title><path fill="#E4CF37" id="more" d="M165,0C74.019,0,0,74.019,0,165s74.019,165,165,165s165-74.019,165-165S255.981,0,165,0z M85,190 c-13.785,0-25-11.215-25-25s11.215-25,25-25s25,11.215,25,25S98.785,190,85,190z M165,190c-13.785,0-25-11.215-25-25 s11.215-25,25-25s25,11.215,25,25S178.785,190,165,190z M245,190c-13.785,0-25-11.215-25-25s11.215-25,25-25 c13.785,0,25,11.215,25,25S258.785,190,245,190z"></path></a></g></svg></svg></svg>