<svg version="1.1" xmlns="http://www.w3.org/2000/svg" xmlns:xlink="http://www.w3.org/1999/xlink" fill="transparent" x="0" y="0" width="350" height="350" preserveAspectRatio="xMinYMin slice"><style type="text/css">.links{fill:transparent;stroke: #E4CF37;}.links:hover{fill:#63D272; opacity:0.4;}</style><defs><g id="allt"><path id="t8584" d="M165,2112 L155,2113 C145,2115 158,2106 148,2106 C139,2107 152,2114 142,2113 L132,2112 132,2112 L134,2121 C136,2131 119,2117 121,2127 C124,2138 134,2126 133,2135 L132,2144 132,2144 L142,2146 C152,2148 137,2131 148,2133 C159,2136 146,2146 155,2145 L165,2144 165,2144 L166,2133 C168,2122 159,2136 159,2126 C160,2117 169,2132 167,2122 L165,2112"/></g><clipPath id="c" clipRule="evenodd" fill="transparent"><use href="#t8584"/></clipPath></defs><svg viewBox="118 2105 52 44" preserveAspectRatio="xMinYMin meet"><svg width="4380" height="2430"><g><image crossorigin="anonymous" x="0" y="0" href="https://nftpuzzle.license-token.com/assets/completepuzzle.svg" width="100%" height="100%" /><g class="links"><use href="#t8584"/></g></g></svg><svg x="155" y="2134" height="9%" width="9%" viewBox="0 0 330 330"><g><a xlink:href="https://nftpuzzle.license-token.com/" class="links"><title>See the most innovative NFT based token software licensing project</title><path fill="#E4CF37" id="more" d="M165,0C74.019,0,0,74.019,0,165s74.019,165,165,165s165-74.019,165-165S255.981,0,165,0z M85,190 c-13.785,0-25-11.215-25-25s11.215-25,25-25s25,11.215,25,25S98.785,190,85,190z M165,190c-13.785,0-25-11.215-25-25 s11.215-25,25-25s25,11.215,25,25S178.785,190,165,190z M245,190c-13.785,0-25-11.215-25-25s11.215-25,25-25 c13.785,0,25,11.215,25,25S258.785,190,245,190z"></path></a></g></svg></svg></svg>