<svg version="1.1" xmlns="http://www.w3.org/2000/svg" xmlns:xlink="http://www.w3.org/1999/xlink" fill="transparent" x="0" y="0" width="350" height="350" preserveAspectRatio="xMinYMin slice"><style type="text/css">.links{fill:transparent;stroke: #E4CF37;}.links:hover{fill:#63D272; opacity:0.4;}</style><defs><g id="allt"><path id="t8585" d="M198,2112 L187,2112 C176,2112 192,2123 180,2120 C169,2117 184,2111 174,2111 L165,2112 165,2112 L167,2122 C169,2132 160,2117 159,2126 C159,2136 168,2122 166,2133 L165,2144 165,2144 L175,2146 C186,2148 170,2139 180,2138 C190,2138 176,2147 187,2145 L198,2144 198,2144 L198,2135 C198,2126 190,2134 190,2125 C191,2117 198,2131 198,2121 L198,2112"/></g><clipPath id="c" clipRule="evenodd" fill="transparent"><use href="#t8585"/></clipPath></defs><svg viewBox="158 2110 41 39" preserveAspectRatio="xMinYMin meet"><svg width="4380" height="2430"><g><image crossorigin="anonymous" x="0" y="0" href="https://nftpuzzle.license-token.com/assets/completepuzzle.svg" width="100%" height="100%" /><g class="links"><use href="#t8585"/></g></g></svg><svg x="184" y="2134" height="9%" width="9%" viewBox="0 0 330 330"><g><a xlink:href="https://nftpuzzle.license-token.com/" class="links"><title>See the most innovative NFT based token software licensing project</title><path fill="#E4CF37" id="more" d="M165,0C74.019,0,0,74.019,0,165s74.019,165,165,165s165-74.019,165-165S255.981,0,165,0z M85,190 c-13.785,0-25-11.215-25-25s11.215-25,25-25s25,11.215,25,25S98.785,190,85,190z M165,190c-13.785,0-25-11.215-25-25 s11.215-25,25-25s25,11.215,25,25S178.785,190,165,190z M245,190c-13.785,0-25-11.215-25-25s11.215-25,25-25 c13.785,0,25,11.215,25,25S258.785,190,245,190z"></path></a></g></svg></svg></svg>