<svg version="1.1" xmlns="http://www.w3.org/2000/svg" xmlns:xlink="http://www.w3.org/1999/xlink" fill="transparent" x="0" y="0" width="350" height="350" preserveAspectRatio="xMinYMin slice"><style type="text/css">.links{fill:transparent;stroke: #E4CF37;}.links:hover{fill:#63D272; opacity:0.4;}</style><defs><g id="allt"><path id="t8590" d="M363,2112 L352,2112 C341,2113 353,2106 345,2105 C338,2104 349,2114 339,2113 L330,2112 330,2112 L329,2122 C329,2133 337,2121 338,2129 C339,2137 329,2125 329,2134 L330,2144 330,2144 L341,2143 C352,2143 339,2151 347,2152 C356,2153 343,2143 353,2143 L363,2144 363,2144 L363,2133 C364,2123 356,2138 355,2129 C355,2120 364,2131 363,2121 L363,2112"/></g><clipPath id="c" clipRule="evenodd" fill="transparent"><use href="#t8590"/></clipPath></defs><svg viewBox="328 2103 37 51" preserveAspectRatio="xMinYMin meet"><svg width="4380" height="2430"><g><image crossorigin="anonymous" x="0" y="0" href="https://nftpuzzle.license-token.com/assets/completepuzzle.svg" width="100%" height="100%" /><g class="links"><use href="#t8590"/></g></g></svg><svg x="350" y="2139" height="9%" width="9%" viewBox="0 0 330 330"><g><a xlink:href="https://nftpuzzle.license-token.com/" class="links"><title>See the most innovative NFT based token software licensing project</title><path fill="#E4CF37" id="more" d="M165,0C74.019,0,0,74.019,0,165s74.019,165,165,165s165-74.019,165-165S255.981,0,165,0z M85,190 c-13.785,0-25-11.215-25-25s11.215-25,25-25s25,11.215,25,25S98.785,190,85,190z M165,190c-13.785,0-25-11.215-25-25 s11.215-25,25-25s25,11.215,25,25S178.785,190,165,190z M245,190c-13.785,0-25-11.215-25-25s11.215-25,25-25 c13.785,0,25,11.215,25,25S258.785,190,245,190z"></path></a></g></svg></svg></svg>