<svg version="1.1" xmlns="http://www.w3.org/2000/svg" xmlns:xlink="http://www.w3.org/1999/xlink" fill="transparent" x="0" y="0" width="350" height="350" preserveAspectRatio="xMinYMin slice"><style type="text/css">.links{fill:transparent;stroke: #E4CF37;}.links:hover{fill:#63D272; opacity:0.4;}</style><defs><g id="allt"><path id="t8603" d="M792,2112 L782,2112 C772,2112 784,2121 775,2121 C766,2121 780,2110 769,2111 L759,2112 759,2112 L759,2122 C759,2132 765,2121 765,2129 C765,2138 758,2125 758,2134 L759,2144 759,2144 L769,2144 C780,2144 768,2150 777,2150 C786,2150 772,2143 782,2143 L792,2144 792,2144 L790,2134 C789,2125 797,2137 798,2128 C799,2120 789,2130 790,2121 L792,2112"/></g><clipPath id="c" clipRule="evenodd" fill="transparent"><use href="#t8603"/></clipPath></defs><svg viewBox="757 2109 43 42" preserveAspectRatio="xMinYMin meet"><svg width="4380" height="2430"><g><image crossorigin="anonymous" x="0" y="0" href="https://nftpuzzle.license-token.com/assets/completepuzzle.svg" width="100%" height="100%" /><g class="links"><use href="#t8603"/></g></g></svg><svg x="785" y="2136" height="9%" width="9%" viewBox="0 0 330 330"><g><a xlink:href="https://nftpuzzle.license-token.com/" class="links"><title>See the most innovative NFT based token software licensing project</title><path fill="#E4CF37" id="more" d="M165,0C74.019,0,0,74.019,0,165s74.019,165,165,165s165-74.019,165-165S255.981,0,165,0z M85,190 c-13.785,0-25-11.215-25-25s11.215-25,25-25s25,11.215,25,25S98.785,190,85,190z M165,190c-13.785,0-25-11.215-25-25 s11.215-25,25-25s25,11.215,25,25S178.785,190,165,190z M245,190c-13.785,0-25-11.215-25-25s11.215-25,25-25 c13.785,0,25,11.215,25,25S258.785,190,245,190z"></path></a></g></svg></svg></svg>