<svg version="1.1" xmlns="http://www.w3.org/2000/svg" xmlns:xlink="http://www.w3.org/1999/xlink" fill="transparent" x="0" y="0" width="350" height="350" preserveAspectRatio="xMinYMin slice"><style type="text/css">.links{fill:transparent;stroke: #E4CF37;}.links:hover{fill:#63D272; opacity:0.4;}</style><defs><g id="allt"><path id="t8611" d="M1056,2112 L1046,2112 C1036,2112 1047,2106 1039,2105 C1031,2104 1044,2115 1033,2113 L1023,2112 1023,2112 L1023,2122 C1023,2133 1031,2120 1031,2129 C1031,2138 1023,2125 1023,2134 L1023,2144 1023,2144 L1033,2144 C1044,2144 1031,2152 1040,2152 C1050,2152 1037,2144 1046,2144 L1056,2144 1056,2144 L1055,2133 C1055,2123 1061,2138 1060,2129 C1059,2120 1054,2129 1055,2120 L1056,2112"/></g><clipPath id="c" clipRule="evenodd" fill="transparent"><use href="#t8611"/></clipPath></defs><svg viewBox="1022 2103 40 50" preserveAspectRatio="xMinYMin meet"><svg width="4380" height="2430"><g><image crossorigin="anonymous" x="0" y="0" href="https://nftpuzzle.license-token.com/assets/completepuzzle.svg" width="100%" height="100%" /><g class="links"><use href="#t8611"/></g></g></svg><svg x="1047" y="2138" height="9%" width="9%" viewBox="0 0 330 330"><g><a xlink:href="https://nftpuzzle.license-token.com/" class="links"><title>See the most innovative NFT based token software licensing project</title><path fill="#E4CF37" id="more" d="M165,0C74.019,0,0,74.019,0,165s74.019,165,165,165s165-74.019,165-165S255.981,0,165,0z M85,190 c-13.785,0-25-11.215-25-25s11.215-25,25-25s25,11.215,25,25S98.785,190,85,190z M165,190c-13.785,0-25-11.215-25-25 s11.215-25,25-25s25,11.215,25,25S178.785,190,165,190z M245,190c-13.785,0-25-11.215-25-25s11.215-25,25-25 c13.785,0,25,11.215,25,25S258.785,190,245,190z"></path></a></g></svg></svg></svg>