<svg version="1.1" xmlns="http://www.w3.org/2000/svg" xmlns:xlink="http://www.w3.org/1999/xlink" fill="transparent" x="0" y="0" width="350" height="350" preserveAspectRatio="xMinYMin slice"><style type="text/css">.links{fill:transparent;stroke: #E4CF37;}.links:hover{fill:#63D272; opacity:0.4;}</style><defs><g id="allt"><path id="t8613" d="M1122,2112 L1111,2111 C1101,2111 1116,2115 1105,2116 C1094,2117 1107,2112 1098,2112 L1089,2112 1089,2112 L1090,2122 C1091,2132 1086,2121 1084,2129 C1083,2138 1091,2125 1090,2134 L1089,2144 1089,2144 L1099,2145 C1110,2146 1098,2141 1107,2139 C1116,2138 1103,2146 1112,2145 L1122,2144 1122,2144 L1122,2133 C1123,2123 1117,2139 1116,2127 C1115,2116 1122,2133 1122,2122 L1122,2112"/></g><clipPath id="c" clipRule="evenodd" fill="transparent"><use href="#t8613"/></clipPath></defs><svg viewBox="1082 2110 42 37" preserveAspectRatio="xMinYMin meet"><svg width="4380" height="2430"><g><image crossorigin="anonymous" x="0" y="0" href="https://nftpuzzle.license-token.com/assets/completepuzzle.svg" width="100%" height="100%" /><g class="links"><use href="#t8613"/></g></g></svg><svg x="1109" y="2132" height="9%" width="9%" viewBox="0 0 330 330"><g><a xlink:href="https://nftpuzzle.license-token.com/" class="links"><title>See the most innovative NFT based token software licensing project</title><path fill="#E4CF37" id="more" d="M165,0C74.019,0,0,74.019,0,165s74.019,165,165,165s165-74.019,165-165S255.981,0,165,0z M85,190 c-13.785,0-25-11.215-25-25s11.215-25,25-25s25,11.215,25,25S98.785,190,85,190z M165,190c-13.785,0-25-11.215-25-25 s11.215-25,25-25s25,11.215,25,25S178.785,190,165,190z M245,190c-13.785,0-25-11.215-25-25s11.215-25,25-25 c13.785,0,25,11.215,25,25S258.785,190,245,190z"></path></a></g></svg></svg></svg>