<svg version="1.1" xmlns="http://www.w3.org/2000/svg" xmlns:xlink="http://www.w3.org/1999/xlink" fill="transparent" x="0" y="0" width="350" height="350" preserveAspectRatio="xMinYMin slice"><style type="text/css">.links{fill:transparent;stroke: #E4CF37;}.links:hover{fill:#63D272; opacity:0.4;}</style><defs><g id="allt"><path id="t8614" d="M1155,2112 L1145,2111 C1135,2111 1149,2115 1139,2117 C1130,2119 1140,2110 1131,2111 L1122,2112 1122,2112 L1122,2122 C1122,2133 1115,2116 1116,2127 C1117,2139 1123,2123 1122,2133 L1122,2144 1122,2144 L1132,2144 C1143,2144 1126,2137 1138,2138 C1150,2139 1134,2145 1144,2144 L1155,2144 1155,2144 L1156,2135 C1157,2126 1143,2134 1143,2127 C1144,2120 1158,2130 1156,2121 L1155,2112"/></g><clipPath id="c" clipRule="evenodd" fill="transparent"><use href="#t8614"/></clipPath></defs><svg viewBox="1114 2109 45 37" preserveAspectRatio="xMinYMin meet"><svg width="4380" height="2430"><g><image crossorigin="anonymous" x="0" y="0" href="https://nftpuzzle.license-token.com/assets/completepuzzle.svg" width="100%" height="100%" /><g class="links"><use href="#t8614"/></g></g></svg><svg x="1144" y="2131" height="9%" width="9%" viewBox="0 0 330 330"><g><a xlink:href="https://nftpuzzle.license-token.com/" class="links"><title>See the most innovative NFT based token software licensing project</title><path fill="#E4CF37" id="more" d="M165,0C74.019,0,0,74.019,0,165s74.019,165,165,165s165-74.019,165-165S255.981,0,165,0z M85,190 c-13.785,0-25-11.215-25-25s11.215-25,25-25s25,11.215,25,25S98.785,190,85,190z M165,190c-13.785,0-25-11.215-25-25 s11.215-25,25-25s25,11.215,25,25S178.785,190,165,190z M245,190c-13.785,0-25-11.215-25-25s11.215-25,25-25 c13.785,0,25,11.215,25,25S258.785,190,245,190z"></path></a></g></svg></svg></svg>