<svg version="1.1" xmlns="http://www.w3.org/2000/svg" xmlns:xlink="http://www.w3.org/1999/xlink" fill="transparent" x="0" y="0" width="350" height="350" preserveAspectRatio="xMinYMin slice"><style type="text/css">.links{fill:transparent;stroke: #E4CF37;}.links:hover{fill:#63D272; opacity:0.4;}</style><defs><g id="allt"><path id="t8615" d="M1188,2112 L1178,2112 C1169,2112 1181,2116 1172,2116 C1163,2117 1176,2112 1165,2112 L1155,2112 1155,2112 L1156,2121 C1158,2130 1144,2120 1143,2127 C1143,2134 1157,2126 1156,2135 L1155,2144 1155,2144 L1164,2145 C1174,2147 1163,2133 1170,2132 C1178,2132 1169,2146 1178,2145 L1188,2144 1188,2144 L1185,2134 C1183,2124 1198,2138 1196,2128 C1195,2118 1185,2130 1186,2121 L1188,2112"/></g><clipPath id="c" clipRule="evenodd" fill="transparent"><use href="#t8615"/></clipPath></defs><svg viewBox="1142 2111 57 37" preserveAspectRatio="xMinYMin meet"><svg width="4380" height="2430"><g><image crossorigin="anonymous" x="0" y="0" href="https://nftpuzzle.license-token.com/assets/completepuzzle.svg" width="100%" height="100%" /><g class="links"><use href="#t8615"/></g></g></svg><svg x="1184" y="2133" height="9%" width="9%" viewBox="0 0 330 330"><g><a xlink:href="https://nftpuzzle.license-token.com/" class="links"><title>See the most innovative NFT based token software licensing project</title><path fill="#E4CF37" id="more" d="M165,0C74.019,0,0,74.019,0,165s74.019,165,165,165s165-74.019,165-165S255.981,0,165,0z M85,190 c-13.785,0-25-11.215-25-25s11.215-25,25-25s25,11.215,25,25S98.785,190,85,190z M165,190c-13.785,0-25-11.215-25-25 s11.215-25,25-25s25,11.215,25,25S178.785,190,165,190z M245,190c-13.785,0-25-11.215-25-25s11.215-25,25-25 c13.785,0,25,11.215,25,25S258.785,190,245,190z"></path></a></g></svg></svg></svg>