<svg version="1.1" xmlns="http://www.w3.org/2000/svg" xmlns:xlink="http://www.w3.org/1999/xlink" fill="transparent" x="0" y="0" width="350" height="350" preserveAspectRatio="xMinYMin slice"><style type="text/css">.links{fill:transparent;stroke: #E4CF37;}.links:hover{fill:#63D272; opacity:0.4;}</style><defs><g id="allt"><path id="t8623" d="M1452,2112 L1441,2112 C1430,2112 1442,2104 1433,2105 C1424,2106 1438,2113 1428,2112 L1419,2112 1419,2112 L1419,2121 C1419,2130 1417,2121 1416,2128 C1416,2135 1420,2125 1419,2134 L1419,2144 1419,2144 L1428,2144 C1438,2144 1428,2142 1435,2141 C1443,2141 1433,2145 1442,2144 L1452,2144 1452,2144 L1452,2134 C1452,2125 1456,2134 1456,2126 C1456,2119 1452,2131 1452,2121 L1452,2112"/></g><clipPath id="c" clipRule="evenodd" fill="transparent"><use href="#t8623"/></clipPath></defs><svg viewBox="1415 2103 42 43" preserveAspectRatio="xMinYMin meet"><svg width="4380" height="2430"><g><image crossorigin="anonymous" x="0" y="0" href="https://nftpuzzle.license-token.com/assets/completepuzzle.svg" width="100%" height="100%" /><g class="links"><use href="#t8623"/></g></g></svg><svg x="1442" y="2131" height="9%" width="9%" viewBox="0 0 330 330"><g><a xlink:href="https://nftpuzzle.license-token.com/" class="links"><title>See the most innovative NFT based token software licensing project</title><path fill="#E4CF37" id="more" d="M165,0C74.019,0,0,74.019,0,165s74.019,165,165,165s165-74.019,165-165S255.981,0,165,0z M85,190 c-13.785,0-25-11.215-25-25s11.215-25,25-25s25,11.215,25,25S98.785,190,85,190z M165,190c-13.785,0-25-11.215-25-25 s11.215-25,25-25s25,11.215,25,25S178.785,190,165,190z M245,190c-13.785,0-25-11.215-25-25s11.215-25,25-25 c13.785,0,25,11.215,25,25S258.785,190,245,190z"></path></a></g></svg></svg></svg>