<svg version="1.1" xmlns="http://www.w3.org/2000/svg" xmlns:xlink="http://www.w3.org/1999/xlink" fill="transparent" x="0" y="0" width="350" height="350" preserveAspectRatio="xMinYMin slice"><style type="text/css">.links{fill:transparent;stroke: #E4CF37;}.links:hover{fill:#63D272; opacity:0.4;}</style><defs><g id="allt"><path id="t8636" d="M1881,2112 L1871,2110 C1862,2108 1873,2118 1862,2118 C1852,2118 1869,2110 1858,2111 L1848,2112 1848,2112 L1848,2121 C1849,2130 1843,2117 1842,2126 C1842,2136 1849,2123 1848,2133 L1848,2144 1848,2144 L1857,2144 C1867,2145 1853,2139 1862,2138 C1872,2138 1859,2145 1870,2144 L1881,2144 1881,2144 L1881,2135 C1881,2126 1887,2136 1887,2127 C1888,2119 1880,2129 1880,2120 L1881,2112"/></g><clipPath id="c" clipRule="evenodd" fill="transparent"><use href="#t8636"/></clipPath></defs><svg viewBox="1841 2107 48 39" preserveAspectRatio="xMinYMin meet"><svg width="4380" height="2430"><g><image crossorigin="anonymous" x="0" y="0" href="https://nftpuzzle.license-token.com/assets/completepuzzle.svg" width="100%" height="100%" /><g class="links"><use href="#t8636"/></g></g></svg><svg x="1874" y="2131" height="9%" width="9%" viewBox="0 0 330 330"><g><a xlink:href="https://nftpuzzle.license-token.com/" class="links"><title>See the most innovative NFT based token software licensing project</title><path fill="#E4CF37" id="more" d="M165,0C74.019,0,0,74.019,0,165s74.019,165,165,165s165-74.019,165-165S255.981,0,165,0z M85,190 c-13.785,0-25-11.215-25-25s11.215-25,25-25s25,11.215,25,25S98.785,190,85,190z M165,190c-13.785,0-25-11.215-25-25 s11.215-25,25-25s25,11.215,25,25S178.785,190,165,190z M245,190c-13.785,0-25-11.215-25-25s11.215-25,25-25 c13.785,0,25,11.215,25,25S258.785,190,245,190z"></path></a></g></svg></svg></svg>