<svg version="1.1" xmlns="http://www.w3.org/2000/svg" xmlns:xlink="http://www.w3.org/1999/xlink" fill="transparent" x="0" y="0" width="350" height="350" preserveAspectRatio="xMinYMin slice"><style type="text/css">.links{fill:transparent;stroke: #E4CF37;}.links:hover{fill:#63D272; opacity:0.4;}</style><defs><g id="allt"><path id="t8637" d="M1914,2112 L1902,2112 C1891,2112 1906,2105 1896,2107 C1886,2109 1901,2115 1891,2113 L1881,2112 1881,2112 L1880,2120 C1880,2129 1888,2119 1887,2127 C1887,2136 1881,2126 1881,2135 L1881,2144 1881,2144 L1890,2143 C1899,2143 1888,2151 1897,2150 C1906,2150 1895,2144 1904,2144 L1914,2144 1914,2144 L1915,2135 C1917,2126 1909,2136 1910,2128 C1911,2120 1916,2130 1915,2121 L1914,2112"/></g><clipPath id="c" clipRule="evenodd" fill="transparent"><use href="#t8637"/></clipPath></defs><svg viewBox="1879 2104 39 48" preserveAspectRatio="xMinYMin meet"><svg width="4380" height="2430"><g><image crossorigin="anonymous" x="0" y="0" href="https://nftpuzzle.license-token.com/assets/completepuzzle.svg" width="100%" height="100%" /><g class="links"><use href="#t8637"/></g></g></svg><svg x="1903" y="2137" height="9%" width="9%" viewBox="0 0 330 330"><g><a xlink:href="https://nftpuzzle.license-token.com/" class="links"><title>See the most innovative NFT based token software licensing project</title><path fill="#E4CF37" id="more" d="M165,0C74.019,0,0,74.019,0,165s74.019,165,165,165s165-74.019,165-165S255.981,0,165,0z M85,190 c-13.785,0-25-11.215-25-25s11.215-25,25-25s25,11.215,25,25S98.785,190,85,190z M165,190c-13.785,0-25-11.215-25-25 s11.215-25,25-25s25,11.215,25,25S178.785,190,165,190z M245,190c-13.785,0-25-11.215-25-25s11.215-25,25-25 c13.785,0,25,11.215,25,25S258.785,190,245,190z"></path></a></g></svg></svg></svg>