<svg version="1.1" xmlns="http://www.w3.org/2000/svg" xmlns:xlink="http://www.w3.org/1999/xlink" fill="transparent" x="0" y="0" width="350" height="350" preserveAspectRatio="xMinYMin slice"><style type="text/css">.links{fill:transparent;stroke: #E4CF37;}.links:hover{fill:#63D272; opacity:0.4;}</style><defs><g id="allt"><path id="t8642" d="M2079,2112 L2068,2112 C2057,2112 2073,2108 2062,2108 C2052,2109 2066,2113 2056,2112 L2046,2112 2046,2112 L2047,2121 C2048,2131 2042,2120 2042,2128 C2042,2137 2048,2125 2047,2134 L2046,2144 2046,2144 L2055,2145 C2065,2146 2054,2140 2063,2140 C2072,2140 2059,2146 2069,2145 L2079,2144 2079,2144 L2081,2134 C2083,2125 2070,2138 2072,2127 C2075,2116 2083,2131 2081,2121 L2079,2112"/></g><clipPath id="c" clipRule="evenodd" fill="transparent"><use href="#t8642"/></clipPath></defs><svg viewBox="2041 2107 43 40" preserveAspectRatio="xMinYMin meet"><svg width="4380" height="2430"><g><image crossorigin="anonymous" x="0" y="0" href="https://nftpuzzle.license-token.com/assets/completepuzzle.svg" width="100%" height="100%" /><g class="links"><use href="#t8642"/></g></g></svg><svg x="2069" y="2132" height="9%" width="9%" viewBox="0 0 330 330"><g><a xlink:href="https://nftpuzzle.license-token.com/" class="links"><title>See the most innovative NFT based token software licensing project</title><path fill="#E4CF37" id="more" d="M165,0C74.019,0,0,74.019,0,165s74.019,165,165,165s165-74.019,165-165S255.981,0,165,0z M85,190 c-13.785,0-25-11.215-25-25s11.215-25,25-25s25,11.215,25,25S98.785,190,85,190z M165,190c-13.785,0-25-11.215-25-25 s11.215-25,25-25s25,11.215,25,25S178.785,190,165,190z M245,190c-13.785,0-25-11.215-25-25s11.215-25,25-25 c13.785,0,25,11.215,25,25S258.785,190,245,190z"></path></a></g></svg></svg></svg>