<svg version="1.1" xmlns="http://www.w3.org/2000/svg" xmlns:xlink="http://www.w3.org/1999/xlink" fill="transparent" x="0" y="0" width="350" height="350" preserveAspectRatio="xMinYMin slice"><style type="text/css">.links{fill:transparent;stroke: #E4CF37;}.links:hover{fill:#63D272; opacity:0.4;}</style><defs><g id="allt"><path id="t8645" d="M2178,2112 L2167,2111 C2156,2111 2170,2121 2160,2121 C2151,2121 2164,2111 2154,2111 L2145,2112 2145,2112 L2145,2120 C2145,2129 2153,2117 2153,2126 C2153,2136 2145,2124 2145,2134 L2145,2144 2145,2144 L2154,2144 C2163,2144 2150,2152 2160,2152 C2170,2152 2157,2144 2167,2144 L2178,2144 2178,2144 L2179,2133 C2181,2123 2166,2138 2167,2129 C2168,2120 2178,2131 2178,2121 L2178,2112"/></g><clipPath id="c" clipRule="evenodd" fill="transparent"><use href="#t8645"/></clipPath></defs><svg viewBox="2144 2110 38 43" preserveAspectRatio="xMinYMin meet"><svg width="4380" height="2430"><g><image crossorigin="anonymous" x="0" y="0" href="https://nftpuzzle.license-token.com/assets/completepuzzle.svg" width="100%" height="100%" /><g class="links"><use href="#t8645"/></g></g></svg><svg x="2167" y="2138" height="9%" width="9%" viewBox="0 0 330 330"><g><a xlink:href="https://nftpuzzle.license-token.com/" class="links"><title>See the most innovative NFT based token software licensing project</title><path fill="#E4CF37" id="more" d="M165,0C74.019,0,0,74.019,0,165s74.019,165,165,165s165-74.019,165-165S255.981,0,165,0z M85,190 c-13.785,0-25-11.215-25-25s11.215-25,25-25s25,11.215,25,25S98.785,190,85,190z M165,190c-13.785,0-25-11.215-25-25 s11.215-25,25-25s25,11.215,25,25S178.785,190,165,190z M245,190c-13.785,0-25-11.215-25-25s11.215-25,25-25 c13.785,0,25,11.215,25,25S258.785,190,245,190z"></path></a></g></svg></svg></svg>