<svg version="1.1" xmlns="http://www.w3.org/2000/svg" xmlns:xlink="http://www.w3.org/1999/xlink" fill="transparent" x="0" y="0" width="350" height="350" preserveAspectRatio="xMinYMin slice"><style type="text/css">.links{fill:transparent;stroke: #E4CF37;}.links:hover{fill:#63D272; opacity:0.4;}</style><defs><g id="allt"><path id="t8646" d="M2211,2112 L2199,2112 C2188,2112 2201,2104 2192,2105 C2184,2106 2198,2112 2188,2112 L2178,2112 2178,2112 L2178,2121 C2178,2131 2168,2120 2167,2129 C2166,2138 2181,2123 2179,2133 L2178,2144 2178,2144 L2188,2144 C2198,2144 2186,2134 2195,2133 C2205,2133 2189,2147 2200,2145 L2211,2144 2211,2144 L2211,2133 C2212,2123 2208,2136 2208,2127 C2209,2119 2211,2133 2211,2122 L2211,2112"/></g><clipPath id="c" clipRule="evenodd" fill="transparent"><use href="#t8646"/></clipPath></defs><svg viewBox="2165 2103 48 45" preserveAspectRatio="xMinYMin meet"><svg width="4380" height="2430"><g><image crossorigin="anonymous" x="0" y="0" href="https://nftpuzzle.license-token.com/assets/completepuzzle.svg" width="100%" height="100%" /><g class="links"><use href="#t8646"/></g></g></svg><svg x="2198" y="2133" height="9%" width="9%" viewBox="0 0 330 330"><g><a xlink:href="https://nftpuzzle.license-token.com/" class="links"><title>See the most innovative NFT based token software licensing project</title><path fill="#E4CF37" id="more" d="M165,0C74.019,0,0,74.019,0,165s74.019,165,165,165s165-74.019,165-165S255.981,0,165,0z M85,190 c-13.785,0-25-11.215-25-25s11.215-25,25-25s25,11.215,25,25S98.785,190,85,190z M165,190c-13.785,0-25-11.215-25-25 s11.215-25,25-25s25,11.215,25,25S178.785,190,165,190z M245,190c-13.785,0-25-11.215-25-25s11.215-25,25-25 c13.785,0,25,11.215,25,25S258.785,190,245,190z"></path></a></g></svg></svg></svg>