<svg version="1.1" xmlns="http://www.w3.org/2000/svg" xmlns:xlink="http://www.w3.org/1999/xlink" fill="transparent" x="0" y="0" width="350" height="350" preserveAspectRatio="xMinYMin slice"><style type="text/css">.links{fill:transparent;stroke: #E4CF37;}.links:hover{fill:#63D272; opacity:0.4;}</style><defs><g id="allt"><path id="t8648" d="M2277,2112 L2267,2113 C2258,2114 2268,2106 2258,2107 C2249,2108 2265,2112 2254,2112 L2244,2112 2244,2112 L2246,2121 C2248,2130 2234,2119 2234,2126 C2234,2134 2244,2124 2244,2134 L2244,2144 2244,2144 L2253,2146 C2262,2148 2251,2134 2259,2134 C2267,2135 2256,2144 2266,2144 L2277,2144 2277,2144 L2277,2134 C2277,2125 2275,2135 2274,2127 C2274,2119 2279,2132 2278,2122 L2277,2112"/></g><clipPath id="c" clipRule="evenodd" fill="transparent"><use href="#t8648"/></clipPath></defs><svg viewBox="2233 2105 47 44" preserveAspectRatio="xMinYMin meet"><svg width="4380" height="2430"><g><image crossorigin="anonymous" x="0" y="0" href="https://nftpuzzle.license-token.com/assets/completepuzzle.svg" width="100%" height="100%" /><g class="links"><use href="#t8648"/></g></g></svg><svg x="2265" y="2134" height="9%" width="9%" viewBox="0 0 330 330"><g><a xlink:href="https://nftpuzzle.license-token.com/" class="links"><title>See the most innovative NFT based token software licensing project</title><path fill="#E4CF37" id="more" d="M165,0C74.019,0,0,74.019,0,165s74.019,165,165,165s165-74.019,165-165S255.981,0,165,0z M85,190 c-13.785,0-25-11.215-25-25s11.215-25,25-25s25,11.215,25,25S98.785,190,85,190z M165,190c-13.785,0-25-11.215-25-25 s11.215-25,25-25s25,11.215,25,25S178.785,190,165,190z M245,190c-13.785,0-25-11.215-25-25s11.215-25,25-25 c13.785,0,25,11.215,25,25S258.785,190,245,190z"></path></a></g></svg></svg></svg>