<svg version="1.1" xmlns="http://www.w3.org/2000/svg" xmlns:xlink="http://www.w3.org/1999/xlink" fill="transparent" x="0" y="0" width="350" height="350" preserveAspectRatio="xMinYMin slice"><style type="text/css">.links{fill:transparent;stroke: #E4CF37;}.links:hover{fill:#63D272; opacity:0.4;}</style><defs><g id="allt"><path id="t8649" d="M2310,2112 L2298,2112 C2287,2113 2303,2107 2294,2108 C2286,2109 2296,2113 2286,2112 L2277,2112 2277,2112 L2278,2122 C2279,2132 2274,2119 2274,2127 C2275,2135 2277,2125 2277,2134 L2277,2144 2277,2144 L2287,2145 C2298,2146 2284,2141 2292,2141 C2301,2142 2291,2144 2300,2144 L2310,2144 2310,2144 L2310,2134 C2310,2125 2315,2137 2314,2128 C2314,2119 2309,2132 2309,2122 L2310,2112"/></g><clipPath id="c" clipRule="evenodd" fill="transparent"><use href="#t8649"/></clipPath></defs><svg viewBox="2273 2106 43 41" preserveAspectRatio="xMinYMin meet"><svg width="4380" height="2430"><g><image crossorigin="anonymous" x="0" y="0" href="https://nftpuzzle.license-token.com/assets/completepuzzle.svg" width="100%" height="100%" /><g class="links"><use href="#t8649"/></g></g></svg><svg x="2301" y="2132" height="9%" width="9%" viewBox="0 0 330 330"><g><a xlink:href="https://nftpuzzle.license-token.com/" class="links"><title>See the most innovative NFT based token software licensing project</title><path fill="#E4CF37" id="more" d="M165,0C74.019,0,0,74.019,0,165s74.019,165,165,165s165-74.019,165-165S255.981,0,165,0z M85,190 c-13.785,0-25-11.215-25-25s11.215-25,25-25s25,11.215,25,25S98.785,190,85,190z M165,190c-13.785,0-25-11.215-25-25 s11.215-25,25-25s25,11.215,25,25S178.785,190,165,190z M245,190c-13.785,0-25-11.215-25-25s11.215-25,25-25 c13.785,0,25,11.215,25,25S258.785,190,245,190z"></path></a></g></svg></svg></svg>