<svg version="1.1" xmlns="http://www.w3.org/2000/svg" xmlns:xlink="http://www.w3.org/1999/xlink" fill="transparent" x="0" y="0" width="350" height="350" preserveAspectRatio="xMinYMin slice"><style type="text/css">.links{fill:transparent;stroke: #E4CF37;}.links:hover{fill:#63D272; opacity:0.4;}</style><defs><g id="allt"><path id="t865" d="M2838,192 L2828,192 C2818,192 2831,199 2822,199 C2813,199 2825,192 2815,192 L2805,192 2805,192 L2805,200 C2806,209 2815,199 2814,208 C2814,217 2804,204 2804,214 L2805,224 2805,224 L2814,224 C2823,225 2812,233 2821,233 C2831,233 2818,223 2828,223 L2838,224 2838,224 L2836,215 C2835,206 2843,214 2846,206 C2849,199 2838,210 2838,201 L2838,192"/></g><clipPath id="c" clipRule="evenodd" fill="transparent"><use href="#t865"/></clipPath></defs><svg viewBox="2803 191 47 43" preserveAspectRatio="xMinYMin meet"><svg width="4380" height="2430"><g><image crossorigin="anonymous" x="0" y="0" href="https://nftpuzzle.license-token.com/assets/completepuzzle.svg" width="100%" height="100%" /><g class="links"><use href="#t865"/></g></g></svg><svg x="2835" y="219" height="9%" width="9%" viewBox="0 0 330 330"><g><a xlink:href="https://nftpuzzle.license-token.com/" class="links"><title>See the most innovative NFT based token software licensing project</title><path fill="#E4CF37" id="more" d="M165,0C74.019,0,0,74.019,0,165s74.019,165,165,165s165-74.019,165-165S255.981,0,165,0z M85,190 c-13.785,0-25-11.215-25-25s11.215-25,25-25s25,11.215,25,25S98.785,190,85,190z M165,190c-13.785,0-25-11.215-25-25 s11.215-25,25-25s25,11.215,25,25S178.785,190,165,190z M245,190c-13.785,0-25-11.215-25-25s11.215-25,25-25 c13.785,0,25,11.215,25,25S258.785,190,245,190z"></path></a></g></svg></svg></svg>