<svg version="1.1" xmlns="http://www.w3.org/2000/svg" xmlns:xlink="http://www.w3.org/1999/xlink" fill="transparent" x="0" y="0" width="350" height="350" preserveAspectRatio="xMinYMin slice"><style type="text/css">.links{fill:transparent;stroke: #E4CF37;}.links:hover{fill:#63D272; opacity:0.4;}</style><defs><g id="allt"><path id="t8654" d="M2475,2112 L2464,2111 C2453,2110 2465,2115 2457,2116 C2449,2117 2463,2112 2452,2112 L2442,2112 2442,2112 L2442,2121 C2442,2130 2439,2116 2439,2125 C2439,2134 2444,2125 2443,2134 L2442,2144 2442,2144 L2451,2144 C2461,2144 2446,2141 2455,2141 C2465,2141 2455,2146 2465,2145 L2475,2144 2475,2144 L2475,2135 C2476,2126 2470,2136 2470,2126 C2470,2117 2475,2129 2475,2120 L2475,2112"/></g><clipPath id="c" clipRule="evenodd" fill="transparent"><use href="#t8654"/></clipPath></defs><svg viewBox="2438 2109 39 38" preserveAspectRatio="xMinYMin meet"><svg width="4380" height="2430"><g><image crossorigin="anonymous" x="0" y="0" href="https://nftpuzzle.license-token.com/assets/completepuzzle.svg" width="100%" height="100%" /><g class="links"><use href="#t8654"/></g></g></svg><svg x="2462" y="2132" height="9%" width="9%" viewBox="0 0 330 330"><g><a xlink:href="https://nftpuzzle.license-token.com/" class="links"><title>See the most innovative NFT based token software licensing project</title><path fill="#E4CF37" id="more" d="M165,0C74.019,0,0,74.019,0,165s74.019,165,165,165s165-74.019,165-165S255.981,0,165,0z M85,190 c-13.785,0-25-11.215-25-25s11.215-25,25-25s25,11.215,25,25S98.785,190,85,190z M165,190c-13.785,0-25-11.215-25-25 s11.215-25,25-25s25,11.215,25,25S178.785,190,165,190z M245,190c-13.785,0-25-11.215-25-25s11.215-25,25-25 c13.785,0,25,11.215,25,25S258.785,190,245,190z"></path></a></g></svg></svg></svg>