<svg version="1.1" xmlns="http://www.w3.org/2000/svg" xmlns:xlink="http://www.w3.org/1999/xlink" fill="transparent" x="0" y="0" width="350" height="350" preserveAspectRatio="xMinYMin slice"><style type="text/css">.links{fill:transparent;stroke: #E4CF37;}.links:hover{fill:#63D272; opacity:0.4;}</style><defs><g id="allt"><path id="t8656" d="M2541,2112 L2531,2112 C2521,2112 2535,2107 2524,2108 C2514,2109 2527,2112 2517,2112 L2508,2112 2508,2112 L2507,2121 C2506,2130 2510,2121 2511,2128 C2512,2135 2507,2123 2507,2133 L2508,2144 2508,2144 L2517,2143 C2527,2142 2517,2146 2524,2147 C2531,2148 2519,2143 2530,2143 L2541,2144 2541,2144 L2541,2134 C2541,2124 2548,2138 2547,2129 C2547,2121 2540,2131 2540,2121 L2541,2112"/></g><clipPath id="c" clipRule="evenodd" fill="transparent"><use href="#t8656"/></clipPath></defs><svg viewBox="2505 2106 44 43" preserveAspectRatio="xMinYMin meet"><svg width="4380" height="2430"><g><image crossorigin="anonymous" x="0" y="0" href="https://nftpuzzle.license-token.com/assets/completepuzzle.svg" width="100%" height="100%" /><g class="links"><use href="#t8656"/></g></g></svg><svg x="2534" y="2134" height="9%" width="9%" viewBox="0 0 330 330"><g><a xlink:href="https://nftpuzzle.license-token.com/" class="links"><title>See the most innovative NFT based token software licensing project</title><path fill="#E4CF37" id="more" d="M165,0C74.019,0,0,74.019,0,165s74.019,165,165,165s165-74.019,165-165S255.981,0,165,0z M85,190 c-13.785,0-25-11.215-25-25s11.215-25,25-25s25,11.215,25,25S98.785,190,85,190z M165,190c-13.785,0-25-11.215-25-25 s11.215-25,25-25s25,11.215,25,25S178.785,190,165,190z M245,190c-13.785,0-25-11.215-25-25s11.215-25,25-25 c13.785,0,25,11.215,25,25S258.785,190,245,190z"></path></a></g></svg></svg></svg>