<svg version="1.1" xmlns="http://www.w3.org/2000/svg" xmlns:xlink="http://www.w3.org/1999/xlink" fill="transparent" x="0" y="0" width="350" height="350" preserveAspectRatio="xMinYMin slice"><style type="text/css">.links{fill:transparent;stroke: #E4CF37;}.links:hover{fill:#63D272; opacity:0.4;}</style><defs><g id="allt"><path id="t8658" d="M2607,2112 L2595,2111 C2584,2111 2601,2120 2590,2119 C2579,2118 2593,2110 2583,2111 L2574,2112 2574,2112 L2576,2121 C2578,2131 2569,2120 2566,2127 C2563,2134 2573,2126 2573,2135 L2574,2144 2574,2144 L2584,2146 C2594,2148 2582,2139 2589,2136 C2597,2134 2588,2143 2597,2143 L2607,2144 2607,2144 L2607,2134 C2607,2125 2602,2135 2600,2128 C2598,2121 2609,2132 2608,2122 L2607,2112"/></g><clipPath id="c" clipRule="evenodd" fill="transparent"><use href="#t8658"/></clipPath></defs><svg viewBox="2562 2109 48 40" preserveAspectRatio="xMinYMin meet"><svg width="4380" height="2430"><g><image crossorigin="anonymous" x="0" y="0" href="https://nftpuzzle.license-token.com/assets/completepuzzle.svg" width="100%" height="100%" /><g class="links"><use href="#t8658"/></g></g></svg><svg x="2595" y="2134" height="9%" width="9%" viewBox="0 0 330 330"><g><a xlink:href="https://nftpuzzle.license-token.com/" class="links"><title>See the most innovative NFT based token software licensing project</title><path fill="#E4CF37" id="more" d="M165,0C74.019,0,0,74.019,0,165s74.019,165,165,165s165-74.019,165-165S255.981,0,165,0z M85,190 c-13.785,0-25-11.215-25-25s11.215-25,25-25s25,11.215,25,25S98.785,190,85,190z M165,190c-13.785,0-25-11.215-25-25 s11.215-25,25-25s25,11.215,25,25S178.785,190,165,190z M245,190c-13.785,0-25-11.215-25-25s11.215-25,25-25 c13.785,0,25,11.215,25,25S258.785,190,245,190z"></path></a></g></svg></svg></svg>