<svg version="1.1" xmlns="http://www.w3.org/2000/svg" xmlns:xlink="http://www.w3.org/1999/xlink" fill="transparent" x="0" y="0" width="350" height="350" preserveAspectRatio="xMinYMin slice"><style type="text/css">.links{fill:transparent;stroke: #E4CF37;}.links:hover{fill:#63D272; opacity:0.4;}</style><defs><g id="allt"><path id="t8662" d="M2739,2112 L2727,2112 C2716,2112 2733,2117 2721,2116 C2710,2116 2726,2110 2716,2111 L2706,2112 2706,2112 L2706,2120 C2706,2129 2700,2118 2700,2127 C2700,2137 2706,2125 2706,2134 L2706,2144 2706,2144 L2715,2144 C2724,2144 2712,2138 2722,2138 C2732,2138 2719,2144 2729,2144 L2739,2144 2739,2144 L2739,2134 C2739,2125 2735,2136 2735,2126 C2736,2117 2740,2131 2739,2121 L2739,2112"/></g><clipPath id="c" clipRule="evenodd" fill="transparent"><use href="#t8662"/></clipPath></defs><svg viewBox="2699 2109 42 36" preserveAspectRatio="xMinYMin meet"><svg width="4380" height="2430"><g><image crossorigin="anonymous" x="0" y="0" href="https://nftpuzzle.license-token.com/assets/completepuzzle.svg" width="100%" height="100%" /><g class="links"><use href="#t8662"/></g></g></svg><svg x="2726" y="2130" height="9%" width="9%" viewBox="0 0 330 330"><g><a xlink:href="https://nftpuzzle.license-token.com/" class="links"><title>See the most innovative NFT based token software licensing project</title><path fill="#E4CF37" id="more" d="M165,0C74.019,0,0,74.019,0,165s74.019,165,165,165s165-74.019,165-165S255.981,0,165,0z M85,190 c-13.785,0-25-11.215-25-25s11.215-25,25-25s25,11.215,25,25S98.785,190,85,190z M165,190c-13.785,0-25-11.215-25-25 s11.215-25,25-25s25,11.215,25,25S178.785,190,165,190z M245,190c-13.785,0-25-11.215-25-25s11.215-25,25-25 c13.785,0,25,11.215,25,25S258.785,190,245,190z"></path></a></g></svg></svg></svg>