<svg version="1.1" xmlns="http://www.w3.org/2000/svg" xmlns:xlink="http://www.w3.org/1999/xlink" fill="transparent" x="0" y="0" width="350" height="350" preserveAspectRatio="xMinYMin slice"><style type="text/css">.links{fill:transparent;stroke: #E4CF37;}.links:hover{fill:#63D272; opacity:0.4;}</style><defs><g id="allt"><path id="t8667" d="M2904,2112 L2894,2114 C2884,2116 2897,2106 2887,2104 C2877,2103 2889,2115 2880,2113 L2871,2112 2871,2112 L2870,2121 C2869,2130 2876,2117 2878,2126 C2880,2136 2869,2123 2870,2133 L2871,2144 2871,2144 L2880,2143 C2890,2142 2876,2149 2885,2151 C2895,2153 2882,2142 2893,2143 L2904,2144 2904,2144 L2904,2134 C2904,2125 2892,2135 2893,2126 C2895,2117 2906,2129 2905,2120 L2904,2112"/></g><clipPath id="c" clipRule="evenodd" fill="transparent"><use href="#t8667"/></clipPath></defs><svg viewBox="2868 2102 39 52" preserveAspectRatio="xMinYMin meet"><svg width="4380" height="2430"><g><image crossorigin="anonymous" x="0" y="0" href="https://nftpuzzle.license-token.com/assets/completepuzzle.svg" width="100%" height="100%" /><g class="links"><use href="#t8667"/></g></g></svg><svg x="2892" y="2139" height="9%" width="9%" viewBox="0 0 330 330"><g><a xlink:href="https://nftpuzzle.license-token.com/" class="links"><title>See the most innovative NFT based token software licensing project</title><path fill="#E4CF37" id="more" d="M165,0C74.019,0,0,74.019,0,165s74.019,165,165,165s165-74.019,165-165S255.981,0,165,0z M85,190 c-13.785,0-25-11.215-25-25s11.215-25,25-25s25,11.215,25,25S98.785,190,85,190z M165,190c-13.785,0-25-11.215-25-25 s11.215-25,25-25s25,11.215,25,25S178.785,190,165,190z M245,190c-13.785,0-25-11.215-25-25s11.215-25,25-25 c13.785,0,25,11.215,25,25S258.785,190,245,190z"></path></a></g></svg></svg></svg>