<svg version="1.1" xmlns="http://www.w3.org/2000/svg" xmlns:xlink="http://www.w3.org/1999/xlink" fill="transparent" x="0" y="0" width="350" height="350" preserveAspectRatio="xMinYMin slice"><style type="text/css">.links{fill:transparent;stroke: #E4CF37;}.links:hover{fill:#63D272; opacity:0.4;}</style><defs><g id="allt"><path id="t8669" d="M2970,2112 L2960,2112 C2951,2112 2963,2105 2953,2106 C2943,2108 2957,2112 2947,2112 L2937,2112 2937,2112 L2937,2121 C2937,2131 2929,2118 2930,2128 C2932,2138 2937,2124 2937,2134 L2937,2144 2937,2144 L2947,2144 C2957,2144 2943,2136 2953,2137 C2964,2139 2950,2144 2960,2144 L2970,2144 2970,2144 L2970,2133 C2970,2122 2961,2135 2962,2126 C2964,2118 2974,2131 2972,2121 L2970,2112"/></g><clipPath id="c" clipRule="evenodd" fill="transparent"><use href="#t8669"/></clipPath></defs><svg viewBox="2928 2104 47 41" preserveAspectRatio="xMinYMin meet"><svg width="4380" height="2430"><g><image crossorigin="anonymous" x="0" y="0" href="https://nftpuzzle.license-token.com/assets/completepuzzle.svg" width="100%" height="100%" /><g class="links"><use href="#t8669"/></g></g></svg><svg x="2960" y="2130" height="9%" width="9%" viewBox="0 0 330 330"><g><a xlink:href="https://nftpuzzle.license-token.com/" class="links"><title>See the most innovative NFT based token software licensing project</title><path fill="#E4CF37" id="more" d="M165,0C74.019,0,0,74.019,0,165s74.019,165,165,165s165-74.019,165-165S255.981,0,165,0z M85,190 c-13.785,0-25-11.215-25-25s11.215-25,25-25s25,11.215,25,25S98.785,190,85,190z M165,190c-13.785,0-25-11.215-25-25 s11.215-25,25-25s25,11.215,25,25S178.785,190,165,190z M245,190c-13.785,0-25-11.215-25-25s11.215-25,25-25 c13.785,0,25,11.215,25,25S258.785,190,245,190z"></path></a></g></svg></svg></svg>