<svg version="1.1" xmlns="http://www.w3.org/2000/svg" xmlns:xlink="http://www.w3.org/1999/xlink" fill="transparent" x="0" y="0" width="350" height="350" preserveAspectRatio="xMinYMin slice"><style type="text/css">.links{fill:transparent;stroke: #E4CF37;}.links:hover{fill:#63D272; opacity:0.4;}</style><defs><g id="allt"><path id="t8670" d="M3003,2112 L2993,2112 C2984,2113 2993,2103 2985,2105 C2977,2107 2990,2113 2980,2112 L2970,2112 2970,2112 L2972,2121 C2974,2131 2964,2118 2962,2126 C2961,2135 2970,2122 2970,2133 L2970,2144 2970,2144 L2980,2146 C2990,2148 2976,2138 2985,2136 C2994,2135 2980,2144 2991,2144 L3003,2144 3003,2144 L3003,2133 C3003,2123 2993,2136 2996,2127 C2999,2118 3004,2131 3003,2121 L3003,2112"/></g><clipPath id="c" clipRule="evenodd" fill="transparent"><use href="#t8670"/></clipPath></defs><svg viewBox="2960 2102 45 47" preserveAspectRatio="xMinYMin meet"><svg width="4380" height="2430"><g><image crossorigin="anonymous" x="0" y="0" href="https://nftpuzzle.license-token.com/assets/completepuzzle.svg" width="100%" height="100%" /><g class="links"><use href="#t8670"/></g></g></svg><svg x="2990" y="2134" height="9%" width="9%" viewBox="0 0 330 330"><g><a xlink:href="https://nftpuzzle.license-token.com/" class="links"><title>See the most innovative NFT based token software licensing project</title><path fill="#E4CF37" id="more" d="M165,0C74.019,0,0,74.019,0,165s74.019,165,165,165s165-74.019,165-165S255.981,0,165,0z M85,190 c-13.785,0-25-11.215-25-25s11.215-25,25-25s25,11.215,25,25S98.785,190,85,190z M165,190c-13.785,0-25-11.215-25-25 s11.215-25,25-25s25,11.215,25,25S178.785,190,165,190z M245,190c-13.785,0-25-11.215-25-25s11.215-25,25-25 c13.785,0,25,11.215,25,25S258.785,190,245,190z"></path></a></g></svg></svg></svg>