<svg version="1.1" xmlns="http://www.w3.org/2000/svg" xmlns:xlink="http://www.w3.org/1999/xlink" fill="transparent" x="0" y="0" width="350" height="350" preserveAspectRatio="xMinYMin slice"><style type="text/css">.links{fill:transparent;stroke: #E4CF37;}.links:hover{fill:#63D272; opacity:0.4;}</style><defs><g id="allt"><path id="t8671" d="M3036,2112 L3024,2112 C3013,2113 3027,2110 3017,2110 C3008,2110 3024,2112 3013,2112 L3003,2112 3003,2112 L3003,2121 C3004,2131 2999,2118 2996,2127 C2993,2136 3003,2123 3003,2133 L3003,2144 3003,2144 L3013,2144 C3023,2145 3009,2140 3018,2137 C3027,2134 3014,2144 3025,2144 L3036,2144 3036,2144 L3035,2134 C3035,2124 3043,2136 3044,2128 C3045,2121 3036,2130 3036,2121 L3036,2112"/></g><clipPath id="c" clipRule="evenodd" fill="transparent"><use href="#t8671"/></clipPath></defs><svg viewBox="2992 2109 54 37" preserveAspectRatio="xMinYMin meet"><svg width="4380" height="2430"><g><image crossorigin="anonymous" x="0" y="0" href="https://nftpuzzle.license-token.com/assets/completepuzzle.svg" width="100%" height="100%" /><g class="links"><use href="#t8671"/></g></g></svg><svg x="3031" y="2131" height="9%" width="9%" viewBox="0 0 330 330"><g><a xlink:href="https://nftpuzzle.license-token.com/" class="links"><title>See the most innovative NFT based token software licensing project</title><path fill="#E4CF37" id="more" d="M165,0C74.019,0,0,74.019,0,165s74.019,165,165,165s165-74.019,165-165S255.981,0,165,0z M85,190 c-13.785,0-25-11.215-25-25s11.215-25,25-25s25,11.215,25,25S98.785,190,85,190z M165,190c-13.785,0-25-11.215-25-25 s11.215-25,25-25s25,11.215,25,25S178.785,190,165,190z M245,190c-13.785,0-25-11.215-25-25s11.215-25,25-25 c13.785,0,25,11.215,25,25S258.785,190,245,190z"></path></a></g></svg></svg></svg>