<svg version="1.1" xmlns="http://www.w3.org/2000/svg" xmlns:xlink="http://www.w3.org/1999/xlink" fill="transparent" x="0" y="0" width="350" height="350" preserveAspectRatio="xMinYMin slice"><style type="text/css">.links{fill:transparent;stroke: #E4CF37;}.links:hover{fill:#63D272; opacity:0.4;}</style><defs><g id="allt"><path id="t8676" d="M3201,2112 L3189,2112 C3178,2113 3192,2107 3183,2105 C3174,2103 3189,2113 3178,2112 L3168,2112 3168,2112 L3168,2121 C3169,2130 3162,2118 3163,2127 C3164,2137 3170,2123 3169,2133 L3168,2144 3168,2144 L3177,2144 C3186,2145 3174,2138 3184,2139 C3194,2140 3179,2146 3190,2145 L3201,2144 3201,2144 L3202,2134 C3204,2125 3196,2134 3195,2126 C3194,2118 3204,2129 3202,2120 L3201,2112"/></g><clipPath id="c" clipRule="evenodd" fill="transparent"><use href="#t8676"/></clipPath></defs><svg viewBox="3161 2102 44 45" preserveAspectRatio="xMinYMin meet"><svg width="4380" height="2430"><g><image crossorigin="anonymous" x="0" y="0" href="https://nftpuzzle.license-token.com/assets/completepuzzle.svg" width="100%" height="100%" /><g class="links"><use href="#t8676"/></g></g></svg><svg x="3190" y="2132" height="9%" width="9%" viewBox="0 0 330 330"><g><a xlink:href="https://nftpuzzle.license-token.com/" class="links"><title>See the most innovative NFT based token software licensing project</title><path fill="#E4CF37" id="more" d="M165,0C74.019,0,0,74.019,0,165s74.019,165,165,165s165-74.019,165-165S255.981,0,165,0z M85,190 c-13.785,0-25-11.215-25-25s11.215-25,25-25s25,11.215,25,25S98.785,190,85,190z M165,190c-13.785,0-25-11.215-25-25 s11.215-25,25-25s25,11.215,25,25S178.785,190,165,190z M245,190c-13.785,0-25-11.215-25-25s11.215-25,25-25 c13.785,0,25,11.215,25,25S258.785,190,245,190z"></path></a></g></svg></svg></svg>