<svg version="1.1" xmlns="http://www.w3.org/2000/svg" xmlns:xlink="http://www.w3.org/1999/xlink" fill="transparent" x="0" y="0" width="350" height="350" preserveAspectRatio="xMinYMin slice"><style type="text/css">.links{fill:transparent;stroke: #E4CF37;}.links:hover{fill:#63D272; opacity:0.4;}</style><defs><g id="allt"><path id="t8683" d="M3432,2112 L3420,2112 C3409,2113 3423,2106 3415,2104 C3408,2102 3417,2113 3408,2112 L3399,2112 3399,2112 L3399,2121 C3399,2130 3401,2119 3402,2127 C3403,2136 3398,2122 3398,2133 L3399,2144 3399,2144 L3408,2144 C3418,2144 3406,2146 3415,2147 C3424,2148 3409,2143 3420,2143 L3432,2144 3432,2144 L3432,2134 C3432,2124 3443,2137 3443,2127 C3443,2118 3432,2129 3432,2120 L3432,2112"/></g><clipPath id="c" clipRule="evenodd" fill="transparent"><use href="#t8683"/></clipPath></defs><svg viewBox="3397 2101 47 48" preserveAspectRatio="xMinYMin meet"><svg width="4380" height="2430"><g><image crossorigin="anonymous" x="0" y="0" href="https://nftpuzzle.license-token.com/assets/completepuzzle.svg" width="100%" height="100%" /><g class="links"><use href="#t8683"/></g></g></svg><svg x="3429" y="2134" height="9%" width="9%" viewBox="0 0 330 330"><g><a xlink:href="https://nftpuzzle.license-token.com/" class="links"><title>See the most innovative NFT based token software licensing project</title><path fill="#E4CF37" id="more" d="M165,0C74.019,0,0,74.019,0,165s74.019,165,165,165s165-74.019,165-165S255.981,0,165,0z M85,190 c-13.785,0-25-11.215-25-25s11.215-25,25-25s25,11.215,25,25S98.785,190,85,190z M165,190c-13.785,0-25-11.215-25-25 s11.215-25,25-25s25,11.215,25,25S178.785,190,165,190z M245,190c-13.785,0-25-11.215-25-25s11.215-25,25-25 c13.785,0,25,11.215,25,25S258.785,190,245,190z"></path></a></g></svg></svg></svg>