<svg version="1.1" xmlns="http://www.w3.org/2000/svg" xmlns:xlink="http://www.w3.org/1999/xlink" fill="transparent" x="0" y="0" width="350" height="350" preserveAspectRatio="xMinYMin slice"><style type="text/css">.links{fill:transparent;stroke: #E4CF37;}.links:hover{fill:#63D272; opacity:0.4;}</style><defs><g id="allt"><path id="t8691" d="M3696,2112 L3685,2112 C3674,2112 3690,2108 3679,2108 C3668,2108 3682,2114 3672,2113 L3663,2112 3663,2112 L3664,2121 C3666,2130 3660,2119 3658,2128 C3657,2137 3665,2126 3664,2135 L3663,2144 3663,2144 L3672,2145 C3682,2147 3670,2141 3679,2139 C3689,2138 3677,2146 3686,2145 L3696,2144 3696,2144 L3696,2133 C3696,2123 3689,2137 3690,2129 C3692,2121 3698,2131 3697,2121 L3696,2112"/></g><clipPath id="c" clipRule="evenodd" fill="transparent"><use href="#t8691"/></clipPath></defs><svg viewBox="3656 2107 43 41" preserveAspectRatio="xMinYMin meet"><svg width="4380" height="2430"><g><image crossorigin="anonymous" x="0" y="0" href="https://nftpuzzle.license-token.com/assets/completepuzzle.svg" width="100%" height="100%" /><g class="links"><use href="#t8691"/></g></g></svg><svg x="3684" y="2133" height="9%" width="9%" viewBox="0 0 330 330"><g><a xlink:href="https://nftpuzzle.license-token.com/" class="links"><title>See the most innovative NFT based token software licensing project</title><path fill="#E4CF37" id="more" d="M165,0C74.019,0,0,74.019,0,165s74.019,165,165,165s165-74.019,165-165S255.981,0,165,0z M85,190 c-13.785,0-25-11.215-25-25s11.215-25,25-25s25,11.215,25,25S98.785,190,85,190z M165,190c-13.785,0-25-11.215-25-25 s11.215-25,25-25s25,11.215,25,25S178.785,190,165,190z M245,190c-13.785,0-25-11.215-25-25s11.215-25,25-25 c13.785,0,25,11.215,25,25S258.785,190,245,190z"></path></a></g></svg></svg></svg>