<svg version="1.1" xmlns="http://www.w3.org/2000/svg" xmlns:xlink="http://www.w3.org/1999/xlink" fill="transparent" x="0" y="0" width="350" height="350" preserveAspectRatio="xMinYMin slice"><style type="text/css">.links{fill:transparent;stroke: #E4CF37;}.links:hover{fill:#63D272; opacity:0.4;}</style><defs><g id="allt"><path id="t8692" d="M3729,2112 L3719,2113 C3709,2114 3721,2108 3711,2109 C3702,2110 3715,2112 3705,2112 L3696,2112 3696,2112 L3697,2121 C3698,2131 3692,2121 3690,2129 C3689,2137 3696,2123 3696,2133 L3696,2144 3696,2144 L3706,2145 C3716,2146 3705,2140 3713,2138 C3722,2137 3708,2144 3718,2144 L3729,2144 3729,2144 L3728,2133 C3727,2122 3732,2139 3732,2129 C3733,2119 3727,2131 3728,2121 L3729,2112"/></g><clipPath id="c" clipRule="evenodd" fill="transparent"><use href="#t8692"/></clipPath></defs><svg viewBox="3688 2107 46 40" preserveAspectRatio="xMinYMin meet"><svg width="4380" height="2430"><g><image crossorigin="anonymous" x="0" y="0" href="https://nftpuzzle.license-token.com/assets/completepuzzle.svg" width="100%" height="100%" /><g class="links"><use href="#t8692"/></g></g></svg><svg x="3719" y="2132" height="9%" width="9%" viewBox="0 0 330 330"><g><a xlink:href="https://nftpuzzle.license-token.com/" class="links"><title>See the most innovative NFT based token software licensing project</title><path fill="#E4CF37" id="more" d="M165,0C74.019,0,0,74.019,0,165s74.019,165,165,165s165-74.019,165-165S255.981,0,165,0z M85,190 c-13.785,0-25-11.215-25-25s11.215-25,25-25s25,11.215,25,25S98.785,190,85,190z M165,190c-13.785,0-25-11.215-25-25 s11.215-25,25-25s25,11.215,25,25S178.785,190,165,190z M245,190c-13.785,0-25-11.215-25-25s11.215-25,25-25 c13.785,0,25,11.215,25,25S258.785,190,245,190z"></path></a></g></svg></svg></svg>