<svg version="1.1" xmlns="http://www.w3.org/2000/svg" xmlns:xlink="http://www.w3.org/1999/xlink" fill="transparent" x="0" y="0" width="350" height="350" preserveAspectRatio="xMinYMin slice"><style type="text/css">.links{fill:transparent;stroke: #E4CF37;}.links:hover{fill:#63D272; opacity:0.4;}</style><defs><g id="allt"><path id="t8695" d="M3828,2112 L3818,2112 C3808,2112 3822,2107 3812,2108 C3802,2110 3813,2112 3804,2112 L3795,2112 3795,2112 L3795,2121 C3796,2131 3792,2120 3792,2128 C3792,2136 3795,2124 3795,2134 L3795,2144 3795,2144 L3805,2144 C3815,2145 3803,2141 3811,2141 C3820,2141 3807,2144 3817,2144 L3828,2144 3828,2144 L3827,2133 C3827,2122 3831,2138 3831,2128 C3832,2118 3828,2130 3828,2121 L3828,2112"/></g><clipPath id="c" clipRule="evenodd" fill="transparent"><use href="#t8695"/></clipPath></defs><svg viewBox="3791 2106 42 40" preserveAspectRatio="xMinYMin meet"><svg width="4380" height="2430"><g><image crossorigin="anonymous" x="0" y="0" href="https://nftpuzzle.license-token.com/assets/completepuzzle.svg" width="100%" height="100%" /><g class="links"><use href="#t8695"/></g></g></svg><svg x="3818" y="2131" height="9%" width="9%" viewBox="0 0 330 330"><g><a xlink:href="https://nftpuzzle.license-token.com/" class="links"><title>See the most innovative NFT based token software licensing project</title><path fill="#E4CF37" id="more" d="M165,0C74.019,0,0,74.019,0,165s74.019,165,165,165s165-74.019,165-165S255.981,0,165,0z M85,190 c-13.785,0-25-11.215-25-25s11.215-25,25-25s25,11.215,25,25S98.785,190,85,190z M165,190c-13.785,0-25-11.215-25-25 s11.215-25,25-25s25,11.215,25,25S178.785,190,165,190z M245,190c-13.785,0-25-11.215-25-25s11.215-25,25-25 c13.785,0,25,11.215,25,25S258.785,190,245,190z"></path></a></g></svg></svg></svg>