<svg version="1.1" xmlns="http://www.w3.org/2000/svg" xmlns:xlink="http://www.w3.org/1999/xlink" fill="transparent" x="0" y="0" width="350" height="350" preserveAspectRatio="xMinYMin slice"><style type="text/css">.links{fill:transparent;stroke: #E4CF37;}.links:hover{fill:#63D272; opacity:0.4;}</style><defs><g id="allt"><path id="t8702" d="M4059,2112 L4049,2112 C4040,2113 4050,2119 4041,2120 C4032,2122 4047,2112 4036,2112 L4026,2112 4026,2112 L4026,2121 C4027,2130 4020,2117 4018,2128 C4017,2139 4026,2123 4026,2133 L4026,2144 4026,2144 L4035,2144 C4045,2145 4031,2138 4042,2137 C4054,2136 4037,2144 4048,2144 L4059,2144 4059,2144 L4059,2134 C4059,2124 4065,2137 4066,2129 C4067,2121 4057,2131 4058,2121 L4059,2112"/></g><clipPath id="c" clipRule="evenodd" fill="transparent"><use href="#t8702"/></clipPath></defs><svg viewBox="4016 2111 52 35" preserveAspectRatio="xMinYMin meet"><svg width="4380" height="2430"><g><image crossorigin="anonymous" x="0" y="0" href="https://nftpuzzle.license-token.com/assets/completepuzzle.svg" width="100%" height="100%" /><g class="links"><use href="#t8702"/></g></g></svg><svg x="4053" y="2131" height="9%" width="9%" viewBox="0 0 330 330"><g><a xlink:href="https://nftpuzzle.license-token.com/" class="links"><title>See the most innovative NFT based token software licensing project</title><path fill="#E4CF37" id="more" d="M165,0C74.019,0,0,74.019,0,165s74.019,165,165,165s165-74.019,165-165S255.981,0,165,0z M85,190 c-13.785,0-25-11.215-25-25s11.215-25,25-25s25,11.215,25,25S98.785,190,85,190z M165,190c-13.785,0-25-11.215-25-25 s11.215-25,25-25s25,11.215,25,25S178.785,190,165,190z M245,190c-13.785,0-25-11.215-25-25s11.215-25,25-25 c13.785,0,25,11.215,25,25S258.785,190,245,190z"></path></a></g></svg></svg></svg>