<svg version="1.1" xmlns="http://www.w3.org/2000/svg" xmlns:xlink="http://www.w3.org/1999/xlink" fill="transparent" x="0" y="0" width="350" height="350" preserveAspectRatio="xMinYMin slice"><style type="text/css">.links{fill:transparent;stroke: #E4CF37;}.links:hover{fill:#63D272; opacity:0.4;}</style><defs><g id="allt"><path id="t8707" d="M4224,2112 L4212,2112 C4201,2112 4215,2116 4206,2116 C4197,2117 4213,2110 4202,2111 L4191,2112 4191,2112 L4191,2122 C4192,2132 4186,2119 4186,2127 C4187,2136 4191,2124 4191,2134 L4191,2144 4191,2144 L4201,2144 C4211,2145 4198,2139 4207,2139 C4216,2140 4203,2144 4213,2144 L4224,2144 4224,2144 L4224,2133 C4224,2123 4217,2138 4218,2128 C4220,2119 4224,2131 4224,2121 L4224,2112"/></g><clipPath id="c" clipRule="evenodd" fill="transparent"><use href="#t8707"/></clipPath></defs><svg viewBox="4185 2109 40 37" preserveAspectRatio="xMinYMin meet"><svg width="4380" height="2430"><g><image crossorigin="anonymous" x="0" y="0" href="https://nftpuzzle.license-token.com/assets/completepuzzle.svg" width="100%" height="100%" /><g class="links"><use href="#t8707"/></g></g></svg><svg x="4210" y="2131" height="9%" width="9%" viewBox="0 0 330 330"><g><a xlink:href="https://nftpuzzle.license-token.com/" class="links"><title>See the most innovative NFT based token software licensing project</title><path fill="#E4CF37" id="more" d="M165,0C74.019,0,0,74.019,0,165s74.019,165,165,165s165-74.019,165-165S255.981,0,165,0z M85,190 c-13.785,0-25-11.215-25-25s11.215-25,25-25s25,11.215,25,25S98.785,190,85,190z M165,190c-13.785,0-25-11.215-25-25 s11.215-25,25-25s25,11.215,25,25S178.785,190,165,190z M245,190c-13.785,0-25-11.215-25-25s11.215-25,25-25 c13.785,0,25,11.215,25,25S258.785,190,245,190z"></path></a></g></svg></svg></svg>