<svg version="1.1" xmlns="http://www.w3.org/2000/svg" xmlns:xlink="http://www.w3.org/1999/xlink" fill="transparent" x="0" y="0" width="350" height="350" preserveAspectRatio="xMinYMin slice"><style type="text/css">.links{fill:transparent;stroke: #E4CF37;}.links:hover{fill:#63D272; opacity:0.4;}</style><defs><g id="allt"><path id="t8717" d="M264,2144 L253,2141 C243,2139 254,2151 245,2151 C236,2151 250,2140 240,2142 L231,2144 231,2144 L232,2153 C234,2163 226,2152 224,2161 C222,2171 230,2155 230,2165 L231,2176 231,2176 L241,2177 C251,2179 239,2171 249,2169 C259,2168 242,2175 253,2175 L264,2176 264,2176 L263,2165 C263,2154 276,2169 275,2160 C274,2152 264,2164 264,2154 L264,2144"/></g><clipPath id="c" clipRule="evenodd" fill="transparent"><use href="#t8717"/></clipPath></defs><svg viewBox="221 2138 56 42" preserveAspectRatio="xMinYMin meet"><svg width="4380" height="2430"><g><image crossorigin="anonymous" x="0" y="0" href="https://nftpuzzle.license-token.com/assets/completepuzzle.svg" width="100%" height="100%" /><g class="links"><use href="#t8717"/></g></g></svg><svg x="262" y="2165" height="9%" width="9%" viewBox="0 0 330 330"><g><a xlink:href="https://nftpuzzle.license-token.com/" class="links"><title>See the most innovative NFT based token software licensing project</title><path fill="#E4CF37" id="more" d="M165,0C74.019,0,0,74.019,0,165s74.019,165,165,165s165-74.019,165-165S255.981,0,165,0z M85,190 c-13.785,0-25-11.215-25-25s11.215-25,25-25s25,11.215,25,25S98.785,190,85,190z M165,190c-13.785,0-25-11.215-25-25 s11.215-25,25-25s25,11.215,25,25S178.785,190,165,190z M245,190c-13.785,0-25-11.215-25-25s11.215-25,25-25 c13.785,0,25,11.215,25,25S258.785,190,245,190z"></path></a></g></svg></svg></svg>