<svg version="1.1" xmlns="http://www.w3.org/2000/svg" xmlns:xlink="http://www.w3.org/1999/xlink" fill="transparent" x="0" y="0" width="350" height="350" preserveAspectRatio="xMinYMin slice"><style type="text/css">.links{fill:transparent;stroke: #E4CF37;}.links:hover{fill:#63D272; opacity:0.4;}</style><defs><g id="allt"><path id="t8718" d="M297,2144 L286,2144 C275,2144 288,2137 279,2137 C270,2138 282,2144 273,2144 L264,2144 264,2144 L264,2154 C264,2164 274,2152 275,2160 C276,2169 263,2154 263,2165 L264,2176 264,2176 L274,2176 C284,2176 272,2186 281,2187 C290,2188 275,2175 286,2175 L297,2176 297,2176 L298,2165 C299,2155 288,2171 289,2161 C291,2151 297,2161 297,2152 L297,2144"/></g><clipPath id="c" clipRule="evenodd" fill="transparent"><use href="#t8718"/></clipPath></defs><svg viewBox="262 2136 38 53" preserveAspectRatio="xMinYMin meet"><svg width="4380" height="2430"><g><image crossorigin="anonymous" x="0" y="0" href="https://nftpuzzle.license-token.com/assets/completepuzzle.svg" width="100%" height="100%" /><g class="links"><use href="#t8718"/></g></g></svg><svg x="285" y="2174" height="9%" width="9%" viewBox="0 0 330 330"><g><a xlink:href="https://nftpuzzle.license-token.com/" class="links"><title>See the most innovative NFT based token software licensing project</title><path fill="#E4CF37" id="more" d="M165,0C74.019,0,0,74.019,0,165s74.019,165,165,165s165-74.019,165-165S255.981,0,165,0z M85,190 c-13.785,0-25-11.215-25-25s11.215-25,25-25s25,11.215,25,25S98.785,190,85,190z M165,190c-13.785,0-25-11.215-25-25 s11.215-25,25-25s25,11.215,25,25S178.785,190,165,190z M245,190c-13.785,0-25-11.215-25-25s11.215-25,25-25 c13.785,0,25,11.215,25,25S258.785,190,245,190z"></path></a></g></svg></svg></svg>