<svg version="1.1" xmlns="http://www.w3.org/2000/svg" xmlns:xlink="http://www.w3.org/1999/xlink" fill="transparent" x="0" y="0" width="350" height="350" preserveAspectRatio="xMinYMin slice"><style type="text/css">.links{fill:transparent;stroke: #E4CF37;}.links:hover{fill:#63D272; opacity:0.4;}</style><defs><g id="allt"><path id="t8719" d="M330,2144 L320,2144 C310,2144 324,2146 314,2147 C304,2149 317,2143 307,2143 L297,2144 297,2144 L297,2152 C297,2161 291,2151 289,2161 C288,2171 299,2155 298,2165 L297,2176 297,2176 L306,2176 C315,2176 304,2170 314,2169 C325,2168 309,2178 319,2177 L330,2176 330,2176 L330,2166 C330,2156 326,2170 326,2160 C326,2150 332,2164 331,2154 L330,2144"/></g><clipPath id="c" clipRule="evenodd" fill="transparent"><use href="#t8719"/></clipPath></defs><svg viewBox="287 2142 46 37" preserveAspectRatio="xMinYMin meet"><svg width="4380" height="2430"><g><image crossorigin="anonymous" x="0" y="0" href="https://nftpuzzle.license-token.com/assets/completepuzzle.svg" width="100%" height="100%" /><g class="links"><use href="#t8719"/></g></g></svg><svg x="318" y="2164" height="9%" width="9%" viewBox="0 0 330 330"><g><a xlink:href="https://nftpuzzle.license-token.com/" class="links"><title>See the most innovative NFT based token software licensing project</title><path fill="#E4CF37" id="more" d="M165,0C74.019,0,0,74.019,0,165s74.019,165,165,165s165-74.019,165-165S255.981,0,165,0z M85,190 c-13.785,0-25-11.215-25-25s11.215-25,25-25s25,11.215,25,25S98.785,190,85,190z M165,190c-13.785,0-25-11.215-25-25 s11.215-25,25-25s25,11.215,25,25S178.785,190,165,190z M245,190c-13.785,0-25-11.215-25-25s11.215-25,25-25 c13.785,0,25,11.215,25,25S258.785,190,245,190z"></path></a></g></svg></svg></svg>