<svg version="1.1" xmlns="http://www.w3.org/2000/svg" xmlns:xlink="http://www.w3.org/1999/xlink" fill="transparent" x="0" y="0" width="350" height="350" preserveAspectRatio="xMinYMin slice"><style type="text/css">.links{fill:transparent;stroke: #E4CF37;}.links:hover{fill:#63D272; opacity:0.4;}</style><defs><g id="allt"><path id="t8720" d="M363,2144 L353,2143 C343,2143 356,2153 347,2152 C339,2151 352,2143 341,2143 L330,2144 330,2144 L331,2154 C332,2164 326,2150 326,2160 C326,2170 330,2156 330,2166 L330,2176 330,2176 L340,2177 C351,2178 336,2172 346,2172 C357,2172 343,2176 353,2176 L363,2176 363,2176 L363,2166 C364,2156 361,2168 360,2160 C360,2153 363,2163 363,2153 L363,2144"/></g><clipPath id="c" clipRule="evenodd" fill="transparent"><use href="#t8720"/></clipPath></defs><svg viewBox="325 2142 40 37" preserveAspectRatio="xMinYMin meet"><svg width="4380" height="2430"><g><image crossorigin="anonymous" x="0" y="0" href="https://nftpuzzle.license-token.com/assets/completepuzzle.svg" width="100%" height="100%" /><g class="links"><use href="#t8720"/></g></g></svg><svg x="350" y="2164" height="9%" width="9%" viewBox="0 0 330 330"><g><a xlink:href="https://nftpuzzle.license-token.com/" class="links"><title>See the most innovative NFT based token software licensing project</title><path fill="#E4CF37" id="more" d="M165,0C74.019,0,0,74.019,0,165s74.019,165,165,165s165-74.019,165-165S255.981,0,165,0z M85,190 c-13.785,0-25-11.215-25-25s11.215-25,25-25s25,11.215,25,25S98.785,190,85,190z M165,190c-13.785,0-25-11.215-25-25 s11.215-25,25-25s25,11.215,25,25S178.785,190,165,190z M245,190c-13.785,0-25-11.215-25-25s11.215-25,25-25 c13.785,0,25,11.215,25,25S258.785,190,245,190z"></path></a></g></svg></svg></svg>