<svg version="1.1" xmlns="http://www.w3.org/2000/svg" xmlns:xlink="http://www.w3.org/1999/xlink" fill="transparent" x="0" y="0" width="350" height="350" preserveAspectRatio="xMinYMin slice"><style type="text/css">.links{fill:transparent;stroke: #E4CF37;}.links:hover{fill:#63D272; opacity:0.4;}</style><defs><g id="allt"><path id="t8721" d="M396,2144 L385,2144 C374,2145 390,2137 380,2136 C371,2136 382,2145 372,2144 L363,2144 363,2144 L363,2153 C363,2163 360,2153 360,2160 C361,2168 364,2156 363,2166 L363,2176 363,2176 L372,2176 C382,2176 372,2173 380,2173 C388,2174 375,2177 385,2176 L396,2176 396,2176 L397,2166 C399,2157 393,2169 391,2158 C390,2148 397,2164 396,2154 L396,2144"/></g><clipPath id="c" clipRule="evenodd" fill="transparent"><use href="#t8721"/></clipPath></defs><svg viewBox="359 2135 41 43" preserveAspectRatio="xMinYMin meet"><svg width="4380" height="2430"><g><image crossorigin="anonymous" x="0" y="0" href="https://nftpuzzle.license-token.com/assets/completepuzzle.svg" width="100%" height="100%" /><g class="links"><use href="#t8721"/></g></g></svg><svg x="385" y="2163" height="9%" width="9%" viewBox="0 0 330 330"><g><a xlink:href="https://nftpuzzle.license-token.com/" class="links"><title>See the most innovative NFT based token software licensing project</title><path fill="#E4CF37" id="more" d="M165,0C74.019,0,0,74.019,0,165s74.019,165,165,165s165-74.019,165-165S255.981,0,165,0z M85,190 c-13.785,0-25-11.215-25-25s11.215-25,25-25s25,11.215,25,25S98.785,190,85,190z M165,190c-13.785,0-25-11.215-25-25 s11.215-25,25-25s25,11.215,25,25S178.785,190,165,190z M245,190c-13.785,0-25-11.215-25-25s11.215-25,25-25 c13.785,0,25,11.215,25,25S258.785,190,245,190z"></path></a></g></svg></svg></svg>