<svg version="1.1" xmlns="http://www.w3.org/2000/svg" xmlns:xlink="http://www.w3.org/1999/xlink" fill="transparent" x="0" y="0" width="350" height="350" preserveAspectRatio="xMinYMin slice"><style type="text/css">.links{fill:transparent;stroke: #E4CF37;}.links:hover{fill:#63D272; opacity:0.4;}</style><defs><g id="allt"><path id="t8724" d="M495,2144 L485,2144 C476,2144 487,2149 477,2148 C467,2148 481,2144 471,2144 L462,2144 462,2144 L463,2152 C464,2161 455,2152 455,2160 C456,2169 465,2156 463,2166 L462,2176 462,2176 L471,2177 C480,2178 471,2169 479,2169 C488,2170 474,2179 484,2177 L495,2176 495,2176 L494,2165 C493,2155 502,2166 500,2158 C498,2151 495,2164 495,2154 L495,2144"/></g><clipPath id="c" clipRule="evenodd" fill="transparent"><use href="#t8724"/></clipPath></defs><svg viewBox="454 2143 49 37" preserveAspectRatio="xMinYMin meet"><svg width="4380" height="2430"><g><image crossorigin="anonymous" x="0" y="0" href="https://nftpuzzle.license-token.com/assets/completepuzzle.svg" width="100%" height="100%" /><g class="links"><use href="#t8724"/></g></g></svg><svg x="488" y="2165" height="9%" width="9%" viewBox="0 0 330 330"><g><a xlink:href="https://nftpuzzle.license-token.com/" class="links"><title>See the most innovative NFT based token software licensing project</title><path fill="#E4CF37" id="more" d="M165,0C74.019,0,0,74.019,0,165s74.019,165,165,165s165-74.019,165-165S255.981,0,165,0z M85,190 c-13.785,0-25-11.215-25-25s11.215-25,25-25s25,11.215,25,25S98.785,190,85,190z M165,190c-13.785,0-25-11.215-25-25 s11.215-25,25-25s25,11.215,25,25S178.785,190,165,190z M245,190c-13.785,0-25-11.215-25-25s11.215-25,25-25 c13.785,0,25,11.215,25,25S258.785,190,245,190z"></path></a></g></svg></svg></svg>