<svg version="1.1" xmlns="http://www.w3.org/2000/svg" xmlns:xlink="http://www.w3.org/1999/xlink" fill="transparent" x="0" y="0" width="350" height="350" preserveAspectRatio="xMinYMin slice"><style type="text/css">.links{fill:transparent;stroke: #E4CF37;}.links:hover{fill:#63D272; opacity:0.4;}</style><defs><g id="allt"><path id="t8725" d="M528,2144 L518,2144 C509,2144 520,2136 511,2135 C502,2134 515,2144 505,2144 L495,2144 495,2144 L495,2154 C495,2164 498,2151 500,2158 C502,2166 493,2155 494,2165 L495,2176 495,2176 L505,2176 C515,2176 502,2179 510,2181 C518,2183 507,2174 517,2175 L528,2176 528,2176 L527,2167 C527,2158 533,2167 533,2158 C533,2150 528,2165 528,2154 L528,2144"/></g><clipPath id="c" clipRule="evenodd" fill="transparent"><use href="#t8725"/></clipPath></defs><svg viewBox="492 2133 42 51" preserveAspectRatio="xMinYMin meet"><svg width="4380" height="2430"><g><image crossorigin="anonymous" x="0" y="0" href="https://nftpuzzle.license-token.com/assets/completepuzzle.svg" width="100%" height="100%" /><g class="links"><use href="#t8725"/></g></g></svg><svg x="519" y="2169" height="9%" width="9%" viewBox="0 0 330 330"><g><a xlink:href="https://nftpuzzle.license-token.com/" class="links"><title>See the most innovative NFT based token software licensing project</title><path fill="#E4CF37" id="more" d="M165,0C74.019,0,0,74.019,0,165s74.019,165,165,165s165-74.019,165-165S255.981,0,165,0z M85,190 c-13.785,0-25-11.215-25-25s11.215-25,25-25s25,11.215,25,25S98.785,190,85,190z M165,190c-13.785,0-25-11.215-25-25 s11.215-25,25-25s25,11.215,25,25S178.785,190,165,190z M245,190c-13.785,0-25-11.215-25-25s11.215-25,25-25 c13.785,0,25,11.215,25,25S258.785,190,245,190z"></path></a></g></svg></svg></svg>