<svg version="1.1" xmlns="http://www.w3.org/2000/svg" xmlns:xlink="http://www.w3.org/1999/xlink" fill="transparent" x="0" y="0" width="350" height="350" preserveAspectRatio="xMinYMin slice"><style type="text/css">.links{fill:transparent;stroke: #E4CF37;}.links:hover{fill:#63D272; opacity:0.4;}</style><defs><g id="allt"><path id="t8734" d="M825,2144 L815,2142 C806,2141 818,2149 809,2150 C800,2151 811,2141 801,2142 L792,2144 792,2144 L792,2152 C792,2161 784,2149 784,2158 C784,2167 795,2154 793,2165 L792,2176 792,2176 L801,2176 C810,2176 797,2168 806,2168 C816,2168 802,2179 813,2177 L825,2176 825,2176 L826,2166 C828,2156 819,2169 818,2161 C818,2153 828,2165 826,2154 L825,2144"/></g><clipPath id="c" clipRule="evenodd" fill="transparent"><use href="#t8734"/></clipPath></defs><svg viewBox="783 2140 46 40" preserveAspectRatio="xMinYMin meet"><svg width="4380" height="2430"><g><image crossorigin="anonymous" x="0" y="0" href="https://nftpuzzle.license-token.com/assets/completepuzzle.svg" width="100%" height="100%" /><g class="links"><use href="#t8734"/></g></g></svg><svg x="814" y="2165" height="9%" width="9%" viewBox="0 0 330 330"><g><a xlink:href="https://nftpuzzle.license-token.com/" class="links"><title>See the most innovative NFT based token software licensing project</title><path fill="#E4CF37" id="more" d="M165,0C74.019,0,0,74.019,0,165s74.019,165,165,165s165-74.019,165-165S255.981,0,165,0z M85,190 c-13.785,0-25-11.215-25-25s11.215-25,25-25s25,11.215,25,25S98.785,190,85,190z M165,190c-13.785,0-25-11.215-25-25 s11.215-25,25-25s25,11.215,25,25S178.785,190,165,190z M245,190c-13.785,0-25-11.215-25-25s11.215-25,25-25 c13.785,0,25,11.215,25,25S258.785,190,245,190z"></path></a></g></svg></svg></svg>