<svg version="1.1" xmlns="http://www.w3.org/2000/svg" xmlns:xlink="http://www.w3.org/1999/xlink" fill="transparent" x="0" y="0" width="350" height="350" preserveAspectRatio="xMinYMin slice"><style type="text/css">.links{fill:transparent;stroke: #E4CF37;}.links:hover{fill:#63D272; opacity:0.4;}</style><defs><g id="allt"><path id="t8739" d="M990,2144 L979,2145 C968,2147 985,2138 974,2137 C964,2137 978,2145 967,2144 L957,2144 957,2144 L956,2153 C956,2162 960,2150 960,2160 C960,2170 957,2158 957,2167 L957,2176 957,2176 L966,2175 C975,2175 963,2179 973,2179 C984,2179 971,2176 980,2176 L990,2176 990,2176 L990,2167 C990,2158 997,2170 995,2159 C994,2148 990,2164 990,2154 L990,2144"/></g><clipPath id="c" clipRule="evenodd" fill="transparent"><use href="#t8739"/></clipPath></defs><svg viewBox="955 2136 43 44" preserveAspectRatio="xMinYMin meet"><svg width="4380" height="2430"><g><image crossorigin="anonymous" x="0" y="0" href="https://nftpuzzle.license-token.com/assets/completepuzzle.svg" width="100%" height="100%" /><g class="links"><use href="#t8739"/></g></g></svg><svg x="983" y="2165" height="9%" width="9%" viewBox="0 0 330 330"><g><a xlink:href="https://nftpuzzle.license-token.com/" class="links"><title>See the most innovative NFT based token software licensing project</title><path fill="#E4CF37" id="more" d="M165,0C74.019,0,0,74.019,0,165s74.019,165,165,165s165-74.019,165-165S255.981,0,165,0z M85,190 c-13.785,0-25-11.215-25-25s11.215-25,25-25s25,11.215,25,25S98.785,190,85,190z M165,190c-13.785,0-25-11.215-25-25 s11.215-25,25-25s25,11.215,25,25S178.785,190,165,190z M245,190c-13.785,0-25-11.215-25-25s11.215-25,25-25 c13.785,0,25,11.215,25,25S258.785,190,245,190z"></path></a></g></svg></svg></svg>