<svg version="1.1" xmlns="http://www.w3.org/2000/svg" xmlns:xlink="http://www.w3.org/1999/xlink" fill="transparent" x="0" y="0" width="350" height="350" preserveAspectRatio="xMinYMin slice"><style type="text/css">.links{fill:transparent;stroke: #E4CF37;}.links:hover{fill:#63D272; opacity:0.4;}</style><defs><g id="allt"><path id="t8740" d="M1023,2144 L1012,2144 C1002,2144 1017,2152 1007,2150 C997,2149 1010,2144 1000,2144 L990,2144 990,2144 L990,2154 C990,2164 994,2148 995,2159 C997,2170 990,2158 990,2167 L990,2176 990,2176 L1000,2176 C1011,2176 994,2180 1005,2181 C1017,2183 1004,2176 1013,2176 L1023,2176 1023,2176 L1023,2167 C1023,2158 1017,2168 1018,2159 C1019,2151 1023,2162 1023,2153 L1023,2144"/></g><clipPath id="c" clipRule="evenodd" fill="transparent"><use href="#t8740"/></clipPath></defs><svg viewBox="989 2143 35 41" preserveAspectRatio="xMinYMin meet"><svg width="4380" height="2430"><g><image crossorigin="anonymous" x="0" y="0" href="https://nftpuzzle.license-token.com/assets/completepuzzle.svg" width="100%" height="100%" /><g class="links"><use href="#t8740"/></g></g></svg><svg x="1009" y="2169" height="9%" width="9%" viewBox="0 0 330 330"><g><a xlink:href="https://nftpuzzle.license-token.com/" class="links"><title>See the most innovative NFT based token software licensing project</title><path fill="#E4CF37" id="more" d="M165,0C74.019,0,0,74.019,0,165s74.019,165,165,165s165-74.019,165-165S255.981,0,165,0z M85,190 c-13.785,0-25-11.215-25-25s11.215-25,25-25s25,11.215,25,25S98.785,190,85,190z M165,190c-13.785,0-25-11.215-25-25 s11.215-25,25-25s25,11.215,25,25S178.785,190,165,190z M245,190c-13.785,0-25-11.215-25-25s11.215-25,25-25 c13.785,0,25,11.215,25,25S258.785,190,245,190z"></path></a></g></svg></svg></svg>