<svg version="1.1" xmlns="http://www.w3.org/2000/svg" xmlns:xlink="http://www.w3.org/1999/xlink" fill="transparent" x="0" y="0" width="350" height="350" preserveAspectRatio="xMinYMin slice"><style type="text/css">.links{fill:transparent;stroke: #E4CF37;}.links:hover{fill:#63D272; opacity:0.4;}</style><defs><g id="allt"><path id="t8743" d="M1122,2144 L1112,2145 C1103,2146 1116,2138 1107,2139 C1098,2141 1110,2146 1099,2145 L1089,2144 1089,2144 L1090,2153 C1092,2162 1083,2153 1084,2160 C1085,2168 1090,2155 1089,2165 L1089,2176 1089,2176 L1098,2177 C1108,2179 1098,2170 1106,2171 C1114,2172 1100,2177 1111,2176 L1122,2176 1122,2176 L1122,2165 C1122,2155 1113,2170 1113,2160 C1113,2151 1122,2165 1122,2154 L1122,2144"/></g><clipPath id="c" clipRule="evenodd" fill="transparent"><use href="#t8743"/></clipPath></defs><svg viewBox="1082 2137 41 43" preserveAspectRatio="xMinYMin meet"><svg width="4380" height="2430"><g><image crossorigin="anonymous" x="0" y="0" href="https://nftpuzzle.license-token.com/assets/completepuzzle.svg" width="100%" height="100%" /><g class="links"><use href="#t8743"/></g></g></svg><svg x="1108" y="2165" height="9%" width="9%" viewBox="0 0 330 330"><g><a xlink:href="https://nftpuzzle.license-token.com/" class="links"><title>See the most innovative NFT based token software licensing project</title><path fill="#E4CF37" id="more" d="M165,0C74.019,0,0,74.019,0,165s74.019,165,165,165s165-74.019,165-165S255.981,0,165,0z M85,190 c-13.785,0-25-11.215-25-25s11.215-25,25-25s25,11.215,25,25S98.785,190,85,190z M165,190c-13.785,0-25-11.215-25-25 s11.215-25,25-25s25,11.215,25,25S178.785,190,165,190z M245,190c-13.785,0-25-11.215-25-25s11.215-25,25-25 c13.785,0,25,11.215,25,25S258.785,190,245,190z"></path></a></g></svg></svg></svg>