<svg version="1.1" xmlns="http://www.w3.org/2000/svg" xmlns:xlink="http://www.w3.org/1999/xlink" fill="transparent" x="0" y="0" width="350" height="350" preserveAspectRatio="xMinYMin slice"><style type="text/css">.links{fill:transparent;stroke: #E4CF37;}.links:hover{fill:#63D272; opacity:0.4;}</style><defs><g id="allt"><path id="t8746" d="M1221,2144 L1211,2141 C1201,2139 1215,2153 1204,2152 C1194,2151 1206,2141 1197,2142 L1188,2144 1188,2144 L1185,2154 C1183,2164 1200,2148 1199,2158 C1199,2169 1188,2158 1188,2167 L1188,2176 1188,2176 L1198,2173 C1208,2171 1192,2188 1203,2187 C1214,2187 1202,2176 1211,2176 L1221,2176 1221,2176 L1219,2166 C1218,2156 1233,2170 1230,2159 C1228,2149 1217,2161 1219,2152 L1221,2144"/></g><clipPath id="c" clipRule="evenodd" fill="transparent"><use href="#t8746"/></clipPath></defs><svg viewBox="1182 2138 52 51" preserveAspectRatio="xMinYMin meet"><svg width="4380" height="2430"><g><image crossorigin="anonymous" x="0" y="0" href="https://nftpuzzle.license-token.com/assets/completepuzzle.svg" width="100%" height="100%" /><g class="links"><use href="#t8746"/></g></g></svg><svg x="1219" y="2174" height="9%" width="9%" viewBox="0 0 330 330"><g><a xlink:href="https://nftpuzzle.license-token.com/" class="links"><title>See the most innovative NFT based token software licensing project</title><path fill="#E4CF37" id="more" d="M165,0C74.019,0,0,74.019,0,165s74.019,165,165,165s165-74.019,165-165S255.981,0,165,0z M85,190 c-13.785,0-25-11.215-25-25s11.215-25,25-25s25,11.215,25,25S98.785,190,85,190z M165,190c-13.785,0-25-11.215-25-25 s11.215-25,25-25s25,11.215,25,25S178.785,190,165,190z M245,190c-13.785,0-25-11.215-25-25s11.215-25,25-25 c13.785,0,25,11.215,25,25S258.785,190,245,190z"></path></a></g></svg></svg></svg>