<svg version="1.1" xmlns="http://www.w3.org/2000/svg" xmlns:xlink="http://www.w3.org/1999/xlink" fill="transparent" x="0" y="0" width="350" height="350" preserveAspectRatio="xMinYMin slice"><style type="text/css">.links{fill:transparent;stroke: #E4CF37;}.links:hover{fill:#63D272; opacity:0.4;}</style><defs><g id="allt"><path id="t8747" d="M1254,2144 L1244,2144 C1234,2145 1248,2139 1237,2139 C1226,2139 1240,2145 1230,2144 L1221,2144 1221,2144 L1219,2152 C1217,2161 1228,2149 1230,2159 C1233,2170 1218,2156 1219,2166 L1221,2176 1221,2176 L1230,2174 C1239,2172 1226,2183 1237,2185 C1248,2188 1233,2173 1243,2174 L1254,2176 1254,2176 L1253,2165 C1253,2154 1242,2169 1242,2160 C1242,2151 1254,2164 1254,2154 L1254,2144"/></g><clipPath id="c" clipRule="evenodd" fill="transparent"><use href="#t8747"/></clipPath></defs><svg viewBox="1216 2138 39 51" preserveAspectRatio="xMinYMin meet"><svg width="4380" height="2430"><g><image crossorigin="anonymous" x="0" y="0" href="https://nftpuzzle.license-token.com/assets/completepuzzle.svg" width="100%" height="100%" /><g class="links"><use href="#t8747"/></g></g></svg><svg x="1240" y="2174" height="9%" width="9%" viewBox="0 0 330 330"><g><a xlink:href="https://nftpuzzle.license-token.com/" class="links"><title>See the most innovative NFT based token software licensing project</title><path fill="#E4CF37" id="more" d="M165,0C74.019,0,0,74.019,0,165s74.019,165,165,165s165-74.019,165-165S255.981,0,165,0z M85,190 c-13.785,0-25-11.215-25-25s11.215-25,25-25s25,11.215,25,25S98.785,190,85,190z M165,190c-13.785,0-25-11.215-25-25 s11.215-25,25-25s25,11.215,25,25S178.785,190,165,190z M245,190c-13.785,0-25-11.215-25-25s11.215-25,25-25 c13.785,0,25,11.215,25,25S258.785,190,245,190z"></path></a></g></svg></svg></svg>