<svg version="1.1" xmlns="http://www.w3.org/2000/svg" xmlns:xlink="http://www.w3.org/1999/xlink" fill="transparent" x="0" y="0" width="350" height="350" preserveAspectRatio="xMinYMin slice"><style type="text/css">.links{fill:transparent;stroke: #E4CF37;}.links:hover{fill:#63D272; opacity:0.4;}</style><defs><g id="allt"><path id="t8748" d="M1287,2144 L1275,2142 C1264,2140 1278,2156 1269,2156 C1260,2156 1275,2142 1264,2143 L1254,2144 1254,2144 L1254,2154 C1254,2164 1242,2151 1242,2160 C1242,2169 1253,2154 1253,2165 L1254,2176 1254,2176 L1264,2176 C1275,2176 1261,2164 1270,2164 C1280,2165 1265,2175 1276,2175 L1287,2176 1287,2176 L1287,2165 C1287,2155 1282,2170 1280,2159 C1278,2149 1287,2163 1287,2153 L1287,2144"/></g><clipPath id="c" clipRule="evenodd" fill="transparent"><use href="#t8748"/></clipPath></defs><svg viewBox="1241 2139 47 38" preserveAspectRatio="xMinYMin meet"><svg width="4380" height="2430"><g><image crossorigin="anonymous" x="0" y="0" href="https://nftpuzzle.license-token.com/assets/completepuzzle.svg" width="100%" height="100%" /><g class="links"><use href="#t8748"/></g></g></svg><svg x="1273" y="2162" height="9%" width="9%" viewBox="0 0 330 330"><g><a xlink:href="https://nftpuzzle.license-token.com/" class="links"><title>See the most innovative NFT based token software licensing project</title><path fill="#E4CF37" id="more" d="M165,0C74.019,0,0,74.019,0,165s74.019,165,165,165s165-74.019,165-165S255.981,0,165,0z M85,190 c-13.785,0-25-11.215-25-25s11.215-25,25-25s25,11.215,25,25S98.785,190,85,190z M165,190c-13.785,0-25-11.215-25-25 s11.215-25,25-25s25,11.215,25,25S178.785,190,165,190z M245,190c-13.785,0-25-11.215-25-25s11.215-25,25-25 c13.785,0,25,11.215,25,25S258.785,190,245,190z"></path></a></g></svg></svg></svg>