<svg version="1.1" xmlns="http://www.w3.org/2000/svg" xmlns:xlink="http://www.w3.org/1999/xlink" fill="transparent" x="0" y="0" width="350" height="350" preserveAspectRatio="xMinYMin slice"><style type="text/css">.links{fill:transparent;stroke: #E4CF37;}.links:hover{fill:#63D272; opacity:0.4;}</style><defs><g id="allt"><path id="t8749" d="M1320,2144 L1309,2144 C1299,2145 1311,2141 1303,2141 C1296,2141 1306,2146 1296,2145 L1287,2144 1287,2144 L1287,2153 C1287,2163 1278,2149 1280,2159 C1282,2170 1287,2155 1287,2165 L1287,2176 1287,2176 L1297,2176 C1307,2176 1292,2167 1303,2169 C1314,2171 1298,2176 1309,2176 L1320,2176 1320,2176 L1320,2166 C1320,2157 1324,2169 1323,2158 C1323,2148 1320,2163 1320,2153 L1320,2144"/></g><clipPath id="c" clipRule="evenodd" fill="transparent"><use href="#t8749"/></clipPath></defs><svg viewBox="1277 2140 48 37" preserveAspectRatio="xMinYMin meet"><svg width="4380" height="2430"><g><image crossorigin="anonymous" x="0" y="0" href="https://nftpuzzle.license-token.com/assets/completepuzzle.svg" width="100%" height="100%" /><g class="links"><use href="#t8749"/></g></g></svg><svg x="1310" y="2162" height="9%" width="9%" viewBox="0 0 330 330"><g><a xlink:href="https://nftpuzzle.license-token.com/" class="links"><title>See the most innovative NFT based token software licensing project</title><path fill="#E4CF37" id="more" d="M165,0C74.019,0,0,74.019,0,165s74.019,165,165,165s165-74.019,165-165S255.981,0,165,0z M85,190 c-13.785,0-25-11.215-25-25s11.215-25,25-25s25,11.215,25,25S98.785,190,85,190z M165,190c-13.785,0-25-11.215-25-25 s11.215-25,25-25s25,11.215,25,25S178.785,190,165,190z M245,190c-13.785,0-25-11.215-25-25s11.215-25,25-25 c13.785,0,25,11.215,25,25S258.785,190,245,190z"></path></a></g></svg></svg></svg>