<svg version="1.1" xmlns="http://www.w3.org/2000/svg" xmlns:xlink="http://www.w3.org/1999/xlink" fill="transparent" x="0" y="0" width="350" height="350" preserveAspectRatio="xMinYMin slice"><style type="text/css">.links{fill:transparent;stroke: #E4CF37;}.links:hover{fill:#63D272; opacity:0.4;}</style><defs><g id="allt"><path id="t8759" d="M1650,2144 L1639,2145 C1629,2147 1645,2133 1634,2135 C1624,2138 1638,2144 1627,2144 L1617,2144 1617,2144 L1615,2154 C1614,2164 1625,2149 1625,2158 C1625,2168 1614,2157 1615,2166 L1617,2176 1617,2176 L1627,2174 C1637,2173 1622,2184 1632,2184 C1642,2184 1630,2173 1640,2174 L1650,2176 1650,2176 L1650,2165 C1651,2155 1639,2167 1642,2159 C1645,2151 1650,2162 1650,2153 L1650,2144"/></g><clipPath id="c" clipRule="evenodd" fill="transparent"><use href="#t8759"/></clipPath></defs><svg viewBox="1613 2132 39 53" preserveAspectRatio="xMinYMin meet"><svg width="4380" height="2430"><g><image crossorigin="anonymous" x="0" y="0" href="https://nftpuzzle.license-token.com/assets/completepuzzle.svg" width="100%" height="100%" /><g class="links"><use href="#t8759"/></g></g></svg><svg x="1637" y="2170" height="9%" width="9%" viewBox="0 0 330 330"><g><a xlink:href="https://nftpuzzle.license-token.com/" class="links"><title>See the most innovative NFT based token software licensing project</title><path fill="#E4CF37" id="more" d="M165,0C74.019,0,0,74.019,0,165s74.019,165,165,165s165-74.019,165-165S255.981,0,165,0z M85,190 c-13.785,0-25-11.215-25-25s11.215-25,25-25s25,11.215,25,25S98.785,190,85,190z M165,190c-13.785,0-25-11.215-25-25 s11.215-25,25-25s25,11.215,25,25S178.785,190,165,190z M245,190c-13.785,0-25-11.215-25-25s11.215-25,25-25 c13.785,0,25,11.215,25,25S258.785,190,245,190z"></path></a></g></svg></svg></svg>