<svg version="1.1" xmlns="http://www.w3.org/2000/svg" xmlns:xlink="http://www.w3.org/1999/xlink" fill="transparent" x="0" y="0" width="350" height="350" preserveAspectRatio="xMinYMin slice"><style type="text/css">.links{fill:transparent;stroke: #E4CF37;}.links:hover{fill:#63D272; opacity:0.4;}</style><defs><g id="allt"><path id="t876" d="M3201,192 L3190,193 C3179,195 3195,185 3183,186 C3172,187 3186,193 3177,192 L3168,192 3168,192 L3168,202 C3168,212 3157,196 3158,207 C3159,218 3168,205 3168,214 L3168,224 3168,224 L3178,224 C3188,224 3172,214 3183,214 C3195,215 3181,224 3191,224 L3201,224 3201,224 L3203,213 C3205,203 3191,215 3191,206 C3192,197 3202,210 3201,201 L3201,192"/></g><clipPath id="c" clipRule="evenodd" fill="transparent"><use href="#t876"/></clipPath></defs><svg viewBox="3156 184 50 41" preserveAspectRatio="xMinYMin meet"><svg width="4380" height="2430"><g><image crossorigin="anonymous" x="0" y="0" href="https://nftpuzzle.license-token.com/assets/completepuzzle.svg" width="100%" height="100%" /><g class="links"><use href="#t876"/></g></g></svg><svg x="3191" y="210" height="9%" width="9%" viewBox="0 0 330 330"><g><a xlink:href="https://nftpuzzle.license-token.com/" class="links"><title>See the most innovative NFT based token software licensing project</title><path fill="#E4CF37" id="more" d="M165,0C74.019,0,0,74.019,0,165s74.019,165,165,165s165-74.019,165-165S255.981,0,165,0z M85,190 c-13.785,0-25-11.215-25-25s11.215-25,25-25s25,11.215,25,25S98.785,190,85,190z M165,190c-13.785,0-25-11.215-25-25 s11.215-25,25-25s25,11.215,25,25S178.785,190,165,190z M245,190c-13.785,0-25-11.215-25-25s11.215-25,25-25 c13.785,0,25,11.215,25,25S258.785,190,245,190z"></path></a></g></svg></svg></svg>