<svg version="1.1" xmlns="http://www.w3.org/2000/svg" xmlns:xlink="http://www.w3.org/1999/xlink" fill="transparent" x="0" y="0" width="350" height="350" preserveAspectRatio="xMinYMin slice"><style type="text/css">.links{fill:transparent;stroke: #E4CF37;}.links:hover{fill:#63D272; opacity:0.4;}</style><defs><g id="allt"><path id="t8760" d="M1683,2144 L1673,2146 C1663,2148 1677,2137 1666,2137 C1655,2138 1670,2149 1660,2146 L1650,2144 1650,2144 L1650,2153 C1650,2162 1645,2151 1642,2159 C1639,2167 1651,2155 1650,2165 L1650,2176 1650,2176 L1659,2176 C1669,2176 1657,2171 1665,2168 C1674,2166 1661,2177 1672,2176 L1683,2176 1683,2176 L1682,2165 C1682,2155 1688,2168 1689,2159 C1691,2150 1680,2162 1681,2153 L1683,2144"/></g><clipPath id="c" clipRule="evenodd" fill="transparent"><use href="#t8760"/></clipPath></defs><svg viewBox="1638 2136 54 42" preserveAspectRatio="xMinYMin meet"><svg width="4380" height="2430"><g><image crossorigin="anonymous" x="0" y="0" href="https://nftpuzzle.license-token.com/assets/completepuzzle.svg" width="100%" height="100%" /><g class="links"><use href="#t8760"/></g></g></svg><svg x="1677" y="2163" height="9%" width="9%" viewBox="0 0 330 330"><g><a xlink:href="https://nftpuzzle.license-token.com/" class="links"><title>See the most innovative NFT based token software licensing project</title><path fill="#E4CF37" id="more" d="M165,0C74.019,0,0,74.019,0,165s74.019,165,165,165s165-74.019,165-165S255.981,0,165,0z M85,190 c-13.785,0-25-11.215-25-25s11.215-25,25-25s25,11.215,25,25S98.785,190,85,190z M165,190c-13.785,0-25-11.215-25-25 s11.215-25,25-25s25,11.215,25,25S178.785,190,165,190z M245,190c-13.785,0-25-11.215-25-25s11.215-25,25-25 c13.785,0,25,11.215,25,25S258.785,190,245,190z"></path></a></g></svg></svg></svg>