<svg version="1.1" xmlns="http://www.w3.org/2000/svg" xmlns:xlink="http://www.w3.org/1999/xlink" fill="transparent" x="0" y="0" width="350" height="350" preserveAspectRatio="xMinYMin slice"><style type="text/css">.links{fill:transparent;stroke: #E4CF37;}.links:hover{fill:#63D272; opacity:0.4;}</style><defs><g id="allt"><path id="t8763" d="M1782,2144 L1770,2144 C1759,2145 1776,2142 1767,2142 C1758,2142 1768,2144 1758,2144 L1749,2144 1749,2144 L1749,2153 C1749,2162 1744,2152 1744,2161 C1745,2171 1749,2156 1749,2166 L1749,2176 1749,2176 L1758,2176 C1768,2176 1757,2171 1767,2171 C1777,2172 1762,2176 1772,2176 L1782,2176 1782,2176 L1782,2166 C1783,2157 1780,2169 1779,2160 C1778,2152 1784,2164 1783,2154 L1782,2144"/></g><clipPath id="c" clipRule="evenodd" fill="transparent"><use href="#t8763"/></clipPath></defs><svg viewBox="1743 2141 42 36" preserveAspectRatio="xMinYMin meet"><svg width="4380" height="2430"><g><image crossorigin="anonymous" x="0" y="0" href="https://nftpuzzle.license-token.com/assets/completepuzzle.svg" width="100%" height="100%" /><g class="links"><use href="#t8763"/></g></g></svg><svg x="1770" y="2162" height="9%" width="9%" viewBox="0 0 330 330"><g><a xlink:href="https://nftpuzzle.license-token.com/" class="links"><title>See the most innovative NFT based token software licensing project</title><path fill="#E4CF37" id="more" d="M165,0C74.019,0,0,74.019,0,165s74.019,165,165,165s165-74.019,165-165S255.981,0,165,0z M85,190 c-13.785,0-25-11.215-25-25s11.215-25,25-25s25,11.215,25,25S98.785,190,85,190z M165,190c-13.785,0-25-11.215-25-25 s11.215-25,25-25s25,11.215,25,25S178.785,190,165,190z M245,190c-13.785,0-25-11.215-25-25s11.215-25,25-25 c13.785,0,25,11.215,25,25S258.785,190,245,190z"></path></a></g></svg></svg></svg>