<svg version="1.1" xmlns="http://www.w3.org/2000/svg" xmlns:xlink="http://www.w3.org/1999/xlink" fill="transparent" x="0" y="0" width="350" height="350" preserveAspectRatio="xMinYMin slice"><style type="text/css">.links{fill:transparent;stroke: #E4CF37;}.links:hover{fill:#63D272; opacity:0.4;}</style><defs><g id="allt"><path id="t8764" d="M1815,2144 L1805,2144 C1796,2144 1808,2154 1799,2152 C1791,2151 1803,2142 1792,2143 L1782,2144 1782,2144 L1783,2154 C1784,2164 1778,2152 1779,2160 C1780,2169 1783,2157 1782,2166 L1782,2176 1782,2176 L1792,2177 C1802,2178 1790,2172 1799,2173 C1808,2174 1796,2177 1805,2176 L1815,2176 1815,2176 L1816,2165 C1817,2155 1806,2170 1806,2159 C1807,2148 1818,2163 1816,2153 L1815,2144"/></g><clipPath id="c" clipRule="evenodd" fill="transparent"><use href="#t8764"/></clipPath></defs><svg viewBox="1777 2141 42 38" preserveAspectRatio="xMinYMin meet"><svg width="4380" height="2430"><g><image crossorigin="anonymous" x="0" y="0" href="https://nftpuzzle.license-token.com/assets/completepuzzle.svg" width="100%" height="100%" /><g class="links"><use href="#t8764"/></g></g></svg><svg x="1804" y="2164" height="9%" width="9%" viewBox="0 0 330 330"><g><a xlink:href="https://nftpuzzle.license-token.com/" class="links"><title>See the most innovative NFT based token software licensing project</title><path fill="#E4CF37" id="more" d="M165,0C74.019,0,0,74.019,0,165s74.019,165,165,165s165-74.019,165-165S255.981,0,165,0z M85,190 c-13.785,0-25-11.215-25-25s11.215-25,25-25s25,11.215,25,25S98.785,190,85,190z M165,190c-13.785,0-25-11.215-25-25 s11.215-25,25-25s25,11.215,25,25S178.785,190,165,190z M245,190c-13.785,0-25-11.215-25-25s11.215-25,25-25 c13.785,0,25,11.215,25,25S258.785,190,245,190z"></path></a></g></svg></svg></svg>