<svg version="1.1" xmlns="http://www.w3.org/2000/svg" xmlns:xlink="http://www.w3.org/1999/xlink" fill="transparent" x="0" y="0" width="350" height="350" preserveAspectRatio="xMinYMin slice"><style type="text/css">.links{fill:transparent;stroke: #E4CF37;}.links:hover{fill:#63D272; opacity:0.4;}</style><defs><g id="allt"><path id="t8765" d="M1848,2144 L1838,2144 C1829,2144 1838,2153 1830,2153 C1822,2153 1836,2141 1825,2142 L1815,2144 1815,2144 L1816,2153 C1818,2163 1807,2148 1806,2159 C1806,2170 1817,2155 1816,2165 L1815,2176 1815,2176 L1824,2177 C1834,2179 1819,2168 1830,2168 C1842,2168 1826,2178 1837,2177 L1848,2176 1848,2176 L1845,2166 C1843,2157 1858,2168 1856,2159 C1855,2151 1844,2163 1846,2153 L1848,2144"/></g><clipPath id="c" clipRule="evenodd" fill="transparent"><use href="#t8765"/></clipPath></defs><svg viewBox="1805 2140 54 40" preserveAspectRatio="xMinYMin meet"><svg width="4380" height="2430"><g><image crossorigin="anonymous" x="0" y="0" href="https://nftpuzzle.license-token.com/assets/completepuzzle.svg" width="100%" height="100%" /><g class="links"><use href="#t8765"/></g></g></svg><svg x="1844" y="2165" height="9%" width="9%" viewBox="0 0 330 330"><g><a xlink:href="https://nftpuzzle.license-token.com/" class="links"><title>See the most innovative NFT based token software licensing project</title><path fill="#E4CF37" id="more" d="M165,0C74.019,0,0,74.019,0,165s74.019,165,165,165s165-74.019,165-165S255.981,0,165,0z M85,190 c-13.785,0-25-11.215-25-25s11.215-25,25-25s25,11.215,25,25S98.785,190,85,190z M165,190c-13.785,0-25-11.215-25-25 s11.215-25,25-25s25,11.215,25,25S178.785,190,165,190z M245,190c-13.785,0-25-11.215-25-25s11.215-25,25-25 c13.785,0,25,11.215,25,25S258.785,190,245,190z"></path></a></g></svg></svg></svg>