<svg version="1.1" xmlns="http://www.w3.org/2000/svg" xmlns:xlink="http://www.w3.org/1999/xlink" fill="transparent" x="0" y="0" width="350" height="350" preserveAspectRatio="xMinYMin slice"><style type="text/css">.links{fill:transparent;stroke: #E4CF37;}.links:hover{fill:#63D272; opacity:0.4;}</style><defs><g id="allt"><path id="t8770" d="M2013,2144 L2003,2142 C1994,2141 2006,2149 1996,2149 C1986,2149 2001,2142 1990,2143 L1980,2144 1980,2144 L1981,2152 C1982,2161 1973,2151 1974,2159 C1975,2168 1982,2157 1981,2166 L1980,2176 1980,2176 L1989,2177 C1998,2178 1987,2169 1996,2170 C2005,2171 1993,2178 2003,2177 L2013,2176 2013,2176 L2013,2166 C2013,2156 2009,2168 2009,2159 C2010,2150 2013,2164 2013,2154 L2013,2144"/></g><clipPath id="c" clipRule="evenodd" fill="transparent"><use href="#t8770"/></clipPath></defs><svg viewBox="1972 2140 42 39" preserveAspectRatio="xMinYMin meet"><svg width="4380" height="2430"><g><image crossorigin="anonymous" x="0" y="0" href="https://nftpuzzle.license-token.com/assets/completepuzzle.svg" width="100%" height="100%" /><g class="links"><use href="#t8770"/></g></g></svg><svg x="1999" y="2164" height="9%" width="9%" viewBox="0 0 330 330"><g><a xlink:href="https://nftpuzzle.license-token.com/" class="links"><title>See the most innovative NFT based token software licensing project</title><path fill="#E4CF37" id="more" d="M165,0C74.019,0,0,74.019,0,165s74.019,165,165,165s165-74.019,165-165S255.981,0,165,0z M85,190 c-13.785,0-25-11.215-25-25s11.215-25,25-25s25,11.215,25,25S98.785,190,85,190z M165,190c-13.785,0-25-11.215-25-25 s11.215-25,25-25s25,11.215,25,25S178.785,190,165,190z M245,190c-13.785,0-25-11.215-25-25s11.215-25,25-25 c13.785,0,25,11.215,25,25S258.785,190,245,190z"></path></a></g></svg></svg></svg>