<svg version="1.1" xmlns="http://www.w3.org/2000/svg" xmlns:xlink="http://www.w3.org/1999/xlink" fill="transparent" x="0" y="0" width="350" height="350" preserveAspectRatio="xMinYMin slice"><style type="text/css">.links{fill:transparent;stroke: #E4CF37;}.links:hover{fill:#63D272; opacity:0.4;}</style><defs><g id="allt"><path id="t8771" d="M2046,2144 L2035,2144 C2025,2145 2038,2150 2028,2152 C2019,2154 2033,2144 2023,2144 L2013,2144 2013,2144 L2013,2154 C2013,2164 2010,2150 2009,2159 C2009,2168 2013,2156 2013,2166 L2013,2176 2013,2176 L2023,2176 C2034,2176 2019,2173 2028,2172 C2038,2172 2025,2176 2035,2176 L2046,2176 2046,2176 L2045,2165 C2044,2155 2050,2167 2049,2159 C2048,2152 2046,2162 2046,2153 L2046,2144"/></g><clipPath id="c" clipRule="evenodd" fill="transparent"><use href="#t8771"/></clipPath></defs><svg viewBox="2008 2143 43 34" preserveAspectRatio="xMinYMin meet"><svg width="4380" height="2430"><g><image crossorigin="anonymous" x="0" y="0" href="https://nftpuzzle.license-token.com/assets/completepuzzle.svg" width="100%" height="100%" /><g class="links"><use href="#t8771"/></g></g></svg><svg x="2036" y="2162" height="9%" width="9%" viewBox="0 0 330 330"><g><a xlink:href="https://nftpuzzle.license-token.com/" class="links"><title>See the most innovative NFT based token software licensing project</title><path fill="#E4CF37" id="more" d="M165,0C74.019,0,0,74.019,0,165s74.019,165,165,165s165-74.019,165-165S255.981,0,165,0z M85,190 c-13.785,0-25-11.215-25-25s11.215-25,25-25s25,11.215,25,25S98.785,190,85,190z M165,190c-13.785,0-25-11.215-25-25 s11.215-25,25-25s25,11.215,25,25S178.785,190,165,190z M245,190c-13.785,0-25-11.215-25-25s11.215-25,25-25 c13.785,0,25,11.215,25,25S258.785,190,245,190z"></path></a></g></svg></svg></svg>