<svg version="1.1" xmlns="http://www.w3.org/2000/svg" xmlns:xlink="http://www.w3.org/1999/xlink" fill="transparent" x="0" y="0" width="350" height="350" preserveAspectRatio="xMinYMin slice"><style type="text/css">.links{fill:transparent;stroke: #E4CF37;}.links:hover{fill:#63D272; opacity:0.4;}</style><defs><g id="allt"><path id="t8774" d="M2145,2144 L2133,2146 C2122,2148 2137,2136 2126,2136 C2116,2136 2130,2147 2121,2145 L2112,2144 2112,2144 L2112,2153 C2112,2163 2110,2150 2108,2159 C2107,2168 2114,2155 2113,2165 L2112,2176 2112,2176 L2122,2176 C2132,2176 2118,2174 2127,2172 C2136,2171 2124,2178 2134,2177 L2145,2176 2145,2176 L2145,2167 C2146,2158 2135,2167 2134,2158 C2134,2150 2147,2163 2146,2153 L2145,2144"/></g><clipPath id="c" clipRule="evenodd" fill="transparent"><use href="#t8774"/></clipPath></defs><svg viewBox="2106 2135 42 44" preserveAspectRatio="xMinYMin meet"><svg width="4380" height="2430"><g><image crossorigin="anonymous" x="0" y="0" href="https://nftpuzzle.license-token.com/assets/completepuzzle.svg" width="100%" height="100%" /><g class="links"><use href="#t8774"/></g></g></svg><svg x="2133" y="2164" height="9%" width="9%" viewBox="0 0 330 330"><g><a xlink:href="https://nftpuzzle.license-token.com/" class="links"><title>See the most innovative NFT based token software licensing project</title><path fill="#E4CF37" id="more" d="M165,0C74.019,0,0,74.019,0,165s74.019,165,165,165s165-74.019,165-165S255.981,0,165,0z M85,190 c-13.785,0-25-11.215-25-25s11.215-25,25-25s25,11.215,25,25S98.785,190,85,190z M165,190c-13.785,0-25-11.215-25-25 s11.215-25,25-25s25,11.215,25,25S178.785,190,165,190z M245,190c-13.785,0-25-11.215-25-25s11.215-25,25-25 c13.785,0,25,11.215,25,25S258.785,190,245,190z"></path></a></g></svg></svg></svg>