<svg version="1.1" xmlns="http://www.w3.org/2000/svg" xmlns:xlink="http://www.w3.org/1999/xlink" fill="transparent" x="0" y="0" width="350" height="350" preserveAspectRatio="xMinYMin slice"><style type="text/css">.links{fill:transparent;stroke: #E4CF37;}.links:hover{fill:#63D272; opacity:0.4;}</style><defs><g id="allt"><path id="t8776" d="M2211,2144 L2200,2145 C2189,2147 2205,2133 2195,2133 C2186,2134 2198,2144 2188,2144 L2178,2144 2178,2144 L2178,2153 C2178,2162 2175,2152 2175,2161 C2175,2170 2179,2155 2178,2165 L2178,2176 2178,2176 L2187,2176 C2196,2176 2187,2173 2196,2173 C2205,2173 2189,2177 2200,2176 L2211,2176 2211,2176 L2211,2165 C2211,2155 2201,2166 2203,2157 C2205,2149 2215,2165 2213,2154 L2211,2144"/></g><clipPath id="c" clipRule="evenodd" fill="transparent"><use href="#t8776"/></clipPath></defs><svg viewBox="2174 2132 42 46" preserveAspectRatio="xMinYMin meet"><svg width="4380" height="2430"><g><image crossorigin="anonymous" x="0" y="0" href="https://nftpuzzle.license-token.com/assets/completepuzzle.svg" width="100%" height="100%" /><g class="links"><use href="#t8776"/></g></g></svg><svg x="2201" y="2163" height="9%" width="9%" viewBox="0 0 330 330"><g><a xlink:href="https://nftpuzzle.license-token.com/" class="links"><title>See the most innovative NFT based token software licensing project</title><path fill="#E4CF37" id="more" d="M165,0C74.019,0,0,74.019,0,165s74.019,165,165,165s165-74.019,165-165S255.981,0,165,0z M85,190 c-13.785,0-25-11.215-25-25s11.215-25,25-25s25,11.215,25,25S98.785,190,85,190z M165,190c-13.785,0-25-11.215-25-25 s11.215-25,25-25s25,11.215,25,25S178.785,190,165,190z M245,190c-13.785,0-25-11.215-25-25s11.215-25,25-25 c13.785,0,25,11.215,25,25S258.785,190,245,190z"></path></a></g></svg></svg></svg>