<svg version="1.1" xmlns="http://www.w3.org/2000/svg" xmlns:xlink="http://www.w3.org/1999/xlink" fill="transparent" x="0" y="0" width="350" height="350" preserveAspectRatio="xMinYMin slice"><style type="text/css">.links{fill:transparent;stroke: #E4CF37;}.links:hover{fill:#63D272; opacity:0.4;}</style><defs><g id="allt"><path id="t878" d="M3267,192 L3256,191 C3246,191 3258,196 3249,195 C3240,195 3255,192 3244,192 L3234,192 3234,192 L3235,202 C3236,212 3222,197 3224,206 C3227,215 3236,203 3235,213 L3234,224 3234,224 L3244,225 C3254,226 3239,213 3248,215 C3258,217 3246,226 3256,225 L3267,224 3267,224 L3268,214 C3269,204 3263,214 3263,206 C3264,198 3270,213 3268,202 L3267,192"/></g><clipPath id="c" clipRule="evenodd" fill="transparent"><use href="#t878"/></clipPath></defs><svg viewBox="3221 190 50 37" preserveAspectRatio="xMinYMin meet"><svg width="4380" height="2430"><g><image crossorigin="anonymous" x="0" y="0" href="https://nftpuzzle.license-token.com/assets/completepuzzle.svg" width="100%" height="100%" /><g class="links"><use href="#t878"/></g></g></svg><svg x="3256" y="212" height="9%" width="9%" viewBox="0 0 330 330"><g><a xlink:href="https://nftpuzzle.license-token.com/" class="links"><title>See the most innovative NFT based token software licensing project</title><path fill="#E4CF37" id="more" d="M165,0C74.019,0,0,74.019,0,165s74.019,165,165,165s165-74.019,165-165S255.981,0,165,0z M85,190 c-13.785,0-25-11.215-25-25s11.215-25,25-25s25,11.215,25,25S98.785,190,85,190z M165,190c-13.785,0-25-11.215-25-25 s11.215-25,25-25s25,11.215,25,25S178.785,190,165,190z M245,190c-13.785,0-25-11.215-25-25s11.215-25,25-25 c13.785,0,25,11.215,25,25S258.785,190,245,190z"></path></a></g></svg></svg></svg>