<svg version="1.1" xmlns="http://www.w3.org/2000/svg" xmlns:xlink="http://www.w3.org/1999/xlink" fill="transparent" x="0" y="0" width="350" height="350" preserveAspectRatio="xMinYMin slice"><style type="text/css">.links{fill:transparent;stroke: #E4CF37;}.links:hover{fill:#63D272; opacity:0.4;}</style><defs><g id="allt"><path id="t8780" d="M2343,2144 L2333,2144 C2323,2144 2336,2149 2326,2148 C2317,2148 2331,2143 2320,2143 L2310,2144 2310,2144 L2308,2152 C2306,2161 2319,2151 2317,2160 C2316,2170 2306,2155 2308,2165 L2310,2176 2310,2176 L2319,2174 C2328,2172 2317,2185 2327,2183 C2337,2182 2321,2172 2332,2174 L2343,2176 2343,2176 L2343,2166 C2343,2157 2338,2170 2338,2159 C2339,2149 2344,2165 2343,2154 L2343,2144"/></g><clipPath id="c" clipRule="evenodd" fill="transparent"><use href="#t8780"/></clipPath></defs><svg viewBox="2305 2142 40 44" preserveAspectRatio="xMinYMin meet"><svg width="4380" height="2430"><g><image crossorigin="anonymous" x="0" y="0" href="https://nftpuzzle.license-token.com/assets/completepuzzle.svg" width="100%" height="100%" /><g class="links"><use href="#t8780"/></g></g></svg><svg x="2330" y="2171" height="9%" width="9%" viewBox="0 0 330 330"><g><a xlink:href="https://nftpuzzle.license-token.com/" class="links"><title>See the most innovative NFT based token software licensing project</title><path fill="#E4CF37" id="more" d="M165,0C74.019,0,0,74.019,0,165s74.019,165,165,165s165-74.019,165-165S255.981,0,165,0z M85,190 c-13.785,0-25-11.215-25-25s11.215-25,25-25s25,11.215,25,25S98.785,190,85,190z M165,190c-13.785,0-25-11.215-25-25 s11.215-25,25-25s25,11.215,25,25S178.785,190,165,190z M245,190c-13.785,0-25-11.215-25-25s11.215-25,25-25 c13.785,0,25,11.215,25,25S258.785,190,245,190z"></path></a></g></svg></svg></svg>