<svg version="1.1" xmlns="http://www.w3.org/2000/svg" xmlns:xlink="http://www.w3.org/1999/xlink" fill="transparent" x="0" y="0" width="350" height="350" preserveAspectRatio="xMinYMin slice"><style type="text/css">.links{fill:transparent;stroke: #E4CF37;}.links:hover{fill:#63D272; opacity:0.4;}</style><defs><g id="allt"><path id="t8782" d="M2409,2144 L2398,2142 C2388,2141 2401,2152 2392,2152 C2383,2152 2396,2141 2386,2142 L2376,2144 2376,2144 L2375,2153 C2374,2163 2379,2150 2379,2160 C2380,2170 2375,2158 2375,2167 L2376,2176 2376,2176 L2386,2175 C2396,2174 2382,2179 2392,2179 C2403,2180 2390,2175 2399,2175 L2409,2176 2409,2176 L2409,2166 C2409,2156 2418,2169 2418,2161 C2419,2153 2409,2165 2409,2154 L2409,2144"/></g><clipPath id="c" clipRule="evenodd" fill="transparent"><use href="#t8782"/></clipPath></defs><svg viewBox="2373 2140 47 41" preserveAspectRatio="xMinYMin meet"><svg width="4380" height="2430"><g><image crossorigin="anonymous" x="0" y="0" href="https://nftpuzzle.license-token.com/assets/completepuzzle.svg" width="100%" height="100%" /><g class="links"><use href="#t8782"/></g></g></svg><svg x="2405" y="2166" height="9%" width="9%" viewBox="0 0 330 330"><g><a xlink:href="https://nftpuzzle.license-token.com/" class="links"><title>See the most innovative NFT based token software licensing project</title><path fill="#E4CF37" id="more" d="M165,0C74.019,0,0,74.019,0,165s74.019,165,165,165s165-74.019,165-165S255.981,0,165,0z M85,190 c-13.785,0-25-11.215-25-25s11.215-25,25-25s25,11.215,25,25S98.785,190,85,190z M165,190c-13.785,0-25-11.215-25-25 s11.215-25,25-25s25,11.215,25,25S178.785,190,165,190z M245,190c-13.785,0-25-11.215-25-25s11.215-25,25-25 c13.785,0,25,11.215,25,25S258.785,190,245,190z"></path></a></g></svg></svg></svg>