<svg version="1.1" xmlns="http://www.w3.org/2000/svg" xmlns:xlink="http://www.w3.org/1999/xlink" fill="transparent" x="0" y="0" width="350" height="350" preserveAspectRatio="xMinYMin slice"><style type="text/css">.links{fill:transparent;stroke: #E4CF37;}.links:hover{fill:#63D272; opacity:0.4;}</style><defs><g id="allt"><path id="t8790" d="M2673,2144 L2661,2144 C2650,2144 2664,2140 2656,2138 C2648,2137 2660,2146 2650,2145 L2640,2144 2640,2144 L2639,2154 C2639,2165 2642,2153 2643,2160 C2644,2167 2639,2154 2639,2165 L2640,2176 2640,2176 L2651,2175 C2662,2175 2649,2178 2656,2179 C2664,2180 2651,2175 2662,2175 L2673,2176 2673,2176 L2673,2166 C2673,2156 2661,2170 2662,2159 C2664,2149 2673,2163 2673,2153 L2673,2144"/></g><clipPath id="c" clipRule="evenodd" fill="transparent"><use href="#t8790"/></clipPath></defs><svg viewBox="2638 2136 36 45" preserveAspectRatio="xMinYMin meet"><svg width="4380" height="2430"><g><image crossorigin="anonymous" x="0" y="0" href="https://nftpuzzle.license-token.com/assets/completepuzzle.svg" width="100%" height="100%" /><g class="links"><use href="#t8790"/></g></g></svg><svg x="2659" y="2166" height="9%" width="9%" viewBox="0 0 330 330"><g><a xlink:href="https://nftpuzzle.license-token.com/" class="links"><title>See the most innovative NFT based token software licensing project</title><path fill="#E4CF37" id="more" d="M165,0C74.019,0,0,74.019,0,165s74.019,165,165,165s165-74.019,165-165S255.981,0,165,0z M85,190 c-13.785,0-25-11.215-25-25s11.215-25,25-25s25,11.215,25,25S98.785,190,85,190z M165,190c-13.785,0-25-11.215-25-25 s11.215-25,25-25s25,11.215,25,25S178.785,190,165,190z M245,190c-13.785,0-25-11.215-25-25s11.215-25,25-25 c13.785,0,25,11.215,25,25S258.785,190,245,190z"></path></a></g></svg></svg></svg>