<svg version="1.1" xmlns="http://www.w3.org/2000/svg" xmlns:xlink="http://www.w3.org/1999/xlink" fill="transparent" x="0" y="0" width="350" height="350" preserveAspectRatio="xMinYMin slice"><style type="text/css">.links{fill:transparent;stroke: #E4CF37;}.links:hover{fill:#63D272; opacity:0.4;}</style><defs><g id="allt"><path id="t8792" d="M2739,2144 L2729,2144 C2719,2144 2732,2138 2722,2138 C2712,2138 2724,2144 2715,2144 L2706,2144 2706,2144 L2707,2153 C2708,2163 2702,2152 2701,2161 C2701,2170 2709,2154 2707,2165 L2706,2176 2706,2176 L2716,2177 C2726,2178 2714,2172 2723,2171 C2733,2171 2716,2179 2727,2177 L2739,2176 2739,2176 L2740,2166 C2741,2157 2729,2166 2728,2159 C2728,2153 2739,2164 2739,2154 L2739,2144"/></g><clipPath id="c" clipRule="evenodd" fill="transparent"><use href="#t8792"/></clipPath></defs><svg viewBox="2700 2137 42 43" preserveAspectRatio="xMinYMin meet"><svg width="4380" height="2430"><g><image crossorigin="anonymous" x="0" y="0" href="https://nftpuzzle.license-token.com/assets/completepuzzle.svg" width="100%" height="100%" /><g class="links"><use href="#t8792"/></g></g></svg><svg x="2727" y="2165" height="9%" width="9%" viewBox="0 0 330 330"><g><a xlink:href="https://nftpuzzle.license-token.com/" class="links"><title>See the most innovative NFT based token software licensing project</title><path fill="#E4CF37" id="more" d="M165,0C74.019,0,0,74.019,0,165s74.019,165,165,165s165-74.019,165-165S255.981,0,165,0z M85,190 c-13.785,0-25-11.215-25-25s11.215-25,25-25s25,11.215,25,25S98.785,190,85,190z M165,190c-13.785,0-25-11.215-25-25 s11.215-25,25-25s25,11.215,25,25S178.785,190,165,190z M245,190c-13.785,0-25-11.215-25-25s11.215-25,25-25 c13.785,0,25,11.215,25,25S258.785,190,245,190z"></path></a></g></svg></svg></svg>