<svg version="1.1" xmlns="http://www.w3.org/2000/svg" xmlns:xlink="http://www.w3.org/1999/xlink" fill="transparent" x="0" y="0" width="350" height="350" preserveAspectRatio="xMinYMin slice"><style type="text/css">.links{fill:transparent;stroke: #E4CF37;}.links:hover{fill:#63D272; opacity:0.4;}</style><defs><g id="allt"><path id="t8799" d="M2970,2144 L2960,2144 C2950,2144 2964,2139 2953,2137 C2943,2136 2957,2144 2947,2144 L2937,2144 2937,2144 L2937,2154 C2938,2164 2934,2152 2934,2159 C2934,2167 2938,2156 2937,2166 L2937,2176 2937,2176 L2947,2176 C2957,2177 2945,2173 2953,2173 C2961,2173 2950,2177 2960,2176 L2970,2176 2970,2176 L2970,2166 C2970,2157 2973,2167 2974,2159 C2976,2152 2970,2161 2970,2152 L2970,2144"/></g><clipPath id="c" clipRule="evenodd" fill="transparent"><use href="#t8799"/></clipPath></defs><svg viewBox="2933 2135 44 43" preserveAspectRatio="xMinYMin meet"><svg width="4380" height="2430"><g><image crossorigin="anonymous" x="0" y="0" href="https://nftpuzzle.license-token.com/assets/completepuzzle.svg" width="100%" height="100%" /><g class="links"><use href="#t8799"/></g></g></svg><svg x="2962" y="2163" height="9%" width="9%" viewBox="0 0 330 330"><g><a xlink:href="https://nftpuzzle.license-token.com/" class="links"><title>See the most innovative NFT based token software licensing project</title><path fill="#E4CF37" id="more" d="M165,0C74.019,0,0,74.019,0,165s74.019,165,165,165s165-74.019,165-165S255.981,0,165,0z M85,190 c-13.785,0-25-11.215-25-25s11.215-25,25-25s25,11.215,25,25S98.785,190,85,190z M165,190c-13.785,0-25-11.215-25-25 s11.215-25,25-25s25,11.215,25,25S178.785,190,165,190z M245,190c-13.785,0-25-11.215-25-25s11.215-25,25-25 c13.785,0,25,11.215,25,25S258.785,190,245,190z"></path></a></g></svg></svg></svg>