<svg version="1.1" xmlns="http://www.w3.org/2000/svg" xmlns:xlink="http://www.w3.org/1999/xlink" fill="transparent" x="0" y="0" width="350" height="350" preserveAspectRatio="xMinYMin slice"><style type="text/css">.links{fill:transparent;stroke: #E4CF37;}.links:hover{fill:#63D272; opacity:0.4;}</style><defs><g id="allt"><path id="t8802" d="M3069,2144 L3058,2143 C3048,2143 3061,2151 3053,2152 C3045,2153 3055,2144 3045,2144 L3036,2144 3036,2144 L3037,2153 C3038,2163 3029,2149 3030,2159 C3032,2169 3038,2157 3037,2166 L3036,2176 3036,2176 L3045,2177 C3055,2178 3041,2169 3051,2170 C3062,2172 3049,2178 3059,2177 L3069,2176 3069,2176 L3069,2166 C3069,2156 3063,2168 3062,2158 C3062,2149 3069,2163 3069,2153 L3069,2144"/></g><clipPath id="c" clipRule="evenodd" fill="transparent"><use href="#t8802"/></clipPath></defs><svg viewBox="3028 2142 42 37" preserveAspectRatio="xMinYMin meet"><svg width="4380" height="2430"><g><image crossorigin="anonymous" x="0" y="0" href="https://nftpuzzle.license-token.com/assets/completepuzzle.svg" width="100%" height="100%" /><g class="links"><use href="#t8802"/></g></g></svg><svg x="3055" y="2164" height="9%" width="9%" viewBox="0 0 330 330"><g><a xlink:href="https://nftpuzzle.license-token.com/" class="links"><title>See the most innovative NFT based token software licensing project</title><path fill="#E4CF37" id="more" d="M165,0C74.019,0,0,74.019,0,165s74.019,165,165,165s165-74.019,165-165S255.981,0,165,0z M85,190 c-13.785,0-25-11.215-25-25s11.215-25,25-25s25,11.215,25,25S98.785,190,85,190z M165,190c-13.785,0-25-11.215-25-25 s11.215-25,25-25s25,11.215,25,25S178.785,190,165,190z M245,190c-13.785,0-25-11.215-25-25s11.215-25,25-25 c13.785,0,25,11.215,25,25S258.785,190,245,190z"></path></a></g></svg></svg></svg>