<svg version="1.1" xmlns="http://www.w3.org/2000/svg" xmlns:xlink="http://www.w3.org/1999/xlink" fill="transparent" x="0" y="0" width="350" height="350" preserveAspectRatio="xMinYMin slice"><style type="text/css">.links{fill:transparent;stroke: #E4CF37;}.links:hover{fill:#63D272; opacity:0.4;}</style><defs><g id="allt"><path id="t8805" d="M3168,2144 L3157,2144 C3147,2145 3162,2139 3152,2138 C3142,2137 3155,2144 3145,2144 L3135,2144 3135,2144 L3137,2154 C3139,2164 3127,2150 3127,2158 C3127,2167 3137,2154 3136,2165 L3135,2176 3135,2176 L3145,2178 C3155,2180 3141,2168 3150,2168 C3159,2168 3146,2178 3157,2177 L3168,2176 3168,2176 L3168,2165 C3168,2154 3164,2166 3164,2159 C3164,2153 3168,2161 3168,2152 L3168,2144"/></g><clipPath id="c" clipRule="evenodd" fill="transparent"><use href="#t8805"/></clipPath></defs><svg viewBox="3126 2136 43 45" preserveAspectRatio="xMinYMin meet"><svg width="4380" height="2430"><g><image crossorigin="anonymous" x="0" y="0" href="https://nftpuzzle.license-token.com/assets/completepuzzle.svg" width="100%" height="100%" /><g class="links"><use href="#t8805"/></g></g></svg><svg x="3154" y="2166" height="9%" width="9%" viewBox="0 0 330 330"><g><a xlink:href="https://nftpuzzle.license-token.com/" class="links"><title>See the most innovative NFT based token software licensing project</title><path fill="#E4CF37" id="more" d="M165,0C74.019,0,0,74.019,0,165s74.019,165,165,165s165-74.019,165-165S255.981,0,165,0z M85,190 c-13.785,0-25-11.215-25-25s11.215-25,25-25s25,11.215,25,25S98.785,190,85,190z M165,190c-13.785,0-25-11.215-25-25 s11.215-25,25-25s25,11.215,25,25S178.785,190,165,190z M245,190c-13.785,0-25-11.215-25-25s11.215-25,25-25 c13.785,0,25,11.215,25,25S258.785,190,245,190z"></path></a></g></svg></svg></svg>