<svg version="1.1" xmlns="http://www.w3.org/2000/svg" xmlns:xlink="http://www.w3.org/1999/xlink" fill="transparent" x="0" y="0" width="350" height="350" preserveAspectRatio="xMinYMin slice"><style type="text/css">.links{fill:transparent;stroke: #E4CF37;}.links:hover{fill:#63D272; opacity:0.4;}</style><defs><g id="allt"><path id="t8808" d="M3267,2144 L3256,2145 C3246,2147 3261,2139 3251,2139 C3242,2140 3255,2145 3244,2144 L3234,2144 3234,2144 L3234,2154 C3234,2164 3230,2152 3229,2159 C3228,2166 3236,2158 3235,2167 L3234,2176 3234,2176 L3244,2176 C3255,2176 3242,2172 3249,2171 C3257,2170 3248,2178 3257,2177 L3267,2176 3267,2176 L3269,2167 C3271,2158 3258,2169 3258,2160 C3259,2152 3271,2163 3269,2153 L3267,2144"/></g><clipPath id="c" clipRule="evenodd" fill="transparent"><use href="#t8808"/></clipPath></defs><svg viewBox="3227 2138 45 41" preserveAspectRatio="xMinYMin meet"><svg width="4380" height="2430"><g><image crossorigin="anonymous" x="0" y="0" href="https://nftpuzzle.license-token.com/assets/completepuzzle.svg" width="100%" height="100%" /><g class="links"><use href="#t8808"/></g></g></svg><svg x="3257" y="2164" height="9%" width="9%" viewBox="0 0 330 330"><g><a xlink:href="https://nftpuzzle.license-token.com/" class="links"><title>See the most innovative NFT based token software licensing project</title><path fill="#E4CF37" id="more" d="M165,0C74.019,0,0,74.019,0,165s74.019,165,165,165s165-74.019,165-165S255.981,0,165,0z M85,190 c-13.785,0-25-11.215-25-25s11.215-25,25-25s25,11.215,25,25S98.785,190,85,190z M165,190c-13.785,0-25-11.215-25-25 s11.215-25,25-25s25,11.215,25,25S178.785,190,165,190z M245,190c-13.785,0-25-11.215-25-25s11.215-25,25-25 c13.785,0,25,11.215,25,25S258.785,190,245,190z"></path></a></g></svg></svg></svg>