<svg version="1.1" xmlns="http://www.w3.org/2000/svg" xmlns:xlink="http://www.w3.org/1999/xlink" fill="transparent" x="0" y="0" width="350" height="350" preserveAspectRatio="xMinYMin slice"><style type="text/css">.links{fill:transparent;stroke: #E4CF37;}.links:hover{fill:#63D272; opacity:0.4;}</style><defs><g id="allt"><path id="t8811" d="M3366,2144 L3354,2144 C3343,2144 3359,2138 3348,2137 C3337,2136 3354,2147 3343,2145 L3333,2144 3333,2144 L3332,2153 C3332,2162 3336,2152 3336,2160 C3337,2168 3333,2154 3333,2165 L3333,2176 3333,2176 L3342,2175 C3352,2175 3341,2179 3349,2179 C3358,2180 3343,2176 3354,2176 L3366,2176 3366,2176 L3365,2166 C3364,2157 3376,2169 3375,2160 C3375,2152 3366,2165 3366,2154 L3366,2144"/></g><clipPath id="c" clipRule="evenodd" fill="transparent"><use href="#t8811"/></clipPath></defs><svg viewBox="3331 2135 46 46" preserveAspectRatio="xMinYMin meet"><svg width="4380" height="2430"><g><image crossorigin="anonymous" x="0" y="0" href="https://nftpuzzle.license-token.com/assets/completepuzzle.svg" width="100%" height="100%" /><g class="links"><use href="#t8811"/></g></g></svg><svg x="3362" y="2166" height="9%" width="9%" viewBox="0 0 330 330"><g><a xlink:href="https://nftpuzzle.license-token.com/" class="links"><title>See the most innovative NFT based token software licensing project</title><path fill="#E4CF37" id="more" d="M165,0C74.019,0,0,74.019,0,165s74.019,165,165,165s165-74.019,165-165S255.981,0,165,0z M85,190 c-13.785,0-25-11.215-25-25s11.215-25,25-25s25,11.215,25,25S98.785,190,85,190z M165,190c-13.785,0-25-11.215-25-25 s11.215-25,25-25s25,11.215,25,25S178.785,190,165,190z M245,190c-13.785,0-25-11.215-25-25s11.215-25,25-25 c13.785,0,25,11.215,25,25S258.785,190,245,190z"></path></a></g></svg></svg></svg>