<svg version="1.1" xmlns="http://www.w3.org/2000/svg" xmlns:xlink="http://www.w3.org/1999/xlink" fill="transparent" x="0" y="0" width="350" height="350" preserveAspectRatio="xMinYMin slice"><style type="text/css">.links{fill:transparent;stroke: #E4CF37;}.links:hover{fill:#63D272; opacity:0.4;}</style><defs><g id="allt"><path id="t8813" d="M3432,2144 L3420,2143 C3409,2143 3424,2148 3415,2147 C3406,2146 3418,2144 3408,2144 L3399,2144 3399,2144 L3400,2153 C3402,2163 3394,2151 3394,2159 C3395,2168 3402,2155 3400,2165 L3399,2176 3399,2176 L3408,2177 C3418,2179 3406,2171 3415,2171 C3424,2172 3410,2179 3421,2177 L3432,2176 3432,2176 L3432,2165 C3432,2155 3428,2169 3428,2161 C3428,2153 3435,2164 3433,2154 L3432,2144"/></g><clipPath id="c" clipRule="evenodd" fill="transparent"><use href="#t8813"/></clipPath></defs><svg viewBox="3393 2142 43 38" preserveAspectRatio="xMinYMin meet"><svg width="4380" height="2430"><g><image crossorigin="anonymous" x="0" y="0" href="https://nftpuzzle.license-token.com/assets/completepuzzle.svg" width="100%" height="100%" /><g class="links"><use href="#t8813"/></g></g></svg><svg x="3421" y="2165" height="9%" width="9%" viewBox="0 0 330 330"><g><a xlink:href="https://nftpuzzle.license-token.com/" class="links"><title>See the most innovative NFT based token software licensing project</title><path fill="#E4CF37" id="more" d="M165,0C74.019,0,0,74.019,0,165s74.019,165,165,165s165-74.019,165-165S255.981,0,165,0z M85,190 c-13.785,0-25-11.215-25-25s11.215-25,25-25s25,11.215,25,25S98.785,190,85,190z M165,190c-13.785,0-25-11.215-25-25 s11.215-25,25-25s25,11.215,25,25S178.785,190,165,190z M245,190c-13.785,0-25-11.215-25-25s11.215-25,25-25 c13.785,0,25,11.215,25,25S258.785,190,245,190z"></path></a></g></svg></svg></svg>