<svg version="1.1" xmlns="http://www.w3.org/2000/svg" xmlns:xlink="http://www.w3.org/1999/xlink" fill="transparent" x="0" y="0" width="350" height="350" preserveAspectRatio="xMinYMin slice"><style type="text/css">.links{fill:transparent;stroke: #E4CF37;}.links:hover{fill:#63D272; opacity:0.4;}</style><defs><g id="allt"><path id="t8816" d="M3531,2144 L3520,2144 C3510,2144 3521,2136 3512,2137 C3503,2138 3517,2147 3507,2145 L3498,2144 3498,2144 L3499,2153 C3500,2163 3494,2148 3494,2158 C3494,2168 3498,2156 3498,2166 L3498,2176 3498,2176 L3508,2177 C3518,2178 3502,2172 3512,2172 C3523,2172 3511,2176 3521,2176 L3531,2176 3531,2176 L3531,2167 C3531,2158 3523,2170 3522,2159 C3522,2149 3532,2162 3531,2153 L3531,2144"/></g><clipPath id="c" clipRule="evenodd" fill="transparent"><use href="#t8816"/></clipPath></defs><svg viewBox="3493 2135 40 44" preserveAspectRatio="xMinYMin meet"><svg width="4380" height="2430"><g><image crossorigin="anonymous" x="0" y="0" href="https://nftpuzzle.license-token.com/assets/completepuzzle.svg" width="100%" height="100%" /><g class="links"><use href="#t8816"/></g></g></svg><svg x="3518" y="2164" height="9%" width="9%" viewBox="0 0 330 330"><g><a xlink:href="https://nftpuzzle.license-token.com/" class="links"><title>See the most innovative NFT based token software licensing project</title><path fill="#E4CF37" id="more" d="M165,0C74.019,0,0,74.019,0,165s74.019,165,165,165s165-74.019,165-165S255.981,0,165,0z M85,190 c-13.785,0-25-11.215-25-25s11.215-25,25-25s25,11.215,25,25S98.785,190,85,190z M165,190c-13.785,0-25-11.215-25-25 s11.215-25,25-25s25,11.215,25,25S178.785,190,165,190z M245,190c-13.785,0-25-11.215-25-25s11.215-25,25-25 c13.785,0,25,11.215,25,25S258.785,190,245,190z"></path></a></g></svg></svg></svg>