<svg version="1.1" xmlns="http://www.w3.org/2000/svg" xmlns:xlink="http://www.w3.org/1999/xlink" fill="transparent" x="0" y="0" width="350" height="350" preserveAspectRatio="xMinYMin slice"><style type="text/css">.links{fill:transparent;stroke: #E4CF37;}.links:hover{fill:#63D272; opacity:0.4;}</style><defs><g id="allt"><path id="t882" d="M3399,192 L3389,193 C3380,194 3389,185 3380,186 C3372,188 3385,192 3375,192 L3366,192 3366,192 L3366,201 C3366,210 3371,198 3370,208 C3370,218 3364,206 3365,215 L3366,224 3366,224 L3375,224 C3385,224 3372,229 3382,228 C3393,228 3380,222 3389,223 L3399,224 3399,224 L3399,214 C3399,204 3394,216 3394,207 C3394,199 3399,212 3399,202 L3399,192"/></g><clipPath id="c" clipRule="evenodd" fill="transparent"><use href="#t882"/></clipPath></defs><svg viewBox="3363 184 37 46" preserveAspectRatio="xMinYMin meet"><svg width="4380" height="2430"><g><image crossorigin="anonymous" x="0" y="0" href="https://nftpuzzle.license-token.com/assets/completepuzzle.svg" width="100%" height="100%" /><g class="links"><use href="#t882"/></g></g></svg><svg x="3385" y="215" height="9%" width="9%" viewBox="0 0 330 330"><g><a xlink:href="https://nftpuzzle.license-token.com/" class="links"><title>See the most innovative NFT based token software licensing project</title><path fill="#E4CF37" id="more" d="M165,0C74.019,0,0,74.019,0,165s74.019,165,165,165s165-74.019,165-165S255.981,0,165,0z M85,190 c-13.785,0-25-11.215-25-25s11.215-25,25-25s25,11.215,25,25S98.785,190,85,190z M165,190c-13.785,0-25-11.215-25-25 s11.215-25,25-25s25,11.215,25,25S178.785,190,165,190z M245,190c-13.785,0-25-11.215-25-25s11.215-25,25-25 c13.785,0,25,11.215,25,25S258.785,190,245,190z"></path></a></g></svg></svg></svg>