<svg version="1.1" xmlns="http://www.w3.org/2000/svg" xmlns:xlink="http://www.w3.org/1999/xlink" fill="transparent" x="0" y="0" width="350" height="350" preserveAspectRatio="xMinYMin slice"><style type="text/css">.links{fill:transparent;stroke: #E4CF37;}.links:hover{fill:#63D272; opacity:0.4;}</style><defs><g id="allt"><path id="t8828" d="M3927,2144 L3915,2142 C3904,2141 3917,2149 3910,2148 C3903,2148 3912,2144 3903,2144 L3894,2144 3894,2144 L3893,2153 C3893,2162 3899,2150 3898,2159 C3897,2169 3892,2155 3893,2165 L3894,2176 3894,2176 L3903,2175 C3912,2175 3900,2181 3910,2180 C3920,2179 3906,2174 3916,2175 L3927,2176 3927,2176 L3925,2166 C3923,2156 3934,2168 3933,2158 C3932,2149 3927,2164 3927,2154 L3927,2144"/></g><clipPath id="c" clipRule="evenodd" fill="transparent"><use href="#t8828"/></clipPath></defs><svg viewBox="3891 2140 44 42" preserveAspectRatio="xMinYMin meet"><svg width="4380" height="2430"><g><image crossorigin="anonymous" x="0" y="0" href="https://nftpuzzle.license-token.com/assets/completepuzzle.svg" width="100%" height="100%" /><g class="links"><use href="#t8828"/></g></g></svg><svg x="3920" y="2167" height="9%" width="9%" viewBox="0 0 330 330"><g><a xlink:href="https://nftpuzzle.license-token.com/" class="links"><title>See the most innovative NFT based token software licensing project</title><path fill="#E4CF37" id="more" d="M165,0C74.019,0,0,74.019,0,165s74.019,165,165,165s165-74.019,165-165S255.981,0,165,0z M85,190 c-13.785,0-25-11.215-25-25s11.215-25,25-25s25,11.215,25,25S98.785,190,85,190z M165,190c-13.785,0-25-11.215-25-25 s11.215-25,25-25s25,11.215,25,25S178.785,190,165,190z M245,190c-13.785,0-25-11.215-25-25s11.215-25,25-25 c13.785,0,25,11.215,25,25S258.785,190,245,190z"></path></a></g></svg></svg></svg>