<svg version="1.1" xmlns="http://www.w3.org/2000/svg" xmlns:xlink="http://www.w3.org/1999/xlink" fill="transparent" x="0" y="0" width="350" height="350" preserveAspectRatio="xMinYMin slice"><style type="text/css">.links{fill:transparent;stroke: #E4CF37;}.links:hover{fill:#63D272; opacity:0.4;}</style><defs><g id="allt"><path id="t8836" d="M4191,2144 L4180,2144 C4170,2144 4181,2141 4172,2140 C4164,2139 4178,2147 4168,2145 L4158,2144 4158,2144 L4158,2152 C4158,2161 4154,2152 4155,2160 C4156,2168 4158,2155 4158,2165 L4158,2176 4158,2176 L4167,2176 C4176,2176 4166,2172 4174,2173 C4183,2174 4169,2176 4180,2176 L4191,2176 4191,2176 L4191,2167 C4191,2158 4198,2169 4197,2159 C4196,2149 4191,2161 4191,2152 L4191,2144"/></g><clipPath id="c" clipRule="evenodd" fill="transparent"><use href="#t8836"/></clipPath></defs><svg viewBox="4153 2138 46 39" preserveAspectRatio="xMinYMin meet"><svg width="4380" height="2430"><g><image crossorigin="anonymous" x="0" y="0" href="https://nftpuzzle.license-token.com/assets/completepuzzle.svg" width="100%" height="100%" /><g class="links"><use href="#t8836"/></g></g></svg><svg x="4184" y="2162" height="9%" width="9%" viewBox="0 0 330 330"><g><a xlink:href="https://nftpuzzle.license-token.com/" class="links"><title>See the most innovative NFT based token software licensing project</title><path fill="#E4CF37" id="more" d="M165,0C74.019,0,0,74.019,0,165s74.019,165,165,165s165-74.019,165-165S255.981,0,165,0z M85,190 c-13.785,0-25-11.215-25-25s11.215-25,25-25s25,11.215,25,25S98.785,190,85,190z M165,190c-13.785,0-25-11.215-25-25 s11.215-25,25-25s25,11.215,25,25S178.785,190,165,190z M245,190c-13.785,0-25-11.215-25-25s11.215-25,25-25 c13.785,0,25,11.215,25,25S258.785,190,245,190z"></path></a></g></svg></svg></svg>