<svg version="1.1" xmlns="http://www.w3.org/2000/svg" xmlns:xlink="http://www.w3.org/1999/xlink" fill="transparent" x="0" y="0" width="350" height="350" preserveAspectRatio="xMinYMin slice"><style type="text/css">.links{fill:transparent;stroke: #E4CF37;}.links:hover{fill:#63D272; opacity:0.4;}</style><defs><g id="allt"><path id="t884" d="M3465,192 L3453,191 C3442,191 3458,202 3447,201 C3436,200 3451,192 3441,192 L3432,192 3432,192 L3433,200 C3435,209 3425,198 3424,207 C3423,216 3432,205 3432,214 L3432,224 3432,224 L3441,225 C3450,227 3438,217 3447,216 C3457,215 3445,224 3455,224 L3465,224 3465,224 L3465,213 C3466,203 3458,215 3458,207 C3458,200 3467,213 3466,202 L3465,192"/></g><clipPath id="c" clipRule="evenodd" fill="transparent"><use href="#t884"/></clipPath></defs><svg viewBox="3422 190 46 38" preserveAspectRatio="xMinYMin meet"><svg width="4380" height="2430"><g><image crossorigin="anonymous" x="0" y="0" href="https://nftpuzzle.license-token.com/assets/completepuzzle.svg" width="100%" height="100%" /><g class="links"><use href="#t884"/></g></g></svg><svg x="3453" y="213" height="9%" width="9%" viewBox="0 0 330 330"><g><a xlink:href="https://nftpuzzle.license-token.com/" class="links"><title>See the most innovative NFT based token software licensing project</title><path fill="#E4CF37" id="more" d="M165,0C74.019,0,0,74.019,0,165s74.019,165,165,165s165-74.019,165-165S255.981,0,165,0z M85,190 c-13.785,0-25-11.215-25-25s11.215-25,25-25s25,11.215,25,25S98.785,190,85,190z M165,190c-13.785,0-25-11.215-25-25 s11.215-25,25-25s25,11.215,25,25S178.785,190,165,190z M245,190c-13.785,0-25-11.215-25-25s11.215-25,25-25 c13.785,0,25,11.215,25,25S258.785,190,245,190z"></path></a></g></svg></svg></svg>