<svg version="1.1" xmlns="http://www.w3.org/2000/svg" xmlns:xlink="http://www.w3.org/1999/xlink" fill="transparent" x="0" y="0" width="350" height="350" preserveAspectRatio="xMinYMin slice"><style type="text/css">.links{fill:transparent;stroke: #E4CF37;}.links:hover{fill:#63D272; opacity:0.4;}</style><defs><g id="allt"><path id="t8842" d="M99,2176 L88,2175 C77,2174 92,2180 83,2180 C74,2181 84,2174 75,2175 L66,2176 66,2176 L65,2186 C64,2196 68,2181 69,2189 C70,2198 66,2189 66,2198 L66,2208 66,2208 L76,2207 C87,2206 71,2210 80,2211 C89,2212 79,2208 89,2208 L99,2208 99,2208 L101,2198 C103,2188 93,2199 93,2192 C94,2185 99,2193 99,2184 L99,2176"/></g><clipPath id="c" clipRule="evenodd" fill="transparent"><use href="#t8842"/></clipPath></defs><svg viewBox="63 2173 41 40" preserveAspectRatio="xMinYMin meet"><svg width="4380" height="2430"><g><image crossorigin="anonymous" x="0" y="0" href="https://nftpuzzle.license-token.com/assets/completepuzzle.svg" width="100%" height="100%" /><g class="links"><use href="#t8842"/></g></g></svg><svg x="89" y="2198" height="9%" width="9%" viewBox="0 0 330 330"><g><a xlink:href="https://nftpuzzle.license-token.com/" class="links"><title>See the most innovative NFT based token software licensing project</title><path fill="#E4CF37" id="more" d="M165,0C74.019,0,0,74.019,0,165s74.019,165,165,165s165-74.019,165-165S255.981,0,165,0z M85,190 c-13.785,0-25-11.215-25-25s11.215-25,25-25s25,11.215,25,25S98.785,190,85,190z M165,190c-13.785,0-25-11.215-25-25 s11.215-25,25-25s25,11.215,25,25S178.785,190,165,190z M245,190c-13.785,0-25-11.215-25-25s11.215-25,25-25 c13.785,0,25,11.215,25,25S258.785,190,245,190z"></path></a></g></svg></svg></svg>