<svg version="1.1" xmlns="http://www.w3.org/2000/svg" xmlns:xlink="http://www.w3.org/1999/xlink" fill="transparent" x="0" y="0" width="350" height="350" preserveAspectRatio="xMinYMin slice"><style type="text/css">.links{fill:transparent;stroke: #E4CF37;}.links:hover{fill:#63D272; opacity:0.4;}</style><defs><g id="allt"><path id="t8845" d="M198,2176 L188,2176 C178,2176 191,2170 180,2166 C170,2163 183,2176 174,2176 L165,2176 165,2176 L165,2185 C165,2194 159,2183 159,2190 C159,2198 167,2187 166,2197 L165,2208 165,2208 L174,2208 C184,2208 172,2202 180,2202 C188,2202 176,2210 187,2209 L198,2208 198,2208 L195,2197 C193,2186 205,2200 207,2191 C209,2182 199,2194 198,2185 L198,2176"/></g><clipPath id="c" clipRule="evenodd" fill="transparent"><use href="#t8845"/></clipPath></defs><svg viewBox="158 2162 52 49" preserveAspectRatio="xMinYMin meet"><svg width="4380" height="2430"><g><image crossorigin="anonymous" x="0" y="0" href="https://nftpuzzle.license-token.com/assets/completepuzzle.svg" width="100%" height="100%" /><g class="links"><use href="#t8845"/></g></g></svg><svg x="195" y="2196" height="9%" width="9%" viewBox="0 0 330 330"><g><a xlink:href="https://nftpuzzle.license-token.com/" class="links"><title>See the most innovative NFT based token software licensing project</title><path fill="#E4CF37" id="more" d="M165,0C74.019,0,0,74.019,0,165s74.019,165,165,165s165-74.019,165-165S255.981,0,165,0z M85,190 c-13.785,0-25-11.215-25-25s11.215-25,25-25s25,11.215,25,25S98.785,190,85,190z M165,190c-13.785,0-25-11.215-25-25 s11.215-25,25-25s25,11.215,25,25S178.785,190,165,190z M245,190c-13.785,0-25-11.215-25-25s11.215-25,25-25 c13.785,0,25,11.215,25,25S258.785,190,245,190z"></path></a></g></svg></svg></svg>