<svg version="1.1" xmlns="http://www.w3.org/2000/svg" xmlns:xlink="http://www.w3.org/1999/xlink" fill="transparent" x="0" y="0" width="350" height="350" preserveAspectRatio="xMinYMin slice"><style type="text/css">.links{fill:transparent;stroke: #E4CF37;}.links:hover{fill:#63D272; opacity:0.4;}</style><defs><g id="allt"><path id="t8846" d="M231,2176 L220,2176 C209,2176 223,2170 215,2168 C207,2166 220,2179 209,2177 L198,2176 198,2176 L198,2185 C199,2194 209,2182 207,2191 C205,2200 193,2186 195,2197 L198,2208 198,2208 L207,2208 C217,2209 204,2218 213,2216 C223,2215 209,2203 220,2205 L231,2208 231,2208 L231,2198 C231,2189 229,2201 228,2193 C227,2185 232,2197 231,2186 L231,2176"/></g><clipPath id="c" clipRule="evenodd" fill="transparent"><use href="#t8846"/></clipPath></defs><svg viewBox="192 2165 41 54" preserveAspectRatio="xMinYMin meet"><svg width="4380" height="2430"><g><image crossorigin="anonymous" x="0" y="0" href="https://nftpuzzle.license-token.com/assets/completepuzzle.svg" width="100%" height="100%" /><g class="links"><use href="#t8846"/></g></g></svg><svg x="218" y="2204" height="9%" width="9%" viewBox="0 0 330 330"><g><a xlink:href="https://nftpuzzle.license-token.com/" class="links"><title>See the most innovative NFT based token software licensing project</title><path fill="#E4CF37" id="more" d="M165,0C74.019,0,0,74.019,0,165s74.019,165,165,165s165-74.019,165-165S255.981,0,165,0z M85,190 c-13.785,0-25-11.215-25-25s11.215-25,25-25s25,11.215,25,25S98.785,190,85,190z M165,190c-13.785,0-25-11.215-25-25 s11.215-25,25-25s25,11.215,25,25S178.785,190,165,190z M245,190c-13.785,0-25-11.215-25-25s11.215-25,25-25 c13.785,0,25,11.215,25,25S258.785,190,245,190z"></path></a></g></svg></svg></svg>