<svg version="1.1" xmlns="http://www.w3.org/2000/svg" xmlns:xlink="http://www.w3.org/1999/xlink" fill="transparent" x="0" y="0" width="350" height="350" preserveAspectRatio="xMinYMin slice"><style type="text/css">.links{fill:transparent;stroke: #E4CF37;}.links:hover{fill:#63D272; opacity:0.4;}</style><defs><g id="allt"><path id="t8849" d="M330,2176 L319,2177 C309,2178 325,2168 314,2169 C304,2170 315,2176 306,2176 L297,2176 297,2176 L298,2186 C299,2196 289,2183 290,2192 C291,2202 300,2189 298,2198 L297,2208 297,2208 L307,2209 C317,2210 304,2200 314,2201 C324,2202 310,2211 320,2209 L330,2208 330,2208 L330,2199 C330,2190 323,2200 323,2192 C324,2185 330,2195 330,2185 L330,2176"/></g><clipPath id="c" clipRule="evenodd" fill="transparent"><use href="#t8849"/></clipPath></defs><svg viewBox="288 2167 43 45" preserveAspectRatio="xMinYMin meet"><svg width="4380" height="2430"><g><image crossorigin="anonymous" x="0" y="0" href="https://nftpuzzle.license-token.com/assets/completepuzzle.svg" width="100%" height="100%" /><g class="links"><use href="#t8849"/></g></g></svg><svg x="316" y="2197" height="9%" width="9%" viewBox="0 0 330 330"><g><a xlink:href="https://nftpuzzle.license-token.com/" class="links"><title>See the most innovative NFT based token software licensing project</title><path fill="#E4CF37" id="more" d="M165,0C74.019,0,0,74.019,0,165s74.019,165,165,165s165-74.019,165-165S255.981,0,165,0z M85,190 c-13.785,0-25-11.215-25-25s11.215-25,25-25s25,11.215,25,25S98.785,190,85,190z M165,190c-13.785,0-25-11.215-25-25 s11.215-25,25-25s25,11.215,25,25S178.785,190,165,190z M245,190c-13.785,0-25-11.215-25-25s11.215-25,25-25 c13.785,0,25,11.215,25,25S258.785,190,245,190z"></path></a></g></svg></svg></svg>