<svg version="1.1" xmlns="http://www.w3.org/2000/svg" xmlns:xlink="http://www.w3.org/1999/xlink" fill="transparent" x="0" y="0" width="350" height="350" preserveAspectRatio="xMinYMin slice"><style type="text/css">.links{fill:transparent;stroke: #E4CF37;}.links:hover{fill:#63D272; opacity:0.4;}</style><defs><g id="allt"><path id="t8851" d="M396,2176 L385,2176 C375,2177 388,2174 380,2173 C372,2173 382,2176 372,2176 L363,2176 363,2176 L364,2185 C365,2195 359,2183 359,2191 C359,2199 364,2188 363,2198 L363,2208 363,2208 L373,2209 C383,2210 370,2204 378,2204 C387,2204 376,2209 386,2208 L396,2208 396,2208 L396,2198 C396,2188 392,2198 391,2189 C390,2181 396,2196 396,2186 L396,2176"/></g><clipPath id="c" clipRule="evenodd" fill="transparent"><use href="#t8851"/></clipPath></defs><svg viewBox="358 2172 39 39" preserveAspectRatio="xMinYMin meet"><svg width="4380" height="2430"><g><image crossorigin="anonymous" x="0" y="0" href="https://nftpuzzle.license-token.com/assets/completepuzzle.svg" width="100%" height="100%" /><g class="links"><use href="#t8851"/></g></g></svg><svg x="382" y="2196" height="9%" width="9%" viewBox="0 0 330 330"><g><a xlink:href="https://nftpuzzle.license-token.com/" class="links"><title>See the most innovative NFT based token software licensing project</title><path fill="#E4CF37" id="more" d="M165,0C74.019,0,0,74.019,0,165s74.019,165,165,165s165-74.019,165-165S255.981,0,165,0z M85,190 c-13.785,0-25-11.215-25-25s11.215-25,25-25s25,11.215,25,25S98.785,190,85,190z M165,190c-13.785,0-25-11.215-25-25 s11.215-25,25-25s25,11.215,25,25S178.785,190,165,190z M245,190c-13.785,0-25-11.215-25-25s11.215-25,25-25 c13.785,0,25,11.215,25,25S258.785,190,245,190z"></path></a></g></svg></svg></svg>