<svg version="1.1" xmlns="http://www.w3.org/2000/svg" xmlns:xlink="http://www.w3.org/1999/xlink" fill="transparent" x="0" y="0" width="350" height="350" preserveAspectRatio="xMinYMin slice"><style type="text/css">.links{fill:transparent;stroke: #E4CF37;}.links:hover{fill:#63D272; opacity:0.4;}</style><defs><g id="allt"><path id="t8852" d="M429,2176 L419,2177 C409,2179 422,2173 411,2171 C400,2170 417,2177 406,2176 L396,2176 396,2176 L396,2186 C396,2196 390,2181 391,2189 C392,2198 396,2188 396,2198 L396,2208 396,2208 L406,2208 C416,2208 401,2202 410,2203 C419,2204 409,2208 419,2208 L429,2208 429,2208 L429,2198 C430,2189 425,2200 424,2192 C424,2184 429,2194 429,2185 L429,2176"/></g><clipPath id="c" clipRule="evenodd" fill="transparent"><use href="#t8852"/></clipPath></defs><svg viewBox="389 2169 42 40" preserveAspectRatio="xMinYMin meet"><svg width="4380" height="2430"><g><image crossorigin="anonymous" x="0" y="0" href="https://nftpuzzle.license-token.com/assets/completepuzzle.svg" width="100%" height="100%" /><g class="links"><use href="#t8852"/></g></g></svg><svg x="416" y="2194" height="9%" width="9%" viewBox="0 0 330 330"><g><a xlink:href="https://nftpuzzle.license-token.com/" class="links"><title>See the most innovative NFT based token software licensing project</title><path fill="#E4CF37" id="more" d="M165,0C74.019,0,0,74.019,0,165s74.019,165,165,165s165-74.019,165-165S255.981,0,165,0z M85,190 c-13.785,0-25-11.215-25-25s11.215-25,25-25s25,11.215,25,25S98.785,190,85,190z M165,190c-13.785,0-25-11.215-25-25 s11.215-25,25-25s25,11.215,25,25S178.785,190,165,190z M245,190c-13.785,0-25-11.215-25-25s11.215-25,25-25 c13.785,0,25,11.215,25,25S258.785,190,245,190z"></path></a></g></svg></svg></svg>