<svg version="1.1" xmlns="http://www.w3.org/2000/svg" xmlns:xlink="http://www.w3.org/1999/xlink" fill="transparent" x="0" y="0" width="350" height="350" preserveAspectRatio="xMinYMin slice"><style type="text/css">.links{fill:transparent;stroke: #E4CF37;}.links:hover{fill:#63D272; opacity:0.4;}</style><defs><g id="allt"><path id="t8853" d="M462,2176 L451,2176 C441,2176 457,2172 446,2172 C436,2173 449,2177 439,2176 L429,2176 429,2176 L429,2185 C429,2194 424,2184 424,2192 C425,2200 430,2189 429,2198 L429,2208 429,2208 L438,2208 C448,2208 437,2203 445,2203 C453,2204 442,2209 452,2208 L462,2208 462,2208 L463,2198 C464,2188 453,2200 453,2190 C454,2180 462,2196 462,2186 L462,2176"/></g><clipPath id="c" clipRule="evenodd" fill="transparent"><use href="#t8853"/></clipPath></defs><svg viewBox="423 2171 42 39" preserveAspectRatio="xMinYMin meet"><svg width="4380" height="2430"><g><image crossorigin="anonymous" x="0" y="0" href="https://nftpuzzle.license-token.com/assets/completepuzzle.svg" width="100%" height="100%" /><g class="links"><use href="#t8853"/></g></g></svg><svg x="450" y="2195" height="9%" width="9%" viewBox="0 0 330 330"><g><a xlink:href="https://nftpuzzle.license-token.com/" class="links"><title>See the most innovative NFT based token software licensing project</title><path fill="#E4CF37" id="more" d="M165,0C74.019,0,0,74.019,0,165s74.019,165,165,165s165-74.019,165-165S255.981,0,165,0z M85,190 c-13.785,0-25-11.215-25-25s11.215-25,25-25s25,11.215,25,25S98.785,190,85,190z M165,190c-13.785,0-25-11.215-25-25 s11.215-25,25-25s25,11.215,25,25S178.785,190,165,190z M245,190c-13.785,0-25-11.215-25-25s11.215-25,25-25 c13.785,0,25,11.215,25,25S258.785,190,245,190z"></path></a></g></svg></svg></svg>