<svg version="1.1" xmlns="http://www.w3.org/2000/svg" xmlns:xlink="http://www.w3.org/1999/xlink" fill="transparent" x="0" y="0" width="350" height="350" preserveAspectRatio="xMinYMin slice"><style type="text/css">.links{fill:transparent;stroke: #E4CF37;}.links:hover{fill:#63D272; opacity:0.4;}</style><defs><g id="allt"><path id="t8858" d="M627,2176 L615,2176 C604,2176 617,2172 608,2171 C600,2170 614,2177 604,2176 L594,2176 594,2176 L594,2185 C594,2194 587,2183 588,2190 C590,2198 598,2186 596,2197 L594,2208 594,2208 L603,2208 C613,2208 601,2201 609,2202 C617,2204 604,2212 615,2210 L627,2208 627,2208 L627,2197 C627,2187 619,2201 618,2192 C617,2184 628,2193 627,2184 L627,2176"/></g><clipPath id="c" clipRule="evenodd" fill="transparent"><use href="#t8858"/></clipPath></defs><svg viewBox="586 2169 43 44" preserveAspectRatio="xMinYMin meet"><svg width="4380" height="2430"><g><image crossorigin="anonymous" x="0" y="0" href="https://nftpuzzle.license-token.com/assets/completepuzzle.svg" width="100%" height="100%" /><g class="links"><use href="#t8858"/></g></g></svg><svg x="614" y="2198" height="9%" width="9%" viewBox="0 0 330 330"><g><a xlink:href="https://nftpuzzle.license-token.com/" class="links"><title>See the most innovative NFT based token software licensing project</title><path fill="#E4CF37" id="more" d="M165,0C74.019,0,0,74.019,0,165s74.019,165,165,165s165-74.019,165-165S255.981,0,165,0z M85,190 c-13.785,0-25-11.215-25-25s11.215-25,25-25s25,11.215,25,25S98.785,190,85,190z M165,190c-13.785,0-25-11.215-25-25 s11.215-25,25-25s25,11.215,25,25S178.785,190,165,190z M245,190c-13.785,0-25-11.215-25-25s11.215-25,25-25 c13.785,0,25,11.215,25,25S258.785,190,245,190z"></path></a></g></svg></svg></svg>