<svg version="1.1" xmlns="http://www.w3.org/2000/svg" xmlns:xlink="http://www.w3.org/1999/xlink" fill="transparent" x="0" y="0" width="350" height="350" preserveAspectRatio="xMinYMin slice"><style type="text/css">.links{fill:transparent;stroke: #E4CF37;}.links:hover{fill:#63D272; opacity:0.4;}</style><defs><g id="allt"><path id="t886" d="M3531,192 L3520,192 C3510,192 3522,186 3513,186 C3504,186 3519,195 3508,193 L3498,192 3498,192 L3498,201 C3498,211 3501,200 3501,209 C3501,218 3498,204 3498,214 L3498,224 3498,224 L3508,224 C3518,224 3506,227 3515,227 C3525,227 3511,224 3521,224 L3531,224 3531,224 L3529,213 C3528,203 3537,215 3539,207 C3541,199 3527,209 3529,200 L3531,192"/></g><clipPath id="c" clipRule="evenodd" fill="transparent"><use href="#t886"/></clipPath></defs><svg viewBox="3497 185 45 43" preserveAspectRatio="xMinYMin meet"><svg width="4380" height="2430"><g><image crossorigin="anonymous" x="0" y="0" href="https://nftpuzzle.license-token.com/assets/completepuzzle.svg" width="100%" height="100%" /><g class="links"><use href="#t886"/></g></g></svg><svg x="3527" y="213" height="9%" width="9%" viewBox="0 0 330 330"><g><a xlink:href="https://nftpuzzle.license-token.com/" class="links"><title>See the most innovative NFT based token software licensing project</title><path fill="#E4CF37" id="more" d="M165,0C74.019,0,0,74.019,0,165s74.019,165,165,165s165-74.019,165-165S255.981,0,165,0z M85,190 c-13.785,0-25-11.215-25-25s11.215-25,25-25s25,11.215,25,25S98.785,190,85,190z M165,190c-13.785,0-25-11.215-25-25 s11.215-25,25-25s25,11.215,25,25S178.785,190,165,190z M245,190c-13.785,0-25-11.215-25-25s11.215-25,25-25 c13.785,0,25,11.215,25,25S258.785,190,245,190z"></path></a></g></svg></svg></svg>