<svg version="1.1" xmlns="http://www.w3.org/2000/svg" xmlns:xlink="http://www.w3.org/1999/xlink" fill="transparent" x="0" y="0" width="350" height="350" preserveAspectRatio="xMinYMin slice"><style type="text/css">.links{fill:transparent;stroke: #E4CF37;}.links:hover{fill:#63D272; opacity:0.4;}</style><defs><g id="allt"><path id="t8862" d="M759,2176 L749,2175 C739,2175 749,2181 741,2182 C734,2183 748,2172 737,2174 L726,2176 726,2176 L726,2186 C726,2197 728,2181 728,2190 C729,2199 726,2186 726,2197 L726,2208 726,2208 L736,2208 C747,2208 731,2210 740,2210 C749,2211 737,2208 748,2208 L759,2208 759,2208 L759,2197 C759,2186 766,2198 765,2191 C765,2185 756,2196 757,2186 L759,2176"/></g><clipPath id="c" clipRule="evenodd" fill="transparent"><use href="#t8862"/></clipPath></defs><svg viewBox="725 2171 42 41" preserveAspectRatio="xMinYMin meet"><svg width="4380" height="2430"><g><image crossorigin="anonymous" x="0" y="0" href="https://nftpuzzle.license-token.com/assets/completepuzzle.svg" width="100%" height="100%" /><g class="links"><use href="#t8862"/></g></g></svg><svg x="752" y="2197" height="9%" width="9%" viewBox="0 0 330 330"><g><a xlink:href="https://nftpuzzle.license-token.com/" class="links"><title>See the most innovative NFT based token software licensing project</title><path fill="#E4CF37" id="more" d="M165,0C74.019,0,0,74.019,0,165s74.019,165,165,165s165-74.019,165-165S255.981,0,165,0z M85,190 c-13.785,0-25-11.215-25-25s11.215-25,25-25s25,11.215,25,25S98.785,190,85,190z M165,190c-13.785,0-25-11.215-25-25 s11.215-25,25-25s25,11.215,25,25S178.785,190,165,190z M245,190c-13.785,0-25-11.215-25-25s11.215-25,25-25 c13.785,0,25,11.215,25,25S258.785,190,245,190z"></path></a></g></svg></svg></svg>