<svg version="1.1" xmlns="http://www.w3.org/2000/svg" xmlns:xlink="http://www.w3.org/1999/xlink" fill="transparent" x="0" y="0" width="350" height="350" preserveAspectRatio="xMinYMin slice"><style type="text/css">.links{fill:transparent;stroke: #E4CF37;}.links:hover{fill:#63D272; opacity:0.4;}</style><defs><g id="allt"><path id="t8864" d="M825,2176 L813,2177 C802,2179 816,2168 806,2168 C797,2168 810,2176 801,2176 L792,2176 792,2176 L794,2185 C796,2194 784,2183 786,2192 C788,2202 793,2188 792,2198 L792,2208 792,2208 L801,2210 C810,2212 799,2200 809,2202 C819,2204 804,2209 814,2208 L825,2208 825,2208 L825,2199 C826,2190 818,2198 818,2190 C818,2183 827,2194 826,2185 L825,2176"/></g><clipPath id="c" clipRule="evenodd" fill="transparent"><use href="#t8864"/></clipPath></defs><svg viewBox="783 2167 45 46" preserveAspectRatio="xMinYMin meet"><svg width="4380" height="2430"><g><image crossorigin="anonymous" x="0" y="0" href="https://nftpuzzle.license-token.com/assets/completepuzzle.svg" width="100%" height="100%" /><g class="links"><use href="#t8864"/></g></g></svg><svg x="813" y="2198" height="9%" width="9%" viewBox="0 0 330 330"><g><a xlink:href="https://nftpuzzle.license-token.com/" class="links"><title>See the most innovative NFT based token software licensing project</title><path fill="#E4CF37" id="more" d="M165,0C74.019,0,0,74.019,0,165s74.019,165,165,165s165-74.019,165-165S255.981,0,165,0z M85,190 c-13.785,0-25-11.215-25-25s11.215-25,25-25s25,11.215,25,25S98.785,190,85,190z M165,190c-13.785,0-25-11.215-25-25 s11.215-25,25-25s25,11.215,25,25S178.785,190,165,190z M245,190c-13.785,0-25-11.215-25-25s11.215-25,25-25 c13.785,0,25,11.215,25,25S258.785,190,245,190z"></path></a></g></svg></svg></svg>