<svg version="1.1" xmlns="http://www.w3.org/2000/svg" xmlns:xlink="http://www.w3.org/1999/xlink" fill="transparent" x="0" y="0" width="350" height="350" preserveAspectRatio="xMinYMin slice"><style type="text/css">.links{fill:transparent;stroke: #E4CF37;}.links:hover{fill:#63D272; opacity:0.4;}</style><defs><g id="allt"><path id="t8865" d="M858,2176 L847,2177 C837,2179 851,2170 842,2169 C834,2169 847,2179 836,2177 L825,2176 825,2176 L826,2185 C827,2194 818,2183 818,2190 C818,2198 826,2190 825,2199 L825,2208 825,2208 L834,2209 C844,2210 832,2201 840,2201 C848,2201 839,2209 848,2208 L858,2208 858,2208 L858,2198 C858,2188 847,2199 849,2190 C852,2181 858,2195 858,2185 L858,2176"/></g><clipPath id="c" clipRule="evenodd" fill="transparent"><use href="#t8865"/></clipPath></defs><svg viewBox="817 2168 42 43" preserveAspectRatio="xMinYMin meet"><svg width="4380" height="2430"><g><image crossorigin="anonymous" x="0" y="0" href="https://nftpuzzle.license-token.com/assets/completepuzzle.svg" width="100%" height="100%" /><g class="links"><use href="#t8865"/></g></g></svg><svg x="844" y="2196" height="9%" width="9%" viewBox="0 0 330 330"><g><a xlink:href="https://nftpuzzle.license-token.com/" class="links"><title>See the most innovative NFT based token software licensing project</title><path fill="#E4CF37" id="more" d="M165,0C74.019,0,0,74.019,0,165s74.019,165,165,165s165-74.019,165-165S255.981,0,165,0z M85,190 c-13.785,0-25-11.215-25-25s11.215-25,25-25s25,11.215,25,25S98.785,190,85,190z M165,190c-13.785,0-25-11.215-25-25 s11.215-25,25-25s25,11.215,25,25S178.785,190,165,190z M245,190c-13.785,0-25-11.215-25-25s11.215-25,25-25 c13.785,0,25,11.215,25,25S258.785,190,245,190z"></path></a></g></svg></svg></svg>