<svg version="1.1" xmlns="http://www.w3.org/2000/svg" xmlns:xlink="http://www.w3.org/1999/xlink" fill="transparent" x="0" y="0" width="350" height="350" preserveAspectRatio="xMinYMin slice"><style type="text/css">.links{fill:transparent;stroke: #E4CF37;}.links:hover{fill:#63D272; opacity:0.4;}</style><defs><g id="allt"><path id="t8873" d="M1122,2176 L1111,2176 C1100,2177 1114,2172 1106,2171 C1098,2170 1108,2179 1098,2177 L1089,2176 1089,2176 L1089,2185 C1089,2194 1097,2184 1096,2192 C1095,2200 1087,2190 1088,2199 L1089,2208 1089,2208 L1098,2208 C1107,2208 1098,2216 1105,2215 C1113,2214 1103,2206 1112,2207 L1122,2208 1122,2208 L1120,2199 C1119,2190 1129,2200 1131,2192 C1134,2185 1122,2195 1122,2185 L1122,2176"/></g><clipPath id="c" clipRule="evenodd" fill="transparent"><use href="#t8873"/></clipPath></defs><svg viewBox="1086 2169 49 48" preserveAspectRatio="xMinYMin meet"><svg width="4380" height="2430"><g><image crossorigin="anonymous" x="0" y="0" href="https://nftpuzzle.license-token.com/assets/completepuzzle.svg" width="100%" height="100%" /><g class="links"><use href="#t8873"/></g></g></svg><svg x="1120" y="2202" height="9%" width="9%" viewBox="0 0 330 330"><g><a xlink:href="https://nftpuzzle.license-token.com/" class="links"><title>See the most innovative NFT based token software licensing project</title><path fill="#E4CF37" id="more" d="M165,0C74.019,0,0,74.019,0,165s74.019,165,165,165s165-74.019,165-165S255.981,0,165,0z M85,190 c-13.785,0-25-11.215-25-25s11.215-25,25-25s25,11.215,25,25S98.785,190,85,190z M165,190c-13.785,0-25-11.215-25-25 s11.215-25,25-25s25,11.215,25,25S178.785,190,165,190z M245,190c-13.785,0-25-11.215-25-25s11.215-25,25-25 c13.785,0,25,11.215,25,25S258.785,190,245,190z"></path></a></g></svg></svg></svg>