<svg version="1.1" xmlns="http://www.w3.org/2000/svg" xmlns:xlink="http://www.w3.org/1999/xlink" fill="transparent" x="0" y="0" width="350" height="350" preserveAspectRatio="xMinYMin slice"><style type="text/css">.links{fill:transparent;stroke: #E4CF37;}.links:hover{fill:#63D272; opacity:0.4;}</style><defs><g id="allt"><path id="t888" d="M3597,192 L3587,192 C3577,192 3591,201 3580,200 C3569,199 3583,190 3573,191 L3564,192 3564,192 L3564,200 C3564,209 3570,197 3571,206 C3572,215 3559,204 3561,214 L3564,224 3564,224 L3573,224 C3582,224 3569,230 3578,231 C3587,232 3576,219 3586,221 L3597,224 3597,224 L3597,214 C3597,204 3595,214 3594,207 C3593,201 3599,210 3598,201 L3597,192"/></g><clipPath id="c" clipRule="evenodd" fill="transparent"><use href="#t888"/></clipPath></defs><svg viewBox="3558 189 42 44" preserveAspectRatio="xMinYMin meet"><svg width="4380" height="2430"><g><image crossorigin="anonymous" x="0" y="0" href="https://nftpuzzle.license-token.com/assets/completepuzzle.svg" width="100%" height="100%" /><g class="links"><use href="#t888"/></g></g></svg><svg x="3585" y="218" height="9%" width="9%" viewBox="0 0 330 330"><g><a xlink:href="https://nftpuzzle.license-token.com/" class="links"><title>See the most innovative NFT based token software licensing project</title><path fill="#E4CF37" id="more" d="M165,0C74.019,0,0,74.019,0,165s74.019,165,165,165s165-74.019,165-165S255.981,0,165,0z M85,190 c-13.785,0-25-11.215-25-25s11.215-25,25-25s25,11.215,25,25S98.785,190,85,190z M165,190c-13.785,0-25-11.215-25-25 s11.215-25,25-25s25,11.215,25,25S178.785,190,165,190z M245,190c-13.785,0-25-11.215-25-25s11.215-25,25-25 c13.785,0,25,11.215,25,25S258.785,190,245,190z"></path></a></g></svg></svg></svg>