<svg version="1.1" xmlns="http://www.w3.org/2000/svg" xmlns:xlink="http://www.w3.org/1999/xlink" fill="transparent" x="0" y="0" width="350" height="350" preserveAspectRatio="xMinYMin slice"><style type="text/css">.links{fill:transparent;stroke: #E4CF37;}.links:hover{fill:#63D272; opacity:0.4;}</style><defs><g id="allt"><path id="t8890" d="M1683,2176 L1672,2176 C1661,2177 1674,2166 1665,2168 C1657,2171 1669,2176 1659,2176 L1650,2176 1650,2176 L1649,2186 C1648,2197 1656,2181 1657,2190 C1658,2200 1649,2187 1649,2197 L1650,2208 1650,2208 L1660,2207 C1671,2206 1655,2214 1664,2215 C1674,2216 1662,2207 1672,2207 L1683,2208 1683,2208 L1684,2198 C1685,2189 1678,2199 1678,2192 C1678,2185 1684,2194 1683,2185 L1683,2176"/></g><clipPath id="c" clipRule="evenodd" fill="transparent"><use href="#t8890"/></clipPath></defs><svg viewBox="1647 2165 39 52" preserveAspectRatio="xMinYMin meet"><svg width="4380" height="2430"><g><image crossorigin="anonymous" x="0" y="0" href="https://nftpuzzle.license-token.com/assets/completepuzzle.svg" width="100%" height="100%" /><g class="links"><use href="#t8890"/></g></g></svg><svg x="1671" y="2202" height="9%" width="9%" viewBox="0 0 330 330"><g><a xlink:href="https://nftpuzzle.license-token.com/" class="links"><title>See the most innovative NFT based token software licensing project</title><path fill="#E4CF37" id="more" d="M165,0C74.019,0,0,74.019,0,165s74.019,165,165,165s165-74.019,165-165S255.981,0,165,0z M85,190 c-13.785,0-25-11.215-25-25s11.215-25,25-25s25,11.215,25,25S98.785,190,85,190z M165,190c-13.785,0-25-11.215-25-25 s11.215-25,25-25s25,11.215,25,25S178.785,190,165,190z M245,190c-13.785,0-25-11.215-25-25s11.215-25,25-25 c13.785,0,25,11.215,25,25S258.785,190,245,190z"></path></a></g></svg></svg></svg>