<svg version="1.1" xmlns="http://www.w3.org/2000/svg" xmlns:xlink="http://www.w3.org/1999/xlink" fill="transparent" x="0" y="0" width="350" height="350" preserveAspectRatio="xMinYMin slice"><style type="text/css">.links{fill:transparent;stroke: #E4CF37;}.links:hover{fill:#63D272; opacity:0.4;}</style><defs><g id="allt"><path id="t8894" d="M1815,2176 L1805,2176 C1796,2177 1808,2174 1799,2173 C1790,2172 1802,2178 1792,2177 L1782,2176 1782,2176 L1784,2185 C1786,2194 1772,2182 1773,2191 C1775,2200 1784,2189 1783,2198 L1782,2208 1782,2208 L1791,2210 C1801,2212 1788,2198 1797,2199 C1807,2201 1796,2210 1805,2209 L1815,2208 1815,2208 L1815,2198 C1815,2189 1811,2202 1810,2192 C1810,2183 1816,2195 1815,2185 L1815,2176"/></g><clipPath id="c" clipRule="evenodd" fill="transparent"><use href="#t8894"/></clipPath></defs><svg viewBox="1771 2171 46 42" preserveAspectRatio="xMinYMin meet"><svg width="4380" height="2430"><g><image crossorigin="anonymous" x="0" y="0" href="https://nftpuzzle.license-token.com/assets/completepuzzle.svg" width="100%" height="100%" /><g class="links"><use href="#t8894"/></g></g></svg><svg x="1802" y="2198" height="9%" width="9%" viewBox="0 0 330 330"><g><a xlink:href="https://nftpuzzle.license-token.com/" class="links"><title>See the most innovative NFT based token software licensing project</title><path fill="#E4CF37" id="more" d="M165,0C74.019,0,0,74.019,0,165s74.019,165,165,165s165-74.019,165-165S255.981,0,165,0z M85,190 c-13.785,0-25-11.215-25-25s11.215-25,25-25s25,11.215,25,25S98.785,190,85,190z M165,190c-13.785,0-25-11.215-25-25 s11.215-25,25-25s25,11.215,25,25S178.785,190,165,190z M245,190c-13.785,0-25-11.215-25-25s11.215-25,25-25 c13.785,0,25,11.215,25,25S258.785,190,245,190z"></path></a></g></svg></svg></svg>