<svg version="1.1" xmlns="http://www.w3.org/2000/svg" xmlns:xlink="http://www.w3.org/1999/xlink" fill="transparent" x="0" y="0" width="350" height="350" preserveAspectRatio="xMinYMin slice"><style type="text/css">.links{fill:transparent;stroke: #E4CF37;}.links:hover{fill:#63D272; opacity:0.4;}</style><defs><g id="allt"><path id="t8898" d="M1947,2176 L1937,2177 C1927,2179 1939,2171 1929,2168 C1920,2166 1934,2181 1924,2178 L1914,2176 1914,2176 L1914,2185 C1914,2194 1923,2180 1922,2189 C1921,2198 1914,2188 1914,2198 L1914,2208 1914,2208 L1923,2208 C1933,2208 1918,2217 1927,2216 C1937,2215 1926,2208 1936,2208 L1947,2208 1947,2208 L1947,2197 C1947,2186 1952,2199 1954,2191 C1956,2184 1947,2196 1947,2186 L1947,2176"/></g><clipPath id="c" clipRule="evenodd" fill="transparent"><use href="#t8898"/></clipPath></defs><svg viewBox="1913 2165 44 53" preserveAspectRatio="xMinYMin meet"><svg width="4380" height="2430"><g><image crossorigin="anonymous" x="0" y="0" href="https://nftpuzzle.license-token.com/assets/completepuzzle.svg" width="100%" height="100%" /><g class="links"><use href="#t8898"/></g></g></svg><svg x="1942" y="2203" height="9%" width="9%" viewBox="0 0 330 330"><g><a xlink:href="https://nftpuzzle.license-token.com/" class="links"><title>See the most innovative NFT based token software licensing project</title><path fill="#E4CF37" id="more" d="M165,0C74.019,0,0,74.019,0,165s74.019,165,165,165s165-74.019,165-165S255.981,0,165,0z M85,190 c-13.785,0-25-11.215-25-25s11.215-25,25-25s25,11.215,25,25S98.785,190,85,190z M165,190c-13.785,0-25-11.215-25-25 s11.215-25,25-25s25,11.215,25,25S178.785,190,165,190z M245,190c-13.785,0-25-11.215-25-25s11.215-25,25-25 c13.785,0,25,11.215,25,25S258.785,190,245,190z"></path></a></g></svg></svg></svg>