<svg version="1.1" xmlns="http://www.w3.org/2000/svg" xmlns:xlink="http://www.w3.org/1999/xlink" fill="transparent" x="0" y="0" width="350" height="350" preserveAspectRatio="xMinYMin slice"><style type="text/css">.links{fill:transparent;stroke: #E4CF37;}.links:hover{fill:#63D272; opacity:0.4;}</style><defs><g id="allt"><path id="t8903" d="M2112,2176 L2101,2176 C2091,2176 2106,2172 2095,2172 C2084,2172 2099,2177 2089,2176 L2079,2176 2079,2176 L2080,2184 C2081,2193 2075,2182 2074,2191 C2073,2201 2079,2186 2079,2197 L2079,2208 2079,2208 L2088,2209 C2097,2210 2085,2204 2095,2203 C2105,2202 2089,2208 2100,2208 L2112,2208 2112,2208 L2112,2199 C2112,2190 2108,2199 2107,2190 C2106,2181 2114,2194 2113,2185 L2112,2176"/></g><clipPath id="c" clipRule="evenodd" fill="transparent"><use href="#t8903"/></clipPath></defs><svg viewBox="2072 2171 43 40" preserveAspectRatio="xMinYMin meet"><svg width="4380" height="2430"><g><image crossorigin="anonymous" x="0" y="0" href="https://nftpuzzle.license-token.com/assets/completepuzzle.svg" width="100%" height="100%" /><g class="links"><use href="#t8903"/></g></g></svg><svg x="2100" y="2196" height="9%" width="9%" viewBox="0 0 330 330"><g><a xlink:href="https://nftpuzzle.license-token.com/" class="links"><title>See the most innovative NFT based token software licensing project</title><path fill="#E4CF37" id="more" d="M165,0C74.019,0,0,74.019,0,165s74.019,165,165,165s165-74.019,165-165S255.981,0,165,0z M85,190 c-13.785,0-25-11.215-25-25s11.215-25,25-25s25,11.215,25,25S98.785,190,85,190z M165,190c-13.785,0-25-11.215-25-25 s11.215-25,25-25s25,11.215,25,25S178.785,190,165,190z M245,190c-13.785,0-25-11.215-25-25s11.215-25,25-25 c13.785,0,25,11.215,25,25S258.785,190,245,190z"></path></a></g></svg></svg></svg>