<svg version="1.1" xmlns="http://www.w3.org/2000/svg" xmlns:xlink="http://www.w3.org/1999/xlink" fill="transparent" x="0" y="0" width="350" height="350" preserveAspectRatio="xMinYMin slice"><style type="text/css">.links{fill:transparent;stroke: #E4CF37;}.links:hover{fill:#63D272; opacity:0.4;}</style><defs><g id="allt"><path id="t8904" d="M2145,2176 L2134,2177 C2124,2178 2136,2171 2127,2172 C2118,2174 2132,2176 2122,2176 L2112,2176 2112,2176 L2113,2185 C2114,2194 2106,2181 2107,2190 C2108,2199 2112,2190 2112,2199 L2112,2208 2112,2208 L2121,2209 C2130,2210 2117,2202 2126,2203 C2135,2204 2126,2208 2135,2208 L2145,2208 2145,2208 L2145,2198 C2145,2188 2149,2202 2151,2192 C2154,2183 2142,2197 2143,2186 L2145,2176"/></g><clipPath id="c" clipRule="evenodd" fill="transparent"><use href="#t8904"/></clipPath></defs><svg viewBox="2105 2170 50 41" preserveAspectRatio="xMinYMin meet"><svg width="4380" height="2430"><g><image crossorigin="anonymous" x="0" y="0" href="https://nftpuzzle.license-token.com/assets/completepuzzle.svg" width="100%" height="100%" /><g class="links"><use href="#t8904"/></g></g></svg><svg x="2140" y="2196" height="9%" width="9%" viewBox="0 0 330 330"><g><a xlink:href="https://nftpuzzle.license-token.com/" class="links"><title>See the most innovative NFT based token software licensing project</title><path fill="#E4CF37" id="more" d="M165,0C74.019,0,0,74.019,0,165s74.019,165,165,165s165-74.019,165-165S255.981,0,165,0z M85,190 c-13.785,0-25-11.215-25-25s11.215-25,25-25s25,11.215,25,25S98.785,190,85,190z M165,190c-13.785,0-25-11.215-25-25 s11.215-25,25-25s25,11.215,25,25S178.785,190,165,190z M245,190c-13.785,0-25-11.215-25-25s11.215-25,25-25 c13.785,0,25,11.215,25,25S258.785,190,245,190z"></path></a></g></svg></svg></svg>