<svg version="1.1" xmlns="http://www.w3.org/2000/svg" xmlns:xlink="http://www.w3.org/1999/xlink" fill="transparent" x="0" y="0" width="350" height="350" preserveAspectRatio="xMinYMin slice"><style type="text/css">.links{fill:transparent;stroke: #E4CF37;}.links:hover{fill:#63D272; opacity:0.4;}</style><defs><g id="allt"><path id="t8910" d="M2343,2176 L2332,2174 C2321,2172 2337,2182 2327,2183 C2317,2185 2328,2172 2319,2174 L2310,2176 2310,2176 L2310,2185 C2310,2195 2305,2182 2305,2192 C2305,2202 2310,2187 2310,2197 L2310,2208 2310,2208 L2319,2208 C2329,2208 2316,2203 2326,2203 C2337,2203 2321,2208 2332,2208 L2343,2208 2343,2208 L2343,2197 C2343,2187 2348,2203 2347,2192 C2347,2181 2343,2193 2343,2184 L2343,2176"/></g><clipPath id="c" clipRule="evenodd" fill="transparent"><use href="#t8910"/></clipPath></defs><svg viewBox="2304 2171 45 38" preserveAspectRatio="xMinYMin meet"><svg width="4380" height="2430"><g><image crossorigin="anonymous" x="0" y="0" href="https://nftpuzzle.license-token.com/assets/completepuzzle.svg" width="100%" height="100%" /><g class="links"><use href="#t8910"/></g></g></svg><svg x="2334" y="2194" height="9%" width="9%" viewBox="0 0 330 330"><g><a xlink:href="https://nftpuzzle.license-token.com/" class="links"><title>See the most innovative NFT based token software licensing project</title><path fill="#E4CF37" id="more" d="M165,0C74.019,0,0,74.019,0,165s74.019,165,165,165s165-74.019,165-165S255.981,0,165,0z M85,190 c-13.785,0-25-11.215-25-25s11.215-25,25-25s25,11.215,25,25S98.785,190,85,190z M165,190c-13.785,0-25-11.215-25-25 s11.215-25,25-25s25,11.215,25,25S178.785,190,165,190z M245,190c-13.785,0-25-11.215-25-25s11.215-25,25-25 c13.785,0,25,11.215,25,25S258.785,190,245,190z"></path></a></g></svg></svg></svg>