<svg version="1.1" xmlns="http://www.w3.org/2000/svg" xmlns:xlink="http://www.w3.org/1999/xlink" fill="transparent" x="0" y="0" width="350" height="350" preserveAspectRatio="xMinYMin slice"><style type="text/css">.links{fill:transparent;stroke: #E4CF37;}.links:hover{fill:#63D272; opacity:0.4;}</style><defs><g id="allt"><path id="t8913" d="M2442,2176 L2431,2176 C2421,2176 2435,2184 2426,2184 C2418,2185 2430,2176 2419,2176 L2409,2176 2409,2176 L2409,2184 C2410,2193 2406,2183 2406,2191 C2407,2200 2409,2188 2409,2198 L2409,2208 2409,2208 L2418,2208 C2427,2209 2416,2205 2425,2205 C2434,2206 2422,2208 2432,2208 L2442,2208 2442,2208 L2442,2199 C2443,2190 2437,2200 2436,2190 C2436,2181 2444,2197 2443,2186 L2442,2176"/></g><clipPath id="c" clipRule="evenodd" fill="transparent"><use href="#t8913"/></clipPath></defs><svg viewBox="2405 2175 40 35" preserveAspectRatio="xMinYMin meet"><svg width="4380" height="2430"><g><image crossorigin="anonymous" x="0" y="0" href="https://nftpuzzle.license-token.com/assets/completepuzzle.svg" width="100%" height="100%" /><g class="links"><use href="#t8913"/></g></g></svg><svg x="2430" y="2195" height="9%" width="9%" viewBox="0 0 330 330"><g><a xlink:href="https://nftpuzzle.license-token.com/" class="links"><title>See the most innovative NFT based token software licensing project</title><path fill="#E4CF37" id="more" d="M165,0C74.019,0,0,74.019,0,165s74.019,165,165,165s165-74.019,165-165S255.981,0,165,0z M85,190 c-13.785,0-25-11.215-25-25s11.215-25,25-25s25,11.215,25,25S98.785,190,85,190z M165,190c-13.785,0-25-11.215-25-25 s11.215-25,25-25s25,11.215,25,25S178.785,190,165,190z M245,190c-13.785,0-25-11.215-25-25s11.215-25,25-25 c13.785,0,25,11.215,25,25S258.785,190,245,190z"></path></a></g></svg></svg></svg>