<svg version="1.1" xmlns="http://www.w3.org/2000/svg" xmlns:xlink="http://www.w3.org/1999/xlink" fill="transparent" x="0" y="0" width="350" height="350" preserveAspectRatio="xMinYMin slice"><style type="text/css">.links{fill:transparent;stroke: #E4CF37;}.links:hover{fill:#63D272; opacity:0.4;}</style><defs><g id="allt"><path id="t8918" d="M2607,2176 L2597,2176 C2587,2176 2597,2171 2588,2168 C2580,2166 2594,2179 2584,2177 L2574,2176 2574,2176 L2574,2185 C2575,2195 2570,2184 2571,2191 C2572,2199 2575,2189 2574,2198 L2574,2208 2574,2208 L2584,2208 C2594,2209 2582,2204 2589,2205 C2597,2206 2587,2209 2597,2208 L2607,2208 2607,2208 L2607,2197 C2608,2186 2604,2200 2603,2191 C2602,2182 2607,2195 2607,2185 L2607,2176"/></g><clipPath id="c" clipRule="evenodd" fill="transparent"><use href="#t8918"/></clipPath></defs><svg viewBox="2569 2165 40 45" preserveAspectRatio="xMinYMin meet"><svg width="4380" height="2430"><g><image crossorigin="anonymous" x="0" y="0" href="https://nftpuzzle.license-token.com/assets/completepuzzle.svg" width="100%" height="100%" /><g class="links"><use href="#t8918"/></g></g></svg><svg x="2594" y="2195" height="9%" width="9%" viewBox="0 0 330 330"><g><a xlink:href="https://nftpuzzle.license-token.com/" class="links"><title>See the most innovative NFT based token software licensing project</title><path fill="#E4CF37" id="more" d="M165,0C74.019,0,0,74.019,0,165s74.019,165,165,165s165-74.019,165-165S255.981,0,165,0z M85,190 c-13.785,0-25-11.215-25-25s11.215-25,25-25s25,11.215,25,25S98.785,190,85,190z M165,190c-13.785,0-25-11.215-25-25 s11.215-25,25-25s25,11.215,25,25S178.785,190,165,190z M245,190c-13.785,0-25-11.215-25-25s11.215-25,25-25 c13.785,0,25,11.215,25,25S258.785,190,245,190z"></path></a></g></svg></svg></svg>