<svg version="1.1" xmlns="http://www.w3.org/2000/svg" xmlns:xlink="http://www.w3.org/1999/xlink" fill="transparent" x="0" y="0" width="350" height="350" preserveAspectRatio="xMinYMin slice"><style type="text/css">.links{fill:transparent;stroke: #E4CF37;}.links:hover{fill:#63D272; opacity:0.4;}</style><defs><g id="allt"><path id="t8921" d="M2706,2176 L2695,2176 C2685,2176 2700,2164 2689,2166 C2678,2168 2693,2176 2683,2176 L2673,2176 2673,2176 L2673,2185 C2673,2194 2667,2183 2667,2192 C2668,2202 2675,2186 2674,2197 L2673,2208 2673,2208 L2682,2208 C2692,2208 2680,2202 2690,2202 C2700,2203 2683,2210 2694,2209 L2706,2208 2706,2208 L2707,2198 C2708,2189 2702,2203 2702,2193 C2703,2184 2707,2195 2706,2185 L2706,2176"/></g><clipPath id="c" clipRule="evenodd" fill="transparent"><use href="#t8921"/></clipPath></defs><svg viewBox="2666 2163 43 48" preserveAspectRatio="xMinYMin meet"><svg width="4380" height="2430"><g><image crossorigin="anonymous" x="0" y="0" href="https://nftpuzzle.license-token.com/assets/completepuzzle.svg" width="100%" height="100%" /><g class="links"><use href="#t8921"/></g></g></svg><svg x="2694" y="2196" height="9%" width="9%" viewBox="0 0 330 330"><g><a xlink:href="https://nftpuzzle.license-token.com/" class="links"><title>See the most innovative NFT based token software licensing project</title><path fill="#E4CF37" id="more" d="M165,0C74.019,0,0,74.019,0,165s74.019,165,165,165s165-74.019,165-165S255.981,0,165,0z M85,190 c-13.785,0-25-11.215-25-25s11.215-25,25-25s25,11.215,25,25S98.785,190,85,190z M165,190c-13.785,0-25-11.215-25-25 s11.215-25,25-25s25,11.215,25,25S178.785,190,165,190z M245,190c-13.785,0-25-11.215-25-25s11.215-25,25-25 c13.785,0,25,11.215,25,25S258.785,190,245,190z"></path></a></g></svg></svg></svg>