<svg version="1.1" xmlns="http://www.w3.org/2000/svg" xmlns:xlink="http://www.w3.org/1999/xlink" fill="transparent" x="0" y="0" width="350" height="350" preserveAspectRatio="xMinYMin slice"><style type="text/css">.links{fill:transparent;stroke: #E4CF37;}.links:hover{fill:#63D272; opacity:0.4;}</style><defs><g id="allt"><path id="t8925" d="M2838,2176 L2828,2176 C2818,2176 2831,2169 2821,2170 C2811,2171 2824,2178 2814,2177 L2805,2176 2805,2176 L2806,2184 C2807,2193 2795,2184 2797,2191 C2800,2199 2806,2189 2805,2198 L2805,2208 2805,2208 L2814,2209 C2823,2210 2813,2199 2820,2201 C2828,2203 2819,2209 2828,2208 L2838,2208 2838,2208 L2838,2198 C2838,2189 2842,2201 2843,2191 C2844,2181 2837,2196 2837,2186 L2838,2176"/></g><clipPath id="c" clipRule="evenodd" fill="transparent"><use href="#t8925"/></clipPath></defs><svg viewBox="2794 2168 51 43" preserveAspectRatio="xMinYMin meet"><svg width="4380" height="2430"><g><image crossorigin="anonymous" x="0" y="0" href="https://nftpuzzle.license-token.com/assets/completepuzzle.svg" width="100%" height="100%" /><g class="links"><use href="#t8925"/></g></g></svg><svg x="2830" y="2196" height="9%" width="9%" viewBox="0 0 330 330"><g><a xlink:href="https://nftpuzzle.license-token.com/" class="links"><title>See the most innovative NFT based token software licensing project</title><path fill="#E4CF37" id="more" d="M165,0C74.019,0,0,74.019,0,165s74.019,165,165,165s165-74.019,165-165S255.981,0,165,0z M85,190 c-13.785,0-25-11.215-25-25s11.215-25,25-25s25,11.215,25,25S98.785,190,85,190z M165,190c-13.785,0-25-11.215-25-25 s11.215-25,25-25s25,11.215,25,25S178.785,190,165,190z M245,190c-13.785,0-25-11.215-25-25s11.215-25,25-25 c13.785,0,25,11.215,25,25S258.785,190,245,190z"></path></a></g></svg></svg></svg>