<svg version="1.1" xmlns="http://www.w3.org/2000/svg" xmlns:xlink="http://www.w3.org/1999/xlink" fill="transparent" x="0" y="0" width="350" height="350" preserveAspectRatio="xMinYMin slice"><style type="text/css">.links{fill:transparent;stroke: #E4CF37;}.links:hover{fill:#63D272; opacity:0.4;}</style><defs><g id="allt"><path id="t8930" d="M3003,2176 L2993,2176 C2983,2176 2994,2179 2986,2180 C2978,2182 2988,2176 2979,2176 L2970,2176 2970,2176 L2970,2186 C2970,2197 2959,2185 2958,2194 C2958,2203 2972,2187 2971,2197 L2970,2208 2970,2208 L2981,2208 C2992,2208 2979,2197 2988,2196 C2998,2196 2981,2210 2992,2209 L3003,2208 3003,2208 L3003,2197 C3003,2186 2993,2200 2995,2191 C2997,2182 3006,2194 3004,2185 L3003,2176"/></g><clipPath id="c" clipRule="evenodd" fill="transparent"><use href="#t8930"/></clipPath></defs><svg viewBox="2957 2175 50 36" preserveAspectRatio="xMinYMin meet"><svg width="4380" height="2430"><g><image crossorigin="anonymous" x="0" y="0" href="https://nftpuzzle.license-token.com/assets/completepuzzle.svg" width="100%" height="100%" /><g class="links"><use href="#t8930"/></g></g></svg><svg x="2992" y="2196" height="9%" width="9%" viewBox="0 0 330 330"><g><a xlink:href="https://nftpuzzle.license-token.com/" class="links"><title>See the most innovative NFT based token software licensing project</title><path fill="#E4CF37" id="more" d="M165,0C74.019,0,0,74.019,0,165s74.019,165,165,165s165-74.019,165-165S255.981,0,165,0z M85,190 c-13.785,0-25-11.215-25-25s11.215-25,25-25s25,11.215,25,25S98.785,190,85,190z M165,190c-13.785,0-25-11.215-25-25 s11.215-25,25-25s25,11.215,25,25S178.785,190,165,190z M245,190c-13.785,0-25-11.215-25-25s11.215-25,25-25 c13.785,0,25,11.215,25,25S258.785,190,245,190z"></path></a></g></svg></svg></svg>