<svg version="1.1" xmlns="http://www.w3.org/2000/svg" xmlns:xlink="http://www.w3.org/1999/xlink" fill="transparent" x="0" y="0" width="350" height="350" preserveAspectRatio="xMinYMin slice"><style type="text/css">.links{fill:transparent;stroke: #E4CF37;}.links:hover{fill:#63D272; opacity:0.4;}</style><defs><g id="allt"><path id="t8937" d="M3234,2176 L3223,2176 C3212,2176 3228,2179 3217,2178 C3206,2178 3219,2176 3210,2176 L3201,2176 3201,2176 L3201,2186 C3201,2197 3204,2182 3204,2191 C3204,2200 3201,2190 3201,2199 L3201,2208 3201,2208 L3211,2208 C3222,2208 3207,2211 3216,2211 C3226,2211 3215,2208 3224,2208 L3234,2208 3234,2208 L3232,2198 C3231,2189 3240,2202 3241,2193 C3243,2184 3233,2197 3233,2186 L3234,2176"/></g><clipPath id="c" clipRule="evenodd" fill="transparent"><use href="#t8937"/></clipPath></defs><svg viewBox="3200 2175 44 37" preserveAspectRatio="xMinYMin meet"><svg width="4380" height="2430"><g><image crossorigin="anonymous" x="0" y="0" href="https://nftpuzzle.license-token.com/assets/completepuzzle.svg" width="100%" height="100%" /><g class="links"><use href="#t8937"/></g></g></svg><svg x="3229" y="2197" height="9%" width="9%" viewBox="0 0 330 330"><g><a xlink:href="https://nftpuzzle.license-token.com/" class="links"><title>See the most innovative NFT based token software licensing project</title><path fill="#E4CF37" id="more" d="M165,0C74.019,0,0,74.019,0,165s74.019,165,165,165s165-74.019,165-165S255.981,0,165,0z M85,190 c-13.785,0-25-11.215-25-25s11.215-25,25-25s25,11.215,25,25S98.785,190,85,190z M165,190c-13.785,0-25-11.215-25-25 s11.215-25,25-25s25,11.215,25,25S178.785,190,165,190z M245,190c-13.785,0-25-11.215-25-25s11.215-25,25-25 c13.785,0,25,11.215,25,25S258.785,190,245,190z"></path></a></g></svg></svg></svg>