<svg version="1.1" xmlns="http://www.w3.org/2000/svg" xmlns:xlink="http://www.w3.org/1999/xlink" fill="transparent" x="0" y="0" width="350" height="350" preserveAspectRatio="xMinYMin slice"><style type="text/css">.links{fill:transparent;stroke: #E4CF37;}.links:hover{fill:#63D272; opacity:0.4;}</style><defs><g id="allt"><path id="t8938" d="M3267,2176 L3257,2177 C3248,2178 3257,2170 3249,2171 C3242,2172 3255,2176 3244,2176 L3234,2176 3234,2176 L3233,2186 C3233,2197 3243,2184 3241,2193 C3240,2202 3231,2189 3232,2198 L3234,2208 3234,2208 L3245,2207 C3256,2207 3242,2217 3251,2215 C3261,2214 3247,2205 3257,2206 L3267,2208 3267,2208 L3267,2197 C3267,2186 3270,2198 3270,2189 C3270,2181 3267,2194 3267,2185 L3267,2176"/></g><clipPath id="c" clipRule="evenodd" fill="transparent"><use href="#t8938"/></clipPath></defs><svg viewBox="3230 2169 41 49" preserveAspectRatio="xMinYMin meet"><svg width="4380" height="2430"><g><image crossorigin="anonymous" x="0" y="0" href="https://nftpuzzle.license-token.com/assets/completepuzzle.svg" width="100%" height="100%" /><g class="links"><use href="#t8938"/></g></g></svg><svg x="3256" y="2203" height="9%" width="9%" viewBox="0 0 330 330"><g><a xlink:href="https://nftpuzzle.license-token.com/" class="links"><title>See the most innovative NFT based token software licensing project</title><path fill="#E4CF37" id="more" d="M165,0C74.019,0,0,74.019,0,165s74.019,165,165,165s165-74.019,165-165S255.981,0,165,0z M85,190 c-13.785,0-25-11.215-25-25s11.215-25,25-25s25,11.215,25,25S98.785,190,85,190z M165,190c-13.785,0-25-11.215-25-25 s11.215-25,25-25s25,11.215,25,25S178.785,190,165,190z M245,190c-13.785,0-25-11.215-25-25s11.215-25,25-25 c13.785,0,25,11.215,25,25S258.785,190,245,190z"></path></a></g></svg></svg></svg>