<svg version="1.1" xmlns="http://www.w3.org/2000/svg" xmlns:xlink="http://www.w3.org/1999/xlink" fill="transparent" x="0" y="0" width="350" height="350" preserveAspectRatio="xMinYMin slice"><style type="text/css">.links{fill:transparent;stroke: #E4CF37;}.links:hover{fill:#63D272; opacity:0.4;}</style><defs><g id="allt"><path id="t8939" d="M3300,2176 L3290,2178 C3281,2180 3293,2167 3284,2167 C3275,2168 3286,2180 3276,2178 L3267,2176 3267,2176 L3267,2185 C3267,2194 3270,2181 3270,2189 C3270,2198 3267,2186 3267,2197 L3267,2208 3267,2208 L3276,2208 C3285,2208 3272,2211 3281,2211 C3290,2211 3278,2208 3289,2208 L3300,2208 3300,2208 L3300,2199 C3301,2190 3294,2202 3294,2193 C3294,2185 3302,2195 3301,2185 L3300,2176"/></g><clipPath id="c" clipRule="evenodd" fill="transparent"><use href="#t8939"/></clipPath></defs><svg viewBox="3266 2166 37 46" preserveAspectRatio="xMinYMin meet"><svg width="4380" height="2430"><g><image crossorigin="anonymous" x="0" y="0" href="https://nftpuzzle.license-token.com/assets/completepuzzle.svg" width="100%" height="100%" /><g class="links"><use href="#t8939"/></g></g></svg><svg x="3288" y="2197" height="9%" width="9%" viewBox="0 0 330 330"><g><a xlink:href="https://nftpuzzle.license-token.com/" class="links"><title>See the most innovative NFT based token software licensing project</title><path fill="#E4CF37" id="more" d="M165,0C74.019,0,0,74.019,0,165s74.019,165,165,165s165-74.019,165-165S255.981,0,165,0z M85,190 c-13.785,0-25-11.215-25-25s11.215-25,25-25s25,11.215,25,25S98.785,190,85,190z M165,190c-13.785,0-25-11.215-25-25 s11.215-25,25-25s25,11.215,25,25S178.785,190,165,190z M245,190c-13.785,0-25-11.215-25-25s11.215-25,25-25 c13.785,0,25,11.215,25,25S258.785,190,245,190z"></path></a></g></svg></svg></svg>