<svg version="1.1" xmlns="http://www.w3.org/2000/svg" xmlns:xlink="http://www.w3.org/1999/xlink" fill="transparent" x="0" y="0" width="350" height="350" preserveAspectRatio="xMinYMin slice"><style type="text/css">.links{fill:transparent;stroke: #E4CF37;}.links:hover{fill:#63D272; opacity:0.4;}</style><defs><g id="allt"><path id="t8956" d="M3861,2176 L3851,2174 C3841,2173 3854,2183 3844,2183 C3834,2184 3848,2176 3838,2176 L3828,2176 3828,2176 L3828,2185 C3829,2195 3821,2182 3821,2192 C3822,2202 3829,2188 3828,2198 L3828,2208 3828,2208 L3838,2208 C3848,2209 3834,2201 3844,2201 C3855,2202 3840,2209 3850,2208 L3861,2208 3861,2208 L3861,2198 C3862,2188 3858,2199 3856,2190 C3855,2181 3861,2195 3861,2185 L3861,2176"/></g><clipPath id="c" clipRule="evenodd" fill="transparent"><use href="#t8956"/></clipPath></defs><svg viewBox="3820 2172 43 38" preserveAspectRatio="xMinYMin meet"><svg width="4380" height="2430"><g><image crossorigin="anonymous" x="0" y="0" href="https://nftpuzzle.license-token.com/assets/completepuzzle.svg" width="100%" height="100%" /><g class="links"><use href="#t8956"/></g></g></svg><svg x="3848" y="2195" height="9%" width="9%" viewBox="0 0 330 330"><g><a xlink:href="https://nftpuzzle.license-token.com/" class="links"><title>See the most innovative NFT based token software licensing project</title><path fill="#E4CF37" id="more" d="M165,0C74.019,0,0,74.019,0,165s74.019,165,165,165s165-74.019,165-165S255.981,0,165,0z M85,190 c-13.785,0-25-11.215-25-25s11.215-25,25-25s25,11.215,25,25S98.785,190,85,190z M165,190c-13.785,0-25-11.215-25-25 s11.215-25,25-25s25,11.215,25,25S178.785,190,165,190z M245,190c-13.785,0-25-11.215-25-25s11.215-25,25-25 c13.785,0,25,11.215,25,25S258.785,190,245,190z"></path></a></g></svg></svg></svg>