<svg version="1.1" xmlns="http://www.w3.org/2000/svg" xmlns:xlink="http://www.w3.org/1999/xlink" fill="transparent" x="0" y="0" width="350" height="350" preserveAspectRatio="xMinYMin slice"><style type="text/css">.links{fill:transparent;stroke: #E4CF37;}.links:hover{fill:#63D272; opacity:0.4;}</style><defs><g id="allt"><path id="t8958" d="M3927,2176 L3916,2175 C3906,2174 3920,2179 3910,2180 C3900,2181 3912,2175 3903,2175 L3894,2176 3894,2176 L3895,2185 C3897,2195 3886,2182 3884,2192 C3883,2202 3898,2186 3896,2197 L3894,2208 3894,2208 L3904,2209 C3914,2211 3900,2200 3910,2198 C3921,2197 3905,2212 3916,2210 L3927,2208 3927,2208 L3926,2198 C3926,2189 3930,2201 3930,2191 C3931,2182 3926,2195 3926,2185 L3927,2176"/></g><clipPath id="c" clipRule="evenodd" fill="transparent"><use href="#t8958"/></clipPath></defs><svg viewBox="3882 2173 50 40" preserveAspectRatio="xMinYMin meet"><svg width="4380" height="2430"><g><image crossorigin="anonymous" x="0" y="0" href="https://nftpuzzle.license-token.com/assets/completepuzzle.svg" width="100%" height="100%" /><g class="links"><use href="#t8958"/></g></g></svg><svg x="3917" y="2198" height="9%" width="9%" viewBox="0 0 330 330"><g><a xlink:href="https://nftpuzzle.license-token.com/" class="links"><title>See the most innovative NFT based token software licensing project</title><path fill="#E4CF37" id="more" d="M165,0C74.019,0,0,74.019,0,165s74.019,165,165,165s165-74.019,165-165S255.981,0,165,0z M85,190 c-13.785,0-25-11.215-25-25s11.215-25,25-25s25,11.215,25,25S98.785,190,85,190z M165,190c-13.785,0-25-11.215-25-25 s11.215-25,25-25s25,11.215,25,25S178.785,190,165,190z M245,190c-13.785,0-25-11.215-25-25s11.215-25,25-25 c13.785,0,25,11.215,25,25S258.785,190,245,190z"></path></a></g></svg></svg></svg>