<svg version="1.1" xmlns="http://www.w3.org/2000/svg" xmlns:xlink="http://www.w3.org/1999/xlink" fill="transparent" x="0" y="0" width="350" height="350" preserveAspectRatio="xMinYMin slice"><style type="text/css">.links{fill:transparent;stroke: #E4CF37;}.links:hover{fill:#63D272; opacity:0.4;}</style><defs><g id="allt"><path id="t8960" d="M3993,2176 L3982,2175 C3972,2175 3983,2179 3974,2179 C3965,2179 3978,2176 3969,2176 L3960,2176 3960,2176 L3961,2186 C3962,2196 3954,2185 3954,2191 C3955,2198 3960,2188 3960,2198 L3960,2208 3960,2208 L3970,2209 C3981,2210 3969,2202 3976,2202 C3983,2203 3972,2208 3982,2208 L3993,2208 3993,2208 L3993,2198 C3993,2189 3990,2202 3989,2192 C3989,2183 3994,2195 3993,2185 L3993,2176"/></g><clipPath id="c" clipRule="evenodd" fill="transparent"><use href="#t8960"/></clipPath></defs><svg viewBox="3953 2174 42 37" preserveAspectRatio="xMinYMin meet"><svg width="4380" height="2430"><g><image crossorigin="anonymous" x="0" y="0" href="https://nftpuzzle.license-token.com/assets/completepuzzle.svg" width="100%" height="100%" /><g class="links"><use href="#t8960"/></g></g></svg><svg x="3980" y="2196" height="9%" width="9%" viewBox="0 0 330 330"><g><a xlink:href="https://nftpuzzle.license-token.com/" class="links"><title>See the most innovative NFT based token software licensing project</title><path fill="#E4CF37" id="more" d="M165,0C74.019,0,0,74.019,0,165s74.019,165,165,165s165-74.019,165-165S255.981,0,165,0z M85,190 c-13.785,0-25-11.215-25-25s11.215-25,25-25s25,11.215,25,25S98.785,190,85,190z M165,190c-13.785,0-25-11.215-25-25 s11.215-25,25-25s25,11.215,25,25S178.785,190,165,190z M245,190c-13.785,0-25-11.215-25-25s11.215-25,25-25 c13.785,0,25,11.215,25,25S258.785,190,245,190z"></path></a></g></svg></svg></svg>