<svg version="1.1" xmlns="http://www.w3.org/2000/svg" xmlns:xlink="http://www.w3.org/1999/xlink" fill="transparent" x="0" y="0" width="350" height="350" preserveAspectRatio="xMinYMin slice"><style type="text/css">.links{fill:transparent;stroke: #E4CF37;}.links:hover{fill:#63D272; opacity:0.4;}</style><defs><g id="allt"><path id="t8972" d="M99,2208 L89,2208 C79,2208 89,2212 80,2211 C71,2210 87,2206 76,2207 L66,2208 66,2208 L64,2217 C63,2226 72,2215 73,2224 C75,2234 62,2218 64,2229 L66,2240 66,2240 L75,2238 C85,2237 73,2246 83,2247 C93,2248 76,2236 87,2238 L99,2240 99,2240 L100,2230 C102,2221 95,2234 95,2225 C95,2216 102,2229 100,2218 L99,2208"/></g><clipPath id="c" clipRule="evenodd" fill="transparent"><use href="#t8972"/></clipPath></defs><svg viewBox="61 2205 42 44" preserveAspectRatio="xMinYMin meet"><svg width="4380" height="2430"><g><image crossorigin="anonymous" x="0" y="0" href="https://nftpuzzle.license-token.com/assets/completepuzzle.svg" width="100%" height="100%" /><g class="links"><use href="#t8972"/></g></g></svg><svg x="88" y="2234" height="9%" width="9%" viewBox="0 0 330 330"><g><a xlink:href="https://nftpuzzle.license-token.com/" class="links"><title>See the most innovative NFT based token software licensing project</title><path fill="#E4CF37" id="more" d="M165,0C74.019,0,0,74.019,0,165s74.019,165,165,165s165-74.019,165-165S255.981,0,165,0z M85,190 c-13.785,0-25-11.215-25-25s11.215-25,25-25s25,11.215,25,25S98.785,190,85,190z M165,190c-13.785,0-25-11.215-25-25 s11.215-25,25-25s25,11.215,25,25S178.785,190,165,190z M245,190c-13.785,0-25-11.215-25-25s11.215-25,25-25 c13.785,0,25,11.215,25,25S258.785,190,245,190z"></path></a></g></svg></svg></svg>