<svg version="1.1" xmlns="http://www.w3.org/2000/svg" xmlns:xlink="http://www.w3.org/1999/xlink" fill="transparent" x="0" y="0" width="350" height="350" preserveAspectRatio="xMinYMin slice"><style type="text/css">.links{fill:transparent;stroke: #E4CF37;}.links:hover{fill:#63D272; opacity:0.4;}</style><defs><g id="allt"><path id="t8974" d="M165,2208 L153,2209 C142,2211 157,2199 146,2198 C136,2197 152,2212 142,2210 L132,2208 132,2208 L132,2218 C132,2228 126,2216 126,2224 C126,2232 136,2221 134,2230 L132,2240 132,2240 L142,2240 C153,2240 140,2234 148,2234 C157,2234 146,2244 155,2242 L165,2240 165,2240 L165,2229 C165,2218 170,2230 169,2223 C168,2217 165,2225 165,2216 L165,2208"/></g><clipPath id="c" clipRule="evenodd" fill="transparent"><use href="#t8974"/></clipPath></defs><svg viewBox="125 2196 46 49" preserveAspectRatio="xMinYMin meet"><svg width="4380" height="2430"><g><image crossorigin="anonymous" x="0" y="0" href="https://nftpuzzle.license-token.com/assets/completepuzzle.svg" width="100%" height="100%" /><g class="links"><use href="#t8974"/></g></g></svg><svg x="156" y="2230" height="9%" width="9%" viewBox="0 0 330 330"><g><a xlink:href="https://nftpuzzle.license-token.com/" class="links"><title>See the most innovative NFT based token software licensing project</title><path fill="#E4CF37" id="more" d="M165,0C74.019,0,0,74.019,0,165s74.019,165,165,165s165-74.019,165-165S255.981,0,165,0z M85,190 c-13.785,0-25-11.215-25-25s11.215-25,25-25s25,11.215,25,25S98.785,190,85,190z M165,190c-13.785,0-25-11.215-25-25 s11.215-25,25-25s25,11.215,25,25S178.785,190,165,190z M245,190c-13.785,0-25-11.215-25-25s11.215-25,25-25 c13.785,0,25,11.215,25,25S258.785,190,245,190z"></path></a></g></svg></svg></svg>