<svg version="1.1" xmlns="http://www.w3.org/2000/svg" xmlns:xlink="http://www.w3.org/1999/xlink" fill="transparent" x="0" y="0" width="350" height="350" preserveAspectRatio="xMinYMin slice"><style type="text/css">.links{fill:transparent;stroke: #E4CF37;}.links:hover{fill:#63D272; opacity:0.4;}</style><defs><g id="allt"><path id="t8983" d="M462,2208 L452,2208 C442,2209 453,2204 445,2203 C437,2203 448,2208 438,2208 L429,2208 429,2208 L429,2216 C429,2225 426,2213 425,2223 C424,2233 429,2222 429,2231 L429,2240 429,2240 L438,2240 C447,2240 434,2237 444,2236 C455,2235 443,2240 452,2240 L462,2240 462,2240 L461,2230 C460,2220 467,2231 466,2224 C465,2217 461,2227 461,2217 L462,2208"/></g><clipPath id="c" clipRule="evenodd" fill="transparent"><use href="#t8983"/></clipPath></defs><svg viewBox="423 2202 45 39" preserveAspectRatio="xMinYMin meet"><svg width="4380" height="2430"><g><image crossorigin="anonymous" x="0" y="0" href="https://nftpuzzle.license-token.com/assets/completepuzzle.svg" width="100%" height="100%" /><g class="links"><use href="#t8983"/></g></g></svg><svg x="453" y="2226" height="9%" width="9%" viewBox="0 0 330 330"><g><a xlink:href="https://nftpuzzle.license-token.com/" class="links"><title>See the most innovative NFT based token software licensing project</title><path fill="#E4CF37" id="more" d="M165,0C74.019,0,0,74.019,0,165s74.019,165,165,165s165-74.019,165-165S255.981,0,165,0z M85,190 c-13.785,0-25-11.215-25-25s11.215-25,25-25s25,11.215,25,25S98.785,190,85,190z M165,190c-13.785,0-25-11.215-25-25 s11.215-25,25-25s25,11.215,25,25S178.785,190,165,190z M245,190c-13.785,0-25-11.215-25-25s11.215-25,25-25 c13.785,0,25,11.215,25,25S258.785,190,245,190z"></path></a></g></svg></svg></svg>