<svg version="1.1" xmlns="http://www.w3.org/2000/svg" xmlns:xlink="http://www.w3.org/1999/xlink" fill="transparent" x="0" y="0" width="350" height="350" preserveAspectRatio="xMinYMin slice"><style type="text/css">.links{fill:transparent;stroke: #E4CF37;}.links:hover{fill:#63D272; opacity:0.4;}</style><defs><g id="allt"><path id="t899" d="M3960,192 L3949,192 C3939,193 3954,188 3943,189 C3933,190 3946,192 3936,192 L3927,192 3927,192 L3927,202 C3927,213 3932,199 3931,208 C3930,218 3927,203 3927,213 L3927,224 3927,224 L3937,224 C3948,224 3934,229 3944,228 C3954,227 3939,224 3949,224 L3960,224 3960,224 L3960,213 C3960,202 3967,216 3968,206 C3969,197 3960,210 3960,201 L3960,192"/></g><clipPath id="c" clipRule="evenodd" fill="transparent"><use href="#t899"/></clipPath></defs><svg viewBox="3926 187 44 43" preserveAspectRatio="xMinYMin meet"><svg width="4380" height="2430"><g><image crossorigin="anonymous" x="0" y="0" href="https://nftpuzzle.license-token.com/assets/completepuzzle.svg" width="100%" height="100%" /><g class="links"><use href="#t899"/></g></g></svg><svg x="3955" y="215" height="9%" width="9%" viewBox="0 0 330 330"><g><a xlink:href="https://nftpuzzle.license-token.com/" class="links"><title>See the most innovative NFT based token software licensing project</title><path fill="#E4CF37" id="more" d="M165,0C74.019,0,0,74.019,0,165s74.019,165,165,165s165-74.019,165-165S255.981,0,165,0z M85,190 c-13.785,0-25-11.215-25-25s11.215-25,25-25s25,11.215,25,25S98.785,190,85,190z M165,190c-13.785,0-25-11.215-25-25 s11.215-25,25-25s25,11.215,25,25S178.785,190,165,190z M245,190c-13.785,0-25-11.215-25-25s11.215-25,25-25 c13.785,0,25,11.215,25,25S258.785,190,245,190z"></path></a></g></svg></svg></svg>