<svg version="1.1" xmlns="http://www.w3.org/2000/svg" xmlns:xlink="http://www.w3.org/1999/xlink" fill="transparent" x="0" y="0" width="350" height="350" preserveAspectRatio="xMinYMin slice"><style type="text/css">.links{fill:transparent;stroke: #E4CF37;}.links:hover{fill:#63D272; opacity:0.4;}</style><defs><g id="allt"><path id="t8990" d="M693,2208 L683,2208 C673,2208 687,2202 676,2200 C666,2198 679,2209 669,2208 L660,2208 660,2208 L660,2218 C660,2228 654,2216 655,2224 C656,2232 662,2220 661,2230 L660,2240 660,2240 L670,2240 C681,2240 668,2234 676,2235 C684,2236 673,2242 683,2241 L693,2240 693,2240 L693,2230 C694,2220 687,2232 687,2222 C687,2213 693,2228 693,2218 L693,2208"/></g><clipPath id="c" clipRule="evenodd" fill="transparent"><use href="#t8990"/></clipPath></defs><svg viewBox="653 2197 42 46" preserveAspectRatio="xMinYMin meet"><svg width="4380" height="2430"><g><image crossorigin="anonymous" x="0" y="0" href="https://nftpuzzle.license-token.com/assets/completepuzzle.svg" width="100%" height="100%" /><g class="links"><use href="#t8990"/></g></g></svg><svg x="680" y="2228" height="9%" width="9%" viewBox="0 0 330 330"><g><a xlink:href="https://nftpuzzle.license-token.com/" class="links"><title>See the most innovative NFT based token software licensing project</title><path fill="#E4CF37" id="more" d="M165,0C74.019,0,0,74.019,0,165s74.019,165,165,165s165-74.019,165-165S255.981,0,165,0z M85,190 c-13.785,0-25-11.215-25-25s11.215-25,25-25s25,11.215,25,25S98.785,190,85,190z M165,190c-13.785,0-25-11.215-25-25 s11.215-25,25-25s25,11.215,25,25S178.785,190,165,190z M245,190c-13.785,0-25-11.215-25-25s11.215-25,25-25 c13.785,0,25,11.215,25,25S258.785,190,245,190z"></path></a></g></svg></svg></svg>