<svg version="1.1" xmlns="http://www.w3.org/2000/svg" xmlns:xlink="http://www.w3.org/1999/xlink" fill="transparent" x="0" y="0" width="350" height="350" preserveAspectRatio="xMinYMin slice"><style type="text/css">.links{fill:transparent;stroke: #E4CF37;}.links:hover{fill:#63D272; opacity:0.4;}</style><defs><g id="allt"><path id="t8992" d="M759,2208 L748,2208 C737,2208 749,2211 740,2210 C731,2210 747,2208 736,2208 L726,2208 726,2208 L726,2217 C727,2226 719,2213 720,2222 C722,2231 726,2220 726,2230 L726,2240 726,2240 L735,2240 C745,2241 731,2233 740,2234 C750,2236 738,2240 748,2240 L759,2240 759,2240 L759,2230 C759,2221 767,2232 766,2223 C766,2215 759,2225 759,2216 L759,2208"/></g><clipPath id="c" clipRule="evenodd" fill="transparent"><use href="#t8992"/></clipPath></defs><svg viewBox="718 2207 50 35" preserveAspectRatio="xMinYMin meet"><svg width="4380" height="2430"><g><image crossorigin="anonymous" x="0" y="0" href="https://nftpuzzle.license-token.com/assets/completepuzzle.svg" width="100%" height="100%" /><g class="links"><use href="#t8992"/></g></g></svg><svg x="753" y="2227" height="9%" width="9%" viewBox="0 0 330 330"><g><a xlink:href="https://nftpuzzle.license-token.com/" class="links"><title>See the most innovative NFT based token software licensing project</title><path fill="#E4CF37" id="more" d="M165,0C74.019,0,0,74.019,0,165s74.019,165,165,165s165-74.019,165-165S255.981,0,165,0z M85,190 c-13.785,0-25-11.215-25-25s11.215-25,25-25s25,11.215,25,25S98.785,190,85,190z M165,190c-13.785,0-25-11.215-25-25 s11.215-25,25-25s25,11.215,25,25S178.785,190,165,190z M245,190c-13.785,0-25-11.215-25-25s11.215-25,25-25 c13.785,0,25,11.215,25,25S258.785,190,245,190z"></path></a></g></svg></svg></svg>