<svg version="1.1" xmlns="http://www.w3.org/2000/svg" xmlns:xlink="http://www.w3.org/1999/xlink" fill="transparent" x="0" y="0" width="350" height="350" preserveAspectRatio="xMinYMin slice"><style type="text/css">.links{fill:transparent;stroke: #E4CF37;}.links:hover{fill:#63D272; opacity:0.4;}</style><defs><g id="allt"><path id="t8993" d="M792,2208 L780,2208 C769,2208 782,2215 775,2214 C768,2214 779,2205 769,2206 L759,2208 759,2208 L759,2216 C759,2225 766,2215 766,2223 C767,2232 759,2221 759,2230 L759,2240 759,2240 L768,2240 C777,2240 766,2247 775,2247 C784,2248 773,2240 782,2240 L792,2240 792,2240 L792,2230 C792,2221 796,2231 796,2224 C796,2217 790,2227 791,2217 L792,2208"/></g><clipPath id="c" clipRule="evenodd" fill="transparent"><use href="#t8993"/></clipPath></defs><svg viewBox="758 2204 39 45" preserveAspectRatio="xMinYMin meet"><svg width="4380" height="2430"><g><image crossorigin="anonymous" x="0" y="0" href="https://nftpuzzle.license-token.com/assets/completepuzzle.svg" width="100%" height="100%" /><g class="links"><use href="#t8993"/></g></g></svg><svg x="782" y="2234" height="9%" width="9%" viewBox="0 0 330 330"><g><a xlink:href="https://nftpuzzle.license-token.com/" class="links"><title>See the most innovative NFT based token software licensing project</title><path fill="#E4CF37" id="more" d="M165,0C74.019,0,0,74.019,0,165s74.019,165,165,165s165-74.019,165-165S255.981,0,165,0z M85,190 c-13.785,0-25-11.215-25-25s11.215-25,25-25s25,11.215,25,25S98.785,190,85,190z M165,190c-13.785,0-25-11.215-25-25 s11.215-25,25-25s25,11.215,25,25S178.785,190,165,190z M245,190c-13.785,0-25-11.215-25-25s11.215-25,25-25 c13.785,0,25,11.215,25,25S258.785,190,245,190z"></path></a></g></svg></svg></svg>