<svg version="1.1" xmlns="http://www.w3.org/2000/svg" xmlns:xlink="http://www.w3.org/1999/xlink" fill="transparent" x="0" y="0" width="350" height="350" preserveAspectRatio="xMinYMin slice"><style type="text/css">.links{fill:transparent;stroke: #E4CF37;}.links:hover{fill:#63D272; opacity:0.4;}</style><defs><g id="allt"><path id="t9000" d="M1023,2208 L1013,2207 C1004,2206 1017,2217 1007,2216 C998,2216 1008,2206 999,2207 L990,2208 990,2208 L988,2218 C987,2228 996,2216 996,2224 C997,2232 989,2220 989,2230 L990,2240 990,2240 L1000,2238 C1011,2237 998,2246 1006,2246 C1014,2247 1003,2239 1013,2239 L1023,2240 1023,2240 L1023,2230 C1023,2220 1017,2230 1018,2221 C1019,2213 1024,2229 1023,2218 L1023,2208"/></g><clipPath id="c" clipRule="evenodd" fill="transparent"><use href="#t9000"/></clipPath></defs><svg viewBox="986 2205 39 43" preserveAspectRatio="xMinYMin meet"><svg width="4380" height="2430"><g><image crossorigin="anonymous" x="0" y="0" href="https://nftpuzzle.license-token.com/assets/completepuzzle.svg" width="100%" height="100%" /><g class="links"><use href="#t9000"/></g></g></svg><svg x="1010" y="2233" height="9%" width="9%" viewBox="0 0 330 330"><g><a xlink:href="https://nftpuzzle.license-token.com/" class="links"><title>See the most innovative NFT based token software licensing project</title><path fill="#E4CF37" id="more" d="M165,0C74.019,0,0,74.019,0,165s74.019,165,165,165s165-74.019,165-165S255.981,0,165,0z M85,190 c-13.785,0-25-11.215-25-25s11.215-25,25-25s25,11.215,25,25S98.785,190,85,190z M165,190c-13.785,0-25-11.215-25-25 s11.215-25,25-25s25,11.215,25,25S178.785,190,165,190z M245,190c-13.785,0-25-11.215-25-25s11.215-25,25-25 c13.785,0,25,11.215,25,25S258.785,190,245,190z"></path></a></g></svg></svg></svg>