<svg version="1.1" xmlns="http://www.w3.org/2000/svg" xmlns:xlink="http://www.w3.org/1999/xlink" fill="transparent" x="0" y="0" width="350" height="350" preserveAspectRatio="xMinYMin slice"><style type="text/css">.links{fill:transparent;stroke: #E4CF37;}.links:hover{fill:#63D272; opacity:0.4;}</style><defs><g id="allt"><path id="t9001" d="M1056,2208 L1046,2211 C1036,2214 1050,2199 1040,2200 C1030,2201 1041,2213 1032,2210 L1023,2208 1023,2208 L1023,2218 C1024,2229 1019,2213 1018,2221 C1017,2230 1023,2220 1023,2230 L1023,2240 1023,2240 L1034,2240 C1045,2241 1028,2236 1037,2235 C1046,2234 1036,2240 1046,2240 L1056,2240 1056,2240 L1055,2229 C1054,2218 1064,2232 1065,2224 C1067,2216 1055,2227 1055,2217 L1056,2208"/></g><clipPath id="c" clipRule="evenodd" fill="transparent"><use href="#t9001"/></clipPath></defs><svg viewBox="1016 2198 52 44" preserveAspectRatio="xMinYMin meet"><svg width="4380" height="2430"><g><image crossorigin="anonymous" x="0" y="0" href="https://nftpuzzle.license-token.com/assets/completepuzzle.svg" width="100%" height="100%" /><g class="links"><use href="#t9001"/></g></g></svg><svg x="1053" y="2227" height="9%" width="9%" viewBox="0 0 330 330"><g><a xlink:href="https://nftpuzzle.license-token.com/" class="links"><title>See the most innovative NFT based token software licensing project</title><path fill="#E4CF37" id="more" d="M165,0C74.019,0,0,74.019,0,165s74.019,165,165,165s165-74.019,165-165S255.981,0,165,0z M85,190 c-13.785,0-25-11.215-25-25s11.215-25,25-25s25,11.215,25,25S98.785,190,85,190z M165,190c-13.785,0-25-11.215-25-25 s11.215-25,25-25s25,11.215,25,25S178.785,190,165,190z M245,190c-13.785,0-25-11.215-25-25s11.215-25,25-25 c13.785,0,25,11.215,25,25S258.785,190,245,190z"></path></a></g></svg></svg></svg>