<svg version="1.1" xmlns="http://www.w3.org/2000/svg" xmlns:xlink="http://www.w3.org/1999/xlink" fill="transparent" x="0" y="0" width="350" height="350" preserveAspectRatio="xMinYMin slice"><style type="text/css">.links{fill:transparent;stroke: #E4CF37;}.links:hover{fill:#63D272; opacity:0.4;}</style><defs><g id="allt"><path id="t9003" d="M1122,2208 L1112,2207 C1103,2206 1113,2214 1105,2215 C1098,2216 1107,2208 1098,2208 L1089,2208 1089,2208 L1090,2217 C1091,2227 1084,2216 1082,2225 C1080,2234 1089,2219 1089,2229 L1089,2240 1089,2240 L1099,2241 C1109,2242 1097,2235 1106,2233 C1116,2231 1100,2240 1111,2240 L1122,2240 1122,2240 L1122,2229 C1123,2219 1133,2234 1133,2224 C1133,2214 1118,2225 1120,2216 L1122,2208"/></g><clipPath id="c" clipRule="evenodd" fill="transparent"><use href="#t9003"/></clipPath></defs><svg viewBox="1079 2205 55 38" preserveAspectRatio="xMinYMin meet"><svg width="4380" height="2430"><g><image crossorigin="anonymous" x="0" y="0" href="https://nftpuzzle.license-token.com/assets/completepuzzle.svg" width="100%" height="100%" /><g class="links"><use href="#t9003"/></g></g></svg><svg x="1119" y="2228" height="9%" width="9%" viewBox="0 0 330 330"><g><a xlink:href="https://nftpuzzle.license-token.com/" class="links"><title>See the most innovative NFT based token software licensing project</title><path fill="#E4CF37" id="more" d="M165,0C74.019,0,0,74.019,0,165s74.019,165,165,165s165-74.019,165-165S255.981,0,165,0z M85,190 c-13.785,0-25-11.215-25-25s11.215-25,25-25s25,11.215,25,25S98.785,190,85,190z M165,190c-13.785,0-25-11.215-25-25 s11.215-25,25-25s25,11.215,25,25S178.785,190,165,190z M245,190c-13.785,0-25-11.215-25-25s11.215-25,25-25 c13.785,0,25,11.215,25,25S258.785,190,245,190z"></path></a></g></svg></svg></svg>