<svg version="1.1" xmlns="http://www.w3.org/2000/svg" xmlns:xlink="http://www.w3.org/1999/xlink" fill="transparent" x="0" y="0" width="350" height="350" preserveAspectRatio="xMinYMin slice"><style type="text/css">.links{fill:transparent;stroke: #E4CF37;}.links:hover{fill:#63D272; opacity:0.4;}</style><defs><g id="allt"><path id="t9006" d="M1221,2208 L1211,2208 C1201,2209 1215,2200 1205,2202 C1195,2204 1209,2209 1198,2208 L1188,2208 1188,2208 L1189,2218 C1191,2228 1178,2214 1179,2222 C1181,2231 1188,2220 1188,2230 L1188,2240 1188,2240 L1198,2241 C1209,2243 1194,2230 1203,2231 C1212,2233 1201,2240 1211,2240 L1221,2240 1221,2240 L1221,2229 C1222,2219 1218,2232 1217,2222 C1216,2213 1222,2225 1221,2216 L1221,2208"/></g><clipPath id="c" clipRule="evenodd" fill="transparent"><use href="#t9006"/></clipPath></defs><svg viewBox="1177 2199 46 45" preserveAspectRatio="xMinYMin meet"><svg width="4380" height="2430"><g><image crossorigin="anonymous" x="0" y="0" href="https://nftpuzzle.license-token.com/assets/completepuzzle.svg" width="100%" height="100%" /><g class="links"><use href="#t9006"/></g></g></svg><svg x="1208" y="2229" height="9%" width="9%" viewBox="0 0 330 330"><g><a xlink:href="https://nftpuzzle.license-token.com/" class="links"><title>See the most innovative NFT based token software licensing project</title><path fill="#E4CF37" id="more" d="M165,0C74.019,0,0,74.019,0,165s74.019,165,165,165s165-74.019,165-165S255.981,0,165,0z M85,190 c-13.785,0-25-11.215-25-25s11.215-25,25-25s25,11.215,25,25S98.785,190,85,190z M165,190c-13.785,0-25-11.215-25-25 s11.215-25,25-25s25,11.215,25,25S178.785,190,165,190z M245,190c-13.785,0-25-11.215-25-25s11.215-25,25-25 c13.785,0,25,11.215,25,25S258.785,190,245,190z"></path></a></g></svg></svg></svg>