<svg version="1.1" xmlns="http://www.w3.org/2000/svg" xmlns:xlink="http://www.w3.org/1999/xlink" fill="transparent" x="0" y="0" width="350" height="350" preserveAspectRatio="xMinYMin slice"><style type="text/css">.links{fill:transparent;stroke: #E4CF37;}.links:hover{fill:#63D272; opacity:0.4;}</style><defs><g id="allt"><path id="t9008" d="M1287,2208 L1276,2208 C1265,2208 1282,2212 1270,2211 C1258,2211 1273,2208 1263,2208 L1254,2208 1254,2208 L1254,2217 C1254,2227 1251,2214 1250,2223 C1250,2232 1256,2221 1255,2230 L1254,2240 1254,2240 L1264,2240 C1274,2240 1260,2237 1269,2236 C1279,2236 1267,2242 1277,2241 L1287,2240 1287,2240 L1288,2231 C1290,2222 1275,2234 1276,2223 C1277,2213 1287,2228 1287,2218 L1287,2208"/></g><clipPath id="c" clipRule="evenodd" fill="transparent"><use href="#t9008"/></clipPath></defs><svg viewBox="1249 2207 42 36" preserveAspectRatio="xMinYMin meet"><svg width="4380" height="2430"><g><image crossorigin="anonymous" x="0" y="0" href="https://nftpuzzle.license-token.com/assets/completepuzzle.svg" width="100%" height="100%" /><g class="links"><use href="#t9008"/></g></g></svg><svg x="1276" y="2228" height="9%" width="9%" viewBox="0 0 330 330"><g><a xlink:href="https://nftpuzzle.license-token.com/" class="links"><title>See the most innovative NFT based token software licensing project</title><path fill="#E4CF37" id="more" d="M165,0C74.019,0,0,74.019,0,165s74.019,165,165,165s165-74.019,165-165S255.981,0,165,0z M85,190 c-13.785,0-25-11.215-25-25s11.215-25,25-25s25,11.215,25,25S98.785,190,85,190z M165,190c-13.785,0-25-11.215-25-25 s11.215-25,25-25s25,11.215,25,25S178.785,190,165,190z M245,190c-13.785,0-25-11.215-25-25s11.215-25,25-25 c13.785,0,25,11.215,25,25S258.785,190,245,190z"></path></a></g></svg></svg></svg>