<svg version="1.1" xmlns="http://www.w3.org/2000/svg" xmlns:xlink="http://www.w3.org/1999/xlink" fill="transparent" x="0" y="0" width="350" height="350" preserveAspectRatio="xMinYMin slice"><style type="text/css">.links{fill:transparent;stroke: #E4CF37;}.links:hover{fill:#63D272; opacity:0.4;}</style><defs><g id="allt"><path id="t9012" d="M1419,2208 L1408,2207 C1397,2206 1412,2213 1402,2214 C1392,2215 1406,2205 1396,2206 L1386,2208 1386,2208 L1386,2218 C1386,2229 1382,2214 1382,2223 C1382,2232 1386,2219 1386,2229 L1386,2240 1386,2240 L1396,2240 C1407,2240 1392,2236 1401,2236 C1411,2236 1397,2240 1408,2240 L1419,2240 1419,2240 L1419,2229 C1419,2218 1413,2234 1411,2224 C1409,2214 1422,2227 1420,2217 L1419,2208"/></g><clipPath id="c" clipRule="evenodd" fill="transparent"><use href="#t9012"/></clipPath></defs><svg viewBox="1381 2204 42 37" preserveAspectRatio="xMinYMin meet"><svg width="4380" height="2430"><g><image crossorigin="anonymous" x="0" y="0" href="https://nftpuzzle.license-token.com/assets/completepuzzle.svg" width="100%" height="100%" /><g class="links"><use href="#t9012"/></g></g></svg><svg x="1408" y="2226" height="9%" width="9%" viewBox="0 0 330 330"><g><a xlink:href="https://nftpuzzle.license-token.com/" class="links"><title>See the most innovative NFT based token software licensing project</title><path fill="#E4CF37" id="more" d="M165,0C74.019,0,0,74.019,0,165s74.019,165,165,165s165-74.019,165-165S255.981,0,165,0z M85,190 c-13.785,0-25-11.215-25-25s11.215-25,25-25s25,11.215,25,25S98.785,190,85,190z M165,190c-13.785,0-25-11.215-25-25 s11.215-25,25-25s25,11.215,25,25S178.785,190,165,190z M245,190c-13.785,0-25-11.215-25-25s11.215-25,25-25 c13.785,0,25,11.215,25,25S258.785,190,245,190z"></path></a></g></svg></svg></svg>