<svg version="1.1" xmlns="http://www.w3.org/2000/svg" xmlns:xlink="http://www.w3.org/1999/xlink" fill="transparent" x="0" y="0" width="350" height="350" preserveAspectRatio="xMinYMin slice"><style type="text/css">.links{fill:transparent;stroke: #E4CF37;}.links:hover{fill:#63D272; opacity:0.4;}</style><defs><g id="allt"><path id="t9018" d="M1617,2208 L1606,2206 C1595,2204 1610,2217 1601,2216 C1593,2216 1605,2204 1594,2206 L1584,2208 1584,2208 L1584,2217 C1585,2226 1595,2217 1592,2225 C1590,2234 1581,2219 1582,2229 L1584,2240 1584,2240 L1593,2240 C1603,2241 1593,2251 1602,2248 C1611,2246 1595,2237 1606,2238 L1617,2240 1617,2240 L1617,2230 C1617,2220 1613,2234 1611,2223 C1609,2213 1618,2228 1617,2218 L1617,2208"/></g><clipPath id="c" clipRule="evenodd" fill="transparent"><use href="#t9018"/></clipPath></defs><svg viewBox="1580 2203 39 49" preserveAspectRatio="xMinYMin meet"><svg width="4380" height="2430"><g><image crossorigin="anonymous" x="0" y="0" href="https://nftpuzzle.license-token.com/assets/completepuzzle.svg" width="100%" height="100%" /><g class="links"><use href="#t9018"/></g></g></svg><svg x="1604" y="2237" height="9%" width="9%" viewBox="0 0 330 330"><g><a xlink:href="https://nftpuzzle.license-token.com/" class="links"><title>See the most innovative NFT based token software licensing project</title><path fill="#E4CF37" id="more" d="M165,0C74.019,0,0,74.019,0,165s74.019,165,165,165s165-74.019,165-165S255.981,0,165,0z M85,190 c-13.785,0-25-11.215-25-25s11.215-25,25-25s25,11.215,25,25S98.785,190,85,190z M165,190c-13.785,0-25-11.215-25-25 s11.215-25,25-25s25,11.215,25,25S178.785,190,165,190z M245,190c-13.785,0-25-11.215-25-25s11.215-25,25-25 c13.785,0,25,11.215,25,25S258.785,190,245,190z"></path></a></g></svg></svg></svg>