<svg version="1.1" xmlns="http://www.w3.org/2000/svg" xmlns:xlink="http://www.w3.org/1999/xlink" fill="transparent" x="0" y="0" width="350" height="350" preserveAspectRatio="xMinYMin slice"><style type="text/css">.links{fill:transparent;stroke: #E4CF37;}.links:hover{fill:#63D272; opacity:0.4;}</style><defs><g id="allt"><path id="t902" d="M4059,192 L4048,192 C4037,192 4049,185 4040,185 C4032,186 4047,194 4036,193 L4026,192 4026,192 L4026,202 C4026,212 4033,197 4034,206 C4036,216 4021,204 4023,214 L4026,224 4026,224 L4036,224 C4047,224 4031,231 4041,232 C4051,233 4038,219 4048,221 L4059,224 4059,224 L4059,213 C4059,203 4063,218 4063,207 C4063,197 4059,212 4059,202 L4059,192"/></g><clipPath id="c" clipRule="evenodd" fill="transparent"><use href="#t902"/></clipPath></defs><svg viewBox="4020 184 44 50" preserveAspectRatio="xMinYMin meet"><svg width="4380" height="2430"><g><image crossorigin="anonymous" x="0" y="0" href="https://nftpuzzle.license-token.com/assets/completepuzzle.svg" width="100%" height="100%" /><g class="links"><use href="#t902"/></g></g></svg><svg x="4049" y="219" height="9%" width="9%" viewBox="0 0 330 330"><g><a xlink:href="https://nftpuzzle.license-token.com/" class="links"><title>See the most innovative NFT based token software licensing project</title><path fill="#E4CF37" id="more" d="M165,0C74.019,0,0,74.019,0,165s74.019,165,165,165s165-74.019,165-165S255.981,0,165,0z M85,190 c-13.785,0-25-11.215-25-25s11.215-25,25-25s25,11.215,25,25S98.785,190,85,190z M165,190c-13.785,0-25-11.215-25-25 s11.215-25,25-25s25,11.215,25,25S178.785,190,165,190z M245,190c-13.785,0-25-11.215-25-25s11.215-25,25-25 c13.785,0,25,11.215,25,25S258.785,190,245,190z"></path></a></g></svg></svg></svg>