<svg version="1.1" xmlns="http://www.w3.org/2000/svg" xmlns:xlink="http://www.w3.org/1999/xlink" fill="transparent" x="0" y="0" width="350" height="350" preserveAspectRatio="xMinYMin slice"><style type="text/css">.links{fill:transparent;stroke: #E4CF37;}.links:hover{fill:#63D272; opacity:0.4;}</style><defs><g id="allt"><path id="t9020" d="M1683,2208 L1672,2207 C1662,2207 1674,2216 1664,2215 C1655,2214 1671,2206 1660,2207 L1650,2208 1650,2208 L1650,2216 C1651,2225 1644,2214 1643,2224 C1643,2234 1654,2221 1652,2230 L1650,2240 1650,2240 L1659,2240 C1668,2241 1656,2234 1666,2233 C1677,2233 1663,2244 1673,2242 L1683,2240 1683,2240 L1685,2230 C1687,2220 1672,2233 1673,2223 C1674,2213 1683,2229 1683,2218 L1683,2208"/></g><clipPath id="c" clipRule="evenodd" fill="transparent"><use href="#t9020"/></clipPath></defs><svg viewBox="1642 2205 46 40" preserveAspectRatio="xMinYMin meet"><svg width="4380" height="2430"><g><image crossorigin="anonymous" x="0" y="0" href="https://nftpuzzle.license-token.com/assets/completepuzzle.svg" width="100%" height="100%" /><g class="links"><use href="#t9020"/></g></g></svg><svg x="1673" y="2230" height="9%" width="9%" viewBox="0 0 330 330"><g><a xlink:href="https://nftpuzzle.license-token.com/" class="links"><title>See the most innovative NFT based token software licensing project</title><path fill="#E4CF37" id="more" d="M165,0C74.019,0,0,74.019,0,165s74.019,165,165,165s165-74.019,165-165S255.981,0,165,0z M85,190 c-13.785,0-25-11.215-25-25s11.215-25,25-25s25,11.215,25,25S98.785,190,85,190z M165,190c-13.785,0-25-11.215-25-25 s11.215-25,25-25s25,11.215,25,25S178.785,190,165,190z M245,190c-13.785,0-25-11.215-25-25s11.215-25,25-25 c13.785,0,25,11.215,25,25S258.785,190,245,190z"></path></a></g></svg></svg></svg>