<svg version="1.1" xmlns="http://www.w3.org/2000/svg" xmlns:xlink="http://www.w3.org/1999/xlink" fill="transparent" x="0" y="0" width="350" height="350" preserveAspectRatio="xMinYMin slice"><style type="text/css">.links{fill:transparent;stroke: #E4CF37;}.links:hover{fill:#63D272; opacity:0.4;}</style><defs><g id="allt"><path id="t9022" d="M1749,2208 L1739,2206 C1730,2204 1739,2214 1732,2213 C1725,2212 1735,2207 1725,2207 L1716,2208 1716,2208 L1717,2217 C1718,2227 1707,2216 1708,2223 C1710,2231 1719,2221 1717,2230 L1716,2240 1716,2240 L1725,2241 C1735,2242 1724,2231 1732,2232 C1740,2234 1729,2243 1739,2241 L1749,2240 1749,2240 L1748,2231 C1747,2222 1755,2235 1754,2225 C1754,2215 1748,2227 1748,2217 L1749,2208"/></g><clipPath id="c" clipRule="evenodd" fill="transparent"><use href="#t9022"/></clipPath></defs><svg viewBox="1706 2203 50 41" preserveAspectRatio="xMinYMin meet"><svg width="4380" height="2430"><g><image crossorigin="anonymous" x="0" y="0" href="https://nftpuzzle.license-token.com/assets/completepuzzle.svg" width="100%" height="100%" /><g class="links"><use href="#t9022"/></g></g></svg><svg x="1741" y="2229" height="9%" width="9%" viewBox="0 0 330 330"><g><a xlink:href="https://nftpuzzle.license-token.com/" class="links"><title>See the most innovative NFT based token software licensing project</title><path fill="#E4CF37" id="more" d="M165,0C74.019,0,0,74.019,0,165s74.019,165,165,165s165-74.019,165-165S255.981,0,165,0z M85,190 c-13.785,0-25-11.215-25-25s11.215-25,25-25s25,11.215,25,25S98.785,190,85,190z M165,190c-13.785,0-25-11.215-25-25 s11.215-25,25-25s25,11.215,25,25S178.785,190,165,190z M245,190c-13.785,0-25-11.215-25-25s11.215-25,25-25 c13.785,0,25,11.215,25,25S258.785,190,245,190z"></path></a></g></svg></svg></svg>