<svg version="1.1" xmlns="http://www.w3.org/2000/svg" xmlns:xlink="http://www.w3.org/1999/xlink" fill="transparent" x="0" y="0" width="350" height="350" preserveAspectRatio="xMinYMin slice"><style type="text/css">.links{fill:transparent;stroke: #E4CF37;}.links:hover{fill:#63D272; opacity:0.4;}</style><defs><g id="allt"><path id="t9029" d="M1980,2208 L1968,2208 C1957,2208 1970,2213 1962,2214 C1955,2216 1968,2208 1957,2208 L1947,2208 1947,2208 L1948,2218 C1950,2229 1939,2215 1939,2222 C1940,2230 1949,2219 1948,2229 L1947,2240 1947,2240 L1958,2241 C1969,2243 1954,2232 1962,2232 C1970,2233 1958,2242 1969,2241 L1980,2240 1980,2240 L1980,2229 C1980,2218 1976,2234 1975,2223 C1975,2213 1981,2229 1980,2218 L1980,2208"/></g><clipPath id="c" clipRule="evenodd" fill="transparent"><use href="#t9029"/></clipPath></defs><svg viewBox="1938 2207 44 37" preserveAspectRatio="xMinYMin meet"><svg width="4380" height="2430"><g><image crossorigin="anonymous" x="0" y="0" href="https://nftpuzzle.license-token.com/assets/completepuzzle.svg" width="100%" height="100%" /><g class="links"><use href="#t9029"/></g></g></svg><svg x="1967" y="2229" height="9%" width="9%" viewBox="0 0 330 330"><g><a xlink:href="https://nftpuzzle.license-token.com/" class="links"><title>See the most innovative NFT based token software licensing project</title><path fill="#E4CF37" id="more" d="M165,0C74.019,0,0,74.019,0,165s74.019,165,165,165s165-74.019,165-165S255.981,0,165,0z M85,190 c-13.785,0-25-11.215-25-25s11.215-25,25-25s25,11.215,25,25S98.785,190,85,190z M165,190c-13.785,0-25-11.215-25-25 s11.215-25,25-25s25,11.215,25,25S178.785,190,165,190z M245,190c-13.785,0-25-11.215-25-25s11.215-25,25-25 c13.785,0,25,11.215,25,25S258.785,190,245,190z"></path></a></g></svg></svg></svg>