<svg version="1.1" xmlns="http://www.w3.org/2000/svg" xmlns:xlink="http://www.w3.org/1999/xlink" fill="transparent" x="0" y="0" width="350" height="350" preserveAspectRatio="xMinYMin slice"><style type="text/css">.links{fill:transparent;stroke: #E4CF37;}.links:hover{fill:#63D272; opacity:0.4;}</style><defs><g id="allt"><path id="t903" d="M4092,192 L4081,192 C4071,192 4083,196 4075,196 C4067,196 4077,191 4068,191 L4059,192 4059,192 L4059,202 C4059,212 4063,197 4063,207 C4063,218 4059,203 4059,213 L4059,224 4059,224 L4069,224 C4080,224 4064,228 4075,228 C4086,228 4070,224 4081,224 L4092,224 4092,224 L4090,214 C4088,205 4103,217 4100,207 C4098,197 4092,211 4092,201 L4092,192"/></g><clipPath id="c" clipRule="evenodd" fill="transparent"><use href="#t903"/></clipPath></defs><svg viewBox="4058 190 46 39" preserveAspectRatio="xMinYMin meet"><svg width="4380" height="2430"><g><image crossorigin="anonymous" x="0" y="0" href="https://nftpuzzle.license-token.com/assets/completepuzzle.svg" width="100%" height="100%" /><g class="links"><use href="#t903"/></g></g></svg><svg x="4089" y="214" height="9%" width="9%" viewBox="0 0 330 330"><g><a xlink:href="https://nftpuzzle.license-token.com/" class="links"><title>See the most innovative NFT based token software licensing project</title><path fill="#E4CF37" id="more" d="M165,0C74.019,0,0,74.019,0,165s74.019,165,165,165s165-74.019,165-165S255.981,0,165,0z M85,190 c-13.785,0-25-11.215-25-25s11.215-25,25-25s25,11.215,25,25S98.785,190,85,190z M165,190c-13.785,0-25-11.215-25-25 s11.215-25,25-25s25,11.215,25,25S178.785,190,165,190z M245,190c-13.785,0-25-11.215-25-25s11.215-25,25-25 c13.785,0,25,11.215,25,25S258.785,190,245,190z"></path></a></g></svg></svg></svg>