<svg version="1.1" xmlns="http://www.w3.org/2000/svg" xmlns:xlink="http://www.w3.org/1999/xlink" fill="transparent" x="0" y="0" width="350" height="350" preserveAspectRatio="xMinYMin slice"><style type="text/css">.links{fill:transparent;stroke: #E4CF37;}.links:hover{fill:#63D272; opacity:0.4;}</style><defs><g id="allt"><path id="t9031" d="M2046,2208 L2035,2208 C2025,2208 2041,2216 2029,2216 C2018,2216 2033,2208 2023,2208 L2013,2208 2013,2208 L2013,2217 C2014,2226 2007,2215 2008,2222 C2009,2230 2015,2221 2014,2230 L2013,2240 2013,2240 L2022,2240 C2031,2241 2020,2234 2028,2235 C2036,2236 2027,2242 2036,2241 L2046,2240 2046,2240 L2046,2230 C2047,2220 2042,2233 2043,2224 C2044,2216 2047,2229 2046,2218 L2046,2208"/></g><clipPath id="c" clipRule="evenodd" fill="transparent"><use href="#t9031"/></clipPath></defs><svg viewBox="2006 2207 42 36" preserveAspectRatio="xMinYMin meet"><svg width="4380" height="2430"><g><image crossorigin="anonymous" x="0" y="0" href="https://nftpuzzle.license-token.com/assets/completepuzzle.svg" width="100%" height="100%" /><g class="links"><use href="#t9031"/></g></g></svg><svg x="2033" y="2228" height="9%" width="9%" viewBox="0 0 330 330"><g><a xlink:href="https://nftpuzzle.license-token.com/" class="links"><title>See the most innovative NFT based token software licensing project</title><path fill="#E4CF37" id="more" d="M165,0C74.019,0,0,74.019,0,165s74.019,165,165,165s165-74.019,165-165S255.981,0,165,0z M85,190 c-13.785,0-25-11.215-25-25s11.215-25,25-25s25,11.215,25,25S98.785,190,85,190z M165,190c-13.785,0-25-11.215-25-25 s11.215-25,25-25s25,11.215,25,25S178.785,190,165,190z M245,190c-13.785,0-25-11.215-25-25s11.215-25,25-25 c13.785,0,25,11.215,25,25S258.785,190,245,190z"></path></a></g></svg></svg></svg>