<svg version="1.1" xmlns="http://www.w3.org/2000/svg" xmlns:xlink="http://www.w3.org/1999/xlink" fill="transparent" x="0" y="0" width="350" height="350" preserveAspectRatio="xMinYMin slice"><style type="text/css">.links{fill:transparent;stroke: #E4CF37;}.links:hover{fill:#63D272; opacity:0.4;}</style><defs><g id="allt"><path id="t9035" d="M2178,2208 L2167,2208 C2157,2208 2172,2212 2162,2214 C2152,2217 2167,2205 2156,2206 L2145,2208 2145,2208 L2146,2217 C2147,2227 2138,2215 2137,2223 C2136,2231 2145,2218 2145,2229 L2145,2240 2145,2240 L2155,2241 C2165,2242 2152,2233 2160,2232 C2169,2231 2155,2240 2166,2240 L2178,2240 2178,2240 L2178,2230 C2179,2220 2172,2233 2171,2225 C2170,2217 2181,2229 2179,2218 L2178,2208"/></g><clipPath id="c" clipRule="evenodd" fill="transparent"><use href="#t9035"/></clipPath></defs><svg viewBox="2135 2204 47 39" preserveAspectRatio="xMinYMin meet"><svg width="4380" height="2430"><g><image crossorigin="anonymous" x="0" y="0" href="https://nftpuzzle.license-token.com/assets/completepuzzle.svg" width="100%" height="100%" /><g class="links"><use href="#t9035"/></g></g></svg><svg x="2167" y="2228" height="9%" width="9%" viewBox="0 0 330 330"><g><a xlink:href="https://nftpuzzle.license-token.com/" class="links"><title>See the most innovative NFT based token software licensing project</title><path fill="#E4CF37" id="more" d="M165,0C74.019,0,0,74.019,0,165s74.019,165,165,165s165-74.019,165-165S255.981,0,165,0z M85,190 c-13.785,0-25-11.215-25-25s11.215-25,25-25s25,11.215,25,25S98.785,190,85,190z M165,190c-13.785,0-25-11.215-25-25 s11.215-25,25-25s25,11.215,25,25S178.785,190,165,190z M245,190c-13.785,0-25-11.215-25-25s11.215-25,25-25 c13.785,0,25,11.215,25,25S258.785,190,245,190z"></path></a></g></svg></svg></svg>