<svg version="1.1" xmlns="http://www.w3.org/2000/svg" xmlns:xlink="http://www.w3.org/1999/xlink" fill="transparent" x="0" y="0" width="350" height="350" preserveAspectRatio="xMinYMin slice"><style type="text/css">.links{fill:transparent;stroke: #E4CF37;}.links:hover{fill:#63D272; opacity:0.4;}</style><defs><g id="allt"><path id="t9045" d="M2508,2208 L2497,2208 C2486,2208 2501,2196 2490,2199 C2480,2202 2496,2210 2485,2209 L2475,2208 2475,2208 L2475,2217 C2476,2227 2468,2215 2468,2223 C2468,2231 2475,2221 2475,2230 L2475,2240 2475,2240 L2485,2240 C2495,2241 2482,2233 2490,2233 C2498,2233 2489,2240 2498,2240 L2508,2240 2508,2240 L2508,2230 C2508,2220 2517,2234 2516,2225 C2516,2216 2508,2229 2508,2218 L2508,2208"/></g><clipPath id="c" clipRule="evenodd" fill="transparent"><use href="#t9045"/></clipPath></defs><svg viewBox="2467 2195 51 47" preserveAspectRatio="xMinYMin meet"><svg width="4380" height="2430"><g><image crossorigin="anonymous" x="0" y="0" href="https://nftpuzzle.license-token.com/assets/completepuzzle.svg" width="100%" height="100%" /><g class="links"><use href="#t9045"/></g></g></svg><svg x="2503" y="2227" height="9%" width="9%" viewBox="0 0 330 330"><g><a xlink:href="https://nftpuzzle.license-token.com/" class="links"><title>See the most innovative NFT based token software licensing project</title><path fill="#E4CF37" id="more" d="M165,0C74.019,0,0,74.019,0,165s74.019,165,165,165s165-74.019,165-165S255.981,0,165,0z M85,190 c-13.785,0-25-11.215-25-25s11.215-25,25-25s25,11.215,25,25S98.785,190,85,190z M165,190c-13.785,0-25-11.215-25-25 s11.215-25,25-25s25,11.215,25,25S178.785,190,165,190z M245,190c-13.785,0-25-11.215-25-25s11.215-25,25-25 c13.785,0,25,11.215,25,25S258.785,190,245,190z"></path></a></g></svg></svg></svg>