<svg version="1.1" xmlns="http://www.w3.org/2000/svg" xmlns:xlink="http://www.w3.org/1999/xlink" fill="transparent" x="0" y="0" width="350" height="350" preserveAspectRatio="xMinYMin slice"><style type="text/css">.links{fill:transparent;stroke: #E4CF37;}.links:hover{fill:#63D272; opacity:0.4;}</style><defs><g id="allt"><path id="t9048" d="M2607,2208 L2597,2208 C2587,2209 2597,2206 2589,2205 C2582,2204 2594,2209 2584,2208 L2574,2208 2574,2208 L2575,2217 C2576,2227 2569,2217 2568,2224 C2567,2232 2574,2220 2574,2230 L2574,2240 2574,2240 L2584,2241 C2594,2242 2583,2235 2591,2234 C2599,2233 2587,2240 2597,2240 L2607,2240 2607,2240 L2607,2231 C2607,2222 2616,2234 2614,2224 C2612,2214 2605,2226 2606,2217 L2607,2208"/></g><clipPath id="c" clipRule="evenodd" fill="transparent"><use href="#t9048"/></clipPath></defs><svg viewBox="2566 2203 51 40" preserveAspectRatio="xMinYMin meet"><svg width="4380" height="2430"><g><image crossorigin="anonymous" x="0" y="0" href="https://nftpuzzle.license-token.com/assets/completepuzzle.svg" width="100%" height="100%" /><g class="links"><use href="#t9048"/></g></g></svg><svg x="2602" y="2228" height="9%" width="9%" viewBox="0 0 330 330"><g><a xlink:href="https://nftpuzzle.license-token.com/" class="links"><title>See the most innovative NFT based token software licensing project</title><path fill="#E4CF37" id="more" d="M165,0C74.019,0,0,74.019,0,165s74.019,165,165,165s165-74.019,165-165S255.981,0,165,0z M85,190 c-13.785,0-25-11.215-25-25s11.215-25,25-25s25,11.215,25,25S98.785,190,85,190z M165,190c-13.785,0-25-11.215-25-25 s11.215-25,25-25s25,11.215,25,25S178.785,190,165,190z M245,190c-13.785,0-25-11.215-25-25s11.215-25,25-25 c13.785,0,25,11.215,25,25S258.785,190,245,190z"></path></a></g></svg></svg></svg>