<svg version="1.1" xmlns="http://www.w3.org/2000/svg" xmlns:xlink="http://www.w3.org/1999/xlink" fill="transparent" x="0" y="0" width="350" height="350" preserveAspectRatio="xMinYMin slice"><style type="text/css">.links{fill:transparent;stroke: #E4CF37;}.links:hover{fill:#63D272; opacity:0.4;}</style><defs><g id="allt"><path id="t905" d="M4158,192 L4148,192 C4139,192 4153,200 4142,197 C4132,195 4145,192 4135,192 L4125,192 4125,192 L4125,202 C4125,212 4121,198 4119,207 C4117,217 4125,204 4125,214 L4125,224 4125,224 L4135,224 C4146,224 4131,220 4141,218 C4151,216 4137,224 4147,224 L4158,224 4158,224 L4158,215 C4159,206 4149,217 4150,208 C4151,200 4162,212 4160,202 L4158,192"/></g><clipPath id="c" clipRule="evenodd" fill="transparent"><use href="#t905"/></clipPath></defs><svg viewBox="4116 191 47 34" preserveAspectRatio="xMinYMin meet"><svg width="4380" height="2430"><g><image crossorigin="anonymous" x="0" y="0" href="https://nftpuzzle.license-token.com/assets/completepuzzle.svg" width="100%" height="100%" /><g class="links"><use href="#t905"/></g></g></svg><svg x="4148" y="210" height="9%" width="9%" viewBox="0 0 330 330"><g><a xlink:href="https://nftpuzzle.license-token.com/" class="links"><title>See the most innovative NFT based token software licensing project</title><path fill="#E4CF37" id="more" d="M165,0C74.019,0,0,74.019,0,165s74.019,165,165,165s165-74.019,165-165S255.981,0,165,0z M85,190 c-13.785,0-25-11.215-25-25s11.215-25,25-25s25,11.215,25,25S98.785,190,85,190z M165,190c-13.785,0-25-11.215-25-25 s11.215-25,25-25s25,11.215,25,25S178.785,190,165,190z M245,190c-13.785,0-25-11.215-25-25s11.215-25,25-25 c13.785,0,25,11.215,25,25S258.785,190,245,190z"></path></a></g></svg></svg></svg>