<svg version="1.1" xmlns="http://www.w3.org/2000/svg" xmlns:xlink="http://www.w3.org/1999/xlink" fill="transparent" x="0" y="0" width="350" height="350" preserveAspectRatio="xMinYMin slice"><style type="text/css">.links{fill:transparent;stroke: #E4CF37;}.links:hover{fill:#63D272; opacity:0.4;}</style><defs><g id="allt"><path id="t9050" d="M2673,2208 L2663,2208 C2653,2209 2666,2204 2656,2204 C2646,2204 2660,2209 2650,2208 L2640,2208 2640,2208 L2639,2217 C2639,2226 2643,2216 2643,2225 C2643,2234 2640,2221 2640,2230 L2640,2240 2640,2240 L2649,2239 C2659,2239 2648,2243 2657,2243 C2667,2243 2653,2240 2663,2240 L2673,2240 2673,2240 L2673,2229 C2674,2219 2669,2230 2667,2222 C2665,2215 2673,2225 2673,2216 L2673,2208"/></g><clipPath id="c" clipRule="evenodd" fill="transparent"><use href="#t9050"/></clipPath></defs><svg viewBox="2638 2203 37 41" preserveAspectRatio="xMinYMin meet"><svg width="4380" height="2430"><g><image crossorigin="anonymous" x="0" y="0" href="https://nftpuzzle.license-token.com/assets/completepuzzle.svg" width="100%" height="100%" /><g class="links"><use href="#t9050"/></g></g></svg><svg x="2660" y="2229" height="9%" width="9%" viewBox="0 0 330 330"><g><a xlink:href="https://nftpuzzle.license-token.com/" class="links"><title>See the most innovative NFT based token software licensing project</title><path fill="#E4CF37" id="more" d="M165,0C74.019,0,0,74.019,0,165s74.019,165,165,165s165-74.019,165-165S255.981,0,165,0z M85,190 c-13.785,0-25-11.215-25-25s11.215-25,25-25s25,11.215,25,25S98.785,190,85,190z M165,190c-13.785,0-25-11.215-25-25 s11.215-25,25-25s25,11.215,25,25S178.785,190,165,190z M245,190c-13.785,0-25-11.215-25-25s11.215-25,25-25 c13.785,0,25,11.215,25,25S258.785,190,245,190z"></path></a></g></svg></svg></svg>