<svg version="1.1" xmlns="http://www.w3.org/2000/svg" xmlns:xlink="http://www.w3.org/1999/xlink" fill="transparent" x="0" y="0" width="350" height="350" preserveAspectRatio="xMinYMin slice"><style type="text/css">.links{fill:transparent;stroke: #E4CF37;}.links:hover{fill:#63D272; opacity:0.4;}</style><defs><g id="allt"><path id="t9053" d="M2772,2208 L2762,2209 C2753,2210 2766,2198 2755,2199 C2744,2201 2759,2208 2749,2208 L2739,2208 2739,2208 L2740,2217 C2742,2227 2729,2217 2730,2224 C2731,2231 2741,2218 2740,2229 L2739,2240 2739,2240 L2749,2241 C2759,2243 2748,2230 2755,2231 C2762,2232 2749,2242 2760,2241 L2772,2240 2772,2240 L2771,2229 C2771,2219 2760,2234 2762,2225 C2764,2216 2772,2227 2772,2217 L2772,2208"/></g><clipPath id="c" clipRule="evenodd" fill="transparent"><use href="#t9053"/></clipPath></defs><svg viewBox="2728 2197 45 47" preserveAspectRatio="xMinYMin meet"><svg width="4380" height="2430"><g><image crossorigin="anonymous" x="0" y="0" href="https://nftpuzzle.license-token.com/assets/completepuzzle.svg" width="100%" height="100%" /><g class="links"><use href="#t9053"/></g></g></svg><svg x="2758" y="2229" height="9%" width="9%" viewBox="0 0 330 330"><g><a xlink:href="https://nftpuzzle.license-token.com/" class="links"><title>See the most innovative NFT based token software licensing project</title><path fill="#E4CF37" id="more" d="M165,0C74.019,0,0,74.019,0,165s74.019,165,165,165s165-74.019,165-165S255.981,0,165,0z M85,190 c-13.785,0-25-11.215-25-25s11.215-25,25-25s25,11.215,25,25S98.785,190,85,190z M165,190c-13.785,0-25-11.215-25-25 s11.215-25,25-25s25,11.215,25,25S178.785,190,165,190z M245,190c-13.785,0-25-11.215-25-25s11.215-25,25-25 c13.785,0,25,11.215,25,25S258.785,190,245,190z"></path></a></g></svg></svg></svg>