<svg version="1.1" xmlns="http://www.w3.org/2000/svg" xmlns:xlink="http://www.w3.org/1999/xlink" fill="transparent" x="0" y="0" width="350" height="350" preserveAspectRatio="xMinYMin slice"><style type="text/css">.links{fill:transparent;stroke: #E4CF37;}.links:hover{fill:#63D272; opacity:0.4;}</style><defs><g id="allt"><path id="t907" d="M4224,192 L4214,192 C4205,192 4215,180 4206,180 C4198,181 4210,197 4200,194 L4191,192 4191,192 L4191,202 C4191,213 4185,200 4185,207 C4186,215 4196,203 4193,213 L4191,224 4191,224 L4202,224 C4213,224 4199,218 4206,218 C4214,219 4202,229 4213,226 L4224,224 4224,224 L4224,213 C4224,203 4234,215 4232,207 C4231,199 4222,212 4223,202 L4224,192"/></g><clipPath id="c" clipRule="evenodd" fill="transparent"><use href="#t907"/></clipPath></defs><svg viewBox="4184 179 51 51" preserveAspectRatio="xMinYMin meet"><svg width="4380" height="2430"><g><image crossorigin="anonymous" x="0" y="0" href="https://nftpuzzle.license-token.com/assets/completepuzzle.svg" width="100%" height="100%" /><g class="links"><use href="#t907"/></g></g></svg><svg x="4220" y="215" height="9%" width="9%" viewBox="0 0 330 330"><g><a xlink:href="https://nftpuzzle.license-token.com/" class="links"><title>See the most innovative NFT based token software licensing project</title><path fill="#E4CF37" id="more" d="M165,0C74.019,0,0,74.019,0,165s74.019,165,165,165s165-74.019,165-165S255.981,0,165,0z M85,190 c-13.785,0-25-11.215-25-25s11.215-25,25-25s25,11.215,25,25S98.785,190,85,190z M165,190c-13.785,0-25-11.215-25-25 s11.215-25,25-25s25,11.215,25,25S178.785,190,165,190z M245,190c-13.785,0-25-11.215-25-25s11.215-25,25-25 c13.785,0,25,11.215,25,25S258.785,190,245,190z"></path></a></g></svg></svg></svg>