<svg version="1.1" xmlns="http://www.w3.org/2000/svg" xmlns:xlink="http://www.w3.org/1999/xlink" fill="transparent" x="0" y="0" width="350" height="350" preserveAspectRatio="xMinYMin slice"><style type="text/css">.links{fill:transparent;stroke: #E4CF37;}.links:hover{fill:#63D272; opacity:0.4;}</style><defs><g id="allt"><path id="t9070" d="M3333,2208 L3323,2208 C3314,2209 3327,2202 3318,2202 C3309,2202 3320,2210 3310,2209 L3300,2208 3300,2208 L3302,2218 C3305,2228 3294,2214 3292,2223 C3291,2232 3303,2218 3301,2229 L3300,2240 3300,2240 L3310,2242 C3320,2245 3306,2234 3315,2233 C3324,2232 3310,2243 3321,2241 L3333,2240 3333,2240 L3334,2230 C3336,2220 3328,2234 3328,2225 C3328,2216 3333,2227 3333,2217 L3333,2208"/></g><clipPath id="c" clipRule="evenodd" fill="transparent"><use href="#t9070"/></clipPath></defs><svg viewBox="3290 2201 47 45" preserveAspectRatio="xMinYMin meet"><svg width="4380" height="2430"><g><image crossorigin="anonymous" x="0" y="0" href="https://nftpuzzle.license-token.com/assets/completepuzzle.svg" width="100%" height="100%" /><g class="links"><use href="#t9070"/></g></g></svg><svg x="3322" y="2231" height="9%" width="9%" viewBox="0 0 330 330"><g><a xlink:href="https://nftpuzzle.license-token.com/" class="links"><title>See the most innovative NFT based token software licensing project</title><path fill="#E4CF37" id="more" d="M165,0C74.019,0,0,74.019,0,165s74.019,165,165,165s165-74.019,165-165S255.981,0,165,0z M85,190 c-13.785,0-25-11.215-25-25s11.215-25,25-25s25,11.215,25,25S98.785,190,85,190z M165,190c-13.785,0-25-11.215-25-25 s11.215-25,25-25s25,11.215,25,25S178.785,190,165,190z M245,190c-13.785,0-25-11.215-25-25s11.215-25,25-25 c13.785,0,25,11.215,25,25S258.785,190,245,190z"></path></a></g></svg></svg></svg>