<svg version="1.1" xmlns="http://www.w3.org/2000/svg" xmlns:xlink="http://www.w3.org/1999/xlink" fill="transparent" x="0" y="0" width="350" height="350" preserveAspectRatio="xMinYMin slice"><style type="text/css">.links{fill:transparent;stroke: #E4CF37;}.links:hover{fill:#63D272; opacity:0.4;}</style><defs><g id="allt"><path id="t9074" d="M3465,2208 L3455,2208 C3445,2208 3456,2211 3446,2212 C3437,2214 3451,2208 3441,2208 L3432,2208 3432,2208 L3434,2218 C3437,2228 3420,2217 3421,2225 C3423,2233 3432,2219 3432,2229 L3432,2240 3432,2240 L3442,2242 C3452,2245 3441,2228 3449,2230 C3458,2232 3443,2240 3454,2240 L3465,2240 3465,2240 L3465,2230 C3465,2220 3456,2232 3456,2222 C3456,2212 3465,2226 3465,2217 L3465,2208"/></g><clipPath id="c" clipRule="evenodd" fill="transparent"><use href="#t9074"/></clipPath></defs><svg viewBox="3419 2207 47 39" preserveAspectRatio="xMinYMin meet"><svg width="4380" height="2430"><g><image crossorigin="anonymous" x="0" y="0" href="https://nftpuzzle.license-token.com/assets/completepuzzle.svg" width="100%" height="100%" /><g class="links"><use href="#t9074"/></g></g></svg><svg x="3451" y="2231" height="9%" width="9%" viewBox="0 0 330 330"><g><a xlink:href="https://nftpuzzle.license-token.com/" class="links"><title>See the most innovative NFT based token software licensing project</title><path fill="#E4CF37" id="more" d="M165,0C74.019,0,0,74.019,0,165s74.019,165,165,165s165-74.019,165-165S255.981,0,165,0z M85,190 c-13.785,0-25-11.215-25-25s11.215-25,25-25s25,11.215,25,25S98.785,190,85,190z M165,190c-13.785,0-25-11.215-25-25 s11.215-25,25-25s25,11.215,25,25S178.785,190,165,190z M245,190c-13.785,0-25-11.215-25-25s11.215-25,25-25 c13.785,0,25,11.215,25,25S258.785,190,245,190z"></path></a></g></svg></svg></svg>