<svg version="1.1" xmlns="http://www.w3.org/2000/svg" xmlns:xlink="http://www.w3.org/1999/xlink" fill="transparent" x="0" y="0" width="350" height="350" preserveAspectRatio="xMinYMin slice"><style type="text/css">.links{fill:transparent;stroke: #E4CF37;}.links:hover{fill:#63D272; opacity:0.4;}</style><defs><g id="allt"><path id="t9077" d="M3564,2208 L3553,2208 C3543,2208 3554,2201 3545,2202 C3537,2203 3550,2208 3540,2208 L3531,2208 3531,2208 L3530,2216 C3529,2225 3540,2216 3539,2223 C3539,2231 3531,2220 3531,2230 L3531,2240 3531,2240 L3540,2239 C3549,2238 3539,2249 3546,2248 C3554,2248 3543,2240 3553,2240 L3564,2240 3564,2240 L3564,2230 C3565,2221 3556,2230 3556,2222 C3557,2214 3567,2226 3565,2217 L3564,2208"/></g><clipPath id="c" clipRule="evenodd" fill="transparent"><use href="#t9077"/></clipPath></defs><svg viewBox="3528 2200 40 50" preserveAspectRatio="xMinYMin meet"><svg width="4380" height="2430"><g><image crossorigin="anonymous" x="0" y="0" href="https://nftpuzzle.license-token.com/assets/completepuzzle.svg" width="100%" height="100%" /><g class="links"><use href="#t9077"/></g></g></svg><svg x="3553" y="2235" height="9%" width="9%" viewBox="0 0 330 330"><g><a xlink:href="https://nftpuzzle.license-token.com/" class="links"><title>See the most innovative NFT based token software licensing project</title><path fill="#E4CF37" id="more" d="M165,0C74.019,0,0,74.019,0,165s74.019,165,165,165s165-74.019,165-165S255.981,0,165,0z M85,190 c-13.785,0-25-11.215-25-25s11.215-25,25-25s25,11.215,25,25S98.785,190,85,190z M165,190c-13.785,0-25-11.215-25-25 s11.215-25,25-25s25,11.215,25,25S178.785,190,165,190z M245,190c-13.785,0-25-11.215-25-25s11.215-25,25-25 c13.785,0,25,11.215,25,25S258.785,190,245,190z"></path></a></g></svg></svg></svg>