<svg version="1.1" xmlns="http://www.w3.org/2000/svg" xmlns:xlink="http://www.w3.org/1999/xlink" fill="transparent" x="0" y="0" width="350" height="350" preserveAspectRatio="xMinYMin slice"><style type="text/css">.links{fill:transparent;stroke: #E4CF37;}.links:hover{fill:#63D272; opacity:0.4;}</style><defs><g id="allt"><path id="t9079" d="M3630,2208 L3620,2208 C3610,2208 3624,2199 3613,2201 C3603,2203 3615,2211 3606,2209 L3597,2208 3597,2208 L3596,2217 C3596,2227 3604,2214 3603,2223 C3603,2232 3594,2220 3595,2230 L3597,2240 3597,2240 L3607,2239 C3617,2239 3603,2247 3612,2246 C3622,2246 3610,2237 3620,2238 L3630,2240 3630,2240 L3629,2230 C3629,2220 3635,2232 3634,2224 C3634,2216 3630,2225 3630,2216 L3630,2208"/></g><clipPath id="c" clipRule="evenodd" fill="transparent"><use href="#t9079"/></clipPath></defs><svg viewBox="3593 2198 43 50" preserveAspectRatio="xMinYMin meet"><svg width="4380" height="2430"><g><image crossorigin="anonymous" x="0" y="0" href="https://nftpuzzle.license-token.com/assets/completepuzzle.svg" width="100%" height="100%" /><g class="links"><use href="#t9079"/></g></g></svg><svg x="3621" y="2233" height="9%" width="9%" viewBox="0 0 330 330"><g><a xlink:href="https://nftpuzzle.license-token.com/" class="links"><title>See the most innovative NFT based token software licensing project</title><path fill="#E4CF37" id="more" d="M165,0C74.019,0,0,74.019,0,165s74.019,165,165,165s165-74.019,165-165S255.981,0,165,0z M85,190 c-13.785,0-25-11.215-25-25s11.215-25,25-25s25,11.215,25,25S98.785,190,85,190z M165,190c-13.785,0-25-11.215-25-25 s11.215-25,25-25s25,11.215,25,25S178.785,190,165,190z M245,190c-13.785,0-25-11.215-25-25s11.215-25,25-25 c13.785,0,25,11.215,25,25S258.785,190,245,190z"></path></a></g></svg></svg></svg>