<svg version="1.1" xmlns="http://www.w3.org/2000/svg" xmlns:xlink="http://www.w3.org/1999/xlink" fill="transparent" x="0" y="0" width="350" height="350" preserveAspectRatio="xMinYMin slice"><style type="text/css">.links{fill:transparent;stroke: #E4CF37;}.links:hover{fill:#63D272; opacity:0.4;}</style><defs><g id="allt"><path id="t9082" d="M3729,2208 L3718,2209 C3708,2210 3723,2205 3711,2203 C3700,2202 3717,2208 3706,2208 L3696,2208 3696,2208 L3697,2218 C3699,2228 3690,2217 3689,2224 C3689,2232 3696,2221 3696,2230 L3696,2240 3696,2240 L3706,2241 C3717,2243 3705,2234 3713,2233 C3721,2233 3709,2240 3719,2240 L3729,2240 3729,2240 L3731,2230 C3733,2221 3721,2232 3722,2223 C3724,2215 3733,2228 3731,2218 L3729,2208"/></g><clipPath id="c" clipRule="evenodd" fill="transparent"><use href="#t9082"/></clipPath></defs><svg viewBox="3688 2201 46 43" preserveAspectRatio="xMinYMin meet"><svg width="4380" height="2430"><g><image crossorigin="anonymous" x="0" y="0" href="https://nftpuzzle.license-token.com/assets/completepuzzle.svg" width="100%" height="100%" /><g class="links"><use href="#t9082"/></g></g></svg><svg x="3719" y="2229" height="9%" width="9%" viewBox="0 0 330 330"><g><a xlink:href="https://nftpuzzle.license-token.com/" class="links"><title>See the most innovative NFT based token software licensing project</title><path fill="#E4CF37" id="more" d="M165,0C74.019,0,0,74.019,0,165s74.019,165,165,165s165-74.019,165-165S255.981,0,165,0z M85,190 c-13.785,0-25-11.215-25-25s11.215-25,25-25s25,11.215,25,25S98.785,190,85,190z M165,190c-13.785,0-25-11.215-25-25 s11.215-25,25-25s25,11.215,25,25S178.785,190,165,190z M245,190c-13.785,0-25-11.215-25-25s11.215-25,25-25 c13.785,0,25,11.215,25,25S258.785,190,245,190z"></path></a></g></svg></svg></svg>