<svg version="1.1" xmlns="http://www.w3.org/2000/svg" xmlns:xlink="http://www.w3.org/1999/xlink" fill="transparent" x="0" y="0" width="350" height="350" preserveAspectRatio="xMinYMin slice"><style type="text/css">.links{fill:transparent;stroke: #E4CF37;}.links:hover{fill:#63D272; opacity:0.4;}</style><defs><g id="allt"><path id="t9084" d="M3795,2208 L3783,2208 C3772,2208 3789,2204 3779,2204 C3769,2205 3782,2209 3772,2208 L3762,2208 3762,2208 L3761,2218 C3761,2228 3768,2216 3767,2225 C3766,2234 3760,2222 3761,2231 L3762,2240 3762,2240 L3772,2239 C3783,2239 3770,2246 3779,2245 C3789,2244 3776,2238 3785,2239 L3795,2240 3795,2240 L3795,2231 C3795,2222 3790,2233 3791,2224 C3792,2216 3796,2226 3795,2217 L3795,2208"/></g><clipPath id="c" clipRule="evenodd" fill="transparent"><use href="#t9084"/></clipPath></defs><svg viewBox="3759 2203 38 44" preserveAspectRatio="xMinYMin meet"><svg width="4380" height="2430"><g><image crossorigin="anonymous" x="0" y="0" href="https://nftpuzzle.license-token.com/assets/completepuzzle.svg" width="100%" height="100%" /><g class="links"><use href="#t9084"/></g></g></svg><svg x="3782" y="2232" height="9%" width="9%" viewBox="0 0 330 330"><g><a xlink:href="https://nftpuzzle.license-token.com/" class="links"><title>See the most innovative NFT based token software licensing project</title><path fill="#E4CF37" id="more" d="M165,0C74.019,0,0,74.019,0,165s74.019,165,165,165s165-74.019,165-165S255.981,0,165,0z M85,190 c-13.785,0-25-11.215-25-25s11.215-25,25-25s25,11.215,25,25S98.785,190,85,190z M165,190c-13.785,0-25-11.215-25-25 s11.215-25,25-25s25,11.215,25,25S178.785,190,165,190z M245,190c-13.785,0-25-11.215-25-25s11.215-25,25-25 c13.785,0,25,11.215,25,25S258.785,190,245,190z"></path></a></g></svg></svg></svg>