<svg version="1.1" xmlns="http://www.w3.org/2000/svg" xmlns:xlink="http://www.w3.org/1999/xlink" fill="transparent" x="0" y="0" width="350" height="350" preserveAspectRatio="xMinYMin slice"><style type="text/css">.links{fill:transparent;stroke: #E4CF37;}.links:hover{fill:#63D272; opacity:0.4;}</style><defs><g id="allt"><path id="t9089" d="M3960,2208 L3950,2207 C3940,2207 3953,2211 3943,2211 C3933,2212 3947,2207 3937,2207 L3927,2208 3927,2208 L3927,2218 C3927,2228 3935,2216 3933,2224 C3932,2232 3926,2220 3926,2230 L3927,2240 3927,2240 L3937,2240 C3947,2240 3935,2248 3943,2246 C3951,2245 3939,2239 3949,2239 L3960,2240 3960,2240 L3960,2229 C3960,2219 3954,2231 3954,2223 C3954,2216 3960,2226 3960,2217 L3960,2208"/></g><clipPath id="c" clipRule="evenodd" fill="transparent"><use href="#t9089"/></clipPath></defs><svg viewBox="3925 2206 36 43" preserveAspectRatio="xMinYMin meet"><svg width="4380" height="2430"><g><image crossorigin="anonymous" x="0" y="0" href="https://nftpuzzle.license-token.com/assets/completepuzzle.svg" width="100%" height="100%" /><g class="links"><use href="#t9089"/></g></g></svg><svg x="3946" y="2234" height="9%" width="9%" viewBox="0 0 330 330"><g><a xlink:href="https://nftpuzzle.license-token.com/" class="links"><title>See the most innovative NFT based token software licensing project</title><path fill="#E4CF37" id="more" d="M165,0C74.019,0,0,74.019,0,165s74.019,165,165,165s165-74.019,165-165S255.981,0,165,0z M85,190 c-13.785,0-25-11.215-25-25s11.215-25,25-25s25,11.215,25,25S98.785,190,85,190z M165,190c-13.785,0-25-11.215-25-25 s11.215-25,25-25s25,11.215,25,25S178.785,190,165,190z M245,190c-13.785,0-25-11.215-25-25s11.215-25,25-25 c13.785,0,25,11.215,25,25S258.785,190,245,190z"></path></a></g></svg></svg></svg>