<svg version="1.1" xmlns="http://www.w3.org/2000/svg" xmlns:xlink="http://www.w3.org/1999/xlink" fill="transparent" x="0" y="0" width="350" height="350" preserveAspectRatio="xMinYMin slice"><style type="text/css">.links{fill:transparent;stroke: #E4CF37;}.links:hover{fill:#63D272; opacity:0.4;}</style><defs><g id="allt"><path id="t9093" d="M4092,2208 L4080,2208 C4069,2209 4086,2203 4075,2199 C4065,2196 4079,2213 4069,2210 L4059,2208 4059,2208 L4057,2217 C4056,2226 4067,2213 4067,2222 C4068,2232 4057,2221 4058,2230 L4059,2240 4059,2240 L4068,2238 C4078,2237 4064,2248 4074,2248 C4084,2248 4072,2238 4082,2239 L4092,2240 4092,2240 L4092,2229 C4092,2218 4099,2234 4098,2224 C4097,2215 4091,2227 4091,2217 L4092,2208"/></g><clipPath id="c" clipRule="evenodd" fill="transparent"><use href="#t9093"/></clipPath></defs><svg viewBox="4055 2195 45 54" preserveAspectRatio="xMinYMin meet"><svg width="4380" height="2430"><g><image crossorigin="anonymous" x="0" y="0" href="https://nftpuzzle.license-token.com/assets/completepuzzle.svg" width="100%" height="100%" /><g class="links"><use href="#t9093"/></g></g></svg><svg x="4085" y="2234" height="9%" width="9%" viewBox="0 0 330 330"><g><a xlink:href="https://nftpuzzle.license-token.com/" class="links"><title>See the most innovative NFT based token software licensing project</title><path fill="#E4CF37" id="more" d="M165,0C74.019,0,0,74.019,0,165s74.019,165,165,165s165-74.019,165-165S255.981,0,165,0z M85,190 c-13.785,0-25-11.215-25-25s11.215-25,25-25s25,11.215,25,25S98.785,190,85,190z M165,190c-13.785,0-25-11.215-25-25 s11.215-25,25-25s25,11.215,25,25S178.785,190,165,190z M245,190c-13.785,0-25-11.215-25-25s11.215-25,25-25 c13.785,0,25,11.215,25,25S258.785,190,245,190z"></path></a></g></svg></svg></svg>