<svg version="1.1" xmlns="http://www.w3.org/2000/svg" xmlns:xlink="http://www.w3.org/1999/xlink" fill="transparent" x="0" y="0" width="350" height="350" preserveAspectRatio="xMinYMin slice"><style type="text/css">.links{fill:transparent;stroke: #E4CF37;}.links:hover{fill:#63D272; opacity:0.4;}</style><defs><g id="allt"><path id="t9094" d="M4125,2208 L4113,2208 C4102,2208 4119,2200 4108,2202 C4098,2205 4112,2210 4102,2209 L4092,2208 4092,2208 L4091,2217 C4091,2227 4097,2215 4098,2224 C4099,2234 4092,2218 4092,2229 L4092,2240 4092,2240 L4101,2239 C4111,2239 4099,2245 4109,2246 C4119,2247 4102,2240 4113,2240 L4125,2240 4125,2240 L4125,2231 C4125,2222 4121,2231 4118,2222 C4116,2213 4125,2227 4125,2217 L4125,2208"/></g><clipPath id="c" clipRule="evenodd" fill="transparent"><use href="#t9094"/></clipPath></defs><svg viewBox="4090 2199 36 49" preserveAspectRatio="xMinYMin meet"><svg width="4380" height="2430"><g><image crossorigin="anonymous" x="0" y="0" href="https://nftpuzzle.license-token.com/assets/completepuzzle.svg" width="100%" height="100%" /><g class="links"><use href="#t9094"/></g></g></svg><svg x="4111" y="2233" height="9%" width="9%" viewBox="0 0 330 330"><g><a xlink:href="https://nftpuzzle.license-token.com/" class="links"><title>See the most innovative NFT based token software licensing project</title><path fill="#E4CF37" id="more" d="M165,0C74.019,0,0,74.019,0,165s74.019,165,165,165s165-74.019,165-165S255.981,0,165,0z M85,190 c-13.785,0-25-11.215-25-25s11.215-25,25-25s25,11.215,25,25S98.785,190,85,190z M165,190c-13.785,0-25-11.215-25-25 s11.215-25,25-25s25,11.215,25,25S178.785,190,165,190z M245,190c-13.785,0-25-11.215-25-25s11.215-25,25-25 c13.785,0,25,11.215,25,25S258.785,190,245,190z"></path></a></g></svg></svg></svg>