<svg version="1.1" xmlns="http://www.w3.org/2000/svg" xmlns:xlink="http://www.w3.org/1999/xlink" fill="transparent" x="0" y="0" width="350" height="350" preserveAspectRatio="xMinYMin slice"><style type="text/css">.links{fill:transparent;stroke: #E4CF37;}.links:hover{fill:#63D272; opacity:0.4;}</style><defs><g id="allt"><path id="t9095" d="M4158,2208 L4148,2208 C4138,2208 4151,2198 4140,2198 C4130,2199 4145,2212 4135,2210 L4125,2208 4125,2208 L4125,2217 C4125,2227 4116,2213 4118,2222 C4121,2231 4125,2222 4125,2231 L4125,2240 4125,2240 L4135,2240 C4145,2240 4130,2232 4139,2234 C4149,2236 4139,2240 4148,2240 L4158,2240 4158,2240 L4158,2229 C4158,2219 4153,2235 4154,2225 C4156,2216 4159,2226 4158,2217 L4158,2208"/></g><clipPath id="c" clipRule="evenodd" fill="transparent"><use href="#t9095"/></clipPath></defs><svg viewBox="4115 2197 45 44" preserveAspectRatio="xMinYMin meet"><svg width="4380" height="2430"><g><image crossorigin="anonymous" x="0" y="0" href="https://nftpuzzle.license-token.com/assets/completepuzzle.svg" width="100%" height="100%" /><g class="links"><use href="#t9095"/></g></g></svg><svg x="4145" y="2226" height="9%" width="9%" viewBox="0 0 330 330"><g><a xlink:href="https://nftpuzzle.license-token.com/" class="links"><title>See the most innovative NFT based token software licensing project</title><path fill="#E4CF37" id="more" d="M165,0C74.019,0,0,74.019,0,165s74.019,165,165,165s165-74.019,165-165S255.981,0,165,0z M85,190 c-13.785,0-25-11.215-25-25s11.215-25,25-25s25,11.215,25,25S98.785,190,85,190z M165,190c-13.785,0-25-11.215-25-25 s11.215-25,25-25s25,11.215,25,25S178.785,190,165,190z M245,190c-13.785,0-25-11.215-25-25s11.215-25,25-25 c13.785,0,25,11.215,25,25S258.785,190,245,190z"></path></a></g></svg></svg></svg>