<svg version="1.1" xmlns="http://www.w3.org/2000/svg" xmlns:xlink="http://www.w3.org/1999/xlink" fill="transparent" x="0" y="0" width="350" height="350" preserveAspectRatio="xMinYMin slice"><style type="text/css">.links{fill:transparent;stroke: #E4CF37;}.links:hover{fill:#63D272; opacity:0.4;}</style><defs><g id="allt"><path id="t9096" d="M4191,2208 L4180,2208 C4170,2208 4181,2205 4171,2205 C4162,2205 4176,2208 4167,2208 L4158,2208 4158,2208 L4158,2217 C4159,2226 4156,2216 4154,2225 C4153,2235 4158,2219 4158,2229 L4158,2240 4158,2240 L4167,2240 C4176,2241 4166,2238 4176,2236 C4186,2235 4169,2240 4180,2240 L4191,2240 4191,2240 L4192,2230 C4193,2220 4182,2232 4181,2224 C4180,2216 4195,2227 4193,2217 L4191,2208"/></g><clipPath id="c" clipRule="evenodd" fill="transparent"><use href="#t9096"/></clipPath></defs><svg viewBox="4152 2204 44 38" preserveAspectRatio="xMinYMin meet"><svg width="4380" height="2430"><g><image crossorigin="anonymous" x="0" y="0" href="https://nftpuzzle.license-token.com/assets/completepuzzle.svg" width="100%" height="100%" /><g class="links"><use href="#t9096"/></g></g></svg><svg x="4181" y="2227" height="9%" width="9%" viewBox="0 0 330 330"><g><a xlink:href="https://nftpuzzle.license-token.com/" class="links"><title>See the most innovative NFT based token software licensing project</title><path fill="#E4CF37" id="more" d="M165,0C74.019,0,0,74.019,0,165s74.019,165,165,165s165-74.019,165-165S255.981,0,165,0z M85,190 c-13.785,0-25-11.215-25-25s11.215-25,25-25s25,11.215,25,25S98.785,190,85,190z M165,190c-13.785,0-25-11.215-25-25 s11.215-25,25-25s25,11.215,25,25S178.785,190,165,190z M245,190c-13.785,0-25-11.215-25-25s11.215-25,25-25 c13.785,0,25,11.215,25,25S258.785,190,245,190z"></path></a></g></svg></svg></svg>