<svg version="1.1" xmlns="http://www.w3.org/2000/svg" xmlns:xlink="http://www.w3.org/1999/xlink" fill="transparent" x="0" y="0" width="350" height="350" preserveAspectRatio="xMinYMin slice"><style type="text/css">.links{fill:transparent;stroke: #E4CF37;}.links:hover{fill:#63D272; opacity:0.4;}</style><defs><g id="allt"><path id="t9105" d="M198,2240 L187,2240 C176,2240 188,2245 181,2244 C174,2243 183,2240 174,2240 L165,2240 165,2240 L165,2250 C165,2260 156,2245 156,2253 C157,2262 167,2250 166,2261 L165,2272 165,2272 L175,2272 C186,2272 170,2263 179,2263 C188,2264 175,2274 186,2273 L198,2272 198,2272 L198,2262 C198,2252 196,2262 196,2255 C196,2248 199,2261 198,2250 L198,2240"/></g><clipPath id="c" clipRule="evenodd" fill="transparent"><use href="#t9105"/></clipPath></defs><svg viewBox="155 2239 45 36" preserveAspectRatio="xMinYMin meet"><svg width="4380" height="2430"><g><image crossorigin="anonymous" x="0" y="0" href="https://nftpuzzle.license-token.com/assets/completepuzzle.svg" width="100%" height="100%" /><g class="links"><use href="#t9105"/></g></g></svg><svg x="185" y="2260" height="9%" width="9%" viewBox="0 0 330 330"><g><a xlink:href="https://nftpuzzle.license-token.com/" class="links"><title>See the most innovative NFT based token software licensing project</title><path fill="#E4CF37" id="more" d="M165,0C74.019,0,0,74.019,0,165s74.019,165,165,165s165-74.019,165-165S255.981,0,165,0z M85,190 c-13.785,0-25-11.215-25-25s11.215-25,25-25s25,11.215,25,25S98.785,190,85,190z M165,190c-13.785,0-25-11.215-25-25 s11.215-25,25-25s25,11.215,25,25S178.785,190,165,190z M245,190c-13.785,0-25-11.215-25-25s11.215-25,25-25 c13.785,0,25,11.215,25,25S258.785,190,245,190z"></path></a></g></svg></svg></svg>