<svg version="1.1" xmlns="http://www.w3.org/2000/svg" xmlns:xlink="http://www.w3.org/1999/xlink" fill="transparent" x="0" y="0" width="350" height="350" preserveAspectRatio="xMinYMin slice"><style type="text/css">.links{fill:transparent;stroke: #E4CF37;}.links:hover{fill:#63D272; opacity:0.4;}</style><defs><g id="allt"><path id="t9106" d="M231,2240 L221,2240 C211,2241 222,2234 214,2234 C207,2235 219,2240 208,2240 L198,2240 198,2240 L198,2250 C199,2261 196,2248 196,2255 C196,2262 198,2252 198,2262 L198,2272 198,2272 L209,2272 C220,2273 207,2270 214,2270 C221,2270 211,2272 221,2272 L231,2272 231,2272 L230,2263 C230,2254 236,2265 237,2256 C238,2248 228,2258 229,2249 L231,2240"/></g><clipPath id="c" clipRule="evenodd" fill="transparent"><use href="#t9106"/></clipPath></defs><svg viewBox="195 2233 44 41" preserveAspectRatio="xMinYMin meet"><svg width="4380" height="2430"><g><image crossorigin="anonymous" x="0" y="0" href="https://nftpuzzle.license-token.com/assets/completepuzzle.svg" width="100%" height="100%" /><g class="links"><use href="#t9106"/></g></g></svg><svg x="224" y="2259" height="9%" width="9%" viewBox="0 0 330 330"><g><a xlink:href="https://nftpuzzle.license-token.com/" class="links"><title>See the most innovative NFT based token software licensing project</title><path fill="#E4CF37" id="more" d="M165,0C74.019,0,0,74.019,0,165s74.019,165,165,165s165-74.019,165-165S255.981,0,165,0z M85,190 c-13.785,0-25-11.215-25-25s11.215-25,25-25s25,11.215,25,25S98.785,190,85,190z M165,190c-13.785,0-25-11.215-25-25 s11.215-25,25-25s25,11.215,25,25S178.785,190,165,190z M245,190c-13.785,0-25-11.215-25-25s11.215-25,25-25 c13.785,0,25,11.215,25,25S258.785,190,245,190z"></path></a></g></svg></svg></svg>