<svg version="1.1" xmlns="http://www.w3.org/2000/svg" xmlns:xlink="http://www.w3.org/1999/xlink" fill="transparent" x="0" y="0" width="350" height="350" preserveAspectRatio="xMinYMin slice"><style type="text/css">.links{fill:transparent;stroke: #E4CF37;}.links:hover{fill:#63D272; opacity:0.4;}</style><defs><g id="allt"><path id="t9111" d="M396,2240 L386,2240 C376,2240 388,2235 378,2233 C368,2231 382,2240 372,2240 L363,2240 363,2240 L363,2250 C363,2261 354,2247 354,2256 C354,2265 363,2252 363,2262 L363,2272 363,2272 L373,2272 C384,2272 370,2264 379,2263 C389,2263 375,2272 385,2272 L396,2272 396,2272 L398,2262 C401,2252 385,2266 386,2257 C387,2248 396,2261 396,2250 L396,2240"/></g><clipPath id="c" clipRule="evenodd" fill="transparent"><use href="#t9111"/></clipPath></defs><svg viewBox="353 2230 49 43" preserveAspectRatio="xMinYMin meet"><svg width="4380" height="2430"><g><image crossorigin="anonymous" x="0" y="0" href="https://nftpuzzle.license-token.com/assets/completepuzzle.svg" width="100%" height="100%" /><g class="links"><use href="#t9111"/></g></g></svg><svg x="387" y="2258" height="9%" width="9%" viewBox="0 0 330 330"><g><a xlink:href="https://nftpuzzle.license-token.com/" class="links"><title>See the most innovative NFT based token software licensing project</title><path fill="#E4CF37" id="more" d="M165,0C74.019,0,0,74.019,0,165s74.019,165,165,165s165-74.019,165-165S255.981,0,165,0z M85,190 c-13.785,0-25-11.215-25-25s11.215-25,25-25s25,11.215,25,25S98.785,190,85,190z M165,190c-13.785,0-25-11.215-25-25 s11.215-25,25-25s25,11.215,25,25S178.785,190,165,190z M245,190c-13.785,0-25-11.215-25-25s11.215-25,25-25 c13.785,0,25,11.215,25,25S258.785,190,245,190z"></path></a></g></svg></svg></svg>