<svg version="1.1" xmlns="http://www.w3.org/2000/svg" xmlns:xlink="http://www.w3.org/1999/xlink" fill="transparent" x="0" y="0" width="350" height="350" preserveAspectRatio="xMinYMin slice"><style type="text/css">.links{fill:transparent;stroke: #E4CF37;}.links:hover{fill:#63D272; opacity:0.4;}</style><defs><g id="allt"><path id="t9112" d="M429,2240 L419,2239 C409,2239 421,2230 410,2230 C400,2231 417,2241 406,2240 L396,2240 396,2240 L396,2250 C396,2261 387,2248 386,2257 C385,2266 401,2252 398,2262 L396,2272 396,2272 L406,2272 C417,2272 405,2264 414,2262 C423,2261 408,2277 418,2274 L429,2272 429,2272 L429,2261 C429,2250 436,2263 436,2254 C436,2245 430,2259 429,2249 L429,2240"/></g><clipPath id="c" clipRule="evenodd" fill="transparent"><use href="#t9112"/></clipPath></defs><svg viewBox="384 2229 53 49" preserveAspectRatio="xMinYMin meet"><svg width="4380" height="2430"><g><image crossorigin="anonymous" x="0" y="0" href="https://nftpuzzle.license-token.com/assets/completepuzzle.svg" width="100%" height="100%" /><g class="links"><use href="#t9112"/></g></g></svg><svg x="422" y="2263" height="9%" width="9%" viewBox="0 0 330 330"><g><a xlink:href="https://nftpuzzle.license-token.com/" class="links"><title>See the most innovative NFT based token software licensing project</title><path fill="#E4CF37" id="more" d="M165,0C74.019,0,0,74.019,0,165s74.019,165,165,165s165-74.019,165-165S255.981,0,165,0z M85,190 c-13.785,0-25-11.215-25-25s11.215-25,25-25s25,11.215,25,25S98.785,190,85,190z M165,190c-13.785,0-25-11.215-25-25 s11.215-25,25-25s25,11.215,25,25S178.785,190,165,190z M245,190c-13.785,0-25-11.215-25-25s11.215-25,25-25 c13.785,0,25,11.215,25,25S258.785,190,245,190z"></path></a></g></svg></svg></svg>