<svg version="1.1" xmlns="http://www.w3.org/2000/svg" xmlns:xlink="http://www.w3.org/1999/xlink" fill="transparent" x="0" y="0" width="350" height="350" preserveAspectRatio="xMinYMin slice"><style type="text/css">.links{fill:transparent;stroke: #E4CF37;}.links:hover{fill:#63D272; opacity:0.4;}</style><defs><g id="allt"><path id="t9113" d="M462,2240 L452,2240 C443,2240 455,2235 444,2236 C434,2237 447,2240 438,2240 L429,2240 429,2240 L429,2249 C430,2259 436,2245 436,2254 C436,2263 429,2250 429,2261 L429,2272 429,2272 L439,2272 C449,2273 434,2279 443,2279 C452,2279 439,2272 450,2272 L462,2272 462,2272 L461,2262 C461,2252 473,2264 470,2255 C467,2246 457,2257 459,2248 L462,2240"/></g><clipPath id="c" clipRule="evenodd" fill="transparent"><use href="#t9113"/></clipPath></defs><svg viewBox="428 2234 46 46" preserveAspectRatio="xMinYMin meet"><svg width="4380" height="2430"><g><image crossorigin="anonymous" x="0" y="0" href="https://nftpuzzle.license-token.com/assets/completepuzzle.svg" width="100%" height="100%" /><g class="links"><use href="#t9113"/></g></g></svg><svg x="459" y="2265" height="9%" width="9%" viewBox="0 0 330 330"><g><a xlink:href="https://nftpuzzle.license-token.com/" class="links"><title>See the most innovative NFT based token software licensing project</title><path fill="#E4CF37" id="more" d="M165,0C74.019,0,0,74.019,0,165s74.019,165,165,165s165-74.019,165-165S255.981,0,165,0z M85,190 c-13.785,0-25-11.215-25-25s11.215-25,25-25s25,11.215,25,25S98.785,190,85,190z M165,190c-13.785,0-25-11.215-25-25 s11.215-25,25-25s25,11.215,25,25S178.785,190,165,190z M245,190c-13.785,0-25-11.215-25-25s11.215-25,25-25 c13.785,0,25,11.215,25,25S258.785,190,245,190z"></path></a></g></svg></svg></svg>