<svg version="1.1" xmlns="http://www.w3.org/2000/svg" xmlns:xlink="http://www.w3.org/1999/xlink" fill="transparent" x="0" y="0" width="350" height="350" preserveAspectRatio="xMinYMin slice"><style type="text/css">.links{fill:transparent;stroke: #E4CF37;}.links:hover{fill:#63D272; opacity:0.4;}</style><defs><g id="allt"><path id="t9114" d="M495,2240 L485,2239 C475,2238 485,2245 478,2244 C471,2243 481,2239 471,2239 L462,2240 462,2240 L459,2248 C457,2257 467,2246 470,2255 C473,2264 461,2252 461,2262 L462,2272 462,2272 L471,2269 C480,2267 468,2277 477,2279 C487,2282 474,2271 484,2271 L495,2272 495,2272 L495,2263 C495,2254 488,2266 488,2256 C489,2246 498,2258 496,2249 L495,2240"/></g><clipPath id="c" clipRule="evenodd" fill="transparent"><use href="#t9114"/></clipPath></defs><svg viewBox="456 2237 43 46" preserveAspectRatio="xMinYMin meet"><svg width="4380" height="2430"><g><image crossorigin="anonymous" x="0" y="0" href="https://nftpuzzle.license-token.com/assets/completepuzzle.svg" width="100%" height="100%" /><g class="links"><use href="#t9114"/></g></g></svg><svg x="484" y="2268" height="9%" width="9%" viewBox="0 0 330 330"><g><a xlink:href="https://nftpuzzle.license-token.com/" class="links"><title>See the most innovative NFT based token software licensing project</title><path fill="#E4CF37" id="more" d="M165,0C74.019,0,0,74.019,0,165s74.019,165,165,165s165-74.019,165-165S255.981,0,165,0z M85,190 c-13.785,0-25-11.215-25-25s11.215-25,25-25s25,11.215,25,25S98.785,190,85,190z M165,190c-13.785,0-25-11.215-25-25 s11.215-25,25-25s25,11.215,25,25S178.785,190,165,190z M245,190c-13.785,0-25-11.215-25-25s11.215-25,25-25 c13.785,0,25,11.215,25,25S258.785,190,245,190z"></path></a></g></svg></svg></svg>