<svg version="1.1" xmlns="http://www.w3.org/2000/svg" xmlns:xlink="http://www.w3.org/1999/xlink" fill="transparent" x="0" y="0" width="350" height="350" preserveAspectRatio="xMinYMin slice"><style type="text/css">.links{fill:transparent;stroke: #E4CF37;}.links:hover{fill:#63D272; opacity:0.4;}</style><defs><g id="allt"><path id="t9120" d="M693,2240 L683,2241 C673,2242 684,2236 676,2235 C668,2234 681,2240 670,2240 L660,2240 660,2240 L659,2249 C659,2259 672,2245 669,2253 C666,2262 659,2251 659,2261 L660,2272 660,2272 L670,2271 C680,2271 665,2284 674,2281 C683,2278 671,2271 682,2271 L693,2272 693,2272 L693,2262 C693,2252 688,2264 688,2255 C689,2246 694,2257 693,2248 L693,2240"/></g><clipPath id="c" clipRule="evenodd" fill="transparent"><use href="#t9120"/></clipPath></defs><svg viewBox="658 2233 37 52" preserveAspectRatio="xMinYMin meet"><svg width="4380" height="2430"><g><image crossorigin="anonymous" x="0" y="0" href="https://nftpuzzle.license-token.com/assets/completepuzzle.svg" width="100%" height="100%" /><g class="links"><use href="#t9120"/></g></g></svg><svg x="680" y="2270" height="9%" width="9%" viewBox="0 0 330 330"><g><a xlink:href="https://nftpuzzle.license-token.com/" class="links"><title>See the most innovative NFT based token software licensing project</title><path fill="#E4CF37" id="more" d="M165,0C74.019,0,0,74.019,0,165s74.019,165,165,165s165-74.019,165-165S255.981,0,165,0z M85,190 c-13.785,0-25-11.215-25-25s11.215-25,25-25s25,11.215,25,25S98.785,190,85,190z M165,190c-13.785,0-25-11.215-25-25 s11.215-25,25-25s25,11.215,25,25S178.785,190,165,190z M245,190c-13.785,0-25-11.215-25-25s11.215-25,25-25 c13.785,0,25,11.215,25,25S258.785,190,245,190z"></path></a></g></svg></svg></svg>