<svg version="1.1" xmlns="http://www.w3.org/2000/svg" xmlns:xlink="http://www.w3.org/1999/xlink" fill="transparent" x="0" y="0" width="350" height="350" preserveAspectRatio="xMinYMin slice"><style type="text/css">.links{fill:transparent;stroke: #E4CF37;}.links:hover{fill:#63D272; opacity:0.4;}</style><defs><g id="allt"><path id="t9122" d="M759,2240 L748,2240 C738,2240 750,2236 740,2234 C731,2233 745,2241 735,2240 L726,2240 726,2240 L727,2248 C728,2257 722,2245 720,2254 C719,2264 726,2253 726,2262 L726,2272 726,2272 L735,2273 C744,2274 731,2268 741,2266 C751,2265 739,2272 749,2272 L759,2272 759,2272 L759,2262 C760,2253 756,2263 756,2255 C756,2247 761,2259 760,2249 L759,2240"/></g><clipPath id="c" clipRule="evenodd" fill="transparent"><use href="#t9122"/></clipPath></defs><svg viewBox="718 2232 44 43" preserveAspectRatio="xMinYMin meet"><svg width="4380" height="2430"><g><image crossorigin="anonymous" x="0" y="0" href="https://nftpuzzle.license-token.com/assets/completepuzzle.svg" width="100%" height="100%" /><g class="links"><use href="#t9122"/></g></g></svg><svg x="747" y="2260" height="9%" width="9%" viewBox="0 0 330 330"><g><a xlink:href="https://nftpuzzle.license-token.com/" class="links"><title>See the most innovative NFT based token software licensing project</title><path fill="#E4CF37" id="more" d="M165,0C74.019,0,0,74.019,0,165s74.019,165,165,165s165-74.019,165-165S255.981,0,165,0z M85,190 c-13.785,0-25-11.215-25-25s11.215-25,25-25s25,11.215,25,25S98.785,190,85,190z M165,190c-13.785,0-25-11.215-25-25 s11.215-25,25-25s25,11.215,25,25S178.785,190,165,190z M245,190c-13.785,0-25-11.215-25-25s11.215-25,25-25 c13.785,0,25,11.215,25,25S258.785,190,245,190z"></path></a></g></svg></svg></svg>