<svg version="1.1" xmlns="http://www.w3.org/2000/svg" xmlns:xlink="http://www.w3.org/1999/xlink" fill="transparent" x="0" y="0" width="350" height="350" preserveAspectRatio="xMinYMin slice"><style type="text/css">.links{fill:transparent;stroke: #E4CF37;}.links:hover{fill:#63D272; opacity:0.4;}</style><defs><g id="allt"><path id="t9125" d="M858,2240 L847,2240 C837,2240 848,2236 841,2236 C834,2236 844,2241 834,2240 L825,2240 825,2240 L826,2250 C827,2260 815,2246 816,2254 C817,2263 829,2253 827,2262 L825,2272 825,2272 L835,2273 C846,2274 831,2262 840,2263 C849,2264 838,2276 848,2274 L858,2272 858,2272 L858,2263 C859,2254 854,2265 854,2256 C854,2248 860,2257 859,2248 L858,2240"/></g><clipPath id="c" clipRule="evenodd" fill="transparent"><use href="#t9125"/></clipPath></defs><svg viewBox="814 2235 47 42" preserveAspectRatio="xMinYMin meet"><svg width="4380" height="2430"><g><image crossorigin="anonymous" x="0" y="0" href="https://nftpuzzle.license-token.com/assets/completepuzzle.svg" width="100%" height="100%" /><g class="links"><use href="#t9125"/></g></g></svg><svg x="846" y="2262" height="9%" width="9%" viewBox="0 0 330 330"><g><a xlink:href="https://nftpuzzle.license-token.com/" class="links"><title>See the most innovative NFT based token software licensing project</title><path fill="#E4CF37" id="more" d="M165,0C74.019,0,0,74.019,0,165s74.019,165,165,165s165-74.019,165-165S255.981,0,165,0z M85,190 c-13.785,0-25-11.215-25-25s11.215-25,25-25s25,11.215,25,25S98.785,190,85,190z M165,190c-13.785,0-25-11.215-25-25 s11.215-25,25-25s25,11.215,25,25S178.785,190,165,190z M245,190c-13.785,0-25-11.215-25-25s11.215-25,25-25 c13.785,0,25,11.215,25,25S258.785,190,245,190z"></path></a></g></svg></svg></svg>