<svg version="1.1" xmlns="http://www.w3.org/2000/svg" xmlns:xlink="http://www.w3.org/1999/xlink" fill="transparent" x="0" y="0" width="350" height="350" preserveAspectRatio="xMinYMin slice"><style type="text/css">.links{fill:transparent;stroke: #E4CF37;}.links:hover{fill:#63D272; opacity:0.4;}</style><defs><g id="allt"><path id="t9127" d="M924,2240 L912,2240 C901,2240 916,2237 906,2236 C897,2236 909,2240 900,2240 L891,2240 891,2240 L893,2248 C895,2257 882,2247 884,2255 C886,2264 891,2251 891,2261 L891,2272 891,2272 L900,2274 C909,2276 898,2263 907,2265 C916,2267 902,2272 913,2272 L924,2272 924,2272 L925,2262 C926,2252 918,2263 916,2255 C915,2248 926,2261 925,2250 L924,2240"/></g><clipPath id="c" clipRule="evenodd" fill="transparent"><use href="#t9127"/></clipPath></defs><svg viewBox="881 2235 46 42" preserveAspectRatio="xMinYMin meet"><svg width="4380" height="2430"><g><image crossorigin="anonymous" x="0" y="0" href="https://nftpuzzle.license-token.com/assets/completepuzzle.svg" width="100%" height="100%" /><g class="links"><use href="#t9127"/></g></g></svg><svg x="912" y="2262" height="9%" width="9%" viewBox="0 0 330 330"><g><a xlink:href="https://nftpuzzle.license-token.com/" class="links"><title>See the most innovative NFT based token software licensing project</title><path fill="#E4CF37" id="more" d="M165,0C74.019,0,0,74.019,0,165s74.019,165,165,165s165-74.019,165-165S255.981,0,165,0z M85,190 c-13.785,0-25-11.215-25-25s11.215-25,25-25s25,11.215,25,25S98.785,190,85,190z M165,190c-13.785,0-25-11.215-25-25 s11.215-25,25-25s25,11.215,25,25S178.785,190,165,190z M245,190c-13.785,0-25-11.215-25-25s11.215-25,25-25 c13.785,0,25,11.215,25,25S258.785,190,245,190z"></path></a></g></svg></svg></svg>