<svg version="1.1" xmlns="http://www.w3.org/2000/svg" xmlns:xlink="http://www.w3.org/1999/xlink" fill="transparent" x="0" y="0" width="350" height="350" preserveAspectRatio="xMinYMin slice"><style type="text/css">.links{fill:transparent;stroke: #E4CF37;}.links:hover{fill:#63D272; opacity:0.4;}</style><defs><g id="allt"><path id="t9132" d="M1089,2240 L1077,2239 C1066,2238 1081,2248 1072,2249 C1064,2250 1076,2239 1066,2239 L1056,2240 1056,2240 L1056,2249 C1056,2258 1052,2248 1053,2255 C1054,2262 1056,2254 1056,2263 L1056,2272 1056,2272 L1065,2272 C1075,2272 1064,2268 1071,2269 C1079,2270 1070,2272 1079,2272 L1089,2272 1089,2272 L1087,2262 C1086,2252 1095,2264 1098,2256 C1101,2249 1088,2258 1088,2249 L1089,2240"/></g><clipPath id="c" clipRule="evenodd" fill="transparent"><use href="#t9132"/></clipPath></defs><svg viewBox="1051 2237 51 36" preserveAspectRatio="xMinYMin meet"><svg width="4380" height="2430"><g><image crossorigin="anonymous" x="0" y="0" href="https://nftpuzzle.license-token.com/assets/completepuzzle.svg" width="100%" height="100%" /><g class="links"><use href="#t9132"/></g></g></svg><svg x="1087" y="2258" height="9%" width="9%" viewBox="0 0 330 330"><g><a xlink:href="https://nftpuzzle.license-token.com/" class="links"><title>See the most innovative NFT based token software licensing project</title><path fill="#E4CF37" id="more" d="M165,0C74.019,0,0,74.019,0,165s74.019,165,165,165s165-74.019,165-165S255.981,0,165,0z M85,190 c-13.785,0-25-11.215-25-25s11.215-25,25-25s25,11.215,25,25S98.785,190,85,190z M165,190c-13.785,0-25-11.215-25-25 s11.215-25,25-25s25,11.215,25,25S178.785,190,165,190z M245,190c-13.785,0-25-11.215-25-25s11.215-25,25-25 c13.785,0,25,11.215,25,25S258.785,190,245,190z"></path></a></g></svg></svg></svg>