<svg version="1.1" xmlns="http://www.w3.org/2000/svg" xmlns:xlink="http://www.w3.org/1999/xlink" fill="transparent" x="0" y="0" width="350" height="350" preserveAspectRatio="xMinYMin slice"><style type="text/css">.links{fill:transparent;stroke: #E4CF37;}.links:hover{fill:#63D272; opacity:0.4;}</style><defs><g id="allt"><path id="t9133" d="M1122,2240 L1111,2240 C1100,2240 1116,2231 1106,2233 C1097,2235 1109,2242 1099,2241 L1089,2240 1089,2240 L1088,2249 C1088,2258 1101,2249 1098,2256 C1095,2264 1086,2252 1087,2262 L1089,2272 1089,2272 L1098,2271 C1107,2271 1098,2283 1106,2280 C1114,2278 1102,2269 1112,2270 L1122,2272 1122,2272 L1122,2263 C1123,2254 1117,2264 1118,2254 C1119,2245 1124,2261 1123,2250 L1122,2240"/></g><clipPath id="c" clipRule="evenodd" fill="transparent"><use href="#t9133"/></clipPath></defs><svg viewBox="1085 2230 40 54" preserveAspectRatio="xMinYMin meet"><svg width="4380" height="2430"><g><image crossorigin="anonymous" x="0" y="0" href="https://nftpuzzle.license-token.com/assets/completepuzzle.svg" width="100%" height="100%" /><g class="links"><use href="#t9133"/></g></g></svg><svg x="1110" y="2269" height="9%" width="9%" viewBox="0 0 330 330"><g><a xlink:href="https://nftpuzzle.license-token.com/" class="links"><title>See the most innovative NFT based token software licensing project</title><path fill="#E4CF37" id="more" d="M165,0C74.019,0,0,74.019,0,165s74.019,165,165,165s165-74.019,165-165S255.981,0,165,0z M85,190 c-13.785,0-25-11.215-25-25s11.215-25,25-25s25,11.215,25,25S98.785,190,85,190z M165,190c-13.785,0-25-11.215-25-25 s11.215-25,25-25s25,11.215,25,25S178.785,190,165,190z M245,190c-13.785,0-25-11.215-25-25s11.215-25,25-25 c13.785,0,25,11.215,25,25S258.785,190,245,190z"></path></a></g></svg></svg></svg>