<svg version="1.1" xmlns="http://www.w3.org/2000/svg" xmlns:xlink="http://www.w3.org/1999/xlink" fill="transparent" x="0" y="0" width="350" height="350" preserveAspectRatio="xMinYMin slice"><style type="text/css">.links{fill:transparent;stroke: #E4CF37;}.links:hover{fill:#63D272; opacity:0.4;}</style><defs><g id="allt"><path id="t9134" d="M1155,2240 L1144,2240 C1133,2241 1149,2251 1138,2250 C1128,2250 1140,2236 1131,2238 L1122,2240 1122,2240 L1123,2250 C1124,2261 1119,2245 1118,2254 C1117,2264 1123,2254 1122,2263 L1122,2272 1122,2272 L1133,2273 C1144,2274 1127,2269 1137,2268 C1147,2267 1136,2273 1145,2272 L1155,2272 1155,2272 L1155,2262 C1155,2253 1158,2265 1157,2256 C1157,2248 1154,2257 1154,2248 L1155,2240"/></g><clipPath id="c" clipRule="evenodd" fill="transparent"><use href="#t9134"/></clipPath></defs><svg viewBox="1116 2235 43 40" preserveAspectRatio="xMinYMin meet"><svg width="4380" height="2430"><g><image crossorigin="anonymous" x="0" y="0" href="https://nftpuzzle.license-token.com/assets/completepuzzle.svg" width="100%" height="100%" /><g class="links"><use href="#t9134"/></g></g></svg><svg x="1144" y="2260" height="9%" width="9%" viewBox="0 0 330 330"><g><a xlink:href="https://nftpuzzle.license-token.com/" class="links"><title>See the most innovative NFT based token software licensing project</title><path fill="#E4CF37" id="more" d="M165,0C74.019,0,0,74.019,0,165s74.019,165,165,165s165-74.019,165-165S255.981,0,165,0z M85,190 c-13.785,0-25-11.215-25-25s11.215-25,25-25s25,11.215,25,25S98.785,190,85,190z M165,190c-13.785,0-25-11.215-25-25 s11.215-25,25-25s25,11.215,25,25S178.785,190,165,190z M245,190c-13.785,0-25-11.215-25-25s11.215-25,25-25 c13.785,0,25,11.215,25,25S258.785,190,245,190z"></path></a></g></svg></svg></svg>