<svg version="1.1" xmlns="http://www.w3.org/2000/svg" xmlns:xlink="http://www.w3.org/1999/xlink" fill="transparent" x="0" y="0" width="350" height="350" preserveAspectRatio="xMinYMin slice"><style type="text/css">.links{fill:transparent;stroke: #E4CF37;}.links:hover{fill:#63D272; opacity:0.4;}</style><defs><g id="allt"><path id="t9135" d="M1188,2240 L1177,2240 C1166,2240 1183,2232 1171,2233 C1159,2234 1176,2243 1165,2241 L1155,2240 1155,2240 L1154,2248 C1154,2257 1157,2248 1157,2256 C1158,2265 1155,2253 1155,2262 L1155,2272 1155,2272 L1164,2271 C1173,2271 1163,2274 1172,2274 C1181,2275 1168,2272 1178,2272 L1188,2272 1188,2272 L1188,2261 C1189,2251 1185,2266 1184,2255 C1184,2244 1190,2261 1189,2250 L1188,2240"/></g><clipPath id="c" clipRule="evenodd" fill="transparent"><use href="#t9135"/></clipPath></defs><svg viewBox="1153 2231 38 45" preserveAspectRatio="xMinYMin meet"><svg width="4380" height="2430"><g><image crossorigin="anonymous" x="0" y="0" href="https://nftpuzzle.license-token.com/assets/completepuzzle.svg" width="100%" height="100%" /><g class="links"><use href="#t9135"/></g></g></svg><svg x="1176" y="2261" height="9%" width="9%" viewBox="0 0 330 330"><g><a xlink:href="https://nftpuzzle.license-token.com/" class="links"><title>See the most innovative NFT based token software licensing project</title><path fill="#E4CF37" id="more" d="M165,0C74.019,0,0,74.019,0,165s74.019,165,165,165s165-74.019,165-165S255.981,0,165,0z M85,190 c-13.785,0-25-11.215-25-25s11.215-25,25-25s25,11.215,25,25S98.785,190,85,190z M165,190c-13.785,0-25-11.215-25-25 s11.215-25,25-25s25,11.215,25,25S178.785,190,165,190z M245,190c-13.785,0-25-11.215-25-25s11.215-25,25-25 c13.785,0,25,11.215,25,25S258.785,190,245,190z"></path></a></g></svg></svg></svg>