<svg version="1.1" xmlns="http://www.w3.org/2000/svg" xmlns:xlink="http://www.w3.org/1999/xlink" fill="transparent" x="0" y="0" width="350" height="350" preserveAspectRatio="xMinYMin slice"><style type="text/css">.links{fill:transparent;stroke: #E4CF37;}.links:hover{fill:#63D272; opacity:0.4;}</style><defs><g id="allt"><path id="t9139" d="M1320,2240 L1310,2241 C1301,2243 1314,2228 1303,2229 C1292,2231 1308,2240 1297,2240 L1287,2240 1287,2240 L1286,2249 C1285,2259 1291,2244 1290,2253 C1290,2263 1285,2252 1286,2262 L1287,2272 1287,2272 L1297,2271 C1307,2270 1291,2276 1300,2275 C1310,2275 1299,2270 1309,2271 L1320,2272 1320,2272 L1321,2261 C1322,2250 1312,2264 1313,2254 C1314,2245 1322,2260 1321,2250 L1320,2240"/></g><clipPath id="c" clipRule="evenodd" fill="transparent"><use href="#t9139"/></clipPath></defs><svg viewBox="1284 2227 39 50" preserveAspectRatio="xMinYMin meet"><svg width="4380" height="2430"><g><image crossorigin="anonymous" x="0" y="0" href="https://nftpuzzle.license-token.com/assets/completepuzzle.svg" width="100%" height="100%" /><g class="links"><use href="#t9139"/></g></g></svg><svg x="1308" y="2262" height="9%" width="9%" viewBox="0 0 330 330"><g><a xlink:href="https://nftpuzzle.license-token.com/" class="links"><title>See the most innovative NFT based token software licensing project</title><path fill="#E4CF37" id="more" d="M165,0C74.019,0,0,74.019,0,165s74.019,165,165,165s165-74.019,165-165S255.981,0,165,0z M85,190 c-13.785,0-25-11.215-25-25s11.215-25,25-25s25,11.215,25,25S98.785,190,85,190z M165,190c-13.785,0-25-11.215-25-25 s11.215-25,25-25s25,11.215,25,25S178.785,190,165,190z M245,190c-13.785,0-25-11.215-25-25s11.215-25,25-25 c13.785,0,25,11.215,25,25S258.785,190,245,190z"></path></a></g></svg></svg></svg>