<svg version="1.1" xmlns="http://www.w3.org/2000/svg" xmlns:xlink="http://www.w3.org/1999/xlink" fill="transparent" x="0" y="0" width="350" height="350" preserveAspectRatio="xMinYMin slice"><style type="text/css">.links{fill:transparent;stroke: #E4CF37;}.links:hover{fill:#63D272; opacity:0.4;}</style><defs><g id="allt"><path id="t9156" d="M1881,2240 L1870,2240 C1859,2241 1872,2237 1864,2236 C1857,2236 1868,2240 1858,2240 L1848,2240 1848,2240 L1848,2249 C1848,2258 1842,2247 1842,2254 C1843,2262 1853,2251 1850,2261 L1848,2272 1848,2272 L1857,2272 C1867,2272 1855,2266 1863,2266 C1871,2267 1859,2277 1870,2274 L1881,2272 1881,2272 L1881,2261 C1882,2250 1878,2266 1878,2257 C1878,2248 1881,2258 1881,2249 L1881,2240"/></g><clipPath id="c" clipRule="evenodd" fill="transparent"><use href="#t9156"/></clipPath></defs><svg viewBox="1841 2235 42 43" preserveAspectRatio="xMinYMin meet"><svg width="4380" height="2430"><g><image crossorigin="anonymous" x="0" y="0" href="https://nftpuzzle.license-token.com/assets/completepuzzle.svg" width="100%" height="100%" /><g class="links"><use href="#t9156"/></g></g></svg><svg x="1868" y="2263" height="9%" width="9%" viewBox="0 0 330 330"><g><a xlink:href="https://nftpuzzle.license-token.com/" class="links"><title>See the most innovative NFT based token software licensing project</title><path fill="#E4CF37" id="more" d="M165,0C74.019,0,0,74.019,0,165s74.019,165,165,165s165-74.019,165-165S255.981,0,165,0z M85,190 c-13.785,0-25-11.215-25-25s11.215-25,25-25s25,11.215,25,25S98.785,190,85,190z M165,190c-13.785,0-25-11.215-25-25 s11.215-25,25-25s25,11.215,25,25S178.785,190,165,190z M245,190c-13.785,0-25-11.215-25-25s11.215-25,25-25 c13.785,0,25,11.215,25,25S258.785,190,245,190z"></path></a></g></svg></svg></svg>