<svg version="1.1" xmlns="http://www.w3.org/2000/svg" xmlns:xlink="http://www.w3.org/1999/xlink" fill="transparent" x="0" y="0" width="350" height="350" preserveAspectRatio="xMinYMin slice"><style type="text/css">.links{fill:transparent;stroke: #E4CF37;}.links:hover{fill:#63D272; opacity:0.4;}</style><defs><g id="allt"><path id="t9157" d="M1914,2240 L1902,2239 C1891,2238 1907,2247 1896,2246 C1886,2246 1903,2239 1892,2239 L1881,2240 1881,2240 L1881,2249 C1881,2258 1878,2248 1878,2257 C1878,2266 1882,2250 1881,2261 L1881,2272 1881,2272 L1890,2272 C1900,2272 1889,2269 1898,2269 C1908,2269 1891,2273 1902,2272 L1914,2272 1914,2272 L1915,2262 C1916,2252 1909,2266 1908,2256 C1907,2247 1914,2260 1914,2250 L1914,2240"/></g><clipPath id="c" clipRule="evenodd" fill="transparent"><use href="#t9157"/></clipPath></defs><svg viewBox="1877 2237 40 37" preserveAspectRatio="xMinYMin meet"><svg width="4380" height="2430"><g><image crossorigin="anonymous" x="0" y="0" href="https://nftpuzzle.license-token.com/assets/completepuzzle.svg" width="100%" height="100%" /><g class="links"><use href="#t9157"/></g></g></svg><svg x="1902" y="2259" height="9%" width="9%" viewBox="0 0 330 330"><g><a xlink:href="https://nftpuzzle.license-token.com/" class="links"><title>See the most innovative NFT based token software licensing project</title><path fill="#E4CF37" id="more" d="M165,0C74.019,0,0,74.019,0,165s74.019,165,165,165s165-74.019,165-165S255.981,0,165,0z M85,190 c-13.785,0-25-11.215-25-25s11.215-25,25-25s25,11.215,25,25S98.785,190,85,190z M165,190c-13.785,0-25-11.215-25-25 s11.215-25,25-25s25,11.215,25,25S178.785,190,165,190z M245,190c-13.785,0-25-11.215-25-25s11.215-25,25-25 c13.785,0,25,11.215,25,25S258.785,190,245,190z"></path></a></g></svg></svg></svg>