<svg version="1.1" xmlns="http://www.w3.org/2000/svg" xmlns:xlink="http://www.w3.org/1999/xlink" fill="transparent" x="0" y="0" width="350" height="350" preserveAspectRatio="xMinYMin slice"><style type="text/css">.links{fill:transparent;stroke: #E4CF37;}.links:hover{fill:#63D272; opacity:0.4;}</style><defs><g id="allt"><path id="t9161" d="M2046,2240 L2036,2241 C2027,2242 2036,2236 2028,2235 C2020,2234 2031,2241 2022,2240 L2013,2240 2013,2240 L2013,2249 C2013,2258 2017,2247 2017,2255 C2017,2264 2011,2253 2012,2262 L2013,2272 2013,2272 L2022,2272 C2031,2272 2020,2276 2029,2276 C2038,2276 2026,2270 2036,2271 L2046,2272 2046,2272 L2046,2261 C2046,2251 2050,2265 2050,2256 C2051,2248 2045,2260 2045,2250 L2046,2240"/></g><clipPath id="c" clipRule="evenodd" fill="transparent"><use href="#t9161"/></clipPath></defs><svg viewBox="2010 2233 42 44" preserveAspectRatio="xMinYMin meet"><svg width="4380" height="2430"><g><image crossorigin="anonymous" x="0" y="0" href="https://nftpuzzle.license-token.com/assets/completepuzzle.svg" width="100%" height="100%" /><g class="links"><use href="#t9161"/></g></g></svg><svg x="2037" y="2262" height="9%" width="9%" viewBox="0 0 330 330"><g><a xlink:href="https://nftpuzzle.license-token.com/" class="links"><title>See the most innovative NFT based token software licensing project</title><path fill="#E4CF37" id="more" d="M165,0C74.019,0,0,74.019,0,165s74.019,165,165,165s165-74.019,165-165S255.981,0,165,0z M85,190 c-13.785,0-25-11.215-25-25s11.215-25,25-25s25,11.215,25,25S98.785,190,85,190z M165,190c-13.785,0-25-11.215-25-25 s11.215-25,25-25s25,11.215,25,25S178.785,190,165,190z M245,190c-13.785,0-25-11.215-25-25s11.215-25,25-25 c13.785,0,25,11.215,25,25S258.785,190,245,190z"></path></a></g></svg></svg></svg>