<svg version="1.1" xmlns="http://www.w3.org/2000/svg" xmlns:xlink="http://www.w3.org/1999/xlink" fill="transparent" x="0" y="0" width="350" height="350" preserveAspectRatio="xMinYMin slice"><style type="text/css">.links{fill:transparent;stroke: #E4CF37;}.links:hover{fill:#63D272; opacity:0.4;}</style><defs><g id="allt"><path id="t9162" d="M2079,2240 L2069,2240 C2059,2241 2072,2236 2063,2237 C2054,2238 2068,2241 2057,2240 L2046,2240 2046,2240 L2045,2250 C2045,2260 2051,2248 2050,2256 C2050,2265 2046,2251 2046,2261 L2046,2272 2046,2272 L2056,2271 C2067,2271 2054,2277 2063,2276 C2072,2276 2058,2272 2068,2272 L2079,2272 2079,2272 L2080,2262 C2082,2252 2069,2266 2069,2255 C2069,2245 2080,2259 2079,2249 L2079,2240"/></g><clipPath id="c" clipRule="evenodd" fill="transparent"><use href="#t9162"/></clipPath></defs><svg viewBox="2044 2235 39 43" preserveAspectRatio="xMinYMin meet"><svg width="4380" height="2430"><g><image crossorigin="anonymous" x="0" y="0" href="https://nftpuzzle.license-token.com/assets/completepuzzle.svg" width="100%" height="100%" /><g class="links"><use href="#t9162"/></g></g></svg><svg x="2068" y="2263" height="9%" width="9%" viewBox="0 0 330 330"><g><a xlink:href="https://nftpuzzle.license-token.com/" class="links"><title>See the most innovative NFT based token software licensing project</title><path fill="#E4CF37" id="more" d="M165,0C74.019,0,0,74.019,0,165s74.019,165,165,165s165-74.019,165-165S255.981,0,165,0z M85,190 c-13.785,0-25-11.215-25-25s11.215-25,25-25s25,11.215,25,25S98.785,190,85,190z M165,190c-13.785,0-25-11.215-25-25 s11.215-25,25-25s25,11.215,25,25S178.785,190,165,190z M245,190c-13.785,0-25-11.215-25-25s11.215-25,25-25 c13.785,0,25,11.215,25,25S258.785,190,245,190z"></path></a></g></svg></svg></svg>