<svg version="1.1" xmlns="http://www.w3.org/2000/svg" xmlns:xlink="http://www.w3.org/1999/xlink" fill="transparent" x="0" y="0" width="350" height="350" preserveAspectRatio="xMinYMin slice"><style type="text/css">.links{fill:transparent;stroke: #E4CF37;}.links:hover{fill:#63D272; opacity:0.4;}</style><defs><g id="allt"><path id="t9166" d="M2211,2240 L2201,2240 C2191,2241 2204,2234 2195,2233 C2187,2232 2199,2243 2188,2241 L2178,2240 2178,2240 L2178,2248 C2178,2257 2175,2247 2175,2256 C2175,2266 2179,2250 2178,2261 L2178,2272 2178,2272 L2187,2272 C2196,2272 2185,2269 2195,2269 C2205,2269 2189,2273 2200,2272 L2211,2272 2211,2272 L2210,2262 C2210,2252 2216,2266 2219,2256 C2222,2246 2211,2258 2211,2249 L2211,2240"/></g><clipPath id="c" clipRule="evenodd" fill="transparent"><use href="#t9166"/></clipPath></defs><svg viewBox="2174 2231 49 43" preserveAspectRatio="xMinYMin meet"><svg width="4380" height="2430"><g><image crossorigin="anonymous" x="0" y="0" href="https://nftpuzzle.license-token.com/assets/completepuzzle.svg" width="100%" height="100%" /><g class="links"><use href="#t9166"/></g></g></svg><svg x="2208" y="2259" height="9%" width="9%" viewBox="0 0 330 330"><g><a xlink:href="https://nftpuzzle.license-token.com/" class="links"><title>See the most innovative NFT based token software licensing project</title><path fill="#E4CF37" id="more" d="M165,0C74.019,0,0,74.019,0,165s74.019,165,165,165s165-74.019,165-165S255.981,0,165,0z M85,190 c-13.785,0-25-11.215-25-25s11.215-25,25-25s25,11.215,25,25S98.785,190,85,190z M165,190c-13.785,0-25-11.215-25-25 s11.215-25,25-25s25,11.215,25,25S178.785,190,165,190z M245,190c-13.785,0-25-11.215-25-25s11.215-25,25-25 c13.785,0,25,11.215,25,25S258.785,190,245,190z"></path></a></g></svg></svg></svg>