<svg version="1.1" xmlns="http://www.w3.org/2000/svg" xmlns:xlink="http://www.w3.org/1999/xlink" fill="transparent" x="0" y="0" width="350" height="350" preserveAspectRatio="xMinYMin slice"><style type="text/css">.links{fill:transparent;stroke: #E4CF37;}.links:hover{fill:#63D272; opacity:0.4;}</style><defs><g id="allt"><path id="t9185" d="M2838,2240 L2828,2240 C2819,2240 2830,2237 2820,2237 C2811,2238 2825,2241 2815,2240 L2805,2240 2805,2240 L2807,2249 C2809,2258 2796,2246 2797,2254 C2799,2262 2806,2253 2805,2262 L2805,2272 2805,2272 L2814,2274 C2823,2276 2811,2263 2819,2264 C2828,2266 2819,2273 2828,2272 L2838,2272 2838,2272 L2838,2261 C2838,2251 2830,2266 2831,2256 C2833,2246 2842,2257 2840,2248 L2838,2240"/></g><clipPath id="c" clipRule="evenodd" fill="transparent"><use href="#t9185"/></clipPath></defs><svg viewBox="2795 2236 48 41" preserveAspectRatio="xMinYMin meet"><svg width="4380" height="2430"><g><image crossorigin="anonymous" x="0" y="0" href="https://nftpuzzle.license-token.com/assets/completepuzzle.svg" width="100%" height="100%" /><g class="links"><use href="#t9185"/></g></g></svg><svg x="2828" y="2262" height="9%" width="9%" viewBox="0 0 330 330"><g><a xlink:href="https://nftpuzzle.license-token.com/" class="links"><title>See the most innovative NFT based token software licensing project</title><path fill="#E4CF37" id="more" d="M165,0C74.019,0,0,74.019,0,165s74.019,165,165,165s165-74.019,165-165S255.981,0,165,0z M85,190 c-13.785,0-25-11.215-25-25s11.215-25,25-25s25,11.215,25,25S98.785,190,85,190z M165,190c-13.785,0-25-11.215-25-25 s11.215-25,25-25s25,11.215,25,25S178.785,190,165,190z M245,190c-13.785,0-25-11.215-25-25s11.215-25,25-25 c13.785,0,25,11.215,25,25S258.785,190,245,190z"></path></a></g></svg></svg></svg>