<svg version="1.1" xmlns="http://www.w3.org/2000/svg" xmlns:xlink="http://www.w3.org/1999/xlink" fill="transparent" x="0" y="0" width="350" height="350" preserveAspectRatio="xMinYMin slice"><style type="text/css">.links{fill:transparent;stroke: #E4CF37;}.links:hover{fill:#63D272; opacity:0.4;}</style><defs><g id="allt"><path id="t9186" d="M2871,2240 L2861,2239 C2851,2239 2864,2253 2855,2250 C2847,2247 2858,2236 2848,2238 L2838,2240 2838,2240 L2840,2248 C2842,2257 2833,2246 2831,2256 C2830,2266 2838,2251 2838,2261 L2838,2272 2838,2272 L2847,2274 C2856,2276 2844,2267 2854,2265 C2865,2264 2849,2272 2860,2272 L2871,2272 2871,2272 L2870,2261 C2869,2250 2880,2265 2880,2256 C2881,2248 2871,2258 2871,2249 L2871,2240"/></g><clipPath id="c" clipRule="evenodd" fill="transparent"><use href="#t9186"/></clipPath></defs><svg viewBox="2829 2235 53 42" preserveAspectRatio="xMinYMin meet"><svg width="4380" height="2430"><g><image crossorigin="anonymous" x="0" y="0" href="https://nftpuzzle.license-token.com/assets/completepuzzle.svg" width="100%" height="100%" /><g class="links"><use href="#t9186"/></g></g></svg><svg x="2867" y="2262" height="9%" width="9%" viewBox="0 0 330 330"><g><a xlink:href="https://nftpuzzle.license-token.com/" class="links"><title>See the most innovative NFT based token software licensing project</title><path fill="#E4CF37" id="more" d="M165,0C74.019,0,0,74.019,0,165s74.019,165,165,165s165-74.019,165-165S255.981,0,165,0z M85,190 c-13.785,0-25-11.215-25-25s11.215-25,25-25s25,11.215,25,25S98.785,190,85,190z M165,190c-13.785,0-25-11.215-25-25 s11.215-25,25-25s25,11.215,25,25S178.785,190,165,190z M245,190c-13.785,0-25-11.215-25-25s11.215-25,25-25 c13.785,0,25,11.215,25,25S258.785,190,245,190z"></path></a></g></svg></svg></svg>