<svg version="1.1" xmlns="http://www.w3.org/2000/svg" xmlns:xlink="http://www.w3.org/1999/xlink" fill="transparent" x="0" y="0" width="350" height="350" preserveAspectRatio="xMinYMin slice"><style type="text/css">.links{fill:transparent;stroke: #E4CF37;}.links:hover{fill:#63D272; opacity:0.4;}</style><defs><g id="allt"><path id="t9187" d="M2904,2240 L2894,2240 C2884,2241 2894,2238 2886,2238 C2879,2238 2891,2240 2881,2240 L2871,2240 2871,2240 L2871,2249 C2871,2258 2881,2248 2880,2256 C2880,2265 2869,2250 2870,2261 L2871,2272 2871,2272 L2880,2272 C2889,2272 2880,2282 2888,2281 C2897,2280 2881,2270 2892,2271 L2904,2272 2904,2272 L2904,2261 C2905,2251 2900,2263 2901,2256 C2902,2249 2904,2258 2904,2249 L2904,2240"/></g><clipPath id="c" clipRule="evenodd" fill="transparent"><use href="#t9187"/></clipPath></defs><svg viewBox="2868 2237 38 46" preserveAspectRatio="xMinYMin meet"><svg width="4380" height="2430"><g><image crossorigin="anonymous" x="0" y="0" href="https://nftpuzzle.license-token.com/assets/completepuzzle.svg" width="100%" height="100%" /><g class="links"><use href="#t9187"/></g></g></svg><svg x="2891" y="2268" height="9%" width="9%" viewBox="0 0 330 330"><g><a xlink:href="https://nftpuzzle.license-token.com/" class="links"><title>See the most innovative NFT based token software licensing project</title><path fill="#E4CF37" id="more" d="M165,0C74.019,0,0,74.019,0,165s74.019,165,165,165s165-74.019,165-165S255.981,0,165,0z M85,190 c-13.785,0-25-11.215-25-25s11.215-25,25-25s25,11.215,25,25S98.785,190,85,190z M165,190c-13.785,0-25-11.215-25-25 s11.215-25,25-25s25,11.215,25,25S178.785,190,165,190z M245,190c-13.785,0-25-11.215-25-25s11.215-25,25-25 c13.785,0,25,11.215,25,25S258.785,190,245,190z"></path></a></g></svg></svg></svg>