<svg version="1.1" xmlns="http://www.w3.org/2000/svg" xmlns:xlink="http://www.w3.org/1999/xlink" fill="transparent" x="0" y="0" width="350" height="350" preserveAspectRatio="xMinYMin slice"><style type="text/css">.links{fill:transparent;stroke: #E4CF37;}.links:hover{fill:#63D272; opacity:0.4;}</style><defs><g id="allt"><path id="t9188" d="M2937,2240 L2926,2237 C2916,2235 2929,2250 2921,2249 C2913,2249 2926,2238 2915,2239 L2904,2240 2904,2240 L2904,2249 C2904,2258 2902,2249 2901,2256 C2900,2263 2905,2251 2904,2261 L2904,2272 2904,2272 L2913,2272 C2923,2272 2913,2270 2920,2269 C2928,2268 2915,2273 2926,2272 L2937,2272 2937,2272 L2938,2262 C2939,2252 2932,2264 2931,2256 C2931,2248 2937,2261 2937,2250 L2937,2240"/></g><clipPath id="c" clipRule="evenodd" fill="transparent"><use href="#t9188"/></clipPath></defs><svg viewBox="2899 2234 41 40" preserveAspectRatio="xMinYMin meet"><svg width="4380" height="2430"><g><image crossorigin="anonymous" x="0" y="0" href="https://nftpuzzle.license-token.com/assets/completepuzzle.svg" width="100%" height="100%" /><g class="links"><use href="#t9188"/></g></g></svg><svg x="2925" y="2259" height="9%" width="9%" viewBox="0 0 330 330"><g><a xlink:href="https://nftpuzzle.license-token.com/" class="links"><title>See the most innovative NFT based token software licensing project</title><path fill="#E4CF37" id="more" d="M165,0C74.019,0,0,74.019,0,165s74.019,165,165,165s165-74.019,165-165S255.981,0,165,0z M85,190 c-13.785,0-25-11.215-25-25s11.215-25,25-25s25,11.215,25,25S98.785,190,85,190z M165,190c-13.785,0-25-11.215-25-25 s11.215-25,25-25s25,11.215,25,25S178.785,190,165,190z M245,190c-13.785,0-25-11.215-25-25s11.215-25,25-25 c13.785,0,25,11.215,25,25S258.785,190,245,190z"></path></a></g></svg></svg></svg>