<svg version="1.1" xmlns="http://www.w3.org/2000/svg" xmlns:xlink="http://www.w3.org/1999/xlink" fill="transparent" x="0" y="0" width="350" height="350" preserveAspectRatio="xMinYMin slice"><style type="text/css">.links{fill:transparent;stroke: #E4CF37;}.links:hover{fill:#63D272; opacity:0.4;}</style><defs><g id="allt"><path id="t9196" d="M3201,2240 L3190,2240 C3179,2241 3194,2236 3184,2234 C3174,2233 3189,2240 3178,2240 L3168,2240 3168,2240 L3167,2248 C3166,2257 3175,2244 3174,2254 C3174,2264 3167,2252 3167,2262 L3168,2272 3168,2272 L3177,2271 C3186,2270 3172,2279 3182,2278 C3193,2278 3181,2271 3191,2271 L3201,2272 3201,2272 L3201,2262 C3201,2252 3194,2263 3195,2255 C3196,2248 3202,2261 3201,2250 L3201,2240"/></g><clipPath id="c" clipRule="evenodd" fill="transparent"><use href="#t9196"/></clipPath></defs><svg viewBox="3165 2232 38 48" preserveAspectRatio="xMinYMin meet"><svg width="4380" height="2430"><g><image crossorigin="anonymous" x="0" y="0" href="https://nftpuzzle.license-token.com/assets/completepuzzle.svg" width="100%" height="100%" /><g class="links"><use href="#t9196"/></g></g></svg><svg x="3188" y="2265" height="9%" width="9%" viewBox="0 0 330 330"><g><a xlink:href="https://nftpuzzle.license-token.com/" class="links"><title>See the most innovative NFT based token software licensing project</title><path fill="#E4CF37" id="more" d="M165,0C74.019,0,0,74.019,0,165s74.019,165,165,165s165-74.019,165-165S255.981,0,165,0z M85,190 c-13.785,0-25-11.215-25-25s11.215-25,25-25s25,11.215,25,25S98.785,190,85,190z M165,190c-13.785,0-25-11.215-25-25 s11.215-25,25-25s25,11.215,25,25S178.785,190,165,190z M245,190c-13.785,0-25-11.215-25-25s11.215-25,25-25 c13.785,0,25,11.215,25,25S258.785,190,245,190z"></path></a></g></svg></svg></svg>