<svg version="1.1" xmlns="http://www.w3.org/2000/svg" xmlns:xlink="http://www.w3.org/1999/xlink" fill="transparent" x="0" y="0" width="350" height="350" preserveAspectRatio="xMinYMin slice"><style type="text/css">.links{fill:transparent;stroke: #E4CF37;}.links:hover{fill:#63D272; opacity:0.4;}</style><defs><g id="allt"><path id="t9197" d="M3234,2240 L3224,2242 C3214,2244 3225,2229 3216,2230 C3208,2231 3219,2242 3210,2241 L3201,2240 3201,2240 L3201,2250 C3202,2261 3196,2248 3195,2255 C3194,2263 3201,2252 3201,2262 L3201,2272 3201,2272 L3211,2272 C3222,2273 3209,2267 3217,2266 C3225,2265 3213,2272 3223,2272 L3234,2272 3234,2272 L3235,2262 C3236,2253 3231,2265 3229,2257 C3228,2249 3234,2258 3234,2249 L3234,2240"/></g><clipPath id="c" clipRule="evenodd" fill="transparent"><use href="#t9197"/></clipPath></defs><svg viewBox="3193 2228 44 46" preserveAspectRatio="xMinYMin meet"><svg width="4380" height="2430"><g><image crossorigin="anonymous" x="0" y="0" href="https://nftpuzzle.license-token.com/assets/completepuzzle.svg" width="100%" height="100%" /><g class="links"><use href="#t9197"/></g></g></svg><svg x="3222" y="2259" height="9%" width="9%" viewBox="0 0 330 330"><g><a xlink:href="https://nftpuzzle.license-token.com/" class="links"><title>See the most innovative NFT based token software licensing project</title><path fill="#E4CF37" id="more" d="M165,0C74.019,0,0,74.019,0,165s74.019,165,165,165s165-74.019,165-165S255.981,0,165,0z M85,190 c-13.785,0-25-11.215-25-25s11.215-25,25-25s25,11.215,25,25S98.785,190,85,190z M165,190c-13.785,0-25-11.215-25-25 s11.215-25,25-25s25,11.215,25,25S178.785,190,165,190z M245,190c-13.785,0-25-11.215-25-25s11.215-25,25-25 c13.785,0,25,11.215,25,25S258.785,190,245,190z"></path></a></g></svg></svg></svg>