<svg version="1.1" xmlns="http://www.w3.org/2000/svg" xmlns:xlink="http://www.w3.org/1999/xlink" fill="transparent" x="0" y="0" width="350" height="350" preserveAspectRatio="xMinYMin slice"><style type="text/css">.links{fill:transparent;stroke: #E4CF37;}.links:hover{fill:#63D272; opacity:0.4;}</style><defs><g id="allt"><path id="t9198" d="M3267,2240 L3256,2238 C3246,2237 3261,2246 3251,2246 C3241,2246 3255,2241 3244,2240 L3234,2240 3234,2240 L3234,2249 C3234,2258 3228,2249 3229,2257 C3231,2265 3236,2253 3235,2262 L3234,2272 3234,2272 L3243,2272 C3253,2272 3243,2266 3251,2267 C3260,2269 3247,2274 3257,2273 L3267,2272 3267,2272 L3267,2262 C3267,2252 3274,2263 3273,2255 C3272,2248 3264,2260 3265,2250 L3267,2240"/></g><clipPath id="c" clipRule="evenodd" fill="transparent"><use href="#t9198"/></clipPath></defs><svg viewBox="3227 2236 48 39" preserveAspectRatio="xMinYMin meet"><svg width="4380" height="2430"><g><image crossorigin="anonymous" x="0" y="0" href="https://nftpuzzle.license-token.com/assets/completepuzzle.svg" width="100%" height="100%" /><g class="links"><use href="#t9198"/></g></g></svg><svg x="3260" y="2260" height="9%" width="9%" viewBox="0 0 330 330"><g><a xlink:href="https://nftpuzzle.license-token.com/" class="links"><title>See the most innovative NFT based token software licensing project</title><path fill="#E4CF37" id="more" d="M165,0C74.019,0,0,74.019,0,165s74.019,165,165,165s165-74.019,165-165S255.981,0,165,0z M85,190 c-13.785,0-25-11.215-25-25s11.215-25,25-25s25,11.215,25,25S98.785,190,85,190z M165,190c-13.785,0-25-11.215-25-25 s11.215-25,25-25s25,11.215,25,25S178.785,190,165,190z M245,190c-13.785,0-25-11.215-25-25s11.215-25,25-25 c13.785,0,25,11.215,25,25S258.785,190,245,190z"></path></a></g></svg></svg></svg>