<svg version="1.1" xmlns="http://www.w3.org/2000/svg" xmlns:xlink="http://www.w3.org/1999/xlink" fill="transparent" x="0" y="0" width="350" height="350" preserveAspectRatio="xMinYMin slice"><style type="text/css">.links{fill:transparent;stroke: #E4CF37;}.links:hover{fill:#63D272; opacity:0.4;}</style><defs><g id="allt"><path id="t9199" d="M3300,2240 L3289,2240 C3279,2240 3294,2244 3284,2243 C3275,2242 3285,2240 3276,2240 L3267,2240 3267,2240 L3265,2250 C3264,2260 3272,2248 3273,2255 C3274,2263 3267,2252 3267,2262 L3267,2272 3267,2272 L3277,2270 C3288,2269 3276,2277 3283,2278 C3291,2279 3280,2272 3290,2272 L3300,2272 3300,2272 L3299,2261 C3299,2250 3305,2265 3305,2256 C3306,2248 3300,2258 3300,2249 L3300,2240"/></g><clipPath id="c" clipRule="evenodd" fill="transparent"><use href="#t9199"/></clipPath></defs><svg viewBox="3263 2239 44 41" preserveAspectRatio="xMinYMin meet"><svg width="4380" height="2430"><g><image crossorigin="anonymous" x="0" y="0" href="https://nftpuzzle.license-token.com/assets/completepuzzle.svg" width="100%" height="100%" /><g class="links"><use href="#t9199"/></g></g></svg><svg x="3292" y="2265" height="9%" width="9%" viewBox="0 0 330 330"><g><a xlink:href="https://nftpuzzle.license-token.com/" class="links"><title>See the most innovative NFT based token software licensing project</title><path fill="#E4CF37" id="more" d="M165,0C74.019,0,0,74.019,0,165s74.019,165,165,165s165-74.019,165-165S255.981,0,165,0z M85,190 c-13.785,0-25-11.215-25-25s11.215-25,25-25s25,11.215,25,25S98.785,190,85,190z M165,190c-13.785,0-25-11.215-25-25 s11.215-25,25-25s25,11.215,25,25S178.785,190,165,190z M245,190c-13.785,0-25-11.215-25-25s11.215-25,25-25 c13.785,0,25,11.215,25,25S258.785,190,245,190z"></path></a></g></svg></svg></svg>