<svg version="1.1" xmlns="http://www.w3.org/2000/svg" xmlns:xlink="http://www.w3.org/1999/xlink" fill="transparent" x="0" y="0" width="350" height="350" preserveAspectRatio="xMinYMin slice"><style type="text/css">.links{fill:transparent;stroke: #E4CF37;}.links:hover{fill:#63D272; opacity:0.4;}</style><defs><g id="allt"><path id="t9200" d="M3333,2240 L3321,2241 C3310,2243 3324,2232 3315,2233 C3306,2234 3320,2245 3310,2242 L3300,2240 3300,2240 L3300,2249 C3300,2258 3306,2248 3305,2256 C3305,2265 3299,2250 3299,2261 L3300,2272 3300,2272 L3309,2272 C3318,2272 3308,2278 3317,2277 C3326,2277 3310,2271 3321,2271 L3333,2272 3333,2272 L3333,2261 C3334,2250 3327,2265 3328,2254 C3329,2244 3335,2258 3334,2249 L3333,2240"/></g><clipPath id="c" clipRule="evenodd" fill="transparent"><use href="#t9200"/></clipPath></defs><svg viewBox="3298 2231 38 48" preserveAspectRatio="xMinYMin meet"><svg width="4380" height="2430"><g><image crossorigin="anonymous" x="0" y="0" href="https://nftpuzzle.license-token.com/assets/completepuzzle.svg" width="100%" height="100%" /><g class="links"><use href="#t9200"/></g></g></svg><svg x="3321" y="2264" height="9%" width="9%" viewBox="0 0 330 330"><g><a xlink:href="https://nftpuzzle.license-token.com/" class="links"><title>See the most innovative NFT based token software licensing project</title><path fill="#E4CF37" id="more" d="M165,0C74.019,0,0,74.019,0,165s74.019,165,165,165s165-74.019,165-165S255.981,0,165,0z M85,190 c-13.785,0-25-11.215-25-25s11.215-25,25-25s25,11.215,25,25S98.785,190,85,190z M165,190c-13.785,0-25-11.215-25-25 s11.215-25,25-25s25,11.215,25,25S178.785,190,165,190z M245,190c-13.785,0-25-11.215-25-25s11.215-25,25-25 c13.785,0,25,11.215,25,25S258.785,190,245,190z"></path></a></g></svg></svg></svg>