<svg version="1.1" xmlns="http://www.w3.org/2000/svg" xmlns:xlink="http://www.w3.org/1999/xlink" fill="transparent" x="0" y="0" width="350" height="350" preserveAspectRatio="xMinYMin slice"><style type="text/css">.links{fill:transparent;stroke: #E4CF37;}.links:hover{fill:#63D272; opacity:0.4;}</style><defs><g id="allt"><path id="t9201" d="M3366,2240 L3355,2241 C3345,2243 3360,2235 3350,2235 C3341,2235 3352,2240 3342,2240 L3333,2240 3333,2240 L3334,2249 C3335,2258 3329,2244 3328,2254 C3327,2265 3334,2250 3333,2261 L3333,2272 3333,2272 L3342,2273 C3352,2274 3337,2268 3348,2267 C3359,2266 3343,2273 3354,2272 L3366,2272 3366,2272 L3363,2262 C3361,2252 3376,2265 3376,2255 C3376,2245 3361,2259 3363,2249 L3366,2240"/></g><clipPath id="c" clipRule="evenodd" fill="transparent"><use href="#t9201"/></clipPath></defs><svg viewBox="3326 2234 51 41" preserveAspectRatio="xMinYMin meet"><svg width="4380" height="2430"><g><image crossorigin="anonymous" x="0" y="0" href="https://nftpuzzle.license-token.com/assets/completepuzzle.svg" width="100%" height="100%" /><g class="links"><use href="#t9201"/></g></g></svg><svg x="3362" y="2260" height="9%" width="9%" viewBox="0 0 330 330"><g><a xlink:href="https://nftpuzzle.license-token.com/" class="links"><title>See the most innovative NFT based token software licensing project</title><path fill="#E4CF37" id="more" d="M165,0C74.019,0,0,74.019,0,165s74.019,165,165,165s165-74.019,165-165S255.981,0,165,0z M85,190 c-13.785,0-25-11.215-25-25s11.215-25,25-25s25,11.215,25,25S98.785,190,85,190z M165,190c-13.785,0-25-11.215-25-25 s11.215-25,25-25s25,11.215,25,25S178.785,190,165,190z M245,190c-13.785,0-25-11.215-25-25s11.215-25,25-25 c13.785,0,25,11.215,25,25S258.785,190,245,190z"></path></a></g></svg></svg></svg>