<svg version="1.1" xmlns="http://www.w3.org/2000/svg" xmlns:xlink="http://www.w3.org/1999/xlink" fill="transparent" x="0" y="0" width="350" height="350" preserveAspectRatio="xMinYMin slice"><style type="text/css">.links{fill:transparent;stroke: #E4CF37;}.links:hover{fill:#63D272; opacity:0.4;}</style><defs><g id="allt"><path id="t9203" d="M3432,2240 L3421,2241 C3410,2243 3427,2232 3416,2232 C3405,2232 3418,2241 3408,2240 L3399,2240 3399,2240 L3400,2248 C3401,2257 3391,2249 3392,2256 C3394,2264 3400,2252 3399,2262 L3399,2272 3399,2272 L3408,2273 C3417,2274 3408,2264 3416,2265 C3424,2267 3412,2273 3422,2272 L3432,2272 3432,2272 L3432,2262 C3432,2253 3439,2264 3441,2255 C3443,2247 3431,2260 3431,2250 L3432,2240"/></g><clipPath id="c" clipRule="evenodd" fill="transparent"><use href="#t9203"/></clipPath></defs><svg viewBox="3390 2231 54 44" preserveAspectRatio="xMinYMin meet"><svg width="4380" height="2430"><g><image crossorigin="anonymous" x="0" y="0" href="https://nftpuzzle.license-token.com/assets/completepuzzle.svg" width="100%" height="100%" /><g class="links"><use href="#t9203"/></g></g></svg><svg x="3429" y="2260" height="9%" width="9%" viewBox="0 0 330 330"><g><a xlink:href="https://nftpuzzle.license-token.com/" class="links"><title>See the most innovative NFT based token software licensing project</title><path fill="#E4CF37" id="more" d="M165,0C74.019,0,0,74.019,0,165s74.019,165,165,165s165-74.019,165-165S255.981,0,165,0z M85,190 c-13.785,0-25-11.215-25-25s11.215-25,25-25s25,11.215,25,25S98.785,190,85,190z M165,190c-13.785,0-25-11.215-25-25 s11.215-25,25-25s25,11.215,25,25S178.785,190,165,190z M245,190c-13.785,0-25-11.215-25-25s11.215-25,25-25 c13.785,0,25,11.215,25,25S258.785,190,245,190z"></path></a></g></svg></svg></svg>