<svg version="1.1" xmlns="http://www.w3.org/2000/svg" xmlns:xlink="http://www.w3.org/1999/xlink" fill="transparent" x="0" y="0" width="350" height="350" preserveAspectRatio="xMinYMin slice"><style type="text/css">.links{fill:transparent;stroke: #E4CF37;}.links:hover{fill:#63D272; opacity:0.4;}</style><defs><g id="allt"><path id="t9208" d="M3597,2240 L3587,2240 C3577,2241 3587,2232 3578,2232 C3570,2233 3582,2243 3573,2241 L3564,2240 3564,2240 L3565,2250 C3567,2260 3552,2246 3554,2256 C3556,2266 3568,2252 3566,2262 L3564,2272 3564,2272 L3574,2273 C3584,2275 3570,2260 3580,2262 C3591,2264 3576,2276 3586,2274 L3597,2272 3597,2272 L3597,2262 C3597,2252 3589,2266 3588,2256 C3588,2246 3601,2258 3599,2249 L3597,2240"/></g><clipPath id="c" clipRule="evenodd" fill="transparent"><use href="#t9208"/></clipPath></defs><svg viewBox="3551 2231 51 46" preserveAspectRatio="xMinYMin meet"><svg width="4380" height="2430"><g><image crossorigin="anonymous" x="0" y="0" href="https://nftpuzzle.license-token.com/assets/completepuzzle.svg" width="100%" height="100%" /><g class="links"><use href="#t9208"/></g></g></svg><svg x="3587" y="2262" height="9%" width="9%" viewBox="0 0 330 330"><g><a xlink:href="https://nftpuzzle.license-token.com/" class="links"><title>See the most innovative NFT based token software licensing project</title><path fill="#E4CF37" id="more" d="M165,0C74.019,0,0,74.019,0,165s74.019,165,165,165s165-74.019,165-165S255.981,0,165,0z M85,190 c-13.785,0-25-11.215-25-25s11.215-25,25-25s25,11.215,25,25S98.785,190,85,190z M165,190c-13.785,0-25-11.215-25-25 s11.215-25,25-25s25,11.215,25,25S178.785,190,165,190z M245,190c-13.785,0-25-11.215-25-25s11.215-25,25-25 c13.785,0,25,11.215,25,25S258.785,190,245,190z"></path></a></g></svg></svg></svg>