<svg version="1.1" xmlns="http://www.w3.org/2000/svg" xmlns:xlink="http://www.w3.org/1999/xlink" fill="transparent" x="0" y="0" width="350" height="350" preserveAspectRatio="xMinYMin slice"><style type="text/css">.links{fill:transparent;stroke: #E4CF37;}.links:hover{fill:#63D272; opacity:0.4;}</style><defs><g id="allt"><path id="t9209" d="M3630,2240 L3620,2238 C3610,2237 3622,2246 3612,2246 C3603,2247 3617,2239 3607,2239 L3597,2240 3597,2240 L3599,2249 C3601,2258 3588,2246 3588,2256 C3589,2266 3597,2252 3597,2262 L3597,2272 3597,2272 L3606,2274 C3616,2276 3603,2264 3613,2264 C3624,2264 3609,2272 3619,2272 L3630,2272 3630,2272 L3630,2262 C3630,2253 3627,2263 3626,2254 C3625,2246 3633,2260 3631,2250 L3630,2240"/></g><clipPath id="c" clipRule="evenodd" fill="transparent"><use href="#t9209"/></clipPath></defs><svg viewBox="3587 2236 47 41" preserveAspectRatio="xMinYMin meet"><svg width="4380" height="2430"><g><image crossorigin="anonymous" x="0" y="0" href="https://nftpuzzle.license-token.com/assets/completepuzzle.svg" width="100%" height="100%" /><g class="links"><use href="#t9209"/></g></g></svg><svg x="3619" y="2262" height="9%" width="9%" viewBox="0 0 330 330"><g><a xlink:href="https://nftpuzzle.license-token.com/" class="links"><title>See the most innovative NFT based token software licensing project</title><path fill="#E4CF37" id="more" d="M165,0C74.019,0,0,74.019,0,165s74.019,165,165,165s165-74.019,165-165S255.981,0,165,0z M85,190 c-13.785,0-25-11.215-25-25s11.215-25,25-25s25,11.215,25,25S98.785,190,85,190z M165,190c-13.785,0-25-11.215-25-25 s11.215-25,25-25s25,11.215,25,25S178.785,190,165,190z M245,190c-13.785,0-25-11.215-25-25s11.215-25,25-25 c13.785,0,25,11.215,25,25S258.785,190,245,190z"></path></a></g></svg></svg></svg>