<svg version="1.1" xmlns="http://www.w3.org/2000/svg" xmlns:xlink="http://www.w3.org/1999/xlink" fill="transparent" x="0" y="0" width="350" height="350" preserveAspectRatio="xMinYMin slice"><style type="text/css">.links{fill:transparent;stroke: #E4CF37;}.links:hover{fill:#63D272; opacity:0.4;}</style><defs><g id="allt"><path id="t9211" d="M3696,2240 L3685,2241 C3675,2242 3687,2234 3679,2233 C3671,2233 3684,2242 3673,2241 L3663,2240 3663,2240 L3663,2250 C3663,2261 3669,2248 3668,2257 C3667,2267 3663,2253 3663,2262 L3663,2272 3663,2272 L3674,2272 C3685,2272 3671,2278 3681,2277 C3691,2276 3676,2272 3686,2272 L3696,2272 3696,2272 L3696,2263 C3696,2254 3703,2264 3704,2255 C3706,2246 3692,2259 3694,2249 L3696,2240"/></g><clipPath id="c" clipRule="evenodd" fill="transparent"><use href="#t9211"/></clipPath></defs><svg viewBox="3662 2232 45 47" preserveAspectRatio="xMinYMin meet"><svg width="4380" height="2430"><g><image crossorigin="anonymous" x="0" y="0" href="https://nftpuzzle.license-token.com/assets/completepuzzle.svg" width="100%" height="100%" /><g class="links"><use href="#t9211"/></g></g></svg><svg x="3692" y="2264" height="9%" width="9%" viewBox="0 0 330 330"><g><a xlink:href="https://nftpuzzle.license-token.com/" class="links"><title>See the most innovative NFT based token software licensing project</title><path fill="#E4CF37" id="more" d="M165,0C74.019,0,0,74.019,0,165s74.019,165,165,165s165-74.019,165-165S255.981,0,165,0z M85,190 c-13.785,0-25-11.215-25-25s11.215-25,25-25s25,11.215,25,25S98.785,190,85,190z M165,190c-13.785,0-25-11.215-25-25 s11.215-25,25-25s25,11.215,25,25S178.785,190,165,190z M245,190c-13.785,0-25-11.215-25-25s11.215-25,25-25 c13.785,0,25,11.215,25,25S258.785,190,245,190z"></path></a></g></svg></svg></svg>