<svg version="1.1" xmlns="http://www.w3.org/2000/svg" xmlns:xlink="http://www.w3.org/1999/xlink" fill="transparent" x="0" y="0" width="350" height="350" preserveAspectRatio="xMinYMin slice"><style type="text/css">.links{fill:transparent;stroke: #E4CF37;}.links:hover{fill:#63D272; opacity:0.4;}</style><defs><g id="allt"><path id="t9220" d="M3993,2240 L3982,2240 C3972,2240 3984,2234 3976,2234 C3968,2234 3979,2240 3969,2240 L3960,2240 3960,2240 L3960,2248 C3961,2257 3956,2246 3957,2255 C3958,2265 3961,2253 3960,2262 L3960,2272 3960,2272 L3969,2272 C3978,2273 3966,2268 3976,2269 C3986,2270 3974,2273 3983,2272 L3993,2272 3993,2272 L3993,2262 C3993,2252 3999,2263 3998,2255 C3998,2248 3988,2258 3990,2249 L3993,2240"/></g><clipPath id="c" clipRule="evenodd" fill="transparent"><use href="#t9220"/></clipPath></defs><svg viewBox="3955 2233 45 41" preserveAspectRatio="xMinYMin meet"><svg width="4380" height="2430"><g><image crossorigin="anonymous" x="0" y="0" href="https://nftpuzzle.license-token.com/assets/completepuzzle.svg" width="100%" height="100%" /><g class="links"><use href="#t9220"/></g></g></svg><svg x="3985" y="2259" height="9%" width="9%" viewBox="0 0 330 330"><g><a xlink:href="https://nftpuzzle.license-token.com/" class="links"><title>See the most innovative NFT based token software licensing project</title><path fill="#E4CF37" id="more" d="M165,0C74.019,0,0,74.019,0,165s74.019,165,165,165s165-74.019,165-165S255.981,0,165,0z M85,190 c-13.785,0-25-11.215-25-25s11.215-25,25-25s25,11.215,25,25S98.785,190,85,190z M165,190c-13.785,0-25-11.215-25-25 s11.215-25,25-25s25,11.215,25,25S178.785,190,165,190z M245,190c-13.785,0-25-11.215-25-25s11.215-25,25-25 c13.785,0,25,11.215,25,25S258.785,190,245,190z"></path></a></g></svg></svg></svg>