<svg version="1.1" xmlns="http://www.w3.org/2000/svg" xmlns:xlink="http://www.w3.org/1999/xlink" fill="transparent" x="0" y="0" width="350" height="350" preserveAspectRatio="xMinYMin slice"><style type="text/css">.links{fill:transparent;stroke: #E4CF37;}.links:hover{fill:#63D272; opacity:0.4;}</style><defs><g id="allt"><path id="t9223" d="M4092,2240 L4082,2239 C4072,2238 4084,2248 4074,2248 C4064,2248 4078,2237 4068,2238 L4059,2240 4059,2240 L4059,2249 C4059,2259 4054,2247 4055,2255 C4057,2264 4059,2252 4059,2262 L4059,2272 4059,2272 L4069,2272 C4079,2272 4066,2267 4075,2268 C4084,2270 4071,2272 4081,2272 L4092,2272 4092,2272 L4092,2261 C4092,2250 4085,2263 4084,2255 C4083,2248 4092,2259 4092,2249 L4092,2240"/></g><clipPath id="c" clipRule="evenodd" fill="transparent"><use href="#t9223"/></clipPath></defs><svg viewBox="4053 2236 40 37" preserveAspectRatio="xMinYMin meet"><svg width="4380" height="2430"><g><image crossorigin="anonymous" x="0" y="0" href="https://nftpuzzle.license-token.com/assets/completepuzzle.svg" width="100%" height="100%" /><g class="links"><use href="#t9223"/></g></g></svg><svg x="4078" y="2258" height="9%" width="9%" viewBox="0 0 330 330"><g><a xlink:href="https://nftpuzzle.license-token.com/" class="links"><title>See the most innovative NFT based token software licensing project</title><path fill="#E4CF37" id="more" d="M165,0C74.019,0,0,74.019,0,165s74.019,165,165,165s165-74.019,165-165S255.981,0,165,0z M85,190 c-13.785,0-25-11.215-25-25s11.215-25,25-25s25,11.215,25,25S98.785,190,85,190z M165,190c-13.785,0-25-11.215-25-25 s11.215-25,25-25s25,11.215,25,25S178.785,190,165,190z M245,190c-13.785,0-25-11.215-25-25s11.215-25,25-25 c13.785,0,25,11.215,25,25S258.785,190,245,190z"></path></a></g></svg></svg></svg>