<svg version="1.1" xmlns="http://www.w3.org/2000/svg" xmlns:xlink="http://www.w3.org/1999/xlink" fill="transparent" x="0" y="0" width="350" height="350" preserveAspectRatio="xMinYMin slice"><style type="text/css">.links{fill:transparent;stroke: #E4CF37;}.links:hover{fill:#63D272; opacity:0.4;}</style><defs><g id="allt"><path id="t9237" d="M264,2272 L254,2271 C245,2271 257,2277 248,2278 C239,2279 250,2269 240,2270 L231,2272 231,2272 L230,2281 C229,2291 239,2277 241,2287 C243,2298 227,2282 229,2293 L231,2304 231,2304 L241,2303 C251,2302 236,2312 247,2314 C258,2316 242,2300 253,2302 L264,2304 264,2304 L264,2293 C264,2283 267,2299 267,2289 C268,2280 262,2291 263,2281 L264,2272"/></g><clipPath id="c" clipRule="evenodd" fill="transparent"><use href="#t9237"/></clipPath></defs><svg viewBox="226 2268 43 49" preserveAspectRatio="xMinYMin meet"><svg width="4380" height="2430"><g><image crossorigin="anonymous" x="0" y="0" href="https://nftpuzzle.license-token.com/assets/completepuzzle.svg" width="100%" height="100%" /><g class="links"><use href="#t9237"/></g></g></svg><svg x="254" y="2302" height="9%" width="9%" viewBox="0 0 330 330"><g><a xlink:href="https://nftpuzzle.license-token.com/" class="links"><title>See the most innovative NFT based token software licensing project</title><path fill="#E4CF37" id="more" d="M165,0C74.019,0,0,74.019,0,165s74.019,165,165,165s165-74.019,165-165S255.981,0,165,0z M85,190 c-13.785,0-25-11.215-25-25s11.215-25,25-25s25,11.215,25,25S98.785,190,85,190z M165,190c-13.785,0-25-11.215-25-25 s11.215-25,25-25s25,11.215,25,25S178.785,190,165,190z M245,190c-13.785,0-25-11.215-25-25s11.215-25,25-25 c13.785,0,25,11.215,25,25S258.785,190,245,190z"></path></a></g></svg></svg></svg>