<svg version="1.1" xmlns="http://www.w3.org/2000/svg" xmlns:xlink="http://www.w3.org/1999/xlink" fill="transparent" x="0" y="0" width="350" height="350" preserveAspectRatio="xMinYMin slice"><style type="text/css">.links{fill:transparent;stroke: #E4CF37;}.links:hover{fill:#63D272; opacity:0.4;}</style><defs><g id="allt"><path id="t9242" d="M429,2272 L418,2274 C408,2277 423,2261 414,2262 C405,2264 417,2272 406,2272 L396,2272 396,2272 L397,2282 C399,2292 390,2278 390,2286 C390,2295 398,2285 397,2294 L396,2304 396,2304 L406,2305 C417,2307 402,2298 410,2298 C419,2298 409,2306 419,2305 L429,2304 429,2304 L429,2294 C429,2284 426,2296 426,2288 C426,2280 429,2293 429,2282 L429,2272"/></g><clipPath id="c" clipRule="evenodd" fill="transparent"><use href="#t9242"/></clipPath></defs><svg viewBox="389 2260 41 48" preserveAspectRatio="xMinYMin meet"><svg width="4380" height="2430"><g><image crossorigin="anonymous" x="0" y="0" href="https://nftpuzzle.license-token.com/assets/completepuzzle.svg" width="100%" height="100%" /><g class="links"><use href="#t9242"/></g></g></svg><svg x="415" y="2293" height="9%" width="9%" viewBox="0 0 330 330"><g><a xlink:href="https://nftpuzzle.license-token.com/" class="links"><title>See the most innovative NFT based token software licensing project</title><path fill="#E4CF37" id="more" d="M165,0C74.019,0,0,74.019,0,165s74.019,165,165,165s165-74.019,165-165S255.981,0,165,0z M85,190 c-13.785,0-25-11.215-25-25s11.215-25,25-25s25,11.215,25,25S98.785,190,85,190z M165,190c-13.785,0-25-11.215-25-25 s11.215-25,25-25s25,11.215,25,25S178.785,190,165,190z M245,190c-13.785,0-25-11.215-25-25s11.215-25,25-25 c13.785,0,25,11.215,25,25S258.785,190,245,190z"></path></a></g></svg></svg></svg>