<svg version="1.1" xmlns="http://www.w3.org/2000/svg" xmlns:xlink="http://www.w3.org/1999/xlink" fill="transparent" x="0" y="0" width="350" height="350" preserveAspectRatio="xMinYMin slice"><style type="text/css">.links{fill:transparent;stroke: #E4CF37;}.links:hover{fill:#63D272; opacity:0.4;}</style><defs><g id="allt"><path id="t9254" d="M825,2272 L814,2272 C803,2272 817,2276 806,2277 C796,2279 812,2271 802,2271 L792,2272 792,2272 L792,2282 C792,2293 799,2277 798,2286 C798,2295 791,2284 791,2294 L792,2304 792,2304 L803,2304 C814,2304 797,2311 806,2310 C815,2310 805,2303 815,2303 L825,2304 825,2304 L828,2294 C831,2284 813,2295 815,2286 C817,2277 826,2291 825,2281 L825,2272"/></g><clipPath id="c" clipRule="evenodd" fill="transparent"><use href="#t9254"/></clipPath></defs><svg viewBox="790 2270 42 42" preserveAspectRatio="xMinYMin meet"><svg width="4380" height="2430"><g><image crossorigin="anonymous" x="0" y="0" href="https://nftpuzzle.license-token.com/assets/completepuzzle.svg" width="100%" height="100%" /><g class="links"><use href="#t9254"/></g></g></svg><svg x="817" y="2297" height="9%" width="9%" viewBox="0 0 330 330"><g><a xlink:href="https://nftpuzzle.license-token.com/" class="links"><title>See the most innovative NFT based token software licensing project</title><path fill="#E4CF37" id="more" d="M165,0C74.019,0,0,74.019,0,165s74.019,165,165,165s165-74.019,165-165S255.981,0,165,0z M85,190 c-13.785,0-25-11.215-25-25s11.215-25,25-25s25,11.215,25,25S98.785,190,85,190z M165,190c-13.785,0-25-11.215-25-25 s11.215-25,25-25s25,11.215,25,25S178.785,190,165,190z M245,190c-13.785,0-25-11.215-25-25s11.215-25,25-25 c13.785,0,25,11.215,25,25S258.785,190,245,190z"></path></a></g></svg></svg></svg>