<svg version="1.1" xmlns="http://www.w3.org/2000/svg" xmlns:xlink="http://www.w3.org/1999/xlink" fill="transparent" x="0" y="0" width="350" height="350" preserveAspectRatio="xMinYMin slice"><style type="text/css">.links{fill:transparent;stroke: #E4CF37;}.links:hover{fill:#63D272; opacity:0.4;}</style><defs><g id="allt"><path id="t9258" d="M957,2272 L947,2273 C937,2274 947,2266 939,2264 C932,2263 946,2274 935,2273 L924,2272 924,2272 L924,2281 C924,2290 920,2279 920,2287 C921,2296 926,2284 925,2294 L924,2304 924,2304 L933,2304 C942,2304 931,2300 940,2300 C949,2301 937,2306 947,2305 L957,2304 957,2304 L957,2293 C957,2282 961,2294 961,2285 C962,2277 956,2289 956,2280 L957,2272"/></g><clipPath id="c" clipRule="evenodd" fill="transparent"><use href="#t9258"/></clipPath></defs><svg viewBox="919 2262 44 45" preserveAspectRatio="xMinYMin meet"><svg width="4380" height="2430"><g><image crossorigin="anonymous" x="0" y="0" href="https://nftpuzzle.license-token.com/assets/completepuzzle.svg" width="100%" height="100%" /><g class="links"><use href="#t9258"/></g></g></svg><svg x="948" y="2292" height="9%" width="9%" viewBox="0 0 330 330"><g><a xlink:href="https://nftpuzzle.license-token.com/" class="links"><title>See the most innovative NFT based token software licensing project</title><path fill="#E4CF37" id="more" d="M165,0C74.019,0,0,74.019,0,165s74.019,165,165,165s165-74.019,165-165S255.981,0,165,0z M85,190 c-13.785,0-25-11.215-25-25s11.215-25,25-25s25,11.215,25,25S98.785,190,85,190z M165,190c-13.785,0-25-11.215-25-25 s11.215-25,25-25s25,11.215,25,25S178.785,190,165,190z M245,190c-13.785,0-25-11.215-25-25s11.215-25,25-25 c13.785,0,25,11.215,25,25S258.785,190,245,190z"></path></a></g></svg></svg></svg>