<svg version="1.1" xmlns="http://www.w3.org/2000/svg" xmlns:xlink="http://www.w3.org/1999/xlink" fill="transparent" x="0" y="0" width="350" height="350" preserveAspectRatio="xMinYMin slice"><style type="text/css">.links{fill:transparent;stroke: #E4CF37;}.links:hover{fill:#63D272; opacity:0.4;}</style><defs><g id="allt"><path id="t9262" d="M1089,2272 L1079,2272 C1070,2272 1079,2270 1071,2269 C1064,2268 1075,2272 1065,2272 L1056,2272 1056,2272 L1056,2282 C1056,2292 1046,2278 1048,2286 C1050,2294 1058,2284 1057,2294 L1056,2304 1056,2304 L1066,2304 C1077,2304 1062,2294 1070,2296 C1079,2298 1068,2306 1078,2305 L1089,2304 1089,2304 L1088,2295 C1088,2286 1084,2295 1083,2287 C1083,2279 1093,2291 1091,2281 L1089,2272"/></g><clipPath id="c" clipRule="evenodd" fill="transparent"><use href="#t9262"/></clipPath></defs><svg viewBox="1045 2267 49 40" preserveAspectRatio="xMinYMin meet"><svg width="4380" height="2430"><g><image crossorigin="anonymous" x="0" y="0" href="https://nftpuzzle.license-token.com/assets/completepuzzle.svg" width="100%" height="100%" /><g class="links"><use href="#t9262"/></g></g></svg><svg x="1079" y="2292" height="9%" width="9%" viewBox="0 0 330 330"><g><a xlink:href="https://nftpuzzle.license-token.com/" class="links"><title>See the most innovative NFT based token software licensing project</title><path fill="#E4CF37" id="more" d="M165,0C74.019,0,0,74.019,0,165s74.019,165,165,165s165-74.019,165-165S255.981,0,165,0z M85,190 c-13.785,0-25-11.215-25-25s11.215-25,25-25s25,11.215,25,25S98.785,190,85,190z M165,190c-13.785,0-25-11.215-25-25 s11.215-25,25-25s25,11.215,25,25S178.785,190,165,190z M245,190c-13.785,0-25-11.215-25-25s11.215-25,25-25 c13.785,0,25,11.215,25,25S258.785,190,245,190z"></path></a></g></svg></svg></svg>