<svg version="1.1" xmlns="http://www.w3.org/2000/svg" xmlns:xlink="http://www.w3.org/1999/xlink" fill="transparent" x="0" y="0" width="350" height="350" preserveAspectRatio="xMinYMin slice"><style type="text/css">.links{fill:transparent;stroke: #E4CF37;}.links:hover{fill:#63D272; opacity:0.4;}</style><defs><g id="allt"><path id="t9264" d="M1155,2272 L1145,2272 C1136,2273 1147,2267 1137,2268 C1127,2269 1144,2274 1133,2273 L1122,2272 1122,2272 L1124,2282 C1126,2292 1116,2279 1116,2287 C1117,2296 1122,2285 1122,2294 L1122,2304 1122,2304 L1132,2306 C1142,2308 1129,2298 1138,2298 C1147,2299 1136,2304 1145,2304 L1155,2304 1155,2304 L1153,2293 C1152,2282 1166,2296 1164,2286 C1163,2277 1154,2293 1154,2282 L1155,2272"/></g><clipPath id="c" clipRule="evenodd" fill="transparent"><use href="#t9264"/></clipPath></defs><svg viewBox="1115 2266 52 43" preserveAspectRatio="xMinYMin meet"><svg width="4380" height="2430"><g><image crossorigin="anonymous" x="0" y="0" href="https://nftpuzzle.license-token.com/assets/completepuzzle.svg" width="100%" height="100%" /><g class="links"><use href="#t9264"/></g></g></svg><svg x="1152" y="2294" height="9%" width="9%" viewBox="0 0 330 330"><g><a xlink:href="https://nftpuzzle.license-token.com/" class="links"><title>See the most innovative NFT based token software licensing project</title><path fill="#E4CF37" id="more" d="M165,0C74.019,0,0,74.019,0,165s74.019,165,165,165s165-74.019,165-165S255.981,0,165,0z M85,190 c-13.785,0-25-11.215-25-25s11.215-25,25-25s25,11.215,25,25S98.785,190,85,190z M165,190c-13.785,0-25-11.215-25-25 s11.215-25,25-25s25,11.215,25,25S178.785,190,165,190z M245,190c-13.785,0-25-11.215-25-25s11.215-25,25-25 c13.785,0,25,11.215,25,25S258.785,190,245,190z"></path></a></g></svg></svg></svg>