<svg version="1.1" xmlns="http://www.w3.org/2000/svg" xmlns:xlink="http://www.w3.org/1999/xlink" fill="transparent" x="0" y="0" width="350" height="350" preserveAspectRatio="xMinYMin slice"><style type="text/css">.links{fill:transparent;stroke: #E4CF37;}.links:hover{fill:#63D272; opacity:0.4;}</style><defs><g id="allt"><path id="t9267" d="M1254,2272 L1244,2272 C1234,2272 1248,2277 1237,2276 C1226,2275 1239,2272 1230,2272 L1221,2272 1221,2272 L1221,2282 C1222,2293 1228,2280 1228,2289 C1229,2298 1221,2283 1221,2293 L1221,2304 1221,2304 L1231,2304 C1242,2305 1229,2311 1238,2311 C1248,2312 1232,2304 1243,2304 L1254,2304 1254,2304 L1254,2294 C1254,2284 1248,2296 1247,2286 C1247,2277 1254,2290 1254,2281 L1254,2272"/></g><clipPath id="c" clipRule="evenodd" fill="transparent"><use href="#t9267"/></clipPath></defs><svg viewBox="1220 2271 35 42" preserveAspectRatio="xMinYMin meet"><svg width="4380" height="2430"><g><image crossorigin="anonymous" x="0" y="0" href="https://nftpuzzle.license-token.com/assets/completepuzzle.svg" width="100%" height="100%" /><g class="links"><use href="#t9267"/></g></g></svg><svg x="1240" y="2298" height="9%" width="9%" viewBox="0 0 330 330"><g><a xlink:href="https://nftpuzzle.license-token.com/" class="links"><title>See the most innovative NFT based token software licensing project</title><path fill="#E4CF37" id="more" d="M165,0C74.019,0,0,74.019,0,165s74.019,165,165,165s165-74.019,165-165S255.981,0,165,0z M85,190 c-13.785,0-25-11.215-25-25s11.215-25,25-25s25,11.215,25,25S98.785,190,85,190z M165,190c-13.785,0-25-11.215-25-25 s11.215-25,25-25s25,11.215,25,25S178.785,190,165,190z M245,190c-13.785,0-25-11.215-25-25s11.215-25,25-25 c13.785,0,25,11.215,25,25S258.785,190,245,190z"></path></a></g></svg></svg></svg>