<svg version="1.1" xmlns="http://www.w3.org/2000/svg" xmlns:xlink="http://www.w3.org/1999/xlink" fill="transparent" x="0" y="0" width="350" height="350" preserveAspectRatio="xMinYMin slice"><style type="text/css">.links{fill:transparent;stroke: #E4CF37;}.links:hover{fill:#63D272; opacity:0.4;}</style><defs><g id="allt"><path id="t9273" d="M1452,2272 L1442,2272 C1432,2272 1444,2278 1435,2279 C1426,2280 1440,2270 1429,2271 L1419,2272 1419,2272 L1419,2281 C1419,2291 1414,2280 1414,2288 C1414,2296 1419,2284 1419,2294 L1419,2304 1419,2304 L1428,2304 C1438,2304 1427,2299 1435,2299 C1444,2299 1431,2304 1441,2304 L1452,2304 1452,2304 L1452,2293 C1452,2283 1448,2294 1448,2285 C1449,2277 1452,2291 1452,2281 L1452,2272"/></g><clipPath id="c" clipRule="evenodd" fill="transparent"><use href="#t9273"/></clipPath></defs><svg viewBox="1413 2269 40 36" preserveAspectRatio="xMinYMin meet"><svg width="4380" height="2430"><g><image crossorigin="anonymous" x="0" y="0" href="https://nftpuzzle.license-token.com/assets/completepuzzle.svg" width="100%" height="100%" /><g class="links"><use href="#t9273"/></g></g></svg><svg x="1438" y="2290" height="9%" width="9%" viewBox="0 0 330 330"><g><a xlink:href="https://nftpuzzle.license-token.com/" class="links"><title>See the most innovative NFT based token software licensing project</title><path fill="#E4CF37" id="more" d="M165,0C74.019,0,0,74.019,0,165s74.019,165,165,165s165-74.019,165-165S255.981,0,165,0z M85,190 c-13.785,0-25-11.215-25-25s11.215-25,25-25s25,11.215,25,25S98.785,190,85,190z M165,190c-13.785,0-25-11.215-25-25 s11.215-25,25-25s25,11.215,25,25S178.785,190,165,190z M245,190c-13.785,0-25-11.215-25-25s11.215-25,25-25 c13.785,0,25,11.215,25,25S258.785,190,245,190z"></path></a></g></svg></svg></svg>