<svg version="1.1" xmlns="http://www.w3.org/2000/svg" xmlns:xlink="http://www.w3.org/1999/xlink" fill="transparent" x="0" y="0" width="350" height="350" preserveAspectRatio="xMinYMin slice"><style type="text/css">.links{fill:transparent;stroke: #E4CF37;}.links:hover{fill:#63D272; opacity:0.4;}</style><defs><g id="allt"><path id="t9274" d="M1485,2272 L1474,2274 C1463,2276 1478,2262 1469,2263 C1460,2264 1473,2272 1462,2272 L1452,2272 1452,2272 L1452,2281 C1452,2291 1449,2277 1448,2285 C1448,2294 1452,2283 1452,2293 L1452,2304 1452,2304 L1462,2304 C1472,2304 1457,2301 1466,2300 C1475,2300 1464,2304 1474,2304 L1485,2304 1485,2304 L1485,2294 C1485,2284 1491,2297 1491,2287 C1491,2277 1485,2291 1485,2281 L1485,2272"/></g><clipPath id="c" clipRule="evenodd" fill="transparent"><use href="#t9274"/></clipPath></defs><svg viewBox="1447 2261 45 44" preserveAspectRatio="xMinYMin meet"><svg width="4380" height="2430"><g><image crossorigin="anonymous" x="0" y="0" href="https://nftpuzzle.license-token.com/assets/completepuzzle.svg" width="100%" height="100%" /><g class="links"><use href="#t9274"/></g></g></svg><svg x="1477" y="2290" height="9%" width="9%" viewBox="0 0 330 330"><g><a xlink:href="https://nftpuzzle.license-token.com/" class="links"><title>See the most innovative NFT based token software licensing project</title><path fill="#E4CF37" id="more" d="M165,0C74.019,0,0,74.019,0,165s74.019,165,165,165s165-74.019,165-165S255.981,0,165,0z M85,190 c-13.785,0-25-11.215-25-25s11.215-25,25-25s25,11.215,25,25S98.785,190,85,190z M165,190c-13.785,0-25-11.215-25-25 s11.215-25,25-25s25,11.215,25,25S178.785,190,165,190z M245,190c-13.785,0-25-11.215-25-25s11.215-25,25-25 c13.785,0,25,11.215,25,25S258.785,190,245,190z"></path></a></g></svg></svg></svg>