<svg version="1.1" xmlns="http://www.w3.org/2000/svg" xmlns:xlink="http://www.w3.org/1999/xlink" fill="transparent" x="0" y="0" width="350" height="350" preserveAspectRatio="xMinYMin slice"><style type="text/css">.links{fill:transparent;stroke: #E4CF37;}.links:hover{fill:#63D272; opacity:0.4;}</style><defs><g id="allt"><path id="t9275" d="M1518,2272 L1507,2272 C1496,2272 1512,2276 1502,2276 C1492,2277 1505,2272 1495,2272 L1485,2272 1485,2272 L1485,2281 C1485,2291 1491,2277 1491,2287 C1491,2297 1485,2284 1485,2294 L1485,2304 1485,2304 L1495,2304 C1505,2304 1490,2310 1500,2310 C1511,2310 1497,2304 1507,2304 L1518,2304 1518,2304 L1518,2295 C1518,2286 1508,2294 1509,2286 C1510,2278 1520,2292 1519,2282 L1518,2272"/></g><clipPath id="c" clipRule="evenodd" fill="transparent"><use href="#t9275"/></clipPath></defs><svg viewBox="1484 2271 37 40" preserveAspectRatio="xMinYMin meet"><svg width="4380" height="2430"><g><image crossorigin="anonymous" x="0" y="0" href="https://nftpuzzle.license-token.com/assets/completepuzzle.svg" width="100%" height="100%" /><g class="links"><use href="#t9275"/></g></g></svg><svg x="1506" y="2296" height="9%" width="9%" viewBox="0 0 330 330"><g><a xlink:href="https://nftpuzzle.license-token.com/" class="links"><title>See the most innovative NFT based token software licensing project</title><path fill="#E4CF37" id="more" d="M165,0C74.019,0,0,74.019,0,165s74.019,165,165,165s165-74.019,165-165S255.981,0,165,0z M85,190 c-13.785,0-25-11.215-25-25s11.215-25,25-25s25,11.215,25,25S98.785,190,85,190z M165,190c-13.785,0-25-11.215-25-25 s11.215-25,25-25s25,11.215,25,25S178.785,190,165,190z M245,190c-13.785,0-25-11.215-25-25s11.215-25,25-25 c13.785,0,25,11.215,25,25S258.785,190,245,190z"></path></a></g></svg></svg></svg>