<svg version="1.1" xmlns="http://www.w3.org/2000/svg" xmlns:xlink="http://www.w3.org/1999/xlink" fill="transparent" x="0" y="0" width="350" height="350" preserveAspectRatio="xMinYMin slice"><style type="text/css">.links{fill:transparent;stroke: #E4CF37;}.links:hover{fill:#63D272; opacity:0.4;}</style><defs><g id="allt"><path id="t9277" d="M1584,2272 L1574,2270 C1565,2268 1577,2283 1567,2282 C1557,2281 1569,2270 1560,2271 L1551,2272 1551,2272 L1548,2282 C1546,2293 1563,2279 1562,2287 C1562,2296 1550,2284 1550,2294 L1551,2304 1551,2304 L1561,2301 C1572,2299 1558,2315 1567,2315 C1576,2315 1563,2303 1573,2303 L1584,2304 1584,2304 L1584,2293 C1585,2283 1578,2296 1579,2288 C1581,2281 1586,2291 1585,2281 L1584,2272"/></g><clipPath id="c" clipRule="evenodd" fill="transparent"><use href="#t9277"/></clipPath></defs><svg viewBox="1545 2267 42 49" preserveAspectRatio="xMinYMin meet"><svg width="4380" height="2430"><g><image crossorigin="anonymous" x="0" y="0" href="https://nftpuzzle.license-token.com/assets/completepuzzle.svg" width="100%" height="100%" /><g class="links"><use href="#t9277"/></g></g></svg><svg x="1572" y="2301" height="9%" width="9%" viewBox="0 0 330 330"><g><a xlink:href="https://nftpuzzle.license-token.com/" class="links"><title>See the most innovative NFT based token software licensing project</title><path fill="#E4CF37" id="more" d="M165,0C74.019,0,0,74.019,0,165s74.019,165,165,165s165-74.019,165-165S255.981,0,165,0z M85,190 c-13.785,0-25-11.215-25-25s11.215-25,25-25s25,11.215,25,25S98.785,190,85,190z M165,190c-13.785,0-25-11.215-25-25 s11.215-25,25-25s25,11.215,25,25S178.785,190,165,190z M245,190c-13.785,0-25-11.215-25-25s11.215-25,25-25 c13.785,0,25,11.215,25,25S258.785,190,245,190z"></path></a></g></svg></svg></svg>