<svg version="1.1" xmlns="http://www.w3.org/2000/svg" xmlns:xlink="http://www.w3.org/1999/xlink" fill="transparent" x="0" y="0" width="350" height="350" preserveAspectRatio="xMinYMin slice"><style type="text/css">.links{fill:transparent;stroke: #E4CF37;}.links:hover{fill:#63D272; opacity:0.4;}</style><defs><g id="allt"><path id="t9282" d="M1749,2272 L1738,2271 C1727,2270 1742,2276 1733,2277 C1725,2278 1734,2270 1725,2271 L1716,2272 1716,2272 L1714,2281 C1712,2291 1726,2281 1725,2288 C1725,2296 1716,2282 1716,2293 L1716,2304 1716,2304 L1726,2302 C1736,2300 1725,2314 1733,2313 C1741,2313 1727,2304 1738,2304 L1749,2304 1749,2304 L1750,2294 C1752,2284 1743,2297 1744,2288 C1746,2279 1749,2290 1749,2281 L1749,2272"/></g><clipPath id="c" clipRule="evenodd" fill="transparent"><use href="#t9282"/></clipPath></defs><svg viewBox="1711 2269 42 46" preserveAspectRatio="xMinYMin meet"><svg width="4380" height="2430"><g><image crossorigin="anonymous" x="0" y="0" href="https://nftpuzzle.license-token.com/assets/completepuzzle.svg" width="100%" height="100%" /><g class="links"><use href="#t9282"/></g></g></svg><svg x="1738" y="2300" height="9%" width="9%" viewBox="0 0 330 330"><g><a xlink:href="https://nftpuzzle.license-token.com/" class="links"><title>See the most innovative NFT based token software licensing project</title><path fill="#E4CF37" id="more" d="M165,0C74.019,0,0,74.019,0,165s74.019,165,165,165s165-74.019,165-165S255.981,0,165,0z M85,190 c-13.785,0-25-11.215-25-25s11.215-25,25-25s25,11.215,25,25S98.785,190,85,190z M165,190c-13.785,0-25-11.215-25-25 s11.215-25,25-25s25,11.215,25,25S178.785,190,165,190z M245,190c-13.785,0-25-11.215-25-25s11.215-25,25-25 c13.785,0,25,11.215,25,25S258.785,190,245,190z"></path></a></g></svg></svg></svg>