<svg version="1.1" xmlns="http://www.w3.org/2000/svg" xmlns:xlink="http://www.w3.org/1999/xlink" fill="transparent" x="0" y="0" width="350" height="350" preserveAspectRatio="xMinYMin slice"><style type="text/css">.links{fill:transparent;stroke: #E4CF37;}.links:hover{fill:#63D272; opacity:0.4;}</style><defs><g id="allt"><path id="t9290" d="M2013,2272 L2002,2271 C1991,2270 2003,2277 1994,2277 C1985,2277 1999,2269 1989,2270 L1980,2272 1980,2272 L1980,2280 C1980,2289 1986,2278 1988,2287 C1990,2297 1975,2283 1977,2293 L1980,2304 1980,2304 L1989,2304 C1998,2304 1986,2310 1996,2312 C2006,2314 1992,2299 2002,2301 L2013,2304 2013,2304 L2010,2293 C2008,2283 2021,2296 2022,2286 C2024,2276 2011,2293 2012,2282 L2013,2272"/></g><clipPath id="c" clipRule="evenodd" fill="transparent"><use href="#t9290"/></clipPath></defs><svg viewBox="1974 2268 51 47" preserveAspectRatio="xMinYMin meet"><svg width="4380" height="2430"><g><image crossorigin="anonymous" x="0" y="0" href="https://nftpuzzle.license-token.com/assets/completepuzzle.svg" width="100%" height="100%" /><g class="links"><use href="#t9290"/></g></g></svg><svg x="2010" y="2300" height="9%" width="9%" viewBox="0 0 330 330"><g><a xlink:href="https://nftpuzzle.license-token.com/" class="links"><title>See the most innovative NFT based token software licensing project</title><path fill="#E4CF37" id="more" d="M165,0C74.019,0,0,74.019,0,165s74.019,165,165,165s165-74.019,165-165S255.981,0,165,0z M85,190 c-13.785,0-25-11.215-25-25s11.215-25,25-25s25,11.215,25,25S98.785,190,85,190z M165,190c-13.785,0-25-11.215-25-25 s11.215-25,25-25s25,11.215,25,25S178.785,190,165,190z M245,190c-13.785,0-25-11.215-25-25s11.215-25,25-25 c13.785,0,25,11.215,25,25S258.785,190,245,190z"></path></a></g></svg></svg></svg>