<svg version="1.1" xmlns="http://www.w3.org/2000/svg" xmlns:xlink="http://www.w3.org/1999/xlink" fill="transparent" x="0" y="0" width="350" height="350" preserveAspectRatio="xMinYMin slice"><style type="text/css">.links{fill:transparent;stroke: #E4CF37;}.links:hover{fill:#63D272; opacity:0.4;}</style><defs><g id="allt"><path id="t9291" d="M2046,2272 L2036,2271 C2026,2270 2038,2276 2029,2276 C2020,2276 2031,2272 2022,2272 L2013,2272 2013,2272 L2012,2282 C2011,2293 2024,2276 2022,2286 C2021,2296 2008,2283 2010,2293 L2013,2304 2013,2304 L2023,2303 C2034,2302 2017,2315 2027,2313 C2038,2312 2025,2299 2035,2301 L2046,2304 2046,2304 L2046,2294 C2047,2285 2036,2298 2037,2289 C2038,2280 2046,2289 2046,2280 L2046,2272"/></g><clipPath id="c" clipRule="evenodd" fill="transparent"><use href="#t9291"/></clipPath></defs><svg viewBox="2007 2269 41 47" preserveAspectRatio="xMinYMin meet"><svg width="4380" height="2430"><g><image crossorigin="anonymous" x="0" y="0" href="https://nftpuzzle.license-token.com/assets/completepuzzle.svg" width="100%" height="100%" /><g class="links"><use href="#t9291"/></g></g></svg><svg x="2033" y="2301" height="9%" width="9%" viewBox="0 0 330 330"><g><a xlink:href="https://nftpuzzle.license-token.com/" class="links"><title>See the most innovative NFT based token software licensing project</title><path fill="#E4CF37" id="more" d="M165,0C74.019,0,0,74.019,0,165s74.019,165,165,165s165-74.019,165-165S255.981,0,165,0z M85,190 c-13.785,0-25-11.215-25-25s11.215-25,25-25s25,11.215,25,25S98.785,190,85,190z M165,190c-13.785,0-25-11.215-25-25 s11.215-25,25-25s25,11.215,25,25S178.785,190,165,190z M245,190c-13.785,0-25-11.215-25-25s11.215-25,25-25 c13.785,0,25,11.215,25,25S258.785,190,245,190z"></path></a></g></svg></svg></svg>