<svg version="1.1" xmlns="http://www.w3.org/2000/svg" xmlns:xlink="http://www.w3.org/1999/xlink" fill="transparent" x="0" y="0" width="350" height="350" preserveAspectRatio="xMinYMin slice"><style type="text/css">.links{fill:transparent;stroke: #E4CF37;}.links:hover{fill:#63D272; opacity:0.4;}</style><defs><g id="allt"><path id="t9299" d="M2310,2272 L2300,2272 C2290,2272 2304,2275 2293,2274 C2282,2274 2297,2272 2287,2272 L2277,2272 2277,2272 L2277,2282 C2277,2293 2273,2279 2273,2287 C2274,2296 2278,2283 2277,2293 L2277,2304 2277,2304 L2287,2304 C2298,2304 2284,2300 2293,2300 C2302,2301 2288,2305 2299,2304 L2310,2304 2310,2304 L2310,2294 C2310,2284 2305,2297 2305,2287 C2305,2278 2310,2290 2310,2281 L2310,2272"/></g><clipPath id="c" clipRule="evenodd" fill="transparent"><use href="#t9299"/></clipPath></defs><svg viewBox="2272 2271 39 35" preserveAspectRatio="xMinYMin meet"><svg width="4380" height="2430"><g><image crossorigin="anonymous" x="0" y="0" href="https://nftpuzzle.license-token.com/assets/completepuzzle.svg" width="100%" height="100%" /><g class="links"><use href="#t9299"/></g></g></svg><svg x="2296" y="2291" height="9%" width="9%" viewBox="0 0 330 330"><g><a xlink:href="https://nftpuzzle.license-token.com/" class="links"><title>See the most innovative NFT based token software licensing project</title><path fill="#E4CF37" id="more" d="M165,0C74.019,0,0,74.019,0,165s74.019,165,165,165s165-74.019,165-165S255.981,0,165,0z M85,190 c-13.785,0-25-11.215-25-25s11.215-25,25-25s25,11.215,25,25S98.785,190,85,190z M165,190c-13.785,0-25-11.215-25-25 s11.215-25,25-25s25,11.215,25,25S178.785,190,165,190z M245,190c-13.785,0-25-11.215-25-25s11.215-25,25-25 c13.785,0,25,11.215,25,25S258.785,190,245,190z"></path></a></g></svg></svg></svg>