<svg version="1.1" xmlns="http://www.w3.org/2000/svg" xmlns:xlink="http://www.w3.org/1999/xlink" fill="transparent" x="0" y="0" width="350" height="350" preserveAspectRatio="xMinYMin slice"><style type="text/css">.links{fill:transparent;stroke: #E4CF37;}.links:hover{fill:#63D272; opacity:0.4;}</style><defs><g id="allt"><path id="t9307" d="M2574,2272 L2563,2272 C2552,2272 2567,2268 2557,2269 C2548,2270 2559,2273 2550,2272 L2541,2272 2541,2272 L2541,2281 C2541,2291 2546,2280 2545,2288 C2545,2297 2541,2285 2541,2294 L2541,2304 2541,2304 L2551,2304 C2561,2304 2550,2309 2558,2308 C2567,2308 2554,2304 2564,2304 L2574,2304 2574,2304 L2575,2293 C2577,2283 2570,2296 2569,2288 C2568,2280 2576,2291 2575,2281 L2574,2272"/></g><clipPath id="c" clipRule="evenodd" fill="transparent"><use href="#t9307"/></clipPath></defs><svg viewBox="2540 2267 38 43" preserveAspectRatio="xMinYMin meet"><svg width="4380" height="2430"><g><image crossorigin="anonymous" x="0" y="0" href="https://nftpuzzle.license-token.com/assets/completepuzzle.svg" width="100%" height="100%" /><g class="links"><use href="#t9307"/></g></g></svg><svg x="2563" y="2295" height="9%" width="9%" viewBox="0 0 330 330"><g><a xlink:href="https://nftpuzzle.license-token.com/" class="links"><title>See the most innovative NFT based token software licensing project</title><path fill="#E4CF37" id="more" d="M165,0C74.019,0,0,74.019,0,165s74.019,165,165,165s165-74.019,165-165S255.981,0,165,0z M85,190 c-13.785,0-25-11.215-25-25s11.215-25,25-25s25,11.215,25,25S98.785,190,85,190z M165,190c-13.785,0-25-11.215-25-25 s11.215-25,25-25s25,11.215,25,25S178.785,190,165,190z M245,190c-13.785,0-25-11.215-25-25s11.215-25,25-25 c13.785,0,25,11.215,25,25S258.785,190,245,190z"></path></a></g></svg></svg></svg>