<svg version="1.1" xmlns="http://www.w3.org/2000/svg" xmlns:xlink="http://www.w3.org/1999/xlink" fill="transparent" x="0" y="0" width="350" height="350" preserveAspectRatio="xMinYMin slice"><style type="text/css">.links{fill:transparent;stroke: #E4CF37;}.links:hover{fill:#63D272; opacity:0.4;}</style><defs><g id="allt"><path id="t9309" d="M2640,2272 L2629,2272 C2619,2272 2634,2265 2625,2265 C2616,2265 2626,2272 2616,2272 L2607,2272 2607,2272 L2606,2282 C2606,2292 2610,2278 2611,2286 C2612,2295 2607,2286 2607,2295 L2607,2304 2607,2304 L2617,2303 C2627,2303 2613,2307 2622,2308 C2631,2309 2621,2304 2630,2304 L2640,2304 2640,2304 L2640,2293 C2640,2282 2645,2297 2644,2288 C2644,2279 2639,2291 2639,2281 L2640,2272"/></g><clipPath id="c" clipRule="evenodd" fill="transparent"><use href="#t9309"/></clipPath></defs><svg viewBox="2605 2264 41 46" preserveAspectRatio="xMinYMin meet"><svg width="4380" height="2430"><g><image crossorigin="anonymous" x="0" y="0" href="https://nftpuzzle.license-token.com/assets/completepuzzle.svg" width="100%" height="100%" /><g class="links"><use href="#t9309"/></g></g></svg><svg x="2631" y="2295" height="9%" width="9%" viewBox="0 0 330 330"><g><a xlink:href="https://nftpuzzle.license-token.com/" class="links"><title>See the most innovative NFT based token software licensing project</title><path fill="#E4CF37" id="more" d="M165,0C74.019,0,0,74.019,0,165s74.019,165,165,165s165-74.019,165-165S255.981,0,165,0z M85,190 c-13.785,0-25-11.215-25-25s11.215-25,25-25s25,11.215,25,25S98.785,190,85,190z M165,190c-13.785,0-25-11.215-25-25 s11.215-25,25-25s25,11.215,25,25S178.785,190,165,190z M245,190c-13.785,0-25-11.215-25-25s11.215-25,25-25 c13.785,0,25,11.215,25,25S258.785,190,245,190z"></path></a></g></svg></svg></svg>