<svg version="1.1" xmlns="http://www.w3.org/2000/svg" xmlns:xlink="http://www.w3.org/1999/xlink" fill="transparent" x="0" y="0" width="350" height="350" preserveAspectRatio="xMinYMin slice"><style type="text/css">.links{fill:transparent;stroke: #E4CF37;}.links:hover{fill:#63D272; opacity:0.4;}</style><defs><g id="allt"><path id="t9310" d="M2673,2272 L2663,2274 C2653,2276 2667,2263 2655,2265 C2644,2268 2658,2272 2649,2272 L2640,2272 2640,2272 L2639,2281 C2639,2291 2644,2279 2644,2288 C2645,2297 2640,2282 2640,2293 L2640,2304 2640,2304 L2649,2303 C2659,2303 2647,2308 2656,2308 C2666,2309 2651,2304 2662,2304 L2673,2304 2673,2304 L2675,2293 C2677,2283 2663,2296 2662,2288 C2662,2280 2676,2292 2674,2282 L2673,2272"/></g><clipPath id="c" clipRule="evenodd" fill="transparent"><use href="#t9310"/></clipPath></defs><svg viewBox="2638 2262 40 48" preserveAspectRatio="xMinYMin meet"><svg width="4380" height="2430"><g><image crossorigin="anonymous" x="0" y="0" href="https://nftpuzzle.license-token.com/assets/completepuzzle.svg" width="100%" height="100%" /><g class="links"><use href="#t9310"/></g></g></svg><svg x="2663" y="2295" height="9%" width="9%" viewBox="0 0 330 330"><g><a xlink:href="https://nftpuzzle.license-token.com/" class="links"><title>See the most innovative NFT based token software licensing project</title><path fill="#E4CF37" id="more" d="M165,0C74.019,0,0,74.019,0,165s74.019,165,165,165s165-74.019,165-165S255.981,0,165,0z M85,190 c-13.785,0-25-11.215-25-25s11.215-25,25-25s25,11.215,25,25S98.785,190,85,190z M165,190c-13.785,0-25-11.215-25-25 s11.215-25,25-25s25,11.215,25,25S178.785,190,165,190z M245,190c-13.785,0-25-11.215-25-25s11.215-25,25-25 c13.785,0,25,11.215,25,25S258.785,190,245,190z"></path></a></g></svg></svg></svg>