<svg version="1.1" xmlns="http://www.w3.org/2000/svg" xmlns:xlink="http://www.w3.org/1999/xlink" fill="transparent" x="0" y="0" width="350" height="350" preserveAspectRatio="xMinYMin slice"><style type="text/css">.links{fill:transparent;stroke: #E4CF37;}.links:hover{fill:#63D272; opacity:0.4;}</style><defs><g id="allt"><path id="t9321" d="M3036,2272 L3026,2271 C3017,2271 3030,2278 3020,2280 C3011,2282 3024,2272 3013,2272 L3003,2272 3003,2272 L3003,2282 C3004,2292 2994,2279 2995,2286 C2996,2294 3006,2284 3004,2294 L3003,2304 3003,2304 L3013,2304 C3024,2305 3010,2296 3018,2296 C3026,2297 3015,2307 3025,2305 L3036,2304 3036,2304 L3036,2294 C3036,2285 3028,2297 3026,2288 C3024,2279 3038,2292 3037,2282 L3036,2272"/></g><clipPath id="c" clipRule="evenodd" fill="transparent"><use href="#t9321"/></clipPath></defs><svg viewBox="2993 2270 46 38" preserveAspectRatio="xMinYMin meet"><svg width="4380" height="2430"><g><image crossorigin="anonymous" x="0" y="0" href="https://nftpuzzle.license-token.com/assets/completepuzzle.svg" width="100%" height="100%" /><g class="links"><use href="#t9321"/></g></g></svg><svg x="3024" y="2293" height="9%" width="9%" viewBox="0 0 330 330"><g><a xlink:href="https://nftpuzzle.license-token.com/" class="links"><title>See the most innovative NFT based token software licensing project</title><path fill="#E4CF37" id="more" d="M165,0C74.019,0,0,74.019,0,165s74.019,165,165,165s165-74.019,165-165S255.981,0,165,0z M85,190 c-13.785,0-25-11.215-25-25s11.215-25,25-25s25,11.215,25,25S98.785,190,85,190z M165,190c-13.785,0-25-11.215-25-25 s11.215-25,25-25s25,11.215,25,25S178.785,190,165,190z M245,190c-13.785,0-25-11.215-25-25s11.215-25,25-25 c13.785,0,25,11.215,25,25S258.785,190,245,190z"></path></a></g></svg></svg></svg>