<svg version="1.1" xmlns="http://www.w3.org/2000/svg" xmlns:xlink="http://www.w3.org/1999/xlink" fill="transparent" x="0" y="0" width="350" height="350" preserveAspectRatio="xMinYMin slice"><style type="text/css">.links{fill:transparent;stroke: #E4CF37;}.links:hover{fill:#63D272; opacity:0.4;}</style><defs><g id="allt"><path id="t9322" d="M3069,2272 L3059,2272 C3049,2273 3060,2266 3052,2264 C3045,2263 3058,2274 3047,2273 L3036,2272 3036,2272 L3037,2282 C3038,2292 3024,2279 3026,2288 C3028,2297 3036,2285 3036,2294 L3036,2304 3036,2304 L3046,2305 C3057,2306 3043,2292 3052,2294 C3062,2296 3050,2304 3059,2304 L3069,2304 3069,2304 L3069,2294 C3070,2285 3064,2294 3064,2287 C3064,2281 3069,2291 3069,2281 L3069,2272"/></g><clipPath id="c" clipRule="evenodd" fill="transparent"><use href="#t9322"/></clipPath></defs><svg viewBox="3023 2262 48 45" preserveAspectRatio="xMinYMin meet"><svg width="4380" height="2430"><g><image crossorigin="anonymous" x="0" y="0" href="https://nftpuzzle.license-token.com/assets/completepuzzle.svg" width="100%" height="100%" /><g class="links"><use href="#t9322"/></g></g></svg><svg x="3056" y="2292" height="9%" width="9%" viewBox="0 0 330 330"><g><a xlink:href="https://nftpuzzle.license-token.com/" class="links"><title>See the most innovative NFT based token software licensing project</title><path fill="#E4CF37" id="more" d="M165,0C74.019,0,0,74.019,0,165s74.019,165,165,165s165-74.019,165-165S255.981,0,165,0z M85,190 c-13.785,0-25-11.215-25-25s11.215-25,25-25s25,11.215,25,25S98.785,190,85,190z M165,190c-13.785,0-25-11.215-25-25 s11.215-25,25-25s25,11.215,25,25S178.785,190,165,190z M245,190c-13.785,0-25-11.215-25-25s11.215-25,25-25 c13.785,0,25,11.215,25,25S258.785,190,245,190z"></path></a></g></svg></svg></svg>