<svg version="1.1" xmlns="http://www.w3.org/2000/svg" xmlns:xlink="http://www.w3.org/1999/xlink" fill="transparent" x="0" y="0" width="350" height="350" preserveAspectRatio="xMinYMin slice"><style type="text/css">.links{fill:transparent;stroke: #E4CF37;}.links:hover{fill:#63D272; opacity:0.4;}</style><defs><g id="allt"><path id="t9323" d="M3102,2272 L3091,2270 C3081,2269 3093,2281 3083,2281 C3073,2281 3090,2271 3079,2271 L3069,2272 3069,2272 L3069,2281 C3069,2291 3064,2281 3064,2287 C3064,2294 3070,2285 3069,2294 L3069,2304 3069,2304 L3079,2304 C3089,2304 3078,2299 3085,2299 C3092,2299 3083,2305 3092,2304 L3102,2304 3102,2304 L3100,2294 C3099,2284 3109,2296 3111,2287 C3113,2279 3101,2290 3101,2281 L3102,2272"/></g><clipPath id="c" clipRule="evenodd" fill="transparent"><use href="#t9323"/></clipPath></defs><svg viewBox="3063 2268 51 38" preserveAspectRatio="xMinYMin meet"><svg width="4380" height="2430"><g><image crossorigin="anonymous" x="0" y="0" href="https://nftpuzzle.license-token.com/assets/completepuzzle.svg" width="100%" height="100%" /><g class="links"><use href="#t9323"/></g></g></svg><svg x="3099" y="2291" height="9%" width="9%" viewBox="0 0 330 330"><g><a xlink:href="https://nftpuzzle.license-token.com/" class="links"><title>See the most innovative NFT based token software licensing project</title><path fill="#E4CF37" id="more" d="M165,0C74.019,0,0,74.019,0,165s74.019,165,165,165s165-74.019,165-165S255.981,0,165,0z M85,190 c-13.785,0-25-11.215-25-25s11.215-25,25-25s25,11.215,25,25S98.785,190,85,190z M165,190c-13.785,0-25-11.215-25-25 s11.215-25,25-25s25,11.215,25,25S178.785,190,165,190z M245,190c-13.785,0-25-11.215-25-25s11.215-25,25-25 c13.785,0,25,11.215,25,25S258.785,190,245,190z"></path></a></g></svg></svg></svg>