<svg version="1.1" xmlns="http://www.w3.org/2000/svg" xmlns:xlink="http://www.w3.org/1999/xlink" fill="transparent" x="0" y="0" width="350" height="350" preserveAspectRatio="xMinYMin slice"><style type="text/css">.links{fill:transparent;stroke: #E4CF37;}.links:hover{fill:#63D272; opacity:0.4;}</style><defs><g id="allt"><path id="t9327" d="M3234,2272 L3223,2272 C3213,2272 3225,2265 3217,2266 C3209,2267 3222,2273 3211,2272 L3201,2272 3201,2272 L3203,2281 C3205,2291 3195,2280 3195,2289 C3195,2298 3207,2285 3204,2294 L3201,2304 3201,2304 L3211,2306 C3221,2308 3209,2298 3218,2298 C3228,2298 3214,2310 3224,2307 L3234,2304 3234,2304 L3234,2294 C3234,2285 3227,2295 3224,2287 C3222,2279 3238,2291 3236,2281 L3234,2272"/></g><clipPath id="c" clipRule="evenodd" fill="transparent"><use href="#t9327"/></clipPath></defs><svg viewBox="3194 2264 45 47" preserveAspectRatio="xMinYMin meet"><svg width="4380" height="2430"><g><image crossorigin="anonymous" x="0" y="0" href="https://nftpuzzle.license-token.com/assets/completepuzzle.svg" width="100%" height="100%" /><g class="links"><use href="#t9327"/></g></g></svg><svg x="3224" y="2296" height="9%" width="9%" viewBox="0 0 330 330"><g><a xlink:href="https://nftpuzzle.license-token.com/" class="links"><title>See the most innovative NFT based token software licensing project</title><path fill="#E4CF37" id="more" d="M165,0C74.019,0,0,74.019,0,165s74.019,165,165,165s165-74.019,165-165S255.981,0,165,0z M85,190 c-13.785,0-25-11.215-25-25s11.215-25,25-25s25,11.215,25,25S98.785,190,85,190z M165,190c-13.785,0-25-11.215-25-25 s11.215-25,25-25s25,11.215,25,25S178.785,190,165,190z M245,190c-13.785,0-25-11.215-25-25s11.215-25,25-25 c13.785,0,25,11.215,25,25S258.785,190,245,190z"></path></a></g></svg></svg></svg>