<svg version="1.1" xmlns="http://www.w3.org/2000/svg" xmlns:xlink="http://www.w3.org/1999/xlink" fill="transparent" x="0" y="0" width="350" height="350" preserveAspectRatio="xMinYMin slice"><style type="text/css">.links{fill:transparent;stroke: #E4CF37;}.links:hover{fill:#63D272; opacity:0.4;}</style><defs><g id="allt"><path id="t9329" d="M3300,2272 L3290,2272 C3280,2272 3291,2279 3283,2278 C3276,2277 3288,2269 3277,2270 L3267,2272 3267,2272 L3268,2281 C3269,2291 3264,2279 3264,2287 C3264,2296 3268,2282 3267,2293 L3267,2304 3267,2304 L3277,2305 C3287,2306 3274,2301 3283,2301 C3292,2301 3278,2305 3289,2304 L3300,2304 3300,2304 L3299,2293 C3298,2282 3308,2296 3307,2286 C3306,2277 3297,2289 3298,2280 L3300,2272"/></g><clipPath id="c" clipRule="evenodd" fill="transparent"><use href="#t9329"/></clipPath></defs><svg viewBox="3263 2268 46 39" preserveAspectRatio="xMinYMin meet"><svg width="4380" height="2430"><g><image crossorigin="anonymous" x="0" y="0" href="https://nftpuzzle.license-token.com/assets/completepuzzle.svg" width="100%" height="100%" /><g class="links"><use href="#t9329"/></g></g></svg><svg x="3294" y="2292" height="9%" width="9%" viewBox="0 0 330 330"><g><a xlink:href="https://nftpuzzle.license-token.com/" class="links"><title>See the most innovative NFT based token software licensing project</title><path fill="#E4CF37" id="more" d="M165,0C74.019,0,0,74.019,0,165s74.019,165,165,165s165-74.019,165-165S255.981,0,165,0z M85,190 c-13.785,0-25-11.215-25-25s11.215-25,25-25s25,11.215,25,25S98.785,190,85,190z M165,190c-13.785,0-25-11.215-25-25 s11.215-25,25-25s25,11.215,25,25S178.785,190,165,190z M245,190c-13.785,0-25-11.215-25-25s11.215-25,25-25 c13.785,0,25,11.215,25,25S258.785,190,245,190z"></path></a></g></svg></svg></svg>