<svg version="1.1" xmlns="http://www.w3.org/2000/svg" xmlns:xlink="http://www.w3.org/1999/xlink" fill="transparent" x="0" y="0" width="350" height="350" preserveAspectRatio="xMinYMin slice"><style type="text/css">.links{fill:transparent;stroke: #E4CF37;}.links:hover{fill:#63D272; opacity:0.4;}</style><defs><g id="allt"><path id="t9332" d="M3399,2272 L3388,2269 C3378,2267 3392,2282 3381,2281 C3371,2281 3386,2267 3376,2269 L3366,2272 3366,2272 L3366,2281 C3366,2291 3360,2279 3359,2287 C3359,2296 3366,2284 3366,2294 L3366,2304 3366,2304 L3376,2304 C3386,2304 3373,2298 3381,2297 C3390,2297 3378,2304 3388,2304 L3399,2304 3399,2304 L3397,2293 C3395,2282 3411,2299 3409,2288 C3407,2277 3395,2291 3397,2281 L3399,2272"/></g><clipPath id="c" clipRule="evenodd" fill="transparent"><use href="#t9332"/></clipPath></defs><svg viewBox="3358 2266 54 39" preserveAspectRatio="xMinYMin meet"><svg width="4380" height="2430"><g><image crossorigin="anonymous" x="0" y="0" href="https://nftpuzzle.license-token.com/assets/completepuzzle.svg" width="100%" height="100%" /><g class="links"><use href="#t9332"/></g></g></svg><svg x="3397" y="2290" height="9%" width="9%" viewBox="0 0 330 330"><g><a xlink:href="https://nftpuzzle.license-token.com/" class="links"><title>See the most innovative NFT based token software licensing project</title><path fill="#E4CF37" id="more" d="M165,0C74.019,0,0,74.019,0,165s74.019,165,165,165s165-74.019,165-165S255.981,0,165,0z M85,190 c-13.785,0-25-11.215-25-25s11.215-25,25-25s25,11.215,25,25S98.785,190,85,190z M165,190c-13.785,0-25-11.215-25-25 s11.215-25,25-25s25,11.215,25,25S178.785,190,165,190z M245,190c-13.785,0-25-11.215-25-25s11.215-25,25-25 c13.785,0,25,11.215,25,25S258.785,190,245,190z"></path></a></g></svg></svg></svg>