<svg version="1.1" xmlns="http://www.w3.org/2000/svg" xmlns:xlink="http://www.w3.org/1999/xlink" fill="transparent" x="0" y="0" width="350" height="350" preserveAspectRatio="xMinYMin slice"><style type="text/css">.links{fill:transparent;stroke: #E4CF37;}.links:hover{fill:#63D272; opacity:0.4;}</style><defs><g id="allt"><path id="t9338" d="M3597,2272 L3586,2274 C3576,2276 3591,2264 3580,2262 C3570,2260 3584,2275 3574,2273 L3564,2272 3564,2272 L3563,2282 C3563,2292 3573,2281 3574,2288 C3575,2295 3560,2286 3562,2295 L3564,2304 3564,2304 L3574,2303 C3584,2303 3573,2313 3580,2313 C3587,2314 3578,2300 3587,2302 L3597,2304 3597,2304 L3597,2295 C3598,2286 3592,2298 3593,2288 C3594,2278 3599,2289 3598,2280 L3597,2272"/></g><clipPath id="c" clipRule="evenodd" fill="transparent"><use href="#t9338"/></clipPath></defs><svg viewBox="3559 2259 41 56" preserveAspectRatio="xMinYMin meet"><svg width="4380" height="2430"><g><image crossorigin="anonymous" x="0" y="0" href="https://nftpuzzle.license-token.com/assets/completepuzzle.svg" width="100%" height="100%" /><g class="links"><use href="#t9338"/></g></g></svg><svg x="3585" y="2300" height="9%" width="9%" viewBox="0 0 330 330"><g><a xlink:href="https://nftpuzzle.license-token.com/" class="links"><title>See the most innovative NFT based token software licensing project</title><path fill="#E4CF37" id="more" d="M165,0C74.019,0,0,74.019,0,165s74.019,165,165,165s165-74.019,165-165S255.981,0,165,0z M85,190 c-13.785,0-25-11.215-25-25s11.215-25,25-25s25,11.215,25,25S98.785,190,85,190z M165,190c-13.785,0-25-11.215-25-25 s11.215-25,25-25s25,11.215,25,25S178.785,190,165,190z M245,190c-13.785,0-25-11.215-25-25s11.215-25,25-25 c13.785,0,25,11.215,25,25S258.785,190,245,190z"></path></a></g></svg></svg></svg>