<svg version="1.1" xmlns="http://www.w3.org/2000/svg" xmlns:xlink="http://www.w3.org/1999/xlink" fill="transparent" x="0" y="0" width="350" height="350" preserveAspectRatio="xMinYMin slice"><style type="text/css">.links{fill:transparent;stroke: #E4CF37;}.links:hover{fill:#63D272; opacity:0.4;}</style><defs><g id="allt"><path id="t9344" d="M3795,2272 L3784,2272 C3773,2272 3787,2261 3777,2263 C3768,2266 3780,2272 3771,2272 L3762,2272 3762,2272 L3762,2281 C3763,2291 3757,2279 3758,2288 C3759,2298 3762,2284 3762,2294 L3762,2304 3762,2304 L3772,2304 C3782,2305 3769,2299 3779,2300 C3789,2301 3774,2304 3784,2304 L3795,2304 3795,2304 L3795,2294 C3796,2284 3785,2298 3786,2288 C3788,2278 3795,2290 3795,2281 L3795,2272"/></g><clipPath id="c" clipRule="evenodd" fill="transparent"><use href="#t9344"/></clipPath></defs><svg viewBox="3756 2260 41 46" preserveAspectRatio="xMinYMin meet"><svg width="4380" height="2430"><g><image crossorigin="anonymous" x="0" y="0" href="https://nftpuzzle.license-token.com/assets/completepuzzle.svg" width="100%" height="100%" /><g class="links"><use href="#t9344"/></g></g></svg><svg x="3782" y="2291" height="9%" width="9%" viewBox="0 0 330 330"><g><a xlink:href="https://nftpuzzle.license-token.com/" class="links"><title>See the most innovative NFT based token software licensing project</title><path fill="#E4CF37" id="more" d="M165,0C74.019,0,0,74.019,0,165s74.019,165,165,165s165-74.019,165-165S255.981,0,165,0z M85,190 c-13.785,0-25-11.215-25-25s11.215-25,25-25s25,11.215,25,25S98.785,190,85,190z M165,190c-13.785,0-25-11.215-25-25 s11.215-25,25-25s25,11.215,25,25S178.785,190,165,190z M245,190c-13.785,0-25-11.215-25-25s11.215-25,25-25 c13.785,0,25,11.215,25,25S258.785,190,245,190z"></path></a></g></svg></svg></svg>