<svg version="1.1" xmlns="http://www.w3.org/2000/svg" xmlns:xlink="http://www.w3.org/1999/xlink" fill="transparent" x="0" y="0" width="350" height="350" preserveAspectRatio="xMinYMin slice"><style type="text/css">.links{fill:transparent;stroke: #E4CF37;}.links:hover{fill:#63D272; opacity:0.4;}</style><defs><g id="allt"><path id="t9346" d="M3861,2272 L3851,2272 C3842,2272 3855,2268 3845,2267 C3836,2266 3848,2272 3838,2272 L3828,2272 3828,2272 L3828,2282 C3828,2292 3834,2281 3834,2290 C3834,2299 3822,2284 3825,2294 L3828,2304 3828,2304 L3838,2304 C3849,2304 3837,2310 3846,2310 C3856,2310 3840,2298 3850,2301 L3861,2304 3861,2304 L3861,2293 C3861,2283 3858,2298 3856,2287 C3855,2276 3861,2291 3861,2281 L3861,2272"/></g><clipPath id="c" clipRule="evenodd" fill="transparent"><use href="#t9346"/></clipPath></defs><svg viewBox="3821 2265 41 46" preserveAspectRatio="xMinYMin meet"><svg width="4380" height="2430"><g><image crossorigin="anonymous" x="0" y="0" href="https://nftpuzzle.license-token.com/assets/completepuzzle.svg" width="100%" height="100%" /><g class="links"><use href="#t9346"/></g></g></svg><svg x="3847" y="2296" height="9%" width="9%" viewBox="0 0 330 330"><g><a xlink:href="https://nftpuzzle.license-token.com/" class="links"><title>See the most innovative NFT based token software licensing project</title><path fill="#E4CF37" id="more" d="M165,0C74.019,0,0,74.019,0,165s74.019,165,165,165s165-74.019,165-165S255.981,0,165,0z M85,190 c-13.785,0-25-11.215-25-25s11.215-25,25-25s25,11.215,25,25S98.785,190,85,190z M165,190c-13.785,0-25-11.215-25-25 s11.215-25,25-25s25,11.215,25,25S178.785,190,165,190z M245,190c-13.785,0-25-11.215-25-25s11.215-25,25-25 c13.785,0,25,11.215,25,25S258.785,190,245,190z"></path></a></g></svg></svg></svg>