<svg version="1.1" xmlns="http://www.w3.org/2000/svg" xmlns:xlink="http://www.w3.org/1999/xlink" fill="transparent" x="0" y="0" width="350" height="350" preserveAspectRatio="xMinYMin slice"><style type="text/css">.links{fill:transparent;stroke: #E4CF37;}.links:hover{fill:#63D272; opacity:0.4;}</style><defs><g id="allt"><path id="t9347" d="M3894,2272 L3884,2272 C3874,2272 3888,2278 3879,2276 C3870,2275 3882,2272 3871,2272 L3861,2272 3861,2272 L3861,2281 C3861,2291 3855,2276 3856,2287 C3858,2298 3861,2283 3861,2293 L3861,2304 3861,2304 L3870,2304 C3880,2304 3865,2298 3876,2299 C3888,2301 3872,2304 3883,2304 L3894,2304 3894,2304 L3895,2295 C3897,2286 3883,2297 3884,2287 C3886,2277 3898,2292 3896,2282 L3894,2272"/></g><clipPath id="c" clipRule="evenodd" fill="transparent"><use href="#t9347"/></clipPath></defs><svg viewBox="3854 2271 45 34" preserveAspectRatio="xMinYMin meet"><svg width="4380" height="2430"><g><image crossorigin="anonymous" x="0" y="0" href="https://nftpuzzle.license-token.com/assets/completepuzzle.svg" width="100%" height="100%" /><g class="links"><use href="#t9347"/></g></g></svg><svg x="3884" y="2290" height="9%" width="9%" viewBox="0 0 330 330"><g><a xlink:href="https://nftpuzzle.license-token.com/" class="links"><title>See the most innovative NFT based token software licensing project</title><path fill="#E4CF37" id="more" d="M165,0C74.019,0,0,74.019,0,165s74.019,165,165,165s165-74.019,165-165S255.981,0,165,0z M85,190 c-13.785,0-25-11.215-25-25s11.215-25,25-25s25,11.215,25,25S98.785,190,85,190z M165,190c-13.785,0-25-11.215-25-25 s11.215-25,25-25s25,11.215,25,25S178.785,190,165,190z M245,190c-13.785,0-25-11.215-25-25s11.215-25,25-25 c13.785,0,25,11.215,25,25S258.785,190,245,190z"></path></a></g></svg></svg></svg>