<svg version="1.1" xmlns="http://www.w3.org/2000/svg" xmlns:xlink="http://www.w3.org/1999/xlink" fill="transparent" x="0" y="0" width="350" height="350" preserveAspectRatio="xMinYMin slice"><style type="text/css">.links{fill:transparent;stroke: #E4CF37;}.links:hover{fill:#63D272; opacity:0.4;}</style><defs><g id="allt"><path id="t9353" d="M4092,2272 L4081,2272 C4071,2272 4084,2270 4075,2268 C4066,2267 4079,2272 4069,2272 L4059,2272 4059,2272 L4058,2280 C4057,2289 4064,2279 4064,2288 C4065,2297 4057,2283 4058,2293 L4059,2304 4059,2304 L4068,2303 C4077,2302 4066,2309 4075,2309 C4085,2310 4071,2302 4081,2303 L4092,2304 4092,2304 L4092,2294 C4092,2284 4089,2297 4087,2287 C4086,2277 4092,2289 4092,2280 L4092,2272"/></g><clipPath id="c" clipRule="evenodd" fill="transparent"><use href="#t9353"/></clipPath></defs><svg viewBox="4056 2266 37 45" preserveAspectRatio="xMinYMin meet"><svg width="4380" height="2430"><g><image crossorigin="anonymous" x="0" y="0" href="https://nftpuzzle.license-token.com/assets/completepuzzle.svg" width="100%" height="100%" /><g class="links"><use href="#t9353"/></g></g></svg><svg x="4078" y="2296" height="9%" width="9%" viewBox="0 0 330 330"><g><a xlink:href="https://nftpuzzle.license-token.com/" class="links"><title>See the most innovative NFT based token software licensing project</title><path fill="#E4CF37" id="more" d="M165,0C74.019,0,0,74.019,0,165s74.019,165,165,165s165-74.019,165-165S255.981,0,165,0z M85,190 c-13.785,0-25-11.215-25-25s11.215-25,25-25s25,11.215,25,25S98.785,190,85,190z M165,190c-13.785,0-25-11.215-25-25 s11.215-25,25-25s25,11.215,25,25S178.785,190,165,190z M245,190c-13.785,0-25-11.215-25-25s11.215-25,25-25 c13.785,0,25,11.215,25,25S258.785,190,245,190z"></path></a></g></svg></svg></svg>