<svg version="1.1" xmlns="http://www.w3.org/2000/svg" xmlns:xlink="http://www.w3.org/1999/xlink" fill="transparent" x="0" y="0" width="350" height="350" preserveAspectRatio="xMinYMin slice"><style type="text/css">.links{fill:transparent;stroke: #E4CF37;}.links:hover{fill:#63D272; opacity:0.4;}</style><defs><g id="allt"><path id="t9358" d="M4257,2272 L4247,2272 C4238,2272 4249,2279 4240,2280 C4232,2281 4245,2271 4234,2271 L4224,2272 4224,2272 L4222,2282 C4220,2292 4232,2281 4231,2287 C4230,2294 4221,2283 4222,2293 L4224,2304 4224,2304 L4234,2302 C4245,2300 4233,2312 4240,2311 C4247,2310 4235,2301 4246,2302 L4257,2304 4257,2304 L4256,2294 C4255,2285 4264,2298 4262,2287 C4261,2277 4255,2290 4256,2281 L4257,2272"/></g><clipPath id="c" clipRule="evenodd" fill="transparent"><use href="#t9358"/></clipPath></defs><svg viewBox="4219 2270 46 43" preserveAspectRatio="xMinYMin meet"><svg width="4380" height="2430"><g><image crossorigin="anonymous" x="0" y="0" href="https://nftpuzzle.license-token.com/assets/completepuzzle.svg" width="100%" height="100%" /><g class="links"><use href="#t9358"/></g></g></svg><svg x="4250" y="2298" height="9%" width="9%" viewBox="0 0 330 330"><g><a xlink:href="https://nftpuzzle.license-token.com/" class="links"><title>See the most innovative NFT based token software licensing project</title><path fill="#E4CF37" id="more" d="M165,0C74.019,0,0,74.019,0,165s74.019,165,165,165s165-74.019,165-165S255.981,0,165,0z M85,190 c-13.785,0-25-11.215-25-25s11.215-25,25-25s25,11.215,25,25S98.785,190,85,190z M165,190c-13.785,0-25-11.215-25-25 s11.215-25,25-25s25,11.215,25,25S178.785,190,165,190z M245,190c-13.785,0-25-11.215-25-25s11.215-25,25-25 c13.785,0,25,11.215,25,25S258.785,190,245,190z"></path></a></g></svg></svg></svg>