<svg version="1.1" xmlns="http://www.w3.org/2000/svg" xmlns:xlink="http://www.w3.org/1999/xlink" fill="transparent" x="0" y="0" width="350" height="350" preserveAspectRatio="xMinYMin slice"><style type="text/css">.links{fill:transparent;stroke: #E4CF37;}.links:hover{fill:#63D272; opacity:0.4;}</style><defs><g id="allt"><path id="t9361" d="M66,2304 L55,2304 C44,2304 58,2296 50,2296 C42,2297 54,2308 43,2306 L33,2304 33,2304 L33,2312 C33,2321 30,2308 30,2318 C30,2328 33,2317 33,2326 L33,2336 33,2336 L42,2336 C51,2336 37,2333 47,2333 C58,2333 46,2336 56,2336 L66,2336 66,2336 L65,2326 C65,2316 69,2329 70,2319 C72,2310 63,2322 64,2313 L66,2304"/></g><clipPath id="c" clipRule="evenodd" fill="transparent"><use href="#t9361"/></clipPath></defs><svg viewBox="29 2295 44 42" preserveAspectRatio="xMinYMin meet"><svg width="4380" height="2430"><g><image crossorigin="anonymous" x="0" y="0" href="https://nftpuzzle.license-token.com/assets/completepuzzle.svg" width="100%" height="100%" /><g class="links"><use href="#t9361"/></g></g></svg><svg x="58" y="2322" height="9%" width="9%" viewBox="0 0 330 330"><g><a xlink:href="https://nftpuzzle.license-token.com/" class="links"><title>See the most innovative NFT based token software licensing project</title><path fill="#E4CF37" id="more" d="M165,0C74.019,0,0,74.019,0,165s74.019,165,165,165s165-74.019,165-165S255.981,0,165,0z M85,190 c-13.785,0-25-11.215-25-25s11.215-25,25-25s25,11.215,25,25S98.785,190,85,190z M165,190c-13.785,0-25-11.215-25-25 s11.215-25,25-25s25,11.215,25,25S178.785,190,165,190z M245,190c-13.785,0-25-11.215-25-25s11.215-25,25-25 c13.785,0,25,11.215,25,25S258.785,190,245,190z"></path></a></g></svg></svg></svg>