<svg version="1.1" xmlns="http://www.w3.org/2000/svg" xmlns:xlink="http://www.w3.org/1999/xlink" fill="transparent" x="0" y="0" width="350" height="350" preserveAspectRatio="xMinYMin slice"><style type="text/css">.links{fill:transparent;stroke: #E4CF37;}.links:hover{fill:#63D272; opacity:0.4;}</style><defs><g id="allt"><path id="t9362" d="M99,2304 L89,2304 C80,2304 91,2297 82,2294 C74,2291 84,2307 75,2305 L66,2304 66,2304 L64,2313 C63,2322 72,2310 70,2319 C69,2329 65,2316 65,2326 L66,2336 66,2336 L75,2334 C84,2333 72,2342 82,2340 C92,2339 79,2335 89,2335 L99,2336 99,2336 L99,2327 C99,2318 95,2330 94,2321 C94,2313 99,2324 99,2314 L99,2304"/></g><clipPath id="c" clipRule="evenodd" fill="transparent"><use href="#t9362"/></clipPath></defs><svg viewBox="62 2290 38 53" preserveAspectRatio="xMinYMin meet"><svg width="4380" height="2430"><g><image crossorigin="anonymous" x="0" y="0" href="https://nftpuzzle.license-token.com/assets/completepuzzle.svg" width="100%" height="100%" /><g class="links"><use href="#t9362"/></g></g></svg><svg x="85" y="2328" height="9%" width="9%" viewBox="0 0 330 330"><g><a xlink:href="https://nftpuzzle.license-token.com/" class="links"><title>See the most innovative NFT based token software licensing project</title><path fill="#E4CF37" id="more" d="M165,0C74.019,0,0,74.019,0,165s74.019,165,165,165s165-74.019,165-165S255.981,0,165,0z M85,190 c-13.785,0-25-11.215-25-25s11.215-25,25-25s25,11.215,25,25S98.785,190,85,190z M165,190c-13.785,0-25-11.215-25-25 s11.215-25,25-25s25,11.215,25,25S178.785,190,165,190z M245,190c-13.785,0-25-11.215-25-25s11.215-25,25-25 c13.785,0,25,11.215,25,25S258.785,190,245,190z"></path></a></g></svg></svg></svg>