<svg version="1.1" xmlns="http://www.w3.org/2000/svg" xmlns:xlink="http://www.w3.org/1999/xlink" fill="transparent" x="0" y="0" width="350" height="350" preserveAspectRatio="xMinYMin slice"><style type="text/css">.links{fill:transparent;stroke: #E4CF37;}.links:hover{fill:#63D272; opacity:0.4;}</style><defs><g id="allt"><path id="t9363" d="M132,2304 L122,2304 C112,2305 124,2298 116,2298 C108,2299 118,2304 108,2304 L99,2304 99,2304 L99,2314 C99,2324 94,2313 94,2321 C95,2330 99,2318 99,2327 L99,2336 99,2336 L109,2336 C120,2336 108,2331 117,2331 C126,2332 113,2336 122,2336 L132,2336 132,2336 L132,2326 C132,2317 128,2328 128,2319 C128,2310 133,2321 132,2312 L132,2304"/></g><clipPath id="c" clipRule="evenodd" fill="transparent"><use href="#t9363"/></clipPath></defs><svg viewBox="93 2297 41 40" preserveAspectRatio="xMinYMin meet"><svg width="4380" height="2430"><g><image crossorigin="anonymous" x="0" y="0" href="https://nftpuzzle.license-token.com/assets/completepuzzle.svg" width="100%" height="100%" /><g class="links"><use href="#t9363"/></g></g></svg><svg x="119" y="2322" height="9%" width="9%" viewBox="0 0 330 330"><g><a xlink:href="https://nftpuzzle.license-token.com/" class="links"><title>See the most innovative NFT based token software licensing project</title><path fill="#E4CF37" id="more" d="M165,0C74.019,0,0,74.019,0,165s74.019,165,165,165s165-74.019,165-165S255.981,0,165,0z M85,190 c-13.785,0-25-11.215-25-25s11.215-25,25-25s25,11.215,25,25S98.785,190,85,190z M165,190c-13.785,0-25-11.215-25-25 s11.215-25,25-25s25,11.215,25,25S178.785,190,165,190z M245,190c-13.785,0-25-11.215-25-25s11.215-25,25-25 c13.785,0,25,11.215,25,25S258.785,190,245,190z"></path></a></g></svg></svg></svg>