<svg version="1.1" xmlns="http://www.w3.org/2000/svg" xmlns:xlink="http://www.w3.org/1999/xlink" fill="transparent" x="0" y="0" width="350" height="350" preserveAspectRatio="xMinYMin slice"><style type="text/css">.links{fill:transparent;stroke: #E4CF37;}.links:hover{fill:#63D272; opacity:0.4;}</style><defs><g id="allt"><path id="t9367" d="M264,2304 L253,2302 C242,2300 258,2316 247,2314 C236,2312 251,2302 241,2303 L231,2304 231,2304 L231,2312 C231,2321 237,2311 237,2320 C238,2330 226,2315 228,2325 L231,2336 231,2336 L240,2336 C249,2336 238,2342 248,2342 C258,2343 242,2331 253,2333 L264,2336 264,2336 L264,2325 C264,2314 262,2328 262,2320 C262,2312 264,2321 264,2312 L264,2304"/></g><clipPath id="c" clipRule="evenodd" fill="transparent"><use href="#t9367"/></clipPath></defs><svg viewBox="225 2299 40 45" preserveAspectRatio="xMinYMin meet"><svg width="4380" height="2430"><g><image crossorigin="anonymous" x="0" y="0" href="https://nftpuzzle.license-token.com/assets/completepuzzle.svg" width="100%" height="100%" /><g class="links"><use href="#t9367"/></g></g></svg><svg x="250" y="2329" height="9%" width="9%" viewBox="0 0 330 330"><g><a xlink:href="https://nftpuzzle.license-token.com/" class="links"><title>See the most innovative NFT based token software licensing project</title><path fill="#E4CF37" id="more" d="M165,0C74.019,0,0,74.019,0,165s74.019,165,165,165s165-74.019,165-165S255.981,0,165,0z M85,190 c-13.785,0-25-11.215-25-25s11.215-25,25-25s25,11.215,25,25S98.785,190,85,190z M165,190c-13.785,0-25-11.215-25-25 s11.215-25,25-25s25,11.215,25,25S178.785,190,165,190z M245,190c-13.785,0-25-11.215-25-25s11.215-25,25-25 c13.785,0,25,11.215,25,25S258.785,190,245,190z"></path></a></g></svg></svg></svg>