<svg version="1.1" xmlns="http://www.w3.org/2000/svg" xmlns:xlink="http://www.w3.org/1999/xlink" fill="transparent" x="0" y="0" width="350" height="350" preserveAspectRatio="xMinYMin slice"><style type="text/css">.links{fill:transparent;stroke: #E4CF37;}.links:hover{fill:#63D272; opacity:0.4;}</style><defs><g id="allt"><path id="t9369" d="M330,2304 L320,2303 C311,2303 321,2311 312,2311 C303,2311 317,2303 307,2303 L297,2304 297,2304 L297,2312 C297,2321 287,2311 290,2319 C293,2328 297,2314 297,2325 L297,2336 297,2336 L306,2336 C315,2336 304,2327 313,2329 C322,2332 308,2336 319,2336 L330,2336 330,2336 L330,2326 C330,2316 335,2328 333,2320 C332,2312 330,2325 330,2314 L330,2304"/></g><clipPath id="c" clipRule="evenodd" fill="transparent"><use href="#t9369"/></clipPath></defs><svg viewBox="286 2302 50 35" preserveAspectRatio="xMinYMin meet"><svg width="4380" height="2430"><g><image crossorigin="anonymous" x="0" y="0" href="https://nftpuzzle.license-token.com/assets/completepuzzle.svg" width="100%" height="100%" /><g class="links"><use href="#t9369"/></g></g></svg><svg x="321" y="2322" height="9%" width="9%" viewBox="0 0 330 330"><g><a xlink:href="https://nftpuzzle.license-token.com/" class="links"><title>See the most innovative NFT based token software licensing project</title><path fill="#E4CF37" id="more" d="M165,0C74.019,0,0,74.019,0,165s74.019,165,165,165s165-74.019,165-165S255.981,0,165,0z M85,190 c-13.785,0-25-11.215-25-25s11.215-25,25-25s25,11.215,25,25S98.785,190,85,190z M165,190c-13.785,0-25-11.215-25-25 s11.215-25,25-25s25,11.215,25,25S178.785,190,165,190z M245,190c-13.785,0-25-11.215-25-25s11.215-25,25-25 c13.785,0,25,11.215,25,25S258.785,190,245,190z"></path></a></g></svg></svg></svg>