<svg version="1.1" xmlns="http://www.w3.org/2000/svg" xmlns:xlink="http://www.w3.org/1999/xlink" fill="transparent" x="0" y="0" width="350" height="350" preserveAspectRatio="xMinYMin slice"><style type="text/css">.links{fill:transparent;stroke: #E4CF37;}.links:hover{fill:#63D272; opacity:0.4;}</style><defs><g id="allt"><path id="t9370" d="M363,2304 L352,2302 C341,2301 357,2311 346,2310 C336,2310 350,2304 340,2304 L330,2304 330,2304 L330,2314 C330,2325 332,2312 333,2320 C335,2328 330,2316 330,2326 L330,2336 330,2336 L340,2336 C351,2336 338,2338 346,2339 C355,2341 343,2336 353,2336 L363,2336 363,2336 L364,2326 C365,2317 358,2330 358,2321 C359,2313 363,2323 363,2313 L363,2304"/></g><clipPath id="c" clipRule="evenodd" fill="transparent"><use href="#t9370"/></clipPath></defs><svg viewBox="329 2300 37 42" preserveAspectRatio="xMinYMin meet"><svg width="4380" height="2430"><g><image crossorigin="anonymous" x="0" y="0" href="https://nftpuzzle.license-token.com/assets/completepuzzle.svg" width="100%" height="100%" /><g class="links"><use href="#t9370"/></g></g></svg><svg x="351" y="2327" height="9%" width="9%" viewBox="0 0 330 330"><g><a xlink:href="https://nftpuzzle.license-token.com/" class="links"><title>See the most innovative NFT based token software licensing project</title><path fill="#E4CF37" id="more" d="M165,0C74.019,0,0,74.019,0,165s74.019,165,165,165s165-74.019,165-165S255.981,0,165,0z M85,190 c-13.785,0-25-11.215-25-25s11.215-25,25-25s25,11.215,25,25S98.785,190,85,190z M165,190c-13.785,0-25-11.215-25-25 s11.215-25,25-25s25,11.215,25,25S178.785,190,165,190z M245,190c-13.785,0-25-11.215-25-25s11.215-25,25-25 c13.785,0,25,11.215,25,25S258.785,190,245,190z"></path></a></g></svg></svg></svg>