<svg version="1.1" xmlns="http://www.w3.org/2000/svg" xmlns:xlink="http://www.w3.org/1999/xlink" fill="transparent" x="0" y="0" width="350" height="350" preserveAspectRatio="xMinYMin slice"><style type="text/css">.links{fill:transparent;stroke: #E4CF37;}.links:hover{fill:#63D272; opacity:0.4;}</style><defs><g id="allt"><path id="t9373" d="M462,2304 L452,2304 C442,2304 454,2301 446,2301 C438,2301 450,2304 439,2304 L429,2304 429,2304 L429,2312 C429,2321 423,2311 423,2319 C423,2327 429,2315 429,2325 L429,2336 429,2336 L438,2336 C447,2336 436,2330 444,2330 C453,2330 441,2336 451,2336 L462,2336 462,2336 L460,2325 C459,2315 468,2327 467,2319 C466,2312 459,2324 460,2314 L462,2304"/></g><clipPath id="c" clipRule="evenodd" fill="transparent"><use href="#t9373"/></clipPath></defs><svg viewBox="422 2300 47 37" preserveAspectRatio="xMinYMin meet"><svg width="4380" height="2430"><g><image crossorigin="anonymous" x="0" y="0" href="https://nftpuzzle.license-token.com/assets/completepuzzle.svg" width="100%" height="100%" /><g class="links"><use href="#t9373"/></g></g></svg><svg x="454" y="2322" height="9%" width="9%" viewBox="0 0 330 330"><g><a xlink:href="https://nftpuzzle.license-token.com/" class="links"><title>See the most innovative NFT based token software licensing project</title><path fill="#E4CF37" id="more" d="M165,0C74.019,0,0,74.019,0,165s74.019,165,165,165s165-74.019,165-165S255.981,0,165,0z M85,190 c-13.785,0-25-11.215-25-25s11.215-25,25-25s25,11.215,25,25S98.785,190,85,190z M165,190c-13.785,0-25-11.215-25-25 s11.215-25,25-25s25,11.215,25,25S178.785,190,165,190z M245,190c-13.785,0-25-11.215-25-25s11.215-25,25-25 c13.785,0,25,11.215,25,25S258.785,190,245,190z"></path></a></g></svg></svg></svg>