<svg version="1.1" xmlns="http://www.w3.org/2000/svg" xmlns:xlink="http://www.w3.org/1999/xlink" fill="transparent" x="0" y="0" width="350" height="350" preserveAspectRatio="xMinYMin slice"><style type="text/css">.links{fill:transparent;stroke: #E4CF37;}.links:hover{fill:#63D272; opacity:0.4;}</style><defs><g id="allt"><path id="t9375" d="M528,2304 L517,2302 C507,2300 520,2312 511,2314 C502,2316 516,2304 505,2304 L495,2304 495,2304 L495,2313 C495,2323 498,2311 498,2319 C499,2327 495,2316 495,2326 L495,2336 495,2336 L504,2336 C514,2336 502,2339 510,2339 C519,2340 508,2336 518,2336 L528,2336 528,2336 L529,2326 C531,2316 523,2330 522,2320 C521,2311 528,2321 528,2312 L528,2304"/></g><clipPath id="c" clipRule="evenodd" fill="transparent"><use href="#t9375"/></clipPath></defs><svg viewBox="494 2299 38 42" preserveAspectRatio="xMinYMin meet"><svg width="4380" height="2430"><g><image crossorigin="anonymous" x="0" y="0" href="https://nftpuzzle.license-token.com/assets/completepuzzle.svg" width="100%" height="100%" /><g class="links"><use href="#t9375"/></g></g></svg><svg x="517" y="2326" height="9%" width="9%" viewBox="0 0 330 330"><g><a xlink:href="https://nftpuzzle.license-token.com/" class="links"><title>See the most innovative NFT based token software licensing project</title><path fill="#E4CF37" id="more" d="M165,0C74.019,0,0,74.019,0,165s74.019,165,165,165s165-74.019,165-165S255.981,0,165,0z M85,190 c-13.785,0-25-11.215-25-25s11.215-25,25-25s25,11.215,25,25S98.785,190,85,190z M165,190c-13.785,0-25-11.215-25-25 s11.215-25,25-25s25,11.215,25,25S178.785,190,165,190z M245,190c-13.785,0-25-11.215-25-25s11.215-25,25-25 c13.785,0,25,11.215,25,25S258.785,190,245,190z"></path></a></g></svg></svg></svg>