<svg version="1.1" xmlns="http://www.w3.org/2000/svg" xmlns:xlink="http://www.w3.org/1999/xlink" fill="transparent" x="0" y="0" width="350" height="350" preserveAspectRatio="xMinYMin slice"><style type="text/css">.links{fill:transparent;stroke: #E4CF37;}.links:hover{fill:#63D272; opacity:0.4;}</style><defs><g id="allt"><path id="t9384" d="M825,2304 L815,2303 C805,2303 815,2310 806,2310 C797,2311 814,2304 803,2304 L792,2304 792,2304 L792,2313 C793,2323 788,2312 788,2319 C788,2327 792,2316 792,2326 L792,2336 792,2336 L801,2336 C811,2337 801,2332 808,2332 C815,2332 804,2336 814,2336 L825,2336 825,2336 L825,2326 C825,2317 822,2328 821,2320 C820,2312 825,2322 825,2313 L825,2304"/></g><clipPath id="c" clipRule="evenodd" fill="transparent"><use href="#t9384"/></clipPath></defs><svg viewBox="787 2302 39 36" preserveAspectRatio="xMinYMin meet"><svg width="4380" height="2430"><g><image crossorigin="anonymous" x="0" y="0" href="https://nftpuzzle.license-token.com/assets/completepuzzle.svg" width="100%" height="100%" /><g class="links"><use href="#t9384"/></g></g></svg><svg x="811" y="2323" height="9%" width="9%" viewBox="0 0 330 330"><g><a xlink:href="https://nftpuzzle.license-token.com/" class="links"><title>See the most innovative NFT based token software licensing project</title><path fill="#E4CF37" id="more" d="M165,0C74.019,0,0,74.019,0,165s74.019,165,165,165s165-74.019,165-165S255.981,0,165,0z M85,190 c-13.785,0-25-11.215-25-25s11.215-25,25-25s25,11.215,25,25S98.785,190,85,190z M165,190c-13.785,0-25-11.215-25-25 s11.215-25,25-25s25,11.215,25,25S178.785,190,165,190z M245,190c-13.785,0-25-11.215-25-25s11.215-25,25-25 c13.785,0,25,11.215,25,25S258.785,190,245,190z"></path></a></g></svg></svg></svg>