<svg version="1.1" xmlns="http://www.w3.org/2000/svg" xmlns:xlink="http://www.w3.org/1999/xlink" fill="transparent" x="0" y="0" width="350" height="350" preserveAspectRatio="xMinYMin slice"><style type="text/css">.links{fill:transparent;stroke: #E4CF37;}.links:hover{fill:#63D272; opacity:0.4;}</style><defs><g id="allt"><path id="t9385" d="M858,2304 L847,2307 C837,2310 849,2292 839,2294 C830,2296 844,2305 834,2304 L825,2304 825,2304 L825,2313 C825,2322 820,2312 821,2320 C822,2328 825,2317 825,2326 L825,2336 825,2336 L834,2336 C843,2336 833,2331 841,2332 C850,2333 838,2336 848,2336 L858,2336 858,2336 L858,2327 C858,2318 849,2328 850,2320 C851,2312 858,2323 858,2313 L858,2304"/></g><clipPath id="c" clipRule="evenodd" fill="transparent"><use href="#t9385"/></clipPath></defs><svg viewBox="819 2291 40 46" preserveAspectRatio="xMinYMin meet"><svg width="4380" height="2430"><g><image crossorigin="anonymous" x="0" y="0" href="https://nftpuzzle.license-token.com/assets/completepuzzle.svg" width="100%" height="100%" /><g class="links"><use href="#t9385"/></g></g></svg><svg x="844" y="2322" height="9%" width="9%" viewBox="0 0 330 330"><g><a xlink:href="https://nftpuzzle.license-token.com/" class="links"><title>See the most innovative NFT based token software licensing project</title><path fill="#E4CF37" id="more" d="M165,0C74.019,0,0,74.019,0,165s74.019,165,165,165s165-74.019,165-165S255.981,0,165,0z M85,190 c-13.785,0-25-11.215-25-25s11.215-25,25-25s25,11.215,25,25S98.785,190,85,190z M165,190c-13.785,0-25-11.215-25-25 s11.215-25,25-25s25,11.215,25,25S178.785,190,165,190z M245,190c-13.785,0-25-11.215-25-25s11.215-25,25-25 c13.785,0,25,11.215,25,25S258.785,190,245,190z"></path></a></g></svg></svg></svg>