<svg version="1.1" xmlns="http://www.w3.org/2000/svg" xmlns:xlink="http://www.w3.org/1999/xlink" fill="transparent" x="0" y="0" width="350" height="350" preserveAspectRatio="xMinYMin slice"><style type="text/css">.links{fill:transparent;stroke: #E4CF37;}.links:hover{fill:#63D272; opacity:0.4;}</style><defs><g id="allt"><path id="t9391" d="M1056,2304 L1046,2304 C1036,2305 1050,2299 1040,2299 C1031,2299 1043,2304 1033,2304 L1023,2304 1023,2304 L1022,2314 C1021,2325 1030,2308 1029,2319 C1029,2331 1023,2315 1023,2325 L1023,2336 1023,2336 L1033,2335 C1044,2334 1027,2343 1039,2342 C1051,2342 1034,2336 1045,2336 L1056,2336 1056,2336 L1056,2326 C1056,2316 1054,2330 1053,2320 C1052,2311 1057,2321 1056,2312 L1056,2304"/></g><clipPath id="c" clipRule="evenodd" fill="transparent"><use href="#t9391"/></clipPath></defs><svg viewBox="1020 2298 38 46" preserveAspectRatio="xMinYMin meet"><svg width="4380" height="2430"><g><image crossorigin="anonymous" x="0" y="0" href="https://nftpuzzle.license-token.com/assets/completepuzzle.svg" width="100%" height="100%" /><g class="links"><use href="#t9391"/></g></g></svg><svg x="1043" y="2329" height="9%" width="9%" viewBox="0 0 330 330"><g><a xlink:href="https://nftpuzzle.license-token.com/" class="links"><title>See the most innovative NFT based token software licensing project</title><path fill="#E4CF37" id="more" d="M165,0C74.019,0,0,74.019,0,165s74.019,165,165,165s165-74.019,165-165S255.981,0,165,0z M85,190 c-13.785,0-25-11.215-25-25s11.215-25,25-25s25,11.215,25,25S98.785,190,85,190z M165,190c-13.785,0-25-11.215-25-25 s11.215-25,25-25s25,11.215,25,25S178.785,190,165,190z M245,190c-13.785,0-25-11.215-25-25s11.215-25,25-25 c13.785,0,25,11.215,25,25S258.785,190,245,190z"></path></a></g></svg></svg></svg>