<svg version="1.1" xmlns="http://www.w3.org/2000/svg" xmlns:xlink="http://www.w3.org/1999/xlink" fill="transparent" x="0" y="0" width="350" height="350" preserveAspectRatio="xMinYMin slice"><style type="text/css">.links{fill:transparent;stroke: #E4CF37;}.links:hover{fill:#63D272; opacity:0.4;}</style><defs><g id="allt"><path id="t9395" d="M1188,2304 L1177,2302 C1166,2301 1179,2314 1169,2313 C1160,2312 1176,2303 1165,2303 L1155,2304 1155,2304 L1155,2312 C1155,2321 1150,2312 1151,2319 C1153,2326 1156,2314 1155,2325 L1155,2336 1155,2336 L1164,2336 C1173,2336 1163,2331 1170,2332 C1178,2334 1166,2337 1177,2336 L1188,2336 1188,2336 L1188,2326 C1188,2317 1196,2330 1196,2320 C1196,2310 1185,2324 1186,2314 L1188,2304"/></g><clipPath id="c" clipRule="evenodd" fill="transparent"><use href="#t9395"/></clipPath></defs><svg viewBox="1149 2300 48 38" preserveAspectRatio="xMinYMin meet"><svg width="4380" height="2430"><g><image crossorigin="anonymous" x="0" y="0" href="https://nftpuzzle.license-token.com/assets/completepuzzle.svg" width="100%" height="100%" /><g class="links"><use href="#t9395"/></g></g></svg><svg x="1182" y="2323" height="9%" width="9%" viewBox="0 0 330 330"><g><a xlink:href="https://nftpuzzle.license-token.com/" class="links"><title>See the most innovative NFT based token software licensing project</title><path fill="#E4CF37" id="more" d="M165,0C74.019,0,0,74.019,0,165s74.019,165,165,165s165-74.019,165-165S255.981,0,165,0z M85,190 c-13.785,0-25-11.215-25-25s11.215-25,25-25s25,11.215,25,25S98.785,190,85,190z M165,190c-13.785,0-25-11.215-25-25 s11.215-25,25-25s25,11.215,25,25S178.785,190,165,190z M245,190c-13.785,0-25-11.215-25-25s11.215-25,25-25 c13.785,0,25,11.215,25,25S258.785,190,245,190z"></path></a></g></svg></svg></svg>