<svg version="1.1" xmlns="http://www.w3.org/2000/svg" xmlns:xlink="http://www.w3.org/1999/xlink" fill="transparent" x="0" y="0" width="350" height="350" preserveAspectRatio="xMinYMin slice"><style type="text/css">.links{fill:transparent;stroke: #E4CF37;}.links:hover{fill:#63D272; opacity:0.4;}</style><defs><g id="allt"><path id="t9398" d="M1287,2304 L1277,2304 C1267,2304 1279,2298 1269,2297 C1259,2297 1272,2304 1263,2304 L1254,2304 1254,2304 L1254,2312 C1255,2321 1246,2311 1246,2318 C1247,2326 1258,2314 1256,2325 L1254,2336 1254,2336 L1263,2336 C1272,2337 1261,2328 1269,2328 C1277,2329 1265,2340 1276,2338 L1287,2336 1287,2336 L1285,2326 C1284,2317 1296,2328 1297,2320 C1299,2312 1287,2322 1287,2313 L1287,2304"/></g><clipPath id="c" clipRule="evenodd" fill="transparent"><use href="#t9398"/></clipPath></defs><svg viewBox="1245 2296 55 45" preserveAspectRatio="xMinYMin meet"><svg width="4380" height="2430"><g><image crossorigin="anonymous" x="0" y="0" href="https://nftpuzzle.license-token.com/assets/completepuzzle.svg" width="100%" height="100%" /><g class="links"><use href="#t9398"/></g></g></svg><svg x="1285" y="2326" height="9%" width="9%" viewBox="0 0 330 330"><g><a xlink:href="https://nftpuzzle.license-token.com/" class="links"><title>See the most innovative NFT based token software licensing project</title><path fill="#E4CF37" id="more" d="M165,0C74.019,0,0,74.019,0,165s74.019,165,165,165s165-74.019,165-165S255.981,0,165,0z M85,190 c-13.785,0-25-11.215-25-25s11.215-25,25-25s25,11.215,25,25S98.785,190,85,190z M165,190c-13.785,0-25-11.215-25-25 s11.215-25,25-25s25,11.215,25,25S178.785,190,165,190z M245,190c-13.785,0-25-11.215-25-25s11.215-25,25-25 c13.785,0,25,11.215,25,25S258.785,190,245,190z"></path></a></g></svg></svg></svg>