<svg version="1.1" xmlns="http://www.w3.org/2000/svg" xmlns:xlink="http://www.w3.org/1999/xlink" fill="transparent" x="0" y="0" width="350" height="350" preserveAspectRatio="xMinYMin slice"><style type="text/css">.links{fill:transparent;stroke: #E4CF37;}.links:hover{fill:#63D272; opacity:0.4;}</style><defs><g id="allt"><path id="t9411" d="M1716,2304 L1705,2304 C1694,2304 1707,2311 1699,2309 C1691,2308 1704,2301 1693,2302 L1683,2304 1683,2304 L1683,2314 C1684,2324 1677,2310 1675,2318 C1674,2327 1683,2315 1683,2325 L1683,2336 1683,2336 L1693,2336 C1703,2337 1689,2330 1697,2329 C1706,2328 1694,2336 1705,2336 L1716,2336 1716,2336 L1714,2326 C1713,2316 1727,2328 1726,2320 C1725,2313 1710,2325 1713,2314 L1716,2304"/></g><clipPath id="c" clipRule="evenodd" fill="transparent"><use href="#t9411"/></clipPath></defs><svg viewBox="1673 2300 55 38" preserveAspectRatio="xMinYMin meet"><svg width="4380" height="2430"><g><image crossorigin="anonymous" x="0" y="0" href="https://nftpuzzle.license-token.com/assets/completepuzzle.svg" width="100%" height="100%" /><g class="links"><use href="#t9411"/></g></g></svg><svg x="1713" y="2323" height="9%" width="9%" viewBox="0 0 330 330"><g><a xlink:href="https://nftpuzzle.license-token.com/" class="links"><title>See the most innovative NFT based token software licensing project</title><path fill="#E4CF37" id="more" d="M165,0C74.019,0,0,74.019,0,165s74.019,165,165,165s165-74.019,165-165S255.981,0,165,0z M85,190 c-13.785,0-25-11.215-25-25s11.215-25,25-25s25,11.215,25,25S98.785,190,85,190z M165,190c-13.785,0-25-11.215-25-25 s11.215-25,25-25s25,11.215,25,25S178.785,190,165,190z M245,190c-13.785,0-25-11.215-25-25s11.215-25,25-25 c13.785,0,25,11.215,25,25S258.785,190,245,190z"></path></a></g></svg></svg></svg>