<svg version="1.1" xmlns="http://www.w3.org/2000/svg" xmlns:xlink="http://www.w3.org/1999/xlink" fill="transparent" x="0" y="0" width="350" height="350" preserveAspectRatio="xMinYMin slice"><style type="text/css">.links{fill:transparent;stroke: #E4CF37;}.links:hover{fill:#63D272; opacity:0.4;}</style><defs><g id="allt"><path id="t9416" d="M1881,2304 L1870,2305 C1859,2306 1875,2301 1864,2299 C1853,2298 1867,2304 1857,2304 L1848,2304 1848,2304 L1846,2313 C1845,2323 1859,2312 1857,2320 C1855,2328 1848,2318 1848,2327 L1848,2336 1848,2336 L1858,2334 C1868,2333 1856,2347 1864,2345 C1873,2343 1862,2336 1871,2336 L1881,2336 1881,2336 L1880,2326 C1880,2317 1885,2326 1885,2318 C1886,2310 1881,2324 1881,2314 L1881,2304"/></g><clipPath id="c" clipRule="evenodd" fill="transparent"><use href="#t9416"/></clipPath></defs><svg viewBox="1844 2297 43 51" preserveAspectRatio="xMinYMin meet"><svg width="4380" height="2430"><g><image crossorigin="anonymous" x="0" y="0" href="https://nftpuzzle.license-token.com/assets/completepuzzle.svg" width="100%" height="100%" /><g class="links"><use href="#t9416"/></g></g></svg><svg x="1872" y="2333" height="9%" width="9%" viewBox="0 0 330 330"><g><a xlink:href="https://nftpuzzle.license-token.com/" class="links"><title>See the most innovative NFT based token software licensing project</title><path fill="#E4CF37" id="more" d="M165,0C74.019,0,0,74.019,0,165s74.019,165,165,165s165-74.019,165-165S255.981,0,165,0z M85,190 c-13.785,0-25-11.215-25-25s11.215-25,25-25s25,11.215,25,25S98.785,190,85,190z M165,190c-13.785,0-25-11.215-25-25 s11.215-25,25-25s25,11.215,25,25S178.785,190,165,190z M245,190c-13.785,0-25-11.215-25-25s11.215-25,25-25 c13.785,0,25,11.215,25,25S258.785,190,245,190z"></path></a></g></svg></svg></svg>