<svg version="1.1" xmlns="http://www.w3.org/2000/svg" xmlns:xlink="http://www.w3.org/1999/xlink" fill="transparent" x="0" y="0" width="350" height="350" preserveAspectRatio="xMinYMin slice"><style type="text/css">.links{fill:transparent;stroke: #E4CF37;}.links:hover{fill:#63D272; opacity:0.4;}</style><defs><g id="allt"><path id="t9417" d="M1914,2304 L1904,2304 C1894,2304 1908,2293 1898,2293 C1889,2293 1899,2304 1890,2304 L1881,2304 1881,2304 L1881,2314 C1881,2324 1886,2310 1885,2318 C1885,2326 1880,2317 1880,2326 L1881,2336 1881,2336 L1891,2336 C1902,2336 1887,2341 1895,2340 C1904,2340 1894,2335 1904,2335 L1914,2336 1914,2336 L1914,2325 C1914,2314 1909,2328 1908,2320 C1908,2312 1916,2323 1915,2313 L1914,2304"/></g><clipPath id="c" clipRule="evenodd" fill="transparent"><use href="#t9417"/></clipPath></defs><svg viewBox="1879 2292 38 50" preserveAspectRatio="xMinYMin meet"><svg width="4380" height="2430"><g><image crossorigin="anonymous" x="0" y="0" href="https://nftpuzzle.license-token.com/assets/completepuzzle.svg" width="100%" height="100%" /><g class="links"><use href="#t9417"/></g></g></svg><svg x="1902" y="2327" height="9%" width="9%" viewBox="0 0 330 330"><g><a xlink:href="https://nftpuzzle.license-token.com/" class="links"><title>See the most innovative NFT based token software licensing project</title><path fill="#E4CF37" id="more" d="M165,0C74.019,0,0,74.019,0,165s74.019,165,165,165s165-74.019,165-165S255.981,0,165,0z M85,190 c-13.785,0-25-11.215-25-25s11.215-25,25-25s25,11.215,25,25S98.785,190,85,190z M165,190c-13.785,0-25-11.215-25-25 s11.215-25,25-25s25,11.215,25,25S178.785,190,165,190z M245,190c-13.785,0-25-11.215-25-25s11.215-25,25-25 c13.785,0,25,11.215,25,25S258.785,190,245,190z"></path></a></g></svg></svg></svg>