<svg version="1.1" xmlns="http://www.w3.org/2000/svg" xmlns:xlink="http://www.w3.org/1999/xlink" fill="transparent" x="0" y="0" width="350" height="350" preserveAspectRatio="xMinYMin slice"><style type="text/css">.links{fill:transparent;stroke: #E4CF37;}.links:hover{fill:#63D272; opacity:0.4;}</style><defs><g id="allt"><path id="t9418" d="M1947,2304 L1936,2304 C1926,2304 1938,2311 1928,2313 C1919,2315 1932,2301 1923,2302 L1914,2304 1914,2304 L1915,2313 C1916,2323 1908,2312 1908,2320 C1909,2328 1914,2314 1914,2325 L1914,2336 1914,2336 L1924,2337 C1934,2338 1922,2330 1930,2330 C1939,2331 1925,2336 1936,2336 L1947,2336 1947,2336 L1948,2327 C1949,2318 1942,2330 1942,2320 C1943,2310 1947,2321 1947,2312 L1947,2304"/></g><clipPath id="c" clipRule="evenodd" fill="transparent"><use href="#t9418"/></clipPath></defs><svg viewBox="1907 2300 43 39" preserveAspectRatio="xMinYMin meet"><svg width="4380" height="2430"><g><image crossorigin="anonymous" x="0" y="0" href="https://nftpuzzle.license-token.com/assets/completepuzzle.svg" width="100%" height="100%" /><g class="links"><use href="#t9418"/></g></g></svg><svg x="1935" y="2324" height="9%" width="9%" viewBox="0 0 330 330"><g><a xlink:href="https://nftpuzzle.license-token.com/" class="links"><title>See the most innovative NFT based token software licensing project</title><path fill="#E4CF37" id="more" d="M165,0C74.019,0,0,74.019,0,165s74.019,165,165,165s165-74.019,165-165S255.981,0,165,0z M85,190 c-13.785,0-25-11.215-25-25s11.215-25,25-25s25,11.215,25,25S98.785,190,85,190z M165,190c-13.785,0-25-11.215-25-25 s11.215-25,25-25s25,11.215,25,25S178.785,190,165,190z M245,190c-13.785,0-25-11.215-25-25s11.215-25,25-25 c13.785,0,25,11.215,25,25S258.785,190,245,190z"></path></a></g></svg></svg></svg>