<svg version="1.1" xmlns="http://www.w3.org/2000/svg" xmlns:xlink="http://www.w3.org/1999/xlink" fill="transparent" x="0" y="0" width="350" height="350" preserveAspectRatio="xMinYMin slice"><style type="text/css">.links{fill:transparent;stroke: #E4CF37;}.links:hover{fill:#63D272; opacity:0.4;}</style><defs><g id="allt"><path id="t9425" d="M2178,2304 L2168,2303 C2159,2303 2169,2306 2159,2306 C2150,2306 2163,2303 2154,2303 L2145,2304 2145,2304 L2145,2314 C2145,2324 2137,2309 2138,2318 C2140,2328 2148,2316 2146,2326 L2145,2336 2145,2336 L2155,2336 C2165,2336 2150,2328 2160,2329 C2170,2331 2157,2339 2167,2337 L2178,2336 2178,2336 L2179,2327 C2180,2318 2174,2327 2173,2318 C2172,2310 2180,2324 2179,2314 L2178,2304"/></g><clipPath id="c" clipRule="evenodd" fill="transparent"><use href="#t9425"/></clipPath></defs><svg viewBox="2136 2302 45 38" preserveAspectRatio="xMinYMin meet"><svg width="4380" height="2430"><g><image crossorigin="anonymous" x="0" y="0" href="https://nftpuzzle.license-token.com/assets/completepuzzle.svg" width="100%" height="100%" /><g class="links"><use href="#t9425"/></g></g></svg><svg x="2166" y="2325" height="9%" width="9%" viewBox="0 0 330 330"><g><a xlink:href="https://nftpuzzle.license-token.com/" class="links"><title>See the most innovative NFT based token software licensing project</title><path fill="#E4CF37" id="more" d="M165,0C74.019,0,0,74.019,0,165s74.019,165,165,165s165-74.019,165-165S255.981,0,165,0z M85,190 c-13.785,0-25-11.215-25-25s11.215-25,25-25s25,11.215,25,25S98.785,190,85,190z M165,190c-13.785,0-25-11.215-25-25 s11.215-25,25-25s25,11.215,25,25S178.785,190,165,190z M245,190c-13.785,0-25-11.215-25-25s11.215-25,25-25 c13.785,0,25,11.215,25,25S258.785,190,245,190z"></path></a></g></svg></svg></svg>