<svg version="1.1" xmlns="http://www.w3.org/2000/svg" xmlns:xlink="http://www.w3.org/1999/xlink" fill="transparent" x="0" y="0" width="350" height="350" preserveAspectRatio="xMinYMin slice"><style type="text/css">.links{fill:transparent;stroke: #E4CF37;}.links:hover{fill:#63D272; opacity:0.4;}</style><defs><g id="allt"><path id="t943" d="M1122,224 L1112,224 C1102,225 1112,213 1103,213 C1095,214 1108,223 1098,223 L1089,224 1089,224 L1091,233 C1094,242 1079,231 1080,239 C1082,248 1093,235 1091,245 L1089,256 1089,256 L1098,258 C1108,261 1096,247 1105,248 C1114,249 1100,260 1111,258 L1122,256 1122,256 L1122,245 C1122,235 1126,249 1126,239 C1126,229 1122,244 1122,234 L1122,224"/></g><clipPath id="c" clipRule="evenodd" fill="transparent"><use href="#t943"/></clipPath></defs><svg viewBox="1078 212 49 50" preserveAspectRatio="xMinYMin meet"><svg width="4380" height="2430"><g><image crossorigin="anonymous" x="0" y="0" href="https://nftpuzzle.license-token.com/assets/completepuzzle.svg" width="100%" height="100%" /><g class="links"><use href="#t943"/></g></g></svg><svg x="1112" y="247" height="9%" width="9%" viewBox="0 0 330 330"><g><a xlink:href="https://nftpuzzle.license-token.com/" class="links"><title>See the most innovative NFT based token software licensing project</title><path fill="#E4CF37" id="more" d="M165,0C74.019,0,0,74.019,0,165s74.019,165,165,165s165-74.019,165-165S255.981,0,165,0z M85,190 c-13.785,0-25-11.215-25-25s11.215-25,25-25s25,11.215,25,25S98.785,190,85,190z M165,190c-13.785,0-25-11.215-25-25 s11.215-25,25-25s25,11.215,25,25S178.785,190,165,190z M245,190c-13.785,0-25-11.215-25-25s11.215-25,25-25 c13.785,0,25,11.215,25,25S258.785,190,245,190z"></path></a></g></svg></svg></svg>