<svg version="1.1" xmlns="http://www.w3.org/2000/svg" xmlns:xlink="http://www.w3.org/1999/xlink" fill="transparent" x="0" y="0" width="350" height="350" preserveAspectRatio="xMinYMin slice"><style type="text/css">.links{fill:transparent;stroke: #E4CF37;}.links:hover{fill:#63D272; opacity:0.4;}</style><defs><g id="allt"><path id="t9432" d="M2409,2304 L2399,2304 C2389,2304 2399,2312 2390,2311 C2382,2310 2398,2304 2387,2304 L2376,2304 2376,2304 L2376,2312 C2376,2321 2373,2313 2372,2321 C2372,2329 2378,2317 2377,2326 L2376,2336 2376,2336 L2385,2336 C2394,2336 2385,2333 2393,2332 C2402,2332 2389,2338 2399,2337 L2409,2336 2409,2336 L2409,2325 C2409,2314 2402,2328 2403,2320 C2404,2313 2409,2323 2409,2313 L2409,2304"/></g><clipPath id="c" clipRule="evenodd" fill="transparent"><use href="#t9432"/></clipPath></defs><svg viewBox="2371 2303 39 36" preserveAspectRatio="xMinYMin meet"><svg width="4380" height="2430"><g><image crossorigin="anonymous" x="0" y="0" href="https://nftpuzzle.license-token.com/assets/completepuzzle.svg" width="100%" height="100%" /><g class="links"><use href="#t9432"/></g></g></svg><svg x="2395" y="2324" height="9%" width="9%" viewBox="0 0 330 330"><g><a xlink:href="https://nftpuzzle.license-token.com/" class="links"><title>See the most innovative NFT based token software licensing project</title><path fill="#E4CF37" id="more" d="M165,0C74.019,0,0,74.019,0,165s74.019,165,165,165s165-74.019,165-165S255.981,0,165,0z M85,190 c-13.785,0-25-11.215-25-25s11.215-25,25-25s25,11.215,25,25S98.785,190,85,190z M165,190c-13.785,0-25-11.215-25-25 s11.215-25,25-25s25,11.215,25,25S178.785,190,165,190z M245,190c-13.785,0-25-11.215-25-25s11.215-25,25-25 c13.785,0,25,11.215,25,25S258.785,190,245,190z"></path></a></g></svg></svg></svg>