<svg version="1.1" xmlns="http://www.w3.org/2000/svg" xmlns:xlink="http://www.w3.org/1999/xlink" fill="transparent" x="0" y="0" width="350" height="350" preserveAspectRatio="xMinYMin slice"><style type="text/css">.links{fill:transparent;stroke: #E4CF37;}.links:hover{fill:#63D272; opacity:0.4;}</style><defs><g id="allt"><path id="t9433" d="M2442,2304 L2432,2304 C2422,2304 2435,2309 2425,2309 C2415,2309 2430,2304 2419,2304 L2409,2304 2409,2304 L2409,2313 C2409,2323 2404,2313 2403,2320 C2402,2328 2409,2314 2409,2325 L2409,2336 2409,2336 L2419,2336 C2429,2336 2418,2331 2425,2330 C2433,2329 2419,2336 2430,2336 L2442,2336 2442,2336 L2441,2326 C2441,2317 2447,2327 2445,2319 C2444,2311 2442,2321 2442,2312 L2442,2304"/></g><clipPath id="c" clipRule="evenodd" fill="transparent"><use href="#t9433"/></clipPath></defs><svg viewBox="2401 2303 47 34" preserveAspectRatio="xMinYMin meet"><svg width="4380" height="2430"><g><image crossorigin="anonymous" x="0" y="0" href="https://nftpuzzle.license-token.com/assets/completepuzzle.svg" width="100%" height="100%" /><g class="links"><use href="#t9433"/></g></g></svg><svg x="2433" y="2322" height="9%" width="9%" viewBox="0 0 330 330"><g><a xlink:href="https://nftpuzzle.license-token.com/" class="links"><title>See the most innovative NFT based token software licensing project</title><path fill="#E4CF37" id="more" d="M165,0C74.019,0,0,74.019,0,165s74.019,165,165,165s165-74.019,165-165S255.981,0,165,0z M85,190 c-13.785,0-25-11.215-25-25s11.215-25,25-25s25,11.215,25,25S98.785,190,85,190z M165,190c-13.785,0-25-11.215-25-25 s11.215-25,25-25s25,11.215,25,25S178.785,190,165,190z M245,190c-13.785,0-25-11.215-25-25s11.215-25,25-25 c13.785,0,25,11.215,25,25S258.785,190,245,190z"></path></a></g></svg></svg></svg>