<svg version="1.1" xmlns="http://www.w3.org/2000/svg" xmlns:xlink="http://www.w3.org/1999/xlink" fill="transparent" x="0" y="0" width="350" height="350" preserveAspectRatio="xMinYMin slice"><style type="text/css">.links{fill:transparent;stroke: #E4CF37;}.links:hover{fill:#63D272; opacity:0.4;}</style><defs><g id="allt"><path id="t9434" d="M2475,2304 L2464,2303 C2454,2302 2468,2309 2459,2311 C2450,2313 2460,2303 2451,2303 L2442,2304 2442,2304 L2442,2312 C2442,2321 2444,2311 2445,2319 C2447,2327 2441,2317 2441,2326 L2442,2336 2442,2336 L2451,2336 C2460,2336 2449,2338 2457,2339 C2465,2341 2456,2335 2465,2335 L2475,2336 2475,2336 L2474,2326 C2474,2317 2479,2327 2479,2319 C2479,2312 2475,2322 2475,2313 L2475,2304"/></g><clipPath id="c" clipRule="evenodd" fill="transparent"><use href="#t9434"/></clipPath></defs><svg viewBox="2440 2301 40 41" preserveAspectRatio="xMinYMin meet"><svg width="4380" height="2430"><g><image crossorigin="anonymous" x="0" y="0" href="https://nftpuzzle.license-token.com/assets/completepuzzle.svg" width="100%" height="100%" /><g class="links"><use href="#t9434"/></g></g></svg><svg x="2465" y="2327" height="9%" width="9%" viewBox="0 0 330 330"><g><a xlink:href="https://nftpuzzle.license-token.com/" class="links"><title>See the most innovative NFT based token software licensing project</title><path fill="#E4CF37" id="more" d="M165,0C74.019,0,0,74.019,0,165s74.019,165,165,165s165-74.019,165-165S255.981,0,165,0z M85,190 c-13.785,0-25-11.215-25-25s11.215-25,25-25s25,11.215,25,25S98.785,190,85,190z M165,190c-13.785,0-25-11.215-25-25 s11.215-25,25-25s25,11.215,25,25S178.785,190,165,190z M245,190c-13.785,0-25-11.215-25-25s11.215-25,25-25 c13.785,0,25,11.215,25,25S258.785,190,245,190z"></path></a></g></svg></svg></svg>