<svg version="1.1" xmlns="http://www.w3.org/2000/svg" xmlns:xlink="http://www.w3.org/1999/xlink" fill="transparent" x="0" y="0" width="350" height="350" preserveAspectRatio="xMinYMin slice"><style type="text/css">.links{fill:transparent;stroke: #E4CF37;}.links:hover{fill:#63D272; opacity:0.4;}</style><defs><g id="allt"><path id="t9436" d="M2541,2304 L2531,2304 C2521,2304 2535,2301 2524,2300 C2514,2300 2530,2306 2519,2305 L2508,2304 2508,2304 L2506,2313 C2505,2323 2515,2311 2515,2321 C2516,2331 2506,2314 2507,2325 L2508,2336 2508,2336 L2517,2334 C2527,2333 2515,2343 2525,2343 C2536,2344 2518,2334 2529,2335 L2541,2336 2541,2336 L2539,2326 C2537,2317 2551,2328 2548,2320 C2546,2313 2538,2322 2539,2313 L2541,2304"/></g><clipPath id="c" clipRule="evenodd" fill="transparent"><use href="#t9436"/></clipPath></defs><svg viewBox="2504 2299 48 46" preserveAspectRatio="xMinYMin meet"><svg width="4380" height="2430"><g><image crossorigin="anonymous" x="0" y="0" href="https://nftpuzzle.license-token.com/assets/completepuzzle.svg" width="100%" height="100%" /><g class="links"><use href="#t9436"/></g></g></svg><svg x="2537" y="2330" height="9%" width="9%" viewBox="0 0 330 330"><g><a xlink:href="https://nftpuzzle.license-token.com/" class="links"><title>See the most innovative NFT based token software licensing project</title><path fill="#E4CF37" id="more" d="M165,0C74.019,0,0,74.019,0,165s74.019,165,165,165s165-74.019,165-165S255.981,0,165,0z M85,190 c-13.785,0-25-11.215-25-25s11.215-25,25-25s25,11.215,25,25S98.785,190,85,190z M165,190c-13.785,0-25-11.215-25-25 s11.215-25,25-25s25,11.215,25,25S178.785,190,165,190z M245,190c-13.785,0-25-11.215-25-25s11.215-25,25-25 c13.785,0,25,11.215,25,25S258.785,190,245,190z"></path></a></g></svg></svg></svg>