<svg version="1.1" xmlns="http://www.w3.org/2000/svg" xmlns:xlink="http://www.w3.org/1999/xlink" fill="transparent" x="0" y="0" width="350" height="350" preserveAspectRatio="xMinYMin slice"><style type="text/css">.links{fill:transparent;stroke: #E4CF37;}.links:hover{fill:#63D272; opacity:0.4;}</style><defs><g id="allt"><path id="t9437" d="M2574,2304 L2564,2304 C2554,2304 2567,2308 2558,2308 C2550,2309 2561,2304 2551,2304 L2541,2304 2541,2304 L2539,2313 C2538,2322 2546,2313 2548,2320 C2551,2328 2537,2317 2539,2326 L2541,2336 2541,2336 L2550,2334 C2559,2333 2550,2341 2558,2343 C2566,2345 2554,2332 2564,2334 L2574,2336 2574,2336 L2574,2326 C2575,2316 2571,2330 2571,2321 C2571,2312 2574,2323 2574,2313 L2574,2304"/></g><clipPath id="c" clipRule="evenodd" fill="transparent"><use href="#t9437"/></clipPath></defs><svg viewBox="2536 2303 40 43" preserveAspectRatio="xMinYMin meet"><svg width="4380" height="2430"><g><image crossorigin="anonymous" x="0" y="0" href="https://nftpuzzle.license-token.com/assets/completepuzzle.svg" width="100%" height="100%" /><g class="links"><use href="#t9437"/></g></g></svg><svg x="2561" y="2331" height="9%" width="9%" viewBox="0 0 330 330"><g><a xlink:href="https://nftpuzzle.license-token.com/" class="links"><title>See the most innovative NFT based token software licensing project</title><path fill="#E4CF37" id="more" d="M165,0C74.019,0,0,74.019,0,165s74.019,165,165,165s165-74.019,165-165S255.981,0,165,0z M85,190 c-13.785,0-25-11.215-25-25s11.215-25,25-25s25,11.215,25,25S98.785,190,85,190z M165,190c-13.785,0-25-11.215-25-25 s11.215-25,25-25s25,11.215,25,25S178.785,190,165,190z M245,190c-13.785,0-25-11.215-25-25s11.215-25,25-25 c13.785,0,25,11.215,25,25S258.785,190,245,190z"></path></a></g></svg></svg></svg>