<svg version="1.1" xmlns="http://www.w3.org/2000/svg" xmlns:xlink="http://www.w3.org/1999/xlink" fill="transparent" x="0" y="0" width="350" height="350" preserveAspectRatio="xMinYMin slice"><style type="text/css">.links{fill:transparent;stroke: #E4CF37;}.links:hover{fill:#63D272; opacity:0.4;}</style><defs><g id="allt"><path id="t9438" d="M2607,2304 L2596,2305 C2585,2307 2599,2300 2590,2299 C2582,2298 2594,2306 2584,2305 L2574,2304 2574,2304 L2574,2313 C2574,2323 2571,2312 2571,2321 C2571,2330 2575,2316 2574,2326 L2574,2336 2574,2336 L2583,2336 C2593,2336 2582,2333 2591,2333 C2601,2333 2587,2337 2597,2336 L2607,2336 2607,2336 L2608,2325 C2610,2315 2602,2326 2600,2318 C2599,2311 2608,2321 2607,2312 L2607,2304"/></g><clipPath id="c" clipRule="evenodd" fill="transparent"><use href="#t9438"/></clipPath></defs><svg viewBox="2570 2297 41 41" preserveAspectRatio="xMinYMin meet"><svg width="4380" height="2430"><g><image crossorigin="anonymous" x="0" y="0" href="https://nftpuzzle.license-token.com/assets/completepuzzle.svg" width="100%" height="100%" /><g class="links"><use href="#t9438"/></g></g></svg><svg x="2596" y="2323" height="9%" width="9%" viewBox="0 0 330 330"><g><a xlink:href="https://nftpuzzle.license-token.com/" class="links"><title>See the most innovative NFT based token software licensing project</title><path fill="#E4CF37" id="more" d="M165,0C74.019,0,0,74.019,0,165s74.019,165,165,165s165-74.019,165-165S255.981,0,165,0z M85,190 c-13.785,0-25-11.215-25-25s11.215-25,25-25s25,11.215,25,25S98.785,190,85,190z M165,190c-13.785,0-25-11.215-25-25 s11.215-25,25-25s25,11.215,25,25S178.785,190,165,190z M245,190c-13.785,0-25-11.215-25-25s11.215-25,25-25 c13.785,0,25,11.215,25,25S258.785,190,245,190z"></path></a></g></svg></svg></svg>