<svg version="1.1" xmlns="http://www.w3.org/2000/svg" xmlns:xlink="http://www.w3.org/1999/xlink" fill="transparent" x="0" y="0" width="350" height="350" preserveAspectRatio="xMinYMin slice"><style type="text/css">.links{fill:transparent;stroke: #E4CF37;}.links:hover{fill:#63D272; opacity:0.4;}</style><defs><g id="allt"><path id="t9444" d="M2805,2304 L2795,2304 C2786,2305 2797,2298 2788,2296 C2779,2295 2791,2307 2781,2305 L2772,2304 2772,2304 L2771,2313 C2770,2322 2781,2309 2781,2318 C2782,2328 2769,2315 2770,2325 L2772,2336 2772,2336 L2781,2335 C2791,2334 2777,2345 2787,2345 C2797,2346 2783,2333 2794,2334 L2805,2336 2805,2336 L2803,2326 C2802,2317 2810,2330 2809,2321 C2808,2312 2803,2323 2804,2313 L2805,2304"/></g><clipPath id="c" clipRule="evenodd" fill="transparent"><use href="#t9444"/></clipPath></defs><svg viewBox="2768 2294 43 53" preserveAspectRatio="xMinYMin meet"><svg width="4380" height="2430"><g><image crossorigin="anonymous" x="0" y="0" href="https://nftpuzzle.license-token.com/assets/completepuzzle.svg" width="100%" height="100%" /><g class="links"><use href="#t9444"/></g></g></svg><svg x="2796" y="2332" height="9%" width="9%" viewBox="0 0 330 330"><g><a xlink:href="https://nftpuzzle.license-token.com/" class="links"><title>See the most innovative NFT based token software licensing project</title><path fill="#E4CF37" id="more" d="M165,0C74.019,0,0,74.019,0,165s74.019,165,165,165s165-74.019,165-165S255.981,0,165,0z M85,190 c-13.785,0-25-11.215-25-25s11.215-25,25-25s25,11.215,25,25S98.785,190,85,190z M165,190c-13.785,0-25-11.215-25-25 s11.215-25,25-25s25,11.215,25,25S178.785,190,165,190z M245,190c-13.785,0-25-11.215-25-25s11.215-25,25-25 c13.785,0,25,11.215,25,25S258.785,190,245,190z"></path></a></g></svg></svg></svg>