<svg version="1.1" xmlns="http://www.w3.org/2000/svg" xmlns:xlink="http://www.w3.org/1999/xlink" fill="transparent" x="0" y="0" width="350" height="350" preserveAspectRatio="xMinYMin slice"><style type="text/css">.links{fill:transparent;stroke: #E4CF37;}.links:hover{fill:#63D272; opacity:0.4;}</style><defs><g id="allt"><path id="t9445" d="M2838,2304 L2827,2304 C2816,2304 2828,2301 2820,2300 C2812,2300 2825,2304 2815,2304 L2805,2304 2805,2304 L2804,2313 C2803,2323 2808,2312 2809,2321 C2810,2330 2802,2317 2803,2326 L2805,2336 2805,2336 L2815,2335 C2825,2334 2814,2339 2823,2340 C2832,2341 2819,2333 2828,2334 L2838,2336 2838,2336 L2839,2325 C2840,2314 2831,2327 2831,2318 C2831,2310 2840,2324 2839,2314 L2838,2304"/></g><clipPath id="c" clipRule="evenodd" fill="transparent"><use href="#t9445"/></clipPath></defs><svg viewBox="2801 2299 40 43" preserveAspectRatio="xMinYMin meet"><svg width="4380" height="2430"><g><image crossorigin="anonymous" x="0" y="0" href="https://nftpuzzle.license-token.com/assets/completepuzzle.svg" width="100%" height="100%" /><g class="links"><use href="#t9445"/></g></g></svg><svg x="2826" y="2327" height="9%" width="9%" viewBox="0 0 330 330"><g><a xlink:href="https://nftpuzzle.license-token.com/" class="links"><title>See the most innovative NFT based token software licensing project</title><path fill="#E4CF37" id="more" d="M165,0C74.019,0,0,74.019,0,165s74.019,165,165,165s165-74.019,165-165S255.981,0,165,0z M85,190 c-13.785,0-25-11.215-25-25s11.215-25,25-25s25,11.215,25,25S98.785,190,85,190z M165,190c-13.785,0-25-11.215-25-25 s11.215-25,25-25s25,11.215,25,25S178.785,190,165,190z M245,190c-13.785,0-25-11.215-25-25s11.215-25,25-25 c13.785,0,25,11.215,25,25S258.785,190,245,190z"></path></a></g></svg></svg></svg>