<svg version="1.1" xmlns="http://www.w3.org/2000/svg" xmlns:xlink="http://www.w3.org/1999/xlink" fill="transparent" x="0" y="0" width="350" height="350" preserveAspectRatio="xMinYMin slice"><style type="text/css">.links{fill:transparent;stroke: #E4CF37;}.links:hover{fill:#63D272; opacity:0.4;}</style><defs><g id="allt"><path id="t9453" d="M3102,2304 L3092,2304 C3083,2305 3092,2299 3085,2299 C3078,2299 3089,2304 3079,2304 L3069,2304 3069,2304 L3069,2313 C3070,2322 3063,2308 3064,2319 C3065,2330 3070,2315 3069,2325 L3069,2336 3069,2336 L3078,2336 C3087,2337 3073,2330 3084,2331 C3096,2332 3080,2337 3091,2336 L3102,2336 3102,2336 L3101,2325 C3100,2315 3105,2330 3106,2319 C3107,2309 3102,2321 3102,2312 L3102,2304"/></g><clipPath id="c" clipRule="evenodd" fill="transparent"><use href="#t9453"/></clipPath></defs><svg viewBox="3062 2298 46 40" preserveAspectRatio="xMinYMin meet"><svg width="4380" height="2430"><g><image crossorigin="anonymous" x="0" y="0" href="https://nftpuzzle.license-token.com/assets/completepuzzle.svg" width="100%" height="100%" /><g class="links"><use href="#t9453"/></g></g></svg><svg x="3093" y="2323" height="9%" width="9%" viewBox="0 0 330 330"><g><a xlink:href="https://nftpuzzle.license-token.com/" class="links"><title>See the most innovative NFT based token software licensing project</title><path fill="#E4CF37" id="more" d="M165,0C74.019,0,0,74.019,0,165s74.019,165,165,165s165-74.019,165-165S255.981,0,165,0z M85,190 c-13.785,0-25-11.215-25-25s11.215-25,25-25s25,11.215,25,25S98.785,190,85,190z M165,190c-13.785,0-25-11.215-25-25 s11.215-25,25-25s25,11.215,25,25S178.785,190,165,190z M245,190c-13.785,0-25-11.215-25-25s11.215-25,25-25 c13.785,0,25,11.215,25,25S258.785,190,245,190z"></path></a></g></svg></svg></svg>