<svg version="1.1" xmlns="http://www.w3.org/2000/svg" xmlns:xlink="http://www.w3.org/1999/xlink" fill="transparent" x="0" y="0" width="350" height="350" preserveAspectRatio="xMinYMin slice"><style type="text/css">.links{fill:transparent;stroke: #E4CF37;}.links:hover{fill:#63D272; opacity:0.4;}</style><defs><g id="allt"><path id="t9455" d="M3168,2304 L3157,2305 C3147,2306 3161,2300 3152,2298 C3144,2297 3154,2307 3144,2305 L3135,2304 3135,2304 L3135,2312 C3135,2321 3129,2313 3130,2321 C3131,2330 3135,2315 3135,2325 L3135,2336 3135,2336 L3144,2336 C3153,2336 3144,2330 3153,2331 C3162,2332 3146,2336 3157,2336 L3168,2336 3168,2336 L3168,2325 C3169,2314 3180,2326 3179,2317 C3179,2309 3163,2322 3165,2313 L3168,2304"/></g><clipPath id="c" clipRule="evenodd" fill="transparent"><use href="#t9455"/></clipPath></defs><svg viewBox="3128 2296 53 41" preserveAspectRatio="xMinYMin meet"><svg width="4380" height="2430"><g><image crossorigin="anonymous" x="0" y="0" href="https://nftpuzzle.license-token.com/assets/completepuzzle.svg" width="100%" height="100%" /><g class="links"><use href="#t9455"/></g></g></svg><svg x="3166" y="2322" height="9%" width="9%" viewBox="0 0 330 330"><g><a xlink:href="https://nftpuzzle.license-token.com/" class="links"><title>See the most innovative NFT based token software licensing project</title><path fill="#E4CF37" id="more" d="M165,0C74.019,0,0,74.019,0,165s74.019,165,165,165s165-74.019,165-165S255.981,0,165,0z M85,190 c-13.785,0-25-11.215-25-25s11.215-25,25-25s25,11.215,25,25S98.785,190,85,190z M165,190c-13.785,0-25-11.215-25-25 s11.215-25,25-25s25,11.215,25,25S178.785,190,165,190z M245,190c-13.785,0-25-11.215-25-25s11.215-25,25-25 c13.785,0,25,11.215,25,25S258.785,190,245,190z"></path></a></g></svg></svg></svg>