<svg version="1.1" xmlns="http://www.w3.org/2000/svg" xmlns:xlink="http://www.w3.org/1999/xlink" fill="transparent" x="0" y="0" width="350" height="350" preserveAspectRatio="xMinYMin slice"><style type="text/css">.links{fill:transparent;stroke: #E4CF37;}.links:hover{fill:#63D272; opacity:0.4;}</style><defs><g id="allt"><path id="t9459" d="M3300,2304 L3289,2304 C3278,2305 3292,2301 3283,2301 C3274,2301 3287,2306 3277,2305 L3267,2304 3267,2304 L3269,2314 C3272,2325 3258,2312 3257,2320 C3257,2329 3269,2316 3268,2326 L3267,2336 3267,2336 L3278,2338 C3289,2341 3275,2327 3284,2327 C3293,2327 3280,2338 3290,2337 L3300,2336 3300,2336 L3301,2326 C3303,2316 3291,2327 3291,2320 C3292,2313 3303,2323 3301,2313 L3300,2304"/></g><clipPath id="c" clipRule="evenodd" fill="transparent"><use href="#t9459"/></clipPath></defs><svg viewBox="3256 2300 48 42" preserveAspectRatio="xMinYMin meet"><svg width="4380" height="2430"><g><image crossorigin="anonymous" x="0" y="0" href="https://nftpuzzle.license-token.com/assets/completepuzzle.svg" width="100%" height="100%" /><g class="links"><use href="#t9459"/></g></g></svg><svg x="3289" y="2327" height="9%" width="9%" viewBox="0 0 330 330"><g><a xlink:href="https://nftpuzzle.license-token.com/" class="links"><title>See the most innovative NFT based token software licensing project</title><path fill="#E4CF37" id="more" d="M165,0C74.019,0,0,74.019,0,165s74.019,165,165,165s165-74.019,165-165S255.981,0,165,0z M85,190 c-13.785,0-25-11.215-25-25s11.215-25,25-25s25,11.215,25,25S98.785,190,85,190z M165,190c-13.785,0-25-11.215-25-25 s11.215-25,25-25s25,11.215,25,25S178.785,190,165,190z M245,190c-13.785,0-25-11.215-25-25s11.215-25,25-25 c13.785,0,25,11.215,25,25S258.785,190,245,190z"></path></a></g></svg></svg></svg>