<svg version="1.1" xmlns="http://www.w3.org/2000/svg" xmlns:xlink="http://www.w3.org/1999/xlink" fill="transparent" x="0" y="0" width="350" height="350" preserveAspectRatio="xMinYMin slice"><style type="text/css">.links{fill:transparent;stroke: #E4CF37;}.links:hover{fill:#63D272; opacity:0.4;}</style><defs><g id="allt"><path id="t9460" d="M3333,2304 L3322,2303 C3311,2302 3325,2312 3315,2311 C3305,2310 3318,2301 3309,2302 L3300,2304 3300,2304 L3301,2313 C3303,2323 3292,2313 3291,2320 C3291,2327 3303,2316 3301,2326 L3300,2336 3300,2336 L3310,2337 C3320,2339 3309,2328 3316,2328 C3324,2328 3312,2339 3322,2337 L3333,2336 3333,2336 L3333,2325 C3333,2314 3322,2328 3324,2319 C3327,2311 3334,2324 3333,2314 L3333,2304"/></g><clipPath id="c" clipRule="evenodd" fill="transparent"><use href="#t9460"/></clipPath></defs><svg viewBox="3290 2300 45 40" preserveAspectRatio="xMinYMin meet"><svg width="4380" height="2430"><g><image crossorigin="anonymous" x="0" y="0" href="https://nftpuzzle.license-token.com/assets/completepuzzle.svg" width="100%" height="100%" /><g class="links"><use href="#t9460"/></g></g></svg><svg x="3320" y="2325" height="9%" width="9%" viewBox="0 0 330 330"><g><a xlink:href="https://nftpuzzle.license-token.com/" class="links"><title>See the most innovative NFT based token software licensing project</title><path fill="#E4CF37" id="more" d="M165,0C74.019,0,0,74.019,0,165s74.019,165,165,165s165-74.019,165-165S255.981,0,165,0z M85,190 c-13.785,0-25-11.215-25-25s11.215-25,25-25s25,11.215,25,25S98.785,190,85,190z M165,190c-13.785,0-25-11.215-25-25 s11.215-25,25-25s25,11.215,25,25S178.785,190,165,190z M245,190c-13.785,0-25-11.215-25-25s11.215-25,25-25 c13.785,0,25,11.215,25,25S258.785,190,245,190z"></path></a></g></svg></svg></svg>