<svg version="1.1" xmlns="http://www.w3.org/2000/svg" xmlns:xlink="http://www.w3.org/1999/xlink" fill="transparent" x="0" y="0" width="350" height="350" preserveAspectRatio="xMinYMin slice"><style type="text/css">.links{fill:transparent;stroke: #E4CF37;}.links:hover{fill:#63D272; opacity:0.4;}</style><defs><g id="allt"><path id="t9462" d="M3399,2304 L3388,2304 C3378,2304 3390,2297 3381,2297 C3373,2298 3386,2304 3376,2304 L3366,2304 3366,2304 L3364,2313 C3363,2322 3372,2309 3373,2317 C3374,2326 3367,2315 3366,2325 L3366,2336 3366,2336 L3375,2334 C3384,2333 3371,2342 3380,2343 C3389,2344 3377,2337 3388,2336 L3399,2336 3399,2336 L3398,2327 C3397,2318 3408,2327 3409,2319 C3410,2311 3400,2322 3399,2313 L3399,2304"/></g><clipPath id="c" clipRule="evenodd" fill="transparent"><use href="#t9462"/></clipPath></defs><svg viewBox="3362 2296 49 49" preserveAspectRatio="xMinYMin meet"><svg width="4380" height="2430"><g><image crossorigin="anonymous" x="0" y="0" href="https://nftpuzzle.license-token.com/assets/completepuzzle.svg" width="100%" height="100%" /><g class="links"><use href="#t9462"/></g></g></svg><svg x="3396" y="2330" height="9%" width="9%" viewBox="0 0 330 330"><g><a xlink:href="https://nftpuzzle.license-token.com/" class="links"><title>See the most innovative NFT based token software licensing project</title><path fill="#E4CF37" id="more" d="M165,0C74.019,0,0,74.019,0,165s74.019,165,165,165s165-74.019,165-165S255.981,0,165,0z M85,190 c-13.785,0-25-11.215-25-25s11.215-25,25-25s25,11.215,25,25S98.785,190,85,190z M165,190c-13.785,0-25-11.215-25-25 s11.215-25,25-25s25,11.215,25,25S178.785,190,165,190z M245,190c-13.785,0-25-11.215-25-25s11.215-25,25-25 c13.785,0,25,11.215,25,25S258.785,190,245,190z"></path></a></g></svg></svg></svg>