<svg version="1.1" xmlns="http://www.w3.org/2000/svg" xmlns:xlink="http://www.w3.org/1999/xlink" fill="transparent" x="0" y="0" width="350" height="350" preserveAspectRatio="xMinYMin slice"><style type="text/css">.links{fill:transparent;stroke: #E4CF37;}.links:hover{fill:#63D272; opacity:0.4;}</style><defs><g id="allt"><path id="t9463" d="M3432,2304 L3421,2302 C3410,2300 3427,2315 3415,2313 C3404,2312 3419,2300 3409,2302 L3399,2304 3399,2304 L3399,2313 C3400,2322 3410,2311 3409,2319 C3408,2327 3397,2318 3398,2327 L3399,2336 3399,2336 L3408,2336 C3418,2337 3406,2346 3414,2345 C3423,2344 3413,2334 3422,2335 L3432,2336 3432,2336 L3430,2326 C3428,2316 3437,2327 3437,2319 C3438,2311 3428,2322 3430,2313 L3432,2304"/></g><clipPath id="c" clipRule="evenodd" fill="transparent"><use href="#t9463"/></clipPath></defs><svg viewBox="3396 2299 43 48" preserveAspectRatio="xMinYMin meet"><svg width="4380" height="2430"><g><image crossorigin="anonymous" x="0" y="0" href="https://nftpuzzle.license-token.com/assets/completepuzzle.svg" width="100%" height="100%" /><g class="links"><use href="#t9463"/></g></g></svg><svg x="3424" y="2332" height="9%" width="9%" viewBox="0 0 330 330"><g><a xlink:href="https://nftpuzzle.license-token.com/" class="links"><title>See the most innovative NFT based token software licensing project</title><path fill="#E4CF37" id="more" d="M165,0C74.019,0,0,74.019,0,165s74.019,165,165,165s165-74.019,165-165S255.981,0,165,0z M85,190 c-13.785,0-25-11.215-25-25s11.215-25,25-25s25,11.215,25,25S98.785,190,85,190z M165,190c-13.785,0-25-11.215-25-25 s11.215-25,25-25s25,11.215,25,25S178.785,190,165,190z M245,190c-13.785,0-25-11.215-25-25s11.215-25,25-25 c13.785,0,25,11.215,25,25S258.785,190,245,190z"></path></a></g></svg></svg></svg>