<svg version="1.1" xmlns="http://www.w3.org/2000/svg" xmlns:xlink="http://www.w3.org/1999/xlink" fill="transparent" x="0" y="0" width="350" height="350" preserveAspectRatio="xMinYMin slice"><style type="text/css">.links{fill:transparent;stroke: #E4CF37;}.links:hover{fill:#63D272; opacity:0.4;}</style><defs><g id="allt"><path id="t9464" d="M3465,2304 L3454,2304 C3444,2304 3459,2309 3449,2311 C3439,2314 3451,2301 3441,2302 L3432,2304 3432,2304 L3430,2313 C3428,2322 3438,2311 3437,2319 C3437,2327 3428,2316 3430,2326 L3432,2336 3432,2336 L3441,2334 C3450,2332 3439,2342 3447,2341 C3456,2341 3444,2332 3454,2334 L3465,2336 3465,2336 L3464,2326 C3463,2316 3471,2329 3471,2319 C3472,2309 3465,2323 3465,2313 L3465,2304"/></g><clipPath id="c" clipRule="evenodd" fill="transparent"><use href="#t9464"/></clipPath></defs><svg viewBox="3427 2300 46 43" preserveAspectRatio="xMinYMin meet"><svg width="4380" height="2430"><g><image crossorigin="anonymous" x="0" y="0" href="https://nftpuzzle.license-token.com/assets/completepuzzle.svg" width="100%" height="100%" /><g class="links"><use href="#t9464"/></g></g></svg><svg x="3458" y="2328" height="9%" width="9%" viewBox="0 0 330 330"><g><a xlink:href="https://nftpuzzle.license-token.com/" class="links"><title>See the most innovative NFT based token software licensing project</title><path fill="#E4CF37" id="more" d="M165,0C74.019,0,0,74.019,0,165s74.019,165,165,165s165-74.019,165-165S255.981,0,165,0z M85,190 c-13.785,0-25-11.215-25-25s11.215-25,25-25s25,11.215,25,25S98.785,190,85,190z M165,190c-13.785,0-25-11.215-25-25 s11.215-25,25-25s25,11.215,25,25S178.785,190,165,190z M245,190c-13.785,0-25-11.215-25-25s11.215-25,25-25 c13.785,0,25,11.215,25,25S258.785,190,245,190z"></path></a></g></svg></svg></svg>