<svg version="1.1" xmlns="http://www.w3.org/2000/svg" xmlns:xlink="http://www.w3.org/1999/xlink" fill="transparent" x="0" y="0" width="350" height="350" preserveAspectRatio="xMinYMin slice"><style type="text/css">.links{fill:transparent;stroke: #E4CF37;}.links:hover{fill:#63D272; opacity:0.4;}</style><defs><g id="allt"><path id="t9469" d="M3630,2304 L3620,2304 C3611,2305 3624,2299 3613,2300 C3603,2301 3615,2306 3606,2305 L3597,2304 3597,2304 L3596,2314 C3596,2325 3606,2311 3605,2319 C3604,2328 3594,2318 3595,2327 L3597,2336 3597,2336 L3608,2335 C3619,2335 3604,2345 3613,2344 C3622,2343 3611,2333 3620,2334 L3630,2336 3630,2336 L3630,2327 C3630,2318 3619,2330 3620,2321 C3622,2313 3635,2325 3632,2314 L3630,2304"/></g><clipPath id="c" clipRule="evenodd" fill="transparent"><use href="#t9469"/></clipPath></defs><svg viewBox="3593 2298 43 48" preserveAspectRatio="xMinYMin meet"><svg width="4380" height="2430"><g><image crossorigin="anonymous" x="0" y="0" href="https://nftpuzzle.license-token.com/assets/completepuzzle.svg" width="100%" height="100%" /><g class="links"><use href="#t9469"/></g></g></svg><svg x="3621" y="2331" height="9%" width="9%" viewBox="0 0 330 330"><g><a xlink:href="https://nftpuzzle.license-token.com/" class="links"><title>See the most innovative NFT based token software licensing project</title><path fill="#E4CF37" id="more" d="M165,0C74.019,0,0,74.019,0,165s74.019,165,165,165s165-74.019,165-165S255.981,0,165,0z M85,190 c-13.785,0-25-11.215-25-25s11.215-25,25-25s25,11.215,25,25S98.785,190,85,190z M165,190c-13.785,0-25-11.215-25-25 s11.215-25,25-25s25,11.215,25,25S178.785,190,165,190z M245,190c-13.785,0-25-11.215-25-25s11.215-25,25-25 c13.785,0,25,11.215,25,25S258.785,190,245,190z"></path></a></g></svg></svg></svg>