<svg version="1.1" xmlns="http://www.w3.org/2000/svg" xmlns:xlink="http://www.w3.org/1999/xlink" fill="transparent" x="0" y="0" width="350" height="350" preserveAspectRatio="xMinYMin slice"><style type="text/css">.links{fill:transparent;stroke: #E4CF37;}.links:hover{fill:#63D272; opacity:0.4;}</style><defs><g id="allt"><path id="t947" d="M1254,224 L1244,223 C1235,222 1248,230 1237,231 C1226,232 1242,219 1231,221 L1221,224 1221,224 L1221,234 C1221,245 1216,232 1216,239 C1217,246 1222,236 1221,246 L1221,256 1221,256 L1231,256 C1242,256 1230,251 1237,251 C1244,252 1234,257 1244,256 L1254,256 1254,256 L1253,245 C1253,235 1261,250 1261,239 C1262,229 1252,243 1253,233 L1254,224"/></g><clipPath id="c" clipRule="evenodd" fill="transparent"><use href="#t947"/></clipPath></defs><svg viewBox="1215 218 48 40" preserveAspectRatio="xMinYMin meet"><svg width="4380" height="2430"><g><image crossorigin="anonymous" x="0" y="0" href="https://nftpuzzle.license-token.com/assets/completepuzzle.svg" width="100%" height="100%" /><g class="links"><use href="#t947"/></g></g></svg><svg x="1248" y="243" height="9%" width="9%" viewBox="0 0 330 330"><g><a xlink:href="https://nftpuzzle.license-token.com/" class="links"><title>See the most innovative NFT based token software licensing project</title><path fill="#E4CF37" id="more" d="M165,0C74.019,0,0,74.019,0,165s74.019,165,165,165s165-74.019,165-165S255.981,0,165,0z M85,190 c-13.785,0-25-11.215-25-25s11.215-25,25-25s25,11.215,25,25S98.785,190,85,190z M165,190c-13.785,0-25-11.215-25-25 s11.215-25,25-25s25,11.215,25,25S178.785,190,165,190z M245,190c-13.785,0-25-11.215-25-25s11.215-25,25-25 c13.785,0,25,11.215,25,25S258.785,190,245,190z"></path></a></g></svg></svg></svg>