<svg version="1.1" xmlns="http://www.w3.org/2000/svg" xmlns:xlink="http://www.w3.org/1999/xlink" fill="transparent" x="0" y="0" width="350" height="350" preserveAspectRatio="xMinYMin slice"><style type="text/css">.links{fill:transparent;stroke: #E4CF37;}.links:hover{fill:#63D272; opacity:0.4;}</style><defs><g id="allt"><path id="t9471" d="M3696,2304 L3684,2305 C3673,2306 3688,2300 3680,2300 C3672,2301 3683,2306 3673,2305 L3663,2304 3663,2304 L3665,2313 C3668,2322 3654,2309 3655,2319 C3656,2330 3663,2316 3663,2326 L3663,2336 3663,2336 L3672,2338 C3682,2341 3668,2327 3679,2328 C3690,2329 3676,2336 3686,2336 L3696,2336 3696,2336 L3696,2326 C3696,2317 3694,2328 3694,2318 C3694,2309 3697,2324 3696,2314 L3696,2304"/></g><clipPath id="c" clipRule="evenodd" fill="transparent"><use href="#t9471"/></clipPath></defs><svg viewBox="3653 2299 45 43" preserveAspectRatio="xMinYMin meet"><svg width="4380" height="2430"><g><image crossorigin="anonymous" x="0" y="0" href="https://nftpuzzle.license-token.com/assets/completepuzzle.svg" width="100%" height="100%" /><g class="links"><use href="#t9471"/></g></g></svg><svg x="3683" y="2327" height="9%" width="9%" viewBox="0 0 330 330"><g><a xlink:href="https://nftpuzzle.license-token.com/" class="links"><title>See the most innovative NFT based token software licensing project</title><path fill="#E4CF37" id="more" d="M165,0C74.019,0,0,74.019,0,165s74.019,165,165,165s165-74.019,165-165S255.981,0,165,0z M85,190 c-13.785,0-25-11.215-25-25s11.215-25,25-25s25,11.215,25,25S98.785,190,85,190z M165,190c-13.785,0-25-11.215-25-25 s11.215-25,25-25s25,11.215,25,25S178.785,190,165,190z M245,190c-13.785,0-25-11.215-25-25s11.215-25,25-25 c13.785,0,25,11.215,25,25S258.785,190,245,190z"></path></a></g></svg></svg></svg>