<svg version="1.1" xmlns="http://www.w3.org/2000/svg" xmlns:xlink="http://www.w3.org/1999/xlink" fill="transparent" x="0" y="0" width="350" height="350" preserveAspectRatio="xMinYMin slice"><style type="text/css">.links{fill:transparent;stroke: #E4CF37;}.links:hover{fill:#63D272; opacity:0.4;}</style><defs><g id="allt"><path id="t9472" d="M3729,2304 L3718,2304 C3708,2304 3720,2300 3712,2299 C3704,2299 3714,2304 3705,2304 L3696,2304 3696,2304 L3696,2314 C3697,2324 3694,2309 3694,2318 C3694,2328 3696,2317 3696,2326 L3696,2336 3696,2336 L3706,2336 C3716,2337 3701,2334 3711,2334 C3721,2334 3709,2336 3719,2336 L3729,2336 3729,2336 L3729,2326 C3729,2316 3720,2327 3721,2319 C3722,2311 3731,2322 3730,2313 L3729,2304"/></g><clipPath id="c" clipRule="evenodd" fill="transparent"><use href="#t9472"/></clipPath></defs><svg viewBox="3693 2298 39 40" preserveAspectRatio="xMinYMin meet"><svg width="4380" height="2430"><g><image crossorigin="anonymous" x="0" y="0" href="https://nftpuzzle.license-token.com/assets/completepuzzle.svg" width="100%" height="100%" /><g class="links"><use href="#t9472"/></g></g></svg><svg x="3717" y="2323" height="9%" width="9%" viewBox="0 0 330 330"><g><a xlink:href="https://nftpuzzle.license-token.com/" class="links"><title>See the most innovative NFT based token software licensing project</title><path fill="#E4CF37" id="more" d="M165,0C74.019,0,0,74.019,0,165s74.019,165,165,165s165-74.019,165-165S255.981,0,165,0z M85,190 c-13.785,0-25-11.215-25-25s11.215-25,25-25s25,11.215,25,25S98.785,190,85,190z M165,190c-13.785,0-25-11.215-25-25 s11.215-25,25-25s25,11.215,25,25S178.785,190,165,190z M245,190c-13.785,0-25-11.215-25-25s11.215-25,25-25 c13.785,0,25,11.215,25,25S258.785,190,245,190z"></path></a></g></svg></svg></svg>