<svg version="1.1" xmlns="http://www.w3.org/2000/svg" xmlns:xlink="http://www.w3.org/1999/xlink" fill="transparent" x="0" y="0" width="350" height="350" preserveAspectRatio="xMinYMin slice"><style type="text/css">.links{fill:transparent;stroke: #E4CF37;}.links:hover{fill:#63D272; opacity:0.4;}</style><defs><g id="allt"><path id="t9484" d="M4125,2304 L4115,2304 C4105,2304 4118,2301 4107,2299 C4097,2298 4110,2304 4101,2304 L4092,2304 4092,2304 L4092,2314 C4092,2324 4096,2309 4097,2318 C4099,2328 4089,2317 4090,2326 L4092,2336 4092,2336 L4102,2336 C4113,2336 4097,2340 4107,2341 C4117,2343 4105,2333 4115,2334 L4125,2336 4125,2336 L4125,2325 C4125,2314 4129,2327 4130,2319 C4131,2312 4125,2325 4125,2314 L4125,2304"/></g><clipPath id="c" clipRule="evenodd" fill="transparent"><use href="#t9484"/></clipPath></defs><svg viewBox="4088 2297 44 47" preserveAspectRatio="xMinYMin meet"><svg width="4380" height="2430"><g><image crossorigin="anonymous" x="0" y="0" href="https://nftpuzzle.license-token.com/assets/completepuzzle.svg" width="100%" height="100%" /><g class="links"><use href="#t9484"/></g></g></svg><svg x="4117" y="2329" height="9%" width="9%" viewBox="0 0 330 330"><g><a xlink:href="https://nftpuzzle.license-token.com/" class="links"><title>See the most innovative NFT based token software licensing project</title><path fill="#E4CF37" id="more" d="M165,0C74.019,0,0,74.019,0,165s74.019,165,165,165s165-74.019,165-165S255.981,0,165,0z M85,190 c-13.785,0-25-11.215-25-25s11.215-25,25-25s25,11.215,25,25S98.785,190,85,190z M165,190c-13.785,0-25-11.215-25-25 s11.215-25,25-25s25,11.215,25,25S178.785,190,165,190z M245,190c-13.785,0-25-11.215-25-25s11.215-25,25-25 c13.785,0,25,11.215,25,25S258.785,190,245,190z"></path></a></g></svg></svg></svg>