<svg version="1.1" xmlns="http://www.w3.org/2000/svg" xmlns:xlink="http://www.w3.org/1999/xlink" fill="transparent" x="0" y="0" width="350" height="350" preserveAspectRatio="xMinYMin slice"><style type="text/css">.links{fill:transparent;stroke: #E4CF37;}.links:hover{fill:#63D272; opacity:0.4;}</style><defs><g id="allt"><path id="t9487" d="M4224,2304 L4214,2304 C4204,2304 4214,2300 4205,2301 C4197,2302 4209,2304 4200,2304 L4191,2304 4191,2304 L4191,2314 C4191,2324 4199,2309 4198,2317 C4197,2326 4189,2315 4190,2325 L4191,2336 4191,2336 L4201,2336 C4212,2336 4196,2344 4205,2343 C4214,2342 4202,2334 4213,2335 L4224,2336 4224,2336 L4226,2326 C4228,2316 4214,2326 4213,2317 C4212,2309 4224,2325 4224,2314 L4224,2304"/></g><clipPath id="c" clipRule="evenodd" fill="transparent"><use href="#t9487"/></clipPath></defs><svg viewBox="4188 2299 41 46" preserveAspectRatio="xMinYMin meet"><svg width="4380" height="2430"><g><image crossorigin="anonymous" x="0" y="0" href="https://nftpuzzle.license-token.com/assets/completepuzzle.svg" width="100%" height="100%" /><g class="links"><use href="#t9487"/></g></g></svg><svg x="4214" y="2330" height="9%" width="9%" viewBox="0 0 330 330"><g><a xlink:href="https://nftpuzzle.license-token.com/" class="links"><title>See the most innovative NFT based token software licensing project</title><path fill="#E4CF37" id="more" d="M165,0C74.019,0,0,74.019,0,165s74.019,165,165,165s165-74.019,165-165S255.981,0,165,0z M85,190 c-13.785,0-25-11.215-25-25s11.215-25,25-25s25,11.215,25,25S98.785,190,85,190z M165,190c-13.785,0-25-11.215-25-25 s11.215-25,25-25s25,11.215,25,25S178.785,190,165,190z M245,190c-13.785,0-25-11.215-25-25s11.215-25,25-25 c13.785,0,25,11.215,25,25S258.785,190,245,190z"></path></a></g></svg></svg></svg>