<svg version="1.1" xmlns="http://www.w3.org/2000/svg" xmlns:xlink="http://www.w3.org/1999/xlink" fill="transparent" x="0" y="0" width="350" height="350" preserveAspectRatio="xMinYMin slice"><style type="text/css">.links{fill:transparent;stroke: #E4CF37;}.links:hover{fill:#63D272; opacity:0.4;}</style><defs><g id="allt"><path id="t9488" d="M4257,2304 L4246,2302 C4235,2301 4247,2310 4240,2311 C4233,2312 4245,2300 4234,2302 L4224,2304 4224,2304 L4224,2314 C4224,2325 4212,2309 4213,2317 C4214,2326 4228,2316 4226,2326 L4224,2336 4224,2336 L4235,2336 C4246,2336 4229,2325 4238,2326 C4247,2327 4236,2340 4246,2338 L4257,2336 4257,2336 L4255,2326 C4253,2317 4264,2328 4263,2319 C4263,2310 4254,2323 4255,2313 L4257,2304"/></g><clipPath id="c" clipRule="evenodd" fill="transparent"><use href="#t9488"/></clipPath></defs><svg viewBox="4211 2299 54 42" preserveAspectRatio="xMinYMin meet"><svg width="4380" height="2430"><g><image crossorigin="anonymous" x="0" y="0" href="https://nftpuzzle.license-token.com/assets/completepuzzle.svg" width="100%" height="100%" /><g class="links"><use href="#t9488"/></g></g></svg><svg x="4250" y="2326" height="9%" width="9%" viewBox="0 0 330 330"><g><a xlink:href="https://nftpuzzle.license-token.com/" class="links"><title>See the most innovative NFT based token software licensing project</title><path fill="#E4CF37" id="more" d="M165,0C74.019,0,0,74.019,0,165s74.019,165,165,165s165-74.019,165-165S255.981,0,165,0z M85,190 c-13.785,0-25-11.215-25-25s11.215-25,25-25s25,11.215,25,25S98.785,190,85,190z M165,190c-13.785,0-25-11.215-25-25 s11.215-25,25-25s25,11.215,25,25S178.785,190,165,190z M245,190c-13.785,0-25-11.215-25-25s11.215-25,25-25 c13.785,0,25,11.215,25,25S258.785,190,245,190z"></path></a></g></svg></svg></svg>