<svg version="1.1" xmlns="http://www.w3.org/2000/svg" xmlns:xlink="http://www.w3.org/1999/xlink" fill="transparent" x="0" y="0" width="350" height="350" preserveAspectRatio="xMinYMin slice"><style type="text/css">.links{fill:transparent;stroke: #E4CF37;}.links:hover{fill:#63D272; opacity:0.4;}</style><defs><g id="allt"><path id="t9489" d="M4290,2304 L4280,2303 C4271,2302 4284,2311 4273,2309 C4262,2308 4276,2302 4266,2303 L4257,2304 4257,2304 L4255,2313 C4254,2323 4263,2310 4263,2319 C4264,2328 4253,2317 4255,2326 L4257,2336 4257,2336 L4267,2334 C4277,2333 4263,2342 4272,2342 C4281,2343 4270,2332 4280,2334 L4290,2336 L4290,2336 L4290,2304"/></g><clipPath id="c" clipRule="evenodd" fill="transparent"><use href="#t9489"/></clipPath></defs><svg viewBox="4252 2301 39 43" preserveAspectRatio="xMinYMin meet"><svg width="4380" height="2430"><g><image crossorigin="anonymous" x="0" y="0" href="https://nftpuzzle.license-token.com/assets/completepuzzle.svg" width="100%" height="100%" /><g class="links"><use href="#t9489"/></g></g></svg><svg x="4276" y="2329" height="9%" width="9%" viewBox="0 0 330 330"><g><a xlink:href="https://nftpuzzle.license-token.com/" class="links"><title>See the most innovative NFT based token software licensing project</title><path fill="#E4CF37" id="more" d="M165,0C74.019,0,0,74.019,0,165s74.019,165,165,165s165-74.019,165-165S255.981,0,165,0z M85,190 c-13.785,0-25-11.215-25-25s11.215-25,25-25s25,11.215,25,25S98.785,190,85,190z M165,190c-13.785,0-25-11.215-25-25 s11.215-25,25-25s25,11.215,25,25S178.785,190,165,190z M245,190c-13.785,0-25-11.215-25-25s11.215-25,25-25 c13.785,0,25,11.215,25,25S258.785,190,245,190z"></path></a></g></svg></svg></svg>