<svg version="1.1" xmlns="http://www.w3.org/2000/svg" xmlns:xlink="http://www.w3.org/1999/xlink" fill="transparent" x="0" y="0" width="350" height="350" preserveAspectRatio="xMinYMin slice"><style type="text/css">.links{fill:transparent;stroke: #E4CF37;}.links:hover{fill:#63D272; opacity:0.4;}</style><defs><g id="allt"><path id="t9498" d="M297,2336 L286,2336 C275,2336 288,2334 280,2334 C272,2334 282,2336 273,2336 L264,2336 264,2336 L264,2345 C264,2355 258,2342 260,2351 C262,2360 264,2348 264,2358 L264,2368 264,2368 L274,2368 C284,2368 270,2362 279,2364 C289,2366 276,2368 286,2368 L297,2368 297,2368 L298,2358 C300,2348 286,2363 289,2353 C292,2343 299,2355 298,2345 L297,2336"/></g><clipPath id="c" clipRule="evenodd" fill="transparent"><use href="#t9498"/></clipPath></defs><svg viewBox="257 2333 44 36" preserveAspectRatio="xMinYMin meet"><svg width="4380" height="2430"><g><image crossorigin="anonymous" x="0" y="0" href="https://nftpuzzle.license-token.com/assets/completepuzzle.svg" width="100%" height="100%" /><g class="links"><use href="#t9498"/></g></g></svg><svg x="286" y="2354" height="9%" width="9%" viewBox="0 0 330 330"><g><a xlink:href="https://nftpuzzle.license-token.com/" class="links"><title>See the most innovative NFT based token software licensing project</title><path fill="#E4CF37" id="more" d="M165,0C74.019,0,0,74.019,0,165s74.019,165,165,165s165-74.019,165-165S255.981,0,165,0z M85,190 c-13.785,0-25-11.215-25-25s11.215-25,25-25s25,11.215,25,25S98.785,190,85,190z M165,190c-13.785,0-25-11.215-25-25 s11.215-25,25-25s25,11.215,25,25S178.785,190,165,190z M245,190c-13.785,0-25-11.215-25-25s11.215-25,25-25 c13.785,0,25,11.215,25,25S258.785,190,245,190z"></path></a></g></svg></svg></svg>