<svg version="1.1" xmlns="http://www.w3.org/2000/svg" xmlns:xlink="http://www.w3.org/1999/xlink" fill="transparent" x="0" y="0" width="350" height="350" preserveAspectRatio="xMinYMin slice"><style type="text/css">.links{fill:transparent;stroke: #E4CF37;}.links:hover{fill:#63D272; opacity:0.4;}</style><defs><g id="allt"><path id="t950" d="M1353,224 L1343,225 C1334,226 1347,220 1336,220 C1326,220 1340,228 1330,226 L1320,224 1320,224 L1320,234 C1321,244 1316,231 1314,240 C1313,249 1320,238 1320,247 L1320,256 1320,256 L1330,256 C1340,257 1327,252 1336,250 C1346,249 1334,256 1343,256 L1353,256 1353,256 L1353,245 C1353,234 1350,251 1350,242 C1350,233 1355,243 1354,233 L1353,224"/></g><clipPath id="c" clipRule="evenodd" fill="transparent"><use href="#t950"/></clipPath></defs><svg viewBox="1312 219 44 39" preserveAspectRatio="xMinYMin meet"><svg width="4380" height="2430"><g><image crossorigin="anonymous" x="0" y="0" href="https://nftpuzzle.license-token.com/assets/completepuzzle.svg" width="100%" height="100%" /><g class="links"><use href="#t950"/></g></g></svg><svg x="1341" y="243" height="9%" width="9%" viewBox="0 0 330 330"><g><a xlink:href="https://nftpuzzle.license-token.com/" class="links"><title>See the most innovative NFT based token software licensing project</title><path fill="#E4CF37" id="more" d="M165,0C74.019,0,0,74.019,0,165s74.019,165,165,165s165-74.019,165-165S255.981,0,165,0z M85,190 c-13.785,0-25-11.215-25-25s11.215-25,25-25s25,11.215,25,25S98.785,190,85,190z M165,190c-13.785,0-25-11.215-25-25 s11.215-25,25-25s25,11.215,25,25S178.785,190,165,190z M245,190c-13.785,0-25-11.215-25-25s11.215-25,25-25 c13.785,0,25,11.215,25,25S258.785,190,245,190z"></path></a></g></svg></svg></svg>