<svg version="1.1" xmlns="http://www.w3.org/2000/svg" xmlns:xlink="http://www.w3.org/1999/xlink" fill="transparent" x="0" y="0" width="350" height="350" preserveAspectRatio="xMinYMin slice"><style type="text/css">.links{fill:transparent;stroke: #E4CF37;}.links:hover{fill:#63D272; opacity:0.4;}</style><defs><g id="allt"><path id="t9500" d="M363,2336 L353,2336 C343,2336 355,2341 346,2339 C338,2338 351,2336 340,2336 L330,2336 330,2336 L331,2344 C333,2353 320,2342 323,2352 C326,2362 333,2349 331,2358 L330,2368 330,2368 L339,2369 C348,2371 336,2358 346,2361 C357,2364 343,2371 353,2369 L363,2368 363,2368 L362,2357 C361,2347 369,2362 368,2353 C368,2344 361,2357 362,2346 L363,2336"/></g><clipPath id="c" clipRule="evenodd" fill="transparent"><use href="#t9500"/></clipPath></defs><svg viewBox="319 2335 51 37" preserveAspectRatio="xMinYMin meet"><svg width="4380" height="2430"><g><image crossorigin="anonymous" x="0" y="0" href="https://nftpuzzle.license-token.com/assets/completepuzzle.svg" width="100%" height="100%" /><g class="links"><use href="#t9500"/></g></g></svg><svg x="355" y="2357" height="9%" width="9%" viewBox="0 0 330 330"><g><a xlink:href="https://nftpuzzle.license-token.com/" class="links"><title>See the most innovative NFT based token software licensing project</title><path fill="#E4CF37" id="more" d="M165,0C74.019,0,0,74.019,0,165s74.019,165,165,165s165-74.019,165-165S255.981,0,165,0z M85,190 c-13.785,0-25-11.215-25-25s11.215-25,25-25s25,11.215,25,25S98.785,190,85,190z M165,190c-13.785,0-25-11.215-25-25 s11.215-25,25-25s25,11.215,25,25S178.785,190,165,190z M245,190c-13.785,0-25-11.215-25-25s11.215-25,25-25 c13.785,0,25,11.215,25,25S258.785,190,245,190z"></path></a></g></svg></svg></svg>