<svg version="1.1" xmlns="http://www.w3.org/2000/svg" xmlns:xlink="http://www.w3.org/1999/xlink" fill="transparent" x="0" y="0" width="350" height="350" preserveAspectRatio="xMinYMin slice"><style type="text/css">.links{fill:transparent;stroke: #E4CF37;}.links:hover{fill:#63D272; opacity:0.4;}</style><defs><g id="allt"><path id="t9501" d="M396,2336 L386,2337 C376,2338 390,2331 381,2331 C372,2332 383,2336 373,2336 L363,2336 363,2336 L362,2346 C361,2357 368,2344 368,2353 C369,2362 361,2347 362,2357 L363,2368 363,2368 L373,2367 C384,2366 371,2373 380,2373 C390,2374 374,2366 385,2367 L396,2368 396,2368 L396,2357 C396,2347 387,2359 387,2351 C387,2344 400,2355 398,2345 L396,2336"/></g><clipPath id="c" clipRule="evenodd" fill="transparent"><use href="#t9501"/></clipPath></defs><svg viewBox="360 2330 41 45" preserveAspectRatio="xMinYMin meet"><svg width="4380" height="2430"><g><image crossorigin="anonymous" x="0" y="0" href="https://nftpuzzle.license-token.com/assets/completepuzzle.svg" width="100%" height="100%" /><g class="links"><use href="#t9501"/></g></g></svg><svg x="386" y="2360" height="9%" width="9%" viewBox="0 0 330 330"><g><a xlink:href="https://nftpuzzle.license-token.com/" class="links"><title>See the most innovative NFT based token software licensing project</title><path fill="#E4CF37" id="more" d="M165,0C74.019,0,0,74.019,0,165s74.019,165,165,165s165-74.019,165-165S255.981,0,165,0z M85,190 c-13.785,0-25-11.215-25-25s11.215-25,25-25s25,11.215,25,25S98.785,190,85,190z M165,190c-13.785,0-25-11.215-25-25 s11.215-25,25-25s25,11.215,25,25S178.785,190,165,190z M245,190c-13.785,0-25-11.215-25-25s11.215-25,25-25 c13.785,0,25,11.215,25,25S258.785,190,245,190z"></path></a></g></svg></svg></svg>