<svg version="1.1" xmlns="http://www.w3.org/2000/svg" xmlns:xlink="http://www.w3.org/1999/xlink" fill="transparent" x="0" y="0" width="350" height="350" preserveAspectRatio="xMinYMin slice"><style type="text/css">.links{fill:transparent;stroke: #E4CF37;}.links:hover{fill:#63D272; opacity:0.4;}</style><defs><g id="allt"><path id="t9504" d="M495,2336 L484,2334 C473,2333 485,2342 477,2341 C470,2340 482,2333 472,2334 L462,2336 462,2336 L460,2346 C459,2357 467,2342 469,2352 C471,2362 462,2347 462,2357 L462,2368 462,2368 L473,2366 C484,2365 468,2373 478,2374 C489,2376 473,2368 484,2368 L495,2368 495,2368 L497,2358 C499,2349 486,2362 487,2352 C488,2342 500,2355 497,2345 L495,2336"/></g><clipPath id="c" clipRule="evenodd" fill="transparent"><use href="#t9504"/></clipPath></defs><svg viewBox="458 2332 43 45" preserveAspectRatio="xMinYMin meet"><svg width="4380" height="2430"><g><image crossorigin="anonymous" x="0" y="0" href="https://nftpuzzle.license-token.com/assets/completepuzzle.svg" width="100%" height="100%" /><g class="links"><use href="#t9504"/></g></g></svg><svg x="486" y="2362" height="9%" width="9%" viewBox="0 0 330 330"><g><a xlink:href="https://nftpuzzle.license-token.com/" class="links"><title>See the most innovative NFT based token software licensing project</title><path fill="#E4CF37" id="more" d="M165,0C74.019,0,0,74.019,0,165s74.019,165,165,165s165-74.019,165-165S255.981,0,165,0z M85,190 c-13.785,0-25-11.215-25-25s11.215-25,25-25s25,11.215,25,25S98.785,190,85,190z M165,190c-13.785,0-25-11.215-25-25 s11.215-25,25-25s25,11.215,25,25S178.785,190,165,190z M245,190c-13.785,0-25-11.215-25-25s11.215-25,25-25 c13.785,0,25,11.215,25,25S258.785,190,245,190z"></path></a></g></svg></svg></svg>