<svg version="1.1" xmlns="http://www.w3.org/2000/svg" xmlns:xlink="http://www.w3.org/1999/xlink" fill="transparent" x="0" y="0" width="350" height="350" preserveAspectRatio="xMinYMin slice"><style type="text/css">.links{fill:transparent;stroke: #E4CF37;}.links:hover{fill:#63D272; opacity:0.4;}</style><defs><g id="allt"><path id="t9511" d="M726,2336 L716,2337 C707,2338 718,2329 710,2329 C702,2330 712,2336 702,2336 L693,2336 693,2336 L693,2344 C693,2353 684,2341 684,2350 C685,2360 694,2346 693,2357 L693,2368 693,2368 L702,2368 C711,2368 698,2359 707,2359 C717,2360 703,2369 714,2368 L726,2368 726,2368 L725,2357 C724,2346 733,2360 732,2352 C732,2344 726,2357 726,2346 L726,2336"/></g><clipPath id="c" clipRule="evenodd" fill="transparent"><use href="#t9511"/></clipPath></defs><svg viewBox="683 2328 51 42" preserveAspectRatio="xMinYMin meet"><svg width="4380" height="2430"><g><image crossorigin="anonymous" x="0" y="0" href="https://nftpuzzle.license-token.com/assets/completepuzzle.svg" width="100%" height="100%" /><g class="links"><use href="#t9511"/></g></g></svg><svg x="719" y="2355" height="9%" width="9%" viewBox="0 0 330 330"><g><a xlink:href="https://nftpuzzle.license-token.com/" class="links"><title>See the most innovative NFT based token software licensing project</title><path fill="#E4CF37" id="more" d="M165,0C74.019,0,0,74.019,0,165s74.019,165,165,165s165-74.019,165-165S255.981,0,165,0z M85,190 c-13.785,0-25-11.215-25-25s11.215-25,25-25s25,11.215,25,25S98.785,190,85,190z M165,190c-13.785,0-25-11.215-25-25 s11.215-25,25-25s25,11.215,25,25S178.785,190,165,190z M245,190c-13.785,0-25-11.215-25-25s11.215-25,25-25 c13.785,0,25,11.215,25,25S258.785,190,245,190z"></path></a></g></svg></svg></svg>