<svg version="1.1" xmlns="http://www.w3.org/2000/svg" xmlns:xlink="http://www.w3.org/1999/xlink" fill="transparent" x="0" y="0" width="350" height="350" preserveAspectRatio="xMinYMin slice"><style type="text/css">.links{fill:transparent;stroke: #E4CF37;}.links:hover{fill:#63D272; opacity:0.4;}</style><defs><g id="allt"><path id="t9514" d="M825,2336 L814,2336 C804,2336 815,2332 808,2332 C801,2332 811,2337 801,2336 L792,2336 792,2336 L792,2344 C792,2353 788,2341 786,2351 C784,2361 795,2348 793,2358 L792,2368 792,2368 L801,2368 C810,2368 797,2364 807,2362 C818,2360 804,2371 814,2369 L825,2368 825,2368 L825,2357 C825,2347 829,2358 829,2350 C829,2343 823,2355 824,2345 L825,2336"/></g><clipPath id="c" clipRule="evenodd" fill="transparent"><use href="#t9514"/></clipPath></defs><svg viewBox="783 2331 47 41" preserveAspectRatio="xMinYMin meet"><svg width="4380" height="2430"><g><image crossorigin="anonymous" x="0" y="0" href="https://nftpuzzle.license-token.com/assets/completepuzzle.svg" width="100%" height="100%" /><g class="links"><use href="#t9514"/></g></g></svg><svg x="815" y="2357" height="9%" width="9%" viewBox="0 0 330 330"><g><a xlink:href="https://nftpuzzle.license-token.com/" class="links"><title>See the most innovative NFT based token software licensing project</title><path fill="#E4CF37" id="more" d="M165,0C74.019,0,0,74.019,0,165s74.019,165,165,165s165-74.019,165-165S255.981,0,165,0z M85,190 c-13.785,0-25-11.215-25-25s11.215-25,25-25s25,11.215,25,25S98.785,190,85,190z M165,190c-13.785,0-25-11.215-25-25 s11.215-25,25-25s25,11.215,25,25S178.785,190,165,190z M245,190c-13.785,0-25-11.215-25-25s11.215-25,25-25 c13.785,0,25,11.215,25,25S258.785,190,245,190z"></path></a></g></svg></svg></svg>