<svg version="1.1" xmlns="http://www.w3.org/2000/svg" xmlns:xlink="http://www.w3.org/1999/xlink" fill="transparent" x="0" y="0" width="350" height="350" preserveAspectRatio="xMinYMin slice"><style type="text/css">.links{fill:transparent;stroke: #E4CF37;}.links:hover{fill:#63D272; opacity:0.4;}</style><defs><g id="allt"><path id="t9520" d="M1023,2336 L1012,2334 C1002,2332 1014,2342 1005,2343 C997,2344 1011,2334 1000,2335 L990,2336 990,2336 L990,2345 C990,2354 981,2342 981,2350 C981,2358 993,2348 991,2358 L990,2368 990,2368 L999,2368 C1009,2368 996,2359 1004,2359 C1013,2359 1002,2371 1012,2369 L1023,2368 1023,2368 L1024,2358 C1025,2348 1016,2360 1015,2352 C1014,2344 1025,2356 1024,2346 L1023,2336"/></g><clipPath id="c" clipRule="evenodd" fill="transparent"><use href="#t9520"/></clipPath></defs><svg viewBox="980 2331 46 41" preserveAspectRatio="xMinYMin meet"><svg width="4380" height="2430"><g><image crossorigin="anonymous" x="0" y="0" href="https://nftpuzzle.license-token.com/assets/completepuzzle.svg" width="100%" height="100%" /><g class="links"><use href="#t9520"/></g></g></svg><svg x="1011" y="2357" height="9%" width="9%" viewBox="0 0 330 330"><g><a xlink:href="https://nftpuzzle.license-token.com/" class="links"><title>See the most innovative NFT based token software licensing project</title><path fill="#E4CF37" id="more" d="M165,0C74.019,0,0,74.019,0,165s74.019,165,165,165s165-74.019,165-165S255.981,0,165,0z M85,190 c-13.785,0-25-11.215-25-25s11.215-25,25-25s25,11.215,25,25S98.785,190,85,190z M165,190c-13.785,0-25-11.215-25-25 s11.215-25,25-25s25,11.215,25,25S178.785,190,165,190z M245,190c-13.785,0-25-11.215-25-25s11.215-25,25-25 c13.785,0,25,11.215,25,25S258.785,190,245,190z"></path></a></g></svg></svg></svg>