<svg version="1.1" xmlns="http://www.w3.org/2000/svg" xmlns:xlink="http://www.w3.org/1999/xlink" fill="transparent" x="0" y="0" width="350" height="350" preserveAspectRatio="xMinYMin slice"><style type="text/css">.links{fill:transparent;stroke: #E4CF37;}.links:hover{fill:#63D272; opacity:0.4;}</style><defs><g id="allt"><path id="t9523" d="M1122,2336 L1111,2336 C1101,2336 1115,2331 1105,2331 C1096,2331 1110,2336 1099,2336 L1089,2336 1089,2336 L1090,2346 C1091,2357 1082,2343 1082,2350 C1082,2358 1089,2348 1089,2358 L1089,2368 1089,2368 L1100,2369 C1111,2370 1096,2361 1104,2361 C1112,2361 1102,2368 1112,2368 L1122,2368 1122,2368 L1122,2358 C1123,2349 1118,2362 1116,2353 C1114,2344 1124,2355 1123,2345 L1122,2336"/></g><clipPath id="c" clipRule="evenodd" fill="transparent"><use href="#t9523"/></clipPath></defs><svg viewBox="1081 2330 44 41" preserveAspectRatio="xMinYMin meet"><svg width="4380" height="2430"><g><image crossorigin="anonymous" x="0" y="0" href="https://nftpuzzle.license-token.com/assets/completepuzzle.svg" width="100%" height="100%" /><g class="links"><use href="#t9523"/></g></g></svg><svg x="1110" y="2356" height="9%" width="9%" viewBox="0 0 330 330"><g><a xlink:href="https://nftpuzzle.license-token.com/" class="links"><title>See the most innovative NFT based token software licensing project</title><path fill="#E4CF37" id="more" d="M165,0C74.019,0,0,74.019,0,165s74.019,165,165,165s165-74.019,165-165S255.981,0,165,0z M85,190 c-13.785,0-25-11.215-25-25s11.215-25,25-25s25,11.215,25,25S98.785,190,85,190z M165,190c-13.785,0-25-11.215-25-25 s11.215-25,25-25s25,11.215,25,25S178.785,190,165,190z M245,190c-13.785,0-25-11.215-25-25s11.215-25,25-25 c13.785,0,25,11.215,25,25S258.785,190,245,190z"></path></a></g></svg></svg></svg>