<svg version="1.1" xmlns="http://www.w3.org/2000/svg" xmlns:xlink="http://www.w3.org/1999/xlink" fill="transparent" x="0" y="0" width="350" height="350" preserveAspectRatio="xMinYMin slice"><style type="text/css">.links{fill:transparent;stroke: #E4CF37;}.links:hover{fill:#63D272; opacity:0.4;}</style><defs><g id="allt"><path id="t953" d="M1452,224 L1441,224 C1430,224 1444,228 1434,228 C1425,229 1437,224 1428,224 L1419,224 1419,224 L1420,233 C1421,242 1411,231 1413,241 C1415,251 1421,235 1420,245 L1419,256 1419,256 L1428,257 C1438,258 1426,248 1436,250 C1447,252 1431,258 1441,257 L1452,256 1452,256 L1452,247 C1452,238 1447,251 1446,240 C1446,229 1452,244 1452,234 L1452,224"/></g><clipPath id="c" clipRule="evenodd" fill="transparent"><use href="#t953"/></clipPath></defs><svg viewBox="1410 223 43 36" preserveAspectRatio="xMinYMin meet"><svg width="4380" height="2430"><g><image crossorigin="anonymous" x="0" y="0" href="https://nftpuzzle.license-token.com/assets/completepuzzle.svg" width="100%" height="100%" /><g class="links"><use href="#t953"/></g></g></svg><svg x="1438" y="244" height="9%" width="9%" viewBox="0 0 330 330"><g><a xlink:href="https://nftpuzzle.license-token.com/" class="links"><title>See the most innovative NFT based token software licensing project</title><path fill="#E4CF37" id="more" d="M165,0C74.019,0,0,74.019,0,165s74.019,165,165,165s165-74.019,165-165S255.981,0,165,0z M85,190 c-13.785,0-25-11.215-25-25s11.215-25,25-25s25,11.215,25,25S98.785,190,85,190z M165,190c-13.785,0-25-11.215-25-25 s11.215-25,25-25s25,11.215,25,25S178.785,190,165,190z M245,190c-13.785,0-25-11.215-25-25s11.215-25,25-25 c13.785,0,25,11.215,25,25S258.785,190,245,190z"></path></a></g></svg></svg></svg>