<svg version="1.1" xmlns="http://www.w3.org/2000/svg" xmlns:xlink="http://www.w3.org/1999/xlink" fill="transparent" x="0" y="0" width="350" height="350" preserveAspectRatio="xMinYMin slice"><style type="text/css">.links{fill:transparent;stroke: #E4CF37;}.links:hover{fill:#63D272; opacity:0.4;}</style><defs><g id="allt"><path id="t9537" d="M1584,2336 L1574,2337 C1564,2338 1579,2328 1568,2326 C1558,2324 1571,2336 1561,2336 L1551,2336 1551,2336 L1551,2345 C1551,2354 1543,2345 1542,2352 C1542,2360 1555,2350 1553,2359 L1551,2368 1551,2368 L1560,2368 C1569,2368 1560,2360 1567,2359 C1575,2359 1565,2372 1574,2370 L1584,2368 1584,2368 L1585,2358 C1586,2348 1581,2358 1581,2349 C1581,2341 1584,2357 1584,2346 L1584,2336"/></g><clipPath id="c" clipRule="evenodd" fill="transparent"><use href="#t9537"/></clipPath></defs><svg viewBox="1541 2323 46 50" preserveAspectRatio="xMinYMin meet"><svg width="4380" height="2430"><g><image crossorigin="anonymous" x="0" y="0" href="https://nftpuzzle.license-token.com/assets/completepuzzle.svg" width="100%" height="100%" /><g class="links"><use href="#t9537"/></g></g></svg><svg x="1572" y="2358" height="9%" width="9%" viewBox="0 0 330 330"><g><a xlink:href="https://nftpuzzle.license-token.com/" class="links"><title>See the most innovative NFT based token software licensing project</title><path fill="#E4CF37" id="more" d="M165,0C74.019,0,0,74.019,0,165s74.019,165,165,165s165-74.019,165-165S255.981,0,165,0z M85,190 c-13.785,0-25-11.215-25-25s11.215-25,25-25s25,11.215,25,25S98.785,190,85,190z M165,190c-13.785,0-25-11.215-25-25 s11.215-25,25-25s25,11.215,25,25S178.785,190,165,190z M245,190c-13.785,0-25-11.215-25-25s11.215-25,25-25 c13.785,0,25,11.215,25,25S258.785,190,245,190z"></path></a></g></svg></svg></svg>