<svg version="1.1" xmlns="http://www.w3.org/2000/svg" xmlns:xlink="http://www.w3.org/1999/xlink" fill="transparent" x="0" y="0" width="350" height="350" preserveAspectRatio="xMinYMin slice"><style type="text/css">.links{fill:transparent;stroke: #E4CF37;}.links:hover{fill:#63D272; opacity:0.4;}</style><defs><g id="allt"><path id="t9543" d="M1782,2336 L1772,2335 C1762,2335 1776,2339 1766,2340 C1756,2342 1770,2333 1759,2334 L1749,2336 1749,2336 L1749,2345 C1749,2355 1756,2343 1755,2351 C1754,2360 1747,2348 1748,2358 L1749,2368 1749,2368 L1759,2368 C1769,2368 1756,2375 1764,2374 C1773,2373 1761,2366 1771,2367 L1782,2368 1782,2368 L1781,2359 C1780,2350 1788,2359 1787,2351 C1786,2343 1782,2356 1782,2346 L1782,2336"/></g><clipPath id="c" clipRule="evenodd" fill="transparent"><use href="#t9543"/></clipPath></defs><svg viewBox="1746 2332 43 44" preserveAspectRatio="xMinYMin meet"><svg width="4380" height="2430"><g><image crossorigin="anonymous" x="0" y="0" href="https://nftpuzzle.license-token.com/assets/completepuzzle.svg" width="100%" height="100%" /><g class="links"><use href="#t9543"/></g></g></svg><svg x="1774" y="2361" height="9%" width="9%" viewBox="0 0 330 330"><g><a xlink:href="https://nftpuzzle.license-token.com/" class="links"><title>See the most innovative NFT based token software licensing project</title><path fill="#E4CF37" id="more" d="M165,0C74.019,0,0,74.019,0,165s74.019,165,165,165s165-74.019,165-165S255.981,0,165,0z M85,190 c-13.785,0-25-11.215-25-25s11.215-25,25-25s25,11.215,25,25S98.785,190,85,190z M165,190c-13.785,0-25-11.215-25-25 s11.215-25,25-25s25,11.215,25,25S178.785,190,165,190z M245,190c-13.785,0-25-11.215-25-25s11.215-25,25-25 c13.785,0,25,11.215,25,25S258.785,190,245,190z"></path></a></g></svg></svg></svg>