<svg version="1.1" xmlns="http://www.w3.org/2000/svg" xmlns:xlink="http://www.w3.org/1999/xlink" fill="transparent" x="0" y="0" width="350" height="350" preserveAspectRatio="xMinYMin slice"><style type="text/css">.links{fill:transparent;stroke: #E4CF37;}.links:hover{fill:#63D272; opacity:0.4;}</style><defs><g id="allt"><path id="t9544" d="M1815,2336 L1803,2336 C1792,2337 1806,2329 1796,2330 C1786,2331 1802,2336 1792,2336 L1782,2336 1782,2336 L1782,2346 C1782,2356 1786,2343 1787,2351 C1788,2359 1780,2350 1781,2359 L1782,2368 1782,2368 L1792,2368 C1803,2368 1789,2372 1797,2373 C1806,2374 1796,2366 1805,2367 L1815,2368 1815,2368 L1815,2357 C1815,2346 1824,2361 1823,2352 C1822,2343 1815,2354 1815,2345 L1815,2336"/></g><clipPath id="c" clipRule="evenodd" fill="transparent"><use href="#t9544"/></clipPath></defs><svg viewBox="1779 2328 46 47" preserveAspectRatio="xMinYMin meet"><svg width="4380" height="2430"><g><image crossorigin="anonymous" x="0" y="0" href="https://nftpuzzle.license-token.com/assets/completepuzzle.svg" width="100%" height="100%" /><g class="links"><use href="#t9544"/></g></g></svg><svg x="1810" y="2360" height="9%" width="9%" viewBox="0 0 330 330"><g><a xlink:href="https://nftpuzzle.license-token.com/" class="links"><title>See the most innovative NFT based token software licensing project</title><path fill="#E4CF37" id="more" d="M165,0C74.019,0,0,74.019,0,165s74.019,165,165,165s165-74.019,165-165S255.981,0,165,0z M85,190 c-13.785,0-25-11.215-25-25s11.215-25,25-25s25,11.215,25,25S98.785,190,85,190z M165,190c-13.785,0-25-11.215-25-25 s11.215-25,25-25s25,11.215,25,25S178.785,190,165,190z M245,190c-13.785,0-25-11.215-25-25s11.215-25,25-25 c13.785,0,25,11.215,25,25S258.785,190,245,190z"></path></a></g></svg></svg></svg>