<svg version="1.1" xmlns="http://www.w3.org/2000/svg" xmlns:xlink="http://www.w3.org/1999/xlink" fill="transparent" x="0" y="0" width="350" height="350" preserveAspectRatio="xMinYMin slice"><style type="text/css">.links{fill:transparent;stroke: #E4CF37;}.links:hover{fill:#63D272; opacity:0.4;}</style><defs><g id="allt"><path id="t9546" d="M1881,2336 L1871,2336 C1862,2336 1873,2343 1864,2345 C1856,2347 1868,2333 1858,2334 L1848,2336 1848,2336 L1848,2345 C1848,2355 1843,2344 1842,2352 C1841,2360 1852,2349 1850,2358 L1848,2368 1848,2368 L1857,2368 C1867,2368 1856,2363 1864,2362 C1873,2361 1861,2372 1871,2370 L1881,2368 1881,2368 L1882,2357 C1884,2347 1874,2360 1875,2351 C1876,2342 1882,2355 1881,2345 L1881,2336"/></g><clipPath id="c" clipRule="evenodd" fill="transparent"><use href="#t9546"/></clipPath></defs><svg viewBox="1840 2332 45 41" preserveAspectRatio="xMinYMin meet"><svg width="4380" height="2430"><g><image crossorigin="anonymous" x="0" y="0" href="https://nftpuzzle.license-token.com/assets/completepuzzle.svg" width="100%" height="100%" /><g class="links"><use href="#t9546"/></g></g></svg><svg x="1870" y="2358" height="9%" width="9%" viewBox="0 0 330 330"><g><a xlink:href="https://nftpuzzle.license-token.com/" class="links"><title>See the most innovative NFT based token software licensing project</title><path fill="#E4CF37" id="more" d="M165,0C74.019,0,0,74.019,0,165s74.019,165,165,165s165-74.019,165-165S255.981,0,165,0z M85,190 c-13.785,0-25-11.215-25-25s11.215-25,25-25s25,11.215,25,25S98.785,190,85,190z M165,190c-13.785,0-25-11.215-25-25 s11.215-25,25-25s25,11.215,25,25S178.785,190,165,190z M245,190c-13.785,0-25-11.215-25-25s11.215-25,25-25 c13.785,0,25,11.215,25,25S258.785,190,245,190z"></path></a></g></svg></svg></svg>