<svg version="1.1" xmlns="http://www.w3.org/2000/svg" xmlns:xlink="http://www.w3.org/1999/xlink" fill="transparent" x="0" y="0" width="350" height="350" preserveAspectRatio="xMinYMin slice"><style type="text/css">.links{fill:transparent;stroke: #E4CF37;}.links:hover{fill:#63D272; opacity:0.4;}</style><defs><g id="allt"><path id="t955" d="M1518,224 L1508,227 C1498,230 1508,211 1500,214 C1492,218 1506,227 1495,225 L1485,224 1485,224 L1487,234 C1489,244 1478,233 1477,240 C1476,248 1485,236 1485,246 L1485,256 1485,256 L1495,258 C1506,260 1494,249 1502,248 C1510,247 1498,256 1508,256 L1518,256 1518,256 L1517,246 C1517,236 1528,251 1526,241 C1525,231 1514,242 1516,233 L1518,224"/></g><clipPath id="c" clipRule="evenodd" fill="transparent"><use href="#t955"/></clipPath></defs><svg viewBox="1475 210 54 51" preserveAspectRatio="xMinYMin meet"><svg width="4380" height="2430"><g><image crossorigin="anonymous" x="0" y="0" href="https://nftpuzzle.license-token.com/assets/completepuzzle.svg" width="100%" height="100%" /><g class="links"><use href="#t955"/></g></g></svg><svg x="1514" y="246" height="9%" width="9%" viewBox="0 0 330 330"><g><a xlink:href="https://nftpuzzle.license-token.com/" class="links"><title>See the most innovative NFT based token software licensing project</title><path fill="#E4CF37" id="more" d="M165,0C74.019,0,0,74.019,0,165s74.019,165,165,165s165-74.019,165-165S255.981,0,165,0z M85,190 c-13.785,0-25-11.215-25-25s11.215-25,25-25s25,11.215,25,25S98.785,190,85,190z M165,190c-13.785,0-25-11.215-25-25 s11.215-25,25-25s25,11.215,25,25S178.785,190,165,190z M245,190c-13.785,0-25-11.215-25-25s11.215-25,25-25 c13.785,0,25,11.215,25,25S258.785,190,245,190z"></path></a></g></svg></svg></svg>