<svg version="1.1" xmlns="http://www.w3.org/2000/svg" xmlns:xlink="http://www.w3.org/1999/xlink" fill="transparent" x="0" y="0" width="350" height="350" preserveAspectRatio="xMinYMin slice"><style type="text/css">.links{fill:transparent;stroke: #E4CF37;}.links:hover{fill:#63D272; opacity:0.4;}</style><defs><g id="allt"><path id="t9552" d="M2079,2336 L2068,2336 C2057,2336 2069,2346 2062,2345 C2055,2345 2065,2335 2055,2335 L2046,2336 2046,2336 L2046,2344 C2047,2353 2042,2344 2040,2351 C2038,2358 2047,2348 2046,2358 L2046,2368 2046,2368 L2055,2368 C2064,2369 2054,2364 2061,2362 C2069,2360 2059,2369 2069,2368 L2079,2368 2079,2368 L2079,2357 C2080,2346 2074,2360 2075,2351 C2076,2343 2079,2354 2079,2345 L2079,2336"/></g><clipPath id="c" clipRule="evenodd" fill="transparent"><use href="#t9552"/></clipPath></defs><svg viewBox="2037 2334 44 36" preserveAspectRatio="xMinYMin meet"><svg width="4380" height="2430"><g><image crossorigin="anonymous" x="0" y="0" href="https://nftpuzzle.license-token.com/assets/completepuzzle.svg" width="100%" height="100%" /><g class="links"><use href="#t9552"/></g></g></svg><svg x="2066" y="2355" height="9%" width="9%" viewBox="0 0 330 330"><g><a xlink:href="https://nftpuzzle.license-token.com/" class="links"><title>See the most innovative NFT based token software licensing project</title><path fill="#E4CF37" id="more" d="M165,0C74.019,0,0,74.019,0,165s74.019,165,165,165s165-74.019,165-165S255.981,0,165,0z M85,190 c-13.785,0-25-11.215-25-25s11.215-25,25-25s25,11.215,25,25S98.785,190,85,190z M165,190c-13.785,0-25-11.215-25-25 s11.215-25,25-25s25,11.215,25,25S178.785,190,165,190z M245,190c-13.785,0-25-11.215-25-25s11.215-25,25-25 c13.785,0,25,11.215,25,25S258.785,190,245,190z"></path></a></g></svg></svg></svg>