<svg version="1.1" xmlns="http://www.w3.org/2000/svg" xmlns:xlink="http://www.w3.org/1999/xlink" fill="transparent" x="0" y="0" width="350" height="350" preserveAspectRatio="xMinYMin slice"><style type="text/css">.links{fill:transparent;stroke: #E4CF37;}.links:hover{fill:#63D272; opacity:0.4;}</style><defs><g id="allt"><path id="t9553" d="M2112,2336 L2102,2336 C2093,2336 2102,2329 2093,2329 C2084,2329 2099,2336 2089,2336 L2079,2336 2079,2336 L2079,2345 C2079,2354 2076,2343 2075,2351 C2074,2360 2080,2346 2079,2357 L2079,2368 2079,2368 L2088,2368 C2098,2368 2086,2365 2094,2364 C2103,2363 2090,2369 2101,2368 L2112,2368 2112,2368 L2113,2358 C2114,2349 2108,2360 2108,2351 C2109,2342 2114,2354 2113,2345 L2112,2336"/></g><clipPath id="c" clipRule="evenodd" fill="transparent"><use href="#t9553"/></clipPath></defs><svg viewBox="2073 2328 42 42" preserveAspectRatio="xMinYMin meet"><svg width="4380" height="2430"><g><image crossorigin="anonymous" x="0" y="0" href="https://nftpuzzle.license-token.com/assets/completepuzzle.svg" width="100%" height="100%" /><g class="links"><use href="#t9553"/></g></g></svg><svg x="2100" y="2355" height="9%" width="9%" viewBox="0 0 330 330"><g><a xlink:href="https://nftpuzzle.license-token.com/" class="links"><title>See the most innovative NFT based token software licensing project</title><path fill="#E4CF37" id="more" d="M165,0C74.019,0,0,74.019,0,165s74.019,165,165,165s165-74.019,165-165S255.981,0,165,0z M85,190 c-13.785,0-25-11.215-25-25s11.215-25,25-25s25,11.215,25,25S98.785,190,85,190z M165,190c-13.785,0-25-11.215-25-25 s11.215-25,25-25s25,11.215,25,25S178.785,190,165,190z M245,190c-13.785,0-25-11.215-25-25s11.215-25,25-25 c13.785,0,25,11.215,25,25S258.785,190,245,190z"></path></a></g></svg></svg></svg>