<svg version="1.1" xmlns="http://www.w3.org/2000/svg" xmlns:xlink="http://www.w3.org/1999/xlink" fill="transparent" x="0" y="0" width="350" height="350" preserveAspectRatio="xMinYMin slice"><style type="text/css">.links{fill:transparent;stroke: #E4CF37;}.links:hover{fill:#63D272; opacity:0.4;}</style><defs><g id="allt"><path id="t9557" d="M2244,2336 L2233,2338 C2222,2340 2235,2323 2227,2323 C2219,2323 2231,2337 2221,2336 L2211,2336 2211,2336 L2211,2344 C2211,2353 2217,2344 2218,2352 C2220,2361 2209,2348 2210,2358 L2211,2368 2211,2368 L2220,2368 C2229,2368 2219,2374 2228,2375 C2237,2377 2224,2366 2234,2367 L2244,2368 2244,2368 L2244,2358 C2244,2348 2257,2362 2256,2352 C2255,2342 2241,2357 2242,2346 L2244,2336"/></g><clipPath id="c" clipRule="evenodd" fill="transparent"><use href="#t9557"/></clipPath></defs><svg viewBox="2208 2322 50 56" preserveAspectRatio="xMinYMin meet"><svg width="4380" height="2430"><g><image crossorigin="anonymous" x="0" y="0" href="https://nftpuzzle.license-token.com/assets/completepuzzle.svg" width="100%" height="100%" /><g class="links"><use href="#t9557"/></g></g></svg><svg x="2243" y="2363" height="9%" width="9%" viewBox="0 0 330 330"><g><a xlink:href="https://nftpuzzle.license-token.com/" class="links"><title>See the most innovative NFT based token software licensing project</title><path fill="#E4CF37" id="more" d="M165,0C74.019,0,0,74.019,0,165s74.019,165,165,165s165-74.019,165-165S255.981,0,165,0z M85,190 c-13.785,0-25-11.215-25-25s11.215-25,25-25s25,11.215,25,25S98.785,190,85,190z M165,190c-13.785,0-25-11.215-25-25 s11.215-25,25-25s25,11.215,25,25S178.785,190,165,190z M245,190c-13.785,0-25-11.215-25-25s11.215-25,25-25 c13.785,0,25,11.215,25,25S258.785,190,245,190z"></path></a></g></svg></svg></svg>