<svg version="1.1" xmlns="http://www.w3.org/2000/svg" xmlns:xlink="http://www.w3.org/1999/xlink" fill="transparent" x="0" y="0" width="350" height="350" preserveAspectRatio="xMinYMin slice"><style type="text/css">.links{fill:transparent;stroke: #E4CF37;}.links:hover{fill:#63D272; opacity:0.4;}</style><defs><g id="allt"><path id="t9561" d="M2376,2336 L2366,2336 C2356,2336 2368,2343 2360,2342 C2352,2341 2362,2336 2352,2336 L2343,2336 2343,2336 L2345,2345 C2348,2354 2333,2344 2333,2353 C2333,2362 2343,2346 2343,2357 L2343,2368 2343,2368 L2352,2370 C2362,2373 2351,2358 2360,2358 C2370,2358 2353,2368 2364,2368 L2376,2368 2376,2368 L2376,2357 C2376,2347 2366,2362 2368,2351 C2371,2341 2378,2353 2377,2344 L2376,2336"/></g><clipPath id="c" clipRule="evenodd" fill="transparent"><use href="#t9561"/></clipPath></defs><svg viewBox="2332 2335 47 39" preserveAspectRatio="xMinYMin meet"><svg width="4380" height="2430"><g><image crossorigin="anonymous" x="0" y="0" href="https://nftpuzzle.license-token.com/assets/completepuzzle.svg" width="100%" height="100%" /><g class="links"><use href="#t9561"/></g></g></svg><svg x="2364" y="2359" height="9%" width="9%" viewBox="0 0 330 330"><g><a xlink:href="https://nftpuzzle.license-token.com/" class="links"><title>See the most innovative NFT based token software licensing project</title><path fill="#E4CF37" id="more" d="M165,0C74.019,0,0,74.019,0,165s74.019,165,165,165s165-74.019,165-165S255.981,0,165,0z M85,190 c-13.785,0-25-11.215-25-25s11.215-25,25-25s25,11.215,25,25S98.785,190,85,190z M165,190c-13.785,0-25-11.215-25-25 s11.215-25,25-25s25,11.215,25,25S178.785,190,165,190z M245,190c-13.785,0-25-11.215-25-25s11.215-25,25-25 c13.785,0,25,11.215,25,25S258.785,190,245,190z"></path></a></g></svg></svg></svg>