<svg version="1.1" xmlns="http://www.w3.org/2000/svg" xmlns:xlink="http://www.w3.org/1999/xlink" fill="transparent" x="0" y="0" width="350" height="350" preserveAspectRatio="xMinYMin slice"><style type="text/css">.links{fill:transparent;stroke: #E4CF37;}.links:hover{fill:#63D272; opacity:0.4;}</style><defs><g id="allt"><path id="t9566" d="M2541,2336 L2529,2335 C2518,2334 2536,2344 2525,2343 C2515,2343 2527,2333 2517,2334 L2508,2336 2508,2336 L2508,2346 C2509,2356 2506,2342 2505,2351 C2505,2360 2508,2349 2508,2358 L2508,2368 2508,2368 L2518,2368 C2528,2369 2514,2366 2523,2365 C2533,2365 2521,2368 2531,2368 L2541,2368 2541,2368 L2542,2357 C2544,2347 2536,2362 2536,2352 C2537,2343 2543,2353 2542,2344 L2541,2336"/></g><clipPath id="c" clipRule="evenodd" fill="transparent"><use href="#t9566"/></clipPath></defs><svg viewBox="2504 2332 41 38" preserveAspectRatio="xMinYMin meet"><svg width="4380" height="2430"><g><image crossorigin="anonymous" x="0" y="0" href="https://nftpuzzle.license-token.com/assets/completepuzzle.svg" width="100%" height="100%" /><g class="links"><use href="#t9566"/></g></g></svg><svg x="2530" y="2355" height="9%" width="9%" viewBox="0 0 330 330"><g><a xlink:href="https://nftpuzzle.license-token.com/" class="links"><title>See the most innovative NFT based token software licensing project</title><path fill="#E4CF37" id="more" d="M165,0C74.019,0,0,74.019,0,165s74.019,165,165,165s165-74.019,165-165S255.981,0,165,0z M85,190 c-13.785,0-25-11.215-25-25s11.215-25,25-25s25,11.215,25,25S98.785,190,85,190z M165,190c-13.785,0-25-11.215-25-25 s11.215-25,25-25s25,11.215,25,25S178.785,190,165,190z M245,190c-13.785,0-25-11.215-25-25s11.215-25,25-25 c13.785,0,25,11.215,25,25S258.785,190,245,190z"></path></a></g></svg></svg></svg>