<svg version="1.1" xmlns="http://www.w3.org/2000/svg" xmlns:xlink="http://www.w3.org/1999/xlink" fill="transparent" x="0" y="0" width="350" height="350" preserveAspectRatio="xMinYMin slice"><style type="text/css">.links{fill:transparent;stroke: #E4CF37;}.links:hover{fill:#63D272; opacity:0.4;}</style><defs><g id="allt"><path id="t957" d="M1584,224 L1574,224 C1564,224 1577,220 1566,219 C1556,219 1569,224 1560,224 L1551,224 1551,224 L1552,234 C1553,244 1547,233 1547,240 C1548,247 1551,238 1551,247 L1551,256 1551,256 L1561,257 C1571,258 1560,252 1567,252 C1575,253 1565,256 1574,256 L1584,256 1584,256 L1584,246 C1584,237 1582,247 1581,239 C1580,232 1584,241 1584,232 L1584,224"/></g><clipPath id="c" clipRule="evenodd" fill="transparent"><use href="#t957"/></clipPath></defs><svg viewBox="1546 218 39 41" preserveAspectRatio="xMinYMin meet"><svg width="4380" height="2430"><g><image crossorigin="anonymous" x="0" y="0" href="https://nftpuzzle.license-token.com/assets/completepuzzle.svg" width="100%" height="100%" /><g class="links"><use href="#t957"/></g></g></svg><svg x="1570" y="244" height="9%" width="9%" viewBox="0 0 330 330"><g><a xlink:href="https://nftpuzzle.license-token.com/" class="links"><title>See the most innovative NFT based token software licensing project</title><path fill="#E4CF37" id="more" d="M165,0C74.019,0,0,74.019,0,165s74.019,165,165,165s165-74.019,165-165S255.981,0,165,0z M85,190 c-13.785,0-25-11.215-25-25s11.215-25,25-25s25,11.215,25,25S98.785,190,85,190z M165,190c-13.785,0-25-11.215-25-25 s11.215-25,25-25s25,11.215,25,25S178.785,190,165,190z M245,190c-13.785,0-25-11.215-25-25s11.215-25,25-25 c13.785,0,25,11.215,25,25S258.785,190,245,190z"></path></a></g></svg></svg></svg>