<svg version="1.1" xmlns="http://www.w3.org/2000/svg" xmlns:xlink="http://www.w3.org/1999/xlink" fill="transparent" x="0" y="0" width="350" height="350" preserveAspectRatio="xMinYMin slice"><style type="text/css">.links{fill:transparent;stroke: #E4CF37;}.links:hover{fill:#63D272; opacity:0.4;}</style><defs><g id="allt"><path id="t9575" d="M2838,2336 L2828,2334 C2819,2333 2832,2341 2823,2340 C2814,2339 2825,2334 2815,2335 L2805,2336 2805,2336 L2806,2345 C2808,2355 2800,2343 2798,2351 C2797,2359 2808,2348 2806,2358 L2805,2368 2805,2368 L2815,2369 C2825,2371 2812,2363 2820,2361 C2829,2360 2818,2371 2828,2369 L2838,2368 2838,2368 L2837,2357 C2837,2347 2842,2361 2843,2352 C2844,2343 2838,2357 2838,2346 L2838,2336"/></g><clipPath id="c" clipRule="evenodd" fill="transparent"><use href="#t9575"/></clipPath></defs><svg viewBox="2796 2332 49 40" preserveAspectRatio="xMinYMin meet"><svg width="4380" height="2430"><g><image crossorigin="anonymous" x="0" y="0" href="https://nftpuzzle.license-token.com/assets/completepuzzle.svg" width="100%" height="100%" /><g class="links"><use href="#t9575"/></g></g></svg><svg x="2830" y="2357" height="9%" width="9%" viewBox="0 0 330 330"><g><a xlink:href="https://nftpuzzle.license-token.com/" class="links"><title>See the most innovative NFT based token software licensing project</title><path fill="#E4CF37" id="more" d="M165,0C74.019,0,0,74.019,0,165s74.019,165,165,165s165-74.019,165-165S255.981,0,165,0z M85,190 c-13.785,0-25-11.215-25-25s11.215-25,25-25s25,11.215,25,25S98.785,190,85,190z M165,190c-13.785,0-25-11.215-25-25 s11.215-25,25-25s25,11.215,25,25S178.785,190,165,190z M245,190c-13.785,0-25-11.215-25-25s11.215-25,25-25 c13.785,0,25,11.215,25,25S258.785,190,245,190z"></path></a></g></svg></svg></svg>