<svg version="1.1" xmlns="http://www.w3.org/2000/svg" xmlns:xlink="http://www.w3.org/1999/xlink" fill="transparent" x="0" y="0" width="350" height="350" preserveAspectRatio="xMinYMin slice"><style type="text/css">.links{fill:transparent;stroke: #E4CF37;}.links:hover{fill:#63D272; opacity:0.4;}</style><defs><g id="allt"><path id="t9576" d="M2871,2336 L2859,2337 C2848,2338 2862,2329 2853,2329 C2844,2329 2859,2338 2848,2337 L2838,2336 2838,2336 L2838,2346 C2838,2357 2844,2343 2843,2352 C2842,2361 2837,2347 2837,2357 L2838,2368 2838,2368 L2849,2368 C2860,2368 2845,2374 2854,2373 C2864,2372 2850,2367 2860,2367 L2871,2368 2871,2368 L2871,2357 C2872,2346 2865,2359 2865,2350 C2865,2341 2875,2356 2873,2346 L2871,2336"/></g><clipPath id="c" clipRule="evenodd" fill="transparent"><use href="#t9576"/></clipPath></defs><svg viewBox="2836 2328 40 47" preserveAspectRatio="xMinYMin meet"><svg width="4380" height="2430"><g><image crossorigin="anonymous" x="0" y="0" href="https://nftpuzzle.license-token.com/assets/completepuzzle.svg" width="100%" height="100%" /><g class="links"><use href="#t9576"/></g></g></svg><svg x="2861" y="2360" height="9%" width="9%" viewBox="0 0 330 330"><g><a xlink:href="https://nftpuzzle.license-token.com/" class="links"><title>See the most innovative NFT based token software licensing project</title><path fill="#E4CF37" id="more" d="M165,0C74.019,0,0,74.019,0,165s74.019,165,165,165s165-74.019,165-165S255.981,0,165,0z M85,190 c-13.785,0-25-11.215-25-25s11.215-25,25-25s25,11.215,25,25S98.785,190,85,190z M165,190c-13.785,0-25-11.215-25-25 s11.215-25,25-25s25,11.215,25,25S178.785,190,165,190z M245,190c-13.785,0-25-11.215-25-25s11.215-25,25-25 c13.785,0,25,11.215,25,25S258.785,190,245,190z"></path></a></g></svg></svg></svg>