<svg version="1.1" xmlns="http://www.w3.org/2000/svg" xmlns:xlink="http://www.w3.org/1999/xlink" fill="transparent" x="0" y="0" width="350" height="350" preserveAspectRatio="xMinYMin slice"><style type="text/css">.links{fill:transparent;stroke: #E4CF37;}.links:hover{fill:#63D272; opacity:0.4;}</style><defs><g id="allt"><path id="t9578" d="M2937,2336 L2927,2336 C2918,2336 2928,2324 2918,2327 C2909,2330 2923,2339 2913,2337 L2904,2336 2904,2336 L2904,2346 C2904,2356 2907,2343 2908,2351 C2909,2359 2904,2350 2904,2359 L2904,2368 2904,2368 L2914,2368 C2925,2368 2911,2371 2919,2372 C2927,2373 2918,2368 2927,2368 L2937,2368 2937,2368 L2936,2358 C2936,2349 2944,2361 2942,2352 C2941,2343 2934,2354 2935,2345 L2937,2336"/></g><clipPath id="c" clipRule="evenodd" fill="transparent"><use href="#t9578"/></clipPath></defs><svg viewBox="2903 2323 42 51" preserveAspectRatio="xMinYMin meet"><svg width="4380" height="2430"><g><image crossorigin="anonymous" x="0" y="0" href="https://nftpuzzle.license-token.com/assets/completepuzzle.svg" width="100%" height="100%" /><g class="links"><use href="#t9578"/></g></g></svg><svg x="2930" y="2359" height="9%" width="9%" viewBox="0 0 330 330"><g><a xlink:href="https://nftpuzzle.license-token.com/" class="links"><title>See the most innovative NFT based token software licensing project</title><path fill="#E4CF37" id="more" d="M165,0C74.019,0,0,74.019,0,165s74.019,165,165,165s165-74.019,165-165S255.981,0,165,0z M85,190 c-13.785,0-25-11.215-25-25s11.215-25,25-25s25,11.215,25,25S98.785,190,85,190z M165,190c-13.785,0-25-11.215-25-25 s11.215-25,25-25s25,11.215,25,25S178.785,190,165,190z M245,190c-13.785,0-25-11.215-25-25s11.215-25,25-25 c13.785,0,25,11.215,25,25S258.785,190,245,190z"></path></a></g></svg></svg></svg>