<svg version="1.1" xmlns="http://www.w3.org/2000/svg" xmlns:xlink="http://www.w3.org/1999/xlink" fill="transparent" x="0" y="0" width="350" height="350" preserveAspectRatio="xMinYMin slice"><style type="text/css">.links{fill:transparent;stroke: #E4CF37;}.links:hover{fill:#63D272; opacity:0.4;}</style><defs><g id="allt"><path id="t9579" d="M2970,2336 L2959,2336 C2948,2336 2963,2331 2953,2331 C2944,2332 2956,2336 2946,2336 L2937,2336 2937,2336 L2935,2345 C2934,2354 2941,2343 2942,2352 C2944,2361 2936,2349 2936,2358 L2937,2368 2937,2368 L2946,2366 C2956,2365 2944,2372 2953,2373 C2963,2375 2950,2367 2960,2367 L2970,2368 2970,2368 L2970,2359 C2970,2350 2978,2359 2977,2351 C2977,2343 2968,2353 2969,2344 L2970,2336"/></g><clipPath id="c" clipRule="evenodd" fill="transparent"><use href="#t9579"/></clipPath></defs><svg viewBox="2933 2330 46 46" preserveAspectRatio="xMinYMin meet"><svg width="4380" height="2430"><g><image crossorigin="anonymous" x="0" y="0" href="https://nftpuzzle.license-token.com/assets/completepuzzle.svg" width="100%" height="100%" /><g class="links"><use href="#t9579"/></g></g></svg><svg x="2964" y="2361" height="9%" width="9%" viewBox="0 0 330 330"><g><a xlink:href="https://nftpuzzle.license-token.com/" class="links"><title>See the most innovative NFT based token software licensing project</title><path fill="#E4CF37" id="more" d="M165,0C74.019,0,0,74.019,0,165s74.019,165,165,165s165-74.019,165-165S255.981,0,165,0z M85,190 c-13.785,0-25-11.215-25-25s11.215-25,25-25s25,11.215,25,25S98.785,190,85,190z M165,190c-13.785,0-25-11.215-25-25 s11.215-25,25-25s25,11.215,25,25S178.785,190,165,190z M245,190c-13.785,0-25-11.215-25-25s11.215-25,25-25 c13.785,0,25,11.215,25,25S258.785,190,245,190z"></path></a></g></svg></svg></svg>