<svg version="1.1" xmlns="http://www.w3.org/2000/svg" xmlns:xlink="http://www.w3.org/1999/xlink" fill="transparent" x="0" y="0" width="350" height="350" preserveAspectRatio="xMinYMin slice"><style type="text/css">.links{fill:transparent;stroke: #E4CF37;}.links:hover{fill:#63D272; opacity:0.4;}</style><defs><g id="allt"><path id="t9585" d="M3168,2336 L3157,2336 C3146,2336 3162,2332 3153,2331 C3144,2330 3153,2336 3144,2336 L3135,2336 3135,2336 L3135,2346 C3135,2356 3141,2340 3141,2351 C3142,2363 3133,2349 3134,2358 L3135,2368 3135,2368 L3145,2368 C3156,2368 3139,2374 3151,2374 C3163,2375 3149,2366 3158,2367 L3168,2368 3168,2368 L3169,2358 C3171,2348 3162,2361 3160,2353 C3159,2345 3168,2355 3168,2345 L3168,2336"/></g><clipPath id="c" clipRule="evenodd" fill="transparent"><use href="#t9585"/></clipPath></defs><svg viewBox="3132 2329 40 47" preserveAspectRatio="xMinYMin meet"><svg width="4380" height="2430"><g><image crossorigin="anonymous" x="0" y="0" href="https://nftpuzzle.license-token.com/assets/completepuzzle.svg" width="100%" height="100%" /><g class="links"><use href="#t9585"/></g></g></svg><svg x="3157" y="2361" height="9%" width="9%" viewBox="0 0 330 330"><g><a xlink:href="https://nftpuzzle.license-token.com/" class="links"><title>See the most innovative NFT based token software licensing project</title><path fill="#E4CF37" id="more" d="M165,0C74.019,0,0,74.019,0,165s74.019,165,165,165s165-74.019,165-165S255.981,0,165,0z M85,190 c-13.785,0-25-11.215-25-25s11.215-25,25-25s25,11.215,25,25S98.785,190,85,190z M165,190c-13.785,0-25-11.215-25-25 s11.215-25,25-25s25,11.215,25,25S178.785,190,165,190z M245,190c-13.785,0-25-11.215-25-25s11.215-25,25-25 c13.785,0,25,11.215,25,25S258.785,190,245,190z"></path></a></g></svg></svg></svg>