<svg version="1.1" xmlns="http://www.w3.org/2000/svg" xmlns:xlink="http://www.w3.org/1999/xlink" fill="transparent" x="0" y="0" width="350" height="350" preserveAspectRatio="xMinYMin slice"><style type="text/css">.links{fill:transparent;stroke: #E4CF37;}.links:hover{fill:#63D272; opacity:0.4;}</style><defs><g id="allt"><path id="t9588" d="M3267,2336 L3257,2335 C3248,2334 3257,2339 3248,2339 C3239,2339 3256,2335 3245,2335 L3234,2336 3234,2336 L3232,2346 C3231,2357 3240,2341 3240,2350 C3240,2360 3231,2348 3232,2358 L3234,2368 3234,2368 L3244,2366 C3255,2365 3239,2374 3249,2374 C3259,2374 3246,2365 3256,2366 L3267,2368 3267,2368 L3267,2358 C3267,2349 3272,2361 3271,2353 C3271,2345 3265,2356 3266,2346 L3267,2336"/></g><clipPath id="c" clipRule="evenodd" fill="transparent"><use href="#t9588"/></clipPath></defs><svg viewBox="3230 2333 43 42" preserveAspectRatio="xMinYMin meet"><svg width="4380" height="2430"><g><image crossorigin="anonymous" x="0" y="0" href="https://nftpuzzle.license-token.com/assets/completepuzzle.svg" width="100%" height="100%" /><g class="links"><use href="#t9588"/></g></g></svg><svg x="3258" y="2360" height="9%" width="9%" viewBox="0 0 330 330"><g><a xlink:href="https://nftpuzzle.license-token.com/" class="links"><title>See the most innovative NFT based token software licensing project</title><path fill="#E4CF37" id="more" d="M165,0C74.019,0,0,74.019,0,165s74.019,165,165,165s165-74.019,165-165S255.981,0,165,0z M85,190 c-13.785,0-25-11.215-25-25s11.215-25,25-25s25,11.215,25,25S98.785,190,85,190z M165,190c-13.785,0-25-11.215-25-25 s11.215-25,25-25s25,11.215,25,25S178.785,190,165,190z M245,190c-13.785,0-25-11.215-25-25s11.215-25,25-25 c13.785,0,25,11.215,25,25S258.785,190,245,190z"></path></a></g></svg></svg></svg>