<svg version="1.1" xmlns="http://www.w3.org/2000/svg" xmlns:xlink="http://www.w3.org/1999/xlink" fill="transparent" x="0" y="0" width="350" height="350" preserveAspectRatio="xMinYMin slice"><style type="text/css">.links{fill:transparent;stroke: #E4CF37;}.links:hover{fill:#63D272; opacity:0.4;}</style><defs><g id="allt"><path id="t9596" d="M3531,2336 L3520,2337 C3510,2338 3522,2332 3512,2331 C3502,2331 3519,2338 3508,2337 L3498,2336 3498,2336 L3498,2345 C3498,2354 3501,2340 3501,2351 C3501,2362 3498,2348 3498,2358 L3498,2368 3498,2368 L3507,2368 C3517,2368 3502,2371 3513,2371 C3525,2371 3511,2368 3521,2368 L3531,2368 3531,2368 L3531,2358 C3531,2348 3522,2358 3522,2349 C3522,2341 3532,2357 3531,2346 L3531,2336"/></g><clipPath id="c" clipRule="evenodd" fill="transparent"><use href="#t9596"/></clipPath></defs><svg viewBox="3497 2330 36 42" preserveAspectRatio="xMinYMin meet"><svg width="4380" height="2430"><g><image crossorigin="anonymous" x="0" y="0" href="https://nftpuzzle.license-token.com/assets/completepuzzle.svg" width="100%" height="100%" /><g class="links"><use href="#t9596"/></g></g></svg><svg x="3518" y="2357" height="9%" width="9%" viewBox="0 0 330 330"><g><a xlink:href="https://nftpuzzle.license-token.com/" class="links"><title>See the most innovative NFT based token software licensing project</title><path fill="#E4CF37" id="more" d="M165,0C74.019,0,0,74.019,0,165s74.019,165,165,165s165-74.019,165-165S255.981,0,165,0z M85,190 c-13.785,0-25-11.215-25-25s11.215-25,25-25s25,11.215,25,25S98.785,190,85,190z M165,190c-13.785,0-25-11.215-25-25 s11.215-25,25-25s25,11.215,25,25S178.785,190,165,190z M245,190c-13.785,0-25-11.215-25-25s11.215-25,25-25 c13.785,0,25,11.215,25,25S258.785,190,245,190z"></path></a></g></svg></svg></svg>