<svg version="1.1" xmlns="http://www.w3.org/2000/svg" xmlns:xlink="http://www.w3.org/1999/xlink" fill="transparent" x="0" y="0" width="350" height="350" preserveAspectRatio="xMinYMin slice"><style type="text/css">.links{fill:transparent;stroke: #E4CF37;}.links:hover{fill:#63D272; opacity:0.4;}</style><defs><g id="allt"><path id="t9597" d="M3564,2336 L3553,2335 C3543,2335 3557,2341 3546,2339 C3536,2338 3549,2335 3540,2335 L3531,2336 3531,2336 L3531,2346 C3532,2357 3522,2341 3522,2349 C3522,2358 3531,2348 3531,2358 L3531,2368 3531,2368 L3542,2368 C3553,2369 3536,2359 3545,2359 C3554,2360 3543,2368 3553,2368 L3564,2368 3564,2368 L3565,2358 C3566,2349 3559,2361 3556,2352 C3554,2344 3567,2353 3565,2344 L3564,2336"/></g><clipPath id="c" clipRule="evenodd" fill="transparent"><use href="#t9597"/></clipPath></defs><svg viewBox="3521 2334 47 36" preserveAspectRatio="xMinYMin meet"><svg width="4380" height="2430"><g><image crossorigin="anonymous" x="0" y="0" href="https://nftpuzzle.license-token.com/assets/completepuzzle.svg" width="100%" height="100%" /><g class="links"><use href="#t9597"/></g></g></svg><svg x="3553" y="2355" height="9%" width="9%" viewBox="0 0 330 330"><g><a xlink:href="https://nftpuzzle.license-token.com/" class="links"><title>See the most innovative NFT based token software licensing project</title><path fill="#E4CF37" id="more" d="M165,0C74.019,0,0,74.019,0,165s74.019,165,165,165s165-74.019,165-165S255.981,0,165,0z M85,190 c-13.785,0-25-11.215-25-25s11.215-25,25-25s25,11.215,25,25S98.785,190,85,190z M165,190c-13.785,0-25-11.215-25-25 s11.215-25,25-25s25,11.215,25,25S178.785,190,165,190z M245,190c-13.785,0-25-11.215-25-25s11.215-25,25-25 c13.785,0,25,11.215,25,25S258.785,190,245,190z"></path></a></g></svg></svg></svg>