<svg version="1.1" xmlns="http://www.w3.org/2000/svg" xmlns:xlink="http://www.w3.org/1999/xlink" fill="transparent" x="0" y="0" width="350" height="350" preserveAspectRatio="xMinYMin slice"><style type="text/css">.links{fill:transparent;stroke: #E4CF37;}.links:hover{fill:#63D272; opacity:0.4;}</style><defs><g id="allt"><path id="t9598" d="M3597,2336 L3586,2336 C3575,2336 3589,2327 3578,2326 C3568,2326 3583,2339 3573,2337 L3564,2336 3564,2336 L3565,2344 C3567,2353 3554,2344 3556,2352 C3559,2361 3566,2349 3565,2358 L3564,2368 3564,2368 L3573,2369 C3582,2371 3572,2358 3581,2360 C3590,2363 3577,2370 3587,2369 L3597,2368 3597,2368 L3597,2357 C3597,2346 3594,2361 3594,2352 C3594,2344 3597,2357 3597,2346 L3597,2336"/></g><clipPath id="c" clipRule="evenodd" fill="transparent"><use href="#t9598"/></clipPath></defs><svg viewBox="3553 2325 45 47" preserveAspectRatio="xMinYMin meet"><svg width="4380" height="2430"><g><image crossorigin="anonymous" x="0" y="0" href="https://nftpuzzle.license-token.com/assets/completepuzzle.svg" width="100%" height="100%" /><g class="links"><use href="#t9598"/></g></g></svg><svg x="3583" y="2357" height="9%" width="9%" viewBox="0 0 330 330"><g><a xlink:href="https://nftpuzzle.license-token.com/" class="links"><title>See the most innovative NFT based token software licensing project</title><path fill="#E4CF37" id="more" d="M165,0C74.019,0,0,74.019,0,165s74.019,165,165,165s165-74.019,165-165S255.981,0,165,0z M85,190 c-13.785,0-25-11.215-25-25s11.215-25,25-25s25,11.215,25,25S98.785,190,85,190z M165,190c-13.785,0-25-11.215-25-25 s11.215-25,25-25s25,11.215,25,25S178.785,190,165,190z M245,190c-13.785,0-25-11.215-25-25s11.215-25,25-25 c13.785,0,25,11.215,25,25S258.785,190,245,190z"></path></a></g></svg></svg></svg>