<svg version="1.1" xmlns="http://www.w3.org/2000/svg" xmlns:xlink="http://www.w3.org/1999/xlink" fill="transparent" x="0" y="0" width="350" height="350" preserveAspectRatio="xMinYMin slice"><style type="text/css">.links{fill:transparent;stroke: #E4CF37;}.links:hover{fill:#63D272; opacity:0.4;}</style><defs><g id="allt"><path id="t960" d="M1683,224 L1671,225 C1660,226 1678,218 1666,218 C1655,219 1671,226 1660,225 L1650,224 1650,224 L1649,232 C1649,241 1658,230 1658,240 C1658,250 1650,238 1650,247 L1650,256 1650,256 L1659,255 C1668,255 1656,264 1666,264 C1677,264 1664,256 1673,256 L1683,256 1683,256 L1684,245 C1685,235 1678,248 1679,238 C1680,229 1683,243 1683,233 L1683,224"/></g><clipPath id="c" clipRule="evenodd" fill="transparent"><use href="#t960"/></clipPath></defs><svg viewBox="1648 217 38 48" preserveAspectRatio="xMinYMin meet"><svg width="4380" height="2430"><g><image crossorigin="anonymous" x="0" y="0" href="https://nftpuzzle.license-token.com/assets/completepuzzle.svg" width="100%" height="100%" /><g class="links"><use href="#t960"/></g></g></svg><svg x="1671" y="250" height="9%" width="9%" viewBox="0 0 330 330"><g><a xlink:href="https://nftpuzzle.license-token.com/" class="links"><title>See the most innovative NFT based token software licensing project</title><path fill="#E4CF37" id="more" d="M165,0C74.019,0,0,74.019,0,165s74.019,165,165,165s165-74.019,165-165S255.981,0,165,0z M85,190 c-13.785,0-25-11.215-25-25s11.215-25,25-25s25,11.215,25,25S98.785,190,85,190z M165,190c-13.785,0-25-11.215-25-25 s11.215-25,25-25s25,11.215,25,25S178.785,190,165,190z M245,190c-13.785,0-25-11.215-25-25s11.215-25,25-25 c13.785,0,25,11.215,25,25S258.785,190,245,190z"></path></a></g></svg></svg></svg>