<svg version="1.1" xmlns="http://www.w3.org/2000/svg" xmlns:xlink="http://www.w3.org/1999/xlink" fill="transparent" x="0" y="0" width="350" height="350" preserveAspectRatio="xMinYMin slice"><style type="text/css">.links{fill:transparent;stroke: #E4CF37;}.links:hover{fill:#63D272; opacity:0.4;}</style><defs><g id="allt"><path id="t9605" d="M3828,2336 L3817,2336 C3806,2336 3819,2332 3811,2331 C3803,2330 3814,2338 3804,2337 L3795,2336 3795,2336 L3795,2345 C3795,2355 3800,2344 3799,2353 C3798,2362 3795,2350 3795,2359 L3795,2368 3795,2368 L3804,2368 C3814,2368 3804,2373 3813,2372 C3822,2371 3809,2368 3818,2368 L3828,2368 3828,2368 L3828,2358 C3828,2349 3832,2358 3833,2349 C3834,2341 3828,2354 3828,2345 L3828,2336"/></g><clipPath id="c" clipRule="evenodd" fill="transparent"><use href="#t9605"/></clipPath></defs><svg viewBox="3794 2329 41 45" preserveAspectRatio="xMinYMin meet"><svg width="4380" height="2430"><g><image crossorigin="anonymous" x="0" y="0" href="https://nftpuzzle.license-token.com/assets/completepuzzle.svg" width="100%" height="100%" /><g class="links"><use href="#t9605"/></g></g></svg><svg x="3820" y="2359" height="9%" width="9%" viewBox="0 0 330 330"><g><a xlink:href="https://nftpuzzle.license-token.com/" class="links"><title>See the most innovative NFT based token software licensing project</title><path fill="#E4CF37" id="more" d="M165,0C74.019,0,0,74.019,0,165s74.019,165,165,165s165-74.019,165-165S255.981,0,165,0z M85,190 c-13.785,0-25-11.215-25-25s11.215-25,25-25s25,11.215,25,25S98.785,190,85,190z M165,190c-13.785,0-25-11.215-25-25 s11.215-25,25-25s25,11.215,25,25S178.785,190,165,190z M245,190c-13.785,0-25-11.215-25-25s11.215-25,25-25 c13.785,0,25,11.215,25,25S258.785,190,245,190z"></path></a></g></svg></svg></svg>