<svg version="1.1" xmlns="http://www.w3.org/2000/svg" xmlns:xlink="http://www.w3.org/1999/xlink" fill="transparent" x="0" y="0" width="350" height="350" preserveAspectRatio="xMinYMin slice"><style type="text/css">.links{fill:transparent;stroke: #E4CF37;}.links:hover{fill:#63D272; opacity:0.4;}</style><defs><g id="allt"><path id="t9607" d="M3894,2336 L3884,2338 C3874,2341 3887,2324 3877,2326 C3868,2328 3880,2336 3870,2336 L3861,2336 3861,2336 L3859,2346 C3858,2356 3866,2342 3865,2352 C3865,2362 3858,2349 3859,2358 L3861,2368 3861,2368 L3871,2366 C3882,2365 3867,2373 3877,2372 C3888,2372 3874,2365 3884,2366 L3894,2368 3894,2368 L3894,2358 C3895,2349 3887,2358 3887,2351 C3887,2345 3895,2356 3894,2346 L3894,2336"/></g><clipPath id="c" clipRule="evenodd" fill="transparent"><use href="#t9607"/></clipPath></defs><svg viewBox="3857 2323 39 51" preserveAspectRatio="xMinYMin meet"><svg width="4380" height="2430"><g><image crossorigin="anonymous" x="0" y="0" href="https://nftpuzzle.license-token.com/assets/completepuzzle.svg" width="100%" height="100%" /><g class="links"><use href="#t9607"/></g></g></svg><svg x="3881" y="2359" height="9%" width="9%" viewBox="0 0 330 330"><g><a xlink:href="https://nftpuzzle.license-token.com/" class="links"><title>See the most innovative NFT based token software licensing project</title><path fill="#E4CF37" id="more" d="M165,0C74.019,0,0,74.019,0,165s74.019,165,165,165s165-74.019,165-165S255.981,0,165,0z M85,190 c-13.785,0-25-11.215-25-25s11.215-25,25-25s25,11.215,25,25S98.785,190,85,190z M165,190c-13.785,0-25-11.215-25-25 s11.215-25,25-25s25,11.215,25,25S178.785,190,165,190z M245,190c-13.785,0-25-11.215-25-25s11.215-25,25-25 c13.785,0,25,11.215,25,25S258.785,190,245,190z"></path></a></g></svg></svg></svg>