<svg version="1.1" xmlns="http://www.w3.org/2000/svg" xmlns:xlink="http://www.w3.org/1999/xlink" fill="transparent" x="0" y="0" width="350" height="350" preserveAspectRatio="xMinYMin slice"><style type="text/css">.links{fill:transparent;stroke: #E4CF37;}.links:hover{fill:#63D272; opacity:0.4;}</style><defs><g id="allt"><path id="t9608" d="M3927,2336 L3915,2335 C3904,2334 3917,2340 3909,2341 C3902,2343 3914,2336 3904,2336 L3894,2336 3894,2336 L3894,2346 C3895,2356 3887,2345 3887,2351 C3887,2358 3895,2349 3894,2358 L3894,2368 3894,2368 L3904,2368 C3915,2369 3903,2361 3910,2361 C3917,2361 3907,2369 3917,2368 L3927,2368 3927,2368 L3928,2357 C3930,2347 3917,2362 3917,2351 C3918,2341 3927,2356 3927,2346 L3927,2336"/></g><clipPath id="c" clipRule="evenodd" fill="transparent"><use href="#t9608"/></clipPath></defs><svg viewBox="3886 2333 45 37" preserveAspectRatio="xMinYMin meet"><svg width="4380" height="2430"><g><image crossorigin="anonymous" x="0" y="0" href="https://nftpuzzle.license-token.com/assets/completepuzzle.svg" width="100%" height="100%" /><g class="links"><use href="#t9608"/></g></g></svg><svg x="3916" y="2355" height="9%" width="9%" viewBox="0 0 330 330"><g><a xlink:href="https://nftpuzzle.license-token.com/" class="links"><title>See the most innovative NFT based token software licensing project</title><path fill="#E4CF37" id="more" d="M165,0C74.019,0,0,74.019,0,165s74.019,165,165,165s165-74.019,165-165S255.981,0,165,0z M85,190 c-13.785,0-25-11.215-25-25s11.215-25,25-25s25,11.215,25,25S98.785,190,85,190z M165,190c-13.785,0-25-11.215-25-25 s11.215-25,25-25s25,11.215,25,25S178.785,190,165,190z M245,190c-13.785,0-25-11.215-25-25s11.215-25,25-25 c13.785,0,25,11.215,25,25S258.785,190,245,190z"></path></a></g></svg></svg></svg>