<svg version="1.1" xmlns="http://www.w3.org/2000/svg" xmlns:xlink="http://www.w3.org/1999/xlink" fill="transparent" x="0" y="0" width="350" height="350" preserveAspectRatio="xMinYMin slice"><style type="text/css">.links{fill:transparent;stroke: #E4CF37;}.links:hover{fill:#63D272; opacity:0.4;}</style><defs><g id="allt"><path id="t961" d="M1716,224 L1706,226 C1697,228 1707,214 1699,216 C1691,218 1703,228 1693,226 L1683,224 1683,224 L1683,233 C1683,243 1680,229 1679,238 C1678,248 1685,235 1684,245 L1683,256 1683,256 L1693,256 C1703,256 1688,253 1698,252 C1708,251 1695,258 1705,257 L1716,256 1716,256 L1717,247 C1718,238 1712,250 1711,240 C1710,230 1716,241 1716,232 L1716,224"/></g><clipPath id="c" clipRule="evenodd" fill="transparent"><use href="#t961"/></clipPath></defs><svg viewBox="1677 213 42 46" preserveAspectRatio="xMinYMin meet"><svg width="4380" height="2430"><g><image crossorigin="anonymous" x="0" y="0" href="https://nftpuzzle.license-token.com/assets/completepuzzle.svg" width="100%" height="100%" /><g class="links"><use href="#t961"/></g></g></svg><svg x="1704" y="244" height="9%" width="9%" viewBox="0 0 330 330"><g><a xlink:href="https://nftpuzzle.license-token.com/" class="links"><title>See the most innovative NFT based token software licensing project</title><path fill="#E4CF37" id="more" d="M165,0C74.019,0,0,74.019,0,165s74.019,165,165,165s165-74.019,165-165S255.981,0,165,0z M85,190 c-13.785,0-25-11.215-25-25s11.215-25,25-25s25,11.215,25,25S98.785,190,85,190z M165,190c-13.785,0-25-11.215-25-25 s11.215-25,25-25s25,11.215,25,25S178.785,190,165,190z M245,190c-13.785,0-25-11.215-25-25s11.215-25,25-25 c13.785,0,25,11.215,25,25S258.785,190,245,190z"></path></a></g></svg></svg></svg>