<svg version="1.1" xmlns="http://www.w3.org/2000/svg" xmlns:xlink="http://www.w3.org/1999/xlink" fill="transparent" x="0" y="0" width="350" height="350" preserveAspectRatio="xMinYMin slice"><style type="text/css">.links{fill:transparent;stroke: #E4CF37;}.links:hover{fill:#63D272; opacity:0.4;}</style><defs><g id="allt"><path id="t9610" d="M3993,2336 L3983,2338 C3974,2341 3985,2329 3977,2327 C3969,2326 3978,2337 3969,2336 L3960,2336 3960,2336 L3960,2344 C3960,2353 3969,2341 3970,2350 C3971,2359 3960,2350 3960,2359 L3960,2368 3960,2368 L3969,2368 C3978,2368 3965,2377 3974,2378 C3983,2379 3974,2368 3983,2368 L3993,2368 3993,2368 L3993,2358 C3993,2349 3995,2360 3996,2351 C3997,2343 3992,2355 3992,2345 L3993,2336"/></g><clipPath id="c" clipRule="evenodd" fill="transparent"><use href="#t9610"/></clipPath></defs><svg viewBox="3959 2325 39 55" preserveAspectRatio="xMinYMin meet"><svg width="4380" height="2430"><g><image crossorigin="anonymous" x="0" y="0" href="https://nftpuzzle.license-token.com/assets/completepuzzle.svg" width="100%" height="100%" /><g class="links"><use href="#t9610"/></g></g></svg><svg x="3983" y="2365" height="9%" width="9%" viewBox="0 0 330 330"><g><a xlink:href="https://nftpuzzle.license-token.com/" class="links"><title>See the most innovative NFT based token software licensing project</title><path fill="#E4CF37" id="more" d="M165,0C74.019,0,0,74.019,0,165s74.019,165,165,165s165-74.019,165-165S255.981,0,165,0z M85,190 c-13.785,0-25-11.215-25-25s11.215-25,25-25s25,11.215,25,25S98.785,190,85,190z M165,190c-13.785,0-25-11.215-25-25 s11.215-25,25-25s25,11.215,25,25S178.785,190,165,190z M245,190c-13.785,0-25-11.215-25-25s11.215-25,25-25 c13.785,0,25,11.215,25,25S258.785,190,245,190z"></path></a></g></svg></svg></svg>