<svg version="1.1" xmlns="http://www.w3.org/2000/svg" xmlns:xlink="http://www.w3.org/1999/xlink" fill="transparent" x="0" y="0" width="350" height="350" preserveAspectRatio="xMinYMin slice"><style type="text/css">.links{fill:transparent;stroke: #E4CF37;}.links:hover{fill:#63D272; opacity:0.4;}</style><defs><g id="allt"><path id="t9611" d="M4026,2336 L4015,2335 C4005,2335 4019,2340 4010,2341 C4002,2342 4014,2335 4003,2335 L3993,2336 3993,2336 L3992,2345 C3992,2355 3997,2343 3996,2351 C3995,2360 3993,2349 3993,2358 L3993,2368 3993,2368 L4003,2367 C4013,2367 4000,2372 4009,2371 C4018,2370 4006,2368 4016,2368 L4026,2368 4026,2368 L4027,2358 C4028,2348 4023,2361 4023,2351 C4023,2341 4026,2355 4026,2345 L4026,2336"/></g><clipPath id="c" clipRule="evenodd" fill="transparent"><use href="#t9611"/></clipPath></defs><svg viewBox="3991 2334 38 39" preserveAspectRatio="xMinYMin meet"><svg width="4380" height="2430"><g><image crossorigin="anonymous" x="0" y="0" href="https://nftpuzzle.license-token.com/assets/completepuzzle.svg" width="100%" height="100%" /><g class="links"><use href="#t9611"/></g></g></svg><svg x="4014" y="2358" height="9%" width="9%" viewBox="0 0 330 330"><g><a xlink:href="https://nftpuzzle.license-token.com/" class="links"><title>See the most innovative NFT based token software licensing project</title><path fill="#E4CF37" id="more" d="M165,0C74.019,0,0,74.019,0,165s74.019,165,165,165s165-74.019,165-165S255.981,0,165,0z M85,190 c-13.785,0-25-11.215-25-25s11.215-25,25-25s25,11.215,25,25S98.785,190,85,190z M165,190c-13.785,0-25-11.215-25-25 s11.215-25,25-25s25,11.215,25,25S178.785,190,165,190z M245,190c-13.785,0-25-11.215-25-25s11.215-25,25-25 c13.785,0,25,11.215,25,25S258.785,190,245,190z"></path></a></g></svg></svg></svg>