<svg version="1.1" xmlns="http://www.w3.org/2000/svg" xmlns:xlink="http://www.w3.org/1999/xlink" fill="transparent" x="0" y="0" width="350" height="350" preserveAspectRatio="xMinYMin slice"><style type="text/css">.links{fill:transparent;stroke: #E4CF37;}.links:hover{fill:#63D272; opacity:0.4;}</style><defs><g id="allt"><path id="t9614" d="M4125,2336 L4115,2334 C4105,2333 4117,2343 4107,2341 C4097,2340 4113,2336 4102,2336 L4092,2336 4092,2336 L4090,2345 C4088,2354 4102,2343 4101,2352 C4100,2362 4089,2347 4090,2357 L4092,2368 4092,2368 L4101,2366 C4111,2364 4099,2377 4109,2376 C4119,2376 4103,2365 4114,2366 L4125,2368 4125,2368 L4125,2358 C4125,2348 4122,2361 4121,2351 C4121,2342 4125,2355 4125,2345 L4125,2336"/></g><clipPath id="c" clipRule="evenodd" fill="transparent"><use href="#t9614"/></clipPath></defs><svg viewBox="4087 2332 39 46" preserveAspectRatio="xMinYMin meet"><svg width="4380" height="2430"><g><image crossorigin="anonymous" x="0" y="0" href="https://nftpuzzle.license-token.com/assets/completepuzzle.svg" width="100%" height="100%" /><g class="links"><use href="#t9614"/></g></g></svg><svg x="4111" y="2363" height="9%" width="9%" viewBox="0 0 330 330"><g><a xlink:href="https://nftpuzzle.license-token.com/" class="links"><title>See the most innovative NFT based token software licensing project</title><path fill="#E4CF37" id="more" d="M165,0C74.019,0,0,74.019,0,165s74.019,165,165,165s165-74.019,165-165S255.981,0,165,0z M85,190 c-13.785,0-25-11.215-25-25s11.215-25,25-25s25,11.215,25,25S98.785,190,85,190z M165,190c-13.785,0-25-11.215-25-25 s11.215-25,25-25s25,11.215,25,25S178.785,190,165,190z M245,190c-13.785,0-25-11.215-25-25s11.215-25,25-25 c13.785,0,25,11.215,25,25S258.785,190,245,190z"></path></a></g></svg></svg></svg>