<svg version="1.1" xmlns="http://www.w3.org/2000/svg" xmlns:xlink="http://www.w3.org/1999/xlink" fill="transparent" x="0" y="0" width="350" height="350" preserveAspectRatio="xMinYMin slice"><style type="text/css">.links{fill:transparent;stroke: #E4CF37;}.links:hover{fill:#63D272; opacity:0.4;}</style><defs><g id="allt"><path id="t9616" d="M4191,2336 L4181,2336 C4171,2336 4183,2344 4174,2343 C4166,2342 4177,2336 4167,2336 L4158,2336 4158,2336 L4158,2346 C4158,2357 4148,2345 4149,2351 C4150,2358 4158,2347 4158,2357 L4158,2368 4158,2368 L4168,2368 C4179,2368 4167,2359 4174,2359 C4181,2360 4169,2368 4180,2368 L4191,2368 4191,2368 L4192,2358 C4193,2348 4186,2359 4185,2350 C4185,2342 4192,2354 4191,2345 L4191,2336"/></g><clipPath id="c" clipRule="evenodd" fill="transparent"><use href="#t9616"/></clipPath></defs><svg viewBox="4147 2335 47 34" preserveAspectRatio="xMinYMin meet"><svg width="4380" height="2430"><g><image crossorigin="anonymous" x="0" y="0" href="https://nftpuzzle.license-token.com/assets/completepuzzle.svg" width="100%" height="100%" /><g class="links"><use href="#t9616"/></g></g></svg><svg x="4179" y="2354" height="9%" width="9%" viewBox="0 0 330 330"><g><a xlink:href="https://nftpuzzle.license-token.com/" class="links"><title>See the most innovative NFT based token software licensing project</title><path fill="#E4CF37" id="more" d="M165,0C74.019,0,0,74.019,0,165s74.019,165,165,165s165-74.019,165-165S255.981,0,165,0z M85,190 c-13.785,0-25-11.215-25-25s11.215-25,25-25s25,11.215,25,25S98.785,190,85,190z M165,190c-13.785,0-25-11.215-25-25 s11.215-25,25-25s25,11.215,25,25S178.785,190,165,190z M245,190c-13.785,0-25-11.215-25-25s11.215-25,25-25 c13.785,0,25,11.215,25,25S258.785,190,245,190z"></path></a></g></svg></svg></svg>