<svg version="1.1" xmlns="http://www.w3.org/2000/svg" xmlns:xlink="http://www.w3.org/1999/xlink" fill="transparent" x="0" y="0" width="350" height="350" preserveAspectRatio="xMinYMin slice"><style type="text/css">.links{fill:transparent;stroke: #E4CF37;}.links:hover{fill:#63D272; opacity:0.4;}</style><defs><g id="allt"><path id="t9655" d="M1188,2368 L1178,2368 C1169,2368 1179,2362 1169,2361 C1160,2360 1177,2368 1166,2368 L1155,2368 1155,2368 L1155,2377 C1155,2386 1152,2374 1152,2382 C1152,2391 1157,2382 1156,2391 L1155,2400 L1155,2400 L1188,2400 1188,2400 L1187,2390 C1186,2381 1192,2392 1192,2384 C1192,2377 1188,2387 1188,2377 L1188,2368"/></g><clipPath id="c" clipRule="evenodd" fill="transparent"><use href="#t9655"/></clipPath></defs><svg viewBox="1151 2359 42 42" preserveAspectRatio="xMinYMin meet"><svg width="4380" height="2430"><g><image crossorigin="anonymous" x="0" y="0" href="https://nftpuzzle.license-token.com/assets/completepuzzle.svg" width="100%" height="100%" /><g class="links"><use href="#t9655"/></g></g></svg><svg x="1178" y="2386" height="9%" width="9%" viewBox="0 0 330 330"><g><a xlink:href="https://nftpuzzle.license-token.com/" class="links"><title>See the most innovative NFT based token software licensing project</title><path fill="#E4CF37" id="more" d="M165,0C74.019,0,0,74.019,0,165s74.019,165,165,165s165-74.019,165-165S255.981,0,165,0z M85,190 c-13.785,0-25-11.215-25-25s11.215-25,25-25s25,11.215,25,25S98.785,190,85,190z M165,190c-13.785,0-25-11.215-25-25 s11.215-25,25-25s25,11.215,25,25S178.785,190,165,190z M245,190c-13.785,0-25-11.215-25-25s11.215-25,25-25 c13.785,0,25,11.215,25,25S258.785,190,245,190z"></path></a></g></svg></svg></svg>