<svg version="1.1" xmlns="http://www.w3.org/2000/svg" xmlns:xlink="http://www.w3.org/1999/xlink" fill="transparent" x="0" y="0" width="350" height="350" preserveAspectRatio="xMinYMin slice"><style type="text/css">.links{fill:transparent;stroke: #E4CF37;}.links:hover{fill:#63D272; opacity:0.4;}</style><defs><g id="allt"><path id="t9659" d="M1320,2368 L1309,2368 C1299,2369 1313,2364 1303,2362 C1294,2360 1306,2368 1296,2368 L1287,2368 1287,2368 L1285,2378 C1283,2388 1291,2372 1293,2382 C1296,2392 1287,2380 1287,2390 L1287,2400 L1287,2400 L1320,2400 1320,2400 L1321,2389 C1323,2378 1311,2393 1310,2385 C1309,2377 1320,2389 1320,2378 L1320,2368"/></g><clipPath id="c" clipRule="evenodd" fill="transparent"><use href="#t9659"/></clipPath></defs><svg viewBox="1282 2359 42 42" preserveAspectRatio="xMinYMin meet"><svg width="4380" height="2430"><g><image crossorigin="anonymous" x="0" y="0" href="https://nftpuzzle.license-token.com/assets/completepuzzle.svg" width="100%" height="100%" /><g class="links"><use href="#t9659"/></g></g></svg><svg x="1309" y="2386" height="9%" width="9%" viewBox="0 0 330 330"><g><a xlink:href="https://nftpuzzle.license-token.com/" class="links"><title>See the most innovative NFT based token software licensing project</title><path fill="#E4CF37" id="more" d="M165,0C74.019,0,0,74.019,0,165s74.019,165,165,165s165-74.019,165-165S255.981,0,165,0z M85,190 c-13.785,0-25-11.215-25-25s11.215-25,25-25s25,11.215,25,25S98.785,190,85,190z M165,190c-13.785,0-25-11.215-25-25 s11.215-25,25-25s25,11.215,25,25S178.785,190,165,190z M245,190c-13.785,0-25-11.215-25-25s11.215-25,25-25 c13.785,0,25,11.215,25,25S258.785,190,245,190z"></path></a></g></svg></svg></svg>