<svg version="1.1" xmlns="http://www.w3.org/2000/svg" xmlns:xlink="http://www.w3.org/1999/xlink" fill="transparent" x="0" y="0" width="350" height="350" preserveAspectRatio="xMinYMin slice"><style type="text/css">.links{fill:transparent;stroke: #E4CF37;}.links:hover{fill:#63D272; opacity:0.4;}</style><defs><g id="allt"><path id="t9661" d="M1386,2368 L1375,2367 C1365,2367 1378,2372 1368,2373 C1359,2374 1373,2368 1363,2368 L1353,2368 1353,2368 L1353,2376 C1353,2385 1359,2376 1359,2384 C1360,2393 1353,2378 1353,2389 L1353,2400 L1353,2400 L1386,2400 1386,2400 L1386,2390 C1386,2380 1384,2392 1383,2383 C1383,2375 1386,2387 1386,2377 L1386,2368"/></g><clipPath id="c" clipRule="evenodd" fill="transparent"><use href="#t9661"/></clipPath></defs><svg viewBox="1352 2366 35 35" preserveAspectRatio="xMinYMin meet"><svg width="4380" height="2430"><g><image crossorigin="anonymous" x="0" y="0" href="https://nftpuzzle.license-token.com/assets/completepuzzle.svg" width="100%" height="100%" /><g class="links"><use href="#t9661"/></g></g></svg><svg x="1372" y="2386" height="9%" width="9%" viewBox="0 0 330 330"><g><a xlink:href="https://nftpuzzle.license-token.com/" class="links"><title>See the most innovative NFT based token software licensing project</title><path fill="#E4CF37" id="more" d="M165,0C74.019,0,0,74.019,0,165s74.019,165,165,165s165-74.019,165-165S255.981,0,165,0z M85,190 c-13.785,0-25-11.215-25-25s11.215-25,25-25s25,11.215,25,25S98.785,190,85,190z M165,190c-13.785,0-25-11.215-25-25 s11.215-25,25-25s25,11.215,25,25S178.785,190,165,190z M245,190c-13.785,0-25-11.215-25-25s11.215-25,25-25 c13.785,0,25,11.215,25,25S258.785,190,245,190z"></path></a></g></svg></svg></svg>