<svg version="1.1" xmlns="http://www.w3.org/2000/svg" xmlns:xlink="http://www.w3.org/1999/xlink" fill="transparent" x="0" y="0" width="350" height="350" preserveAspectRatio="xMinYMin slice"><style type="text/css">.links{fill:transparent;stroke: #E4CF37;}.links:hover{fill:#63D272; opacity:0.4;}</style><defs><g id="allt"><path id="t9665" d="M1518,2368 L1507,2368 C1497,2368 1512,2362 1502,2364 C1492,2366 1504,2369 1494,2368 L1485,2368 1485,2368 L1486,2377 C1487,2386 1477,2374 1477,2383 C1478,2393 1486,2380 1485,2390 L1485,2400 L1485,2400 L1518,2400 1518,2400 L1517,2390 C1516,2381 1528,2391 1526,2383 C1525,2376 1517,2387 1517,2377 L1518,2368"/></g><clipPath id="c" clipRule="evenodd" fill="transparent"><use href="#t9665"/></clipPath></defs><svg viewBox="1476 2361 53 40" preserveAspectRatio="xMinYMin meet"><svg width="4380" height="2430"><g><image crossorigin="anonymous" x="0" y="0" href="https://nftpuzzle.license-token.com/assets/completepuzzle.svg" width="100%" height="100%" /><g class="links"><use href="#t9665"/></g></g></svg><svg x="1514" y="2386" height="9%" width="9%" viewBox="0 0 330 330"><g><a xlink:href="https://nftpuzzle.license-token.com/" class="links"><title>See the most innovative NFT based token software licensing project</title><path fill="#E4CF37" id="more" d="M165,0C74.019,0,0,74.019,0,165s74.019,165,165,165s165-74.019,165-165S255.981,0,165,0z M85,190 c-13.785,0-25-11.215-25-25s11.215-25,25-25s25,11.215,25,25S98.785,190,85,190z M165,190c-13.785,0-25-11.215-25-25 s11.215-25,25-25s25,11.215,25,25S178.785,190,165,190z M245,190c-13.785,0-25-11.215-25-25s11.215-25,25-25 c13.785,0,25,11.215,25,25S258.785,190,245,190z"></path></a></g></svg></svg></svg>