<svg version="1.1" xmlns="http://www.w3.org/2000/svg" xmlns:xlink="http://www.w3.org/1999/xlink" fill="transparent" x="0" y="0" width="350" height="350" preserveAspectRatio="xMinYMin slice"><style type="text/css">.links{fill:transparent;stroke: #E4CF37;}.links:hover{fill:#63D272; opacity:0.4;}</style><defs><g id="allt"><path id="t9676" d="M1881,2368 L1871,2370 C1861,2372 1873,2361 1864,2362 C1856,2363 1867,2368 1857,2368 L1848,2368 1848,2368 L1848,2378 C1849,2389 1840,2377 1841,2384 C1843,2392 1848,2380 1848,2390 L1848,2400 L1848,2400 L1881,2400 1881,2400 L1883,2389 C1886,2379 1874,2392 1874,2384 C1874,2376 1883,2389 1882,2378 L1881,2368"/></g><clipPath id="c" clipRule="evenodd" fill="transparent"><use href="#t9676"/></clipPath></defs><svg viewBox="1839 2360 48 41" preserveAspectRatio="xMinYMin meet"><svg width="4380" height="2430"><g><image crossorigin="anonymous" x="0" y="0" href="https://nftpuzzle.license-token.com/assets/completepuzzle.svg" width="100%" height="100%" /><g class="links"><use href="#t9676"/></g></g></svg><svg x="1872" y="2386" height="9%" width="9%" viewBox="0 0 330 330"><g><a xlink:href="https://nftpuzzle.license-token.com/" class="links"><title>See the most innovative NFT based token software licensing project</title><path fill="#E4CF37" id="more" d="M165,0C74.019,0,0,74.019,0,165s74.019,165,165,165s165-74.019,165-165S255.981,0,165,0z M85,190 c-13.785,0-25-11.215-25-25s11.215-25,25-25s25,11.215,25,25S98.785,190,85,190z M165,190c-13.785,0-25-11.215-25-25 s11.215-25,25-25s25,11.215,25,25S178.785,190,165,190z M245,190c-13.785,0-25-11.215-25-25s11.215-25,25-25 c13.785,0,25,11.215,25,25S258.785,190,245,190z"></path></a></g></svg></svg></svg>