<svg version="1.1" xmlns="http://www.w3.org/2000/svg" xmlns:xlink="http://www.w3.org/1999/xlink" fill="transparent" x="0" y="0" width="350" height="350" preserveAspectRatio="xMinYMin slice"><style type="text/css">.links{fill:transparent;stroke: #E4CF37;}.links:hover{fill:#63D272; opacity:0.4;}</style><defs><g id="allt"><path id="t9678" d="M1947,2368 L1937,2368 C1928,2369 1940,2357 1931,2359 C1923,2361 1932,2368 1923,2368 L1914,2368 1914,2368 L1915,2376 C1916,2385 1904,2376 1905,2383 C1906,2391 1915,2379 1914,2389 L1914,2400 L1914,2400 L1947,2400 1947,2400 L1947,2389 C1947,2378 1957,2390 1956,2382 C1955,2374 1942,2387 1944,2377 L1947,2368"/></g><clipPath id="c" clipRule="evenodd" fill="transparent"><use href="#t9678"/></clipPath></defs><svg viewBox="1903 2356 55 45" preserveAspectRatio="xMinYMin meet"><svg width="4380" height="2430"><g><image crossorigin="anonymous" x="0" y="0" href="https://nftpuzzle.license-token.com/assets/completepuzzle.svg" width="100%" height="100%" /><g class="links"><use href="#t9678"/></g></g></svg><svg x="1943" y="2386" height="9%" width="9%" viewBox="0 0 330 330"><g><a xlink:href="https://nftpuzzle.license-token.com/" class="links"><title>See the most innovative NFT based token software licensing project</title><path fill="#E4CF37" id="more" d="M165,0C74.019,0,0,74.019,0,165s74.019,165,165,165s165-74.019,165-165S255.981,0,165,0z M85,190 c-13.785,0-25-11.215-25-25s11.215-25,25-25s25,11.215,25,25S98.785,190,85,190z M165,190c-13.785,0-25-11.215-25-25 s11.215-25,25-25s25,11.215,25,25S178.785,190,165,190z M245,190c-13.785,0-25-11.215-25-25s11.215-25,25-25 c13.785,0,25,11.215,25,25S258.785,190,245,190z"></path></a></g></svg></svg></svg>