<svg version="1.1" xmlns="http://www.w3.org/2000/svg" xmlns:xlink="http://www.w3.org/1999/xlink" fill="transparent" x="0" y="0" width="350" height="350" preserveAspectRatio="xMinYMin slice"><style type="text/css">.links{fill:transparent;stroke: #E4CF37;}.links:hover{fill:#63D272; opacity:0.4;}</style><defs><g id="allt"><path id="t968" d="M1947,224 L1937,224 C1927,224 1937,218 1928,218 C1919,219 1934,225 1924,224 L1914,224 1914,224 L1916,233 C1918,242 1903,230 1903,238 C1903,247 1915,234 1914,245 L1914,256 1914,256 L1923,258 C1932,260 1920,246 1929,246 C1938,246 1925,257 1936,256 L1947,256 1947,256 L1948,245 C1950,235 1941,246 1941,239 C1941,233 1947,243 1947,233 L1947,224"/></g><clipPath id="c" clipRule="evenodd" fill="transparent"><use href="#t968"/></clipPath></defs><svg viewBox="1902 217 49 44" preserveAspectRatio="xMinYMin meet"><svg width="4380" height="2430"><g><image crossorigin="anonymous" x="0" y="0" href="https://nftpuzzle.license-token.com/assets/completepuzzle.svg" width="100%" height="100%" /><g class="links"><use href="#t968"/></g></g></svg><svg x="1936" y="246" height="9%" width="9%" viewBox="0 0 330 330"><g><a xlink:href="https://nftpuzzle.license-token.com/" class="links"><title>See the most innovative NFT based token software licensing project</title><path fill="#E4CF37" id="more" d="M165,0C74.019,0,0,74.019,0,165s74.019,165,165,165s165-74.019,165-165S255.981,0,165,0z M85,190 c-13.785,0-25-11.215-25-25s11.215-25,25-25s25,11.215,25,25S98.785,190,85,190z M165,190c-13.785,0-25-11.215-25-25 s11.215-25,25-25s25,11.215,25,25S178.785,190,165,190z M245,190c-13.785,0-25-11.215-25-25s11.215-25,25-25 c13.785,0,25,11.215,25,25S258.785,190,245,190z"></path></a></g></svg></svg></svg>