<svg version="1.1" xmlns="http://www.w3.org/2000/svg" xmlns:xlink="http://www.w3.org/1999/xlink" fill="transparent" x="0" y="0" width="350" height="350" preserveAspectRatio="xMinYMin slice"><style type="text/css">.links{fill:transparent;stroke: #E4CF37;}.links:hover{fill:#63D272; opacity:0.4;}</style><defs><g id="allt"><path id="t9690" d="M2343,2368 L2333,2368 C2323,2368 2337,2365 2326,2364 C2316,2364 2330,2369 2320,2368 L2310,2368 2310,2368 L2310,2376 C2310,2385 2305,2376 2304,2384 C2304,2393 2311,2378 2310,2389 L2310,2400 L2310,2400 L2343,2400 2343,2400 L2344,2390 C2346,2380 2332,2391 2334,2383 C2336,2375 2347,2387 2345,2377 L2343,2368"/></g><clipPath id="c" clipRule="evenodd" fill="transparent"><use href="#t9690"/></clipPath></defs><svg viewBox="2303 2363 45 38" preserveAspectRatio="xMinYMin meet"><svg width="4380" height="2430"><g><image crossorigin="anonymous" x="0" y="0" href="https://nftpuzzle.license-token.com/assets/completepuzzle.svg" width="100%" height="100%" /><g class="links"><use href="#t9690"/></g></g></svg><svg x="2333" y="2386" height="9%" width="9%" viewBox="0 0 330 330"><g><a xlink:href="https://nftpuzzle.license-token.com/" class="links"><title>See the most innovative NFT based token software licensing project</title><path fill="#E4CF37" id="more" d="M165,0C74.019,0,0,74.019,0,165s74.019,165,165,165s165-74.019,165-165S255.981,0,165,0z M85,190 c-13.785,0-25-11.215-25-25s11.215-25,25-25s25,11.215,25,25S98.785,190,85,190z M165,190c-13.785,0-25-11.215-25-25 s11.215-25,25-25s25,11.215,25,25S178.785,190,165,190z M245,190c-13.785,0-25-11.215-25-25s11.215-25,25-25 c13.785,0,25,11.215,25,25S258.785,190,245,190z"></path></a></g></svg></svg></svg>