<svg version="1.1" xmlns="http://www.w3.org/2000/svg" xmlns:xlink="http://www.w3.org/1999/xlink" fill="transparent" x="0" y="0" width="350" height="350" preserveAspectRatio="xMinYMin slice"><style type="text/css">.links{fill:transparent;stroke: #E4CF37;}.links:hover{fill:#63D272; opacity:0.4;}</style><defs><g id="allt"><path id="t9693" d="M2442,2368 L2432,2367 C2422,2367 2435,2374 2426,2374 C2418,2375 2428,2367 2418,2367 L2409,2368 2409,2368 L2409,2377 C2409,2386 2404,2377 2402,2385 C2401,2394 2412,2382 2410,2391 L2409,2400 L2409,2400 L2442,2400 2442,2400 L2440,2390 C2438,2381 2455,2392 2452,2382 C2450,2373 2440,2387 2441,2377 L2442,2368"/></g><clipPath id="c" clipRule="evenodd" fill="transparent"><use href="#t9693"/></clipPath></defs><svg viewBox="2400 2366 56 35" preserveAspectRatio="xMinYMin meet"><svg width="4380" height="2430"><g><image crossorigin="anonymous" x="0" y="0" href="https://nftpuzzle.license-token.com/assets/completepuzzle.svg" width="100%" height="100%" /><g class="links"><use href="#t9693"/></g></g></svg><svg x="2441" y="2386" height="9%" width="9%" viewBox="0 0 330 330"><g><a xlink:href="https://nftpuzzle.license-token.com/" class="links"><title>See the most innovative NFT based token software licensing project</title><path fill="#E4CF37" id="more" d="M165,0C74.019,0,0,74.019,0,165s74.019,165,165,165s165-74.019,165-165S255.981,0,165,0z M85,190 c-13.785,0-25-11.215-25-25s11.215-25,25-25s25,11.215,25,25S98.785,190,85,190z M165,190c-13.785,0-25-11.215-25-25 s11.215-25,25-25s25,11.215,25,25S178.785,190,165,190z M245,190c-13.785,0-25-11.215-25-25s11.215-25,25-25 c13.785,0,25,11.215,25,25S258.785,190,245,190z"></path></a></g></svg></svg></svg>