<svg version="1.1" xmlns="http://www.w3.org/2000/svg" xmlns:xlink="http://www.w3.org/1999/xlink" fill="transparent" x="0" y="0" width="350" height="350" preserveAspectRatio="xMinYMin slice"><style type="text/css">.links{fill:transparent;stroke: #E4CF37;}.links:hover{fill:#63D272; opacity:0.4;}</style><defs><g id="allt"><path id="t9696" d="M2541,2368 L2531,2368 C2521,2368 2533,2365 2523,2365 C2514,2366 2528,2369 2518,2368 L2508,2368 2508,2368 L2508,2376 C2508,2385 2498,2374 2497,2383 C2497,2392 2508,2382 2508,2391 L2508,2400 L2508,2400 L2541,2400 2541,2400 L2540,2389 C2540,2378 2545,2390 2545,2382 C2546,2375 2539,2387 2540,2377 L2541,2368"/></g><clipPath id="c" clipRule="evenodd" fill="transparent"><use href="#t9696"/></clipPath></defs><svg viewBox="2496 2364 51 37" preserveAspectRatio="xMinYMin meet"><svg width="4380" height="2430"><g><image crossorigin="anonymous" x="0" y="0" href="https://nftpuzzle.license-token.com/assets/completepuzzle.svg" width="100%" height="100%" /><g class="links"><use href="#t9696"/></g></g></svg><svg x="2532" y="2386" height="9%" width="9%" viewBox="0 0 330 330"><g><a xlink:href="https://nftpuzzle.license-token.com/" class="links"><title>See the most innovative NFT based token software licensing project</title><path fill="#E4CF37" id="more" d="M165,0C74.019,0,0,74.019,0,165s74.019,165,165,165s165-74.019,165-165S255.981,0,165,0z M85,190 c-13.785,0-25-11.215-25-25s11.215-25,25-25s25,11.215,25,25S98.785,190,85,190z M165,190c-13.785,0-25-11.215-25-25 s11.215-25,25-25s25,11.215,25,25S178.785,190,165,190z M245,190c-13.785,0-25-11.215-25-25s11.215-25,25-25 c13.785,0,25,11.215,25,25S258.785,190,245,190z"></path></a></g></svg></svg></svg>