<svg version="1.1" xmlns="http://www.w3.org/2000/svg" xmlns:xlink="http://www.w3.org/1999/xlink" fill="transparent" x="0" y="0" width="350" height="350" preserveAspectRatio="xMinYMin slice"><style type="text/css">.links{fill:transparent;stroke: #E4CF37;}.links:hover{fill:#63D272; opacity:0.4;}</style><defs><g id="allt"><path id="t971" d="M2046,224 L2036,222 C2026,220 2037,231 2029,231 C2021,232 2035,219 2024,221 L2013,224 2013,224 L2013,234 C2013,245 2017,231 2017,239 C2017,248 2013,235 2013,245 L2013,256 2013,256 L2024,256 C2035,256 2020,260 2029,260 C2038,260 2025,256 2035,256 L2046,256 2046,256 L2046,245 C2046,235 2049,246 2050,239 C2051,232 2046,244 2046,234 L2046,224"/></g><clipPath id="c" clipRule="evenodd" fill="transparent"><use href="#t971"/></clipPath></defs><svg viewBox="2012 218 40 43" preserveAspectRatio="xMinYMin meet"><svg width="4380" height="2430"><g><image crossorigin="anonymous" x="0" y="0" href="https://nftpuzzle.license-token.com/assets/completepuzzle.svg" width="100%" height="100%" /><g class="links"><use href="#t971"/></g></g></svg><svg x="2037" y="246" height="9%" width="9%" viewBox="0 0 330 330"><g><a xlink:href="https://nftpuzzle.license-token.com/" class="links"><title>See the most innovative NFT based token software licensing project</title><path fill="#E4CF37" id="more" d="M165,0C74.019,0,0,74.019,0,165s74.019,165,165,165s165-74.019,165-165S255.981,0,165,0z M85,190 c-13.785,0-25-11.215-25-25s11.215-25,25-25s25,11.215,25,25S98.785,190,85,190z M165,190c-13.785,0-25-11.215-25-25 s11.215-25,25-25s25,11.215,25,25S178.785,190,165,190z M245,190c-13.785,0-25-11.215-25-25s11.215-25,25-25 c13.785,0,25,11.215,25,25S258.785,190,245,190z"></path></a></g></svg></svg></svg>