<svg version="1.1" xmlns="http://www.w3.org/2000/svg" xmlns:xlink="http://www.w3.org/1999/xlink" fill="transparent" x="0" y="0" width="350" height="350" preserveAspectRatio="xMinYMin slice"><style type="text/css">.links{fill:transparent;stroke: #E4CF37;}.links:hover{fill:#63D272; opacity:0.4;}</style><defs><g id="allt"><path id="t9711" d="M3036,2368 L3025,2367 C3014,2366 3028,2372 3018,2372 C3008,2373 3024,2364 3013,2366 L3003,2368 3003,2368 L3003,2376 C3003,2385 3007,2376 3008,2383 C3009,2391 3001,2380 3002,2390 L3003,2400 L3003,2400 L3036,2400 3036,2400 L3036,2390 C3036,2380 3038,2394 3039,2385 C3040,2377 3035,2385 3035,2376 L3036,2368"/></g><clipPath id="c" clipRule="evenodd" fill="transparent"><use href="#t9711"/></clipPath></defs><svg viewBox="3000 2363 41 38" preserveAspectRatio="xMinYMin meet"><svg width="4380" height="2430"><g><image crossorigin="anonymous" x="0" y="0" href="https://nftpuzzle.license-token.com/assets/completepuzzle.svg" width="100%" height="100%" /><g class="links"><use href="#t9711"/></g></g></svg><svg x="3026" y="2386" height="9%" width="9%" viewBox="0 0 330 330"><g><a xlink:href="https://nftpuzzle.license-token.com/" class="links"><title>See the most innovative NFT based token software licensing project</title><path fill="#E4CF37" id="more" d="M165,0C74.019,0,0,74.019,0,165s74.019,165,165,165s165-74.019,165-165S255.981,0,165,0z M85,190 c-13.785,0-25-11.215-25-25s11.215-25,25-25s25,11.215,25,25S98.785,190,85,190z M165,190c-13.785,0-25-11.215-25-25 s11.215-25,25-25s25,11.215,25,25S178.785,190,165,190z M245,190c-13.785,0-25-11.215-25-25s11.215-25,25-25 c13.785,0,25,11.215,25,25S258.785,190,245,190z"></path></a></g></svg></svg></svg>