<svg version="1.1" xmlns="http://www.w3.org/2000/svg" xmlns:xlink="http://www.w3.org/1999/xlink" fill="transparent" x="0" y="0" width="350" height="350" preserveAspectRatio="xMinYMin slice"><style type="text/css">.links{fill:transparent;stroke: #E4CF37;}.links:hover{fill:#63D272; opacity:0.4;}</style><defs><g id="allt"><path id="t9714" d="M3135,2368 L3124,2368 C3113,2368 3125,2360 3117,2361 C3110,2362 3120,2370 3111,2369 L3102,2368 3102,2368 L3102,2377 C3102,2387 3099,2376 3098,2383 C3098,2391 3103,2379 3102,2389 L3102,2400 L3102,2400 L3135,2400 3135,2400 L3133,2391 C3132,2382 3143,2390 3142,2383 C3142,2377 3133,2387 3134,2377 L3135,2368"/></g><clipPath id="c" clipRule="evenodd" fill="transparent"><use href="#t9714"/></clipPath></defs><svg viewBox="3097 2359 47 42" preserveAspectRatio="xMinYMin meet"><svg width="4380" height="2430"><g><image crossorigin="anonymous" x="0" y="0" href="https://nftpuzzle.license-token.com/assets/completepuzzle.svg" width="100%" height="100%" /><g class="links"><use href="#t9714"/></g></g></svg><svg x="3129" y="2386" height="9%" width="9%" viewBox="0 0 330 330"><g><a xlink:href="https://nftpuzzle.license-token.com/" class="links"><title>See the most innovative NFT based token software licensing project</title><path fill="#E4CF37" id="more" d="M165,0C74.019,0,0,74.019,0,165s74.019,165,165,165s165-74.019,165-165S255.981,0,165,0z M85,190 c-13.785,0-25-11.215-25-25s11.215-25,25-25s25,11.215,25,25S98.785,190,85,190z M165,190c-13.785,0-25-11.215-25-25 s11.215-25,25-25s25,11.215,25,25S178.785,190,165,190z M245,190c-13.785,0-25-11.215-25-25s11.215-25,25-25 c13.785,0,25,11.215,25,25S258.785,190,245,190z"></path></a></g></svg></svg></svg>