<svg version="1.1" xmlns="http://www.w3.org/2000/svg" xmlns:xlink="http://www.w3.org/1999/xlink" fill="transparent" x="0" y="0" width="350" height="350" preserveAspectRatio="xMinYMin slice"><style type="text/css">.links{fill:transparent;stroke: #E4CF37;}.links:hover{fill:#63D272; opacity:0.4;}</style><defs><g id="allt"><path id="t9717" d="M3234,2368 L3224,2365 C3214,2363 3226,2378 3216,2379 C3206,2380 3222,2364 3211,2366 L3201,2368 3201,2368 L3201,2378 C3201,2388 3195,2375 3194,2384 C3193,2394 3201,2379 3201,2389 L3201,2400 L3201,2400 L3234,2400 3234,2400 L3235,2390 C3236,2381 3224,2394 3225,2385 C3227,2376 3239,2385 3236,2376 L3234,2368"/></g><clipPath id="c" clipRule="evenodd" fill="transparent"><use href="#t9717"/></clipPath></defs><svg viewBox="3192 2362 48 39" preserveAspectRatio="xMinYMin meet"><svg width="4380" height="2430"><g><image crossorigin="anonymous" x="0" y="0" href="https://nftpuzzle.license-token.com/assets/completepuzzle.svg" width="100%" height="100%" /><g class="links"><use href="#t9717"/></g></g></svg><svg x="3225" y="2386" height="9%" width="9%" viewBox="0 0 330 330"><g><a xlink:href="https://nftpuzzle.license-token.com/" class="links"><title>See the most innovative NFT based token software licensing project</title><path fill="#E4CF37" id="more" d="M165,0C74.019,0,0,74.019,0,165s74.019,165,165,165s165-74.019,165-165S255.981,0,165,0z M85,190 c-13.785,0-25-11.215-25-25s11.215-25,25-25s25,11.215,25,25S98.785,190,85,190z M165,190c-13.785,0-25-11.215-25-25 s11.215-25,25-25s25,11.215,25,25S178.785,190,165,190z M245,190c-13.785,0-25-11.215-25-25s11.215-25,25-25 c13.785,0,25,11.215,25,25S258.785,190,245,190z"></path></a></g></svg></svg></svg>