<svg version="1.1" xmlns="http://www.w3.org/2000/svg" xmlns:xlink="http://www.w3.org/1999/xlink" fill="transparent" x="0" y="0" width="350" height="350" preserveAspectRatio="xMinYMin slice"><style type="text/css">.links{fill:transparent;stroke: #E4CF37;}.links:hover{fill:#63D272; opacity:0.4;}</style><defs><g id="allt"><path id="t9734" d="M3795,2368 L3785,2367 C3775,2366 3787,2373 3778,2374 C3769,2375 3782,2368 3772,2368 L3762,2368 3762,2368 L3764,2377 C3767,2386 3754,2377 3752,2383 C3751,2390 3766,2378 3764,2389 L3762,2400 L3762,2400 L3795,2400 3795,2400 L3795,2390 C3795,2381 3798,2392 3798,2382 C3798,2373 3794,2388 3794,2378 L3795,2368"/></g><clipPath id="c" clipRule="evenodd" fill="transparent"><use href="#t9734"/></clipPath></defs><svg viewBox="3750 2365 49 36" preserveAspectRatio="xMinYMin meet"><svg width="4380" height="2430"><g><image crossorigin="anonymous" x="0" y="0" href="https://nftpuzzle.license-token.com/assets/completepuzzle.svg" width="100%" height="100%" /><g class="links"><use href="#t9734"/></g></g></svg><svg x="3784" y="2386" height="9%" width="9%" viewBox="0 0 330 330"><g><a xlink:href="https://nftpuzzle.license-token.com/" class="links"><title>See the most innovative NFT based token software licensing project</title><path fill="#E4CF37" id="more" d="M165,0C74.019,0,0,74.019,0,165s74.019,165,165,165s165-74.019,165-165S255.981,0,165,0z M85,190 c-13.785,0-25-11.215-25-25s11.215-25,25-25s25,11.215,25,25S98.785,190,85,190z M165,190c-13.785,0-25-11.215-25-25 s11.215-25,25-25s25,11.215,25,25S178.785,190,165,190z M245,190c-13.785,0-25-11.215-25-25s11.215-25,25-25 c13.785,0,25,11.215,25,25S258.785,190,245,190z"></path></a></g></svg></svg></svg>