<svg version="1.1" xmlns="http://www.w3.org/2000/svg" xmlns:xlink="http://www.w3.org/1999/xlink" fill="transparent" x="0" y="0" width="350" height="350" preserveAspectRatio="xMinYMin slice"><style type="text/css">.links{fill:transparent;stroke: #E4CF37;}.links:hover{fill:#63D272; opacity:0.4;}</style><defs><g id="allt"><path id="t9737" d="M3894,2368 L3884,2366 C3874,2365 3888,2372 3877,2372 C3867,2373 3882,2365 3871,2366 L3861,2368 3861,2368 L3861,2376 C3861,2385 3867,2375 3869,2382 C3872,2390 3862,2380 3861,2390 L3861,2400 L3861,2400 L3894,2400 3894,2400 L3896,2389 C3898,2379 3890,2394 3889,2383 C3888,2373 3896,2387 3895,2377 L3894,2368"/></g><clipPath id="c" clipRule="evenodd" fill="transparent"><use href="#t9737"/></clipPath></defs><svg viewBox="3860 2364 39 37" preserveAspectRatio="xMinYMin meet"><svg width="4380" height="2430"><g><image crossorigin="anonymous" x="0" y="0" href="https://nftpuzzle.license-token.com/assets/completepuzzle.svg" width="100%" height="100%" /><g class="links"><use href="#t9737"/></g></g></svg><svg x="3884" y="2386" height="9%" width="9%" viewBox="0 0 330 330"><g><a xlink:href="https://nftpuzzle.license-token.com/" class="links"><title>See the most innovative NFT based token software licensing project</title><path fill="#E4CF37" id="more" d="M165,0C74.019,0,0,74.019,0,165s74.019,165,165,165s165-74.019,165-165S255.981,0,165,0z M85,190 c-13.785,0-25-11.215-25-25s11.215-25,25-25s25,11.215,25,25S98.785,190,85,190z M165,190c-13.785,0-25-11.215-25-25 s11.215-25,25-25s25,11.215,25,25S178.785,190,165,190z M245,190c-13.785,0-25-11.215-25-25s11.215-25,25-25 c13.785,0,25,11.215,25,25S258.785,190,245,190z"></path></a></g></svg></svg></svg>