<svg version="1.1" xmlns="http://www.w3.org/2000/svg" xmlns:xlink="http://www.w3.org/1999/xlink" fill="transparent" x="0" y="0" width="350" height="350" preserveAspectRatio="xMinYMin slice"><style type="text/css">.links{fill:transparent;stroke: #E4CF37;}.links:hover{fill:#63D272; opacity:0.4;}</style><defs><g id="allt"><path id="t9741" d="M4026,2368 L4016,2368 C4006,2368 4018,2370 4009,2371 C4000,2372 4013,2367 4003,2367 L3993,2368 3993,2368 L3993,2378 C3994,2389 3985,2374 3984,2384 C3984,2394 3993,2380 3993,2390 L3993,2400 L3993,2400 L4026,2400 4026,2400 L4026,2390 C4026,2381 4017,2393 4018,2385 C4020,2377 4028,2388 4027,2378 L4026,2368"/></g><clipPath id="c" clipRule="evenodd" fill="transparent"><use href="#t9741"/></clipPath></defs><svg viewBox="3983 2366 46 35" preserveAspectRatio="xMinYMin meet"><svg width="4380" height="2430"><g><image crossorigin="anonymous" x="0" y="0" href="https://nftpuzzle.license-token.com/assets/completepuzzle.svg" width="100%" height="100%" /><g class="links"><use href="#t9741"/></g></g></svg><svg x="4014" y="2386" height="9%" width="9%" viewBox="0 0 330 330"><g><a xlink:href="https://nftpuzzle.license-token.com/" class="links"><title>See the most innovative NFT based token software licensing project</title><path fill="#E4CF37" id="more" d="M165,0C74.019,0,0,74.019,0,165s74.019,165,165,165s165-74.019,165-165S255.981,0,165,0z M85,190 c-13.785,0-25-11.215-25-25s11.215-25,25-25s25,11.215,25,25S98.785,190,85,190z M165,190c-13.785,0-25-11.215-25-25 s11.215-25,25-25s25,11.215,25,25S178.785,190,165,190z M245,190c-13.785,0-25-11.215-25-25s11.215-25,25-25 c13.785,0,25,11.215,25,25S258.785,190,245,190z"></path></a></g></svg></svg></svg>