<svg version="1.1" xmlns="http://www.w3.org/2000/svg" xmlns:xlink="http://www.w3.org/1999/xlink" fill="transparent" x="0" y="0" width="350" height="350" preserveAspectRatio="xMinYMin slice"><style type="text/css">.links{fill:transparent;stroke: #E4CF37;}.links:hover{fill:#63D272; opacity:0.4;}</style><defs><g id="allt"><path id="t9744" d="M4125,2368 L4114,2366 C4103,2365 4119,2376 4109,2376 C4099,2377 4111,2364 4101,2366 L4092,2368 4092,2368 L4093,2377 C4094,2386 4081,2376 4080,2385 C4080,2395 4092,2380 4092,2390 L4092,2400 L4092,2400 L4125,2400 4125,2400 L4126,2390 C4127,2380 4117,2391 4118,2382 C4120,2373 4126,2386 4125,2377 L4125,2368"/></g><clipPath id="c" clipRule="evenodd" fill="transparent"><use href="#t9744"/></clipPath></defs><svg viewBox="4079 2363 49 38" preserveAspectRatio="xMinYMin meet"><svg width="4380" height="2430"><g><image crossorigin="anonymous" x="0" y="0" href="https://nftpuzzle.license-token.com/assets/completepuzzle.svg" width="100%" height="100%" /><g class="links"><use href="#t9744"/></g></g></svg><svg x="4113" y="2386" height="9%" width="9%" viewBox="0 0 330 330"><g><a xlink:href="https://nftpuzzle.license-token.com/" class="links"><title>See the most innovative NFT based token software licensing project</title><path fill="#E4CF37" id="more" d="M165,0C74.019,0,0,74.019,0,165s74.019,165,165,165s165-74.019,165-165S255.981,0,165,0z M85,190 c-13.785,0-25-11.215-25-25s11.215-25,25-25s25,11.215,25,25S98.785,190,85,190z M165,190c-13.785,0-25-11.215-25-25 s11.215-25,25-25s25,11.215,25,25S178.785,190,165,190z M245,190c-13.785,0-25-11.215-25-25s11.215-25,25-25 c13.785,0,25,11.215,25,25S258.785,190,245,190z"></path></a></g></svg></svg></svg>