<svg version="1.1" xmlns="http://www.w3.org/2000/svg" xmlns:xlink="http://www.w3.org/1999/xlink" fill="transparent" x="0" y="0" width="350" height="350" preserveAspectRatio="xMinYMin slice"><style type="text/css">.links{fill:transparent;stroke: #E4CF37;}.links:hover{fill:#63D272; opacity:0.4;}</style><defs><g id="allt"><path id="t9748" d="M4257,2368 L4247,2367 C4238,2366 4248,2373 4238,2374 C4229,2375 4245,2368 4234,2368 L4224,2368 4224,2368 L4225,2378 C4227,2389 4218,2377 4219,2386 C4220,2395 4226,2379 4225,2389 L4224,2400 L4224,2400 L4257,2400 4257,2400 L4258,2390 C4260,2380 4247,2394 4248,2385 C4249,2376 4260,2387 4258,2377 L4257,2368"/></g><clipPath id="c" clipRule="evenodd" fill="transparent"><use href="#t9748"/></clipPath></defs><svg viewBox="4217 2365 44 36" preserveAspectRatio="xMinYMin meet"><svg width="4380" height="2430"><g><image crossorigin="anonymous" x="0" y="0" href="https://nftpuzzle.license-token.com/assets/completepuzzle.svg" width="100%" height="100%" /><g class="links"><use href="#t9748"/></g></g></svg><svg x="4246" y="2386" height="9%" width="9%" viewBox="0 0 330 330"><g><a xlink:href="https://nftpuzzle.license-token.com/" class="links"><title>See the most innovative NFT based token software licensing project</title><path fill="#E4CF37" id="more" d="M165,0C74.019,0,0,74.019,0,165s74.019,165,165,165s165-74.019,165-165S255.981,0,165,0z M85,190 c-13.785,0-25-11.215-25-25s11.215-25,25-25s25,11.215,25,25S98.785,190,85,190z M165,190c-13.785,0-25-11.215-25-25 s11.215-25,25-25s25,11.215,25,25S178.785,190,165,190z M245,190c-13.785,0-25-11.215-25-25s11.215-25,25-25 c13.785,0,25,11.215,25,25S258.785,190,245,190z"></path></a></g></svg></svg></svg>