<svg version="1.1" xmlns="http://www.w3.org/2000/svg" xmlns:xlink="http://www.w3.org/1999/xlink" fill="transparent" x="0" y="0" width="350" height="350" preserveAspectRatio="xMinYMin slice"><style type="text/css">.links{fill:transparent;stroke: #E4CF37;}.links:hover{fill:#63D272; opacity:0.4;}</style><defs><g id="allt"><path id="t984" d="M2475,224 L2465,221 C2456,219 2468,232 2459,231 C2451,230 2460,224 2451,224 L2442,224 2442,224 L2442,233 C2442,242 2437,232 2437,240 C2437,249 2442,234 2442,245 L2442,256 2442,256 L2451,256 C2461,256 2450,251 2459,251 C2468,251 2453,256 2464,256 L2475,256 2475,256 L2477,246 C2479,237 2463,248 2464,239 C2465,231 2476,241 2475,232 L2475,224"/></g><clipPath id="c" clipRule="evenodd" fill="transparent"><use href="#t984"/></clipPath></defs><svg viewBox="2436 218 44 39" preserveAspectRatio="xMinYMin meet"><svg width="4380" height="2430"><g><image crossorigin="anonymous" x="0" y="0" href="https://nftpuzzle.license-token.com/assets/completepuzzle.svg" width="100%" height="100%" /><g class="links"><use href="#t984"/></g></g></svg><svg x="2465" y="242" height="9%" width="9%" viewBox="0 0 330 330"><g><a xlink:href="https://nftpuzzle.license-token.com/" class="links"><title>See the most innovative NFT based token software licensing project</title><path fill="#E4CF37" id="more" d="M165,0C74.019,0,0,74.019,0,165s74.019,165,165,165s165-74.019,165-165S255.981,0,165,0z M85,190 c-13.785,0-25-11.215-25-25s11.215-25,25-25s25,11.215,25,25S98.785,190,85,190z M165,190c-13.785,0-25-11.215-25-25 s11.215-25,25-25s25,11.215,25,25S178.785,190,165,190z M245,190c-13.785,0-25-11.215-25-25s11.215-25,25-25 c13.785,0,25,11.215,25,25S258.785,190,245,190z"></path></a></g></svg></svg></svg>