<svg version="1.1" xmlns="http://www.w3.org/2000/svg" xmlns:xlink="http://www.w3.org/1999/xlink" fill="transparent" x="0" y="0" width="350" height="350" preserveAspectRatio="xMinYMin slice"><style type="text/css">.links{fill:transparent;stroke: #E4CF37;}.links:hover{fill:#63D272; opacity:0.4;}</style><defs><g id="allt"><path id="t987" d="M2574,224 L2563,224 C2553,224 2568,221 2558,221 C2548,221 2561,225 2551,224 L2541,224 2541,224 L2542,234 C2543,244 2537,229 2538,239 C2539,250 2541,238 2541,247 L2541,256 2541,256 L2551,257 C2562,258 2546,252 2557,253 C2568,254 2555,256 2564,256 L2574,256 2574,256 L2574,247 C2574,238 2579,250 2579,241 C2580,232 2574,243 2574,233 L2574,224"/></g><clipPath id="c" clipRule="evenodd" fill="transparent"><use href="#t987"/></clipPath></defs><svg viewBox="2536 220 45 39" preserveAspectRatio="xMinYMin meet"><svg width="4380" height="2430"><g><image crossorigin="anonymous" x="0" y="0" href="https://nftpuzzle.license-token.com/assets/completepuzzle.svg" width="100%" height="100%" /><g class="links"><use href="#t987"/></g></g></svg><svg x="2566" y="244" height="9%" width="9%" viewBox="0 0 330 330"><g><a xlink:href="https://nftpuzzle.license-token.com/" class="links"><title>See the most innovative NFT based token software licensing project</title><path fill="#E4CF37" id="more" d="M165,0C74.019,0,0,74.019,0,165s74.019,165,165,165s165-74.019,165-165S255.981,0,165,0z M85,190 c-13.785,0-25-11.215-25-25s11.215-25,25-25s25,11.215,25,25S98.785,190,85,190z M165,190c-13.785,0-25-11.215-25-25 s11.215-25,25-25s25,11.215,25,25S178.785,190,165,190z M245,190c-13.785,0-25-11.215-25-25s11.215-25,25-25 c13.785,0,25,11.215,25,25S258.785,190,245,190z"></path></a></g></svg></svg></svg>