<svg version="1.1" xmlns="http://www.w3.org/2000/svg" xmlns:xlink="http://www.w3.org/1999/xlink" fill="transparent" x="0" y="0" width="350" height="350" preserveAspectRatio="xMinYMin slice"><style type="text/css">.links{fill:transparent;stroke: #E4CF37;}.links:hover{fill:#63D272; opacity:0.4;}</style><defs><g id="allt"><path id="t992" d="M2739,224 L2728,225 C2717,227 2731,217 2721,216 C2712,215 2728,225 2717,224 L2706,224 2706,224 L2706,233 C2706,242 2697,233 2697,241 C2697,250 2706,236 2706,246 L2706,256 2706,256 L2715,256 C2724,256 2715,248 2724,248 C2733,248 2719,256 2729,256 L2739,256 2739,256 L2740,245 C2741,235 2728,250 2729,240 C2731,230 2739,241 2739,232 L2739,224"/></g><clipPath id="c" clipRule="evenodd" fill="transparent"><use href="#t992"/></clipPath></defs><svg viewBox="2696 214 46 43" preserveAspectRatio="xMinYMin meet"><svg width="4380" height="2430"><g><image crossorigin="anonymous" x="0" y="0" href="https://nftpuzzle.license-token.com/assets/completepuzzle.svg" width="100%" height="100%" /><g class="links"><use href="#t992"/></g></g></svg><svg x="2727" y="242" height="9%" width="9%" viewBox="0 0 330 330"><g><a xlink:href="https://nftpuzzle.license-token.com/" class="links"><title>See the most innovative NFT based token software licensing project</title><path fill="#E4CF37" id="more" d="M165,0C74.019,0,0,74.019,0,165s74.019,165,165,165s165-74.019,165-165S255.981,0,165,0z M85,190 c-13.785,0-25-11.215-25-25s11.215-25,25-25s25,11.215,25,25S98.785,190,85,190z M165,190c-13.785,0-25-11.215-25-25 s11.215-25,25-25s25,11.215,25,25S178.785,190,165,190z M245,190c-13.785,0-25-11.215-25-25s11.215-25,25-25 c13.785,0,25,11.215,25,25S258.785,190,245,190z"></path></a></g></svg></svg></svg>