<svg version="1.1" xmlns="http://www.w3.org/2000/svg" xmlns:xlink="http://www.w3.org/1999/xlink" fill="transparent" x="0" y="0" width="350" height="350" preserveAspectRatio="xMinYMin slice"><style type="text/css">.links{fill:transparent;stroke: #E4CF37;}.links:hover{fill:#63D272; opacity:0.4;}</style><defs><g id="allt"><path id="t993" d="M2772,224 L2762,223 C2753,222 2766,230 2757,228 C2748,227 2760,223 2749,223 L2739,224 2739,224 L2739,232 C2739,241 2731,230 2729,240 C2728,250 2741,235 2740,245 L2739,256 2739,256 L2748,256 C2757,256 2745,248 2755,246 C2766,245 2750,258 2761,257 L2772,256 2772,256 L2772,246 C2772,237 2779,249 2777,240 C2776,231 2770,242 2771,233 L2772,224"/></g><clipPath id="c" clipRule="evenodd" fill="transparent"><use href="#t993"/></clipPath></defs><svg viewBox="2727 221 53 38" preserveAspectRatio="xMinYMin meet"><svg width="4380" height="2430"><g><image crossorigin="anonymous" x="0" y="0" href="https://nftpuzzle.license-token.com/assets/completepuzzle.svg" width="100%" height="100%" /><g class="links"><use href="#t993"/></g></g></svg><svg x="2765" y="244" height="9%" width="9%" viewBox="0 0 330 330"><g><a xlink:href="https://nftpuzzle.license-token.com/" class="links"><title>See the most innovative NFT based token software licensing project</title><path fill="#E4CF37" id="more" d="M165,0C74.019,0,0,74.019,0,165s74.019,165,165,165s165-74.019,165-165S255.981,0,165,0z M85,190 c-13.785,0-25-11.215-25-25s11.215-25,25-25s25,11.215,25,25S98.785,190,85,190z M165,190c-13.785,0-25-11.215-25-25 s11.215-25,25-25s25,11.215,25,25S178.785,190,165,190z M245,190c-13.785,0-25-11.215-25-25s11.215-25,25-25 c13.785,0,25,11.215,25,25S258.785,190,245,190z"></path></a></g></svg></svg></svg>