<svg version="1.1" xmlns="http://www.w3.org/2000/svg" xmlns:xlink="http://www.w3.org/1999/xlink" fill="transparent" x="0" y="0" width="350" height="350" preserveAspectRatio="xMinYMin slice"><style type="text/css">.links{fill:transparent;stroke: #E4CF37;}.links:hover{fill:#63D272; opacity:0.4;}</style><defs><g id="allt"><path id="t996" d="M2871,224 L2861,222 C2852,221 2861,229 2853,231 C2845,234 2856,224 2847,224 L2838,224 2838,224 L2838,234 C2838,244 2835,229 2834,237 C2833,246 2840,236 2839,246 L2838,256 2838,256 L2848,256 C2859,256 2843,253 2852,252 C2861,251 2850,258 2860,257 L2871,256 2871,256 L2869,247 C2867,238 2881,247 2881,239 C2882,231 2869,243 2870,233 L2871,224"/></g><clipPath id="c" clipRule="evenodd" fill="transparent"><use href="#t996"/></clipPath></defs><svg viewBox="2832 220 51 39" preserveAspectRatio="xMinYMin meet"><svg width="4380" height="2430"><g><image crossorigin="anonymous" x="0" y="0" href="https://nftpuzzle.license-token.com/assets/completepuzzle.svg" width="100%" height="100%" /><g class="links"><use href="#t996"/></g></g></svg><svg x="2868" y="244" height="9%" width="9%" viewBox="0 0 330 330"><g><a xlink:href="https://nftpuzzle.license-token.com/" class="links"><title>See the most innovative NFT based token software licensing project</title><path fill="#E4CF37" id="more" d="M165,0C74.019,0,0,74.019,0,165s74.019,165,165,165s165-74.019,165-165S255.981,0,165,0z M85,190 c-13.785,0-25-11.215-25-25s11.215-25,25-25s25,11.215,25,25S98.785,190,85,190z M165,190c-13.785,0-25-11.215-25-25 s11.215-25,25-25s25,11.215,25,25S178.785,190,165,190z M245,190c-13.785,0-25-11.215-25-25s11.215-25,25-25 c13.785,0,25,11.215,25,25S258.785,190,245,190z"></path></a></g></svg></svg></svg>