<svg version="1.1" xmlns="http://www.w3.org/2000/svg" xmlns:xlink="http://www.w3.org/1999/xlink" fill="transparent" x="0" y="0" width="350" height="350" preserveAspectRatio="xMinYMin slice"><style type="text/css">.links{fill:transparent;stroke: #E4CF37;}.links:hover{fill:#63D272; opacity:0.4;}</style><defs><g id="allt"><path id="t997" d="M2904,224 L2893,224 C2882,225 2899,221 2887,221 C2876,222 2892,224 2881,224 L2871,224 2871,224 L2870,233 C2869,243 2882,231 2881,239 C2881,247 2867,238 2869,247 L2871,256 2871,256 L2881,255 C2891,254 2878,267 2886,266 C2895,265 2885,252 2894,254 L2904,256 2904,256 L2904,245 C2904,235 2914,251 2912,242 C2911,233 2899,245 2901,234 L2904,224"/></g><clipPath id="c" clipRule="evenodd" fill="transparent"><use href="#t997"/></clipPath></defs><svg viewBox="2866 220 49 48" preserveAspectRatio="xMinYMin meet"><svg width="4380" height="2430"><g><image crossorigin="anonymous" x="0" y="0" href="https://nftpuzzle.license-token.com/assets/completepuzzle.svg" width="100%" height="100%" /><g class="links"><use href="#t997"/></g></g></svg><svg x="2900" y="253" height="9%" width="9%" viewBox="0 0 330 330"><g><a xlink:href="https://nftpuzzle.license-token.com/" class="links"><title>See the most innovative NFT based token software licensing project</title><path fill="#E4CF37" id="more" d="M165,0C74.019,0,0,74.019,0,165s74.019,165,165,165s165-74.019,165-165S255.981,0,165,0z M85,190 c-13.785,0-25-11.215-25-25s11.215-25,25-25s25,11.215,25,25S98.785,190,85,190z M165,190c-13.785,0-25-11.215-25-25 s11.215-25,25-25s25,11.215,25,25S178.785,190,165,190z M245,190c-13.785,0-25-11.215-25-25s11.215-25,25-25 c13.785,0,25,11.215,25,25S258.785,190,245,190z"></path></a></g></svg></svg></svg>